<?xml version="1.0" encoding="utf-8"?>
<svg xmlns="http://www.w3.org/2000/svg" xmlns:xlink="http://www.w3.org/1999/xlink" width="800" height="400" viewBox="0 0 3200 1600">
<defs>
  <clipPath id="clip520">
    <rect x="0" y="0" width="3200" height="1600"/>
  </clipPath>
</defs>
<path clip-path="url(#clip520)" d="M0 1600 L3200 1600 L3200 0 L0 0  Z" fill="#ffffff" fill-rule="evenodd" fill-opacity="1"/>
<defs>
  <clipPath id="clip521">
    <rect x="640" y="0" width="2241" height="1600"/>
  </clipPath>
</defs>
<path clip-path="url(#clip520)" d="M211.356 1396.46 L3152.76 1396.46 L3152.76 47.2441 L211.356 47.2441  Z" fill="#ffffff" fill-rule="evenodd" fill-opacity="1"/>
<defs>
  <clipPath id="clip522">
    <rect x="211" y="47" width="2942" height="1350"/>
  </clipPath>
</defs>
<polyline clip-path="url(#clip522)" style="stroke:#000000; stroke-linecap:round; stroke-linejoin:round; stroke-width:2; stroke-opacity:0.1; fill:none" points="211.356,1396.46 211.356,47.2441 "/>
<polyline clip-path="url(#clip522)" style="stroke:#000000; stroke-linecap:round; stroke-linejoin:round; stroke-width:2; stroke-opacity:0.1; fill:none" points="824.148,1396.46 824.148,47.2441 "/>
<polyline clip-path="url(#clip522)" style="stroke:#000000; stroke-linecap:round; stroke-linejoin:round; stroke-width:2; stroke-opacity:0.1; fill:none" points="1436.94,1396.46 1436.94,47.2441 "/>
<polyline clip-path="url(#clip522)" style="stroke:#000000; stroke-linecap:round; stroke-linejoin:round; stroke-width:2; stroke-opacity:0.1; fill:none" points="2049.73,1396.46 2049.73,47.2441 "/>
<polyline clip-path="url(#clip522)" style="stroke:#000000; stroke-linecap:round; stroke-linejoin:round; stroke-width:2; stroke-opacity:0.1; fill:none" points="2662.52,1396.46 2662.52,47.2441 "/>
<polyline clip-path="url(#clip522)" style="stroke:#000000; stroke-linecap:round; stroke-linejoin:round; stroke-width:2; stroke-opacity:0.1; fill:none" points="211.356,1396.46 211.356,47.2441 "/>
<polyline clip-path="url(#clip522)" style="stroke:#000000; stroke-linecap:round; stroke-linejoin:round; stroke-width:2; stroke-opacity:0.1; fill:none" points="824.148,1396.46 824.148,47.2441 "/>
<polyline clip-path="url(#clip522)" style="stroke:#000000; stroke-linecap:round; stroke-linejoin:round; stroke-width:2; stroke-opacity:0.1; fill:none" points="1436.94,1396.46 1436.94,47.2441 "/>
<polyline clip-path="url(#clip522)" style="stroke:#000000; stroke-linecap:round; stroke-linejoin:round; stroke-width:2; stroke-opacity:0.1; fill:none" points="2049.73,1396.46 2049.73,47.2441 "/>
<polyline clip-path="url(#clip522)" style="stroke:#000000; stroke-linecap:round; stroke-linejoin:round; stroke-width:2; stroke-opacity:0.1; fill:none" points="2662.52,1396.46 2662.52,47.2441 "/>
<polyline clip-path="url(#clip522)" style="stroke:#000000; stroke-linecap:round; stroke-linejoin:round; stroke-width:2; stroke-opacity:0.1; fill:none" points="211.356,1358.27 3152.76,1358.27 "/>
<polyline clip-path="url(#clip522)" style="stroke:#000000; stroke-linecap:round; stroke-linejoin:round; stroke-width:2; stroke-opacity:0.1; fill:none" points="211.356,1040.06 3152.76,1040.06 "/>
<polyline clip-path="url(#clip522)" style="stroke:#000000; stroke-linecap:round; stroke-linejoin:round; stroke-width:2; stroke-opacity:0.1; fill:none" points="211.356,721.85 3152.76,721.85 "/>
<polyline clip-path="url(#clip522)" style="stroke:#000000; stroke-linecap:round; stroke-linejoin:round; stroke-width:2; stroke-opacity:0.1; fill:none" points="211.356,403.64 3152.76,403.64 "/>
<polyline clip-path="url(#clip522)" style="stroke:#000000; stroke-linecap:round; stroke-linejoin:round; stroke-width:2; stroke-opacity:0.1; fill:none" points="211.356,85.4293 3152.76,85.4293 "/>
<polyline clip-path="url(#clip522)" style="stroke:#000000; stroke-linecap:round; stroke-linejoin:round; stroke-width:2; stroke-opacity:0.1; fill:none" points="211.356,1358.27 3152.76,1358.27 "/>
<polyline clip-path="url(#clip522)" style="stroke:#000000; stroke-linecap:round; stroke-linejoin:round; stroke-width:2; stroke-opacity:0.1; fill:none" points="211.356,1040.06 3152.76,1040.06 "/>
<polyline clip-path="url(#clip522)" style="stroke:#000000; stroke-linecap:round; stroke-linejoin:round; stroke-width:2; stroke-opacity:0.1; fill:none" points="211.356,721.85 3152.76,721.85 "/>
<polyline clip-path="url(#clip522)" style="stroke:#000000; stroke-linecap:round; stroke-linejoin:round; stroke-width:2; stroke-opacity:0.1; fill:none" points="211.356,403.64 3152.76,403.64 "/>
<polyline clip-path="url(#clip522)" style="stroke:#000000; stroke-linecap:round; stroke-linejoin:round; stroke-width:2; stroke-opacity:0.1; fill:none" points="211.356,85.4293 3152.76,85.4293 "/>
<polyline clip-path="url(#clip520)" style="stroke:#000000; stroke-linecap:round; stroke-linejoin:round; stroke-width:4; stroke-opacity:1; fill:none" points="211.356,1396.46 3152.76,1396.46 "/>
<polyline clip-path="url(#clip520)" style="stroke:#000000; stroke-linecap:round; stroke-linejoin:round; stroke-width:4; stroke-opacity:1; fill:none" points="211.356,47.2441 3152.76,47.2441 "/>
<polyline clip-path="url(#clip520)" style="stroke:#000000; stroke-linecap:round; stroke-linejoin:round; stroke-width:4; stroke-opacity:1; fill:none" points="211.356,1396.46 211.356,1377.56 "/>
<polyline clip-path="url(#clip520)" style="stroke:#000000; stroke-linecap:round; stroke-linejoin:round; stroke-width:4; stroke-opacity:1; fill:none" points="824.148,1396.46 824.148,1377.56 "/>
<polyline clip-path="url(#clip520)" style="stroke:#000000; stroke-linecap:round; stroke-linejoin:round; stroke-width:4; stroke-opacity:1; fill:none" points="1436.94,1396.46 1436.94,1377.56 "/>
<polyline clip-path="url(#clip520)" style="stroke:#000000; stroke-linecap:round; stroke-linejoin:round; stroke-width:4; stroke-opacity:1; fill:none" points="2049.73,1396.46 2049.73,1377.56 "/>
<polyline clip-path="url(#clip520)" style="stroke:#000000; stroke-linecap:round; stroke-linejoin:round; stroke-width:4; stroke-opacity:1; fill:none" points="2662.52,1396.46 2662.52,1377.56 "/>
<polyline clip-path="url(#clip520)" style="stroke:#000000; stroke-linecap:round; stroke-linejoin:round; stroke-width:4; stroke-opacity:1; fill:none" points="211.356,47.2441 211.356,66.1417 "/>
<polyline clip-path="url(#clip520)" style="stroke:#000000; stroke-linecap:round; stroke-linejoin:round; stroke-width:4; stroke-opacity:1; fill:none" points="824.148,47.2441 824.148,66.1417 "/>
<polyline clip-path="url(#clip520)" style="stroke:#000000; stroke-linecap:round; stroke-linejoin:round; stroke-width:4; stroke-opacity:1; fill:none" points="1436.94,47.2441 1436.94,66.1417 "/>
<polyline clip-path="url(#clip520)" style="stroke:#000000; stroke-linecap:round; stroke-linejoin:round; stroke-width:4; stroke-opacity:1; fill:none" points="2049.73,47.2441 2049.73,66.1417 "/>
<polyline clip-path="url(#clip520)" style="stroke:#000000; stroke-linecap:round; stroke-linejoin:round; stroke-width:4; stroke-opacity:1; fill:none" points="2662.52,47.2441 2662.52,66.1417 "/>
<path clip-path="url(#clip520)" d="M211.356 1433.77 Q207.745 1433.77 205.916 1437.34 Q204.111 1440.88 204.111 1448.01 Q204.111 1455.12 205.916 1458.68 Q207.745 1462.22 211.356 1462.22 Q214.99 1462.22 216.796 1458.68 Q218.625 1455.12 218.625 1448.01 Q218.625 1440.88 216.796 1437.34 Q214.99 1433.77 211.356 1433.77 M211.356 1430.07 Q217.166 1430.07 220.222 1434.68 Q223.301 1439.26 223.301 1448.01 Q223.301 1456.74 220.222 1461.34 Q217.166 1465.93 211.356 1465.93 Q205.546 1465.93 202.467 1461.34 Q199.412 1456.74 199.412 1448.01 Q199.412 1439.26 202.467 1434.68 Q205.546 1430.07 211.356 1430.07 Z" fill="#000000" fill-rule="nonzero" fill-opacity="1" /><path clip-path="url(#clip520)" d="M814.426 1430.7 L832.782 1430.7 L832.782 1434.63 L818.708 1434.63 L818.708 1443.1 Q819.727 1442.76 820.745 1442.59 Q821.764 1442.41 822.782 1442.41 Q828.569 1442.41 831.949 1445.58 Q835.328 1448.75 835.328 1454.17 Q835.328 1459.75 831.856 1462.85 Q828.384 1465.93 822.064 1465.93 Q819.889 1465.93 817.62 1465.56 Q815.375 1465.19 812.967 1464.45 L812.967 1459.75 Q815.051 1460.88 817.273 1461.44 Q819.495 1461.99 821.972 1461.99 Q825.977 1461.99 828.314 1459.89 Q830.652 1457.78 830.652 1454.17 Q830.652 1450.56 828.314 1448.45 Q825.977 1446.34 821.972 1446.34 Q820.097 1446.34 818.222 1446.76 Q816.37 1447.18 814.426 1448.06 L814.426 1430.7 Z" fill="#000000" fill-rule="nonzero" fill-opacity="1" /><path clip-path="url(#clip520)" d="M1411.63 1461.32 L1419.27 1461.32 L1419.27 1434.95 L1410.96 1436.62 L1410.96 1432.36 L1419.22 1430.7 L1423.9 1430.7 L1423.9 1461.32 L1431.53 1461.32 L1431.53 1465.26 L1411.63 1465.26 L1411.63 1461.32 Z" fill="#000000" fill-rule="nonzero" fill-opacity="1" /><path clip-path="url(#clip520)" d="M1450.98 1433.77 Q1447.37 1433.77 1445.54 1437.34 Q1443.73 1440.88 1443.73 1448.01 Q1443.73 1455.12 1445.54 1458.68 Q1447.37 1462.22 1450.98 1462.22 Q1454.61 1462.22 1456.42 1458.68 Q1458.25 1455.12 1458.25 1448.01 Q1458.25 1440.88 1456.42 1437.34 Q1454.61 1433.77 1450.98 1433.77 M1450.98 1430.07 Q1456.79 1430.07 1459.84 1434.68 Q1462.92 1439.26 1462.92 1448.01 Q1462.92 1456.74 1459.84 1461.34 Q1456.79 1465.93 1450.98 1465.93 Q1445.17 1465.93 1442.09 1461.34 Q1439.03 1456.74 1439.03 1448.01 Q1439.03 1439.26 1442.09 1434.68 Q1445.17 1430.07 1450.98 1430.07 Z" fill="#000000" fill-rule="nonzero" fill-opacity="1" /><path clip-path="url(#clip520)" d="M2024.92 1461.32 L2032.56 1461.32 L2032.56 1434.95 L2024.25 1436.62 L2024.25 1432.36 L2032.51 1430.7 L2037.18 1430.7 L2037.18 1461.32 L2044.82 1461.32 L2044.82 1465.26 L2024.92 1465.26 L2024.92 1461.32 Z" fill="#000000" fill-rule="nonzero" fill-opacity="1" /><path clip-path="url(#clip520)" d="M2054.31 1430.7 L2072.67 1430.7 L2072.67 1434.63 L2058.6 1434.63 L2058.6 1443.1 Q2059.62 1442.76 2060.63 1442.59 Q2061.65 1442.41 2062.67 1442.41 Q2068.46 1442.41 2071.84 1445.58 Q2075.22 1448.75 2075.22 1454.17 Q2075.22 1459.75 2071.74 1462.85 Q2068.27 1465.93 2061.95 1465.93 Q2059.78 1465.93 2057.51 1465.56 Q2055.26 1465.19 2052.86 1464.45 L2052.86 1459.75 Q2054.94 1460.88 2057.16 1461.44 Q2059.38 1461.99 2061.86 1461.99 Q2065.87 1461.99 2068.2 1459.89 Q2070.54 1457.78 2070.54 1454.17 Q2070.54 1450.56 2068.2 1448.45 Q2065.87 1446.34 2061.86 1446.34 Q2059.99 1446.34 2058.11 1446.76 Q2056.26 1447.18 2054.31 1448.06 L2054.31 1430.7 Z" fill="#000000" fill-rule="nonzero" fill-opacity="1" /><path clip-path="url(#clip520)" d="M2641.3 1461.32 L2657.62 1461.32 L2657.62 1465.26 L2635.67 1465.26 L2635.67 1461.32 Q2638.33 1458.57 2642.92 1453.94 Q2647.52 1449.28 2648.7 1447.94 Q2650.95 1445.42 2651.83 1443.68 Q2652.73 1441.92 2652.73 1440.23 Q2652.73 1437.48 2650.79 1435.74 Q2648.87 1434.01 2645.76 1434.01 Q2643.56 1434.01 2641.11 1434.77 Q2638.68 1435.53 2635.9 1437.08 L2635.9 1432.36 Q2638.73 1431.23 2641.18 1430.65 Q2643.63 1430.07 2645.67 1430.07 Q2651.04 1430.07 2654.24 1432.76 Q2657.43 1435.44 2657.43 1439.93 Q2657.43 1442.06 2656.62 1443.98 Q2655.83 1445.88 2653.73 1448.47 Q2653.15 1449.14 2650.05 1452.36 Q2646.94 1455.56 2641.3 1461.32 Z" fill="#000000" fill-rule="nonzero" fill-opacity="1" /><path clip-path="url(#clip520)" d="M2677.43 1433.77 Q2673.82 1433.77 2671.99 1437.34 Q2670.18 1440.88 2670.18 1448.01 Q2670.18 1455.12 2671.99 1458.68 Q2673.82 1462.22 2677.43 1462.22 Q2681.06 1462.22 2682.87 1458.68 Q2684.7 1455.12 2684.7 1448.01 Q2684.7 1440.88 2682.87 1437.34 Q2681.06 1433.77 2677.43 1433.77 M2677.43 1430.07 Q2683.24 1430.07 2686.3 1434.68 Q2689.37 1439.26 2689.37 1448.01 Q2689.37 1456.74 2686.3 1461.34 Q2683.24 1465.93 2677.43 1465.93 Q2671.62 1465.93 2668.54 1461.34 Q2665.49 1456.74 2665.49 1448.01 Q2665.49 1439.26 2668.54 1434.68 Q2671.62 1430.07 2677.43 1430.07 Z" fill="#000000" fill-rule="nonzero" fill-opacity="1" /><path clip-path="url(#clip520)" d="M1681.12 1507.55 L1681.12 1517.67 L1693.18 1517.67 L1693.18 1522.22 L1681.12 1522.22 L1681.12 1541.58 Q1681.12 1545.94 1682.29 1547.18 Q1683.5 1548.42 1687.16 1548.42 L1693.18 1548.42 L1693.18 1553.32 L1687.16 1553.32 Q1680.39 1553.32 1677.81 1550.81 Q1675.23 1548.26 1675.23 1541.58 L1675.23 1522.22 L1670.93 1522.22 L1670.93 1517.67 L1675.23 1517.67 L1675.23 1507.55 L1681.12 1507.55 Z" fill="#000000" fill-rule="nonzero" fill-opacity="1" /><polyline clip-path="url(#clip520)" style="stroke:#000000; stroke-linecap:round; stroke-linejoin:round; stroke-width:4; stroke-opacity:1; fill:none" points="211.356,1396.46 211.356,47.2441 "/>
<polyline clip-path="url(#clip520)" style="stroke:#000000; stroke-linecap:round; stroke-linejoin:round; stroke-width:4; stroke-opacity:1; fill:none" points="3152.76,1396.46 3152.76,47.2441 "/>
<polyline clip-path="url(#clip520)" style="stroke:#000000; stroke-linecap:round; stroke-linejoin:round; stroke-width:4; stroke-opacity:1; fill:none" points="211.356,1358.27 230.254,1358.27 "/>
<polyline clip-path="url(#clip520)" style="stroke:#000000; stroke-linecap:round; stroke-linejoin:round; stroke-width:4; stroke-opacity:1; fill:none" points="211.356,1040.06 230.254,1040.06 "/>
<polyline clip-path="url(#clip520)" style="stroke:#000000; stroke-linecap:round; stroke-linejoin:round; stroke-width:4; stroke-opacity:1; fill:none" points="211.356,721.85 230.254,721.85 "/>
<polyline clip-path="url(#clip520)" style="stroke:#000000; stroke-linecap:round; stroke-linejoin:round; stroke-width:4; stroke-opacity:1; fill:none" points="211.356,403.64 230.254,403.64 "/>
<polyline clip-path="url(#clip520)" style="stroke:#000000; stroke-linecap:round; stroke-linejoin:round; stroke-width:4; stroke-opacity:1; fill:none" points="211.356,85.4293 230.254,85.4293 "/>
<polyline clip-path="url(#clip520)" style="stroke:#000000; stroke-linecap:round; stroke-linejoin:round; stroke-width:4; stroke-opacity:1; fill:none" points="3152.76,1358.27 3133.86,1358.27 "/>
<polyline clip-path="url(#clip520)" style="stroke:#000000; stroke-linecap:round; stroke-linejoin:round; stroke-width:4; stroke-opacity:1; fill:none" points="3152.76,1040.06 3133.86,1040.06 "/>
<polyline clip-path="url(#clip520)" style="stroke:#000000; stroke-linecap:round; stroke-linejoin:round; stroke-width:4; stroke-opacity:1; fill:none" points="3152.76,721.85 3133.86,721.85 "/>
<polyline clip-path="url(#clip520)" style="stroke:#000000; stroke-linecap:round; stroke-linejoin:round; stroke-width:4; stroke-opacity:1; fill:none" points="3152.76,403.64 3133.86,403.64 "/>
<polyline clip-path="url(#clip520)" style="stroke:#000000; stroke-linecap:round; stroke-linejoin:round; stroke-width:4; stroke-opacity:1; fill:none" points="3152.76,85.4293 3133.86,85.4293 "/>
<path clip-path="url(#clip520)" d="M106.181 1344.07 Q102.57 1344.07 100.741 1347.63 Q98.9353 1351.18 98.9353 1358.31 Q98.9353 1365.41 100.741 1368.98 Q102.57 1372.52 106.181 1372.52 Q109.815 1372.52 111.62 1368.98 Q113.449 1365.41 113.449 1358.31 Q113.449 1351.18 111.62 1347.63 Q109.815 1344.07 106.181 1344.07 M106.181 1340.37 Q111.991 1340.37 115.046 1344.97 Q118.125 1349.56 118.125 1358.31 Q118.125 1367.03 115.046 1371.64 Q111.991 1376.22 106.181 1376.22 Q100.37 1376.22 97.2918 1371.64 Q94.2362 1367.03 94.2362 1358.31 Q94.2362 1349.56 97.2918 1344.97 Q100.37 1340.37 106.181 1340.37 Z" fill="#000000" fill-rule="nonzero" fill-opacity="1" /><path clip-path="url(#clip520)" d="M126.343 1369.67 L131.227 1369.67 L131.227 1375.55 L126.343 1375.55 L126.343 1369.67 Z" fill="#000000" fill-rule="nonzero" fill-opacity="1" /><path clip-path="url(#clip520)" d="M151.412 1344.07 Q147.801 1344.07 145.972 1347.63 Q144.167 1351.18 144.167 1358.31 Q144.167 1365.41 145.972 1368.98 Q147.801 1372.52 151.412 1372.52 Q155.046 1372.52 156.852 1368.98 Q158.68 1365.41 158.68 1358.31 Q158.68 1351.18 156.852 1347.63 Q155.046 1344.07 151.412 1344.07 M151.412 1340.37 Q157.222 1340.37 160.278 1344.97 Q163.356 1349.56 163.356 1358.31 Q163.356 1367.03 160.278 1371.64 Q157.222 1376.22 151.412 1376.22 Q145.602 1376.22 142.523 1371.64 Q139.467 1367.03 139.467 1358.31 Q139.467 1349.56 142.523 1344.97 Q145.602 1340.37 151.412 1340.37 Z" fill="#000000" fill-rule="nonzero" fill-opacity="1" /><path clip-path="url(#clip520)" d="M107.176 1025.86 Q103.565 1025.86 101.736 1029.42 Q99.9306 1032.97 99.9306 1040.09 Q99.9306 1047.2 101.736 1050.77 Q103.565 1054.31 107.176 1054.31 Q110.81 1054.31 112.616 1050.77 Q114.444 1047.2 114.444 1040.09 Q114.444 1032.97 112.616 1029.42 Q110.81 1025.86 107.176 1025.86 M107.176 1022.16 Q112.986 1022.16 116.042 1026.76 Q119.12 1031.34 119.12 1040.09 Q119.12 1048.82 116.042 1053.43 Q112.986 1058.01 107.176 1058.01 Q101.366 1058.01 98.2871 1053.43 Q95.2316 1048.82 95.2316 1040.09 Q95.2316 1031.34 98.2871 1026.76 Q101.366 1022.16 107.176 1022.16 Z" fill="#000000" fill-rule="nonzero" fill-opacity="1" /><path clip-path="url(#clip520)" d="M127.338 1051.46 L132.222 1051.46 L132.222 1057.34 L127.338 1057.34 L127.338 1051.46 Z" fill="#000000" fill-rule="nonzero" fill-opacity="1" /><path clip-path="url(#clip520)" d="M142.454 1022.78 L160.81 1022.78 L160.81 1026.72 L146.736 1026.72 L146.736 1035.19 Q147.754 1034.84 148.773 1034.68 Q149.791 1034.49 150.81 1034.49 Q156.597 1034.49 159.977 1037.66 Q163.356 1040.84 163.356 1046.25 Q163.356 1051.83 159.884 1054.93 Q156.412 1058.01 150.092 1058.01 Q147.916 1058.01 145.648 1057.64 Q143.403 1057.27 140.995 1056.53 L140.995 1051.83 Q143.079 1052.97 145.301 1053.52 Q147.523 1054.08 150 1054.08 Q154.004 1054.08 156.342 1051.97 Q158.68 1049.86 158.68 1046.25 Q158.68 1042.64 156.342 1040.53 Q154.004 1038.43 150 1038.43 Q148.125 1038.43 146.25 1038.84 Q144.398 1039.26 142.454 1040.14 L142.454 1022.78 Z" fill="#000000" fill-rule="nonzero" fill-opacity="1" /><path clip-path="url(#clip520)" d="M96.9908 735.195 L104.63 735.195 L104.63 708.829 L96.3195 710.496 L96.3195 706.237 L104.583 704.57 L109.259 704.57 L109.259 735.195 L116.898 735.195 L116.898 739.13 L96.9908 739.13 L96.9908 735.195 Z" fill="#000000" fill-rule="nonzero" fill-opacity="1" /><path clip-path="url(#clip520)" d="M126.343 733.25 L131.227 733.25 L131.227 739.13 L126.343 739.13 L126.343 733.25 Z" fill="#000000" fill-rule="nonzero" fill-opacity="1" /><path clip-path="url(#clip520)" d="M151.412 707.649 Q147.801 707.649 145.972 711.213 Q144.167 714.755 144.167 721.885 Q144.167 728.991 145.972 732.556 Q147.801 736.098 151.412 736.098 Q155.046 736.098 156.852 732.556 Q158.68 728.991 158.68 721.885 Q158.68 714.755 156.852 711.213 Q155.046 707.649 151.412 707.649 M151.412 703.945 Q157.222 703.945 160.278 708.551 Q163.356 713.135 163.356 721.885 Q163.356 730.611 160.278 735.218 Q157.222 739.801 151.412 739.801 Q145.602 739.801 142.523 735.218 Q139.467 730.611 139.467 721.885 Q139.467 713.135 142.523 708.551 Q145.602 703.945 151.412 703.945 Z" fill="#000000" fill-rule="nonzero" fill-opacity="1" /><path clip-path="url(#clip520)" d="M97.9862 416.984 L105.625 416.984 L105.625 390.619 L97.3149 392.286 L97.3149 388.026 L105.579 386.36 L110.255 386.36 L110.255 416.984 L117.894 416.984 L117.894 420.92 L97.9862 420.92 L97.9862 416.984 Z" fill="#000000" fill-rule="nonzero" fill-opacity="1" /><path clip-path="url(#clip520)" d="M127.338 415.04 L132.222 415.04 L132.222 420.92 L127.338 420.92 L127.338 415.04 Z" fill="#000000" fill-rule="nonzero" fill-opacity="1" /><path clip-path="url(#clip520)" d="M142.454 386.36 L160.81 386.36 L160.81 390.295 L146.736 390.295 L146.736 398.767 Q147.754 398.42 148.773 398.258 Q149.791 398.073 150.81 398.073 Q156.597 398.073 159.977 401.244 Q163.356 404.415 163.356 409.832 Q163.356 415.41 159.884 418.512 Q156.412 421.591 150.092 421.591 Q147.916 421.591 145.648 421.221 Q143.403 420.85 140.995 420.109 L140.995 415.41 Q143.079 416.545 145.301 417.1 Q147.523 417.656 150 417.656 Q154.004 417.656 156.342 415.549 Q158.68 413.443 158.68 409.832 Q158.68 406.221 156.342 404.114 Q154.004 402.008 150 402.008 Q148.125 402.008 146.25 402.424 Q144.398 402.841 142.454 403.721 L142.454 386.36 Z" fill="#000000" fill-rule="nonzero" fill-opacity="1" /><path clip-path="url(#clip520)" d="M100.208 98.7742 L116.528 98.7742 L116.528 102.709 L94.5834 102.709 L94.5834 98.7742 Q97.2455 96.0196 101.829 91.3899 Q106.435 86.7372 107.616 85.3946 Q109.861 82.8715 110.741 81.1354 Q111.644 79.3761 111.644 77.6863 Q111.644 74.9317 109.699 73.1956 Q107.778 71.4595 104.676 71.4595 Q102.477 71.4595 100.023 72.2234 Q97.5927 72.9873 94.8149 74.5382 L94.8149 69.816 Q97.639 68.6817 100.093 68.103 Q102.546 67.5243 104.583 67.5243 Q109.954 67.5243 113.148 70.2095 Q116.343 72.8947 116.343 77.3854 Q116.343 79.515 115.532 81.4363 Q114.745 83.3344 112.639 85.927 Q112.06 86.5983 108.958 89.8159 Q105.857 93.0103 100.208 98.7742 Z" fill="#000000" fill-rule="nonzero" fill-opacity="1" /><path clip-path="url(#clip520)" d="M126.343 96.8297 L131.227 96.8297 L131.227 102.709 L126.343 102.709 L126.343 96.8297 Z" fill="#000000" fill-rule="nonzero" fill-opacity="1" /><path clip-path="url(#clip520)" d="M151.412 71.228 Q147.801 71.228 145.972 74.7928 Q144.167 78.3345 144.167 85.4641 Q144.167 92.5705 145.972 96.1353 Q147.801 99.6769 151.412 99.6769 Q155.046 99.6769 156.852 96.1353 Q158.68 92.5705 158.68 85.4641 Q158.68 78.3345 156.852 74.7928 Q155.046 71.228 151.412 71.228 M151.412 67.5243 Q157.222 67.5243 160.278 72.1308 Q163.356 76.7141 163.356 85.4641 Q163.356 94.1909 160.278 98.7973 Q157.222 103.381 151.412 103.381 Q145.602 103.381 142.523 98.7973 Q139.467 94.1909 139.467 85.4641 Q139.467 76.7141 142.523 72.1308 Q145.602 67.5243 151.412 67.5243 Z" fill="#000000" fill-rule="nonzero" fill-opacity="1" /><polyline clip-path="url(#clip522)" style="stroke:#009af9; stroke-linecap:round; stroke-linejoin:round; stroke-width:8; stroke-opacity:1; fill:none" points="211.356,1358.27 214.108,1358.27 216.859,1358.27 219.611,1358.27 222.362,1358.27 225.114,1358.27 227.865,1358.27 230.617,1358.27 233.369,1358.27 236.12,1358.27 238.872,1358.27 241.623,1358.27 244.375,1358.27 247.126,1358.27 249.878,1358.27 252.629,1358.27 255.381,1358.27 258.132,1358.27 260.884,1358.27 263.636,1358.27 266.387,1358.27 269.139,1358.27 271.89,1358.27 274.642,1358.27 277.393,1358.27 280.145,1358.27 282.896,1358.27 285.648,1358.27 288.399,1358.27 291.151,1358.27 293.903,1358.27 296.654,1358.27 299.406,1358.27 302.157,1358.27 304.909,1358.27 307.66,1358.27 310.412,1358.27 313.163,1358.27 315.915,1358.27 318.666,1358.27 321.418,1358.27 324.169,1358.27 326.921,1358.27 329.673,1358.27 332.424,1358.27 335.176,1358.27 337.927,1358.27 340.679,1358.27 343.43,1358.27 346.182,1358.27 348.933,1358.27 351.685,1358.27 354.436,1358.27 357.188,1358.27 359.94,721.85 362.691,721.85 365.443,721.85 368.194,721.85 370.946,721.85 373.697,721.85 376.449,721.85 379.2,721.85 381.952,721.85 384.703,721.85 387.455,721.85 390.207,721.85 392.958,721.85 395.71,721.85 398.461,721.85 401.213,721.85 403.964,721.85 406.716,721.85 409.467,721.85 412.219,721.85 414.97,721.85 417.722,721.85 420.474,721.85 423.225,721.85 425.977,721.85 428.728,721.85 431.48,721.85 434.231,721.85 436.983,721.85 439.734,721.85 442.486,721.85 445.237,721.85 447.989,721.85 450.74,721.85 453.492,721.85 456.244,1358.27 458.995,1358.27 461.747,1358.27 464.498,1358.27 467.25,1358.27 470.001,1358.27 472.753,1358.27 475.504,721.85 478.256,721.85 481.007,721.85 483.759,721.85 486.511,721.85 489.262,721.85 492.014,721.85 494.765,721.85 497.517,721.85 500.268,721.85 503.02,721.85 505.771,721.85 508.523,721.85 511.274,721.85 514.026,721.85 516.778,721.85 519.529,721.85 522.281,721.85 525.032,721.85 527.784,721.85 530.535,721.85 533.287,721.85 536.038,721.85 538.79,721.85 541.541,721.85 544.293,721.85 547.044,721.85 549.796,721.85 552.548,721.85 555.299,721.85 558.051,721.85 560.802,721.85 563.554,721.85 566.305,721.85 569.057,721.85 571.808,721.85 574.56,721.85 577.311,721.85 580.063,721.85 582.815,721.85 585.566,721.85 588.318,721.85 591.069,85.4293 593.821,85.4293 596.572,85.4293 599.324,85.4293 602.075,85.4293 604.827,85.4293 607.578,85.4293 610.33,85.4293 613.082,721.85 615.833,721.85 618.585,721.85 621.336,721.85 624.088,85.4293 626.839,85.4293 629.591,85.4293 632.342,85.4293 635.094,85.4293 637.845,85.4293 640.597,85.4293 643.349,85.4293 646.1,85.4293 648.852,85.4293 651.603,85.4293 654.355,85.4293 657.106,85.4293 659.858,721.85 662.609,721.85 665.361,721.85 668.112,721.85 670.864,721.85 673.615,721.85 676.367,721.85 679.119,721.85 681.87,721.85 684.622,721.85 687.373,721.85 690.125,721.85 692.876,721.85 695.628,721.85 698.379,721.85 701.131,721.85 703.882,721.85 706.634,721.85 709.386,721.85 712.137,721.85 714.889,721.85 717.64,721.85 720.392,721.85 723.143,721.85 725.895,721.85 728.646,721.85 731.398,721.85 734.149,721.85 736.901,721.85 739.653,721.85 742.404,721.85 745.156,721.85 747.907,721.85 750.659,721.85 753.41,721.85 756.162,721.85 758.913,721.85 761.665,721.85 764.416,721.85 767.168,721.85 769.919,721.85 772.671,721.85 775.423,721.85 778.174,721.85 780.926,721.85 783.677,721.85 786.429,721.85 789.18,721.85 791.932,721.85 794.683,721.85 797.435,721.85 800.186,721.85 802.938,721.85 805.69,721.85 808.441,721.85 811.193,721.85 813.944,721.85 816.696,721.85 819.447,721.85 822.199,721.85 824.95,721.85 827.702,721.85 830.453,721.85 833.205,721.85 835.957,721.85 838.708,721.85 841.46,721.85 844.211,721.85 846.963,721.85 849.714,721.85 852.466,721.85 855.217,721.85 857.969,721.85 860.72,1358.27 863.472,1358.27 866.224,1358.27 868.975,1358.27 871.727,1358.27 874.478,1358.27 877.23,1358.27 879.981,1358.27 882.733,1358.27 885.484,1358.27 888.236,1358.27 890.987,1358.27 893.739,1358.27 896.49,1358.27 899.242,1358.27 901.994,1358.27 904.745,1358.27 907.497,1358.27 910.248,1358.27 913,1358.27 915.751,1358.27 918.503,1358.27 921.254,1358.27 924.006,1358.27 926.757,1358.27 929.509,1358.27 932.261,1358.27 935.012,1358.27 937.764,1358.27 940.515,1358.27 943.267,1358.27 946.018,1358.27 948.77,1358.27 951.521,1358.27 954.273,1358.27 957.024,1358.27 959.776,1358.27 962.528,1358.27 965.279,1358.27 968.031,1358.27 970.782,1358.27 973.534,1358.27 976.285,1358.27 979.037,1358.27 981.788,1358.27 984.54,1358.27 987.291,1358.27 990.043,1358.27 992.794,1358.27 995.546,1358.27 998.298,1358.27 1001.05,1358.27 1003.8,1358.27 1006.55,1358.27 1009.3,1358.27 1012.06,1358.27 1014.81,1358.27 1017.56,1358.27 1020.31,1358.27 1023.06,1358.27 1025.81,1358.27 1028.56,1358.27 1031.32,1358.27 1034.07,1358.27 1036.82,1358.27 1039.57,1358.27 1042.32,1358.27 1045.07,1358.27 1047.83,1358.27 1050.58,1358.27 1053.33,1358.27 1056.08,1358.27 1058.83,1358.27 1061.58,1358.27 1064.33,1358.27 1067.09,1358.27 1069.84,1358.27 1072.59,1358.27 1075.34,1358.27 1078.09,1358.27 1080.84,1358.27 1083.6,1358.27 1086.35,1358.27 1089.1,1358.27 1091.85,1358.27 1094.6,1358.27 1097.35,1358.27 1100.1,1358.27 1102.86,1358.27 1105.61,1358.27 1108.36,1358.27 1111.11,1358.27 1113.86,1358.27 1116.61,721.85 1119.37,721.85 1122.12,721.85 1124.87,721.85 1127.62,721.85 1130.37,721.85 1133.12,721.85 1135.87,721.85 1138.63,721.85 1141.38,721.85 1144.13,721.85 1146.88,721.85 1149.63,721.85 1152.38,721.85 1155.14,721.85 1157.89,721.85 1160.64,721.85 1163.39,721.85 1166.14,721.85 1168.89,1358.27 1171.64,1358.27 1174.4,1358.27 1177.15,1358.27 1179.9,1358.27 1182.65,1358.27 1185.4,1358.27 1188.15,1358.27 1190.91,1358.27 1193.66,1358.27 1196.41,1358.27 1199.16,1358.27 1201.91,1358.27 1204.66,1358.27 1207.41,1358.27 1210.17,1358.27 1212.92,1358.27 1215.67,1358.27 1218.42,1358.27 1221.17,1358.27 1223.92,1358.27 1226.68,1358.27 1229.43,1358.27 1232.18,1358.27 1234.93,1358.27 1237.68,1358.27 1240.43,1358.27 1243.18,1358.27 1245.94,1358.27 1248.69,1358.27 1251.44,1358.27 1254.19,1358.27 1256.94,1358.27 1259.69,1358.27 1262.45,1358.27 1265.2,1358.27 1267.95,1358.27 1270.7,1358.27 1273.45,1358.27 1276.2,1358.27 1278.95,1358.27 1281.71,1358.27 1284.46,1358.27 1287.21,1358.27 1289.96,1358.27 1292.71,1358.27 1295.46,1358.27 1298.22,1358.27 1300.97,1358.27 1303.72,1358.27 1306.47,1358.27 1309.22,1358.27 1311.97,1358.27 1314.73,1358.27 1317.48,1358.27 1320.23,1358.27 1322.98,1358.27 1325.73,1358.27 1328.48,721.85 1331.23,721.85 1333.99,721.85 1336.74,721.85 1339.49,721.85 1342.24,721.85 1344.99,721.85 1347.74,721.85 1350.5,721.85 1353.25,721.85 1356,721.85 1358.75,721.85 1361.5,721.85 1364.25,721.85 1367,721.85 1369.76,721.85 1372.51,721.85 1375.26,721.85 1378.01,721.85 1380.76,721.85 1383.51,721.85 1386.27,721.85 1389.02,721.85 1391.77,721.85 1394.52,721.85 1397.27,721.85 1400.02,721.85 1402.77,721.85 1405.53,721.85 1408.28,721.85 1411.03,721.85 1413.78,721.85 1416.53,721.85 1419.28,721.85 1422.04,721.85 1424.79,721.85 1427.54,721.85 1430.29,721.85 1433.04,721.85 1435.79,721.85 1438.54,1358.27 1441.3,1358.27 1444.05,1358.27 1446.8,1358.27 1449.55,721.85 1452.3,721.85 1455.05,721.85 1457.81,721.85 1460.56,721.85 1463.31,721.85 1466.06,721.85 1468.81,721.85 1471.56,721.85 1474.31,721.85 1477.07,721.85 1479.82,721.85 1482.57,721.85 1485.32,721.85 1488.07,721.85 1490.82,721.85 1493.58,721.85 1496.33,721.85 1499.08,721.85 1501.83,721.85 1504.58,721.85 1507.33,721.85 1510.08,721.85 1512.84,721.85 1515.59,721.85 1518.34,721.85 1521.09,721.85 1523.84,721.85 1526.59,721.85 1529.35,721.85 1532.1,721.85 1534.85,721.85 1537.6,721.85 1540.35,721.85 1543.1,721.85 1545.85,721.85 1548.61,721.85 1551.36,721.85 1554.11,721.85 1556.86,721.85 1559.61,721.85 1562.36,721.85 1565.12,721.85 1567.87,721.85 1570.62,721.85 1573.37,721.85 1576.12,721.85 1578.87,721.85 1581.62,721.85 1584.38,721.85 1587.13,721.85 1589.88,721.85 1592.63,721.85 1595.38,721.85 1598.13,721.85 1600.89,721.85 1603.64,721.85 1606.39,721.85 1609.14,721.85 1611.89,1358.27 1614.64,1358.27 1617.39,1358.27 1620.15,1358.27 1622.9,1358.27 1625.65,1358.27 1628.4,1358.27 1631.15,1358.27 1633.9,1358.27 1636.66,1358.27 1639.41,1358.27 1642.16,1358.27 1644.91,1358.27 1647.66,1358.27 1650.41,1358.27 1653.16,1358.27 1655.92,1358.27 1658.67,1358.27 1661.42,1358.27 1664.17,1358.27 1666.92,1358.27 1669.67,1358.27 1672.43,1358.27 1675.18,1358.27 1677.93,1358.27 1680.68,1358.27 1683.43,1358.27 1686.18,1358.27 1688.93,1358.27 1691.69,1358.27 1694.44,1358.27 1697.19,1358.27 1699.94,1358.27 1702.69,1358.27 1705.44,1358.27 1708.2,1358.27 1710.95,1358.27 1713.7,1358.27 1716.45,1358.27 1719.2,1358.27 1721.95,1358.27 1724.7,1358.27 1727.46,1358.27 1730.21,1358.27 1732.96,1358.27 1735.71,1358.27 1738.46,721.85 1741.21,721.85 1743.97,721.85 1746.72,721.85 1749.47,721.85 1752.22,721.85 1754.97,721.85 1757.72,721.85 1760.48,721.85 1763.23,721.85 1765.98,721.85 1768.73,721.85 1771.48,721.85 1774.23,721.85 1776.98,721.85 1779.74,721.85 1782.49,721.85 1785.24,721.85 1787.99,721.85 1790.74,721.85 1793.49,721.85 1796.25,721.85 1799,721.85 1801.75,721.85 1804.5,721.85 1807.25,721.85 1810,721.85 1812.75,721.85 1815.51,721.85 1818.26,721.85 1821.01,721.85 1823.76,721.85 1826.51,721.85 1829.26,721.85 1832.02,721.85 1834.77,721.85 1837.52,721.85 1840.27,721.85 1843.02,721.85 1845.77,721.85 1848.52,721.85 1851.28,721.85 1854.03,721.85 1856.78,721.85 1859.53,721.85 1862.28,721.85 1865.03,721.85 1867.79,721.85 1870.54,721.85 1873.29,721.85 1876.04,721.85 1878.79,721.85 1881.54,721.85 1884.29,721.85 1887.05,721.85 1889.8,721.85 1892.55,721.85 1895.3,721.85 1898.05,721.85 1900.8,721.85 1903.56,721.85 1906.31,721.85 1909.06,721.85 1911.81,1358.27 1914.56,1358.27 1917.31,1358.27 1920.06,1358.27 1922.82,1358.27 1925.57,1358.27 1928.32,1358.27 1931.07,1358.27 1933.82,1358.27 1936.57,1358.27 1939.33,1358.27 1942.08,1358.27 1944.83,1358.27 1947.58,1358.27 1950.33,1358.27 1953.08,721.85 1955.83,721.85 1958.59,1358.27 1961.34,1358.27 1964.09,1358.27 1966.84,1358.27 1969.59,1358.27 1972.34,1358.27 1975.1,1358.27 1977.85,1358.27 1980.6,1358.27 1983.35,1358.27 1986.1,1358.27 1988.85,1358.27 1991.6,1358.27 1994.36,1358.27 1997.11,1358.27 1999.86,1358.27 2002.61,1358.27 2005.36,1358.27 2008.11,1358.27 2010.87,1358.27 2013.62,1358.27 2016.37,1358.27 2019.12,1358.27 2021.87,1358.27 2024.62,1358.27 2027.37,1358.27 2030.13,1358.27 2032.88,1358.27 2035.63,1358.27 2038.38,1358.27 2041.13,1358.27 2043.88,1358.27 2046.64,1358.27 2049.39,1358.27 2052.14,1358.27 2054.89,1358.27 2057.64,1358.27 2060.39,1358.27 2063.14,1358.27 2065.9,1358.27 2068.65,1358.27 2071.4,1358.27 2074.15,1358.27 2076.9,1358.27 2079.65,1358.27 2082.41,1358.27 2085.16,1358.27 2087.91,1358.27 2090.66,1358.27 2093.41,1358.27 2096.16,1358.27 2098.91,1358.27 2101.67,1358.27 2104.42,1358.27 2107.17,1358.27 2109.92,1358.27 2112.67,1358.27 2115.42,1358.27 2118.18,1358.27 2120.93,1358.27 2123.68,1358.27 2126.43,1358.27 2129.18,1358.27 2131.93,1358.27 2134.68,1358.27 2137.44,1358.27 2140.19,1358.27 2142.94,1358.27 2145.69,1358.27 2148.44,1358.27 2151.19,1358.27 2153.95,1358.27 2156.7,1358.27 2159.45,1358.27 2162.2,1358.27 2164.95,1358.27 2167.7,1358.27 2170.45,1358.27 2173.21,1358.27 2175.96,1358.27 2178.71,1358.27 2181.46,1358.27 2184.21,1358.27 2186.96,721.85 2189.72,721.85 2192.47,721.85 2195.22,721.85 2197.97,721.85 2200.72,721.85 2203.47,721.85 2206.23,721.85 2208.98,721.85 2211.73,721.85 2214.48,721.85 2217.23,721.85 2219.98,721.85 2222.73,721.85 2225.49,721.85 2228.24,721.85 2230.99,721.85 2233.74,721.85 2236.49,1358.27 2239.24,1358.27 2242,1358.27 2244.75,1358.27 2247.5,1358.27 2250.25,1358.27 2253,1358.27 2255.75,1358.27 2258.5,1358.27 2261.26,1358.27 2264.01,1358.27 2266.76,1358.27 2269.51,1358.27 2272.26,1358.27 2275.01,1358.27 2277.77,1358.27 2280.52,1358.27 2283.27,1358.27 2286.02,1358.27 2288.77,1358.27 2291.52,1358.27 2294.27,1358.27 2297.03,1358.27 2299.78,1358.27 2302.53,1358.27 2305.28,1358.27 2308.03,1358.27 2310.78,1358.27 2313.54,1358.27 2316.29,1358.27 2319.04,1358.27 2321.79,1358.27 2324.54,1358.27 2327.29,1358.27 2330.04,721.85 2332.8,721.85 2335.55,721.85 2338.3,721.85 2341.05,721.85 2343.8,721.85 2346.55,721.85 2349.31,721.85 2352.06,721.85 2354.81,721.85 2357.56,721.85 2360.31,721.85 2363.06,721.85 2365.81,721.85 2368.57,721.85 2371.32,721.85 2374.07,721.85 2376.82,721.85 2379.57,1358.27 2382.32,1358.27 2385.08,1358.27 2387.83,1358.27 2390.58,1358.27 2393.33,1358.27 2396.08,1358.27 2398.83,1358.27 2401.58,1358.27 2404.34,1358.27 2407.09,1358.27 2409.84,1358.27 2412.59,1358.27 2415.34,1358.27 2418.09,1358.27 2420.85,1358.27 2423.6,1358.27 2426.35,1358.27 2429.1,1358.27 2431.85,1358.27 2434.6,1358.27 2437.35,721.85 2440.11,721.85 2442.86,721.85 2445.61,721.85 2448.36,721.85 2451.11,721.85 2453.86,721.85 2456.62,721.85 2459.37,721.85 2462.12,721.85 2464.87,721.85 2467.62,721.85 2470.37,721.85 2473.12,721.85 2475.88,721.85 2478.63,721.85 2481.38,721.85 2484.13,721.85 2486.88,721.85 2489.63,721.85 2492.39,721.85 2495.14,721.85 2497.89,721.85 2500.64,721.85 2503.39,721.85 2506.14,721.85 2508.89,721.85 2511.65,1358.27 2514.4,1358.27 2517.15,1358.27 2519.9,1358.27 2522.65,1358.27 2525.4,1358.27 2528.16,1358.27 2530.91,1358.27 2533.66,1358.27 2536.41,1358.27 2539.16,1358.27 2541.91,1358.27 2544.66,1358.27 2547.42,1358.27 2550.17,1358.27 2552.92,1358.27 2555.67,1358.27 2558.42,1358.27 2561.17,1358.27 2563.93,1358.27 2566.68,1358.27 2569.43,1358.27 2572.18,1358.27 2574.93,1358.27 2577.68,1358.27 2580.43,1358.27 2583.19,1358.27 2585.94,1358.27 2588.69,1358.27 2591.44,1358.27 2594.19,1358.27 2596.94,1358.27 2599.7,1358.27 2602.45,1358.27 2605.2,1358.27 2607.95,1358.27 2610.7,1358.27 2613.45,1358.27 2616.2,1358.27 2618.96,1358.27 2621.71,1358.27 2624.46,1358.27 2627.21,1358.27 2629.96,1358.27 2632.71,1358.27 2635.47,1358.27 2638.22,1358.27 2640.97,1358.27 2643.72,1358.27 2646.47,1358.27 2649.22,1358.27 2651.98,1358.27 2654.73,1358.27 2657.48,1358.27 2660.23,1358.27 2662.98,1358.27 2665.73,1358.27 2668.48,1358.27 2671.24,1358.27 2673.99,1358.27 2676.74,1358.27 2679.49,1358.27 2682.24,1358.27 2684.99,1358.27 2687.75,1358.27 2690.5,1358.27 2693.25,1358.27 2696,1358.27 2698.75,1358.27 2701.5,1358.27 2704.25,1358.27 2707.01,1358.27 2709.76,1358.27 2712.51,1358.27 2715.26,1358.27 2718.01,721.85 2720.76,721.85 2723.52,721.85 2726.27,721.85 2729.02,721.85 2731.77,721.85 2734.52,721.85 2737.27,721.85 2740.02,721.85 2742.78,721.85 2745.53,721.85 2748.28,721.85 2751.03,721.85 2753.78,721.85 2756.53,721.85 2759.29,721.85 2762.04,721.85 2764.79,721.85 2767.54,721.85 2770.29,1358.27 2773.04,1358.27 2775.79,1358.27 2778.55,1358.27 2781.3,1358.27 2784.05,1358.27 2786.8,1358.27 2789.55,1358.27 2792.3,1358.27 2795.06,1358.27 2797.81,1358.27 2800.56,1358.27 2803.31,1358.27 2806.06,1358.27 2808.81,1358.27 2811.56,1358.27 2814.32,1358.27 2817.07,1358.27 2819.82,1358.27 2822.57,1358.27 2825.32,1358.27 2828.07,1358.27 2830.83,1358.27 2833.58,1358.27 2836.33,1358.27 2839.08,1358.27 2841.83,1358.27 2844.58,1358.27 2847.33,1358.27 2850.09,1358.27 2852.84,1358.27 2855.59,1358.27 2858.34,1358.27 2861.09,1358.27 2863.84,1358.27 2866.6,1358.27 2869.35,1358.27 2872.1,1358.27 2874.85,1358.27 2877.6,1358.27 2880.35,1358.27 2883.1,1358.27 2885.86,1358.27 2888.61,1358.27 2891.36,1358.27 2894.11,1358.27 2896.86,1358.27 2899.61,1358.27 2902.37,1358.27 2905.12,1358.27 2907.87,1358.27 2910.62,721.85 2913.37,721.85 2916.12,721.85 2918.87,721.85 2921.63,1358.27 2924.38,1358.27 2927.13,1358.27 2929.88,1358.27 2932.63,1358.27 2935.38,1358.27 2938.14,1358.27 2940.89,1358.27 2943.64,1358.27 2946.39,1358.27 2949.14,1358.27 2951.89,1358.27 2954.64,1358.27 2957.4,1358.27 2960.15,1358.27 2962.9,1358.27 2965.65,721.85 2968.4,721.85 2971.15,721.85 2973.91,721.85 2976.66,721.85 2979.41,721.85 2982.16,721.85 2984.91,721.85 2987.66,721.85 2990.41,721.85 2993.17,721.85 2995.92,721.85 2998.67,721.85 3001.42,721.85 3004.17,721.85 3006.92,721.85 3009.68,721.85 3012.43,721.85 3015.18,721.85 3017.93,721.85 3020.68,721.85 3023.43,721.85 3026.18,721.85 3028.94,721.85 3031.69,721.85 3034.44,721.85 3037.19,721.85 3039.94,721.85 3042.69,721.85 3045.45,721.85 3048.2,721.85 3050.95,721.85 3053.7,721.85 3056.45,721.85 3059.2,721.85 3061.95,721.85 3064.71,721.85 3067.46,721.85 3070.21,721.85 3072.96,721.85 3075.71,721.85 3078.46,721.85 3081.22,721.85 3083.97,721.85 3086.72,721.85 3089.47,1358.27 3092.22,1358.27 3094.97,1358.27 3097.73,1358.27 3100.48,1358.27 3103.23,1358.27 3105.98,1358.27 3108.73,1358.27 3111.48,1358.27 3114.23,1358.27 3116.99,1358.27 3119.74,1358.27 3122.49,1358.27 3125.24,1358.27 3127.99,1358.27 3130.74,1358.27 3133.5,1358.27 3136.25,1358.27 3139,1358.27 3141.75,1358.27 3144.5,1358.27 3147.25,1358.27 3150,1358.27 3152.76,1358.27 "/>
<path clip-path="url(#clip520)" d="M2738.25 195.898 L3054.71 195.898 L3054.71 92.2178 L2738.25 92.2178  Z" fill="#ffffff" fill-rule="evenodd" fill-opacity="1"/>
<polyline clip-path="url(#clip520)" style="stroke:#000000; stroke-linecap:round; stroke-linejoin:round; stroke-width:4; stroke-opacity:1; fill:none" points="2738.25,195.898 3054.71,195.898 3054.71,92.2178 2738.25,92.2178 2738.25,195.898 "/>
<polyline clip-path="url(#clip520)" style="stroke:#009af9; stroke-linecap:round; stroke-linejoin:round; stroke-width:8; stroke-opacity:1; fill:none" points="2770.94,144.058 2967.03,144.058 "/>
<path clip-path="url(#clip520)" d="M3004.39 130.62 L3004.39 143.606 L3010.27 143.606 Q3013.53 143.606 3015.31 141.917 Q3017.1 140.227 3017.1 137.102 Q3017.1 134 3015.31 132.31 Q3013.53 130.62 3010.27 130.62 L3004.39 130.62 M2999.71 126.778 L3010.27 126.778 Q3016.08 126.778 3019.04 129.417 Q3022.03 132.032 3022.03 137.102 Q3022.03 142.218 3019.04 144.833 Q3016.08 147.449 3010.27 147.449 L3004.39 147.449 L3004.39 161.338 L2999.71 161.338 L2999.71 126.778 Z" fill="#000000" fill-rule="nonzero" fill-opacity="1" /></svg>
