<?xml version="1.0" encoding="utf-8"?>
<svg xmlns="http://www.w3.org/2000/svg" xmlns:xlink="http://www.w3.org/1999/xlink" width="800" height="400" viewBox="0 0 3200 1600">
<defs>
  <clipPath id="clip430">
    <rect x="0" y="0" width="3200" height="1600"/>
  </clipPath>
</defs>
<path clip-path="url(#clip430)" d="M0 1600 L3200 1600 L3200 0 L0 0  Z" fill="#ffffff" fill-rule="evenodd" fill-opacity="1"/>
<defs>
  <clipPath id="clip431">
    <rect x="640" y="0" width="2241" height="1600"/>
  </clipPath>
</defs>
<path clip-path="url(#clip430)" d="M164.922 1443.7 L3152.76 1443.7 L3152.76 47.2441 L164.922 47.2441  Z" fill="#ffffff" fill-rule="evenodd" fill-opacity="1"/>
<defs>
  <clipPath id="clip432">
    <rect x="164" y="47" width="2989" height="1397"/>
  </clipPath>
</defs>
<polyline clip-path="url(#clip432)" style="stroke:#000000; stroke-linecap:round; stroke-linejoin:round; stroke-width:2; stroke-opacity:0.1; fill:none" points="164.922,1443.7 164.922,47.2441 "/>
<polyline clip-path="url(#clip432)" style="stroke:#000000; stroke-linecap:round; stroke-linejoin:round; stroke-width:2; stroke-opacity:0.1; fill:none" points="762.489,1443.7 762.489,47.2441 "/>
<polyline clip-path="url(#clip432)" style="stroke:#000000; stroke-linecap:round; stroke-linejoin:round; stroke-width:2; stroke-opacity:0.1; fill:none" points="1360.06,1443.7 1360.06,47.2441 "/>
<polyline clip-path="url(#clip432)" style="stroke:#000000; stroke-linecap:round; stroke-linejoin:round; stroke-width:2; stroke-opacity:0.1; fill:none" points="1957.62,1443.7 1957.62,47.2441 "/>
<polyline clip-path="url(#clip432)" style="stroke:#000000; stroke-linecap:round; stroke-linejoin:round; stroke-width:2; stroke-opacity:0.1; fill:none" points="2555.19,1443.7 2555.19,47.2441 "/>
<polyline clip-path="url(#clip432)" style="stroke:#000000; stroke-linecap:round; stroke-linejoin:round; stroke-width:2; stroke-opacity:0.1; fill:none" points="3152.76,1443.7 3152.76,47.2441 "/>
<polyline clip-path="url(#clip432)" style="stroke:#000000; stroke-linecap:round; stroke-linejoin:round; stroke-width:2; stroke-opacity:0.1; fill:none" points="164.922,1443.7 164.922,47.2441 "/>
<polyline clip-path="url(#clip432)" style="stroke:#000000; stroke-linecap:round; stroke-linejoin:round; stroke-width:2; stroke-opacity:0.1; fill:none" points="762.489,1443.7 762.489,47.2441 "/>
<polyline clip-path="url(#clip432)" style="stroke:#000000; stroke-linecap:round; stroke-linejoin:round; stroke-width:2; stroke-opacity:0.1; fill:none" points="1360.06,1443.7 1360.06,47.2441 "/>
<polyline clip-path="url(#clip432)" style="stroke:#000000; stroke-linecap:round; stroke-linejoin:round; stroke-width:2; stroke-opacity:0.1; fill:none" points="1957.62,1443.7 1957.62,47.2441 "/>
<polyline clip-path="url(#clip432)" style="stroke:#000000; stroke-linecap:round; stroke-linejoin:round; stroke-width:2; stroke-opacity:0.1; fill:none" points="2555.19,1443.7 2555.19,47.2441 "/>
<polyline clip-path="url(#clip432)" style="stroke:#000000; stroke-linecap:round; stroke-linejoin:round; stroke-width:2; stroke-opacity:0.1; fill:none" points="3152.76,1443.7 3152.76,47.2441 "/>
<polyline clip-path="url(#clip430)" style="stroke:#000000; stroke-linecap:round; stroke-linejoin:round; stroke-width:4; stroke-opacity:1; fill:none" points="164.922,1443.7 3152.76,1443.7 "/>
<polyline clip-path="url(#clip430)" style="stroke:#000000; stroke-linecap:round; stroke-linejoin:round; stroke-width:4; stroke-opacity:1; fill:none" points="164.922,47.2441 3152.76,47.2441 "/>
<polyline clip-path="url(#clip430)" style="stroke:#000000; stroke-linecap:round; stroke-linejoin:round; stroke-width:4; stroke-opacity:1; fill:none" points="164.922,1443.7 164.922,1424.8 "/>
<polyline clip-path="url(#clip430)" style="stroke:#000000; stroke-linecap:round; stroke-linejoin:round; stroke-width:4; stroke-opacity:1; fill:none" points="762.489,1443.7 762.489,1424.8 "/>
<polyline clip-path="url(#clip430)" style="stroke:#000000; stroke-linecap:round; stroke-linejoin:round; stroke-width:4; stroke-opacity:1; fill:none" points="1360.06,1443.7 1360.06,1424.8 "/>
<polyline clip-path="url(#clip430)" style="stroke:#000000; stroke-linecap:round; stroke-linejoin:round; stroke-width:4; stroke-opacity:1; fill:none" points="1957.62,1443.7 1957.62,1424.8 "/>
<polyline clip-path="url(#clip430)" style="stroke:#000000; stroke-linecap:round; stroke-linejoin:round; stroke-width:4; stroke-opacity:1; fill:none" points="2555.19,1443.7 2555.19,1424.8 "/>
<polyline clip-path="url(#clip430)" style="stroke:#000000; stroke-linecap:round; stroke-linejoin:round; stroke-width:4; stroke-opacity:1; fill:none" points="3152.76,1443.7 3152.76,1424.8 "/>
<polyline clip-path="url(#clip430)" style="stroke:#000000; stroke-linecap:round; stroke-linejoin:round; stroke-width:4; stroke-opacity:1; fill:none" points="164.922,47.2441 164.922,66.1417 "/>
<polyline clip-path="url(#clip430)" style="stroke:#000000; stroke-linecap:round; stroke-linejoin:round; stroke-width:4; stroke-opacity:1; fill:none" points="762.489,47.2441 762.489,66.1417 "/>
<polyline clip-path="url(#clip430)" style="stroke:#000000; stroke-linecap:round; stroke-linejoin:round; stroke-width:4; stroke-opacity:1; fill:none" points="1360.06,47.2441 1360.06,66.1417 "/>
<polyline clip-path="url(#clip430)" style="stroke:#000000; stroke-linecap:round; stroke-linejoin:round; stroke-width:4; stroke-opacity:1; fill:none" points="1957.62,47.2441 1957.62,66.1417 "/>
<polyline clip-path="url(#clip430)" style="stroke:#000000; stroke-linecap:round; stroke-linejoin:round; stroke-width:4; stroke-opacity:1; fill:none" points="2555.19,47.2441 2555.19,66.1417 "/>
<polyline clip-path="url(#clip430)" style="stroke:#000000; stroke-linecap:round; stroke-linejoin:round; stroke-width:4; stroke-opacity:1; fill:none" points="3152.76,47.2441 3152.76,66.1417 "/>
<path clip-path="url(#clip430)" d="M164.922 1481.02 Q161.311 1481.02 159.483 1484.58 Q157.677 1488.12 157.677 1495.25 Q157.677 1502.36 159.483 1505.93 Q161.311 1509.47 164.922 1509.47 Q168.557 1509.47 170.362 1505.93 Q172.191 1502.36 172.191 1495.25 Q172.191 1488.12 170.362 1484.58 Q168.557 1481.02 164.922 1481.02 M164.922 1477.31 Q170.732 1477.31 173.788 1481.92 Q176.867 1486.5 176.867 1495.25 Q176.867 1503.98 173.788 1508.59 Q170.732 1513.17 164.922 1513.17 Q159.112 1513.17 156.033 1508.59 Q152.978 1503.98 152.978 1495.25 Q152.978 1486.5 156.033 1481.92 Q159.112 1477.31 164.922 1477.31 Z" fill="#000000" fill-rule="nonzero" fill-opacity="1" /><path clip-path="url(#clip430)" d="M757.142 1508.56 L773.461 1508.56 L773.461 1512.5 L751.517 1512.5 L751.517 1508.56 Q754.179 1505.81 758.762 1501.18 Q763.369 1496.53 764.549 1495.19 Q766.795 1492.66 767.674 1490.93 Q768.577 1489.17 768.577 1487.48 Q768.577 1484.72 766.633 1482.99 Q764.711 1481.25 761.609 1481.25 Q759.41 1481.25 756.957 1482.01 Q754.526 1482.78 751.748 1484.33 L751.748 1479.61 Q754.572 1478.47 757.026 1477.89 Q759.48 1477.31 761.517 1477.31 Q766.887 1477.31 770.082 1480 Q773.276 1482.69 773.276 1487.18 Q773.276 1489.31 772.466 1491.23 Q771.679 1493.12 769.572 1495.72 Q768.994 1496.39 765.892 1499.61 Q762.79 1502.8 757.142 1508.56 Z" fill="#000000" fill-rule="nonzero" fill-opacity="1" /><path clip-path="url(#clip430)" d="M1363.06 1482.01 L1351.26 1500.46 L1363.06 1500.46 L1363.06 1482.01 M1361.84 1477.94 L1367.72 1477.94 L1367.72 1500.46 L1372.65 1500.46 L1372.65 1504.35 L1367.72 1504.35 L1367.72 1512.5 L1363.06 1512.5 L1363.06 1504.35 L1347.46 1504.35 L1347.46 1499.84 L1361.84 1477.94 Z" fill="#000000" fill-rule="nonzero" fill-opacity="1" /><path clip-path="url(#clip430)" d="M1958.03 1493.36 Q1954.88 1493.36 1953.03 1495.51 Q1951.2 1497.66 1951.2 1501.41 Q1951.2 1505.14 1953.03 1507.31 Q1954.88 1509.47 1958.03 1509.47 Q1961.18 1509.47 1963 1507.31 Q1964.86 1505.14 1964.86 1501.41 Q1964.86 1497.66 1963 1495.51 Q1961.18 1493.36 1958.03 1493.36 M1967.31 1478.7 L1967.31 1482.96 Q1965.55 1482.13 1963.75 1481.69 Q1961.96 1481.25 1960.2 1481.25 Q1955.57 1481.25 1953.12 1484.37 Q1950.69 1487.5 1950.34 1493.82 Q1951.71 1491.81 1953.77 1490.74 Q1955.83 1489.65 1958.31 1489.65 Q1963.51 1489.65 1966.52 1492.82 Q1969.56 1495.97 1969.56 1501.41 Q1969.56 1506.74 1966.41 1509.95 Q1963.26 1513.17 1958.03 1513.17 Q1952.03 1513.17 1948.86 1508.59 Q1945.69 1503.98 1945.69 1495.25 Q1945.69 1487.06 1949.58 1482.2 Q1953.47 1477.31 1960.02 1477.31 Q1961.78 1477.31 1963.56 1477.66 Q1965.37 1478.01 1967.31 1478.7 Z" fill="#000000" fill-rule="nonzero" fill-opacity="1" /><path clip-path="url(#clip430)" d="M2555.19 1496.09 Q2551.86 1496.09 2549.93 1497.87 Q2548.04 1499.65 2548.04 1502.78 Q2548.04 1505.9 2549.93 1507.69 Q2551.86 1509.47 2555.19 1509.47 Q2558.52 1509.47 2560.44 1507.69 Q2562.37 1505.88 2562.37 1502.78 Q2562.37 1499.65 2560.44 1497.87 Q2558.55 1496.09 2555.19 1496.09 M2550.51 1494.1 Q2547.5 1493.36 2545.81 1491.3 Q2544.15 1489.24 2544.15 1486.27 Q2544.15 1482.13 2547.09 1479.72 Q2550.05 1477.31 2555.19 1477.31 Q2560.35 1477.31 2563.29 1479.72 Q2566.23 1482.13 2566.23 1486.27 Q2566.23 1489.24 2564.54 1491.3 Q2562.87 1493.36 2559.89 1494.1 Q2563.27 1494.88 2565.14 1497.18 Q2567.04 1499.47 2567.04 1502.78 Q2567.04 1507.8 2563.96 1510.49 Q2560.91 1513.17 2555.19 1513.17 Q2549.47 1513.17 2546.39 1510.49 Q2543.34 1507.8 2543.34 1502.78 Q2543.34 1499.47 2545.24 1497.18 Q2547.13 1494.88 2550.51 1494.1 M2548.8 1486.71 Q2548.8 1489.4 2550.47 1490.9 Q2552.16 1492.41 2555.19 1492.41 Q2558.2 1492.41 2559.89 1490.9 Q2561.6 1489.4 2561.6 1486.71 Q2561.6 1484.03 2559.89 1482.52 Q2558.2 1481.02 2555.19 1481.02 Q2552.16 1481.02 2550.47 1482.52 Q2548.8 1484.03 2548.8 1486.71 Z" fill="#000000" fill-rule="nonzero" fill-opacity="1" /><path clip-path="url(#clip430)" d="M3127.44 1508.56 L3135.08 1508.56 L3135.08 1482.2 L3126.77 1483.87 L3126.77 1479.61 L3135.04 1477.94 L3139.71 1477.94 L3139.71 1508.56 L3147.35 1508.56 L3147.35 1512.5 L3127.44 1512.5 L3127.44 1508.56 Z" fill="#000000" fill-rule="nonzero" fill-opacity="1" /><path clip-path="url(#clip430)" d="M3166.8 1481.02 Q3163.18 1481.02 3161.36 1484.58 Q3159.55 1488.12 3159.55 1495.25 Q3159.55 1502.36 3161.36 1505.93 Q3163.18 1509.47 3166.8 1509.47 Q3170.43 1509.47 3172.23 1505.93 Q3174.06 1502.36 3174.06 1495.25 Q3174.06 1488.12 3172.23 1484.58 Q3170.43 1481.02 3166.8 1481.02 M3166.8 1477.31 Q3172.61 1477.31 3175.66 1481.92 Q3178.74 1486.5 3178.74 1495.25 Q3178.74 1503.98 3175.66 1508.59 Q3172.61 1513.17 3166.8 1513.17 Q3160.99 1513.17 3157.91 1508.59 Q3154.85 1503.98 3154.85 1495.25 Q3154.85 1486.5 3157.91 1481.92 Q3160.99 1477.31 3166.8 1477.31 Z" fill="#000000" fill-rule="nonzero" fill-opacity="1" /><path clip-path="url(#clip430)" d="M1657.9 1554.79 L1657.9 1564.92 L1669.96 1564.92 L1669.96 1569.47 L1657.9 1569.47 L1657.9 1588.82 Q1657.9 1593.18 1659.08 1594.42 Q1660.29 1595.66 1663.95 1595.66 L1669.96 1595.66 L1669.96 1600.56 L1663.95 1600.56 Q1657.17 1600.56 1654.59 1598.05 Q1652.01 1595.5 1652.01 1588.82 L1652.01 1569.47 L1647.72 1569.47 L1647.72 1564.92 L1652.01 1564.92 L1652.01 1554.79 L1657.9 1554.79 Z" fill="#000000" fill-rule="nonzero" fill-opacity="1" /><polyline clip-path="url(#clip432)" style="stroke:#000000; stroke-linecap:round; stroke-linejoin:round; stroke-width:2; stroke-opacity:0.1; fill:none" points="164.922,1413.12 3152.76,1413.12 "/>
<polyline clip-path="url(#clip432)" style="stroke:#000000; stroke-linecap:round; stroke-linejoin:round; stroke-width:2; stroke-opacity:0.1; fill:none" points="164.922,1081.53 3152.76,1081.53 "/>
<polyline clip-path="url(#clip432)" style="stroke:#000000; stroke-linecap:round; stroke-linejoin:round; stroke-width:2; stroke-opacity:0.1; fill:none" points="164.922,749.943 3152.76,749.943 "/>
<polyline clip-path="url(#clip432)" style="stroke:#000000; stroke-linecap:round; stroke-linejoin:round; stroke-width:2; stroke-opacity:0.1; fill:none" points="164.922,418.355 3152.76,418.355 "/>
<polyline clip-path="url(#clip432)" style="stroke:#000000; stroke-linecap:round; stroke-linejoin:round; stroke-width:2; stroke-opacity:0.1; fill:none" points="164.922,86.7664 3152.76,86.7664 "/>
<polyline clip-path="url(#clip432)" style="stroke:#000000; stroke-linecap:round; stroke-linejoin:round; stroke-width:2; stroke-opacity:0.1; fill:none" points="164.922,1413.12 3152.76,1413.12 "/>
<polyline clip-path="url(#clip432)" style="stroke:#000000; stroke-linecap:round; stroke-linejoin:round; stroke-width:2; stroke-opacity:0.1; fill:none" points="164.922,1081.53 3152.76,1081.53 "/>
<polyline clip-path="url(#clip432)" style="stroke:#000000; stroke-linecap:round; stroke-linejoin:round; stroke-width:2; stroke-opacity:0.1; fill:none" points="164.922,749.943 3152.76,749.943 "/>
<polyline clip-path="url(#clip432)" style="stroke:#000000; stroke-linecap:round; stroke-linejoin:round; stroke-width:2; stroke-opacity:0.1; fill:none" points="164.922,418.355 3152.76,418.355 "/>
<polyline clip-path="url(#clip432)" style="stroke:#000000; stroke-linecap:round; stroke-linejoin:round; stroke-width:2; stroke-opacity:0.1; fill:none" points="164.922,86.7664 3152.76,86.7664 "/>
<polyline clip-path="url(#clip430)" style="stroke:#000000; stroke-linecap:round; stroke-linejoin:round; stroke-width:4; stroke-opacity:1; fill:none" points="164.922,1443.7 164.922,47.2441 "/>
<polyline clip-path="url(#clip430)" style="stroke:#000000; stroke-linecap:round; stroke-linejoin:round; stroke-width:4; stroke-opacity:1; fill:none" points="3152.76,1443.7 3152.76,47.2441 "/>
<polyline clip-path="url(#clip430)" style="stroke:#000000; stroke-linecap:round; stroke-linejoin:round; stroke-width:4; stroke-opacity:1; fill:none" points="164.922,1413.12 183.82,1413.12 "/>
<polyline clip-path="url(#clip430)" style="stroke:#000000; stroke-linecap:round; stroke-linejoin:round; stroke-width:4; stroke-opacity:1; fill:none" points="164.922,1081.53 183.82,1081.53 "/>
<polyline clip-path="url(#clip430)" style="stroke:#000000; stroke-linecap:round; stroke-linejoin:round; stroke-width:4; stroke-opacity:1; fill:none" points="164.922,749.943 183.82,749.943 "/>
<polyline clip-path="url(#clip430)" style="stroke:#000000; stroke-linecap:round; stroke-linejoin:round; stroke-width:4; stroke-opacity:1; fill:none" points="164.922,418.355 183.82,418.355 "/>
<polyline clip-path="url(#clip430)" style="stroke:#000000; stroke-linecap:round; stroke-linejoin:round; stroke-width:4; stroke-opacity:1; fill:none" points="164.922,86.7664 183.82,86.7664 "/>
<polyline clip-path="url(#clip430)" style="stroke:#000000; stroke-linecap:round; stroke-linejoin:round; stroke-width:4; stroke-opacity:1; fill:none" points="3152.76,1413.12 3133.86,1413.12 "/>
<polyline clip-path="url(#clip430)" style="stroke:#000000; stroke-linecap:round; stroke-linejoin:round; stroke-width:4; stroke-opacity:1; fill:none" points="3152.76,1081.53 3133.86,1081.53 "/>
<polyline clip-path="url(#clip430)" style="stroke:#000000; stroke-linecap:round; stroke-linejoin:round; stroke-width:4; stroke-opacity:1; fill:none" points="3152.76,749.943 3133.86,749.943 "/>
<polyline clip-path="url(#clip430)" style="stroke:#000000; stroke-linecap:round; stroke-linejoin:round; stroke-width:4; stroke-opacity:1; fill:none" points="3152.76,418.355 3133.86,418.355 "/>
<polyline clip-path="url(#clip430)" style="stroke:#000000; stroke-linecap:round; stroke-linejoin:round; stroke-width:4; stroke-opacity:1; fill:none" points="3152.76,86.7664 3133.86,86.7664 "/>
<path clip-path="url(#clip430)" d="M53.7745 1426.46 L70.0939 1426.46 L70.0939 1430.4 L48.1495 1430.4 L48.1495 1426.46 Q50.8115 1423.71 55.3949 1419.08 Q60.0013 1414.43 61.1819 1413.08 Q63.4272 1410.56 64.3068 1408.83 Q65.2096 1407.07 65.2096 1405.38 Q65.2096 1402.62 63.2652 1400.89 Q61.3439 1399.15 58.2421 1399.15 Q56.043 1399.15 53.5893 1399.91 Q51.1588 1400.68 48.381 1402.23 L48.381 1397.51 Q51.2051 1396.37 53.6588 1395.79 Q56.1124 1395.21 58.1495 1395.21 Q63.5198 1395.21 66.7142 1397.9 Q69.9087 1400.58 69.9087 1405.08 Q69.9087 1407.21 69.0985 1409.13 Q68.3115 1411.02 66.205 1413.62 Q65.6263 1414.29 62.5245 1417.51 Q59.4226 1420.7 53.7745 1426.46 Z" fill="#000000" fill-rule="nonzero" fill-opacity="1" /><path clip-path="url(#clip430)" d="M79.9086 1424.52 L84.7928 1424.52 L84.7928 1430.4 L79.9086 1430.4 L79.9086 1424.52 Z" fill="#000000" fill-rule="nonzero" fill-opacity="1" /><path clip-path="url(#clip430)" d="M104.978 1398.92 Q101.367 1398.92 99.5381 1402.48 Q97.7326 1406.02 97.7326 1413.15 Q97.7326 1420.26 99.5381 1423.83 Q101.367 1427.37 104.978 1427.37 Q108.612 1427.37 110.418 1423.83 Q112.246 1420.26 112.246 1413.15 Q112.246 1406.02 110.418 1402.48 Q108.612 1398.92 104.978 1398.92 M104.978 1395.21 Q110.788 1395.21 113.844 1399.82 Q116.922 1404.4 116.922 1413.15 Q116.922 1421.88 113.844 1426.49 Q110.788 1431.07 104.978 1431.07 Q99.1678 1431.07 96.0891 1426.49 Q93.0335 1421.88 93.0335 1413.15 Q93.0335 1404.4 96.0891 1399.82 Q99.1678 1395.21 104.978 1395.21 Z" fill="#000000" fill-rule="nonzero" fill-opacity="1" /><path clip-path="url(#clip430)" d="M54.7699 1094.88 L71.0892 1094.88 L71.0892 1098.81 L49.1449 1098.81 L49.1449 1094.88 Q51.8069 1092.12 56.3902 1087.49 Q60.9967 1082.84 62.1772 1081.5 Q64.4226 1078.97 65.3022 1077.24 Q66.205 1075.48 66.205 1073.79 Q66.205 1071.03 64.2606 1069.3 Q62.3393 1067.56 59.2374 1067.56 Q57.0384 1067.56 54.5847 1068.33 Q52.1541 1069.09 49.3764 1070.64 L49.3764 1065.92 Q52.2004 1064.78 54.6541 1064.2 Q57.1078 1063.63 59.1448 1063.63 Q64.5152 1063.63 67.7096 1066.31 Q70.904 1069 70.904 1073.49 Q70.904 1075.62 70.0939 1077.54 Q69.3068 1079.44 67.2004 1082.03 Q66.6217 1082.7 63.5198 1085.92 Q60.418 1089.11 54.7699 1094.88 Z" fill="#000000" fill-rule="nonzero" fill-opacity="1" /><path clip-path="url(#clip430)" d="M80.904 1092.93 L85.7882 1092.93 L85.7882 1098.81 L80.904 1098.81 L80.904 1092.93 Z" fill="#000000" fill-rule="nonzero" fill-opacity="1" /><path clip-path="url(#clip430)" d="M96.0196 1064.25 L114.376 1064.25 L114.376 1068.19 L100.302 1068.19 L100.302 1076.66 Q101.321 1076.31 102.339 1076.15 Q103.358 1075.96 104.376 1075.96 Q110.163 1075.96 113.543 1079.14 Q116.922 1082.31 116.922 1087.72 Q116.922 1093.3 113.45 1096.4 Q109.978 1099.48 103.658 1099.48 Q101.483 1099.48 99.2141 1099.11 Q96.9687 1098.74 94.5613 1098 L94.5613 1093.3 Q96.6446 1094.44 98.8668 1094.99 Q101.089 1095.55 103.566 1095.55 Q107.571 1095.55 109.908 1093.44 Q112.246 1091.33 112.246 1087.72 Q112.246 1084.11 109.908 1082.01 Q107.571 1079.9 103.566 1079.9 Q101.691 1079.9 99.8159 1080.32 Q97.9641 1080.73 96.0196 1081.61 L96.0196 1064.25 Z" fill="#000000" fill-rule="nonzero" fill-opacity="1" /><path clip-path="url(#clip430)" d="M63.9133 748.589 Q67.2698 749.306 69.1448 751.575 Q71.0429 753.843 71.0429 757.177 Q71.0429 762.292 67.5244 765.093 Q64.0059 767.894 57.5245 767.894 Q55.3486 767.894 53.0338 767.454 Q50.7421 767.038 48.2884 766.181 L48.2884 761.667 Q50.2328 762.802 52.5477 763.38 Q54.8625 763.959 57.3856 763.959 Q61.7837 763.959 64.0754 762.223 Q66.3902 760.487 66.3902 757.177 Q66.3902 754.121 64.2374 752.408 Q62.1078 750.672 58.2884 750.672 L54.2606 750.672 L54.2606 746.829 L58.4735 746.829 Q61.9226 746.829 63.7513 745.464 Q65.58 744.075 65.58 741.482 Q65.58 738.82 63.6819 737.408 Q61.8069 735.973 58.2884 735.973 Q56.3671 735.973 54.168 736.39 Q51.969 736.806 49.3301 737.686 L49.3301 733.519 Q51.9921 732.779 54.3069 732.408 Q56.6449 732.038 58.705 732.038 Q64.0291 732.038 67.1309 734.468 Q70.2327 736.876 70.2327 740.996 Q70.2327 743.867 68.5892 745.857 Q66.9457 747.825 63.9133 748.589 Z" fill="#000000" fill-rule="nonzero" fill-opacity="1" /><path clip-path="url(#clip430)" d="M79.9086 761.343 L84.7928 761.343 L84.7928 767.223 L79.9086 767.223 L79.9086 761.343 Z" fill="#000000" fill-rule="nonzero" fill-opacity="1" /><path clip-path="url(#clip430)" d="M104.978 735.742 Q101.367 735.742 99.5381 739.306 Q97.7326 742.848 97.7326 749.978 Q97.7326 757.084 99.5381 760.649 Q101.367 764.19 104.978 764.19 Q108.612 764.19 110.418 760.649 Q112.246 757.084 112.246 749.978 Q112.246 742.848 110.418 739.306 Q108.612 735.742 104.978 735.742 M104.978 732.038 Q110.788 732.038 113.844 736.644 Q116.922 741.228 116.922 749.978 Q116.922 758.704 113.844 763.311 Q110.788 767.894 104.978 767.894 Q99.1678 767.894 96.0891 763.311 Q93.0335 758.704 93.0335 749.978 Q93.0335 741.228 96.0891 736.644 Q99.1678 732.038 104.978 732.038 Z" fill="#000000" fill-rule="nonzero" fill-opacity="1" /><path clip-path="url(#clip430)" d="M64.9087 417 Q68.2652 417.718 70.1402 419.987 Q72.0383 422.255 72.0383 425.588 Q72.0383 430.704 68.5198 433.505 Q65.0013 436.306 58.5198 436.306 Q56.3439 436.306 54.0291 435.866 Q51.7375 435.449 49.2838 434.593 L49.2838 430.079 Q51.2282 431.213 53.543 431.792 Q55.8578 432.371 58.381 432.371 Q62.7791 432.371 65.0707 430.635 Q67.3855 428.899 67.3855 425.588 Q67.3855 422.533 65.2328 420.82 Q63.1032 419.084 59.2837 419.084 L55.256 419.084 L55.256 415.241 L59.4689 415.241 Q62.918 415.241 64.7467 413.876 Q66.5754 412.487 66.5754 409.894 Q66.5754 407.232 64.6772 405.82 Q62.8022 404.385 59.2837 404.385 Q57.3624 404.385 55.1634 404.801 Q52.9643 405.218 50.3254 406.098 L50.3254 401.931 Q52.9875 401.19 55.3023 400.82 Q57.6402 400.45 59.7004 400.45 Q65.0244 400.45 68.1263 402.88 Q71.2281 405.288 71.2281 409.408 Q71.2281 412.278 69.5846 414.269 Q67.9411 416.237 64.9087 417 Z" fill="#000000" fill-rule="nonzero" fill-opacity="1" /><path clip-path="url(#clip430)" d="M80.904 429.755 L85.7882 429.755 L85.7882 435.635 L80.904 435.635 L80.904 429.755 Z" fill="#000000" fill-rule="nonzero" fill-opacity="1" /><path clip-path="url(#clip430)" d="M96.0196 401.075 L114.376 401.075 L114.376 405.01 L100.302 405.01 L100.302 413.482 Q101.321 413.135 102.339 412.973 Q103.358 412.788 104.376 412.788 Q110.163 412.788 113.543 415.959 Q116.922 419.13 116.922 424.547 Q116.922 430.125 113.45 433.227 Q109.978 436.306 103.658 436.306 Q101.483 436.306 99.2141 435.936 Q96.9687 435.565 94.5613 434.824 L94.5613 430.125 Q96.6446 431.26 98.8668 431.815 Q101.089 432.371 103.566 432.371 Q107.571 432.371 109.908 430.264 Q112.246 428.158 112.246 424.547 Q112.246 420.936 109.908 418.829 Q107.571 416.723 103.566 416.723 Q101.691 416.723 99.8159 417.139 Q97.9641 417.556 96.0196 418.436 L96.0196 401.075 Z" fill="#000000" fill-rule="nonzero" fill-opacity="1" /><path clip-path="url(#clip430)" d="M62.5939 73.5605 L50.7884 92.0095 L62.5939 92.0095 L62.5939 73.5605 M61.367 69.4864 L67.2466 69.4864 L67.2466 92.0095 L72.1772 92.0095 L72.1772 95.8983 L67.2466 95.8983 L67.2466 104.046 L62.5939 104.046 L62.5939 95.8983 L46.9921 95.8983 L46.9921 91.3845 L61.367 69.4864 Z" fill="#000000" fill-rule="nonzero" fill-opacity="1" /><path clip-path="url(#clip430)" d="M79.9086 98.1668 L84.7928 98.1668 L84.7928 104.046 L79.9086 104.046 L79.9086 98.1668 Z" fill="#000000" fill-rule="nonzero" fill-opacity="1" /><path clip-path="url(#clip430)" d="M104.978 72.5651 Q101.367 72.5651 99.5381 76.1299 Q97.7326 79.6716 97.7326 86.8011 Q97.7326 93.9076 99.5381 97.4724 Q101.367 101.014 104.978 101.014 Q108.612 101.014 110.418 97.4724 Q112.246 93.9076 112.246 86.8011 Q112.246 79.6716 110.418 76.1299 Q108.612 72.5651 104.978 72.5651 M104.978 68.8614 Q110.788 68.8614 113.844 73.4679 Q116.922 78.0512 116.922 86.8011 Q116.922 95.528 113.844 100.134 Q110.788 104.718 104.978 104.718 Q99.1678 104.718 96.0891 100.134 Q93.0335 95.528 93.0335 86.8011 Q93.0335 78.0512 96.0891 73.4679 Q99.1678 68.8614 104.978 68.8614 Z" fill="#000000" fill-rule="nonzero" fill-opacity="1" /><polyline clip-path="url(#clip432)" style="stroke:#009af9; stroke-linecap:round; stroke-linejoin:round; stroke-width:12; stroke-opacity:1; fill:none" points="164.922,86.7664 167.913,93.3882 170.904,99.977 173.895,106.533 176.886,113.056 179.876,119.547 182.867,126.005 185.858,132.431 188.849,138.824 191.84,145.186 194.831,151.517 197.821,157.815 200.812,164.082 203.803,170.318 206.794,176.523 209.785,182.696 212.775,188.839 215.766,194.952 218.757,201.033 221.748,207.085 224.739,213.106 227.73,219.097 230.72,225.058 233.711,230.989 236.702,236.891 239.693,242.764 242.684,248.607 245.675,254.42 248.665,260.205 251.656,265.961 254.647,271.688 257.638,277.387 260.629,283.057 263.62,288.699 266.61,294.313 269.601,299.898 272.592,305.456 275.583,310.986 278.574,316.488 281.564,321.963 284.555,327.411 287.546,332.831 290.537,338.225 293.528,343.591 296.519,348.931 299.509,354.244 302.5,359.53 305.491,364.79 308.482,370.024 311.473,375.231 314.464,380.413 317.454,385.569 320.445,390.699 323.436,395.803 326.427,400.882 329.418,405.936 332.408,410.964 335.399,415.968 338.39,420.946 341.381,425.899 344.372,430.828 347.363,435.732 350.353,440.612 353.344,445.467 356.335,450.298 359.326,455.105 362.317,459.888 365.308,464.647 368.298,469.382 371.289,474.094 374.28,478.782 377.271,483.447 380.262,488.088 383.252,492.707 386.243,497.302 389.234,501.874 392.225,506.424 395.216,510.95 398.207,515.454 401.197,519.936 404.188,524.395 407.179,528.832 410.17,533.247 413.161,537.64 416.152,542.011 419.142,546.36 422.133,550.687 425.124,554.993 428.115,559.277 431.106,563.54 434.097,567.781 437.087,572.002 440.078,576.201 443.069,580.379 446.06,584.537 449.051,588.673 452.041,592.789 455.032,596.885 458.023,600.96 461.014,605.015 464.005,609.049 466.996,613.063 469.986,617.057 472.977,621.032 475.968,624.986 478.959,628.921 481.95,632.836 484.941,636.731 487.931,640.608 490.922,644.464 493.913,648.302 496.904,652.12 499.895,655.919 502.885,659.7 505.876,663.461 508.867,667.204 511.858,670.928 514.849,674.633 517.84,678.32 520.83,681.988 523.821,685.638 526.812,689.27 529.803,692.884 532.794,696.48 535.785,700.058 538.775,703.618 541.766,707.16 544.757,710.684 547.748,714.191 550.739,717.681 553.729,721.153 556.72,724.607 559.711,728.045 562.702,731.465 565.693,734.868 568.684,738.254 571.674,741.624 574.665,744.976 577.656,748.312 580.647,751.631 583.638,754.934 586.629,758.22 589.619,761.49 592.61,764.743 595.601,767.98 598.592,771.201 601.583,774.406 604.573,777.595 607.564,780.768 610.555,783.925 613.546,787.066 616.537,790.192 619.528,793.302 622.518,796.396 625.509,799.475 628.5,802.539 631.491,805.588 634.482,808.621 637.473,811.639 640.463,814.642 643.454,817.63 646.445,820.603 649.436,823.561 652.427,826.504 655.418,829.433 658.408,832.347 661.399,835.246 664.39,838.131 667.381,841.002 670.372,843.858 673.362,846.7 676.353,849.528 679.344,852.342 682.335,855.141 685.326,857.927 688.317,860.699 691.307,863.457 694.298,866.201 697.289,868.931 700.28,871.648 703.271,874.351 706.262,877.041 709.252,879.717 712.243,882.38 715.234,885.03 718.225,887.666 721.216,890.289 724.206,892.9 727.197,895.497 730.188,898.081 733.179,900.652 736.17,903.21 739.161,905.756 742.151,908.289 745.142,910.809 748.133,913.317 751.124,915.812 754.115,918.295 757.106,920.765 760.096,923.223 763.087,925.669 766.078,928.103 769.069,930.524 772.06,932.934 775.05,935.331 778.041,937.716 781.032,940.09 784.023,942.451 787.014,944.801 790.005,947.139 792.995,949.465 795.986,951.78 798.977,954.084 801.968,956.375 804.959,958.656 807.95,960.925 810.94,963.182 813.931,965.429 816.922,967.664 819.913,969.888 822.904,972.101 825.895,974.303 828.885,976.494 831.876,978.674 834.867,980.843 837.858,983.002 840.849,985.149 843.839,987.286 846.83,989.412 849.821,991.528 852.812,993.633 855.803,995.727 858.794,997.811 861.784,999.885 864.775,1001.95 867.766,1004 870.757,1006.04 873.748,1008.08 876.739,1010.1 879.729,1012.11 882.72,1014.11 885.711,1016.1 888.702,1018.09 891.693,1020.06 894.683,1022.02 897.674,1023.97 900.665,1025.92 903.656,1027.85 906.647,1029.77 909.638,1031.69 912.628,1033.59 915.619,1035.49 918.61,1037.37 921.601,1039.25 924.592,1041.12 927.583,1042.97 930.573,1044.82 933.564,1046.66 936.555,1048.49 939.546,1050.31 942.537,1052.12 945.527,1053.92 948.518,1055.72 951.509,1057.5 954.5,1059.28 957.491,1061.04 960.482,1062.8 963.472,1064.55 966.463,1066.29 969.454,1068.02 972.445,1069.74 975.436,1071.46 978.427,1073.16 981.417,1074.86 984.408,1076.55 987.399,1078.23 990.39,1079.9 993.381,1081.56 996.371,1083.22 999.362,1084.87 1002.35,1086.5 1005.34,1088.13 1008.33,1089.76 1011.33,1091.37 1014.32,1092.98 1017.31,1094.58 1020.3,1096.17 1023.29,1097.75 1026.28,1099.32 1029.27,1100.89 1032.26,1102.45 1035.25,1104 1038.24,1105.54 1041.23,1107.08 1044.22,1108.61 1047.22,1110.13 1050.21,1111.64 1053.2,1113.14 1056.19,1114.64 1059.18,1116.13 1062.17,1117.61 1065.16,1119.09 1068.15,1120.56 1071.14,1122.02 1074.13,1123.47 1077.12,1124.92 1080.11,1126.35 1083.11,1127.79 1086.1,1129.21 1089.09,1130.63 1092.08,1132.04 1095.07,1133.44 1098.06,1134.84 1101.05,1136.23 1104.04,1137.61 1107.03,1138.99 1110.02,1140.35 1113.01,1141.72 1116,1143.07 1119,1144.42 1121.99,1145.76 1124.98,1147.1 1127.97,1148.42 1130.96,1149.75 1133.95,1151.06 1136.94,1152.37 1139.93,1153.67 1142.92,1154.97 1145.91,1156.26 1148.9,1157.54 1151.89,1158.82 1154.89,1160.09 1157.88,1161.35 1160.87,1162.61 1163.86,1163.86 1166.85,1165.1 1169.84,1166.34 1172.83,1167.57 1175.82,1168.8 1178.81,1170.02 1181.8,1171.23 1184.79,1172.44 1187.78,1173.64 1190.78,1174.84 1193.77,1176.03 1196.76,1177.21 1199.75,1178.39 1202.74,1179.56 1205.73,1180.73 1208.72,1181.89 1211.71,1183.04 1214.7,1184.19 1217.69,1185.33 1220.68,1186.47 1223.67,1187.6 1226.66,1188.73 1229.66,1189.85 1232.65,1190.96 1235.64,1192.07 1238.63,1193.18 1241.62,1194.28 1244.61,1195.37 1247.6,1196.45 1250.59,1197.54 1253.58,1198.61 1256.57,1199.68 1259.56,1200.75 1262.55,1201.81 1265.55,1202.86 1268.54,1203.91 1271.53,1204.96 1274.52,1206 1277.51,1207.03 1280.5,1208.06 1283.49,1209.08 1286.48,1210.1 1289.47,1211.12 1292.46,1212.12 1295.45,1213.13 1298.44,1214.13 1301.44,1215.12 1304.43,1216.11 1307.42,1217.09 1310.41,1218.07 1313.4,1219.04 1316.39,1220.01 1319.38,1220.98 1322.37,1221.94 1325.36,1222.89 1328.35,1223.84 1331.34,1224.78 1334.33,1225.72 1337.33,1226.66 1340.32,1227.59 1343.31,1228.52 1346.3,1229.44 1349.29,1230.35 1352.28,1231.27 1355.27,1232.17 1358.26,1233.08 1361.25,1233.98 1364.24,1234.87 1367.23,1235.76 1370.22,1236.65 1373.22,1237.53 1376.21,1238.4 1379.2,1239.28 1382.19,1240.14 1385.18,1241.01 1388.17,1241.87 1391.16,1242.72 1394.15,1243.57 1397.14,1244.42 1400.13,1245.26 1403.12,1246.1 1406.11,1246.93 1409.11,1247.76 1412.1,1248.59 1415.09,1249.41 1418.08,1250.22 1421.07,1251.04 1424.06,1251.85 1427.05,1252.65 1430.04,1253.45 1433.03,1254.25 1436.02,1255.04 1439.01,1255.83 1442,1256.62 1445,1257.4 1447.99,1258.18 1450.98,1258.95 1453.97,1259.72 1456.96,1260.49 1459.95,1261.25 1462.94,1262.01 1465.93,1262.76 1468.92,1263.51 1471.91,1264.26 1474.9,1265 1477.89,1265.74 1480.89,1266.48 1483.88,1267.21 1486.87,1267.94 1489.86,1268.66 1492.85,1269.38 1495.84,1270.1 1498.83,1270.82 1501.82,1271.53 1504.81,1272.23 1507.8,1272.94 1510.79,1273.64 1513.78,1274.34 1516.77,1275.03 1519.77,1275.72 1522.76,1276.4 1525.75,1277.09 1528.74,1277.77 1531.73,1278.44 1534.72,1279.12 1537.71,1279.78 1540.7,1280.45 1543.69,1281.11 1546.68,1281.77 1549.67,1282.43 1552.66,1283.08 1555.66,1283.73 1558.65,1284.38 1561.64,1285.02 1564.63,1285.66 1567.62,1286.3 1570.61,1286.93 1573.6,1287.56 1576.59,1288.19 1579.58,1288.81 1582.57,1289.43 1585.56,1290.05 1588.55,1290.66 1591.55,1291.28 1594.54,1291.88 1597.53,1292.49 1600.52,1293.09 1603.51,1293.69 1606.5,1294.29 1609.49,1294.88 1612.48,1295.47 1615.47,1296.06 1618.46,1296.64 1621.45,1297.22 1624.44,1297.8 1627.44,1298.38 1630.43,1298.95 1633.42,1299.52 1636.41,1300.09 1639.4,1300.65 1642.39,1301.21 1645.38,1301.77 1648.37,1302.33 1651.36,1302.88 1654.35,1303.43 1657.34,1303.98 1660.33,1304.53 1663.33,1305.07 1666.32,1305.61 1669.31,1306.14 1672.3,1306.68 1675.29,1307.21 1678.28,1307.74 1681.27,1308.26 1684.26,1308.79 1687.25,1309.31 1690.24,1309.83 1693.23,1310.34 1696.22,1310.85 1699.22,1311.36 1702.21,1311.87 1705.2,1312.38 1708.19,1312.88 1711.18,1313.38 1714.17,1313.88 1717.16,1314.37 1720.15,1314.87 1723.14,1315.36 1726.13,1315.84 1729.12,1316.33 1732.11,1316.81 1735.11,1317.29 1738.1,1317.77 1741.09,1318.25 1744.08,1318.72 1747.07,1319.19 1750.06,1319.66 1753.05,1320.13 1756.04,1320.59 1759.03,1321.05 1762.02,1321.51 1765.01,1321.97 1768,1322.42 1771,1322.88 1773.99,1323.33 1776.98,1323.77 1779.97,1324.22 1782.96,1324.66 1785.95,1325.11 1788.94,1325.55 1791.93,1325.98 1794.92,1326.42 1797.91,1326.85 1800.9,1327.28 1803.89,1327.71 1806.88,1328.13 1809.88,1328.56 1812.87,1328.98 1815.86,1329.4 1818.85,1329.82 1821.84,1330.23 1824.83,1330.65 1827.82,1331.06 1830.81,1331.47 1833.8,1331.88 1836.79,1332.28 1839.78,1332.69 1842.77,1333.09 1845.77,1333.49 1848.76,1333.88 1851.75,1334.28 1854.74,1334.67 1857.73,1335.06 1860.72,1335.45 1863.71,1335.84 1866.7,1336.23 1869.69,1336.61 1872.68,1336.99 1875.67,1337.37 1878.66,1337.75 1881.66,1338.13 1884.65,1338.5 1887.64,1338.88 1890.63,1339.25 1893.62,1339.62 1896.61,1339.98 1899.6,1340.35 1902.59,1340.71 1905.58,1341.07 1908.57,1341.43 1911.56,1341.79 1914.55,1342.15 1917.55,1342.5 1920.54,1342.85 1923.53,1343.21 1926.52,1343.56 1929.51,1343.9 1932.5,1344.25 1935.49,1344.59 1938.48,1344.94 1941.47,1345.28 1944.46,1345.61 1947.45,1345.95 1950.44,1346.29 1953.44,1346.62 1956.43,1346.95 1959.42,1347.28 1962.41,1347.61 1965.4,1347.94 1968.39,1348.27 1971.38,1348.59 1974.37,1348.91 1977.36,1349.23 1980.35,1349.55 1983.34,1349.87 1986.33,1350.19 1989.33,1350.5 1992.32,1350.81 1995.31,1351.13 1998.3,1351.44 2001.29,1351.74 2004.28,1352.05 2007.27,1352.36 2010.26,1352.66 2013.25,1352.96 2016.24,1353.26 2019.23,1353.56 2022.22,1353.86 2025.22,1354.15 2028.21,1354.45 2031.2,1354.74 2034.19,1355.03 2037.18,1355.32 2040.17,1355.61 2043.16,1355.9 2046.15,1356.19 2049.14,1356.47 2052.13,1356.75 2055.12,1357.03 2058.11,1357.31 2061.1,1357.59 2064.1,1357.87 2067.09,1358.15 2070.08,1358.42 2073.07,1358.69 2076.06,1358.97 2079.05,1359.24 2082.04,1359.5 2085.03,1359.77 2088.02,1360.04 2091.01,1360.3 2094,1360.57 2096.99,1360.83 2099.99,1361.09 2102.98,1361.35 2105.97,1361.61 2108.96,1361.87 2111.95,1362.12 2114.94,1362.38 2117.93,1362.63 2120.92,1362.88 2123.91,1363.13 2126.9,1363.38 2129.89,1363.63 2132.88,1363.88 2135.88,1364.12 2138.87,1364.37 2141.86,1364.61 2144.85,1364.85 2147.84,1365.09 2150.83,1365.33 2153.82,1365.57 2156.81,1365.81 2159.8,1366.04 2162.79,1366.28 2165.78,1366.51 2168.77,1366.75 2171.77,1366.98 2174.76,1367.21 2177.75,1367.44 2180.74,1367.66 2183.73,1367.89 2186.72,1368.12 2189.71,1368.34 2192.7,1368.56 2195.69,1368.79 2198.68,1369.01 2201.67,1369.23 2204.66,1369.45 2207.66,1369.66 2210.65,1369.88 2213.64,1370.1 2216.63,1370.31 2219.62,1370.52 2222.61,1370.74 2225.6,1370.95 2228.59,1371.16 2231.58,1371.37 2234.57,1371.58 2237.56,1371.78 2240.55,1371.99 2243.55,1372.19 2246.54,1372.4 2249.53,1372.6 2252.52,1372.8 2255.51,1373 2258.5,1373.2 2261.49,1373.4 2264.48,1373.6 2267.47,1373.8 2270.46,1373.99 2273.45,1374.19 2276.44,1374.38 2279.44,1374.58 2282.43,1374.77 2285.42,1374.96 2288.41,1375.15 2291.4,1375.34 2294.39,1375.53 2297.38,1375.72 2300.37,1375.9 2303.36,1376.09 2306.35,1376.27 2309.34,1376.46 2312.33,1376.64 2315.33,1376.82 2318.32,1377 2321.31,1377.18 2324.3,1377.36 2327.29,1377.54 2330.28,1377.72 2333.27,1377.9 2336.26,1378.07 2339.25,1378.25 2342.24,1378.42 2345.23,1378.59 2348.22,1378.77 2351.21,1378.94 2354.21,1379.11 2357.2,1379.28 2360.19,1379.45 2363.18,1379.62 2366.17,1379.78 2369.16,1379.95 2372.15,1380.11 2375.14,1380.28 2378.13,1380.44 2381.12,1380.61 2384.11,1380.77 2387.1,1380.93 2390.1,1381.09 2393.09,1381.25 2396.08,1381.41 2399.07,1381.57 2402.06,1381.73 2405.05,1381.88 2408.04,1382.04 2411.03,1382.2 2414.02,1382.35 2417.01,1382.5 2420,1382.66 2422.99,1382.81 2425.99,1382.96 2428.98,1383.11 2431.97,1383.26 2434.96,1383.41 2437.95,1383.56 2440.94,1383.71 2443.93,1383.86 2446.92,1384 2449.91,1384.15 2452.9,1384.29 2455.89,1384.44 2458.88,1384.58 2461.88,1384.72 2464.87,1384.86 2467.86,1385.01 2470.85,1385.15 2473.84,1385.29 2476.83,1385.43 2479.82,1385.56 2482.81,1385.7 2485.8,1385.84 2488.79,1385.98 2491.78,1386.11 2494.77,1386.25 2497.77,1386.38 2500.76,1386.51 2503.75,1386.65 2506.74,1386.78 2509.73,1386.91 2512.72,1387.04 2515.71,1387.17 2518.7,1387.3 2521.69,1387.43 2524.68,1387.56 2527.67,1387.69 2530.66,1387.82 2533.66,1387.94 2536.65,1388.07 2539.64,1388.19 2542.63,1388.32 2545.62,1388.44 2548.61,1388.57 2551.6,1388.69 2554.59,1388.81 2557.58,1388.93 2560.57,1389.05 2563.56,1389.17 2566.55,1389.29 2569.55,1389.41 2572.54,1389.53 2575.53,1389.65 2578.52,1389.77 2581.51,1389.88 2584.5,1390 2587.49,1390.11 2590.48,1390.23 2593.47,1390.34 2596.46,1390.46 2599.45,1390.57 2602.44,1390.68 2605.44,1390.79 2608.43,1390.91 2611.42,1391.02 2614.41,1391.13 2617.4,1391.24 2620.39,1391.35 2623.38,1391.46 2626.37,1391.56 2629.36,1391.67 2632.35,1391.78 2635.34,1391.88 2638.33,1391.99 2641.32,1392.1 2644.32,1392.2 2647.31,1392.3 2650.3,1392.41 2653.29,1392.51 2656.28,1392.61 2659.27,1392.72 2662.26,1392.82 2665.25,1392.92 2668.24,1393.02 2671.23,1393.12 2674.22,1393.22 2677.21,1393.32 2680.21,1393.42 2683.2,1393.52 2686.19,1393.61 2689.18,1393.71 2692.17,1393.81 2695.16,1393.9 2698.15,1394 2701.14,1394.1 2704.13,1394.19 2707.12,1394.28 2710.11,1394.38 2713.1,1394.47 2716.1,1394.57 2719.09,1394.66 2722.08,1394.75 2725.07,1394.84 2728.06,1394.93 2731.05,1395.02 2734.04,1395.11 2737.03,1395.2 2740.02,1395.29 2743.01,1395.38 2746,1395.47 2748.99,1395.56 2751.99,1395.64 2754.98,1395.73 2757.97,1395.82 2760.96,1395.9 2763.95,1395.99 2766.94,1396.07 2769.93,1396.16 2772.92,1396.24 2775.91,1396.33 2778.9,1396.41 2781.89,1396.49 2784.88,1396.58 2787.88,1396.66 2790.87,1396.74 2793.86,1396.82 2796.85,1396.9 2799.84,1396.98 2802.83,1397.07 2805.82,1397.15 2808.81,1397.22 2811.8,1397.3 2814.79,1397.38 2817.78,1397.46 2820.77,1397.54 2823.77,1397.62 2826.76,1397.69 2829.75,1397.77 2832.74,1397.85 2835.73,1397.92 2838.72,1398 2841.71,1398.07 2844.7,1398.15 2847.69,1398.22 2850.68,1398.3 2853.67,1398.37 2856.66,1398.44 2859.66,1398.52 2862.65,1398.59 2865.64,1398.66 2868.63,1398.73 2871.62,1398.81 2874.61,1398.88 2877.6,1398.95 2880.59,1399.02 2883.58,1399.09 2886.57,1399.16 2889.56,1399.23 2892.55,1399.3 2895.55,1399.37 2898.54,1399.44 2901.53,1399.5 2904.52,1399.57 2907.51,1399.64 2910.5,1399.71 2913.49,1399.77 2916.48,1399.84 2919.47,1399.91 2922.46,1399.97 2925.45,1400.04 2928.44,1400.1 2931.43,1400.17 2934.43,1400.23 2937.42,1400.3 2940.41,1400.36 2943.4,1400.43 2946.39,1400.49 2949.38,1400.55 2952.37,1400.62 2955.36,1400.68 2958.35,1400.74 2961.34,1400.8 2964.33,1400.86 2967.32,1400.92 2970.32,1400.98 2973.31,1401.05 2976.3,1401.11 2979.29,1401.17 2982.28,1401.23 2985.27,1401.28 2988.26,1401.34 2991.25,1401.4 2994.24,1401.46 2997.23,1401.52 3000.22,1401.58 3003.21,1401.63 3006.21,1401.69 3009.2,1401.75 3012.19,1401.81 3015.18,1401.86 3018.17,1401.92 3021.16,1401.97 3024.15,1402.03 3027.14,1402.09 3030.13,1402.14 3033.12,1402.2 3036.11,1402.25 3039.1,1402.3 3042.1,1402.36 3045.09,1402.41 3048.08,1402.47 3051.07,1402.52 3054.06,1402.57 3057.05,1402.62 3060.04,1402.68 3063.03,1402.73 3066.02,1402.78 3069.01,1402.83 3072,1402.88 3074.99,1402.93 3077.99,1402.99 3080.98,1403.04 3083.97,1403.09 3086.96,1403.14 3089.95,1403.19 3092.94,1403.24 3095.93,1403.29 3098.92,1403.33 3101.91,1403.38 3104.9,1403.43 3107.89,1403.48 3110.88,1403.53 3113.88,1403.58 3116.87,1403.62 3119.86,1403.67 3122.85,1403.72 3125.84,1403.77 3128.83,1403.81 3131.82,1403.86 3134.81,1403.9 3137.8,1403.95 3140.79,1404 3143.78,1404.04 3146.77,1404.09 3149.77,1404.13 3152.76,1404.18 "/>
<path clip-path="url(#clip430)" d="M2724.79 197.473 L3053.16 197.473 L3053.16 93.7926 L2724.79 93.7926  Z" fill="#ffffff" fill-rule="evenodd" fill-opacity="1"/>
<polyline clip-path="url(#clip430)" style="stroke:#000000; stroke-linecap:round; stroke-linejoin:round; stroke-width:4; stroke-opacity:1; fill:none" points="2724.79,197.473 3053.16,197.473 3053.16,93.7926 2724.79,93.7926 2724.79,197.473 "/>
<polyline clip-path="url(#clip430)" style="stroke:#009af9; stroke-linecap:round; stroke-linejoin:round; stroke-width:12; stroke-opacity:1; fill:none" points="2757.99,145.633 2957.18,145.633 "/>
<path clip-path="url(#clip430)" d="M2991.95 128.353 L2996.98 128.353 L3005.57 141.2 L3014.2 128.353 L3019.22 128.353 L3008.11 144.95 L3019.96 162.913 L3014.94 162.913 L3005.22 148.214 L2995.43 162.913 L2990.38 162.913 L3002.72 144.464 L2991.95 128.353 Z" fill="#000000" fill-rule="nonzero" fill-opacity="1" /></svg>
