<?xml version="1.0" encoding="utf-8"?>
<svg xmlns="http://www.w3.org/2000/svg" xmlns:xlink="http://www.w3.org/1999/xlink" width="800" height="400" viewBox="0 0 3200 1600">
<defs>
  <clipPath id="clip530">
    <rect x="0" y="0" width="3200" height="1600"/>
  </clipPath>
</defs>
<path clip-path="url(#clip530)" d="M0 1600 L3200 1600 L3200 0 L0 0  Z" fill="#ffffff" fill-rule="evenodd" fill-opacity="1"/>
<defs>
  <clipPath id="clip531">
    <rect x="178" y="47" width="2975" height="1397"/>
  </clipPath>
</defs>
<path clip-path="url(#clip530)" d="M178.857 1443.7 L3152.76 1443.7 L3152.76 47.2441 L178.857 47.2441  Z" fill="#ffffff" fill-rule="evenodd" fill-opacity="1"/>
<polyline clip-path="url(#clip531)" style="stroke:#000000; stroke-linecap:round; stroke-linejoin:round; stroke-width:2; stroke-opacity:0.1; fill:none" points="178.857,1443.7 178.857,47.2441 "/>
<polyline clip-path="url(#clip531)" style="stroke:#000000; stroke-linecap:round; stroke-linejoin:round; stroke-width:2; stroke-opacity:0.1; fill:none" points="773.637,1443.7 773.637,47.2441 "/>
<polyline clip-path="url(#clip531)" style="stroke:#000000; stroke-linecap:round; stroke-linejoin:round; stroke-width:2; stroke-opacity:0.1; fill:none" points="1368.42,1443.7 1368.42,47.2441 "/>
<polyline clip-path="url(#clip531)" style="stroke:#000000; stroke-linecap:round; stroke-linejoin:round; stroke-width:2; stroke-opacity:0.1; fill:none" points="1963.2,1443.7 1963.2,47.2441 "/>
<polyline clip-path="url(#clip531)" style="stroke:#000000; stroke-linecap:round; stroke-linejoin:round; stroke-width:2; stroke-opacity:0.1; fill:none" points="2557.98,1443.7 2557.98,47.2441 "/>
<polyline clip-path="url(#clip531)" style="stroke:#000000; stroke-linecap:round; stroke-linejoin:round; stroke-width:2; stroke-opacity:0.1; fill:none" points="3152.76,1443.7 3152.76,47.2441 "/>
<polyline clip-path="url(#clip531)" style="stroke:#000000; stroke-linecap:round; stroke-linejoin:round; stroke-width:2; stroke-opacity:0.1; fill:none" points="178.857,1443.7 178.857,47.2441 "/>
<polyline clip-path="url(#clip531)" style="stroke:#000000; stroke-linecap:round; stroke-linejoin:round; stroke-width:2; stroke-opacity:0.1; fill:none" points="773.637,1443.7 773.637,47.2441 "/>
<polyline clip-path="url(#clip531)" style="stroke:#000000; stroke-linecap:round; stroke-linejoin:round; stroke-width:2; stroke-opacity:0.1; fill:none" points="1368.42,1443.7 1368.42,47.2441 "/>
<polyline clip-path="url(#clip531)" style="stroke:#000000; stroke-linecap:round; stroke-linejoin:round; stroke-width:2; stroke-opacity:0.1; fill:none" points="1963.2,1443.7 1963.2,47.2441 "/>
<polyline clip-path="url(#clip531)" style="stroke:#000000; stroke-linecap:round; stroke-linejoin:round; stroke-width:2; stroke-opacity:0.1; fill:none" points="2557.98,1443.7 2557.98,47.2441 "/>
<polyline clip-path="url(#clip531)" style="stroke:#000000; stroke-linecap:round; stroke-linejoin:round; stroke-width:2; stroke-opacity:0.1; fill:none" points="3152.76,1443.7 3152.76,47.2441 "/>
<polyline clip-path="url(#clip531)" style="stroke:#000000; stroke-linecap:round; stroke-linejoin:round; stroke-width:2; stroke-opacity:0.1; fill:none" points="178.857,1256.85 3152.76,1256.85 "/>
<polyline clip-path="url(#clip531)" style="stroke:#000000; stroke-linecap:round; stroke-linejoin:round; stroke-width:2; stroke-opacity:0.1; fill:none" points="178.857,1001.16 3152.76,1001.16 "/>
<polyline clip-path="url(#clip531)" style="stroke:#000000; stroke-linecap:round; stroke-linejoin:round; stroke-width:2; stroke-opacity:0.1; fill:none" points="178.857,745.472 3152.76,745.472 "/>
<polyline clip-path="url(#clip531)" style="stroke:#000000; stroke-linecap:round; stroke-linejoin:round; stroke-width:2; stroke-opacity:0.1; fill:none" points="178.857,489.785 3152.76,489.785 "/>
<polyline clip-path="url(#clip531)" style="stroke:#000000; stroke-linecap:round; stroke-linejoin:round; stroke-width:2; stroke-opacity:0.1; fill:none" points="178.857,234.097 3152.76,234.097 "/>
<polyline clip-path="url(#clip531)" style="stroke:#000000; stroke-linecap:round; stroke-linejoin:round; stroke-width:2; stroke-opacity:0.1; fill:none" points="178.857,1256.85 3152.76,1256.85 "/>
<polyline clip-path="url(#clip531)" style="stroke:#000000; stroke-linecap:round; stroke-linejoin:round; stroke-width:2; stroke-opacity:0.1; fill:none" points="178.857,1001.16 3152.76,1001.16 "/>
<polyline clip-path="url(#clip531)" style="stroke:#000000; stroke-linecap:round; stroke-linejoin:round; stroke-width:2; stroke-opacity:0.1; fill:none" points="178.857,745.472 3152.76,745.472 "/>
<polyline clip-path="url(#clip531)" style="stroke:#000000; stroke-linecap:round; stroke-linejoin:round; stroke-width:2; stroke-opacity:0.1; fill:none" points="178.857,489.785 3152.76,489.785 "/>
<polyline clip-path="url(#clip531)" style="stroke:#000000; stroke-linecap:round; stroke-linejoin:round; stroke-width:2; stroke-opacity:0.1; fill:none" points="178.857,234.097 3152.76,234.097 "/>
<polyline clip-path="url(#clip530)" style="stroke:#000000; stroke-linecap:round; stroke-linejoin:round; stroke-width:4; stroke-opacity:1; fill:none" points="178.857,1443.7 3152.76,1443.7 "/>
<polyline clip-path="url(#clip530)" style="stroke:#000000; stroke-linecap:round; stroke-linejoin:round; stroke-width:4; stroke-opacity:1; fill:none" points="178.857,47.2441 3152.76,47.2441 "/>
<polyline clip-path="url(#clip530)" style="stroke:#000000; stroke-linecap:round; stroke-linejoin:round; stroke-width:4; stroke-opacity:1; fill:none" points="178.857,1443.7 178.857,1424.8 "/>
<polyline clip-path="url(#clip530)" style="stroke:#000000; stroke-linecap:round; stroke-linejoin:round; stroke-width:4; stroke-opacity:1; fill:none" points="773.637,1443.7 773.637,1424.8 "/>
<polyline clip-path="url(#clip530)" style="stroke:#000000; stroke-linecap:round; stroke-linejoin:round; stroke-width:4; stroke-opacity:1; fill:none" points="1368.42,1443.7 1368.42,1424.8 "/>
<polyline clip-path="url(#clip530)" style="stroke:#000000; stroke-linecap:round; stroke-linejoin:round; stroke-width:4; stroke-opacity:1; fill:none" points="1963.2,1443.7 1963.2,1424.8 "/>
<polyline clip-path="url(#clip530)" style="stroke:#000000; stroke-linecap:round; stroke-linejoin:round; stroke-width:4; stroke-opacity:1; fill:none" points="2557.98,1443.7 2557.98,1424.8 "/>
<polyline clip-path="url(#clip530)" style="stroke:#000000; stroke-linecap:round; stroke-linejoin:round; stroke-width:4; stroke-opacity:1; fill:none" points="3152.76,1443.7 3152.76,1424.8 "/>
<polyline clip-path="url(#clip530)" style="stroke:#000000; stroke-linecap:round; stroke-linejoin:round; stroke-width:4; stroke-opacity:1; fill:none" points="178.857,47.2441 178.857,66.1417 "/>
<polyline clip-path="url(#clip530)" style="stroke:#000000; stroke-linecap:round; stroke-linejoin:round; stroke-width:4; stroke-opacity:1; fill:none" points="773.637,47.2441 773.637,66.1417 "/>
<polyline clip-path="url(#clip530)" style="stroke:#000000; stroke-linecap:round; stroke-linejoin:round; stroke-width:4; stroke-opacity:1; fill:none" points="1368.42,47.2441 1368.42,66.1417 "/>
<polyline clip-path="url(#clip530)" style="stroke:#000000; stroke-linecap:round; stroke-linejoin:round; stroke-width:4; stroke-opacity:1; fill:none" points="1963.2,47.2441 1963.2,66.1417 "/>
<polyline clip-path="url(#clip530)" style="stroke:#000000; stroke-linecap:round; stroke-linejoin:round; stroke-width:4; stroke-opacity:1; fill:none" points="2557.98,47.2441 2557.98,66.1417 "/>
<polyline clip-path="url(#clip530)" style="stroke:#000000; stroke-linecap:round; stroke-linejoin:round; stroke-width:4; stroke-opacity:1; fill:none" points="3152.76,47.2441 3152.76,66.1417 "/>
<path clip-path="url(#clip530)" d="M156.242 1481.02 Q152.631 1481.02 150.802 1484.58 Q148.996 1488.12 148.996 1495.25 Q148.996 1502.36 150.802 1505.93 Q152.631 1509.47 156.242 1509.47 Q159.876 1509.47 161.682 1505.93 Q163.51 1502.36 163.51 1495.25 Q163.51 1488.12 161.682 1484.58 Q159.876 1481.02 156.242 1481.02 M156.242 1477.31 Q162.052 1477.31 165.107 1481.92 Q168.186 1486.5 168.186 1495.25 Q168.186 1503.98 165.107 1508.59 Q162.052 1513.17 156.242 1513.17 Q150.432 1513.17 147.353 1508.59 Q144.297 1503.98 144.297 1495.25 Q144.297 1486.5 147.353 1481.92 Q150.432 1477.31 156.242 1477.31 Z" fill="#000000" fill-rule="nonzero" fill-opacity="1" /><path clip-path="url(#clip530)" d="M176.404 1506.62 L181.288 1506.62 L181.288 1512.5 L176.404 1512.5 L176.404 1506.62 Z" fill="#000000" fill-rule="nonzero" fill-opacity="1" /><path clip-path="url(#clip530)" d="M201.473 1481.02 Q197.862 1481.02 196.033 1484.58 Q194.228 1488.12 194.228 1495.25 Q194.228 1502.36 196.033 1505.93 Q197.862 1509.47 201.473 1509.47 Q205.107 1509.47 206.913 1505.93 Q208.742 1502.36 208.742 1495.25 Q208.742 1488.12 206.913 1484.58 Q205.107 1481.02 201.473 1481.02 M201.473 1477.31 Q207.283 1477.31 210.339 1481.92 Q213.417 1486.5 213.417 1495.25 Q213.417 1503.98 210.339 1508.59 Q207.283 1513.17 201.473 1513.17 Q195.663 1513.17 192.584 1508.59 Q189.529 1503.98 189.529 1495.25 Q189.529 1486.5 192.584 1481.92 Q195.663 1477.31 201.473 1477.31 Z" fill="#000000" fill-rule="nonzero" fill-opacity="1" /><path clip-path="url(#clip530)" d="M751.82 1481.02 Q748.209 1481.02 746.38 1484.58 Q744.575 1488.12 744.575 1495.25 Q744.575 1502.36 746.38 1505.93 Q748.209 1509.47 751.82 1509.47 Q755.454 1509.47 757.26 1505.93 Q759.089 1502.36 759.089 1495.25 Q759.089 1488.12 757.26 1484.58 Q755.454 1481.02 751.82 1481.02 M751.82 1477.31 Q757.63 1477.31 760.686 1481.92 Q763.764 1486.5 763.764 1495.25 Q763.764 1503.98 760.686 1508.59 Q757.63 1513.17 751.82 1513.17 Q746.01 1513.17 742.931 1508.59 Q739.876 1503.98 739.876 1495.25 Q739.876 1486.5 742.931 1481.92 Q746.01 1477.31 751.82 1477.31 Z" fill="#000000" fill-rule="nonzero" fill-opacity="1" /><path clip-path="url(#clip530)" d="M771.982 1506.62 L776.866 1506.62 L776.866 1512.5 L771.982 1512.5 L771.982 1506.62 Z" fill="#000000" fill-rule="nonzero" fill-opacity="1" /><path clip-path="url(#clip530)" d="M791.079 1508.56 L807.399 1508.56 L807.399 1512.5 L785.454 1512.5 L785.454 1508.56 Q788.116 1505.81 792.7 1501.18 Q797.306 1496.53 798.487 1495.19 Q800.732 1492.66 801.612 1490.93 Q802.514 1489.17 802.514 1487.48 Q802.514 1484.72 800.57 1482.99 Q798.649 1481.25 795.547 1481.25 Q793.348 1481.25 790.894 1482.01 Q788.463 1482.78 785.686 1484.33 L785.686 1479.61 Q788.51 1478.47 790.963 1477.89 Q793.417 1477.31 795.454 1477.31 Q800.824 1477.31 804.019 1480 Q807.213 1482.69 807.213 1487.18 Q807.213 1489.31 806.403 1491.23 Q805.616 1493.12 803.51 1495.72 Q802.931 1496.39 799.829 1499.61 Q796.727 1502.8 791.079 1508.56 Z" fill="#000000" fill-rule="nonzero" fill-opacity="1" /><path clip-path="url(#clip530)" d="M1345.56 1481.02 Q1341.95 1481.02 1340.12 1484.58 Q1338.31 1488.12 1338.31 1495.25 Q1338.31 1502.36 1340.12 1505.93 Q1341.95 1509.47 1345.56 1509.47 Q1349.19 1509.47 1351 1505.93 Q1352.83 1502.36 1352.83 1495.25 Q1352.83 1488.12 1351 1484.58 Q1349.19 1481.02 1345.56 1481.02 M1345.56 1477.31 Q1351.37 1477.31 1354.42 1481.92 Q1357.5 1486.5 1357.5 1495.25 Q1357.5 1503.98 1354.42 1508.59 Q1351.37 1513.17 1345.56 1513.17 Q1339.75 1513.17 1336.67 1508.59 Q1333.61 1503.98 1333.61 1495.25 Q1333.61 1486.5 1336.67 1481.92 Q1339.75 1477.31 1345.56 1477.31 Z" fill="#000000" fill-rule="nonzero" fill-opacity="1" /><path clip-path="url(#clip530)" d="M1365.72 1506.62 L1370.6 1506.62 L1370.6 1512.5 L1365.72 1512.5 L1365.72 1506.62 Z" fill="#000000" fill-rule="nonzero" fill-opacity="1" /><path clip-path="url(#clip530)" d="M1393.64 1482.01 L1381.83 1500.46 L1393.64 1500.46 L1393.64 1482.01 M1392.41 1477.94 L1398.29 1477.94 L1398.29 1500.46 L1403.22 1500.46 L1403.22 1504.35 L1398.29 1504.35 L1398.29 1512.5 L1393.64 1512.5 L1393.64 1504.35 L1378.03 1504.35 L1378.03 1499.84 L1392.41 1477.94 Z" fill="#000000" fill-rule="nonzero" fill-opacity="1" /><path clip-path="url(#clip530)" d="M1940.5 1481.02 Q1936.89 1481.02 1935.06 1484.58 Q1933.25 1488.12 1933.25 1495.25 Q1933.25 1502.36 1935.06 1505.93 Q1936.89 1509.47 1940.5 1509.47 Q1944.13 1509.47 1945.94 1505.93 Q1947.77 1502.36 1947.77 1495.25 Q1947.77 1488.12 1945.94 1484.58 Q1944.13 1481.02 1940.5 1481.02 M1940.5 1477.31 Q1946.31 1477.31 1949.37 1481.92 Q1952.44 1486.5 1952.44 1495.25 Q1952.44 1503.98 1949.37 1508.59 Q1946.31 1513.17 1940.5 1513.17 Q1934.69 1513.17 1931.61 1508.59 Q1928.56 1503.98 1928.56 1495.25 Q1928.56 1486.5 1931.61 1481.92 Q1934.69 1477.31 1940.5 1477.31 Z" fill="#000000" fill-rule="nonzero" fill-opacity="1" /><path clip-path="url(#clip530)" d="M1960.66 1506.62 L1965.55 1506.62 L1965.55 1512.5 L1960.66 1512.5 L1960.66 1506.62 Z" fill="#000000" fill-rule="nonzero" fill-opacity="1" /><path clip-path="url(#clip530)" d="M1986.31 1493.36 Q1983.16 1493.36 1981.31 1495.51 Q1979.48 1497.66 1979.48 1501.41 Q1979.48 1505.14 1981.31 1507.31 Q1983.16 1509.47 1986.31 1509.47 Q1989.46 1509.47 1991.29 1507.31 Q1993.14 1505.14 1993.14 1501.41 Q1993.14 1497.66 1991.29 1495.51 Q1989.46 1493.36 1986.31 1493.36 M1995.59 1478.7 L1995.59 1482.96 Q1993.83 1482.13 1992.03 1481.69 Q1990.24 1481.25 1988.49 1481.25 Q1983.86 1481.25 1981.4 1484.37 Q1978.97 1487.5 1978.62 1493.82 Q1979.99 1491.81 1982.05 1490.74 Q1984.11 1489.65 1986.59 1489.65 Q1991.8 1489.65 1994.81 1492.82 Q1997.84 1495.97 1997.84 1501.41 Q1997.84 1506.74 1994.69 1509.95 Q1991.54 1513.17 1986.31 1513.17 Q1980.31 1513.17 1977.14 1508.59 Q1973.97 1503.98 1973.97 1495.25 Q1973.97 1487.06 1977.86 1482.2 Q1981.75 1477.31 1988.3 1477.31 Q1990.06 1477.31 1991.84 1477.66 Q1993.65 1478.01 1995.59 1478.7 Z" fill="#000000" fill-rule="nonzero" fill-opacity="1" /><path clip-path="url(#clip530)" d="M2535.41 1481.02 Q2531.8 1481.02 2529.97 1484.58 Q2528.16 1488.12 2528.16 1495.25 Q2528.16 1502.36 2529.97 1505.93 Q2531.8 1509.47 2535.41 1509.47 Q2539.04 1509.47 2540.85 1505.93 Q2542.68 1502.36 2542.68 1495.25 Q2542.68 1488.12 2540.85 1484.58 Q2539.04 1481.02 2535.41 1481.02 M2535.41 1477.31 Q2541.22 1477.31 2544.27 1481.92 Q2547.35 1486.5 2547.35 1495.25 Q2547.35 1503.98 2544.27 1508.59 Q2541.22 1513.17 2535.41 1513.17 Q2529.6 1513.17 2526.52 1508.59 Q2523.46 1503.98 2523.46 1495.25 Q2523.46 1486.5 2526.52 1481.92 Q2529.6 1477.31 2535.41 1477.31 Z" fill="#000000" fill-rule="nonzero" fill-opacity="1" /><path clip-path="url(#clip530)" d="M2555.57 1506.62 L2560.45 1506.62 L2560.45 1512.5 L2555.57 1512.5 L2555.57 1506.62 Z" fill="#000000" fill-rule="nonzero" fill-opacity="1" /><path clip-path="url(#clip530)" d="M2580.64 1496.09 Q2577.3 1496.09 2575.38 1497.87 Q2573.49 1499.65 2573.49 1502.78 Q2573.49 1505.9 2575.38 1507.69 Q2577.3 1509.47 2580.64 1509.47 Q2583.97 1509.47 2585.89 1507.69 Q2587.81 1505.88 2587.81 1502.78 Q2587.81 1499.65 2585.89 1497.87 Q2583.99 1496.09 2580.64 1496.09 M2575.96 1494.1 Q2572.95 1493.36 2571.26 1491.3 Q2569.6 1489.24 2569.6 1486.27 Q2569.6 1482.13 2572.54 1479.72 Q2575.5 1477.31 2580.64 1477.31 Q2585.8 1477.31 2588.74 1479.72 Q2591.68 1482.13 2591.68 1486.27 Q2591.68 1489.24 2589.99 1491.3 Q2588.32 1493.36 2585.34 1494.1 Q2588.72 1494.88 2590.59 1497.18 Q2592.49 1499.47 2592.49 1502.78 Q2592.49 1507.8 2589.41 1510.49 Q2586.36 1513.17 2580.64 1513.17 Q2574.92 1513.17 2571.84 1510.49 Q2568.79 1507.8 2568.79 1502.78 Q2568.79 1499.47 2570.68 1497.18 Q2572.58 1494.88 2575.96 1494.1 M2574.25 1486.71 Q2574.25 1489.4 2575.92 1490.9 Q2577.61 1492.41 2580.64 1492.41 Q2583.65 1492.41 2585.34 1490.9 Q2587.05 1489.4 2587.05 1486.71 Q2587.05 1484.03 2585.34 1482.52 Q2583.65 1481.02 2580.64 1481.02 Q2577.61 1481.02 2575.92 1482.52 Q2574.25 1484.03 2574.25 1486.71 Z" fill="#000000" fill-rule="nonzero" fill-opacity="1" /><path clip-path="url(#clip530)" d="M3119.91 1508.56 L3127.55 1508.56 L3127.55 1482.2 L3119.24 1483.87 L3119.24 1479.61 L3127.5 1477.94 L3132.18 1477.94 L3132.18 1508.56 L3139.82 1508.56 L3139.82 1512.5 L3119.91 1512.5 L3119.91 1508.56 Z" fill="#000000" fill-rule="nonzero" fill-opacity="1" /><path clip-path="url(#clip530)" d="M3149.26 1506.62 L3154.14 1506.62 L3154.14 1512.5 L3149.26 1512.5 L3149.26 1506.62 Z" fill="#000000" fill-rule="nonzero" fill-opacity="1" /><path clip-path="url(#clip530)" d="M3174.33 1481.02 Q3170.72 1481.02 3168.89 1484.58 Q3167.08 1488.12 3167.08 1495.25 Q3167.08 1502.36 3168.89 1505.93 Q3170.72 1509.47 3174.33 1509.47 Q3177.96 1509.47 3179.77 1505.93 Q3181.6 1502.36 3181.6 1495.25 Q3181.6 1488.12 3179.77 1484.58 Q3177.96 1481.02 3174.33 1481.02 M3174.33 1477.31 Q3180.14 1477.31 3183.2 1481.92 Q3186.27 1486.5 3186.27 1495.25 Q3186.27 1503.98 3183.2 1508.59 Q3180.14 1513.17 3174.33 1513.17 Q3168.52 1513.17 3165.44 1508.59 Q3162.39 1503.98 3162.39 1495.25 Q3162.39 1486.5 3165.44 1481.92 Q3168.52 1477.31 3174.33 1477.31 Z" fill="#000000" fill-rule="nonzero" fill-opacity="1" /><path clip-path="url(#clip530)" d="M1664.87 1554.79 L1664.87 1564.92 L1676.93 1564.92 L1676.93 1569.47 L1664.87 1569.47 L1664.87 1588.82 Q1664.87 1593.18 1666.05 1594.42 Q1667.25 1595.66 1670.92 1595.66 L1676.93 1595.66 L1676.93 1600.56 L1670.92 1600.56 Q1664.14 1600.56 1661.56 1598.05 Q1658.98 1595.5 1658.98 1588.82 L1658.98 1569.47 L1654.68 1569.47 L1654.68 1564.92 L1658.98 1564.92 L1658.98 1554.79 L1664.87 1554.79 Z" fill="#000000" fill-rule="nonzero" fill-opacity="1" /><polyline clip-path="url(#clip530)" style="stroke:#000000; stroke-linecap:round; stroke-linejoin:round; stroke-width:4; stroke-opacity:1; fill:none" points="178.857,1443.7 178.857,47.2441 "/>
<polyline clip-path="url(#clip530)" style="stroke:#000000; stroke-linecap:round; stroke-linejoin:round; stroke-width:4; stroke-opacity:1; fill:none" points="3152.76,1443.7 3152.76,47.2441 "/>
<polyline clip-path="url(#clip530)" style="stroke:#000000; stroke-linecap:round; stroke-linejoin:round; stroke-width:4; stroke-opacity:1; fill:none" points="178.857,1256.85 197.755,1256.85 "/>
<polyline clip-path="url(#clip530)" style="stroke:#000000; stroke-linecap:round; stroke-linejoin:round; stroke-width:4; stroke-opacity:1; fill:none" points="178.857,1001.16 197.755,1001.16 "/>
<polyline clip-path="url(#clip530)" style="stroke:#000000; stroke-linecap:round; stroke-linejoin:round; stroke-width:4; stroke-opacity:1; fill:none" points="178.857,745.472 197.755,745.472 "/>
<polyline clip-path="url(#clip530)" style="stroke:#000000; stroke-linecap:round; stroke-linejoin:round; stroke-width:4; stroke-opacity:1; fill:none" points="178.857,489.785 197.755,489.785 "/>
<polyline clip-path="url(#clip530)" style="stroke:#000000; stroke-linecap:round; stroke-linejoin:round; stroke-width:4; stroke-opacity:1; fill:none" points="178.857,234.097 197.755,234.097 "/>
<polyline clip-path="url(#clip530)" style="stroke:#000000; stroke-linecap:round; stroke-linejoin:round; stroke-width:4; stroke-opacity:1; fill:none" points="3152.76,1256.85 3133.86,1256.85 "/>
<polyline clip-path="url(#clip530)" style="stroke:#000000; stroke-linecap:round; stroke-linejoin:round; stroke-width:4; stroke-opacity:1; fill:none" points="3152.76,1001.16 3133.86,1001.16 "/>
<polyline clip-path="url(#clip530)" style="stroke:#000000; stroke-linecap:round; stroke-linejoin:round; stroke-width:4; stroke-opacity:1; fill:none" points="3152.76,745.472 3133.86,745.472 "/>
<polyline clip-path="url(#clip530)" style="stroke:#000000; stroke-linecap:round; stroke-linejoin:round; stroke-width:4; stroke-opacity:1; fill:none" points="3152.76,489.785 3133.86,489.785 "/>
<polyline clip-path="url(#clip530)" style="stroke:#000000; stroke-linecap:round; stroke-linejoin:round; stroke-width:4; stroke-opacity:1; fill:none" points="3152.76,234.097 3133.86,234.097 "/>
<path clip-path="url(#clip530)" d="M78.8901 1273.41 L78.8901 1269.15 Q80.6494 1269.98 82.4549 1270.42 Q84.2604 1270.86 85.9965 1270.86 Q90.6262 1270.86 93.0567 1267.76 Q95.5104 1264.64 95.8576 1258.29 Q94.515 1260.28 92.4548 1261.35 Q90.3947 1262.41 87.8947 1262.41 Q82.7095 1262.41 79.6771 1259.29 Q76.6679 1256.14 76.6679 1250.7 Q76.6679 1245.38 79.816 1242.16 Q82.9642 1238.94 88.1956 1238.94 Q94.1909 1238.94 97.3391 1243.55 Q100.51 1248.13 100.51 1256.88 Q100.51 1265.05 96.6215 1269.94 Q92.7558 1274.8 86.2049 1274.8 Q84.4456 1274.8 82.6401 1274.45 Q80.8345 1274.1 78.8901 1273.41 M88.1956 1258.76 Q91.3437 1258.76 93.1724 1256.6 Q95.0243 1254.45 95.0243 1250.7 Q95.0243 1246.97 93.1724 1244.82 Q91.3437 1242.65 88.1956 1242.65 Q85.0475 1242.65 83.1956 1244.82 Q81.3669 1246.97 81.3669 1250.7 Q81.3669 1254.45 83.1956 1256.6 Q85.0475 1258.76 88.1956 1258.76 Z" fill="#000000" fill-rule="nonzero" fill-opacity="1" /><path clip-path="url(#clip530)" d="M118.913 1242.65 Q115.302 1242.65 113.473 1246.21 Q111.668 1249.75 111.668 1256.88 Q111.668 1263.99 113.473 1267.55 Q115.302 1271.09 118.913 1271.09 Q122.547 1271.09 124.353 1267.55 Q126.182 1263.99 126.182 1256.88 Q126.182 1249.75 124.353 1246.21 Q122.547 1242.65 118.913 1242.65 M118.913 1238.94 Q124.723 1238.94 127.779 1243.55 Q130.857 1248.13 130.857 1256.88 Q130.857 1265.61 127.779 1270.21 Q124.723 1274.8 118.913 1274.8 Q113.103 1274.8 110.024 1270.21 Q106.969 1265.61 106.969 1256.88 Q106.969 1248.13 110.024 1243.55 Q113.103 1238.94 118.913 1238.94 Z" fill="#000000" fill-rule="nonzero" fill-opacity="1" /><path clip-path="url(#clip530)" d="M49.3995 1014.5 L57.0384 1014.5 L57.0384 988.139 L48.7282 989.805 L48.7282 985.546 L56.9921 983.879 L61.668 983.879 L61.668 1014.5 L69.3068 1014.5 L69.3068 1018.44 L49.3995 1018.44 L49.3995 1014.5 Z" fill="#000000" fill-rule="nonzero" fill-opacity="1" /><path clip-path="url(#clip530)" d="M82.779 1014.5 L99.0983 1014.5 L99.0983 1018.44 L77.154 1018.44 L77.154 1014.5 Q79.816 1011.75 84.3993 1007.12 Q89.0058 1002.47 90.1863 1001.12 Q92.4317 998.601 93.3113 996.865 Q94.2141 995.106 94.2141 993.416 Q94.2141 990.662 92.2697 988.926 Q90.3484 987.189 87.2465 987.189 Q85.0475 987.189 82.5938 987.953 Q80.1632 988.717 77.3855 990.268 L77.3855 985.546 Q80.2095 984.412 82.6632 983.833 Q85.1169 983.254 87.1539 983.254 Q92.5243 983.254 95.7187 985.939 Q98.9131 988.625 98.9131 993.115 Q98.9131 995.245 98.103 997.166 Q97.3159 999.064 95.2095 1001.66 Q94.6308 1002.33 91.5289 1005.55 Q88.4271 1008.74 82.779 1014.5 Z" fill="#000000" fill-rule="nonzero" fill-opacity="1" /><path clip-path="url(#clip530)" d="M118.913 986.958 Q115.302 986.958 113.473 990.523 Q111.668 994.064 111.668 1001.19 Q111.668 1008.3 113.473 1011.87 Q115.302 1015.41 118.913 1015.41 Q122.547 1015.41 124.353 1011.87 Q126.182 1008.3 126.182 1001.19 Q126.182 994.064 124.353 990.523 Q122.547 986.958 118.913 986.958 M118.913 983.254 Q124.723 983.254 127.779 987.861 Q130.857 992.444 130.857 1001.19 Q130.857 1009.92 127.779 1014.53 Q124.723 1019.11 118.913 1019.11 Q113.103 1019.11 110.024 1014.53 Q106.969 1009.92 106.969 1001.19 Q106.969 992.444 110.024 987.861 Q113.103 983.254 118.913 983.254 Z" fill="#000000" fill-rule="nonzero" fill-opacity="1" /><path clip-path="url(#clip530)" d="M49.3995 758.817 L57.0384 758.817 L57.0384 732.451 L48.7282 734.118 L48.7282 729.859 L56.9921 728.192 L61.668 728.192 L61.668 758.817 L69.3068 758.817 L69.3068 762.752 L49.3995 762.752 L49.3995 758.817 Z" fill="#000000" fill-rule="nonzero" fill-opacity="1" /><path clip-path="url(#clip530)" d="M78.7975 728.192 L97.1539 728.192 L97.1539 732.127 L83.0799 732.127 L83.0799 740.599 Q84.0984 740.252 85.1169 740.09 Q86.1354 739.905 87.1539 739.905 Q92.941 739.905 96.3206 743.076 Q99.7002 746.247 99.7002 751.664 Q99.7002 757.243 96.228 760.345 Q92.7558 763.423 86.4364 763.423 Q84.2604 763.423 81.9919 763.053 Q79.7466 762.683 77.3392 761.942 L77.3392 757.243 Q79.4225 758.377 81.6447 758.933 Q83.8669 759.488 86.3438 759.488 Q90.3484 759.488 92.6863 757.382 Q95.0243 755.275 95.0243 751.664 Q95.0243 748.053 92.6863 745.947 Q90.3484 743.84 86.3438 743.84 Q84.4688 743.84 82.5938 744.257 Q80.7419 744.673 78.7975 745.553 L78.7975 728.192 Z" fill="#000000" fill-rule="nonzero" fill-opacity="1" /><path clip-path="url(#clip530)" d="M118.913 731.271 Q115.302 731.271 113.473 734.835 Q111.668 738.377 111.668 745.507 Q111.668 752.613 113.473 756.178 Q115.302 759.72 118.913 759.72 Q122.547 759.72 124.353 756.178 Q126.182 752.613 126.182 745.507 Q126.182 738.377 124.353 734.835 Q122.547 731.271 118.913 731.271 M118.913 727.567 Q124.723 727.567 127.779 732.173 Q130.857 736.757 130.857 745.507 Q130.857 754.233 127.779 758.84 Q124.723 763.423 118.913 763.423 Q113.103 763.423 110.024 758.84 Q106.969 754.233 106.969 745.507 Q106.969 736.757 110.024 732.173 Q113.103 727.567 118.913 727.567 Z" fill="#000000" fill-rule="nonzero" fill-opacity="1" /><path clip-path="url(#clip530)" d="M49.3995 503.129 L57.0384 503.129 L57.0384 476.764 L48.7282 478.431 L48.7282 474.171 L56.9921 472.505 L61.668 472.505 L61.668 503.129 L69.3068 503.129 L69.3068 507.065 L49.3995 507.065 L49.3995 503.129 Z" fill="#000000" fill-rule="nonzero" fill-opacity="1" /><path clip-path="url(#clip530)" d="M88.7512 490.653 Q85.4178 490.653 83.4966 492.435 Q81.5984 494.218 81.5984 497.342 Q81.5984 500.467 83.4966 502.25 Q85.4178 504.032 88.7512 504.032 Q92.0845 504.032 94.0058 502.25 Q95.927 500.444 95.927 497.342 Q95.927 494.218 94.0058 492.435 Q92.1076 490.653 88.7512 490.653 M84.0753 488.662 Q81.066 487.921 79.3762 485.861 Q77.7096 483.801 77.7096 480.838 Q77.7096 476.694 80.6494 474.287 Q83.6123 471.88 88.7512 471.88 Q93.9132 471.88 96.853 474.287 Q99.7928 476.694 99.7928 480.838 Q99.7928 483.801 98.103 485.861 Q96.4363 487.921 93.4502 488.662 Q96.8298 489.449 98.7048 491.741 Q100.603 494.032 100.603 497.342 Q100.603 502.366 97.5243 505.051 Q94.4687 507.736 88.7512 507.736 Q83.0336 507.736 79.9549 505.051 Q76.8994 502.366 76.8994 497.342 Q76.8994 494.032 78.7975 491.741 Q80.6956 489.449 84.0753 488.662 M82.3623 481.278 Q82.3623 483.963 84.029 485.468 Q85.7188 486.972 88.7512 486.972 Q91.7604 486.972 93.4502 485.468 Q95.1632 483.963 95.1632 481.278 Q95.1632 478.593 93.4502 477.088 Q91.7604 475.583 88.7512 475.583 Q85.7188 475.583 84.029 477.088 Q82.3623 478.593 82.3623 481.278 Z" fill="#000000" fill-rule="nonzero" fill-opacity="1" /><path clip-path="url(#clip530)" d="M118.913 475.583 Q115.302 475.583 113.473 479.148 Q111.668 482.69 111.668 489.819 Q111.668 496.926 113.473 500.491 Q115.302 504.032 118.913 504.032 Q122.547 504.032 124.353 500.491 Q126.182 496.926 126.182 489.819 Q126.182 482.69 124.353 479.148 Q122.547 475.583 118.913 475.583 M118.913 471.88 Q124.723 471.88 127.779 476.486 Q130.857 481.069 130.857 489.819 Q130.857 498.546 127.779 503.153 Q124.723 507.736 118.913 507.736 Q113.103 507.736 110.024 503.153 Q106.969 498.546 106.969 489.819 Q106.969 481.069 110.024 476.486 Q113.103 471.88 118.913 471.88 Z" fill="#000000" fill-rule="nonzero" fill-opacity="1" /><path clip-path="url(#clip530)" d="M52.6171 247.442 L68.9365 247.442 L68.9365 251.377 L46.9921 251.377 L46.9921 247.442 Q49.6541 244.688 54.2375 240.058 Q58.8439 235.405 60.0245 234.063 Q62.2698 231.539 63.1494 229.803 Q64.0522 228.044 64.0522 226.354 Q64.0522 223.6 62.1078 221.864 Q60.1865 220.128 57.0847 220.128 Q54.8856 220.128 52.4319 220.891 Q50.0014 221.655 47.2236 223.206 L47.2236 218.484 Q50.0477 217.35 52.5014 216.771 Q54.955 216.192 56.9921 216.192 Q62.3624 216.192 65.5568 218.878 Q68.7513 221.563 68.7513 226.053 Q68.7513 228.183 67.9411 230.104 Q67.1541 232.002 65.0476 234.595 Q64.4689 235.266 61.367 238.484 Q58.2652 241.678 52.6171 247.442 Z" fill="#000000" fill-rule="nonzero" fill-opacity="1" /><path clip-path="url(#clip530)" d="M79.5614 247.442 L87.2002 247.442 L87.2002 221.077 L78.8901 222.743 L78.8901 218.484 L87.1539 216.817 L91.8298 216.817 L91.8298 247.442 L99.4687 247.442 L99.4687 251.377 L79.5614 251.377 L79.5614 247.442 Z" fill="#000000" fill-rule="nonzero" fill-opacity="1" /><path clip-path="url(#clip530)" d="M118.913 219.896 Q115.302 219.896 113.473 223.461 Q111.668 227.002 111.668 234.132 Q111.668 241.239 113.473 244.803 Q115.302 248.345 118.913 248.345 Q122.547 248.345 124.353 244.803 Q126.182 241.239 126.182 234.132 Q126.182 227.002 124.353 223.461 Q122.547 219.896 118.913 219.896 M118.913 216.192 Q124.723 216.192 127.779 220.799 Q130.857 225.382 130.857 234.132 Q130.857 242.859 127.779 247.465 Q124.723 252.049 118.913 252.049 Q113.103 252.049 110.024 247.465 Q106.969 242.859 106.969 234.132 Q106.969 225.382 110.024 220.799 Q113.103 216.192 118.913 216.192 Z" fill="#000000" fill-rule="nonzero" fill-opacity="1" /><polyline clip-path="url(#clip531)" style="stroke:#009af9; stroke-linecap:round; stroke-linejoin:round; stroke-width:8; stroke-opacity:1; fill:none" points="178.857,1171.62 178.858,1171.73 178.858,1171.68 178.859,1171.59 178.859,1171.42 178.86,1171.29 178.861,1171.43 178.861,1171.51 178.862,1171.57 178.863,1171.74 178.864,1171.86 178.865,1172.1 178.867,1171.92 178.868,1171.88 178.87,1171.8 178.872,1171.38 178.874,1171.48 178.877,1171.18 178.879,1171.15 178.883,1171.26 178.886,1171.78 178.89,1171.57 178.895,1172.19 178.9,1171.67 178.905,1171.98 178.912,1171.78 178.919,1172.07 178.927,1171.98 178.936,1173.66 178.946,1174.49 178.958,1175.37 178.97,1174.93 178.985,1173.79 179.001,1173.92 179.02,1174.56 179.04,1172.83 179.063,1171.73 179.09,1172.27 179.119,1173.64 179.152,1173.93 179.189,1172.75 179.231,1172.32 179.278,1172 179.331,1172.53 179.391,1172.31 179.458,1173.18 179.533,1171.49 179.618,1169.97 179.714,1169.27 179.821,1167.38 179.942,1168.14 180.078,1168.32 180.231,1169.55 180.403,1170.89 180.596,1166.1 180.814,1168.81 181.059,1168.11 181.335,1168.87 181.645,1165.65 181.993,1164.13 182.386,1162.98 182.827,1170.27 183.324,1173.86 183.883,1170.29 184.511,1162.04 185.218,1160.33 186.014,1164.55 186.909,1173.55 187.915,1169.79 189.048,1168.6 190.322,1165.73 191.756,1163.26 193.368,1166.8 195.183,1168.78 197.224,1179.91 199.52,1164.36 202.103,1157.65 205.009,1143.8 208.278,1141.5 211.956,1147.84 216.094,1143.16 220.749,1155.99 225.986,1135.49 231.877,1118.91 238.505,1102.95 245.962,1096.81 254.35,1079.09 263.787,1063.16 274.403,1065.84 286.347,1067.47 299.784,1058.78 314.9,1057.74 331.905,1059.58 351.037,1018.96 372.56,960.335 396.773,913.98 424.013,891.186 454.657,877.908 489.133,849.536 527.917,789.766 571.55,708.137 620.637,651.261 675.86,577.482 737.986,513.242 807.877,545.552 886.505,508.063 974.961,497.241 1074.47,407.087 1171.83,327.104 1281.35,216.673 1404.56,208.771 1543.17,157.945 1699.1,132.102 1874.53,156.532 2003.27,253.811 2148.1,203.09 2202.65,205.85 2264.02,249.396 2333.06,226.768 2383.23,222.012 2439.67,192.295 2503.16,170.537 2574.59,204.159 2654.95,198.82 2745.35,111.522 2803.59,117.69 2869.12,112.187 2942.83,134.244 3025.76,86.7664 3119.06,178.437 3152.76,231.294 "/>
<polyline clip-path="url(#clip531)" style="stroke:#e26f46; stroke-linecap:round; stroke-linejoin:round; stroke-width:8; stroke-opacity:1; fill:none" points="178.857,319.326 178.858,319.215 178.858,319.267 178.859,319.351 178.859,319.525 178.86,319.649 178.861,319.518 178.861,319.435 178.862,319.375 178.863,319.206 178.864,319.084 178.865,318.84 178.867,319.019 178.868,319.066 178.87,319.147 178.872,319.559 178.874,319.467 178.877,319.766 178.879,319.794 178.883,319.684 178.886,319.166 178.89,319.378 178.895,318.752 178.9,319.272 178.905,318.96 178.912,319.169 178.919,318.87 178.927,318.962 178.936,317.288 178.946,316.452 178.958,315.57 178.97,316.012 178.985,317.151 179.001,317.025 179.02,316.387 179.04,318.112 179.063,319.216 179.09,318.671 179.119,317.303 179.152,317.011 179.189,318.194 179.231,318.628 179.278,318.942 179.331,318.418 179.391,318.633 179.458,317.763 179.533,319.453 179.618,320.979 179.714,321.675 179.821,323.565 179.942,322.802 180.078,322.626 180.231,321.392 180.403,320.056 180.596,324.839 180.814,322.137 181.059,322.838 181.335,322.077 181.645,325.297 181.993,326.816 182.386,327.964 182.827,320.678 183.324,317.08 183.883,320.652 184.511,328.906 185.218,330.616 186.014,326.393 186.909,317.393 187.915,321.158 189.048,322.345 190.322,325.21 191.756,327.682 193.368,324.146 195.183,322.167 197.224,311.031 199.52,326.586 202.103,333.294 205.009,347.147 208.278,349.442 211.956,343.109 216.094,347.779 220.749,334.952 225.986,355.451 231.877,372.036 238.505,387.992 245.962,394.139 254.35,411.855 263.787,427.788 274.403,425.104 286.347,423.469 299.784,432.162 314.9,433.201 331.905,431.368 351.037,471.987 372.56,530.609 396.773,576.964 424.013,599.758 454.657,613.036 489.133,641.408 527.917,701.178 571.55,782.807 620.637,839.683 675.86,913.461 737.986,977.702 807.877,945.392 886.505,982.881 974.961,993.703 1074.47,1083.86 1171.83,1163.84 1281.35,1274.27 1404.56,1282.17 1543.17,1333 1699.1,1358.84 1874.53,1334.41 2003.27,1237.13 2148.1,1287.85 2202.65,1285.09 2264.02,1241.55 2333.06,1264.18 2383.23,1268.93 2439.67,1298.65 2503.16,1320.41 2574.59,1286.78 2654.95,1292.12 2745.35,1379.42 2803.59,1373.25 2869.12,1378.76 2942.83,1356.7 3025.76,1404.18 3119.06,1312.51 3152.76,1259.65 "/>
<path clip-path="url(#clip530)" d="M2699.38 249.313 L3053.63 249.313 L3053.63 93.7926 L2699.38 93.7926  Z" fill="#ffffff" fill-rule="evenodd" fill-opacity="1"/>
<polyline clip-path="url(#clip530)" style="stroke:#000000; stroke-linecap:round; stroke-linejoin:round; stroke-width:4; stroke-opacity:1; fill:none" points="2699.38,249.313 3053.63,249.313 3053.63,93.7926 2699.38,93.7926 2699.38,249.313 "/>
<polyline clip-path="url(#clip530)" style="stroke:#009af9; stroke-linecap:round; stroke-linejoin:round; stroke-width:8; stroke-opacity:1; fill:none" points="2732.43,145.633 2930.69,145.633 "/>
<path clip-path="url(#clip530)" d="M2965.31 128.353 L2970.33 128.353 L2978.92 141.2 L2987.55 128.353 L2992.57 128.353 L2981.46 144.95 L2993.31 162.913 L2988.29 162.913 L2978.57 148.214 L2968.78 162.913 L2963.73 162.913 L2976.07 144.464 L2965.31 128.353 Z" fill="#000000" fill-rule="nonzero" fill-opacity="1" /><path clip-path="url(#clip530)" d="M3000.68 158.977 L3008.31 158.977 L3008.31 132.612 L3000 134.279 L3000 130.019 L3008.27 128.353 L3012.94 128.353 L3012.94 158.977 L3020.58 158.977 L3020.58 162.913 L3000.68 162.913 L3000.68 158.977 Z" fill="#000000" fill-rule="nonzero" fill-opacity="1" /><polyline clip-path="url(#clip530)" style="stroke:#e26f46; stroke-linecap:round; stroke-linejoin:round; stroke-width:8; stroke-opacity:1; fill:none" points="2732.43,197.473 2930.69,197.473 "/>
<path clip-path="url(#clip530)" d="M2965.31 180.193 L2970.33 180.193 L2978.92 193.04 L2987.55 180.193 L2992.57 180.193 L2981.46 196.79 L2993.31 214.753 L2988.29 214.753 L2978.57 200.054 L2968.78 214.753 L2963.73 214.753 L2976.07 196.304 L2965.31 180.193 Z" fill="#000000" fill-rule="nonzero" fill-opacity="1" /><path clip-path="url(#clip530)" d="M3003.89 210.817 L3020.21 210.817 L3020.21 214.753 L2998.27 214.753 L2998.27 210.817 Q3000.93 208.063 3005.51 203.433 Q3010.12 198.78 3011.3 197.438 Q3013.55 194.915 3014.43 193.179 Q3015.33 191.419 3015.33 189.73 Q3015.33 186.975 3013.38 185.239 Q3011.46 183.503 3008.36 183.503 Q3006.16 183.503 3003.71 184.267 Q3001.28 185.031 2998.5 186.581 L2998.5 181.859 Q3001.32 180.725 3003.78 180.146 Q3006.23 179.568 3008.27 179.568 Q3013.64 179.568 3016.83 182.253 Q3020.03 184.938 3020.03 189.429 Q3020.03 191.558 3019.22 193.48 Q3018.43 195.378 3016.32 197.97 Q3015.74 198.642 3012.64 201.859 Q3009.54 205.054 3003.89 210.817 Z" fill="#000000" fill-rule="nonzero" fill-opacity="1" /></svg>
