<?xml version="1.0" encoding="utf-8"?>
<svg xmlns="http://www.w3.org/2000/svg" xmlns:xlink="http://www.w3.org/1999/xlink" width="800" height="400" viewBox="0 0 3200 1600">
<defs>
  <clipPath id="clip840">
    <rect x="0" y="0" width="3200" height="1600"/>
  </clipPath>
</defs>
<path clip-path="url(#clip840)" d="M0 1600 L3200 1600 L3200 0 L0 0  Z" fill="#ffffff" fill-rule="evenodd" fill-opacity="1"/>
<defs>
  <clipPath id="clip841">
    <rect x="207" y="47" width="2946" height="1397"/>
  </clipPath>
</defs>
<path clip-path="url(#clip840)" d="M207.283 1443.7 L3152.76 1443.7 L3152.76 47.2441 L207.283 47.2441  Z" fill="#ffffff" fill-rule="evenodd" fill-opacity="1"/>
<polyline clip-path="url(#clip841)" style="stroke:#000000; stroke-linecap:round; stroke-linejoin:round; stroke-width:2; stroke-opacity:0.1; fill:none" points="207.283,1443.7 207.283,47.2441 "/>
<polyline clip-path="url(#clip841)" style="stroke:#000000; stroke-linecap:round; stroke-linejoin:round; stroke-width:2; stroke-opacity:0.1; fill:none" points="796.378,1443.7 796.378,47.2441 "/>
<polyline clip-path="url(#clip841)" style="stroke:#000000; stroke-linecap:round; stroke-linejoin:round; stroke-width:2; stroke-opacity:0.1; fill:none" points="1385.47,1443.7 1385.47,47.2441 "/>
<polyline clip-path="url(#clip841)" style="stroke:#000000; stroke-linecap:round; stroke-linejoin:round; stroke-width:2; stroke-opacity:0.1; fill:none" points="1974.57,1443.7 1974.57,47.2441 "/>
<polyline clip-path="url(#clip841)" style="stroke:#000000; stroke-linecap:round; stroke-linejoin:round; stroke-width:2; stroke-opacity:0.1; fill:none" points="2563.66,1443.7 2563.66,47.2441 "/>
<polyline clip-path="url(#clip841)" style="stroke:#000000; stroke-linecap:round; stroke-linejoin:round; stroke-width:2; stroke-opacity:0.1; fill:none" points="3152.76,1443.7 3152.76,47.2441 "/>
<polyline clip-path="url(#clip841)" style="stroke:#000000; stroke-linecap:round; stroke-linejoin:round; stroke-width:2; stroke-opacity:0.1; fill:none" points="207.283,1443.7 207.283,47.2441 "/>
<polyline clip-path="url(#clip841)" style="stroke:#000000; stroke-linecap:round; stroke-linejoin:round; stroke-width:2; stroke-opacity:0.1; fill:none" points="796.378,1443.7 796.378,47.2441 "/>
<polyline clip-path="url(#clip841)" style="stroke:#000000; stroke-linecap:round; stroke-linejoin:round; stroke-width:2; stroke-opacity:0.1; fill:none" points="1385.47,1443.7 1385.47,47.2441 "/>
<polyline clip-path="url(#clip841)" style="stroke:#000000; stroke-linecap:round; stroke-linejoin:round; stroke-width:2; stroke-opacity:0.1; fill:none" points="1974.57,1443.7 1974.57,47.2441 "/>
<polyline clip-path="url(#clip841)" style="stroke:#000000; stroke-linecap:round; stroke-linejoin:round; stroke-width:2; stroke-opacity:0.1; fill:none" points="2563.66,1443.7 2563.66,47.2441 "/>
<polyline clip-path="url(#clip841)" style="stroke:#000000; stroke-linecap:round; stroke-linejoin:round; stroke-width:2; stroke-opacity:0.1; fill:none" points="3152.76,1443.7 3152.76,47.2441 "/>
<polyline clip-path="url(#clip841)" style="stroke:#000000; stroke-linecap:round; stroke-linejoin:round; stroke-width:2; stroke-opacity:0.1; fill:none" points="207.283,1404.18 3152.76,1404.18 "/>
<polyline clip-path="url(#clip841)" style="stroke:#000000; stroke-linecap:round; stroke-linejoin:round; stroke-width:2; stroke-opacity:0.1; fill:none" points="207.283,1074.5 3152.76,1074.5 "/>
<polyline clip-path="url(#clip841)" style="stroke:#000000; stroke-linecap:round; stroke-linejoin:round; stroke-width:2; stroke-opacity:0.1; fill:none" points="207.283,744.813 3152.76,744.813 "/>
<polyline clip-path="url(#clip841)" style="stroke:#000000; stroke-linecap:round; stroke-linejoin:round; stroke-width:2; stroke-opacity:0.1; fill:none" points="207.283,415.13 3152.76,415.13 "/>
<polyline clip-path="url(#clip841)" style="stroke:#000000; stroke-linecap:round; stroke-linejoin:round; stroke-width:2; stroke-opacity:0.1; fill:none" points="207.283,85.4477 3152.76,85.4477 "/>
<polyline clip-path="url(#clip841)" style="stroke:#000000; stroke-linecap:round; stroke-linejoin:round; stroke-width:2; stroke-opacity:0.1; fill:none" points="207.283,1404.18 3152.76,1404.18 "/>
<polyline clip-path="url(#clip841)" style="stroke:#000000; stroke-linecap:round; stroke-linejoin:round; stroke-width:2; stroke-opacity:0.1; fill:none" points="207.283,1074.5 3152.76,1074.5 "/>
<polyline clip-path="url(#clip841)" style="stroke:#000000; stroke-linecap:round; stroke-linejoin:round; stroke-width:2; stroke-opacity:0.1; fill:none" points="207.283,744.813 3152.76,744.813 "/>
<polyline clip-path="url(#clip841)" style="stroke:#000000; stroke-linecap:round; stroke-linejoin:round; stroke-width:2; stroke-opacity:0.1; fill:none" points="207.283,415.13 3152.76,415.13 "/>
<polyline clip-path="url(#clip841)" style="stroke:#000000; stroke-linecap:round; stroke-linejoin:round; stroke-width:2; stroke-opacity:0.1; fill:none" points="207.283,85.4477 3152.76,85.4477 "/>
<polyline clip-path="url(#clip840)" style="stroke:#000000; stroke-linecap:round; stroke-linejoin:round; stroke-width:4; stroke-opacity:1; fill:none" points="207.283,1443.7 3152.76,1443.7 "/>
<polyline clip-path="url(#clip840)" style="stroke:#000000; stroke-linecap:round; stroke-linejoin:round; stroke-width:4; stroke-opacity:1; fill:none" points="207.283,47.2441 3152.76,47.2441 "/>
<polyline clip-path="url(#clip840)" style="stroke:#000000; stroke-linecap:round; stroke-linejoin:round; stroke-width:4; stroke-opacity:1; fill:none" points="207.283,1443.7 207.283,1424.8 "/>
<polyline clip-path="url(#clip840)" style="stroke:#000000; stroke-linecap:round; stroke-linejoin:round; stroke-width:4; stroke-opacity:1; fill:none" points="796.378,1443.7 796.378,1424.8 "/>
<polyline clip-path="url(#clip840)" style="stroke:#000000; stroke-linecap:round; stroke-linejoin:round; stroke-width:4; stroke-opacity:1; fill:none" points="1385.47,1443.7 1385.47,1424.8 "/>
<polyline clip-path="url(#clip840)" style="stroke:#000000; stroke-linecap:round; stroke-linejoin:round; stroke-width:4; stroke-opacity:1; fill:none" points="1974.57,1443.7 1974.57,1424.8 "/>
<polyline clip-path="url(#clip840)" style="stroke:#000000; stroke-linecap:round; stroke-linejoin:round; stroke-width:4; stroke-opacity:1; fill:none" points="2563.66,1443.7 2563.66,1424.8 "/>
<polyline clip-path="url(#clip840)" style="stroke:#000000; stroke-linecap:round; stroke-linejoin:round; stroke-width:4; stroke-opacity:1; fill:none" points="3152.76,1443.7 3152.76,1424.8 "/>
<polyline clip-path="url(#clip840)" style="stroke:#000000; stroke-linecap:round; stroke-linejoin:round; stroke-width:4; stroke-opacity:1; fill:none" points="207.283,47.2441 207.283,66.1417 "/>
<polyline clip-path="url(#clip840)" style="stroke:#000000; stroke-linecap:round; stroke-linejoin:round; stroke-width:4; stroke-opacity:1; fill:none" points="796.378,47.2441 796.378,66.1417 "/>
<polyline clip-path="url(#clip840)" style="stroke:#000000; stroke-linecap:round; stroke-linejoin:round; stroke-width:4; stroke-opacity:1; fill:none" points="1385.47,47.2441 1385.47,66.1417 "/>
<polyline clip-path="url(#clip840)" style="stroke:#000000; stroke-linecap:round; stroke-linejoin:round; stroke-width:4; stroke-opacity:1; fill:none" points="1974.57,47.2441 1974.57,66.1417 "/>
<polyline clip-path="url(#clip840)" style="stroke:#000000; stroke-linecap:round; stroke-linejoin:round; stroke-width:4; stroke-opacity:1; fill:none" points="2563.66,47.2441 2563.66,66.1417 "/>
<polyline clip-path="url(#clip840)" style="stroke:#000000; stroke-linecap:round; stroke-linejoin:round; stroke-width:4; stroke-opacity:1; fill:none" points="3152.76,47.2441 3152.76,66.1417 "/>
<path clip-path="url(#clip840)" d="M207.283 1481.02 Q203.672 1481.02 201.843 1484.58 Q200.038 1488.12 200.038 1495.25 Q200.038 1502.36 201.843 1505.93 Q203.672 1509.47 207.283 1509.47 Q210.917 1509.47 212.723 1505.93 Q214.552 1502.36 214.552 1495.25 Q214.552 1488.12 212.723 1484.58 Q210.917 1481.02 207.283 1481.02 M207.283 1477.31 Q213.093 1477.31 216.149 1481.92 Q219.228 1486.5 219.228 1495.25 Q219.228 1503.98 216.149 1508.59 Q213.093 1513.17 207.283 1513.17 Q201.473 1513.17 198.394 1508.59 Q195.339 1503.98 195.339 1495.25 Q195.339 1486.5 198.394 1481.92 Q201.473 1477.31 207.283 1477.31 Z" fill="#000000" fill-rule="nonzero" fill-opacity="1" /><path clip-path="url(#clip840)" d="M775.151 1508.56 L791.47 1508.56 L791.47 1512.5 L769.526 1512.5 L769.526 1508.56 Q772.188 1505.81 776.771 1501.18 Q781.378 1496.53 782.558 1495.19 Q784.804 1492.66 785.683 1490.93 Q786.586 1489.17 786.586 1487.48 Q786.586 1484.72 784.642 1482.99 Q782.72 1481.25 779.619 1481.25 Q777.42 1481.25 774.966 1482.01 Q772.535 1482.78 769.758 1484.33 L769.758 1479.61 Q772.582 1478.47 775.035 1477.89 Q777.489 1477.31 779.526 1477.31 Q784.896 1477.31 788.091 1480 Q791.285 1482.69 791.285 1487.18 Q791.285 1489.31 790.475 1491.23 Q789.688 1493.12 787.581 1495.72 Q787.003 1496.39 783.901 1499.61 Q780.799 1502.8 775.151 1508.56 Z" fill="#000000" fill-rule="nonzero" fill-opacity="1" /><path clip-path="url(#clip840)" d="M811.285 1481.02 Q807.674 1481.02 805.845 1484.58 Q804.04 1488.12 804.04 1495.25 Q804.04 1502.36 805.845 1505.93 Q807.674 1509.47 811.285 1509.47 Q814.919 1509.47 816.725 1505.93 Q818.554 1502.36 818.554 1495.25 Q818.554 1488.12 816.725 1484.58 Q814.919 1481.02 811.285 1481.02 M811.285 1477.31 Q817.095 1477.31 820.151 1481.92 Q823.229 1486.5 823.229 1495.25 Q823.229 1503.98 820.151 1508.59 Q817.095 1513.17 811.285 1513.17 Q805.475 1513.17 802.396 1508.59 Q799.341 1503.98 799.341 1495.25 Q799.341 1486.5 802.396 1481.92 Q805.475 1477.31 811.285 1477.31 Z" fill="#000000" fill-rule="nonzero" fill-opacity="1" /><path clip-path="url(#clip840)" d="M1373.64 1482.01 L1361.84 1500.46 L1373.64 1500.46 L1373.64 1482.01 M1372.42 1477.94 L1378.3 1477.94 L1378.3 1500.46 L1383.23 1500.46 L1383.23 1504.35 L1378.3 1504.35 L1378.3 1512.5 L1373.64 1512.5 L1373.64 1504.35 L1358.04 1504.35 L1358.04 1499.84 L1372.42 1477.94 Z" fill="#000000" fill-rule="nonzero" fill-opacity="1" /><path clip-path="url(#clip840)" d="M1400.96 1481.02 Q1397.35 1481.02 1395.52 1484.58 Q1393.71 1488.12 1393.71 1495.25 Q1393.71 1502.36 1395.52 1505.93 Q1397.35 1509.47 1400.96 1509.47 Q1404.59 1509.47 1406.4 1505.93 Q1408.23 1502.36 1408.23 1495.25 Q1408.23 1488.12 1406.4 1484.58 Q1404.59 1481.02 1400.96 1481.02 M1400.96 1477.31 Q1406.77 1477.31 1409.82 1481.92 Q1412.9 1486.5 1412.9 1495.25 Q1412.9 1503.98 1409.82 1508.59 Q1406.77 1513.17 1400.96 1513.17 Q1395.15 1513.17 1392.07 1508.59 Q1389.01 1503.98 1389.01 1495.25 Q1389.01 1486.5 1392.07 1481.92 Q1395.15 1477.31 1400.96 1477.31 Z" fill="#000000" fill-rule="nonzero" fill-opacity="1" /><path clip-path="url(#clip840)" d="M1959.97 1493.36 Q1956.82 1493.36 1954.97 1495.51 Q1953.14 1497.66 1953.14 1501.41 Q1953.14 1505.14 1954.97 1507.31 Q1956.82 1509.47 1959.97 1509.47 Q1963.12 1509.47 1964.95 1507.31 Q1966.8 1505.14 1966.8 1501.41 Q1966.8 1497.66 1964.95 1495.51 Q1963.12 1493.36 1959.97 1493.36 M1969.25 1478.7 L1969.25 1482.96 Q1967.5 1482.13 1965.69 1481.69 Q1963.91 1481.25 1962.15 1481.25 Q1957.52 1481.25 1955.06 1484.37 Q1952.63 1487.5 1952.29 1493.82 Q1953.65 1491.81 1955.71 1490.74 Q1957.77 1489.65 1960.25 1489.65 Q1965.46 1489.65 1968.47 1492.82 Q1971.5 1495.97 1971.5 1501.41 Q1971.5 1506.74 1968.35 1509.95 Q1965.2 1513.17 1959.97 1513.17 Q1953.98 1513.17 1950.81 1508.59 Q1947.63 1503.98 1947.63 1495.25 Q1947.63 1487.06 1951.52 1482.2 Q1955.41 1477.31 1961.96 1477.31 Q1963.72 1477.31 1965.5 1477.66 Q1967.31 1478.01 1969.25 1478.7 Z" fill="#000000" fill-rule="nonzero" fill-opacity="1" /><path clip-path="url(#clip840)" d="M1989.56 1481.02 Q1985.94 1481.02 1984.12 1484.58 Q1982.31 1488.12 1982.31 1495.25 Q1982.31 1502.36 1984.12 1505.93 Q1985.94 1509.47 1989.56 1509.47 Q1993.19 1509.47 1994.99 1505.93 Q1996.82 1502.36 1996.82 1495.25 Q1996.82 1488.12 1994.99 1484.58 Q1993.19 1481.02 1989.56 1481.02 M1989.56 1477.31 Q1995.37 1477.31 1998.42 1481.92 Q2001.5 1486.5 2001.5 1495.25 Q2001.5 1503.98 1998.42 1508.59 Q1995.37 1513.17 1989.56 1513.17 Q1983.75 1513.17 1980.67 1508.59 Q1977.61 1503.98 1977.61 1495.25 Q1977.61 1486.5 1980.67 1481.92 Q1983.75 1477.31 1989.56 1477.31 Z" fill="#000000" fill-rule="nonzero" fill-opacity="1" /><path clip-path="url(#clip840)" d="M2548.53 1496.09 Q2545.2 1496.09 2543.28 1497.87 Q2541.38 1499.65 2541.38 1502.78 Q2541.38 1505.9 2543.28 1507.69 Q2545.2 1509.47 2548.53 1509.47 Q2551.87 1509.47 2553.79 1507.69 Q2555.71 1505.88 2555.71 1502.78 Q2555.71 1499.65 2553.79 1497.87 Q2551.89 1496.09 2548.53 1496.09 M2543.86 1494.1 Q2540.85 1493.36 2539.16 1491.3 Q2537.49 1489.24 2537.49 1486.27 Q2537.49 1482.13 2540.43 1479.72 Q2543.4 1477.31 2548.53 1477.31 Q2553.7 1477.31 2556.64 1479.72 Q2559.58 1482.13 2559.58 1486.27 Q2559.58 1489.24 2557.89 1491.3 Q2556.22 1493.36 2553.23 1494.1 Q2556.61 1494.88 2558.49 1497.18 Q2560.39 1499.47 2560.39 1502.78 Q2560.39 1507.8 2557.31 1510.49 Q2554.25 1513.17 2548.53 1513.17 Q2542.82 1513.17 2539.74 1510.49 Q2536.68 1507.8 2536.68 1502.78 Q2536.68 1499.47 2538.58 1497.18 Q2540.48 1494.88 2543.86 1494.1 M2542.15 1486.71 Q2542.15 1489.4 2543.81 1490.9 Q2545.5 1492.41 2548.53 1492.41 Q2551.54 1492.41 2553.23 1490.9 Q2554.95 1489.4 2554.95 1486.71 Q2554.95 1484.03 2553.23 1482.52 Q2551.54 1481.02 2548.53 1481.02 Q2545.5 1481.02 2543.81 1482.52 Q2542.15 1484.03 2542.15 1486.71 Z" fill="#000000" fill-rule="nonzero" fill-opacity="1" /><path clip-path="url(#clip840)" d="M2578.7 1481.02 Q2575.08 1481.02 2573.26 1484.58 Q2571.45 1488.12 2571.45 1495.25 Q2571.45 1502.36 2573.26 1505.93 Q2575.08 1509.47 2578.7 1509.47 Q2582.33 1509.47 2584.14 1505.93 Q2585.96 1502.36 2585.96 1495.25 Q2585.96 1488.12 2584.14 1484.58 Q2582.33 1481.02 2578.7 1481.02 M2578.7 1477.31 Q2584.51 1477.31 2587.56 1481.92 Q2590.64 1486.5 2590.64 1495.25 Q2590.64 1503.98 2587.56 1508.59 Q2584.51 1513.17 2578.7 1513.17 Q2572.89 1513.17 2569.81 1508.59 Q2566.75 1503.98 2566.75 1495.25 Q2566.75 1486.5 2569.81 1481.92 Q2572.89 1477.31 2578.7 1477.31 Z" fill="#000000" fill-rule="nonzero" fill-opacity="1" /><path clip-path="url(#clip840)" d="M3112.36 1508.56 L3120 1508.56 L3120 1482.2 L3111.69 1483.87 L3111.69 1479.61 L3119.96 1477.94 L3124.63 1477.94 L3124.63 1508.56 L3132.27 1508.56 L3132.27 1512.5 L3112.36 1512.5 L3112.36 1508.56 Z" fill="#000000" fill-rule="nonzero" fill-opacity="1" /><path clip-path="url(#clip840)" d="M3151.71 1481.02 Q3148.1 1481.02 3146.27 1484.58 Q3144.47 1488.12 3144.47 1495.25 Q3144.47 1502.36 3146.27 1505.93 Q3148.1 1509.47 3151.71 1509.47 Q3155.35 1509.47 3157.15 1505.93 Q3158.98 1502.36 3158.98 1495.25 Q3158.98 1488.12 3157.15 1484.58 Q3155.35 1481.02 3151.71 1481.02 M3151.71 1477.31 Q3157.52 1477.31 3160.58 1481.92 Q3163.66 1486.5 3163.66 1495.25 Q3163.66 1503.98 3160.58 1508.59 Q3157.52 1513.17 3151.71 1513.17 Q3145.9 1513.17 3142.83 1508.59 Q3139.77 1503.98 3139.77 1495.25 Q3139.77 1486.5 3142.83 1481.92 Q3145.9 1477.31 3151.71 1477.31 Z" fill="#000000" fill-rule="nonzero" fill-opacity="1" /><path clip-path="url(#clip840)" d="M3181.88 1481.02 Q3178.27 1481.02 3176.44 1484.58 Q3174.63 1488.12 3174.63 1495.25 Q3174.63 1502.36 3176.44 1505.93 Q3178.27 1509.47 3181.88 1509.47 Q3185.51 1509.47 3187.32 1505.93 Q3189.14 1502.36 3189.14 1495.25 Q3189.14 1488.12 3187.32 1484.58 Q3185.51 1481.02 3181.88 1481.02 M3181.88 1477.31 Q3187.69 1477.31 3190.74 1481.92 Q3193.82 1486.5 3193.82 1495.25 Q3193.82 1503.98 3190.74 1508.59 Q3187.69 1513.17 3181.88 1513.17 Q3176.07 1513.17 3172.99 1508.59 Q3169.93 1503.98 3169.93 1495.25 Q3169.93 1486.5 3172.99 1481.92 Q3176.07 1477.31 3181.88 1477.31 Z" fill="#000000" fill-rule="nonzero" fill-opacity="1" /><path clip-path="url(#clip840)" d="M1679.08 1554.79 L1679.08 1564.92 L1691.14 1564.92 L1691.14 1569.47 L1679.08 1569.47 L1679.08 1588.82 Q1679.08 1593.18 1680.26 1594.42 Q1681.47 1595.66 1685.13 1595.66 L1691.14 1595.66 L1691.14 1600.56 L1685.13 1600.56 Q1678.35 1600.56 1675.77 1598.05 Q1673.19 1595.5 1673.19 1588.82 L1673.19 1569.47 L1668.9 1569.47 L1668.9 1564.92 L1673.19 1564.92 L1673.19 1554.79 L1679.08 1554.79 Z" fill="#000000" fill-rule="nonzero" fill-opacity="1" /><polyline clip-path="url(#clip840)" style="stroke:#000000; stroke-linecap:round; stroke-linejoin:round; stroke-width:4; stroke-opacity:1; fill:none" points="207.283,1443.7 207.283,47.2441 "/>
<polyline clip-path="url(#clip840)" style="stroke:#000000; stroke-linecap:round; stroke-linejoin:round; stroke-width:4; stroke-opacity:1; fill:none" points="3152.76,1443.7 3152.76,47.2441 "/>
<polyline clip-path="url(#clip840)" style="stroke:#000000; stroke-linecap:round; stroke-linejoin:round; stroke-width:4; stroke-opacity:1; fill:none" points="207.283,1404.18 226.181,1404.18 "/>
<polyline clip-path="url(#clip840)" style="stroke:#000000; stroke-linecap:round; stroke-linejoin:round; stroke-width:4; stroke-opacity:1; fill:none" points="207.283,1074.5 226.181,1074.5 "/>
<polyline clip-path="url(#clip840)" style="stroke:#000000; stroke-linecap:round; stroke-linejoin:round; stroke-width:4; stroke-opacity:1; fill:none" points="207.283,744.813 226.181,744.813 "/>
<polyline clip-path="url(#clip840)" style="stroke:#000000; stroke-linecap:round; stroke-linejoin:round; stroke-width:4; stroke-opacity:1; fill:none" points="207.283,415.13 226.181,415.13 "/>
<polyline clip-path="url(#clip840)" style="stroke:#000000; stroke-linecap:round; stroke-linejoin:round; stroke-width:4; stroke-opacity:1; fill:none" points="207.283,85.4477 226.181,85.4477 "/>
<polyline clip-path="url(#clip840)" style="stroke:#000000; stroke-linecap:round; stroke-linejoin:round; stroke-width:4; stroke-opacity:1; fill:none" points="3152.76,1404.18 3133.86,1404.18 "/>
<polyline clip-path="url(#clip840)" style="stroke:#000000; stroke-linecap:round; stroke-linejoin:round; stroke-width:4; stroke-opacity:1; fill:none" points="3152.76,1074.5 3133.86,1074.5 "/>
<polyline clip-path="url(#clip840)" style="stroke:#000000; stroke-linecap:round; stroke-linejoin:round; stroke-width:4; stroke-opacity:1; fill:none" points="3152.76,744.813 3133.86,744.813 "/>
<polyline clip-path="url(#clip840)" style="stroke:#000000; stroke-linecap:round; stroke-linejoin:round; stroke-width:4; stroke-opacity:1; fill:none" points="3152.76,415.13 3133.86,415.13 "/>
<polyline clip-path="url(#clip840)" style="stroke:#000000; stroke-linecap:round; stroke-linejoin:round; stroke-width:4; stroke-opacity:1; fill:none" points="3152.76,85.4477 3133.86,85.4477 "/>
<path clip-path="url(#clip840)" d="M147.339 1389.98 Q143.728 1389.98 141.899 1393.54 Q140.093 1397.08 140.093 1404.21 Q140.093 1411.32 141.899 1414.88 Q143.728 1418.43 147.339 1418.43 Q150.973 1418.43 152.779 1414.88 Q154.607 1411.32 154.607 1404.21 Q154.607 1397.08 152.779 1393.54 Q150.973 1389.98 147.339 1389.98 M147.339 1386.27 Q153.149 1386.27 156.205 1390.88 Q159.283 1395.46 159.283 1404.21 Q159.283 1412.94 156.205 1417.55 Q153.149 1422.13 147.339 1422.13 Q141.529 1422.13 138.45 1417.55 Q135.394 1412.94 135.394 1404.21 Q135.394 1395.46 138.45 1390.88 Q141.529 1386.27 147.339 1386.27 Z" fill="#000000" fill-rule="nonzero" fill-opacity="1" /><path clip-path="url(#clip840)" d="M81.0429 1087.84 L97.3622 1087.84 L97.3622 1091.78 L75.4179 1091.78 L75.4179 1087.84 Q78.0799 1085.09 82.6632 1080.46 Q87.2697 1075.8 88.4502 1074.46 Q90.6956 1071.94 91.5752 1070.2 Q92.478 1068.44 92.478 1066.75 Q92.478 1064 90.5336 1062.26 Q88.6123 1060.53 85.5104 1060.53 Q83.3114 1060.53 80.8577 1061.29 Q78.4271 1062.05 75.6494 1063.6 L75.6494 1058.88 Q78.4734 1057.75 80.9271 1057.17 Q83.3808 1056.59 85.4178 1056.59 Q90.7882 1056.59 93.9826 1059.28 Q97.177 1061.96 97.177 1066.45 Q97.177 1068.58 96.3669 1070.5 Q95.5798 1072.4 93.4734 1074.99 Q92.8947 1075.66 89.7928 1078.88 Q86.691 1082.08 81.0429 1087.84 Z" fill="#000000" fill-rule="nonzero" fill-opacity="1" /><path clip-path="url(#clip840)" d="M107.223 1057.22 L125.58 1057.22 L125.58 1061.15 L111.506 1061.15 L111.506 1069.62 Q112.524 1069.28 113.543 1069.11 Q114.561 1068.93 115.58 1068.93 Q121.367 1068.93 124.746 1072.1 Q128.126 1075.27 128.126 1080.69 Q128.126 1086.27 124.654 1089.37 Q121.182 1092.45 114.862 1092.45 Q112.686 1092.45 110.418 1092.08 Q108.172 1091.71 105.765 1090.96 L105.765 1086.27 Q107.848 1087.4 110.07 1087.96 Q112.293 1088.51 114.77 1088.51 Q118.774 1088.51 121.112 1086.4 Q123.45 1084.3 123.45 1080.69 Q123.45 1077.08 121.112 1074.97 Q118.774 1072.86 114.77 1072.86 Q112.895 1072.86 111.02 1073.28 Q109.168 1073.7 107.223 1074.58 L107.223 1057.22 Z" fill="#000000" fill-rule="nonzero" fill-opacity="1" /><path clip-path="url(#clip840)" d="M147.339 1060.29 Q143.728 1060.29 141.899 1063.86 Q140.093 1067.4 140.093 1074.53 Q140.093 1081.64 141.899 1085.2 Q143.728 1088.74 147.339 1088.74 Q150.973 1088.74 152.779 1085.2 Q154.607 1081.64 154.607 1074.53 Q154.607 1067.4 152.779 1063.86 Q150.973 1060.29 147.339 1060.29 M147.339 1056.59 Q153.149 1056.59 156.205 1061.2 Q159.283 1065.78 159.283 1074.53 Q159.283 1083.26 156.205 1087.86 Q153.149 1092.45 147.339 1092.45 Q141.529 1092.45 138.45 1087.86 Q135.394 1083.26 135.394 1074.53 Q135.394 1065.78 138.45 1061.2 Q141.529 1056.59 147.339 1056.59 Z" fill="#000000" fill-rule="nonzero" fill-opacity="1" /><path clip-path="url(#clip840)" d="M77.0614 727.533 L95.4178 727.533 L95.4178 731.468 L81.3438 731.468 L81.3438 739.94 Q82.3623 739.593 83.3808 739.431 Q84.3993 739.246 85.4178 739.246 Q91.2049 739.246 94.5845 742.417 Q97.9641 745.588 97.9641 751.005 Q97.9641 756.583 94.4919 759.685 Q91.0197 762.764 84.7003 762.764 Q82.5243 762.764 80.2558 762.394 Q78.0105 762.023 75.6031 761.282 L75.6031 756.583 Q77.6864 757.718 79.9086 758.273 Q82.1308 758.829 84.6077 758.829 Q88.6123 758.829 90.9502 756.722 Q93.2882 754.616 93.2882 751.005 Q93.2882 747.394 90.9502 745.287 Q88.6123 743.181 84.6077 743.181 Q82.7327 743.181 80.8577 743.597 Q79.0058 744.014 77.0614 744.894 L77.0614 727.533 Z" fill="#000000" fill-rule="nonzero" fill-opacity="1" /><path clip-path="url(#clip840)" d="M117.177 730.611 Q113.566 730.611 111.737 734.176 Q109.932 737.718 109.932 744.847 Q109.932 751.954 111.737 755.519 Q113.566 759.06 117.177 759.06 Q120.811 759.06 122.617 755.519 Q124.445 751.954 124.445 744.847 Q124.445 737.718 122.617 734.176 Q120.811 730.611 117.177 730.611 M117.177 726.908 Q122.987 726.908 126.043 731.514 Q129.121 736.097 129.121 744.847 Q129.121 753.574 126.043 758.181 Q122.987 762.764 117.177 762.764 Q111.367 762.764 108.288 758.181 Q105.233 753.574 105.233 744.847 Q105.233 736.097 108.288 731.514 Q111.367 726.908 117.177 726.908 Z" fill="#000000" fill-rule="nonzero" fill-opacity="1" /><path clip-path="url(#clip840)" d="M147.339 730.611 Q143.728 730.611 141.899 734.176 Q140.093 737.718 140.093 744.847 Q140.093 751.954 141.899 755.519 Q143.728 759.06 147.339 759.06 Q150.973 759.06 152.779 755.519 Q154.607 751.954 154.607 744.847 Q154.607 737.718 152.779 734.176 Q150.973 730.611 147.339 730.611 M147.339 726.908 Q153.149 726.908 156.205 731.514 Q159.283 736.097 159.283 744.847 Q159.283 753.574 156.205 758.181 Q153.149 762.764 147.339 762.764 Q141.529 762.764 138.45 758.181 Q135.394 753.574 135.394 744.847 Q135.394 736.097 138.45 731.514 Q141.529 726.908 147.339 726.908 Z" fill="#000000" fill-rule="nonzero" fill-opacity="1" /><path clip-path="url(#clip840)" d="M75.8346 397.85 L98.0567 397.85 L98.0567 399.841 L85.5104 432.41 L80.6262 432.41 L92.4317 401.785 L75.8346 401.785 L75.8346 397.85 Z" fill="#000000" fill-rule="nonzero" fill-opacity="1" /><path clip-path="url(#clip840)" d="M107.223 397.85 L125.58 397.85 L125.58 401.785 L111.506 401.785 L111.506 410.257 Q112.524 409.91 113.543 409.748 Q114.561 409.563 115.58 409.563 Q121.367 409.563 124.746 412.734 Q128.126 415.906 128.126 421.322 Q128.126 426.901 124.654 430.003 Q121.182 433.081 114.862 433.081 Q112.686 433.081 110.418 432.711 Q108.172 432.341 105.765 431.6 L105.765 426.901 Q107.848 428.035 110.07 428.591 Q112.293 429.146 114.77 429.146 Q118.774 429.146 121.112 427.04 Q123.45 424.933 123.45 421.322 Q123.45 417.711 121.112 415.605 Q118.774 413.498 114.77 413.498 Q112.895 413.498 111.02 413.915 Q109.168 414.332 107.223 415.211 L107.223 397.85 Z" fill="#000000" fill-rule="nonzero" fill-opacity="1" /><path clip-path="url(#clip840)" d="M147.339 400.929 Q143.728 400.929 141.899 404.494 Q140.093 408.035 140.093 415.165 Q140.093 422.271 141.899 425.836 Q143.728 429.378 147.339 429.378 Q150.973 429.378 152.779 425.836 Q154.607 422.271 154.607 415.165 Q154.607 408.035 152.779 404.494 Q150.973 400.929 147.339 400.929 M147.339 397.225 Q153.149 397.225 156.205 401.832 Q159.283 406.415 159.283 415.165 Q159.283 423.892 156.205 428.498 Q153.149 433.081 147.339 433.081 Q141.529 433.081 138.45 428.498 Q135.394 423.892 135.394 415.165 Q135.394 406.415 138.45 401.832 Q141.529 397.225 147.339 397.225 Z" fill="#000000" fill-rule="nonzero" fill-opacity="1" /><path clip-path="url(#clip840)" d="M47.6634 98.7925 L55.3023 98.7925 L55.3023 72.4269 L46.9921 74.0936 L46.9921 69.8344 L55.256 68.1677 L59.9319 68.1677 L59.9319 98.7925 L67.5707 98.7925 L67.5707 102.728 L47.6634 102.728 L47.6634 98.7925 Z" fill="#000000" fill-rule="nonzero" fill-opacity="1" /><path clip-path="url(#clip840)" d="M87.0151 71.2464 Q83.404 71.2464 81.5753 74.8112 Q79.7697 78.3528 79.7697 85.4824 Q79.7697 92.5889 81.5753 96.1537 Q83.404 99.6953 87.0151 99.6953 Q90.6493 99.6953 92.4548 96.1537 Q94.2835 92.5889 94.2835 85.4824 Q94.2835 78.3528 92.4548 74.8112 Q90.6493 71.2464 87.0151 71.2464 M87.0151 67.5427 Q92.8252 67.5427 95.8808 72.1492 Q98.9594 76.7325 98.9594 85.4824 Q98.9594 94.2092 95.8808 98.8157 Q92.8252 103.399 87.0151 103.399 Q81.2049 103.399 78.1262 98.8157 Q75.0707 94.2092 75.0707 85.4824 Q75.0707 76.7325 78.1262 72.1492 Q81.2049 67.5427 87.0151 67.5427 Z" fill="#000000" fill-rule="nonzero" fill-opacity="1" /><path clip-path="url(#clip840)" d="M117.177 71.2464 Q113.566 71.2464 111.737 74.8112 Q109.932 78.3528 109.932 85.4824 Q109.932 92.5889 111.737 96.1537 Q113.566 99.6953 117.177 99.6953 Q120.811 99.6953 122.617 96.1537 Q124.445 92.5889 124.445 85.4824 Q124.445 78.3528 122.617 74.8112 Q120.811 71.2464 117.177 71.2464 M117.177 67.5427 Q122.987 67.5427 126.043 72.1492 Q129.121 76.7325 129.121 85.4824 Q129.121 94.2092 126.043 98.8157 Q122.987 103.399 117.177 103.399 Q111.367 103.399 108.288 98.8157 Q105.233 94.2092 105.233 85.4824 Q105.233 76.7325 108.288 72.1492 Q111.367 67.5427 117.177 67.5427 Z" fill="#000000" fill-rule="nonzero" fill-opacity="1" /><path clip-path="url(#clip840)" d="M147.339 71.2464 Q143.728 71.2464 141.899 74.8112 Q140.093 78.3528 140.093 85.4824 Q140.093 92.5889 141.899 96.1537 Q143.728 99.6953 147.339 99.6953 Q150.973 99.6953 152.779 96.1537 Q154.607 92.5889 154.607 85.4824 Q154.607 78.3528 152.779 74.8112 Q150.973 71.2464 147.339 71.2464 M147.339 67.5427 Q153.149 67.5427 156.205 72.1492 Q159.283 76.7325 159.283 85.4824 Q159.283 94.2092 156.205 98.8157 Q153.149 103.399 147.339 103.399 Q141.529 103.399 138.45 98.8157 Q135.394 94.2092 135.394 85.4824 Q135.394 76.7325 138.45 72.1492 Q141.529 67.5427 147.339 67.5427 Z" fill="#000000" fill-rule="nonzero" fill-opacity="1" /><polyline clip-path="url(#clip841)" style="stroke:#009af9; stroke-linecap:round; stroke-linejoin:round; stroke-width:16; stroke-opacity:1; fill:none" points="207.283,86.7664 210.232,86.8337 213.18,86.9037 216.128,86.9766 219.077,87.0524 222.025,87.1313 224.974,87.2135 227.922,87.2989 230.871,87.3879 233.819,87.4805 236.767,87.5768 239.716,87.6771 242.664,87.7814 245.613,87.89 248.561,88.003 251.51,88.1206 254.458,88.243 257.406,88.3704 260.355,88.5029 263.303,88.6408 266.252,88.7843 269.2,88.9337 272.148,89.0891 275.097,89.2508 278.045,89.4191 280.994,89.5942 283.942,89.7764 286.891,89.966 289.839,90.1632 292.787,90.3685 295.736,90.5821 298.684,90.8043 301.633,91.0355 304.581,91.276 307.53,91.5263 310.478,91.7867 313.426,92.0576 316.375,92.3395 319.323,92.6327 322.272,92.9377 325.22,93.2551 328.168,93.5852 331.117,93.9287 334.065,94.2859 337.014,94.6575 339.962,95.0441 342.911,95.4461 345.859,95.8643 348.807,96.2993 351.756,96.7516 354.704,97.2221 357.653,97.7115 360.601,98.2204 363.55,98.7496 366.498,99.3 369.446,99.8723 372.395,100.467 375.343,101.086 378.292,101.729 381.24,102.398 384.188,103.093 387.137,103.816 390.085,104.568 393.034,105.349 395.982,106.161 398.931,107.005 401.879,107.882 404.827,108.793 407.776,109.74 410.724,110.725 413.673,111.747 416.621,112.81 419.57,113.914 422.518,115.061 425.466,116.252 428.415,117.489 431.363,118.774 434.312,120.108 437.26,121.493 440.208,122.932 443.157,124.425 446.105,125.976 449.054,127.585 452.002,129.255 454.951,130.989 457.899,132.787 460.847,134.653 463.796,136.589 466.744,138.597 469.693,140.679 472.641,142.838 475.59,145.076 478.538,147.395 481.486,149.8 484.435,152.292 487.383,154.873 490.332,157.548 493.28,160.319 496.228,163.188 499.177,166.158 502.125,169.233 505.074,172.416 508.022,175.709 510.971,179.115 513.919,182.638 516.867,186.281 519.816,190.047 522.764,193.938 525.713,197.958 528.661,202.111 531.61,206.399 534.558,210.824 537.506,215.391 540.455,220.103 543.403,224.963 546.352,229.974 549.3,235.139 552.248,240.462 555.197,245.945 558.145,251.59 561.094,257.4 564.042,263.377 566.991,269.525 569.939,275.843 572.887,282.335 575.836,289.003 578.784,295.847 581.733,302.87 584.681,310.072 587.63,317.456 590.578,325.021 593.526,332.769 596.475,340.701 599.423,348.816 602.372,357.114 605.32,365.594 608.268,374.256 611.217,383.098 614.165,392.119 617.114,401.316 620.062,410.688 623.011,420.231 625.959,429.943 628.907,439.821 631.856,449.859 634.804,460.056 637.753,470.406 640.701,480.904 643.65,491.546 646.598,502.326 649.546,513.238 652.495,524.276 655.443,535.434 658.392,546.705 661.34,558.082 664.288,569.557 667.237,581.122 670.185,592.772 673.134,604.5 676.082,616.296 679.031,628.151 681.979,640.055 684.927,651.999 687.876,663.973 690.824,675.967 693.773,687.973 696.721,699.982 699.67,711.985 702.618,723.974 705.566,735.939 708.515,747.874 711.463,759.769 714.412,771.616 717.36,783.409 720.308,795.139 723.257,806.798 726.205,818.38 729.154,829.878 732.102,841.283 735.051,852.59 737.999,863.792 740.947,874.882 743.896,885.854 746.844,896.702 749.793,907.419 752.741,918.001 755.69,928.441 758.638,938.737 761.586,948.885 764.535,958.884 767.483,968.73 770.432,978.42 773.38,987.954 776.328,997.328 779.277,1006.54 782.225,1015.59 785.174,1024.48 788.122,1033.2 791.071,1041.76 794.019,1050.15 796.967,1058.38 799.916,1066.44 802.864,1074.34 805.813,1082.06 808.761,1089.63 811.71,1097.03 814.658,1104.26 817.606,1111.34 820.555,1118.25 823.503,1125.01 826.452,1131.6 829.4,1138.05 832.348,1144.34 835.297,1150.48 838.245,1156.48 841.194,1162.33 844.142,1168.04 847.091,1173.61 850.039,1179.04 852.987,1184.34 855.936,1189.5 858.884,1194.53 861.833,1199.44 864.781,1204.22 867.73,1208.88 870.678,1213.42 873.626,1217.84 876.575,1222.15 879.523,1226.35 882.472,1230.43 885.42,1234.41 888.368,1238.29 891.317,1242.06 894.265,1245.73 897.214,1249.31 900.162,1252.79 903.111,1256.18 906.059,1259.48 909.007,1262.69 911.956,1265.81 914.904,1268.85 917.853,1271.81 920.801,1274.69 923.75,1277.49 926.698,1280.22 929.646,1282.87 932.595,1285.45 935.543,1287.96 938.492,1290.41 941.44,1292.79 944.388,1295.11 947.337,1297.37 950.285,1299.57 953.234,1301.71 956.182,1303.79 959.131,1305.82 962.079,1307.79 965.027,1309.72 967.976,1311.59 970.924,1313.41 973.873,1315.19 976.821,1316.92 979.77,1318.61 982.718,1320.25 985.666,1321.85 988.615,1323.41 991.563,1324.93 994.512,1326.4 997.46,1327.85 1000.41,1329.25 1003.36,1330.62 1006.31,1331.96 1009.25,1333.26 1012.2,1334.53 1015.15,1335.76 1018.1,1336.97 1021.05,1338.15 1024,1339.29 1026.94,1340.41 1029.89,1341.5 1032.84,1342.57 1035.79,1343.61 1038.74,1344.62 1041.69,1345.61 1044.63,1346.57 1047.58,1347.52 1050.53,1348.44 1053.48,1349.33 1056.43,1350.21 1059.38,1351.06 1062.33,1351.9 1065.27,1352.71 1068.22,1353.51 1071.17,1354.29 1074.12,1355.05 1077.07,1355.79 1080.02,1356.51 1082.96,1357.22 1085.91,1357.91 1088.86,1358.59 1091.81,1359.25 1094.76,1359.89 1097.71,1360.52 1100.65,1361.14 1103.6,1361.74 1106.55,1362.33 1109.5,1362.91 1112.45,1363.47 1115.4,1364.02 1118.35,1364.56 1121.29,1365.09 1124.24,1365.61 1127.19,1366.11 1130.14,1366.61 1133.09,1367.09 1136.04,1367.57 1138.98,1368.03 1141.93,1368.49 1144.88,1368.93 1147.83,1369.37 1150.78,1369.79 1153.73,1370.21 1156.67,1370.62 1159.62,1371.02 1162.57,1371.41 1165.52,1371.8 1168.47,1372.17 1171.42,1372.54 1174.37,1372.9 1177.31,1373.26 1180.26,1373.6 1183.21,1373.94 1186.16,1374.28 1189.11,1374.6 1192.06,1374.92 1195,1375.24 1197.95,1375.54 1200.9,1375.85 1203.85,1376.14 1206.8,1376.43 1209.75,1376.72 1212.69,1377 1215.64,1377.27 1218.59,1377.54 1221.54,1377.8 1224.49,1378.06 1227.44,1378.31 1230.39,1378.56 1233.33,1378.81 1236.28,1379.05 1239.23,1379.28 1242.18,1379.51 1245.13,1379.74 1248.08,1379.96 1251.02,1380.18 1253.97,1380.4 1256.92,1380.61 1259.87,1380.82 1262.82,1381.02 1265.77,1381.22 1268.71,1381.42 1271.66,1381.61 1274.61,1381.8 1277.56,1381.99 1280.51,1382.17 1283.46,1382.35 1286.41,1382.53 1289.35,1382.7 1292.3,1382.87 1295.25,1383.04 1298.2,1383.21 1301.15,1383.37 1304.1,1383.53 1307.04,1383.69 1309.99,1383.84 1312.94,1383.99 1315.89,1384.14 1318.84,1384.29 1321.79,1384.43 1324.73,1384.58 1327.68,1384.72 1330.63,1384.85 1333.58,1384.99 1336.53,1385.12 1339.48,1385.25 1342.43,1385.38 1345.37,1385.51 1348.32,1385.63 1351.27,1385.76 1354.22,1385.88 1357.17,1386 1360.12,1386.11 1363.06,1386.23 1366.01,1386.34 1368.96,1386.45 1371.91,1386.56 1374.86,1386.67 1377.81,1386.78 1380.75,1386.88 1383.7,1386.99 1386.65,1387.09 1389.6,1387.19 1392.55,1387.29 1395.5,1387.39 1398.45,1387.48 1401.39,1387.58 1404.34,1387.67 1407.29,1387.76 1410.24,1387.85 1413.19,1387.94 1416.14,1388.03 1419.08,1388.11 1422.03,1388.2 1424.98,1388.28 1427.93,1388.36 1430.88,1388.45 1433.83,1388.53 1436.77,1388.61 1439.72,1388.68 1442.67,1388.76 1445.62,1388.84 1448.57,1388.91 1451.52,1388.98 1454.47,1389.06 1457.41,1389.13 1460.36,1389.2 1463.31,1389.27 1466.26,1389.34 1469.21,1389.4 1472.16,1389.47 1475.1,1389.54 1478.05,1389.6 1481,1389.67 1483.95,1389.73 1486.9,1389.79 1489.85,1389.85 1492.79,1389.91 1495.74,1389.97 1498.69,1390.03 1501.64,1390.09 1504.59,1390.15 1507.54,1390.2 1510.49,1390.26 1513.43,1390.31 1516.38,1390.37 1519.33,1390.42 1522.28,1390.48 1525.23,1390.53 1528.18,1390.58 1531.12,1390.63 1534.07,1390.68 1537.02,1390.73 1539.97,1390.78 1542.92,1390.83 1545.87,1390.87 1548.81,1390.92 1551.76,1390.97 1554.71,1391.01 1557.66,1391.06 1560.61,1391.1 1563.56,1391.15 1566.51,1391.19 1569.45,1391.23 1572.4,1391.27 1575.35,1391.32 1578.3,1391.36 1581.25,1391.4 1584.2,1391.44 1587.14,1391.48 1590.09,1391.52 1593.04,1391.56 1595.99,1391.59 1598.94,1391.63 1601.89,1391.67 1604.83,1391.71 1607.78,1391.74 1610.73,1391.78 1613.68,1391.81 1616.63,1391.85 1619.58,1391.88 1622.53,1391.92 1625.47,1391.95 1628.42,1391.99 1631.37,1392.02 1634.32,1392.05 1637.27,1392.08 1640.22,1392.11 1643.16,1392.15 1646.11,1392.18 1649.06,1392.21 1652.01,1392.24 1654.96,1392.27 1657.91,1392.3 1660.85,1392.33 1663.8,1392.36 1666.75,1392.38 1669.7,1392.41 1672.65,1392.44 1675.6,1392.47 1678.55,1392.49 1681.49,1392.52 1684.44,1392.55 1687.39,1392.57 1690.34,1392.6 1693.29,1392.63 1696.24,1392.65 1699.18,1392.68 1702.13,1392.7 1705.08,1392.73 1708.03,1392.75 1710.98,1392.77 1713.93,1392.8 1716.87,1392.82 1719.82,1392.84 1722.77,1392.87 1725.72,1392.89 1728.67,1392.91 1731.62,1392.93 1734.57,1392.95 1737.51,1392.98 1740.46,1393 1743.41,1393.02 1746.36,1393.04 1749.31,1393.06 1752.26,1393.08 1755.2,1393.1 1758.15,1393.12 1761.1,1393.14 1764.05,1393.16 1767,1393.18 1769.95,1393.2 1772.89,1393.22 1775.84,1393.23 1778.79,1393.25 1781.74,1393.27 1784.69,1393.29 1787.64,1393.31 1790.59,1393.32 1793.53,1393.34 1796.48,1393.36 1799.43,1393.38 1802.38,1393.39 1805.33,1393.41 1808.28,1393.43 1811.22,1393.44 1814.17,1393.46 1817.12,1393.47 1820.07,1393.49 1823.02,1393.5 1825.97,1393.52 1828.91,1393.54 1831.86,1393.55 1834.81,1393.56 1837.76,1393.58 1840.71,1393.59 1843.66,1393.61 1846.61,1393.62 1849.55,1393.64 1852.5,1393.65 1855.45,1393.66 1858.4,1393.68 1861.35,1393.69 1864.3,1393.7 1867.24,1393.72 1870.19,1393.73 1873.14,1393.74 1876.09,1393.76 1879.04,1393.77 1881.99,1393.78 1884.93,1393.79 1887.88,1393.81 1890.83,1393.82 1893.78,1393.83 1896.73,1393.84 1899.68,1393.85 1902.63,1393.87 1905.57,1393.88 1908.52,1393.89 1911.47,1393.9 1914.42,1393.91 1917.37,1393.92 1920.32,1393.93 1923.26,1393.94 1926.21,1393.95 1929.16,1393.96 1932.11,1393.97 1935.06,1393.98 1938.01,1393.99 1940.95,1394 1943.9,1394.01 1946.85,1394.02 1949.8,1394.03 1952.75,1394.04 1955.7,1394.05 1958.65,1394.06 1961.59,1394.07 1964.54,1394.08 1967.49,1394.09 1970.44,1394.1 1973.39,1394.11 1976.34,1394.12 1979.28,1394.13 1982.23,1394.14 1985.18,1394.14 1988.13,1394.15 1991.08,1394.16 1994.03,1394.17 1996.97,1394.18 1999.92,1394.19 2002.87,1394.19 2005.82,1394.2 2008.77,1394.21 2011.72,1394.22 2014.67,1394.22 2017.61,1394.23 2020.56,1394.24 2023.51,1394.25 2026.46,1394.25 2029.41,1394.26 2032.36,1394.27 2035.3,1394.28 2038.25,1394.28 2041.2,1394.29 2044.15,1394.3 2047.1,1394.3 2050.05,1394.31 2052.99,1394.32 2055.94,1394.33 2058.89,1394.33 2061.84,1394.34 2064.79,1394.34 2067.74,1394.35 2070.69,1394.36 2073.63,1394.36 2076.58,1394.37 2079.53,1394.38 2082.48,1394.38 2085.43,1394.39 2088.38,1394.39 2091.32,1394.4 2094.27,1394.41 2097.22,1394.41 2100.17,1394.42 2103.12,1394.42 2106.07,1394.43 2109.01,1394.43 2111.96,1394.44 2114.91,1394.45 2117.86,1394.45 2120.81,1394.46 2123.76,1394.46 2126.71,1394.47 2129.65,1394.47 2132.6,1394.48 2135.55,1394.48 2138.5,1394.49 2141.45,1394.49 2144.4,1394.5 2147.34,1394.5 2150.29,1394.51 2153.24,1394.51 2156.19,1394.52 2159.14,1394.52 2162.09,1394.53 2165.03,1394.53 2167.98,1394.53 2170.93,1394.54 2173.88,1394.54 2176.83,1394.55 2179.78,1394.55 2182.73,1394.56 2185.67,1394.56 2188.62,1394.57 2191.57,1394.57 2194.52,1394.57 2197.47,1394.58 2200.42,1394.58 2203.36,1394.59 2206.31,1394.59 2209.26,1394.59 2212.21,1394.6 2215.16,1394.6 2218.11,1394.61 2221.05,1394.61 2224,1394.61 2226.95,1394.62 2229.9,1394.62 2232.85,1394.62 2235.8,1394.63 2238.75,1394.63 2241.69,1394.63 2244.64,1394.64 2247.59,1394.64 2250.54,1394.64 2253.49,1394.65 2256.44,1394.65 2259.38,1394.65 2262.33,1394.66 2265.28,1394.66 2268.23,1394.66 2271.18,1394.67 2274.13,1394.67 2277.07,1394.67 2280.02,1394.68 2282.97,1394.68 2285.92,1394.68 2288.87,1394.69 2291.82,1394.69 2294.77,1394.69 2297.71,1394.7 2300.66,1394.7 2303.61,1394.7 2306.56,1394.7 2309.51,1394.71 2312.46,1394.71 2315.4,1394.71 2318.35,1394.71 2321.3,1394.72 2324.25,1394.72 2327.2,1394.72 2330.15,1394.73 2333.09,1394.73 2336.04,1394.73 2338.99,1394.73 2341.94,1394.74 2344.89,1394.74 2347.84,1394.74 2350.79,1394.74 2353.73,1394.75 2356.68,1394.75 2359.63,1394.75 2362.58,1394.75 2365.53,1394.76 2368.48,1394.76 2371.42,1394.76 2374.37,1394.76 2377.32,1394.76 2380.27,1394.77 2383.22,1394.77 2386.17,1394.77 2389.11,1394.77 2392.06,1394.78 2395.01,1394.78 2397.96,1394.78 2400.91,1394.78 2403.86,1394.78 2406.81,1394.79 2409.75,1394.79 2412.7,1394.79 2415.65,1394.79 2418.6,1394.79 2421.55,1394.8 2424.5,1394.8 2427.44,1394.8 2430.39,1394.8 2433.34,1394.8 2436.29,1394.8 2439.24,1394.81 2442.19,1394.81 2445.13,1394.81 2448.08,1394.81 2451.03,1394.81 2453.98,1394.82 2456.93,1394.82 2459.88,1394.82 2462.83,1394.82 2465.77,1394.82 2468.72,1394.82 2471.67,1394.83 2474.62,1394.83 2477.57,1394.83 2480.52,1394.83 2483.46,1394.83 2486.41,1394.83 2489.36,1394.83 2492.31,1394.84 2495.26,1394.84 2498.21,1394.84 2501.15,1394.84 2504.1,1394.84 2507.05,1394.84 2510,1394.84 2512.95,1394.85 2515.9,1394.85 2518.85,1394.85 2521.79,1394.85 2524.74,1394.85 2527.69,1394.85 2530.64,1394.85 2533.59,1394.86 2536.54,1394.86 2539.48,1394.86 2542.43,1394.86 2545.38,1394.86 2548.33,1394.86 2551.28,1394.86 2554.23,1394.86 2557.17,1394.87 2560.12,1394.87 2563.07,1394.87 2566.02,1394.87 2568.97,1394.87 2571.92,1394.87 2574.87,1394.87 2577.81,1394.87 2580.76,1394.88 2583.71,1394.88 2586.66,1394.88 2589.61,1394.88 2592.56,1394.88 2595.5,1394.88 2598.45,1394.88 2601.4,1394.88 2604.35,1394.88 2607.3,1394.89 2610.25,1394.89 2613.19,1394.89 2616.14,1394.89 2619.09,1394.89 2622.04,1394.89 2624.99,1394.89 2627.94,1394.89 2630.89,1394.89 2633.83,1394.89 2636.78,1394.9 2639.73,1394.9 2642.68,1394.9 2645.63,1394.9 2648.58,1394.9 2651.52,1394.9 2654.47,1394.9 2657.42,1394.9 2660.37,1394.9 2663.32,1394.9 2666.27,1394.9 2669.21,1394.9 2672.16,1394.91 2675.11,1394.91 2678.06,1394.91 2681.01,1394.91 2683.96,1394.91 2686.91,1394.91 2689.85,1394.91 2692.8,1394.91 2695.75,1394.91 2698.7,1394.91 2701.65,1394.91 2704.6,1394.91 2707.54,1394.92 2710.49,1394.92 2713.44,1394.92 2716.39,1394.92 2719.34,1394.92 2722.29,1394.92 2725.23,1394.92 2728.18,1394.92 2731.13,1394.92 2734.08,1394.92 2737.03,1394.92 2739.98,1394.92 2742.93,1394.92 2745.87,1394.92 2748.82,1394.92 2751.77,1394.93 2754.72,1394.93 2757.67,1394.93 2760.62,1394.93 2763.56,1394.93 2766.51,1394.93 2769.46,1394.93 2772.41,1394.93 2775.36,1394.93 2778.31,1394.93 2781.25,1394.93 2784.2,1394.93 2787.15,1394.93 2790.1,1394.93 2793.05,1394.93 2796,1394.93 2798.95,1394.93 2801.89,1394.94 2804.84,1394.94 2807.79,1394.94 2810.74,1394.94 2813.69,1394.94 2816.64,1394.94 2819.58,1394.94 2822.53,1394.94 2825.48,1394.94 2828.43,1394.94 2831.38,1394.94 2834.33,1394.94 2837.27,1394.94 2840.22,1394.94 2843.17,1394.94 2846.12,1394.94 2849.07,1394.94 2852.02,1394.94 2854.97,1394.94 2857.91,1394.94 2860.86,1394.95 2863.81,1394.95 2866.76,1394.95 2869.71,1394.95 2872.66,1394.95 2875.6,1394.95 2878.55,1394.95 2881.5,1394.95 2884.45,1394.95 2887.4,1394.95 2890.35,1394.95 2893.29,1394.95 2896.24,1394.95 2899.19,1394.95 2902.14,1394.95 2905.09,1394.95 2908.04,1394.95 2910.99,1394.95 2913.93,1394.95 2916.88,1394.95 2919.83,1394.95 2922.78,1394.95 2925.73,1394.95 2928.68,1394.95 2931.62,1394.95 2934.57,1394.96 2937.52,1394.96 2940.47,1394.96 2943.42,1394.96 2946.37,1394.96 2949.31,1394.96 2952.26,1394.96 2955.21,1394.96 2958.16,1394.96 2961.11,1394.96 2964.06,1394.96 2967.01,1394.96 2969.95,1394.96 2972.9,1394.96 2975.85,1394.96 2978.8,1394.96 2981.75,1394.96 2984.7,1394.96 2987.64,1394.96 2990.59,1394.96 2993.54,1394.96 2996.49,1394.96 2999.44,1394.96 3002.39,1394.96 3005.33,1394.96 3008.28,1394.96 3011.23,1394.96 3014.18,1394.96 3017.13,1394.96 3020.08,1394.96 3023.03,1394.96 3025.97,1394.96 3028.92,1394.96 3031.87,1394.97 3034.82,1394.97 3037.77,1394.97 3040.72,1394.97 3043.66,1394.97 3046.61,1394.97 3049.56,1394.97 3052.51,1394.97 3055.46,1394.97 3058.41,1394.97 3061.35,1394.97 3064.3,1394.97 3067.25,1394.97 3070.2,1394.97 3073.15,1394.97 3076.1,1394.97 3079.05,1394.97 3081.99,1394.97 3084.94,1394.97 3087.89,1394.97 3090.84,1394.97 3093.79,1394.97 3096.74,1394.97 3099.68,1394.97 3102.63,1394.97 3105.58,1394.97 3108.53,1394.97 3111.48,1394.97 3114.43,1394.97 3117.37,1394.97 3120.32,1394.97 3123.27,1394.97 3126.22,1394.97 3129.17,1394.97 3132.12,1394.97 3135.07,1394.97 3138.01,1394.97 3140.96,1394.97 3143.91,1394.97 3146.86,1394.97 3149.81,1394.97 3152.76,1394.97 "/>
<polyline clip-path="url(#clip841)" style="stroke:#e26f46; stroke-linecap:round; stroke-linejoin:round; stroke-width:16; stroke-opacity:1; fill:none" points="207.283,1402.86 210.232,1402.8 213.18,1402.75 216.128,1402.69 219.077,1402.63 222.025,1402.57 224.974,1402.5 227.922,1402.43 230.871,1402.36 233.819,1402.29 236.767,1402.21 239.716,1402.13 242.664,1402.05 245.613,1401.96 248.561,1401.87 251.51,1401.78 254.458,1401.68 257.406,1401.58 260.355,1401.47 263.303,1401.36 266.252,1401.25 269.2,1401.13 272.148,1401 275.097,1400.87 278.045,1400.74 280.994,1400.6 283.942,1400.45 286.891,1400.3 289.839,1400.14 292.787,1399.98 295.736,1399.81 298.684,1399.63 301.633,1399.45 304.581,1399.25 307.53,1399.05 310.478,1398.85 313.426,1398.63 316.375,1398.4 319.323,1398.17 322.272,1397.93 325.22,1397.67 328.168,1397.41 331.117,1397.13 334.065,1396.85 337.014,1396.55 339.962,1396.24 342.911,1395.92 345.859,1395.59 348.807,1395.24 351.756,1394.88 354.704,1394.5 357.653,1394.11 360.601,1393.71 363.55,1393.29 366.498,1392.85 369.446,1392.39 372.395,1391.92 375.343,1391.42 378.292,1390.91 381.24,1390.38 384.188,1389.82 387.137,1389.24 390.085,1388.65 393.034,1388.02 395.982,1387.38 398.931,1386.7 401.879,1386.01 404.827,1385.28 407.776,1384.52 410.724,1383.74 413.673,1382.93 416.621,1382.08 419.57,1381.2 422.518,1380.29 425.466,1379.34 428.415,1378.36 431.363,1377.34 434.312,1376.28 437.26,1375.18 440.208,1374.03 443.157,1372.85 446.105,1371.62 449.054,1370.34 452.002,1369.02 454.951,1367.64 457.899,1366.22 460.847,1364.74 463.796,1363.2 466.744,1361.61 469.693,1359.97 472.641,1358.26 475.59,1356.49 478.538,1354.66 481.486,1352.76 484.435,1350.79 487.383,1348.75 490.332,1346.64 493.28,1344.46 496.228,1342.2 499.177,1339.86 502.125,1337.44 505.074,1334.94 508.022,1332.35 510.971,1329.68 513.919,1326.91 516.867,1324.06 519.816,1321.11 522.764,1318.07 525.713,1314.92 528.661,1311.68 531.61,1308.33 534.558,1304.89 537.506,1301.33 540.455,1297.67 543.403,1293.89 546.352,1290 549.3,1286 552.248,1281.88 555.197,1277.64 558.145,1273.29 561.094,1268.81 564.042,1264.21 566.991,1259.49 569.939,1254.64 572.887,1249.67 575.836,1244.58 578.784,1239.36 581.733,1234.01 584.681,1228.54 587.63,1222.94 590.578,1217.22 593.526,1211.37 596.475,1205.4 599.423,1199.3 602.372,1193.09 605.32,1186.75 608.268,1180.3 611.217,1173.73 614.165,1167.05 617.114,1160.26 620.062,1153.36 623.011,1146.36 625.959,1139.27 628.907,1132.08 631.856,1124.8 634.804,1117.44 637.753,1110 640.701,1102.48 643.65,1094.9 646.598,1087.25 649.546,1079.55 652.495,1071.8 655.443,1064.01 658.392,1056.18 661.34,1048.33 664.288,1040.45 667.237,1032.57 670.185,1024.68 673.134,1016.79 676.082,1008.91 679.031,1001.05 681.979,993.225 684.927,985.436 687.876,977.694 690.824,970.008 693.773,962.387 696.721,954.839 699.67,947.371 702.618,939.992 705.566,932.709 708.515,925.53 711.463,918.461 714.412,911.509 717.36,904.682 720.308,897.984 723.257,891.424 726.205,885.005 729.154,878.736 732.102,872.62 735.051,866.663 737.999,860.87 740.947,855.246 743.896,849.796 746.844,844.525 749.793,839.435 752.741,834.532 755.69,829.818 758.638,825.294 761.586,820.963 764.535,816.824 767.483,812.879 770.432,809.127 773.38,805.568 776.328,802.204 779.277,799.032 782.225,796.053 785.174,793.267 788.122,790.671 791.071,788.266 794.019,786.049 796.967,784.02 799.916,782.176 802.864,780.516 805.813,779.037 808.761,777.738 811.71,776.614 814.658,775.665 817.606,774.886 820.555,774.274 823.503,773.827 826.452,773.54 829.4,773.409 832.348,773.431 835.297,773.602 838.245,773.916 841.194,774.37 844.142,774.961 847.091,775.686 850.039,776.54 852.987,777.52 855.936,778.622 858.884,779.842 861.833,781.176 864.781,782.621 867.73,784.173 870.678,785.829 873.626,787.585 876.575,789.438 879.523,791.383 882.472,793.419 885.42,795.541 888.368,797.747 891.317,800.033 894.265,802.396 897.214,804.832 900.162,807.339 903.111,809.914 906.059,812.553 909.007,815.255 911.956,818.015 914.904,820.831 917.853,823.7 920.801,826.62 923.75,829.588 926.698,832.601 929.646,835.656 932.595,838.752 935.543,841.885 938.492,845.053 941.44,848.253 944.388,851.484 947.337,854.743 950.285,858.029 953.234,861.339 956.182,864.672 959.131,868.026 962.079,871.401 965.027,874.793 967.976,878.201 970.924,881.624 973.873,885.061 976.821,888.509 979.77,891.968 982.718,895.436 985.666,898.912 988.615,902.394 991.563,905.881 994.512,909.372 997.46,912.866 1000.41,916.362 1003.36,919.858 1006.31,923.354 1009.25,926.848 1012.2,930.34 1015.15,933.829 1018.1,937.313 1021.05,940.793 1024,944.267 1026.94,947.734 1029.89,951.195 1032.84,954.647 1035.79,958.091 1038.74,961.526 1041.69,964.951 1044.63,968.366 1047.58,971.769 1050.53,975.161 1053.48,978.541 1056.43,981.908 1059.38,985.263 1062.33,988.604 1065.27,991.932 1068.22,995.246 1071.17,998.545 1074.12,1001.83 1077.07,1005.1 1080.02,1008.35 1082.96,1011.59 1085.91,1014.81 1088.86,1018.02 1091.81,1021.21 1094.76,1024.38 1097.71,1027.54 1100.65,1030.67 1103.6,1033.8 1106.55,1036.9 1109.5,1039.98 1112.45,1043.05 1115.4,1046.1 1118.35,1049.13 1121.29,1052.14 1124.24,1055.13 1127.19,1058.1 1130.14,1061.06 1133.09,1064 1136.04,1066.91 1138.98,1069.81 1141.93,1072.69 1144.88,1075.55 1147.83,1078.39 1150.78,1081.21 1153.73,1084.01 1156.67,1086.79 1159.62,1089.55 1162.57,1092.3 1165.52,1095.02 1168.47,1097.73 1171.42,1100.41 1174.37,1103.08 1177.31,1105.72 1180.26,1108.35 1183.21,1110.96 1186.16,1113.55 1189.11,1116.12 1192.06,1118.67 1195,1121.2 1197.95,1123.71 1200.9,1126.21 1203.85,1128.68 1206.8,1131.14 1209.75,1133.57 1212.69,1135.99 1215.64,1138.39 1218.59,1140.77 1221.54,1143.13 1224.49,1145.47 1227.44,1147.8 1230.39,1150.1 1233.33,1152.39 1236.28,1154.66 1239.23,1156.91 1242.18,1159.14 1245.13,1161.36 1248.08,1163.55 1251.02,1165.73 1253.97,1167.89 1256.92,1170.04 1259.87,1172.16 1262.82,1174.27 1265.77,1176.36 1268.71,1178.44 1271.66,1180.49 1274.61,1182.53 1277.56,1184.55 1280.51,1186.56 1283.46,1188.55 1286.41,1190.52 1289.35,1192.47 1292.3,1194.41 1295.25,1196.33 1298.2,1198.24 1301.15,1200.13 1304.1,1202 1307.04,1203.86 1309.99,1205.7 1312.94,1207.52 1315.89,1209.33 1318.84,1211.13 1321.79,1212.91 1324.73,1214.67 1327.68,1216.42 1330.63,1218.15 1333.58,1219.87 1336.53,1221.57 1339.48,1223.26 1342.43,1224.94 1345.37,1226.6 1348.32,1228.24 1351.27,1229.87 1354.22,1231.49 1357.17,1233.09 1360.12,1234.68 1363.06,1236.25 1366.01,1237.81 1368.96,1239.35 1371.91,1240.89 1374.86,1242.41 1377.81,1243.91 1380.75,1245.4 1383.7,1246.88 1386.65,1248.35 1389.6,1249.8 1392.55,1251.24 1395.5,1252.66 1398.45,1254.08 1401.39,1255.48 1404.34,1256.87 1407.29,1258.24 1410.24,1259.61 1413.19,1260.96 1416.14,1262.3 1419.08,1263.63 1422.03,1264.94 1424.98,1266.24 1427.93,1267.54 1430.88,1268.82 1433.83,1270.08 1436.77,1271.34 1439.72,1272.59 1442.67,1273.82 1445.62,1275.04 1448.57,1276.26 1451.52,1277.46 1454.47,1278.65 1457.41,1279.83 1460.36,1280.99 1463.31,1282.15 1466.26,1283.3 1469.21,1284.44 1472.16,1285.56 1475.1,1286.68 1478.05,1287.78 1481,1288.88 1483.95,1289.97 1486.9,1291.04 1489.85,1292.11 1492.79,1293.16 1495.74,1294.21 1498.69,1295.25 1501.64,1296.27 1504.59,1297.29 1507.54,1298.3 1510.49,1299.3 1513.43,1300.29 1516.38,1301.27 1519.33,1302.24 1522.28,1303.21 1525.23,1304.16 1528.18,1305.1 1531.12,1306.04 1534.07,1306.97 1537.02,1307.89 1539.97,1308.8 1542.92,1309.7 1545.87,1310.59 1548.81,1311.48 1551.76,1312.36 1554.71,1313.23 1557.66,1314.09 1560.61,1314.94 1563.56,1315.78 1566.51,1316.62 1569.45,1317.45 1572.4,1318.27 1575.35,1319.09 1578.3,1319.89 1581.25,1320.69 1584.2,1321.48 1587.14,1322.27 1590.09,1323.04 1593.04,1323.81 1595.99,1324.57 1598.94,1325.33 1601.89,1326.08 1604.83,1326.82 1607.78,1327.55 1610.73,1328.28 1613.68,1329 1616.63,1329.71 1619.58,1330.42 1622.53,1331.12 1625.47,1331.82 1628.42,1332.5 1631.37,1333.18 1634.32,1333.86 1637.27,1334.53 1640.22,1335.19 1643.16,1335.85 1646.11,1336.5 1649.06,1337.14 1652.01,1337.78 1654.96,1338.41 1657.91,1339.03 1660.85,1339.65 1663.8,1340.27 1666.75,1340.88 1669.7,1341.48 1672.65,1342.08 1675.6,1342.67 1678.55,1343.25 1681.49,1343.83 1684.44,1344.41 1687.39,1344.98 1690.34,1345.54 1693.29,1346.1 1696.24,1346.65 1699.18,1347.2 1702.13,1347.74 1705.08,1348.28 1708.03,1348.82 1710.98,1349.34 1713.93,1349.87 1716.87,1350.38 1719.82,1350.9 1722.77,1351.4 1725.72,1351.91 1728.67,1352.41 1731.62,1352.9 1734.57,1353.39 1737.51,1353.87 1740.46,1354.35 1743.41,1354.83 1746.36,1355.3 1749.31,1355.77 1752.26,1356.23 1755.2,1356.69 1758.15,1357.14 1761.1,1357.59 1764.05,1358.03 1767,1358.47 1769.95,1358.91 1772.89,1359.34 1775.84,1359.77 1778.79,1360.19 1781.74,1360.61 1784.69,1361.03 1787.64,1361.44 1790.59,1361.85 1793.53,1362.25 1796.48,1362.65 1799.43,1363.05 1802.38,1363.44 1805.33,1363.83 1808.28,1364.22 1811.22,1364.6 1814.17,1364.98 1817.12,1365.35 1820.07,1365.72 1823.02,1366.09 1825.97,1366.45 1828.91,1366.81 1831.86,1367.17 1834.81,1367.53 1837.76,1367.88 1840.71,1368.22 1843.66,1368.57 1846.61,1368.91 1849.55,1369.25 1852.5,1369.58 1855.45,1369.91 1858.4,1370.24 1861.35,1370.56 1864.3,1370.88 1867.24,1371.2 1870.19,1371.52 1873.14,1371.83 1876.09,1372.14 1879.04,1372.45 1881.99,1372.75 1884.93,1373.05 1887.88,1373.35 1890.83,1373.65 1893.78,1373.94 1896.73,1374.23 1899.68,1374.51 1902.63,1374.8 1905.57,1375.08 1908.52,1375.36 1911.47,1375.63 1914.42,1375.91 1917.37,1376.18 1920.32,1376.45 1923.26,1376.71 1926.21,1376.97 1929.16,1377.24 1932.11,1377.49 1935.06,1377.75 1938.01,1378 1940.95,1378.25 1943.9,1378.5 1946.85,1378.75 1949.8,1378.99 1952.75,1379.23 1955.7,1379.47 1958.65,1379.71 1961.59,1379.94 1964.54,1380.17 1967.49,1380.4 1970.44,1380.63 1973.39,1380.86 1976.34,1381.08 1979.28,1381.3 1982.23,1381.52 1985.18,1381.74 1988.13,1381.95 1991.08,1382.17 1994.03,1382.38 1996.97,1382.59 1999.92,1382.79 2002.87,1383 2005.82,1383.2 2008.77,1383.4 2011.72,1383.6 2014.67,1383.8 2017.61,1383.99 2020.56,1384.19 2023.51,1384.38 2026.46,1384.57 2029.41,1384.76 2032.36,1384.94 2035.3,1385.13 2038.25,1385.31 2041.2,1385.49 2044.15,1385.67 2047.1,1385.85 2050.05,1386.02 2052.99,1386.2 2055.94,1386.37 2058.89,1386.54 2061.84,1386.71 2064.79,1386.88 2067.74,1387.04 2070.69,1387.21 2073.63,1387.37 2076.58,1387.53 2079.53,1387.69 2082.48,1387.85 2085.43,1388 2088.38,1388.16 2091.32,1388.31 2094.27,1388.47 2097.22,1388.62 2100.17,1388.77 2103.12,1388.91 2106.07,1389.06 2109.01,1389.21 2111.96,1389.35 2114.91,1389.49 2117.86,1389.63 2120.81,1389.77 2123.76,1389.91 2126.71,1390.05 2129.65,1390.18 2132.6,1390.32 2135.55,1390.45 2138.5,1390.58 2141.45,1390.71 2144.4,1390.84 2147.34,1390.97 2150.29,1391.1 2153.24,1391.22 2156.19,1391.35 2159.14,1391.47 2162.09,1391.59 2165.03,1391.71 2167.98,1391.83 2170.93,1391.95 2173.88,1392.07 2176.83,1392.18 2179.78,1392.3 2182.73,1392.41 2185.67,1392.53 2188.62,1392.64 2191.57,1392.75 2194.52,1392.86 2197.47,1392.97 2200.42,1393.07 2203.36,1393.18 2206.31,1393.29 2209.26,1393.39 2212.21,1393.49 2215.16,1393.6 2218.11,1393.7 2221.05,1393.8 2224,1393.9 2226.95,1394 2229.9,1394.09 2232.85,1394.19 2235.8,1394.29 2238.75,1394.38 2241.69,1394.48 2244.64,1394.57 2247.59,1394.66 2250.54,1394.75 2253.49,1394.84 2256.44,1394.93 2259.38,1395.02 2262.33,1395.11 2265.28,1395.2 2268.23,1395.28 2271.18,1395.37 2274.13,1395.45 2277.07,1395.54 2280.02,1395.62 2282.97,1395.7 2285.92,1395.78 2288.87,1395.86 2291.82,1395.94 2294.77,1396.02 2297.71,1396.1 2300.66,1396.18 2303.61,1396.26 2306.56,1396.33 2309.51,1396.41 2312.46,1396.48 2315.4,1396.56 2318.35,1396.63 2321.3,1396.7 2324.25,1396.77 2327.2,1396.84 2330.15,1396.91 2333.09,1396.98 2336.04,1397.05 2338.99,1397.12 2341.94,1397.19 2344.89,1397.26 2347.84,1397.32 2350.79,1397.39 2353.73,1397.45 2356.68,1397.52 2359.63,1397.58 2362.58,1397.65 2365.53,1397.71 2368.48,1397.77 2371.42,1397.83 2374.37,1397.89 2377.32,1397.95 2380.27,1398.01 2383.22,1398.07 2386.17,1398.13 2389.11,1398.19 2392.06,1398.25 2395.01,1398.3 2397.96,1398.36 2400.91,1398.42 2403.86,1398.47 2406.81,1398.53 2409.75,1398.58 2412.7,1398.64 2415.65,1398.69 2418.6,1398.74 2421.55,1398.79 2424.5,1398.85 2427.44,1398.9 2430.39,1398.95 2433.34,1399 2436.29,1399.05 2439.24,1399.1 2442.19,1399.14 2445.13,1399.19 2448.08,1399.24 2451.03,1399.29 2453.98,1399.34 2456.93,1399.38 2459.88,1399.43 2462.83,1399.47 2465.77,1399.52 2468.72,1399.56 2471.67,1399.61 2474.62,1399.65 2477.57,1399.7 2480.52,1399.74 2483.46,1399.78 2486.41,1399.82 2489.36,1399.86 2492.31,1399.91 2495.26,1399.95 2498.21,1399.99 2501.15,1400.03 2504.1,1400.07 2507.05,1400.11 2510,1400.15 2512.95,1400.19 2515.9,1400.22 2518.85,1400.26 2521.79,1400.3 2524.74,1400.34 2527.69,1400.37 2530.64,1400.41 2533.59,1400.45 2536.54,1400.48 2539.48,1400.52 2542.43,1400.55 2545.38,1400.59 2548.33,1400.62 2551.28,1400.66 2554.23,1400.69 2557.17,1400.72 2560.12,1400.76 2563.07,1400.79 2566.02,1400.82 2568.97,1400.85 2571.92,1400.89 2574.87,1400.92 2577.81,1400.95 2580.76,1400.98 2583.71,1401.01 2586.66,1401.04 2589.61,1401.07 2592.56,1401.1 2595.5,1401.13 2598.45,1401.16 2601.4,1401.19 2604.35,1401.22 2607.3,1401.25 2610.25,1401.28 2613.19,1401.3 2616.14,1401.33 2619.09,1401.36 2622.04,1401.39 2624.99,1401.41 2627.94,1401.44 2630.89,1401.46 2633.83,1401.49 2636.78,1401.52 2639.73,1401.54 2642.68,1401.57 2645.63,1401.59 2648.58,1401.62 2651.52,1401.64 2654.47,1401.67 2657.42,1401.69 2660.37,1401.71 2663.32,1401.74 2666.27,1401.76 2669.21,1401.78 2672.16,1401.81 2675.11,1401.83 2678.06,1401.85 2681.01,1401.88 2683.96,1401.9 2686.91,1401.92 2689.85,1401.94 2692.8,1401.96 2695.75,1401.98 2698.7,1402 2701.65,1402.03 2704.6,1402.05 2707.54,1402.07 2710.49,1402.09 2713.44,1402.11 2716.39,1402.13 2719.34,1402.15 2722.29,1402.17 2725.23,1402.19 2728.18,1402.2 2731.13,1402.22 2734.08,1402.24 2737.03,1402.26 2739.98,1402.28 2742.93,1402.3 2745.87,1402.32 2748.82,1402.33 2751.77,1402.35 2754.72,1402.37 2757.67,1402.39 2760.62,1402.4 2763.56,1402.42 2766.51,1402.44 2769.46,1402.45 2772.41,1402.47 2775.36,1402.49 2778.31,1402.5 2781.25,1402.52 2784.2,1402.54 2787.15,1402.55 2790.1,1402.57 2793.05,1402.58 2796,1402.6 2798.95,1402.61 2801.89,1402.63 2804.84,1402.64 2807.79,1402.66 2810.74,1402.67 2813.69,1402.69 2816.64,1402.7 2819.58,1402.72 2822.53,1402.73 2825.48,1402.74 2828.43,1402.76 2831.38,1402.77 2834.33,1402.78 2837.27,1402.8 2840.22,1402.81 2843.17,1402.82 2846.12,1402.84 2849.07,1402.85 2852.02,1402.86 2854.97,1402.88 2857.91,1402.89 2860.86,1402.9 2863.81,1402.91 2866.76,1402.92 2869.71,1402.94 2872.66,1402.95 2875.6,1402.96 2878.55,1402.97 2881.5,1402.98 2884.45,1403 2887.4,1403.01 2890.35,1403.02 2893.29,1403.03 2896.24,1403.04 2899.19,1403.05 2902.14,1403.06 2905.09,1403.07 2908.04,1403.08 2910.99,1403.09 2913.93,1403.1 2916.88,1403.11 2919.83,1403.12 2922.78,1403.13 2925.73,1403.14 2928.68,1403.15 2931.62,1403.16 2934.57,1403.17 2937.52,1403.18 2940.47,1403.19 2943.42,1403.2 2946.37,1403.21 2949.31,1403.22 2952.26,1403.23 2955.21,1403.24 2958.16,1403.25 2961.11,1403.26 2964.06,1403.27 2967.01,1403.28 2969.95,1403.28 2972.9,1403.29 2975.85,1403.3 2978.8,1403.31 2981.75,1403.32 2984.7,1403.33 2987.64,1403.33 2990.59,1403.34 2993.54,1403.35 2996.49,1403.36 2999.44,1403.37 3002.39,1403.37 3005.33,1403.38 3008.28,1403.39 3011.23,1403.4 3014.18,1403.4 3017.13,1403.41 3020.08,1403.42 3023.03,1403.43 3025.97,1403.43 3028.92,1403.44 3031.87,1403.45 3034.82,1403.46 3037.77,1403.46 3040.72,1403.47 3043.66,1403.48 3046.61,1403.48 3049.56,1403.49 3052.51,1403.5 3055.46,1403.5 3058.41,1403.51 3061.35,1403.52 3064.3,1403.52 3067.25,1403.53 3070.2,1403.53 3073.15,1403.54 3076.1,1403.55 3079.05,1403.55 3081.99,1403.56 3084.94,1403.56 3087.89,1403.57 3090.84,1403.58 3093.79,1403.58 3096.74,1403.59 3099.68,1403.59 3102.63,1403.6 3105.58,1403.6 3108.53,1403.61 3111.48,1403.62 3114.43,1403.62 3117.37,1403.63 3120.32,1403.63 3123.27,1403.64 3126.22,1403.64 3129.17,1403.65 3132.12,1403.65 3135.07,1403.66 3138.01,1403.66 3140.96,1403.67 3143.91,1403.67 3146.86,1403.68 3149.81,1403.68 3152.76,1403.69 "/>
<polyline clip-path="url(#clip841)" style="stroke:#3da44d; stroke-linecap:round; stroke-linejoin:round; stroke-width:16; stroke-opacity:1; fill:none" points="207.283,1404.18 210.232,1404.16 213.18,1404.15 216.128,1404.14 219.077,1404.12 222.025,1404.1 224.974,1404.09 227.922,1404.07 230.871,1404.05 233.819,1404.03 236.767,1404.02 239.716,1404 242.664,1403.97 245.613,1403.95 248.561,1403.93 251.51,1403.91 254.458,1403.88 257.406,1403.86 260.355,1403.83 263.303,1403.8 266.252,1403.77 269.2,1403.74 272.148,1403.71 275.097,1403.68 278.045,1403.65 280.994,1403.61 283.942,1403.57 286.891,1403.54 289.839,1403.5 292.787,1403.46 295.736,1403.41 298.684,1403.37 301.633,1403.32 304.581,1403.27 307.53,1403.22 310.478,1403.17 313.426,1403.12 316.375,1403.06 319.323,1403 322.272,1402.94 325.22,1402.88 328.168,1402.81 331.117,1402.74 334.065,1402.67 337.014,1402.59 339.962,1402.52 342.911,1402.43 345.859,1402.35 348.807,1402.26 351.756,1402.17 354.704,1402.08 357.653,1401.98 360.601,1401.87 363.55,1401.77 366.498,1401.66 369.446,1401.54 372.395,1401.42 375.343,1401.3 378.292,1401.16 381.24,1401.03 384.188,1400.89 387.137,1400.74 390.085,1400.59 393.034,1400.43 395.982,1400.27 398.931,1400.09 401.879,1399.92 404.827,1399.73 407.776,1399.54 410.724,1399.34 413.673,1399.13 416.621,1398.91 419.57,1398.69 422.518,1398.45 425.466,1398.21 428.415,1397.95 431.363,1397.69 434.312,1397.42 437.26,1397.13 440.208,1396.84 443.157,1396.53 446.105,1396.21 449.054,1395.88 452.002,1395.53 454.951,1395.17 457.899,1394.8 460.847,1394.41 463.796,1394.01 466.744,1393.59 469.693,1393.16 472.641,1392.71 475.59,1392.24 478.538,1391.75 481.486,1391.25 484.435,1390.72 487.383,1390.18 490.332,1389.61 493.28,1389.03 496.228,1388.42 499.177,1387.78 502.125,1387.13 505.074,1386.45 508.022,1385.74 510.971,1385.01 513.919,1384.25 516.867,1383.46 519.816,1382.65 522.764,1381.8 525.713,1380.92 528.661,1380.01 531.61,1379.07 534.558,1378.09 537.506,1377.08 540.455,1376.03 543.403,1374.95 546.352,1373.83 549.3,1372.66 552.248,1371.46 555.197,1370.21 558.145,1368.93 561.094,1367.59 564.042,1366.22 566.991,1364.79 569.939,1363.32 572.887,1361.8 575.836,1360.22 578.784,1358.6 581.733,1356.92 584.681,1355.19 587.63,1353.41 590.578,1351.56 593.526,1349.66 596.475,1347.7 599.423,1345.68 602.372,1343.6 605.32,1341.46 608.268,1339.25 611.217,1336.98 614.165,1334.64 617.114,1332.23 620.062,1329.75 623.011,1327.21 625.959,1324.59 628.907,1321.9 631.856,1319.14 634.804,1316.31 637.753,1313.4 640.701,1310.42 643.65,1307.36 646.598,1304.23 649.546,1301.01 652.495,1297.73 655.443,1294.36 658.392,1290.92 661.34,1287.39 664.288,1283.79 667.237,1280.11 670.185,1276.35 673.134,1272.51 676.082,1268.6 679.031,1264.6 681.979,1260.52 684.927,1256.37 687.876,1252.14 690.824,1247.83 693.773,1243.44 696.721,1238.98 699.67,1234.45 702.618,1229.84 705.566,1225.15 708.515,1220.4 711.463,1215.57 714.412,1210.68 717.36,1205.71 720.308,1200.68 723.257,1195.58 726.205,1190.42 729.154,1185.19 732.102,1179.9 735.051,1174.55 737.999,1169.14 740.947,1163.67 743.896,1158.15 746.844,1152.58 749.793,1146.95 752.741,1141.27 755.69,1135.54 758.638,1129.77 761.586,1123.95 764.535,1118.09 767.483,1112.19 770.432,1106.26 773.38,1100.28 776.328,1094.27 779.277,1088.23 782.225,1082.16 785.174,1076.05 788.122,1069.93 791.071,1063.77 794.019,1057.6 796.967,1051.4 799.916,1045.19 802.864,1038.95 805.813,1032.7 808.761,1026.44 811.71,1020.16 814.658,1013.88 817.606,1007.58 820.555,1001.28 823.503,994.971 826.452,988.659 829.4,982.345 832.348,976.031 835.297,969.717 838.245,963.407 841.194,957.1 844.142,950.8 847.091,944.506 850.039,938.222 852.987,931.946 855.936,925.682 858.884,919.429 861.833,913.189 864.781,906.963 867.73,900.751 870.678,894.556 873.626,888.377 876.575,882.216 879.523,876.074 882.472,869.951 885.42,863.849 888.368,857.768 891.317,851.709 894.265,845.673 897.214,839.66 900.162,833.672 903.111,827.709 906.059,821.772 909.007,815.861 911.956,809.977 914.904,804.121 917.853,798.294 920.801,792.495 923.75,786.726 926.698,780.987 929.646,775.278 932.595,769.6 935.543,763.954 938.492,758.34 941.44,752.758 944.388,747.209 947.337,741.692 950.285,736.209 953.234,730.759 956.182,725.342 959.131,719.959 962.079,714.609 965.027,709.294 967.976,704.012 970.924,698.764 973.873,693.551 976.821,688.372 979.77,683.228 982.718,678.118 985.666,673.043 988.615,668.002 991.563,662.997 994.512,658.026 997.46,653.09 1000.41,648.189 1003.36,643.323 1006.31,638.493 1009.25,633.697 1012.2,628.936 1015.15,624.21 1018.1,619.519 1021.05,614.863 1024,610.242 1026.94,605.655 1029.89,601.103 1032.84,596.586 1035.79,592.104 1038.74,587.656 1041.69,583.242 1044.63,578.863 1047.58,574.518 1050.53,570.207 1053.48,565.929 1056.43,561.686 1059.38,557.476 1062.33,553.3 1065.27,549.157 1068.22,545.048 1071.17,540.971 1074.12,536.927 1077.07,532.916 1080.02,528.938 1082.96,524.992 1085.91,521.078 1088.86,517.197 1091.81,513.347 1094.76,509.529 1097.71,505.743 1100.65,501.989 1103.6,498.265 1106.55,494.573 1109.5,490.912 1112.45,487.281 1115.4,483.681 1118.35,480.112 1121.29,476.572 1124.24,473.063 1127.19,469.584 1130.14,466.134 1133.09,462.714 1136.04,459.323 1138.98,455.962 1141.93,452.629 1144.88,449.325 1147.83,446.05 1150.78,442.803 1153.73,439.584 1156.67,436.393 1159.62,433.23 1162.57,430.094 1165.52,426.986 1168.47,423.905 1171.42,420.851 1174.37,417.823 1177.31,414.823 1180.26,411.848 1183.21,408.9 1186.16,405.978 1189.11,403.082 1192.06,400.211 1195,397.366 1197.95,394.546 1200.9,391.751 1203.85,388.981 1206.8,386.235 1209.75,383.514 1212.69,380.818 1215.64,378.145 1218.59,375.496 1221.54,372.871 1224.49,370.27 1227.44,367.692 1230.39,365.137 1233.33,362.605 1236.28,360.096 1239.23,357.609 1242.18,355.145 1245.13,352.704 1248.08,350.284 1251.02,347.886 1253.97,345.51 1256.92,343.156 1259.87,340.823 1262.82,338.511 1265.77,336.22 1268.71,333.95 1271.66,331.7 1274.61,329.472 1277.56,327.263 1280.51,325.075 1283.46,322.906 1286.41,320.758 1289.35,318.629 1292.3,316.52 1295.25,314.43 1298.2,312.359 1301.15,310.307 1304.1,308.274 1307.04,306.259 1309.99,304.263 1312.94,302.285 1315.89,300.326 1318.84,298.384 1321.79,296.461 1324.73,294.555 1327.68,292.667 1330.63,290.796 1333.58,288.942 1336.53,287.106 1339.48,285.286 1342.43,283.484 1345.37,281.698 1348.32,279.928 1351.27,278.175 1354.22,276.439 1357.17,274.718 1360.12,273.013 1363.06,271.324 1366.01,269.651 1368.96,267.993 1371.91,266.351 1374.86,264.724 1377.81,263.112 1380.75,261.516 1383.7,259.934 1386.65,258.367 1389.6,256.814 1392.55,255.276 1395.5,253.752 1398.45,252.243 1401.39,250.747 1404.34,249.266 1407.29,247.798 1410.24,246.344 1413.19,244.904 1416.14,243.477 1419.08,242.064 1422.03,240.663 1424.98,239.276 1427.93,237.902 1430.88,236.541 1433.83,235.192 1436.77,233.856 1439.72,232.533 1442.67,231.222 1445.62,229.923 1448.57,228.637 1451.52,227.362 1454.47,226.1 1457.41,224.849 1460.36,223.61 1463.31,222.383 1466.26,221.167 1469.21,219.963 1472.16,218.769 1475.1,217.588 1478.05,216.417 1481,215.257 1483.95,214.108 1486.9,212.97 1489.85,211.843 1492.79,210.726 1495.74,209.62 1498.69,208.524 1501.64,207.439 1504.59,206.363 1507.54,205.298 1510.49,204.243 1513.43,203.198 1516.38,202.163 1519.33,201.138 1522.28,200.122 1525.23,199.116 1528.18,198.12 1531.12,197.132 1534.07,196.155 1537.02,195.186 1539.97,194.227 1542.92,193.277 1545.87,192.335 1548.81,191.403 1551.76,190.48 1554.71,189.565 1557.66,188.659 1560.61,187.761 1563.56,186.872 1566.51,185.992 1569.45,185.12 1572.4,184.256 1575.35,183.4 1578.3,182.553 1581.25,181.713 1584.2,180.881 1587.14,180.058 1590.09,179.242 1593.04,178.434 1595.99,177.633 1598.94,176.84 1601.89,176.055 1604.83,175.277 1607.78,174.507 1610.73,173.743 1613.68,172.988 1616.63,172.239 1619.58,171.497 1622.53,170.762 1625.47,170.035 1628.42,169.314 1631.37,168.6 1634.32,167.893 1637.27,167.192 1640.22,166.498 1643.16,165.811 1646.11,165.13 1649.06,164.456 1652.01,163.788 1654.96,163.126 1657.91,162.471 1660.85,161.822 1663.8,161.179 1666.75,160.542 1669.7,159.911 1672.65,159.287 1675.6,158.668 1678.55,158.055 1681.49,157.448 1684.44,156.846 1687.39,156.251 1690.34,155.661 1693.29,155.077 1696.24,154.498 1699.18,153.925 1702.13,153.357 1705.08,152.794 1708.03,152.238 1710.98,151.686 1713.93,151.14 1716.87,150.598 1719.82,150.062 1722.77,149.532 1725.72,149.006 1728.67,148.485 1731.62,147.969 1734.57,147.458 1737.51,146.953 1740.46,146.451 1743.41,145.955 1746.36,145.464 1749.31,144.977 1752.26,144.494 1755.2,144.017 1758.15,143.544 1761.1,143.075 1764.05,142.611 1767,142.152 1769.95,141.696 1772.89,141.246 1775.84,140.799 1778.79,140.357 1781.74,139.919 1784.69,139.485 1787.64,139.055 1790.59,138.63 1793.53,138.208 1796.48,137.791 1799.43,137.377 1802.38,136.967 1805.33,136.562 1808.28,136.16 1811.22,135.762 1814.17,135.368 1817.12,134.977 1820.07,134.591 1823.02,134.208 1825.97,133.828 1828.91,133.453 1831.86,133.081 1834.81,132.712 1837.76,132.347 1840.71,131.985 1843.66,131.627 1846.61,131.272 1849.55,130.921 1852.5,130.573 1855.45,130.228 1858.4,129.887 1861.35,129.548 1864.3,129.213 1867.24,128.882 1870.19,128.553 1873.14,128.228 1876.09,127.905 1879.04,127.586 1881.99,127.27 1884.93,126.956 1887.88,126.646 1890.83,126.339 1893.78,126.035 1896.73,125.733 1899.68,125.435 1902.63,125.139 1905.57,124.846 1908.52,124.557 1911.47,124.269 1914.42,123.985 1917.37,123.703 1920.32,123.424 1923.26,123.148 1926.21,122.874 1929.16,122.603 1932.11,122.335 1935.06,122.069 1938.01,121.806 1940.95,121.545 1943.9,121.287 1946.85,121.031 1949.8,120.778 1952.75,120.527 1955.7,120.278 1958.65,120.032 1961.59,119.788 1964.54,119.547 1967.49,119.308 1970.44,119.071 1973.39,118.837 1976.34,118.605 1979.28,118.375 1982.23,118.147 1985.18,117.921 1988.13,117.698 1991.08,117.476 1994.03,117.257 1996.97,117.04 1999.92,116.825 2002.87,116.612 2005.82,116.401 2008.77,116.192 2011.72,115.986 2014.67,115.781 2017.61,115.578 2020.56,115.377 2023.51,115.178 2026.46,114.981 2029.41,114.785 2032.36,114.592 2035.3,114.4 2038.25,114.211 2041.2,114.023 2044.15,113.837 2047.1,113.652 2050.05,113.47 2052.99,113.289 2055.94,113.11 2058.89,112.932 2061.84,112.756 2064.79,112.582 2067.74,112.41 2070.69,112.239 2073.63,112.07 2076.58,111.903 2079.53,111.737 2082.48,111.572 2085.43,111.41 2088.38,111.248 2091.32,111.089 2094.27,110.931 2097.22,110.774 2100.17,110.619 2103.12,110.465 2106.07,110.313 2109.01,110.163 2111.96,110.013 2114.91,109.866 2117.86,109.719 2120.81,109.574 2123.76,109.431 2126.71,109.289 2129.65,109.148 2132.6,109.008 2135.55,108.87 2138.5,108.733 2141.45,108.598 2144.4,108.464 2147.34,108.331 2150.29,108.199 2153.24,108.069 2156.19,107.94 2159.14,107.812 2162.09,107.685 2165.03,107.56 2167.98,107.436 2170.93,107.313 2173.88,107.191 2176.83,107.071 2179.78,106.951 2182.73,106.833 2185.67,106.716 2188.62,106.6 2191.57,106.485 2194.52,106.371 2197.47,106.258 2200.42,106.147 2203.36,106.036 2206.31,105.927 2209.26,105.818 2212.21,105.711 2215.16,105.604 2218.11,105.499 2221.05,105.395 2224,105.291 2226.95,105.189 2229.9,105.088 2232.85,104.987 2235.8,104.888 2238.75,104.789 2241.69,104.692 2244.64,104.595 2247.59,104.5 2250.54,104.405 2253.49,104.311 2256.44,104.218 2259.38,104.126 2262.33,104.035 2265.28,103.945 2268.23,103.855 2271.18,103.767 2274.13,103.679 2277.07,103.592 2280.02,103.506 2282.97,103.421 2285.92,103.336 2288.87,103.253 2291.82,103.17 2294.77,103.088 2297.71,103.006 2300.66,102.926 2303.61,102.846 2306.56,102.767 2309.51,102.689 2312.46,102.612 2315.4,102.535 2318.35,102.459 2321.3,102.384 2324.25,102.309 2327.2,102.235 2330.15,102.162 2333.09,102.09 2336.04,102.018 2338.99,101.947 2341.94,101.877 2344.89,101.807 2347.84,101.738 2350.79,101.67 2353.73,101.602 2356.68,101.535 2359.63,101.469 2362.58,101.403 2365.53,101.338 2368.48,101.274 2371.42,101.21 2374.37,101.147 2377.32,101.084 2380.27,101.022 2383.22,100.961 2386.17,100.9 2389.11,100.839 2392.06,100.78 2395.01,100.721 2397.96,100.662 2400.91,100.604 2403.86,100.547 2406.81,100.49 2409.75,100.434 2412.7,100.378 2415.65,100.323 2418.6,100.268 2421.55,100.214 2424.5,100.161 2427.44,100.108 2430.39,100.055 2433.34,100.003 2436.29,99.9513 2439.24,99.9003 2442.19,99.8497 2445.13,99.7996 2448.08,99.75 2451.03,99.7008 2453.98,99.6522 2456.93,99.604 2459.88,99.5562 2462.83,99.509 2465.77,99.4622 2468.72,99.4158 2471.67,99.3699 2474.62,99.3244 2477.57,99.2793 2480.52,99.2347 2483.46,99.1905 2486.41,99.1467 2489.36,99.1034 2492.31,99.0604 2495.26,99.0179 2498.21,98.9758 2501.15,98.934 2504.1,98.8927 2507.05,98.8518 2510,98.8112 2512.95,98.7711 2515.9,98.7313 2518.85,98.6919 2521.79,98.6529 2524.74,98.6142 2527.69,98.576 2530.64,98.5381 2533.59,98.5005 2536.54,98.4633 2539.48,98.4265 2542.43,98.39 2545.38,98.3539 2548.33,98.3181 2551.28,98.2826 2554.23,98.2475 2557.17,98.2128 2560.12,98.1783 2563.07,98.1442 2566.02,98.1105 2568.97,98.077 2571.92,98.0439 2574.87,98.0111 2577.81,97.9786 2580.76,97.9464 2583.71,97.9146 2586.66,97.883 2589.61,97.8518 2592.56,97.8208 2595.5,97.7902 2598.45,97.7598 2601.4,97.7297 2604.35,97.7 2607.3,97.6705 2610.25,97.6413 2613.19,97.6124 2616.14,97.5837 2619.09,97.5554 2622.04,97.5273 2624.99,97.4995 2627.94,97.4719 2630.89,97.4446 2633.83,97.4176 2636.78,97.3909 2639.73,97.3644 2642.68,97.3381 2645.63,97.3121 2648.58,97.2864 2651.52,97.2609 2654.47,97.2357 2657.42,97.2107 2660.37,97.1859 2663.32,97.1614 2666.27,97.1371 2669.21,97.1131 2672.16,97.0893 2675.11,97.0657 2678.06,97.0423 2681.01,97.0192 2683.96,96.9963 2686.91,96.9736 2689.85,96.9511 2692.8,96.9289 2695.75,96.9068 2698.7,96.885 2701.65,96.8634 2704.6,96.8419 2707.54,96.8207 2710.49,96.7997 2713.44,96.7789 2716.39,96.7583 2719.34,96.7379 2722.29,96.7177 2725.23,96.6977 2728.18,96.6778 2731.13,96.6582 2734.08,96.6388 2737.03,96.6195 2739.98,96.6004 2742.93,96.5815 2745.87,96.5628 2748.82,96.5442 2751.77,96.5259 2754.72,96.5077 2757.67,96.4896 2760.62,96.4718 2763.56,96.4541 2766.51,96.4366 2769.46,96.4193 2772.41,96.4021 2775.36,96.3851 2778.31,96.3682 2781.25,96.3515 2784.2,96.335 2787.15,96.3186 2790.1,96.3024 2793.05,96.2864 2796,96.2705 2798.95,96.2547 2801.89,96.2391 2804.84,96.2237 2807.79,96.2084 2810.74,96.1932 2813.69,96.1782 2816.64,96.1634 2819.58,96.1486 2822.53,96.1341 2825.48,96.1196 2828.43,96.1053 2831.38,96.0912 2834.33,96.0772 2837.27,96.0633 2840.22,96.0495 2843.17,96.0359 2846.12,96.0224 2849.07,96.0091 2852.02,95.9958 2854.97,95.9827 2857.91,95.9698 2860.86,95.9569 2863.81,95.9442 2866.76,95.9316 2869.71,95.9191 2872.66,95.9068 2875.6,95.8945 2878.55,95.8824 2881.5,95.8704 2884.45,95.8585 2887.4,95.8467 2890.35,95.8351 2893.29,95.8235 2896.24,95.8121 2899.19,95.8008 2902.14,95.7896 2905.09,95.7785 2908.04,95.7675 2910.99,95.7566 2913.93,95.7458 2916.88,95.7351 2919.83,95.7245 2922.78,95.7141 2925.73,95.7037 2928.68,95.6934 2931.62,95.6832 2934.57,95.6732 2937.52,95.6632 2940.47,95.6533 2943.42,95.6435 2946.37,95.6338 2949.31,95.6242 2952.26,95.6147 2955.21,95.6053 2958.16,95.5959 2961.11,95.5867 2964.06,95.5775 2967.01,95.5685 2969.95,95.5595 2972.9,95.5506 2975.85,95.5418 2978.8,95.5331 2981.75,95.5244 2984.7,95.5158 2987.64,95.5074 2990.59,95.499 2993.54,95.4906 2996.49,95.4824 2999.44,95.4742 3002.39,95.4662 3005.33,95.4582 3008.28,95.4502 3011.23,95.4424 3014.18,95.4346 3017.13,95.4269 3020.08,95.4193 3023.03,95.4117 3025.97,95.4042 3028.92,95.3968 3031.87,95.3895 3034.82,95.3822 3037.77,95.375 3040.72,95.3679 3043.66,95.3608 3046.61,95.3538 3049.56,95.3469 3052.51,95.3401 3055.46,95.3333 3058.41,95.3265 3061.35,95.3199 3064.3,95.3133 3067.25,95.3067 3070.2,95.3003 3073.15,95.2939 3076.1,95.2875 3079.05,95.2812 3081.99,95.275 3084.94,95.2688 3087.89,95.2627 3090.84,95.2567 3093.79,95.2507 3096.74,95.2448 3099.68,95.2389 3102.63,95.2331 3105.58,95.2273 3108.53,95.2216 3111.48,95.2159 3114.43,95.2104 3117.37,95.2048 3120.32,95.1993 3123.27,95.1939 3126.22,95.1885 3129.17,95.1832 3132.12,95.1779 3135.07,95.1726 3138.01,95.1675 3140.96,95.1623 3143.91,95.1572 3146.86,95.1522 3149.81,95.1472 3152.76,95.1423 "/>
<path clip-path="url(#clip840)" d="M305.466 301.153 L773.577 301.153 L773.577 93.7926 L305.466 93.7926  Z" fill="#ffffff" fill-rule="evenodd" fill-opacity="1"/>
<polyline clip-path="url(#clip840)" style="stroke:#000000; stroke-linecap:round; stroke-linejoin:round; stroke-width:4; stroke-opacity:1; fill:none" points="305.466,301.153 773.577,301.153 773.577,93.7926 305.466,93.7926 305.466,301.153 "/>
<polyline clip-path="url(#clip840)" style="stroke:#009af9; stroke-linecap:round; stroke-linejoin:round; stroke-width:16; stroke-opacity:1; fill:none" points="338.193,145.633 534.558,145.633 "/>
<path clip-path="url(#clip840)" d="M589.531 129.487 L589.531 134.047 Q586.869 132.774 584.508 132.149 Q582.146 131.524 579.947 131.524 Q576.128 131.524 574.045 133.005 Q571.984 134.487 571.984 137.218 Q571.984 139.51 573.35 140.691 Q574.739 141.848 578.582 142.566 L581.406 143.144 Q586.637 144.14 589.114 146.663 Q591.614 149.163 591.614 153.376 Q591.614 158.399 588.234 160.991 Q584.878 163.584 578.373 163.584 Q575.92 163.584 573.142 163.028 Q570.387 162.473 567.424 161.385 L567.424 156.57 Q570.272 158.167 573.003 158.977 Q575.734 159.788 578.373 159.788 Q582.378 159.788 584.554 158.214 Q586.73 156.64 586.73 153.723 Q586.73 151.177 585.156 149.741 Q583.605 148.306 580.04 147.589 L577.193 147.033 Q571.961 145.991 569.623 143.769 Q567.285 141.547 567.285 137.589 Q567.285 133.005 570.503 130.366 Q573.744 127.728 579.415 127.728 Q581.846 127.728 584.369 128.167 Q586.892 128.607 589.531 129.487 Z" fill="#000000" fill-rule="nonzero" fill-opacity="1" /><path clip-path="url(#clip840)" d="M624.021 126.941 Q620.919 132.265 619.415 137.473 Q617.91 142.681 617.91 148.028 Q617.91 153.376 619.415 158.63 Q620.943 163.862 624.021 169.163 L620.318 169.163 Q616.845 163.723 615.109 158.468 Q613.396 153.214 613.396 148.028 Q613.396 142.866 615.109 137.635 Q616.822 132.404 620.318 126.941 L624.021 126.941 Z" fill="#000000" fill-rule="nonzero" fill-opacity="1" /><path clip-path="url(#clip840)" d="M636.498 129.626 L636.498 136.987 L645.271 136.987 L645.271 140.297 L636.498 140.297 L636.498 154.371 Q636.498 157.542 637.354 158.445 Q638.234 159.348 640.896 159.348 L645.271 159.348 L645.271 162.913 L640.896 162.913 Q635.966 162.913 634.091 161.084 Q632.216 159.232 632.216 154.371 L632.216 140.297 L629.091 140.297 L629.091 136.987 L632.216 136.987 L632.216 129.626 L636.498 129.626 Z" fill="#000000" fill-rule="nonzero" fill-opacity="1" /><path clip-path="url(#clip840)" d="M665.896 140.968 Q665.178 140.552 664.322 140.366 Q663.489 140.158 662.47 140.158 Q658.859 140.158 656.915 142.519 Q654.993 144.857 654.993 149.255 L654.993 162.913 L650.711 162.913 L650.711 136.987 L654.993 136.987 L654.993 141.015 Q656.336 138.653 658.489 137.519 Q660.641 136.362 663.72 136.362 Q664.16 136.362 664.692 136.431 Q665.225 136.478 665.873 136.593 L665.896 140.968 Z" fill="#000000" fill-rule="nonzero" fill-opacity="1" /><path clip-path="url(#clip840)" d="M669.924 152.681 L669.924 136.987 L674.183 136.987 L674.183 152.519 Q674.183 156.2 675.618 158.052 Q677.053 159.88 679.924 159.88 Q683.373 159.88 685.363 157.681 Q687.377 155.482 687.377 151.686 L687.377 136.987 L691.637 136.987 L691.637 162.913 L687.377 162.913 L687.377 158.931 Q685.826 161.292 683.766 162.45 Q681.729 163.584 679.021 163.584 Q674.553 163.584 672.239 160.806 Q669.924 158.028 669.924 152.681 M680.641 136.362 L680.641 136.362 Z" fill="#000000" fill-rule="nonzero" fill-opacity="1" /><path clip-path="url(#clip840)" d="M722.586 148.885 L722.586 150.968 L703.002 150.968 Q703.28 155.366 705.641 157.681 Q708.025 159.973 712.261 159.973 Q714.715 159.973 717.007 159.371 Q719.322 158.769 721.59 157.565 L721.59 161.593 Q719.298 162.565 716.891 163.075 Q714.484 163.584 712.007 163.584 Q705.803 163.584 702.169 159.973 Q698.558 156.362 698.558 150.204 Q698.558 143.839 701.984 140.112 Q705.433 136.362 711.266 136.362 Q716.498 136.362 719.53 139.741 Q722.586 143.098 722.586 148.885 M718.326 147.635 Q718.28 144.14 716.359 142.056 Q714.461 139.973 711.312 139.973 Q707.748 139.973 705.595 141.987 Q703.465 144.001 703.141 147.658 L718.326 147.635 Z" fill="#000000" fill-rule="nonzero" fill-opacity="1" /><path clip-path="url(#clip840)" d="M728.905 126.941 L732.609 126.941 Q736.081 132.404 737.794 137.635 Q739.53 142.866 739.53 148.028 Q739.53 153.214 737.794 158.468 Q736.081 163.723 732.609 169.163 L728.905 169.163 Q731.984 163.862 733.488 158.63 Q735.016 153.376 735.016 148.028 Q735.016 142.681 733.488 137.473 Q731.984 132.265 728.905 126.941 Z" fill="#000000" fill-rule="nonzero" fill-opacity="1" /><polyline clip-path="url(#clip840)" style="stroke:#e26f46; stroke-linecap:round; stroke-linejoin:round; stroke-width:16; stroke-opacity:1; fill:none" points="338.193,197.473 534.558,197.473 "/>
<path clip-path="url(#clip840)" d="M567.285 180.193 L571.961 180.193 L571.961 214.753 L567.285 214.753 L567.285 180.193 Z" fill="#000000" fill-rule="nonzero" fill-opacity="1" /><path clip-path="url(#clip840)" d="M606.382 178.781 Q603.281 184.105 601.776 189.313 Q600.271 194.521 600.271 199.868 Q600.271 205.216 601.776 210.47 Q603.304 215.702 606.382 221.003 L602.679 221.003 Q599.207 215.563 597.47 210.308 Q595.757 205.054 595.757 199.868 Q595.757 194.706 597.47 189.475 Q599.183 184.244 602.679 178.781 L606.382 178.781 Z" fill="#000000" fill-rule="nonzero" fill-opacity="1" /><path clip-path="url(#clip840)" d="M618.859 181.466 L618.859 188.827 L627.632 188.827 L627.632 192.137 L618.859 192.137 L618.859 206.211 Q618.859 209.382 619.716 210.285 Q620.595 211.188 623.257 211.188 L627.632 211.188 L627.632 214.753 L623.257 214.753 Q618.327 214.753 616.452 212.924 Q614.577 211.072 614.577 206.211 L614.577 192.137 L611.452 192.137 L611.452 188.827 L614.577 188.827 L614.577 181.466 L618.859 181.466 Z" fill="#000000" fill-rule="nonzero" fill-opacity="1" /><path clip-path="url(#clip840)" d="M648.257 192.808 Q647.54 192.392 646.683 192.206 Q645.85 191.998 644.831 191.998 Q641.22 191.998 639.276 194.359 Q637.354 196.697 637.354 201.095 L637.354 214.753 L633.072 214.753 L633.072 188.827 L637.354 188.827 L637.354 192.855 Q638.697 190.493 640.85 189.359 Q643.003 188.202 646.081 188.202 Q646.521 188.202 647.054 188.271 Q647.586 188.318 648.234 188.433 L648.257 192.808 Z" fill="#000000" fill-rule="nonzero" fill-opacity="1" /><path clip-path="url(#clip840)" d="M652.285 204.521 L652.285 188.827 L656.544 188.827 L656.544 204.359 Q656.544 208.04 657.979 209.892 Q659.415 211.72 662.285 211.72 Q665.734 211.72 667.725 209.521 Q669.739 207.322 669.739 203.526 L669.739 188.827 L673.998 188.827 L673.998 214.753 L669.739 214.753 L669.739 210.771 Q668.188 213.132 666.127 214.29 Q664.09 215.424 661.382 215.424 Q656.915 215.424 654.6 212.646 Q652.285 209.868 652.285 204.521 M663.002 188.202 L663.002 188.202 Z" fill="#000000" fill-rule="nonzero" fill-opacity="1" /><path clip-path="url(#clip840)" d="M704.947 200.725 L704.947 202.808 L685.363 202.808 Q685.641 207.206 688.002 209.521 Q690.387 211.813 694.623 211.813 Q697.076 211.813 699.368 211.211 Q701.683 210.609 703.951 209.405 L703.951 213.433 Q701.66 214.405 699.252 214.915 Q696.845 215.424 694.368 215.424 Q688.164 215.424 684.53 211.813 Q680.919 208.202 680.919 202.044 Q680.919 195.679 684.345 191.952 Q687.794 188.202 693.627 188.202 Q698.859 188.202 701.891 191.581 Q704.947 194.938 704.947 200.725 M700.687 199.475 Q700.641 195.98 698.72 193.896 Q696.822 191.813 693.674 191.813 Q690.109 191.813 687.956 193.827 Q685.826 195.841 685.502 199.498 L700.687 199.475 Z" fill="#000000" fill-rule="nonzero" fill-opacity="1" /><path clip-path="url(#clip840)" d="M711.266 178.781 L714.97 178.781 Q718.442 184.244 720.155 189.475 Q721.891 194.706 721.891 199.868 Q721.891 205.054 720.155 210.308 Q718.442 215.563 714.97 221.003 L711.266 221.003 Q714.345 215.702 715.849 210.47 Q717.377 205.216 717.377 199.868 Q717.377 194.521 715.849 189.313 Q714.345 184.105 711.266 178.781 Z" fill="#000000" fill-rule="nonzero" fill-opacity="1" /><polyline clip-path="url(#clip840)" style="stroke:#3da44d; stroke-linecap:round; stroke-linejoin:round; stroke-width:16; stroke-opacity:1; fill:none" points="338.193,249.313 534.558,249.313 "/>
<path clip-path="url(#clip840)" d="M583.674 250.389 Q585.179 250.898 586.591 252.565 Q588.026 254.232 589.461 257.148 L594.207 266.593 L589.183 266.593 L584.762 257.727 Q583.049 254.255 581.429 253.12 Q579.832 251.986 577.054 251.986 L571.961 251.986 L571.961 266.593 L567.285 266.593 L567.285 232.033 L577.841 232.033 Q583.767 232.033 586.683 234.509 Q589.6 236.986 589.6 241.986 Q589.6 245.25 588.072 247.403 Q586.568 249.556 583.674 250.389 M571.961 235.875 L571.961 248.144 L577.841 248.144 Q581.221 248.144 582.933 246.593 Q584.67 245.019 584.67 241.986 Q584.67 238.954 582.933 237.426 Q581.221 235.875 577.841 235.875 L571.961 235.875 Z" fill="#000000" fill-rule="nonzero" fill-opacity="1" /><path clip-path="url(#clip840)" d="M625.341 230.621 Q622.239 235.945 620.734 241.153 Q619.23 246.361 619.23 251.708 Q619.23 257.056 620.734 262.31 Q622.262 267.542 625.341 272.843 L621.637 272.843 Q618.165 267.403 616.429 262.148 Q614.716 256.894 614.716 251.708 Q614.716 246.546 616.429 241.315 Q618.142 236.084 621.637 230.621 L625.341 230.621 Z" fill="#000000" fill-rule="nonzero" fill-opacity="1" /><path clip-path="url(#clip840)" d="M637.817 233.306 L637.817 240.667 L646.591 240.667 L646.591 243.977 L637.817 243.977 L637.817 258.051 Q637.817 261.222 638.674 262.125 Q639.554 263.028 642.216 263.028 L646.591 263.028 L646.591 266.593 L642.216 266.593 Q637.285 266.593 635.41 264.764 Q633.535 262.912 633.535 258.051 L633.535 243.977 L630.41 243.977 L630.41 240.667 L633.535 240.667 L633.535 233.306 L637.817 233.306 Z" fill="#000000" fill-rule="nonzero" fill-opacity="1" /><path clip-path="url(#clip840)" d="M667.215 244.648 Q666.498 244.232 665.641 244.046 Q664.808 243.838 663.79 243.838 Q660.178 243.838 658.234 246.199 Q656.313 248.537 656.313 252.935 L656.313 266.593 L652.03 266.593 L652.03 240.667 L656.313 240.667 L656.313 244.695 Q657.655 242.333 659.808 241.199 Q661.961 240.042 665.04 240.042 Q665.479 240.042 666.012 240.111 Q666.544 240.158 667.192 240.273 L667.215 244.648 Z" fill="#000000" fill-rule="nonzero" fill-opacity="1" /><path clip-path="url(#clip840)" d="M671.243 256.361 L671.243 240.667 L675.502 240.667 L675.502 256.199 Q675.502 259.88 676.938 261.732 Q678.373 263.56 681.243 263.56 Q684.692 263.56 686.683 261.361 Q688.697 259.162 688.697 255.366 L688.697 240.667 L692.956 240.667 L692.956 266.593 L688.697 266.593 L688.697 262.611 Q687.146 264.972 685.086 266.13 Q683.049 267.264 680.34 267.264 Q675.873 267.264 673.558 264.486 Q671.243 261.708 671.243 256.361 M681.961 240.042 L681.961 240.042 Z" fill="#000000" fill-rule="nonzero" fill-opacity="1" /><path clip-path="url(#clip840)" d="M723.905 252.565 L723.905 254.648 L704.322 254.648 Q704.599 259.046 706.961 261.361 Q709.345 263.653 713.581 263.653 Q716.035 263.653 718.326 263.051 Q720.641 262.449 722.91 261.245 L722.91 265.273 Q720.618 266.245 718.211 266.755 Q715.803 267.264 713.326 267.264 Q707.123 267.264 703.488 263.653 Q699.877 260.042 699.877 253.884 Q699.877 247.519 703.303 243.792 Q706.752 240.042 712.586 240.042 Q717.817 240.042 720.849 243.421 Q723.905 246.778 723.905 252.565 M719.646 251.315 Q719.599 247.82 717.678 245.736 Q715.78 243.653 712.632 243.653 Q709.067 243.653 706.914 245.667 Q704.785 247.681 704.461 251.338 L719.646 251.315 Z" fill="#000000" fill-rule="nonzero" fill-opacity="1" /><path clip-path="url(#clip840)" d="M730.224 230.621 L733.928 230.621 Q737.4 236.084 739.113 241.315 Q740.849 246.546 740.849 251.708 Q740.849 256.894 739.113 262.148 Q737.4 267.403 733.928 272.843 L730.224 272.843 Q733.303 267.542 734.808 262.31 Q736.335 257.056 736.335 251.708 Q736.335 246.361 734.808 241.153 Q733.303 235.945 730.224 230.621 Z" fill="#000000" fill-rule="nonzero" fill-opacity="1" /></svg>
