<?xml version="1.0" encoding="utf-8"?>
<svg xmlns="http://www.w3.org/2000/svg" xmlns:xlink="http://www.w3.org/1999/xlink" width="800" height="400" viewBox="0 0 3200 1600">
<defs>
  <clipPath id="clip960">
    <rect x="0" y="0" width="3200" height="1600"/>
  </clipPath>
</defs>
<path clip-path="url(#clip960)" d="M0 1600 L3200 1600 L3200 0 L0 0  Z" fill="#ffffff" fill-rule="evenodd" fill-opacity="1"/>
<defs>
  <clipPath id="clip961">
    <rect x="253" y="47" width="2900" height="1388"/>
  </clipPath>
</defs>
<path clip-path="url(#clip960)" d="M253.299 1433.98 L3152.76 1433.98 L3152.76 47.2441 L253.299 47.2441  Z" fill="#ffffff" fill-rule="evenodd" fill-opacity="1"/>
<polyline clip-path="url(#clip961)" style="stroke:#000000; stroke-linecap:round; stroke-linejoin:round; stroke-width:2; stroke-opacity:0.1; fill:none" points="253.299,1433.98 253.299,47.2441 "/>
<polyline clip-path="url(#clip961)" style="stroke:#000000; stroke-linecap:round; stroke-linejoin:round; stroke-width:2; stroke-opacity:0.1; fill:none" points="833.19,1433.98 833.19,47.2441 "/>
<polyline clip-path="url(#clip961)" style="stroke:#000000; stroke-linecap:round; stroke-linejoin:round; stroke-width:2; stroke-opacity:0.1; fill:none" points="1413.08,1433.98 1413.08,47.2441 "/>
<polyline clip-path="url(#clip961)" style="stroke:#000000; stroke-linecap:round; stroke-linejoin:round; stroke-width:2; stroke-opacity:0.1; fill:none" points="1992.97,1433.98 1992.97,47.2441 "/>
<polyline clip-path="url(#clip961)" style="stroke:#000000; stroke-linecap:round; stroke-linejoin:round; stroke-width:2; stroke-opacity:0.1; fill:none" points="2572.86,1433.98 2572.86,47.2441 "/>
<polyline clip-path="url(#clip961)" style="stroke:#000000; stroke-linecap:round; stroke-linejoin:round; stroke-width:2; stroke-opacity:0.1; fill:none" points="3152.76,1433.98 3152.76,47.2441 "/>
<polyline clip-path="url(#clip961)" style="stroke:#000000; stroke-linecap:round; stroke-linejoin:round; stroke-width:2; stroke-opacity:0.1; fill:none" points="253.299,1433.98 253.299,47.2441 "/>
<polyline clip-path="url(#clip961)" style="stroke:#000000; stroke-linecap:round; stroke-linejoin:round; stroke-width:2; stroke-opacity:0.1; fill:none" points="833.19,1433.98 833.19,47.2441 "/>
<polyline clip-path="url(#clip961)" style="stroke:#000000; stroke-linecap:round; stroke-linejoin:round; stroke-width:2; stroke-opacity:0.1; fill:none" points="1413.08,1433.98 1413.08,47.2441 "/>
<polyline clip-path="url(#clip961)" style="stroke:#000000; stroke-linecap:round; stroke-linejoin:round; stroke-width:2; stroke-opacity:0.1; fill:none" points="1992.97,1433.98 1992.97,47.2441 "/>
<polyline clip-path="url(#clip961)" style="stroke:#000000; stroke-linecap:round; stroke-linejoin:round; stroke-width:2; stroke-opacity:0.1; fill:none" points="2572.86,1433.98 2572.86,47.2441 "/>
<polyline clip-path="url(#clip961)" style="stroke:#000000; stroke-linecap:round; stroke-linejoin:round; stroke-width:2; stroke-opacity:0.1; fill:none" points="3152.76,1433.98 3152.76,47.2441 "/>
<polyline clip-path="url(#clip961)" style="stroke:#000000; stroke-linecap:round; stroke-linejoin:round; stroke-width:2; stroke-opacity:0.1; fill:none" points="253.299,1394.73 3152.76,1394.73 "/>
<polyline clip-path="url(#clip961)" style="stroke:#000000; stroke-linecap:round; stroke-linejoin:round; stroke-width:2; stroke-opacity:0.1; fill:none" points="253.299,1157.75 3152.76,1157.75 "/>
<polyline clip-path="url(#clip961)" style="stroke:#000000; stroke-linecap:round; stroke-linejoin:round; stroke-width:2; stroke-opacity:0.1; fill:none" points="253.299,920.767 3152.76,920.767 "/>
<polyline clip-path="url(#clip961)" style="stroke:#000000; stroke-linecap:round; stroke-linejoin:round; stroke-width:2; stroke-opacity:0.1; fill:none" points="253.299,683.785 3152.76,683.785 "/>
<polyline clip-path="url(#clip961)" style="stroke:#000000; stroke-linecap:round; stroke-linejoin:round; stroke-width:2; stroke-opacity:0.1; fill:none" points="253.299,446.802 3152.76,446.802 "/>
<polyline clip-path="url(#clip961)" style="stroke:#000000; stroke-linecap:round; stroke-linejoin:round; stroke-width:2; stroke-opacity:0.1; fill:none" points="253.299,209.819 3152.76,209.819 "/>
<polyline clip-path="url(#clip961)" style="stroke:#000000; stroke-linecap:round; stroke-linejoin:round; stroke-width:2; stroke-opacity:0.1; fill:none" points="253.299,1394.73 3152.76,1394.73 "/>
<polyline clip-path="url(#clip961)" style="stroke:#000000; stroke-linecap:round; stroke-linejoin:round; stroke-width:2; stroke-opacity:0.1; fill:none" points="253.299,1157.75 3152.76,1157.75 "/>
<polyline clip-path="url(#clip961)" style="stroke:#000000; stroke-linecap:round; stroke-linejoin:round; stroke-width:2; stroke-opacity:0.1; fill:none" points="253.299,920.767 3152.76,920.767 "/>
<polyline clip-path="url(#clip961)" style="stroke:#000000; stroke-linecap:round; stroke-linejoin:round; stroke-width:2; stroke-opacity:0.1; fill:none" points="253.299,683.785 3152.76,683.785 "/>
<polyline clip-path="url(#clip961)" style="stroke:#000000; stroke-linecap:round; stroke-linejoin:round; stroke-width:2; stroke-opacity:0.1; fill:none" points="253.299,446.802 3152.76,446.802 "/>
<polyline clip-path="url(#clip961)" style="stroke:#000000; stroke-linecap:round; stroke-linejoin:round; stroke-width:2; stroke-opacity:0.1; fill:none" points="253.299,209.819 3152.76,209.819 "/>
<polyline clip-path="url(#clip960)" style="stroke:#000000; stroke-linecap:round; stroke-linejoin:round; stroke-width:4; stroke-opacity:1; fill:none" points="253.299,1433.98 3152.76,1433.98 "/>
<polyline clip-path="url(#clip960)" style="stroke:#000000; stroke-linecap:round; stroke-linejoin:round; stroke-width:4; stroke-opacity:1; fill:none" points="253.299,47.2441 3152.76,47.2441 "/>
<polyline clip-path="url(#clip960)" style="stroke:#000000; stroke-linecap:round; stroke-linejoin:round; stroke-width:4; stroke-opacity:1; fill:none" points="253.299,1433.98 253.299,1415.08 "/>
<polyline clip-path="url(#clip960)" style="stroke:#000000; stroke-linecap:round; stroke-linejoin:round; stroke-width:4; stroke-opacity:1; fill:none" points="833.19,1433.98 833.19,1415.08 "/>
<polyline clip-path="url(#clip960)" style="stroke:#000000; stroke-linecap:round; stroke-linejoin:round; stroke-width:4; stroke-opacity:1; fill:none" points="1413.08,1433.98 1413.08,1415.08 "/>
<polyline clip-path="url(#clip960)" style="stroke:#000000; stroke-linecap:round; stroke-linejoin:round; stroke-width:4; stroke-opacity:1; fill:none" points="1992.97,1433.98 1992.97,1415.08 "/>
<polyline clip-path="url(#clip960)" style="stroke:#000000; stroke-linecap:round; stroke-linejoin:round; stroke-width:4; stroke-opacity:1; fill:none" points="2572.86,1433.98 2572.86,1415.08 "/>
<polyline clip-path="url(#clip960)" style="stroke:#000000; stroke-linecap:round; stroke-linejoin:round; stroke-width:4; stroke-opacity:1; fill:none" points="3152.76,1433.98 3152.76,1415.08 "/>
<polyline clip-path="url(#clip960)" style="stroke:#000000; stroke-linecap:round; stroke-linejoin:round; stroke-width:4; stroke-opacity:1; fill:none" points="253.299,47.2441 253.299,66.1417 "/>
<polyline clip-path="url(#clip960)" style="stroke:#000000; stroke-linecap:round; stroke-linejoin:round; stroke-width:4; stroke-opacity:1; fill:none" points="833.19,47.2441 833.19,66.1417 "/>
<polyline clip-path="url(#clip960)" style="stroke:#000000; stroke-linecap:round; stroke-linejoin:round; stroke-width:4; stroke-opacity:1; fill:none" points="1413.08,47.2441 1413.08,66.1417 "/>
<polyline clip-path="url(#clip960)" style="stroke:#000000; stroke-linecap:round; stroke-linejoin:round; stroke-width:4; stroke-opacity:1; fill:none" points="1992.97,47.2441 1992.97,66.1417 "/>
<polyline clip-path="url(#clip960)" style="stroke:#000000; stroke-linecap:round; stroke-linejoin:round; stroke-width:4; stroke-opacity:1; fill:none" points="2572.86,47.2441 2572.86,66.1417 "/>
<polyline clip-path="url(#clip960)" style="stroke:#000000; stroke-linecap:round; stroke-linejoin:round; stroke-width:4; stroke-opacity:1; fill:none" points="3152.76,47.2441 3152.76,66.1417 "/>
<path clip-path="url(#clip960)" d="M253.299 1471.3 Q249.688 1471.3 247.859 1474.86 Q246.053 1478.4 246.053 1485.53 Q246.053 1492.64 247.859 1496.21 Q249.688 1499.75 253.299 1499.75 Q256.933 1499.75 258.738 1496.21 Q260.567 1492.64 260.567 1485.53 Q260.567 1478.4 258.738 1474.86 Q256.933 1471.3 253.299 1471.3 M253.299 1467.59 Q259.109 1467.59 262.164 1472.2 Q265.243 1476.78 265.243 1485.53 Q265.243 1494.26 262.164 1498.87 Q259.109 1503.45 253.299 1503.45 Q247.489 1503.45 244.41 1498.87 Q241.354 1494.26 241.354 1485.53 Q241.354 1476.78 244.41 1472.2 Q247.489 1467.59 253.299 1467.59 Z" fill="#000000" fill-rule="nonzero" fill-opacity="1" /><path clip-path="url(#clip960)" d="M807.878 1498.84 L815.517 1498.84 L815.517 1472.48 L807.206 1474.15 L807.206 1469.89 L815.47 1468.22 L820.146 1468.22 L820.146 1498.84 L827.785 1498.84 L827.785 1502.78 L807.878 1502.78 L807.878 1498.84 Z" fill="#000000" fill-rule="nonzero" fill-opacity="1" /><path clip-path="url(#clip960)" d="M847.229 1471.3 Q843.618 1471.3 841.79 1474.86 Q839.984 1478.4 839.984 1485.53 Q839.984 1492.64 841.79 1496.21 Q843.618 1499.75 847.229 1499.75 Q850.864 1499.75 852.669 1496.21 Q854.498 1492.64 854.498 1485.53 Q854.498 1478.4 852.669 1474.86 Q850.864 1471.3 847.229 1471.3 M847.229 1467.59 Q853.04 1467.59 856.095 1472.2 Q859.174 1476.78 859.174 1485.53 Q859.174 1494.26 856.095 1498.87 Q853.04 1503.45 847.229 1503.45 Q841.419 1503.45 838.341 1498.87 Q835.285 1494.26 835.285 1485.53 Q835.285 1476.78 838.341 1472.2 Q841.419 1467.59 847.229 1467.59 Z" fill="#000000" fill-rule="nonzero" fill-opacity="1" /><path clip-path="url(#clip960)" d="M1391.85 1498.84 L1408.17 1498.84 L1408.17 1502.78 L1386.23 1502.78 L1386.23 1498.84 Q1388.89 1496.09 1393.48 1491.46 Q1398.08 1486.81 1399.26 1485.47 Q1401.51 1482.94 1402.39 1481.21 Q1403.29 1479.45 1403.29 1477.76 Q1403.29 1475 1401.35 1473.27 Q1399.42 1471.53 1396.32 1471.53 Q1394.12 1471.53 1391.67 1472.29 Q1389.24 1473.06 1386.46 1474.61 L1386.46 1469.89 Q1389.29 1468.75 1391.74 1468.17 Q1394.19 1467.59 1396.23 1467.59 Q1401.6 1467.59 1404.79 1470.28 Q1407.99 1472.97 1407.99 1477.46 Q1407.99 1479.59 1407.18 1481.51 Q1406.39 1483.4 1404.29 1486 Q1403.71 1486.67 1400.6 1489.89 Q1397.5 1493.08 1391.85 1498.84 Z" fill="#000000" fill-rule="nonzero" fill-opacity="1" /><path clip-path="url(#clip960)" d="M1427.99 1471.3 Q1424.38 1471.3 1422.55 1474.86 Q1420.74 1478.4 1420.74 1485.53 Q1420.74 1492.64 1422.55 1496.21 Q1424.38 1499.75 1427.99 1499.75 Q1431.62 1499.75 1433.43 1496.21 Q1435.26 1492.64 1435.26 1485.53 Q1435.26 1478.4 1433.43 1474.86 Q1431.62 1471.3 1427.99 1471.3 M1427.99 1467.59 Q1433.8 1467.59 1436.85 1472.2 Q1439.93 1476.78 1439.93 1485.53 Q1439.93 1494.26 1436.85 1498.87 Q1433.8 1503.45 1427.99 1503.45 Q1422.18 1503.45 1419.1 1498.87 Q1416.04 1494.26 1416.04 1485.53 Q1416.04 1476.78 1419.1 1472.2 Q1422.18 1467.59 1427.99 1467.59 Z" fill="#000000" fill-rule="nonzero" fill-opacity="1" /><path clip-path="url(#clip960)" d="M1981.82 1484.15 Q1985.17 1484.86 1987.05 1487.13 Q1988.95 1489.4 1988.95 1492.73 Q1988.95 1497.85 1985.43 1500.65 Q1981.91 1503.45 1975.43 1503.45 Q1973.25 1503.45 1970.94 1503.01 Q1968.64 1502.59 1966.19 1501.74 L1966.19 1497.22 Q1968.14 1498.36 1970.45 1498.94 Q1972.76 1499.52 1975.29 1499.52 Q1979.69 1499.52 1981.98 1497.78 Q1984.29 1496.04 1984.29 1492.73 Q1984.29 1489.68 1982.14 1487.97 Q1980.01 1486.23 1976.19 1486.23 L1972.16 1486.23 L1972.16 1482.39 L1976.38 1482.39 Q1979.82 1482.39 1981.65 1481.02 Q1983.48 1479.63 1983.48 1477.04 Q1983.48 1474.38 1981.58 1472.97 Q1979.71 1471.53 1976.19 1471.53 Q1974.27 1471.53 1972.07 1471.95 Q1969.87 1472.36 1967.23 1473.24 L1967.23 1469.08 Q1969.89 1468.34 1972.21 1467.97 Q1974.55 1467.59 1976.61 1467.59 Q1981.93 1467.59 1985.03 1470.03 Q1988.14 1472.43 1988.14 1476.55 Q1988.14 1479.42 1986.49 1481.41 Q1984.85 1483.38 1981.82 1484.15 Z" fill="#000000" fill-rule="nonzero" fill-opacity="1" /><path clip-path="url(#clip960)" d="M2007.81 1471.3 Q2004.2 1471.3 2002.37 1474.86 Q2000.57 1478.4 2000.57 1485.53 Q2000.57 1492.64 2002.37 1496.21 Q2004.2 1499.75 2007.81 1499.75 Q2011.45 1499.75 2013.25 1496.21 Q2015.08 1492.64 2015.08 1485.53 Q2015.08 1478.4 2013.25 1474.86 Q2011.45 1471.3 2007.81 1471.3 M2007.81 1467.59 Q2013.62 1467.59 2016.68 1472.2 Q2019.76 1476.78 2019.76 1485.53 Q2019.76 1494.26 2016.68 1498.87 Q2013.62 1503.45 2007.81 1503.45 Q2002 1503.45 1998.92 1498.87 Q1995.87 1494.26 1995.87 1485.53 Q1995.87 1476.78 1998.92 1472.2 Q2002 1467.59 2007.81 1467.59 Z" fill="#000000" fill-rule="nonzero" fill-opacity="1" /><path clip-path="url(#clip960)" d="M2561.04 1472.29 L2549.23 1490.74 L2561.04 1490.74 L2561.04 1472.29 M2559.81 1468.22 L2565.69 1468.22 L2565.69 1490.74 L2570.62 1490.74 L2570.62 1494.63 L2565.69 1494.63 L2565.69 1502.78 L2561.04 1502.78 L2561.04 1494.63 L2545.43 1494.63 L2545.43 1490.12 L2559.81 1468.22 Z" fill="#000000" fill-rule="nonzero" fill-opacity="1" /><path clip-path="url(#clip960)" d="M2588.35 1471.3 Q2584.74 1471.3 2582.91 1474.86 Q2581.11 1478.4 2581.11 1485.53 Q2581.11 1492.64 2582.91 1496.21 Q2584.74 1499.75 2588.35 1499.75 Q2591.98 1499.75 2593.79 1496.21 Q2595.62 1492.64 2595.62 1485.53 Q2595.62 1478.4 2593.79 1474.86 Q2591.98 1471.3 2588.35 1471.3 M2588.35 1467.59 Q2594.16 1467.59 2597.22 1472.2 Q2600.29 1476.78 2600.29 1485.53 Q2600.29 1494.26 2597.22 1498.87 Q2594.16 1503.45 2588.35 1503.45 Q2582.54 1503.45 2579.46 1498.87 Q2576.41 1494.26 2576.41 1485.53 Q2576.41 1476.78 2579.46 1472.2 Q2582.54 1467.59 2588.35 1467.59 Z" fill="#000000" fill-rule="nonzero" fill-opacity="1" /><path clip-path="url(#clip960)" d="M3127.46 1468.22 L3145.81 1468.22 L3145.81 1472.16 L3131.74 1472.16 L3131.74 1480.63 Q3132.76 1480.28 3133.77 1480.12 Q3134.79 1479.93 3135.81 1479.93 Q3141.6 1479.93 3144.98 1483.1 Q3148.36 1486.28 3148.36 1491.69 Q3148.36 1497.27 3144.89 1500.37 Q3141.41 1503.45 3135.09 1503.45 Q3132.92 1503.45 3130.65 1503.08 Q3128.4 1502.71 3126 1501.97 L3126 1497.27 Q3128.08 1498.4 3130.3 1498.96 Q3132.52 1499.52 3135 1499.52 Q3139.01 1499.52 3141.34 1497.41 Q3143.68 1495.3 3143.68 1491.69 Q3143.68 1488.08 3141.34 1485.97 Q3139.01 1483.87 3135 1483.87 Q3133.13 1483.87 3131.25 1484.28 Q3129.4 1484.7 3127.46 1485.58 L3127.46 1468.22 Z" fill="#000000" fill-rule="nonzero" fill-opacity="1" /><path clip-path="url(#clip960)" d="M3167.57 1471.3 Q3163.96 1471.3 3162.13 1474.86 Q3160.33 1478.4 3160.33 1485.53 Q3160.33 1492.64 3162.13 1496.21 Q3163.96 1499.75 3167.57 1499.75 Q3171.2 1499.75 3173.01 1496.21 Q3174.84 1492.64 3174.84 1485.53 Q3174.84 1478.4 3173.01 1474.86 Q3171.2 1471.3 3167.57 1471.3 M3167.57 1467.59 Q3173.38 1467.59 3176.44 1472.2 Q3179.52 1476.78 3179.52 1485.53 Q3179.52 1494.26 3176.44 1498.87 Q3173.38 1503.45 3167.57 1503.45 Q3161.76 1503.45 3158.68 1498.87 Q3155.63 1494.26 3155.63 1485.53 Q3155.63 1476.78 3158.68 1472.2 Q3161.76 1467.59 3167.57 1467.59 Z" fill="#000000" fill-rule="nonzero" fill-opacity="1" /><path clip-path="url(#clip960)" d="M1603.6 1545.92 L1654.76 1545.92 L1654.76 1552.8 L1633.29 1552.8 L1633.29 1606.4 L1625.07 1606.4 L1625.07 1552.8 L1603.6 1552.8 L1603.6 1545.92 Z" fill="#000000" fill-rule="nonzero" fill-opacity="1" /><path clip-path="url(#clip960)" d="M1659.78 1561.03 L1667.24 1561.03 L1667.24 1606.4 L1659.78 1606.4 L1659.78 1561.03 M1659.78 1543.36 L1667.24 1543.36 L1667.24 1552.8 L1659.78 1552.8 L1659.78 1543.36 Z" fill="#000000" fill-rule="nonzero" fill-opacity="1" /><path clip-path="url(#clip960)" d="M1718.16 1569.74 Q1720.95 1564.71 1724.84 1562.32 Q1728.73 1559.93 1734 1559.93 Q1741.09 1559.93 1744.93 1564.91 Q1748.78 1569.86 1748.78 1579.01 L1748.78 1606.4 L1741.29 1606.4 L1741.29 1579.25 Q1741.29 1572.73 1738.98 1569.57 Q1736.67 1566.41 1731.93 1566.41 Q1726.14 1566.41 1722.78 1570.26 Q1719.41 1574.11 1719.41 1580.75 L1719.41 1606.4 L1711.92 1606.4 L1711.92 1579.25 Q1711.92 1572.69 1709.61 1569.57 Q1707.3 1566.41 1702.48 1566.41 Q1696.77 1566.41 1693.41 1570.3 Q1690.04 1574.15 1690.04 1580.75 L1690.04 1606.4 L1682.55 1606.4 L1682.55 1561.03 L1690.04 1561.03 L1690.04 1568.07 Q1692.6 1563.9 1696.16 1561.92 Q1699.73 1559.93 1704.63 1559.93 Q1709.57 1559.93 1713.01 1562.44 Q1716.5 1564.96 1718.16 1569.74 Z" fill="#000000" fill-rule="nonzero" fill-opacity="1" /><path clip-path="url(#clip960)" d="M1802.46 1581.85 L1802.46 1585.49 L1768.19 1585.49 Q1768.67 1593.19 1772.8 1597.24 Q1776.98 1601.25 1784.39 1601.25 Q1788.68 1601.25 1792.69 1600.2 Q1796.74 1599.14 1800.71 1597.04 L1800.71 1604.09 Q1796.7 1605.79 1792.49 1606.68 Q1788.28 1607.57 1783.94 1607.57 Q1773.09 1607.57 1766.73 1601.25 Q1760.41 1594.93 1760.41 1584.16 Q1760.41 1573.02 1766.4 1566.49 Q1772.44 1559.93 1782.65 1559.93 Q1791.8 1559.93 1797.11 1565.85 Q1802.46 1571.72 1802.46 1581.85 M1795 1579.66 Q1794.92 1573.54 1791.56 1569.9 Q1788.24 1566.25 1782.73 1566.25 Q1776.49 1566.25 1772.72 1569.78 Q1769 1573.3 1768.43 1579.7 L1795 1579.66 Z" fill="#000000" fill-rule="nonzero" fill-opacity="1" /><polyline clip-path="url(#clip960)" style="stroke:#000000; stroke-linecap:round; stroke-linejoin:round; stroke-width:4; stroke-opacity:1; fill:none" points="253.299,1433.98 253.299,47.2441 "/>
<polyline clip-path="url(#clip960)" style="stroke:#000000; stroke-linecap:round; stroke-linejoin:round; stroke-width:4; stroke-opacity:1; fill:none" points="3152.76,1433.98 3152.76,47.2441 "/>
<polyline clip-path="url(#clip960)" style="stroke:#000000; stroke-linecap:round; stroke-linejoin:round; stroke-width:4; stroke-opacity:1; fill:none" points="253.299,1394.73 272.196,1394.73 "/>
<polyline clip-path="url(#clip960)" style="stroke:#000000; stroke-linecap:round; stroke-linejoin:round; stroke-width:4; stroke-opacity:1; fill:none" points="253.299,1157.75 272.196,1157.75 "/>
<polyline clip-path="url(#clip960)" style="stroke:#000000; stroke-linecap:round; stroke-linejoin:round; stroke-width:4; stroke-opacity:1; fill:none" points="253.299,920.767 272.196,920.767 "/>
<polyline clip-path="url(#clip960)" style="stroke:#000000; stroke-linecap:round; stroke-linejoin:round; stroke-width:4; stroke-opacity:1; fill:none" points="253.299,683.785 272.196,683.785 "/>
<polyline clip-path="url(#clip960)" style="stroke:#000000; stroke-linecap:round; stroke-linejoin:round; stroke-width:4; stroke-opacity:1; fill:none" points="253.299,446.802 272.196,446.802 "/>
<polyline clip-path="url(#clip960)" style="stroke:#000000; stroke-linecap:round; stroke-linejoin:round; stroke-width:4; stroke-opacity:1; fill:none" points="253.299,209.819 272.196,209.819 "/>
<polyline clip-path="url(#clip960)" style="stroke:#000000; stroke-linecap:round; stroke-linejoin:round; stroke-width:4; stroke-opacity:1; fill:none" points="3152.76,1394.73 3133.86,1394.73 "/>
<polyline clip-path="url(#clip960)" style="stroke:#000000; stroke-linecap:round; stroke-linejoin:round; stroke-width:4; stroke-opacity:1; fill:none" points="3152.76,1157.75 3133.86,1157.75 "/>
<polyline clip-path="url(#clip960)" style="stroke:#000000; stroke-linecap:round; stroke-linejoin:round; stroke-width:4; stroke-opacity:1; fill:none" points="3152.76,920.767 3133.86,920.767 "/>
<polyline clip-path="url(#clip960)" style="stroke:#000000; stroke-linecap:round; stroke-linejoin:round; stroke-width:4; stroke-opacity:1; fill:none" points="3152.76,683.785 3133.86,683.785 "/>
<polyline clip-path="url(#clip960)" style="stroke:#000000; stroke-linecap:round; stroke-linejoin:round; stroke-width:4; stroke-opacity:1; fill:none" points="3152.76,446.802 3133.86,446.802 "/>
<polyline clip-path="url(#clip960)" style="stroke:#000000; stroke-linecap:round; stroke-linejoin:round; stroke-width:4; stroke-opacity:1; fill:none" points="3152.76,209.819 3133.86,209.819 "/>
<path clip-path="url(#clip960)" d="M148.123 1380.53 Q144.512 1380.53 142.683 1384.1 Q140.878 1387.64 140.878 1394.77 Q140.878 1401.87 142.683 1405.44 Q144.512 1408.98 148.123 1408.98 Q151.757 1408.98 153.563 1405.44 Q155.392 1401.87 155.392 1394.77 Q155.392 1387.64 153.563 1384.1 Q151.757 1380.53 148.123 1380.53 M148.123 1376.83 Q153.933 1376.83 156.989 1381.43 Q160.067 1386.02 160.067 1394.77 Q160.067 1403.49 156.989 1408.1 Q153.933 1412.68 148.123 1412.68 Q142.313 1412.68 139.234 1408.1 Q136.179 1403.49 136.179 1394.77 Q136.179 1386.02 139.234 1381.43 Q142.313 1376.83 148.123 1376.83 Z" fill="#000000" fill-rule="nonzero" fill-opacity="1" /><path clip-path="url(#clip960)" d="M168.285 1406.13 L173.169 1406.13 L173.169 1412.01 L168.285 1412.01 L168.285 1406.13 Z" fill="#000000" fill-rule="nonzero" fill-opacity="1" /><path clip-path="url(#clip960)" d="M193.354 1380.53 Q189.743 1380.53 187.915 1384.1 Q186.109 1387.64 186.109 1394.77 Q186.109 1401.87 187.915 1405.44 Q189.743 1408.98 193.354 1408.98 Q196.989 1408.98 198.794 1405.44 Q200.623 1401.87 200.623 1394.77 Q200.623 1387.64 198.794 1384.1 Q196.989 1380.53 193.354 1380.53 M193.354 1376.83 Q199.164 1376.83 202.22 1381.43 Q205.299 1386.02 205.299 1394.77 Q205.299 1403.49 202.22 1408.1 Q199.164 1412.68 193.354 1412.68 Q187.544 1412.68 184.465 1408.1 Q181.41 1403.49 181.41 1394.77 Q181.41 1386.02 184.465 1381.43 Q187.544 1376.83 193.354 1376.83 Z" fill="#000000" fill-rule="nonzero" fill-opacity="1" /><path clip-path="url(#clip960)" d="M143.146 1171.09 L159.466 1171.09 L159.466 1175.03 L137.521 1175.03 L137.521 1171.09 Q140.183 1168.34 144.767 1163.71 Q149.373 1159.06 150.554 1157.72 Q152.799 1155.19 153.679 1153.46 Q154.581 1151.7 154.581 1150.01 Q154.581 1147.25 152.637 1145.52 Q150.716 1143.78 147.614 1143.78 Q145.415 1143.78 142.961 1144.54 Q140.531 1145.31 137.753 1146.86 L137.753 1142.14 Q140.577 1141 143.031 1140.42 Q145.484 1139.84 147.521 1139.84 Q152.892 1139.84 156.086 1142.53 Q159.28 1145.22 159.28 1149.71 Q159.28 1151.84 158.47 1153.76 Q157.683 1155.66 155.577 1158.25 Q154.998 1158.92 151.896 1162.14 Q148.794 1165.33 143.146 1171.09 Z" fill="#000000" fill-rule="nonzero" fill-opacity="1" /><path clip-path="url(#clip960)" d="M169.28 1169.15 L174.165 1169.15 L174.165 1175.03 L169.28 1175.03 L169.28 1169.15 Z" fill="#000000" fill-rule="nonzero" fill-opacity="1" /><path clip-path="url(#clip960)" d="M184.396 1140.47 L202.752 1140.47 L202.752 1144.41 L188.678 1144.41 L188.678 1152.88 Q189.697 1152.53 190.715 1152.37 Q191.734 1152.18 192.752 1152.18 Q198.539 1152.18 201.919 1155.35 Q205.299 1158.53 205.299 1163.94 Q205.299 1169.52 201.827 1172.62 Q198.354 1175.7 192.035 1175.7 Q189.859 1175.7 187.59 1175.33 Q185.345 1174.96 182.938 1174.22 L182.938 1169.52 Q185.021 1170.65 187.243 1171.21 Q189.465 1171.77 191.942 1171.77 Q195.947 1171.77 198.285 1169.66 Q200.623 1167.55 200.623 1163.94 Q200.623 1160.33 198.285 1158.22 Q195.947 1156.12 191.942 1156.12 Q190.067 1156.12 188.192 1156.53 Q186.34 1156.95 184.396 1157.83 L184.396 1140.47 Z" fill="#000000" fill-rule="nonzero" fill-opacity="1" /><path clip-path="url(#clip960)" d="M138.169 903.487 L156.526 903.487 L156.526 907.422 L142.452 907.422 L142.452 915.895 Q143.47 915.547 144.489 915.385 Q145.507 915.2 146.526 915.2 Q152.313 915.2 155.692 918.371 Q159.072 921.543 159.072 926.959 Q159.072 932.538 155.6 935.64 Q152.128 938.719 145.808 938.719 Q143.632 938.719 141.364 938.348 Q139.119 937.978 136.711 937.237 L136.711 932.538 Q138.794 933.672 141.017 934.228 Q143.239 934.783 145.716 934.783 Q149.72 934.783 152.058 932.677 Q154.396 930.57 154.396 926.959 Q154.396 923.348 152.058 921.242 Q149.72 919.135 145.716 919.135 Q143.841 919.135 141.966 919.552 Q140.114 919.969 138.169 920.848 L138.169 903.487 Z" fill="#000000" fill-rule="nonzero" fill-opacity="1" /><path clip-path="url(#clip960)" d="M168.285 932.168 L173.169 932.168 L173.169 938.047 L168.285 938.047 L168.285 932.168 Z" fill="#000000" fill-rule="nonzero" fill-opacity="1" /><path clip-path="url(#clip960)" d="M193.354 906.566 Q189.743 906.566 187.915 910.131 Q186.109 913.672 186.109 920.802 Q186.109 927.908 187.915 931.473 Q189.743 935.015 193.354 935.015 Q196.989 935.015 198.794 931.473 Q200.623 927.908 200.623 920.802 Q200.623 913.672 198.794 910.131 Q196.989 906.566 193.354 906.566 M193.354 902.862 Q199.164 902.862 202.22 907.469 Q205.299 912.052 205.299 920.802 Q205.299 929.529 202.22 934.135 Q199.164 938.719 193.354 938.719 Q187.544 938.719 184.465 934.135 Q181.41 929.529 181.41 920.802 Q181.41 912.052 184.465 907.469 Q187.544 902.862 193.354 902.862 Z" fill="#000000" fill-rule="nonzero" fill-opacity="1" /><path clip-path="url(#clip960)" d="M137.938 666.505 L160.16 666.505 L160.16 668.495 L147.614 701.065 L142.73 701.065 L154.535 670.44 L137.938 670.44 L137.938 666.505 Z" fill="#000000" fill-rule="nonzero" fill-opacity="1" /><path clip-path="url(#clip960)" d="M169.28 695.185 L174.165 695.185 L174.165 701.065 L169.28 701.065 L169.28 695.185 Z" fill="#000000" fill-rule="nonzero" fill-opacity="1" /><path clip-path="url(#clip960)" d="M184.396 666.505 L202.752 666.505 L202.752 670.44 L188.678 670.44 L188.678 678.912 Q189.697 678.565 190.715 678.403 Q191.734 678.218 192.752 678.218 Q198.539 678.218 201.919 681.389 Q205.299 684.56 205.299 689.977 Q205.299 695.555 201.827 698.657 Q198.354 701.736 192.035 701.736 Q189.859 701.736 187.59 701.366 Q185.345 700.995 182.938 700.254 L182.938 695.555 Q185.021 696.69 187.243 697.245 Q189.465 697.801 191.942 697.801 Q195.947 697.801 198.285 695.694 Q200.623 693.588 200.623 689.977 Q200.623 686.366 198.285 684.259 Q195.947 682.153 191.942 682.153 Q190.067 682.153 188.192 682.569 Q186.34 682.986 184.396 683.866 L184.396 666.505 Z" fill="#000000" fill-rule="nonzero" fill-opacity="1" /><path clip-path="url(#clip960)" d="M108.771 460.147 L116.41 460.147 L116.41 433.781 L108.1 435.448 L108.1 431.189 L116.364 429.522 L121.04 429.522 L121.04 460.147 L128.679 460.147 L128.679 464.082 L108.771 464.082 L108.771 460.147 Z" fill="#000000" fill-rule="nonzero" fill-opacity="1" /><path clip-path="url(#clip960)" d="M148.123 432.601 Q144.512 432.601 142.683 436.165 Q140.878 439.707 140.878 446.837 Q140.878 453.943 142.683 457.508 Q144.512 461.05 148.123 461.05 Q151.757 461.05 153.563 457.508 Q155.392 453.943 155.392 446.837 Q155.392 439.707 153.563 436.165 Q151.757 432.601 148.123 432.601 M148.123 428.897 Q153.933 428.897 156.989 433.503 Q160.067 438.087 160.067 446.837 Q160.067 455.564 156.989 460.17 Q153.933 464.753 148.123 464.753 Q142.313 464.753 139.234 460.17 Q136.179 455.564 136.179 446.837 Q136.179 438.087 139.234 433.503 Q142.313 428.897 148.123 428.897 Z" fill="#000000" fill-rule="nonzero" fill-opacity="1" /><path clip-path="url(#clip960)" d="M168.285 458.202 L173.169 458.202 L173.169 464.082 L168.285 464.082 L168.285 458.202 Z" fill="#000000" fill-rule="nonzero" fill-opacity="1" /><path clip-path="url(#clip960)" d="M193.354 432.601 Q189.743 432.601 187.915 436.165 Q186.109 439.707 186.109 446.837 Q186.109 453.943 187.915 457.508 Q189.743 461.05 193.354 461.05 Q196.989 461.05 198.794 457.508 Q200.623 453.943 200.623 446.837 Q200.623 439.707 198.794 436.165 Q196.989 432.601 193.354 432.601 M193.354 428.897 Q199.164 428.897 202.22 433.503 Q205.299 438.087 205.299 446.837 Q205.299 455.564 202.22 460.17 Q199.164 464.753 193.354 464.753 Q187.544 464.753 184.465 460.17 Q181.41 455.564 181.41 446.837 Q181.41 438.087 184.465 433.503 Q187.544 428.897 193.354 428.897 Z" fill="#000000" fill-rule="nonzero" fill-opacity="1" /><path clip-path="url(#clip960)" d="M109.767 223.164 L117.406 223.164 L117.406 196.799 L109.096 198.465 L109.096 194.206 L117.359 192.539 L122.035 192.539 L122.035 223.164 L129.674 223.164 L129.674 227.099 L109.767 227.099 L109.767 223.164 Z" fill="#000000" fill-rule="nonzero" fill-opacity="1" /><path clip-path="url(#clip960)" d="M143.146 223.164 L159.466 223.164 L159.466 227.099 L137.521 227.099 L137.521 223.164 Q140.183 220.41 144.767 215.78 Q149.373 211.127 150.554 209.785 Q152.799 207.261 153.679 205.525 Q154.581 203.766 154.581 202.076 Q154.581 199.322 152.637 197.586 Q150.716 195.849 147.614 195.849 Q145.415 195.849 142.961 196.613 Q140.531 197.377 137.753 198.928 L137.753 194.206 Q140.577 193.072 143.031 192.493 Q145.484 191.914 147.521 191.914 Q152.892 191.914 156.086 194.6 Q159.28 197.285 159.28 201.775 Q159.28 203.905 158.47 205.826 Q157.683 207.724 155.577 210.317 Q154.998 210.988 151.896 214.206 Q148.794 217.4 143.146 223.164 Z" fill="#000000" fill-rule="nonzero" fill-opacity="1" /><path clip-path="url(#clip960)" d="M169.28 221.22 L174.165 221.22 L174.165 227.099 L169.28 227.099 L169.28 221.22 Z" fill="#000000" fill-rule="nonzero" fill-opacity="1" /><path clip-path="url(#clip960)" d="M184.396 192.539 L202.752 192.539 L202.752 196.474 L188.678 196.474 L188.678 204.947 Q189.697 204.599 190.715 204.437 Q191.734 204.252 192.752 204.252 Q198.539 204.252 201.919 207.424 Q205.299 210.595 205.299 216.011 Q205.299 221.59 201.827 224.692 Q198.354 227.771 192.035 227.771 Q189.859 227.771 187.59 227.4 Q185.345 227.03 182.938 226.289 L182.938 221.59 Q185.021 222.724 187.243 223.28 Q189.465 223.835 191.942 223.835 Q195.947 223.835 198.285 221.729 Q200.623 219.623 200.623 216.011 Q200.623 212.4 198.285 210.294 Q195.947 208.187 191.942 208.187 Q190.067 208.187 188.192 208.604 Q186.34 209.021 184.396 209.9 L184.396 192.539 Z" fill="#000000" fill-rule="nonzero" fill-opacity="1" /><path clip-path="url(#clip960)" d="M-13.8653 979.433 L-5.23688 979.433 Q-9.08524 983.565 -10.9892 988.264 Q-12.8931 992.923 -12.8931 998.189 Q-12.8931 1008.56 -6.53317 1014.07 Q-0.213755 1019.58 11.7769 1019.58 Q23.7271 1019.58 30.087 1014.07 Q36.4064 1008.56 36.4064 998.189 Q36.4064 992.923 34.5025 988.264 Q32.5986 983.565 28.7502 979.433 L37.2976 979.433 Q40.2143 983.727 41.6726 988.548 Q43.1309 993.328 43.1309 998.675 Q43.1309 1012.41 34.7455 1020.31 Q26.3197 1028.21 11.7769 1028.21 Q-2.80633 1028.21 -11.1917 1020.31 Q-19.6176 1012.41 -19.6176 998.675 Q-19.6176 993.247 -18.1593 988.467 Q-16.7414 983.646 -13.8653 979.433 Z" fill="#000000" fill-rule="nonzero" fill-opacity="1" /><path clip-path="url(#clip960)" d="M1.8117 949.537 Q1.8117 955.533 6.51075 959.016 Q11.1693 962.5 19.3116 962.5 Q27.4539 962.5 32.153 959.057 Q36.8115 955.573 36.8115 949.537 Q36.8115 943.583 32.1125 940.099 Q27.4134 936.615 19.3116 936.615 Q11.2503 936.615 6.55125 940.099 Q1.8117 943.583 1.8117 949.537 M-4.50771 949.537 Q-4.50771 939.815 1.8117 934.265 Q8.13111 928.716 19.3116 928.716 Q30.4516 928.716 36.8115 934.265 Q43.1309 939.815 43.1309 949.537 Q43.1309 959.3 36.8115 964.85 Q30.4516 970.359 19.3116 970.359 Q8.13111 970.359 1.8117 964.85 Q-4.50771 959.3 -4.50771 949.537 Z" fill="#000000" fill-rule="nonzero" fill-opacity="1" /><path clip-path="url(#clip960)" d="M14.572 878.647 L41.9562 878.647 L41.9562 886.1 L14.8151 886.1 Q8.37416 886.1 5.17395 888.612 Q1.97373 891.123 1.97373 896.146 Q1.97373 902.182 5.82209 905.666 Q9.67045 909.15 16.3139 909.15 L41.9562 909.15 L41.9562 916.644 L-3.41397 916.644 L-3.41397 909.15 L3.6346 909.15 Q-0.45681 906.476 -2.48226 902.871 Q-4.50771 899.225 -4.50771 894.486 Q-4.50771 886.667 0.353371 882.657 Q5.17395 878.647 14.572 878.647 Z" fill="#000000" fill-rule="nonzero" fill-opacity="1" /><path clip-path="url(#clip960)" d="M-1.67208 831.129 L5.29547 831.129 Q3.55359 834.289 2.7029 837.489 Q1.8117 840.649 1.8117 843.89 Q1.8117 851.141 6.42973 855.151 Q11.0072 859.162 19.3116 859.162 Q27.616 859.162 32.234 855.151 Q36.8115 851.141 36.8115 843.89 Q36.8115 840.649 35.9608 837.489 Q35.0696 834.289 33.3277 831.129 L40.2143 831.129 Q41.6726 834.249 42.4018 837.611 Q43.1309 840.933 43.1309 844.7 Q43.1309 854.949 36.69 860.985 Q30.249 867.02 19.3116 867.02 Q8.21213 867.02 1.85221 860.944 Q-4.50771 854.827 -4.50771 844.214 Q-4.50771 840.771 -3.77855 837.489 Q-3.0899 834.208 -1.67208 831.129 Z" fill="#000000" fill-rule="nonzero" fill-opacity="1" /><path clip-path="url(#clip960)" d="M17.4077 779.359 L21.0535 779.359 L21.0535 813.63 Q28.7502 813.143 32.8011 809.011 Q36.8115 804.839 36.8115 797.426 Q36.8115 793.132 35.7583 789.122 Q34.705 785.071 32.5986 781.101 L39.6471 781.101 Q41.3485 785.111 42.2397 789.324 Q43.1309 793.537 43.1309 797.871 Q43.1309 808.728 36.8115 815.088 Q30.4921 821.407 19.7167 821.407 Q8.57671 821.407 2.05475 815.412 Q-4.50771 809.376 -4.50771 799.168 Q-4.50771 790.013 1.40661 784.706 Q7.28042 779.359 17.4077 779.359 M15.2202 786.813 Q9.10332 786.894 5.45751 790.256 Q1.8117 793.578 1.8117 799.087 Q1.8117 805.325 5.33598 809.093 Q8.86027 812.819 15.2607 813.386 L15.2202 786.813 Z" fill="#000000" fill-rule="nonzero" fill-opacity="1" /><path clip-path="url(#clip960)" d="M14.572 729.411 L41.9562 729.411 L41.9562 736.865 L14.8151 736.865 Q8.37416 736.865 5.17395 739.376 Q1.97373 741.888 1.97373 746.911 Q1.97373 752.947 5.82209 756.431 Q9.67045 759.915 16.3139 759.915 L41.9562 759.915 L41.9562 767.409 L-3.41397 767.409 L-3.41397 759.915 L3.6346 759.915 Q-0.45681 757.241 -2.48226 753.636 Q-4.50771 749.99 -4.50771 745.25 Q-4.50771 737.432 0.353371 733.422 Q5.17395 729.411 14.572 729.411 Z" fill="#000000" fill-rule="nonzero" fill-opacity="1" /><path clip-path="url(#clip960)" d="M-16.2958 707.172 L-3.41397 707.172 L-3.41397 691.819 L2.37882 691.819 L2.37882 707.172 L27.0083 707.172 Q32.5581 707.172 34.1379 705.673 Q35.7178 704.134 35.7178 699.475 L35.7178 691.819 L41.9562 691.819 L41.9562 699.475 Q41.9562 708.103 38.7559 711.385 Q35.5152 714.666 27.0083 714.666 L2.37882 714.666 L2.37882 720.135 L-3.41397 720.135 L-3.41397 714.666 L-16.2958 714.666 L-16.2958 707.172 Z" fill="#000000" fill-rule="nonzero" fill-opacity="1" /><path clip-path="url(#clip960)" d="M3.55359 655.725 Q2.82442 656.981 2.50035 658.48 Q2.13577 659.938 2.13577 661.721 Q2.13577 668.04 6.26769 671.443 Q10.3591 674.805 18.0558 674.805 L41.9562 674.805 L41.9562 682.299 L-3.41397 682.299 L-3.41397 674.805 L3.6346 674.805 Q-0.497319 672.456 -2.48226 668.688 Q-4.50771 664.921 -4.50771 659.533 Q-4.50771 658.763 -4.38619 657.832 Q-4.30517 656.9 -4.10262 655.766 L3.55359 655.725 Z" fill="#000000" fill-rule="nonzero" fill-opacity="1" /><path clip-path="url(#clip960)" d="M19.1496 627.288 Q19.1496 636.321 21.2155 639.805 Q23.2815 643.289 28.2641 643.289 Q32.234 643.289 34.5835 640.696 Q36.8925 638.063 36.8925 633.567 Q36.8925 627.369 32.5176 623.642 Q28.1021 619.875 20.8104 619.875 L19.1496 619.875 L19.1496 627.288 M16.0709 612.421 L41.9562 612.421 L41.9562 619.875 L35.0696 619.875 Q39.2015 622.427 41.1865 626.235 Q43.1309 630.043 43.1309 635.552 Q43.1309 642.519 39.2421 646.651 Q35.3127 650.743 28.7502 650.743 Q21.094 650.743 17.2051 645.639 Q13.3163 640.494 13.3163 630.326 L13.3163 619.875 L12.5871 619.875 Q7.44245 619.875 4.64733 623.278 Q1.8117 626.64 1.8117 632.757 Q1.8117 636.646 2.7434 640.332 Q3.67511 644.018 5.53853 647.421 L-1.34801 647.421 Q-2.92786 643.33 -3.69753 639.481 Q-4.50771 635.633 -4.50771 631.987 Q-4.50771 622.143 0.596425 617.282 Q5.70056 612.421 16.0709 612.421 Z" fill="#000000" fill-rule="nonzero" fill-opacity="1" /><path clip-path="url(#clip960)" d="M-16.2958 589.696 L-3.41397 589.696 L-3.41397 574.343 L2.37882 574.343 L2.37882 589.696 L27.0083 589.696 Q32.5581 589.696 34.1379 588.197 Q35.7178 586.657 35.7178 581.999 L35.7178 574.343 L41.9562 574.343 L41.9562 581.999 Q41.9562 590.627 38.7559 593.908 Q35.5152 597.19 27.0083 597.19 L2.37882 597.19 L2.37882 602.658 L-3.41397 602.658 L-3.41397 597.19 L-16.2958 597.19 L-16.2958 589.696 Z" fill="#000000" fill-rule="nonzero" fill-opacity="1" /><path clip-path="url(#clip960)" d="M-3.41397 564.539 L-3.41397 557.086 L41.9562 557.086 L41.9562 564.539 L-3.41397 564.539 M-21.0759 564.539 L-21.0759 557.086 L-11.6373 557.086 L-11.6373 564.539 L-21.0759 564.539 Z" fill="#000000" fill-rule="nonzero" fill-opacity="1" /><path clip-path="url(#clip960)" d="M1.8117 523.909 Q1.8117 529.904 6.51075 533.388 Q11.1693 536.872 19.3116 536.872 Q27.4539 536.872 32.153 533.428 Q36.8115 529.945 36.8115 523.909 Q36.8115 517.954 32.1125 514.47 Q27.4134 510.986 19.3116 510.986 Q11.2503 510.986 6.55125 514.47 Q1.8117 517.954 1.8117 523.909 M-4.50771 523.909 Q-4.50771 514.187 1.8117 508.637 Q8.13111 503.087 19.3116 503.087 Q30.4516 503.087 36.8115 508.637 Q43.1309 514.187 43.1309 523.909 Q43.1309 533.672 36.8115 539.221 Q30.4516 544.73 19.3116 544.73 Q8.13111 544.73 1.8117 539.221 Q-4.50771 533.672 -4.50771 523.909 Z" fill="#000000" fill-rule="nonzero" fill-opacity="1" /><path clip-path="url(#clip960)" d="M14.572 453.018 L41.9562 453.018 L41.9562 460.472 L14.8151 460.472 Q8.37416 460.472 5.17395 462.983 Q1.97373 465.495 1.97373 470.518 Q1.97373 476.554 5.82209 480.038 Q9.67045 483.521 16.3139 483.521 L41.9562 483.521 L41.9562 491.016 L-3.41397 491.016 L-3.41397 483.521 L3.6346 483.521 Q-0.45681 480.848 -2.48226 477.242 Q-4.50771 473.597 -4.50771 468.857 Q-4.50771 461.039 0.353371 457.028 Q5.17395 453.018 14.572 453.018 Z" fill="#000000" fill-rule="nonzero" fill-opacity="1" /><polyline clip-path="url(#clip961)" style="stroke:#008000; stroke-linecap:round; stroke-linejoin:round; stroke-width:16; stroke-opacity:1; fill:none" stroke-dasharray="64, 40" points="253.299,1299.94 255.514,1313.02 257.729,1323.72 259.944,1332.52 262.159,1339.78 264.374,1345.79 266.589,1350.78 268.804,1354.92 271.019,1358.36 273.234,1361.22 275.449,1363.59 277.664,1365.57 279.879,1367.21 282.094,1368.57 284.309,1369.71 286.524,1370.65 288.739,1371.43 290.954,1372.08 293.169,1372.62 295.384,1373.06 297.599,1373.43 299.814,1373.74 302.029,1373.99 304.244,1374.2 306.459,1374.37 308.674,1374.51 310.889,1374.63 313.104,1374.72 315.319,1374.8 317.534,1374.86 319.749,1374.91 321.964,1374.95 324.179,1374.98 326.394,1375 328.609,1375.02 330.824,1375.03 333.039,1375.04 335.254,1375.04 337.469,1375.04 339.684,1375.04 341.899,1375.04 344.114,1375.03 346.329,1375.03 348.544,1375.02 350.759,1375.01 352.974,1375 355.189,1374.99 357.405,1374.98 359.62,1374.97 361.835,1374.96 364.05,1374.95 366.265,1374.94 368.48,1374.93 370.695,1374.91 372.91,1374.9 375.125,1374.89 377.34,1374.88 379.555,1374.86 381.77,1374.85 383.985,1374.84 386.2,1374.82 388.415,1374.81 390.63,1374.79 392.845,1374.78 395.06,1374.77 397.275,1374.75 399.49,1374.74 401.705,1374.73 403.92,1374.71 406.135,1374.7 408.35,1374.68 410.565,1374.67 412.78,1374.66 414.995,1374.64 417.21,1374.63 419.425,1374.61 421.64,1374.6 423.855,1374.58 426.07,1374.57 428.285,1374.56 430.5,1374.54 432.715,1374.53 434.93,1374.51 437.145,1374.5 439.36,1374.48 441.575,1374.47 443.79,1374.45 446.005,1374.44 448.22,1374.42 450.435,1374.41 452.65,1374.39 454.865,1374.38 457.08,1374.36 459.295,1374.35 461.51,1374.33 463.725,1374.32 465.94,1374.3 468.155,1374.29 470.37,1374.27 472.585,1374.26 474.8,1374.24 477.015,1374.23 479.23,1374.21 481.445,1374.19 483.66,1374.18 485.875,1374.16 488.091,1374.15 490.306,1374.13 492.521,1374.12 494.736,1374.1 496.951,1374.09 499.166,1374.07 501.381,1374.05 503.596,1374.04 505.811,1374.02 508.026,1374.01 510.241,1373.99 512.456,1373.97 514.671,1373.96 516.886,1373.94 519.101,1373.92 521.316,1373.91 523.531,1373.89 525.746,1373.87 527.961,1373.86 530.176,1373.84 532.391,1373.82 534.606,1373.81 536.821,1373.79 539.036,1373.78 541.251,1373.76 543.466,1373.74 545.681,1373.73 547.896,1373.71 550.111,1373.69 552.326,1373.68 554.541,1373.66 556.756,1373.64 558.971,1373.62 561.186,1373.61 563.401,1373.59 565.616,1373.57 567.831,1373.55 570.046,1373.53 572.261,1373.52 574.476,1373.5 576.691,1373.48 578.906,1373.46 581.121,1373.45 583.336,1373.43 585.551,1373.41 587.766,1373.39 589.981,1373.38 592.196,1373.36 594.411,1373.34 596.626,1373.32 598.841,1373.31 601.056,1373.29 603.271,1373.27 605.486,1373.25 607.701,1373.23 609.916,1373.21 612.131,1373.19 614.346,1373.17 616.561,1373.15 618.777,1373.13 620.992,1373.11 623.207,1373.1 625.422,1373.08 627.637,1373.06 629.852,1373.04 632.067,1373.02 634.282,1373 636.497,1372.98 638.712,1372.96 640.927,1372.95 643.142,1372.93 645.357,1372.91 647.572,1372.89 649.787,1372.87 652.002,1372.85 654.217,1372.83 656.432,1372.81 658.647,1372.79 660.862,1372.77 663.077,1372.75 665.292,1372.72 667.507,1372.7 669.722,1372.68 671.937,1372.66 674.152,1372.64 676.367,1372.62 678.582,1372.6 680.797,1372.58 683.012,1372.56 685.227,1372.54 687.442,1372.52 689.657,1372.5 691.872,1372.48 694.087,1372.46 696.302,1372.44 698.517,1372.41 700.732,1372.39 702.947,1372.37 705.162,1372.35 707.377,1372.33 709.592,1372.31 711.807,1372.28 714.022,1372.26 716.237,1372.24 718.452,1372.21 720.667,1372.19 722.882,1372.17 725.097,1372.14 727.312,1372.12 729.527,1372.1 731.742,1372.08 733.957,1372.05 736.172,1372.03 738.387,1372.01 740.602,1371.99 742.817,1371.96 745.032,1371.94 747.247,1371.92 749.463,1371.9 751.678,1371.87 753.893,1371.85 756.108,1371.83 758.323,1371.8 760.538,1371.78 762.753,1371.75 764.968,1371.73 767.183,1371.7 769.398,1371.68 771.613,1371.65 773.828,1371.63 776.043,1371.6 778.258,1371.58 780.473,1371.55 782.688,1371.53 784.903,1371.5 787.118,1371.47 789.333,1371.45 791.548,1371.42 793.763,1371.4 795.978,1371.37 798.193,1371.35 800.408,1371.32 802.623,1371.3 804.838,1371.27 807.053,1371.25 809.268,1371.22 811.483,1371.2 813.698,1371.17 815.913,1371.14 818.128,1371.12 820.343,1371.09 822.558,1371.06 824.773,1371.03 826.988,1371 829.203,1370.98 831.418,1370.95 833.633,1370.92 835.848,1370.89 838.063,1370.86 840.278,1370.83 842.493,1370.8 844.708,1370.77 846.923,1370.75 849.138,1370.72 851.353,1370.69 853.568,1370.66 855.783,1370.63 857.998,1370.6 860.213,1370.57 862.428,1370.55 864.643,1370.52 866.858,1370.49 869.073,1370.46 871.288,1370.43 873.503,1370.4 875.718,1370.37 877.933,1370.33 880.149,1370.3 882.364,1370.27 884.579,1370.24 886.794,1370.21 889.009,1370.18 891.224,1370.14 893.439,1370.11 895.654,1370.08 897.869,1370.04 900.084,1370.01 902.299,1369.98 904.514,1369.94 906.729,1369.91 908.944,1369.88 911.159,1369.84 913.374,1369.81 915.589,1369.78 917.804,1369.74 920.019,1369.71 922.234,1369.68 924.449,1369.64 926.664,1369.61 928.879,1369.57 931.094,1369.54 933.309,1369.5 935.524,1369.47 937.739,1369.43 939.954,1369.39 942.169,1369.36 944.384,1369.32 946.599,1369.28 948.814,1369.25 951.029,1369.21 953.244,1369.17 955.459,1369.13 957.674,1369.09 959.889,1369.05 962.104,1369.01 964.319,1368.98 966.534,1368.94 968.749,1368.9 970.964,1368.86 973.179,1368.82 975.394,1368.78 977.609,1368.74 979.824,1368.7 982.039,1368.66 984.254,1368.61 986.469,1368.57 988.684,1368.53 990.899,1368.49 993.114,1368.45 995.329,1368.4 997.544,1368.36 999.759,1368.32 1001.97,1368.28 1004.19,1368.23 1006.4,1368.19 1008.62,1368.14 1010.83,1368.1 1013.05,1368.05 1015.26,1368 1017.48,1367.96 1019.69,1367.91 1021.91,1367.86 1024.12,1367.82 1026.34,1367.77 1028.55,1367.72 1030.77,1367.67 1032.98,1367.62 1035.2,1367.57 1037.41,1367.52 1039.63,1367.47 1041.84,1367.42 1044.06,1367.37 1046.27,1367.32 1048.49,1367.27 1050.7,1367.22 1052.92,1367.16 1055.13,1367.11 1057.35,1367.06 1059.56,1367 1061.78,1366.95 1063.99,1366.89 1066.21,1366.84 1068.42,1366.78 1070.64,1366.73 1072.85,1366.67 1075.07,1366.61 1077.29,1366.55 1079.5,1366.49 1081.72,1366.43 1083.93,1366.37 1086.15,1366.31 1088.36,1366.25 1090.58,1366.19 1092.79,1366.13 1095.01,1366.06 1097.22,1366 1099.44,1365.93 1101.65,1365.87 1103.87,1365.8 1106.08,1365.74 1108.3,1365.67 1110.51,1365.6 1112.73,1365.53 1114.94,1365.46 1117.16,1365.39 1119.37,1365.32 1121.59,1365.25 1123.8,1365.17 1126.02,1365.1 1128.23,1365.02 1130.45,1364.95 1132.66,1364.87 1134.88,1364.79 1137.09,1364.71 1139.31,1364.63 1141.52,1364.55 1143.74,1364.47 1145.95,1364.39 1148.17,1364.3 1150.38,1364.22 1152.6,1364.13 1154.81,1364.04 1157.03,1363.95 1159.24,1363.86 1161.46,1363.77 1163.67,1363.68 1165.89,1363.59 1168.1,1363.49 1170.32,1363.39 1172.53,1363.3 1174.75,1363.2 1176.96,1363.09 1179.18,1362.99 1181.39,1362.89 1183.61,1362.78 1185.82,1362.67 1188.04,1362.56 1190.25,1362.45 1192.47,1362.33 1194.68,1362.22 1196.9,1362.1 1199.11,1361.97 1201.33,1361.85 1203.54,1361.72 1205.76,1361.59 1207.97,1361.46 1210.19,1361.32 1212.4,1361.18 1214.62,1361.03 1216.83,1360.88 1219.05,1360.73 1221.26,1360.57 1223.48,1360.41 1225.69,1360.25 1227.91,1360.09 1230.12,1359.92 1232.34,1359.75 1234.55,1359.58 1236.77,1359.4 1238.98,1359.22 1241.2,1359.03 1243.41,1358.84 1245.63,1358.65 1247.84,1358.45 1250.06,1358.25 1252.27,1358.04 1254.49,1357.82 1256.7,1357.6 1258.92,1357.37 1261.13,1357.13 1263.35,1356.88 1265.56,1356.62 1267.78,1356.35 1269.99,1356.07 1272.21,1355.77 1274.42,1355.47 1276.64,1355.14 1278.85,1354.81 1281.07,1354.45 1283.28,1354.08 1285.5,1353.69 1287.71,1353.28 1289.93,1352.84 1292.14,1352.39 1294.36,1351.91 1296.57,1351.4 1298.79,1350.86 1301,1350.29 1303.22,1349.67 1305.43,1349.01 1307.65,1348.32 1309.86,1347.57 1312.08,1346.78 1314.29,1345.92 1316.51,1344.98 1318.72,1343.95 1320.94,1342.82 1323.15,1341.55 1325.37,1340.14 1327.58,1338.56 1329.8,1336.78 1332.01,1334.7 1334.23,1332.27 1336.44,1329.54 1338.66,1326.42 1340.87,1322.75 1343.09,1318.22 1345.3,1312.43 1347.52,1304.88 1349.73,1294.88 1351.95,1281.03 1354.16,1260.8 1356.38,1227.59 1358.59,1166.14 1360.81,1028.66 1363.02,646.019 1365.24,212.484 1367.45,192.374 1369.67,232.705 1371.88,274.709 1374.1,315.394 1376.31,354.649 1378.53,392.518 1380.74,429.057 1382.96,464.312 1385.17,498.335 1387.39,531.188 1389.6,562.903 1391.82,593.531 1394.03,623.125 1396.25,651.709 1398.46,679.348 1400.68,706.06 1402.89,731.9 1405.11,756.897 1407.32,781.087 1409.54,804.514 1411.75,827.198 1413.97,849.182 1416.18,870.498 1418.4,891.17 1420.61,911.232 1422.83,930.713 1425.04,949.641 1427.26,968.043 1429.47,985.941 1431.69,1003.36 1433.9,1020.33 1436.12,1036.86 1438.33,1052.99 1440.55,1068.72 1442.76,1084.08 1444.98,1099.08 1447.19,1113.73 1449.41,1128.04 1451.62,1142.02 1453.84,1155.68 1456.05,1169.02 1458.27,1182.02 1460.48,1194.69 1462.7,1207.01 1464.91,1218.96 1467.13,1230.53 1469.34,1241.7 1471.56,1252.44 1473.77,1262.72 1475.99,1272.53 1478.2,1281.82 1480.42,1290.6 1482.63,1298.82 1484.85,1306.5 1487.06,1313.61 1489.28,1320.17 1491.49,1326.17 1493.71,1331.64 1495.92,1336.59 1498.14,1341.05 1500.35,1345.06 1502.57,1348.64 1504.78,1351.82 1507,1354.62 1509.21,1357.08 1511.43,1359.23 1513.64,1361.11 1515.86,1362.76 1518.07,1364.21 1520.29,1365.47 1522.5,1366.56 1524.72,1367.5 1526.93,1368.31 1529.15,1369.02 1531.36,1369.63 1533.58,1370.15 1535.79,1370.6 1538.01,1370.99 1540.22,1371.32 1542.44,1371.6 1544.65,1371.84 1546.87,1372.04 1549.08,1372.22 1551.3,1372.37 1553.51,1372.49 1555.73,1372.6 1557.94,1372.69 1560.16,1372.76 1562.37,1372.82 1564.59,1372.87 1566.8,1372.92 1569.02,1372.95 1571.23,1372.98 1573.45,1372.99 1575.66,1373.01 1577.88,1373.02 1580.09,1373.02 1582.31,1373.03 1584.52,1373.03 1586.74,1373.02 1588.95,1373.02 1591.17,1373.01 1593.38,1373 1595.6,1372.99 1597.81,1372.98 1600.03,1372.97 1602.24,1372.95 1604.46,1372.94 1606.67,1372.93 1608.89,1372.91 1611.1,1372.89 1613.32,1372.88 1615.53,1372.86 1617.75,1372.84 1619.96,1372.82 1622.18,1372.81 1624.39,1372.79 1626.61,1372.77 1628.82,1372.75 1631.04,1372.73 1633.25,1372.71 1635.47,1372.69 1637.68,1372.67 1639.9,1372.65 1642.11,1372.63 1644.33,1372.61 1646.54,1372.59 1648.76,1372.57 1650.97,1372.55 1653.19,1372.53 1655.4,1372.51 1657.62,1372.49 1659.83,1372.46 1662.05,1372.44 1664.26,1372.42 1666.48,1372.4 1668.69,1372.38 1670.91,1372.36 1673.12,1372.34 1675.34,1372.31 1677.55,1372.29 1679.77,1372.27 1681.98,1372.25 1684.2,1372.23 1686.41,1372.2 1688.63,1372.18 1690.84,1372.16 1693.06,1372.14 1695.27,1372.11 1697.49,1372.09 1699.7,1372.07 1701.92,1372.05 1704.13,1372.02 1706.35,1372 1708.56,1371.98 1710.78,1371.95 1712.99,1371.93 1715.21,1371.91 1717.42,1371.88 1719.64,1371.86 1721.85,1371.84 1724.07,1371.81 1726.28,1371.79 1728.5,1371.76 1730.72,1371.74 1732.93,1371.72 1735.15,1371.69 1737.36,1371.67 1739.58,1371.64 1741.79,1371.62 1744.01,1371.59 1746.22,1371.57 1748.44,1371.54 1750.65,1371.52 1752.87,1371.49 1755.08,1371.47 1757.3,1371.44 1759.51,1371.42 1761.73,1371.39 1763.94,1371.37 1766.16,1371.34 1768.37,1371.31 1770.59,1371.29 1772.8,1371.26 1775.02,1371.23 1777.23,1371.21 1779.45,1371.18 1781.66,1371.15 1783.88,1371.13 1786.09,1371.1 1788.31,1371.07 1790.52,1371.04 1792.74,1371.02 1794.95,1370.99 1797.17,1370.96 1799.38,1370.93 1801.6,1370.91 1803.81,1370.88 1806.03,1370.85 1808.24,1370.82 1810.46,1370.79 1812.67,1370.77 1814.89,1370.74 1817.1,1370.71 1819.32,1370.68 1821.53,1370.65 1823.75,1370.62 1825.96,1370.59 1828.18,1370.56 1830.39,1370.53 1832.61,1370.5 1834.82,1370.47 1837.04,1370.44 1839.25,1370.41 1841.47,1370.38 1843.68,1370.35 1845.9,1370.32 1848.11,1370.28 1850.33,1370.25 1852.54,1370.22 1854.76,1370.19 1856.97,1370.16 1859.19,1370.13 1861.4,1370.1 1863.62,1370.06 1865.83,1370.03 1868.05,1370 1870.26,1369.97 1872.48,1369.93 1874.69,1369.9 1876.91,1369.87 1879.12,1369.83 1881.34,1369.8 1883.55,1369.76 1885.77,1369.73 1887.98,1369.7 1890.2,1369.66 1892.41,1369.63 1894.63,1369.59 1896.84,1369.55 1899.06,1369.52 1901.27,1369.48 1903.49,1369.45 1905.7,1369.41 1907.92,1369.37 1910.13,1369.34 1912.35,1369.3 1914.56,1369.26 1916.78,1369.23 1918.99,1369.19 1921.21,1369.15 1923.42,1369.11 1925.64,1369.08 1927.85,1369.04 1930.07,1369 1932.28,1368.96 1934.5,1368.92 1936.71,1368.88 1938.93,1368.84 1941.14,1368.8 1943.36,1368.76 1945.57,1368.72 1947.79,1368.68 1950,1368.64 1952.22,1368.6 1954.43,1368.55 1956.65,1368.51 1958.86,1368.47 1961.08,1368.43 1963.29,1368.38 1965.51,1368.34 1967.72,1368.29 1969.94,1368.25 1972.15,1368.21 1974.37,1368.16 1976.58,1368.12 1978.8,1368.07 1981.01,1368.03 1983.23,1367.98 1985.44,1367.93 1987.66,1367.89 1989.87,1367.84 1992.09,1367.79 1994.3,1367.75 1996.52,1367.7 1998.73,1367.65 2000.95,1367.6 2003.16,1367.55 2005.38,1367.5 2007.59,1367.45 2009.81,1367.4 2012.02,1367.35 2014.24,1367.3 2016.45,1367.25 2018.67,1367.19 2020.88,1367.14 2023.1,1367.09 2025.31,1367.03 2027.53,1366.98 2029.74,1366.92 2031.96,1366.87 2034.17,1366.81 2036.39,1366.75 2038.6,1366.7 2040.82,1366.64 2043.03,1366.58 2045.25,1366.52 2047.46,1366.46 2049.68,1366.4 2051.89,1366.34 2054.11,1366.28 2056.32,1366.22 2058.54,1366.16 2060.75,1366.1 2062.97,1366.03 2065.18,1365.97 2067.4,1365.9 2069.61,1365.84 2071.83,1365.77 2074.04,1365.7 2076.26,1365.64 2078.47,1365.57 2080.69,1365.5 2082.9,1365.43 2085.12,1365.36 2087.33,1365.29 2089.55,1365.21 2091.76,1365.14 2093.98,1365.07 2096.19,1364.99 2098.41,1364.91 2100.62,1364.84 2102.84,1364.76 2105.05,1364.68 2107.27,1364.6 2109.48,1364.52 2111.7,1364.44 2113.91,1364.35 2116.13,1364.27 2118.34,1364.18 2120.56,1364.09 2122.77,1364 2124.99,1363.91 2127.2,1363.82 2129.42,1363.73 2131.63,1363.63 2133.85,1363.54 2136.06,1363.44 2138.28,1363.34 2140.49,1363.24 2142.71,1363.14 2144.92,1363.04 2147.14,1362.93 2149.35,1362.82 2151.57,1362.72 2153.78,1362.61 2156,1362.49 2158.21,1362.38 2160.43,1362.27 2162.64,1362.15 2164.86,1362.03 2167.07,1361.91 2169.29,1361.78 2171.5,1361.66 2173.72,1361.53 2175.93,1361.4 2178.15,1361.26 2180.36,1361.12 2182.58,1360.98 2184.79,1360.84 2187.01,1360.69 2189.22,1360.54 2191.44,1360.39 2193.65,1360.23 2195.87,1360.07 2198.08,1359.9 2200.3,1359.73 2202.51,1359.56 2204.73,1359.38 2206.94,1359.19 2209.16,1359 2211.37,1358.81 2213.59,1358.6 2215.8,1358.39 2218.02,1358.17 2220.23,1357.94 2222.45,1357.7 2224.66,1357.45 2226.88,1357.19 2229.09,1356.93 2231.31,1356.66 2233.52,1356.38 2235.74,1356.1 2237.95,1355.81 2240.17,1355.51 2242.38,1355.2 2244.6,1354.88 2246.81,1354.55 2249.03,1354.21 2251.24,1353.85 2253.46,1353.47 2255.67,1353.07 2257.89,1352.65 2260.1,1352.2 2262.32,1351.72 2264.53,1351.21 2266.75,1350.66 2268.96,1350.08 2271.18,1349.45 2273.39,1348.77 2275.61,1348.04 2277.82,1347.25 2280.04,1346.4 2282.25,1345.48 2284.47,1344.48 2286.68,1343.39 2288.9,1342.2 2291.11,1340.87 2293.33,1339.39 2295.54,1337.73 2297.76,1335.84 2299.97,1333.67 2302.19,1331.11 2304.4,1328.15 2306.62,1324.73 2308.83,1320.64 2311.05,1315.56 2313.26,1309.03 2315.48,1300.45 2317.69,1288.57 2319.91,1272.24 2322.12,1247.44 2324.34,1203.57 2326.55,1115.97 2328.77,892.052 2330.98,376.783 2333.2,182.301 2335.41,210.799 2337.63,252.947 2339.84,294.367 2342.06,334.364 2344.27,372.949 2346.49,410.173 2348.7,446.094 2350.92,480.753 2353.13,514.206 2355.35,546.513 2357.56,577.699 2359.78,607.826 2361.99,636.932 2364.21,665.058 2366.42,692.248 2368.64,718.54 2370.85,743.968 2373.07,768.58 2375.28,792.395 2377.5,815.463 2379.71,837.811 2381.93,859.468 2384.15,880.472 2386.36,900.85 2388.58,920.631 2390.79,939.843 2393.01,958.514 2395.22,976.671 2397.44,994.342 2399.65,1011.55 2401.87,1028.3 2404.08,1044.63 2406.3,1060.56 2408.51,1076.11 2410.73,1091.29 2412.94,1106.13 2415.16,1120.62 2417.37,1134.77 2419.59,1148.6 2421.8,1162.1 2424.02,1175.28 2426.23,1188.12 2428.45,1200.62 2430.66,1212.77 2432.88,1224.55 2435.09,1235.93 2437.31,1246.9 2439.52,1257.42 2441.74,1267.48 2443.95,1277.03 2446.17,1286.07 2448.38,1294.58 2450.6,1302.54 2452.81,1309.95 2455.03,1316.81 2457.24,1323.11 2459.46,1328.86 2461.67,1334.08 2463.89,1338.8 2466.1,1343.05 2468.32,1346.84 2470.53,1350.2 2472.75,1353.18 2474.96,1355.8 2477.18,1358.12 2479.39,1360.16 2481.61,1361.94 2483.82,1363.5 2486.04,1364.85 2488.25,1366.02 2490.47,1367.03 2492.68,1367.91 2494.9,1368.67 2497.11,1369.33 2499.33,1369.89 2501.54,1370.38 2503.76,1370.79 2505.97,1371.15 2508.19,1371.46 2510.4,1371.72 2512.62,1371.94 2514.83,1372.13 2517.05,1372.3 2519.26,1372.43 2521.48,1372.55 2523.69,1372.64 2525.91,1372.73 2528.12,1372.79 2530.34,1372.85 2532.55,1372.9 2534.77,1372.93 2536.98,1372.96 2539.2,1372.98 2541.41,1373 2543.63,1373.01 2545.84,1373.02 2548.06,1373.03 2550.27,1373.03 2552.49,1373.03 2554.7,1373.02 2556.92,1373.02 2559.13,1373.01 2561.35,1373 2563.56,1372.99 2565.78,1372.97 2567.99,1372.96 2570.21,1372.95 2572.42,1372.93 2574.64,1372.92 2576.85,1372.9 2579.07,1372.89 2581.28,1372.87 2583.5,1372.85 2585.71,1372.83 2587.93,1372.81 2590.14,1372.8 2592.36,1372.78 2594.57,1372.76 2596.79,1372.74 2599,1372.72 2601.22,1372.7 2603.43,1372.68 2605.65,1372.66 2607.86,1372.64 2610.08,1372.62 2612.29,1372.6 2614.51,1372.58 2616.72,1372.56 2618.94,1372.54 2621.15,1372.52 2623.37,1372.5 2625.58,1372.48 2627.8,1372.45 2630.01,1372.43 2632.23,1372.41 2634.44,1372.39 2636.66,1372.37 2638.87,1372.35 2641.09,1372.33 2643.3,1372.3 2645.52,1372.28 2647.73,1372.26 2649.95,1372.24 2652.16,1372.22 2654.38,1372.19 2656.59,1372.17 2658.81,1372.15 2661.02,1372.13 2663.24,1372.1 2665.45,1372.08 2667.67,1372.06 2669.88,1372.04 2672.1,1372.01 2674.31,1371.99 2676.53,1371.97 2678.74,1371.94 2680.96,1371.92 2683.17,1371.9 2685.39,1371.87 2687.6,1371.85 2689.82,1371.82 2692.03,1371.8 2694.25,1371.78 2696.46,1371.75 2698.68,1371.73 2700.89,1371.7 2703.11,1371.68 2705.32,1371.65 2707.54,1371.63 2709.75,1371.6 2711.97,1371.58 2714.18,1371.56 2716.4,1371.53 2718.61,1371.51 2720.83,1371.48 2723.04,1371.46 2725.26,1371.43 2727.47,1371.4 2729.69,1371.38 2731.9,1371.35 2734.12,1371.33 2736.33,1371.3 2738.55,1371.27 2740.76,1371.25 2742.98,1371.22 2745.19,1371.19 2747.41,1371.17 2749.62,1371.14 2751.84,1371.11 2754.05,1371.09 2756.27,1371.06 2758.48,1371.03 2760.7,1371 2762.91,1370.98 2765.13,1370.95 2767.34,1370.92 2769.56,1370.89 2771.77,1370.87 2773.99,1370.84 2776.2,1370.81 2778.42,1370.78 2780.63,1370.75 2782.85,1370.72 2785.06,1370.69 2787.28,1370.67 2789.49,1370.64 2791.71,1370.61 2793.92,1370.58 2796.14,1370.55 2798.35,1370.52 2800.57,1370.49 2802.78,1370.45 2805,1370.42 2807.21,1370.39 2809.43,1370.36 2811.64,1370.33 2813.86,1370.3 2816.07,1370.27 2818.29,1370.24 2820.5,1370.21 2822.72,1370.18 2824.93,1370.14 2827.15,1370.11 2829.36,1370.08 2831.58,1370.05 2833.79,1370.02 2836.01,1369.98 2838.22,1369.95 2840.44,1369.92 2842.65,1369.88 2844.87,1369.85 2847.08,1369.82 2849.3,1369.78 2851.51,1369.75 2853.73,1369.71 2855.94,1369.68 2858.16,1369.64 2860.37,1369.61 2862.59,1369.57 2864.8,1369.54 2867.02,1369.5 2869.23,1369.46 2871.45,1369.43 2873.66,1369.39 2875.88,1369.36 2878.09,1369.32 2880.31,1369.28 2882.52,1369.25 2884.74,1369.21 2886.95,1369.17 2889.17,1369.13 2891.38,1369.1 2893.6,1369.06 2895.81,1369.02 2898.03,1368.98 2900.24,1368.94 2902.46,1368.9 2904.67,1368.86 2906.89,1368.82 2909.1,1368.78 2911.32,1368.74 2913.53,1368.7 2915.75,1368.66 2917.96,1368.62 2920.18,1368.58 2922.39,1368.53 2924.61,1368.49 2926.82,1368.45 2929.04,1368.4 2931.25,1368.36 2933.47,1368.32 2935.68,1368.27 2937.9,1368.23 2940.11,1368.19 2942.33,1368.14 2944.54,1368.1 2946.76,1368.05 2948.97,1368.01 2951.19,1367.96 2953.4,1367.91 2955.62,1367.87 2957.83,1367.82 2960.05,1367.77 2962.26,1367.72 2964.48,1367.68 2966.69,1367.63 2968.91,1367.58 2971.12,1367.53 2973.34,1367.48 2975.55,1367.43 2977.77,1367.38 2979.98,1367.32 2982.2,1367.27 2984.41,1367.22 2986.63,1367.17 2988.84,1367.11 2991.06,1367.06 2993.27,1367.01 2995.49,1366.95 2997.7,1366.9 2999.92,1366.84 3002.13,1366.78 3004.35,1366.73 3006.56,1366.67 3008.78,1366.61 3010.99,1366.55 3013.21,1366.49 3015.42,1366.44 3017.64,1366.38 3019.85,1366.31 3022.07,1366.25 3024.28,1366.19 3026.5,1366.13 3028.71,1366.07 3030.93,1366 3033.14,1365.94 3035.36,1365.87 3037.58,1365.81 3039.79,1365.74 3042.01,1365.67 3044.22,1365.6 3046.44,1365.54 3048.65,1365.47 3050.87,1365.4 3053.08,1365.32 3055.3,1365.25 3057.51,1365.18 3059.73,1365.1 3061.94,1365.03 3064.16,1364.95 3066.37,1364.88 3068.59,1364.8 3070.8,1364.72 3073.02,1364.64 3075.23,1364.56 3077.45,1364.48 3079.66,1364.4 3081.88,1364.31 3084.09,1364.23 3086.31,1364.14 3088.52,1364.05 3090.74,1363.96 3092.95,1363.87 3095.17,1363.78 3097.38,1363.69 3099.6,1363.59 3101.81,1363.5 3104.03,1363.4 3106.24,1363.3 3108.46,1363.2 3110.67,1363.1 3112.89,1362.99 3115.1,1362.89 3117.32,1362.78 3119.53,1362.67 3121.75,1362.56 3123.96,1362.45 3126.18,1362.34 3128.39,1362.22 3130.61,1362.1 3132.82,1361.98 3135.04,1361.86 3137.25,1361.73 3139.47,1361.6 3141.68,1361.47 3143.9,1361.34 3146.11,1361.2 3148.33,1361.06 3150.54,1360.92 3152.76,1360.77 "/>
<polyline clip-path="url(#clip961)" style="stroke:#008000; stroke-linecap:round; stroke-linejoin:round; stroke-width:16; stroke-opacity:1; fill:none" stroke-dasharray="64, 40" points="253.299,1394.73 255.514,1381.39 257.729,1369.98 259.944,1360.11 262.159,1351.46 264.374,1343.8 266.589,1336.97 268.804,1330.8 271.019,1325.19 273.234,1320.05 275.449,1315.29 277.664,1310.84 279.879,1306.66 282.094,1302.7 284.309,1298.92 286.524,1295.3 288.739,1291.8 290.954,1288.41 293.169,1285.1 295.384,1281.87 297.599,1278.7 299.814,1275.58 302.029,1272.51 304.244,1269.47 306.459,1266.46 308.674,1263.47 310.889,1260.5 313.104,1257.55 315.319,1254.62 317.534,1251.7 319.749,1248.79 321.964,1245.88 324.179,1242.99 326.394,1240.1 328.609,1237.21 330.824,1234.33 333.039,1231.46 335.254,1228.58 337.469,1225.71 339.684,1222.84 341.899,1219.98 344.114,1217.11 346.329,1214.25 348.544,1211.39 350.759,1208.53 352.974,1205.67 355.189,1202.82 357.405,1199.96 359.62,1197.1 361.835,1194.25 364.05,1191.4 366.265,1188.54 368.48,1185.69 370.695,1182.84 372.91,1179.99 375.125,1177.14 377.34,1174.29 379.555,1171.44 381.77,1168.59 383.985,1165.74 386.2,1162.9 388.415,1160.05 390.63,1157.2 392.845,1154.36 395.06,1151.51 397.275,1148.67 399.49,1145.83 401.705,1142.98 403.92,1140.14 406.135,1137.3 408.35,1134.46 410.565,1131.62 412.78,1128.78 414.995,1125.94 417.21,1123.1 419.425,1120.26 421.64,1117.42 423.855,1114.59 426.07,1111.75 428.285,1108.91 430.5,1106.08 432.715,1103.24 434.93,1100.41 437.145,1097.58 439.36,1094.74 441.575,1091.91 443.79,1089.08 446.005,1086.25 448.22,1083.42 450.435,1080.59 452.65,1077.76 454.865,1074.93 457.08,1072.1 459.295,1069.27 461.51,1066.45 463.725,1063.62 465.94,1060.8 468.155,1057.97 470.37,1055.15 472.585,1052.32 474.8,1049.5 477.015,1046.68 479.23,1043.86 481.445,1041.04 483.66,1038.21 485.875,1035.39 488.091,1032.58 490.306,1029.76 492.521,1026.94 494.736,1024.12 496.951,1021.3 499.166,1018.49 501.381,1015.67 503.596,1012.86 505.811,1010.04 508.026,1007.23 510.241,1004.42 512.456,1001.61 514.671,998.795 516.886,995.985 519.101,993.175 521.316,990.366 523.531,987.557 525.746,984.749 527.961,981.942 530.176,979.135 532.391,976.329 534.606,973.524 536.821,970.719 539.036,967.915 541.251,965.111 543.466,962.308 545.681,959.506 547.896,956.705 550.111,953.904 552.326,951.105 554.541,948.306 556.756,945.508 558.971,942.71 561.186,939.914 563.401,937.118 565.616,934.323 567.831,931.529 570.046,928.735 572.261,925.942 574.476,923.15 576.691,920.358 578.906,917.567 581.121,914.776 583.336,911.986 585.551,909.197 587.766,906.408 589.981,903.62 592.196,900.833 594.411,898.047 596.626,895.262 598.841,892.477 601.056,889.694 603.271,886.911 605.486,884.129 607.701,881.348 609.916,878.568 612.131,875.789 614.346,873.01 616.561,870.233 618.777,867.456 620.992,864.679 623.207,861.904 625.422,859.129 627.637,856.355 629.852,853.581 632.067,850.808 634.282,848.035 636.497,845.264 638.712,842.493 640.927,839.723 643.142,836.954 645.357,834.186 647.572,831.418 649.787,828.652 652.002,825.887 654.217,823.122 656.432,820.359 658.647,817.597 660.862,814.835 663.077,812.074 665.292,809.315 667.507,806.556 669.722,803.798 671.937,801.041 674.152,798.284 676.367,795.528 678.582,792.773 680.797,790.018 683.012,787.265 685.227,784.512 687.442,781.759 689.657,779.008 691.872,776.257 694.087,773.508 696.302,770.759 698.517,768.012 700.732,765.265 702.947,762.52 705.162,759.776 707.377,757.032 709.592,754.29 711.807,751.548 714.022,748.808 716.237,746.069 718.452,743.331 720.667,740.593 722.882,737.857 725.097,735.121 727.312,732.386 729.527,729.653 731.742,726.919 733.957,724.187 736.172,721.455 738.387,718.724 740.602,715.994 742.817,713.266 745.032,710.538 747.247,707.811 749.463,705.085 751.678,702.36 753.893,699.636 756.108,696.914 758.323,694.192 760.538,691.472 762.753,688.753 764.968,686.035 767.183,683.318 769.398,680.602 771.613,677.887 773.828,675.174 776.043,672.461 778.258,669.75 780.473,667.039 782.688,664.33 784.903,661.621 787.118,658.914 789.333,656.207 791.548,653.501 793.763,650.796 795.978,648.092 798.193,645.389 800.408,642.687 802.623,639.987 804.838,637.287 807.053,634.589 809.268,631.892 811.483,629.196 813.698,626.502 815.913,623.808 818.128,621.116 820.343,618.425 822.558,615.736 824.773,613.047 826.988,610.36 829.203,607.675 831.418,604.99 833.633,602.307 835.848,599.625 838.063,596.944 840.278,594.264 842.493,591.585 844.708,588.907 846.923,586.231 849.138,583.555 851.353,580.881 853.568,578.208 855.783,575.536 857.998,572.865 860.213,570.196 862.428,567.527 864.643,564.861 866.858,562.195 869.073,559.531 871.288,556.868 873.503,554.207 875.718,551.547 877.933,548.889 880.149,546.232 882.364,543.576 884.579,540.922 886.794,538.269 889.009,535.618 891.224,532.968 893.439,530.32 895.654,527.673 897.869,525.027 900.084,522.383 902.299,519.74 904.514,517.099 906.729,514.459 908.944,511.82 911.159,509.182 913.374,506.546 915.589,503.911 917.804,501.278 920.019,498.646 922.234,496.016 924.449,493.387 926.664,490.76 928.879,488.135 931.094,485.511 933.309,482.889 935.524,480.268 937.739,477.649 939.954,475.032 942.169,472.416 944.384,469.802 946.599,467.19 948.814,464.579 951.029,461.971 953.244,459.363 955.459,456.758 957.674,454.154 959.889,451.552 962.104,448.952 964.319,446.353 966.534,443.756 968.749,441.161 970.964,438.568 973.179,435.976 975.394,433.386 977.609,430.797 979.824,428.211 982.039,425.626 984.254,423.043 986.469,420.462 988.684,417.883 990.899,415.306 993.114,412.731 995.329,410.158 997.544,407.587 999.759,405.017 1001.97,402.45 1004.19,399.885 1006.4,397.322 1008.62,394.761 1010.83,392.202 1013.05,389.645 1015.26,387.09 1017.48,384.537 1019.69,381.987 1021.91,379.439 1024.12,376.892 1026.34,374.349 1028.55,371.807 1030.77,369.267 1032.98,366.73 1035.2,364.195 1037.41,361.662 1039.63,359.132 1041.84,356.604 1044.06,354.078 1046.27,351.555 1048.49,349.034 1050.7,346.515 1052.92,343.999 1055.13,341.485 1057.35,338.974 1059.56,336.466 1061.78,333.96 1063.99,331.457 1066.21,328.956 1068.42,326.458 1070.64,323.962 1072.85,321.47 1075.07,318.98 1077.29,316.493 1079.5,314.008 1081.72,311.527 1083.93,309.048 1086.15,306.572 1088.36,304.1 1090.58,301.63 1092.79,299.163 1095.01,296.699 1097.22,294.239 1099.44,291.781 1101.65,289.327 1103.87,286.876 1106.08,284.428 1108.3,281.983 1110.51,279.542 1112.73,277.105 1114.94,274.67 1117.16,272.239 1119.37,269.812 1121.59,267.389 1123.8,264.969 1126.02,262.553 1128.23,260.14 1130.45,257.732 1132.66,255.327 1134.88,252.927 1137.09,250.53 1139.31,248.137 1141.52,245.748 1143.74,243.364 1145.95,240.984 1148.17,238.608 1150.38,236.236 1152.6,233.868 1154.81,231.506 1157.03,229.147 1159.24,226.794 1161.46,224.445 1163.67,222.101 1165.89,219.762 1168.1,217.428 1170.32,215.099 1172.53,212.776 1174.75,210.458 1176.96,208.145 1179.18,205.838 1181.39,203.537 1183.61,201.242 1185.82,198.952 1188.04,196.669 1190.25,194.392 1192.47,192.122 1194.68,189.858 1196.9,187.601 1199.11,185.351 1201.33,183.108 1203.54,180.872 1205.76,178.646 1207.97,176.429 1210.19,174.222 1212.4,172.023 1214.62,169.834 1216.83,167.653 1219.05,165.481 1221.26,163.317 1223.48,161.161 1225.69,159.015 1227.91,156.876 1230.12,154.747 1232.34,152.627 1234.55,150.517 1236.77,148.416 1238.98,146.325 1241.2,144.246 1243.41,142.177 1245.63,140.121 1247.84,138.078 1250.06,136.047 1252.27,134.031 1254.49,132.03 1256.7,130.045 1258.92,128.078 1261.13,126.128 1263.35,124.197 1265.56,122.287 1267.78,120.398 1269.99,118.532 1272.21,116.69 1274.42,114.874 1276.64,113.085 1278.85,111.324 1281.07,109.594 1283.28,107.896 1285.5,106.231 1287.71,104.601 1289.93,103.009 1292.14,101.456 1294.36,99.9439 1296.57,98.4748 1298.79,97.0577 1301,95.7026 1303.22,94.4082 1305.43,93.1759 1307.65,92.0098 1309.86,90.917 1312.08,89.9071 1314.29,88.9929 1316.51,88.1895 1318.72,87.5153 1320.94,86.9913 1323.15,86.6411 1325.37,86.4913 1327.58,86.5715 1329.8,86.9136 1332.01,87.6236 1334.23,88.7686 1336.44,90.3142 1338.66,92.3448 1340.87,95.0653 1343.09,98.8021 1345.3,104.002 1347.52,111.234 1349.73,121.229 1351.95,135.524 1354.16,156.833 1356.38,192.117 1358.59,257.341 1360.81,402.146 1363.02,801.301 1365.24,1269.65 1367.45,1332.21 1369.67,1333.44 1371.88,1331.39 1374.1,1329.08 1376.31,1326.68 1378.53,1324.19 1380.74,1321.61 1382.96,1318.95 1385.17,1316.19 1387.39,1313.32 1389.6,1310.36 1391.82,1307.3 1394.03,1304.12 1396.25,1300.84 1398.46,1297.43 1400.68,1293.91 1402.89,1290.26 1405.11,1286.48 1407.32,1282.57 1409.54,1278.51 1411.75,1274.31 1413.97,1269.96 1416.18,1265.46 1418.4,1260.79 1420.61,1255.96 1422.83,1250.95 1425.04,1245.76 1427.26,1240.39 1429.47,1234.82 1431.69,1229.06 1433.9,1223.1 1436.12,1216.93 1438.33,1210.54 1440.55,1203.94 1442.76,1197.12 1444.98,1190.08 1447.19,1182.82 1449.41,1175.35 1451.62,1167.66 1453.84,1159.77 1456.05,1151.69 1458.27,1143.44 1460.48,1135.03 1462.7,1126.5 1464.91,1117.86 1467.13,1109.16 1469.34,1100.43 1471.56,1091.71 1473.77,1083.04 1475.99,1074.47 1478.2,1066.04 1480.42,1057.79 1482.63,1049.76 1484.85,1041.99 1487.06,1034.48 1489.28,1027.28 1491.49,1020.39 1493.71,1013.81 1495.92,1007.55 1498.14,1001.6 1500.35,995.949 1502.57,990.578 1504.78,985.481 1507,980.643 1509.21,976.045 1511.43,971.667 1513.64,967.482 1515.86,963.462 1518.07,959.587 1520.29,955.85 1522.5,952.235 1524.72,948.729 1526.93,945.317 1529.15,941.987 1531.36,938.728 1533.58,935.532 1535.79,932.391 1538.01,929.299 1540.22,926.249 1542.44,923.236 1544.65,920.254 1546.87,917.297 1549.08,914.364 1551.3,911.451 1553.51,908.556 1555.73,905.677 1557.94,902.811 1560.16,899.957 1562.37,897.113 1564.59,894.277 1566.8,891.449 1569.02,888.628 1571.23,885.813 1573.45,883.003 1575.66,880.198 1577.88,877.398 1580.09,874.6 1582.31,871.806 1584.52,869.015 1586.74,866.226 1588.95,863.439 1591.17,860.655 1593.38,857.873 1595.6,855.093 1597.81,852.314 1600.03,849.537 1602.24,846.761 1604.46,843.987 1606.67,841.214 1608.89,838.442 1611.1,835.671 1613.32,832.901 1615.53,830.133 1617.75,827.366 1619.96,824.6 1622.18,821.834 1624.39,819.07 1626.61,816.307 1628.82,813.545 1631.04,810.783 1633.25,808.023 1635.47,805.263 1637.68,802.504 1639.9,799.746 1642.11,796.99 1644.33,794.234 1646.54,791.479 1648.76,788.725 1650.97,785.972 1653.19,783.219 1655.4,780.468 1657.62,777.718 1659.83,774.968 1662.05,772.219 1664.26,769.472 1666.48,766.725 1668.69,763.979 1670.91,761.234 1673.12,758.489 1675.34,755.746 1677.55,753.004 1679.77,750.263 1681.98,747.522 1684.2,744.783 1686.41,742.045 1688.63,739.307 1690.84,736.571 1693.06,733.835 1695.27,731.1 1697.49,728.367 1699.7,725.634 1701.92,722.902 1704.13,720.171 1706.35,717.441 1708.56,714.712 1710.78,711.984 1712.99,709.257 1715.21,706.531 1717.42,703.806 1719.64,701.082 1721.85,698.359 1724.07,695.637 1726.28,692.916 1728.5,690.197 1730.72,687.478 1732.93,684.76 1735.15,682.044 1737.36,679.328 1739.58,676.613 1741.79,673.9 1744.01,671.187 1746.22,668.476 1748.44,665.765 1750.65,663.055 1752.87,660.347 1755.08,657.64 1757.3,654.933 1759.51,652.228 1761.73,649.524 1763.94,646.821 1766.16,644.119 1768.37,641.418 1770.59,638.719 1772.8,636.02 1775.02,633.323 1777.23,630.627 1779.45,627.932 1781.66,625.239 1783.88,622.546 1786.09,619.855 1788.31,617.164 1790.52,614.475 1792.74,611.787 1794.95,609.1 1797.17,606.415 1799.38,603.73 1801.6,601.046 1803.81,598.364 1806.03,595.683 1808.24,593.003 1810.46,590.325 1812.67,587.647 1814.89,584.971 1817.1,582.296 1819.32,579.623 1821.53,576.951 1823.75,574.28 1825.96,571.61 1828.18,568.942 1830.39,566.275 1832.61,563.609 1834.82,560.945 1837.04,558.282 1839.25,555.62 1841.47,552.96 1843.68,550.301 1845.9,547.643 1848.11,544.987 1850.33,542.332 1852.54,539.678 1854.76,537.026 1856.97,534.374 1859.19,531.725 1861.4,529.076 1863.62,526.429 1865.83,523.784 1868.05,521.14 1870.26,518.497 1872.48,515.856 1874.69,513.216 1876.91,510.578 1879.12,507.941 1881.34,505.306 1883.55,502.673 1885.77,500.04 1887.98,497.41 1890.2,494.781 1892.41,492.154 1894.63,489.528 1896.84,486.904 1899.06,484.281 1901.27,481.66 1903.49,479.04 1905.7,476.422 1907.92,473.806 1910.13,471.191 1912.35,468.577 1914.56,465.965 1916.78,463.355 1918.99,460.747 1921.21,458.14 1923.42,455.535 1925.64,452.931 1927.85,450.33 1930.07,447.73 1932.28,445.132 1934.5,442.535 1936.71,439.941 1938.93,437.348 1941.14,434.757 1943.36,432.168 1945.57,429.581 1947.79,426.995 1950,424.412 1952.22,421.83 1954.43,419.25 1956.65,416.673 1958.86,414.097 1961.08,411.523 1963.29,408.951 1965.51,406.381 1967.72,403.813 1969.94,401.247 1972.15,398.682 1974.37,396.12 1976.58,393.56 1978.8,391.002 1981.01,388.446 1983.23,385.892 1985.44,383.34 1987.66,380.79 1989.87,378.243 1992.09,375.697 1994.3,373.154 1996.52,370.613 1998.73,368.075 2000.95,365.538 2003.16,363.004 2005.38,360.473 2007.59,357.943 2009.81,355.416 2012.02,352.892 2014.24,350.369 2016.45,347.85 2018.67,345.332 2020.88,342.817 2023.1,340.305 2025.31,337.795 2027.53,335.288 2029.74,332.783 2031.96,330.281 2034.17,327.782 2036.39,325.285 2038.6,322.791 2040.82,320.3 2043.03,317.811 2045.25,315.325 2047.46,312.842 2049.68,310.362 2051.89,307.885 2054.11,305.411 2056.32,302.94 2058.54,300.472 2060.75,298.006 2062.97,295.544 2065.18,293.085 2067.4,290.629 2069.61,288.176 2071.83,285.727 2074.04,283.281 2076.26,280.838 2078.47,278.398 2080.69,275.962 2082.9,273.529 2085.12,271.1 2087.33,268.674 2089.55,266.252 2091.76,263.834 2093.98,261.419 2096.19,259.008 2098.41,256.601 2100.62,254.197 2102.84,251.798 2105.05,249.403 2107.27,247.012 2109.48,244.625 2111.7,242.242 2113.91,239.864 2116.13,237.489 2118.34,235.12 2120.56,232.755 2122.77,230.395 2124.99,228.04 2127.2,225.69 2129.42,223.345 2131.63,221.004 2133.85,218.669 2136.06,216.339 2138.28,214.014 2140.49,211.694 2142.71,209.379 2144.92,207.069 2147.14,204.766 2149.35,202.467 2151.57,200.175 2153.78,197.888 2156,195.608 2158.21,193.334 2160.43,191.066 2162.64,188.804 2164.86,186.549 2167.07,184.301 2169.29,182.061 2171.5,179.827 2173.72,177.601 2175.93,175.383 2178.15,173.172 2180.36,170.97 2182.58,168.777 2184.79,166.592 2187.01,164.416 2189.22,162.249 2191.44,160.092 2193.65,157.945 2195.87,155.808 2198.08,153.682 2200.3,151.566 2202.51,149.461 2204.73,147.368 2206.94,145.287 2209.16,143.218 2211.37,141.162 2213.59,139.119 2215.8,137.095 2218.02,135.091 2220.23,133.105 2222.45,131.136 2224.66,129.183 2226.88,127.247 2229.09,125.326 2231.31,123.421 2233.52,121.533 2235.74,119.661 2237.95,117.807 2240.17,115.973 2242.38,114.159 2244.6,112.368 2246.81,110.602 2249.03,108.862 2251.24,107.153 2253.46,105.477 2255.67,103.838 2257.89,102.238 2260.1,100.682 2262.32,99.1745 2264.53,97.7196 2266.75,96.3222 2268.96,94.9874 2271.18,93.7206 2273.39,92.5274 2275.61,91.4139 2277.82,90.3864 2280.04,89.4513 2282.25,88.6157 2284.47,87.8895 2286.68,87.2981 2288.9,86.8592 2291.11,86.5956 2293.33,86.5381 2295.54,86.7256 2297.76,87.2051 2299.97,88.041 2302.19,89.3683 2304.4,91.1896 2306.62,93.5906 2308.83,96.798 2311.05,101.179 2313.26,107.242 2315.48,115.634 2317.69,127.715 2319.91,144.748 2322.12,171.03 2324.34,217.689 2326.55,310.424 2328.77,544.913 2330.98,1085.03 2333.2,1320.1 2335.41,1333.87 2337.63,1332.52 2339.84,1330.3 2342.06,1327.95 2344.27,1325.5 2346.49,1322.97 2348.7,1320.35 2350.92,1317.64 2353.13,1314.83 2355.35,1311.92 2357.56,1308.91 2359.78,1305.79 2361.99,1302.56 2364.21,1299.22 2366.42,1295.76 2368.64,1292.17 2370.85,1288.47 2373.07,1284.62 2375.28,1280.64 2377.5,1276.52 2379.71,1272.25 2381.93,1267.83 2384.15,1263.24 2386.36,1258.5 2388.58,1253.58 2390.79,1248.49 2393.01,1243.21 2395.22,1237.75 2397.44,1232.09 2399.65,1226.23 2401.87,1220.17 2404.08,1213.9 2406.3,1207.42 2408.51,1200.71 2410.73,1193.79 2412.94,1186.64 2415.16,1179.28 2417.37,1171.7 2419.59,1163.91 2421.8,1155.93 2424.02,1147.77 2426.23,1139.44 2428.45,1130.97 2430.66,1122.38 2432.88,1113.71 2435.09,1104.98 2437.31,1096.25 2439.52,1087.55 2441.74,1078.93 2443.95,1070.42 2446.17,1062.08 2448.38,1053.94 2450.6,1046.03 2452.81,1038.38 2455.03,1031.01 2457.24,1023.95 2459.46,1017.2 2461.67,1010.77 2463.89,1004.66 2466.1,998.848 2468.32,993.339 2470.53,988.115 2472.75,983.159 2474.96,978.447 2477.18,973.953 2479.39,969.653 2481.61,965.535 2483.82,961.581 2486.04,957.776 2488.25,954.103 2490.47,950.546 2492.68,947.089 2494.9,943.716 2497.11,940.42 2499.33,937.193 2501.54,934.025 2503.76,930.91 2505.97,927.84 2508.19,924.809 2510.4,921.809 2512.62,918.839 2514.83,915.893 2517.05,912.971 2519.26,910.067 2521.48,907.181 2523.69,904.309 2525.91,901.449 2528.12,898.599 2530.34,895.759 2532.55,892.927 2534.77,890.103 2536.98,887.285 2539.2,884.473 2541.41,881.665 2543.63,878.863 2545.84,876.063 2548.06,873.267 2550.27,870.474 2552.49,867.684 2554.7,864.896 2556.92,862.111 2559.13,859.328 2561.35,856.547 2563.56,853.767 2565.78,850.989 2567.99,848.213 2570.21,845.438 2572.42,842.664 2574.64,839.891 2576.85,837.12 2579.07,834.35 2581.28,831.581 2583.5,828.813 2585.71,826.047 2587.93,823.281 2590.14,820.516 2592.36,817.752 2594.57,814.989 2596.79,812.227 2599,809.466 2601.22,806.706 2603.43,803.947 2605.65,801.189 2607.86,798.431 2610.08,795.675 2612.29,792.92 2614.51,790.165 2616.72,787.412 2618.94,784.659 2621.15,781.907 2623.37,779.156 2625.58,776.406 2627.8,773.657 2630.01,770.909 2632.23,768.161 2634.44,765.415 2636.66,762.669 2638.87,759.925 2641.09,757.181 2643.3,754.438 2645.52,751.697 2647.73,748.956 2649.95,746.216 2652.16,743.477 2654.38,740.739 2656.59,738.002 2658.81,735.266 2661.02,732.531 2663.24,729.796 2665.45,727.063 2667.67,724.331 2669.88,721.599 2672.1,718.869 2674.31,716.139 2676.53,713.411 2678.74,710.683 2680.96,707.957 2683.17,705.231 2685.39,702.507 2687.6,699.783 2689.82,697.061 2692.03,694.34 2694.25,691.619 2696.46,688.9 2698.68,686.182 2700.89,683.465 2703.11,680.749 2705.32,678.033 2707.54,675.319 2709.75,672.606 2711.97,669.894 2714.18,667.182 2716.4,664.472 2718.61,661.763 2720.83,659.055 2723.04,656.348 2725.26,653.643 2727.47,650.938 2729.69,648.234 2731.9,645.532 2734.12,642.831 2736.33,640.131 2738.55,637.432 2740.76,634.734 2742.98,632.038 2745.19,629.342 2747.41,626.648 2749.62,623.955 2751.84,621.263 2754.05,618.572 2756.27,615.882 2758.48,613.193 2760.7,610.505 2762.91,607.819 2765.13,605.134 2767.34,602.449 2769.56,599.767 2771.77,597.085 2773.99,594.404 2776.2,591.725 2778.42,589.047 2780.63,586.37 2782.85,583.695 2785.06,581.021 2787.28,578.348 2789.49,575.677 2791.71,573.007 2793.92,570.338 2796.14,567.67 2798.35,565.004 2800.57,562.339 2802.78,559.675 2805,557.013 2807.21,554.352 2809.43,551.692 2811.64,549.034 2813.86,546.376 2816.07,543.72 2818.29,541.066 2820.5,538.412 2822.72,535.76 2824.93,533.11 2827.15,530.461 2829.36,527.813 2831.58,525.167 2833.79,522.522 2836.01,519.879 2838.22,517.237 2840.44,514.596 2842.65,511.958 2844.87,509.32 2847.08,506.684 2849.3,504.05 2851.51,501.417 2853.73,498.786 2855.94,496.157 2858.16,493.528 2860.37,490.902 2862.59,488.277 2864.8,485.653 2867.02,483.031 2869.23,480.41 2871.45,477.791 2873.66,475.174 2875.88,472.558 2878.09,469.944 2880.31,467.331 2882.52,464.72 2884.74,462.11 2886.95,459.503 2889.17,456.897 2891.38,454.292 2893.6,451.69 2895.81,449.089 2898.03,446.49 2900.24,443.893 2902.46,441.297 2904.67,438.704 2906.89,436.112 2909.1,433.522 2911.32,430.934 2913.53,428.348 2915.75,425.763 2917.96,423.181 2920.18,420.6 2922.39,418.021 2924.61,415.444 2926.82,412.869 2929.04,410.296 2931.25,407.725 2933.47,405.156 2935.68,402.589 2937.9,400.023 2940.11,397.46 2942.33,394.899 2944.54,392.339 2946.76,389.782 2948.97,387.227 2951.19,384.674 2953.4,382.123 2955.62,379.575 2957.83,377.028 2960.05,374.484 2962.26,371.942 2964.48,369.402 2966.69,366.865 2968.91,364.329 2971.12,361.797 2973.34,359.266 2975.55,356.738 2977.77,354.212 2979.98,351.688 2982.2,349.167 2984.41,346.649 2986.63,344.133 2988.84,341.619 2991.06,339.108 2993.27,336.599 2995.49,334.093 2997.7,331.59 2999.92,329.089 3002.13,326.591 3004.35,324.095 3006.56,321.603 3008.78,319.113 3010.99,316.625 3013.21,314.141 3015.42,311.66 3017.64,309.181 3019.85,306.705 3022.07,304.232 3024.28,301.762 3026.5,299.295 3028.71,296.832 3030.93,294.371 3033.14,291.913 3035.36,289.459 3037.58,287.008 3039.79,284.56 3042.01,282.115 3044.22,279.673 3046.44,277.235 3048.65,274.801 3050.87,272.37 3053.08,269.942 3055.3,267.518 3057.51,265.098 3059.73,262.681 3061.94,260.268 3064.16,257.859 3066.37,255.454 3068.59,253.052 3070.8,250.655 3073.02,248.262 3075.23,245.873 3077.45,243.488 3079.66,241.107 3081.88,238.731 3084.09,236.359 3086.31,233.992 3088.52,231.63 3090.74,229.272 3092.95,226.918 3095.17,224.57 3097.38,222.226 3099.6,219.887 3101.81,217.553 3104.03,215.224 3106.24,212.901 3108.46,210.583 3110.67,208.27 3112.89,205.963 3115.1,203.661 3117.32,201.366 3119.53,199.076 3121.75,196.793 3123.96,194.515 3126.18,192.244 3128.39,189.98 3130.61,187.722 3132.82,185.472 3135.04,183.228 3137.25,180.992 3139.47,178.763 3141.68,176.541 3143.9,174.328 3146.11,172.122 3148.33,169.925 3150.54,167.736 3152.76,165.556 "/>
<path clip-path="url(#clip960)" d="M349.947 248.989 L669.476 248.989 L669.476 93.4686 L349.947 93.4686  Z" fill="#ffffff" fill-rule="evenodd" fill-opacity="1"/>
<polyline clip-path="url(#clip960)" style="stroke:#000000; stroke-linecap:round; stroke-linejoin:round; stroke-width:4; stroke-opacity:1; fill:none" points="349.947,248.989 669.476,248.989 669.476,93.4686 349.947,93.4686 349.947,248.989 "/>
<polyline clip-path="url(#clip960)" style="stroke:#008000; stroke-linecap:round; stroke-linejoin:round; stroke-width:16; stroke-opacity:1; fill:none" stroke-dasharray="64, 40" points="382.163,145.309 575.461,145.309 "/>
<path clip-path="url(#clip960)" d="M609.251 128.029 L614.274 128.029 L622.862 140.876 L631.496 128.029 L636.519 128.029 L625.408 144.626 L637.26 162.589 L632.237 162.589 L622.515 147.89 L612.723 162.589 L607.677 162.589 L620.015 144.14 L609.251 128.029 Z" fill="#000000" fill-rule="nonzero" fill-opacity="1" /><polyline clip-path="url(#clip960)" style="stroke:#008000; stroke-linecap:round; stroke-linejoin:round; stroke-width:16; stroke-opacity:1; fill:none" stroke-dasharray="64, 40" points="382.163,197.149 575.461,197.149 "/>
<path clip-path="url(#clip960)" d="M607.677 179.869 L612.7 179.869 L622.283 194.082 L631.797 179.869 L636.82 179.869 L624.598 197.97 L624.598 214.429 L619.899 214.429 L619.899 197.97 L607.677 179.869 Z" fill="#000000" fill-rule="nonzero" fill-opacity="1" /></svg>
