<?xml version="1.0" encoding="utf-8"?>
<svg xmlns="http://www.w3.org/2000/svg" xmlns:xlink="http://www.w3.org/1999/xlink" width="800" height="400" viewBox="0 0 3200 1600">
<defs>
  <clipPath id="clip530">
    <rect x="0" y="0" width="3200" height="1600"/>
  </clipPath>
</defs>
<path clip-path="url(#clip530)" d="M0 1600 L3200 1600 L3200 0 L0 0  Z" fill="#ffffff" fill-rule="evenodd" fill-opacity="1"/>
<defs>
  <clipPath id="clip531">
    <rect x="640" y="0" width="2241" height="1600"/>
  </clipPath>
</defs>
<path clip-path="url(#clip530)" d="M281.484 1443.7 L3152.76 1443.7 L3152.76 47.2441 L281.484 47.2441  Z" fill="#ffffff" fill-rule="evenodd" fill-opacity="1"/>
<defs>
  <clipPath id="clip532">
    <rect x="281" y="47" width="2872" height="1397"/>
  </clipPath>
</defs>
<polyline clip-path="url(#clip532)" style="stroke:#000000; stroke-linecap:round; stroke-linejoin:round; stroke-width:2; stroke-opacity:0.1; fill:none" points="281.484,1600 281.484,0 "/>
<polyline clip-path="url(#clip532)" style="stroke:#000000; stroke-linecap:round; stroke-linejoin:round; stroke-width:2; stroke-opacity:0.1; fill:none" points="855.739,1600 855.739,0 "/>
<polyline clip-path="url(#clip532)" style="stroke:#000000; stroke-linecap:round; stroke-linejoin:round; stroke-width:2; stroke-opacity:0.1; fill:none" points="1429.99,1600 1429.99,0 "/>
<polyline clip-path="url(#clip532)" style="stroke:#000000; stroke-linecap:round; stroke-linejoin:round; stroke-width:2; stroke-opacity:0.1; fill:none" points="2004.25,1600 2004.25,0 "/>
<polyline clip-path="url(#clip532)" style="stroke:#000000; stroke-linecap:round; stroke-linejoin:round; stroke-width:2; stroke-opacity:0.1; fill:none" points="2578.5,1600 2578.5,0 "/>
<polyline clip-path="url(#clip532)" style="stroke:#000000; stroke-linecap:round; stroke-linejoin:round; stroke-width:2; stroke-opacity:0.1; fill:none" points="3152.76,1600 3152.76,0 "/>
<polyline clip-path="url(#clip532)" style="stroke:#000000; stroke-linecap:round; stroke-linejoin:round; stroke-width:2; stroke-opacity:0.1; fill:none" points="281.484,1600 281.484,0 "/>
<polyline clip-path="url(#clip532)" style="stroke:#000000; stroke-linecap:round; stroke-linejoin:round; stroke-width:2; stroke-opacity:0.1; fill:none" points="855.739,1600 855.739,0 "/>
<polyline clip-path="url(#clip532)" style="stroke:#000000; stroke-linecap:round; stroke-linejoin:round; stroke-width:2; stroke-opacity:0.1; fill:none" points="1429.99,1600 1429.99,0 "/>
<polyline clip-path="url(#clip532)" style="stroke:#000000; stroke-linecap:round; stroke-linejoin:round; stroke-width:2; stroke-opacity:0.1; fill:none" points="2004.25,1600 2004.25,0 "/>
<polyline clip-path="url(#clip532)" style="stroke:#000000; stroke-linecap:round; stroke-linejoin:round; stroke-width:2; stroke-opacity:0.1; fill:none" points="2578.5,1600 2578.5,0 "/>
<polyline clip-path="url(#clip532)" style="stroke:#000000; stroke-linecap:round; stroke-linejoin:round; stroke-width:2; stroke-opacity:0.1; fill:none" points="3152.76,1600 3152.76,0 "/>
<polyline clip-path="url(#clip530)" style="stroke:#000000; stroke-linecap:round; stroke-linejoin:round; stroke-width:4; stroke-opacity:1; fill:none" points="281.484,1600 3152.76,1600 "/>
<polyline clip-path="url(#clip530)" style="stroke:#000000; stroke-linecap:round; stroke-linejoin:round; stroke-width:4; stroke-opacity:1; fill:none" points="281.484,0 3152.76,0 "/>
<polyline clip-path="url(#clip530)" style="stroke:#000000; stroke-linecap:round; stroke-linejoin:round; stroke-width:4; stroke-opacity:1; fill:none" points="281.484,1600 281.484,1600 "/>
<polyline clip-path="url(#clip530)" style="stroke:#000000; stroke-linecap:round; stroke-linejoin:round; stroke-width:4; stroke-opacity:1; fill:none" points="855.739,1600 855.739,1600 "/>
<polyline clip-path="url(#clip530)" style="stroke:#000000; stroke-linecap:round; stroke-linejoin:round; stroke-width:4; stroke-opacity:1; fill:none" points="1429.99,1600 1429.99,1600 "/>
<polyline clip-path="url(#clip530)" style="stroke:#000000; stroke-linecap:round; stroke-linejoin:round; stroke-width:4; stroke-opacity:1; fill:none" points="2004.25,1600 2004.25,1600 "/>
<polyline clip-path="url(#clip530)" style="stroke:#000000; stroke-linecap:round; stroke-linejoin:round; stroke-width:4; stroke-opacity:1; fill:none" points="2578.5,1600 2578.5,1600 "/>
<polyline clip-path="url(#clip530)" style="stroke:#000000; stroke-linecap:round; stroke-linejoin:round; stroke-width:4; stroke-opacity:1; fill:none" points="3152.76,1600 3152.76,1600 "/>
<polyline clip-path="url(#clip530)" style="stroke:#000000; stroke-linecap:round; stroke-linejoin:round; stroke-width:4; stroke-opacity:1; fill:none" points="281.484,0 281.484,0 "/>
<polyline clip-path="url(#clip530)" style="stroke:#000000; stroke-linecap:round; stroke-linejoin:round; stroke-width:4; stroke-opacity:1; fill:none" points="855.739,0 855.739,0 "/>
<polyline clip-path="url(#clip530)" style="stroke:#000000; stroke-linecap:round; stroke-linejoin:round; stroke-width:4; stroke-opacity:1; fill:none" points="1429.99,0 1429.99,0 "/>
<polyline clip-path="url(#clip530)" style="stroke:#000000; stroke-linecap:round; stroke-linejoin:round; stroke-width:4; stroke-opacity:1; fill:none" points="2004.25,0 2004.25,0 "/>
<polyline clip-path="url(#clip530)" style="stroke:#000000; stroke-linecap:round; stroke-linejoin:round; stroke-width:4; stroke-opacity:1; fill:none" points="2578.5,0 2578.5,0 "/>
<polyline clip-path="url(#clip530)" style="stroke:#000000; stroke-linecap:round; stroke-linejoin:round; stroke-width:4; stroke-opacity:1; fill:none" points="3152.76,0 3152.76,0 "/>
<path clip-path="url(#clip530)" d="M281.484 1637.32 Q277.873 1637.32 276.044 1640.88 Q274.239 1644.43 274.239 1651.55 Q274.239 1658.66 276.044 1662.23 Q277.873 1665.77 281.484 1665.77 Q285.118 1665.77 286.924 1662.23 Q288.753 1658.66 288.753 1651.55 Q288.753 1644.43 286.924 1640.88 Q285.118 1637.32 281.484 1637.32 M281.484 1633.62 Q287.294 1633.62 290.35 1638.22 Q293.429 1642.8 293.429 1651.55 Q293.429 1660.28 290.35 1664.89 Q287.294 1669.47 281.484 1669.47 Q275.674 1669.47 272.595 1664.89 Q269.54 1660.28 269.54 1651.55 Q269.54 1642.8 272.595 1638.22 Q275.674 1633.62 281.484 1633.62 Z" fill="#000000" fill-rule="nonzero" fill-opacity="1" /><path clip-path="url(#clip530)" d="M850.391 1664.86 L866.711 1664.86 L866.711 1668.8 L844.766 1668.8 L844.766 1664.86 Q847.428 1662.11 852.012 1657.48 Q856.618 1652.83 857.799 1651.49 Q860.044 1648.96 860.924 1647.23 Q861.826 1645.47 861.826 1643.78 Q861.826 1641.02 859.882 1639.29 Q857.961 1637.55 854.859 1637.55 Q852.66 1637.55 850.206 1638.31 Q847.776 1639.08 844.998 1640.63 L844.998 1635.91 Q847.822 1634.77 850.276 1634.19 Q852.729 1633.62 854.766 1633.62 Q860.137 1633.62 863.331 1636.3 Q866.526 1638.99 866.526 1643.48 Q866.526 1645.61 865.715 1647.53 Q864.928 1649.43 862.822 1652.02 Q862.243 1652.69 859.141 1655.91 Q856.039 1659.1 850.391 1664.86 Z" fill="#000000" fill-rule="nonzero" fill-opacity="1" /><path clip-path="url(#clip530)" d="M1433 1638.31 L1421.2 1656.76 L1433 1656.76 L1433 1638.31 M1431.78 1634.24 L1437.65 1634.24 L1437.65 1656.76 L1442.59 1656.76 L1442.59 1660.65 L1437.65 1660.65 L1437.65 1668.8 L1433 1668.8 L1433 1660.65 L1417.4 1660.65 L1417.4 1656.14 L1431.78 1634.24 Z" fill="#000000" fill-rule="nonzero" fill-opacity="1" /><path clip-path="url(#clip530)" d="M2004.65 1649.66 Q2001.5 1649.66 1999.65 1651.81 Q1997.82 1653.96 1997.82 1657.71 Q1997.82 1661.44 1999.65 1663.61 Q2001.5 1665.77 2004.65 1665.77 Q2007.8 1665.77 2009.63 1663.61 Q2011.48 1661.44 2011.48 1657.71 Q2011.48 1653.96 2009.63 1651.81 Q2007.8 1649.66 2004.65 1649.66 M2013.93 1635 L2013.93 1639.26 Q2012.18 1638.43 2010.37 1637.99 Q2008.59 1637.55 2006.83 1637.55 Q2002.2 1637.55 1999.74 1640.68 Q1997.31 1643.8 1996.97 1650.12 Q1998.33 1648.11 2000.39 1647.04 Q2002.45 1645.95 2004.93 1645.95 Q2010.14 1645.95 2013.15 1649.12 Q2016.18 1652.27 2016.18 1657.71 Q2016.18 1663.04 2013.03 1666.25 Q2009.88 1669.47 2004.65 1669.47 Q1998.66 1669.47 1995.49 1664.89 Q1992.31 1660.28 1992.31 1651.55 Q1992.31 1643.36 1996.2 1638.5 Q2000.09 1633.62 2006.64 1633.62 Q2008.4 1633.62 2010.18 1633.96 Q2011.99 1634.31 2013.93 1635 Z" fill="#000000" fill-rule="nonzero" fill-opacity="1" /><path clip-path="url(#clip530)" d="M2578.5 1652.39 Q2575.17 1652.39 2573.25 1654.17 Q2571.35 1655.95 2571.35 1659.08 Q2571.35 1662.2 2573.25 1663.99 Q2575.17 1665.77 2578.5 1665.77 Q2581.83 1665.77 2583.76 1663.99 Q2585.68 1662.18 2585.68 1659.08 Q2585.68 1655.95 2583.76 1654.17 Q2581.86 1652.39 2578.5 1652.39 M2573.83 1650.4 Q2570.82 1649.66 2569.13 1647.6 Q2567.46 1645.54 2567.46 1642.57 Q2567.46 1638.43 2570.4 1636.02 Q2573.36 1633.62 2578.5 1633.62 Q2583.66 1633.62 2586.6 1636.02 Q2589.54 1638.43 2589.54 1642.57 Q2589.54 1645.54 2587.85 1647.6 Q2586.19 1649.66 2583.2 1650.4 Q2586.58 1651.18 2588.46 1653.48 Q2590.35 1655.77 2590.35 1659.08 Q2590.35 1664.1 2587.27 1666.79 Q2584.22 1669.47 2578.5 1669.47 Q2572.78 1669.47 2569.71 1666.79 Q2566.65 1664.1 2566.65 1659.08 Q2566.65 1655.77 2568.55 1653.48 Q2570.45 1651.18 2573.83 1650.4 M2572.11 1643.01 Q2572.11 1645.7 2573.78 1647.2 Q2575.47 1648.71 2578.5 1648.71 Q2581.51 1648.71 2583.2 1647.2 Q2584.91 1645.7 2584.91 1643.01 Q2584.91 1640.33 2583.2 1638.82 Q2581.51 1637.32 2578.5 1637.32 Q2575.47 1637.32 2573.78 1638.82 Q2572.11 1640.33 2572.11 1643.01 Z" fill="#000000" fill-rule="nonzero" fill-opacity="1" /><path clip-path="url(#clip530)" d="M3127.44 1664.86 L3135.08 1664.86 L3135.08 1638.5 L3126.77 1640.17 L3126.77 1635.91 L3135.04 1634.24 L3139.71 1634.24 L3139.71 1664.86 L3147.35 1664.86 L3147.35 1668.8 L3127.44 1668.8 L3127.44 1664.86 Z" fill="#000000" fill-rule="nonzero" fill-opacity="1" /><path clip-path="url(#clip530)" d="M3166.8 1637.32 Q3163.18 1637.32 3161.36 1640.88 Q3159.55 1644.43 3159.55 1651.55 Q3159.55 1658.66 3161.36 1662.23 Q3163.18 1665.77 3166.8 1665.77 Q3170.43 1665.77 3172.23 1662.23 Q3174.06 1658.66 3174.06 1651.55 Q3174.06 1644.43 3172.23 1640.88 Q3170.43 1637.32 3166.8 1637.32 M3166.8 1633.62 Q3172.61 1633.62 3175.66 1638.22 Q3178.74 1642.8 3178.74 1651.55 Q3178.74 1660.28 3175.66 1664.89 Q3172.61 1669.47 3166.8 1669.47 Q3160.99 1669.47 3157.91 1664.89 Q3154.85 1660.28 3154.85 1651.55 Q3154.85 1642.8 3157.91 1638.22 Q3160.99 1633.62 3166.8 1633.62 Z" fill="#000000" fill-rule="nonzero" fill-opacity="1" /><path clip-path="url(#clip530)" d="M1716.18 1554.79 L1716.18 1564.92 L1728.24 1564.92 L1728.24 1569.47 L1716.18 1569.47 L1716.18 1588.82 Q1716.18 1593.18 1717.36 1594.42 Q1718.57 1595.66 1722.23 1595.66 L1728.24 1595.66 L1728.24 1600.56 L1722.23 1600.56 Q1715.45 1600.56 1712.87 1598.05 Q1710.29 1595.5 1710.29 1588.82 L1710.29 1569.47 L1706 1569.47 L1706 1564.92 L1710.29 1564.92 L1710.29 1554.79 L1716.18 1554.79 Z" fill="#000000" fill-rule="nonzero" fill-opacity="1" /><polyline clip-path="url(#clip532)" style="stroke:#000000; stroke-linecap:round; stroke-linejoin:round; stroke-width:2; stroke-opacity:0.1; fill:none" points="281.484,1600 3152.76,1600 "/>
<polyline clip-path="url(#clip532)" style="stroke:#000000; stroke-linecap:round; stroke-linejoin:round; stroke-width:2; stroke-opacity:0.1; fill:none" points="281.484,800 3152.76,800 "/>
<polyline clip-path="url(#clip532)" style="stroke:#000000; stroke-linecap:round; stroke-linejoin:round; stroke-width:2; stroke-opacity:0.1; fill:none" points="281.484,800 3152.76,800 "/>
<polyline clip-path="url(#clip532)" style="stroke:#000000; stroke-linecap:round; stroke-linejoin:round; stroke-width:2; stroke-opacity:0.1; fill:none" points="281.484,0 3152.76,0 "/>
<polyline clip-path="url(#clip532)" style="stroke:#000000; stroke-linecap:round; stroke-linejoin:round; stroke-width:2; stroke-opacity:0.1; fill:none" points="281.484,1600 3152.76,1600 "/>
<polyline clip-path="url(#clip532)" style="stroke:#000000; stroke-linecap:round; stroke-linejoin:round; stroke-width:2; stroke-opacity:0.1; fill:none" points="281.484,800 3152.76,800 "/>
<polyline clip-path="url(#clip532)" style="stroke:#000000; stroke-linecap:round; stroke-linejoin:round; stroke-width:2; stroke-opacity:0.1; fill:none" points="281.484,800 3152.76,800 "/>
<polyline clip-path="url(#clip532)" style="stroke:#000000; stroke-linecap:round; stroke-linejoin:round; stroke-width:2; stroke-opacity:0.1; fill:none" points="281.484,0 3152.76,0 "/>
<polyline clip-path="url(#clip530)" style="stroke:#000000; stroke-linecap:round; stroke-linejoin:round; stroke-width:4; stroke-opacity:1; fill:none" points="281.484,1600 281.484,0 "/>
<polyline clip-path="url(#clip530)" style="stroke:#000000; stroke-linecap:round; stroke-linejoin:round; stroke-width:4; stroke-opacity:1; fill:none" points="3152.76,1600 3152.76,0 "/>
<polyline clip-path="url(#clip530)" style="stroke:#000000; stroke-linecap:round; stroke-linejoin:round; stroke-width:4; stroke-opacity:1; fill:none" points="281.484,1600 300.382,1600 "/>
<polyline clip-path="url(#clip530)" style="stroke:#000000; stroke-linecap:round; stroke-linejoin:round; stroke-width:4; stroke-opacity:1; fill:none" points="281.484,800 300.382,800 "/>
<polyline clip-path="url(#clip530)" style="stroke:#000000; stroke-linecap:round; stroke-linejoin:round; stroke-width:4; stroke-opacity:1; fill:none" points="281.484,800 300.382,800 "/>
<polyline clip-path="url(#clip530)" style="stroke:#000000; stroke-linecap:round; stroke-linejoin:round; stroke-width:4; stroke-opacity:1; fill:none" points="281.484,0 300.382,0 "/>
<polyline clip-path="url(#clip530)" style="stroke:#000000; stroke-linecap:round; stroke-linejoin:round; stroke-width:4; stroke-opacity:1; fill:none" points="3152.76,1600 3133.86,1600 "/>
<polyline clip-path="url(#clip530)" style="stroke:#000000; stroke-linecap:round; stroke-linejoin:round; stroke-width:4; stroke-opacity:1; fill:none" points="3152.76,800 3133.86,800 "/>
<polyline clip-path="url(#clip530)" style="stroke:#000000; stroke-linecap:round; stroke-linejoin:round; stroke-width:4; stroke-opacity:1; fill:none" points="3152.76,800 3133.86,800 "/>
<polyline clip-path="url(#clip530)" style="stroke:#000000; stroke-linecap:round; stroke-linejoin:round; stroke-width:4; stroke-opacity:1; fill:none" points="3152.76,0 3133.86,0 "/>
<path clip-path="url(#clip530)" d="M47.6634 1619.79 L55.3023 1619.79 L55.3023 1593.43 L46.9921 1595.09 L46.9921 1590.83 L55.256 1589.17 L59.9319 1589.17 L59.9319 1619.79 L67.5707 1619.79 L67.5707 1623.73 L47.6634 1623.73 L47.6634 1619.79 Z" fill="#000000" fill-rule="nonzero" fill-opacity="1" /><path clip-path="url(#clip530)" d="M77.0151 1617.85 L81.8993 1617.85 L81.8993 1623.73 L77.0151 1623.73 L77.0151 1617.85 Z" fill="#000000" fill-rule="nonzero" fill-opacity="1" /><path clip-path="url(#clip530)" d="M102.084 1592.25 Q98.4733 1592.25 96.6446 1595.81 Q94.8391 1599.35 94.8391 1606.48 Q94.8391 1613.59 96.6446 1617.15 Q98.4733 1620.7 102.084 1620.7 Q105.719 1620.7 107.524 1617.15 Q109.353 1613.59 109.353 1606.48 Q109.353 1599.35 107.524 1595.81 Q105.719 1592.25 102.084 1592.25 M102.084 1588.54 Q107.895 1588.54 110.95 1593.15 Q114.029 1597.73 114.029 1606.48 Q114.029 1615.21 110.95 1619.82 Q107.895 1624.4 102.084 1624.4 Q96.2743 1624.4 93.1956 1619.82 Q90.14 1615.21 90.14 1606.48 Q90.14 1597.73 93.1956 1593.15 Q96.2743 1588.54 102.084 1588.54 Z" fill="#000000" fill-rule="nonzero" fill-opacity="1" /><path clip-path="url(#clip530)" d="M150.417 1598.26 L139.839 1608.89 L150.417 1619.47 L147.663 1622.27 L137.038 1611.64 L126.413 1622.27 L123.682 1619.47 L134.237 1608.89 L123.682 1598.26 L126.413 1595.46 L137.038 1606.09 L147.663 1595.46 L150.417 1598.26 Z" fill="#000000" fill-rule="nonzero" fill-opacity="1" /><path clip-path="url(#clip530)" d="M162.779 1619.79 L170.417 1619.79 L170.417 1593.43 L162.107 1595.09 L162.107 1590.83 L170.371 1589.17 L175.047 1589.17 L175.047 1619.79 L182.686 1619.79 L182.686 1623.73 L162.779 1623.73 L162.779 1619.79 Z" fill="#000000" fill-rule="nonzero" fill-opacity="1" /><path clip-path="url(#clip530)" d="M202.13 1592.25 Q198.519 1592.25 196.69 1595.81 Q194.885 1599.35 194.885 1606.48 Q194.885 1613.59 196.69 1617.15 Q198.519 1620.7 202.13 1620.7 Q205.764 1620.7 207.57 1617.15 Q209.399 1613.59 209.399 1606.48 Q209.399 1599.35 207.57 1595.81 Q205.764 1592.25 202.13 1592.25 M202.13 1588.54 Q207.94 1588.54 210.996 1593.15 Q214.075 1597.73 214.075 1606.48 Q214.075 1615.21 210.996 1619.82 Q207.94 1624.4 202.13 1624.4 Q196.32 1624.4 193.241 1619.82 Q190.186 1615.21 190.186 1606.48 Q190.186 1597.73 193.241 1593.15 Q196.32 1588.54 202.13 1588.54 Z" fill="#000000" fill-rule="nonzero" fill-opacity="1" /><path clip-path="url(#clip530)" d="M223.779 1570.74 Q220.845 1570.74 219.36 1573.64 Q217.893 1576.51 217.893 1582.31 Q217.893 1588.08 219.36 1590.98 Q220.845 1593.85 223.779 1593.85 Q226.732 1593.85 228.199 1590.98 Q229.685 1588.08 229.685 1582.31 Q229.685 1576.51 228.199 1573.64 Q226.732 1570.74 223.779 1570.74 M223.779 1567.73 Q228.5 1567.73 230.983 1571.47 Q233.484 1575.2 233.484 1582.31 Q233.484 1589.4 230.983 1593.14 Q228.5 1596.86 223.779 1596.86 Q219.059 1596.86 216.557 1593.14 Q214.075 1589.4 214.075 1582.31 Q214.075 1575.2 216.557 1571.47 Q219.059 1567.73 223.779 1567.73 Z" fill="#000000" fill-rule="nonzero" fill-opacity="1" /><path clip-path="url(#clip530)" d="M47.6634 819.792 L55.3023 819.792 L55.3023 793.427 L46.9921 795.093 L46.9921 790.834 L55.256 789.168 L59.9319 789.168 L59.9319 819.792 L67.5707 819.792 L67.5707 823.728 L47.6634 823.728 L47.6634 819.792 Z" fill="#000000" fill-rule="nonzero" fill-opacity="1" /><path clip-path="url(#clip530)" d="M77.0151 817.848 L81.8993 817.848 L81.8993 823.728 L77.0151 823.728 L77.0151 817.848 Z" fill="#000000" fill-rule="nonzero" fill-opacity="1" /><path clip-path="url(#clip530)" d="M102.084 792.246 Q98.4733 792.246 96.6446 795.811 Q94.8391 799.353 94.8391 806.482 Q94.8391 813.589 96.6446 817.154 Q98.4733 820.695 102.084 820.695 Q105.719 820.695 107.524 817.154 Q109.353 813.589 109.353 806.482 Q109.353 799.353 107.524 795.811 Q105.719 792.246 102.084 792.246 M102.084 788.543 Q107.895 788.543 110.95 793.149 Q114.029 797.732 114.029 806.482 Q114.029 815.209 110.95 819.816 Q107.895 824.399 102.084 824.399 Q96.2743 824.399 93.1956 819.816 Q90.14 815.209 90.14 806.482 Q90.14 797.732 93.1956 793.149 Q96.2743 788.543 102.084 788.543 Z" fill="#000000" fill-rule="nonzero" fill-opacity="1" /><path clip-path="url(#clip530)" d="M150.417 798.265 L139.839 808.89 L150.417 819.468 L147.663 822.269 L137.038 811.644 L126.413 822.269 L123.682 819.468 L134.237 808.89 L123.682 798.265 L126.413 795.464 L137.038 806.089 L147.663 795.464 L150.417 798.265 Z" fill="#000000" fill-rule="nonzero" fill-opacity="1" /><path clip-path="url(#clip530)" d="M162.779 819.792 L170.417 819.792 L170.417 793.427 L162.107 795.093 L162.107 790.834 L170.371 789.168 L175.047 789.168 L175.047 819.792 L182.686 819.792 L182.686 823.728 L162.779 823.728 L162.779 819.792 Z" fill="#000000" fill-rule="nonzero" fill-opacity="1" /><path clip-path="url(#clip530)" d="M202.13 792.246 Q198.519 792.246 196.69 795.811 Q194.885 799.353 194.885 806.482 Q194.885 813.589 196.69 817.154 Q198.519 820.695 202.13 820.695 Q205.764 820.695 207.57 817.154 Q209.399 813.589 209.399 806.482 Q209.399 799.353 207.57 795.811 Q205.764 792.246 202.13 792.246 M202.13 788.543 Q207.94 788.543 210.996 793.149 Q214.075 797.732 214.075 806.482 Q214.075 815.209 210.996 819.816 Q207.94 824.399 202.13 824.399 Q196.32 824.399 193.241 819.816 Q190.186 815.209 190.186 806.482 Q190.186 797.732 193.241 793.149 Q196.32 788.543 202.13 788.543 Z" fill="#000000" fill-rule="nonzero" fill-opacity="1" /><path clip-path="url(#clip530)" d="M223.779 770.739 Q220.845 770.739 219.36 773.635 Q217.893 776.513 217.893 782.305 Q217.893 788.079 219.36 790.976 Q220.845 793.853 223.779 793.853 Q226.732 793.853 228.199 790.976 Q229.685 788.079 229.685 782.305 Q229.685 776.513 228.199 773.635 Q226.732 770.739 223.779 770.739 M223.779 767.729 Q228.5 767.729 230.983 771.472 Q233.484 775.196 233.484 782.305 Q233.484 789.396 230.983 793.139 Q228.5 796.863 223.779 796.863 Q219.059 796.863 216.557 793.139 Q214.075 789.396 214.075 782.305 Q214.075 775.196 216.557 771.472 Q219.059 767.729 223.779 767.729 Z" fill="#000000" fill-rule="nonzero" fill-opacity="1" /><path clip-path="url(#clip530)" d="M47.6634 819.792 L55.3023 819.792 L55.3023 793.427 L46.9921 795.093 L46.9921 790.834 L55.256 789.168 L59.9319 789.168 L59.9319 819.792 L67.5707 819.792 L67.5707 823.728 L47.6634 823.728 L47.6634 819.792 Z" fill="#000000" fill-rule="nonzero" fill-opacity="1" /><path clip-path="url(#clip530)" d="M77.0151 817.848 L81.8993 817.848 L81.8993 823.728 L77.0151 823.728 L77.0151 817.848 Z" fill="#000000" fill-rule="nonzero" fill-opacity="1" /><path clip-path="url(#clip530)" d="M102.084 792.246 Q98.4733 792.246 96.6446 795.811 Q94.8391 799.353 94.8391 806.482 Q94.8391 813.589 96.6446 817.154 Q98.4733 820.695 102.084 820.695 Q105.719 820.695 107.524 817.154 Q109.353 813.589 109.353 806.482 Q109.353 799.353 107.524 795.811 Q105.719 792.246 102.084 792.246 M102.084 788.543 Q107.895 788.543 110.95 793.149 Q114.029 797.732 114.029 806.482 Q114.029 815.209 110.95 819.816 Q107.895 824.399 102.084 824.399 Q96.2743 824.399 93.1956 819.816 Q90.14 815.209 90.14 806.482 Q90.14 797.732 93.1956 793.149 Q96.2743 788.543 102.084 788.543 Z" fill="#000000" fill-rule="nonzero" fill-opacity="1" /><path clip-path="url(#clip530)" d="M150.417 798.265 L139.839 808.89 L150.417 819.468 L147.663 822.269 L137.038 811.644 L126.413 822.269 L123.682 819.468 L134.237 808.89 L123.682 798.265 L126.413 795.464 L137.038 806.089 L147.663 795.464 L150.417 798.265 Z" fill="#000000" fill-rule="nonzero" fill-opacity="1" /><path clip-path="url(#clip530)" d="M162.779 819.792 L170.417 819.792 L170.417 793.427 L162.107 795.093 L162.107 790.834 L170.371 789.168 L175.047 789.168 L175.047 819.792 L182.686 819.792 L182.686 823.728 L162.779 823.728 L162.779 819.792 Z" fill="#000000" fill-rule="nonzero" fill-opacity="1" /><path clip-path="url(#clip530)" d="M202.13 792.246 Q198.519 792.246 196.69 795.811 Q194.885 799.353 194.885 806.482 Q194.885 813.589 196.69 817.154 Q198.519 820.695 202.13 820.695 Q205.764 820.695 207.57 817.154 Q209.399 813.589 209.399 806.482 Q209.399 799.353 207.57 795.811 Q205.764 792.246 202.13 792.246 M202.13 788.543 Q207.94 788.543 210.996 793.149 Q214.075 797.732 214.075 806.482 Q214.075 815.209 210.996 819.816 Q207.94 824.399 202.13 824.399 Q196.32 824.399 193.241 819.816 Q190.186 815.209 190.186 806.482 Q190.186 797.732 193.241 793.149 Q196.32 788.543 202.13 788.543 Z" fill="#000000" fill-rule="nonzero" fill-opacity="1" /><path clip-path="url(#clip530)" d="M223.779 770.739 Q220.845 770.739 219.36 773.635 Q217.893 776.513 217.893 782.305 Q217.893 788.079 219.36 790.976 Q220.845 793.853 223.779 793.853 Q226.732 793.853 228.199 790.976 Q229.685 788.079 229.685 782.305 Q229.685 776.513 228.199 773.635 Q226.732 770.739 223.779 770.739 M223.779 767.729 Q228.5 767.729 230.983 771.472 Q233.484 775.196 233.484 782.305 Q233.484 789.396 230.983 793.139 Q228.5 796.863 223.779 796.863 Q219.059 796.863 216.557 793.139 Q214.075 789.396 214.075 782.305 Q214.075 775.196 216.557 771.472 Q219.059 767.729 223.779 767.729 Z" fill="#000000" fill-rule="nonzero" fill-opacity="1" /><path clip-path="url(#clip530)" d="M47.6634 19.7924 L55.3023 19.7924 L55.3023 -6.57316 L46.9921 -4.90651 L46.9921 -9.16574 L55.256 -10.8324 L59.9319 -10.8324 L59.9319 19.7924 L67.5707 19.7924 L67.5707 23.7276 L47.6634 23.7276 L47.6634 19.7924 Z" fill="#000000" fill-rule="nonzero" fill-opacity="1" /><path clip-path="url(#clip530)" d="M77.0151 17.848 L81.8993 17.848 L81.8993 23.7276 L77.0151 23.7276 L77.0151 17.848 Z" fill="#000000" fill-rule="nonzero" fill-opacity="1" /><path clip-path="url(#clip530)" d="M102.084 -7.75371 Q98.4733 -7.75371 96.6446 -4.18892 Q94.8391 -0.647269 94.8391 6.48232 Q94.8391 13.5888 96.6446 17.1536 Q98.4733 20.6952 102.084 20.6952 Q105.719 20.6952 107.524 17.1536 Q109.353 13.5888 109.353 6.48232 Q109.353 -0.647269 107.524 -4.18892 Q105.719 -7.75371 102.084 -7.75371 M102.084 -11.4574 Q107.895 -11.4574 110.95 -6.85094 Q114.029 -2.26763 114.029 6.48232 Q114.029 15.2091 110.95 19.8156 Q107.895 24.3989 102.084 24.3989 Q96.2743 24.3989 93.1956 19.8156 Q90.14 15.2091 90.14 6.48232 Q90.14 -2.26763 93.1956 -6.85094 Q96.2743 -11.4574 102.084 -11.4574 Z" fill="#000000" fill-rule="nonzero" fill-opacity="1" /><path clip-path="url(#clip530)" d="M150.417 -1.73523 L139.839 8.88972 L150.417 19.4684 L147.663 22.2693 L137.038 11.6443 L126.413 22.2693 L123.682 19.4684 L134.237 8.88972 L123.682 -1.73523 L126.413 -4.53614 L137.038 6.08881 L147.663 -4.53614 L150.417 -1.73523 Z" fill="#000000" fill-rule="nonzero" fill-opacity="1" /><path clip-path="url(#clip530)" d="M162.779 19.7924 L170.417 19.7924 L170.417 -6.57316 L162.107 -4.90651 L162.107 -9.16574 L170.371 -10.8324 L175.047 -10.8324 L175.047 19.7924 L182.686 19.7924 L182.686 23.7276 L162.779 23.7276 L162.779 19.7924 Z" fill="#000000" fill-rule="nonzero" fill-opacity="1" /><path clip-path="url(#clip530)" d="M202.13 -7.75371 Q198.519 -7.75371 196.69 -4.18892 Q194.885 -0.647269 194.885 6.48232 Q194.885 13.5888 196.69 17.1536 Q198.519 20.6952 202.13 20.6952 Q205.764 20.6952 207.57 17.1536 Q209.399 13.5888 209.399 6.48232 Q209.399 -0.647269 207.57 -4.18892 Q205.764 -7.75371 202.13 -7.75371 M202.13 -11.4574 Q207.94 -11.4574 210.996 -6.85094 Q214.075 -2.26763 214.075 6.48232 Q214.075 15.2091 210.996 19.8156 Q207.94 24.3989 202.13 24.3989 Q196.32 24.3989 193.241 19.8156 Q190.186 15.2091 190.186 6.48232 Q190.186 -2.26763 193.241 -6.85094 Q196.32 -11.4574 202.13 -11.4574 Z" fill="#000000" fill-rule="nonzero" fill-opacity="1" /><path clip-path="url(#clip530)" d="M223.779 -29.2614 Q220.845 -29.2614 219.36 -26.365 Q217.893 -23.4874 217.893 -17.6946 Q217.893 -11.9206 219.36 -9.02421 Q220.845 -6.14662 223.779 -6.14662 Q226.732 -6.14662 228.199 -9.02421 Q229.685 -11.9206 229.685 -17.6946 Q229.685 -23.4874 228.199 -26.365 Q226.732 -29.2614 223.779 -29.2614 M223.779 -32.2706 Q228.5 -32.2706 230.983 -28.5279 Q233.484 -24.8039 233.484 -17.6946 Q233.484 -10.6041 230.983 -6.86131 Q228.5 -3.13737 223.779 -3.13737 Q219.059 -3.13737 216.557 -6.86131 Q214.075 -10.6041 214.075 -17.6946 Q214.075 -24.8039 216.557 -28.5279 Q219.059 -32.2706 223.779 -32.2706 Z" fill="#000000" fill-rule="nonzero" fill-opacity="1" /><polyline clip-path="url(#clip532)" style="stroke:#009af9; stroke-linecap:round; stroke-linejoin:round; stroke-width:12; stroke-opacity:1; fill:none" points="281.484,800 284.358,800 287.232,800 290.107,800 292.981,800 295.855,800 298.729,800 301.603,800 304.477,800 307.351,800 310.226,800 313.1,800 315.974,800 318.848,800 321.722,800 324.596,800 327.471,800 330.345,800 333.219,800 336.093,800 338.967,800 341.841,800 344.715,800 347.59,800 350.464,800 353.338,800 356.212,800 359.086,800 361.96,800 364.834,800 367.709,800 370.583,800 373.457,800 376.331,800 379.205,800 382.079,800 384.953,800 387.828,800 390.702,800 393.576,800 396.45,800 399.324,800 402.198,800 405.072,800 407.947,800 410.821,800 413.695,800 416.569,800 419.443,800 422.317,800 425.191,800 428.066,800 430.94,800 433.814,800 436.688,800 439.562,800 442.436,800 445.31,800 448.185,800 451.059,800 453.933,800 456.807,800 459.681,800 462.555,800 465.43,800 468.304,800 471.178,800 474.052,800 476.926,800 479.8,800 482.674,800 485.549,800 488.423,800 491.297,800 494.171,800 497.045,800 499.919,800 502.793,800 505.668,800 508.542,800 511.416,800 514.29,800 517.164,800 520.038,800 522.912,800 525.787,800 528.661,800 531.535,0 534.409,800 537.283,800 540.157,800 543.031,0 545.906,800 548.78,800 551.654,800 554.528,800 557.402,0 560.276,800 563.15,0 566.025,0 568.899,800 571.773,0 574.647,0 577.521,800 580.395,800 583.269,800 586.144,0 589.018,800 591.892,800 594.766,800 597.64,0 600.514,800 603.389,0 606.263,800 609.137,800 612.011,800 614.885,800 617.759,800 620.633,800 623.508,800 626.382,800 629.256,800 632.13,0 635.004,800 637.878,800 640.752,800 643.627,800 646.501,800 649.375,0 652.249,0 655.123,800 657.997,800 660.871,0 663.746,800 666.62,800 669.494,800 672.368,800 675.242,800 678.116,800 680.99,800 683.865,800 686.739,0 689.613,800 692.487,800 695.361,0 698.235,0 701.109,800 703.984,800 706.858,800 709.732,0 712.606,0 715.48,800 718.354,800 721.229,800 724.103,800 726.977,800 729.851,0 732.725,800 735.599,800 738.473,800 741.348,800 744.222,800 747.096,0 749.97,800 752.844,800 755.718,800 758.592,0 761.467,800 764.341,800 767.215,800 770.089,800 772.963,800 775.837,800 778.711,800 781.586,800 784.46,800 787.334,800 790.208,800 793.082,800 795.956,800 798.83,800 801.705,800 804.579,800 807.453,800 810.327,800 813.201,800 816.075,800 818.949,800 821.824,800 824.698,800 827.572,800 830.446,800 833.32,800 836.194,800 839.068,800 841.943,800 844.817,800 847.691,800 850.565,800 853.439,800 856.313,800 859.188,800 862.062,800 864.936,800 867.81,800 870.684,800 873.558,800 876.432,800 879.307,800 882.181,800 885.055,800 887.929,800 890.803,800 893.677,800 896.551,800 899.426,800 902.3,800 905.174,800 908.048,800 910.922,800 913.796,800 916.67,800 919.545,800 922.419,800 925.293,800 928.167,800 931.041,800 933.915,800 936.789,800 939.664,800 942.538,800 945.412,800 948.286,800 951.16,800 954.034,800 956.908,800 959.783,800 962.657,800 965.531,800 968.405,800 971.279,800 974.153,800 977.027,800 979.902,800 982.776,800 985.65,800 988.524,800 991.398,800 994.272,800 997.147,800 1000.02,800 1002.89,800 1005.77,800 1008.64,800 1011.52,800 1014.39,800 1017.27,800 1020.14,800 1023.01,800 1025.89,800 1028.76,800 1031.64,800 1034.51,800 1037.38,800 1040.26,800 1043.13,800 1046.01,800 1048.88,800 1051.76,800 1054.63,800 1057.5,800 1060.38,800 1063.25,800 1066.13,800 1069,800 1071.87,800 1074.75,800 1077.62,800 1080.5,800 1083.37,800 1086.25,800 1089.12,800 1091.99,800 1094.87,800 1097.74,800 1100.62,800 1103.49,800 1106.36,800 1109.24,800 1112.11,800 1114.99,800 1117.86,800 1120.73,800 1123.61,800 1126.48,800 1129.36,800 1132.23,800 1135.11,800 1137.98,800 1140.85,800 1143.73,800 1146.6,800 1149.48,800 1152.35,800 1155.22,800 1158.1,800 1160.97,800 1163.85,800 1166.72,800 1169.6,800 1172.47,800 1175.34,800 1178.22,800 1181.09,800 1183.97,800 1186.84,800 1189.71,800 1192.59,800 1195.46,800 1198.34,800 1201.21,800 1204.09,800 1206.96,800 1209.83,800 1212.71,800 1215.58,800 1218.46,800 1221.33,800 1224.2,800 1227.08,800 1229.95,800 1232.83,800 1235.7,800 1238.57,800 1241.45,800 1244.32,800 1247.2,800 1250.07,800 1252.95,800 1255.82,800 1258.69,800 1261.57,800 1264.44,800 1267.32,800 1270.19,800 1273.06,800 1275.94,800 1278.81,800 1281.69,800 1284.56,800 1287.44,800 1290.31,800 1293.18,800 1296.06,800 1298.93,800 1301.81,800 1304.68,800 1307.55,800 1310.43,800 1313.3,800 1316.18,800 1319.05,800 1321.92,800 1324.8,800 1327.67,800 1330.55,800 1333.42,800 1336.3,800 1339.17,800 1342.04,800 1344.92,800 1347.79,800 1350.67,800 1353.54,800 1356.41,800 1359.29,800 1362.16,800 1365.04,800 1367.91,800 1370.79,800 1373.66,800 1376.53,800 1379.41,800 1382.28,800 1385.16,800 1388.03,800 1390.9,800 1393.78,800 1396.65,800 1399.53,800 1402.4,800 1405.28,800 1408.15,800 1411.02,800 1413.9,800 1416.77,800 1419.65,800 1422.52,800 1425.39,800 1428.27,800 1431.14,800 1434.02,800 1436.89,800 1439.76,800 1442.64,800 1445.51,800 1448.39,800 1451.26,800 1454.14,800 1457.01,800 1459.88,800 1462.76,800 1465.63,800 1468.51,800 1471.38,800 1474.25,800 1477.13,800 1480,800 1482.88,800 1485.75,800 1488.63,800 1491.5,800 1494.37,800 1497.25,800 1500.12,800 1503,800 1505.87,800 1508.74,800 1511.62,800 1514.49,800 1517.37,800 1520.24,800 1523.12,800 1525.99,800 1528.86,800 1531.74,800 1534.61,800 1537.49,800 1540.36,800 1543.23,800 1546.11,800 1548.98,800 1551.86,800 1554.73,800 1557.6,800 1560.48,800 1563.35,800 1566.23,800 1569.1,800 1571.98,800 1574.85,800 1577.72,800 1580.6,800 1583.47,800 1586.35,800 1589.22,800 1592.09,800 1594.97,800 1597.84,800 1600.72,800 1603.59,800 1606.47,800 1609.34,800 1612.21,800 1615.09,800 1617.96,800 1620.84,800 1623.71,800 1626.58,800 1629.46,800 1632.33,800 1635.21,800 1638.08,800 1640.96,800 1643.83,800 1646.7,800 1649.58,800 1652.45,800 1655.33,800 1658.2,800 1661.07,800 1663.95,800 1666.82,800 1669.7,800 1672.57,800 1675.44,800 1678.32,800 1681.19,800 1684.07,800 1686.94,800 1689.82,800 1692.69,800 1695.56,800 1698.44,800 1701.31,800 1704.19,800 1707.06,800 1709.93,800 1712.81,800 1715.68,800 1718.56,800 1721.43,800 1724.31,800 1727.18,800 1730.05,800 1732.93,800 1735.8,800 1738.68,800 1741.55,800 1744.42,800 1747.3,800 1750.17,800 1753.05,800 1755.92,800 1758.8,800 1761.67,800 1764.54,800 1767.42,800 1770.29,800 1773.17,800 1776.04,0 1778.91,800 1781.79,0 1784.66,800 1787.54,0 1790.41,800 1793.28,800 1796.16,800 1799.03,800 1801.91,800 1804.78,800 1807.66,800 1810.53,800 1813.4,0 1816.28,800 1819.15,800 1822.03,800 1824.9,800 1827.77,800 1830.65,0 1833.52,800 1836.4,800 1839.27,800 1842.15,0 1845.02,800 1847.89,800 1850.77,0 1853.64,0 1856.52,800 1859.39,800 1862.26,800 1865.14,800 1868.01,0 1870.89,0 1873.76,800 1876.64,800 1879.51,800 1882.38,800 1885.26,0 1888.13,800 1891.01,800 1893.88,0 1896.75,0 1899.63,800 1902.5,800 1905.38,800 1908.25,800 1911.12,800 1914,800 1916.87,800 1919.75,0 1922.62,0 1925.5,0 1928.37,800 1931.24,800 1934.12,0 1936.99,800 1939.87,800 1942.74,800 1945.61,0 1948.49,800 1951.36,800 1954.24,800 1957.11,800 1959.99,800 1962.86,800 1965.73,800 1968.61,800 1971.48,800 1974.36,0 1977.23,800 1980.1,800 1982.98,800 1985.85,800 1988.73,0 1991.6,800 1994.48,800 1997.35,800 2000.22,0 2003.1,800 2005.97,800 2008.85,800 2011.72,800 2014.59,0 2017.47,0 2020.34,800 2023.22,800 2026.09,800 2028.96,800 2031.84,800 2034.71,800 2037.59,800 2040.46,0 2043.34,800 2046.21,800 2049.08,800 2051.96,0 2054.83,800 2057.71,800 2060.58,800 2063.45,800 2066.33,800 2069.2,800 2072.08,800 2074.95,800 2077.83,0 2080.7,0 2083.57,0 2086.45,800 2089.32,800 2092.2,800 2095.07,800 2097.94,0 2100.82,800 2103.69,800 2106.57,0 2109.44,800 2112.32,0 2115.19,800 2118.06,800 2120.94,800 2123.81,800 2126.69,800 2129.56,800 2132.43,800 2135.31,800 2138.18,800 2141.06,800 2143.93,0 2146.8,800 2149.68,800 2152.55,0 2155.43,800 2158.3,800 2161.18,800 2164.05,0 2166.92,0 2169.8,800 2172.67,0 2175.55,0 2178.42,800 2181.29,0 2184.17,800 2187.04,800 2189.92,800 2192.79,800 2195.67,800 2198.54,0 2201.41,800 2204.29,800 2207.16,800 2210.04,0 2212.91,800 2215.78,800 2218.66,800 2221.53,0 2224.41,800 2227.28,800 2230.16,0 2233.03,800 2235.9,800 2238.78,800 2241.65,800 2244.53,800 2247.4,800 2250.27,800 2253.15,800 2256.02,800 2258.9,800 2261.77,0 2264.64,800 2267.52,0 2270.39,800 2273.27,800 2276.14,800 2279.02,800 2281.89,800 2284.76,0 2287.64,800 2290.51,800 2293.39,0 2296.26,0 2299.13,800 2302.01,800 2304.88,0 2307.76,800 2310.63,800 2313.51,800 2316.38,800 2319.25,800 2322.13,800 2325,0 2327.88,800 2330.75,0 2333.62,800 2336.5,800 2339.37,0 2342.25,800 2345.12,0 2348,800 2350.87,800 2353.74,800 2356.62,800 2359.49,800 2362.37,0 2365.24,800 2368.11,0 2370.99,800 2373.86,800 2376.74,800 2379.61,800 2382.48,800 2385.36,0 2388.23,0 2391.11,800 2393.98,800 2396.86,800 2399.73,800 2402.6,800 2405.48,0 2408.35,800 2411.23,800 2414.1,0 2416.97,0 2419.85,800 2422.72,800 2425.6,0 2428.47,0 2431.35,800 2434.22,800 2437.09,800 2439.97,800 2442.84,800 2445.72,800 2448.59,800 2451.46,0 2454.34,800 2457.21,800 2460.09,800 2462.96,0 2465.84,0 2468.71,0 2471.58,0 2474.46,800 2477.33,800 2480.21,800 2483.08,800 2485.95,800 2488.83,800 2491.7,800 2494.58,800 2497.45,0 2500.32,0 2503.2,800 2506.07,800 2508.95,800 2511.82,800 2514.7,0 2517.57,0 2520.44,800 2523.32,800 2526.19,0 2529.07,0 2531.94,0 2534.81,0 2537.69,0 2540.56,0 2543.44,0 2546.31,0 2549.19,800 2552.06,0 2554.93,0 2557.81,0 2560.68,0 2563.56,0 2566.43,800 2569.3,0 2572.18,0 2575.05,0 2577.93,0 2580.8,0 2583.68,800 2586.55,0 2589.42,0 2592.3,0 2595.17,0 2598.05,0 2600.92,800 2603.79,0 2606.67,0 2609.54,0 2612.42,800 2615.29,0 2618.16,0 2621.04,0 2623.91,0 2626.79,0 2629.66,0 2632.54,0 2635.41,800 2638.28,0 2641.16,800 2644.03,800 2646.91,800 2649.78,0 2652.65,0 2655.53,800 2658.4,0 2661.28,800 2664.15,800 2667.03,0 2669.9,0 2672.77,0 2675.65,800 2678.52,800 2681.4,0 2684.27,800 2687.14,800 2690.02,0 2692.89,0 2695.77,800 2698.64,800 2701.52,800 2704.39,800 2707.26,0 2710.14,0 2713.01,800 2715.89,800 2718.76,0 2721.63,0 2724.51,0 2727.38,800 2730.26,0 2733.13,0 2736,0 2738.88,0 2741.75,0 2744.63,0 2747.5,800 2750.38,0 2753.25,0 2756.12,0 2759,0 2761.87,0 2764.75,800 2767.62,0 2770.49,0 2773.37,0 2776.24,800 2779.12,0 2781.99,0 2784.87,0 2787.74,800 2790.61,0 2793.49,800 2796.36,800 2799.24,0 2802.11,0 2804.98,800 2807.86,0 2810.73,0 2813.61,0 2816.48,0 2819.35,0 2822.23,800 2825.1,0 2827.98,0 2830.85,0 2833.73,800 2836.6,800 2839.47,800 2842.35,0 2845.22,0 2848.1,0 2850.97,800 2853.84,0 2856.72,0 2859.59,0 2862.47,0 2865.34,0 2868.22,0 2871.09,0 2873.96,0 2876.84,0 2879.71,0 2882.59,0 2885.46,0 2888.33,0 2891.21,0 2894.08,0 2896.96,0 2899.83,0 2902.71,0 2905.58,0 2908.45,0 2911.33,0 2914.2,0 2917.08,0 2919.95,0 2922.82,0 2925.7,0 2928.57,0 2931.45,0 2934.32,0 2937.19,0 2940.07,0 2942.94,0 2945.82,0 2948.69,0 2951.57,0 2954.44,0 2957.31,0 2960.19,0 2963.06,0 2965.94,0 2968.81,0 2971.68,0 2974.56,0 2977.43,0 2980.31,0 2983.18,0 2986.06,0 2988.93,0 2991.8,0 2994.68,0 2997.55,0 3000.43,0 3003.3,0 3006.17,0 3009.05,0 3011.92,0 3014.8,0 3017.67,0 3020.55,0 3023.42,0 3026.29,0 3029.17,0 3032.04,0 3034.92,0 3037.79,0 3040.66,0 3043.54,0 3046.41,0 3049.29,0 3052.16,0 3055.03,0 3057.91,0 3060.78,0 3063.66,0 3066.53,0 3069.41,0 3072.28,0 3075.15,0 3078.03,0 3080.9,0 3083.78,0 3086.65,0 3089.52,0 3092.4,0 3095.27,0 3098.15,0 3101.02,0 3103.9,0 3106.77,0 3109.64,0 3112.52,0 3115.39,0 3118.27,0 3121.14,0 3124.01,0 3126.89,0 3129.76,0 3132.64,0 3135.51,0 3138.39,0 3141.26,0 3144.13,0 3147.01,0 3149.88,0 3152.76,0 "/>
<path clip-path="url(#clip530)" d="M377.193 197.473 L760.431 197.473 L760.431 93.7926 L377.193 93.7926  Z" fill="#ffffff" fill-rule="evenodd" fill-opacity="1"/>
<polyline clip-path="url(#clip530)" style="stroke:#000000; stroke-linecap:round; stroke-linejoin:round; stroke-width:4; stroke-opacity:1; fill:none" points="377.193,197.473 760.431,197.473 760.431,93.7926 377.193,93.7926 377.193,197.473 "/>
<polyline clip-path="url(#clip530)" style="stroke:#009af9; stroke-linecap:round; stroke-linejoin:round; stroke-width:12; stroke-opacity:1; fill:none" points="409.096,145.633 600.514,145.633 "/>
<path clip-path="url(#clip530)" d="M633.991 128.353 L639.015 128.353 L647.602 141.2 L656.237 128.353 L661.26 128.353 L650.149 144.95 L662.001 162.913 L656.977 162.913 L647.255 148.214 L637.464 162.913 L632.417 162.913 L644.755 144.464 L633.991 128.353 Z" fill="#000000" fill-rule="nonzero" fill-opacity="1" /><path clip-path="url(#clip530)" d="M672.163 129.626 L672.163 136.987 L680.936 136.987 L680.936 140.297 L672.163 140.297 L672.163 154.371 Q672.163 157.542 673.019 158.445 Q673.899 159.348 676.561 159.348 L680.936 159.348 L680.936 162.913 L676.561 162.913 Q671.63 162.913 669.755 161.084 Q667.88 159.232 667.88 154.371 L667.88 140.297 L664.755 140.297 L664.755 136.987 L667.88 136.987 L667.88 129.626 L672.163 129.626 Z" fill="#000000" fill-rule="nonzero" fill-opacity="1" /><path clip-path="url(#clip530)" d="M696.584 139.973 Q693.158 139.973 691.167 142.658 Q689.176 145.32 689.176 149.973 Q689.176 154.626 691.144 157.311 Q693.135 159.973 696.584 159.973 Q699.986 159.973 701.977 157.288 Q703.968 154.602 703.968 149.973 Q703.968 145.366 701.977 142.681 Q699.986 139.973 696.584 139.973 M696.584 136.362 Q702.139 136.362 705.311 139.973 Q708.482 143.584 708.482 149.973 Q708.482 156.339 705.311 159.973 Q702.139 163.584 696.584 163.584 Q691.005 163.584 687.834 159.973 Q684.686 156.339 684.686 149.973 Q684.686 143.584 687.834 139.973 Q691.005 136.362 696.584 136.362 Z" fill="#000000" fill-rule="nonzero" fill-opacity="1" /><path clip-path="url(#clip530)" d="M719.755 129.626 L719.755 136.987 L728.528 136.987 L728.528 140.297 L719.755 140.297 L719.755 154.371 Q719.755 157.542 720.611 158.445 Q721.491 159.348 724.153 159.348 L728.528 159.348 L728.528 162.913 L724.153 162.913 Q719.222 162.913 717.347 161.084 Q715.473 159.232 715.473 154.371 L715.473 140.297 L712.348 140.297 L712.348 136.987 L715.473 136.987 L715.473 129.626 L719.755 129.626 Z" fill="#000000" fill-rule="nonzero" fill-opacity="1" /></svg>
