<?xml version="1.0" encoding="utf-8"?>
<svg xmlns="http://www.w3.org/2000/svg" xmlns:xlink="http://www.w3.org/1999/xlink" width="800" height="400" viewBox="0 0 3200 1600">
<defs>
  <clipPath id="clip060">
    <rect x="0" y="0" width="3200" height="1600"/>
  </clipPath>
</defs>
<path clip-path="url(#clip060)" d="M0 1600 L3200 1600 L3200 0 L0 0  Z" fill="#ffffff" fill-rule="evenodd" fill-opacity="1"/>
<defs>
  <clipPath id="clip061">
    <rect x="177" y="47" width="2977" height="1397"/>
  </clipPath>
</defs>
<path clip-path="url(#clip060)" d="M177.121 1443.7 L3152.76 1443.7 L3152.76 47.2441 L177.121 47.2441  Z" fill="#ffffff" fill-rule="evenodd" fill-opacity="1"/>
<polyline clip-path="url(#clip061)" style="stroke:#000000; stroke-linecap:round; stroke-linejoin:round; stroke-width:2; stroke-opacity:0.1; fill:none" points="177.121,1443.7 177.121,47.2441 "/>
<polyline clip-path="url(#clip061)" style="stroke:#000000; stroke-linecap:round; stroke-linejoin:round; stroke-width:2; stroke-opacity:0.1; fill:none" points="772.248,1443.7 772.248,47.2441 "/>
<polyline clip-path="url(#clip061)" style="stroke:#000000; stroke-linecap:round; stroke-linejoin:round; stroke-width:2; stroke-opacity:0.1; fill:none" points="1367.38,1443.7 1367.38,47.2441 "/>
<polyline clip-path="url(#clip061)" style="stroke:#000000; stroke-linecap:round; stroke-linejoin:round; stroke-width:2; stroke-opacity:0.1; fill:none" points="1962.5,1443.7 1962.5,47.2441 "/>
<polyline clip-path="url(#clip061)" style="stroke:#000000; stroke-linecap:round; stroke-linejoin:round; stroke-width:2; stroke-opacity:0.1; fill:none" points="2557.63,1443.7 2557.63,47.2441 "/>
<polyline clip-path="url(#clip061)" style="stroke:#000000; stroke-linecap:round; stroke-linejoin:round; stroke-width:2; stroke-opacity:0.1; fill:none" points="3152.76,1443.7 3152.76,47.2441 "/>
<polyline clip-path="url(#clip061)" style="stroke:#000000; stroke-linecap:round; stroke-linejoin:round; stroke-width:2; stroke-opacity:0.1; fill:none" points="177.121,1443.7 177.121,47.2441 "/>
<polyline clip-path="url(#clip061)" style="stroke:#000000; stroke-linecap:round; stroke-linejoin:round; stroke-width:2; stroke-opacity:0.1; fill:none" points="772.248,1443.7 772.248,47.2441 "/>
<polyline clip-path="url(#clip061)" style="stroke:#000000; stroke-linecap:round; stroke-linejoin:round; stroke-width:2; stroke-opacity:0.1; fill:none" points="1367.38,1443.7 1367.38,47.2441 "/>
<polyline clip-path="url(#clip061)" style="stroke:#000000; stroke-linecap:round; stroke-linejoin:round; stroke-width:2; stroke-opacity:0.1; fill:none" points="1962.5,1443.7 1962.5,47.2441 "/>
<polyline clip-path="url(#clip061)" style="stroke:#000000; stroke-linecap:round; stroke-linejoin:round; stroke-width:2; stroke-opacity:0.1; fill:none" points="2557.63,1443.7 2557.63,47.2441 "/>
<polyline clip-path="url(#clip061)" style="stroke:#000000; stroke-linecap:round; stroke-linejoin:round; stroke-width:2; stroke-opacity:0.1; fill:none" points="3152.76,1443.7 3152.76,47.2441 "/>
<polyline clip-path="url(#clip061)" style="stroke:#000000; stroke-linecap:round; stroke-linejoin:round; stroke-width:2; stroke-opacity:0.1; fill:none" points="177.121,1404.18 3152.76,1404.18 "/>
<polyline clip-path="url(#clip061)" style="stroke:#000000; stroke-linecap:round; stroke-linejoin:round; stroke-width:2; stroke-opacity:0.1; fill:none" points="177.121,1071.5 3152.76,1071.5 "/>
<polyline clip-path="url(#clip061)" style="stroke:#000000; stroke-linecap:round; stroke-linejoin:round; stroke-width:2; stroke-opacity:0.1; fill:none" points="177.121,738.818 3152.76,738.818 "/>
<polyline clip-path="url(#clip061)" style="stroke:#000000; stroke-linecap:round; stroke-linejoin:round; stroke-width:2; stroke-opacity:0.1; fill:none" points="177.121,406.139 3152.76,406.139 "/>
<polyline clip-path="url(#clip061)" style="stroke:#000000; stroke-linecap:round; stroke-linejoin:round; stroke-width:2; stroke-opacity:0.1; fill:none" points="177.121,73.4592 3152.76,73.4592 "/>
<polyline clip-path="url(#clip061)" style="stroke:#000000; stroke-linecap:round; stroke-linejoin:round; stroke-width:2; stroke-opacity:0.1; fill:none" points="177.121,1404.18 3152.76,1404.18 "/>
<polyline clip-path="url(#clip061)" style="stroke:#000000; stroke-linecap:round; stroke-linejoin:round; stroke-width:2; stroke-opacity:0.1; fill:none" points="177.121,1071.5 3152.76,1071.5 "/>
<polyline clip-path="url(#clip061)" style="stroke:#000000; stroke-linecap:round; stroke-linejoin:round; stroke-width:2; stroke-opacity:0.1; fill:none" points="177.121,738.818 3152.76,738.818 "/>
<polyline clip-path="url(#clip061)" style="stroke:#000000; stroke-linecap:round; stroke-linejoin:round; stroke-width:2; stroke-opacity:0.1; fill:none" points="177.121,406.139 3152.76,406.139 "/>
<polyline clip-path="url(#clip061)" style="stroke:#000000; stroke-linecap:round; stroke-linejoin:round; stroke-width:2; stroke-opacity:0.1; fill:none" points="177.121,73.4592 3152.76,73.4592 "/>
<polyline clip-path="url(#clip060)" style="stroke:#000000; stroke-linecap:round; stroke-linejoin:round; stroke-width:4; stroke-opacity:1; fill:none" points="177.121,1443.7 3152.76,1443.7 "/>
<polyline clip-path="url(#clip060)" style="stroke:#000000; stroke-linecap:round; stroke-linejoin:round; stroke-width:4; stroke-opacity:1; fill:none" points="177.121,47.2441 3152.76,47.2441 "/>
<polyline clip-path="url(#clip060)" style="stroke:#000000; stroke-linecap:round; stroke-linejoin:round; stroke-width:4; stroke-opacity:1; fill:none" points="177.121,1443.7 177.121,1424.8 "/>
<polyline clip-path="url(#clip060)" style="stroke:#000000; stroke-linecap:round; stroke-linejoin:round; stroke-width:4; stroke-opacity:1; fill:none" points="772.248,1443.7 772.248,1424.8 "/>
<polyline clip-path="url(#clip060)" style="stroke:#000000; stroke-linecap:round; stroke-linejoin:round; stroke-width:4; stroke-opacity:1; fill:none" points="1367.38,1443.7 1367.38,1424.8 "/>
<polyline clip-path="url(#clip060)" style="stroke:#000000; stroke-linecap:round; stroke-linejoin:round; stroke-width:4; stroke-opacity:1; fill:none" points="1962.5,1443.7 1962.5,1424.8 "/>
<polyline clip-path="url(#clip060)" style="stroke:#000000; stroke-linecap:round; stroke-linejoin:round; stroke-width:4; stroke-opacity:1; fill:none" points="2557.63,1443.7 2557.63,1424.8 "/>
<polyline clip-path="url(#clip060)" style="stroke:#000000; stroke-linecap:round; stroke-linejoin:round; stroke-width:4; stroke-opacity:1; fill:none" points="3152.76,1443.7 3152.76,1424.8 "/>
<polyline clip-path="url(#clip060)" style="stroke:#000000; stroke-linecap:round; stroke-linejoin:round; stroke-width:4; stroke-opacity:1; fill:none" points="177.121,47.2441 177.121,66.1417 "/>
<polyline clip-path="url(#clip060)" style="stroke:#000000; stroke-linecap:round; stroke-linejoin:round; stroke-width:4; stroke-opacity:1; fill:none" points="772.248,47.2441 772.248,66.1417 "/>
<polyline clip-path="url(#clip060)" style="stroke:#000000; stroke-linecap:round; stroke-linejoin:round; stroke-width:4; stroke-opacity:1; fill:none" points="1367.38,47.2441 1367.38,66.1417 "/>
<polyline clip-path="url(#clip060)" style="stroke:#000000; stroke-linecap:round; stroke-linejoin:round; stroke-width:4; stroke-opacity:1; fill:none" points="1962.5,47.2441 1962.5,66.1417 "/>
<polyline clip-path="url(#clip060)" style="stroke:#000000; stroke-linecap:round; stroke-linejoin:round; stroke-width:4; stroke-opacity:1; fill:none" points="2557.63,47.2441 2557.63,66.1417 "/>
<polyline clip-path="url(#clip060)" style="stroke:#000000; stroke-linecap:round; stroke-linejoin:round; stroke-width:4; stroke-opacity:1; fill:none" points="3152.76,47.2441 3152.76,66.1417 "/>
<path clip-path="url(#clip060)" d="M177.121 1481.02 Q173.51 1481.02 171.682 1484.58 Q169.876 1488.12 169.876 1495.25 Q169.876 1502.36 171.682 1505.93 Q173.51 1509.47 177.121 1509.47 Q180.756 1509.47 182.561 1505.93 Q184.39 1502.36 184.39 1495.25 Q184.39 1488.12 182.561 1484.58 Q180.756 1481.02 177.121 1481.02 M177.121 1477.31 Q182.931 1477.31 185.987 1481.92 Q189.066 1486.5 189.066 1495.25 Q189.066 1503.98 185.987 1508.59 Q182.931 1513.17 177.121 1513.17 Q171.311 1513.17 168.232 1508.59 Q165.177 1503.98 165.177 1495.25 Q165.177 1486.5 168.232 1481.92 Q171.311 1477.31 177.121 1477.31 Z" fill="#000000" fill-rule="nonzero" fill-opacity="1" /><path clip-path="url(#clip060)" d="M746.947 1477.94 L765.304 1477.94 L765.304 1481.88 L751.23 1481.88 L751.23 1490.35 Q752.248 1490 753.267 1489.84 Q754.285 1489.65 755.304 1489.65 Q761.091 1489.65 764.47 1492.82 Q767.85 1496 767.85 1501.41 Q767.85 1506.99 764.378 1510.09 Q760.906 1513.17 754.586 1513.17 Q752.41 1513.17 750.142 1512.8 Q747.897 1512.43 745.489 1511.69 L745.489 1506.99 Q747.572 1508.12 749.795 1508.68 Q752.017 1509.24 754.494 1509.24 Q758.498 1509.24 760.836 1507.13 Q763.174 1505.02 763.174 1501.41 Q763.174 1497.8 760.836 1495.69 Q758.498 1493.59 754.494 1493.59 Q752.619 1493.59 750.744 1494 Q748.892 1494.42 746.947 1495.3 L746.947 1477.94 Z" fill="#000000" fill-rule="nonzero" fill-opacity="1" /><path clip-path="url(#clip060)" d="M787.063 1481.02 Q783.452 1481.02 781.623 1484.58 Q779.818 1488.12 779.818 1495.25 Q779.818 1502.36 781.623 1505.93 Q783.452 1509.47 787.063 1509.47 Q790.697 1509.47 792.503 1505.93 Q794.331 1502.36 794.331 1495.25 Q794.331 1488.12 792.503 1484.58 Q790.697 1481.02 787.063 1481.02 M787.063 1477.31 Q792.873 1477.31 795.929 1481.92 Q799.007 1486.5 799.007 1495.25 Q799.007 1503.98 795.929 1508.59 Q792.873 1513.17 787.063 1513.17 Q781.253 1513.17 778.174 1508.59 Q775.119 1503.98 775.119 1495.25 Q775.119 1486.5 778.174 1481.92 Q781.253 1477.31 787.063 1477.31 Z" fill="#000000" fill-rule="nonzero" fill-opacity="1" /><path clip-path="url(#clip060)" d="M1326.98 1508.56 L1334.62 1508.56 L1334.62 1482.2 L1326.31 1483.87 L1326.31 1479.61 L1334.57 1477.94 L1339.25 1477.94 L1339.25 1508.56 L1346.89 1508.56 L1346.89 1512.5 L1326.98 1512.5 L1326.98 1508.56 Z" fill="#000000" fill-rule="nonzero" fill-opacity="1" /><path clip-path="url(#clip060)" d="M1366.33 1481.02 Q1362.72 1481.02 1360.89 1484.58 Q1359.09 1488.12 1359.09 1495.25 Q1359.09 1502.36 1360.89 1505.93 Q1362.72 1509.47 1366.33 1509.47 Q1369.97 1509.47 1371.77 1505.93 Q1373.6 1502.36 1373.6 1495.25 Q1373.6 1488.12 1371.77 1484.58 Q1369.97 1481.02 1366.33 1481.02 M1366.33 1477.31 Q1372.14 1477.31 1375.2 1481.92 Q1378.28 1486.5 1378.28 1495.25 Q1378.28 1503.98 1375.2 1508.59 Q1372.14 1513.17 1366.33 1513.17 Q1360.52 1513.17 1357.44 1508.59 Q1354.39 1503.98 1354.39 1495.25 Q1354.39 1486.5 1357.44 1481.92 Q1360.52 1477.31 1366.33 1477.31 Z" fill="#000000" fill-rule="nonzero" fill-opacity="1" /><path clip-path="url(#clip060)" d="M1396.5 1481.02 Q1392.88 1481.02 1391.06 1484.58 Q1389.25 1488.12 1389.25 1495.25 Q1389.25 1502.36 1391.06 1505.93 Q1392.88 1509.47 1396.5 1509.47 Q1400.13 1509.47 1401.94 1505.93 Q1403.76 1502.36 1403.76 1495.25 Q1403.76 1488.12 1401.94 1484.58 Q1400.13 1481.02 1396.5 1481.02 M1396.5 1477.31 Q1402.31 1477.31 1405.36 1481.92 Q1408.44 1486.5 1408.44 1495.25 Q1408.44 1503.98 1405.36 1508.59 Q1402.31 1513.17 1396.5 1513.17 Q1390.69 1513.17 1387.61 1508.59 Q1384.55 1503.98 1384.55 1495.25 Q1384.55 1486.5 1387.61 1481.92 Q1390.69 1477.31 1396.5 1477.31 Z" fill="#000000" fill-rule="nonzero" fill-opacity="1" /><path clip-path="url(#clip060)" d="M1922.11 1508.56 L1929.75 1508.56 L1929.75 1482.2 L1921.44 1483.87 L1921.44 1479.61 L1929.7 1477.94 L1934.38 1477.94 L1934.38 1508.56 L1942.02 1508.56 L1942.02 1512.5 L1922.11 1512.5 L1922.11 1508.56 Z" fill="#000000" fill-rule="nonzero" fill-opacity="1" /><path clip-path="url(#clip060)" d="M1951.51 1477.94 L1969.86 1477.94 L1969.86 1481.88 L1955.79 1481.88 L1955.79 1490.35 Q1956.81 1490 1957.83 1489.84 Q1958.84 1489.65 1959.86 1489.65 Q1965.65 1489.65 1969.03 1492.82 Q1972.41 1496 1972.41 1501.41 Q1972.41 1506.99 1968.94 1510.09 Q1965.47 1513.17 1959.15 1513.17 Q1956.97 1513.17 1954.7 1512.8 Q1952.46 1512.43 1950.05 1511.69 L1950.05 1506.99 Q1952.13 1508.12 1954.35 1508.68 Q1956.58 1509.24 1959.05 1509.24 Q1963.06 1509.24 1965.4 1507.13 Q1967.73 1505.02 1967.73 1501.41 Q1967.73 1497.8 1965.4 1495.69 Q1963.06 1493.59 1959.05 1493.59 Q1957.18 1493.59 1955.3 1494 Q1953.45 1494.42 1951.51 1495.3 L1951.51 1477.94 Z" fill="#000000" fill-rule="nonzero" fill-opacity="1" /><path clip-path="url(#clip060)" d="M1991.62 1481.02 Q1988.01 1481.02 1986.18 1484.58 Q1984.38 1488.12 1984.38 1495.25 Q1984.38 1502.36 1986.18 1505.93 Q1988.01 1509.47 1991.62 1509.47 Q1995.26 1509.47 1997.06 1505.93 Q1998.89 1502.36 1998.89 1495.25 Q1998.89 1488.12 1997.06 1484.58 Q1995.26 1481.02 1991.62 1481.02 M1991.62 1477.31 Q1997.43 1477.31 2000.49 1481.92 Q2003.57 1486.5 2003.57 1495.25 Q2003.57 1503.98 2000.49 1508.59 Q1997.43 1513.17 1991.62 1513.17 Q1985.81 1513.17 1982.73 1508.59 Q1979.68 1503.98 1979.68 1495.25 Q1979.68 1486.5 1982.73 1481.92 Q1985.81 1477.31 1991.62 1477.31 Z" fill="#000000" fill-rule="nonzero" fill-opacity="1" /><path clip-path="url(#clip060)" d="M2521.32 1508.56 L2537.64 1508.56 L2537.64 1512.5 L2515.7 1512.5 L2515.7 1508.56 Q2518.36 1505.81 2522.94 1501.18 Q2527.55 1496.53 2528.73 1495.19 Q2530.97 1492.66 2531.85 1490.93 Q2532.76 1489.17 2532.76 1487.48 Q2532.76 1484.72 2530.81 1482.99 Q2528.89 1481.25 2525.79 1481.25 Q2523.59 1481.25 2521.14 1482.01 Q2518.71 1482.78 2515.93 1484.33 L2515.93 1479.61 Q2518.75 1478.47 2521.21 1477.89 Q2523.66 1477.31 2525.7 1477.31 Q2531.07 1477.31 2534.26 1480 Q2537.46 1482.69 2537.46 1487.18 Q2537.46 1489.31 2536.65 1491.23 Q2535.86 1493.12 2533.75 1495.72 Q2533.17 1496.39 2530.07 1499.61 Q2526.97 1502.8 2521.32 1508.56 Z" fill="#000000" fill-rule="nonzero" fill-opacity="1" /><path clip-path="url(#clip060)" d="M2557.46 1481.02 Q2553.84 1481.02 2552.02 1484.58 Q2550.21 1488.12 2550.21 1495.25 Q2550.21 1502.36 2552.02 1505.93 Q2553.84 1509.47 2557.46 1509.47 Q2561.09 1509.47 2562.9 1505.93 Q2564.72 1502.36 2564.72 1495.25 Q2564.72 1488.12 2562.9 1484.58 Q2561.09 1481.02 2557.46 1481.02 M2557.46 1477.31 Q2563.27 1477.31 2566.32 1481.92 Q2569.4 1486.5 2569.4 1495.25 Q2569.4 1503.98 2566.32 1508.59 Q2563.27 1513.17 2557.46 1513.17 Q2551.65 1513.17 2548.57 1508.59 Q2545.51 1503.98 2545.51 1495.25 Q2545.51 1486.5 2548.57 1481.92 Q2551.65 1477.31 2557.46 1477.31 Z" fill="#000000" fill-rule="nonzero" fill-opacity="1" /><path clip-path="url(#clip060)" d="M2587.62 1481.02 Q2584.01 1481.02 2582.18 1484.58 Q2580.37 1488.12 2580.37 1495.25 Q2580.37 1502.36 2582.18 1505.93 Q2584.01 1509.47 2587.62 1509.47 Q2591.25 1509.47 2593.06 1505.93 Q2594.89 1502.36 2594.89 1495.25 Q2594.89 1488.12 2593.06 1484.58 Q2591.25 1481.02 2587.62 1481.02 M2587.62 1477.31 Q2593.43 1477.31 2596.48 1481.92 Q2599.56 1486.5 2599.56 1495.25 Q2599.56 1503.98 2596.48 1508.59 Q2593.43 1513.17 2587.62 1513.17 Q2581.81 1513.17 2578.73 1508.59 Q2575.67 1503.98 2575.67 1495.25 Q2575.67 1486.5 2578.73 1481.92 Q2581.81 1477.31 2587.62 1477.31 Z" fill="#000000" fill-rule="nonzero" fill-opacity="1" /><path clip-path="url(#clip060)" d="M3116.45 1508.56 L3132.77 1508.56 L3132.77 1512.5 L3110.82 1512.5 L3110.82 1508.56 Q3113.49 1505.81 3118.07 1501.18 Q3122.68 1496.53 3123.86 1495.19 Q3126.1 1492.66 3126.98 1490.93 Q3127.88 1489.17 3127.88 1487.48 Q3127.88 1484.72 3125.94 1482.99 Q3124.02 1481.25 3120.92 1481.25 Q3118.72 1481.25 3116.26 1482.01 Q3113.83 1482.78 3111.05 1484.33 L3111.05 1479.61 Q3113.88 1478.47 3116.33 1477.89 Q3118.79 1477.31 3120.82 1477.31 Q3126.19 1477.31 3129.39 1480 Q3132.58 1482.69 3132.58 1487.18 Q3132.58 1489.31 3131.77 1491.23 Q3130.99 1493.12 3128.88 1495.72 Q3128.3 1496.39 3125.2 1499.61 Q3122.1 1502.8 3116.45 1508.56 Z" fill="#000000" fill-rule="nonzero" fill-opacity="1" /><path clip-path="url(#clip060)" d="M3142.63 1477.94 L3160.99 1477.94 L3160.99 1481.88 L3146.91 1481.88 L3146.91 1490.35 Q3147.93 1490 3148.95 1489.84 Q3149.97 1489.65 3150.99 1489.65 Q3156.77 1489.65 3160.15 1492.82 Q3163.53 1496 3163.53 1501.41 Q3163.53 1506.99 3160.06 1510.09 Q3156.59 1513.17 3150.27 1513.17 Q3148.09 1513.17 3145.82 1512.8 Q3143.58 1512.43 3141.17 1511.69 L3141.17 1506.99 Q3143.25 1508.12 3145.48 1508.68 Q3147.7 1509.24 3150.17 1509.24 Q3154.18 1509.24 3156.52 1507.13 Q3158.86 1505.02 3158.86 1501.41 Q3158.86 1497.8 3156.52 1495.69 Q3154.18 1493.59 3150.17 1493.59 Q3148.3 1493.59 3146.42 1494 Q3144.57 1494.42 3142.63 1495.3 L3142.63 1477.94 Z" fill="#000000" fill-rule="nonzero" fill-opacity="1" /><path clip-path="url(#clip060)" d="M3182.74 1481.02 Q3179.13 1481.02 3177.3 1484.58 Q3175.5 1488.12 3175.5 1495.25 Q3175.5 1502.36 3177.3 1505.93 Q3179.13 1509.47 3182.74 1509.47 Q3186.38 1509.47 3188.18 1505.93 Q3190.01 1502.36 3190.01 1495.25 Q3190.01 1488.12 3188.18 1484.58 Q3186.38 1481.02 3182.74 1481.02 M3182.74 1477.31 Q3188.55 1477.31 3191.61 1481.92 Q3194.69 1486.5 3194.69 1495.25 Q3194.69 1503.98 3191.61 1508.59 Q3188.55 1513.17 3182.74 1513.17 Q3176.93 1513.17 3173.86 1508.59 Q3170.8 1503.98 3170.8 1495.25 Q3170.8 1486.5 3173.86 1481.92 Q3176.93 1477.31 3182.74 1477.31 Z" fill="#000000" fill-rule="nonzero" fill-opacity="1" /><path clip-path="url(#clip060)" d="M1664 1554.79 L1664 1564.92 L1676.06 1564.92 L1676.06 1569.47 L1664 1569.47 L1664 1588.82 Q1664 1593.18 1665.18 1594.42 Q1666.39 1595.66 1670.05 1595.66 L1676.06 1595.66 L1676.06 1600.56 L1670.05 1600.56 Q1663.27 1600.56 1660.69 1598.05 Q1658.11 1595.5 1658.11 1588.82 L1658.11 1569.47 L1653.81 1569.47 L1653.81 1564.92 L1658.11 1564.92 L1658.11 1554.79 L1664 1554.79 Z" fill="#000000" fill-rule="nonzero" fill-opacity="1" /><polyline clip-path="url(#clip060)" style="stroke:#000000; stroke-linecap:round; stroke-linejoin:round; stroke-width:4; stroke-opacity:1; fill:none" points="177.121,1443.7 177.121,47.2441 "/>
<polyline clip-path="url(#clip060)" style="stroke:#000000; stroke-linecap:round; stroke-linejoin:round; stroke-width:4; stroke-opacity:1; fill:none" points="3152.76,1443.7 3152.76,47.2441 "/>
<polyline clip-path="url(#clip060)" style="stroke:#000000; stroke-linecap:round; stroke-linejoin:round; stroke-width:4; stroke-opacity:1; fill:none" points="177.121,1404.18 196.019,1404.18 "/>
<polyline clip-path="url(#clip060)" style="stroke:#000000; stroke-linecap:round; stroke-linejoin:round; stroke-width:4; stroke-opacity:1; fill:none" points="177.121,1071.5 196.019,1071.5 "/>
<polyline clip-path="url(#clip060)" style="stroke:#000000; stroke-linecap:round; stroke-linejoin:round; stroke-width:4; stroke-opacity:1; fill:none" points="177.121,738.818 196.019,738.818 "/>
<polyline clip-path="url(#clip060)" style="stroke:#000000; stroke-linecap:round; stroke-linejoin:round; stroke-width:4; stroke-opacity:1; fill:none" points="177.121,406.139 196.019,406.139 "/>
<polyline clip-path="url(#clip060)" style="stroke:#000000; stroke-linecap:round; stroke-linejoin:round; stroke-width:4; stroke-opacity:1; fill:none" points="177.121,73.4592 196.019,73.4592 "/>
<polyline clip-path="url(#clip060)" style="stroke:#000000; stroke-linecap:round; stroke-linejoin:round; stroke-width:4; stroke-opacity:1; fill:none" points="3152.76,1404.18 3133.86,1404.18 "/>
<polyline clip-path="url(#clip060)" style="stroke:#000000; stroke-linecap:round; stroke-linejoin:round; stroke-width:4; stroke-opacity:1; fill:none" points="3152.76,1071.5 3133.86,1071.5 "/>
<polyline clip-path="url(#clip060)" style="stroke:#000000; stroke-linecap:round; stroke-linejoin:round; stroke-width:4; stroke-opacity:1; fill:none" points="3152.76,738.818 3133.86,738.818 "/>
<polyline clip-path="url(#clip060)" style="stroke:#000000; stroke-linecap:round; stroke-linejoin:round; stroke-width:4; stroke-opacity:1; fill:none" points="3152.76,406.139 3133.86,406.139 "/>
<polyline clip-path="url(#clip060)" style="stroke:#000000; stroke-linecap:round; stroke-linejoin:round; stroke-width:4; stroke-opacity:1; fill:none" points="3152.76,73.4592 3133.86,73.4592 "/>
<path clip-path="url(#clip060)" d="M117.177 1389.98 Q113.566 1389.98 111.737 1393.54 Q109.932 1397.08 109.932 1404.21 Q109.932 1411.32 111.737 1414.88 Q113.566 1418.43 117.177 1418.43 Q120.811 1418.43 122.617 1414.88 Q124.445 1411.32 124.445 1404.21 Q124.445 1397.08 122.617 1393.54 Q120.811 1389.98 117.177 1389.98 M117.177 1386.27 Q122.987 1386.27 126.043 1390.88 Q129.121 1395.46 129.121 1404.21 Q129.121 1412.94 126.043 1417.55 Q122.987 1422.13 117.177 1422.13 Q111.367 1422.13 108.288 1417.55 Q105.233 1412.94 105.233 1404.21 Q105.233 1395.46 108.288 1390.88 Q111.367 1386.27 117.177 1386.27 Z" fill="#000000" fill-rule="nonzero" fill-opacity="1" /><path clip-path="url(#clip060)" d="M82.0382 1084.84 L98.3576 1084.84 L98.3576 1088.78 L76.4133 1088.78 L76.4133 1084.84 Q79.0753 1082.09 83.6586 1077.46 Q88.2651 1072.81 89.4456 1071.46 Q91.691 1068.94 92.5706 1067.2 Q93.4734 1065.44 93.4734 1063.75 Q93.4734 1061 91.5289 1059.26 Q89.6076 1057.53 86.5058 1057.53 Q84.3067 1057.53 81.8531 1058.29 Q79.4225 1059.06 76.6447 1060.61 L76.6447 1055.88 Q79.4688 1054.75 81.9225 1054.17 Q84.3762 1053.59 86.4132 1053.59 Q91.7836 1053.59 94.978 1056.28 Q98.1724 1058.96 98.1724 1063.45 Q98.1724 1065.58 97.3622 1067.5 Q96.5752 1069.4 94.4687 1072 Q93.89 1072.67 90.7882 1075.88 Q87.6864 1079.08 82.0382 1084.84 Z" fill="#000000" fill-rule="nonzero" fill-opacity="1" /><path clip-path="url(#clip060)" d="M108.219 1054.22 L126.575 1054.22 L126.575 1058.15 L112.501 1058.15 L112.501 1066.63 Q113.52 1066.28 114.538 1066.12 Q115.557 1065.93 116.575 1065.93 Q122.362 1065.93 125.742 1069.1 Q129.121 1072.27 129.121 1077.69 Q129.121 1083.27 125.649 1086.37 Q122.177 1089.45 115.857 1089.45 Q113.682 1089.45 111.413 1089.08 Q109.168 1088.71 106.76 1087.97 L106.76 1083.27 Q108.844 1084.4 111.066 1084.96 Q113.288 1085.51 115.765 1085.51 Q119.77 1085.51 122.107 1083.41 Q124.445 1081.3 124.445 1077.69 Q124.445 1074.08 122.107 1071.97 Q119.77 1069.87 115.765 1069.87 Q113.89 1069.87 112.015 1070.28 Q110.163 1070.7 108.219 1071.58 L108.219 1054.22 Z" fill="#000000" fill-rule="nonzero" fill-opacity="1" /><path clip-path="url(#clip060)" d="M77.0614 721.538 L95.4178 721.538 L95.4178 725.474 L81.3438 725.474 L81.3438 733.946 Q82.3623 733.598 83.3808 733.436 Q84.3993 733.251 85.4178 733.251 Q91.2049 733.251 94.5845 736.423 Q97.9641 739.594 97.9641 745.01 Q97.9641 750.589 94.4919 753.691 Q91.0197 756.77 84.7003 756.77 Q82.5243 756.77 80.2558 756.399 Q78.0105 756.029 75.6031 755.288 L75.6031 750.589 Q77.6864 751.723 79.9086 752.279 Q82.1308 752.835 84.6077 752.835 Q88.6123 752.835 90.9502 750.728 Q93.2882 748.622 93.2882 745.01 Q93.2882 741.399 90.9502 739.293 Q88.6123 737.186 84.6077 737.186 Q82.7327 737.186 80.8577 737.603 Q79.0058 738.02 77.0614 738.899 L77.0614 721.538 Z" fill="#000000" fill-rule="nonzero" fill-opacity="1" /><path clip-path="url(#clip060)" d="M117.177 724.617 Q113.566 724.617 111.737 728.182 Q109.932 731.724 109.932 738.853 Q109.932 745.96 111.737 749.524 Q113.566 753.066 117.177 753.066 Q120.811 753.066 122.617 749.524 Q124.445 745.96 124.445 738.853 Q124.445 731.724 122.617 728.182 Q120.811 724.617 117.177 724.617 M117.177 720.913 Q122.987 720.913 126.043 725.52 Q129.121 730.103 129.121 738.853 Q129.121 747.58 126.043 752.186 Q122.987 756.77 117.177 756.77 Q111.367 756.77 108.288 752.186 Q105.233 747.58 105.233 738.853 Q105.233 730.103 108.288 725.52 Q111.367 720.913 117.177 720.913 Z" fill="#000000" fill-rule="nonzero" fill-opacity="1" /><path clip-path="url(#clip060)" d="M76.8299 388.859 L99.052 388.859 L99.052 390.85 L86.5058 423.419 L81.6216 423.419 L93.4271 392.794 L76.8299 392.794 L76.8299 388.859 Z" fill="#000000" fill-rule="nonzero" fill-opacity="1" /><path clip-path="url(#clip060)" d="M108.219 388.859 L126.575 388.859 L126.575 392.794 L112.501 392.794 L112.501 401.266 Q113.52 400.919 114.538 400.757 Q115.557 400.572 116.575 400.572 Q122.362 400.572 125.742 403.743 Q129.121 406.914 129.121 412.331 Q129.121 417.91 125.649 421.011 Q122.177 424.09 115.857 424.09 Q113.682 424.09 111.413 423.72 Q109.168 423.349 106.76 422.609 L106.76 417.91 Q108.844 419.044 111.066 419.599 Q113.288 420.155 115.765 420.155 Q119.77 420.155 122.107 418.048 Q124.445 415.942 124.445 412.331 Q124.445 408.72 122.107 406.613 Q119.77 404.507 115.765 404.507 Q113.89 404.507 112.015 404.924 Q110.163 405.34 108.219 406.22 L108.219 388.859 Z" fill="#000000" fill-rule="nonzero" fill-opacity="1" /><path clip-path="url(#clip060)" d="M47.6634 86.8041 L55.3023 86.8041 L55.3023 60.4385 L46.9921 62.1051 L46.9921 57.8459 L55.256 56.1792 L59.9319 56.1792 L59.9319 86.8041 L67.5707 86.8041 L67.5707 90.7392 L47.6634 90.7392 L47.6634 86.8041 Z" fill="#000000" fill-rule="nonzero" fill-opacity="1" /><path clip-path="url(#clip060)" d="M87.0151 59.2579 Q83.404 59.2579 81.5753 62.8227 Q79.7697 66.3644 79.7697 73.494 Q79.7697 80.6004 81.5753 84.1652 Q83.404 87.7069 87.0151 87.7069 Q90.6493 87.7069 92.4548 84.1652 Q94.2835 80.6004 94.2835 73.494 Q94.2835 66.3644 92.4548 62.8227 Q90.6493 59.2579 87.0151 59.2579 M87.0151 55.5542 Q92.8252 55.5542 95.8808 60.1607 Q98.9594 64.744 98.9594 73.494 Q98.9594 82.2208 95.8808 86.8272 Q92.8252 91.4105 87.0151 91.4105 Q81.2049 91.4105 78.1262 86.8272 Q75.0707 82.2208 75.0707 73.494 Q75.0707 64.744 78.1262 60.1607 Q81.2049 55.5542 87.0151 55.5542 Z" fill="#000000" fill-rule="nonzero" fill-opacity="1" /><path clip-path="url(#clip060)" d="M117.177 59.2579 Q113.566 59.2579 111.737 62.8227 Q109.932 66.3644 109.932 73.494 Q109.932 80.6004 111.737 84.1652 Q113.566 87.7069 117.177 87.7069 Q120.811 87.7069 122.617 84.1652 Q124.445 80.6004 124.445 73.494 Q124.445 66.3644 122.617 62.8227 Q120.811 59.2579 117.177 59.2579 M117.177 55.5542 Q122.987 55.5542 126.043 60.1607 Q129.121 64.744 129.121 73.494 Q129.121 82.2208 126.043 86.8272 Q122.987 91.4105 117.177 91.4105 Q111.367 91.4105 108.288 86.8272 Q105.233 82.2208 105.233 73.494 Q105.233 64.744 108.288 60.1607 Q111.367 55.5542 117.177 55.5542 Z" fill="#000000" fill-rule="nonzero" fill-opacity="1" /><polyline clip-path="url(#clip061)" style="stroke:#009af9; stroke-linecap:round; stroke-linejoin:round; stroke-width:8; stroke-opacity:1; fill:none" points="177.121,86.7664 180.1,87.3567 183.079,87.9714 186.057,88.6114 189.036,89.2779 192.014,89.9718 194.993,90.6942 197.972,91.4463 200.95,92.2293 203.929,93.0444 206.907,93.8929 209.886,94.776 212.865,95.6952 215.843,96.6519 218.822,97.6475 221.801,98.6835 224.779,99.7616 227.758,100.883 230.736,102.05 233.715,103.265 236.694,104.528 239.672,105.841 242.651,107.208 245.629,108.629 248.608,110.107 251.587,111.643 254.565,113.241 257.544,114.901 260.522,116.628 263.501,118.422 266.48,120.287 269.458,122.225 272.437,124.238 275.416,126.33 278.394,128.504 281.373,130.763 284.351,133.108 287.33,135.54 290.309,138.062 293.287,140.671 296.266,143.37 299.244,146.157 302.223,149.033 305.202,151.995 308.18,155.043 311.159,158.175 314.138,161.389 317.116,164.691 320.095,168.08 323.073,171.56 326.052,175.131 329.031,178.797 332.009,182.557 334.988,186.415 337.966,190.372 340.945,194.429 343.924,198.589 346.902,202.853 349.881,207.222 352.859,211.709 355.838,216.373 358.817,221.276 361.795,226.47 364.774,232.001 367.753,237.905 370.731,244.213 373.71,250.944 376.688,258.113 379.667,265.875 382.646,274.291 385.624,283.04 388.603,291.856 391.581,300.548 394.56,308.987 397.539,317.119 400.517,324.953 403.496,332.544 406.475,339.687 409.453,346.569 412.432,353.508 415.41,360.795 418.389,368.694 421.368,377.442 424.346,387.252 427.325,398.308 430.303,411.223 433.282,425.773 436.261,440.837 439.239,455.621 442.218,469.658 445.197,482.809 448.175,495.263 451.154,507.539 454.132,520.318 457.111,533.44 460.09,546.822 463.068,560.428 466.047,574.205 469.025,588.084 472.004,601.98 474.983,615.836 477.961,629.803 480.94,643.56 483.918,656.77 486.897,669.199 489.876,680.717 492.854,691.298 495.833,701.019 498.812,710.06 501.79,718.705 504.769,727.342 507.747,736.014 510.726,745.405 513.705,756.878 516.683,770.887 519.662,786.961 522.64,803.706 525.619,818.863 528.598,832.341 531.576,844.402 534.555,854.72 537.534,863.425 540.512,871.101 543.491,878.782 546.469,887.024 549.448,895.655 552.427,904.693 555.405,914.15 558.384,924.029 561.362,934.327 564.341,944.995 567.32,955.94 570.298,967.142 573.277,978.568 576.255,990.169 579.234,1001.88 582.213,1013.61 585.191,1025.27 588.17,1036.74 591.149,1047.89 594.127,1058.56 597.106,1068.6 600.084,1077.81 603.063,1086.1 606.042,1093.74 609.02,1100.84 611.999,1107.49 614.977,1113.76 617.956,1119.69 620.935,1125.32 623.913,1130.68 626.892,1135.79 629.871,1140.77 632.849,1145.71 635.828,1150.7 638.806,1155.79 641.785,1161 644.764,1166.32 647.742,1171.7 650.721,1177.16 653.699,1182.67 656.678,1188.25 659.657,1193.87 662.635,1199.53 665.614,1205.22 668.592,1210.93 671.571,1216.65 674.55,1222.36 677.528,1228.07 680.507,1233.75 683.486,1239.39 686.464,1244.99 689.443,1250.51 692.421,1255.93 695.4,1261.24 698.379,1266.43 701.357,1271.49 704.336,1276.39 707.314,1281.15 710.293,1285.75 713.272,1290.19 716.25,1294.48 719.229,1298.6 722.208,1302.57 725.186,1306.4 728.165,1310.09 731.143,1313.64 734.122,1317.08 737.101,1320.39 740.079,1323.58 743.058,1326.65 746.036,1329.6 749.015,1332.45 751.994,1335.19 754.972,1337.82 757.951,1340.35 760.93,1342.79 763.908,1345.13 766.887,1347.38 769.865,1349.55 772.844,1351.63 775.823,1353.62 778.801,1355.54 781.78,1357.39 784.758,1359.16 787.737,1360.86 790.716,1362.5 793.694,1364.07 796.673,1365.58 799.651,1367.03 802.63,1368.42 805.609,1369.76 808.587,1371.05 811.566,1372.28 814.545,1373.46 817.523,1374.6 820.502,1375.69 823.48,1376.74 826.459,1377.75 829.438,1378.72 832.416,1379.65 835.395,1380.54 838.373,1381.39 841.352,1382.21 844.331,1382.98 847.309,1383.73 850.288,1384.43 853.267,1385.11 856.245,1385.75 859.224,1386.36 862.202,1386.94 865.181,1387.5 868.16,1388.02 871.138,1388.53 874.117,1389.01 877.095,1389.46 880.074,1389.89 883.053,1390.31 886.031,1390.7 889.01,1391.07 891.988,1391.43 894.967,1391.77 897.946,1392.09 900.924,1392.4 903.903,1392.69 906.882,1392.97 909.86,1393.23 912.839,1393.49 915.817,1393.73 918.796,1393.96 921.775,1394.18 924.753,1394.4 927.732,1394.6 930.71,1394.8 933.689,1394.99 936.668,1395.18 939.646,1395.36 942.625,1395.54 945.604,1395.71 948.582,1395.88 951.561,1396.05 954.539,1396.22 957.518,1396.38 960.497,1396.55 963.475,1396.71 966.454,1396.87 969.432,1397.04 972.411,1397.2 975.39,1397.37 978.368,1397.53 981.347,1397.69 984.325,1397.85 987.304,1398.01 990.283,1398.17 993.261,1398.32 996.24,1398.48 999.219,1398.63 1002.2,1398.78 1005.18,1398.93 1008.15,1399.08 1011.13,1399.22 1014.11,1399.37 1017.09,1399.51 1020.07,1399.65 1023.05,1399.78 1026.03,1399.92 1029,1400.05 1031.98,1400.18 1034.96,1400.3 1037.94,1400.42 1040.92,1400.53 1043.9,1400.65 1046.88,1400.75 1049.85,1400.86 1052.83,1400.96 1055.81,1401.06 1058.79,1401.15 1061.77,1401.24 1064.75,1401.33 1067.73,1401.41 1070.71,1401.5 1073.68,1401.58 1076.66,1401.65 1079.64,1401.72 1082.62,1401.8 1085.6,1401.86 1088.58,1401.93 1091.56,1401.99 1094.53,1402.05 1097.51,1402.11 1100.49,1402.17 1103.47,1402.22 1106.45,1402.28 1109.43,1402.33 1112.41,1402.38 1115.38,1402.42 1118.36,1402.47 1121.34,1402.52 1124.32,1402.56 1127.3,1402.6 1130.28,1402.64 1133.26,1402.68 1136.23,1402.72 1139.21,1402.75 1142.19,1402.79 1145.17,1402.82 1148.15,1402.85 1151.13,1402.89 1154.11,1402.92 1157.09,1402.95 1160.06,1402.97 1163.04,1403 1166.02,1403.03 1169,1403.05 1171.98,1403.08 1174.96,1403.1 1177.94,1403.12 1180.91,1403.14 1183.89,1403.16 1186.87,1403.19 1189.85,1403.2 1192.83,1403.22 1195.81,1403.24 1198.79,1403.26 1201.76,1403.28 1204.74,1403.29 1207.72,1403.31 1210.7,1403.32 1213.68,1403.34 1216.66,1403.35 1219.64,1403.37 1222.61,1403.38 1225.59,1403.39 1228.57,1403.41 1231.55,1403.42 1234.53,1403.43 1237.51,1403.44 1240.49,1403.45 1243.46,1403.46 1246.44,1403.48 1249.42,1403.49 1252.4,1403.5 1255.38,1403.51 1258.36,1403.52 1261.34,1403.53 1264.32,1403.54 1267.29,1403.55 1270.27,1403.56 1273.25,1403.57 1276.23,1403.59 1279.21,1403.6 1282.19,1403.61 1285.17,1403.62 1288.14,1403.63 1291.12,1403.64 1294.1,1403.65 1297.08,1403.66 1300.06,1403.67 1303.04,1403.68 1306.02,1403.69 1308.99,1403.71 1311.97,1403.72 1314.95,1403.73 1317.93,1403.74 1320.91,1403.75 1323.89,1403.76 1326.87,1403.77 1329.84,1403.78 1332.82,1403.79 1335.8,1403.8 1338.78,1403.81 1341.76,1403.82 1344.74,1403.83 1347.72,1403.84 1350.69,1403.84 1353.67,1403.85 1356.65,1403.86 1359.63,1403.87 1362.61,1403.88 1365.59,1403.88 1368.57,1403.89 1371.55,1403.9 1374.52,1403.9 1377.5,1403.91 1380.48,1403.92 1383.46,1403.92 1386.44,1403.93 1389.42,1403.93 1392.4,1403.94 1395.37,1403.94 1398.35,1403.95 1401.33,1403.95 1404.31,1403.96 1407.29,1403.96 1410.27,1403.97 1413.25,1403.97 1416.22,1403.98 1419.2,1403.98 1422.18,1403.98 1425.16,1403.99 1428.14,1403.99 1431.12,1403.99 1434.1,1404 1437.07,1404 1440.05,1404 1443.03,1404 1446.01,1404.01 1448.99,1404.01 1451.97,1404.01 1454.95,1404.01 1457.92,1404.02 1460.9,1404.02 1463.88,1404.02 1466.86,1404.02 1469.84,1404.02 1472.82,1404.03 1475.8,1404.03 1478.78,1404.03 1481.75,1404.03 1484.73,1404.03 1487.71,1404.04 1490.69,1404.04 1493.67,1404.04 1496.65,1404.04 1499.63,1404.04 1502.6,1404.04 1505.58,1404.05 1508.56,1404.05 1511.54,1404.05 1514.52,1404.05 1517.5,1404.05 1520.48,1404.05 1523.45,1404.06 1526.43,1404.06 1529.41,1404.06 1532.39,1404.06 1535.37,1404.06 1538.35,1404.06 1541.33,1404.07 1544.3,1404.07 1547.28,1404.07 1550.26,1404.07 1553.24,1404.07 1556.22,1404.07 1559.2,1404.08 1562.18,1404.08 1565.16,1404.08 1568.13,1404.08 1571.11,1404.08 1574.09,1404.08 1577.07,1404.09 1580.05,1404.09 1583.03,1404.09 1586.01,1404.09 1588.98,1404.09 1591.96,1404.09 1594.94,1404.09 1597.92,1404.1 1600.9,1404.1 1603.88,1404.1 1606.86,1404.1 1609.83,1404.1 1612.81,1404.1 1615.79,1404.1 1618.77,1404.1 1621.75,1404.11 1624.73,1404.11 1627.71,1404.11 1630.68,1404.11 1633.66,1404.11 1636.64,1404.11 1639.62,1404.11 1642.6,1404.11 1645.58,1404.12 1648.56,1404.12 1651.53,1404.12 1654.51,1404.12 1657.49,1404.12 1660.47,1404.12 1663.45,1404.12 1666.43,1404.12 1669.41,1404.12 1672.39,1404.12 1675.36,1404.13 1678.34,1404.13 1681.32,1404.13 1684.3,1404.13 1687.28,1404.13 1690.26,1404.13 1693.24,1404.13 1696.21,1404.13 1699.19,1404.13 1702.17,1404.13 1705.15,1404.13 1708.13,1404.13 1711.11,1404.14 1714.09,1404.14 1717.06,1404.14 1720.04,1404.14 1723.02,1404.14 1726,1404.14 1728.98,1404.14 1731.96,1404.14 1734.94,1404.14 1737.91,1404.14 1740.89,1404.14 1743.87,1404.14 1746.85,1404.14 1749.83,1404.14 1752.81,1404.14 1755.79,1404.15 1758.76,1404.15 1761.74,1404.15 1764.72,1404.15 1767.7,1404.15 1770.68,1404.15 1773.66,1404.15 1776.64,1404.15 1779.62,1404.15 1782.59,1404.15 1785.57,1404.15 1788.55,1404.15 1791.53,1404.15 1794.51,1404.15 1797.49,1404.15 1800.47,1404.15 1803.44,1404.15 1806.42,1404.15 1809.4,1404.15 1812.38,1404.15 1815.36,1404.15 1818.34,1404.15 1821.32,1404.15 1824.29,1404.16 1827.27,1404.16 1830.25,1404.16 1833.23,1404.16 1836.21,1404.16 1839.19,1404.16 1842.17,1404.16 1845.14,1404.16 1848.12,1404.16 1851.1,1404.16 1854.08,1404.16 1857.06,1404.16 1860.04,1404.16 1863.02,1404.16 1866,1404.16 1868.97,1404.16 1871.95,1404.16 1874.93,1404.16 1877.91,1404.16 1880.89,1404.16 1883.87,1404.16 1886.85,1404.16 1889.82,1404.16 1892.8,1404.16 1895.78,1404.16 1898.76,1404.16 1901.74,1404.16 1904.72,1404.16 1907.7,1404.16 1910.67,1404.16 1913.65,1404.16 1916.63,1404.16 1919.61,1404.16 1922.59,1404.16 1925.57,1404.16 1928.55,1404.16 1931.52,1404.16 1934.5,1404.16 1937.48,1404.17 1940.46,1404.17 1943.44,1404.17 1946.42,1404.17 1949.4,1404.17 1952.37,1404.17 1955.35,1404.17 1958.33,1404.17 1961.31,1404.17 1964.29,1404.17 1967.27,1404.17 1970.25,1404.17 1973.23,1404.17 1976.2,1404.17 1979.18,1404.17 1982.16,1404.17 1985.14,1404.17 1988.12,1404.17 1991.1,1404.17 1994.08,1404.17 1997.05,1404.17 2000.03,1404.17 2003.01,1404.17 2005.99,1404.17 2008.97,1404.17 2011.95,1404.17 2014.93,1404.17 2017.9,1404.17 2020.88,1404.17 2023.86,1404.17 2026.84,1404.17 2029.82,1404.17 2032.8,1404.17 2035.78,1404.17 2038.75,1404.17 2041.73,1404.17 2044.71,1404.17 2047.69,1404.17 2050.67,1404.17 2053.65,1404.17 2056.63,1404.17 2059.6,1404.17 2062.58,1404.17 2065.56,1404.17 2068.54,1404.17 2071.52,1404.17 2074.5,1404.17 2077.48,1404.17 2080.46,1404.17 2083.43,1404.17 2086.41,1404.17 2089.39,1404.17 2092.37,1404.17 2095.35,1404.17 2098.33,1404.17 2101.31,1404.17 2104.28,1404.17 2107.26,1404.17 2110.24,1404.17 2113.22,1404.17 2116.2,1404.17 2119.18,1404.17 2122.16,1404.17 2125.13,1404.17 2128.11,1404.17 2131.09,1404.17 2134.07,1404.17 2137.05,1404.17 2140.03,1404.17 2143.01,1404.17 2145.98,1404.17 2148.96,1404.17 2151.94,1404.17 2154.92,1404.17 2157.9,1404.17 2160.88,1404.17 2163.86,1404.17 2166.83,1404.17 2169.81,1404.17 2172.79,1404.17 2175.77,1404.17 2178.75,1404.17 2181.73,1404.17 2184.71,1404.17 2187.69,1404.17 2190.66,1404.17 2193.64,1404.17 2196.62,1404.17 2199.6,1404.17 2202.58,1404.17 2205.56,1404.17 2208.54,1404.17 2211.51,1404.17 2214.49,1404.17 2217.47,1404.17 2220.45,1404.17 2223.43,1404.17 2226.41,1404.17 2229.39,1404.17 2232.36,1404.17 2235.34,1404.17 2238.32,1404.17 2241.3,1404.17 2244.28,1404.17 2247.26,1404.17 2250.24,1404.17 2253.21,1404.17 2256.19,1404.17 2259.17,1404.17 2262.15,1404.17 2265.13,1404.17 2268.11,1404.18 2271.09,1404.18 2274.07,1404.18 2277.04,1404.18 2280.02,1404.18 2283,1404.18 2285.98,1404.18 2288.96,1404.18 2291.94,1404.18 2294.92,1404.18 2297.89,1404.18 2300.87,1404.18 2303.85,1404.18 2306.83,1404.18 2309.81,1404.18 2312.79,1404.18 2315.77,1404.18 2318.74,1404.18 2321.72,1404.18 2324.7,1404.18 2327.68,1404.18 2330.66,1404.18 2333.64,1404.18 2336.62,1404.18 2339.59,1404.18 2342.57,1404.18 2345.55,1404.18 2348.53,1404.18 2351.51,1404.18 2354.49,1404.18 2357.47,1404.18 2360.44,1404.18 2363.42,1404.18 2366.4,1404.18 2369.38,1404.18 2372.36,1404.18 2375.34,1404.18 2378.32,1404.18 2381.3,1404.18 2384.27,1404.18 2387.25,1404.18 2390.23,1404.18 2393.21,1404.18 2396.19,1404.18 2399.17,1404.18 2402.15,1404.18 2405.12,1404.18 2408.1,1404.18 2411.08,1404.18 2414.06,1404.18 2417.04,1404.18 2420.02,1404.18 2423,1404.18 2425.97,1404.18 2428.95,1404.18 2431.93,1404.18 2434.91,1404.18 2437.89,1404.18 2440.87,1404.18 2443.85,1404.18 2446.82,1404.18 2449.8,1404.18 2452.78,1404.18 2455.76,1404.18 2458.74,1404.18 2461.72,1404.18 2464.7,1404.18 2467.67,1404.18 2470.65,1404.18 2473.63,1404.18 2476.61,1404.18 2479.59,1404.18 2482.57,1404.18 2485.55,1404.18 2488.53,1404.18 2491.5,1404.18 2494.48,1404.18 2497.46,1404.18 2500.44,1404.18 2503.42,1404.18 2506.4,1404.18 2509.38,1404.18 2512.35,1404.18 2515.33,1404.18 2518.31,1404.18 2521.29,1404.18 2524.27,1404.18 2527.25,1404.18 2530.23,1404.18 2533.2,1404.18 2536.18,1404.18 2539.16,1404.18 2542.14,1404.18 2545.12,1404.18 2548.1,1404.18 2551.08,1404.18 2554.05,1404.18 2557.03,1404.18 2560.01,1404.18 2562.99,1404.18 2565.97,1404.18 2568.95,1404.18 2571.93,1404.18 2574.9,1404.18 2577.88,1404.18 2580.86,1404.18 2583.84,1404.18 2586.82,1404.18 2589.8,1404.18 2592.78,1404.18 2595.76,1404.18 2598.73,1404.18 2601.71,1404.18 2604.69,1404.18 2607.67,1404.18 2610.65,1404.18 2613.63,1404.18 2616.61,1404.18 2619.58,1404.18 2622.56,1404.18 2625.54,1404.18 2628.52,1404.18 2631.5,1404.18 2634.48,1404.18 2637.46,1404.18 2640.43,1404.18 2643.41,1404.18 2646.39,1404.18 2649.37,1404.18 2652.35,1404.18 2655.33,1404.18 2658.31,1404.18 2661.28,1404.18 2664.26,1404.18 2667.24,1404.18 2670.22,1404.18 2673.2,1404.18 2676.18,1404.18 2679.16,1404.18 2682.14,1404.18 2685.11,1404.18 2688.09,1404.18 2691.07,1404.18 2694.05,1404.18 2697.03,1404.18 2700.01,1404.18 2702.99,1404.18 2705.96,1404.18 2708.94,1404.18 2711.92,1404.18 2714.9,1404.18 2717.88,1404.18 2720.86,1404.18 2723.84,1404.18 2726.81,1404.18 2729.79,1404.18 2732.77,1404.18 2735.75,1404.18 2738.73,1404.18 2741.71,1404.18 2744.69,1404.18 2747.66,1404.18 2750.64,1404.18 2753.62,1404.18 2756.6,1404.18 2759.58,1404.18 2762.56,1404.18 2765.54,1404.18 2768.51,1404.18 2771.49,1404.18 2774.47,1404.18 2777.45,1404.18 2780.43,1404.18 2783.41,1404.18 2786.39,1404.18 2789.37,1404.18 2792.34,1404.18 2795.32,1404.18 2798.3,1404.18 2801.28,1404.18 2804.26,1404.18 2807.24,1404.18 2810.22,1404.18 2813.19,1404.18 2816.17,1404.18 2819.15,1404.18 2822.13,1404.18 2825.11,1404.18 2828.09,1404.18 2831.07,1404.18 2834.04,1404.18 2837.02,1404.18 2840,1404.18 2842.98,1404.18 2845.96,1404.18 2848.94,1404.18 2851.92,1404.18 2854.89,1404.18 2857.87,1404.18 2860.85,1404.18 2863.83,1404.18 2866.81,1404.18 2869.79,1404.18 2872.77,1404.18 2875.74,1404.18 2878.72,1404.18 2881.7,1404.18 2884.68,1404.18 2887.66,1404.18 2890.64,1404.18 2893.62,1404.18 2896.6,1404.18 2899.57,1404.18 2902.55,1404.18 2905.53,1404.18 2908.51,1404.18 2911.49,1404.18 2914.47,1404.18 2917.45,1404.18 2920.42,1404.18 2923.4,1404.18 2926.38,1404.18 2929.36,1404.18 2932.34,1404.18 2935.32,1404.18 2938.3,1404.18 2941.27,1404.18 2944.25,1404.18 2947.23,1404.18 2950.21,1404.18 2953.19,1404.18 2956.17,1404.18 2959.15,1404.18 2962.12,1404.18 2965.1,1404.18 2968.08,1404.18 2971.06,1404.18 2974.04,1404.18 2977.02,1404.18 2980,1404.18 2982.97,1404.18 2985.95,1404.18 2988.93,1404.18 2991.91,1404.18 2994.89,1404.18 2997.87,1404.18 3000.85,1404.18 3003.83,1404.18 3006.8,1404.18 3009.78,1404.18 3012.76,1404.18 3015.74,1404.18 3018.72,1404.18 3021.7,1404.18 3024.68,1404.18 3027.65,1404.18 3030.63,1404.18 3033.61,1404.18 3036.59,1404.18 3039.57,1404.18 3042.55,1404.18 3045.53,1404.18 3048.5,1404.18 3051.48,1404.18 3054.46,1404.18 3057.44,1404.18 3060.42,1404.18 3063.4,1404.18 3066.38,1404.18 3069.35,1404.18 3072.33,1404.18 3075.31,1404.18 3078.29,1404.18 3081.27,1404.18 3084.25,1404.18 3087.23,1404.18 3090.21,1404.18 3093.18,1404.18 3096.16,1404.18 3099.14,1404.18 3102.12,1404.18 3105.1,1404.18 3108.08,1404.18 3111.06,1404.18 3114.03,1404.18 3117.01,1404.18 3119.99,1404.18 3122.97,1404.18 3125.95,1404.18 3128.93,1404.18 3131.91,1404.18 3134.88,1404.18 3137.86,1404.18 3140.84,1404.18 3143.82,1404.18 3146.8,1404.18 3149.78,1404.18 3152.76,1404.18 "/>
<polyline clip-path="url(#clip061)" style="stroke:#e26f46; stroke-linecap:round; stroke-linejoin:round; stroke-width:8; stroke-opacity:1; fill:none" points="177.121,1390.87 180.1,1390.31 183.079,1389.73 186.057,1389.13 189.036,1388.5 192.014,1387.85 194.993,1387.17 197.972,1386.46 200.95,1385.72 203.929,1384.95 206.907,1384.16 209.886,1383.32 212.865,1382.46 215.843,1381.56 218.822,1380.62 221.801,1379.64 224.779,1378.63 227.758,1377.57 230.736,1376.47 233.715,1375.33 236.694,1374.14 239.672,1372.9 242.651,1371.62 245.629,1370.28 248.608,1368.89 251.587,1367.44 254.565,1365.94 257.544,1364.37 260.522,1362.75 263.501,1361.06 266.48,1359.3 269.458,1357.48 272.437,1355.59 275.416,1353.62 278.394,1351.57 281.373,1349.45 284.351,1347.24 287.33,1344.96 290.309,1342.59 293.287,1340.13 296.266,1337.6 299.244,1334.98 302.223,1332.28 305.202,1329.5 308.18,1326.65 311.159,1323.71 314.138,1320.7 317.116,1317.61 320.095,1314.45 323.073,1311.19 326.052,1307.86 329.031,1304.44 332.009,1300.93 334.988,1297.34 337.966,1293.65 340.945,1289.88 343.924,1286.01 346.902,1282.05 349.881,1277.99 352.859,1273.82 355.838,1269.49 358.817,1264.93 361.795,1260.09 364.774,1254.92 367.753,1249.4 370.731,1243.49 373.71,1237.17 376.688,1230.42 379.667,1223.11 382.646,1215.15 385.624,1206.89 388.603,1198.57 391.581,1190.41 394.56,1182.51 397.539,1174.95 400.517,1167.69 403.496,1160.7 406.475,1154.18 409.453,1147.93 412.432,1141.64 415.41,1135.02 418.389,1127.8 421.368,1119.76 424.346,1110.67 427.325,1100.36 430.303,1088.22 433.282,1074.48 436.261,1060.25 439.239,1046.35 442.218,1033.22 445.197,1021.01 448.175,1009.53 451.154,998.263 454.132,986.515 457.111,974.453 460.09,962.161 463.068,949.678 466.047,937.054 469.025,924.36 472.004,911.68 474.983,899.072 477.961,886.386 480.94,873.94 483.918,862.072 486.897,851.012 489.876,840.889 492.854,831.728 495.833,823.451 498.812,815.874 501.79,808.712 504.769,801.575 507.747,794.419 510.726,786.564 513.705,776.652 516.683,764.231 519.662,749.776 522.64,734.684 525.619,721.218 528.598,709.463 531.576,699.153 534.555,690.61 537.534,683.699 540.512,677.835 543.491,671.98 546.469,665.578 549.448,658.804 552.427,651.64 555.405,644.076 558.384,636.109 561.362,627.744 564.341,619.029 567.32,610.062 570.298,600.861 573.277,591.459 576.255,581.906 579.234,572.268 582.213,562.627 585.191,553.084 588.17,543.754 591.149,534.77 594.127,526.28 597.106,518.452 600.084,511.467 603.063,505.417 606.042,500.033 609.02,495.198 611.999,490.829 614.977,486.856 617.956,483.226 620.935,479.9 623.913,476.856 626.892,474.067 629.871,471.424 632.849,468.819 635.828,466.171 638.806,463.432 641.785,460.581 644.764,457.63 647.742,454.616 650.721,451.543 653.699,448.414 656.678,445.235 659.657,442.017 662.635,438.769 665.614,435.499 668.592,432.219 671.571,428.937 674.55,425.666 677.528,422.415 680.507,419.196 683.486,416.02 686.464,412.901 689.443,409.867 692.421,406.935 695.4,404.121 698.379,401.438 701.357,398.897 704.336,396.507 707.314,394.274 710.293,392.203 713.272,390.295 716.25,388.552 719.229,386.97 722.208,385.545 725.186,384.271 728.165,383.139 731.143,382.138 734.122,381.261 737.101,380.512 740.079,379.887 743.058,379.38 746.036,378.989 749.015,378.71 751.994,378.538 754.972,378.471 757.951,378.505 760.93,378.635 763.908,378.859 766.887,379.174 769.865,379.574 772.844,380.058 775.823,380.622 778.801,381.263 781.78,381.977 784.758,382.762 787.737,383.614 790.716,384.53 793.694,385.509 796.673,386.548 799.651,387.643 802.63,388.793 805.609,389.995 808.587,391.247 811.566,392.547 814.545,393.893 817.523,395.282 820.502,396.713 823.48,398.183 826.459,399.692 829.438,401.236 832.416,402.814 835.395,404.426 838.373,406.072 841.352,407.753 844.331,409.468 847.309,411.214 850.288,412.99 853.267,414.794 856.245,416.626 859.224,418.483 862.202,420.365 865.181,422.27 868.16,424.197 871.138,426.145 874.117,428.111 877.095,430.096 880.074,432.098 883.053,434.115 886.031,436.147 889.01,438.192 891.988,440.25 894.967,442.32 897.946,444.402 900.924,446.495 903.903,448.597 906.882,450.708 909.86,452.826 912.839,454.951 915.817,457.082 918.796,459.218 921.775,461.358 924.753,463.501 927.732,465.647 930.71,467.794 933.689,469.942 936.668,472.091 939.646,474.239 942.625,476.386 945.604,478.531 948.582,480.674 951.561,482.814 954.539,484.951 957.518,487.084 960.497,489.212 963.475,491.336 966.454,493.454 969.432,495.567 972.411,497.674 975.39,499.777 978.368,501.875 981.347,503.969 984.325,506.059 987.304,508.145 990.283,510.227 993.261,512.305 996.24,514.38 999.219,516.451 1002.2,518.519 1005.18,520.583 1008.15,522.644 1011.13,524.702 1014.11,526.757 1017.09,528.809 1020.07,530.858 1023.05,532.904 1026.03,534.948 1029,536.989 1031.98,539.03 1034.96,541.069 1037.94,543.107 1040.92,545.144 1043.9,547.18 1046.88,549.214 1049.85,551.246 1052.83,553.277 1055.81,555.306 1058.79,557.334 1061.77,559.36 1064.75,561.383 1067.73,563.405 1070.71,565.425 1073.68,567.443 1076.66,569.458 1079.64,571.471 1082.62,573.482 1085.6,575.49 1088.58,577.496 1091.56,579.499 1094.53,581.499 1097.51,583.497 1100.49,585.491 1103.47,587.483 1106.45,589.471 1109.43,591.457 1112.41,593.439 1115.38,595.417 1118.36,597.392 1121.34,599.364 1124.32,601.332 1127.3,603.297 1130.28,605.259 1133.26,607.217 1136.23,609.171 1139.21,611.122 1142.19,613.069 1145.17,615.013 1148.15,616.953 1151.13,618.889 1154.11,620.822 1157.09,622.75 1160.06,624.675 1163.04,626.597 1166.02,628.514 1169,630.427 1171.98,632.337 1174.96,634.243 1177.94,636.145 1180.91,638.042 1183.89,639.936 1186.87,641.826 1189.85,643.712 1192.83,645.594 1195.81,647.471 1198.79,649.345 1201.76,651.215 1204.74,653.08 1207.72,654.942 1210.7,656.799 1213.68,658.653 1216.66,660.502 1219.64,662.347 1222.61,664.188 1225.59,666.024 1228.57,667.857 1231.55,669.685 1234.53,671.509 1237.51,673.328 1240.49,675.143 1243.46,676.954 1246.44,678.76 1249.42,680.562 1252.4,682.36 1255.38,684.153 1258.36,685.941 1261.34,687.726 1264.32,689.506 1267.29,691.281 1270.27,693.052 1273.25,694.818 1276.23,696.58 1279.21,698.338 1282.19,700.091 1285.17,701.84 1288.14,703.584 1291.12,705.324 1294.1,707.06 1297.08,708.792 1300.06,710.519 1303.04,712.241 1306.02,713.96 1308.99,715.674 1311.97,717.384 1314.95,719.09 1317.93,720.792 1320.91,722.49 1323.89,724.183 1326.87,725.873 1329.84,727.558 1332.82,729.239 1335.8,730.916 1338.78,732.589 1341.76,734.258 1344.74,735.924 1347.72,737.585 1350.69,739.242 1353.67,740.895 1356.65,742.545 1359.63,744.191 1362.61,745.832 1365.59,747.471 1368.57,749.105 1371.55,750.735 1374.52,752.362 1377.5,753.985 1380.48,755.604 1383.46,757.219 1386.44,758.83 1389.42,760.438 1392.4,762.042 1395.37,763.642 1398.35,765.238 1401.33,766.83 1404.31,768.418 1407.29,770.003 1410.27,771.584 1413.25,773.161 1416.22,774.734 1419.2,776.303 1422.18,777.869 1425.16,779.431 1428.14,780.989 1431.12,782.543 1434.1,784.094 1437.07,785.641 1440.05,787.184 1443.03,788.723 1446.01,790.259 1448.99,791.791 1451.97,793.319 1454.95,794.843 1457.92,796.364 1460.9,797.881 1463.88,799.394 1466.86,800.904 1469.84,802.41 1472.82,803.912 1475.8,805.411 1478.78,806.905 1481.75,808.396 1484.73,809.884 1487.71,811.367 1490.69,812.847 1493.67,814.323 1496.65,815.796 1499.63,817.265 1502.6,818.73 1505.58,820.191 1508.56,821.649 1511.54,823.103 1514.52,824.554 1517.5,826.001 1520.48,827.444 1523.45,828.884 1526.43,830.32 1529.41,831.753 1532.39,833.182 1535.37,834.607 1538.35,836.029 1541.33,837.448 1544.3,838.862 1547.28,840.274 1550.26,841.681 1553.24,843.086 1556.22,844.487 1559.2,845.884 1562.18,847.278 1565.16,848.668 1568.13,850.055 1571.11,851.438 1574.09,852.818 1577.07,854.195 1580.05,855.568 1583.03,856.938 1586.01,858.304 1588.98,859.667 1591.96,861.026 1594.94,862.382 1597.92,863.735 1600.9,865.084 1603.88,866.431 1606.86,867.773 1609.83,869.113 1612.81,870.449 1615.79,871.781 1618.77,873.111 1621.75,874.437 1624.73,875.759 1627.71,877.079 1630.68,878.395 1633.66,879.708 1636.64,881.018 1639.62,882.324 1642.6,883.627 1645.58,884.927 1648.56,886.224 1651.53,887.517 1654.51,888.808 1657.49,890.095 1660.47,891.379 1663.45,892.659 1666.43,893.937 1669.41,895.211 1672.39,896.482 1675.36,897.75 1678.34,899.015 1681.32,900.277 1684.3,901.535 1687.28,902.791 1690.26,904.043 1693.24,905.292 1696.21,906.538 1699.19,907.781 1702.17,909.021 1705.15,910.258 1708.13,911.492 1711.11,912.723 1714.09,913.95 1717.06,915.175 1720.04,916.396 1723.02,917.615 1726,918.83 1728.98,920.043 1731.96,921.252 1734.94,922.458 1737.91,923.662 1740.89,924.862 1743.87,926.06 1746.85,927.254 1749.83,928.445 1752.81,929.634 1755.79,930.819 1758.76,932.002 1761.74,933.182 1764.72,934.358 1767.7,935.532 1770.68,936.703 1773.66,937.871 1776.64,939.036 1779.62,940.198 1782.59,941.357 1785.57,942.513 1788.55,943.667 1791.53,944.817 1794.51,945.965 1797.49,947.11 1800.47,948.252 1803.44,949.391 1806.42,950.527 1809.4,951.66 1812.38,952.791 1815.36,953.919 1818.34,955.044 1821.32,956.166 1824.29,957.285 1827.27,958.402 1830.25,959.516 1833.23,960.627 1836.21,961.735 1839.19,962.841 1842.17,963.943 1845.14,965.043 1848.12,966.141 1851.1,967.235 1854.08,968.327 1857.06,969.416 1860.04,970.502 1863.02,971.586 1866,972.667 1868.97,973.745 1871.95,974.821 1874.93,975.894 1877.91,976.964 1880.89,978.031 1883.87,979.096 1886.85,980.158 1889.82,981.218 1892.8,982.275 1895.78,983.329 1898.76,984.381 1901.74,985.43 1904.72,986.476 1907.7,987.52 1910.67,988.561 1913.65,989.6 1916.63,990.636 1919.61,991.669 1922.59,992.7 1925.57,993.728 1928.55,994.754 1931.52,995.777 1934.5,996.797 1937.48,997.815 1940.46,998.831 1943.44,999.844 1946.42,1000.85 1949.4,1001.86 1952.37,1002.87 1955.35,1003.87 1958.33,1004.87 1961.31,1005.87 1964.29,1006.86 1967.27,1007.86 1970.25,1008.85 1973.23,1009.84 1976.2,1010.82 1979.18,1011.8 1982.16,1012.78 1985.14,1013.76 1988.12,1014.74 1991.1,1015.71 1994.08,1016.68 1997.05,1017.65 2000.03,1018.62 2003.01,1019.58 2005.99,1020.54 2008.97,1021.5 2011.95,1022.46 2014.93,1023.41 2017.9,1024.36 2020.88,1025.31 2023.86,1026.26 2026.84,1027.2 2029.82,1028.14 2032.8,1029.08 2035.78,1030.02 2038.75,1030.96 2041.73,1031.89 2044.71,1032.82 2047.69,1033.75 2050.67,1034.67 2053.65,1035.6 2056.63,1036.52 2059.6,1037.44 2062.58,1038.35 2065.56,1039.27 2068.54,1040.18 2071.52,1041.09 2074.5,1042 2077.48,1042.9 2080.46,1043.8 2083.43,1044.7 2086.41,1045.6 2089.39,1046.5 2092.37,1047.39 2095.35,1048.28 2098.33,1049.17 2101.31,1050.06 2104.28,1050.95 2107.26,1051.83 2110.24,1052.71 2113.22,1053.59 2116.2,1054.46 2119.18,1055.34 2122.16,1056.21 2125.13,1057.08 2128.11,1057.95 2131.09,1058.81 2134.07,1059.68 2137.05,1060.54 2140.03,1061.4 2143.01,1062.25 2145.98,1063.11 2148.96,1063.96 2151.94,1064.81 2154.92,1065.66 2157.9,1066.5 2160.88,1067.35 2163.86,1068.19 2166.83,1069.03 2169.81,1069.87 2172.79,1070.7 2175.77,1071.54 2178.75,1072.37 2181.73,1073.2 2184.71,1074.02 2187.69,1074.85 2190.66,1075.67 2193.64,1076.49 2196.62,1077.31 2199.6,1078.13 2202.58,1078.94 2205.56,1079.76 2208.54,1080.57 2211.51,1081.38 2214.49,1082.18 2217.47,1082.99 2220.45,1083.79 2223.43,1084.59 2226.41,1085.39 2229.39,1086.19 2232.36,1086.98 2235.34,1087.77 2238.32,1088.56 2241.3,1089.35 2244.28,1090.14 2247.26,1090.92 2250.24,1091.71 2253.21,1092.49 2256.19,1093.27 2259.17,1094.04 2262.15,1094.82 2265.13,1095.59 2268.11,1096.36 2271.09,1097.13 2274.07,1097.9 2277.04,1098.67 2280.02,1099.43 2283,1100.19 2285.98,1100.95 2288.96,1101.71 2291.94,1102.46 2294.92,1103.22 2297.89,1103.97 2300.87,1104.72 2303.85,1105.47 2306.83,1106.22 2309.81,1106.96 2312.79,1107.7 2315.77,1108.44 2318.74,1109.18 2321.72,1109.92 2324.7,1110.66 2327.68,1111.39 2330.66,1112.12 2333.64,1112.85 2336.62,1113.58 2339.59,1114.31 2342.57,1115.03 2345.55,1115.75 2348.53,1116.47 2351.51,1117.19 2354.49,1117.91 2357.47,1118.63 2360.44,1119.34 2363.42,1120.05 2366.4,1120.76 2369.38,1121.47 2372.36,1122.18 2375.34,1122.88 2378.32,1123.58 2381.3,1124.29 2384.27,1124.99 2387.25,1125.68 2390.23,1126.38 2393.21,1127.07 2396.19,1127.77 2399.17,1128.46 2402.15,1129.15 2405.12,1129.83 2408.1,1130.52 2411.08,1131.2 2414.06,1131.89 2417.04,1132.57 2420.02,1133.25 2423,1133.92 2425.97,1134.6 2428.95,1135.27 2431.93,1135.94 2434.91,1136.61 2437.89,1137.28 2440.87,1137.95 2443.85,1138.62 2446.82,1139.28 2449.8,1139.94 2452.78,1140.6 2455.76,1141.26 2458.74,1141.92 2461.72,1142.57 2464.7,1143.23 2467.67,1143.88 2470.65,1144.53 2473.63,1145.18 2476.61,1145.83 2479.59,1146.47 2482.57,1147.12 2485.55,1147.76 2488.53,1148.4 2491.5,1149.04 2494.48,1149.68 2497.46,1150.31 2500.44,1150.95 2503.42,1151.58 2506.4,1152.21 2509.38,1152.84 2512.35,1153.47 2515.33,1154.1 2518.31,1154.72 2521.29,1155.34 2524.27,1155.97 2527.25,1156.59 2530.23,1157.2 2533.2,1157.82 2536.18,1158.44 2539.16,1159.05 2542.14,1159.66 2545.12,1160.28 2548.1,1160.89 2551.08,1161.49 2554.05,1162.1 2557.03,1162.7 2560.01,1163.31 2562.99,1163.91 2565.97,1164.51 2568.95,1165.11 2571.93,1165.71 2574.9,1166.3 2577.88,1166.9 2580.86,1167.49 2583.84,1168.08 2586.82,1168.67 2589.8,1169.26 2592.78,1169.85 2595.76,1170.43 2598.73,1171.02 2601.71,1171.6 2604.69,1172.18 2607.67,1172.76 2610.65,1173.34 2613.63,1173.92 2616.61,1174.49 2619.58,1175.07 2622.56,1175.64 2625.54,1176.21 2628.52,1176.78 2631.5,1177.35 2634.48,1177.92 2637.46,1178.48 2640.43,1179.05 2643.41,1179.61 2646.39,1180.17 2649.37,1180.73 2652.35,1181.29 2655.33,1181.84 2658.31,1182.4 2661.28,1182.95 2664.26,1183.51 2667.24,1184.06 2670.22,1184.61 2673.2,1185.16 2676.18,1185.71 2679.16,1186.25 2682.14,1186.8 2685.11,1187.34 2688.09,1187.88 2691.07,1188.42 2694.05,1188.96 2697.03,1189.5 2700.01,1190.04 2702.99,1190.57 2705.96,1191.11 2708.94,1191.64 2711.92,1192.17 2714.9,1192.7 2717.88,1193.23 2720.86,1193.75 2723.84,1194.28 2726.81,1194.8 2729.79,1195.33 2732.77,1195.85 2735.75,1196.37 2738.73,1196.89 2741.71,1197.41 2744.69,1197.93 2747.66,1198.44 2750.64,1198.95 2753.62,1199.47 2756.6,1199.98 2759.58,1200.49 2762.56,1201 2765.54,1201.51 2768.51,1202.01 2771.49,1202.52 2774.47,1203.02 2777.45,1203.53 2780.43,1204.03 2783.41,1204.53 2786.39,1205.03 2789.37,1205.52 2792.34,1206.02 2795.32,1206.52 2798.3,1207.01 2801.28,1207.5 2804.26,1207.99 2807.24,1208.48 2810.22,1208.97 2813.19,1209.46 2816.17,1209.95 2819.15,1210.43 2822.13,1210.92 2825.11,1211.4 2828.09,1211.88 2831.07,1212.36 2834.04,1212.84 2837.02,1213.32 2840,1213.8 2842.98,1214.27 2845.96,1214.75 2848.94,1215.22 2851.92,1215.69 2854.89,1216.16 2857.87,1216.63 2860.85,1217.1 2863.83,1217.57 2866.81,1218.04 2869.79,1218.5 2872.77,1218.97 2875.74,1219.43 2878.72,1219.89 2881.7,1220.35 2884.68,1220.81 2887.66,1221.27 2890.64,1221.73 2893.62,1222.18 2896.6,1222.64 2899.57,1223.09 2902.55,1223.54 2905.53,1224 2908.51,1224.45 2911.49,1224.9 2914.47,1225.34 2917.45,1225.79 2920.42,1226.24 2923.4,1226.68 2926.38,1227.12 2929.36,1227.57 2932.34,1228.01 2935.32,1228.45 2938.3,1228.89 2941.27,1229.33 2944.25,1229.76 2947.23,1230.2 2950.21,1230.63 2953.19,1231.07 2956.17,1231.5 2959.15,1231.93 2962.12,1232.36 2965.1,1232.79 2968.08,1233.22 2971.06,1233.65 2974.04,1234.07 2977.02,1234.5 2980,1234.92 2982.97,1235.35 2985.95,1235.77 2988.93,1236.19 2991.91,1236.61 2994.89,1237.03 2997.87,1237.45 3000.85,1237.86 3003.83,1238.28 3006.8,1238.69 3009.78,1239.11 3012.76,1239.52 3015.74,1239.93 3018.72,1240.34 3021.7,1240.75 3024.68,1241.16 3027.65,1241.57 3030.63,1241.97 3033.61,1242.38 3036.59,1242.78 3039.57,1243.19 3042.55,1243.59 3045.53,1243.99 3048.5,1244.39 3051.48,1244.79 3054.46,1245.19 3057.44,1245.58 3060.42,1245.98 3063.4,1246.38 3066.38,1246.77 3069.35,1247.16 3072.33,1247.56 3075.31,1247.95 3078.29,1248.34 3081.27,1248.73 3084.25,1249.12 3087.23,1249.5 3090.21,1249.89 3093.18,1250.28 3096.16,1250.66 3099.14,1251.04 3102.12,1251.43 3105.1,1251.81 3108.08,1252.19 3111.06,1252.57 3114.03,1252.95 3117.01,1253.33 3119.99,1253.7 3122.97,1254.08 3125.95,1254.46 3128.93,1254.83 3131.91,1255.2 3134.88,1255.58 3137.86,1255.95 3140.84,1256.32 3143.82,1256.69 3146.8,1257.06 3149.78,1257.42 3152.76,1257.79 "/>
<polyline clip-path="url(#clip061)" style="stroke:#3da44d; stroke-linecap:round; stroke-linejoin:round; stroke-width:8; stroke-opacity:1; fill:none" points="177.121,1404.18 180.1,1404.14 183.079,1404.11 186.057,1404.07 189.036,1404.03 192.014,1403.99 194.993,1403.95 197.972,1403.91 200.95,1403.86 203.929,1403.82 206.907,1403.77 209.886,1403.71 212.865,1403.66 215.843,1403.61 218.822,1403.55 221.801,1403.49 224.779,1403.43 227.758,1403.36 230.736,1403.29 233.715,1403.22 236.694,1403.15 239.672,1403.07 242.651,1402.99 245.629,1402.91 248.608,1402.82 251.587,1402.73 254.565,1402.64 257.544,1402.54 260.522,1402.44 263.501,1402.33 266.48,1402.22 269.458,1402.11 272.437,1401.99 275.416,1401.86 278.394,1401.74 281.373,1401.6 284.351,1401.46 287.33,1401.32 290.309,1401.17 293.287,1401.01 296.266,1400.84 299.244,1400.67 302.223,1400.5 305.202,1400.31 308.18,1400.12 311.159,1399.93 314.138,1399.72 317.116,1399.51 320.095,1399.29 323.073,1399.06 326.052,1398.82 329.031,1398.58 332.009,1398.32 334.988,1398.06 337.966,1397.79 340.945,1397.51 343.924,1397.22 346.902,1396.92 349.881,1396.61 352.859,1396.28 355.838,1395.95 358.817,1395.61 361.795,1395.26 364.774,1394.89 367.753,1394.51 370.731,1394.11 373.71,1393.7 376.688,1393.28 379.667,1392.83 382.646,1392.37 385.624,1391.89 388.603,1391.38 391.581,1390.86 394.56,1390.31 397.539,1389.75 400.517,1389.17 403.496,1388.57 406.475,1387.95 409.453,1387.31 412.432,1386.67 415.41,1386 418.389,1385.32 421.368,1384.62 424.346,1383.89 427.325,1383.15 430.303,1382.37 433.282,1381.56 436.261,1380.72 439.239,1379.85 442.218,1378.94 445.197,1377.99 448.175,1377.02 451.154,1376.01 454.132,1374.98 457.111,1373.92 460.09,1372.83 463.068,1371.71 466.047,1370.56 469.025,1369.37 472.004,1368.15 474.983,1366.91 477.961,1365.63 480.94,1364.31 483.918,1362.97 486.897,1361.6 489.876,1360.21 492.854,1358.79 495.833,1357.34 498.812,1355.88 501.79,1354.4 504.769,1352.9 507.747,1351.38 510.726,1349.84 513.705,1348.28 516.683,1346.7 519.662,1345.08 522.64,1343.42 525.619,1341.73 528.598,1340.01 531.576,1338.26 534.555,1336.48 537.534,1334.69 540.512,1332.88 543.491,1331.05 546.469,1329.21 549.448,1327.36 552.427,1325.48 555.405,1323.59 558.384,1321.68 561.362,1319.74 564.341,1317.79 567.32,1315.81 570.298,1313.81 573.277,1311.79 576.255,1309.74 579.234,1307.67 582.213,1305.57 585.191,1303.46 588.17,1301.32 591.149,1299.15 594.127,1296.97 597.106,1294.76 600.084,1292.54 603.063,1290.3 606.042,1288.04 609.02,1285.77 611.999,1283.49 614.977,1281.2 617.956,1278.9 620.935,1276.59 623.913,1274.28 626.892,1271.95 629.871,1269.62 632.849,1267.28 635.828,1264.94 638.806,1262.59 641.785,1260.23 644.764,1257.87 647.742,1255.49 650.721,1253.11 653.699,1250.73 656.678,1248.33 659.657,1245.93 662.635,1243.52 665.614,1241.1 668.592,1238.67 671.571,1236.23 674.55,1233.79 677.528,1231.33 680.507,1228.87 683.486,1226.4 686.464,1223.93 689.443,1221.44 692.421,1218.95 695.4,1216.45 698.379,1213.94 701.357,1211.43 704.336,1208.91 707.314,1206.39 710.293,1203.86 713.272,1201.32 716.25,1198.79 719.229,1196.24 722.208,1193.69 725.186,1191.14 728.165,1188.59 731.143,1186.03 734.122,1183.47 737.101,1180.91 740.079,1178.35 743.058,1175.79 746.036,1173.22 749.015,1170.66 751.994,1168.09 754.972,1165.52 757.951,1162.96 760.93,1160.39 763.908,1157.82 766.887,1155.26 769.865,1152.69 772.844,1150.13 775.823,1147.57 778.801,1145.01 781.78,1142.45 784.758,1139.89 787.737,1137.34 790.716,1134.78 793.694,1132.23 796.673,1129.68 799.651,1127.14 802.63,1124.6 805.609,1122.06 808.587,1119.52 811.566,1116.99 814.545,1114.46 817.523,1111.93 820.502,1109.41 823.48,1106.89 826.459,1104.37 829.438,1101.86 832.416,1099.35 835.395,1096.85 838.373,1094.35 841.352,1091.85 844.331,1089.36 847.309,1086.88 850.288,1084.39 853.267,1081.91 856.245,1079.44 859.224,1076.97 862.202,1074.51 865.181,1072.05 868.16,1069.59 871.138,1067.14 874.117,1064.7 877.095,1062.26 880.074,1059.82 883.053,1057.39 886.031,1054.97 889.01,1052.55 891.988,1050.13 894.967,1047.72 897.946,1045.32 900.924,1042.92 903.903,1040.53 906.882,1038.14 909.86,1035.75 912.839,1033.38 915.817,1031 918.796,1028.64 921.775,1026.27 924.753,1023.92 927.732,1021.57 930.71,1019.22 933.689,1016.88 936.668,1014.54 939.646,1012.21 942.625,1009.89 945.604,1007.57 948.582,1005.26 951.561,1002.95 954.539,1000.64 957.518,998.347 960.497,996.054 963.475,993.767 966.454,991.486 969.432,989.209 972.411,986.938 975.39,984.672 978.368,982.411 981.347,980.156 984.325,977.906 987.304,975.661 990.283,973.421 993.261,971.187 996.24,968.957 999.219,966.733 1002.2,964.514 1005.18,962.301 1008.15,960.092 1011.13,957.888 1014.11,955.69 1017.09,953.497 1020.07,951.309 1023.05,949.126 1026.03,946.948 1029,944.776 1031.98,942.608 1034.96,940.445 1037.94,938.288 1040.92,936.136 1043.9,933.989 1046.88,931.846 1049.85,929.709 1052.83,927.578 1055.81,925.451 1058.79,923.329 1061.77,921.212 1064.75,919.101 1067.73,916.994 1070.71,914.893 1073.68,912.796 1076.66,910.705 1079.64,908.618 1082.62,906.537 1085.6,904.461 1088.58,902.389 1091.56,900.323 1094.53,898.262 1097.51,896.206 1100.49,894.154 1103.47,892.108 1106.45,890.067 1109.43,888.031 1112.41,885.999 1115.38,883.973 1118.36,881.951 1121.34,879.935 1124.32,877.923 1127.3,875.917 1130.28,873.915 1133.26,871.918 1136.23,869.926 1139.21,867.939 1142.19,865.957 1145.17,863.979 1148.15,862.007 1151.13,860.039 1154.11,858.077 1157.09,856.119 1160.06,854.166 1163.04,852.217 1166.02,850.274 1169,848.335 1171.98,846.401 1174.96,844.472 1177.94,842.548 1180.91,840.628 1183.89,838.713 1186.87,836.803 1189.85,834.897 1192.83,832.997 1195.81,831.101 1198.79,829.209 1201.76,827.323 1204.74,825.441 1207.72,823.564 1210.7,821.691 1213.68,819.823 1216.66,817.96 1219.64,816.101 1222.61,814.247 1225.59,812.397 1228.57,810.552 1231.55,808.712 1234.53,806.876 1237.51,805.045 1240.49,803.218 1243.46,801.396 1246.44,799.579 1249.42,797.765 1252.4,795.957 1255.38,794.153 1258.36,792.353 1261.34,790.558 1264.32,788.767 1267.29,786.981 1270.27,785.199 1273.25,783.422 1276.23,781.649 1279.21,779.88 1282.19,778.116 1285.17,776.356 1288.14,774.601 1291.12,772.85 1294.1,771.103 1297.08,769.361 1300.06,767.623 1303.04,765.889 1306.02,764.159 1308.99,762.434 1311.97,760.714 1314.95,758.997 1317.93,757.285 1320.91,755.577 1323.89,753.873 1326.87,752.173 1329.84,750.478 1332.82,748.787 1335.8,747.1 1338.78,745.417 1341.76,743.738 1344.74,742.064 1347.72,740.394 1350.69,738.728 1353.67,737.066 1356.65,735.408 1359.63,733.754 1362.61,732.105 1365.59,730.459 1368.57,728.818 1371.55,727.181 1374.52,725.548 1377.5,723.918 1380.48,722.293 1383.46,720.672 1386.44,719.055 1389.42,717.442 1392.4,715.833 1395.37,714.228 1398.35,712.627 1401.33,711.03 1404.31,709.438 1407.29,707.849 1410.27,706.263 1413.25,704.682 1416.22,703.105 1419.2,701.532 1422.18,699.963 1425.16,698.397 1428.14,696.836 1431.12,695.278 1434.1,693.725 1437.07,692.175 1440.05,690.629 1443.03,689.087 1446.01,687.548 1448.99,686.014 1451.97,684.483 1454.95,682.957 1457.92,681.434 1460.9,679.915 1463.88,678.399 1466.86,676.888 1469.84,675.38 1472.82,673.876 1475.8,672.375 1478.78,670.879 1481.75,669.386 1484.73,667.897 1487.71,666.412 1490.69,664.93 1493.67,663.452 1496.65,661.978 1499.63,660.507 1502.6,659.04 1505.58,657.577 1508.56,656.117 1511.54,654.661 1514.52,653.209 1517.5,651.76 1520.48,650.315 1523.45,648.874 1526.43,647.436 1529.41,646.002 1532.39,644.571 1535.37,643.144 1538.35,641.72 1541.33,640.3 1544.3,638.884 1547.28,637.471 1550.26,636.061 1553.24,634.656 1556.22,633.253 1559.2,631.854 1562.18,630.459 1565.16,629.067 1568.13,627.679 1571.11,626.294 1574.09,624.912 1577.07,623.534 1580.05,622.159 1583.03,620.788 1586.01,619.421 1588.98,618.056 1591.96,616.695 1594.94,615.338 1597.92,613.984 1600.9,612.633 1603.88,611.285 1606.86,609.941 1609.83,608.601 1612.81,607.263 1615.79,605.929 1618.77,604.599 1621.75,603.271 1624.73,601.947 1627.71,600.627 1630.68,599.309 1633.66,597.995 1636.64,596.684 1639.62,595.377 1642.6,594.072 1645.58,592.771 1648.56,591.473 1651.53,590.179 1654.51,588.888 1657.49,587.6 1660.47,586.315 1663.45,585.033 1666.43,583.754 1669.41,582.479 1672.39,581.207 1675.36,579.938 1678.34,578.672 1681.32,577.41 1684.3,576.15 1687.28,574.894 1690.26,573.641 1693.24,572.391 1696.21,571.144 1699.19,569.9 1702.17,568.66 1705.15,567.422 1708.13,566.187 1711.11,564.956 1714.09,563.728 1717.06,562.502 1720.04,561.28 1723.02,560.061 1726,558.845 1728.98,557.632 1731.96,556.422 1734.94,555.215 1737.91,554.011 1740.89,552.81 1743.87,551.612 1746.85,550.417 1749.83,549.225 1752.81,548.036 1755.79,546.85 1758.76,545.667 1761.74,544.487 1764.72,543.309 1767.7,542.135 1770.68,540.964 1773.66,539.795 1776.64,538.63 1779.62,537.467 1782.59,536.308 1785.57,535.151 1788.55,533.997 1791.53,532.846 1794.51,531.698 1797.49,530.553 1800.47,529.41 1803.44,528.271 1806.42,527.134 1809.4,526 1812.38,524.869 1815.36,523.741 1818.34,522.616 1821.32,521.493 1824.29,520.373 1827.27,519.256 1830.25,518.142 1833.23,517.031 1836.21,515.922 1839.19,514.817 1842.17,513.713 1845.14,512.613 1848.12,511.516 1851.1,510.421 1854.08,509.329 1857.06,508.239 1860.04,507.153 1863.02,506.069 1866,504.988 1868.97,503.909 1871.95,502.833 1874.93,501.76 1877.91,500.69 1880.89,499.622 1883.87,498.557 1886.85,497.494 1889.82,496.435 1892.8,495.377 1895.78,494.323 1898.76,493.271 1901.74,492.222 1904.72,491.175 1907.7,490.131 1910.67,489.09 1913.65,488.051 1916.63,487.015 1919.61,485.981 1922.59,484.95 1925.57,483.922 1928.55,482.896 1931.52,481.873 1934.5,480.852 1937.48,479.834 1940.46,478.818 1943.44,477.805 1946.42,476.794 1949.4,475.786 1952.37,474.781 1955.35,473.778 1958.33,472.777 1961.31,471.779 1964.29,470.784 1967.27,469.791 1970.25,468.8 1973.23,467.812 1976.2,466.826 1979.18,465.843 1982.16,464.863 1985.14,463.884 1988.12,462.909 1991.1,461.935 1994.08,460.964 1997.05,459.996 2000.03,459.03 2003.01,458.066 2005.99,457.105 2008.97,456.146 2011.95,455.19 2014.93,454.235 2017.9,453.284 2020.88,452.335 2023.86,451.388 2026.84,450.443 2029.82,449.501 2032.8,448.561 2035.78,447.623 2038.75,446.688 2041.73,445.755 2044.71,444.825 2047.69,443.897 2050.67,442.971 2053.65,442.047 2056.63,441.126 2059.6,440.207 2062.58,439.291 2065.56,438.376 2068.54,437.464 2071.52,436.555 2074.5,435.647 2077.48,434.742 2080.46,433.839 2083.43,432.938 2086.41,432.04 2089.39,431.143 2092.37,430.25 2095.35,429.358 2098.33,428.468 2101.31,427.581 2104.28,426.696 2107.26,425.813 2110.24,424.932 2113.22,424.054 2116.2,423.178 2119.18,422.304 2122.16,421.432 2125.13,420.562 2128.11,419.695 2131.09,418.829 2134.07,417.966 2137.05,417.105 2140.03,416.246 2143.01,415.389 2145.98,414.535 2148.96,413.682 2151.94,412.832 2154.92,411.984 2157.9,411.138 2160.88,410.294 2163.86,409.452 2166.83,408.612 2169.81,407.774 2172.79,406.939 2175.77,406.105 2178.75,405.274 2181.73,404.445 2184.71,403.617 2187.69,402.792 2190.66,401.969 2193.64,401.148 2196.62,400.329 2199.6,399.512 2202.58,398.697 2205.56,397.884 2208.54,397.073 2211.51,396.265 2214.49,395.458 2217.47,394.653 2220.45,393.85 2223.43,393.049 2226.41,392.251 2229.39,391.454 2232.36,390.659 2235.34,389.866 2238.32,389.075 2241.3,388.287 2244.28,387.5 2247.26,386.715 2250.24,385.932 2253.21,385.151 2256.19,384.372 2259.17,383.595 2262.15,382.82 2265.13,382.047 2268.11,381.275 2271.09,380.506 2274.07,379.738 2277.04,378.973 2280.02,378.209 2283,377.448 2285.98,376.688 2288.96,375.93 2291.94,375.174 2294.92,374.42 2297.89,373.668 2300.87,372.917 2303.85,372.169 2306.83,371.422 2309.81,370.678 2312.79,369.935 2315.77,369.194 2318.74,368.455 2321.72,367.717 2324.7,366.982 2327.68,366.248 2330.66,365.517 2333.64,364.787 2336.62,364.058 2339.59,363.332 2342.57,362.608 2345.55,361.885 2348.53,361.164 2351.51,360.445 2354.49,359.728 2357.47,359.012 2360.44,358.299 2363.42,357.587 2366.4,356.876 2369.38,356.168 2372.36,355.462 2375.34,354.757 2378.32,354.054 2381.3,353.352 2384.27,352.653 2387.25,351.955 2390.23,351.259 2393.21,350.565 2396.19,349.872 2399.17,349.181 2402.15,348.492 2405.12,347.805 2408.1,347.119 2411.08,346.435 2414.06,345.753 2417.04,345.072 2420.02,344.393 2423,343.716 2425.97,343.041 2428.95,342.367 2431.93,341.695 2434.91,341.024 2437.89,340.356 2440.87,339.689 2443.85,339.023 2446.82,338.359 2449.8,337.697 2452.78,337.037 2455.76,336.378 2458.74,335.721 2461.72,335.066 2464.7,334.412 2467.67,333.759 2470.65,333.109 2473.63,332.46 2476.61,331.813 2479.59,331.167 2482.57,330.523 2485.55,329.88 2488.53,329.239 2491.5,328.6 2494.48,327.962 2497.46,327.326 2500.44,326.692 2503.42,326.059 2506.4,325.428 2509.38,324.798 2512.35,324.17 2515.33,323.543 2518.31,322.918 2521.29,322.294 2524.27,321.673 2527.25,321.052 2530.23,320.433 2533.2,319.816 2536.18,319.2 2539.16,318.586 2542.14,317.973 2545.12,317.362 2548.1,316.753 2551.08,316.145 2554.05,315.538 2557.03,314.933 2560.01,314.329 2562.99,313.727 2565.97,313.127 2568.95,312.528 2571.93,311.93 2574.9,311.334 2577.88,310.74 2580.86,310.147 2583.84,309.555 2586.82,308.965 2589.8,308.377 2592.78,307.789 2595.76,307.204 2598.73,306.619 2601.71,306.037 2604.69,305.455 2607.67,304.876 2610.65,304.297 2613.63,303.72 2616.61,303.145 2619.58,302.571 2622.56,301.998 2625.54,301.427 2628.52,300.857 2631.5,300.289 2634.48,299.722 2637.46,299.156 2640.43,298.592 2643.41,298.029 2646.39,297.468 2649.37,296.908 2652.35,296.35 2655.33,295.793 2658.31,295.237 2661.28,294.683 2664.26,294.13 2667.24,293.578 2670.22,293.028 2673.2,292.479 2676.18,291.932 2679.16,291.386 2682.14,290.841 2685.11,290.298 2688.09,289.756 2691.07,289.215 2694.05,288.676 2697.03,288.138 2700.01,287.602 2702.99,287.066 2705.96,286.533 2708.94,286 2711.92,285.469 2714.9,284.939 2717.88,284.41 2720.86,283.883 2723.84,283.357 2726.81,282.833 2729.79,282.309 2732.77,281.787 2735.75,281.267 2738.73,280.747 2741.71,280.229 2744.69,279.712 2747.66,279.197 2750.64,278.683 2753.62,278.17 2756.6,277.658 2759.58,277.148 2762.56,276.639 2765.54,276.131 2768.51,275.624 2771.49,275.119 2774.47,274.615 2777.45,274.112 2780.43,273.611 2783.41,273.11 2786.39,272.611 2789.37,272.114 2792.34,271.617 2795.32,271.122 2798.3,270.628 2801.28,270.135 2804.26,269.643 2807.24,269.153 2810.22,268.664 2813.19,268.176 2816.17,267.689 2819.15,267.204 2822.13,266.72 2825.11,266.237 2828.09,265.755 2831.07,265.274 2834.04,264.795 2837.02,264.317 2840,263.84 2842.98,263.364 2845.96,262.889 2848.94,262.416 2851.92,261.943 2854.89,261.472 2857.87,261.002 2860.85,260.534 2863.83,260.066 2866.81,259.6 2869.79,259.134 2872.77,258.67 2875.74,258.207 2878.72,257.746 2881.7,257.285 2884.68,256.826 2887.66,256.367 2890.64,255.91 2893.62,255.454 2896.6,254.999 2899.57,254.546 2902.55,254.093 2905.53,253.642 2908.51,253.191 2911.49,252.742 2914.47,252.294 2917.45,251.847 2920.42,251.401 2923.4,250.956 2926.38,250.513 2929.36,250.07 2932.34,249.629 2935.32,249.188 2938.3,248.749 2941.27,248.311 2944.25,247.874 2947.23,247.438 2950.21,247.003 2953.19,246.57 2956.17,246.137 2959.15,245.705 2962.12,245.275 2965.1,244.845 2968.08,244.417 2971.06,243.99 2974.04,243.563 2977.02,243.138 2980,242.714 2982.97,242.291 2985.95,241.869 2988.93,241.448 2991.91,241.028 2994.89,240.61 2997.87,240.192 3000.85,239.775 3003.83,239.359 3006.8,238.945 3009.78,238.531 3012.76,238.119 3015.74,237.707 3018.72,237.297 3021.7,236.887 3024.68,236.479 3027.65,236.071 3030.63,235.665 3033.61,235.259 3036.59,234.855 3039.57,234.452 3042.55,234.049 3045.53,233.648 3048.5,233.247 3051.48,232.848 3054.46,232.45 3057.44,232.052 3060.42,231.656 3063.4,231.261 3066.38,230.866 3069.35,230.473 3072.33,230.08 3075.31,229.689 3078.29,229.298 3081.27,228.909 3084.25,228.52 3087.23,228.133 3090.21,227.746 3093.18,227.361 3096.16,226.976 3099.14,226.592 3102.12,226.21 3105.1,225.828 3108.08,225.447 3111.06,225.067 3114.03,224.688 3117.01,224.31 3119.99,223.933 3122.97,223.557 3125.95,223.182 3128.93,222.808 3131.91,222.434 3134.88,222.062 3137.86,221.691 3140.84,221.32 3143.82,220.951 3146.8,220.582 3149.78,220.214 3152.76,219.847 "/>
<path clip-path="url(#clip060)" d="M276.309 301.153 L600.794 301.153 L600.794 93.7926 L276.309 93.7926  Z" fill="#ffffff" fill-rule="evenodd" fill-opacity="1"/>
<polyline clip-path="url(#clip060)" style="stroke:#000000; stroke-linecap:round; stroke-linejoin:round; stroke-width:4; stroke-opacity:1; fill:none" points="276.309,301.153 600.794,301.153 600.794,93.7926 276.309,93.7926 276.309,301.153 "/>
<polyline clip-path="url(#clip060)" style="stroke:#009af9; stroke-linecap:round; stroke-linejoin:round; stroke-width:8; stroke-opacity:1; fill:none" points="309.372,145.633 507.747,145.633 "/>
<path clip-path="url(#clip060)" d="M563.055 129.487 L563.055 134.047 Q560.393 132.774 558.032 132.149 Q555.671 131.524 553.472 131.524 Q549.653 131.524 547.569 133.005 Q545.509 134.487 545.509 137.218 Q545.509 139.51 546.875 140.691 Q548.264 141.848 552.106 142.566 L554.93 143.144 Q560.162 144.14 562.639 146.663 Q565.139 149.163 565.139 153.376 Q565.139 158.399 561.759 160.991 Q558.402 163.584 551.898 163.584 Q549.444 163.584 546.666 163.028 Q543.912 162.473 540.949 161.385 L540.949 156.57 Q543.796 158.167 546.528 158.977 Q549.259 159.788 551.898 159.788 Q555.902 159.788 558.078 158.214 Q560.254 156.64 560.254 153.723 Q560.254 151.177 558.68 149.741 Q557.129 148.306 553.565 147.589 L550.717 147.033 Q545.486 145.991 543.148 143.769 Q540.81 141.547 540.81 137.589 Q540.81 133.005 544.028 130.366 Q547.268 127.728 552.94 127.728 Q555.37 127.728 557.893 128.167 Q560.416 128.607 563.055 129.487 Z" fill="#000000" fill-rule="nonzero" fill-opacity="1" /><polyline clip-path="url(#clip060)" style="stroke:#e26f46; stroke-linecap:round; stroke-linejoin:round; stroke-width:8; stroke-opacity:1; fill:none" points="309.372,197.473 507.747,197.473 "/>
<path clip-path="url(#clip060)" d="M540.81 180.193 L545.486 180.193 L545.486 214.753 L540.81 214.753 L540.81 180.193 Z" fill="#000000" fill-rule="nonzero" fill-opacity="1" /><polyline clip-path="url(#clip060)" style="stroke:#3da44d; stroke-linecap:round; stroke-linejoin:round; stroke-width:8; stroke-opacity:1; fill:none" points="309.372,249.313 507.747,249.313 "/>
<path clip-path="url(#clip060)" d="M557.199 250.389 Q558.703 250.898 560.115 252.565 Q561.551 254.232 562.986 257.148 L567.731 266.593 L562.708 266.593 L558.287 257.727 Q556.574 254.255 554.953 253.12 Q553.356 251.986 550.578 251.986 L545.486 251.986 L545.486 266.593 L540.81 266.593 L540.81 232.033 L551.365 232.033 Q557.291 232.033 560.208 234.509 Q563.125 236.986 563.125 241.986 Q563.125 245.25 561.597 247.403 Q560.092 249.556 557.199 250.389 M545.486 235.875 L545.486 248.144 L551.365 248.144 Q554.745 248.144 556.458 246.593 Q558.194 245.019 558.194 241.986 Q558.194 238.954 556.458 237.426 Q554.745 235.875 551.365 235.875 L545.486 235.875 Z" fill="#000000" fill-rule="nonzero" fill-opacity="1" /></svg>
