<?xml version="1.0" encoding="utf-8"?>
<svg xmlns="http://www.w3.org/2000/svg" xmlns:xlink="http://www.w3.org/1999/xlink" width="800" height="400" viewBox="0 0 3200 1600">
<defs>
  <clipPath id="clip470">
    <rect x="0" y="0" width="3200" height="1600"/>
  </clipPath>
</defs>
<path clip-path="url(#clip470)" d="M0 1600 L3200 1600 L3200 0 L0 0  Z" fill="#ffffff" fill-rule="evenodd" fill-opacity="1"/>
<defs>
  <clipPath id="clip471">
    <rect x="640" y="0" width="2241" height="1600"/>
  </clipPath>
</defs>
<path clip-path="url(#clip470)" d="M164.112 1443.7 L3152.76 1443.7 L3152.76 47.2441 L164.112 47.2441  Z" fill="#ffffff" fill-rule="evenodd" fill-opacity="1"/>
<defs>
  <clipPath id="clip472">
    <rect x="164" y="47" width="2990" height="1397"/>
  </clipPath>
</defs>
<polyline clip-path="url(#clip472)" style="stroke:#000000; stroke-linecap:round; stroke-linejoin:round; stroke-width:2; stroke-opacity:0.1; fill:none" points="164.112,1443.7 164.112,47.2441 "/>
<polyline clip-path="url(#clip472)" style="stroke:#000000; stroke-linecap:round; stroke-linejoin:round; stroke-width:2; stroke-opacity:0.1; fill:none" points="761.841,1443.7 761.841,47.2441 "/>
<polyline clip-path="url(#clip472)" style="stroke:#000000; stroke-linecap:round; stroke-linejoin:round; stroke-width:2; stroke-opacity:0.1; fill:none" points="1359.57,1443.7 1359.57,47.2441 "/>
<polyline clip-path="url(#clip472)" style="stroke:#000000; stroke-linecap:round; stroke-linejoin:round; stroke-width:2; stroke-opacity:0.1; fill:none" points="1957.3,1443.7 1957.3,47.2441 "/>
<polyline clip-path="url(#clip472)" style="stroke:#000000; stroke-linecap:round; stroke-linejoin:round; stroke-width:2; stroke-opacity:0.1; fill:none" points="2555.03,1443.7 2555.03,47.2441 "/>
<polyline clip-path="url(#clip472)" style="stroke:#000000; stroke-linecap:round; stroke-linejoin:round; stroke-width:2; stroke-opacity:0.1; fill:none" points="3152.76,1443.7 3152.76,47.2441 "/>
<polyline clip-path="url(#clip472)" style="stroke:#000000; stroke-linecap:round; stroke-linejoin:round; stroke-width:2; stroke-opacity:0.1; fill:none" points="164.112,1443.7 164.112,47.2441 "/>
<polyline clip-path="url(#clip472)" style="stroke:#000000; stroke-linecap:round; stroke-linejoin:round; stroke-width:2; stroke-opacity:0.1; fill:none" points="761.841,1443.7 761.841,47.2441 "/>
<polyline clip-path="url(#clip472)" style="stroke:#000000; stroke-linecap:round; stroke-linejoin:round; stroke-width:2; stroke-opacity:0.1; fill:none" points="1359.57,1443.7 1359.57,47.2441 "/>
<polyline clip-path="url(#clip472)" style="stroke:#000000; stroke-linecap:round; stroke-linejoin:round; stroke-width:2; stroke-opacity:0.1; fill:none" points="1957.3,1443.7 1957.3,47.2441 "/>
<polyline clip-path="url(#clip472)" style="stroke:#000000; stroke-linecap:round; stroke-linejoin:round; stroke-width:2; stroke-opacity:0.1; fill:none" points="2555.03,1443.7 2555.03,47.2441 "/>
<polyline clip-path="url(#clip472)" style="stroke:#000000; stroke-linecap:round; stroke-linejoin:round; stroke-width:2; stroke-opacity:0.1; fill:none" points="3152.76,1443.7 3152.76,47.2441 "/>
<polyline clip-path="url(#clip472)" style="stroke:#000000; stroke-linecap:round; stroke-linejoin:round; stroke-width:2; stroke-opacity:0.1; fill:none" points="164.112,1404.18 3152.76,1404.18 "/>
<polyline clip-path="url(#clip472)" style="stroke:#000000; stroke-linecap:round; stroke-linejoin:round; stroke-width:2; stroke-opacity:0.1; fill:none" points="164.112,1161.85 3152.76,1161.85 "/>
<polyline clip-path="url(#clip472)" style="stroke:#000000; stroke-linecap:round; stroke-linejoin:round; stroke-width:2; stroke-opacity:0.1; fill:none" points="164.112,919.529 3152.76,919.529 "/>
<polyline clip-path="url(#clip472)" style="stroke:#000000; stroke-linecap:round; stroke-linejoin:round; stroke-width:2; stroke-opacity:0.1; fill:none" points="164.112,677.205 3152.76,677.205 "/>
<polyline clip-path="url(#clip472)" style="stroke:#000000; stroke-linecap:round; stroke-linejoin:round; stroke-width:2; stroke-opacity:0.1; fill:none" points="164.112,434.881 3152.76,434.881 "/>
<polyline clip-path="url(#clip472)" style="stroke:#000000; stroke-linecap:round; stroke-linejoin:round; stroke-width:2; stroke-opacity:0.1; fill:none" points="164.112,192.556 3152.76,192.556 "/>
<polyline clip-path="url(#clip472)" style="stroke:#000000; stroke-linecap:round; stroke-linejoin:round; stroke-width:2; stroke-opacity:0.1; fill:none" points="164.112,1404.18 3152.76,1404.18 "/>
<polyline clip-path="url(#clip472)" style="stroke:#000000; stroke-linecap:round; stroke-linejoin:round; stroke-width:2; stroke-opacity:0.1; fill:none" points="164.112,1161.85 3152.76,1161.85 "/>
<polyline clip-path="url(#clip472)" style="stroke:#000000; stroke-linecap:round; stroke-linejoin:round; stroke-width:2; stroke-opacity:0.1; fill:none" points="164.112,919.529 3152.76,919.529 "/>
<polyline clip-path="url(#clip472)" style="stroke:#000000; stroke-linecap:round; stroke-linejoin:round; stroke-width:2; stroke-opacity:0.1; fill:none" points="164.112,677.205 3152.76,677.205 "/>
<polyline clip-path="url(#clip472)" style="stroke:#000000; stroke-linecap:round; stroke-linejoin:round; stroke-width:2; stroke-opacity:0.1; fill:none" points="164.112,434.881 3152.76,434.881 "/>
<polyline clip-path="url(#clip472)" style="stroke:#000000; stroke-linecap:round; stroke-linejoin:round; stroke-width:2; stroke-opacity:0.1; fill:none" points="164.112,192.556 3152.76,192.556 "/>
<polyline clip-path="url(#clip470)" style="stroke:#000000; stroke-linecap:round; stroke-linejoin:round; stroke-width:4; stroke-opacity:1; fill:none" points="164.112,1443.7 3152.76,1443.7 "/>
<polyline clip-path="url(#clip470)" style="stroke:#000000; stroke-linecap:round; stroke-linejoin:round; stroke-width:4; stroke-opacity:1; fill:none" points="164.112,47.2441 3152.76,47.2441 "/>
<polyline clip-path="url(#clip470)" style="stroke:#000000; stroke-linecap:round; stroke-linejoin:round; stroke-width:4; stroke-opacity:1; fill:none" points="164.112,1443.7 164.112,1424.8 "/>
<polyline clip-path="url(#clip470)" style="stroke:#000000; stroke-linecap:round; stroke-linejoin:round; stroke-width:4; stroke-opacity:1; fill:none" points="761.841,1443.7 761.841,1424.8 "/>
<polyline clip-path="url(#clip470)" style="stroke:#000000; stroke-linecap:round; stroke-linejoin:round; stroke-width:4; stroke-opacity:1; fill:none" points="1359.57,1443.7 1359.57,1424.8 "/>
<polyline clip-path="url(#clip470)" style="stroke:#000000; stroke-linecap:round; stroke-linejoin:round; stroke-width:4; stroke-opacity:1; fill:none" points="1957.3,1443.7 1957.3,1424.8 "/>
<polyline clip-path="url(#clip470)" style="stroke:#000000; stroke-linecap:round; stroke-linejoin:round; stroke-width:4; stroke-opacity:1; fill:none" points="2555.03,1443.7 2555.03,1424.8 "/>
<polyline clip-path="url(#clip470)" style="stroke:#000000; stroke-linecap:round; stroke-linejoin:round; stroke-width:4; stroke-opacity:1; fill:none" points="3152.76,1443.7 3152.76,1424.8 "/>
<polyline clip-path="url(#clip470)" style="stroke:#000000; stroke-linecap:round; stroke-linejoin:round; stroke-width:4; stroke-opacity:1; fill:none" points="164.112,47.2441 164.112,66.1417 "/>
<polyline clip-path="url(#clip470)" style="stroke:#000000; stroke-linecap:round; stroke-linejoin:round; stroke-width:4; stroke-opacity:1; fill:none" points="761.841,47.2441 761.841,66.1417 "/>
<polyline clip-path="url(#clip470)" style="stroke:#000000; stroke-linecap:round; stroke-linejoin:round; stroke-width:4; stroke-opacity:1; fill:none" points="1359.57,47.2441 1359.57,66.1417 "/>
<polyline clip-path="url(#clip470)" style="stroke:#000000; stroke-linecap:round; stroke-linejoin:round; stroke-width:4; stroke-opacity:1; fill:none" points="1957.3,47.2441 1957.3,66.1417 "/>
<polyline clip-path="url(#clip470)" style="stroke:#000000; stroke-linecap:round; stroke-linejoin:round; stroke-width:4; stroke-opacity:1; fill:none" points="2555.03,47.2441 2555.03,66.1417 "/>
<polyline clip-path="url(#clip470)" style="stroke:#000000; stroke-linecap:round; stroke-linejoin:round; stroke-width:4; stroke-opacity:1; fill:none" points="3152.76,47.2441 3152.76,66.1417 "/>
<path clip-path="url(#clip470)" d="M141.497 1481.02 Q137.885 1481.02 136.057 1484.58 Q134.251 1488.12 134.251 1495.25 Q134.251 1502.36 136.057 1505.93 Q137.885 1509.47 141.497 1509.47 Q145.131 1509.47 146.936 1505.93 Q148.765 1502.36 148.765 1495.25 Q148.765 1488.12 146.936 1484.58 Q145.131 1481.02 141.497 1481.02 M141.497 1477.31 Q147.307 1477.31 150.362 1481.92 Q153.441 1486.5 153.441 1495.25 Q153.441 1503.98 150.362 1508.59 Q147.307 1513.17 141.497 1513.17 Q135.686 1513.17 132.608 1508.59 Q129.552 1503.98 129.552 1495.25 Q129.552 1486.5 132.608 1481.92 Q135.686 1477.31 141.497 1477.31 Z" fill="#000000" fill-rule="nonzero" fill-opacity="1" /><path clip-path="url(#clip470)" d="M161.658 1506.62 L166.543 1506.62 L166.543 1512.5 L161.658 1512.5 L161.658 1506.62 Z" fill="#000000" fill-rule="nonzero" fill-opacity="1" /><path clip-path="url(#clip470)" d="M186.728 1481.02 Q183.117 1481.02 181.288 1484.58 Q179.482 1488.12 179.482 1495.25 Q179.482 1502.36 181.288 1505.93 Q183.117 1509.47 186.728 1509.47 Q190.362 1509.47 192.168 1505.93 Q193.996 1502.36 193.996 1495.25 Q193.996 1488.12 192.168 1484.58 Q190.362 1481.02 186.728 1481.02 M186.728 1477.31 Q192.538 1477.31 195.593 1481.92 Q198.672 1486.5 198.672 1495.25 Q198.672 1503.98 195.593 1508.59 Q192.538 1513.17 186.728 1513.17 Q180.918 1513.17 177.839 1508.59 Q174.783 1503.98 174.783 1495.25 Q174.783 1486.5 177.839 1481.92 Q180.918 1477.31 186.728 1477.31 Z" fill="#000000" fill-rule="nonzero" fill-opacity="1" /><path clip-path="url(#clip470)" d="M740.024 1481.02 Q736.413 1481.02 734.584 1484.58 Q732.779 1488.12 732.779 1495.25 Q732.779 1502.36 734.584 1505.93 Q736.413 1509.47 740.024 1509.47 Q743.658 1509.47 745.464 1505.93 Q747.292 1502.36 747.292 1495.25 Q747.292 1488.12 745.464 1484.58 Q743.658 1481.02 740.024 1481.02 M740.024 1477.31 Q745.834 1477.31 748.89 1481.92 Q751.968 1486.5 751.968 1495.25 Q751.968 1503.98 748.89 1508.59 Q745.834 1513.17 740.024 1513.17 Q734.214 1513.17 731.135 1508.59 Q728.079 1503.98 728.079 1495.25 Q728.079 1486.5 731.135 1481.92 Q734.214 1477.31 740.024 1477.31 Z" fill="#000000" fill-rule="nonzero" fill-opacity="1" /><path clip-path="url(#clip470)" d="M760.186 1506.62 L765.07 1506.62 L765.07 1512.5 L760.186 1512.5 L760.186 1506.62 Z" fill="#000000" fill-rule="nonzero" fill-opacity="1" /><path clip-path="url(#clip470)" d="M779.283 1508.56 L795.602 1508.56 L795.602 1512.5 L773.658 1512.5 L773.658 1508.56 Q776.32 1505.81 780.903 1501.18 Q785.51 1496.53 786.69 1495.19 Q788.936 1492.66 789.815 1490.93 Q790.718 1489.17 790.718 1487.48 Q790.718 1484.72 788.774 1482.99 Q786.852 1481.25 783.75 1481.25 Q781.551 1481.25 779.098 1482.01 Q776.667 1482.78 773.889 1484.33 L773.889 1479.61 Q776.713 1478.47 779.167 1477.89 Q781.621 1477.31 783.658 1477.31 Q789.028 1477.31 792.223 1480 Q795.417 1482.69 795.417 1487.18 Q795.417 1489.31 794.607 1491.23 Q793.82 1493.12 791.713 1495.72 Q791.135 1496.39 788.033 1499.61 Q784.931 1502.8 779.283 1508.56 Z" fill="#000000" fill-rule="nonzero" fill-opacity="1" /><path clip-path="url(#clip470)" d="M1336.71 1481.02 Q1333.1 1481.02 1331.27 1484.58 Q1329.47 1488.12 1329.47 1495.25 Q1329.47 1502.36 1331.27 1505.93 Q1333.1 1509.47 1336.71 1509.47 Q1340.35 1509.47 1342.15 1505.93 Q1343.98 1502.36 1343.98 1495.25 Q1343.98 1488.12 1342.15 1484.58 Q1340.35 1481.02 1336.71 1481.02 M1336.71 1477.31 Q1342.52 1477.31 1345.58 1481.92 Q1348.66 1486.5 1348.66 1495.25 Q1348.66 1503.98 1345.58 1508.59 Q1342.52 1513.17 1336.71 1513.17 Q1330.9 1513.17 1327.82 1508.59 Q1324.77 1503.98 1324.77 1495.25 Q1324.77 1486.5 1327.82 1481.92 Q1330.9 1477.31 1336.71 1477.31 Z" fill="#000000" fill-rule="nonzero" fill-opacity="1" /><path clip-path="url(#clip470)" d="M1356.87 1506.62 L1361.76 1506.62 L1361.76 1512.5 L1356.87 1512.5 L1356.87 1506.62 Z" fill="#000000" fill-rule="nonzero" fill-opacity="1" /><path clip-path="url(#clip470)" d="M1384.79 1482.01 L1372.98 1500.46 L1384.79 1500.46 L1384.79 1482.01 M1383.56 1477.94 L1389.44 1477.94 L1389.44 1500.46 L1394.37 1500.46 L1394.37 1504.35 L1389.44 1504.35 L1389.44 1512.5 L1384.79 1512.5 L1384.79 1504.35 L1369.19 1504.35 L1369.19 1499.84 L1383.56 1477.94 Z" fill="#000000" fill-rule="nonzero" fill-opacity="1" /><path clip-path="url(#clip470)" d="M1934.6 1481.02 Q1930.99 1481.02 1929.16 1484.58 Q1927.36 1488.12 1927.36 1495.25 Q1927.36 1502.36 1929.16 1505.93 Q1930.99 1509.47 1934.6 1509.47 Q1938.24 1509.47 1940.04 1505.93 Q1941.87 1502.36 1941.87 1495.25 Q1941.87 1488.12 1940.04 1484.58 Q1938.24 1481.02 1934.6 1481.02 M1934.6 1477.31 Q1940.41 1477.31 1943.47 1481.92 Q1946.55 1486.5 1946.55 1495.25 Q1946.55 1503.98 1943.47 1508.59 Q1940.41 1513.17 1934.6 1513.17 Q1928.79 1513.17 1925.71 1508.59 Q1922.66 1503.98 1922.66 1495.25 Q1922.66 1486.5 1925.71 1481.92 Q1928.79 1477.31 1934.6 1477.31 Z" fill="#000000" fill-rule="nonzero" fill-opacity="1" /><path clip-path="url(#clip470)" d="M1954.76 1506.62 L1959.65 1506.62 L1959.65 1512.5 L1954.76 1512.5 L1954.76 1506.62 Z" fill="#000000" fill-rule="nonzero" fill-opacity="1" /><path clip-path="url(#clip470)" d="M1980.41 1493.36 Q1977.26 1493.36 1975.41 1495.51 Q1973.58 1497.66 1973.58 1501.41 Q1973.58 1505.14 1975.41 1507.31 Q1977.26 1509.47 1980.41 1509.47 Q1983.56 1509.47 1985.39 1507.31 Q1987.24 1505.14 1987.24 1501.41 Q1987.24 1497.66 1985.39 1495.51 Q1983.56 1493.36 1980.41 1493.36 M1989.69 1478.7 L1989.69 1482.96 Q1987.93 1482.13 1986.13 1481.69 Q1984.35 1481.25 1982.59 1481.25 Q1977.96 1481.25 1975.5 1484.37 Q1973.07 1487.5 1972.73 1493.82 Q1974.09 1491.81 1976.15 1490.74 Q1978.21 1489.65 1980.69 1489.65 Q1985.9 1489.65 1988.91 1492.82 Q1991.94 1495.97 1991.94 1501.41 Q1991.94 1506.74 1988.79 1509.95 Q1985.64 1513.17 1980.41 1513.17 Q1974.42 1513.17 1971.25 1508.59 Q1968.07 1503.98 1968.07 1495.25 Q1968.07 1487.06 1971.96 1482.2 Q1975.85 1477.31 1982.4 1477.31 Q1984.16 1477.31 1985.94 1477.66 Q1987.75 1478.01 1989.69 1478.7 Z" fill="#000000" fill-rule="nonzero" fill-opacity="1" /><path clip-path="url(#clip470)" d="M2532.46 1481.02 Q2528.85 1481.02 2527.02 1484.58 Q2525.21 1488.12 2525.21 1495.25 Q2525.21 1502.36 2527.02 1505.93 Q2528.85 1509.47 2532.46 1509.47 Q2536.09 1509.47 2537.9 1505.93 Q2539.73 1502.36 2539.73 1495.25 Q2539.73 1488.12 2537.9 1484.58 Q2536.09 1481.02 2532.46 1481.02 M2532.46 1477.31 Q2538.27 1477.31 2541.32 1481.92 Q2544.4 1486.5 2544.4 1495.25 Q2544.4 1503.98 2541.32 1508.59 Q2538.27 1513.17 2532.46 1513.17 Q2526.65 1513.17 2523.57 1508.59 Q2520.51 1503.98 2520.51 1495.25 Q2520.51 1486.5 2523.57 1481.92 Q2526.65 1477.31 2532.46 1477.31 Z" fill="#000000" fill-rule="nonzero" fill-opacity="1" /><path clip-path="url(#clip470)" d="M2552.62 1506.62 L2557.5 1506.62 L2557.5 1512.5 L2552.62 1512.5 L2552.62 1506.62 Z" fill="#000000" fill-rule="nonzero" fill-opacity="1" /><path clip-path="url(#clip470)" d="M2577.69 1496.09 Q2574.36 1496.09 2572.43 1497.87 Q2570.54 1499.65 2570.54 1502.78 Q2570.54 1505.9 2572.43 1507.69 Q2574.36 1509.47 2577.69 1509.47 Q2581.02 1509.47 2582.94 1507.69 Q2584.86 1505.88 2584.86 1502.78 Q2584.86 1499.65 2582.94 1497.87 Q2581.05 1496.09 2577.69 1496.09 M2573.01 1494.1 Q2570 1493.36 2568.31 1491.3 Q2566.65 1489.24 2566.65 1486.27 Q2566.65 1482.13 2569.59 1479.72 Q2572.55 1477.31 2577.69 1477.31 Q2582.85 1477.31 2585.79 1479.72 Q2588.73 1482.13 2588.73 1486.27 Q2588.73 1489.24 2587.04 1491.3 Q2585.37 1493.36 2582.39 1494.1 Q2585.77 1494.88 2587.64 1497.18 Q2589.54 1499.47 2589.54 1502.78 Q2589.54 1507.8 2586.46 1510.49 Q2583.41 1513.17 2577.69 1513.17 Q2571.97 1513.17 2568.89 1510.49 Q2565.84 1507.8 2565.84 1502.78 Q2565.84 1499.47 2567.74 1497.18 Q2569.63 1494.88 2573.01 1494.1 M2571.3 1486.71 Q2571.3 1489.4 2572.97 1490.9 Q2574.66 1492.41 2577.69 1492.41 Q2580.7 1492.41 2582.39 1490.9 Q2584.1 1489.4 2584.1 1486.71 Q2584.1 1484.03 2582.39 1482.52 Q2580.7 1481.02 2577.69 1481.02 Q2574.66 1481.02 2572.97 1482.52 Q2571.3 1484.03 2571.3 1486.71 Z" fill="#000000" fill-rule="nonzero" fill-opacity="1" /><path clip-path="url(#clip470)" d="M3119.91 1508.56 L3127.55 1508.56 L3127.55 1482.2 L3119.24 1483.87 L3119.24 1479.61 L3127.5 1477.94 L3132.18 1477.94 L3132.18 1508.56 L3139.82 1508.56 L3139.82 1512.5 L3119.91 1512.5 L3119.91 1508.56 Z" fill="#000000" fill-rule="nonzero" fill-opacity="1" /><path clip-path="url(#clip470)" d="M3149.26 1506.62 L3154.14 1506.62 L3154.14 1512.5 L3149.26 1512.5 L3149.26 1506.62 Z" fill="#000000" fill-rule="nonzero" fill-opacity="1" /><path clip-path="url(#clip470)" d="M3174.33 1481.02 Q3170.72 1481.02 3168.89 1484.58 Q3167.08 1488.12 3167.08 1495.25 Q3167.08 1502.36 3168.89 1505.93 Q3170.72 1509.47 3174.33 1509.47 Q3177.96 1509.47 3179.77 1505.93 Q3181.6 1502.36 3181.6 1495.25 Q3181.6 1488.12 3179.77 1484.58 Q3177.96 1481.02 3174.33 1481.02 M3174.33 1477.31 Q3180.14 1477.31 3183.2 1481.92 Q3186.27 1486.5 3186.27 1495.25 Q3186.27 1503.98 3183.2 1508.59 Q3180.14 1513.17 3174.33 1513.17 Q3168.52 1513.17 3165.44 1508.59 Q3162.39 1503.98 3162.39 1495.25 Q3162.39 1486.5 3165.44 1481.92 Q3168.52 1477.31 3174.33 1477.31 Z" fill="#000000" fill-rule="nonzero" fill-opacity="1" /><path clip-path="url(#clip470)" d="M1657.5 1554.79 L1657.5 1564.92 L1669.56 1564.92 L1669.56 1569.47 L1657.5 1569.47 L1657.5 1588.82 Q1657.5 1593.18 1658.67 1594.42 Q1659.88 1595.66 1663.54 1595.66 L1669.56 1595.66 L1669.56 1600.56 L1663.54 1600.56 Q1656.76 1600.56 1654.18 1598.05 Q1651.61 1595.5 1651.61 1588.82 L1651.61 1569.47 L1647.31 1569.47 L1647.31 1564.92 L1651.61 1564.92 L1651.61 1554.79 L1657.5 1554.79 Z" fill="#000000" fill-rule="nonzero" fill-opacity="1" /><polyline clip-path="url(#clip470)" style="stroke:#000000; stroke-linecap:round; stroke-linejoin:round; stroke-width:4; stroke-opacity:1; fill:none" points="164.112,1443.7 164.112,47.2441 "/>
<polyline clip-path="url(#clip470)" style="stroke:#000000; stroke-linecap:round; stroke-linejoin:round; stroke-width:4; stroke-opacity:1; fill:none" points="3152.76,1443.7 3152.76,47.2441 "/>
<polyline clip-path="url(#clip470)" style="stroke:#000000; stroke-linecap:round; stroke-linejoin:round; stroke-width:4; stroke-opacity:1; fill:none" points="164.112,1404.18 183.01,1404.18 "/>
<polyline clip-path="url(#clip470)" style="stroke:#000000; stroke-linecap:round; stroke-linejoin:round; stroke-width:4; stroke-opacity:1; fill:none" points="164.112,1161.85 183.01,1161.85 "/>
<polyline clip-path="url(#clip470)" style="stroke:#000000; stroke-linecap:round; stroke-linejoin:round; stroke-width:4; stroke-opacity:1; fill:none" points="164.112,919.529 183.01,919.529 "/>
<polyline clip-path="url(#clip470)" style="stroke:#000000; stroke-linecap:round; stroke-linejoin:round; stroke-width:4; stroke-opacity:1; fill:none" points="164.112,677.205 183.01,677.205 "/>
<polyline clip-path="url(#clip470)" style="stroke:#000000; stroke-linecap:round; stroke-linejoin:round; stroke-width:4; stroke-opacity:1; fill:none" points="164.112,434.881 183.01,434.881 "/>
<polyline clip-path="url(#clip470)" style="stroke:#000000; stroke-linecap:round; stroke-linejoin:round; stroke-width:4; stroke-opacity:1; fill:none" points="164.112,192.556 183.01,192.556 "/>
<polyline clip-path="url(#clip470)" style="stroke:#000000; stroke-linecap:round; stroke-linejoin:round; stroke-width:4; stroke-opacity:1; fill:none" points="3152.76,1404.18 3133.86,1404.18 "/>
<polyline clip-path="url(#clip470)" style="stroke:#000000; stroke-linecap:round; stroke-linejoin:round; stroke-width:4; stroke-opacity:1; fill:none" points="3152.76,1161.85 3133.86,1161.85 "/>
<polyline clip-path="url(#clip470)" style="stroke:#000000; stroke-linecap:round; stroke-linejoin:round; stroke-width:4; stroke-opacity:1; fill:none" points="3152.76,919.529 3133.86,919.529 "/>
<polyline clip-path="url(#clip470)" style="stroke:#000000; stroke-linecap:round; stroke-linejoin:round; stroke-width:4; stroke-opacity:1; fill:none" points="3152.76,677.205 3133.86,677.205 "/>
<polyline clip-path="url(#clip470)" style="stroke:#000000; stroke-linecap:round; stroke-linejoin:round; stroke-width:4; stroke-opacity:1; fill:none" points="3152.76,434.881 3133.86,434.881 "/>
<polyline clip-path="url(#clip470)" style="stroke:#000000; stroke-linecap:round; stroke-linejoin:round; stroke-width:4; stroke-opacity:1; fill:none" points="3152.76,192.556 3133.86,192.556 "/>
<path clip-path="url(#clip470)" d="M58.9365 1389.98 Q55.3254 1389.98 53.4967 1393.54 Q51.6912 1397.08 51.6912 1404.21 Q51.6912 1411.32 53.4967 1414.88 Q55.3254 1418.43 58.9365 1418.43 Q62.5707 1418.43 64.3763 1414.88 Q66.205 1411.32 66.205 1404.21 Q66.205 1397.08 64.3763 1393.54 Q62.5707 1389.98 58.9365 1389.98 M58.9365 1386.27 Q64.7467 1386.27 67.8022 1390.88 Q70.8809 1395.46 70.8809 1404.21 Q70.8809 1412.94 67.8022 1417.55 Q64.7467 1422.13 58.9365 1422.13 Q53.1264 1422.13 50.0477 1417.55 Q46.9921 1412.94 46.9921 1404.21 Q46.9921 1395.46 50.0477 1390.88 Q53.1264 1386.27 58.9365 1386.27 Z" fill="#000000" fill-rule="nonzero" fill-opacity="1" /><path clip-path="url(#clip470)" d="M79.0984 1415.58 L83.9827 1415.58 L83.9827 1421.46 L79.0984 1421.46 L79.0984 1415.58 Z" fill="#000000" fill-rule="nonzero" fill-opacity="1" /><path clip-path="url(#clip470)" d="M104.168 1389.98 Q100.557 1389.98 98.728 1393.54 Q96.9224 1397.08 96.9224 1404.21 Q96.9224 1411.32 98.728 1414.88 Q100.557 1418.43 104.168 1418.43 Q107.802 1418.43 109.608 1414.88 Q111.436 1411.32 111.436 1404.21 Q111.436 1397.08 109.608 1393.54 Q107.802 1389.98 104.168 1389.98 M104.168 1386.27 Q109.978 1386.27 113.033 1390.88 Q116.112 1395.46 116.112 1404.21 Q116.112 1412.94 113.033 1417.55 Q109.978 1422.13 104.168 1422.13 Q98.3576 1422.13 95.2789 1417.55 Q92.2234 1412.94 92.2234 1404.21 Q92.2234 1395.46 95.2789 1390.88 Q98.3576 1386.27 104.168 1386.27 Z" fill="#000000" fill-rule="nonzero" fill-opacity="1" /><path clip-path="url(#clip470)" d="M59.9319 1147.65 Q56.3208 1147.65 54.4921 1151.22 Q52.6865 1154.76 52.6865 1161.89 Q52.6865 1168.99 54.4921 1172.56 Q56.3208 1176.1 59.9319 1176.1 Q63.5661 1176.1 65.3717 1172.56 Q67.2004 1168.99 67.2004 1161.89 Q67.2004 1154.76 65.3717 1151.22 Q63.5661 1147.65 59.9319 1147.65 M59.9319 1143.95 Q65.742 1143.95 68.7976 1148.55 Q71.8763 1153.14 71.8763 1161.89 Q71.8763 1170.61 68.7976 1175.22 Q65.742 1179.8 59.9319 1179.8 Q54.1217 1179.8 51.043 1175.22 Q47.9875 1170.61 47.9875 1161.89 Q47.9875 1153.14 51.043 1148.55 Q54.1217 1143.95 59.9319 1143.95 Z" fill="#000000" fill-rule="nonzero" fill-opacity="1" /><path clip-path="url(#clip470)" d="M80.0938 1173.25 L84.978 1173.25 L84.978 1179.13 L80.0938 1179.13 L80.0938 1173.25 Z" fill="#000000" fill-rule="nonzero" fill-opacity="1" /><path clip-path="url(#clip470)" d="M95.2095 1144.57 L113.566 1144.57 L113.566 1148.51 L99.4918 1148.51 L99.4918 1156.98 Q100.51 1156.63 101.529 1156.47 Q102.547 1156.29 103.566 1156.29 Q109.353 1156.29 112.733 1159.46 Q116.112 1162.63 116.112 1168.05 Q116.112 1173.62 112.64 1176.73 Q109.168 1179.8 102.848 1179.8 Q100.672 1179.8 98.4039 1179.43 Q96.1585 1179.06 93.7511 1178.32 L93.7511 1173.62 Q95.8345 1174.76 98.0567 1175.31 Q100.279 1175.87 102.756 1175.87 Q106.76 1175.87 109.098 1173.76 Q111.436 1171.66 111.436 1168.05 Q111.436 1164.43 109.098 1162.33 Q106.76 1160.22 102.756 1160.22 Q100.881 1160.22 99.0057 1160.64 Q97.1539 1161.05 95.2095 1161.93 L95.2095 1144.57 Z" fill="#000000" fill-rule="nonzero" fill-opacity="1" /><path clip-path="url(#clip470)" d="M49.7467 932.874 L57.3856 932.874 L57.3856 906.508 L49.0754 908.175 L49.0754 903.916 L57.3393 902.249 L62.0152 902.249 L62.0152 932.874 L69.654 932.874 L69.654 936.809 L49.7467 936.809 L49.7467 932.874 Z" fill="#000000" fill-rule="nonzero" fill-opacity="1" /><path clip-path="url(#clip470)" d="M79.0984 930.929 L83.9827 930.929 L83.9827 936.809 L79.0984 936.809 L79.0984 930.929 Z" fill="#000000" fill-rule="nonzero" fill-opacity="1" /><path clip-path="url(#clip470)" d="M104.168 905.328 Q100.557 905.328 98.728 908.893 Q96.9224 912.434 96.9224 919.564 Q96.9224 926.67 98.728 930.235 Q100.557 933.777 104.168 933.777 Q107.802 933.777 109.608 930.235 Q111.436 926.67 111.436 919.564 Q111.436 912.434 109.608 908.893 Q107.802 905.328 104.168 905.328 M104.168 901.624 Q109.978 901.624 113.033 906.231 Q116.112 910.814 116.112 919.564 Q116.112 928.291 113.033 932.897 Q109.978 937.48 104.168 937.48 Q98.3576 937.48 95.2789 932.897 Q92.2234 928.291 92.2234 919.564 Q92.2234 910.814 95.2789 906.231 Q98.3576 901.624 104.168 901.624 Z" fill="#000000" fill-rule="nonzero" fill-opacity="1" /><path clip-path="url(#clip470)" d="M50.7421 690.55 L58.381 690.55 L58.381 664.184 L50.0708 665.851 L50.0708 661.591 L58.3347 659.925 L63.0106 659.925 L63.0106 690.55 L70.6494 690.55 L70.6494 694.485 L50.7421 694.485 L50.7421 690.55 Z" fill="#000000" fill-rule="nonzero" fill-opacity="1" /><path clip-path="url(#clip470)" d="M80.0938 688.605 L84.978 688.605 L84.978 694.485 L80.0938 694.485 L80.0938 688.605 Z" fill="#000000" fill-rule="nonzero" fill-opacity="1" /><path clip-path="url(#clip470)" d="M95.2095 659.925 L113.566 659.925 L113.566 663.86 L99.4918 663.86 L99.4918 672.332 Q100.51 671.985 101.529 671.823 Q102.547 671.638 103.566 671.638 Q109.353 671.638 112.733 674.809 Q116.112 677.98 116.112 683.397 Q116.112 688.976 112.64 692.077 Q109.168 695.156 102.848 695.156 Q100.672 695.156 98.4039 694.786 Q96.1585 694.415 93.7511 693.675 L93.7511 688.976 Q95.8345 690.11 98.0567 690.665 Q100.279 691.221 102.756 691.221 Q106.76 691.221 109.098 689.114 Q111.436 687.008 111.436 683.397 Q111.436 679.786 109.098 677.679 Q106.76 675.573 102.756 675.573 Q100.881 675.573 99.0057 675.99 Q97.1539 676.406 95.2095 677.286 L95.2095 659.925 Z" fill="#000000" fill-rule="nonzero" fill-opacity="1" /><path clip-path="url(#clip470)" d="M52.9643 448.225 L69.2837 448.225 L69.2837 452.161 L47.3393 452.161 L47.3393 448.225 Q50.0014 445.471 54.5847 440.841 Q59.1911 436.188 60.3717 434.846 Q62.617 432.323 63.4967 430.587 Q64.3994 428.827 64.3994 427.138 Q64.3994 424.383 62.455 422.647 Q60.5337 420.911 57.4319 420.911 Q55.2328 420.911 52.7791 421.675 Q50.3486 422.439 47.5708 423.989 L47.5708 419.267 Q50.3949 418.133 52.8486 417.554 Q55.3023 416.976 57.3393 416.976 Q62.7096 416.976 65.9041 419.661 Q69.0985 422.346 69.0985 426.837 Q69.0985 428.966 68.2883 430.888 Q67.5013 432.786 65.3948 435.378 Q64.8161 436.05 61.7143 439.267 Q58.6124 442.462 52.9643 448.225 Z" fill="#000000" fill-rule="nonzero" fill-opacity="1" /><path clip-path="url(#clip470)" d="M79.0984 446.281 L83.9827 446.281 L83.9827 452.161 L79.0984 452.161 L79.0984 446.281 Z" fill="#000000" fill-rule="nonzero" fill-opacity="1" /><path clip-path="url(#clip470)" d="M104.168 420.679 Q100.557 420.679 98.728 424.244 Q96.9224 427.786 96.9224 434.915 Q96.9224 442.022 98.728 445.587 Q100.557 449.128 104.168 449.128 Q107.802 449.128 109.608 445.587 Q111.436 442.022 111.436 434.915 Q111.436 427.786 109.608 424.244 Q107.802 420.679 104.168 420.679 M104.168 416.976 Q109.978 416.976 113.033 421.582 Q116.112 426.165 116.112 434.915 Q116.112 443.642 113.033 448.249 Q109.978 452.832 104.168 452.832 Q98.3576 452.832 95.2789 448.249 Q92.2234 443.642 92.2234 434.915 Q92.2234 426.165 95.2789 421.582 Q98.3576 416.976 104.168 416.976 Z" fill="#000000" fill-rule="nonzero" fill-opacity="1" /><path clip-path="url(#clip470)" d="M53.9597 205.901 L70.279 205.901 L70.279 209.836 L48.3347 209.836 L48.3347 205.901 Q50.9967 203.147 55.58 198.517 Q60.1865 193.864 61.367 192.522 Q63.6124 189.999 64.492 188.262 Q65.3948 186.503 65.3948 184.813 Q65.3948 182.059 63.4504 180.323 Q61.5291 178.587 58.4272 178.587 Q56.2282 178.587 53.7745 179.35 Q51.344 180.114 48.5662 181.665 L48.5662 176.943 Q51.3903 175.809 53.8439 175.23 Q56.2976 174.651 58.3347 174.651 Q63.705 174.651 66.8994 177.337 Q70.0939 180.022 70.0939 184.512 Q70.0939 186.642 69.2837 188.563 Q68.4966 190.461 66.3902 193.054 Q65.8115 193.725 62.7096 196.943 Q59.6078 200.137 53.9597 205.901 Z" fill="#000000" fill-rule="nonzero" fill-opacity="1" /><path clip-path="url(#clip470)" d="M80.0938 203.957 L84.978 203.957 L84.978 209.836 L80.0938 209.836 L80.0938 203.957 Z" fill="#000000" fill-rule="nonzero" fill-opacity="1" /><path clip-path="url(#clip470)" d="M95.2095 175.276 L113.566 175.276 L113.566 179.212 L99.4918 179.212 L99.4918 187.684 Q100.51 187.336 101.529 187.174 Q102.547 186.989 103.566 186.989 Q109.353 186.989 112.733 190.161 Q116.112 193.332 116.112 198.748 Q116.112 204.327 112.64 207.429 Q109.168 210.508 102.848 210.508 Q100.672 210.508 98.4039 210.137 Q96.1585 209.767 93.7511 209.026 L93.7511 204.327 Q95.8345 205.461 98.0567 206.017 Q100.279 206.572 102.756 206.572 Q106.76 206.572 109.098 204.466 Q111.436 202.36 111.436 198.748 Q111.436 195.137 109.098 193.031 Q106.76 190.924 102.756 190.924 Q100.881 190.924 99.0057 191.341 Q97.1539 191.758 95.2095 192.637 L95.2095 175.276 Z" fill="#000000" fill-rule="nonzero" fill-opacity="1" /><polyline clip-path="url(#clip472)" style="stroke:#009af9; stroke-linecap:round; stroke-linejoin:round; stroke-width:12; stroke-opacity:1; fill:none" points="164.112,1404.18 167.104,1403.69 170.095,1403.21 173.087,1402.72 176.079,1402.24 179.07,1401.75 182.062,1401.27 185.054,1400.78 188.045,1400.3 191.037,1399.81 194.028,1399.33 197.02,1398.84 200.012,1398.36 203.003,1397.87 205.995,1397.39 208.987,1396.9 211.978,1396.42 214.97,1395.93 217.962,1395.44 220.953,1394.96 223.945,1394.47 226.936,1393.99 229.928,1393.5 232.92,1393.02 235.911,1392.53 238.903,1392.05 241.895,1391.56 244.886,1391.08 247.878,1390.59 250.87,1390.11 253.861,1389.62 256.853,1389.14 259.844,1388.65 262.836,1388.17 265.828,1387.68 268.819,1387.19 271.811,1386.71 274.803,1386.22 277.794,1385.74 280.786,1385.25 283.778,1384.77 286.769,1384.28 289.761,1383.8 292.752,1383.31 295.744,1382.82 298.736,1382.34 301.727,1381.85 304.719,1381.37 307.711,1380.88 310.702,1380.4 313.694,1379.91 316.686,1379.42 319.677,1378.94 322.669,1378.45 325.66,1377.97 328.652,1377.48 331.644,1377 334.635,1376.51 337.627,1376.02 340.619,1375.54 343.61,1375.05 346.602,1374.57 349.594,1374.08 352.585,1373.59 355.577,1373.11 358.568,1372.62 361.56,1372.14 364.552,1371.65 367.543,1371.16 370.535,1370.68 373.527,1370.19 376.518,1369.7 379.51,1369.22 382.502,1368.73 385.493,1368.24 388.485,1367.76 391.476,1367.27 394.468,1366.79 397.46,1366.3 400.451,1365.81 403.443,1365.33 406.435,1364.84 409.426,1364.35 412.418,1363.87 415.41,1363.38 418.401,1362.89 421.393,1362.4 424.384,1361.92 427.376,1361.43 430.368,1360.94 433.359,1360.46 436.351,1359.97 439.343,1359.48 442.334,1358.99 445.326,1358.51 448.317,1358.02 451.309,1357.53 454.301,1357.05 457.292,1356.56 460.284,1356.07 463.276,1355.58 466.267,1355.1 469.259,1354.61 472.251,1354.12 475.242,1353.63 478.234,1353.14 481.225,1352.66 484.217,1352.17 487.209,1351.68 490.2,1351.19 493.192,1350.7 496.184,1350.22 499.175,1349.73 502.167,1349.24 505.159,1348.75 508.15,1348.26 511.142,1347.78 514.133,1347.29 517.125,1346.8 520.117,1346.31 523.108,1345.82 526.1,1345.33 529.092,1344.84 532.083,1344.36 535.075,1343.87 538.067,1343.38 541.058,1342.89 544.05,1342.4 547.041,1341.91 550.033,1341.42 553.025,1340.93 556.016,1340.44 559.008,1339.95 562,1339.46 564.991,1338.97 567.983,1338.48 570.975,1338 573.966,1337.51 576.958,1337.02 579.949,1336.53 582.941,1336.04 585.933,1335.55 588.924,1335.06 591.916,1334.57 594.908,1334.08 597.899,1333.59 600.891,1333.1 603.883,1332.61 606.874,1332.11 609.866,1331.62 612.857,1331.13 615.849,1330.64 618.841,1330.15 621.832,1329.66 624.824,1329.17 627.816,1328.68 630.807,1328.19 633.799,1327.7 636.791,1327.21 639.782,1326.72 642.774,1326.22 645.765,1325.73 648.757,1325.24 651.749,1324.75 654.74,1324.26 657.732,1323.77 660.724,1323.27 663.715,1322.78 666.707,1322.29 669.699,1321.8 672.69,1321.31 675.682,1320.81 678.673,1320.32 681.665,1319.83 684.657,1319.34 687.648,1318.84 690.64,1318.35 693.632,1317.86 696.623,1317.37 699.615,1316.87 702.607,1316.38 705.598,1315.89 708.59,1315.39 711.581,1314.9 714.573,1314.41 717.565,1313.91 720.556,1313.42 723.548,1312.93 726.54,1312.43 729.531,1311.94 732.523,1311.45 735.514,1310.95 738.506,1310.46 741.498,1309.96 744.489,1309.47 747.481,1308.97 750.473,1308.48 753.464,1307.99 756.456,1307.49 759.448,1307 762.439,1306.5 765.431,1306.01 768.422,1305.51 771.414,1305.02 774.406,1304.52 777.397,1304.03 780.389,1303.53 783.381,1303.03 786.372,1302.54 789.364,1302.04 792.356,1301.55 795.347,1301.05 798.339,1300.56 801.33,1300.06 804.322,1299.56 807.314,1299.07 810.305,1298.57 813.297,1298.07 816.289,1297.58 819.28,1297.08 822.272,1296.58 825.264,1296.09 828.255,1295.59 831.247,1295.09 834.238,1294.59 837.23,1294.1 840.222,1293.6 843.213,1293.1 846.205,1292.6 849.197,1292.11 852.188,1291.61 855.18,1291.11 858.172,1290.61 861.163,1290.11 864.155,1289.62 867.146,1289.12 870.138,1288.62 873.13,1288.12 876.121,1287.62 879.113,1287.12 882.105,1286.62 885.096,1286.12 888.088,1285.62 891.08,1285.12 894.071,1284.62 897.063,1284.12 900.054,1283.62 903.046,1283.12 906.038,1282.62 909.029,1282.12 912.021,1281.62 915.013,1281.12 918.004,1280.62 920.996,1280.12 923.988,1279.62 926.979,1279.12 929.971,1278.62 932.962,1278.12 935.954,1277.62 938.946,1277.12 941.937,1276.61 944.929,1276.11 947.921,1275.61 950.912,1275.11 953.904,1274.61 956.896,1274.1 959.887,1273.6 962.879,1273.1 965.87,1272.6 968.862,1272.09 971.854,1271.59 974.845,1271.09 977.837,1270.58 980.829,1270.08 983.82,1269.58 986.812,1269.07 989.804,1268.57 992.795,1268.07 995.787,1267.56 998.778,1267.06 1001.77,1266.55 1004.76,1266.05 1007.75,1265.55 1010.74,1265.04 1013.74,1264.54 1016.73,1264.03 1019.72,1263.53 1022.71,1263.02 1025.7,1262.52 1028.69,1262.01 1031.69,1261.5 1034.68,1261 1037.67,1260.49 1040.66,1259.99 1043.65,1259.48 1046.64,1258.97 1049.64,1258.47 1052.63,1257.96 1055.62,1257.45 1058.61,1256.95 1061.6,1256.44 1064.59,1255.93 1067.59,1255.43 1070.58,1254.92 1073.57,1254.41 1076.56,1253.9 1079.55,1253.39 1082.54,1252.89 1085.54,1252.38 1088.53,1251.87 1091.52,1251.36 1094.51,1250.85 1097.5,1250.34 1100.49,1249.83 1103.49,1249.32 1106.48,1248.82 1109.47,1248.31 1112.46,1247.8 1115.45,1247.29 1118.44,1246.78 1121.44,1246.27 1124.43,1245.76 1127.42,1245.25 1130.41,1244.73 1133.4,1244.22 1136.39,1243.71 1139.39,1243.2 1142.38,1242.69 1145.37,1242.18 1148.36,1241.67 1151.35,1241.16 1154.34,1240.64 1157.34,1240.13 1160.33,1239.62 1163.32,1239.11 1166.31,1238.59 1169.3,1238.08 1172.29,1237.57 1175.28,1237.06 1178.28,1236.54 1181.27,1236.03 1184.26,1235.52 1187.25,1235 1190.24,1234.49 1193.23,1233.97 1196.23,1233.46 1199.22,1232.95 1202.21,1232.43 1205.2,1231.92 1208.19,1231.4 1211.18,1230.89 1214.18,1230.37 1217.17,1229.85 1220.16,1229.34 1223.15,1228.82 1226.14,1228.31 1229.13,1227.79 1232.13,1227.27 1235.12,1226.76 1238.11,1226.24 1241.1,1225.72 1244.09,1225.21 1247.08,1224.69 1250.08,1224.17 1253.07,1223.66 1256.06,1223.14 1259.05,1222.62 1262.04,1222.1 1265.03,1221.58 1268.03,1221.06 1271.02,1220.55 1274.01,1220.03 1277,1219.51 1279.99,1218.99 1282.98,1218.47 1285.98,1217.95 1288.97,1217.43 1291.96,1216.91 1294.95,1216.39 1297.94,1215.87 1300.93,1215.35 1303.93,1214.83 1306.92,1214.31 1309.91,1213.79 1312.9,1213.26 1315.89,1212.74 1318.88,1212.22 1321.88,1211.7 1324.87,1211.18 1327.86,1210.66 1330.85,1210.13 1333.84,1209.61 1336.83,1209.09 1339.82,1208.56 1342.82,1208.04 1345.81,1207.52 1348.8,1206.99 1351.79,1206.47 1354.78,1205.95 1357.77,1205.42 1360.77,1204.9 1363.76,1204.37 1366.75,1203.85 1369.74,1203.32 1372.73,1202.8 1375.72,1202.27 1378.72,1201.75 1381.71,1201.22 1384.7,1200.69 1387.69,1200.17 1390.68,1199.64 1393.67,1199.12 1396.67,1198.59 1399.66,1198.06 1402.65,1197.53 1405.64,1197.01 1408.63,1196.48 1411.62,1195.95 1414.62,1195.42 1417.61,1194.89 1420.6,1194.37 1423.59,1193.84 1426.58,1193.31 1429.57,1192.78 1432.57,1192.25 1435.56,1191.72 1438.55,1191.19 1441.54,1190.66 1444.53,1190.13 1447.52,1189.6 1450.52,1189.07 1453.51,1188.54 1456.5,1188.01 1459.49,1187.48 1462.48,1186.94 1465.47,1186.41 1468.47,1185.88 1471.46,1185.35 1474.45,1184.82 1477.44,1184.28 1480.43,1183.75 1483.42,1183.22 1486.41,1182.68 1489.41,1182.15 1492.4,1181.62 1495.39,1181.08 1498.38,1180.55 1501.37,1180.01 1504.36,1179.48 1507.36,1178.94 1510.35,1178.41 1513.34,1177.87 1516.33,1177.34 1519.32,1176.8 1522.31,1176.27 1525.31,1175.73 1528.3,1175.19 1531.29,1174.66 1534.28,1174.12 1537.27,1173.58 1540.26,1173.05 1543.26,1172.51 1546.25,1171.97 1549.24,1171.43 1552.23,1170.89 1555.22,1170.36 1558.21,1169.82 1561.21,1169.28 1564.2,1168.74 1567.19,1168.2 1570.18,1167.66 1573.17,1167.12 1576.16,1166.58 1579.16,1166.04 1582.15,1165.5 1585.14,1164.96 1588.13,1164.42 1591.12,1163.88 1594.11,1163.33 1597.11,1162.79 1600.1,1162.25 1603.09,1161.71 1606.08,1161.16 1609.07,1160.62 1612.06,1160.08 1615.06,1159.54 1618.05,1158.99 1621.04,1158.45 1624.03,1157.9 1627.02,1157.36 1630.01,1156.82 1633.01,1156.27 1636,1155.73 1638.99,1155.18 1641.98,1154.63 1644.97,1154.09 1647.96,1153.54 1650.95,1153 1653.95,1152.45 1656.94,1151.9 1659.93,1151.36 1662.92,1150.81 1665.91,1150.26 1668.9,1149.71 1671.9,1149.17 1674.89,1148.62 1677.88,1148.07 1680.87,1147.52 1683.86,1146.97 1686.85,1146.42 1689.85,1145.87 1692.84,1145.32 1695.83,1144.77 1698.82,1144.22 1701.81,1143.67 1704.8,1143.12 1707.8,1142.57 1710.79,1142.02 1713.78,1141.47 1716.77,1140.91 1719.76,1140.36 1722.75,1139.81 1725.75,1139.26 1728.74,1138.7 1731.73,1138.15 1734.72,1137.6 1737.71,1137.04 1740.7,1136.49 1743.7,1135.93 1746.69,1135.38 1749.68,1134.82 1752.67,1134.27 1755.66,1133.71 1758.65,1133.16 1761.65,1132.6 1764.64,1132.05 1767.63,1131.49 1770.62,1130.93 1773.61,1130.38 1776.6,1129.82 1779.6,1129.26 1782.59,1128.7 1785.58,1128.14 1788.57,1127.59 1791.56,1127.03 1794.55,1126.47 1797.55,1125.91 1800.54,1125.35 1803.53,1124.79 1806.52,1124.23 1809.51,1123.67 1812.5,1123.11 1815.49,1122.55 1818.49,1121.99 1821.48,1121.42 1824.47,1120.86 1827.46,1120.3 1830.45,1119.74 1833.44,1119.18 1836.44,1118.61 1839.43,1118.05 1842.42,1117.49 1845.41,1116.92 1848.4,1116.36 1851.39,1115.79 1854.39,1115.23 1857.38,1114.66 1860.37,1114.1 1863.36,1113.53 1866.35,1112.97 1869.34,1112.4 1872.34,1111.83 1875.33,1111.27 1878.32,1110.7 1881.31,1110.13 1884.3,1109.57 1887.29,1109 1890.29,1108.43 1893.28,1107.86 1896.27,1107.29 1899.26,1106.72 1902.25,1106.15 1905.24,1105.58 1908.24,1105.01 1911.23,1104.44 1914.22,1103.87 1917.21,1103.3 1920.2,1102.73 1923.19,1102.16 1926.19,1101.59 1929.18,1101.02 1932.17,1100.44 1935.16,1099.87 1938.15,1099.3 1941.14,1098.73 1944.14,1098.15 1947.13,1097.58 1950.12,1097 1953.11,1096.43 1956.1,1095.85 1959.09,1095.28 1962.09,1094.7 1965.08,1094.13 1968.07,1093.55 1971.06,1092.98 1974.05,1092.4 1977.04,1091.82 1980.03,1091.24 1983.03,1090.67 1986.02,1090.09 1989.01,1089.51 1992,1088.93 1994.99,1088.35 1997.98,1087.77 2000.98,1087.19 2003.97,1086.61 2006.96,1086.03 2009.95,1085.45 2012.94,1084.87 2015.93,1084.29 2018.93,1083.71 2021.92,1083.13 2024.91,1082.55 2027.9,1081.96 2030.89,1081.38 2033.88,1080.8 2036.88,1080.22 2039.87,1079.63 2042.86,1079.05 2045.85,1078.46 2048.84,1077.88 2051.83,1077.29 2054.83,1076.71 2057.82,1076.12 2060.81,1075.54 2063.8,1074.95 2066.79,1074.36 2069.78,1073.78 2072.78,1073.19 2075.77,1072.6 2078.76,1072.01 2081.75,1071.43 2084.74,1070.84 2087.73,1070.25 2090.73,1069.66 2093.72,1069.07 2096.71,1068.48 2099.7,1067.89 2102.69,1067.3 2105.68,1066.71 2108.68,1066.12 2111.67,1065.52 2114.66,1064.93 2117.65,1064.34 2120.64,1063.75 2123.63,1063.15 2126.62,1062.56 2129.62,1061.97 2132.61,1061.37 2135.6,1060.78 2138.59,1060.18 2141.58,1059.59 2144.57,1058.99 2147.57,1058.4 2150.56,1057.8 2153.55,1057.2 2156.54,1056.61 2159.53,1056.01 2162.52,1055.41 2165.52,1054.82 2168.51,1054.22 2171.5,1053.62 2174.49,1053.02 2177.48,1052.42 2180.47,1051.82 2183.47,1051.22 2186.46,1050.62 2189.45,1050.02 2192.44,1049.42 2195.43,1048.82 2198.42,1048.22 2201.42,1047.61 2204.41,1047.01 2207.4,1046.41 2210.39,1045.8 2213.38,1045.2 2216.37,1044.6 2219.37,1043.99 2222.36,1043.39 2225.35,1042.78 2228.34,1042.18 2231.33,1041.57 2234.32,1040.97 2237.32,1040.36 2240.31,1039.75 2243.3,1039.15 2246.29,1038.54 2249.28,1037.93 2252.27,1037.32 2255.27,1036.71 2258.26,1036.1 2261.25,1035.5 2264.24,1034.89 2267.23,1034.28 2270.22,1033.67 2273.22,1033.05 2276.21,1032.44 2279.2,1031.83 2282.19,1031.22 2285.18,1030.61 2288.17,1029.99 2291.16,1029.38 2294.16,1028.77 2297.15,1028.15 2300.14,1027.54 2303.13,1026.93 2306.12,1026.31 2309.11,1025.69 2312.11,1025.08 2315.1,1024.46 2318.09,1023.85 2321.08,1023.23 2324.07,1022.61 2327.06,1021.99 2330.06,1021.38 2333.05,1020.76 2336.04,1020.14 2339.03,1019.52 2342.02,1018.9 2345.01,1018.28 2348.01,1017.66 2351,1017.04 2353.99,1016.42 2356.98,1015.8 2359.97,1015.18 2362.96,1014.55 2365.96,1013.93 2368.95,1013.31 2371.94,1012.68 2374.93,1012.06 2377.92,1011.44 2380.91,1010.81 2383.91,1010.19 2386.9,1009.56 2389.89,1008.94 2392.88,1008.31 2395.87,1007.68 2398.86,1007.06 2401.86,1006.43 2404.85,1005.8 2407.84,1005.17 2410.83,1004.54 2413.82,1003.91 2416.81,1003.28 2419.81,1002.66 2422.8,1002.02 2425.79,1001.39 2428.78,1000.76 2431.77,1000.13 2434.76,999.5 2437.76,998.868 2440.75,998.235 2443.74,997.602 2446.73,996.969 2449.72,996.335 2452.71,995.701 2455.7,995.066 2458.7,994.431 2461.69,993.795 2464.68,993.159 2467.67,992.523 2470.66,991.886 2473.65,991.249 2476.65,990.612 2479.64,989.974 2482.63,989.335 2485.62,988.697 2488.61,988.057 2491.6,987.418 2494.6,986.778 2497.59,986.137 2500.58,985.496 2503.57,984.855 2506.56,984.213 2509.55,983.571 2512.55,982.929 2515.54,982.286 2518.53,981.642 2521.52,980.998 2524.51,980.354 2527.5,979.709 2530.5,979.064 2533.49,978.419 2536.48,977.773 2539.47,977.126 2542.46,976.48 2545.45,975.832 2548.45,975.185 2551.44,974.537 2554.43,973.888 2557.42,973.239 2560.41,972.59 2563.4,971.94 2566.4,971.29 2569.39,970.639 2572.38,969.988 2575.37,969.336 2578.36,968.684 2581.35,968.032 2584.35,967.379 2587.34,966.726 2590.33,966.072 2593.32,965.418 2596.31,964.763 2599.3,964.108 2602.29,963.452 2605.29,962.797 2608.28,962.14 2611.27,961.483 2614.26,960.826 2617.25,960.168 2620.24,959.51 2623.24,958.851 2626.23,958.192 2629.22,957.533 2632.21,956.873 2635.2,956.213 2638.19,955.552 2641.19,954.89 2644.18,954.229 2647.17,953.566 2650.16,952.904 2653.15,952.241 2656.14,951.577 2659.14,950.913 2662.13,950.249 2665.12,949.584 2668.11,948.918 2671.1,948.253 2674.09,947.586 2677.09,946.919 2680.08,946.252 2683.07,945.585 2686.06,944.916 2689.05,944.248 2692.04,943.579 2695.04,942.909 2698.03,942.239 2701.02,941.569 2704.01,940.898 2707,940.227 2709.99,939.555 2712.99,938.883 2715.98,938.21 2718.97,937.537 2721.96,936.863 2724.95,936.189 2727.94,935.514 2730.94,934.839 2733.93,934.163 2736.92,933.487 2739.91,932.811 2742.9,932.134 2745.89,931.456 2748.89,930.779 2751.88,930.1 2754.87,929.421 2757.86,928.742 2760.85,928.062 2763.84,927.382 2766.83,926.701 2769.83,926.02 2772.82,925.338 2775.81,924.656 2778.8,923.973 2781.79,923.29 2784.78,922.606 2787.78,921.922 2790.77,921.237 2793.76,920.552 2796.75,919.867 2799.74,919.181 2802.73,918.494 2805.73,917.807 2808.72,917.119 2811.71,916.431 2814.7,915.743 2817.69,915.054 2820.68,914.364 2823.68,913.674 2826.67,912.984 2829.66,912.293 2832.65,911.601 2835.64,910.909 2838.63,910.217 2841.63,909.524 2844.62,908.831 2847.61,908.137 2850.6,907.442 2853.59,906.747 2856.58,906.052 2859.58,905.356 2862.57,904.659 2865.56,903.963 2868.55,903.265 2871.54,902.567 2874.53,901.869 2877.53,901.17 2880.52,900.47 2883.51,899.77 2886.5,899.07 2889.49,898.369 2892.48,897.667 2895.48,896.966 2898.47,896.263 2901.46,895.56 2904.45,894.857 2907.44,894.152 2910.43,893.448 2913.43,892.743 2916.42,892.037 2919.41,891.331 2922.4,890.625 2925.39,889.918 2928.38,889.21 2931.37,888.502 2934.37,887.793 2937.36,887.084 2940.35,886.374 2943.34,885.664 2946.33,884.954 2949.32,884.242 2952.32,883.531 2955.31,882.818 2958.3,882.105 2961.29,881.392 2964.28,880.678 2967.27,879.964 2970.27,879.249 2973.26,878.534 2976.25,877.818 2979.24,877.101 2982.23,876.384 2985.22,875.667 2988.22,874.949 2991.21,874.23 2994.2,873.511 2997.19,872.791 3000.18,872.071 3003.17,871.35 3006.17,870.629 3009.16,869.907 3012.15,869.185 3015.14,868.462 3018.13,867.739 3021.12,867.015 3024.12,866.29 3027.11,865.565 3030.1,864.84 3033.09,864.113 3036.08,863.387 3039.07,862.66 3042.07,861.932 3045.06,861.204 3048.05,860.475 3051.04,859.746 3054.03,859.016 3057.02,858.285 3060.02,857.554 3063.01,856.823 3066,856.091 3068.99,855.358 3071.98,854.625 3074.97,853.891 3077.97,853.157 3080.96,852.422 3083.95,851.686 3086.94,850.951 3089.93,850.214 3092.92,849.477 3095.91,848.739 3098.91,848.001 3101.9,847.262 3104.89,846.523 3107.88,845.783 3110.87,845.043 3113.86,844.302 3116.86,843.56 3119.85,842.818 3122.84,842.076 3125.83,841.332 3128.82,840.589 3131.81,839.844 3134.81,839.099 3137.8,838.354 3140.79,837.608 3143.78,836.861 3146.77,836.114 3149.76,835.366 3152.76,834.618 "/>
<polyline clip-path="url(#clip472)" style="stroke:#e26f46; stroke-linecap:round; stroke-linejoin:round; stroke-width:12; stroke-opacity:1; fill:none" points="164.112,919.529 167.104,919.044 170.095,918.558 173.087,918.071 176.079,917.585 179.07,917.097 182.062,916.609 185.054,916.121 188.045,915.632 191.037,915.143 194.028,914.653 197.02,914.163 200.012,913.672 203.003,913.181 205.995,912.689 208.987,912.197 211.978,911.704 214.97,911.211 217.962,910.718 220.953,910.223 223.945,909.729 226.936,909.233 229.928,908.738 232.92,908.242 235.911,907.745 238.903,907.248 241.895,906.75 244.886,906.252 247.878,905.753 250.87,905.254 253.861,904.754 256.853,904.254 259.844,903.753 262.836,903.252 265.828,902.751 268.819,902.248 271.811,901.746 274.803,901.243 277.794,900.739 280.786,900.235 283.778,899.73 286.769,899.225 289.761,898.719 292.752,898.213 295.744,897.706 298.736,897.199 301.727,896.691 304.719,896.183 307.711,895.674 310.702,895.165 313.694,894.655 316.686,894.145 319.677,893.634 322.669,893.123 325.66,892.611 328.652,892.099 331.644,891.586 334.635,891.072 337.627,890.558 340.619,890.044 343.61,889.529 346.602,889.014 349.594,888.498 352.585,887.981 355.577,887.464 358.568,886.947 361.56,886.429 364.552,885.91 367.543,885.391 370.535,884.872 373.527,884.352 376.518,883.831 379.51,883.31 382.502,882.788 385.493,882.266 388.485,881.743 391.476,881.22 394.468,880.696 397.46,880.172 400.451,879.647 403.443,879.122 406.435,878.596 409.426,878.07 412.418,877.543 415.41,877.016 418.401,876.488 421.393,875.959 424.384,875.43 427.376,874.901 430.368,874.37 433.359,873.84 436.351,873.309 439.343,872.777 442.334,872.245 445.326,871.712 448.317,871.179 451.309,870.645 454.301,870.111 457.292,869.576 460.284,869.04 463.276,868.505 466.267,867.968 469.259,867.431 472.251,866.893 475.242,866.355 478.234,865.817 481.225,865.278 484.217,864.738 487.209,864.198 490.2,863.657 493.192,863.115 496.184,862.574 499.175,862.031 502.167,861.488 505.159,860.945 508.15,860.401 511.142,859.856 514.133,859.311 517.125,858.765 520.117,858.219 523.108,857.672 526.1,857.125 529.092,856.577 532.083,856.029 535.075,855.48 538.067,854.93 541.058,854.38 544.05,853.829 547.041,853.278 550.033,852.727 553.025,852.174 556.016,851.621 559.008,851.068 562,850.514 564.991,849.96 567.983,849.405 570.975,848.849 573.966,848.293 576.958,847.736 579.949,847.179 582.941,846.621 585.933,846.063 588.924,845.504 591.916,844.944 594.908,844.384 597.899,843.823 600.891,843.262 603.883,842.7 606.874,842.138 609.866,841.575 612.857,841.012 615.849,840.448 618.841,839.883 621.832,839.318 624.824,838.752 627.816,838.186 630.807,837.619 633.799,837.052 636.791,836.484 639.782,835.915 642.774,835.346 645.765,834.776 648.757,834.206 651.749,833.635 654.74,833.064 657.732,832.492 660.724,831.919 663.715,831.346 666.707,830.773 669.699,830.198 672.69,829.624 675.682,829.048 678.673,828.472 681.665,827.896 684.657,827.318 687.648,826.741 690.64,826.162 693.632,825.584 696.623,825.004 699.615,824.424 702.607,823.843 705.598,823.262 708.59,822.68 711.581,822.098 714.573,821.515 717.565,820.932 720.556,820.347 723.548,819.763 726.54,819.177 729.531,818.592 732.523,818.005 735.514,817.418 738.506,816.83 741.498,816.242 744.489,815.653 747.481,815.064 750.473,814.474 753.464,813.883 756.456,813.292 759.448,812.7 762.439,812.108 765.431,811.515 768.422,810.922 771.414,810.327 774.406,809.733 777.397,809.137 780.389,808.541 783.381,807.945 786.372,807.348 789.364,806.75 792.356,806.152 795.347,805.553 798.339,804.953 801.33,804.353 804.322,803.752 807.314,803.151 810.305,802.549 813.297,801.947 816.289,801.343 819.28,800.74 822.272,800.135 825.264,799.53 828.255,798.925 831.247,798.319 834.238,797.712 837.23,797.105 840.222,796.497 843.213,795.888 846.205,795.279 849.197,794.669 852.188,794.059 855.18,793.447 858.172,792.836 861.163,792.224 864.155,791.611 867.146,790.997 870.138,790.383 873.13,789.768 876.121,789.153 879.113,788.537 882.105,787.921 885.096,787.303 888.088,786.686 891.08,786.067 894.071,785.448 897.063,784.828 900.054,784.208 903.046,783.587 906.038,782.966 909.029,782.344 912.021,781.721 915.013,781.097 918.004,780.473 920.996,779.849 923.988,779.223 926.979,778.598 929.971,777.971 932.962,777.344 935.954,776.716 938.946,776.088 941.937,775.459 944.929,774.829 947.921,774.199 950.912,773.568 953.904,772.936 956.896,772.304 959.887,771.671 962.879,771.038 965.87,770.404 968.862,769.769 971.854,769.134 974.845,768.498 977.837,767.861 980.829,767.224 983.82,766.586 986.812,765.947 989.804,765.308 992.795,764.668 995.787,764.028 998.778,763.387 1001.77,762.745 1004.76,762.103 1007.75,761.459 1010.74,760.816 1013.74,760.171 1016.73,759.526 1019.72,758.881 1022.71,758.235 1025.7,757.588 1028.69,756.94 1031.69,756.292 1034.68,755.643 1037.67,754.994 1040.66,754.343 1043.65,753.693 1046.64,753.041 1049.64,752.389 1052.63,751.736 1055.62,751.083 1058.61,750.429 1061.6,749.774 1064.59,749.119 1067.59,748.463 1070.58,747.806 1073.57,747.149 1076.56,746.49 1079.55,745.832 1082.54,745.172 1085.54,744.512 1088.53,743.852 1091.52,743.191 1094.51,742.529 1097.5,741.866 1100.49,741.203 1103.49,740.539 1106.48,739.874 1109.47,739.209 1112.46,738.543 1115.45,737.876 1118.44,737.209 1121.44,736.541 1124.43,735.872 1127.42,735.203 1130.41,734.533 1133.4,733.862 1136.39,733.191 1139.39,732.519 1142.38,731.846 1145.37,731.173 1148.36,730.499 1151.35,729.824 1154.34,729.149 1157.34,728.473 1160.33,727.796 1163.32,727.119 1166.31,726.441 1169.3,725.762 1172.29,725.082 1175.28,724.402 1178.28,723.722 1181.27,723.04 1184.26,722.358 1187.25,721.675 1190.24,720.991 1193.23,720.307 1196.23,719.622 1199.22,718.937 1202.21,718.251 1205.2,717.564 1208.19,716.876 1211.18,716.188 1214.18,715.499 1217.17,714.809 1220.16,714.118 1223.15,713.427 1226.14,712.736 1229.13,712.043 1232.13,711.35 1235.12,710.656 1238.11,709.962 1241.1,709.266 1244.09,708.57 1247.08,707.874 1250.08,707.176 1253.07,706.478 1256.06,705.78 1259.05,705.08 1262.04,704.38 1265.03,703.679 1268.03,702.978 1271.02,702.275 1274.01,701.572 1277,700.869 1279.99,700.164 1282.98,699.459 1285.98,698.753 1288.97,698.047 1291.96,697.34 1294.95,696.632 1297.94,695.923 1300.93,695.214 1303.93,694.504 1306.92,693.793 1309.91,693.082 1312.9,692.37 1315.89,691.657 1318.88,690.943 1321.88,690.229 1324.87,689.514 1327.86,688.798 1330.85,688.082 1333.84,687.364 1336.83,686.647 1339.82,685.928 1342.82,685.209 1345.81,684.489 1348.8,683.768 1351.79,683.046 1354.78,682.324 1357.77,681.601 1360.77,680.877 1363.76,680.153 1366.75,679.428 1369.74,678.702 1372.73,677.976 1375.72,677.248 1378.72,676.52 1381.71,675.791 1384.7,675.062 1387.69,674.332 1390.68,673.601 1393.67,672.869 1396.67,672.137 1399.66,671.404 1402.65,670.67 1405.64,669.935 1408.63,669.2 1411.62,668.464 1414.62,667.727 1417.61,666.989 1420.6,666.251 1423.59,665.512 1426.58,664.772 1429.57,664.032 1432.57,663.29 1435.56,662.548 1438.55,661.806 1441.54,661.062 1444.53,660.318 1447.52,659.573 1450.52,658.827 1453.51,658.081 1456.5,657.334 1459.49,656.586 1462.48,655.837 1465.47,655.087 1468.47,654.337 1471.46,653.586 1474.45,652.835 1477.44,652.082 1480.43,651.329 1483.42,650.575 1486.41,649.82 1489.41,649.065 1492.4,648.308 1495.39,647.551 1498.38,646.794 1501.37,646.035 1504.36,645.276 1507.36,644.516 1510.35,643.755 1513.34,642.993 1516.33,642.231 1519.32,641.468 1522.31,640.704 1525.31,639.94 1528.3,639.174 1531.29,638.408 1534.28,637.641 1537.27,636.873 1540.26,636.105 1543.26,635.336 1546.25,634.566 1549.24,633.795 1552.23,633.023 1555.22,632.251 1558.21,631.478 1561.21,630.704 1564.2,629.929 1567.19,629.154 1570.18,628.378 1573.17,627.601 1576.16,626.823 1579.16,626.045 1582.15,625.265 1585.14,624.485 1588.13,623.704 1591.12,622.923 1594.11,622.14 1597.11,621.357 1600.1,620.573 1603.09,619.788 1606.08,619.003 1609.07,618.216 1612.06,617.429 1615.06,616.641 1618.05,615.853 1621.04,615.063 1624.03,614.273 1627.02,613.482 1630.01,612.69 1633.01,611.897 1636,611.104 1638.99,610.309 1641.98,609.514 1644.97,608.719 1647.96,607.922 1650.95,607.124 1653.95,606.326 1656.94,605.527 1659.93,604.727 1662.92,603.927 1665.91,603.125 1668.9,602.323 1671.9,601.52 1674.89,600.716 1677.88,599.911 1680.87,599.106 1683.86,598.3 1686.85,597.492 1689.85,596.685 1692.84,595.876 1695.83,595.066 1698.82,594.256 1701.81,593.445 1704.8,592.633 1707.8,591.82 1710.79,591.007 1713.78,590.192 1716.77,589.377 1719.76,588.561 1722.75,587.744 1725.75,586.926 1728.74,586.108 1731.73,585.289 1734.72,584.468 1737.71,583.648 1740.7,582.826 1743.7,582.003 1746.69,581.18 1749.68,580.356 1752.67,579.53 1755.66,578.705 1758.65,577.878 1761.65,577.05 1764.64,576.222 1767.63,575.393 1770.62,574.563 1773.61,573.732 1776.6,572.9 1779.6,572.068 1782.59,571.234 1785.58,570.4 1788.57,569.565 1791.56,568.729 1794.55,567.892 1797.55,567.055 1800.54,566.217 1803.53,565.377 1806.52,564.537 1809.51,563.696 1812.5,562.855 1815.49,562.012 1818.49,561.169 1821.48,560.324 1824.47,559.479 1827.46,558.633 1830.45,557.786 1833.44,556.939 1836.44,556.09 1839.43,555.241 1842.42,554.391 1845.41,553.54 1848.4,552.688 1851.39,551.835 1854.39,550.981 1857.38,550.127 1860.37,549.272 1863.36,548.415 1866.35,547.558 1869.34,546.7 1872.34,545.842 1875.33,544.982 1878.32,544.121 1881.31,543.26 1884.3,542.398 1887.29,541.535 1890.29,540.671 1893.28,539.806 1896.27,538.94 1899.26,538.074 1902.25,537.207 1905.24,536.338 1908.24,535.469 1911.23,534.599 1914.22,533.728 1917.21,532.856 1920.2,531.984 1923.19,531.11 1926.19,530.236 1929.18,529.361 1932.17,528.485 1935.16,527.608 1938.15,526.73 1941.14,525.851 1944.14,524.971 1947.13,524.091 1950.12,523.209 1953.11,522.327 1956.1,521.444 1959.09,520.56 1962.09,519.675 1965.08,518.789 1968.07,517.902 1971.06,517.015 1974.05,516.126 1977.04,515.237 1980.03,514.347 1983.03,513.455 1986.02,512.563 1989.01,511.67 1992,510.777 1994.99,509.882 1997.98,508.986 2000.98,508.09 2003.97,507.192 2006.96,506.294 2009.95,505.395 2012.94,504.495 2015.93,503.594 2018.93,502.692 2021.92,501.789 2024.91,500.885 2027.9,499.98 2030.89,499.075 2033.88,498.168 2036.88,497.261 2039.87,496.353 2042.86,495.444 2045.85,494.533 2048.84,493.622 2051.83,492.711 2054.83,491.798 2057.82,490.884 2060.81,489.969 2063.8,489.054 2066.79,488.137 2069.78,487.22 2072.78,486.301 2075.77,485.382 2078.76,484.462 2081.75,483.541 2084.74,482.619 2087.73,481.696 2090.73,480.772 2093.72,479.847 2096.71,478.922 2099.7,477.995 2102.69,477.067 2105.68,476.139 2108.68,475.209 2111.67,474.279 2114.66,473.348 2117.65,472.416 2120.64,471.482 2123.63,470.548 2126.62,469.613 2129.62,468.677 2132.61,467.74 2135.6,466.803 2138.59,465.864 2141.58,464.924 2144.57,463.983 2147.57,463.042 2150.56,462.099 2153.55,461.156 2156.54,460.211 2159.53,459.266 2162.52,458.32 2165.52,457.372 2168.51,456.424 2171.5,455.475 2174.49,454.525 2177.48,453.574 2180.47,452.622 2183.47,451.669 2186.46,450.715 2189.45,449.76 2192.44,448.804 2195.43,447.847 2198.42,446.89 2201.42,445.931 2204.41,444.971 2207.4,444.01 2210.39,443.049 2213.38,442.086 2216.37,441.123 2219.37,440.158 2222.36,439.193 2225.35,438.226 2228.34,437.259 2231.33,436.291 2234.32,435.321 2237.32,434.351 2240.31,433.38 2243.3,432.407 2246.29,431.434 2249.28,430.46 2252.27,429.485 2255.27,428.509 2258.26,427.532 2261.25,426.553 2264.24,425.574 2267.23,424.594 2270.22,423.613 2273.22,422.631 2276.21,421.648 2279.2,420.664 2282.19,419.679 2285.18,418.693 2288.17,417.706 2291.16,416.718 2294.16,415.729 2297.15,414.739 2300.14,413.748 2303.13,412.756 2306.12,411.764 2309.11,410.77 2312.11,409.775 2315.1,408.779 2318.09,407.782 2321.08,406.784 2324.07,405.785 2327.06,404.785 2330.06,403.784 2333.05,402.782 2336.04,401.78 2339.03,400.776 2342.02,399.771 2345.01,398.765 2348.01,397.758 2351,396.75 2353.99,395.741 2356.98,394.731 2359.97,393.72 2362.96,392.708 2365.96,391.695 2368.95,390.681 2371.94,389.666 2374.93,388.65 2377.92,387.633 2380.91,386.615 2383.91,385.596 2386.9,384.576 2389.89,383.555 2392.88,382.532 2395.87,381.509 2398.86,380.485 2401.86,379.46 2404.85,378.434 2407.84,377.406 2410.83,376.378 2413.82,375.349 2416.81,374.318 2419.81,373.287 2422.8,372.254 2425.79,371.221 2428.78,370.186 2431.77,369.151 2434.76,368.114 2437.76,367.077 2440.75,366.038 2443.74,364.998 2446.73,363.958 2449.72,362.916 2452.71,361.873 2455.7,360.829 2458.7,359.784 2461.69,358.738 2464.68,357.691 2467.67,356.643 2470.66,355.594 2473.65,354.544 2476.65,353.493 2479.64,352.44 2482.63,351.387 2485.62,350.333 2488.61,349.277 2491.6,348.221 2494.6,347.163 2497.59,346.105 2500.58,345.045 2503.57,343.984 2506.56,342.922 2509.55,341.86 2512.55,340.796 2515.54,339.731 2518.53,338.665 2521.52,337.597 2524.51,336.529 2527.5,335.46 2530.5,334.39 2533.49,333.318 2536.48,332.246 2539.47,331.172 2542.46,330.098 2545.45,329.022 2548.45,327.945 2551.44,326.867 2554.43,325.788 2557.42,324.708 2560.41,323.627 2563.4,322.545 2566.4,321.462 2569.39,320.378 2572.38,319.292 2575.37,318.206 2578.36,317.118 2581.35,316.029 2584.35,314.94 2587.34,313.849 2590.33,312.757 2593.32,311.664 2596.31,310.569 2599.3,309.474 2602.29,308.378 2605.29,307.28 2608.28,306.182 2611.27,305.082 2614.26,303.982 2617.25,302.88 2620.24,301.777 2623.24,300.673 2626.23,299.567 2629.22,298.461 2632.21,297.354 2635.2,296.245 2638.19,295.136 2641.19,294.025 2644.18,292.913 2647.17,291.8 2650.16,290.686 2653.15,289.571 2656.14,288.455 2659.14,287.337 2662.13,286.219 2665.12,285.099 2668.11,283.978 2671.1,282.857 2674.09,281.734 2677.09,280.609 2680.08,279.484 2683.07,278.358 2686.06,277.23 2689.05,276.102 2692.04,274.972 2695.04,273.841 2698.03,272.709 2701.02,271.576 2704.01,270.441 2707,269.306 2709.99,268.169 2712.99,267.032 2715.98,265.893 2718.97,264.753 2721.96,263.612 2724.95,262.469 2727.94,261.326 2730.94,260.182 2733.93,259.036 2736.92,257.889 2739.91,256.741 2742.9,255.592 2745.89,254.441 2748.89,253.29 2751.88,252.137 2754.87,250.984 2757.86,249.829 2760.85,248.673 2763.84,247.515 2766.83,246.357 2769.83,245.197 2772.82,244.037 2775.81,242.875 2778.8,241.712 2781.79,240.548 2784.78,239.382 2787.78,238.216 2790.77,237.048 2793.76,235.879 2796.75,234.709 2799.74,233.538 2802.73,232.365 2805.73,231.192 2808.72,230.017 2811.71,228.841 2814.7,227.664 2817.69,226.486 2820.68,225.306 2823.68,224.126 2826.67,222.944 2829.66,221.761 2832.65,220.577 2835.64,219.391 2838.63,218.205 2841.63,217.017 2844.62,215.828 2847.61,214.638 2850.6,213.447 2853.59,212.254 2856.58,211.06 2859.58,209.865 2862.57,208.669 2865.56,207.472 2868.55,206.273 2871.54,205.074 2874.53,203.873 2877.53,202.671 2880.52,201.467 2883.51,200.263 2886.5,199.057 2889.49,197.85 2892.48,196.642 2895.48,195.433 2898.47,194.222 2901.46,193.01 2904.45,191.797 2907.44,190.583 2910.43,189.368 2913.43,188.151 2916.42,186.933 2919.41,185.714 2922.4,184.494 2925.39,183.272 2928.38,182.05 2931.37,180.826 2934.37,179.601 2937.36,178.374 2940.35,177.147 2943.34,175.918 2946.33,174.688 2949.32,173.456 2952.32,172.224 2955.31,170.99 2958.3,169.755 2961.29,168.519 2964.28,167.281 2967.27,166.042 2970.27,164.802 2973.26,163.561 2976.25,162.319 2979.24,161.075 2982.23,159.83 2985.22,158.584 2988.22,157.336 2991.21,156.087 2994.2,154.837 2997.19,153.586 3000.18,152.334 3003.17,151.08 3006.17,149.825 3009.16,148.569 3012.15,147.311 3015.14,146.053 3018.13,144.793 3021.12,143.531 3024.12,142.269 3027.11,141.005 3030.1,139.74 3033.09,138.474 3036.08,137.206 3039.07,135.937 3042.07,134.667 3045.06,133.396 3048.05,132.123 3051.04,130.849 3054.03,129.574 3057.02,128.297 3060.02,127.019 3063.01,125.74 3066,124.46 3068.99,123.178 3071.98,121.895 3074.97,120.611 3077.97,119.326 3080.96,118.039 3083.95,116.751 3086.94,115.461 3089.93,114.171 3092.92,112.879 3095.91,111.586 3098.91,110.291 3101.9,108.995 3104.89,107.698 3107.88,106.4 3110.87,105.1 3113.86,103.799 3116.86,102.497 3119.85,101.193 3122.84,99.8879 3125.83,98.5817 3128.82,97.2741 3131.81,95.9653 3134.81,94.6551 3137.8,93.3436 3140.79,92.0308 3143.78,90.7167 3146.77,89.4012 3149.76,88.0845 3152.76,86.7664 "/>
<path clip-path="url(#clip470)" d="M263.734 249.313 L594.264 249.313 L594.264 93.7926 L263.734 93.7926  Z" fill="#ffffff" fill-rule="evenodd" fill-opacity="1"/>
<polyline clip-path="url(#clip470)" style="stroke:#000000; stroke-linecap:round; stroke-linejoin:round; stroke-width:4; stroke-opacity:1; fill:none" points="263.734,249.313 594.264,249.313 594.264,93.7926 263.734,93.7926 263.734,249.313 "/>
<polyline clip-path="url(#clip470)" style="stroke:#009af9; stroke-linecap:round; stroke-linejoin:round; stroke-width:12; stroke-opacity:1; fill:none" points="296.941,145.633 496.184,145.633 "/>
<path clip-path="url(#clip470)" d="M534.067 132.195 L534.067 145.181 L539.946 145.181 Q543.21 145.181 544.993 143.491 Q546.775 141.802 546.775 138.677 Q546.775 135.575 544.993 133.885 Q543.21 132.195 539.946 132.195 L534.067 132.195 M529.391 128.353 L539.946 128.353 Q545.756 128.353 548.719 130.991 Q551.706 133.607 551.706 138.677 Q551.706 143.792 548.719 146.408 Q545.756 149.024 539.946 149.024 L534.067 149.024 L534.067 162.913 L529.391 162.913 L529.391 128.353 Z" fill="#000000" fill-rule="nonzero" fill-opacity="1" /><polyline clip-path="url(#clip470)" style="stroke:#e26f46; stroke-linecap:round; stroke-linejoin:round; stroke-width:12; stroke-opacity:1; fill:none" points="296.941,197.473 496.184,197.473 "/>
<path clip-path="url(#clip470)" d="M542.585 214.753 L529.391 180.193 L534.275 180.193 L545.224 209.29 L556.196 180.193 L561.057 180.193 L547.886 214.753 L542.585 214.753 Z" fill="#000000" fill-rule="nonzero" fill-opacity="1" /></svg>
