<?xml version="1.0" encoding="utf-8"?>
<svg xmlns="http://www.w3.org/2000/svg" xmlns:xlink="http://www.w3.org/1999/xlink" width="800" height="400" viewBox="0 0 3200 1600">
<defs>
  <clipPath id="clip280">
    <rect x="0" y="0" width="3200" height="1600"/>
  </clipPath>
</defs>
<path clip-path="url(#clip280)" d="M0 1600 L3200 1600 L3200 0 L0 0  Z" fill="#ffffff" fill-rule="evenodd" fill-opacity="1"/>
<defs>
  <clipPath id="clip281">
    <rect x="640" y="0" width="2241" height="1600"/>
  </clipPath>
</defs>
<path clip-path="url(#clip280)" d="M247.328 1396.46 L3152.76 1396.46 L3152.76 47.2441 L247.328 47.2441  Z" fill="#ffffff" fill-rule="evenodd" fill-opacity="1"/>
<defs>
  <clipPath id="clip282">
    <rect x="247" y="47" width="2906" height="1350"/>
  </clipPath>
</defs>
<polyline clip-path="url(#clip280)" style="stroke:#000000; stroke-linecap:round; stroke-linejoin:round; stroke-width:4; stroke-opacity:1; fill:none" points="247.328,1396.46 3152.76,1396.46 "/>
<polyline clip-path="url(#clip280)" style="stroke:#000000; stroke-linecap:round; stroke-linejoin:round; stroke-width:4; stroke-opacity:1; fill:none" points="247.328,47.2441 3152.76,47.2441 "/>
<polyline clip-path="url(#clip280)" style="stroke:#000000; stroke-linecap:round; stroke-linejoin:round; stroke-width:4; stroke-opacity:1; fill:none" points="247.328,1396.46 247.328,1377.56 "/>
<polyline clip-path="url(#clip280)" style="stroke:#000000; stroke-linecap:round; stroke-linejoin:round; stroke-width:4; stroke-opacity:1; fill:none" points="973.685,1396.46 973.685,1377.56 "/>
<polyline clip-path="url(#clip280)" style="stroke:#000000; stroke-linecap:round; stroke-linejoin:round; stroke-width:4; stroke-opacity:1; fill:none" points="1700.04,1396.46 1700.04,1377.56 "/>
<polyline clip-path="url(#clip280)" style="stroke:#000000; stroke-linecap:round; stroke-linejoin:round; stroke-width:4; stroke-opacity:1; fill:none" points="2426.4,1396.46 2426.4,1377.56 "/>
<polyline clip-path="url(#clip280)" style="stroke:#000000; stroke-linecap:round; stroke-linejoin:round; stroke-width:4; stroke-opacity:1; fill:none" points="3152.76,1396.46 3152.76,1377.56 "/>
<polyline clip-path="url(#clip280)" style="stroke:#000000; stroke-linecap:round; stroke-linejoin:round; stroke-width:4; stroke-opacity:1; fill:none" points="247.328,47.2441 247.328,66.1417 "/>
<polyline clip-path="url(#clip280)" style="stroke:#000000; stroke-linecap:round; stroke-linejoin:round; stroke-width:4; stroke-opacity:1; fill:none" points="973.685,47.2441 973.685,66.1417 "/>
<polyline clip-path="url(#clip280)" style="stroke:#000000; stroke-linecap:round; stroke-linejoin:round; stroke-width:4; stroke-opacity:1; fill:none" points="1700.04,47.2441 1700.04,66.1417 "/>
<polyline clip-path="url(#clip280)" style="stroke:#000000; stroke-linecap:round; stroke-linejoin:round; stroke-width:4; stroke-opacity:1; fill:none" points="2426.4,47.2441 2426.4,66.1417 "/>
<polyline clip-path="url(#clip280)" style="stroke:#000000; stroke-linecap:round; stroke-linejoin:round; stroke-width:4; stroke-opacity:1; fill:none" points="3152.76,47.2441 3152.76,66.1417 "/>
<path clip-path="url(#clip280)" d="M247.328 1433.77 Q243.717 1433.77 241.888 1437.34 Q240.082 1440.88 240.082 1448.01 Q240.082 1455.12 241.888 1458.68 Q243.717 1462.22 247.328 1462.22 Q250.962 1462.22 252.767 1458.68 Q254.596 1455.12 254.596 1448.01 Q254.596 1440.88 252.767 1437.34 Q250.962 1433.77 247.328 1433.77 M247.328 1430.07 Q253.138 1430.07 256.193 1434.68 Q259.272 1439.26 259.272 1448.01 Q259.272 1456.74 256.193 1461.34 Q253.138 1465.93 247.328 1465.93 Q241.518 1465.93 238.439 1461.34 Q235.383 1456.74 235.383 1448.01 Q235.383 1439.26 238.439 1434.68 Q241.518 1430.07 247.328 1430.07 Z" fill="#000000" fill-rule="nonzero" fill-opacity="1" /><path clip-path="url(#clip280)" d="M963.963 1430.7 L982.319 1430.7 L982.319 1434.63 L968.245 1434.63 L968.245 1443.1 Q969.263 1442.76 970.282 1442.59 Q971.3 1442.41 972.319 1442.41 Q978.106 1442.41 981.486 1445.58 Q984.865 1448.75 984.865 1454.17 Q984.865 1459.75 981.393 1462.85 Q977.921 1465.93 971.601 1465.93 Q969.425 1465.93 967.157 1465.56 Q964.912 1465.19 962.504 1464.45 L962.504 1459.75 Q964.588 1460.88 966.81 1461.44 Q969.032 1461.99 971.509 1461.99 Q975.513 1461.99 977.851 1459.89 Q980.189 1457.78 980.189 1454.17 Q980.189 1450.56 977.851 1448.45 Q975.513 1446.34 971.509 1446.34 Q969.634 1446.34 967.759 1446.76 Q965.907 1447.18 963.963 1448.06 L963.963 1430.7 Z" fill="#000000" fill-rule="nonzero" fill-opacity="1" /><path clip-path="url(#clip280)" d="M1674.73 1461.32 L1682.37 1461.32 L1682.37 1434.95 L1674.06 1436.62 L1674.06 1432.36 L1682.32 1430.7 L1687 1430.7 L1687 1461.32 L1694.64 1461.32 L1694.64 1465.26 L1674.73 1465.26 L1674.73 1461.32 Z" fill="#000000" fill-rule="nonzero" fill-opacity="1" /><path clip-path="url(#clip280)" d="M1714.08 1433.77 Q1710.47 1433.77 1708.64 1437.34 Q1706.84 1440.88 1706.84 1448.01 Q1706.84 1455.12 1708.64 1458.68 Q1710.47 1462.22 1714.08 1462.22 Q1717.72 1462.22 1719.52 1458.68 Q1721.35 1455.12 1721.35 1448.01 Q1721.35 1440.88 1719.52 1437.34 Q1717.72 1433.77 1714.08 1433.77 M1714.08 1430.07 Q1719.89 1430.07 1722.95 1434.68 Q1726.03 1439.26 1726.03 1448.01 Q1726.03 1456.74 1722.95 1461.34 Q1719.89 1465.93 1714.08 1465.93 Q1708.27 1465.93 1705.19 1461.34 Q1702.14 1456.74 1702.14 1448.01 Q1702.14 1439.26 1705.19 1434.68 Q1708.27 1430.07 1714.08 1430.07 Z" fill="#000000" fill-rule="nonzero" fill-opacity="1" /><path clip-path="url(#clip280)" d="M2401.58 1461.32 L2409.22 1461.32 L2409.22 1434.95 L2400.91 1436.62 L2400.91 1432.36 L2409.18 1430.7 L2413.85 1430.7 L2413.85 1461.32 L2421.49 1461.32 L2421.49 1465.26 L2401.58 1465.26 L2401.58 1461.32 Z" fill="#000000" fill-rule="nonzero" fill-opacity="1" /><path clip-path="url(#clip280)" d="M2430.98 1430.7 L2449.34 1430.7 L2449.34 1434.63 L2435.26 1434.63 L2435.26 1443.1 Q2436.28 1442.76 2437.3 1442.59 Q2438.32 1442.41 2439.34 1442.41 Q2445.13 1442.41 2448.51 1445.58 Q2451.88 1448.75 2451.88 1454.17 Q2451.88 1459.75 2448.41 1462.85 Q2444.94 1465.93 2438.62 1465.93 Q2436.45 1465.93 2434.18 1465.56 Q2431.93 1465.19 2429.52 1464.45 L2429.52 1459.75 Q2431.61 1460.88 2433.83 1461.44 Q2436.05 1461.99 2438.53 1461.99 Q2442.53 1461.99 2444.87 1459.89 Q2447.21 1457.78 2447.21 1454.17 Q2447.21 1450.56 2444.87 1448.45 Q2442.53 1446.34 2438.53 1446.34 Q2436.65 1446.34 2434.78 1446.76 Q2432.93 1447.18 2430.98 1448.06 L2430.98 1430.7 Z" fill="#000000" fill-rule="nonzero" fill-opacity="1" /><path clip-path="url(#clip280)" d="M3131.53 1461.32 L3147.85 1461.32 L3147.85 1465.26 L3125.9 1465.26 L3125.9 1461.32 Q3128.57 1458.57 3133.15 1453.94 Q3137.76 1449.28 3138.94 1447.94 Q3141.18 1445.42 3142.06 1443.68 Q3142.96 1441.92 3142.96 1440.23 Q3142.96 1437.48 3141.02 1435.74 Q3139.1 1434.01 3136 1434.01 Q3133.8 1434.01 3131.34 1434.77 Q3128.91 1435.53 3126.14 1437.08 L3126.14 1432.36 Q3128.96 1431.23 3131.41 1430.65 Q3133.87 1430.07 3135.9 1430.07 Q3141.27 1430.07 3144.47 1432.76 Q3147.66 1435.44 3147.66 1439.93 Q3147.66 1442.06 3146.85 1443.98 Q3146.07 1445.88 3143.96 1448.47 Q3143.38 1449.14 3140.28 1452.36 Q3137.18 1455.56 3131.53 1461.32 Z" fill="#000000" fill-rule="nonzero" fill-opacity="1" /><path clip-path="url(#clip280)" d="M3167.66 1433.77 Q3164.05 1433.77 3162.22 1437.34 Q3160.42 1440.88 3160.42 1448.01 Q3160.42 1455.12 3162.22 1458.68 Q3164.05 1462.22 3167.66 1462.22 Q3171.3 1462.22 3173.1 1458.68 Q3174.93 1455.12 3174.93 1448.01 Q3174.93 1440.88 3173.1 1437.34 Q3171.3 1433.77 3167.66 1433.77 M3167.66 1430.07 Q3173.47 1430.07 3176.53 1434.68 Q3179.61 1439.26 3179.61 1448.01 Q3179.61 1456.74 3176.53 1461.34 Q3173.47 1465.93 3167.66 1465.93 Q3161.85 1465.93 3158.77 1461.34 Q3155.72 1456.74 3155.72 1448.01 Q3155.72 1439.26 3158.77 1434.68 Q3161.85 1430.07 3167.66 1430.07 Z" fill="#000000" fill-rule="nonzero" fill-opacity="1" /><path clip-path="url(#clip280)" d="M1682.7 1517.67 L1688.9 1517.67 L1700.04 1547.59 L1711.18 1517.67 L1717.39 1517.67 L1704.02 1553.32 L1696.06 1553.32 L1682.7 1517.67 Z" fill="#000000" fill-rule="nonzero" fill-opacity="1" /><polyline clip-path="url(#clip280)" style="stroke:#000000; stroke-linecap:round; stroke-linejoin:round; stroke-width:4; stroke-opacity:1; fill:none" points="247.328,1396.46 247.328,47.2441 "/>
<polyline clip-path="url(#clip280)" style="stroke:#000000; stroke-linecap:round; stroke-linejoin:round; stroke-width:4; stroke-opacity:1; fill:none" points="3152.76,1396.46 3152.76,47.2441 "/>
<polyline clip-path="url(#clip280)" style="stroke:#000000; stroke-linecap:round; stroke-linejoin:round; stroke-width:4; stroke-opacity:1; fill:none" points="247.328,1358.27 266.225,1358.27 "/>
<polyline clip-path="url(#clip280)" style="stroke:#000000; stroke-linecap:round; stroke-linejoin:round; stroke-width:4; stroke-opacity:1; fill:none" points="247.328,1076.76 266.225,1076.76 "/>
<polyline clip-path="url(#clip280)" style="stroke:#000000; stroke-linecap:round; stroke-linejoin:round; stroke-width:4; stroke-opacity:1; fill:none" points="247.328,795.242 266.225,795.242 "/>
<polyline clip-path="url(#clip280)" style="stroke:#000000; stroke-linecap:round; stroke-linejoin:round; stroke-width:4; stroke-opacity:1; fill:none" points="247.328,513.728 266.225,513.728 "/>
<polyline clip-path="url(#clip280)" style="stroke:#000000; stroke-linecap:round; stroke-linejoin:round; stroke-width:4; stroke-opacity:1; fill:none" points="247.328,232.213 266.225,232.213 "/>
<polyline clip-path="url(#clip280)" style="stroke:#000000; stroke-linecap:round; stroke-linejoin:round; stroke-width:4; stroke-opacity:1; fill:none" points="3152.76,1358.27 3133.86,1358.27 "/>
<polyline clip-path="url(#clip280)" style="stroke:#000000; stroke-linecap:round; stroke-linejoin:round; stroke-width:4; stroke-opacity:1; fill:none" points="3152.76,1076.76 3133.86,1076.76 "/>
<polyline clip-path="url(#clip280)" style="stroke:#000000; stroke-linecap:round; stroke-linejoin:round; stroke-width:4; stroke-opacity:1; fill:none" points="3152.76,795.242 3133.86,795.242 "/>
<polyline clip-path="url(#clip280)" style="stroke:#000000; stroke-linecap:round; stroke-linejoin:round; stroke-width:4; stroke-opacity:1; fill:none" points="3152.76,513.728 3133.86,513.728 "/>
<polyline clip-path="url(#clip280)" style="stroke:#000000; stroke-linecap:round; stroke-linejoin:round; stroke-width:4; stroke-opacity:1; fill:none" points="3152.76,232.213 3133.86,232.213 "/>
<path clip-path="url(#clip280)" d="M187.383 1344.07 Q183.772 1344.07 181.944 1347.63 Q180.138 1351.18 180.138 1358.31 Q180.138 1365.41 181.944 1368.98 Q183.772 1372.52 187.383 1372.52 Q191.018 1372.52 192.823 1368.98 Q194.652 1365.41 194.652 1358.31 Q194.652 1351.18 192.823 1347.63 Q191.018 1344.07 187.383 1344.07 M187.383 1340.37 Q193.193 1340.37 196.249 1344.97 Q199.328 1349.56 199.328 1358.31 Q199.328 1367.03 196.249 1371.64 Q193.193 1376.22 187.383 1376.22 Q181.573 1376.22 178.494 1371.64 Q175.439 1367.03 175.439 1358.31 Q175.439 1349.56 178.494 1344.97 Q181.573 1340.37 187.383 1340.37 Z" fill="#000000" fill-rule="nonzero" fill-opacity="1" /><path clip-path="url(#clip280)" d="M178.425 1059.48 L196.781 1059.48 L196.781 1063.41 L182.707 1063.41 L182.707 1071.88 Q183.726 1071.54 184.744 1071.37 Q185.763 1071.19 186.781 1071.19 Q192.568 1071.19 195.948 1074.36 Q199.328 1077.53 199.328 1082.95 Q199.328 1088.53 195.855 1091.63 Q192.383 1094.71 186.064 1094.71 Q183.888 1094.71 181.619 1094.34 Q179.374 1093.97 176.967 1093.23 L176.967 1088.53 Q179.05 1089.66 181.272 1090.22 Q183.494 1090.77 185.971 1090.77 Q189.976 1090.77 192.314 1088.67 Q194.652 1086.56 194.652 1082.95 Q194.652 1079.34 192.314 1077.23 Q189.976 1075.12 185.971 1075.12 Q184.096 1075.12 182.221 1075.54 Q180.369 1075.96 178.425 1076.84 L178.425 1059.48 Z" fill="#000000" fill-rule="nonzero" fill-opacity="1" /><path clip-path="url(#clip280)" d="M148.032 808.587 L155.67 808.587 L155.67 782.221 L147.36 783.888 L147.36 779.629 L155.624 777.962 L160.3 777.962 L160.3 808.587 L167.939 808.587 L167.939 812.522 L148.032 812.522 L148.032 808.587 Z" fill="#000000" fill-rule="nonzero" fill-opacity="1" /><path clip-path="url(#clip280)" d="M187.383 781.041 Q183.772 781.041 181.944 784.605 Q180.138 788.147 180.138 795.277 Q180.138 802.383 181.944 805.948 Q183.772 809.49 187.383 809.49 Q191.018 809.49 192.823 805.948 Q194.652 802.383 194.652 795.277 Q194.652 788.147 192.823 784.605 Q191.018 781.041 187.383 781.041 M187.383 777.337 Q193.193 777.337 196.249 781.943 Q199.328 786.527 199.328 795.277 Q199.328 804.003 196.249 808.61 Q193.193 813.193 187.383 813.193 Q181.573 813.193 178.494 808.61 Q175.439 804.003 175.439 795.277 Q175.439 786.527 178.494 781.943 Q181.573 777.337 187.383 777.337 Z" fill="#000000" fill-rule="nonzero" fill-opacity="1" /><path clip-path="url(#clip280)" d="M149.027 527.073 L156.666 527.073 L156.666 500.707 L148.356 502.374 L148.356 498.114 L156.62 496.448 L161.295 496.448 L161.295 527.073 L168.934 527.073 L168.934 531.008 L149.027 531.008 L149.027 527.073 Z" fill="#000000" fill-rule="nonzero" fill-opacity="1" /><path clip-path="url(#clip280)" d="M178.425 496.448 L196.781 496.448 L196.781 500.383 L182.707 500.383 L182.707 508.855 Q183.726 508.508 184.744 508.346 Q185.763 508.161 186.781 508.161 Q192.568 508.161 195.948 511.332 Q199.328 514.503 199.328 519.92 Q199.328 525.498 195.855 528.6 Q192.383 531.679 186.064 531.679 Q183.888 531.679 181.619 531.309 Q179.374 530.938 176.967 530.198 L176.967 525.498 Q179.05 526.633 181.272 527.188 Q183.494 527.744 185.971 527.744 Q189.976 527.744 192.314 525.637 Q194.652 523.531 194.652 519.92 Q194.652 516.309 192.314 514.202 Q189.976 512.096 185.971 512.096 Q184.096 512.096 182.221 512.512 Q180.369 512.929 178.425 513.809 L178.425 496.448 Z" fill="#000000" fill-rule="nonzero" fill-opacity="1" /><path clip-path="url(#clip280)" d="M151.249 245.558 L167.569 245.558 L167.569 249.493 L145.624 249.493 L145.624 245.558 Q148.286 242.804 152.87 238.174 Q157.476 233.521 158.657 232.179 Q160.902 229.656 161.782 227.919 Q162.684 226.16 162.684 224.47 Q162.684 221.716 160.74 219.98 Q158.819 218.244 155.717 218.244 Q153.518 218.244 151.064 219.007 Q148.633 219.771 145.856 221.322 L145.856 216.6 Q148.68 215.466 151.133 214.887 Q153.587 214.308 155.624 214.308 Q160.995 214.308 164.189 216.994 Q167.383 219.679 167.383 224.169 Q167.383 226.299 166.573 228.22 Q165.786 230.119 163.68 232.711 Q163.101 233.382 159.999 236.6 Q156.897 239.794 151.249 245.558 Z" fill="#000000" fill-rule="nonzero" fill-opacity="1" /><path clip-path="url(#clip280)" d="M187.383 218.012 Q183.772 218.012 181.944 221.577 Q180.138 225.119 180.138 232.248 Q180.138 239.355 181.944 242.919 Q183.772 246.461 187.383 246.461 Q191.018 246.461 192.823 242.919 Q194.652 239.355 194.652 232.248 Q194.652 225.119 192.823 221.577 Q191.018 218.012 187.383 218.012 M187.383 214.308 Q193.193 214.308 196.249 218.915 Q199.328 223.498 199.328 232.248 Q199.328 240.975 196.249 245.581 Q193.193 250.165 187.383 250.165 Q181.573 250.165 178.494 245.581 Q175.439 240.975 175.439 232.248 Q175.439 223.498 178.494 218.915 Q181.573 214.308 187.383 214.308 Z" fill="#000000" fill-rule="nonzero" fill-opacity="1" /><path clip-path="url(#clip280)" d="M35.8483 740.024 L35.8483 733.117 L53.5131 721.309 L35.8483 709.437 L35.8483 702.53 L58.6693 717.808 L83.3683 701.511 L83.3683 708.418 L63.1571 721.786 L83.3683 735.25 L83.3683 742.188 L58.0009 725.224 L35.8483 740.024 Z" fill="#000000" fill-rule="nonzero" fill-opacity="1" /><polyline clip-path="url(#clip282)" style="stroke:#009af9; stroke-linecap:round; stroke-linejoin:round; stroke-width:20; stroke-opacity:1; fill:none" points="247.328,1358.27 249.44,1354.18 "/>
<polyline clip-path="url(#clip282)" style="stroke:#009af9; stroke-linecap:round; stroke-linejoin:round; stroke-width:20; stroke-opacity:1; fill:none" points="249.44,1354.18 253.469,1346.37 "/>
<polyline clip-path="url(#clip282)" style="stroke:#009af9; stroke-linecap:round; stroke-linejoin:round; stroke-width:20; stroke-opacity:1; fill:none" points="253.469,1346.37 257.498,1338.56 "/>
<polyline clip-path="url(#clip282)" style="stroke:#009af9; stroke-linecap:round; stroke-linejoin:round; stroke-width:20; stroke-opacity:1; fill:none" points="257.498,1338.56 261.527,1330.75 "/>
<polyline clip-path="url(#clip282)" style="stroke:#009af9; stroke-linecap:round; stroke-linejoin:round; stroke-width:20; stroke-opacity:1; fill:none" points="261.527,1330.75 265.557,1322.95 "/>
<polyline clip-path="url(#clip282)" style="stroke:#009af9; stroke-linecap:round; stroke-linejoin:round; stroke-width:20; stroke-opacity:1; fill:none" points="265.557,1322.95 269.588,1315.14 "/>
<polyline clip-path="url(#clip282)" style="stroke:#009af9; stroke-linecap:round; stroke-linejoin:round; stroke-width:20; stroke-opacity:1; fill:none" points="269.588,1315.14 273.62,1307.33 "/>
<polyline clip-path="url(#clip282)" style="stroke:#009af9; stroke-linecap:round; stroke-linejoin:round; stroke-width:20; stroke-opacity:1; fill:none" points="273.62,1307.33 277.653,1299.52 "/>
<polyline clip-path="url(#clip282)" style="stroke:#009af9; stroke-linecap:round; stroke-linejoin:round; stroke-width:20; stroke-opacity:1; fill:none" points="277.653,1299.52 281.689,1291.72 "/>
<polyline clip-path="url(#clip282)" style="stroke:#009af9; stroke-linecap:round; stroke-linejoin:round; stroke-width:20; stroke-opacity:1; fill:none" points="281.689,1291.72 285.727,1283.91 "/>
<polyline clip-path="url(#clip282)" style="stroke:#009af9; stroke-linecap:round; stroke-linejoin:round; stroke-width:20; stroke-opacity:1; fill:none" points="285.727,1283.91 289.768,1276.1 "/>
<polyline clip-path="url(#clip282)" style="stroke:#009af9; stroke-linecap:round; stroke-linejoin:round; stroke-width:20; stroke-opacity:1; fill:none" points="289.768,1276.1 293.814,1268.3 "/>
<polyline clip-path="url(#clip282)" style="stroke:#009af9; stroke-linecap:round; stroke-linejoin:round; stroke-width:20; stroke-opacity:1; fill:none" points="293.814,1268.3 297.864,1260.49 "/>
<polyline clip-path="url(#clip282)" style="stroke:#009af9; stroke-linecap:round; stroke-linejoin:round; stroke-width:20; stroke-opacity:1; fill:none" points="297.864,1260.49 301.92,1252.68 "/>
<polyline clip-path="url(#clip282)" style="stroke:#009af9; stroke-linecap:round; stroke-linejoin:round; stroke-width:20; stroke-opacity:1; fill:none" points="301.92,1252.68 305.983,1244.88 "/>
<polyline clip-path="url(#clip282)" style="stroke:#009af9; stroke-linecap:round; stroke-linejoin:round; stroke-width:20; stroke-opacity:1; fill:none" points="305.983,1244.88 310.054,1237.07 "/>
<polyline clip-path="url(#clip282)" style="stroke:#009af9; stroke-linecap:round; stroke-linejoin:round; stroke-width:20; stroke-opacity:1; fill:none" points="310.054,1237.07 314.133,1229.27 "/>
<polyline clip-path="url(#clip282)" style="stroke:#009af9; stroke-linecap:round; stroke-linejoin:round; stroke-width:20; stroke-opacity:1; fill:none" points="314.133,1229.27 318.223,1221.47 "/>
<polyline clip-path="url(#clip282)" style="stroke:#009af9; stroke-linecap:round; stroke-linejoin:round; stroke-width:20; stroke-opacity:1; fill:none" points="318.223,1221.47 322.324,1213.67 "/>
<polyline clip-path="url(#clip282)" style="stroke:#009af9; stroke-linecap:round; stroke-linejoin:round; stroke-width:20; stroke-opacity:1; fill:none" points="322.324,1213.67 326.437,1205.86 "/>
<polyline clip-path="url(#clip282)" style="stroke:#009af9; stroke-linecap:round; stroke-linejoin:round; stroke-width:20; stroke-opacity:1; fill:none" points="326.437,1205.86 330.564,1198.06 "/>
<polyline clip-path="url(#clip282)" style="stroke:#009af9; stroke-linecap:round; stroke-linejoin:round; stroke-width:20; stroke-opacity:1; fill:none" points="330.564,1198.06 334.707,1190.27 "/>
<polyline clip-path="url(#clip282)" style="stroke:#009af9; stroke-linecap:round; stroke-linejoin:round; stroke-width:20; stroke-opacity:1; fill:none" points="334.707,1190.27 338.866,1182.47 "/>
<polyline clip-path="url(#clip282)" style="stroke:#009af9; stroke-linecap:round; stroke-linejoin:round; stroke-width:20; stroke-opacity:1; fill:none" points="338.866,1182.47 343.044,1174.67 "/>
<polyline clip-path="url(#clip282)" style="stroke:#009af9; stroke-linecap:round; stroke-linejoin:round; stroke-width:20; stroke-opacity:1; fill:none" points="343.044,1174.67 347.243,1166.88 "/>
<polyline clip-path="url(#clip282)" style="stroke:#009af9; stroke-linecap:round; stroke-linejoin:round; stroke-width:20; stroke-opacity:1; fill:none" points="347.243,1166.88 351.463,1159.08 "/>
<polyline clip-path="url(#clip282)" style="stroke:#009af9; stroke-linecap:round; stroke-linejoin:round; stroke-width:20; stroke-opacity:1; fill:none" points="351.463,1159.08 355.707,1151.29 "/>
<polyline clip-path="url(#clip282)" style="stroke:#009af9; stroke-linecap:round; stroke-linejoin:round; stroke-width:20; stroke-opacity:1; fill:none" points="355.707,1151.29 359.977,1143.51 "/>
<polyline clip-path="url(#clip282)" style="stroke:#009af9; stroke-linecap:round; stroke-linejoin:round; stroke-width:20; stroke-opacity:1; fill:none" points="359.977,1143.51 364.274,1135.72 "/>
<polyline clip-path="url(#clip282)" style="stroke:#009af9; stroke-linecap:round; stroke-linejoin:round; stroke-width:20; stroke-opacity:1; fill:none" points="364.274,1135.72 368.6,1127.94 "/>
<polyline clip-path="url(#clip282)" style="stroke:#009af9; stroke-linecap:round; stroke-linejoin:round; stroke-width:20; stroke-opacity:1; fill:none" points="368.6,1127.94 372.958,1120.15 "/>
<polyline clip-path="url(#clip282)" style="stroke:#009af9; stroke-linecap:round; stroke-linejoin:round; stroke-width:20; stroke-opacity:1; fill:none" points="372.958,1120.15 377.35,1112.38 "/>
<polyline clip-path="url(#clip282)" style="stroke:#009af9; stroke-linecap:round; stroke-linejoin:round; stroke-width:20; stroke-opacity:1; fill:none" points="377.35,1112.38 381.778,1104.6 "/>
<polyline clip-path="url(#clip282)" style="stroke:#009af9; stroke-linecap:round; stroke-linejoin:round; stroke-width:20; stroke-opacity:1; fill:none" points="381.778,1104.6 386.243,1096.83 "/>
<polyline clip-path="url(#clip282)" style="stroke:#009af9; stroke-linecap:round; stroke-linejoin:round; stroke-width:20; stroke-opacity:1; fill:none" points="386.243,1096.83 390.75,1089.06 "/>
<polyline clip-path="url(#clip282)" style="stroke:#009af9; stroke-linecap:round; stroke-linejoin:round; stroke-width:20; stroke-opacity:1; fill:none" points="390.75,1089.06 395.299,1081.3 "/>
<polyline clip-path="url(#clip282)" style="stroke:#009af9; stroke-linecap:round; stroke-linejoin:round; stroke-width:20; stroke-opacity:1; fill:none" points="395.299,1081.3 399.893,1073.53 "/>
<polyline clip-path="url(#clip282)" style="stroke:#009af9; stroke-linecap:round; stroke-linejoin:round; stroke-width:20; stroke-opacity:1; fill:none" points="399.893,1073.53 404.534,1065.78 "/>
<polyline clip-path="url(#clip282)" style="stroke:#009af9; stroke-linecap:round; stroke-linejoin:round; stroke-width:20; stroke-opacity:1; fill:none" points="404.534,1065.78 409.226,1058.03 "/>
<polyline clip-path="url(#clip282)" style="stroke:#009af9; stroke-linecap:round; stroke-linejoin:round; stroke-width:20; stroke-opacity:1; fill:none" points="409.226,1058.03 413.971,1050.28 "/>
<polyline clip-path="url(#clip282)" style="stroke:#009af9; stroke-linecap:round; stroke-linejoin:round; stroke-width:20; stroke-opacity:1; fill:none" points="413.971,1050.28 418.771,1042.54 "/>
<polyline clip-path="url(#clip282)" style="stroke:#009af9; stroke-linecap:round; stroke-linejoin:round; stroke-width:20; stroke-opacity:1; fill:none" points="418.771,1042.54 423.629,1034.8 "/>
<polyline clip-path="url(#clip282)" style="stroke:#009af9; stroke-linecap:round; stroke-linejoin:round; stroke-width:20; stroke-opacity:1; fill:none" points="423.629,1034.8 428.548,1027.07 "/>
<polyline clip-path="url(#clip282)" style="stroke:#009af9; stroke-linecap:round; stroke-linejoin:round; stroke-width:20; stroke-opacity:1; fill:none" points="428.548,1027.07 433.53,1019.34 "/>
<polyline clip-path="url(#clip282)" style="stroke:#009af9; stroke-linecap:round; stroke-linejoin:round; stroke-width:20; stroke-opacity:1; fill:none" points="433.53,1019.34 438.578,1011.63 "/>
<polyline clip-path="url(#clip282)" style="stroke:#009af9; stroke-linecap:round; stroke-linejoin:round; stroke-width:20; stroke-opacity:1; fill:none" points="438.578,1011.63 443.696,1003.91 "/>
<polyline clip-path="url(#clip282)" style="stroke:#009af9; stroke-linecap:round; stroke-linejoin:round; stroke-width:20; stroke-opacity:1; fill:none" points="443.696,1003.91 448.885,996.21 "/>
<polyline clip-path="url(#clip282)" style="stroke:#009af9; stroke-linecap:round; stroke-linejoin:round; stroke-width:20; stroke-opacity:1; fill:none" points="448.885,996.21 454.149,988.513 "/>
<polyline clip-path="url(#clip282)" style="stroke:#009af9; stroke-linecap:round; stroke-linejoin:round; stroke-width:20; stroke-opacity:1; fill:none" points="454.149,988.513 459.491,980.825 "/>
<polyline clip-path="url(#clip282)" style="stroke:#009af9; stroke-linecap:round; stroke-linejoin:round; stroke-width:20; stroke-opacity:1; fill:none" points="459.491,980.825 464.913,973.144 "/>
<polyline clip-path="url(#clip282)" style="stroke:#009af9; stroke-linecap:round; stroke-linejoin:round; stroke-width:20; stroke-opacity:1; fill:none" points="464.913,973.144 470.418,965.473 "/>
<polyline clip-path="url(#clip282)" style="stroke:#009af9; stroke-linecap:round; stroke-linejoin:round; stroke-width:20; stroke-opacity:1; fill:none" points="470.418,965.473 476.011,957.811 "/>
<polyline clip-path="url(#clip282)" style="stroke:#009af9; stroke-linecap:round; stroke-linejoin:round; stroke-width:20; stroke-opacity:1; fill:none" points="476.011,957.811 481.692,950.159 "/>
<polyline clip-path="url(#clip282)" style="stroke:#009af9; stroke-linecap:round; stroke-linejoin:round; stroke-width:20; stroke-opacity:1; fill:none" points="481.692,950.159 487.466,942.518 "/>
<polyline clip-path="url(#clip282)" style="stroke:#009af9; stroke-linecap:round; stroke-linejoin:round; stroke-width:20; stroke-opacity:1; fill:none" points="487.466,942.518 493.335,934.887 "/>
<polyline clip-path="url(#clip282)" style="stroke:#009af9; stroke-linecap:round; stroke-linejoin:round; stroke-width:20; stroke-opacity:1; fill:none" points="493.335,934.887 499.303,927.268 "/>
<polyline clip-path="url(#clip282)" style="stroke:#009af9; stroke-linecap:round; stroke-linejoin:round; stroke-width:20; stroke-opacity:1; fill:none" points="499.303,927.268 505.371,919.661 "/>
<polyline clip-path="url(#clip282)" style="stroke:#009af9; stroke-linecap:round; stroke-linejoin:round; stroke-width:20; stroke-opacity:1; fill:none" points="505.371,919.661 511.544,912.066 "/>
<polyline clip-path="url(#clip282)" style="stroke:#009af9; stroke-linecap:round; stroke-linejoin:round; stroke-width:20; stroke-opacity:1; fill:none" points="511.544,912.066 517.824,904.484 "/>
<polyline clip-path="url(#clip282)" style="stroke:#009af9; stroke-linecap:round; stroke-linejoin:round; stroke-width:20; stroke-opacity:1; fill:none" points="517.824,904.484 524.213,896.917 "/>
<polyline clip-path="url(#clip282)" style="stroke:#009af9; stroke-linecap:round; stroke-linejoin:round; stroke-width:20; stroke-opacity:1; fill:none" points="524.213,896.917 530.716,889.364 "/>
<polyline clip-path="url(#clip282)" style="stroke:#009af9; stroke-linecap:round; stroke-linejoin:round; stroke-width:20; stroke-opacity:1; fill:none" points="530.716,889.364 537.334,881.825 "/>
<polyline clip-path="url(#clip282)" style="stroke:#009af9; stroke-linecap:round; stroke-linejoin:round; stroke-width:20; stroke-opacity:1; fill:none" points="537.334,881.825 544.07,874.303 "/>
<polyline clip-path="url(#clip282)" style="stroke:#009af9; stroke-linecap:round; stroke-linejoin:round; stroke-width:20; stroke-opacity:1; fill:none" points="544.07,874.303 550.928,866.797 "/>
<polyline clip-path="url(#clip282)" style="stroke:#009af9; stroke-linecap:round; stroke-linejoin:round; stroke-width:20; stroke-opacity:1; fill:none" points="550.928,866.797 557.909,859.308 "/>
<polyline clip-path="url(#clip282)" style="stroke:#009af9; stroke-linecap:round; stroke-linejoin:round; stroke-width:20; stroke-opacity:1; fill:none" points="557.909,859.308 565.016,851.837 "/>
<polyline clip-path="url(#clip282)" style="stroke:#009af9; stroke-linecap:round; stroke-linejoin:round; stroke-width:20; stroke-opacity:1; fill:none" points="565.016,851.837 572.253,844.385 "/>
<polyline clip-path="url(#clip282)" style="stroke:#009af9; stroke-linecap:round; stroke-linejoin:round; stroke-width:20; stroke-opacity:1; fill:none" points="572.253,844.385 579.621,836.952 "/>
<polyline clip-path="url(#clip282)" style="stroke:#009af9; stroke-linecap:round; stroke-linejoin:round; stroke-width:20; stroke-opacity:1; fill:none" points="579.621,836.952 587.123,829.539 "/>
<polyline clip-path="url(#clip282)" style="stroke:#009af9; stroke-linecap:round; stroke-linejoin:round; stroke-width:20; stroke-opacity:1; fill:none" points="587.123,829.539 594.76,822.147 "/>
<polyline clip-path="url(#clip282)" style="stroke:#009af9; stroke-linecap:round; stroke-linejoin:round; stroke-width:20; stroke-opacity:1; fill:none" points="594.76,822.147 602.536,814.777 "/>
<polyline clip-path="url(#clip282)" style="stroke:#009af9; stroke-linecap:round; stroke-linejoin:round; stroke-width:20; stroke-opacity:1; fill:none" points="602.536,814.777 610.453,807.429 "/>
<polyline clip-path="url(#clip282)" style="stroke:#009af9; stroke-linecap:round; stroke-linejoin:round; stroke-width:20; stroke-opacity:1; fill:none" points="610.453,807.429 618.512,800.105 "/>
<polyline clip-path="url(#clip282)" style="stroke:#009af9; stroke-linecap:round; stroke-linejoin:round; stroke-width:20; stroke-opacity:1; fill:none" points="618.512,800.105 626.716,792.804 "/>
<polyline clip-path="url(#clip282)" style="stroke:#009af9; stroke-linecap:round; stroke-linejoin:round; stroke-width:20; stroke-opacity:1; fill:none" points="626.716,792.804 635.065,785.529 "/>
<polyline clip-path="url(#clip282)" style="stroke:#009af9; stroke-linecap:round; stroke-linejoin:round; stroke-width:20; stroke-opacity:1; fill:none" points="635.065,785.529 643.563,778.279 "/>
<polyline clip-path="url(#clip282)" style="stroke:#009af9; stroke-linecap:round; stroke-linejoin:round; stroke-width:20; stroke-opacity:1; fill:none" points="643.563,778.279 652.211,771.056 "/>
<polyline clip-path="url(#clip282)" style="stroke:#009af9; stroke-linecap:round; stroke-linejoin:round; stroke-width:20; stroke-opacity:1; fill:none" points="652.211,771.056 661.009,763.861 "/>
<polyline clip-path="url(#clip282)" style="stroke:#009af9; stroke-linecap:round; stroke-linejoin:round; stroke-width:20; stroke-opacity:1; fill:none" points="661.009,763.861 669.96,756.693 "/>
<polyline clip-path="url(#clip282)" style="stroke:#009af9; stroke-linecap:round; stroke-linejoin:round; stroke-width:20; stroke-opacity:1; fill:none" points="669.96,756.693 679.064,749.555 "/>
<polyline clip-path="url(#clip282)" style="stroke:#009af9; stroke-linecap:round; stroke-linejoin:round; stroke-width:20; stroke-opacity:1; fill:none" points="679.064,749.555 688.323,742.447 "/>
<polyline clip-path="url(#clip282)" style="stroke:#009af9; stroke-linecap:round; stroke-linejoin:round; stroke-width:20; stroke-opacity:1; fill:none" points="688.323,742.447 697.738,735.369 "/>
<polyline clip-path="url(#clip282)" style="stroke:#009af9; stroke-linecap:round; stroke-linejoin:round; stroke-width:20; stroke-opacity:1; fill:none" points="697.738,735.369 707.309,728.323 "/>
<polyline clip-path="url(#clip282)" style="stroke:#009af9; stroke-linecap:round; stroke-linejoin:round; stroke-width:20; stroke-opacity:1; fill:none" points="707.309,728.323 717.037,721.31 "/>
<polyline clip-path="url(#clip282)" style="stroke:#009af9; stroke-linecap:round; stroke-linejoin:round; stroke-width:20; stroke-opacity:1; fill:none" points="717.037,721.31 726.923,714.33 "/>
<polyline clip-path="url(#clip282)" style="stroke:#009af9; stroke-linecap:round; stroke-linejoin:round; stroke-width:20; stroke-opacity:1; fill:none" points="726.923,714.33 736.967,707.383 "/>
<polyline clip-path="url(#clip282)" style="stroke:#009af9; stroke-linecap:round; stroke-linejoin:round; stroke-width:20; stroke-opacity:1; fill:none" points="736.967,707.383 747.169,700.472 "/>
<polyline clip-path="url(#clip282)" style="stroke:#009af9; stroke-linecap:round; stroke-linejoin:round; stroke-width:20; stroke-opacity:1; fill:none" points="747.169,700.472 757.53,693.596 "/>
<polyline clip-path="url(#clip282)" style="stroke:#009af9; stroke-linecap:round; stroke-linejoin:round; stroke-width:20; stroke-opacity:1; fill:none" points="757.53,693.596 768.049,686.756 "/>
<polyline clip-path="url(#clip282)" style="stroke:#009af9; stroke-linecap:round; stroke-linejoin:round; stroke-width:20; stroke-opacity:1; fill:none" points="768.049,686.756 778.726,679.953 "/>
<polyline clip-path="url(#clip282)" style="stroke:#009af9; stroke-linecap:round; stroke-linejoin:round; stroke-width:20; stroke-opacity:1; fill:none" points="778.726,679.953 789.562,673.187 "/>
<polyline clip-path="url(#clip282)" style="stroke:#009af9; stroke-linecap:round; stroke-linejoin:round; stroke-width:20; stroke-opacity:1; fill:none" points="789.562,673.187 800.555,666.46 "/>
<polyline clip-path="url(#clip282)" style="stroke:#009af9; stroke-linecap:round; stroke-linejoin:round; stroke-width:20; stroke-opacity:1; fill:none" points="800.555,666.46 811.705,659.772 "/>
<polyline clip-path="url(#clip282)" style="stroke:#009af9; stroke-linecap:round; stroke-linejoin:round; stroke-width:20; stroke-opacity:1; fill:none" points="811.705,659.772 823.012,653.124 "/>
<polyline clip-path="url(#clip282)" style="stroke:#009af9; stroke-linecap:round; stroke-linejoin:round; stroke-width:20; stroke-opacity:1; fill:none" points="823.012,653.124 834.474,646.515 "/>
<polyline clip-path="url(#clip282)" style="stroke:#009af9; stroke-linecap:round; stroke-linejoin:round; stroke-width:20; stroke-opacity:1; fill:none" points="834.474,646.515 846.091,639.948 "/>
<polyline clip-path="url(#clip282)" style="stroke:#009af9; stroke-linecap:round; stroke-linejoin:round; stroke-width:20; stroke-opacity:1; fill:none" points="846.091,639.948 857.862,633.421 "/>
<polyline clip-path="url(#clip282)" style="stroke:#009af9; stroke-linecap:round; stroke-linejoin:round; stroke-width:20; stroke-opacity:1; fill:none" points="857.862,633.421 869.785,626.937 "/>
<polyline clip-path="url(#clip282)" style="stroke:#009af9; stroke-linecap:round; stroke-linejoin:round; stroke-width:20; stroke-opacity:1; fill:none" points="869.785,626.937 881.859,620.494 "/>
<polyline clip-path="url(#clip282)" style="stroke:#009af9; stroke-linecap:round; stroke-linejoin:round; stroke-width:20; stroke-opacity:1; fill:none" points="881.859,620.494 894.084,614.094 "/>
<polyline clip-path="url(#clip282)" style="stroke:#009af9; stroke-linecap:round; stroke-linejoin:round; stroke-width:20; stroke-opacity:1; fill:none" points="894.084,614.094 906.457,607.738 "/>
<polyline clip-path="url(#clip282)" style="stroke:#009af9; stroke-linecap:round; stroke-linejoin:round; stroke-width:20; stroke-opacity:1; fill:none" points="906.457,607.738 918.977,601.424 "/>
<polyline clip-path="url(#clip282)" style="stroke:#009af9; stroke-linecap:round; stroke-linejoin:round; stroke-width:20; stroke-opacity:1; fill:none" points="918.977,601.424 931.643,595.155 "/>
<polyline clip-path="url(#clip282)" style="stroke:#009af9; stroke-linecap:round; stroke-linejoin:round; stroke-width:20; stroke-opacity:1; fill:none" points="931.643,595.155 944.453,588.929 "/>
<polyline clip-path="url(#clip282)" style="stroke:#009af9; stroke-linecap:round; stroke-linejoin:round; stroke-width:20; stroke-opacity:1; fill:none" points="944.453,588.929 957.405,582.748 "/>
<polyline clip-path="url(#clip282)" style="stroke:#009af9; stroke-linecap:round; stroke-linejoin:round; stroke-width:20; stroke-opacity:1; fill:none" points="957.405,582.748 970.497,576.611 "/>
<polyline clip-path="url(#clip282)" style="stroke:#009af9; stroke-linecap:round; stroke-linejoin:round; stroke-width:20; stroke-opacity:1; fill:none" points="970.497,576.611 983.727,570.519 "/>
<polyline clip-path="url(#clip282)" style="stroke:#009af9; stroke-linecap:round; stroke-linejoin:round; stroke-width:20; stroke-opacity:1; fill:none" points="983.727,570.519 997.094,564.472 "/>
<polyline clip-path="url(#clip282)" style="stroke:#009af9; stroke-linecap:round; stroke-linejoin:round; stroke-width:20; stroke-opacity:1; fill:none" points="997.094,564.472 1010.6,558.47 "/>
<polyline clip-path="url(#clip282)" style="stroke:#009af9; stroke-linecap:round; stroke-linejoin:round; stroke-width:20; stroke-opacity:1; fill:none" points="1010.6,558.47 1024.23,552.514 "/>
<polyline clip-path="url(#clip282)" style="stroke:#009af9; stroke-linecap:round; stroke-linejoin:round; stroke-width:20; stroke-opacity:1; fill:none" points="1024.23,552.514 1037.99,546.602 "/>
<polyline clip-path="url(#clip282)" style="stroke:#009af9; stroke-linecap:round; stroke-linejoin:round; stroke-width:20; stroke-opacity:1; fill:none" points="1037.99,546.602 1051.89,540.736 "/>
<polyline clip-path="url(#clip282)" style="stroke:#009af9; stroke-linecap:round; stroke-linejoin:round; stroke-width:20; stroke-opacity:1; fill:none" points="1051.89,540.736 1065.91,534.915 "/>
<polyline clip-path="url(#clip282)" style="stroke:#009af9; stroke-linecap:round; stroke-linejoin:round; stroke-width:20; stroke-opacity:1; fill:none" points="1065.91,534.915 1080.05,529.14 "/>
<polyline clip-path="url(#clip282)" style="stroke:#009af9; stroke-linecap:round; stroke-linejoin:round; stroke-width:20; stroke-opacity:1; fill:none" points="1080.05,529.14 1094.32,523.41 "/>
<polyline clip-path="url(#clip282)" style="stroke:#009af9; stroke-linecap:round; stroke-linejoin:round; stroke-width:20; stroke-opacity:1; fill:none" points="1094.32,523.41 1108.7,517.725 "/>
<polyline clip-path="url(#clip282)" style="stroke:#009af9; stroke-linecap:round; stroke-linejoin:round; stroke-width:20; stroke-opacity:1; fill:none" points="1108.7,517.725 1123.21,512.085 "/>
<polyline clip-path="url(#clip282)" style="stroke:#009af9; stroke-linecap:round; stroke-linejoin:round; stroke-width:20; stroke-opacity:1; fill:none" points="1123.21,512.085 1137.82,506.49 "/>
<polyline clip-path="url(#clip282)" style="stroke:#009af9; stroke-linecap:round; stroke-linejoin:round; stroke-width:20; stroke-opacity:1; fill:none" points="1137.82,506.49 1152.56,500.94 "/>
<polyline clip-path="url(#clip282)" style="stroke:#009af9; stroke-linecap:round; stroke-linejoin:round; stroke-width:20; stroke-opacity:1; fill:none" points="1152.56,500.94 1167.4,495.435 "/>
<polyline clip-path="url(#clip282)" style="stroke:#009af9; stroke-linecap:round; stroke-linejoin:round; stroke-width:20; stroke-opacity:1; fill:none" points="1167.4,495.435 1182.35,489.974 "/>
<polyline clip-path="url(#clip282)" style="stroke:#009af9; stroke-linecap:round; stroke-linejoin:round; stroke-width:20; stroke-opacity:1; fill:none" points="1182.35,489.974 1197.41,484.558 "/>
<polyline clip-path="url(#clip282)" style="stroke:#009af9; stroke-linecap:round; stroke-linejoin:round; stroke-width:20; stroke-opacity:1; fill:none" points="1197.41,484.558 1212.58,479.185 "/>
<polyline clip-path="url(#clip282)" style="stroke:#009af9; stroke-linecap:round; stroke-linejoin:round; stroke-width:20; stroke-opacity:1; fill:none" points="1212.58,479.185 1227.84,473.857 "/>
<polyline clip-path="url(#clip282)" style="stroke:#009af9; stroke-linecap:round; stroke-linejoin:round; stroke-width:20; stroke-opacity:1; fill:none" points="1227.84,473.857 1243.21,468.572 "/>
<polyline clip-path="url(#clip282)" style="stroke:#009af9; stroke-linecap:round; stroke-linejoin:round; stroke-width:20; stroke-opacity:1; fill:none" points="1243.21,468.572 1258.68,463.331 "/>
<polyline clip-path="url(#clip282)" style="stroke:#009af9; stroke-linecap:round; stroke-linejoin:round; stroke-width:20; stroke-opacity:1; fill:none" points="1258.68,463.331 1274.24,458.132 "/>
<polyline clip-path="url(#clip282)" style="stroke:#009af9; stroke-linecap:round; stroke-linejoin:round; stroke-width:20; stroke-opacity:1; fill:none" points="1274.24,458.132 1289.9,452.976 "/>
<polyline clip-path="url(#clip282)" style="stroke:#009af9; stroke-linecap:round; stroke-linejoin:round; stroke-width:20; stroke-opacity:1; fill:none" points="1289.9,452.976 1305.65,447.863 "/>
<polyline clip-path="url(#clip282)" style="stroke:#009af9; stroke-linecap:round; stroke-linejoin:round; stroke-width:20; stroke-opacity:1; fill:none" points="1305.65,447.863 1321.49,442.792 "/>
<polyline clip-path="url(#clip282)" style="stroke:#009af9; stroke-linecap:round; stroke-linejoin:round; stroke-width:20; stroke-opacity:1; fill:none" points="1321.49,442.792 1337.41,437.763 "/>
<polyline clip-path="url(#clip282)" style="stroke:#009af9; stroke-linecap:round; stroke-linejoin:round; stroke-width:20; stroke-opacity:1; fill:none" points="1337.41,437.763 1353.43,432.775 "/>
<polyline clip-path="url(#clip282)" style="stroke:#009af9; stroke-linecap:round; stroke-linejoin:round; stroke-width:20; stroke-opacity:1; fill:none" points="1353.43,432.775 1369.53,427.828 "/>
<polyline clip-path="url(#clip282)" style="stroke:#009af9; stroke-linecap:round; stroke-linejoin:round; stroke-width:20; stroke-opacity:1; fill:none" points="1369.53,427.828 1385.71,422.921 "/>
<polyline clip-path="url(#clip282)" style="stroke:#009af9; stroke-linecap:round; stroke-linejoin:round; stroke-width:20; stroke-opacity:1; fill:none" points="1385.71,422.921 1401.97,418.055 "/>
<polyline clip-path="url(#clip282)" style="stroke:#009af9; stroke-linecap:round; stroke-linejoin:round; stroke-width:20; stroke-opacity:1; fill:none" points="1401.97,418.055 1418.31,413.23 "/>
<polyline clip-path="url(#clip282)" style="stroke:#009af9; stroke-linecap:round; stroke-linejoin:round; stroke-width:20; stroke-opacity:1; fill:none" points="1418.31,413.23 1434.73,408.443 "/>
<polyline clip-path="url(#clip282)" style="stroke:#009af9; stroke-linecap:round; stroke-linejoin:round; stroke-width:20; stroke-opacity:1; fill:none" points="1434.73,408.443 1451.22,403.696 "/>
<polyline clip-path="url(#clip282)" style="stroke:#009af9; stroke-linecap:round; stroke-linejoin:round; stroke-width:20; stroke-opacity:1; fill:none" points="1451.22,403.696 1467.79,398.987 "/>
<polyline clip-path="url(#clip282)" style="stroke:#009af9; stroke-linecap:round; stroke-linejoin:round; stroke-width:20; stroke-opacity:1; fill:none" points="1467.79,398.987 1484.43,394.317 "/>
<polyline clip-path="url(#clip282)" style="stroke:#009af9; stroke-linecap:round; stroke-linejoin:round; stroke-width:20; stroke-opacity:1; fill:none" points="1484.43,394.317 1501.14,389.685 "/>
<polyline clip-path="url(#clip282)" style="stroke:#009af9; stroke-linecap:round; stroke-linejoin:round; stroke-width:20; stroke-opacity:1; fill:none" points="1501.14,389.685 1517.92,385.091 "/>
<polyline clip-path="url(#clip282)" style="stroke:#009af9; stroke-linecap:round; stroke-linejoin:round; stroke-width:20; stroke-opacity:1; fill:none" points="1517.92,385.091 1534.77,380.533 "/>
<polyline clip-path="url(#clip282)" style="stroke:#009af9; stroke-linecap:round; stroke-linejoin:round; stroke-width:20; stroke-opacity:1; fill:none" points="1534.77,380.533 1551.68,376.013 "/>
<polyline clip-path="url(#clip282)" style="stroke:#009af9; stroke-linecap:round; stroke-linejoin:round; stroke-width:20; stroke-opacity:1; fill:none" points="1551.68,376.013 1568.66,371.528 "/>
<polyline clip-path="url(#clip282)" style="stroke:#009af9; stroke-linecap:round; stroke-linejoin:round; stroke-width:20; stroke-opacity:1; fill:none" points="1568.66,371.528 1585.7,367.08 "/>
<polyline clip-path="url(#clip282)" style="stroke:#009af9; stroke-linecap:round; stroke-linejoin:round; stroke-width:20; stroke-opacity:1; fill:none" points="1585.7,367.08 1602.8,362.667 "/>
<polyline clip-path="url(#clip282)" style="stroke:#009af9; stroke-linecap:round; stroke-linejoin:round; stroke-width:20; stroke-opacity:1; fill:none" points="1602.8,362.667 1619.96,358.289 "/>
<polyline clip-path="url(#clip282)" style="stroke:#009af9; stroke-linecap:round; stroke-linejoin:round; stroke-width:20; stroke-opacity:1; fill:none" points="1619.96,358.289 1637.18,353.946 "/>
<polyline clip-path="url(#clip282)" style="stroke:#009af9; stroke-linecap:round; stroke-linejoin:round; stroke-width:20; stroke-opacity:1; fill:none" points="1637.18,353.946 1654.46,349.638 "/>
<polyline clip-path="url(#clip282)" style="stroke:#009af9; stroke-linecap:round; stroke-linejoin:round; stroke-width:20; stroke-opacity:1; fill:none" points="1654.46,349.638 1669.24,345.989 "/>
<polyline clip-path="url(#clip282)" style="stroke:#009af9; stroke-linecap:round; stroke-linejoin:round; stroke-width:20; stroke-opacity:1; fill:none" points="1669.24,345.989 1679.65,343.441 "/>
<polyline clip-path="url(#clip282)" style="stroke:#009af9; stroke-linecap:round; stroke-linejoin:round; stroke-width:20; stroke-opacity:1; fill:none" points="1679.65,343.441 1686.97,341.657 "/>
<polyline clip-path="url(#clip282)" style="stroke:#009af9; stroke-linecap:round; stroke-linejoin:round; stroke-width:20; stroke-opacity:1; fill:none" points="1686.97,341.657 1692.13,340.407 "/>
<polyline clip-path="url(#clip282)" style="stroke:#009af9; stroke-linecap:round; stroke-linejoin:round; stroke-width:20; stroke-opacity:1; fill:none" points="1692.13,340.407 1695.75,339.531 "/>
<polyline clip-path="url(#clip282)" style="stroke:#009af9; stroke-linecap:round; stroke-linejoin:round; stroke-width:20; stroke-opacity:1; fill:none" points="1695.75,339.531 1698.3,338.916 "/>
<polyline clip-path="url(#clip282)" style="stroke:#009af9; stroke-linecap:round; stroke-linejoin:round; stroke-width:20; stroke-opacity:1; fill:none" points="1698.3,338.916 1700.04,338.495 "/>
<polyline clip-path="url(#clip282)" style="stroke:#009af9; stroke-linecap:round; stroke-linejoin:round; stroke-width:20; stroke-opacity:1; fill:none" points="1700.04,338.495 1700.04,338.495 "/>
<polyline clip-path="url(#clip282)" style="stroke:#009af9; stroke-linecap:round; stroke-linejoin:round; stroke-width:20; stroke-opacity:1; fill:none" points="1700.04,338.495 1701.79,338.075 "/>
<polyline clip-path="url(#clip282)" style="stroke:#009af9; stroke-linecap:round; stroke-linejoin:round; stroke-width:20; stroke-opacity:1; fill:none" points="1701.79,338.075 1704.34,337.461 "/>
<polyline clip-path="url(#clip282)" style="stroke:#009af9; stroke-linecap:round; stroke-linejoin:round; stroke-width:20; stroke-opacity:1; fill:none" points="1704.34,337.461 1707.97,336.59 "/>
<polyline clip-path="url(#clip282)" style="stroke:#009af9; stroke-linecap:round; stroke-linejoin:round; stroke-width:20; stroke-opacity:1; fill:none" points="1707.97,336.59 1713.14,335.352 "/>
<polyline clip-path="url(#clip282)" style="stroke:#009af9; stroke-linecap:round; stroke-linejoin:round; stroke-width:20; stroke-opacity:1; fill:none" points="1713.14,335.352 1720.51,333.595 "/>
<polyline clip-path="url(#clip282)" style="stroke:#009af9; stroke-linecap:round; stroke-linejoin:round; stroke-width:20; stroke-opacity:1; fill:none" points="1720.51,333.595 1731.01,331.104 "/>
<polyline clip-path="url(#clip282)" style="stroke:#009af9; stroke-linecap:round; stroke-linejoin:round; stroke-width:20; stroke-opacity:1; fill:none" points="1731.01,331.104 1745.99,327.578 "/>
<polyline clip-path="url(#clip282)" style="stroke:#009af9; stroke-linecap:round; stroke-linejoin:round; stroke-width:20; stroke-opacity:1; fill:none" points="1745.99,327.578 1763.59,323.475 "/>
<polyline clip-path="url(#clip282)" style="stroke:#009af9; stroke-linecap:round; stroke-linejoin:round; stroke-width:20; stroke-opacity:1; fill:none" points="1763.59,323.475 1781.25,319.403 "/>
<polyline clip-path="url(#clip282)" style="stroke:#009af9; stroke-linecap:round; stroke-linejoin:round; stroke-width:20; stroke-opacity:1; fill:none" points="1781.25,319.403 1798.95,315.362 "/>
<polyline clip-path="url(#clip282)" style="stroke:#009af9; stroke-linecap:round; stroke-linejoin:round; stroke-width:20; stroke-opacity:1; fill:none" points="1798.95,315.362 1816.7,311.351 "/>
<polyline clip-path="url(#clip282)" style="stroke:#009af9; stroke-linecap:round; stroke-linejoin:round; stroke-width:20; stroke-opacity:1; fill:none" points="1816.7,311.351 1834.49,307.371 "/>
<polyline clip-path="url(#clip282)" style="stroke:#009af9; stroke-linecap:round; stroke-linejoin:round; stroke-width:20; stroke-opacity:1; fill:none" points="1834.49,307.371 1852.33,303.42 "/>
<polyline clip-path="url(#clip282)" style="stroke:#009af9; stroke-linecap:round; stroke-linejoin:round; stroke-width:20; stroke-opacity:1; fill:none" points="1852.33,303.42 1870.21,299.5 "/>
<polyline clip-path="url(#clip282)" style="stroke:#009af9; stroke-linecap:round; stroke-linejoin:round; stroke-width:20; stroke-opacity:1; fill:none" points="1870.21,299.5 1888.14,295.608 "/>
<polyline clip-path="url(#clip282)" style="stroke:#009af9; stroke-linecap:round; stroke-linejoin:round; stroke-width:20; stroke-opacity:1; fill:none" points="1888.14,295.608 1894.87,294.156 "/>
<polyline clip-path="url(#clip282)" style="stroke:#009af9; stroke-linecap:round; stroke-linejoin:round; stroke-width:4; stroke-opacity:1; fill:none" points="1894.87,294.156 1912.85,290.304 "/>
<polyline clip-path="url(#clip282)" style="stroke:#009af9; stroke-linecap:round; stroke-linejoin:round; stroke-width:4; stroke-opacity:1; fill:none" points="1912.85,290.304 1930.87,286.48 "/>
<polyline clip-path="url(#clip282)" style="stroke:#009af9; stroke-linecap:round; stroke-linejoin:round; stroke-width:4; stroke-opacity:1; fill:none" points="1930.87,286.48 1948.93,282.684 "/>
<polyline clip-path="url(#clip282)" style="stroke:#009af9; stroke-linecap:round; stroke-linejoin:round; stroke-width:4; stroke-opacity:1; fill:none" points="1948.93,282.684 1967.03,278.915 "/>
<polyline clip-path="url(#clip282)" style="stroke:#009af9; stroke-linecap:round; stroke-linejoin:round; stroke-width:4; stroke-opacity:1; fill:none" points="1967.03,278.915 1985.16,275.174 "/>
<polyline clip-path="url(#clip282)" style="stroke:#009af9; stroke-linecap:round; stroke-linejoin:round; stroke-width:4; stroke-opacity:1; fill:none" points="1985.16,275.174 2003.33,271.459 "/>
<polyline clip-path="url(#clip282)" style="stroke:#009af9; stroke-linecap:round; stroke-linejoin:round; stroke-width:4; stroke-opacity:1; fill:none" points="2003.33,271.459 2021.54,267.772 "/>
<polyline clip-path="url(#clip282)" style="stroke:#009af9; stroke-linecap:round; stroke-linejoin:round; stroke-width:4; stroke-opacity:1; fill:none" points="2021.54,267.772 2039.79,264.11 "/>
<polyline clip-path="url(#clip282)" style="stroke:#009af9; stroke-linecap:round; stroke-linejoin:round; stroke-width:4; stroke-opacity:1; fill:none" points="2039.79,264.11 2058.06,260.474 "/>
<polyline clip-path="url(#clip282)" style="stroke:#009af9; stroke-linecap:round; stroke-linejoin:round; stroke-width:4; stroke-opacity:1; fill:none" points="2058.06,260.474 2076.38,256.864 "/>
<polyline clip-path="url(#clip282)" style="stroke:#009af9; stroke-linecap:round; stroke-linejoin:round; stroke-width:4; stroke-opacity:1; fill:none" points="2076.38,256.864 2094.72,253.279 "/>
<polyline clip-path="url(#clip282)" style="stroke:#009af9; stroke-linecap:round; stroke-linejoin:round; stroke-width:4; stroke-opacity:1; fill:none" points="2094.72,253.279 2113.1,249.719 "/>
<polyline clip-path="url(#clip282)" style="stroke:#009af9; stroke-linecap:round; stroke-linejoin:round; stroke-width:4; stroke-opacity:1; fill:none" points="2113.1,249.719 2131.5,246.183 "/>
<polyline clip-path="url(#clip282)" style="stroke:#009af9; stroke-linecap:round; stroke-linejoin:round; stroke-width:4; stroke-opacity:1; fill:none" points="2131.5,246.183 2149.94,242.672 "/>
<polyline clip-path="url(#clip282)" style="stroke:#009af9; stroke-linecap:round; stroke-linejoin:round; stroke-width:4; stroke-opacity:1; fill:none" points="2149.94,242.672 2168.41,239.184 "/>
<polyline clip-path="url(#clip282)" style="stroke:#009af9; stroke-linecap:round; stroke-linejoin:round; stroke-width:4; stroke-opacity:1; fill:none" points="2168.41,239.184 2186.91,235.721 "/>
<polyline clip-path="url(#clip282)" style="stroke:#009af9; stroke-linecap:round; stroke-linejoin:round; stroke-width:4; stroke-opacity:1; fill:none" points="2186.91,235.721 2205.44,232.28 "/>
<polyline clip-path="url(#clip282)" style="stroke:#009af9; stroke-linecap:round; stroke-linejoin:round; stroke-width:4; stroke-opacity:1; fill:none" points="2205.44,232.28 2224,228.863 "/>
<polyline clip-path="url(#clip282)" style="stroke:#009af9; stroke-linecap:round; stroke-linejoin:round; stroke-width:4; stroke-opacity:1; fill:none" points="2224,228.863 2242.58,225.469 "/>
<polyline clip-path="url(#clip282)" style="stroke:#009af9; stroke-linecap:round; stroke-linejoin:round; stroke-width:4; stroke-opacity:1; fill:none" points="2242.58,225.469 2261.19,222.097 "/>
<polyline clip-path="url(#clip282)" style="stroke:#009af9; stroke-linecap:round; stroke-linejoin:round; stroke-width:4; stroke-opacity:1; fill:none" points="2261.19,222.097 2279.83,218.747 "/>
<polyline clip-path="url(#clip282)" style="stroke:#009af9; stroke-linecap:round; stroke-linejoin:round; stroke-width:4; stroke-opacity:1; fill:none" points="2279.83,218.747 2298.49,215.419 "/>
<polyline clip-path="url(#clip282)" style="stroke:#009af9; stroke-linecap:round; stroke-linejoin:round; stroke-width:4; stroke-opacity:1; fill:none" points="2298.49,215.419 2317.18,212.113 "/>
<polyline clip-path="url(#clip282)" style="stroke:#009af9; stroke-linecap:round; stroke-linejoin:round; stroke-width:4; stroke-opacity:1; fill:none" points="2317.18,212.113 2335.9,208.829 "/>
<polyline clip-path="url(#clip282)" style="stroke:#009af9; stroke-linecap:round; stroke-linejoin:round; stroke-width:4; stroke-opacity:1; fill:none" points="2335.9,208.829 2354.64,205.565 "/>
<polyline clip-path="url(#clip282)" style="stroke:#009af9; stroke-linecap:round; stroke-linejoin:round; stroke-width:4; stroke-opacity:1; fill:none" points="2354.64,205.565 2373.4,202.323 "/>
<polyline clip-path="url(#clip282)" style="stroke:#009af9; stroke-linecap:round; stroke-linejoin:round; stroke-width:4; stroke-opacity:1; fill:none" points="2373.4,202.323 2392.19,199.101 "/>
<polyline clip-path="url(#clip282)" style="stroke:#009af9; stroke-linecap:round; stroke-linejoin:round; stroke-width:4; stroke-opacity:1; fill:none" points="2392.19,199.101 2411,195.899 "/>
<polyline clip-path="url(#clip282)" style="stroke:#009af9; stroke-linecap:round; stroke-linejoin:round; stroke-width:4; stroke-opacity:1; fill:none" points="2411,195.899 2429.83,192.718 "/>
<polyline clip-path="url(#clip282)" style="stroke:#009af9; stroke-linecap:round; stroke-linejoin:round; stroke-width:4; stroke-opacity:1; fill:none" points="2429.83,192.718 2448.69,189.556 "/>
<polyline clip-path="url(#clip282)" style="stroke:#009af9; stroke-linecap:round; stroke-linejoin:round; stroke-width:4; stroke-opacity:1; fill:none" points="2448.69,189.556 2467.57,186.414 "/>
<polyline clip-path="url(#clip282)" style="stroke:#009af9; stroke-linecap:round; stroke-linejoin:round; stroke-width:4; stroke-opacity:1; fill:none" points="2467.57,186.414 2486.47,183.292 "/>
<polyline clip-path="url(#clip282)" style="stroke:#009af9; stroke-linecap:round; stroke-linejoin:round; stroke-width:4; stroke-opacity:1; fill:none" points="2486.47,183.292 2505.39,180.188 "/>
<polyline clip-path="url(#clip282)" style="stroke:#009af9; stroke-linecap:round; stroke-linejoin:round; stroke-width:4; stroke-opacity:1; fill:none" points="2505.39,180.188 2524.33,177.104 "/>
<polyline clip-path="url(#clip282)" style="stroke:#009af9; stroke-linecap:round; stroke-linejoin:round; stroke-width:4; stroke-opacity:1; fill:none" points="2524.33,177.104 2543.29,174.038 "/>
<polyline clip-path="url(#clip282)" style="stroke:#009af9; stroke-linecap:round; stroke-linejoin:round; stroke-width:4; stroke-opacity:1; fill:none" points="2543.29,174.038 2562.27,170.991 "/>
<polyline clip-path="url(#clip282)" style="stroke:#009af9; stroke-linecap:round; stroke-linejoin:round; stroke-width:4; stroke-opacity:1; fill:none" points="2562.27,170.991 2581.27,167.962 "/>
<polyline clip-path="url(#clip282)" style="stroke:#009af9; stroke-linecap:round; stroke-linejoin:round; stroke-width:4; stroke-opacity:1; fill:none" points="2581.27,167.962 2600.29,164.951 "/>
<polyline clip-path="url(#clip282)" style="stroke:#009af9; stroke-linecap:round; stroke-linejoin:round; stroke-width:4; stroke-opacity:1; fill:none" points="2600.29,164.951 2619.33,161.959 "/>
<polyline clip-path="url(#clip282)" style="stroke:#009af9; stroke-linecap:round; stroke-linejoin:round; stroke-width:4; stroke-opacity:1; fill:none" points="2619.33,161.959 2638.38,158.983 "/>
<polyline clip-path="url(#clip282)" style="stroke:#009af9; stroke-linecap:round; stroke-linejoin:round; stroke-width:4; stroke-opacity:1; fill:none" points="2638.38,158.983 2657.46,156.025 "/>
<polyline clip-path="url(#clip282)" style="stroke:#009af9; stroke-linecap:round; stroke-linejoin:round; stroke-width:4; stroke-opacity:1; fill:none" points="2657.46,156.025 2676.55,153.085 "/>
<polyline clip-path="url(#clip282)" style="stroke:#009af9; stroke-linecap:round; stroke-linejoin:round; stroke-width:4; stroke-opacity:1; fill:none" points="2676.55,153.085 2695.66,150.161 "/>
<polyline clip-path="url(#clip282)" style="stroke:#009af9; stroke-linecap:round; stroke-linejoin:round; stroke-width:4; stroke-opacity:1; fill:none" points="2695.66,150.161 2714.78,147.254 "/>
<polyline clip-path="url(#clip282)" style="stroke:#009af9; stroke-linecap:round; stroke-linejoin:round; stroke-width:4; stroke-opacity:1; fill:none" points="2714.78,147.254 2733.93,144.364 "/>
<polyline clip-path="url(#clip282)" style="stroke:#009af9; stroke-linecap:round; stroke-linejoin:round; stroke-width:4; stroke-opacity:1; fill:none" points="2733.93,144.364 2753.09,141.491 "/>
<polyline clip-path="url(#clip282)" style="stroke:#009af9; stroke-linecap:round; stroke-linejoin:round; stroke-width:4; stroke-opacity:1; fill:none" points="2753.09,141.491 2772.26,138.633 "/>
<polyline clip-path="url(#clip282)" style="stroke:#009af9; stroke-linecap:round; stroke-linejoin:round; stroke-width:4; stroke-opacity:1; fill:none" points="2772.26,138.633 2791.46,135.792 "/>
<polyline clip-path="url(#clip282)" style="stroke:#009af9; stroke-linecap:round; stroke-linejoin:round; stroke-width:4; stroke-opacity:1; fill:none" points="2791.46,135.792 2810.66,132.966 "/>
<polyline clip-path="url(#clip282)" style="stroke:#009af9; stroke-linecap:round; stroke-linejoin:round; stroke-width:4; stroke-opacity:1; fill:none" points="2810.66,132.966 2829.89,130.157 "/>
<polyline clip-path="url(#clip282)" style="stroke:#009af9; stroke-linecap:round; stroke-linejoin:round; stroke-width:4; stroke-opacity:1; fill:none" points="2829.89,130.157 2849.12,127.363 "/>
<polyline clip-path="url(#clip282)" style="stroke:#009af9; stroke-linecap:round; stroke-linejoin:round; stroke-width:4; stroke-opacity:1; fill:none" points="2849.12,127.363 2868.38,124.584 "/>
<polyline clip-path="url(#clip282)" style="stroke:#009af9; stroke-linecap:round; stroke-linejoin:round; stroke-width:4; stroke-opacity:1; fill:none" points="2868.38,124.584 2887.64,121.82 "/>
<polyline clip-path="url(#clip282)" style="stroke:#009af9; stroke-linecap:round; stroke-linejoin:round; stroke-width:4; stroke-opacity:1; fill:none" points="2887.64,121.82 2906.93,119.072 "/>
<polyline clip-path="url(#clip282)" style="stroke:#009af9; stroke-linecap:round; stroke-linejoin:round; stroke-width:4; stroke-opacity:1; fill:none" points="2906.93,119.072 2926.22,116.338 "/>
<polyline clip-path="url(#clip282)" style="stroke:#009af9; stroke-linecap:round; stroke-linejoin:round; stroke-width:4; stroke-opacity:1; fill:none" points="2926.22,116.338 2945.53,113.619 "/>
<polyline clip-path="url(#clip282)" style="stroke:#009af9; stroke-linecap:round; stroke-linejoin:round; stroke-width:4; stroke-opacity:1; fill:none" points="2945.53,113.619 2964.86,110.914 "/>
<polyline clip-path="url(#clip282)" style="stroke:#009af9; stroke-linecap:round; stroke-linejoin:round; stroke-width:4; stroke-opacity:1; fill:none" points="2964.86,110.914 2984.19,108.224 "/>
<polyline clip-path="url(#clip282)" style="stroke:#009af9; stroke-linecap:round; stroke-linejoin:round; stroke-width:4; stroke-opacity:1; fill:none" points="2984.19,108.224 3003.54,105.548 "/>
<polyline clip-path="url(#clip282)" style="stroke:#009af9; stroke-linecap:round; stroke-linejoin:round; stroke-width:4; stroke-opacity:1; fill:none" points="3003.54,105.548 3022.9,102.886 "/>
<polyline clip-path="url(#clip282)" style="stroke:#009af9; stroke-linecap:round; stroke-linejoin:round; stroke-width:4; stroke-opacity:1; fill:none" points="3022.9,102.886 3042.28,100.238 "/>
<polyline clip-path="url(#clip282)" style="stroke:#009af9; stroke-linecap:round; stroke-linejoin:round; stroke-width:4; stroke-opacity:1; fill:none" points="3042.28,100.238 3061.67,97.6043 "/>
<polyline clip-path="url(#clip282)" style="stroke:#009af9; stroke-linecap:round; stroke-linejoin:round; stroke-width:4; stroke-opacity:1; fill:none" points="3061.67,97.6043 3081.07,94.9838 "/>
<polyline clip-path="url(#clip282)" style="stroke:#009af9; stroke-linecap:round; stroke-linejoin:round; stroke-width:4; stroke-opacity:1; fill:none" points="3081.07,94.9838 3100.48,92.3767 "/>
<polyline clip-path="url(#clip282)" style="stroke:#009af9; stroke-linecap:round; stroke-linejoin:round; stroke-width:4; stroke-opacity:1; fill:none" points="3100.48,92.3767 3119.9,89.7829 "/>
<polyline clip-path="url(#clip282)" style="stroke:#009af9; stroke-linecap:round; stroke-linejoin:round; stroke-width:4; stroke-opacity:1; fill:none" points="3119.9,89.7829 3139.34,87.2024 "/>
<polyline clip-path="url(#clip282)" style="stroke:#009af9; stroke-linecap:round; stroke-linejoin:round; stroke-width:4; stroke-opacity:1; fill:none" points="3139.34,87.2024 3152.76,85.4293 "/>
<circle clip-path="url(#clip282)" cx="1894.87" cy="294.156" r="10.8" fill="#ff0000" fill-rule="evenodd" fill-opacity="1" stroke="none"/>
<circle clip-path="url(#clip282)" cx="1894.87" cy="294.156" r="10.8" fill="#ff0000" fill-rule="evenodd" fill-opacity="1" stroke="none"/>
<path clip-path="url(#clip280)" d="M344.175 247.738 L1271.17 247.738 L1271.17 92.2178 L344.175 92.2178  Z" fill="#ffffff" fill-rule="evenodd" fill-opacity="1"/>
<polyline clip-path="url(#clip280)" style="stroke:#000000; stroke-linecap:round; stroke-linejoin:round; stroke-width:4; stroke-opacity:1; fill:none" points="344.175,247.738 1271.17,247.738 1271.17,92.2178 344.175,92.2178 344.175,247.738 "/>
<polyline clip-path="url(#clip280)" style="stroke:#009af9; stroke-linecap:round; stroke-linejoin:round; stroke-width:20; stroke-opacity:1; fill:none" points="376.458,144.058 570.153,144.058 "/>
<path clip-path="url(#clip280)" d="M624.681 127.912 L624.681 132.472 Q622.019 131.199 619.658 130.574 Q617.297 129.949 615.098 129.949 Q611.278 129.949 609.195 131.431 Q607.135 132.912 607.135 135.644 Q607.135 137.935 608.5 139.116 Q609.889 140.273 613.732 140.991 L616.556 141.569 Q621.787 142.565 624.264 145.088 Q626.764 147.588 626.764 151.801 Q626.764 156.824 623.385 159.417 Q620.028 162.009 613.523 162.009 Q611.07 162.009 608.292 161.454 Q605.537 160.898 602.574 159.81 L602.574 154.995 Q605.422 156.592 608.153 157.403 Q610.885 158.213 613.523 158.213 Q617.528 158.213 619.704 156.639 Q621.88 155.065 621.88 152.148 Q621.88 149.602 620.306 148.167 Q618.755 146.731 615.19 146.014 L612.343 145.458 Q607.111 144.417 604.774 142.194 Q602.436 139.972 602.436 136.014 Q602.436 131.431 605.653 128.792 Q608.894 126.153 614.565 126.153 Q616.996 126.153 619.519 126.593 Q622.042 127.032 624.681 127.912 Z" fill="#000000" fill-rule="nonzero" fill-opacity="1" /><path clip-path="url(#clip280)" d="M638.084 128.051 L638.084 135.412 L646.857 135.412 L646.857 138.722 L638.084 138.722 L638.084 152.796 Q638.084 155.967 638.94 156.87 Q639.82 157.773 642.482 157.773 L646.857 157.773 L646.857 161.338 L642.482 161.338 Q637.551 161.338 635.676 159.509 Q633.801 157.657 633.801 152.796 L633.801 138.722 L630.676 138.722 L630.676 135.412 L633.801 135.412 L633.801 128.051 L638.084 128.051 Z" fill="#000000" fill-rule="nonzero" fill-opacity="1" /><path clip-path="url(#clip280)" d="M674.634 147.31 L674.634 149.393 L655.051 149.393 Q655.329 153.792 657.69 156.106 Q660.074 158.398 664.31 158.398 Q666.764 158.398 669.056 157.796 Q671.37 157.194 673.639 155.991 L673.639 160.018 Q671.347 160.991 668.94 161.5 Q666.532 162.009 664.056 162.009 Q657.852 162.009 654.218 158.398 Q650.607 154.787 650.607 148.63 Q650.607 142.264 654.033 138.537 Q657.482 134.787 663.315 134.787 Q668.546 134.787 671.579 138.167 Q674.634 141.523 674.634 147.31 M670.375 146.06 Q670.329 142.565 668.407 140.481 Q666.509 138.398 663.361 138.398 Q659.796 138.398 657.644 140.412 Q655.514 142.426 655.19 146.083 L670.375 146.06 Z" fill="#000000" fill-rule="nonzero" fill-opacity="1" /><path clip-path="url(#clip280)" d="M693.407 148.305 Q688.245 148.305 686.255 149.486 Q684.264 150.667 684.264 153.514 Q684.264 155.782 685.745 157.125 Q687.25 158.444 689.819 158.444 Q693.361 158.444 695.491 155.944 Q697.643 153.421 697.643 149.255 L697.643 148.305 L693.407 148.305 M701.903 146.546 L701.903 161.338 L697.643 161.338 L697.643 157.403 Q696.185 159.764 694.009 160.898 Q691.833 162.009 688.685 162.009 Q684.704 162.009 682.343 159.787 Q680.005 157.542 680.005 153.792 Q680.005 149.417 682.921 147.194 Q685.861 144.972 691.671 144.972 L697.643 144.972 L697.643 144.555 Q697.643 141.616 695.699 140.018 Q693.778 138.398 690.282 138.398 Q688.06 138.398 685.954 138.931 Q683.847 139.463 681.903 140.528 L681.903 136.593 Q684.241 135.69 686.44 135.25 Q688.639 134.787 690.722 134.787 Q696.347 134.787 699.125 137.704 Q701.903 140.62 701.903 146.546 Z" fill="#000000" fill-rule="nonzero" fill-opacity="1" /><path clip-path="url(#clip280)" d="M727.736 139.347 L727.736 125.319 L731.995 125.319 L731.995 161.338 L727.736 161.338 L727.736 157.449 Q726.393 159.764 724.333 160.898 Q722.296 162.009 719.426 162.009 Q714.727 162.009 711.764 158.259 Q708.824 154.509 708.824 148.398 Q708.824 142.287 711.764 138.537 Q714.727 134.787 719.426 134.787 Q722.296 134.787 724.333 135.921 Q726.393 137.032 727.736 139.347 M713.222 148.398 Q713.222 153.097 715.143 155.782 Q717.088 158.444 720.467 158.444 Q723.847 158.444 725.791 155.782 Q727.736 153.097 727.736 148.398 Q727.736 143.699 725.791 141.037 Q723.847 138.352 720.467 138.352 Q717.088 138.352 715.143 141.037 Q713.222 143.699 713.222 148.398 Z" fill="#000000" fill-rule="nonzero" fill-opacity="1" /><path clip-path="url(#clip280)" d="M751.555 163.745 Q749.75 168.375 748.037 169.787 Q746.324 171.199 743.453 171.199 L740.051 171.199 L740.051 167.634 L742.551 167.634 Q744.31 167.634 745.282 166.801 Q746.254 165.967 747.435 162.866 L748.199 160.921 L737.713 135.412 L742.226 135.412 L750.328 155.69 L758.43 135.412 L762.944 135.412 L751.555 163.745 Z" fill="#000000" fill-rule="nonzero" fill-opacity="1" /><path clip-path="url(#clip280)" d="M800.421 136.176 L800.421 140.204 Q798.615 139.278 796.671 138.815 Q794.726 138.352 792.643 138.352 Q789.472 138.352 787.874 139.324 Q786.3 140.296 786.3 142.241 Q786.3 143.722 787.435 144.579 Q788.569 145.412 791.995 146.176 L793.453 146.5 Q797.99 147.472 799.888 149.255 Q801.809 151.014 801.809 154.185 Q801.809 157.796 798.939 159.903 Q796.092 162.009 791.092 162.009 Q789.009 162.009 786.74 161.592 Q784.495 161.199 781.995 160.389 L781.995 155.991 Q784.356 157.217 786.648 157.842 Q788.939 158.444 791.185 158.444 Q794.194 158.444 795.814 157.426 Q797.435 156.384 797.435 154.509 Q797.435 152.773 796.254 151.847 Q795.097 150.921 791.138 150.065 L789.657 149.718 Q785.698 148.884 783.939 147.171 Q782.18 145.435 782.18 142.426 Q782.18 138.768 784.773 136.778 Q787.365 134.787 792.134 134.787 Q794.495 134.787 796.578 135.134 Q798.661 135.481 800.421 136.176 Z" fill="#000000" fill-rule="nonzero" fill-opacity="1" /><path clip-path="url(#clip280)" d="M812.805 128.051 L812.805 135.412 L821.578 135.412 L821.578 138.722 L812.805 138.722 L812.805 152.796 Q812.805 155.967 813.661 156.87 Q814.541 157.773 817.203 157.773 L821.578 157.773 L821.578 161.338 L817.203 161.338 Q812.272 161.338 810.397 159.509 Q808.522 157.657 808.522 152.796 L808.522 138.722 L805.397 138.722 L805.397 135.412 L808.522 135.412 L808.522 128.051 L812.805 128.051 Z" fill="#000000" fill-rule="nonzero" fill-opacity="1" /><path clip-path="url(#clip280)" d="M838.962 148.305 Q833.8 148.305 831.809 149.486 Q829.819 150.667 829.819 153.514 Q829.819 155.782 831.3 157.125 Q832.805 158.444 835.374 158.444 Q838.916 158.444 841.045 155.944 Q843.198 153.421 843.198 149.255 L843.198 148.305 L838.962 148.305 M847.457 146.546 L847.457 161.338 L843.198 161.338 L843.198 157.403 Q841.74 159.764 839.564 160.898 Q837.388 162.009 834.24 162.009 Q830.258 162.009 827.897 159.787 Q825.559 157.542 825.559 153.792 Q825.559 149.417 828.476 147.194 Q831.416 144.972 837.226 144.972 L843.198 144.972 L843.198 144.555 Q843.198 141.616 841.254 140.018 Q839.332 138.398 835.837 138.398 Q833.615 138.398 831.508 138.931 Q829.402 139.463 827.458 140.528 L827.458 136.593 Q829.795 135.69 831.995 135.25 Q834.194 134.787 836.277 134.787 Q841.902 134.787 844.68 137.704 Q847.457 140.62 847.457 146.546 Z" fill="#000000" fill-rule="nonzero" fill-opacity="1" /><path clip-path="url(#clip280)" d="M860.443 128.051 L860.443 135.412 L869.217 135.412 L869.217 138.722 L860.443 138.722 L860.443 152.796 Q860.443 155.967 861.3 156.87 Q862.18 157.773 864.842 157.773 L869.217 157.773 L869.217 161.338 L864.842 161.338 Q859.911 161.338 858.036 159.509 Q856.161 157.657 856.161 152.796 L856.161 138.722 L853.036 138.722 L853.036 135.412 L856.161 135.412 L856.161 128.051 L860.443 128.051 Z" fill="#000000" fill-rule="nonzero" fill-opacity="1" /><path clip-path="url(#clip280)" d="M896.994 147.31 L896.994 149.393 L877.411 149.393 Q877.689 153.792 880.05 156.106 Q882.434 158.398 886.67 158.398 Q889.124 158.398 891.415 157.796 Q893.73 157.194 895.999 155.991 L895.999 160.018 Q893.707 160.991 891.3 161.5 Q888.892 162.009 886.416 162.009 Q880.212 162.009 876.578 158.398 Q872.967 154.787 872.967 148.63 Q872.967 142.264 876.392 138.537 Q879.841 134.787 885.675 134.787 Q890.906 134.787 893.939 138.167 Q896.994 141.523 896.994 147.31 M892.735 146.06 Q892.689 142.565 890.767 140.481 Q888.869 138.398 885.721 138.398 Q882.156 138.398 880.004 140.412 Q877.874 142.426 877.55 146.083 L892.735 146.06 Z" fill="#000000" fill-rule="nonzero" fill-opacity="1" /><path clip-path="url(#clip280)" d="M937.712 136.407 L937.712 140.389 Q935.906 139.393 934.077 138.907 Q932.272 138.398 930.42 138.398 Q926.276 138.398 923.985 141.037 Q921.693 143.653 921.693 148.398 Q921.693 153.143 923.985 155.782 Q926.276 158.398 930.42 158.398 Q932.272 158.398 934.077 157.912 Q935.906 157.403 937.712 156.407 L937.712 160.342 Q935.929 161.176 934.008 161.592 Q932.11 162.009 929.957 162.009 Q924.101 162.009 920.651 158.329 Q917.202 154.648 917.202 148.398 Q917.202 142.056 920.675 138.421 Q924.17 134.787 930.235 134.787 Q932.202 134.787 934.077 135.204 Q935.952 135.597 937.712 136.407 Z" fill="#000000" fill-rule="nonzero" fill-opacity="1" /><path clip-path="url(#clip280)" d="M955.165 138.398 Q951.739 138.398 949.749 141.083 Q947.758 143.745 947.758 148.398 Q947.758 153.051 949.725 155.736 Q951.716 158.398 955.165 158.398 Q958.568 158.398 960.559 155.713 Q962.549 153.028 962.549 148.398 Q962.549 143.792 960.559 141.106 Q958.568 138.398 955.165 138.398 M955.165 134.787 Q960.721 134.787 963.892 138.398 Q967.063 142.009 967.063 148.398 Q967.063 154.764 963.892 158.398 Q960.721 162.009 955.165 162.009 Q949.586 162.009 946.415 158.398 Q943.267 154.764 943.267 148.398 Q943.267 142.009 946.415 138.398 Q949.586 134.787 955.165 134.787 Z" fill="#000000" fill-rule="nonzero" fill-opacity="1" /><path clip-path="url(#clip280)" d="M995.674 145.69 L995.674 161.338 L991.415 161.338 L991.415 145.829 Q991.415 142.148 989.98 140.319 Q988.545 138.491 985.674 138.491 Q982.225 138.491 980.234 140.69 Q978.244 142.889 978.244 146.685 L978.244 161.338 L973.961 161.338 L973.961 135.412 L978.244 135.412 L978.244 139.44 Q979.772 137.102 981.832 135.944 Q983.915 134.787 986.623 134.787 Q991.091 134.787 993.383 137.565 Q995.674 140.319 995.674 145.69 Z" fill="#000000" fill-rule="nonzero" fill-opacity="1" /><path clip-path="url(#clip280)" d="M1022.83 136.407 L1022.83 140.389 Q1021.02 139.393 1019.19 138.907 Q1017.39 138.398 1015.54 138.398 Q1011.39 138.398 1009.1 141.037 Q1006.81 143.653 1006.81 148.398 Q1006.81 153.143 1009.1 155.782 Q1011.39 158.398 1015.54 158.398 Q1017.39 158.398 1019.19 157.912 Q1021.02 157.403 1022.83 156.407 L1022.83 160.342 Q1021.04 161.176 1019.12 161.592 Q1017.23 162.009 1015.07 162.009 Q1009.22 162.009 1005.77 158.329 Q1002.32 154.648 1002.32 148.398 Q1002.32 142.056 1005.79 138.421 Q1009.29 134.787 1015.35 134.787 Q1017.32 134.787 1019.19 135.204 Q1021.07 135.597 1022.83 136.407 Z" fill="#000000" fill-rule="nonzero" fill-opacity="1" /><path clip-path="url(#clip280)" d="M1052.41 147.31 L1052.41 149.393 L1032.83 149.393 Q1033.1 153.792 1035.47 156.106 Q1037.85 158.398 1042.09 158.398 Q1044.54 158.398 1046.83 157.796 Q1049.15 157.194 1051.41 155.991 L1051.41 160.018 Q1049.12 160.991 1046.72 161.5 Q1044.31 162.009 1041.83 162.009 Q1035.63 162.009 1031.99 158.398 Q1028.38 154.787 1028.38 148.63 Q1028.38 142.264 1031.81 138.537 Q1035.26 134.787 1041.09 134.787 Q1046.32 134.787 1049.35 138.167 Q1052.41 141.523 1052.41 147.31 M1048.15 146.06 Q1048.1 142.565 1046.18 140.481 Q1044.29 138.398 1041.14 138.398 Q1037.57 138.398 1035.42 140.412 Q1033.29 142.426 1032.97 146.083 L1048.15 146.06 Z" fill="#000000" fill-rule="nonzero" fill-opacity="1" /><path clip-path="url(#clip280)" d="M1080.95 145.69 L1080.95 161.338 L1076.69 161.338 L1076.69 145.829 Q1076.69 142.148 1075.26 140.319 Q1073.82 138.491 1070.95 138.491 Q1067.5 138.491 1065.51 140.69 Q1063.52 142.889 1063.52 146.685 L1063.52 161.338 L1059.24 161.338 L1059.24 135.412 L1063.52 135.412 L1063.52 139.44 Q1065.05 137.102 1067.11 135.944 Q1069.19 134.787 1071.9 134.787 Q1076.37 134.787 1078.66 137.565 Q1080.95 140.319 1080.95 145.69 Z" fill="#000000" fill-rule="nonzero" fill-opacity="1" /><path clip-path="url(#clip280)" d="M1093.66 128.051 L1093.66 135.412 L1102.43 135.412 L1102.43 138.722 L1093.66 138.722 L1093.66 152.796 Q1093.66 155.967 1094.52 156.87 Q1095.4 157.773 1098.06 157.773 L1102.43 157.773 L1102.43 161.338 L1098.06 161.338 Q1093.13 161.338 1091.25 159.509 Q1089.38 157.657 1089.38 152.796 L1089.38 138.722 L1086.25 138.722 L1086.25 135.412 L1089.38 135.412 L1089.38 128.051 L1093.66 128.051 Z" fill="#000000" fill-rule="nonzero" fill-opacity="1" /><path clip-path="url(#clip280)" d="M1123.06 139.393 Q1122.34 138.977 1121.48 138.792 Q1120.65 138.583 1119.63 138.583 Q1116.02 138.583 1114.08 140.944 Q1112.16 143.282 1112.16 147.68 L1112.16 161.338 L1107.87 161.338 L1107.87 135.412 L1112.16 135.412 L1112.16 139.44 Q1113.5 137.079 1115.65 135.944 Q1117.8 134.787 1120.88 134.787 Q1121.32 134.787 1121.85 134.856 Q1122.39 134.903 1123.03 135.019 L1123.06 139.393 Z" fill="#000000" fill-rule="nonzero" fill-opacity="1" /><path clip-path="url(#clip280)" d="M1139.31 148.305 Q1134.15 148.305 1132.15 149.486 Q1130.16 150.667 1130.16 153.514 Q1130.16 155.782 1131.65 157.125 Q1133.15 158.444 1135.72 158.444 Q1139.26 158.444 1141.39 155.944 Q1143.54 153.421 1143.54 149.255 L1143.54 148.305 L1139.31 148.305 M1147.8 146.546 L1147.8 161.338 L1143.54 161.338 L1143.54 157.403 Q1142.09 159.764 1139.91 160.898 Q1137.73 162.009 1134.59 162.009 Q1130.6 162.009 1128.24 159.787 Q1125.9 157.542 1125.9 153.792 Q1125.9 149.417 1128.82 147.194 Q1131.76 144.972 1137.57 144.972 L1143.54 144.972 L1143.54 144.555 Q1143.54 141.616 1141.6 140.018 Q1139.68 138.398 1136.18 138.398 Q1133.96 138.398 1131.85 138.931 Q1129.75 139.463 1127.8 140.528 L1127.8 136.593 Q1130.14 135.69 1132.34 135.25 Q1134.54 134.787 1136.62 134.787 Q1142.25 134.787 1145.03 137.704 Q1147.8 140.62 1147.8 146.546 Z" fill="#000000" fill-rule="nonzero" fill-opacity="1" /><path clip-path="url(#clip280)" d="M1160.79 128.051 L1160.79 135.412 L1169.56 135.412 L1169.56 138.722 L1160.79 138.722 L1160.79 152.796 Q1160.79 155.967 1161.65 156.87 Q1162.53 157.773 1165.19 157.773 L1169.56 157.773 L1169.56 161.338 L1165.19 161.338 Q1160.26 161.338 1158.38 159.509 Q1156.51 157.657 1156.51 152.796 L1156.51 138.722 L1153.38 138.722 L1153.38 135.412 L1156.51 135.412 L1156.51 128.051 L1160.79 128.051 Z" fill="#000000" fill-rule="nonzero" fill-opacity="1" /><path clip-path="url(#clip280)" d="M1175.16 135.412 L1179.42 135.412 L1179.42 161.338 L1175.16 161.338 L1175.16 135.412 M1175.16 125.319 L1179.42 125.319 L1179.42 130.713 L1175.16 130.713 L1175.16 125.319 Z" fill="#000000" fill-rule="nonzero" fill-opacity="1" /><path clip-path="url(#clip280)" d="M1198.38 138.398 Q1194.96 138.398 1192.96 141.083 Q1190.97 143.745 1190.97 148.398 Q1190.97 153.051 1192.94 155.736 Q1194.93 158.398 1198.38 158.398 Q1201.78 158.398 1203.77 155.713 Q1205.77 153.028 1205.77 148.398 Q1205.77 143.792 1203.77 141.106 Q1201.78 138.398 1198.38 138.398 M1198.38 134.787 Q1203.94 134.787 1207.11 138.398 Q1210.28 142.009 1210.28 148.398 Q1210.28 154.764 1207.11 158.398 Q1203.94 162.009 1198.38 162.009 Q1192.8 162.009 1189.63 158.398 Q1186.48 154.764 1186.48 148.398 Q1186.48 142.009 1189.63 138.398 Q1192.8 134.787 1198.38 134.787 Z" fill="#000000" fill-rule="nonzero" fill-opacity="1" /><path clip-path="url(#clip280)" d="M1238.89 145.69 L1238.89 161.338 L1234.63 161.338 L1234.63 145.829 Q1234.63 142.148 1233.2 140.319 Q1231.76 138.491 1228.89 138.491 Q1225.44 138.491 1223.45 140.69 Q1221.46 142.889 1221.46 146.685 L1221.46 161.338 L1217.18 161.338 L1217.18 135.412 L1221.46 135.412 L1221.46 139.44 Q1222.99 137.102 1225.05 135.944 Q1227.13 134.787 1229.84 134.787 Q1234.31 134.787 1236.6 137.565 Q1238.89 140.319 1238.89 145.69 Z" fill="#000000" fill-rule="nonzero" fill-opacity="1" /><circle clip-path="url(#clip280)" cx="473.305" cy="195.898" r="23.04" fill="#ff0000" fill-rule="evenodd" fill-opacity="1" stroke="none"/>
<path clip-path="url(#clip280)" d="M624.148 197.53 L624.148 213.178 L619.889 213.178 L619.889 197.669 Q619.889 193.988 618.454 192.159 Q617.019 190.331 614.148 190.331 Q610.699 190.331 608.709 192.53 Q606.718 194.729 606.718 198.525 L606.718 213.178 L602.436 213.178 L602.436 177.159 L606.718 177.159 L606.718 191.28 Q608.246 188.942 610.306 187.784 Q612.389 186.627 615.098 186.627 Q619.565 186.627 621.857 189.405 Q624.148 192.159 624.148 197.53 Z" fill="#000000" fill-rule="nonzero" fill-opacity="1" /><path clip-path="url(#clip280)" d="M642.69 190.238 Q639.264 190.238 637.273 192.923 Q635.283 195.585 635.283 200.238 Q635.283 204.891 637.25 207.576 Q639.241 210.238 642.69 210.238 Q646.093 210.238 648.083 207.553 Q650.074 204.868 650.074 200.238 Q650.074 195.632 648.083 192.946 Q646.093 190.238 642.69 190.238 M642.69 186.627 Q648.246 186.627 651.417 190.238 Q654.588 193.849 654.588 200.238 Q654.588 206.604 651.417 210.238 Q648.246 213.849 642.69 213.849 Q637.111 213.849 633.94 210.238 Q630.792 206.604 630.792 200.238 Q630.792 193.849 633.94 190.238 Q637.111 186.627 642.69 186.627 Z" fill="#000000" fill-rule="nonzero" fill-opacity="1" /><path clip-path="url(#clip280)" d="M665.769 209.289 L665.769 223.039 L661.486 223.039 L661.486 187.252 L665.769 187.252 L665.769 191.187 Q667.111 188.872 669.148 187.761 Q671.208 186.627 674.056 186.627 Q678.778 186.627 681.718 190.377 Q684.68 194.127 684.68 200.238 Q684.68 206.349 681.718 210.099 Q678.778 213.849 674.056 213.849 Q671.208 213.849 669.148 212.738 Q667.111 211.604 665.769 209.289 M680.259 200.238 Q680.259 195.539 678.315 192.877 Q676.394 190.192 673.014 190.192 Q669.634 190.192 667.69 192.877 Q665.769 195.539 665.769 200.238 Q665.769 204.937 667.69 207.622 Q669.634 210.284 673.014 210.284 Q676.394 210.284 678.315 207.622 Q680.259 204.937 680.259 200.238 Z" fill="#000000" fill-rule="nonzero" fill-opacity="1" /><path clip-path="url(#clip280)" d="M704.866 177.159 L704.866 180.701 L700.792 180.701 Q698.5 180.701 697.597 181.627 Q696.717 182.553 696.717 184.96 L696.717 187.252 L703.731 187.252 L703.731 190.562 L696.717 190.562 L696.717 213.178 L692.435 213.178 L692.435 190.562 L688.361 190.562 L688.361 187.252 L692.435 187.252 L692.435 185.446 Q692.435 181.118 694.449 179.15 Q696.463 177.159 700.838 177.159 L704.866 177.159 Z" fill="#000000" fill-rule="nonzero" fill-opacity="1" /></svg>
