<?xml version="1.0" encoding="utf-8"?>
<svg xmlns="http://www.w3.org/2000/svg" xmlns:xlink="http://www.w3.org/1999/xlink" width="600" height="400" viewBox="0 0 2400 1600">
<defs>
  <clipPath id="clip840">
    <rect x="0" y="0" width="2400" height="1600"/>
  </clipPath>
</defs>
<path clip-path="url(#clip840)" d="M0 1600 L2400 1600 L2400 0 L0 0  Z" fill="#ffffff" fill-rule="evenodd" fill-opacity="1"/>
<defs>
  <clipPath id="clip841">
    <rect x="480" y="0" width="1681" height="1600"/>
  </clipPath>
</defs>
<path clip-path="url(#clip840)" d="M282.527 1375.94 L2352.76 1375.94 L2352.76 47.2441 L282.527 47.2441  Z" fill="#ffffff" fill-rule="evenodd" fill-opacity="1"/>
<defs>
  <clipPath id="clip842">
    <rect x="282" y="47" width="2071" height="1330"/>
  </clipPath>
</defs>
<polyline clip-path="url(#clip842)" style="stroke:#000000; stroke-linecap:round; stroke-linejoin:round; stroke-width:2; stroke-opacity:0.1; fill:none" points="282.527,1375.94 282.527,47.2441 "/>
<polyline clip-path="url(#clip842)" style="stroke:#000000; stroke-linecap:round; stroke-linejoin:round; stroke-width:2; stroke-opacity:0.1; fill:none" points="627.565,1375.94 627.565,47.2441 "/>
<polyline clip-path="url(#clip842)" style="stroke:#000000; stroke-linecap:round; stroke-linejoin:round; stroke-width:2; stroke-opacity:0.1; fill:none" points="972.603,1375.94 972.603,47.2441 "/>
<polyline clip-path="url(#clip842)" style="stroke:#000000; stroke-linecap:round; stroke-linejoin:round; stroke-width:2; stroke-opacity:0.1; fill:none" points="1317.64,1375.94 1317.64,47.2441 "/>
<polyline clip-path="url(#clip842)" style="stroke:#000000; stroke-linecap:round; stroke-linejoin:round; stroke-width:2; stroke-opacity:0.1; fill:none" points="1662.68,1375.94 1662.68,47.2441 "/>
<polyline clip-path="url(#clip842)" style="stroke:#000000; stroke-linecap:round; stroke-linejoin:round; stroke-width:2; stroke-opacity:0.1; fill:none" points="2007.72,1375.94 2007.72,47.2441 "/>
<polyline clip-path="url(#clip842)" style="stroke:#000000; stroke-linecap:round; stroke-linejoin:round; stroke-width:2; stroke-opacity:0.1; fill:none" points="2352.76,1375.94 2352.76,47.2441 "/>
<polyline clip-path="url(#clip842)" style="stroke:#000000; stroke-linecap:round; stroke-linejoin:round; stroke-width:2; stroke-opacity:0.1; fill:none" points="282.527,1340.19 2352.76,1340.19 "/>
<polyline clip-path="url(#clip842)" style="stroke:#000000; stroke-linecap:round; stroke-linejoin:round; stroke-width:2; stroke-opacity:0.1; fill:none" points="282.527,1154.68 2352.76,1154.68 "/>
<polyline clip-path="url(#clip842)" style="stroke:#000000; stroke-linecap:round; stroke-linejoin:round; stroke-width:2; stroke-opacity:0.1; fill:none" points="282.527,969.165 2352.76,969.165 "/>
<polyline clip-path="url(#clip842)" style="stroke:#000000; stroke-linecap:round; stroke-linejoin:round; stroke-width:2; stroke-opacity:0.1; fill:none" points="282.527,783.654 2352.76,783.654 "/>
<polyline clip-path="url(#clip842)" style="stroke:#000000; stroke-linecap:round; stroke-linejoin:round; stroke-width:2; stroke-opacity:0.1; fill:none" points="282.527,598.144 2352.76,598.144 "/>
<polyline clip-path="url(#clip842)" style="stroke:#000000; stroke-linecap:round; stroke-linejoin:round; stroke-width:2; stroke-opacity:0.1; fill:none" points="282.527,412.633 2352.76,412.633 "/>
<polyline clip-path="url(#clip842)" style="stroke:#000000; stroke-linecap:round; stroke-linejoin:round; stroke-width:2; stroke-opacity:0.1; fill:none" points="282.527,227.122 2352.76,227.122 "/>
<polyline clip-path="url(#clip840)" style="stroke:#000000; stroke-linecap:round; stroke-linejoin:round; stroke-width:4; stroke-opacity:1; fill:none" points="282.527,1375.94 2352.76,1375.94 "/>
<polyline clip-path="url(#clip840)" style="stroke:#000000; stroke-linecap:round; stroke-linejoin:round; stroke-width:4; stroke-opacity:1; fill:none" points="282.527,1375.94 282.527,1357.04 "/>
<polyline clip-path="url(#clip840)" style="stroke:#000000; stroke-linecap:round; stroke-linejoin:round; stroke-width:4; stroke-opacity:1; fill:none" points="627.565,1375.94 627.565,1357.04 "/>
<polyline clip-path="url(#clip840)" style="stroke:#000000; stroke-linecap:round; stroke-linejoin:round; stroke-width:4; stroke-opacity:1; fill:none" points="972.603,1375.94 972.603,1357.04 "/>
<polyline clip-path="url(#clip840)" style="stroke:#000000; stroke-linecap:round; stroke-linejoin:round; stroke-width:4; stroke-opacity:1; fill:none" points="1317.64,1375.94 1317.64,1357.04 "/>
<polyline clip-path="url(#clip840)" style="stroke:#000000; stroke-linecap:round; stroke-linejoin:round; stroke-width:4; stroke-opacity:1; fill:none" points="1662.68,1375.94 1662.68,1357.04 "/>
<polyline clip-path="url(#clip840)" style="stroke:#000000; stroke-linecap:round; stroke-linejoin:round; stroke-width:4; stroke-opacity:1; fill:none" points="2007.72,1375.94 2007.72,1357.04 "/>
<polyline clip-path="url(#clip840)" style="stroke:#000000; stroke-linecap:round; stroke-linejoin:round; stroke-width:4; stroke-opacity:1; fill:none" points="2352.76,1375.94 2352.76,1357.04 "/>
<path clip-path="url(#clip840)" d="M282.527 1406.85 Q278.916 1406.85 277.087 1410.42 Q275.282 1413.96 275.282 1421.09 Q275.282 1428.2 277.087 1431.76 Q278.916 1435.3 282.527 1435.3 Q286.161 1435.3 287.967 1431.76 Q289.795 1428.2 289.795 1421.09 Q289.795 1413.96 287.967 1410.42 Q286.161 1406.85 282.527 1406.85 M282.527 1403.15 Q288.337 1403.15 291.393 1407.76 Q294.471 1412.34 294.471 1421.09 Q294.471 1429.82 291.393 1434.42 Q288.337 1439.01 282.527 1439.01 Q276.717 1439.01 273.638 1434.42 Q270.583 1429.82 270.583 1421.09 Q270.583 1412.34 273.638 1407.76 Q276.717 1403.15 282.527 1403.15 Z" fill="#000000" fill-rule="nonzero" fill-opacity="1" /><path clip-path="url(#clip840)" d="M617.947 1434.4 L625.586 1434.4 L625.586 1408.03 L617.276 1409.7 L617.276 1405.44 L625.54 1403.78 L630.216 1403.78 L630.216 1434.4 L637.854 1434.4 L637.854 1438.34 L617.947 1438.34 L617.947 1434.4 Z" fill="#000000" fill-rule="nonzero" fill-opacity="1" /><path clip-path="url(#clip840)" d="M967.256 1434.4 L983.575 1434.4 L983.575 1438.34 L961.631 1438.34 L961.631 1434.4 Q964.293 1431.65 968.876 1427.02 Q973.483 1422.36 974.663 1421.02 Q976.909 1418.5 977.788 1416.76 Q978.691 1415 978.691 1413.31 Q978.691 1410.56 976.747 1408.82 Q974.825 1407.09 971.724 1407.09 Q969.525 1407.09 967.071 1407.85 Q964.64 1408.61 961.863 1410.16 L961.863 1405.44 Q964.687 1404.31 967.14 1403.73 Q969.594 1403.15 971.631 1403.15 Q977.001 1403.15 980.196 1405.84 Q983.39 1408.52 983.39 1413.01 Q983.39 1415.14 982.58 1417.06 Q981.793 1418.96 979.687 1421.55 Q979.108 1422.22 976.006 1425.44 Q972.904 1428.64 967.256 1434.4 Z" fill="#000000" fill-rule="nonzero" fill-opacity="1" /><path clip-path="url(#clip840)" d="M1321.89 1419.7 Q1325.25 1420.42 1327.12 1422.69 Q1329.02 1424.96 1329.02 1428.29 Q1329.02 1433.41 1325.5 1436.21 Q1321.98 1439.01 1315.5 1439.01 Q1313.32 1439.01 1311.01 1438.57 Q1308.72 1438.15 1306.26 1437.29 L1306.26 1432.78 Q1308.21 1433.91 1310.52 1434.49 Q1312.84 1435.07 1315.36 1435.07 Q1319.76 1435.07 1322.05 1433.34 Q1324.37 1431.6 1324.37 1428.29 Q1324.37 1425.23 1322.21 1423.52 Q1320.08 1421.78 1316.26 1421.78 L1312.24 1421.78 L1312.24 1417.94 L1316.45 1417.94 Q1319.9 1417.94 1321.73 1416.58 Q1323.56 1415.19 1323.56 1412.6 Q1323.56 1409.93 1321.66 1408.52 Q1319.78 1407.09 1316.26 1407.09 Q1314.34 1407.09 1312.14 1407.5 Q1309.94 1407.92 1307.31 1408.8 L1307.31 1404.63 Q1309.97 1403.89 1312.28 1403.52 Q1314.62 1403.15 1316.68 1403.15 Q1322 1403.15 1325.11 1405.58 Q1328.21 1407.99 1328.21 1412.11 Q1328.21 1414.98 1326.56 1416.97 Q1324.92 1418.94 1321.89 1419.7 Z" fill="#000000" fill-rule="nonzero" fill-opacity="1" /><path clip-path="url(#clip840)" d="M1665.69 1407.85 L1653.88 1426.3 L1665.69 1426.3 L1665.69 1407.85 M1664.46 1403.78 L1670.34 1403.78 L1670.34 1426.3 L1675.27 1426.3 L1675.27 1430.19 L1670.34 1430.19 L1670.34 1438.34 L1665.69 1438.34 L1665.69 1430.19 L1650.09 1430.19 L1650.09 1425.67 L1664.46 1403.78 Z" fill="#000000" fill-rule="nonzero" fill-opacity="1" /><path clip-path="url(#clip840)" d="M1998 1403.78 L2016.35 1403.78 L2016.35 1407.71 L2002.28 1407.71 L2002.28 1416.18 Q2003.3 1415.84 2004.31 1415.67 Q2005.33 1415.49 2006.35 1415.49 Q2012.14 1415.49 2015.52 1418.66 Q2018.9 1421.83 2018.9 1427.25 Q2018.9 1432.83 2015.43 1435.93 Q2011.95 1439.01 2005.63 1439.01 Q2003.46 1439.01 2001.19 1438.64 Q1998.94 1438.27 1996.54 1437.53 L1996.54 1432.83 Q1998.62 1433.96 2000.84 1434.52 Q2003.06 1435.07 2005.54 1435.07 Q2009.55 1435.07 2011.88 1432.97 Q2014.22 1430.86 2014.22 1427.25 Q2014.22 1423.64 2011.88 1421.53 Q2009.55 1419.42 2005.54 1419.42 Q2003.67 1419.42 2001.79 1419.84 Q1999.94 1420.26 1998 1421.14 L1998 1403.78 Z" fill="#000000" fill-rule="nonzero" fill-opacity="1" /><path clip-path="url(#clip840)" d="M2353.16 1419.19 Q2350.01 1419.19 2348.16 1421.35 Q2346.33 1423.5 2346.33 1427.25 Q2346.33 1430.97 2348.16 1433.15 Q2350.01 1435.3 2353.16 1435.3 Q2356.31 1435.3 2358.14 1433.15 Q2359.99 1430.97 2359.99 1427.25 Q2359.99 1423.5 2358.14 1421.35 Q2356.31 1419.19 2353.16 1419.19 M2362.44 1404.54 L2362.44 1408.8 Q2360.68 1407.97 2358.88 1407.53 Q2357.1 1407.09 2355.34 1407.09 Q2350.71 1407.09 2348.25 1410.21 Q2345.82 1413.34 2345.48 1419.66 Q2346.84 1417.64 2348.9 1416.58 Q2350.96 1415.49 2353.44 1415.49 Q2358.65 1415.49 2361.66 1418.66 Q2364.69 1421.81 2364.69 1427.25 Q2364.69 1432.57 2361.54 1435.79 Q2358.39 1439.01 2353.16 1439.01 Q2347.17 1439.01 2343.99 1434.42 Q2340.82 1429.82 2340.82 1421.09 Q2340.82 1412.9 2344.71 1408.03 Q2348.6 1403.15 2355.15 1403.15 Q2356.91 1403.15 2358.69 1403.5 Q2360.5 1403.85 2362.44 1404.54 Z" fill="#000000" fill-rule="nonzero" fill-opacity="1" /><path clip-path="url(#clip840)" d="M1256.8 1475.03 L1256.8 1485.15 L1268.86 1485.15 L1268.86 1489.7 L1256.8 1489.7 L1256.8 1509.06 Q1256.8 1513.42 1257.98 1514.66 Q1259.19 1515.9 1262.85 1515.9 L1268.86 1515.9 L1268.86 1520.8 L1262.85 1520.8 Q1256.07 1520.8 1253.49 1518.29 Q1250.91 1515.74 1250.91 1509.06 L1250.91 1489.7 L1246.62 1489.7 L1246.62 1485.15 L1250.91 1485.15 L1250.91 1475.03 L1256.8 1475.03 Z" fill="#000000" fill-rule="nonzero" fill-opacity="1" /><path clip-path="url(#clip840)" d="M1276.57 1485.15 L1282.42 1485.15 L1282.42 1520.8 L1276.57 1520.8 L1276.57 1485.15 M1276.57 1471.27 L1282.42 1471.27 L1282.42 1478.69 L1276.57 1478.69 L1276.57 1471.27 Z" fill="#000000" fill-rule="nonzero" fill-opacity="1" /><path clip-path="url(#clip840)" d="M1322.43 1491.99 Q1324.63 1488.05 1327.68 1486.17 Q1330.74 1484.29 1334.88 1484.29 Q1340.45 1484.29 1343.47 1488.21 Q1346.49 1492.09 1346.49 1499.28 L1346.49 1520.8 L1340.61 1520.8 L1340.61 1499.47 Q1340.61 1494.35 1338.79 1491.87 Q1336.98 1489.38 1333.25 1489.38 Q1328.7 1489.38 1326.06 1492.41 Q1323.42 1495.43 1323.42 1500.65 L1323.42 1520.8 L1317.53 1520.8 L1317.53 1499.47 Q1317.53 1494.32 1315.72 1491.87 Q1313.9 1489.38 1310.11 1489.38 Q1305.63 1489.38 1302.98 1492.44 Q1300.34 1495.46 1300.34 1500.65 L1300.34 1520.8 L1294.45 1520.8 L1294.45 1485.15 L1300.34 1485.15 L1300.34 1490.69 Q1302.35 1487.41 1305.15 1485.85 Q1307.95 1484.29 1311.8 1484.29 Q1315.68 1484.29 1318.39 1486.27 Q1321.13 1488.24 1322.43 1491.99 Z" fill="#000000" fill-rule="nonzero" fill-opacity="1" /><path clip-path="url(#clip840)" d="M1388.67 1501.51 L1388.67 1504.38 L1361.74 1504.38 Q1362.12 1510.42 1365.37 1513.61 Q1368.65 1516.76 1374.47 1516.76 Q1377.85 1516.76 1381 1515.93 Q1384.18 1515.1 1387.3 1513.45 L1387.3 1518.99 Q1384.15 1520.32 1380.84 1521.02 Q1377.53 1521.72 1374.12 1521.72 Q1365.59 1521.72 1360.59 1516.76 Q1355.63 1511.79 1355.63 1503.33 Q1355.63 1494.57 1360.34 1489.45 Q1365.08 1484.29 1373.1 1484.29 Q1380.3 1484.29 1384.47 1488.94 Q1388.67 1493.55 1388.67 1501.51 M1382.81 1499.79 Q1382.75 1494.99 1380.1 1492.12 Q1377.49 1489.26 1373.17 1489.26 Q1368.26 1489.26 1365.3 1492.03 Q1362.38 1494.8 1361.93 1499.82 L1382.81 1499.79 Z" fill="#000000" fill-rule="nonzero" fill-opacity="1" /><polyline clip-path="url(#clip840)" style="stroke:#000000; stroke-linecap:round; stroke-linejoin:round; stroke-width:4; stroke-opacity:1; fill:none" points="282.527,1375.94 282.527,47.2441 "/>
<polyline clip-path="url(#clip840)" style="stroke:#000000; stroke-linecap:round; stroke-linejoin:round; stroke-width:4; stroke-opacity:1; fill:none" points="282.527,1340.19 301.425,1340.19 "/>
<polyline clip-path="url(#clip840)" style="stroke:#000000; stroke-linecap:round; stroke-linejoin:round; stroke-width:4; stroke-opacity:1; fill:none" points="282.527,1154.68 301.425,1154.68 "/>
<polyline clip-path="url(#clip840)" style="stroke:#000000; stroke-linecap:round; stroke-linejoin:round; stroke-width:4; stroke-opacity:1; fill:none" points="282.527,969.165 301.425,969.165 "/>
<polyline clip-path="url(#clip840)" style="stroke:#000000; stroke-linecap:round; stroke-linejoin:round; stroke-width:4; stroke-opacity:1; fill:none" points="282.527,783.654 301.425,783.654 "/>
<polyline clip-path="url(#clip840)" style="stroke:#000000; stroke-linecap:round; stroke-linejoin:round; stroke-width:4; stroke-opacity:1; fill:none" points="282.527,598.144 301.425,598.144 "/>
<polyline clip-path="url(#clip840)" style="stroke:#000000; stroke-linecap:round; stroke-linejoin:round; stroke-width:4; stroke-opacity:1; fill:none" points="282.527,412.633 301.425,412.633 "/>
<polyline clip-path="url(#clip840)" style="stroke:#000000; stroke-linecap:round; stroke-linejoin:round; stroke-width:4; stroke-opacity:1; fill:none" points="282.527,227.122 301.425,227.122 "/>
<path clip-path="url(#clip840)" d="M234.583 1325.99 Q230.971 1325.99 229.143 1329.55 Q227.337 1333.09 227.337 1340.22 Q227.337 1347.33 229.143 1350.89 Q230.971 1354.43 234.583 1354.43 Q238.217 1354.43 240.022 1350.89 Q241.851 1347.33 241.851 1340.22 Q241.851 1333.09 240.022 1329.55 Q238.217 1325.99 234.583 1325.99 M234.583 1322.28 Q240.393 1322.28 243.448 1326.89 Q246.527 1331.47 246.527 1340.22 Q246.527 1348.95 243.448 1353.55 Q240.393 1358.14 234.583 1358.14 Q228.772 1358.14 225.694 1353.55 Q222.638 1348.95 222.638 1340.22 Q222.638 1331.47 225.694 1326.89 Q228.772 1322.28 234.583 1322.28 Z" fill="#000000" fill-rule="nonzero" fill-opacity="1" /><path clip-path="url(#clip840)" d="M165.069 1168.02 L172.708 1168.02 L172.708 1141.65 L164.398 1143.32 L164.398 1139.06 L172.662 1137.4 L177.338 1137.4 L177.338 1168.02 L184.976 1168.02 L184.976 1171.96 L165.069 1171.96 L165.069 1168.02 Z" fill="#000000" fill-rule="nonzero" fill-opacity="1" /><path clip-path="url(#clip840)" d="M204.421 1140.47 Q200.81 1140.47 198.981 1144.04 Q197.175 1147.58 197.175 1154.71 Q197.175 1161.82 198.981 1165.38 Q200.81 1168.92 204.421 1168.92 Q208.055 1168.92 209.86 1165.38 Q211.689 1161.82 211.689 1154.71 Q211.689 1147.58 209.86 1144.04 Q208.055 1140.47 204.421 1140.47 M204.421 1136.77 Q210.231 1136.77 213.286 1141.38 Q216.365 1145.96 216.365 1154.71 Q216.365 1163.44 213.286 1168.04 Q210.231 1172.63 204.421 1172.63 Q198.611 1172.63 195.532 1168.04 Q192.476 1163.44 192.476 1154.71 Q192.476 1145.96 195.532 1141.38 Q198.611 1136.77 204.421 1136.77 Z" fill="#000000" fill-rule="nonzero" fill-opacity="1" /><path clip-path="url(#clip840)" d="M234.583 1140.47 Q230.971 1140.47 229.143 1144.04 Q227.337 1147.58 227.337 1154.71 Q227.337 1161.82 229.143 1165.38 Q230.971 1168.92 234.583 1168.92 Q238.217 1168.92 240.022 1165.38 Q241.851 1161.82 241.851 1154.71 Q241.851 1147.58 240.022 1144.04 Q238.217 1140.47 234.583 1140.47 M234.583 1136.77 Q240.393 1136.77 243.448 1141.38 Q246.527 1145.96 246.527 1154.71 Q246.527 1163.44 243.448 1168.04 Q240.393 1172.63 234.583 1172.63 Q228.772 1172.63 225.694 1168.04 Q222.638 1163.44 222.638 1154.71 Q222.638 1145.96 225.694 1141.38 Q228.772 1136.77 234.583 1136.77 Z" fill="#000000" fill-rule="nonzero" fill-opacity="1" /><path clip-path="url(#clip840)" d="M168.287 982.51 L184.606 982.51 L184.606 986.445 L162.662 986.445 L162.662 982.51 Q165.324 979.755 169.907 975.126 Q174.513 970.473 175.694 969.13 Q177.939 966.607 178.819 964.871 Q179.722 963.112 179.722 961.422 Q179.722 958.667 177.777 956.931 Q175.856 955.195 172.754 955.195 Q170.555 955.195 168.101 955.959 Q165.671 956.723 162.893 958.274 L162.893 953.552 Q165.717 952.417 168.171 951.839 Q170.625 951.26 172.662 951.26 Q178.032 951.26 181.226 953.945 Q184.421 956.63 184.421 961.121 Q184.421 963.251 183.611 965.172 Q182.824 967.07 180.717 969.663 Q180.138 970.334 177.037 973.552 Q173.935 976.746 168.287 982.51 Z" fill="#000000" fill-rule="nonzero" fill-opacity="1" /><path clip-path="url(#clip840)" d="M204.421 954.964 Q200.81 954.964 198.981 958.529 Q197.175 962.07 197.175 969.2 Q197.175 976.306 198.981 979.871 Q200.81 983.413 204.421 983.413 Q208.055 983.413 209.86 979.871 Q211.689 976.306 211.689 969.2 Q211.689 962.07 209.86 958.529 Q208.055 954.964 204.421 954.964 M204.421 951.26 Q210.231 951.26 213.286 955.867 Q216.365 960.45 216.365 969.2 Q216.365 977.927 213.286 982.533 Q210.231 987.116 204.421 987.116 Q198.611 987.116 195.532 982.533 Q192.476 977.927 192.476 969.2 Q192.476 960.45 195.532 955.867 Q198.611 951.26 204.421 951.26 Z" fill="#000000" fill-rule="nonzero" fill-opacity="1" /><path clip-path="url(#clip840)" d="M234.583 954.964 Q230.971 954.964 229.143 958.529 Q227.337 962.07 227.337 969.2 Q227.337 976.306 229.143 979.871 Q230.971 983.413 234.583 983.413 Q238.217 983.413 240.022 979.871 Q241.851 976.306 241.851 969.2 Q241.851 962.07 240.022 958.529 Q238.217 954.964 234.583 954.964 M234.583 951.26 Q240.393 951.26 243.448 955.867 Q246.527 960.45 246.527 969.2 Q246.527 977.927 243.448 982.533 Q240.393 987.116 234.583 987.116 Q228.772 987.116 225.694 982.533 Q222.638 977.927 222.638 969.2 Q222.638 960.45 225.694 955.867 Q228.772 951.26 234.583 951.26 Z" fill="#000000" fill-rule="nonzero" fill-opacity="1" /><path clip-path="url(#clip840)" d="M178.425 782.3 Q181.782 783.018 183.657 785.286 Q185.555 787.555 185.555 790.888 Q185.555 796.004 182.037 798.805 Q178.518 801.606 172.037 801.606 Q169.861 801.606 167.546 801.166 Q165.254 800.749 162.801 799.893 L162.801 795.379 Q164.745 796.513 167.06 797.092 Q169.375 797.671 171.898 797.671 Q176.296 797.671 178.587 795.934 Q180.902 794.198 180.902 790.888 Q180.902 787.833 178.75 786.12 Q176.62 784.384 172.8 784.384 L168.773 784.384 L168.773 780.541 L172.986 780.541 Q176.435 780.541 178.263 779.175 Q180.092 777.786 180.092 775.194 Q180.092 772.532 178.194 771.12 Q176.319 769.685 172.8 769.685 Q170.879 769.685 168.68 770.101 Q166.481 770.518 163.842 771.398 L163.842 767.231 Q166.504 766.49 168.819 766.12 Q171.157 765.749 173.217 765.749 Q178.541 765.749 181.643 768.18 Q184.745 770.587 184.745 774.708 Q184.745 777.578 183.101 779.569 Q181.458 781.536 178.425 782.3 Z" fill="#000000" fill-rule="nonzero" fill-opacity="1" /><path clip-path="url(#clip840)" d="M204.421 769.453 Q200.81 769.453 198.981 773.018 Q197.175 776.56 197.175 783.689 Q197.175 790.796 198.981 794.36 Q200.81 797.902 204.421 797.902 Q208.055 797.902 209.86 794.36 Q211.689 790.796 211.689 783.689 Q211.689 776.56 209.86 773.018 Q208.055 769.453 204.421 769.453 M204.421 765.749 Q210.231 765.749 213.286 770.356 Q216.365 774.939 216.365 783.689 Q216.365 792.416 213.286 797.022 Q210.231 801.606 204.421 801.606 Q198.611 801.606 195.532 797.022 Q192.476 792.416 192.476 783.689 Q192.476 774.939 195.532 770.356 Q198.611 765.749 204.421 765.749 Z" fill="#000000" fill-rule="nonzero" fill-opacity="1" /><path clip-path="url(#clip840)" d="M234.583 769.453 Q230.971 769.453 229.143 773.018 Q227.337 776.56 227.337 783.689 Q227.337 790.796 229.143 794.36 Q230.971 797.902 234.583 797.902 Q238.217 797.902 240.022 794.36 Q241.851 790.796 241.851 783.689 Q241.851 776.56 240.022 773.018 Q238.217 769.453 234.583 769.453 M234.583 765.749 Q240.393 765.749 243.448 770.356 Q246.527 774.939 246.527 783.689 Q246.527 792.416 243.448 797.022 Q240.393 801.606 234.583 801.606 Q228.772 801.606 225.694 797.022 Q222.638 792.416 222.638 783.689 Q222.638 774.939 225.694 770.356 Q228.772 765.749 234.583 765.749 Z" fill="#000000" fill-rule="nonzero" fill-opacity="1" /><path clip-path="url(#clip840)" d="M177.106 584.938 L165.301 603.387 L177.106 603.387 L177.106 584.938 M175.879 580.864 L181.759 580.864 L181.759 603.387 L186.689 603.387 L186.689 607.276 L181.759 607.276 L181.759 615.424 L177.106 615.424 L177.106 607.276 L161.504 607.276 L161.504 602.762 L175.879 580.864 Z" fill="#000000" fill-rule="nonzero" fill-opacity="1" /><path clip-path="url(#clip840)" d="M204.421 583.942 Q200.81 583.942 198.981 587.507 Q197.175 591.049 197.175 598.178 Q197.175 605.285 198.981 608.85 Q200.81 612.391 204.421 612.391 Q208.055 612.391 209.86 608.85 Q211.689 605.285 211.689 598.178 Q211.689 591.049 209.86 587.507 Q208.055 583.942 204.421 583.942 M204.421 580.239 Q210.231 580.239 213.286 584.845 Q216.365 589.429 216.365 598.178 Q216.365 606.905 213.286 611.512 Q210.231 616.095 204.421 616.095 Q198.611 616.095 195.532 611.512 Q192.476 606.905 192.476 598.178 Q192.476 589.429 195.532 584.845 Q198.611 580.239 204.421 580.239 Z" fill="#000000" fill-rule="nonzero" fill-opacity="1" /><path clip-path="url(#clip840)" d="M234.583 583.942 Q230.971 583.942 229.143 587.507 Q227.337 591.049 227.337 598.178 Q227.337 605.285 229.143 608.85 Q230.971 612.391 234.583 612.391 Q238.217 612.391 240.022 608.85 Q241.851 605.285 241.851 598.178 Q241.851 591.049 240.022 587.507 Q238.217 583.942 234.583 583.942 M234.583 580.239 Q240.393 580.239 243.448 584.845 Q246.527 589.429 246.527 598.178 Q246.527 606.905 243.448 611.512 Q240.393 616.095 234.583 616.095 Q228.772 616.095 225.694 611.512 Q222.638 606.905 222.638 598.178 Q222.638 589.429 225.694 584.845 Q228.772 580.239 234.583 580.239 Z" fill="#000000" fill-rule="nonzero" fill-opacity="1" /><path clip-path="url(#clip840)" d="M164.305 395.353 L182.662 395.353 L182.662 399.288 L168.588 399.288 L168.588 407.76 Q169.606 407.413 170.625 407.251 Q171.643 407.066 172.662 407.066 Q178.449 407.066 181.828 410.237 Q185.208 413.409 185.208 418.825 Q185.208 424.404 181.736 427.506 Q178.263 430.584 171.944 430.584 Q169.768 430.584 167.5 430.214 Q165.254 429.844 162.847 429.103 L162.847 424.404 Q164.93 425.538 167.152 426.094 Q169.375 426.649 171.851 426.649 Q175.856 426.649 178.194 424.543 Q180.532 422.436 180.532 418.825 Q180.532 415.214 178.194 413.108 Q175.856 411.001 171.851 411.001 Q169.976 411.001 168.101 411.418 Q166.25 411.834 164.305 412.714 L164.305 395.353 Z" fill="#000000" fill-rule="nonzero" fill-opacity="1" /><path clip-path="url(#clip840)" d="M204.421 398.432 Q200.81 398.432 198.981 401.997 Q197.175 405.538 197.175 412.668 Q197.175 419.774 198.981 423.339 Q200.81 426.881 204.421 426.881 Q208.055 426.881 209.86 423.339 Q211.689 419.774 211.689 412.668 Q211.689 405.538 209.86 401.997 Q208.055 398.432 204.421 398.432 M204.421 394.728 Q210.231 394.728 213.286 399.335 Q216.365 403.918 216.365 412.668 Q216.365 421.395 213.286 426.001 Q210.231 430.584 204.421 430.584 Q198.611 430.584 195.532 426.001 Q192.476 421.395 192.476 412.668 Q192.476 403.918 195.532 399.335 Q198.611 394.728 204.421 394.728 Z" fill="#000000" fill-rule="nonzero" fill-opacity="1" /><path clip-path="url(#clip840)" d="M234.583 398.432 Q230.971 398.432 229.143 401.997 Q227.337 405.538 227.337 412.668 Q227.337 419.774 229.143 423.339 Q230.971 426.881 234.583 426.881 Q238.217 426.881 240.022 423.339 Q241.851 419.774 241.851 412.668 Q241.851 405.538 240.022 401.997 Q238.217 398.432 234.583 398.432 M234.583 394.728 Q240.393 394.728 243.448 399.335 Q246.527 403.918 246.527 412.668 Q246.527 421.395 243.448 426.001 Q240.393 430.584 234.583 430.584 Q228.772 430.584 225.694 426.001 Q222.638 421.395 222.638 412.668 Q222.638 403.918 225.694 399.335 Q228.772 394.728 234.583 394.728 Z" fill="#000000" fill-rule="nonzero" fill-opacity="1" /><path clip-path="url(#clip840)" d="M174.838 225.259 Q171.689 225.259 169.838 227.412 Q168.009 229.565 168.009 233.315 Q168.009 237.041 169.838 239.217 Q171.689 241.37 174.838 241.37 Q177.986 241.37 179.814 239.217 Q181.666 237.041 181.666 233.315 Q181.666 229.565 179.814 227.412 Q177.986 225.259 174.838 225.259 M184.12 210.606 L184.12 214.866 Q182.361 214.032 180.555 213.592 Q178.773 213.153 177.013 213.153 Q172.384 213.153 169.93 216.278 Q167.5 219.403 167.152 225.722 Q168.518 223.708 170.578 222.643 Q172.638 221.555 175.115 221.555 Q180.324 221.555 183.333 224.727 Q186.365 227.875 186.365 233.315 Q186.365 238.639 183.217 241.856 Q180.069 245.074 174.838 245.074 Q168.842 245.074 165.671 240.49 Q162.5 235.884 162.5 227.157 Q162.5 218.963 166.388 214.102 Q170.277 209.217 176.828 209.217 Q178.587 209.217 180.37 209.565 Q182.175 209.912 184.12 210.606 Z" fill="#000000" fill-rule="nonzero" fill-opacity="1" /><path clip-path="url(#clip840)" d="M204.421 212.921 Q200.81 212.921 198.981 216.486 Q197.175 220.028 197.175 227.157 Q197.175 234.264 198.981 237.828 Q200.81 241.37 204.421 241.37 Q208.055 241.37 209.86 237.828 Q211.689 234.264 211.689 227.157 Q211.689 220.028 209.86 216.486 Q208.055 212.921 204.421 212.921 M204.421 209.217 Q210.231 209.217 213.286 213.824 Q216.365 218.407 216.365 227.157 Q216.365 235.884 213.286 240.49 Q210.231 245.074 204.421 245.074 Q198.611 245.074 195.532 240.49 Q192.476 235.884 192.476 227.157 Q192.476 218.407 195.532 213.824 Q198.611 209.217 204.421 209.217 Z" fill="#000000" fill-rule="nonzero" fill-opacity="1" /><path clip-path="url(#clip840)" d="M234.583 212.921 Q230.971 212.921 229.143 216.486 Q227.337 220.028 227.337 227.157 Q227.337 234.264 229.143 237.828 Q230.971 241.37 234.583 241.37 Q238.217 241.37 240.022 237.828 Q241.851 234.264 241.851 227.157 Q241.851 220.028 240.022 216.486 Q238.217 212.921 234.583 212.921 M234.583 209.217 Q240.393 209.217 243.448 213.824 Q246.527 218.407 246.527 227.157 Q246.527 235.884 243.448 240.49 Q240.393 245.074 234.583 245.074 Q228.772 245.074 225.694 240.49 Q222.638 235.884 222.638 227.157 Q222.638 218.407 225.694 213.824 Q228.772 209.217 234.583 209.217 Z" fill="#000000" fill-rule="nonzero" fill-opacity="1" /><path clip-path="url(#clip840)" d="M93.3288 931.827 Q93.3288 938.925 94.952 941.662 Q96.5753 944.4 100.49 944.4 Q103.609 944.4 105.455 942.363 Q107.27 940.294 107.27 936.761 Q107.27 931.891 103.832 928.963 Q100.363 926.003 94.6338 926.003 L93.3288 926.003 L93.3288 931.827 M90.9098 920.146 L111.248 920.146 L111.248 926.003 L105.837 926.003 Q109.084 928.008 110.644 931 Q112.171 933.992 112.171 938.32 Q112.171 943.795 109.116 947.041 Q106.028 950.256 100.872 950.256 Q94.8566 950.256 91.801 946.246 Q88.7455 942.204 88.7455 934.215 L88.7455 926.003 L88.1726 926.003 Q84.1303 926.003 81.9342 928.676 Q79.7062 931.318 79.7062 936.124 Q79.7062 939.18 80.4382 942.076 Q81.1703 944.973 82.6344 947.646 L77.2236 947.646 Q75.9822 944.432 75.3775 941.408 Q74.7409 938.384 74.7409 935.52 Q74.7409 927.785 78.7513 923.966 Q82.7617 920.146 90.9098 920.146 Z" fill="#000000" fill-rule="nonzero" fill-opacity="1" /><path clip-path="url(#clip840)" d="M75.6003 912.285 L75.6003 906.078 L105.519 894.938 L75.6003 883.798 L75.6003 877.592 L111.248 890.96 L111.248 898.917 L75.6003 912.285 Z" fill="#000000" fill-rule="nonzero" fill-opacity="1" /><path clip-path="url(#clip840)" d="M91.9602 839.015 L94.8247 839.015 L94.8247 865.942 Q100.872 865.56 104.055 862.314 Q107.206 859.036 107.206 853.211 Q107.206 849.837 106.378 846.686 Q105.551 843.503 103.896 840.384 L109.434 840.384 Q110.771 843.535 111.471 846.845 Q112.171 850.155 112.171 853.561 Q112.171 862.091 107.206 867.088 Q102.241 872.053 93.7744 872.053 Q85.0215 872.053 79.8971 867.343 Q74.7409 862.6 74.7409 854.58 Q74.7409 847.386 79.3879 843.217 Q84.003 839.015 91.9602 839.015 M90.2414 844.872 Q85.4353 844.936 82.5707 847.577 Q79.7062 850.187 79.7062 854.516 Q79.7062 859.418 82.4753 862.378 Q85.2443 865.306 90.2732 865.751 L90.2414 844.872 Z" fill="#000000" fill-rule="nonzero" fill-opacity="1" /><path clip-path="url(#clip840)" d="M81.0748 808.747 Q80.5019 809.733 80.2473 810.911 Q79.9608 812.057 79.9608 813.457 Q79.9608 818.422 83.2073 821.096 Q86.422 823.738 92.4694 823.738 L111.248 823.738 L111.248 829.626 L75.6003 829.626 L75.6003 823.738 L81.1385 823.738 Q77.8919 821.892 76.3324 818.932 Q74.7409 815.972 74.7409 811.738 Q74.7409 811.134 74.8364 810.402 Q74.9001 809.67 75.0592 808.778 L81.0748 808.747 Z" fill="#000000" fill-rule="nonzero" fill-opacity="1" /><path clip-path="url(#clip840)" d="M93.3288 786.403 Q93.3288 793.501 94.952 796.238 Q96.5753 798.975 100.49 798.975 Q103.609 798.975 105.455 796.938 Q107.27 794.869 107.27 791.336 Q107.27 786.467 103.832 783.538 Q100.363 780.578 94.6338 780.578 L93.3288 780.578 L93.3288 786.403 M90.9098 774.722 L111.248 774.722 L111.248 780.578 L105.837 780.578 Q109.084 782.583 110.644 785.575 Q112.171 788.567 112.171 792.896 Q112.171 798.37 109.116 801.617 Q106.028 804.832 100.872 804.832 Q94.8566 804.832 91.801 800.821 Q88.7455 796.779 88.7455 788.79 L88.7455 780.578 L88.1726 780.578 Q84.1303 780.578 81.9342 783.252 Q79.7062 785.894 79.7062 790.7 Q79.7062 793.755 80.4382 796.652 Q81.1703 799.548 82.6344 802.222 L77.2236 802.222 Q75.9822 799.007 75.3775 795.983 Q74.7409 792.96 74.7409 790.095 Q74.7409 782.361 78.7513 778.541 Q82.7617 774.722 90.9098 774.722 Z" fill="#000000" fill-rule="nonzero" fill-opacity="1" /><path clip-path="url(#clip840)" d="M93.0105 739.201 Q86.6448 739.201 83.1437 741.843 Q79.6425 744.453 79.6425 749.195 Q79.6425 753.906 83.1437 756.548 Q86.6448 759.158 93.0105 759.158 Q99.3444 759.158 102.846 756.548 Q106.347 753.906 106.347 749.195 Q106.347 744.453 102.846 741.843 Q99.3444 739.201 93.0105 739.201 M106.824 733.345 Q115.927 733.345 120.351 737.387 Q124.807 741.429 124.807 749.768 Q124.807 752.856 124.33 755.593 Q123.884 758.33 122.929 760.908 L117.232 760.908 Q118.632 758.33 119.301 755.816 Q119.969 753.301 119.969 750.691 Q119.969 744.93 116.946 742.066 Q113.954 739.201 107.874 739.201 L104.978 739.201 Q108.129 741.015 109.689 743.848 Q111.248 746.681 111.248 750.628 Q111.248 757.184 106.251 761.195 Q101.254 765.205 93.0105 765.205 Q84.7351 765.205 79.738 761.195 Q74.7409 757.184 74.7409 750.628 Q74.7409 746.681 76.3005 743.848 Q77.8601 741.015 81.0111 739.201 L75.6003 739.201 L75.6003 733.345 L106.824 733.345 Z" fill="#000000" fill-rule="nonzero" fill-opacity="1" /><path clip-path="url(#clip840)" d="M91.9602 690.79 L94.8247 690.79 L94.8247 717.717 Q100.872 717.335 104.055 714.088 Q107.206 710.81 107.206 704.986 Q107.206 701.612 106.378 698.461 Q105.551 695.278 103.896 692.159 L109.434 692.159 Q110.771 695.31 111.471 698.62 Q112.171 701.93 112.171 705.336 Q112.171 713.866 107.206 718.863 Q102.241 723.828 93.7744 723.828 Q85.0215 723.828 79.8971 719.117 Q74.7409 714.375 74.7409 706.354 Q74.7409 699.161 79.3879 694.991 Q84.003 690.79 91.9602 690.79 M90.2414 696.646 Q85.4353 696.71 82.5707 699.352 Q79.7062 701.962 79.7062 706.29 Q79.7062 711.192 82.4753 714.152 Q85.2443 717.08 90.2732 717.526 L90.2414 696.646 Z" fill="#000000" fill-rule="nonzero" fill-opacity="1" /><path clip-path="url(#clip840)" d="M79.7062 646.644 Q79.7062 651.354 83.3983 654.092 Q87.0586 656.829 93.4561 656.829 Q99.8536 656.829 103.546 654.124 Q107.206 651.386 107.206 646.644 Q107.206 641.965 103.514 639.228 Q99.8218 636.49 93.4561 636.49 Q87.1222 636.49 83.4301 639.228 Q79.7062 641.965 79.7062 646.644 M74.7409 646.644 Q74.7409 639.005 79.7062 634.644 Q84.6714 630.284 93.4561 630.284 Q102.209 630.284 107.206 634.644 Q112.171 639.005 112.171 646.644 Q112.171 654.314 107.206 658.675 Q102.209 663.004 93.4561 663.004 Q84.6714 663.004 79.7062 658.675 Q74.7409 654.314 74.7409 646.644 Z" fill="#000000" fill-rule="nonzero" fill-opacity="1" /><path clip-path="url(#clip840)" d="M61.7231 602.529 L66.5928 602.529 L66.5928 608.131 Q66.5928 611.282 67.866 612.524 Q69.1391 613.733 72.4493 613.733 L75.6003 613.733 L75.6003 604.089 L80.1518 604.089 L80.1518 613.733 L111.248 613.733 L111.248 619.621 L80.1518 619.621 L80.1518 625.223 L75.6003 625.223 L75.6003 619.621 L73.1177 619.621 Q67.1657 619.621 64.4603 616.852 Q61.7231 614.083 61.7231 608.068 L61.7231 602.529 Z" fill="#000000" fill-rule="nonzero" fill-opacity="1" /><path clip-path="url(#clip840)" d="M69.0118 570.223 L86.8676 570.223 L86.8676 562.139 Q86.8676 557.651 84.5441 555.2 Q82.2206 552.75 77.9238 552.75 Q73.6588 552.75 71.3353 555.2 Q69.0118 557.651 69.0118 562.139 L69.0118 570.223 M63.7283 576.653 L63.7283 562.139 Q63.7283 554.15 67.3567 550.076 Q70.9533 545.97 77.9238 545.97 Q84.9579 545.97 88.5545 550.076 Q92.1511 554.15 92.1511 562.139 L92.1511 570.223 L111.248 570.223 L111.248 576.653 L63.7283 576.653 Z" fill="#000000" fill-rule="nonzero" fill-opacity="1" /><path clip-path="url(#clip840)" d="M61.7867 523.531 Q69.1073 527.796 76.2687 529.865 Q83.4301 531.934 90.7825 531.934 Q98.1349 531.934 105.36 529.865 Q112.553 527.764 119.842 523.531 L119.842 528.624 Q112.362 533.398 105.137 535.785 Q97.9121 538.14 90.7825 538.14 Q83.6847 538.14 76.4915 535.785 Q69.2982 533.43 61.7867 528.624 L61.7867 523.531 Z" fill="#000000" fill-rule="nonzero" fill-opacity="1" /><path clip-path="url(#clip840)" d="M65.4788 506.375 L75.6003 506.375 L75.6003 494.312 L80.1518 494.312 L80.1518 506.375 L99.5035 506.375 Q103.864 506.375 105.105 505.198 Q106.347 503.988 106.347 500.328 L106.347 494.312 L111.248 494.312 L111.248 500.328 Q111.248 507.108 108.734 509.686 Q106.188 512.264 99.5035 512.264 L80.1518 512.264 L80.1518 516.561 L75.6003 516.561 L75.6003 512.264 L65.4788 512.264 L65.4788 506.375 Z" fill="#000000" fill-rule="nonzero" fill-opacity="1" /><path clip-path="url(#clip840)" d="M61.7867 487.533 L61.7867 482.44 Q69.2982 477.666 76.4915 475.311 Q83.6847 472.924 90.7825 472.924 Q97.9121 472.924 105.137 475.311 Q112.362 477.666 119.842 482.44 L119.842 487.533 Q112.553 483.3 105.36 481.231 Q98.1349 479.13 90.7825 479.13 Q83.4301 479.13 76.2687 481.231 Q69.1073 483.3 61.7867 487.533 Z" fill="#000000" fill-rule="nonzero" fill-opacity="1" /><polyline clip-path="url(#clip842)" style="stroke:#009af9; stroke-linecap:round; stroke-linejoin:round; stroke-width:8; stroke-opacity:1; fill:none" points="282.527,1338.33 317.031,84.8486 351.535,201.161 386.038,307.494 420.542,403.063 455.046,489.445 489.55,568.063 524.054,637.534 558.557,701.225 593.061,758.283 627.565,809.351 662.069,855.596 696.573,897.063 731.077,934.187 765.58,967.748 800.084,998.662 834.588,1026.81 869.092,1051.41 903.596,1073.95 938.099,1094.17 972.603,1111.99 1007.11,1127.93 1041.61,1142.08 1076.11,1156.49 1110.62,1169.36 1145.12,1179.74 1179.63,1189.08 1214.13,1197.73 1248.63,1203.65 1283.14,1210.36 1317.64,1216.44 1352.15,1222.15 1386.65,1228.07 1421.15,1232.74 1455.66,1237.24 1490.16,1242.27 1524.66,1244.44 1559.17,1246.77 1593.67,1250.5 1628.18,1253.42 1662.68,1255.63 1697.18,1258.13 1731.69,1260.07 1766.19,1262.61 1800.69,1264.17 1835.2,1264.59 1869.7,1264.25 1904.21,1263.98 1938.71,1265.33 1973.21,1266.94 2007.72,1267.31 2042.22,1268.28 2076.73,1268.49 2111.23,1268.05 2145.73,1268.59 2180.24,1268.83 2214.74,1268.9 2249.24,1267.68 2283.75,1269.73 2318.25,1269.55 2352.76,1269.82 "/>
</svg>
