<?xml version="1.0" encoding="utf-8"?>
<svg xmlns="http://www.w3.org/2000/svg" xmlns:xlink="http://www.w3.org/1999/xlink" width="800" height="400" viewBox="0 0 3200 1600">
<defs>
  <clipPath id="clip530">
    <rect x="0" y="0" width="3200" height="1600"/>
  </clipPath>
</defs>
<path clip-path="url(#clip530)" d="M0 1600 L3200 1600 L3200 0 L0 0  Z" fill="#ffffff" fill-rule="evenodd" fill-opacity="1"/>
<defs>
  <clipPath id="clip531">
    <rect x="640" y="0" width="2241" height="1600"/>
  </clipPath>
</defs>
<path clip-path="url(#clip530)" d="M192.191 1443.7 L3152.76 1443.7 L3152.76 47.2441 L192.191 47.2441  Z" fill="#ffffff" fill-rule="evenodd" fill-opacity="1"/>
<defs>
  <clipPath id="clip532">
    <rect x="192" y="47" width="2962" height="1397"/>
  </clipPath>
</defs>
<polyline clip-path="url(#clip532)" style="stroke:#000000; stroke-linecap:round; stroke-linejoin:round; stroke-width:2; stroke-opacity:0.1; fill:none" points="192.191,1443.7 192.191,47.2441 "/>
<polyline clip-path="url(#clip532)" style="stroke:#000000; stroke-linecap:round; stroke-linejoin:round; stroke-width:2; stroke-opacity:0.1; fill:none" points="784.304,1443.7 784.304,47.2441 "/>
<polyline clip-path="url(#clip532)" style="stroke:#000000; stroke-linecap:round; stroke-linejoin:round; stroke-width:2; stroke-opacity:0.1; fill:none" points="1376.42,1443.7 1376.42,47.2441 "/>
<polyline clip-path="url(#clip532)" style="stroke:#000000; stroke-linecap:round; stroke-linejoin:round; stroke-width:2; stroke-opacity:0.1; fill:none" points="1968.53,1443.7 1968.53,47.2441 "/>
<polyline clip-path="url(#clip532)" style="stroke:#000000; stroke-linecap:round; stroke-linejoin:round; stroke-width:2; stroke-opacity:0.1; fill:none" points="2560.64,1443.7 2560.64,47.2441 "/>
<polyline clip-path="url(#clip532)" style="stroke:#000000; stroke-linecap:round; stroke-linejoin:round; stroke-width:2; stroke-opacity:0.1; fill:none" points="3152.76,1443.7 3152.76,47.2441 "/>
<polyline clip-path="url(#clip532)" style="stroke:#000000; stroke-linecap:round; stroke-linejoin:round; stroke-width:2; stroke-opacity:0.1; fill:none" points="192.191,1443.7 192.191,47.2441 "/>
<polyline clip-path="url(#clip532)" style="stroke:#000000; stroke-linecap:round; stroke-linejoin:round; stroke-width:2; stroke-opacity:0.1; fill:none" points="784.304,1443.7 784.304,47.2441 "/>
<polyline clip-path="url(#clip532)" style="stroke:#000000; stroke-linecap:round; stroke-linejoin:round; stroke-width:2; stroke-opacity:0.1; fill:none" points="1376.42,1443.7 1376.42,47.2441 "/>
<polyline clip-path="url(#clip532)" style="stroke:#000000; stroke-linecap:round; stroke-linejoin:round; stroke-width:2; stroke-opacity:0.1; fill:none" points="1968.53,1443.7 1968.53,47.2441 "/>
<polyline clip-path="url(#clip532)" style="stroke:#000000; stroke-linecap:round; stroke-linejoin:round; stroke-width:2; stroke-opacity:0.1; fill:none" points="2560.64,1443.7 2560.64,47.2441 "/>
<polyline clip-path="url(#clip532)" style="stroke:#000000; stroke-linecap:round; stroke-linejoin:round; stroke-width:2; stroke-opacity:0.1; fill:none" points="3152.76,1443.7 3152.76,47.2441 "/>
<polyline clip-path="url(#clip530)" style="stroke:#000000; stroke-linecap:round; stroke-linejoin:round; stroke-width:4; stroke-opacity:1; fill:none" points="192.191,1443.7 3152.76,1443.7 "/>
<polyline clip-path="url(#clip530)" style="stroke:#000000; stroke-linecap:round; stroke-linejoin:round; stroke-width:4; stroke-opacity:1; fill:none" points="192.191,47.2441 3152.76,47.2441 "/>
<polyline clip-path="url(#clip530)" style="stroke:#000000; stroke-linecap:round; stroke-linejoin:round; stroke-width:4; stroke-opacity:1; fill:none" points="192.191,1443.7 192.191,1424.8 "/>
<polyline clip-path="url(#clip530)" style="stroke:#000000; stroke-linecap:round; stroke-linejoin:round; stroke-width:4; stroke-opacity:1; fill:none" points="784.304,1443.7 784.304,1424.8 "/>
<polyline clip-path="url(#clip530)" style="stroke:#000000; stroke-linecap:round; stroke-linejoin:round; stroke-width:4; stroke-opacity:1; fill:none" points="1376.42,1443.7 1376.42,1424.8 "/>
<polyline clip-path="url(#clip530)" style="stroke:#000000; stroke-linecap:round; stroke-linejoin:round; stroke-width:4; stroke-opacity:1; fill:none" points="1968.53,1443.7 1968.53,1424.8 "/>
<polyline clip-path="url(#clip530)" style="stroke:#000000; stroke-linecap:round; stroke-linejoin:round; stroke-width:4; stroke-opacity:1; fill:none" points="2560.64,1443.7 2560.64,1424.8 "/>
<polyline clip-path="url(#clip530)" style="stroke:#000000; stroke-linecap:round; stroke-linejoin:round; stroke-width:4; stroke-opacity:1; fill:none" points="3152.76,1443.7 3152.76,1424.8 "/>
<polyline clip-path="url(#clip530)" style="stroke:#000000; stroke-linecap:round; stroke-linejoin:round; stroke-width:4; stroke-opacity:1; fill:none" points="192.191,47.2441 192.191,66.1417 "/>
<polyline clip-path="url(#clip530)" style="stroke:#000000; stroke-linecap:round; stroke-linejoin:round; stroke-width:4; stroke-opacity:1; fill:none" points="784.304,47.2441 784.304,66.1417 "/>
<polyline clip-path="url(#clip530)" style="stroke:#000000; stroke-linecap:round; stroke-linejoin:round; stroke-width:4; stroke-opacity:1; fill:none" points="1376.42,47.2441 1376.42,66.1417 "/>
<polyline clip-path="url(#clip530)" style="stroke:#000000; stroke-linecap:round; stroke-linejoin:round; stroke-width:4; stroke-opacity:1; fill:none" points="1968.53,47.2441 1968.53,66.1417 "/>
<polyline clip-path="url(#clip530)" style="stroke:#000000; stroke-linecap:round; stroke-linejoin:round; stroke-width:4; stroke-opacity:1; fill:none" points="2560.64,47.2441 2560.64,66.1417 "/>
<polyline clip-path="url(#clip530)" style="stroke:#000000; stroke-linecap:round; stroke-linejoin:round; stroke-width:4; stroke-opacity:1; fill:none" points="3152.76,47.2441 3152.76,66.1417 "/>
<path clip-path="url(#clip530)" d="M192.191 1481.02 Q188.58 1481.02 186.751 1484.58 Q184.945 1488.12 184.945 1495.25 Q184.945 1502.36 186.751 1505.93 Q188.58 1509.47 192.191 1509.47 Q195.825 1509.47 197.63 1505.93 Q199.459 1502.36 199.459 1495.25 Q199.459 1488.12 197.63 1484.58 Q195.825 1481.02 192.191 1481.02 M192.191 1477.31 Q198.001 1477.31 201.056 1481.92 Q204.135 1486.5 204.135 1495.25 Q204.135 1503.98 201.056 1508.59 Q198.001 1513.17 192.191 1513.17 Q186.381 1513.17 183.302 1508.59 Q180.246 1503.98 180.246 1495.25 Q180.246 1486.5 183.302 1481.92 Q186.381 1477.31 192.191 1477.31 Z" fill="#000000" fill-rule="nonzero" fill-opacity="1" /><path clip-path="url(#clip530)" d="M778.957 1508.56 L795.276 1508.56 L795.276 1512.5 L773.332 1512.5 L773.332 1508.56 Q775.994 1505.81 780.577 1501.18 Q785.183 1496.53 786.364 1495.19 Q788.609 1492.66 789.489 1490.93 Q790.392 1489.17 790.392 1487.48 Q790.392 1484.72 788.447 1482.99 Q786.526 1481.25 783.424 1481.25 Q781.225 1481.25 778.771 1482.01 Q776.341 1482.78 773.563 1484.33 L773.563 1479.61 Q776.387 1478.47 778.841 1477.89 Q781.294 1477.31 783.332 1477.31 Q788.702 1477.31 791.896 1480 Q795.091 1482.69 795.091 1487.18 Q795.091 1489.31 794.281 1491.23 Q793.493 1493.12 791.387 1495.72 Q790.808 1496.39 787.706 1499.61 Q784.605 1502.8 778.957 1508.56 Z" fill="#000000" fill-rule="nonzero" fill-opacity="1" /><path clip-path="url(#clip530)" d="M1379.43 1482.01 L1367.62 1500.46 L1379.43 1500.46 L1379.43 1482.01 M1378.2 1477.94 L1384.08 1477.94 L1384.08 1500.46 L1389.01 1500.46 L1389.01 1504.35 L1384.08 1504.35 L1384.08 1512.5 L1379.43 1512.5 L1379.43 1504.35 L1363.82 1504.35 L1363.82 1499.84 L1378.2 1477.94 Z" fill="#000000" fill-rule="nonzero" fill-opacity="1" /><path clip-path="url(#clip530)" d="M1968.93 1493.36 Q1965.79 1493.36 1963.93 1495.51 Q1962.11 1497.66 1962.11 1501.41 Q1962.11 1505.14 1963.93 1507.31 Q1965.79 1509.47 1968.93 1509.47 Q1972.08 1509.47 1973.91 1507.31 Q1975.76 1505.14 1975.76 1501.41 Q1975.76 1497.66 1973.91 1495.51 Q1972.08 1493.36 1968.93 1493.36 M1978.22 1478.7 L1978.22 1482.96 Q1976.46 1482.13 1974.65 1481.69 Q1972.87 1481.25 1971.11 1481.25 Q1966.48 1481.25 1964.03 1484.37 Q1961.6 1487.5 1961.25 1493.82 Q1962.62 1491.81 1964.68 1490.74 Q1966.74 1489.65 1969.21 1489.65 Q1974.42 1489.65 1977.43 1492.82 Q1980.46 1495.97 1980.46 1501.41 Q1980.46 1506.74 1977.31 1509.95 Q1974.17 1513.17 1968.93 1513.17 Q1962.94 1513.17 1959.77 1508.59 Q1956.6 1503.98 1956.6 1495.25 Q1956.6 1487.06 1960.49 1482.2 Q1964.37 1477.31 1970.93 1477.31 Q1972.68 1477.31 1974.47 1477.66 Q1976.27 1478.01 1978.22 1478.7 Z" fill="#000000" fill-rule="nonzero" fill-opacity="1" /><path clip-path="url(#clip530)" d="M2560.64 1496.09 Q2557.31 1496.09 2555.39 1497.87 Q2553.49 1499.65 2553.49 1502.78 Q2553.49 1505.9 2555.39 1507.69 Q2557.31 1509.47 2560.64 1509.47 Q2563.98 1509.47 2565.9 1507.69 Q2567.82 1505.88 2567.82 1502.78 Q2567.82 1499.65 2565.9 1497.87 Q2564 1496.09 2560.64 1496.09 M2555.97 1494.1 Q2552.96 1493.36 2551.27 1491.3 Q2549.6 1489.24 2549.6 1486.27 Q2549.6 1482.13 2552.54 1479.72 Q2555.5 1477.31 2560.64 1477.31 Q2565.8 1477.31 2568.74 1479.72 Q2571.68 1482.13 2571.68 1486.27 Q2571.68 1489.24 2569.99 1491.3 Q2568.33 1493.36 2565.34 1494.1 Q2568.72 1494.88 2570.6 1497.18 Q2572.49 1499.47 2572.49 1502.78 Q2572.49 1507.8 2569.42 1510.49 Q2566.36 1513.17 2560.64 1513.17 Q2554.93 1513.17 2551.85 1510.49 Q2548.79 1507.8 2548.79 1502.78 Q2548.79 1499.47 2550.69 1497.18 Q2552.59 1494.88 2555.97 1494.1 M2554.25 1486.71 Q2554.25 1489.4 2555.92 1490.9 Q2557.61 1492.41 2560.64 1492.41 Q2563.65 1492.41 2565.34 1490.9 Q2567.05 1489.4 2567.05 1486.71 Q2567.05 1484.03 2565.34 1482.52 Q2563.65 1481.02 2560.64 1481.02 Q2557.61 1481.02 2555.92 1482.52 Q2554.25 1484.03 2554.25 1486.71 Z" fill="#000000" fill-rule="nonzero" fill-opacity="1" /><path clip-path="url(#clip530)" d="M3127.44 1508.56 L3135.08 1508.56 L3135.08 1482.2 L3126.77 1483.87 L3126.77 1479.61 L3135.04 1477.94 L3139.71 1477.94 L3139.71 1508.56 L3147.35 1508.56 L3147.35 1512.5 L3127.44 1512.5 L3127.44 1508.56 Z" fill="#000000" fill-rule="nonzero" fill-opacity="1" /><path clip-path="url(#clip530)" d="M3166.8 1481.02 Q3163.18 1481.02 3161.36 1484.58 Q3159.55 1488.12 3159.55 1495.25 Q3159.55 1502.36 3161.36 1505.93 Q3163.18 1509.47 3166.8 1509.47 Q3170.43 1509.47 3172.23 1505.93 Q3174.06 1502.36 3174.06 1495.25 Q3174.06 1488.12 3172.23 1484.58 Q3170.43 1481.02 3166.8 1481.02 M3166.8 1477.31 Q3172.61 1477.31 3175.66 1481.92 Q3178.74 1486.5 3178.74 1495.25 Q3178.74 1503.98 3175.66 1508.59 Q3172.61 1513.17 3166.8 1513.17 Q3160.99 1513.17 3157.91 1508.59 Q3154.85 1503.98 3154.85 1495.25 Q3154.85 1486.5 3157.91 1481.92 Q3160.99 1477.31 3166.8 1477.31 Z" fill="#000000" fill-rule="nonzero" fill-opacity="1" /><path clip-path="url(#clip530)" d="M1671.53 1554.79 L1671.53 1564.92 L1683.6 1564.92 L1683.6 1569.47 L1671.53 1569.47 L1671.53 1588.82 Q1671.53 1593.18 1672.71 1594.42 Q1673.92 1595.66 1677.58 1595.66 L1683.6 1595.66 L1683.6 1600.56 L1677.58 1600.56 Q1670.8 1600.56 1668.22 1598.05 Q1665.65 1595.5 1665.65 1588.82 L1665.65 1569.47 L1661.35 1569.47 L1661.35 1564.92 L1665.65 1564.92 L1665.65 1554.79 L1671.53 1554.79 Z" fill="#000000" fill-rule="nonzero" fill-opacity="1" /><polyline clip-path="url(#clip532)" style="stroke:#000000; stroke-linecap:round; stroke-linejoin:round; stroke-width:2; stroke-opacity:0.1; fill:none" points="192.191,1404.24 3152.76,1404.24 "/>
<polyline clip-path="url(#clip532)" style="stroke:#000000; stroke-linecap:round; stroke-linejoin:round; stroke-width:2; stroke-opacity:0.1; fill:none" points="192.191,1074.87 3152.76,1074.87 "/>
<polyline clip-path="url(#clip532)" style="stroke:#000000; stroke-linecap:round; stroke-linejoin:round; stroke-width:2; stroke-opacity:0.1; fill:none" points="192.191,745.502 3152.76,745.502 "/>
<polyline clip-path="url(#clip532)" style="stroke:#000000; stroke-linecap:round; stroke-linejoin:round; stroke-width:2; stroke-opacity:0.1; fill:none" points="192.191,416.134 3152.76,416.134 "/>
<polyline clip-path="url(#clip532)" style="stroke:#000000; stroke-linecap:round; stroke-linejoin:round; stroke-width:2; stroke-opacity:0.1; fill:none" points="192.191,86.7664 3152.76,86.7664 "/>
<polyline clip-path="url(#clip532)" style="stroke:#000000; stroke-linecap:round; stroke-linejoin:round; stroke-width:2; stroke-opacity:0.1; fill:none" points="192.191,1404.24 3152.76,1404.24 "/>
<polyline clip-path="url(#clip532)" style="stroke:#000000; stroke-linecap:round; stroke-linejoin:round; stroke-width:2; stroke-opacity:0.1; fill:none" points="192.191,1074.87 3152.76,1074.87 "/>
<polyline clip-path="url(#clip532)" style="stroke:#000000; stroke-linecap:round; stroke-linejoin:round; stroke-width:2; stroke-opacity:0.1; fill:none" points="192.191,745.502 3152.76,745.502 "/>
<polyline clip-path="url(#clip532)" style="stroke:#000000; stroke-linecap:round; stroke-linejoin:round; stroke-width:2; stroke-opacity:0.1; fill:none" points="192.191,416.134 3152.76,416.134 "/>
<polyline clip-path="url(#clip532)" style="stroke:#000000; stroke-linecap:round; stroke-linejoin:round; stroke-width:2; stroke-opacity:0.1; fill:none" points="192.191,86.7664 3152.76,86.7664 "/>
<polyline clip-path="url(#clip530)" style="stroke:#000000; stroke-linecap:round; stroke-linejoin:round; stroke-width:4; stroke-opacity:1; fill:none" points="192.191,1443.7 192.191,47.2441 "/>
<polyline clip-path="url(#clip530)" style="stroke:#000000; stroke-linecap:round; stroke-linejoin:round; stroke-width:4; stroke-opacity:1; fill:none" points="3152.76,1443.7 3152.76,47.2441 "/>
<polyline clip-path="url(#clip530)" style="stroke:#000000; stroke-linecap:round; stroke-linejoin:round; stroke-width:4; stroke-opacity:1; fill:none" points="192.191,1404.24 211.088,1404.24 "/>
<polyline clip-path="url(#clip530)" style="stroke:#000000; stroke-linecap:round; stroke-linejoin:round; stroke-width:4; stroke-opacity:1; fill:none" points="192.191,1074.87 211.088,1074.87 "/>
<polyline clip-path="url(#clip530)" style="stroke:#000000; stroke-linecap:round; stroke-linejoin:round; stroke-width:4; stroke-opacity:1; fill:none" points="192.191,745.502 211.088,745.502 "/>
<polyline clip-path="url(#clip530)" style="stroke:#000000; stroke-linecap:round; stroke-linejoin:round; stroke-width:4; stroke-opacity:1; fill:none" points="192.191,416.134 211.088,416.134 "/>
<polyline clip-path="url(#clip530)" style="stroke:#000000; stroke-linecap:round; stroke-linejoin:round; stroke-width:4; stroke-opacity:1; fill:none" points="192.191,86.7664 211.088,86.7664 "/>
<polyline clip-path="url(#clip530)" style="stroke:#000000; stroke-linecap:round; stroke-linejoin:round; stroke-width:4; stroke-opacity:1; fill:none" points="3152.76,1404.24 3133.86,1404.24 "/>
<polyline clip-path="url(#clip530)" style="stroke:#000000; stroke-linecap:round; stroke-linejoin:round; stroke-width:4; stroke-opacity:1; fill:none" points="3152.76,1074.87 3133.86,1074.87 "/>
<polyline clip-path="url(#clip530)" style="stroke:#000000; stroke-linecap:round; stroke-linejoin:round; stroke-width:4; stroke-opacity:1; fill:none" points="3152.76,745.502 3133.86,745.502 "/>
<polyline clip-path="url(#clip530)" style="stroke:#000000; stroke-linecap:round; stroke-linejoin:round; stroke-width:4; stroke-opacity:1; fill:none" points="3152.76,416.134 3133.86,416.134 "/>
<polyline clip-path="url(#clip530)" style="stroke:#000000; stroke-linecap:round; stroke-linejoin:round; stroke-width:4; stroke-opacity:1; fill:none" points="3152.76,86.7664 3133.86,86.7664 "/>
<path clip-path="url(#clip530)" d="M87.0151 1390.04 Q83.404 1390.04 81.5753 1393.6 Q79.7697 1397.14 79.7697 1404.27 Q79.7697 1411.38 81.5753 1414.94 Q83.404 1418.48 87.0151 1418.48 Q90.6493 1418.48 92.4548 1414.94 Q94.2835 1411.38 94.2835 1404.27 Q94.2835 1397.14 92.4548 1393.6 Q90.6493 1390.04 87.0151 1390.04 M87.0151 1386.33 Q92.8252 1386.33 95.8808 1390.94 Q98.9594 1395.52 98.9594 1404.27 Q98.9594 1413 95.8808 1417.61 Q92.8252 1422.19 87.0151 1422.19 Q81.2049 1422.19 78.1262 1417.61 Q75.0707 1413 75.0707 1404.27 Q75.0707 1395.52 78.1262 1390.94 Q81.2049 1386.33 87.0151 1386.33 Z" fill="#000000" fill-rule="nonzero" fill-opacity="1" /><path clip-path="url(#clip530)" d="M107.177 1415.64 L112.061 1415.64 L112.061 1421.52 L107.177 1421.52 L107.177 1415.64 Z" fill="#000000" fill-rule="nonzero" fill-opacity="1" /><path clip-path="url(#clip530)" d="M132.246 1390.04 Q128.635 1390.04 126.807 1393.6 Q125.001 1397.14 125.001 1404.27 Q125.001 1411.38 126.807 1414.94 Q128.635 1418.48 132.246 1418.48 Q135.881 1418.48 137.686 1414.94 Q139.515 1411.38 139.515 1404.27 Q139.515 1397.14 137.686 1393.6 Q135.881 1390.04 132.246 1390.04 M132.246 1386.33 Q138.056 1386.33 141.112 1390.94 Q144.191 1395.52 144.191 1404.27 Q144.191 1413 141.112 1417.61 Q138.056 1422.19 132.246 1422.19 Q126.436 1422.19 123.357 1417.61 Q120.302 1413 120.302 1404.27 Q120.302 1395.52 123.357 1390.94 Q126.436 1386.33 132.246 1386.33 Z" fill="#000000" fill-rule="nonzero" fill-opacity="1" /><path clip-path="url(#clip530)" d="M82.0382 1088.21 L98.3576 1088.21 L98.3576 1092.15 L76.4133 1092.15 L76.4133 1088.21 Q79.0753 1085.46 83.6586 1080.83 Q88.2651 1076.18 89.4456 1074.83 Q91.691 1072.31 92.5706 1070.58 Q93.4734 1068.82 93.4734 1067.13 Q93.4734 1064.37 91.5289 1062.64 Q89.6076 1060.9 86.5058 1060.9 Q84.3067 1060.9 81.8531 1061.66 Q79.4225 1062.43 76.6447 1063.98 L76.6447 1059.26 Q79.4688 1058.12 81.9225 1057.54 Q84.3762 1056.96 86.4132 1056.96 Q91.7836 1056.96 94.978 1059.65 Q98.1724 1062.33 98.1724 1066.83 Q98.1724 1068.96 97.3622 1070.88 Q96.5752 1072.77 94.4687 1075.37 Q93.89 1076.04 90.7882 1079.26 Q87.6864 1082.45 82.0382 1088.21 Z" fill="#000000" fill-rule="nonzero" fill-opacity="1" /><path clip-path="url(#clip530)" d="M108.172 1086.27 L113.057 1086.27 L113.057 1092.15 L108.172 1092.15 L108.172 1086.27 Z" fill="#000000" fill-rule="nonzero" fill-opacity="1" /><path clip-path="url(#clip530)" d="M123.288 1057.59 L141.644 1057.59 L141.644 1061.52 L127.57 1061.52 L127.57 1070 Q128.589 1069.65 129.607 1069.49 Q130.626 1069.3 131.644 1069.3 Q137.431 1069.3 140.811 1072.47 Q144.191 1075.65 144.191 1081.06 Q144.191 1086.64 140.718 1089.74 Q137.246 1092.82 130.927 1092.82 Q128.751 1092.82 126.482 1092.45 Q124.237 1092.08 121.83 1091.34 L121.83 1086.64 Q123.913 1087.77 126.135 1088.33 Q128.357 1088.89 130.834 1088.89 Q134.839 1088.89 137.177 1086.78 Q139.515 1084.67 139.515 1081.06 Q139.515 1077.45 137.177 1075.34 Q134.839 1073.24 130.834 1073.24 Q128.959 1073.24 127.084 1073.65 Q125.232 1074.07 123.288 1074.95 L123.288 1057.59 Z" fill="#000000" fill-rule="nonzero" fill-opacity="1" /><path clip-path="url(#clip530)" d="M77.0614 728.222 L95.4178 728.222 L95.4178 732.157 L81.3438 732.157 L81.3438 740.629 Q82.3623 740.282 83.3808 740.12 Q84.3993 739.935 85.4178 739.935 Q91.2049 739.935 94.5845 743.106 Q97.9641 746.277 97.9641 751.694 Q97.9641 757.273 94.4919 760.374 Q91.0197 763.453 84.7003 763.453 Q82.5243 763.453 80.2558 763.083 Q78.0105 762.712 75.6031 761.972 L75.6031 757.273 Q77.6864 758.407 79.9086 758.962 Q82.1308 759.518 84.6077 759.518 Q88.6123 759.518 90.9502 757.412 Q93.2882 755.305 93.2882 751.694 Q93.2882 748.083 90.9502 745.976 Q88.6123 743.87 84.6077 743.87 Q82.7327 743.87 80.8577 744.287 Q79.0058 744.703 77.0614 745.583 L77.0614 728.222 Z" fill="#000000" fill-rule="nonzero" fill-opacity="1" /><path clip-path="url(#clip530)" d="M107.177 756.902 L112.061 756.902 L112.061 762.782 L107.177 762.782 L107.177 756.902 Z" fill="#000000" fill-rule="nonzero" fill-opacity="1" /><path clip-path="url(#clip530)" d="M132.246 731.301 Q128.635 731.301 126.807 734.865 Q125.001 738.407 125.001 745.537 Q125.001 752.643 126.807 756.208 Q128.635 759.749 132.246 759.749 Q135.881 759.749 137.686 756.208 Q139.515 752.643 139.515 745.537 Q139.515 738.407 137.686 734.865 Q135.881 731.301 132.246 731.301 M132.246 727.597 Q138.056 727.597 141.112 732.203 Q144.191 736.787 144.191 745.537 Q144.191 754.263 141.112 758.87 Q138.056 763.453 132.246 763.453 Q126.436 763.453 123.357 758.87 Q120.302 754.263 120.302 745.537 Q120.302 736.787 123.357 732.203 Q126.436 727.597 132.246 727.597 Z" fill="#000000" fill-rule="nonzero" fill-opacity="1" /><path clip-path="url(#clip530)" d="M76.8299 398.854 L99.052 398.854 L99.052 400.845 L86.5058 433.414 L81.6216 433.414 L93.4271 402.789 L76.8299 402.789 L76.8299 398.854 Z" fill="#000000" fill-rule="nonzero" fill-opacity="1" /><path clip-path="url(#clip530)" d="M108.172 427.535 L113.057 427.535 L113.057 433.414 L108.172 433.414 L108.172 427.535 Z" fill="#000000" fill-rule="nonzero" fill-opacity="1" /><path clip-path="url(#clip530)" d="M123.288 398.854 L141.644 398.854 L141.644 402.789 L127.57 402.789 L127.57 411.261 Q128.589 410.914 129.607 410.752 Q130.626 410.567 131.644 410.567 Q137.431 410.567 140.811 413.738 Q144.191 416.91 144.191 422.326 Q144.191 427.905 140.718 431.007 Q137.246 434.085 130.927 434.085 Q128.751 434.085 126.482 433.715 Q124.237 433.345 121.83 432.604 L121.83 427.905 Q123.913 429.039 126.135 429.595 Q128.357 430.15 130.834 430.15 Q134.839 430.15 137.177 428.044 Q139.515 425.937 139.515 422.326 Q139.515 418.715 137.177 416.609 Q134.839 414.502 130.834 414.502 Q128.959 414.502 127.084 414.919 Q125.232 415.336 123.288 416.215 L123.288 398.854 Z" fill="#000000" fill-rule="nonzero" fill-opacity="1" /><path clip-path="url(#clip530)" d="M47.6634 100.111 L55.3023 100.111 L55.3023 73.7457 L46.9921 75.4123 L46.9921 71.1531 L55.256 69.4864 L59.9319 69.4864 L59.9319 100.111 L67.5707 100.111 L67.5707 104.046 L47.6634 104.046 L47.6634 100.111 Z" fill="#000000" fill-rule="nonzero" fill-opacity="1" /><path clip-path="url(#clip530)" d="M87.0151 72.5651 Q83.404 72.5651 81.5753 76.1299 Q79.7697 79.6716 79.7697 86.8011 Q79.7697 93.9076 81.5753 97.4724 Q83.404 101.014 87.0151 101.014 Q90.6493 101.014 92.4548 97.4724 Q94.2835 93.9076 94.2835 86.8011 Q94.2835 79.6716 92.4548 76.1299 Q90.6493 72.5651 87.0151 72.5651 M87.0151 68.8614 Q92.8252 68.8614 95.8808 73.4679 Q98.9594 78.0512 98.9594 86.8011 Q98.9594 95.528 95.8808 100.134 Q92.8252 104.718 87.0151 104.718 Q81.2049 104.718 78.1262 100.134 Q75.0707 95.528 75.0707 86.8011 Q75.0707 78.0512 78.1262 73.4679 Q81.2049 68.8614 87.0151 68.8614 Z" fill="#000000" fill-rule="nonzero" fill-opacity="1" /><path clip-path="url(#clip530)" d="M107.177 98.1668 L112.061 98.1668 L112.061 104.046 L107.177 104.046 L107.177 98.1668 Z" fill="#000000" fill-rule="nonzero" fill-opacity="1" /><path clip-path="url(#clip530)" d="M132.246 72.5651 Q128.635 72.5651 126.807 76.1299 Q125.001 79.6716 125.001 86.8011 Q125.001 93.9076 126.807 97.4724 Q128.635 101.014 132.246 101.014 Q135.881 101.014 137.686 97.4724 Q139.515 93.9076 139.515 86.8011 Q139.515 79.6716 137.686 76.1299 Q135.881 72.5651 132.246 72.5651 M132.246 68.8614 Q138.056 68.8614 141.112 73.4679 Q144.191 78.0512 144.191 86.8011 Q144.191 95.528 141.112 100.134 Q138.056 104.718 132.246 104.718 Q126.436 104.718 123.357 100.134 Q120.302 95.528 120.302 86.8011 Q120.302 78.0512 123.357 73.4679 Q126.436 68.8614 132.246 68.8614 Z" fill="#000000" fill-rule="nonzero" fill-opacity="1" /><polyline clip-path="url(#clip532)" style="stroke:#009af9; stroke-linecap:round; stroke-linejoin:round; stroke-width:12; stroke-opacity:1; fill:none" points="192.191,86.7664 195.154,99.7947 198.118,112.546 201.081,125.085 204.045,137.475 207.008,149.78 209.972,162.064 212.935,174.391 215.899,186.825 218.862,199.43 221.826,212.26 224.789,224.047 227.753,235.565 230.717,246.836 233.68,257.882 236.644,268.726 239.607,279.39 242.571,289.898 245.534,300.272 248.498,310.535 251.461,320.708 254.425,330.816 257.388,340.879 260.352,350.922 263.315,360.966 266.279,371.034 269.242,381.15 272.206,391.334 275.169,401.611 278.133,412.003 281.097,422.531 284.06,433.22 287.024,444.091 289.987,455.168 292.951,466.472 295.914,476.113 298.878,485.195 301.841,494.077 304.805,502.773 307.768,511.297 310.732,519.661 313.695,527.879 316.659,535.965 319.622,543.931 322.586,551.791 325.549,559.558 328.513,567.246 331.477,574.867 334.44,582.437 337.404,589.966 340.367,597.47 343.331,604.962 346.294,612.454 349.258,619.96 352.221,627.493 355.185,635.067 358.148,642.695 361.112,650.391 364.075,658.168 367.039,666.038 370.002,674.016 372.966,682.115 375.929,690.349 378.893,698.729 381.857,707.271 384.82,715.986 387.784,723.737 390.747,730.424 393.711,736.963 396.674,743.362 399.638,749.63 402.601,755.773 405.565,761.8 408.528,767.719 411.492,773.537 414.455,779.264 417.419,784.906 420.382,790.471 423.346,795.968 426.309,801.405 429.273,806.789 432.237,812.128 435.2,817.431 438.164,822.705 441.127,827.958 444.091,833.198 447.054,838.433 450.018,843.672 452.981,848.921 455.945,854.189 458.908,859.484 461.872,864.814 464.835,870.186 467.799,875.609 470.762,881.09 473.726,886.638 476.689,892.261 479.653,897.966 482.616,903.761 485.58,909.655 488.544,915.655 491.507,921.768 494.471,928.004 497.434,934.371 500.398,939.026 503.361,943.574 506.325,948.023 509.288,952.378 512.252,956.644 515.215,960.825 518.179,964.927 521.142,968.952 524.106,972.907 527.069,976.794 530.033,980.62 532.996,984.389 535.96,988.104 538.924,991.772 541.887,995.395 544.851,998.979 547.814,1002.53 550.778,1006.05 553.741,1009.54 556.705,1013.01 559.668,1016.47 562.632,1019.92 565.595,1023.35 568.559,1026.79 571.522,1030.22 574.486,1033.66 577.449,1037.12 580.413,1040.58 583.376,1044.07 586.34,1047.59 589.304,1051.13 592.267,1054.7 595.231,1058.32 598.194,1061.97 601.158,1065.67 604.121,1069.43 607.085,1073.24 610.048,1077.11 613.012,1081.05 615.975,1085.06 618.939,1089.14 621.902,1093.3 624.866,1097.54 627.829,1101.76 630.793,1104.75 633.756,1107.68 636.72,1110.54 639.684,1113.35 642.647,1116.09 645.611,1118.78 648.574,1121.42 651.538,1124.01 654.501,1126.55 657.465,1129.05 660.428,1131.5 663.392,1133.92 666.355,1136.29 669.319,1138.64 672.282,1140.95 675.246,1143.23 678.209,1145.49 681.173,1147.72 684.136,1149.92 687.1,1152.11 690.064,1154.29 693.027,1156.45 695.991,1158.59 698.954,1160.73 701.918,1162.86 704.881,1164.99 707.845,1167.12 710.808,1169.24 713.772,1171.37 716.735,1173.51 719.699,1175.66 722.662,1177.82 725.626,1179.99 728.589,1182.17 731.553,1184.38 734.516,1186.61 737.48,1188.86 740.443,1191.14 743.407,1193.45 746.371,1195.79 749.334,1198.16 752.298,1200.58 755.261,1203.03 758.225,1205.52 761.188,1208.06 764.152,1210.64 767.115,1213.27 770.079,1215.96 773.042,1218.7 776.006,1220.86 778.969,1222.66 781.933,1224.43 784.896,1226.15 787.86,1227.85 790.823,1229.5 793.787,1231.12 796.751,1232.72 799.714,1234.28 802.678,1235.81 805.641,1237.32 808.605,1238.8 811.568,1240.25 814.532,1241.69 817.495,1243.1 820.459,1244.49 823.422,1245.86 826.386,1247.21 829.349,1248.55 832.313,1249.87 835.276,1251.18 838.24,1252.48 841.203,1253.76 844.167,1255.04 847.131,1256.31 850.094,1257.57 853.058,1258.83 856.021,1260.08 858.985,1261.33 861.948,1262.58 864.912,1263.83 867.875,1265.08 870.839,1266.34 873.802,1267.6 876.766,1268.86 879.729,1270.13 882.693,1271.42 885.656,1272.71 888.62,1274.01 891.583,1275.33 894.547,1276.66 897.511,1278 900.474,1279.36 903.438,1280.74 906.401,1282.14 909.365,1283.57 912.328,1285.01 915.292,1286.48 918.255,1287.97 921.219,1289.49 924.182,1291.04 927.146,1292.62 930.109,1294.22 933.073,1295.86 936.036,1297.44 939,1298.49 941.963,1299.52 944.927,1300.54 947.891,1301.53 950.854,1302.5 953.818,1303.45 956.781,1304.38 959.745,1305.3 962.708,1306.19 965.672,1307.07 968.635,1307.94 971.599,1308.79 974.562,1309.62 977.526,1310.44 980.489,1311.25 983.453,1312.05 986.416,1312.84 989.38,1313.61 992.343,1314.37 995.307,1315.13 998.271,1315.88 1001.23,1316.62 1004.2,1317.35 1007.16,1318.08 1010.12,1318.8 1013.09,1319.51 1016.05,1320.22 1019.02,1320.93 1021.98,1321.64 1024.94,1322.34 1027.91,1323.04 1030.87,1323.75 1033.83,1324.45 1036.8,1325.15 1039.76,1325.86 1042.72,1326.56 1045.69,1327.28 1048.65,1327.99 1051.61,1328.71 1054.58,1329.44 1057.54,1330.17 1060.5,1330.91 1063.47,1331.65 1066.43,1332.41 1069.4,1333.17 1072.36,1333.94 1075.32,1334.73 1078.29,1335.52 1081.25,1336.33 1084.21,1337.15 1087.18,1337.98 1090.14,1338.83 1093.1,1339.69 1096.07,1340.57 1099.03,1341.46 1101.99,1342.37 1104.96,1343.3 1107.92,1344.25 1110.88,1345.07 1113.85,1345.65 1116.81,1346.22 1119.78,1346.78 1122.74,1347.33 1125.7,1347.87 1128.67,1348.39 1131.63,1348.91 1134.59,1349.41 1137.56,1349.91 1140.52,1350.4 1143.48,1350.88 1146.45,1351.35 1149.41,1351.81 1152.37,1352.26 1155.34,1352.71 1158.3,1353.15 1161.26,1353.58 1164.23,1354.01 1167.19,1354.43 1170.16,1354.85 1173.12,1355.26 1176.08,1355.66 1179.05,1356.07 1182.01,1356.46 1184.97,1356.86 1187.94,1357.25 1190.9,1357.64 1193.86,1358.02 1196.83,1358.41 1199.79,1358.79 1202.75,1359.17 1205.72,1359.55 1208.68,1359.93 1211.64,1360.31 1214.61,1360.69 1217.57,1361.07 1220.54,1361.45 1223.5,1361.84 1226.46,1362.22 1229.43,1362.61 1232.39,1363 1235.35,1363.39 1238.32,1363.78 1241.28,1364.18 1244.24,1364.58 1247.21,1364.99 1250.17,1365.4 1253.13,1365.82 1256.1,1366.24 1259.06,1366.67 1262.02,1367.11 1264.99,1367.55 1267.95,1368 1270.92,1368.45 1273.88,1368.92 1276.84,1369.39 1279.81,1369.87 1282.77,1370.36 1285.73,1370.86 1288.7,1371.36 1291.66,1371.88 1294.62,1372.41 1297.59,1372.74 1300.55,1373.05 1303.51,1373.35 1306.48,1373.65 1309.44,1373.94 1312.4,1374.22 1315.37,1374.5 1318.33,1374.78 1321.3,1375.04 1324.26,1375.31 1327.22,1375.57 1330.19,1375.82 1333.15,1376.07 1336.11,1376.31 1339.08,1376.55 1342.04,1376.79 1345,1377.02 1347.97,1377.25 1350.93,1377.48 1353.89,1377.7 1356.86,1377.92 1359.82,1378.14 1362.78,1378.36 1365.75,1378.57 1368.71,1378.78 1371.68,1378.99 1374.64,1379.19 1377.6,1379.4 1380.57,1379.6 1383.53,1379.8 1386.49,1380 1389.46,1380.2 1392.42,1380.4 1395.38,1380.6 1398.35,1380.8 1401.31,1381 1404.27,1381.2 1407.24,1381.4 1410.2,1381.6 1413.16,1381.8 1416.13,1382 1419.09,1382.2 1422.06,1382.4 1425.02,1382.61 1427.98,1382.81 1430.95,1383.02 1433.91,1383.23 1436.87,1383.44 1439.84,1383.66 1442.8,1383.88 1445.76,1384.1 1448.73,1384.32 1451.69,1384.54 1454.65,1384.77 1457.62,1385.01 1460.58,1385.24 1463.54,1385.48 1466.51,1385.73 1469.47,1385.98 1472.44,1386.23 1475.4,1386.49 1478.36,1386.75 1481.33,1387.02 1484.29,1387.29 1487.25,1387.57 1490.22,1387.81 1493.18,1387.97 1496.14,1388.13 1499.11,1388.28 1502.07,1388.44 1505.03,1388.58 1508,1388.73 1510.96,1388.87 1513.92,1389.02 1516.89,1389.15 1519.85,1389.29 1522.82,1389.42 1525.78,1389.55 1528.74,1389.68 1531.71,1389.81 1534.67,1389.93 1537.63,1390.05 1540.6,1390.17 1543.56,1390.29 1546.52,1390.41 1549.49,1390.52 1552.45,1390.63 1555.41,1390.75 1558.38,1390.86 1561.34,1390.97 1564.3,1391.07 1567.27,1391.18 1570.23,1391.29 1573.2,1391.39 1576.16,1391.5 1579.12,1391.6 1582.09,1391.7 1585.05,1391.8 1588.01,1391.91 1590.98,1392.01 1593.94,1392.11 1596.9,1392.21 1599.87,1392.31 1602.83,1392.41 1605.79,1392.51 1608.76,1392.62 1611.72,1392.72 1614.68,1392.82 1617.65,1392.92 1620.61,1393.03 1623.58,1393.13 1626.54,1393.23 1629.5,1393.34 1632.47,1393.45 1635.43,1393.56 1638.39,1393.66 1641.36,1393.77 1644.32,1393.89 1647.28,1394 1650.25,1394.11 1653.21,1394.23 1656.17,1394.35 1659.14,1394.47 1662.1,1394.59 1665.06,1394.71 1668.03,1394.84 1670.99,1394.97 1673.96,1395.1 1676.92,1395.23 1679.88,1395.37 1682.85,1395.5 1685.81,1395.65 1688.77,1395.79 1691.74,1395.92 1694.7,1396 1697.66,1396.08 1700.63,1396.16 1703.59,1396.24 1706.55,1396.31 1709.52,1396.39 1712.48,1396.46 1715.44,1396.53 1718.41,1396.6 1721.37,1396.67 1724.34,1396.74 1727.3,1396.8 1730.26,1396.87 1733.23,1396.93 1736.19,1397 1739.15,1397.06 1742.12,1397.12 1745.08,1397.18 1748.04,1397.24 1751.01,1397.29 1753.97,1397.35 1756.93,1397.41 1759.9,1397.46 1762.86,1397.52 1765.82,1397.57 1768.79,1397.63 1771.75,1397.68 1774.72,1397.73 1777.68,1397.79 1780.64,1397.84 1783.61,1397.89 1786.57,1397.94 1789.53,1397.99 1792.5,1398.04 1795.46,1398.09 1798.42,1398.14 1801.39,1398.19 1804.35,1398.24 1807.31,1398.29 1810.28,1398.34 1813.24,1398.4 1816.2,1398.45 1819.17,1398.5 1822.13,1398.55 1825.1,1398.6 1828.06,1398.65 1831.02,1398.7 1833.99,1398.76 1836.95,1398.81 1839.91,1398.86 1842.88,1398.92 1845.84,1398.97 1848.8,1399.03 1851.77,1399.08 1854.73,1399.14 1857.69,1399.2 1860.66,1399.25 1863.62,1399.31 1866.58,1399.37 1869.55,1399.43 1872.51,1399.5 1875.48,1399.56 1878.44,1399.62 1881.4,1399.69 1884.37,1399.76 1887.33,1399.82 1890.29,1399.89 1893.26,1399.96 1896.22,1400.04 1899.18,1400.11 1902.15,1400.15 1905.11,1400.19 1908.07,1400.23 1911.04,1400.27 1914,1400.31 1916.96,1400.34 1919.93,1400.38 1922.89,1400.41 1925.86,1400.45 1928.82,1400.48 1931.78,1400.52 1934.75,1400.55 1937.71,1400.58 1940.67,1400.61 1943.64,1400.64 1946.6,1400.68 1949.56,1400.71 1952.53,1400.74 1955.49,1400.76 1958.45,1400.79 1961.42,1400.82 1964.38,1400.85 1967.34,1400.88 1970.31,1400.9 1973.27,1400.93 1976.23,1400.96 1979.2,1400.98 1982.16,1401.01 1985.13,1401.04 1988.09,1401.06 1991.05,1401.09 1994.02,1401.11 1996.98,1401.14 1999.94,1401.16 2002.91,1401.19 2005.87,1401.21 2008.83,1401.24 2011.8,1401.26 2014.76,1401.29 2017.72,1401.31 2020.69,1401.34 2023.65,1401.36 2026.61,1401.38 2029.58,1401.41 2032.54,1401.43 2035.51,1401.46 2038.47,1401.48 2041.43,1401.51 2044.4,1401.54 2047.36,1401.56 2050.32,1401.59 2053.29,1401.61 2056.25,1401.64 2059.21,1401.67 2062.18,1401.69 2065.14,1401.72 2068.1,1401.75 2071.07,1401.78 2074.03,1401.81 2076.99,1401.84 2079.96,1401.87 2082.92,1401.9 2085.89,1401.93 2088.85,1401.96 2091.81,1401.99 2094.78,1402.02 2097.74,1402.05 2100.7,1402.09 2103.67,1402.12 2106.63,1402.16 2109.59,1402.19 2112.56,1402.23 2115.52,1402.25 2118.48,1402.27 2121.45,1402.29 2124.41,1402.31 2127.37,1402.32 2130.34,1402.34 2133.3,1402.36 2136.27,1402.38 2139.23,1402.39 2142.19,1402.41 2145.16,1402.43 2148.12,1402.44 2151.08,1402.46 2154.05,1402.47 2157.01,1402.49 2159.97,1402.51 2162.94,1402.52 2165.9,1402.53 2168.86,1402.55 2171.83,1402.56 2174.79,1402.58 2177.75,1402.59 2180.72,1402.6 2183.68,1402.62 2186.65,1402.63 2189.61,1402.64 2192.57,1402.66 2195.54,1402.67 2198.5,1402.68 2201.46,1402.69 2204.43,1402.7 2207.39,1402.72 2210.35,1402.73 2213.32,1402.74 2216.28,1402.75 2219.24,1402.77 2222.21,1402.78 2225.17,1402.79 2228.13,1402.8 2231.1,1402.81 2234.06,1402.82 2237.03,1402.84 2239.99,1402.85 2242.95,1402.86 2245.92,1402.87 2248.88,1402.88 2251.84,1402.9 2254.81,1402.91 2257.77,1402.92 2260.73,1402.93 2263.7,1402.95 2266.66,1402.96 2269.62,1402.97 2272.59,1402.98 2275.55,1403 2278.51,1403.01 2281.48,1403.02 2284.44,1403.04 2287.41,1403.05 2290.37,1403.06 2293.33,1403.08 2296.3,1403.09 2299.26,1403.11 2302.22,1403.12 2305.19,1403.14 2308.15,1403.15 2311.11,1403.17 2314.08,1403.18 2317.04,1403.2 2320,1403.21 2322.97,1403.23 2325.93,1403.25 2328.89,1403.27 2331.86,1403.28 2334.82,1403.29 2337.79,1403.3 2340.75,1403.31 2343.71,1403.32 2346.68,1403.33 2349.64,1403.33 2352.6,1403.34 2355.57,1403.35 2358.53,1403.36 2361.49,1403.37 2364.46,1403.37 2367.42,1403.38 2370.38,1403.39 2373.35,1403.4 2376.31,1403.4 2379.27,1403.41 2382.24,1403.42 2385.2,1403.42 2388.17,1403.43 2391.13,1403.44 2394.09,1403.44 2397.06,1403.45 2400.02,1403.46 2402.98,1403.46 2405.95,1403.47 2408.91,1403.48 2411.87,1403.48 2414.84,1403.49 2417.8,1403.49 2420.76,1403.5 2423.73,1403.51 2426.69,1403.51 2429.65,1403.52 2432.62,1403.52 2435.58,1403.53 2438.55,1403.53 2441.51,1403.54 2444.47,1403.55 2447.44,1403.55 2450.4,1403.56 2453.36,1403.56 2456.33,1403.57 2459.29,1403.57 2462.25,1403.58 2465.22,1403.59 2468.18,1403.59 2471.14,1403.6 2474.11,1403.6 2477.07,1403.61 2480.03,1403.61 2483,1403.62 2485.96,1403.63 2488.93,1403.63 2491.89,1403.64 2494.85,1403.64 2497.82,1403.65 2500.78,1403.66 2503.74,1403.66 2506.71,1403.67 2509.67,1403.68 2512.63,1403.68 2515.6,1403.69 2518.56,1403.7 2521.52,1403.7 2524.49,1403.71 2527.45,1403.72 2530.41,1403.72 2533.38,1403.73 2536.34,1403.74 2539.31,1403.75 2542.27,1403.75 2545.23,1403.76 2548.2,1403.77 2551.16,1403.78 2554.12,1403.79 2557.09,1403.79 2560.05,1403.79 2563.01,1403.8 2565.98,1403.8 2568.94,1403.81 2571.9,1403.81 2574.87,1403.81 2577.83,1403.82 2580.79,1403.82 2583.76,1403.83 2586.72,1403.83 2589.69,1403.83 2592.65,1403.84 2595.61,1403.84 2598.58,1403.84 2601.54,1403.85 2604.5,1403.85 2607.47,1403.85 2610.43,1403.86 2613.39,1403.86 2616.36,1403.86 2619.32,1403.87 2622.28,1403.87 2625.25,1403.87 2628.21,1403.88 2631.17,1403.88 2634.14,1403.88 2637.1,1403.88 2640.07,1403.89 2643.03,1403.89 2645.99,1403.89 2648.96,1403.89 2651.92,1403.9 2654.88,1403.9 2657.85,1403.9 2660.81,1403.91 2663.77,1403.91 2666.74,1403.91 2669.7,1403.91 2672.66,1403.92 2675.63,1403.92 2678.59,1403.92 2681.55,1403.92 2684.52,1403.93 2687.48,1403.93 2690.45,1403.93 2693.41,1403.93 2696.37,1403.94 2699.34,1403.94 2702.3,1403.94 2705.26,1403.95 2708.23,1403.95 2711.19,1403.95 2714.15,1403.95 2717.12,1403.96 2720.08,1403.96 2723.04,1403.96 2726.01,1403.96 2728.97,1403.97 2731.93,1403.97 2734.9,1403.97 2737.86,1403.98 2740.83,1403.98 2743.79,1403.98 2746.75,1403.99 2749.72,1403.99 2752.68,1403.99 2755.64,1404 2758.61,1404 2761.57,1404 2764.53,1404.01 2767.5,1404.01 2770.46,1404.01 2773.42,1404.02 2776.39,1404.02 2779.35,1404.03 2782.31,1404.03 2785.28,1404.03 2788.24,1404.03 2791.21,1404.03 2794.17,1404.04 2797.13,1404.04 2800.1,1404.04 2803.06,1404.04 2806.02,1404.04 2808.99,1404.05 2811.95,1404.05 2814.91,1404.05 2817.88,1404.05 2820.84,1404.05 2823.8,1404.05 2826.77,1404.06 2829.73,1404.06 2832.69,1404.06 2835.66,1404.06 2838.62,1404.06 2841.59,1404.06 2844.55,1404.06 2847.51,1404.07 2850.48,1404.07 2853.44,1404.07 2856.4,1404.07 2859.37,1404.07 2862.33,1404.07 2865.29,1404.07 2868.26,1404.07 2871.22,1404.08 2874.18,1404.08 2877.15,1404.08 2880.11,1404.08 2883.07,1404.08 2886.04,1404.08 2889,1404.08 2891.97,1404.08 2894.93,1404.09 2897.89,1404.09 2900.86,1404.09 2903.82,1404.09 2906.78,1404.09 2909.75,1404.09 2912.71,1404.09 2915.67,1404.09 2918.64,1404.1 2921.6,1404.1 2924.56,1404.1 2927.53,1404.1 2930.49,1404.1 2933.45,1404.1 2936.42,1404.1 2939.38,1404.1 2942.35,1404.11 2945.31,1404.11 2948.27,1404.11 2951.24,1404.11 2954.2,1404.11 2957.16,1404.11 2960.13,1404.11 2963.09,1404.11 2966.05,1404.12 2969.02,1404.12 2971.98,1404.12 2974.94,1404.12 2977.91,1404.12 2980.87,1404.12 2983.83,1404.12 2986.8,1404.13 2989.76,1404.13 2992.73,1404.13 2995.69,1404.13 2998.65,1404.13 3001.62,1404.13 3004.58,1404.14 3007.54,1404.14 3010.51,1404.14 3013.47,1404.14 3016.43,1404.14 3019.4,1404.14 3022.36,1404.14 3025.32,1404.15 3028.29,1404.15 3031.25,1404.15 3034.21,1404.15 3037.18,1404.15 3040.14,1404.15 3043.11,1404.15 3046.07,1404.15 3049.03,1404.15 3052,1404.15 3054.96,1404.15 3057.92,1404.15 3060.89,1404.15 3063.85,1404.16 3066.81,1404.16 3069.78,1404.16 3072.74,1404.16 3075.7,1404.16 3078.67,1404.16 3081.63,1404.16 3084.59,1404.16 3087.56,1404.16 3090.52,1404.16 3093.49,1404.16 3096.45,1404.16 3099.41,1404.16 3102.38,1404.16 3105.34,1404.17 3108.3,1404.17 3111.27,1404.17 3114.23,1404.17 3117.19,1404.17 3120.16,1404.17 3123.12,1404.17 3126.08,1404.17 3129.05,1404.17 3132.01,1404.17 3134.97,1404.17 3137.94,1404.17 3140.9,1404.17 3143.87,1404.17 3146.83,1404.18 3149.79,1404.18 3152.76,1404.18 "/>
<path clip-path="url(#clip530)" d="M2728.43 197.473 L3054.07 197.473 L3054.07 93.7926 L2728.43 93.7926  Z" fill="#ffffff" fill-rule="evenodd" fill-opacity="1"/>
<polyline clip-path="url(#clip530)" style="stroke:#000000; stroke-linecap:round; stroke-linejoin:round; stroke-width:4; stroke-opacity:1; fill:none" points="2728.43,197.473 3054.07,197.473 3054.07,93.7926 2728.43,93.7926 2728.43,197.473 "/>
<polyline clip-path="url(#clip530)" style="stroke:#009af9; stroke-linecap:round; stroke-linejoin:round; stroke-width:12; stroke-opacity:1; fill:none" points="2761.33,145.633 2958.7,145.633 "/>
<path clip-path="url(#clip530)" d="M2993.17 128.353 L2998.19 128.353 L3006.78 141.2 L3015.41 128.353 L3020.43 128.353 L3009.32 144.95 L3021.18 162.913 L3016.15 162.913 L3006.43 148.214 L2996.64 162.913 L2991.59 162.913 L3003.93 144.464 L2993.17 128.353 Z" fill="#000000" fill-rule="nonzero" fill-opacity="1" /></svg>
