<?xml version="1.0" encoding="utf-8"?>
<svg xmlns="http://www.w3.org/2000/svg" xmlns:xlink="http://www.w3.org/1999/xlink" width="800" height="400" viewBox="0 0 3200 1600">
<defs>
  <clipPath id="clip510">
    <rect x="0" y="0" width="3200" height="1600"/>
  </clipPath>
</defs>
<path clip-path="url(#clip510)" d="M0 1600 L3200 1600 L3200 0 L0 0  Z" fill="#ffffff" fill-rule="evenodd" fill-opacity="1"/>
<defs>
  <clipPath id="clip511">
    <rect x="640" y="0" width="2241" height="1600"/>
  </clipPath>
</defs>
<path clip-path="url(#clip510)" d="M164.598 1495.09 L3152.76 1495.09 L3152.76 47.2441 L164.598 47.2441  Z" fill="#ffffff" fill-rule="evenodd" fill-opacity="1"/>
<defs>
  <clipPath id="clip512">
    <rect x="164" y="47" width="2989" height="1449"/>
  </clipPath>
</defs>
<polyline clip-path="url(#clip512)" style="stroke:#000000; stroke-linecap:round; stroke-linejoin:round; stroke-width:2; stroke-opacity:0.1; fill:none" points="572.562,1495.09 572.562,47.2441 "/>
<polyline clip-path="url(#clip512)" style="stroke:#000000; stroke-linecap:round; stroke-linejoin:round; stroke-width:2; stroke-opacity:0.1; fill:none" points="1658.68,1495.09 1658.68,47.2441 "/>
<polyline clip-path="url(#clip512)" style="stroke:#000000; stroke-linecap:round; stroke-linejoin:round; stroke-width:2; stroke-opacity:0.1; fill:none" points="2744.79,1495.09 2744.79,47.2441 "/>
<polyline clip-path="url(#clip512)" style="stroke:#000000; stroke-linecap:round; stroke-linejoin:round; stroke-width:2; stroke-opacity:0.1; fill:none" points="572.562,1495.09 572.562,47.2441 "/>
<polyline clip-path="url(#clip512)" style="stroke:#000000; stroke-linecap:round; stroke-linejoin:round; stroke-width:2; stroke-opacity:0.1; fill:none" points="1658.68,1495.09 1658.68,47.2441 "/>
<polyline clip-path="url(#clip512)" style="stroke:#000000; stroke-linecap:round; stroke-linejoin:round; stroke-width:2; stroke-opacity:0.1; fill:none" points="2744.79,1495.09 2744.79,47.2441 "/>
<polyline clip-path="url(#clip510)" style="stroke:#000000; stroke-linecap:round; stroke-linejoin:round; stroke-width:4; stroke-opacity:1; fill:none" points="164.598,1495.09 3152.76,1495.09 "/>
<polyline clip-path="url(#clip510)" style="stroke:#000000; stroke-linecap:round; stroke-linejoin:round; stroke-width:4; stroke-opacity:1; fill:none" points="164.598,47.2441 3152.76,47.2441 "/>
<polyline clip-path="url(#clip510)" style="stroke:#000000; stroke-linecap:round; stroke-linejoin:round; stroke-width:4; stroke-opacity:1; fill:none" points="572.562,1495.09 572.562,1476.19 "/>
<polyline clip-path="url(#clip510)" style="stroke:#000000; stroke-linecap:round; stroke-linejoin:round; stroke-width:4; stroke-opacity:1; fill:none" points="1658.68,1495.09 1658.68,1476.19 "/>
<polyline clip-path="url(#clip510)" style="stroke:#000000; stroke-linecap:round; stroke-linejoin:round; stroke-width:4; stroke-opacity:1; fill:none" points="2744.79,1495.09 2744.79,1476.19 "/>
<polyline clip-path="url(#clip510)" style="stroke:#000000; stroke-linecap:round; stroke-linejoin:round; stroke-width:4; stroke-opacity:1; fill:none" points="572.562,47.2441 572.562,66.1417 "/>
<polyline clip-path="url(#clip510)" style="stroke:#000000; stroke-linecap:round; stroke-linejoin:round; stroke-width:4; stroke-opacity:1; fill:none" points="1658.68,47.2441 1658.68,66.1417 "/>
<polyline clip-path="url(#clip510)" style="stroke:#000000; stroke-linecap:round; stroke-linejoin:round; stroke-width:4; stroke-opacity:1; fill:none" points="2744.79,47.2441 2744.79,66.1417 "/>
<path clip-path="url(#clip510)" d="M575.016 1550.86 Q569.854 1550.86 567.863 1552.04 Q565.873 1553.22 565.873 1556.06 Q565.873 1558.33 567.354 1559.67 Q568.859 1560.99 571.428 1560.99 Q574.97 1560.99 577.099 1558.49 Q579.252 1555.97 579.252 1551.8 L579.252 1550.86 L575.016 1550.86 M583.511 1549.1 L583.511 1563.89 L579.252 1563.89 L579.252 1559.95 Q577.794 1562.31 575.618 1563.45 Q573.442 1564.56 570.294 1564.56 Q566.312 1564.56 563.951 1562.34 Q561.613 1560.09 561.613 1556.34 Q561.613 1551.97 564.53 1549.74 Q567.47 1547.52 573.28 1547.52 L579.252 1547.52 L579.252 1547.11 Q579.252 1544.17 577.308 1542.57 Q575.386 1540.95 571.891 1540.95 Q569.669 1540.95 567.562 1541.48 Q565.456 1542.01 563.512 1543.08 L563.512 1539.14 Q565.849 1538.24 568.049 1537.8 Q570.248 1537.34 572.331 1537.34 Q577.956 1537.34 580.734 1540.25 Q583.511 1543.17 583.511 1549.1 Z" fill="#000000" fill-rule="nonzero" fill-opacity="1" /><path clip-path="url(#clip510)" d="M1651.76 1562.29 L1651.76 1573.75 L1647.47 1573.75 L1647.47 1538.12 Q1647.47 1527.57 1657.33 1527.57 Q1667.38 1527.57 1667.38 1536.48 Q1667.38 1542.82 1663.4 1545.14 Q1669.88 1547.22 1669.88 1553.4 Q1669.88 1564.37 1658.72 1564.37 Q1653.82 1564.37 1651.76 1562.29 M1651.76 1556.74 Q1654.33 1560.74 1658.89 1560.74 Q1665.55 1560.74 1665.55 1553.47 Q1665.55 1546.94 1654.81 1547.45 L1654.81 1543.52 Q1663.21 1543.52 1663.21 1536.11 Q1663.21 1531.04 1657.8 1531.04 Q1651.76 1531.04 1651.76 1538.26 L1651.76 1556.74 Z" fill="#000000" fill-rule="nonzero" fill-opacity="1" /><path clip-path="url(#clip510)" d="M2739.46 1542.04 L2745.13 1558.05 L2753.23 1537.96 L2757.74 1537.96 L2747.26 1563.89 L2747.26 1573.75 L2743 1573.75 L2743 1563.89 L2736.19 1544.54 Q2735.17 1541.62 2732.97 1541.62 L2731.84 1541.62 L2731.84 1537.96 L2733.46 1537.96 Q2738.02 1537.96 2739.46 1542.04 Z" fill="#000000" fill-rule="nonzero" fill-opacity="1" /><polyline clip-path="url(#clip512)" style="stroke:#000000; stroke-linecap:round; stroke-linejoin:round; stroke-width:2; stroke-opacity:0.1; fill:none" points="164.598,1224.95 3152.76,1224.95 "/>
<polyline clip-path="url(#clip512)" style="stroke:#000000; stroke-linecap:round; stroke-linejoin:round; stroke-width:2; stroke-opacity:0.1; fill:none" points="164.598,952.078 3152.76,952.078 "/>
<polyline clip-path="url(#clip512)" style="stroke:#000000; stroke-linecap:round; stroke-linejoin:round; stroke-width:2; stroke-opacity:0.1; fill:none" points="164.598,679.209 3152.76,679.209 "/>
<polyline clip-path="url(#clip512)" style="stroke:#000000; stroke-linecap:round; stroke-linejoin:round; stroke-width:2; stroke-opacity:0.1; fill:none" points="164.598,406.34 3152.76,406.34 "/>
<polyline clip-path="url(#clip512)" style="stroke:#000000; stroke-linecap:round; stroke-linejoin:round; stroke-width:2; stroke-opacity:0.1; fill:none" points="164.598,133.471 3152.76,133.471 "/>
<polyline clip-path="url(#clip512)" style="stroke:#000000; stroke-linecap:round; stroke-linejoin:round; stroke-width:2; stroke-opacity:0.1; fill:none" points="164.598,1224.95 3152.76,1224.95 "/>
<polyline clip-path="url(#clip512)" style="stroke:#000000; stroke-linecap:round; stroke-linejoin:round; stroke-width:2; stroke-opacity:0.1; fill:none" points="164.598,952.078 3152.76,952.078 "/>
<polyline clip-path="url(#clip512)" style="stroke:#000000; stroke-linecap:round; stroke-linejoin:round; stroke-width:2; stroke-opacity:0.1; fill:none" points="164.598,679.209 3152.76,679.209 "/>
<polyline clip-path="url(#clip512)" style="stroke:#000000; stroke-linecap:round; stroke-linejoin:round; stroke-width:2; stroke-opacity:0.1; fill:none" points="164.598,406.34 3152.76,406.34 "/>
<polyline clip-path="url(#clip512)" style="stroke:#000000; stroke-linecap:round; stroke-linejoin:round; stroke-width:2; stroke-opacity:0.1; fill:none" points="164.598,133.471 3152.76,133.471 "/>
<polyline clip-path="url(#clip510)" style="stroke:#000000; stroke-linecap:round; stroke-linejoin:round; stroke-width:4; stroke-opacity:1; fill:none" points="164.598,1495.09 164.598,47.2441 "/>
<polyline clip-path="url(#clip510)" style="stroke:#000000; stroke-linecap:round; stroke-linejoin:round; stroke-width:4; stroke-opacity:1; fill:none" points="3152.76,1495.09 3152.76,47.2441 "/>
<polyline clip-path="url(#clip510)" style="stroke:#000000; stroke-linecap:round; stroke-linejoin:round; stroke-width:4; stroke-opacity:1; fill:none" points="164.598,1224.95 183.496,1224.95 "/>
<polyline clip-path="url(#clip510)" style="stroke:#000000; stroke-linecap:round; stroke-linejoin:round; stroke-width:4; stroke-opacity:1; fill:none" points="164.598,952.078 183.496,952.078 "/>
<polyline clip-path="url(#clip510)" style="stroke:#000000; stroke-linecap:round; stroke-linejoin:round; stroke-width:4; stroke-opacity:1; fill:none" points="164.598,679.209 183.496,679.209 "/>
<polyline clip-path="url(#clip510)" style="stroke:#000000; stroke-linecap:round; stroke-linejoin:round; stroke-width:4; stroke-opacity:1; fill:none" points="164.598,406.34 183.496,406.34 "/>
<polyline clip-path="url(#clip510)" style="stroke:#000000; stroke-linecap:round; stroke-linejoin:round; stroke-width:4; stroke-opacity:1; fill:none" points="164.598,133.471 183.496,133.471 "/>
<polyline clip-path="url(#clip510)" style="stroke:#000000; stroke-linecap:round; stroke-linejoin:round; stroke-width:4; stroke-opacity:1; fill:none" points="3152.76,1224.95 3133.86,1224.95 "/>
<polyline clip-path="url(#clip510)" style="stroke:#000000; stroke-linecap:round; stroke-linejoin:round; stroke-width:4; stroke-opacity:1; fill:none" points="3152.76,952.078 3133.86,952.078 "/>
<polyline clip-path="url(#clip510)" style="stroke:#000000; stroke-linecap:round; stroke-linejoin:round; stroke-width:4; stroke-opacity:1; fill:none" points="3152.76,679.209 3133.86,679.209 "/>
<polyline clip-path="url(#clip510)" style="stroke:#000000; stroke-linecap:round; stroke-linejoin:round; stroke-width:4; stroke-opacity:1; fill:none" points="3152.76,406.34 3133.86,406.34 "/>
<polyline clip-path="url(#clip510)" style="stroke:#000000; stroke-linecap:round; stroke-linejoin:round; stroke-width:4; stroke-opacity:1; fill:none" points="3152.76,133.471 3133.86,133.471 "/>
<path clip-path="url(#clip510)" d="M60.6495 1210.75 Q57.0384 1210.75 55.2097 1214.31 Q53.4041 1217.85 53.4041 1224.98 Q53.4041 1232.09 55.2097 1235.65 Q57.0384 1239.2 60.6495 1239.2 Q64.2837 1239.2 66.0892 1235.65 Q67.9179 1232.09 67.9179 1224.98 Q67.9179 1217.85 66.0892 1214.31 Q64.2837 1210.75 60.6495 1210.75 M60.6495 1207.04 Q66.4596 1207.04 69.5152 1211.65 Q72.5938 1216.23 72.5938 1224.98 Q72.5938 1233.71 69.5152 1238.32 Q66.4596 1242.9 60.6495 1242.9 Q54.8393 1242.9 51.7606 1238.32 Q48.7051 1233.71 48.7051 1224.98 Q48.7051 1216.23 51.7606 1211.65 Q54.8393 1207.04 60.6495 1207.04 Z" fill="#000000" fill-rule="nonzero" fill-opacity="1" /><path clip-path="url(#clip510)" d="M80.8114 1236.35 L85.6956 1236.35 L85.6956 1242.23 L80.8114 1242.23 L80.8114 1236.35 Z" fill="#000000" fill-rule="nonzero" fill-opacity="1" /><path clip-path="url(#clip510)" d="M96.6909 1238.29 L104.33 1238.29 L104.33 1211.93 L96.0196 1213.59 L96.0196 1209.33 L104.283 1207.67 L108.959 1207.67 L108.959 1238.29 L116.598 1238.29 L116.598 1242.23 L96.6909 1242.23 L96.6909 1238.29 Z" fill="#000000" fill-rule="nonzero" fill-opacity="1" /><path clip-path="url(#clip510)" d="M61.0198 937.877 Q57.4087 937.877 55.58 941.442 Q53.7745 944.984 53.7745 952.113 Q53.7745 959.22 55.58 962.784 Q57.4087 966.326 61.0198 966.326 Q64.6541 966.326 66.4596 962.784 Q68.2883 959.22 68.2883 952.113 Q68.2883 944.984 66.4596 941.442 Q64.6541 937.877 61.0198 937.877 M61.0198 934.173 Q66.83 934.173 69.8855 938.78 Q72.9642 943.363 72.9642 952.113 Q72.9642 960.84 69.8855 965.446 Q66.83 970.03 61.0198 970.03 Q55.2097 970.03 52.131 965.446 Q49.0754 960.84 49.0754 952.113 Q49.0754 943.363 52.131 938.78 Q55.2097 934.173 61.0198 934.173 Z" fill="#000000" fill-rule="nonzero" fill-opacity="1" /><path clip-path="url(#clip510)" d="M81.1818 963.479 L86.066 963.479 L86.066 969.358 L81.1818 969.358 L81.1818 963.479 Z" fill="#000000" fill-rule="nonzero" fill-opacity="1" /><path clip-path="url(#clip510)" d="M100.279 965.423 L116.598 965.423 L116.598 969.358 L94.6539 969.358 L94.6539 965.423 Q97.3159 962.669 101.899 958.039 Q106.506 953.386 107.686 952.044 Q109.932 949.521 110.811 947.784 Q111.714 946.025 111.714 944.335 Q111.714 941.581 109.77 939.845 Q107.848 938.109 104.746 938.109 Q102.547 938.109 100.094 938.872 Q97.6632 939.636 94.8854 941.187 L94.8854 936.465 Q97.7094 935.331 100.163 934.752 Q102.617 934.173 104.654 934.173 Q110.024 934.173 113.219 936.859 Q116.413 939.544 116.413 944.034 Q116.413 946.164 115.603 948.085 Q114.816 949.983 112.709 952.576 Q112.131 953.247 109.029 956.465 Q105.927 959.659 100.279 965.423 Z" fill="#000000" fill-rule="nonzero" fill-opacity="1" /><path clip-path="url(#clip510)" d="M60.0708 665.008 Q56.4597 665.008 54.631 668.573 Q52.8254 672.114 52.8254 679.244 Q52.8254 686.35 54.631 689.915 Q56.4597 693.457 60.0708 693.457 Q63.705 693.457 65.5105 689.915 Q67.3392 686.35 67.3392 679.244 Q67.3392 672.114 65.5105 668.573 Q63.705 665.008 60.0708 665.008 M60.0708 661.304 Q65.8809 661.304 68.9365 665.911 Q72.0151 670.494 72.0151 679.244 Q72.0151 687.971 68.9365 692.577 Q65.8809 697.161 60.0708 697.161 Q54.2606 697.161 51.1819 692.577 Q48.1264 687.971 48.1264 679.244 Q48.1264 670.494 51.1819 665.911 Q54.2606 661.304 60.0708 661.304 Z" fill="#000000" fill-rule="nonzero" fill-opacity="1" /><path clip-path="url(#clip510)" d="M80.2327 690.61 L85.1169 690.61 L85.1169 696.489 L80.2327 696.489 L80.2327 690.61 Z" fill="#000000" fill-rule="nonzero" fill-opacity="1" /><path clip-path="url(#clip510)" d="M109.469 677.855 Q112.825 678.573 114.7 680.841 Q116.598 683.11 116.598 686.443 Q116.598 691.559 113.08 694.36 Q109.561 697.161 103.08 697.161 Q100.904 697.161 98.5891 696.721 Q96.2974 696.304 93.8437 695.448 L93.8437 690.934 Q95.7882 692.068 98.103 692.647 Q100.418 693.225 102.941 693.225 Q107.339 693.225 109.631 691.489 Q111.945 689.753 111.945 686.443 Q111.945 683.388 109.793 681.675 Q107.663 679.938 103.844 679.938 L99.8159 679.938 L99.8159 676.096 L104.029 676.096 Q107.478 676.096 109.307 674.73 Q111.135 673.341 111.135 670.749 Q111.135 668.087 109.237 666.675 Q107.362 665.239 103.844 665.239 Q101.922 665.239 99.7233 665.656 Q97.5243 666.073 94.8854 666.952 L94.8854 662.786 Q97.5474 662.045 99.8622 661.675 Q102.2 661.304 104.26 661.304 Q109.584 661.304 112.686 663.735 Q115.788 666.142 115.788 670.263 Q115.788 673.133 114.145 675.124 Q112.501 677.091 109.469 677.855 Z" fill="#000000" fill-rule="nonzero" fill-opacity="1" /><path clip-path="url(#clip510)" d="M58.9365 392.139 Q55.3254 392.139 53.4967 395.704 Q51.6912 399.245 51.6912 406.375 Q51.6912 413.481 53.4967 417.046 Q55.3254 420.588 58.9365 420.588 Q62.5707 420.588 64.3763 417.046 Q66.205 413.481 66.205 406.375 Q66.205 399.245 64.3763 395.704 Q62.5707 392.139 58.9365 392.139 M58.9365 388.435 Q64.7467 388.435 67.8022 393.042 Q70.8809 397.625 70.8809 406.375 Q70.8809 415.102 67.8022 419.708 Q64.7467 424.292 58.9365 424.292 Q53.1264 424.292 50.0477 419.708 Q46.9921 415.102 46.9921 406.375 Q46.9921 397.625 50.0477 393.042 Q53.1264 388.435 58.9365 388.435 Z" fill="#000000" fill-rule="nonzero" fill-opacity="1" /><path clip-path="url(#clip510)" d="M79.0984 417.741 L83.9827 417.741 L83.9827 423.62 L79.0984 423.62 L79.0984 417.741 Z" fill="#000000" fill-rule="nonzero" fill-opacity="1" /><path clip-path="url(#clip510)" d="M107.015 393.134 L95.2095 411.583 L107.015 411.583 L107.015 393.134 M105.788 389.06 L111.668 389.06 L111.668 411.583 L116.598 411.583 L116.598 415.472 L111.668 415.472 L111.668 423.62 L107.015 423.62 L107.015 415.472 L91.4132 415.472 L91.4132 410.958 L105.788 389.06 Z" fill="#000000" fill-rule="nonzero" fill-opacity="1" /><path clip-path="url(#clip510)" d="M60.418 119.27 Q56.8069 119.27 54.9782 122.835 Q53.1726 126.376 53.1726 133.506 Q53.1726 140.612 54.9782 144.177 Q56.8069 147.719 60.418 147.719 Q64.0522 147.719 65.8578 144.177 Q67.6865 140.612 67.6865 133.506 Q67.6865 126.376 65.8578 122.835 Q64.0522 119.27 60.418 119.27 M60.418 115.566 Q66.2281 115.566 69.2837 120.173 Q72.3624 124.756 72.3624 133.506 Q72.3624 142.233 69.2837 146.839 Q66.2281 151.422 60.418 151.422 Q54.6078 151.422 51.5291 146.839 Q48.4736 142.233 48.4736 133.506 Q48.4736 124.756 51.5291 120.173 Q54.6078 115.566 60.418 115.566 Z" fill="#000000" fill-rule="nonzero" fill-opacity="1" /><path clip-path="url(#clip510)" d="M80.5799 144.872 L85.4641 144.872 L85.4641 150.751 L80.5799 150.751 L80.5799 144.872 Z" fill="#000000" fill-rule="nonzero" fill-opacity="1" /><path clip-path="url(#clip510)" d="M95.6956 116.191 L114.052 116.191 L114.052 120.126 L99.978 120.126 L99.978 128.598 Q100.996 128.251 102.015 128.089 Q103.033 127.904 104.052 127.904 Q109.839 127.904 113.219 131.075 Q116.598 134.247 116.598 139.663 Q116.598 145.242 113.126 148.344 Q109.654 151.422 103.334 151.422 Q101.159 151.422 98.89 151.052 Q96.6446 150.682 94.2372 149.941 L94.2372 145.242 Q96.3206 146.376 98.5428 146.932 Q100.765 147.487 103.242 147.487 Q107.246 147.487 109.584 145.381 Q111.922 143.274 111.922 139.663 Q111.922 136.052 109.584 133.946 Q107.246 131.839 103.242 131.839 Q101.367 131.839 99.4918 132.256 Q97.64 132.673 95.6956 133.552 L95.6956 116.191 Z" fill="#000000" fill-rule="nonzero" fill-opacity="1" /><path clip-path="url(#clip512)" d="M267.474 352.563 L267.474 1495.09 L877.651 1495.09 L877.651 352.563 L267.474 352.563 L267.474 352.563  Z" fill="#009af9" fill-rule="evenodd" fill-opacity="1"/>
<polyline clip-path="url(#clip512)" style="stroke:#000000; stroke-linecap:round; stroke-linejoin:round; stroke-width:12; stroke-opacity:1; fill:none" points="267.474,352.563 267.474,1495.09 877.651,1495.09 877.651,352.563 267.474,352.563 "/>
<circle clip-path="url(#clip512)" style="fill:#009af9; stroke:none; fill-opacity:0" cx="572.562" cy="352.563" r="2"/>
<path clip-path="url(#clip512)" d="M1353.59 1473.42 L1353.59 1495.09 L1963.77 1495.09 L1963.77 1473.42 L1353.59 1473.42 L1353.59 1473.42  Z" fill="#e26f46" fill-rule="evenodd" fill-opacity="1"/>
<polyline clip-path="url(#clip512)" style="stroke:#000000; stroke-linecap:round; stroke-linejoin:round; stroke-width:12; stroke-opacity:1; fill:none" points="1353.59,1473.42 1353.59,1495.09 1963.77,1495.09 1963.77,1473.42 1353.59,1473.42 "/>
<circle clip-path="url(#clip512)" style="fill:#e26f46; stroke:none; fill-opacity:0" cx="1658.68" cy="1473.42" r="2"/>
<path clip-path="url(#clip512)" d="M2439.7 47.2441 L2439.7 1495.09 L3049.88 1495.09 L3049.88 47.2441 L2439.7 47.2441 L2439.7 47.2441  Z" fill="#3da44d" fill-rule="evenodd" fill-opacity="1"/>
<polyline clip-path="url(#clip512)" style="stroke:#000000; stroke-linecap:round; stroke-linejoin:round; stroke-width:12; stroke-opacity:1; fill:none" points="2439.7,47.2441 2439.7,1495.09 3049.88,1495.09 3049.88,47.2441 2439.7,47.2441 "/>
<circle clip-path="url(#clip512)" style="fill:#3da44d; stroke:none; fill-opacity:0" cx="2744.79" cy="47.2441" r="2"/>
<path clip-path="url(#clip510)" d="M264.203 302.866 L588.922 302.866 L588.922 95.5056 L264.203 95.5056  Z" fill="#ffffff" fill-rule="evenodd" fill-opacity="1"/>
<polyline clip-path="url(#clip510)" style="stroke:#000000; stroke-linecap:round; stroke-linejoin:round; stroke-width:4; stroke-opacity:1; fill:none" points="264.203,302.866 588.922,302.866 588.922,95.5056 264.203,95.5056 264.203,302.866 "/>
<path clip-path="url(#clip510)" d="M297.405 168.082 L496.616 168.082 L496.616 126.61 L297.405 126.61 L297.405 168.082  Z" fill="#009af9" fill-rule="evenodd" fill-opacity="1"/>
<polyline clip-path="url(#clip510)" style="stroke:#000000; stroke-linecap:round; stroke-linejoin:round; stroke-width:12; stroke-opacity:1; fill:none" points="297.405,168.082 496.616,168.082 496.616,126.61 297.405,126.61 297.405,168.082 "/>
<path clip-path="url(#clip510)" d="M543.22 151.593 Q538.058 151.593 536.067 152.774 Q534.077 153.954 534.077 156.802 Q534.077 159.07 535.558 160.413 Q537.063 161.732 539.632 161.732 Q543.174 161.732 545.304 159.232 Q547.456 156.709 547.456 152.542 L547.456 151.593 L543.22 151.593 M551.716 149.834 L551.716 164.626 L547.456 164.626 L547.456 160.69 Q545.998 163.051 543.822 164.186 Q541.646 165.297 538.498 165.297 Q534.517 165.297 532.155 163.075 Q529.818 160.829 529.818 157.079 Q529.818 152.704 532.734 150.482 Q535.674 148.26 541.484 148.26 L547.456 148.26 L547.456 147.843 Q547.456 144.903 545.512 143.306 Q543.591 141.686 540.095 141.686 Q537.873 141.686 535.767 142.218 Q533.66 142.751 531.716 143.815 L531.716 139.88 Q534.054 138.978 536.253 138.538 Q538.452 138.075 540.535 138.075 Q546.16 138.075 548.938 140.991 Q551.716 143.908 551.716 149.834 Z" fill="#000000" fill-rule="nonzero" fill-opacity="1" /><path clip-path="url(#clip510)" d="M297.405 219.922 L496.616 219.922 L496.616 178.45 L297.405 178.45 L297.405 219.922  Z" fill="#e26f46" fill-rule="evenodd" fill-opacity="1"/>
<polyline clip-path="url(#clip510)" style="stroke:#000000; stroke-linecap:round; stroke-linejoin:round; stroke-width:12; stroke-opacity:1; fill:none" points="297.405,219.922 496.616,219.922 496.616,178.45 297.405,178.45 297.405,219.922 "/>
<path clip-path="url(#clip510)" d="M534.1 214.868 L534.1 226.327 L529.818 226.327 L529.818 190.702 Q529.818 180.146 539.679 180.146 Q549.725 180.146 549.725 189.058 Q549.725 195.401 545.743 197.716 Q552.225 199.799 552.225 205.979 Q552.225 216.952 541.067 216.952 Q536.16 216.952 534.1 214.868 M534.1 209.313 Q536.669 213.317 541.229 213.317 Q547.896 213.317 547.896 206.049 Q547.896 199.521 537.155 200.03 L537.155 196.095 Q545.558 196.095 545.558 188.688 Q545.558 183.619 540.142 183.619 Q534.1 183.619 534.1 190.841 L534.1 209.313 Z" fill="#000000" fill-rule="nonzero" fill-opacity="1" /><path clip-path="url(#clip510)" d="M297.405 271.762 L496.616 271.762 L496.616 230.29 L297.405 230.29 L297.405 271.762  Z" fill="#3da44d" fill-rule="evenodd" fill-opacity="1"/>
<polyline clip-path="url(#clip510)" style="stroke:#000000; stroke-linecap:round; stroke-linejoin:round; stroke-width:12; stroke-opacity:1; fill:none" points="297.405,271.762 496.616,271.762 496.616,230.29 297.405,230.29 297.405,271.762 "/>
<path clip-path="url(#clip510)" d="M537.433 246.454 L543.104 262.472 L551.206 242.38 L555.72 242.38 L545.234 268.306 L545.234 278.167 L540.975 278.167 L540.975 268.306 L534.169 248.954 Q533.151 246.037 530.952 246.037 L529.818 246.037 L529.818 242.38 L531.438 242.38 Q535.998 242.38 537.433 246.454 Z" fill="#000000" fill-rule="nonzero" fill-opacity="1" /></svg>
