<?xml version="1.0" encoding="utf-8"?>
<svg xmlns="http://www.w3.org/2000/svg" xmlns:xlink="http://www.w3.org/1999/xlink" width="800" height="400" viewBox="0 0 3200 1600">
<defs>
  <clipPath id="clip570">
    <rect x="0" y="0" width="3200" height="1600"/>
  </clipPath>
</defs>
<path clip-path="url(#clip570)" d="M0 1600 L3200 1600 L3200 0 L0 0  Z" fill="#ffffff" fill-rule="evenodd" fill-opacity="1"/>
<defs>
  <clipPath id="clip571">
    <rect x="230" y="47" width="2924" height="1397"/>
  </clipPath>
</defs>
<path clip-path="url(#clip570)" d="M230.245 1443.7 L3152.76 1443.7 L3152.76 47.2441 L230.245 47.2441  Z" fill="#ffffff" fill-rule="evenodd" fill-opacity="1"/>
<polyline clip-path="url(#clip571)" style="stroke:#000000; stroke-linecap:round; stroke-linejoin:round; stroke-width:2; stroke-opacity:0.1; fill:none" points="312.958,1443.7 312.958,47.2441 "/>
<polyline clip-path="url(#clip571)" style="stroke:#000000; stroke-linecap:round; stroke-linejoin:round; stroke-width:2; stroke-opacity:0.1; fill:none" points="772.472,1443.7 772.472,47.2441 "/>
<polyline clip-path="url(#clip571)" style="stroke:#000000; stroke-linecap:round; stroke-linejoin:round; stroke-width:2; stroke-opacity:0.1; fill:none" points="1231.99,1443.7 1231.99,47.2441 "/>
<polyline clip-path="url(#clip571)" style="stroke:#000000; stroke-linecap:round; stroke-linejoin:round; stroke-width:2; stroke-opacity:0.1; fill:none" points="1691.5,1443.7 1691.5,47.2441 "/>
<polyline clip-path="url(#clip571)" style="stroke:#000000; stroke-linecap:round; stroke-linejoin:round; stroke-width:2; stroke-opacity:0.1; fill:none" points="2151.01,1443.7 2151.01,47.2441 "/>
<polyline clip-path="url(#clip571)" style="stroke:#000000; stroke-linecap:round; stroke-linejoin:round; stroke-width:2; stroke-opacity:0.1; fill:none" points="2610.53,1443.7 2610.53,47.2441 "/>
<polyline clip-path="url(#clip571)" style="stroke:#000000; stroke-linecap:round; stroke-linejoin:round; stroke-width:2; stroke-opacity:0.1; fill:none" points="3070.04,1443.7 3070.04,47.2441 "/>
<polyline clip-path="url(#clip571)" style="stroke:#000000; stroke-linecap:round; stroke-linejoin:round; stroke-width:2; stroke-opacity:0.1; fill:none" points="312.958,1443.7 312.958,47.2441 "/>
<polyline clip-path="url(#clip571)" style="stroke:#000000; stroke-linecap:round; stroke-linejoin:round; stroke-width:2; stroke-opacity:0.1; fill:none" points="772.472,1443.7 772.472,47.2441 "/>
<polyline clip-path="url(#clip571)" style="stroke:#000000; stroke-linecap:round; stroke-linejoin:round; stroke-width:2; stroke-opacity:0.1; fill:none" points="1231.99,1443.7 1231.99,47.2441 "/>
<polyline clip-path="url(#clip571)" style="stroke:#000000; stroke-linecap:round; stroke-linejoin:round; stroke-width:2; stroke-opacity:0.1; fill:none" points="1691.5,1443.7 1691.5,47.2441 "/>
<polyline clip-path="url(#clip571)" style="stroke:#000000; stroke-linecap:round; stroke-linejoin:round; stroke-width:2; stroke-opacity:0.1; fill:none" points="2151.01,1443.7 2151.01,47.2441 "/>
<polyline clip-path="url(#clip571)" style="stroke:#000000; stroke-linecap:round; stroke-linejoin:round; stroke-width:2; stroke-opacity:0.1; fill:none" points="2610.53,1443.7 2610.53,47.2441 "/>
<polyline clip-path="url(#clip571)" style="stroke:#000000; stroke-linecap:round; stroke-linejoin:round; stroke-width:2; stroke-opacity:0.1; fill:none" points="3070.04,1443.7 3070.04,47.2441 "/>
<polyline clip-path="url(#clip571)" style="stroke:#000000; stroke-linecap:round; stroke-linejoin:round; stroke-width:2; stroke-opacity:0.1; fill:none" points="230.245,1409.38 3152.76,1409.38 "/>
<polyline clip-path="url(#clip571)" style="stroke:#000000; stroke-linecap:round; stroke-linejoin:round; stroke-width:2; stroke-opacity:0.1; fill:none" points="230.245,1149.03 3152.76,1149.03 "/>
<polyline clip-path="url(#clip571)" style="stroke:#000000; stroke-linecap:round; stroke-linejoin:round; stroke-width:2; stroke-opacity:0.1; fill:none" points="230.245,888.669 3152.76,888.669 "/>
<polyline clip-path="url(#clip571)" style="stroke:#000000; stroke-linecap:round; stroke-linejoin:round; stroke-width:2; stroke-opacity:0.1; fill:none" points="230.245,628.311 3152.76,628.311 "/>
<polyline clip-path="url(#clip571)" style="stroke:#000000; stroke-linecap:round; stroke-linejoin:round; stroke-width:2; stroke-opacity:0.1; fill:none" points="230.245,367.953 3152.76,367.953 "/>
<polyline clip-path="url(#clip571)" style="stroke:#000000; stroke-linecap:round; stroke-linejoin:round; stroke-width:2; stroke-opacity:0.1; fill:none" points="230.245,107.595 3152.76,107.595 "/>
<polyline clip-path="url(#clip571)" style="stroke:#000000; stroke-linecap:round; stroke-linejoin:round; stroke-width:2; stroke-opacity:0.1; fill:none" points="230.245,1409.38 3152.76,1409.38 "/>
<polyline clip-path="url(#clip571)" style="stroke:#000000; stroke-linecap:round; stroke-linejoin:round; stroke-width:2; stroke-opacity:0.1; fill:none" points="230.245,1149.03 3152.76,1149.03 "/>
<polyline clip-path="url(#clip571)" style="stroke:#000000; stroke-linecap:round; stroke-linejoin:round; stroke-width:2; stroke-opacity:0.1; fill:none" points="230.245,888.669 3152.76,888.669 "/>
<polyline clip-path="url(#clip571)" style="stroke:#000000; stroke-linecap:round; stroke-linejoin:round; stroke-width:2; stroke-opacity:0.1; fill:none" points="230.245,628.311 3152.76,628.311 "/>
<polyline clip-path="url(#clip571)" style="stroke:#000000; stroke-linecap:round; stroke-linejoin:round; stroke-width:2; stroke-opacity:0.1; fill:none" points="230.245,367.953 3152.76,367.953 "/>
<polyline clip-path="url(#clip571)" style="stroke:#000000; stroke-linecap:round; stroke-linejoin:round; stroke-width:2; stroke-opacity:0.1; fill:none" points="230.245,107.595 3152.76,107.595 "/>
<polyline clip-path="url(#clip570)" style="stroke:#000000; stroke-linecap:round; stroke-linejoin:round; stroke-width:4; stroke-opacity:1; fill:none" points="230.245,1443.7 3152.76,1443.7 "/>
<polyline clip-path="url(#clip570)" style="stroke:#000000; stroke-linecap:round; stroke-linejoin:round; stroke-width:4; stroke-opacity:1; fill:none" points="230.245,47.2441 3152.76,47.2441 "/>
<polyline clip-path="url(#clip570)" style="stroke:#000000; stroke-linecap:round; stroke-linejoin:round; stroke-width:4; stroke-opacity:1; fill:none" points="312.958,1443.7 312.958,1424.8 "/>
<polyline clip-path="url(#clip570)" style="stroke:#000000; stroke-linecap:round; stroke-linejoin:round; stroke-width:4; stroke-opacity:1; fill:none" points="772.472,1443.7 772.472,1424.8 "/>
<polyline clip-path="url(#clip570)" style="stroke:#000000; stroke-linecap:round; stroke-linejoin:round; stroke-width:4; stroke-opacity:1; fill:none" points="1231.99,1443.7 1231.99,1424.8 "/>
<polyline clip-path="url(#clip570)" style="stroke:#000000; stroke-linecap:round; stroke-linejoin:round; stroke-width:4; stroke-opacity:1; fill:none" points="1691.5,1443.7 1691.5,1424.8 "/>
<polyline clip-path="url(#clip570)" style="stroke:#000000; stroke-linecap:round; stroke-linejoin:round; stroke-width:4; stroke-opacity:1; fill:none" points="2151.01,1443.7 2151.01,1424.8 "/>
<polyline clip-path="url(#clip570)" style="stroke:#000000; stroke-linecap:round; stroke-linejoin:round; stroke-width:4; stroke-opacity:1; fill:none" points="2610.53,1443.7 2610.53,1424.8 "/>
<polyline clip-path="url(#clip570)" style="stroke:#000000; stroke-linecap:round; stroke-linejoin:round; stroke-width:4; stroke-opacity:1; fill:none" points="3070.04,1443.7 3070.04,1424.8 "/>
<polyline clip-path="url(#clip570)" style="stroke:#000000; stroke-linecap:round; stroke-linejoin:round; stroke-width:4; stroke-opacity:1; fill:none" points="312.958,47.2441 312.958,66.1417 "/>
<polyline clip-path="url(#clip570)" style="stroke:#000000; stroke-linecap:round; stroke-linejoin:round; stroke-width:4; stroke-opacity:1; fill:none" points="772.472,47.2441 772.472,66.1417 "/>
<polyline clip-path="url(#clip570)" style="stroke:#000000; stroke-linecap:round; stroke-linejoin:round; stroke-width:4; stroke-opacity:1; fill:none" points="1231.99,47.2441 1231.99,66.1417 "/>
<polyline clip-path="url(#clip570)" style="stroke:#000000; stroke-linecap:round; stroke-linejoin:round; stroke-width:4; stroke-opacity:1; fill:none" points="1691.5,47.2441 1691.5,66.1417 "/>
<polyline clip-path="url(#clip570)" style="stroke:#000000; stroke-linecap:round; stroke-linejoin:round; stroke-width:4; stroke-opacity:1; fill:none" points="2151.01,47.2441 2151.01,66.1417 "/>
<polyline clip-path="url(#clip570)" style="stroke:#000000; stroke-linecap:round; stroke-linejoin:round; stroke-width:4; stroke-opacity:1; fill:none" points="2610.53,47.2441 2610.53,66.1417 "/>
<polyline clip-path="url(#clip570)" style="stroke:#000000; stroke-linecap:round; stroke-linejoin:round; stroke-width:4; stroke-opacity:1; fill:none" points="3070.04,47.2441 3070.04,66.1417 "/>
<path clip-path="url(#clip570)" d="M312.958 1481.02 Q309.347 1481.02 307.518 1484.58 Q305.713 1488.12 305.713 1495.25 Q305.713 1502.36 307.518 1505.93 Q309.347 1509.47 312.958 1509.47 Q316.592 1509.47 318.398 1505.93 Q320.226 1502.36 320.226 1495.25 Q320.226 1488.12 318.398 1484.58 Q316.592 1481.02 312.958 1481.02 M312.958 1477.31 Q318.768 1477.31 321.824 1481.92 Q324.902 1486.5 324.902 1495.25 Q324.902 1503.98 321.824 1508.59 Q318.768 1513.17 312.958 1513.17 Q307.148 1513.17 304.069 1508.59 Q301.014 1503.98 301.014 1495.25 Q301.014 1486.5 304.069 1481.92 Q307.148 1477.31 312.958 1477.31 Z" fill="#000000" fill-rule="nonzero" fill-opacity="1" /><path clip-path="url(#clip570)" d="M762.854 1508.56 L770.493 1508.56 L770.493 1482.2 L762.183 1483.87 L762.183 1479.61 L770.447 1477.94 L775.123 1477.94 L775.123 1508.56 L782.762 1508.56 L782.762 1512.5 L762.854 1512.5 L762.854 1508.56 Z" fill="#000000" fill-rule="nonzero" fill-opacity="1" /><path clip-path="url(#clip570)" d="M1226.64 1508.56 L1242.96 1508.56 L1242.96 1512.5 L1221.01 1512.5 L1221.01 1508.56 Q1223.68 1505.81 1228.26 1501.18 Q1232.87 1496.53 1234.05 1495.19 Q1236.29 1492.66 1237.17 1490.93 Q1238.07 1489.17 1238.07 1487.48 Q1238.07 1484.72 1236.13 1482.99 Q1234.21 1481.25 1231.11 1481.25 Q1228.91 1481.25 1226.45 1482.01 Q1224.02 1482.78 1221.25 1484.33 L1221.25 1479.61 Q1224.07 1478.47 1226.52 1477.89 Q1228.98 1477.31 1231.01 1477.31 Q1236.38 1477.31 1239.58 1480 Q1242.77 1482.69 1242.77 1487.18 Q1242.77 1489.31 1241.96 1491.23 Q1241.18 1493.12 1239.07 1495.72 Q1238.49 1496.39 1235.39 1499.61 Q1232.29 1502.8 1226.64 1508.56 Z" fill="#000000" fill-rule="nonzero" fill-opacity="1" /><path clip-path="url(#clip570)" d="M1695.75 1493.87 Q1699.1 1494.58 1700.98 1496.85 Q1702.88 1499.12 1702.88 1502.45 Q1702.88 1507.57 1699.36 1510.37 Q1695.84 1513.17 1689.36 1513.17 Q1687.18 1513.17 1684.87 1512.73 Q1682.58 1512.31 1680.12 1511.46 L1680.12 1506.94 Q1682.07 1508.08 1684.38 1508.66 Q1686.7 1509.24 1689.22 1509.24 Q1693.62 1509.24 1695.91 1507.5 Q1698.23 1505.76 1698.23 1502.45 Q1698.23 1499.4 1696.07 1497.69 Q1693.94 1495.95 1690.12 1495.95 L1686.1 1495.95 L1686.1 1492.11 L1690.31 1492.11 Q1693.76 1492.11 1695.59 1490.74 Q1697.41 1489.35 1697.41 1486.76 Q1697.41 1484.1 1695.52 1482.69 Q1693.64 1481.25 1690.12 1481.25 Q1688.2 1481.25 1686 1481.67 Q1683.8 1482.08 1681.17 1482.96 L1681.17 1478.8 Q1683.83 1478.06 1686.14 1477.69 Q1688.48 1477.31 1690.54 1477.31 Q1695.86 1477.31 1698.97 1479.75 Q1702.07 1482.15 1702.07 1486.27 Q1702.07 1489.14 1700.42 1491.13 Q1698.78 1493.1 1695.75 1493.87 Z" fill="#000000" fill-rule="nonzero" fill-opacity="1" /><path clip-path="url(#clip570)" d="M2154.02 1482.01 L2142.22 1500.46 L2154.02 1500.46 L2154.02 1482.01 M2152.8 1477.94 L2158.68 1477.94 L2158.68 1500.46 L2163.61 1500.46 L2163.61 1504.35 L2158.68 1504.35 L2158.68 1512.5 L2154.02 1512.5 L2154.02 1504.35 L2138.42 1504.35 L2138.42 1499.84 L2152.8 1477.94 Z" fill="#000000" fill-rule="nonzero" fill-opacity="1" /><path clip-path="url(#clip570)" d="M2600.81 1477.94 L2619.16 1477.94 L2619.16 1481.88 L2605.09 1481.88 L2605.09 1490.35 Q2606.11 1490 2607.13 1489.84 Q2608.14 1489.65 2609.16 1489.65 Q2614.95 1489.65 2618.33 1492.82 Q2621.71 1496 2621.71 1501.41 Q2621.71 1506.99 2618.24 1510.09 Q2614.77 1513.17 2608.45 1513.17 Q2606.27 1513.17 2604 1512.8 Q2601.76 1512.43 2599.35 1511.69 L2599.35 1506.99 Q2601.43 1508.12 2603.65 1508.68 Q2605.88 1509.24 2608.35 1509.24 Q2612.36 1509.24 2614.7 1507.13 Q2617.03 1505.02 2617.03 1501.41 Q2617.03 1497.8 2614.7 1495.69 Q2612.36 1493.59 2608.35 1493.59 Q2606.48 1493.59 2604.6 1494 Q2602.75 1494.42 2600.81 1495.3 L2600.81 1477.94 Z" fill="#000000" fill-rule="nonzero" fill-opacity="1" /><path clip-path="url(#clip570)" d="M3070.45 1493.36 Q3067.3 1493.36 3065.45 1495.51 Q3063.62 1497.66 3063.62 1501.41 Q3063.62 1505.14 3065.45 1507.31 Q3067.3 1509.47 3070.45 1509.47 Q3073.6 1509.47 3075.43 1507.31 Q3077.28 1505.14 3077.28 1501.41 Q3077.28 1497.66 3075.43 1495.51 Q3073.6 1493.36 3070.45 1493.36 M3079.73 1478.7 L3079.73 1482.96 Q3077.97 1482.13 3076.17 1481.69 Q3074.38 1481.25 3072.62 1481.25 Q3067.99 1481.25 3065.54 1484.37 Q3063.11 1487.5 3062.76 1493.82 Q3064.13 1491.81 3066.19 1490.74 Q3068.25 1489.65 3070.73 1489.65 Q3075.93 1489.65 3078.94 1492.82 Q3081.98 1495.97 3081.98 1501.41 Q3081.98 1506.74 3078.83 1509.95 Q3075.68 1513.17 3070.45 1513.17 Q3064.45 1513.17 3061.28 1508.59 Q3058.11 1503.98 3058.11 1495.25 Q3058.11 1487.06 3062 1482.2 Q3065.89 1477.31 3072.44 1477.31 Q3074.2 1477.31 3075.98 1477.66 Q3077.79 1478.01 3079.73 1478.7 Z" fill="#000000" fill-rule="nonzero" fill-opacity="1" /><path clip-path="url(#clip570)" d="M1630.66 1554.79 L1630.66 1564.92 L1642.72 1564.92 L1642.72 1569.47 L1630.66 1569.47 L1630.66 1588.82 Q1630.66 1593.18 1631.84 1594.42 Q1633.05 1595.66 1636.71 1595.66 L1642.72 1595.66 L1642.72 1600.56 L1636.71 1600.56 Q1629.93 1600.56 1627.35 1598.05 Q1624.77 1595.5 1624.77 1588.82 L1624.77 1569.47 L1620.48 1569.47 L1620.48 1564.92 L1624.77 1564.92 L1624.77 1554.79 L1630.66 1554.79 Z" fill="#000000" fill-rule="nonzero" fill-opacity="1" /><path clip-path="url(#clip570)" d="M1650.43 1564.92 L1656.28 1564.92 L1656.28 1600.56 L1650.43 1600.56 L1650.43 1564.92 M1650.43 1551.04 L1656.28 1551.04 L1656.28 1558.45 L1650.43 1558.45 L1650.43 1551.04 Z" fill="#000000" fill-rule="nonzero" fill-opacity="1" /><path clip-path="url(#clip570)" d="M1696.29 1571.76 Q1698.49 1567.81 1701.54 1565.93 Q1704.6 1564.06 1708.74 1564.06 Q1714.31 1564.06 1717.33 1567.97 Q1720.35 1571.85 1720.35 1579.05 L1720.35 1600.56 L1714.46 1600.56 L1714.46 1579.24 Q1714.46 1574.11 1712.65 1571.63 Q1710.84 1569.15 1707.11 1569.15 Q1702.56 1569.15 1699.92 1572.17 Q1697.28 1575.2 1697.28 1580.42 L1697.28 1600.56 L1691.39 1600.56 L1691.39 1579.24 Q1691.39 1574.08 1689.58 1571.63 Q1687.76 1569.15 1683.97 1569.15 Q1679.49 1569.15 1676.84 1572.2 Q1674.2 1575.23 1674.2 1580.42 L1674.2 1600.56 L1668.31 1600.56 L1668.31 1564.92 L1674.2 1564.92 L1674.2 1570.45 Q1676.21 1567.18 1679.01 1565.62 Q1681.81 1564.06 1685.66 1564.06 Q1689.54 1564.06 1692.25 1566.03 Q1694.99 1568 1696.29 1571.76 Z" fill="#000000" fill-rule="nonzero" fill-opacity="1" /><path clip-path="url(#clip570)" d="M1762.53 1581.28 L1762.53 1584.14 L1735.6 1584.14 Q1735.98 1590.19 1739.23 1593.37 Q1742.51 1596.52 1748.33 1596.52 Q1751.7 1596.52 1754.86 1595.69 Q1758.04 1594.87 1761.16 1593.21 L1761.16 1598.75 Q1758.01 1600.09 1754.7 1600.79 Q1751.39 1601.49 1747.98 1601.49 Q1739.45 1601.49 1734.45 1596.52 Q1729.49 1591.56 1729.49 1583.09 Q1729.49 1574.34 1734.2 1569.21 Q1738.94 1564.06 1746.96 1564.06 Q1754.16 1564.06 1758.32 1568.7 Q1762.53 1573.32 1762.53 1581.28 M1756.67 1579.56 Q1756.61 1574.75 1753.96 1571.89 Q1751.35 1569.02 1747.03 1569.02 Q1742.12 1569.02 1739.16 1571.79 Q1736.24 1574.56 1735.79 1579.59 L1756.67 1579.56 Z" fill="#000000" fill-rule="nonzero" fill-opacity="1" /><polyline clip-path="url(#clip570)" style="stroke:#000000; stroke-linecap:round; stroke-linejoin:round; stroke-width:4; stroke-opacity:1; fill:none" points="230.245,1443.7 230.245,47.2441 "/>
<polyline clip-path="url(#clip570)" style="stroke:#000000; stroke-linecap:round; stroke-linejoin:round; stroke-width:4; stroke-opacity:1; fill:none" points="3152.76,1443.7 3152.76,47.2441 "/>
<polyline clip-path="url(#clip570)" style="stroke:#000000; stroke-linecap:round; stroke-linejoin:round; stroke-width:4; stroke-opacity:1; fill:none" points="230.245,1409.38 249.143,1409.38 "/>
<polyline clip-path="url(#clip570)" style="stroke:#000000; stroke-linecap:round; stroke-linejoin:round; stroke-width:4; stroke-opacity:1; fill:none" points="230.245,1149.03 249.143,1149.03 "/>
<polyline clip-path="url(#clip570)" style="stroke:#000000; stroke-linecap:round; stroke-linejoin:round; stroke-width:4; stroke-opacity:1; fill:none" points="230.245,888.669 249.143,888.669 "/>
<polyline clip-path="url(#clip570)" style="stroke:#000000; stroke-linecap:round; stroke-linejoin:round; stroke-width:4; stroke-opacity:1; fill:none" points="230.245,628.311 249.143,628.311 "/>
<polyline clip-path="url(#clip570)" style="stroke:#000000; stroke-linecap:round; stroke-linejoin:round; stroke-width:4; stroke-opacity:1; fill:none" points="230.245,367.953 249.143,367.953 "/>
<polyline clip-path="url(#clip570)" style="stroke:#000000; stroke-linecap:round; stroke-linejoin:round; stroke-width:4; stroke-opacity:1; fill:none" points="230.245,107.595 249.143,107.595 "/>
<polyline clip-path="url(#clip570)" style="stroke:#000000; stroke-linecap:round; stroke-linejoin:round; stroke-width:4; stroke-opacity:1; fill:none" points="3152.76,1409.38 3133.86,1409.38 "/>
<polyline clip-path="url(#clip570)" style="stroke:#000000; stroke-linecap:round; stroke-linejoin:round; stroke-width:4; stroke-opacity:1; fill:none" points="3152.76,1149.03 3133.86,1149.03 "/>
<polyline clip-path="url(#clip570)" style="stroke:#000000; stroke-linecap:round; stroke-linejoin:round; stroke-width:4; stroke-opacity:1; fill:none" points="3152.76,888.669 3133.86,888.669 "/>
<polyline clip-path="url(#clip570)" style="stroke:#000000; stroke-linecap:round; stroke-linejoin:round; stroke-width:4; stroke-opacity:1; fill:none" points="3152.76,628.311 3133.86,628.311 "/>
<polyline clip-path="url(#clip570)" style="stroke:#000000; stroke-linecap:round; stroke-linejoin:round; stroke-width:4; stroke-opacity:1; fill:none" points="3152.76,367.953 3133.86,367.953 "/>
<polyline clip-path="url(#clip570)" style="stroke:#000000; stroke-linecap:round; stroke-linejoin:round; stroke-width:4; stroke-opacity:1; fill:none" points="3152.76,107.595 3133.86,107.595 "/>
<path clip-path="url(#clip570)" d="M170.301 1395.18 Q166.69 1395.18 164.861 1398.75 Q163.056 1402.29 163.056 1409.42 Q163.056 1416.53 164.861 1420.09 Q166.69 1423.63 170.301 1423.63 Q173.935 1423.63 175.741 1420.09 Q177.57 1416.53 177.57 1409.42 Q177.57 1402.29 175.741 1398.75 Q173.935 1395.18 170.301 1395.18 M170.301 1391.48 Q176.111 1391.48 179.167 1396.09 Q182.245 1400.67 182.245 1409.42 Q182.245 1418.15 179.167 1422.75 Q176.111 1427.34 170.301 1427.34 Q164.491 1427.34 161.412 1422.75 Q158.357 1418.15 158.357 1409.42 Q158.357 1400.67 161.412 1396.09 Q164.491 1391.48 170.301 1391.48 Z" fill="#000000" fill-rule="nonzero" fill-opacity="1" /><path clip-path="url(#clip570)" d="M130.186 1131.75 L148.542 1131.75 L148.542 1135.68 L134.468 1135.68 L134.468 1144.15 Q135.486 1143.81 136.505 1143.64 Q137.523 1143.46 138.542 1143.46 Q144.329 1143.46 147.709 1146.63 Q151.088 1149.8 151.088 1155.22 Q151.088 1160.8 147.616 1163.9 Q144.144 1166.98 137.824 1166.98 Q135.648 1166.98 133.38 1166.61 Q131.135 1166.24 128.727 1165.5 L128.727 1160.8 Q130.811 1161.93 133.033 1162.49 Q135.255 1163.04 137.732 1163.04 Q141.736 1163.04 144.074 1160.94 Q146.412 1158.83 146.412 1155.22 Q146.412 1151.61 144.074 1149.5 Q141.736 1147.39 137.732 1147.39 Q135.857 1147.39 133.982 1147.81 Q132.13 1148.23 130.186 1149.11 L130.186 1131.75 Z" fill="#000000" fill-rule="nonzero" fill-opacity="1" /><path clip-path="url(#clip570)" d="M170.301 1134.83 Q166.69 1134.83 164.861 1138.39 Q163.056 1141.93 163.056 1149.06 Q163.056 1156.17 164.861 1159.73 Q166.69 1163.27 170.301 1163.27 Q173.935 1163.27 175.741 1159.73 Q177.57 1156.17 177.57 1149.06 Q177.57 1141.93 175.741 1138.39 Q173.935 1134.83 170.301 1134.83 M170.301 1131.12 Q176.111 1131.12 179.167 1135.73 Q182.245 1140.31 182.245 1149.06 Q182.245 1157.79 179.167 1162.39 Q176.111 1166.98 170.301 1166.98 Q164.491 1166.98 161.412 1162.39 Q158.357 1157.79 158.357 1149.06 Q158.357 1140.31 161.412 1135.73 Q164.491 1131.12 170.301 1131.12 Z" fill="#000000" fill-rule="nonzero" fill-opacity="1" /><path clip-path="url(#clip570)" d="M100.788 902.014 L108.426 902.014 L108.426 875.648 L100.116 877.315 L100.116 873.055 L108.38 871.389 L113.056 871.389 L113.056 902.014 L120.695 902.014 L120.695 905.949 L100.788 905.949 L100.788 902.014 Z" fill="#000000" fill-rule="nonzero" fill-opacity="1" /><path clip-path="url(#clip570)" d="M140.139 874.468 Q136.528 874.468 134.699 878.032 Q132.894 881.574 132.894 888.704 Q132.894 895.81 134.699 899.375 Q136.528 902.916 140.139 902.916 Q143.773 902.916 145.579 899.375 Q147.408 895.81 147.408 888.704 Q147.408 881.574 145.579 878.032 Q143.773 874.468 140.139 874.468 M140.139 870.764 Q145.949 870.764 149.005 875.37 Q152.084 879.954 152.084 888.704 Q152.084 897.43 149.005 902.037 Q145.949 906.62 140.139 906.62 Q134.329 906.62 131.25 902.037 Q128.195 897.43 128.195 888.704 Q128.195 879.954 131.25 875.37 Q134.329 870.764 140.139 870.764 Z" fill="#000000" fill-rule="nonzero" fill-opacity="1" /><path clip-path="url(#clip570)" d="M170.301 874.468 Q166.69 874.468 164.861 878.032 Q163.056 881.574 163.056 888.704 Q163.056 895.81 164.861 899.375 Q166.69 902.916 170.301 902.916 Q173.935 902.916 175.741 899.375 Q177.57 895.81 177.57 888.704 Q177.57 881.574 175.741 878.032 Q173.935 874.468 170.301 874.468 M170.301 870.764 Q176.111 870.764 179.167 875.37 Q182.245 879.954 182.245 888.704 Q182.245 897.43 179.167 902.037 Q176.111 906.62 170.301 906.62 Q164.491 906.62 161.412 902.037 Q158.357 897.43 158.357 888.704 Q158.357 879.954 161.412 875.37 Q164.491 870.764 170.301 870.764 Z" fill="#000000" fill-rule="nonzero" fill-opacity="1" /><path clip-path="url(#clip570)" d="M100.788 641.656 L108.426 641.656 L108.426 615.29 L100.116 616.957 L100.116 612.698 L108.38 611.031 L113.056 611.031 L113.056 641.656 L120.695 641.656 L120.695 645.591 L100.788 645.591 L100.788 641.656 Z" fill="#000000" fill-rule="nonzero" fill-opacity="1" /><path clip-path="url(#clip570)" d="M130.186 611.031 L148.542 611.031 L148.542 614.966 L134.468 614.966 L134.468 623.438 Q135.486 623.091 136.505 622.929 Q137.523 622.744 138.542 622.744 Q144.329 622.744 147.709 625.915 Q151.088 629.086 151.088 634.503 Q151.088 640.082 147.616 643.184 Q144.144 646.262 137.824 646.262 Q135.648 646.262 133.38 645.892 Q131.135 645.521 128.727 644.781 L128.727 640.082 Q130.811 641.216 133.033 641.771 Q135.255 642.327 137.732 642.327 Q141.736 642.327 144.074 640.221 Q146.412 638.114 146.412 634.503 Q146.412 630.892 144.074 628.785 Q141.736 626.679 137.732 626.679 Q135.857 626.679 133.982 627.096 Q132.13 627.512 130.186 628.392 L130.186 611.031 Z" fill="#000000" fill-rule="nonzero" fill-opacity="1" /><path clip-path="url(#clip570)" d="M170.301 614.11 Q166.69 614.11 164.861 617.674 Q163.056 621.216 163.056 628.346 Q163.056 635.452 164.861 639.017 Q166.69 642.559 170.301 642.559 Q173.935 642.559 175.741 639.017 Q177.57 635.452 177.57 628.346 Q177.57 621.216 175.741 617.674 Q173.935 614.11 170.301 614.11 M170.301 610.406 Q176.111 610.406 179.167 615.012 Q182.245 619.596 182.245 628.346 Q182.245 637.072 179.167 641.679 Q176.111 646.262 170.301 646.262 Q164.491 646.262 161.412 641.679 Q158.357 637.072 158.357 628.346 Q158.357 619.596 161.412 615.012 Q164.491 610.406 170.301 610.406 Z" fill="#000000" fill-rule="nonzero" fill-opacity="1" /><path clip-path="url(#clip570)" d="M104.005 381.298 L120.324 381.298 L120.324 385.233 L98.3802 385.233 L98.3802 381.298 Q101.042 378.543 105.625 373.914 Q110.232 369.261 111.412 367.918 Q113.658 365.395 114.537 363.659 Q115.44 361.9 115.44 360.21 Q115.44 357.455 113.496 355.719 Q111.575 353.983 108.473 353.983 Q106.274 353.983 103.82 354.747 Q101.389 355.511 98.6116 357.062 L98.6116 352.34 Q101.436 351.205 103.889 350.627 Q106.343 350.048 108.38 350.048 Q113.75 350.048 116.945 352.733 Q120.139 355.418 120.139 359.909 Q120.139 362.039 119.329 363.96 Q118.542 365.858 116.436 368.451 Q115.857 369.122 112.755 372.34 Q109.653 375.534 104.005 381.298 Z" fill="#000000" fill-rule="nonzero" fill-opacity="1" /><path clip-path="url(#clip570)" d="M140.139 353.752 Q136.528 353.752 134.699 357.316 Q132.894 360.858 132.894 367.988 Q132.894 375.094 134.699 378.659 Q136.528 382.201 140.139 382.201 Q143.773 382.201 145.579 378.659 Q147.408 375.094 147.408 367.988 Q147.408 360.858 145.579 357.316 Q143.773 353.752 140.139 353.752 M140.139 350.048 Q145.949 350.048 149.005 354.654 Q152.084 359.238 152.084 367.988 Q152.084 376.715 149.005 381.321 Q145.949 385.904 140.139 385.904 Q134.329 385.904 131.25 381.321 Q128.195 376.715 128.195 367.988 Q128.195 359.238 131.25 354.654 Q134.329 350.048 140.139 350.048 Z" fill="#000000" fill-rule="nonzero" fill-opacity="1" /><path clip-path="url(#clip570)" d="M170.301 353.752 Q166.69 353.752 164.861 357.316 Q163.056 360.858 163.056 367.988 Q163.056 375.094 164.861 378.659 Q166.69 382.201 170.301 382.201 Q173.935 382.201 175.741 378.659 Q177.57 375.094 177.57 367.988 Q177.57 360.858 175.741 357.316 Q173.935 353.752 170.301 353.752 M170.301 350.048 Q176.111 350.048 179.167 354.654 Q182.245 359.238 182.245 367.988 Q182.245 376.715 179.167 381.321 Q176.111 385.904 170.301 385.904 Q164.491 385.904 161.412 381.321 Q158.357 376.715 158.357 367.988 Q158.357 359.238 161.412 354.654 Q164.491 350.048 170.301 350.048 Z" fill="#000000" fill-rule="nonzero" fill-opacity="1" /><path clip-path="url(#clip570)" d="M104.005 120.94 L120.324 120.94 L120.324 124.875 L98.3802 124.875 L98.3802 120.94 Q101.042 118.185 105.625 113.556 Q110.232 108.903 111.412 107.56 Q113.658 105.037 114.537 103.301 Q115.44 101.542 115.44 99.852 Q115.44 97.0974 113.496 95.3613 Q111.575 93.6252 108.473 93.6252 Q106.274 93.6252 103.82 94.3891 Q101.389 95.153 98.6116 96.7039 L98.6116 91.9817 Q101.436 90.8475 103.889 90.2688 Q106.343 89.6901 108.38 89.6901 Q113.75 89.6901 116.945 92.3752 Q120.139 95.0604 120.139 99.5511 Q120.139 101.681 119.329 103.602 Q118.542 105.5 116.436 108.093 Q115.857 108.764 112.755 111.982 Q109.653 115.176 104.005 120.94 Z" fill="#000000" fill-rule="nonzero" fill-opacity="1" /><path clip-path="url(#clip570)" d="M130.186 90.3151 L148.542 90.3151 L148.542 94.2502 L134.468 94.2502 L134.468 102.722 Q135.486 102.375 136.505 102.213 Q137.523 102.028 138.542 102.028 Q144.329 102.028 147.709 105.199 Q151.088 108.371 151.088 113.787 Q151.088 119.366 147.616 122.468 Q144.144 125.546 137.824 125.546 Q135.648 125.546 133.38 125.176 Q131.135 124.806 128.727 124.065 L128.727 119.366 Q130.811 120.5 133.033 121.056 Q135.255 121.611 137.732 121.611 Q141.736 121.611 144.074 119.505 Q146.412 117.398 146.412 113.787 Q146.412 110.176 144.074 108.07 Q141.736 105.963 137.732 105.963 Q135.857 105.963 133.982 106.38 Q132.13 106.796 130.186 107.676 L130.186 90.3151 Z" fill="#000000" fill-rule="nonzero" fill-opacity="1" /><path clip-path="url(#clip570)" d="M170.301 93.3937 Q166.69 93.3937 164.861 96.9585 Q163.056 100.5 163.056 107.63 Q163.056 114.736 164.861 118.301 Q166.69 121.843 170.301 121.843 Q173.935 121.843 175.741 118.301 Q177.57 114.736 177.57 107.63 Q177.57 100.5 175.741 96.9585 Q173.935 93.3937 170.301 93.3937 M170.301 89.6901 Q176.111 89.6901 179.167 94.2965 Q182.245 98.8798 182.245 107.63 Q182.245 116.357 179.167 120.963 Q176.111 125.546 170.301 125.546 Q164.491 125.546 161.412 120.963 Q158.357 116.357 158.357 107.63 Q158.357 98.8798 161.412 94.2965 Q164.491 89.6901 170.301 89.6901 Z" fill="#000000" fill-rule="nonzero" fill-opacity="1" /><path clip-path="url(#clip570)" d="M-6.11231 790.907 L11.7435 790.907 L11.7435 782.823 Q11.7435 778.335 9.42002 775.884 Q7.09654 773.433 2.79968 773.433 Q-1.46534 773.433 -3.78882 775.884 Q-6.11231 778.335 -6.11231 782.823 L-6.11231 790.907 M-11.3958 797.337 L-11.3958 782.823 Q-11.3958 774.834 -7.76739 770.76 Q-4.17077 766.654 2.79968 766.654 Q9.83379 766.654 13.4304 770.76 Q17.027 774.834 17.027 782.823 L17.027 790.907 L36.1242 790.907 L36.1242 797.337 L-11.3958 797.337 Z" fill="#000000" fill-rule="nonzero" fill-opacity="1" /><path clip-path="url(#clip570)" d="M-13.3374 744.215 Q-6.01682 748.48 1.1446 750.549 Q8.30602 752.617 15.6584 752.617 Q23.0108 752.617 30.2359 750.549 Q37.4291 748.448 44.7179 744.215 L44.7179 749.307 Q37.2382 754.082 30.0131 756.469 Q22.788 758.824 15.6584 758.824 Q8.56065 758.824 1.3674 756.469 Q-5.82585 754.113 -13.3374 749.307 L-13.3374 744.215 Z" fill="#000000" fill-rule="nonzero" fill-opacity="1" /><path clip-path="url(#clip570)" d="M-9.64527 727.059 L0.4762 727.059 L0.4762 714.996 L5.02768 714.996 L5.02768 727.059 L24.3794 727.059 Q28.7399 727.059 29.9813 725.882 Q31.2226 724.672 31.2226 721.012 L31.2226 714.996 L36.1242 714.996 L36.1242 721.012 Q36.1242 727.791 33.6097 730.369 Q31.0634 732.947 24.3794 732.947 L5.02768 732.947 L5.02768 737.244 L0.4762 737.244 L0.4762 732.947 L-9.64527 732.947 L-9.64527 727.059 Z" fill="#000000" fill-rule="nonzero" fill-opacity="1" /><path clip-path="url(#clip570)" d="M-13.3374 708.217 L-13.3374 703.124 Q-5.82585 698.35 1.3674 695.995 Q8.56065 693.607 15.6584 693.607 Q22.788 693.607 30.0131 695.995 Q37.2382 698.35 44.7179 703.124 L44.7179 708.217 Q37.4291 703.983 30.2359 701.915 Q23.0108 699.814 15.6584 699.814 Q8.30602 699.814 1.1446 701.915 Q-6.01682 703.983 -13.3374 708.217 Z" fill="#000000" fill-rule="nonzero" fill-opacity="1" /><polyline clip-path="url(#clip571)" style="stroke:#009af9; stroke-linecap:round; stroke-linejoin:round; stroke-width:8; stroke-opacity:1; fill:none" points="312.958,1404.18 313.604,940.74 313.609,503.339 313.854,86.7664 313.999,86.7664 317.901,91.9736 323.09,97.1807 323.098,102.388 327.288,107.595 327.318,112.802 329.948,118.009 331.858,123.217 334.074,128.424 336.92,133.631 343.031,138.838 344.645,144.045 344.708,149.252 345.787,154.459 355.894,159.667 357.529,164.874 359.324,170.081 359.34,175.288 360.587,180.495 361.302,185.702 361.39,190.91 361.689,196.117 365.09,201.324 366.209,206.531 366.579,211.738 367.055,216.945 368.127,222.153 368.824,227.36 369.843,232.567 371.702,237.774 376.768,242.981 380.935,248.188 382.45,253.395 383.581,258.603 383.664,263.81 391.814,269.017 393.341,274.224 393.825,279.431 394.593,284.638 394.827,289.846 395.78,295.053 396.601,300.26 398.536,305.467 405.315,310.674 409.297,315.881 410.484,321.089 414.675,326.296 416.986,331.503 417.588,336.71 417.719,341.917 425.915,347.124 426.865,352.332 428.916,357.539 428.932,362.746 430.767,367.953 440.366,373.16 441.276,378.367 442.526,383.574 443.458,388.782 453.732,393.989 454.806,399.196 457.791,404.403 458.711,409.61 459.196,414.817 459.644,420.025 460.254,425.232 460.539,430.439 462.129,435.646 462.847,440.853 463.74,446.06 464.59,451.268 466.281,456.475 471.259,461.682 473.815,466.889 478.315,472.096 478.751,477.303 479.414,482.51 480.739,487.718 480.932,492.925 485.513,498.132 489.825,503.339 490.447,508.546 491.958,513.753 496.52,518.961 504.176,524.168 507.114,529.375 510.154,534.582 513.619,539.789 515.441,544.996 519.094,550.204 520.242,555.411 521.397,560.618 523.084,565.825 525.695,571.032 526.816,576.239 528.324,581.446 529.386,586.654 531.113,591.861 532.016,597.068 538.514,602.275 538.53,607.482 543.854,612.689 545.341,617.897 548.258,623.104 548.748,628.311 550.761,633.518 551.407,638.725 551.66,643.932 552.836,649.14 553.756,654.347 556.654,659.554 559.925,664.761 559.926,669.968 565.449,675.175 569.273,680.382 575.073,685.59 575.317,690.797 579.939,696.004 580.898,701.211 582.342,706.418 587.734,711.625 588.444,716.833 592.403,722.04 594.101,727.247 601.607,732.454 610.765,737.661 611.968,742.868 615.417,748.076 620.948,753.283 625.493,758.49 626.465,763.697 628.184,768.904 632.965,774.111 650.734,779.318 651.002,784.526 659.939,789.733 663.468,794.94 673.218,800.147 674.868,805.354 677.931,810.561 679.922,815.769 684.177,820.976 689.925,826.183 700.815,831.39 702.306,836.597 702.665,841.804 706.543,847.012 708.84,852.219 709.293,857.426 711.959,862.633 714.422,867.84 716.533,873.047 721.204,878.255 723.775,883.462 738.987,888.669 740.031,893.876 751.916,899.083 761.506,904.29 767.59,909.497 769.757,914.705 770.487,919.912 775.887,925.119 777.424,930.326 780.339,935.533 781.379,940.74 791.462,945.948 800.223,951.155 815.074,956.362 818.632,961.569 824.561,966.776 835.019,971.983 860.262,977.191 862.188,982.398 863.333,987.605 869.571,992.812 876.998,998.019 888.114,1003.23 888.428,1008.43 900.183,1013.64 904.49,1018.85 918.569,1024.05 932.986,1029.26 934.238,1034.47 937.864,1039.68 939.802,1044.88 956.014,1050.09 960.235,1055.3 962.705,1060.51 963.036,1065.71 964.238,1070.92 972.587,1076.13 973.031,1081.33 983.592,1086.54 987.546,1091.75 987.61,1096.96 994.447,1102.16 995.478,1107.37 996.91,1112.58 1006.2,1117.78 1006.55,1122.99 1017.25,1128.2 1034.57,1133.41 1040.54,1138.61 1041.74,1143.82 1104.35,1149.03 1108.23,1154.23 1132.29,1159.44 1133.27,1164.65 1135.52,1169.86 1148.49,1175.06 1149.32,1180.27 1154.86,1185.48 1164.79,1190.68 1166.9,1195.89 1196.29,1201.1 1203.71,1206.31 1209.07,1211.51 1209.91,1216.72 1210.8,1221.93 1223.05,1227.13 1274.16,1232.34 1277.49,1237.55 1281.64,1242.76 1291,1247.96 1292.31,1253.17 1300.86,1258.38 1348.79,1263.58 1381.14,1268.79 1382.17,1274 1401.83,1279.21 1453.84,1284.41 1454.55,1289.62 1490.12,1294.83 1492.87,1300.03 1512.36,1305.24 1531.23,1310.45 1540.51,1315.66 1548.11,1320.86 1559.96,1326.07 1580.83,1331.28 1597.66,1336.48 1601.6,1341.69 1625.33,1346.9 1748.87,1352.11 1771.61,1357.31 1836.69,1362.52 1841,1367.73 1860.06,1372.93 1926.07,1378.14 1983.3,1383.35 2020.99,1388.56 2100.01,1393.76 2104.94,1398.97 2436.29,1404.18 3070.04,1404.18 "/>
</svg>
