<?xml version="1.0" encoding="utf-8"?>
<svg xmlns="http://www.w3.org/2000/svg" xmlns:xlink="http://www.w3.org/1999/xlink" width="800" height="400" viewBox="0 0 3200 1600">
<defs>
  <clipPath id="clip590">
    <rect x="0" y="0" width="3200" height="1600"/>
  </clipPath>
</defs>
<path clip-path="url(#clip590)" d="M0 1600 L3200 1600 L3200 0 L0 0  Z" fill="#ffffff" fill-rule="evenodd" fill-opacity="1"/>
<defs>
  <clipPath id="clip591">
    <rect x="640" y="0" width="2241" height="1600"/>
  </clipPath>
</defs>
<path clip-path="url(#clip590)" d="M194.274 1443.7 L3152.76 1443.7 L3152.76 47.2441 L194.274 47.2441  Z" fill="#ffffff" fill-rule="evenodd" fill-opacity="1"/>
<defs>
  <clipPath id="clip592">
    <rect x="194" y="47" width="2959" height="1397"/>
  </clipPath>
</defs>
<polyline clip-path="url(#clip592)" style="stroke:#000000; stroke-linecap:round; stroke-linejoin:round; stroke-width:2; stroke-opacity:0.1; fill:none" points="194.274,1443.7 194.274,47.2441 "/>
<polyline clip-path="url(#clip592)" style="stroke:#000000; stroke-linecap:round; stroke-linejoin:round; stroke-width:2; stroke-opacity:0.1; fill:none" points="785.97,1443.7 785.97,47.2441 "/>
<polyline clip-path="url(#clip592)" style="stroke:#000000; stroke-linecap:round; stroke-linejoin:round; stroke-width:2; stroke-opacity:0.1; fill:none" points="1377.67,1443.7 1377.67,47.2441 "/>
<polyline clip-path="url(#clip592)" style="stroke:#000000; stroke-linecap:round; stroke-linejoin:round; stroke-width:2; stroke-opacity:0.1; fill:none" points="1969.36,1443.7 1969.36,47.2441 "/>
<polyline clip-path="url(#clip592)" style="stroke:#000000; stroke-linecap:round; stroke-linejoin:round; stroke-width:2; stroke-opacity:0.1; fill:none" points="2561.06,1443.7 2561.06,47.2441 "/>
<polyline clip-path="url(#clip592)" style="stroke:#000000; stroke-linecap:round; stroke-linejoin:round; stroke-width:2; stroke-opacity:0.1; fill:none" points="3152.76,1443.7 3152.76,47.2441 "/>
<polyline clip-path="url(#clip592)" style="stroke:#000000; stroke-linecap:round; stroke-linejoin:round; stroke-width:2; stroke-opacity:0.1; fill:none" points="194.274,1443.7 194.274,47.2441 "/>
<polyline clip-path="url(#clip592)" style="stroke:#000000; stroke-linecap:round; stroke-linejoin:round; stroke-width:2; stroke-opacity:0.1; fill:none" points="785.97,1443.7 785.97,47.2441 "/>
<polyline clip-path="url(#clip592)" style="stroke:#000000; stroke-linecap:round; stroke-linejoin:round; stroke-width:2; stroke-opacity:0.1; fill:none" points="1377.67,1443.7 1377.67,47.2441 "/>
<polyline clip-path="url(#clip592)" style="stroke:#000000; stroke-linecap:round; stroke-linejoin:round; stroke-width:2; stroke-opacity:0.1; fill:none" points="1969.36,1443.7 1969.36,47.2441 "/>
<polyline clip-path="url(#clip592)" style="stroke:#000000; stroke-linecap:round; stroke-linejoin:round; stroke-width:2; stroke-opacity:0.1; fill:none" points="2561.06,1443.7 2561.06,47.2441 "/>
<polyline clip-path="url(#clip592)" style="stroke:#000000; stroke-linecap:round; stroke-linejoin:round; stroke-width:2; stroke-opacity:0.1; fill:none" points="3152.76,1443.7 3152.76,47.2441 "/>
<polyline clip-path="url(#clip590)" style="stroke:#000000; stroke-linecap:round; stroke-linejoin:round; stroke-width:4; stroke-opacity:1; fill:none" points="194.274,1443.7 3152.76,1443.7 "/>
<polyline clip-path="url(#clip590)" style="stroke:#000000; stroke-linecap:round; stroke-linejoin:round; stroke-width:4; stroke-opacity:1; fill:none" points="194.274,47.2441 3152.76,47.2441 "/>
<polyline clip-path="url(#clip590)" style="stroke:#000000; stroke-linecap:round; stroke-linejoin:round; stroke-width:4; stroke-opacity:1; fill:none" points="194.274,1443.7 194.274,1424.8 "/>
<polyline clip-path="url(#clip590)" style="stroke:#000000; stroke-linecap:round; stroke-linejoin:round; stroke-width:4; stroke-opacity:1; fill:none" points="785.97,1443.7 785.97,1424.8 "/>
<polyline clip-path="url(#clip590)" style="stroke:#000000; stroke-linecap:round; stroke-linejoin:round; stroke-width:4; stroke-opacity:1; fill:none" points="1377.67,1443.7 1377.67,1424.8 "/>
<polyline clip-path="url(#clip590)" style="stroke:#000000; stroke-linecap:round; stroke-linejoin:round; stroke-width:4; stroke-opacity:1; fill:none" points="1969.36,1443.7 1969.36,1424.8 "/>
<polyline clip-path="url(#clip590)" style="stroke:#000000; stroke-linecap:round; stroke-linejoin:round; stroke-width:4; stroke-opacity:1; fill:none" points="2561.06,1443.7 2561.06,1424.8 "/>
<polyline clip-path="url(#clip590)" style="stroke:#000000; stroke-linecap:round; stroke-linejoin:round; stroke-width:4; stroke-opacity:1; fill:none" points="3152.76,1443.7 3152.76,1424.8 "/>
<polyline clip-path="url(#clip590)" style="stroke:#000000; stroke-linecap:round; stroke-linejoin:round; stroke-width:4; stroke-opacity:1; fill:none" points="194.274,47.2441 194.274,66.1417 "/>
<polyline clip-path="url(#clip590)" style="stroke:#000000; stroke-linecap:round; stroke-linejoin:round; stroke-width:4; stroke-opacity:1; fill:none" points="785.97,47.2441 785.97,66.1417 "/>
<polyline clip-path="url(#clip590)" style="stroke:#000000; stroke-linecap:round; stroke-linejoin:round; stroke-width:4; stroke-opacity:1; fill:none" points="1377.67,47.2441 1377.67,66.1417 "/>
<polyline clip-path="url(#clip590)" style="stroke:#000000; stroke-linecap:round; stroke-linejoin:round; stroke-width:4; stroke-opacity:1; fill:none" points="1969.36,47.2441 1969.36,66.1417 "/>
<polyline clip-path="url(#clip590)" style="stroke:#000000; stroke-linecap:round; stroke-linejoin:round; stroke-width:4; stroke-opacity:1; fill:none" points="2561.06,47.2441 2561.06,66.1417 "/>
<polyline clip-path="url(#clip590)" style="stroke:#000000; stroke-linecap:round; stroke-linejoin:round; stroke-width:4; stroke-opacity:1; fill:none" points="3152.76,47.2441 3152.76,66.1417 "/>
<path clip-path="url(#clip590)" d="M194.274 1481.02 Q190.663 1481.02 188.834 1484.58 Q187.029 1488.12 187.029 1495.25 Q187.029 1502.36 188.834 1505.93 Q190.663 1509.47 194.274 1509.47 Q197.908 1509.47 199.714 1505.93 Q201.542 1502.36 201.542 1495.25 Q201.542 1488.12 199.714 1484.58 Q197.908 1481.02 194.274 1481.02 M194.274 1477.31 Q200.084 1477.31 203.14 1481.92 Q206.218 1486.5 206.218 1495.25 Q206.218 1503.98 203.14 1508.59 Q200.084 1513.17 194.274 1513.17 Q188.464 1513.17 185.385 1508.59 Q182.33 1503.98 182.33 1495.25 Q182.33 1486.5 185.385 1481.92 Q188.464 1477.31 194.274 1477.31 Z" fill="#000000" fill-rule="nonzero" fill-opacity="1" /><path clip-path="url(#clip590)" d="M780.623 1508.56 L796.943 1508.56 L796.943 1512.5 L774.998 1512.5 L774.998 1508.56 Q777.66 1505.81 782.244 1501.18 Q786.85 1496.53 788.031 1495.19 Q790.276 1492.66 791.156 1490.93 Q792.058 1489.17 792.058 1487.48 Q792.058 1484.72 790.114 1482.99 Q788.193 1481.25 785.091 1481.25 Q782.892 1481.25 780.438 1482.01 Q778.007 1482.78 775.23 1484.33 L775.23 1479.61 Q778.054 1478.47 780.507 1477.89 Q782.961 1477.31 784.998 1477.31 Q790.369 1477.31 793.563 1480 Q796.757 1482.69 796.757 1487.18 Q796.757 1489.31 795.947 1491.23 Q795.16 1493.12 793.054 1495.72 Q792.475 1496.39 789.373 1499.61 Q786.271 1502.8 780.623 1508.56 Z" fill="#000000" fill-rule="nonzero" fill-opacity="1" /><path clip-path="url(#clip590)" d="M1380.68 1482.01 L1368.87 1500.46 L1380.68 1500.46 L1380.68 1482.01 M1379.45 1477.94 L1385.33 1477.94 L1385.33 1500.46 L1390.26 1500.46 L1390.26 1504.35 L1385.33 1504.35 L1385.33 1512.5 L1380.68 1512.5 L1380.68 1504.35 L1365.07 1504.35 L1365.07 1499.84 L1379.45 1477.94 Z" fill="#000000" fill-rule="nonzero" fill-opacity="1" /><path clip-path="url(#clip590)" d="M1969.77 1493.36 Q1966.62 1493.36 1964.77 1495.51 Q1962.94 1497.66 1962.94 1501.41 Q1962.94 1505.14 1964.77 1507.31 Q1966.62 1509.47 1969.77 1509.47 Q1972.92 1509.47 1974.75 1507.31 Q1976.6 1505.14 1976.6 1501.41 Q1976.6 1497.66 1974.75 1495.51 Q1972.92 1493.36 1969.77 1493.36 M1979.05 1478.7 L1979.05 1482.96 Q1977.29 1482.13 1975.49 1481.69 Q1973.7 1481.25 1971.94 1481.25 Q1967.31 1481.25 1964.86 1484.37 Q1962.43 1487.5 1962.08 1493.82 Q1963.45 1491.81 1965.51 1490.74 Q1967.57 1489.65 1970.05 1489.65 Q1975.25 1489.65 1978.26 1492.82 Q1981.3 1495.97 1981.3 1501.41 Q1981.3 1506.74 1978.15 1509.95 Q1975 1513.17 1969.77 1513.17 Q1963.77 1513.17 1960.6 1508.59 Q1957.43 1503.98 1957.43 1495.25 Q1957.43 1487.06 1961.32 1482.2 Q1965.21 1477.31 1971.76 1477.31 Q1973.52 1477.31 1975.3 1477.66 Q1977.11 1478.01 1979.05 1478.7 Z" fill="#000000" fill-rule="nonzero" fill-opacity="1" /><path clip-path="url(#clip590)" d="M2561.06 1496.09 Q2557.73 1496.09 2555.8 1497.87 Q2553.91 1499.65 2553.91 1502.78 Q2553.91 1505.9 2555.8 1507.69 Q2557.73 1509.47 2561.06 1509.47 Q2564.39 1509.47 2566.31 1507.69 Q2568.24 1505.88 2568.24 1502.78 Q2568.24 1499.65 2566.31 1497.87 Q2564.42 1496.09 2561.06 1496.09 M2556.38 1494.1 Q2553.37 1493.36 2551.68 1491.3 Q2550.02 1489.24 2550.02 1486.27 Q2550.02 1482.13 2552.96 1479.72 Q2555.92 1477.31 2561.06 1477.31 Q2566.22 1477.31 2569.16 1479.72 Q2572.1 1482.13 2572.1 1486.27 Q2572.1 1489.24 2570.41 1491.3 Q2568.74 1493.36 2565.76 1494.1 Q2569.14 1494.88 2571.01 1497.18 Q2572.91 1499.47 2572.91 1502.78 Q2572.91 1507.8 2569.83 1510.49 Q2566.78 1513.17 2561.06 1513.17 Q2555.34 1513.17 2552.26 1510.49 Q2549.21 1507.8 2549.21 1502.78 Q2549.21 1499.47 2551.11 1497.18 Q2553 1494.88 2556.38 1494.1 M2554.67 1486.71 Q2554.67 1489.4 2556.34 1490.9 Q2558.03 1492.41 2561.06 1492.41 Q2564.07 1492.41 2565.76 1490.9 Q2567.47 1489.4 2567.47 1486.71 Q2567.47 1484.03 2565.76 1482.52 Q2564.07 1481.02 2561.06 1481.02 Q2558.03 1481.02 2556.34 1482.52 Q2554.67 1484.03 2554.67 1486.71 Z" fill="#000000" fill-rule="nonzero" fill-opacity="1" /><path clip-path="url(#clip590)" d="M3127.44 1508.56 L3135.08 1508.56 L3135.08 1482.2 L3126.77 1483.87 L3126.77 1479.61 L3135.04 1477.94 L3139.71 1477.94 L3139.71 1508.56 L3147.35 1508.56 L3147.35 1512.5 L3127.44 1512.5 L3127.44 1508.56 Z" fill="#000000" fill-rule="nonzero" fill-opacity="1" /><path clip-path="url(#clip590)" d="M3166.8 1481.02 Q3163.18 1481.02 3161.36 1484.58 Q3159.55 1488.12 3159.55 1495.25 Q3159.55 1502.36 3161.36 1505.93 Q3163.18 1509.47 3166.8 1509.47 Q3170.43 1509.47 3172.23 1505.93 Q3174.06 1502.36 3174.06 1495.25 Q3174.06 1488.12 3172.23 1484.58 Q3170.43 1481.02 3166.8 1481.02 M3166.8 1477.31 Q3172.61 1477.31 3175.66 1481.92 Q3178.74 1486.5 3178.74 1495.25 Q3178.74 1503.98 3175.66 1508.59 Q3172.61 1513.17 3166.8 1513.17 Q3160.99 1513.17 3157.91 1508.59 Q3154.85 1503.98 3154.85 1495.25 Q3154.85 1486.5 3157.91 1481.92 Q3160.99 1477.31 3166.8 1477.31 Z" fill="#000000" fill-rule="nonzero" fill-opacity="1" /><path clip-path="url(#clip590)" d="M1672.58 1554.79 L1672.58 1564.92 L1684.64 1564.92 L1684.64 1569.47 L1672.58 1569.47 L1672.58 1588.82 Q1672.58 1593.18 1673.75 1594.42 Q1674.96 1595.66 1678.62 1595.66 L1684.64 1595.66 L1684.64 1600.56 L1678.62 1600.56 Q1671.84 1600.56 1669.27 1598.05 Q1666.69 1595.5 1666.69 1588.82 L1666.69 1569.47 L1662.39 1569.47 L1662.39 1564.92 L1666.69 1564.92 L1666.69 1554.79 L1672.58 1554.79 Z" fill="#000000" fill-rule="nonzero" fill-opacity="1" /><polyline clip-path="url(#clip592)" style="stroke:#000000; stroke-linecap:round; stroke-linejoin:round; stroke-width:2; stroke-opacity:0.1; fill:none" points="194.274,1404.18 3152.76,1404.18 "/>
<polyline clip-path="url(#clip592)" style="stroke:#000000; stroke-linecap:round; stroke-linejoin:round; stroke-width:2; stroke-opacity:0.1; fill:none" points="194.274,1112.3 3152.76,1112.3 "/>
<polyline clip-path="url(#clip592)" style="stroke:#000000; stroke-linecap:round; stroke-linejoin:round; stroke-width:2; stroke-opacity:0.1; fill:none" points="194.274,820.428 3152.76,820.428 "/>
<polyline clip-path="url(#clip592)" style="stroke:#000000; stroke-linecap:round; stroke-linejoin:round; stroke-width:2; stroke-opacity:0.1; fill:none" points="194.274,528.553 3152.76,528.553 "/>
<polyline clip-path="url(#clip592)" style="stroke:#000000; stroke-linecap:round; stroke-linejoin:round; stroke-width:2; stroke-opacity:0.1; fill:none" points="194.274,236.679 3152.76,236.679 "/>
<polyline clip-path="url(#clip592)" style="stroke:#000000; stroke-linecap:round; stroke-linejoin:round; stroke-width:2; stroke-opacity:0.1; fill:none" points="194.274,1404.18 3152.76,1404.18 "/>
<polyline clip-path="url(#clip592)" style="stroke:#000000; stroke-linecap:round; stroke-linejoin:round; stroke-width:2; stroke-opacity:0.1; fill:none" points="194.274,1112.3 3152.76,1112.3 "/>
<polyline clip-path="url(#clip592)" style="stroke:#000000; stroke-linecap:round; stroke-linejoin:round; stroke-width:2; stroke-opacity:0.1; fill:none" points="194.274,820.428 3152.76,820.428 "/>
<polyline clip-path="url(#clip592)" style="stroke:#000000; stroke-linecap:round; stroke-linejoin:round; stroke-width:2; stroke-opacity:0.1; fill:none" points="194.274,528.553 3152.76,528.553 "/>
<polyline clip-path="url(#clip592)" style="stroke:#000000; stroke-linecap:round; stroke-linejoin:round; stroke-width:2; stroke-opacity:0.1; fill:none" points="194.274,236.679 3152.76,236.679 "/>
<polyline clip-path="url(#clip590)" style="stroke:#000000; stroke-linecap:round; stroke-linejoin:round; stroke-width:4; stroke-opacity:1; fill:none" points="194.274,1443.7 194.274,47.2441 "/>
<polyline clip-path="url(#clip590)" style="stroke:#000000; stroke-linecap:round; stroke-linejoin:round; stroke-width:4; stroke-opacity:1; fill:none" points="3152.76,1443.7 3152.76,47.2441 "/>
<polyline clip-path="url(#clip590)" style="stroke:#000000; stroke-linecap:round; stroke-linejoin:round; stroke-width:4; stroke-opacity:1; fill:none" points="194.274,1404.18 213.172,1404.18 "/>
<polyline clip-path="url(#clip590)" style="stroke:#000000; stroke-linecap:round; stroke-linejoin:round; stroke-width:4; stroke-opacity:1; fill:none" points="194.274,1112.3 213.172,1112.3 "/>
<polyline clip-path="url(#clip590)" style="stroke:#000000; stroke-linecap:round; stroke-linejoin:round; stroke-width:4; stroke-opacity:1; fill:none" points="194.274,820.428 213.172,820.428 "/>
<polyline clip-path="url(#clip590)" style="stroke:#000000; stroke-linecap:round; stroke-linejoin:round; stroke-width:4; stroke-opacity:1; fill:none" points="194.274,528.553 213.172,528.553 "/>
<polyline clip-path="url(#clip590)" style="stroke:#000000; stroke-linecap:round; stroke-linejoin:round; stroke-width:4; stroke-opacity:1; fill:none" points="194.274,236.679 213.172,236.679 "/>
<polyline clip-path="url(#clip590)" style="stroke:#000000; stroke-linecap:round; stroke-linejoin:round; stroke-width:4; stroke-opacity:1; fill:none" points="3152.76,1404.18 3133.86,1404.18 "/>
<polyline clip-path="url(#clip590)" style="stroke:#000000; stroke-linecap:round; stroke-linejoin:round; stroke-width:4; stroke-opacity:1; fill:none" points="3152.76,1112.3 3133.86,1112.3 "/>
<polyline clip-path="url(#clip590)" style="stroke:#000000; stroke-linecap:round; stroke-linejoin:round; stroke-width:4; stroke-opacity:1; fill:none" points="3152.76,820.428 3133.86,820.428 "/>
<polyline clip-path="url(#clip590)" style="stroke:#000000; stroke-linecap:round; stroke-linejoin:round; stroke-width:4; stroke-opacity:1; fill:none" points="3152.76,528.553 3133.86,528.553 "/>
<polyline clip-path="url(#clip590)" style="stroke:#000000; stroke-linecap:round; stroke-linejoin:round; stroke-width:4; stroke-opacity:1; fill:none" points="3152.76,236.679 3133.86,236.679 "/>
<path clip-path="url(#clip590)" d="M58.9365 1389.98 Q55.3254 1389.98 53.4967 1393.54 Q51.6912 1397.08 51.6912 1404.21 Q51.6912 1411.32 53.4967 1414.88 Q55.3254 1418.43 58.9365 1418.43 Q62.5707 1418.43 64.3763 1414.88 Q66.205 1411.32 66.205 1404.21 Q66.205 1397.08 64.3763 1393.54 Q62.5707 1389.98 58.9365 1389.98 M58.9365 1386.27 Q64.7467 1386.27 67.8022 1390.88 Q70.8809 1395.46 70.8809 1404.21 Q70.8809 1412.94 67.8022 1417.55 Q64.7467 1422.13 58.9365 1422.13 Q53.1264 1422.13 50.0477 1417.55 Q46.9921 1412.94 46.9921 1404.21 Q46.9921 1395.46 50.0477 1390.88 Q53.1264 1386.27 58.9365 1386.27 Z" fill="#000000" fill-rule="nonzero" fill-opacity="1" /><path clip-path="url(#clip590)" d="M79.0984 1415.58 L83.9827 1415.58 L83.9827 1421.46 L79.0984 1421.46 L79.0984 1415.58 Z" fill="#000000" fill-rule="nonzero" fill-opacity="1" /><path clip-path="url(#clip590)" d="M104.168 1389.98 Q100.557 1389.98 98.728 1393.54 Q96.9224 1397.08 96.9224 1404.21 Q96.9224 1411.32 98.728 1414.88 Q100.557 1418.43 104.168 1418.43 Q107.802 1418.43 109.608 1414.88 Q111.436 1411.32 111.436 1404.21 Q111.436 1397.08 109.608 1393.54 Q107.802 1389.98 104.168 1389.98 M104.168 1386.27 Q109.978 1386.27 113.033 1390.88 Q116.112 1395.46 116.112 1404.21 Q116.112 1412.94 113.033 1417.55 Q109.978 1422.13 104.168 1422.13 Q98.3576 1422.13 95.2789 1417.55 Q92.2234 1412.94 92.2234 1404.21 Q92.2234 1395.46 95.2789 1390.88 Q98.3576 1386.27 104.168 1386.27 Z" fill="#000000" fill-rule="nonzero" fill-opacity="1" /><path clip-path="url(#clip590)" d="M134.33 1389.98 Q130.719 1389.98 128.89 1393.54 Q127.084 1397.08 127.084 1404.21 Q127.084 1411.32 128.89 1414.88 Q130.719 1418.43 134.33 1418.43 Q137.964 1418.43 139.769 1414.88 Q141.598 1411.32 141.598 1404.21 Q141.598 1397.08 139.769 1393.54 Q137.964 1389.98 134.33 1389.98 M134.33 1386.27 Q140.14 1386.27 143.195 1390.88 Q146.274 1395.46 146.274 1404.21 Q146.274 1412.94 143.195 1417.55 Q140.14 1422.13 134.33 1422.13 Q128.519 1422.13 125.441 1417.55 Q122.385 1412.94 122.385 1404.21 Q122.385 1395.46 125.441 1390.88 Q128.519 1386.27 134.33 1386.27 Z" fill="#000000" fill-rule="nonzero" fill-opacity="1" /><path clip-path="url(#clip590)" d="M59.9319 1098.1 Q56.3208 1098.1 54.4921 1101.67 Q52.6865 1105.21 52.6865 1112.34 Q52.6865 1119.44 54.4921 1123.01 Q56.3208 1126.55 59.9319 1126.55 Q63.5661 1126.55 65.3717 1123.01 Q67.2004 1119.44 67.2004 1112.34 Q67.2004 1105.21 65.3717 1101.67 Q63.5661 1098.1 59.9319 1098.1 M59.9319 1094.4 Q65.742 1094.4 68.7976 1099 Q71.8763 1103.59 71.8763 1112.34 Q71.8763 1121.06 68.7976 1125.67 Q65.742 1130.25 59.9319 1130.25 Q54.1217 1130.25 51.043 1125.67 Q47.9875 1121.06 47.9875 1112.34 Q47.9875 1103.59 51.043 1099 Q54.1217 1094.4 59.9319 1094.4 Z" fill="#000000" fill-rule="nonzero" fill-opacity="1" /><path clip-path="url(#clip590)" d="M80.0938 1123.7 L84.978 1123.7 L84.978 1129.58 L80.0938 1129.58 L80.0938 1123.7 Z" fill="#000000" fill-rule="nonzero" fill-opacity="1" /><path clip-path="url(#clip590)" d="M99.1909 1125.65 L115.51 1125.65 L115.51 1129.58 L93.566 1129.58 L93.566 1125.65 Q96.228 1122.89 100.811 1118.26 Q105.418 1113.61 106.598 1112.27 Q108.844 1109.74 109.723 1108.01 Q110.626 1106.25 110.626 1104.56 Q110.626 1101.81 108.682 1100.07 Q106.76 1098.33 103.658 1098.33 Q101.459 1098.33 99.0057 1099.1 Q96.5752 1099.86 93.7974 1101.41 L93.7974 1096.69 Q96.6215 1095.56 99.0752 1094.98 Q101.529 1094.4 103.566 1094.4 Q108.936 1094.4 112.131 1097.08 Q115.325 1099.77 115.325 1104.26 Q115.325 1106.39 114.515 1108.31 Q113.728 1110.21 111.621 1112.8 Q111.043 1113.47 107.941 1116.69 Q104.839 1119.88 99.1909 1125.65 Z" fill="#000000" fill-rule="nonzero" fill-opacity="1" /><path clip-path="url(#clip590)" d="M125.371 1095.02 L143.728 1095.02 L143.728 1098.96 L129.654 1098.96 L129.654 1107.43 Q130.672 1107.08 131.691 1106.92 Q132.709 1106.74 133.728 1106.74 Q139.515 1106.74 142.894 1109.91 Q146.274 1113.08 146.274 1118.49 Q146.274 1124.07 142.802 1127.18 Q139.33 1130.25 133.01 1130.25 Q130.834 1130.25 128.566 1129.88 Q126.32 1129.51 123.913 1128.77 L123.913 1124.07 Q125.996 1125.21 128.219 1125.76 Q130.441 1126.32 132.918 1126.32 Q136.922 1126.32 139.26 1124.21 Q141.598 1122.11 141.598 1118.49 Q141.598 1114.88 139.26 1112.78 Q136.922 1110.67 132.918 1110.67 Q131.043 1110.67 129.168 1111.09 Q127.316 1111.5 125.371 1112.38 L125.371 1095.02 Z" fill="#000000" fill-rule="nonzero" fill-opacity="1" /><path clip-path="url(#clip590)" d="M58.9365 806.227 Q55.3254 806.227 53.4967 809.792 Q51.6912 813.333 51.6912 820.463 Q51.6912 827.569 53.4967 831.134 Q55.3254 834.676 58.9365 834.676 Q62.5707 834.676 64.3763 831.134 Q66.205 827.569 66.205 820.463 Q66.205 813.333 64.3763 809.792 Q62.5707 806.227 58.9365 806.227 M58.9365 802.523 Q64.7467 802.523 67.8022 807.13 Q70.8809 811.713 70.8809 820.463 Q70.8809 829.19 67.8022 833.796 Q64.7467 838.379 58.9365 838.379 Q53.1264 838.379 50.0477 833.796 Q46.9921 829.19 46.9921 820.463 Q46.9921 811.713 50.0477 807.13 Q53.1264 802.523 58.9365 802.523 Z" fill="#000000" fill-rule="nonzero" fill-opacity="1" /><path clip-path="url(#clip590)" d="M79.0984 831.828 L83.9827 831.828 L83.9827 837.708 L79.0984 837.708 L79.0984 831.828 Z" fill="#000000" fill-rule="nonzero" fill-opacity="1" /><path clip-path="url(#clip590)" d="M94.2141 803.148 L112.57 803.148 L112.57 807.083 L98.4965 807.083 L98.4965 815.555 Q99.515 815.208 100.534 815.046 Q101.552 814.861 102.571 814.861 Q108.358 814.861 111.737 818.032 Q115.117 821.204 115.117 826.62 Q115.117 832.199 111.645 835.301 Q108.172 838.379 101.853 838.379 Q99.677 838.379 97.4085 838.009 Q95.1632 837.639 92.7558 836.898 L92.7558 832.199 Q94.8391 833.333 97.0613 833.889 Q99.2835 834.444 101.76 834.444 Q105.765 834.444 108.103 832.338 Q110.441 830.231 110.441 826.62 Q110.441 823.009 108.103 820.903 Q105.765 818.796 101.76 818.796 Q99.8854 818.796 98.0104 819.213 Q96.1585 819.629 94.2141 820.509 L94.2141 803.148 Z" fill="#000000" fill-rule="nonzero" fill-opacity="1" /><path clip-path="url(#clip590)" d="M134.33 806.227 Q130.719 806.227 128.89 809.792 Q127.084 813.333 127.084 820.463 Q127.084 827.569 128.89 831.134 Q130.719 834.676 134.33 834.676 Q137.964 834.676 139.769 831.134 Q141.598 827.569 141.598 820.463 Q141.598 813.333 139.769 809.792 Q137.964 806.227 134.33 806.227 M134.33 802.523 Q140.14 802.523 143.195 807.13 Q146.274 811.713 146.274 820.463 Q146.274 829.19 143.195 833.796 Q140.14 838.379 134.33 838.379 Q128.519 838.379 125.441 833.796 Q122.385 829.19 122.385 820.463 Q122.385 811.713 125.441 807.13 Q128.519 802.523 134.33 802.523 Z" fill="#000000" fill-rule="nonzero" fill-opacity="1" /><path clip-path="url(#clip590)" d="M59.9319 514.352 Q56.3208 514.352 54.4921 517.917 Q52.6865 521.459 52.6865 528.588 Q52.6865 535.695 54.4921 539.259 Q56.3208 542.801 59.9319 542.801 Q63.5661 542.801 65.3717 539.259 Q67.2004 535.695 67.2004 528.588 Q67.2004 521.459 65.3717 517.917 Q63.5661 514.352 59.9319 514.352 M59.9319 510.648 Q65.742 510.648 68.7976 515.255 Q71.8763 519.838 71.8763 528.588 Q71.8763 537.315 68.7976 541.921 Q65.742 546.505 59.9319 546.505 Q54.1217 546.505 51.043 541.921 Q47.9875 537.315 47.9875 528.588 Q47.9875 519.838 51.043 515.255 Q54.1217 510.648 59.9319 510.648 Z" fill="#000000" fill-rule="nonzero" fill-opacity="1" /><path clip-path="url(#clip590)" d="M80.0938 539.954 L84.978 539.954 L84.978 545.833 L80.0938 545.833 L80.0938 539.954 Z" fill="#000000" fill-rule="nonzero" fill-opacity="1" /><path clip-path="url(#clip590)" d="M93.9826 511.273 L116.205 511.273 L116.205 513.264 L103.658 545.833 L98.7743 545.833 L110.58 515.209 L93.9826 515.209 L93.9826 511.273 Z" fill="#000000" fill-rule="nonzero" fill-opacity="1" /><path clip-path="url(#clip590)" d="M125.371 511.273 L143.728 511.273 L143.728 515.209 L129.654 515.209 L129.654 523.681 Q130.672 523.333 131.691 523.171 Q132.709 522.986 133.728 522.986 Q139.515 522.986 142.894 526.158 Q146.274 529.329 146.274 534.745 Q146.274 540.324 142.802 543.426 Q139.33 546.505 133.01 546.505 Q130.834 546.505 128.566 546.134 Q126.32 545.764 123.913 545.023 L123.913 540.324 Q125.996 541.458 128.219 542.014 Q130.441 542.57 132.918 542.57 Q136.922 542.57 139.26 540.463 Q141.598 538.357 141.598 534.745 Q141.598 531.134 139.26 529.028 Q136.922 526.921 132.918 526.921 Q131.043 526.921 129.168 527.338 Q127.316 527.755 125.371 528.634 L125.371 511.273 Z" fill="#000000" fill-rule="nonzero" fill-opacity="1" /><path clip-path="url(#clip590)" d="M49.7467 250.023 L57.3856 250.023 L57.3856 223.658 L49.0754 225.325 L49.0754 221.065 L57.3393 219.399 L62.0152 219.399 L62.0152 250.023 L69.654 250.023 L69.654 253.959 L49.7467 253.959 L49.7467 250.023 Z" fill="#000000" fill-rule="nonzero" fill-opacity="1" /><path clip-path="url(#clip590)" d="M79.0984 248.079 L83.9827 248.079 L83.9827 253.959 L79.0984 253.959 L79.0984 248.079 Z" fill="#000000" fill-rule="nonzero" fill-opacity="1" /><path clip-path="url(#clip590)" d="M104.168 222.477 Q100.557 222.477 98.728 226.042 Q96.9224 229.584 96.9224 236.713 Q96.9224 243.82 98.728 247.385 Q100.557 250.926 104.168 250.926 Q107.802 250.926 109.608 247.385 Q111.436 243.82 111.436 236.713 Q111.436 229.584 109.608 226.042 Q107.802 222.477 104.168 222.477 M104.168 218.774 Q109.978 218.774 113.033 223.38 Q116.112 227.963 116.112 236.713 Q116.112 245.44 113.033 250.047 Q109.978 254.63 104.168 254.63 Q98.3576 254.63 95.2789 250.047 Q92.2234 245.44 92.2234 236.713 Q92.2234 227.963 95.2789 223.38 Q98.3576 218.774 104.168 218.774 Z" fill="#000000" fill-rule="nonzero" fill-opacity="1" /><path clip-path="url(#clip590)" d="M134.33 222.477 Q130.719 222.477 128.89 226.042 Q127.084 229.584 127.084 236.713 Q127.084 243.82 128.89 247.385 Q130.719 250.926 134.33 250.926 Q137.964 250.926 139.769 247.385 Q141.598 243.82 141.598 236.713 Q141.598 229.584 139.769 226.042 Q137.964 222.477 134.33 222.477 M134.33 218.774 Q140.14 218.774 143.195 223.38 Q146.274 227.963 146.274 236.713 Q146.274 245.44 143.195 250.047 Q140.14 254.63 134.33 254.63 Q128.519 254.63 125.441 250.047 Q122.385 245.44 122.385 236.713 Q122.385 227.963 125.441 223.38 Q128.519 218.774 134.33 218.774 Z" fill="#000000" fill-rule="nonzero" fill-opacity="1" /><polyline clip-path="url(#clip592)" style="stroke:#009af9; stroke-linecap:round; stroke-linejoin:round; stroke-width:32; stroke-opacity:1; fill:none" points="194.274,1404.18 197.235,1404.15 200.197,1404.06 203.158,1403.92 206.12,1403.73 209.081,1403.48 212.043,1403.18 215.004,1402.83 217.966,1402.43 220.927,1401.98 223.888,1401.49 226.85,1400.95 229.811,1400.37 232.773,1399.74 235.734,1399.07 238.696,1398.36 241.657,1397.61 244.619,1396.82 247.58,1396 250.541,1395.13 253.503,1394.23 256.464,1393.3 259.426,1392.32 262.387,1391.32 265.349,1390.28 268.31,1389.21 271.272,1388.11 274.233,1386.97 277.194,1385.81 280.156,1384.62 283.117,1383.4 286.079,1382.15 289.04,1380.87 292.002,1379.56 294.963,1378.23 297.925,1376.88 300.886,1375.5 303.847,1374.09 306.809,1372.66 309.77,1371.21 312.732,1369.73 315.693,1368.24 318.655,1366.72 321.616,1365.18 324.578,1363.61 327.539,1362.03 330.5,1360.43 333.462,1358.81 336.423,1357.17 339.385,1355.51 342.346,1353.83 345.308,1352.14 348.269,1350.43 351.23,1348.7 354.192,1346.95 357.153,1345.19 360.115,1343.41 363.076,1341.62 366.038,1339.81 368.999,1337.99 371.961,1336.15 374.922,1334.3 377.883,1332.44 380.845,1330.56 383.806,1328.67 386.768,1326.77 389.729,1324.85 392.691,1322.92 395.652,1320.98 398.614,1319.03 401.575,1317.07 404.536,1315.1 407.498,1313.11 410.459,1311.12 413.421,1309.11 416.382,1307.1 419.344,1305.07 422.305,1303.04 425.267,1301 428.228,1298.94 431.189,1296.88 434.151,1294.81 437.112,1292.73 440.074,1290.65 443.035,1288.55 445.997,1286.45 448.958,1284.34 451.92,1282.22 454.881,1280.1 457.842,1277.97 460.804,1275.83 463.765,1273.69 466.727,1271.54 469.688,1269.38 472.65,1267.22 475.611,1265.05 478.573,1262.88 481.534,1260.7 484.495,1258.51 487.457,1256.32 490.418,1254.12 493.38,1251.92 496.341,1249.72 499.303,1247.51 502.264,1245.3 505.226,1243.08 508.187,1240.86 511.148,1238.63 514.11,1236.4 517.071,1234.17 520.033,1231.93 522.994,1229.69 525.956,1227.44 528.917,1225.19 531.879,1222.94 534.84,1220.69 537.801,1218.43 540.763,1216.17 543.724,1213.91 546.686,1211.65 549.647,1209.38 552.609,1207.11 555.57,1204.84 558.532,1202.57 561.493,1200.29 564.454,1198.01 567.416,1195.73 570.377,1193.45 573.339,1191.17 576.3,1188.89 579.262,1186.6 582.223,1184.31 585.185,1182.03 588.146,1179.74 591.107,1177.45 594.069,1175.16 597.03,1172.87 599.992,1170.57 602.953,1168.28 605.915,1165.99 608.876,1163.69 611.838,1161.4 614.799,1159.1 617.76,1156.8 620.722,1154.51 623.683,1152.21 626.645,1149.92 629.606,1147.62 632.568,1145.32 635.529,1143.03 638.491,1140.73 641.452,1138.44 644.413,1136.14 647.375,1133.84 650.336,1131.55 653.298,1129.26 656.259,1126.96 659.221,1124.67 662.182,1122.38 665.143,1120.09 668.105,1117.79 671.066,1115.5 674.028,1113.22 676.989,1110.93 679.951,1108.64 682.912,1106.35 685.874,1104.07 688.835,1101.79 691.796,1099.5 694.758,1097.22 697.719,1094.94 700.681,1092.66 703.642,1090.39 706.604,1088.11 709.565,1085.84 712.527,1083.57 715.488,1081.3 718.449,1079.03 721.411,1076.76 724.372,1074.49 727.334,1072.23 730.295,1069.97 733.257,1067.71 736.218,1065.45 739.18,1063.19 742.141,1060.94 745.102,1058.69 748.064,1056.44 751.025,1054.19 753.987,1051.94 756.948,1049.7 759.91,1047.46 762.871,1045.22 765.833,1042.98 768.794,1040.74 771.755,1038.51 774.717,1036.28 777.678,1034.05 780.64,1031.83 783.601,1029.6 786.563,1027.38 789.524,1025.17 792.486,1022.95 795.447,1020.74 798.408,1018.53 801.37,1016.32 804.331,1014.12 807.293,1011.91 810.254,1009.71 813.216,1007.52 816.177,1005.32 819.139,1003.13 822.1,1000.95 825.061,998.76 828.023,996.578 830.984,994.399 833.946,992.222 836.907,990.049 839.869,987.878 842.83,985.711 845.792,983.546 848.753,981.385 851.714,979.227 854.676,977.072 857.637,974.92 860.599,972.771 863.56,970.626 866.522,968.483 869.483,966.344 872.445,964.208 875.406,962.075 878.367,959.946 881.329,957.819 884.29,955.696 887.252,953.577 890.213,951.46 893.175,949.347 896.136,947.238 899.098,945.132 902.059,943.029 905.02,940.93 907.982,938.834 910.943,936.741 913.905,934.652 916.866,932.567 919.828,930.485 922.789,928.406 925.751,926.331 928.712,924.26 931.673,922.192 934.635,920.127 937.596,918.067 940.558,916.009 943.519,913.956 946.481,911.906 949.442,909.86 952.403,907.817 955.365,905.778 958.326,903.743 961.288,901.711 964.249,899.683 967.211,897.659 970.172,895.639 973.134,893.622 976.095,891.609 979.056,889.6 982.018,887.594 984.979,885.593 987.941,883.595 990.902,881.601 993.864,879.611 996.825,877.624 999.787,875.642 1002.75,873.663 1005.71,871.688 1008.67,869.717 1011.63,867.75 1014.59,865.787 1017.56,863.828 1020.52,861.873 1023.48,859.921 1026.44,857.973 1029.4,856.03 1032.36,854.09 1035.32,852.154 1038.29,850.223 1041.25,848.295 1044.21,846.371 1047.17,844.451 1050.13,842.535 1053.09,840.623 1056.05,838.715 1059.02,836.811 1061.98,834.911 1064.94,833.014 1067.9,831.122 1070.86,829.234 1073.82,827.35 1076.78,825.47 1079.75,823.594 1082.71,821.722 1085.67,819.854 1088.63,817.99 1091.59,816.13 1094.55,814.274 1097.51,812.422 1100.48,810.574 1103.44,808.73 1106.4,806.891 1109.36,805.055 1112.32,803.223 1115.28,801.396 1118.24,799.572 1121.21,797.753 1124.17,795.937 1127.13,794.126 1130.09,792.319 1133.05,790.516 1136.01,788.717 1138.97,786.922 1141.94,785.131 1144.9,783.344 1147.86,781.561 1150.82,779.783 1153.78,778.008 1156.74,776.238 1159.7,774.472 1162.67,772.71 1165.63,770.952 1168.59,769.198 1171.55,767.448 1174.51,765.702 1177.47,763.961 1180.43,762.223 1183.4,760.49 1186.36,758.761 1189.32,757.036 1192.28,755.315 1195.24,753.598 1198.2,751.886 1201.16,750.177 1204.13,748.473 1207.09,746.773 1210.05,745.077 1213.01,743.385 1215.97,741.697 1218.93,740.013 1221.89,738.334 1224.86,736.658 1227.82,734.987 1230.78,733.32 1233.74,731.657 1236.7,729.998 1239.66,728.344 1242.62,726.693 1245.59,725.047 1248.55,723.404 1251.51,721.766 1254.47,720.132 1257.43,718.502 1260.39,716.876 1263.36,715.255 1266.32,713.637 1269.28,712.024 1272.24,710.415 1275.2,708.809 1278.16,707.208 1281.12,705.611 1284.09,704.018 1287.05,702.43 1290.01,700.845 1292.97,699.264 1295.93,697.688 1298.89,696.115 1301.85,694.547 1304.82,692.983 1307.78,691.423 1310.74,689.867 1313.7,688.315 1316.66,686.767 1319.62,685.223 1322.58,683.683 1325.55,682.147 1328.51,680.616 1331.47,679.088 1334.43,677.565 1337.39,676.045 1340.35,674.53 1343.31,673.018 1346.28,671.511 1349.24,670.008 1352.2,668.509 1355.16,667.013 1358.12,665.522 1361.08,664.035 1364.04,662.552 1367.01,661.073 1369.97,659.598 1372.93,658.127 1375.89,656.66 1378.85,655.197 1381.81,653.738 1384.77,652.283 1387.74,650.832 1390.7,649.385 1393.66,647.942 1396.62,646.503 1399.58,645.068 1402.54,643.637 1405.5,642.21 1408.47,640.787 1411.43,639.368 1414.39,637.953 1417.35,636.542 1420.31,635.135 1423.27,633.732 1426.23,632.332 1429.2,630.937 1432.16,629.546 1435.12,628.158 1438.08,626.775 1441.04,625.396 1444,624.02 1446.96,622.649 1449.93,621.281 1452.89,619.917 1455.85,618.557 1458.81,617.202 1461.77,615.85 1464.73,614.502 1467.69,613.157 1470.66,611.817 1473.62,610.481 1476.58,609.148 1479.54,607.82 1482.5,606.495 1485.46,605.174 1488.42,603.857 1491.39,602.544 1494.35,601.235 1497.31,599.929 1500.27,598.628 1503.23,597.33 1506.19,596.036 1509.15,594.745 1512.12,593.459 1515.08,592.177 1518.04,590.898 1521,589.623 1523.96,588.352 1526.92,587.084 1529.88,585.82 1532.85,584.56 1535.81,583.304 1538.77,582.052 1541.73,580.803 1544.69,579.558 1547.65,578.317 1550.62,577.08 1553.58,575.846 1556.54,574.616 1559.5,573.39 1562.46,572.167 1565.42,570.948 1568.38,569.733 1571.35,568.521 1574.31,567.313 1577.27,566.109 1580.23,564.909 1583.19,563.712 1586.15,562.518 1589.11,561.329 1592.08,560.143 1595.04,558.96 1598,557.782 1600.96,556.607 1603.92,555.435 1606.88,554.267 1609.84,553.103 1612.81,551.942 1615.77,550.785 1618.73,549.632 1621.69,548.482 1624.65,547.336 1627.61,546.193 1630.57,545.054 1633.54,543.918 1636.5,542.786 1639.46,541.657 1642.42,540.532 1645.38,539.411 1648.34,538.293 1651.3,537.178 1654.27,536.067 1657.23,534.96 1660.19,533.856 1663.15,532.755 1666.11,531.658 1669.07,530.565 1672.03,529.475 1675,528.388 1677.96,527.305 1680.92,526.225 1683.88,525.149 1686.84,524.076 1689.8,523.007 1692.76,521.941 1695.73,520.879 1698.69,519.82 1701.65,518.764 1704.61,517.712 1707.57,516.663 1710.53,515.617 1713.49,514.575 1716.46,513.537 1719.42,512.501 1722.38,511.469 1725.34,510.441 1728.3,509.416 1731.26,508.394 1734.22,507.375 1737.19,506.36 1740.15,505.348 1743.11,504.339 1746.07,503.334 1749.03,502.332 1751.99,501.333 1754.95,500.338 1757.92,499.346 1760.88,498.357 1763.84,497.371 1766.8,496.389 1769.76,495.409 1772.72,494.433 1775.68,493.461 1778.65,492.491 1781.61,491.525 1784.57,490.562 1787.53,489.602 1790.49,488.645 1793.45,487.691 1796.41,486.741 1799.38,485.794 1802.34,484.849 1805.3,483.908 1808.26,482.971 1811.22,482.036 1814.18,481.104 1817.14,480.176 1820.11,479.25 1823.07,478.328 1826.03,477.409 1828.99,476.493 1831.95,475.58 1834.91,474.67 1837.88,473.763 1840.84,472.859 1843.8,471.958 1846.76,471.06 1849.72,470.165 1852.68,469.274 1855.64,468.385 1858.61,467.499 1861.57,466.616 1864.53,465.737 1867.49,464.86 1870.45,463.986 1873.41,463.115 1876.37,462.248 1879.34,461.383 1882.3,460.521 1885.26,459.662 1888.22,458.806 1891.18,457.953 1894.14,457.102 1897.1,456.255 1900.07,455.411 1903.03,454.569 1905.99,453.731 1908.95,452.895 1911.91,452.062 1914.87,451.232 1917.83,450.405 1920.8,449.581 1923.76,448.759 1926.72,447.941 1929.68,447.125 1932.64,446.312 1935.6,445.502 1938.56,444.695 1941.53,443.891 1944.49,443.089 1947.45,442.29 1950.41,441.494 1953.37,440.701 1956.33,439.91 1959.29,439.123 1962.26,438.338 1965.22,437.556 1968.18,436.776 1971.14,435.999 1974.1,435.226 1977.06,434.454 1980.02,433.686 1982.99,432.92 1985.95,432.157 1988.91,431.397 1991.87,430.639 1994.83,429.884 1997.79,429.132 2000.75,428.382 2003.72,427.635 2006.68,426.891 2009.64,426.149 2012.6,425.41 2015.56,424.673 2018.52,423.94 2021.48,423.209 2024.45,422.48 2027.41,421.754 2030.37,421.031 2033.33,420.31 2036.29,419.591 2039.25,418.876 2042.21,418.163 2045.18,417.452 2048.14,416.744 2051.1,416.039 2054.06,415.336 2057.02,414.635 2059.98,413.937 2062.94,413.242 2065.91,412.549 2068.87,411.859 2071.83,411.171 2074.79,410.485 2077.75,409.802 2080.71,409.122 2083.67,408.443 2086.64,407.768 2089.6,407.095 2092.56,406.424 2095.52,405.755 2098.48,405.089 2101.44,404.426 2104.4,403.765 2107.37,403.106 2110.33,402.45 2113.29,401.796 2116.25,401.144 2119.21,400.495 2122.17,399.848 2125.14,399.203 2128.1,398.561 2131.06,397.921 2134.02,397.284 2136.98,396.648 2139.94,396.016 2142.9,395.385 2145.87,394.757 2148.83,394.131 2151.79,393.507 2154.75,392.886 2157.71,392.266 2160.67,391.65 2163.63,391.035 2166.6,390.423 2169.56,389.812 2172.52,389.205 2175.48,388.599 2178.44,387.996 2181.4,387.394 2184.36,386.795 2187.33,386.199 2190.29,385.604 2193.25,385.012 2196.21,384.421 2199.17,383.833 2202.13,383.248 2205.09,382.664 2208.06,382.082 2211.02,381.503 2213.98,380.926 2216.94,380.351 2219.9,379.778 2222.86,379.207 2225.82,378.638 2228.79,378.072 2231.75,377.507 2234.71,376.945 2237.67,376.385 2240.63,375.827 2243.59,375.271 2246.55,374.717 2249.52,374.165 2252.48,373.615 2255.44,373.067 2258.4,372.521 2261.36,371.978 2264.32,371.436 2267.28,370.896 2270.25,370.359 2273.21,369.823 2276.17,369.29 2279.13,368.758 2282.09,368.229 2285.05,367.701 2288.01,367.176 2290.98,366.652 2293.94,366.131 2296.9,365.611 2299.86,365.094 2302.82,364.578 2305.78,364.065 2308.74,363.553 2311.71,363.043 2314.67,362.535 2317.63,362.029 2320.59,361.525 2323.55,361.023 2326.51,360.523 2329.47,360.024 2332.44,359.528 2335.4,359.033 2338.36,358.541 2341.32,358.05 2344.28,357.561 2347.24,357.074 2350.2,356.589 2353.17,356.105 2356.13,355.624 2359.09,355.144 2362.05,354.666 2365.01,354.19 2367.97,353.716 2370.93,353.244 2373.9,352.773 2376.86,352.304 2379.82,351.837 2382.78,351.372 2385.74,350.908 2388.7,350.447 2391.66,349.987 2394.63,349.528 2397.59,349.072 2400.55,348.617 2403.51,348.164 2406.47,347.713 2409.43,347.264 2412.4,346.816 2415.36,346.37 2418.32,345.925 2421.28,345.483 2424.24,345.042 2427.2,344.603 2430.16,344.165 2433.13,343.729 2436.09,343.295 2439.05,342.862 2442.01,342.432 2444.97,342.002 2447.93,341.575 2450.89,341.149 2453.86,340.725 2456.82,340.302 2459.78,339.881 2462.74,339.462 2465.7,339.044 2468.66,338.628 2471.62,338.213 2474.59,337.8 2477.55,337.389 2480.51,336.979 2483.47,336.571 2486.43,336.164 2489.39,335.759 2492.35,335.356 2495.32,334.954 2498.28,334.554 2501.24,334.155 2504.2,333.758 2507.16,333.362 2510.12,332.968 2513.08,332.576 2516.05,332.184 2519.01,331.795 2521.97,331.407 2524.93,331.02 2527.89,330.635 2530.85,330.252 2533.81,329.87 2536.78,329.489 2539.74,329.11 2542.7,328.733 2545.66,328.357 2548.62,327.982 2551.58,327.609 2554.54,327.238 2557.51,326.867 2560.47,326.499 2563.43,326.131 2566.39,325.765 2569.35,325.401 2572.31,325.038 2575.27,324.677 2578.24,324.316 2581.2,323.958 2584.16,323.601 2587.12,323.245 2590.08,322.89 2593.04,322.537 2596,322.185 2598.97,321.835 2601.93,321.486 2604.89,321.139 2607.85,320.793 2610.81,320.448 2613.77,320.104 2616.73,319.762 2619.7,319.422 2622.66,319.082 2625.62,318.744 2628.58,318.408 2631.54,318.072 2634.5,317.738 2637.46,317.405 2640.43,317.074 2643.39,316.744 2646.35,316.415 2649.31,316.088 2652.27,315.762 2655.23,315.437 2658.19,315.113 2661.16,314.791 2664.12,314.47 2667.08,314.15 2670.04,313.831 2673,313.514 2675.96,313.198 2678.92,312.883 2681.89,312.57 2684.85,312.258 2687.81,311.947 2690.77,311.637 2693.73,311.328 2696.69,311.021 2699.66,310.715 2702.62,310.41 2705.58,310.106 2708.54,309.804 2711.5,309.503 2714.46,309.203 2717.42,308.904 2720.39,308.606 2723.35,308.31 2726.31,308.014 2729.27,307.72 2732.23,307.427 2735.19,307.135 2738.15,306.845 2741.12,306.555 2744.08,306.267 2747.04,305.98 2750,305.694 2752.96,305.409 2755.92,305.125 2758.88,304.843 2761.85,304.561 2764.81,304.281 2767.77,304.002 2770.73,303.723 2773.69,303.446 2776.65,303.171 2779.61,302.896 2782.58,302.622 2785.54,302.349 2788.5,302.078 2791.46,301.808 2794.42,301.538 2797.38,301.27 2800.34,301.003 2803.31,300.737 2806.27,300.472 2809.23,300.208 2812.19,299.945 2815.15,299.683 2818.11,299.422 2821.07,299.162 2824.04,298.904 2827,298.646 2829.96,298.389 2832.92,298.134 2835.88,297.879 2838.84,297.625 2841.8,297.373 2844.77,297.121 2847.73,296.871 2850.69,296.621 2853.65,296.373 2856.61,296.125 2859.57,295.879 2862.53,295.633 2865.5,295.389 2868.46,295.145 2871.42,294.903 2874.38,294.661 2877.34,294.421 2880.3,294.181 2883.26,293.943 2886.23,293.705 2889.19,293.468 2892.15,293.233 2895.11,292.998 2898.07,292.764 2901.03,292.531 2903.99,292.299 2906.96,292.068 2909.92,291.838 2912.88,291.609 2915.84,291.381 2918.8,291.154 2921.76,290.927 2924.72,290.702 2927.69,290.477 2930.65,290.254 2933.61,290.031 2936.57,289.809 2939.53,289.588 2942.49,289.368 2945.45,289.149 2948.42,288.931 2951.38,288.714 2954.34,288.497 2957.3,288.282 2960.26,288.067 2963.22,287.853 2966.18,287.64 2969.15,287.428 2972.11,287.217 2975.07,287.007 2978.03,286.797 2980.99,286.589 2983.95,286.381 2986.92,286.174 2989.88,285.968 2992.84,285.763 2995.8,285.558 2998.76,285.355 3001.72,285.152 3004.68,284.95 3007.65,284.749 3010.61,284.548 3013.57,284.349 3016.53,284.15 3019.49,283.952 3022.45,283.755 3025.41,283.559 3028.38,283.364 3031.34,283.169 3034.3,282.975 3037.26,282.782 3040.22,282.59 3043.18,282.398 3046.14,282.208 3049.11,282.018 3052.07,281.829 3055.03,281.64 3057.99,281.453 3060.95,281.266 3063.91,281.08 3066.87,280.894 3069.84,280.71 3072.8,280.526 3075.76,280.343 3078.72,280.161 3081.68,279.979 3084.64,279.798 3087.6,279.618 3090.57,279.439 3093.53,279.26 3096.49,279.082 3099.45,278.905 3102.41,278.729 3105.37,278.553 3108.33,278.378 3111.3,278.204 3114.26,278.03 3117.22,277.858 3120.18,277.685 3123.14,277.514 3126.1,277.343 3129.06,277.173 3132.03,277.004 3134.99,276.835 3137.95,276.668 3140.91,276.5 3143.87,276.334 3146.83,276.168 3149.79,276.003 3152.76,275.838 "/>
<circle clip-path="url(#clip592)" cx="490.122" cy="1234.55" r="21.6" fill="#0000ff" fill-rule="evenodd" fill-opacity="1" stroke="#000000" stroke-opacity="1" stroke-width="3.2"/>
<circle clip-path="url(#clip592)" cx="785.97" cy="1016.82" r="21.6" fill="#0000ff" fill-rule="evenodd" fill-opacity="1" stroke="#000000" stroke-opacity="1" stroke-width="3.2"/>
<circle clip-path="url(#clip592)" cx="1081.82" cy="897.551" r="21.6" fill="#0000ff" fill-rule="evenodd" fill-opacity="1" stroke="#000000" stroke-opacity="1" stroke-width="3.2"/>
<circle clip-path="url(#clip592)" cx="1377.67" cy="771.054" r="21.6" fill="#0000ff" fill-rule="evenodd" fill-opacity="1" stroke="#000000" stroke-opacity="1" stroke-width="3.2"/>
<circle clip-path="url(#clip592)" cx="1673.51" cy="428.663" r="21.6" fill="#0000ff" fill-rule="evenodd" fill-opacity="1" stroke="#000000" stroke-opacity="1" stroke-width="3.2"/>
<circle clip-path="url(#clip592)" cx="1969.36" cy="284.497" r="21.6" fill="#0000ff" fill-rule="evenodd" fill-opacity="1" stroke="#000000" stroke-opacity="1" stroke-width="3.2"/>
<circle clip-path="url(#clip592)" cx="2265.21" cy="391.099" r="21.6" fill="#0000ff" fill-rule="evenodd" fill-opacity="1" stroke="#000000" stroke-opacity="1" stroke-width="3.2"/>
<circle clip-path="url(#clip592)" cx="2561.06" cy="452.792" r="21.6" fill="#0000ff" fill-rule="evenodd" fill-opacity="1" stroke="#000000" stroke-opacity="1" stroke-width="3.2"/>
<circle clip-path="url(#clip592)" cx="2856.91" cy="390.694" r="21.6" fill="#0000ff" fill-rule="evenodd" fill-opacity="1" stroke="#000000" stroke-opacity="1" stroke-width="3.2"/>
<circle clip-path="url(#clip592)" cx="3152.76" cy="86.7664" r="21.6" fill="#0000ff" fill-rule="evenodd" fill-opacity="1" stroke="#000000" stroke-opacity="1" stroke-width="3.2"/>
<path clip-path="url(#clip590)" d="M292.89 249.313 L931.931 249.313 L931.931 93.7926 L292.89 93.7926  Z" fill="#ffffff" fill-rule="evenodd" fill-opacity="1"/>
<polyline clip-path="url(#clip590)" style="stroke:#000000; stroke-linecap:round; stroke-linejoin:round; stroke-width:4; stroke-opacity:1; fill:none" points="292.89,249.313 931.931,249.313 931.931,93.7926 292.89,93.7926 292.89,249.313 "/>
<polyline clip-path="url(#clip590)" style="stroke:#009af9; stroke-linecap:round; stroke-linejoin:round; stroke-width:20; stroke-opacity:1; fill:none" points="325.762,145.633 522.994,145.633 "/>
<path clip-path="url(#clip590)" d="M555.866 128.353 L585.102 128.353 L585.102 132.288 L572.834 132.288 L572.834 162.913 L568.135 162.913 L568.135 132.288 L555.866 132.288 L555.866 128.353 Z" fill="#000000" fill-rule="nonzero" fill-opacity="1" /><path clip-path="url(#clip590)" d="M597.486 140.968 Q596.769 140.552 595.912 140.366 Q595.079 140.158 594.06 140.158 Q590.449 140.158 588.505 142.519 Q586.584 144.857 586.584 149.255 L586.584 162.913 L582.301 162.913 L582.301 136.987 L586.584 136.987 L586.584 141.015 Q587.926 138.653 590.079 137.519 Q592.232 136.362 595.31 136.362 Q595.75 136.362 596.283 136.431 Q596.815 136.478 597.463 136.593 L597.486 140.968 Z" fill="#000000" fill-rule="nonzero" fill-opacity="1" /><path clip-path="url(#clip590)" d="M601.514 152.681 L601.514 136.987 L605.773 136.987 L605.773 152.519 Q605.773 156.2 607.209 158.052 Q608.644 159.88 611.514 159.88 Q614.963 159.88 616.954 157.681 Q618.968 155.482 618.968 151.686 L618.968 136.987 L623.227 136.987 L623.227 162.913 L618.968 162.913 L618.968 158.931 Q617.417 161.292 615.357 162.45 Q613.32 163.584 610.611 163.584 Q606.144 163.584 603.829 160.806 Q601.514 158.028 601.514 152.681 M612.232 136.362 L612.232 136.362 Z" fill="#000000" fill-rule="nonzero" fill-opacity="1" /><path clip-path="url(#clip590)" d="M654.176 148.885 L654.176 150.968 L634.593 150.968 Q634.87 155.366 637.232 157.681 Q639.616 159.973 643.852 159.973 Q646.306 159.973 648.597 159.371 Q650.912 158.769 653.181 157.565 L653.181 161.593 Q650.889 162.565 648.481 163.075 Q646.074 163.584 643.597 163.584 Q637.394 163.584 633.759 159.973 Q630.148 156.362 630.148 150.204 Q630.148 143.839 633.574 140.112 Q637.023 136.362 642.857 136.362 Q648.088 136.362 651.12 139.741 Q654.176 143.098 654.176 148.885 M649.917 147.635 Q649.87 144.14 647.949 142.056 Q646.051 139.973 642.903 139.973 Q639.338 139.973 637.185 141.987 Q635.056 144.001 634.732 147.658 L649.917 147.635 Z" fill="#000000" fill-rule="nonzero" fill-opacity="1" /><path clip-path="url(#clip590)" d="M692.764 137.751 L692.764 141.778 Q690.958 140.853 689.014 140.39 Q687.069 139.927 684.986 139.927 Q681.815 139.927 680.217 140.899 Q678.643 141.871 678.643 143.815 Q678.643 145.297 679.778 146.153 Q680.912 146.987 684.338 147.751 L685.796 148.075 Q690.333 149.047 692.231 150.829 Q694.153 152.589 694.153 155.76 Q694.153 159.371 691.282 161.477 Q688.435 163.584 683.435 163.584 Q681.352 163.584 679.083 163.167 Q676.838 162.774 674.338 161.964 L674.338 157.565 Q676.699 158.792 678.991 159.417 Q681.282 160.019 683.528 160.019 Q686.537 160.019 688.157 159.001 Q689.778 157.959 689.778 156.084 Q689.778 154.348 688.597 153.422 Q687.44 152.496 683.481 151.64 L682 151.292 Q678.042 150.459 676.282 148.746 Q674.523 147.01 674.523 144.001 Q674.523 140.343 677.116 138.353 Q679.708 136.362 684.477 136.362 Q686.838 136.362 688.921 136.709 Q691.004 137.056 692.764 137.751 Z" fill="#000000" fill-rule="nonzero" fill-opacity="1" /><path clip-path="url(#clip590)" d="M710.981 139.973 Q707.555 139.973 705.565 142.658 Q703.574 145.32 703.574 149.973 Q703.574 154.626 705.541 157.311 Q707.532 159.973 710.981 159.973 Q714.384 159.973 716.375 157.288 Q718.365 154.602 718.365 149.973 Q718.365 145.366 716.375 142.681 Q714.384 139.973 710.981 139.973 M710.981 136.362 Q716.537 136.362 719.708 139.973 Q722.879 143.584 722.879 149.973 Q722.879 156.339 719.708 159.973 Q716.537 163.584 710.981 163.584 Q705.402 163.584 702.231 159.973 Q699.083 156.339 699.083 149.973 Q699.083 143.584 702.231 139.973 Q705.402 136.362 710.981 136.362 Z" fill="#000000" fill-rule="nonzero" fill-opacity="1" /><path clip-path="url(#clip590)" d="M729.939 126.894 L734.199 126.894 L734.199 162.913 L729.939 162.913 L729.939 126.894 Z" fill="#000000" fill-rule="nonzero" fill-opacity="1" /><path clip-path="url(#clip590)" d="M742.671 152.681 L742.671 136.987 L746.93 136.987 L746.93 152.519 Q746.93 156.2 748.365 158.052 Q749.8 159.88 752.671 159.88 Q756.12 159.88 758.111 157.681 Q760.124 155.482 760.124 151.686 L760.124 136.987 L764.384 136.987 L764.384 162.913 L760.124 162.913 L760.124 158.931 Q758.573 161.292 756.513 162.45 Q754.476 163.584 751.768 163.584 Q747.3 163.584 744.986 160.806 Q742.671 158.028 742.671 152.681 M753.388 136.362 L753.388 136.362 Z" fill="#000000" fill-rule="nonzero" fill-opacity="1" /><path clip-path="url(#clip590)" d="M777.37 129.626 L777.37 136.987 L786.143 136.987 L786.143 140.297 L777.37 140.297 L777.37 154.371 Q777.37 157.542 778.226 158.445 Q779.106 159.348 781.768 159.348 L786.143 159.348 L786.143 162.913 L781.768 162.913 Q776.837 162.913 774.962 161.084 Q773.087 159.232 773.087 154.371 L773.087 140.297 L769.962 140.297 L769.962 136.987 L773.087 136.987 L773.087 129.626 L777.37 129.626 Z" fill="#000000" fill-rule="nonzero" fill-opacity="1" /><path clip-path="url(#clip590)" d="M791.745 136.987 L796.004 136.987 L796.004 162.913 L791.745 162.913 L791.745 136.987 M791.745 126.894 L796.004 126.894 L796.004 132.288 L791.745 132.288 L791.745 126.894 Z" fill="#000000" fill-rule="nonzero" fill-opacity="1" /><path clip-path="url(#clip590)" d="M814.962 139.973 Q811.536 139.973 809.545 142.658 Q807.555 145.32 807.555 149.973 Q807.555 154.626 809.522 157.311 Q811.513 159.973 814.962 159.973 Q818.365 159.973 820.356 157.288 Q822.346 154.602 822.346 149.973 Q822.346 145.366 820.356 142.681 Q818.365 139.973 814.962 139.973 M814.962 136.362 Q820.518 136.362 823.689 139.973 Q826.86 143.584 826.86 149.973 Q826.86 156.339 823.689 159.973 Q820.518 163.584 814.962 163.584 Q809.383 163.584 806.212 159.973 Q803.064 156.339 803.064 149.973 Q803.064 143.584 806.212 139.973 Q809.383 136.362 814.962 136.362 Z" fill="#000000" fill-rule="nonzero" fill-opacity="1" /><path clip-path="url(#clip590)" d="M855.471 147.265 L855.471 162.913 L851.212 162.913 L851.212 147.403 Q851.212 143.723 849.777 141.894 Q848.342 140.066 845.471 140.066 Q842.022 140.066 840.031 142.265 Q838.041 144.464 838.041 148.26 L838.041 162.913 L833.758 162.913 L833.758 136.987 L838.041 136.987 L838.041 141.015 Q839.568 138.677 841.629 137.519 Q843.712 136.362 846.42 136.362 Q850.888 136.362 853.179 139.14 Q855.471 141.894 855.471 147.265 Z" fill="#000000" fill-rule="nonzero" fill-opacity="1" /><circle clip-path="url(#clip590)" cx="424.378" cy="197.473" r="21.2677" fill="#0000ff" fill-rule="evenodd" fill-opacity="1" stroke="#000000" stroke-opacity="1" stroke-width="3.15077"/>
<path clip-path="url(#clip590)" d="M555.866 180.193 L562.834 180.193 L571.653 203.711 L580.519 180.193 L587.486 180.193 L587.486 214.753 L582.926 214.753 L582.926 184.406 L574.014 208.109 L569.315 208.109 L560.403 184.406 L560.403 214.753 L555.866 214.753 L555.866 180.193 Z" fill="#000000" fill-rule="nonzero" fill-opacity="1" /><path clip-path="url(#clip590)" d="M618.759 200.725 L618.759 202.808 L599.176 202.808 Q599.454 207.206 601.815 209.521 Q604.199 211.813 608.435 211.813 Q610.889 211.813 613.181 211.211 Q615.496 210.609 617.764 209.405 L617.764 213.433 Q615.472 214.405 613.065 214.915 Q610.658 215.424 608.181 215.424 Q601.977 215.424 598.343 211.813 Q594.732 208.202 594.732 202.044 Q594.732 195.679 598.158 191.952 Q601.607 188.202 607.44 188.202 Q612.671 188.202 615.704 191.581 Q618.759 194.938 618.759 200.725 M614.5 199.475 Q614.454 195.98 612.533 193.896 Q610.634 191.813 607.486 191.813 Q603.922 191.813 601.769 193.827 Q599.639 195.841 599.315 199.498 L614.5 199.475 Z" fill="#000000" fill-rule="nonzero" fill-opacity="1" /><path clip-path="url(#clip590)" d="M637.532 201.72 Q632.37 201.72 630.38 202.901 Q628.389 204.081 628.389 206.929 Q628.389 209.197 629.87 210.54 Q631.375 211.859 633.945 211.859 Q637.486 211.859 639.616 209.359 Q641.769 206.836 641.769 202.669 L641.769 201.72 L637.532 201.72 M646.028 199.961 L646.028 214.753 L641.769 214.753 L641.769 210.817 Q640.31 213.179 638.134 214.313 Q635.958 215.424 632.81 215.424 Q628.829 215.424 626.468 213.202 Q624.13 210.956 624.13 207.206 Q624.13 202.831 627.046 200.609 Q629.986 198.387 635.796 198.387 L641.769 198.387 L641.769 197.97 Q641.769 195.031 639.824 193.433 Q637.903 191.813 634.407 191.813 Q632.185 191.813 630.079 192.345 Q627.972 192.878 626.028 193.943 L626.028 190.007 Q628.366 189.105 630.565 188.665 Q632.764 188.202 634.847 188.202 Q640.472 188.202 643.25 191.118 Q646.028 194.035 646.028 199.961 Z" fill="#000000" fill-rule="nonzero" fill-opacity="1" /><path clip-path="url(#clip590)" d="M671.329 189.591 L671.329 193.618 Q669.523 192.693 667.579 192.23 Q665.634 191.767 663.551 191.767 Q660.38 191.767 658.782 192.739 Q657.208 193.711 657.208 195.655 Q657.208 197.137 658.343 197.993 Q659.477 198.827 662.903 199.591 L664.361 199.915 Q668.898 200.887 670.796 202.669 Q672.717 204.429 672.717 207.6 Q672.717 211.211 669.847 213.317 Q667 215.424 662 215.424 Q659.917 215.424 657.648 215.007 Q655.403 214.614 652.903 213.804 L652.903 209.405 Q655.264 210.632 657.556 211.257 Q659.847 211.859 662.093 211.859 Q665.102 211.859 666.722 210.841 Q668.342 209.799 668.342 207.924 Q668.342 206.188 667.162 205.262 Q666.005 204.336 662.046 203.48 L660.565 203.132 Q656.606 202.299 654.847 200.586 Q653.088 198.85 653.088 195.841 Q653.088 192.183 655.681 190.193 Q658.273 188.202 663.042 188.202 Q665.403 188.202 667.486 188.549 Q669.569 188.896 671.329 189.591 Z" fill="#000000" fill-rule="nonzero" fill-opacity="1" /><path clip-path="url(#clip590)" d="M679.06 204.521 L679.06 188.827 L683.319 188.827 L683.319 204.359 Q683.319 208.04 684.754 209.892 Q686.19 211.72 689.06 211.72 Q692.509 211.72 694.5 209.521 Q696.514 207.322 696.514 203.526 L696.514 188.827 L700.773 188.827 L700.773 214.753 L696.514 214.753 L696.514 210.771 Q694.963 213.132 692.903 214.29 Q690.866 215.424 688.157 215.424 Q683.69 215.424 681.375 212.646 Q679.06 209.868 679.06 204.521 M689.778 188.202 L689.778 188.202 Z" fill="#000000" fill-rule="nonzero" fill-opacity="1" /><path clip-path="url(#clip590)" d="M724.569 192.808 Q723.851 192.392 722.995 192.206 Q722.162 191.998 721.143 191.998 Q717.532 191.998 715.588 194.359 Q713.666 196.697 713.666 201.095 L713.666 214.753 L709.384 214.753 L709.384 188.827 L713.666 188.827 L713.666 192.855 Q715.009 190.493 717.162 189.359 Q719.314 188.202 722.393 188.202 Q722.833 188.202 723.365 188.271 Q723.898 188.318 724.546 188.433 L724.569 192.808 Z" fill="#000000" fill-rule="nonzero" fill-opacity="1" /><path clip-path="url(#clip590)" d="M750.171 200.725 L750.171 202.808 L730.588 202.808 Q730.865 207.206 733.226 209.521 Q735.611 211.813 739.847 211.813 Q742.3 211.813 744.592 211.211 Q746.907 210.609 749.175 209.405 L749.175 213.433 Q746.884 214.405 744.476 214.915 Q742.069 215.424 739.592 215.424 Q733.388 215.424 729.754 211.813 Q726.143 208.202 726.143 202.044 Q726.143 195.679 729.569 191.952 Q733.018 188.202 738.851 188.202 Q744.083 188.202 747.115 191.581 Q750.171 194.938 750.171 200.725 M745.912 199.475 Q745.865 195.98 743.944 193.896 Q742.046 191.813 738.898 191.813 Q735.333 191.813 733.18 193.827 Q731.05 195.841 730.726 199.498 L745.912 199.475 Z" fill="#000000" fill-rule="nonzero" fill-opacity="1" /><path clip-path="url(#clip590)" d="M777.347 193.804 Q778.944 190.933 781.166 189.568 Q783.388 188.202 786.397 188.202 Q790.448 188.202 792.647 191.049 Q794.846 193.873 794.846 199.105 L794.846 214.753 L790.564 214.753 L790.564 199.243 Q790.564 195.517 789.245 193.711 Q787.925 191.906 785.217 191.906 Q781.907 191.906 779.985 194.105 Q778.064 196.304 778.064 200.1 L778.064 214.753 L773.782 214.753 L773.782 199.243 Q773.782 195.493 772.462 193.711 Q771.143 191.906 768.388 191.906 Q765.124 191.906 763.203 194.128 Q761.282 196.327 761.282 200.1 L761.282 214.753 L756.999 214.753 L756.999 188.827 L761.282 188.827 L761.282 192.855 Q762.74 190.47 764.777 189.336 Q766.814 188.202 769.615 188.202 Q772.439 188.202 774.407 189.637 Q776.397 191.072 777.347 193.804 Z" fill="#000000" fill-rule="nonzero" fill-opacity="1" /><path clip-path="url(#clip590)" d="M825.518 200.725 L825.518 202.808 L805.934 202.808 Q806.212 207.206 808.573 209.521 Q810.957 211.813 815.194 211.813 Q817.647 211.813 819.939 211.211 Q822.254 210.609 824.522 209.405 L824.522 213.433 Q822.231 214.405 819.823 214.915 Q817.416 215.424 814.939 215.424 Q808.735 215.424 805.101 211.813 Q801.49 208.202 801.49 202.044 Q801.49 195.679 804.916 191.952 Q808.365 188.202 814.198 188.202 Q819.43 188.202 822.462 191.581 Q825.518 194.938 825.518 200.725 M821.258 199.475 Q821.212 195.98 819.291 193.896 Q817.393 191.813 814.244 191.813 Q810.68 191.813 808.527 193.827 Q806.397 195.841 806.073 199.498 L821.258 199.475 Z" fill="#000000" fill-rule="nonzero" fill-opacity="1" /><path clip-path="url(#clip590)" d="M854.059 199.105 L854.059 214.753 L849.8 214.753 L849.8 199.243 Q849.8 195.563 848.365 193.734 Q846.929 191.906 844.059 191.906 Q840.61 191.906 838.619 194.105 Q836.629 196.304 836.629 200.1 L836.629 214.753 L832.346 214.753 L832.346 188.827 L836.629 188.827 L836.629 192.855 Q838.156 190.517 840.217 189.359 Q842.3 188.202 845.008 188.202 Q849.476 188.202 851.767 190.98 Q854.059 193.734 854.059 199.105 Z" fill="#000000" fill-rule="nonzero" fill-opacity="1" /><path clip-path="url(#clip590)" d="M866.767 181.466 L866.767 188.827 L875.54 188.827 L875.54 192.137 L866.767 192.137 L866.767 206.211 Q866.767 209.382 867.624 210.285 Q868.503 211.188 871.165 211.188 L875.54 211.188 L875.54 214.753 L871.165 214.753 Q866.235 214.753 864.36 212.924 Q862.485 211.072 862.485 206.211 L862.485 192.137 L859.36 192.137 L859.36 188.827 L862.485 188.827 L862.485 181.466 L866.767 181.466 Z" fill="#000000" fill-rule="nonzero" fill-opacity="1" /><path clip-path="url(#clip590)" d="M897.67 189.591 L897.67 193.618 Q895.864 192.693 893.92 192.23 Q891.976 191.767 889.892 191.767 Q886.721 191.767 885.124 192.739 Q883.55 193.711 883.55 195.655 Q883.55 197.137 884.684 197.993 Q885.818 198.827 889.244 199.591 L890.702 199.915 Q895.239 200.887 897.138 202.669 Q899.059 204.429 899.059 207.6 Q899.059 211.211 896.188 213.317 Q893.341 215.424 888.341 215.424 Q886.258 215.424 883.989 215.007 Q881.744 214.614 879.244 213.804 L879.244 209.405 Q881.605 210.632 883.897 211.257 Q886.189 211.859 888.434 211.859 Q891.443 211.859 893.064 210.841 Q894.684 209.799 894.684 207.924 Q894.684 206.188 893.503 205.262 Q892.346 204.336 888.388 203.48 L886.906 203.132 Q882.948 202.299 881.189 200.586 Q879.429 198.85 879.429 195.841 Q879.429 192.183 882.022 190.193 Q884.614 188.202 889.383 188.202 Q891.744 188.202 893.827 188.549 Q895.911 188.896 897.67 189.591 Z" fill="#000000" fill-rule="nonzero" fill-opacity="1" /></svg>
