<?xml version="1.0" encoding="utf-8"?>
<svg xmlns="http://www.w3.org/2000/svg" xmlns:xlink="http://www.w3.org/1999/xlink" width="800" height="400" viewBox="0 0 3200 1600">
<defs>
  <clipPath id="clip570">
    <rect x="0" y="0" width="3200" height="1600"/>
  </clipPath>
</defs>
<path clip-path="url(#clip570)" d="M0 1600 L3200 1600 L3200 0 L0 0  Z" fill="#ffffff" fill-rule="evenodd" fill-opacity="1"/>
<defs>
  <clipPath id="clip571">
    <rect x="640" y="0" width="2241" height="1600"/>
  </clipPath>
</defs>
<path clip-path="url(#clip570)" d="M194.274 1443.7 L3152.76 1443.7 L3152.76 47.2441 L194.274 47.2441  Z" fill="#ffffff" fill-rule="evenodd" fill-opacity="1"/>
<defs>
  <clipPath id="clip572">
    <rect x="194" y="47" width="2959" height="1397"/>
  </clipPath>
</defs>
<polyline clip-path="url(#clip572)" style="stroke:#000000; stroke-linecap:round; stroke-linejoin:round; stroke-width:2; stroke-opacity:0.1; fill:none" points="194.274,1443.7 194.274,47.2441 "/>
<polyline clip-path="url(#clip572)" style="stroke:#000000; stroke-linecap:round; stroke-linejoin:round; stroke-width:2; stroke-opacity:0.1; fill:none" points="785.97,1443.7 785.97,47.2441 "/>
<polyline clip-path="url(#clip572)" style="stroke:#000000; stroke-linecap:round; stroke-linejoin:round; stroke-width:2; stroke-opacity:0.1; fill:none" points="1377.67,1443.7 1377.67,47.2441 "/>
<polyline clip-path="url(#clip572)" style="stroke:#000000; stroke-linecap:round; stroke-linejoin:round; stroke-width:2; stroke-opacity:0.1; fill:none" points="1969.36,1443.7 1969.36,47.2441 "/>
<polyline clip-path="url(#clip572)" style="stroke:#000000; stroke-linecap:round; stroke-linejoin:round; stroke-width:2; stroke-opacity:0.1; fill:none" points="2561.06,1443.7 2561.06,47.2441 "/>
<polyline clip-path="url(#clip572)" style="stroke:#000000; stroke-linecap:round; stroke-linejoin:round; stroke-width:2; stroke-opacity:0.1; fill:none" points="3152.76,1443.7 3152.76,47.2441 "/>
<polyline clip-path="url(#clip572)" style="stroke:#000000; stroke-linecap:round; stroke-linejoin:round; stroke-width:2; stroke-opacity:0.1; fill:none" points="194.274,1443.7 194.274,47.2441 "/>
<polyline clip-path="url(#clip572)" style="stroke:#000000; stroke-linecap:round; stroke-linejoin:round; stroke-width:2; stroke-opacity:0.1; fill:none" points="785.97,1443.7 785.97,47.2441 "/>
<polyline clip-path="url(#clip572)" style="stroke:#000000; stroke-linecap:round; stroke-linejoin:round; stroke-width:2; stroke-opacity:0.1; fill:none" points="1377.67,1443.7 1377.67,47.2441 "/>
<polyline clip-path="url(#clip572)" style="stroke:#000000; stroke-linecap:round; stroke-linejoin:round; stroke-width:2; stroke-opacity:0.1; fill:none" points="1969.36,1443.7 1969.36,47.2441 "/>
<polyline clip-path="url(#clip572)" style="stroke:#000000; stroke-linecap:round; stroke-linejoin:round; stroke-width:2; stroke-opacity:0.1; fill:none" points="2561.06,1443.7 2561.06,47.2441 "/>
<polyline clip-path="url(#clip572)" style="stroke:#000000; stroke-linecap:round; stroke-linejoin:round; stroke-width:2; stroke-opacity:0.1; fill:none" points="3152.76,1443.7 3152.76,47.2441 "/>
<polyline clip-path="url(#clip570)" style="stroke:#000000; stroke-linecap:round; stroke-linejoin:round; stroke-width:4; stroke-opacity:1; fill:none" points="194.274,1443.7 3152.76,1443.7 "/>
<polyline clip-path="url(#clip570)" style="stroke:#000000; stroke-linecap:round; stroke-linejoin:round; stroke-width:4; stroke-opacity:1; fill:none" points="194.274,47.2441 3152.76,47.2441 "/>
<polyline clip-path="url(#clip570)" style="stroke:#000000; stroke-linecap:round; stroke-linejoin:round; stroke-width:4; stroke-opacity:1; fill:none" points="194.274,1443.7 194.274,1424.8 "/>
<polyline clip-path="url(#clip570)" style="stroke:#000000; stroke-linecap:round; stroke-linejoin:round; stroke-width:4; stroke-opacity:1; fill:none" points="785.97,1443.7 785.97,1424.8 "/>
<polyline clip-path="url(#clip570)" style="stroke:#000000; stroke-linecap:round; stroke-linejoin:round; stroke-width:4; stroke-opacity:1; fill:none" points="1377.67,1443.7 1377.67,1424.8 "/>
<polyline clip-path="url(#clip570)" style="stroke:#000000; stroke-linecap:round; stroke-linejoin:round; stroke-width:4; stroke-opacity:1; fill:none" points="1969.36,1443.7 1969.36,1424.8 "/>
<polyline clip-path="url(#clip570)" style="stroke:#000000; stroke-linecap:round; stroke-linejoin:round; stroke-width:4; stroke-opacity:1; fill:none" points="2561.06,1443.7 2561.06,1424.8 "/>
<polyline clip-path="url(#clip570)" style="stroke:#000000; stroke-linecap:round; stroke-linejoin:round; stroke-width:4; stroke-opacity:1; fill:none" points="3152.76,1443.7 3152.76,1424.8 "/>
<polyline clip-path="url(#clip570)" style="stroke:#000000; stroke-linecap:round; stroke-linejoin:round; stroke-width:4; stroke-opacity:1; fill:none" points="194.274,47.2441 194.274,66.1417 "/>
<polyline clip-path="url(#clip570)" style="stroke:#000000; stroke-linecap:round; stroke-linejoin:round; stroke-width:4; stroke-opacity:1; fill:none" points="785.97,47.2441 785.97,66.1417 "/>
<polyline clip-path="url(#clip570)" style="stroke:#000000; stroke-linecap:round; stroke-linejoin:round; stroke-width:4; stroke-opacity:1; fill:none" points="1377.67,47.2441 1377.67,66.1417 "/>
<polyline clip-path="url(#clip570)" style="stroke:#000000; stroke-linecap:round; stroke-linejoin:round; stroke-width:4; stroke-opacity:1; fill:none" points="1969.36,47.2441 1969.36,66.1417 "/>
<polyline clip-path="url(#clip570)" style="stroke:#000000; stroke-linecap:round; stroke-linejoin:round; stroke-width:4; stroke-opacity:1; fill:none" points="2561.06,47.2441 2561.06,66.1417 "/>
<polyline clip-path="url(#clip570)" style="stroke:#000000; stroke-linecap:round; stroke-linejoin:round; stroke-width:4; stroke-opacity:1; fill:none" points="3152.76,47.2441 3152.76,66.1417 "/>
<path clip-path="url(#clip570)" d="M194.274 1481.02 Q190.663 1481.02 188.834 1484.58 Q187.029 1488.12 187.029 1495.25 Q187.029 1502.36 188.834 1505.93 Q190.663 1509.47 194.274 1509.47 Q197.908 1509.47 199.714 1505.93 Q201.542 1502.36 201.542 1495.25 Q201.542 1488.12 199.714 1484.58 Q197.908 1481.02 194.274 1481.02 M194.274 1477.31 Q200.084 1477.31 203.14 1481.92 Q206.218 1486.5 206.218 1495.25 Q206.218 1503.98 203.14 1508.59 Q200.084 1513.17 194.274 1513.17 Q188.464 1513.17 185.385 1508.59 Q182.33 1503.98 182.33 1495.25 Q182.33 1486.5 185.385 1481.92 Q188.464 1477.31 194.274 1477.31 Z" fill="#000000" fill-rule="nonzero" fill-opacity="1" /><path clip-path="url(#clip570)" d="M780.623 1508.56 L796.943 1508.56 L796.943 1512.5 L774.998 1512.5 L774.998 1508.56 Q777.66 1505.81 782.244 1501.18 Q786.85 1496.53 788.031 1495.19 Q790.276 1492.66 791.156 1490.93 Q792.058 1489.17 792.058 1487.48 Q792.058 1484.72 790.114 1482.99 Q788.193 1481.25 785.091 1481.25 Q782.892 1481.25 780.438 1482.01 Q778.007 1482.78 775.23 1484.33 L775.23 1479.61 Q778.054 1478.47 780.507 1477.89 Q782.961 1477.31 784.998 1477.31 Q790.369 1477.31 793.563 1480 Q796.757 1482.69 796.757 1487.18 Q796.757 1489.31 795.947 1491.23 Q795.16 1493.12 793.054 1495.72 Q792.475 1496.39 789.373 1499.61 Q786.271 1502.8 780.623 1508.56 Z" fill="#000000" fill-rule="nonzero" fill-opacity="1" /><path clip-path="url(#clip570)" d="M1380.68 1482.01 L1368.87 1500.46 L1380.68 1500.46 L1380.68 1482.01 M1379.45 1477.94 L1385.33 1477.94 L1385.33 1500.46 L1390.26 1500.46 L1390.26 1504.35 L1385.33 1504.35 L1385.33 1512.5 L1380.68 1512.5 L1380.68 1504.35 L1365.07 1504.35 L1365.07 1499.84 L1379.45 1477.94 Z" fill="#000000" fill-rule="nonzero" fill-opacity="1" /><path clip-path="url(#clip570)" d="M1969.77 1493.36 Q1966.62 1493.36 1964.77 1495.51 Q1962.94 1497.66 1962.94 1501.41 Q1962.94 1505.14 1964.77 1507.31 Q1966.62 1509.47 1969.77 1509.47 Q1972.92 1509.47 1974.75 1507.31 Q1976.6 1505.14 1976.6 1501.41 Q1976.6 1497.66 1974.75 1495.51 Q1972.92 1493.36 1969.77 1493.36 M1979.05 1478.7 L1979.05 1482.96 Q1977.29 1482.13 1975.49 1481.69 Q1973.7 1481.25 1971.94 1481.25 Q1967.31 1481.25 1964.86 1484.37 Q1962.43 1487.5 1962.08 1493.82 Q1963.45 1491.81 1965.51 1490.74 Q1967.57 1489.65 1970.05 1489.65 Q1975.25 1489.65 1978.26 1492.82 Q1981.3 1495.97 1981.3 1501.41 Q1981.3 1506.74 1978.15 1509.95 Q1975 1513.17 1969.77 1513.17 Q1963.77 1513.17 1960.6 1508.59 Q1957.43 1503.98 1957.43 1495.25 Q1957.43 1487.06 1961.32 1482.2 Q1965.21 1477.31 1971.76 1477.31 Q1973.52 1477.31 1975.3 1477.66 Q1977.11 1478.01 1979.05 1478.7 Z" fill="#000000" fill-rule="nonzero" fill-opacity="1" /><path clip-path="url(#clip570)" d="M2561.06 1496.09 Q2557.73 1496.09 2555.8 1497.87 Q2553.91 1499.65 2553.91 1502.78 Q2553.91 1505.9 2555.8 1507.69 Q2557.73 1509.47 2561.06 1509.47 Q2564.39 1509.47 2566.31 1507.69 Q2568.24 1505.88 2568.24 1502.78 Q2568.24 1499.65 2566.31 1497.87 Q2564.42 1496.09 2561.06 1496.09 M2556.38 1494.1 Q2553.37 1493.36 2551.68 1491.3 Q2550.02 1489.24 2550.02 1486.27 Q2550.02 1482.13 2552.96 1479.72 Q2555.92 1477.31 2561.06 1477.31 Q2566.22 1477.31 2569.16 1479.72 Q2572.1 1482.13 2572.1 1486.27 Q2572.1 1489.24 2570.41 1491.3 Q2568.74 1493.36 2565.76 1494.1 Q2569.14 1494.88 2571.01 1497.18 Q2572.91 1499.47 2572.91 1502.78 Q2572.91 1507.8 2569.83 1510.49 Q2566.78 1513.17 2561.06 1513.17 Q2555.34 1513.17 2552.26 1510.49 Q2549.21 1507.8 2549.21 1502.78 Q2549.21 1499.47 2551.11 1497.18 Q2553 1494.88 2556.38 1494.1 M2554.67 1486.71 Q2554.67 1489.4 2556.34 1490.9 Q2558.03 1492.41 2561.06 1492.41 Q2564.07 1492.41 2565.76 1490.9 Q2567.47 1489.4 2567.47 1486.71 Q2567.47 1484.03 2565.76 1482.52 Q2564.07 1481.02 2561.06 1481.02 Q2558.03 1481.02 2556.34 1482.52 Q2554.67 1484.03 2554.67 1486.71 Z" fill="#000000" fill-rule="nonzero" fill-opacity="1" /><path clip-path="url(#clip570)" d="M3127.44 1508.56 L3135.08 1508.56 L3135.08 1482.2 L3126.77 1483.87 L3126.77 1479.61 L3135.04 1477.94 L3139.71 1477.94 L3139.71 1508.56 L3147.35 1508.56 L3147.35 1512.5 L3127.44 1512.5 L3127.44 1508.56 Z" fill="#000000" fill-rule="nonzero" fill-opacity="1" /><path clip-path="url(#clip570)" d="M3166.8 1481.02 Q3163.18 1481.02 3161.36 1484.58 Q3159.55 1488.12 3159.55 1495.25 Q3159.55 1502.36 3161.36 1505.93 Q3163.18 1509.47 3166.8 1509.47 Q3170.43 1509.47 3172.23 1505.93 Q3174.06 1502.36 3174.06 1495.25 Q3174.06 1488.12 3172.23 1484.58 Q3170.43 1481.02 3166.8 1481.02 M3166.8 1477.31 Q3172.61 1477.31 3175.66 1481.92 Q3178.74 1486.5 3178.74 1495.25 Q3178.74 1503.98 3175.66 1508.59 Q3172.61 1513.17 3166.8 1513.17 Q3160.99 1513.17 3157.91 1508.59 Q3154.85 1503.98 3154.85 1495.25 Q3154.85 1486.5 3157.91 1481.92 Q3160.99 1477.31 3166.8 1477.31 Z" fill="#000000" fill-rule="nonzero" fill-opacity="1" /><path clip-path="url(#clip570)" d="M1672.58 1554.79 L1672.58 1564.92 L1684.64 1564.92 L1684.64 1569.47 L1672.58 1569.47 L1672.58 1588.82 Q1672.58 1593.18 1673.75 1594.42 Q1674.96 1595.66 1678.62 1595.66 L1684.64 1595.66 L1684.64 1600.56 L1678.62 1600.56 Q1671.84 1600.56 1669.27 1598.05 Q1666.69 1595.5 1666.69 1588.82 L1666.69 1569.47 L1662.39 1569.47 L1662.39 1564.92 L1666.69 1564.92 L1666.69 1554.79 L1672.58 1554.79 Z" fill="#000000" fill-rule="nonzero" fill-opacity="1" /><polyline clip-path="url(#clip572)" style="stroke:#000000; stroke-linecap:round; stroke-linejoin:round; stroke-width:2; stroke-opacity:0.1; fill:none" points="194.274,1404.18 3152.76,1404.18 "/>
<polyline clip-path="url(#clip572)" style="stroke:#000000; stroke-linecap:round; stroke-linejoin:round; stroke-width:2; stroke-opacity:0.1; fill:none" points="194.274,1076.38 3152.76,1076.38 "/>
<polyline clip-path="url(#clip572)" style="stroke:#000000; stroke-linecap:round; stroke-linejoin:round; stroke-width:2; stroke-opacity:0.1; fill:none" points="194.274,748.577 3152.76,748.577 "/>
<polyline clip-path="url(#clip572)" style="stroke:#000000; stroke-linecap:round; stroke-linejoin:round; stroke-width:2; stroke-opacity:0.1; fill:none" points="194.274,420.776 3152.76,420.776 "/>
<polyline clip-path="url(#clip572)" style="stroke:#000000; stroke-linecap:round; stroke-linejoin:round; stroke-width:2; stroke-opacity:0.1; fill:none" points="194.274,92.9757 3152.76,92.9757 "/>
<polyline clip-path="url(#clip572)" style="stroke:#000000; stroke-linecap:round; stroke-linejoin:round; stroke-width:2; stroke-opacity:0.1; fill:none" points="194.274,1404.18 3152.76,1404.18 "/>
<polyline clip-path="url(#clip572)" style="stroke:#000000; stroke-linecap:round; stroke-linejoin:round; stroke-width:2; stroke-opacity:0.1; fill:none" points="194.274,1076.38 3152.76,1076.38 "/>
<polyline clip-path="url(#clip572)" style="stroke:#000000; stroke-linecap:round; stroke-linejoin:round; stroke-width:2; stroke-opacity:0.1; fill:none" points="194.274,748.577 3152.76,748.577 "/>
<polyline clip-path="url(#clip572)" style="stroke:#000000; stroke-linecap:round; stroke-linejoin:round; stroke-width:2; stroke-opacity:0.1; fill:none" points="194.274,420.776 3152.76,420.776 "/>
<polyline clip-path="url(#clip572)" style="stroke:#000000; stroke-linecap:round; stroke-linejoin:round; stroke-width:2; stroke-opacity:0.1; fill:none" points="194.274,92.9757 3152.76,92.9757 "/>
<polyline clip-path="url(#clip570)" style="stroke:#000000; stroke-linecap:round; stroke-linejoin:round; stroke-width:4; stroke-opacity:1; fill:none" points="194.274,1443.7 194.274,47.2441 "/>
<polyline clip-path="url(#clip570)" style="stroke:#000000; stroke-linecap:round; stroke-linejoin:round; stroke-width:4; stroke-opacity:1; fill:none" points="3152.76,1443.7 3152.76,47.2441 "/>
<polyline clip-path="url(#clip570)" style="stroke:#000000; stroke-linecap:round; stroke-linejoin:round; stroke-width:4; stroke-opacity:1; fill:none" points="194.274,1404.18 213.172,1404.18 "/>
<polyline clip-path="url(#clip570)" style="stroke:#000000; stroke-linecap:round; stroke-linejoin:round; stroke-width:4; stroke-opacity:1; fill:none" points="194.274,1076.38 213.172,1076.38 "/>
<polyline clip-path="url(#clip570)" style="stroke:#000000; stroke-linecap:round; stroke-linejoin:round; stroke-width:4; stroke-opacity:1; fill:none" points="194.274,748.577 213.172,748.577 "/>
<polyline clip-path="url(#clip570)" style="stroke:#000000; stroke-linecap:round; stroke-linejoin:round; stroke-width:4; stroke-opacity:1; fill:none" points="194.274,420.776 213.172,420.776 "/>
<polyline clip-path="url(#clip570)" style="stroke:#000000; stroke-linecap:round; stroke-linejoin:round; stroke-width:4; stroke-opacity:1; fill:none" points="194.274,92.9757 213.172,92.9757 "/>
<polyline clip-path="url(#clip570)" style="stroke:#000000; stroke-linecap:round; stroke-linejoin:round; stroke-width:4; stroke-opacity:1; fill:none" points="3152.76,1404.18 3133.86,1404.18 "/>
<polyline clip-path="url(#clip570)" style="stroke:#000000; stroke-linecap:round; stroke-linejoin:round; stroke-width:4; stroke-opacity:1; fill:none" points="3152.76,1076.38 3133.86,1076.38 "/>
<polyline clip-path="url(#clip570)" style="stroke:#000000; stroke-linecap:round; stroke-linejoin:round; stroke-width:4; stroke-opacity:1; fill:none" points="3152.76,748.577 3133.86,748.577 "/>
<polyline clip-path="url(#clip570)" style="stroke:#000000; stroke-linecap:round; stroke-linejoin:round; stroke-width:4; stroke-opacity:1; fill:none" points="3152.76,420.776 3133.86,420.776 "/>
<polyline clip-path="url(#clip570)" style="stroke:#000000; stroke-linecap:round; stroke-linejoin:round; stroke-width:4; stroke-opacity:1; fill:none" points="3152.76,92.9757 3133.86,92.9757 "/>
<path clip-path="url(#clip570)" d="M58.9365 1389.98 Q55.3254 1389.98 53.4967 1393.54 Q51.6912 1397.08 51.6912 1404.21 Q51.6912 1411.32 53.4967 1414.88 Q55.3254 1418.43 58.9365 1418.43 Q62.5707 1418.43 64.3763 1414.88 Q66.205 1411.32 66.205 1404.21 Q66.205 1397.08 64.3763 1393.54 Q62.5707 1389.98 58.9365 1389.98 M58.9365 1386.27 Q64.7467 1386.27 67.8022 1390.88 Q70.8809 1395.46 70.8809 1404.21 Q70.8809 1412.94 67.8022 1417.55 Q64.7467 1422.13 58.9365 1422.13 Q53.1264 1422.13 50.0477 1417.55 Q46.9921 1412.94 46.9921 1404.21 Q46.9921 1395.46 50.0477 1390.88 Q53.1264 1386.27 58.9365 1386.27 Z" fill="#000000" fill-rule="nonzero" fill-opacity="1" /><path clip-path="url(#clip570)" d="M79.0984 1415.58 L83.9827 1415.58 L83.9827 1421.46 L79.0984 1421.46 L79.0984 1415.58 Z" fill="#000000" fill-rule="nonzero" fill-opacity="1" /><path clip-path="url(#clip570)" d="M104.168 1389.98 Q100.557 1389.98 98.728 1393.54 Q96.9224 1397.08 96.9224 1404.21 Q96.9224 1411.32 98.728 1414.88 Q100.557 1418.43 104.168 1418.43 Q107.802 1418.43 109.608 1414.88 Q111.436 1411.32 111.436 1404.21 Q111.436 1397.08 109.608 1393.54 Q107.802 1389.98 104.168 1389.98 M104.168 1386.27 Q109.978 1386.27 113.033 1390.88 Q116.112 1395.46 116.112 1404.21 Q116.112 1412.94 113.033 1417.55 Q109.978 1422.13 104.168 1422.13 Q98.3576 1422.13 95.2789 1417.55 Q92.2234 1412.94 92.2234 1404.21 Q92.2234 1395.46 95.2789 1390.88 Q98.3576 1386.27 104.168 1386.27 Z" fill="#000000" fill-rule="nonzero" fill-opacity="1" /><path clip-path="url(#clip570)" d="M134.33 1389.98 Q130.719 1389.98 128.89 1393.54 Q127.084 1397.08 127.084 1404.21 Q127.084 1411.32 128.89 1414.88 Q130.719 1418.43 134.33 1418.43 Q137.964 1418.43 139.769 1414.88 Q141.598 1411.32 141.598 1404.21 Q141.598 1397.08 139.769 1393.54 Q137.964 1389.98 134.33 1389.98 M134.33 1386.27 Q140.14 1386.27 143.195 1390.88 Q146.274 1395.46 146.274 1404.21 Q146.274 1412.94 143.195 1417.55 Q140.14 1422.13 134.33 1422.13 Q128.519 1422.13 125.441 1417.55 Q122.385 1412.94 122.385 1404.21 Q122.385 1395.46 125.441 1390.88 Q128.519 1386.27 134.33 1386.27 Z" fill="#000000" fill-rule="nonzero" fill-opacity="1" /><path clip-path="url(#clip570)" d="M59.9319 1062.18 Q56.3208 1062.18 54.4921 1065.74 Q52.6865 1069.28 52.6865 1076.41 Q52.6865 1083.52 54.4921 1087.08 Q56.3208 1090.62 59.9319 1090.62 Q63.5661 1090.62 65.3717 1087.08 Q67.2004 1083.52 67.2004 1076.41 Q67.2004 1069.28 65.3717 1065.74 Q63.5661 1062.18 59.9319 1062.18 M59.9319 1058.47 Q65.742 1058.47 68.7976 1063.08 Q71.8763 1067.66 71.8763 1076.41 Q71.8763 1085.14 68.7976 1089.75 Q65.742 1094.33 59.9319 1094.33 Q54.1217 1094.33 51.043 1089.75 Q47.9875 1085.14 47.9875 1076.41 Q47.9875 1067.66 51.043 1063.08 Q54.1217 1058.47 59.9319 1058.47 Z" fill="#000000" fill-rule="nonzero" fill-opacity="1" /><path clip-path="url(#clip570)" d="M80.0938 1087.78 L84.978 1087.78 L84.978 1093.66 L80.0938 1093.66 L80.0938 1087.78 Z" fill="#000000" fill-rule="nonzero" fill-opacity="1" /><path clip-path="url(#clip570)" d="M99.1909 1089.72 L115.51 1089.72 L115.51 1093.66 L93.566 1093.66 L93.566 1089.72 Q96.228 1086.97 100.811 1082.34 Q105.418 1077.68 106.598 1076.34 Q108.844 1073.82 109.723 1072.08 Q110.626 1070.32 110.626 1068.63 Q110.626 1065.88 108.682 1064.14 Q106.76 1062.41 103.658 1062.41 Q101.459 1062.41 99.0057 1063.17 Q96.5752 1063.93 93.7974 1065.49 L93.7974 1060.76 Q96.6215 1059.63 99.0752 1059.05 Q101.529 1058.47 103.566 1058.47 Q108.936 1058.47 112.131 1061.16 Q115.325 1063.84 115.325 1068.33 Q115.325 1070.46 114.515 1072.38 Q113.728 1074.28 111.621 1076.87 Q111.043 1077.55 107.941 1080.76 Q104.839 1083.96 99.1909 1089.72 Z" fill="#000000" fill-rule="nonzero" fill-opacity="1" /><path clip-path="url(#clip570)" d="M125.371 1059.1 L143.728 1059.1 L143.728 1063.03 L129.654 1063.03 L129.654 1071.5 Q130.672 1071.16 131.691 1071 Q132.709 1070.81 133.728 1070.81 Q139.515 1070.81 142.894 1073.98 Q146.274 1077.15 146.274 1082.57 Q146.274 1088.15 142.802 1091.25 Q139.33 1094.33 133.01 1094.33 Q130.834 1094.33 128.566 1093.96 Q126.32 1093.59 123.913 1092.85 L123.913 1088.15 Q125.996 1089.28 128.219 1089.84 Q130.441 1090.39 132.918 1090.39 Q136.922 1090.39 139.26 1088.29 Q141.598 1086.18 141.598 1082.57 Q141.598 1078.96 139.26 1076.85 Q136.922 1074.75 132.918 1074.75 Q131.043 1074.75 129.168 1075.16 Q127.316 1075.58 125.371 1076.46 L125.371 1059.1 Z" fill="#000000" fill-rule="nonzero" fill-opacity="1" /><path clip-path="url(#clip570)" d="M58.9365 734.375 Q55.3254 734.375 53.4967 737.94 Q51.6912 741.482 51.6912 748.611 Q51.6912 755.718 53.4967 759.283 Q55.3254 762.824 58.9365 762.824 Q62.5707 762.824 64.3763 759.283 Q66.205 755.718 66.205 748.611 Q66.205 741.482 64.3763 737.94 Q62.5707 734.375 58.9365 734.375 M58.9365 730.672 Q64.7467 730.672 67.8022 735.278 Q70.8809 739.861 70.8809 748.611 Q70.8809 757.338 67.8022 761.945 Q64.7467 766.528 58.9365 766.528 Q53.1264 766.528 50.0477 761.945 Q46.9921 757.338 46.9921 748.611 Q46.9921 739.861 50.0477 735.278 Q53.1264 730.672 58.9365 730.672 Z" fill="#000000" fill-rule="nonzero" fill-opacity="1" /><path clip-path="url(#clip570)" d="M79.0984 759.977 L83.9827 759.977 L83.9827 765.857 L79.0984 765.857 L79.0984 759.977 Z" fill="#000000" fill-rule="nonzero" fill-opacity="1" /><path clip-path="url(#clip570)" d="M94.2141 731.297 L112.57 731.297 L112.57 735.232 L98.4965 735.232 L98.4965 743.704 Q99.515 743.357 100.534 743.195 Q101.552 743.009 102.571 743.009 Q108.358 743.009 111.737 746.181 Q115.117 749.352 115.117 754.769 Q115.117 760.347 111.645 763.449 Q108.172 766.528 101.853 766.528 Q99.677 766.528 97.4085 766.158 Q95.1632 765.787 92.7558 765.046 L92.7558 760.347 Q94.8391 761.482 97.0613 762.037 Q99.2835 762.593 101.76 762.593 Q105.765 762.593 108.103 760.486 Q110.441 758.38 110.441 754.769 Q110.441 751.158 108.103 749.051 Q105.765 746.945 101.76 746.945 Q99.8854 746.945 98.0104 747.361 Q96.1585 747.778 94.2141 748.658 L94.2141 731.297 Z" fill="#000000" fill-rule="nonzero" fill-opacity="1" /><path clip-path="url(#clip570)" d="M134.33 734.375 Q130.719 734.375 128.89 737.94 Q127.084 741.482 127.084 748.611 Q127.084 755.718 128.89 759.283 Q130.719 762.824 134.33 762.824 Q137.964 762.824 139.769 759.283 Q141.598 755.718 141.598 748.611 Q141.598 741.482 139.769 737.94 Q137.964 734.375 134.33 734.375 M134.33 730.672 Q140.14 730.672 143.195 735.278 Q146.274 739.861 146.274 748.611 Q146.274 757.338 143.195 761.945 Q140.14 766.528 134.33 766.528 Q128.519 766.528 125.441 761.945 Q122.385 757.338 122.385 748.611 Q122.385 739.861 125.441 735.278 Q128.519 730.672 134.33 730.672 Z" fill="#000000" fill-rule="nonzero" fill-opacity="1" /><path clip-path="url(#clip570)" d="M59.9319 406.575 Q56.3208 406.575 54.4921 410.14 Q52.6865 413.681 52.6865 420.811 Q52.6865 427.917 54.4921 431.482 Q56.3208 435.024 59.9319 435.024 Q63.5661 435.024 65.3717 431.482 Q67.2004 427.917 67.2004 420.811 Q67.2004 413.681 65.3717 410.14 Q63.5661 406.575 59.9319 406.575 M59.9319 402.871 Q65.742 402.871 68.7976 407.478 Q71.8763 412.061 71.8763 420.811 Q71.8763 429.538 68.7976 434.144 Q65.742 438.727 59.9319 438.727 Q54.1217 438.727 51.043 434.144 Q47.9875 429.538 47.9875 420.811 Q47.9875 412.061 51.043 407.478 Q54.1217 402.871 59.9319 402.871 Z" fill="#000000" fill-rule="nonzero" fill-opacity="1" /><path clip-path="url(#clip570)" d="M80.0938 432.177 L84.978 432.177 L84.978 438.056 L80.0938 438.056 L80.0938 432.177 Z" fill="#000000" fill-rule="nonzero" fill-opacity="1" /><path clip-path="url(#clip570)" d="M93.9826 403.496 L116.205 403.496 L116.205 405.487 L103.658 438.056 L98.7743 438.056 L110.58 407.431 L93.9826 407.431 L93.9826 403.496 Z" fill="#000000" fill-rule="nonzero" fill-opacity="1" /><path clip-path="url(#clip570)" d="M125.371 403.496 L143.728 403.496 L143.728 407.431 L129.654 407.431 L129.654 415.903 Q130.672 415.556 131.691 415.394 Q132.709 415.209 133.728 415.209 Q139.515 415.209 142.894 418.38 Q146.274 421.552 146.274 426.968 Q146.274 432.547 142.802 435.649 Q139.33 438.727 133.01 438.727 Q130.834 438.727 128.566 438.357 Q126.32 437.987 123.913 437.246 L123.913 432.547 Q125.996 433.681 128.219 434.237 Q130.441 434.792 132.918 434.792 Q136.922 434.792 139.26 432.686 Q141.598 430.579 141.598 426.968 Q141.598 423.357 139.26 421.251 Q136.922 419.144 132.918 419.144 Q131.043 419.144 129.168 419.561 Q127.316 419.978 125.371 420.857 L125.371 403.496 Z" fill="#000000" fill-rule="nonzero" fill-opacity="1" /><path clip-path="url(#clip570)" d="M49.7467 106.321 L57.3856 106.321 L57.3856 79.9549 L49.0754 81.6216 L49.0754 77.3623 L57.3393 75.6957 L62.0152 75.6957 L62.0152 106.321 L69.654 106.321 L69.654 110.256 L49.7467 110.256 L49.7467 106.321 Z" fill="#000000" fill-rule="nonzero" fill-opacity="1" /><path clip-path="url(#clip570)" d="M79.0984 104.376 L83.9827 104.376 L83.9827 110.256 L79.0984 110.256 L79.0984 104.376 Z" fill="#000000" fill-rule="nonzero" fill-opacity="1" /><path clip-path="url(#clip570)" d="M104.168 78.7744 Q100.557 78.7744 98.728 82.3392 Q96.9224 85.8808 96.9224 93.0104 Q96.9224 100.117 98.728 103.682 Q100.557 107.223 104.168 107.223 Q107.802 107.223 109.608 103.682 Q111.436 100.117 111.436 93.0104 Q111.436 85.8808 109.608 82.3392 Q107.802 78.7744 104.168 78.7744 M104.168 75.0707 Q109.978 75.0707 113.033 79.6771 Q116.112 84.2604 116.112 93.0104 Q116.112 101.737 113.033 106.344 Q109.978 110.927 104.168 110.927 Q98.3576 110.927 95.2789 106.344 Q92.2234 101.737 92.2234 93.0104 Q92.2234 84.2604 95.2789 79.6771 Q98.3576 75.0707 104.168 75.0707 Z" fill="#000000" fill-rule="nonzero" fill-opacity="1" /><path clip-path="url(#clip570)" d="M134.33 78.7744 Q130.719 78.7744 128.89 82.3392 Q127.084 85.8808 127.084 93.0104 Q127.084 100.117 128.89 103.682 Q130.719 107.223 134.33 107.223 Q137.964 107.223 139.769 103.682 Q141.598 100.117 141.598 93.0104 Q141.598 85.8808 139.769 82.3392 Q137.964 78.7744 134.33 78.7744 M134.33 75.0707 Q140.14 75.0707 143.195 79.6771 Q146.274 84.2604 146.274 93.0104 Q146.274 101.737 143.195 106.344 Q140.14 110.927 134.33 110.927 Q128.519 110.927 125.441 106.344 Q122.385 101.737 122.385 93.0104 Q122.385 84.2604 125.441 79.6771 Q128.519 75.0707 134.33 75.0707 Z" fill="#000000" fill-rule="nonzero" fill-opacity="1" /><polyline clip-path="url(#clip572)" style="stroke:#009af9; stroke-linecap:round; stroke-linejoin:round; stroke-width:32; stroke-opacity:1; fill:none" points="194.274,92.9757 197.235,105.964 200.197,118.686 203.158,131.149 206.12,143.363 209.081,155.333 212.043,167.07 215.004,178.578 217.966,189.867 220.927,200.941 223.888,211.808 226.85,222.474 229.811,232.945 232.773,243.226 235.734,253.323 238.696,263.241 241.657,272.986 244.619,282.562 247.58,291.974 250.541,301.227 253.503,310.324 256.464,319.271 259.426,328.071 262.387,336.728 265.349,345.246 268.31,353.629 271.272,361.879 274.233,370.002 277.194,378 280.156,385.875 283.117,393.632 286.079,401.273 289.04,408.802 292.002,416.22 294.963,423.531 297.925,430.737 300.886,437.841 303.847,444.845 306.809,451.751 309.77,458.563 312.732,465.282 315.693,471.91 318.655,478.449 321.616,484.902 324.578,491.27 327.539,497.556 330.5,503.761 333.462,509.887 336.423,515.936 339.385,521.909 342.346,527.809 345.308,533.636 348.269,539.392 351.23,545.079 354.192,550.698 357.153,556.251 360.115,561.739 363.076,567.164 366.038,572.526 368.999,577.827 371.961,583.068 374.922,588.251 377.883,593.376 380.845,598.445 383.806,603.46 386.768,608.42 389.729,613.327 392.691,618.182 395.652,622.986 398.614,627.741 401.575,632.446 404.536,637.103 407.498,641.713 410.459,646.277 413.421,650.795 416.382,655.268 419.344,659.698 422.305,664.085 425.267,668.429 428.228,672.732 431.189,676.994 434.151,681.215 437.112,685.398 440.074,689.542 443.035,693.648 445.997,697.716 448.958,701.748 451.92,705.744 454.881,709.705 457.842,713.63 460.804,717.521 463.765,721.379 466.727,725.203 469.688,728.995 472.65,732.754 475.611,736.482 478.573,740.179 481.534,743.845 484.495,747.481 487.457,751.088 490.418,754.665 493.38,758.213 496.341,761.733 499.303,765.225 502.264,768.69 505.226,772.128 508.187,775.538 511.148,778.923 514.11,782.281 517.071,785.614 520.033,788.922 522.994,792.205 525.956,795.464 528.917,798.698 531.879,801.909 534.84,805.096 537.801,808.26 540.763,811.402 543.724,814.521 546.686,817.618 549.647,820.693 552.609,823.746 555.57,826.778 558.532,829.789 561.493,832.78 564.454,835.75 567.416,838.699 570.377,841.629 573.339,844.539 576.3,847.43 579.262,850.301 582.223,853.154 585.185,855.987 588.146,858.803 591.107,861.6 594.069,864.378 597.03,867.139 599.992,869.883 602.953,872.608 605.915,875.317 608.876,878.008 611.838,880.683 614.799,883.341 617.76,885.983 620.722,888.608 623.683,891.217 626.645,893.81 629.606,896.387 632.568,898.949 635.529,901.495 638.491,904.027 641.452,906.543 644.413,909.044 647.375,911.53 650.336,914.002 653.298,916.46 656.259,918.903 659.221,921.332 662.182,923.747 665.143,926.148 668.105,928.535 671.066,930.909 674.028,933.269 676.989,935.616 679.951,937.95 682.912,940.271 685.874,942.578 688.835,944.873 691.796,947.156 694.758,949.425 697.719,951.683 700.681,953.927 703.642,956.16 706.604,958.381 709.565,960.589 712.527,962.786 715.488,964.97 718.449,967.143 721.411,969.305 724.372,971.454 727.334,973.593 730.295,975.72 733.257,977.835 736.218,979.94 739.18,982.034 742.141,984.116 745.102,986.188 748.064,988.249 751.025,990.299 753.987,992.339 756.948,994.368 759.91,996.386 762.871,998.394 765.833,1000.39 768.794,1002.38 771.755,1004.36 774.717,1006.33 777.678,1008.28 780.64,1010.23 783.601,1012.17 786.563,1014.1 789.524,1016.01 792.486,1017.92 795.447,1019.82 798.408,1021.71 801.37,1023.59 804.331,1025.46 807.293,1027.33 810.254,1029.18 813.216,1031.02 816.177,1032.86 819.139,1034.68 822.1,1036.5 825.061,1038.31 828.023,1040.11 830.984,1041.9 833.946,1043.68 836.907,1045.45 839.869,1047.21 842.83,1048.97 845.792,1050.72 848.753,1052.45 851.714,1054.18 854.676,1055.91 857.637,1057.62 860.599,1059.33 863.56,1061.02 866.522,1062.71 869.483,1064.39 872.445,1066.07 875.406,1067.73 878.367,1069.39 881.329,1071.04 884.29,1072.68 887.252,1074.31 890.213,1075.94 893.175,1077.55 896.136,1079.16 899.098,1080.77 902.059,1082.36 905.02,1083.95 907.982,1085.53 910.943,1087.1 913.905,1088.67 916.866,1090.22 919.828,1091.77 922.789,1093.32 925.751,1094.85 928.712,1096.38 931.673,1097.9 934.635,1099.42 937.596,1100.92 940.558,1102.42 943.519,1103.92 946.481,1105.4 949.442,1106.88 952.403,1108.35 955.365,1109.82 958.326,1111.28 961.288,1112.73 964.249,1114.17 967.211,1115.61 970.172,1117.04 973.134,1118.47 976.095,1119.88 979.056,1121.3 982.018,1122.7 984.979,1124.1 987.941,1125.49 990.902,1126.87 993.864,1128.25 996.825,1129.63 999.787,1130.99 1002.75,1132.35 1005.71,1133.7 1008.67,1135.05 1011.63,1136.39 1014.59,1137.73 1017.56,1139.06 1020.52,1140.38 1023.48,1141.69 1026.44,1143 1029.4,1144.31 1032.36,1145.61 1035.32,1146.9 1038.29,1148.18 1041.25,1149.46 1044.21,1150.74 1047.17,1152 1050.13,1153.27 1053.09,1154.52 1056.05,1155.77 1059.02,1157.02 1061.98,1158.26 1064.94,1159.49 1067.9,1160.72 1070.86,1161.94 1073.82,1163.15 1076.78,1164.36 1079.75,1165.57 1082.71,1166.77 1085.67,1167.96 1088.63,1169.15 1091.59,1170.33 1094.55,1171.51 1097.51,1172.68 1100.48,1173.84 1103.44,1175 1106.4,1176.16 1109.36,1177.31 1112.32,1178.45 1115.28,1179.59 1118.24,1180.72 1121.21,1181.85 1124.17,1182.97 1127.13,1184.09 1130.09,1185.2 1133.05,1186.31 1136.01,1187.41 1138.97,1188.5 1141.94,1189.6 1144.9,1190.68 1147.86,1191.76 1150.82,1192.84 1153.78,1193.91 1156.74,1194.97 1159.7,1196.04 1162.67,1197.09 1165.63,1198.14 1168.59,1199.19 1171.55,1200.23 1174.51,1201.26 1177.47,1202.29 1180.43,1203.32 1183.4,1204.34 1186.36,1205.36 1189.32,1206.37 1192.28,1207.38 1195.24,1208.38 1198.2,1209.38 1201.16,1210.37 1204.13,1211.36 1207.09,1212.34 1210.05,1213.32 1213.01,1214.29 1215.97,1215.26 1218.93,1216.23 1221.89,1217.19 1224.86,1218.14 1227.82,1219.09 1230.78,1220.04 1233.74,1220.98 1236.7,1221.92 1239.66,1222.85 1242.62,1223.78 1245.59,1224.7 1248.55,1225.62 1251.51,1226.54 1254.47,1227.45 1257.43,1228.35 1260.39,1229.26 1263.36,1230.15 1266.32,1231.05 1269.28,1231.94 1272.24,1232.82 1275.2,1233.7 1278.16,1234.58 1281.12,1235.45 1284.09,1236.32 1287.05,1237.18 1290.01,1238.04 1292.97,1238.89 1295.93,1239.75 1298.89,1240.59 1301.85,1241.44 1304.82,1242.27 1307.78,1243.11 1310.74,1243.94 1313.7,1244.77 1316.66,1245.59 1319.62,1246.41 1322.58,1247.22 1325.55,1248.03 1328.51,1248.84 1331.47,1249.64 1334.43,1250.44 1337.39,1251.23 1340.35,1252.02 1343.31,1252.81 1346.28,1253.59 1349.24,1254.37 1352.2,1255.15 1355.16,1255.92 1358.12,1256.69 1361.08,1257.45 1364.04,1258.21 1367.01,1258.97 1369.97,1259.72 1372.93,1260.47 1375.89,1261.21 1378.85,1261.95 1381.81,1262.69 1384.77,1263.42 1387.74,1264.15 1390.7,1264.88 1393.66,1265.6 1396.62,1266.32 1399.58,1267.04 1402.54,1267.75 1405.5,1268.46 1408.47,1269.17 1411.43,1269.87 1414.39,1270.57 1417.35,1271.26 1420.31,1271.95 1423.27,1272.64 1426.23,1273.32 1429.2,1274 1432.16,1274.68 1435.12,1275.36 1438.08,1276.03 1441.04,1276.69 1444,1277.36 1446.96,1278.02 1449.93,1278.68 1452.89,1279.33 1455.85,1279.98 1458.81,1280.63 1461.77,1281.27 1464.73,1281.92 1467.69,1282.55 1470.66,1283.19 1473.62,1283.82 1476.58,1284.45 1479.54,1285.07 1482.5,1285.7 1485.46,1286.32 1488.42,1286.93 1491.39,1287.54 1494.35,1288.15 1497.31,1288.76 1500.27,1289.36 1503.23,1289.96 1506.19,1290.56 1509.15,1291.15 1512.12,1291.75 1515.08,1292.33 1518.04,1292.92 1521,1293.5 1523.96,1294.08 1526.92,1294.66 1529.88,1295.23 1532.85,1295.8 1535.81,1296.37 1538.77,1296.93 1541.73,1297.49 1544.69,1298.05 1547.65,1298.61 1550.62,1299.16 1553.58,1299.71 1556.54,1300.26 1559.5,1300.8 1562.46,1301.34 1565.42,1301.88 1568.38,1302.42 1571.35,1302.95 1574.31,1303.48 1577.27,1304.01 1580.23,1304.54 1583.19,1305.06 1586.15,1305.58 1589.11,1306.09 1592.08,1306.61 1595.04,1307.12 1598,1307.63 1600.96,1308.13 1603.92,1308.64 1606.88,1309.14 1609.84,1309.64 1612.81,1310.13 1615.77,1310.63 1618.73,1311.12 1621.69,1311.6 1624.65,1312.09 1627.61,1312.57 1630.57,1313.05 1633.54,1313.53 1636.5,1314.01 1639.46,1314.48 1642.42,1314.95 1645.38,1315.42 1648.34,1315.88 1651.3,1316.34 1654.27,1316.8 1657.23,1317.26 1660.19,1317.72 1663.15,1318.17 1666.11,1318.62 1669.07,1319.07 1672.03,1319.52 1675,1319.96 1677.96,1320.4 1680.92,1320.84 1683.88,1321.28 1686.84,1321.71 1689.8,1322.15 1692.76,1322.58 1695.73,1323 1698.69,1323.43 1701.65,1323.85 1704.61,1324.27 1707.57,1324.69 1710.53,1325.11 1713.49,1325.52 1716.46,1325.94 1719.42,1326.35 1722.38,1326.75 1725.34,1327.16 1728.3,1327.56 1731.26,1327.97 1734.22,1328.36 1737.19,1328.76 1740.15,1329.16 1743.11,1329.55 1746.07,1329.94 1749.03,1330.33 1751.99,1330.72 1754.95,1331.1 1757.92,1331.49 1760.88,1331.87 1763.84,1332.25 1766.8,1332.62 1769.76,1333 1772.72,1333.37 1775.68,1333.74 1778.65,1334.11 1781.61,1334.48 1784.57,1334.84 1787.53,1335.21 1790.49,1335.57 1793.45,1335.93 1796.41,1336.28 1799.38,1336.64 1802.34,1336.99 1805.3,1337.34 1808.26,1337.69 1811.22,1338.04 1814.18,1338.39 1817.14,1338.73 1820.11,1339.07 1823.07,1339.41 1826.03,1339.75 1828.99,1340.09 1831.95,1340.42 1834.91,1340.76 1837.88,1341.09 1840.84,1341.42 1843.8,1341.74 1846.76,1342.07 1849.72,1342.39 1852.68,1342.72 1855.64,1343.04 1858.61,1343.36 1861.57,1343.67 1864.53,1343.99 1867.49,1344.3 1870.45,1344.62 1873.41,1344.93 1876.37,1345.23 1879.34,1345.54 1882.3,1345.85 1885.26,1346.15 1888.22,1346.45 1891.18,1346.75 1894.14,1347.05 1897.1,1347.35 1900.07,1347.64 1903.03,1347.94 1905.99,1348.23 1908.95,1348.52 1911.91,1348.81 1914.87,1349.1 1917.83,1349.39 1920.8,1349.67 1923.76,1349.95 1926.72,1350.23 1929.68,1350.51 1932.64,1350.79 1935.6,1351.07 1938.56,1351.35 1941.53,1351.62 1944.49,1351.89 1947.45,1352.16 1950.41,1352.43 1953.37,1352.7 1956.33,1352.97 1959.29,1353.23 1962.26,1353.5 1965.22,1353.76 1968.18,1354.02 1971.14,1354.28 1974.1,1354.54 1977.06,1354.79 1980.02,1355.05 1982.99,1355.3 1985.95,1355.56 1988.91,1355.81 1991.87,1356.06 1994.83,1356.31 1997.79,1356.55 2000.75,1356.8 2003.72,1357.05 2006.68,1357.29 2009.64,1357.53 2012.6,1357.77 2015.56,1358.01 2018.52,1358.25 2021.48,1358.49 2024.45,1358.72 2027.41,1358.96 2030.37,1359.19 2033.33,1359.42 2036.29,1359.65 2039.25,1359.88 2042.21,1360.11 2045.18,1360.34 2048.14,1360.56 2051.1,1360.79 2054.06,1361.01 2057.02,1361.23 2059.98,1361.45 2062.94,1361.67 2065.91,1361.89 2068.87,1362.11 2071.83,1362.33 2074.79,1362.54 2077.75,1362.76 2080.71,1362.97 2083.67,1363.18 2086.64,1363.39 2089.6,1363.6 2092.56,1363.81 2095.52,1364.01 2098.48,1364.22 2101.44,1364.42 2104.4,1364.63 2107.37,1364.83 2110.33,1365.03 2113.29,1365.23 2116.25,1365.43 2119.21,1365.63 2122.17,1365.83 2125.14,1366.02 2128.1,1366.22 2131.06,1366.41 2134.02,1366.6 2136.98,1366.8 2139.94,1366.99 2142.9,1367.18 2145.87,1367.36 2148.83,1367.55 2151.79,1367.74 2154.75,1367.92 2157.71,1368.11 2160.67,1368.29 2163.63,1368.47 2166.6,1368.66 2169.56,1368.84 2172.52,1369.02 2175.48,1369.19 2178.44,1369.37 2181.4,1369.55 2184.36,1369.72 2187.33,1369.9 2190.29,1370.07 2193.25,1370.25 2196.21,1370.42 2199.17,1370.59 2202.13,1370.76 2205.09,1370.93 2208.06,1371.1 2211.02,1371.26 2213.98,1371.43 2216.94,1371.6 2219.9,1371.76 2222.86,1371.92 2225.82,1372.09 2228.79,1372.25 2231.75,1372.41 2234.71,1372.57 2237.67,1372.73 2240.63,1372.89 2243.59,1373.04 2246.55,1373.2 2249.52,1373.36 2252.48,1373.51 2255.44,1373.67 2258.4,1373.82 2261.36,1373.97 2264.32,1374.13 2267.28,1374.28 2270.25,1374.43 2273.21,1374.58 2276.17,1374.72 2279.13,1374.87 2282.09,1375.02 2285.05,1375.17 2288.01,1375.31 2290.98,1375.46 2293.94,1375.6 2296.9,1375.74 2299.86,1375.89 2302.82,1376.03 2305.78,1376.17 2308.74,1376.31 2311.71,1376.45 2314.67,1376.59 2317.63,1376.73 2320.59,1376.86 2323.55,1377 2326.51,1377.14 2329.47,1377.27 2332.44,1377.41 2335.4,1377.54 2338.36,1377.67 2341.32,1377.8 2344.28,1377.94 2347.24,1378.07 2350.2,1378.2 2353.17,1378.33 2356.13,1378.46 2359.09,1378.58 2362.05,1378.71 2365.01,1378.84 2367.97,1378.96 2370.93,1379.09 2373.9,1379.21 2376.86,1379.34 2379.82,1379.46 2382.78,1379.58 2385.74,1379.71 2388.7,1379.83 2391.66,1379.95 2394.63,1380.07 2397.59,1380.19 2400.55,1380.31 2403.51,1380.43 2406.47,1380.54 2409.43,1380.66 2412.4,1380.78 2415.36,1380.89 2418.32,1381.01 2421.28,1381.12 2424.24,1381.23 2427.2,1381.35 2430.16,1381.46 2433.13,1381.57 2436.09,1381.68 2439.05,1381.8 2442.01,1381.91 2444.97,1382.01 2447.93,1382.12 2450.89,1382.23 2453.86,1382.34 2456.82,1382.45 2459.78,1382.55 2462.74,1382.66 2465.7,1382.77 2468.66,1382.87 2471.62,1382.98 2474.59,1383.08 2477.55,1383.18 2480.51,1383.29 2483.47,1383.39 2486.43,1383.49 2489.39,1383.59 2492.35,1383.69 2495.32,1383.79 2498.28,1383.89 2501.24,1383.99 2504.2,1384.09 2507.16,1384.19 2510.12,1384.28 2513.08,1384.38 2516.05,1384.48 2519.01,1384.57 2521.97,1384.67 2524.93,1384.76 2527.89,1384.86 2530.85,1384.95 2533.81,1385.05 2536.78,1385.14 2539.74,1385.23 2542.7,1385.32 2545.66,1385.42 2548.62,1385.51 2551.58,1385.6 2554.54,1385.69 2557.51,1385.78 2560.47,1385.87 2563.43,1385.96 2566.39,1386.04 2569.35,1386.13 2572.31,1386.22 2575.27,1386.31 2578.24,1386.39 2581.2,1386.48 2584.16,1386.56 2587.12,1386.65 2590.08,1386.73 2593.04,1386.82 2596,1386.9 2598.97,1386.99 2601.93,1387.07 2604.89,1387.15 2607.85,1387.23 2610.81,1387.32 2613.77,1387.4 2616.73,1387.48 2619.7,1387.56 2622.66,1387.64 2625.62,1387.72 2628.58,1387.8 2631.54,1387.88 2634.5,1387.96 2637.46,1388.03 2640.43,1388.11 2643.39,1388.19 2646.35,1388.27 2649.31,1388.34 2652.27,1388.42 2655.23,1388.49 2658.19,1388.57 2661.16,1388.64 2664.12,1388.72 2667.08,1388.79 2670.04,1388.87 2673,1388.94 2675.96,1389.01 2678.92,1389.09 2681.89,1389.16 2684.85,1389.23 2687.81,1389.3 2690.77,1389.37 2693.73,1389.44 2696.69,1389.51 2699.66,1389.58 2702.62,1389.65 2705.58,1389.72 2708.54,1389.79 2711.5,1389.86 2714.46,1389.93 2717.42,1390 2720.39,1390.06 2723.35,1390.13 2726.31,1390.2 2729.27,1390.26 2732.23,1390.33 2735.19,1390.4 2738.15,1390.46 2741.12,1390.53 2744.08,1390.59 2747.04,1390.66 2750,1390.72 2752.96,1390.78 2755.92,1390.85 2758.88,1390.91 2761.85,1390.97 2764.81,1391.04 2767.77,1391.1 2770.73,1391.16 2773.69,1391.22 2776.65,1391.28 2779.61,1391.34 2782.58,1391.41 2785.54,1391.47 2788.5,1391.53 2791.46,1391.59 2794.42,1391.64 2797.38,1391.7 2800.34,1391.76 2803.31,1391.82 2806.27,1391.88 2809.23,1391.94 2812.19,1392 2815.15,1392.05 2818.11,1392.11 2821.07,1392.17 2824.04,1392.22 2827,1392.28 2829.96,1392.33 2832.92,1392.39 2835.88,1392.45 2838.84,1392.5 2841.8,1392.56 2844.77,1392.61 2847.73,1392.66 2850.69,1392.72 2853.65,1392.77 2856.61,1392.83 2859.57,1392.88 2862.53,1392.93 2865.5,1392.98 2868.46,1393.04 2871.42,1393.09 2874.38,1393.14 2877.34,1393.19 2880.3,1393.24 2883.26,1393.29 2886.23,1393.35 2889.19,1393.4 2892.15,1393.45 2895.11,1393.5 2898.07,1393.55 2901.03,1393.6 2903.99,1393.64 2906.96,1393.69 2909.92,1393.74 2912.88,1393.79 2915.84,1393.84 2918.8,1393.89 2921.76,1393.94 2924.72,1393.98 2927.69,1394.03 2930.65,1394.08 2933.61,1394.13 2936.57,1394.17 2939.53,1394.22 2942.49,1394.27 2945.45,1394.31 2948.42,1394.36 2951.38,1394.4 2954.34,1394.45 2957.3,1394.49 2960.26,1394.54 2963.22,1394.58 2966.18,1394.63 2969.15,1394.67 2972.11,1394.72 2975.07,1394.76 2978.03,1394.8 2980.99,1394.85 2983.95,1394.89 2986.92,1394.93 2989.88,1394.98 2992.84,1395.02 2995.8,1395.06 2998.76,1395.1 3001.72,1395.14 3004.68,1395.19 3007.65,1395.23 3010.61,1395.27 3013.57,1395.31 3016.53,1395.35 3019.49,1395.39 3022.45,1395.43 3025.41,1395.47 3028.38,1395.51 3031.34,1395.55 3034.3,1395.59 3037.26,1395.63 3040.22,1395.67 3043.18,1395.71 3046.14,1395.75 3049.11,1395.79 3052.07,1395.83 3055.03,1395.87 3057.99,1395.9 3060.95,1395.94 3063.91,1395.98 3066.87,1396.02 3069.84,1396.05 3072.8,1396.09 3075.76,1396.13 3078.72,1396.17 3081.68,1396.2 3084.64,1396.24 3087.6,1396.28 3090.57,1396.31 3093.53,1396.35 3096.49,1396.38 3099.45,1396.42 3102.41,1396.45 3105.37,1396.49 3108.33,1396.53 3111.3,1396.56 3114.26,1396.6 3117.22,1396.63 3120.18,1396.66 3123.14,1396.7 3126.1,1396.73 3129.06,1396.77 3132.03,1396.8 3134.99,1396.83 3137.95,1396.87 3140.91,1396.9 3143.87,1396.93 3146.83,1396.97 3149.79,1397 3152.76,1397.03 "/>
<polyline clip-path="url(#clip572)" style="stroke:#e26f46; stroke-linecap:round; stroke-linejoin:round; stroke-width:32; stroke-opacity:1; fill:none" points="194.274,1404.18 197.235,1404.14 200.197,1404.05 203.158,1403.89 206.12,1403.67 209.081,1403.39 212.043,1403.05 215.004,1402.66 217.966,1402.21 220.927,1401.71 223.888,1401.16 226.85,1400.55 229.811,1399.9 232.773,1399.19 235.734,1398.44 238.696,1397.65 241.657,1396.81 244.619,1395.92 247.58,1394.99 250.541,1394.02 253.503,1393.01 256.464,1391.96 259.426,1390.87 262.387,1389.74 265.349,1388.57 268.31,1387.37 271.272,1386.13 274.233,1384.86 277.194,1383.55 280.156,1382.21 283.117,1380.84 286.079,1379.43 289.04,1378 292.002,1376.54 294.963,1375.04 297.925,1373.52 300.886,1371.97 303.847,1370.39 306.809,1368.78 309.77,1367.15 312.732,1365.5 315.693,1363.81 318.655,1362.11 321.616,1360.38 324.578,1358.62 327.539,1356.84 330.5,1355.05 333.462,1353.22 336.423,1351.38 339.385,1349.52 342.346,1347.64 345.308,1345.73 348.269,1343.81 351.23,1341.87 354.192,1339.91 357.153,1337.93 360.115,1335.93 363.076,1333.92 366.038,1331.89 368.999,1329.84 371.961,1327.78 374.922,1325.7 377.883,1323.61 380.845,1321.5 383.806,1319.38 386.768,1317.24 389.729,1315.09 392.691,1312.92 395.652,1310.75 398.614,1308.55 401.575,1306.35 404.536,1304.13 407.498,1301.9 410.459,1299.66 413.421,1297.41 416.382,1295.15 419.344,1292.88 422.305,1290.59 425.267,1288.3 428.228,1285.99 431.189,1283.68 434.151,1281.35 437.112,1279.02 440.074,1276.67 443.035,1274.32 445.997,1271.96 448.958,1269.59 451.92,1267.21 454.881,1264.83 457.842,1262.44 460.804,1260.03 463.765,1257.63 466.727,1255.21 469.688,1252.79 472.65,1250.36 475.611,1247.92 478.573,1245.48 481.534,1243.03 484.495,1240.58 487.457,1238.12 490.418,1235.66 493.38,1233.18 496.341,1230.71 499.303,1228.23 502.264,1225.74 505.226,1223.25 508.187,1220.75 511.148,1218.25 514.11,1215.75 517.071,1213.24 520.033,1210.73 522.994,1208.21 525.956,1205.69 528.917,1203.16 531.879,1200.64 534.84,1198.11 537.801,1195.57 540.763,1193.03 543.724,1190.49 546.686,1187.95 549.647,1185.4 552.609,1182.85 555.57,1180.3 558.532,1177.75 561.493,1175.19 564.454,1172.64 567.416,1170.08 570.377,1167.52 573.339,1164.95 576.3,1162.39 579.262,1159.82 582.223,1157.25 585.185,1154.68 588.146,1152.11 591.107,1149.54 594.069,1146.97 597.03,1144.39 599.992,1141.82 602.953,1139.24 605.915,1136.67 608.876,1134.09 611.838,1131.51 614.799,1128.93 617.76,1126.36 620.722,1123.78 623.683,1121.2 626.645,1118.62 629.606,1116.04 632.568,1113.46 635.529,1110.88 638.491,1108.3 641.452,1105.73 644.413,1103.15 647.375,1100.57 650.336,1097.99 653.298,1095.42 656.259,1092.84 659.221,1090.27 662.182,1087.69 665.143,1085.12 668.105,1082.54 671.066,1079.97 674.028,1077.4 676.989,1074.83 679.951,1072.26 682.912,1069.7 685.874,1067.13 688.835,1064.57 691.796,1062 694.758,1059.44 697.719,1056.88 700.681,1054.32 703.642,1051.76 706.604,1049.21 709.565,1046.66 712.527,1044.1 715.488,1041.55 718.449,1039.01 721.411,1036.46 724.372,1033.91 727.334,1031.37 730.295,1028.83 733.257,1026.29 736.218,1023.76 739.18,1021.22 742.141,1018.69 745.102,1016.16 748.064,1013.63 751.025,1011.11 753.987,1008.59 756.948,1006.07 759.91,1003.55 762.871,1001.03 765.833,998.52 768.794,996.01 771.755,993.503 774.717,990.998 777.678,988.496 780.64,985.997 783.601,983.5 786.563,981.006 789.524,978.515 792.486,976.027 795.447,973.542 798.408,971.06 801.37,968.581 804.331,966.105 807.293,963.632 810.254,961.162 813.216,958.695 816.177,956.231 819.139,953.77 822.1,951.313 825.061,948.859 828.023,946.408 830.984,943.96 833.946,941.516 836.907,939.075 839.869,936.638 842.83,934.203 845.792,931.773 848.753,929.345 851.714,926.921 854.676,924.501 857.637,922.084 860.599,919.671 863.56,917.261 866.522,914.855 869.483,912.453 872.445,910.054 875.406,907.658 878.367,905.267 881.329,902.879 884.29,900.495 887.252,898.114 890.213,895.737 893.175,893.364 896.136,890.995 899.098,888.63 902.059,886.268 905.02,883.91 907.982,881.556 910.943,879.206 913.905,876.86 916.866,874.518 919.828,872.179 922.789,869.845 925.751,867.515 928.712,865.188 931.673,862.866 934.635,860.547 937.596,858.233 940.558,855.923 943.519,853.616 946.481,851.314 949.442,849.016 952.403,846.722 955.365,844.432 958.326,842.146 961.288,839.865 964.249,837.587 967.211,835.314 970.172,833.045 973.134,830.78 976.095,828.519 979.056,826.262 982.018,824.01 984.979,821.762 987.941,819.519 990.902,817.279 993.864,815.044 996.825,812.813 999.787,810.586 1002.75,808.364 1005.71,806.146 1008.67,803.933 1011.63,801.724 1014.59,799.519 1017.56,797.318 1020.52,795.122 1023.48,792.931 1026.44,790.743 1029.4,788.56 1032.36,786.382 1035.32,784.208 1038.29,782.038 1041.25,779.873 1044.21,777.712 1047.17,775.556 1050.13,773.404 1053.09,771.257 1056.05,769.114 1059.02,766.976 1061.98,764.842 1064.94,762.712 1067.9,760.587 1070.86,758.467 1073.82,756.351 1076.78,754.239 1079.75,752.132 1082.71,750.03 1085.67,747.932 1088.63,745.838 1091.59,743.749 1094.55,741.665 1097.51,739.585 1100.48,737.51 1103.44,735.439 1106.4,733.373 1109.36,731.311 1112.32,729.254 1115.28,727.202 1118.24,725.154 1121.21,723.11 1124.17,721.071 1127.13,719.037 1130.09,717.007 1133.05,714.982 1136.01,712.962 1138.97,710.946 1141.94,708.935 1144.9,706.928 1147.86,704.926 1150.82,702.929 1153.78,700.936 1156.74,698.947 1159.7,696.964 1162.67,694.985 1165.63,693.01 1168.59,691.041 1171.55,689.075 1174.51,687.115 1177.47,685.159 1180.43,683.208 1183.4,681.261 1186.36,679.319 1189.32,677.382 1192.28,675.449 1195.24,673.521 1198.2,671.598 1201.16,669.679 1204.13,667.765 1207.09,665.855 1210.05,663.95 1213.01,662.05 1215.97,660.155 1218.93,658.264 1221.89,656.377 1224.86,654.496 1227.82,652.619 1230.78,650.747 1233.74,648.879 1236.7,647.016 1239.66,645.158 1242.62,643.304 1245.59,641.455 1248.55,639.611 1251.51,637.771 1254.47,635.936 1257.43,634.105 1260.39,632.279 1263.36,630.458 1266.32,628.641 1269.28,626.829 1272.24,625.022 1275.2,623.219 1278.16,621.421 1281.12,619.627 1284.09,617.838 1287.05,616.054 1290.01,614.274 1292.97,612.499 1295.93,610.729 1298.89,608.963 1301.85,607.201 1304.82,605.445 1307.78,603.692 1310.74,601.945 1313.7,600.202 1316.66,598.463 1319.62,596.729 1322.58,595 1325.55,593.275 1328.51,591.555 1331.47,589.84 1334.43,588.129 1337.39,586.422 1340.35,584.72 1343.31,583.023 1346.28,581.33 1349.24,579.642 1352.2,577.958 1355.16,576.279 1358.12,574.604 1361.08,572.934 1364.04,571.268 1367.01,569.607 1369.97,567.95 1372.93,566.298 1375.89,564.651 1378.85,563.008 1381.81,561.369 1384.77,559.735 1387.74,558.105 1390.7,556.48 1393.66,554.86 1396.62,553.244 1399.58,551.632 1402.54,550.025 1405.5,548.422 1408.47,546.824 1411.43,545.231 1414.39,543.641 1417.35,542.056 1420.31,540.476 1423.27,538.9 1426.23,537.329 1429.2,535.762 1432.16,534.199 1435.12,532.641 1438.08,531.088 1441.04,529.538 1444,527.994 1446.96,526.453 1449.93,524.917 1452.89,523.386 1455.85,521.858 1458.81,520.336 1461.77,518.817 1464.73,517.303 1467.69,515.794 1470.66,514.289 1473.62,512.788 1476.58,511.291 1479.54,509.799 1482.5,508.311 1485.46,506.828 1488.42,505.349 1491.39,503.874 1494.35,502.403 1497.31,500.937 1500.27,499.475 1503.23,498.018 1506.19,496.565 1509.15,495.116 1512.12,493.671 1515.08,492.23 1518.04,490.794 1521,489.362 1523.96,487.935 1526.92,486.511 1529.88,485.092 1532.85,483.677 1535.81,482.266 1538.77,480.86 1541.73,479.457 1544.69,478.059 1547.65,476.665 1550.62,475.275 1553.58,473.89 1556.54,472.508 1559.5,471.131 1562.46,469.758 1565.42,468.389 1568.38,467.024 1571.35,465.663 1574.31,464.307 1577.27,462.954 1580.23,461.606 1583.19,460.262 1586.15,458.922 1589.11,457.586 1592.08,456.254 1595.04,454.926 1598,453.602 1600.96,452.282 1603.92,450.967 1606.88,449.655 1609.84,448.348 1612.81,447.044 1615.77,445.745 1618.73,444.449 1621.69,443.158 1624.65,441.87 1627.61,440.587 1630.57,439.307 1633.54,438.032 1636.5,436.76 1639.46,435.493 1642.42,434.229 1645.38,432.97 1648.34,431.714 1651.3,430.462 1654.27,429.215 1657.23,427.971 1660.19,426.731 1663.15,425.495 1666.11,424.263 1669.07,423.035 1672.03,421.811 1675,420.59 1677.96,419.374 1680.92,418.161 1683.88,416.953 1686.84,415.748 1689.8,414.547 1692.76,413.35 1695.73,412.157 1698.69,410.967 1701.65,409.782 1704.61,408.6 1707.57,407.422 1710.53,406.248 1713.49,405.078 1716.46,403.911 1719.42,402.748 1722.38,401.589 1725.34,400.434 1728.3,399.283 1731.26,398.135 1734.22,396.991 1737.19,395.851 1740.15,394.715 1743.11,393.582 1746.07,392.453 1749.03,391.327 1751.99,390.206 1754.95,389.088 1757.92,387.973 1760.88,386.863 1763.84,385.756 1766.8,384.652 1769.76,383.553 1772.72,382.456 1775.68,381.364 1778.65,380.275 1781.61,379.19 1784.57,378.108 1787.53,377.03 1790.49,375.955 1793.45,374.884 1796.41,373.817 1799.38,372.753 1802.34,371.693 1805.3,370.636 1808.26,369.583 1811.22,368.533 1814.18,367.487 1817.14,366.444 1820.11,365.405 1823.07,364.369 1826.03,363.336 1828.99,362.307 1831.95,361.282 1834.91,360.26 1837.88,359.241 1840.84,358.226 1843.8,357.215 1846.76,356.206 1849.72,355.201 1852.68,354.2 1855.64,353.202 1858.61,352.207 1861.57,351.216 1864.53,350.228 1867.49,349.243 1870.45,348.262 1873.41,347.284 1876.37,346.309 1879.34,345.338 1882.3,344.37 1885.26,343.405 1888.22,342.444 1891.18,341.485 1894.14,340.531 1897.1,339.579 1900.07,338.631 1903.03,337.686 1905.99,336.744 1908.95,335.805 1911.91,334.87 1914.87,333.938 1917.83,333.009 1920.8,332.083 1923.76,331.161 1926.72,330.241 1929.68,329.325 1932.64,328.412 1935.6,327.503 1938.56,326.596 1941.53,325.693 1944.49,324.792 1947.45,323.895 1950.41,323.001 1953.37,322.11 1956.33,321.222 1959.29,320.338 1962.26,319.456 1965.22,318.578 1968.18,317.702 1971.14,316.83 1974.1,315.961 1977.06,315.095 1980.02,314.232 1982.99,313.372 1985.95,312.515 1988.91,311.661 1991.87,310.81 1994.83,309.962 1997.79,309.117 2000.75,308.275 2003.72,307.436 2006.68,306.6 2009.64,305.767 2012.6,304.937 2015.56,304.11 2018.52,303.286 2021.48,302.465 2024.45,301.647 2027.41,300.831 2030.37,300.019 2033.33,299.209 2036.29,298.403 2039.25,297.599 2042.21,296.798 2045.18,296 2048.14,295.205 2051.1,294.412 2054.06,293.623 2057.02,292.836 2059.98,292.052 2062.94,291.271 2065.91,290.493 2068.87,289.718 2071.83,288.945 2074.79,288.175 2077.75,287.408 2080.71,286.644 2083.67,285.882 2086.64,285.123 2089.6,284.367 2092.56,283.614 2095.52,282.863 2098.48,282.115 2101.44,281.37 2104.4,280.628 2107.37,279.888 2110.33,279.151 2113.29,278.416 2116.25,277.684 2119.21,276.955 2122.17,276.229 2125.14,275.505 2128.1,274.784 2131.06,274.065 2134.02,273.349 2136.98,272.636 2139.94,271.925 2142.9,271.217 2145.87,270.511 2148.83,269.808 2151.79,269.107 2154.75,268.41 2157.71,267.714 2160.67,267.021 2163.63,266.331 2166.6,265.643 2169.56,264.958 2172.52,264.275 2175.48,263.595 2178.44,262.918 2181.4,262.242 2184.36,261.57 2187.33,260.899 2190.29,260.232 2193.25,259.566 2196.21,258.903 2199.17,258.243 2202.13,257.585 2205.09,256.93 2208.06,256.277 2211.02,255.626 2213.98,254.978 2216.94,254.332 2219.9,253.688 2222.86,253.047 2225.82,252.409 2228.79,251.772 2231.75,251.138 2234.71,250.507 2237.67,249.878 2240.63,249.251 2243.59,248.626 2246.55,248.004 2249.52,247.384 2252.48,246.767 2255.44,246.152 2258.4,245.539 2261.36,244.928 2264.32,244.32 2267.28,243.714 2270.25,243.11 2273.21,242.509 2276.17,241.91 2279.13,241.313 2282.09,240.718 2285.05,240.126 2288.01,239.535 2290.98,238.947 2293.94,238.362 2296.9,237.778 2299.86,237.197 2302.82,236.618 2305.78,236.041 2308.74,235.466 2311.71,234.894 2314.67,234.323 2317.63,233.755 2320.59,233.189 2323.55,232.625 2326.51,232.063 2329.47,231.504 2332.44,230.946 2335.4,230.391 2338.36,229.837 2341.32,229.286 2344.28,228.737 2347.24,228.19 2350.2,227.645 2353.17,227.102 2356.13,226.561 2359.09,226.023 2362.05,225.486 2365.01,224.951 2367.97,224.419 2370.93,223.888 2373.9,223.36 2376.86,222.833 2379.82,222.308 2382.78,221.786 2385.74,221.265 2388.7,220.747 2391.66,220.23 2394.63,219.716 2397.59,219.203 2400.55,218.692 2403.51,218.184 2406.47,217.677 2409.43,217.172 2412.4,216.669 2415.36,216.168 2418.32,215.669 2421.28,215.172 2424.24,214.677 2427.2,214.184 2430.16,213.692 2433.13,213.203 2436.09,212.715 2439.05,212.229 2442.01,211.745 2444.97,211.263 2447.93,210.783 2450.89,210.305 2453.86,209.828 2456.82,209.354 2459.78,208.881 2462.74,208.41 2465.7,207.941 2468.66,207.473 2471.62,207.008 2474.59,206.544 2477.55,206.082 2480.51,205.622 2483.47,205.163 2486.43,204.707 2489.39,204.252 2492.35,203.799 2495.32,203.347 2498.28,202.898 2501.24,202.45 2504.2,202.004 2507.16,201.56 2510.12,201.117 2513.08,200.676 2516.05,200.237 2519.01,199.799 2521.97,199.364 2524.93,198.93 2527.89,198.497 2530.85,198.066 2533.81,197.637 2536.78,197.21 2539.74,196.784 2542.7,196.361 2545.66,195.938 2548.62,195.517 2551.58,195.098 2554.54,194.681 2557.51,194.265 2560.47,193.851 2563.43,193.439 2566.39,193.028 2569.35,192.619 2572.31,192.211 2575.27,191.805 2578.24,191.4 2581.2,190.998 2584.16,190.596 2587.12,190.197 2590.08,189.799 2593.04,189.402 2596,189.007 2598.97,188.614 2601.93,188.222 2604.89,187.832 2607.85,187.443 2610.81,187.056 2613.77,186.67 2616.73,186.286 2619.7,185.903 2622.66,185.522 2625.62,185.142 2628.58,184.764 2631.54,184.388 2634.5,184.012 2637.46,183.639 2640.43,183.267 2643.39,182.896 2646.35,182.527 2649.31,182.159 2652.27,181.793 2655.23,181.428 2658.19,181.064 2661.16,180.702 2664.12,180.342 2667.08,179.982 2670.04,179.625 2673,179.268 2675.96,178.914 2678.92,178.56 2681.89,178.208 2684.85,177.857 2687.81,177.508 2690.77,177.16 2693.73,176.814 2696.69,176.469 2699.66,176.125 2702.62,175.782 2705.58,175.441 2708.54,175.102 2711.5,174.763 2714.46,174.426 2717.42,174.091 2720.39,173.756 2723.35,173.423 2726.31,173.092 2729.27,172.761 2732.23,172.432 2735.19,172.105 2738.15,171.778 2741.12,171.453 2744.08,171.129 2747.04,170.807 2750,170.486 2752.96,170.166 2755.92,169.847 2758.88,169.53 2761.85,169.214 2764.81,168.899 2767.77,168.585 2770.73,168.273 2773.69,167.962 2776.65,167.652 2779.61,167.343 2782.58,167.036 2785.54,166.73 2788.5,166.425 2791.46,166.121 2794.42,165.819 2797.38,165.517 2800.34,165.217 2803.31,164.918 2806.27,164.621 2809.23,164.324 2812.19,164.029 2815.15,163.735 2818.11,163.442 2821.07,163.15 2824.04,162.86 2827,162.57 2829.96,162.282 2832.92,161.995 2835.88,161.709 2838.84,161.424 2841.8,161.141 2844.77,160.858 2847.73,160.577 2850.69,160.297 2853.65,160.017 2856.61,159.74 2859.57,159.463 2862.53,159.187 2865.5,158.912 2868.46,158.639 2871.42,158.367 2874.38,158.095 2877.34,157.825 2880.3,157.556 2883.26,157.288 2886.23,157.021 2889.19,156.755 2892.15,156.491 2895.11,156.227 2898.07,155.964 2901.03,155.703 2903.99,155.442 2906.96,155.183 2909.92,154.924 2912.88,154.667 2915.84,154.411 2918.8,154.156 2921.76,153.901 2924.72,153.648 2927.69,153.396 2930.65,153.145 2933.61,152.895 2936.57,152.646 2939.53,152.398 2942.49,152.151 2945.45,151.905 2948.42,151.66 2951.38,151.416 2954.34,151.173 2957.3,150.93 2960.26,150.689 2963.22,150.449 2966.18,150.21 2969.15,149.972 2972.11,149.735 2975.07,149.498 2978.03,149.263 2980.99,149.029 2983.95,148.796 2986.92,148.563 2989.88,148.332 2992.84,148.101 2995.8,147.871 2998.76,147.643 3001.72,147.415 3004.68,147.188 3007.65,146.962 3010.61,146.738 3013.57,146.513 3016.53,146.29 3019.49,146.068 3022.45,145.847 3025.41,145.626 3028.38,145.407 3031.34,145.188 3034.3,144.971 3037.26,144.754 3040.22,144.538 3043.18,144.323 3046.14,144.109 3049.11,143.895 3052.07,143.683 3055.03,143.471 3057.99,143.261 3060.95,143.051 3063.91,142.842 3066.87,142.634 3069.84,142.426 3072.8,142.22 3075.76,142.014 3078.72,141.81 3081.68,141.606 3084.64,141.403 3087.6,141.2 3090.57,140.999 3093.53,140.798 3096.49,140.599 3099.45,140.4 3102.41,140.202 3105.37,140.004 3108.33,139.808 3111.3,139.612 3114.26,139.417 3117.22,139.223 3120.18,139.03 3123.14,138.837 3126.1,138.646 3129.06,138.455 3132.03,138.265 3134.99,138.075 3137.95,137.887 3140.91,137.699 3143.87,137.512 3146.83,137.326 3149.79,137.14 3152.76,136.955 "/>
<circle clip-path="url(#clip572)" cx="490.122" cy="797.67" r="21.6" fill="#0000ff" fill-rule="evenodd" fill-opacity="1" stroke="#000000" stroke-opacity="1" stroke-width="3.2"/>
<circle clip-path="url(#clip572)" cx="785.97" cy="1024.4" r="21.6" fill="#0000ff" fill-rule="evenodd" fill-opacity="1" stroke="#000000" stroke-opacity="1" stroke-width="3.2"/>
<circle clip-path="url(#clip572)" cx="1081.82" cy="1152.95" r="21.6" fill="#0000ff" fill-rule="evenodd" fill-opacity="1" stroke="#000000" stroke-opacity="1" stroke-width="3.2"/>
<circle clip-path="url(#clip572)" cx="1377.67" cy="1253.99" r="21.6" fill="#0000ff" fill-rule="evenodd" fill-opacity="1" stroke="#000000" stroke-opacity="1" stroke-width="3.2"/>
<circle clip-path="url(#clip572)" cx="1673.51" cy="1326.21" r="21.6" fill="#0000ff" fill-rule="evenodd" fill-opacity="1" stroke="#000000" stroke-opacity="1" stroke-width="3.2"/>
<circle clip-path="url(#clip572)" cx="1969.36" cy="1362.76" r="21.6" fill="#0000ff" fill-rule="evenodd" fill-opacity="1" stroke="#000000" stroke-opacity="1" stroke-width="3.2"/>
<circle clip-path="url(#clip572)" cx="2265.21" cy="1369" r="21.6" fill="#0000ff" fill-rule="evenodd" fill-opacity="1" stroke="#000000" stroke-opacity="1" stroke-width="3.2"/>
<circle clip-path="url(#clip572)" cx="2561.06" cy="1388.38" r="21.6" fill="#0000ff" fill-rule="evenodd" fill-opacity="1" stroke="#000000" stroke-opacity="1" stroke-width="3.2"/>
<circle clip-path="url(#clip572)" cx="2856.91" cy="1390.64" r="21.6" fill="#0000ff" fill-rule="evenodd" fill-opacity="1" stroke="#000000" stroke-opacity="1" stroke-width="3.2"/>
<circle clip-path="url(#clip572)" cx="3152.76" cy="1397.98" r="21.6" fill="#0000ff" fill-rule="evenodd" fill-opacity="1" stroke="#000000" stroke-opacity="1" stroke-width="3.2"/>
<circle clip-path="url(#clip572)" cx="490.122" cy="1259.27" r="21.6" fill="#ff0000" fill-rule="evenodd" fill-opacity="1" stroke="#000000" stroke-opacity="1" stroke-width="3.2"/>
<circle clip-path="url(#clip572)" cx="785.97" cy="968.538" r="21.6" fill="#ff0000" fill-rule="evenodd" fill-opacity="1" stroke="#000000" stroke-opacity="1" stroke-width="3.2"/>
<circle clip-path="url(#clip572)" cx="1081.82" cy="687.263" r="21.6" fill="#ff0000" fill-rule="evenodd" fill-opacity="1" stroke="#000000" stroke-opacity="1" stroke-width="3.2"/>
<circle clip-path="url(#clip572)" cx="1377.67" cy="443.687" r="21.6" fill="#ff0000" fill-rule="evenodd" fill-opacity="1" stroke="#000000" stroke-opacity="1" stroke-width="3.2"/>
<circle clip-path="url(#clip572)" cx="1673.51" cy="581.695" r="21.6" fill="#ff0000" fill-rule="evenodd" fill-opacity="1" stroke="#000000" stroke-opacity="1" stroke-width="3.2"/>
<circle clip-path="url(#clip572)" cx="1969.36" cy="437.08" r="21.6" fill="#ff0000" fill-rule="evenodd" fill-opacity="1" stroke="#000000" stroke-opacity="1" stroke-width="3.2"/>
<circle clip-path="url(#clip572)" cx="2265.21" cy="86.7664" r="21.6" fill="#ff0000" fill-rule="evenodd" fill-opacity="1" stroke="#000000" stroke-opacity="1" stroke-width="3.2"/>
<circle clip-path="url(#clip572)" cx="2561.06" cy="354.218" r="21.6" fill="#ff0000" fill-rule="evenodd" fill-opacity="1" stroke="#000000" stroke-opacity="1" stroke-width="3.2"/>
<circle clip-path="url(#clip572)" cx="2856.91" cy="108.805" r="21.6" fill="#ff0000" fill-rule="evenodd" fill-opacity="1" stroke="#000000" stroke-opacity="1" stroke-width="3.2"/>
<circle clip-path="url(#clip572)" cx="3152.76" cy="301.179" r="21.6" fill="#ff0000" fill-rule="evenodd" fill-opacity="1" stroke="#000000" stroke-opacity="1" stroke-width="3.2"/>
<path clip-path="url(#clip570)" d="M292.89 352.993 L858.181 352.993 L858.181 93.7926 L292.89 93.7926  Z" fill="#ffffff" fill-rule="evenodd" fill-opacity="1"/>
<polyline clip-path="url(#clip570)" style="stroke:#000000; stroke-linecap:round; stroke-linejoin:round; stroke-width:4; stroke-opacity:1; fill:none" points="292.89,352.993 858.181,352.993 858.181,93.7926 292.89,93.7926 292.89,352.993 "/>
<polyline clip-path="url(#clip570)" style="stroke:#009af9; stroke-linecap:round; stroke-linejoin:round; stroke-width:20; stroke-opacity:1; fill:none" points="325.762,145.633 522.994,145.633 "/>
<path clip-path="url(#clip570)" d="M555.866 128.353 L585.102 128.353 L585.102 132.288 L572.834 132.288 L572.834 162.913 L568.135 162.913 L568.135 132.288 L555.866 132.288 L555.866 128.353 Z" fill="#000000" fill-rule="nonzero" fill-opacity="1" /><path clip-path="url(#clip570)" d="M597.486 140.968 Q596.769 140.552 595.912 140.366 Q595.079 140.158 594.06 140.158 Q590.449 140.158 588.505 142.519 Q586.584 144.857 586.584 149.255 L586.584 162.913 L582.301 162.913 L582.301 136.987 L586.584 136.987 L586.584 141.015 Q587.926 138.653 590.079 137.519 Q592.232 136.362 595.31 136.362 Q595.75 136.362 596.283 136.431 Q596.815 136.478 597.463 136.593 L597.486 140.968 Z" fill="#000000" fill-rule="nonzero" fill-opacity="1" /><path clip-path="url(#clip570)" d="M601.514 152.681 L601.514 136.987 L605.773 136.987 L605.773 152.519 Q605.773 156.2 607.209 158.052 Q608.644 159.88 611.514 159.88 Q614.963 159.88 616.954 157.681 Q618.968 155.482 618.968 151.686 L618.968 136.987 L623.227 136.987 L623.227 162.913 L618.968 162.913 L618.968 158.931 Q617.417 161.292 615.357 162.45 Q613.32 163.584 610.611 163.584 Q606.144 163.584 603.829 160.806 Q601.514 158.028 601.514 152.681 M612.232 136.362 L612.232 136.362 Z" fill="#000000" fill-rule="nonzero" fill-opacity="1" /><path clip-path="url(#clip570)" d="M654.176 148.885 L654.176 150.968 L634.593 150.968 Q634.87 155.366 637.232 157.681 Q639.616 159.973 643.852 159.973 Q646.306 159.973 648.597 159.371 Q650.912 158.769 653.181 157.565 L653.181 161.593 Q650.889 162.565 648.481 163.075 Q646.074 163.584 643.597 163.584 Q637.394 163.584 633.759 159.973 Q630.148 156.362 630.148 150.204 Q630.148 143.839 633.574 140.112 Q637.023 136.362 642.857 136.362 Q648.088 136.362 651.12 139.741 Q654.176 143.098 654.176 148.885 M649.917 147.635 Q649.87 144.14 647.949 142.056 Q646.051 139.973 642.903 139.973 Q639.338 139.973 637.185 141.987 Q635.056 144.001 634.732 147.658 L649.917 147.635 Z" fill="#000000" fill-rule="nonzero" fill-opacity="1" /><path clip-path="url(#clip570)" d="M697.139 129.487 L697.139 134.047 Q694.477 132.774 692.116 132.149 Q689.754 131.524 687.555 131.524 Q683.736 131.524 681.653 133.005 Q679.592 134.487 679.592 137.218 Q679.592 139.51 680.958 140.691 Q682.347 141.848 686.19 142.566 L689.014 143.144 Q694.245 144.14 696.722 146.663 Q699.222 149.163 699.222 153.376 Q699.222 158.399 695.842 160.991 Q692.486 163.584 685.981 163.584 Q683.528 163.584 680.75 163.028 Q677.995 162.473 675.032 161.385 L675.032 156.57 Q677.879 158.167 680.611 158.977 Q683.342 159.788 685.981 159.788 Q689.986 159.788 692.162 158.214 Q694.338 156.64 694.338 153.723 Q694.338 151.177 692.764 149.741 Q691.213 148.306 687.648 147.589 L684.801 147.033 Q679.569 145.991 677.231 143.769 Q674.893 141.547 674.893 137.589 Q674.893 133.005 678.111 130.366 Q681.352 127.728 687.023 127.728 Q689.453 127.728 691.977 128.167 Q694.5 128.607 697.139 129.487 Z" fill="#000000" fill-rule="nonzero" fill-opacity="1" /><polyline clip-path="url(#clip570)" style="stroke:#e26f46; stroke-linecap:round; stroke-linejoin:round; stroke-width:20; stroke-opacity:1; fill:none" points="325.762,197.473 522.994,197.473 "/>
<path clip-path="url(#clip570)" d="M555.866 180.193 L585.102 180.193 L585.102 184.128 L572.834 184.128 L572.834 214.753 L568.135 214.753 L568.135 184.128 L555.866 184.128 L555.866 180.193 Z" fill="#000000" fill-rule="nonzero" fill-opacity="1" /><path clip-path="url(#clip570)" d="M597.486 192.808 Q596.769 192.392 595.912 192.206 Q595.079 191.998 594.06 191.998 Q590.449 191.998 588.505 194.359 Q586.584 196.697 586.584 201.095 L586.584 214.753 L582.301 214.753 L582.301 188.827 L586.584 188.827 L586.584 192.855 Q587.926 190.493 590.079 189.359 Q592.232 188.202 595.31 188.202 Q595.75 188.202 596.283 188.271 Q596.815 188.318 597.463 188.433 L597.486 192.808 Z" fill="#000000" fill-rule="nonzero" fill-opacity="1" /><path clip-path="url(#clip570)" d="M601.514 204.521 L601.514 188.827 L605.773 188.827 L605.773 204.359 Q605.773 208.04 607.209 209.892 Q608.644 211.72 611.514 211.72 Q614.963 211.72 616.954 209.521 Q618.968 207.322 618.968 203.526 L618.968 188.827 L623.227 188.827 L623.227 214.753 L618.968 214.753 L618.968 210.771 Q617.417 213.132 615.357 214.29 Q613.32 215.424 610.611 215.424 Q606.144 215.424 603.829 212.646 Q601.514 209.868 601.514 204.521 M612.232 188.202 L612.232 188.202 Z" fill="#000000" fill-rule="nonzero" fill-opacity="1" /><path clip-path="url(#clip570)" d="M654.176 200.725 L654.176 202.808 L634.593 202.808 Q634.87 207.206 637.232 209.521 Q639.616 211.813 643.852 211.813 Q646.306 211.813 648.597 211.211 Q650.912 210.609 653.181 209.405 L653.181 213.433 Q650.889 214.405 648.481 214.915 Q646.074 215.424 643.597 215.424 Q637.394 215.424 633.759 211.813 Q630.148 208.202 630.148 202.044 Q630.148 195.679 633.574 191.952 Q637.023 188.202 642.857 188.202 Q648.088 188.202 651.12 191.581 Q654.176 194.938 654.176 200.725 M649.917 199.475 Q649.87 195.98 647.949 193.896 Q646.051 191.813 642.903 191.813 Q639.338 191.813 637.185 193.827 Q635.056 195.841 634.732 199.498 L649.917 199.475 Z" fill="#000000" fill-rule="nonzero" fill-opacity="1" /><path clip-path="url(#clip570)" d="M681.097 184.035 L681.097 197.021 L686.977 197.021 Q690.241 197.021 692.023 195.331 Q693.805 193.642 693.805 190.517 Q693.805 187.415 692.023 185.725 Q690.241 184.035 686.977 184.035 L681.097 184.035 M676.421 180.193 L686.977 180.193 Q692.787 180.193 695.75 182.831 Q698.736 185.447 698.736 190.517 Q698.736 195.632 695.75 198.248 Q692.787 200.864 686.977 200.864 L681.097 200.864 L681.097 214.753 L676.421 214.753 L676.421 180.193 Z" fill="#000000" fill-rule="nonzero" fill-opacity="1" /><circle clip-path="url(#clip570)" cx="424.378" cy="249.313" r="21.2677" fill="#0000ff" fill-rule="evenodd" fill-opacity="1" stroke="#000000" stroke-opacity="1" stroke-width="3.15077"/>
<path clip-path="url(#clip570)" d="M555.866 232.033 L562.834 232.033 L571.653 255.551 L580.519 232.033 L587.486 232.033 L587.486 266.593 L582.926 266.593 L582.926 236.246 L574.014 259.949 L569.315 259.949 L560.403 236.246 L560.403 266.593 L555.866 266.593 L555.866 232.033 Z" fill="#000000" fill-rule="nonzero" fill-opacity="1" /><path clip-path="url(#clip570)" d="M618.759 252.565 L618.759 254.648 L599.176 254.648 Q599.454 259.046 601.815 261.361 Q604.199 263.653 608.435 263.653 Q610.889 263.653 613.181 263.051 Q615.496 262.449 617.764 261.245 L617.764 265.273 Q615.472 266.245 613.065 266.755 Q610.658 267.264 608.181 267.264 Q601.977 267.264 598.343 263.653 Q594.732 260.042 594.732 253.884 Q594.732 247.519 598.158 243.792 Q601.607 240.042 607.44 240.042 Q612.671 240.042 615.704 243.421 Q618.759 246.778 618.759 252.565 M614.5 251.315 Q614.454 247.82 612.533 245.736 Q610.634 243.653 607.486 243.653 Q603.922 243.653 601.769 245.667 Q599.639 247.681 599.315 251.338 L614.5 251.315 Z" fill="#000000" fill-rule="nonzero" fill-opacity="1" /><path clip-path="url(#clip570)" d="M637.532 253.56 Q632.37 253.56 630.38 254.741 Q628.389 255.921 628.389 258.769 Q628.389 261.037 629.87 262.38 Q631.375 263.699 633.945 263.699 Q637.486 263.699 639.616 261.199 Q641.769 258.676 641.769 254.509 L641.769 253.56 L637.532 253.56 M646.028 251.801 L646.028 266.593 L641.769 266.593 L641.769 262.657 Q640.31 265.019 638.134 266.153 Q635.958 267.264 632.81 267.264 Q628.829 267.264 626.468 265.042 Q624.13 262.796 624.13 259.046 Q624.13 254.671 627.046 252.449 Q629.986 250.227 635.796 250.227 L641.769 250.227 L641.769 249.81 Q641.769 246.871 639.824 245.273 Q637.903 243.653 634.407 243.653 Q632.185 243.653 630.079 244.185 Q627.972 244.718 626.028 245.783 L626.028 241.847 Q628.366 240.945 630.565 240.505 Q632.764 240.042 634.847 240.042 Q640.472 240.042 643.25 242.958 Q646.028 245.875 646.028 251.801 Z" fill="#000000" fill-rule="nonzero" fill-opacity="1" /><path clip-path="url(#clip570)" d="M671.329 241.431 L671.329 245.458 Q669.523 244.533 667.579 244.07 Q665.634 243.607 663.551 243.607 Q660.38 243.607 658.782 244.579 Q657.208 245.551 657.208 247.495 Q657.208 248.977 658.343 249.833 Q659.477 250.667 662.903 251.431 L664.361 251.755 Q668.898 252.727 670.796 254.509 Q672.717 256.269 672.717 259.44 Q672.717 263.051 669.847 265.157 Q667 267.264 662 267.264 Q659.917 267.264 657.648 266.847 Q655.403 266.454 652.903 265.644 L652.903 261.245 Q655.264 262.472 657.556 263.097 Q659.847 263.699 662.093 263.699 Q665.102 263.699 666.722 262.681 Q668.342 261.639 668.342 259.764 Q668.342 258.028 667.162 257.102 Q666.005 256.176 662.046 255.32 L660.565 254.972 Q656.606 254.139 654.847 252.426 Q653.088 250.69 653.088 247.681 Q653.088 244.023 655.681 242.033 Q658.273 240.042 663.042 240.042 Q665.403 240.042 667.486 240.389 Q669.569 240.736 671.329 241.431 Z" fill="#000000" fill-rule="nonzero" fill-opacity="1" /><path clip-path="url(#clip570)" d="M679.06 256.361 L679.06 240.667 L683.319 240.667 L683.319 256.199 Q683.319 259.88 684.754 261.732 Q686.19 263.56 689.06 263.56 Q692.509 263.56 694.5 261.361 Q696.514 259.162 696.514 255.366 L696.514 240.667 L700.773 240.667 L700.773 266.593 L696.514 266.593 L696.514 262.611 Q694.963 264.972 692.903 266.13 Q690.866 267.264 688.157 267.264 Q683.69 267.264 681.375 264.486 Q679.06 261.708 679.06 256.361 M689.778 240.042 L689.778 240.042 Z" fill="#000000" fill-rule="nonzero" fill-opacity="1" /><path clip-path="url(#clip570)" d="M724.569 244.648 Q723.851 244.232 722.995 244.046 Q722.162 243.838 721.143 243.838 Q717.532 243.838 715.588 246.199 Q713.666 248.537 713.666 252.935 L713.666 266.593 L709.384 266.593 L709.384 240.667 L713.666 240.667 L713.666 244.695 Q715.009 242.333 717.162 241.199 Q719.314 240.042 722.393 240.042 Q722.833 240.042 723.365 240.111 Q723.898 240.158 724.546 240.273 L724.569 244.648 Z" fill="#000000" fill-rule="nonzero" fill-opacity="1" /><path clip-path="url(#clip570)" d="M750.171 252.565 L750.171 254.648 L730.588 254.648 Q730.865 259.046 733.226 261.361 Q735.611 263.653 739.847 263.653 Q742.3 263.653 744.592 263.051 Q746.907 262.449 749.175 261.245 L749.175 265.273 Q746.884 266.245 744.476 266.755 Q742.069 267.264 739.592 267.264 Q733.388 267.264 729.754 263.653 Q726.143 260.042 726.143 253.884 Q726.143 247.519 729.569 243.792 Q733.018 240.042 738.851 240.042 Q744.083 240.042 747.115 243.421 Q750.171 246.778 750.171 252.565 M745.912 251.315 Q745.865 247.82 743.944 245.736 Q742.046 243.653 738.898 243.653 Q735.333 243.653 733.18 245.667 Q731.05 247.681 730.726 251.338 L745.912 251.315 Z" fill="#000000" fill-rule="nonzero" fill-opacity="1" /><path clip-path="url(#clip570)" d="M774.222 244.602 L774.222 230.574 L778.481 230.574 L778.481 266.593 L774.222 266.593 L774.222 262.704 Q772.879 265.019 770.819 266.153 Q768.782 267.264 765.911 267.264 Q761.212 267.264 758.249 263.514 Q755.31 259.764 755.31 253.653 Q755.31 247.542 758.249 243.792 Q761.212 240.042 765.911 240.042 Q768.782 240.042 770.819 241.176 Q772.879 242.287 774.222 244.602 M759.708 253.653 Q759.708 258.352 761.629 261.037 Q763.573 263.699 766.953 263.699 Q770.333 263.699 772.277 261.037 Q774.222 258.352 774.222 253.653 Q774.222 248.954 772.277 246.292 Q770.333 243.607 766.953 243.607 Q763.573 243.607 761.629 246.292 Q759.708 248.954 759.708 253.653 Z" fill="#000000" fill-rule="nonzero" fill-opacity="1" /><path clip-path="url(#clip570)" d="M823.226 233.167 L823.226 237.727 Q820.564 236.454 818.203 235.829 Q815.842 235.204 813.643 235.204 Q809.823 235.204 807.74 236.685 Q805.68 238.167 805.68 240.898 Q805.68 243.19 807.045 244.371 Q808.434 245.528 812.277 246.246 L815.101 246.824 Q820.332 247.82 822.809 250.343 Q825.309 252.843 825.309 257.056 Q825.309 262.079 821.93 264.671 Q818.573 267.264 812.069 267.264 Q809.615 267.264 806.837 266.708 Q804.082 266.153 801.12 265.065 L801.12 260.25 Q803.967 261.847 806.698 262.657 Q809.43 263.468 812.069 263.468 Q816.073 263.468 818.249 261.894 Q820.425 260.32 820.425 257.403 Q820.425 254.857 818.851 253.421 Q817.3 251.986 813.735 251.269 L810.888 250.713 Q805.657 249.671 803.319 247.449 Q800.981 245.227 800.981 241.269 Q800.981 236.685 804.198 234.046 Q807.439 231.408 813.11 231.408 Q815.541 231.408 818.064 231.847 Q820.587 232.287 823.226 233.167 Z" fill="#000000" fill-rule="nonzero" fill-opacity="1" /><circle clip-path="url(#clip570)" cx="424.378" cy="301.153" r="21.2677" fill="#ff0000" fill-rule="evenodd" fill-opacity="1" stroke="#000000" stroke-opacity="1" stroke-width="3.15077"/>
<path clip-path="url(#clip570)" d="M555.866 283.873 L562.834 283.873 L571.653 307.391 L580.519 283.873 L587.486 283.873 L587.486 318.433 L582.926 318.433 L582.926 288.086 L574.014 311.789 L569.315 311.789 L560.403 288.086 L560.403 318.433 L555.866 318.433 L555.866 283.873 Z" fill="#000000" fill-rule="nonzero" fill-opacity="1" /><path clip-path="url(#clip570)" d="M618.759 304.405 L618.759 306.488 L599.176 306.488 Q599.454 310.886 601.815 313.201 Q604.199 315.493 608.435 315.493 Q610.889 315.493 613.181 314.891 Q615.496 314.289 617.764 313.085 L617.764 317.113 Q615.472 318.085 613.065 318.595 Q610.658 319.104 608.181 319.104 Q601.977 319.104 598.343 315.493 Q594.732 311.882 594.732 305.724 Q594.732 299.359 598.158 295.632 Q601.607 291.882 607.44 291.882 Q612.671 291.882 615.704 295.261 Q618.759 298.618 618.759 304.405 M614.5 303.155 Q614.454 299.66 612.533 297.576 Q610.634 295.493 607.486 295.493 Q603.922 295.493 601.769 297.507 Q599.639 299.521 599.315 303.178 L614.5 303.155 Z" fill="#000000" fill-rule="nonzero" fill-opacity="1" /><path clip-path="url(#clip570)" d="M637.532 305.4 Q632.37 305.4 630.38 306.581 Q628.389 307.761 628.389 310.609 Q628.389 312.877 629.87 314.22 Q631.375 315.539 633.945 315.539 Q637.486 315.539 639.616 313.039 Q641.769 310.516 641.769 306.349 L641.769 305.4 L637.532 305.4 M646.028 303.641 L646.028 318.433 L641.769 318.433 L641.769 314.497 Q640.31 316.859 638.134 317.993 Q635.958 319.104 632.81 319.104 Q628.829 319.104 626.468 316.882 Q624.13 314.636 624.13 310.886 Q624.13 306.511 627.046 304.289 Q629.986 302.067 635.796 302.067 L641.769 302.067 L641.769 301.65 Q641.769 298.711 639.824 297.113 Q637.903 295.493 634.407 295.493 Q632.185 295.493 630.079 296.025 Q627.972 296.558 626.028 297.623 L626.028 293.687 Q628.366 292.785 630.565 292.345 Q632.764 291.882 634.847 291.882 Q640.472 291.882 643.25 294.798 Q646.028 297.715 646.028 303.641 Z" fill="#000000" fill-rule="nonzero" fill-opacity="1" /><path clip-path="url(#clip570)" d="M671.329 293.271 L671.329 297.298 Q669.523 296.373 667.579 295.91 Q665.634 295.447 663.551 295.447 Q660.38 295.447 658.782 296.419 Q657.208 297.391 657.208 299.335 Q657.208 300.817 658.343 301.673 Q659.477 302.507 662.903 303.271 L664.361 303.595 Q668.898 304.567 670.796 306.349 Q672.717 308.109 672.717 311.28 Q672.717 314.891 669.847 316.997 Q667 319.104 662 319.104 Q659.917 319.104 657.648 318.687 Q655.403 318.294 652.903 317.484 L652.903 313.085 Q655.264 314.312 657.556 314.937 Q659.847 315.539 662.093 315.539 Q665.102 315.539 666.722 314.521 Q668.342 313.479 668.342 311.604 Q668.342 309.868 667.162 308.942 Q666.005 308.016 662.046 307.16 L660.565 306.812 Q656.606 305.979 654.847 304.266 Q653.088 302.53 653.088 299.521 Q653.088 295.863 655.681 293.873 Q658.273 291.882 663.042 291.882 Q665.403 291.882 667.486 292.229 Q669.569 292.576 671.329 293.271 Z" fill="#000000" fill-rule="nonzero" fill-opacity="1" /><path clip-path="url(#clip570)" d="M679.06 308.201 L679.06 292.507 L683.319 292.507 L683.319 308.039 Q683.319 311.72 684.754 313.572 Q686.19 315.4 689.06 315.4 Q692.509 315.4 694.5 313.201 Q696.514 311.002 696.514 307.206 L696.514 292.507 L700.773 292.507 L700.773 318.433 L696.514 318.433 L696.514 314.451 Q694.963 316.812 692.903 317.97 Q690.866 319.104 688.157 319.104 Q683.69 319.104 681.375 316.326 Q679.06 313.548 679.06 308.201 M689.778 291.882 L689.778 291.882 Z" fill="#000000" fill-rule="nonzero" fill-opacity="1" /><path clip-path="url(#clip570)" d="M724.569 296.488 Q723.851 296.072 722.995 295.886 Q722.162 295.678 721.143 295.678 Q717.532 295.678 715.588 298.039 Q713.666 300.377 713.666 304.775 L713.666 318.433 L709.384 318.433 L709.384 292.507 L713.666 292.507 L713.666 296.535 Q715.009 294.173 717.162 293.039 Q719.314 291.882 722.393 291.882 Q722.833 291.882 723.365 291.951 Q723.898 291.998 724.546 292.113 L724.569 296.488 Z" fill="#000000" fill-rule="nonzero" fill-opacity="1" /><path clip-path="url(#clip570)" d="M750.171 304.405 L750.171 306.488 L730.588 306.488 Q730.865 310.886 733.226 313.201 Q735.611 315.493 739.847 315.493 Q742.3 315.493 744.592 314.891 Q746.907 314.289 749.175 313.085 L749.175 317.113 Q746.884 318.085 744.476 318.595 Q742.069 319.104 739.592 319.104 Q733.388 319.104 729.754 315.493 Q726.143 311.882 726.143 305.724 Q726.143 299.359 729.569 295.632 Q733.018 291.882 738.851 291.882 Q744.083 291.882 747.115 295.261 Q750.171 298.618 750.171 304.405 M745.912 303.155 Q745.865 299.66 743.944 297.576 Q742.046 295.493 738.898 295.493 Q735.333 295.493 733.18 297.507 Q731.05 299.521 730.726 303.178 L745.912 303.155 Z" fill="#000000" fill-rule="nonzero" fill-opacity="1" /><path clip-path="url(#clip570)" d="M774.222 296.442 L774.222 282.414 L778.481 282.414 L778.481 318.433 L774.222 318.433 L774.222 314.544 Q772.879 316.859 770.819 317.993 Q768.782 319.104 765.911 319.104 Q761.212 319.104 758.249 315.354 Q755.31 311.604 755.31 305.493 Q755.31 299.382 758.249 295.632 Q761.212 291.882 765.911 291.882 Q768.782 291.882 770.819 293.016 Q772.879 294.127 774.222 296.442 M759.708 305.493 Q759.708 310.192 761.629 312.877 Q763.573 315.539 766.953 315.539 Q770.333 315.539 772.277 312.877 Q774.222 310.192 774.222 305.493 Q774.222 300.794 772.277 298.132 Q770.333 295.447 766.953 295.447 Q763.573 295.447 761.629 298.132 Q759.708 300.794 759.708 305.493 Z" fill="#000000" fill-rule="nonzero" fill-opacity="1" /><path clip-path="url(#clip570)" d="M807.184 287.715 L807.184 300.701 L813.064 300.701 Q816.328 300.701 818.11 299.011 Q819.893 297.322 819.893 294.197 Q819.893 291.095 818.11 289.405 Q816.328 287.715 813.064 287.715 L807.184 287.715 M802.508 283.873 L813.064 283.873 Q818.874 283.873 821.837 286.511 Q824.823 289.127 824.823 294.197 Q824.823 299.312 821.837 301.928 Q818.874 304.544 813.064 304.544 L807.184 304.544 L807.184 318.433 L802.508 318.433 L802.508 283.873 Z" fill="#000000" fill-rule="nonzero" fill-opacity="1" /></svg>
