<?xml version="1.0" encoding="utf-8"?>
<svg xmlns="http://www.w3.org/2000/svg" xmlns:xlink="http://www.w3.org/1999/xlink" width="600" height="400" viewBox="0 0 2400 1600">
<defs>
  <clipPath id="clip130">
    <rect x="0" y="0" width="2400" height="1600"/>
  </clipPath>
</defs>
<path clip-path="url(#clip130)" d="M0 1600 L2400 1600 L2400 0 L0 0  Z" fill="#ffffff" fill-rule="evenodd" fill-opacity="1"/>
<defs>
  <clipPath id="clip131">
    <rect x="480" y="0" width="1681" height="1600"/>
  </clipPath>
</defs>
<path clip-path="url(#clip130)" d="M204.166 1375.94 L2352.76 1375.94 L2352.76 47.2441 L204.166 47.2441  Z" fill="#ffffff" fill-rule="evenodd" fill-opacity="1"/>
<defs>
  <clipPath id="clip132">
    <rect x="204" y="47" width="2150" height="1330"/>
  </clipPath>
</defs>
<polyline clip-path="url(#clip132)" style="stroke:#000000; stroke-linecap:round; stroke-linejoin:round; stroke-width:2; stroke-opacity:0.1; fill:none" points="204.166,1375.94 204.166,47.2441 "/>
<polyline clip-path="url(#clip132)" style="stroke:#000000; stroke-linecap:round; stroke-linejoin:round; stroke-width:2; stroke-opacity:0.1; fill:none" points="633.884,1375.94 633.884,47.2441 "/>
<polyline clip-path="url(#clip132)" style="stroke:#000000; stroke-linecap:round; stroke-linejoin:round; stroke-width:2; stroke-opacity:0.1; fill:none" points="1063.6,1375.94 1063.6,47.2441 "/>
<polyline clip-path="url(#clip132)" style="stroke:#000000; stroke-linecap:round; stroke-linejoin:round; stroke-width:2; stroke-opacity:0.1; fill:none" points="1493.32,1375.94 1493.32,47.2441 "/>
<polyline clip-path="url(#clip132)" style="stroke:#000000; stroke-linecap:round; stroke-linejoin:round; stroke-width:2; stroke-opacity:0.1; fill:none" points="1923.04,1375.94 1923.04,47.2441 "/>
<polyline clip-path="url(#clip132)" style="stroke:#000000; stroke-linecap:round; stroke-linejoin:round; stroke-width:2; stroke-opacity:0.1; fill:none" points="2352.76,1375.94 2352.76,47.2441 "/>
<polyline clip-path="url(#clip132)" style="stroke:#000000; stroke-linecap:round; stroke-linejoin:round; stroke-width:2; stroke-opacity:0.1; fill:none" points="204.166,1346.84 2352.76,1346.84 "/>
<polyline clip-path="url(#clip132)" style="stroke:#000000; stroke-linecap:round; stroke-linejoin:round; stroke-width:2; stroke-opacity:0.1; fill:none" points="204.166,1031.34 2352.76,1031.34 "/>
<polyline clip-path="url(#clip132)" style="stroke:#000000; stroke-linecap:round; stroke-linejoin:round; stroke-width:2; stroke-opacity:0.1; fill:none" points="204.166,715.844 2352.76,715.844 "/>
<polyline clip-path="url(#clip132)" style="stroke:#000000; stroke-linecap:round; stroke-linejoin:round; stroke-width:2; stroke-opacity:0.1; fill:none" points="204.166,400.346 2352.76,400.346 "/>
<polyline clip-path="url(#clip132)" style="stroke:#000000; stroke-linecap:round; stroke-linejoin:round; stroke-width:2; stroke-opacity:0.1; fill:none" points="204.166,84.8486 2352.76,84.8486 "/>
<polyline clip-path="url(#clip130)" style="stroke:#000000; stroke-linecap:round; stroke-linejoin:round; stroke-width:4; stroke-opacity:1; fill:none" points="204.166,1375.94 2352.76,1375.94 "/>
<polyline clip-path="url(#clip130)" style="stroke:#000000; stroke-linecap:round; stroke-linejoin:round; stroke-width:4; stroke-opacity:1; fill:none" points="204.166,1375.94 204.166,1357.04 "/>
<polyline clip-path="url(#clip130)" style="stroke:#000000; stroke-linecap:round; stroke-linejoin:round; stroke-width:4; stroke-opacity:1; fill:none" points="633.884,1375.94 633.884,1357.04 "/>
<polyline clip-path="url(#clip130)" style="stroke:#000000; stroke-linecap:round; stroke-linejoin:round; stroke-width:4; stroke-opacity:1; fill:none" points="1063.6,1375.94 1063.6,1357.04 "/>
<polyline clip-path="url(#clip130)" style="stroke:#000000; stroke-linecap:round; stroke-linejoin:round; stroke-width:4; stroke-opacity:1; fill:none" points="1493.32,1375.94 1493.32,1357.04 "/>
<polyline clip-path="url(#clip130)" style="stroke:#000000; stroke-linecap:round; stroke-linejoin:round; stroke-width:4; stroke-opacity:1; fill:none" points="1923.04,1375.94 1923.04,1357.04 "/>
<polyline clip-path="url(#clip130)" style="stroke:#000000; stroke-linecap:round; stroke-linejoin:round; stroke-width:4; stroke-opacity:1; fill:none" points="2352.76,1375.94 2352.76,1357.04 "/>
<path clip-path="url(#clip130)" d="M204.166 1406.85 Q200.555 1406.85 198.727 1410.42 Q196.921 1413.96 196.921 1421.09 Q196.921 1428.2 198.727 1431.76 Q200.555 1435.3 204.166 1435.3 Q207.801 1435.3 209.606 1431.76 Q211.435 1428.2 211.435 1421.09 Q211.435 1413.96 209.606 1410.42 Q207.801 1406.85 204.166 1406.85 M204.166 1403.15 Q209.977 1403.15 213.032 1407.76 Q216.111 1412.34 216.111 1421.09 Q216.111 1429.82 213.032 1434.42 Q209.977 1439.01 204.166 1439.01 Q198.356 1439.01 195.278 1434.42 Q192.222 1429.82 192.222 1421.09 Q192.222 1412.34 195.278 1407.76 Q198.356 1403.15 204.166 1403.15 Z" fill="#000000" fill-rule="nonzero" fill-opacity="1" /><path clip-path="url(#clip130)" d="M628.537 1434.4 L644.856 1434.4 L644.856 1438.34 L622.912 1438.34 L622.912 1434.4 Q625.574 1431.65 630.157 1427.02 Q634.764 1422.36 635.944 1421.02 Q638.19 1418.5 639.069 1416.76 Q639.972 1415 639.972 1413.31 Q639.972 1410.56 638.028 1408.82 Q636.107 1407.09 633.005 1407.09 Q630.806 1407.09 628.352 1407.85 Q625.921 1408.61 623.144 1410.16 L623.144 1405.44 Q625.968 1404.31 628.421 1403.73 Q630.875 1403.15 632.912 1403.15 Q638.282 1403.15 641.477 1405.84 Q644.671 1408.52 644.671 1413.01 Q644.671 1415.14 643.861 1417.06 Q643.074 1418.96 640.968 1421.55 Q640.389 1422.22 637.287 1425.44 Q634.185 1428.64 628.537 1434.4 Z" fill="#000000" fill-rule="nonzero" fill-opacity="1" /><path clip-path="url(#clip130)" d="M1066.61 1407.85 L1054.81 1426.3 L1066.61 1426.3 L1066.61 1407.85 M1065.38 1403.78 L1071.26 1403.78 L1071.26 1426.3 L1076.19 1426.3 L1076.19 1430.19 L1071.26 1430.19 L1071.26 1438.34 L1066.61 1438.34 L1066.61 1430.19 L1051.01 1430.19 L1051.01 1425.67 L1065.38 1403.78 Z" fill="#000000" fill-rule="nonzero" fill-opacity="1" /><path clip-path="url(#clip130)" d="M1493.73 1419.19 Q1490.58 1419.19 1488.73 1421.35 Q1486.9 1423.5 1486.9 1427.25 Q1486.9 1430.97 1488.73 1433.15 Q1490.58 1435.3 1493.73 1435.3 Q1496.87 1435.3 1498.7 1433.15 Q1500.55 1430.97 1500.55 1427.25 Q1500.55 1423.5 1498.7 1421.35 Q1496.87 1419.19 1493.73 1419.19 M1503.01 1404.54 L1503.01 1408.8 Q1501.25 1407.97 1499.44 1407.53 Q1497.66 1407.09 1495.9 1407.09 Q1491.27 1407.09 1488.82 1410.21 Q1486.39 1413.34 1486.04 1419.66 Q1487.41 1417.64 1489.47 1416.58 Q1491.53 1415.49 1494 1415.49 Q1499.21 1415.49 1502.22 1418.66 Q1505.25 1421.81 1505.25 1427.25 Q1505.25 1432.57 1502.1 1435.79 Q1498.96 1439.01 1493.73 1439.01 Q1487.73 1439.01 1484.56 1434.42 Q1481.39 1429.82 1481.39 1421.09 Q1481.39 1412.9 1485.28 1408.03 Q1489.17 1403.15 1495.72 1403.15 Q1497.48 1403.15 1499.26 1403.5 Q1501.06 1403.85 1503.01 1404.54 Z" fill="#000000" fill-rule="nonzero" fill-opacity="1" /><path clip-path="url(#clip130)" d="M1923.04 1421.92 Q1919.7 1421.92 1917.78 1423.71 Q1915.89 1425.49 1915.89 1428.61 Q1915.89 1431.74 1917.78 1433.52 Q1919.7 1435.3 1923.04 1435.3 Q1926.37 1435.3 1928.29 1433.52 Q1930.21 1431.72 1930.21 1428.61 Q1930.21 1425.49 1928.29 1423.71 Q1926.39 1421.92 1923.04 1421.92 M1918.36 1419.93 Q1915.35 1419.19 1913.66 1417.13 Q1912 1415.07 1912 1412.11 Q1912 1407.97 1914.94 1405.56 Q1917.9 1403.15 1923.04 1403.15 Q1928.2 1403.15 1931.14 1405.56 Q1934.08 1407.97 1934.08 1412.11 Q1934.08 1415.07 1932.39 1417.13 Q1930.72 1419.19 1927.74 1419.93 Q1931.12 1420.72 1932.99 1423.01 Q1934.89 1425.3 1934.89 1428.61 Q1934.89 1433.64 1931.81 1436.32 Q1928.76 1439.01 1923.04 1439.01 Q1917.32 1439.01 1914.24 1436.32 Q1911.19 1433.64 1911.19 1428.61 Q1911.19 1425.3 1913.08 1423.01 Q1914.98 1420.72 1918.36 1419.93 M1916.65 1412.55 Q1916.65 1415.23 1918.32 1416.74 Q1920.01 1418.24 1923.04 1418.24 Q1926.05 1418.24 1927.74 1416.74 Q1929.45 1415.23 1929.45 1412.55 Q1929.45 1409.86 1927.74 1408.36 Q1926.05 1406.85 1923.04 1406.85 Q1920.01 1406.85 1918.32 1408.36 Q1916.65 1409.86 1916.65 1412.55 Z" fill="#000000" fill-rule="nonzero" fill-opacity="1" /><path clip-path="url(#clip130)" d="M2327.44 1434.4 L2335.08 1434.4 L2335.08 1408.03 L2326.77 1409.7 L2326.77 1405.44 L2335.04 1403.78 L2339.71 1403.78 L2339.71 1434.4 L2347.35 1434.4 L2347.35 1438.34 L2327.44 1438.34 L2327.44 1434.4 Z" fill="#000000" fill-rule="nonzero" fill-opacity="1" /><path clip-path="url(#clip130)" d="M2366.8 1406.85 Q2363.18 1406.85 2361.36 1410.42 Q2359.55 1413.96 2359.55 1421.09 Q2359.55 1428.2 2361.36 1431.76 Q2363.18 1435.3 2366.8 1435.3 Q2370.43 1435.3 2372.23 1431.76 Q2374.06 1428.2 2374.06 1421.09 Q2374.06 1413.96 2372.23 1410.42 Q2370.43 1406.85 2366.8 1406.85 M2366.8 1403.15 Q2372.61 1403.15 2375.66 1407.76 Q2378.74 1412.34 2378.74 1421.09 Q2378.74 1429.82 2375.66 1434.42 Q2372.61 1439.01 2366.8 1439.01 Q2360.99 1439.01 2357.91 1434.42 Q2354.85 1429.82 2354.85 1421.09 Q2354.85 1412.34 2357.91 1407.76 Q2360.99 1403.15 2366.8 1403.15 Z" fill="#000000" fill-rule="nonzero" fill-opacity="1" /><path clip-path="url(#clip130)" d="M1277.52 1475.03 L1277.52 1485.15 L1289.59 1485.15 L1289.59 1489.7 L1277.52 1489.7 L1277.52 1509.06 Q1277.52 1513.42 1278.7 1514.66 Q1279.91 1515.9 1283.57 1515.9 L1289.59 1515.9 L1289.59 1520.8 L1283.57 1520.8 Q1276.79 1520.8 1274.21 1518.29 Q1271.63 1515.74 1271.63 1509.06 L1271.63 1489.7 L1267.34 1489.7 L1267.34 1485.15 L1271.63 1485.15 L1271.63 1475.03 L1277.52 1475.03 Z" fill="#000000" fill-rule="nonzero" fill-opacity="1" /><polyline clip-path="url(#clip130)" style="stroke:#000000; stroke-linecap:round; stroke-linejoin:round; stroke-width:4; stroke-opacity:1; fill:none" points="204.166,1375.94 204.166,47.2441 "/>
<polyline clip-path="url(#clip130)" style="stroke:#000000; stroke-linecap:round; stroke-linejoin:round; stroke-width:4; stroke-opacity:1; fill:none" points="204.166,1346.84 223.064,1346.84 "/>
<polyline clip-path="url(#clip130)" style="stroke:#000000; stroke-linecap:round; stroke-linejoin:round; stroke-width:4; stroke-opacity:1; fill:none" points="204.166,1031.34 223.064,1031.34 "/>
<polyline clip-path="url(#clip130)" style="stroke:#000000; stroke-linecap:round; stroke-linejoin:round; stroke-width:4; stroke-opacity:1; fill:none" points="204.166,715.844 223.064,715.844 "/>
<polyline clip-path="url(#clip130)" style="stroke:#000000; stroke-linecap:round; stroke-linejoin:round; stroke-width:4; stroke-opacity:1; fill:none" points="204.166,400.346 223.064,400.346 "/>
<polyline clip-path="url(#clip130)" style="stroke:#000000; stroke-linecap:round; stroke-linejoin:round; stroke-width:4; stroke-opacity:1; fill:none" points="204.166,84.8486 223.064,84.8486 "/>
<path clip-path="url(#clip130)" d="M105.019 1360.18 L121.338 1360.18 L121.338 1364.12 L99.3936 1364.12 L99.3936 1360.18 Q102.056 1357.43 106.639 1352.8 Q111.245 1348.15 112.426 1346.8 Q114.671 1344.28 115.551 1342.55 Q116.454 1340.79 116.454 1339.1 Q116.454 1336.34 114.509 1334.61 Q112.588 1332.87 109.486 1332.87 Q107.287 1332.87 104.833 1333.63 Q102.403 1334.4 99.6251 1335.95 L99.6251 1331.23 Q102.449 1330.09 104.903 1329.51 Q107.357 1328.93 109.394 1328.93 Q114.764 1328.93 117.958 1331.62 Q121.153 1334.3 121.153 1338.8 Q121.153 1340.92 120.343 1342.85 Q119.556 1344.74 117.449 1347.34 Q116.87 1348.01 113.769 1351.23 Q110.667 1354.42 105.019 1360.18 Z" fill="#000000" fill-rule="nonzero" fill-opacity="1" /><path clip-path="url(#clip130)" d="M131.153 1358.24 L136.037 1358.24 L136.037 1364.12 L131.153 1364.12 L131.153 1358.24 Z" fill="#000000" fill-rule="nonzero" fill-opacity="1" /><path clip-path="url(#clip130)" d="M156.222 1332.64 Q152.611 1332.64 150.782 1336.2 Q148.977 1339.74 148.977 1346.87 Q148.977 1353.98 150.782 1357.55 Q152.611 1361.09 156.222 1361.09 Q159.856 1361.09 161.662 1357.55 Q163.491 1353.98 163.491 1346.87 Q163.491 1339.74 161.662 1336.2 Q159.856 1332.64 156.222 1332.64 M156.222 1328.93 Q162.032 1328.93 165.088 1333.54 Q168.166 1338.12 168.166 1346.87 Q168.166 1355.6 165.088 1360.21 Q162.032 1364.79 156.222 1364.79 Q150.412 1364.79 147.333 1360.21 Q144.278 1355.6 144.278 1346.87 Q144.278 1338.12 147.333 1333.54 Q150.412 1328.93 156.222 1328.93 Z" fill="#000000" fill-rule="nonzero" fill-opacity="1" /><path clip-path="url(#clip130)" d="M106.014 1044.69 L122.333 1044.69 L122.333 1048.62 L100.389 1048.62 L100.389 1044.69 Q103.051 1041.93 107.634 1037.3 Q112.241 1032.65 113.421 1031.31 Q115.667 1028.78 116.546 1027.05 Q117.449 1025.29 117.449 1023.6 Q117.449 1020.84 115.505 1019.11 Q113.583 1017.37 110.482 1017.37 Q108.282 1017.37 105.829 1018.14 Q103.398 1018.9 100.62 1020.45 L100.62 1015.73 Q103.445 1014.59 105.898 1014.02 Q108.352 1013.44 110.389 1013.44 Q115.759 1013.44 118.954 1016.12 Q122.148 1018.81 122.148 1023.3 Q122.148 1025.43 121.338 1027.35 Q120.551 1029.25 118.444 1031.84 Q117.866 1032.51 114.764 1035.73 Q111.662 1038.92 106.014 1044.69 Z" fill="#000000" fill-rule="nonzero" fill-opacity="1" /><path clip-path="url(#clip130)" d="M132.148 1042.74 L137.032 1042.74 L137.032 1048.62 L132.148 1048.62 L132.148 1042.74 Z" fill="#000000" fill-rule="nonzero" fill-opacity="1" /><path clip-path="url(#clip130)" d="M147.264 1014.06 L165.62 1014.06 L165.62 1018 L151.546 1018 L151.546 1026.47 Q152.565 1026.12 153.583 1025.96 Q154.602 1025.77 155.62 1025.77 Q161.407 1025.77 164.787 1028.95 Q168.166 1032.12 168.166 1037.53 Q168.166 1043.11 164.694 1046.21 Q161.222 1049.29 154.903 1049.29 Q152.727 1049.29 150.458 1048.92 Q148.213 1048.55 145.805 1047.81 L145.805 1043.11 Q147.889 1044.25 150.111 1044.8 Q152.333 1045.36 154.81 1045.36 Q158.815 1045.36 161.153 1043.25 Q163.491 1041.14 163.491 1037.53 Q163.491 1033.92 161.153 1031.82 Q158.815 1029.71 154.81 1029.71 Q152.935 1029.71 151.06 1030.13 Q149.208 1030.54 147.264 1031.42 L147.264 1014.06 Z" fill="#000000" fill-rule="nonzero" fill-opacity="1" /><path clip-path="url(#clip130)" d="M115.157 714.49 Q118.514 715.207 120.389 717.476 Q122.287 719.744 122.287 723.078 Q122.287 728.193 118.769 730.994 Q115.25 733.795 108.769 733.795 Q106.593 733.795 104.278 733.355 Q101.986 732.939 99.5325 732.082 L99.5325 727.568 Q101.477 728.703 103.792 729.281 Q106.107 729.86 108.63 729.86 Q113.028 729.86 115.319 728.124 Q117.634 726.388 117.634 723.078 Q117.634 720.022 115.481 718.309 Q113.352 716.573 109.532 716.573 L105.505 716.573 L105.505 712.73 L109.718 712.73 Q113.167 712.73 114.995 711.365 Q116.824 709.976 116.824 707.383 Q116.824 704.721 114.926 703.309 Q113.051 701.874 109.532 701.874 Q107.611 701.874 105.412 702.291 Q103.213 702.707 100.574 703.587 L100.574 699.42 Q103.236 698.68 105.551 698.309 Q107.889 697.939 109.949 697.939 Q115.273 697.939 118.375 700.369 Q121.477 702.777 121.477 706.897 Q121.477 709.768 119.833 711.758 Q118.19 713.726 115.157 714.49 Z" fill="#000000" fill-rule="nonzero" fill-opacity="1" /><path clip-path="url(#clip130)" d="M131.153 727.244 L136.037 727.244 L136.037 733.124 L131.153 733.124 L131.153 727.244 Z" fill="#000000" fill-rule="nonzero" fill-opacity="1" /><path clip-path="url(#clip130)" d="M156.222 701.643 Q152.611 701.643 150.782 705.207 Q148.977 708.749 148.977 715.879 Q148.977 722.985 150.782 726.55 Q152.611 730.091 156.222 730.091 Q159.856 730.091 161.662 726.55 Q163.491 722.985 163.491 715.879 Q163.491 708.749 161.662 705.207 Q159.856 701.643 156.222 701.643 M156.222 697.939 Q162.032 697.939 165.088 702.545 Q168.166 707.129 168.166 715.879 Q168.166 724.605 165.088 729.212 Q162.032 733.795 156.222 733.795 Q150.412 733.795 147.333 729.212 Q144.278 724.605 144.278 715.879 Q144.278 707.129 147.333 702.545 Q150.412 697.939 156.222 697.939 Z" fill="#000000" fill-rule="nonzero" fill-opacity="1" /><path clip-path="url(#clip130)" d="M116.153 398.992 Q119.509 399.71 121.384 401.978 Q123.282 404.247 123.282 407.58 Q123.282 412.696 119.764 415.497 Q116.245 418.298 109.764 418.298 Q107.588 418.298 105.273 417.858 Q102.982 417.441 100.528 416.585 L100.528 412.071 Q102.472 413.205 104.787 413.784 Q107.102 414.362 109.625 414.362 Q114.023 414.362 116.315 412.626 Q118.63 410.89 118.63 407.58 Q118.63 404.524 116.477 402.811 Q114.347 401.075 110.528 401.075 L106.5 401.075 L106.5 397.233 L110.713 397.233 Q114.162 397.233 115.991 395.867 Q117.819 394.478 117.819 391.886 Q117.819 389.224 115.921 387.812 Q114.046 386.376 110.528 386.376 Q108.607 386.376 106.407 386.793 Q104.208 387.21 101.57 388.089 L101.57 383.923 Q104.232 383.182 106.546 382.812 Q108.884 382.441 110.944 382.441 Q116.269 382.441 119.37 384.872 Q122.472 387.279 122.472 391.4 Q122.472 394.27 120.829 396.261 Q119.185 398.228 116.153 398.992 Z" fill="#000000" fill-rule="nonzero" fill-opacity="1" /><path clip-path="url(#clip130)" d="M132.148 411.747 L137.032 411.747 L137.032 417.626 L132.148 417.626 L132.148 411.747 Z" fill="#000000" fill-rule="nonzero" fill-opacity="1" /><path clip-path="url(#clip130)" d="M147.264 383.066 L165.62 383.066 L165.62 387.001 L151.546 387.001 L151.546 395.474 Q152.565 395.126 153.583 394.964 Q154.602 394.779 155.62 394.779 Q161.407 394.779 164.787 397.95 Q168.166 401.122 168.166 406.538 Q168.166 412.117 164.694 415.219 Q161.222 418.298 154.903 418.298 Q152.727 418.298 150.458 417.927 Q148.213 417.557 145.805 416.816 L145.805 412.117 Q147.889 413.251 150.111 413.807 Q152.333 414.362 154.81 414.362 Q158.815 414.362 161.153 412.256 Q163.491 410.149 163.491 406.538 Q163.491 402.927 161.153 400.821 Q158.815 398.714 154.81 398.714 Q152.935 398.714 151.06 399.131 Q149.208 399.548 147.264 400.427 L147.264 383.066 Z" fill="#000000" fill-rule="nonzero" fill-opacity="1" /><path clip-path="url(#clip130)" d="M113.838 71.6426 L102.032 90.0916 L113.838 90.0916 L113.838 71.6426 M112.611 67.5686 L118.491 67.5686 L118.491 90.0916 L123.421 90.0916 L123.421 93.9805 L118.491 93.9805 L118.491 102.129 L113.838 102.129 L113.838 93.9805 L98.2362 93.9805 L98.2362 89.4666 L112.611 67.5686 Z" fill="#000000" fill-rule="nonzero" fill-opacity="1" /><path clip-path="url(#clip130)" d="M131.153 96.249 L136.037 96.249 L136.037 102.129 L131.153 102.129 L131.153 96.249 Z" fill="#000000" fill-rule="nonzero" fill-opacity="1" /><path clip-path="url(#clip130)" d="M156.222 70.6473 Q152.611 70.6473 150.782 74.2121 Q148.977 77.7537 148.977 84.8833 Q148.977 91.9897 150.782 95.5545 Q152.611 99.0962 156.222 99.0962 Q159.856 99.0962 161.662 95.5545 Q163.491 91.9897 163.491 84.8833 Q163.491 77.7537 161.662 74.2121 Q159.856 70.6473 156.222 70.6473 M156.222 66.9436 Q162.032 66.9436 165.088 71.55 Q168.166 76.1333 168.166 84.8833 Q168.166 93.6101 165.088 98.2166 Q162.032 102.8 156.222 102.8 Q150.412 102.8 147.333 98.2166 Q144.278 93.6101 144.278 84.8833 Q144.278 76.1333 147.333 71.55 Q150.412 66.9436 156.222 66.9436 Z" fill="#000000" fill-rule="nonzero" fill-opacity="1" /><polyline clip-path="url(#clip132)" style="stroke:#009af9; stroke-linecap:round; stroke-linejoin:round; stroke-width:4; stroke-opacity:1; fill:none" points="204.166,84.8486 206.317,91.1491 208.468,97.4181 210.619,103.656 212.769,109.862 214.92,116.038 217.071,122.183 219.222,128.297 221.372,134.38 223.523,140.434 225.674,146.457 227.825,152.45 229.975,158.413 232.126,164.346 234.277,170.249 236.428,176.124 238.578,181.968 240.729,187.784 242.88,193.571 245.03,199.328 247.181,205.057 249.332,210.758 251.483,216.429 253.633,222.073 255.784,227.688 257.935,233.276 260.086,238.835 262.236,244.367 264.387,249.871 266.538,255.348 268.689,260.797 270.839,266.219 272.99,271.614 275.141,276.982 277.292,282.323 279.442,287.638 281.593,292.926 283.744,298.188 285.895,303.423 288.045,308.632 290.196,313.816 292.347,318.973 294.497,324.105 296.648,329.211 298.799,334.291 300.95,339.346 303.1,344.376 305.251,349.381 307.402,354.361 309.553,359.316 311.703,364.246 313.854,369.151 316.005,374.033 318.156,378.889 320.306,383.722 322.457,388.53 324.608,393.314 326.759,398.075 328.909,402.812 331.06,407.525 333.211,412.214 335.362,416.88 337.512,421.523 339.663,426.143 341.814,430.739 343.965,435.313 346.115,439.864 348.266,444.392 350.417,448.898 352.567,453.381 354.718,457.841 356.869,462.28 359.02,466.696 361.17,471.09 363.321,475.462 365.472,479.813 367.623,484.141 369.773,488.449 371.924,492.734 374.075,496.998 376.226,501.241 378.376,505.463 380.527,509.663 382.678,513.843 384.829,518.002 386.979,522.14 389.13,526.257 391.281,530.354 393.432,534.43 395.582,538.486 397.733,542.522 399.884,546.537 402.035,550.533 404.185,554.508 406.336,558.464 408.487,562.4 410.637,566.316 412.788,570.213 414.939,574.09 417.09,577.948 419.24,581.787 421.391,585.606 423.542,589.407 425.693,593.188 427.843,596.951 429.994,600.695 432.145,604.42 434.296,608.126 436.446,611.814 438.597,615.484 440.748,619.135 442.899,622.768 445.049,626.383 447.2,629.98 449.351,633.559 451.502,637.12 453.652,640.663 455.803,644.188 457.954,647.696 460.104,651.187 462.255,654.66 464.406,658.115 466.557,661.554 468.707,664.975 470.858,668.379 473.009,671.767 475.16,675.137 477.31,678.49 479.461,681.827 481.612,685.147 483.763,688.451 485.913,691.738 488.064,695.008 490.215,698.263 492.366,701.501 494.516,704.723 496.667,707.928 498.818,711.118 500.969,714.292 503.119,717.45 505.27,720.593 507.421,723.719 509.572,726.83 511.722,729.926 513.873,733.006 516.024,736.071 518.174,739.12 520.325,742.154 522.476,745.173 524.627,748.177 526.777,751.166 528.928,754.14 531.079,757.099 533.23,760.043 535.38,762.973 537.531,765.888 539.682,768.788 541.833,771.674 543.983,774.546 546.134,777.403 548.285,780.246 550.436,783.075 552.586,785.889 554.737,788.69 556.888,791.476 559.039,794.249 561.189,797.008 563.34,799.753 565.491,802.484 567.642,805.202 569.792,807.906 571.943,810.597 574.094,813.274 576.244,815.937 578.395,818.588 580.546,821.225 582.697,823.849 584.847,826.46 586.998,829.058 589.149,831.643 591.3,834.215 593.45,836.774 595.601,839.321 597.752,841.854 599.903,844.376 602.053,846.884 604.204,849.38 606.355,851.863 608.506,854.335 610.656,856.793 612.807,859.24 614.958,861.674 617.109,864.096 619.259,866.506 621.41,868.904 623.561,871.29 625.711,873.664 627.862,876.027 630.013,878.377 632.164,880.716 634.314,883.043 636.465,885.358 638.616,887.662 640.767,889.955 642.917,892.236 645.068,894.505 647.219,896.764 649.37,899.011 651.52,901.246 653.671,903.471 655.822,905.684 657.973,907.887 660.123,910.078 662.274,912.259 664.425,914.429 666.576,916.588 668.726,918.736 670.877,920.873 673.028,923 675.179,925.116 677.329,927.222 679.48,929.317 681.631,931.401 683.781,933.476 685.932,935.54 688.083,937.593 690.234,939.637 692.384,941.67 694.535,943.693 696.686,945.706 698.837,947.708 700.987,949.701 703.138,951.684 705.289,953.657 707.44,955.62 709.59,957.574 711.741,959.517 713.892,961.451 716.043,963.375 718.193,965.29 720.344,967.195 722.495,969.09 724.646,970.976 726.796,972.853 728.947,974.72 731.098,976.578 733.249,978.427 735.399,980.266 737.55,982.096 739.701,983.917 741.851,985.729 744.002,987.532 746.153,989.326 748.304,991.111 750.454,992.887 752.605,994.654 754.756,996.412 756.907,998.162 759.057,999.902 761.208,1001.63 763.359,1003.36 765.51,1005.07 767.66,1006.78 769.811,1008.48 771.962,1010.17 774.113,1011.85 776.263,1013.52 778.414,1015.18 780.565,1016.84 782.716,1018.49 784.866,1020.13 787.017,1021.76 789.168,1023.38 791.318,1024.99 793.469,1026.6 795.62,1028.2 797.771,1029.79 799.921,1031.37 802.072,1032.95 804.223,1034.51 806.374,1036.07 808.524,1037.62 810.675,1039.17 812.826,1040.7 814.977,1042.23 817.127,1043.75 819.278,1045.27 821.429,1046.77 823.58,1048.27 825.73,1049.76 827.881,1051.24 830.032,1052.72 832.183,1054.19 834.333,1055.65 836.484,1057.1 838.635,1058.55 840.786,1059.99 842.936,1061.42 845.087,1062.84 847.238,1064.26 849.388,1065.67 851.539,1067.08 853.69,1068.47 855.841,1069.86 857.991,1071.25 860.142,1072.62 862.293,1073.99 864.444,1075.35 866.594,1076.71 868.745,1078.06 870.896,1079.4 873.047,1080.73 875.197,1082.06 877.348,1083.38 879.499,1084.7 881.65,1086.01 883.8,1087.31 885.951,1088.61 888.102,1089.9 890.253,1091.18 892.403,1092.45 894.554,1093.73 896.705,1094.99 898.856,1096.25 901.006,1097.5 903.157,1098.74 905.308,1099.98 907.458,1101.21 909.609,1102.44 911.76,1103.66 913.911,1104.88 916.061,1106.08 918.212,1107.29 920.363,1108.48 922.514,1109.67 924.664,1110.86 926.815,1112.03 928.966,1113.21 931.117,1114.37 933.267,1115.53 935.418,1116.69 937.569,1117.84 939.72,1118.98 941.87,1120.12 944.021,1121.25 946.172,1122.38 948.323,1123.5 950.473,1124.61 952.624,1125.72 954.775,1126.83 956.925,1127.93 959.076,1129.02 961.227,1130.11 963.378,1131.19 965.528,1132.27 967.679,1133.34 969.83,1134.4 971.981,1135.46 974.131,1136.52 976.282,1137.57 978.433,1138.61 980.584,1139.65 982.734,1140.69 984.885,1141.72 987.036,1142.74 989.187,1143.76 991.337,1144.77 993.488,1145.78 995.639,1146.79 997.79,1147.79 999.94,1148.78 1002.09,1149.77 1004.24,1150.75 1006.39,1151.73 1008.54,1152.71 1010.69,1153.67 1012.84,1154.64 1015,1155.6 1017.15,1156.55 1019.3,1157.5 1021.45,1158.45 1023.6,1159.39 1025.75,1160.32 1027.9,1161.25 1030.05,1162.18 1032.2,1163.1 1034.35,1164.02 1036.5,1164.93 1038.65,1165.84 1040.8,1166.74 1042.96,1167.64 1045.11,1168.54 1047.26,1169.43 1049.41,1170.31 1051.56,1171.19 1053.71,1172.07 1055.86,1172.94 1058.01,1173.81 1060.16,1174.68 1062.31,1175.53 1064.46,1176.39 1066.61,1177.24 1068.76,1178.09 1070.91,1178.93 1073.07,1179.77 1075.22,1180.6 1077.37,1181.43 1079.52,1182.26 1081.67,1183.08 1083.82,1183.9 1085.97,1184.71 1088.12,1185.52 1090.27,1186.32 1092.42,1187.12 1094.57,1187.92 1096.72,1188.72 1098.87,1189.5 1101.03,1190.29 1103.18,1191.07 1105.33,1191.85 1107.48,1192.62 1109.63,1193.39 1111.78,1194.16 1113.93,1194.92 1116.08,1195.68 1118.23,1196.43 1120.38,1197.18 1122.53,1197.93 1124.68,1198.68 1126.83,1199.41 1128.98,1200.15 1131.14,1200.88 1133.29,1201.61 1135.44,1202.34 1137.59,1203.06 1139.74,1203.78 1141.89,1204.49 1144.04,1205.2 1146.19,1205.91 1148.34,1206.61 1150.49,1207.31 1152.64,1208.01 1154.79,1208.7 1156.94,1209.39 1159.1,1210.08 1161.25,1210.76 1163.4,1211.44 1165.55,1212.12 1167.7,1212.79 1169.85,1213.46 1172,1214.13 1174.15,1214.79 1176.3,1215.45 1178.45,1216.11 1180.6,1216.76 1182.75,1217.41 1184.9,1218.05 1187.05,1218.7 1189.21,1219.34 1191.36,1219.97 1193.51,1220.61 1195.66,1221.24 1197.81,1221.87 1199.96,1222.49 1202.11,1223.11 1204.26,1223.73 1206.41,1224.34 1208.56,1224.96 1210.71,1225.56 1212.86,1226.17 1215.01,1226.77 1217.17,1227.37 1219.32,1227.97 1221.47,1228.56 1223.62,1229.15 1225.77,1229.74 1227.92,1230.33 1230.07,1230.91 1232.22,1231.49 1234.37,1232.06 1236.52,1232.64 1238.67,1233.21 1240.82,1233.77 1242.97,1234.34 1245.12,1234.9 1247.28,1235.46 1249.43,1236.02 1251.58,1236.57 1253.73,1237.12 1255.88,1237.67 1258.03,1238.21 1260.18,1238.75 1262.33,1239.29 1264.48,1239.83 1266.63,1240.37 1268.78,1240.9 1270.93,1241.43 1273.08,1241.95 1275.24,1242.48 1277.39,1243 1279.54,1243.51 1281.69,1244.03 1283.84,1244.54 1285.99,1245.05 1288.14,1245.56 1290.29,1246.07 1292.44,1246.57 1294.59,1247.07 1296.74,1247.57 1298.89,1248.06 1301.04,1248.56 1303.19,1249.05 1305.35,1249.54 1307.5,1250.02 1309.65,1250.51 1311.8,1250.99 1313.95,1251.46 1316.1,1251.94 1318.25,1252.41 1320.4,1252.89 1322.55,1253.35 1324.7,1253.82 1326.85,1254.28 1329,1254.75 1331.15,1255.21 1333.31,1255.66 1335.46,1256.12 1337.61,1256.57 1339.76,1257.02 1341.91,1257.47 1344.06,1257.92 1346.21,1258.36 1348.36,1258.8 1350.51,1259.24 1352.66,1259.68 1354.81,1260.11 1356.96,1260.54 1359.11,1260.98 1361.26,1261.4 1363.42,1261.83 1365.57,1262.25 1367.72,1262.68 1369.87,1263.1 1372.02,1263.51 1374.17,1263.93 1376.32,1264.34 1378.47,1264.76 1380.62,1265.17 1382.77,1265.57 1384.92,1265.98 1387.07,1266.38 1389.22,1266.78 1391.38,1267.18 1393.53,1267.58 1395.68,1267.98 1397.83,1268.37 1399.98,1268.76 1402.13,1269.15 1404.28,1269.54 1406.43,1269.92 1408.58,1270.31 1410.73,1270.69 1412.88,1271.07 1415.03,1271.45 1417.18,1271.83 1419.33,1272.2 1421.49,1272.57 1423.64,1272.94 1425.79,1273.31 1427.94,1273.68 1430.09,1274.04 1432.24,1274.41 1434.39,1274.77 1436.54,1275.13 1438.69,1275.49 1440.84,1275.84 1442.99,1276.2 1445.14,1276.55 1447.29,1276.9 1449.45,1277.25 1451.6,1277.6 1453.75,1277.94 1455.9,1278.29 1458.05,1278.63 1460.2,1278.97 1462.35,1279.31 1464.5,1279.65 1466.65,1279.98 1468.8,1280.32 1470.95,1280.65 1473.1,1280.98 1475.25,1281.31 1477.4,1281.64 1479.56,1281.96 1481.71,1282.29 1483.86,1282.61 1486.01,1282.93 1488.16,1283.25 1490.31,1283.57 1492.46,1283.88 1494.61,1284.2 1496.76,1284.51 1498.91,1284.82 1501.06,1285.13 1503.21,1285.44 1505.36,1285.75 1507.51,1286.05 1509.67,1286.36 1511.82,1286.66 1513.97,1286.96 1516.12,1287.26 1518.27,1287.56 1520.42,1287.85 1522.57,1288.15 1524.72,1288.44 1526.87,1288.73 1529.02,1289.02 1531.17,1289.31 1533.32,1289.6 1535.47,1289.89 1537.63,1290.17 1539.78,1290.45 1541.93,1290.74 1544.08,1291.02 1546.23,1291.29 1548.38,1291.57 1550.53,1291.85 1552.68,1292.12 1554.83,1292.4 1556.98,1292.67 1559.13,1292.94 1561.28,1293.21 1563.43,1293.48 1565.58,1293.74 1567.74,1294.01 1569.89,1294.27 1572.04,1294.53 1574.19,1294.79 1576.34,1295.05 1578.49,1295.31 1580.64,1295.57 1582.79,1295.83 1584.94,1296.08 1587.09,1296.33 1589.24,1296.59 1591.39,1296.84 1593.54,1297.09 1595.7,1297.34 1597.85,1297.58 1600,1297.83 1602.15,1298.07 1604.3,1298.32 1606.45,1298.56 1608.6,1298.8 1610.75,1299.04 1612.9,1299.28 1615.05,1299.52 1617.2,1299.75 1619.35,1299.99 1621.5,1300.22 1623.65,1300.45 1625.81,1300.68 1627.96,1300.91 1630.11,1301.14 1632.26,1301.37 1634.41,1301.6 1636.56,1301.82 1638.71,1302.05 1640.86,1302.27 1643.01,1302.49 1645.16,1302.72 1647.31,1302.94 1649.46,1303.15 1651.61,1303.37 1653.77,1303.59 1655.92,1303.81 1658.07,1304.02 1660.22,1304.23 1662.37,1304.45 1664.52,1304.66 1666.67,1304.87 1668.82,1305.08 1670.97,1305.29 1673.12,1305.49 1675.27,1305.7 1677.42,1305.9 1679.57,1306.11 1681.72,1306.31 1683.88,1306.51 1686.03,1306.71 1688.18,1306.91 1690.33,1307.11 1692.48,1307.31 1694.63,1307.51 1696.78,1307.7 1698.93,1307.9 1701.08,1308.09 1703.23,1308.29 1705.38,1308.48 1707.53,1308.67 1709.68,1308.86 1711.84,1309.05 1713.99,1309.24 1716.14,1309.43 1718.29,1309.61 1720.44,1309.8 1722.59,1309.98 1724.74,1310.17 1726.89,1310.35 1729.04,1310.53 1731.19,1310.71 1733.34,1310.89 1735.49,1311.07 1737.64,1311.25 1739.79,1311.43 1741.95,1311.61 1744.1,1311.78 1746.25,1311.96 1748.4,1312.13 1750.55,1312.3 1752.7,1312.48 1754.85,1312.65 1757,1312.82 1759.15,1312.99 1761.3,1313.16 1763.45,1313.32 1765.6,1313.49 1767.75,1313.66 1769.91,1313.82 1772.06,1313.99 1774.21,1314.15 1776.36,1314.32 1778.51,1314.48 1780.66,1314.64 1782.81,1314.8 1784.96,1314.96 1787.11,1315.12 1789.26,1315.28 1791.41,1315.44 1793.56,1315.59 1795.71,1315.75 1797.86,1315.9 1800.02,1316.06 1802.17,1316.21 1804.32,1316.37 1806.47,1316.52 1808.62,1316.67 1810.77,1316.82 1812.92,1316.97 1815.07,1317.12 1817.22,1317.27 1819.37,1317.42 1821.52,1317.56 1823.67,1317.71 1825.82,1317.86 1827.98,1318 1830.13,1318.14 1832.28,1318.29 1834.43,1318.43 1836.58,1318.57 1838.73,1318.71 1840.88,1318.86 1843.03,1319 1845.18,1319.13 1847.33,1319.27 1849.48,1319.41 1851.63,1319.55 1853.78,1319.68 1855.93,1319.82 1858.09,1319.96 1860.24,1320.09 1862.39,1320.22 1864.54,1320.36 1866.69,1320.49 1868.84,1320.62 1870.99,1320.75 1873.14,1320.88 1875.29,1321.01 1877.44,1321.14 1879.59,1321.27 1881.74,1321.4 1883.89,1321.53 1886.05,1321.65 1888.2,1321.78 1890.35,1321.9 1892.5,1322.03 1894.65,1322.15 1896.8,1322.28 1898.95,1322.4 1901.1,1322.52 1903.25,1322.64 1905.4,1322.76 1907.55,1322.88 1909.7,1323 1911.85,1323.12 1914,1323.24 1916.16,1323.36 1918.31,1323.48 1920.46,1323.59 1922.61,1323.71 1924.76,1323.83 1926.91,1323.94 1929.06,1324.05 1931.21,1324.17 1933.36,1324.28 1935.51,1324.39 1937.66,1324.51 1939.81,1324.62 1941.96,1324.73 1944.12,1324.84 1946.27,1324.95 1948.42,1325.06 1950.57,1325.17 1952.72,1325.28 1954.87,1325.38 1957.02,1325.49 1959.17,1325.6 1961.32,1325.7 1963.47,1325.81 1965.62,1325.91 1967.77,1326.02 1969.92,1326.12 1972.07,1326.23 1974.23,1326.33 1976.38,1326.43 1978.53,1326.53 1980.68,1326.63 1982.83,1326.74 1984.98,1326.84 1987.13,1326.94 1989.28,1327.03 1991.43,1327.13 1993.58,1327.23 1995.73,1327.33 1997.88,1327.43 2000.03,1327.52 2002.19,1327.62 2004.34,1327.72 2006.49,1327.81 2008.64,1327.91 2010.79,1328 2012.94,1328.09 2015.09,1328.19 2017.24,1328.28 2019.39,1328.37 2021.54,1328.47 2023.69,1328.56 2025.84,1328.65 2027.99,1328.74 2030.14,1328.83 2032.3,1328.92 2034.45,1329.01 2036.6,1329.1 2038.75,1329.19 2040.9,1329.27 2043.05,1329.36 2045.2,1329.45 2047.35,1329.53 2049.5,1329.62 2051.65,1329.71 2053.8,1329.79 2055.95,1329.88 2058.1,1329.96 2060.26,1330.04 2062.41,1330.13 2064.56,1330.21 2066.71,1330.29 2068.86,1330.38 2071.01,1330.46 2073.16,1330.54 2075.31,1330.62 2077.46,1330.7 2079.61,1330.78 2081.76,1330.86 2083.91,1330.94 2086.06,1331.02 2088.21,1331.1 2090.37,1331.18 2092.52,1331.26 2094.67,1331.33 2096.82,1331.41 2098.97,1331.49 2101.12,1331.56 2103.27,1331.64 2105.42,1331.72 2107.57,1331.79 2109.72,1331.87 2111.87,1331.94 2114.02,1332.01 2116.17,1332.09 2118.33,1332.16 2120.48,1332.23 2122.63,1332.31 2124.78,1332.38 2126.93,1332.45 2129.08,1332.52 2131.23,1332.59 2133.38,1332.67 2135.53,1332.74 2137.68,1332.81 2139.83,1332.88 2141.98,1332.95 2144.13,1333.02 2146.28,1333.08 2148.44,1333.15 2150.59,1333.22 2152.74,1333.29 2154.89,1333.36 2157.04,1333.42 2159.19,1333.49 2161.34,1333.56 2163.49,1333.62 2165.64,1333.69 2167.79,1333.75 2169.94,1333.82 2172.09,1333.89 2174.24,1333.95 2176.4,1334.01 2178.55,1334.08 2180.7,1334.14 2182.85,1334.21 2185,1334.27 2187.15,1334.33 2189.3,1334.39 2191.45,1334.46 2193.6,1334.52 2195.75,1334.58 2197.9,1334.64 2200.05,1334.7 2202.2,1334.76 2204.35,1334.82 2206.51,1334.88 2208.66,1334.94 2210.81,1335 2212.96,1335.06 2215.11,1335.12 2217.26,1335.18 2219.41,1335.24 2221.56,1335.29 2223.71,1335.35 2225.86,1335.41 2228.01,1335.47 2230.16,1335.52 2232.31,1335.58 2234.47,1335.64 2236.62,1335.69 2238.77,1335.75 2240.92,1335.8 2243.07,1335.86 2245.22,1335.91 2247.37,1335.97 2249.52,1336.02 2251.67,1336.07 2253.82,1336.13 2255.97,1336.18 2258.12,1336.24 2260.27,1336.29 2262.42,1336.34 2264.58,1336.39 2266.73,1336.45 2268.88,1336.5 2271.03,1336.55 2273.18,1336.6 2275.33,1336.65 2277.48,1336.7 2279.63,1336.75 2281.78,1336.8 2283.93,1336.85 2286.08,1336.9 2288.23,1336.95 2290.38,1337 2292.54,1337.05 2294.69,1337.1 2296.84,1337.15 2298.99,1337.2 2301.14,1337.25 2303.29,1337.29 2305.44,1337.34 2307.59,1337.39 2309.74,1337.44 2311.89,1337.48 2314.04,1337.53 2316.19,1337.58 2318.34,1337.62 2320.49,1337.67 2322.65,1337.71 2324.8,1337.76 2326.95,1337.8 2329.1,1337.85 2331.25,1337.89 2333.4,1337.94 2335.55,1337.98 2337.7,1338.03 2339.85,1338.07 2342,1338.12 2344.15,1338.16 2346.3,1338.2 2348.45,1338.25 2350.61,1338.29 2352.76,1338.33 "/>
<path clip-path="url(#clip130)" d="M2036.69 195.214 L2281.14 195.214 L2281.14 91.5338 L2036.69 91.5338  Z" fill="#ffffff" fill-rule="evenodd" fill-opacity="1"/>
<polyline clip-path="url(#clip130)" style="stroke:#000000; stroke-linecap:round; stroke-linejoin:round; stroke-width:4; stroke-opacity:1; fill:none" points="2036.69,195.214 2281.14,195.214 2281.14,91.5338 2036.69,91.5338 2036.69,195.214 "/>
<polyline clip-path="url(#clip130)" style="stroke:#009af9; stroke-linecap:round; stroke-linejoin:round; stroke-width:4; stroke-opacity:1; fill:none" points="2060.57,143.374 2203.81,143.374 "/>
<path clip-path="url(#clip130)" d="M2229.25 126.094 L2234.28 126.094 L2242.86 138.941 L2251.5 126.094 L2256.52 126.094 L2245.41 142.691 L2257.26 160.654 L2252.24 160.654 L2242.52 145.955 L2232.73 160.654 L2227.68 160.654 L2240.02 142.205 L2229.25 126.094 Z" fill="#000000" fill-rule="nonzero" fill-opacity="1" /></svg>
