<?xml version="1.0" encoding="utf-8"?>
<svg xmlns="http://www.w3.org/2000/svg" xmlns:xlink="http://www.w3.org/1999/xlink" width="800" height="400" viewBox="0 0 3200 1600">
<defs>
  <clipPath id="clip830">
    <rect x="0" y="0" width="3200" height="1600"/>
  </clipPath>
</defs>
<path clip-path="url(#clip830)" d="M0 1600 L3200 1600 L3200 0 L0 0  Z" fill="#ffffff" fill-rule="evenodd" fill-opacity="1"/>
<defs>
  <clipPath id="clip831">
    <rect x="640" y="0" width="2241" height="1600"/>
  </clipPath>
</defs>
<path clip-path="url(#clip830)" d="M194.204 1396.46 L1530.14 1396.46 L1530.14 47.2441 L194.204 47.2441  Z" fill="#ffffff" fill-rule="evenodd" fill-opacity="1"/>
<defs>
  <clipPath id="clip832">
    <rect x="194" y="47" width="1337" height="1350"/>
  </clipPath>
</defs>
<polyline clip-path="url(#clip830)" style="stroke:#000000; stroke-linecap:round; stroke-linejoin:round; stroke-width:4; stroke-opacity:1; fill:none" points="194.204,1396.46 1530.14,1396.46 "/>
<polyline clip-path="url(#clip830)" style="stroke:#000000; stroke-linecap:round; stroke-linejoin:round; stroke-width:4; stroke-opacity:1; fill:none" points="194.204,47.2441 1530.14,47.2441 "/>
<polyline clip-path="url(#clip830)" style="stroke:#000000; stroke-linecap:round; stroke-linejoin:round; stroke-width:4; stroke-opacity:1; fill:none" points="194.204,1396.46 194.204,1377.56 "/>
<polyline clip-path="url(#clip830)" style="stroke:#000000; stroke-linecap:round; stroke-linejoin:round; stroke-width:4; stroke-opacity:1; fill:none" points="461.391,1396.46 461.391,1377.56 "/>
<polyline clip-path="url(#clip830)" style="stroke:#000000; stroke-linecap:round; stroke-linejoin:round; stroke-width:4; stroke-opacity:1; fill:none" points="728.578,1396.46 728.578,1377.56 "/>
<polyline clip-path="url(#clip830)" style="stroke:#000000; stroke-linecap:round; stroke-linejoin:round; stroke-width:4; stroke-opacity:1; fill:none" points="995.766,1396.46 995.766,1377.56 "/>
<polyline clip-path="url(#clip830)" style="stroke:#000000; stroke-linecap:round; stroke-linejoin:round; stroke-width:4; stroke-opacity:1; fill:none" points="1262.95,1396.46 1262.95,1377.56 "/>
<polyline clip-path="url(#clip830)" style="stroke:#000000; stroke-linecap:round; stroke-linejoin:round; stroke-width:4; stroke-opacity:1; fill:none" points="1530.14,1396.46 1530.14,1377.56 "/>
<polyline clip-path="url(#clip830)" style="stroke:#000000; stroke-linecap:round; stroke-linejoin:round; stroke-width:4; stroke-opacity:1; fill:none" points="194.204,47.2441 194.204,66.1417 "/>
<polyline clip-path="url(#clip830)" style="stroke:#000000; stroke-linecap:round; stroke-linejoin:round; stroke-width:4; stroke-opacity:1; fill:none" points="461.391,47.2441 461.391,66.1417 "/>
<polyline clip-path="url(#clip830)" style="stroke:#000000; stroke-linecap:round; stroke-linejoin:round; stroke-width:4; stroke-opacity:1; fill:none" points="728.578,47.2441 728.578,66.1417 "/>
<polyline clip-path="url(#clip830)" style="stroke:#000000; stroke-linecap:round; stroke-linejoin:round; stroke-width:4; stroke-opacity:1; fill:none" points="995.766,47.2441 995.766,66.1417 "/>
<polyline clip-path="url(#clip830)" style="stroke:#000000; stroke-linecap:round; stroke-linejoin:round; stroke-width:4; stroke-opacity:1; fill:none" points="1262.95,47.2441 1262.95,66.1417 "/>
<polyline clip-path="url(#clip830)" style="stroke:#000000; stroke-linecap:round; stroke-linejoin:round; stroke-width:4; stroke-opacity:1; fill:none" points="1530.14,47.2441 1530.14,66.1417 "/>
<path clip-path="url(#clip830)" d="M194.204 1433.77 Q190.592 1433.77 188.764 1437.34 Q186.958 1440.88 186.958 1448.01 Q186.958 1455.12 188.764 1458.68 Q190.592 1462.22 194.204 1462.22 Q197.838 1462.22 199.643 1458.68 Q201.472 1455.12 201.472 1448.01 Q201.472 1440.88 199.643 1437.34 Q197.838 1433.77 194.204 1433.77 M194.204 1430.07 Q200.014 1430.07 203.069 1434.68 Q206.148 1439.26 206.148 1448.01 Q206.148 1456.74 203.069 1461.34 Q200.014 1465.93 194.204 1465.93 Q188.393 1465.93 185.315 1461.34 Q182.259 1456.74 182.259 1448.01 Q182.259 1439.26 185.315 1434.68 Q188.393 1430.07 194.204 1430.07 Z" fill="#000000" fill-rule="nonzero" fill-opacity="1" /><path clip-path="url(#clip830)" d="M436.079 1461.32 L443.717 1461.32 L443.717 1434.95 L435.407 1436.62 L435.407 1432.36 L443.671 1430.7 L448.347 1430.7 L448.347 1461.32 L455.986 1461.32 L455.986 1465.26 L436.079 1465.26 L436.079 1461.32 Z" fill="#000000" fill-rule="nonzero" fill-opacity="1" /><path clip-path="url(#clip830)" d="M475.43 1433.77 Q471.819 1433.77 469.99 1437.34 Q468.185 1440.88 468.185 1448.01 Q468.185 1455.12 469.99 1458.68 Q471.819 1462.22 475.43 1462.22 Q479.064 1462.22 480.87 1458.68 Q482.699 1455.12 482.699 1448.01 Q482.699 1440.88 480.87 1437.34 Q479.064 1433.77 475.43 1433.77 M475.43 1430.07 Q481.24 1430.07 484.296 1434.68 Q487.375 1439.26 487.375 1448.01 Q487.375 1456.74 484.296 1461.34 Q481.24 1465.93 475.43 1465.93 Q469.62 1465.93 466.541 1461.34 Q463.486 1456.74 463.486 1448.01 Q463.486 1439.26 466.541 1434.68 Q469.62 1430.07 475.43 1430.07 Z" fill="#000000" fill-rule="nonzero" fill-opacity="1" /><path clip-path="url(#clip830)" d="M707.351 1461.32 L723.671 1461.32 L723.671 1465.26 L701.727 1465.26 L701.727 1461.32 Q704.389 1458.57 708.972 1453.94 Q713.578 1449.28 714.759 1447.94 Q717.004 1445.42 717.884 1443.68 Q718.787 1441.92 718.787 1440.23 Q718.787 1437.48 716.842 1435.74 Q714.921 1434.01 711.819 1434.01 Q709.62 1434.01 707.166 1434.77 Q704.736 1435.53 701.958 1437.08 L701.958 1432.36 Q704.782 1431.23 707.236 1430.65 Q709.689 1430.07 711.726 1430.07 Q717.097 1430.07 720.291 1432.76 Q723.486 1435.44 723.486 1439.93 Q723.486 1442.06 722.675 1443.98 Q721.888 1445.88 719.782 1448.47 Q719.203 1449.14 716.101 1452.36 Q713 1455.56 707.351 1461.32 Z" fill="#000000" fill-rule="nonzero" fill-opacity="1" /><path clip-path="url(#clip830)" d="M743.486 1433.77 Q739.874 1433.77 738.046 1437.34 Q736.24 1440.88 736.24 1448.01 Q736.24 1455.12 738.046 1458.68 Q739.874 1462.22 743.486 1462.22 Q747.12 1462.22 748.925 1458.68 Q750.754 1455.12 750.754 1448.01 Q750.754 1440.88 748.925 1437.34 Q747.12 1433.77 743.486 1433.77 M743.486 1430.07 Q749.296 1430.07 752.351 1434.68 Q755.43 1439.26 755.43 1448.01 Q755.43 1456.74 752.351 1461.34 Q749.296 1465.93 743.486 1465.93 Q737.675 1465.93 734.597 1461.34 Q731.541 1456.74 731.541 1448.01 Q731.541 1439.26 734.597 1434.68 Q737.675 1430.07 743.486 1430.07 Z" fill="#000000" fill-rule="nonzero" fill-opacity="1" /><path clip-path="url(#clip830)" d="M984.608 1446.62 Q987.965 1447.34 989.84 1449.61 Q991.738 1451.88 991.738 1455.21 Q991.738 1460.33 988.219 1463.13 Q984.701 1465.93 978.219 1465.93 Q976.043 1465.93 973.729 1465.49 Q971.437 1465.07 968.983 1464.21 L968.983 1459.7 Q970.928 1460.83 973.243 1461.41 Q975.557 1461.99 978.08 1461.99 Q982.479 1461.99 984.77 1460.26 Q987.085 1458.52 987.085 1455.21 Q987.085 1452.15 984.932 1450.44 Q982.803 1448.7 978.983 1448.7 L974.956 1448.7 L974.956 1444.86 L979.168 1444.86 Q982.618 1444.86 984.446 1443.5 Q986.275 1442.11 986.275 1439.52 Q986.275 1436.85 984.377 1435.44 Q982.502 1434.01 978.983 1434.01 Q977.062 1434.01 974.863 1434.42 Q972.664 1434.84 970.025 1435.72 L970.025 1431.55 Q972.687 1430.81 975.002 1430.44 Q977.34 1430.07 979.4 1430.07 Q984.724 1430.07 987.826 1432.5 Q990.928 1434.91 990.928 1439.03 Q990.928 1441.9 989.284 1443.89 Q987.641 1445.86 984.608 1446.62 Z" fill="#000000" fill-rule="nonzero" fill-opacity="1" /><path clip-path="url(#clip830)" d="M1010.6 1433.77 Q1006.99 1433.77 1005.16 1437.34 Q1003.36 1440.88 1003.36 1448.01 Q1003.36 1455.12 1005.16 1458.68 Q1006.99 1462.22 1010.6 1462.22 Q1014.24 1462.22 1016.04 1458.68 Q1017.87 1455.12 1017.87 1448.01 Q1017.87 1440.88 1016.04 1437.34 Q1014.24 1433.77 1010.6 1433.77 M1010.6 1430.07 Q1016.41 1430.07 1019.47 1434.68 Q1022.55 1439.26 1022.55 1448.01 Q1022.55 1456.74 1019.47 1461.34 Q1016.41 1465.93 1010.6 1465.93 Q1004.79 1465.93 1001.71 1461.34 Q998.659 1456.74 998.659 1448.01 Q998.659 1439.26 1001.71 1434.68 Q1004.79 1430.07 1010.6 1430.07 Z" fill="#000000" fill-rule="nonzero" fill-opacity="1" /><path clip-path="url(#clip830)" d="M1251.12 1434.77 L1239.32 1453.22 L1251.12 1453.22 L1251.12 1434.77 M1249.9 1430.7 L1255.78 1430.7 L1255.78 1453.22 L1260.71 1453.22 L1260.71 1457.11 L1255.78 1457.11 L1255.78 1465.26 L1251.12 1465.26 L1251.12 1457.11 L1235.52 1457.11 L1235.52 1452.59 L1249.9 1430.7 Z" fill="#000000" fill-rule="nonzero" fill-opacity="1" /><path clip-path="url(#clip830)" d="M1278.44 1433.77 Q1274.83 1433.77 1273 1437.34 Q1271.19 1440.88 1271.19 1448.01 Q1271.19 1455.12 1273 1458.68 Q1274.83 1462.22 1278.44 1462.22 Q1282.07 1462.22 1283.88 1458.68 Q1285.71 1455.12 1285.71 1448.01 Q1285.71 1440.88 1283.88 1437.34 Q1282.07 1433.77 1278.44 1433.77 M1278.44 1430.07 Q1284.25 1430.07 1287.3 1434.68 Q1290.38 1439.26 1290.38 1448.01 Q1290.38 1456.74 1287.3 1461.34 Q1284.25 1465.93 1278.44 1465.93 Q1272.63 1465.93 1269.55 1461.34 Q1266.49 1456.74 1266.49 1448.01 Q1266.49 1439.26 1269.55 1434.68 Q1272.63 1430.07 1278.44 1430.07 Z" fill="#000000" fill-rule="nonzero" fill-opacity="1" /><path clip-path="url(#clip830)" d="M1504.84 1430.7 L1523.2 1430.7 L1523.2 1434.63 L1509.12 1434.63 L1509.12 1443.1 Q1510.14 1442.76 1511.16 1442.59 Q1512.18 1442.41 1513.2 1442.41 Q1518.98 1442.41 1522.36 1445.58 Q1525.74 1448.75 1525.74 1454.17 Q1525.74 1459.75 1522.27 1462.85 Q1518.8 1465.93 1512.48 1465.93 Q1510.3 1465.93 1508.03 1465.56 Q1505.79 1465.19 1503.38 1464.45 L1503.38 1459.75 Q1505.46 1460.88 1507.69 1461.44 Q1509.91 1461.99 1512.39 1461.99 Q1516.39 1461.99 1518.73 1459.89 Q1521.07 1457.78 1521.07 1454.17 Q1521.07 1450.56 1518.73 1448.45 Q1516.39 1446.34 1512.39 1446.34 Q1510.51 1446.34 1508.64 1446.76 Q1506.78 1447.18 1504.84 1448.06 L1504.84 1430.7 Z" fill="#000000" fill-rule="nonzero" fill-opacity="1" /><path clip-path="url(#clip830)" d="M1544.96 1433.77 Q1541.34 1433.77 1539.52 1437.34 Q1537.71 1440.88 1537.71 1448.01 Q1537.71 1455.12 1539.52 1458.68 Q1541.34 1462.22 1544.96 1462.22 Q1548.59 1462.22 1550.39 1458.68 Q1552.22 1455.12 1552.22 1448.01 Q1552.22 1440.88 1550.39 1437.34 Q1548.59 1433.77 1544.96 1433.77 M1544.96 1430.07 Q1550.77 1430.07 1553.82 1434.68 Q1556.9 1439.26 1556.9 1448.01 Q1556.9 1456.74 1553.82 1461.34 Q1550.77 1465.93 1544.96 1465.93 Q1539.14 1465.93 1536.07 1461.34 Q1533.01 1456.74 1533.01 1448.01 Q1533.01 1439.26 1536.07 1434.68 Q1539.14 1430.07 1544.96 1430.07 Z" fill="#000000" fill-rule="nonzero" fill-opacity="1" /><path clip-path="url(#clip830)" d="M861.233 1507.55 L861.233 1517.67 L873.296 1517.67 L873.296 1522.22 L861.233 1522.22 L861.233 1541.58 Q861.233 1545.94 862.411 1547.18 Q863.62 1548.42 867.28 1548.42 L873.296 1548.42 L873.296 1553.32 L867.28 1553.32 Q860.501 1553.32 857.923 1550.81 Q855.345 1548.26 855.345 1541.58 L855.345 1522.22 L851.048 1522.22 L851.048 1517.67 L855.345 1517.67 L855.345 1507.55 L861.233 1507.55 Z" fill="#000000" fill-rule="nonzero" fill-opacity="1" /><polyline clip-path="url(#clip830)" style="stroke:#000000; stroke-linecap:round; stroke-linejoin:round; stroke-width:4; stroke-opacity:1; fill:none" points="194.204,1396.46 194.204,47.2441 "/>
<polyline clip-path="url(#clip830)" style="stroke:#000000; stroke-linecap:round; stroke-linejoin:round; stroke-width:4; stroke-opacity:1; fill:none" points="1530.14,1396.46 1530.14,47.2441 "/>
<polyline clip-path="url(#clip830)" style="stroke:#000000; stroke-linecap:round; stroke-linejoin:round; stroke-width:4; stroke-opacity:1; fill:none" points="194.204,1379.33 213.101,1379.33 "/>
<polyline clip-path="url(#clip830)" style="stroke:#000000; stroke-linecap:round; stroke-linejoin:round; stroke-width:4; stroke-opacity:1; fill:none" points="194.204,1176.56 213.101,1176.56 "/>
<polyline clip-path="url(#clip830)" style="stroke:#000000; stroke-linecap:round; stroke-linejoin:round; stroke-width:4; stroke-opacity:1; fill:none" points="194.204,973.792 213.101,973.792 "/>
<polyline clip-path="url(#clip830)" style="stroke:#000000; stroke-linecap:round; stroke-linejoin:round; stroke-width:4; stroke-opacity:1; fill:none" points="194.204,771.024 213.101,771.024 "/>
<polyline clip-path="url(#clip830)" style="stroke:#000000; stroke-linecap:round; stroke-linejoin:round; stroke-width:4; stroke-opacity:1; fill:none" points="194.204,568.255 213.101,568.255 "/>
<polyline clip-path="url(#clip830)" style="stroke:#000000; stroke-linecap:round; stroke-linejoin:round; stroke-width:4; stroke-opacity:1; fill:none" points="194.204,365.487 213.101,365.487 "/>
<polyline clip-path="url(#clip830)" style="stroke:#000000; stroke-linecap:round; stroke-linejoin:round; stroke-width:4; stroke-opacity:1; fill:none" points="194.204,162.718 213.101,162.718 "/>
<polyline clip-path="url(#clip830)" style="stroke:#000000; stroke-linecap:round; stroke-linejoin:round; stroke-width:4; stroke-opacity:1; fill:none" points="1530.14,1379.33 1511.24,1379.33 "/>
<polyline clip-path="url(#clip830)" style="stroke:#000000; stroke-linecap:round; stroke-linejoin:round; stroke-width:4; stroke-opacity:1; fill:none" points="1530.14,1176.56 1511.24,1176.56 "/>
<polyline clip-path="url(#clip830)" style="stroke:#000000; stroke-linecap:round; stroke-linejoin:round; stroke-width:4; stroke-opacity:1; fill:none" points="1530.14,973.792 1511.24,973.792 "/>
<polyline clip-path="url(#clip830)" style="stroke:#000000; stroke-linecap:round; stroke-linejoin:round; stroke-width:4; stroke-opacity:1; fill:none" points="1530.14,771.024 1511.24,771.024 "/>
<polyline clip-path="url(#clip830)" style="stroke:#000000; stroke-linecap:round; stroke-linejoin:round; stroke-width:4; stroke-opacity:1; fill:none" points="1530.14,568.255 1511.24,568.255 "/>
<polyline clip-path="url(#clip830)" style="stroke:#000000; stroke-linecap:round; stroke-linejoin:round; stroke-width:4; stroke-opacity:1; fill:none" points="1530.14,365.487 1511.24,365.487 "/>
<polyline clip-path="url(#clip830)" style="stroke:#000000; stroke-linecap:round; stroke-linejoin:round; stroke-width:4; stroke-opacity:1; fill:none" points="1530.14,162.718 1511.24,162.718 "/>
<path clip-path="url(#clip830)" d="M134.259 1365.13 Q130.648 1365.13 128.819 1368.69 Q127.014 1372.23 127.014 1379.36 Q127.014 1386.47 128.819 1390.04 Q130.648 1393.58 134.259 1393.58 Q137.893 1393.58 139.699 1390.04 Q141.528 1386.47 141.528 1379.36 Q141.528 1372.23 139.699 1368.69 Q137.893 1365.13 134.259 1365.13 M134.259 1361.42 Q140.069 1361.42 143.125 1366.03 Q146.204 1370.61 146.204 1379.36 Q146.204 1388.09 143.125 1392.7 Q140.069 1397.28 134.259 1397.28 Q128.449 1397.28 125.37 1392.7 Q122.315 1388.09 122.315 1379.36 Q122.315 1370.61 125.37 1366.03 Q128.449 1361.42 134.259 1361.42 Z" fill="#000000" fill-rule="nonzero" fill-opacity="1" /><path clip-path="url(#clip830)" d="M129.884 1189.91 L146.204 1189.91 L146.204 1193.84 L124.259 1193.84 L124.259 1189.91 Q126.921 1187.15 131.505 1182.52 Q136.111 1177.87 137.292 1176.53 Q139.537 1174 140.417 1172.27 Q141.319 1170.51 141.319 1168.82 Q141.319 1166.06 139.375 1164.33 Q137.454 1162.59 134.352 1162.59 Q132.153 1162.59 129.699 1163.36 Q127.268 1164.12 124.491 1165.67 L124.491 1160.95 Q127.315 1159.81 129.768 1159.23 Q132.222 1158.66 134.259 1158.66 Q139.629 1158.66 142.824 1161.34 Q146.018 1164.03 146.018 1168.52 Q146.018 1170.65 145.208 1172.57 Q144.421 1174.47 142.315 1177.06 Q141.736 1177.73 138.634 1180.95 Q135.532 1184.14 129.884 1189.91 Z" fill="#000000" fill-rule="nonzero" fill-opacity="1" /><path clip-path="url(#clip830)" d="M136.62 960.586 L124.815 979.035 L136.62 979.035 L136.62 960.586 M135.393 956.512 L141.273 956.512 L141.273 979.035 L146.204 979.035 L146.204 982.924 L141.273 982.924 L141.273 991.072 L136.62 991.072 L136.62 982.924 L121.018 982.924 L121.018 978.41 L135.393 956.512 Z" fill="#000000" fill-rule="nonzero" fill-opacity="1" /><path clip-path="url(#clip830)" d="M134.676 769.16 Q131.528 769.16 129.676 771.313 Q127.847 773.466 127.847 777.216 Q127.847 780.943 129.676 783.119 Q131.528 785.271 134.676 785.271 Q137.824 785.271 139.653 783.119 Q141.504 780.943 141.504 777.216 Q141.504 773.466 139.653 771.313 Q137.824 769.16 134.676 769.16 M143.958 754.508 L143.958 758.767 Q142.199 757.934 140.393 757.494 Q138.611 757.054 136.852 757.054 Q132.222 757.054 129.768 760.179 Q127.338 763.304 126.991 769.623 Q128.356 767.609 130.417 766.545 Q132.477 765.457 134.954 765.457 Q140.162 765.457 143.171 768.628 Q146.204 771.776 146.204 777.216 Q146.204 782.54 143.055 785.758 Q139.907 788.975 134.676 788.975 Q128.68 788.975 125.509 784.392 Q122.338 779.785 122.338 771.059 Q122.338 762.864 126.227 758.003 Q130.116 753.119 136.667 753.119 Q138.426 753.119 140.208 753.466 Q142.014 753.813 143.958 754.508 Z" fill="#000000" fill-rule="nonzero" fill-opacity="1" /><path clip-path="url(#clip830)" d="M134.352 569.123 Q131.018 569.123 129.097 570.906 Q127.199 572.688 127.199 575.813 Q127.199 578.938 129.097 580.72 Q131.018 582.503 134.352 582.503 Q137.685 582.503 139.606 580.72 Q141.528 578.915 141.528 575.813 Q141.528 572.688 139.606 570.906 Q137.708 569.123 134.352 569.123 M129.676 567.133 Q126.667 566.392 124.977 564.332 Q123.31 562.271 123.31 559.309 Q123.31 555.165 126.25 552.758 Q129.213 550.35 134.352 550.35 Q139.514 550.35 142.454 552.758 Q145.393 555.165 145.393 559.309 Q145.393 562.271 143.704 564.332 Q142.037 566.392 139.051 567.133 Q142.43 567.92 144.305 570.211 Q146.204 572.503 146.204 575.813 Q146.204 580.836 143.125 583.521 Q140.069 586.207 134.352 586.207 Q128.634 586.207 125.555 583.521 Q122.5 580.836 122.5 575.813 Q122.5 572.503 124.398 570.211 Q126.296 567.92 129.676 567.133 M127.963 559.748 Q127.963 562.434 129.63 563.938 Q131.319 565.443 134.352 565.443 Q137.361 565.443 139.051 563.938 Q140.764 562.434 140.764 559.748 Q140.764 557.063 139.051 555.559 Q137.361 554.054 134.352 554.054 Q131.319 554.054 129.63 555.559 Q127.963 557.063 127.963 559.748 Z" fill="#000000" fill-rule="nonzero" fill-opacity="1" /><path clip-path="url(#clip830)" d="M94.9075 378.831 L102.546 378.831 L102.546 352.466 L94.2362 354.133 L94.2362 349.873 L102.5 348.207 L107.176 348.207 L107.176 378.831 L114.815 378.831 L114.815 382.767 L94.9075 382.767 L94.9075 378.831 Z" fill="#000000" fill-rule="nonzero" fill-opacity="1" /><path clip-path="url(#clip830)" d="M134.259 351.285 Q130.648 351.285 128.819 354.85 Q127.014 358.392 127.014 365.521 Q127.014 372.628 128.819 376.193 Q130.648 379.734 134.259 379.734 Q137.893 379.734 139.699 376.193 Q141.528 372.628 141.528 365.521 Q141.528 358.392 139.699 354.85 Q137.893 351.285 134.259 351.285 M134.259 347.582 Q140.069 347.582 143.125 352.188 Q146.204 356.771 146.204 365.521 Q146.204 374.248 143.125 378.855 Q140.069 383.438 134.259 383.438 Q128.449 383.438 125.37 378.855 Q122.315 374.248 122.315 365.521 Q122.315 356.771 125.37 352.188 Q128.449 347.582 134.259 347.582 Z" fill="#000000" fill-rule="nonzero" fill-opacity="1" /><path clip-path="url(#clip830)" d="M96.5047 176.063 L104.144 176.063 L104.144 149.697 L95.8334 151.364 L95.8334 147.105 L104.097 145.438 L108.773 145.438 L108.773 176.063 L116.412 176.063 L116.412 179.998 L96.5047 179.998 L96.5047 176.063 Z" fill="#000000" fill-rule="nonzero" fill-opacity="1" /><path clip-path="url(#clip830)" d="M129.884 176.063 L146.204 176.063 L146.204 179.998 L124.259 179.998 L124.259 176.063 Q126.921 173.308 131.505 168.679 Q136.111 164.026 137.292 162.683 Q139.537 160.16 140.417 158.424 Q141.319 156.665 141.319 154.975 Q141.319 152.22 139.375 150.484 Q137.454 148.748 134.352 148.748 Q132.153 148.748 129.699 149.512 Q127.268 150.276 124.491 151.827 L124.491 147.105 Q127.315 145.97 129.768 145.392 Q132.222 144.813 134.259 144.813 Q139.629 144.813 142.824 147.498 Q146.018 150.183 146.018 154.674 Q146.018 156.804 145.208 158.725 Q144.421 160.623 142.315 163.216 Q141.736 163.887 138.634 167.105 Q135.532 170.299 129.884 176.063 Z" fill="#000000" fill-rule="nonzero" fill-opacity="1" /><polyline clip-path="url(#clip832)" style="stroke:#009af9; stroke-linecap:round; stroke-linejoin:round; stroke-width:8; stroke-opacity:1; fill:none" points="194.204,1277.95 195.224,1291.94 196.245,1303.38 197.265,1312.79 198.286,1320.55 199.306,1326.99 200.327,1332.32 201.348,1336.75 202.368,1340.43 203.389,1343.48 204.409,1346.02 205.43,1348.14 206.45,1349.89 207.471,1351.35 208.492,1352.56 209.512,1353.57 210.533,1354.4 211.553,1355.1 212.574,1355.67 213.595,1356.15 214.615,1356.55 215.636,1356.87 216.656,1357.14 217.677,1357.37 218.697,1357.55 219.718,1357.7 220.739,1357.82 221.759,1357.92 222.78,1358.01 223.8,1358.07 224.821,1358.12 225.841,1358.17 226.862,1358.2 227.883,1358.22 228.903,1358.24 229.924,1358.26 230.944,1358.26 231.965,1358.27 232.986,1358.27 234.006,1358.27 235.027,1358.27 236.047,1358.26 237.068,1358.26 238.088,1358.25 239.109,1358.24 240.13,1358.23 241.15,1358.22 242.171,1358.21 243.191,1358.2 244.212,1358.18 245.232,1358.17 246.253,1358.16 247.274,1358.15 248.294,1358.13 249.315,1358.12 250.335,1358.11 251.356,1358.09 252.376,1358.08 253.397,1358.06 254.418,1358.05 255.438,1358.03 256.459,1358.02 257.479,1358.01 258.5,1357.99 259.521,1357.98 260.541,1357.96 261.562,1357.95 262.582,1357.93 263.603,1357.92 264.623,1357.9 265.644,1357.89 266.665,1357.87 267.685,1357.86 268.706,1357.84 269.726,1357.83 270.747,1357.81 271.767,1357.8 272.788,1357.78 273.809,1357.76 274.829,1357.75 275.85,1357.73 276.87,1357.72 277.891,1357.7 278.912,1357.69 279.932,1357.67 280.953,1357.66 281.973,1357.64 282.994,1357.62 284.014,1357.61 285.035,1357.59 286.056,1357.58 287.076,1357.56 288.097,1357.54 289.117,1357.53 290.138,1357.51 291.158,1357.49 292.179,1357.48 293.2,1357.46 294.22,1357.45 295.241,1357.43 296.261,1357.41 297.282,1357.4 298.303,1357.38 299.323,1357.36 300.344,1357.35 301.364,1357.33 302.385,1357.31 303.405,1357.3 304.426,1357.28 305.447,1357.26 306.467,1357.25 307.488,1357.23 308.508,1357.21 309.529,1357.19 310.549,1357.18 311.57,1357.16 312.591,1357.14 313.611,1357.13 314.632,1357.11 315.652,1357.09 316.673,1357.07 317.693,1357.06 318.714,1357.04 319.735,1357.02 320.755,1357.01 321.776,1356.99 322.796,1356.97 323.817,1356.95 324.838,1356.93 325.858,1356.92 326.879,1356.9 327.899,1356.88 328.92,1356.86 329.94,1356.84 330.961,1356.82 331.982,1356.81 333.002,1356.79 334.023,1356.77 335.043,1356.75 336.064,1356.73 337.084,1356.71 338.105,1356.7 339.126,1356.68 340.146,1356.66 341.167,1356.64 342.187,1356.62 343.208,1356.6 344.229,1356.59 345.249,1356.57 346.27,1356.55 347.29,1356.53 348.311,1356.51 349.331,1356.49 350.352,1356.47 351.373,1356.45 352.393,1356.43 353.414,1356.41 354.434,1356.39 355.455,1356.37 356.475,1356.35 357.496,1356.33 358.517,1356.31 359.537,1356.29 360.558,1356.27 361.578,1356.25 362.599,1356.23 363.62,1356.21 364.64,1356.19 365.661,1356.17 366.681,1356.15 367.702,1356.13 368.722,1356.11 369.743,1356.09 370.764,1356.07 371.784,1356.05 372.805,1356.03 373.825,1356.01 374.846,1355.98 375.866,1355.96 376.887,1355.94 377.908,1355.92 378.928,1355.9 379.949,1355.87 380.969,1355.85 381.99,1355.83 383.01,1355.81 384.031,1355.79 385.052,1355.77 386.072,1355.75 387.093,1355.73 388.113,1355.71 389.134,1355.68 390.155,1355.66 391.175,1355.64 392.196,1355.62 393.216,1355.6 394.237,1355.57 395.257,1355.55 396.278,1355.53 397.299,1355.5 398.319,1355.48 399.34,1355.46 400.36,1355.43 401.381,1355.41 402.401,1355.38 403.422,1355.36 404.443,1355.34 405.463,1355.31 406.484,1355.29 407.504,1355.27 408.525,1355.24 409.546,1355.22 410.566,1355.2 411.587,1355.18 412.607,1355.15 413.628,1355.13 414.648,1355.1 415.669,1355.08 416.69,1355.06 417.71,1355.03 418.731,1355.01 419.751,1354.98 420.772,1354.96 421.792,1354.93 422.813,1354.9 423.834,1354.88 424.854,1354.85 425.875,1354.83 426.895,1354.8 427.916,1354.77 428.937,1354.75 429.957,1354.72 430.978,1354.69 431.998,1354.67 433.019,1354.64 434.039,1354.62 435.06,1354.59 436.081,1354.57 437.101,1354.54 438.122,1354.51 439.142,1354.49 440.163,1354.46 441.183,1354.44 442.204,1354.41 443.225,1354.38 444.245,1354.35 445.266,1354.32 446.286,1354.3 447.307,1354.27 448.327,1354.24 449.348,1354.21 450.369,1354.18 451.389,1354.15 452.41,1354.12 453.43,1354.09 454.451,1354.06 455.472,1354.03 456.492,1354 457.513,1353.98 458.533,1353.95 459.554,1353.92 460.574,1353.89 461.595,1353.86 462.616,1353.83 463.636,1353.8 464.657,1353.77 465.677,1353.74 466.698,1353.71 467.718,1353.68 468.739,1353.65 469.76,1353.62 470.78,1353.59 471.801,1353.56 472.821,1353.53 473.842,1353.49 474.863,1353.46 475.883,1353.43 476.904,1353.4 477.924,1353.36 478.945,1353.33 479.965,1353.3 480.986,1353.26 482.007,1353.23 483.027,1353.19 484.048,1353.16 485.068,1353.13 486.089,1353.09 487.109,1353.06 488.13,1353.03 489.151,1352.99 490.171,1352.96 491.192,1352.93 492.212,1352.89 493.233,1352.86 494.254,1352.82 495.274,1352.79 496.295,1352.75 497.315,1352.72 498.336,1352.68 499.356,1352.64 500.377,1352.61 501.398,1352.57 502.418,1352.53 503.439,1352.5 504.459,1352.46 505.48,1352.42 506.5,1352.38 507.521,1352.34 508.542,1352.3 509.562,1352.26 510.583,1352.22 511.603,1352.18 512.624,1352.15 513.644,1352.11 514.665,1352.07 515.686,1352.03 516.706,1351.99 517.727,1351.95 518.747,1351.91 519.768,1351.87 520.789,1351.83 521.809,1351.78 522.83,1351.74 523.85,1351.7 524.871,1351.66 525.891,1351.62 526.912,1351.57 527.933,1351.53 528.953,1351.49 529.974,1351.44 530.994,1351.4 532.015,1351.35 533.035,1351.31 534.056,1351.26 535.077,1351.22 536.097,1351.17 537.118,1351.12 538.138,1351.08 539.159,1351.03 540.18,1350.98 541.2,1350.93 542.221,1350.89 543.241,1350.84 544.262,1350.79 545.282,1350.74 546.303,1350.69 547.324,1350.64 548.344,1350.59 549.365,1350.54 550.385,1350.49 551.406,1350.44 552.426,1350.39 553.447,1350.34 554.468,1350.28 555.488,1350.23 556.509,1350.18 557.529,1350.12 558.55,1350.07 559.57,1350.01 560.591,1349.96 561.612,1349.9 562.632,1349.85 563.653,1349.79 564.673,1349.73 565.694,1349.67 566.715,1349.61 567.735,1349.56 568.756,1349.5 569.776,1349.43 570.797,1349.37 571.817,1349.31 572.838,1349.25 573.859,1349.19 574.879,1349.12 575.9,1349.06 576.92,1349 577.941,1348.93 578.961,1348.87 579.982,1348.8 581.003,1348.73 582.023,1348.66 583.044,1348.6 584.064,1348.53 585.085,1348.46 586.106,1348.39 587.126,1348.32 588.147,1348.24 589.167,1348.17 590.188,1348.1 591.208,1348.02 592.229,1347.95 593.25,1347.87 594.27,1347.79 595.291,1347.71 596.311,1347.64 597.332,1347.56 598.352,1347.47 599.373,1347.39 600.394,1347.31 601.414,1347.23 602.435,1347.14 603.455,1347.05 604.476,1346.97 605.497,1346.88 606.517,1346.79 607.538,1346.7 608.558,1346.61 609.579,1346.51 610.599,1346.42 611.62,1346.32 612.641,1346.22 613.661,1346.12 614.682,1346.02 615.702,1345.92 616.723,1345.81 617.743,1345.7 618.764,1345.59 619.785,1345.47 620.805,1345.35 621.826,1345.22 622.846,1345.1 623.867,1344.97 624.887,1344.84 625.908,1344.71 626.929,1344.57 627.949,1344.44 628.97,1344.3 629.99,1344.16 631.011,1344.02 632.032,1343.88 633.052,1343.74 634.073,1343.6 635.093,1343.45 636.114,1343.31 637.134,1343.16 638.155,1343.01 639.176,1342.86 640.196,1342.7 641.217,1342.55 642.237,1342.39 643.258,1342.23 644.278,1342.06 645.299,1341.9 646.32,1341.73 647.34,1341.55 648.361,1341.37 649.381,1341.18 650.402,1340.99 651.423,1340.8 652.443,1340.59 653.464,1340.38 654.484,1340.16 655.505,1339.94 656.525,1339.7 657.546,1339.46 658.567,1339.2 659.587,1338.93 660.608,1338.66 661.628,1338.37 662.649,1338.06 663.669,1337.74 664.69,1337.41 665.711,1337.06 666.731,1336.7 667.752,1336.32 668.772,1335.91 669.793,1335.49 670.814,1335.05 671.834,1334.59 672.855,1334.11 673.875,1333.6 674.896,1333.06 675.916,1332.48 676.937,1331.87 677.958,1331.22 678.978,1330.54 679.999,1329.8 681.019,1329.02 682.04,1328.17 683.06,1327.25 684.081,1326.25 685.102,1325.16 686.122,1323.95 687.143,1322.61 688.163,1321.12 689.184,1319.45 690.204,1317.55 691.225,1315.4 692.246,1312.96 693.266,1310.16 694.287,1306.86 695.307,1302.88 696.328,1298 697.349,1291.92 698.369,1283.94 699.39,1273.79 700.41,1260 701.431,1239.16 702.451,1205.31 703.472,1145.54 704.493,1012 705.513,645.559 706.534,136.353 707.554,89.2708 708.575,131.139 709.595,176.179 710.616,219.875 711.637,262.039 712.657,302.715 713.678,341.958 714.698,379.82 715.719,416.365 716.74,451.651 717.76,485.706 718.781,518.604 719.801,550.379 720.822,581.081 721.842,610.755 722.863,639.443 723.884,667.185 724.904,694.028 725.925,719.998 726.945,745.148 727.966,769.503 728.986,793.102 730.007,815.982 731.028,838.172 732.048,859.705 733.069,880.612 734.089,900.924 735.11,920.671 736.131,939.877 737.151,958.567 738.172,976.767 739.192,994.505 740.213,1011.8 741.233,1028.68 742.254,1045.15 743.275,1061.24 744.295,1076.95 745.316,1092.3 746.336,1107.3 747.357,1121.95 748.377,1136.25 749.398,1150.2 750.419,1163.79 751.439,1177.01 752.46,1189.85 753.48,1202.27 754.501,1214.27 755.521,1225.81 756.542,1236.86 757.563,1247.41 758.583,1257.42 759.604,1266.87 760.624,1275.74 761.645,1284.02 762.666,1291.7 763.686,1298.78 764.707,1305.28 765.727,1311.19 766.748,1316.55 767.768,1321.38 768.789,1325.71 769.81,1329.6 770.83,1333.06 771.851,1336.12 772.871,1338.8 773.892,1341.13 774.912,1343.17 775.933,1344.94 776.954,1346.5 777.974,1347.87 778.995,1349.06 780.015,1350.09 781.036,1350.97 782.057,1351.74 783.077,1352.4 784.098,1352.97 785.118,1353.46 786.139,1353.89 787.159,1354.25 788.18,1354.55 789.201,1354.82 790.221,1355.04 791.242,1355.23 792.262,1355.39 793.283,1355.53 794.303,1355.65 795.324,1355.74 796.345,1355.82 797.365,1355.89 798.386,1355.94 799.406,1355.99 800.427,1356.03 801.448,1356.06 802.468,1356.08 803.489,1356.09 804.509,1356.1 805.53,1356.11 806.55,1356.11 807.571,1356.11 808.592,1356.11 809.612,1356.11 810.633,1356.1 811.653,1356.09 812.674,1356.08 813.694,1356.07 814.715,1356.05 815.736,1356.04 816.756,1356.02 817.777,1356.01 818.797,1355.99 819.818,1355.97 820.838,1355.96 821.859,1355.94 822.88,1355.92 823.9,1355.9 824.921,1355.88 825.941,1355.86 826.962,1355.84 827.983,1355.82 829.003,1355.8 830.024,1355.78 831.044,1355.76 832.065,1355.74 833.085,1355.71 834.106,1355.69 835.127,1355.67 836.147,1355.65 837.168,1355.63 838.188,1355.61 839.209,1355.58 840.229,1355.56 841.25,1355.54 842.271,1355.52 843.291,1355.49 844.312,1355.47 845.332,1355.45 846.353,1355.42 847.374,1355.4 848.394,1355.38 849.415,1355.35 850.435,1355.33 851.456,1355.31 852.476,1355.28 853.497,1355.26 854.518,1355.24 855.538,1355.21 856.559,1355.19 857.579,1355.17 858.6,1355.14 859.62,1355.12 860.641,1355.09 861.662,1355.07 862.682,1355.04 863.703,1355.02 864.723,1354.99 865.744,1354.97 866.765,1354.94 867.785,1354.92 868.806,1354.89 869.826,1354.87 870.847,1354.84 871.867,1354.82 872.888,1354.79 873.909,1354.77 874.929,1354.74 875.95,1354.72 876.97,1354.69 877.991,1354.66 879.011,1354.64 880.032,1354.61 881.053,1354.58 882.073,1354.56 883.094,1354.53 884.114,1354.5 885.135,1354.48 886.155,1354.45 887.176,1354.42 888.197,1354.39 889.217,1354.37 890.238,1354.34 891.258,1354.31 892.279,1354.28 893.3,1354.26 894.32,1354.23 895.341,1354.2 896.361,1354.17 897.382,1354.14 898.402,1354.12 899.423,1354.09 900.444,1354.06 901.464,1354.03 902.485,1354 903.505,1353.97 904.526,1353.94 905.546,1353.91 906.567,1353.88 907.588,1353.85 908.608,1353.82 909.629,1353.79 910.649,1353.76 911.67,1353.73 912.691,1353.7 913.711,1353.67 914.732,1353.64 915.752,1353.61 916.773,1353.57 917.793,1353.54 918.814,1353.51 919.835,1353.48 920.855,1353.45 921.876,1353.42 922.896,1353.39 923.917,1353.35 924.937,1353.32 925.958,1353.29 926.979,1353.25 927.999,1353.22 929.02,1353.19 930.04,1353.15 931.061,1353.12 932.082,1353.09 933.102,1353.05 934.123,1353.02 935.143,1352.98 936.164,1352.95 937.184,1352.91 938.205,1352.88 939.226,1352.84 940.246,1352.81 941.267,1352.77 942.287,1352.74 943.308,1352.7 944.328,1352.66 945.349,1352.63 946.37,1352.59 947.39,1352.56 948.411,1352.52 949.431,1352.48 950.452,1352.45 951.472,1352.41 952.493,1352.37 953.514,1352.33 954.534,1352.29 955.555,1352.25 956.575,1352.21 957.596,1352.18 958.617,1352.14 959.637,1352.1 960.658,1352.06 961.678,1352.01 962.699,1351.97 963.719,1351.93 964.74,1351.89 965.761,1351.85 966.781,1351.81 967.802,1351.77 968.822,1351.73 969.843,1351.68 970.863,1351.64 971.884,1351.6 972.905,1351.56 973.925,1351.51 974.946,1351.47 975.966,1351.43 976.987,1351.38 978.008,1351.34 979.028,1351.29 980.049,1351.25 981.069,1351.2 982.09,1351.16 983.11,1351.11 984.131,1351.06 985.152,1351.02 986.172,1350.97 987.193,1350.92 988.213,1350.87 989.234,1350.82 990.254,1350.77 991.275,1350.72 992.296,1350.67 993.316,1350.62 994.337,1350.57 995.357,1350.52 996.378,1350.47 997.399,1350.42 998.419,1350.37 999.44,1350.32 1000.46,1350.26 1001.48,1350.21 1002.5,1350.16 1003.52,1350.1 1004.54,1350.05 1005.56,1349.99 1006.58,1349.94 1007.6,1349.88 1008.62,1349.83 1009.65,1349.77 1010.67,1349.71 1011.69,1349.65 1012.71,1349.59 1013.73,1349.53 1014.75,1349.47 1015.77,1349.41 1016.79,1349.35 1017.81,1349.29 1018.83,1349.23 1019.85,1349.17 1020.87,1349.1 1021.89,1349.04 1022.91,1348.97 1023.93,1348.91 1024.95,1348.84 1025.97,1348.78 1027,1348.71 1028.02,1348.64 1029.04,1348.57 1030.06,1348.5 1031.08,1348.43 1032.1,1348.36 1033.12,1348.29 1034.14,1348.22 1035.16,1348.14 1036.18,1348.07 1037.2,1348 1038.22,1347.92 1039.24,1347.84 1040.26,1347.77 1041.28,1347.69 1042.3,1347.61 1043.32,1347.53 1044.35,1347.45 1045.37,1347.36 1046.39,1347.28 1047.41,1347.19 1048.43,1347.11 1049.45,1347.02 1050.47,1346.93 1051.49,1346.85 1052.51,1346.76 1053.53,1346.66 1054.55,1346.57 1055.57,1346.48 1056.59,1346.38 1057.61,1346.29 1058.63,1346.19 1059.65,1346.09 1060.67,1345.99 1061.69,1345.88 1062.72,1345.78 1063.74,1345.67 1064.76,1345.56 1065.78,1345.45 1066.8,1345.34 1067.82,1345.23 1068.84,1345.11 1069.86,1344.98 1070.88,1344.86 1071.9,1344.73 1072.92,1344.6 1073.94,1344.47 1074.96,1344.34 1075.98,1344.2 1077,1344.06 1078.02,1343.92 1079.04,1343.78 1080.07,1343.63 1081.09,1343.49 1082.11,1343.34 1083.13,1343.19 1084.15,1343.03 1085.17,1342.88 1086.19,1342.72 1087.21,1342.56 1088.23,1342.39 1089.25,1342.22 1090.27,1342.05 1091.29,1341.88 1092.31,1341.69 1093.33,1341.51 1094.35,1341.32 1095.37,1341.12 1096.39,1340.92 1097.42,1340.72 1098.44,1340.5 1099.46,1340.28 1100.48,1340.05 1101.5,1339.81 1102.52,1339.57 1103.54,1339.31 1104.56,1339.05 1105.58,1338.77 1106.6,1338.48 1107.62,1338.18 1108.64,1337.87 1109.66,1337.55 1110.68,1337.21 1111.7,1336.85 1112.72,1336.48 1113.74,1336.1 1114.76,1335.69 1115.79,1335.27 1116.81,1334.83 1117.83,1334.36 1118.85,1333.86 1119.87,1333.33 1120.89,1332.78 1121.91,1332.2 1122.93,1331.58 1123.95,1330.92 1124.97,1330.22 1125.99,1329.47 1127.01,1328.66 1128.03,1327.78 1129.05,1326.83 1130.07,1325.78 1131.09,1324.63 1132.11,1323.36 1133.14,1321.96 1134.16,1320.33 1135.18,1318.48 1136.2,1316.43 1137.22,1314.18 1138.24,1311.67 1139.26,1308.77 1140.28,1305.3 1141.3,1301.02 1142.32,1295.63 1143.34,1288.77 1144.36,1279.99 1145.38,1268.22 1146.4,1251.67 1147.42,1226.27 1148.44,1183.35 1149.46,1101.02 1150.49,895.336 1151.51,374.732 1152.53,85.4293 1153.55,106.543 1154.57,151.378 1155.59,195.891 1156.61,238.9 1157.63,280.391 1158.65,320.418 1159.67,359.042 1160.69,396.314 1161.71,432.281 1162.73,467.013 1163.75,500.549 1164.77,532.934 1165.79,564.231 1166.81,594.461 1167.84,623.695 1168.86,651.951 1169.88,679.288 1170.9,705.737 1171.92,731.334 1172.94,756.127 1173.96,780.139 1174.98,803.411 1176,825.98 1177.02,847.873 1178.04,869.122 1179.06,889.76 1180.08,909.815 1181.1,929.317 1182.12,948.291 1183.14,966.76 1184.16,984.749 1185.18,1002.29 1186.21,1019.39 1187.23,1036.09 1188.25,1052.39 1189.27,1068.3 1190.29,1083.85 1191.31,1099.04 1192.33,1113.89 1193.35,1128.38 1194.37,1142.53 1195.39,1156.32 1196.41,1169.75 1197.43,1182.8 1198.45,1195.45 1199.47,1207.69 1200.49,1219.48 1201.51,1230.81 1202.53,1241.64 1203.56,1251.95 1204.58,1261.71 1205.6,1270.91 1206.62,1279.51 1207.64,1287.53 1208.66,1294.94 1209.68,1301.76 1210.7,1307.99 1211.72,1313.66 1212.74,1318.77 1213.76,1323.37 1214.78,1327.49 1215.8,1331.17 1216.82,1334.44 1217.84,1337.33 1218.86,1339.86 1219.88,1342.07 1220.91,1343.99 1221.93,1345.67 1222.95,1347.14 1223.97,1348.43 1224.99,1349.54 1226.01,1350.51 1227.03,1351.34 1228.05,1352.05 1229.07,1352.67 1230.09,1353.2 1231.11,1353.66 1232.13,1354.06 1233.15,1354.39 1234.17,1354.68 1235.19,1354.92 1236.21,1355.13 1237.23,1355.31 1238.25,1355.46 1239.28,1355.58 1240.3,1355.69 1241.32,1355.78 1242.34,1355.86 1243.36,1355.92 1244.38,1355.97 1245.4,1356.01 1246.42,1356.04 1247.44,1356.07 1248.46,1356.09 1249.48,1356.1 1250.5,1356.11 1251.52,1356.11 1252.54,1356.11 1253.56,1356.11 1254.58,1356.11 1255.6,1356.1 1256.63,1356.09 1257.65,1356.09 1258.67,1356.07 1259.69,1356.06 1260.71,1356.05 1261.73,1356.03 1262.75,1356.02 1263.77,1356 1264.79,1355.98 1265.81,1355.97 1266.83,1355.95 1267.85,1355.93 1268.87,1355.91 1269.89,1355.89 1270.91,1355.87 1271.93,1355.85 1272.95,1355.83 1273.98,1355.81 1275,1355.79 1276.02,1355.77 1277.04,1355.75 1278.06,1355.73 1279.08,1355.7 1280.1,1355.68 1281.12,1355.66 1282.14,1355.64 1283.16,1355.62 1284.18,1355.6 1285.2,1355.57 1286.22,1355.55 1287.24,1355.53 1288.26,1355.51 1289.28,1355.48 1290.3,1355.46 1291.33,1355.44 1292.35,1355.41 1293.37,1355.39 1294.39,1355.37 1295.41,1355.34 1296.43,1355.32 1297.45,1355.3 1298.47,1355.27 1299.49,1355.25 1300.51,1355.23 1301.53,1355.2 1302.55,1355.18 1303.57,1355.16 1304.59,1355.13 1305.61,1355.11 1306.63,1355.08 1307.65,1355.06 1308.67,1355.03 1309.7,1355.01 1310.72,1354.98 1311.74,1354.96 1312.76,1354.93 1313.78,1354.91 1314.8,1354.88 1315.82,1354.86 1316.84,1354.83 1317.86,1354.81 1318.88,1354.78 1319.9,1354.76 1320.92,1354.73 1321.94,1354.7 1322.96,1354.68 1323.98,1354.65 1325,1354.63 1326.02,1354.6 1327.05,1354.57 1328.07,1354.55 1329.09,1354.52 1330.11,1354.49 1331.13,1354.46 1332.15,1354.44 1333.17,1354.41 1334.19,1354.38 1335.21,1354.35 1336.23,1354.33 1337.25,1354.3 1338.27,1354.27 1339.29,1354.24 1340.31,1354.22 1341.33,1354.19 1342.35,1354.16 1343.37,1354.13 1344.4,1354.1 1345.42,1354.07 1346.44,1354.05 1347.46,1354.02 1348.48,1353.99 1349.5,1353.96 1350.52,1353.93 1351.54,1353.9 1352.56,1353.87 1353.58,1353.84 1354.6,1353.81 1355.62,1353.78 1356.64,1353.75 1357.66,1353.71 1358.68,1353.68 1359.7,1353.65 1360.72,1353.62 1361.74,1353.59 1362.77,1353.56 1363.79,1353.53 1364.81,1353.5 1365.83,1353.47 1366.85,1353.43 1367.87,1353.4 1368.89,1353.37 1369.91,1353.34 1370.93,1353.31 1371.95,1353.27 1372.97,1353.24 1373.99,1353.21 1375.01,1353.17 1376.03,1353.14 1377.05,1353.11 1378.07,1353.07 1379.09,1353.04 1380.12,1353 1381.14,1352.97 1382.16,1352.93 1383.18,1352.9 1384.2,1352.86 1385.22,1352.83 1386.24,1352.79 1387.26,1352.76 1388.28,1352.72 1389.3,1352.68 1390.32,1352.65 1391.34,1352.61 1392.36,1352.58 1393.38,1352.54 1394.4,1352.5 1395.42,1352.47 1396.44,1352.43 1397.47,1352.39 1398.49,1352.35 1399.51,1352.31 1400.53,1352.28 1401.55,1352.24 1402.57,1352.2 1403.59,1352.16 1404.61,1352.12 1405.63,1352.08 1406.65,1352.04 1407.67,1352 1408.69,1351.96 1409.71,1351.91 1410.73,1351.87 1411.75,1351.83 1412.77,1351.79 1413.79,1351.75 1414.81,1351.71 1415.84,1351.66 1416.86,1351.62 1417.88,1351.58 1418.9,1351.54 1419.92,1351.49 1420.94,1351.45 1421.96,1351.41 1422.98,1351.36 1424,1351.32 1425.02,1351.27 1426.04,1351.23 1427.06,1351.18 1428.08,1351.13 1429.1,1351.09 1430.12,1351.04 1431.14,1350.99 1432.16,1350.95 1433.19,1350.9 1434.21,1350.85 1435.23,1350.8 1436.25,1350.75 1437.27,1350.7 1438.29,1350.65 1439.31,1350.6 1440.33,1350.55 1441.35,1350.5 1442.37,1350.45 1443.39,1350.4 1444.41,1350.34 1445.43,1350.29 1446.45,1350.24 1447.47,1350.19 1448.49,1350.13 1449.51,1350.08 1450.54,1350.02 1451.56,1349.97 1452.58,1349.91 1453.6,1349.86 1454.62,1349.8 1455.64,1349.74 1456.66,1349.68 1457.68,1349.63 1458.7,1349.57 1459.72,1349.51 1460.74,1349.45 1461.76,1349.39 1462.78,1349.33 1463.8,1349.26 1464.82,1349.2 1465.84,1349.14 1466.86,1349.07 1467.89,1349.01 1468.91,1348.95 1469.93,1348.88 1470.95,1348.81 1471.97,1348.75 1472.99,1348.68 1474.01,1348.61 1475.03,1348.54 1476.05,1348.47 1477.07,1348.4 1478.09,1348.33 1479.11,1348.26 1480.13,1348.19 1481.15,1348.11 1482.17,1348.04 1483.19,1347.96 1484.21,1347.89 1485.23,1347.81 1486.26,1347.73 1487.28,1347.65 1488.3,1347.57 1489.32,1347.49 1490.34,1347.41 1491.36,1347.33 1492.38,1347.24 1493.4,1347.16 1494.42,1347.07 1495.44,1346.98 1496.46,1346.9 1497.48,1346.81 1498.5,1346.71 1499.52,1346.62 1500.54,1346.53 1501.56,1346.43 1502.58,1346.34 1503.61,1346.24 1504.63,1346.14 1505.65,1346.04 1506.67,1345.94 1507.69,1345.84 1508.71,1345.73 1509.73,1345.62 1510.75,1345.52 1511.77,1345.4 1512.79,1345.29 1513.81,1345.18 1514.83,1345.06 1515.85,1344.94 1516.87,1344.82 1517.89,1344.7 1518.91,1344.58 1519.93,1344.45 1520.96,1344.32 1521.98,1344.19 1523,1344.05 1524.02,1343.91 1525.04,1343.77 1526.06,1343.63 1527.08,1343.49 1528.1,1343.34 1529.12,1343.18 1530.14,1343.03 "/>
<path clip-path="url(#clip830)" d="M1322.43 195.898 L1485.61 195.898 L1485.61 92.2178 L1322.43 92.2178  Z" fill="#ffffff" fill-rule="evenodd" fill-opacity="1"/>
<polyline clip-path="url(#clip830)" style="stroke:#000000; stroke-linecap:round; stroke-linejoin:round; stroke-width:4; stroke-opacity:1; fill:none" points="1322.43,195.898 1485.61,195.898 1485.61,92.2178 1322.43,92.2178 1322.43,195.898 "/>
<polyline clip-path="url(#clip830)" style="stroke:#009af9; stroke-linecap:round; stroke-linejoin:round; stroke-width:8; stroke-opacity:1; fill:none" points="1337.28,144.058 1426.34,144.058 "/>
<path clip-path="url(#clip830)" d="M1442.76 126.778 L1447.78 126.778 L1456.37 139.625 L1465 126.778 L1470.02 126.778 L1458.91 143.375 L1470.77 161.338 L1465.74 161.338 L1456.02 146.639 L1446.23 161.338 L1441.18 161.338 L1453.52 142.889 L1442.76 126.778 Z" fill="#000000" fill-rule="nonzero" fill-opacity="1" /><path clip-path="url(#clip830)" d="M1816.82 1396.46 L3152.76 1396.46 L3152.76 47.2441 L1816.82 47.2441  Z" fill="#ffffff" fill-rule="evenodd" fill-opacity="1"/>
<defs>
  <clipPath id="clip833">
    <rect x="1816" y="47" width="1337" height="1350"/>
  </clipPath>
</defs>
<polyline clip-path="url(#clip830)" style="stroke:#000000; stroke-linecap:round; stroke-linejoin:round; stroke-width:4; stroke-opacity:1; fill:none" points="1816.82,1396.46 3152.76,1396.46 "/>
<polyline clip-path="url(#clip830)" style="stroke:#000000; stroke-linecap:round; stroke-linejoin:round; stroke-width:4; stroke-opacity:1; fill:none" points="1816.82,47.2441 3152.76,47.2441 "/>
<polyline clip-path="url(#clip830)" style="stroke:#000000; stroke-linecap:round; stroke-linejoin:round; stroke-width:4; stroke-opacity:1; fill:none" points="1816.82,1396.46 1816.82,1377.56 "/>
<polyline clip-path="url(#clip830)" style="stroke:#000000; stroke-linecap:round; stroke-linejoin:round; stroke-width:4; stroke-opacity:1; fill:none" points="2084.01,1396.46 2084.01,1377.56 "/>
<polyline clip-path="url(#clip830)" style="stroke:#000000; stroke-linecap:round; stroke-linejoin:round; stroke-width:4; stroke-opacity:1; fill:none" points="2351.19,1396.46 2351.19,1377.56 "/>
<polyline clip-path="url(#clip830)" style="stroke:#000000; stroke-linecap:round; stroke-linejoin:round; stroke-width:4; stroke-opacity:1; fill:none" points="2618.38,1396.46 2618.38,1377.56 "/>
<polyline clip-path="url(#clip830)" style="stroke:#000000; stroke-linecap:round; stroke-linejoin:round; stroke-width:4; stroke-opacity:1; fill:none" points="2885.57,1396.46 2885.57,1377.56 "/>
<polyline clip-path="url(#clip830)" style="stroke:#000000; stroke-linecap:round; stroke-linejoin:round; stroke-width:4; stroke-opacity:1; fill:none" points="3152.76,1396.46 3152.76,1377.56 "/>
<polyline clip-path="url(#clip830)" style="stroke:#000000; stroke-linecap:round; stroke-linejoin:round; stroke-width:4; stroke-opacity:1; fill:none" points="1816.82,47.2441 1816.82,66.1417 "/>
<polyline clip-path="url(#clip830)" style="stroke:#000000; stroke-linecap:round; stroke-linejoin:round; stroke-width:4; stroke-opacity:1; fill:none" points="2084.01,47.2441 2084.01,66.1417 "/>
<polyline clip-path="url(#clip830)" style="stroke:#000000; stroke-linecap:round; stroke-linejoin:round; stroke-width:4; stroke-opacity:1; fill:none" points="2351.19,47.2441 2351.19,66.1417 "/>
<polyline clip-path="url(#clip830)" style="stroke:#000000; stroke-linecap:round; stroke-linejoin:round; stroke-width:4; stroke-opacity:1; fill:none" points="2618.38,47.2441 2618.38,66.1417 "/>
<polyline clip-path="url(#clip830)" style="stroke:#000000; stroke-linecap:round; stroke-linejoin:round; stroke-width:4; stroke-opacity:1; fill:none" points="2885.57,47.2441 2885.57,66.1417 "/>
<polyline clip-path="url(#clip830)" style="stroke:#000000; stroke-linecap:round; stroke-linejoin:round; stroke-width:4; stroke-opacity:1; fill:none" points="3152.76,47.2441 3152.76,66.1417 "/>
<path clip-path="url(#clip830)" d="M1816.82 1433.77 Q1813.21 1433.77 1811.38 1437.34 Q1809.57 1440.88 1809.57 1448.01 Q1809.57 1455.12 1811.38 1458.68 Q1813.21 1462.22 1816.82 1462.22 Q1820.45 1462.22 1822.26 1458.68 Q1824.09 1455.12 1824.09 1448.01 Q1824.09 1440.88 1822.26 1437.34 Q1820.45 1433.77 1816.82 1433.77 M1816.82 1430.07 Q1822.63 1430.07 1825.68 1434.68 Q1828.76 1439.26 1828.76 1448.01 Q1828.76 1456.74 1825.68 1461.34 Q1822.63 1465.93 1816.82 1465.93 Q1811.01 1465.93 1807.93 1461.34 Q1804.87 1456.74 1804.87 1448.01 Q1804.87 1439.26 1807.93 1434.68 Q1811.01 1430.07 1816.82 1430.07 Z" fill="#000000" fill-rule="nonzero" fill-opacity="1" /><path clip-path="url(#clip830)" d="M2058.69 1461.32 L2066.33 1461.32 L2066.33 1434.95 L2058.02 1436.62 L2058.02 1432.36 L2066.29 1430.7 L2070.96 1430.7 L2070.96 1461.32 L2078.6 1461.32 L2078.6 1465.26 L2058.69 1465.26 L2058.69 1461.32 Z" fill="#000000" fill-rule="nonzero" fill-opacity="1" /><path clip-path="url(#clip830)" d="M2098.05 1433.77 Q2094.43 1433.77 2092.61 1437.34 Q2090.8 1440.88 2090.8 1448.01 Q2090.8 1455.12 2092.61 1458.68 Q2094.43 1462.22 2098.05 1462.22 Q2101.68 1462.22 2103.49 1458.68 Q2105.31 1455.12 2105.31 1448.01 Q2105.31 1440.88 2103.49 1437.34 Q2101.68 1433.77 2098.05 1433.77 M2098.05 1430.07 Q2103.86 1430.07 2106.91 1434.68 Q2109.99 1439.26 2109.99 1448.01 Q2109.99 1456.74 2106.91 1461.34 Q2103.86 1465.93 2098.05 1465.93 Q2092.24 1465.93 2089.16 1461.34 Q2086.1 1456.74 2086.1 1448.01 Q2086.1 1439.26 2089.16 1434.68 Q2092.24 1430.07 2098.05 1430.07 Z" fill="#000000" fill-rule="nonzero" fill-opacity="1" /><path clip-path="url(#clip830)" d="M2329.97 1461.32 L2346.29 1461.32 L2346.29 1465.26 L2324.34 1465.26 L2324.34 1461.32 Q2327 1458.57 2331.59 1453.94 Q2336.19 1449.28 2337.37 1447.94 Q2339.62 1445.42 2340.5 1443.68 Q2341.4 1441.92 2341.4 1440.23 Q2341.4 1437.48 2339.46 1435.74 Q2337.54 1434.01 2334.43 1434.01 Q2332.24 1434.01 2329.78 1434.77 Q2327.35 1435.53 2324.57 1437.08 L2324.57 1432.36 Q2327.4 1431.23 2329.85 1430.65 Q2332.31 1430.07 2334.34 1430.07 Q2339.71 1430.07 2342.91 1432.76 Q2346.1 1435.44 2346.1 1439.93 Q2346.1 1442.06 2345.29 1443.98 Q2344.5 1445.88 2342.4 1448.47 Q2341.82 1449.14 2338.72 1452.36 Q2335.62 1455.56 2329.97 1461.32 Z" fill="#000000" fill-rule="nonzero" fill-opacity="1" /><path clip-path="url(#clip830)" d="M2366.1 1433.77 Q2362.49 1433.77 2360.66 1437.34 Q2358.86 1440.88 2358.86 1448.01 Q2358.86 1455.12 2360.66 1458.68 Q2362.49 1462.22 2366.1 1462.22 Q2369.74 1462.22 2371.54 1458.68 Q2373.37 1455.12 2373.37 1448.01 Q2373.37 1440.88 2371.54 1437.34 Q2369.74 1433.77 2366.1 1433.77 M2366.1 1430.07 Q2371.91 1430.07 2374.97 1434.68 Q2378.05 1439.26 2378.05 1448.01 Q2378.05 1456.74 2374.97 1461.34 Q2371.91 1465.93 2366.1 1465.93 Q2360.29 1465.93 2357.21 1461.34 Q2354.16 1456.74 2354.16 1448.01 Q2354.16 1439.26 2357.21 1434.68 Q2360.29 1430.07 2366.1 1430.07 Z" fill="#000000" fill-rule="nonzero" fill-opacity="1" /><path clip-path="url(#clip830)" d="M2607.22 1446.62 Q2610.58 1447.34 2612.46 1449.61 Q2614.35 1451.88 2614.35 1455.21 Q2614.35 1460.33 2610.83 1463.13 Q2607.32 1465.93 2600.84 1465.93 Q2598.66 1465.93 2596.34 1465.49 Q2594.05 1465.07 2591.6 1464.21 L2591.6 1459.7 Q2593.54 1460.83 2595.86 1461.41 Q2598.17 1461.99 2600.7 1461.99 Q2605.09 1461.99 2607.39 1460.26 Q2609.7 1458.52 2609.7 1455.21 Q2609.7 1452.15 2607.55 1450.44 Q2605.42 1448.7 2601.6 1448.7 L2597.57 1448.7 L2597.57 1444.86 L2601.78 1444.86 Q2605.23 1444.86 2607.06 1443.5 Q2608.89 1442.11 2608.89 1439.52 Q2608.89 1436.85 2606.99 1435.44 Q2605.12 1434.01 2601.6 1434.01 Q2599.68 1434.01 2597.48 1434.42 Q2595.28 1434.84 2592.64 1435.72 L2592.64 1431.55 Q2595.3 1430.81 2597.62 1430.44 Q2599.96 1430.07 2602.02 1430.07 Q2607.34 1430.07 2610.44 1432.5 Q2613.54 1434.91 2613.54 1439.03 Q2613.54 1441.9 2611.9 1443.89 Q2610.26 1445.86 2607.22 1446.62 Z" fill="#000000" fill-rule="nonzero" fill-opacity="1" /><path clip-path="url(#clip830)" d="M2633.22 1433.77 Q2629.61 1433.77 2627.78 1437.34 Q2625.97 1440.88 2625.97 1448.01 Q2625.97 1455.12 2627.78 1458.68 Q2629.61 1462.22 2633.22 1462.22 Q2636.85 1462.22 2638.66 1458.68 Q2640.49 1455.12 2640.49 1448.01 Q2640.49 1440.88 2638.66 1437.34 Q2636.85 1433.77 2633.22 1433.77 M2633.22 1430.07 Q2639.03 1430.07 2642.08 1434.68 Q2645.16 1439.26 2645.16 1448.01 Q2645.16 1456.74 2642.08 1461.34 Q2639.03 1465.93 2633.22 1465.93 Q2627.41 1465.93 2624.33 1461.34 Q2621.27 1456.74 2621.27 1448.01 Q2621.27 1439.26 2624.33 1434.68 Q2627.41 1430.07 2633.22 1430.07 Z" fill="#000000" fill-rule="nonzero" fill-opacity="1" /><path clip-path="url(#clip830)" d="M2873.74 1434.77 L2861.93 1453.22 L2873.74 1453.22 L2873.74 1434.77 M2872.51 1430.7 L2878.39 1430.7 L2878.39 1453.22 L2883.32 1453.22 L2883.32 1457.11 L2878.39 1457.11 L2878.39 1465.26 L2873.74 1465.26 L2873.74 1457.11 L2858.14 1457.11 L2858.14 1452.59 L2872.51 1430.7 Z" fill="#000000" fill-rule="nonzero" fill-opacity="1" /><path clip-path="url(#clip830)" d="M2901.05 1433.77 Q2897.44 1433.77 2895.61 1437.34 Q2893.81 1440.88 2893.81 1448.01 Q2893.81 1455.12 2895.61 1458.68 Q2897.44 1462.22 2901.05 1462.22 Q2904.69 1462.22 2906.49 1458.68 Q2908.32 1455.12 2908.32 1448.01 Q2908.32 1440.88 2906.49 1437.34 Q2904.69 1433.77 2901.05 1433.77 M2901.05 1430.07 Q2906.86 1430.07 2909.92 1434.68 Q2913 1439.26 2913 1448.01 Q2913 1456.74 2909.92 1461.34 Q2906.86 1465.93 2901.05 1465.93 Q2895.24 1465.93 2892.17 1461.34 Q2889.11 1456.74 2889.11 1448.01 Q2889.11 1439.26 2892.17 1434.68 Q2895.24 1430.07 2901.05 1430.07 Z" fill="#000000" fill-rule="nonzero" fill-opacity="1" /><path clip-path="url(#clip830)" d="M3127.46 1430.7 L3145.81 1430.7 L3145.81 1434.63 L3131.74 1434.63 L3131.74 1443.1 Q3132.76 1442.76 3133.77 1442.59 Q3134.79 1442.41 3135.81 1442.41 Q3141.6 1442.41 3144.98 1445.58 Q3148.36 1448.75 3148.36 1454.17 Q3148.36 1459.75 3144.89 1462.85 Q3141.41 1465.93 3135.09 1465.93 Q3132.92 1465.93 3130.65 1465.56 Q3128.4 1465.19 3126 1464.45 L3126 1459.75 Q3128.08 1460.88 3130.3 1461.44 Q3132.52 1461.99 3135 1461.99 Q3139.01 1461.99 3141.34 1459.89 Q3143.68 1457.78 3143.68 1454.17 Q3143.68 1450.56 3141.34 1448.45 Q3139.01 1446.34 3135 1446.34 Q3133.13 1446.34 3131.25 1446.76 Q3129.4 1447.18 3127.46 1448.06 L3127.46 1430.7 Z" fill="#000000" fill-rule="nonzero" fill-opacity="1" /><path clip-path="url(#clip830)" d="M3167.57 1433.77 Q3163.96 1433.77 3162.13 1437.34 Q3160.33 1440.88 3160.33 1448.01 Q3160.33 1455.12 3162.13 1458.68 Q3163.96 1462.22 3167.57 1462.22 Q3171.2 1462.22 3173.01 1458.68 Q3174.84 1455.12 3174.84 1448.01 Q3174.84 1440.88 3173.01 1437.34 Q3171.2 1433.77 3167.57 1433.77 M3167.57 1430.07 Q3173.38 1430.07 3176.44 1434.68 Q3179.52 1439.26 3179.52 1448.01 Q3179.52 1456.74 3176.44 1461.34 Q3173.38 1465.93 3167.57 1465.93 Q3161.76 1465.93 3158.68 1461.34 Q3155.63 1456.74 3155.63 1448.01 Q3155.63 1439.26 3158.68 1434.68 Q3161.76 1430.07 3167.57 1430.07 Z" fill="#000000" fill-rule="nonzero" fill-opacity="1" /><path clip-path="url(#clip830)" d="M2483.85 1507.55 L2483.85 1517.67 L2495.91 1517.67 L2495.91 1522.22 L2483.85 1522.22 L2483.85 1541.58 Q2483.85 1545.94 2485.03 1547.18 Q2486.24 1548.42 2489.9 1548.42 L2495.91 1548.42 L2495.91 1553.32 L2489.9 1553.32 Q2483.12 1553.32 2480.54 1550.81 Q2477.96 1548.26 2477.96 1541.58 L2477.96 1522.22 L2473.66 1522.22 L2473.66 1517.67 L2477.96 1517.67 L2477.96 1507.55 L2483.85 1507.55 Z" fill="#000000" fill-rule="nonzero" fill-opacity="1" /><polyline clip-path="url(#clip830)" style="stroke:#000000; stroke-linecap:round; stroke-linejoin:round; stroke-width:4; stroke-opacity:1; fill:none" points="1816.82,1396.46 1816.82,47.2441 "/>
<polyline clip-path="url(#clip830)" style="stroke:#000000; stroke-linecap:round; stroke-linejoin:round; stroke-width:4; stroke-opacity:1; fill:none" points="3152.76,1396.46 3152.76,47.2441 "/>
<polyline clip-path="url(#clip830)" style="stroke:#000000; stroke-linecap:round; stroke-linejoin:round; stroke-width:4; stroke-opacity:1; fill:none" points="1816.82,1358.27 1835.72,1358.27 "/>
<polyline clip-path="url(#clip830)" style="stroke:#000000; stroke-linecap:round; stroke-linejoin:round; stroke-width:4; stroke-opacity:1; fill:none" points="1816.82,1127.74 1835.72,1127.74 "/>
<polyline clip-path="url(#clip830)" style="stroke:#000000; stroke-linecap:round; stroke-linejoin:round; stroke-width:4; stroke-opacity:1; fill:none" points="1816.82,897.2 1835.72,897.2 "/>
<polyline clip-path="url(#clip830)" style="stroke:#000000; stroke-linecap:round; stroke-linejoin:round; stroke-width:4; stroke-opacity:1; fill:none" points="1816.82,666.664 1835.72,666.664 "/>
<polyline clip-path="url(#clip830)" style="stroke:#000000; stroke-linecap:round; stroke-linejoin:round; stroke-width:4; stroke-opacity:1; fill:none" points="1816.82,436.129 1835.72,436.129 "/>
<polyline clip-path="url(#clip830)" style="stroke:#000000; stroke-linecap:round; stroke-linejoin:round; stroke-width:4; stroke-opacity:1; fill:none" points="1816.82,205.593 1835.72,205.593 "/>
<polyline clip-path="url(#clip830)" style="stroke:#000000; stroke-linecap:round; stroke-linejoin:round; stroke-width:4; stroke-opacity:1; fill:none" points="3152.76,1358.27 3133.86,1358.27 "/>
<polyline clip-path="url(#clip830)" style="stroke:#000000; stroke-linecap:round; stroke-linejoin:round; stroke-width:4; stroke-opacity:1; fill:none" points="3152.76,1127.74 3133.86,1127.74 "/>
<polyline clip-path="url(#clip830)" style="stroke:#000000; stroke-linecap:round; stroke-linejoin:round; stroke-width:4; stroke-opacity:1; fill:none" points="3152.76,897.2 3133.86,897.2 "/>
<polyline clip-path="url(#clip830)" style="stroke:#000000; stroke-linecap:round; stroke-linejoin:round; stroke-width:4; stroke-opacity:1; fill:none" points="3152.76,666.664 3133.86,666.664 "/>
<polyline clip-path="url(#clip830)" style="stroke:#000000; stroke-linecap:round; stroke-linejoin:round; stroke-width:4; stroke-opacity:1; fill:none" points="3152.76,436.129 3133.86,436.129 "/>
<polyline clip-path="url(#clip830)" style="stroke:#000000; stroke-linecap:round; stroke-linejoin:round; stroke-width:4; stroke-opacity:1; fill:none" points="3152.76,205.593 3133.86,205.593 "/>
<path clip-path="url(#clip830)" d="M1711.64 1344.07 Q1708.03 1344.07 1706.2 1347.63 Q1704.4 1351.18 1704.4 1358.31 Q1704.4 1365.41 1706.2 1368.98 Q1708.03 1372.52 1711.64 1372.52 Q1715.28 1372.52 1717.08 1368.98 Q1718.91 1365.41 1718.91 1358.31 Q1718.91 1351.18 1717.08 1347.63 Q1715.28 1344.07 1711.64 1344.07 M1711.64 1340.37 Q1717.45 1340.37 1720.51 1344.97 Q1723.59 1349.56 1723.59 1358.31 Q1723.59 1367.03 1720.51 1371.64 Q1717.45 1376.22 1711.64 1376.22 Q1705.83 1376.22 1702.75 1371.64 Q1699.7 1367.03 1699.7 1358.31 Q1699.7 1349.56 1702.75 1344.97 Q1705.83 1340.37 1711.64 1340.37 Z" fill="#000000" fill-rule="nonzero" fill-opacity="1" /><path clip-path="url(#clip830)" d="M1731.81 1369.67 L1736.69 1369.67 L1736.69 1375.55 L1731.81 1375.55 L1731.81 1369.67 Z" fill="#000000" fill-rule="nonzero" fill-opacity="1" /><path clip-path="url(#clip830)" d="M1756.87 1344.07 Q1753.26 1344.07 1751.43 1347.63 Q1749.63 1351.18 1749.63 1358.31 Q1749.63 1365.41 1751.43 1368.98 Q1753.26 1372.52 1756.87 1372.52 Q1760.51 1372.52 1762.31 1368.98 Q1764.14 1365.41 1764.14 1358.31 Q1764.14 1351.18 1762.31 1347.63 Q1760.51 1344.07 1756.87 1344.07 M1756.87 1340.37 Q1762.68 1340.37 1765.74 1344.97 Q1768.82 1349.56 1768.82 1358.31 Q1768.82 1367.03 1765.74 1371.64 Q1762.68 1376.22 1756.87 1376.22 Q1751.06 1376.22 1747.99 1371.64 Q1744.93 1367.03 1744.93 1358.31 Q1744.93 1349.56 1747.99 1344.97 Q1751.06 1340.37 1756.87 1340.37 Z" fill="#000000" fill-rule="nonzero" fill-opacity="1" /><path clip-path="url(#clip830)" d="M1706.67 1141.08 L1722.99 1141.08 L1722.99 1145.02 L1701.04 1145.02 L1701.04 1141.08 Q1703.7 1138.33 1708.29 1133.7 Q1712.89 1129.04 1714.07 1127.7 Q1716.32 1125.18 1717.2 1123.44 Q1718.1 1121.68 1718.1 1119.99 Q1718.1 1117.24 1716.16 1115.5 Q1714.24 1113.77 1711.13 1113.77 Q1708.94 1113.77 1706.48 1114.53 Q1704.05 1115.29 1701.27 1116.84 L1701.27 1112.12 Q1704.1 1110.99 1706.55 1110.41 Q1709 1109.83 1711.04 1109.83 Q1716.41 1109.83 1719.61 1112.52 Q1722.8 1115.2 1722.8 1119.69 Q1722.8 1121.82 1721.99 1123.74 Q1721.2 1125.64 1719.1 1128.23 Q1718.52 1128.9 1715.42 1132.12 Q1712.31 1135.32 1706.67 1141.08 Z" fill="#000000" fill-rule="nonzero" fill-opacity="1" /><path clip-path="url(#clip830)" d="M1732.8 1139.14 L1737.69 1139.14 L1737.69 1145.02 L1732.8 1145.02 L1732.8 1139.14 Z" fill="#000000" fill-rule="nonzero" fill-opacity="1" /><path clip-path="url(#clip830)" d="M1747.92 1110.46 L1766.27 1110.46 L1766.27 1114.39 L1752.2 1114.39 L1752.2 1122.86 Q1753.22 1122.52 1754.24 1122.35 Q1755.25 1122.17 1756.27 1122.17 Q1762.06 1122.17 1765.44 1125.34 Q1768.82 1128.51 1768.82 1133.93 Q1768.82 1139.51 1765.35 1142.61 Q1761.87 1145.69 1755.56 1145.69 Q1753.38 1145.69 1751.11 1145.32 Q1748.87 1144.95 1746.46 1144.2 L1746.46 1139.51 Q1748.54 1140.64 1750.76 1141.2 Q1752.99 1141.75 1755.46 1141.75 Q1759.47 1141.75 1761.81 1139.64 Q1764.14 1137.54 1764.14 1133.93 Q1764.14 1130.32 1761.81 1128.21 Q1759.47 1126.1 1755.46 1126.1 Q1753.59 1126.1 1751.71 1126.52 Q1749.86 1126.94 1747.92 1127.82 L1747.92 1110.46 Z" fill="#000000" fill-rule="nonzero" fill-opacity="1" /><path clip-path="url(#clip830)" d="M1701.69 879.92 L1720.05 879.92 L1720.05 883.855 L1705.97 883.855 L1705.97 892.327 Q1706.99 891.98 1708.01 891.818 Q1709.03 891.632 1710.05 891.632 Q1715.83 891.632 1719.21 894.804 Q1722.59 897.975 1722.59 903.392 Q1722.59 908.97 1719.12 912.072 Q1715.65 915.151 1709.33 915.151 Q1707.15 915.151 1704.88 914.781 Q1702.64 914.41 1700.23 913.669 L1700.23 908.97 Q1702.31 910.105 1704.54 910.66 Q1706.76 911.216 1709.24 911.216 Q1713.24 911.216 1715.58 909.109 Q1717.92 907.003 1717.92 903.392 Q1717.92 899.781 1715.58 897.674 Q1713.24 895.568 1709.24 895.568 Q1707.36 895.568 1705.49 895.984 Q1703.63 896.401 1701.69 897.281 L1701.69 879.92 Z" fill="#000000" fill-rule="nonzero" fill-opacity="1" /><path clip-path="url(#clip830)" d="M1731.81 908.6 L1736.69 908.6 L1736.69 914.48 L1731.81 914.48 L1731.81 908.6 Z" fill="#000000" fill-rule="nonzero" fill-opacity="1" /><path clip-path="url(#clip830)" d="M1756.87 882.998 Q1753.26 882.998 1751.43 886.563 Q1749.63 890.105 1749.63 897.234 Q1749.63 904.341 1751.43 907.906 Q1753.26 911.447 1756.87 911.447 Q1760.51 911.447 1762.31 907.906 Q1764.14 904.341 1764.14 897.234 Q1764.14 890.105 1762.31 886.563 Q1760.51 882.998 1756.87 882.998 M1756.87 879.295 Q1762.68 879.295 1765.74 883.901 Q1768.82 888.484 1768.82 897.234 Q1768.82 905.961 1765.74 910.568 Q1762.68 915.151 1756.87 915.151 Q1751.06 915.151 1747.99 910.568 Q1744.93 905.961 1744.93 897.234 Q1744.93 888.484 1747.99 883.901 Q1751.06 879.295 1756.87 879.295 Z" fill="#000000" fill-rule="nonzero" fill-opacity="1" /><path clip-path="url(#clip830)" d="M1701.46 649.384 L1723.68 649.384 L1723.68 651.375 L1711.13 683.944 L1706.25 683.944 L1718.06 653.319 L1701.46 653.319 L1701.46 649.384 Z" fill="#000000" fill-rule="nonzero" fill-opacity="1" /><path clip-path="url(#clip830)" d="M1732.8 678.065 L1737.69 678.065 L1737.69 683.944 L1732.8 683.944 L1732.8 678.065 Z" fill="#000000" fill-rule="nonzero" fill-opacity="1" /><path clip-path="url(#clip830)" d="M1747.92 649.384 L1766.27 649.384 L1766.27 653.319 L1752.2 653.319 L1752.2 661.791 Q1753.22 661.444 1754.24 661.282 Q1755.25 661.097 1756.27 661.097 Q1762.06 661.097 1765.44 664.268 Q1768.82 667.44 1768.82 672.856 Q1768.82 678.435 1765.35 681.537 Q1761.87 684.615 1755.56 684.615 Q1753.38 684.615 1751.11 684.245 Q1748.87 683.875 1746.46 683.134 L1746.46 678.435 Q1748.54 679.569 1750.76 680.125 Q1752.99 680.68 1755.46 680.68 Q1759.47 680.68 1761.81 678.574 Q1764.14 676.467 1764.14 672.856 Q1764.14 669.245 1761.81 667.139 Q1759.47 665.032 1755.46 665.032 Q1753.59 665.032 1751.71 665.449 Q1749.86 665.866 1747.92 666.745 L1747.92 649.384 Z" fill="#000000" fill-rule="nonzero" fill-opacity="1" /><path clip-path="url(#clip830)" d="M1672.29 449.474 L1679.93 449.474 L1679.93 423.108 L1671.62 424.775 L1671.62 420.515 L1679.88 418.849 L1684.56 418.849 L1684.56 449.474 L1692.2 449.474 L1692.2 453.409 L1672.29 453.409 L1672.29 449.474 Z" fill="#000000" fill-rule="nonzero" fill-opacity="1" /><path clip-path="url(#clip830)" d="M1711.64 421.927 Q1708.03 421.927 1706.2 425.492 Q1704.4 429.034 1704.4 436.163 Q1704.4 443.27 1706.2 446.835 Q1708.03 450.376 1711.64 450.376 Q1715.28 450.376 1717.08 446.835 Q1718.91 443.27 1718.91 436.163 Q1718.91 429.034 1717.08 425.492 Q1715.28 421.927 1711.64 421.927 M1711.64 418.224 Q1717.45 418.224 1720.51 422.83 Q1723.59 427.413 1723.59 436.163 Q1723.59 444.89 1720.51 449.497 Q1717.45 454.08 1711.64 454.08 Q1705.83 454.08 1702.75 449.497 Q1699.7 444.89 1699.7 436.163 Q1699.7 427.413 1702.75 422.83 Q1705.83 418.224 1711.64 418.224 Z" fill="#000000" fill-rule="nonzero" fill-opacity="1" /><path clip-path="url(#clip830)" d="M1731.81 447.529 L1736.69 447.529 L1736.69 453.409 L1731.81 453.409 L1731.81 447.529 Z" fill="#000000" fill-rule="nonzero" fill-opacity="1" /><path clip-path="url(#clip830)" d="M1756.87 421.927 Q1753.26 421.927 1751.43 425.492 Q1749.63 429.034 1749.63 436.163 Q1749.63 443.27 1751.43 446.835 Q1753.26 450.376 1756.87 450.376 Q1760.51 450.376 1762.31 446.835 Q1764.14 443.27 1764.14 436.163 Q1764.14 429.034 1762.31 425.492 Q1760.51 421.927 1756.87 421.927 M1756.87 418.224 Q1762.68 418.224 1765.74 422.83 Q1768.82 427.413 1768.82 436.163 Q1768.82 444.89 1765.74 449.497 Q1762.68 454.08 1756.87 454.08 Q1751.06 454.08 1747.99 449.497 Q1744.93 444.89 1744.93 436.163 Q1744.93 427.413 1747.99 422.83 Q1751.06 418.224 1756.87 418.224 Z" fill="#000000" fill-rule="nonzero" fill-opacity="1" /><path clip-path="url(#clip830)" d="M1673.29 218.938 L1680.93 218.938 L1680.93 192.572 L1672.62 194.239 L1672.62 189.98 L1680.88 188.313 L1685.56 188.313 L1685.56 218.938 L1693.19 218.938 L1693.19 222.873 L1673.29 222.873 L1673.29 218.938 Z" fill="#000000" fill-rule="nonzero" fill-opacity="1" /><path clip-path="url(#clip830)" d="M1706.67 218.938 L1722.99 218.938 L1722.99 222.873 L1701.04 222.873 L1701.04 218.938 Q1703.7 216.183 1708.29 211.554 Q1712.89 206.901 1714.07 205.558 Q1716.32 203.035 1717.2 201.299 Q1718.1 199.54 1718.1 197.85 Q1718.1 195.096 1716.16 193.359 Q1714.24 191.623 1711.13 191.623 Q1708.94 191.623 1706.48 192.387 Q1704.05 193.151 1701.27 194.702 L1701.27 189.98 Q1704.1 188.846 1706.55 188.267 Q1709 187.688 1711.04 187.688 Q1716.41 187.688 1719.61 190.373 Q1722.8 193.059 1722.8 197.549 Q1722.8 199.679 1721.99 201.6 Q1721.2 203.498 1719.1 206.091 Q1718.52 206.762 1715.42 209.98 Q1712.31 213.174 1706.67 218.938 Z" fill="#000000" fill-rule="nonzero" fill-opacity="1" /><path clip-path="url(#clip830)" d="M1732.8 216.994 L1737.69 216.994 L1737.69 222.873 L1732.8 222.873 L1732.8 216.994 Z" fill="#000000" fill-rule="nonzero" fill-opacity="1" /><path clip-path="url(#clip830)" d="M1747.92 188.313 L1766.27 188.313 L1766.27 192.248 L1752.2 192.248 L1752.2 200.721 Q1753.22 200.373 1754.24 200.211 Q1755.25 200.026 1756.27 200.026 Q1762.06 200.026 1765.44 203.197 Q1768.82 206.369 1768.82 211.785 Q1768.82 217.364 1765.35 220.466 Q1761.87 223.545 1755.56 223.545 Q1753.38 223.545 1751.11 223.174 Q1748.87 222.804 1746.46 222.063 L1746.46 217.364 Q1748.54 218.498 1750.76 219.054 Q1752.99 219.609 1755.46 219.609 Q1759.47 219.609 1761.81 217.503 Q1764.14 215.396 1764.14 211.785 Q1764.14 208.174 1761.81 206.068 Q1759.47 203.961 1755.46 203.961 Q1753.59 203.961 1751.71 204.378 Q1749.86 204.795 1747.92 205.674 L1747.92 188.313 Z" fill="#000000" fill-rule="nonzero" fill-opacity="1" /><polyline clip-path="url(#clip833)" style="stroke:#009af9; stroke-linecap:round; stroke-linejoin:round; stroke-width:8; stroke-opacity:1; fill:none" points="1816.82,1358.27 1817.84,1345.29 1818.86,1334.2 1819.88,1324.59 1820.9,1316.17 1821.92,1308.73 1822.94,1302.07 1823.96,1296.08 1824.98,1290.62 1826,1285.62 1827.02,1280.99 1828.05,1276.66 1829.07,1272.59 1830.09,1268.74 1831.11,1265.07 1832.13,1261.54 1833.15,1258.14 1834.17,1254.84 1835.19,1251.62 1836.21,1248.48 1837.23,1245.4 1838.25,1242.36 1839.27,1239.37 1840.29,1236.41 1841.31,1233.48 1842.33,1230.58 1843.35,1227.69 1844.37,1224.82 1845.4,1221.97 1846.42,1219.13 1847.44,1216.3 1848.46,1213.47 1849.48,1210.65 1850.5,1207.84 1851.52,1205.04 1852.54,1202.23 1853.56,1199.44 1854.58,1196.64 1855.6,1193.85 1856.62,1191.06 1857.64,1188.27 1858.66,1185.48 1859.68,1182.7 1860.7,1179.92 1861.72,1177.14 1862.75,1174.35 1863.77,1171.58 1864.79,1168.8 1865.81,1166.02 1866.83,1163.24 1867.85,1160.47 1868.87,1157.69 1869.89,1154.92 1870.91,1152.14 1871.93,1149.37 1872.95,1146.6 1873.97,1143.82 1874.99,1141.05 1876.01,1138.28 1877.03,1135.51 1878.05,1132.74 1879.07,1129.97 1880.09,1127.2 1881.12,1124.44 1882.14,1121.67 1883.16,1118.9 1884.18,1116.14 1885.2,1113.37 1886.22,1110.61 1887.24,1107.84 1888.26,1105.08 1889.28,1102.31 1890.3,1099.55 1891.32,1096.79 1892.34,1094.03 1893.36,1091.27 1894.38,1088.51 1895.4,1085.75 1896.42,1082.99 1897.44,1080.23 1898.47,1077.47 1899.49,1074.71 1900.51,1071.96 1901.53,1069.2 1902.55,1066.44 1903.57,1063.69 1904.59,1060.93 1905.61,1058.18 1906.63,1055.43 1907.65,1052.67 1908.67,1049.92 1909.69,1047.17 1910.71,1044.42 1911.73,1041.67 1912.75,1038.92 1913.77,1036.17 1914.79,1033.42 1915.82,1030.67 1916.84,1027.92 1917.86,1025.18 1918.88,1022.43 1919.9,1019.68 1920.92,1016.94 1921.94,1014.19 1922.96,1011.45 1923.98,1008.71 1925,1005.97 1926.02,1003.22 1927.04,1000.48 1928.06,997.742 1929.08,995.002 1930.1,992.263 1931.12,989.524 1932.14,986.786 1933.17,984.049 1934.19,981.312 1935.21,978.576 1936.23,975.84 1937.25,973.105 1938.27,970.371 1939.29,967.637 1940.31,964.904 1941.33,962.171 1942.35,959.439 1943.37,956.708 1944.39,953.978 1945.41,951.248 1946.43,948.519 1947.45,945.791 1948.47,943.064 1949.49,940.337 1950.51,937.611 1951.54,934.886 1952.56,932.161 1953.58,929.437 1954.6,926.714 1955.62,923.991 1956.64,921.269 1957.66,918.548 1958.68,915.827 1959.7,913.106 1960.72,910.386 1961.74,907.667 1962.76,904.949 1963.78,902.231 1964.8,899.514 1965.82,896.798 1966.84,894.083 1967.86,891.369 1968.89,888.655 1969.91,885.942 1970.93,883.23 1971.95,880.519 1972.97,877.809 1973.99,875.099 1975.01,872.39 1976.03,869.682 1977.05,866.975 1978.07,864.268 1979.09,861.561 1980.11,858.856 1981.13,856.15 1982.15,853.446 1983.17,850.742 1984.19,848.039 1985.21,845.336 1986.24,842.635 1987.26,839.934 1988.28,837.234 1989.3,834.535 1990.32,831.837 1991.34,829.14 1992.36,826.444 1993.38,823.748 1994.4,821.054 1995.42,818.36 1996.44,815.667 1997.46,812.976 1998.48,810.284 1999.5,807.594 2000.52,804.904 2001.54,802.215 2002.56,799.527 2003.58,796.839 2004.61,794.152 2005.63,791.465 2006.65,788.78 2007.67,786.095 2008.69,783.411 2009.71,780.727 2010.73,778.045 2011.75,775.364 2012.77,772.683 2013.79,770.004 2014.81,767.325 2015.83,764.648 2016.85,761.971 2017.87,759.295 2018.89,756.621 2019.91,753.947 2020.93,751.274 2021.96,748.602 2022.98,745.931 2024,743.261 2025.02,740.592 2026.04,737.923 2027.06,735.256 2028.08,732.588 2029.1,729.922 2030.12,727.256 2031.14,724.591 2032.16,721.927 2033.18,719.264 2034.2,716.601 2035.22,713.94 2036.24,711.28 2037.26,708.621 2038.28,705.963 2039.31,703.306 2040.33,700.65 2041.35,697.995 2042.37,695.341 2043.39,692.688 2044.41,690.036 2045.43,687.386 2046.45,684.736 2047.47,682.087 2048.49,679.439 2049.51,676.793 2050.53,674.147 2051.55,671.502 2052.57,668.857 2053.59,666.214 2054.61,663.571 2055.63,660.929 2056.66,658.288 2057.68,655.649 2058.7,653.01 2059.72,650.372 2060.74,647.735 2061.76,645.1 2062.78,642.465 2063.8,639.832 2064.82,637.2 2065.84,634.569 2066.86,631.939 2067.88,629.311 2068.9,626.683 2069.92,624.057 2070.94,621.432 2071.96,618.808 2072.98,616.185 2074,613.563 2075.03,610.943 2076.05,608.323 2077.07,605.705 2078.09,603.087 2079.11,600.471 2080.13,597.855 2081.15,595.24 2082.17,592.627 2083.19,590.014 2084.21,587.403 2085.23,584.793 2086.25,582.184 2087.27,579.576 2088.29,576.97 2089.31,574.364 2090.33,571.76 2091.35,569.158 2092.38,566.556 2093.4,563.956 2094.42,561.357 2095.44,558.76 2096.46,556.164 2097.48,553.569 2098.5,550.976 2099.52,548.383 2100.54,545.793 2101.56,543.203 2102.58,540.615 2103.6,538.028 2104.62,535.442 2105.64,532.857 2106.66,530.274 2107.68,527.692 2108.7,525.111 2109.73,522.531 2110.75,519.952 2111.77,517.375 2112.79,514.799 2113.81,512.225 2114.83,509.652 2115.85,507.08 2116.87,504.51 2117.89,501.941 2118.91,499.374 2119.93,496.808 2120.95,494.244 2121.97,491.682 2122.99,489.12 2124.01,486.561 2125.03,484.003 2126.05,481.446 2127.07,478.891 2128.1,476.338 2129.12,473.786 2130.14,471.235 2131.16,468.686 2132.18,466.139 2133.2,463.593 2134.22,461.049 2135.24,458.506 2136.26,455.965 2137.28,453.425 2138.3,450.887 2139.32,448.35 2140.34,445.815 2141.36,443.281 2142.38,440.75 2143.4,438.219 2144.42,435.691 2145.45,433.164 2146.47,430.639 2147.49,428.116 2148.51,425.595 2149.53,423.075 2150.55,420.557 2151.57,418.041 2152.59,415.527 2153.61,413.015 2154.63,410.504 2155.65,407.996 2156.67,405.489 2157.69,402.984 2158.71,400.482 2159.73,397.981 2160.75,395.482 2161.77,392.985 2162.8,390.489 2163.82,387.996 2164.84,385.505 2165.86,383.016 2166.88,380.528 2167.9,378.043 2168.92,375.559 2169.94,373.078 2170.96,370.599 2171.98,368.122 2173,365.647 2174.02,363.174 2175.04,360.703 2176.06,358.235 2177.08,355.769 2178.1,353.305 2179.12,350.843 2180.14,348.384 2181.17,345.926 2182.19,343.472 2183.21,341.019 2184.23,338.569 2185.25,336.122 2186.27,333.677 2187.29,331.234 2188.31,328.794 2189.33,326.356 2190.35,323.921 2191.37,321.488 2192.39,319.058 2193.41,316.631 2194.43,314.206 2195.45,311.784 2196.47,309.364 2197.49,306.948 2198.52,304.534 2199.54,302.122 2200.56,299.714 2201.58,297.309 2202.6,294.906 2203.62,292.507 2204.64,290.11 2205.66,287.717 2206.68,285.326 2207.7,282.939 2208.72,280.555 2209.74,278.173 2210.76,275.796 2211.78,273.421 2212.8,271.05 2213.82,268.682 2214.84,266.317 2215.87,263.956 2216.89,261.598 2217.91,259.244 2218.93,256.893 2219.95,254.546 2220.97,252.202 2221.99,249.863 2223.01,247.527 2224.03,245.195 2225.05,242.867 2226.07,240.543 2227.09,238.223 2228.11,235.907 2229.13,233.595 2230.15,231.288 2231.17,228.985 2232.19,226.686 2233.22,224.392 2234.24,222.103 2235.26,219.818 2236.28,217.538 2237.3,215.263 2238.32,212.993 2239.34,210.731 2240.36,208.477 2241.38,206.23 2242.4,203.989 2243.42,201.755 2244.44,199.527 2245.46,197.306 2246.48,195.09 2247.5,192.88 2248.52,190.675 2249.54,188.476 2250.56,186.282 2251.59,184.094 2252.61,181.912 2253.63,179.734 2254.65,177.563 2255.67,175.397 2256.69,173.237 2257.71,171.082 2258.73,168.935 2259.75,166.793 2260.77,164.658 2261.79,162.53 2262.81,160.41 2263.83,158.297 2264.85,156.193 2265.87,154.097 2266.89,152.009 2267.91,149.932 2268.94,147.864 2269.96,145.807 2270.98,143.762 2272,141.728 2273.02,139.706 2274.04,137.698 2275.06,135.704 2276.08,133.724 2277.1,131.76 2278.12,129.812 2279.14,127.881 2280.16,125.968 2281.18,124.075 2282.2,122.201 2283.22,120.347 2284.24,118.516 2285.26,116.708 2286.29,114.924 2287.31,113.164 2288.33,111.432 2289.35,109.726 2290.37,108.049 2291.39,106.402 2292.41,104.787 2293.43,103.204 2294.45,101.654 2295.47,100.14 2296.49,98.6624 2297.51,97.2275 2298.53,95.8459 2299.55,94.5178 2300.57,93.2451 2301.59,92.0317 2302.61,90.8835 2303.63,89.8084 2304.66,88.8165 2305.68,87.9199 2306.7,87.1325 2307.72,86.4706 2308.74,85.9523 2309.76,85.5978 2310.78,85.4293 2311.8,85.472 2312.82,85.7904 2313.84,86.4104 2314.86,87.3666 2315.88,88.7444 2316.9,90.6796 2317.92,93.3584 2318.94,97.0175 2319.96,101.953 2320.98,108.86 2322.01,118.04 2323.03,130.944 2324.05,150.87 2325.07,183.551 2326.09,241.336 2327.11,369.401 2328.13,717.214 2329.15,1212.3 2330.17,1296.29 2331.19,1298.82 2332.21,1296.91 2333.23,1294.68 2334.25,1292.35 2335.27,1289.94 2336.29,1287.44 2337.31,1284.86 2338.33,1282.18 2339.36,1279.41 2340.38,1276.54 2341.4,1273.57 2342.42,1270.5 2343.44,1267.31 2344.46,1264.01 2345.48,1260.6 2346.5,1257.07 2347.52,1253.4 2348.54,1249.61 2349.56,1245.68 2350.58,1241.62 2351.6,1237.4 2352.62,1233.04 2353.64,1228.52 2354.66,1223.83 2355.68,1218.98 2356.7,1213.96 2357.73,1208.75 2358.75,1203.36 2359.77,1197.78 2360.79,1192 2361.81,1186.03 2362.83,1179.84 2363.85,1173.44 2364.87,1166.83 2365.89,1160.01 2366.91,1152.97 2367.93,1145.72 2368.95,1138.27 2369.97,1130.62 2370.99,1122.78 2372.01,1114.77 2373.03,1106.61 2374.05,1098.32 2375.08,1089.93 2376.1,1081.47 2377.12,1072.98 2378.14,1064.5 2379.16,1056.06 2380.18,1047.71 2381.2,1039.49 2382.22,1031.44 2383.24,1023.6 2384.26,1016 2385.28,1008.67 2386.3,1001.63 2387.32,994.883 2388.34,988.45 2389.36,982.326 2390.38,976.506 2391.4,970.976 2392.43,965.716 2393.45,960.72 2394.47,955.976 2395.49,951.471 2396.51,947.186 2397.53,943.099 2398.55,939.183 2399.57,935.409 2400.59,931.758 2401.61,928.226 2402.63,924.801 2403.65,921.471 2404.67,918.223 2405.69,915.047 2406.71,911.931 2407.73,908.869 2408.75,905.854 2409.78,902.881 2410.8,899.944 2411.82,897.04 2412.84,894.163 2413.86,891.308 2414.88,888.472 2415.9,885.654 2416.92,882.85 2417.94,880.061 2418.96,877.283 2419.98,874.515 2421,871.756 2422.02,869.004 2423.04,866.259 2424.06,863.52 2425.08,860.785 2426.1,858.056 2427.12,855.331 2428.15,852.609 2429.17,849.891 2430.19,847.175 2431.21,844.462 2432.23,841.751 2433.25,839.042 2434.27,836.336 2435.29,833.63 2436.31,830.927 2437.33,828.225 2438.35,825.525 2439.37,822.826 2440.39,820.128 2441.41,817.432 2442.43,814.737 2443.45,812.042 2444.47,809.349 2445.5,806.657 2446.52,803.965 2447.54,801.275 2448.56,798.586 2449.58,795.898 2450.6,793.211 2451.62,790.524 2452.64,787.839 2453.66,785.154 2454.68,782.471 2455.7,779.788 2456.72,777.106 2457.74,774.425 2458.76,771.744 2459.78,769.065 2460.8,766.387 2461.82,763.709 2462.85,761.033 2463.87,758.357 2464.89,755.682 2465.91,753.008 2466.93,750.335 2467.95,747.663 2468.97,744.992 2469.99,742.321 2471.01,739.652 2472.03,736.983 2473.05,734.315 2474.07,731.648 2475.09,728.982 2476.11,726.317 2477.13,723.653 2478.15,720.99 2479.17,718.328 2480.19,715.666 2481.22,713.006 2482.24,710.346 2483.26,707.688 2484.28,705.03 2485.3,702.374 2486.32,699.718 2487.34,697.064 2488.36,694.41 2489.38,691.757 2490.4,689.105 2491.42,686.454 2492.44,683.804 2493.46,681.155 2494.48,678.507 2495.5,675.86 2496.52,673.214 2497.54,670.569 2498.57,667.924 2499.59,665.281 2500.61,662.639 2501.63,659.999 2502.65,657.359 2503.67,654.72 2504.69,652.082 2505.71,649.445 2506.73,646.81 2507.75,644.175 2508.77,641.541 2509.79,638.909 2510.81,636.277 2511.83,633.647 2512.85,631.017 2513.87,628.389 2514.89,625.761 2515.92,623.135 2516.94,620.509 2517.96,617.885 2518.98,615.262 2520,612.64 2521.02,610.019 2522.04,607.399 2523.06,604.781 2524.08,602.164 2525.1,599.547 2526.12,596.932 2527.14,594.319 2528.16,591.706 2529.18,589.095 2530.2,586.484 2531.22,583.875 2532.24,581.267 2533.26,578.661 2534.29,576.055 2535.31,573.451 2536.33,570.847 2537.35,568.245 2538.37,565.644 2539.39,563.044 2540.41,560.446 2541.43,557.848 2542.45,555.252 2543.47,552.657 2544.49,550.064 2545.51,547.471 2546.53,544.88 2547.55,542.291 2548.57,539.703 2549.59,537.116 2550.61,534.53 2551.64,531.946 2552.66,529.363 2553.68,526.781 2554.7,524.201 2555.72,521.622 2556.74,519.045 2557.76,516.469 2558.78,513.894 2559.8,511.321 2560.82,508.749 2561.84,506.178 2562.86,503.608 2563.88,501.04 2564.9,498.474 2565.92,495.908 2566.94,493.344 2567.96,490.782 2568.99,488.221 2570.01,485.662 2571.03,483.104 2572.05,480.547 2573.07,477.992 2574.09,475.439 2575.11,472.887 2576.13,470.337 2577.15,467.789 2578.17,465.242 2579.19,462.696 2580.21,460.152 2581.23,457.61 2582.25,455.07 2583.27,452.531 2584.29,449.993 2585.31,447.458 2586.34,444.923 2587.36,442.391 2588.38,439.86 2589.4,437.331 2590.42,434.803 2591.44,432.277 2592.46,429.753 2593.48,427.23 2594.5,424.709 2595.52,422.19 2596.54,419.673 2597.56,417.158 2598.58,414.644 2599.6,412.132 2600.62,409.622 2601.64,407.114 2602.66,404.608 2603.68,402.104 2604.71,399.601 2605.73,397.101 2606.75,394.602 2607.77,392.106 2608.79,389.611 2609.81,387.118 2610.83,384.628 2611.85,382.139 2612.87,379.653 2613.89,377.168 2614.91,374.686 2615.93,372.206 2616.95,369.727 2617.97,367.251 2618.99,364.777 2620.01,362.305 2621.03,359.835 2622.06,357.367 2623.08,354.902 2624.1,352.439 2625.12,349.978 2626.14,347.519 2627.16,345.063 2628.18,342.609 2629.2,340.158 2630.22,337.708 2631.24,335.262 2632.26,332.817 2633.28,330.375 2634.3,327.936 2635.32,325.499 2636.34,323.065 2637.36,320.633 2638.38,318.204 2639.41,315.777 2640.43,313.353 2641.45,310.932 2642.47,308.514 2643.49,306.098 2644.51,303.685 2645.53,301.275 2646.55,298.867 2647.57,296.463 2648.59,294.062 2649.61,291.663 2650.63,289.267 2651.65,286.875 2652.67,284.485 2653.69,282.099 2654.71,279.716 2655.73,277.336 2656.75,274.959 2657.78,272.586 2658.8,270.216 2659.82,267.849 2660.84,265.486 2661.86,263.126 2662.88,260.769 2663.9,258.417 2664.92,256.067 2665.94,253.722 2666.96,251.38 2667.98,249.041 2669,246.707 2670.02,244.376 2671.04,242.05 2672.06,239.727 2673.08,237.409 2674.1,235.094 2675.13,232.784 2676.15,230.478 2677.17,228.177 2678.19,225.88 2679.21,223.587 2680.23,221.299 2681.25,219.016 2682.27,216.738 2683.29,214.464 2684.31,212.196 2685.33,209.932 2686.35,207.674 2687.37,205.421 2688.39,203.174 2689.41,200.933 2690.43,198.699 2691.45,196.472 2692.48,194.252 2693.5,192.039 2694.52,189.832 2695.54,187.631 2696.56,185.437 2697.58,183.249 2698.6,181.067 2699.62,178.892 2700.64,176.723 2701.66,174.56 2702.68,172.405 2703.7,170.256 2704.72,168.113 2705.74,165.978 2706.76,163.851 2707.78,161.731 2708.8,159.619 2709.83,157.515 2710.85,155.42 2711.87,153.334 2712.89,151.258 2713.91,149.191 2714.93,147.135 2715.95,145.09 2716.97,143.056 2717.99,141.034 2719.01,139.025 2720.03,137.029 2721.05,135.048 2722.07,133.08 2723.09,131.129 2724.11,129.193 2725.13,127.274 2726.15,125.373 2727.17,123.49 2728.2,121.627 2729.22,119.785 2730.24,117.963 2731.26,116.164 2732.28,114.388 2733.3,112.636 2734.32,110.91 2735.34,109.21 2736.36,107.538 2737.38,105.894 2738.4,104.281 2739.42,102.7 2740.44,101.161 2741.46,99.6628 2742.48,98.2069 2743.5,96.7947 2744.52,95.4294 2745.55,94.1153 2746.57,92.858 2747.59,91.6645 2748.61,90.543 2749.63,89.503 2750.65,88.5554 2751.67,87.7122 2752.69,86.9868 2753.71,86.394 2754.73,85.9497 2755.75,85.6711 2756.77,85.6467 2757.79,85.8973 2758.81,86.381 2759.83,87.1129 2760.85,88.1657 2761.87,89.6692 2762.9,91.8104 2763.92,94.8336 2764.94,99.0406 2765.96,104.79 2766.98,112.557 2768,123.379 2769.02,139.035 2770.04,163.463 2771.06,204.958 2772.08,284.37 2773.1,480.6 2774.12,975.511 2775.14,1276.85 2776.16,1298.91 2777.18,1298.05 2778.2,1295.93 2779.22,1293.65 2780.24,1291.29 2781.27,1288.84 2782.29,1286.3 2783.31,1283.67 2784.33,1280.96 2785.35,1278.14 2786.37,1275.23 2787.39,1272.21 2788.41,1269.08 2789.43,1265.86 2790.45,1262.5 2791.47,1259.04 2792.49,1255.44 2793.51,1251.72 2794.53,1247.87 2795.55,1243.88 2796.57,1239.75 2797.59,1235.47 2798.62,1231.04 2799.64,1226.44 2800.66,1221.69 2801.68,1216.76 2802.7,1211.66 2803.72,1206.37 2804.74,1200.89 2805.76,1195.22 2806.78,1189.36 2807.8,1183.29 2808.82,1177.01 2809.84,1170.51 2810.86,1163.81 2811.88,1156.89 2812.9,1149.76 2813.92,1142.42 2814.94,1134.88 2815.97,1127.14 2816.99,1119.22 2818.01,1111.14 2819.03,1102.92 2820.05,1094.58 2821.07,1086.16 2822.09,1077.68 2823.11,1069.19 2824.13,1060.72 2825.15,1052.32 2826.17,1044.02 2827.19,1035.87 2828.21,1027.91 2829.23,1020.17 2830.25,1012.69 2831.27,1005.48 2832.29,998.573 2833.31,991.967 2834.34,985.672 2835.36,979.686 2836.38,974.001 2837.4,968.603 2838.42,963.471 2839.44,958.594 2840.46,953.958 2841.48,949.549 2842.5,945.347 2843.52,941.33 2844.54,937.476 2845.56,933.757 2846.58,930.161 2847.6,926.679 2848.62,923.298 2849.64,920.007 2850.66,916.793 2851.69,913.646 2852.71,910.556 2853.73,907.516 2854.75,904.521 2855.77,901.565 2856.79,898.643 2857.81,895.751 2858.83,892.884 2859.85,890.039 2860.87,887.211 2861.89,884.4 2862.91,881.603 2863.93,878.819 2864.95,876.045 2865.97,873.282 2866.99,870.527 2868.01,867.778 2869.04,865.036 2870.06,862.298 2871.08,859.566 2872.1,856.839 2873.12,854.115 2874.14,851.395 2875.16,848.678 2876.18,845.964 2877.2,843.252 2878.22,840.542 2879.24,837.834 2880.26,835.128 2881.28,832.424 2882.3,829.721 2883.32,827.02 2884.34,824.32 2885.36,821.622 2886.39,818.925 2887.41,816.229 2888.43,813.534 2889.45,810.84 2890.47,808.147 2891.49,805.455 2892.51,802.765 2893.53,800.075 2894.55,797.386 2895.57,794.698 2896.59,792.011 2897.61,789.326 2898.63,786.641 2899.65,783.956 2900.67,781.273 2901.69,778.591 2902.71,775.909 2903.73,773.228 2904.76,770.549 2905.78,767.87 2906.8,765.192 2907.82,762.514 2908.84,759.838 2909.86,757.163 2910.88,754.488 2911.9,751.815 2912.92,749.142 2913.94,746.471 2914.96,743.8 2915.98,741.13 2917,738.46 2918.02,735.792 2919.04,733.125 2920.06,730.458 2921.08,727.793 2922.11,725.128 2923.13,722.464 2924.15,719.801 2925.17,717.14 2926.19,714.479 2927.21,711.819 2928.23,709.16 2929.25,706.502 2930.27,703.845 2931.29,701.188 2932.31,698.533 2933.33,695.879 2934.35,693.226 2935.37,690.573 2936.39,687.922 2937.41,685.271 2938.43,682.622 2939.46,679.973 2940.48,677.325 2941.5,674.679 2942.52,672.033 2943.54,669.388 2944.56,666.745 2945.58,664.102 2946.6,661.461 2947.62,658.82 2948.64,656.181 2949.66,653.542 2950.68,650.905 2951.7,648.269 2952.72,645.634 2953.74,642.999 2954.76,640.366 2955.78,637.734 2956.8,635.103 2957.83,632.473 2958.85,629.844 2959.87,627.216 2960.89,624.589 2961.91,621.963 2962.93,619.338 2963.95,616.714 2964.97,614.092 2965.99,611.47 2967.01,608.85 2968.03,606.231 2969.05,603.613 2970.07,600.996 2971.09,598.38 2972.11,595.766 2973.13,593.152 2974.15,590.54 2975.18,587.929 2976.2,585.32 2977.22,582.711 2978.24,580.104 2979.26,577.498 2980.28,574.892 2981.3,572.289 2982.32,569.686 2983.34,567.084 2984.36,564.484 2985.38,561.884 2986.4,559.286 2987.42,556.689 2988.44,554.094 2989.46,551.499 2990.48,548.906 2991.5,546.315 2992.53,543.724 2993.55,541.135 2994.57,538.548 2995.59,535.961 2996.61,533.376 2997.63,530.793 2998.65,528.21 2999.67,525.63 3000.69,523.05 3001.71,520.472 3002.73,517.895 3003.75,515.319 3004.77,512.745 3005.79,510.173 3006.81,507.601 3007.83,505.031 3008.85,502.462 3009.87,499.895 3010.9,497.328 3011.92,494.764 3012.94,492.201 3013.96,489.639 3014.98,487.079 3016,484.52 3017.02,481.963 3018.04,479.407 3019.06,476.853 3020.08,474.3 3021.1,471.749 3022.12,469.199 3023.14,466.652 3024.16,464.105 3025.18,461.561 3026.2,459.017 3027.22,456.476 3028.25,453.936 3029.27,451.398 3030.29,448.861 3031.31,446.326 3032.33,443.793 3033.35,441.261 3034.37,438.731 3035.39,436.202 3036.41,433.676 3037.43,431.15 3038.45,428.627 3039.47,426.105 3040.49,423.585 3041.51,421.067 3042.53,418.55 3043.55,416.036 3044.57,413.523 3045.6,411.012 3046.62,408.503 3047.64,405.995 3048.66,403.49 3049.68,400.986 3050.7,398.485 3051.72,395.985 3052.74,393.488 3053.76,390.992 3054.78,388.498 3055.8,386.007 3056.82,383.517 3057.84,381.029 3058.86,378.544 3059.88,376.06 3060.9,373.579 3061.92,371.099 3062.95,368.622 3063.97,366.147 3064.99,363.673 3066.01,361.202 3067.03,358.733 3068.05,356.267 3069.07,353.802 3070.09,351.34 3071.11,348.88 3072.13,346.423 3073.15,343.968 3074.17,341.515 3075.19,339.064 3076.21,336.616 3077.23,334.17 3078.25,331.727 3079.27,329.286 3080.29,326.848 3081.32,324.412 3082.34,321.979 3083.36,319.549 3084.38,317.12 3085.4,314.695 3086.42,312.272 3087.44,309.852 3088.46,307.435 3089.48,305.021 3090.5,302.609 3091.52,300.2 3092.54,297.794 3093.56,295.391 3094.58,292.991 3095.6,290.593 3096.62,288.199 3097.64,285.808 3098.67,283.42 3099.69,281.035 3100.71,278.653 3101.73,276.275 3102.75,273.899 3103.77,271.528 3104.79,269.159 3105.81,266.794 3106.83,264.432 3107.85,262.074 3108.87,259.719 3109.89,257.368 3110.91,255.02 3111.93,252.676 3112.95,250.336 3113.97,247.999 3114.99,245.666 3116.02,243.338 3117.04,241.013 3118.06,238.692 3119.08,236.375 3120.1,234.063 3121.12,231.754 3122.14,229.45 3123.16,227.151 3124.18,224.856 3125.2,222.565 3126.22,220.28 3127.24,217.998 3128.26,215.722 3129.28,213.451 3130.3,211.185 3131.32,208.924 3132.34,206.668 3133.36,204.417 3134.39,202.172 3135.41,199.933 3136.43,197.699 3137.45,195.471 3138.47,193.249 3139.49,191.033 3140.51,188.823 3141.53,186.62 3142.55,184.423 3143.57,182.232 3144.59,180.049 3145.61,177.872 3146.63,175.703 3147.65,173.541 3148.67,171.386 3149.69,169.24 3150.71,167.101 3151.74,164.971 3152.76,162.849 "/>
<path clip-path="url(#clip830)" d="M1861.35 195.898 L2024.09 195.898 L2024.09 92.2178 L1861.35 92.2178  Z" fill="#ffffff" fill-rule="evenodd" fill-opacity="1"/>
<polyline clip-path="url(#clip830)" style="stroke:#000000; stroke-linecap:round; stroke-linejoin:round; stroke-width:4; stroke-opacity:1; fill:none" points="1861.35,195.898 2024.09,195.898 2024.09,92.2178 1861.35,92.2178 1861.35,195.898 "/>
<polyline clip-path="url(#clip830)" style="stroke:#009af9; stroke-linecap:round; stroke-linejoin:round; stroke-width:8; stroke-opacity:1; fill:none" points="1876.19,144.058 1965.26,144.058 "/>
<path clip-path="url(#clip830)" d="M1980.1 126.778 L1985.12 126.778 L1994.71 140.991 L2004.22 126.778 L2009.24 126.778 L1997.02 144.88 L1997.02 161.338 L1992.32 161.338 L1992.32 144.88 L1980.1 126.778 Z" fill="#000000" fill-rule="nonzero" fill-opacity="1" /></svg>
