<?xml version="1.0" encoding="utf-8"?>
<svg xmlns="http://www.w3.org/2000/svg" xmlns:xlink="http://www.w3.org/1999/xlink" width="800" height="400" viewBox="0 0 3200 1600">
<defs>
  <clipPath id="clip980">
    <rect x="0" y="0" width="3200" height="1600"/>
  </clipPath>
</defs>
<path clip-path="url(#clip980)" d="M0 1600 L3200 1600 L3200 0 L0 0  Z" fill="#ffffff" fill-rule="evenodd" fill-opacity="1"/>
<defs>
  <clipPath id="clip981">
    <rect x="640" y="0" width="2241" height="1600"/>
  </clipPath>
</defs>
<path clip-path="url(#clip980)" d="M148.696 1443.7 L3152.76 1443.7 L3152.76 47.2441 L148.696 47.2441  Z" fill="#ffffff" fill-rule="evenodd" fill-opacity="1"/>
<defs>
  <clipPath id="clip982">
    <rect x="148" y="47" width="3005" height="1397"/>
  </clipPath>
</defs>
<polyline clip-path="url(#clip982)" style="stroke:#000000; stroke-linecap:round; stroke-linejoin:round; stroke-width:2; stroke-opacity:0.1; fill:none" points="148.696,1443.7 148.696,47.2441 "/>
<polyline clip-path="url(#clip982)" style="stroke:#000000; stroke-linecap:round; stroke-linejoin:round; stroke-width:2; stroke-opacity:0.1; fill:none" points="749.508,1443.7 749.508,47.2441 "/>
<polyline clip-path="url(#clip982)" style="stroke:#000000; stroke-linecap:round; stroke-linejoin:round; stroke-width:2; stroke-opacity:0.1; fill:none" points="1350.32,1443.7 1350.32,47.2441 "/>
<polyline clip-path="url(#clip982)" style="stroke:#000000; stroke-linecap:round; stroke-linejoin:round; stroke-width:2; stroke-opacity:0.1; fill:none" points="1951.13,1443.7 1951.13,47.2441 "/>
<polyline clip-path="url(#clip982)" style="stroke:#000000; stroke-linecap:round; stroke-linejoin:round; stroke-width:2; stroke-opacity:0.1; fill:none" points="2551.94,1443.7 2551.94,47.2441 "/>
<polyline clip-path="url(#clip982)" style="stroke:#000000; stroke-linecap:round; stroke-linejoin:round; stroke-width:2; stroke-opacity:0.1; fill:none" points="3152.76,1443.7 3152.76,47.2441 "/>
<polyline clip-path="url(#clip982)" style="stroke:#000000; stroke-linecap:round; stroke-linejoin:round; stroke-width:2; stroke-opacity:0.1; fill:none" points="148.696,1443.7 148.696,47.2441 "/>
<polyline clip-path="url(#clip982)" style="stroke:#000000; stroke-linecap:round; stroke-linejoin:round; stroke-width:2; stroke-opacity:0.1; fill:none" points="749.508,1443.7 749.508,47.2441 "/>
<polyline clip-path="url(#clip982)" style="stroke:#000000; stroke-linecap:round; stroke-linejoin:round; stroke-width:2; stroke-opacity:0.1; fill:none" points="1350.32,1443.7 1350.32,47.2441 "/>
<polyline clip-path="url(#clip982)" style="stroke:#000000; stroke-linecap:round; stroke-linejoin:round; stroke-width:2; stroke-opacity:0.1; fill:none" points="1951.13,1443.7 1951.13,47.2441 "/>
<polyline clip-path="url(#clip982)" style="stroke:#000000; stroke-linecap:round; stroke-linejoin:round; stroke-width:2; stroke-opacity:0.1; fill:none" points="2551.94,1443.7 2551.94,47.2441 "/>
<polyline clip-path="url(#clip982)" style="stroke:#000000; stroke-linecap:round; stroke-linejoin:round; stroke-width:2; stroke-opacity:0.1; fill:none" points="3152.76,1443.7 3152.76,47.2441 "/>
<polyline clip-path="url(#clip980)" style="stroke:#000000; stroke-linecap:round; stroke-linejoin:round; stroke-width:4; stroke-opacity:1; fill:none" points="148.696,1443.7 3152.76,1443.7 "/>
<polyline clip-path="url(#clip980)" style="stroke:#000000; stroke-linecap:round; stroke-linejoin:round; stroke-width:4; stroke-opacity:1; fill:none" points="148.696,47.2441 3152.76,47.2441 "/>
<polyline clip-path="url(#clip980)" style="stroke:#000000; stroke-linecap:round; stroke-linejoin:round; stroke-width:4; stroke-opacity:1; fill:none" points="148.696,1443.7 148.696,1424.8 "/>
<polyline clip-path="url(#clip980)" style="stroke:#000000; stroke-linecap:round; stroke-linejoin:round; stroke-width:4; stroke-opacity:1; fill:none" points="749.508,1443.7 749.508,1424.8 "/>
<polyline clip-path="url(#clip980)" style="stroke:#000000; stroke-linecap:round; stroke-linejoin:round; stroke-width:4; stroke-opacity:1; fill:none" points="1350.32,1443.7 1350.32,1424.8 "/>
<polyline clip-path="url(#clip980)" style="stroke:#000000; stroke-linecap:round; stroke-linejoin:round; stroke-width:4; stroke-opacity:1; fill:none" points="1951.13,1443.7 1951.13,1424.8 "/>
<polyline clip-path="url(#clip980)" style="stroke:#000000; stroke-linecap:round; stroke-linejoin:round; stroke-width:4; stroke-opacity:1; fill:none" points="2551.94,1443.7 2551.94,1424.8 "/>
<polyline clip-path="url(#clip980)" style="stroke:#000000; stroke-linecap:round; stroke-linejoin:round; stroke-width:4; stroke-opacity:1; fill:none" points="3152.76,1443.7 3152.76,1424.8 "/>
<polyline clip-path="url(#clip980)" style="stroke:#000000; stroke-linecap:round; stroke-linejoin:round; stroke-width:4; stroke-opacity:1; fill:none" points="148.696,47.2441 148.696,66.1417 "/>
<polyline clip-path="url(#clip980)" style="stroke:#000000; stroke-linecap:round; stroke-linejoin:round; stroke-width:4; stroke-opacity:1; fill:none" points="749.508,47.2441 749.508,66.1417 "/>
<polyline clip-path="url(#clip980)" style="stroke:#000000; stroke-linecap:round; stroke-linejoin:round; stroke-width:4; stroke-opacity:1; fill:none" points="1350.32,47.2441 1350.32,66.1417 "/>
<polyline clip-path="url(#clip980)" style="stroke:#000000; stroke-linecap:round; stroke-linejoin:round; stroke-width:4; stroke-opacity:1; fill:none" points="1951.13,47.2441 1951.13,66.1417 "/>
<polyline clip-path="url(#clip980)" style="stroke:#000000; stroke-linecap:round; stroke-linejoin:round; stroke-width:4; stroke-opacity:1; fill:none" points="2551.94,47.2441 2551.94,66.1417 "/>
<polyline clip-path="url(#clip980)" style="stroke:#000000; stroke-linecap:round; stroke-linejoin:round; stroke-width:4; stroke-opacity:1; fill:none" points="3152.76,47.2441 3152.76,66.1417 "/>
<path clip-path="url(#clip980)" d="M148.696 1481.02 Q145.084 1481.02 143.256 1484.58 Q141.45 1488.12 141.45 1495.25 Q141.45 1502.36 143.256 1505.93 Q145.084 1509.47 148.696 1509.47 Q152.33 1509.47 154.135 1505.93 Q155.964 1502.36 155.964 1495.25 Q155.964 1488.12 154.135 1484.58 Q152.33 1481.02 148.696 1481.02 M148.696 1477.31 Q154.506 1477.31 157.561 1481.92 Q160.64 1486.5 160.64 1495.25 Q160.64 1503.98 157.561 1508.59 Q154.506 1513.17 148.696 1513.17 Q142.885 1513.17 139.807 1508.59 Q136.751 1503.98 136.751 1495.25 Q136.751 1486.5 139.807 1481.92 Q142.885 1477.31 148.696 1477.31 Z" fill="#000000" fill-rule="nonzero" fill-opacity="1" /><path clip-path="url(#clip980)" d="M744.16 1508.56 L760.48 1508.56 L760.48 1512.5 L738.535 1512.5 L738.535 1508.56 Q741.197 1505.81 745.781 1501.18 Q750.387 1496.53 751.568 1495.19 Q753.813 1492.66 754.693 1490.93 Q755.596 1489.17 755.596 1487.48 Q755.596 1484.72 753.651 1482.99 Q751.73 1481.25 748.628 1481.25 Q746.429 1481.25 743.975 1482.01 Q741.545 1482.78 738.767 1484.33 L738.767 1479.61 Q741.591 1478.47 744.045 1477.89 Q746.498 1477.31 748.535 1477.31 Q753.906 1477.31 757.1 1480 Q760.295 1482.69 760.295 1487.18 Q760.295 1489.31 759.484 1491.23 Q758.697 1493.12 756.591 1495.72 Q756.012 1496.39 752.91 1499.61 Q749.809 1502.8 744.16 1508.56 Z" fill="#000000" fill-rule="nonzero" fill-opacity="1" /><path clip-path="url(#clip980)" d="M1353.33 1482.01 L1341.52 1500.46 L1353.33 1500.46 L1353.33 1482.01 M1352.1 1477.94 L1357.98 1477.94 L1357.98 1500.46 L1362.91 1500.46 L1362.91 1504.35 L1357.98 1504.35 L1357.98 1512.5 L1353.33 1512.5 L1353.33 1504.35 L1337.73 1504.35 L1337.73 1499.84 L1352.1 1477.94 Z" fill="#000000" fill-rule="nonzero" fill-opacity="1" /><path clip-path="url(#clip980)" d="M1951.54 1493.36 Q1948.39 1493.36 1946.54 1495.51 Q1944.71 1497.66 1944.71 1501.41 Q1944.71 1505.14 1946.54 1507.31 Q1948.39 1509.47 1951.54 1509.47 Q1954.68 1509.47 1956.51 1507.31 Q1958.37 1505.14 1958.37 1501.41 Q1958.37 1497.66 1956.51 1495.51 Q1954.68 1493.36 1951.54 1493.36 M1960.82 1478.7 L1960.82 1482.96 Q1959.06 1482.13 1957.25 1481.69 Q1955.47 1481.25 1953.71 1481.25 Q1949.08 1481.25 1946.63 1484.37 Q1944.2 1487.5 1943.85 1493.82 Q1945.22 1491.81 1947.28 1490.74 Q1949.34 1489.65 1951.81 1489.65 Q1957.02 1489.65 1960.03 1492.82 Q1963.06 1495.97 1963.06 1501.41 Q1963.06 1506.74 1959.92 1509.95 Q1956.77 1513.17 1951.54 1513.17 Q1945.54 1513.17 1942.37 1508.59 Q1939.2 1503.98 1939.2 1495.25 Q1939.2 1487.06 1943.09 1482.2 Q1946.98 1477.31 1953.53 1477.31 Q1955.29 1477.31 1957.07 1477.66 Q1958.87 1478.01 1960.82 1478.7 Z" fill="#000000" fill-rule="nonzero" fill-opacity="1" /><path clip-path="url(#clip980)" d="M2551.94 1496.09 Q2548.61 1496.09 2546.69 1497.87 Q2544.79 1499.65 2544.79 1502.78 Q2544.79 1505.9 2546.69 1507.69 Q2548.61 1509.47 2551.94 1509.47 Q2555.28 1509.47 2557.2 1507.69 Q2559.12 1505.88 2559.12 1502.78 Q2559.12 1499.65 2557.2 1497.87 Q2555.3 1496.09 2551.94 1496.09 M2547.27 1494.1 Q2544.26 1493.36 2542.57 1491.3 Q2540.9 1489.24 2540.9 1486.27 Q2540.9 1482.13 2543.84 1479.72 Q2546.8 1477.31 2551.94 1477.31 Q2557.11 1477.31 2560.05 1479.72 Q2562.99 1482.13 2562.99 1486.27 Q2562.99 1489.24 2561.3 1491.3 Q2559.63 1493.36 2556.64 1494.1 Q2560.02 1494.88 2561.9 1497.18 Q2563.8 1499.47 2563.8 1502.78 Q2563.8 1507.8 2560.72 1510.49 Q2557.66 1513.17 2551.94 1513.17 Q2546.23 1513.17 2543.15 1510.49 Q2540.09 1507.8 2540.09 1502.78 Q2540.09 1499.47 2541.99 1497.18 Q2543.89 1494.88 2547.27 1494.1 M2545.55 1486.71 Q2545.55 1489.4 2547.22 1490.9 Q2548.91 1492.41 2551.94 1492.41 Q2554.95 1492.41 2556.64 1490.9 Q2558.36 1489.4 2558.36 1486.71 Q2558.36 1484.03 2556.64 1482.52 Q2554.95 1481.02 2551.94 1481.02 Q2548.91 1481.02 2547.22 1482.52 Q2545.55 1484.03 2545.55 1486.71 Z" fill="#000000" fill-rule="nonzero" fill-opacity="1" /><path clip-path="url(#clip980)" d="M3127.44 1508.56 L3135.08 1508.56 L3135.08 1482.2 L3126.77 1483.87 L3126.77 1479.61 L3135.04 1477.94 L3139.71 1477.94 L3139.71 1508.56 L3147.35 1508.56 L3147.35 1512.5 L3127.44 1512.5 L3127.44 1508.56 Z" fill="#000000" fill-rule="nonzero" fill-opacity="1" /><path clip-path="url(#clip980)" d="M3166.8 1481.02 Q3163.18 1481.02 3161.36 1484.58 Q3159.55 1488.12 3159.55 1495.25 Q3159.55 1502.36 3161.36 1505.93 Q3163.18 1509.47 3166.8 1509.47 Q3170.43 1509.47 3172.23 1505.93 Q3174.06 1502.36 3174.06 1495.25 Q3174.06 1488.12 3172.23 1484.58 Q3170.43 1481.02 3166.8 1481.02 M3166.8 1477.31 Q3172.61 1477.31 3175.66 1481.92 Q3178.74 1486.5 3178.74 1495.25 Q3178.74 1503.98 3175.66 1508.59 Q3172.61 1513.17 3166.8 1513.17 Q3160.99 1513.17 3157.91 1508.59 Q3154.85 1503.98 3154.85 1495.25 Q3154.85 1486.5 3157.91 1481.92 Q3160.99 1477.31 3166.8 1477.31 Z" fill="#000000" fill-rule="nonzero" fill-opacity="1" /><path clip-path="url(#clip980)" d="M1649.79 1554.79 L1649.79 1564.92 L1661.85 1564.92 L1661.85 1569.47 L1649.79 1569.47 L1649.79 1588.82 Q1649.79 1593.18 1650.96 1594.42 Q1652.17 1595.66 1655.83 1595.66 L1661.85 1595.66 L1661.85 1600.56 L1655.83 1600.56 Q1649.05 1600.56 1646.48 1598.05 Q1643.9 1595.5 1643.9 1588.82 L1643.9 1569.47 L1639.6 1569.47 L1639.6 1564.92 L1643.9 1564.92 L1643.9 1554.79 L1649.79 1554.79 Z" fill="#000000" fill-rule="nonzero" fill-opacity="1" /><polyline clip-path="url(#clip982)" style="stroke:#000000; stroke-linecap:round; stroke-linejoin:round; stroke-width:2; stroke-opacity:0.1; fill:none" points="148.696,1443.7 3152.76,1443.7 "/>
<polyline clip-path="url(#clip982)" style="stroke:#000000; stroke-linecap:round; stroke-linejoin:round; stroke-width:2; stroke-opacity:0.1; fill:none" points="148.696,1094.59 3152.76,1094.59 "/>
<polyline clip-path="url(#clip982)" style="stroke:#000000; stroke-linecap:round; stroke-linejoin:round; stroke-width:2; stroke-opacity:0.1; fill:none" points="148.696,745.472 3152.76,745.472 "/>
<polyline clip-path="url(#clip982)" style="stroke:#000000; stroke-linecap:round; stroke-linejoin:round; stroke-width:2; stroke-opacity:0.1; fill:none" points="148.696,396.358 3152.76,396.358 "/>
<polyline clip-path="url(#clip982)" style="stroke:#000000; stroke-linecap:round; stroke-linejoin:round; stroke-width:2; stroke-opacity:0.1; fill:none" points="148.696,47.2441 3152.76,47.2441 "/>
<polyline clip-path="url(#clip982)" style="stroke:#000000; stroke-linecap:round; stroke-linejoin:round; stroke-width:2; stroke-opacity:0.1; fill:none" points="148.696,1443.7 3152.76,1443.7 "/>
<polyline clip-path="url(#clip982)" style="stroke:#000000; stroke-linecap:round; stroke-linejoin:round; stroke-width:2; stroke-opacity:0.1; fill:none" points="148.696,1094.59 3152.76,1094.59 "/>
<polyline clip-path="url(#clip982)" style="stroke:#000000; stroke-linecap:round; stroke-linejoin:round; stroke-width:2; stroke-opacity:0.1; fill:none" points="148.696,745.472 3152.76,745.472 "/>
<polyline clip-path="url(#clip982)" style="stroke:#000000; stroke-linecap:round; stroke-linejoin:round; stroke-width:2; stroke-opacity:0.1; fill:none" points="148.696,396.358 3152.76,396.358 "/>
<polyline clip-path="url(#clip982)" style="stroke:#000000; stroke-linecap:round; stroke-linejoin:round; stroke-width:2; stroke-opacity:0.1; fill:none" points="148.696,47.2441 3152.76,47.2441 "/>
<polyline clip-path="url(#clip980)" style="stroke:#000000; stroke-linecap:round; stroke-linejoin:round; stroke-width:4; stroke-opacity:1; fill:none" points="148.696,1443.7 148.696,47.2441 "/>
<polyline clip-path="url(#clip980)" style="stroke:#000000; stroke-linecap:round; stroke-linejoin:round; stroke-width:4; stroke-opacity:1; fill:none" points="3152.76,1443.7 3152.76,47.2441 "/>
<polyline clip-path="url(#clip980)" style="stroke:#000000; stroke-linecap:round; stroke-linejoin:round; stroke-width:4; stroke-opacity:1; fill:none" points="148.696,1443.7 167.593,1443.7 "/>
<polyline clip-path="url(#clip980)" style="stroke:#000000; stroke-linecap:round; stroke-linejoin:round; stroke-width:4; stroke-opacity:1; fill:none" points="148.696,1094.59 167.593,1094.59 "/>
<polyline clip-path="url(#clip980)" style="stroke:#000000; stroke-linecap:round; stroke-linejoin:round; stroke-width:4; stroke-opacity:1; fill:none" points="148.696,745.472 167.593,745.472 "/>
<polyline clip-path="url(#clip980)" style="stroke:#000000; stroke-linecap:round; stroke-linejoin:round; stroke-width:4; stroke-opacity:1; fill:none" points="148.696,396.358 167.593,396.358 "/>
<polyline clip-path="url(#clip980)" style="stroke:#000000; stroke-linecap:round; stroke-linejoin:round; stroke-width:4; stroke-opacity:1; fill:none" points="148.696,47.2441 167.593,47.2441 "/>
<polyline clip-path="url(#clip980)" style="stroke:#000000; stroke-linecap:round; stroke-linejoin:round; stroke-width:4; stroke-opacity:1; fill:none" points="3152.76,1443.7 3133.86,1443.7 "/>
<polyline clip-path="url(#clip980)" style="stroke:#000000; stroke-linecap:round; stroke-linejoin:round; stroke-width:4; stroke-opacity:1; fill:none" points="3152.76,1094.59 3133.86,1094.59 "/>
<polyline clip-path="url(#clip980)" style="stroke:#000000; stroke-linecap:round; stroke-linejoin:round; stroke-width:4; stroke-opacity:1; fill:none" points="3152.76,745.472 3133.86,745.472 "/>
<polyline clip-path="url(#clip980)" style="stroke:#000000; stroke-linecap:round; stroke-linejoin:round; stroke-width:4; stroke-opacity:1; fill:none" points="3152.76,396.358 3133.86,396.358 "/>
<polyline clip-path="url(#clip980)" style="stroke:#000000; stroke-linecap:round; stroke-linejoin:round; stroke-width:4; stroke-opacity:1; fill:none" points="3152.76,47.2441 3133.86,47.2441 "/>
<path clip-path="url(#clip980)" d="M88.7512 1429.5 Q85.1401 1429.5 83.3114 1433.06 Q81.5058 1436.6 81.5058 1443.73 Q81.5058 1450.84 83.3114 1454.41 Q85.1401 1457.95 88.7512 1457.95 Q92.3854 1457.95 94.1909 1454.41 Q96.0196 1450.84 96.0196 1443.73 Q96.0196 1436.6 94.1909 1433.06 Q92.3854 1429.5 88.7512 1429.5 M88.7512 1425.79 Q94.5613 1425.79 97.6169 1430.4 Q100.696 1434.98 100.696 1443.73 Q100.696 1452.46 97.6169 1457.07 Q94.5613 1461.65 88.7512 1461.65 Q82.941 1461.65 79.8623 1457.07 Q76.8068 1452.46 76.8068 1443.73 Q76.8068 1434.98 79.8623 1430.4 Q82.941 1425.79 88.7512 1425.79 Z" fill="#000000" fill-rule="nonzero" fill-opacity="1" /><path clip-path="url(#clip980)" d="M79.7929 1077.31 L98.1493 1077.31 L98.1493 1081.24 L84.0753 1081.24 L84.0753 1089.71 Q85.0938 1089.37 86.1123 1089.2 Q87.1308 1089.02 88.1493 1089.02 Q93.9363 1089.02 97.3159 1092.19 Q100.696 1095.36 100.696 1100.78 Q100.696 1106.36 97.2233 1109.46 Q93.7511 1112.54 87.4317 1112.54 Q85.2558 1112.54 82.9873 1112.17 Q80.7419 1111.8 78.3346 1111.06 L78.3346 1106.36 Q80.4179 1107.49 82.6401 1108.05 Q84.8623 1108.6 87.3391 1108.6 Q91.3437 1108.6 93.6817 1106.5 Q96.0196 1104.39 96.0196 1100.78 Q96.0196 1097.17 93.6817 1095.06 Q91.3437 1092.95 87.3391 1092.95 Q85.4641 1092.95 83.5892 1093.37 Q81.7373 1093.79 79.7929 1094.67 L79.7929 1077.31 Z" fill="#000000" fill-rule="nonzero" fill-opacity="1" /><path clip-path="url(#clip980)" d="M49.3995 758.817 L57.0384 758.817 L57.0384 732.451 L48.7282 734.118 L48.7282 729.859 L56.9921 728.192 L61.668 728.192 L61.668 758.817 L69.3068 758.817 L69.3068 762.752 L49.3995 762.752 L49.3995 758.817 Z" fill="#000000" fill-rule="nonzero" fill-opacity="1" /><path clip-path="url(#clip980)" d="M88.7512 731.271 Q85.1401 731.271 83.3114 734.835 Q81.5058 738.377 81.5058 745.507 Q81.5058 752.613 83.3114 756.178 Q85.1401 759.72 88.7512 759.72 Q92.3854 759.72 94.1909 756.178 Q96.0196 752.613 96.0196 745.507 Q96.0196 738.377 94.1909 734.835 Q92.3854 731.271 88.7512 731.271 M88.7512 727.567 Q94.5613 727.567 97.6169 732.173 Q100.696 736.757 100.696 745.507 Q100.696 754.233 97.6169 758.84 Q94.5613 763.423 88.7512 763.423 Q82.941 763.423 79.8623 758.84 Q76.8068 754.233 76.8068 745.507 Q76.8068 736.757 79.8623 732.173 Q82.941 727.567 88.7512 727.567 Z" fill="#000000" fill-rule="nonzero" fill-opacity="1" /><path clip-path="url(#clip980)" d="M50.3949 409.703 L58.0337 409.703 L58.0337 383.337 L49.7236 385.004 L49.7236 380.745 L57.9874 379.078 L62.6633 379.078 L62.6633 409.703 L70.3022 409.703 L70.3022 413.638 L50.3949 413.638 L50.3949 409.703 Z" fill="#000000" fill-rule="nonzero" fill-opacity="1" /><path clip-path="url(#clip980)" d="M79.7929 379.078 L98.1493 379.078 L98.1493 383.013 L84.0753 383.013 L84.0753 391.485 Q85.0938 391.138 86.1123 390.976 Q87.1308 390.791 88.1493 390.791 Q93.9363 390.791 97.3159 393.962 Q100.696 397.133 100.696 402.55 Q100.696 408.129 97.2233 411.231 Q93.7511 414.309 87.4317 414.309 Q85.2558 414.309 82.9873 413.939 Q80.7419 413.569 78.3346 412.828 L78.3346 408.129 Q80.4179 409.263 82.6401 409.819 Q84.8623 410.374 87.3391 410.374 Q91.3437 410.374 93.6817 408.268 Q96.0196 406.161 96.0196 402.55 Q96.0196 398.939 93.6817 396.833 Q91.3437 394.726 87.3391 394.726 Q85.4641 394.726 83.5892 395.143 Q81.7373 395.559 79.7929 396.439 L79.7929 379.078 Z" fill="#000000" fill-rule="nonzero" fill-opacity="1" /><path clip-path="url(#clip980)" d="M52.6171 60.5889 L68.9365 60.5889 L68.9365 64.5241 L46.9921 64.5241 L46.9921 60.5889 Q49.6541 57.8343 54.2375 53.2047 Q58.8439 48.552 60.0245 47.2094 Q62.2698 44.6862 63.1494 42.9501 Q64.0522 41.1909 64.0522 39.5011 Q64.0522 36.7465 62.1078 35.0104 Q60.1865 33.2743 57.0847 33.2743 Q54.8856 33.2743 52.4319 34.0381 Q50.0014 34.802 47.2236 36.3529 L47.2236 31.6308 Q50.0477 30.4965 52.5014 29.9178 Q54.955 29.3391 56.9921 29.3391 Q62.3624 29.3391 65.5568 32.0243 Q68.7513 34.7094 68.7513 39.2002 Q68.7513 41.3298 67.9411 43.2511 Q67.1541 45.1492 65.0476 47.7418 Q64.4689 48.4131 61.367 51.6306 Q58.2652 54.8251 52.6171 60.5889 Z" fill="#000000" fill-rule="nonzero" fill-opacity="1" /><path clip-path="url(#clip980)" d="M88.7512 33.0428 Q85.1401 33.0428 83.3114 36.6076 Q81.5058 40.1492 81.5058 47.2788 Q81.5058 54.3853 83.3114 57.9501 Q85.1401 61.4917 88.7512 61.4917 Q92.3854 61.4917 94.1909 57.9501 Q96.0196 54.3853 96.0196 47.2788 Q96.0196 40.1492 94.1909 36.6076 Q92.3854 33.0428 88.7512 33.0428 M88.7512 29.3391 Q94.5613 29.3391 97.6169 33.9456 Q100.696 38.5289 100.696 47.2788 Q100.696 56.0056 97.6169 60.6121 Q94.5613 65.1954 88.7512 65.1954 Q82.941 65.1954 79.8623 60.6121 Q76.8068 56.0056 76.8068 47.2788 Q76.8068 38.5289 79.8623 33.9456 Q82.941 29.3391 88.7512 29.3391 Z" fill="#000000" fill-rule="nonzero" fill-opacity="1" /><polyline clip-path="url(#clip982)" style="stroke:#009af9; stroke-linecap:round; stroke-linejoin:round; stroke-width:12; stroke-opacity:1; fill:none" points="148.696,745.472 148.696,745.644 148.696,745.235 148.696,745.291 148.696,745.14 148.697,745.449 148.697,745.33 148.697,745.474 148.698,745.306 148.698,745.154 148.699,744.738 148.699,744.674 148.7,744.988 148.701,744.07 148.702,744.242 148.703,744.943 148.704,745.027 148.705,744.55 148.706,743.593 148.708,742.526 148.71,742.15 148.711,742.512 148.714,743.679 148.716,742.99 148.719,741.887 148.722,741.585 148.725,739.54 148.729,738.089 148.734,736.933 148.739,736.811 148.744,735.948 148.751,734.888 148.758,733.483 148.766,734.109 148.775,736.556 148.785,736.079 148.796,734.962 148.809,732.774 148.823,731.589 148.839,732.815 148.857,730.469 148.878,727.882 148.901,733.317 148.927,729.731 148.956,732.46 148.988,730.458 149.025,734.955 149.067,729.957 149.113,732.136 149.165,735.031 149.224,732.918 149.291,738.768 149.365,733.489 149.449,745.599 149.544,747.979 149.65,756.346 149.769,756.271 149.904,755.422 150.055,750.578 150.225,754.526 150.416,753.637 150.631,738.709 150.874,741.237 151.146,735.434 151.453,728.792 151.797,706.124 152.185,707.478 152.622,691.177 153.113,682.174 153.665,675.821 154.286,665.999 154.985,683.221 155.772,672.194 156.657,657.783 157.652,668.986 158.772,685.333 160.031,640.229 161.174,633.237 162.459,622.481 163.905,607.007 165.532,590.268 167.361,606.673 169.42,581.86 171.736,585.402 174.342,610.177 177.273,617.904 180.571,571.222 181.716,593.341 183.004,618.498 184.215,606.937 185.577,598.251 187.109,588.029 188.833,564.477 190.773,545.712 192.954,550.74 195.409,553.476 198.17,573.415 201.277,639.043 204.772,624.393 208.704,606.449 213.127,541.711 215.682,567.436 218.556,600.994 221.789,598.753 225.427,638.958 229.519,654.292 234.123,660.052 239.303,647.419 245.129,664.939 251.684,717.417 259.059,678.042 267.355,741.111 276.689,778.211 285.74,750.879 295.923,775.211 305.602,875.242 308.441,887.547 311.634,828.642 315.227,831.003 319.269,826.695 323.815,780.312 328.931,738.372 334.685,748.453 341.159,776.163 348.442,793.155 356.636,744.949 360.61,737.304 365.082,752.483 370.112,762.979 375.771,832 379.911,800.782 384.568,811.075 389.807,801.698 395.701,750.89 402.332,668.827 406.455,691.135 411.093,697.149 416.311,637.538 422.182,673.284 428.786,703.232 436.215,640.148 440.834,617.22 446.03,652.472 451.876,682.225 458.453,686.344 465.851,670.818 474.175,626.456 483.538,639.585 494.073,581.388 502.224,573.136 511.394,678.648 521.711,754.114 533.317,670.368 546.374,685.429 561.063,701.875 572.967,708.026 586.359,651.857 594.685,721.375 604.052,755.453 611.016,734.623 615.947,744.925 621.493,809.77 622.706,837.005 624.072,830.009 625.608,861.181 627.335,883.072 629.279,893.644 631.466,948.287 632.437,900.658 633.529,911.731 634.757,887.333 636.139,874.277 637.694,865.512 639.442,866.504 641.41,881.163 643.624,882.43 646.114,857.925 648.915,803.557 652.067,798.84 655.613,784.219 659.601,816.738 664.089,752.199 667.549,756.734 671.442,731.838 675.821,769.345 680.748,821.268 684.941,798.699 689.658,765.224 694.966,779.684 700.936,775.265 707.653,742.632 715.21,722.503 723.711,777.17 733.275,773.002 744.034,790.505 756.138,813.577 769.755,769.233 785.074,764.988 797.273,671.974 810.996,583.76 826.435,607.496 843.803,544.238 856.256,508.652 870.264,533.835 886.025,627.236 903.755,657.86 923.701,549.093 935.181,633.323 948.097,578.115 962.627,519.768 970.007,553.458 978.309,587.094 987.648,626.833 998.156,572.188 1009.98,646.492 1023.27,632.135 1032.39,609.663 1042.65,682.285 1053.3,574.256 1065.27,546.079 1078.75,483.417 1093.9,422.675 1094.82,427.919 1095.86,407.49 1097.03,431.31 1098.34,427.565 1099.81,452.554 1101.47,445.64 1103.34,442.079 1105.44,459.703 1107.81,478.208 1110.47,479.692 1113.46,457.394 1116.83,459.91 1120.61,471.046 1124.87,508.656 1129.67,494.746 1135.06,535.244 1141.13,559.714 1147.95,577.728 1155.63,597.062 1162.99,672.283 1171.27,642.565 1174.94,617.745 1179.07,646.502 1183.72,613.396 1188.94,640.41 1194.82,663.26 1201.44,672.97 1207.38,707.832 1214.07,674.571 1221.59,632.261 1230.05,632.695 1239.58,605.873 1250.29,672.788 1262.34,707.757 1274.15,808.44 1287.45,809.732 1302.4,813.709 1319.22,808.065 1338.15,848.952 1344.01,886.737 1350.6,924.271 1358.01,925.94 1366.35,943.134 1375.74,1008.54 1386.29,954.842 1398.17,991.342 1401.26,1041.05 1404.73,1086.46 1407.17,1015.25 1409.92,1009.07 1413.01,996.42 1416.48,958.056 1420.39,956.313 1424.79,939.054 1429.74,967.054 1435.3,1006.3 1441.09,1003.07 1447.59,983.618 1454.91,963.275 1463.14,1055.87 1464.79,1061.05 1466.64,1064.79 1468.72,1021.71 1471.07,1080.5 1471.7,1067.96 1472.41,1069.01 1473.22,1067.54 1474.12,1078.8 1475.14,1086.2 1476.28,1111.87 1477.57,1122.86 1479.02,1092.94 1480.65,1065.03 1482.48,1085.18 1484.54,1072.54 1486.86,1083.15 1489.47,1148.7 1490.02,1143.18 1490.63,1145.49 1491.32,1145.18 1492.09,1154.31 1492.96,1156.24 1493.94,1124.61 1494.86,1105.34 1495.89,1099.23 1497.06,1096.13 1498.37,1130.86 1499.48,1122.3 1500.74,1129.18 1502.15,1133.13 1503.74,1115.05 1505.53,1061.64 1507.15,1083.06 1508.99,1039.3 1511.05,1063.62 1513.37,1041.64 1515.98,1040.85 1518.91,1055.74 1522.21,1123.52 1524.02,1128.82 1526.06,1131.79 1528.35,1084.69 1530.93,1056.89 1532.48,1052.6 1534.22,1010.47 1536.17,1047.88 1538.38,1064.22 1540.85,1054.4 1543.64,1045.53 1546.77,1048.11 1550.3,1122.5 1551.46,1139.92 1552.78,1101.39 1554.05,1081.33 1555.48,1073.65 1557.09,1028.77 1558.9,1046.19 1560.93,1033.05 1563.23,1046.55 1565.8,1038.72 1568.7,1081.13 1571.97,1114.02 1575.64,1075.1 1579.77,1043.52 1584.41,1022.67 1589.64,1064.46 1594.32,1041.28 1599.59,1034.13 1605.52,1012.43 1612.19,977.913 1619.7,920.671 1628.14,951.874 1637.64,889.248 1648.32,877.536 1660.34,879.866 1663.46,938.601 1665.36,897.213 1667.5,911.028 1669.9,886.248 1672.61,913.056 1675.65,916.573 1679.07,935.561 1681.31,931.143 1683.84,949.725 1686.68,914.41 1689.87,914.391 1693.46,847.75 1697.51,930.374 1702.05,913.195 1707.17,912.6 1712.93,925.147 1717.13,977.918 1721.85,984.363 1727.17,1000.05 1733.15,921.595 1739.88,938.798 1747.45,948.239 1755.96,998.337 1757.9,1007.32 1760.08,1003.5 1762.53,991.555 1765.3,969.653 1768.4,974.357 1771.9,1001.73 1775.83,988.442 1777.88,977.155 1780.19,958.335 1782.79,946.009 1785.71,880.651 1789,845.606 1792.7,854.213 1796.86,883.406 1801.54,905.399 1806.81,959.575 1810.71,966.394 1815.1,992.353 1816.19,1022.34 1817.42,1050.47 1818.8,1009.65 1820.35,1010.78 1822.1,982.066 1824.06,997.346 1826.27,1027.05 1828.76,1041.34 1831.56,1073.48 1834.71,1057.52 1838.25,1056.57 1842.24,1068 1846.72,1083.03 1850.27,1071.52 1854.26,1051.46 1858.76,1059.89 1863.81,1073.73 1869.49,1124.88 1875.89,1132.48 1883.09,1031.17 1888,953.111 1893.52,947.25 1899.73,875.595 1904.63,891.746 1910.14,830.446 1913.32,756.328 1916.9,717.667 1920.93,687.568 1925.46,723.726 1930.56,757.17 1936.29,824.889 1938.32,720.188 1939.39,695.908 1940.6,691.357 1941.97,706.384 1943.5,719.699 1945.23,726.738 1947.17,748.346 1949.35,779.414 1951.8,798.651 1954.55,824.039 1957.09,824.216 1959.94,846.332 1963.16,874.117 1966.77,876.432 1970.83,845.72 1975.41,813.711 1980.55,838.468 1984.34,871.622 1988.6,869.403 1990.74,877.22 1993.15,877.837 1995.85,918.703 1996.39,932.787 1997.01,939.654 1997.69,949.058 1998.47,928.57 1999.34,932.241 2000.31,982.513 2001.09,979.298 2001.97,965.639 2002.95,949.398 2004.06,989.473 2005.3,985.195 2006.7,948.271 2008.28,950.05 2010.05,970.7 2012.05,975.529 2014.29,984.762 2016.82,979.42 2019.66,1005.99 2022.85,1011.13 2026.45,978.82 2030.49,994.97 2035.04,948.383 2040.16,916.456 2045.92,911.551 2052.39,847.654 2054.38,851.516 2056.61,821.837 2059.12,828.881 2061.95,799.196 2065.12,810.481 2068.7,782.402 2072.72,798.193 2077.25,784.416 2082.34,716.881 2088.07,729.396 2094.51,678.92 2101.76,698.638 2109.91,778.449 2119.09,864.746 2123.83,864.863 2129.16,815.551 2133.99,797.505 2139.42,834.366 2145.54,840.955 2152.42,859.83 2160.16,856.32 2168.86,823.839 2178.66,805.192 2189.67,810.331 2202.07,775.777 2216.01,711.963 2231.7,731.673 2245.81,783.986 2261.69,768.76 2269.54,745.318 2278.38,704.365 2284.44,669.048 2291.26,637.429 2298.93,618.66 2304.42,483.374 2306.13,466.615 2308.06,462.236 2310.22,464.768 2312.66,414.834 2315.39,461.51 2318.48,489.12 2321.94,527.509 2325.84,546.476 2330.23,610.659 2333.97,641.092 2338.17,637.452 2342.9,630.419 2348.23,540.513 2350.58,552.315 2353.22,527.485 2356.2,583.9 2359.54,599.715 2363.31,630.081 2367.54,666.034 2372.31,711.809 2377.67,750.544 2383.7,762.667 2390.48,746.167 2398.11,742.59 2406.7,714.545 2416.35,688.461 2427.22,721.248 2439.45,771.825 2453.2,714.556 2468.67,702.802 2480.15,728.99 2493.07,762.102 2506.46,711.257 2516.78,679.665 2528.39,627.767 2541.45,705.911 2555.96,771.825 2566.21,822.271 2577.75,783.004 2581.84,872.886 2583.84,867.929 2586.09,907.808 2588.63,938.007 2591.48,953.533 2594.68,946.903 2598.29,903.901 2602.35,883.993 2606.92,810.002 2608.11,828.723 2609.46,837.106 2610.67,832.081 2612.04,836.808 2613.58,831.286 2615.31,821.67 2617.26,800.093 2619.45,777.061 2621.92,783.547 2624.7,754.794 2627.82,789.892 2631.33,786.934 2635.28,758.675 2639.72,758.927 2644.72,758.593 2650.35,767.995 2656.68,737.795 2663.8,711.326 2671.81,748.635 2680.82,674.784 2689.44,702.203 2699.15,703.302 2710.07,597.77 2722.35,595.753 2730.77,555.309 2740.25,621.031 2749.62,593.708 2760.15,574.352 2772,707.603 2781.03,736.909 2791.2,725.939 2802.64,749.963 2815.51,654.623 2818.46,669.984 2821.73,635.923 2825.41,625.177 2829.55,628.052 2831.29,674.779 2833.25,682.686 2835.45,664.828 2837.93,652.43 2840.72,674.507 2843.86,670.489 2845.99,663.562 2848.39,653.366 2851.09,613.432 2854.12,624.177 2857.54,636.337 2861.38,671.679 2865.7,668.964 2870.56,671.351 2876.03,695.26 2880.86,723.259 2886.3,785.333 2892.42,731.049 2899.3,695.897 2907.04,705.774 2915.75,769.963 2918.41,784.555 2921.4,777.645 2924.77,795.893 2928.55,774.381 2932.81,771.423 2937.61,818.906 2943,801.629 2948.38,770.675 2954.44,718.561 2957.07,733.563 2960.04,712.123 2963.37,666.792 2967.12,695.538 2971.34,735.397 2976.09,778.921 2981.43,690.217 2983.07,669.49 2984.92,671.309 2987,697.782 2989.34,667.997 2991.97,694.799 2994.93,689.998 2998.26,738.579 3002,708.008 3006.22,706.872 3010.96,734.393 3016.29,724.2 3022.29,748.467 3029.04,815.59 3036.42,854.26 3044.72,896.458 3053.04,936.947 3062.41,1010.03 3072.94,950.262 3084.8,1017.47 3092.9,1079.04 3102.02,1070.85 3112.28,1029.05 3123.82,1035.72 3136.51,1000.6 3150.79,1045.64 3152.76,1022.52 "/>
<path clip-path="url(#clip980)" d="M2695.36 197.473 L3052.62 197.473 L3052.62 93.7926 L2695.36 93.7926  Z" fill="#ffffff" fill-rule="evenodd" fill-opacity="1"/>
<polyline clip-path="url(#clip980)" style="stroke:#000000; stroke-linecap:round; stroke-linejoin:round; stroke-width:4; stroke-opacity:1; fill:none" points="2695.36,197.473 3052.62,197.473 3052.62,93.7926 2695.36,93.7926 2695.36,197.473 "/>
<polyline clip-path="url(#clip980)" style="stroke:#009af9; stroke-linecap:round; stroke-linejoin:round; stroke-width:12; stroke-opacity:1; fill:none" points="2728.74,145.633 2929.01,145.633 "/>
<path clip-path="url(#clip980)" d="M2963.96 128.353 L2968.99 128.353 L2977.58 141.2 L2986.21 128.353 L2991.23 128.353 L2980.12 144.95 L2991.97 162.913 L2986.95 162.913 L2977.23 148.214 L2967.44 162.913 L2962.39 162.913 L2974.73 144.464 L2963.96 128.353 Z" fill="#000000" fill-rule="nonzero" fill-opacity="1" /><path clip-path="url(#clip980)" d="M2999.33 158.977 L3006.97 158.977 L3006.97 132.612 L2998.66 134.279 L2998.66 130.019 L3006.93 128.353 L3011.6 128.353 L3011.6 158.977 L3019.24 158.977 L3019.24 162.913 L2999.33 162.913 L2999.33 158.977 Z" fill="#000000" fill-rule="nonzero" fill-opacity="1" /></svg>
