<?xml version="1.0" encoding="utf-8"?>
<svg xmlns="http://www.w3.org/2000/svg" xmlns:xlink="http://www.w3.org/1999/xlink" width="600" height="400" viewBox="0 0 2400 1600">
<defs>
  <clipPath id="clip310">
    <rect x="0" y="0" width="2400" height="1600"/>
  </clipPath>
</defs>
<path clip-path="url(#clip310)" d="M0 1600 L2400 1600 L2400 0 L0 0  Z" fill="#ffffff" fill-rule="evenodd" fill-opacity="1"/>
<defs>
  <clipPath id="clip311">
    <rect x="480" y="0" width="1681" height="1600"/>
  </clipPath>
</defs>
<path clip-path="url(#clip310)" d="M186.274 1423.18 L2352.76 1423.18 L2352.76 47.2441 L186.274 47.2441  Z" fill="#ffffff" fill-rule="evenodd" fill-opacity="1"/>
<defs>
  <clipPath id="clip312">
    <rect x="186" y="47" width="2167" height="1377"/>
  </clipPath>
</defs>
<polyline clip-path="url(#clip312)" style="stroke:#000000; stroke-linecap:round; stroke-linejoin:round; stroke-width:2; stroke-opacity:0.1; fill:none" points="186.274,1423.18 186.274,47.2441 "/>
<polyline clip-path="url(#clip312)" style="stroke:#000000; stroke-linecap:round; stroke-linejoin:round; stroke-width:2; stroke-opacity:0.1; fill:none" points="619.57,1423.18 619.57,47.2441 "/>
<polyline clip-path="url(#clip312)" style="stroke:#000000; stroke-linecap:round; stroke-linejoin:round; stroke-width:2; stroke-opacity:0.1; fill:none" points="1052.87,1423.18 1052.87,47.2441 "/>
<polyline clip-path="url(#clip312)" style="stroke:#000000; stroke-linecap:round; stroke-linejoin:round; stroke-width:2; stroke-opacity:0.1; fill:none" points="1486.16,1423.18 1486.16,47.2441 "/>
<polyline clip-path="url(#clip312)" style="stroke:#000000; stroke-linecap:round; stroke-linejoin:round; stroke-width:2; stroke-opacity:0.1; fill:none" points="1919.46,1423.18 1919.46,47.2441 "/>
<polyline clip-path="url(#clip312)" style="stroke:#000000; stroke-linecap:round; stroke-linejoin:round; stroke-width:2; stroke-opacity:0.1; fill:none" points="2352.76,1423.18 2352.76,47.2441 "/>
<polyline clip-path="url(#clip310)" style="stroke:#000000; stroke-linecap:round; stroke-linejoin:round; stroke-width:4; stroke-opacity:1; fill:none" points="186.274,1423.18 2352.76,1423.18 "/>
<polyline clip-path="url(#clip310)" style="stroke:#000000; stroke-linecap:round; stroke-linejoin:round; stroke-width:4; stroke-opacity:1; fill:none" points="186.274,1423.18 186.274,1404.28 "/>
<polyline clip-path="url(#clip310)" style="stroke:#000000; stroke-linecap:round; stroke-linejoin:round; stroke-width:4; stroke-opacity:1; fill:none" points="619.57,1423.18 619.57,1404.28 "/>
<polyline clip-path="url(#clip310)" style="stroke:#000000; stroke-linecap:round; stroke-linejoin:round; stroke-width:4; stroke-opacity:1; fill:none" points="1052.87,1423.18 1052.87,1404.28 "/>
<polyline clip-path="url(#clip310)" style="stroke:#000000; stroke-linecap:round; stroke-linejoin:round; stroke-width:4; stroke-opacity:1; fill:none" points="1486.16,1423.18 1486.16,1404.28 "/>
<polyline clip-path="url(#clip310)" style="stroke:#000000; stroke-linecap:round; stroke-linejoin:round; stroke-width:4; stroke-opacity:1; fill:none" points="1919.46,1423.18 1919.46,1404.28 "/>
<polyline clip-path="url(#clip310)" style="stroke:#000000; stroke-linecap:round; stroke-linejoin:round; stroke-width:4; stroke-opacity:1; fill:none" points="2352.76,1423.18 2352.76,1404.28 "/>
<path clip-path="url(#clip310)" d="M186.274 1454.1 Q182.663 1454.1 180.834 1457.66 Q179.029 1461.2 179.029 1468.33 Q179.029 1475.44 180.834 1479.01 Q182.663 1482.55 186.274 1482.55 Q189.908 1482.55 191.714 1479.01 Q193.542 1475.44 193.542 1468.33 Q193.542 1461.2 191.714 1457.66 Q189.908 1454.1 186.274 1454.1 M186.274 1450.39 Q192.084 1450.39 195.14 1455 Q198.218 1459.58 198.218 1468.33 Q198.218 1477.06 195.14 1481.67 Q192.084 1486.25 186.274 1486.25 Q180.464 1486.25 177.385 1481.67 Q174.33 1477.06 174.33 1468.33 Q174.33 1459.58 177.385 1455 Q180.464 1450.39 186.274 1450.39 Z" fill="#000000" fill-rule="nonzero" fill-opacity="1" /><path clip-path="url(#clip310)" d="M614.223 1481.64 L630.543 1481.64 L630.543 1485.58 L608.598 1485.58 L608.598 1481.64 Q611.26 1478.89 615.844 1474.26 Q620.45 1469.61 621.631 1468.27 Q623.876 1465.74 624.756 1464.01 Q625.658 1462.25 625.658 1460.56 Q625.658 1457.8 623.714 1456.07 Q621.793 1454.33 618.691 1454.33 Q616.492 1454.33 614.038 1455.09 Q611.607 1455.86 608.83 1457.41 L608.83 1452.69 Q611.654 1451.55 614.107 1450.97 Q616.561 1450.39 618.598 1450.39 Q623.969 1450.39 627.163 1453.08 Q630.357 1455.77 630.357 1460.26 Q630.357 1462.39 629.547 1464.31 Q628.76 1466.2 626.654 1468.8 Q626.075 1469.47 622.973 1472.69 Q619.871 1475.88 614.223 1481.64 Z" fill="#000000" fill-rule="nonzero" fill-opacity="1" /><path clip-path="url(#clip310)" d="M1055.88 1455.09 L1044.07 1473.54 L1055.88 1473.54 L1055.88 1455.09 M1054.65 1451.02 L1060.53 1451.02 L1060.53 1473.54 L1065.46 1473.54 L1065.46 1477.43 L1060.53 1477.43 L1060.53 1485.58 L1055.88 1485.58 L1055.88 1477.43 L1040.27 1477.43 L1040.27 1472.92 L1054.65 1451.02 Z" fill="#000000" fill-rule="nonzero" fill-opacity="1" /><path clip-path="url(#clip310)" d="M1486.57 1466.44 Q1483.42 1466.44 1481.57 1468.59 Q1479.74 1470.74 1479.74 1474.49 Q1479.74 1478.22 1481.57 1480.39 Q1483.42 1482.55 1486.57 1482.55 Q1489.72 1482.55 1491.55 1480.39 Q1493.4 1478.22 1493.4 1474.49 Q1493.4 1470.74 1491.55 1468.59 Q1489.72 1466.44 1486.57 1466.44 M1495.85 1451.78 L1495.85 1456.04 Q1494.09 1455.21 1492.29 1454.77 Q1490.5 1454.33 1488.74 1454.33 Q1484.11 1454.33 1481.66 1457.45 Q1479.23 1460.58 1478.88 1466.9 Q1480.25 1464.89 1482.31 1463.82 Q1484.37 1462.73 1486.85 1462.73 Q1492.05 1462.73 1495.06 1465.9 Q1498.1 1469.05 1498.1 1474.49 Q1498.1 1479.82 1494.95 1483.03 Q1491.8 1486.25 1486.57 1486.25 Q1480.57 1486.25 1477.4 1481.67 Q1474.23 1477.06 1474.23 1468.33 Q1474.23 1460.14 1478.12 1455.28 Q1482.01 1450.39 1488.56 1450.39 Q1490.32 1450.39 1492.1 1450.74 Q1493.91 1451.09 1495.85 1451.78 Z" fill="#000000" fill-rule="nonzero" fill-opacity="1" /><path clip-path="url(#clip310)" d="M1919.46 1469.17 Q1916.13 1469.17 1914.2 1470.95 Q1912.31 1472.73 1912.31 1475.86 Q1912.31 1478.98 1914.2 1480.77 Q1916.13 1482.55 1919.46 1482.55 Q1922.79 1482.55 1924.71 1480.77 Q1926.64 1478.96 1926.64 1475.86 Q1926.64 1472.73 1924.71 1470.95 Q1922.82 1469.17 1919.46 1469.17 M1914.78 1467.18 Q1911.77 1466.44 1910.08 1464.38 Q1908.42 1462.32 1908.42 1459.35 Q1908.42 1455.21 1911.36 1452.8 Q1914.32 1450.39 1919.46 1450.39 Q1924.62 1450.39 1927.56 1452.8 Q1930.5 1455.21 1930.5 1459.35 Q1930.5 1462.32 1928.81 1464.38 Q1927.14 1466.44 1924.16 1467.18 Q1927.54 1467.96 1929.41 1470.26 Q1931.31 1472.55 1931.31 1475.86 Q1931.31 1480.88 1928.23 1483.57 Q1925.18 1486.25 1919.46 1486.25 Q1913.74 1486.25 1910.66 1483.57 Q1907.61 1480.88 1907.61 1475.86 Q1907.61 1472.55 1909.51 1470.26 Q1911.4 1467.96 1914.78 1467.18 M1913.07 1459.79 Q1913.07 1462.48 1914.74 1463.98 Q1916.43 1465.49 1919.46 1465.49 Q1922.47 1465.49 1924.16 1463.98 Q1925.87 1462.48 1925.87 1459.79 Q1925.87 1457.11 1924.16 1455.6 Q1922.47 1454.1 1919.46 1454.1 Q1916.43 1454.1 1914.74 1455.6 Q1913.07 1457.11 1913.07 1459.79 Z" fill="#000000" fill-rule="nonzero" fill-opacity="1" /><path clip-path="url(#clip310)" d="M2327.44 1481.64 L2335.08 1481.64 L2335.08 1455.28 L2326.77 1456.95 L2326.77 1452.69 L2335.04 1451.02 L2339.71 1451.02 L2339.71 1481.64 L2347.35 1481.64 L2347.35 1485.58 L2327.44 1485.58 L2327.44 1481.64 Z" fill="#000000" fill-rule="nonzero" fill-opacity="1" /><path clip-path="url(#clip310)" d="M2366.8 1454.1 Q2363.18 1454.1 2361.36 1457.66 Q2359.55 1461.2 2359.55 1468.33 Q2359.55 1475.44 2361.36 1479.01 Q2363.18 1482.55 2366.8 1482.55 Q2370.43 1482.55 2372.23 1479.01 Q2374.06 1475.44 2374.06 1468.33 Q2374.06 1461.2 2372.23 1457.66 Q2370.43 1454.1 2366.8 1454.1 M2366.8 1450.39 Q2372.61 1450.39 2375.66 1455 Q2378.74 1459.58 2378.74 1468.33 Q2378.74 1477.06 2375.66 1481.67 Q2372.61 1486.25 2366.8 1486.25 Q2360.99 1486.25 2357.91 1481.67 Q2354.85 1477.06 2354.85 1468.33 Q2354.85 1459.58 2357.91 1455 Q2360.99 1450.39 2366.8 1450.39 Z" fill="#000000" fill-rule="nonzero" fill-opacity="1" /><path clip-path="url(#clip310)" d="M1268.58 1522.27 L1268.58 1532.4 L1280.64 1532.4 L1280.64 1536.95 L1268.58 1536.95 L1268.58 1556.3 Q1268.58 1560.66 1269.75 1561.9 Q1270.96 1563.14 1274.62 1563.14 L1280.64 1563.14 L1280.64 1568.04 L1274.62 1568.04 Q1267.84 1568.04 1265.27 1565.53 Q1262.69 1562.98 1262.69 1556.3 L1262.69 1536.95 L1258.39 1536.95 L1258.39 1532.4 L1262.69 1532.4 L1262.69 1522.27 L1268.58 1522.27 Z" fill="#000000" fill-rule="nonzero" fill-opacity="1" /><polyline clip-path="url(#clip312)" style="stroke:#000000; stroke-linecap:round; stroke-linejoin:round; stroke-width:2; stroke-opacity:0.1; fill:none" points="186.274,1384.24 2352.76,1384.24 "/>
<polyline clip-path="url(#clip312)" style="stroke:#000000; stroke-linecap:round; stroke-linejoin:round; stroke-width:2; stroke-opacity:0.1; fill:none" points="186.274,1088.2 2352.76,1088.2 "/>
<polyline clip-path="url(#clip312)" style="stroke:#000000; stroke-linecap:round; stroke-linejoin:round; stroke-width:2; stroke-opacity:0.1; fill:none" points="186.274,792.153 2352.76,792.153 "/>
<polyline clip-path="url(#clip312)" style="stroke:#000000; stroke-linecap:round; stroke-linejoin:round; stroke-width:2; stroke-opacity:0.1; fill:none" points="186.274,496.111 2352.76,496.111 "/>
<polyline clip-path="url(#clip312)" style="stroke:#000000; stroke-linecap:round; stroke-linejoin:round; stroke-width:2; stroke-opacity:0.1; fill:none" points="186.274,200.068 2352.76,200.068 "/>
<polyline clip-path="url(#clip310)" style="stroke:#000000; stroke-linecap:round; stroke-linejoin:round; stroke-width:4; stroke-opacity:1; fill:none" points="186.274,1423.18 186.274,47.2441 "/>
<polyline clip-path="url(#clip310)" style="stroke:#000000; stroke-linecap:round; stroke-linejoin:round; stroke-width:4; stroke-opacity:1; fill:none" points="186.274,1384.24 205.172,1384.24 "/>
<polyline clip-path="url(#clip310)" style="stroke:#000000; stroke-linecap:round; stroke-linejoin:round; stroke-width:4; stroke-opacity:1; fill:none" points="186.274,1088.2 205.172,1088.2 "/>
<polyline clip-path="url(#clip310)" style="stroke:#000000; stroke-linecap:round; stroke-linejoin:round; stroke-width:4; stroke-opacity:1; fill:none" points="186.274,792.153 205.172,792.153 "/>
<polyline clip-path="url(#clip310)" style="stroke:#000000; stroke-linecap:round; stroke-linejoin:round; stroke-width:4; stroke-opacity:1; fill:none" points="186.274,496.111 205.172,496.111 "/>
<polyline clip-path="url(#clip310)" style="stroke:#000000; stroke-linecap:round; stroke-linejoin:round; stroke-width:4; stroke-opacity:1; fill:none" points="186.274,200.068 205.172,200.068 "/>
<path clip-path="url(#clip310)" d="M62.9365 1370.04 Q59.3254 1370.04 57.4967 1373.6 Q55.6912 1377.14 55.6912 1384.27 Q55.6912 1391.38 57.4967 1394.94 Q59.3254 1398.49 62.9365 1398.49 Q66.5707 1398.49 68.3763 1394.94 Q70.205 1391.38 70.205 1384.27 Q70.205 1377.14 68.3763 1373.6 Q66.5707 1370.04 62.9365 1370.04 M62.9365 1366.33 Q68.7467 1366.33 71.8022 1370.94 Q74.8809 1375.52 74.8809 1384.27 Q74.8809 1393 71.8022 1397.61 Q68.7467 1402.19 62.9365 1402.19 Q57.1264 1402.19 54.0477 1397.61 Q50.9921 1393 50.9921 1384.27 Q50.9921 1375.52 54.0477 1370.94 Q57.1264 1366.33 62.9365 1366.33 Z" fill="#000000" fill-rule="nonzero" fill-opacity="1" /><path clip-path="url(#clip310)" d="M83.0984 1395.64 L87.9827 1395.64 L87.9827 1401.52 L83.0984 1401.52 L83.0984 1395.64 Z" fill="#000000" fill-rule="nonzero" fill-opacity="1" /><path clip-path="url(#clip310)" d="M108.168 1370.04 Q104.557 1370.04 102.728 1373.6 Q100.922 1377.14 100.922 1384.27 Q100.922 1391.38 102.728 1394.94 Q104.557 1398.49 108.168 1398.49 Q111.802 1398.49 113.608 1394.94 Q115.436 1391.38 115.436 1384.27 Q115.436 1377.14 113.608 1373.6 Q111.802 1370.04 108.168 1370.04 M108.168 1366.33 Q113.978 1366.33 117.033 1370.94 Q120.112 1375.52 120.112 1384.27 Q120.112 1393 117.033 1397.61 Q113.978 1402.19 108.168 1402.19 Q102.358 1402.19 99.2789 1397.61 Q96.2234 1393 96.2234 1384.27 Q96.2234 1375.52 99.2789 1370.94 Q102.358 1366.33 108.168 1366.33 Z" fill="#000000" fill-rule="nonzero" fill-opacity="1" /><path clip-path="url(#clip310)" d="M138.33 1370.04 Q134.719 1370.04 132.89 1373.6 Q131.084 1377.14 131.084 1384.27 Q131.084 1391.38 132.89 1394.94 Q134.719 1398.49 138.33 1398.49 Q141.964 1398.49 143.769 1394.94 Q145.598 1391.38 145.598 1384.27 Q145.598 1377.14 143.769 1373.6 Q141.964 1370.04 138.33 1370.04 M138.33 1366.33 Q144.14 1366.33 147.195 1370.94 Q150.274 1375.52 150.274 1384.27 Q150.274 1393 147.195 1397.61 Q144.14 1402.19 138.33 1402.19 Q132.519 1402.19 129.441 1397.61 Q126.385 1393 126.385 1384.27 Q126.385 1375.52 129.441 1370.94 Q132.519 1366.33 138.33 1366.33 Z" fill="#000000" fill-rule="nonzero" fill-opacity="1" /><path clip-path="url(#clip310)" d="M63.9319 1073.99 Q60.3208 1073.99 58.4921 1077.56 Q56.6865 1081.1 56.6865 1088.23 Q56.6865 1095.34 58.4921 1098.9 Q60.3208 1102.44 63.9319 1102.44 Q67.5661 1102.44 69.3717 1098.9 Q71.2004 1095.34 71.2004 1088.23 Q71.2004 1081.1 69.3717 1077.56 Q67.5661 1073.99 63.9319 1073.99 M63.9319 1070.29 Q69.742 1070.29 72.7976 1074.9 Q75.8763 1079.48 75.8763 1088.23 Q75.8763 1096.96 72.7976 1101.56 Q69.742 1106.15 63.9319 1106.15 Q58.1217 1106.15 55.043 1101.56 Q51.9875 1096.96 51.9875 1088.23 Q51.9875 1079.48 55.043 1074.9 Q58.1217 1070.29 63.9319 1070.29 Z" fill="#000000" fill-rule="nonzero" fill-opacity="1" /><path clip-path="url(#clip310)" d="M84.0938 1099.6 L88.978 1099.6 L88.978 1105.48 L84.0938 1105.48 L84.0938 1099.6 Z" fill="#000000" fill-rule="nonzero" fill-opacity="1" /><path clip-path="url(#clip310)" d="M103.191 1101.54 L119.51 1101.54 L119.51 1105.48 L97.566 1105.48 L97.566 1101.54 Q100.228 1098.79 104.811 1094.16 Q109.418 1089.5 110.598 1088.16 Q112.844 1085.64 113.723 1083.9 Q114.626 1082.14 114.626 1080.45 Q114.626 1077.7 112.682 1075.96 Q110.76 1074.23 107.658 1074.23 Q105.459 1074.23 103.006 1074.99 Q100.575 1075.75 97.7974 1077.3 L97.7974 1072.58 Q100.621 1071.45 103.075 1070.87 Q105.529 1070.29 107.566 1070.29 Q112.936 1070.29 116.131 1072.98 Q119.325 1075.66 119.325 1080.15 Q119.325 1082.28 118.515 1084.2 Q117.728 1086.1 115.621 1088.69 Q115.043 1089.36 111.941 1092.58 Q108.839 1095.78 103.191 1101.54 Z" fill="#000000" fill-rule="nonzero" fill-opacity="1" /><path clip-path="url(#clip310)" d="M129.371 1070.92 L147.728 1070.92 L147.728 1074.85 L133.654 1074.85 L133.654 1083.32 Q134.672 1082.98 135.691 1082.81 Q136.709 1082.63 137.728 1082.63 Q143.515 1082.63 146.894 1085.8 Q150.274 1088.97 150.274 1094.39 Q150.274 1099.97 146.802 1103.07 Q143.33 1106.15 137.01 1106.15 Q134.834 1106.15 132.566 1105.78 Q130.32 1105.41 127.913 1104.67 L127.913 1099.97 Q129.996 1101.1 132.219 1101.66 Q134.441 1102.21 136.918 1102.21 Q140.922 1102.21 143.26 1100.11 Q145.598 1098 145.598 1094.39 Q145.598 1090.78 143.26 1088.67 Q140.922 1086.56 136.918 1086.56 Q135.043 1086.56 133.168 1086.98 Q131.316 1087.4 129.371 1088.28 L129.371 1070.92 Z" fill="#000000" fill-rule="nonzero" fill-opacity="1" /><path clip-path="url(#clip310)" d="M62.9365 777.952 Q59.3254 777.952 57.4967 781.517 Q55.6912 785.058 55.6912 792.188 Q55.6912 799.294 57.4967 802.859 Q59.3254 806.401 62.9365 806.401 Q66.5707 806.401 68.3763 802.859 Q70.205 799.294 70.205 792.188 Q70.205 785.058 68.3763 781.517 Q66.5707 777.952 62.9365 777.952 M62.9365 774.248 Q68.7467 774.248 71.8022 778.855 Q74.8809 783.438 74.8809 792.188 Q74.8809 800.915 71.8022 805.521 Q68.7467 810.105 62.9365 810.105 Q57.1264 810.105 54.0477 805.521 Q50.9921 800.915 50.9921 792.188 Q50.9921 783.438 54.0477 778.855 Q57.1264 774.248 62.9365 774.248 Z" fill="#000000" fill-rule="nonzero" fill-opacity="1" /><path clip-path="url(#clip310)" d="M83.0984 803.554 L87.9827 803.554 L87.9827 809.433 L83.0984 809.433 L83.0984 803.554 Z" fill="#000000" fill-rule="nonzero" fill-opacity="1" /><path clip-path="url(#clip310)" d="M98.2141 774.873 L116.57 774.873 L116.57 778.808 L102.496 778.808 L102.496 787.281 Q103.515 786.933 104.534 786.771 Q105.552 786.586 106.571 786.586 Q112.358 786.586 115.737 789.758 Q119.117 792.929 119.117 798.345 Q119.117 803.924 115.645 807.026 Q112.172 810.105 105.853 810.105 Q103.677 810.105 101.409 809.734 Q99.1632 809.364 96.7558 808.623 L96.7558 803.924 Q98.8391 805.058 101.061 805.614 Q103.284 806.169 105.76 806.169 Q109.765 806.169 112.103 804.063 Q114.441 801.957 114.441 798.345 Q114.441 794.734 112.103 792.628 Q109.765 790.521 105.76 790.521 Q103.885 790.521 102.01 790.938 Q100.159 791.355 98.2141 792.234 L98.2141 774.873 Z" fill="#000000" fill-rule="nonzero" fill-opacity="1" /><path clip-path="url(#clip310)" d="M138.33 777.952 Q134.719 777.952 132.89 781.517 Q131.084 785.058 131.084 792.188 Q131.084 799.294 132.89 802.859 Q134.719 806.401 138.33 806.401 Q141.964 806.401 143.769 802.859 Q145.598 799.294 145.598 792.188 Q145.598 785.058 143.769 781.517 Q141.964 777.952 138.33 777.952 M138.33 774.248 Q144.14 774.248 147.195 778.855 Q150.274 783.438 150.274 792.188 Q150.274 800.915 147.195 805.521 Q144.14 810.105 138.33 810.105 Q132.519 810.105 129.441 805.521 Q126.385 800.915 126.385 792.188 Q126.385 783.438 129.441 778.855 Q132.519 774.248 138.33 774.248 Z" fill="#000000" fill-rule="nonzero" fill-opacity="1" /><path clip-path="url(#clip310)" d="M63.9319 481.91 Q60.3208 481.91 58.4921 485.474 Q56.6865 489.016 56.6865 496.146 Q56.6865 503.252 58.4921 506.817 Q60.3208 510.358 63.9319 510.358 Q67.5661 510.358 69.3717 506.817 Q71.2004 503.252 71.2004 496.146 Q71.2004 489.016 69.3717 485.474 Q67.5661 481.91 63.9319 481.91 M63.9319 478.206 Q69.742 478.206 72.7976 482.812 Q75.8763 487.396 75.8763 496.146 Q75.8763 504.872 72.7976 509.479 Q69.742 514.062 63.9319 514.062 Q58.1217 514.062 55.043 509.479 Q51.9875 504.872 51.9875 496.146 Q51.9875 487.396 55.043 482.812 Q58.1217 478.206 63.9319 478.206 Z" fill="#000000" fill-rule="nonzero" fill-opacity="1" /><path clip-path="url(#clip310)" d="M84.0938 507.511 L88.978 507.511 L88.978 513.391 L84.0938 513.391 L84.0938 507.511 Z" fill="#000000" fill-rule="nonzero" fill-opacity="1" /><path clip-path="url(#clip310)" d="M97.9826 478.831 L120.205 478.831 L120.205 480.822 L107.658 513.391 L102.774 513.391 L114.58 482.766 L97.9826 482.766 L97.9826 478.831 Z" fill="#000000" fill-rule="nonzero" fill-opacity="1" /><path clip-path="url(#clip310)" d="M129.371 478.831 L147.728 478.831 L147.728 482.766 L133.654 482.766 L133.654 491.238 Q134.672 490.891 135.691 490.729 Q136.709 490.544 137.728 490.544 Q143.515 490.544 146.894 493.715 Q150.274 496.886 150.274 502.303 Q150.274 507.882 146.802 510.983 Q143.33 514.062 137.01 514.062 Q134.834 514.062 132.566 513.692 Q130.32 513.321 127.913 512.581 L127.913 507.882 Q129.996 509.016 132.219 509.571 Q134.441 510.127 136.918 510.127 Q140.922 510.127 143.26 508.021 Q145.598 505.914 145.598 502.303 Q145.598 498.692 143.26 496.585 Q140.922 494.479 136.918 494.479 Q135.043 494.479 133.168 494.896 Q131.316 495.312 129.371 496.192 L129.371 478.831 Z" fill="#000000" fill-rule="nonzero" fill-opacity="1" /><path clip-path="url(#clip310)" d="M53.7467 213.413 L61.3856 213.413 L61.3856 187.048 L53.0754 188.714 L53.0754 184.455 L61.3393 182.788 L66.0152 182.788 L66.0152 213.413 L73.654 213.413 L73.654 217.348 L53.7467 217.348 L53.7467 213.413 Z" fill="#000000" fill-rule="nonzero" fill-opacity="1" /><path clip-path="url(#clip310)" d="M83.0984 211.469 L87.9827 211.469 L87.9827 217.348 L83.0984 217.348 L83.0984 211.469 Z" fill="#000000" fill-rule="nonzero" fill-opacity="1" /><path clip-path="url(#clip310)" d="M108.168 185.867 Q104.557 185.867 102.728 189.432 Q100.922 192.974 100.922 200.103 Q100.922 207.21 102.728 210.774 Q104.557 214.316 108.168 214.316 Q111.802 214.316 113.608 210.774 Q115.436 207.21 115.436 200.103 Q115.436 192.974 113.608 189.432 Q111.802 185.867 108.168 185.867 M108.168 182.163 Q113.978 182.163 117.033 186.77 Q120.112 191.353 120.112 200.103 Q120.112 208.83 117.033 213.436 Q113.978 218.02 108.168 218.02 Q102.358 218.02 99.2789 213.436 Q96.2234 208.83 96.2234 200.103 Q96.2234 191.353 99.2789 186.77 Q102.358 182.163 108.168 182.163 Z" fill="#000000" fill-rule="nonzero" fill-opacity="1" /><path clip-path="url(#clip310)" d="M138.33 185.867 Q134.719 185.867 132.89 189.432 Q131.084 192.974 131.084 200.103 Q131.084 207.21 132.89 210.774 Q134.719 214.316 138.33 214.316 Q141.964 214.316 143.769 210.774 Q145.598 207.21 145.598 200.103 Q145.598 192.974 143.769 189.432 Q141.964 185.867 138.33 185.867 M138.33 182.163 Q144.14 182.163 147.195 186.77 Q150.274 191.353 150.274 200.103 Q150.274 208.83 147.195 213.436 Q144.14 218.02 138.33 218.02 Q132.519 218.02 129.441 213.436 Q126.385 208.83 126.385 200.103 Q126.385 191.353 129.441 186.77 Q132.519 182.163 138.33 182.163 Z" fill="#000000" fill-rule="nonzero" fill-opacity="1" /><polyline clip-path="url(#clip312)" style="stroke:#009af9; stroke-linecap:round; stroke-linejoin:round; stroke-width:32; stroke-opacity:1; fill:none" points="186.274,1384.24 188.443,1384.21 190.611,1384.12 192.78,1383.98 194.949,1383.78 197.117,1383.53 199.286,1383.22 201.455,1382.87 203.623,1382.46 205.792,1382.01 207.961,1381.51 210.129,1380.96 212.298,1380.37 214.466,1379.74 216.635,1379.06 218.804,1378.34 220.972,1377.58 223.141,1376.78 225.31,1375.94 227.478,1375.06 229.647,1374.15 231.816,1373.2 233.984,1372.22 236.153,1371.2 238.322,1370.14 240.49,1369.06 242.659,1367.94 244.828,1366.79 246.996,1365.61 249.165,1364.4 251.334,1363.16 253.502,1361.89 255.671,1360.6 257.839,1359.27 260.008,1357.92 262.177,1356.55 264.345,1355.15 266.514,1353.72 268.683,1352.27 270.851,1350.8 273.02,1349.3 275.189,1347.78 277.357,1346.24 279.526,1344.68 281.695,1343.1 283.863,1341.49 286.032,1339.87 288.201,1338.22 290.369,1336.56 292.538,1334.88 294.707,1333.17 296.875,1331.46 299.044,1329.72 301.212,1327.97 303.381,1326.2 305.55,1324.41 307.718,1322.61 309.887,1320.79 312.056,1318.96 314.224,1317.11 316.393,1315.24 318.562,1313.37 320.73,1311.48 322.899,1309.57 325.068,1307.65 327.236,1305.72 329.405,1303.78 331.574,1301.83 333.742,1299.86 335.911,1297.88 338.08,1295.89 340.248,1293.89 342.417,1291.87 344.585,1289.85 346.754,1287.82 348.923,1285.77 351.091,1283.72 353.26,1281.66 355.429,1279.58 357.597,1277.5 359.766,1275.41 361.935,1273.31 364.103,1271.2 366.272,1269.09 368.441,1266.96 370.609,1264.83 372.778,1262.69 374.947,1260.54 377.115,1258.39 379.284,1256.23 381.453,1254.06 383.621,1251.89 385.79,1249.7 387.959,1247.52 390.127,1245.32 392.296,1243.12 394.464,1240.92 396.633,1238.71 398.802,1236.49 400.97,1234.27 403.139,1232.04 405.308,1229.81 407.476,1227.58 409.645,1225.33 411.814,1223.09 413.982,1220.84 416.151,1218.58 418.32,1216.33 420.488,1214.06 422.657,1211.8 424.826,1209.53 426.994,1207.26 429.163,1204.98 431.332,1202.7 433.5,1200.42 435.669,1198.13 437.837,1195.84 440.006,1193.55 442.175,1191.26 444.343,1188.96 446.512,1186.66 448.681,1184.36 450.849,1182.05 453.018,1179.75 455.187,1177.44 457.355,1175.13 459.524,1172.82 461.693,1170.5 463.861,1168.19 466.03,1165.87 468.199,1163.56 470.367,1161.24 472.536,1158.92 474.705,1156.59 476.873,1154.27 479.042,1151.95 481.21,1149.62 483.379,1147.3 485.548,1144.97 487.716,1142.64 489.885,1140.32 492.054,1137.99 494.222,1135.66 496.391,1133.33 498.56,1131 500.728,1128.68 502.897,1126.35 505.066,1124.02 507.234,1121.69 509.403,1119.36 511.572,1117.03 513.74,1114.7 515.909,1112.37 518.078,1110.05 520.246,1107.72 522.415,1105.39 524.583,1103.06 526.752,1100.74 528.921,1098.41 531.089,1096.09 533.258,1093.77 535.427,1091.44 537.595,1089.12 539.764,1086.8 541.933,1084.48 544.101,1082.16 546.27,1079.85 548.439,1077.53 550.607,1075.21 552.776,1072.9 554.945,1070.59 557.113,1068.28 559.282,1065.97 561.451,1063.66 563.619,1061.35 565.788,1059.05 567.956,1056.75 570.125,1054.44 572.294,1052.14 574.462,1049.85 576.631,1047.55 578.8,1045.26 580.968,1042.96 583.137,1040.67 585.306,1038.38 587.474,1036.1 589.643,1033.81 591.812,1031.53 593.98,1029.25 596.149,1026.97 598.318,1024.7 600.486,1022.42 602.655,1020.15 604.824,1017.88 606.992,1015.61 609.161,1013.35 611.33,1011.09 613.498,1008.83 615.667,1006.57 617.835,1004.32 620.004,1002.06 622.173,999.815 624.341,997.568 626.51,995.324 628.679,993.082 630.847,990.843 633.016,988.607 635.185,986.374 637.353,984.143 639.522,981.915 641.691,979.69 643.859,977.468 646.028,975.248 648.197,973.032 650.365,970.818 652.534,968.608 654.703,966.4 656.871,964.196 659.04,961.995 661.208,959.796 663.377,957.601 665.546,955.409 667.714,953.22 669.883,951.034 672.052,948.851 674.22,946.672 676.389,944.495 678.558,942.322 680.726,940.153 682.895,937.986 685.064,935.823 687.232,933.663 689.401,931.506 691.57,929.353 693.738,927.203 695.907,925.057 698.076,922.914 700.244,920.774 702.413,918.638 704.581,916.505 706.75,914.375 708.919,912.25 711.087,910.127 713.256,908.008 715.425,905.893 717.593,903.781 719.762,901.673 721.931,899.568 724.099,897.467 726.268,895.37 728.437,893.276 730.605,891.186 732.774,889.099 734.943,887.017 737.111,884.937 739.28,882.862 741.449,880.79 743.617,878.722 745.786,876.658 747.954,874.597 750.123,872.54 752.292,870.487 754.46,868.438 756.629,866.392 758.798,864.351 760.966,862.313 763.135,860.279 765.304,858.249 767.472,856.222 769.641,854.2 771.81,852.181 773.978,850.166 776.147,848.156 778.316,846.149 780.484,844.146 782.653,842.147 784.822,840.151 786.99,838.16 789.159,836.173 791.328,834.19 793.496,832.21 795.665,830.235 797.833,828.263 800.002,826.296 802.171,824.333 804.339,822.373 806.508,820.418 808.677,818.466 810.845,816.519 813.014,814.576 815.183,812.636 817.351,810.701 819.52,808.77 821.689,806.843 823.857,804.919 826.026,803 828.195,801.085 830.363,799.174 832.532,797.267 834.701,795.364 836.869,793.466 839.038,791.571 841.206,789.68 843.375,787.794 845.544,785.911 847.712,784.033 849.881,782.159 852.05,780.289 854.218,778.423 856.387,776.561 858.556,774.703 860.724,772.849 862.893,771 865.062,769.154 867.23,767.313 869.399,765.476 871.568,763.643 873.736,761.814 875.905,759.989 878.074,758.169 880.242,756.352 882.411,754.54 884.579,752.732 886.748,750.928 888.917,749.128 891.085,747.332 893.254,745.541 895.423,743.754 897.591,741.97 899.76,740.192 901.929,738.417 904.097,736.646 906.266,734.88 908.435,733.118 910.603,731.359 912.772,729.606 914.941,727.856 917.109,726.111 919.278,724.369 921.447,722.632 923.615,720.899 925.784,719.171 927.952,717.446 930.121,715.726 932.29,714.01 934.458,712.298 936.627,710.59 938.796,708.887 940.964,707.187 943.133,705.492 945.302,703.801 947.47,702.115 949.639,700.432 951.808,698.754 953.976,697.08 956.145,695.41 958.314,693.744 960.482,692.083 962.651,690.425 964.82,688.772 966.988,687.123 969.157,685.478 971.326,683.838 973.494,682.201 975.663,680.569 977.831,678.941 980,677.317 982.169,675.697 984.337,674.081 986.506,672.47 988.675,670.863 990.843,669.259 993.012,667.66 995.181,666.066 997.349,664.475 999.518,662.888 1001.69,661.306 1003.86,659.727 1006.02,658.153 1008.19,656.583 1010.36,655.017 1012.53,653.456 1014.7,651.898 1016.87,650.345 1019.04,648.795 1021.2,647.25 1023.37,645.709 1025.54,644.172 1027.71,642.639 1029.88,641.11 1032.05,639.585 1034.22,638.064 1036.39,636.548 1038.55,635.035 1040.72,633.527 1042.89,632.023 1045.06,630.523 1047.23,629.027 1049.4,627.535 1051.57,626.047 1053.73,624.563 1055.9,623.083 1058.07,621.607 1060.24,620.135 1062.41,618.668 1064.58,617.204 1066.75,615.745 1068.91,614.289 1071.08,612.838 1073.25,611.39 1075.42,609.947 1077.59,608.508 1079.76,607.073 1081.93,605.641 1084.1,604.214 1086.26,602.791 1088.43,601.372 1090.6,599.957 1092.77,598.545 1094.94,597.138 1097.11,595.735 1099.28,594.336 1101.44,592.941 1103.61,591.55 1105.78,590.162 1107.95,588.779 1110.12,587.4 1112.29,586.025 1114.46,584.654 1116.63,583.286 1118.79,581.923 1120.96,580.564 1123.13,579.208 1125.3,577.857 1127.47,576.509 1129.64,575.165 1131.81,573.826 1133.97,572.49 1136.14,571.158 1138.31,569.83 1140.48,568.506 1142.65,567.186 1144.82,565.869 1146.99,564.557 1149.15,563.248 1151.32,561.943 1153.49,560.643 1155.66,559.345 1157.83,558.052 1160,556.763 1162.17,555.477 1164.34,554.196 1166.5,552.918 1168.67,551.644 1170.84,550.373 1173.01,549.107 1175.18,547.844 1177.35,546.585 1179.52,545.33 1181.68,544.079 1183.85,542.831 1186.02,541.587 1188.19,540.347 1190.36,539.111 1192.53,537.878 1194.7,536.649 1196.87,535.424 1199.03,534.203 1201.2,532.985 1203.37,531.771 1205.54,530.561 1207.71,529.354 1209.88,528.151 1212.05,526.952 1214.21,525.757 1216.38,524.565 1218.55,523.377 1220.72,522.192 1222.89,521.011 1225.06,519.834 1227.23,518.66 1229.39,517.49 1231.56,516.324 1233.73,515.161 1235.9,514.002 1238.07,512.847 1240.24,511.695 1242.41,510.546 1244.58,509.402 1246.74,508.261 1248.91,507.123 1251.08,505.989 1253.25,504.859 1255.42,503.732 1257.59,502.609 1259.76,501.489 1261.92,500.373 1264.09,499.26 1266.26,498.151 1268.43,497.045 1270.6,495.943 1272.77,494.845 1274.94,493.75 1277.11,492.658 1279.27,491.57 1281.44,490.485 1283.61,489.404 1285.78,488.326 1287.95,487.252 1290.12,486.182 1292.29,485.114 1294.45,484.051 1296.62,482.99 1298.79,481.933 1300.96,480.88 1303.13,479.83 1305.3,478.783 1307.47,477.74 1309.63,476.7 1311.8,475.663 1313.97,474.63 1316.14,473.601 1318.31,472.574 1320.48,471.551 1322.65,470.531 1324.82,469.515 1326.98,468.502 1329.15,467.492 1331.32,466.486 1333.49,465.483 1335.66,464.483 1337.83,463.487 1340,462.494 1342.16,461.504 1344.33,460.517 1346.5,459.534 1348.67,458.554 1350.84,457.577 1353.01,456.603 1355.18,455.633 1357.35,454.665 1359.51,453.701 1361.68,452.74 1363.85,451.783 1366.02,450.828 1368.19,449.877 1370.36,448.929 1372.53,447.984 1374.69,447.042 1376.86,446.104 1379.03,445.168 1381.2,444.236 1383.37,443.307 1385.54,442.381 1387.71,441.458 1389.88,440.538 1392.04,439.621 1394.21,438.707 1396.38,437.797 1398.55,436.889 1400.72,435.985 1402.89,435.083 1405.06,434.185 1407.22,433.29 1409.39,432.397 1411.56,431.508 1413.73,430.622 1415.9,429.739 1418.07,428.858 1420.24,427.981 1422.4,427.107 1424.57,426.236 1426.74,425.367 1428.91,424.502 1431.08,423.64 1433.25,422.78 1435.42,421.924 1437.59,421.07 1439.75,420.22 1441.92,419.372 1444.09,418.527 1446.26,417.686 1448.43,416.847 1450.6,416.011 1452.77,415.178 1454.93,414.347 1457.1,413.52 1459.27,412.695 1461.44,411.874 1463.61,411.055 1465.78,410.239 1467.95,409.426 1470.12,408.616 1472.28,407.809 1474.45,407.004 1476.62,406.202 1478.79,405.403 1480.96,404.607 1483.13,403.814 1485.3,403.023 1487.46,402.235 1489.63,401.45 1491.8,400.668 1493.97,399.889 1496.14,399.112 1498.31,398.338 1500.48,397.567 1502.64,396.798 1504.81,396.032 1506.98,395.269 1509.15,394.509 1511.32,393.751 1513.49,392.996 1515.66,392.244 1517.83,391.495 1519.99,390.748 1522.16,390.003 1524.33,389.262 1526.5,388.523 1528.67,387.786 1530.84,387.053 1533.01,386.322 1535.17,385.593 1537.34,384.867 1539.51,384.144 1541.68,383.423 1543.85,382.705 1546.02,381.989 1548.19,381.276 1550.36,380.566 1552.52,379.858 1554.69,379.153 1556.86,378.45 1559.03,377.75 1561.2,377.052 1563.37,376.357 1565.54,375.664 1567.7,374.974 1569.87,374.286 1572.04,373.6 1574.21,372.918 1576.38,372.237 1578.55,371.559 1580.72,370.884 1582.88,370.211 1585.05,369.54 1587.22,368.872 1589.39,368.206 1591.56,367.543 1593.73,366.882 1595.9,366.224 1598.07,365.568 1600.23,364.914 1602.4,364.262 1604.57,363.613 1606.74,362.967 1608.91,362.322 1611.08,361.681 1613.25,361.041 1615.41,360.404 1617.58,359.769 1619.75,359.136 1621.92,358.506 1624.09,357.878 1626.26,357.252 1628.43,356.629 1630.6,356.008 1632.76,355.389 1634.93,354.772 1637.1,354.158 1639.27,353.546 1641.44,352.936 1643.61,352.329 1645.78,351.723 1647.94,351.12 1650.11,350.519 1652.28,349.921 1654.45,349.324 1656.62,348.73 1658.79,348.138 1660.96,347.548 1663.13,346.961 1665.29,346.375 1667.46,345.792 1669.63,345.211 1671.8,344.632 1673.97,344.055 1676.14,343.481 1678.31,342.908 1680.47,342.338 1682.64,341.769 1684.81,341.203 1686.98,340.639 1689.15,340.077 1691.32,339.518 1693.49,338.96 1695.65,338.404 1697.82,337.851 1699.99,337.299 1702.16,336.75 1704.33,336.203 1706.5,335.658 1708.67,335.114 1710.84,334.573 1713,334.034 1715.17,333.497 1717.34,332.962 1719.51,332.429 1721.68,331.898 1723.85,331.369 1726.02,330.842 1728.18,330.317 1730.35,329.794 1732.52,329.273 1734.69,328.754 1736.86,328.237 1739.03,327.722 1741.2,327.209 1743.37,326.698 1745.53,326.188 1747.7,325.681 1749.87,325.175 1752.04,324.672 1754.21,324.17 1756.38,323.671 1758.55,323.173 1760.71,322.677 1762.88,322.183 1765.05,321.691 1767.22,321.2 1769.39,320.712 1771.56,320.226 1773.73,319.741 1775.89,319.258 1778.06,318.777 1780.23,318.298 1782.4,317.82 1784.57,317.345 1786.74,316.871 1788.91,316.399 1791.08,315.929 1793.24,315.461 1795.41,314.994 1797.58,314.53 1799.75,314.067 1801.92,313.605 1804.09,313.146 1806.26,312.688 1808.42,312.232 1810.59,311.778 1812.76,311.326 1814.93,310.875 1817.1,310.426 1819.27,309.979 1821.44,309.533 1823.61,309.09 1825.77,308.647 1827.94,308.207 1830.11,307.768 1832.28,307.331 1834.45,306.896 1836.62,306.462 1838.79,306.03 1840.95,305.6 1843.12,305.171 1845.29,304.744 1847.46,304.319 1849.63,303.895 1851.8,303.473 1853.97,303.053 1856.13,302.634 1858.3,302.217 1860.47,301.801 1862.64,301.387 1864.81,300.975 1866.98,300.564 1869.15,300.155 1871.32,299.747 1873.48,299.341 1875.65,298.937 1877.82,298.534 1879.99,298.132 1882.16,297.733 1884.33,297.335 1886.5,296.938 1888.66,296.543 1890.83,296.149 1893,295.757 1895.17,295.367 1897.34,294.978 1899.51,294.59 1901.68,294.204 1903.85,293.82 1906.01,293.437 1908.18,293.056 1910.35,292.676 1912.52,292.297 1914.69,291.92 1916.86,291.545 1919.03,291.171 1921.19,290.798 1923.36,290.427 1925.53,290.058 1927.7,289.69 1929.87,289.323 1932.04,288.958 1934.21,288.594 1936.37,288.231 1938.54,287.87 1940.71,287.511 1942.88,287.153 1945.05,286.796 1947.22,286.441 1949.39,286.087 1951.56,285.735 1953.72,285.383 1955.89,285.034 1958.06,284.685 1960.23,284.338 1962.4,283.993 1964.57,283.649 1966.74,283.306 1968.9,282.964 1971.07,282.624 1973.24,282.285 1975.41,281.948 1977.58,281.612 1979.75,281.277 1981.92,280.943 1984.09,280.611 1986.25,280.28 1988.42,279.951 1990.59,279.623 1992.76,279.296 1994.93,278.97 1997.1,278.646 1999.27,278.323 2001.43,278.001 2003.6,277.68 2005.77,277.361 2007.94,277.043 2010.11,276.727 2012.28,276.411 2014.45,276.097 2016.62,275.784 2018.78,275.472 2020.95,275.162 2023.12,274.853 2025.29,274.545 2027.46,274.238 2029.63,273.932 2031.8,273.628 2033.96,273.325 2036.13,273.023 2038.3,272.722 2040.47,272.423 2042.64,272.124 2044.81,271.827 2046.98,271.531 2049.14,271.236 2051.31,270.943 2053.48,270.65 2055.65,270.359 2057.82,270.069 2059.99,269.78 2062.16,269.492 2064.33,269.206 2066.49,268.92 2068.66,268.636 2070.83,268.353 2073,268.071 2075.17,267.79 2077.34,267.51 2079.51,267.231 2081.67,266.953 2083.84,266.677 2086.01,266.402 2088.18,266.127 2090.35,265.854 2092.52,265.582 2094.69,265.311 2096.86,265.041 2099.02,264.772 2101.19,264.505 2103.36,264.238 2105.53,263.972 2107.7,263.708 2109.87,263.444 2112.04,263.182 2114.2,262.92 2116.37,262.66 2118.54,262.401 2120.71,262.143 2122.88,261.885 2125.05,261.629 2127.22,261.374 2129.38,261.12 2131.55,260.867 2133.72,260.615 2135.89,260.364 2138.06,260.114 2140.23,259.865 2142.4,259.617 2144.57,259.37 2146.73,259.124 2148.9,258.879 2151.07,258.635 2153.24,258.392 2155.41,258.15 2157.58,257.909 2159.75,257.669 2161.91,257.43 2164.08,257.192 2166.25,256.955 2168.42,256.718 2170.59,256.483 2172.76,256.249 2174.93,256.015 2177.1,255.783 2179.26,255.552 2181.43,255.321 2183.6,255.092 2185.77,254.863 2187.94,254.635 2190.11,254.408 2192.28,254.183 2194.44,253.958 2196.61,253.734 2198.78,253.51 2200.95,253.288 2203.12,253.067 2205.29,252.847 2207.46,252.627 2209.62,252.408 2211.79,252.191 2213.96,251.974 2216.13,251.758 2218.3,251.543 2220.47,251.328 2222.64,251.115 2224.81,250.903 2226.97,250.691 2229.14,250.48 2231.31,250.27 2233.48,250.061 2235.65,249.853 2237.82,249.646 2239.99,249.439 2242.15,249.234 2244.32,249.029 2246.49,248.825 2248.66,248.622 2250.83,248.419 2253,248.218 2255.17,248.017 2257.34,247.817 2259.5,247.618 2261.67,247.42 2263.84,247.223 2266.01,247.026 2268.18,246.83 2270.35,246.635 2272.52,246.441 2274.68,246.247 2276.85,246.055 2279.02,245.863 2281.19,245.672 2283.36,245.482 2285.53,245.292 2287.7,245.103 2289.87,244.915 2292.03,244.728 2294.2,244.542 2296.37,244.356 2298.54,244.171 2300.71,243.987 2302.88,243.804 2305.05,243.621 2307.21,243.439 2309.38,243.258 2311.55,243.078 2313.72,242.898 2315.89,242.719 2318.06,242.541 2320.23,242.363 2322.39,242.187 2324.56,242.011 2326.73,241.835 2328.9,241.661 2331.07,241.487 2333.24,241.314 2335.41,241.141 2337.58,240.97 2339.74,240.799 2341.91,240.628 2344.08,240.459 2346.25,240.29 2348.42,240.122 2350.59,239.954 2352.76,239.787 "/>
<circle clip-path="url(#clip312)" cx="402.922" cy="1216.84" r="21.6" fill="#0000ff" fill-rule="evenodd" fill-opacity="1" stroke="#000000" stroke-opacity="1" stroke-width="3.2"/>
<circle clip-path="url(#clip312)" cx="619.57" cy="996.14" r="21.6" fill="#0000ff" fill-rule="evenodd" fill-opacity="1" stroke="#000000" stroke-opacity="1" stroke-width="3.2"/>
<circle clip-path="url(#clip312)" cx="836.219" cy="724.133" r="21.6" fill="#0000ff" fill-rule="evenodd" fill-opacity="1" stroke="#000000" stroke-opacity="1" stroke-width="3.2"/>
<circle clip-path="url(#clip312)" cx="1052.87" cy="479.048" r="21.6" fill="#0000ff" fill-rule="evenodd" fill-opacity="1" stroke="#000000" stroke-opacity="1" stroke-width="3.2"/>
<circle clip-path="url(#clip312)" cx="1269.51" cy="656.002" r="21.6" fill="#0000ff" fill-rule="evenodd" fill-opacity="1" stroke="#000000" stroke-opacity="1" stroke-width="3.2"/>
<circle clip-path="url(#clip312)" cx="1486.16" cy="291.296" r="21.6" fill="#0000ff" fill-rule="evenodd" fill-opacity="1" stroke="#000000" stroke-opacity="1" stroke-width="3.2"/>
<circle clip-path="url(#clip312)" cx="1702.81" cy="217.591" r="21.6" fill="#0000ff" fill-rule="evenodd" fill-opacity="1" stroke="#000000" stroke-opacity="1" stroke-width="3.2"/>
<circle clip-path="url(#clip312)" cx="1919.46" cy="226.131" r="21.6" fill="#0000ff" fill-rule="evenodd" fill-opacity="1" stroke="#000000" stroke-opacity="1" stroke-width="3.2"/>
<circle clip-path="url(#clip312)" cx="2136.11" cy="449.562" r="21.6" fill="#0000ff" fill-rule="evenodd" fill-opacity="1" stroke="#000000" stroke-opacity="1" stroke-width="3.2"/>
<circle clip-path="url(#clip312)" cx="2352.76" cy="86.1857" r="21.6" fill="#0000ff" fill-rule="evenodd" fill-opacity="1" stroke="#000000" stroke-opacity="1" stroke-width="3.2"/>
<polyline clip-path="url(#clip312)" style="stroke:#add8e6; stroke-linecap:round; stroke-linejoin:round; stroke-width:24; stroke-opacity:1; fill:none" stroke-dasharray="96, 60" points="186.274,1384.24 188.443,1384.21 190.611,1384.12 192.78,1383.98 194.949,1383.79 197.117,1383.54 199.286,1383.24 201.455,1382.89 203.623,1382.48 205.792,1382.03 207.961,1381.53 210.129,1380.98 212.298,1380.39 214.466,1379.75 216.635,1379.07 218.804,1378.34 220.972,1377.57 223.141,1376.75 225.31,1375.9 227.478,1375 229.647,1374.07 231.816,1373.1 233.984,1372.08 236.153,1371.04 238.322,1369.95 240.49,1368.83 242.659,1367.67 244.828,1366.48 246.996,1365.26 249.165,1364 251.334,1362.71 253.502,1361.39 255.671,1360.03 257.839,1358.65 260.008,1357.24 262.177,1355.79 264.345,1354.32 266.514,1352.82 268.683,1351.3 270.851,1349.74 273.02,1348.16 275.189,1346.55 277.357,1344.92 279.526,1343.26 281.695,1341.58 283.863,1339.88 286.032,1338.15 288.201,1336.4 290.369,1334.63 292.538,1332.83 294.707,1331.01 296.875,1329.18 299.044,1327.32 301.212,1325.44 303.381,1323.54 305.55,1321.62 307.718,1319.69 309.887,1317.73 312.056,1315.76 314.224,1313.77 316.393,1311.76 318.562,1309.74 320.73,1307.7 322.899,1305.64 325.068,1303.57 327.236,1301.48 329.405,1299.38 331.574,1297.26 333.742,1295.13 335.911,1292.98 338.08,1290.82 340.248,1288.65 342.417,1286.46 344.585,1284.26 346.754,1282.05 348.923,1279.83 351.091,1277.59 353.26,1275.34 355.429,1273.08 357.597,1270.82 359.766,1268.53 361.935,1266.24 364.103,1263.94 366.272,1261.63 368.441,1259.31 370.609,1256.98 372.778,1254.64 374.947,1252.29 377.115,1249.94 379.284,1247.57 381.453,1245.2 383.621,1242.82 385.79,1240.43 387.959,1238.03 390.127,1235.63 392.296,1233.22 394.464,1230.8 396.633,1228.37 398.802,1225.94 400.97,1223.5 403.139,1221.06 405.308,1218.61 407.476,1216.16 409.645,1213.7 411.814,1211.23 413.982,1208.76 416.151,1206.28 418.32,1203.8 420.488,1201.32 422.657,1198.82 424.826,1196.33 426.994,1193.83 429.163,1191.33 431.332,1188.82 433.5,1186.31 435.669,1183.8 437.837,1181.28 440.006,1178.76 442.175,1176.24 444.343,1173.71 446.512,1171.18 448.681,1168.65 450.849,1166.12 453.018,1163.58 455.187,1161.04 457.355,1158.5 459.524,1155.96 461.693,1153.42 463.861,1150.87 466.03,1148.32 468.199,1145.78 470.367,1143.23 472.536,1140.67 474.705,1138.12 476.873,1135.57 479.042,1133.01 481.21,1130.46 483.379,1127.9 485.548,1125.35 487.716,1122.79 489.885,1120.23 492.054,1117.67 494.222,1115.12 496.391,1112.56 498.56,1110 500.728,1107.44 502.897,1104.89 505.066,1102.33 507.234,1099.77 509.403,1097.22 511.572,1094.66 513.74,1092.11 515.909,1089.55 518.078,1087 520.246,1084.45 522.415,1081.9 524.583,1079.35 526.752,1076.8 528.921,1074.25 531.089,1071.7 533.258,1069.16 535.427,1066.61 537.595,1064.07 539.764,1061.53 541.933,1058.99 544.101,1056.46 546.27,1053.92 548.439,1051.39 550.607,1048.86 552.776,1046.33 554.945,1043.8 557.113,1041.28 559.282,1038.75 561.451,1036.23 563.619,1033.71 565.788,1031.2 567.956,1028.68 570.125,1026.17 572.294,1023.66 574.462,1021.16 576.631,1018.66 578.8,1016.16 580.968,1013.66 583.137,1011.16 585.306,1008.67 587.474,1006.18 589.643,1003.69 591.812,1001.21 593.98,998.731 596.149,996.254 598.318,993.78 600.486,991.309 602.655,988.841 604.824,986.377 606.992,983.916 609.161,981.458 611.33,979.003 613.498,976.552 615.667,974.105 617.835,971.66 620.004,969.22 622.173,966.783 624.341,964.349 626.51,961.92 628.679,959.494 630.847,957.071 633.016,954.653 635.185,952.238 637.353,949.827 639.522,947.42 641.691,945.017 643.859,942.617 646.028,940.222 648.197,937.831 650.365,935.443 652.534,933.06 654.703,930.681 656.871,928.306 659.04,925.935 661.208,923.568 663.377,921.205 665.546,918.847 667.714,916.493 669.883,914.143 672.052,911.797 674.22,909.456 676.389,907.119 678.558,904.786 680.726,902.458 682.895,900.134 685.064,897.814 687.232,895.499 689.401,893.188 691.57,890.882 693.738,888.581 695.907,886.283 698.076,883.991 700.244,881.703 702.413,879.419 704.581,877.14 706.75,874.865 708.919,872.596 711.087,870.33 713.256,868.07 715.425,865.814 717.593,863.563 719.762,861.316 721.931,859.074 724.099,856.837 726.268,854.604 728.437,852.377 730.605,850.154 732.774,847.936 734.943,845.722 737.111,843.514 739.28,841.31 741.449,839.111 743.617,836.917 745.786,834.727 747.954,832.543 750.123,830.364 752.292,828.189 754.46,826.019 756.629,823.854 758.798,821.694 760.966,819.539 763.135,817.389 765.304,815.244 767.472,813.104 769.641,810.969 771.81,808.839 773.978,806.713 776.147,804.593 778.316,802.478 780.484,800.368 782.653,798.262 784.822,796.162 786.99,794.067 789.159,791.977 791.328,789.892 793.496,787.812 795.665,785.737 797.833,783.667 800.002,781.603 802.171,779.543 804.339,777.488 806.508,775.439 808.677,773.394 810.845,771.355 813.014,769.32 815.183,767.291 817.351,765.267 819.52,763.248 821.689,761.234 823.857,759.225 826.026,757.222 828.195,755.223 830.363,753.229 832.532,751.241 834.701,749.258 836.869,747.279 839.038,745.306 841.206,743.338 843.375,741.375 845.544,739.418 847.712,737.465 849.881,735.517 852.05,733.575 854.218,731.637 856.387,729.705 858.556,727.778 860.724,725.856 862.893,723.939 865.062,722.027 867.23,720.121 869.399,718.219 871.568,716.323 873.736,714.431 875.905,712.545 878.074,710.664 880.242,708.788 882.411,706.917 884.579,705.051 886.748,703.19 888.917,701.335 891.085,699.484 893.254,697.639 895.423,695.799 897.591,693.963 899.76,692.133 901.929,690.308 904.097,688.489 906.266,686.674 908.435,684.864 910.603,683.059 912.772,681.26 914.941,679.466 917.109,677.676 919.278,675.892 921.447,674.113 923.615,672.339 925.784,670.57 927.952,668.806 930.121,667.047 932.29,665.293 934.458,663.545 936.627,661.801 938.796,660.062 940.964,658.329 943.133,656.6 945.302,654.877 947.47,653.159 949.639,651.445 951.808,649.737 953.976,648.034 956.145,646.335 958.314,644.642 960.482,642.954 962.651,641.271 964.82,639.593 966.988,637.919 969.157,636.251 971.326,634.588 973.494,632.93 975.663,631.276 977.831,629.628 980,627.985 982.169,626.346 984.337,624.713 986.506,623.084 988.675,621.46 990.843,619.842 993.012,618.228 995.181,616.619 997.349,615.015 999.518,613.415 1001.69,611.821 1003.86,610.232 1006.02,608.647 1008.19,607.068 1010.36,605.493 1012.53,603.923 1014.7,602.358 1016.87,600.797 1019.04,599.242 1021.2,597.691 1023.37,596.145 1025.54,594.604 1027.71,593.068 1029.88,591.537 1032.05,590.01 1034.22,588.488 1036.39,586.971 1038.55,585.459 1040.72,583.951 1042.89,582.448 1045.06,580.95 1047.23,579.457 1049.4,577.968 1051.57,576.485 1053.73,575.005 1055.9,573.531 1058.07,572.061 1060.24,570.596 1062.41,569.136 1064.58,567.68 1066.75,566.229 1068.91,564.783 1071.08,563.341 1073.25,561.904 1075.42,560.471 1077.59,559.044 1079.76,557.62 1081.93,556.202 1084.1,554.788 1086.26,553.379 1088.43,551.974 1090.6,550.574 1092.77,549.178 1094.94,547.787 1097.11,546.401 1099.28,545.019 1101.44,543.642 1103.61,542.269 1105.78,540.901 1107.95,539.537 1110.12,538.178 1112.29,536.823 1114.46,535.473 1116.63,534.128 1118.79,532.786 1120.96,531.45 1123.13,530.118 1125.3,528.79 1127.47,527.467 1129.64,526.148 1131.81,524.834 1133.97,523.524 1136.14,522.218 1138.31,520.917 1140.48,519.62 1142.65,518.328 1144.82,517.04 1146.99,515.757 1149.15,514.477 1151.32,513.202 1153.49,511.932 1155.66,510.666 1157.83,509.404 1160,508.146 1162.17,506.893 1164.34,505.644 1166.5,504.399 1168.67,503.159 1170.84,501.922 1173.01,500.69 1175.18,499.463 1177.35,498.239 1179.52,497.02 1181.68,495.805 1183.85,494.594 1186.02,493.387 1188.19,492.184 1190.36,490.986 1192.53,489.792 1194.7,488.601 1196.87,487.416 1199.03,486.234 1201.2,485.056 1203.37,483.882 1205.54,482.713 1207.71,481.547 1209.88,480.386 1212.05,479.229 1214.21,478.075 1216.38,476.926 1218.55,475.781 1220.72,474.64 1222.89,473.503 1225.06,472.37 1227.23,471.241 1229.39,470.116 1231.56,468.994 1233.73,467.877 1235.9,466.764 1238.07,465.655 1240.24,464.55 1242.41,463.448 1244.58,462.351 1246.74,461.257 1248.91,460.168 1251.08,459.082 1253.25,458 1255.42,456.922 1257.59,455.848 1259.76,454.778 1261.92,453.712 1264.09,452.649 1266.26,451.59 1268.43,450.536 1270.6,449.485 1272.77,448.437 1274.94,447.394 1277.11,446.354 1279.27,445.319 1281.44,444.286 1283.61,443.258 1285.78,442.234 1287.95,441.213 1290.12,440.196 1292.29,439.182 1294.45,438.173 1296.62,437.167 1298.79,436.164 1300.96,435.166 1303.13,434.171 1305.3,433.18 1307.47,432.192 1309.63,431.209 1311.8,430.228 1313.97,429.252 1316.14,428.279 1318.31,427.31 1320.48,426.344 1322.65,425.382 1324.82,424.423 1326.98,423.468 1329.15,422.517 1331.32,421.569 1333.49,420.625 1335.66,419.684 1337.83,418.747 1340,417.813 1342.16,416.883 1344.33,415.956 1346.5,415.033 1348.67,414.113 1350.84,413.197 1353.01,412.284 1355.18,411.375 1357.35,410.469 1359.51,409.566 1361.68,408.667 1363.85,407.771 1366.02,406.879 1368.19,405.99 1370.36,405.104 1372.53,404.222 1374.69,403.343 1376.86,402.467 1379.03,401.595 1381.2,400.726 1383.37,399.86 1385.54,398.998 1387.71,398.139 1389.88,397.283 1392.04,396.43 1394.21,395.581 1396.38,394.735 1398.55,393.892 1400.72,393.053 1402.89,392.216 1405.06,391.383 1407.22,390.553 1409.39,389.727 1411.56,388.903 1413.73,388.082 1415.9,387.265 1418.07,386.451 1420.24,385.64 1422.4,384.832 1424.57,384.027 1426.74,383.226 1428.91,382.427 1431.08,381.632 1433.25,380.84 1435.42,380.05 1437.59,379.264 1439.75,378.481 1441.92,377.701 1444.09,376.924 1446.26,376.15 1448.43,375.379 1450.6,374.611 1452.77,373.846 1454.93,373.083 1457.1,372.324 1459.27,371.568 1461.44,370.815 1463.61,370.065 1465.78,369.318 1467.95,368.574 1470.12,367.832 1472.28,367.094 1474.45,366.358 1476.62,365.626 1478.79,364.896 1480.96,364.169 1483.13,363.445 1485.3,362.724 1487.46,362.006 1489.63,361.29 1491.8,360.578 1493.97,359.868 1496.14,359.161 1498.31,358.457 1500.48,357.756 1502.64,357.057 1504.81,356.362 1506.98,355.669 1509.15,354.979 1511.32,354.291 1513.49,353.607 1515.66,352.925 1517.83,352.246 1519.99,351.57 1522.16,350.896 1524.33,350.225 1526.5,349.557 1528.67,348.891 1530.84,348.229 1533.01,347.569 1535.17,346.911 1537.34,346.256 1539.51,345.604 1541.68,344.955 1543.85,344.308 1546.02,343.664 1548.19,343.022 1550.36,342.383 1552.52,341.747 1554.69,341.113 1556.86,340.482 1559.03,339.854 1561.2,339.228 1563.37,338.604 1565.54,337.983 1567.7,337.365 1569.87,336.749 1572.04,336.136 1574.21,335.525 1576.38,334.916 1578.55,334.311 1580.72,333.707 1582.88,333.106 1585.05,332.508 1587.22,331.912 1589.39,331.318 1591.56,330.727 1593.73,330.139 1595.9,329.552 1598.07,328.969 1600.23,328.387 1602.4,327.808 1604.57,327.232 1606.74,326.657 1608.91,326.085 1611.08,325.516 1613.25,324.949 1615.41,324.384 1617.58,323.821 1619.75,323.261 1621.92,322.703 1624.09,322.148 1626.26,321.595 1628.43,321.044 1630.6,320.495 1632.76,319.949 1634.93,319.404 1637.1,318.863 1639.27,318.323 1641.44,317.786 1643.61,317.25 1645.78,316.718 1647.94,316.187 1650.11,315.658 1652.28,315.132 1654.45,314.608 1656.62,314.086 1658.79,313.567 1660.96,313.049 1663.13,312.534 1665.29,312.02 1667.46,311.509 1669.63,311 1671.8,310.494 1673.97,309.989 1676.14,309.487 1678.31,308.986 1680.47,308.488 1682.64,307.992 1684.81,307.498 1686.98,307.006 1689.15,306.516 1691.32,306.028 1693.49,305.542 1695.65,305.058 1697.82,304.576 1699.99,304.097 1702.16,303.619 1704.33,303.143 1706.5,302.67 1708.67,302.198 1710.84,301.729 1713,301.261 1715.17,300.795 1717.34,300.332 1719.51,299.87 1721.68,299.41 1723.85,298.953 1726.02,298.497 1728.18,298.043 1730.35,297.591 1732.52,297.141 1734.69,296.693 1736.86,296.247 1739.03,295.803 1741.2,295.361 1743.37,294.92 1745.53,294.482 1747.7,294.045 1749.87,293.611 1752.04,293.178 1754.21,292.747 1756.38,292.318 1758.55,291.891 1760.71,291.465 1762.88,291.042 1765.05,290.62 1767.22,290.2 1769.39,289.782 1771.56,289.366 1773.73,288.952 1775.89,288.539 1778.06,288.128 1780.23,287.719 1782.4,287.312 1784.57,286.907 1786.74,286.503 1788.91,286.101 1791.08,285.701 1793.24,285.302 1795.41,284.906 1797.58,284.511 1799.75,284.117 1801.92,283.726 1804.09,283.336 1806.26,282.948 1808.42,282.562 1810.59,282.177 1812.76,281.794 1814.93,281.412 1817.1,281.033 1819.27,280.655 1821.44,280.278 1823.61,279.904 1825.77,279.53 1827.94,279.159 1830.11,278.789 1832.28,278.421 1834.45,278.054 1836.62,277.689 1838.79,277.326 1840.95,276.964 1843.12,276.604 1845.29,276.245 1847.46,275.888 1849.63,275.533 1851.8,275.179 1853.97,274.826 1856.13,274.476 1858.3,274.126 1860.47,273.779 1862.64,273.433 1864.81,273.088 1866.98,272.745 1869.15,272.403 1871.32,272.063 1873.48,271.724 1875.65,271.387 1877.82,271.052 1879.99,270.717 1882.16,270.385 1884.33,270.054 1886.5,269.724 1888.66,269.396 1890.83,269.069 1893,268.743 1895.17,268.419 1897.34,268.097 1899.51,267.776 1901.68,267.456 1903.85,267.138 1906.01,266.821 1908.18,266.506 1910.35,266.192 1912.52,265.879 1914.69,265.568 1916.86,265.258 1919.03,264.95 1921.19,264.643 1923.36,264.337 1925.53,264.033 1927.7,263.73 1929.87,263.428 1932.04,263.128 1934.21,262.829 1936.37,262.531 1938.54,262.235 1940.71,261.94 1942.88,261.646 1945.05,261.354 1947.22,261.063 1949.39,260.774 1951.56,260.485 1953.72,260.198 1955.89,259.912 1958.06,259.628 1960.23,259.345 1962.4,259.063 1964.57,258.782 1966.74,258.502 1968.9,258.224 1971.07,257.947 1973.24,257.672 1975.41,257.397 1977.58,257.124 1979.75,256.852 1981.92,256.582 1984.09,256.312 1986.25,256.044 1988.42,255.777 1990.59,255.511 1992.76,255.246 1994.93,254.983 1997.1,254.721 1999.27,254.46 2001.43,254.2 2003.6,253.941 2005.77,253.684 2007.94,253.427 2010.11,253.172 2012.28,252.918 2014.45,252.665 2016.62,252.414 2018.78,252.163 2020.95,251.914 2023.12,251.666 2025.29,251.419 2027.46,251.173 2029.63,250.928 2031.8,250.684 2033.96,250.442 2036.13,250.2 2038.3,249.96 2040.47,249.721 2042.64,249.483 2044.81,249.246 2046.98,249.01 2049.14,248.775 2051.31,248.541 2053.48,248.308 2055.65,248.077 2057.82,247.846 2059.99,247.617 2062.16,247.388 2064.33,247.161 2066.49,246.934 2068.66,246.709 2070.83,246.485 2073,246.262 2075.17,246.039 2077.34,245.818 2079.51,245.598 2081.67,245.379 2083.84,245.161 2086.01,244.944 2088.18,244.727 2090.35,244.512 2092.52,244.298 2094.69,244.085 2096.86,243.873 2099.02,243.661 2101.19,243.451 2103.36,243.242 2105.53,243.034 2107.7,242.826 2109.87,242.62 2112.04,242.414 2114.2,242.21 2116.37,242.006 2118.54,241.804 2120.71,241.602 2122.88,241.401 2125.05,241.202 2127.22,241.003 2129.38,240.805 2131.55,240.608 2133.72,240.412 2135.89,240.217 2138.06,240.022 2140.23,239.829 2142.4,239.636 2144.57,239.445 2146.73,239.254 2148.9,239.064 2151.07,238.875 2153.24,238.687 2155.41,238.5 2157.58,238.314 2159.75,238.128 2161.91,237.944 2164.08,237.76 2166.25,237.577 2168.42,237.395 2170.59,237.214 2172.76,237.033 2174.93,236.854 2177.1,236.675 2179.26,236.497 2181.43,236.32 2183.6,236.144 2185.77,235.969 2187.94,235.794 2190.11,235.62 2192.28,235.448 2194.44,235.275 2196.61,235.104 2198.78,234.934 2200.95,234.764 2203.12,234.595 2205.29,234.427 2207.46,234.26 2209.62,234.093 2211.79,233.927 2213.96,233.762 2216.13,233.598 2218.3,233.435 2220.47,233.272 2222.64,233.11 2224.81,232.949 2226.97,232.788 2229.14,232.629 2231.31,232.47 2233.48,232.312 2235.65,232.154 2237.82,231.998 2239.99,231.842 2242.15,231.686 2244.32,231.532 2246.49,231.378 2248.66,231.225 2250.83,231.073 2253,230.921 2255.17,230.771 2257.34,230.62 2259.5,230.471 2261.67,230.322 2263.84,230.174 2266.01,230.027 2268.18,229.88 2270.35,229.734 2272.52,229.589 2274.68,229.445 2276.85,229.301 2279.02,229.158 2281.19,229.015 2283.36,228.873 2285.53,228.732 2287.7,228.592 2289.87,228.452 2292.03,228.313 2294.2,228.174 2296.37,228.036 2298.54,227.899 2300.71,227.763 2302.88,227.627 2305.05,227.492 2307.21,227.357 2309.38,227.223 2311.55,227.09 2313.72,226.957 2315.89,226.825 2318.06,226.694 2320.23,226.563 2322.39,226.433 2324.56,226.304 2326.73,226.175 2328.9,226.047 2331.07,225.919 2333.24,225.792 2335.41,225.665 2337.58,225.54 2339.74,225.414 2341.91,225.29 2344.08,225.166 2346.25,225.042 2348.42,224.919 2350.59,224.797 2352.76,224.675 "/>
<path clip-path="url(#clip310)" d="M258.49 300.469 L818.331 300.469 L818.331 93.1086 L258.49 93.1086  Z" fill="#ffffff" fill-rule="evenodd" fill-opacity="1"/>
<polyline clip-path="url(#clip310)" style="stroke:#000000; stroke-linecap:round; stroke-linejoin:round; stroke-width:4; stroke-opacity:1; fill:none" points="258.49,300.469 818.331,300.469 818.331,93.1086 258.49,93.1086 258.49,300.469 "/>
<polyline clip-path="url(#clip310)" style="stroke:#009af9; stroke-linecap:round; stroke-linejoin:round; stroke-width:20; stroke-opacity:1; fill:none" points="282.562,144.949 426.994,144.949 "/>
<path clip-path="url(#clip310)" d="M451.066 127.669 L480.302 127.669 L480.302 131.604 L468.034 131.604 L468.034 162.229 L463.335 162.229 L463.335 131.604 L451.066 131.604 L451.066 127.669 Z" fill="#000000" fill-rule="nonzero" fill-opacity="1" /><path clip-path="url(#clip310)" d="M492.686 140.284 Q491.969 139.868 491.112 139.682 Q490.279 139.474 489.26 139.474 Q485.649 139.474 483.705 141.835 Q481.784 144.173 481.784 148.571 L481.784 162.229 L477.501 162.229 L477.501 136.303 L481.784 136.303 L481.784 140.331 Q483.126 137.969 485.279 136.835 Q487.432 135.678 490.51 135.678 Q490.95 135.678 491.483 135.747 Q492.015 135.794 492.663 135.909 L492.686 140.284 Z" fill="#000000" fill-rule="nonzero" fill-opacity="1" /><path clip-path="url(#clip310)" d="M496.714 151.997 L496.714 136.303 L500.973 136.303 L500.973 151.835 Q500.973 155.516 502.409 157.368 Q503.844 159.196 506.714 159.196 Q510.163 159.196 512.154 156.997 Q514.168 154.798 514.168 151.002 L514.168 136.303 L518.427 136.303 L518.427 162.229 L514.168 162.229 L514.168 158.247 Q512.617 160.608 510.557 161.766 Q508.52 162.9 505.811 162.9 Q501.344 162.9 499.029 160.122 Q496.714 157.344 496.714 151.997 M507.432 135.678 L507.432 135.678 Z" fill="#000000" fill-rule="nonzero" fill-opacity="1" /><path clip-path="url(#clip310)" d="M549.376 148.201 L549.376 150.284 L529.793 150.284 Q530.07 154.682 532.432 156.997 Q534.816 159.289 539.052 159.289 Q541.506 159.289 543.797 158.687 Q546.112 158.085 548.381 156.881 L548.381 160.909 Q546.089 161.881 543.681 162.391 Q541.274 162.9 538.797 162.9 Q532.594 162.9 528.959 159.289 Q525.348 155.678 525.348 149.52 Q525.348 143.155 528.774 139.428 Q532.223 135.678 538.057 135.678 Q543.288 135.678 546.32 139.057 Q549.376 142.414 549.376 148.201 M545.117 146.951 Q545.07 143.456 543.149 141.372 Q541.251 139.289 538.103 139.289 Q534.538 139.289 532.385 141.303 Q530.256 143.317 529.932 146.974 L545.117 146.951 Z" fill="#000000" fill-rule="nonzero" fill-opacity="1" /><path clip-path="url(#clip310)" d="M587.964 137.067 L587.964 141.094 Q586.158 140.169 584.214 139.706 Q582.269 139.243 580.186 139.243 Q577.015 139.243 575.417 140.215 Q573.843 141.187 573.843 143.131 Q573.843 144.613 574.978 145.469 Q576.112 146.303 579.538 147.067 L580.996 147.391 Q585.533 148.363 587.431 150.145 Q589.353 151.905 589.353 155.076 Q589.353 158.687 586.482 160.793 Q583.635 162.9 578.635 162.9 Q576.552 162.9 574.283 162.483 Q572.038 162.09 569.538 161.28 L569.538 156.881 Q571.899 158.108 574.191 158.733 Q576.482 159.335 578.728 159.335 Q581.737 159.335 583.357 158.317 Q584.978 157.275 584.978 155.4 Q584.978 153.664 583.797 152.738 Q582.64 151.812 578.681 150.956 L577.2 150.608 Q573.242 149.775 571.482 148.062 Q569.723 146.326 569.723 143.317 Q569.723 139.659 572.316 137.669 Q574.908 135.678 579.677 135.678 Q582.038 135.678 584.121 136.025 Q586.204 136.372 587.964 137.067 Z" fill="#000000" fill-rule="nonzero" fill-opacity="1" /><path clip-path="url(#clip310)" d="M606.181 139.289 Q602.755 139.289 600.765 141.974 Q598.774 144.636 598.774 149.289 Q598.774 153.942 600.741 156.627 Q602.732 159.289 606.181 159.289 Q609.584 159.289 611.575 156.604 Q613.565 153.918 613.565 149.289 Q613.565 144.682 611.575 141.997 Q609.584 139.289 606.181 139.289 M606.181 135.678 Q611.737 135.678 614.908 139.289 Q618.079 142.9 618.079 149.289 Q618.079 155.655 614.908 159.289 Q611.737 162.9 606.181 162.9 Q600.602 162.9 597.431 159.289 Q594.283 155.655 594.283 149.289 Q594.283 142.9 597.431 139.289 Q600.602 135.678 606.181 135.678 Z" fill="#000000" fill-rule="nonzero" fill-opacity="1" /><path clip-path="url(#clip310)" d="M625.139 126.21 L629.399 126.21 L629.399 162.229 L625.139 162.229 L625.139 126.21 Z" fill="#000000" fill-rule="nonzero" fill-opacity="1" /><path clip-path="url(#clip310)" d="M637.871 151.997 L637.871 136.303 L642.13 136.303 L642.13 151.835 Q642.13 155.516 643.565 157.368 Q645 159.196 647.871 159.196 Q651.32 159.196 653.311 156.997 Q655.324 154.798 655.324 151.002 L655.324 136.303 L659.584 136.303 L659.584 162.229 L655.324 162.229 L655.324 158.247 Q653.773 160.608 651.713 161.766 Q649.676 162.9 646.968 162.9 Q642.5 162.9 640.186 160.122 Q637.871 157.344 637.871 151.997 M648.588 135.678 L648.588 135.678 Z" fill="#000000" fill-rule="nonzero" fill-opacity="1" /><path clip-path="url(#clip310)" d="M672.57 128.942 L672.57 136.303 L681.343 136.303 L681.343 139.613 L672.57 139.613 L672.57 153.687 Q672.57 156.858 673.426 157.761 Q674.306 158.664 676.968 158.664 L681.343 158.664 L681.343 162.229 L676.968 162.229 Q672.037 162.229 670.162 160.4 Q668.287 158.548 668.287 153.687 L668.287 139.613 L665.162 139.613 L665.162 136.303 L668.287 136.303 L668.287 128.942 L672.57 128.942 Z" fill="#000000" fill-rule="nonzero" fill-opacity="1" /><path clip-path="url(#clip310)" d="M686.945 136.303 L691.204 136.303 L691.204 162.229 L686.945 162.229 L686.945 136.303 M686.945 126.21 L691.204 126.21 L691.204 131.604 L686.945 131.604 L686.945 126.21 Z" fill="#000000" fill-rule="nonzero" fill-opacity="1" /><path clip-path="url(#clip310)" d="M710.162 139.289 Q706.736 139.289 704.745 141.974 Q702.755 144.636 702.755 149.289 Q702.755 153.942 704.722 156.627 Q706.713 159.289 710.162 159.289 Q713.565 159.289 715.556 156.604 Q717.546 153.918 717.546 149.289 Q717.546 144.682 715.556 141.997 Q713.565 139.289 710.162 139.289 M710.162 135.678 Q715.718 135.678 718.889 139.289 Q722.06 142.9 722.06 149.289 Q722.06 155.655 718.889 159.289 Q715.718 162.9 710.162 162.9 Q704.583 162.9 701.412 159.289 Q698.264 155.655 698.264 149.289 Q698.264 142.9 701.412 139.289 Q704.583 135.678 710.162 135.678 Z" fill="#000000" fill-rule="nonzero" fill-opacity="1" /><path clip-path="url(#clip310)" d="M750.671 146.581 L750.671 162.229 L746.412 162.229 L746.412 146.719 Q746.412 143.039 744.977 141.21 Q743.542 139.382 740.671 139.382 Q737.222 139.382 735.231 141.581 Q733.241 143.78 733.241 147.576 L733.241 162.229 L728.958 162.229 L728.958 136.303 L733.241 136.303 L733.241 140.331 Q734.768 137.993 736.829 136.835 Q738.912 135.678 741.62 135.678 Q746.088 135.678 748.379 138.456 Q750.671 141.21 750.671 146.581 Z" fill="#000000" fill-rule="nonzero" fill-opacity="1" /><circle clip-path="url(#clip310)" cx="354.778" cy="196.789" r="21.2677" fill="#0000ff" fill-rule="evenodd" fill-opacity="1" stroke="#000000" stroke-opacity="1" stroke-width="3.15077"/>
<path clip-path="url(#clip310)" d="M451.066 179.509 L458.034 179.509 L466.853 203.027 L475.719 179.509 L482.686 179.509 L482.686 214.069 L478.126 214.069 L478.126 183.722 L469.214 207.425 L464.515 207.425 L455.603 183.722 L455.603 214.069 L451.066 214.069 L451.066 179.509 Z" fill="#000000" fill-rule="nonzero" fill-opacity="1" /><path clip-path="url(#clip310)" d="M513.959 200.041 L513.959 202.124 L494.376 202.124 Q494.654 206.522 497.015 208.837 Q499.399 211.129 503.635 211.129 Q506.089 211.129 508.381 210.527 Q510.696 209.925 512.964 208.721 L512.964 212.749 Q510.672 213.721 508.265 214.231 Q505.858 214.74 503.381 214.74 Q497.177 214.74 493.543 211.129 Q489.932 207.518 489.932 201.36 Q489.932 194.995 493.358 191.268 Q496.807 187.518 502.64 187.518 Q507.871 187.518 510.904 190.897 Q513.959 194.254 513.959 200.041 M509.7 198.791 Q509.654 195.296 507.733 193.212 Q505.834 191.129 502.686 191.129 Q499.122 191.129 496.969 193.143 Q494.839 195.157 494.515 198.814 L509.7 198.791 Z" fill="#000000" fill-rule="nonzero" fill-opacity="1" /><path clip-path="url(#clip310)" d="M532.732 201.036 Q527.57 201.036 525.58 202.217 Q523.589 203.397 523.589 206.245 Q523.589 208.513 525.07 209.856 Q526.575 211.175 529.145 211.175 Q532.686 211.175 534.816 208.675 Q536.969 206.152 536.969 201.985 L536.969 201.036 L532.732 201.036 M541.228 199.277 L541.228 214.069 L536.969 214.069 L536.969 210.133 Q535.51 212.495 533.334 213.629 Q531.158 214.74 528.01 214.74 Q524.029 214.74 521.668 212.518 Q519.33 210.272 519.33 206.522 Q519.33 202.147 522.246 199.925 Q525.186 197.703 530.996 197.703 L536.969 197.703 L536.969 197.286 Q536.969 194.347 535.024 192.749 Q533.103 191.129 529.607 191.129 Q527.385 191.129 525.279 191.661 Q523.172 192.194 521.228 193.259 L521.228 189.323 Q523.566 188.421 525.765 187.981 Q527.964 187.518 530.047 187.518 Q535.672 187.518 538.45 190.434 Q541.228 193.351 541.228 199.277 Z" fill="#000000" fill-rule="nonzero" fill-opacity="1" /><path clip-path="url(#clip310)" d="M566.529 188.907 L566.529 192.934 Q564.723 192.009 562.779 191.546 Q560.834 191.083 558.751 191.083 Q555.58 191.083 553.982 192.055 Q552.408 193.027 552.408 194.971 Q552.408 196.453 553.543 197.309 Q554.677 198.143 558.103 198.907 L559.561 199.231 Q564.098 200.203 565.996 201.985 Q567.917 203.745 567.917 206.916 Q567.917 210.527 565.047 212.633 Q562.2 214.74 557.2 214.74 Q555.117 214.74 552.848 214.323 Q550.603 213.93 548.103 213.12 L548.103 208.721 Q550.464 209.948 552.756 210.573 Q555.047 211.175 557.293 211.175 Q560.302 211.175 561.922 210.157 Q563.542 209.115 563.542 207.24 Q563.542 205.504 562.362 204.578 Q561.205 203.652 557.246 202.796 L555.765 202.448 Q551.806 201.615 550.047 199.902 Q548.288 198.166 548.288 195.157 Q548.288 191.499 550.881 189.509 Q553.473 187.518 558.242 187.518 Q560.603 187.518 562.686 187.865 Q564.769 188.212 566.529 188.907 Z" fill="#000000" fill-rule="nonzero" fill-opacity="1" /><path clip-path="url(#clip310)" d="M574.26 203.837 L574.26 188.143 L578.519 188.143 L578.519 203.675 Q578.519 207.356 579.954 209.208 Q581.39 211.036 584.26 211.036 Q587.709 211.036 589.7 208.837 Q591.714 206.638 591.714 202.842 L591.714 188.143 L595.973 188.143 L595.973 214.069 L591.714 214.069 L591.714 210.087 Q590.163 212.448 588.103 213.606 Q586.066 214.74 583.357 214.74 Q578.89 214.74 576.575 211.962 Q574.26 209.184 574.26 203.837 M584.978 187.518 L584.978 187.518 Z" fill="#000000" fill-rule="nonzero" fill-opacity="1" /><path clip-path="url(#clip310)" d="M619.769 192.124 Q619.051 191.708 618.195 191.522 Q617.362 191.314 616.343 191.314 Q612.732 191.314 610.788 193.675 Q608.866 196.013 608.866 200.411 L608.866 214.069 L604.584 214.069 L604.584 188.143 L608.866 188.143 L608.866 192.171 Q610.209 189.809 612.362 188.675 Q614.514 187.518 617.593 187.518 Q618.033 187.518 618.565 187.587 Q619.098 187.634 619.746 187.749 L619.769 192.124 Z" fill="#000000" fill-rule="nonzero" fill-opacity="1" /><path clip-path="url(#clip310)" d="M645.371 200.041 L645.371 202.124 L625.788 202.124 Q626.065 206.522 628.426 208.837 Q630.811 211.129 635.047 211.129 Q637.5 211.129 639.792 210.527 Q642.107 209.925 644.375 208.721 L644.375 212.749 Q642.084 213.721 639.676 214.231 Q637.269 214.74 634.792 214.74 Q628.588 214.74 624.954 211.129 Q621.343 207.518 621.343 201.36 Q621.343 194.995 624.769 191.268 Q628.218 187.518 634.051 187.518 Q639.283 187.518 642.315 190.897 Q645.371 194.254 645.371 200.041 M641.112 198.791 Q641.065 195.296 639.144 193.212 Q637.246 191.129 634.098 191.129 Q630.533 191.129 628.38 193.143 Q626.25 195.157 625.926 198.814 L641.112 198.791 Z" fill="#000000" fill-rule="nonzero" fill-opacity="1" /><path clip-path="url(#clip310)" d="M672.547 193.12 Q674.144 190.249 676.366 188.884 Q678.588 187.518 681.597 187.518 Q685.648 187.518 687.847 190.365 Q690.046 193.189 690.046 198.421 L690.046 214.069 L685.764 214.069 L685.764 198.559 Q685.764 194.833 684.445 193.027 Q683.125 191.222 680.417 191.222 Q677.107 191.222 675.185 193.421 Q673.264 195.62 673.264 199.416 L673.264 214.069 L668.982 214.069 L668.982 198.559 Q668.982 194.809 667.662 193.027 Q666.343 191.222 663.588 191.222 Q660.324 191.222 658.403 193.444 Q656.482 195.643 656.482 199.416 L656.482 214.069 L652.199 214.069 L652.199 188.143 L656.482 188.143 L656.482 192.171 Q657.94 189.786 659.977 188.652 Q662.014 187.518 664.815 187.518 Q667.639 187.518 669.607 188.953 Q671.597 190.388 672.547 193.12 Z" fill="#000000" fill-rule="nonzero" fill-opacity="1" /><path clip-path="url(#clip310)" d="M720.718 200.041 L720.718 202.124 L701.134 202.124 Q701.412 206.522 703.773 208.837 Q706.157 211.129 710.394 211.129 Q712.847 211.129 715.139 210.527 Q717.454 209.925 719.722 208.721 L719.722 212.749 Q717.431 213.721 715.023 214.231 Q712.616 214.74 710.139 214.74 Q703.935 214.74 700.301 211.129 Q696.69 207.518 696.69 201.36 Q696.69 194.995 700.116 191.268 Q703.565 187.518 709.398 187.518 Q714.63 187.518 717.662 190.897 Q720.718 194.254 720.718 200.041 M716.458 198.791 Q716.412 195.296 714.491 193.212 Q712.593 191.129 709.444 191.129 Q705.88 191.129 703.727 193.143 Q701.597 195.157 701.273 198.814 L716.458 198.791 Z" fill="#000000" fill-rule="nonzero" fill-opacity="1" /><path clip-path="url(#clip310)" d="M749.259 198.421 L749.259 214.069 L745 214.069 L745 198.559 Q745 194.879 743.565 193.05 Q742.129 191.222 739.259 191.222 Q735.81 191.222 733.819 193.421 Q731.829 195.62 731.829 199.416 L731.829 214.069 L727.546 214.069 L727.546 188.143 L731.829 188.143 L731.829 192.171 Q733.356 189.833 735.417 188.675 Q737.5 187.518 740.208 187.518 Q744.676 187.518 746.967 190.296 Q749.259 193.05 749.259 198.421 Z" fill="#000000" fill-rule="nonzero" fill-opacity="1" /><path clip-path="url(#clip310)" d="M761.967 180.782 L761.967 188.143 L770.74 188.143 L770.74 191.453 L761.967 191.453 L761.967 205.527 Q761.967 208.698 762.824 209.601 Q763.703 210.504 766.365 210.504 L770.74 210.504 L770.74 214.069 L766.365 214.069 Q761.435 214.069 759.56 212.24 Q757.685 210.388 757.685 205.527 L757.685 191.453 L754.56 191.453 L754.56 188.143 L757.685 188.143 L757.685 180.782 L761.967 180.782 Z" fill="#000000" fill-rule="nonzero" fill-opacity="1" /><path clip-path="url(#clip310)" d="M792.87 188.907 L792.87 192.934 Q791.064 192.009 789.12 191.546 Q787.176 191.083 785.092 191.083 Q781.921 191.083 780.324 192.055 Q778.75 193.027 778.75 194.971 Q778.75 196.453 779.884 197.309 Q781.018 198.143 784.444 198.907 L785.902 199.231 Q790.439 200.203 792.338 201.985 Q794.259 203.745 794.259 206.916 Q794.259 210.527 791.388 212.633 Q788.541 214.74 783.541 214.74 Q781.458 214.74 779.189 214.323 Q776.944 213.93 774.444 213.12 L774.444 208.721 Q776.805 209.948 779.097 210.573 Q781.389 211.175 783.634 211.175 Q786.643 211.175 788.264 210.157 Q789.884 209.115 789.884 207.24 Q789.884 205.504 788.703 204.578 Q787.546 203.652 783.588 202.796 L782.106 202.448 Q778.148 201.615 776.389 199.902 Q774.629 198.166 774.629 195.157 Q774.629 191.499 777.222 189.509 Q779.814 187.518 784.583 187.518 Q786.944 187.518 789.027 187.865 Q791.111 188.212 792.87 188.907 Z" fill="#000000" fill-rule="nonzero" fill-opacity="1" /><polyline clip-path="url(#clip310)" style="stroke:#add8e6; stroke-linecap:round; stroke-linejoin:round; stroke-width:20; stroke-opacity:1; fill:none" stroke-dasharray="80, 50" points="282.562,248.629 426.994,248.629 "/>
<path clip-path="url(#clip310)" d="M451.066 231.349 L470.927 231.349 L470.927 235.284 L455.742 235.284 L455.742 245.469 L469.446 245.469 L469.446 249.404 L455.742 249.404 L455.742 265.909 L451.066 265.909 L451.066 231.349 Z" fill="#000000" fill-rule="nonzero" fill-opacity="1" /><path clip-path="url(#clip310)" d="M474.7 239.983 L478.96 239.983 L478.96 265.909 L474.7 265.909 L474.7 239.983 M474.7 229.89 L478.96 229.89 L478.96 235.284 L474.7 235.284 L474.7 229.89 Z" fill="#000000" fill-rule="nonzero" fill-opacity="1" /><path clip-path="url(#clip310)" d="M492.085 232.622 L492.085 239.983 L500.858 239.983 L500.858 243.293 L492.085 243.293 L492.085 257.367 Q492.085 260.538 492.941 261.441 Q493.821 262.344 496.483 262.344 L500.858 262.344 L500.858 265.909 L496.483 265.909 Q491.552 265.909 489.677 264.08 Q487.802 262.228 487.802 257.367 L487.802 243.293 L484.677 243.293 L484.677 239.983 L487.802 239.983 L487.802 232.622 L492.085 232.622 Z" fill="#000000" fill-rule="nonzero" fill-opacity="1" /><path clip-path="url(#clip310)" d="M510.672 232.622 L510.672 239.983 L519.445 239.983 L519.445 243.293 L510.672 243.293 L510.672 257.367 Q510.672 260.538 511.529 261.441 Q512.408 262.344 515.071 262.344 L519.445 262.344 L519.445 265.909 L515.071 265.909 Q510.14 265.909 508.265 264.08 Q506.39 262.228 506.39 257.367 L506.39 243.293 L503.265 243.293 L503.265 239.983 L506.39 239.983 L506.39 232.622 L510.672 232.622 Z" fill="#000000" fill-rule="nonzero" fill-opacity="1" /><path clip-path="url(#clip310)" d="M547.223 251.881 L547.223 253.964 L527.64 253.964 Q527.918 258.362 530.279 260.677 Q532.663 262.969 536.899 262.969 Q539.353 262.969 541.644 262.367 Q543.959 261.765 546.228 260.561 L546.228 264.589 Q543.936 265.561 541.529 266.071 Q539.121 266.58 536.644 266.58 Q530.441 266.58 526.807 262.969 Q523.195 259.358 523.195 253.2 Q523.195 246.835 526.621 243.108 Q530.07 239.358 535.904 239.358 Q541.135 239.358 544.168 242.737 Q547.223 246.094 547.223 251.881 M542.964 250.631 Q542.918 247.136 540.996 245.052 Q539.098 242.969 535.95 242.969 Q532.385 242.969 530.232 244.983 Q528.103 246.997 527.779 250.654 L542.964 250.631 Z" fill="#000000" fill-rule="nonzero" fill-opacity="1" /><path clip-path="url(#clip310)" d="M571.274 243.918 L571.274 229.89 L575.533 229.89 L575.533 265.909 L571.274 265.909 L571.274 262.02 Q569.931 264.335 567.871 265.469 Q565.834 266.58 562.964 266.58 Q558.265 266.58 555.302 262.83 Q552.362 259.08 552.362 252.969 Q552.362 246.858 555.302 243.108 Q558.265 239.358 562.964 239.358 Q565.834 239.358 567.871 240.492 Q569.931 241.603 571.274 243.918 M556.76 252.969 Q556.76 257.668 558.681 260.353 Q560.626 263.015 564.005 263.015 Q567.385 263.015 569.329 260.353 Q571.274 257.668 571.274 252.969 Q571.274 248.27 569.329 245.608 Q567.385 242.923 564.005 242.923 Q560.626 242.923 558.681 245.608 Q556.76 248.27 556.76 252.969 Z" fill="#000000" fill-rule="nonzero" fill-opacity="1" /><path clip-path="url(#clip310)" d="M615.903 240.747 L615.903 244.774 Q614.098 243.849 612.153 243.386 Q610.209 242.923 608.126 242.923 Q604.954 242.923 603.357 243.895 Q601.783 244.867 601.783 246.811 Q601.783 248.293 602.917 249.149 Q604.052 249.983 607.477 250.747 L608.936 251.071 Q613.473 252.043 615.371 253.825 Q617.292 255.585 617.292 258.756 Q617.292 262.367 614.422 264.473 Q611.575 266.58 606.575 266.58 Q604.491 266.58 602.223 266.163 Q599.977 265.77 597.477 264.96 L597.477 260.561 Q599.839 261.788 602.13 262.413 Q604.422 263.015 606.667 263.015 Q609.676 263.015 611.297 261.997 Q612.917 260.955 612.917 259.08 Q612.917 257.344 611.737 256.418 Q610.579 255.492 606.621 254.636 L605.139 254.288 Q601.181 253.455 599.422 251.742 Q597.663 250.006 597.663 246.997 Q597.663 243.339 600.255 241.349 Q602.848 239.358 607.616 239.358 Q609.977 239.358 612.061 239.705 Q614.144 240.052 615.903 240.747 Z" fill="#000000" fill-rule="nonzero" fill-opacity="1" /><path clip-path="url(#clip310)" d="M634.121 242.969 Q630.695 242.969 628.704 245.654 Q626.713 248.316 626.713 252.969 Q626.713 257.622 628.681 260.307 Q630.672 262.969 634.121 262.969 Q637.524 262.969 639.514 260.284 Q641.505 257.598 641.505 252.969 Q641.505 248.362 639.514 245.677 Q637.524 242.969 634.121 242.969 M634.121 239.358 Q639.676 239.358 642.848 242.969 Q646.019 246.58 646.019 252.969 Q646.019 259.335 642.848 262.969 Q639.676 266.58 634.121 266.58 Q628.542 266.58 625.371 262.969 Q622.223 259.335 622.223 252.969 Q622.223 246.58 625.371 242.969 Q628.542 239.358 634.121 239.358 Z" fill="#000000" fill-rule="nonzero" fill-opacity="1" /><path clip-path="url(#clip310)" d="M653.079 229.89 L657.338 229.89 L657.338 265.909 L653.079 265.909 L653.079 229.89 Z" fill="#000000" fill-rule="nonzero" fill-opacity="1" /><path clip-path="url(#clip310)" d="M665.81 255.677 L665.81 239.983 L670.07 239.983 L670.07 255.515 Q670.07 259.196 671.505 261.048 Q672.94 262.876 675.81 262.876 Q679.259 262.876 681.25 260.677 Q683.264 258.478 683.264 254.682 L683.264 239.983 L687.523 239.983 L687.523 265.909 L683.264 265.909 L683.264 261.927 Q681.713 264.288 679.653 265.446 Q677.616 266.58 674.908 266.58 Q670.44 266.58 668.125 263.802 Q665.81 261.024 665.81 255.677 M676.528 239.358 L676.528 239.358 Z" fill="#000000" fill-rule="nonzero" fill-opacity="1" /><path clip-path="url(#clip310)" d="M700.509 232.622 L700.509 239.983 L709.282 239.983 L709.282 243.293 L700.509 243.293 L700.509 257.367 Q700.509 260.538 701.366 261.441 Q702.245 262.344 704.907 262.344 L709.282 262.344 L709.282 265.909 L704.907 265.909 Q699.977 265.909 698.102 264.08 Q696.227 262.228 696.227 257.367 L696.227 243.293 L693.102 243.293 L693.102 239.983 L696.227 239.983 L696.227 232.622 L700.509 232.622 Z" fill="#000000" fill-rule="nonzero" fill-opacity="1" /><path clip-path="url(#clip310)" d="M714.884 239.983 L719.144 239.983 L719.144 265.909 L714.884 265.909 L714.884 239.983 M714.884 229.89 L719.144 229.89 L719.144 235.284 L714.884 235.284 L714.884 229.89 Z" fill="#000000" fill-rule="nonzero" fill-opacity="1" /><path clip-path="url(#clip310)" d="M738.102 242.969 Q734.676 242.969 732.685 245.654 Q730.694 248.316 730.694 252.969 Q730.694 257.622 732.662 260.307 Q734.653 262.969 738.102 262.969 Q741.504 262.969 743.495 260.284 Q745.486 257.598 745.486 252.969 Q745.486 248.362 743.495 245.677 Q741.504 242.969 738.102 242.969 M738.102 239.358 Q743.657 239.358 746.829 242.969 Q750 246.58 750 252.969 Q750 259.335 746.829 262.969 Q743.657 266.58 738.102 266.58 Q732.523 266.58 729.352 262.969 Q726.204 259.335 726.204 252.969 Q726.204 246.58 729.352 242.969 Q732.523 239.358 738.102 239.358 Z" fill="#000000" fill-rule="nonzero" fill-opacity="1" /><path clip-path="url(#clip310)" d="M778.611 250.261 L778.611 265.909 L774.352 265.909 L774.352 250.399 Q774.352 246.719 772.916 244.89 Q771.481 243.062 768.611 243.062 Q765.162 243.062 763.171 245.261 Q761.18 247.46 761.18 251.256 L761.18 265.909 L756.898 265.909 L756.898 239.983 L761.18 239.983 L761.18 244.011 Q762.708 241.673 764.768 240.515 Q766.852 239.358 769.56 239.358 Q774.027 239.358 776.319 242.136 Q778.611 244.89 778.611 250.261 Z" fill="#000000" fill-rule="nonzero" fill-opacity="1" /></svg>
