<?xml version="1.0" encoding="utf-8"?>
<svg xmlns="http://www.w3.org/2000/svg" xmlns:xlink="http://www.w3.org/1999/xlink" width="800" height="400" viewBox="0 0 3200 1600">
<defs>
  <clipPath id="clip700">
    <rect x="0" y="0" width="3200" height="1600"/>
  </clipPath>
</defs>
<path clip-path="url(#clip700)" d="M0 1600 L3200 1600 L3200 0 L0 0  Z" fill="#ffffff" fill-rule="evenodd" fill-opacity="1"/>
<defs>
  <clipPath id="clip701">
    <rect x="640" y="0" width="2241" height="1600"/>
  </clipPath>
</defs>
<path clip-path="url(#clip700)" d="M194.274 1443.7 L3152.76 1443.7 L3152.76 47.2441 L194.274 47.2441  Z" fill="#ffffff" fill-rule="evenodd" fill-opacity="1"/>
<defs>
  <clipPath id="clip702">
    <rect x="194" y="47" width="2959" height="1397"/>
  </clipPath>
</defs>
<polyline clip-path="url(#clip702)" style="stroke:#000000; stroke-linecap:round; stroke-linejoin:round; stroke-width:2; stroke-opacity:0.1; fill:none" points="194.274,1443.7 194.274,47.2441 "/>
<polyline clip-path="url(#clip702)" style="stroke:#000000; stroke-linecap:round; stroke-linejoin:round; stroke-width:2; stroke-opacity:0.1; fill:none" points="785.97,1443.7 785.97,47.2441 "/>
<polyline clip-path="url(#clip702)" style="stroke:#000000; stroke-linecap:round; stroke-linejoin:round; stroke-width:2; stroke-opacity:0.1; fill:none" points="1377.67,1443.7 1377.67,47.2441 "/>
<polyline clip-path="url(#clip702)" style="stroke:#000000; stroke-linecap:round; stroke-linejoin:round; stroke-width:2; stroke-opacity:0.1; fill:none" points="1969.36,1443.7 1969.36,47.2441 "/>
<polyline clip-path="url(#clip702)" style="stroke:#000000; stroke-linecap:round; stroke-linejoin:round; stroke-width:2; stroke-opacity:0.1; fill:none" points="2561.06,1443.7 2561.06,47.2441 "/>
<polyline clip-path="url(#clip702)" style="stroke:#000000; stroke-linecap:round; stroke-linejoin:round; stroke-width:2; stroke-opacity:0.1; fill:none" points="3152.76,1443.7 3152.76,47.2441 "/>
<polyline clip-path="url(#clip702)" style="stroke:#000000; stroke-linecap:round; stroke-linejoin:round; stroke-width:2; stroke-opacity:0.1; fill:none" points="194.274,1443.7 194.274,47.2441 "/>
<polyline clip-path="url(#clip702)" style="stroke:#000000; stroke-linecap:round; stroke-linejoin:round; stroke-width:2; stroke-opacity:0.1; fill:none" points="785.97,1443.7 785.97,47.2441 "/>
<polyline clip-path="url(#clip702)" style="stroke:#000000; stroke-linecap:round; stroke-linejoin:round; stroke-width:2; stroke-opacity:0.1; fill:none" points="1377.67,1443.7 1377.67,47.2441 "/>
<polyline clip-path="url(#clip702)" style="stroke:#000000; stroke-linecap:round; stroke-linejoin:round; stroke-width:2; stroke-opacity:0.1; fill:none" points="1969.36,1443.7 1969.36,47.2441 "/>
<polyline clip-path="url(#clip702)" style="stroke:#000000; stroke-linecap:round; stroke-linejoin:round; stroke-width:2; stroke-opacity:0.1; fill:none" points="2561.06,1443.7 2561.06,47.2441 "/>
<polyline clip-path="url(#clip702)" style="stroke:#000000; stroke-linecap:round; stroke-linejoin:round; stroke-width:2; stroke-opacity:0.1; fill:none" points="3152.76,1443.7 3152.76,47.2441 "/>
<polyline clip-path="url(#clip700)" style="stroke:#000000; stroke-linecap:round; stroke-linejoin:round; stroke-width:4; stroke-opacity:1; fill:none" points="194.274,1443.7 3152.76,1443.7 "/>
<polyline clip-path="url(#clip700)" style="stroke:#000000; stroke-linecap:round; stroke-linejoin:round; stroke-width:4; stroke-opacity:1; fill:none" points="194.274,47.2441 3152.76,47.2441 "/>
<polyline clip-path="url(#clip700)" style="stroke:#000000; stroke-linecap:round; stroke-linejoin:round; stroke-width:4; stroke-opacity:1; fill:none" points="194.274,1443.7 194.274,1424.8 "/>
<polyline clip-path="url(#clip700)" style="stroke:#000000; stroke-linecap:round; stroke-linejoin:round; stroke-width:4; stroke-opacity:1; fill:none" points="785.97,1443.7 785.97,1424.8 "/>
<polyline clip-path="url(#clip700)" style="stroke:#000000; stroke-linecap:round; stroke-linejoin:round; stroke-width:4; stroke-opacity:1; fill:none" points="1377.67,1443.7 1377.67,1424.8 "/>
<polyline clip-path="url(#clip700)" style="stroke:#000000; stroke-linecap:round; stroke-linejoin:round; stroke-width:4; stroke-opacity:1; fill:none" points="1969.36,1443.7 1969.36,1424.8 "/>
<polyline clip-path="url(#clip700)" style="stroke:#000000; stroke-linecap:round; stroke-linejoin:round; stroke-width:4; stroke-opacity:1; fill:none" points="2561.06,1443.7 2561.06,1424.8 "/>
<polyline clip-path="url(#clip700)" style="stroke:#000000; stroke-linecap:round; stroke-linejoin:round; stroke-width:4; stroke-opacity:1; fill:none" points="3152.76,1443.7 3152.76,1424.8 "/>
<polyline clip-path="url(#clip700)" style="stroke:#000000; stroke-linecap:round; stroke-linejoin:round; stroke-width:4; stroke-opacity:1; fill:none" points="194.274,47.2441 194.274,66.1417 "/>
<polyline clip-path="url(#clip700)" style="stroke:#000000; stroke-linecap:round; stroke-linejoin:round; stroke-width:4; stroke-opacity:1; fill:none" points="785.97,47.2441 785.97,66.1417 "/>
<polyline clip-path="url(#clip700)" style="stroke:#000000; stroke-linecap:round; stroke-linejoin:round; stroke-width:4; stroke-opacity:1; fill:none" points="1377.67,47.2441 1377.67,66.1417 "/>
<polyline clip-path="url(#clip700)" style="stroke:#000000; stroke-linecap:round; stroke-linejoin:round; stroke-width:4; stroke-opacity:1; fill:none" points="1969.36,47.2441 1969.36,66.1417 "/>
<polyline clip-path="url(#clip700)" style="stroke:#000000; stroke-linecap:round; stroke-linejoin:round; stroke-width:4; stroke-opacity:1; fill:none" points="2561.06,47.2441 2561.06,66.1417 "/>
<polyline clip-path="url(#clip700)" style="stroke:#000000; stroke-linecap:round; stroke-linejoin:round; stroke-width:4; stroke-opacity:1; fill:none" points="3152.76,47.2441 3152.76,66.1417 "/>
<path clip-path="url(#clip700)" d="M194.274 1481.02 Q190.663 1481.02 188.834 1484.58 Q187.029 1488.12 187.029 1495.25 Q187.029 1502.36 188.834 1505.93 Q190.663 1509.47 194.274 1509.47 Q197.908 1509.47 199.714 1505.93 Q201.542 1502.36 201.542 1495.25 Q201.542 1488.12 199.714 1484.58 Q197.908 1481.02 194.274 1481.02 M194.274 1477.31 Q200.084 1477.31 203.14 1481.92 Q206.218 1486.5 206.218 1495.25 Q206.218 1503.98 203.14 1508.59 Q200.084 1513.17 194.274 1513.17 Q188.464 1513.17 185.385 1508.59 Q182.33 1503.98 182.33 1495.25 Q182.33 1486.5 185.385 1481.92 Q188.464 1477.31 194.274 1477.31 Z" fill="#000000" fill-rule="nonzero" fill-opacity="1" /><path clip-path="url(#clip700)" d="M780.623 1508.56 L796.943 1508.56 L796.943 1512.5 L774.998 1512.5 L774.998 1508.56 Q777.66 1505.81 782.244 1501.18 Q786.85 1496.53 788.031 1495.19 Q790.276 1492.66 791.156 1490.93 Q792.058 1489.17 792.058 1487.48 Q792.058 1484.72 790.114 1482.99 Q788.193 1481.25 785.091 1481.25 Q782.892 1481.25 780.438 1482.01 Q778.007 1482.78 775.23 1484.33 L775.23 1479.61 Q778.054 1478.47 780.507 1477.89 Q782.961 1477.31 784.998 1477.31 Q790.369 1477.31 793.563 1480 Q796.757 1482.69 796.757 1487.18 Q796.757 1489.31 795.947 1491.23 Q795.16 1493.12 793.054 1495.72 Q792.475 1496.39 789.373 1499.61 Q786.271 1502.8 780.623 1508.56 Z" fill="#000000" fill-rule="nonzero" fill-opacity="1" /><path clip-path="url(#clip700)" d="M1380.68 1482.01 L1368.87 1500.46 L1380.68 1500.46 L1380.68 1482.01 M1379.45 1477.94 L1385.33 1477.94 L1385.33 1500.46 L1390.26 1500.46 L1390.26 1504.35 L1385.33 1504.35 L1385.33 1512.5 L1380.68 1512.5 L1380.68 1504.35 L1365.07 1504.35 L1365.07 1499.84 L1379.45 1477.94 Z" fill="#000000" fill-rule="nonzero" fill-opacity="1" /><path clip-path="url(#clip700)" d="M1969.77 1493.36 Q1966.62 1493.36 1964.77 1495.51 Q1962.94 1497.66 1962.94 1501.41 Q1962.94 1505.14 1964.77 1507.31 Q1966.62 1509.47 1969.77 1509.47 Q1972.92 1509.47 1974.75 1507.31 Q1976.6 1505.14 1976.6 1501.41 Q1976.6 1497.66 1974.75 1495.51 Q1972.92 1493.36 1969.77 1493.36 M1979.05 1478.7 L1979.05 1482.96 Q1977.29 1482.13 1975.49 1481.69 Q1973.7 1481.25 1971.94 1481.25 Q1967.31 1481.25 1964.86 1484.37 Q1962.43 1487.5 1962.08 1493.82 Q1963.45 1491.81 1965.51 1490.74 Q1967.57 1489.65 1970.05 1489.65 Q1975.25 1489.65 1978.26 1492.82 Q1981.3 1495.97 1981.3 1501.41 Q1981.3 1506.74 1978.15 1509.95 Q1975 1513.17 1969.77 1513.17 Q1963.77 1513.17 1960.6 1508.59 Q1957.43 1503.98 1957.43 1495.25 Q1957.43 1487.06 1961.32 1482.2 Q1965.21 1477.31 1971.76 1477.31 Q1973.52 1477.31 1975.3 1477.66 Q1977.11 1478.01 1979.05 1478.7 Z" fill="#000000" fill-rule="nonzero" fill-opacity="1" /><path clip-path="url(#clip700)" d="M2561.06 1496.09 Q2557.73 1496.09 2555.8 1497.87 Q2553.91 1499.65 2553.91 1502.78 Q2553.91 1505.9 2555.8 1507.69 Q2557.73 1509.47 2561.06 1509.47 Q2564.39 1509.47 2566.31 1507.69 Q2568.24 1505.88 2568.24 1502.78 Q2568.24 1499.65 2566.31 1497.87 Q2564.42 1496.09 2561.06 1496.09 M2556.38 1494.1 Q2553.37 1493.36 2551.68 1491.3 Q2550.02 1489.24 2550.02 1486.27 Q2550.02 1482.13 2552.96 1479.72 Q2555.92 1477.31 2561.06 1477.31 Q2566.22 1477.31 2569.16 1479.72 Q2572.1 1482.13 2572.1 1486.27 Q2572.1 1489.24 2570.41 1491.3 Q2568.74 1493.36 2565.76 1494.1 Q2569.14 1494.88 2571.01 1497.18 Q2572.91 1499.47 2572.91 1502.78 Q2572.91 1507.8 2569.83 1510.49 Q2566.78 1513.17 2561.06 1513.17 Q2555.34 1513.17 2552.26 1510.49 Q2549.21 1507.8 2549.21 1502.78 Q2549.21 1499.47 2551.11 1497.18 Q2553 1494.88 2556.38 1494.1 M2554.67 1486.71 Q2554.67 1489.4 2556.34 1490.9 Q2558.03 1492.41 2561.06 1492.41 Q2564.07 1492.41 2565.76 1490.9 Q2567.47 1489.4 2567.47 1486.71 Q2567.47 1484.03 2565.76 1482.52 Q2564.07 1481.02 2561.06 1481.02 Q2558.03 1481.02 2556.34 1482.52 Q2554.67 1484.03 2554.67 1486.71 Z" fill="#000000" fill-rule="nonzero" fill-opacity="1" /><path clip-path="url(#clip700)" d="M3127.44 1508.56 L3135.08 1508.56 L3135.08 1482.2 L3126.77 1483.87 L3126.77 1479.61 L3135.04 1477.94 L3139.71 1477.94 L3139.71 1508.56 L3147.35 1508.56 L3147.35 1512.5 L3127.44 1512.5 L3127.44 1508.56 Z" fill="#000000" fill-rule="nonzero" fill-opacity="1" /><path clip-path="url(#clip700)" d="M3166.8 1481.02 Q3163.18 1481.02 3161.36 1484.58 Q3159.55 1488.12 3159.55 1495.25 Q3159.55 1502.36 3161.36 1505.93 Q3163.18 1509.47 3166.8 1509.47 Q3170.43 1509.47 3172.23 1505.93 Q3174.06 1502.36 3174.06 1495.25 Q3174.06 1488.12 3172.23 1484.58 Q3170.43 1481.02 3166.8 1481.02 M3166.8 1477.31 Q3172.61 1477.31 3175.66 1481.92 Q3178.74 1486.5 3178.74 1495.25 Q3178.74 1503.98 3175.66 1508.59 Q3172.61 1513.17 3166.8 1513.17 Q3160.99 1513.17 3157.91 1508.59 Q3154.85 1503.98 3154.85 1495.25 Q3154.85 1486.5 3157.91 1481.92 Q3160.99 1477.31 3166.8 1477.31 Z" fill="#000000" fill-rule="nonzero" fill-opacity="1" /><path clip-path="url(#clip700)" d="M1672.58 1554.79 L1672.58 1564.92 L1684.64 1564.92 L1684.64 1569.47 L1672.58 1569.47 L1672.58 1588.82 Q1672.58 1593.18 1673.75 1594.42 Q1674.96 1595.66 1678.62 1595.66 L1684.64 1595.66 L1684.64 1600.56 L1678.62 1600.56 Q1671.84 1600.56 1669.27 1598.05 Q1666.69 1595.5 1666.69 1588.82 L1666.69 1569.47 L1662.39 1569.47 L1662.39 1564.92 L1666.69 1564.92 L1666.69 1554.79 L1672.58 1554.79 Z" fill="#000000" fill-rule="nonzero" fill-opacity="1" /><polyline clip-path="url(#clip702)" style="stroke:#000000; stroke-linecap:round; stroke-linejoin:round; stroke-width:2; stroke-opacity:0.1; fill:none" points="194.274,1404.18 3152.76,1404.18 "/>
<polyline clip-path="url(#clip702)" style="stroke:#000000; stroke-linecap:round; stroke-linejoin:round; stroke-width:2; stroke-opacity:0.1; fill:none" points="194.274,1107.75 3152.76,1107.75 "/>
<polyline clip-path="url(#clip702)" style="stroke:#000000; stroke-linecap:round; stroke-linejoin:round; stroke-width:2; stroke-opacity:0.1; fill:none" points="194.274,811.322 3152.76,811.322 "/>
<polyline clip-path="url(#clip702)" style="stroke:#000000; stroke-linecap:round; stroke-linejoin:round; stroke-width:2; stroke-opacity:0.1; fill:none" points="194.274,514.895 3152.76,514.895 "/>
<polyline clip-path="url(#clip702)" style="stroke:#000000; stroke-linecap:round; stroke-linejoin:round; stroke-width:2; stroke-opacity:0.1; fill:none" points="194.274,218.467 3152.76,218.467 "/>
<polyline clip-path="url(#clip702)" style="stroke:#000000; stroke-linecap:round; stroke-linejoin:round; stroke-width:2; stroke-opacity:0.1; fill:none" points="194.274,1404.18 3152.76,1404.18 "/>
<polyline clip-path="url(#clip702)" style="stroke:#000000; stroke-linecap:round; stroke-linejoin:round; stroke-width:2; stroke-opacity:0.1; fill:none" points="194.274,1107.75 3152.76,1107.75 "/>
<polyline clip-path="url(#clip702)" style="stroke:#000000; stroke-linecap:round; stroke-linejoin:round; stroke-width:2; stroke-opacity:0.1; fill:none" points="194.274,811.322 3152.76,811.322 "/>
<polyline clip-path="url(#clip702)" style="stroke:#000000; stroke-linecap:round; stroke-linejoin:round; stroke-width:2; stroke-opacity:0.1; fill:none" points="194.274,514.895 3152.76,514.895 "/>
<polyline clip-path="url(#clip702)" style="stroke:#000000; stroke-linecap:round; stroke-linejoin:round; stroke-width:2; stroke-opacity:0.1; fill:none" points="194.274,218.467 3152.76,218.467 "/>
<polyline clip-path="url(#clip700)" style="stroke:#000000; stroke-linecap:round; stroke-linejoin:round; stroke-width:4; stroke-opacity:1; fill:none" points="194.274,1443.7 194.274,47.2441 "/>
<polyline clip-path="url(#clip700)" style="stroke:#000000; stroke-linecap:round; stroke-linejoin:round; stroke-width:4; stroke-opacity:1; fill:none" points="3152.76,1443.7 3152.76,47.2441 "/>
<polyline clip-path="url(#clip700)" style="stroke:#000000; stroke-linecap:round; stroke-linejoin:round; stroke-width:4; stroke-opacity:1; fill:none" points="194.274,1404.18 213.172,1404.18 "/>
<polyline clip-path="url(#clip700)" style="stroke:#000000; stroke-linecap:round; stroke-linejoin:round; stroke-width:4; stroke-opacity:1; fill:none" points="194.274,1107.75 213.172,1107.75 "/>
<polyline clip-path="url(#clip700)" style="stroke:#000000; stroke-linecap:round; stroke-linejoin:round; stroke-width:4; stroke-opacity:1; fill:none" points="194.274,811.322 213.172,811.322 "/>
<polyline clip-path="url(#clip700)" style="stroke:#000000; stroke-linecap:round; stroke-linejoin:round; stroke-width:4; stroke-opacity:1; fill:none" points="194.274,514.895 213.172,514.895 "/>
<polyline clip-path="url(#clip700)" style="stroke:#000000; stroke-linecap:round; stroke-linejoin:round; stroke-width:4; stroke-opacity:1; fill:none" points="194.274,218.467 213.172,218.467 "/>
<polyline clip-path="url(#clip700)" style="stroke:#000000; stroke-linecap:round; stroke-linejoin:round; stroke-width:4; stroke-opacity:1; fill:none" points="3152.76,1404.18 3133.86,1404.18 "/>
<polyline clip-path="url(#clip700)" style="stroke:#000000; stroke-linecap:round; stroke-linejoin:round; stroke-width:4; stroke-opacity:1; fill:none" points="3152.76,1107.75 3133.86,1107.75 "/>
<polyline clip-path="url(#clip700)" style="stroke:#000000; stroke-linecap:round; stroke-linejoin:round; stroke-width:4; stroke-opacity:1; fill:none" points="3152.76,811.322 3133.86,811.322 "/>
<polyline clip-path="url(#clip700)" style="stroke:#000000; stroke-linecap:round; stroke-linejoin:round; stroke-width:4; stroke-opacity:1; fill:none" points="3152.76,514.895 3133.86,514.895 "/>
<polyline clip-path="url(#clip700)" style="stroke:#000000; stroke-linecap:round; stroke-linejoin:round; stroke-width:4; stroke-opacity:1; fill:none" points="3152.76,218.467 3133.86,218.467 "/>
<path clip-path="url(#clip700)" d="M58.9365 1389.98 Q55.3254 1389.98 53.4967 1393.54 Q51.6912 1397.08 51.6912 1404.21 Q51.6912 1411.32 53.4967 1414.88 Q55.3254 1418.43 58.9365 1418.43 Q62.5707 1418.43 64.3763 1414.88 Q66.205 1411.32 66.205 1404.21 Q66.205 1397.08 64.3763 1393.54 Q62.5707 1389.98 58.9365 1389.98 M58.9365 1386.27 Q64.7467 1386.27 67.8022 1390.88 Q70.8809 1395.46 70.8809 1404.21 Q70.8809 1412.94 67.8022 1417.55 Q64.7467 1422.13 58.9365 1422.13 Q53.1264 1422.13 50.0477 1417.55 Q46.9921 1412.94 46.9921 1404.21 Q46.9921 1395.46 50.0477 1390.88 Q53.1264 1386.27 58.9365 1386.27 Z" fill="#000000" fill-rule="nonzero" fill-opacity="1" /><path clip-path="url(#clip700)" d="M79.0984 1415.58 L83.9827 1415.58 L83.9827 1421.46 L79.0984 1421.46 L79.0984 1415.58 Z" fill="#000000" fill-rule="nonzero" fill-opacity="1" /><path clip-path="url(#clip700)" d="M104.168 1389.98 Q100.557 1389.98 98.728 1393.54 Q96.9224 1397.08 96.9224 1404.21 Q96.9224 1411.32 98.728 1414.88 Q100.557 1418.43 104.168 1418.43 Q107.802 1418.43 109.608 1414.88 Q111.436 1411.32 111.436 1404.21 Q111.436 1397.08 109.608 1393.54 Q107.802 1389.98 104.168 1389.98 M104.168 1386.27 Q109.978 1386.27 113.033 1390.88 Q116.112 1395.46 116.112 1404.21 Q116.112 1412.94 113.033 1417.55 Q109.978 1422.13 104.168 1422.13 Q98.3576 1422.13 95.2789 1417.55 Q92.2234 1412.94 92.2234 1404.21 Q92.2234 1395.46 95.2789 1390.88 Q98.3576 1386.27 104.168 1386.27 Z" fill="#000000" fill-rule="nonzero" fill-opacity="1" /><path clip-path="url(#clip700)" d="M134.33 1389.98 Q130.719 1389.98 128.89 1393.54 Q127.084 1397.08 127.084 1404.21 Q127.084 1411.32 128.89 1414.88 Q130.719 1418.43 134.33 1418.43 Q137.964 1418.43 139.769 1414.88 Q141.598 1411.32 141.598 1404.21 Q141.598 1397.08 139.769 1393.54 Q137.964 1389.98 134.33 1389.98 M134.33 1386.27 Q140.14 1386.27 143.195 1390.88 Q146.274 1395.46 146.274 1404.21 Q146.274 1412.94 143.195 1417.55 Q140.14 1422.13 134.33 1422.13 Q128.519 1422.13 125.441 1417.55 Q122.385 1412.94 122.385 1404.21 Q122.385 1395.46 125.441 1390.88 Q128.519 1386.27 134.33 1386.27 Z" fill="#000000" fill-rule="nonzero" fill-opacity="1" /><path clip-path="url(#clip700)" d="M59.9319 1093.55 Q56.3208 1093.55 54.4921 1097.11 Q52.6865 1100.66 52.6865 1107.78 Q52.6865 1114.89 54.4921 1118.46 Q56.3208 1122 59.9319 1122 Q63.5661 1122 65.3717 1118.46 Q67.2004 1114.89 67.2004 1107.78 Q67.2004 1100.66 65.3717 1097.11 Q63.5661 1093.55 59.9319 1093.55 M59.9319 1089.84 Q65.742 1089.84 68.7976 1094.45 Q71.8763 1099.03 71.8763 1107.78 Q71.8763 1116.51 68.7976 1121.12 Q65.742 1125.7 59.9319 1125.7 Q54.1217 1125.7 51.043 1121.12 Q47.9875 1116.51 47.9875 1107.78 Q47.9875 1099.03 51.043 1094.45 Q54.1217 1089.84 59.9319 1089.84 Z" fill="#000000" fill-rule="nonzero" fill-opacity="1" /><path clip-path="url(#clip700)" d="M80.0938 1119.15 L84.978 1119.15 L84.978 1125.03 L80.0938 1125.03 L80.0938 1119.15 Z" fill="#000000" fill-rule="nonzero" fill-opacity="1" /><path clip-path="url(#clip700)" d="M99.1909 1121.09 L115.51 1121.09 L115.51 1125.03 L93.566 1125.03 L93.566 1121.09 Q96.228 1118.34 100.811 1113.71 Q105.418 1109.06 106.598 1107.72 Q108.844 1105.19 109.723 1103.46 Q110.626 1101.7 110.626 1100.01 Q110.626 1097.25 108.682 1095.52 Q106.76 1093.78 103.658 1093.78 Q101.459 1093.78 99.0057 1094.54 Q96.5752 1095.31 93.7974 1096.86 L93.7974 1092.14 Q96.6215 1091 99.0752 1090.42 Q101.529 1089.84 103.566 1089.84 Q108.936 1089.84 112.131 1092.53 Q115.325 1095.22 115.325 1099.71 Q115.325 1101.84 114.515 1103.76 Q113.728 1105.66 111.621 1108.25 Q111.043 1108.92 107.941 1112.14 Q104.839 1115.33 99.1909 1121.09 Z" fill="#000000" fill-rule="nonzero" fill-opacity="1" /><path clip-path="url(#clip700)" d="M125.371 1090.47 L143.728 1090.47 L143.728 1094.41 L129.654 1094.41 L129.654 1102.88 Q130.672 1102.53 131.691 1102.37 Q132.709 1102.18 133.728 1102.18 Q139.515 1102.18 142.894 1105.35 Q146.274 1108.53 146.274 1113.94 Q146.274 1119.52 142.802 1122.62 Q139.33 1125.7 133.01 1125.7 Q130.834 1125.7 128.566 1125.33 Q126.32 1124.96 123.913 1124.22 L123.913 1119.52 Q125.996 1120.65 128.219 1121.21 Q130.441 1121.77 132.918 1121.77 Q136.922 1121.77 139.26 1119.66 Q141.598 1117.55 141.598 1113.94 Q141.598 1110.33 139.26 1108.22 Q136.922 1106.12 132.918 1106.12 Q131.043 1106.12 129.168 1106.53 Q127.316 1106.95 125.371 1107.83 L125.371 1090.47 Z" fill="#000000" fill-rule="nonzero" fill-opacity="1" /><path clip-path="url(#clip700)" d="M58.9365 797.121 Q55.3254 797.121 53.4967 800.686 Q51.6912 804.227 51.6912 811.357 Q51.6912 818.463 53.4967 822.028 Q55.3254 825.57 58.9365 825.57 Q62.5707 825.57 64.3763 822.028 Q66.205 818.463 66.205 811.357 Q66.205 804.227 64.3763 800.686 Q62.5707 797.121 58.9365 797.121 M58.9365 793.417 Q64.7467 793.417 67.8022 798.024 Q70.8809 802.607 70.8809 811.357 Q70.8809 820.084 67.8022 824.69 Q64.7467 829.274 58.9365 829.274 Q53.1264 829.274 50.0477 824.69 Q46.9921 820.084 46.9921 811.357 Q46.9921 802.607 50.0477 798.024 Q53.1264 793.417 58.9365 793.417 Z" fill="#000000" fill-rule="nonzero" fill-opacity="1" /><path clip-path="url(#clip700)" d="M79.0984 822.723 L83.9827 822.723 L83.9827 828.602 L79.0984 828.602 L79.0984 822.723 Z" fill="#000000" fill-rule="nonzero" fill-opacity="1" /><path clip-path="url(#clip700)" d="M94.2141 794.042 L112.57 794.042 L112.57 797.977 L98.4965 797.977 L98.4965 806.45 Q99.515 806.102 100.534 805.94 Q101.552 805.755 102.571 805.755 Q108.358 805.755 111.737 808.926 Q115.117 812.098 115.117 817.514 Q115.117 823.093 111.645 826.195 Q108.172 829.274 101.853 829.274 Q99.677 829.274 97.4085 828.903 Q95.1632 828.533 92.7558 827.792 L92.7558 823.093 Q94.8391 824.227 97.0613 824.783 Q99.2835 825.338 101.76 825.338 Q105.765 825.338 108.103 823.232 Q110.441 821.126 110.441 817.514 Q110.441 813.903 108.103 811.797 Q105.765 809.69 101.76 809.69 Q99.8854 809.69 98.0104 810.107 Q96.1585 810.524 94.2141 811.403 L94.2141 794.042 Z" fill="#000000" fill-rule="nonzero" fill-opacity="1" /><path clip-path="url(#clip700)" d="M134.33 797.121 Q130.719 797.121 128.89 800.686 Q127.084 804.227 127.084 811.357 Q127.084 818.463 128.89 822.028 Q130.719 825.57 134.33 825.57 Q137.964 825.57 139.769 822.028 Q141.598 818.463 141.598 811.357 Q141.598 804.227 139.769 800.686 Q137.964 797.121 134.33 797.121 M134.33 793.417 Q140.14 793.417 143.195 798.024 Q146.274 802.607 146.274 811.357 Q146.274 820.084 143.195 824.69 Q140.14 829.274 134.33 829.274 Q128.519 829.274 125.441 824.69 Q122.385 820.084 122.385 811.357 Q122.385 802.607 125.441 798.024 Q128.519 793.417 134.33 793.417 Z" fill="#000000" fill-rule="nonzero" fill-opacity="1" /><path clip-path="url(#clip700)" d="M59.9319 500.693 Q56.3208 500.693 54.4921 504.258 Q52.6865 507.8 52.6865 514.929 Q52.6865 522.036 54.4921 525.601 Q56.3208 529.142 59.9319 529.142 Q63.5661 529.142 65.3717 525.601 Q67.2004 522.036 67.2004 514.929 Q67.2004 507.8 65.3717 504.258 Q63.5661 500.693 59.9319 500.693 M59.9319 496.99 Q65.742 496.99 68.7976 501.596 Q71.8763 506.179 71.8763 514.929 Q71.8763 523.656 68.7976 528.263 Q65.742 532.846 59.9319 532.846 Q54.1217 532.846 51.043 528.263 Q47.9875 523.656 47.9875 514.929 Q47.9875 506.179 51.043 501.596 Q54.1217 496.99 59.9319 496.99 Z" fill="#000000" fill-rule="nonzero" fill-opacity="1" /><path clip-path="url(#clip700)" d="M80.0938 526.295 L84.978 526.295 L84.978 532.175 L80.0938 532.175 L80.0938 526.295 Z" fill="#000000" fill-rule="nonzero" fill-opacity="1" /><path clip-path="url(#clip700)" d="M93.9826 497.615 L116.205 497.615 L116.205 499.605 L103.658 532.175 L98.7743 532.175 L110.58 501.55 L93.9826 501.55 L93.9826 497.615 Z" fill="#000000" fill-rule="nonzero" fill-opacity="1" /><path clip-path="url(#clip700)" d="M125.371 497.615 L143.728 497.615 L143.728 501.55 L129.654 501.55 L129.654 510.022 Q130.672 509.675 131.691 509.513 Q132.709 509.328 133.728 509.328 Q139.515 509.328 142.894 512.499 Q146.274 515.67 146.274 521.087 Q146.274 526.665 142.802 529.767 Q139.33 532.846 133.01 532.846 Q130.834 532.846 128.566 532.476 Q126.32 532.105 123.913 531.365 L123.913 526.665 Q125.996 527.8 128.219 528.355 Q130.441 528.911 132.918 528.911 Q136.922 528.911 139.26 526.804 Q141.598 524.698 141.598 521.087 Q141.598 517.476 139.26 515.369 Q136.922 513.263 132.918 513.263 Q131.043 513.263 129.168 513.679 Q127.316 514.096 125.371 514.976 L125.371 497.615 Z" fill="#000000" fill-rule="nonzero" fill-opacity="1" /><path clip-path="url(#clip700)" d="M49.7467 231.812 L57.3856 231.812 L57.3856 205.446 L49.0754 207.113 L49.0754 202.854 L57.3393 201.187 L62.0152 201.187 L62.0152 231.812 L69.654 231.812 L69.654 235.747 L49.7467 235.747 L49.7467 231.812 Z" fill="#000000" fill-rule="nonzero" fill-opacity="1" /><path clip-path="url(#clip700)" d="M79.0984 229.868 L83.9827 229.868 L83.9827 235.747 L79.0984 235.747 L79.0984 229.868 Z" fill="#000000" fill-rule="nonzero" fill-opacity="1" /><path clip-path="url(#clip700)" d="M104.168 204.266 Q100.557 204.266 98.728 207.831 Q96.9224 211.372 96.9224 218.502 Q96.9224 225.608 98.728 229.173 Q100.557 232.715 104.168 232.715 Q107.802 232.715 109.608 229.173 Q111.436 225.608 111.436 218.502 Q111.436 211.372 109.608 207.831 Q107.802 204.266 104.168 204.266 M104.168 200.562 Q109.978 200.562 113.033 205.169 Q116.112 209.752 116.112 218.502 Q116.112 227.229 113.033 231.835 Q109.978 236.418 104.168 236.418 Q98.3576 236.418 95.2789 231.835 Q92.2234 227.229 92.2234 218.502 Q92.2234 209.752 95.2789 205.169 Q98.3576 200.562 104.168 200.562 Z" fill="#000000" fill-rule="nonzero" fill-opacity="1" /><path clip-path="url(#clip700)" d="M134.33 204.266 Q130.719 204.266 128.89 207.831 Q127.084 211.372 127.084 218.502 Q127.084 225.608 128.89 229.173 Q130.719 232.715 134.33 232.715 Q137.964 232.715 139.769 229.173 Q141.598 225.608 141.598 218.502 Q141.598 211.372 139.769 207.831 Q137.964 204.266 134.33 204.266 M134.33 200.562 Q140.14 200.562 143.195 205.169 Q146.274 209.752 146.274 218.502 Q146.274 227.229 143.195 231.835 Q140.14 236.418 134.33 236.418 Q128.519 236.418 125.441 231.835 Q122.385 227.229 122.385 218.502 Q122.385 209.752 125.441 205.169 Q128.519 200.562 134.33 200.562 Z" fill="#000000" fill-rule="nonzero" fill-opacity="1" /><polyline clip-path="url(#clip702)" style="stroke:#009af9; stroke-linecap:round; stroke-linejoin:round; stroke-width:32; stroke-opacity:1; fill:none" points="194.274,1404.18 197.235,1404.15 200.197,1404.06 203.158,1403.92 206.12,1403.72 209.081,1403.47 212.043,1403.16 215.004,1402.81 217.966,1402.4 220.927,1401.95 223.888,1401.45 226.85,1400.9 229.811,1400.31 232.773,1399.67 235.734,1398.99 238.696,1398.27 241.657,1397.51 244.619,1396.71 247.58,1395.87 250.541,1394.99 253.503,1394.08 256.464,1393.13 259.426,1392.14 262.387,1391.12 265.349,1390.06 268.31,1388.98 271.272,1387.86 274.233,1386.71 277.194,1385.52 280.156,1384.31 283.117,1383.07 286.079,1381.8 289.04,1380.51 292.002,1379.18 294.963,1377.83 297.925,1376.45 300.886,1375.05 303.847,1373.62 306.809,1372.17 309.77,1370.7 312.732,1369.2 315.693,1367.68 318.655,1366.13 321.616,1364.57 324.578,1362.98 327.539,1361.37 330.5,1359.75 333.462,1358.1 336.423,1356.44 339.385,1354.75 342.346,1353.05 345.308,1351.33 348.269,1349.59 351.23,1347.83 354.192,1346.06 357.153,1344.27 360.115,1342.47 363.076,1340.65 366.038,1338.81 368.999,1336.96 371.961,1335.09 374.922,1333.21 377.883,1331.32 380.845,1329.41 383.806,1327.49 386.768,1325.56 389.729,1323.62 392.691,1321.66 395.652,1319.69 398.614,1317.71 401.575,1315.71 404.536,1313.71 407.498,1311.69 410.459,1309.67 413.421,1307.63 416.382,1305.58 419.344,1303.53 422.305,1301.46 425.267,1299.39 428.228,1297.3 431.189,1295.21 434.151,1293.11 437.112,1291 440.074,1288.88 443.035,1286.75 445.997,1284.61 448.958,1282.47 451.92,1280.32 454.881,1278.17 457.842,1276 460.804,1273.83 463.765,1271.65 466.727,1269.47 469.688,1267.28 472.65,1265.08 475.611,1262.88 478.573,1260.67 481.534,1258.46 484.495,1256.24 487.457,1254.01 490.418,1251.78 493.38,1249.55 496.341,1247.31 499.303,1245.07 502.264,1242.82 505.226,1240.57 508.187,1238.31 511.148,1236.05 514.11,1233.78 517.071,1231.51 520.033,1229.24 522.994,1226.96 525.956,1224.69 528.917,1222.4 531.879,1220.12 534.84,1217.83 537.801,1215.54 540.763,1213.24 543.724,1210.94 546.686,1208.64 549.647,1206.34 552.609,1204.04 555.57,1201.73 558.532,1199.42 561.493,1197.11 564.454,1194.8 567.416,1192.48 570.377,1190.17 573.339,1187.85 576.3,1185.53 579.262,1183.21 582.223,1180.89 585.185,1178.56 588.146,1176.24 591.107,1173.91 594.069,1171.58 597.03,1169.26 599.992,1166.93 602.953,1164.6 605.915,1162.27 608.876,1159.94 611.838,1157.61 614.799,1155.28 617.76,1152.95 620.722,1150.61 623.683,1148.28 626.645,1145.95 629.606,1143.62 632.568,1141.29 635.529,1138.95 638.491,1136.62 641.452,1134.29 644.413,1131.96 647.375,1129.63 650.336,1127.3 653.298,1124.97 656.259,1122.64 659.221,1120.31 662.182,1117.98 665.143,1115.65 668.105,1113.33 671.066,1111 674.028,1108.68 676.989,1106.35 679.951,1104.03 682.912,1101.71 685.874,1099.39 688.835,1097.07 691.796,1094.75 694.758,1092.43 697.719,1090.12 700.681,1087.81 703.642,1085.49 706.604,1083.18 709.565,1080.87 712.527,1078.57 715.488,1076.26 718.449,1073.95 721.411,1071.65 724.372,1069.35 727.334,1067.05 730.295,1064.75 733.257,1062.46 736.218,1060.17 739.18,1057.87 742.141,1055.58 745.102,1053.3 748.064,1051.01 751.025,1048.73 753.987,1046.45 756.948,1044.17 759.91,1041.89 762.871,1039.62 765.833,1037.34 768.794,1035.07 771.755,1032.81 774.717,1030.54 777.678,1028.28 780.64,1026.02 783.601,1023.76 786.563,1021.51 789.524,1019.25 792.486,1017 795.447,1014.76 798.408,1012.51 801.37,1010.27 804.331,1008.03 807.293,1005.8 810.254,1003.56 813.216,1001.33 816.177,999.103 819.139,996.878 822.1,994.655 825.061,992.436 828.023,990.22 830.984,988.007 833.946,985.796 836.907,983.589 839.869,981.384 842.83,979.183 845.792,976.985 848.753,974.79 851.714,972.598 854.676,970.41 857.637,968.224 860.599,966.042 863.56,963.863 866.522,961.687 869.483,959.514 872.445,957.345 875.406,955.179 878.367,953.016 881.329,950.857 884.29,948.701 887.252,946.548 890.213,944.399 893.175,942.253 896.136,940.11 899.098,937.971 902.059,935.836 905.02,933.703 907.982,931.575 910.943,929.45 913.905,927.328 916.866,925.21 919.828,923.096 922.789,920.985 925.751,918.877 928.712,916.773 931.673,914.673 934.635,912.577 937.596,910.484 940.558,908.395 943.519,906.309 946.481,904.227 949.442,902.149 952.403,900.074 955.365,898.004 958.326,895.937 961.288,893.873 964.249,891.814 967.211,889.758 970.172,887.706 973.134,885.658 976.095,883.614 979.056,881.573 982.018,879.536 984.979,877.504 987.941,875.475 990.902,873.449 993.864,871.428 996.825,869.411 999.787,867.397 1002.75,865.388 1005.71,863.382 1008.67,861.381 1011.63,859.383 1014.59,857.389 1017.56,855.399 1020.52,853.413 1023.48,851.431 1026.44,849.453 1029.4,847.479 1032.36,845.509 1035.32,843.544 1038.29,841.582 1041.25,839.624 1044.21,837.67 1047.17,835.72 1050.13,833.774 1053.09,831.832 1056.05,829.894 1059.02,827.96 1061.98,826.031 1064.94,824.105 1067.9,822.183 1070.86,820.266 1073.82,818.352 1076.78,816.443 1079.75,814.538 1082.71,812.636 1085.67,810.739 1088.63,808.846 1091.59,806.957 1094.55,805.072 1097.51,803.191 1100.48,801.315 1103.44,799.442 1106.4,797.574 1109.36,795.709 1112.32,793.849 1115.28,791.993 1118.24,790.141 1121.21,788.293 1124.17,786.45 1127.13,784.61 1130.09,782.775 1133.05,780.943 1136.01,779.116 1138.97,777.293 1141.94,775.475 1144.9,773.66 1147.86,771.849 1150.82,770.043 1153.78,768.241 1156.74,766.443 1159.7,764.649 1162.67,762.86 1165.63,761.074 1168.59,759.293 1171.55,757.516 1174.51,755.743 1177.47,753.974 1180.43,752.21 1183.4,750.449 1186.36,748.693 1189.32,746.941 1192.28,745.194 1195.24,743.45 1198.2,741.711 1201.16,739.976 1204.13,738.245 1207.09,736.518 1210.05,734.795 1213.01,733.077 1215.97,731.363 1218.93,729.653 1221.89,727.947 1224.86,726.246 1227.82,724.548 1230.78,722.855 1233.74,721.167 1236.7,719.482 1239.66,717.801 1242.62,716.125 1245.59,714.453 1248.55,712.785 1251.51,711.121 1254.47,709.462 1257.43,707.807 1260.39,706.155 1263.36,704.508 1266.32,702.866 1269.28,701.227 1272.24,699.593 1275.2,697.962 1278.16,696.336 1281.12,694.714 1284.09,693.097 1287.05,691.483 1290.01,689.874 1292.97,688.269 1295.93,686.667 1298.89,685.07 1301.85,683.478 1304.82,681.889 1307.78,680.305 1310.74,678.724 1313.7,677.148 1316.66,675.576 1319.62,674.008 1322.58,672.444 1325.55,670.885 1328.51,669.329 1331.47,667.778 1334.43,666.23 1337.39,664.687 1340.35,663.148 1343.31,661.613 1346.28,660.082 1349.24,658.556 1352.2,657.033 1355.16,655.514 1358.12,654 1361.08,652.49 1364.04,650.984 1367.01,649.481 1369.97,647.983 1372.93,646.489 1375.89,644.999 1378.85,643.514 1381.81,642.032 1384.77,640.554 1387.74,639.081 1390.7,637.611 1393.66,636.146 1396.62,634.684 1399.58,633.227 1402.54,631.774 1405.5,630.324 1408.47,628.879 1411.43,627.438 1414.39,626.001 1417.35,624.568 1420.31,623.139 1423.27,621.714 1426.23,620.293 1429.2,618.876 1432.16,617.463 1435.12,616.054 1438.08,614.649 1441.04,613.248 1444,611.851 1446.96,610.458 1449.93,609.069 1452.89,607.684 1455.85,606.303 1458.81,604.926 1461.77,603.553 1464.73,602.184 1467.69,600.818 1470.66,599.457 1473.62,598.1 1476.58,596.747 1479.54,595.398 1482.5,594.052 1485.46,592.711 1488.42,591.373 1491.39,590.039 1494.35,588.71 1497.31,587.384 1500.27,586.062 1503.23,584.744 1506.19,583.43 1509.15,582.119 1512.12,580.813 1515.08,579.51 1518.04,578.212 1521,576.917 1523.96,575.626 1526.92,574.338 1529.88,573.055 1532.85,571.775 1535.81,570.5 1538.77,569.228 1541.73,567.96 1544.69,566.695 1547.65,565.435 1550.62,564.178 1553.58,562.925 1556.54,561.676 1559.5,560.43 1562.46,559.189 1565.42,557.951 1568.38,556.716 1571.35,555.486 1574.31,554.259 1577.27,553.036 1580.23,551.817 1583.19,550.601 1586.15,549.39 1589.11,548.181 1592.08,546.977 1595.04,545.776 1598,544.579 1600.96,543.386 1603.92,542.196 1606.88,541.01 1609.84,539.827 1612.81,538.649 1615.77,537.473 1618.73,536.302 1621.69,535.134 1624.65,533.97 1627.61,532.809 1630.57,531.652 1633.54,530.499 1636.5,529.349 1639.46,528.203 1642.42,527.06 1645.38,525.921 1648.34,524.786 1651.3,523.654 1654.27,522.526 1657.23,521.401 1660.19,520.28 1663.15,519.162 1666.11,518.048 1669.07,516.937 1672.03,515.83 1675,514.727 1677.96,513.627 1680.92,512.53 1683.88,511.437 1686.84,510.348 1689.8,509.262 1692.76,508.179 1695.73,507.1 1698.69,506.025 1701.65,504.953 1704.61,503.884 1707.57,502.819 1710.53,501.757 1713.49,500.699 1716.46,499.644 1719.42,498.592 1722.38,497.544 1725.34,496.5 1728.3,495.458 1731.26,494.421 1734.22,493.386 1737.19,492.355 1740.15,491.327 1743.11,490.303 1746.07,489.282 1749.03,488.264 1751.99,487.25 1754.95,486.239 1757.92,485.231 1760.88,484.227 1763.84,483.226 1766.8,482.228 1769.76,481.234 1772.72,480.243 1775.68,479.255 1778.65,478.27 1781.61,477.289 1784.57,476.31 1787.53,475.335 1790.49,474.364 1793.45,473.395 1796.41,472.43 1799.38,471.468 1802.34,470.509 1805.3,469.553 1808.26,468.601 1811.22,467.652 1814.18,466.705 1817.14,465.762 1820.11,464.823 1823.07,463.886 1826.03,462.952 1828.99,462.022 1831.95,461.095 1834.91,460.17 1837.88,459.249 1840.84,458.331 1843.8,457.417 1846.76,456.505 1849.72,455.596 1852.68,454.69 1855.64,453.788 1858.61,452.888 1861.57,451.992 1864.53,451.098 1867.49,450.208 1870.45,449.32 1873.41,448.436 1876.37,447.555 1879.34,446.676 1882.3,445.801 1885.26,444.929 1888.22,444.059 1891.18,443.193 1894.14,442.329 1897.1,441.469 1900.07,440.611 1903.03,439.757 1905.99,438.905 1908.95,438.056 1911.91,437.21 1914.87,436.367 1917.83,435.527 1920.8,434.69 1923.76,433.856 1926.72,433.025 1929.68,432.196 1932.64,431.371 1935.6,430.548 1938.56,429.728 1941.53,428.911 1944.49,428.097 1947.45,427.286 1950.41,426.478 1953.37,425.672 1956.33,424.869 1959.29,424.069 1962.26,423.272 1965.22,422.478 1968.18,421.686 1971.14,420.897 1974.1,420.111 1977.06,419.328 1980.02,418.547 1982.99,417.77 1985.95,416.995 1988.91,416.222 1991.87,415.453 1994.83,414.686 1997.79,413.922 2000.75,413.161 2003.72,412.402 2006.68,411.646 2009.64,410.893 2012.6,410.142 2015.56,409.394 2018.52,408.649 2021.48,407.907 2024.45,407.167 2027.41,406.429 2030.37,405.695 2033.33,404.963 2036.29,404.233 2039.25,403.506 2042.21,402.782 2045.18,402.06 2048.14,401.341 2051.1,400.625 2054.06,399.911 2057.02,399.2 2059.98,398.491 2062.94,397.785 2065.91,397.081 2068.87,396.38 2071.83,395.681 2074.79,394.985 2077.75,394.291 2080.71,393.6 2083.67,392.911 2086.64,392.225 2089.6,391.541 2092.56,390.86 2095.52,390.181 2098.48,389.505 2101.44,388.831 2104.4,388.16 2107.37,387.49 2110.33,386.824 2113.29,386.16 2116.25,385.498 2119.21,384.839 2122.17,384.182 2125.14,383.527 2128.1,382.875 2131.06,382.225 2134.02,381.577 2136.98,380.932 2139.94,380.29 2142.9,379.649 2145.87,379.011 2148.83,378.375 2151.79,377.742 2154.75,377.111 2157.71,376.482 2160.67,375.855 2163.63,375.231 2166.6,374.609 2169.56,373.99 2172.52,373.372 2175.48,372.757 2178.44,372.144 2181.4,371.534 2184.36,370.925 2187.33,370.319 2190.29,369.715 2193.25,369.114 2196.21,368.514 2199.17,367.917 2202.13,367.322 2205.09,366.73 2208.06,366.139 2211.02,365.551 2213.98,364.964 2216.94,364.38 2219.9,363.798 2222.86,363.219 2225.82,362.641 2228.79,362.066 2231.75,361.493 2234.71,360.921 2237.67,360.352 2240.63,359.786 2243.59,359.221 2246.55,358.658 2249.52,358.098 2252.48,357.539 2255.44,356.983 2258.4,356.429 2261.36,355.877 2264.32,355.327 2267.28,354.779 2270.25,354.233 2273.21,353.689 2276.17,353.147 2279.13,352.607 2282.09,352.069 2285.05,351.534 2288.01,351 2290.98,350.468 2293.94,349.939 2296.9,349.411 2299.86,348.885 2302.82,348.362 2305.78,347.84 2308.74,347.32 2311.71,346.803 2314.67,346.287 2317.63,345.773 2320.59,345.261 2323.55,344.751 2326.51,344.243 2329.47,343.737 2332.44,343.233 2335.4,342.731 2338.36,342.23 2341.32,341.732 2344.28,341.235 2347.24,340.74 2350.2,340.248 2353.17,339.757 2356.13,339.268 2359.09,338.781 2362.05,338.295 2365.01,337.812 2367.97,337.33 2370.93,336.85 2373.9,336.372 2376.86,335.896 2379.82,335.422 2382.78,334.949 2385.74,334.479 2388.7,334.01 2391.66,333.543 2394.63,333.077 2397.59,332.614 2400.55,332.152 2403.51,331.692 2406.47,331.234 2409.43,330.777 2412.4,330.322 2415.36,329.869 2418.32,329.418 2421.28,328.968 2424.24,328.521 2427.2,328.075 2430.16,327.63 2433.13,327.187 2436.09,326.747 2439.05,326.307 2442.01,325.87 2444.97,325.434 2447.93,324.999 2450.89,324.567 2453.86,324.136 2456.82,323.707 2459.78,323.279 2462.74,322.853 2465.7,322.429 2468.66,322.006 2471.62,321.585 2474.59,321.166 2477.55,320.748 2480.51,320.332 2483.47,319.918 2486.43,319.505 2489.39,319.093 2492.35,318.684 2495.32,318.276 2498.28,317.869 2501.24,317.464 2504.2,317.061 2507.16,316.659 2510.12,316.259 2513.08,315.86 2516.05,315.463 2519.01,315.067 2521.97,314.673 2524.93,314.28 2527.89,313.889 2530.85,313.5 2533.81,313.112 2536.78,312.726 2539.74,312.341 2542.7,311.957 2545.66,311.575 2548.62,311.195 2551.58,310.816 2554.54,310.439 2557.51,310.063 2560.47,309.688 2563.43,309.315 2566.39,308.944 2569.35,308.573 2572.31,308.205 2575.27,307.838 2578.24,307.472 2581.2,307.108 2584.16,306.745 2587.12,306.383 2590.08,306.023 2593.04,305.665 2596,305.308 2598.97,304.952 2601.93,304.598 2604.89,304.245 2607.85,303.893 2610.81,303.543 2613.77,303.194 2616.73,302.847 2619.7,302.501 2622.66,302.156 2625.62,301.813 2628.58,301.471 2631.54,301.13 2634.5,300.791 2637.46,300.453 2640.43,300.117 2643.39,299.781 2646.35,299.447 2649.31,299.115 2652.27,298.784 2655.23,298.454 2658.19,298.125 2661.16,297.798 2664.12,297.472 2667.08,297.147 2670.04,296.823 2673,296.501 2675.96,296.18 2678.92,295.861 2681.89,295.542 2684.85,295.225 2687.81,294.909 2690.77,294.595 2693.73,294.281 2696.69,293.969 2699.66,293.658 2702.62,293.349 2705.58,293.04 2708.54,292.733 2711.5,292.427 2714.46,292.122 2717.42,291.819 2720.39,291.517 2723.35,291.215 2726.31,290.916 2729.27,290.617 2732.23,290.319 2735.19,290.023 2738.15,289.728 2741.12,289.434 2744.08,289.141 2747.04,288.849 2750,288.559 2752.96,288.27 2755.92,287.981 2758.88,287.694 2761.85,287.409 2764.81,287.124 2767.77,286.84 2770.73,286.558 2773.69,286.276 2776.65,285.996 2779.61,285.717 2782.58,285.439 2785.54,285.162 2788.5,284.887 2791.46,284.612 2794.42,284.338 2797.38,284.066 2800.34,283.795 2803.31,283.524 2806.27,283.255 2809.23,282.987 2812.19,282.72 2815.15,282.454 2818.11,282.189 2821.07,281.925 2824.04,281.663 2827,281.401 2829.96,281.14 2832.92,280.881 2835.88,280.622 2838.84,280.365 2841.8,280.108 2844.77,279.853 2847.73,279.598 2850.69,279.345 2853.65,279.093 2856.61,278.841 2859.57,278.591 2862.53,278.342 2865.5,278.093 2868.46,277.846 2871.42,277.6 2874.38,277.354 2877.34,277.11 2880.3,276.867 2883.26,276.624 2886.23,276.383 2889.19,276.143 2892.15,275.903 2895.11,275.665 2898.07,275.427 2901.03,275.191 2903.99,274.955 2906.96,274.721 2909.92,274.487 2912.88,274.254 2915.84,274.023 2918.8,273.792 2921.76,273.562 2924.72,273.333 2927.69,273.105 2930.65,272.878 2933.61,272.652 2936.57,272.426 2939.53,272.202 2942.49,271.979 2945.45,271.756 2948.42,271.535 2951.38,271.314 2954.34,271.094 2957.3,270.875 2960.26,270.657 2963.22,270.44 2966.18,270.224 2969.15,270.008 2972.11,269.794 2975.07,269.58 2978.03,269.368 2980.99,269.156 2983.95,268.945 2986.92,268.734 2989.88,268.525 2992.84,268.317 2995.8,268.109 2998.76,267.902 3001.72,267.696 3004.68,267.491 3007.65,267.287 3010.61,267.084 3013.57,266.881 3016.53,266.679 3019.49,266.478 3022.45,266.278 3025.41,266.079 3028.38,265.88 3031.34,265.683 3034.3,265.486 3037.26,265.29 3040.22,265.094 3043.18,264.9 3046.14,264.706 3049.11,264.513 3052.07,264.321 3055.03,264.13 3057.99,263.939 3060.95,263.75 3063.91,263.561 3066.87,263.373 3069.84,263.185 3072.8,262.998 3075.76,262.813 3078.72,262.627 3081.68,262.443 3084.64,262.259 3087.6,262.076 3090.57,261.894 3093.53,261.713 3096.49,261.532 3099.45,261.352 3102.41,261.173 3105.37,260.995 3108.33,260.817 3111.3,260.64 3114.26,260.464 3117.22,260.288 3120.18,260.114 3123.14,259.94 3126.1,259.766 3129.06,259.594 3132.03,259.422 3134.99,259.25 3137.95,259.08 3140.91,258.91 3143.87,258.741 3146.83,258.572 3149.79,258.405 3152.76,258.238 "/>
<circle clip-path="url(#clip702)" cx="490.122" cy="1267.71" r="21.6" fill="#0000ff" fill-rule="evenodd" fill-opacity="1" stroke="#000000" stroke-opacity="1" stroke-width="3.2"/>
<circle clip-path="url(#clip702)" cx="785.97" cy="1034.49" r="21.6" fill="#0000ff" fill-rule="evenodd" fill-opacity="1" stroke="#000000" stroke-opacity="1" stroke-width="3.2"/>
<circle clip-path="url(#clip702)" cx="1081.82" cy="882.975" r="21.6" fill="#0000ff" fill-rule="evenodd" fill-opacity="1" stroke="#000000" stroke-opacity="1" stroke-width="3.2"/>
<circle clip-path="url(#clip702)" cx="1377.67" cy="689.977" r="21.6" fill="#0000ff" fill-rule="evenodd" fill-opacity="1" stroke="#000000" stroke-opacity="1" stroke-width="3.2"/>
<circle clip-path="url(#clip702)" cx="1673.51" cy="475.112" r="21.6" fill="#0000ff" fill-rule="evenodd" fill-opacity="1" stroke="#000000" stroke-opacity="1" stroke-width="3.2"/>
<circle clip-path="url(#clip702)" cx="1969.36" cy="563.084" r="21.6" fill="#0000ff" fill-rule="evenodd" fill-opacity="1" stroke="#000000" stroke-opacity="1" stroke-width="3.2"/>
<circle clip-path="url(#clip702)" cx="2265.21" cy="518.515" r="21.6" fill="#0000ff" fill-rule="evenodd" fill-opacity="1" stroke="#000000" stroke-opacity="1" stroke-width="3.2"/>
<circle clip-path="url(#clip702)" cx="2561.06" cy="99.2381" r="21.6" fill="#0000ff" fill-rule="evenodd" fill-opacity="1" stroke="#000000" stroke-opacity="1" stroke-width="3.2"/>
<circle clip-path="url(#clip702)" cx="2856.91" cy="359.414" r="21.6" fill="#0000ff" fill-rule="evenodd" fill-opacity="1" stroke="#000000" stroke-opacity="1" stroke-width="3.2"/>
<circle clip-path="url(#clip702)" cx="3152.76" cy="86.7664" r="21.6" fill="#0000ff" fill-rule="evenodd" fill-opacity="1" stroke="#000000" stroke-opacity="1" stroke-width="3.2"/>
<path clip-path="url(#clip700)" d="M292.89 249.313 L931.931 249.313 L931.931 93.7926 L292.89 93.7926  Z" fill="#ffffff" fill-rule="evenodd" fill-opacity="1"/>
<polyline clip-path="url(#clip700)" style="stroke:#000000; stroke-linecap:round; stroke-linejoin:round; stroke-width:4; stroke-opacity:1; fill:none" points="292.89,249.313 931.931,249.313 931.931,93.7926 292.89,93.7926 292.89,249.313 "/>
<polyline clip-path="url(#clip700)" style="stroke:#009af9; stroke-linecap:round; stroke-linejoin:round; stroke-width:20; stroke-opacity:1; fill:none" points="325.762,145.633 522.994,145.633 "/>
<path clip-path="url(#clip700)" d="M555.866 128.353 L585.102 128.353 L585.102 132.288 L572.834 132.288 L572.834 162.913 L568.135 162.913 L568.135 132.288 L555.866 132.288 L555.866 128.353 Z" fill="#000000" fill-rule="nonzero" fill-opacity="1" /><path clip-path="url(#clip700)" d="M597.486 140.968 Q596.769 140.552 595.912 140.366 Q595.079 140.158 594.06 140.158 Q590.449 140.158 588.505 142.519 Q586.584 144.857 586.584 149.255 L586.584 162.913 L582.301 162.913 L582.301 136.987 L586.584 136.987 L586.584 141.015 Q587.926 138.653 590.079 137.519 Q592.232 136.362 595.31 136.362 Q595.75 136.362 596.283 136.431 Q596.815 136.478 597.463 136.593 L597.486 140.968 Z" fill="#000000" fill-rule="nonzero" fill-opacity="1" /><path clip-path="url(#clip700)" d="M601.514 152.681 L601.514 136.987 L605.773 136.987 L605.773 152.519 Q605.773 156.2 607.209 158.052 Q608.644 159.88 611.514 159.88 Q614.963 159.88 616.954 157.681 Q618.968 155.482 618.968 151.686 L618.968 136.987 L623.227 136.987 L623.227 162.913 L618.968 162.913 L618.968 158.931 Q617.417 161.292 615.357 162.45 Q613.32 163.584 610.611 163.584 Q606.144 163.584 603.829 160.806 Q601.514 158.028 601.514 152.681 M612.232 136.362 L612.232 136.362 Z" fill="#000000" fill-rule="nonzero" fill-opacity="1" /><path clip-path="url(#clip700)" d="M654.176 148.885 L654.176 150.968 L634.593 150.968 Q634.87 155.366 637.232 157.681 Q639.616 159.973 643.852 159.973 Q646.306 159.973 648.597 159.371 Q650.912 158.769 653.181 157.565 L653.181 161.593 Q650.889 162.565 648.481 163.075 Q646.074 163.584 643.597 163.584 Q637.394 163.584 633.759 159.973 Q630.148 156.362 630.148 150.204 Q630.148 143.839 633.574 140.112 Q637.023 136.362 642.857 136.362 Q648.088 136.362 651.12 139.741 Q654.176 143.098 654.176 148.885 M649.917 147.635 Q649.87 144.14 647.949 142.056 Q646.051 139.973 642.903 139.973 Q639.338 139.973 637.185 141.987 Q635.056 144.001 634.732 147.658 L649.917 147.635 Z" fill="#000000" fill-rule="nonzero" fill-opacity="1" /><path clip-path="url(#clip700)" d="M692.764 137.751 L692.764 141.778 Q690.958 140.853 689.014 140.39 Q687.069 139.927 684.986 139.927 Q681.815 139.927 680.217 140.899 Q678.643 141.871 678.643 143.815 Q678.643 145.297 679.778 146.153 Q680.912 146.987 684.338 147.751 L685.796 148.075 Q690.333 149.047 692.231 150.829 Q694.153 152.589 694.153 155.76 Q694.153 159.371 691.282 161.477 Q688.435 163.584 683.435 163.584 Q681.352 163.584 679.083 163.167 Q676.838 162.774 674.338 161.964 L674.338 157.565 Q676.699 158.792 678.991 159.417 Q681.282 160.019 683.528 160.019 Q686.537 160.019 688.157 159.001 Q689.778 157.959 689.778 156.084 Q689.778 154.348 688.597 153.422 Q687.44 152.496 683.481 151.64 L682 151.292 Q678.042 150.459 676.282 148.746 Q674.523 147.01 674.523 144.001 Q674.523 140.343 677.116 138.353 Q679.708 136.362 684.477 136.362 Q686.838 136.362 688.921 136.709 Q691.004 137.056 692.764 137.751 Z" fill="#000000" fill-rule="nonzero" fill-opacity="1" /><path clip-path="url(#clip700)" d="M710.981 139.973 Q707.555 139.973 705.565 142.658 Q703.574 145.32 703.574 149.973 Q703.574 154.626 705.541 157.311 Q707.532 159.973 710.981 159.973 Q714.384 159.973 716.375 157.288 Q718.365 154.602 718.365 149.973 Q718.365 145.366 716.375 142.681 Q714.384 139.973 710.981 139.973 M710.981 136.362 Q716.537 136.362 719.708 139.973 Q722.879 143.584 722.879 149.973 Q722.879 156.339 719.708 159.973 Q716.537 163.584 710.981 163.584 Q705.402 163.584 702.231 159.973 Q699.083 156.339 699.083 149.973 Q699.083 143.584 702.231 139.973 Q705.402 136.362 710.981 136.362 Z" fill="#000000" fill-rule="nonzero" fill-opacity="1" /><path clip-path="url(#clip700)" d="M729.939 126.894 L734.199 126.894 L734.199 162.913 L729.939 162.913 L729.939 126.894 Z" fill="#000000" fill-rule="nonzero" fill-opacity="1" /><path clip-path="url(#clip700)" d="M742.671 152.681 L742.671 136.987 L746.93 136.987 L746.93 152.519 Q746.93 156.2 748.365 158.052 Q749.8 159.88 752.671 159.88 Q756.12 159.88 758.111 157.681 Q760.124 155.482 760.124 151.686 L760.124 136.987 L764.384 136.987 L764.384 162.913 L760.124 162.913 L760.124 158.931 Q758.573 161.292 756.513 162.45 Q754.476 163.584 751.768 163.584 Q747.3 163.584 744.986 160.806 Q742.671 158.028 742.671 152.681 M753.388 136.362 L753.388 136.362 Z" fill="#000000" fill-rule="nonzero" fill-opacity="1" /><path clip-path="url(#clip700)" d="M777.37 129.626 L777.37 136.987 L786.143 136.987 L786.143 140.297 L777.37 140.297 L777.37 154.371 Q777.37 157.542 778.226 158.445 Q779.106 159.348 781.768 159.348 L786.143 159.348 L786.143 162.913 L781.768 162.913 Q776.837 162.913 774.962 161.084 Q773.087 159.232 773.087 154.371 L773.087 140.297 L769.962 140.297 L769.962 136.987 L773.087 136.987 L773.087 129.626 L777.37 129.626 Z" fill="#000000" fill-rule="nonzero" fill-opacity="1" /><path clip-path="url(#clip700)" d="M791.745 136.987 L796.004 136.987 L796.004 162.913 L791.745 162.913 L791.745 136.987 M791.745 126.894 L796.004 126.894 L796.004 132.288 L791.745 132.288 L791.745 126.894 Z" fill="#000000" fill-rule="nonzero" fill-opacity="1" /><path clip-path="url(#clip700)" d="M814.962 139.973 Q811.536 139.973 809.545 142.658 Q807.555 145.32 807.555 149.973 Q807.555 154.626 809.522 157.311 Q811.513 159.973 814.962 159.973 Q818.365 159.973 820.356 157.288 Q822.346 154.602 822.346 149.973 Q822.346 145.366 820.356 142.681 Q818.365 139.973 814.962 139.973 M814.962 136.362 Q820.518 136.362 823.689 139.973 Q826.86 143.584 826.86 149.973 Q826.86 156.339 823.689 159.973 Q820.518 163.584 814.962 163.584 Q809.383 163.584 806.212 159.973 Q803.064 156.339 803.064 149.973 Q803.064 143.584 806.212 139.973 Q809.383 136.362 814.962 136.362 Z" fill="#000000" fill-rule="nonzero" fill-opacity="1" /><path clip-path="url(#clip700)" d="M855.471 147.265 L855.471 162.913 L851.212 162.913 L851.212 147.403 Q851.212 143.723 849.777 141.894 Q848.342 140.066 845.471 140.066 Q842.022 140.066 840.031 142.265 Q838.041 144.464 838.041 148.26 L838.041 162.913 L833.758 162.913 L833.758 136.987 L838.041 136.987 L838.041 141.015 Q839.568 138.677 841.629 137.519 Q843.712 136.362 846.42 136.362 Q850.888 136.362 853.179 139.14 Q855.471 141.894 855.471 147.265 Z" fill="#000000" fill-rule="nonzero" fill-opacity="1" /><circle clip-path="url(#clip700)" cx="424.378" cy="197.473" r="21.2677" fill="#0000ff" fill-rule="evenodd" fill-opacity="1" stroke="#000000" stroke-opacity="1" stroke-width="3.15077"/>
<path clip-path="url(#clip700)" d="M555.866 180.193 L562.834 180.193 L571.653 203.711 L580.519 180.193 L587.486 180.193 L587.486 214.753 L582.926 214.753 L582.926 184.406 L574.014 208.109 L569.315 208.109 L560.403 184.406 L560.403 214.753 L555.866 214.753 L555.866 180.193 Z" fill="#000000" fill-rule="nonzero" fill-opacity="1" /><path clip-path="url(#clip700)" d="M618.759 200.725 L618.759 202.808 L599.176 202.808 Q599.454 207.206 601.815 209.521 Q604.199 211.813 608.435 211.813 Q610.889 211.813 613.181 211.211 Q615.496 210.609 617.764 209.405 L617.764 213.433 Q615.472 214.405 613.065 214.915 Q610.658 215.424 608.181 215.424 Q601.977 215.424 598.343 211.813 Q594.732 208.202 594.732 202.044 Q594.732 195.679 598.158 191.952 Q601.607 188.202 607.44 188.202 Q612.671 188.202 615.704 191.581 Q618.759 194.938 618.759 200.725 M614.5 199.475 Q614.454 195.98 612.533 193.896 Q610.634 191.813 607.486 191.813 Q603.922 191.813 601.769 193.827 Q599.639 195.841 599.315 199.498 L614.5 199.475 Z" fill="#000000" fill-rule="nonzero" fill-opacity="1" /><path clip-path="url(#clip700)" d="M637.532 201.72 Q632.37 201.72 630.38 202.901 Q628.389 204.081 628.389 206.929 Q628.389 209.197 629.87 210.54 Q631.375 211.859 633.945 211.859 Q637.486 211.859 639.616 209.359 Q641.769 206.836 641.769 202.669 L641.769 201.72 L637.532 201.72 M646.028 199.961 L646.028 214.753 L641.769 214.753 L641.769 210.817 Q640.31 213.179 638.134 214.313 Q635.958 215.424 632.81 215.424 Q628.829 215.424 626.468 213.202 Q624.13 210.956 624.13 207.206 Q624.13 202.831 627.046 200.609 Q629.986 198.387 635.796 198.387 L641.769 198.387 L641.769 197.97 Q641.769 195.031 639.824 193.433 Q637.903 191.813 634.407 191.813 Q632.185 191.813 630.079 192.345 Q627.972 192.878 626.028 193.943 L626.028 190.007 Q628.366 189.105 630.565 188.665 Q632.764 188.202 634.847 188.202 Q640.472 188.202 643.25 191.118 Q646.028 194.035 646.028 199.961 Z" fill="#000000" fill-rule="nonzero" fill-opacity="1" /><path clip-path="url(#clip700)" d="M671.329 189.591 L671.329 193.618 Q669.523 192.693 667.579 192.23 Q665.634 191.767 663.551 191.767 Q660.38 191.767 658.782 192.739 Q657.208 193.711 657.208 195.655 Q657.208 197.137 658.343 197.993 Q659.477 198.827 662.903 199.591 L664.361 199.915 Q668.898 200.887 670.796 202.669 Q672.717 204.429 672.717 207.6 Q672.717 211.211 669.847 213.317 Q667 215.424 662 215.424 Q659.917 215.424 657.648 215.007 Q655.403 214.614 652.903 213.804 L652.903 209.405 Q655.264 210.632 657.556 211.257 Q659.847 211.859 662.093 211.859 Q665.102 211.859 666.722 210.841 Q668.342 209.799 668.342 207.924 Q668.342 206.188 667.162 205.262 Q666.005 204.336 662.046 203.48 L660.565 203.132 Q656.606 202.299 654.847 200.586 Q653.088 198.85 653.088 195.841 Q653.088 192.183 655.681 190.193 Q658.273 188.202 663.042 188.202 Q665.403 188.202 667.486 188.549 Q669.569 188.896 671.329 189.591 Z" fill="#000000" fill-rule="nonzero" fill-opacity="1" /><path clip-path="url(#clip700)" d="M679.06 204.521 L679.06 188.827 L683.319 188.827 L683.319 204.359 Q683.319 208.04 684.754 209.892 Q686.19 211.72 689.06 211.72 Q692.509 211.72 694.5 209.521 Q696.514 207.322 696.514 203.526 L696.514 188.827 L700.773 188.827 L700.773 214.753 L696.514 214.753 L696.514 210.771 Q694.963 213.132 692.903 214.29 Q690.866 215.424 688.157 215.424 Q683.69 215.424 681.375 212.646 Q679.06 209.868 679.06 204.521 M689.778 188.202 L689.778 188.202 Z" fill="#000000" fill-rule="nonzero" fill-opacity="1" /><path clip-path="url(#clip700)" d="M724.569 192.808 Q723.851 192.392 722.995 192.206 Q722.162 191.998 721.143 191.998 Q717.532 191.998 715.588 194.359 Q713.666 196.697 713.666 201.095 L713.666 214.753 L709.384 214.753 L709.384 188.827 L713.666 188.827 L713.666 192.855 Q715.009 190.493 717.162 189.359 Q719.314 188.202 722.393 188.202 Q722.833 188.202 723.365 188.271 Q723.898 188.318 724.546 188.433 L724.569 192.808 Z" fill="#000000" fill-rule="nonzero" fill-opacity="1" /><path clip-path="url(#clip700)" d="M750.171 200.725 L750.171 202.808 L730.588 202.808 Q730.865 207.206 733.226 209.521 Q735.611 211.813 739.847 211.813 Q742.3 211.813 744.592 211.211 Q746.907 210.609 749.175 209.405 L749.175 213.433 Q746.884 214.405 744.476 214.915 Q742.069 215.424 739.592 215.424 Q733.388 215.424 729.754 211.813 Q726.143 208.202 726.143 202.044 Q726.143 195.679 729.569 191.952 Q733.018 188.202 738.851 188.202 Q744.083 188.202 747.115 191.581 Q750.171 194.938 750.171 200.725 M745.912 199.475 Q745.865 195.98 743.944 193.896 Q742.046 191.813 738.898 191.813 Q735.333 191.813 733.18 193.827 Q731.05 195.841 730.726 199.498 L745.912 199.475 Z" fill="#000000" fill-rule="nonzero" fill-opacity="1" /><path clip-path="url(#clip700)" d="M777.347 193.804 Q778.944 190.933 781.166 189.568 Q783.388 188.202 786.397 188.202 Q790.448 188.202 792.647 191.049 Q794.846 193.873 794.846 199.105 L794.846 214.753 L790.564 214.753 L790.564 199.243 Q790.564 195.517 789.245 193.711 Q787.925 191.906 785.217 191.906 Q781.907 191.906 779.985 194.105 Q778.064 196.304 778.064 200.1 L778.064 214.753 L773.782 214.753 L773.782 199.243 Q773.782 195.493 772.462 193.711 Q771.143 191.906 768.388 191.906 Q765.124 191.906 763.203 194.128 Q761.282 196.327 761.282 200.1 L761.282 214.753 L756.999 214.753 L756.999 188.827 L761.282 188.827 L761.282 192.855 Q762.74 190.47 764.777 189.336 Q766.814 188.202 769.615 188.202 Q772.439 188.202 774.407 189.637 Q776.397 191.072 777.347 193.804 Z" fill="#000000" fill-rule="nonzero" fill-opacity="1" /><path clip-path="url(#clip700)" d="M825.518 200.725 L825.518 202.808 L805.934 202.808 Q806.212 207.206 808.573 209.521 Q810.957 211.813 815.194 211.813 Q817.647 211.813 819.939 211.211 Q822.254 210.609 824.522 209.405 L824.522 213.433 Q822.231 214.405 819.823 214.915 Q817.416 215.424 814.939 215.424 Q808.735 215.424 805.101 211.813 Q801.49 208.202 801.49 202.044 Q801.49 195.679 804.916 191.952 Q808.365 188.202 814.198 188.202 Q819.43 188.202 822.462 191.581 Q825.518 194.938 825.518 200.725 M821.258 199.475 Q821.212 195.98 819.291 193.896 Q817.393 191.813 814.244 191.813 Q810.68 191.813 808.527 193.827 Q806.397 195.841 806.073 199.498 L821.258 199.475 Z" fill="#000000" fill-rule="nonzero" fill-opacity="1" /><path clip-path="url(#clip700)" d="M854.059 199.105 L854.059 214.753 L849.8 214.753 L849.8 199.243 Q849.8 195.563 848.365 193.734 Q846.929 191.906 844.059 191.906 Q840.61 191.906 838.619 194.105 Q836.629 196.304 836.629 200.1 L836.629 214.753 L832.346 214.753 L832.346 188.827 L836.629 188.827 L836.629 192.855 Q838.156 190.517 840.217 189.359 Q842.3 188.202 845.008 188.202 Q849.476 188.202 851.767 190.98 Q854.059 193.734 854.059 199.105 Z" fill="#000000" fill-rule="nonzero" fill-opacity="1" /><path clip-path="url(#clip700)" d="M866.767 181.466 L866.767 188.827 L875.54 188.827 L875.54 192.137 L866.767 192.137 L866.767 206.211 Q866.767 209.382 867.624 210.285 Q868.503 211.188 871.165 211.188 L875.54 211.188 L875.54 214.753 L871.165 214.753 Q866.235 214.753 864.36 212.924 Q862.485 211.072 862.485 206.211 L862.485 192.137 L859.36 192.137 L859.36 188.827 L862.485 188.827 L862.485 181.466 L866.767 181.466 Z" fill="#000000" fill-rule="nonzero" fill-opacity="1" /><path clip-path="url(#clip700)" d="M897.67 189.591 L897.67 193.618 Q895.864 192.693 893.92 192.23 Q891.976 191.767 889.892 191.767 Q886.721 191.767 885.124 192.739 Q883.55 193.711 883.55 195.655 Q883.55 197.137 884.684 197.993 Q885.818 198.827 889.244 199.591 L890.702 199.915 Q895.239 200.887 897.138 202.669 Q899.059 204.429 899.059 207.6 Q899.059 211.211 896.188 213.317 Q893.341 215.424 888.341 215.424 Q886.258 215.424 883.989 215.007 Q881.744 214.614 879.244 213.804 L879.244 209.405 Q881.605 210.632 883.897 211.257 Q886.189 211.859 888.434 211.859 Q891.443 211.859 893.064 210.841 Q894.684 209.799 894.684 207.924 Q894.684 206.188 893.503 205.262 Q892.346 204.336 888.388 203.48 L886.906 203.132 Q882.948 202.299 881.189 200.586 Q879.429 198.85 879.429 195.841 Q879.429 192.183 882.022 190.193 Q884.614 188.202 889.383 188.202 Q891.744 188.202 893.827 188.549 Q895.911 188.896 897.67 189.591 Z" fill="#000000" fill-rule="nonzero" fill-opacity="1" /></svg>
