<?xml version="1.0" encoding="utf-8"?>
<svg xmlns="http://www.w3.org/2000/svg" xmlns:xlink="http://www.w3.org/1999/xlink" width="800" height="400" viewBox="0 0 3200 1600">
<defs>
  <clipPath id="clip090">
    <rect x="0" y="0" width="3200" height="1600"/>
  </clipPath>
</defs>
<path clip-path="url(#clip090)" d="M0 1600 L3200 1600 L3200 0 L0 0  Z" fill="#ffffff" fill-rule="evenodd" fill-opacity="1"/>
<defs>
  <clipPath id="clip091">
    <rect x="149" y="47" width="3004" height="1397"/>
  </clipPath>
</defs>
<path clip-path="url(#clip090)" d="M149.853 1443.7 L3152.76 1443.7 L3152.76 47.2441 L149.853 47.2441  Z" fill="#ffffff" fill-rule="evenodd" fill-opacity="1"/>
<polyline clip-path="url(#clip091)" style="stroke:#000000; stroke-linecap:round; stroke-linejoin:round; stroke-width:2; stroke-opacity:0.1; fill:none" points="149.853,1443.7 149.853,47.2441 "/>
<polyline clip-path="url(#clip091)" style="stroke:#000000; stroke-linecap:round; stroke-linejoin:round; stroke-width:2; stroke-opacity:0.1; fill:none" points="900.579,1443.7 900.579,47.2441 "/>
<polyline clip-path="url(#clip091)" style="stroke:#000000; stroke-linecap:round; stroke-linejoin:round; stroke-width:2; stroke-opacity:0.1; fill:none" points="1651.3,1443.7 1651.3,47.2441 "/>
<polyline clip-path="url(#clip091)" style="stroke:#000000; stroke-linecap:round; stroke-linejoin:round; stroke-width:2; stroke-opacity:0.1; fill:none" points="2402.03,1443.7 2402.03,47.2441 "/>
<polyline clip-path="url(#clip091)" style="stroke:#000000; stroke-linecap:round; stroke-linejoin:round; stroke-width:2; stroke-opacity:0.1; fill:none" points="3152.76,1443.7 3152.76,47.2441 "/>
<polyline clip-path="url(#clip091)" style="stroke:#000000; stroke-linecap:round; stroke-linejoin:round; stroke-width:2; stroke-opacity:0.1; fill:none" points="149.853,1443.7 149.853,47.2441 "/>
<polyline clip-path="url(#clip091)" style="stroke:#000000; stroke-linecap:round; stroke-linejoin:round; stroke-width:2; stroke-opacity:0.1; fill:none" points="900.579,1443.7 900.579,47.2441 "/>
<polyline clip-path="url(#clip091)" style="stroke:#000000; stroke-linecap:round; stroke-linejoin:round; stroke-width:2; stroke-opacity:0.1; fill:none" points="1651.3,1443.7 1651.3,47.2441 "/>
<polyline clip-path="url(#clip091)" style="stroke:#000000; stroke-linecap:round; stroke-linejoin:round; stroke-width:2; stroke-opacity:0.1; fill:none" points="2402.03,1443.7 2402.03,47.2441 "/>
<polyline clip-path="url(#clip091)" style="stroke:#000000; stroke-linecap:round; stroke-linejoin:round; stroke-width:2; stroke-opacity:0.1; fill:none" points="3152.76,1443.7 3152.76,47.2441 "/>
<polyline clip-path="url(#clip091)" style="stroke:#000000; stroke-linecap:round; stroke-linejoin:round; stroke-width:2; stroke-opacity:0.1; fill:none" points="149.853,1226.1 3152.76,1226.1 "/>
<polyline clip-path="url(#clip091)" style="stroke:#000000; stroke-linecap:round; stroke-linejoin:round; stroke-width:2; stroke-opacity:0.1; fill:none" points="149.853,837.24 3152.76,837.24 "/>
<polyline clip-path="url(#clip091)" style="stroke:#000000; stroke-linecap:round; stroke-linejoin:round; stroke-width:2; stroke-opacity:0.1; fill:none" points="149.853,448.377 3152.76,448.377 "/>
<polyline clip-path="url(#clip091)" style="stroke:#000000; stroke-linecap:round; stroke-linejoin:round; stroke-width:2; stroke-opacity:0.1; fill:none" points="149.853,59.5152 3152.76,59.5152 "/>
<polyline clip-path="url(#clip091)" style="stroke:#000000; stroke-linecap:round; stroke-linejoin:round; stroke-width:2; stroke-opacity:0.1; fill:none" points="149.853,1226.1 3152.76,1226.1 "/>
<polyline clip-path="url(#clip091)" style="stroke:#000000; stroke-linecap:round; stroke-linejoin:round; stroke-width:2; stroke-opacity:0.1; fill:none" points="149.853,837.24 3152.76,837.24 "/>
<polyline clip-path="url(#clip091)" style="stroke:#000000; stroke-linecap:round; stroke-linejoin:round; stroke-width:2; stroke-opacity:0.1; fill:none" points="149.853,448.377 3152.76,448.377 "/>
<polyline clip-path="url(#clip091)" style="stroke:#000000; stroke-linecap:round; stroke-linejoin:round; stroke-width:2; stroke-opacity:0.1; fill:none" points="149.853,59.5152 3152.76,59.5152 "/>
<polyline clip-path="url(#clip090)" style="stroke:#000000; stroke-linecap:round; stroke-linejoin:round; stroke-width:4; stroke-opacity:1; fill:none" points="149.853,1443.7 3152.76,1443.7 "/>
<polyline clip-path="url(#clip090)" style="stroke:#000000; stroke-linecap:round; stroke-linejoin:round; stroke-width:4; stroke-opacity:1; fill:none" points="149.853,47.2441 3152.76,47.2441 "/>
<polyline clip-path="url(#clip090)" style="stroke:#000000; stroke-linecap:round; stroke-linejoin:round; stroke-width:4; stroke-opacity:1; fill:none" points="149.853,1443.7 149.853,1424.8 "/>
<polyline clip-path="url(#clip090)" style="stroke:#000000; stroke-linecap:round; stroke-linejoin:round; stroke-width:4; stroke-opacity:1; fill:none" points="900.579,1443.7 900.579,1424.8 "/>
<polyline clip-path="url(#clip090)" style="stroke:#000000; stroke-linecap:round; stroke-linejoin:round; stroke-width:4; stroke-opacity:1; fill:none" points="1651.3,1443.7 1651.3,1424.8 "/>
<polyline clip-path="url(#clip090)" style="stroke:#000000; stroke-linecap:round; stroke-linejoin:round; stroke-width:4; stroke-opacity:1; fill:none" points="2402.03,1443.7 2402.03,1424.8 "/>
<polyline clip-path="url(#clip090)" style="stroke:#000000; stroke-linecap:round; stroke-linejoin:round; stroke-width:4; stroke-opacity:1; fill:none" points="3152.76,1443.7 3152.76,1424.8 "/>
<polyline clip-path="url(#clip090)" style="stroke:#000000; stroke-linecap:round; stroke-linejoin:round; stroke-width:4; stroke-opacity:1; fill:none" points="149.853,47.2441 149.853,66.1417 "/>
<polyline clip-path="url(#clip090)" style="stroke:#000000; stroke-linecap:round; stroke-linejoin:round; stroke-width:4; stroke-opacity:1; fill:none" points="900.579,47.2441 900.579,66.1417 "/>
<polyline clip-path="url(#clip090)" style="stroke:#000000; stroke-linecap:round; stroke-linejoin:round; stroke-width:4; stroke-opacity:1; fill:none" points="1651.3,47.2441 1651.3,66.1417 "/>
<polyline clip-path="url(#clip090)" style="stroke:#000000; stroke-linecap:round; stroke-linejoin:round; stroke-width:4; stroke-opacity:1; fill:none" points="2402.03,47.2441 2402.03,66.1417 "/>
<polyline clip-path="url(#clip090)" style="stroke:#000000; stroke-linecap:round; stroke-linejoin:round; stroke-width:4; stroke-opacity:1; fill:none" points="3152.76,47.2441 3152.76,66.1417 "/>
<path clip-path="url(#clip090)" d="M149.853 1481.02 Q146.242 1481.02 144.413 1484.58 Q142.608 1488.12 142.608 1495.25 Q142.608 1502.36 144.413 1505.93 Q146.242 1509.47 149.853 1509.47 Q153.487 1509.47 155.293 1505.93 Q157.121 1502.36 157.121 1495.25 Q157.121 1488.12 155.293 1484.58 Q153.487 1481.02 149.853 1481.02 M149.853 1477.31 Q155.663 1477.31 158.719 1481.92 Q161.797 1486.5 161.797 1495.25 Q161.797 1503.98 158.719 1508.59 Q155.663 1513.17 149.853 1513.17 Q144.043 1513.17 140.964 1508.59 Q137.909 1503.98 137.909 1495.25 Q137.909 1486.5 140.964 1481.92 Q144.043 1477.31 149.853 1477.31 Z" fill="#000000" fill-rule="nonzero" fill-opacity="1" /><path clip-path="url(#clip090)" d="M875.278 1477.94 L893.634 1477.94 L893.634 1481.88 L879.56 1481.88 L879.56 1490.35 Q880.579 1490 881.597 1489.84 Q882.616 1489.65 883.634 1489.65 Q889.421 1489.65 892.801 1492.82 Q896.181 1496 896.181 1501.41 Q896.181 1506.99 892.708 1510.09 Q889.236 1513.17 882.917 1513.17 Q880.741 1513.17 878.472 1512.8 Q876.227 1512.43 873.82 1511.69 L873.82 1506.99 Q875.903 1508.12 878.125 1508.68 Q880.347 1509.24 882.824 1509.24 Q886.829 1509.24 889.167 1507.13 Q891.505 1505.02 891.505 1501.41 Q891.505 1497.8 889.167 1495.69 Q886.829 1493.59 882.824 1493.59 Q880.949 1493.59 879.074 1494 Q877.222 1494.42 875.278 1495.3 L875.278 1477.94 Z" fill="#000000" fill-rule="nonzero" fill-opacity="1" /><path clip-path="url(#clip090)" d="M915.393 1481.02 Q911.782 1481.02 909.954 1484.58 Q908.148 1488.12 908.148 1495.25 Q908.148 1502.36 909.954 1505.93 Q911.782 1509.47 915.393 1509.47 Q919.028 1509.47 920.833 1505.93 Q922.662 1502.36 922.662 1495.25 Q922.662 1488.12 920.833 1484.58 Q919.028 1481.02 915.393 1481.02 M915.393 1477.31 Q921.204 1477.31 924.259 1481.92 Q927.338 1486.5 927.338 1495.25 Q927.338 1503.98 924.259 1508.59 Q921.204 1513.17 915.393 1513.17 Q909.583 1513.17 906.505 1508.59 Q903.449 1503.98 903.449 1495.25 Q903.449 1486.5 906.505 1481.92 Q909.583 1477.31 915.393 1477.31 Z" fill="#000000" fill-rule="nonzero" fill-opacity="1" /><path clip-path="url(#clip090)" d="M1610.91 1508.56 L1618.55 1508.56 L1618.55 1482.2 L1610.24 1483.87 L1610.24 1479.61 L1618.5 1477.94 L1623.18 1477.94 L1623.18 1508.56 L1630.82 1508.56 L1630.82 1512.5 L1610.91 1512.5 L1610.91 1508.56 Z" fill="#000000" fill-rule="nonzero" fill-opacity="1" /><path clip-path="url(#clip090)" d="M1650.26 1481.02 Q1646.65 1481.02 1644.82 1484.58 Q1643.02 1488.12 1643.02 1495.25 Q1643.02 1502.36 1644.82 1505.93 Q1646.65 1509.47 1650.26 1509.47 Q1653.9 1509.47 1655.7 1505.93 Q1657.53 1502.36 1657.53 1495.25 Q1657.53 1488.12 1655.7 1484.58 Q1653.9 1481.02 1650.26 1481.02 M1650.26 1477.31 Q1656.07 1477.31 1659.13 1481.92 Q1662.21 1486.5 1662.21 1495.25 Q1662.21 1503.98 1659.13 1508.59 Q1656.07 1513.17 1650.26 1513.17 Q1644.45 1513.17 1641.37 1508.59 Q1638.32 1503.98 1638.32 1495.25 Q1638.32 1486.5 1641.37 1481.92 Q1644.45 1477.31 1650.26 1477.31 Z" fill="#000000" fill-rule="nonzero" fill-opacity="1" /><path clip-path="url(#clip090)" d="M1680.42 1481.02 Q1676.81 1481.02 1674.98 1484.58 Q1673.18 1488.12 1673.18 1495.25 Q1673.18 1502.36 1674.98 1505.93 Q1676.81 1509.47 1680.42 1509.47 Q1684.06 1509.47 1685.86 1505.93 Q1687.69 1502.36 1687.69 1495.25 Q1687.69 1488.12 1685.86 1484.58 Q1684.06 1481.02 1680.42 1481.02 M1680.42 1477.31 Q1686.23 1477.31 1689.29 1481.92 Q1692.37 1486.5 1692.37 1495.25 Q1692.37 1503.98 1689.29 1508.59 Q1686.23 1513.17 1680.42 1513.17 Q1674.61 1513.17 1671.54 1508.59 Q1668.48 1503.98 1668.48 1495.25 Q1668.48 1486.5 1671.54 1481.92 Q1674.61 1477.31 1680.42 1477.31 Z" fill="#000000" fill-rule="nonzero" fill-opacity="1" /><path clip-path="url(#clip090)" d="M2361.64 1508.56 L2369.28 1508.56 L2369.28 1482.2 L2360.97 1483.87 L2360.97 1479.61 L2369.23 1477.94 L2373.91 1477.94 L2373.91 1508.56 L2381.54 1508.56 L2381.54 1512.5 L2361.64 1512.5 L2361.64 1508.56 Z" fill="#000000" fill-rule="nonzero" fill-opacity="1" /><path clip-path="url(#clip090)" d="M2391.03 1477.94 L2409.39 1477.94 L2409.39 1481.88 L2395.32 1481.88 L2395.32 1490.35 Q2396.34 1490 2397.35 1489.84 Q2398.37 1489.65 2399.39 1489.65 Q2405.18 1489.65 2408.56 1492.82 Q2411.94 1496 2411.94 1501.41 Q2411.94 1506.99 2408.47 1510.09 Q2404.99 1513.17 2398.67 1513.17 Q2396.5 1513.17 2394.23 1512.8 Q2391.98 1512.43 2389.58 1511.69 L2389.58 1506.99 Q2391.66 1508.12 2393.88 1508.68 Q2396.1 1509.24 2398.58 1509.24 Q2402.59 1509.24 2404.92 1507.13 Q2407.26 1505.02 2407.26 1501.41 Q2407.26 1497.8 2404.92 1495.69 Q2402.59 1493.59 2398.58 1493.59 Q2396.71 1493.59 2394.83 1494 Q2392.98 1494.42 2391.03 1495.3 L2391.03 1477.94 Z" fill="#000000" fill-rule="nonzero" fill-opacity="1" /><path clip-path="url(#clip090)" d="M2431.15 1481.02 Q2427.54 1481.02 2425.71 1484.58 Q2423.91 1488.12 2423.91 1495.25 Q2423.91 1502.36 2425.71 1505.93 Q2427.54 1509.47 2431.15 1509.47 Q2434.78 1509.47 2436.59 1505.93 Q2438.42 1502.36 2438.42 1495.25 Q2438.42 1488.12 2436.59 1484.58 Q2434.78 1481.02 2431.15 1481.02 M2431.15 1477.31 Q2436.96 1477.31 2440.02 1481.92 Q2443.09 1486.5 2443.09 1495.25 Q2443.09 1503.98 2440.02 1508.59 Q2436.96 1513.17 2431.15 1513.17 Q2425.34 1513.17 2422.26 1508.59 Q2419.21 1503.98 2419.21 1495.25 Q2419.21 1486.5 2422.26 1481.92 Q2425.34 1477.31 2431.15 1477.31 Z" fill="#000000" fill-rule="nonzero" fill-opacity="1" /><path clip-path="url(#clip090)" d="M3116.45 1508.56 L3132.77 1508.56 L3132.77 1512.5 L3110.82 1512.5 L3110.82 1508.56 Q3113.49 1505.81 3118.07 1501.18 Q3122.68 1496.53 3123.86 1495.19 Q3126.1 1492.66 3126.98 1490.93 Q3127.88 1489.17 3127.88 1487.48 Q3127.88 1484.72 3125.94 1482.99 Q3124.02 1481.25 3120.92 1481.25 Q3118.72 1481.25 3116.26 1482.01 Q3113.83 1482.78 3111.05 1484.33 L3111.05 1479.61 Q3113.88 1478.47 3116.33 1477.89 Q3118.79 1477.31 3120.82 1477.31 Q3126.19 1477.31 3129.39 1480 Q3132.58 1482.69 3132.58 1487.18 Q3132.58 1489.31 3131.77 1491.23 Q3130.99 1493.12 3128.88 1495.72 Q3128.3 1496.39 3125.2 1499.61 Q3122.1 1502.8 3116.45 1508.56 Z" fill="#000000" fill-rule="nonzero" fill-opacity="1" /><path clip-path="url(#clip090)" d="M3152.58 1481.02 Q3148.97 1481.02 3147.14 1484.58 Q3145.34 1488.12 3145.34 1495.25 Q3145.34 1502.36 3147.14 1505.93 Q3148.97 1509.47 3152.58 1509.47 Q3156.22 1509.47 3158.02 1505.93 Q3159.85 1502.36 3159.85 1495.25 Q3159.85 1488.12 3158.02 1484.58 Q3156.22 1481.02 3152.58 1481.02 M3152.58 1477.31 Q3158.39 1477.31 3161.45 1481.92 Q3164.53 1486.5 3164.53 1495.25 Q3164.53 1503.98 3161.45 1508.59 Q3158.39 1513.17 3152.58 1513.17 Q3146.77 1513.17 3143.69 1508.59 Q3140.64 1503.98 3140.64 1495.25 Q3140.64 1486.5 3143.69 1481.92 Q3146.77 1477.31 3152.58 1477.31 Z" fill="#000000" fill-rule="nonzero" fill-opacity="1" /><path clip-path="url(#clip090)" d="M3182.74 1481.02 Q3179.13 1481.02 3177.3 1484.58 Q3175.5 1488.12 3175.5 1495.25 Q3175.5 1502.36 3177.3 1505.93 Q3179.13 1509.47 3182.74 1509.47 Q3186.38 1509.47 3188.18 1505.93 Q3190.01 1502.36 3190.01 1495.25 Q3190.01 1488.12 3188.18 1484.58 Q3186.38 1481.02 3182.74 1481.02 M3182.74 1477.31 Q3188.55 1477.31 3191.61 1481.92 Q3194.69 1486.5 3194.69 1495.25 Q3194.69 1503.98 3191.61 1508.59 Q3188.55 1513.17 3182.74 1513.17 Q3176.93 1513.17 3173.86 1508.59 Q3170.8 1503.98 3170.8 1495.25 Q3170.8 1486.5 3173.86 1481.92 Q3176.93 1477.31 3182.74 1477.31 Z" fill="#000000" fill-rule="nonzero" fill-opacity="1" /><path clip-path="url(#clip090)" d="M1650.37 1554.79 L1650.37 1564.92 L1662.43 1564.92 L1662.43 1569.47 L1650.37 1569.47 L1650.37 1588.82 Q1650.37 1593.18 1651.54 1594.42 Q1652.75 1595.66 1656.41 1595.66 L1662.43 1595.66 L1662.43 1600.56 L1656.41 1600.56 Q1649.63 1600.56 1647.06 1598.05 Q1644.48 1595.5 1644.48 1588.82 L1644.48 1569.47 L1640.18 1569.47 L1640.18 1564.92 L1644.48 1564.92 L1644.48 1554.79 L1650.37 1554.79 Z" fill="#000000" fill-rule="nonzero" fill-opacity="1" /><polyline clip-path="url(#clip090)" style="stroke:#000000; stroke-linecap:round; stroke-linejoin:round; stroke-width:4; stroke-opacity:1; fill:none" points="149.853,1443.7 149.853,47.2441 "/>
<polyline clip-path="url(#clip090)" style="stroke:#000000; stroke-linecap:round; stroke-linejoin:round; stroke-width:4; stroke-opacity:1; fill:none" points="3152.76,1443.7 3152.76,47.2441 "/>
<polyline clip-path="url(#clip090)" style="stroke:#000000; stroke-linecap:round; stroke-linejoin:round; stroke-width:4; stroke-opacity:1; fill:none" points="149.853,1226.1 168.751,1226.1 "/>
<polyline clip-path="url(#clip090)" style="stroke:#000000; stroke-linecap:round; stroke-linejoin:round; stroke-width:4; stroke-opacity:1; fill:none" points="149.853,837.24 168.751,837.24 "/>
<polyline clip-path="url(#clip090)" style="stroke:#000000; stroke-linecap:round; stroke-linejoin:round; stroke-width:4; stroke-opacity:1; fill:none" points="149.853,448.377 168.751,448.377 "/>
<polyline clip-path="url(#clip090)" style="stroke:#000000; stroke-linecap:round; stroke-linejoin:round; stroke-width:4; stroke-opacity:1; fill:none" points="149.853,59.5152 168.751,59.5152 "/>
<polyline clip-path="url(#clip090)" style="stroke:#000000; stroke-linecap:round; stroke-linejoin:round; stroke-width:4; stroke-opacity:1; fill:none" points="3152.76,1226.1 3133.86,1226.1 "/>
<polyline clip-path="url(#clip090)" style="stroke:#000000; stroke-linecap:round; stroke-linejoin:round; stroke-width:4; stroke-opacity:1; fill:none" points="3152.76,837.24 3133.86,837.24 "/>
<polyline clip-path="url(#clip090)" style="stroke:#000000; stroke-linecap:round; stroke-linejoin:round; stroke-width:4; stroke-opacity:1; fill:none" points="3152.76,448.377 3133.86,448.377 "/>
<polyline clip-path="url(#clip090)" style="stroke:#000000; stroke-linecap:round; stroke-linejoin:round; stroke-width:4; stroke-opacity:1; fill:none" points="3152.76,59.5152 3133.86,59.5152 "/>
<path clip-path="url(#clip090)" d="M53.7745 1239.45 L70.0939 1239.45 L70.0939 1243.38 L48.1495 1243.38 L48.1495 1239.45 Q50.8115 1236.69 55.3949 1232.06 Q60.0013 1227.41 61.1819 1226.07 Q63.4272 1223.54 64.3068 1221.81 Q65.2096 1220.05 65.2096 1218.36 Q65.2096 1215.6 63.2652 1213.87 Q61.3439 1212.13 58.2421 1212.13 Q56.043 1212.13 53.5893 1212.9 Q51.1588 1213.66 48.381 1215.21 L48.381 1210.49 Q51.2051 1209.35 53.6588 1208.78 Q56.1124 1208.2 58.1495 1208.2 Q63.5198 1208.2 66.7142 1210.88 Q69.9087 1213.57 69.9087 1218.06 Q69.9087 1220.19 69.0985 1222.11 Q68.3115 1224.01 66.205 1226.6 Q65.6263 1227.27 62.5245 1230.49 Q59.4226 1233.68 53.7745 1239.45 Z" fill="#000000" fill-rule="nonzero" fill-opacity="1" /><path clip-path="url(#clip090)" d="M89.9086 1211.9 Q86.2975 1211.9 84.4688 1215.47 Q82.6632 1219.01 82.6632 1226.14 Q82.6632 1233.24 84.4688 1236.81 Q86.2975 1240.35 89.9086 1240.35 Q93.5428 1240.35 95.3483 1236.81 Q97.177 1233.24 97.177 1226.14 Q97.177 1219.01 95.3483 1215.47 Q93.5428 1211.9 89.9086 1211.9 M89.9086 1208.2 Q95.7187 1208.2 98.7743 1212.8 Q101.853 1217.39 101.853 1226.14 Q101.853 1234.86 98.7743 1239.47 Q95.7187 1244.05 89.9086 1244.05 Q84.0984 1244.05 81.0197 1239.47 Q77.9642 1234.86 77.9642 1226.14 Q77.9642 1217.39 81.0197 1212.8 Q84.0984 1208.2 89.9086 1208.2 Z" fill="#000000" fill-rule="nonzero" fill-opacity="1" /><path clip-path="url(#clip090)" d="M62.5939 824.034 L50.7884 842.483 L62.5939 842.483 L62.5939 824.034 M61.367 819.96 L67.2466 819.96 L67.2466 842.483 L72.1772 842.483 L72.1772 846.372 L67.2466 846.372 L67.2466 854.52 L62.5939 854.52 L62.5939 846.372 L46.9921 846.372 L46.9921 841.858 L61.367 819.96 Z" fill="#000000" fill-rule="nonzero" fill-opacity="1" /><path clip-path="url(#clip090)" d="M89.9086 823.038 Q86.2975 823.038 84.4688 826.603 Q82.6632 830.145 82.6632 837.274 Q82.6632 844.381 84.4688 847.946 Q86.2975 851.487 89.9086 851.487 Q93.5428 851.487 95.3483 847.946 Q97.177 844.381 97.177 837.274 Q97.177 830.145 95.3483 826.603 Q93.5428 823.038 89.9086 823.038 M89.9086 819.335 Q95.7187 819.335 98.7743 823.941 Q101.853 828.525 101.853 837.274 Q101.853 846.001 98.7743 850.608 Q95.7187 855.191 89.9086 855.191 Q84.0984 855.191 81.0197 850.608 Q77.9642 846.001 77.9642 837.274 Q77.9642 828.525 81.0197 823.941 Q84.0984 819.335 89.9086 819.335 Z" fill="#000000" fill-rule="nonzero" fill-opacity="1" /><path clip-path="url(#clip090)" d="M60.3254 446.514 Q57.1773 446.514 55.3254 448.667 Q53.4967 450.82 53.4967 454.57 Q53.4967 458.296 55.3254 460.472 Q57.1773 462.625 60.3254 462.625 Q63.4735 462.625 65.3022 460.472 Q67.1541 458.296 67.1541 454.57 Q67.1541 450.82 65.3022 448.667 Q63.4735 446.514 60.3254 446.514 M69.6077 431.861 L69.6077 436.121 Q67.8485 435.287 66.0429 434.847 Q64.2606 434.408 62.5013 434.408 Q57.8717 434.408 55.418 437.533 Q52.9875 440.658 52.6402 446.977 Q54.006 444.963 56.0662 443.898 Q58.1263 442.81 60.6032 442.81 Q65.8115 442.81 68.8207 445.982 Q71.8531 449.13 71.8531 454.57 Q71.8531 459.894 68.705 463.111 Q65.5568 466.329 60.3254 466.329 Q54.33 466.329 51.1588 461.745 Q47.9875 457.139 47.9875 448.412 Q47.9875 440.218 51.8764 435.357 Q55.7652 430.472 62.3161 430.472 Q64.0754 430.472 65.8578 430.82 Q67.6633 431.167 69.6077 431.861 Z" fill="#000000" fill-rule="nonzero" fill-opacity="1" /><path clip-path="url(#clip090)" d="M89.9086 434.176 Q86.2975 434.176 84.4688 437.741 Q82.6632 441.283 82.6632 448.412 Q82.6632 455.519 84.4688 459.083 Q86.2975 462.625 89.9086 462.625 Q93.5428 462.625 95.3483 459.083 Q97.177 455.519 97.177 448.412 Q97.177 441.283 95.3483 437.741 Q93.5428 434.176 89.9086 434.176 M89.9086 430.472 Q95.7187 430.472 98.7743 435.079 Q101.853 439.662 101.853 448.412 Q101.853 457.139 98.7743 461.745 Q95.7187 466.329 89.9086 466.329 Q84.0984 466.329 81.0197 461.745 Q77.9642 457.139 77.9642 448.412 Q77.9642 439.662 81.0197 435.079 Q84.0984 430.472 89.9086 430.472 Z" fill="#000000" fill-rule="nonzero" fill-opacity="1" /><path clip-path="url(#clip090)" d="M59.7467 60.3833 Q56.4134 60.3833 54.4921 62.1657 Q52.5939 63.9481 52.5939 67.0731 Q52.5939 70.1981 54.4921 71.9805 Q56.4134 73.7628 59.7467 73.7628 Q63.08 73.7628 65.0013 71.9805 Q66.9226 70.1749 66.9226 67.0731 Q66.9226 63.9481 65.0013 62.1657 Q63.1032 60.3833 59.7467 60.3833 M55.0708 58.3926 Q52.0615 57.6518 50.3717 55.5916 Q48.7051 53.5315 48.7051 50.5685 Q48.7051 46.425 51.6449 44.0176 Q54.6078 41.6102 59.7467 41.6102 Q64.9087 41.6102 67.8485 44.0176 Q70.7883 46.425 70.7883 50.5685 Q70.7883 53.5315 69.0985 55.5916 Q67.4318 57.6518 64.4457 58.3926 Q67.8253 59.1796 69.7003 61.4712 Q71.5985 63.7629 71.5985 67.0731 Q71.5985 72.0962 68.5198 74.7814 Q65.4642 77.4665 59.7467 77.4665 Q54.0291 77.4665 50.9504 74.7814 Q47.8949 72.0962 47.8949 67.0731 Q47.8949 63.7629 49.793 61.4712 Q51.6912 59.1796 55.0708 58.3926 M53.3578 51.0083 Q53.3578 53.6935 55.0245 55.1981 Q56.7143 56.7028 59.7467 56.7028 Q62.7559 56.7028 64.4457 55.1981 Q66.1587 53.6935 66.1587 51.0083 Q66.1587 48.3232 64.4457 46.8185 Q62.7559 45.3139 59.7467 45.3139 Q56.7143 45.3139 55.0245 46.8185 Q53.3578 48.3232 53.3578 51.0083 Z" fill="#000000" fill-rule="nonzero" fill-opacity="1" /><path clip-path="url(#clip090)" d="M89.9086 45.3139 Q86.2975 45.3139 84.4688 48.8787 Q82.6632 52.4204 82.6632 59.55 Q82.6632 66.6564 84.4688 70.2212 Q86.2975 73.7628 89.9086 73.7628 Q93.5428 73.7628 95.3483 70.2212 Q97.177 66.6564 97.177 59.55 Q97.177 52.4204 95.3483 48.8787 Q93.5428 45.3139 89.9086 45.3139 M89.9086 41.6102 Q95.7187 41.6102 98.7743 46.2167 Q101.853 50.8 101.853 59.55 Q101.853 68.2768 98.7743 72.8832 Q95.7187 77.4665 89.9086 77.4665 Q84.0984 77.4665 81.0197 72.8832 Q77.9642 68.2768 77.9642 59.55 Q77.9642 50.8 81.0197 46.2167 Q84.0984 41.6102 89.9086 41.6102 Z" fill="#000000" fill-rule="nonzero" fill-opacity="1" /><polyline clip-path="url(#clip091)" style="stroke:#009af9; stroke-linecap:round; stroke-linejoin:round; stroke-width:12; stroke-opacity:1; fill:none" points="149.853,740.024 149.853,740.006 152.193,766.026 152.66,780.056 153.187,773.799 153.779,780.26 154.445,773.725 155.194,777.862 156.037,771.931 156.986,809.143 158.053,823.56 159.253,865.352 160.604,896.101 162.123,874.645 163.832,874.496 165.755,902.168 167.918,919.838 170.351,936.379 173.089,907.802 176.169,891.458 179.634,899.817 183.532,945.335 185.575,925.034 187.873,930.825 190.458,907.257 193.367,932.771 196.639,983.237 199.879,978.441 203.524,966.539 207.625,968.457 212.239,920.67 215.526,938.245 219.225,929.411 223.386,927.155 228.067,942.634 233.333,967.071 239.257,981.423 245.922,957.51 253.42,982.297 261.856,965.212 271.345,1007.29 276.524,1040.32 282.35,1056.07 288.904,1064.19 296.277,1097.42 304.572,1132.37 313.903,1099.66 324.402,1162.46 336.212,1189.47 348.135,1219.75 361.549,1260.84 372.654,1309.74 380.019,1292.16 388.305,1289.04 397.626,1280.09 405.566,1267.6 414.499,1287.28 424.549,1286.85 435.705,1291.78 445.235,1311.98 455.956,1291.57 468.017,1270.79 480.427,1287.98 491.967,1268.08 504.949,1228.31 518.932,1142.14 534.664,1149.01 544.298,1112.86 555.136,1079.1 567.329,1020.07 575.305,961.918 584.278,927.522 593.657,825.252 604.208,843.317 611.177,783.876 619.017,819.165 627.808,821.61 637.698,744.524 648.295,683.134 660.216,695.985 673.133,731.496 686.303,677.049 701.12,807.673 717.265,820.281 729.36,901.696 742.966,944.32 745.732,1008.87 748.844,1011.65 752.345,1001.77 756.284,988.886 760.715,1011.96 764.88,1028.45 769.566,1001.63 774.837,1014.87 780.768,1041.66 787.44,1087.5 793.767,1137.87 800.885,1122.73 803.235,1132.68 805.878,1112.29 808.852,1103.87 812.198,1092.2 815.962,1109.65 820.196,1108.33 824.96,1081.65 830.319,1063.13 836.348,1079.74 843.13,1093.53 850.761,1082.71 859.345,1035.46 869.003,1057.26 879.867,1049.59 892.09,1092.66 900.867,1050.85 910.741,1075.17 921.849,1066.55 934.346,1111.86 948.405,1120.42 964.222,1132.71 980.093,1205.83 987.706,1251.56 996.27,1269.49 999.737,1287.18 1003.64,1300.93 1005.84,1307.09 1008.31,1310.36 1011.1,1317.88 1014.23,1297.86 1017.75,1299.26 1021.72,1310.09 1026.18,1310.55 1031.19,1284.34 1036.84,1278.05 1043.19,1275.03 1050.33,1297.49 1057.34,1316.55 1062.66,1317.53 1068.63,1260.5 1075.36,1261.9 1082.93,1195.81 1091.44,1187.75 1101.02,1151.81 1111.79,1137.06 1123.91,1119.41 1134.6,1100.61 1146.63,1004.69 1160.17,1042 1169.15,998.71 1179.26,968.959 1190.63,921.263 1203.43,931.001 1210.38,899.725 1218.2,933.949 1227,948.611 1236.91,957.828 1247.3,820.851 1257.37,796.601 1268.7,741.848 1281.45,680.733 1295.79,667.369 1307.18,640.585 1320,703.759 1333.09,793.346 1343.48,854.181 1350.78,860.8 1359,900.08 1368.24,947.367 1378.64,1036.16 1382.97,1055.79 1387.84,1055.56 1392.28,1083.81 1397.28,1121.88 1402.9,1095.38 1407.12,1091.44 1411.88,1091.17 1417.23,1096.22 1423.24,1072.91 1430.01,1085.24 1437.62,1079.31 1441.56,1080.12 1445.98,1072.81 1450.96,1114.47 1456.57,1108.23 1462.87,1088 1469.96,1093.82 1477.93,1076.74 1486.9,1056.69 1497,1112.46 1508.35,1160.96 1521.13,1184.2 1531.44,1185.19 1543.04,1173.05 1556.09,1179.35 1565.64,1167.02 1576.38,1160.66 1588.47,1178.97 1602.07,1188.94 1616.04,1263.53 1629.81,1318.89 1639.56,1267.2 1650.52,1265.08 1662.69,1301.86 1674.43,1259.38 1687.64,1210.39 1702.49,1160.94 1719.21,1045.74 1727.28,1077.99 1736.36,1037.5 1746.58,933.912 1758.08,914.886 1765.14,936.239 1773.09,929.606 1782.03,871.491 1791.44,857.591 1802.03,811.41 1810.07,740.992 1819.12,663.574 1827.91,712.435 1837.8,733.006 1848.92,815.068 1861.44,710.202 1875.29,786.8 1890.87,773.147 1906.18,777.287 1923.4,794.524 1933.66,765.631 1945.2,864.533 1957.01,850.363 1970.29,854.191 1978.69,859.715 1988.04,883.966 1998.57,908.919 2005.61,879.473 2013.53,892.877 2022.44,884.64 2032.46,987.4 2039.09,978.473 2046.54,1007.55 2054.92,1021.33 2064.35,1001.47 2074.47,1021.46 2085.86,1032.5 2098.67,1037.32 2113.09,1090.38 2125.83,1161.68 2140.16,1204.4 2146.95,1224.73 2154.58,1257.11 2163.17,1269.35 2172.78,1277 2179.37,1288.76 2186.78,1289.03 2195.13,1259.89 2204.51,1278.16 2214.1,1258.61 2224.88,1244.31 2235.54,1218.83 2247.53,1246.61 2258.49,1266.79 2270.81,1245.96 2282.4,1267.65 2295.44,1210.46 2307.54,1157.26 2321.15,1072.03 2334.56,1076.17 2339,1007.02 2344,986.883 2349.63,961.026 2355.96,954.449 2363.07,896.029 2371.08,907.988 2380.09,907.853 2389.56,930.715 2400.21,946.315 2412.19,913.587 2423.82,837.704 2436.9,815.052 2449.01,728.396 2462.64,813.232 2474.22,793.52 2487.24,792.238 2501.9,838.748 2518.38,799.983 2536.92,799.482 2554.88,882.61 2574.31,899.067 2590.18,933.144 2604.82,986.171 2621.3,1029.24 2630.47,1015.17 2640.79,1032.58 2650.13,1026.89 2660.64,1078.43 2672.47,1138.73 2678.01,1146.07 2684.26,1113.17 2691.28,1112.45 2699.18,1138.47 2706.88,1162 2715.53,1211.77 2720.88,1208.99 2726.91,1209.46 2733.68,1225.33 2737.34,1222.9 2741.46,1218.8 2746.03,1220.96 2751.17,1226.07 2756.96,1204.75 2763.46,1187.26 2770.79,1202.56 2779.02,1213.94 2788.29,1175.12 2798.72,1209.6 2805.64,1221.9 2813.44,1282.53 2822.21,1329.42 2827.88,1321.09 2834.26,1331.74 2841.44,1319.69 2849.52,1352 2858.61,1347.44 2866.38,1315.09 2875.13,1284.24 2884.97,1270.42 2896.04,1212 2908.49,1180.53 2922.5,1198.43 2935.77,1169.87 2950.69,1122.31 2967.48,1044.3 2979.67,972.584 2993.4,964.003 3001.79,935.771 3011.24,890.968 3021.86,884.215 3030.36,916.52 3039.93,941.583 3050.69,923.893 3062.8,886.051 3076.42,781.437 3091.74,818.24 3108.48,904.513 3127.31,869.202 3137.95,889.207 3149.92,915.53 3152.76,950.289 "/>
<polyline clip-path="url(#clip091)" style="stroke:#e26f46; stroke-linecap:round; stroke-linejoin:round; stroke-width:12; stroke-opacity:1; fill:none" points="149.853,740.024 149.853,739.952 150.576,744.266 150.72,750.61 150.883,745.594 151.066,752.001 151.272,748.773 151.503,761.019 151.764,756.895 152.057,748.046 152.386,738.633 152.757,731.81 153.174,720.722 153.643,739.547 154.171,749.235 154.765,754.765 155.433,751.65 156.185,753.545 157.031,750.426 157.982,769.48 159.053,788.856 160.257,814.658 161.611,803.504 163.135,805.595 164.85,835.004 166.778,853.505 168.948,837.219 171.389,852.224 174.136,845.996 177.225,827.678 180.701,872.705 184.611,877.794 189.01,881.796 193.959,925.443 199.526,920.634 205.789,936.01 212.835,985.202 220.762,998.755 229.68,1016.05 239.713,1050.86 250.999,1072.13 263.697,1122.46 277.719,1084.98 287.924,1051.42 299.405,1075.09 312.321,1088.9 326.852,1037.6 343.199,1061.85 360.409,1067.89 379.771,1132.58 387.507,1184.08 396.21,1202.55 406.001,1199.92 417.016,1253.26 427.245,1263.81 438.754,1221.44 450.115,1211.48 462.897,1192.09 475.806,1214.38 490.329,1222.79 502.271,1261.44 515.706,1257.19 524.773,1266.2 534.974,1262.69 545.977,1207.27 558.356,1239.11 572.282,1240.64 581.793,1207.38 592.494,1218.11 604.531,1139.71 615.532,1114.74 627.908,1045.46 641.831,1100.97 649.927,1039.98 659.035,1062.14 669.281,1026.59 680.809,978.731 693.777,1072.8 708.367,1125.21 724.78,1113.98 743.245,982.496 756.321,996.049 767.165,996.089 779.366,958.796 786.245,970.483 793.985,943.191 802.692,1041.91 808.813,1006.42 815.699,960.851 823.446,959.423 832.161,924.488 841.966,885.949 852.996,876.112 863.34,844.881 874.977,896.915 888.069,844.493 902.797,880.686 917.973,885.291 935.047,928.432 950.851,1010.37 963.144,1017.7 976,1041.03 990.464,1070.35 1002.96,1064.9 1017.02,1052.66 1032.84,1114.37 1050.2,1196.78 1062.19,1238.51 1075.68,1247.41 1083.57,1290.27 1092.44,1269.3 1101.28,1303.27 1111.21,1378.5 1119.68,1398.21 1129.21,1390.6 1137.35,1383.13 1146.5,1391.21 1155.22,1375.59 1165.03,1355.32 1174.53,1394.27 1183.6,1381.44 1192.47,1373.71 1201.27,1377.49 1211.17,1288.73 1219.98,1285.02 1229.89,1233.93 1241.04,1154.21 1253.59,1096.22 1267.7,1028.52 1274.01,984.715 1281.1,934.313 1289.08,970.254 1298.06,889.503 1308.16,934.231 1319.53,924.168 1332.31,859.677 1346.69,871.92 1358.22,833.494 1371.19,719.989 1382.24,729.668 1394.67,754.275 1408.65,753.87 1424.39,707.062 1434.96,720.44 1446.85,698.114 1460.23,755.033 1475.28,760.316 1488.94,820.687 1504.31,845.181 1521.6,919.789 1533.32,905.506 1546.51,932.771 1560.1,973.255 1575.4,981.646 1592.6,1014.95 1607.8,1039.1 1624.91,1104.62 1644.15,1096.81 1648.34,1118.26 1653.05,1149.73 1658.34,1187.82 1663.3,1183.08 1668.88,1220.93 1674.17,1216.5 1680.12,1223.91 1684.15,1188.45 1688.68,1196.05 1693.78,1165.83 1699.52,1147.16 1705.97,1139.86 1713.23,1150.21 1721.4,1168.07 1730.59,1191.94 1740.93,1171.04 1752.4,1123.28 1765.31,1168.07 1779.83,1161.72 1790.96,1193.99 1803.48,1168.12 1815.19,1143.22 1828.37,1135.5 1843.18,1105.42 1850.41,1117.57 1858.54,1139.44 1867.68,1156.07 1877.97,1122.83 1889.54,1145.69 1902.56,1144.12 1917.21,1079.52 1927.31,996.607 1938.68,995.847 1946.46,989.342 1955.21,871.708 1965.05,857.831 1975.84,865.445 1987.63,766.588 2000.9,761.791 2011.41,738.47 2023.24,689.911 2036.54,605.961 2047.93,685.715 2060.75,598.868 2075.17,658.536 2089.23,666.782 2105.05,727.047 2115.88,732.259 2125.8,687.003 2133.13,698.846 2141.38,720.504 2150.67,685.558 2159.82,750.646 2170.11,811.836 2181.45,888.429 2192.88,926.87 2203.67,981.504 2215.8,1063.93 2229.45,1029.76 2237.06,1033.04 2245.61,1064.9 2255.24,1065.69 2262.43,1114.81 2270.51,1145.29 2276.57,1153.56 2283.4,1154.24 2291.07,1193.28 2299.71,1257.56 2309.29,1282.13 2317.63,1291.28 2327,1280.77 2333.81,1294.65 2341.47,1284.94 2350.01,1309.17 2359.62,1330.28 2368.26,1331.07 2377.33,1381.17 2387.54,1392.31 2395.36,1389.28 2404.17,1368.6 2414.07,1403.38 2421.5,1408.91 2429.85,1434 2439.25,1438.47 2448.9,1401.71 2459.77,1366.83 2471.12,1359 2483.89,1355.32 2498.25,1298.87 2514.41,1278.7 2532.59,1105.23 2537.2,1084.28 2542.39,995.506 2548.22,959.253 2554.78,992.106 2561.51,935.483 2569.09,879.318 2577.21,851.678 2583.9,886.797 2591.44,921.42 2599.91,969.53 2609.45,910.368 2618.56,821.093 2628.81,772.526 2636.62,755.012 2645.41,711.208 2655.3,663.987 2665.41,589.914 2676.59,613.649 2687.56,559.149 2699.9,600.879 2710.61,631.467 2722.66,613.919 2736.22,623.654 2748.01,665.623 2761.26,748.281 2776.18,874.543 2792.96,869.832 2811.84,868.534 2833.07,846.415 2856.96,831.912 2871.98,887.006 2888.87,871.403 2907.88,956.261 2914.2,985.01 2921.3,1009.59 2929.29,1010.87 2938.29,982.905 2943.08,1025.29 2948.47,1024.24 2954.53,1028.33 2961.36,1026.71 2969.03,1068.09 2977.67,1084.4 2987.38,1108.71 2998.31,1102.14 3010.61,1108.26 3024.44,1122.36 3039.42,1114.48 3055.12,1160.48 3072.79,1115.78 3089.21,1019.66 3107.67,1041.66 3118.68,1042.15 3131.07,1055.27 3145.01,1086.07 3152.76,1079.74 "/>
<polyline clip-path="url(#clip091)" style="stroke:#3da44d; stroke-linecap:round; stroke-linejoin:round; stroke-width:12; stroke-opacity:1; fill:none" points="149.853,740.024 149.853,740.024 152.384,741.417 152.891,757.577 153.46,766.087 154.101,774.829 154.822,777.213 155.632,751.067 156.545,749.357 157.571,760.137 158.725,754.507 160.024,763.318 161.289,763.248 162.713,753.499 164.314,746.376 166.115,718.673 168.142,723.344 170.421,739.401 172.986,760.909 175.871,757.224 178.205,738.901 180.831,780.035 183.785,810.168 187.108,863.105 190.713,846.624 194.09,846.865 197.889,846.642 202.164,831.49 205.206,855.135 208.629,841.733 212.48,826.09 216.813,866.598 220.217,890.142 224.048,888.737 228.357,912.658 233.205,943.669 238.659,936.569 244.794,980.258 251.697,995.73 256.121,1010.3 261.099,1020.88 266.698,1002.87 272.965,1028.74 280.015,1050.48 284.89,1066.64 290.375,1004.29 294.187,1008.79 298.476,999.911 303.3,1027.93 308.728,1063.13 311.783,1078.98 315.221,1080.11 316.98,1105.68 318.959,1130.53 321.186,1118.84 323.69,1089.82 324.74,1079.35 325.92,1073.51 327.248,1067.27 328.742,1069.97 330.423,1091.89 332.314,1073.4 334.441,1081.92 336.835,1083.75 339.527,1098.86 342.556,1107.07 345.963,1119.4 349.797,1114.94 354.109,1113.24 358.857,1121.59 364.198,1120.03 370.206,1114.12 376.898,1121.96 384.426,1174.25 390.356,1161.59 397.028,1193.1 404.534,1180.61 412.774,1200.77 422.043,1245.31 427.909,1277.89 434.508,1284.07 441.933,1298.93 446.014,1266.84 450.606,1257.56 455.771,1252.77 461.582,1209.1 468.12,1204.67 475.475,1163.09 483.749,1115.64 493.057,1176.63 503.529,1148.12 515.31,1183.94 528.564,1190.41 543.474,1175.42 560.248,1120.29 572.902,999.727 582.806,1010.31 593.948,1034.06 606.484,909.786 617.581,878.477 627.982,798.32 639.683,816.159 652.275,776.877 663.349,767.454 675.806,732.224 684.395,729.101 694.058,669.782 704.928,655.632 715.152,685.313 726.654,520.302 736.958,541.169 748.55,483.675 754.042,405.275 760.221,491.976 767.171,496.279 772.298,499.298 778.066,544.918 784.556,554.741 791.856,530.085 798.887,562.706 806.798,616.439 814.437,594.553 823.031,595.385 832.699,659.8 843.575,713.694 855.252,758.723 867.418,766.821 881.106,801.98 894.792,835.525 907.843,871.842 922.525,898.379 939.042,955.53 950.668,1025.96 963.746,1044.62 968.662,1066.84 974.192,1103.17 978.961,1134.54 984.327,1150.43 990.364,1137.98 997.155,1157.1 1004.79,1184.25 1013.39,1193.86 1023.06,1230.61 1033.94,1280 1042.44,1321.79 1048.35,1305.09 1055.01,1342.5 1060.83,1342.85 1067.37,1355.33 1072.42,1362.09 1078.1,1363.25 1083.43,1376.42 1089.42,1378.43 1094.1,1385.8 1099.37,1410.52 1105.27,1434.68 1109.93,1430.38 1115.17,1427.71 1120.59,1414.38 1126.52,1401.12 1132.58,1384.47 1139.41,1409.47 1144.7,1411.8 1150.65,1409.64 1157.12,1403.95 1163.18,1409.17 1169.99,1409.93 1176.01,1410.79 1182.78,1419.55 1188.35,1413.35 1194.61,1393.81 1201.66,1425.86 1208.73,1435.02 1214.65,1443.7 1221.31,1414.65 1228.71,1432.73 1237.02,1404.17 1242.62,1367.3 1248.91,1369.45 1255.98,1345.35 1263.94,1392.97 1272.9,1376.74 1280.65,1374.36 1289.38,1316.15 1299.19,1254.94 1310.23,1283.49 1321.56,1195.62 1332.4,1103.01 1341.2,1025.58 1348.64,960.323 1357.01,963.419 1362.75,937.733 1369.21,880.553 1376.48,856.793 1382.58,815.052 1389.45,879.92 1397.17,883.498 1405.86,800.311 1410.92,772.879 1416.62,728.964 1423.03,714.329 1430.17,660.73 1438.21,639.312 1445.9,679.79 1454.54,612.612 1464.27,543.581 1472.96,532.798 1482.75,535.327 1493.75,566.054 1504.1,681.836 1515.74,684.851 1527.07,657.998 1539.81,556.691 1554.15,553.254 1570.28,593.541 1588.09,589.292 1599.25,603.968 1611.81,677.221 1624.04,662.724 1637.8,724.867 1650.65,830.385 1665.11,830.946 1681.38,880.369 1690.67,947.278 1701.13,996.63 1712.9,1030.71 1717.64,1035.82 1722.97,1056.39 1728.97,1135.11 1732.32,1131.58 1736.1,1129.52 1740.35,1157 1745.12,1172.42 1750.5,1181.63 1756.55,1190.25 1760.98,1203.18 1765.96,1213.04 1771.57,1201.52 1777.88,1193.07 1784.98,1199.5 1792.96,1199.06 1801.95,1193.77 1809.01,1207.1 1816.95,1263.84 1825.88,1287.73 1830.78,1294.37 1836.29,1283.34 1842.48,1335.39 1849.45,1332.06 1856.15,1320.71 1863.25,1334.32 1869.12,1332.26 1875.73,1306.61 1883.16,1308.22 1889.6,1326.47 1896.85,1345.35 1903.27,1369.71 1910.5,1379.65 1916.12,1395.06 1922.45,1386.84 1929.57,1387.58 1935.49,1386.46 1942.16,1390.29 1948.85,1378.29 1956.38,1386.18 1963.14,1402.25 1970.75,1387.38 1979.15,1383.62 1988.6,1339.62 1999.24,1304.57 2011.2,1275.54 2024.66,1224.25 2039.8,1196.61 2046.11,1092.43 2053.21,1024.94 2061.2,1032.48 2067.57,1029.02 2074.73,931.132 2078.62,835.389 2082.99,833.252 2087.92,811.563 2093.45,708.897 2099.43,633.727 2106.15,532.631 2112.75,483.869 2118.35,467.607 2124.65,421.785 2130.16,399.202 2136.19,428.663 2141.39,416.142 2147.23,412.474 2151.84,433.314 2157.02,404.962 2162.19,388.67 2168.02,405.73 2173.7,387.859 2179.63,478.57 2186.29,438.382 2192.69,324.44 2199.89,190.767 2204.64,171.182 2209.98,138.149 2215.98,113.117 2222.74,165.281 2230.34,98.2959 2238.89,107.35 2248.5,159.035 2259.32,89.8755 2268.12,76.2331 2278.01,47.2441 2286.49,64.6664 2296.02,103.001 2306.75,148.188 2318.81,260.877 2332.38,301.43 2343.79,342.663 2356.61,494.915 2367.77,543.451 2380.31,585.469 2392.18,655.993 2405.54,727.389 2417.71,762.113 2431.4,845.866 2444.63,883.054 2459.51,929.295 2471.57,1031.08 2485.14,1043.86 2492.27,1064.35 2500.28,1104.11 2507.78,1131.55 2516.21,1175.58 2525.69,1199 2535.66,1192.43 2546.88,1238.92 2559.5,1280.35 2569.63,1319.71 2581.02,1347.71 2588.59,1348.96 2597.11,1369.45 2604.22,1370.38 2612.21,1363.53 2620.7,1360.1 2630.26,1395.97 2638.64,1355.22 2648.06,1327.61 2658.66,1265.22 2670.59,1226.64 2684.01,1177.26 2699.1,1190.01 2705.57,1158.65 2712.85,1094.25 2721.04,1031.3 2730.25,1004.48 2737.11,912.33 2744.83,846.106 2752.52,959.628 2761.18,981.598 2770.91,950.863 2781.19,928.604 2792.75,920.826 2805.23,911.412 2819.27,808.888 2831.75,873.45 2845.79,945.094 2861.59,917.494 2879.36,898.179 2890.25,982.607 2902.51,936.74 2913.16,958.284 2925.14,991.773 2933.84,1001.46 2942.44,1016.19 2952.12,1048.86 2959.37,999.398 2964.19,1019.66 2969.62,1047.4 2975.72,1101.97 2982.58,1134.01 2990.3,1183.34 2998.99,1204.11 3007.55,1259.61 3017.18,1270.58 3026.58,1324.36 3033.79,1346.85 3041.9,1352.13 3048.15,1341.9 3055.19,1332.84 3063.11,1375.08 3070.9,1356.27 3079.66,1333.66 3088.83,1324.9 3099.14,1355.96 3107.14,1373.52 3116.14,1388.14 3121.77,1384.75 3128.1,1383.38 3135.22,1384.81 3142.56,1408.59 3150.82,1417.89 3152.76,1394.85 "/>
<polyline clip-path="url(#clip091)" style="stroke:#c271d2; stroke-linecap:round; stroke-linejoin:round; stroke-width:12; stroke-opacity:1; fill:none" points="149.853,740.024 149.853,740.235 152.556,776.688 153.096,769.197 153.704,774.172 154.388,781.214 155.158,774.961 156.024,760.696 156.998,769.021 158.093,791.678 159.326,788.875 160.713,791.964 162.273,795.264 164.028,826.262 166.003,816.604 168.224,812.538 170.723,811.243 173.535,813.04 176.698,805.206 180.256,823.213 184.259,810.288 188.762,834.852 193.287,827.135 198.377,881.803 202.006,880.561 206.088,885.449 210.681,904.778 215.848,906.219 221.661,927.153 228.201,963.282 235.558,994.64 241.491,957.236 248.167,1005.03 255.677,1005.24 264.125,1024.84 273.63,1102.72 280.247,1086 287.692,1087.12 296.067,1167.1 299.865,1156.12 304.138,1168.46 308.944,1146.7 314.352,1140.24 320.436,1171.74 327.28,1197.19 334.979,1236.81 343.641,1220.66 353.386,1237.72 362.231,1238.51 372.181,1207.78 382.331,1187.15 393.75,1224.93 403.69,1256.35 414.871,1237.34 426.043,1208.35 438.611,1202.02 452.749,1093.54 464.239,1085.08 477.165,1083.89 490.198,1084.95 504.859,1090.15 521.354,1046.04 537.017,905.175 547.55,969.838 559.401,990.344 572.732,1031.8 587.73,892.971 600.594,832.342 614.712,867.453 626.536,836.12 639.838,837.5 654.408,747.119 664.345,765.889 675.525,692.324 681.969,690.112 689.218,726.697 697.374,677.354 706.548,660.928 716.87,715.256 728.482,753.516 741.546,771.355 756.242,849.846 768.374,893.276 782.023,941.246 795.947,965.887 811.612,1083.05 822.217,1086.04 834.148,1091.35 845.156,1132.86 852.932,1157.29 861.68,1198.47 871.522,1226.62 876.045,1241.28 881.133,1216.85 886.858,1243.31 893.298,1239.12 900.542,1266.37 908.693,1315.49 917.862,1314.2 926.124,1316.49 935.419,1327.35 945.876,1316.97 954.329,1331.54 963.839,1350.32 971.579,1355.87 980.287,1354.44 989.196,1353.9 997.749,1371.67 1007.37,1354.61 1018.05,1311.21 1028.28,1337.04 1039.79,1276.67 1049.73,1275.26 1060.9,1186.59 1073.48,1139.23 1087.62,1059.05 1095.77,1016.05 1104.94,1006.06 1114.34,1020.63 1124.91,1036.32 1136.81,1037.78 1150.2,1029.4 1165.25,1121.14 1182.19,1009.7 1201.25,995.34 1212.74,908.068 1225.67,854.809 1240.21,806.945 1253.11,819.948 1267.62,890.093 1283.94,808.822 1295.75,830.129 1307.65,917.176 1314.63,860.283 1322.48,890.192 1331.32,935.344 1341.26,938.744 1352.45,939.941 1365.03,995.442 1379.18,1040.38 1395.11,1052.94 1413.02,1041.09 1433.17,1112.59 1455.85,1126.48 1464.13,1111.76 1473.44,1115.84 1483.92,1084.25 1495.71,1074.38 1508.97,1077.35 1523.89,1145.11 1540.68,1163.25 1553.46,1202.83 1567.83,1246.32 1577.01,1207 1587.33,1177.53 1598.95,1162.99 1612.01,1100.97 1626.72,1119.16 1643.25,1162.05 1657.46,1203.32 1669.01,1184.25 1682,1124.79 1696.61,1063.37 1713.06,1032.48 1731.55,1048.02 1743.2,952.242 1756.31,799.293 1771.05,809.725 1779.15,855.087 1788.26,866.33 1798.51,821.681 1809.22,926.025 1815.95,871.562 1823.52,877.807 1832.03,839.909 1841.61,828.37 1852.39,786.784 1864.51,735.302 1871.59,812.16 1879.55,918.004 1888.51,919.381 1898.59,916.584 1909.93,931.533 1921.58,953.562 1934.7,1006.03 1949.45,1078.89 1963.21,1113.56 1978.69,1108.87 1996.1,1079.44 2015.69,1075.1 2037.73,1136.32 2057.44,1152.81 2072.22,1225.46 2085.42,1212.25 2099.06,1247.03 2110.81,1214.38 2124.02,1247.08 2134.88,1175.87 2145.83,1180.99 2158.14,1161.36 2171.98,1110.96 2187.56,1082.85 2205.09,1057.67 2221.22,936.354 2239.37,861.65 2244.26,905.584 2249.77,860.218 2255.97,881.832 2262.94,859.052 2270.78,874.841 2279.61,850.59 2289.54,821.775 2300.7,800.558 2313.27,802.523 2327.4,859.822 2343.3,845.382 2361.19,959.196 2381.31,994.894 2403.95,1017.22 2421.24,1101.1 2436.77,1051.48 2447.18,1097.27 2458.9,1116.69 2467.57,1136.54 2477.33,1205.47 2488.31,1257.84 2498.15,1245.05 2505.42,1244.91 2513.6,1151.41 2522.79,1113.41 2533.14,1060.87 2544.78,1090.3 2557.87,1054.16 2572.61,1022.11 2580,1007.71 2588.31,959.553 2597.67,927.231 2607.33,948.59 2618.2,936.671 2630.43,948.191 2642.21,888.432 2655.46,837.668 2670.37,863.764 2682.83,840.842 2696.85,870.996 2712.63,907.661 2730.26,938.145 2749.18,995.847 2770.46,960.56 2794.4,1002.62 2809.39,1044.42 2826.26,1078.91 2839.45,1109.2 2854.29,1116.45 2870.66,1141.04 2883.55,1202.51 2898.05,1202.25 2906.7,1244.11 2916.43,1312.28 2925.31,1329.73 2935.3,1342.45 2943.64,1378.29 2953.02,1425.53 2961.06,1395.37 2970.1,1389.76 2979.32,1338.78 2989.68,1268.27 3001.09,1265.91 3013.92,1237.61 3026.95,1145.14 3041.6,1101.56 3058.08,1129.43 3068.28,1111.09 3079.74,1072.83 3092.64,1085.4 3102.71,1044.28 3114.04,964.117 3126.78,938.219 3137.48,994.785 3149.51,1005.41 3152.76,1054.82 "/>
</svg>
