<?xml version="1.0" encoding="utf-8"?>
<svg xmlns="http://www.w3.org/2000/svg" xmlns:xlink="http://www.w3.org/1999/xlink" width="800" height="400" viewBox="0 0 3200 1600">
<defs>
  <clipPath id="clip780">
    <rect x="0" y="0" width="3200" height="1600"/>
  </clipPath>
</defs>
<path clip-path="url(#clip780)" d="M0 1600 L3200 1600 L3200 0 L0 0  Z" fill="#ffffff" fill-rule="evenodd" fill-opacity="1"/>
<defs>
  <clipPath id="clip781">
    <rect x="178" y="47" width="2975" height="1397"/>
  </clipPath>
</defs>
<path clip-path="url(#clip780)" d="M178.857 1443.7 L3152.76 1443.7 L3152.76 47.2441 L178.857 47.2441  Z" fill="#ffffff" fill-rule="evenodd" fill-opacity="1"/>
<polyline clip-path="url(#clip781)" style="stroke:#000000; stroke-linecap:round; stroke-linejoin:round; stroke-width:2; stroke-opacity:0.1; fill:none" points="449.212,1443.7 449.212,47.2441 "/>
<polyline clip-path="url(#clip781)" style="stroke:#000000; stroke-linecap:round; stroke-linejoin:round; stroke-width:2; stroke-opacity:0.1; fill:none" points="1125.1,1443.7 1125.1,47.2441 "/>
<polyline clip-path="url(#clip781)" style="stroke:#000000; stroke-linecap:round; stroke-linejoin:round; stroke-width:2; stroke-opacity:0.1; fill:none" points="1800.98,1443.7 1800.98,47.2441 "/>
<polyline clip-path="url(#clip781)" style="stroke:#000000; stroke-linecap:round; stroke-linejoin:round; stroke-width:2; stroke-opacity:0.1; fill:none" points="2476.87,1443.7 2476.87,47.2441 "/>
<polyline clip-path="url(#clip781)" style="stroke:#000000; stroke-linecap:round; stroke-linejoin:round; stroke-width:2; stroke-opacity:0.1; fill:none" points="3152.76,1443.7 3152.76,47.2441 "/>
<polyline clip-path="url(#clip781)" style="stroke:#000000; stroke-linecap:round; stroke-linejoin:round; stroke-width:2; stroke-opacity:0.1; fill:none" points="449.212,1443.7 449.212,47.2441 "/>
<polyline clip-path="url(#clip781)" style="stroke:#000000; stroke-linecap:round; stroke-linejoin:round; stroke-width:2; stroke-opacity:0.1; fill:none" points="1125.1,1443.7 1125.1,47.2441 "/>
<polyline clip-path="url(#clip781)" style="stroke:#000000; stroke-linecap:round; stroke-linejoin:round; stroke-width:2; stroke-opacity:0.1; fill:none" points="1800.98,1443.7 1800.98,47.2441 "/>
<polyline clip-path="url(#clip781)" style="stroke:#000000; stroke-linecap:round; stroke-linejoin:round; stroke-width:2; stroke-opacity:0.1; fill:none" points="2476.87,1443.7 2476.87,47.2441 "/>
<polyline clip-path="url(#clip781)" style="stroke:#000000; stroke-linecap:round; stroke-linejoin:round; stroke-width:2; stroke-opacity:0.1; fill:none" points="3152.76,1443.7 3152.76,47.2441 "/>
<polyline clip-path="url(#clip781)" style="stroke:#000000; stroke-linecap:round; stroke-linejoin:round; stroke-width:2; stroke-opacity:0.1; fill:none" points="178.857,1240 3152.76,1240 "/>
<polyline clip-path="url(#clip781)" style="stroke:#000000; stroke-linecap:round; stroke-linejoin:round; stroke-width:2; stroke-opacity:0.1; fill:none" points="178.857,1010.23 3152.76,1010.23 "/>
<polyline clip-path="url(#clip781)" style="stroke:#000000; stroke-linecap:round; stroke-linejoin:round; stroke-width:2; stroke-opacity:0.1; fill:none" points="178.857,780.457 3152.76,780.457 "/>
<polyline clip-path="url(#clip781)" style="stroke:#000000; stroke-linecap:round; stroke-linejoin:round; stroke-width:2; stroke-opacity:0.1; fill:none" points="178.857,550.684 3152.76,550.684 "/>
<polyline clip-path="url(#clip781)" style="stroke:#000000; stroke-linecap:round; stroke-linejoin:round; stroke-width:2; stroke-opacity:0.1; fill:none" points="178.857,320.91 3152.76,320.91 "/>
<polyline clip-path="url(#clip781)" style="stroke:#000000; stroke-linecap:round; stroke-linejoin:round; stroke-width:2; stroke-opacity:0.1; fill:none" points="178.857,91.1365 3152.76,91.1365 "/>
<polyline clip-path="url(#clip781)" style="stroke:#000000; stroke-linecap:round; stroke-linejoin:round; stroke-width:2; stroke-opacity:0.1; fill:none" points="178.857,1240 3152.76,1240 "/>
<polyline clip-path="url(#clip781)" style="stroke:#000000; stroke-linecap:round; stroke-linejoin:round; stroke-width:2; stroke-opacity:0.1; fill:none" points="178.857,1010.23 3152.76,1010.23 "/>
<polyline clip-path="url(#clip781)" style="stroke:#000000; stroke-linecap:round; stroke-linejoin:round; stroke-width:2; stroke-opacity:0.1; fill:none" points="178.857,780.457 3152.76,780.457 "/>
<polyline clip-path="url(#clip781)" style="stroke:#000000; stroke-linecap:round; stroke-linejoin:round; stroke-width:2; stroke-opacity:0.1; fill:none" points="178.857,550.684 3152.76,550.684 "/>
<polyline clip-path="url(#clip781)" style="stroke:#000000; stroke-linecap:round; stroke-linejoin:round; stroke-width:2; stroke-opacity:0.1; fill:none" points="178.857,320.91 3152.76,320.91 "/>
<polyline clip-path="url(#clip781)" style="stroke:#000000; stroke-linecap:round; stroke-linejoin:round; stroke-width:2; stroke-opacity:0.1; fill:none" points="178.857,91.1365 3152.76,91.1365 "/>
<polyline clip-path="url(#clip780)" style="stroke:#000000; stroke-linecap:round; stroke-linejoin:round; stroke-width:4; stroke-opacity:1; fill:none" points="178.857,1443.7 3152.76,1443.7 "/>
<polyline clip-path="url(#clip780)" style="stroke:#000000; stroke-linecap:round; stroke-linejoin:round; stroke-width:4; stroke-opacity:1; fill:none" points="178.857,47.2441 3152.76,47.2441 "/>
<polyline clip-path="url(#clip780)" style="stroke:#000000; stroke-linecap:round; stroke-linejoin:round; stroke-width:4; stroke-opacity:1; fill:none" points="449.212,1443.7 449.212,1424.8 "/>
<polyline clip-path="url(#clip780)" style="stroke:#000000; stroke-linecap:round; stroke-linejoin:round; stroke-width:4; stroke-opacity:1; fill:none" points="1125.1,1443.7 1125.1,1424.8 "/>
<polyline clip-path="url(#clip780)" style="stroke:#000000; stroke-linecap:round; stroke-linejoin:round; stroke-width:4; stroke-opacity:1; fill:none" points="1800.98,1443.7 1800.98,1424.8 "/>
<polyline clip-path="url(#clip780)" style="stroke:#000000; stroke-linecap:round; stroke-linejoin:round; stroke-width:4; stroke-opacity:1; fill:none" points="2476.87,1443.7 2476.87,1424.8 "/>
<polyline clip-path="url(#clip780)" style="stroke:#000000; stroke-linecap:round; stroke-linejoin:round; stroke-width:4; stroke-opacity:1; fill:none" points="3152.76,1443.7 3152.76,1424.8 "/>
<polyline clip-path="url(#clip780)" style="stroke:#000000; stroke-linecap:round; stroke-linejoin:round; stroke-width:4; stroke-opacity:1; fill:none" points="449.212,47.2441 449.212,66.1417 "/>
<polyline clip-path="url(#clip780)" style="stroke:#000000; stroke-linecap:round; stroke-linejoin:round; stroke-width:4; stroke-opacity:1; fill:none" points="1125.1,47.2441 1125.1,66.1417 "/>
<polyline clip-path="url(#clip780)" style="stroke:#000000; stroke-linecap:round; stroke-linejoin:round; stroke-width:4; stroke-opacity:1; fill:none" points="1800.98,47.2441 1800.98,66.1417 "/>
<polyline clip-path="url(#clip780)" style="stroke:#000000; stroke-linecap:round; stroke-linejoin:round; stroke-width:4; stroke-opacity:1; fill:none" points="2476.87,47.2441 2476.87,66.1417 "/>
<polyline clip-path="url(#clip780)" style="stroke:#000000; stroke-linecap:round; stroke-linejoin:round; stroke-width:4; stroke-opacity:1; fill:none" points="3152.76,47.2441 3152.76,66.1417 "/>
<path clip-path="url(#clip780)" d="M449.212 1481.02 Q445.601 1481.02 443.772 1484.58 Q441.966 1488.12 441.966 1495.25 Q441.966 1502.36 443.772 1505.93 Q445.601 1509.47 449.212 1509.47 Q452.846 1509.47 454.652 1505.93 Q456.48 1502.36 456.48 1495.25 Q456.48 1488.12 454.652 1484.58 Q452.846 1481.02 449.212 1481.02 M449.212 1477.31 Q455.022 1477.31 458.078 1481.92 Q461.156 1486.5 461.156 1495.25 Q461.156 1503.98 458.078 1508.59 Q455.022 1513.17 449.212 1513.17 Q443.402 1513.17 440.323 1508.59 Q437.267 1503.98 437.267 1495.25 Q437.267 1486.5 440.323 1481.92 Q443.402 1477.31 449.212 1477.31 Z" fill="#000000" fill-rule="nonzero" fill-opacity="1" /><path clip-path="url(#clip780)" d="M1084.72 1477.94 L1103.07 1477.94 L1103.07 1481.88 L1089 1481.88 L1089 1490.35 Q1090.02 1490 1091.04 1489.84 Q1092.05 1489.65 1093.07 1489.65 Q1098.86 1489.65 1102.24 1492.82 Q1105.62 1496 1105.62 1501.41 Q1105.62 1506.99 1102.15 1510.09 Q1098.67 1513.17 1092.35 1513.17 Q1090.18 1513.17 1087.91 1512.8 Q1085.67 1512.43 1083.26 1511.69 L1083.26 1506.99 Q1085.34 1508.12 1087.56 1508.68 Q1089.79 1509.24 1092.26 1509.24 Q1096.27 1509.24 1098.6 1507.13 Q1100.94 1505.02 1100.94 1501.41 Q1100.94 1497.8 1098.6 1495.69 Q1096.27 1493.59 1092.26 1493.59 Q1090.39 1493.59 1088.51 1494 Q1086.66 1494.42 1084.72 1495.3 L1084.72 1477.94 Z" fill="#000000" fill-rule="nonzero" fill-opacity="1" /><path clip-path="url(#clip780)" d="M1124.83 1481.02 Q1121.22 1481.02 1119.39 1484.58 Q1117.59 1488.12 1117.59 1495.25 Q1117.59 1502.36 1119.39 1505.93 Q1121.22 1509.47 1124.83 1509.47 Q1128.47 1509.47 1130.27 1505.93 Q1132.1 1502.36 1132.1 1495.25 Q1132.1 1488.12 1130.27 1484.58 Q1128.47 1481.02 1124.83 1481.02 M1124.83 1477.31 Q1130.64 1477.31 1133.7 1481.92 Q1136.78 1486.5 1136.78 1495.25 Q1136.78 1503.98 1133.7 1508.59 Q1130.64 1513.17 1124.83 1513.17 Q1119.02 1513.17 1115.94 1508.59 Q1112.89 1503.98 1112.89 1495.25 Q1112.89 1486.5 1115.94 1481.92 Q1119.02 1477.31 1124.83 1477.31 Z" fill="#000000" fill-rule="nonzero" fill-opacity="1" /><path clip-path="url(#clip780)" d="M1154.99 1481.02 Q1151.38 1481.02 1149.55 1484.58 Q1147.75 1488.12 1147.75 1495.25 Q1147.75 1502.36 1149.55 1505.93 Q1151.38 1509.47 1154.99 1509.47 Q1158.63 1509.47 1160.43 1505.93 Q1162.26 1502.36 1162.26 1495.25 Q1162.26 1488.12 1160.43 1484.58 Q1158.63 1481.02 1154.99 1481.02 M1154.99 1477.31 Q1160.8 1477.31 1163.86 1481.92 Q1166.94 1486.5 1166.94 1495.25 Q1166.94 1503.98 1163.86 1508.59 Q1160.8 1513.17 1154.99 1513.17 Q1149.18 1513.17 1146.1 1508.59 Q1143.05 1503.98 1143.05 1495.25 Q1143.05 1486.5 1146.1 1481.92 Q1149.18 1477.31 1154.99 1477.31 Z" fill="#000000" fill-rule="nonzero" fill-opacity="1" /><path clip-path="url(#clip780)" d="M1745.51 1508.56 L1753.15 1508.56 L1753.15 1482.2 L1744.84 1483.87 L1744.84 1479.61 L1753.1 1477.94 L1757.78 1477.94 L1757.78 1508.56 L1765.42 1508.56 L1765.42 1512.5 L1745.51 1512.5 L1745.51 1508.56 Z" fill="#000000" fill-rule="nonzero" fill-opacity="1" /><path clip-path="url(#clip780)" d="M1784.86 1481.02 Q1781.25 1481.02 1779.42 1484.58 Q1777.62 1488.12 1777.62 1495.25 Q1777.62 1502.36 1779.42 1505.93 Q1781.25 1509.47 1784.86 1509.47 Q1788.5 1509.47 1790.3 1505.93 Q1792.13 1502.36 1792.13 1495.25 Q1792.13 1488.12 1790.3 1484.58 Q1788.5 1481.02 1784.86 1481.02 M1784.86 1477.31 Q1790.67 1477.31 1793.73 1481.92 Q1796.81 1486.5 1796.81 1495.25 Q1796.81 1503.98 1793.73 1508.59 Q1790.67 1513.17 1784.86 1513.17 Q1779.05 1513.17 1775.97 1508.59 Q1772.92 1503.98 1772.92 1495.25 Q1772.92 1486.5 1775.97 1481.92 Q1779.05 1477.31 1784.86 1477.31 Z" fill="#000000" fill-rule="nonzero" fill-opacity="1" /><path clip-path="url(#clip780)" d="M1815.02 1481.02 Q1811.41 1481.02 1809.58 1484.58 Q1807.78 1488.12 1807.78 1495.25 Q1807.78 1502.36 1809.58 1505.93 Q1811.41 1509.47 1815.02 1509.47 Q1818.66 1509.47 1820.46 1505.93 Q1822.29 1502.36 1822.29 1495.25 Q1822.29 1488.12 1820.46 1484.58 Q1818.66 1481.02 1815.02 1481.02 M1815.02 1477.31 Q1820.83 1477.31 1823.89 1481.92 Q1826.97 1486.5 1826.97 1495.25 Q1826.97 1503.98 1823.89 1508.59 Q1820.83 1513.17 1815.02 1513.17 Q1809.21 1513.17 1806.13 1508.59 Q1803.08 1503.98 1803.08 1495.25 Q1803.08 1486.5 1806.13 1481.92 Q1809.21 1477.31 1815.02 1477.31 Z" fill="#000000" fill-rule="nonzero" fill-opacity="1" /><path clip-path="url(#clip780)" d="M1845.19 1481.02 Q1841.57 1481.02 1839.75 1484.58 Q1837.94 1488.12 1837.94 1495.25 Q1837.94 1502.36 1839.75 1505.93 Q1841.57 1509.47 1845.19 1509.47 Q1848.82 1509.47 1850.62 1505.93 Q1852.45 1502.36 1852.45 1495.25 Q1852.45 1488.12 1850.62 1484.58 Q1848.82 1481.02 1845.19 1481.02 M1845.19 1477.31 Q1851 1477.31 1854.05 1481.92 Q1857.13 1486.5 1857.13 1495.25 Q1857.13 1503.98 1854.05 1508.59 Q1851 1513.17 1845.19 1513.17 Q1839.37 1513.17 1836.3 1508.59 Q1833.24 1503.98 1833.24 1495.25 Q1833.24 1486.5 1836.3 1481.92 Q1839.37 1477.31 1845.19 1477.31 Z" fill="#000000" fill-rule="nonzero" fill-opacity="1" /><path clip-path="url(#clip780)" d="M2421.4 1508.56 L2429.03 1508.56 L2429.03 1482.2 L2420.72 1483.87 L2420.72 1479.61 L2428.99 1477.94 L2433.66 1477.94 L2433.66 1508.56 L2441.3 1508.56 L2441.3 1512.5 L2421.4 1512.5 L2421.4 1508.56 Z" fill="#000000" fill-rule="nonzero" fill-opacity="1" /><path clip-path="url(#clip780)" d="M2450.79 1477.94 L2469.15 1477.94 L2469.15 1481.88 L2455.08 1481.88 L2455.08 1490.35 Q2456.09 1490 2457.11 1489.84 Q2458.13 1489.65 2459.15 1489.65 Q2464.94 1489.65 2468.32 1492.82 Q2471.7 1496 2471.7 1501.41 Q2471.7 1506.99 2468.22 1510.09 Q2464.75 1513.17 2458.43 1513.17 Q2456.26 1513.17 2453.99 1512.8 Q2451.74 1512.43 2449.34 1511.69 L2449.34 1506.99 Q2451.42 1508.12 2453.64 1508.68 Q2455.86 1509.24 2458.34 1509.24 Q2462.34 1509.24 2464.68 1507.13 Q2467.02 1505.02 2467.02 1501.41 Q2467.02 1497.8 2464.68 1495.69 Q2462.34 1493.59 2458.34 1493.59 Q2456.46 1493.59 2454.59 1494 Q2452.74 1494.42 2450.79 1495.3 L2450.79 1477.94 Z" fill="#000000" fill-rule="nonzero" fill-opacity="1" /><path clip-path="url(#clip780)" d="M2490.91 1481.02 Q2487.3 1481.02 2485.47 1484.58 Q2483.66 1488.12 2483.66 1495.25 Q2483.66 1502.36 2485.47 1505.93 Q2487.3 1509.47 2490.91 1509.47 Q2494.54 1509.47 2496.35 1505.93 Q2498.18 1502.36 2498.18 1495.25 Q2498.18 1488.12 2496.35 1484.58 Q2494.54 1481.02 2490.91 1481.02 M2490.91 1477.31 Q2496.72 1477.31 2499.77 1481.92 Q2502.85 1486.5 2502.85 1495.25 Q2502.85 1503.98 2499.77 1508.59 Q2496.72 1513.17 2490.91 1513.17 Q2485.1 1513.17 2482.02 1508.59 Q2478.96 1503.98 2478.96 1495.25 Q2478.96 1486.5 2482.02 1481.92 Q2485.1 1477.31 2490.91 1477.31 Z" fill="#000000" fill-rule="nonzero" fill-opacity="1" /><path clip-path="url(#clip780)" d="M2521.07 1481.02 Q2517.46 1481.02 2515.63 1484.58 Q2513.83 1488.12 2513.83 1495.25 Q2513.83 1502.36 2515.63 1505.93 Q2517.46 1509.47 2521.07 1509.47 Q2524.71 1509.47 2526.51 1505.93 Q2528.34 1502.36 2528.34 1495.25 Q2528.34 1488.12 2526.51 1484.58 Q2524.71 1481.02 2521.07 1481.02 M2521.07 1477.31 Q2526.88 1477.31 2529.94 1481.92 Q2533.02 1486.5 2533.02 1495.25 Q2533.02 1503.98 2529.94 1508.59 Q2526.88 1513.17 2521.07 1513.17 Q2515.26 1513.17 2512.18 1508.59 Q2509.13 1503.98 2509.13 1495.25 Q2509.13 1486.5 2512.18 1481.92 Q2515.26 1477.31 2521.07 1477.31 Z" fill="#000000" fill-rule="nonzero" fill-opacity="1" /><path clip-path="url(#clip780)" d="M3101.37 1508.56 L3117.69 1508.56 L3117.69 1512.5 L3095.74 1512.5 L3095.74 1508.56 Q3098.4 1505.81 3102.99 1501.18 Q3107.59 1496.53 3108.77 1495.19 Q3111.02 1492.66 3111.9 1490.93 Q3112.8 1489.17 3112.8 1487.48 Q3112.8 1484.72 3110.86 1482.99 Q3108.94 1481.25 3105.83 1481.25 Q3103.64 1481.25 3101.18 1482.01 Q3098.75 1482.78 3095.97 1484.33 L3095.97 1479.61 Q3098.8 1478.47 3101.25 1477.89 Q3103.71 1477.31 3105.74 1477.31 Q3111.11 1477.31 3114.31 1480 Q3117.5 1482.69 3117.5 1487.18 Q3117.5 1489.31 3116.69 1491.23 Q3115.9 1493.12 3113.8 1495.72 Q3113.22 1496.39 3110.12 1499.61 Q3107.02 1502.8 3101.37 1508.56 Z" fill="#000000" fill-rule="nonzero" fill-opacity="1" /><path clip-path="url(#clip780)" d="M3137.5 1481.02 Q3133.89 1481.02 3132.06 1484.58 Q3130.26 1488.12 3130.26 1495.25 Q3130.26 1502.36 3132.06 1505.93 Q3133.89 1509.47 3137.5 1509.47 Q3141.14 1509.47 3142.94 1505.93 Q3144.77 1502.36 3144.77 1495.25 Q3144.77 1488.12 3142.94 1484.58 Q3141.14 1481.02 3137.5 1481.02 M3137.5 1477.31 Q3143.31 1477.31 3146.37 1481.92 Q3149.45 1486.5 3149.45 1495.25 Q3149.45 1503.98 3146.37 1508.59 Q3143.31 1513.17 3137.5 1513.17 Q3131.69 1513.17 3128.61 1508.59 Q3125.56 1503.98 3125.56 1495.25 Q3125.56 1486.5 3128.61 1481.92 Q3131.69 1477.31 3137.5 1477.31 Z" fill="#000000" fill-rule="nonzero" fill-opacity="1" /><path clip-path="url(#clip780)" d="M3167.66 1481.02 Q3164.05 1481.02 3162.22 1484.58 Q3160.42 1488.12 3160.42 1495.25 Q3160.42 1502.36 3162.22 1505.93 Q3164.05 1509.47 3167.66 1509.47 Q3171.3 1509.47 3173.1 1505.93 Q3174.93 1502.36 3174.93 1495.25 Q3174.93 1488.12 3173.1 1484.58 Q3171.3 1481.02 3167.66 1481.02 M3167.66 1477.31 Q3173.47 1477.31 3176.53 1481.92 Q3179.61 1486.5 3179.61 1495.25 Q3179.61 1503.98 3176.53 1508.59 Q3173.47 1513.17 3167.66 1513.17 Q3161.85 1513.17 3158.77 1508.59 Q3155.72 1503.98 3155.72 1495.25 Q3155.72 1486.5 3158.77 1481.92 Q3161.85 1477.31 3167.66 1477.31 Z" fill="#000000" fill-rule="nonzero" fill-opacity="1" /><path clip-path="url(#clip780)" d="M3197.83 1481.02 Q3194.21 1481.02 3192.39 1484.58 Q3190.58 1488.12 3190.58 1495.25 Q3190.58 1502.36 3192.39 1505.93 Q3194.21 1509.47 3197.83 1509.47 Q3201.46 1509.47 3203.26 1505.93 Q3205.09 1502.36 3205.09 1495.25 Q3205.09 1488.12 3203.26 1484.58 Q3201.46 1481.02 3197.83 1481.02 M3197.83 1477.31 Q3203.64 1477.31 3206.69 1481.92 Q3209.77 1486.5 3209.77 1495.25 Q3209.77 1503.98 3206.69 1508.59 Q3203.64 1513.17 3197.83 1513.17 Q3192.01 1513.17 3188.94 1508.59 Q3185.88 1503.98 3185.88 1495.25 Q3185.88 1486.5 3188.94 1481.92 Q3192.01 1477.31 3197.83 1477.31 Z" fill="#000000" fill-rule="nonzero" fill-opacity="1" /><path clip-path="url(#clip780)" d="M1664.87 1554.79 L1664.87 1564.92 L1676.93 1564.92 L1676.93 1569.47 L1664.87 1569.47 L1664.87 1588.82 Q1664.87 1593.18 1666.05 1594.42 Q1667.25 1595.66 1670.92 1595.66 L1676.93 1595.66 L1676.93 1600.56 L1670.92 1600.56 Q1664.14 1600.56 1661.56 1598.05 Q1658.98 1595.5 1658.98 1588.82 L1658.98 1569.47 L1654.68 1569.47 L1654.68 1564.92 L1658.98 1564.92 L1658.98 1554.79 L1664.87 1554.79 Z" fill="#000000" fill-rule="nonzero" fill-opacity="1" /><polyline clip-path="url(#clip780)" style="stroke:#000000; stroke-linecap:round; stroke-linejoin:round; stroke-width:4; stroke-opacity:1; fill:none" points="178.857,1443.7 178.857,47.2441 "/>
<polyline clip-path="url(#clip780)" style="stroke:#000000; stroke-linecap:round; stroke-linejoin:round; stroke-width:4; stroke-opacity:1; fill:none" points="3152.76,1443.7 3152.76,47.2441 "/>
<polyline clip-path="url(#clip780)" style="stroke:#000000; stroke-linecap:round; stroke-linejoin:round; stroke-width:4; stroke-opacity:1; fill:none" points="178.857,1240 197.755,1240 "/>
<polyline clip-path="url(#clip780)" style="stroke:#000000; stroke-linecap:round; stroke-linejoin:round; stroke-width:4; stroke-opacity:1; fill:none" points="178.857,1010.23 197.755,1010.23 "/>
<polyline clip-path="url(#clip780)" style="stroke:#000000; stroke-linecap:round; stroke-linejoin:round; stroke-width:4; stroke-opacity:1; fill:none" points="178.857,780.457 197.755,780.457 "/>
<polyline clip-path="url(#clip780)" style="stroke:#000000; stroke-linecap:round; stroke-linejoin:round; stroke-width:4; stroke-opacity:1; fill:none" points="178.857,550.684 197.755,550.684 "/>
<polyline clip-path="url(#clip780)" style="stroke:#000000; stroke-linecap:round; stroke-linejoin:round; stroke-width:4; stroke-opacity:1; fill:none" points="178.857,320.91 197.755,320.91 "/>
<polyline clip-path="url(#clip780)" style="stroke:#000000; stroke-linecap:round; stroke-linejoin:round; stroke-width:4; stroke-opacity:1; fill:none" points="178.857,91.1365 197.755,91.1365 "/>
<polyline clip-path="url(#clip780)" style="stroke:#000000; stroke-linecap:round; stroke-linejoin:round; stroke-width:4; stroke-opacity:1; fill:none" points="3152.76,1240 3133.86,1240 "/>
<polyline clip-path="url(#clip780)" style="stroke:#000000; stroke-linecap:round; stroke-linejoin:round; stroke-width:4; stroke-opacity:1; fill:none" points="3152.76,1010.23 3133.86,1010.23 "/>
<polyline clip-path="url(#clip780)" style="stroke:#000000; stroke-linecap:round; stroke-linejoin:round; stroke-width:4; stroke-opacity:1; fill:none" points="3152.76,780.457 3133.86,780.457 "/>
<polyline clip-path="url(#clip780)" style="stroke:#000000; stroke-linecap:round; stroke-linejoin:round; stroke-width:4; stroke-opacity:1; fill:none" points="3152.76,550.684 3133.86,550.684 "/>
<polyline clip-path="url(#clip780)" style="stroke:#000000; stroke-linecap:round; stroke-linejoin:round; stroke-width:4; stroke-opacity:1; fill:none" points="3152.76,320.91 3133.86,320.91 "/>
<polyline clip-path="url(#clip780)" style="stroke:#000000; stroke-linecap:round; stroke-linejoin:round; stroke-width:4; stroke-opacity:1; fill:none" points="3152.76,91.1365 3133.86,91.1365 "/>
<path clip-path="url(#clip780)" d="M78.7975 1222.72 L97.1539 1222.72 L97.1539 1226.66 L83.0799 1226.66 L83.0799 1235.13 Q84.0984 1234.78 85.1169 1234.62 Q86.1354 1234.44 87.1539 1234.44 Q92.941 1234.44 96.3206 1237.61 Q99.7002 1240.78 99.7002 1246.2 Q99.7002 1251.78 96.228 1254.88 Q92.7558 1257.96 86.4364 1257.96 Q84.2604 1257.96 81.9919 1257.59 Q79.7466 1257.22 77.3392 1256.47 L77.3392 1251.78 Q79.4225 1252.91 81.6447 1253.47 Q83.8669 1254.02 86.3438 1254.02 Q90.3484 1254.02 92.6863 1251.91 Q95.0243 1249.81 95.0243 1246.2 Q95.0243 1242.59 92.6863 1240.48 Q90.3484 1238.37 86.3438 1238.37 Q84.4688 1238.37 82.5938 1238.79 Q80.7419 1239.21 78.7975 1240.09 L78.7975 1222.72 Z" fill="#000000" fill-rule="nonzero" fill-opacity="1" /><path clip-path="url(#clip780)" d="M118.913 1225.8 Q115.302 1225.8 113.473 1229.37 Q111.668 1232.91 111.668 1240.04 Q111.668 1247.15 113.473 1250.71 Q115.302 1254.25 118.913 1254.25 Q122.547 1254.25 124.353 1250.71 Q126.182 1247.15 126.182 1240.04 Q126.182 1232.91 124.353 1229.37 Q122.547 1225.8 118.913 1225.8 M118.913 1222.1 Q124.723 1222.1 127.779 1226.71 Q130.857 1231.29 130.857 1240.04 Q130.857 1248.77 127.779 1253.37 Q124.723 1257.96 118.913 1257.96 Q113.103 1257.96 110.024 1253.37 Q106.969 1248.77 106.969 1240.04 Q106.969 1231.29 110.024 1226.71 Q113.103 1222.1 118.913 1222.1 Z" fill="#000000" fill-rule="nonzero" fill-opacity="1" /><path clip-path="url(#clip780)" d="M49.3995 1023.58 L57.0384 1023.58 L57.0384 997.21 L48.7282 998.877 L48.7282 994.618 L56.9921 992.951 L61.668 992.951 L61.668 1023.58 L69.3068 1023.58 L69.3068 1027.51 L49.3995 1027.51 L49.3995 1023.58 Z" fill="#000000" fill-rule="nonzero" fill-opacity="1" /><path clip-path="url(#clip780)" d="M88.7512 996.03 Q85.1401 996.03 83.3114 999.595 Q81.5058 1003.14 81.5058 1010.27 Q81.5058 1017.37 83.3114 1020.94 Q85.1401 1024.48 88.7512 1024.48 Q92.3854 1024.48 94.1909 1020.94 Q96.0196 1017.37 96.0196 1010.27 Q96.0196 1003.14 94.1909 999.595 Q92.3854 996.03 88.7512 996.03 M88.7512 992.326 Q94.5613 992.326 97.6169 996.933 Q100.696 1001.52 100.696 1010.27 Q100.696 1018.99 97.6169 1023.6 Q94.5613 1028.18 88.7512 1028.18 Q82.941 1028.18 79.8623 1023.6 Q76.8068 1018.99 76.8068 1010.27 Q76.8068 1001.52 79.8623 996.933 Q82.941 992.326 88.7512 992.326 Z" fill="#000000" fill-rule="nonzero" fill-opacity="1" /><path clip-path="url(#clip780)" d="M118.913 996.03 Q115.302 996.03 113.473 999.595 Q111.668 1003.14 111.668 1010.27 Q111.668 1017.37 113.473 1020.94 Q115.302 1024.48 118.913 1024.48 Q122.547 1024.48 124.353 1020.94 Q126.182 1017.37 126.182 1010.27 Q126.182 1003.14 124.353 999.595 Q122.547 996.03 118.913 996.03 M118.913 992.326 Q124.723 992.326 127.779 996.933 Q130.857 1001.52 130.857 1010.27 Q130.857 1018.99 127.779 1023.6 Q124.723 1028.18 118.913 1028.18 Q113.103 1028.18 110.024 1023.6 Q106.969 1018.99 106.969 1010.27 Q106.969 1001.52 110.024 996.933 Q113.103 992.326 118.913 992.326 Z" fill="#000000" fill-rule="nonzero" fill-opacity="1" /><path clip-path="url(#clip780)" d="M49.3995 793.802 L57.0384 793.802 L57.0384 767.437 L48.7282 769.103 L48.7282 764.844 L56.9921 763.177 L61.668 763.177 L61.668 793.802 L69.3068 793.802 L69.3068 797.737 L49.3995 797.737 L49.3995 793.802 Z" fill="#000000" fill-rule="nonzero" fill-opacity="1" /><path clip-path="url(#clip780)" d="M78.7975 763.177 L97.1539 763.177 L97.1539 767.113 L83.0799 767.113 L83.0799 775.585 Q84.0984 775.238 85.1169 775.076 Q86.1354 774.89 87.1539 774.89 Q92.941 774.89 96.3206 778.062 Q99.7002 781.233 99.7002 786.65 Q99.7002 792.228 96.228 795.33 Q92.7558 798.409 86.4364 798.409 Q84.2604 798.409 81.9919 798.038 Q79.7466 797.668 77.3392 796.927 L77.3392 792.228 Q79.4225 793.363 81.6447 793.918 Q83.8669 794.474 86.3438 794.474 Q90.3484 794.474 92.6863 792.367 Q95.0243 790.261 95.0243 786.65 Q95.0243 783.038 92.6863 780.932 Q90.3484 778.826 86.3438 778.826 Q84.4688 778.826 82.5938 779.242 Q80.7419 779.659 78.7975 780.539 L78.7975 763.177 Z" fill="#000000" fill-rule="nonzero" fill-opacity="1" /><path clip-path="url(#clip780)" d="M118.913 766.256 Q115.302 766.256 113.473 769.821 Q111.668 773.363 111.668 780.492 Q111.668 787.599 113.473 791.163 Q115.302 794.705 118.913 794.705 Q122.547 794.705 124.353 791.163 Q126.182 787.599 126.182 780.492 Q126.182 773.363 124.353 769.821 Q122.547 766.256 118.913 766.256 M118.913 762.552 Q124.723 762.552 127.779 767.159 Q130.857 771.742 130.857 780.492 Q130.857 789.219 127.779 793.825 Q124.723 798.409 118.913 798.409 Q113.103 798.409 110.024 793.825 Q106.969 789.219 106.969 780.492 Q106.969 771.742 110.024 767.159 Q113.103 762.552 118.913 762.552 Z" fill="#000000" fill-rule="nonzero" fill-opacity="1" /><path clip-path="url(#clip780)" d="M52.6171 564.029 L68.9365 564.029 L68.9365 567.964 L46.9921 567.964 L46.9921 564.029 Q49.6541 561.274 54.2375 556.644 Q58.8439 551.992 60.0245 550.649 Q62.2698 548.126 63.1494 546.39 Q64.0522 544.631 64.0522 542.941 Q64.0522 540.186 62.1078 538.45 Q60.1865 536.714 57.0847 536.714 Q54.8856 536.714 52.4319 537.478 Q50.0014 538.242 47.2236 539.793 L47.2236 535.07 Q50.0477 533.936 52.5014 533.358 Q54.955 532.779 56.9921 532.779 Q62.3624 532.779 65.5568 535.464 Q68.7513 538.149 68.7513 542.64 Q68.7513 544.77 67.9411 546.691 Q67.1541 548.589 65.0476 551.182 Q64.4689 551.853 61.367 555.07 Q58.2652 558.265 52.6171 564.029 Z" fill="#000000" fill-rule="nonzero" fill-opacity="1" /><path clip-path="url(#clip780)" d="M88.7512 536.483 Q85.1401 536.483 83.3114 540.047 Q81.5058 543.589 81.5058 550.719 Q81.5058 557.825 83.3114 561.39 Q85.1401 564.931 88.7512 564.931 Q92.3854 564.931 94.1909 561.39 Q96.0196 557.825 96.0196 550.719 Q96.0196 543.589 94.1909 540.047 Q92.3854 536.483 88.7512 536.483 M88.7512 532.779 Q94.5613 532.779 97.6169 537.385 Q100.696 541.969 100.696 550.719 Q100.696 559.445 97.6169 564.052 Q94.5613 568.635 88.7512 568.635 Q82.941 568.635 79.8623 564.052 Q76.8068 559.445 76.8068 550.719 Q76.8068 541.969 79.8623 537.385 Q82.941 532.779 88.7512 532.779 Z" fill="#000000" fill-rule="nonzero" fill-opacity="1" /><path clip-path="url(#clip780)" d="M118.913 536.483 Q115.302 536.483 113.473 540.047 Q111.668 543.589 111.668 550.719 Q111.668 557.825 113.473 561.39 Q115.302 564.931 118.913 564.931 Q122.547 564.931 124.353 561.39 Q126.182 557.825 126.182 550.719 Q126.182 543.589 124.353 540.047 Q122.547 536.483 118.913 536.483 M118.913 532.779 Q124.723 532.779 127.779 537.385 Q130.857 541.969 130.857 550.719 Q130.857 559.445 127.779 564.052 Q124.723 568.635 118.913 568.635 Q113.103 568.635 110.024 564.052 Q106.969 559.445 106.969 550.719 Q106.969 541.969 110.024 537.385 Q113.103 532.779 118.913 532.779 Z" fill="#000000" fill-rule="nonzero" fill-opacity="1" /><path clip-path="url(#clip780)" d="M52.6171 334.255 L68.9365 334.255 L68.9365 338.19 L46.9921 338.19 L46.9921 334.255 Q49.6541 331.5 54.2375 326.871 Q58.8439 322.218 60.0245 320.875 Q62.2698 318.352 63.1494 316.616 Q64.0522 314.857 64.0522 313.167 Q64.0522 310.413 62.1078 308.676 Q60.1865 306.94 57.0847 306.94 Q54.8856 306.94 52.4319 307.704 Q50.0014 308.468 47.2236 310.019 L47.2236 305.297 Q50.0477 304.163 52.5014 303.584 Q54.955 303.005 56.9921 303.005 Q62.3624 303.005 65.5568 305.69 Q68.7513 308.376 68.7513 312.866 Q68.7513 314.996 67.9411 316.917 Q67.1541 318.815 65.0476 321.408 Q64.4689 322.079 61.367 325.297 Q58.2652 328.491 52.6171 334.255 Z" fill="#000000" fill-rule="nonzero" fill-opacity="1" /><path clip-path="url(#clip780)" d="M78.7975 303.63 L97.1539 303.63 L97.1539 307.565 L83.0799 307.565 L83.0799 316.038 Q84.0984 315.69 85.1169 315.528 Q86.1354 315.343 87.1539 315.343 Q92.941 315.343 96.3206 318.514 Q99.7002 321.686 99.7002 327.102 Q99.7002 332.681 96.228 335.783 Q92.7558 338.861 86.4364 338.861 Q84.2604 338.861 81.9919 338.491 Q79.7466 338.121 77.3392 337.38 L77.3392 332.681 Q79.4225 333.815 81.6447 334.371 Q83.8669 334.926 86.3438 334.926 Q90.3484 334.926 92.6863 332.82 Q95.0243 330.713 95.0243 327.102 Q95.0243 323.491 92.6863 321.385 Q90.3484 319.278 86.3438 319.278 Q84.4688 319.278 82.5938 319.695 Q80.7419 320.112 78.7975 320.991 L78.7975 303.63 Z" fill="#000000" fill-rule="nonzero" fill-opacity="1" /><path clip-path="url(#clip780)" d="M118.913 306.709 Q115.302 306.709 113.473 310.274 Q111.668 313.815 111.668 320.945 Q111.668 328.051 113.473 331.616 Q115.302 335.158 118.913 335.158 Q122.547 335.158 124.353 331.616 Q126.182 328.051 126.182 320.945 Q126.182 313.815 124.353 310.274 Q122.547 306.709 118.913 306.709 M118.913 303.005 Q124.723 303.005 127.779 307.612 Q130.857 312.195 130.857 320.945 Q130.857 329.672 127.779 334.278 Q124.723 338.861 118.913 338.861 Q113.103 338.861 110.024 334.278 Q106.969 329.672 106.969 320.945 Q106.969 312.195 110.024 307.612 Q113.103 303.005 118.913 303.005 Z" fill="#000000" fill-rule="nonzero" fill-opacity="1" /><path clip-path="url(#clip780)" d="M62.7559 89.7824 Q66.1124 90.5 67.9874 92.7685 Q69.8855 95.037 69.8855 98.3703 Q69.8855 103.486 66.367 106.287 Q62.8485 109.088 56.3671 109.088 Q54.1912 109.088 51.8764 108.648 Q49.5847 108.231 47.131 107.375 L47.131 102.861 Q49.0754 103.995 51.3903 104.574 Q53.7051 105.153 56.2282 105.153 Q60.6263 105.153 62.918 103.417 Q65.2328 101.68 65.2328 98.3703 Q65.2328 95.3147 63.08 93.6018 Q60.9504 91.8657 57.131 91.8657 L53.1032 91.8657 L53.1032 88.0231 L57.3161 88.0231 Q60.7652 88.0231 62.5939 86.6574 Q64.4226 85.2685 64.4226 82.6759 Q64.4226 80.0139 62.5245 78.6019 Q60.6495 77.1667 57.131 77.1667 Q55.2097 77.1667 53.0106 77.5834 Q50.8115 78 48.1727 78.8796 L48.1727 74.713 Q50.8347 73.9723 53.1495 73.6019 Q55.4875 73.2315 57.5476 73.2315 Q62.8717 73.2315 65.9735 75.6621 Q69.0753 78.0695 69.0753 82.1898 Q69.0753 85.0602 67.4318 87.0509 Q65.7883 89.0185 62.7559 89.7824 Z" fill="#000000" fill-rule="nonzero" fill-opacity="1" /><path clip-path="url(#clip780)" d="M88.7512 76.9352 Q85.1401 76.9352 83.3114 80.5 Q81.5058 84.0417 81.5058 91.1712 Q81.5058 98.2777 83.3114 101.842 Q85.1401 105.384 88.7512 105.384 Q92.3854 105.384 94.1909 101.842 Q96.0196 98.2777 96.0196 91.1712 Q96.0196 84.0417 94.1909 80.5 Q92.3854 76.9352 88.7512 76.9352 M88.7512 73.2315 Q94.5613 73.2315 97.6169 77.838 Q100.696 82.4213 100.696 91.1712 Q100.696 99.8981 97.6169 104.505 Q94.5613 109.088 88.7512 109.088 Q82.941 109.088 79.8623 104.505 Q76.8068 99.8981 76.8068 91.1712 Q76.8068 82.4213 79.8623 77.838 Q82.941 73.2315 88.7512 73.2315 Z" fill="#000000" fill-rule="nonzero" fill-opacity="1" /><path clip-path="url(#clip780)" d="M118.913 76.9352 Q115.302 76.9352 113.473 80.5 Q111.668 84.0417 111.668 91.1712 Q111.668 98.2777 113.473 101.842 Q115.302 105.384 118.913 105.384 Q122.547 105.384 124.353 101.842 Q126.182 98.2777 126.182 91.1712 Q126.182 84.0417 124.353 80.5 Q122.547 76.9352 118.913 76.9352 M118.913 73.2315 Q124.723 73.2315 127.779 77.838 Q130.857 82.4213 130.857 91.1712 Q130.857 99.8981 127.779 104.505 Q124.723 109.088 118.913 109.088 Q113.103 109.088 110.024 104.505 Q106.969 99.8981 106.969 91.1712 Q106.969 82.4213 110.024 77.838 Q113.103 73.2315 118.913 73.2315 Z" fill="#000000" fill-rule="nonzero" fill-opacity="1" /><polyline clip-path="url(#clip781)" style="stroke:#009af9; stroke-linecap:round; stroke-linejoin:round; stroke-width:8; stroke-opacity:1; fill:none" points="178.857,1423.82 178.857,1423.8 178.858,1423.82 178.858,1423.83 178.858,1423.82 178.858,1423.85 178.858,1423.83 178.858,1423.79 178.858,1423.76 178.859,1423.74 178.859,1423.75 178.859,1423.71 178.859,1423.7 178.86,1423.68 178.86,1423.7 178.861,1423.65 178.861,1423.63 178.862,1423.64 178.862,1423.58 178.863,1423.56 178.864,1423.58 178.865,1423.65 178.866,1423.66 178.867,1423.61 178.868,1423.56 178.869,1423.57 178.871,1423.55 178.873,1423.68 178.875,1423.75 178.877,1423.77 178.879,1423.83 178.882,1423.84 178.885,1423.71 178.889,1423.59 178.893,1423.6 178.898,1423.68 178.903,1423.6 178.908,1423.48 178.915,1423.52 178.922,1423.41 178.93,1423.38 178.939,1423.18 178.95,1423.15 178.961,1423.05 178.974,1422.8 178.989,1422.71 179.006,1422.85 179.024,1422.58 179.045,1422.74 179.069,1423.08 179.095,1423.36 179.125,1423.74 179.159,1423.73 179.197,1424.21 179.239,1423.58 179.287,1424.26 179.341,1424.7 179.401,1424.09 179.469,1424.06 179.546,1424.4 179.632,1424.79 179.729,1425.1 179.838,1424.07 179.96,1425.31 180.098,1425.95 180.253,1426.17 180.428,1427.51 180.624,1426.65 180.845,1426.35 181.094,1427.91 181.373,1428.29 181.688,1427.59 182.042,1428.72 182.44,1431.29 182.888,1430.83 183.391,1430.06 183.958,1428.81 184.596,1425.61 185.313,1424.58 186.12,1424.15 187.028,1422.73 188.05,1421 189.199,1420.23 190.492,1420.57 191.946,1422.79 193.582,1422.54 195.423,1428.45 196.271,1431.36 197.225,1429.09 198.298,1429.1 199.505,1426.98 200.864,1427.91 202.392,1425.12 204.11,1424.57 206.044,1425.38 208.22,1427.49 210.668,1423.32 213.421,1425.55 216.519,1427 220.004,1425.02 223.924,1424.35 228.335,1428.69 231.928,1427.72 235.97,1426.05 240.517,1424.76 245.633,1422.41 251.388,1427.87 257.863,1429.62 265.147,1423.73 273.342,1427.25 282.56,1425.17 292.932,1430.96 304.599,1431.05 317.725,1431.13 332.492,1426.6 349.105,1422.47 367.794,1418.6 388.82,1422.86 412.474,1431.68 439.084,1426.38 449.212,1426.54 460.606,1427.87 462.885,1427.47 465.448,1426.43 468.332,1425.66 471.577,1426.78 475.227,1427.67 479.333,1432.44 481.991,1431.4 484.981,1436.06 486.122,1434.38 487.406,1434.05 488.851,1432.69 490.476,1432.67 492.304,1432.05 494.36,1430.7 496.674,1429.01 499.277,1426.53 502.205,1425.77 505.5,1427.21 509.206,1427.16 513.375,1424.84 518.066,1428.95 523.343,1425.76 529.279,1425.67 535.958,1419.8 543.471,1423.07 551.924,1412.82 555.788,1410.08 560.134,1405.23 565.024,1414.56 566.302,1415.68 567.741,1418.92 569.359,1420.77 571.18,1422.43 573.228,1419.93 575.533,1423.35 578.125,1424.41 581.042,1423.5 584.322,1421.92 588.014,1424.94 592.166,1428.76 596.838,1429.23 601.745,1432.94 607.265,1427.11 613.475,1433.21 620.462,1436 628.322,1434.95 637.164,1429.41 640.591,1428.01 644.447,1422.2 648.785,1422.02 653.664,1415.64 655.713,1416.28 658.018,1415.69 660.61,1414.49 663.527,1410.99 666.808,1414.83 670.5,1411.39 674.653,1407.26 676.176,1407.61 677.889,1408.35 679.816,1410.96 681.984,1409.19 684.423,1409.51 687.167,1415.95 690.254,1413.21 693.727,1410.53 697.634,1407.09 702.03,1406.64 706.975,1403.88 712.538,1402.41 718.796,1394.6 721.241,1395.32 723.993,1394.04 727.088,1393.49 730.57,1390.85 734.487,1394.05 738.894,1394.05 743.852,1390.02 749.429,1402.84 752.055,1406.14 755.009,1401.21 758.332,1400.58 762.07,1393.4 763.098,1391.5 764.255,1390.08 765.557,1391.56 767.021,1390.46 768.669,1393.47 770.522,1393.81 772.607,1395.81 773.808,1394.4 775.159,1395.52 776.678,1402.85 778.169,1402.9 779.846,1402.4 781.733,1399 783.856,1399 786.243,1395.78 788.93,1398.54 791.163,1398.89 793.675,1392.08 796.5,1396.36 799.679,1401.57 801.006,1403.17 802.499,1403.6 804.179,1401.98 806.068,1401.81 808.194,1398.61 810.585,1397.77 813.276,1397.43 816.302,1400.34 819.707,1407.6 820.388,1408.22 821.154,1406.38 822.016,1406.13 822.986,1402.83 824.076,1400.14 825.304,1400.42 826.684,1398.85 828.237,1391.74 829.544,1387.59 831.015,1383.81 832.669,1389.34 833.146,1390.86 833.683,1390.62 834.287,1388.83 834.967,1387.77 835.732,1388.65 836.592,1388.69 837.559,1386.71 838.648,1387.87 839.873,1391.16 841.251,1388.17 841.938,1386.63 842.712,1386.12 843.582,1390.26 843.984,1392.41 844.437,1394.95 844.946,1395.15 845.52,1394.6 846.164,1396.32 846.89,1396.14 847.706,1391.94 848.624,1392.33 849.657,1395.9 850.818,1394.06 852.126,1398.53 853.117,1397.88 854.233,1398.53 855.489,1400.83 856.901,1398.27 858.489,1392.49 860.277,1397 862.149,1404.91 864.086,1402.6 866.265,1399.5 868.716,1394.16 871.474,1392.02 874.576,1391.92 878.067,1391.21 881.993,1395.62 886.411,1392.49 891.38,1390.05 896.971,1385.38 898.229,1382.14 899.644,1379.88 901.236,1372.16 901.623,1370.83 902.058,1372.5 902.548,1368.86 903.099,1370.51 903.719,1366.17 904.416,1367.45 905.2,1373.37 905.886,1375.28 906.657,1377.68 907.524,1381.29 908.501,1384.21 909.599,1381.95 910.834,1383.26 912.224,1380.59 913.787,1375.36 915.546,1377.33 917.525,1376.39 919.751,1369.45 922.256,1372.19 925.073,1375.44 928.243,1368.47 929.956,1366.46 931.883,1367.05 934.05,1370.4 936.489,1371.8 939.232,1372.92 942.319,1375.32 945.791,1379.86 949.697,1368.49 954.092,1362.62 954.971,1358.92 955.959,1366.3 956.522,1367.62 957.155,1362.76 957.867,1360.96 958.667,1356.29 959.568,1353.95 960.582,1351.98 961.722,1352.56 963.005,1353.63 964.448,1346.79 966.072,1343.99 967.898,1351.54 969.953,1346.54 972.265,1342.13 973.484,1337.48 974.855,1329.63 976.398,1321.1 978.134,1322.81 980.087,1325.52 982.284,1327.25 984.756,1320.88 987.536,1309.83 990.664,1294.79 994.183,1292.49 998.142,1284.02 1002.6,1254.9 1007.61,1257.51 1013.24,1244.87 1019.59,1231.79 1026.72,1238.24 1029.76,1222.41 1033.18,1216.24 1037.03,1183.95 1041.35,1166.74 1046.22,1139.68 1051.7,1131.91 1057.86,1122.09 1064.8,1081.8 1072.6,1057.31 1081.37,1057.38 1091.24,987.626 1098.21,949.248 1106.04,891.124 1114.86,839.485 1124.77,827.216 1135.93,798.017 1148.48,710.376 1162.6,679.31 1178.49,586.785 1196.36,593.557 1216.46,524.938 1239.08,490.293 1264.52,404.125 1293.15,373.489 1325.35,442.227 1361.58,365.188 1384.14,369.523 1409.52,363.669 1438.08,308.094 1470.2,307.444 1506.34,328.315 1546.99,293.297 1592.73,326.151 1644.19,242.839 1682.98,202.304 1726.62,117.652 1761.8,191.535 1801.38,207.271 1845.91,281.501 1896,274.647 1952.35,284.804 1995.93,300.459 2044.96,311.833 2066.34,326.196 2090.4,347.382 2117.47,310.998 2147.92,280.994 2182.17,211.498 2220.71,263.931 2251.95,207.99 2287.1,223.526 2312.2,209.03 2340.44,193.333 2372.21,219.437 2407.96,232.433 2448.17,290.506 2493.4,254.317 2544.3,273.868 2555.43,307.813 2567.96,298.567 2582.05,275.896 2597.91,255.87 2614.76,192.346 2633.72,203.904 2655.05,260.293 2679.05,226.49 2706.05,284.087 2736.42,279.45 2770.59,253.547 2809.03,274.654 2840.78,262.622 2876.49,206.5 2916.68,179.613 2939.85,201.711 2965.92,209.263 2995.24,210.514 3028.24,192.463 3065.35,142.857 3107.11,210.366 3141.67,245.767 3152.76,264.903 "/>
<polyline clip-path="url(#clip781)" style="stroke:#e26f46; stroke-linecap:round; stroke-linejoin:round; stroke-width:8; stroke-opacity:1; fill:none" points="178.857,1423.82 178.857,1423.83 178.858,1423.84 178.858,1423.87 178.858,1423.86 178.858,1423.89 178.858,1423.89 178.858,1423.93 178.858,1423.9 178.859,1423.9 178.859,1423.91 178.859,1423.89 178.859,1423.87 178.86,1423.92 178.86,1423.9 178.861,1423.91 178.861,1423.92 178.862,1423.85 178.862,1423.79 178.863,1423.78 178.864,1423.75 178.865,1423.74 178.866,1423.82 178.867,1423.89 178.868,1423.79 178.869,1423.7 178.871,1423.58 178.873,1423.57 178.875,1423.59 178.877,1423.64 178.879,1423.71 178.882,1423.79 178.885,1423.58 178.889,1423.62 178.893,1423.54 178.898,1423.61 178.903,1423.5 178.908,1423.59 178.915,1423.62 178.922,1423.63 178.93,1423.67 178.939,1423.41 178.95,1423.52 178.961,1423.66 178.974,1423.84 178.989,1423.93 179.006,1423.9 179.024,1423.9 179.045,1424 179.069,1423.85 179.095,1423.85 179.125,1423.61 179.159,1423.66 179.197,1423.85 179.239,1423.81 179.287,1424.35 179.341,1424.96 179.401,1424.06 179.469,1423.89 179.546,1423.61 179.632,1422.97 179.729,1422.55 179.838,1421.95 179.96,1421.86 180.098,1422.22 180.253,1423.21 180.428,1422.96 180.624,1422.18 180.845,1423.09 181.094,1422.85 181.373,1422.2 181.688,1420.65 182.042,1420.06 182.44,1419.56 182.888,1420.5 183.391,1421.86 183.958,1423.12 184.596,1424.95 185.313,1424.06 186.12,1425.65 187.028,1424.2 188.05,1422.06 189.199,1421.66 190.492,1419.38 191.946,1418.08 193.582,1418.63 195.423,1417.99 197.494,1417.55 199.823,1417.88 202.444,1422.44 203.847,1425.01 205.425,1424.69 207.2,1427.55 209.197,1429.73 211.443,1431.95 213.971,1434.69 216.814,1436.79 220.013,1434.66 223.611,1429.18 227.376,1422.25 231.611,1425.29 236.375,1421.18 241.736,1417.87 247.766,1415.22 254.549,1413.45 262.181,1410.43 270.767,1416.76 280.426,1420.45 290.075,1422.15 300.929,1429.68 313.141,1426.01 326.879,1424.27 342.334,1406.68 348.37,1400.19 355.16,1401.41 362.799,1400.29 371.392,1396.25 381.06,1412.5 389.313,1418.74 398.597,1421.31 409.041,1419.16 420.791,1420.21 434.01,1421.16 448.881,1411.62 449.212,1413.45 449.584,1411.38 450.003,1411.38 450.475,1409.57 451.005,1410.61 451.601,1410.5 452.273,1408.9 453.028,1409.48 453.877,1408.27 454.833,1406.88 455.908,1407.14 457.117,1410.83 458.478,1411.97 458.991,1410.5 459.568,1411.15 460.217,1411.45 460.948,1415.41 461.253,1415.29 461.596,1414.26 461.981,1414.5 462.416,1414.51 462.904,1414.75 463.453,1415.96 464.071,1417.62 464.767,1416.72 465.549,1416.64 466.429,1416.11 467.419,1421.09 467.919,1419.58 468.481,1419.74 469.114,1421.31 469.826,1418.91 470.627,1416.08 471.528,1413.23 472.542,1414.01 473.682,1418.12 474.067,1419.66 474.5,1419.05 474.988,1418.86 475.536,1416.14 476.152,1419.09 476.846,1418.99 477.627,1417.6 478.505,1421.51 479.492,1418.45 480.604,1420.75 481.854,1420.67 483.26,1422.44 484.842,1422.98 486.622,1423.53 488.625,1423.76 490.878,1421.78 492.005,1419.46 493.273,1418.62 494.7,1419.27 496.305,1417.64 498.11,1413.36 500.142,1417.49 502.427,1415.73 504.998,1414.26 507.89,1405.61 510.461,1403.49 513.354,1396.68 515.733,1397.83 518.41,1397.05 521.422,1395.15 524.81,1394.3 527.943,1396.02 531.467,1394.88 535.432,1396.83 539.893,1399.84 544.911,1396.05 550.557,1387.96 554.177,1379.49 554.901,1378.07 555.715,1377.53 556.632,1376.1 556.995,1376.5 557.404,1377.93 557.864,1377.52 558.381,1377.41 558.964,1376.3 559.618,1377.55 560.355,1373.38 561.184,1370.41 562.117,1365.57 563.166,1370.83 564.346,1368.26 565.673,1361.59 567.167,1360.68 568.847,1361.97 570.738,1349.21 572.865,1352.85 573.813,1349.01 574.88,1353.82 575.863,1352.79 576.969,1351.25 578.213,1348.46 579.613,1349.79 581.188,1344.93 582.96,1334.81 584.953,1335.37 587.196,1335.53 589.718,1320.75 592.556,1320 595.749,1324.55 599.341,1301.91 603.382,1267.85 604.826,1265.31 606.45,1261.24 608.277,1245.92 610.333,1248.95 612.646,1254.76 615.248,1239.68 618.175,1233.46 621.468,1214.29 625.172,1193.83 629.34,1170.91 634.028,1173.65 639.303,1120.68 645.237,1066.51 647.568,1047.66 650.191,1034.02 653.141,1006.65 656.46,983.657 660.195,964.999 664.396,920.619 669.122,918.544 674.439,910.083 679.625,888.778 685.46,853.985 692.024,849.747 699.409,844.471 707.717,790.592 717.063,719.733 727.578,672.344 739.407,613.946 752.715,623.052 767.686,557.345 784.528,450.607 803.476,406.517 824.792,382.236 848.773,287.217 875.751,256.14 906.102,307.657 912.172,290.168 919.001,241.296 926.683,232.561 935.326,214.608 945.049,176.417 955.988,200.69 968.294,270.255 982.138,305.645 997.713,320.836 1015.23,299.999 1034.95,284.907 1057.12,269.902 1082.07,277.692 1110.13,277.263 1141.71,266.612 1177.23,209.679 1217.19,138.047 1237.08,144.752 1259.45,197.748 1284.62,224.818 1312.94,181.353 1344.8,167 1380.64,173.847 1420.96,222.845 1466.32,227.667 1517.34,272.014 1574.75,281.378 1639.33,216.065 1711.99,133.904 1726.52,179.954 1742.87,226.763 1761.26,304.069 1781.95,316.563 1805.23,334.396 1831.41,328.459 1860.87,387.985 1894.01,380.943 1909.13,393.551 1926.15,374.243 1945.28,398.582 1966.81,421.198 1991.04,389.137 2018.29,367.841 2048.94,281.629 2083.43,294.534 2122.23,337.697 2165.88,270.668 2200.45,307.529 2239.35,303.221 2283.11,275.142 2332.34,281.376 2387.72,308.17 2450.03,276.943 2465.33,199.742 2482.54,234.057 2501.9,227.793 2523.68,313.607 2548.19,297.545 2575.75,360.065 2606.77,312.535 2631.3,295.289 2658.9,302.067 2689.95,295.131 2724.88,272.267 2764.18,207.793 2808.38,100.133 2818.61,103.704 2830.11,121.465 2843.05,63.3499 2857.61,86.6865 2873.99,123.426 2892.42,105.75 2913.15,210.063 2936.47,220.814 2962.7,154.766 2992.22,50.6676 3025.42,53.0695 3051.62,47.2441 3081.09,141.756 3114.25,205.176 3151.55,267.983 3152.76,261.87 "/>
<polyline clip-path="url(#clip781)" style="stroke:#3da44d; stroke-linecap:round; stroke-linejoin:round; stroke-width:8; stroke-opacity:1; fill:none" points="178.857,1423.82 178.857,1423.79 178.858,1423.78 178.858,1423.77 178.858,1423.77 178.858,1423.74 178.858,1423.74 178.858,1423.76 178.858,1423.79 178.859,1423.76 178.859,1423.73 178.859,1423.77 178.859,1423.77 178.86,1423.78 178.86,1423.79 178.861,1423.81 178.861,1423.88 178.862,1423.85 178.862,1423.92 178.863,1423.91 178.864,1423.93 178.865,1423.98 178.866,1423.85 178.867,1423.79 178.868,1423.86 178.869,1423.83 178.871,1423.77 178.873,1423.7 178.875,1423.64 178.877,1423.59 178.879,1423.71 178.882,1423.76 178.885,1423.77 178.889,1423.69 178.893,1423.51 178.898,1423.47 178.903,1423.51 178.908,1423.44 178.915,1423.46 178.922,1423.31 178.93,1423.32 178.939,1423.2 178.95,1423.26 178.961,1423.29 178.974,1423.19 178.989,1423.23 179.006,1423.1 179.024,1423.18 179.045,1422.88 179.069,1423.27 179.095,1423.55 179.125,1423.59 179.159,1423.9 179.197,1424.15 179.239,1423.89 179.287,1423.75 179.341,1423.92 179.401,1424.12 179.469,1423.89 179.546,1424.7 179.632,1424.79 179.729,1424.11 179.838,1425.24 179.96,1424.76 180.098,1424.58 180.253,1423.76 180.428,1423.26 180.624,1423.73 180.845,1422.77 181.094,1423.42 181.373,1425.03 181.688,1425.17 182.042,1425.16 182.44,1424.05 182.888,1422.13 183.391,1421.89 183.958,1423.18 184.596,1423.26 185.313,1423.99 186.12,1424.67 187.028,1424.41 188.05,1421.53 189.199,1423.51 190.492,1423.73 191.946,1421.69 193.582,1419.97 195.423,1422 197.494,1425.04 199.823,1420.41 201.596,1418.19 203.59,1417.77 205.833,1416.75 208.357,1418.02 211.196,1411.7 214.39,1411.82 217.984,1411.83 222.026,1412.74 226.574,1413.24 231.69,1413.38 237.446,1405.4 241.375,1404.56 245.795,1405.61 250.767,1396.77 255.004,1395.82 259.77,1389.44 265.132,1387.5 271.164,1394.01 277.951,1400.71 285.585,1408.55 294.174,1403.58 303.836,1410.92 314.707,1406.22 326.936,1408.12 340.693,1405.56 356.171,1411.97 373.583,1418.26 393.171,1425.47 415.208,1425.31 430.145,1436.49 438.042,1439.79 446.928,1436.97 449.212,1436.41 451.782,1432.54 454.673,1435.28 457.925,1434.99 461.584,1436.59 465.7,1438.8 470.331,1433.86 474.857,1433.05 479.948,1430.01 485.677,1434.97 492.121,1435.15 499.371,1434.6 507.527,1426.08 516.702,1425.78 527.025,1418.98 536.886,1419.79 547.979,1416.95 558.759,1421.03 570.886,1409.78 584.53,1409.7 594.593,1408.02 596.606,1407.29 598.87,1404.07 601.417,1405.1 604.283,1406.98 606.968,1406.92 609.989,1401.79 610.71,1400.44 611.522,1400.59 612.434,1404.3 613.461,1402.32 614.616,1401.61 615.915,1402.16 617.377,1404.8 619.022,1406.25 620.872,1407.93 622.953,1404.75 625.295,1402.75 627.929,1402.42 630.893,1402.87 634.227,1404.12 637.978,1397.98 642.197,1405.01 644.506,1401.14 647.104,1407.73 650.026,1409.35 653.314,1400.69 654.323,1399.51 655.459,1397.64 656.736,1402.58 658.173,1400.48 659.79,1393.12 661.609,1394.46 663.106,1393.76 664.791,1393.55 666.686,1384.51 667.349,1385.97 668.094,1386.06 668.933,1390.76 669.877,1391.95 670.939,1387.78 671.973,1384.21 673.136,1385.39 674.445,1382.12 675.918,1384.26 677.574,1390.48 679.438,1388.02 681.535,1381.43 683.893,1377.35 686.547,1364.22 689.511,1363.59 692.845,1366.2 696.597,1355.19 700.817,1358.48 705.565,1354.64 710.906,1346.06 713.082,1335.21 715.529,1336.75 718.282,1331.34 721.38,1316.54 724.864,1309.09 728.315,1307.24 732.197,1293.44 736.564,1267.31 741.477,1249.03 747.004,1220.64 753.222,1200.2 760.218,1157.96 768.088,1128.49 776.941,1059.31 786.902,1023.6 798.107,976.967 810.713,962.914 824.895,876.443 840.849,813.561 858.798,792.231 878.861,715.793 901.36,687.021 926.671,702.642 951.063,642.576 976.428,583.378 1004.96,504.768 1037.07,538.669 1073.18,500.197 1091.26,506.424 1111.61,478.466 1134.49,431.963 1160.24,426.919 1189.21,396.914 1221.79,376.918 1258.45,371.82 1299.7,366.256 1346.09,312.93 1398.29,211.748 1457.01,243.757 1483.07,204.195 1512.39,159.84 1545.37,224.688 1582.48,201.415 1624.22,220.919 1671.19,230.387 1724.02,203.109 1783.46,266.774 1827.18,229.783 1876.37,181.269 1900.66,207.082 1927.99,261.12 1958.73,284.74 1993.31,284.767 2032.22,373.717 2076,308.042 2084.75,286.831 2094.6,263.986 2105.68,212.646 2118.14,244.208 2132.17,275.687 2147.94,286.817 2165.69,283.4 2185.66,303.509 2208.12,289.151 2233.39,294.312 2261.82,284.317 2293.8,248.893 2329.78,200.992 2345.66,193.852 2363.52,264.063 2383.62,293.439 2406.23,245.841 2431.67,222.225 2460.29,236.386 2492.48,255.254 2528.7,238.615 2569.44,196.394 2615.28,242.468 2655.29,266.488 2700.3,240.274 2750.94,275.421 2794.53,243.953 2843.57,226.714 2884.85,265.032 2931.28,241.454 2983.53,260.19 3040.16,287.513 3103.87,320.361 3152.76,379.796 "/>
<polyline clip-path="url(#clip781)" style="stroke:#c271d2; stroke-linecap:round; stroke-linejoin:round; stroke-width:8; stroke-opacity:1; fill:none" points="178.857,1423.82 178.857,1423.83 178.858,1423.84 178.858,1423.83 178.858,1423.81 178.858,1423.83 178.858,1423.82 178.858,1423.83 178.858,1423.83 178.859,1423.87 178.859,1423.86 178.859,1423.82 178.859,1423.83 178.86,1423.81 178.86,1423.84 178.861,1423.82 178.861,1423.8 178.862,1423.82 178.862,1423.76 178.863,1423.75 178.864,1423.79 178.865,1423.86 178.866,1423.89 178.867,1423.84 178.868,1423.84 178.869,1423.89 178.871,1423.97 178.873,1423.97 178.875,1424.08 178.877,1424.01 178.879,1423.88 178.882,1423.86 178.885,1423.92 178.889,1424.08 178.893,1424.12 178.898,1424.25 178.903,1424.18 178.908,1424.21 178.915,1424.29 178.922,1424.32 178.93,1424.37 178.939,1423.99 178.95,1424.34 178.961,1424.26 178.974,1424.39 178.989,1424.77 179.006,1424.72 179.024,1424.71 179.045,1425.15 179.069,1425.47 179.095,1425.79 179.125,1425.69 179.159,1425.91 179.197,1425.96 179.239,1425.13 179.287,1424.8 179.341,1424.63 179.401,1425.23 179.469,1425.18 179.546,1425.37 179.632,1425.36 179.729,1425.06 179.838,1425.96 179.96,1424.82 180.098,1424.4 180.253,1423.27 180.428,1423.05 180.624,1424.52 180.845,1423.71 181.094,1423.24 181.373,1422.7 181.688,1423.92 182.042,1423.82 182.44,1423.36 182.888,1421.61 183.391,1421.66 183.958,1420.21 184.596,1417.64 185.313,1416.31 186.12,1416.09 187.028,1417.48 188.05,1417.44 189.199,1417.21 190.492,1415.64 191.946,1418.08 193.582,1416.67 195.423,1417.19 197.494,1422.17 199.823,1421.25 202.444,1420.87 205.393,1418.86 208.71,1417.09 212.441,1422.24 216.639,1426.66 221.362,1421.76 226.675,1430.71 227.738,1430.08 228.933,1431.21 230.278,1431.69 231.791,1428.84 233.493,1429.78 235.408,1431.66 237.563,1430.31 239.986,1429.23 242.713,1428.93 245.78,1424.12 249.231,1424.64 253.113,1425.99 257.48,1424.52 262.393,1421.83 267.921,1426.13 274.139,1431.27 281.135,1438.24 289.005,1439.02 297.858,1430.05 300.636,1431.63 303.76,1428.24 306.587,1428.94 309.767,1431.34 313.344,1429.09 317.369,1430.16 321.896,1425.56 326.99,1416.8 332.72,1422.02 339.167,1421.42 346.42,1413.55 354.579,1411.62 363.758,1415.41 374.084,1420.99 385.701,1417.91 398.77,1412.85 413.473,1425.08 430.014,1423.18 448.622,1420.12 449.212,1416.86 449.875,1418.86 450.622,1417.83 451.461,1418.48 452.406,1420.21 453.469,1418.94 454.664,1417.45 456.009,1415.67 457.522,1412.82 459.225,1413.63 461.14,1414.31 463.294,1417.88 465.718,1414.1 468.445,1411.13 471.512,1407.07 474.963,1411.36 477.029,1407.77 479.352,1405.12 481.967,1398.2 484.908,1394.97 488.216,1397.57 491.938,1395.79 496.126,1403.44 500.837,1393.72 503.418,1398.47 506.323,1402.56 509.437,1401.36 512.941,1400.32 516.883,1394.65 521.318,1390.34 526.307,1390.95 531.92,1389.74 538.234,1380.18 545.282,1394.21 548.936,1392.63 553.048,1390.95 557.673,1392.68 562.877,1385.83 568.731,1385.54 570.529,1389.07 572.552,1389.21 574.828,1389.17 577.388,1385.4 580.268,1389.54 583.508,1395.2 587.135,1388.4 591.216,1388.06 595.807,1382.73 600.971,1386.96 606.781,1382.16 613.318,1363.88 620.671,1363.9 628.944,1358.15 638.25,1356.97 648.72,1317.57 660.499,1286.74 663.283,1258.63 666.415,1252.7 669.938,1242.39 673.901,1183.15 674.694,1175.65 675.586,1180.36 676.589,1175.23 677.718,1159.15 678.834,1155.65 680.09,1146.23 681.503,1143.71 683.092,1138.06 684.881,1140.59 686.849,1132.93 689.064,1111.56 691.555,1102.61 693.896,1095.65 696.53,1095.03 699.492,1077.95 702.825,1051.47 706.575,1038.1 710.793,1026.26 715.539,1017.82 720.878,984.317 726.884,964.936 733.641,909.725 741.243,877.834 749.795,834.065 759.416,794.681 770.239,769.772 782.415,731.097 796.114,673.336 811.525,703.87 828.862,658.509 843.652,597.724 860.29,592.638 879.009,548.315 900.067,523.772 923.758,485.11 950.41,415.857 980.394,372.018 1014.13,355.374 1052.07,343.579 1094.76,329.526 1142.79,363.463 1196.82,381.547 1238.07,306.908 1284.46,382.401 1336.66,242.607 1355.89,245.141 1377.52,246.661 1401.86,258.493 1429.23,301.041 1460.03,276.481 1494.68,338.292 1533.66,300.14 1543.22,281.025 1553.97,307.852 1566.06,317.569 1579.67,295.077 1594.98,308.714 1612.2,328.358 1631.57,318.365 1653.37,322.9 1677.89,302.409 1705.47,293.271 1736.5,283.947 1771.42,278.596 1810.69,368.864 1854.88,277.005 1870.99,211.367 1889.12,175.024 1909.51,180.285 1932.45,165.095 1958.26,174.034 1987.3,195.386 2019.97,179.656 2056.72,214.374 2098.06,261.743 2144.57,201.897 2196.9,125.498 2218.76,151.735 2243.35,136.628 2271.02,85.6238 2302.15,121.005 2335.75,199.218 2373.55,232.4 2416.08,267.525 2463.93,230.842 2517.75,280.088 2556.24,343.417 2599.54,329.654 2608.2,297.485 2617.95,339.841 2628.91,364.252 2641.24,386.05 2655.11,329.595 2670.72,310.991 2688.27,320.632 2708.02,368.895 2730.25,400.509 2738.2,409.627 2747.14,423.654 2757.21,418.989 2768.53,384.723 2781.26,386.975 2795.59,364.729 2811.71,411.895 2829.85,354.972 2850.25,333.469 2873.2,393.598 2899.03,403.155 2926.19,428.754 2956.75,362.329 2991.14,304.048 3029.81,383.962 3073.33,352.363 3082.03,356.044 3091.82,385.703 3102.84,384.814 3115.23,394.803 3129.17,395.5 3144.85,420.506 3152.76,408.792 "/>
<polyline clip-path="url(#clip781)" style="stroke:#ac8d18; stroke-linecap:round; stroke-linejoin:round; stroke-width:8; stroke-opacity:1; fill:none" points="178.857,1423.82 178.857,1423.81 178.858,1423.83 178.858,1423.84 178.858,1423.84 178.858,1423.81 178.858,1423.81 178.858,1423.77 178.858,1423.79 178.859,1423.8 178.859,1423.79 178.859,1423.79 178.859,1423.79 178.86,1423.79 178.86,1423.8 178.861,1423.79 178.861,1423.76 178.862,1423.69 178.862,1423.63 178.863,1423.58 178.864,1423.57 178.865,1423.55 178.866,1423.59 178.867,1423.58 178.868,1423.55 178.869,1423.65 178.871,1423.7 178.873,1423.75 178.875,1423.66 178.877,1423.61 178.879,1423.65 178.882,1423.59 178.885,1423.55 178.889,1423.63 178.893,1423.62 178.898,1423.83 178.903,1423.78 178.908,1423.63 178.915,1423.51 178.922,1423.41 178.93,1423.16 178.939,1423.15 178.95,1423.44 178.961,1423.28 178.974,1423.34 178.989,1422.95 179.006,1422.63 179.024,1422.44 179.045,1422.47 179.069,1422.39 179.095,1422.17 179.125,1421.92 179.159,1421.39 179.197,1421.06 179.239,1421.1 179.287,1421.33 179.341,1421.02 179.401,1420.8 179.469,1420.35 179.546,1419.72 179.632,1420.55 179.729,1420.47 179.838,1420.85 179.96,1421.23 180.098,1421.47 180.253,1420.35 180.428,1420.57 180.624,1419.78 180.845,1419.91 181.094,1419.27 181.373,1420.17 181.688,1419.96 182.042,1419.16 182.44,1417.51 182.888,1414.89 183.236,1416.08 183.628,1413.98 184.069,1415.54 184.565,1415.14 185.122,1415.33 185.75,1415.36 186.456,1416.78 187.251,1417.57 188.144,1417.69 189.15,1422.06 190.281,1417.17 191.553,1417.22 192.985,1417.95 194.595,1417.15 196.407,1415.22 198.445,1413.57 200.738,1413.51 203.318,1410.86 206.22,1408.5 209.485,1406.81 213.158,1403.95 217.29,1402.07 221.939,1406.14 227.169,1406.54 233.052,1403.62 239.671,1402.31 247.117,1401.41 255.494,1404.04 264.919,1403.74 275.521,1396.45 287.448,1403.26 300.867,1407.82 315.962,1399.65 332.945,1402.19 349.491,1412.51 360.995,1409.99 373.938,1401.32 388.498,1401.61 404.878,1399.93 423.306,1402.89 444.037,1406.23 449.212,1408.56 455.034,1410.46 461.583,1406.72 468.951,1402.68 477.241,1396.99 486.566,1397.97 497.057,1394.67 508.86,1379.69 513.761,1381.87 519.275,1380.04 525.479,1375.72 532.457,1374.94 540.308,1356.66 549.141,1350.95 559.077,1315.49 570.256,1286.21 582.832,1252.89 585.347,1241.37 588.176,1226.93 591.36,1210.06 594.941,1225.62 595.657,1216.05 596.463,1207.45 597.369,1211.11 598.389,1208.67 599.536,1208.47 600.373,1200.93 601.314,1203.23 602.372,1203.74 603.563,1200.18 604.903,1208.54 606.41,1212.87 608.105,1212.05 610.013,1186.74 611.257,1179.87 612.658,1164.9 614.233,1144.62 616.005,1124.38 617.998,1111.27 620.241,1077.91 620.722,1083.09 621.264,1086.86 621.873,1077.92 622.558,1065.97 623.329,1065.05 624.197,1057.3 625.172,1049.51 626.27,1058.22 627.505,1058.65 628.895,1046.58 630.458,1040.91 632.216,1018.46 634.195,997.845 636.42,997.553 638.924,966.934 641.741,945.244 644.91,938.724 648.475,919.252 652.486,901.906 656.998,879.451 662.074,876.376 667.784,842.001 674.208,832.942 681.436,799.115 689.566,777.811 698.714,735.873 709.004,708.541 720.581,654.725 733.605,612.912 748.256,552.297 764.74,504.079 783.284,523.084 804.145,534.27 827.615,461.909 854.018,438.425 883.721,401.977 917.138,332.591 954.731,396.094 997.024,412.973 1018.26,411.554 1042.16,373.848 1069.04,392.146 1099.28,319.13 1133.3,316.536 1171.58,328.707 1214.63,272.217 1263.08,273.554 1317.57,259.169 1378.88,233.329 1423.76,221.578 1474.25,192.464 1518.17,159.37 1567.58,175.172 1608.99,253.818 1655.58,166.721 1707.98,240.551 1726.13,232.586 1746.54,305.086 1769.51,304.572 1795.35,251.669 1824.41,265.745 1857.11,324.671 1893.9,316.994 1935.28,315.491 1981.84,357.137 2034.22,227.976 2093.14,228.821 2135.29,260.114 2182.72,288.566 2236.07,247.089 2296.09,214.65 2308.09,171.512 2321.59,167.078 2336.79,169.51 2353.88,172.692 2373.11,154.122 2394.74,106.071 2419.07,205.587 2446.45,202.922 2477.25,197.779 2511.9,231.601 2550.88,203.909 2594.73,254.741 2640.86,283.593 2692.76,264.477 2751.14,281.004 2765.29,274.058 2781.2,329.641 2799.09,354.288 2819.23,334.855 2841.88,329.782 2867.36,309.668 2896.03,272.362 2928.29,263.067 2964.57,291.351 3005.39,249.449 3051.31,271.145 3078.63,293.609 3109.37,247.417 3143.94,356.817 3152.76,338.012 "/>
<polyline clip-path="url(#clip781)" style="stroke:#00a9ad; stroke-linecap:round; stroke-linejoin:round; stroke-width:8; stroke-opacity:1; fill:none" points="178.857,1423.82 178.857,1423.81 178.858,1423.8 178.858,1423.79 178.858,1423.79 178.858,1423.79 178.858,1423.77 178.858,1423.79 178.858,1423.81 178.859,1423.82 178.859,1423.81 178.859,1423.82 178.859,1423.78 178.86,1423.75 178.86,1423.75 178.861,1423.82 178.861,1423.84 178.862,1423.83 178.862,1423.75 178.863,1423.79 178.864,1423.83 178.865,1423.92 178.866,1423.84 178.867,1423.8 178.868,1423.75 178.869,1423.88 178.871,1423.8 178.873,1423.75 178.875,1423.93 178.877,1423.83 178.879,1423.82 178.882,1423.89 178.885,1423.55 178.889,1423.42 178.893,1423.55 178.898,1423.59 178.903,1423.63 178.908,1423.73 178.915,1423.86 178.922,1423.9 178.93,1423.85 178.939,1423.62 178.95,1423.55 178.961,1423.84 178.974,1423.7 178.989,1423.93 179.006,1423.79 179.024,1424.09 179.045,1424.33 179.069,1424.27 179.095,1424.93 179.125,1425.32 179.159,1424.6 179.197,1424.05 179.239,1424.61 179.287,1424.44 179.341,1424.16 179.401,1423.62 179.469,1424.32 179.546,1424.99 179.632,1425.5 179.729,1425.74 179.838,1425.97 179.96,1425.54 180.098,1425.87 180.253,1425.24 180.428,1425.07 180.624,1426.44 180.845,1427.15 181.094,1425.93 181.373,1426.04 181.688,1425.15 182.042,1425.76 182.44,1425.75 182.888,1426.16 183.391,1426.59 183.958,1428.32 184.596,1428.73 185.313,1429.21 186.12,1432.06 187.028,1431.6 188.05,1432.55 189.199,1430.87 190.492,1429.07 191.946,1427.44 193.582,1427.4 195.423,1422.47 197.494,1424.11 199.823,1421.91 202.444,1421.13 205.393,1422.89 208.71,1418.75 212.441,1414.03 216.639,1410.69 221.362,1407.55 226.675,1406 232.653,1410.14 239.377,1411.99 246.942,1411.85 255.453,1411.81 265.027,1416.47 275.799,1414.01 287.916,1417.79 301.549,1424.04 316.885,1428.76 331.593,1440.53 345.583,1434.73 361.322,1432.47 379.028,1434.06 398.947,1436.93 421.356,1419.84 425.838,1417.24 430.88,1415.17 436.553,1410.24 441.644,1413.06 447.371,1418.53 449.212,1418.31 451.282,1416.12 453.612,1418.31 456.232,1417.57 459.18,1415.69 462.497,1411.58 466.228,1399.22 468.915,1394.41 471.937,1386.43 475.153,1388.75 478.771,1388.73 482.841,1400.46 484.151,1399.28 485.625,1401.51 487.283,1399.4 489.148,1401.34 491.246,1398.8 493.606,1404.15 495.19,1402.22 496.971,1405.29 498.47,1402.43 500.156,1405.7 502.053,1400.53 504.187,1400.9 506.588,1401.97 509.289,1397.67 512.327,1400.46 513.967,1400.71 515.811,1397.39 517.886,1392.45 520.221,1389.07 522.847,1385.6 525.802,1394.68 526.608,1395.08 527.515,1389.26 528.535,1392.32 529.683,1390.29 530.974,1394.26 532.427,1391.13 534.061,1389.42 535.899,1388.04 537.967,1386.04 540.294,1390.58 542.912,1386.78 544.709,1386.61 546.731,1379.26 547.34,1378.04 548.026,1379.71 548.798,1380.57 549.666,1383.35 550.643,1386.8 551.741,1387.31 551.961,1385.78 552.208,1384.03 552.486,1384.34 552.799,1384.75 553.151,1385.33 553.547,1385.53 553.993,1388.35 554.494,1390.44 555.058,1388.85 555.692,1386.96 556.406,1389.02 557.208,1387.92 558.111,1387.44 559.127,1383.4 560.27,1386.84 561.556,1385.2 563.003,1381.2 564.63,1373.53 566.461,1374.05 568.521,1379.68 568.933,1379.69 569.396,1379.15 569.917,1379.05 570.504,1382.38 571.164,1383.27 571.906,1381.79 572.741,1383.55 573.681,1384.1 574.738,1384.18 575.927,1385.36 577.264,1384.58 578.769,1380.53 580.462,1386.36 581.523,1387.66 582.716,1385.61 584.058,1383.2 585.568,1386.07 587.205,1393.03 589.047,1394.05 591.119,1391.72 593.45,1397.32 594.687,1396.4 596.078,1396.28 597.456,1391.61 599.006,1393.74 600.75,1391.01 602.713,1386.98 604.92,1392.57 606.916,1397.94 609.162,1401.74 611.688,1398.85 614.53,1396.64 617.727,1398.65 621.324,1393.04 625.371,1391.68 626.669,1390.84 628.129,1390.22 629.771,1395.97 631.619,1395.88 633.698,1391.67 636.037,1396.89 638.668,1397.13 641.628,1408.03 643.24,1406.2 645.054,1406.19 647.094,1405.07 649.389,1399.28 651.972,1393.63 654.427,1391.45 657.19,1388.51 660.297,1389.57 663.793,1386.66 667.726,1377.75 672.151,1378.52 677.129,1385.56 682.729,1388.84 689.029,1391.29 692.916,1396.52 696.34,1387.64 700.192,1393.56 704.526,1388.16 709.401,1382.16 714.885,1367.34 721.055,1372.51 722.289,1365.47 723.677,1370.6 725.239,1369.49 726.996,1368.25 728.973,1363.97 731.196,1356.11 733.698,1354.3 736.512,1365.88 738.878,1365.04 741.54,1364.84 744.535,1366.14 747.904,1380.05 748.763,1381.8 749.729,1378.47 750.816,1374.44 752.039,1373.89 753.414,1370.03 754.962,1366.49 756.703,1365.25 758.661,1361.36 760.864,1357.9 762.559,1359.96 764.465,1357.94 766.609,1358.27 769.021,1353.68 771.735,1349.04 774.788,1342.48 778.223,1323.33 780.327,1327.92 782.335,1321.98 784.594,1323.18 787.134,1299.71 789.109,1293.16 791.329,1287.99 793.828,1272.57 796.639,1272.66 799.801,1262.04 803.358,1231.06 807.361,1230.7 811.863,1210.53 816.928,1171.43 820.525,1154.72 824.572,1145.72 829.125,1115.56 834.247,1110.75 840.008,1092.26 846.491,1067.67 853.783,1049.69 861.987,1010.82 871.217,989.834 881.6,966.411 893.281,889.227 906.422,873.022 921.206,832.753 937.838,772.454 956.549,752.489 977.598,707.806 997.898,699.821 1020.73,664.788 1042.72,604.822 1067.45,528.898 1095.28,446.116 1126.58,513.891 1161.8,461.759 1178.78,428.778 1197.88,440.866 1219.37,444.095 1243.54,478.084 1270.74,484.943 1297.39,458.654 1327.37,395.074 1361.1,337.049 1399.05,323.202 1441.74,398.324 1489.76,370.935 1509.16,308.396 1530.99,264.383 1555.54,169.927 1568.96,164.342 1584.05,186.119 1601.03,205.378 1620.14,249.315 1641.63,253.329 1665.81,341.282 1693.01,365.414 1723.61,341.757 1747.4,344.41 1774.15,337.329 1804.25,351.511 1838.11,328.404 1876.2,347.74 1919.06,379.527 1967.27,290.134 2004.27,262.578 2045.9,323.637 2081.84,315.051 2122.27,305.389 2167.76,357.347 2218.93,285.311 2243.64,275.283 2271.44,247.592 2302.71,240.244 2337.89,254.227 2377.47,361.921 2421.99,388.425 2472.09,326.07 2498.8,319.766 2528.85,300.305 2562.66,261.196 2600.69,277.093 2643.48,300.806 2691.61,250.64 2745.77,170.354 2775.95,218.595 2809.91,246.955 2848.12,272.856 2891.09,302.054 2939.45,263.533 2993.84,282.198 3055.04,320.36 3123.88,317.105 3137.65,315.637 3152.76,357.279 "/>
<polyline clip-path="url(#clip781)" style="stroke:#ed5d92; stroke-linecap:round; stroke-linejoin:round; stroke-width:8; stroke-opacity:1; fill:none" points="178.857,1423.82 178.857,1423.84 178.858,1423.84 178.858,1423.85 178.858,1423.86 178.858,1423.87 178.858,1423.86 178.858,1423.8 178.858,1423.78 178.859,1423.81 178.859,1423.79 178.859,1423.69 178.859,1423.7 178.86,1423.65 178.86,1423.67 178.861,1423.69 178.861,1423.69 178.862,1423.68 178.862,1423.68 178.863,1423.69 178.864,1423.72 178.865,1423.66 178.866,1423.66 178.867,1423.82 178.868,1423.87 178.869,1423.94 178.871,1423.98 178.873,1424.03 178.875,1423.9 178.877,1423.98 178.879,1424.06 178.882,1424.15 178.885,1424.14 178.889,1424.12 178.893,1424.06 178.898,1423.93 178.903,1424.05 178.908,1423.95 178.915,1424 178.922,1424.02 178.93,1423.91 178.939,1424.21 178.95,1424.23 178.961,1424.3 178.974,1424.31 178.989,1424.58 179.006,1424.52 179.024,1424.72 179.045,1424.94 179.069,1425.11 179.095,1425.09 179.125,1425.39 179.159,1425.37 179.197,1425.32 179.239,1424.71 179.287,1424.17 179.341,1423.95 179.401,1424.32 179.469,1424.42 179.546,1424.74 179.632,1424.43 179.729,1424.33 179.838,1423.67 179.96,1423.42 180.098,1422.44 180.253,1423.72 180.428,1424.15 180.624,1422.79 180.845,1422.03 181.094,1422.2 181.373,1422.4 181.688,1422.14 182.042,1421.03 182.44,1417.15 182.888,1416.83 183.391,1416.97 183.958,1417.86 184.596,1419.59 185.313,1417.84 186.12,1418.3 187.028,1421.17 188.05,1419.35 189.199,1417.12 190.492,1420.98 191.946,1424.36 193.582,1422.75 195.423,1426.52 197.494,1430.89 199.823,1428.75 202.444,1425.35 205.393,1428.9 208.71,1431.02 212.441,1434.43 215.003,1429.47 217.885,1431.41 221.127,1428.17 224.774,1433.72 228.877,1432.64 233.493,1433.77 238.687,1438.53 244.529,1434.24 251.102,1438.88 257.51,1440.59 264.719,1441.11 272.83,1440.19 276.875,1436.96 281.425,1437.33 286.544,1438.5 292.304,1442.23 298.783,1441.01 306.072,1432.99 313.833,1434.21 322.564,1429.51 332.387,1428.31 343.437,1420.86 353.12,1416.78 364.012,1417.09 376.266,1410.97 390.052,1397.83 400.339,1399.71 411.912,1406.36 424.931,1411.94 439.578,1419.8 449.212,1421.71 452.186,1417.46 455.533,1410.91 459.298,1405.73 463.217,1402.27 467.626,1395.78 469.55,1393.38 471.715,1387.6 474.15,1378.85 476.889,1373.85 479.971,1382.44 481.318,1383.24 482.835,1377.37 484.54,1380.41 486.459,1379.52 488.618,1376.97 491.047,1378.22 493.78,1368.18 496.854,1371.55 500.312,1374.29 504.202,1375.54 508.579,1366.49 513.503,1357.9 519.042,1365.42 525.274,1356.8 528.45,1359.43 532.022,1355.96 536.042,1349 540.564,1336.51 542.735,1323.66 545.178,1330.96 547.926,1324.55 551.018,1312.98 554.497,1306.82 558.41,1286.4 562.812,1280.88 567.765,1272.75 573.336,1263.76 579.14,1205.35 581.917,1191.22 585.04,1161.45 586.602,1158.19 588.359,1158.52 590.336,1139.15 592.559,1129.01 595.061,1124.76 597.876,1109.17 601.042,1089.68 604.604,1076.23 608.612,1063.96 613.12,1049.1 618.192,1024.05 623.898,986.391 630.317,962.699 637.538,943.31 645.662,879.959 654.802,870.55 665.084,782.689 676.652,711.388 689.665,635.143 704.305,559.571 720.775,491.53 739.304,464.96 760.149,464.809 783.599,426.68 809.981,340.821 839.661,297.462 873.05,286.359 910.613,299.567 952.872,314.618 972.199,330.672 993.943,308.103 1018.4,315.191 1045.92,302.715 1076.88,291.607 1111.71,275.097 1150.89,340.124 1194.97,396.673 1224.03,378.605 1256.71,371.489 1293.47,358.39 1334.84,387.468 1381.37,424.589 1416.18,385.476 1455.34,419.781 1499.4,370.183 1536.27,368.488 1577.75,319.341 1624.41,267.754 1676.91,236.812 1735.96,260.465 1770.59,215.178 1809.55,142.064 1844.73,263.77 1883.9,225.325 1927.96,234.5 1967.11,306.789 2011.15,225.713 2060.7,274.708 2070.61,243.034 2081.76,260.579 2094.3,247.826 2108.41,221.589 2124.29,174.83 2142.15,162.604 2162.24,178.37 2184.84,182.681 2210.27,160.228 2238.87,130.234 2271.05,214.025 2307.26,232.188 2347.99,246.472 2393.81,206.757 2445.35,230.33 2481.34,265.525 2521.83,250.195 2567.39,386.435 2618.63,293.6 2664.22,316.763 2715.5,389.595 2751.99,393.904 2793.04,383.725 2826.6,365.813 2864.36,290.365 2906.84,227.293 2954.63,311.126 2970.98,354.697 2989.37,307.004 3010.07,279.428 3033.35,302.57 3059.54,267.481 3089,275.459 3122.15,300.546 3152.76,312.273 "/>
<polyline clip-path="url(#clip781)" style="stroke:#c68125; stroke-linecap:round; stroke-linejoin:round; stroke-width:8; stroke-opacity:1; fill:none" points="178.857,1423.82 178.857,1423.84 178.858,1423.85 178.858,1423.87 178.858,1423.86 178.858,1423.87 178.858,1423.89 178.858,1423.86 178.858,1423.86 178.859,1423.82 178.859,1423.81 178.859,1423.78 178.859,1423.76 178.86,1423.81 178.86,1423.89 178.861,1423.97 178.861,1424.01 178.862,1423.99 178.862,1423.96 178.863,1423.98 178.864,1424.03 178.865,1423.95 178.866,1423.97 178.867,1423.89 178.868,1424.02 178.869,1424.2 178.871,1424.15 178.873,1424.27 178.875,1424.27 178.877,1424.15 178.879,1424.38 178.882,1424.35 178.885,1424.42 178.889,1424.22 178.893,1424.05 178.898,1424 178.903,1424.09 178.908,1424.01 178.915,1424.27 178.922,1424.16 178.93,1424.34 178.939,1424.08 178.95,1423.9 178.961,1423.97 178.974,1423.85 178.989,1423.7 179.006,1423.22 179.024,1422.92 179.045,1422.59 179.069,1422.26 179.095,1422.36 179.125,1422.09 179.159,1421.82 179.197,1421.16 179.239,1421 179.287,1420.95 179.341,1420.65 179.401,1419.67 179.469,1420.73 179.546,1422.22 179.632,1422.36 179.729,1423.4 179.838,1422.69 179.96,1422.66 180.098,1423.22 180.253,1422.65 180.428,1422.68 180.624,1423.63 180.845,1423.01 181.094,1422.6 181.373,1423.19 181.688,1422.28 182.042,1421.5 182.44,1422.76 182.888,1423.57 183.391,1424.07 183.958,1423.51 184.596,1423.41 185.313,1423.85 186.12,1423.61 187.028,1423.16 188.05,1423.53 189.199,1422.74 190.492,1421.24 191.946,1417.35 193.582,1414.63 195.423,1414.38 197.494,1411.37 199.823,1402.99 202.011,1402.76 204.471,1400.56 207.239,1396.97 210.353,1394.83 213.857,1400.62 217.798,1397.66 222.232,1397.66 227.22,1398.6 232.832,1400.78 239.145,1398.1 246.248,1398.09 254.238,1396.38 263.227,1391.71 273.339,1388.94 284.716,1382.33 297.515,1387.47 311.913,1397.32 328.111,1409.8 346.335,1404.78 362.808,1419.86 376.59,1418.79 392.095,1416.93 409.538,1429.37 418.873,1432.27 429.374,1428.61 441.189,1429.32 449.212,1434.03 458.238,1422.94 461.14,1429.88 464.405,1429.78 468.079,1436.24 472.211,1437.07 476.86,1439.01 482.09,1434.35 487.974,1430.5 489.49,1430.64 491.195,1431.42 493.114,1430.73 495.272,1432.93 497.7,1426.61 500.432,1429.82 503.505,1425.39 506.962,1419.93 510.852,1419.35 515.227,1413.75 518.294,1407.03 521.744,1408.22 525.539,1405.76 528.502,1406.25 531.835,1401.36 535.585,1398.54 539.804,1399.05 540.952,1398.09 542.243,1398.22 543.695,1398.96 545.329,1398.01 547.168,1394.69 547.824,1390.79 548.563,1388.45 549.394,1381.3 550.329,1382.42 551.38,1384.68 552.564,1382.89 553.895,1381.91 555.392,1374.67 556.488,1374.44 557.72,1372.33 559.106,1366.46 560.666,1362.82 562.421,1365.55 564.395,1371.09 566.616,1368.55 569.114,1378.76 571.204,1372.17 573.554,1374.18 576.199,1372.55 579.174,1374.2 582.521,1373.65 586.287,1372.15 590.523,1365.62 595.289,1363.03 600.65,1359.16 606.682,1336.36 613.467,1323.62 617.216,1298.73 621.434,1289.79 626.179,1292.18 631.517,1274.31 637.523,1251.03 644.279,1208.13 651.88,1174.38 660.43,1112.46 670.05,1065.32 680.872,1017.93 693.047,953.114 706.744,945.434 722.152,900.514 739.487,825.236 757.994,772.901 777.05,737.482 798.488,667.083 821.517,684.332 847.424,636.305 864.433,604.191 883.569,562.362 905.096,490.669 929.314,481.918 956.56,466.78 987.211,478.782 1021.69,480.224 1046.98,390.195 1075.42,432.059 1107.42,433.05 1143.41,326.585 1180.11,344.842 1221.4,295.951 1267.85,286.299 1320.1,301.389 1378.89,332.455 1445.02,299.978 1477.21,283.705 1513.42,287.946 1554.16,262.881 1599.99,319.1 1625.2,285.77 1653.56,269.695 1685.47,262.858 1721.37,324.281 1761.76,205.678 1807.2,179.886 1832.11,134.227 1860.14,186.05 1891.67,241.113 1927.14,256.47 1967.05,268.534 2011.95,217.616 2062.45,231.403 2086.5,224.592 2113.56,301.158 2143.99,310.081 2178.24,245.41 2216.76,295.3 2239.29,285.033 2264.63,304.669 2293.14,310.368 2322.4,381.426 2355.33,440.566 2387.48,437.925 2420.93,383.801 2458.57,321.582 2500.91,280.859 2548.54,202.113 2602.13,217.951 2612.85,259.014 2624.91,234.833 2638.47,220.574 2653.73,259.068 2670.9,256.282 2690.21,308.673 2711.94,340.87 2736.39,282.377 2763.88,267.182 2794.82,215.937 2828.34,213.359 2866.05,304.057 2908.48,172.103 2956.2,221.302 2965.75,196.255 2976.49,187.758 2988.57,180.256 3002.16,177.015 3017.45,200.396 3034.65,198.342 3054,245.899 3075.77,171.27 3100.26,140.014 3127.82,188.927 3152.76,194.192 "/>
<polyline clip-path="url(#clip781)" style="stroke:#00a98d; stroke-linecap:round; stroke-linejoin:round; stroke-width:8; stroke-opacity:1; fill:none" points="178.857,1423.82 178.857,1423.84 178.858,1423.84 178.858,1423.84 178.858,1423.84 178.858,1423.83 178.858,1423.84 178.858,1423.84 178.858,1423.84 178.859,1423.83 178.859,1423.81 178.859,1423.86 178.859,1423.82 178.86,1423.84 178.86,1423.8 178.861,1423.87 178.861,1423.94 178.862,1423.99 178.862,1423.94 178.863,1423.98 178.864,1423.96 178.865,1423.99 178.866,1423.95 178.867,1423.97 178.868,1423.96 178.869,1423.92 178.871,1424.02 178.873,1423.96 178.875,1423.85 178.877,1423.81 178.879,1423.9 178.882,1423.79 178.885,1423.83 178.889,1423.83 178.893,1423.79 178.898,1423.65 178.903,1423.6 178.908,1423.5 178.915,1423.54 178.922,1423.69 178.93,1423.77 178.939,1423.73 178.95,1423.84 178.961,1423.7 178.974,1423.6 178.989,1423.63 179.006,1423.61 179.024,1423.69 179.045,1423.3 179.069,1423.03 179.095,1423.27 179.125,1423.58 179.159,1423.77 179.197,1423.4 179.239,1423.26 179.287,1423.78 179.341,1424.06 179.401,1423.98 179.469,1423.78 179.546,1424.32 179.632,1424.67 179.729,1424.06 179.838,1423.15 179.96,1422.78 180.098,1423.52 180.253,1423.81 180.428,1423.06 180.624,1423.25 180.845,1423.4 181.094,1422.78 181.373,1423.34 181.688,1423.57 182.042,1424.1 182.44,1422.64 182.888,1420.07 183.391,1420.59 183.958,1419.1 184.596,1420.94 185.313,1419.23 186.12,1422.1 187.028,1422.13 188.05,1423.77 189.199,1425.39 190.492,1427.93 191.946,1427.53 193.582,1427.04 195.423,1427.94 197.494,1424.41 199.823,1418.3 202.444,1416.16 205.393,1420.88 208.71,1421.53 212.441,1418.97 216.639,1420.97 221.362,1422.03 226.675,1427.25 232.244,1422.69 238.508,1425.23 245.556,1427.05 253.485,1423.75 262.404,1431.4 272.439,1431.81 283.728,1440.47 296.428,1443.7 310.716,1432.69 313.573,1432.89 316.788,1432.94 320.404,1430.68 324.473,1422.73 329.05,1416.31 334.2,1417.81 339.993,1416.97 346.51,1416.59 353.841,1410.57 362.09,1415.5 371.369,1407.04 381.808,1400.93 393.552,1414.23 402.377,1406.06 412.306,1407.6 423.475,1404.57 436.04,1399.13 449.212,1410.3 456.706,1390.58 458.487,1385.69 460.491,1381.55 462.745,1382.75 465.282,1379.97 468.135,1373.45 471.345,1367.95 474.956,1375.38 476.372,1375.56 477.965,1379.34 478.848,1382.62 479.842,1390.33 480.446,1388.86 481.125,1388.82 481.89,1386 482.749,1383.58 483.717,1383.19 484.805,1386.3 486.03,1387.5 487.407,1382.18 488.957,1384.68 490.7,1382.06 492.661,1386.84 494.867,1388.73 497.349,1384.54 500.142,1383.67 501.62,1382.22 503.283,1378.58 505.091,1378.89 507.125,1374.49 509.414,1377.62 511.989,1374.34 514.886,1378.61 518.144,1379.05 521.81,1392.59 523.673,1391.72 525.768,1390.2 528.126,1388.61 530.777,1385.65 533.761,1377 537.117,1384.94 540.893,1372.69 545.141,1377.94 549.92,1384.96 550.876,1386.09 551.951,1382.34 553.161,1380.58 554.522,1383.81 556.053,1378.18 557.189,1379.43 558.468,1383.81 559.907,1381.44 561.526,1376.82 563.346,1378.33 565.395,1380.51 567.699,1388.63 569.557,1386.06 571.646,1390.38 573.997,1380.73 576.641,1382.88 579.616,1383.68 582.963,1377.48 586.728,1385.76 588.814,1391.93 591.161,1387.06 593.801,1388.19 596.771,1393.33 600.113,1390.92 603.872,1395.97 607.847,1392.08 612.318,1400.74 617.349,1391.81 623.008,1390.31 626.508,1384.49 630.446,1383.34 634.867,1383.88 639.841,1377.77 645.437,1373.09 647.724,1370.97 650.296,1374.07 651.125,1372.02 652.057,1372.54 653.106,1373.79 654.286,1371.06 655.463,1375.51 656.788,1374.47 658.278,1366.98 659.954,1366.37 661.84,1365.49 663.961,1363.05 666.348,1357.24 669.033,1352.3 672.053,1343.3 675.452,1339.78 677.209,1344.02 679.186,1348.41 681.41,1346.12 683.912,1346.83 686.727,1351.99 689.894,1353.35 690.528,1354.06 691.24,1347.28 692.042,1352.49 692.944,1348.08 693.958,1350.11 695.1,1353.83 696.384,1349.65 697.828,1349.02 699.453,1350.2 701.281,1349.84 703.11,1365.19 703.719,1370.36 704.404,1367.84 705.175,1365.99 706.042,1361.39 707.017,1363.22 708.114,1362.76 709.349,1361.08 710.737,1362.53 712.299,1364.83 714.057,1366.57 716.034,1360.71 718.258,1349.28 720.072,1344.83 722.112,1341.6 724.407,1333.83 725.374,1335.37 726.461,1334.54 727.684,1336.17 729.06,1334.3 730.608,1340.05 732.35,1330.3 732.925,1330.47 733.572,1324.69 734.3,1325.63 735.118,1331.08 736.039,1323.09 737.076,1318.89 738.241,1323.24 739.553,1323.5 740.013,1325.41 740.53,1327.49 741.113,1327.78 741.768,1329.04 742.505,1327.47 743.334,1329.72 744.266,1325.67 745.315,1318.35 746.496,1311.94 747.824,1309.11 749.318,1297.87 750.998,1281.57 752.889,1273.88 755.016,1263.7 757.409,1255.57 760.101,1247.39 763.13,1243.21 766.537,1238.23 770.37,1218.95 774.682,1196.05 779.533,1173.56 784.991,1167.85 791.131,1158.22 798.038,1125.81 805.809,1106.62 814.551,1063.62 824.385,1001.3 835.449,938.709 847.897,911.749 861.9,860.558 877.653,805.635 895.375,690.876 915.313,635.9 937.743,575.89 962.977,513.911 991.365,437.527 1023.3,444.585 1059.23,474.814 1099.65,442.775 1128.14,379.747 1160.19,378.938 1196.25,360.923 1236.81,282.753 1282.45,222.317 1333.79,208.849 1344.06,250.244 1355.61,228.418 1368.6,270.154 1383.22,253.17 1399.67,223.211 1418.17,228.486 1438.99,265.641 1462.41,290.976 1488.75,312.115 1518.39,327.369 1546.81,316.041 1578.78,304.427 1614.75,222.959 1655.22,258.229 1678.26,283.023 1704.18,292.705 1733.35,293.423 1766.15,290.988 1803.06,356.456 1844.59,317.429 1853.65,330.035 1863.85,328.146 1875.33,297.457 1888.24,253.571 1902.76,220.977 1919.1,187.03 1937.48,230.827 1958.16,200.502 1981.42,189.287 2007.6,279.704 2037.04,236.753 2070.16,264.514 2096.12,282.567 2125.32,302.52 2158.17,214.835 2195.13,243.607 2215.86,223.311 2239.18,228.619 2265.41,277.693 2294.93,292.531 2328.13,308.498 2365.48,319.577 2402.35,276.05 2443.84,218.396 2490.51,181.078 2517.12,237.093 2547.06,250.73 2580.74,316.008 2618.64,413.712 2661.27,361.557 2669.8,346.397 2679.39,330.557 2690.18,314.614 2702.32,355.879 2715.97,343.926 2731.34,353.194 2748.62,342.892 2768.07,338.159 2789.95,301.669 2814.56,272.916 2842.24,217.181 2873.39,254.583 2895.53,251.129 2920.44,250.632 2948.47,221.338 2979.99,133.878 3004.85,105.21 3032.82,83.2712 3064.28,132.78 3099.68,179.914 3139.5,222.326 3152.76,189.881 "/>
<polyline clip-path="url(#clip781)" style="stroke:#8e971d; stroke-linecap:round; stroke-linejoin:round; stroke-width:8; stroke-opacity:1; fill:none" points="178.857,1423.82 178.857,1423.78 178.858,1423.77 178.858,1423.77 178.858,1423.78 178.858,1423.74 178.858,1423.71 178.858,1423.66 178.858,1423.65 178.859,1423.67 178.859,1423.68 178.859,1423.62 178.859,1423.67 178.86,1423.66 178.86,1423.69 178.861,1423.75 178.861,1423.75 178.862,1423.72 178.862,1423.72 178.863,1423.69 178.864,1423.74 178.865,1423.81 178.866,1423.84 178.867,1423.83 178.868,1423.76 178.869,1423.61 178.871,1423.54 178.873,1423.54 178.875,1423.53 178.877,1423.61 178.879,1423.41 178.882,1423.46 178.885,1423.56 178.889,1423.63 178.893,1423.55 178.898,1423.66 178.903,1423.77 178.908,1424.05 178.915,1424.16 178.922,1424.35 178.93,1424.56 178.939,1424.47 178.95,1424.55 178.961,1424.42 178.974,1424.72 178.989,1425.18 179.006,1425.1 179.024,1425.44 179.045,1425.29 179.069,1425.38 179.095,1425.2 179.125,1425.21 179.159,1425.25 179.197,1425.75 179.239,1425.5 179.287,1426.06 179.341,1426.31 179.401,1425.7 179.469,1425.89 179.546,1426.03 179.632,1425.88 179.729,1425.67 179.838,1425.43 179.96,1425.58 180.098,1424.51 180.253,1424.15 180.428,1424.72 180.624,1423.69 180.845,1423.43 181.094,1424.6 181.373,1424.97 181.688,1424.23 182.042,1423.7 182.44,1422.71 182.888,1421.9 183.391,1423.79 183.958,1424.5 184.596,1423.59 185.313,1423.51 186.12,1423.98 187.028,1424.23 188.05,1425.42 189.199,1426.62 190.492,1428.23 191.946,1425.83 193.582,1428.2 195.423,1428.57 197.494,1429.85 199.823,1434.59 202.444,1431.97 205.393,1436.63 208.71,1435.27 212.441,1431.16 216.639,1433.61 221.362,1432.59 226.675,1436.37 232.653,1432.89 239.377,1428.58 246.942,1423.11 255.453,1424.42 265.027,1419.38 273.883,1412.36 283.846,1412.81 295.054,1412.88 307.663,1406.62 321.848,1397.5 333.142,1390.44 345.848,1397.84 360.142,1399.32 376.222,1398.64 394.313,1389.46 412.939,1394.5 433.892,1409.05 449.212,1407.72 452.659,1410.12 456.536,1402.75 457.481,1401.03 458.544,1394.43 459.117,1392.67 459.761,1387.45 460.485,1388.54 461.3,1387.92 462.217,1387.72 463.249,1387.41 464.409,1378.33 464.855,1375.7 465.356,1375.45 465.921,1375.75 466.556,1375.69 467.27,1375.18 468.073,1378.87 468.977,1373.8 469.994,1379.8 471.138,1384.73 472.425,1381.61 473.873,1381.39 475.502,1375.08 477.335,1370.06 477.701,1369.57 478.113,1370.03 478.577,1373.21 479.099,1373.09 479.686,1374.66 480.347,1375.38 481.09,1372.22 481.926,1371.36 482.866,1371.43 483.924,1369.51 485.114,1373.62 486.453,1374.87 487.959,1375.33 489.654,1370.71 491.56,1369.08 493.705,1365.98 496.118,1360.43 498.832,1351.96 501.886,1356.02 505.321,1341.13 509.186,1333.3 513.534,1315.71 518.425,1320.09 523.796,1305.91 529.838,1298.18 536.635,1274.08 542.271,1252.47 548.611,1221.31 555.744,1185.59 563.768,1138.68 572.795,1083.57 582.951,1005.9 594.376,939.968 607.23,859.052 621.69,829.64 636.128,763.948 652.371,691.865 670.644,566.012 691.202,541.33 712.938,522.481 737.391,465.424 764.901,407.783 795.849,414.528 830.667,446.065 865.744,451.106 904.603,448.569 942.531,410.682 985.2,399.339 1033.2,346.127 1087.13,267.601 1147.81,294.62 1216.07,275.43 1292.86,265.4 1379.24,284.321 1449.32,346.247 1528.15,279.316 1543.91,302.453 1561.65,333.38 1581.6,342.579 1604.05,289.324 1629.31,295.299 1657.72,280.983 1689.68,332.999 1725.64,407.714 1737.53,357.241 1750.92,282.46 1765.97,276.904 1782.91,247.097 1801.96,210.806 1823.4,273.461 1847.52,261.272 1874.65,257.41 1905.17,228.67 1939.51,209.67 1978.14,181.698 2021.59,223.103 2065.04,244.765 2113.91,257.24 2168.9,327.813 2230.76,292.805 2279.42,390.019 2334.16,387.237 2345.29,368.387 2357.81,413.474 2371.9,360.394 2387.74,381.48 2405.57,340.558 2425.62,290.934 2448.19,295.911 2473.57,336.06 2496.8,314.489 2522.94,315.802 2552.34,325.839 2585.42,332.627 2622.64,376.969 2664.51,361.925 2697.41,341.191 2734.43,392.713 2776.08,302.129 2797.22,313.475 2821.01,281.006 2847.76,312.969 2877.87,305.96 2911.73,300.357 2949.83,271.319 2992.69,233.958 3040.91,209.657 3069.01,293.695 3100.62,261.604 3136.19,215.12 3152.76,215.859 "/>
</svg>
