<?xml version="1.0" encoding="utf-8"?>
<svg xmlns="http://www.w3.org/2000/svg" xmlns:xlink="http://www.w3.org/1999/xlink" width="800" height="400" viewBox="0 0 3200 1600">
<defs>
  <clipPath id="clip850">
    <rect x="0" y="0" width="3200" height="1600"/>
  </clipPath>
</defs>
<path clip-path="url(#clip850)" d="M0 1600 L3200 1600 L3200 0 L0 0  Z" fill="#ffffff" fill-rule="evenodd" fill-opacity="1"/>
<defs>
  <clipPath id="clip851">
    <rect x="640" y="0" width="2241" height="1600"/>
  </clipPath>
</defs>
<path clip-path="url(#clip850)" d="M186.867 1443.7 L2725.64 1443.7 L2725.64 47.2441 L186.867 47.2441  Z" fill="#ffffff" fill-rule="evenodd" fill-opacity="1"/>
<defs>
  <clipPath id="clip852">
    <rect x="186" y="47" width="2540" height="1397"/>
  </clipPath>
</defs>
<polyline clip-path="url(#clip852)" style="stroke:#000000; stroke-linecap:round; stroke-linejoin:round; stroke-width:2; stroke-opacity:0.1; fill:none" points="186.867,1443.7 186.867,47.2441 "/>
<polyline clip-path="url(#clip852)" style="stroke:#000000; stroke-linecap:round; stroke-linejoin:round; stroke-width:2; stroke-opacity:0.1; fill:none" points="694.621,1443.7 694.621,47.2441 "/>
<polyline clip-path="url(#clip852)" style="stroke:#000000; stroke-linecap:round; stroke-linejoin:round; stroke-width:2; stroke-opacity:0.1; fill:none" points="1202.37,1443.7 1202.37,47.2441 "/>
<polyline clip-path="url(#clip852)" style="stroke:#000000; stroke-linecap:round; stroke-linejoin:round; stroke-width:2; stroke-opacity:0.1; fill:none" points="1710.13,1443.7 1710.13,47.2441 "/>
<polyline clip-path="url(#clip852)" style="stroke:#000000; stroke-linecap:round; stroke-linejoin:round; stroke-width:2; stroke-opacity:0.1; fill:none" points="2217.88,1443.7 2217.88,47.2441 "/>
<polyline clip-path="url(#clip852)" style="stroke:#000000; stroke-linecap:round; stroke-linejoin:round; stroke-width:2; stroke-opacity:0.1; fill:none" points="2725.64,1443.7 2725.64,47.2441 "/>
<polyline clip-path="url(#clip852)" style="stroke:#000000; stroke-linecap:round; stroke-linejoin:round; stroke-width:2; stroke-opacity:0.1; fill:none" points="186.867,1443.7 186.867,47.2441 "/>
<polyline clip-path="url(#clip852)" style="stroke:#000000; stroke-linecap:round; stroke-linejoin:round; stroke-width:2; stroke-opacity:0.1; fill:none" points="694.621,1443.7 694.621,47.2441 "/>
<polyline clip-path="url(#clip852)" style="stroke:#000000; stroke-linecap:round; stroke-linejoin:round; stroke-width:2; stroke-opacity:0.1; fill:none" points="1202.37,1443.7 1202.37,47.2441 "/>
<polyline clip-path="url(#clip852)" style="stroke:#000000; stroke-linecap:round; stroke-linejoin:round; stroke-width:2; stroke-opacity:0.1; fill:none" points="1710.13,1443.7 1710.13,47.2441 "/>
<polyline clip-path="url(#clip852)" style="stroke:#000000; stroke-linecap:round; stroke-linejoin:round; stroke-width:2; stroke-opacity:0.1; fill:none" points="2217.88,1443.7 2217.88,47.2441 "/>
<polyline clip-path="url(#clip852)" style="stroke:#000000; stroke-linecap:round; stroke-linejoin:round; stroke-width:2; stroke-opacity:0.1; fill:none" points="2725.64,1443.7 2725.64,47.2441 "/>
<polyline clip-path="url(#clip850)" style="stroke:#000000; stroke-linecap:round; stroke-linejoin:round; stroke-width:4; stroke-opacity:1; fill:none" points="186.867,1443.7 2725.64,1443.7 "/>
<polyline clip-path="url(#clip850)" style="stroke:#000000; stroke-linecap:round; stroke-linejoin:round; stroke-width:4; stroke-opacity:1; fill:none" points="186.867,47.2441 2725.64,47.2441 "/>
<polyline clip-path="url(#clip850)" style="stroke:#000000; stroke-linecap:round; stroke-linejoin:round; stroke-width:4; stroke-opacity:1; fill:none" points="186.867,1443.7 186.867,1424.8 "/>
<polyline clip-path="url(#clip850)" style="stroke:#000000; stroke-linecap:round; stroke-linejoin:round; stroke-width:4; stroke-opacity:1; fill:none" points="694.621,1443.7 694.621,1424.8 "/>
<polyline clip-path="url(#clip850)" style="stroke:#000000; stroke-linecap:round; stroke-linejoin:round; stroke-width:4; stroke-opacity:1; fill:none" points="1202.37,1443.7 1202.37,1424.8 "/>
<polyline clip-path="url(#clip850)" style="stroke:#000000; stroke-linecap:round; stroke-linejoin:round; stroke-width:4; stroke-opacity:1; fill:none" points="1710.13,1443.7 1710.13,1424.8 "/>
<polyline clip-path="url(#clip850)" style="stroke:#000000; stroke-linecap:round; stroke-linejoin:round; stroke-width:4; stroke-opacity:1; fill:none" points="2217.88,1443.7 2217.88,1424.8 "/>
<polyline clip-path="url(#clip850)" style="stroke:#000000; stroke-linecap:round; stroke-linejoin:round; stroke-width:4; stroke-opacity:1; fill:none" points="2725.64,1443.7 2725.64,1424.8 "/>
<polyline clip-path="url(#clip850)" style="stroke:#000000; stroke-linecap:round; stroke-linejoin:round; stroke-width:4; stroke-opacity:1; fill:none" points="186.867,47.2441 186.867,66.1417 "/>
<polyline clip-path="url(#clip850)" style="stroke:#000000; stroke-linecap:round; stroke-linejoin:round; stroke-width:4; stroke-opacity:1; fill:none" points="694.621,47.2441 694.621,66.1417 "/>
<polyline clip-path="url(#clip850)" style="stroke:#000000; stroke-linecap:round; stroke-linejoin:round; stroke-width:4; stroke-opacity:1; fill:none" points="1202.37,47.2441 1202.37,66.1417 "/>
<polyline clip-path="url(#clip850)" style="stroke:#000000; stroke-linecap:round; stroke-linejoin:round; stroke-width:4; stroke-opacity:1; fill:none" points="1710.13,47.2441 1710.13,66.1417 "/>
<polyline clip-path="url(#clip850)" style="stroke:#000000; stroke-linecap:round; stroke-linejoin:round; stroke-width:4; stroke-opacity:1; fill:none" points="2217.88,47.2441 2217.88,66.1417 "/>
<polyline clip-path="url(#clip850)" style="stroke:#000000; stroke-linecap:round; stroke-linejoin:round; stroke-width:4; stroke-opacity:1; fill:none" points="2725.64,47.2441 2725.64,66.1417 "/>
<path clip-path="url(#clip850)" d="M186.867 1481.02 Q183.256 1481.02 181.427 1484.58 Q179.621 1488.12 179.621 1495.25 Q179.621 1502.36 181.427 1505.93 Q183.256 1509.47 186.867 1509.47 Q190.501 1509.47 192.306 1505.93 Q194.135 1502.36 194.135 1495.25 Q194.135 1488.12 192.306 1484.58 Q190.501 1481.02 186.867 1481.02 M186.867 1477.31 Q192.677 1477.31 195.732 1481.92 Q198.811 1486.5 198.811 1495.25 Q198.811 1503.98 195.732 1508.59 Q192.677 1513.17 186.867 1513.17 Q181.056 1513.17 177.978 1508.59 Q174.922 1503.98 174.922 1495.25 Q174.922 1486.5 177.978 1481.92 Q181.056 1477.31 186.867 1477.31 Z" fill="#000000" fill-rule="nonzero" fill-opacity="1" /><path clip-path="url(#clip850)" d="M669.308 1508.56 L676.947 1508.56 L676.947 1482.2 L668.637 1483.87 L668.637 1479.61 L676.901 1477.94 L681.577 1477.94 L681.577 1508.56 L689.216 1508.56 L689.216 1512.5 L669.308 1512.5 L669.308 1508.56 Z" fill="#000000" fill-rule="nonzero" fill-opacity="1" /><path clip-path="url(#clip850)" d="M708.66 1481.02 Q705.049 1481.02 703.22 1484.58 Q701.415 1488.12 701.415 1495.25 Q701.415 1502.36 703.22 1505.93 Q705.049 1509.47 708.66 1509.47 Q712.294 1509.47 714.1 1505.93 Q715.929 1502.36 715.929 1495.25 Q715.929 1488.12 714.1 1484.58 Q712.294 1481.02 708.66 1481.02 M708.66 1477.31 Q714.47 1477.31 717.526 1481.92 Q720.604 1486.5 720.604 1495.25 Q720.604 1503.98 717.526 1508.59 Q714.47 1513.17 708.66 1513.17 Q702.85 1513.17 699.771 1508.59 Q696.716 1503.98 696.716 1495.25 Q696.716 1486.5 699.771 1481.92 Q702.85 1477.31 708.66 1477.31 Z" fill="#000000" fill-rule="nonzero" fill-opacity="1" /><path clip-path="url(#clip850)" d="M1181.15 1508.56 L1197.47 1508.56 L1197.47 1512.5 L1175.52 1512.5 L1175.52 1508.56 Q1178.19 1505.81 1182.77 1501.18 Q1187.38 1496.53 1188.56 1495.19 Q1190.8 1492.66 1191.68 1490.93 Q1192.58 1489.17 1192.58 1487.48 Q1192.58 1484.72 1190.64 1482.99 Q1188.72 1481.25 1185.62 1481.25 Q1183.42 1481.25 1180.96 1482.01 Q1178.53 1482.78 1175.75 1484.33 L1175.75 1479.61 Q1178.58 1478.47 1181.03 1477.89 Q1183.49 1477.31 1185.52 1477.31 Q1190.89 1477.31 1194.09 1480 Q1197.28 1482.69 1197.28 1487.18 Q1197.28 1489.31 1196.47 1491.23 Q1195.69 1493.12 1193.58 1495.72 Q1193 1496.39 1189.9 1499.61 Q1186.8 1502.8 1181.15 1508.56 Z" fill="#000000" fill-rule="nonzero" fill-opacity="1" /><path clip-path="url(#clip850)" d="M1217.28 1481.02 Q1213.67 1481.02 1211.84 1484.58 Q1210.04 1488.12 1210.04 1495.25 Q1210.04 1502.36 1211.84 1505.93 Q1213.67 1509.47 1217.28 1509.47 Q1220.92 1509.47 1222.72 1505.93 Q1224.55 1502.36 1224.55 1495.25 Q1224.55 1488.12 1222.72 1484.58 Q1220.92 1481.02 1217.28 1481.02 M1217.28 1477.31 Q1223.09 1477.31 1226.15 1481.92 Q1229.23 1486.5 1229.23 1495.25 Q1229.23 1503.98 1226.15 1508.59 Q1223.09 1513.17 1217.28 1513.17 Q1211.47 1513.17 1208.39 1508.59 Q1205.34 1503.98 1205.34 1495.25 Q1205.34 1486.5 1208.39 1481.92 Q1211.47 1477.31 1217.28 1477.31 Z" fill="#000000" fill-rule="nonzero" fill-opacity="1" /><path clip-path="url(#clip850)" d="M1698.97 1493.87 Q1702.33 1494.58 1704.2 1496.85 Q1706.1 1499.12 1706.1 1502.45 Q1706.1 1507.57 1702.58 1510.37 Q1699.06 1513.17 1692.58 1513.17 Q1690.41 1513.17 1688.09 1512.73 Q1685.8 1512.31 1683.35 1511.46 L1683.35 1506.94 Q1685.29 1508.08 1687.61 1508.66 Q1689.92 1509.24 1692.44 1509.24 Q1696.84 1509.24 1699.13 1507.5 Q1701.45 1505.76 1701.45 1502.45 Q1701.45 1499.4 1699.3 1497.69 Q1697.17 1495.95 1693.35 1495.95 L1689.32 1495.95 L1689.32 1492.11 L1693.53 1492.11 Q1696.98 1492.11 1698.81 1490.74 Q1700.64 1489.35 1700.64 1486.76 Q1700.64 1484.1 1698.74 1482.69 Q1696.87 1481.25 1693.35 1481.25 Q1691.43 1481.25 1689.23 1481.67 Q1687.03 1482.08 1684.39 1482.96 L1684.39 1478.8 Q1687.05 1478.06 1689.37 1477.69 Q1691.7 1477.31 1693.76 1477.31 Q1699.09 1477.31 1702.19 1479.75 Q1705.29 1482.15 1705.29 1486.27 Q1705.29 1489.14 1703.65 1491.13 Q1702 1493.1 1698.97 1493.87 Z" fill="#000000" fill-rule="nonzero" fill-opacity="1" /><path clip-path="url(#clip850)" d="M1724.97 1481.02 Q1721.36 1481.02 1719.53 1484.58 Q1717.72 1488.12 1717.72 1495.25 Q1717.72 1502.36 1719.53 1505.93 Q1721.36 1509.47 1724.97 1509.47 Q1728.6 1509.47 1730.41 1505.93 Q1732.24 1502.36 1732.24 1495.25 Q1732.24 1488.12 1730.41 1484.58 Q1728.6 1481.02 1724.97 1481.02 M1724.97 1477.31 Q1730.78 1477.31 1733.83 1481.92 Q1736.91 1486.5 1736.91 1495.25 Q1736.91 1503.98 1733.83 1508.59 Q1730.78 1513.17 1724.97 1513.17 Q1719.16 1513.17 1716.08 1508.59 Q1713.02 1503.98 1713.02 1495.25 Q1713.02 1486.5 1716.08 1481.92 Q1719.16 1477.31 1724.97 1477.31 Z" fill="#000000" fill-rule="nonzero" fill-opacity="1" /><path clip-path="url(#clip850)" d="M2206.05 1482.01 L2194.25 1500.46 L2206.05 1500.46 L2206.05 1482.01 M2204.83 1477.94 L2210.71 1477.94 L2210.71 1500.46 L2215.64 1500.46 L2215.64 1504.35 L2210.71 1504.35 L2210.71 1512.5 L2206.05 1512.5 L2206.05 1504.35 L2190.45 1504.35 L2190.45 1499.84 L2204.83 1477.94 Z" fill="#000000" fill-rule="nonzero" fill-opacity="1" /><path clip-path="url(#clip850)" d="M2233.37 1481.02 Q2229.76 1481.02 2227.93 1484.58 Q2226.12 1488.12 2226.12 1495.25 Q2226.12 1502.36 2227.93 1505.93 Q2229.76 1509.47 2233.37 1509.47 Q2237 1509.47 2238.81 1505.93 Q2240.64 1502.36 2240.64 1495.25 Q2240.64 1488.12 2238.81 1484.58 Q2237 1481.02 2233.37 1481.02 M2233.37 1477.31 Q2239.18 1477.31 2242.24 1481.92 Q2245.31 1486.5 2245.31 1495.25 Q2245.31 1503.98 2242.24 1508.59 Q2239.18 1513.17 2233.37 1513.17 Q2227.56 1513.17 2224.48 1508.59 Q2221.42 1503.98 2221.42 1495.25 Q2221.42 1486.5 2224.48 1481.92 Q2227.56 1477.31 2233.37 1477.31 Z" fill="#000000" fill-rule="nonzero" fill-opacity="1" /><path clip-path="url(#clip850)" d="M2700.34 1477.94 L2718.69 1477.94 L2718.69 1481.88 L2704.62 1481.88 L2704.62 1490.35 Q2705.64 1490 2706.66 1489.84 Q2707.67 1489.65 2708.69 1489.65 Q2714.48 1489.65 2717.86 1492.82 Q2721.24 1496 2721.24 1501.41 Q2721.24 1506.99 2717.77 1510.09 Q2714.29 1513.17 2707.98 1513.17 Q2705.8 1513.17 2703.53 1512.8 Q2701.29 1512.43 2698.88 1511.69 L2698.88 1506.99 Q2700.96 1508.12 2703.18 1508.68 Q2705.41 1509.24 2707.88 1509.24 Q2711.89 1509.24 2714.23 1507.13 Q2716.56 1505.02 2716.56 1501.41 Q2716.56 1497.8 2714.23 1495.69 Q2711.89 1493.59 2707.88 1493.59 Q2706.01 1493.59 2704.13 1494 Q2702.28 1494.42 2700.34 1495.3 L2700.34 1477.94 Z" fill="#000000" fill-rule="nonzero" fill-opacity="1" /><path clip-path="url(#clip850)" d="M2740.45 1481.02 Q2736.84 1481.02 2735.01 1484.58 Q2733.21 1488.12 2733.21 1495.25 Q2733.21 1502.36 2735.01 1505.93 Q2736.84 1509.47 2740.45 1509.47 Q2744.09 1509.47 2745.89 1505.93 Q2747.72 1502.36 2747.72 1495.25 Q2747.72 1488.12 2745.89 1484.58 Q2744.09 1481.02 2740.45 1481.02 M2740.45 1477.31 Q2746.26 1477.31 2749.32 1481.92 Q2752.4 1486.5 2752.4 1495.25 Q2752.4 1503.98 2749.32 1508.59 Q2746.26 1513.17 2740.45 1513.17 Q2734.64 1513.17 2731.56 1508.59 Q2728.51 1503.98 2728.51 1495.25 Q2728.51 1486.5 2731.56 1481.92 Q2734.64 1477.31 2740.45 1477.31 Z" fill="#000000" fill-rule="nonzero" fill-opacity="1" /><path clip-path="url(#clip850)" d="M1455.31 1554.79 L1455.31 1564.92 L1467.38 1564.92 L1467.38 1569.47 L1455.31 1569.47 L1455.31 1588.82 Q1455.31 1593.18 1456.49 1594.42 Q1457.7 1595.66 1461.36 1595.66 L1467.38 1595.66 L1467.38 1600.56 L1461.36 1600.56 Q1454.58 1600.56 1452 1598.05 Q1449.42 1595.5 1449.42 1588.82 L1449.42 1569.47 L1445.13 1569.47 L1445.13 1564.92 L1449.42 1564.92 L1449.42 1554.79 L1455.31 1554.79 Z" fill="#000000" fill-rule="nonzero" fill-opacity="1" /><polyline clip-path="url(#clip852)" style="stroke:#000000; stroke-linecap:round; stroke-linejoin:round; stroke-width:2; stroke-opacity:0.1; fill:none" points="186.867,1344.42 2725.64,1344.42 "/>
<polyline clip-path="url(#clip852)" style="stroke:#000000; stroke-linecap:round; stroke-linejoin:round; stroke-width:2; stroke-opacity:0.1; fill:none" points="186.867,1055.01 2725.64,1055.01 "/>
<polyline clip-path="url(#clip852)" style="stroke:#000000; stroke-linecap:round; stroke-linejoin:round; stroke-width:2; stroke-opacity:0.1; fill:none" points="186.867,765.589 2725.64,765.589 "/>
<polyline clip-path="url(#clip852)" style="stroke:#000000; stroke-linecap:round; stroke-linejoin:round; stroke-width:2; stroke-opacity:0.1; fill:none" points="186.867,476.171 2725.64,476.171 "/>
<polyline clip-path="url(#clip852)" style="stroke:#000000; stroke-linecap:round; stroke-linejoin:round; stroke-width:2; stroke-opacity:0.1; fill:none" points="186.867,186.754 2725.64,186.754 "/>
<polyline clip-path="url(#clip852)" style="stroke:#000000; stroke-linecap:round; stroke-linejoin:round; stroke-width:2; stroke-opacity:0.1; fill:none" points="186.867,1344.42 2725.64,1344.42 "/>
<polyline clip-path="url(#clip852)" style="stroke:#000000; stroke-linecap:round; stroke-linejoin:round; stroke-width:2; stroke-opacity:0.1; fill:none" points="186.867,1055.01 2725.64,1055.01 "/>
<polyline clip-path="url(#clip852)" style="stroke:#000000; stroke-linecap:round; stroke-linejoin:round; stroke-width:2; stroke-opacity:0.1; fill:none" points="186.867,765.589 2725.64,765.589 "/>
<polyline clip-path="url(#clip852)" style="stroke:#000000; stroke-linecap:round; stroke-linejoin:round; stroke-width:2; stroke-opacity:0.1; fill:none" points="186.867,476.171 2725.64,476.171 "/>
<polyline clip-path="url(#clip852)" style="stroke:#000000; stroke-linecap:round; stroke-linejoin:round; stroke-width:2; stroke-opacity:0.1; fill:none" points="186.867,186.754 2725.64,186.754 "/>
<polyline clip-path="url(#clip850)" style="stroke:#000000; stroke-linecap:round; stroke-linejoin:round; stroke-width:4; stroke-opacity:1; fill:none" points="186.867,1443.7 186.867,47.2441 "/>
<polyline clip-path="url(#clip850)" style="stroke:#000000; stroke-linecap:round; stroke-linejoin:round; stroke-width:4; stroke-opacity:1; fill:none" points="2725.64,1443.7 2725.64,47.2441 "/>
<polyline clip-path="url(#clip850)" style="stroke:#000000; stroke-linecap:round; stroke-linejoin:round; stroke-width:4; stroke-opacity:1; fill:none" points="186.867,1344.42 203.043,1344.42 "/>
<polyline clip-path="url(#clip850)" style="stroke:#000000; stroke-linecap:round; stroke-linejoin:round; stroke-width:4; stroke-opacity:1; fill:none" points="186.867,1055.01 203.043,1055.01 "/>
<polyline clip-path="url(#clip850)" style="stroke:#000000; stroke-linecap:round; stroke-linejoin:round; stroke-width:4; stroke-opacity:1; fill:none" points="186.867,765.589 203.043,765.589 "/>
<polyline clip-path="url(#clip850)" style="stroke:#000000; stroke-linecap:round; stroke-linejoin:round; stroke-width:4; stroke-opacity:1; fill:none" points="186.867,476.171 203.043,476.171 "/>
<polyline clip-path="url(#clip850)" style="stroke:#000000; stroke-linecap:round; stroke-linejoin:round; stroke-width:4; stroke-opacity:1; fill:none" points="186.867,186.754 203.043,186.754 "/>
<polyline clip-path="url(#clip850)" style="stroke:#000000; stroke-linecap:round; stroke-linejoin:round; stroke-width:4; stroke-opacity:1; fill:none" points="2725.64,1344.42 2709.46,1344.42 "/>
<polyline clip-path="url(#clip850)" style="stroke:#000000; stroke-linecap:round; stroke-linejoin:round; stroke-width:4; stroke-opacity:1; fill:none" points="2725.64,1055.01 2709.46,1055.01 "/>
<polyline clip-path="url(#clip850)" style="stroke:#000000; stroke-linecap:round; stroke-linejoin:round; stroke-width:4; stroke-opacity:1; fill:none" points="2725.64,765.589 2709.46,765.589 "/>
<polyline clip-path="url(#clip850)" style="stroke:#000000; stroke-linecap:round; stroke-linejoin:round; stroke-width:4; stroke-opacity:1; fill:none" points="2725.64,476.171 2709.46,476.171 "/>
<polyline clip-path="url(#clip850)" style="stroke:#000000; stroke-linecap:round; stroke-linejoin:round; stroke-width:4; stroke-opacity:1; fill:none" points="2725.64,186.754 2709.46,186.754 "/>
<path clip-path="url(#clip850)" d="M47.9875 1344.87 L77.6633 1344.87 L77.6633 1348.81 L47.9875 1348.81 L47.9875 1344.87 Z" fill="#000000" fill-rule="nonzero" fill-opacity="1" /><path clip-path="url(#clip850)" d="M86.5752 1327.14 L108.797 1327.14 L108.797 1329.13 L96.2511 1361.7 L91.3669 1361.7 L103.172 1331.08 L86.5752 1331.08 L86.5752 1327.14 Z" fill="#000000" fill-rule="nonzero" fill-opacity="1" /><path clip-path="url(#clip850)" d="M117.964 1327.14 L136.32 1327.14 L136.32 1331.08 L122.246 1331.08 L122.246 1339.55 Q123.265 1339.2 124.283 1339.04 Q125.302 1338.86 126.32 1338.86 Q132.107 1338.86 135.487 1342.03 Q138.867 1345.2 138.867 1350.62 Q138.867 1356.19 135.394 1359.3 Q131.922 1362.37 125.603 1362.37 Q123.427 1362.37 121.158 1362 Q118.913 1361.63 116.506 1360.89 L116.506 1356.19 Q118.589 1357.33 120.811 1357.88 Q123.033 1358.44 125.51 1358.44 Q129.515 1358.44 131.853 1356.33 Q134.191 1354.23 134.191 1350.62 Q134.191 1347 131.853 1344.9 Q129.515 1342.79 125.51 1342.79 Q123.635 1342.79 121.76 1343.21 Q119.908 1343.62 117.964 1344.5 L117.964 1327.14 Z" fill="#000000" fill-rule="nonzero" fill-opacity="1" /><path clip-path="url(#clip850)" d="M46.9921 1055.46 L76.6679 1055.46 L76.6679 1059.39 L46.9921 1059.39 L46.9921 1055.46 Z" fill="#000000" fill-rule="nonzero" fill-opacity="1" /><path clip-path="url(#clip850)" d="M86.8067 1037.73 L105.163 1037.73 L105.163 1041.66 L91.0891 1041.66 L91.0891 1050.13 Q92.1076 1049.79 93.1261 1049.62 Q94.1447 1049.44 95.1632 1049.44 Q100.95 1049.44 104.33 1052.61 Q107.709 1055.78 107.709 1061.2 Q107.709 1066.78 104.237 1069.88 Q100.765 1072.96 94.4456 1072.96 Q92.2697 1072.96 90.0012 1072.59 Q87.7558 1072.22 85.3484 1071.48 L85.3484 1066.78 Q87.4317 1067.91 89.6539 1068.47 Q91.8761 1069.02 94.353 1069.02 Q98.3576 1069.02 100.696 1066.92 Q103.033 1064.81 103.033 1061.2 Q103.033 1057.59 100.696 1055.48 Q98.3576 1053.37 94.353 1053.37 Q92.478 1053.37 90.603 1053.79 Q88.7512 1054.21 86.8067 1055.09 L86.8067 1037.73 Z" fill="#000000" fill-rule="nonzero" fill-opacity="1" /><path clip-path="url(#clip850)" d="M126.922 1040.8 Q123.311 1040.8 121.482 1044.37 Q119.677 1047.91 119.677 1055.04 Q119.677 1062.15 121.482 1065.71 Q123.311 1069.25 126.922 1069.25 Q130.556 1069.25 132.362 1065.71 Q134.191 1062.15 134.191 1055.04 Q134.191 1047.91 132.362 1044.37 Q130.556 1040.8 126.922 1040.8 M126.922 1037.1 Q132.732 1037.1 135.788 1041.71 Q138.867 1046.29 138.867 1055.04 Q138.867 1063.77 135.788 1068.37 Q132.732 1072.96 126.922 1072.96 Q121.112 1072.96 118.033 1068.37 Q114.978 1063.77 114.978 1055.04 Q114.978 1046.29 118.033 1041.71 Q121.112 1037.1 126.922 1037.1 Z" fill="#000000" fill-rule="nonzero" fill-opacity="1" /><path clip-path="url(#clip850)" d="M47.9875 766.04 L77.6633 766.04 L77.6633 769.975 L47.9875 769.975 L47.9875 766.04 Z" fill="#000000" fill-rule="nonzero" fill-opacity="1" /><path clip-path="url(#clip850)" d="M91.7836 778.933 L108.103 778.933 L108.103 782.869 L86.1586 782.869 L86.1586 778.933 Q88.8206 776.179 93.4039 771.549 Q98.0104 766.896 99.1909 765.554 Q101.436 763.031 102.316 761.295 Q103.219 759.535 103.219 757.846 Q103.219 755.091 101.274 753.355 Q99.353 751.619 96.2511 751.619 Q94.0521 751.619 91.5984 752.383 Q89.1678 753.147 86.3901 754.697 L86.3901 749.975 Q89.2141 748.841 91.6678 748.262 Q94.1215 747.684 96.1585 747.684 Q101.529 747.684 104.723 750.369 Q107.918 753.054 107.918 757.545 Q107.918 759.674 107.108 761.596 Q106.321 763.494 104.214 766.086 Q103.635 766.758 100.534 769.975 Q97.4317 773.17 91.7836 778.933 Z" fill="#000000" fill-rule="nonzero" fill-opacity="1" /><path clip-path="url(#clip850)" d="M117.964 748.309 L136.32 748.309 L136.32 752.244 L122.246 752.244 L122.246 760.716 Q123.265 760.369 124.283 760.207 Q125.302 760.022 126.32 760.022 Q132.107 760.022 135.487 763.193 Q138.867 766.364 138.867 771.781 Q138.867 777.359 135.394 780.461 Q131.922 783.54 125.603 783.54 Q123.427 783.54 121.158 783.17 Q118.913 782.799 116.506 782.058 L116.506 777.359 Q118.589 778.494 120.811 779.049 Q123.033 779.605 125.51 779.605 Q129.515 779.605 131.853 777.498 Q134.191 775.392 134.191 771.781 Q134.191 768.17 131.853 766.063 Q129.515 763.957 125.51 763.957 Q123.635 763.957 121.76 764.373 Q119.908 764.79 117.964 765.67 L117.964 748.309 Z" fill="#000000" fill-rule="nonzero" fill-opacity="1" /><path clip-path="url(#clip850)" d="M126.922 461.97 Q123.311 461.97 121.482 465.535 Q119.677 469.077 119.677 476.206 Q119.677 483.313 121.482 486.877 Q123.311 490.419 126.922 490.419 Q130.556 490.419 132.362 486.877 Q134.191 483.313 134.191 476.206 Q134.191 469.077 132.362 465.535 Q130.556 461.97 126.922 461.97 M126.922 458.266 Q132.732 458.266 135.788 462.873 Q138.867 467.456 138.867 476.206 Q138.867 484.933 135.788 489.539 Q132.732 494.123 126.922 494.123 Q121.112 494.123 118.033 489.539 Q114.978 484.933 114.978 476.206 Q114.978 467.456 118.033 462.873 Q121.112 458.266 126.922 458.266 Z" fill="#000000" fill-rule="nonzero" fill-opacity="1" /><path clip-path="url(#clip850)" d="M91.7836 200.099 L108.103 200.099 L108.103 204.034 L86.1586 204.034 L86.1586 200.099 Q88.8206 197.344 93.4039 192.715 Q98.0104 188.062 99.1909 186.719 Q101.436 184.196 102.316 182.46 Q103.219 180.701 103.219 179.011 Q103.219 176.257 101.274 174.52 Q99.353 172.784 96.2511 172.784 Q94.0521 172.784 91.5984 173.548 Q89.1678 174.312 86.3901 175.863 L86.3901 171.141 Q89.2141 170.007 91.6678 169.428 Q94.1215 168.849 96.1585 168.849 Q101.529 168.849 104.723 171.534 Q107.918 174.219 107.918 178.71 Q107.918 180.84 107.108 182.761 Q106.321 184.659 104.214 187.252 Q103.635 187.923 100.534 191.141 Q97.4317 194.335 91.7836 200.099 Z" fill="#000000" fill-rule="nonzero" fill-opacity="1" /><path clip-path="url(#clip850)" d="M117.964 169.474 L136.32 169.474 L136.32 173.409 L122.246 173.409 L122.246 181.881 Q123.265 181.534 124.283 181.372 Q125.302 181.187 126.32 181.187 Q132.107 181.187 135.487 184.358 Q138.867 187.53 138.867 192.946 Q138.867 198.525 135.394 201.627 Q131.922 204.705 125.603 204.705 Q123.427 204.705 121.158 204.335 Q118.913 203.965 116.506 203.224 L116.506 198.525 Q118.589 199.659 120.811 200.215 Q123.033 200.77 125.51 200.77 Q129.515 200.77 131.853 198.664 Q134.191 196.557 134.191 192.946 Q134.191 189.335 131.853 187.229 Q129.515 185.122 125.51 185.122 Q123.635 185.122 121.76 185.539 Q119.908 185.956 117.964 186.835 L117.964 169.474 Z" fill="#000000" fill-rule="nonzero" fill-opacity="1" /><polyline clip-path="url(#clip852)" style="stroke:#009af9; stroke-linecap:round; stroke-linejoin:round; stroke-width:12; stroke-opacity:1; fill:none" points="186.867,1285.44 187.99,1285.44 189.114,1285.43 190.238,1285.43 191.362,1285.42 192.486,1285.42 193.61,1285.41 194.734,1285.4 195.857,1285.39 196.981,1285.38 198.105,1285.37 199.229,1285.36 200.353,1285.35 201.477,1285.35 202.6,1285.34 203.724,1285.33 204.848,1285.32 205.972,1285.32 207.096,1285.32 208.22,1285.31 209.344,1285.29 210.467,1285.26 211.591,1285.23 212.715,1285.19 213.839,1285.14 214.963,1285.1 216.087,1285.05 217.211,1285 218.334,1284.95 219.458,1284.9 220.582,1284.85 221.706,1284.8 222.83,1284.75 223.954,1284.7 225.077,1284.66 226.201,1284.62 227.325,1284.58 228.449,1284.55 229.573,1284.52 230.697,1284.44 231.821,1284.36 232.944,1284.27 234.068,1284.17 235.192,1284.06 236.316,1283.94 237.44,1283.83 238.564,1283.7 239.687,1283.58 240.811,1283.45 241.935,1283.32 243.059,1283.19 244.183,1283.06 245.307,1282.93 246.431,1282.8 247.554,1282.68 248.678,1282.56 249.802,1282.45 250.926,1282.34 252.05,1282.24 253.174,1282.14 254.297,1282.05 255.421,1281.89 256.545,1281.71 257.669,1281.52 258.793,1281.31 259.917,1281.1 261.041,1280.88 262.164,1280.65 263.288,1280.42 264.412,1280.18 265.536,1279.94 266.66,1279.7 267.784,1279.45 268.907,1279.2 270.031,1278.95 271.155,1278.71 272.279,1278.47 273.403,1278.23 274.527,1277.99 275.651,1277.76 276.774,1277.54 277.898,1277.33 279.022,1277.13 280.146,1276.93 281.27,1276.73 282.394,1276.43 283.517,1276.11 284.641,1275.79 285.765,1275.44 286.889,1275.09 288.013,1274.73 289.137,1274.36 290.261,1273.98 291.384,1273.59 292.508,1273.2 293.632,1272.8 294.756,1272.4 295.88,1272 297.004,1271.59 298.128,1271.19 299.251,1270.79 300.375,1270.39 301.499,1269.99 302.623,1269.6 303.747,1269.21 304.871,1268.84 305.994,1268.47 307.118,1268.11 308.242,1267.76 309.366,1267.42 310.49,1267.1 311.614,1266.67 312.738,1266.19 313.861,1265.69 314.985,1265.18 316.109,1264.65 317.233,1264.11 318.357,1263.55 319.481,1262.99 320.604,1262.41 321.728,1261.83 322.852,1261.23 323.976,1260.63 325.1,1260.03 326.224,1259.43 327.348,1258.82 328.471,1258.21 329.595,1257.6 330.719,1256.99 331.843,1256.39 332.967,1255.78 334.091,1255.19 335.214,1254.6 336.338,1254.02 337.462,1253.45 338.586,1252.89 339.71,1252.35 340.834,1251.81 341.958,1251.29 343.081,1250.79 344.205,1250.17 345.329,1249.46 346.453,1248.72 347.577,1247.95 348.701,1247.15 349.824,1246.34 350.948,1245.5 352.072,1244.64 353.196,1243.76 354.32,1242.87 355.444,1241.96 356.568,1241.04 357.691,1240.11 358.815,1239.16 359.939,1238.21 361.063,1237.25 362.187,1236.28 363.311,1235.31 364.434,1234.34 365.558,1233.37 366.682,1232.4 367.806,1231.43 368.93,1230.46 370.054,1229.51 371.178,1228.55 372.301,1227.61 373.425,1226.68 374.549,1225.76 375.673,1224.85 376.797,1223.96 377.921,1223.09 379.045,1222.23 380.168,1221.39 381.292,1220.58 382.416,1219.79 383.54,1219.02 384.664,1218.13 385.788,1216.89 386.911,1215.57 388.035,1214.16 389.159,1212.68 390.283,1211.13 391.407,1209.52 392.531,1207.85 393.655,1206.13 394.778,1204.36 395.902,1202.56 397.026,1200.72 398.15,1198.86 399.274,1196.97 400.398,1195.07 401.521,1193.16 402.645,1191.25 403.769,1189.34 404.893,1187.44 406.017,1185.56 407.141,1183.7 408.265,1181.86 409.388,1180.06 410.512,1178.3 411.636,1176.58 412.76,1174.91 413.884,1173.31 415.008,1171.76 416.131,1170.29 417.255,1168.89 418.379,1167.57 419.503,1164.87 420.627,1161.29 421.751,1157.05 422.875,1152.21 423.998,1146.82 425.122,1140.95 426.246,1134.65 427.37,1127.98 428.494,1120.99 429.618,1113.76 430.741,1106.32 431.865,1098.75 432.989,1091.09 434.113,1083.41 435.237,1075.76 436.361,1068.21 437.485,1060.81 438.608,1053.61 439.732,1046.68 440.856,1040.07 441.98,1033.85 443.104,1028.06 444.228,1022.77 445.351,1018.03 446.475,1013.91 447.599,1010.45 448.723,994.621 449.847,974.286 450.971,952.82 452.095,932.642 453.218,911.309 454.342,875.344 455.466,830.566 456.59,780.517 457.714,728.74 458.838,678.777 459.962,634.172 461.085,598.466 462.209,531.354 463.333,460.766 464.457,388.816 465.581,316.452 466.705,244.62 467.828,197.915 468.952,168.678 470.076,141.939 471.2,102.885 472.324,92.4865 473.448,90.9045 474.572,88.4335 475.695,86.7664 476.819,91.467 477.943,96.3439 479.067,101.593 480.191,109.354 481.315,117.458 482.438,125.043 483.562,134.431 484.686,144.412 485.81,154.262 486.934,164.256 488.058,175.375 489.182,186.75 490.305,197.864 491.429,209.516 492.553,221.728 493.677,234.011 494.801,246.114 495.925,258.778 497.048,271.657 498.172,284.51 499.296,297.347 500.42,310.484 501.544,323.706 502.668,336.88 503.792,350.097 504.915,363.411 506.039,376.752 507.163,390.068 508.287,403.352 509.411,416.642 510.535,429.95 511.658,443.222 512.782,456.379 513.906,469.522 515.03,482.71 516.154,495.747 517.278,508.684 518.402,521.637 519.525,534.554 520.649,547.269 521.773,559.943 522.897,572.678 524.021,585.25 525.145,597.646 526.268,610.015 527.392,622.458 528.516,634.713 529.64,646.786 530.764,658.82 531.888,670.906 533.012,682.94 534.135,694.717 535.259,706.423 536.383,718.134 537.507,729.923 538.631,741.523 539.755,752.973 540.879,764.377 542.002,775.788 543.126,787.258 544.25,798.63 545.374,809.887 546.498,821.117 547.622,832.34 548.745,843.574 549.869,854.839 550.993,866.098 552.117,877.429 553.241,888.81 554.365,900.213 555.489,911.609 556.612,922.97 557.736,934.265 558.86,945.913 559.984,958.022 561.108,970.34 562.232,982.743 563.355,995.102 564.479,1007.29 565.603,1019.44 566.727,1032.95 567.851,1047.02 568.975,1061.38 570.099,1075.8 571.222,1090.02 572.346,1103.79 573.47,1118.59 574.594,1134.63 575.718,1151.08 576.842,1167.72 577.965,1184.33 579.089,1200.69 580.213,1216.6 581.337,1232.9 582.461,1248.32 583.585,1263.22 584.709,1277.95 585.832,1292.86 586.956,1308.32 588.08,1323.63 589.204,1334.3 590.328,1342.88 591.452,1350.17 592.575,1357 593.699,1364.17 594.823,1372.51 595.947,1381.97 597.071,1385.84 598.195,1388.58 599.319,1390.65 600.442,1392.51 601.566,1394.59 602.69,1397.36 603.814,1399.6 604.938,1400.42 606.062,1400.94 607.185,1401.28 608.309,1401.55 609.433,1401.87 610.557,1402.35 611.681,1403.03 612.805,1403.09 613.929,1403.07 615.052,1403.01 616.176,1402.94 617.3,1402.88 618.424,1402.88 619.548,1402.8 620.672,1402.65 621.796,1402.49 622.919,1402.32 624.043,1402.14 625.167,1401.97 626.291,1401.81 627.415,1401.65 628.539,1401.45 629.662,1401.25 630.786,1401.04 631.91,1400.83 633.034,1400.62 634.158,1400.42 635.282,1400.22 636.406,1400 637.529,1399.78 638.653,1399.56 639.777,1399.34 640.901,1399.12 642.025,1398.89 643.149,1398.67 644.272,1398.45 645.396,1398.23 646.52,1398.01 647.644,1397.78 648.768,1397.55 649.892,1397.31 651.016,1397.08 652.139,1396.85 653.263,1396.62 654.387,1396.39 655.511,1396.16 656.635,1395.93 657.759,1395.7 658.882,1395.46 660.006,1395.22 661.13,1394.99 662.254,1394.75 663.378,1394.51 664.502,1394.27 665.626,1394.04 666.749,1393.8 667.873,1393.56 668.997,1393.33 670.121,1393.09 671.245,1392.85 672.369,1392.61 673.492,1392.37 674.616,1392.13 675.74,1391.89 676.864,1391.65 677.988,1391.4 679.112,1391.16 680.236,1390.92 681.359,1390.68 682.483,1390.44 683.607,1390.2 684.731,1389.96 685.855,1389.71 686.979,1389.47 688.102,1389.23 689.226,1388.99 690.35,1388.75 691.474,1388.51 692.598,1388.27 693.722,1388.02 694.846,1387.78 695.969,1387.54 697.093,1387.3 698.217,1387.06 699.341,1386.82 700.465,1386.58 701.589,1386.34 702.713,1386.09 703.836,1385.85 704.96,1385.61 706.084,1385.37 707.208,1385.13 708.332,1384.89 709.456,1384.65 710.579,1384.41 711.703,1384.17 712.827,1383.94 713.951,1383.7 715.075,1383.47 716.199,1383.23 717.323,1383 718.446,1382.77 719.57,1382.53 720.694,1382.3 721.818,1382.06 722.942,1381.83 724.066,1381.59 725.189,1381.36 726.313,1381.12 727.437,1380.88 728.561,1380.65 729.685,1380.41 730.809,1380.19 731.933,1379.96 733.056,1379.74 734.18,1379.51 735.304,1379.29 736.428,1379.07 737.552,1378.85 738.676,1378.63 739.799,1378.41 740.923,1378.19 742.047,1377.97 743.171,1377.76 744.295,1377.54 745.419,1377.32 746.543,1377.1 747.666,1376.88 748.79,1376.65 749.914,1376.43 751.038,1376.21 752.162,1375.98 753.286,1375.75 754.409,1375.54 755.533,1375.33 756.657,1375.13 757.781,1374.92 758.905,1374.72 760.029,1374.52 761.153,1374.32 762.276,1374.12 763.4,1373.93 764.524,1373.73 765.648,1373.54 766.772,1373.34 767.896,1373.15 769.019,1372.95 770.143,1372.76 771.267,1372.57 772.391,1372.37 773.515,1372.17 774.639,1371.98 775.763,1371.78 776.886,1371.58 778.01,1371.37 779.134,1371.17 780.258,1370.96 781.382,1370.76 782.506,1370.58 783.63,1370.4 784.753,1370.22 785.877,1370.05 787.001,1369.87 788.125,1369.7 789.249,1369.53 790.373,1369.36 791.496,1369.2 792.62,1369.03 793.744,1368.87 794.868,1368.7 795.992,1368.54 797.116,1368.38 798.24,1368.22 799.363,1368.06 800.487,1367.89 801.611,1367.73 802.735,1367.57 803.859,1367.4 804.983,1367.24 806.106,1367.07 807.23,1366.9 808.354,1366.73 809.478,1366.56 810.602,1366.39 811.726,1366.21 812.85,1366.04 813.973,1365.87 815.097,1365.72 816.221,1365.57 817.345,1365.42 818.469,1365.28 819.593,1365.14 820.716,1365 821.84,1364.86 822.964,1364.72 824.088,1364.58 825.212,1364.45 826.336,1364.32 827.46,1364.18 828.583,1364.05 829.707,1363.92 830.831,1363.79 831.955,1363.66 833.079,1363.53 834.203,1363.4 835.326,1363.27 836.45,1363.14 837.574,1363 838.698,1362.87 839.822,1362.74 840.946,1362.61 842.07,1362.47 843.193,1362.34 844.317,1362.2 845.441,1362.06 846.565,1361.92 847.689,1361.78 848.813,1361.64 849.936,1361.49 851.06,1361.35 852.184,1361.23 853.308,1361.11 854.432,1360.99 855.556,1360.86 856.68,1360.74 857.803,1360.62 858.927,1360.5 860.051,1360.38 861.175,1360.27 862.299,1360.15 863.423,1360.03 864.547,1359.91 865.67,1359.79 866.794,1359.68 867.918,1359.56 869.042,1359.44 870.166,1359.32 871.29,1359.21 872.413,1359.09 873.537,1358.97 874.661,1358.85 875.785,1358.73 876.909,1358.61 878.033,1358.5 879.157,1358.38 880.28,1358.26 881.404,1358.14 882.528,1358.02 883.652,1357.89 884.776,1357.77 885.9,1357.65 887.023,1357.53 888.147,1357.41 889.271,1357.29 890.395,1357.16 891.519,1357.03 892.643,1356.91 893.767,1356.78 894.89,1356.65 896.014,1356.52 897.138,1356.4 898.262,1356.27 899.386,1356.14 900.51,1356.01 901.633,1355.88 902.757,1355.75 903.881,1355.62 905.005,1355.49 906.129,1355.37 907.253,1355.24 908.377,1355.11 909.5,1354.99 910.624,1354.86 911.748,1354.74 912.872,1354.62 913.996,1354.5 915.12,1354.36 916.243,1354.22 917.367,1354.07 918.491,1353.92 919.615,1353.77 920.739,1353.62 921.863,1353.46 922.987,1353.3 924.11,1353.14 925.234,1352.98 926.358,1352.82 927.482,1352.65 928.606,1352.49 929.73,1352.33 930.853,1352.16 931.977,1352 933.101,1351.83 934.225,1351.67 935.349,1351.51 936.473,1351.35 937.597,1351.19 938.72,1351.04 939.844,1350.88 940.968,1350.73 942.092,1350.59 943.216,1350.44 944.34,1350.26 945.464,1350.07 946.587,1349.87 947.711,1349.67 948.835,1349.47 949.959,1349.26 951.083,1349.05 952.207,1348.83 953.33,1348.61 954.454,1348.39 955.578,1348.17 956.702,1347.95 957.826,1347.73 958.95,1347.5 960.074,1347.28 961.197,1347.05 962.321,1346.83 963.445,1346.61 964.569,1346.39 965.693,1346.18 966.817,1345.97 967.94,1345.76 969.064,1345.55 970.188,1345.35 971.312,1345.16 972.436,1344.94 973.56,1344.69 974.684,1344.43 975.807,1344.16 976.931,1343.89 978.055,1343.6 979.179,1343.32 980.303,1343.02 981.427,1342.73 982.55,1342.43 983.674,1342.13 984.798,1341.82 985.922,1341.52 987.046,1341.21 988.17,1340.9 989.294,1340.59 990.417,1340.29 991.541,1339.98 992.665,1339.68 993.789,1339.38 994.913,1339.08 996.037,1338.79 997.16,1338.5 998.284,1338.22 999.408,1337.94 1000.53,1337.67 1001.66,1337.4 1002.78,1337.05 1003.9,1336.7 1005.03,1336.34 1006.15,1335.97 1007.28,1335.59 1008.4,1335.21 1009.52,1334.81 1010.65,1334.42 1011.77,1334.02 1012.89,1333.61 1014.02,1333.2 1015.14,1332.79 1016.27,1332.38 1017.39,1331.96 1018.51,1331.55 1019.64,1331.14 1020.76,1330.72 1021.89,1330.31 1023.01,1329.91 1024.13,1329.5 1025.26,1329.1 1026.38,1328.71 1027.5,1328.32 1028.63,1327.94 1029.75,1327.56 1030.88,1327.2 1032,1326.83 1033.12,1326.38 1034.25,1325.91 1035.37,1325.44 1036.5,1324.95 1037.62,1324.46 1038.74,1323.95 1039.87,1323.44 1040.99,1322.93 1042.11,1322.4 1043.24,1321.88 1044.36,1321.35 1045.49,1320.81 1046.61,1320.28 1047.73,1319.74 1048.86,1319.2 1049.98,1318.66 1051.11,1318.12 1052.23,1317.58 1053.35,1317.05 1054.48,1316.51 1055.6,1315.99 1056.72,1315.46 1057.85,1314.94 1058.97,1314.43 1060.1,1313.93 1061.22,1313.43 1062.34,1312.94 1063.47,1312.46 1064.59,1311.94 1065.72,1311.34 1066.84,1310.74 1067.96,1310.13 1069.09,1309.51 1070.21,1308.88 1071.33,1308.24 1072.46,1307.59 1073.58,1306.93 1074.71,1306.27 1075.83,1305.6 1076.95,1304.93 1078.08,1304.25 1079.2,1303.57 1080.33,1302.89 1081.45,1302.2 1082.57,1301.52 1083.7,1300.83 1084.82,1300.14 1085.94,1299.46 1087.07,1298.77 1088.19,1298.09 1089.32,1297.41 1090.44,1296.74 1091.56,1296.07 1092.69,1295.4 1093.81,1294.75 1094.94,1294.1 1096.06,1293.45 1097.18,1292.82 1098.31,1292.19 1099.43,1291.57 1100.55,1290.92 1101.68,1290.18 1102.8,1289.42 1103.93,1288.65 1105.05,1287.87 1106.17,1287.08 1107.3,1286.28 1108.42,1285.47 1109.55,1284.65 1110.67,1283.82 1111.79,1282.98 1112.92,1282.14 1114.04,1281.29 1115.16,1280.44 1116.29,1279.58 1117.41,1278.72 1118.54,1277.86 1119.66,1276.99 1120.78,1276.12 1121.91,1275.25 1123.03,1274.39 1124.16,1273.52 1125.28,1272.65 1126.4,1271.79 1127.53,1270.93 1128.65,1270.07 1129.77,1269.22 1130.9,1268.37 1132.02,1267.53 1133.15,1266.69 1134.27,1265.86 1135.39,1265.04 1136.52,1264.23 1137.64,1263.43 1138.77,1262.64 1139.89,1261.85 1141.01,1261.08 1142.14,1260.15 1143.26,1259.18 1144.38,1258.19 1145.51,1257.18 1146.63,1256.16 1147.76,1255.12 1148.88,1254.07 1150,1253 1151.13,1251.93 1152.25,1250.84 1153.38,1249.75 1154.5,1248.65 1155.62,1247.54 1156.75,1246.43 1157.87,1245.32 1158.99,1244.21 1160.12,1243.1 1161.24,1241.99 1162.37,1240.88 1163.49,1239.78 1164.61,1238.69 1165.74,1237.6 1166.86,1236.52 1167.99,1235.46 1169.11,1234.4 1170.23,1233.37 1171.36,1232.34 1172.48,1231.33 1173.6,1230.35 1174.73,1229.23 1175.85,1227.94 1176.98,1226.59 1178.1,1225.19 1179.22,1223.73 1180.35,1222.23 1181.47,1220.68 1182.6,1219.1 1183.72,1217.48 1184.84,1215.83 1185.97,1214.16 1187.09,1212.46 1188.21,1210.75 1189.34,1209.02 1190.46,1207.28 1191.59,1205.54 1192.71,1203.8 1193.83,1202.06 1194.96,1200.33 1196.08,1198.62 1197.21,1196.91 1198.33,1195.23 1199.45,1193.58 1200.58,1191.95 1201.7,1190.35 1202.82,1188.8 1203.95,1187.28 1205.07,1185.81 1206.2,1184.39 1207.32,1183.02 1208.44,1181.36 1209.57,1178.77 1210.69,1175.73 1211.82,1172.28 1212.94,1168.45 1214.06,1164.28 1215.19,1159.8 1216.31,1155.05 1217.43,1150.04 1218.56,1144.83 1219.68,1139.44 1220.81,1133.9 1221.93,1128.25 1223.05,1122.52 1224.18,1116.75 1225.3,1110.96 1226.43,1105.19 1227.55,1099.47 1228.67,1093.84 1229.8,1088.32 1230.92,1082.96 1232.04,1077.78 1233.17,1072.82 1234.29,1068.11 1235.42,1063.69 1236.54,1059.58 1237.66,1055.82 1238.79,1052.44 1239.91,1049.47 1241.04,1042.21 1242.16,1028.18 1243.28,1012.23 1244.41,995.619 1245.53,979.637 1246.65,965.558 1247.78,944.283 1248.9,911.316 1250.03,870.71 1251.15,824.843 1252.27,776.096 1253.4,726.848 1254.52,679.479 1255.65,636.367 1256.77,599.893 1257.89,563.945 1259.02,496.912 1260.14,431.173 1261.26,365.563 1262.39,298.92 1263.51,230.078 1264.64,169.402 1265.76,143.121 1266.88,125.835 1268.01,102.335 1269.13,89.8115 1270.26,89.7034 1271.38,89.609 1272.5,89.7945 1273.63,95.2711 1274.75,101.103 1275.87,106.824 1277,114.985 1278.12,123.613 1279.25,131.641 1280.37,141.248 1281.49,151.574 1282.62,161.922 1283.74,172.063 1284.87,183.374 1285.99,195.04 1287.11,206.584 1288.24,218.271 1289.36,230.65 1290.48,243.182 1291.61,255.532 1292.73,268.25 1293.86,281.259 1294.98,294.307 1296.1,307.255 1297.23,320.464 1298.35,333.776 1299.48,347.086 1300.6,360.363 1301.72,373.718 1302.85,387.106 1303.97,400.496 1305.09,413.825 1306.22,427.126 1307.34,440.437 1308.47,453.769 1309.59,466.937 1310.71,480.062 1311.84,493.215 1312.96,506.31 1314.09,519.231 1315.21,532.145 1316.33,545.066 1317.46,557.762 1318.58,570.39 1319.7,583.051 1320.83,595.697 1321.95,608.069 1323.08,620.374 1324.2,632.713 1325.32,645.034 1326.45,657.084 1327.57,669.055 1328.7,681.034 1329.82,693.108 1330.94,704.904 1332.07,716.572 1333.19,728.2 1334.31,739.86 1335.44,751.573 1336.56,763.024 1337.69,774.402 1338.81,785.752 1339.93,797.119 1341.06,808.546 1342.18,819.849 1343.31,831.102 1344.43,842.344 1345.55,853.582 1346.68,864.822 1347.8,876.072 1348.92,887.393 1350.05,898.856 1351.17,910.427 1352.3,922.069 1353.42,933.748 1354.54,945.427 1355.67,957.073 1356.79,968.648 1357.92,980.118 1359.04,992.075 1360.16,1005.23 1361.29,1018.55 1362.41,1031.88 1363.53,1045.06 1364.66,1058.49 1365.78,1073.08 1366.91,1088.21 1368.03,1103.59 1369.15,1118.92 1370.28,1133.93 1371.4,1148.63 1372.53,1165 1373.65,1181.62 1374.77,1198.38 1375.9,1215.19 1377.02,1231.92 1378.14,1248.46 1379.27,1264.19 1380.39,1278.34 1381.52,1291.48 1382.64,1304.2 1383.76,1317.11 1384.89,1330.81 1386.01,1345.32 1387.14,1354.06 1388.26,1360.78 1389.38,1366.25 1390.51,1371.27 1391.63,1376.61 1392.75,1383.07 1393.88,1389.78 1395,1392.42 1396.13,1394.27 1397.25,1395.65 1398.37,1396.91 1399.5,1398.36 1400.62,1400.33 1401.75,1401.8 1402.87,1402.3 1403.99,1402.61 1405.12,1402.82 1406.24,1403.02 1407.36,1403.3 1408.49,1403.74 1409.61,1403.86 1410.74,1403.84 1411.86,1403.78 1412.98,1403.7 1414.11,1403.63 1415.23,1403.58 1416.36,1403.55 1417.48,1403.43 1418.6,1403.28 1419.73,1403.13 1420.85,1402.97 1421.97,1402.81 1423.1,1402.66 1424.22,1402.52 1425.35,1402.35 1426.47,1402.17 1427.59,1401.98 1428.72,1401.8 1429.84,1401.61 1430.97,1401.43 1432.09,1401.25 1433.21,1401.07 1434.34,1400.88 1435.46,1400.68 1436.58,1400.49 1437.71,1400.3 1438.83,1400.1 1439.96,1399.91 1441.08,1399.71 1442.2,1399.52 1443.33,1399.32 1444.45,1399.12 1445.58,1398.92 1446.7,1398.72 1447.82,1398.52 1448.95,1398.32 1450.07,1398.12 1451.19,1397.92 1452.32,1397.72 1453.44,1397.53 1454.57,1397.32 1455.69,1397.12 1456.81,1396.92 1457.94,1396.72 1459.06,1396.51 1460.19,1396.31 1461.31,1396.11 1462.43,1395.9 1463.56,1395.7 1464.68,1395.49 1465.8,1395.29 1466.93,1395.09 1468.05,1394.88 1469.18,1394.68 1470.3,1394.48 1471.42,1394.27 1472.55,1394.07 1473.67,1393.86 1474.8,1393.66 1475.92,1393.46 1477.04,1393.25 1478.17,1393.05 1479.29,1392.84 1480.41,1392.64 1481.54,1392.44 1482.66,1392.23 1483.79,1392.03 1484.91,1391.82 1486.03,1391.62 1487.16,1391.41 1488.28,1391.21 1489.41,1391.01 1490.53,1390.81 1491.65,1390.61 1492.78,1390.41 1493.9,1390.21 1495.02,1390 1496.15,1389.8 1497.27,1389.6 1498.4,1389.4 1499.52,1389.2 1500.64,1389 1501.77,1388.8 1502.89,1388.6 1504.02,1388.4 1505.14,1388.19 1506.26,1387.99 1507.39,1387.79 1508.51,1387.6 1509.63,1387.4 1510.76,1387.21 1511.88,1387.01 1513.01,1386.82 1514.13,1386.63 1515.25,1386.43 1516.38,1386.24 1517.5,1386.05 1518.63,1385.86 1519.75,1385.67 1520.87,1385.47 1522,1385.28 1523.12,1385.09 1524.24,1384.89 1525.37,1384.7 1526.49,1384.5 1527.62,1384.31 1528.74,1384.12 1529.86,1383.93 1530.99,1383.74 1532.11,1383.56 1533.24,1383.38 1534.36,1383.2 1535.48,1383.01 1536.61,1382.83 1537.73,1382.66 1538.85,1382.48 1539.98,1382.3 1541.1,1382.12 1542.23,1381.94 1543.35,1381.76 1544.47,1381.59 1545.6,1381.41 1546.72,1381.23 1547.85,1381.05 1548.97,1380.87 1550.09,1380.68 1551.22,1380.5 1552.34,1380.31 1553.46,1380.13 1554.59,1379.96 1555.71,1379.79 1556.84,1379.62 1557.96,1379.46 1559.08,1379.29 1560.21,1379.12 1561.33,1378.96 1562.46,1378.8 1563.58,1378.64 1564.7,1378.47 1565.83,1378.31 1566.95,1378.15 1568.07,1377.99 1569.2,1377.83 1570.32,1377.67 1571.45,1377.51 1572.57,1377.34 1573.69,1377.18 1574.82,1377.02 1575.94,1376.85 1577.07,1376.69 1578.19,1376.52 1579.31,1376.35 1580.44,1376.18 1581.56,1376.03 1582.68,1375.87 1583.81,1375.72 1584.93,1375.57 1586.06,1375.42 1587.18,1375.27 1588.3,1375.12 1589.43,1374.97 1590.55,1374.83 1591.68,1374.68 1592.8,1374.53 1593.92,1374.39 1595.05,1374.24 1596.17,1374.1 1597.29,1373.95 1598.42,1373.81 1599.54,1373.66 1600.67,1373.51 1601.79,1373.37 1602.91,1373.22 1604.04,1373.07 1605.16,1372.92 1606.29,1372.77 1607.41,1372.62 1608.53,1372.47 1609.66,1372.32 1610.78,1372.18 1611.9,1372.04 1613.03,1371.9 1614.15,1371.75 1615.28,1371.61 1616.4,1371.47 1617.52,1371.33 1618.65,1371.2 1619.77,1371.06 1620.9,1370.92 1622.02,1370.78 1623.14,1370.64 1624.27,1370.5 1625.39,1370.36 1626.51,1370.22 1627.64,1370.08 1628.76,1369.94 1629.89,1369.81 1631.01,1369.67 1632.13,1369.53 1633.26,1369.39 1634.38,1369.25 1635.51,1369.11 1636.63,1368.97 1637.75,1368.83 1638.88,1368.69 1640,1368.54 1641.12,1368.4 1642.25,1368.26 1643.37,1368.12 1644.5,1367.97 1645.62,1367.83 1646.74,1367.68 1647.87,1367.54 1648.99,1367.39 1650.12,1367.24 1651.24,1367.1 1652.36,1366.95 1653.49,1366.8 1654.61,1366.65 1655.73,1366.5 1656.86,1366.36 1657.98,1366.21 1659.11,1366.06 1660.23,1365.92 1661.35,1365.77 1662.48,1365.63 1663.6,1365.48 1664.73,1365.34 1665.85,1365.19 1666.97,1365.05 1668.1,1364.9 1669.22,1364.75 1670.34,1364.59 1671.47,1364.42 1672.59,1364.26 1673.72,1364.09 1674.84,1363.92 1675.96,1363.75 1677.09,1363.58 1678.21,1363.4 1679.34,1363.23 1680.46,1363.05 1681.58,1362.88 1682.71,1362.7 1683.83,1362.53 1684.95,1362.35 1686.08,1362.17 1687.2,1362 1688.33,1361.83 1689.45,1361.65 1690.57,1361.48 1691.7,1361.31 1692.82,1361.15 1693.95,1360.98 1695.07,1360.82 1696.19,1360.66 1697.32,1360.46 1698.44,1360.27 1699.56,1360.06 1700.69,1359.86 1701.81,1359.65 1702.94,1359.43 1704.06,1359.22 1705.18,1359 1706.31,1358.78 1707.43,1358.55 1708.56,1358.33 1709.68,1358.1 1710.8,1357.88 1711.93,1357.65 1713.05,1357.42 1714.18,1357.2 1715.3,1356.98 1716.42,1356.75 1717.55,1356.53 1718.67,1356.31 1719.79,1356.1 1720.92,1355.89 1722.04,1355.68 1723.17,1355.47 1724.29,1355.27 1725.41,1355.03 1726.54,1354.78 1727.66,1354.51 1728.79,1354.24 1729.91,1353.97 1731.03,1353.69 1732.16,1353.41 1733.28,1353.12 1734.4,1352.83 1735.53,1352.54 1736.65,1352.24 1737.78,1351.94 1738.9,1351.64 1740.02,1351.35 1741.15,1351.05 1742.27,1350.75 1743.4,1350.45 1744.52,1350.16 1745.64,1349.87 1746.77,1349.58 1747.89,1349.29 1749.01,1349.01 1750.14,1348.74 1751.26,1348.47 1752.39,1348.2 1753.51,1347.92 1754.63,1347.59 1755.76,1347.24 1756.88,1346.9 1758.01,1346.54 1759.13,1346.18 1760.25,1345.81 1761.38,1345.43 1762.5,1345.05 1763.62,1344.67 1764.75,1344.28 1765.87,1343.89 1767,1343.5 1768.12,1343.11 1769.24,1342.72 1770.37,1342.33 1771.49,1341.94 1772.62,1341.55 1773.74,1341.16 1774.86,1340.78 1775.99,1340.4 1777.11,1340.03 1778.23,1339.66 1779.36,1339.29 1780.48,1338.94 1781.61,1338.59 1782.73,1338.22 1783.85,1337.78 1784.98,1337.33 1786.1,1336.88 1787.23,1336.42 1788.35,1335.97 1789.47,1335.51 1790.6,1335.05 1791.72,1334.59 1792.84,1334.12 1793.97,1333.66 1795.09,1333.19 1796.22,1332.73 1797.34,1332.26 1798.46,1331.8 1799.59,1331.33 1800.71,1330.87 1801.84,1330.41 1802.96,1329.95 1804.08,1329.49 1805.21,1328.97 1806.33,1328.44 1807.45,1327.91 1808.58,1327.39 1809.7,1326.86 1810.83,1326.32 1811.95,1325.79 1813.07,1325.26 1814.2,1324.72 1815.32,1324.19 1816.45,1323.66 1817.57,1323.13 1818.69,1322.56 1819.82,1321.97 1820.94,1321.39 1822.06,1320.8 1823.19,1320.21 1824.31,1319.62 1825.44,1319.03 1826.56,1318.43 1827.68,1317.83 1828.81,1317.24 1829.93,1316.64 1831.06,1316.04 1832.18,1315.44 1833.3,1314.85 1834.43,1314.25 1835.55,1313.66 1836.67,1313.03 1837.8,1312.38 1838.92,1311.73 1840.05,1311.07 1841.17,1310.41 1842.29,1309.75 1843.42,1309.09 1844.54,1308.43 1845.67,1307.76 1846.79,1307.1 1847.91,1306.44 1849.04,1305.77 1850.16,1305.11 1851.28,1304.42 1852.41,1303.71 1853.53,1303 1854.66,1302.28 1855.78,1301.56 1856.9,1300.84 1858.03,1300.11 1859.15,1299.39 1860.28,1298.66 1861.4,1297.93 1862.52,1297.21 1863.65,1296.48 1864.77,1295.75 1865.89,1295.03 1867.02,1294.3 1868.14,1293.54 1869.27,1292.76 1870.39,1291.97 1871.51,1291.19 1872.64,1290.4 1873.76,1289.61 1874.89,1288.82 1876.01,1288.03 1877.13,1287.24 1878.26,1286.45 1879.38,1285.66 1880.5,1284.87 1881.63,1284.08 1882.75,1283.25 1883.88,1282.41 1885,1281.57 1886.12,1280.72 1887.25,1279.86 1888.37,1279.01 1889.5,1278.15 1890.62,1277.3 1891.74,1276.44 1892.87,1275.58 1893.99,1274.73 1895.11,1273.87 1896.24,1273.01 1897.36,1272.16 1898.49,1271.26 1899.61,1270.34 1900.73,1269.42 1901.86,1268.5 1902.98,1267.57 1904.11,1266.64 1905.23,1265.72 1906.35,1264.79 1907.48,1263.85 1908.6,1262.92 1909.72,1261.99 1910.85,1261.07 1911.97,1260.14 1913.1,1259.16 1914.22,1258.16 1915.34,1257.15 1916.47,1256.14 1917.59,1255.13 1918.72,1254.12 1919.84,1253.1 1920.96,1252.08 1922.09,1251.06 1923.21,1250.04 1924.33,1249.03 1925.46,1248.01 1926.58,1246.99 1927.71,1245.94 1928.83,1244.83 1929.95,1243.71 1931.08,1242.59 1932.2,1241.46 1933.33,1240.33 1934.45,1239.2 1935.57,1238.06 1936.7,1236.92 1937.82,1235.78 1938.94,1234.64 1940.07,1233.51 1941.19,1232.37 1942.32,1231.17 1943.44,1229.9 1944.56,1228.61 1945.69,1227.32 1946.81,1226.01 1947.94,1224.7 1949.06,1223.38 1950.18,1222.06 1951.31,1220.74 1952.43,1219.42 1953.55,1218.09 1954.68,1216.78 1955.8,1215.46 1956.93,1214.07 1958.05,1212.52 1959.17,1210.95 1960.3,1209.35 1961.42,1207.74 1962.55,1206.12 1963.67,1204.49 1964.79,1202.85 1965.92,1201.2 1967.04,1199.56 1968.16,1197.91 1969.29,1196.28 1970.41,1194.65 1971.54,1192.85 1972.66,1190.75 1973.78,1188.61 1974.91,1186.42 1976.03,1184.2 1977.16,1181.94 1978.28,1179.67 1979.4,1177.38 1980.53,1175.08 1981.65,1172.77 1982.77,1170.47 1983.9,1168.19 1985.02,1165.92 1986.15,1163.4 1987.27,1160 1988.39,1156.46 1989.52,1152.78 1990.64,1149 1991.77,1145.13 1992.89,1141.19 1994.01,1137.19 1995.14,1133.16 1996.26,1129.12 1997.38,1125.09 1998.51,1121.07 1999.63,1117.1 2000.76,1113.19 2001.88,1107.12 2003,1099.9 2004.13,1092.31 2005.25,1084.43 2006.38,1076.37 2007.5,1068.21 2008.62,1060.06 2009.75,1052 2010.87,1043.24 2011.99,1029.62 2013.12,1015.12 2014.24,1000.14 2015.37,985.096 2016.49,969.151 2017.61,946.087 2018.74,921.692 2019.86,897.091 2020.99,866.312 2022.11,829.803 2023.23,792.92 2024.36,744.626 2025.48,693.927 2026.6,633.995 2027.73,569.538 2028.85,498.922 2029.98,425.141 2031.1,351.896 2032.22,283.391 2033.35,223.773 2034.47,175.639 2035.6,139.407 2036.72,114.426 2037.84,98.9122 2038.97,91.2886 2040.09,88.1096 2041.21,88.0062 2042.34,91.0948 2043.46,95.5462 2044.59,101.226 2045.71,108.166 2046.83,115.541 2047.96,124.055 2049.08,132.773 2050.21,142.359 2051.33,152.124 2052.45,162.599 2053.58,173.207 2054.7,184.425 2055.82,195.723 2056.95,207.556 2058.07,219.448 2059.2,231.743 2060.32,244.137 2061.44,256.772 2062.57,269.552 2063.69,282.453 2064.82,295.512 2065.94,308.618 2067.06,321.864 2068.19,335.121 2069.31,348.473 2070.43,361.836 2071.56,375.223 2072.68,388.622 2073.81,402.012 2074.93,415.393 2076.05,428.752 2077.18,442.075 2078.3,455.374 2079.43,468.624 2080.55,481.813 2081.67,494.956 2082.8,508.023 2083.92,520.996 2085.04,533.932 2086.17,546.76 2087.29,559.552 2088.42,572.209 2089.54,584.853 2090.66,597.354 2091.79,609.827 2092.91,622.178 2094.04,634.458 2095.16,646.698 2096.28,658.792 2097.41,670.87 2098.53,682.83 2099.65,694.706 2100.78,706.578 2101.9,718.295 2103.03,729.969 2104.15,741.639 2105.27,753.148 2106.4,764.637 2107.52,776.124 2108.65,787.489 2109.77,798.829 2110.89,810.166 2112.02,821.447 2113.14,832.699 2114.26,843.949 2115.39,855.199 2116.51,866.458 2117.64,877.729 2118.76,889.001 2119.88,900.367 2121.01,911.818 2122.13,923.293 2123.26,934.765 2124.38,946.55 2125.5,958.478 2126.63,970.45 2127.75,982.416 2128.87,994.929 2130,1007.75 2131.12,1020.66 2132.25,1033.59 2133.37,1046.91 2134.49,1061.13 2135.62,1075.52 2136.74,1089.99 2137.87,1104.44 2138.99,1119.83 2140.11,1135.9 2141.24,1152.12 2142.36,1168.39 2143.48,1184.61 2144.61,1201.38 2145.73,1218.18 2146.86,1234.95 2147.98,1251.71 2149.1,1267.75 2150.23,1282.75 2151.35,1297.42 2152.48,1312.05 2153.6,1325.23 2154.72,1336.04 2155.85,1346.38 2156.97,1356.67 2158.09,1365.1 2159.22,1371.42 2160.34,1377.43 2161.47,1383.49 2162.59,1387.26 2163.71,1390.53 2164.84,1393.74 2165.96,1396.05 2167.09,1397.76 2168.21,1399.43 2169.33,1400.64 2170.46,1401.5 2171.58,1402.34 2172.7,1402.89 2173.83,1403.29 2174.95,1403.68 2176.08,1403.87 2177.2,1404.02 2178.32,1404.16 2179.45,1404.17 2180.57,1404.18 2181.7,1404.18 2182.82,1404.11 2183.94,1404.03 2185.07,1403.95 2186.19,1403.83 2187.31,1403.7 2188.44,1403.58 2189.56,1403.44 2190.69,1403.29 2191.81,1403.13 2192.93,1402.98 2194.06,1402.81 2195.18,1402.64 2196.31,1402.47 2197.43,1402.3 2198.55,1402.12 2199.68,1401.95 2200.8,1401.76 2201.92,1401.58 2203.05,1401.4 2204.17,1401.22 2205.3,1401.03 2206.42,1400.85 2207.54,1400.66 2208.67,1400.47 2209.79,1400.29 2210.92,1400.1 2212.04,1399.91 2213.16,1399.72 2214.29,1399.53 2215.41,1399.33 2216.53,1399.14 2217.66,1398.95 2218.78,1398.76 2219.91,1398.57 2221.03,1398.38 2222.15,1398.18 2223.28,1397.99 2224.4,1397.79 2225.53,1397.6 2226.65,1397.41 2227.77,1397.21 2228.9,1397.02 2230.02,1396.82 2231.14,1396.63 2232.27,1396.43 2233.39,1396.24 2234.52,1396.05 2235.64,1395.85 2236.76,1395.66 2237.89,1395.46 2239.01,1395.26 2240.14,1395.07 2241.26,1394.87 2242.38,1394.68 2243.51,1394.48 2244.63,1394.28 2245.75,1394.09 2246.88,1393.89 2248,1393.7 2249.13,1393.5 2250.25,1393.3 2251.37,1393.11 2252.5,1392.91 2253.62,1392.72 2254.75,1392.52 2255.87,1392.33 2256.99,1392.13 2258.12,1391.94 2259.24,1391.75 2260.36,1391.55 2261.49,1391.36 2262.61,1391.16 2263.74,1390.97 2264.86,1390.77 2265.98,1390.58 2267.11,1390.39 2268.23,1390.19 2269.36,1390 2270.48,1389.81 2271.6,1389.62 2272.73,1389.43 2273.85,1389.24 2274.97,1389.05 2276.1,1388.86 2277.22,1388.67 2278.35,1388.48 2279.47,1388.29 2280.59,1388.11 2281.72,1387.92 2282.84,1387.73 2283.97,1387.54 2285.09,1387.35 2286.21,1387.16 2287.34,1386.98 2288.46,1386.79 2289.58,1386.61 2290.71,1386.43 2291.83,1386.25 2292.96,1386.06 2294.08,1385.88 2295.2,1385.7 2296.33,1385.52 2297.45,1385.34 2298.58,1385.16 2299.7,1384.97 2300.82,1384.79 2301.95,1384.61 2303.07,1384.43 2304.19,1384.25 2305.32,1384.08 2306.44,1383.9 2307.57,1383.73 2308.69,1383.56 2309.81,1383.38 2310.94,1383.21 2312.06,1383.04 2313.19,1382.87 2314.31,1382.69 2315.43,1382.52 2316.56,1382.35 2317.68,1382.18 2318.8,1382.01 2319.93,1381.83 2321.05,1381.66 2322.18,1381.49 2323.3,1381.33 2324.42,1381.16 2325.55,1381 2326.67,1380.84 2327.8,1380.67 2328.92,1380.51 2330.04,1380.35 2331.17,1380.19 2332.29,1380.03 2333.41,1379.87 2334.54,1379.7 2335.66,1379.54 2336.79,1379.38 2337.91,1379.22 2339.03,1379.06 2340.16,1378.9 2341.28,1378.74 2342.41,1378.58 2343.53,1378.43 2344.65,1378.28 2345.78,1378.12 2346.9,1377.97 2348.02,1377.82 2349.15,1377.67 2350.27,1377.52 2351.4,1377.36 2352.52,1377.21 2353.64,1377.06 2354.77,1376.91 2355.89,1376.76 2357.02,1376.6 2358.14,1376.45 2359.26,1376.3 2360.39,1376.15 2361.51,1376.01 2362.63,1375.86 2363.76,1375.72 2364.88,1375.57 2366.01,1375.43 2367.13,1375.28 2368.25,1375.14 2369.38,1374.99 2370.5,1374.85 2371.63,1374.7 2372.75,1374.56 2373.87,1374.41 2375,1374.27 2376.12,1374.12 2377.24,1373.98 2378.37,1373.83 2379.49,1373.69 2380.62,1373.55 2381.74,1373.41 2382.86,1373.26 2383.99,1373.12 2385.11,1372.98 2386.24,1372.84 2387.36,1372.7 2388.48,1372.56 2389.61,1372.41 2390.73,1372.27 2391.85,1372.13 2392.98,1371.99 2394.1,1371.85 2395.23,1371.7 2396.35,1371.56 2397.47,1371.42 2398.6,1371.28 2399.72,1371.14 2400.85,1370.99 2401.97,1370.85 2403.09,1370.7 2404.22,1370.56 2405.34,1370.41 2406.46,1370.27 2407.59,1370.12 2408.71,1369.97 2409.84,1369.83 2410.96,1369.68 2412.08,1369.53 2413.21,1369.39 2414.33,1369.24 2415.46,1369.09 2416.58,1368.95 2417.7,1368.8 2418.83,1368.65 2419.95,1368.51 2421.07,1368.36 2422.2,1368.2 2423.32,1368.05 2424.45,1367.89 2425.57,1367.73 2426.69,1367.57 2427.82,1367.41 2428.94,1367.25 2430.07,1367.09 2431.19,1366.93 2432.31,1366.76 2433.44,1366.6 2434.56,1366.44 2435.68,1366.28 2436.81,1366.11 2437.93,1365.95 2439.06,1365.79 2440.18,1365.63 2441.3,1365.46 2442.43,1365.3 2443.55,1365.14 2444.68,1364.98 2445.8,1364.8 2446.92,1364.61 2448.05,1364.42 2449.17,1364.24 2450.29,1364.05 2451.42,1363.86 2452.54,1363.66 2453.67,1363.47 2454.79,1363.28 2455.91,1363.08 2457.04,1362.89 2458.16,1362.69 2459.29,1362.5 2460.41,1362.3 2461.53,1362.1 2462.66,1361.91 2463.78,1361.71 2464.9,1361.51 2466.03,1361.32 2467.15,1361.12 2468.28,1360.93 2469.4,1360.73 2470.52,1360.54 2471.65,1360.34 2472.77,1360.14 2473.9,1359.91 2475.02,1359.66 2476.14,1359.42 2477.27,1359.18 2478.39,1358.93 2479.51,1358.68 2480.64,1358.43 2481.76,1358.18 2482.89,1357.93 2484.01,1357.67 2485.13,1357.42 2486.26,1357.16 2487.38,1356.9 2488.51,1356.64 2489.63,1356.38 2490.75,1356.12 2491.88,1355.86 2493,1355.6 2494.12,1355.34 2495.25,1355.08 2496.37,1354.82 2497.5,1354.56 2498.62,1354.3 2499.74,1354.04 2500.87,1353.78 2501.99,1353.52 2503.12,1353.26 2504.24,1353 2505.36,1352.74 2506.49,1352.48 2507.61,1352.16 2508.73,1351.83 2509.86,1351.51 2510.98,1351.18 2512.11,1350.85 2513.23,1350.52 2514.35,1350.19 2515.48,1349.85 2516.6,1349.52 2517.73,1349.18 2518.85,1348.85 2519.97,1348.52 2521.1,1348.18 2522.22,1347.85 2523.35,1347.51 2524.47,1347.13 2525.59,1346.75 2526.72,1346.36 2527.84,1345.98 2528.96,1345.59 2530.09,1345.2 2531.21,1344.8 2532.34,1344.41 2533.46,1344.01 2534.58,1343.62 2535.71,1343.22 2536.83,1342.82 2537.96,1342.42 2539.08,1342.02 2540.2,1341.63 2541.33,1341.23 2542.45,1340.83 2543.57,1340.43 2544.7,1340.04 2545.82,1339.64 2546.95,1339.22 2548.07,1338.76 2549.19,1338.3 2550.32,1337.84 2551.44,1337.37 2552.57,1336.9 2553.69,1336.43 2554.81,1335.96 2555.94,1335.49 2557.06,1335.02 2558.18,1334.55 2559.31,1334.08 2560.43,1333.6 2561.56,1333.13 2562.68,1332.66 2563.8,1332.19 2564.93,1331.67 2566.05,1331.14 2567.18,1330.61 2568.3,1330.08 2569.42,1329.55 2570.55,1329.01 2571.67,1328.47 2572.79,1327.93 2573.92,1327.39 2575.04,1326.85 2576.17,1326.3 2577.29,1325.76 2578.41,1325.22 2579.54,1324.68 2580.66,1324.14 2581.79,1323.6 2582.91,1323.06 2584.03,1322.48 2585.16,1321.88 2586.28,1321.28 2587.4,1320.67 2588.53,1320.06 2589.65,1319.46 2590.78,1318.84 2591.9,1318.23 2593.02,1317.62 2594.15,1317 2595.27,1316.39 2596.4,1315.78 2597.52,1315.16 2598.64,1314.55 2599.77,1313.94 2600.89,1313.29 2602.01,1312.62 2603.14,1311.95 2604.26,1311.28 2605.39,1310.61 2606.51,1309.93 2607.63,1309.25 2608.76,1308.57 2609.88,1307.89 2611.01,1307.21 2612.13,1306.53 2613.25,1305.85 2614.38,1305.16 2615.5,1304.48 2616.62,1303.81 2617.75,1303.11 2618.87,1302.38 2620,1301.64 2621.12,1300.9 2622.24,1300.16 2623.37,1299.42 2624.49,1298.67 2625.62,1297.92 2626.74,1297.18 2627.86,1296.43 2628.99,1295.68 2630.11,1294.93 2631.23,1294.19 2632.36,1293.44 2633.48,1292.69 2634.61,1291.89 2635.73,1291.09 2636.85,1290.29 2637.98,1289.48 2639.1,1288.67 2640.23,1287.86 2641.35,1287.05 2642.47,1286.24 2643.6,1285.43 2644.72,1284.61 2645.84,1283.8 2646.97,1282.99 2648.09,1282.17 2649.22,1281.36 2650.34,1280.51 2651.46,1279.64 2652.59,1278.77 2653.71,1277.9 2654.84,1277.02 2655.96,1276.14 2657.08,1275.26 2658.21,1274.38 2659.33,1273.5 2660.45,1272.62 2661.58,1271.74 2662.7,1270.86 2663.83,1269.98 2664.95,1269.09 2666.07,1268.15 2667.2,1267.21 2668.32,1266.26 2669.45,1265.31 2670.57,1264.36 2671.69,1263.41 2672.82,1262.45 2673.94,1261.49 2675.06,1260.54 2676.19,1259.58 2677.31,1258.62 2678.44,1257.67 2679.56,1256.71 2680.68,1255.72 2681.81,1254.69 2682.93,1253.65 2684.06,1252.61 2685.18,1251.57 2686.3,1250.52 2687.43,1249.47 2688.55,1248.42 2689.67,1247.36 2690.8,1246.31 2691.92,1245.26 2693.05,1244.21 2694.17,1243.16 2695.29,1242.08 2696.42,1240.93 2697.54,1239.77 2698.67,1238.61 2699.79,1237.43 2700.91,1236.25 2702.04,1235.07 2703.16,1233.89 2704.28,1232.7 2705.41,1231.51 2706.53,1230.33 2707.66,1229.14 2708.78,1227.96 2709.9,1226.77 2711.03,1225.44 2712.15,1224.09 2713.28,1222.72 2714.4,1221.35 2715.52,1219.96 2716.65,1218.57 2717.77,1217.17 2718.89,1215.77 2720.02,1214.37 2721.14,1212.96 2722.27,1211.56 2723.39,1210.17 2724.51,1208.78 2725.64,1207.24 "/>
<path clip-path="url(#clip850)" d="M2824.5 817.94 L3152.76 817.94 L3152.76 714.26 L2824.5 714.26  Z" fill="#ffffff" fill-rule="evenodd" fill-opacity="1"/>
<polyline clip-path="url(#clip850)" style="stroke:#000000; stroke-linecap:round; stroke-linejoin:round; stroke-width:4; stroke-opacity:1; fill:none" points="2824.5,817.94 3152.76,817.94 3152.76,714.26 2824.5,714.26 2824.5,817.94 "/>
<polyline clip-path="url(#clip850)" style="stroke:#009af9; stroke-linecap:round; stroke-linejoin:round; stroke-width:12; stroke-opacity:1; fill:none" points="2857.45,766.1 3055.18,766.1 "/>
<path clip-path="url(#clip850)" d="M3101.33 783.38 L3088.14 748.82 L3093.02 748.82 L3103.97 777.918 L3114.94 748.82 L3119.8 748.82 L3106.63 783.38 L3101.33 783.38 Z" fill="#000000" fill-rule="nonzero" fill-opacity="1" /></svg>
