<?xml version="1.0" encoding="utf-8"?>
<svg xmlns="http://www.w3.org/2000/svg" xmlns:xlink="http://www.w3.org/1999/xlink" width="800" height="400" viewBox="0 0 3200 1600">
<defs>
  <clipPath id="clip000">
    <rect x="0" y="0" width="3200" height="1600"/>
  </clipPath>
</defs>
<path clip-path="url(#clip000)" d="M0 1600 L3200 1600 L3200 0 L0 0  Z" fill="#ffffff" fill-rule="evenodd" fill-opacity="1"/>
<defs>
  <clipPath id="clip001">
    <rect x="640" y="0" width="2241" height="1600"/>
  </clipPath>
</defs>
<path clip-path="url(#clip000)" d="M243.579 1443.7 L3152.76 1443.7 L3152.76 47.2441 L243.579 47.2441  Z" fill="#ffffff" fill-rule="evenodd" fill-opacity="1"/>
<defs>
  <clipPath id="clip002">
    <rect x="243" y="47" width="2910" height="1397"/>
  </clipPath>
</defs>
<polyline clip-path="url(#clip000)" style="stroke:#000000; stroke-linecap:round; stroke-linejoin:round; stroke-width:4; stroke-opacity:1; fill:none" points="243.579,1443.7 3152.76,1443.7 "/>
<polyline clip-path="url(#clip000)" style="stroke:#000000; stroke-linecap:round; stroke-linejoin:round; stroke-width:4; stroke-opacity:1; fill:none" points="243.579,47.2441 3152.76,47.2441 "/>
<polyline clip-path="url(#clip000)" style="stroke:#000000; stroke-linecap:round; stroke-linejoin:round; stroke-width:4; stroke-opacity:1; fill:none" points="280.506,1443.7 280.506,1424.8 "/>
<polyline clip-path="url(#clip000)" style="stroke:#000000; stroke-linecap:round; stroke-linejoin:round; stroke-width:4; stroke-opacity:1; fill:none" points="717.717,1443.7 717.717,1424.8 "/>
<polyline clip-path="url(#clip000)" style="stroke:#000000; stroke-linecap:round; stroke-linejoin:round; stroke-width:4; stroke-opacity:1; fill:none" points="1154.93,1443.7 1154.93,1424.8 "/>
<polyline clip-path="url(#clip000)" style="stroke:#000000; stroke-linecap:round; stroke-linejoin:round; stroke-width:4; stroke-opacity:1; fill:none" points="1592.14,1443.7 1592.14,1424.8 "/>
<polyline clip-path="url(#clip000)" style="stroke:#000000; stroke-linecap:round; stroke-linejoin:round; stroke-width:4; stroke-opacity:1; fill:none" points="2029.35,1443.7 2029.35,1424.8 "/>
<polyline clip-path="url(#clip000)" style="stroke:#000000; stroke-linecap:round; stroke-linejoin:round; stroke-width:4; stroke-opacity:1; fill:none" points="2466.56,1443.7 2466.56,1424.8 "/>
<polyline clip-path="url(#clip000)" style="stroke:#000000; stroke-linecap:round; stroke-linejoin:round; stroke-width:4; stroke-opacity:1; fill:none" points="2903.77,1443.7 2903.77,1424.8 "/>
<polyline clip-path="url(#clip000)" style="stroke:#000000; stroke-linecap:round; stroke-linejoin:round; stroke-width:4; stroke-opacity:1; fill:none" points="280.506,47.2441 280.506,66.1417 "/>
<polyline clip-path="url(#clip000)" style="stroke:#000000; stroke-linecap:round; stroke-linejoin:round; stroke-width:4; stroke-opacity:1; fill:none" points="717.717,47.2441 717.717,66.1417 "/>
<polyline clip-path="url(#clip000)" style="stroke:#000000; stroke-linecap:round; stroke-linejoin:round; stroke-width:4; stroke-opacity:1; fill:none" points="1154.93,47.2441 1154.93,66.1417 "/>
<polyline clip-path="url(#clip000)" style="stroke:#000000; stroke-linecap:round; stroke-linejoin:round; stroke-width:4; stroke-opacity:1; fill:none" points="1592.14,47.2441 1592.14,66.1417 "/>
<polyline clip-path="url(#clip000)" style="stroke:#000000; stroke-linecap:round; stroke-linejoin:round; stroke-width:4; stroke-opacity:1; fill:none" points="2029.35,47.2441 2029.35,66.1417 "/>
<polyline clip-path="url(#clip000)" style="stroke:#000000; stroke-linecap:round; stroke-linejoin:round; stroke-width:4; stroke-opacity:1; fill:none" points="2466.56,47.2441 2466.56,66.1417 "/>
<polyline clip-path="url(#clip000)" style="stroke:#000000; stroke-linecap:round; stroke-linejoin:round; stroke-width:4; stroke-opacity:1; fill:none" points="2903.77,47.2441 2903.77,66.1417 "/>
<path clip-path="url(#clip000)" d="M280.506 1481.02 Q276.895 1481.02 275.066 1484.58 Q273.261 1488.12 273.261 1495.25 Q273.261 1502.36 275.066 1505.93 Q276.895 1509.47 280.506 1509.47 Q284.141 1509.47 285.946 1505.93 Q287.775 1502.36 287.775 1495.25 Q287.775 1488.12 285.946 1484.58 Q284.141 1481.02 280.506 1481.02 M280.506 1477.31 Q286.316 1477.31 289.372 1481.92 Q292.451 1486.5 292.451 1495.25 Q292.451 1503.98 289.372 1508.59 Q286.316 1513.17 280.506 1513.17 Q274.696 1513.17 271.617 1508.59 Q268.562 1503.98 268.562 1495.25 Q268.562 1486.5 271.617 1481.92 Q274.696 1477.31 280.506 1477.31 Z" fill="#000000" fill-rule="nonzero" fill-opacity="1" /><path clip-path="url(#clip000)" d="M712.37 1508.56 L728.689 1508.56 L728.689 1512.5 L706.745 1512.5 L706.745 1508.56 Q709.407 1505.81 713.99 1501.18 Q718.597 1496.53 719.777 1495.19 Q722.023 1492.66 722.902 1490.93 Q723.805 1489.17 723.805 1487.48 Q723.805 1484.72 721.86 1482.99 Q719.939 1481.25 716.837 1481.25 Q714.638 1481.25 712.185 1482.01 Q709.754 1482.78 706.976 1484.33 L706.976 1479.61 Q709.8 1478.47 712.254 1477.89 Q714.708 1477.31 716.745 1477.31 Q722.115 1477.31 725.31 1480 Q728.504 1482.69 728.504 1487.18 Q728.504 1489.31 727.694 1491.23 Q726.907 1493.12 724.8 1495.72 Q724.222 1496.39 721.12 1499.61 Q718.018 1502.8 712.37 1508.56 Z" fill="#000000" fill-rule="nonzero" fill-opacity="1" /><path clip-path="url(#clip000)" d="M1157.94 1482.01 L1146.13 1500.46 L1157.94 1500.46 L1157.94 1482.01 M1156.71 1477.94 L1162.59 1477.94 L1162.59 1500.46 L1167.52 1500.46 L1167.52 1504.35 L1162.59 1504.35 L1162.59 1512.5 L1157.94 1512.5 L1157.94 1504.35 L1142.34 1504.35 L1142.34 1499.84 L1156.71 1477.94 Z" fill="#000000" fill-rule="nonzero" fill-opacity="1" /><path clip-path="url(#clip000)" d="M1592.54 1493.36 Q1589.4 1493.36 1587.54 1495.51 Q1585.71 1497.66 1585.71 1501.41 Q1585.71 1505.14 1587.54 1507.31 Q1589.4 1509.47 1592.54 1509.47 Q1595.69 1509.47 1597.52 1507.31 Q1599.37 1505.14 1599.37 1501.41 Q1599.37 1497.66 1597.52 1495.51 Q1595.69 1493.36 1592.54 1493.36 M1601.83 1478.7 L1601.83 1482.96 Q1600.07 1482.13 1598.26 1481.69 Q1596.48 1481.25 1594.72 1481.25 Q1590.09 1481.25 1587.64 1484.37 Q1585.21 1487.5 1584.86 1493.82 Q1586.22 1491.81 1588.28 1490.74 Q1590.34 1489.65 1592.82 1489.65 Q1598.03 1489.65 1601.04 1492.82 Q1604.07 1495.97 1604.07 1501.41 Q1604.07 1506.74 1600.92 1509.95 Q1597.77 1513.17 1592.54 1513.17 Q1586.55 1513.17 1583.38 1508.59 Q1580.21 1503.98 1580.21 1495.25 Q1580.21 1487.06 1584.09 1482.2 Q1587.98 1477.31 1594.53 1477.31 Q1596.29 1477.31 1598.08 1477.66 Q1599.88 1478.01 1601.83 1478.7 Z" fill="#000000" fill-rule="nonzero" fill-opacity="1" /><path clip-path="url(#clip000)" d="M2029.35 1496.09 Q2026.02 1496.09 2024.09 1497.87 Q2022.2 1499.65 2022.2 1502.78 Q2022.2 1505.9 2024.09 1507.69 Q2026.02 1509.47 2029.35 1509.47 Q2032.68 1509.47 2034.6 1507.69 Q2036.52 1505.88 2036.52 1502.78 Q2036.52 1499.65 2034.6 1497.87 Q2032.71 1496.09 2029.35 1496.09 M2024.67 1494.1 Q2021.66 1493.36 2019.97 1491.3 Q2018.31 1489.24 2018.31 1486.27 Q2018.31 1482.13 2021.25 1479.72 Q2024.21 1477.31 2029.35 1477.31 Q2034.51 1477.31 2037.45 1479.72 Q2040.39 1482.13 2040.39 1486.27 Q2040.39 1489.24 2038.7 1491.3 Q2037.03 1493.36 2034.05 1494.1 Q2037.43 1494.88 2039.3 1497.18 Q2041.2 1499.47 2041.2 1502.78 Q2041.2 1507.8 2038.12 1510.49 Q2035.07 1513.17 2029.35 1513.17 Q2023.63 1513.17 2020.55 1510.49 Q2017.5 1507.8 2017.5 1502.78 Q2017.5 1499.47 2019.4 1497.18 Q2021.29 1494.88 2024.67 1494.1 M2022.96 1486.71 Q2022.96 1489.4 2024.63 1490.9 Q2026.32 1492.41 2029.35 1492.41 Q2032.36 1492.41 2034.05 1490.9 Q2035.76 1489.4 2035.76 1486.71 Q2035.76 1484.03 2034.05 1482.52 Q2032.36 1481.02 2029.35 1481.02 Q2026.32 1481.02 2024.63 1482.52 Q2022.96 1484.03 2022.96 1486.71 Z" fill="#000000" fill-rule="nonzero" fill-opacity="1" /><path clip-path="url(#clip000)" d="M2441.25 1508.56 L2448.89 1508.56 L2448.89 1482.2 L2440.58 1483.87 L2440.58 1479.61 L2448.84 1477.94 L2453.52 1477.94 L2453.52 1508.56 L2461.15 1508.56 L2461.15 1512.5 L2441.25 1512.5 L2441.25 1508.56 Z" fill="#000000" fill-rule="nonzero" fill-opacity="1" /><path clip-path="url(#clip000)" d="M2480.6 1481.02 Q2476.99 1481.02 2475.16 1484.58 Q2473.35 1488.12 2473.35 1495.25 Q2473.35 1502.36 2475.16 1505.93 Q2476.99 1509.47 2480.6 1509.47 Q2484.23 1509.47 2486.04 1505.93 Q2487.87 1502.36 2487.87 1495.25 Q2487.87 1488.12 2486.04 1484.58 Q2484.23 1481.02 2480.6 1481.02 M2480.6 1477.31 Q2486.41 1477.31 2489.46 1481.92 Q2492.54 1486.5 2492.54 1495.25 Q2492.54 1503.98 2489.46 1508.59 Q2486.41 1513.17 2480.6 1513.17 Q2474.79 1513.17 2471.71 1508.59 Q2468.65 1503.98 2468.65 1495.25 Q2468.65 1486.5 2471.71 1481.92 Q2474.79 1477.31 2480.6 1477.31 Z" fill="#000000" fill-rule="nonzero" fill-opacity="1" /><path clip-path="url(#clip000)" d="M2879.26 1508.56 L2886.9 1508.56 L2886.9 1482.2 L2878.59 1483.87 L2878.59 1479.61 L2886.85 1477.94 L2891.53 1477.94 L2891.53 1508.56 L2899.16 1508.56 L2899.16 1512.5 L2879.26 1512.5 L2879.26 1508.56 Z" fill="#000000" fill-rule="nonzero" fill-opacity="1" /><path clip-path="url(#clip000)" d="M2912.64 1508.56 L2928.96 1508.56 L2928.96 1512.5 L2907.01 1512.5 L2907.01 1508.56 Q2909.67 1505.81 2914.26 1501.18 Q2918.86 1496.53 2920.04 1495.19 Q2922.29 1492.66 2923.17 1490.93 Q2924.07 1489.17 2924.07 1487.48 Q2924.07 1484.72 2922.13 1482.99 Q2920.21 1481.25 2917.1 1481.25 Q2914.9 1481.25 2912.45 1482.01 Q2910.02 1482.78 2907.24 1484.33 L2907.24 1479.61 Q2910.07 1478.47 2912.52 1477.89 Q2914.97 1477.31 2917.01 1477.31 Q2922.38 1477.31 2925.58 1480 Q2928.77 1482.69 2928.77 1487.18 Q2928.77 1489.31 2927.96 1491.23 Q2927.17 1493.12 2925.07 1495.72 Q2924.49 1496.39 2921.39 1499.61 Q2918.28 1502.8 2912.64 1508.56 Z" fill="#000000" fill-rule="nonzero" fill-opacity="1" /><path clip-path="url(#clip000)" d="M1679.99 1553.04 L1686.9 1553.04 L1698.71 1570.71 L1710.58 1553.04 L1717.49 1553.04 L1702.21 1575.86 L1718.51 1600.56 L1711.6 1600.56 L1698.23 1580.35 L1684.77 1600.56 L1677.83 1600.56 L1694.79 1575.2 L1679.99 1553.04 Z" fill="#000000" fill-rule="nonzero" fill-opacity="1" /><polyline clip-path="url(#clip000)" style="stroke:#000000; stroke-linecap:round; stroke-linejoin:round; stroke-width:4; stroke-opacity:1; fill:none" points="243.579,1443.7 243.579,47.2441 "/>
<polyline clip-path="url(#clip000)" style="stroke:#000000; stroke-linecap:round; stroke-linejoin:round; stroke-width:4; stroke-opacity:1; fill:none" points="3152.76,1443.7 3152.76,47.2441 "/>
<polyline clip-path="url(#clip000)" style="stroke:#000000; stroke-linecap:round; stroke-linejoin:round; stroke-width:4; stroke-opacity:1; fill:none" points="243.579,1404.18 262.476,1404.18 "/>
<polyline clip-path="url(#clip000)" style="stroke:#000000; stroke-linecap:round; stroke-linejoin:round; stroke-width:4; stroke-opacity:1; fill:none" points="243.579,1165.57 262.476,1165.57 "/>
<polyline clip-path="url(#clip000)" style="stroke:#000000; stroke-linecap:round; stroke-linejoin:round; stroke-width:4; stroke-opacity:1; fill:none" points="243.579,926.962 262.476,926.962 "/>
<polyline clip-path="url(#clip000)" style="stroke:#000000; stroke-linecap:round; stroke-linejoin:round; stroke-width:4; stroke-opacity:1; fill:none" points="243.579,688.354 262.476,688.354 "/>
<polyline clip-path="url(#clip000)" style="stroke:#000000; stroke-linecap:round; stroke-linejoin:round; stroke-width:4; stroke-opacity:1; fill:none" points="243.579,449.746 262.476,449.746 "/>
<polyline clip-path="url(#clip000)" style="stroke:#000000; stroke-linecap:round; stroke-linejoin:round; stroke-width:4; stroke-opacity:1; fill:none" points="243.579,211.138 262.476,211.138 "/>
<polyline clip-path="url(#clip000)" style="stroke:#000000; stroke-linecap:round; stroke-linejoin:round; stroke-width:4; stroke-opacity:1; fill:none" points="3152.76,1404.18 3133.86,1404.18 "/>
<polyline clip-path="url(#clip000)" style="stroke:#000000; stroke-linecap:round; stroke-linejoin:round; stroke-width:4; stroke-opacity:1; fill:none" points="3152.76,1165.57 3133.86,1165.57 "/>
<polyline clip-path="url(#clip000)" style="stroke:#000000; stroke-linecap:round; stroke-linejoin:round; stroke-width:4; stroke-opacity:1; fill:none" points="3152.76,926.962 3133.86,926.962 "/>
<polyline clip-path="url(#clip000)" style="stroke:#000000; stroke-linecap:round; stroke-linejoin:round; stroke-width:4; stroke-opacity:1; fill:none" points="3152.76,688.354 3133.86,688.354 "/>
<polyline clip-path="url(#clip000)" style="stroke:#000000; stroke-linecap:round; stroke-linejoin:round; stroke-width:4; stroke-opacity:1; fill:none" points="3152.76,449.746 3133.86,449.746 "/>
<polyline clip-path="url(#clip000)" style="stroke:#000000; stroke-linecap:round; stroke-linejoin:round; stroke-width:4; stroke-opacity:1; fill:none" points="3152.76,211.138 3133.86,211.138 "/>
<path clip-path="url(#clip000)" d="M138.403 1389.98 Q134.792 1389.98 132.963 1393.54 Q131.158 1397.08 131.158 1404.21 Q131.158 1411.32 132.963 1414.88 Q134.792 1418.43 138.403 1418.43 Q142.037 1418.43 143.843 1414.88 Q145.672 1411.32 145.672 1404.21 Q145.672 1397.08 143.843 1393.54 Q142.037 1389.98 138.403 1389.98 M138.403 1386.27 Q144.213 1386.27 147.269 1390.88 Q150.347 1395.46 150.347 1404.21 Q150.347 1412.94 147.269 1417.55 Q144.213 1422.13 138.403 1422.13 Q132.593 1422.13 129.514 1417.55 Q126.459 1412.94 126.459 1404.21 Q126.459 1395.46 129.514 1390.88 Q132.593 1386.27 138.403 1386.27 Z" fill="#000000" fill-rule="nonzero" fill-opacity="1" /><path clip-path="url(#clip000)" d="M158.565 1415.58 L163.449 1415.58 L163.449 1421.46 L158.565 1421.46 L158.565 1415.58 Z" fill="#000000" fill-rule="nonzero" fill-opacity="1" /><path clip-path="url(#clip000)" d="M183.634 1389.98 Q180.023 1389.98 178.195 1393.54 Q176.389 1397.08 176.389 1404.21 Q176.389 1411.32 178.195 1414.88 Q180.023 1418.43 183.634 1418.43 Q187.269 1418.43 189.074 1414.88 Q190.903 1411.32 190.903 1404.21 Q190.903 1397.08 189.074 1393.54 Q187.269 1389.98 183.634 1389.98 M183.634 1386.27 Q189.444 1386.27 192.5 1390.88 Q195.579 1395.46 195.579 1404.21 Q195.579 1412.94 192.5 1417.55 Q189.444 1422.13 183.634 1422.13 Q177.824 1422.13 174.745 1417.55 Q171.69 1412.94 171.69 1404.21 Q171.69 1395.46 174.745 1390.88 Q177.824 1386.27 183.634 1386.27 Z" fill="#000000" fill-rule="nonzero" fill-opacity="1" /><path clip-path="url(#clip000)" d="M133.426 1178.91 L149.746 1178.91 L149.746 1182.85 L127.801 1182.85 L127.801 1178.91 Q130.463 1176.16 135.047 1171.53 Q139.653 1166.88 140.834 1165.53 Q143.079 1163.01 143.959 1161.28 Q144.861 1159.52 144.861 1157.83 Q144.861 1155.07 142.917 1153.34 Q140.996 1151.6 137.894 1151.6 Q135.695 1151.6 133.241 1152.36 Q130.811 1153.13 128.033 1154.68 L128.033 1149.96 Q130.857 1148.82 133.311 1148.24 Q135.764 1147.66 137.801 1147.66 Q143.172 1147.66 146.366 1150.35 Q149.56 1153.03 149.56 1157.53 Q149.56 1159.66 148.75 1161.58 Q147.963 1163.47 145.857 1166.07 Q145.278 1166.74 142.176 1169.96 Q139.074 1173.15 133.426 1178.91 Z" fill="#000000" fill-rule="nonzero" fill-opacity="1" /><path clip-path="url(#clip000)" d="M159.56 1176.97 L164.445 1176.97 L164.445 1182.85 L159.56 1182.85 L159.56 1176.97 Z" fill="#000000" fill-rule="nonzero" fill-opacity="1" /><path clip-path="url(#clip000)" d="M174.676 1148.29 L193.032 1148.29 L193.032 1152.22 L178.958 1152.22 L178.958 1160.7 Q179.977 1160.35 180.995 1160.19 Q182.014 1160 183.032 1160 Q188.819 1160 192.199 1163.17 Q195.579 1166.35 195.579 1171.76 Q195.579 1177.34 192.107 1180.44 Q188.634 1183.52 182.315 1183.52 Q180.139 1183.52 177.87 1183.15 Q175.625 1182.78 173.218 1182.04 L173.218 1177.34 Q175.301 1178.47 177.523 1179.03 Q179.745 1179.59 182.222 1179.59 Q186.227 1179.59 188.565 1177.48 Q190.903 1175.37 190.903 1171.76 Q190.903 1168.15 188.565 1166.04 Q186.227 1163.94 182.222 1163.94 Q180.347 1163.94 178.472 1164.35 Q176.62 1164.77 174.676 1165.65 L174.676 1148.29 Z" fill="#000000" fill-rule="nonzero" fill-opacity="1" /><path clip-path="url(#clip000)" d="M128.449 909.682 L146.806 909.682 L146.806 913.617 L132.732 913.617 L132.732 922.089 Q133.75 921.742 134.769 921.58 Q135.787 921.395 136.806 921.395 Q142.593 921.395 145.972 924.566 Q149.352 927.737 149.352 933.154 Q149.352 938.732 145.88 941.834 Q142.408 944.913 136.088 944.913 Q133.912 944.913 131.644 944.543 Q129.399 944.172 126.991 943.432 L126.991 938.732 Q129.074 939.867 131.297 940.422 Q133.519 940.978 135.996 940.978 Q140 940.978 142.338 938.871 Q144.676 936.765 144.676 933.154 Q144.676 929.543 142.338 927.436 Q140 925.33 135.996 925.33 Q134.121 925.33 132.246 925.746 Q130.394 926.163 128.449 927.043 L128.449 909.682 Z" fill="#000000" fill-rule="nonzero" fill-opacity="1" /><path clip-path="url(#clip000)" d="M158.565 938.362 L163.449 938.362 L163.449 944.242 L158.565 944.242 L158.565 938.362 Z" fill="#000000" fill-rule="nonzero" fill-opacity="1" /><path clip-path="url(#clip000)" d="M183.634 912.76 Q180.023 912.76 178.195 916.325 Q176.389 919.867 176.389 926.996 Q176.389 934.103 178.195 937.668 Q180.023 941.209 183.634 941.209 Q187.269 941.209 189.074 937.668 Q190.903 934.103 190.903 926.996 Q190.903 919.867 189.074 916.325 Q187.269 912.76 183.634 912.76 M183.634 909.057 Q189.444 909.057 192.5 913.663 Q195.579 918.246 195.579 926.996 Q195.579 935.723 192.5 940.33 Q189.444 944.913 183.634 944.913 Q177.824 944.913 174.745 940.33 Q171.69 935.723 171.69 926.996 Q171.69 918.246 174.745 913.663 Q177.824 909.057 183.634 909.057 Z" fill="#000000" fill-rule="nonzero" fill-opacity="1" /><path clip-path="url(#clip000)" d="M128.218 671.074 L150.44 671.074 L150.44 673.065 L137.894 705.634 L133.01 705.634 L144.815 675.009 L128.218 675.009 L128.218 671.074 Z" fill="#000000" fill-rule="nonzero" fill-opacity="1" /><path clip-path="url(#clip000)" d="M159.56 699.754 L164.445 699.754 L164.445 705.634 L159.56 705.634 L159.56 699.754 Z" fill="#000000" fill-rule="nonzero" fill-opacity="1" /><path clip-path="url(#clip000)" d="M174.676 671.074 L193.032 671.074 L193.032 675.009 L178.958 675.009 L178.958 683.481 Q179.977 683.134 180.995 682.972 Q182.014 682.787 183.032 682.787 Q188.819 682.787 192.199 685.958 Q195.579 689.129 195.579 694.546 Q195.579 700.125 192.107 703.226 Q188.634 706.305 182.315 706.305 Q180.139 706.305 177.87 705.935 Q175.625 705.564 173.218 704.824 L173.218 700.125 Q175.301 701.259 177.523 701.814 Q179.745 702.37 182.222 702.37 Q186.227 702.37 188.565 700.263 Q190.903 698.157 190.903 694.546 Q190.903 690.935 188.565 688.828 Q186.227 686.722 182.222 686.722 Q180.347 686.722 178.472 687.139 Q176.62 687.555 174.676 688.435 L174.676 671.074 Z" fill="#000000" fill-rule="nonzero" fill-opacity="1" /><path clip-path="url(#clip000)" d="M99.0515 463.091 L106.69 463.091 L106.69 436.725 L98.3802 438.392 L98.3802 434.133 L106.644 432.466 L111.32 432.466 L111.32 463.091 L118.959 463.091 L118.959 467.026 L99.0515 467.026 L99.0515 463.091 Z" fill="#000000" fill-rule="nonzero" fill-opacity="1" /><path clip-path="url(#clip000)" d="M138.403 435.545 Q134.792 435.545 132.963 439.109 Q131.158 442.651 131.158 449.781 Q131.158 456.887 132.963 460.452 Q134.792 463.993 138.403 463.993 Q142.037 463.993 143.843 460.452 Q145.672 456.887 145.672 449.781 Q145.672 442.651 143.843 439.109 Q142.037 435.545 138.403 435.545 M138.403 431.841 Q144.213 431.841 147.269 436.447 Q150.347 441.031 150.347 449.781 Q150.347 458.507 147.269 463.114 Q144.213 467.697 138.403 467.697 Q132.593 467.697 129.514 463.114 Q126.459 458.507 126.459 449.781 Q126.459 441.031 129.514 436.447 Q132.593 431.841 138.403 431.841 Z" fill="#000000" fill-rule="nonzero" fill-opacity="1" /><path clip-path="url(#clip000)" d="M158.565 461.146 L163.449 461.146 L163.449 467.026 L158.565 467.026 L158.565 461.146 Z" fill="#000000" fill-rule="nonzero" fill-opacity="1" /><path clip-path="url(#clip000)" d="M183.634 435.545 Q180.023 435.545 178.195 439.109 Q176.389 442.651 176.389 449.781 Q176.389 456.887 178.195 460.452 Q180.023 463.993 183.634 463.993 Q187.269 463.993 189.074 460.452 Q190.903 456.887 190.903 449.781 Q190.903 442.651 189.074 439.109 Q187.269 435.545 183.634 435.545 M183.634 431.841 Q189.444 431.841 192.5 436.447 Q195.579 441.031 195.579 449.781 Q195.579 458.507 192.5 463.114 Q189.444 467.697 183.634 467.697 Q177.824 467.697 174.745 463.114 Q171.69 458.507 171.69 449.781 Q171.69 441.031 174.745 436.447 Q177.824 431.841 183.634 431.841 Z" fill="#000000" fill-rule="nonzero" fill-opacity="1" /><path clip-path="url(#clip000)" d="M100.047 224.483 L107.686 224.483 L107.686 198.117 L99.3755 199.784 L99.3755 195.525 L107.639 193.858 L112.315 193.858 L112.315 224.483 L119.954 224.483 L119.954 228.418 L100.047 228.418 L100.047 224.483 Z" fill="#000000" fill-rule="nonzero" fill-opacity="1" /><path clip-path="url(#clip000)" d="M133.426 224.483 L149.746 224.483 L149.746 228.418 L127.801 228.418 L127.801 224.483 Q130.463 221.728 135.047 217.099 Q139.653 212.446 140.834 211.103 Q143.079 208.58 143.959 206.844 Q144.861 205.085 144.861 203.395 Q144.861 200.64 142.917 198.904 Q140.996 197.168 137.894 197.168 Q135.695 197.168 133.241 197.932 Q130.811 198.696 128.033 200.247 L128.033 195.525 Q130.857 194.39 133.311 193.812 Q135.764 193.233 137.801 193.233 Q143.172 193.233 146.366 195.918 Q149.56 198.603 149.56 203.094 Q149.56 205.224 148.75 207.145 Q147.963 209.043 145.857 211.636 Q145.278 212.307 142.176 215.525 Q139.074 218.719 133.426 224.483 Z" fill="#000000" fill-rule="nonzero" fill-opacity="1" /><path clip-path="url(#clip000)" d="M159.56 222.538 L164.445 222.538 L164.445 228.418 L159.56 228.418 L159.56 222.538 Z" fill="#000000" fill-rule="nonzero" fill-opacity="1" /><path clip-path="url(#clip000)" d="M174.676 193.858 L193.032 193.858 L193.032 197.793 L178.958 197.793 L178.958 206.265 Q179.977 205.918 180.995 205.756 Q182.014 205.571 183.032 205.571 Q188.819 205.571 192.199 208.742 Q195.579 211.913 195.579 217.33 Q195.579 222.909 192.107 226.011 Q188.634 229.089 182.315 229.089 Q180.139 229.089 177.87 228.719 Q175.625 228.349 173.218 227.608 L173.218 222.909 Q175.301 224.043 177.523 224.599 Q179.745 225.154 182.222 225.154 Q186.227 225.154 188.565 223.048 Q190.903 220.941 190.903 217.33 Q190.903 213.719 188.565 211.613 Q186.227 209.506 182.222 209.506 Q180.347 209.506 178.472 209.923 Q176.62 210.339 174.676 211.219 L174.676 193.858 Z" fill="#000000" fill-rule="nonzero" fill-opacity="1" /><path clip-path="url(#clip000)" d="M-11.3958 765.508 L-11.3958 758.601 L8.14688 745.424 L-11.3958 732.343 L-11.3958 725.436 L13.4941 742.241 L36.1242 742.241 L36.1242 748.703 L13.4941 748.703 L-11.3958 765.508 Z" fill="#000000" fill-rule="nonzero" fill-opacity="1" /><polyline clip-path="url(#clip002)" style="stroke:#009af9; stroke-linecap:round; stroke-linejoin:round; stroke-width:8; stroke-opacity:1; fill:none" points="499.112,1404.18 468.939,1390.74 444.274,1379.26 423.988,1369.31 407.237,1360.6 393.37,1352.9 381.869,1346.01 372.322,1339.81 364.391,1334.16 357.8,1328.98 352.321,1324.19 347.767,1319.71 343.982,1315.5 340.836,1311.51 338.222,1307.71 336.051,1304.06 334.249,1300.54 332.753,1297.12 331.511,1293.8 330.483,1290.54 329.632,1287.35 328.926,1284.21 328.343,1281.11 327.863,1278.05 327.468,1275.02 327.143,1272.01 326.877,1269.03 326.659,1266.06 326.483,1263.1 326.342,1260.16 326.229,1257.23 326.139,1254.31 326.068,1251.39 326.014,1248.48 325.975,1245.58 325.947,1242.68 325.929,1239.78 325.918,1236.89 325.914,1234 325.915,1231.11 325.922,1228.23 325.932,1225.34 325.946,1222.46 325.963,1219.58 325.982,1216.7 326.003,1213.82 326.025,1210.94 326.048,1208.07 326.073,1205.19 326.099,1202.32 326.126,1199.45 326.154,1196.57 326.183,1193.7 326.212,1190.83 326.241,1187.96 326.27,1185.09 326.3,1182.22 326.33,1179.35 326.361,1176.49 326.392,1173.62 326.423,1170.75 326.454,1167.89 326.486,1165.02 326.517,1162.16 326.549,1159.29 326.581,1156.43 326.613,1153.56 326.645,1150.7 326.677,1147.84 326.709,1144.98 326.742,1142.12 326.774,1139.26 326.807,1136.4 326.84,1133.54 326.873,1130.68 326.906,1127.82 326.939,1124.97 326.973,1122.11 327.006,1119.25 327.039,1116.4 327.073,1113.54 327.106,1110.69 327.139,1107.84 327.173,1104.98 327.206,1102.13 327.24,1099.28 327.274,1096.43 327.308,1093.58 327.343,1090.73 327.377,1087.88 327.412,1085.03 327.446,1082.18 327.481,1079.33 327.516,1076.49 327.552,1073.64 327.587,1070.8 327.622,1067.95 327.657,1065.11 327.692,1062.26 327.727,1059.42 327.762,1056.58 327.797,1053.74 327.832,1050.89 327.867,1048.05 327.903,1045.21 327.938,1042.37 327.975,1039.54 328.011,1036.7 328.047,1033.86 328.084,1031.02 328.121,1028.19 328.158,1025.35 328.196,1022.52 328.233,1019.69 328.27,1016.85 328.308,1014.02 328.345,1011.19 328.382,1008.36 328.419,1005.53 328.455,1002.7 328.492,999.866 328.529,997.037 328.566,994.208 328.603,991.381 328.641,988.554 328.678,985.728 328.717,982.903 328.755,980.078 328.794,977.255 328.833,974.432 328.873,971.61 328.913,968.788 328.953,965.968 328.993,963.148 329.033,960.328 329.073,957.51 329.113,954.692 329.153,951.874 329.192,949.057 329.231,946.241 329.27,943.425 329.309,940.61 329.348,937.796 329.387,934.982 329.426,932.17 329.466,929.358 329.506,926.546 329.547,923.736 329.588,920.927 329.629,918.118 329.671,915.31 329.713,912.503 329.756,909.697 329.799,906.892 329.843,904.087 329.886,901.284 329.929,898.481 329.973,895.678 330.016,892.877 330.059,890.076 330.101,887.275 330.143,884.475 330.184,881.676 330.226,878.877 330.267,876.08 330.309,873.283 330.351,870.486 330.394,867.691 330.437,864.897 330.48,862.103 330.524,859.311 330.568,856.519 330.613,853.728 330.659,850.939 330.705,848.15 330.751,845.362 330.798,842.575 330.845,839.788 330.892,837.003 330.94,834.218 330.987,831.435 331.034,828.651 331.08,825.869 331.126,823.087 331.171,820.306 331.216,817.525 331.261,814.745 331.306,811.966 331.351,809.188 331.397,806.411 331.443,803.635 331.489,800.859 331.536,798.085 331.584,795.312 331.632,792.54 331.68,789.768 331.73,786.998 331.779,784.229 331.83,781.46 331.88,778.693 331.932,775.927 331.983,773.161 332.035,770.397 332.086,767.633 332.138,764.87 332.189,762.108 332.24,759.347 332.29,756.586 332.34,753.826 332.389,751.067 332.439,748.309 332.488,745.552 332.538,742.795 332.588,740.04 332.638,737.285 332.689,734.532 332.74,731.78 332.792,729.028 332.845,726.278 332.898,723.529 332.952,720.781 333.006,718.035 333.061,715.289 333.117,712.544 333.173,709.801 333.229,707.058 333.286,704.317 333.343,701.576 333.4,698.837 333.457,696.098 333.513,693.361 333.57,690.624 333.625,687.888 333.68,685.152 333.735,682.418 333.79,679.685 333.845,676.953 333.901,674.221 333.956,671.491 334.012,668.762 334.069,666.034 334.126,663.308 334.184,660.582 334.242,657.858 334.301,655.135 334.361,652.413 334.422,649.692 334.482,646.973 334.544,644.255 334.606,641.538 334.669,638.822 334.732,636.107 334.795,633.394 334.858,630.681 334.922,627.97 334.986,625.26 335.049,622.551 335.112,619.842 335.175,617.135 335.237,614.429 335.299,611.724 335.362,609.02 335.424,606.317 335.487,603.616 335.55,600.915 335.614,598.216 335.678,595.518 335.743,592.822 335.808,590.127 335.874,587.433 335.941,584.74 336.008,582.049 336.076,579.36 336.145,576.671 336.214,573.984 336.284,571.299 336.354,568.614 336.425,565.931 336.497,563.25 336.569,560.57 336.641,557.891 336.713,555.213 336.786,552.537 336.858,549.862 336.931,547.188 337.003,544.515 337.075,541.844 337.147,539.173 337.219,536.505 337.291,533.837 337.364,531.171 337.437,528.507 337.511,525.843 337.585,523.182 337.66,520.522 337.736,517.863 337.812,515.206 337.889,512.55 337.966,509.896 338.045,507.244 338.124,504.593 338.204,501.944 338.284,499.296 338.366,496.65 338.448,494.006 338.53,491.363 338.613,488.722 338.697,486.082 338.781,483.444 338.866,480.807 338.951,478.172 339.036,475.539 339.121,472.907 339.206,470.277 339.292,467.648 339.377,465.021 339.463,462.395 339.549,459.771 339.636,457.149 339.723,454.529 339.811,451.91 339.9,449.293 339.989,446.678 340.079,444.064 340.17,441.453 340.261,438.843 340.353,436.235 340.447,433.629 340.541,431.025 340.636,428.423 340.731,425.823 340.828,423.224 340.926,420.628 341.024,418.034 341.123,415.441 341.223,412.851 341.324,410.262 341.425,407.676 341.528,405.091 341.631,402.508 341.734,399.928 341.838,397.349 341.943,394.773 342.048,392.198 342.153,389.626 342.26,387.056 342.366,384.488 342.474,381.921 342.582,379.358 342.691,376.796 342.802,374.237 342.913,371.679 343.024,369.125 343.137,366.572 343.251,364.022 343.366,361.474 343.482,358.928 343.6,356.385 343.718,353.844 343.837,351.306 343.958,348.77 344.08,346.237 344.202,343.706 344.327,341.178 344.452,338.652 344.578,336.129 344.706,333.609 344.835,331.091 344.965,328.576 345.097,326.063 345.229,323.554 345.363,321.047 345.498,318.543 345.635,316.041 345.772,313.543 345.911,311.047 346.051,308.555 346.193,306.065 346.335,303.578 346.48,301.095 346.626,298.614 346.773,296.137 346.922,293.663 347.073,291.192 347.225,288.724 347.379,286.26 347.535,283.799 347.692,281.341 347.851,278.886 348.012,276.435 348.175,273.988 348.339,271.544 348.506,269.104 348.674,266.667 348.845,264.234 349.017,261.805 349.192,259.379 349.369,256.958 349.548,254.54 349.729,252.126 349.912,249.717 350.098,247.311 350.287,244.91 350.478,242.513 350.672,240.12 350.868,237.732 351.067,235.349 351.269,232.969 351.474,230.595 351.682,228.225 351.893,225.861 352.107,223.501 352.325,221.146 352.547,218.797 352.778,216.456 353.018,214.123 353.266,211.797 353.521,209.478 353.782,207.165 354.049,204.86 354.321,202.56 354.598,200.267 354.879,197.979 355.164,195.697 355.452,193.421 355.744,191.151 356.039,188.886 356.336,186.627 356.637,184.374 356.94,182.126 357.246,179.884 357.554,177.648 357.866,175.419 358.181,173.196 358.499,170.979 358.821,168.77 359.148,166.567 359.478,164.373 359.814,162.186 360.155,160.008 360.502,157.838 360.856,155.678 361.218,153.528 361.588,151.388 361.967,149.259 362.356,147.141 362.756,145.036 363.168,142.944 363.593,140.866 364.032,138.801 364.486,136.752 364.957,134.719 365.446,132.703 365.954,130.705 366.482,128.725 367.033,126.765 367.607,124.825 368.206,122.907 368.832,121.012 369.487,119.14 370.172,117.293 370.889,115.473 371.64,113.679 372.428,111.914 373.252,110.178 374.117,108.474 375.024,106.802 375.975,105.163 376.973,103.559 378.019,101.992 379.117,100.463 380.276,98.9777 381.515,97.5477 382.832,96.1731 384.231,94.8559 385.716,93.6 387.299,92.4115 388.993,91.2989 390.817,90.2722 392.794,89.3442 394.949,88.5292 397.313,87.8441 399.921,87.3077 402.811,86.9407 406.025,86.7664 409.613,86.8106 413.707,87.1402 418.353,87.7818 423.613,88.7715 429.66,90.1976 436.774,92.2005 445.344,94.9731 455.868,98.7604 468.972,103.868 486.18,111.018 508.071,120.518 537.814,133.875 582.742,154.499 655.723,188.323 784.606,248.132 1072.55,380.681 1862.66,740.672 2960.62,1253.09 3062.14,1340.03 2971.86,1342.64 2874.75,1340.67 2780.53,1338.36 2689.61,1335.95 2601.91,1333.45 2517.29,1330.87 2435.65,1328.2 2356.85,1325.43 2280.77,1322.55 2207.34,1319.59 2136.41,1316.51 2067.89,1313.33 2001.69,1310.03 1937.71,1306.62 1875.85,1303.09 1816.04,1299.43 1758.16,1295.64 1702.16,1291.71 1647.93,1287.65 1595.42,1283.44 1544.53,1279.08 1495.2,1274.56 1447.35,1269.88 1400.92,1265.03 1355.84,1260.01 1312.05,1254.81 1269.47,1249.42 1228.06,1243.84 1187.76,1238.07 1148.51,1232.09 1110.27,1225.9 1072.97,1219.5 1036.58,1212.88 1001.06,1206.03 966.38,1198.97 932.5,1191.69 899.4,1184.19 867.062,1176.47 835.476,1168.56 804.638,1160.44 774.556,1152.15 745.249,1143.7 716.741,1135.12 689.068,1126.44 662.277,1117.69 636.416,1108.9 611.537,1100.12 587.695,1091.38 564.95,1082.74 543.363,1074.23 522.989,1065.9 503.862,1057.79 486.01,1049.92 469.449,1042.33 454.177,1035.04 440.18,1028.07 427.428,1021.41 415.877,1015.07 405.465,1009.05 396.111,1003.32 387.727,997.877 380.269,992.706 373.682,987.796 367.903,983.134 362.862,978.699 358.476,974.468 354.654,970.416 351.298,966.509 348.346,962.73 345.781,959.075 343.562,955.53 341.646,952.083 339.994,948.721 338.571,945.434 337.342,942.209 336.28,939.04 335.369,935.919 334.589,932.842 333.926,929.802 333.362,926.796 332.883,923.818 332.475,920.864 332.124,917.929 331.826,915.011 331.575,912.11 331.365,909.222 331.19,906.347 331.047,903.483 330.928,900.627 330.832,897.779 330.753,894.938 330.69,892.102 330.642,889.272 330.607,886.447 330.583,883.627 330.569,880.81 330.564,877.996 330.565,875.186 330.571,872.378 330.582,869.572 330.597,866.768 330.616,863.966 330.639,861.167 330.665,858.369 330.694,855.572 330.725,852.777 330.758,849.984 330.793,847.192 330.83,844.401 330.867,841.611 330.905,838.822 330.945,836.035 330.985,833.248 331.026,830.463 331.068,827.678 331.111,824.895 331.155,822.113 331.199,819.331 331.244,816.551 331.289,813.772 331.334,810.993 331.38,808.215 331.426,805.439 331.472,802.663 331.519,799.888 331.566,797.114 331.613,794.341 331.66,791.568 331.708,788.797 331.756,786.027 331.805,783.257 331.853,780.489 331.902,777.721 331.952,774.955 332.001,772.189 332.051,769.424 332.101,766.66 332.15,763.897 332.2,761.135 332.25,758.374 332.301,755.613 332.351,752.854 332.402,750.096 332.453,747.338 332.504,744.582 332.556,741.826 332.608,739.072 332.66,736.318 332.713,733.566 332.765,730.814 332.818,728.063 332.872,725.314 332.925,722.565 332.979,719.818 333.033,717.071 333.087,714.325 333.141,711.581 333.195,708.837 333.249,706.094 333.303,703.352 333.358,700.611 333.412,697.871 333.467,695.133 333.523,692.395 333.579,689.658 333.635,686.923 333.691,684.188 333.748,681.455 333.805,678.722 333.863,675.991 333.92,673.261 333.979,670.532 334.037,667.804 334.096,665.077 334.155,662.351 334.214,659.627 334.273,656.903 334.332,654.18 334.391,651.459 334.451,648.738 334.51,646.018 334.57,643.3 334.63,640.583 334.69,637.867 334.751,635.152 334.812,632.438 334.873,629.725 334.935,627.014 334.997,624.304 335.06,621.595 335.123,618.887 335.187,616.18 335.251,613.475 335.315,610.771 335.38,608.068 335.445,605.367 335.51,602.666 335.576,599.967 335.642,597.269 335.708,594.572 335.774,591.876 335.841,589.182 335.907,586.488 335.973,583.796 336.04,581.105 336.107,578.416 336.174,575.727 336.242,573.04 336.31,570.355 336.378,567.67 336.447,564.987 336.517,562.306 336.587,559.625 336.658,556.946 336.729,554.269 336.801,551.593 336.873,548.918 336.946,546.245 337.019,543.573 337.093,540.902 337.167,538.233 337.242,535.566 337.317,532.899 337.392,530.234 337.467,527.571 337.543,524.909 337.619,522.248 337.695,519.588 337.771,516.93 337.847,514.274 337.924,511.619 338.001,508.965 338.078,506.313 338.157,503.662 338.235,501.013 338.314,498.366 338.394,495.72 338.475,493.076 338.556,490.433 338.638,487.792 338.72,485.152 338.803,482.514 338.887,479.878 338.972,477.244 339.057,474.611 339.142,471.98 339.229,469.35 339.316,466.722 339.403,464.096 339.491,461.471 339.579,458.849 339.668,456.227 339.757,453.608 339.847,450.99 339.936,448.374 340.026,445.76 340.117,443.147 340.208,440.536 340.299,437.927 340.392,435.32 340.484,432.714 340.578,430.111 340.672,427.509 340.767,424.909 340.863,422.311 340.96,419.715 341.058,417.121 341.156,414.529 341.255,411.939 341.355,409.351 341.456,406.765 341.558,404.181 341.661,401.599 341.764,399.02 341.869,396.442 341.974,393.866 342.08,391.292 342.187,388.721 342.294,386.152 342.403,383.584 342.512,381.019 342.621,378.456 342.732,375.896 342.843,373.337 342.954,370.781 343.067,368.227 343.181,365.675 343.295,363.126 343.41,360.579 343.527,358.034 343.644,355.492 343.762,352.952 343.882,350.414 344.002,347.879 344.124,345.347 344.247,342.817 344.371,340.29 344.496,337.765 344.623,335.243 344.75,332.723 344.879,330.206 345.009,327.692 345.141,325.18 345.274,322.671 345.408,320.165 345.543,317.662 345.68,315.162 345.818,312.665 345.958,310.17 346.099,307.678 346.241,305.19 346.385,302.704 346.53,300.222 346.676,297.742 346.824,295.266 346.974,292.793 347.125,290.323 347.278,287.856 347.432,285.393 347.589,282.933 347.747,280.476 347.907,278.023 348.069,275.574 348.233,273.128 348.398,270.685 348.566,268.246 348.735,265.811 348.907,263.379 349.08,260.952 349.256,258.528 349.433,256.108 349.613,253.691 349.796,251.279 349.98,248.871 350.167,246.467 350.356,244.067 350.548,241.672 350.743,239.281 350.94,236.894 351.14,234.512 351.342,232.135 351.548,229.762 351.757,227.394 351.969,225.031 352.184,222.673 352.402,220.319 352.624,217.972 352.849,215.629 353.078,213.292 353.311,210.96 353.548,208.634 353.791,206.314 354.041,204.002 354.297,201.697 354.56,199.4 354.829,197.109 355.104,194.824 355.383,192.547 355.668,190.276 355.957,188.011 356.251,185.753 356.55,183.502 356.852,181.257 357.16,179.019 357.472,176.787 357.788,174.563 358.109,172.346 358.435,170.136 358.766,167.934 359.103,165.74 359.446,163.554 359.795,161.377 360.151,159.208 360.515,157.049 360.886,154.9 361.266,152.761 361.655,150.633 362.054,148.516 362.464,146.411 362.885,144.319 363.319,142.239 363.767,140.173 364.229,138.122 364.706,136.086 365.2,134.066 365.712,132.062 366.242,130.076 366.793,128.109 367.365,126.16 367.961,124.232 368.58,122.325 369.226,120.439 369.898,118.577 370.6,116.739 371.331,114.926 372.096,113.139 372.893,111.38 373.727,109.649 374.598,107.948 375.509,106.278 376.464,104.642 377.479,103.049 378.552,101.498 379.684,99.9914 380.876,98.5298 382.135,97.1167 383.466,95.7566 384.88,94.4552 386.389,93.2199 388.009,92.0592 389.756,90.9827 391.651,90.0019 393.716,89.1292 395.976,88.3784 398.459,87.7649 401.195,87.305 404.216,87.0167 407.711,86.9914 411.719,87.2508 416.134,87.7514 420.976,88.509 426.39,89.5987 432.644,91.1548 440.13,93.3709 449.364,96.5 460.986,100.854 475.761,106.805 494.707,114.844 520.076,126.045 555.757,142.249 610.528,167.532 703.074,210.481 880.603,292.673 1324.09,495.774 2446.62,1008.01 3070.42,1319.91 3024.9,1342.74 2928.22,1341.85 2832.24,1339.65 2739.51,1337.29 2650.04,1334.85 2563.74,1332.31 2480.46,1329.69 2400.09,1326.97 2322.54,1324.16 2247.65,1321.24 2175.34,1318.23 2105.51,1315.11 2038.03,1311.87 1972.84,1308.53 1909.81,1305.05 1848.88,1301.47 1789.94,1297.75 1732.91,1293.9 1677.72,1289.92 1624.26,1285.78 1572.49,1281.51 1522.3,1277.08 1473.64,1272.49 1426.44,1267.74 1380.62,1262.81 1336.12,1257.71 1292.88,1252.43 1250.83,1246.96 1209.91,1241.29 1170.09,1235.42 1131.3,1229.35 1093.49,1223.07 1056.6,1216.57 1020.61,1209.85 985.466,1202.91 951.145,1195.75 917.616,1188.36 884.858,1180.77 852.857,1172.96 821.606,1164.95 791.105,1156.76 761.367,1148.4 732.412,1139.89 704.271,1131.26 676.984,1122.53 650.6,1113.76 625.171,1104.97 600.753,1096.21 577.4,1087.51 555.167,1078.92 534.112,1070.49 514.289,1062.25 495.729,1054.24 478.45,1046.5 462.462,1039.04 447.759,1031.88 434.32,1025.05 422.111,1018.53 411.08,1012.34 401.163,1006.45 392.279,1000.87 384.341,995.553 377.292,990.506 371.072,985.708 365.615,981.144 360.85,976.795 356.699,972.638 353.08,968.648 349.906,964.799 347.135,961.078 344.731,957.474 342.653,953.974 340.862,950.568 339.319,947.241 337.99,943.984 336.842,940.786 335.851,937.64 335.002,934.539 334.276,931.48 333.659,928.456 333.135,925.463 332.688,922.496 332.307,919.55 331.981,916.623 331.706,913.714 331.474,910.819 331.28,907.937 331.121,905.067 330.989,902.207 330.881,899.355 330.793,896.51 330.722,893.671 330.667,890.839 330.625,888.011 330.595,885.188 330.575,882.369 330.565,879.553 330.563,876.741 330.566,873.932 330.575,871.125 330.588,868.32 330.605,865.517 330.626,862.716 330.65,859.917 330.677,857.12 330.707,854.325 330.739,851.53 330.774,848.738 330.809,845.946 330.846,843.156 330.884,840.366 330.923,837.578 330.963,834.791 331.003,832.005 331.045,829.22 331.087,826.436 331.13,823.653 331.174,820.871 331.219,818.09 331.264,815.31 331.309,812.531 331.355,809.753 331.401,806.976 331.447,804.2 331.493,801.424 331.54,798.649 331.587,795.876 331.634,793.103 331.682,790.331 331.729,787.56 331.778,784.79 331.826,782.021 331.875,779.253 331.924,776.486 331.974,773.72 332.023,770.955 332.073,768.19 332.123,765.427 332.173,762.664 332.223,759.902 332.273,757.142 332.323,754.382 332.374,751.623 332.425,748.865 332.476,746.108 332.527,743.352 332.579,740.597 332.631,737.843 332.683,735.09 332.736,732.337 332.789,729.586 332.842,726.836 332.895,724.087 332.949,721.339 333.003,718.592 333.057,715.845 333.111,713.1 333.165,710.356 333.219,707.612 333.273,704.87 333.327,702.129 333.382,699.388 333.437,696.649 333.492,693.911 333.548,691.173 333.604,688.437 333.66,685.702 333.716,682.968 333.773,680.235 333.831,677.503 333.888,674.773 333.946,672.043 334.005,669.314 334.063,666.587 334.122,663.86 334.181,661.135 334.24,658.411 334.299,655.688 334.359,652.965 334.418,650.244 334.477,647.524 334.537,644.805 334.597,642.087 334.657,639.37 334.717,636.655 334.778,633.94 334.839,631.227 334.901,628.515 334.963,625.804 335.025,623.094 335.088,620.386 335.151,617.679 335.215,614.973 335.279,612.268 335.344,609.564 335.409,606.862 335.474,604.161 335.54,601.461 335.606,598.762 335.672,596.065 335.738,593.369 335.804,590.674 335.87,587.98 335.937,585.287 336.003,582.595 336.07,579.905 336.137,577.216 336.205,574.528 336.272,571.842 336.341,569.157 336.409,566.473 336.479,563.79 336.548,561.109 336.619,558.43 336.689,555.751 336.761,553.074 336.833,550.399 336.905,547.725 336.978,545.052 337.052,542.381 337.126,539.711 337.2,537.042 337.275,534.375 337.35,531.71 337.426,529.045 337.501,526.382 337.577,523.721 337.653,521.061 337.729,518.402 337.805,515.745 337.881,513.089 337.958,510.434 338.036,507.781 338.113,505.13 338.192,502.48 338.271,499.832 338.35,497.185 338.43,494.539 338.511,491.896 338.592,489.254 338.674,486.613 338.757,483.975 338.84,481.338 338.925,478.702 339.009,476.068 339.095,473.436 339.181,470.806 339.267,468.177 339.354,465.55 339.442,462.924 339.53,460.301 339.619,457.678 339.708,455.058 339.797,452.439 339.887,449.822 339.977,447.207 340.067,444.593 340.158,441.981 340.249,439.371 340.341,436.763 340.433,434.157 340.526,431.552 340.62,428.949 340.715,426.348 340.81,423.749 340.907,421.152 341.004,418.557 341.101,415.964 341.2,413.373 341.3,410.784 341.4,408.197 341.501,405.612 341.604,403.029 341.707,400.448 341.811,397.869 341.915,395.292 342.021,392.717 342.127,390.144 342.234,387.574 342.342,385.006 342.451,382.439 342.56,379.875 342.671,377.313 342.781,374.753 342.893,372.196 343.005,369.641 343.118,367.088 343.232,364.537 343.346,361.989 343.462,359.443 343.579,356.899 343.697,354.358 343.816,351.819 343.936,349.283 344.057,346.749 344.179,344.217 344.302,341.689 344.427,339.162 344.553,336.639 344.679,334.118 344.808,331.599 344.937,329.084 345.068,326.571 345.2,324.06 345.333,321.553 345.468,319.048 345.604,316.546 345.741,314.047 345.88,311.551 346.02,309.058 346.162,306.567 346.305,304.08 346.449,301.596 346.595,299.115 346.742,296.636 346.891,294.161 347.041,291.69 347.193,289.221 347.347,286.756 347.502,284.294 347.659,281.836 347.818,279.381 347.979,276.93 348.142,274.482 348.306,272.037 348.473,269.596 348.641,267.159 348.812,264.725 348.984,262.295 349.158,259.869 349.335,257.447 349.514,255.029 349.695,252.614 349.878,250.204 350.063,247.798 350.251,245.396 350.442,242.998 350.635,240.604 350.83,238.215 351.029,235.831 351.23,233.451 351.434,231.075 351.641,228.704 351.851,226.339 352.064,223.978 352.281,221.622 352.501,219.271 352.724,216.925 352.951,214.585 353.182,212.25 353.416,209.921 353.655,207.597 353.897,205.279 354.144,202.967 354.395,200.661 354.65,198.362 354.91,196.068 355.174,193.781 355.443,191.5 355.718,189.226 355.997,186.959 356.282,184.699 356.572,182.446 356.868,180.201 357.171,177.963 357.479,175.733 357.794,173.512 358.116,171.298 358.445,169.093 358.781,166.897 "/>
<path clip-path="url(#clip000)" d="M2659.52 197.473 L3055.78 197.473 L3055.78 93.7926 L2659.52 93.7926  Z" fill="#ffffff" fill-rule="evenodd" fill-opacity="1"/>
<polyline clip-path="url(#clip000)" style="stroke:#000000; stroke-linecap:round; stroke-linejoin:round; stroke-width:4; stroke-opacity:1; fill:none" points="2659.52,197.473 3055.78,197.473 3055.78,93.7926 2659.52,93.7926 2659.52,197.473 "/>
<polyline clip-path="url(#clip000)" style="stroke:#009af9; stroke-linecap:round; stroke-linejoin:round; stroke-width:8; stroke-opacity:1; fill:none" points="2691.84,145.633 2885.79,145.633 "/>
<path clip-path="url(#clip000)" d="M2928.74 126.941 Q2925.64 132.265 2924.13 137.473 Q2922.63 142.681 2922.63 148.028 Q2922.63 153.376 2924.13 158.63 Q2925.66 163.862 2928.74 169.163 L2925.03 169.163 Q2921.56 163.723 2919.83 158.468 Q2918.11 153.214 2918.11 148.028 Q2918.11 142.866 2919.83 137.635 Q2921.54 132.404 2925.03 126.941 L2928.74 126.941 Z" fill="#000000" fill-rule="nonzero" fill-opacity="1" /><path clip-path="url(#clip000)" d="M2935.52 128.353 L2940.54 128.353 L2949.13 141.2 L2957.77 128.353 L2962.79 128.353 L2951.68 144.95 L2963.53 162.913 L2958.51 162.913 L2948.78 148.214 L2938.99 162.913 L2933.95 162.913 L2946.28 144.464 L2935.52 128.353 Z" fill="#000000" fill-rule="nonzero" fill-opacity="1" /><path clip-path="url(#clip000)" d="M2970.57 157.033 L2975.45 157.033 L2975.45 161.014 L2971.65 168.422 L2968.67 168.422 L2970.57 161.014 L2970.57 157.033 Z" fill="#000000" fill-rule="nonzero" fill-opacity="1" /><path clip-path="url(#clip000)" d="M2979.99 128.353 L2985.01 128.353 L2994.59 142.566 L3004.11 128.353 L3009.13 128.353 L2996.91 146.454 L2996.91 162.913 L2992.21 162.913 L2992.21 146.454 L2979.99 128.353 Z" fill="#000000" fill-rule="nonzero" fill-opacity="1" /><path clip-path="url(#clip000)" d="M3012.83 126.941 L3016.54 126.941 Q3020.01 132.404 3021.72 137.635 Q3023.46 142.866 3023.46 148.028 Q3023.46 153.214 3021.72 158.468 Q3020.01 163.723 3016.54 169.163 L3012.83 169.163 Q3015.91 163.862 3017.42 158.63 Q3018.95 153.376 3018.95 148.028 Q3018.95 142.681 3017.42 137.473 Q3015.91 132.265 3012.83 126.941 Z" fill="#000000" fill-rule="nonzero" fill-opacity="1" /></svg>
