<?xml version="1.0" encoding="utf-8"?>
<svg xmlns="http://www.w3.org/2000/svg" xmlns:xlink="http://www.w3.org/1999/xlink" width="800" height="400" viewBox="0 0 3200 1600">
<defs>
  <clipPath id="clip520">
    <rect x="0" y="0" width="3200" height="1600"/>
  </clipPath>
</defs>
<path clip-path="url(#clip520)" d="M0 1600 L3200 1600 L3200 0 L0 0  Z" fill="#ffffff" fill-rule="evenodd" fill-opacity="1"/>
<defs>
  <clipPath id="clip521">
    <rect x="224" y="47" width="2929" height="1397"/>
  </clipPath>
</defs>
<path clip-path="url(#clip520)" d="M224.922 1443.7 L3152.76 1443.7 L3152.76 47.2441 L224.922 47.2441  Z" fill="#ffffff" fill-rule="evenodd" fill-opacity="1"/>
<polyline clip-path="url(#clip521)" style="stroke:#000000; stroke-linecap:round; stroke-linejoin:round; stroke-width:2; stroke-opacity:0.1; fill:none" points="309.318,1443.7 309.318,47.2441 "/>
<polyline clip-path="url(#clip521)" style="stroke:#000000; stroke-linecap:round; stroke-linejoin:round; stroke-width:2; stroke-opacity:0.1; fill:none" points="1075.72,1443.7 1075.72,47.2441 "/>
<polyline clip-path="url(#clip521)" style="stroke:#000000; stroke-linecap:round; stroke-linejoin:round; stroke-width:2; stroke-opacity:0.1; fill:none" points="1842.12,1443.7 1842.12,47.2441 "/>
<polyline clip-path="url(#clip521)" style="stroke:#000000; stroke-linecap:round; stroke-linejoin:round; stroke-width:2; stroke-opacity:0.1; fill:none" points="2608.52,1443.7 2608.52,47.2441 "/>
<polyline clip-path="url(#clip521)" style="stroke:#000000; stroke-linecap:round; stroke-linejoin:round; stroke-width:2; stroke-opacity:0.1; fill:none" points="309.318,1443.7 309.318,47.2441 "/>
<polyline clip-path="url(#clip521)" style="stroke:#000000; stroke-linecap:round; stroke-linejoin:round; stroke-width:2; stroke-opacity:0.1; fill:none" points="1075.72,1443.7 1075.72,47.2441 "/>
<polyline clip-path="url(#clip521)" style="stroke:#000000; stroke-linecap:round; stroke-linejoin:round; stroke-width:2; stroke-opacity:0.1; fill:none" points="1842.12,1443.7 1842.12,47.2441 "/>
<polyline clip-path="url(#clip521)" style="stroke:#000000; stroke-linecap:round; stroke-linejoin:round; stroke-width:2; stroke-opacity:0.1; fill:none" points="2608.52,1443.7 2608.52,47.2441 "/>
<polyline clip-path="url(#clip521)" style="stroke:#000000; stroke-linecap:round; stroke-linejoin:round; stroke-width:2; stroke-opacity:0.1; fill:none" points="224.922,1443.7 3152.76,1443.7 "/>
<polyline clip-path="url(#clip521)" style="stroke:#000000; stroke-linecap:round; stroke-linejoin:round; stroke-width:2; stroke-opacity:0.1; fill:none" points="224.922,1101.43 3152.76,1101.43 "/>
<polyline clip-path="url(#clip521)" style="stroke:#000000; stroke-linecap:round; stroke-linejoin:round; stroke-width:2; stroke-opacity:0.1; fill:none" points="224.922,759.163 3152.76,759.163 "/>
<polyline clip-path="url(#clip521)" style="stroke:#000000; stroke-linecap:round; stroke-linejoin:round; stroke-width:2; stroke-opacity:0.1; fill:none" points="224.922,416.894 3152.76,416.894 "/>
<polyline clip-path="url(#clip521)" style="stroke:#000000; stroke-linecap:round; stroke-linejoin:round; stroke-width:2; stroke-opacity:0.1; fill:none" points="224.922,74.6256 3152.76,74.6256 "/>
<polyline clip-path="url(#clip521)" style="stroke:#000000; stroke-linecap:round; stroke-linejoin:round; stroke-width:2; stroke-opacity:0.1; fill:none" points="224.922,1443.7 3152.76,1443.7 "/>
<polyline clip-path="url(#clip521)" style="stroke:#000000; stroke-linecap:round; stroke-linejoin:round; stroke-width:2; stroke-opacity:0.1; fill:none" points="224.922,1101.43 3152.76,1101.43 "/>
<polyline clip-path="url(#clip521)" style="stroke:#000000; stroke-linecap:round; stroke-linejoin:round; stroke-width:2; stroke-opacity:0.1; fill:none" points="224.922,759.163 3152.76,759.163 "/>
<polyline clip-path="url(#clip521)" style="stroke:#000000; stroke-linecap:round; stroke-linejoin:round; stroke-width:2; stroke-opacity:0.1; fill:none" points="224.922,416.894 3152.76,416.894 "/>
<polyline clip-path="url(#clip521)" style="stroke:#000000; stroke-linecap:round; stroke-linejoin:round; stroke-width:2; stroke-opacity:0.1; fill:none" points="224.922,74.6256 3152.76,74.6256 "/>
<polyline clip-path="url(#clip520)" style="stroke:#000000; stroke-linecap:round; stroke-linejoin:round; stroke-width:4; stroke-opacity:1; fill:none" points="224.922,1443.7 3152.76,1443.7 "/>
<polyline clip-path="url(#clip520)" style="stroke:#000000; stroke-linecap:round; stroke-linejoin:round; stroke-width:4; stroke-opacity:1; fill:none" points="224.922,47.2441 3152.76,47.2441 "/>
<polyline clip-path="url(#clip520)" style="stroke:#000000; stroke-linecap:round; stroke-linejoin:round; stroke-width:4; stroke-opacity:1; fill:none" points="309.318,1443.7 309.318,1424.8 "/>
<polyline clip-path="url(#clip520)" style="stroke:#000000; stroke-linecap:round; stroke-linejoin:round; stroke-width:4; stroke-opacity:1; fill:none" points="1075.72,1443.7 1075.72,1424.8 "/>
<polyline clip-path="url(#clip520)" style="stroke:#000000; stroke-linecap:round; stroke-linejoin:round; stroke-width:4; stroke-opacity:1; fill:none" points="1842.12,1443.7 1842.12,1424.8 "/>
<polyline clip-path="url(#clip520)" style="stroke:#000000; stroke-linecap:round; stroke-linejoin:round; stroke-width:4; stroke-opacity:1; fill:none" points="2608.52,1443.7 2608.52,1424.8 "/>
<polyline clip-path="url(#clip520)" style="stroke:#000000; stroke-linecap:round; stroke-linejoin:round; stroke-width:4; stroke-opacity:1; fill:none" points="309.318,47.2441 309.318,66.1417 "/>
<polyline clip-path="url(#clip520)" style="stroke:#000000; stroke-linecap:round; stroke-linejoin:round; stroke-width:4; stroke-opacity:1; fill:none" points="1075.72,47.2441 1075.72,66.1417 "/>
<polyline clip-path="url(#clip520)" style="stroke:#000000; stroke-linecap:round; stroke-linejoin:round; stroke-width:4; stroke-opacity:1; fill:none" points="1842.12,47.2441 1842.12,66.1417 "/>
<polyline clip-path="url(#clip520)" style="stroke:#000000; stroke-linecap:round; stroke-linejoin:round; stroke-width:4; stroke-opacity:1; fill:none" points="2608.52,47.2441 2608.52,66.1417 "/>
<path clip-path="url(#clip520)" d="M309.318 1481.02 Q305.707 1481.02 303.878 1484.58 Q302.073 1488.12 302.073 1495.25 Q302.073 1502.36 303.878 1505.93 Q305.707 1509.47 309.318 1509.47 Q312.952 1509.47 314.758 1505.93 Q316.586 1502.36 316.586 1495.25 Q316.586 1488.12 314.758 1484.58 Q312.952 1481.02 309.318 1481.02 M309.318 1477.31 Q315.128 1477.31 318.184 1481.92 Q321.262 1486.5 321.262 1495.25 Q321.262 1503.98 318.184 1508.59 Q315.128 1513.17 309.318 1513.17 Q303.508 1513.17 300.429 1508.59 Q297.374 1503.98 297.374 1495.25 Q297.374 1486.5 300.429 1481.92 Q303.508 1477.31 309.318 1477.31 Z" fill="#000000" fill-rule="nonzero" fill-opacity="1" /><path clip-path="url(#clip520)" d="M1035.34 1477.94 L1053.69 1477.94 L1053.69 1481.88 L1039.62 1481.88 L1039.62 1490.35 Q1040.64 1490 1041.66 1489.84 Q1042.67 1489.65 1043.69 1489.65 Q1049.48 1489.65 1052.86 1492.82 Q1056.24 1496 1056.24 1501.41 Q1056.24 1506.99 1052.77 1510.09 Q1049.3 1513.17 1042.98 1513.17 Q1040.8 1513.17 1038.53 1512.8 Q1036.29 1512.43 1033.88 1511.69 L1033.88 1506.99 Q1035.96 1508.12 1038.18 1508.68 Q1040.41 1509.24 1042.88 1509.24 Q1046.89 1509.24 1049.23 1507.13 Q1051.56 1505.02 1051.56 1501.41 Q1051.56 1497.8 1049.23 1495.69 Q1046.89 1493.59 1042.88 1493.59 Q1041.01 1493.59 1039.13 1494 Q1037.28 1494.42 1035.34 1495.3 L1035.34 1477.94 Z" fill="#000000" fill-rule="nonzero" fill-opacity="1" /><path clip-path="url(#clip520)" d="M1075.45 1481.02 Q1071.84 1481.02 1070.01 1484.58 Q1068.21 1488.12 1068.21 1495.25 Q1068.21 1502.36 1070.01 1505.93 Q1071.84 1509.47 1075.45 1509.47 Q1079.09 1509.47 1080.89 1505.93 Q1082.72 1502.36 1082.72 1495.25 Q1082.72 1488.12 1080.89 1484.58 Q1079.09 1481.02 1075.45 1481.02 M1075.45 1477.31 Q1081.26 1477.31 1084.32 1481.92 Q1087.4 1486.5 1087.4 1495.25 Q1087.4 1503.98 1084.32 1508.59 Q1081.26 1513.17 1075.45 1513.17 Q1069.64 1513.17 1066.56 1508.59 Q1063.51 1503.98 1063.51 1495.25 Q1063.51 1486.5 1066.56 1481.92 Q1069.64 1477.31 1075.45 1477.31 Z" fill="#000000" fill-rule="nonzero" fill-opacity="1" /><path clip-path="url(#clip520)" d="M1105.61 1481.02 Q1102 1481.02 1100.17 1484.58 Q1098.37 1488.12 1098.37 1495.25 Q1098.37 1502.36 1100.17 1505.93 Q1102 1509.47 1105.61 1509.47 Q1109.25 1509.47 1111.05 1505.93 Q1112.88 1502.36 1112.88 1495.25 Q1112.88 1488.12 1111.05 1484.58 Q1109.25 1481.02 1105.61 1481.02 M1105.61 1477.31 Q1111.42 1477.31 1114.48 1481.92 Q1117.56 1486.5 1117.56 1495.25 Q1117.56 1503.98 1114.48 1508.59 Q1111.42 1513.17 1105.61 1513.17 Q1099.8 1513.17 1096.73 1508.59 Q1093.67 1503.98 1093.67 1495.25 Q1093.67 1486.5 1096.73 1481.92 Q1099.8 1477.31 1105.61 1477.31 Z" fill="#000000" fill-rule="nonzero" fill-opacity="1" /><path clip-path="url(#clip520)" d="M1786.64 1508.56 L1794.28 1508.56 L1794.28 1482.2 L1785.97 1483.87 L1785.97 1479.61 L1794.24 1477.94 L1798.91 1477.94 L1798.91 1508.56 L1806.55 1508.56 L1806.55 1512.5 L1786.64 1512.5 L1786.64 1508.56 Z" fill="#000000" fill-rule="nonzero" fill-opacity="1" /><path clip-path="url(#clip520)" d="M1826 1481.02 Q1822.39 1481.02 1820.56 1484.58 Q1818.75 1488.12 1818.75 1495.25 Q1818.75 1502.36 1820.56 1505.93 Q1822.39 1509.47 1826 1509.47 Q1829.63 1509.47 1831.44 1505.93 Q1833.26 1502.36 1833.26 1495.25 Q1833.26 1488.12 1831.44 1484.58 Q1829.63 1481.02 1826 1481.02 M1826 1477.31 Q1831.81 1477.31 1834.86 1481.92 Q1837.94 1486.5 1837.94 1495.25 Q1837.94 1503.98 1834.86 1508.59 Q1831.81 1513.17 1826 1513.17 Q1820.19 1513.17 1817.11 1508.59 Q1814.05 1503.98 1814.05 1495.25 Q1814.05 1486.5 1817.11 1481.92 Q1820.19 1477.31 1826 1477.31 Z" fill="#000000" fill-rule="nonzero" fill-opacity="1" /><path clip-path="url(#clip520)" d="M1856.16 1481.02 Q1852.55 1481.02 1850.72 1484.58 Q1848.91 1488.12 1848.91 1495.25 Q1848.91 1502.36 1850.72 1505.93 Q1852.55 1509.47 1856.16 1509.47 Q1859.79 1509.47 1861.6 1505.93 Q1863.43 1502.36 1863.43 1495.25 Q1863.43 1488.12 1861.6 1484.58 Q1859.79 1481.02 1856.16 1481.02 M1856.16 1477.31 Q1861.97 1477.31 1865.02 1481.92 Q1868.1 1486.5 1868.1 1495.25 Q1868.1 1503.98 1865.02 1508.59 Q1861.97 1513.17 1856.16 1513.17 Q1850.35 1513.17 1847.27 1508.59 Q1844.21 1503.98 1844.21 1495.25 Q1844.21 1486.5 1847.27 1481.92 Q1850.35 1477.31 1856.16 1477.31 Z" fill="#000000" fill-rule="nonzero" fill-opacity="1" /><path clip-path="url(#clip520)" d="M1886.32 1481.02 Q1882.71 1481.02 1880.88 1484.58 Q1879.07 1488.12 1879.07 1495.25 Q1879.07 1502.36 1880.88 1505.93 Q1882.71 1509.47 1886.32 1509.47 Q1889.95 1509.47 1891.76 1505.93 Q1893.59 1502.36 1893.59 1495.25 Q1893.59 1488.12 1891.76 1484.58 Q1889.95 1481.02 1886.32 1481.02 M1886.32 1477.31 Q1892.13 1477.31 1895.19 1481.92 Q1898.26 1486.5 1898.26 1495.25 Q1898.26 1503.98 1895.19 1508.59 Q1892.13 1513.17 1886.32 1513.17 Q1880.51 1513.17 1877.43 1508.59 Q1874.38 1503.98 1874.38 1495.25 Q1874.38 1486.5 1877.43 1481.92 Q1880.51 1477.31 1886.32 1477.31 Z" fill="#000000" fill-rule="nonzero" fill-opacity="1" /><path clip-path="url(#clip520)" d="M2553.05 1508.56 L2560.68 1508.56 L2560.68 1482.2 L2552.37 1483.87 L2552.37 1479.61 L2560.64 1477.94 L2565.31 1477.94 L2565.31 1508.56 L2572.95 1508.56 L2572.95 1512.5 L2553.05 1512.5 L2553.05 1508.56 Z" fill="#000000" fill-rule="nonzero" fill-opacity="1" /><path clip-path="url(#clip520)" d="M2582.44 1477.94 L2600.8 1477.94 L2600.8 1481.88 L2586.73 1481.88 L2586.73 1490.35 Q2587.74 1490 2588.76 1489.84 Q2589.78 1489.65 2590.8 1489.65 Q2596.59 1489.65 2599.97 1492.82 Q2603.35 1496 2603.35 1501.41 Q2603.35 1506.99 2599.87 1510.09 Q2596.4 1513.17 2590.08 1513.17 Q2587.91 1513.17 2585.64 1512.8 Q2583.39 1512.43 2580.98 1511.69 L2580.98 1506.99 Q2583.07 1508.12 2585.29 1508.68 Q2587.51 1509.24 2589.99 1509.24 Q2593.99 1509.24 2596.33 1507.13 Q2598.67 1505.02 2598.67 1501.41 Q2598.67 1497.8 2596.33 1495.69 Q2593.99 1493.59 2589.99 1493.59 Q2588.11 1493.59 2586.24 1494 Q2584.39 1494.42 2582.44 1495.3 L2582.44 1477.94 Z" fill="#000000" fill-rule="nonzero" fill-opacity="1" /><path clip-path="url(#clip520)" d="M2622.56 1481.02 Q2618.95 1481.02 2617.12 1484.58 Q2615.31 1488.12 2615.31 1495.25 Q2615.31 1502.36 2617.12 1505.93 Q2618.95 1509.47 2622.56 1509.47 Q2626.19 1509.47 2628 1505.93 Q2629.83 1502.36 2629.83 1495.25 Q2629.83 1488.12 2628 1484.58 Q2626.19 1481.02 2622.56 1481.02 M2622.56 1477.31 Q2628.37 1477.31 2631.42 1481.92 Q2634.5 1486.5 2634.5 1495.25 Q2634.5 1503.98 2631.42 1508.59 Q2628.37 1513.17 2622.56 1513.17 Q2616.75 1513.17 2613.67 1508.59 Q2610.61 1503.98 2610.61 1495.25 Q2610.61 1486.5 2613.67 1481.92 Q2616.75 1477.31 2622.56 1477.31 Z" fill="#000000" fill-rule="nonzero" fill-opacity="1" /><path clip-path="url(#clip520)" d="M2652.72 1481.02 Q2649.11 1481.02 2647.28 1484.58 Q2645.48 1488.12 2645.48 1495.25 Q2645.48 1502.36 2647.28 1505.93 Q2649.11 1509.47 2652.72 1509.47 Q2656.35 1509.47 2658.16 1505.93 Q2659.99 1502.36 2659.99 1495.25 Q2659.99 1488.12 2658.16 1484.58 Q2656.35 1481.02 2652.72 1481.02 M2652.72 1477.31 Q2658.53 1477.31 2661.59 1481.92 Q2664.67 1486.5 2664.67 1495.25 Q2664.67 1503.98 2661.59 1508.59 Q2658.53 1513.17 2652.72 1513.17 Q2646.91 1513.17 2643.83 1508.59 Q2640.78 1503.98 2640.78 1495.25 Q2640.78 1486.5 2643.83 1481.92 Q2646.91 1477.31 2652.72 1477.31 Z" fill="#000000" fill-rule="nonzero" fill-opacity="1" /><path clip-path="url(#clip520)" d="M1465.43 1559.38 L1456.71 1583.03 L1474.19 1583.03 L1465.43 1559.38 M1461.81 1553.04 L1469.09 1553.04 L1487.21 1600.56 L1480.52 1600.56 L1476.19 1588.37 L1454.77 1588.37 L1450.44 1600.56 L1443.66 1600.56 L1461.81 1553.04 Z" fill="#000000" fill-rule="nonzero" fill-opacity="1" /><path clip-path="url(#clip520)" d="M1518.4 1566.28 L1518.4 1571.76 Q1515.91 1570.39 1513.4 1569.72 Q1510.92 1569.02 1508.37 1569.02 Q1502.67 1569.02 1499.52 1572.65 Q1496.37 1576.25 1496.37 1582.77 Q1496.37 1589.3 1499.52 1592.92 Q1502.67 1596.52 1508.37 1596.52 Q1510.92 1596.52 1513.4 1595.85 Q1515.91 1595.15 1518.4 1593.78 L1518.4 1599.2 Q1515.95 1600.34 1513.3 1600.91 Q1510.69 1601.49 1507.73 1601.49 Q1499.68 1601.49 1494.94 1596.43 Q1490.2 1591.37 1490.2 1582.77 Q1490.2 1574.05 1494.97 1569.05 Q1499.78 1564.06 1508.12 1564.06 Q1510.82 1564.06 1513.4 1564.63 Q1515.98 1565.17 1518.4 1566.28 Z" fill="#000000" fill-rule="nonzero" fill-opacity="1" /><path clip-path="url(#clip520)" d="M1534.38 1554.79 L1534.38 1564.92 L1546.44 1564.92 L1546.44 1569.47 L1534.38 1569.47 L1534.38 1588.82 Q1534.38 1593.18 1535.55 1594.42 Q1536.76 1595.66 1540.42 1595.66 L1546.44 1595.66 L1546.44 1600.56 L1540.42 1600.56 Q1533.64 1600.56 1531.06 1598.05 Q1528.49 1595.5 1528.49 1588.82 L1528.49 1569.47 L1524.19 1569.47 L1524.19 1564.92 L1528.49 1564.92 L1528.49 1554.79 L1534.38 1554.79 Z" fill="#000000" fill-rule="nonzero" fill-opacity="1" /><path clip-path="url(#clip520)" d="M1554.14 1564.92 L1560 1564.92 L1560 1600.56 L1554.14 1600.56 L1554.14 1564.92 M1554.14 1551.04 L1560 1551.04 L1560 1558.45 L1554.14 1558.45 L1554.14 1551.04 Z" fill="#000000" fill-rule="nonzero" fill-opacity="1" /><path clip-path="url(#clip520)" d="M1568.05 1564.92 L1574.26 1564.92 L1585.4 1594.83 L1596.54 1564.92 L1602.74 1564.92 L1589.37 1600.56 L1581.42 1600.56 L1568.05 1564.92 Z" fill="#000000" fill-rule="nonzero" fill-opacity="1" /><path clip-path="url(#clip520)" d="M1627.03 1582.64 Q1619.93 1582.64 1617.19 1584.27 Q1614.46 1585.89 1614.46 1589.81 Q1614.46 1592.92 1616.49 1594.77 Q1618.56 1596.59 1622.09 1596.59 Q1626.96 1596.59 1629.89 1593.15 Q1632.85 1589.68 1632.85 1583.95 L1632.85 1582.64 L1627.03 1582.64 M1638.71 1580.23 L1638.71 1600.56 L1632.85 1600.56 L1632.85 1595.15 Q1630.85 1598.4 1627.86 1599.96 Q1624.86 1601.49 1620.53 1601.49 Q1615.06 1601.49 1611.81 1598.43 Q1608.6 1595.34 1608.6 1590.19 Q1608.6 1584.17 1612.61 1581.12 Q1616.65 1578.06 1624.64 1578.06 L1632.85 1578.06 L1632.85 1577.49 Q1632.85 1573.45 1630.18 1571.25 Q1627.54 1569.02 1622.73 1569.02 Q1619.68 1569.02 1616.78 1569.75 Q1613.88 1570.49 1611.21 1571.95 L1611.21 1566.54 Q1614.42 1565.3 1617.45 1564.69 Q1620.47 1564.06 1623.34 1564.06 Q1631.07 1564.06 1634.89 1568.07 Q1638.71 1572.08 1638.71 1580.23 Z" fill="#000000" fill-rule="nonzero" fill-opacity="1" /><path clip-path="url(#clip520)" d="M1656.56 1554.79 L1656.56 1564.92 L1668.63 1564.92 L1668.63 1569.47 L1656.56 1569.47 L1656.56 1588.82 Q1656.56 1593.18 1657.74 1594.42 Q1658.95 1595.66 1662.61 1595.66 L1668.63 1595.66 L1668.63 1600.56 L1662.61 1600.56 Q1655.83 1600.56 1653.25 1598.05 Q1650.68 1595.5 1650.68 1588.82 L1650.68 1569.47 L1646.38 1569.47 L1646.38 1564.92 L1650.68 1564.92 L1650.68 1554.79 L1656.56 1554.79 Z" fill="#000000" fill-rule="nonzero" fill-opacity="1" /><path clip-path="url(#clip520)" d="M1676.33 1564.92 L1682.19 1564.92 L1682.19 1600.56 L1676.33 1600.56 L1676.33 1564.92 M1676.33 1551.04 L1682.19 1551.04 L1682.19 1558.45 L1676.33 1558.45 L1676.33 1551.04 Z" fill="#000000" fill-rule="nonzero" fill-opacity="1" /><path clip-path="url(#clip520)" d="M1708.25 1569.02 Q1703.54 1569.02 1700.81 1572.71 Q1698.07 1576.37 1698.07 1582.77 Q1698.07 1589.17 1700.77 1592.86 Q1703.51 1596.52 1708.25 1596.52 Q1712.93 1596.52 1715.67 1592.83 Q1718.41 1589.14 1718.41 1582.77 Q1718.41 1576.44 1715.67 1572.75 Q1712.93 1569.02 1708.25 1569.02 M1708.25 1564.06 Q1715.89 1564.06 1720.25 1569.02 Q1724.61 1573.99 1724.61 1582.77 Q1724.61 1591.52 1720.25 1596.52 Q1715.89 1601.49 1708.25 1601.49 Q1700.58 1601.49 1696.22 1596.52 Q1691.89 1591.52 1691.89 1582.77 Q1691.89 1573.99 1696.22 1569.02 Q1700.58 1564.06 1708.25 1564.06 Z" fill="#000000" fill-rule="nonzero" fill-opacity="1" /><path clip-path="url(#clip520)" d="M1763.95 1579.05 L1763.95 1600.56 L1758.1 1600.56 L1758.1 1579.24 Q1758.1 1574.18 1756.12 1571.66 Q1754.15 1569.15 1750.2 1569.15 Q1745.46 1569.15 1742.72 1572.17 Q1739.99 1575.2 1739.99 1580.42 L1739.99 1600.56 L1734.1 1600.56 L1734.1 1564.92 L1739.99 1564.92 L1739.99 1570.45 Q1742.09 1567.24 1744.92 1565.65 Q1747.79 1564.06 1751.51 1564.06 Q1757.65 1564.06 1760.8 1567.88 Q1763.95 1571.66 1763.95 1579.05 Z" fill="#000000" fill-rule="nonzero" fill-opacity="1" /><path clip-path="url(#clip520)" d="M1802.15 1554.79 L1802.15 1564.92 L1814.21 1564.92 L1814.21 1569.47 L1802.15 1569.47 L1802.15 1588.82 Q1802.15 1593.18 1803.33 1594.42 Q1804.54 1595.66 1808.2 1595.66 L1814.21 1595.66 L1814.21 1600.56 L1808.2 1600.56 Q1801.42 1600.56 1798.84 1598.05 Q1796.26 1595.5 1796.26 1588.82 L1796.26 1569.47 L1791.96 1569.47 L1791.96 1564.92 L1796.26 1564.92 L1796.26 1554.79 L1802.15 1554.79 Z" fill="#000000" fill-rule="nonzero" fill-opacity="1" /><path clip-path="url(#clip520)" d="M1821.91 1564.92 L1827.77 1564.92 L1827.77 1600.56 L1821.91 1600.56 L1821.91 1564.92 M1821.91 1551.04 L1827.77 1551.04 L1827.77 1558.45 L1821.91 1558.45 L1821.91 1551.04 Z" fill="#000000" fill-rule="nonzero" fill-opacity="1" /><path clip-path="url(#clip520)" d="M1867.78 1571.76 Q1869.98 1567.81 1873.03 1565.93 Q1876.09 1564.06 1880.22 1564.06 Q1885.79 1564.06 1888.82 1567.97 Q1891.84 1571.85 1891.84 1579.05 L1891.84 1600.56 L1885.95 1600.56 L1885.95 1579.24 Q1885.95 1574.11 1884.14 1571.63 Q1882.32 1569.15 1878.6 1569.15 Q1874.05 1569.15 1871.41 1572.17 Q1868.77 1575.2 1868.77 1580.42 L1868.77 1600.56 L1862.88 1600.56 L1862.88 1579.24 Q1862.88 1574.08 1861.06 1571.63 Q1859.25 1569.15 1855.46 1569.15 Q1850.97 1569.15 1848.33 1572.2 Q1845.69 1575.23 1845.69 1580.42 L1845.69 1600.56 L1839.8 1600.56 L1839.8 1564.92 L1845.69 1564.92 L1845.69 1570.45 Q1847.7 1567.18 1850.5 1565.62 Q1853.3 1564.06 1857.15 1564.06 Q1861.03 1564.06 1863.74 1566.03 Q1866.47 1568 1867.78 1571.76 Z" fill="#000000" fill-rule="nonzero" fill-opacity="1" /><path clip-path="url(#clip520)" d="M1934.01 1581.28 L1934.01 1584.14 L1907.09 1584.14 Q1907.47 1590.19 1910.72 1593.37 Q1913.99 1596.52 1919.82 1596.52 Q1923.19 1596.52 1926.34 1595.69 Q1929.53 1594.87 1932.65 1593.21 L1932.65 1598.75 Q1929.49 1600.09 1926.18 1600.79 Q1922.87 1601.49 1919.47 1601.49 Q1910.94 1601.49 1905.94 1596.52 Q1900.98 1591.56 1900.98 1583.09 Q1900.98 1574.34 1905.69 1569.21 Q1910.43 1564.06 1918.45 1564.06 Q1925.64 1564.06 1929.81 1568.7 Q1934.01 1573.32 1934.01 1581.28 M1928.16 1579.56 Q1928.09 1574.75 1925.45 1571.89 Q1922.84 1569.02 1918.51 1569.02 Q1913.61 1569.02 1910.65 1571.79 Q1907.72 1574.56 1907.28 1579.59 L1928.16 1579.56 Z" fill="#000000" fill-rule="nonzero" fill-opacity="1" /><polyline clip-path="url(#clip520)" style="stroke:#000000; stroke-linecap:round; stroke-linejoin:round; stroke-width:4; stroke-opacity:1; fill:none" points="224.922,1443.7 224.922,47.2441 "/>
<polyline clip-path="url(#clip520)" style="stroke:#000000; stroke-linecap:round; stroke-linejoin:round; stroke-width:4; stroke-opacity:1; fill:none" points="3152.76,1443.7 3152.76,47.2441 "/>
<polyline clip-path="url(#clip520)" style="stroke:#000000; stroke-linecap:round; stroke-linejoin:round; stroke-width:4; stroke-opacity:1; fill:none" points="224.922,1443.7 243.82,1443.7 "/>
<polyline clip-path="url(#clip520)" style="stroke:#000000; stroke-linecap:round; stroke-linejoin:round; stroke-width:4; stroke-opacity:1; fill:none" points="224.922,1101.43 243.82,1101.43 "/>
<polyline clip-path="url(#clip520)" style="stroke:#000000; stroke-linecap:round; stroke-linejoin:round; stroke-width:4; stroke-opacity:1; fill:none" points="224.922,759.163 243.82,759.163 "/>
<polyline clip-path="url(#clip520)" style="stroke:#000000; stroke-linecap:round; stroke-linejoin:round; stroke-width:4; stroke-opacity:1; fill:none" points="224.922,416.894 243.82,416.894 "/>
<polyline clip-path="url(#clip520)" style="stroke:#000000; stroke-linecap:round; stroke-linejoin:round; stroke-width:4; stroke-opacity:1; fill:none" points="224.922,74.6256 243.82,74.6256 "/>
<polyline clip-path="url(#clip520)" style="stroke:#000000; stroke-linecap:round; stroke-linejoin:round; stroke-width:4; stroke-opacity:1; fill:none" points="3152.76,1443.7 3133.86,1443.7 "/>
<polyline clip-path="url(#clip520)" style="stroke:#000000; stroke-linecap:round; stroke-linejoin:round; stroke-width:4; stroke-opacity:1; fill:none" points="3152.76,1101.43 3133.86,1101.43 "/>
<polyline clip-path="url(#clip520)" style="stroke:#000000; stroke-linecap:round; stroke-linejoin:round; stroke-width:4; stroke-opacity:1; fill:none" points="3152.76,759.163 3133.86,759.163 "/>
<polyline clip-path="url(#clip520)" style="stroke:#000000; stroke-linecap:round; stroke-linejoin:round; stroke-width:4; stroke-opacity:1; fill:none" points="3152.76,416.894 3133.86,416.894 "/>
<polyline clip-path="url(#clip520)" style="stroke:#000000; stroke-linecap:round; stroke-linejoin:round; stroke-width:4; stroke-opacity:1; fill:none" points="3152.76,74.6256 3133.86,74.6256 "/>
<path clip-path="url(#clip520)" d="M59.4226 1429.5 Q55.8115 1429.5 53.9828 1433.06 Q52.1773 1436.6 52.1773 1443.73 Q52.1773 1450.84 53.9828 1454.41 Q55.8115 1457.95 59.4226 1457.95 Q63.0569 1457.95 64.8624 1454.41 Q66.6911 1450.84 66.6911 1443.73 Q66.6911 1436.6 64.8624 1433.06 Q63.0569 1429.5 59.4226 1429.5 M59.4226 1425.79 Q65.2328 1425.79 68.2883 1430.4 Q71.367 1434.98 71.367 1443.73 Q71.367 1452.46 68.2883 1457.07 Q65.2328 1461.65 59.4226 1461.65 Q53.6125 1461.65 50.5338 1457.07 Q47.4782 1452.46 47.4782 1443.73 Q47.4782 1434.98 50.5338 1430.4 Q53.6125 1425.79 59.4226 1425.79 Z" fill="#000000" fill-rule="nonzero" fill-opacity="1" /><path clip-path="url(#clip520)" d="M79.5845 1455.1 L84.4688 1455.1 L84.4688 1460.98 L79.5845 1460.98 L79.5845 1455.1 Z" fill="#000000" fill-rule="nonzero" fill-opacity="1" /><path clip-path="url(#clip520)" d="M104.654 1429.5 Q101.043 1429.5 99.2141 1433.06 Q97.4085 1436.6 97.4085 1443.73 Q97.4085 1450.84 99.2141 1454.41 Q101.043 1457.95 104.654 1457.95 Q108.288 1457.95 110.094 1454.41 Q111.922 1450.84 111.922 1443.73 Q111.922 1436.6 110.094 1433.06 Q108.288 1429.5 104.654 1429.5 M104.654 1425.79 Q110.464 1425.79 113.52 1430.4 Q116.598 1434.98 116.598 1443.73 Q116.598 1452.46 113.52 1457.07 Q110.464 1461.65 104.654 1461.65 Q98.8437 1461.65 95.765 1457.07 Q92.7095 1452.46 92.7095 1443.73 Q92.7095 1434.98 95.765 1430.4 Q98.8437 1425.79 104.654 1425.79 Z" fill="#000000" fill-rule="nonzero" fill-opacity="1" /><path clip-path="url(#clip520)" d="M134.816 1429.5 Q131.205 1429.5 129.376 1433.06 Q127.57 1436.6 127.57 1443.73 Q127.57 1450.84 129.376 1454.41 Q131.205 1457.95 134.816 1457.95 Q138.45 1457.95 140.256 1454.41 Q142.084 1450.84 142.084 1443.73 Q142.084 1436.6 140.256 1433.06 Q138.45 1429.5 134.816 1429.5 M134.816 1425.79 Q140.626 1425.79 143.681 1430.4 Q146.76 1434.98 146.76 1443.73 Q146.76 1452.46 143.681 1457.07 Q140.626 1461.65 134.816 1461.65 Q129.006 1461.65 125.927 1457.07 Q122.871 1452.46 122.871 1443.73 Q122.871 1434.98 125.927 1430.4 Q129.006 1425.79 134.816 1425.79 Z" fill="#000000" fill-rule="nonzero" fill-opacity="1" /><path clip-path="url(#clip520)" d="M164.978 1429.5 Q161.367 1429.5 159.538 1433.06 Q157.732 1436.6 157.732 1443.73 Q157.732 1450.84 159.538 1454.41 Q161.367 1457.95 164.978 1457.95 Q168.612 1457.95 170.417 1454.41 Q172.246 1450.84 172.246 1443.73 Q172.246 1436.6 170.417 1433.06 Q168.612 1429.5 164.978 1429.5 M164.978 1425.79 Q170.788 1425.79 173.843 1430.4 Q176.922 1434.98 176.922 1443.73 Q176.922 1452.46 173.843 1457.07 Q170.788 1461.65 164.978 1461.65 Q159.167 1461.65 156.089 1457.07 Q153.033 1452.46 153.033 1443.73 Q153.033 1434.98 156.089 1430.4 Q159.167 1425.79 164.978 1425.79 Z" fill="#000000" fill-rule="nonzero" fill-opacity="1" /><path clip-path="url(#clip520)" d="M60.6495 1087.23 Q57.0384 1087.23 55.2097 1090.79 Q53.4041 1094.34 53.4041 1101.47 Q53.4041 1108.57 55.2097 1112.14 Q57.0384 1115.68 60.6495 1115.68 Q64.2837 1115.68 66.0892 1112.14 Q67.9179 1108.57 67.9179 1101.47 Q67.9179 1094.34 66.0892 1090.79 Q64.2837 1087.23 60.6495 1087.23 M60.6495 1083.53 Q66.4596 1083.53 69.5152 1088.13 Q72.5938 1092.72 72.5938 1101.47 Q72.5938 1110.19 69.5152 1114.8 Q66.4596 1119.38 60.6495 1119.38 Q54.8393 1119.38 51.7606 1114.8 Q48.7051 1110.19 48.7051 1101.47 Q48.7051 1092.72 51.7606 1088.13 Q54.8393 1083.53 60.6495 1083.53 Z" fill="#000000" fill-rule="nonzero" fill-opacity="1" /><path clip-path="url(#clip520)" d="M80.8114 1112.83 L85.6956 1112.83 L85.6956 1118.71 L80.8114 1118.71 L80.8114 1112.83 Z" fill="#000000" fill-rule="nonzero" fill-opacity="1" /><path clip-path="url(#clip520)" d="M105.881 1087.23 Q102.27 1087.23 100.441 1090.79 Q98.6354 1094.34 98.6354 1101.47 Q98.6354 1108.57 100.441 1112.14 Q102.27 1115.68 105.881 1115.68 Q109.515 1115.68 111.32 1112.14 Q113.149 1108.57 113.149 1101.47 Q113.149 1094.34 111.32 1090.79 Q109.515 1087.23 105.881 1087.23 M105.881 1083.53 Q111.691 1083.53 114.746 1088.13 Q117.825 1092.72 117.825 1101.47 Q117.825 1110.19 114.746 1114.8 Q111.691 1119.38 105.881 1119.38 Q100.071 1119.38 96.9919 1114.8 Q93.9363 1110.19 93.9363 1101.47 Q93.9363 1092.72 96.9919 1088.13 Q100.071 1083.53 105.881 1083.53 Z" fill="#000000" fill-rule="nonzero" fill-opacity="1" /><path clip-path="url(#clip520)" d="M136.043 1087.23 Q132.431 1087.23 130.603 1090.79 Q128.797 1094.34 128.797 1101.47 Q128.797 1108.57 130.603 1112.14 Q132.431 1115.68 136.043 1115.68 Q139.677 1115.68 141.482 1112.14 Q143.311 1108.57 143.311 1101.47 Q143.311 1094.34 141.482 1090.79 Q139.677 1087.23 136.043 1087.23 M136.043 1083.53 Q141.853 1083.53 144.908 1088.13 Q147.987 1092.72 147.987 1101.47 Q147.987 1110.19 144.908 1114.8 Q141.853 1119.38 136.043 1119.38 Q130.232 1119.38 127.154 1114.8 Q124.098 1110.19 124.098 1101.47 Q124.098 1092.72 127.154 1088.13 Q130.232 1083.53 136.043 1083.53 Z" fill="#000000" fill-rule="nonzero" fill-opacity="1" /><path clip-path="url(#clip520)" d="M157.015 1114.78 L164.654 1114.78 L164.654 1088.41 L156.343 1090.08 L156.343 1085.82 L164.607 1084.15 L169.283 1084.15 L169.283 1114.78 L176.922 1114.78 L176.922 1118.71 L157.015 1118.71 L157.015 1114.78 Z" fill="#000000" fill-rule="nonzero" fill-opacity="1" /><path clip-path="url(#clip520)" d="M61.0198 744.961 Q57.4087 744.961 55.58 748.526 Q53.7745 752.068 53.7745 759.197 Q53.7745 766.304 55.58 769.869 Q57.4087 773.41 61.0198 773.41 Q64.6541 773.41 66.4596 769.869 Q68.2883 766.304 68.2883 759.197 Q68.2883 752.068 66.4596 748.526 Q64.6541 744.961 61.0198 744.961 M61.0198 741.258 Q66.83 741.258 69.8855 745.864 Q72.9642 750.447 72.9642 759.197 Q72.9642 767.924 69.8855 772.531 Q66.83 777.114 61.0198 777.114 Q55.2097 777.114 52.131 772.531 Q49.0754 767.924 49.0754 759.197 Q49.0754 750.447 52.131 745.864 Q55.2097 741.258 61.0198 741.258 Z" fill="#000000" fill-rule="nonzero" fill-opacity="1" /><path clip-path="url(#clip520)" d="M81.1818 770.563 L86.066 770.563 L86.066 776.443 L81.1818 776.443 L81.1818 770.563 Z" fill="#000000" fill-rule="nonzero" fill-opacity="1" /><path clip-path="url(#clip520)" d="M106.251 744.961 Q102.64 744.961 100.811 748.526 Q99.0057 752.068 99.0057 759.197 Q99.0057 766.304 100.811 769.869 Q102.64 773.41 106.251 773.41 Q109.885 773.41 111.691 769.869 Q113.52 766.304 113.52 759.197 Q113.52 752.068 111.691 748.526 Q109.885 744.961 106.251 744.961 M106.251 741.258 Q112.061 741.258 115.117 745.864 Q118.195 750.447 118.195 759.197 Q118.195 767.924 115.117 772.531 Q112.061 777.114 106.251 777.114 Q100.441 777.114 97.3622 772.531 Q94.3067 767.924 94.3067 759.197 Q94.3067 750.447 97.3622 745.864 Q100.441 741.258 106.251 741.258 Z" fill="#000000" fill-rule="nonzero" fill-opacity="1" /><path clip-path="url(#clip520)" d="M136.413 744.961 Q132.802 744.961 130.973 748.526 Q129.168 752.068 129.168 759.197 Q129.168 766.304 130.973 769.869 Q132.802 773.41 136.413 773.41 Q140.047 773.41 141.853 769.869 Q143.681 766.304 143.681 759.197 Q143.681 752.068 141.853 748.526 Q140.047 744.961 136.413 744.961 M136.413 741.258 Q142.223 741.258 145.279 745.864 Q148.357 750.447 148.357 759.197 Q148.357 767.924 145.279 772.531 Q142.223 777.114 136.413 777.114 Q130.603 777.114 127.524 772.531 Q124.469 767.924 124.469 759.197 Q124.469 750.447 127.524 745.864 Q130.603 741.258 136.413 741.258 Z" fill="#000000" fill-rule="nonzero" fill-opacity="1" /><path clip-path="url(#clip520)" d="M160.603 772.508 L176.922 772.508 L176.922 776.443 L154.978 776.443 L154.978 772.508 Q157.64 769.753 162.223 765.123 Q166.829 760.471 168.01 759.128 Q170.255 756.605 171.135 754.869 Q172.038 753.11 172.038 751.42 Q172.038 748.665 170.093 746.929 Q168.172 745.193 165.07 745.193 Q162.871 745.193 160.417 745.957 Q157.987 746.721 155.209 748.272 L155.209 743.549 Q158.033 742.415 160.487 741.836 Q162.941 741.258 164.978 741.258 Q170.348 741.258 173.542 743.943 Q176.737 746.628 176.737 751.119 Q176.737 753.248 175.927 755.17 Q175.14 757.068 173.033 759.66 Q172.454 760.332 169.353 763.549 Q166.251 766.744 160.603 772.508 Z" fill="#000000" fill-rule="nonzero" fill-opacity="1" /><path clip-path="url(#clip520)" d="M60.0708 402.693 Q56.4597 402.693 54.631 406.258 Q52.8254 409.799 52.8254 416.929 Q52.8254 424.035 54.631 427.6 Q56.4597 431.142 60.0708 431.142 Q63.705 431.142 65.5105 427.6 Q67.3392 424.035 67.3392 416.929 Q67.3392 409.799 65.5105 406.258 Q63.705 402.693 60.0708 402.693 M60.0708 398.989 Q65.8809 398.989 68.9365 403.596 Q72.0151 408.179 72.0151 416.929 Q72.0151 425.656 68.9365 430.262 Q65.8809 434.845 60.0708 434.845 Q54.2606 434.845 51.1819 430.262 Q48.1264 425.656 48.1264 416.929 Q48.1264 408.179 51.1819 403.596 Q54.2606 398.989 60.0708 398.989 Z" fill="#000000" fill-rule="nonzero" fill-opacity="1" /><path clip-path="url(#clip520)" d="M80.2327 428.295 L85.1169 428.295 L85.1169 434.174 L80.2327 434.174 L80.2327 428.295 Z" fill="#000000" fill-rule="nonzero" fill-opacity="1" /><path clip-path="url(#clip520)" d="M105.302 402.693 Q101.691 402.693 99.8622 406.258 Q98.0567 409.799 98.0567 416.929 Q98.0567 424.035 99.8622 427.6 Q101.691 431.142 105.302 431.142 Q108.936 431.142 110.742 427.6 Q112.57 424.035 112.57 416.929 Q112.57 409.799 110.742 406.258 Q108.936 402.693 105.302 402.693 M105.302 398.989 Q111.112 398.989 114.168 403.596 Q117.246 408.179 117.246 416.929 Q117.246 425.656 114.168 430.262 Q111.112 434.845 105.302 434.845 Q99.4918 434.845 96.4132 430.262 Q93.3576 425.656 93.3576 416.929 Q93.3576 408.179 96.4132 403.596 Q99.4918 398.989 105.302 398.989 Z" fill="#000000" fill-rule="nonzero" fill-opacity="1" /><path clip-path="url(#clip520)" d="M135.464 402.693 Q131.853 402.693 130.024 406.258 Q128.219 409.799 128.219 416.929 Q128.219 424.035 130.024 427.6 Q131.853 431.142 135.464 431.142 Q139.098 431.142 140.904 427.6 Q142.732 424.035 142.732 416.929 Q142.732 409.799 140.904 406.258 Q139.098 402.693 135.464 402.693 M135.464 398.989 Q141.274 398.989 144.33 403.596 Q147.408 408.179 147.408 416.929 Q147.408 425.656 144.33 430.262 Q141.274 434.845 135.464 434.845 Q129.654 434.845 126.575 430.262 Q123.519 425.656 123.519 416.929 Q123.519 408.179 126.575 403.596 Q129.654 398.989 135.464 398.989 Z" fill="#000000" fill-rule="nonzero" fill-opacity="1" /><path clip-path="url(#clip520)" d="M169.792 415.54 Q173.149 416.258 175.024 418.526 Q176.922 420.795 176.922 424.128 Q176.922 429.244 173.403 432.045 Q169.885 434.845 163.404 434.845 Q161.228 434.845 158.913 434.406 Q156.621 433.989 154.167 433.132 L154.167 428.619 Q156.112 429.753 158.427 430.332 Q160.742 430.91 163.265 430.91 Q167.663 430.91 169.954 429.174 Q172.269 427.438 172.269 424.128 Q172.269 421.072 170.116 419.359 Q167.987 417.623 164.167 417.623 L160.14 417.623 L160.14 413.781 L164.353 413.781 Q167.802 413.781 169.63 412.415 Q171.459 411.026 171.459 408.434 Q171.459 405.772 169.561 404.359 Q167.686 402.924 164.167 402.924 Q162.246 402.924 160.047 403.341 Q157.848 403.758 155.209 404.637 L155.209 400.471 Q157.871 399.73 160.186 399.36 Q162.524 398.989 164.584 398.989 Q169.908 398.989 173.01 401.42 Q176.112 403.827 176.112 407.947 Q176.112 410.818 174.468 412.809 Q172.825 414.776 169.792 415.54 Z" fill="#000000" fill-rule="nonzero" fill-opacity="1" /><path clip-path="url(#clip520)" d="M58.9365 60.4243 Q55.3254 60.4243 53.4967 63.9891 Q51.6912 67.5307 51.6912 74.6603 Q51.6912 81.7667 53.4967 85.3315 Q55.3254 88.8732 58.9365 88.8732 Q62.5707 88.8732 64.3763 85.3315 Q66.205 81.7667 66.205 74.6603 Q66.205 67.5307 64.3763 63.9891 Q62.5707 60.4243 58.9365 60.4243 M58.9365 56.7206 Q64.7467 56.7206 67.8022 61.327 Q70.8809 65.9103 70.8809 74.6603 Q70.8809 83.3871 67.8022 87.9936 Q64.7467 92.5769 58.9365 92.5769 Q53.1264 92.5769 50.0477 87.9936 Q46.9921 83.3871 46.9921 74.6603 Q46.9921 65.9103 50.0477 61.327 Q53.1264 56.7206 58.9365 56.7206 Z" fill="#000000" fill-rule="nonzero" fill-opacity="1" /><path clip-path="url(#clip520)" d="M79.0984 86.026 L83.9827 86.026 L83.9827 91.9056 L79.0984 91.9056 L79.0984 86.026 Z" fill="#000000" fill-rule="nonzero" fill-opacity="1" /><path clip-path="url(#clip520)" d="M104.168 60.4243 Q100.557 60.4243 98.728 63.9891 Q96.9224 67.5307 96.9224 74.6603 Q96.9224 81.7667 98.728 85.3315 Q100.557 88.8732 104.168 88.8732 Q107.802 88.8732 109.608 85.3315 Q111.436 81.7667 111.436 74.6603 Q111.436 67.5307 109.608 63.9891 Q107.802 60.4243 104.168 60.4243 M104.168 56.7206 Q109.978 56.7206 113.033 61.327 Q116.112 65.9103 116.112 74.6603 Q116.112 83.3871 113.033 87.9936 Q109.978 92.5769 104.168 92.5769 Q98.3576 92.5769 95.2789 87.9936 Q92.2234 83.3871 92.2234 74.6603 Q92.2234 65.9103 95.2789 61.327 Q98.3576 56.7206 104.168 56.7206 Z" fill="#000000" fill-rule="nonzero" fill-opacity="1" /><path clip-path="url(#clip520)" d="M134.33 60.4243 Q130.719 60.4243 128.89 63.9891 Q127.084 67.5307 127.084 74.6603 Q127.084 81.7667 128.89 85.3315 Q130.719 88.8732 134.33 88.8732 Q137.964 88.8732 139.769 85.3315 Q141.598 81.7667 141.598 74.6603 Q141.598 67.5307 139.769 63.9891 Q137.964 60.4243 134.33 60.4243 M134.33 56.7206 Q140.14 56.7206 143.195 61.327 Q146.274 65.9103 146.274 74.6603 Q146.274 83.3871 143.195 87.9936 Q140.14 92.5769 134.33 92.5769 Q128.519 92.5769 125.441 87.9936 Q122.385 83.3871 122.385 74.6603 Q122.385 65.9103 125.441 61.327 Q128.519 56.7206 134.33 56.7206 Z" fill="#000000" fill-rule="nonzero" fill-opacity="1" /><path clip-path="url(#clip520)" d="M167.339 61.4196 L155.533 79.8686 L167.339 79.8686 L167.339 61.4196 M166.112 57.3456 L171.991 57.3456 L171.991 79.8686 L176.922 79.8686 L176.922 83.7575 L171.991 83.7575 L171.991 91.9056 L167.339 91.9056 L167.339 83.7575 L151.737 83.7575 L151.737 79.2436 L166.112 57.3456 Z" fill="#000000" fill-rule="nonzero" fill-opacity="1" /><path clip-path="url(#clip521)" d="M385.958 1197.27 L385.958 1443.7 L462.598 1443.7 L462.598 1197.27 L385.958 1197.27 L385.958 1197.27  Z" fill="#009af9" fill-rule="evenodd" fill-opacity="1"/>
<polyline clip-path="url(#clip521)" style="stroke:#000000; stroke-linecap:round; stroke-linejoin:round; stroke-width:8; stroke-opacity:1; fill:none" points="385.958,1197.27 385.958,1443.7 462.598,1443.7 462.598,1197.27 385.958,1197.27 "/>
<path clip-path="url(#clip521)" d="M462.598 457.966 L462.598 1443.7 L539.238 1443.7 L539.238 457.966 L462.598 457.966 L462.598 457.966  Z" fill="#009af9" fill-rule="evenodd" fill-opacity="1"/>
<polyline clip-path="url(#clip521)" style="stroke:#000000; stroke-linecap:round; stroke-linejoin:round; stroke-width:8; stroke-opacity:1; fill:none" points="462.598,457.966 462.598,1443.7 539.238,1443.7 539.238,457.966 462.598,457.966 "/>
<path clip-path="url(#clip521)" d="M539.238 129.389 L539.238 1443.7 L615.878 1443.7 L615.878 129.389 L539.238 129.389 L539.238 129.389  Z" fill="#009af9" fill-rule="evenodd" fill-opacity="1"/>
<polyline clip-path="url(#clip521)" style="stroke:#000000; stroke-linecap:round; stroke-linejoin:round; stroke-width:8; stroke-opacity:1; fill:none" points="539.238,129.389 539.238,1443.7 615.878,1443.7 615.878,129.389 539.238,129.389 "/>
<path clip-path="url(#clip521)" d="M615.878 47.2441 L615.878 1443.7 L692.518 1443.7 L692.518 47.2441 L615.878 47.2441 L615.878 47.2441  Z" fill="#009af9" fill-rule="evenodd" fill-opacity="1"/>
<polyline clip-path="url(#clip521)" style="stroke:#000000; stroke-linecap:round; stroke-linejoin:round; stroke-width:8; stroke-opacity:1; fill:none" points="615.878,47.2441 615.878,1443.7 692.518,1443.7 692.518,47.2441 615.878,47.2441 "/>
<path clip-path="url(#clip521)" d="M692.518 759.163 L692.518 1443.7 L769.158 1443.7 L769.158 759.163 L692.518 759.163 L692.518 759.163  Z" fill="#009af9" fill-rule="evenodd" fill-opacity="1"/>
<polyline clip-path="url(#clip521)" style="stroke:#000000; stroke-linecap:round; stroke-linejoin:round; stroke-width:8; stroke-opacity:1; fill:none" points="692.518,759.163 692.518,1443.7 769.158,1443.7 769.158,759.163 692.518,759.163 "/>
<path clip-path="url(#clip521)" d="M769.158 649.637 L769.158 1443.7 L845.798 1443.7 L845.798 649.637 L769.158 649.637 L769.158 649.637  Z" fill="#009af9" fill-rule="evenodd" fill-opacity="1"/>
<polyline clip-path="url(#clip521)" style="stroke:#000000; stroke-linecap:round; stroke-linejoin:round; stroke-width:8; stroke-opacity:1; fill:none" points="769.158,649.637 769.158,1443.7 845.798,1443.7 845.798,649.637 769.158,649.637 "/>
<path clip-path="url(#clip521)" d="M845.798 1115.12 L845.798 1443.7 L922.438 1443.7 L922.438 1115.12 L845.798 1115.12 L845.798 1115.12  Z" fill="#009af9" fill-rule="evenodd" fill-opacity="1"/>
<polyline clip-path="url(#clip521)" style="stroke:#000000; stroke-linecap:round; stroke-linejoin:round; stroke-width:8; stroke-opacity:1; fill:none" points="845.798,1115.12 845.798,1443.7 922.438,1443.7 922.438,1115.12 845.798,1115.12 "/>
<path clip-path="url(#clip521)" d="M922.438 1197.27 L922.438 1443.7 L999.078 1443.7 L999.078 1197.27 L922.438 1197.27 L922.438 1197.27  Z" fill="#009af9" fill-rule="evenodd" fill-opacity="1"/>
<polyline clip-path="url(#clip521)" style="stroke:#000000; stroke-linecap:round; stroke-linejoin:round; stroke-width:8; stroke-opacity:1; fill:none" points="922.438,1197.27 922.438,1443.7 999.078,1443.7 999.078,1197.27 922.438,1197.27 "/>
<path clip-path="url(#clip521)" d="M999.078 1115.12 L999.078 1443.7 L1075.72 1443.7 L1075.72 1115.12 L999.078 1115.12 L999.078 1115.12  Z" fill="#009af9" fill-rule="evenodd" fill-opacity="1"/>
<polyline clip-path="url(#clip521)" style="stroke:#000000; stroke-linecap:round; stroke-linejoin:round; stroke-width:8; stroke-opacity:1; fill:none" points="999.078,1115.12 999.078,1443.7 1075.72,1443.7 1075.72,1115.12 999.078,1115.12 "/>
<path clip-path="url(#clip521)" d="M1075.72 1252.03 L1075.72 1443.7 L1152.36 1443.7 L1152.36 1252.03 L1075.72 1252.03 L1075.72 1252.03  Z" fill="#009af9" fill-rule="evenodd" fill-opacity="1"/>
<polyline clip-path="url(#clip521)" style="stroke:#000000; stroke-linecap:round; stroke-linejoin:round; stroke-width:8; stroke-opacity:1; fill:none" points="1075.72,1252.03 1075.72,1443.7 1152.36,1443.7 1152.36,1252.03 1075.72,1252.03 "/>
<path clip-path="url(#clip521)" d="M1152.36 1361.56 L1152.36 1443.7 L1229 1443.7 L1229 1361.56 L1152.36 1361.56 L1152.36 1361.56  Z" fill="#009af9" fill-rule="evenodd" fill-opacity="1"/>
<polyline clip-path="url(#clip521)" style="stroke:#000000; stroke-linecap:round; stroke-linejoin:round; stroke-width:8; stroke-opacity:1; fill:none" points="1152.36,1361.56 1152.36,1443.7 1229,1443.7 1229,1361.56 1152.36,1361.56 "/>
<path clip-path="url(#clip521)" d="M1229 1361.56 L1229 1443.7 L1305.64 1443.7 L1305.64 1361.56 L1229 1361.56 L1229 1361.56  Z" fill="#009af9" fill-rule="evenodd" fill-opacity="1"/>
<polyline clip-path="url(#clip521)" style="stroke:#000000; stroke-linecap:round; stroke-linejoin:round; stroke-width:8; stroke-opacity:1; fill:none" points="1229,1361.56 1229,1443.7 1305.64,1443.7 1305.64,1361.56 1229,1361.56 "/>
<path clip-path="url(#clip521)" d="M1305.64 1416.32 L1305.64 1443.7 L1382.28 1443.7 L1382.28 1416.32 L1305.64 1416.32 L1305.64 1416.32  Z" fill="#009af9" fill-rule="evenodd" fill-opacity="1"/>
<polyline clip-path="url(#clip521)" style="stroke:#000000; stroke-linecap:round; stroke-linejoin:round; stroke-width:8; stroke-opacity:1; fill:none" points="1305.64,1416.32 1305.64,1443.7 1382.28,1443.7 1382.28,1416.32 1305.64,1416.32 "/>
<path clip-path="url(#clip521)" d="M1382.28 1416.32 L1382.28 1443.7 L1458.92 1443.7 L1458.92 1416.32 L1382.28 1416.32 L1382.28 1416.32  Z" fill="#009af9" fill-rule="evenodd" fill-opacity="1"/>
<polyline clip-path="url(#clip521)" style="stroke:#000000; stroke-linecap:round; stroke-linejoin:round; stroke-width:8; stroke-opacity:1; fill:none" points="1382.28,1416.32 1382.28,1443.7 1458.92,1443.7 1458.92,1416.32 1382.28,1416.32 "/>
<path clip-path="url(#clip521)" d="M1458.92 1388.94 L1458.92 1443.7 L1535.56 1443.7 L1535.56 1388.94 L1458.92 1388.94 L1458.92 1388.94  Z" fill="#009af9" fill-rule="evenodd" fill-opacity="1"/>
<polyline clip-path="url(#clip521)" style="stroke:#000000; stroke-linecap:round; stroke-linejoin:round; stroke-width:8; stroke-opacity:1; fill:none" points="1458.92,1388.94 1458.92,1443.7 1535.56,1443.7 1535.56,1388.94 1458.92,1388.94 "/>
<path clip-path="url(#clip521)" d="M1535.56 1443.7 L1535.56 1443.7 L1612.2 1443.7 L1612.2 1443.7 L1535.56 1443.7 L1535.56 1443.7  Z" fill="#009af9" fill-rule="evenodd" fill-opacity="1"/>
<polyline clip-path="url(#clip521)" style="stroke:#000000; stroke-linecap:round; stroke-linejoin:round; stroke-width:8; stroke-opacity:1; fill:none" points="1535.56,1443.7 1535.56,1443.7 1612.2,1443.7 1535.56,1443.7 "/>
<path clip-path="url(#clip521)" d="M1612.2 1443.7 L1612.2 1443.7 L1688.84 1443.7 L1688.84 1443.7 L1612.2 1443.7 L1612.2 1443.7  Z" fill="#009af9" fill-rule="evenodd" fill-opacity="1"/>
<polyline clip-path="url(#clip521)" style="stroke:#000000; stroke-linecap:round; stroke-linejoin:round; stroke-width:8; stroke-opacity:1; fill:none" points="1612.2,1443.7 1612.2,1443.7 1688.84,1443.7 1612.2,1443.7 "/>
<path clip-path="url(#clip521)" d="M1688.84 1443.7 L1688.84 1443.7 L1765.48 1443.7 L1765.48 1443.7 L1688.84 1443.7 L1688.84 1443.7  Z" fill="#009af9" fill-rule="evenodd" fill-opacity="1"/>
<polyline clip-path="url(#clip521)" style="stroke:#000000; stroke-linecap:round; stroke-linejoin:round; stroke-width:8; stroke-opacity:1; fill:none" points="1688.84,1443.7 1688.84,1443.7 1765.48,1443.7 1688.84,1443.7 "/>
<path clip-path="url(#clip521)" d="M1765.48 1416.32 L1765.48 1443.7 L1842.12 1443.7 L1842.12 1416.32 L1765.48 1416.32 L1765.48 1416.32  Z" fill="#009af9" fill-rule="evenodd" fill-opacity="1"/>
<polyline clip-path="url(#clip521)" style="stroke:#000000; stroke-linecap:round; stroke-linejoin:round; stroke-width:8; stroke-opacity:1; fill:none" points="1765.48,1416.32 1765.48,1443.7 1842.12,1443.7 1842.12,1416.32 1765.48,1416.32 "/>
<path clip-path="url(#clip521)" d="M1842.12 1443.7 L1842.12 1443.7 L1918.76 1443.7 L1918.76 1443.7 L1842.12 1443.7 L1842.12 1443.7  Z" fill="#009af9" fill-rule="evenodd" fill-opacity="1"/>
<polyline clip-path="url(#clip521)" style="stroke:#000000; stroke-linecap:round; stroke-linejoin:round; stroke-width:8; stroke-opacity:1; fill:none" points="1842.12,1443.7 1842.12,1443.7 1918.76,1443.7 1842.12,1443.7 "/>
<path clip-path="url(#clip521)" d="M1918.76 1443.7 L1918.76 1443.7 L1995.4 1443.7 L1995.4 1443.7 L1918.76 1443.7 L1918.76 1443.7  Z" fill="#009af9" fill-rule="evenodd" fill-opacity="1"/>
<polyline clip-path="url(#clip521)" style="stroke:#000000; stroke-linecap:round; stroke-linejoin:round; stroke-width:8; stroke-opacity:1; fill:none" points="1918.76,1443.7 1918.76,1443.7 1995.4,1443.7 1918.76,1443.7 "/>
<path clip-path="url(#clip521)" d="M1995.4 1443.7 L1995.4 1443.7 L2072.04 1443.7 L2072.04 1443.7 L1995.4 1443.7 L1995.4 1443.7  Z" fill="#009af9" fill-rule="evenodd" fill-opacity="1"/>
<polyline clip-path="url(#clip521)" style="stroke:#000000; stroke-linecap:round; stroke-linejoin:round; stroke-width:8; stroke-opacity:1; fill:none" points="1995.4,1443.7 1995.4,1443.7 2072.04,1443.7 1995.4,1443.7 "/>
<path clip-path="url(#clip521)" d="M2072.04 1443.7 L2072.04 1443.7 L2148.68 1443.7 L2148.68 1443.7 L2072.04 1443.7 L2072.04 1443.7  Z" fill="#009af9" fill-rule="evenodd" fill-opacity="1"/>
<polyline clip-path="url(#clip521)" style="stroke:#000000; stroke-linecap:round; stroke-linejoin:round; stroke-width:8; stroke-opacity:1; fill:none" points="2072.04,1443.7 2072.04,1443.7 2148.68,1443.7 2072.04,1443.7 "/>
<path clip-path="url(#clip521)" d="M2148.68 1443.7 L2148.68 1443.7 L2225.32 1443.7 L2225.32 1443.7 L2148.68 1443.7 L2148.68 1443.7  Z" fill="#009af9" fill-rule="evenodd" fill-opacity="1"/>
<polyline clip-path="url(#clip521)" style="stroke:#000000; stroke-linecap:round; stroke-linejoin:round; stroke-width:8; stroke-opacity:1; fill:none" points="2148.68,1443.7 2148.68,1443.7 2225.32,1443.7 2148.68,1443.7 "/>
<path clip-path="url(#clip521)" d="M2225.32 1443.7 L2225.32 1443.7 L2301.96 1443.7 L2301.96 1443.7 L2225.32 1443.7 L2225.32 1443.7  Z" fill="#009af9" fill-rule="evenodd" fill-opacity="1"/>
<polyline clip-path="url(#clip521)" style="stroke:#000000; stroke-linecap:round; stroke-linejoin:round; stroke-width:8; stroke-opacity:1; fill:none" points="2225.32,1443.7 2225.32,1443.7 2301.96,1443.7 2225.32,1443.7 "/>
<path clip-path="url(#clip521)" d="M2301.96 1443.7 L2301.96 1443.7 L2378.6 1443.7 L2378.6 1443.7 L2301.96 1443.7 L2301.96 1443.7  Z" fill="#009af9" fill-rule="evenodd" fill-opacity="1"/>
<polyline clip-path="url(#clip521)" style="stroke:#000000; stroke-linecap:round; stroke-linejoin:round; stroke-width:8; stroke-opacity:1; fill:none" points="2301.96,1443.7 2301.96,1443.7 2378.6,1443.7 2301.96,1443.7 "/>
<path clip-path="url(#clip521)" d="M2378.6 1443.7 L2378.6 1443.7 L2455.24 1443.7 L2455.24 1443.7 L2378.6 1443.7 L2378.6 1443.7  Z" fill="#009af9" fill-rule="evenodd" fill-opacity="1"/>
<polyline clip-path="url(#clip521)" style="stroke:#000000; stroke-linecap:round; stroke-linejoin:round; stroke-width:8; stroke-opacity:1; fill:none" points="2378.6,1443.7 2378.6,1443.7 2455.24,1443.7 2378.6,1443.7 "/>
<path clip-path="url(#clip521)" d="M2455.24 1443.7 L2455.24 1443.7 L2531.88 1443.7 L2531.88 1443.7 L2455.24 1443.7 L2455.24 1443.7  Z" fill="#009af9" fill-rule="evenodd" fill-opacity="1"/>
<polyline clip-path="url(#clip521)" style="stroke:#000000; stroke-linecap:round; stroke-linejoin:round; stroke-width:8; stroke-opacity:1; fill:none" points="2455.24,1443.7 2455.24,1443.7 2531.88,1443.7 2455.24,1443.7 "/>
<path clip-path="url(#clip521)" d="M2531.88 1443.7 L2531.88 1443.7 L2608.52 1443.7 L2608.52 1443.7 L2531.88 1443.7 L2531.88 1443.7  Z" fill="#009af9" fill-rule="evenodd" fill-opacity="1"/>
<polyline clip-path="url(#clip521)" style="stroke:#000000; stroke-linecap:round; stroke-linejoin:round; stroke-width:8; stroke-opacity:1; fill:none" points="2531.88,1443.7 2531.88,1443.7 2608.52,1443.7 2531.88,1443.7 "/>
<path clip-path="url(#clip521)" d="M2608.52 1443.7 L2608.52 1443.7 L2685.16 1443.7 L2685.16 1443.7 L2608.52 1443.7 L2608.52 1443.7  Z" fill="#009af9" fill-rule="evenodd" fill-opacity="1"/>
<polyline clip-path="url(#clip521)" style="stroke:#000000; stroke-linecap:round; stroke-linejoin:round; stroke-width:8; stroke-opacity:1; fill:none" points="2608.52,1443.7 2608.52,1443.7 2685.16,1443.7 2608.52,1443.7 "/>
<path clip-path="url(#clip521)" d="M2685.16 1443.7 L2685.16 1443.7 L2761.8 1443.7 L2761.8 1443.7 L2685.16 1443.7 L2685.16 1443.7  Z" fill="#009af9" fill-rule="evenodd" fill-opacity="1"/>
<polyline clip-path="url(#clip521)" style="stroke:#000000; stroke-linecap:round; stroke-linejoin:round; stroke-width:8; stroke-opacity:1; fill:none" points="2685.16,1443.7 2685.16,1443.7 2761.8,1443.7 2685.16,1443.7 "/>
<path clip-path="url(#clip521)" d="M2761.8 1443.7 L2761.8 1443.7 L2838.44 1443.7 L2838.44 1443.7 L2761.8 1443.7 L2761.8 1443.7  Z" fill="#009af9" fill-rule="evenodd" fill-opacity="1"/>
<polyline clip-path="url(#clip521)" style="stroke:#000000; stroke-linecap:round; stroke-linejoin:round; stroke-width:8; stroke-opacity:1; fill:none" points="2761.8,1443.7 2761.8,1443.7 2838.44,1443.7 2761.8,1443.7 "/>
<path clip-path="url(#clip521)" d="M2838.44 1443.7 L2838.44 1443.7 L2915.08 1443.7 L2915.08 1443.7 L2838.44 1443.7 L2838.44 1443.7  Z" fill="#009af9" fill-rule="evenodd" fill-opacity="1"/>
<polyline clip-path="url(#clip521)" style="stroke:#000000; stroke-linecap:round; stroke-linejoin:round; stroke-width:8; stroke-opacity:1; fill:none" points="2838.44,1443.7 2838.44,1443.7 2915.08,1443.7 2838.44,1443.7 "/>
<path clip-path="url(#clip521)" d="M2915.08 1416.32 L2915.08 1443.7 L2991.72 1443.7 L2991.72 1416.32 L2915.08 1416.32 L2915.08 1416.32  Z" fill="#009af9" fill-rule="evenodd" fill-opacity="1"/>
<polyline clip-path="url(#clip521)" style="stroke:#000000; stroke-linecap:round; stroke-linejoin:round; stroke-width:8; stroke-opacity:1; fill:none" points="2915.08,1416.32 2915.08,1443.7 2991.72,1443.7 2991.72,1416.32 2915.08,1416.32 "/>
<circle clip-path="url(#clip521)" style="fill:#009af9; stroke:none; fill-opacity:0" cx="424.278" cy="1197.27" r="2"/>
<circle clip-path="url(#clip521)" style="fill:#009af9; stroke:none; fill-opacity:0" cx="500.918" cy="457.966" r="2"/>
<circle clip-path="url(#clip521)" style="fill:#009af9; stroke:none; fill-opacity:0" cx="577.558" cy="129.389" r="2"/>
<circle clip-path="url(#clip521)" style="fill:#009af9; stroke:none; fill-opacity:0" cx="654.198" cy="47.2441" r="2"/>
<circle clip-path="url(#clip521)" style="fill:#009af9; stroke:none; fill-opacity:0" cx="730.838" cy="759.163" r="2"/>
<circle clip-path="url(#clip521)" style="fill:#009af9; stroke:none; fill-opacity:0" cx="807.478" cy="649.637" r="2"/>
<circle clip-path="url(#clip521)" style="fill:#009af9; stroke:none; fill-opacity:0" cx="884.118" cy="1115.12" r="2"/>
<circle clip-path="url(#clip521)" style="fill:#009af9; stroke:none; fill-opacity:0" cx="960.758" cy="1197.27" r="2"/>
<circle clip-path="url(#clip521)" style="fill:#009af9; stroke:none; fill-opacity:0" cx="1037.4" cy="1115.12" r="2"/>
<circle clip-path="url(#clip521)" style="fill:#009af9; stroke:none; fill-opacity:0" cx="1114.04" cy="1252.03" r="2"/>
<circle clip-path="url(#clip521)" style="fill:#009af9; stroke:none; fill-opacity:0" cx="1190.68" cy="1361.56" r="2"/>
<circle clip-path="url(#clip521)" style="fill:#009af9; stroke:none; fill-opacity:0" cx="1267.32" cy="1361.56" r="2"/>
<circle clip-path="url(#clip521)" style="fill:#009af9; stroke:none; fill-opacity:0" cx="1343.96" cy="1416.32" r="2"/>
<circle clip-path="url(#clip521)" style="fill:#009af9; stroke:none; fill-opacity:0" cx="1420.6" cy="1416.32" r="2"/>
<circle clip-path="url(#clip521)" style="fill:#009af9; stroke:none; fill-opacity:0" cx="1497.24" cy="1388.94" r="2"/>
<circle clip-path="url(#clip521)" style="fill:#009af9; stroke:none; fill-opacity:0" cx="1573.88" cy="1443.7" r="2"/>
<circle clip-path="url(#clip521)" style="fill:#009af9; stroke:none; fill-opacity:0" cx="1650.52" cy="1443.7" r="2"/>
<circle clip-path="url(#clip521)" style="fill:#009af9; stroke:none; fill-opacity:0" cx="1727.16" cy="1443.7" r="2"/>
<circle clip-path="url(#clip521)" style="fill:#009af9; stroke:none; fill-opacity:0" cx="1803.8" cy="1416.32" r="2"/>
<circle clip-path="url(#clip521)" style="fill:#009af9; stroke:none; fill-opacity:0" cx="1880.44" cy="1443.7" r="2"/>
<circle clip-path="url(#clip521)" style="fill:#009af9; stroke:none; fill-opacity:0" cx="1957.08" cy="1443.7" r="2"/>
<circle clip-path="url(#clip521)" style="fill:#009af9; stroke:none; fill-opacity:0" cx="2033.72" cy="1443.7" r="2"/>
<circle clip-path="url(#clip521)" style="fill:#009af9; stroke:none; fill-opacity:0" cx="2110.36" cy="1443.7" r="2"/>
<circle clip-path="url(#clip521)" style="fill:#009af9; stroke:none; fill-opacity:0" cx="2187" cy="1443.7" r="2"/>
<circle clip-path="url(#clip521)" style="fill:#009af9; stroke:none; fill-opacity:0" cx="2263.64" cy="1443.7" r="2"/>
<circle clip-path="url(#clip521)" style="fill:#009af9; stroke:none; fill-opacity:0" cx="2340.28" cy="1443.7" r="2"/>
<circle clip-path="url(#clip521)" style="fill:#009af9; stroke:none; fill-opacity:0" cx="2416.92" cy="1443.7" r="2"/>
<circle clip-path="url(#clip521)" style="fill:#009af9; stroke:none; fill-opacity:0" cx="2493.56" cy="1443.7" r="2"/>
<circle clip-path="url(#clip521)" style="fill:#009af9; stroke:none; fill-opacity:0" cx="2570.2" cy="1443.7" r="2"/>
<circle clip-path="url(#clip521)" style="fill:#009af9; stroke:none; fill-opacity:0" cx="2646.84" cy="1443.7" r="2"/>
<circle clip-path="url(#clip521)" style="fill:#009af9; stroke:none; fill-opacity:0" cx="2723.48" cy="1443.7" r="2"/>
<circle clip-path="url(#clip521)" style="fill:#009af9; stroke:none; fill-opacity:0" cx="2800.12" cy="1443.7" r="2"/>
<circle clip-path="url(#clip521)" style="fill:#009af9; stroke:none; fill-opacity:0" cx="2876.76" cy="1443.7" r="2"/>
<circle clip-path="url(#clip521)" style="fill:#009af9; stroke:none; fill-opacity:0" cx="2953.4" cy="1416.32" r="2"/>
<path clip-path="url(#clip520)" d="M2122.03 197.473 L3055.16 197.473 L3055.16 93.7926 L2122.03 93.7926  Z" fill="#ffffff" fill-rule="evenodd" fill-opacity="1"/>
<polyline clip-path="url(#clip520)" style="stroke:#000000; stroke-linecap:round; stroke-linejoin:round; stroke-width:4; stroke-opacity:1; fill:none" points="2122.03,197.473 3055.16,197.473 3055.16,93.7926 2122.03,93.7926 2122.03,197.473 "/>
<path clip-path="url(#clip520)" d="M2154.57 166.369 L2349.75 166.369 L2349.75 124.897 L2154.57 124.897 L2154.57 166.369  Z" fill="#009af9" fill-rule="evenodd" fill-opacity="1"/>
<polyline clip-path="url(#clip520)" style="stroke:#000000; stroke-linecap:round; stroke-linejoin:round; stroke-width:8; stroke-opacity:1; fill:none" points="2154.57,166.369 2349.75,166.369 2349.75,124.897 2154.57,124.897 2154.57,166.369 "/>
<path clip-path="url(#clip520)" d="M2398.12 132.959 L2391.78 150.158 L2404.49 150.158 L2398.12 132.959 M2395.48 128.353 L2400.78 128.353 L2413.95 162.913 L2409.09 162.913 L2405.94 154.047 L2390.36 154.047 L2387.22 162.913 L2382.29 162.913 L2395.48 128.353 Z" fill="#000000" fill-rule="nonzero" fill-opacity="1" /><path clip-path="url(#clip520)" d="M2436.64 137.982 L2436.64 141.964 Q2434.83 140.968 2433 140.482 Q2431.2 139.973 2429.35 139.973 Q2425.2 139.973 2422.91 142.612 Q2420.62 145.228 2420.62 149.973 Q2420.62 154.718 2422.91 157.357 Q2425.2 159.973 2429.35 159.973 Q2431.2 159.973 2433 159.487 Q2434.83 158.977 2436.64 157.982 L2436.64 161.917 Q2434.86 162.751 2432.93 163.167 Q2431.04 163.584 2428.88 163.584 Q2423.03 163.584 2419.58 159.903 Q2416.13 156.223 2416.13 149.973 Q2416.13 143.63 2419.6 139.996 Q2423.1 136.362 2429.16 136.362 Q2431.13 136.362 2433 136.779 Q2434.88 137.172 2436.64 137.982 Z" fill="#000000" fill-rule="nonzero" fill-opacity="1" /><path clip-path="url(#clip520)" d="M2448.26 129.626 L2448.26 136.987 L2457.03 136.987 L2457.03 140.297 L2448.26 140.297 L2448.26 154.371 Q2448.26 157.542 2449.11 158.445 Q2449.99 159.348 2452.66 159.348 L2457.03 159.348 L2457.03 162.913 L2452.66 162.913 Q2447.73 162.913 2445.85 161.084 Q2443.98 159.232 2443.98 154.371 L2443.98 140.297 L2440.85 140.297 L2440.85 136.987 L2443.98 136.987 L2443.98 129.626 L2448.26 129.626 Z" fill="#000000" fill-rule="nonzero" fill-opacity="1" /><path clip-path="url(#clip520)" d="M2462.63 136.987 L2466.89 136.987 L2466.89 162.913 L2462.63 162.913 L2462.63 136.987 M2462.63 126.894 L2466.89 126.894 L2466.89 132.288 L2462.63 132.288 L2462.63 126.894 Z" fill="#000000" fill-rule="nonzero" fill-opacity="1" /><path clip-path="url(#clip520)" d="M2472.75 136.987 L2477.26 136.987 L2485.36 158.746 L2493.47 136.987 L2497.98 136.987 L2488.26 162.913 L2482.47 162.913 L2472.75 136.987 Z" fill="#000000" fill-rule="nonzero" fill-opacity="1" /><path clip-path="url(#clip520)" d="M2515.64 149.88 Q2510.48 149.88 2508.49 151.061 Q2506.5 152.241 2506.5 155.089 Q2506.5 157.357 2507.98 158.7 Q2509.48 160.019 2512.05 160.019 Q2515.6 160.019 2517.73 157.519 Q2519.88 154.996 2519.88 150.829 L2519.88 149.88 L2515.64 149.88 M2524.14 148.121 L2524.14 162.913 L2519.88 162.913 L2519.88 158.977 Q2518.42 161.339 2516.24 162.473 Q2514.07 163.584 2510.92 163.584 Q2506.94 163.584 2504.58 161.362 Q2502.24 159.116 2502.24 155.366 Q2502.24 150.991 2505.16 148.769 Q2508.1 146.547 2513.91 146.547 L2519.88 146.547 L2519.88 146.13 Q2519.88 143.191 2517.93 141.593 Q2516.01 139.973 2512.52 139.973 Q2510.29 139.973 2508.19 140.505 Q2506.08 141.038 2504.14 142.103 L2504.14 138.167 Q2506.48 137.265 2508.67 136.825 Q2510.87 136.362 2512.96 136.362 Q2518.58 136.362 2521.36 139.278 Q2524.14 142.195 2524.14 148.121 Z" fill="#000000" fill-rule="nonzero" fill-opacity="1" /><path clip-path="url(#clip520)" d="M2537.12 129.626 L2537.12 136.987 L2545.9 136.987 L2545.9 140.297 L2537.12 140.297 L2537.12 154.371 Q2537.12 157.542 2537.98 158.445 Q2538.86 159.348 2541.52 159.348 L2545.9 159.348 L2545.9 162.913 L2541.52 162.913 Q2536.59 162.913 2534.72 161.084 Q2532.84 159.232 2532.84 154.371 L2532.84 140.297 L2529.72 140.297 L2529.72 136.987 L2532.84 136.987 L2532.84 129.626 L2537.12 129.626 Z" fill="#000000" fill-rule="nonzero" fill-opacity="1" /><path clip-path="url(#clip520)" d="M2551.5 136.987 L2555.76 136.987 L2555.76 162.913 L2551.5 162.913 L2551.5 136.987 M2551.5 126.894 L2555.76 126.894 L2555.76 132.288 L2551.5 132.288 L2551.5 126.894 Z" fill="#000000" fill-rule="nonzero" fill-opacity="1" /><path clip-path="url(#clip520)" d="M2574.72 139.973 Q2571.29 139.973 2569.3 142.658 Q2567.31 145.32 2567.31 149.973 Q2567.31 154.626 2569.28 157.311 Q2571.27 159.973 2574.72 159.973 Q2578.12 159.973 2580.11 157.288 Q2582.1 154.602 2582.1 149.973 Q2582.1 145.366 2580.11 142.681 Q2578.12 139.973 2574.72 139.973 M2574.72 136.362 Q2580.27 136.362 2583.44 139.973 Q2586.61 143.584 2586.61 149.973 Q2586.61 156.339 2583.44 159.973 Q2580.27 163.584 2574.72 163.584 Q2569.14 163.584 2565.97 159.973 Q2562.82 156.339 2562.82 149.973 Q2562.82 143.584 2565.97 139.973 Q2569.14 136.362 2574.72 136.362 Z" fill="#000000" fill-rule="nonzero" fill-opacity="1" /><path clip-path="url(#clip520)" d="M2615.22 147.265 L2615.22 162.913 L2610.97 162.913 L2610.97 147.403 Q2610.97 143.723 2609.53 141.894 Q2608.1 140.066 2605.22 140.066 Q2601.78 140.066 2599.78 142.265 Q2597.79 144.464 2597.79 148.26 L2597.79 162.913 L2593.51 162.913 L2593.51 136.987 L2597.79 136.987 L2597.79 141.015 Q2599.32 138.677 2601.38 137.519 Q2603.47 136.362 2606.17 136.362 Q2610.64 136.362 2612.93 139.14 Q2615.22 141.894 2615.22 147.265 Z" fill="#000000" fill-rule="nonzero" fill-opacity="1" /><path clip-path="url(#clip520)" d="M2643 129.626 L2643 136.987 L2651.78 136.987 L2651.78 140.297 L2643 140.297 L2643 154.371 Q2643 157.542 2643.86 158.445 Q2644.74 159.348 2647.4 159.348 L2651.78 159.348 L2651.78 162.913 L2647.4 162.913 Q2642.47 162.913 2640.59 161.084 Q2638.72 159.232 2638.72 154.371 L2638.72 140.297 L2635.59 140.297 L2635.59 136.987 L2638.72 136.987 L2638.72 129.626 L2643 129.626 Z" fill="#000000" fill-rule="nonzero" fill-opacity="1" /><path clip-path="url(#clip520)" d="M2657.38 136.987 L2661.64 136.987 L2661.64 162.913 L2657.38 162.913 L2657.38 136.987 M2657.38 126.894 L2661.64 126.894 L2661.64 132.288 L2657.38 132.288 L2657.38 126.894 Z" fill="#000000" fill-rule="nonzero" fill-opacity="1" /><path clip-path="url(#clip520)" d="M2690.73 141.964 Q2692.33 139.093 2694.55 137.728 Q2696.78 136.362 2699.78 136.362 Q2703.84 136.362 2706.03 139.209 Q2708.23 142.033 2708.23 147.265 L2708.23 162.913 L2703.95 162.913 L2703.95 147.403 Q2703.95 143.677 2702.63 141.871 Q2701.31 140.066 2698.6 140.066 Q2695.29 140.066 2693.37 142.265 Q2691.45 144.464 2691.45 148.26 L2691.45 162.913 L2687.17 162.913 L2687.17 147.403 Q2687.17 143.653 2685.85 141.871 Q2684.53 140.066 2681.78 140.066 Q2678.51 140.066 2676.59 142.288 Q2674.67 144.487 2674.67 148.26 L2674.67 162.913 L2670.39 162.913 L2670.39 136.987 L2674.67 136.987 L2674.67 141.015 Q2676.13 138.63 2678.16 137.496 Q2680.2 136.362 2683 136.362 Q2685.83 136.362 2687.79 137.797 Q2689.78 139.232 2690.73 141.964 Z" fill="#000000" fill-rule="nonzero" fill-opacity="1" /><path clip-path="url(#clip520)" d="M2738.9 148.885 L2738.9 150.968 L2719.32 150.968 Q2719.6 155.366 2721.96 157.681 Q2724.34 159.973 2728.58 159.973 Q2731.03 159.973 2733.33 159.371 Q2735.64 158.769 2737.91 157.565 L2737.91 161.593 Q2735.62 162.565 2733.21 163.075 Q2730.8 163.584 2728.33 163.584 Q2722.12 163.584 2718.49 159.973 Q2714.88 156.362 2714.88 150.204 Q2714.88 143.839 2718.3 140.112 Q2721.75 136.362 2727.59 136.362 Q2732.82 136.362 2735.85 139.741 Q2738.9 143.098 2738.9 148.885 M2734.65 147.635 Q2734.6 144.14 2732.68 142.056 Q2730.78 139.973 2727.63 139.973 Q2724.07 139.973 2721.91 141.987 Q2719.78 144.001 2719.46 147.658 L2734.65 147.635 Z" fill="#000000" fill-rule="nonzero" fill-opacity="1" /><path clip-path="url(#clip520)" d="M2778.02 140.922 L2778.02 126.894 L2782.28 126.894 L2782.28 162.913 L2778.02 162.913 L2778.02 159.024 Q2776.68 161.339 2774.62 162.473 Q2772.58 163.584 2769.71 163.584 Q2765.02 163.584 2762.05 159.834 Q2759.11 156.084 2759.11 149.973 Q2759.11 143.862 2762.05 140.112 Q2765.02 136.362 2769.71 136.362 Q2772.58 136.362 2774.62 137.496 Q2776.68 138.607 2778.02 140.922 M2763.51 149.973 Q2763.51 154.672 2765.43 157.357 Q2767.38 160.019 2770.76 160.019 Q2774.14 160.019 2776.08 157.357 Q2778.02 154.672 2778.02 149.973 Q2778.02 145.274 2776.08 142.612 Q2774.14 139.927 2770.76 139.927 Q2767.38 139.927 2765.43 142.612 Q2763.51 145.274 2763.51 149.973 Z" fill="#000000" fill-rule="nonzero" fill-opacity="1" /><path clip-path="url(#clip520)" d="M2791.06 136.987 L2795.32 136.987 L2795.32 162.913 L2791.06 162.913 L2791.06 136.987 M2791.06 126.894 L2795.32 126.894 L2795.32 132.288 L2791.06 132.288 L2791.06 126.894 Z" fill="#000000" fill-rule="nonzero" fill-opacity="1" /><path clip-path="url(#clip520)" d="M2820.76 137.751 L2820.76 141.778 Q2818.95 140.853 2817.01 140.39 Q2815.06 139.927 2812.98 139.927 Q2809.81 139.927 2808.21 140.899 Q2806.64 141.871 2806.64 143.815 Q2806.64 145.297 2807.77 146.153 Q2808.9 146.987 2812.33 147.751 L2813.79 148.075 Q2818.33 149.047 2820.22 150.829 Q2822.14 152.589 2822.14 155.76 Q2822.14 159.371 2819.27 161.477 Q2816.43 163.584 2811.43 163.584 Q2809.34 163.584 2807.08 163.167 Q2804.83 162.774 2802.33 161.964 L2802.33 157.565 Q2804.69 158.792 2806.98 159.417 Q2809.27 160.019 2811.52 160.019 Q2814.53 160.019 2816.15 159.001 Q2817.77 157.959 2817.77 156.084 Q2817.77 154.348 2816.59 153.422 Q2815.43 152.496 2811.47 151.64 L2809.99 151.292 Q2806.03 150.459 2804.27 148.746 Q2802.52 147.01 2802.52 144.001 Q2802.52 140.343 2805.11 138.353 Q2807.7 136.362 2812.47 136.362 Q2814.83 136.362 2816.91 136.709 Q2819 137.056 2820.76 137.751 Z" fill="#000000" fill-rule="nonzero" fill-opacity="1" /><path clip-path="url(#clip520)" d="M2833.14 129.626 L2833.14 136.987 L2841.91 136.987 L2841.91 140.297 L2833.14 140.297 L2833.14 154.371 Q2833.14 157.542 2834 158.445 Q2834.88 159.348 2837.54 159.348 L2841.91 159.348 L2841.91 162.913 L2837.54 162.913 Q2832.61 162.913 2830.73 161.084 Q2828.86 159.232 2828.86 154.371 L2828.86 140.297 L2825.73 140.297 L2825.73 136.987 L2828.86 136.987 L2828.86 129.626 L2833.14 129.626 Z" fill="#000000" fill-rule="nonzero" fill-opacity="1" /><path clip-path="url(#clip520)" d="M2862.54 140.968 Q2861.82 140.552 2860.96 140.366 Q2860.13 140.158 2859.11 140.158 Q2855.5 140.158 2853.56 142.519 Q2851.64 144.857 2851.64 149.255 L2851.64 162.913 L2847.35 162.913 L2847.35 136.987 L2851.64 136.987 L2851.64 141.015 Q2852.98 138.653 2855.13 137.519 Q2857.28 136.362 2860.36 136.362 Q2860.8 136.362 2861.33 136.431 Q2861.87 136.478 2862.52 136.593 L2862.54 140.968 Z" fill="#000000" fill-rule="nonzero" fill-opacity="1" /><path clip-path="url(#clip520)" d="M2867.01 136.987 L2871.27 136.987 L2871.27 162.913 L2867.01 162.913 L2867.01 136.987 M2867.01 126.894 L2871.27 126.894 L2871.27 132.288 L2867.01 132.288 L2867.01 126.894 Z" fill="#000000" fill-rule="nonzero" fill-opacity="1" /><path clip-path="url(#clip520)" d="M2898.79 149.973 Q2898.79 145.274 2896.84 142.612 Q2894.92 139.927 2891.54 139.927 Q2888.16 139.927 2886.22 142.612 Q2884.3 145.274 2884.3 149.973 Q2884.3 154.672 2886.22 157.357 Q2888.16 160.019 2891.54 160.019 Q2894.92 160.019 2896.84 157.357 Q2898.79 154.672 2898.79 149.973 M2884.3 140.922 Q2885.64 138.607 2887.68 137.496 Q2889.74 136.362 2892.58 136.362 Q2897.31 136.362 2900.25 140.112 Q2903.21 143.862 2903.21 149.973 Q2903.21 156.084 2900.25 159.834 Q2897.31 163.584 2892.58 163.584 Q2889.74 163.584 2887.68 162.473 Q2885.64 161.339 2884.3 159.024 L2884.3 162.913 L2880.01 162.913 L2880.01 126.894 L2884.3 126.894 L2884.3 140.922 Z" fill="#000000" fill-rule="nonzero" fill-opacity="1" /><path clip-path="url(#clip520)" d="M2909.83 152.681 L2909.83 136.987 L2914.09 136.987 L2914.09 152.519 Q2914.09 156.2 2915.52 158.052 Q2916.96 159.88 2919.83 159.88 Q2923.28 159.88 2925.27 157.681 Q2927.28 155.482 2927.28 151.686 L2927.28 136.987 L2931.54 136.987 L2931.54 162.913 L2927.28 162.913 L2927.28 158.931 Q2925.73 161.292 2923.67 162.45 Q2921.64 163.584 2918.93 163.584 Q2914.46 163.584 2912.14 160.806 Q2909.83 158.028 2909.83 152.681 M2920.55 136.362 L2920.55 136.362 Z" fill="#000000" fill-rule="nonzero" fill-opacity="1" /><path clip-path="url(#clip520)" d="M2944.53 129.626 L2944.53 136.987 L2953.3 136.987 L2953.3 140.297 L2944.53 140.297 L2944.53 154.371 Q2944.53 157.542 2945.38 158.445 Q2946.26 159.348 2948.93 159.348 L2953.3 159.348 L2953.3 162.913 L2948.93 162.913 Q2944 162.913 2942.12 161.084 Q2940.25 159.232 2940.25 154.371 L2940.25 140.297 L2937.12 140.297 L2937.12 136.987 L2940.25 136.987 L2940.25 129.626 L2944.53 129.626 Z" fill="#000000" fill-rule="nonzero" fill-opacity="1" /><path clip-path="url(#clip520)" d="M2958.9 136.987 L2963.16 136.987 L2963.16 162.913 L2958.9 162.913 L2958.9 136.987 M2958.9 126.894 L2963.16 126.894 L2963.16 132.288 L2958.9 132.288 L2958.9 126.894 Z" fill="#000000" fill-rule="nonzero" fill-opacity="1" /><path clip-path="url(#clip520)" d="M2982.12 139.973 Q2978.7 139.973 2976.7 142.658 Q2974.71 145.32 2974.71 149.973 Q2974.71 154.626 2976.68 157.311 Q2978.67 159.973 2982.12 159.973 Q2985.52 159.973 2987.51 157.288 Q2989.51 154.602 2989.51 149.973 Q2989.51 145.366 2987.51 142.681 Q2985.52 139.973 2982.12 139.973 M2982.12 136.362 Q2987.68 136.362 2990.85 139.973 Q2994.02 143.584 2994.02 149.973 Q2994.02 156.339 2990.85 159.973 Q2987.68 163.584 2982.12 163.584 Q2976.54 163.584 2973.37 159.973 Q2970.22 156.339 2970.22 149.973 Q2970.22 143.584 2973.37 139.973 Q2976.54 136.362 2982.12 136.362 Z" fill="#000000" fill-rule="nonzero" fill-opacity="1" /><path clip-path="url(#clip520)" d="M3022.63 147.265 L3022.63 162.913 L3018.37 162.913 L3018.37 147.403 Q3018.37 143.723 3016.94 141.894 Q3015.5 140.066 3012.63 140.066 Q3009.18 140.066 3007.19 142.265 Q3005.2 144.464 3005.2 148.26 L3005.2 162.913 L3000.92 162.913 L3000.92 136.987 L3005.2 136.987 L3005.2 141.015 Q3006.73 138.677 3008.79 137.519 Q3010.87 136.362 3013.58 136.362 Q3018.05 136.362 3020.34 139.14 Q3022.63 141.894 3022.63 147.265 Z" fill="#000000" fill-rule="nonzero" fill-opacity="1" /></svg>
