<?xml version="1.0" encoding="utf-8"?>
<svg xmlns="http://www.w3.org/2000/svg" xmlns:xlink="http://www.w3.org/1999/xlink" width="800" height="400" viewBox="0 0 3200 1600">
<defs>
  <clipPath id="clip070">
    <rect x="0" y="0" width="3200" height="1600"/>
  </clipPath>
</defs>
<path clip-path="url(#clip070)" d="M0 1600 L3200 1600 L3200 0 L0 0  Z" fill="#ffffff" fill-rule="evenodd" fill-opacity="1"/>
<defs>
  <clipPath id="clip071">
    <rect x="640" y="0" width="2241" height="1600"/>
  </clipPath>
</defs>
<path clip-path="url(#clip070)" d="M120.177 1443.7 L3152.76 1443.7 L3152.76 47.2441 L120.177 47.2441  Z" fill="#ffffff" fill-rule="evenodd" fill-opacity="1"/>
<defs>
  <clipPath id="clip072">
    <rect x="120" y="47" width="3034" height="1397"/>
  </clipPath>
</defs>
<polyline clip-path="url(#clip072)" style="stroke:#000000; stroke-linecap:round; stroke-linejoin:round; stroke-width:2; stroke-opacity:0.1; fill:none" points="120.177,1443.7 120.177,47.2441 "/>
<polyline clip-path="url(#clip072)" style="stroke:#000000; stroke-linecap:round; stroke-linejoin:round; stroke-width:2; stroke-opacity:0.1; fill:none" points="751.964,1443.7 751.964,47.2441 "/>
<polyline clip-path="url(#clip072)" style="stroke:#000000; stroke-linecap:round; stroke-linejoin:round; stroke-width:2; stroke-opacity:0.1; fill:none" points="1383.75,1443.7 1383.75,47.2441 "/>
<polyline clip-path="url(#clip072)" style="stroke:#000000; stroke-linecap:round; stroke-linejoin:round; stroke-width:2; stroke-opacity:0.1; fill:none" points="2015.54,1443.7 2015.54,47.2441 "/>
<polyline clip-path="url(#clip072)" style="stroke:#000000; stroke-linecap:round; stroke-linejoin:round; stroke-width:2; stroke-opacity:0.1; fill:none" points="2647.33,1443.7 2647.33,47.2441 "/>
<polyline clip-path="url(#clip072)" style="stroke:#000000; stroke-linecap:round; stroke-linejoin:round; stroke-width:2; stroke-opacity:0.1; fill:none" points="120.177,1443.7 120.177,47.2441 "/>
<polyline clip-path="url(#clip072)" style="stroke:#000000; stroke-linecap:round; stroke-linejoin:round; stroke-width:2; stroke-opacity:0.1; fill:none" points="751.964,1443.7 751.964,47.2441 "/>
<polyline clip-path="url(#clip072)" style="stroke:#000000; stroke-linecap:round; stroke-linejoin:round; stroke-width:2; stroke-opacity:0.1; fill:none" points="1383.75,1443.7 1383.75,47.2441 "/>
<polyline clip-path="url(#clip072)" style="stroke:#000000; stroke-linecap:round; stroke-linejoin:round; stroke-width:2; stroke-opacity:0.1; fill:none" points="2015.54,1443.7 2015.54,47.2441 "/>
<polyline clip-path="url(#clip072)" style="stroke:#000000; stroke-linecap:round; stroke-linejoin:round; stroke-width:2; stroke-opacity:0.1; fill:none" points="2647.33,1443.7 2647.33,47.2441 "/>
<polyline clip-path="url(#clip072)" style="stroke:#000000; stroke-linecap:round; stroke-linejoin:round; stroke-width:2; stroke-opacity:0.1; fill:none" points="120.177,1404.18 3152.76,1404.18 "/>
<polyline clip-path="url(#clip072)" style="stroke:#000000; stroke-linecap:round; stroke-linejoin:round; stroke-width:2; stroke-opacity:0.1; fill:none" points="120.177,1074.82 3152.76,1074.82 "/>
<polyline clip-path="url(#clip072)" style="stroke:#000000; stroke-linecap:round; stroke-linejoin:round; stroke-width:2; stroke-opacity:0.1; fill:none" points="120.177,745.472 3152.76,745.472 "/>
<polyline clip-path="url(#clip072)" style="stroke:#000000; stroke-linecap:round; stroke-linejoin:round; stroke-width:2; stroke-opacity:0.1; fill:none" points="120.177,416.119 3152.76,416.119 "/>
<polyline clip-path="url(#clip072)" style="stroke:#000000; stroke-linecap:round; stroke-linejoin:round; stroke-width:2; stroke-opacity:0.1; fill:none" points="120.177,86.7664 3152.76,86.7664 "/>
<polyline clip-path="url(#clip072)" style="stroke:#000000; stroke-linecap:round; stroke-linejoin:round; stroke-width:2; stroke-opacity:0.1; fill:none" points="120.177,1404.18 3152.76,1404.18 "/>
<polyline clip-path="url(#clip072)" style="stroke:#000000; stroke-linecap:round; stroke-linejoin:round; stroke-width:2; stroke-opacity:0.1; fill:none" points="120.177,1074.82 3152.76,1074.82 "/>
<polyline clip-path="url(#clip072)" style="stroke:#000000; stroke-linecap:round; stroke-linejoin:round; stroke-width:2; stroke-opacity:0.1; fill:none" points="120.177,745.472 3152.76,745.472 "/>
<polyline clip-path="url(#clip072)" style="stroke:#000000; stroke-linecap:round; stroke-linejoin:round; stroke-width:2; stroke-opacity:0.1; fill:none" points="120.177,416.119 3152.76,416.119 "/>
<polyline clip-path="url(#clip072)" style="stroke:#000000; stroke-linecap:round; stroke-linejoin:round; stroke-width:2; stroke-opacity:0.1; fill:none" points="120.177,86.7664 3152.76,86.7664 "/>
<polyline clip-path="url(#clip070)" style="stroke:#000000; stroke-linecap:round; stroke-linejoin:round; stroke-width:4; stroke-opacity:1; fill:none" points="120.177,1443.7 3152.76,1443.7 "/>
<polyline clip-path="url(#clip070)" style="stroke:#000000; stroke-linecap:round; stroke-linejoin:round; stroke-width:4; stroke-opacity:1; fill:none" points="120.177,47.2441 3152.76,47.2441 "/>
<polyline clip-path="url(#clip070)" style="stroke:#000000; stroke-linecap:round; stroke-linejoin:round; stroke-width:4; stroke-opacity:1; fill:none" points="120.177,1443.7 120.177,1424.8 "/>
<polyline clip-path="url(#clip070)" style="stroke:#000000; stroke-linecap:round; stroke-linejoin:round; stroke-width:4; stroke-opacity:1; fill:none" points="751.964,1443.7 751.964,1424.8 "/>
<polyline clip-path="url(#clip070)" style="stroke:#000000; stroke-linecap:round; stroke-linejoin:round; stroke-width:4; stroke-opacity:1; fill:none" points="1383.75,1443.7 1383.75,1424.8 "/>
<polyline clip-path="url(#clip070)" style="stroke:#000000; stroke-linecap:round; stroke-linejoin:round; stroke-width:4; stroke-opacity:1; fill:none" points="2015.54,1443.7 2015.54,1424.8 "/>
<polyline clip-path="url(#clip070)" style="stroke:#000000; stroke-linecap:round; stroke-linejoin:round; stroke-width:4; stroke-opacity:1; fill:none" points="2647.33,1443.7 2647.33,1424.8 "/>
<polyline clip-path="url(#clip070)" style="stroke:#000000; stroke-linecap:round; stroke-linejoin:round; stroke-width:4; stroke-opacity:1; fill:none" points="120.177,47.2441 120.177,66.1417 "/>
<polyline clip-path="url(#clip070)" style="stroke:#000000; stroke-linecap:round; stroke-linejoin:round; stroke-width:4; stroke-opacity:1; fill:none" points="751.964,47.2441 751.964,66.1417 "/>
<polyline clip-path="url(#clip070)" style="stroke:#000000; stroke-linecap:round; stroke-linejoin:round; stroke-width:4; stroke-opacity:1; fill:none" points="1383.75,47.2441 1383.75,66.1417 "/>
<polyline clip-path="url(#clip070)" style="stroke:#000000; stroke-linecap:round; stroke-linejoin:round; stroke-width:4; stroke-opacity:1; fill:none" points="2015.54,47.2441 2015.54,66.1417 "/>
<polyline clip-path="url(#clip070)" style="stroke:#000000; stroke-linecap:round; stroke-linejoin:round; stroke-width:4; stroke-opacity:1; fill:none" points="2647.33,47.2441 2647.33,66.1417 "/>
<path clip-path="url(#clip070)" d="M120.177 1481.02 Q116.566 1481.02 114.737 1484.58 Q112.932 1488.12 112.932 1495.25 Q112.932 1502.36 114.737 1505.93 Q116.566 1509.47 120.177 1509.47 Q123.811 1509.47 125.617 1505.93 Q127.446 1502.36 127.446 1495.25 Q127.446 1488.12 125.617 1484.58 Q123.811 1481.02 120.177 1481.02 M120.177 1477.31 Q125.987 1477.31 129.043 1481.92 Q132.122 1486.5 132.122 1495.25 Q132.122 1503.98 129.043 1508.59 Q125.987 1513.17 120.177 1513.17 Q114.367 1513.17 111.288 1508.59 Q108.233 1503.98 108.233 1495.25 Q108.233 1486.5 111.288 1481.92 Q114.367 1477.31 120.177 1477.31 Z" fill="#000000" fill-rule="nonzero" fill-opacity="1" /><path clip-path="url(#clip070)" d="M742.242 1477.94 L760.599 1477.94 L760.599 1481.88 L746.525 1481.88 L746.525 1490.35 Q747.543 1490 748.562 1489.84 Q749.58 1489.65 750.599 1489.65 Q756.386 1489.65 759.765 1492.82 Q763.145 1496 763.145 1501.41 Q763.145 1506.99 759.673 1510.09 Q756.2 1513.17 749.881 1513.17 Q747.705 1513.17 745.437 1512.8 Q743.191 1512.43 740.784 1511.69 L740.784 1506.99 Q742.867 1508.12 745.089 1508.68 Q747.312 1509.24 749.788 1509.24 Q753.793 1509.24 756.131 1507.13 Q758.469 1505.02 758.469 1501.41 Q758.469 1497.8 756.131 1495.69 Q753.793 1493.59 749.788 1493.59 Q747.914 1493.59 746.039 1494 Q744.187 1494.42 742.242 1495.3 L742.242 1477.94 Z" fill="#000000" fill-rule="nonzero" fill-opacity="1" /><path clip-path="url(#clip070)" d="M1358.44 1508.56 L1366.08 1508.56 L1366.08 1482.2 L1357.77 1483.87 L1357.77 1479.61 L1366.03 1477.94 L1370.71 1477.94 L1370.71 1508.56 L1378.35 1508.56 L1378.35 1512.5 L1358.44 1512.5 L1358.44 1508.56 Z" fill="#000000" fill-rule="nonzero" fill-opacity="1" /><path clip-path="url(#clip070)" d="M1397.79 1481.02 Q1394.18 1481.02 1392.35 1484.58 Q1390.55 1488.12 1390.55 1495.25 Q1390.55 1502.36 1392.35 1505.93 Q1394.18 1509.47 1397.79 1509.47 Q1401.43 1509.47 1403.23 1505.93 Q1405.06 1502.36 1405.06 1495.25 Q1405.06 1488.12 1403.23 1484.58 Q1401.43 1481.02 1397.79 1481.02 M1397.79 1477.31 Q1403.6 1477.31 1406.66 1481.92 Q1409.74 1486.5 1409.74 1495.25 Q1409.74 1503.98 1406.66 1508.59 Q1403.6 1513.17 1397.79 1513.17 Q1391.98 1513.17 1388.9 1508.59 Q1385.85 1503.98 1385.85 1495.25 Q1385.85 1486.5 1388.9 1481.92 Q1391.98 1477.31 1397.79 1477.31 Z" fill="#000000" fill-rule="nonzero" fill-opacity="1" /><path clip-path="url(#clip070)" d="M1990.72 1508.56 L1998.36 1508.56 L1998.36 1482.2 L1990.05 1483.87 L1990.05 1479.61 L1998.32 1477.94 L2002.99 1477.94 L2002.99 1508.56 L2010.63 1508.56 L2010.63 1512.5 L1990.72 1512.5 L1990.72 1508.56 Z" fill="#000000" fill-rule="nonzero" fill-opacity="1" /><path clip-path="url(#clip070)" d="M2020.12 1477.94 L2038.48 1477.94 L2038.48 1481.88 L2024.4 1481.88 L2024.4 1490.35 Q2025.42 1490 2026.44 1489.84 Q2027.46 1489.65 2028.48 1489.65 Q2034.27 1489.65 2037.65 1492.82 Q2041.02 1496 2041.02 1501.41 Q2041.02 1506.99 2037.55 1510.09 Q2034.08 1513.17 2027.76 1513.17 Q2025.59 1513.17 2023.32 1512.8 Q2021.07 1512.43 2018.66 1511.69 L2018.66 1506.99 Q2020.75 1508.12 2022.97 1508.68 Q2025.19 1509.24 2027.67 1509.24 Q2031.67 1509.24 2034.01 1507.13 Q2036.35 1505.02 2036.35 1501.41 Q2036.35 1497.8 2034.01 1495.69 Q2031.67 1493.59 2027.67 1493.59 Q2025.79 1493.59 2023.92 1494 Q2022.07 1494.42 2020.12 1495.3 L2020.12 1477.94 Z" fill="#000000" fill-rule="nonzero" fill-opacity="1" /><path clip-path="url(#clip070)" d="M2626.1 1508.56 L2642.42 1508.56 L2642.42 1512.5 L2620.47 1512.5 L2620.47 1508.56 Q2623.14 1505.81 2627.72 1501.18 Q2632.33 1496.53 2633.51 1495.19 Q2635.75 1492.66 2636.63 1490.93 Q2637.53 1489.17 2637.53 1487.48 Q2637.53 1484.72 2635.59 1482.99 Q2633.67 1481.25 2630.57 1481.25 Q2628.37 1481.25 2625.91 1482.01 Q2623.48 1482.78 2620.71 1484.33 L2620.71 1479.61 Q2623.53 1478.47 2625.98 1477.89 Q2628.44 1477.31 2630.47 1477.31 Q2635.84 1477.31 2639.04 1480 Q2642.23 1482.69 2642.23 1487.18 Q2642.23 1489.31 2641.42 1491.23 Q2640.64 1493.12 2638.53 1495.72 Q2637.95 1496.39 2634.85 1499.61 Q2631.75 1502.8 2626.1 1508.56 Z" fill="#000000" fill-rule="nonzero" fill-opacity="1" /><path clip-path="url(#clip070)" d="M2662.23 1481.02 Q2658.62 1481.02 2656.79 1484.58 Q2654.99 1488.12 2654.99 1495.25 Q2654.99 1502.36 2656.79 1505.93 Q2658.62 1509.47 2662.23 1509.47 Q2665.87 1509.47 2667.67 1505.93 Q2669.5 1502.36 2669.5 1495.25 Q2669.5 1488.12 2667.67 1484.58 Q2665.87 1481.02 2662.23 1481.02 M2662.23 1477.31 Q2668.04 1477.31 2671.1 1481.92 Q2674.18 1486.5 2674.18 1495.25 Q2674.18 1503.98 2671.1 1508.59 Q2668.04 1513.17 2662.23 1513.17 Q2656.42 1513.17 2653.34 1508.59 Q2650.29 1503.98 2650.29 1495.25 Q2650.29 1486.5 2653.34 1481.92 Q2656.42 1477.31 2662.23 1477.31 Z" fill="#000000" fill-rule="nonzero" fill-opacity="1" /><path clip-path="url(#clip070)" d="M1635.53 1554.79 L1635.53 1564.92 L1647.59 1564.92 L1647.59 1569.47 L1635.53 1569.47 L1635.53 1588.82 Q1635.53 1593.18 1636.71 1594.42 Q1637.91 1595.66 1641.58 1595.66 L1647.59 1595.66 L1647.59 1600.56 L1641.58 1600.56 Q1634.8 1600.56 1632.22 1598.05 Q1629.64 1595.5 1629.64 1588.82 L1629.64 1569.47 L1625.34 1569.47 L1625.34 1564.92 L1629.64 1564.92 L1629.64 1554.79 L1635.53 1554.79 Z" fill="#000000" fill-rule="nonzero" fill-opacity="1" /><polyline clip-path="url(#clip070)" style="stroke:#000000; stroke-linecap:round; stroke-linejoin:round; stroke-width:4; stroke-opacity:1; fill:none" points="120.177,1443.7 120.177,47.2441 "/>
<polyline clip-path="url(#clip070)" style="stroke:#000000; stroke-linecap:round; stroke-linejoin:round; stroke-width:4; stroke-opacity:1; fill:none" points="3152.76,1443.7 3152.76,47.2441 "/>
<polyline clip-path="url(#clip070)" style="stroke:#000000; stroke-linecap:round; stroke-linejoin:round; stroke-width:4; stroke-opacity:1; fill:none" points="120.177,1404.18 139.075,1404.18 "/>
<polyline clip-path="url(#clip070)" style="stroke:#000000; stroke-linecap:round; stroke-linejoin:round; stroke-width:4; stroke-opacity:1; fill:none" points="120.177,1074.82 139.075,1074.82 "/>
<polyline clip-path="url(#clip070)" style="stroke:#000000; stroke-linecap:round; stroke-linejoin:round; stroke-width:4; stroke-opacity:1; fill:none" points="120.177,745.472 139.075,745.472 "/>
<polyline clip-path="url(#clip070)" style="stroke:#000000; stroke-linecap:round; stroke-linejoin:round; stroke-width:4; stroke-opacity:1; fill:none" points="120.177,416.119 139.075,416.119 "/>
<polyline clip-path="url(#clip070)" style="stroke:#000000; stroke-linecap:round; stroke-linejoin:round; stroke-width:4; stroke-opacity:1; fill:none" points="120.177,86.7664 139.075,86.7664 "/>
<polyline clip-path="url(#clip070)" style="stroke:#000000; stroke-linecap:round; stroke-linejoin:round; stroke-width:4; stroke-opacity:1; fill:none" points="3152.76,1404.18 3133.86,1404.18 "/>
<polyline clip-path="url(#clip070)" style="stroke:#000000; stroke-linecap:round; stroke-linejoin:round; stroke-width:4; stroke-opacity:1; fill:none" points="3152.76,1074.82 3133.86,1074.82 "/>
<polyline clip-path="url(#clip070)" style="stroke:#000000; stroke-linecap:round; stroke-linejoin:round; stroke-width:4; stroke-opacity:1; fill:none" points="3152.76,745.472 3133.86,745.472 "/>
<polyline clip-path="url(#clip070)" style="stroke:#000000; stroke-linecap:round; stroke-linejoin:round; stroke-width:4; stroke-opacity:1; fill:none" points="3152.76,416.119 3133.86,416.119 "/>
<polyline clip-path="url(#clip070)" style="stroke:#000000; stroke-linecap:round; stroke-linejoin:round; stroke-width:4; stroke-opacity:1; fill:none" points="3152.76,86.7664 3133.86,86.7664 "/>
<path clip-path="url(#clip070)" d="M60.2328 1389.98 Q56.6217 1389.98 54.793 1393.54 Q52.9875 1397.08 52.9875 1404.21 Q52.9875 1411.32 54.793 1414.88 Q56.6217 1418.43 60.2328 1418.43 Q63.867 1418.43 65.6726 1414.88 Q67.5013 1411.32 67.5013 1404.21 Q67.5013 1397.08 65.6726 1393.54 Q63.867 1389.98 60.2328 1389.98 M60.2328 1386.27 Q66.0429 1386.27 69.0985 1390.88 Q72.1772 1395.46 72.1772 1404.21 Q72.1772 1412.94 69.0985 1417.55 Q66.0429 1422.13 60.2328 1422.13 Q54.4226 1422.13 51.344 1417.55 Q48.2884 1412.94 48.2884 1404.21 Q48.2884 1395.46 51.344 1390.88 Q54.4226 1386.27 60.2328 1386.27 Z" fill="#000000" fill-rule="nonzero" fill-opacity="1" /><path clip-path="url(#clip070)" d="M52.2699 1088.17 L59.9087 1088.17 L59.9087 1061.8 L51.5986 1063.47 L51.5986 1059.21 L59.8624 1057.54 L64.5383 1057.54 L64.5383 1088.17 L72.1772 1088.17 L72.1772 1092.1 L52.2699 1092.1 L52.2699 1088.17 Z" fill="#000000" fill-rule="nonzero" fill-opacity="1" /><path clip-path="url(#clip070)" d="M55.8578 758.817 L72.1772 758.817 L72.1772 762.752 L50.2328 762.752 L50.2328 758.817 Q52.8949 756.062 57.4782 751.433 Q62.0846 746.78 63.2652 745.437 Q65.5105 742.914 66.3902 741.178 Q67.2929 739.419 67.2929 737.729 Q67.2929 734.974 65.3485 733.238 Q63.4272 731.502 60.3254 731.502 Q58.1263 731.502 55.6726 732.266 Q53.2421 733.03 50.4643 734.581 L50.4643 729.859 Q53.2884 728.724 55.7421 728.146 Q58.1958 727.567 60.2328 727.567 Q65.6031 727.567 68.7976 730.252 Q71.992 732.937 71.992 737.428 Q71.992 739.558 71.1818 741.479 Q70.3948 743.377 68.2883 745.97 Q67.7096 746.641 64.6078 749.859 Q61.5059 753.053 55.8578 758.817 Z" fill="#000000" fill-rule="nonzero" fill-opacity="1" /><path clip-path="url(#clip070)" d="M65.0476 414.765 Q68.404 415.483 70.279 417.751 Q72.1772 420.02 72.1772 423.353 Q72.1772 428.469 68.6587 431.27 Q65.1402 434.07 58.6587 434.07 Q56.4828 434.07 54.168 433.631 Q51.8764 433.214 49.4227 432.358 L49.4227 427.844 Q51.3671 428.978 53.6819 429.557 Q55.9967 430.135 58.5198 430.135 Q62.918 430.135 65.2096 428.399 Q67.5244 426.663 67.5244 423.353 Q67.5244 420.297 65.3717 418.584 Q63.242 416.848 59.4226 416.848 L55.3949 416.848 L55.3949 413.006 L59.6078 413.006 Q63.0569 413.006 64.8855 411.64 Q66.7142 410.251 66.7142 407.659 Q66.7142 404.997 64.8161 403.585 Q62.9411 402.149 59.4226 402.149 Q57.5013 402.149 55.3023 402.566 Q53.1032 402.983 50.4643 403.862 L50.4643 399.696 Q53.1264 398.955 55.4412 398.585 Q57.7791 398.214 59.8393 398.214 Q65.1633 398.214 68.2652 400.645 Q71.367 403.052 71.367 407.172 Q71.367 410.043 69.7235 412.034 Q68.08 414.001 65.0476 414.765 Z" fill="#000000" fill-rule="nonzero" fill-opacity="1" /><path clip-path="url(#clip070)" d="M62.5939 73.5605 L50.7884 92.0095 L62.5939 92.0095 L62.5939 73.5605 M61.367 69.4864 L67.2466 69.4864 L67.2466 92.0095 L72.1772 92.0095 L72.1772 95.8983 L67.2466 95.8983 L67.2466 104.046 L62.5939 104.046 L62.5939 95.8983 L46.9921 95.8983 L46.9921 91.3845 L61.367 69.4864 Z" fill="#000000" fill-rule="nonzero" fill-opacity="1" /><polyline clip-path="url(#clip072)" style="stroke:#009af9; stroke-linecap:round; stroke-linejoin:round; stroke-width:8; stroke-opacity:1; fill:none" points="120.177,1404.18 122.228,1404.18 124.278,1404.18 126.328,1404.18 128.379,1404.18 130.429,1404.18 132.48,1404.18 134.53,1404.18 136.581,1404.18 138.631,1404.18 140.681,1404.18 142.732,1404.18 144.782,1404.18 146.833,1404.18 148.883,1404.18 150.934,1404.18 152.984,1404.18 155.034,1404.18 157.085,1404.18 159.135,1404.18 161.186,1404.18 163.236,1404.18 165.287,1404.18 167.337,1404.18 169.387,1404.18 171.438,1404.18 173.488,1404.18 175.539,1404.18 177.589,1404.18 179.64,1404.18 181.69,1404.18 183.74,1404.18 185.791,1404.18 187.841,1404.18 189.892,1404.18 191.942,1404.18 193.992,1404.18 196.043,1404.18 198.093,1404.18 200.144,1404.18 202.194,1404.18 204.245,1404.18 206.295,1404.18 208.345,1404.18 210.396,1404.18 212.446,1404.18 214.497,1404.18 216.547,1404.18 218.598,1404.18 220.648,1404.18 222.698,1404.18 224.749,1404.18 226.799,1404.18 228.85,1404.18 230.9,1404.18 232.951,1404.18 235.001,1404.18 237.051,1404.18 239.102,1404.18 241.152,1404.18 243.203,1404.18 245.253,1404.18 247.304,1404.18 249.354,1404.18 251.404,1404.18 253.455,1404.18 255.505,1404.18 257.556,1404.18 259.606,1404.18 261.657,1404.18 263.707,1404.18 265.757,1404.18 267.808,1404.18 269.858,1404.18 271.909,1404.18 273.959,1404.18 276.009,1404.18 278.06,1404.18 280.11,1404.18 282.161,1404.18 284.211,1404.18 286.262,1404.18 288.312,1404.18 290.362,1404.18 292.413,1404.18 294.463,1404.18 296.514,1404.18 298.564,1404.18 300.615,1404.18 302.665,1404.18 304.715,1404.18 306.766,1404.18 308.816,1404.18 310.867,1404.18 312.917,1404.18 314.968,1404.18 317.018,1404.18 319.068,1404.18 321.119,1404.18 323.169,1404.18 325.22,1404.18 327.27,1404.18 329.321,1404.18 331.371,1404.18 333.421,1404.18 335.472,1404.18 337.522,1404.18 339.573,1404.18 341.623,1404.18 343.674,1404.18 345.724,1404.18 347.774,1404.18 349.825,1404.18 351.875,1404.18 353.926,1404.18 355.976,1404.18 358.026,1404.18 360.077,1404.18 362.127,1404.18 364.178,1404.18 366.228,1404.18 368.279,1404.18 370.329,1404.18 372.379,1404.18 374.43,1404.18 376.48,1404.18 378.531,1404.18 380.581,1404.18 382.632,1404.18 384.682,1404.18 386.732,1404.18 388.783,1404.18 390.833,1404.18 392.884,1404.18 394.934,1404.18 396.985,1404.18 399.035,1404.18 401.085,1404.18 403.136,1404.18 405.186,1404.18 407.237,1404.18 409.287,1404.18 411.338,1404.18 413.388,1404.18 415.438,1404.18 417.489,1404.18 419.539,1404.18 421.59,1074.82 423.64,1074.82 425.691,1074.82 427.741,1074.82 429.791,1074.82 431.842,1074.82 433.892,1074.82 435.943,1074.82 437.993,1074.82 440.043,1074.82 442.094,1074.82 444.144,1074.82 446.195,1074.82 448.245,1074.82 450.296,1074.82 452.346,1074.82 454.396,1074.82 456.447,1074.82 458.497,1074.82 460.548,1074.82 462.598,1074.82 464.649,1074.82 466.699,1074.82 468.749,1074.82 470.8,1074.82 472.85,1074.82 474.901,1074.82 476.951,1074.82 479.002,1074.82 481.052,1074.82 483.102,1074.82 485.153,1074.82 487.203,1074.82 489.254,1074.82 491.304,1074.82 493.355,1074.82 495.405,1074.82 497.455,1074.82 499.506,1074.82 501.556,745.472 503.607,745.472 505.657,745.472 507.708,745.472 509.758,745.472 511.808,745.472 513.859,745.472 515.909,745.472 517.96,745.472 520.01,745.472 522.06,745.472 524.111,745.472 526.161,745.472 528.212,745.472 530.262,745.472 532.313,745.472 534.363,745.472 536.413,745.472 538.464,745.472 540.514,745.472 542.565,1074.82 544.615,1074.82 546.666,1074.82 548.716,1074.82 550.766,1074.82 552.817,1074.82 554.867,1074.82 556.918,1074.82 558.968,1074.82 561.019,1074.82 563.069,1074.82 565.119,1074.82 567.17,1074.82 569.22,1074.82 571.271,1074.82 573.321,1074.82 575.372,1074.82 577.422,1074.82 579.472,1074.82 581.523,1074.82 583.573,1074.82 585.624,1074.82 587.674,1074.82 589.725,1074.82 591.775,1074.82 593.825,1074.82 595.876,1074.82 597.926,1074.82 599.977,1074.82 602.027,1074.82 604.078,1074.82 606.128,1074.82 608.178,1074.82 610.229,1074.82 612.279,1074.82 614.33,1074.82 616.38,1074.82 618.43,1074.82 620.481,1074.82 622.531,1404.18 624.582,1404.18 626.632,1404.18 628.683,1404.18 630.733,1404.18 632.783,1404.18 634.834,1404.18 636.884,1404.18 638.935,1404.18 640.985,1404.18 643.036,1404.18 645.086,1074.82 647.136,1074.82 649.187,1074.82 651.237,1074.82 653.288,1074.82 655.338,1074.82 657.389,1074.82 659.439,1074.82 661.489,1074.82 663.54,1074.82 665.59,1074.82 667.641,1074.82 669.691,1074.82 671.742,1074.82 673.792,1074.82 675.842,1074.82 677.893,1074.82 679.943,1074.82 681.994,1074.82 684.044,1074.82 686.095,745.472 688.145,745.472 690.195,745.472 692.246,1074.82 694.296,1074.82 696.347,1074.82 698.397,1074.82 700.447,1074.82 702.498,1074.82 704.548,1404.18 706.599,1404.18 708.649,1404.18 710.7,1404.18 712.75,1404.18 714.8,1404.18 716.851,1404.18 718.901,1404.18 720.952,1404.18 723.002,1404.18 725.053,1404.18 727.103,1404.18 729.153,1404.18 731.204,1404.18 733.254,1404.18 735.305,1404.18 737.355,1404.18 739.406,1404.18 741.456,1404.18 743.506,1404.18 745.557,1404.18 747.607,1404.18 749.658,1404.18 751.708,1404.18 753.759,1404.18 755.809,1404.18 757.859,1404.18 759.91,1404.18 761.96,1404.18 764.011,1404.18 766.061,1404.18 768.112,1404.18 770.162,1404.18 772.212,1404.18 774.263,1404.18 776.313,1404.18 778.364,1404.18 780.414,1404.18 782.464,1404.18 784.515,1404.18 786.565,1404.18 788.616,1404.18 790.666,1404.18 792.717,1404.18 794.767,1404.18 796.817,1404.18 798.868,1404.18 800.918,1404.18 802.969,1404.18 805.019,1404.18 807.07,1404.18 809.12,1404.18 811.17,1404.18 813.221,1404.18 815.271,1404.18 817.322,1404.18 819.372,1404.18 821.423,1404.18 823.473,1404.18 825.523,1404.18 827.574,1404.18 829.624,1404.18 831.675,1404.18 833.725,1404.18 835.776,1404.18 837.826,1404.18 839.876,1404.18 841.927,1404.18 843.977,1404.18 846.028,1404.18 848.078,1404.18 850.129,1404.18 852.179,1404.18 854.229,1404.18 856.28,1404.18 858.33,1404.18 860.381,1404.18 862.431,1404.18 864.481,1404.18 866.532,1404.18 868.582,1404.18 870.633,1404.18 872.683,1404.18 874.734,1404.18 876.784,1404.18 878.834,1404.18 880.885,1404.18 882.935,1404.18 884.986,1404.18 887.036,1404.18 889.087,1404.18 891.137,1404.18 893.187,1404.18 895.238,1404.18 897.288,1404.18 899.339,1404.18 901.389,1404.18 903.44,1404.18 905.49,1404.18 907.54,1404.18 909.591,1404.18 911.641,1404.18 913.692,1404.18 915.742,1404.18 917.793,1404.18 919.843,1404.18 921.893,1404.18 923.944,1404.18 925.994,1404.18 928.045,1404.18 930.095,1404.18 932.146,1404.18 934.196,1404.18 936.246,1404.18 938.297,1404.18 940.347,1404.18 942.398,1404.18 944.448,1404.18 946.498,1404.18 948.549,1404.18 950.599,1404.18 952.65,1404.18 954.7,1404.18 956.751,1404.18 958.801,1404.18 960.851,1404.18 962.902,1404.18 964.952,1404.18 967.003,1404.18 969.053,1404.18 971.104,1404.18 973.154,1404.18 975.204,1404.18 977.255,1404.18 979.305,1404.18 981.356,1404.18 983.406,1404.18 985.457,1404.18 987.507,1404.18 989.557,1404.18 991.608,1404.18 993.658,1074.82 995.709,1074.82 997.759,1074.82 999.81,1074.82 1001.86,1074.82 1003.91,1074.82 1005.96,745.472 1008.01,745.472 1010.06,745.472 1012.11,745.472 1014.16,745.472 1016.21,745.472 1018.26,745.472 1020.31,745.472 1022.36,745.472 1024.41,745.472 1026.47,745.472 1028.52,745.472 1030.57,745.472 1032.62,745.472 1034.67,745.472 1036.72,745.472 1038.77,745.472 1040.82,416.119 1042.87,416.119 1044.92,416.119 1046.97,416.119 1049.02,416.119 1051.07,416.119 1053.12,416.119 1055.17,745.472 1057.22,745.472 1059.27,745.472 1061.32,745.472 1063.37,745.472 1065.42,745.472 1067.47,745.472 1069.52,745.472 1071.57,745.472 1073.62,745.472 1075.68,745.472 1077.73,745.472 1079.78,416.119 1081.83,416.119 1083.88,416.119 1085.93,416.119 1087.98,416.119 1090.03,416.119 1092.08,416.119 1094.13,416.119 1096.18,416.119 1098.23,416.119 1100.28,416.119 1102.33,416.119 1104.38,416.119 1106.43,416.119 1108.48,416.119 1110.53,416.119 1112.58,745.472 1114.63,745.472 1116.68,745.472 1118.73,745.472 1120.78,745.472 1122.84,745.472 1124.89,745.472 1126.94,745.472 1128.99,745.472 1131.04,745.472 1133.09,745.472 1135.14,745.472 1137.19,745.472 1139.24,745.472 1141.29,745.472 1143.34,416.119 1145.39,416.119 1147.44,416.119 1149.49,86.7664 1151.54,86.7664 1153.59,416.119 1155.64,416.119 1157.69,416.119 1159.74,416.119 1161.79,416.119 1163.84,416.119 1165.89,416.119 1167.94,416.119 1169.99,416.119 1172.05,416.119 1174.1,416.119 1176.15,416.119 1178.2,416.119 1180.25,416.119 1182.3,416.119 1184.35,416.119 1186.4,416.119 1188.45,416.119 1190.5,416.119 1192.55,416.119 1194.6,416.119 1196.65,416.119 1198.7,416.119 1200.75,416.119 1202.8,416.119 1204.85,745.472 1206.9,745.472 1208.95,745.472 1211,745.472 1213.05,745.472 1215.1,745.472 1217.15,745.472 1219.21,745.472 1221.26,745.472 1223.31,745.472 1225.36,745.472 1227.41,745.472 1229.46,745.472 1231.51,745.472 1233.56,745.472 1235.61,745.472 1237.66,745.472 1239.71,745.472 1241.76,745.472 1243.81,745.472 1245.86,745.472 1247.91,745.472 1249.96,745.472 1252.01,745.472 1254.06,745.472 1256.11,745.472 1258.16,745.472 1260.21,745.472 1262.26,745.472 1264.31,745.472 1266.36,745.472 1268.42,416.119 1270.47,416.119 1272.52,416.119 1274.57,416.119 1276.62,416.119 1278.67,416.119 1280.72,416.119 1282.77,416.119 1284.82,416.119 1286.87,416.119 1288.92,416.119 1290.97,416.119 1293.02,416.119 1295.07,416.119 1297.12,416.119 1299.17,416.119 1301.22,416.119 1303.27,416.119 1305.32,416.119 1307.37,416.119 1309.42,416.119 1311.47,416.119 1313.52,416.119 1315.58,416.119 1317.63,416.119 1319.68,416.119 1321.73,416.119 1323.78,416.119 1325.83,416.119 1327.88,416.119 1329.93,416.119 1331.98,416.119 1334.03,416.119 1336.08,416.119 1338.13,416.119 1340.18,416.119 1342.23,416.119 1344.28,416.119 1346.33,416.119 1348.38,416.119 1350.43,416.119 1352.48,416.119 1354.53,416.119 1356.58,416.119 1358.63,416.119 1360.68,416.119 1362.73,416.119 1364.79,416.119 1366.84,416.119 1368.89,416.119 1370.94,416.119 1372.99,416.119 1375.04,416.119 1377.09,416.119 1379.14,745.472 1381.19,1074.82 1383.24,1074.82 1385.29,1074.82 1387.34,1074.82 1389.39,1074.82 1391.44,1074.82 1393.49,1074.82 1395.54,1074.82 1397.59,1074.82 1399.64,1074.82 1401.69,1074.82 1403.74,1074.82 1405.79,1074.82 1407.84,1074.82 1409.89,1074.82 1411.94,1074.82 1414,1074.82 1416.05,1074.82 1418.1,1074.82 1420.15,1074.82 1422.2,1074.82 1424.25,1074.82 1426.3,1074.82 1428.35,1074.82 1430.4,1074.82 1432.45,1074.82 1434.5,745.472 1436.55,745.472 1438.6,745.472 1440.65,745.472 1442.7,745.472 1444.75,1074.82 1446.8,1074.82 1448.85,1074.82 1450.9,1074.82 1452.95,1074.82 1455,1074.82 1457.05,1074.82 1459.1,1074.82 1461.16,1074.82 1463.21,1074.82 1465.26,1074.82 1467.31,1074.82 1469.36,1074.82 1471.41,1074.82 1473.46,1074.82 1475.51,1074.82 1477.56,1074.82 1479.61,1074.82 1481.66,1074.82 1483.71,1074.82 1485.76,1074.82 1487.81,1074.82 1489.86,1074.82 1491.91,1074.82 1493.96,1074.82 1496.01,1074.82 1498.06,1074.82 1500.11,1074.82 1502.16,1074.82 1504.21,1074.82 1506.26,1074.82 1508.31,1074.82 1510.37,1074.82 1512.42,1074.82 1514.47,1074.82 1516.52,745.472 1518.57,745.472 1520.62,745.472 1522.67,745.472 1524.72,745.472 1526.77,416.119 1528.82,416.119 1530.87,416.119 1532.92,416.119 1534.97,416.119 1537.02,416.119 1539.07,416.119 1541.12,416.119 1543.17,416.119 1545.22,416.119 1547.27,416.119 1549.32,416.119 1551.37,416.119 1553.42,416.119 1555.47,416.119 1557.53,745.472 1559.58,745.472 1561.63,745.472 1563.68,745.472 1565.73,1074.82 1567.78,745.472 1569.83,745.472 1571.88,1074.82 1573.93,1074.82 1575.98,1074.82 1578.03,1074.82 1580.08,1074.82 1582.13,1074.82 1584.18,1074.82 1586.23,1074.82 1588.28,1074.82 1590.33,1074.82 1592.38,1074.82 1594.43,1074.82 1596.48,1074.82 1598.53,1074.82 1600.58,1074.82 1602.63,1404.18 1604.68,1404.18 1606.74,1404.18 1608.79,1404.18 1610.84,1404.18 1612.89,1404.18 1614.94,1404.18 1616.99,1404.18 1619.04,1404.18 1621.09,1404.18 1623.14,1404.18 1625.19,1404.18 1627.24,1404.18 1629.29,1404.18 1631.34,1404.18 1633.39,1404.18 1635.44,1404.18 1637.49,1404.18 1639.54,1404.18 1641.59,1404.18 1643.64,1404.18 1645.69,1404.18 1647.74,1404.18 1649.79,1404.18 1651.84,1404.18 1653.9,1404.18 1655.95,1404.18 1658,1404.18 1660.05,1404.18 1662.1,1404.18 1664.15,1404.18 1666.2,1404.18 1668.25,1404.18 1670.3,1404.18 1672.35,1404.18 1674.4,1404.18 1676.45,1404.18 1678.5,1404.18 1680.55,1404.18 1682.6,1404.18 1684.65,1404.18 1686.7,1404.18 1688.75,1404.18 1690.8,1404.18 1692.85,1404.18 1694.9,1404.18 1696.95,1404.18 1699,1404.18 1701.05,1404.18 1703.11,1404.18 1705.16,1404.18 1707.21,1404.18 1709.26,1404.18 1711.31,1404.18 1713.36,1404.18 1715.41,1404.18 1717.46,1404.18 1719.51,1404.18 1721.56,1404.18 1723.61,1404.18 1725.66,1404.18 1727.71,1404.18 1729.76,1404.18 1731.81,1404.18 1733.86,1404.18 1735.91,1404.18 1737.96,1404.18 1740.01,1404.18 1742.06,1404.18 1744.11,1404.18 1746.16,1404.18 1748.21,1404.18 1750.27,1404.18 1752.32,1404.18 1754.37,1404.18 1756.42,1404.18 1758.47,1404.18 1760.52,1404.18 1762.57,1404.18 1764.62,1404.18 1766.67,1404.18 1768.72,1404.18 1770.77,1404.18 1772.82,1404.18 1774.87,1404.18 1776.92,1404.18 1778.97,1404.18 1781.02,1404.18 1783.07,1404.18 1785.12,1404.18 1787.17,1404.18 1789.22,1404.18 1791.27,1404.18 1793.32,1404.18 1795.37,1404.18 1797.42,1404.18 1799.48,1404.18 1801.53,1404.18 1803.58,1404.18 1805.63,1404.18 1807.68,1404.18 1809.73,1404.18 1811.78,1404.18 1813.83,1404.18 1815.88,1404.18 1817.93,1404.18 1819.98,1404.18 1822.03,1404.18 1824.08,1404.18 1826.13,1404.18 1828.18,1404.18 1830.23,1404.18 1832.28,1404.18 1834.33,1404.18 1836.38,1404.18 1838.43,1404.18 1840.48,1404.18 1842.53,1404.18 1844.58,1404.18 1846.64,1404.18 1848.69,1404.18 1850.74,1404.18 1852.79,1404.18 1854.84,1404.18 1856.89,1404.18 1858.94,1404.18 1860.99,1404.18 1863.04,1404.18 1865.09,1404.18 1867.14,1404.18 1869.19,1404.18 1871.24,1404.18 1873.29,1404.18 1875.34,1404.18 1877.39,1404.18 1879.44,1404.18 1881.49,1404.18 1883.54,1404.18 1885.59,1404.18 1887.64,1404.18 1889.69,1404.18 1891.74,1404.18 1893.79,1404.18 1895.85,1404.18 1897.9,1404.18 1899.95,1404.18 1902,1404.18 1904.05,1404.18 1906.1,1074.82 1908.15,1074.82 1910.2,1074.82 1912.25,1074.82 1914.3,1074.82 1916.35,1074.82 1918.4,1074.82 1920.45,1074.82 1922.5,1074.82 1924.55,1074.82 1926.6,1074.82 1928.65,1074.82 1930.7,1074.82 1932.75,1074.82 1934.8,1074.82 1936.85,1074.82 1938.9,1074.82 1940.95,1074.82 1943.01,1404.18 1945.06,1404.18 1947.11,1404.18 1949.16,1404.18 1951.21,1404.18 1953.26,1404.18 1955.31,1404.18 1957.36,1404.18 1959.41,1404.18 1961.46,1404.18 1963.51,1404.18 1965.56,1404.18 1967.61,1404.18 1969.66,1404.18 1971.71,1404.18 1973.76,1404.18 1975.81,1404.18 1977.86,1404.18 1979.91,1404.18 1981.96,1404.18 1984.01,1404.18 1986.06,1404.18 1988.11,1404.18 1990.16,1404.18 1992.22,1404.18 1994.27,1404.18 1996.32,1404.18 1998.37,1404.18 2000.42,1404.18 2002.47,1404.18 2004.52,1404.18 2006.57,1404.18 2008.62,1404.18 2010.67,1404.18 2012.72,1404.18 2014.77,1404.18 2016.82,1404.18 2018.87,1404.18 2020.92,1404.18 2022.97,1404.18 2025.02,1404.18 2027.07,1404.18 2029.12,1404.18 2031.17,1404.18 2033.22,1404.18 2035.27,1404.18 2037.32,1404.18 2039.38,1404.18 2041.43,1404.18 2043.48,1404.18 2045.53,1404.18 2047.58,1404.18 2049.63,1404.18 2051.68,1404.18 2053.73,1404.18 2055.78,1404.18 2057.83,1074.82 2059.88,1074.82 2061.93,1074.82 2063.98,1074.82 2066.03,1074.82 2068.08,1074.82 2070.13,1074.82 2072.18,1074.82 2074.23,1074.82 2076.28,1404.18 2078.33,1404.18 2080.38,1404.18 2082.43,1404.18 2084.48,1404.18 2086.53,1404.18 2088.59,1404.18 2090.64,1404.18 2092.69,1404.18 2094.74,1404.18 2096.79,1404.18 2098.84,1404.18 2100.89,1404.18 2102.94,1404.18 2104.99,1404.18 2107.04,1404.18 2109.09,1404.18 2111.14,1404.18 2113.19,1404.18 2115.24,1404.18 2117.29,1404.18 2119.34,1404.18 2121.39,1404.18 2123.44,1404.18 2125.49,1404.18 2127.54,1404.18 2129.59,1404.18 2131.64,1404.18 2133.69,1404.18 2135.75,1404.18 2137.8,1404.18 2139.85,1404.18 2141.9,1404.18 2143.95,1404.18 2146,1404.18 2148.05,1404.18 2150.1,1404.18 2152.15,1404.18 2154.2,1404.18 2156.25,1404.18 2158.3,1404.18 2160.35,1404.18 2162.4,1404.18 2164.45,1404.18 2166.5,1404.18 2168.55,1404.18 2170.6,1404.18 2172.65,1404.18 2174.7,1404.18 2176.75,1404.18 2178.8,1404.18 2180.85,1404.18 2182.9,1404.18 2184.96,1404.18 2187.01,1404.18 2189.06,1404.18 2191.11,1404.18 2193.16,1404.18 2195.21,1404.18 2197.26,1404.18 2199.31,1404.18 2201.36,1404.18 2203.41,1404.18 2205.46,1404.18 2207.51,1404.18 2209.56,1404.18 2211.61,1404.18 2213.66,1404.18 2215.71,1404.18 2217.76,1404.18 2219.81,1404.18 2221.86,1404.18 2223.91,1404.18 2225.96,1404.18 2228.01,1404.18 2230.06,1404.18 2232.12,1404.18 2234.17,1404.18 2236.22,1404.18 2238.27,1404.18 2240.32,1404.18 2242.37,1404.18 2244.42,1404.18 2246.47,1404.18 2248.52,1404.18 2250.57,1404.18 2252.62,1404.18 2254.67,1404.18 2256.72,1404.18 2258.77,1404.18 2260.82,1404.18 2262.87,1404.18 2264.92,1404.18 2266.97,1404.18 2269.02,1404.18 2271.07,1404.18 2273.12,1404.18 2275.17,1404.18 2277.22,1404.18 2279.27,1404.18 2281.33,1404.18 2283.38,1404.18 2285.43,1404.18 2287.48,1404.18 2289.53,1404.18 2291.58,1404.18 2293.63,1404.18 2295.68,1404.18 2297.73,1404.18 2299.78,1404.18 2301.83,1404.18 2303.88,1404.18 2305.93,1404.18 2307.98,1404.18 2310.03,1404.18 2312.08,1404.18 2314.13,1404.18 2316.18,1404.18 2318.23,1404.18 2320.28,1404.18 2322.33,1404.18 2324.38,1074.82 2326.43,1074.82 2328.49,1074.82 2330.54,1074.82 2332.59,1074.82 2334.64,1074.82 2336.69,1074.82 2338.74,1074.82 2340.79,1074.82 2342.84,1074.82 2344.89,1074.82 2346.94,1074.82 2348.99,1074.82 2351.04,1074.82 2353.09,1074.82 2355.14,1074.82 2357.19,1074.82 2359.24,1074.82 2361.29,1074.82 2363.34,1074.82 2365.39,1074.82 2367.44,1404.18 2369.49,1404.18 2371.54,1404.18 2373.59,1404.18 2375.64,1404.18 2377.7,1404.18 2379.75,1404.18 2381.8,1404.18 2383.85,1404.18 2385.9,1404.18 2387.95,1404.18 2390,1404.18 2392.05,1404.18 2394.1,1404.18 2396.15,1404.18 2398.2,1404.18 2400.25,1404.18 2402.3,1404.18 2404.35,1404.18 2406.4,1404.18 2408.45,1404.18 2410.5,1404.18 2412.55,1404.18 2414.6,1404.18 2416.65,1404.18 2418.7,1404.18 2420.75,1404.18 2422.8,1404.18 2424.85,1404.18 2426.91,1404.18 2428.96,1404.18 2431.01,1404.18 2433.06,1404.18 2435.11,1404.18 2437.16,1404.18 2439.21,1404.18 2441.26,1404.18 2443.31,1404.18 2445.36,1404.18 2447.41,1404.18 2449.46,1404.18 2451.51,1404.18 2453.56,1404.18 2455.61,1404.18 2457.66,1404.18 2459.71,1404.18 2461.76,1404.18 2463.81,1404.18 2465.86,1404.18 2467.91,1404.18 2469.96,1404.18 2472.01,1404.18 2474.07,1404.18 2476.12,1404.18 2478.17,1404.18 2480.22,1404.18 2482.27,1404.18 2484.32,1404.18 2486.37,1404.18 2488.42,1404.18 2490.47,1404.18 2492.52,1404.18 2494.57,1404.18 2496.62,1404.18 2498.67,1404.18 2500.72,1404.18 2502.77,1404.18 2504.82,1404.18 2506.87,1404.18 2508.92,1404.18 2510.97,1404.18 2513.02,1404.18 2515.07,1404.18 2517.12,1404.18 2519.17,1404.18 2521.22,1404.18 2523.28,1404.18 2525.33,1404.18 2527.38,1404.18 2529.43,1404.18 2531.48,1404.18 2533.53,1404.18 2535.58,1404.18 2537.63,1404.18 2539.68,1404.18 2541.73,1404.18 2543.78,1404.18 2545.83,1404.18 2547.88,1404.18 2549.93,1404.18 2551.98,1404.18 2554.03,1404.18 2556.08,1404.18 2558.13,1074.82 2560.18,1074.82 2562.23,1074.82 2564.28,1074.82 2566.33,1074.82 2568.38,1074.82 2570.44,1074.82 2572.49,1074.82 2574.54,1074.82 2576.59,1074.82 2578.64,1074.82 2580.69,1074.82 2582.74,1074.82 2584.79,745.472 2586.84,745.472 2588.89,745.472 2590.94,745.472 2592.99,745.472 2595.04,745.472 2597.09,745.472 2599.14,745.472 2601.19,745.472 2603.24,1074.82 2605.29,1074.82 2607.34,1074.82 2609.39,1074.82 2611.44,1074.82 2613.49,1074.82 2615.54,1074.82 2617.59,1404.18 2619.65,1404.18 2621.7,1404.18 2623.75,1404.18 2625.8,1404.18 2627.85,1404.18 2629.9,1404.18 2631.95,1404.18 2634,1404.18 2636.05,1404.18 2638.1,1404.18 2640.15,1404.18 2642.2,1404.18 2644.25,1404.18 2646.3,1404.18 2648.35,1404.18 2650.4,1404.18 2652.45,1404.18 2654.5,1404.18 2656.55,1404.18 2658.6,1404.18 2660.65,1404.18 2662.7,1404.18 2664.75,1404.18 2666.81,1404.18 2668.86,1404.18 2670.91,1404.18 2672.96,1074.82 2675.01,1074.82 2677.06,1074.82 2679.11,1074.82 2681.16,1074.82 2683.21,1074.82 2685.26,1074.82 2687.31,1074.82 2689.36,1074.82 2691.41,1074.82 2693.46,1074.82 2695.51,1074.82 2697.56,1074.82 2699.61,1074.82 2701.66,1074.82 2703.71,1074.82 2705.76,1074.82 2707.81,1074.82 2709.86,1074.82 2711.91,745.472 2713.96,745.472 2716.02,745.472 2718.07,745.472 2720.12,745.472 2722.17,745.472 2724.22,745.472 2726.27,745.472 2728.32,1074.82 2730.37,1074.82 2732.42,1074.82 2734.47,1074.82 2736.52,1074.82 2738.57,1074.82 2740.62,1074.82 2742.67,1074.82 2744.72,1404.18 2746.77,1404.18 2748.82,1404.18 2750.87,1404.18 2752.92,1404.18 2754.97,1404.18 2757.02,1404.18 2759.07,1404.18 2761.12,1404.18 2763.18,1404.18 2765.23,1404.18 2767.28,1404.18 2769.33,1404.18 2771.38,1404.18 2773.43,1404.18 2775.48,1404.18 2777.53,1404.18 2779.58,1404.18 2781.63,1404.18 2783.68,1404.18 2785.73,1404.18 2787.78,1404.18 2789.83,1404.18 2791.88,1404.18 2793.93,1404.18 2795.98,1404.18 2798.03,1404.18 2800.08,1404.18 2802.13,1404.18 2804.18,1404.18 2806.23,1404.18 2808.28,1404.18 2810.33,1404.18 2812.39,1404.18 2814.44,1404.18 2816.49,1404.18 2818.54,1074.82 2820.59,1074.82 2822.64,1074.82 2824.69,1074.82 2826.74,1074.82 2828.79,1074.82 2830.84,1404.18 2832.89,1404.18 2834.94,1404.18 2836.99,1404.18 2839.04,1404.18 2841.09,1404.18 2843.14,1404.18 2845.19,1404.18 2847.24,1404.18 2849.29,1404.18 2851.34,1404.18 2853.39,1404.18 2855.44,1404.18 2857.49,1404.18 2859.55,1404.18 2861.6,1404.18 2863.65,1404.18 2865.7,1404.18 2867.75,1404.18 2869.8,1404.18 2871.85,1404.18 2873.9,1404.18 2875.95,1404.18 2878,1404.18 2880.05,1404.18 2882.1,1404.18 2884.15,1404.18 2886.2,1404.18 2888.25,1404.18 2890.3,1404.18 2892.35,1404.18 2894.4,1404.18 2896.45,1404.18 2898.5,1404.18 2900.55,1404.18 2902.6,1404.18 2904.65,1404.18 2906.7,1404.18 2908.76,1404.18 2910.81,1404.18 2912.86,1404.18 2914.91,1404.18 2916.96,1404.18 2919.01,1074.82 2921.06,1074.82 2923.11,1074.82 2925.16,1074.82 2927.21,1074.82 2929.26,1074.82 2931.31,1074.82 2933.36,1074.82 2935.41,1074.82 2937.46,1074.82 2939.51,1074.82 2941.56,1074.82 2943.61,1074.82 2945.66,1074.82 2947.71,1074.82 2949.76,1074.82 2951.81,1074.82 2953.86,1074.82 2955.92,1074.82 2957.97,1074.82 2960.02,1074.82 2962.07,1074.82 2964.12,1074.82 2966.17,1074.82 2968.22,1074.82 2970.27,1074.82 2972.32,1074.82 2974.37,1074.82 2976.42,1074.82 2978.47,1074.82 2980.52,1404.18 2982.57,1404.18 2984.62,1404.18 2986.67,1404.18 2988.72,1404.18 2990.77,1404.18 2992.82,1404.18 2994.87,1404.18 2996.92,1404.18 2998.97,1404.18 3001.02,1404.18 3003.07,1404.18 3005.13,1404.18 3007.18,1404.18 3009.23,1404.18 3011.28,1404.18 3013.33,1404.18 3015.38,1404.18 3017.43,1404.18 3019.48,1404.18 3021.53,1404.18 3023.58,1404.18 3025.63,1404.18 3027.68,1404.18 3029.73,1404.18 3031.78,1404.18 3033.83,1404.18 3035.88,1404.18 3037.93,1074.82 3039.98,1074.82 3042.03,1074.82 3044.08,1074.82 3046.13,1074.82 3048.18,1074.82 3050.23,1074.82 3052.29,1074.82 3054.34,1074.82 3056.39,1074.82 3058.44,1074.82 3060.49,1074.82 3062.54,1074.82 3064.59,1074.82 3066.64,1074.82 3068.69,1074.82 3070.74,1074.82 3072.79,1074.82 3074.84,1074.82 3076.89,1074.82 3078.94,745.472 3080.99,745.472 3083.04,745.472 3085.09,745.472 3087.14,745.472 3089.19,745.472 3091.24,745.472 3093.29,745.472 3095.34,745.472 3097.39,745.472 3099.44,745.472 3101.5,745.472 3103.55,745.472 3105.6,416.119 3107.65,416.119 3109.7,416.119 3111.75,416.119 3113.8,1074.82 3115.85,1074.82 3117.9,1074.82 3119.95,1074.82 3122,1074.82 3124.05,1074.82 3126.1,1074.82 3128.15,1074.82 3130.2,1074.82 3132.25,1074.82 3134.3,1074.82 3136.35,1074.82 3138.4,1074.82 3140.45,1074.82 3142.5,1074.82 3144.55,1074.82 3146.6,1074.82 3148.66,1074.82 3150.71,1074.82 3152.76,1074.82 "/>
<path clip-path="url(#clip070)" d="M2726.1 197.473 L3051.67 197.473 L3051.67 93.7926 L2726.1 93.7926  Z" fill="#ffffff" fill-rule="evenodd" fill-opacity="1"/>
<polyline clip-path="url(#clip070)" style="stroke:#000000; stroke-linecap:round; stroke-linejoin:round; stroke-width:4; stroke-opacity:1; fill:none" points="2726.1,197.473 3051.67,197.473 3051.67,93.7926 2726.1,93.7926 2726.1,197.473 "/>
<polyline clip-path="url(#clip070)" style="stroke:#009af9; stroke-linecap:round; stroke-linejoin:round; stroke-width:8; stroke-opacity:1; fill:none" points="2759.79,145.633 2961.96,145.633 "/>
<path clip-path="url(#clip070)" d="M3000.34 132.195 L3000.34 145.181 L3006.22 145.181 Q3009.48 145.181 3011.26 143.491 Q3013.04 141.802 3013.04 138.677 Q3013.04 135.575 3011.26 133.885 Q3009.48 132.195 3006.22 132.195 L3000.34 132.195 M2995.66 128.353 L3006.22 128.353 Q3012.03 128.353 3014.99 130.991 Q3017.97 133.607 3017.97 138.677 Q3017.97 143.792 3014.99 146.408 Q3012.03 149.024 3006.22 149.024 L3000.34 149.024 L3000.34 162.913 L2995.66 162.913 L2995.66 128.353 Z" fill="#000000" fill-rule="nonzero" fill-opacity="1" /></svg>
