<?xml version="1.0" encoding="utf-8"?>
<svg xmlns="http://www.w3.org/2000/svg" xmlns:xlink="http://www.w3.org/1999/xlink" width="800" height="400" viewBox="0 0 3200 1600">
<defs>
  <clipPath id="clip550">
    <rect x="0" y="0" width="3200" height="1600"/>
  </clipPath>
</defs>
<path clip-path="url(#clip550)" d="M0 1600 L3200 1600 L3200 0 L0 0  Z" fill="#ffffff" fill-rule="evenodd" fill-opacity="1"/>
<defs>
  <clipPath id="clip551">
    <rect x="640" y="0" width="2241" height="1600"/>
  </clipPath>
</defs>
<path clip-path="url(#clip550)" d="M241.518 1396.46 L3152.76 1396.46 L3152.76 47.2441 L241.518 47.2441  Z" fill="#ffffff" fill-rule="evenodd" fill-opacity="1"/>
<defs>
  <clipPath id="clip552">
    <rect x="241" y="47" width="2912" height="1350"/>
  </clipPath>
</defs>
<polyline clip-path="url(#clip552)" style="stroke:#000000; stroke-linecap:round; stroke-linejoin:round; stroke-width:2; stroke-opacity:0.1; fill:none" points="241.518,1396.46 241.518,47.2441 "/>
<polyline clip-path="url(#clip552)" style="stroke:#000000; stroke-linecap:round; stroke-linejoin:round; stroke-width:2; stroke-opacity:0.1; fill:none" points="1063.48,1396.46 1063.48,47.2441 "/>
<polyline clip-path="url(#clip552)" style="stroke:#000000; stroke-linecap:round; stroke-linejoin:round; stroke-width:2; stroke-opacity:0.1; fill:none" points="1885.44,1396.46 1885.44,47.2441 "/>
<polyline clip-path="url(#clip552)" style="stroke:#000000; stroke-linecap:round; stroke-linejoin:round; stroke-width:2; stroke-opacity:0.1; fill:none" points="2707.39,1396.46 2707.39,47.2441 "/>
<polyline clip-path="url(#clip552)" style="stroke:#000000; stroke-linecap:round; stroke-linejoin:round; stroke-width:2; stroke-opacity:0.1; fill:none" points="241.518,1396.46 241.518,47.2441 "/>
<polyline clip-path="url(#clip552)" style="stroke:#000000; stroke-linecap:round; stroke-linejoin:round; stroke-width:2; stroke-opacity:0.1; fill:none" points="1063.48,1396.46 1063.48,47.2441 "/>
<polyline clip-path="url(#clip552)" style="stroke:#000000; stroke-linecap:round; stroke-linejoin:round; stroke-width:2; stroke-opacity:0.1; fill:none" points="1885.44,1396.46 1885.44,47.2441 "/>
<polyline clip-path="url(#clip552)" style="stroke:#000000; stroke-linecap:round; stroke-linejoin:round; stroke-width:2; stroke-opacity:0.1; fill:none" points="2707.39,1396.46 2707.39,47.2441 "/>
<polyline clip-path="url(#clip552)" style="stroke:#000000; stroke-linecap:round; stroke-linejoin:round; stroke-width:2; stroke-opacity:0.1; fill:none" points="241.518,1200.76 3152.76,1200.76 "/>
<polyline clip-path="url(#clip552)" style="stroke:#000000; stroke-linecap:round; stroke-linejoin:round; stroke-width:2; stroke-opacity:0.1; fill:none" points="241.518,958.884 3152.76,958.884 "/>
<polyline clip-path="url(#clip552)" style="stroke:#000000; stroke-linecap:round; stroke-linejoin:round; stroke-width:2; stroke-opacity:0.1; fill:none" points="241.518,717.012 3152.76,717.012 "/>
<polyline clip-path="url(#clip552)" style="stroke:#000000; stroke-linecap:round; stroke-linejoin:round; stroke-width:2; stroke-opacity:0.1; fill:none" points="241.518,475.141 3152.76,475.141 "/>
<polyline clip-path="url(#clip552)" style="stroke:#000000; stroke-linecap:round; stroke-linejoin:round; stroke-width:2; stroke-opacity:0.1; fill:none" points="241.518,233.269 3152.76,233.269 "/>
<polyline clip-path="url(#clip552)" style="stroke:#000000; stroke-linecap:round; stroke-linejoin:round; stroke-width:2; stroke-opacity:0.1; fill:none" points="241.518,1200.76 3152.76,1200.76 "/>
<polyline clip-path="url(#clip552)" style="stroke:#000000; stroke-linecap:round; stroke-linejoin:round; stroke-width:2; stroke-opacity:0.1; fill:none" points="241.518,958.884 3152.76,958.884 "/>
<polyline clip-path="url(#clip552)" style="stroke:#000000; stroke-linecap:round; stroke-linejoin:round; stroke-width:2; stroke-opacity:0.1; fill:none" points="241.518,717.012 3152.76,717.012 "/>
<polyline clip-path="url(#clip552)" style="stroke:#000000; stroke-linecap:round; stroke-linejoin:round; stroke-width:2; stroke-opacity:0.1; fill:none" points="241.518,475.141 3152.76,475.141 "/>
<polyline clip-path="url(#clip552)" style="stroke:#000000; stroke-linecap:round; stroke-linejoin:round; stroke-width:2; stroke-opacity:0.1; fill:none" points="241.518,233.269 3152.76,233.269 "/>
<polyline clip-path="url(#clip550)" style="stroke:#000000; stroke-linecap:round; stroke-linejoin:round; stroke-width:4; stroke-opacity:1; fill:none" points="241.518,1396.46 3152.76,1396.46 "/>
<polyline clip-path="url(#clip550)" style="stroke:#000000; stroke-linecap:round; stroke-linejoin:round; stroke-width:4; stroke-opacity:1; fill:none" points="241.518,47.2441 3152.76,47.2441 "/>
<polyline clip-path="url(#clip550)" style="stroke:#000000; stroke-linecap:round; stroke-linejoin:round; stroke-width:4; stroke-opacity:1; fill:none" points="241.518,1396.46 241.518,1377.56 "/>
<polyline clip-path="url(#clip550)" style="stroke:#000000; stroke-linecap:round; stroke-linejoin:round; stroke-width:4; stroke-opacity:1; fill:none" points="1063.48,1396.46 1063.48,1377.56 "/>
<polyline clip-path="url(#clip550)" style="stroke:#000000; stroke-linecap:round; stroke-linejoin:round; stroke-width:4; stroke-opacity:1; fill:none" points="1885.44,1396.46 1885.44,1377.56 "/>
<polyline clip-path="url(#clip550)" style="stroke:#000000; stroke-linecap:round; stroke-linejoin:round; stroke-width:4; stroke-opacity:1; fill:none" points="2707.39,1396.46 2707.39,1377.56 "/>
<polyline clip-path="url(#clip550)" style="stroke:#000000; stroke-linecap:round; stroke-linejoin:round; stroke-width:4; stroke-opacity:1; fill:none" points="241.518,47.2441 241.518,66.1417 "/>
<polyline clip-path="url(#clip550)" style="stroke:#000000; stroke-linecap:round; stroke-linejoin:round; stroke-width:4; stroke-opacity:1; fill:none" points="1063.48,47.2441 1063.48,66.1417 "/>
<polyline clip-path="url(#clip550)" style="stroke:#000000; stroke-linecap:round; stroke-linejoin:round; stroke-width:4; stroke-opacity:1; fill:none" points="1885.44,47.2441 1885.44,66.1417 "/>
<polyline clip-path="url(#clip550)" style="stroke:#000000; stroke-linecap:round; stroke-linejoin:round; stroke-width:4; stroke-opacity:1; fill:none" points="2707.39,47.2441 2707.39,66.1417 "/>
<path clip-path="url(#clip550)" d="M218.902 1433.77 Q215.291 1433.77 213.463 1437.34 Q211.657 1440.88 211.657 1448.01 Q211.657 1455.12 213.463 1458.68 Q215.291 1462.22 218.902 1462.22 Q222.537 1462.22 224.342 1458.68 Q226.171 1455.12 226.171 1448.01 Q226.171 1440.88 224.342 1437.34 Q222.537 1433.77 218.902 1433.77 M218.902 1430.07 Q224.713 1430.07 227.768 1434.68 Q230.847 1439.26 230.847 1448.01 Q230.847 1456.74 227.768 1461.34 Q224.713 1465.93 218.902 1465.93 Q213.092 1465.93 210.014 1461.34 Q206.958 1456.74 206.958 1448.01 Q206.958 1439.26 210.014 1434.68 Q213.092 1430.07 218.902 1430.07 Z" fill="#000000" fill-rule="nonzero" fill-opacity="1" /><path clip-path="url(#clip550)" d="M239.064 1459.38 L243.949 1459.38 L243.949 1465.26 L239.064 1465.26 L239.064 1459.38 Z" fill="#000000" fill-rule="nonzero" fill-opacity="1" /><path clip-path="url(#clip550)" d="M264.134 1433.77 Q260.523 1433.77 258.694 1437.34 Q256.888 1440.88 256.888 1448.01 Q256.888 1455.12 258.694 1458.68 Q260.523 1462.22 264.134 1462.22 Q267.768 1462.22 269.574 1458.68 Q271.402 1455.12 271.402 1448.01 Q271.402 1440.88 269.574 1437.34 Q267.768 1433.77 264.134 1433.77 M264.134 1430.07 Q269.944 1430.07 272.999 1434.68 Q276.078 1439.26 276.078 1448.01 Q276.078 1456.74 272.999 1461.34 Q269.944 1465.93 264.134 1465.93 Q258.324 1465.93 255.245 1461.34 Q252.189 1456.74 252.189 1448.01 Q252.189 1439.26 255.245 1434.68 Q258.324 1430.07 264.134 1430.07 Z" fill="#000000" fill-rule="nonzero" fill-opacity="1" /><path clip-path="url(#clip550)" d="M1041.66 1433.77 Q1038.05 1433.77 1036.22 1437.34 Q1034.41 1440.88 1034.41 1448.01 Q1034.41 1455.12 1036.22 1458.68 Q1038.05 1462.22 1041.66 1462.22 Q1045.29 1462.22 1047.1 1458.68 Q1048.93 1455.12 1048.93 1448.01 Q1048.93 1440.88 1047.1 1437.34 Q1045.29 1433.77 1041.66 1433.77 M1041.66 1430.07 Q1047.47 1430.07 1050.53 1434.68 Q1053.6 1439.26 1053.6 1448.01 Q1053.6 1456.74 1050.53 1461.34 Q1047.47 1465.93 1041.66 1465.93 Q1035.85 1465.93 1032.77 1461.34 Q1029.72 1456.74 1029.72 1448.01 Q1029.72 1439.26 1032.77 1434.68 Q1035.85 1430.07 1041.66 1430.07 Z" fill="#000000" fill-rule="nonzero" fill-opacity="1" /><path clip-path="url(#clip550)" d="M1061.82 1459.38 L1066.71 1459.38 L1066.71 1465.26 L1061.82 1465.26 L1061.82 1459.38 Z" fill="#000000" fill-rule="nonzero" fill-opacity="1" /><path clip-path="url(#clip550)" d="M1080.92 1461.32 L1097.24 1461.32 L1097.24 1465.26 L1075.29 1465.26 L1075.29 1461.32 Q1077.96 1458.57 1082.54 1453.94 Q1087.15 1449.28 1088.33 1447.94 Q1090.57 1445.42 1091.45 1443.68 Q1092.35 1441.92 1092.35 1440.23 Q1092.35 1437.48 1090.41 1435.74 Q1088.49 1434.01 1085.39 1434.01 Q1083.19 1434.01 1080.73 1434.77 Q1078.3 1435.53 1075.53 1437.08 L1075.53 1432.36 Q1078.35 1431.23 1080.8 1430.65 Q1083.26 1430.07 1085.29 1430.07 Q1090.66 1430.07 1093.86 1432.76 Q1097.05 1435.44 1097.05 1439.93 Q1097.05 1442.06 1096.24 1443.98 Q1095.46 1445.88 1093.35 1448.47 Q1092.77 1449.14 1089.67 1452.36 Q1086.57 1455.56 1080.92 1461.32 Z" fill="#000000" fill-rule="nonzero" fill-opacity="1" /><path clip-path="url(#clip550)" d="M1862.58 1433.77 Q1858.97 1433.77 1857.14 1437.34 Q1855.33 1440.88 1855.33 1448.01 Q1855.33 1455.12 1857.14 1458.68 Q1858.97 1462.22 1862.58 1462.22 Q1866.21 1462.22 1868.02 1458.68 Q1869.85 1455.12 1869.85 1448.01 Q1869.85 1440.88 1868.02 1437.34 Q1866.21 1433.77 1862.58 1433.77 M1862.58 1430.07 Q1868.39 1430.07 1871.44 1434.68 Q1874.52 1439.26 1874.52 1448.01 Q1874.52 1456.74 1871.44 1461.34 Q1868.39 1465.93 1862.58 1465.93 Q1856.77 1465.93 1853.69 1461.34 Q1850.63 1456.74 1850.63 1448.01 Q1850.63 1439.26 1853.69 1434.68 Q1856.77 1430.07 1862.58 1430.07 Z" fill="#000000" fill-rule="nonzero" fill-opacity="1" /><path clip-path="url(#clip550)" d="M1882.74 1459.38 L1887.62 1459.38 L1887.62 1465.26 L1882.74 1465.26 L1882.74 1459.38 Z" fill="#000000" fill-rule="nonzero" fill-opacity="1" /><path clip-path="url(#clip550)" d="M1910.66 1434.77 L1898.85 1453.22 L1910.66 1453.22 L1910.66 1434.77 M1909.43 1430.7 L1915.31 1430.7 L1915.31 1453.22 L1920.24 1453.22 L1920.24 1457.11 L1915.31 1457.11 L1915.31 1465.26 L1910.66 1465.26 L1910.66 1457.11 L1895.05 1457.11 L1895.05 1452.59 L1909.43 1430.7 Z" fill="#000000" fill-rule="nonzero" fill-opacity="1" /><path clip-path="url(#clip550)" d="M2684.7 1433.77 Q2681.09 1433.77 2679.26 1437.34 Q2677.45 1440.88 2677.45 1448.01 Q2677.45 1455.12 2679.26 1458.68 Q2681.09 1462.22 2684.7 1462.22 Q2688.33 1462.22 2690.14 1458.68 Q2691.97 1455.12 2691.97 1448.01 Q2691.97 1440.88 2690.14 1437.34 Q2688.33 1433.77 2684.7 1433.77 M2684.7 1430.07 Q2690.51 1430.07 2693.56 1434.68 Q2696.64 1439.26 2696.64 1448.01 Q2696.64 1456.74 2693.56 1461.34 Q2690.51 1465.93 2684.7 1465.93 Q2678.89 1465.93 2675.81 1461.34 Q2672.75 1456.74 2672.75 1448.01 Q2672.75 1439.26 2675.81 1434.68 Q2678.89 1430.07 2684.7 1430.07 Z" fill="#000000" fill-rule="nonzero" fill-opacity="1" /><path clip-path="url(#clip550)" d="M2704.86 1459.38 L2709.74 1459.38 L2709.74 1465.26 L2704.86 1465.26 L2704.86 1459.38 Z" fill="#000000" fill-rule="nonzero" fill-opacity="1" /><path clip-path="url(#clip550)" d="M2730.51 1446.11 Q2727.36 1446.11 2725.51 1448.27 Q2723.68 1450.42 2723.68 1454.17 Q2723.68 1457.89 2725.51 1460.07 Q2727.36 1462.22 2730.51 1462.22 Q2733.66 1462.22 2735.48 1460.07 Q2737.34 1457.89 2737.34 1454.17 Q2737.34 1450.42 2735.48 1448.27 Q2733.66 1446.11 2730.51 1446.11 M2739.79 1431.46 L2739.79 1435.72 Q2738.03 1434.89 2736.23 1434.45 Q2734.44 1434.01 2732.68 1434.01 Q2728.05 1434.01 2725.6 1437.13 Q2723.17 1440.26 2722.82 1446.58 Q2724.19 1444.56 2726.25 1443.5 Q2728.31 1442.41 2730.79 1442.41 Q2735.99 1442.41 2739 1445.58 Q2742.04 1448.73 2742.04 1454.17 Q2742.04 1459.49 2738.89 1462.71 Q2735.74 1465.93 2730.51 1465.93 Q2724.51 1465.93 2721.34 1461.34 Q2718.17 1456.74 2718.17 1448.01 Q2718.17 1439.82 2722.06 1434.95 Q2725.95 1430.07 2732.5 1430.07 Q2734.26 1430.07 2736.04 1430.42 Q2737.85 1430.77 2739.79 1431.46 Z" fill="#000000" fill-rule="nonzero" fill-opacity="1" /><path clip-path="url(#clip550)" d="M1696.2 1507.55 L1696.2 1517.67 L1708.26 1517.67 L1708.26 1522.22 L1696.2 1522.22 L1696.2 1541.58 Q1696.2 1545.94 1697.38 1547.18 Q1698.59 1548.42 1702.25 1548.42 L1708.26 1548.42 L1708.26 1553.32 L1702.25 1553.32 Q1695.47 1553.32 1692.89 1550.81 Q1690.31 1548.26 1690.31 1541.58 L1690.31 1522.22 L1686.01 1522.22 L1686.01 1517.67 L1690.31 1517.67 L1690.31 1507.55 L1696.2 1507.55 Z" fill="#000000" fill-rule="nonzero" fill-opacity="1" /><polyline clip-path="url(#clip550)" style="stroke:#000000; stroke-linecap:round; stroke-linejoin:round; stroke-width:4; stroke-opacity:1; fill:none" points="241.518,1396.46 241.518,47.2441 "/>
<polyline clip-path="url(#clip550)" style="stroke:#000000; stroke-linecap:round; stroke-linejoin:round; stroke-width:4; stroke-opacity:1; fill:none" points="3152.76,1396.46 3152.76,47.2441 "/>
<polyline clip-path="url(#clip550)" style="stroke:#000000; stroke-linecap:round; stroke-linejoin:round; stroke-width:4; stroke-opacity:1; fill:none" points="241.518,1200.76 260.416,1200.76 "/>
<polyline clip-path="url(#clip550)" style="stroke:#000000; stroke-linecap:round; stroke-linejoin:round; stroke-width:4; stroke-opacity:1; fill:none" points="241.518,958.884 260.416,958.884 "/>
<polyline clip-path="url(#clip550)" style="stroke:#000000; stroke-linecap:round; stroke-linejoin:round; stroke-width:4; stroke-opacity:1; fill:none" points="241.518,717.012 260.416,717.012 "/>
<polyline clip-path="url(#clip550)" style="stroke:#000000; stroke-linecap:round; stroke-linejoin:round; stroke-width:4; stroke-opacity:1; fill:none" points="241.518,475.141 260.416,475.141 "/>
<polyline clip-path="url(#clip550)" style="stroke:#000000; stroke-linecap:round; stroke-linejoin:round; stroke-width:4; stroke-opacity:1; fill:none" points="241.518,233.269 260.416,233.269 "/>
<polyline clip-path="url(#clip550)" style="stroke:#000000; stroke-linecap:round; stroke-linejoin:round; stroke-width:4; stroke-opacity:1; fill:none" points="3152.76,1200.76 3133.86,1200.76 "/>
<polyline clip-path="url(#clip550)" style="stroke:#000000; stroke-linecap:round; stroke-linejoin:round; stroke-width:4; stroke-opacity:1; fill:none" points="3152.76,958.884 3133.86,958.884 "/>
<polyline clip-path="url(#clip550)" style="stroke:#000000; stroke-linecap:round; stroke-linejoin:round; stroke-width:4; stroke-opacity:1; fill:none" points="3152.76,717.012 3133.86,717.012 "/>
<polyline clip-path="url(#clip550)" style="stroke:#000000; stroke-linecap:round; stroke-linejoin:round; stroke-width:4; stroke-opacity:1; fill:none" points="3152.76,475.141 3133.86,475.141 "/>
<polyline clip-path="url(#clip550)" style="stroke:#000000; stroke-linecap:round; stroke-linejoin:round; stroke-width:4; stroke-opacity:1; fill:none" points="3152.76,233.269 3133.86,233.269 "/>
<path clip-path="url(#clip550)" d="M106.181 1186.56 Q102.57 1186.56 100.741 1190.12 Q98.9353 1193.66 98.9353 1200.79 Q98.9353 1207.9 100.741 1211.46 Q102.57 1215 106.181 1215 Q109.815 1215 111.62 1211.46 Q113.449 1207.9 113.449 1200.79 Q113.449 1193.66 111.62 1190.12 Q109.815 1186.56 106.181 1186.56 M106.181 1182.85 Q111.991 1182.85 115.046 1187.46 Q118.125 1192.04 118.125 1200.79 Q118.125 1209.52 115.046 1214.12 Q111.991 1218.71 106.181 1218.71 Q100.37 1218.71 97.2918 1214.12 Q94.2362 1209.52 94.2362 1200.79 Q94.2362 1192.04 97.2918 1187.46 Q100.37 1182.85 106.181 1182.85 Z" fill="#000000" fill-rule="nonzero" fill-opacity="1" /><path clip-path="url(#clip550)" d="M126.343 1212.16 L131.227 1212.16 L131.227 1218.04 L126.343 1218.04 L126.343 1212.16 Z" fill="#000000" fill-rule="nonzero" fill-opacity="1" /><path clip-path="url(#clip550)" d="M151.412 1186.56 Q147.801 1186.56 145.972 1190.12 Q144.167 1193.66 144.167 1200.79 Q144.167 1207.9 145.972 1211.46 Q147.801 1215 151.412 1215 Q155.046 1215 156.852 1211.46 Q158.68 1207.9 158.68 1200.79 Q158.68 1193.66 156.852 1190.12 Q155.046 1186.56 151.412 1186.56 M151.412 1182.85 Q157.222 1182.85 160.278 1187.46 Q163.356 1192.04 163.356 1200.79 Q163.356 1209.52 160.278 1214.12 Q157.222 1218.71 151.412 1218.71 Q145.602 1218.71 142.523 1214.12 Q139.467 1209.52 139.467 1200.79 Q139.467 1192.04 142.523 1187.46 Q145.602 1182.85 151.412 1182.85 Z" fill="#000000" fill-rule="nonzero" fill-opacity="1" /><path clip-path="url(#clip550)" d="M181.574 1186.56 Q177.963 1186.56 176.134 1190.12 Q174.328 1193.66 174.328 1200.79 Q174.328 1207.9 176.134 1211.46 Q177.963 1215 181.574 1215 Q185.208 1215 187.014 1211.46 Q188.842 1207.9 188.842 1200.79 Q188.842 1193.66 187.014 1190.12 Q185.208 1186.56 181.574 1186.56 M181.574 1182.85 Q187.384 1182.85 190.439 1187.46 Q193.518 1192.04 193.518 1200.79 Q193.518 1209.52 190.439 1214.12 Q187.384 1218.71 181.574 1218.71 Q175.764 1218.71 172.685 1214.12 Q169.629 1209.52 169.629 1200.79 Q169.629 1192.04 172.685 1187.46 Q175.764 1182.85 181.574 1182.85 Z" fill="#000000" fill-rule="nonzero" fill-opacity="1" /><path clip-path="url(#clip550)" d="M107.176 944.683 Q103.565 944.683 101.736 948.248 Q99.9306 951.79 99.9306 958.919 Q99.9306 966.026 101.736 969.59 Q103.565 973.132 107.176 973.132 Q110.81 973.132 112.616 969.59 Q114.444 966.026 114.444 958.919 Q114.444 951.79 112.616 948.248 Q110.81 944.683 107.176 944.683 M107.176 940.979 Q112.986 940.979 116.042 945.586 Q119.12 950.169 119.12 958.919 Q119.12 967.646 116.042 972.252 Q112.986 976.836 107.176 976.836 Q101.366 976.836 98.2871 972.252 Q95.2316 967.646 95.2316 958.919 Q95.2316 950.169 98.2871 945.586 Q101.366 940.979 107.176 940.979 Z" fill="#000000" fill-rule="nonzero" fill-opacity="1" /><path clip-path="url(#clip550)" d="M127.338 970.285 L132.222 970.285 L132.222 976.164 L127.338 976.164 L127.338 970.285 Z" fill="#000000" fill-rule="nonzero" fill-opacity="1" /><path clip-path="url(#clip550)" d="M146.435 972.229 L162.754 972.229 L162.754 976.164 L140.81 976.164 L140.81 972.229 Q143.472 969.475 148.055 964.845 Q152.662 960.192 153.842 958.85 Q156.088 956.327 156.967 954.59 Q157.87 952.831 157.87 951.141 Q157.87 948.387 155.926 946.651 Q154.004 944.915 150.903 944.915 Q148.704 944.915 146.25 945.679 Q143.819 946.442 141.042 947.993 L141.042 943.271 Q143.866 942.137 146.319 941.558 Q148.773 940.979 150.81 940.979 Q156.18 940.979 159.375 943.665 Q162.569 946.35 162.569 950.841 Q162.569 952.97 161.759 954.891 Q160.972 956.79 158.866 959.382 Q158.287 960.053 155.185 963.271 Q152.083 966.465 146.435 972.229 Z" fill="#000000" fill-rule="nonzero" fill-opacity="1" /><path clip-path="url(#clip550)" d="M172.615 941.604 L190.972 941.604 L190.972 945.54 L176.898 945.54 L176.898 954.012 Q177.916 953.665 178.935 953.503 Q179.953 953.317 180.972 953.317 Q186.759 953.317 190.138 956.489 Q193.518 959.66 193.518 965.077 Q193.518 970.655 190.046 973.757 Q186.574 976.836 180.254 976.836 Q178.078 976.836 175.81 976.465 Q173.564 976.095 171.157 975.354 L171.157 970.655 Q173.24 971.789 175.463 972.345 Q177.685 972.901 180.162 972.901 Q184.166 972.901 186.504 970.794 Q188.842 968.688 188.842 965.077 Q188.842 961.465 186.504 959.359 Q184.166 957.253 180.162 957.253 Q178.287 957.253 176.412 957.669 Q174.56 958.086 172.615 958.965 L172.615 941.604 Z" fill="#000000" fill-rule="nonzero" fill-opacity="1" /><path clip-path="url(#clip550)" d="M106.181 702.811 Q102.57 702.811 100.741 706.376 Q98.9353 709.918 98.9353 717.047 Q98.9353 724.154 100.741 727.718 Q102.57 731.26 106.181 731.26 Q109.815 731.26 111.62 727.718 Q113.449 724.154 113.449 717.047 Q113.449 709.918 111.62 706.376 Q109.815 702.811 106.181 702.811 M106.181 699.107 Q111.991 699.107 115.046 703.714 Q118.125 708.297 118.125 717.047 Q118.125 725.774 115.046 730.38 Q111.991 734.964 106.181 734.964 Q100.37 734.964 97.2918 730.38 Q94.2362 725.774 94.2362 717.047 Q94.2362 708.297 97.2918 703.714 Q100.37 699.107 106.181 699.107 Z" fill="#000000" fill-rule="nonzero" fill-opacity="1" /><path clip-path="url(#clip550)" d="M126.343 728.413 L131.227 728.413 L131.227 734.292 L126.343 734.292 L126.343 728.413 Z" fill="#000000" fill-rule="nonzero" fill-opacity="1" /><path clip-path="url(#clip550)" d="M141.458 699.732 L159.815 699.732 L159.815 703.668 L145.741 703.668 L145.741 712.14 Q146.759 711.793 147.778 711.631 Q148.796 711.445 149.815 711.445 Q155.602 711.445 158.981 714.617 Q162.361 717.788 162.361 723.205 Q162.361 728.783 158.889 731.885 Q155.416 734.964 149.097 734.964 Q146.921 734.964 144.653 734.593 Q142.407 734.223 140 733.482 L140 728.783 Q142.083 729.918 144.305 730.473 Q146.528 731.029 149.004 731.029 Q153.009 731.029 155.347 728.922 Q157.685 726.816 157.685 723.205 Q157.685 719.593 155.347 717.487 Q153.009 715.381 149.004 715.381 Q147.129 715.381 145.254 715.797 Q143.403 716.214 141.458 717.093 L141.458 699.732 Z" fill="#000000" fill-rule="nonzero" fill-opacity="1" /><path clip-path="url(#clip550)" d="M181.574 702.811 Q177.963 702.811 176.134 706.376 Q174.328 709.918 174.328 717.047 Q174.328 724.154 176.134 727.718 Q177.963 731.26 181.574 731.26 Q185.208 731.26 187.014 727.718 Q188.842 724.154 188.842 717.047 Q188.842 709.918 187.014 706.376 Q185.208 702.811 181.574 702.811 M181.574 699.107 Q187.384 699.107 190.439 703.714 Q193.518 708.297 193.518 717.047 Q193.518 725.774 190.439 730.38 Q187.384 734.964 181.574 734.964 Q175.764 734.964 172.685 730.38 Q169.629 725.774 169.629 717.047 Q169.629 708.297 172.685 703.714 Q175.764 699.107 181.574 699.107 Z" fill="#000000" fill-rule="nonzero" fill-opacity="1" /><path clip-path="url(#clip550)" d="M107.176 460.939 Q103.565 460.939 101.736 464.504 Q99.9306 468.046 99.9306 475.175 Q99.9306 482.282 101.736 485.846 Q103.565 489.388 107.176 489.388 Q110.81 489.388 112.616 485.846 Q114.444 482.282 114.444 475.175 Q114.444 468.046 112.616 464.504 Q110.81 460.939 107.176 460.939 M107.176 457.236 Q112.986 457.236 116.042 461.842 Q119.12 466.425 119.12 475.175 Q119.12 483.902 116.042 488.508 Q112.986 493.092 107.176 493.092 Q101.366 493.092 98.2871 488.508 Q95.2316 483.902 95.2316 475.175 Q95.2316 466.425 98.2871 461.842 Q101.366 457.236 107.176 457.236 Z" fill="#000000" fill-rule="nonzero" fill-opacity="1" /><path clip-path="url(#clip550)" d="M127.338 486.541 L132.222 486.541 L132.222 492.421 L127.338 492.421 L127.338 486.541 Z" fill="#000000" fill-rule="nonzero" fill-opacity="1" /><path clip-path="url(#clip550)" d="M141.227 457.861 L163.449 457.861 L163.449 459.851 L150.903 492.421 L146.018 492.421 L157.824 461.796 L141.227 461.796 L141.227 457.861 Z" fill="#000000" fill-rule="nonzero" fill-opacity="1" /><path clip-path="url(#clip550)" d="M172.615 457.861 L190.972 457.861 L190.972 461.796 L176.898 461.796 L176.898 470.268 Q177.916 469.921 178.935 469.759 Q179.953 469.573 180.972 469.573 Q186.759 469.573 190.138 472.745 Q193.518 475.916 193.518 481.333 Q193.518 486.911 190.046 490.013 Q186.574 493.092 180.254 493.092 Q178.078 493.092 175.81 492.721 Q173.564 492.351 171.157 491.61 L171.157 486.911 Q173.24 488.046 175.463 488.601 Q177.685 489.157 180.162 489.157 Q184.166 489.157 186.504 487.05 Q188.842 484.944 188.842 481.333 Q188.842 477.722 186.504 475.615 Q184.166 473.509 180.162 473.509 Q178.287 473.509 176.412 473.925 Q174.56 474.342 172.615 475.222 L172.615 457.861 Z" fill="#000000" fill-rule="nonzero" fill-opacity="1" /><path clip-path="url(#clip550)" d="M96.9908 246.613 L104.63 246.613 L104.63 220.248 L96.3195 221.914 L96.3195 217.655 L104.583 215.989 L109.259 215.989 L109.259 246.613 L116.898 246.613 L116.898 250.549 L96.9908 250.549 L96.9908 246.613 Z" fill="#000000" fill-rule="nonzero" fill-opacity="1" /><path clip-path="url(#clip550)" d="M126.343 244.669 L131.227 244.669 L131.227 250.549 L126.343 250.549 L126.343 244.669 Z" fill="#000000" fill-rule="nonzero" fill-opacity="1" /><path clip-path="url(#clip550)" d="M151.412 219.067 Q147.801 219.067 145.972 222.632 Q144.167 226.174 144.167 233.303 Q144.167 240.41 145.972 243.975 Q147.801 247.516 151.412 247.516 Q155.046 247.516 156.852 243.975 Q158.68 240.41 158.68 233.303 Q158.68 226.174 156.852 222.632 Q155.046 219.067 151.412 219.067 M151.412 215.364 Q157.222 215.364 160.278 219.97 Q163.356 224.553 163.356 233.303 Q163.356 242.03 160.278 246.637 Q157.222 251.22 151.412 251.22 Q145.602 251.22 142.523 246.637 Q139.467 242.03 139.467 233.303 Q139.467 224.553 142.523 219.97 Q145.602 215.364 151.412 215.364 Z" fill="#000000" fill-rule="nonzero" fill-opacity="1" /><path clip-path="url(#clip550)" d="M181.574 219.067 Q177.963 219.067 176.134 222.632 Q174.328 226.174 174.328 233.303 Q174.328 240.41 176.134 243.975 Q177.963 247.516 181.574 247.516 Q185.208 247.516 187.014 243.975 Q188.842 240.41 188.842 233.303 Q188.842 226.174 187.014 222.632 Q185.208 219.067 181.574 219.067 M181.574 215.364 Q187.384 215.364 190.439 219.97 Q193.518 224.553 193.518 233.303 Q193.518 242.03 190.439 246.637 Q187.384 251.22 181.574 251.22 Q175.764 251.22 172.685 246.637 Q169.629 242.03 169.629 233.303 Q169.629 224.553 172.685 219.97 Q175.764 215.364 181.574 215.364 Z" fill="#000000" fill-rule="nonzero" fill-opacity="1" /><polyline clip-path="url(#clip552)" style="stroke:#009af9; stroke-linecap:round; stroke-linejoin:round; stroke-width:8; stroke-opacity:1; fill:none" points="241.518,881.485 241.518,881.373 241.518,881.399 241.518,881.488 241.518,881.481 241.518,882.041 241.519,882.494 241.519,882 241.519,882.297 241.519,881.989 241.519,881.458 241.519,882.108 241.519,881.73 241.52,881.409 241.52,881.694 241.52,881.485 241.52,881.334 241.521,880.897 241.521,881.582 241.522,882.203 241.522,880.98 241.523,882.244 241.523,880.992 241.524,882.167 241.525,880.874 241.526,880.823 241.526,880.909 241.528,881.281 241.529,883.009 241.53,881.795 241.532,882.002 241.534,885.221 241.536,884.325 241.538,883.246 241.54,885.183 241.543,887.62 241.546,887.344 241.55,890.398 241.554,891.344 241.558,892.719 241.563,890.941 241.569,893.664 241.576,893.764 241.583,892.774 241.591,895.279 241.6,897.644 241.611,894.807 241.622,895.055 241.635,895.927 241.65,893.048 241.666,889.025 241.685,887.091 241.706,884.007 241.729,883.412 241.756,888.298 241.786,897.167 241.819,892.536 241.857,891.611 241.899,890.54 241.947,896.093 242,902.405 242.061,908.7 242.129,913.378 242.205,921.224 242.291,926.136 242.388,930.932 242.496,912.504 242.619,923.904 242.756,932.465 242.911,941.617 243.085,934.96 243.281,938.802 243.502,936.156 243.75,949.671 244.029,973.896 244.343,974.629 244.696,963.334 245.093,985.429 245.54,984.291 246.043,969.831 246.609,974.781 247.245,966.037 247.961,966.506 248.767,952.445 249.673,978.541 250.692,945.704 251.839,989.603 253.129,959.585 254.58,970.85 256.213,1042.3 258.05,1060.06 260.117,1061.2 262.442,1042.21 265.057,1036.28 268,1039.65 271.31,965.945 275.034,991.525 279.223,994.573 283.937,983.633 289.239,989.474 295.204,1019.18 301.915,935.166 309.464,937.165 314.485,995.44 320.133,915.994 326.007,846.269 332.617,879.571 340.052,815.702 348.417,891.272 357.827,837.52 367.332,866.165 378.025,1012.57 386.578,900.288 396.199,977.514 407.024,923.095 417.057,859.962 428.345,830.115 441.043,915.802 445.189,1050.34 449.291,1098.06 453.905,1147.8 457.124,1222.8 460.744,1255.89 464.817,1209.75 469.399,1242.87 474.554,1260.71 480.353,1212.28 486.878,1128.58 494.217,1177.05 499.645,1196.62 505.75,1097.25 512.619,1059.38 516.602,897.703 519.247,949.545 522.221,958.142 525.568,1018.16 528.733,894.039 531.664,948.284 534.961,860.977 538.671,824.529 542.844,825.504 547.539,781.419 552.821,711.67 558.764,699.544 565.449,792.772 570.363,755.057 575.891,736.376 582.111,792.668 589.108,817.682 596.98,786.654 605.835,697.252 615.1,719.865 625.082,906.391 631.901,753.114 639.573,763.271 648.204,635.504 657.914,587.619 663.126,667.754 668.99,616.373 675.587,622.072 683.008,760.117 685.045,736.345 687.336,739.708 689.914,738.079 692.814,714.126 696.077,672.69 699.748,659.395 703.877,662.715 708.523,726.381 712.158,688.858 716.248,659.651 720.849,720.925 726.026,783.872 731.849,766.791 738.4,755.762 745.77,757.619 754.062,777.127 763.39,716.685 773.883,835.545 779.669,972.559 780.826,941.254 782.128,968.583 783.592,1016.72 785.24,992.309 787.094,1049.76 789.179,1009.02 791.525,1038.82 794.164,998.34 797.133,1033.71 800.473,1133.17 804.23,1178.91 808.457,1099.02 810.222,1122.07 812.206,1187.22 813.982,1188.03 815.98,1135.9 818.228,1023.2 819.272,1042.16 820.446,1125.16 821.315,1148.5 822.292,1177.15 823.391,1201.65 824.628,1163.79 826.02,1172.96 827.585,1170.08 829.346,1165.45 831.327,1155.71 833.555,1156.94 836.063,1160.11 838.883,1029.01 840.064,1060.78 841.393,1052.5 842.888,973.122 844.524,1000.65 846.364,1000.78 848.434,936.783 850.763,951.265 852.624,960.863 854.717,963.045 857.073,982.715 859.722,963.645 862.703,1000.1 866.057,899.988 866.728,889.971 867.482,832.918 867.974,828.234 868.528,822.678 868.884,829.526 869.284,846.369 869.735,881.142 870.241,920.727 870.811,944.047 871.453,913.148 872.175,965.18 872.986,918.863 873.9,958.357 874.927,956.045 876.083,939.157 877.383,971.149 878.846,995.619 880.492,974.433 882.343,955.338 884.426,986.584 886.77,1030.77 889.406,933.414 890.323,902.112 891.355,925.986 892.517,936.064 893.823,870.177 895.293,848.523 896.946,887.719 898.806,903.42 900.899,864.863 903.253,872.059 905.901,961.895 907.203,944.724 908.667,918.445 910.314,934.5 912.167,957.226 914.251,969.619 916.596,958.708 919.235,868.988 922.012,824.51 925.137,850.396 927.278,906.977 929.687,925.028 932.397,837.738 933.391,864.713 934.508,839.982 935.766,844.564 937.181,872.546 938.772,873.4 940.562,887.095 942.577,827.061 944.843,773.683 947.392,758.548 950.26,752.989 953.486,684.523 957.116,639.914 961.2,665.098 965.794,704.823 970.962,832.576 972.796,855.538 974.859,836.888 977.179,771.756 979.099,750.251 981.259,756.32 983.689,716.84 986.423,677.921 989.498,656.283 992.958,645.627 996.85,626.513 1001.23,632.863 1003.76,652.786 1006.6,651.213 1009.8,568.839 1013.39,637.56 1017.44,601.215 1018.48,562.502 1019.65,579.582 1020.97,551.772 1022.45,519.437 1024.11,526.235 1025.99,512.168 1028.09,482.334 1030.46,552.399 1033.13,567.319 1036.13,597.409 1039.51,574.336 1043.31,536.079 1047.58,602.281 1052.39,612.17 1056.62,551.098 1061.39,489.133 1065.64,466.985 1070.41,493.933 1071.71,465.933 1073.18,467.627 1074.82,471.424 1076.67,445.459 1078.75,479.741 1081.09,403.376 1083.5,389.118 1086.2,415.052 1089.25,472.893 1092.67,481.377 1096.53,528.213 1100.86,556.154 1105.74,610.787 1111.23,540.213 1117.4,549.661 1122.86,522.95 1129.01,568.865 1135.92,624.567 1141.91,629.491 1148.64,661.662 1156.22,679.572 1164.74,818.875 1172.55,661.142 1177.93,740.651 1183.98,709.697 1190.78,757.726 1198.44,700.391 1207.05,578.76 1212.47,540.467 1218.56,575.161 1225.42,575.215 1233.13,561.085 1241.81,592.285 1251.58,566.266 1262.57,520.66 1269.17,507.067 1276.6,623.408 1284.95,664.181 1294.23,745.408 1304.66,717.63 1307.99,758.71 1311.74,744.795 1315.95,669.531 1320.69,640.319 1325.82,645.778 1331.6,683.602 1338.1,723.329 1345.41,751.246 1353.63,735.01 1362.88,698.011 1373.29,568.874 1385,632.186 1391.94,620.077 1399.74,629.672 1403.36,689.68 1407.44,623.463 1412.02,575.184 1417.18,578.507 1422.99,553.269 1429.52,506.515 1436.86,632.003 1439.69,656.731 1442.87,632.71 1446.45,671.653 1450.48,646.032 1455.02,565.944 1457.07,621.33 1459.37,684.937 1461.97,701.808 1463.15,719.713 1464.47,662.142 1465.97,652.145 1467.46,659.143 1469.13,697.575 1471.02,690.005 1472.42,724.285 1474,707.802 1475.78,661.825 1477.78,690.697 1478.83,688.664 1480,677.863 1481.32,689.091 1482.81,695.861 1484.49,721.099 1485.49,789.217 1486.62,782.11 1487.89,749.785 1489.32,752.126 1490.92,844.421 1492.48,809.565 1494.24,804.844 1496.21,761.664 1498.43,792.847 1500.93,776.657 1503.74,820.184 1506.9,800.661 1510.46,720.178 1511.74,685.276 1513.17,659.613 1514.79,659.701 1516.6,635.196 1518.64,556.674 1520.94,569.09 1523.53,632.204 1524.57,651.114 1525.75,589.69 1527.08,557.304 1528.57,601.721 1529.98,570.394 1531.56,578.782 1533.34,574.126 1535.34,533.934 1537.01,508.041 1538.88,519.91 1540.98,522.126 1543.35,487.592 1546.01,473.165 1549.01,452.016 1552.38,496.329 1556.17,512.42 1560.43,561.158 1565.23,534.422 1568.54,540.026 1572.27,498.263 1576.46,555.832 1581.17,574.029 1586.48,588.255 1592.44,617.017 1599.16,679.115 1602.76,581.603 1606.82,636.841 1611.39,725.753 1616.53,784.344 1622.31,807.969 1628.81,716.337 1636.12,737.751 1644.35,761.986 1653.61,813.98 1658.19,886.462 1663.35,843.074 1669.16,844.738 1675.69,827.464 1683.03,914.505 1690.47,832.377 1696.97,846.978 1704.29,806.608 1712.53,724.684 1721.79,687.974 1732.21,685.859 1739.92,644.331 1748.59,781.557 1754.03,788.029 1760.15,809.201 1767.04,884.161 1771.08,888.287 1775.63,998.667 1777.78,994.974 1780.19,945.495 1782.91,979.611 1785.96,872.924 1788.15,869.848 1790.6,819.885 1793.36,883.008 1796.47,784.8 1799.97,755.484 1803.9,765.073 1808.32,731.614 1813.3,676.234 1818.9,664.785 1825.2,699.068 1832.28,710.665 1840.26,641.184 1849.23,558.767 1859.32,632.678 1870.67,737.319 1880.29,806.003 1890.77,842.229 1902.57,959.297 1910.22,983.41 1918.84,990.88 1928.53,909.912 1939.43,871.089 1939.43,886.874 1939.43,886.885 1939.43,886.882 1939.43,886.88 1939.43,886.884 1939.43,886.877 1939.43,886.878 1939.43,886.876 1939.43,886.874 1939.43,886.858 1939.43,886.884 1939.43,886.896 1939.43,886.893 1939.43,886.897 1939.43,886.882 1939.43,886.858 1939.43,886.862 1939.43,886.861 1939.43,886.854 1939.43,886.796 1939.43,886.789 1939.43,886.797 1939.43,886.789 1939.43,886.781 1939.43,886.812 1939.43,886.858 1939.43,886.873 1939.43,886.904 1939.43,886.901 1939.43,886.902 1939.43,886.858 1939.43,886.718 1939.43,886.65 1939.43,886.692 1939.43,886.679 1939.43,886.758 1939.43,886.819 1939.43,886.882 1939.43,886.926 1939.43,886.832 1939.43,886.862 1939.43,886.809 1939.43,886.982 1939.43,886.929 1939.43,886.917 1939.43,887.1 1939.43,887.063 1939.43,887.024 1939.43,887.23 1939.43,886.941 1939.43,886.965 1939.43,886.829 1939.43,886.864 1939.43,886.754 1939.43,886.936 1939.43,887.072 1939.43,887.002 1939.43,886.611 1939.43,886.63 1939.43,886.238 1939.43,886.612 1939.43,886.751 1939.43,887.049 1939.43,887.188 1939.44,886.917 1939.44,887.236 1939.44,886.546 1939.44,887.09 1939.44,887.299 1939.44,887.027 1939.44,886.938 1939.44,887.579 1939.44,886.988 1939.44,887.133 1939.44,886.035 1939.44,886.066 1939.44,886.522 1939.44,886.413 1939.44,886.487 1939.44,886.854 1939.44,885.957 1939.44,885.159 1939.44,885.649 1939.45,885.429 1939.45,886.496 1939.45,887.634 1939.45,886.677 1939.45,887.217 1939.45,886.934 1939.46,885.43 1939.46,886.945 1939.46,884.987 1939.47,885.411 1939.47,886.129 1939.47,884.373 1939.48,885.516 1939.49,885.723 1939.49,886.781 1939.5,881.593 1939.51,885.754 1939.52,884.04 1939.53,885.934 1939.54,885.512 1939.55,886.919 1939.57,885.919 1939.58,889.646 1939.6,886.412 1939.62,885.829 1939.65,879.52 1939.67,880.449 1939.7,886.308 1939.74,885.221 1939.77,886.772 1939.82,885.182 1939.86,883.468 1939.92,876.729 1939.98,872.334 1940.05,876.219 1940.12,880.357 1940.21,878.783 1940.31,890.126 1940.42,894.753 1940.54,885.677 1940.68,891.627 1940.83,911.168 1941.01,917.194 1941.2,926.496 1941.42,897.928 1941.67,880.626 1941.95,880.706 1942.27,902.879 1942.62,910.678 1943.02,878.346 1943.47,861.661 1943.97,859.908 1944.54,873.406 1945.18,894.623 1945.89,886.953 1946.7,887.187 1947.61,881.873 1948.63,849.654 1949.78,896.163 1950.08,931.216 1950.42,922.478 1950.79,932.356 1951.22,942.968 1951.69,952.771 1952.23,957.323 1952.84,983.361 1953.51,958.912 1954.28,956.6 1955.14,995.919 1956.11,988.701 1957.2,972.473 1958.42,976.234 1959.8,993.294 1961.35,987.06 1963.09,1045.61 1965.05,1018.68 1967.26,1054.85 1969.74,1092.75 1972.54,1069.61 1975.68,1036.6 1979.21,1028.61 1983.19,988.127 1987.66,1103.16 1992.7,1181.39 1996.58,1052.9 2000.94,880.625 2003.93,892.085 2007.29,889.027 2010.01,1017.25 2011.3,1054.72 2012.75,1029.98 2014.38,953.723 2015.91,919.508 2017.62,869.465 2018.77,899.579 2020.07,909.188 2021.53,949.596 2023.16,968.857 2025.01,955.421 2025.92,1002.49 2026.94,1052.96 2028.09,1020.64 2029.39,1010.02 2030.85,995.845 2032.49,955.473 2034.33,917.342 2034.89,922.671 2035.52,952.107 2036.22,1036.24 2036.71,1003.82 2037.27,1049.66 2037.89,1088.39 2038.6,1095.13 2039.39,1090.4 2040.28,1119.1 2041.28,1094.52 2042.4,1052.22 2043.67,1075.28 2044.12,1068.81 2044.63,1070.81 2045.21,1044.89 2045.86,1057.31 2046.58,998.026 2047.4,995.373 2048.33,939.842 2049.36,937.998 2050.53,901.487 2051.84,959.954 2053.32,912.676 2054.98,909.374 2056.85,952.902 2058.95,940.082 2061.32,833.216 2062.93,842.828 2064.74,796.211 2066.78,852.997 2069.08,849.546 2071.66,808.655 2074.56,869.096 2077.83,925.638 2081.51,926.569 2085.65,919.74 2090.3,981.272 2095.53,921.461 2097.84,969.81 2100.44,967.844 2103.36,994.48 2106.16,968.046 2109.32,983.984 2112.87,996.423 2116.87,1093.03 2119.85,1163.56 2123.2,1281.99 2125.06,1272.31 2127.15,1177.68 2129.5,1104.34 2132.14,1083.66 2135.12,1127.89 2138.46,1051.44 2142.23,1024.87 2146.47,1109.04 2151.23,1141.31 2155.47,1198.95 2160.25,1325.84 2162.16,1347.99 2164.31,1358.27 2166.73,1351.06 2169.45,1289.18 2172.51,1212.85 2175.96,1099.95 2177.62,1123.94 2178.78,1151.91 2180.08,1245.04 2181.54,1283.32 2183.18,1266.5 2185.03,1278.8 2187.11,1308.56 2189.45,1289.01 2191.06,1284.71 2192.88,1238.82 2194.92,1167.47 2197.22,1029.61 2197.93,1026.98 2198.72,1020.94 2199.61,1022.83 2200.62,1025.71 2201.75,1015.79 2203.02,1004.7 2204.45,1035.38 2206.06,1059.41 2207.87,1021.93 2209.9,917.381 2211.1,894.541 2212.45,838.929 2213.96,856.152 2215.67,824.176 2217.59,859.774 2219.74,869.746 2222.17,939.083 2223.71,898.601 2225.44,909.214 2227.39,911.045 2229.58,945.759 2232.04,875.104 2234.82,877.437 2237.94,829.411 2241.45,879.649 2245.39,830.921 2249.84,889.7 2254.83,832.441 2260.46,784.165 2264.62,682.939 2269.3,642.952 2273.59,606.939 2278.41,631.782 2283.84,699.756 2289.94,759.309 2296.81,820.213 2304.54,940.398 2309.27,961.85 2314.58,920.729 2320.56,889.162 2327.29,862.287 2334.86,904.456 2342.01,756.906 2349.12,861.298 2357.12,986.737 2358.74,978.76 2360.57,959.239 2362.63,930.988 2364.94,880.306 2367.55,923.295 2370.48,980.874 2373.77,909.021 2377.48,984.331 2381.65,1013.86 2384.88,990.07 2388.51,1076.83 2391.81,1142.6 2395.51,1086.7 2399.68,1183.79 2402.78,1135.91 2406.25,1098 2410.17,1055.42 2414.57,1108.52 2417.8,993.33 2420.48,913.026 2423.5,931.295 2426.89,947.695 2430.7,856.972 2435,852.422 2439.83,879.65 2445.26,870.502 2451.37,859.722 2458.25,899.678 2465.98,806.554 2474.68,905.722 2480.72,891.463 2487.52,942.846 2495.16,1044.69 2503.75,1061.5 2505.47,1021.98 2507.41,1056.55 2509.58,1111.93 2512.03,1094 2514.79,1170.58 2517.88,1204.37 2521.37,1245.1 2525.29,1219.32 2529.7,1081.19 2532.62,1063.97 2535.89,1121.29 2539.58,1171.9 2543.73,1137.35 2548.4,1301.35 2550.18,1325.94 2552.18,1351.85 2554.44,1274.78 2556.97,1276.82 2559.83,1264.9 2563.04,1216.69 2566.65,1249.67 2570.72,1186.53 2575.29,1181.44 2579.98,1199.61 2585.27,1178.75 2591.21,1223.22 2597.9,1230.49 2605.43,1199.4 2613.89,1214.17 2623.41,1204.94 2634.13,1268.16 2646.18,1098.61 2659.74,914.79 2669.11,1029.35 2679.65,1018.03 2685.45,1062.8 2691.97,1098.83 2696.85,1047 2702.34,1108.47 2708.52,1065.55 2714.87,1008.53 2718.24,1089.78 2722.04,1101.35 2726.31,1030.82 2731.11,1077.87 2736.52,1031.78 2742.6,943.905 2749.44,978.952 2756.08,917.501 2763.55,884.95 2771.96,849.011 2781.42,863.731 2785.37,838.272 2789.8,725.265 2794.8,667.385 2800.42,651.943 2806.74,671.117 2813.85,617.594 2821.85,643.016 2825.09,626.424 2828.08,697.61 2831.44,759.992 2835.22,803.577 2839.33,790.222 2843.95,797.983 2849.14,725.623 2854.99,732.906 2861.57,712.124 2867.25,762.003 2873.06,877.226 2878.33,763.819 2883.01,684.014 2888.27,689.47 2894.19,658.953 2900.85,733.655 2908.34,744.774 2913.89,713.841 2920.13,679.101 2927.15,627.602 2935.04,617.511 2940.98,591.403 2947.66,598.992 2955.17,595.33 2963.63,499.484 2969.45,509.139 2975.99,589.006 2979.9,587.152 2984.3,634.698 2988.51,719.213 2993.25,861.261 2994.39,876.254 2995.67,861.001 2997.11,854.056 2998.73,841.194 3000.55,817.105 3002.61,856.152 3004.91,779.53 3007.51,897.247 3009.44,909.386 3011.62,857.652 3014.06,808.109 3016.81,762.376 3019.9,808.352 3023.39,782.795 3027.3,761.273 3031.71,791.808 3036.66,752.803 3042.24,867.078 3044.2,864.841 3046.41,807.412 3048.89,852.662 3050.76,859.35 3052.87,867.517 3055.24,802.806 3057.9,761.018 3060.9,707.212 3064.28,725.08 3068.07,677.99 3072.34,596.284 3077.14,545.945 3082.55,569.468 3088.62,554.473 3092.77,528.18 3097.42,501.862 3102.67,490.487 3108.56,479.753 3115.2,412.822 3120.01,449.216 3125.43,437.612 3131.52,454.049 3135.57,503.717 3140.13,461.834 3143.85,483.433 3148.04,496.316 3152.76,532.212 "/>
<polyline clip-path="url(#clip552)" style="stroke:#e26f46; stroke-linecap:round; stroke-linejoin:round; stroke-width:8; stroke-opacity:1; fill:none" points="241.518,562.214 241.518,562.327 241.518,562.301 241.518,562.212 241.518,562.219 241.518,561.659 241.519,561.205 241.519,561.7 241.519,561.403 241.519,561.711 241.519,562.242 241.519,561.592 241.519,561.97 241.52,562.291 241.52,562.006 241.52,562.214 241.52,562.366 241.521,562.803 241.521,562.118 241.522,561.497 241.522,562.72 241.523,561.456 241.523,562.708 241.524,561.532 241.525,562.826 241.526,562.876 241.526,562.791 241.528,562.419 241.529,560.691 241.53,561.905 241.532,561.698 241.534,558.479 241.536,559.375 241.538,560.454 241.54,558.517 241.543,556.08 241.546,556.356 241.55,553.302 241.554,552.355 241.558,550.981 241.563,552.759 241.569,550.036 241.576,549.936 241.583,550.926 241.591,548.421 241.6,546.056 241.611,548.893 241.622,548.645 241.635,547.773 241.65,550.652 241.666,554.675 241.685,556.609 241.706,559.693 241.729,560.288 241.756,555.402 241.786,546.533 241.819,551.164 241.857,552.089 241.899,553.16 241.947,547.607 242,541.295 242.061,535 242.129,530.322 242.205,522.476 242.291,517.564 242.388,512.768 242.496,531.196 242.619,519.796 242.756,511.235 242.911,502.082 243.085,508.74 243.281,504.898 243.502,507.544 243.75,494.029 244.029,469.804 244.343,469.071 244.696,480.366 245.093,458.27 245.54,459.409 246.043,473.869 246.609,468.919 247.245,477.663 247.961,477.193 248.767,491.255 249.673,465.158 250.692,497.995 251.839,454.096 253.129,484.115 254.58,472.85 256.213,401.399 258.05,383.642 260.117,382.495 262.442,401.491 265.057,407.42 268,404.054 271.31,477.754 275.034,452.175 279.223,449.127 283.937,460.067 289.239,454.226 295.204,424.521 301.915,508.534 309.464,506.535 314.485,448.26 320.133,527.706 326.007,597.431 332.617,564.129 340.052,627.998 348.417,552.427 357.827,606.179 367.332,577.535 378.025,431.134 386.578,543.412 396.199,466.186 407.024,520.605 417.057,583.738 428.345,613.585 441.043,527.898 445.189,393.363 449.291,345.642 453.905,295.902 457.124,220.903 460.744,187.809 464.817,233.955 469.399,200.827 474.554,182.992 480.353,231.423 486.878,315.117 494.217,266.65 499.645,247.077 505.75,346.448 512.619,384.323 516.602,545.997 519.247,494.155 522.221,485.558 525.568,425.543 528.733,549.661 531.664,495.416 534.961,582.723 538.671,619.17 542.844,618.196 547.539,662.28 552.821,732.03 558.764,744.156 565.449,650.928 570.363,688.643 575.891,707.324 582.111,651.031 589.108,626.018 596.98,657.046 605.835,746.447 615.1,723.834 625.082,537.308 631.901,690.586 639.573,680.428 648.204,808.195 657.914,856.081 663.126,775.946 668.99,827.327 675.587,821.628 683.008,683.582 685.045,707.355 687.336,703.992 689.914,705.62 692.814,729.574 696.077,771.01 699.748,784.305 703.877,780.985 708.523,717.319 712.158,754.842 716.248,784.049 720.849,722.775 726.026,659.827 731.849,676.908 738.4,687.938 745.77,686.08 754.062,666.573 763.39,727.015 773.883,608.155 779.669,471.141 780.826,502.446 782.128,475.117 783.592,426.98 785.24,451.391 787.094,393.944 789.179,434.678 791.525,404.88 794.164,445.36 797.133,409.987 800.473,310.533 804.23,264.793 808.457,344.679 810.222,321.629 812.206,256.48 813.982,255.668 815.98,307.796 818.228,420.5 819.272,401.536 820.446,318.54 821.315,295.203 822.292,266.551 823.391,242.047 824.628,279.909 826.02,270.738 827.585,273.622 829.346,278.254 831.327,287.987 833.555,286.76 836.063,283.591 838.883,414.687 840.064,382.923 841.393,391.201 842.888,470.578 844.524,443.048 846.364,442.915 848.434,506.917 850.763,492.435 852.624,482.837 854.717,480.654 857.073,460.984 859.722,480.055 862.703,443.602 866.057,543.712 866.728,553.728 867.482,610.782 867.974,615.466 868.528,621.022 868.884,614.173 869.284,597.331 869.735,562.558 870.241,522.973 870.811,499.653 871.453,530.552 872.175,478.52 872.986,524.837 873.9,485.343 874.927,487.654 876.083,504.543 877.383,472.551 878.846,448.081 880.492,469.267 882.343,488.362 884.426,457.116 886.77,412.928 889.406,510.286 890.323,541.588 891.355,517.714 892.517,507.636 893.823,573.523 895.293,595.177 896.946,555.981 898.806,540.279 900.899,578.837 903.253,571.641 905.901,481.805 907.203,498.976 908.667,525.254 910.314,509.2 912.167,486.474 914.251,474.081 916.596,484.992 919.235,574.712 922.012,619.19 925.137,593.303 927.278,536.723 929.687,518.671 932.397,605.962 933.391,578.987 934.508,603.718 935.766,599.136 937.181,571.154 938.772,570.3 940.562,556.605 942.577,616.639 944.843,670.017 947.392,685.152 950.26,690.711 953.486,759.177 957.116,803.786 961.2,778.602 965.794,738.877 970.962,611.124 972.796,588.162 974.859,606.812 977.179,671.944 979.099,693.448 981.259,687.38 983.689,726.86 986.423,765.779 989.498,787.417 992.958,798.073 996.85,817.186 1001.23,810.837 1003.76,790.914 1006.6,792.486 1009.8,874.861 1013.39,806.14 1017.44,842.485 1018.48,881.198 1019.65,864.118 1020.97,891.928 1022.45,924.263 1024.11,917.465 1025.99,931.532 1028.09,961.366 1030.46,891.301 1033.13,876.381 1036.13,846.29 1039.51,869.363 1043.31,907.621 1047.58,841.419 1052.39,831.53 1056.62,892.602 1061.39,954.567 1065.64,976.714 1070.41,949.767 1071.71,977.766 1073.18,976.073 1074.82,972.275 1076.67,998.241 1078.75,963.958 1081.09,1040.32 1083.5,1054.58 1086.2,1028.65 1089.25,970.807 1092.67,962.323 1096.53,915.487 1100.86,887.546 1105.74,832.913 1111.23,903.486 1117.4,894.038 1122.86,920.75 1129.01,874.835 1135.92,819.132 1141.91,814.209 1148.64,782.038 1156.22,764.128 1164.74,624.824 1172.55,782.558 1177.93,703.049 1183.98,734.003 1190.78,685.974 1198.44,743.309 1207.05,864.939 1212.47,903.233 1218.56,868.538 1225.42,868.485 1233.13,882.614 1241.81,851.414 1251.58,877.434 1262.57,923.04 1269.17,936.633 1276.6,820.292 1284.95,779.519 1294.23,698.292 1304.66,726.07 1307.99,684.989 1311.74,698.904 1315.95,774.168 1320.69,803.38 1325.82,797.921 1331.6,760.098 1338.1,720.371 1345.41,692.454 1353.63,708.69 1362.88,745.689 1373.29,874.826 1385,811.514 1391.94,823.623 1399.74,814.028 1403.36,754.02 1407.44,820.237 1412.02,868.516 1417.18,865.193 1422.99,890.431 1429.52,937.184 1436.86,811.696 1439.69,786.969 1442.87,810.99 1446.45,772.047 1450.48,797.668 1455.02,877.755 1457.07,822.37 1459.37,758.763 1461.97,741.892 1463.15,723.987 1464.47,781.558 1465.97,791.555 1467.46,784.557 1469.13,746.125 1471.02,753.695 1472.42,719.415 1474,735.898 1475.78,781.875 1477.78,753.003 1478.83,755.036 1480,765.837 1481.32,754.609 1482.81,747.839 1484.49,722.601 1485.49,654.483 1486.62,661.59 1487.89,693.915 1489.32,691.573 1490.92,599.279 1492.48,634.135 1494.24,638.856 1496.21,682.036 1498.43,650.852 1500.93,667.043 1503.74,623.515 1506.9,643.039 1510.46,723.522 1511.74,758.424 1513.17,784.087 1514.79,783.999 1516.6,808.504 1518.64,887.025 1520.94,874.61 1523.53,811.496 1524.57,792.586 1525.75,854.01 1527.08,886.395 1528.57,841.979 1529.98,873.305 1531.56,864.918 1533.34,869.574 1535.34,909.766 1537.01,935.659 1538.88,923.79 1540.98,921.573 1543.35,956.108 1546.01,970.535 1549.01,991.684 1552.38,947.371 1556.17,931.28 1560.43,882.542 1565.23,909.278 1568.54,903.674 1572.27,945.437 1576.46,887.867 1581.17,869.671 1586.48,855.445 1592.44,826.683 1599.16,764.585 1602.76,862.097 1606.82,806.859 1611.39,717.947 1616.53,659.356 1622.31,635.731 1628.81,727.363 1636.12,705.949 1644.35,681.714 1653.61,629.72 1658.19,557.238 1663.35,600.626 1669.16,598.962 1675.69,616.236 1683.03,529.195 1690.47,611.323 1696.97,596.722 1704.29,637.092 1712.53,719.016 1721.79,755.726 1732.21,757.84 1739.92,799.368 1748.59,662.142 1754.03,655.67 1760.15,634.498 1767.04,559.539 1771.08,555.412 1775.63,445.033 1777.78,448.726 1780.19,498.205 1782.91,464.089 1785.96,570.775 1788.15,573.852 1790.6,623.815 1793.36,560.692 1796.47,658.9 1799.97,688.216 1803.9,678.627 1808.32,712.086 1813.3,767.465 1818.9,778.915 1825.2,744.632 1832.28,733.034 1840.26,802.516 1849.23,884.933 1859.32,811.022 1870.67,706.381 1880.29,637.697 1890.77,601.471 1902.57,484.403 1910.22,460.29 1918.84,452.82 1928.53,533.788 1939.43,572.611 1939.43,556.826 1939.43,556.815 1939.43,556.818 1939.43,556.82 1939.43,556.815 1939.43,556.822 1939.43,556.822 1939.43,556.824 1939.43,556.826 1939.43,556.841 1939.43,556.816 1939.43,556.804 1939.43,556.807 1939.43,556.803 1939.43,556.818 1939.43,556.842 1939.43,556.838 1939.43,556.839 1939.43,556.846 1939.43,556.904 1939.43,556.911 1939.43,556.903 1939.43,556.911 1939.43,556.919 1939.43,556.888 1939.43,556.842 1939.43,556.827 1939.43,556.796 1939.43,556.799 1939.43,556.798 1939.43,556.842 1939.43,556.981 1939.43,557.05 1939.43,557.007 1939.43,557.021 1939.43,556.942 1939.43,556.881 1939.43,556.818 1939.43,556.774 1939.43,556.868 1939.43,556.838 1939.43,556.891 1939.43,556.718 1939.43,556.77 1939.43,556.783 1939.43,556.6 1939.43,556.637 1939.43,556.676 1939.43,556.47 1939.43,556.759 1939.43,556.735 1939.43,556.871 1939.43,556.836 1939.43,556.946 1939.43,556.764 1939.43,556.628 1939.43,556.698 1939.43,557.089 1939.43,557.069 1939.43,557.461 1939.43,557.088 1939.43,556.949 1939.43,556.651 1939.43,556.512 1939.44,556.783 1939.44,556.464 1939.44,557.154 1939.44,556.61 1939.44,556.401 1939.44,556.672 1939.44,556.762 1939.44,556.121 1939.44,556.712 1939.44,556.567 1939.44,557.664 1939.44,557.633 1939.44,557.178 1939.44,557.287 1939.44,557.213 1939.44,556.845 1939.44,557.743 1939.44,558.541 1939.44,558.051 1939.45,558.27 1939.45,557.204 1939.45,556.066 1939.45,557.022 1939.45,556.482 1939.45,556.766 1939.46,558.27 1939.46,556.755 1939.46,558.713 1939.47,558.289 1939.47,557.571 1939.47,559.327 1939.48,558.184 1939.49,557.977 1939.49,556.919 1939.5,562.107 1939.51,557.945 1939.52,559.66 1939.53,557.765 1939.54,558.188 1939.55,556.781 1939.57,557.781 1939.58,554.053 1939.6,557.288 1939.62,557.871 1939.65,564.18 1939.67,563.25 1939.7,557.392 1939.74,558.479 1939.77,556.928 1939.82,558.518 1939.86,560.232 1939.92,566.971 1939.98,571.366 1940.05,567.481 1940.12,563.342 1940.21,564.917 1940.31,553.573 1940.42,548.947 1940.54,558.023 1940.68,552.073 1940.83,532.532 1941.01,526.505 1941.2,517.203 1941.42,545.772 1941.67,563.074 1941.95,562.994 1942.27,540.821 1942.62,533.021 1943.02,565.353 1943.47,582.039 1943.97,583.791 1944.54,570.294 1945.18,549.077 1945.89,556.746 1946.7,556.513 1947.61,561.827 1948.63,594.045 1949.78,547.537 1950.08,512.484 1950.42,521.222 1950.79,511.344 1951.22,500.732 1951.69,490.929 1952.23,486.377 1952.84,460.339 1953.51,484.788 1954.28,487.1 1955.14,447.781 1956.11,454.999 1957.2,471.226 1958.42,467.466 1959.8,450.406 1961.35,456.639 1963.09,398.09 1965.05,425.019 1967.26,388.847 1969.74,350.952 1972.54,374.093 1975.68,407.097 1979.21,415.088 1983.19,455.573 1987.66,340.536 1992.7,262.313 1996.58,390.799 2000.94,563.074 2003.93,551.615 2007.29,554.673 2010.01,426.45 2011.3,388.981 2012.75,413.722 2014.38,489.977 2015.91,524.192 2017.62,574.235 2018.77,544.121 2020.07,534.512 2021.53,494.103 2023.16,474.843 2025.01,488.279 2025.92,441.21 2026.94,390.741 2028.09,423.063 2029.39,433.677 2030.85,447.855 2032.49,488.227 2034.33,526.358 2034.89,521.029 2035.52,491.593 2036.22,407.464 2036.71,439.885 2037.27,394.041 2037.89,355.311 2038.6,348.574 2039.39,353.304 2040.28,324.596 2041.28,349.175 2042.4,391.478 2043.67,368.423 2044.12,374.894 2044.63,372.891 2045.21,398.811 2045.86,386.394 2046.58,445.673 2047.4,448.327 2048.33,503.858 2049.36,505.702 2050.53,542.213 2051.84,483.745 2053.32,531.024 2054.98,534.326 2056.85,490.798 2058.95,503.618 2061.32,610.484 2062.93,600.872 2064.74,647.489 2066.78,590.703 2069.08,594.154 2071.66,635.045 2074.56,574.603 2077.83,518.062 2081.51,517.131 2085.65,523.96 2090.3,462.428 2095.53,522.239 2097.84,473.89 2100.44,475.856 2103.36,449.219 2106.16,475.653 2109.32,459.716 2112.87,447.276 2116.87,350.667 2119.85,280.136 2123.2,161.712 2125.06,171.39 2127.15,266.02 2129.5,339.36 2132.14,360.038 2135.12,315.81 2138.46,392.263 2142.23,418.832 2146.47,334.657 2151.23,302.394 2155.47,244.746 2160.25,117.861 2162.16,95.7121 2164.31,85.4293 2166.73,92.6379 2169.45,154.517 2172.51,230.846 2175.96,343.747 2177.62,319.757 2178.78,291.789 2180.08,198.658 2181.54,160.377 2183.18,177.198 2185.03,164.9 2187.11,135.135 2189.45,154.691 2191.06,158.994 2192.88,204.878 2194.92,276.23 2197.22,414.085 2197.93,416.72 2198.72,422.759 2199.61,420.87 2200.62,417.987 2201.75,427.91 2203.02,439.003 2204.45,408.322 2206.06,384.289 2207.87,421.768 2209.9,526.319 2211.1,549.159 2212.45,604.771 2213.96,587.547 2215.67,619.524 2217.59,583.926 2219.74,573.954 2222.17,504.617 2223.71,545.099 2225.44,534.485 2227.39,532.655 2229.58,497.941 2232.04,568.596 2234.82,566.263 2237.94,614.289 2241.45,564.05 2245.39,612.779 2249.84,553.999 2254.83,611.259 2260.46,659.535 2264.62,760.761 2269.3,800.748 2273.59,836.761 2278.41,811.917 2283.84,743.943 2289.94,684.391 2296.81,623.487 2304.54,503.302 2309.27,481.849 2314.58,522.971 2320.56,554.538 2327.29,581.413 2334.86,539.244 2342.01,686.794 2349.12,582.402 2357.12,456.963 2358.74,464.94 2360.57,484.461 2362.63,512.712 2364.94,563.394 2367.55,520.404 2370.48,462.826 2373.77,534.679 2377.48,459.368 2381.65,429.844 2384.88,453.63 2388.51,366.873 2391.81,301.098 2395.51,356.996 2399.68,259.913 2402.78,307.795 2406.25,345.699 2410.17,388.28 2414.57,335.177 2417.8,450.37 2420.48,530.673 2423.5,512.404 2426.89,496.004 2430.7,586.728 2435,591.278 2439.83,564.05 2445.26,573.198 2451.37,583.977 2458.25,544.022 2465.98,637.146 2474.68,537.978 2480.72,552.237 2487.52,500.854 2495.16,399.012 2503.75,382.2 2505.47,421.718 2507.41,387.151 2509.58,331.77 2512.03,349.7 2514.79,273.122 2517.88,239.333 2521.37,198.603 2525.29,224.376 2529.7,362.509 2532.62,379.727 2535.89,322.412 2539.58,271.797 2543.73,306.345 2548.4,142.346 2550.18,117.763 2552.18,91.8466 2554.44,168.922 2556.97,166.876 2559.83,178.802 2563.04,227.01 2566.65,194.032 2570.72,257.173 2575.29,262.259 2579.98,244.092 2585.27,264.945 2591.21,220.484 2597.9,213.21 2605.43,244.296 2613.89,229.531 2623.41,238.76 2634.13,175.538 2646.18,345.087 2659.74,528.91 2669.11,414.348 2679.65,425.671 2685.45,380.901 2691.97,344.875 2696.85,396.702 2702.34,335.227 2708.52,378.153 2714.87,435.165 2718.24,353.919 2722.04,342.345 2726.31,412.876 2731.11,365.826 2736.52,411.923 2742.6,499.795 2749.44,464.748 2756.08,526.199 2763.55,558.75 2771.96,594.689 2781.42,579.969 2785.37,605.428 2789.8,718.435 2794.8,776.315 2800.42,791.757 2806.74,772.583 2813.85,826.106 2821.85,800.683 2825.09,817.275 2828.08,746.09 2831.44,683.707 2835.22,640.123 2839.33,653.478 2843.95,645.717 2849.14,718.077 2854.99,710.794 2861.57,731.576 2867.25,681.697 2873.06,566.474 2878.33,679.88 2883.01,759.686 2888.27,754.23 2894.19,784.747 2900.85,710.045 2908.34,698.926 2913.89,729.859 2920.13,764.599 2927.15,816.098 2935.04,826.189 2940.98,852.297 2947.66,844.708 2955.17,848.37 2963.63,944.215 2969.45,934.561 2975.99,854.694 2979.9,856.548 2984.3,809.002 2988.51,724.486 2993.25,582.439 2994.39,567.446 2995.67,582.699 2997.11,589.643 2998.73,602.506 3000.55,626.595 3002.61,587.548 3004.91,664.17 3007.51,546.453 3009.44,534.314 3011.62,586.048 3014.06,635.591 3016.81,681.324 3019.9,635.348 3023.39,660.905 3027.3,682.427 3031.71,651.892 3036.66,690.897 3042.24,576.622 3044.2,578.859 3046.41,636.288 3048.89,591.038 3050.76,584.35 3052.87,576.183 3055.24,640.894 3057.9,682.682 3060.9,736.488 3064.28,718.62 3068.07,765.71 3072.34,847.416 3077.14,897.755 3082.55,874.232 3088.62,889.227 3092.77,915.519 3097.42,941.838 3102.67,953.213 3108.56,963.947 3115.2,1030.88 3120.01,994.484 3125.43,1006.09 3131.52,989.65 3135.57,939.983 3140.13,981.866 3143.85,960.267 3148.04,947.384 3152.76,911.488 "/>
<path clip-path="url(#clip550)" d="M2707.74 247.738 L3055.71 247.738 L3055.71 92.2178 L2707.74 92.2178  Z" fill="#ffffff" fill-rule="evenodd" fill-opacity="1"/>
<polyline clip-path="url(#clip550)" style="stroke:#000000; stroke-linecap:round; stroke-linejoin:round; stroke-width:4; stroke-opacity:1; fill:none" points="2707.74,247.738 3055.71,247.738 3055.71,92.2178 2707.74,92.2178 2707.74,247.738 "/>
<polyline clip-path="url(#clip550)" style="stroke:#009af9; stroke-linecap:round; stroke-linejoin:round; stroke-width:8; stroke-opacity:1; fill:none" points="2740.09,144.058 2934.17,144.058 "/>
<path clip-path="url(#clip550)" d="M2968.09 126.778 L2973.11 126.778 L2981.7 139.625 L2990.34 126.778 L2995.36 126.778 L2984.25 143.375 L2996.1 161.338 L2991.08 161.338 L2981.35 146.639 L2971.56 161.338 L2966.52 161.338 L2978.85 142.889 L2968.09 126.778 Z" fill="#000000" fill-rule="nonzero" fill-opacity="1" /><path clip-path="url(#clip550)" d="M3003.46 157.403 L3011.1 157.403 L3011.1 131.037 L3002.79 132.704 L3002.79 128.444 L3011.05 126.778 L3015.73 126.778 L3015.73 157.403 L3023.37 157.403 L3023.37 161.338 L3003.46 161.338 L3003.46 157.403 Z" fill="#000000" fill-rule="nonzero" fill-opacity="1" /><polyline clip-path="url(#clip550)" style="stroke:#e26f46; stroke-linecap:round; stroke-linejoin:round; stroke-width:8; stroke-opacity:1; fill:none" points="2740.09,195.898 2934.17,195.898 "/>
<path clip-path="url(#clip550)" d="M2968.09 178.618 L2973.11 178.618 L2981.7 191.465 L2990.34 178.618 L2995.36 178.618 L2984.25 195.215 L2996.1 213.178 L2991.08 213.178 L2981.35 198.479 L2971.56 213.178 L2966.52 213.178 L2978.85 194.729 L2968.09 178.618 Z" fill="#000000" fill-rule="nonzero" fill-opacity="1" /><path clip-path="url(#clip550)" d="M3006.68 209.243 L3023 209.243 L3023 213.178 L3001.05 213.178 L3001.05 209.243 Q3003.71 206.488 3008.3 201.858 Q3012.9 197.206 3014.09 195.863 Q3016.33 193.34 3017.21 191.604 Q3018.11 189.845 3018.11 188.155 Q3018.11 185.4 3016.17 183.664 Q3014.25 181.928 3011.15 181.928 Q3008.95 181.928 3006.49 182.692 Q3004.06 183.456 3001.28 185.007 L3001.28 180.284 Q3004.11 179.15 3006.56 178.572 Q3009.02 177.993 3011.05 177.993 Q3016.42 177.993 3019.62 180.678 Q3022.81 183.363 3022.81 187.854 Q3022.81 189.983 3022 191.905 Q3021.21 193.803 3019.11 196.395 Q3018.53 197.067 3015.43 200.284 Q3012.33 203.479 3006.68 209.243 Z" fill="#000000" fill-rule="nonzero" fill-opacity="1" /></svg>
