<?xml version="1.0" encoding="utf-8"?>
<svg xmlns="http://www.w3.org/2000/svg" xmlns:xlink="http://www.w3.org/1999/xlink" width="800" height="400" viewBox="0 0 3200 1600">
<defs>
  <clipPath id="clip660">
    <rect x="0" y="0" width="3200" height="1600"/>
  </clipPath>
</defs>
<path clip-path="url(#clip660)" d="M0 1600 L3200 1600 L3200 0 L0 0  Z" fill="#ffffff" fill-rule="evenodd" fill-opacity="1"/>
<defs>
  <clipPath id="clip661">
    <rect x="234" y="47" width="2499" height="1350"/>
  </clipPath>
</defs>
<path clip-path="url(#clip660)" d="M234.111 1396.46 L2731.94 1396.46 L2731.94 47.2441 L234.111 47.2441  Z" fill="#ffffff" fill-rule="evenodd" fill-opacity="1"/>
<polyline clip-path="url(#clip661)" style="stroke:#000000; stroke-linecap:round; stroke-linejoin:round; stroke-width:2; stroke-opacity:0.1; fill:none" points="234.111,1396.46 234.111,47.2441 "/>
<polyline clip-path="url(#clip661)" style="stroke:#000000; stroke-linecap:round; stroke-linejoin:round; stroke-width:2; stroke-opacity:0.1; fill:none" points="733.676,1396.46 733.676,47.2441 "/>
<polyline clip-path="url(#clip661)" style="stroke:#000000; stroke-linecap:round; stroke-linejoin:round; stroke-width:2; stroke-opacity:0.1; fill:none" points="1233.24,1396.46 1233.24,47.2441 "/>
<polyline clip-path="url(#clip661)" style="stroke:#000000; stroke-linecap:round; stroke-linejoin:round; stroke-width:2; stroke-opacity:0.1; fill:none" points="1732.81,1396.46 1732.81,47.2441 "/>
<polyline clip-path="url(#clip661)" style="stroke:#000000; stroke-linecap:round; stroke-linejoin:round; stroke-width:2; stroke-opacity:0.1; fill:none" points="2232.37,1396.46 2232.37,47.2441 "/>
<polyline clip-path="url(#clip661)" style="stroke:#000000; stroke-linecap:round; stroke-linejoin:round; stroke-width:2; stroke-opacity:0.1; fill:none" points="2731.94,1396.46 2731.94,47.2441 "/>
<polyline clip-path="url(#clip661)" style="stroke:#000000; stroke-linecap:round; stroke-linejoin:round; stroke-width:2; stroke-opacity:0.1; fill:none" points="234.111,1396.46 234.111,47.2441 "/>
<polyline clip-path="url(#clip661)" style="stroke:#000000; stroke-linecap:round; stroke-linejoin:round; stroke-width:2; stroke-opacity:0.1; fill:none" points="733.676,1396.46 733.676,47.2441 "/>
<polyline clip-path="url(#clip661)" style="stroke:#000000; stroke-linecap:round; stroke-linejoin:round; stroke-width:2; stroke-opacity:0.1; fill:none" points="1233.24,1396.46 1233.24,47.2441 "/>
<polyline clip-path="url(#clip661)" style="stroke:#000000; stroke-linecap:round; stroke-linejoin:round; stroke-width:2; stroke-opacity:0.1; fill:none" points="1732.81,1396.46 1732.81,47.2441 "/>
<polyline clip-path="url(#clip661)" style="stroke:#000000; stroke-linecap:round; stroke-linejoin:round; stroke-width:2; stroke-opacity:0.1; fill:none" points="2232.37,1396.46 2232.37,47.2441 "/>
<polyline clip-path="url(#clip661)" style="stroke:#000000; stroke-linecap:round; stroke-linejoin:round; stroke-width:2; stroke-opacity:0.1; fill:none" points="2731.94,1396.46 2731.94,47.2441 "/>
<polyline clip-path="url(#clip661)" style="stroke:#000000; stroke-linecap:round; stroke-linejoin:round; stroke-width:2; stroke-opacity:0.1; fill:none" points="234.111,1300.63 2731.94,1300.63 "/>
<polyline clip-path="url(#clip661)" style="stroke:#000000; stroke-linecap:round; stroke-linejoin:round; stroke-width:2; stroke-opacity:0.1; fill:none" points="234.111,1021.63 2731.94,1021.63 "/>
<polyline clip-path="url(#clip661)" style="stroke:#000000; stroke-linecap:round; stroke-linejoin:round; stroke-width:2; stroke-opacity:0.1; fill:none" points="234.111,742.626 2731.94,742.626 "/>
<polyline clip-path="url(#clip661)" style="stroke:#000000; stroke-linecap:round; stroke-linejoin:round; stroke-width:2; stroke-opacity:0.1; fill:none" points="234.111,463.625 2731.94,463.625 "/>
<polyline clip-path="url(#clip661)" style="stroke:#000000; stroke-linecap:round; stroke-linejoin:round; stroke-width:2; stroke-opacity:0.1; fill:none" points="234.111,184.624 2731.94,184.624 "/>
<polyline clip-path="url(#clip661)" style="stroke:#000000; stroke-linecap:round; stroke-linejoin:round; stroke-width:2; stroke-opacity:0.1; fill:none" points="234.111,1300.63 2731.94,1300.63 "/>
<polyline clip-path="url(#clip661)" style="stroke:#000000; stroke-linecap:round; stroke-linejoin:round; stroke-width:2; stroke-opacity:0.1; fill:none" points="234.111,1021.63 2731.94,1021.63 "/>
<polyline clip-path="url(#clip661)" style="stroke:#000000; stroke-linecap:round; stroke-linejoin:round; stroke-width:2; stroke-opacity:0.1; fill:none" points="234.111,742.626 2731.94,742.626 "/>
<polyline clip-path="url(#clip661)" style="stroke:#000000; stroke-linecap:round; stroke-linejoin:round; stroke-width:2; stroke-opacity:0.1; fill:none" points="234.111,463.625 2731.94,463.625 "/>
<polyline clip-path="url(#clip661)" style="stroke:#000000; stroke-linecap:round; stroke-linejoin:round; stroke-width:2; stroke-opacity:0.1; fill:none" points="234.111,184.624 2731.94,184.624 "/>
<polyline clip-path="url(#clip660)" style="stroke:#000000; stroke-linecap:round; stroke-linejoin:round; stroke-width:4; stroke-opacity:1; fill:none" points="234.111,1396.46 2731.94,1396.46 "/>
<polyline clip-path="url(#clip660)" style="stroke:#000000; stroke-linecap:round; stroke-linejoin:round; stroke-width:4; stroke-opacity:1; fill:none" points="234.111,47.2441 2731.94,47.2441 "/>
<polyline clip-path="url(#clip660)" style="stroke:#000000; stroke-linecap:round; stroke-linejoin:round; stroke-width:4; stroke-opacity:1; fill:none" points="234.111,1396.46 234.111,1377.56 "/>
<polyline clip-path="url(#clip660)" style="stroke:#000000; stroke-linecap:round; stroke-linejoin:round; stroke-width:4; stroke-opacity:1; fill:none" points="733.676,1396.46 733.676,1377.56 "/>
<polyline clip-path="url(#clip660)" style="stroke:#000000; stroke-linecap:round; stroke-linejoin:round; stroke-width:4; stroke-opacity:1; fill:none" points="1233.24,1396.46 1233.24,1377.56 "/>
<polyline clip-path="url(#clip660)" style="stroke:#000000; stroke-linecap:round; stroke-linejoin:round; stroke-width:4; stroke-opacity:1; fill:none" points="1732.81,1396.46 1732.81,1377.56 "/>
<polyline clip-path="url(#clip660)" style="stroke:#000000; stroke-linecap:round; stroke-linejoin:round; stroke-width:4; stroke-opacity:1; fill:none" points="2232.37,1396.46 2232.37,1377.56 "/>
<polyline clip-path="url(#clip660)" style="stroke:#000000; stroke-linecap:round; stroke-linejoin:round; stroke-width:4; stroke-opacity:1; fill:none" points="2731.94,1396.46 2731.94,1377.56 "/>
<polyline clip-path="url(#clip660)" style="stroke:#000000; stroke-linecap:round; stroke-linejoin:round; stroke-width:4; stroke-opacity:1; fill:none" points="234.111,47.2441 234.111,66.1417 "/>
<polyline clip-path="url(#clip660)" style="stroke:#000000; stroke-linecap:round; stroke-linejoin:round; stroke-width:4; stroke-opacity:1; fill:none" points="733.676,47.2441 733.676,66.1417 "/>
<polyline clip-path="url(#clip660)" style="stroke:#000000; stroke-linecap:round; stroke-linejoin:round; stroke-width:4; stroke-opacity:1; fill:none" points="1233.24,47.2441 1233.24,66.1417 "/>
<polyline clip-path="url(#clip660)" style="stroke:#000000; stroke-linecap:round; stroke-linejoin:round; stroke-width:4; stroke-opacity:1; fill:none" points="1732.81,47.2441 1732.81,66.1417 "/>
<polyline clip-path="url(#clip660)" style="stroke:#000000; stroke-linecap:round; stroke-linejoin:round; stroke-width:4; stroke-opacity:1; fill:none" points="2232.37,47.2441 2232.37,66.1417 "/>
<polyline clip-path="url(#clip660)" style="stroke:#000000; stroke-linecap:round; stroke-linejoin:round; stroke-width:4; stroke-opacity:1; fill:none" points="2731.94,47.2441 2731.94,66.1417 "/>
<path clip-path="url(#clip660)" d="M234.111 1433.77 Q230.5 1433.77 228.671 1437.34 Q226.865 1440.88 226.865 1448.01 Q226.865 1455.12 228.671 1458.68 Q230.5 1462.22 234.111 1462.22 Q237.745 1462.22 239.551 1458.68 Q241.379 1455.12 241.379 1448.01 Q241.379 1440.88 239.551 1437.34 Q237.745 1433.77 234.111 1433.77 M234.111 1430.07 Q239.921 1430.07 242.976 1434.68 Q246.055 1439.26 246.055 1448.01 Q246.055 1456.74 242.976 1461.34 Q239.921 1465.93 234.111 1465.93 Q228.301 1465.93 225.222 1461.34 Q222.166 1456.74 222.166 1448.01 Q222.166 1439.26 225.222 1434.68 Q228.301 1430.07 234.111 1430.07 Z" fill="#000000" fill-rule="nonzero" fill-opacity="1" /><path clip-path="url(#clip660)" d="M708.364 1461.32 L716.002 1461.32 L716.002 1434.95 L707.692 1436.62 L707.692 1432.36 L715.956 1430.7 L720.632 1430.7 L720.632 1461.32 L728.271 1461.32 L728.271 1465.26 L708.364 1465.26 L708.364 1461.32 Z" fill="#000000" fill-rule="nonzero" fill-opacity="1" /><path clip-path="url(#clip660)" d="M747.715 1433.77 Q744.104 1433.77 742.275 1437.34 Q740.47 1440.88 740.47 1448.01 Q740.47 1455.12 742.275 1458.68 Q744.104 1462.22 747.715 1462.22 Q751.349 1462.22 753.155 1458.68 Q754.984 1455.12 754.984 1448.01 Q754.984 1440.88 753.155 1437.34 Q751.349 1433.77 747.715 1433.77 M747.715 1430.07 Q753.525 1430.07 756.581 1434.68 Q759.66 1439.26 759.66 1448.01 Q759.66 1456.74 756.581 1461.34 Q753.525 1465.93 747.715 1465.93 Q741.905 1465.93 738.826 1461.34 Q735.771 1456.74 735.771 1448.01 Q735.771 1439.26 738.826 1434.68 Q741.905 1430.07 747.715 1430.07 Z" fill="#000000" fill-rule="nonzero" fill-opacity="1" /><path clip-path="url(#clip660)" d="M1212.01 1461.32 L1228.33 1461.32 L1228.33 1465.26 L1206.39 1465.26 L1206.39 1461.32 Q1209.05 1458.57 1213.63 1453.94 Q1218.24 1449.28 1219.42 1447.94 Q1221.67 1445.42 1222.55 1443.68 Q1223.45 1441.92 1223.45 1440.23 Q1223.45 1437.48 1221.51 1435.74 Q1219.58 1434.01 1216.48 1434.01 Q1214.28 1434.01 1211.83 1434.77 Q1209.4 1435.53 1206.62 1437.08 L1206.62 1432.36 Q1209.44 1431.23 1211.9 1430.65 Q1214.35 1430.07 1216.39 1430.07 Q1221.76 1430.07 1224.95 1432.76 Q1228.15 1435.44 1228.15 1439.93 Q1228.15 1442.06 1227.34 1443.98 Q1226.55 1445.88 1224.44 1448.47 Q1223.87 1449.14 1220.76 1452.36 Q1217.66 1455.56 1212.01 1461.32 Z" fill="#000000" fill-rule="nonzero" fill-opacity="1" /><path clip-path="url(#clip660)" d="M1248.15 1433.77 Q1244.54 1433.77 1242.71 1437.34 Q1240.9 1440.88 1240.9 1448.01 Q1240.9 1455.12 1242.71 1458.68 Q1244.54 1462.22 1248.15 1462.22 Q1251.78 1462.22 1253.59 1458.68 Q1255.42 1455.12 1255.42 1448.01 Q1255.42 1440.88 1253.59 1437.34 Q1251.78 1433.77 1248.15 1433.77 M1248.15 1430.07 Q1253.96 1430.07 1257.01 1434.68 Q1260.09 1439.26 1260.09 1448.01 Q1260.09 1456.74 1257.01 1461.34 Q1253.96 1465.93 1248.15 1465.93 Q1242.34 1465.93 1239.26 1461.34 Q1236.2 1456.74 1236.2 1448.01 Q1236.2 1439.26 1239.26 1434.68 Q1242.34 1430.07 1248.15 1430.07 Z" fill="#000000" fill-rule="nonzero" fill-opacity="1" /><path clip-path="url(#clip660)" d="M1721.65 1446.62 Q1725.01 1447.34 1726.88 1449.61 Q1728.78 1451.88 1728.78 1455.21 Q1728.78 1460.33 1725.26 1463.13 Q1721.74 1465.93 1715.26 1465.93 Q1713.08 1465.93 1710.77 1465.49 Q1708.48 1465.07 1706.02 1464.21 L1706.02 1459.7 Q1707.97 1460.83 1710.28 1461.41 Q1712.6 1461.99 1715.12 1461.99 Q1719.52 1461.99 1721.81 1460.26 Q1724.13 1458.52 1724.13 1455.21 Q1724.13 1452.15 1721.97 1450.44 Q1719.84 1448.7 1716.02 1448.7 L1712 1448.7 L1712 1444.86 L1716.21 1444.86 Q1719.66 1444.86 1721.49 1443.5 Q1723.32 1442.11 1723.32 1439.52 Q1723.32 1436.85 1721.42 1435.44 Q1719.54 1434.01 1716.02 1434.01 Q1714.1 1434.01 1711.9 1434.42 Q1709.7 1434.84 1707.07 1435.72 L1707.07 1431.55 Q1709.73 1430.81 1712.04 1430.44 Q1714.38 1430.07 1716.44 1430.07 Q1721.76 1430.07 1724.87 1432.5 Q1727.97 1434.91 1727.97 1439.03 Q1727.97 1441.9 1726.32 1443.89 Q1724.68 1445.86 1721.65 1446.62 Z" fill="#000000" fill-rule="nonzero" fill-opacity="1" /><path clip-path="url(#clip660)" d="M1747.64 1433.77 Q1744.03 1433.77 1742.2 1437.34 Q1740.4 1440.88 1740.4 1448.01 Q1740.4 1455.12 1742.2 1458.68 Q1744.03 1462.22 1747.64 1462.22 Q1751.28 1462.22 1753.08 1458.68 Q1754.91 1455.12 1754.91 1448.01 Q1754.91 1440.88 1753.08 1437.34 Q1751.28 1433.77 1747.64 1433.77 M1747.64 1430.07 Q1753.45 1430.07 1756.51 1434.68 Q1759.59 1439.26 1759.59 1448.01 Q1759.59 1456.74 1756.51 1461.34 Q1753.45 1465.93 1747.64 1465.93 Q1741.83 1465.93 1738.76 1461.34 Q1735.7 1456.74 1735.7 1448.01 Q1735.7 1439.26 1738.76 1434.68 Q1741.83 1430.07 1747.64 1430.07 Z" fill="#000000" fill-rule="nonzero" fill-opacity="1" /><path clip-path="url(#clip660)" d="M2220.54 1434.77 L2208.74 1453.22 L2220.54 1453.22 L2220.54 1434.77 M2219.32 1430.7 L2225.2 1430.7 L2225.2 1453.22 L2230.13 1453.22 L2230.13 1457.11 L2225.2 1457.11 L2225.2 1465.26 L2220.54 1465.26 L2220.54 1457.11 L2204.94 1457.11 L2204.94 1452.59 L2219.32 1430.7 Z" fill="#000000" fill-rule="nonzero" fill-opacity="1" /><path clip-path="url(#clip660)" d="M2247.86 1433.77 Q2244.25 1433.77 2242.42 1437.34 Q2240.61 1440.88 2240.61 1448.01 Q2240.61 1455.12 2242.42 1458.68 Q2244.25 1462.22 2247.86 1462.22 Q2251.49 1462.22 2253.3 1458.68 Q2255.13 1455.12 2255.13 1448.01 Q2255.13 1440.88 2253.3 1437.34 Q2251.49 1433.77 2247.86 1433.77 M2247.86 1430.07 Q2253.67 1430.07 2256.72 1434.68 Q2259.8 1439.26 2259.8 1448.01 Q2259.8 1456.74 2256.72 1461.34 Q2253.67 1465.93 2247.86 1465.93 Q2242.05 1465.93 2238.97 1461.34 Q2235.91 1456.74 2235.91 1448.01 Q2235.91 1439.26 2238.97 1434.68 Q2242.05 1430.07 2247.86 1430.07 Z" fill="#000000" fill-rule="nonzero" fill-opacity="1" /><path clip-path="url(#clip660)" d="M2706.64 1430.7 L2724.99 1430.7 L2724.99 1434.63 L2710.92 1434.63 L2710.92 1443.1 Q2711.94 1442.76 2712.96 1442.59 Q2713.97 1442.41 2714.99 1442.41 Q2720.78 1442.41 2724.16 1445.58 Q2727.54 1448.75 2727.54 1454.17 Q2727.54 1459.75 2724.07 1462.85 Q2720.59 1465.93 2714.27 1465.93 Q2712.1 1465.93 2709.83 1465.56 Q2707.58 1465.19 2705.18 1464.45 L2705.18 1459.75 Q2707.26 1460.88 2709.48 1461.44 Q2711.71 1461.99 2714.18 1461.99 Q2718.19 1461.99 2720.52 1459.89 Q2722.86 1457.78 2722.86 1454.17 Q2722.86 1450.56 2720.52 1448.45 Q2718.19 1446.34 2714.18 1446.34 Q2712.31 1446.34 2710.43 1446.76 Q2708.58 1447.18 2706.64 1448.06 L2706.64 1430.7 Z" fill="#000000" fill-rule="nonzero" fill-opacity="1" /><path clip-path="url(#clip660)" d="M2746.75 1433.77 Q2743.14 1433.77 2741.31 1437.34 Q2739.51 1440.88 2739.51 1448.01 Q2739.51 1455.12 2741.31 1458.68 Q2743.14 1462.22 2746.75 1462.22 Q2750.39 1462.22 2752.19 1458.68 Q2754.02 1455.12 2754.02 1448.01 Q2754.02 1440.88 2752.19 1437.34 Q2750.39 1433.77 2746.75 1433.77 M2746.75 1430.07 Q2752.56 1430.07 2755.62 1434.68 Q2758.7 1439.26 2758.7 1448.01 Q2758.7 1456.74 2755.62 1461.34 Q2752.56 1465.93 2746.75 1465.93 Q2740.94 1465.93 2737.86 1461.34 Q2734.81 1456.74 2734.81 1448.01 Q2734.81 1439.26 2737.86 1434.68 Q2740.94 1430.07 2746.75 1430.07 Z" fill="#000000" fill-rule="nonzero" fill-opacity="1" /><path clip-path="url(#clip660)" d="M1482.08 1507.55 L1482.08 1517.67 L1494.15 1517.67 L1494.15 1522.22 L1482.08 1522.22 L1482.08 1541.58 Q1482.08 1545.94 1483.26 1547.18 Q1484.47 1548.42 1488.13 1548.42 L1494.15 1548.42 L1494.15 1553.32 L1488.13 1553.32 Q1481.35 1553.32 1478.77 1550.81 Q1476.2 1548.26 1476.2 1541.58 L1476.2 1522.22 L1471.9 1522.22 L1471.9 1517.67 L1476.2 1517.67 L1476.2 1507.55 L1482.08 1507.55 Z" fill="#000000" fill-rule="nonzero" fill-opacity="1" /><polyline clip-path="url(#clip660)" style="stroke:#000000; stroke-linecap:round; stroke-linejoin:round; stroke-width:4; stroke-opacity:1; fill:none" points="234.111,1396.46 234.111,47.2441 "/>
<polyline clip-path="url(#clip660)" style="stroke:#000000; stroke-linecap:round; stroke-linejoin:round; stroke-width:4; stroke-opacity:1; fill:none" points="2731.94,1396.46 2731.94,47.2441 "/>
<polyline clip-path="url(#clip660)" style="stroke:#000000; stroke-linecap:round; stroke-linejoin:round; stroke-width:4; stroke-opacity:1; fill:none" points="234.111,1300.63 250.284,1300.63 "/>
<polyline clip-path="url(#clip660)" style="stroke:#000000; stroke-linecap:round; stroke-linejoin:round; stroke-width:4; stroke-opacity:1; fill:none" points="234.111,1021.63 250.284,1021.63 "/>
<polyline clip-path="url(#clip660)" style="stroke:#000000; stroke-linecap:round; stroke-linejoin:round; stroke-width:4; stroke-opacity:1; fill:none" points="234.111,742.626 250.284,742.626 "/>
<polyline clip-path="url(#clip660)" style="stroke:#000000; stroke-linecap:round; stroke-linejoin:round; stroke-width:4; stroke-opacity:1; fill:none" points="234.111,463.625 250.284,463.625 "/>
<polyline clip-path="url(#clip660)" style="stroke:#000000; stroke-linecap:round; stroke-linejoin:round; stroke-width:4; stroke-opacity:1; fill:none" points="234.111,184.624 250.284,184.624 "/>
<polyline clip-path="url(#clip660)" style="stroke:#000000; stroke-linecap:round; stroke-linejoin:round; stroke-width:4; stroke-opacity:1; fill:none" points="2731.94,1300.63 2715.76,1300.63 "/>
<polyline clip-path="url(#clip660)" style="stroke:#000000; stroke-linecap:round; stroke-linejoin:round; stroke-width:4; stroke-opacity:1; fill:none" points="2731.94,1021.63 2715.76,1021.63 "/>
<polyline clip-path="url(#clip660)" style="stroke:#000000; stroke-linecap:round; stroke-linejoin:round; stroke-width:4; stroke-opacity:1; fill:none" points="2731.94,742.626 2715.76,742.626 "/>
<polyline clip-path="url(#clip660)" style="stroke:#000000; stroke-linecap:round; stroke-linejoin:round; stroke-width:4; stroke-opacity:1; fill:none" points="2731.94,463.625 2715.76,463.625 "/>
<polyline clip-path="url(#clip660)" style="stroke:#000000; stroke-linecap:round; stroke-linejoin:round; stroke-width:4; stroke-opacity:1; fill:none" points="2731.94,184.624 2715.76,184.624 "/>
<path clip-path="url(#clip660)" d="M95.2316 1301.08 L124.907 1301.08 L124.907 1305.01 L95.2316 1305.01 L95.2316 1301.08 Z" fill="#000000" fill-rule="nonzero" fill-opacity="1" /><path clip-path="url(#clip660)" d="M133.819 1283.35 L156.041 1283.35 L156.041 1285.34 L143.495 1317.91 L138.611 1317.91 L150.416 1287.28 L133.819 1287.28 L133.819 1283.35 Z" fill="#000000" fill-rule="nonzero" fill-opacity="1" /><path clip-path="url(#clip660)" d="M165.208 1283.35 L183.564 1283.35 L183.564 1287.28 L169.49 1287.28 L169.49 1295.76 Q170.509 1295.41 171.527 1295.25 Q172.546 1295.06 173.564 1295.06 Q179.352 1295.06 182.731 1298.23 Q186.111 1301.4 186.111 1306.82 Q186.111 1312.4 182.639 1315.5 Q179.166 1318.58 172.847 1318.58 Q170.671 1318.58 168.402 1318.21 Q166.157 1317.84 163.75 1317.1 L163.75 1312.4 Q165.833 1313.53 168.055 1314.09 Q170.277 1314.64 172.754 1314.64 Q176.759 1314.64 179.097 1312.54 Q181.435 1310.43 181.435 1306.82 Q181.435 1303.21 179.097 1301.1 Q176.759 1299 172.754 1299 Q170.879 1299 169.004 1299.41 Q167.152 1299.83 165.208 1300.71 L165.208 1283.35 Z" fill="#000000" fill-rule="nonzero" fill-opacity="1" /><path clip-path="url(#clip660)" d="M94.2362 1022.08 L123.912 1022.08 L123.912 1026.01 L94.2362 1026.01 L94.2362 1022.08 Z" fill="#000000" fill-rule="nonzero" fill-opacity="1" /><path clip-path="url(#clip660)" d="M134.051 1004.35 L152.407 1004.35 L152.407 1008.28 L138.333 1008.28 L138.333 1016.75 Q139.352 1016.41 140.37 1016.24 Q141.389 1016.06 142.407 1016.06 Q148.194 1016.06 151.574 1019.23 Q154.953 1022.4 154.953 1027.82 Q154.953 1033.4 151.481 1036.5 Q148.009 1039.58 141.69 1039.58 Q139.514 1039.58 137.245 1039.21 Q135 1038.84 132.592 1038.1 L132.592 1033.4 Q134.676 1034.53 136.898 1035.09 Q139.12 1035.64 141.597 1035.64 Q145.602 1035.64 147.94 1033.54 Q150.278 1031.43 150.278 1027.82 Q150.278 1024.21 147.94 1022.1 Q145.602 1019.99 141.597 1019.99 Q139.722 1019.99 137.847 1020.41 Q135.995 1020.83 134.051 1021.71 L134.051 1004.35 Z" fill="#000000" fill-rule="nonzero" fill-opacity="1" /><path clip-path="url(#clip660)" d="M174.166 1007.43 Q170.555 1007.43 168.727 1010.99 Q166.921 1014.53 166.921 1021.66 Q166.921 1028.77 168.727 1032.33 Q170.555 1035.87 174.166 1035.87 Q177.801 1035.87 179.606 1032.33 Q181.435 1028.77 181.435 1021.66 Q181.435 1014.53 179.606 1010.99 Q177.801 1007.43 174.166 1007.43 M174.166 1003.72 Q179.977 1003.72 183.032 1008.33 Q186.111 1012.91 186.111 1021.66 Q186.111 1030.39 183.032 1034.99 Q179.977 1039.58 174.166 1039.58 Q168.356 1039.58 165.278 1034.99 Q162.222 1030.39 162.222 1021.66 Q162.222 1012.91 165.278 1008.33 Q168.356 1003.72 174.166 1003.72 Z" fill="#000000" fill-rule="nonzero" fill-opacity="1" /><path clip-path="url(#clip660)" d="M95.2316 743.077 L124.907 743.077 L124.907 747.012 L95.2316 747.012 L95.2316 743.077 Z" fill="#000000" fill-rule="nonzero" fill-opacity="1" /><path clip-path="url(#clip660)" d="M139.028 755.971 L155.347 755.971 L155.347 759.906 L133.403 759.906 L133.403 755.971 Q136.065 753.216 140.648 748.586 Q145.254 743.934 146.435 742.591 Q148.68 740.068 149.56 738.332 Q150.463 736.573 150.463 734.883 Q150.463 732.128 148.518 730.392 Q146.597 728.656 143.495 728.656 Q141.296 728.656 138.842 729.42 Q136.412 730.184 133.634 731.735 L133.634 727.012 Q136.458 725.878 138.912 725.299 Q141.366 724.721 143.403 724.721 Q148.773 724.721 151.967 727.406 Q155.162 730.091 155.162 734.582 Q155.162 736.711 154.352 738.633 Q153.565 740.531 151.458 743.123 Q150.879 743.795 147.778 747.012 Q144.676 750.207 139.028 755.971 Z" fill="#000000" fill-rule="nonzero" fill-opacity="1" /><path clip-path="url(#clip660)" d="M165.208 725.346 L183.564 725.346 L183.564 729.281 L169.49 729.281 L169.49 737.753 Q170.509 737.406 171.527 737.244 Q172.546 737.059 173.564 737.059 Q179.352 737.059 182.731 740.23 Q186.111 743.401 186.111 748.818 Q186.111 754.397 182.639 757.498 Q179.166 760.577 172.847 760.577 Q170.671 760.577 168.402 760.207 Q166.157 759.836 163.75 759.096 L163.75 754.397 Q165.833 755.531 168.055 756.086 Q170.277 756.642 172.754 756.642 Q176.759 756.642 179.097 754.535 Q181.435 752.429 181.435 748.818 Q181.435 745.207 179.097 743.1 Q176.759 740.994 172.754 740.994 Q170.879 740.994 169.004 741.411 Q167.152 741.827 165.208 742.707 L165.208 725.346 Z" fill="#000000" fill-rule="nonzero" fill-opacity="1" /><path clip-path="url(#clip660)" d="M174.166 449.423 Q170.555 449.423 168.727 452.988 Q166.921 456.53 166.921 463.659 Q166.921 470.766 168.727 474.331 Q170.555 477.872 174.166 477.872 Q177.801 477.872 179.606 474.331 Q181.435 470.766 181.435 463.659 Q181.435 456.53 179.606 452.988 Q177.801 449.423 174.166 449.423 M174.166 445.72 Q179.977 445.72 183.032 450.326 Q186.111 454.91 186.111 463.659 Q186.111 472.386 183.032 476.993 Q179.977 481.576 174.166 481.576 Q168.356 481.576 165.278 476.993 Q162.222 472.386 162.222 463.659 Q162.222 454.91 165.278 450.326 Q168.356 445.72 174.166 445.72 Z" fill="#000000" fill-rule="nonzero" fill-opacity="1" /><path clip-path="url(#clip660)" d="M139.028 197.969 L155.347 197.969 L155.347 201.904 L133.403 201.904 L133.403 197.969 Q136.065 195.214 140.648 190.584 Q145.254 185.932 146.435 184.589 Q148.68 182.066 149.56 180.33 Q150.463 178.571 150.463 176.881 Q150.463 174.126 148.518 172.39 Q146.597 170.654 143.495 170.654 Q141.296 170.654 138.842 171.418 Q136.412 172.182 133.634 173.733 L133.634 169.01 Q136.458 167.876 138.912 167.297 Q141.366 166.719 143.403 166.719 Q148.773 166.719 151.967 169.404 Q155.162 172.089 155.162 176.58 Q155.162 178.709 154.352 180.631 Q153.565 182.529 151.458 185.121 Q150.879 185.793 147.778 189.01 Q144.676 192.205 139.028 197.969 Z" fill="#000000" fill-rule="nonzero" fill-opacity="1" /><path clip-path="url(#clip660)" d="M165.208 167.344 L183.564 167.344 L183.564 171.279 L169.49 171.279 L169.49 179.751 Q170.509 179.404 171.527 179.242 Q172.546 179.057 173.564 179.057 Q179.352 179.057 182.731 182.228 Q186.111 185.399 186.111 190.816 Q186.111 196.395 182.639 199.496 Q179.166 202.575 172.847 202.575 Q170.671 202.575 168.402 202.205 Q166.157 201.834 163.75 201.094 L163.75 196.395 Q165.833 197.529 168.055 198.084 Q170.277 198.64 172.754 198.64 Q176.759 198.64 179.097 196.533 Q181.435 194.427 181.435 190.816 Q181.435 187.205 179.097 185.098 Q176.759 182.992 172.754 182.992 Q170.879 182.992 169.004 183.408 Q167.152 183.825 165.208 184.705 L165.208 167.344 Z" fill="#000000" fill-rule="nonzero" fill-opacity="1" /><polyline clip-path="url(#clip661)" style="stroke:#009af9; stroke-linecap:round; stroke-linejoin:round; stroke-width:12; stroke-opacity:1; fill:none" points="234.111,1243.77 235.231,1243.76 236.352,1243.76 237.473,1243.76 238.593,1243.76 239.714,1243.76 240.834,1243.76 241.955,1243.76 243.076,1243.75 244.196,1243.75 245.317,1243.74 246.437,1243.74 247.558,1243.73 248.679,1243.72 249.799,1243.71 250.92,1243.7 252.04,1243.69 253.161,1243.67 254.282,1243.66 255.402,1243.64 256.523,1243.62 257.643,1243.6 258.764,1243.57 259.885,1243.55 261.005,1243.52 262.126,1243.49 263.246,1243.46 264.367,1243.42 265.488,1243.38 266.608,1243.34 267.729,1243.3 268.849,1243.25 269.97,1243.2 271.091,1243.15 272.211,1243.1 273.332,1243.04 274.452,1242.98 275.573,1242.91 276.694,1242.85 277.814,1242.77 278.935,1242.7 280.055,1242.62 281.176,1242.54 282.297,1242.45 283.417,1242.37 284.538,1242.27 285.659,1242.18 286.779,1242.08 287.9,1241.97 289.02,1241.86 290.141,1241.75 291.262,1241.63 292.382,1241.51 293.503,1241.38 294.623,1241.25 295.744,1241.12 296.865,1240.98 297.985,1240.84 299.106,1240.69 300.226,1240.53 301.347,1240.38 302.468,1240.21 303.588,1240.05 304.709,1239.88 305.829,1239.7 306.95,1239.52 308.071,1239.33 309.191,1239.14 310.312,1238.94 311.432,1238.74 312.553,1238.53 313.674,1238.32 314.794,1238.1 315.915,1237.88 317.035,1237.65 318.156,1237.41 319.277,1237.17 320.397,1236.93 321.518,1236.68 322.638,1236.42 323.759,1236.16 324.88,1235.89 326,1235.61 327.121,1235.33 328.241,1235.05 329.362,1234.76 330.483,1234.46 331.603,1234.16 332.724,1233.85 333.844,1233.54 334.965,1233.22 336.086,1232.89 337.206,1232.56 338.327,1232.22 339.447,1231.87 340.568,1231.52 341.689,1231.16 342.809,1230.8 343.93,1230.42 345.051,1230.05 346.171,1229.66 347.292,1229.27 348.412,1228.88 349.533,1228.47 350.654,1228.06 351.774,1227.65 352.895,1227.22 354.015,1226.79 355.136,1226.36 356.257,1225.91 357.377,1225.46 358.498,1225.01 359.618,1224.54 360.739,1224.07 361.86,1223.59 362.98,1223.11 364.101,1222.62 365.221,1222.12 366.342,1221.61 367.463,1221.1 368.583,1220.58 369.704,1220.05 370.824,1219.51 371.945,1218.97 373.066,1218.42 374.186,1217.86 375.307,1217.29 376.427,1216.72 377.548,1216.14 378.669,1215.55 379.789,1214.95 380.91,1214.34 382.03,1213.73 383.151,1213.11 384.272,1212.48 385.392,1211.84 386.513,1211.19 387.633,1210.53 388.754,1209.87 389.875,1209.19 390.995,1208.51 392.116,1207.81 393.236,1207.11 394.357,1206.39 395.478,1205.67 396.598,1204.93 397.719,1204.19 398.839,1203.43 399.96,1202.67 401.081,1201.9 402.201,1201.11 403.322,1200.32 404.443,1199.52 405.563,1198.7 406.684,1197.88 407.804,1197.04 408.925,1196.2 410.046,1195.34 411.166,1194.47 412.287,1193.58 413.407,1192.69 414.528,1191.78 415.649,1190.86 416.769,1189.92 417.89,1188.97 419.01,1188 420.131,1187.02 421.252,1186.02 422.372,1185 423.493,1183.96 424.613,1182.91 425.734,1181.84 426.855,1180.75 427.975,1179.63 429.096,1178.49 430.216,1177.33 431.337,1176.14 432.458,1174.92 433.578,1173.67 434.699,1172.4 435.819,1171.11 436.94,1169.79 438.061,1168.45 439.181,1167.08 440.302,1165.69 441.422,1164.27 442.543,1162.82 443.664,1161.34 444.784,1159.82 445.905,1158.28 447.025,1156.69 448.146,1155.06 449.267,1153.39 450.387,1151.68 451.508,1149.91 452.628,1148.09 453.749,1146.21 454.87,1144.26 455.99,1142.25 457.111,1140.16 458.231,1138 459.352,1135.75 460.473,1133.41 461.593,1130.97 462.714,1128.41 463.835,1125.7 464.955,1122.83 466.076,1119.83 467.196,1116.71 468.317,1113.47 469.438,1110.11 470.558,1106.61 471.679,1102.98 472.799,1099.18 473.92,1095.2 475.041,1090.99 476.161,1086.54 477.282,1081.79 478.402,1076.69 479.523,1071.2 480.644,1065.24 481.764,1058.77 482.885,1051.7 484.005,1043.97 485.126,1035.48 486.247,1026.14 487.367,1015.88 488.488,1004.58 489.608,992.142 490.729,978.452 491.85,963.246 492.97,946.146 494.091,926.822 495.211,904.877 496.332,879.851 497.453,851.157 498.573,818.089 499.694,779.993 500.814,736.29 501.935,686.469 503.056,630.087 504.176,566.782 505.297,497.286 506.417,424.49 507.538,351.863 508.659,283.249 509.779,222.76 510.9,173.122 512.02,136.642 513.141,112.767 514.262,97.3846 515.382,87.8603 516.503,85.4293 517.624,86.8643 518.744,88.8921 519.865,93.1802 520.985,98.9499 522.106,105.266 523.227,112.605 524.347,120.832 525.468,129.326 526.588,138.328 527.709,148.078 528.83,158.218 529.95,168.419 531.071,179.163 532.191,190.472 533.312,201.815 534.433,213.269 535.553,225.212 536.674,237.458 537.794,249.569 538.915,261.899 540.036,274.586 541.156,287.312 542.277,299.941 543.397,312.789 544.518,325.83 545.639,338.75 546.759,351.659 547.88,364.725 549,377.827 550.121,390.775 551.242,403.752 552.362,416.803 553.483,429.772 554.603,442.637 555.724,455.518 556.845,468.386 557.965,481.129 559.086,493.819 560.206,506.48 561.327,519.049 562.448,531.523 563.568,543.963 564.689,556.346 565.809,568.599 566.93,580.774 568.051,592.914 569.171,604.985 570.292,616.918 571.412,628.775 572.533,640.597 573.654,652.364 574.774,664.003 575.895,675.546 577.016,687.052 578.136,698.525 579.257,709.921 580.377,721.198 581.498,732.419 582.619,743.616 583.739,754.789 584.86,765.903 585.98,776.938 587.101,787.939 588.222,798.926 589.342,809.906 590.463,820.881 591.583,831.844 592.704,842.866 593.825,853.921 594.945,864.965 596.066,875.99 597.186,887.028 598.307,898.15 599.428,909.464 600.548,921.033 601.669,932.746 602.789,944.533 603.91,956.393 605.031,968.399 606.151,980.699 607.272,993.459 608.392,1006.58 609.513,1019.96 610.634,1033.54 611.754,1047.39 612.875,1061.59 613.995,1076.34 615.116,1091.61 616.237,1107.22 617.357,1123.08 618.478,1139.11 619.598,1155.28 620.719,1171.61 621.84,1188.1 622.96,1204.47 624.081,1220.48 625.201,1235.92 626.322,1250.65 627.443,1264.52 628.563,1277.45 629.684,1289.35 630.804,1300.09 631.925,1309.6 633.046,1317.88 634.166,1324.97 635.287,1330.98 636.408,1336.06 637.528,1340.37 638.649,1343.94 639.769,1346.85 640.89,1349.2 642.011,1351.07 643.131,1352.56 644.252,1353.77 645.372,1354.74 646.493,1355.49 647.614,1356.06 648.734,1356.48 649.855,1356.78 650.975,1356.99 652.096,1357.12 653.217,1357.21 654.337,1357.24 655.458,1357.23 656.578,1357.18 657.699,1357.11 658.82,1357.01 659.94,1356.89 661.061,1356.76 662.181,1356.62 663.302,1356.46 664.423,1356.29 665.543,1356.12 666.664,1355.94 667.784,1355.76 668.905,1355.57 670.026,1355.37 671.146,1355.17 672.267,1354.97 673.387,1354.77 674.508,1354.56 675.629,1354.35 676.749,1354.14 677.87,1353.93 678.99,1353.72 680.111,1353.5 681.232,1353.29 682.352,1353.07 683.473,1352.85 684.593,1352.63 685.714,1352.41 686.835,1352.19 687.955,1351.96 689.076,1351.74 690.196,1351.52 691.317,1351.29 692.438,1351.07 693.558,1350.84 694.679,1350.61 695.8,1350.38 696.92,1350.16 698.041,1349.93 699.161,1349.7 700.282,1349.47 701.403,1349.24 702.523,1349.01 703.644,1348.77 704.764,1348.54 705.885,1348.31 707.006,1348.08 708.126,1347.84 709.247,1347.61 710.367,1347.38 711.488,1347.14 712.609,1346.91 713.729,1346.67 714.85,1346.44 715.97,1346.2 717.091,1345.97 718.212,1345.73 719.332,1345.5 720.453,1345.26 721.573,1345.02 722.694,1344.79 723.815,1344.55 724.935,1344.32 726.056,1344.08 727.176,1343.84 728.297,1343.61 729.418,1343.37 730.538,1343.13 731.659,1342.9 732.779,1342.66 733.9,1342.42 735.021,1342.19 736.141,1341.95 737.262,1341.71 738.382,1341.48 739.503,1341.24 740.624,1341.01 741.744,1340.77 742.865,1340.54 743.985,1340.3 745.106,1340.07 746.227,1339.83 747.347,1339.6 748.468,1339.36 749.589,1339.13 750.709,1338.9 751.83,1338.66 752.95,1338.43 754.071,1338.2 755.192,1337.97 756.312,1337.74 757.433,1337.51 758.553,1337.28 759.674,1337.05 760.795,1336.82 761.915,1336.59 763.036,1336.36 764.156,1336.13 765.277,1335.91 766.398,1335.68 767.518,1335.46 768.639,1335.23 769.759,1335.01 770.88,1334.78 772.001,1334.56 773.121,1334.34 774.242,1334.12 775.362,1333.9 776.483,1333.68 777.604,1333.46 778.724,1333.24 779.845,1333.02 780.965,1332.81 782.086,1332.59 783.207,1332.37 784.327,1332.16 785.448,1331.95 786.568,1331.73 787.689,1331.52 788.81,1331.31 789.93,1331.1 791.051,1330.89 792.171,1330.69 793.292,1330.48 794.413,1330.27 795.533,1330.07 796.654,1329.87 797.774,1329.66 798.895,1329.46 800.016,1329.26 801.136,1329.06 802.257,1328.86 803.377,1328.67 804.498,1328.47 805.619,1328.27 806.739,1328.08 807.86,1327.89 808.981,1327.69 810.101,1327.5 811.222,1327.31 812.342,1327.12 813.463,1326.94 814.584,1326.75 815.704,1326.56 816.825,1326.38 817.945,1326.2 819.066,1326.01 820.187,1325.83 821.307,1325.65 822.428,1325.48 823.548,1325.3 824.669,1325.12 825.79,1324.95 826.91,1324.77 828.031,1324.6 829.151,1324.43 830.272,1324.26 831.393,1324.09 832.513,1323.92 833.634,1323.76 834.754,1323.59 835.875,1323.42 836.996,1323.26 838.116,1323.1 839.237,1322.94 840.357,1322.78 841.478,1322.62 842.599,1322.46 843.719,1322.3 844.84,1322.15 845.96,1321.99 847.081,1321.84 848.202,1321.69 849.322,1321.54 850.443,1321.39 851.563,1321.24 852.684,1321.09 853.805,1320.94 854.925,1320.8 856.046,1320.65 857.166,1320.51 858.287,1320.37 859.408,1320.23 860.528,1320.09 861.649,1319.95 862.769,1319.81 863.89,1319.67 865.011,1319.53 866.131,1319.4 867.252,1319.26 868.373,1319.13 869.493,1318.99 870.614,1318.86 871.734,1318.73 872.855,1318.6 873.976,1318.47 875.096,1318.34 876.217,1318.21 877.337,1318.08 878.458,1317.96 879.579,1317.83 880.699,1317.71 881.82,1317.58 882.94,1317.46 884.061,1317.33 885.182,1317.21 886.302,1317.09 887.423,1316.97 888.543,1316.85 889.664,1316.73 890.785,1316.61 891.905,1316.49 893.026,1316.37 894.146,1316.25 895.267,1316.13 896.388,1316.02 897.508,1315.9 898.629,1315.78 899.749,1315.66 900.87,1315.55 901.991,1315.43 903.111,1315.32 904.232,1315.2 905.352,1315.08 906.473,1314.97 907.594,1314.85 908.714,1314.74 909.835,1314.62 910.955,1314.51 912.076,1314.39 913.197,1314.28 914.317,1314.16 915.438,1314.05 916.558,1313.93 917.679,1313.82 918.8,1313.7 919.92,1313.59 921.041,1313.47 922.161,1313.35 923.282,1313.24 924.403,1313.12 925.523,1313 926.644,1312.89 927.765,1312.77 928.885,1312.65 930.006,1312.53 931.126,1312.41 932.247,1312.29 933.368,1312.17 934.488,1312.05 935.609,1311.93 936.729,1311.8 937.85,1311.68 938.971,1311.56 940.091,1311.43 941.212,1311.3 942.332,1311.18 943.453,1311.05 944.574,1310.92 945.694,1310.79 946.815,1310.66 947.935,1310.53 949.056,1310.4 950.177,1310.26 951.297,1310.13 952.418,1309.99 953.538,1309.85 954.659,1309.72 955.78,1309.58 956.9,1309.43 958.021,1309.29 959.141,1309.15 960.262,1309 961.383,1308.85 962.503,1308.71 963.624,1308.56 964.744,1308.4 965.865,1308.25 966.986,1308.09 968.106,1307.94 969.227,1307.78 970.347,1307.62 971.468,1307.45 972.589,1307.29 973.709,1307.12 974.83,1306.95 975.95,1306.78 977.071,1306.61 978.192,1306.44 979.312,1306.26 980.433,1306.08 981.553,1305.9 982.674,1305.72 983.795,1305.54 984.915,1305.35 986.036,1305.16 987.157,1304.97 988.277,1304.77 989.398,1304.58 990.518,1304.38 991.639,1304.17 992.76,1303.97 993.88,1303.76 995.001,1303.55 996.121,1303.34 997.242,1303.12 998.363,1302.91 999.483,1302.69 1000.6,1302.46 1001.72,1302.24 1002.84,1302.01 1003.97,1301.78 1005.09,1301.54 1006.21,1301.3 1007.33,1301.06 1008.45,1300.82 1009.57,1300.57 1010.69,1300.32 1011.81,1300.07 1012.93,1299.81 1014.05,1299.55 1015.17,1299.29 1016.29,1299.03 1017.41,1298.76 1018.53,1298.48 1019.65,1298.21 1020.77,1297.93 1021.9,1297.65 1023.02,1297.36 1024.14,1297.07 1025.26,1296.78 1026.38,1296.48 1027.5,1296.18 1028.62,1295.88 1029.74,1295.57 1030.86,1295.26 1031.98,1294.94 1033.1,1294.62 1034.22,1294.3 1035.34,1293.98 1036.46,1293.65 1037.58,1293.31 1038.7,1292.98 1039.82,1292.64 1040.95,1292.29 1042.07,1291.94 1043.19,1291.59 1044.31,1291.23 1045.43,1290.87 1046.55,1290.51 1047.67,1290.14 1048.79,1289.77 1049.91,1289.39 1051.03,1289.01 1052.15,1288.62 1053.27,1288.24 1054.39,1287.84 1055.51,1287.44 1056.63,1287.04 1057.75,1286.64 1058.88,1286.23 1060,1285.81 1061.12,1285.39 1062.24,1284.97 1063.36,1284.54 1064.48,1284.11 1065.6,1283.68 1066.72,1283.24 1067.84,1282.79 1068.96,1282.34 1070.08,1281.89 1071.2,1281.43 1072.32,1280.97 1073.44,1280.5 1074.56,1280.03 1075.68,1279.56 1076.8,1279.08 1077.93,1278.59 1079.05,1278.11 1080.17,1277.61 1081.29,1277.11 1082.41,1276.61 1083.53,1276.11 1084.65,1275.59 1085.77,1275.08 1086.89,1274.56 1088.01,1274.03 1089.13,1273.5 1090.25,1272.97 1091.37,1272.43 1092.49,1271.89 1093.61,1271.34 1094.73,1270.78 1095.86,1270.23 1096.98,1269.67 1098.1,1269.1 1099.22,1268.53 1100.34,1267.95 1101.46,1267.37 1102.58,1266.79 1103.7,1266.2 1104.82,1265.6 1105.94,1265 1107.06,1264.4 1108.18,1263.79 1109.3,1263.18 1110.42,1262.56 1111.54,1261.93 1112.66,1261.31 1113.78,1260.67 1114.91,1260.04 1116.03,1259.4 1117.15,1258.75 1118.27,1258.1 1119.39,1257.44 1120.51,1256.78 1121.63,1256.12 1122.75,1255.45 1123.87,1254.77 1124.99,1254.09 1126.11,1253.41 1127.23,1252.72 1128.35,1252.03 1129.47,1251.33 1130.59,1250.62 1131.71,1249.91 1132.84,1249.2 1133.96,1248.48 1135.08,1247.75 1136.2,1247.02 1137.32,1246.29 1138.44,1245.55 1139.56,1244.8 1140.68,1244.05 1141.8,1243.29 1142.92,1242.53 1144.04,1241.76 1145.16,1240.99 1146.28,1240.22 1147.4,1239.44 1148.52,1238.65 1149.64,1237.86 1150.76,1237.07 1151.89,1236.27 1153.01,1235.47 1154.13,1234.66 1155.25,1233.84 1156.37,1233.02 1157.49,1232.2 1158.61,1231.37 1159.73,1230.54 1160.85,1229.7 1161.97,1228.85 1163.09,1228 1164.21,1227.14 1165.33,1226.28 1166.45,1225.41 1167.57,1224.53 1168.69,1223.65 1169.81,1222.76 1170.94,1221.86 1172.06,1220.96 1173.18,1220.04 1174.3,1219.12 1175.42,1218.19 1176.54,1217.26 1177.66,1216.31 1178.78,1215.36 1179.9,1214.4 1181.02,1213.43 1182.14,1212.46 1183.26,1211.48 1184.38,1210.49 1185.5,1209.49 1186.62,1208.49 1187.74,1207.48 1188.87,1206.46 1189.99,1205.44 1191.11,1204.4 1192.23,1203.36 1193.35,1202.31 1194.47,1201.25 1195.59,1200.17 1196.71,1199.09 1197.83,1198 1198.95,1196.9 1200.07,1195.78 1201.19,1194.65 1202.31,1193.5 1203.43,1192.34 1204.55,1191.17 1205.67,1189.98 1206.79,1188.77 1207.92,1187.54 1209.04,1186.29 1210.16,1185.02 1211.28,1183.73 1212.4,1182.42 1213.52,1181.1 1214.64,1179.76 1215.76,1178.41 1216.88,1177.03 1218,1175.64 1219.12,1174.22 1220.24,1172.79 1221.36,1171.34 1222.48,1169.86 1223.6,1168.36 1224.72,1166.83 1225.85,1165.27 1226.97,1163.68 1228.09,1162.06 1229.21,1160.4 1230.33,1158.7 1231.45,1156.96 1232.57,1155.18 1233.69,1153.35 1234.81,1151.46 1235.93,1149.52 1237.05,1147.51 1238.17,1145.45 1239.29,1143.3 1240.41,1141.03 1241.53,1138.64 1242.65,1136.14 1243.77,1133.55 1244.9,1130.89 1246.02,1128.14 1247.14,1125.32 1248.26,1122.43 1249.38,1119.46 1250.5,1116.4 1251.62,1113.24 1252.74,1109.96 1253.86,1106.55 1254.98,1102.99 1256.1,1099.24 1257.22,1095.27 1258.34,1091.07 1259.46,1086.58 1260.58,1081.76 1261.7,1076.58 1262.83,1070.99 1263.95,1064.93 1265.07,1058.35 1266.19,1051.19 1267.31,1043.39 1268.43,1034.89 1269.55,1025.62 1270.67,1015.5 1271.79,1004.41 1272.91,992.144 1274.03,978.518 1275.15,963.3 1276.27,946.215 1277.39,926.939 1278.51,904.99 1279.63,879.853 1280.75,851.029 1281.88,818.004 1283,780.255 1284.12,737.247 1285.24,688.432 1286.36,633.252 1287.48,571.136 1288.6,502.419 1289.72,430.283 1290.84,358.081 1291.96,289.385 1293.08,228.007 1294.2,177.974 1295.32,140.107 1296.44,114.563 1297.56,99.8851 1298.68,90.8861 1299.8,86.7329 1300.93,87.5884 1302.05,90.276 1303.17,94.2243 1304.29,99.9417 1305.41,106.54 1306.53,113.726 1307.65,121.846 1308.77,130.646 1309.89,139.65 1311.01,149.232 1312.13,159.504 1313.25,170.02 1314.37,180.643 1315.49,191.818 1316.61,203.466 1317.73,215.068 1318.86,226.856 1319.98,239.103 1321.1,251.553 1322.22,263.875 1323.34,276.439 1324.46,289.308 1325.58,302.151 1326.7,314.934 1327.82,327.922 1328.94,341.053 1330.06,354.042 1331.18,367.039 1332.3,380.167 1333.42,393.295 1334.54,406.277 1335.66,419.286 1336.78,432.342 1337.91,445.3 1339.03,458.165 1340.15,471.033 1341.27,483.867 1342.39,496.581 1343.51,509.242 1344.63,521.855 1345.75,534.363 1346.87,546.789 1347.99,559.187 1349.11,571.521 1350.23,583.713 1351.35,595.829 1352.47,607.903 1353.59,619.906 1354.71,631.774 1355.84,643.566 1356.96,655.324 1358.08,667.031 1359.2,678.616 1360.32,690.099 1361.44,701.539 1362.56,712.949 1363.68,724.297 1364.8,735.536 1365.92,746.709 1367.04,757.856 1368.16,768.984 1369.28,780.077 1370.4,791.105 1371.52,802.102 1372.64,813.085 1373.76,824.061 1374.89,835.04 1376.01,846.031 1377.13,857.117 1378.25,868.562 1379.37,880.114 1380.49,891.544 1381.61,902.739 1382.73,913.699 1383.85,924.533 1384.97,935.468 1386.09,946.84 1387.21,959.069 1388.33,971.725 1389.45,984.463 1390.57,997.31 1391.69,1010.37 1392.82,1023.81 1393.94,1037.69 1395.06,1051.89 1396.18,1066.37 1397.3,1081.14 1398.42,1096.26 1399.54,1111.84 1400.66,1127.85 1401.78,1144.11 1402.9,1160.49 1404.02,1176.89 1405.14,1193.2 1406.26,1209.35 1407.38,1225.23 1408.5,1240.57 1409.62,1255.14 1410.74,1268.79 1411.87,1281.38 1412.99,1292.85 1414.11,1303.18 1415.23,1312.34 1416.35,1320.34 1417.47,1327.2 1418.59,1332.99 1419.71,1337.83 1420.83,1341.84 1421.95,1345.2 1423.07,1347.97 1424.19,1350.23 1425.31,1352.03 1426.43,1353.46 1427.55,1354.59 1428.67,1355.48 1429.8,1356.2 1430.92,1356.75 1432.04,1357.17 1433.16,1357.47 1434.28,1357.68 1435.4,1357.82 1436.52,1357.91 1437.64,1357.95 1438.76,1357.95 1439.88,1357.92 1441,1357.86 1442.12,1357.78 1443.24,1357.68 1444.36,1357.57 1445.48,1357.45 1446.6,1357.31 1447.72,1357.17 1448.85,1357.02 1449.97,1356.86 1451.09,1356.7 1452.21,1356.53 1453.33,1356.36 1454.45,1356.19 1455.57,1356.01 1456.69,1355.83 1457.81,1355.65 1458.93,1355.47 1460.05,1355.29 1461.17,1355.1 1462.29,1354.91 1463.41,1354.73 1464.53,1354.54 1465.65,1354.35 1466.77,1354.16 1467.9,1353.97 1469.02,1353.77 1470.14,1353.58 1471.26,1353.39 1472.38,1353.19 1473.5,1353 1474.62,1352.81 1475.74,1352.61 1476.86,1352.41 1477.98,1352.22 1479.1,1352.02 1480.22,1351.83 1481.34,1351.63 1482.46,1351.43 1483.58,1351.23 1484.7,1351.04 1485.83,1350.84 1486.95,1350.64 1488.07,1350.44 1489.19,1350.24 1490.31,1350.04 1491.43,1349.84 1492.55,1349.64 1493.67,1349.45 1494.79,1349.25 1495.91,1349.05 1497.03,1348.85 1498.15,1348.65 1499.27,1348.45 1500.39,1348.25 1501.51,1348.05 1502.63,1347.85 1503.75,1347.65 1504.88,1347.45 1506,1347.25 1507.12,1347.05 1508.24,1346.85 1509.36,1346.65 1510.48,1346.45 1511.6,1346.25 1512.72,1346.05 1513.84,1345.85 1514.96,1345.66 1516.08,1345.46 1517.2,1345.26 1518.32,1345.06 1519.44,1344.86 1520.56,1344.67 1521.68,1344.47 1522.81,1344.27 1523.93,1344.08 1525.05,1343.88 1526.17,1343.68 1527.29,1343.49 1528.41,1343.29 1529.53,1343.1 1530.65,1342.9 1531.77,1342.71 1532.89,1342.51 1534.01,1342.32 1535.13,1342.13 1536.25,1341.93 1537.37,1341.74 1538.49,1341.55 1539.61,1341.36 1540.73,1341.17 1541.86,1340.98 1542.98,1340.79 1544.1,1340.6 1545.22,1340.41 1546.34,1340.22 1547.46,1340.03 1548.58,1339.85 1549.7,1339.66 1550.82,1339.47 1551.94,1339.29 1553.06,1339.1 1554.18,1338.92 1555.3,1338.73 1556.42,1338.55 1557.54,1338.37 1558.66,1338.19 1559.79,1338.01 1560.91,1337.83 1562.03,1337.65 1563.15,1337.47 1564.27,1337.29 1565.39,1337.11 1566.51,1336.93 1567.63,1336.76 1568.75,1336.58 1569.87,1336.4 1570.99,1336.23 1572.11,1336.06 1573.23,1335.88 1574.35,1335.71 1575.47,1335.54 1576.59,1335.37 1577.71,1335.2 1578.84,1335.03 1579.96,1334.86 1581.08,1334.69 1582.2,1334.52 1583.32,1334.36 1584.44,1334.19 1585.56,1334.03 1586.68,1333.86 1587.8,1333.7 1588.92,1333.53 1590.04,1333.37 1591.16,1333.21 1592.28,1333.05 1593.4,1332.89 1594.52,1332.73 1595.64,1332.57 1596.77,1332.41 1597.89,1332.25 1599.01,1332.1 1600.13,1331.94 1601.25,1331.79 1602.37,1331.63 1603.49,1331.48 1604.61,1331.33 1605.73,1331.17 1606.85,1331.02 1607.97,1330.87 1609.09,1330.72 1610.21,1330.57 1611.33,1330.42 1612.45,1330.27 1613.57,1330.12 1614.69,1329.98 1615.82,1329.83 1616.94,1329.68 1618.06,1329.54 1619.18,1329.39 1620.3,1329.25 1621.42,1329.1 1622.54,1328.96 1623.66,1328.81 1624.78,1328.67 1625.9,1328.53 1627.02,1328.39 1628.14,1328.25 1629.26,1328.11 1630.38,1327.97 1631.5,1327.83 1632.62,1327.69 1633.74,1327.55 1634.87,1327.41 1635.99,1327.27 1637.11,1327.13 1638.23,1326.99 1639.35,1326.86 1640.47,1326.72 1641.59,1326.58 1642.71,1326.44 1643.83,1326.31 1644.95,1326.17 1646.07,1326.04 1647.19,1325.9 1648.31,1325.76 1649.43,1325.63 1650.55,1325.49 1651.67,1325.36 1652.8,1325.22 1653.92,1325.08 1655.04,1324.95 1656.16,1324.81 1657.28,1324.68 1658.4,1324.54 1659.52,1324.4 1660.64,1324.27 1661.76,1324.13 1662.88,1324 1664,1323.86 1665.12,1323.72 1666.24,1323.58 1667.36,1323.45 1668.48,1323.31 1669.6,1323.17 1670.72,1323.03 1671.85,1322.89 1672.97,1322.76 1674.09,1322.62 1675.21,1322.48 1676.33,1322.33 1677.45,1322.19 1678.57,1322.05 1679.69,1321.91 1680.81,1321.77 1681.93,1321.62 1683.05,1321.48 1684.17,1321.33 1685.29,1321.19 1686.41,1321.04 1687.53,1320.89 1688.65,1320.74 1689.78,1320.6 1690.9,1320.45 1692.02,1320.29 1693.14,1320.14 1694.26,1319.99 1695.38,1319.84 1696.5,1319.68 1697.62,1319.53 1698.74,1319.37 1699.86,1319.21 1700.98,1319.05 1702.1,1318.89 1703.22,1318.73 1704.34,1318.56 1705.46,1318.4 1706.58,1318.23 1707.7,1318.07 1708.83,1317.9 1709.95,1317.73 1711.07,1317.55 1712.19,1317.38 1713.31,1317.21 1714.43,1317.03 1715.55,1316.85 1716.67,1316.67 1717.79,1316.49 1718.91,1316.31 1720.03,1316.12 1721.15,1315.93 1722.27,1315.75 1723.39,1315.56 1724.51,1315.36 1725.63,1315.17 1726.76,1314.97 1727.88,1314.77 1729,1314.57 1730.12,1314.37 1731.24,1314.17 1732.36,1313.96 1733.48,1313.75 1734.6,1313.54 1735.72,1313.32 1736.84,1313.11 1737.96,1312.89 1739.08,1312.67 1740.2,1312.44 1741.32,1312.22 1742.44,1311.99 1743.56,1311.76 1744.68,1311.53 1745.81,1311.29 1746.93,1311.05 1748.05,1310.81 1749.17,1310.57 1750.29,1310.32 1751.41,1310.07 1752.53,1309.82 1753.65,1309.57 1754.77,1309.31 1755.89,1309.05 1757.01,1308.79 1758.13,1308.52 1759.25,1308.25 1760.37,1307.98 1761.49,1307.7 1762.61,1307.42 1763.73,1307.14 1764.86,1306.86 1765.98,1306.57 1767.1,1306.28 1768.22,1305.99 1769.34,1305.69 1770.46,1305.39 1771.58,1305.08 1772.7,1304.78 1773.82,1304.47 1774.94,1304.15 1776.06,1303.83 1777.18,1303.51 1778.3,1303.19 1779.42,1302.86 1780.54,1302.53 1781.66,1302.2 1782.79,1301.86 1783.91,1301.51 1785.03,1301.17 1786.15,1300.82 1787.27,1300.47 1788.39,1300.11 1789.51,1299.75 1790.63,1299.39 1791.75,1299.02 1792.87,1298.64 1793.99,1298.27 1795.11,1297.89 1796.23,1297.51 1797.35,1297.12 1798.47,1296.73 1799.59,1296.33 1800.71,1295.93 1801.84,1295.53 1802.96,1295.12 1804.08,1294.71 1805.2,1294.3 1806.32,1293.89 1807.44,1293.47 1808.56,1293.04 1809.68,1292.62 1810.8,1292.18 1811.92,1291.75 1813.04,1291.31 1814.16,1290.86 1815.28,1290.41 1816.4,1289.96 1817.52,1289.5 1818.64,1289.04 1819.77,1288.57 1820.89,1288.1 1822.01,1287.63 1823.13,1287.15 1824.25,1286.66 1825.37,1286.17 1826.49,1285.68 1827.61,1285.18 1828.73,1284.67 1829.85,1284.17 1830.97,1283.66 1832.09,1283.14 1833.21,1282.62 1834.33,1282.1 1835.45,1281.57 1836.57,1281.04 1837.69,1280.5 1838.82,1279.96 1839.94,1279.41 1841.06,1278.86 1842.18,1278.31 1843.3,1277.75 1844.42,1277.18 1845.54,1276.62 1846.66,1276.04 1847.78,1275.46 1848.9,1274.88 1850.02,1274.29 1851.14,1273.7 1852.26,1273.1 1853.38,1272.5 1854.5,1271.9 1855.62,1271.29 1856.75,1270.68 1857.87,1270.06 1858.99,1269.44 1860.11,1268.81 1861.23,1268.18 1862.35,1267.54 1863.47,1266.9 1864.59,1266.26 1865.71,1265.61 1866.83,1264.95 1867.95,1264.3 1869.07,1263.63 1870.19,1262.97 1871.31,1262.29 1872.43,1261.62 1873.55,1260.93 1874.67,1260.25 1875.8,1259.56 1876.92,1258.86 1878.04,1258.16 1879.16,1257.46 1880.28,1256.75 1881.4,1256.04 1882.52,1255.32 1883.64,1254.6 1884.76,1253.87 1885.88,1253.14 1887,1252.41 1888.12,1251.67 1889.24,1250.92 1890.36,1250.17 1891.48,1249.42 1892.6,1248.66 1893.73,1247.9 1894.85,1247.13 1895.97,1246.36 1897.09,1245.58 1898.21,1244.8 1899.33,1244.01 1900.45,1243.22 1901.57,1242.42 1902.69,1241.62 1903.81,1240.82 1904.93,1240.01 1906.05,1239.19 1907.17,1238.37 1908.29,1237.55 1909.41,1236.72 1910.53,1235.88 1911.65,1235.04 1912.78,1234.2 1913.9,1233.35 1915.02,1232.49 1916.14,1231.63 1917.26,1230.76 1918.38,1229.89 1919.5,1229.02 1920.62,1228.13 1921.74,1227.25 1922.86,1226.36 1923.98,1225.46 1925.1,1224.55 1926.22,1223.64 1927.34,1222.73 1928.46,1221.81 1929.58,1220.88 1930.7,1219.94 1931.83,1219 1932.95,1218.05 1934.07,1217.1 1935.19,1216.14 1936.31,1215.17 1937.43,1214.2 1938.55,1213.22 1939.67,1212.23 1940.79,1211.24 1941.91,1210.23 1943.03,1209.22 1944.15,1208.2 1945.27,1207.17 1946.39,1206.13 1947.51,1205.08 1948.63,1204.03 1949.76,1202.97 1950.88,1201.9 1952,1200.82 1953.12,1199.73 1954.24,1198.63 1955.36,1197.52 1956.48,1196.39 1957.6,1195.25 1958.72,1194.1 1959.84,1192.94 1960.96,1191.76 1962.08,1190.58 1963.2,1189.37 1964.32,1188.16 1965.44,1186.94 1966.56,1185.71 1967.68,1184.45 1968.81,1183.18 1969.93,1181.88 1971.05,1180.57 1972.17,1179.23 1973.29,1177.87 1974.41,1176.49 1975.53,1175.09 1976.65,1173.67 1977.77,1172.23 1978.89,1170.77 1980.01,1169.3 1981.13,1167.8 1982.25,1166.26 1983.37,1164.69 1984.49,1163.07 1985.61,1161.41 1986.74,1159.72 1987.86,1157.98 1988.98,1156.2 1990.1,1154.39 1991.22,1152.53 1992.34,1150.64 1993.46,1148.7 1994.58,1146.77 1995.7,1144.77 1996.82,1142.68 1997.94,1140.5 1999.06,1138.22 2000.18,1135.85 2001.3,1133.39 2002.42,1130.83 2003.54,1128.19 2004.66,1125.45 2005.79,1122.61 2006.91,1119.69 2008.03,1116.67 2009.15,1113.82 2010.27,1110.76 2011.39,1107.4 2012.51,1103.74 2013.63,1099.78 2014.75,1095.51 2015.87,1090.95 2016.99,1086.09 2018.11,1080.93 2019.23,1075.46 2020.35,1069.7 2021.47,1063.64 2022.59,1057.27 2023.72,1050.6 2024.84,1043.2 2025.96,1034.87 2027.08,1025.6 2028.2,1015.39 2029.32,1004.25 2030.44,992.186 2031.56,978.958 2032.68,963.696 2033.8,946.402 2034.92,927.076 2036.04,905.614 2037.16,880.691 2038.28,852.031 2039.4,819.593 2040.52,782.009 2041.64,738.771 2042.77,689.47 2043.89,633.378 2045.01,570.839 2046.13,502.612 2047.25,430.833 2048.37,358.707 2049.49,290.326 2050.61,229.891 2051.73,180.434 2052.85,143.148 2053.97,117.361 2055.09,101.247 2056.21,92.5236 2057.33,89.0341 2058.45,89.1015 2059.57,91.7585 2060.7,96.1127 2061.82,101.746 2062.94,108.378 2064.06,115.79 2065.18,123.898 2066.3,132.585 2067.42,141.808 2068.54,151.501 2069.66,161.628 2070.78,172.142 2071.9,183.012 2073.02,194.2 2074.14,205.681 2075.26,217.417 2076.38,229.39 2077.5,241.561 2078.62,253.922 2079.75,266.43 2080.87,279.085 2081.99,291.842 2083.11,304.705 2084.23,317.637 2085.35,330.633 2086.47,343.673 2087.59,356.741 2088.71,369.829 2089.83,382.916 2090.95,396.003 2092.07,409.066 2093.19,422.112 2094.31,435.128 2095.43,448.103 2096.55,461.037 2097.67,473.907 2098.8,486.713 2099.92,499.451 2101.04,512.112 2102.16,524.705 2103.28,537.221 2104.4,549.667 2105.52,562.025 2106.64,574.312 2107.76,586.515 2108.88,598.643 2110,610.686 2111.12,622.649 2112.24,634.538 2113.36,646.341 2114.48,658.074 2115.6,669.726 2116.73,681.304 2117.85,692.816 2118.97,704.25 2120.09,715.622 2121.21,726.936 2122.33,738.18 2123.45,749.375 2124.57,760.523 2125.69,771.616 2126.81,782.676 2127.93,793.709 2129.05,804.705 2130.17,815.69 2131.29,826.674 2132.41,837.654 2133.53,848.642 2134.65,859.671 2135.78,870.742 2136.9,881.847 2138.02,893.038 2139.14,904.333 2140.26,915.731 2141.38,927.23 2142.5,938.91 2143.62,950.783 2144.74,962.849 2145.86,975.105 2146.98,987.646 2148.1,1000.5 2149.22,1013.65 2150.34,1027.12 2151.46,1040.94 2152.58,1055.16 2153.71,1069.79 2154.83,1084.81 2155.95,1100.26 2157.07,1116.04 2158.19,1132.08 2159.31,1148.38 2160.43,1164.94 2161.55,1181.82 2162.67,1198.38 2163.79,1214.53 2164.91,1230.26 2166.03,1245.59 2167.15,1260.21 2168.27,1273.66 2169.39,1285.95 2170.51,1297.06 2171.63,1307.06 2172.76,1315.86 2173.88,1323.46 2175,1329.86 2176.12,1335.31 2177.24,1339.92 2178.36,1343.71 2179.48,1346.76 2180.6,1349.33 2181.72,1351.39 2182.84,1353 2183.96,1354.32 2185.08,1355.37 2186.2,1356.17 2187.32,1356.79 2188.44,1357.28 2189.56,1357.64 2190.69,1357.89 2191.81,1358.08 2192.93,1358.19 2194.05,1358.25 2195.17,1358.27 2196.29,1358.26 2197.41,1358.21 2198.53,1358.14 2199.65,1358.06 2200.77,1357.95 2201.89,1357.83 2203.01,1357.71 2204.13,1357.57 2205.25,1357.43 2206.37,1357.28 2207.49,1357.12 2208.61,1356.96 2209.74,1356.8 2210.86,1356.63 2211.98,1356.47 2213.1,1356.29 2214.22,1356.12 2215.34,1355.94 2216.46,1355.77 2217.58,1355.59 2218.7,1355.41 2219.82,1355.23 2220.94,1355.05 2222.06,1354.87 2223.18,1354.68 2224.3,1354.5 2225.42,1354.31 2226.54,1354.13 2227.66,1353.94 2228.79,1353.76 2229.91,1353.57 2231.03,1353.38 2232.15,1353.2 2233.27,1353.01 2234.39,1352.82 2235.51,1352.63 2236.63,1352.44 2237.75,1352.25 2238.87,1352.07 2239.99,1351.88 2241.11,1351.69 2242.23,1351.5 2243.35,1351.31 2244.47,1351.12 2245.59,1350.93 2246.72,1350.74 2247.84,1350.55 2248.96,1350.36 2250.08,1350.17 2251.2,1349.98 2252.32,1349.79 2253.44,1349.6 2254.56,1349.41 2255.68,1349.22 2256.8,1349.02 2257.92,1348.83 2259.04,1348.64 2260.16,1348.45 2261.28,1348.25 2262.4,1348.06 2263.52,1347.87 2264.64,1347.68 2265.77,1347.49 2266.89,1347.29 2268.01,1347.1 2269.13,1346.91 2270.25,1346.72 2271.37,1346.53 2272.49,1346.34 2273.61,1346.15 2274.73,1345.96 2275.85,1345.77 2276.97,1345.58 2278.09,1345.39 2279.21,1345.2 2280.33,1345.01 2281.45,1344.83 2282.57,1344.64 2283.7,1344.45 2284.82,1344.26 2285.94,1344.08 2287.06,1343.89 2288.18,1343.7 2289.3,1343.52 2290.42,1343.33 2291.54,1343.14 2292.66,1342.96 2293.78,1342.78 2294.9,1342.59 2296.02,1342.41 2297.14,1342.22 2298.26,1342.04 2299.38,1341.86 2300.5,1341.68 2301.62,1341.5 2302.75,1341.32 2303.87,1341.14 2304.99,1340.96 2306.11,1340.78 2307.23,1340.6 2308.35,1340.42 2309.47,1340.24 2310.59,1340.07 2311.71,1339.89 2312.83,1339.71 2313.95,1339.54 2315.07,1339.36 2316.19,1339.19 2317.31,1339.02 2318.43,1338.84 2319.55,1338.67 2320.68,1338.5 2321.8,1338.33 2322.92,1338.16 2324.04,1337.99 2325.16,1337.82 2326.28,1337.65 2327.4,1337.48 2328.52,1337.31 2329.64,1337.15 2330.76,1336.98 2331.88,1336.81 2333,1336.65 2334.12,1336.48 2335.24,1336.32 2336.36,1336.16 2337.48,1336 2338.6,1335.83 2339.73,1335.67 2340.85,1335.51 2341.97,1335.35 2343.09,1335.19 2344.21,1335.03 2345.33,1334.88 2346.45,1334.72 2347.57,1334.56 2348.69,1334.41 2349.81,1334.25 2350.93,1334.1 2352.05,1333.94 2353.17,1333.79 2354.29,1333.63 2355.41,1333.48 2356.53,1333.33 2357.66,1333.18 2358.78,1333.03 2359.9,1332.88 2361.02,1332.73 2362.14,1332.58 2363.26,1332.43 2364.38,1332.28 2365.5,1332.13 2366.62,1331.99 2367.74,1331.84 2368.86,1331.69 2369.98,1331.55 2371.1,1331.4 2372.22,1331.26 2373.34,1331.11 2374.46,1330.97 2375.58,1330.83 2376.71,1330.68 2377.83,1330.54 2378.95,1330.4 2380.07,1330.26 2381.19,1330.11 2382.31,1329.97 2383.43,1329.83 2384.55,1329.69 2385.67,1329.55 2386.79,1329.41 2387.91,1329.27 2389.03,1329.13 2390.15,1328.99 2391.27,1328.85 2392.39,1328.71 2393.51,1328.57 2394.63,1328.44 2395.76,1328.3 2396.88,1328.16 2398,1328.02 2399.12,1327.88 2400.24,1327.74 2401.36,1327.61 2402.48,1327.47 2403.6,1327.33 2404.72,1327.19 2405.84,1327.05 2406.96,1326.92 2408.08,1326.78 2409.2,1326.64 2410.32,1326.5 2411.44,1326.36 2412.56,1326.22 2413.69,1326.08 2414.81,1325.94 2415.93,1325.8 2417.05,1325.66 2418.17,1325.52 2419.29,1325.37 2420.41,1325.23 2421.53,1325.09 2422.65,1324.95 2423.77,1324.81 2424.89,1324.67 2426.01,1324.52 2427.13,1324.38 2428.25,1324.23 2429.37,1324.09 2430.49,1323.94 2431.61,1323.79 2432.74,1323.65 2433.86,1323.5 2434.98,1323.35 2436.1,1323.2 2437.22,1323.05 2438.34,1322.89 2439.46,1322.74 2440.58,1322.59 2441.7,1322.43 2442.82,1322.28 2443.94,1322.12 2445.06,1321.97 2446.18,1321.81 2447.3,1321.65 2448.42,1321.49 2449.54,1321.33 2450.67,1321.17 2451.79,1321.01 2452.91,1320.84 2454.03,1320.67 2455.15,1320.5 2456.27,1320.33 2457.39,1320.16 2458.51,1319.99 2459.63,1319.82 2460.75,1319.64 2461.87,1319.46 2462.99,1319.28 2464.11,1319.1 2465.23,1318.92 2466.35,1318.74 2467.47,1318.55 2468.59,1318.37 2469.72,1318.19 2470.84,1318.01 2471.96,1317.82 2473.08,1317.63 2474.2,1317.44 2475.32,1317.24 2476.44,1317.04 2477.56,1316.85 2478.68,1316.64 2479.8,1316.44 2480.92,1316.23 2482.04,1316.02 2483.16,1315.81 2484.28,1315.6 2485.4,1315.38 2486.52,1315.16 2487.65,1314.94 2488.77,1314.72 2489.89,1314.49 2491.01,1314.26 2492.13,1314.03 2493.25,1313.8 2494.37,1313.57 2495.49,1313.33 2496.61,1313.09 2497.73,1312.84 2498.85,1312.6 2499.97,1312.35 2501.09,1312.1 2502.21,1311.85 2503.33,1311.59 2504.45,1311.33 2505.57,1311.07 2506.7,1310.8 2507.82,1310.53 2508.94,1310.26 2510.06,1309.99 2511.18,1309.71 2512.3,1309.42 2513.42,1309.14 2514.54,1308.85 2515.66,1308.56 2516.78,1308.26 2517.9,1307.96 2519.02,1307.66 2520.14,1307.36 2521.26,1307.05 2522.38,1306.74 2523.5,1306.42 2524.63,1306.1 2525.75,1305.78 2526.87,1305.46 2527.99,1305.13 2529.11,1304.8 2530.23,1304.46 2531.35,1304.12 2532.47,1303.78 2533.59,1303.43 2534.71,1303.08 2535.83,1302.72 2536.95,1302.37 2538.07,1302 2539.19,1301.64 2540.31,1301.27 2541.43,1300.89 2542.55,1300.52 2543.68,1300.13 2544.8,1299.75 2545.92,1299.36 2547.04,1298.97 2548.16,1298.57 2549.28,1298.17 2550.4,1297.76 2551.52,1297.36 2552.64,1296.94 2553.76,1296.53 2554.88,1296.11 2556,1295.69 2557.12,1295.26 2558.24,1294.83 2559.36,1294.39 2560.48,1293.95 2561.6,1293.51 2562.73,1293.06 2563.85,1292.6 2564.97,1292.15 2566.09,1291.69 2567.21,1291.22 2568.33,1290.75 2569.45,1290.28 2570.57,1289.8 2571.69,1289.32 2572.81,1288.83 2573.93,1288.34 2575.05,1287.84 2576.17,1287.34 2577.29,1286.84 2578.41,1286.33 2579.53,1285.82 2580.66,1285.3 2581.78,1284.78 2582.9,1284.26 2584.02,1283.73 2585.14,1283.19 2586.26,1282.65 2587.38,1282.11 2588.5,1281.56 2589.62,1281.01 2590.74,1280.45 2591.86,1279.89 2592.98,1279.33 2594.1,1278.76 2595.22,1278.19 2596.34,1277.61 2597.46,1277.03 2598.58,1276.44 2599.71,1275.85 2600.83,1275.25 2601.95,1274.65 2603.07,1274.05 2604.19,1273.44 2605.31,1272.83 2606.43,1272.21 2607.55,1271.59 2608.67,1270.96 2609.79,1270.33 2610.91,1269.69 2612.03,1269.05 2613.15,1268.41 2614.27,1267.76 2615.39,1267.11 2616.51,1266.45 2617.64,1265.79 2618.76,1265.12 2619.88,1264.45 2621,1263.78 2622.12,1263.1 2623.24,1262.42 2624.36,1261.73 2625.48,1261.03 2626.6,1260.34 2627.72,1259.63 2628.84,1258.93 2629.96,1258.22 2631.08,1257.5 2632.2,1256.78 2633.32,1256.06 2634.44,1255.33 2635.56,1254.6 2636.69,1253.86 2637.81,1253.12 2638.93,1252.37 2640.05,1251.62 2641.17,1250.86 2642.29,1250.1 2643.41,1249.34 2644.53,1248.57 2645.65,1247.79 2646.77,1247.01 2647.89,1246.23 2649.01,1245.44 2650.13,1244.65 2651.25,1243.85 2652.37,1243.05 2653.49,1242.25 2654.62,1241.43 2655.74,1240.62 2656.86,1239.8 2657.98,1238.97 2659.1,1238.14 2660.22,1237.31 2661.34,1236.47 2662.46,1235.62 2663.58,1234.77 2664.7,1233.92 2665.82,1233.06 2666.94,1232.19 2668.06,1231.33 2669.18,1230.45 2670.3,1229.57 2671.42,1228.69 2672.54,1227.8 2673.67,1226.9 2674.79,1226 2675.91,1225.09 2677.03,1224.17 2678.15,1223.25 2679.27,1222.33 2680.39,1221.4 2681.51,1220.46 2682.63,1219.52 2683.75,1218.57 2684.87,1217.62 2685.99,1216.66 2687.11,1215.69 2688.23,1214.72 2689.35,1213.74 2690.47,1212.75 2691.59,1211.75 2692.72,1210.74 2693.84,1209.73 2694.96,1208.71 2696.08,1207.68 2697.2,1206.64 2698.32,1205.6 2699.44,1204.55 2700.56,1203.49 2701.68,1202.42 2702.8,1201.35 2703.92,1200.26 2705.04,1199.17 2706.16,1198.06 2707.28,1196.93 2708.4,1195.8 2709.52,1194.65 2710.65,1193.49 2711.77,1192.32 2712.89,1191.13 2714.01,1189.94 2715.13,1188.73 2716.25,1187.5 2717.37,1186.27 2718.49,1185.02 2719.61,1183.76 2720.73,1182.48 2721.85,1181.18 2722.97,1179.86 2724.09,1178.51 2725.21,1177.14 2726.33,1175.75 2727.45,1174.34 2728.57,1172.9 2729.7,1171.45 2730.82,1169.97 2731.94,1168.46 "/>
<path clip-path="url(#clip660)" d="M2829.22 792.744 L3152.76 792.744 L3152.76 689.064 L2829.22 689.064  Z" fill="#ffffff" fill-rule="evenodd" fill-opacity="1"/>
<polyline clip-path="url(#clip660)" style="stroke:#000000; stroke-linecap:round; stroke-linejoin:round; stroke-width:4; stroke-opacity:1; fill:none" points="2829.22,792.744 3152.76,792.744 3152.76,689.064 2829.22,689.064 2829.22,792.744 "/>
<polyline clip-path="url(#clip660)" style="stroke:#009af9; stroke-linecap:round; stroke-linejoin:round; stroke-width:12; stroke-opacity:1; fill:none" points="2861.65,740.904 3056.23,740.904 "/>
<path clip-path="url(#clip660)" d="M3101.85 758.184 L3088.66 723.624 L3093.54 723.624 L3104.49 752.721 L3115.47 723.624 L3120.33 723.624 L3107.16 758.184 L3101.85 758.184 Z" fill="#000000" fill-rule="nonzero" fill-opacity="1" /></svg>
