<?xml version="1.0" encoding="utf-8"?>
<svg xmlns="http://www.w3.org/2000/svg" xmlns:xlink="http://www.w3.org/1999/xlink" width="800" height="400" viewBox="0 0 3200 1600">
<defs>
  <clipPath id="clip190">
    <rect x="0" y="0" width="3200" height="1600"/>
  </clipPath>
</defs>
<path clip-path="url(#clip190)" d="M0 1600 L3200 1600 L3200 0 L0 0  Z" fill="#ffffff" fill-rule="evenodd" fill-opacity="1"/>
<defs>
  <clipPath id="clip191">
    <rect x="640" y="0" width="2241" height="1600"/>
  </clipPath>
</defs>
<path clip-path="url(#clip190)" d="M211.842 1396.46 L3152.76 1396.46 L3152.76 47.2441 L211.842 47.2441  Z" fill="#ffffff" fill-rule="evenodd" fill-opacity="1"/>
<defs>
  <clipPath id="clip192">
    <rect x="211" y="47" width="2942" height="1350"/>
  </clipPath>
</defs>
<polyline clip-path="url(#clip192)" style="stroke:#000000; stroke-linecap:round; stroke-linejoin:round; stroke-width:2; stroke-opacity:0.1; fill:none" points="211.842,1396.46 211.842,47.2441 "/>
<polyline clip-path="url(#clip192)" style="stroke:#000000; stroke-linecap:round; stroke-linejoin:round; stroke-width:2; stroke-opacity:0.1; fill:none" points="800.025,1396.46 800.025,47.2441 "/>
<polyline clip-path="url(#clip192)" style="stroke:#000000; stroke-linecap:round; stroke-linejoin:round; stroke-width:2; stroke-opacity:0.1; fill:none" points="1388.21,1396.46 1388.21,47.2441 "/>
<polyline clip-path="url(#clip192)" style="stroke:#000000; stroke-linecap:round; stroke-linejoin:round; stroke-width:2; stroke-opacity:0.1; fill:none" points="1976.39,1396.46 1976.39,47.2441 "/>
<polyline clip-path="url(#clip192)" style="stroke:#000000; stroke-linecap:round; stroke-linejoin:round; stroke-width:2; stroke-opacity:0.1; fill:none" points="2564.57,1396.46 2564.57,47.2441 "/>
<polyline clip-path="url(#clip192)" style="stroke:#000000; stroke-linecap:round; stroke-linejoin:round; stroke-width:2; stroke-opacity:0.1; fill:none" points="3152.76,1396.46 3152.76,47.2441 "/>
<polyline clip-path="url(#clip192)" style="stroke:#000000; stroke-linecap:round; stroke-linejoin:round; stroke-width:2; stroke-opacity:0.1; fill:none" points="211.842,1396.46 211.842,47.2441 "/>
<polyline clip-path="url(#clip192)" style="stroke:#000000; stroke-linecap:round; stroke-linejoin:round; stroke-width:2; stroke-opacity:0.1; fill:none" points="800.025,1396.46 800.025,47.2441 "/>
<polyline clip-path="url(#clip192)" style="stroke:#000000; stroke-linecap:round; stroke-linejoin:round; stroke-width:2; stroke-opacity:0.1; fill:none" points="1388.21,1396.46 1388.21,47.2441 "/>
<polyline clip-path="url(#clip192)" style="stroke:#000000; stroke-linecap:round; stroke-linejoin:round; stroke-width:2; stroke-opacity:0.1; fill:none" points="1976.39,1396.46 1976.39,47.2441 "/>
<polyline clip-path="url(#clip192)" style="stroke:#000000; stroke-linecap:round; stroke-linejoin:round; stroke-width:2; stroke-opacity:0.1; fill:none" points="2564.57,1396.46 2564.57,47.2441 "/>
<polyline clip-path="url(#clip192)" style="stroke:#000000; stroke-linecap:round; stroke-linejoin:round; stroke-width:2; stroke-opacity:0.1; fill:none" points="3152.76,1396.46 3152.76,47.2441 "/>
<polyline clip-path="url(#clip192)" style="stroke:#000000; stroke-linecap:round; stroke-linejoin:round; stroke-width:2; stroke-opacity:0.1; fill:none" points="211.842,1358.27 3152.76,1358.27 "/>
<polyline clip-path="url(#clip192)" style="stroke:#000000; stroke-linecap:round; stroke-linejoin:round; stroke-width:2; stroke-opacity:0.1; fill:none" points="211.842,1154.79 3152.76,1154.79 "/>
<polyline clip-path="url(#clip192)" style="stroke:#000000; stroke-linecap:round; stroke-linejoin:round; stroke-width:2; stroke-opacity:0.1; fill:none" points="211.842,951.314 3152.76,951.314 "/>
<polyline clip-path="url(#clip192)" style="stroke:#000000; stroke-linecap:round; stroke-linejoin:round; stroke-width:2; stroke-opacity:0.1; fill:none" points="211.842,747.836 3152.76,747.836 "/>
<polyline clip-path="url(#clip192)" style="stroke:#000000; stroke-linecap:round; stroke-linejoin:round; stroke-width:2; stroke-opacity:0.1; fill:none" points="211.842,544.358 3152.76,544.358 "/>
<polyline clip-path="url(#clip192)" style="stroke:#000000; stroke-linecap:round; stroke-linejoin:round; stroke-width:2; stroke-opacity:0.1; fill:none" points="211.842,340.88 3152.76,340.88 "/>
<polyline clip-path="url(#clip192)" style="stroke:#000000; stroke-linecap:round; stroke-linejoin:round; stroke-width:2; stroke-opacity:0.1; fill:none" points="211.842,137.402 3152.76,137.402 "/>
<polyline clip-path="url(#clip192)" style="stroke:#000000; stroke-linecap:round; stroke-linejoin:round; stroke-width:2; stroke-opacity:0.1; fill:none" points="211.842,1358.27 3152.76,1358.27 "/>
<polyline clip-path="url(#clip192)" style="stroke:#000000; stroke-linecap:round; stroke-linejoin:round; stroke-width:2; stroke-opacity:0.1; fill:none" points="211.842,1154.79 3152.76,1154.79 "/>
<polyline clip-path="url(#clip192)" style="stroke:#000000; stroke-linecap:round; stroke-linejoin:round; stroke-width:2; stroke-opacity:0.1; fill:none" points="211.842,951.314 3152.76,951.314 "/>
<polyline clip-path="url(#clip192)" style="stroke:#000000; stroke-linecap:round; stroke-linejoin:round; stroke-width:2; stroke-opacity:0.1; fill:none" points="211.842,747.836 3152.76,747.836 "/>
<polyline clip-path="url(#clip192)" style="stroke:#000000; stroke-linecap:round; stroke-linejoin:round; stroke-width:2; stroke-opacity:0.1; fill:none" points="211.842,544.358 3152.76,544.358 "/>
<polyline clip-path="url(#clip192)" style="stroke:#000000; stroke-linecap:round; stroke-linejoin:round; stroke-width:2; stroke-opacity:0.1; fill:none" points="211.842,340.88 3152.76,340.88 "/>
<polyline clip-path="url(#clip192)" style="stroke:#000000; stroke-linecap:round; stroke-linejoin:round; stroke-width:2; stroke-opacity:0.1; fill:none" points="211.842,137.402 3152.76,137.402 "/>
<polyline clip-path="url(#clip190)" style="stroke:#000000; stroke-linecap:round; stroke-linejoin:round; stroke-width:4; stroke-opacity:1; fill:none" points="211.842,1396.46 3152.76,1396.46 "/>
<polyline clip-path="url(#clip190)" style="stroke:#000000; stroke-linecap:round; stroke-linejoin:round; stroke-width:4; stroke-opacity:1; fill:none" points="211.842,47.2441 3152.76,47.2441 "/>
<polyline clip-path="url(#clip190)" style="stroke:#000000; stroke-linecap:round; stroke-linejoin:round; stroke-width:4; stroke-opacity:1; fill:none" points="211.842,1396.46 211.842,1377.56 "/>
<polyline clip-path="url(#clip190)" style="stroke:#000000; stroke-linecap:round; stroke-linejoin:round; stroke-width:4; stroke-opacity:1; fill:none" points="800.025,1396.46 800.025,1377.56 "/>
<polyline clip-path="url(#clip190)" style="stroke:#000000; stroke-linecap:round; stroke-linejoin:round; stroke-width:4; stroke-opacity:1; fill:none" points="1388.21,1396.46 1388.21,1377.56 "/>
<polyline clip-path="url(#clip190)" style="stroke:#000000; stroke-linecap:round; stroke-linejoin:round; stroke-width:4; stroke-opacity:1; fill:none" points="1976.39,1396.46 1976.39,1377.56 "/>
<polyline clip-path="url(#clip190)" style="stroke:#000000; stroke-linecap:round; stroke-linejoin:round; stroke-width:4; stroke-opacity:1; fill:none" points="2564.57,1396.46 2564.57,1377.56 "/>
<polyline clip-path="url(#clip190)" style="stroke:#000000; stroke-linecap:round; stroke-linejoin:round; stroke-width:4; stroke-opacity:1; fill:none" points="3152.76,1396.46 3152.76,1377.56 "/>
<polyline clip-path="url(#clip190)" style="stroke:#000000; stroke-linecap:round; stroke-linejoin:round; stroke-width:4; stroke-opacity:1; fill:none" points="211.842,47.2441 211.842,66.1417 "/>
<polyline clip-path="url(#clip190)" style="stroke:#000000; stroke-linecap:round; stroke-linejoin:round; stroke-width:4; stroke-opacity:1; fill:none" points="800.025,47.2441 800.025,66.1417 "/>
<polyline clip-path="url(#clip190)" style="stroke:#000000; stroke-linecap:round; stroke-linejoin:round; stroke-width:4; stroke-opacity:1; fill:none" points="1388.21,47.2441 1388.21,66.1417 "/>
<polyline clip-path="url(#clip190)" style="stroke:#000000; stroke-linecap:round; stroke-linejoin:round; stroke-width:4; stroke-opacity:1; fill:none" points="1976.39,47.2441 1976.39,66.1417 "/>
<polyline clip-path="url(#clip190)" style="stroke:#000000; stroke-linecap:round; stroke-linejoin:round; stroke-width:4; stroke-opacity:1; fill:none" points="2564.57,47.2441 2564.57,66.1417 "/>
<polyline clip-path="url(#clip190)" style="stroke:#000000; stroke-linecap:round; stroke-linejoin:round; stroke-width:4; stroke-opacity:1; fill:none" points="3152.76,47.2441 3152.76,66.1417 "/>
<path clip-path="url(#clip190)" d="M211.842 1433.77 Q208.231 1433.77 206.403 1437.34 Q204.597 1440.88 204.597 1448.01 Q204.597 1455.12 206.403 1458.68 Q208.231 1462.22 211.842 1462.22 Q215.477 1462.22 217.282 1458.68 Q219.111 1455.12 219.111 1448.01 Q219.111 1440.88 217.282 1437.34 Q215.477 1433.77 211.842 1433.77 M211.842 1430.07 Q217.652 1430.07 220.708 1434.68 Q223.787 1439.26 223.787 1448.01 Q223.787 1456.74 220.708 1461.34 Q217.652 1465.93 211.842 1465.93 Q206.032 1465.93 202.953 1461.34 Q199.898 1456.74 199.898 1448.01 Q199.898 1439.26 202.953 1434.68 Q206.032 1430.07 211.842 1430.07 Z" fill="#000000" fill-rule="nonzero" fill-opacity="1" /><path clip-path="url(#clip190)" d="M790.407 1461.32 L798.046 1461.32 L798.046 1434.95 L789.736 1436.62 L789.736 1432.36 L798 1430.7 L802.675 1430.7 L802.675 1461.32 L810.314 1461.32 L810.314 1465.26 L790.407 1465.26 L790.407 1461.32 Z" fill="#000000" fill-rule="nonzero" fill-opacity="1" /><path clip-path="url(#clip190)" d="M1382.86 1461.32 L1399.18 1461.32 L1399.18 1465.26 L1377.24 1465.26 L1377.24 1461.32 Q1379.9 1458.57 1384.48 1453.94 Q1389.09 1449.28 1390.27 1447.94 Q1392.51 1445.42 1393.39 1443.68 Q1394.3 1441.92 1394.3 1440.23 Q1394.3 1437.48 1392.35 1435.74 Q1390.43 1434.01 1387.33 1434.01 Q1385.13 1434.01 1382.68 1434.77 Q1380.24 1435.53 1377.47 1437.08 L1377.47 1432.36 Q1380.29 1431.23 1382.74 1430.65 Q1385.2 1430.07 1387.24 1430.07 Q1392.61 1430.07 1395.8 1432.76 Q1398.99 1435.44 1398.99 1439.93 Q1398.99 1442.06 1398.18 1443.98 Q1397.4 1445.88 1395.29 1448.47 Q1394.71 1449.14 1391.61 1452.36 Q1388.51 1455.56 1382.86 1461.32 Z" fill="#000000" fill-rule="nonzero" fill-opacity="1" /><path clip-path="url(#clip190)" d="M1980.64 1446.62 Q1983.99 1447.34 1985.87 1449.61 Q1987.77 1451.88 1987.77 1455.21 Q1987.77 1460.33 1984.25 1463.13 Q1980.73 1465.93 1974.25 1465.93 Q1972.07 1465.93 1969.76 1465.49 Q1967.47 1465.07 1965.01 1464.21 L1965.01 1459.7 Q1966.96 1460.83 1969.27 1461.41 Q1971.59 1461.99 1974.11 1461.99 Q1978.51 1461.99 1980.8 1460.26 Q1983.11 1458.52 1983.11 1455.21 Q1983.11 1452.15 1980.96 1450.44 Q1978.83 1448.7 1975.01 1448.7 L1970.99 1448.7 L1970.99 1444.86 L1975.2 1444.86 Q1978.65 1444.86 1980.48 1443.5 Q1982.3 1442.11 1982.3 1439.52 Q1982.3 1436.85 1980.41 1435.44 Q1978.53 1434.01 1975.01 1434.01 Q1973.09 1434.01 1970.89 1434.42 Q1968.69 1434.84 1966.05 1435.72 L1966.05 1431.55 Q1968.72 1430.81 1971.03 1430.44 Q1973.37 1430.07 1975.43 1430.07 Q1980.75 1430.07 1983.86 1432.5 Q1986.96 1434.91 1986.96 1439.03 Q1986.96 1441.9 1985.31 1443.89 Q1983.67 1445.86 1980.64 1446.62 Z" fill="#000000" fill-rule="nonzero" fill-opacity="1" /><path clip-path="url(#clip190)" d="M2567.58 1434.77 L2555.78 1453.22 L2567.58 1453.22 L2567.58 1434.77 M2566.36 1430.7 L2572.24 1430.7 L2572.24 1453.22 L2577.17 1453.22 L2577.17 1457.11 L2572.24 1457.11 L2572.24 1465.26 L2567.58 1465.26 L2567.58 1457.11 L2551.98 1457.11 L2551.98 1452.59 L2566.36 1430.7 Z" fill="#000000" fill-rule="nonzero" fill-opacity="1" /><path clip-path="url(#clip190)" d="M3143.03 1430.7 L3161.39 1430.7 L3161.39 1434.63 L3147.32 1434.63 L3147.32 1443.1 Q3148.33 1442.76 3149.35 1442.59 Q3150.37 1442.41 3151.39 1442.41 Q3157.18 1442.41 3160.56 1445.58 Q3163.94 1448.75 3163.94 1454.17 Q3163.94 1459.75 3160.46 1462.85 Q3156.99 1465.93 3150.67 1465.93 Q3148.5 1465.93 3146.23 1465.56 Q3143.98 1465.19 3141.58 1464.45 L3141.58 1459.75 Q3143.66 1460.88 3145.88 1461.44 Q3148.1 1461.99 3150.58 1461.99 Q3154.58 1461.99 3156.92 1459.89 Q3159.26 1457.78 3159.26 1454.17 Q3159.26 1450.56 3156.92 1448.45 Q3154.58 1446.34 3150.58 1446.34 Q3148.71 1446.34 3146.83 1446.76 Q3144.98 1447.18 3143.03 1448.06 L3143.03 1430.7 Z" fill="#000000" fill-rule="nonzero" fill-opacity="1" /><path clip-path="url(#clip190)" d="M1681.36 1507.55 L1681.36 1517.67 L1693.42 1517.67 L1693.42 1522.22 L1681.36 1522.22 L1681.36 1541.58 Q1681.36 1545.94 1682.54 1547.18 Q1683.75 1548.42 1687.41 1548.42 L1693.42 1548.42 L1693.42 1553.32 L1687.41 1553.32 Q1680.63 1553.32 1678.05 1550.81 Q1675.47 1548.26 1675.47 1541.58 L1675.47 1522.22 L1671.18 1522.22 L1671.18 1517.67 L1675.47 1517.67 L1675.47 1507.55 L1681.36 1507.55 Z" fill="#000000" fill-rule="nonzero" fill-opacity="1" /><polyline clip-path="url(#clip190)" style="stroke:#000000; stroke-linecap:round; stroke-linejoin:round; stroke-width:4; stroke-opacity:1; fill:none" points="211.842,1396.46 211.842,47.2441 "/>
<polyline clip-path="url(#clip190)" style="stroke:#000000; stroke-linecap:round; stroke-linejoin:round; stroke-width:4; stroke-opacity:1; fill:none" points="3152.76,1396.46 3152.76,47.2441 "/>
<polyline clip-path="url(#clip190)" style="stroke:#000000; stroke-linecap:round; stroke-linejoin:round; stroke-width:4; stroke-opacity:1; fill:none" points="211.842,1358.27 230.74,1358.27 "/>
<polyline clip-path="url(#clip190)" style="stroke:#000000; stroke-linecap:round; stroke-linejoin:round; stroke-width:4; stroke-opacity:1; fill:none" points="211.842,1154.79 230.74,1154.79 "/>
<polyline clip-path="url(#clip190)" style="stroke:#000000; stroke-linecap:round; stroke-linejoin:round; stroke-width:4; stroke-opacity:1; fill:none" points="211.842,951.314 230.74,951.314 "/>
<polyline clip-path="url(#clip190)" style="stroke:#000000; stroke-linecap:round; stroke-linejoin:round; stroke-width:4; stroke-opacity:1; fill:none" points="211.842,747.836 230.74,747.836 "/>
<polyline clip-path="url(#clip190)" style="stroke:#000000; stroke-linecap:round; stroke-linejoin:round; stroke-width:4; stroke-opacity:1; fill:none" points="211.842,544.358 230.74,544.358 "/>
<polyline clip-path="url(#clip190)" style="stroke:#000000; stroke-linecap:round; stroke-linejoin:round; stroke-width:4; stroke-opacity:1; fill:none" points="211.842,340.88 230.74,340.88 "/>
<polyline clip-path="url(#clip190)" style="stroke:#000000; stroke-linecap:round; stroke-linejoin:round; stroke-width:4; stroke-opacity:1; fill:none" points="211.842,137.402 230.74,137.402 "/>
<polyline clip-path="url(#clip190)" style="stroke:#000000; stroke-linecap:round; stroke-linejoin:round; stroke-width:4; stroke-opacity:1; fill:none" points="3152.76,1358.27 3133.86,1358.27 "/>
<polyline clip-path="url(#clip190)" style="stroke:#000000; stroke-linecap:round; stroke-linejoin:round; stroke-width:4; stroke-opacity:1; fill:none" points="3152.76,1154.79 3133.86,1154.79 "/>
<polyline clip-path="url(#clip190)" style="stroke:#000000; stroke-linecap:round; stroke-linejoin:round; stroke-width:4; stroke-opacity:1; fill:none" points="3152.76,951.314 3133.86,951.314 "/>
<polyline clip-path="url(#clip190)" style="stroke:#000000; stroke-linecap:round; stroke-linejoin:round; stroke-width:4; stroke-opacity:1; fill:none" points="3152.76,747.836 3133.86,747.836 "/>
<polyline clip-path="url(#clip190)" style="stroke:#000000; stroke-linecap:round; stroke-linejoin:round; stroke-width:4; stroke-opacity:1; fill:none" points="3152.76,544.358 3133.86,544.358 "/>
<polyline clip-path="url(#clip190)" style="stroke:#000000; stroke-linecap:round; stroke-linejoin:round; stroke-width:4; stroke-opacity:1; fill:none" points="3152.76,340.88 3133.86,340.88 "/>
<polyline clip-path="url(#clip190)" style="stroke:#000000; stroke-linecap:round; stroke-linejoin:round; stroke-width:4; stroke-opacity:1; fill:none" points="3152.76,137.402 3133.86,137.402 "/>
<path clip-path="url(#clip190)" d="M106.667 1344.07 Q103.056 1344.07 101.227 1347.63 Q99.4214 1351.18 99.4214 1358.31 Q99.4214 1365.41 101.227 1368.98 Q103.056 1372.52 106.667 1372.52 Q110.301 1372.52 112.106 1368.98 Q113.935 1365.41 113.935 1358.31 Q113.935 1351.18 112.106 1347.63 Q110.301 1344.07 106.667 1344.07 M106.667 1340.37 Q112.477 1340.37 115.532 1344.97 Q118.611 1349.56 118.611 1358.31 Q118.611 1367.03 115.532 1371.64 Q112.477 1376.22 106.667 1376.22 Q100.857 1376.22 97.7779 1371.64 Q94.7223 1367.03 94.7223 1358.31 Q94.7223 1349.56 97.7779 1344.97 Q100.857 1340.37 106.667 1340.37 Z" fill="#000000" fill-rule="nonzero" fill-opacity="1" /><path clip-path="url(#clip190)" d="M126.829 1369.67 L131.713 1369.67 L131.713 1375.55 L126.829 1375.55 L126.829 1369.67 Z" fill="#000000" fill-rule="nonzero" fill-opacity="1" /><path clip-path="url(#clip190)" d="M151.898 1344.07 Q148.287 1344.07 146.458 1347.63 Q144.653 1351.18 144.653 1358.31 Q144.653 1365.41 146.458 1368.98 Q148.287 1372.52 151.898 1372.52 Q155.532 1372.52 157.338 1368.98 Q159.166 1365.41 159.166 1358.31 Q159.166 1351.18 157.338 1347.63 Q155.532 1344.07 151.898 1344.07 M151.898 1340.37 Q157.708 1340.37 160.764 1344.97 Q163.842 1349.56 163.842 1358.31 Q163.842 1367.03 160.764 1371.64 Q157.708 1376.22 151.898 1376.22 Q146.088 1376.22 143.009 1371.64 Q139.954 1367.03 139.954 1358.31 Q139.954 1349.56 143.009 1344.97 Q146.088 1340.37 151.898 1340.37 Z" fill="#000000" fill-rule="nonzero" fill-opacity="1" /><path clip-path="url(#clip190)" d="M108.264 1140.59 Q104.653 1140.59 102.824 1144.16 Q101.019 1147.7 101.019 1154.83 Q101.019 1161.93 102.824 1165.5 Q104.653 1169.04 108.264 1169.04 Q111.898 1169.04 113.704 1165.5 Q115.532 1161.93 115.532 1154.83 Q115.532 1147.7 113.704 1144.16 Q111.898 1140.59 108.264 1140.59 M108.264 1136.89 Q114.074 1136.89 117.13 1141.49 Q120.208 1146.08 120.208 1154.83 Q120.208 1163.55 117.13 1168.16 Q114.074 1172.74 108.264 1172.74 Q102.454 1172.74 99.3751 1168.16 Q96.3195 1163.55 96.3195 1154.83 Q96.3195 1146.08 99.3751 1141.49 Q102.454 1136.89 108.264 1136.89 Z" fill="#000000" fill-rule="nonzero" fill-opacity="1" /><path clip-path="url(#clip190)" d="M128.426 1166.19 L133.31 1166.19 L133.31 1172.07 L128.426 1172.07 L128.426 1166.19 Z" fill="#000000" fill-rule="nonzero" fill-opacity="1" /><path clip-path="url(#clip190)" d="M147.523 1168.14 L163.842 1168.14 L163.842 1172.07 L141.898 1172.07 L141.898 1168.14 Q144.56 1165.38 149.143 1160.75 Q153.75 1156.1 154.93 1154.76 Q157.176 1152.23 158.055 1150.5 Q158.958 1148.74 158.958 1147.05 Q158.958 1144.29 157.014 1142.56 Q155.092 1140.82 151.991 1140.82 Q149.791 1140.82 147.338 1141.59 Q144.907 1142.35 142.129 1143.9 L142.129 1139.18 Q144.954 1138.04 147.407 1137.47 Q149.861 1136.89 151.898 1136.89 Q157.268 1136.89 160.463 1139.57 Q163.657 1142.26 163.657 1146.75 Q163.657 1148.88 162.847 1150.8 Q162.06 1152.7 159.953 1155.29 Q159.375 1155.96 156.273 1159.18 Q153.171 1162.37 147.523 1168.14 Z" fill="#000000" fill-rule="nonzero" fill-opacity="1" /><path clip-path="url(#clip190)" d="M106.181 937.113 Q102.57 937.113 100.741 940.678 Q98.9353 944.22 98.9353 951.349 Q98.9353 958.456 100.741 962.02 Q102.57 965.562 106.181 965.562 Q109.815 965.562 111.62 962.02 Q113.449 958.456 113.449 951.349 Q113.449 944.22 111.62 940.678 Q109.815 937.113 106.181 937.113 M106.181 933.409 Q111.991 933.409 115.046 938.016 Q118.125 942.599 118.125 951.349 Q118.125 960.076 115.046 964.682 Q111.991 969.266 106.181 969.266 Q100.37 969.266 97.2918 964.682 Q94.2362 960.076 94.2362 951.349 Q94.2362 942.599 97.2918 938.016 Q100.37 933.409 106.181 933.409 Z" fill="#000000" fill-rule="nonzero" fill-opacity="1" /><path clip-path="url(#clip190)" d="M126.343 962.715 L131.227 962.715 L131.227 968.594 L126.343 968.594 L126.343 962.715 Z" fill="#000000" fill-rule="nonzero" fill-opacity="1" /><path clip-path="url(#clip190)" d="M154.259 938.109 L142.454 956.557 L154.259 956.557 L154.259 938.109 M153.032 934.034 L158.912 934.034 L158.912 956.557 L163.842 956.557 L163.842 960.446 L158.912 960.446 L158.912 968.594 L154.259 968.594 L154.259 960.446 L138.657 960.446 L138.657 955.932 L153.032 934.034 Z" fill="#000000" fill-rule="nonzero" fill-opacity="1" /><path clip-path="url(#clip190)" d="M106.505 733.635 Q102.894 733.635 101.065 737.2 Q99.2593 740.742 99.2593 747.871 Q99.2593 754.978 101.065 758.542 Q102.894 762.084 106.505 762.084 Q110.139 762.084 111.944 758.542 Q113.773 754.978 113.773 747.871 Q113.773 740.742 111.944 737.2 Q110.139 733.635 106.505 733.635 M106.505 729.931 Q112.315 729.931 115.37 734.538 Q118.449 739.121 118.449 747.871 Q118.449 756.598 115.37 761.204 Q112.315 765.788 106.505 765.788 Q100.695 765.788 97.6158 761.204 Q94.5603 756.598 94.5603 747.871 Q94.5603 739.121 97.6158 734.538 Q100.695 729.931 106.505 729.931 Z" fill="#000000" fill-rule="nonzero" fill-opacity="1" /><path clip-path="url(#clip190)" d="M126.667 759.237 L131.551 759.237 L131.551 765.116 L126.667 765.116 L126.667 759.237 Z" fill="#000000" fill-rule="nonzero" fill-opacity="1" /><path clip-path="url(#clip190)" d="M152.315 745.973 Q149.166 745.973 147.315 748.126 Q145.486 750.279 145.486 754.029 Q145.486 757.755 147.315 759.931 Q149.166 762.084 152.315 762.084 Q155.463 762.084 157.291 759.931 Q159.143 757.755 159.143 754.029 Q159.143 750.279 157.291 748.126 Q155.463 745.973 152.315 745.973 M161.597 731.32 L161.597 735.58 Q159.838 734.746 158.032 734.306 Q156.25 733.867 154.491 733.867 Q149.861 733.867 147.407 736.992 Q144.977 740.117 144.629 746.436 Q145.995 744.422 148.055 743.357 Q150.116 742.269 152.592 742.269 Q157.801 742.269 160.81 745.441 Q163.842 748.589 163.842 754.029 Q163.842 759.353 160.694 762.57 Q157.546 765.788 152.315 765.788 Q146.319 765.788 143.148 761.204 Q139.977 756.598 139.977 747.871 Q139.977 739.677 143.866 734.816 Q147.754 729.931 154.305 729.931 Q156.065 729.931 157.847 730.279 Q159.653 730.626 161.597 731.32 Z" fill="#000000" fill-rule="nonzero" fill-opacity="1" /><path clip-path="url(#clip190)" d="M106.759 530.157 Q103.148 530.157 101.32 533.722 Q99.514 537.264 99.514 544.393 Q99.514 551.5 101.32 555.064 Q103.148 558.606 106.759 558.606 Q110.394 558.606 112.199 555.064 Q114.028 551.5 114.028 544.393 Q114.028 537.264 112.199 533.722 Q110.394 530.157 106.759 530.157 M106.759 526.453 Q112.569 526.453 115.625 531.06 Q118.704 535.643 118.704 544.393 Q118.704 553.12 115.625 557.726 Q112.569 562.31 106.759 562.31 Q100.949 562.31 97.8705 557.726 Q94.8149 553.12 94.8149 544.393 Q94.8149 535.643 97.8705 531.06 Q100.949 526.453 106.759 526.453 Z" fill="#000000" fill-rule="nonzero" fill-opacity="1" /><path clip-path="url(#clip190)" d="M126.921 555.759 L131.805 555.759 L131.805 561.638 L126.921 561.638 L126.921 555.759 Z" fill="#000000" fill-rule="nonzero" fill-opacity="1" /><path clip-path="url(#clip190)" d="M151.991 545.226 Q148.657 545.226 146.736 547.009 Q144.838 548.791 144.838 551.916 Q144.838 555.041 146.736 556.824 Q148.657 558.606 151.991 558.606 Q155.324 558.606 157.245 556.824 Q159.166 555.018 159.166 551.916 Q159.166 548.791 157.245 547.009 Q155.347 545.226 151.991 545.226 M147.315 543.236 Q144.305 542.495 142.616 540.435 Q140.949 538.375 140.949 535.412 Q140.949 531.268 143.889 528.861 Q146.852 526.453 151.991 526.453 Q157.153 526.453 160.092 528.861 Q163.032 531.268 163.032 535.412 Q163.032 538.375 161.342 540.435 Q159.676 542.495 156.69 543.236 Q160.069 544.023 161.944 546.314 Q163.842 548.606 163.842 551.916 Q163.842 556.939 160.764 559.625 Q157.708 562.31 151.991 562.31 Q146.273 562.31 143.194 559.625 Q140.139 556.939 140.139 551.916 Q140.139 548.606 142.037 546.314 Q143.935 544.023 147.315 543.236 M145.602 535.851 Q145.602 538.537 147.268 540.041 Q148.958 541.546 151.991 541.546 Q155 541.546 156.69 540.041 Q158.403 538.537 158.403 535.851 Q158.403 533.166 156.69 531.662 Q155 530.157 151.991 530.157 Q148.958 530.157 147.268 531.662 Q145.602 533.166 145.602 535.851 Z" fill="#000000" fill-rule="nonzero" fill-opacity="1" /><path clip-path="url(#clip190)" d="M97.4769 354.225 L105.116 354.225 L105.116 327.86 L96.8057 329.526 L96.8057 325.267 L105.069 323.6 L109.745 323.6 L109.745 354.225 L117.384 354.225 L117.384 358.16 L97.4769 358.16 L97.4769 354.225 Z" fill="#000000" fill-rule="nonzero" fill-opacity="1" /><path clip-path="url(#clip190)" d="M126.829 352.281 L131.713 352.281 L131.713 358.16 L126.829 358.16 L126.829 352.281 Z" fill="#000000" fill-rule="nonzero" fill-opacity="1" /><path clip-path="url(#clip190)" d="M151.898 326.679 Q148.287 326.679 146.458 330.244 Q144.653 333.785 144.653 340.915 Q144.653 348.022 146.458 351.586 Q148.287 355.128 151.898 355.128 Q155.532 355.128 157.338 351.586 Q159.166 348.022 159.166 340.915 Q159.166 333.785 157.338 330.244 Q155.532 326.679 151.898 326.679 M151.898 322.975 Q157.708 322.975 160.764 327.582 Q163.842 332.165 163.842 340.915 Q163.842 349.642 160.764 354.248 Q157.708 358.832 151.898 358.832 Q146.088 358.832 143.009 354.248 Q139.954 349.642 139.954 340.915 Q139.954 332.165 143.009 327.582 Q146.088 322.975 151.898 322.975 Z" fill="#000000" fill-rule="nonzero" fill-opacity="1" /><path clip-path="url(#clip190)" d="M99.0742 150.747 L106.713 150.747 L106.713 124.382 L98.4029 126.048 L98.4029 121.789 L106.667 120.122 L111.343 120.122 L111.343 150.747 L118.981 150.747 L118.981 154.682 L99.0742 154.682 L99.0742 150.747 Z" fill="#000000" fill-rule="nonzero" fill-opacity="1" /><path clip-path="url(#clip190)" d="M128.426 148.803 L133.31 148.803 L133.31 154.682 L128.426 154.682 L128.426 148.803 Z" fill="#000000" fill-rule="nonzero" fill-opacity="1" /><path clip-path="url(#clip190)" d="M147.523 150.747 L163.842 150.747 L163.842 154.682 L141.898 154.682 L141.898 150.747 Q144.56 147.993 149.143 143.363 Q153.75 138.71 154.93 137.368 Q157.176 134.844 158.055 133.108 Q158.958 131.349 158.958 129.659 Q158.958 126.905 157.014 125.169 Q155.092 123.433 151.991 123.433 Q149.791 123.433 147.338 124.196 Q144.907 124.96 142.129 126.511 L142.129 121.789 Q144.954 120.655 147.407 120.076 Q149.861 119.497 151.898 119.497 Q157.268 119.497 160.463 122.183 Q163.657 124.868 163.657 129.358 Q163.657 131.488 162.847 133.409 Q162.06 135.307 159.953 137.9 Q159.375 138.571 156.273 141.789 Q153.171 144.983 147.523 150.747 Z" fill="#000000" fill-rule="nonzero" fill-opacity="1" /><polyline clip-path="url(#clip192)" style="stroke:#009af9; stroke-linecap:round; stroke-linejoin:round; stroke-width:12; stroke-opacity:1; fill:none" points="211.842,1358.27 214.786,1358.27 217.73,1358.26 220.674,1358.23 223.618,1358.17 226.562,1358.07 229.505,1357.93 232.449,1357.74 235.393,1357.49 238.337,1357.17 241.281,1356.79 244.225,1356.33 247.169,1355.79 250.112,1355.16 253.056,1354.44 256,1353.63 258.944,1352.72 261.888,1351.72 264.832,1350.61 267.776,1349.39 270.719,1348.07 273.663,1346.64 276.607,1345.09 279.551,1343.44 282.495,1341.67 285.439,1339.78 288.383,1337.79 291.326,1335.67 294.27,1333.44 297.214,1331.1 300.158,1328.64 303.102,1326.06 306.046,1323.37 308.99,1320.57 311.933,1317.65 314.877,1314.62 317.821,1311.48 320.765,1308.22 323.709,1304.86 326.653,1301.4 329.597,1297.82 332.54,1294.15 335.484,1290.37 338.428,1286.48 341.372,1282.51 344.316,1278.43 347.26,1274.26 350.204,1269.99 353.147,1265.64 356.091,1261.2 359.035,1256.67 361.979,1252.06 364.923,1247.36 367.867,1242.59 370.811,1237.74 373.754,1232.82 376.698,1227.83 379.642,1222.76 382.586,1217.63 385.53,1212.44 388.474,1207.18 391.418,1201.87 394.361,1196.49 397.305,1191.07 400.249,1185.59 403.193,1180.07 406.137,1174.5 409.081,1168.88 412.025,1163.22 414.968,1157.53 417.912,1151.8 420.856,1146.03 423.8,1140.24 426.744,1134.41 429.688,1128.56 432.632,1122.69 435.575,1116.79 438.519,1110.87 441.463,1104.94 444.407,1098.99 447.351,1093.03 450.295,1087.07 453.239,1081.09 456.182,1075.11 459.126,1069.12 462.07,1063.14 465.014,1057.16 467.958,1051.18 470.902,1045.2 473.846,1039.23 476.789,1033.28 479.733,1027.33 482.677,1021.39 485.621,1015.48 488.565,1009.57 491.509,1003.69 494.453,997.826 497.397,991.985 500.34,986.168 503.284,980.377 506.228,974.614 509.172,968.879 512.116,963.175 515.06,957.503 518.004,951.865 520.947,946.261 523.891,940.695 526.835,935.166 529.779,929.676 532.723,924.227 535.667,918.82 538.611,913.455 541.554,908.135 544.498,902.86 547.442,897.631 550.386,892.45 553.33,887.317 556.274,882.233 559.218,877.2 562.161,872.219 565.105,867.29 568.049,862.414 570.993,857.592 573.937,852.825 576.881,848.114 579.825,843.46 582.768,838.863 585.712,834.324 588.656,829.843 591.6,825.422 594.544,821.061 597.488,816.76 600.432,812.52 603.375,808.342 606.319,804.227 609.263,800.173 612.207,796.183 615.151,792.255 618.095,788.392 621.039,784.593 623.982,780.858 626.926,777.187 629.87,773.582 632.814,770.041 635.758,766.566 638.702,763.156 641.646,759.812 644.589,756.533 647.533,753.321 650.477,750.175 653.421,747.096 656.365,744.082 659.309,741.135 662.253,738.254 665.196,735.44 668.14,732.692 671.084,730.01 674.028,727.394 676.972,724.845 679.916,722.362 682.86,719.944 685.803,717.593 688.747,715.307 691.691,713.087 694.635,710.932 697.579,708.843 700.523,706.819 703.467,704.86 706.41,702.965 709.354,701.134 712.298,699.368 715.242,697.666 718.186,696.027 721.13,694.452 724.074,692.939 727.017,691.489 729.961,690.102 732.905,688.776 735.849,687.512 738.793,686.309 741.737,685.167 744.681,684.086 747.624,683.065 750.568,682.104 753.512,681.202 756.456,680.359 759.4,679.574 762.344,678.847 765.288,678.178 768.231,677.566 771.175,677.01 774.119,676.511 777.063,676.067 780.007,675.679 782.951,675.345 785.895,675.065 788.838,674.839 791.782,674.666 794.726,674.546 797.67,674.479 800.614,674.463 803.558,674.498 806.502,674.584 809.445,674.72 812.389,674.906 815.333,675.142 818.277,675.426 821.221,675.758 824.165,676.137 827.109,676.564 830.052,677.038 832.996,677.557 835.94,678.122 838.884,678.732 841.828,679.386 844.772,680.084 847.716,680.826 850.659,681.61 853.603,682.437 856.547,683.306 859.491,684.215 862.435,685.165 865.379,686.155 868.323,687.185 871.266,688.253 874.21,689.36 877.154,690.504 880.098,691.686 883.042,692.904 885.986,694.158 888.93,695.447 891.873,696.771 894.817,698.13 897.761,699.523 900.705,700.949 903.649,702.407 906.593,703.898 909.537,705.421 912.48,706.974 915.424,708.559 918.368,710.173 921.312,711.817 924.256,713.49 927.2,715.192 930.144,716.922 933.087,718.679 936.031,720.463 938.975,722.274 941.919,724.112 944.863,725.974 947.807,727.862 950.751,729.774 953.694,731.711 956.638,733.671 959.582,735.654 962.526,737.66 965.47,739.688 968.414,741.738 971.358,743.809 974.301,745.901 977.245,748.013 980.189,750.145 983.133,752.296 986.077,754.466 989.021,756.654 991.965,758.861 994.908,761.084 997.852,763.325 1000.8,765.582 1003.74,767.855 1006.68,770.144 1009.63,772.448 1012.57,774.766 1015.52,777.099 1018.46,779.446 1021.4,781.807 1024.35,784.18 1027.29,786.566 1030.23,788.965 1033.18,791.375 1036.12,793.797 1039.07,796.229 1042.01,798.673 1044.95,801.127 1047.9,803.591 1050.84,806.064 1053.79,808.547 1056.73,811.038 1059.67,813.538 1062.62,816.047 1065.56,818.563 1068.5,821.086 1071.45,823.617 1074.39,826.155 1077.34,828.699 1080.28,831.249 1083.22,833.805 1086.17,836.367 1089.11,838.933 1092.06,841.505 1095,844.082 1097.94,846.663 1100.89,849.247 1103.83,851.836 1106.77,854.427 1109.72,857.022 1112.66,859.62 1115.61,862.22 1118.55,864.822 1121.49,867.426 1124.44,870.031 1127.38,872.638 1130.33,875.246 1133.27,877.855 1136.21,880.464 1139.16,883.074 1142.1,885.684 1145.05,888.293 1147.99,890.902 1150.93,893.51 1153.88,896.118 1156.82,898.724 1159.76,901.328 1162.71,903.931 1165.65,906.532 1168.6,909.131 1171.54,911.728 1174.48,914.322 1177.43,916.914 1180.37,919.502 1183.32,922.088 1186.26,924.67 1189.2,927.248 1192.15,929.823 1195.09,932.394 1198.03,934.961 1200.98,937.524 1203.92,940.082 1206.87,942.636 1209.81,945.185 1212.75,947.729 1215.7,950.268 1218.64,952.802 1221.59,955.33 1224.53,957.853 1227.47,960.37 1230.42,962.882 1233.36,965.387 1236.3,967.886 1239.25,970.38 1242.19,972.866 1245.14,975.346 1248.08,977.82 1251.02,980.286 1253.97,982.746 1256.91,985.199 1259.86,987.644 1262.8,990.082 1265.74,992.513 1268.69,994.936 1271.63,997.351 1274.57,999.759 1277.52,1002.16 1280.46,1004.55 1283.41,1006.93 1286.35,1009.31 1289.29,1011.68 1292.24,1014.04 1295.18,1016.39 1298.13,1018.73 1301.07,1021.06 1304.01,1023.39 1306.96,1025.7 1309.9,1028.01 1312.85,1030.31 1315.79,1032.6 1318.73,1034.88 1321.68,1037.15 1324.62,1039.41 1327.56,1041.66 1330.51,1043.91 1333.45,1046.14 1336.4,1048.36 1339.34,1050.58 1342.28,1052.78 1345.23,1054.98 1348.17,1057.17 1351.12,1059.34 1354.06,1061.51 1357,1063.66 1359.95,1065.81 1362.89,1067.95 1365.83,1070.07 1368.78,1072.19 1371.72,1074.3 1374.67,1076.39 1377.61,1078.48 1380.55,1080.56 1383.5,1082.62 1386.44,1084.68 1389.39,1086.72 1392.33,1088.76 1395.27,1090.78 1398.22,1092.8 1401.16,1094.8 1404.1,1096.8 1407.05,1098.78 1409.99,1100.76 1412.94,1102.72 1415.88,1104.67 1418.82,1106.61 1421.77,1108.55 1424.71,1110.47 1427.66,1112.38 1430.6,1114.28 1433.54,1116.17 1436.49,1118.05 1439.43,1119.92 1442.37,1121.78 1445.32,1123.63 1448.26,1125.46 1451.21,1127.29 1454.15,1129.11 1457.09,1130.92 1460.04,1132.71 1462.98,1134.5 1465.93,1136.27 1468.87,1138.04 1471.81,1139.79 1474.76,1141.54 1477.7,1143.27 1480.64,1144.99 1483.59,1146.71 1486.53,1148.41 1489.48,1150.1 1492.42,1151.78 1495.36,1153.45 1498.31,1155.11 1501.25,1156.76 1504.2,1158.4 1507.14,1160.04 1510.08,1161.65 1513.03,1163.26 1515.97,1164.86 1518.92,1166.45 1521.86,1168.03 1524.8,1169.6 1527.75,1171.16 1530.69,1172.71 1533.63,1174.25 1536.58,1175.78 1539.52,1177.29 1542.47,1178.8 1545.41,1180.3 1548.35,1181.79 1551.3,1183.27 1554.24,1184.74 1557.19,1186.2 1560.13,1187.65 1563.07,1189.08 1566.02,1190.51 1568.96,1191.93 1571.9,1193.34 1574.85,1194.74 1577.79,1196.14 1580.74,1197.52 1583.68,1198.89 1586.62,1200.25 1589.57,1201.6 1592.51,1202.95 1595.46,1204.28 1598.4,1205.61 1601.34,1206.92 1604.29,1208.23 1607.23,1209.52 1610.17,1210.81 1613.12,1212.09 1616.06,1213.36 1619.01,1214.62 1621.95,1215.87 1624.89,1217.11 1627.84,1218.34 1630.78,1219.57 1633.73,1220.78 1636.67,1221.99 1639.61,1223.19 1642.56,1224.37 1645.5,1225.55 1648.44,1226.72 1651.39,1227.89 1654.33,1229.04 1657.28,1230.19 1660.22,1231.32 1663.16,1232.45 1666.11,1233.57 1669.05,1234.68 1672,1235.78 1674.94,1236.88 1677.88,1237.96 1680.83,1239.04 1683.77,1240.11 1686.71,1241.17 1689.66,1242.22 1692.6,1243.27 1695.55,1244.31 1698.49,1245.34 1701.43,1246.36 1704.38,1247.37 1707.32,1248.37 1710.27,1249.37 1713.21,1250.36 1716.15,1251.34 1719.1,1252.32 1722.04,1253.28 1724.99,1254.24 1727.93,1255.19 1730.87,1256.13 1733.82,1257.07 1736.76,1258 1739.7,1258.92 1742.65,1259.83 1745.59,1260.74 1748.54,1261.64 1751.48,1262.53 1754.42,1263.42 1757.37,1264.29 1760.31,1265.16 1763.26,1266.03 1766.2,1266.88 1769.14,1267.73 1772.09,1268.58 1775.03,1269.41 1777.97,1270.24 1780.92,1271.06 1783.86,1271.88 1786.81,1272.69 1789.75,1273.49 1792.69,1274.28 1795.64,1275.07 1798.58,1275.85 1801.53,1276.63 1804.47,1277.4 1807.41,1278.16 1810.36,1278.92 1813.3,1279.67 1816.24,1280.41 1819.19,1281.15 1822.13,1281.88 1825.08,1282.61 1828.02,1283.32 1830.96,1284.04 1833.91,1284.74 1836.85,1285.44 1839.8,1286.14 1842.74,1286.83 1845.68,1287.51 1848.63,1288.19 1851.57,1288.86 1854.51,1289.53 1857.46,1290.19 1860.4,1290.84 1863.35,1291.49 1866.29,1292.13 1869.23,1292.77 1872.18,1293.4 1875.12,1294.03 1878.07,1294.65 1881.01,1295.26 1883.95,1295.87 1886.9,1296.48 1889.84,1297.08 1892.78,1297.67 1895.73,1298.26 1898.67,1298.84 1901.62,1299.42 1904.56,1299.99 1907.5,1300.56 1910.45,1301.13 1913.39,1301.68 1916.34,1302.24 1919.28,1302.79 1922.22,1303.33 1925.17,1303.87 1928.11,1304.4 1931.06,1304.93 1934,1305.46 1936.94,1305.98 1939.89,1306.49 1942.83,1307 1945.77,1307.51 1948.72,1308.01 1951.66,1308.51 1954.61,1309 1957.55,1309.49 1960.49,1309.97 1963.44,1310.45 1966.38,1310.92 1969.33,1311.39 1972.27,1311.86 1975.21,1312.32 1978.16,1312.78 1981.1,1313.23 1984.04,1313.68 1986.99,1314.13 1989.93,1314.57 1992.88,1315.01 1995.82,1315.44 1998.76,1315.87 2001.71,1316.29 2004.65,1316.72 2007.6,1317.13 2010.54,1317.55 2013.48,1317.96 2016.43,1318.36 2019.37,1318.76 2022.31,1319.16 2025.26,1319.56 2028.2,1319.95 2031.15,1320.34 2034.09,1320.72 2037.03,1321.1 2039.98,1321.48 2042.92,1321.85 2045.87,1322.22 2048.81,1322.58 2051.75,1322.95 2054.7,1323.31 2057.64,1323.66 2060.58,1324.01 2063.53,1324.36 2066.47,1324.71 2069.42,1325.05 2072.36,1325.39 2075.3,1325.73 2078.25,1326.06 2081.19,1326.39 2084.14,1326.71 2087.08,1327.04 2090.02,1327.36 2092.97,1327.68 2095.91,1327.99 2098.85,1328.3 2101.8,1328.61 2104.74,1328.91 2107.69,1329.22 2110.63,1329.52 2113.57,1329.81 2116.52,1330.11 2119.46,1330.4 2122.41,1330.69 2125.35,1330.97 2128.29,1331.25 2131.24,1331.53 2134.18,1331.81 2137.13,1332.08 2140.07,1332.36 2143.01,1332.63 2145.96,1332.89 2148.9,1333.16 2151.84,1333.42 2154.79,1333.68 2157.73,1333.93 2160.68,1334.19 2163.62,1334.44 2166.56,1334.69 2169.51,1334.93 2172.45,1335.18 2175.4,1335.42 2178.34,1335.66 2181.28,1335.89 2184.23,1336.13 2187.17,1336.36 2190.11,1336.59 2193.06,1336.82 2196,1337.04 2198.95,1337.27 2201.89,1337.49 2204.83,1337.71 2207.78,1337.92 2210.72,1338.14 2213.67,1338.35 2216.61,1338.56 2219.55,1338.77 2222.5,1338.97 2225.44,1339.18 2228.38,1339.38 2231.33,1339.58 2234.27,1339.78 2237.22,1339.97 2240.16,1340.17 2243.1,1340.36 2246.05,1340.55 2248.99,1340.74 2251.94,1340.92 2254.88,1341.11 2257.82,1341.29 2260.77,1341.47 2263.71,1341.65 2266.65,1341.83 2269.6,1342 2272.54,1342.18 2275.49,1342.35 2278.43,1342.52 2281.37,1342.69 2284.32,1342.85 2287.26,1343.02 2290.21,1343.18 2293.15,1343.34 2296.09,1343.5 2299.04,1343.66 2301.98,1343.82 2304.92,1343.97 2307.87,1344.13 2310.81,1344.28 2313.76,1344.43 2316.7,1344.58 2319.64,1344.73 2322.59,1344.87 2325.53,1345.02 2328.48,1345.16 2331.42,1345.3 2334.36,1345.44 2337.31,1345.58 2340.25,1345.72 2343.2,1345.85 2346.14,1345.99 2349.08,1346.12 2352.03,1346.25 2354.97,1346.38 2357.91,1346.51 2360.86,1346.64 2363.8,1346.76 2366.75,1346.89 2369.69,1347.01 2372.63,1347.13 2375.58,1347.26 2378.52,1347.38 2381.47,1347.49 2384.41,1347.61 2387.35,1347.73 2390.3,1347.84 2393.24,1347.96 2396.18,1348.07 2399.13,1348.18 2402.07,1348.29 2405.02,1348.4 2407.96,1348.51 2410.9,1348.61 2413.85,1348.72 2416.79,1348.82 2419.74,1348.93 2422.68,1349.03 2425.62,1349.13 2428.57,1349.23 2431.51,1349.33 2434.45,1349.43 2437.4,1349.53 2440.34,1349.62 2443.29,1349.72 2446.23,1349.81 2449.17,1349.9 2452.12,1350 2455.06,1350.09 2458.01,1350.18 2460.95,1350.27 2463.89,1350.36 2466.84,1350.44 2469.78,1350.53 2472.72,1350.61 2475.67,1350.7 2478.61,1350.78 2481.56,1350.87 2484.5,1350.95 2487.44,1351.03 2490.39,1351.11 2493.33,1351.19 2496.28,1351.27 2499.22,1351.34 2502.16,1351.42 2505.11,1351.5 2508.05,1351.57 2510.99,1351.65 2513.94,1351.72 2516.88,1351.79 2519.83,1351.87 2522.77,1351.94 2525.71,1352.01 2528.66,1352.08 2531.6,1352.15 2534.55,1352.21 2537.49,1352.28 2540.43,1352.35 2543.38,1352.41 2546.32,1352.48 2549.27,1352.54 2552.21,1352.61 2555.15,1352.67 2558.1,1352.73 2561.04,1352.8 2563.98,1352.86 2566.93,1352.92 2569.87,1352.98 2572.82,1353.04 2575.76,1353.1 2578.7,1353.15 2581.65,1353.21 2584.59,1353.27 2587.54,1353.32 2590.48,1353.38 2593.42,1353.44 2596.37,1353.49 2599.31,1353.54 2602.25,1353.6 2605.2,1353.65 2608.14,1353.7 2611.09,1353.75 2614.03,1353.8 2616.97,1353.85 2619.92,1353.9 2622.86,1353.95 2625.81,1354 2628.75,1354.05 2631.69,1354.1 2634.64,1354.14 2637.58,1354.19 2640.52,1354.24 2643.47,1354.28 2646.41,1354.33 2649.36,1354.37 2652.3,1354.42 2655.24,1354.46 2658.19,1354.5 2661.13,1354.55 2664.08,1354.59 2667.02,1354.63 2669.96,1354.67 2672.91,1354.71 2675.85,1354.75 2678.79,1354.79 2681.74,1354.83 2684.68,1354.87 2687.63,1354.91 2690.57,1354.95 2693.51,1354.99 2696.46,1355.02 2699.4,1355.06 2702.35,1355.1 2705.29,1355.13 2708.23,1355.17 2711.18,1355.21 2714.12,1355.24 2717.07,1355.27 2720.01,1355.31 2722.95,1355.34 2725.9,1355.38 2728.84,1355.41 2731.78,1355.44 2734.73,1355.47 2737.67,1355.51 2740.62,1355.54 2743.56,1355.57 2746.5,1355.6 2749.45,1355.63 2752.39,1355.66 2755.34,1355.69 2758.28,1355.72 2761.22,1355.75 2764.17,1355.78 2767.11,1355.81 2770.05,1355.84 2773,1355.86 2775.94,1355.89 2778.89,1355.92 2781.83,1355.95 2784.77,1355.97 2787.72,1356 2790.66,1356.03 2793.61,1356.05 2796.55,1356.08 2799.49,1356.1 2802.44,1356.13 2805.38,1356.15 2808.32,1356.18 2811.27,1356.2 2814.21,1356.22 2817.16,1356.25 2820.1,1356.27 2823.04,1356.29 2825.99,1356.32 2828.93,1356.34 2831.88,1356.36 2834.82,1356.38 2837.76,1356.41 2840.71,1356.43 2843.65,1356.45 2846.59,1356.47 2849.54,1356.49 2852.48,1356.51 2855.43,1356.53 2858.37,1356.55 2861.31,1356.57 2864.26,1356.59 2867.2,1356.61 2870.15,1356.63 2873.09,1356.65 2876.03,1356.67 2878.98,1356.69 2881.92,1356.71 2884.86,1356.72 2887.81,1356.74 2890.75,1356.76 2893.7,1356.78 2896.64,1356.8 2899.58,1356.81 2902.53,1356.83 2905.47,1356.85 2908.42,1356.86 2911.36,1356.88 2914.3,1356.9 2917.25,1356.91 2920.19,1356.93 2923.14,1356.94 2926.08,1356.96 2929.02,1356.97 2931.97,1356.99 2934.91,1357 2937.85,1357.02 2940.8,1357.03 2943.74,1357.05 2946.69,1357.06 2949.63,1357.08 2952.57,1357.09 2955.52,1357.1 2958.46,1357.12 2961.41,1357.13 2964.35,1357.14 2967.29,1357.16 2970.24,1357.17 2973.18,1357.18 2976.12,1357.2 2979.07,1357.21 2982.01,1357.22 2984.96,1357.23 2987.9,1357.25 2990.84,1357.26 2993.79,1357.27 2996.73,1357.28 2999.68,1357.29 3002.62,1357.31 3005.56,1357.32 3008.51,1357.33 3011.45,1357.34 3014.39,1357.35 3017.34,1357.36 3020.28,1357.37 3023.23,1357.38 3026.17,1357.39 3029.11,1357.4 3032.06,1357.41 3035,1357.42 3037.95,1357.43 3040.89,1357.44 3043.83,1357.45 3046.78,1357.46 3049.72,1357.47 3052.66,1357.48 3055.61,1357.49 3058.55,1357.5 3061.5,1357.51 3064.44,1357.52 3067.38,1357.53 3070.33,1357.54 3073.27,1357.54 3076.22,1357.55 3079.16,1357.56 3082.1,1357.57 3085.05,1357.58 3087.99,1357.59 3090.93,1357.59 3093.88,1357.6 3096.82,1357.61 3099.77,1357.62 3102.71,1357.63 3105.65,1357.63 3108.6,1357.64 3111.54,1357.65 3114.49,1357.66 3117.43,1357.66 3120.37,1357.67 3123.32,1357.68 3126.26,1357.69 3129.21,1357.69 3132.15,1357.7 3135.09,1357.71 3138.04,1357.71 3140.98,1357.72 3143.92,1357.73 3146.87,1357.73 3149.81,1357.74 3152.76,1357.75 "/>
<polyline clip-path="url(#clip192)" style="stroke:#e26f46; stroke-linecap:round; stroke-linejoin:round; stroke-width:12; stroke-opacity:1; fill:none" points="211.842,1358.27 214.786,1358.27 217.73,1358.27 220.674,1358.27 223.618,1358.27 226.562,1358.27 229.505,1358.27 232.449,1358.27 235.393,1358.27 238.337,1358.27 241.281,1358.27 244.225,1358.27 247.169,1358.27 250.112,1358.27 253.056,1358.27 256,1358.27 258.944,1358.27 261.888,1358.27 264.832,1358.27 267.776,1358.27 270.719,1358.27 273.663,1358.27 276.607,1358.27 279.551,1358.27 282.495,1358.27 285.439,1358.26 288.383,1358.26 291.326,1358.26 294.27,1358.25 297.214,1358.24 300.158,1358.23 303.102,1358.22 306.046,1358.21 308.99,1358.19 311.933,1358.17 314.877,1358.14 317.821,1358.1 320.765,1358.06 323.709,1358.01 326.653,1357.95 329.597,1357.88 332.54,1357.79 335.484,1357.69 338.428,1357.58 341.372,1357.44 344.316,1357.28 347.26,1357.1 350.204,1356.89 353.147,1356.65 356.091,1356.37 359.035,1356.06 361.979,1355.71 364.923,1355.31 367.867,1354.86 370.811,1354.36 373.754,1353.8 376.698,1353.18 379.642,1352.5 382.586,1351.73 385.53,1350.89 388.474,1349.97 391.418,1348.96 394.361,1347.85 397.305,1346.64 400.249,1345.32 403.193,1343.88 406.137,1342.33 409.081,1340.64 412.025,1338.83 414.968,1336.87 417.912,1334.76 420.856,1332.5 423.8,1330.08 426.744,1327.49 429.688,1324.73 432.632,1321.78 435.575,1318.65 438.519,1315.32 441.463,1311.79 444.407,1308.05 447.351,1304.1 450.295,1299.93 453.239,1295.53 456.182,1290.91 459.126,1286.04 462.07,1280.94 465.014,1275.59 467.958,1269.99 470.902,1264.13 473.846,1258.01 476.789,1251.64 479.733,1244.99 482.677,1238.08 485.621,1230.89 488.565,1223.43 491.509,1215.7 494.453,1207.69 497.397,1199.4 500.34,1190.83 503.284,1181.99 506.228,1172.87 509.172,1163.47 512.116,1153.79 515.06,1143.84 518.004,1133.62 520.947,1123.13 523.891,1112.37 526.835,1101.35 529.779,1090.07 532.723,1078.53 535.667,1066.74 538.611,1054.71 541.554,1042.43 544.498,1029.92 547.442,1017.18 550.386,1004.23 553.33,991.053 556.274,977.674 559.218,964.095 562.161,950.325 565.105,936.372 568.049,922.245 570.993,907.952 573.937,893.503 576.881,878.907 579.825,864.174 582.768,849.313 585.712,834.335 588.656,819.25 591.6,804.069 594.544,788.804 597.488,773.465 600.432,758.063 603.375,742.609 606.319,727.113 609.263,711.588 612.207,696.045 615.151,680.495 618.095,664.95 621.039,649.42 623.982,633.918 626.926,618.454 629.87,603.04 632.814,587.687 635.758,572.406 638.702,557.208 641.646,542.104 644.589,527.106 647.533,512.224 650.477,497.468 653.421,482.849 656.365,468.377 659.309,454.063 662.253,439.916 665.196,425.946 668.14,412.163 671.084,398.577 674.028,385.195 676.972,372.028 679.916,359.083 682.86,346.368 685.803,333.892 688.747,321.662 691.691,309.685 694.635,297.969 697.579,286.52 700.523,275.345 703.467,264.45 706.41,253.841 709.354,243.525 712.298,233.505 715.242,223.788 718.186,214.379 721.13,205.282 724.074,196.501 727.017,188.04 729.961,179.903 732.905,172.093 735.849,164.612 738.793,157.463 741.737,150.649 744.681,144.17 747.624,138.03 750.568,132.227 753.512,126.764 756.456,121.642 759.4,116.861 762.344,112.422 765.288,108.324 768.231,104.567 771.175,101.151 774.119,98.075 777.063,95.3378 780.007,92.9381 782.951,90.8745 785.895,89.145 788.838,87.7477 791.782,86.6802 794.726,85.9399 797.67,85.524 800.614,85.4293 803.558,85.6526 806.502,86.1902 809.445,87.0386 812.389,88.195 815.333,89.6552 818.277,91.4151 821.221,93.4706 824.165,95.8172 827.109,98.4505 830.052,101.366 832.996,104.559 835.94,108.025 838.884,111.758 841.828,115.755 844.772,120.009 847.716,124.515 850.659,129.269 853.603,134.265 856.547,139.497 859.491,144.96 862.435,150.647 865.379,156.554 868.323,162.674 871.266,169.003 874.21,175.535 877.154,182.262 880.098,189.181 883.042,196.284 885.986,203.566 888.93,211.02 891.873,218.642 894.817,226.425 897.761,234.364 900.705,242.452 903.649,250.685 906.593,259.055 909.537,267.559 912.48,276.189 915.424,284.94 918.368,293.808 921.312,302.785 924.256,311.867 927.2,321.048 930.144,330.323 933.087,339.687 936.031,349.133 938.975,358.658 941.919,368.254 944.863,377.918 947.807,387.644 950.751,397.426 953.694,407.261 956.638,417.144 959.582,427.068 962.526,437.031 965.47,447.027 968.414,457.052 971.358,467.102 974.301,477.172 977.245,487.257 980.189,497.355 983.133,507.461 986.077,517.571 989.021,527.682 991.965,537.789 994.908,547.888 997.852,557.976 1000.8,568.05 1003.74,578.106 1006.68,588.14 1009.63,598.149 1012.57,608.131 1015.52,618.081 1018.46,627.997 1021.4,637.876 1024.35,647.715 1027.29,657.511 1030.23,667.262 1033.18,676.966 1036.12,686.619 1039.07,696.221 1042.01,705.767 1044.95,715.257 1047.9,724.688 1050.84,734.058 1053.79,743.366 1056.73,752.609 1059.67,761.785 1062.62,770.894 1065.56,779.933 1068.5,788.9 1071.45,797.795 1074.39,806.615 1077.34,815.36 1080.28,824.028 1083.22,832.618 1086.17,841.129 1089.11,849.56 1092.06,857.909 1095,866.176 1097.94,874.361 1100.89,882.462 1103.83,890.478 1106.77,898.409 1109.72,906.255 1112.66,914.015 1115.61,921.688 1118.55,929.274 1121.49,936.773 1124.44,944.184 1127.38,951.508 1130.33,958.743 1133.27,965.889 1136.21,972.947 1139.16,979.917 1142.1,986.798 1145.05,993.591 1147.99,1000.29 1150.93,1006.91 1153.88,1013.44 1156.82,1019.88 1159.76,1026.23 1162.71,1032.49 1165.65,1038.67 1168.6,1044.75 1171.54,1050.76 1174.48,1056.67 1177.43,1062.5 1180.37,1068.24 1183.32,1073.9 1186.26,1079.47 1189.2,1084.96 1192.15,1090.37 1195.09,1095.69 1198.03,1100.93 1200.98,1106.09 1203.92,1111.16 1206.87,1116.16 1209.81,1121.07 1212.75,1125.91 1215.7,1130.66 1218.64,1135.34 1221.59,1139.94 1224.53,1144.46 1227.47,1148.91 1230.42,1153.29 1233.36,1157.58 1236.3,1161.81 1239.25,1165.96 1242.19,1170.04 1245.14,1174.05 1248.08,1177.98 1251.02,1181.85 1253.97,1185.65 1256.91,1189.38 1259.86,1193.04 1262.8,1196.64 1265.74,1200.17 1268.69,1203.63 1271.63,1207.03 1274.57,1210.37 1277.52,1213.64 1280.46,1216.85 1283.41,1220.01 1286.35,1223.1 1289.29,1226.13 1292.24,1229.1 1295.18,1232.02 1298.13,1234.88 1301.07,1237.68 1304.01,1240.43 1306.96,1243.13 1309.9,1245.77 1312.85,1248.36 1315.79,1250.89 1318.73,1253.38 1321.68,1255.82 1324.62,1258.2 1327.56,1260.54 1330.51,1262.83 1333.45,1265.07 1336.4,1267.27 1339.34,1269.42 1342.28,1271.52 1345.23,1273.58 1348.17,1275.6 1351.12,1277.57 1354.06,1279.51 1357,1281.4 1359.95,1283.25 1362.89,1285.06 1365.83,1286.83 1368.78,1288.57 1371.72,1290.26 1374.67,1291.92 1377.61,1293.54 1380.55,1295.13 1383.5,1296.68 1386.44,1298.2 1389.39,1299.69 1392.33,1301.14 1395.27,1302.56 1398.22,1303.94 1401.16,1305.3 1404.1,1306.62 1407.05,1307.92 1409.99,1309.19 1412.94,1310.42 1415.88,1311.63 1418.82,1312.81 1421.77,1313.96 1424.71,1315.09 1427.66,1316.19 1430.6,1317.26 1433.54,1318.31 1436.49,1319.34 1439.43,1320.34 1442.37,1321.32 1445.32,1322.27 1448.26,1323.2 1451.21,1324.11 1454.15,1325 1457.09,1325.86 1460.04,1326.71 1462.98,1327.53 1465.93,1328.34 1468.87,1329.13 1471.81,1329.89 1474.76,1330.64 1477.7,1331.37 1480.64,1332.08 1483.59,1332.78 1486.53,1333.45 1489.48,1334.12 1492.42,1334.76 1495.36,1335.39 1498.31,1336 1501.25,1336.6 1504.2,1337.18 1507.14,1337.75 1510.08,1338.3 1513.03,1338.84 1515.97,1339.37 1518.92,1339.88 1521.86,1340.38 1524.8,1340.87 1527.75,1341.34 1530.69,1341.81 1533.63,1342.26 1536.58,1342.69 1539.52,1343.12 1542.47,1343.54 1545.41,1343.95 1548.35,1344.34 1551.3,1344.73 1554.24,1345.1 1557.19,1345.47 1560.13,1345.82 1563.07,1346.17 1566.02,1346.51 1568.96,1346.84 1571.9,1347.16 1574.85,1347.47 1577.79,1347.77 1580.74,1348.07 1583.68,1348.35 1586.62,1348.63 1589.57,1348.91 1592.51,1349.17 1595.46,1349.43 1598.4,1349.68 1601.34,1349.92 1604.29,1350.16 1607.23,1350.39 1610.17,1350.62 1613.12,1350.84 1616.06,1351.05 1619.01,1351.26 1621.95,1351.46 1624.89,1351.65 1627.84,1351.84 1630.78,1352.03 1633.73,1352.21 1636.67,1352.39 1639.61,1352.56 1642.56,1352.72 1645.5,1352.88 1648.44,1353.04 1651.39,1353.19 1654.33,1353.34 1657.28,1353.48 1660.22,1353.62 1663.16,1353.76 1666.11,1353.89 1669.05,1354.02 1672,1354.15 1674.94,1354.27 1677.88,1354.39 1680.83,1354.5 1683.77,1354.61 1686.71,1354.72 1689.66,1354.83 1692.6,1354.93 1695.55,1355.03 1698.49,1355.12 1701.43,1355.22 1704.38,1355.31 1707.32,1355.4 1710.27,1355.48 1713.21,1355.57 1716.15,1355.65 1719.1,1355.73 1722.04,1355.8 1724.99,1355.88 1727.93,1355.95 1730.87,1356.02 1733.82,1356.09 1736.76,1356.15 1739.7,1356.22 1742.65,1356.28 1745.59,1356.34 1748.54,1356.4 1751.48,1356.46 1754.42,1356.51 1757.37,1356.57 1760.31,1356.62 1763.26,1356.67 1766.2,1356.72 1769.14,1356.76 1772.09,1356.81 1775.03,1356.86 1777.97,1356.9 1780.92,1356.94 1783.86,1356.98 1786.81,1357.02 1789.75,1357.06 1792.69,1357.1 1795.64,1357.13 1798.58,1357.17 1801.53,1357.2 1804.47,1357.24 1807.41,1357.27 1810.36,1357.3 1813.3,1357.33 1816.24,1357.36 1819.19,1357.39 1822.13,1357.42 1825.08,1357.44 1828.02,1357.47 1830.96,1357.49 1833.91,1357.52 1836.85,1357.54 1839.8,1357.56 1842.74,1357.59 1845.68,1357.61 1848.63,1357.63 1851.57,1357.65 1854.51,1357.67 1857.46,1357.69 1860.4,1357.71 1863.35,1357.72 1866.29,1357.74 1869.23,1357.76 1872.18,1357.77 1875.12,1357.79 1878.07,1357.81 1881.01,1357.82 1883.95,1357.83 1886.9,1357.85 1889.84,1357.86 1892.78,1357.88 1895.73,1357.89 1898.67,1357.9 1901.62,1357.91 1904.56,1357.92 1907.5,1357.93 1910.45,1357.95 1913.39,1357.96 1916.34,1357.97 1919.28,1357.98 1922.22,1357.99 1925.17,1357.99 1928.11,1358 1931.06,1358.01 1934,1358.02 1936.94,1358.03 1939.89,1358.04 1942.83,1358.04 1945.77,1358.05 1948.72,1358.06 1951.66,1358.07 1954.61,1358.07 1957.55,1358.08 1960.49,1358.08 1963.44,1358.09 1966.38,1358.1 1969.33,1358.1 1972.27,1358.11 1975.21,1358.11 1978.16,1358.12 1981.1,1358.12 1984.04,1358.13 1986.99,1358.13 1989.93,1358.14 1992.88,1358.14 1995.82,1358.15 1998.76,1358.15 2001.71,1358.15 2004.65,1358.16 2007.6,1358.16 2010.54,1358.17 2013.48,1358.17 2016.43,1358.17 2019.37,1358.18 2022.31,1358.18 2025.26,1358.18 2028.2,1358.18 2031.15,1358.19 2034.09,1358.19 2037.03,1358.19 2039.98,1358.2 2042.92,1358.2 2045.87,1358.2 2048.81,1358.2 2051.75,1358.2 2054.7,1358.21 2057.64,1358.21 2060.58,1358.21 2063.53,1358.21 2066.47,1358.22 2069.42,1358.22 2072.36,1358.22 2075.3,1358.22 2078.25,1358.22 2081.19,1358.22 2084.14,1358.23 2087.08,1358.23 2090.02,1358.23 2092.97,1358.23 2095.91,1358.23 2098.85,1358.23 2101.8,1358.23 2104.74,1358.24 2107.69,1358.24 2110.63,1358.24 2113.57,1358.24 2116.52,1358.24 2119.46,1358.24 2122.41,1358.24 2125.35,1358.24 2128.29,1358.24 2131.24,1358.24 2134.18,1358.25 2137.13,1358.25 2140.07,1358.25 2143.01,1358.25 2145.96,1358.25 2148.9,1358.25 2151.84,1358.25 2154.79,1358.25 2157.73,1358.25 2160.68,1358.25 2163.62,1358.25 2166.56,1358.25 2169.51,1358.25 2172.45,1358.25 2175.4,1358.26 2178.34,1358.26 2181.28,1358.26 2184.23,1358.26 2187.17,1358.26 2190.11,1358.26 2193.06,1358.26 2196,1358.26 2198.95,1358.26 2201.89,1358.26 2204.83,1358.26 2207.78,1358.26 2210.72,1358.26 2213.67,1358.26 2216.61,1358.26 2219.55,1358.26 2222.5,1358.26 2225.44,1358.26 2228.38,1358.26 2231.33,1358.26 2234.27,1358.26 2237.22,1358.26 2240.16,1358.26 2243.1,1358.26 2246.05,1358.26 2248.99,1358.26 2251.94,1358.26 2254.88,1358.26 2257.82,1358.26 2260.77,1358.27 2263.71,1358.27 2266.65,1358.27 2269.6,1358.27 2272.54,1358.27 2275.49,1358.27 2278.43,1358.27 2281.37,1358.27 2284.32,1358.27 2287.26,1358.27 2290.21,1358.27 2293.15,1358.27 2296.09,1358.27 2299.04,1358.27 2301.98,1358.27 2304.92,1358.27 2307.87,1358.27 2310.81,1358.27 2313.76,1358.27 2316.7,1358.27 2319.64,1358.27 2322.59,1358.27 2325.53,1358.27 2328.48,1358.27 2331.42,1358.27 2334.36,1358.27 2337.31,1358.27 2340.25,1358.27 2343.2,1358.27 2346.14,1358.27 2349.08,1358.27 2352.03,1358.27 2354.97,1358.27 2357.91,1358.27 2360.86,1358.27 2363.8,1358.27 2366.75,1358.27 2369.69,1358.27 2372.63,1358.27 2375.58,1358.27 2378.52,1358.27 2381.47,1358.27 2384.41,1358.27 2387.35,1358.27 2390.3,1358.27 2393.24,1358.27 2396.18,1358.27 2399.13,1358.27 2402.07,1358.27 2405.02,1358.27 2407.96,1358.27 2410.9,1358.27 2413.85,1358.27 2416.79,1358.27 2419.74,1358.27 2422.68,1358.27 2425.62,1358.27 2428.57,1358.27 2431.51,1358.27 2434.45,1358.27 2437.4,1358.27 2440.34,1358.27 2443.29,1358.27 2446.23,1358.27 2449.17,1358.27 2452.12,1358.27 2455.06,1358.27 2458.01,1358.27 2460.95,1358.27 2463.89,1358.27 2466.84,1358.27 2469.78,1358.27 2472.72,1358.27 2475.67,1358.27 2478.61,1358.27 2481.56,1358.27 2484.5,1358.27 2487.44,1358.27 2490.39,1358.27 2493.33,1358.27 2496.28,1358.27 2499.22,1358.27 2502.16,1358.27 2505.11,1358.27 2508.05,1358.27 2510.99,1358.27 2513.94,1358.27 2516.88,1358.27 2519.83,1358.27 2522.77,1358.27 2525.71,1358.27 2528.66,1358.27 2531.6,1358.27 2534.55,1358.27 2537.49,1358.27 2540.43,1358.27 2543.38,1358.27 2546.32,1358.27 2549.27,1358.27 2552.21,1358.27 2555.15,1358.27 2558.1,1358.27 2561.04,1358.27 2563.98,1358.27 2566.93,1358.27 2569.87,1358.27 2572.82,1358.27 2575.76,1358.27 2578.7,1358.27 2581.65,1358.27 2584.59,1358.27 2587.54,1358.27 2590.48,1358.27 2593.42,1358.27 2596.37,1358.27 2599.31,1358.27 2602.25,1358.27 2605.2,1358.27 2608.14,1358.27 2611.09,1358.27 2614.03,1358.27 2616.97,1358.27 2619.92,1358.27 2622.86,1358.27 2625.81,1358.27 2628.75,1358.27 2631.69,1358.27 2634.64,1358.27 2637.58,1358.27 2640.52,1358.27 2643.47,1358.27 2646.41,1358.27 2649.36,1358.27 2652.3,1358.27 2655.24,1358.27 2658.19,1358.27 2661.13,1358.27 2664.08,1358.27 2667.02,1358.27 2669.96,1358.27 2672.91,1358.27 2675.85,1358.27 2678.79,1358.27 2681.74,1358.27 2684.68,1358.27 2687.63,1358.27 2690.57,1358.27 2693.51,1358.27 2696.46,1358.27 2699.4,1358.27 2702.35,1358.27 2705.29,1358.27 2708.23,1358.27 2711.18,1358.27 2714.12,1358.27 2717.07,1358.27 2720.01,1358.27 2722.95,1358.27 2725.9,1358.27 2728.84,1358.27 2731.78,1358.27 2734.73,1358.27 2737.67,1358.27 2740.62,1358.27 2743.56,1358.27 2746.5,1358.27 2749.45,1358.27 2752.39,1358.27 2755.34,1358.27 2758.28,1358.27 2761.22,1358.27 2764.17,1358.27 2767.11,1358.27 2770.05,1358.27 2773,1358.27 2775.94,1358.27 2778.89,1358.27 2781.83,1358.27 2784.77,1358.27 2787.72,1358.27 2790.66,1358.27 2793.61,1358.27 2796.55,1358.27 2799.49,1358.27 2802.44,1358.27 2805.38,1358.27 2808.32,1358.27 2811.27,1358.27 2814.21,1358.27 2817.16,1358.27 2820.1,1358.27 2823.04,1358.27 2825.99,1358.27 2828.93,1358.27 2831.88,1358.27 2834.82,1358.27 2837.76,1358.27 2840.71,1358.27 2843.65,1358.27 2846.59,1358.27 2849.54,1358.27 2852.48,1358.27 2855.43,1358.27 2858.37,1358.27 2861.31,1358.27 2864.26,1358.27 2867.2,1358.27 2870.15,1358.27 2873.09,1358.27 2876.03,1358.27 2878.98,1358.27 2881.92,1358.27 2884.86,1358.27 2887.81,1358.27 2890.75,1358.27 2893.7,1358.27 2896.64,1358.27 2899.58,1358.27 2902.53,1358.27 2905.47,1358.27 2908.42,1358.27 2911.36,1358.27 2914.3,1358.27 2917.25,1358.27 2920.19,1358.27 2923.14,1358.27 2926.08,1358.27 2929.02,1358.27 2931.97,1358.27 2934.91,1358.27 2937.85,1358.27 2940.8,1358.27 2943.74,1358.27 2946.69,1358.27 2949.63,1358.27 2952.57,1358.27 2955.52,1358.27 2958.46,1358.27 2961.41,1358.27 2964.35,1358.27 2967.29,1358.27 2970.24,1358.27 2973.18,1358.27 2976.12,1358.27 2979.07,1358.27 2982.01,1358.27 2984.96,1358.27 2987.9,1358.27 2990.84,1358.27 2993.79,1358.27 2996.73,1358.27 2999.68,1358.27 3002.62,1358.27 3005.56,1358.27 3008.51,1358.27 3011.45,1358.27 3014.39,1358.27 3017.34,1358.27 3020.28,1358.27 3023.23,1358.27 3026.17,1358.27 3029.11,1358.27 3032.06,1358.27 3035,1358.27 3037.95,1358.27 3040.89,1358.27 3043.83,1358.27 3046.78,1358.27 3049.72,1358.27 3052.66,1358.27 3055.61,1358.27 3058.55,1358.27 3061.5,1358.27 3064.44,1358.27 3067.38,1358.27 3070.33,1358.27 3073.27,1358.27 3076.22,1358.27 3079.16,1358.27 3082.1,1358.27 3085.05,1358.27 3087.99,1358.27 3090.93,1358.27 3093.88,1358.27 3096.82,1358.27 3099.77,1358.27 3102.71,1358.27 3105.65,1358.27 3108.6,1358.27 3111.54,1358.27 3114.49,1358.27 3117.43,1358.27 3120.37,1358.27 3123.32,1358.27 3126.26,1358.27 3129.21,1358.27 3132.15,1358.27 3135.09,1358.27 3138.04,1358.27 3140.98,1358.27 3143.92,1358.27 3146.87,1358.27 3149.81,1358.27 3152.76,1358.27 "/>
<path clip-path="url(#clip190)" d="M2607.86 247.738 L3054.73 247.738 L3054.73 92.2178 L2607.86 92.2178  Z" fill="#ffffff" fill-rule="evenodd" fill-opacity="1"/>
<polyline clip-path="url(#clip190)" style="stroke:#000000; stroke-linecap:round; stroke-linejoin:round; stroke-width:4; stroke-opacity:1; fill:none" points="2607.86,247.738 3054.73,247.738 3054.73,92.2178 2607.86,92.2178 2607.86,247.738 "/>
<polyline clip-path="url(#clip190)" style="stroke:#009af9; stroke-linecap:round; stroke-linejoin:round; stroke-width:12; stroke-opacity:1; fill:none" points="2640.53,144.058 2836.59,144.058 "/>
<path clip-path="url(#clip190)" d="M2890.98 145.69 L2890.98 161.338 L2886.73 161.338 L2886.73 145.829 Q2886.73 142.148 2885.29 140.319 Q2883.85 138.491 2880.98 138.491 Q2877.54 138.491 2875.54 140.69 Q2873.55 142.889 2873.55 146.685 L2873.55 161.338 L2869.27 161.338 L2869.27 135.412 L2873.55 135.412 L2873.55 139.44 Q2875.08 137.102 2877.14 135.944 Q2879.23 134.787 2881.93 134.787 Q2886.4 134.787 2888.69 137.565 Q2890.98 140.319 2890.98 145.69 Z" fill="#000000" fill-rule="nonzero" fill-opacity="1" /><path clip-path="url(#clip190)" d="M2915.1 139.81 L2944.78 139.81 L2944.78 143.699 L2915.1 143.699 L2915.1 139.81 M2915.1 149.255 L2944.78 149.255 L2944.78 153.19 L2915.1 153.19 L2915.1 149.255 Z" fill="#000000" fill-rule="nonzero" fill-opacity="1" /><path clip-path="url(#clip190)" d="M2984.11 142.704 Q2987.47 143.421 2989.34 145.69 Q2991.24 147.958 2991.24 151.292 Q2991.24 156.407 2987.72 159.208 Q2984.2 162.009 2977.72 162.009 Q2975.54 162.009 2973.23 161.569 Q2970.94 161.153 2968.48 160.296 L2968.48 155.782 Q2970.43 156.917 2972.74 157.495 Q2975.06 158.074 2977.58 158.074 Q2981.98 158.074 2984.27 156.338 Q2986.59 154.602 2986.59 151.292 Q2986.59 148.236 2984.43 146.523 Q2982.3 144.787 2978.48 144.787 L2974.46 144.787 L2974.46 140.944 L2978.67 140.944 Q2982.12 140.944 2983.95 139.579 Q2985.78 138.19 2985.78 135.597 Q2985.78 132.935 2983.88 131.523 Q2982 130.088 2978.48 130.088 Q2976.56 130.088 2974.36 130.505 Q2972.16 130.921 2969.53 131.801 L2969.53 127.634 Q2972.19 126.894 2974.5 126.523 Q2976.84 126.153 2978.9 126.153 Q2984.22 126.153 2987.33 128.583 Q2990.43 130.991 2990.43 135.111 Q2990.43 137.981 2988.78 139.972 Q2987.14 141.94 2984.11 142.704 Z" fill="#000000" fill-rule="nonzero" fill-opacity="1" /><polyline clip-path="url(#clip190)" style="stroke:#e26f46; stroke-linecap:round; stroke-linejoin:round; stroke-width:12; stroke-opacity:1; fill:none" points="2640.53,195.898 2836.59,195.898 "/>
<path clip-path="url(#clip190)" d="M2890.98 197.53 L2890.98 213.178 L2886.73 213.178 L2886.73 197.669 Q2886.73 193.988 2885.29 192.159 Q2883.85 190.331 2880.98 190.331 Q2877.54 190.331 2875.54 192.53 Q2873.55 194.729 2873.55 198.525 L2873.55 213.178 L2869.27 213.178 L2869.27 187.252 L2873.55 187.252 L2873.55 191.28 Q2875.08 188.942 2877.14 187.784 Q2879.23 186.627 2881.93 186.627 Q2886.4 186.627 2888.69 189.405 Q2890.98 192.159 2890.98 197.53 Z" fill="#000000" fill-rule="nonzero" fill-opacity="1" /><path clip-path="url(#clip190)" d="M2915.1 191.65 L2944.78 191.65 L2944.78 195.539 L2915.1 195.539 L2915.1 191.65 M2915.1 201.095 L2944.78 201.095 L2944.78 205.03 L2915.1 205.03 L2915.1 201.095 Z" fill="#000000" fill-rule="nonzero" fill-opacity="1" /><path clip-path="url(#clip190)" d="M2970.75 209.243 L2978.39 209.243 L2978.39 182.877 L2970.08 184.544 L2970.08 180.284 L2978.35 178.618 L2983.02 178.618 L2983.02 209.243 L2990.66 209.243 L2990.66 213.178 L2970.75 213.178 L2970.75 209.243 Z" fill="#000000" fill-rule="nonzero" fill-opacity="1" /><path clip-path="url(#clip190)" d="M3010.1 181.697 Q3006.49 181.697 3004.66 185.261 Q3002.86 188.803 3002.86 195.933 Q3002.86 203.039 3004.66 206.604 Q3006.49 210.145 3010.1 210.145 Q3013.74 210.145 3015.54 206.604 Q3017.37 203.039 3017.37 195.933 Q3017.37 188.803 3015.54 185.261 Q3013.74 181.697 3010.1 181.697 M3010.1 177.993 Q3015.91 177.993 3018.97 182.599 Q3022.05 187.183 3022.05 195.933 Q3022.05 204.659 3018.97 209.266 Q3015.91 213.849 3010.1 213.849 Q3004.29 213.849 3001.22 209.266 Q2998.16 204.659 2998.16 195.933 Q2998.16 187.183 3001.22 182.599 Q3004.29 177.993 3010.1 177.993 Z" fill="#000000" fill-rule="nonzero" fill-opacity="1" /></svg>
