<?xml version="1.0" encoding="utf-8"?>
<svg xmlns="http://www.w3.org/2000/svg" xmlns:xlink="http://www.w3.org/1999/xlink" width="600" height="400" viewBox="0 0 2400 1600">
<defs>
  <clipPath id="clip430">
    <rect x="0" y="0" width="2400" height="1600"/>
  </clipPath>
</defs>
<path clip-path="url(#clip430)" d="M0 1600 L2400 1600 L2400 0 L0 0  Z" fill="#ffffff" fill-rule="evenodd" fill-opacity="1"/>
<defs>
  <clipPath id="clip431">
    <rect x="480" y="0" width="1681" height="1600"/>
  </clipPath>
</defs>
<path clip-path="url(#clip430)" d="M244.451 1423.18 L2352.76 1423.18 L2352.76 47.2441 L244.451 47.2441  Z" fill="#ffffff" fill-rule="evenodd" fill-opacity="1"/>
<defs>
  <clipPath id="clip432">
    <rect x="244" y="47" width="2109" height="1377"/>
  </clipPath>
</defs>
<polyline clip-path="url(#clip432)" style="stroke:#000000; stroke-linecap:round; stroke-linejoin:round; stroke-width:2; stroke-opacity:0.1; fill:none" points="704.885,1423.18 704.885,47.2441 "/>
<polyline clip-path="url(#clip432)" style="stroke:#000000; stroke-linecap:round; stroke-linejoin:round; stroke-width:2; stroke-opacity:0.1; fill:none" points="1189.55,1423.18 1189.55,47.2441 "/>
<polyline clip-path="url(#clip432)" style="stroke:#000000; stroke-linecap:round; stroke-linejoin:round; stroke-width:2; stroke-opacity:0.1; fill:none" points="1674.22,1423.18 1674.22,47.2441 "/>
<polyline clip-path="url(#clip432)" style="stroke:#000000; stroke-linecap:round; stroke-linejoin:round; stroke-width:2; stroke-opacity:0.1; fill:none" points="2158.89,1423.18 2158.89,47.2441 "/>
<polyline clip-path="url(#clip430)" style="stroke:#000000; stroke-linecap:round; stroke-linejoin:round; stroke-width:4; stroke-opacity:1; fill:none" points="244.451,1423.18 2352.76,1423.18 "/>
<polyline clip-path="url(#clip430)" style="stroke:#000000; stroke-linecap:round; stroke-linejoin:round; stroke-width:4; stroke-opacity:1; fill:none" points="704.885,1423.18 704.885,1404.28 "/>
<polyline clip-path="url(#clip430)" style="stroke:#000000; stroke-linecap:round; stroke-linejoin:round; stroke-width:4; stroke-opacity:1; fill:none" points="1189.55,1423.18 1189.55,1404.28 "/>
<polyline clip-path="url(#clip430)" style="stroke:#000000; stroke-linecap:round; stroke-linejoin:round; stroke-width:4; stroke-opacity:1; fill:none" points="1674.22,1423.18 1674.22,1404.28 "/>
<polyline clip-path="url(#clip430)" style="stroke:#000000; stroke-linecap:round; stroke-linejoin:round; stroke-width:4; stroke-opacity:1; fill:none" points="2158.89,1423.18 2158.89,1404.28 "/>
<path clip-path="url(#clip430)" d="M683.659 1481.64 L699.978 1481.64 L699.978 1485.58 L678.034 1485.58 L678.034 1481.64 Q680.696 1478.89 685.279 1474.26 Q689.885 1469.61 691.066 1468.27 Q693.311 1465.74 694.191 1464.01 Q695.094 1462.25 695.094 1460.56 Q695.094 1457.8 693.149 1456.07 Q691.228 1454.33 688.126 1454.33 Q685.927 1454.33 683.473 1455.09 Q681.043 1455.86 678.265 1457.41 L678.265 1452.69 Q681.089 1451.55 683.543 1450.97 Q685.997 1450.39 688.034 1450.39 Q693.404 1450.39 696.598 1453.08 Q699.793 1455.77 699.793 1460.26 Q699.793 1462.39 698.983 1464.31 Q698.196 1466.2 696.089 1468.8 Q695.51 1469.47 692.409 1472.69 Q689.307 1475.88 683.659 1481.64 Z" fill="#000000" fill-rule="nonzero" fill-opacity="1" /><path clip-path="url(#clip430)" d="M719.793 1454.1 Q716.182 1454.1 714.353 1457.66 Q712.547 1461.2 712.547 1468.33 Q712.547 1475.44 714.353 1479.01 Q716.182 1482.55 719.793 1482.55 Q723.427 1482.55 725.232 1479.01 Q727.061 1475.44 727.061 1468.33 Q727.061 1461.2 725.232 1457.66 Q723.427 1454.1 719.793 1454.1 M719.793 1450.39 Q725.603 1450.39 728.658 1455 Q731.737 1459.58 731.737 1468.33 Q731.737 1477.06 728.658 1481.67 Q725.603 1486.25 719.793 1486.25 Q713.983 1486.25 710.904 1481.67 Q707.848 1477.06 707.848 1468.33 Q707.848 1459.58 710.904 1455 Q713.983 1450.39 719.793 1450.39 Z" fill="#000000" fill-rule="nonzero" fill-opacity="1" /><path clip-path="url(#clip430)" d="M1177.72 1455.09 L1165.92 1473.54 L1177.72 1473.54 L1177.72 1455.09 M1176.5 1451.02 L1182.38 1451.02 L1182.38 1473.54 L1187.31 1473.54 L1187.31 1477.43 L1182.38 1477.43 L1182.38 1485.58 L1177.72 1485.58 L1177.72 1477.43 L1162.12 1477.43 L1162.12 1472.92 L1176.5 1451.02 Z" fill="#000000" fill-rule="nonzero" fill-opacity="1" /><path clip-path="url(#clip430)" d="M1205.04 1454.1 Q1201.43 1454.1 1199.6 1457.66 Q1197.79 1461.2 1197.79 1468.33 Q1197.79 1475.44 1199.6 1479.01 Q1201.43 1482.55 1205.04 1482.55 Q1208.67 1482.55 1210.48 1479.01 Q1212.31 1475.44 1212.31 1468.33 Q1212.31 1461.2 1210.48 1457.66 Q1208.67 1454.1 1205.04 1454.1 M1205.04 1450.39 Q1210.85 1450.39 1213.9 1455 Q1216.98 1459.58 1216.98 1468.33 Q1216.98 1477.06 1213.9 1481.67 Q1210.85 1486.25 1205.04 1486.25 Q1199.23 1486.25 1196.15 1481.67 Q1193.09 1477.06 1193.09 1468.33 Q1193.09 1459.58 1196.15 1455 Q1199.23 1450.39 1205.04 1450.39 Z" fill="#000000" fill-rule="nonzero" fill-opacity="1" /><path clip-path="url(#clip430)" d="M1659.63 1466.44 Q1656.48 1466.44 1654.63 1468.59 Q1652.8 1470.74 1652.8 1474.49 Q1652.8 1478.22 1654.63 1480.39 Q1656.48 1482.55 1659.63 1482.55 Q1662.77 1482.55 1664.6 1480.39 Q1666.45 1478.22 1666.45 1474.49 Q1666.45 1470.74 1664.6 1468.59 Q1662.77 1466.44 1659.63 1466.44 M1668.91 1451.78 L1668.91 1456.04 Q1667.15 1455.21 1665.34 1454.77 Q1663.56 1454.33 1661.8 1454.33 Q1657.17 1454.33 1654.72 1457.45 Q1652.29 1460.58 1651.94 1466.9 Q1653.31 1464.89 1655.37 1463.82 Q1657.43 1462.73 1659.9 1462.73 Q1665.11 1462.73 1668.12 1465.9 Q1671.15 1469.05 1671.15 1474.49 Q1671.15 1479.82 1668.01 1483.03 Q1664.86 1486.25 1659.63 1486.25 Q1653.63 1486.25 1650.46 1481.67 Q1647.29 1477.06 1647.29 1468.33 Q1647.29 1460.14 1651.18 1455.28 Q1655.07 1450.39 1661.62 1450.39 Q1663.38 1450.39 1665.16 1450.74 Q1666.96 1451.09 1668.91 1451.78 Z" fill="#000000" fill-rule="nonzero" fill-opacity="1" /><path clip-path="url(#clip430)" d="M1689.21 1454.1 Q1685.6 1454.1 1683.77 1457.66 Q1681.96 1461.2 1681.96 1468.33 Q1681.96 1475.44 1683.77 1479.01 Q1685.6 1482.55 1689.21 1482.55 Q1692.84 1482.55 1694.65 1479.01 Q1696.48 1475.44 1696.48 1468.33 Q1696.48 1461.2 1694.65 1457.66 Q1692.84 1454.1 1689.21 1454.1 M1689.21 1450.39 Q1695.02 1450.39 1698.08 1455 Q1701.15 1459.58 1701.15 1468.33 Q1701.15 1477.06 1698.08 1481.67 Q1695.02 1486.25 1689.21 1486.25 Q1683.4 1486.25 1680.32 1481.67 Q1677.26 1477.06 1677.26 1468.33 Q1677.26 1459.58 1680.32 1455 Q1683.4 1450.39 1689.21 1450.39 Z" fill="#000000" fill-rule="nonzero" fill-opacity="1" /><path clip-path="url(#clip430)" d="M2143.76 1469.17 Q2140.43 1469.17 2138.51 1470.95 Q2136.61 1472.73 2136.61 1475.86 Q2136.61 1478.98 2138.51 1480.77 Q2140.43 1482.55 2143.76 1482.55 Q2147.09 1482.55 2149.02 1480.77 Q2150.94 1478.96 2150.94 1475.86 Q2150.94 1472.73 2149.02 1470.95 Q2147.12 1469.17 2143.76 1469.17 M2139.09 1467.18 Q2136.08 1466.44 2134.39 1464.38 Q2132.72 1462.32 2132.72 1459.35 Q2132.72 1455.21 2135.66 1452.8 Q2138.62 1450.39 2143.76 1450.39 Q2148.92 1450.39 2151.86 1452.8 Q2154.8 1455.21 2154.8 1459.35 Q2154.8 1462.32 2153.11 1464.38 Q2151.45 1466.44 2148.46 1467.18 Q2151.84 1467.96 2153.72 1470.26 Q2155.61 1472.55 2155.61 1475.86 Q2155.61 1480.88 2152.53 1483.57 Q2149.48 1486.25 2143.76 1486.25 Q2138.04 1486.25 2134.97 1483.57 Q2131.91 1480.88 2131.91 1475.86 Q2131.91 1472.55 2133.81 1470.26 Q2135.71 1467.96 2139.09 1467.18 M2137.37 1459.79 Q2137.37 1462.48 2139.04 1463.98 Q2140.73 1465.49 2143.76 1465.49 Q2146.77 1465.49 2148.46 1463.98 Q2150.17 1462.48 2150.17 1459.79 Q2150.17 1457.11 2148.46 1455.6 Q2146.77 1454.1 2143.76 1454.1 Q2140.73 1454.1 2139.04 1455.6 Q2137.37 1457.11 2137.37 1459.79 Z" fill="#000000" fill-rule="nonzero" fill-opacity="1" /><path clip-path="url(#clip430)" d="M2173.92 1454.1 Q2170.31 1454.1 2168.48 1457.66 Q2166.68 1461.2 2166.68 1468.33 Q2166.68 1475.44 2168.48 1479.01 Q2170.31 1482.55 2173.92 1482.55 Q2177.56 1482.55 2179.36 1479.01 Q2181.19 1475.44 2181.19 1468.33 Q2181.19 1461.2 2179.36 1457.66 Q2177.56 1454.1 2173.92 1454.1 M2173.92 1450.39 Q2179.73 1450.39 2182.79 1455 Q2185.87 1459.58 2185.87 1468.33 Q2185.87 1477.06 2182.79 1481.67 Q2179.73 1486.25 2173.92 1486.25 Q2168.11 1486.25 2165.03 1481.67 Q2161.98 1477.06 2161.98 1468.33 Q2161.98 1459.58 2165.03 1455 Q2168.11 1450.39 2173.92 1450.39 Z" fill="#000000" fill-rule="nonzero" fill-opacity="1" /><path clip-path="url(#clip430)" d="M984.153 1520.52 L1011.46 1520.52 L1011.46 1525.93 L990.583 1525.93 L990.583 1539.94 L1009.43 1539.94 L1009.43 1545.35 L990.583 1545.35 L990.583 1568.04 L984.153 1568.04 L984.153 1520.52 Z" fill="#000000" fill-rule="nonzero" fill-opacity="1" /><path clip-path="url(#clip430)" d="M1017.22 1553.98 L1017.22 1532.4 L1023.08 1532.4 L1023.08 1553.75 Q1023.08 1558.81 1025.05 1561.36 Q1027.03 1563.87 1030.97 1563.87 Q1035.72 1563.87 1038.45 1560.85 Q1041.22 1557.83 1041.22 1552.61 L1041.22 1532.4 L1047.08 1532.4 L1047.08 1568.04 L1041.22 1568.04 L1041.22 1562.57 Q1039.09 1565.82 1036.26 1567.41 Q1033.46 1568.97 1029.73 1568.97 Q1023.59 1568.97 1020.41 1565.15 Q1017.22 1561.33 1017.22 1553.98 M1031.96 1531.54 L1031.96 1531.54 Z" fill="#000000" fill-rule="nonzero" fill-opacity="1" /><path clip-path="url(#clip430)" d="M1088.77 1546.53 L1088.77 1568.04 L1082.92 1568.04 L1082.92 1546.72 Q1082.92 1541.66 1080.94 1539.14 Q1078.97 1536.63 1075.02 1536.63 Q1070.28 1536.63 1067.54 1539.65 Q1064.81 1542.68 1064.81 1547.9 L1064.81 1568.04 L1058.92 1568.04 L1058.92 1532.4 L1064.81 1532.4 L1064.81 1537.93 Q1066.91 1534.72 1069.74 1533.13 Q1072.6 1531.54 1076.33 1531.54 Q1082.47 1531.54 1085.62 1535.36 Q1088.77 1539.14 1088.77 1546.53 Z" fill="#000000" fill-rule="nonzero" fill-opacity="1" /><path clip-path="url(#clip430)" d="M1126.11 1533.76 L1126.11 1539.24 Q1123.63 1537.87 1121.11 1537.2 Q1118.63 1536.5 1116.08 1536.5 Q1110.39 1536.5 1107.23 1540.13 Q1104.08 1543.73 1104.08 1550.25 Q1104.08 1556.78 1107.23 1560.4 Q1110.39 1564 1116.08 1564 Q1118.63 1564 1121.11 1563.33 Q1123.63 1562.63 1126.11 1561.26 L1126.11 1566.68 Q1123.66 1567.82 1121.02 1568.39 Q1118.41 1568.97 1115.45 1568.97 Q1107.39 1568.97 1102.65 1563.91 Q1097.91 1558.85 1097.91 1550.25 Q1097.91 1541.53 1102.68 1536.53 Q1107.49 1531.54 1115.83 1531.54 Q1118.53 1531.54 1121.11 1532.11 Q1123.69 1532.65 1126.11 1533.76 Z" fill="#000000" fill-rule="nonzero" fill-opacity="1" /><path clip-path="url(#clip430)" d="M1142.09 1522.27 L1142.09 1532.4 L1154.15 1532.4 L1154.15 1536.95 L1142.09 1536.95 L1142.09 1556.3 Q1142.09 1560.66 1143.26 1561.9 Q1144.47 1563.14 1148.13 1563.14 L1154.15 1563.14 L1154.15 1568.04 L1148.13 1568.04 Q1141.35 1568.04 1138.78 1565.53 Q1136.2 1562.98 1136.2 1556.3 L1136.2 1536.95 L1131.9 1536.95 L1131.9 1532.4 L1136.2 1532.4 L1136.2 1522.27 L1142.09 1522.27 Z" fill="#000000" fill-rule="nonzero" fill-opacity="1" /><path clip-path="url(#clip430)" d="M1161.85 1532.4 L1167.71 1532.4 L1167.71 1568.04 L1161.85 1568.04 L1161.85 1532.4 M1161.85 1518.52 L1167.71 1518.52 L1167.71 1525.93 L1161.85 1525.93 L1161.85 1518.52 Z" fill="#000000" fill-rule="nonzero" fill-opacity="1" /><path clip-path="url(#clip430)" d="M1193.78 1536.5 Q1189.07 1536.5 1186.33 1540.19 Q1183.59 1543.85 1183.59 1550.25 Q1183.59 1556.65 1186.3 1560.34 Q1189.03 1564 1193.78 1564 Q1198.45 1564 1201.19 1560.31 Q1203.93 1556.62 1203.93 1550.25 Q1203.93 1543.92 1201.19 1540.23 Q1198.45 1536.5 1193.78 1536.5 M1193.78 1531.54 Q1201.41 1531.54 1205.78 1536.5 Q1210.14 1541.47 1210.14 1550.25 Q1210.14 1559 1205.78 1564 Q1201.41 1568.97 1193.78 1568.97 Q1186.11 1568.97 1181.74 1564 Q1177.42 1559 1177.42 1550.25 Q1177.42 1541.47 1181.74 1536.5 Q1186.11 1531.54 1193.78 1531.54 Z" fill="#000000" fill-rule="nonzero" fill-opacity="1" /><path clip-path="url(#clip430)" d="M1249.48 1546.53 L1249.48 1568.04 L1243.62 1568.04 L1243.62 1546.72 Q1243.62 1541.66 1241.65 1539.14 Q1239.67 1536.63 1235.73 1536.63 Q1230.98 1536.63 1228.25 1539.65 Q1225.51 1542.68 1225.51 1547.9 L1225.51 1568.04 L1219.62 1568.04 L1219.62 1532.4 L1225.51 1532.4 L1225.51 1537.93 Q1227.61 1534.72 1230.44 1533.13 Q1233.31 1531.54 1237.03 1531.54 Q1243.17 1531.54 1246.33 1535.36 Q1249.48 1539.14 1249.48 1546.53 Z" fill="#000000" fill-rule="nonzero" fill-opacity="1" /><path clip-path="url(#clip430)" d="M1312.37 1548.76 L1312.37 1551.62 L1285.44 1551.62 Q1285.82 1557.67 1289.07 1560.85 Q1292.35 1564 1298.17 1564 Q1301.55 1564 1304.7 1563.17 Q1307.88 1562.35 1311 1560.69 L1311 1566.23 Q1307.85 1567.57 1304.54 1568.27 Q1301.23 1568.97 1297.82 1568.97 Q1289.29 1568.97 1284.3 1564 Q1279.33 1559.04 1279.33 1550.57 Q1279.33 1541.82 1284.04 1536.69 Q1288.78 1531.54 1296.81 1531.54 Q1304 1531.54 1308.17 1536.18 Q1312.37 1540.8 1312.37 1548.76 M1306.51 1547.04 Q1306.45 1542.23 1303.81 1539.37 Q1301.2 1536.5 1296.87 1536.5 Q1291.97 1536.5 1289.01 1539.27 Q1286.08 1542.04 1285.63 1547.07 L1306.51 1547.04 Z" fill="#000000" fill-rule="nonzero" fill-opacity="1" /><path clip-path="url(#clip430)" d="M1317.78 1532.4 L1323.99 1532.4 L1335.13 1562.31 L1346.27 1532.4 L1352.47 1532.4 L1339.11 1568.04 L1331.15 1568.04 L1317.78 1532.4 Z" fill="#000000" fill-rule="nonzero" fill-opacity="1" /><path clip-path="url(#clip430)" d="M1376.76 1550.12 Q1369.66 1550.12 1366.92 1551.75 Q1364.19 1553.37 1364.19 1557.29 Q1364.19 1560.4 1366.22 1562.25 Q1368.29 1564.07 1371.82 1564.07 Q1376.69 1564.07 1379.62 1560.63 Q1382.58 1557.16 1382.58 1551.43 L1382.58 1550.12 L1376.76 1550.12 M1388.44 1547.71 L1388.44 1568.04 L1382.58 1568.04 L1382.58 1562.63 Q1380.58 1565.88 1377.59 1567.44 Q1374.59 1568.97 1370.27 1568.97 Q1364.79 1568.97 1361.54 1565.91 Q1358.33 1562.82 1358.33 1557.67 Q1358.33 1551.65 1362.34 1548.6 Q1366.38 1545.54 1374.37 1545.54 L1382.58 1545.54 L1382.58 1544.97 Q1382.58 1540.93 1379.91 1538.73 Q1377.27 1536.5 1372.46 1536.5 Q1369.41 1536.5 1366.51 1537.23 Q1363.61 1537.97 1360.94 1539.43 L1360.94 1534.02 Q1364.15 1532.78 1367.18 1532.17 Q1370.2 1531.54 1373.07 1531.54 Q1380.8 1531.54 1384.62 1535.55 Q1388.44 1539.56 1388.44 1547.71 Z" fill="#000000" fill-rule="nonzero" fill-opacity="1" /><path clip-path="url(#clip430)" d="M1400.5 1518.52 L1406.36 1518.52 L1406.36 1568.04 L1400.5 1568.04 L1400.5 1518.52 Z" fill="#000000" fill-rule="nonzero" fill-opacity="1" /><path clip-path="url(#clip430)" d="M1418.01 1553.98 L1418.01 1532.4 L1423.86 1532.4 L1423.86 1553.75 Q1423.86 1558.81 1425.84 1561.36 Q1427.81 1563.87 1431.76 1563.87 Q1436.5 1563.87 1439.24 1560.85 Q1442.01 1557.83 1442.01 1552.61 L1442.01 1532.4 L1447.86 1532.4 L1447.86 1568.04 L1442.01 1568.04 L1442.01 1562.57 Q1439.87 1565.82 1437.04 1567.41 Q1434.24 1568.97 1430.52 1568.97 Q1424.37 1568.97 1421.19 1565.15 Q1418.01 1561.33 1418.01 1553.98 M1432.74 1531.54 L1432.74 1531.54 Z" fill="#000000" fill-rule="nonzero" fill-opacity="1" /><path clip-path="url(#clip430)" d="M1476.13 1550.12 Q1469.03 1550.12 1466.29 1551.75 Q1463.55 1553.37 1463.55 1557.29 Q1463.55 1560.4 1465.59 1562.25 Q1467.66 1564.07 1471.19 1564.07 Q1476.06 1564.07 1478.99 1560.63 Q1481.95 1557.16 1481.95 1551.43 L1481.95 1550.12 L1476.13 1550.12 M1487.81 1547.71 L1487.81 1568.04 L1481.95 1568.04 L1481.95 1562.63 Q1479.95 1565.88 1476.95 1567.44 Q1473.96 1568.97 1469.63 1568.97 Q1464.16 1568.97 1460.91 1565.91 Q1457.7 1562.82 1457.7 1557.67 Q1457.7 1551.65 1461.71 1548.6 Q1465.75 1545.54 1473.74 1545.54 L1481.95 1545.54 L1481.95 1544.97 Q1481.95 1540.93 1479.28 1538.73 Q1476.64 1536.5 1471.83 1536.5 Q1468.77 1536.5 1465.88 1537.23 Q1462.98 1537.97 1460.31 1539.43 L1460.31 1534.02 Q1463.52 1532.78 1466.55 1532.17 Q1469.57 1531.54 1472.43 1531.54 Q1480.17 1531.54 1483.99 1535.55 Q1487.81 1539.56 1487.81 1547.71 Z" fill="#000000" fill-rule="nonzero" fill-opacity="1" /><path clip-path="url(#clip430)" d="M1505.66 1522.27 L1505.66 1532.4 L1517.73 1532.4 L1517.73 1536.95 L1505.66 1536.95 L1505.66 1556.3 Q1505.66 1560.66 1506.84 1561.9 Q1508.05 1563.14 1511.71 1563.14 L1517.73 1563.14 L1517.73 1568.04 L1511.71 1568.04 Q1504.93 1568.04 1502.35 1565.53 Q1499.78 1562.98 1499.78 1556.3 L1499.78 1536.95 L1495.48 1536.95 L1495.48 1532.4 L1499.78 1532.4 L1499.78 1522.27 L1505.66 1522.27 Z" fill="#000000" fill-rule="nonzero" fill-opacity="1" /><path clip-path="url(#clip430)" d="M1525.43 1532.4 L1531.29 1532.4 L1531.29 1568.04 L1525.43 1568.04 L1525.43 1532.4 M1525.43 1518.52 L1531.29 1518.52 L1531.29 1525.93 L1525.43 1525.93 L1525.43 1518.52 Z" fill="#000000" fill-rule="nonzero" fill-opacity="1" /><path clip-path="url(#clip430)" d="M1557.35 1536.5 Q1552.64 1536.5 1549.91 1540.19 Q1547.17 1543.85 1547.17 1550.25 Q1547.17 1556.65 1549.87 1560.34 Q1552.61 1564 1557.35 1564 Q1562.03 1564 1564.77 1560.31 Q1567.51 1556.62 1567.51 1550.25 Q1567.51 1543.92 1564.77 1540.23 Q1562.03 1536.5 1557.35 1536.5 M1557.35 1531.54 Q1564.99 1531.54 1569.35 1536.5 Q1573.71 1541.47 1573.71 1550.25 Q1573.71 1559 1569.35 1564 Q1564.99 1568.97 1557.35 1568.97 Q1549.68 1568.97 1545.32 1564 Q1540.99 1559 1540.99 1550.25 Q1540.99 1541.47 1545.32 1536.5 Q1549.68 1531.54 1557.35 1531.54 Z" fill="#000000" fill-rule="nonzero" fill-opacity="1" /><path clip-path="url(#clip430)" d="M1613.05 1546.53 L1613.05 1568.04 L1607.2 1568.04 L1607.2 1546.72 Q1607.2 1541.66 1605.22 1539.14 Q1603.25 1536.63 1599.3 1536.63 Q1594.56 1536.63 1591.82 1539.65 Q1589.09 1542.68 1589.09 1547.9 L1589.09 1568.04 L1583.2 1568.04 L1583.2 1532.4 L1589.09 1532.4 L1589.09 1537.93 Q1591.19 1534.72 1594.02 1533.13 Q1596.88 1531.54 1600.61 1531.54 Q1606.75 1531.54 1609.9 1535.36 Q1613.05 1539.14 1613.05 1546.53 Z" fill="#000000" fill-rule="nonzero" fill-opacity="1" /><polyline clip-path="url(#clip432)" style="stroke:#000000; stroke-linecap:round; stroke-linejoin:round; stroke-width:2; stroke-opacity:0.1; fill:none" points="244.451,1085.57 2352.76,1085.57 "/>
<polyline clip-path="url(#clip432)" style="stroke:#000000; stroke-linecap:round; stroke-linejoin:round; stroke-width:2; stroke-opacity:0.1; fill:none" points="244.451,556.98 2352.76,556.98 "/>
<polyline clip-path="url(#clip430)" style="stroke:#000000; stroke-linecap:round; stroke-linejoin:round; stroke-width:4; stroke-opacity:1; fill:none" points="244.451,1423.18 244.451,47.2441 "/>
<polyline clip-path="url(#clip430)" style="stroke:#000000; stroke-linecap:round; stroke-linejoin:round; stroke-width:4; stroke-opacity:1; fill:none" points="244.451,1085.57 263.349,1085.57 "/>
<polyline clip-path="url(#clip430)" style="stroke:#000000; stroke-linecap:round; stroke-linejoin:round; stroke-width:4; stroke-opacity:1; fill:none" points="244.451,556.98 263.349,556.98 "/>
<path clip-path="url(#clip430)" d="M138.987 1105.37 L146.625 1105.37 L146.625 1079 L138.315 1080.67 L138.315 1076.41 L146.579 1074.74 L151.255 1074.74 L151.255 1105.37 L158.894 1105.37 L158.894 1109.3 L138.987 1109.3 L138.987 1105.37 Z" fill="#000000" fill-rule="nonzero" fill-opacity="1" /><path clip-path="url(#clip430)" d="M178.338 1077.82 Q174.727 1077.82 172.898 1081.38 Q171.093 1084.93 171.093 1092.05 Q171.093 1099.16 172.898 1102.73 Q174.727 1106.27 178.338 1106.27 Q181.972 1106.27 183.778 1102.73 Q185.607 1099.16 185.607 1092.05 Q185.607 1084.93 183.778 1081.38 Q181.972 1077.82 178.338 1077.82 M178.338 1074.12 Q184.148 1074.12 187.204 1078.72 Q190.283 1083.3 190.283 1092.05 Q190.283 1100.78 187.204 1105.39 Q184.148 1109.97 178.338 1109.97 Q172.528 1109.97 169.449 1105.39 Q166.394 1100.78 166.394 1092.05 Q166.394 1083.3 169.449 1078.72 Q172.528 1074.12 178.338 1074.12 Z" fill="#000000" fill-rule="nonzero" fill-opacity="1" /><path clip-path="url(#clip430)" d="M191.467 1053.81 L206.382 1053.81 L206.382 1057.01 L194.947 1057.01 L194.947 1063.89 Q195.774 1063.61 196.602 1063.48 Q197.43 1063.33 198.257 1063.33 Q202.959 1063.33 205.705 1065.9 Q208.451 1068.48 208.451 1072.88 Q208.451 1077.41 205.63 1079.93 Q202.809 1082.44 197.674 1082.44 Q195.906 1082.44 194.063 1082.13 Q192.239 1081.83 190.283 1081.23 L190.283 1077.41 Q191.975 1078.34 193.781 1078.79 Q195.586 1079.24 197.599 1079.24 Q200.853 1079.24 202.752 1077.53 Q204.652 1075.81 204.652 1072.88 Q204.652 1069.95 202.752 1068.24 Q200.853 1066.52 197.599 1066.52 Q196.075 1066.52 194.552 1066.86 Q193.047 1067.2 191.467 1067.92 L191.467 1053.81 Z" fill="#000000" fill-rule="nonzero" fill-opacity="1" /><path clip-path="url(#clip430)" d="M114.931 576.773 L122.57 576.773 L122.57 550.407 L114.26 552.074 L114.26 547.814 L122.524 546.148 L127.2 546.148 L127.2 576.773 L134.839 576.773 L134.839 580.708 L114.931 580.708 L114.931 576.773 Z" fill="#000000" fill-rule="nonzero" fill-opacity="1" /><path clip-path="url(#clip430)" d="M154.283 549.226 Q150.672 549.226 148.843 552.791 Q147.038 556.333 147.038 563.463 Q147.038 570.569 148.843 574.134 Q150.672 577.675 154.283 577.675 Q157.917 577.675 159.723 574.134 Q161.552 570.569 161.552 563.463 Q161.552 556.333 159.723 552.791 Q157.917 549.226 154.283 549.226 M154.283 545.523 Q160.093 545.523 163.149 550.129 Q166.227 554.713 166.227 563.463 Q166.227 572.189 163.149 576.796 Q160.093 581.379 154.283 581.379 Q148.473 581.379 145.394 576.796 Q142.339 572.189 142.339 563.463 Q142.339 554.713 145.394 550.129 Q148.473 545.523 154.283 545.523 Z" fill="#000000" fill-rule="nonzero" fill-opacity="1" /><path clip-path="url(#clip430)" d="M166.773 550.1 L172.979 550.1 L172.979 528.678 L166.227 530.032 L166.227 526.572 L172.942 525.217 L176.741 525.217 L176.741 550.1 L182.948 550.1 L182.948 553.297 L166.773 553.297 L166.773 550.1 Z" fill="#000000" fill-rule="nonzero" fill-opacity="1" /><path clip-path="url(#clip430)" d="M198.746 527.719 Q195.812 527.719 194.326 530.615 Q192.859 533.493 192.859 539.286 Q192.859 545.06 194.326 547.956 Q195.812 550.834 198.746 550.834 Q201.699 550.834 203.166 547.956 Q204.652 545.06 204.652 539.286 Q204.652 533.493 203.166 530.615 Q201.699 527.719 198.746 527.719 M198.746 524.71 Q203.467 524.71 205.949 528.452 Q208.451 532.176 208.451 539.286 Q208.451 546.376 205.949 550.119 Q203.467 553.843 198.746 553.843 Q194.025 553.843 191.524 550.119 Q189.041 546.376 189.041 539.286 Q189.041 532.176 191.524 528.452 Q194.025 524.71 198.746 524.71 Z" fill="#000000" fill-rule="nonzero" fill-opacity="1" /><path clip-path="url(#clip430)" d="M41.3104 1054.6 L58.7206 1054.6 L58.7206 1044.28 Q58.7206 1039.09 56.5881 1036.61 Q54.4238 1034.1 49.9996 1034.1 Q45.5436 1034.1 43.4429 1036.61 Q41.3104 1039.09 41.3104 1044.28 L41.3104 1054.6 M21.7677 1054.6 L36.0905 1054.6 L36.0905 1045.08 Q36.0905 1040.37 34.34 1038.08 Q32.5576 1035.75 28.9291 1035.75 Q25.3325 1035.75 23.5501 1038.08 Q21.7677 1040.37 21.7677 1045.08 L21.7677 1054.6 M16.4842 1061.02 L16.4842 1044.6 Q16.4842 1037.25 19.5397 1033.27 Q22.5952 1029.29 28.2289 1029.29 Q32.5894 1029.29 35.1675 1031.33 Q37.7456 1033.37 38.3822 1037.31 Q39.4007 1032.57 42.6472 1029.96 Q45.8619 1027.32 50.6998 1027.32 Q57.0655 1027.32 60.5348 1031.65 Q64.0042 1035.98 64.0042 1043.96 L64.0042 1061.02 L16.4842 1061.02 Z" fill="#000000" fill-rule="nonzero" fill-opacity="1" /><path clip-path="url(#clip430)" d="M44.7161 986.069 L47.5806 986.069 L47.5806 1013 Q53.6281 1012.61 56.8109 1009.37 Q59.9619 1006.09 59.9619 1000.26 Q59.9619 996.89 59.1344 993.739 Q58.3069 990.556 56.6518 987.437 L62.1899 987.437 Q63.5267 990.588 64.227 993.898 Q64.9272 997.209 64.9272 1000.61 Q64.9272 1009.14 59.9619 1014.14 Q54.9967 1019.11 46.5303 1019.11 Q37.7774 1019.11 32.6531 1014.4 Q27.4968 1009.65 27.4968 1001.63 Q27.4968 994.439 32.1438 990.27 Q36.7589 986.069 44.7161 986.069 M42.9973 991.925 Q38.1912 991.989 35.3266 994.63 Q32.4621 997.24 32.4621 1001.57 Q32.4621 1006.47 35.2312 1009.43 Q38.0002 1012.36 43.0292 1012.8 L42.9973 991.925 Z" fill="#000000" fill-rule="nonzero" fill-opacity="1" /><path clip-path="url(#clip430)" d="M29.4065 953.731 L34.9447 953.731 Q33.6716 956.213 33.035 958.887 Q32.3984 961.561 32.3984 964.425 Q32.3984 968.786 33.7352 970.982 Q35.072 973.146 37.7456 973.146 Q39.7826 973.146 40.9603 971.587 Q42.1061 970.027 43.1565 965.316 L43.6021 963.311 Q44.9389 957.073 47.3897 954.463 Q49.8086 951.821 54.1691 951.821 Q59.1344 951.821 62.0308 955.768 Q64.9272 959.683 64.9272 966.558 Q64.9272 969.422 64.3543 972.541 Q63.8132 975.629 62.6992 979.066 L56.6518 979.066 Q58.3387 975.82 59.198 972.669 Q60.0256 969.518 60.0256 966.43 Q60.0256 962.293 58.6251 960.065 Q57.1929 957.837 54.6147 957.837 Q52.2276 957.837 50.9545 959.46 Q49.6813 961.051 48.5037 966.494 L48.0262 968.531 Q46.8804 973.974 44.5251 976.393 Q42.138 978.812 38.0002 978.812 Q32.9713 978.812 30.2341 975.247 Q27.4968 971.682 27.4968 965.125 Q27.4968 961.879 27.9743 959.014 Q28.4517 956.15 29.4065 953.731 Z" fill="#000000" fill-rule="nonzero" fill-opacity="1" /><path clip-path="url(#clip430)" d="M18.2347 936.702 L28.3562 936.702 L28.3562 924.639 L32.9077 924.639 L32.9077 936.702 L52.2594 936.702 Q56.6199 936.702 57.8613 935.525 Q59.1026 934.315 59.1026 930.655 L59.1026 924.639 L64.0042 924.639 L64.0042 930.655 Q64.0042 937.435 61.4897 940.013 Q58.9434 942.591 52.2594 942.591 L32.9077 942.591 L32.9077 946.888 L28.3562 946.888 L28.3562 942.591 L18.2347 942.591 L18.2347 936.702 Z" fill="#000000" fill-rule="nonzero" fill-opacity="1" /><path clip-path="url(#clip430)" d="M32.4621 882.403 Q32.4621 887.114 36.1542 889.851 Q39.8145 892.588 46.212 892.588 Q52.6095 892.588 56.3017 889.883 Q59.9619 887.145 59.9619 882.403 Q59.9619 877.724 56.2698 874.987 Q52.5777 872.25 46.212 872.25 Q39.8781 872.25 36.186 874.987 Q32.4621 877.724 32.4621 882.403 M27.4968 882.403 Q27.4968 874.764 32.4621 870.404 Q37.4273 866.043 46.212 866.043 Q54.9649 866.043 59.9619 870.404 Q64.9272 874.764 64.9272 882.403 Q64.9272 890.074 59.9619 894.434 Q54.9649 898.763 46.212 898.763 Q37.4273 898.763 32.4621 894.434 Q27.4968 890.074 27.4968 882.403 Z" fill="#000000" fill-rule="nonzero" fill-opacity="1" /><path clip-path="url(#clip430)" d="M46.212 830.745 Q39.7508 830.745 36.0905 833.419 Q32.3984 836.061 32.3984 840.708 Q32.3984 845.355 36.0905 848.028 Q39.7508 850.67 46.212 850.67 Q52.6732 850.67 56.3653 848.028 Q60.0256 845.355 60.0256 840.708 Q60.0256 836.061 56.3653 833.419 Q52.6732 830.745 46.212 830.745 M33.7671 850.67 Q30.5842 848.824 29.0564 846.023 Q27.4968 843.19 27.4968 839.275 Q27.4968 832.782 32.6531 828.74 Q37.8093 824.666 46.212 824.666 Q54.6147 824.666 59.771 828.74 Q64.9272 832.782 64.9272 839.275 Q64.9272 843.19 63.3994 846.023 Q61.8398 848.824 58.657 850.67 L64.0042 850.67 L64.0042 856.558 L14.479 856.558 L14.479 850.67 L33.7671 850.67 Z" fill="#000000" fill-rule="nonzero" fill-opacity="1" /><path clip-path="url(#clip430)" d="M28.3562 814.958 L28.3562 809.102 L64.6407 809.102 Q71.452 809.102 74.5076 811.712 Q77.5631 814.29 77.5631 820.051 L77.5631 822.279 L72.5979 822.279 L72.5979 820.719 Q72.5979 817.377 71.0383 816.168 Q69.5105 814.958 64.6407 814.958 L28.3562 814.958 M14.479 814.958 L14.479 809.102 L21.895 809.102 L21.895 814.958 L14.479 814.958 Z" fill="#000000" fill-rule="nonzero" fill-opacity="1" /><path clip-path="url(#clip430)" d="M44.7161 766.356 L47.5806 766.356 L47.5806 793.283 Q53.6281 792.901 56.8109 789.655 Q59.9619 786.376 59.9619 780.552 Q59.9619 777.178 59.1344 774.027 Q58.3069 770.844 56.6518 767.725 L62.1899 767.725 Q63.5267 770.876 64.227 774.186 Q64.9272 777.496 64.9272 780.902 Q64.9272 789.432 59.9619 794.429 Q54.9967 799.394 46.5303 799.394 Q37.7774 799.394 32.6531 794.684 Q27.4968 789.941 27.4968 781.92 Q27.4968 774.727 32.1438 770.558 Q36.7589 766.356 44.7161 766.356 M42.9973 772.213 Q38.1912 772.276 35.3266 774.918 Q32.4621 777.528 32.4621 781.857 Q32.4621 786.758 35.2312 789.718 Q38.0002 792.647 43.0292 793.092 L42.9973 772.213 Z" fill="#000000" fill-rule="nonzero" fill-opacity="1" /><path clip-path="url(#clip430)" d="M29.7248 731.09 L35.1993 731.09 Q33.8307 733.573 33.1623 736.087 Q32.4621 738.57 32.4621 741.116 Q32.4621 746.813 36.0905 749.964 Q39.6872 753.116 46.212 753.116 Q52.7369 753.116 56.3653 749.964 Q59.9619 746.813 59.9619 741.116 Q59.9619 738.57 59.2935 736.087 Q58.5933 733.573 57.2247 731.09 L62.6355 731.09 Q63.7814 733.541 64.3543 736.183 Q64.9272 738.793 64.9272 741.753 Q64.9272 749.805 59.8664 754.548 Q54.8057 759.29 46.212 759.29 Q37.491 759.29 32.4939 754.516 Q27.4968 749.71 27.4968 741.371 Q27.4968 738.665 28.0697 736.087 Q28.6108 733.509 29.7248 731.09 Z" fill="#000000" fill-rule="nonzero" fill-opacity="1" /><path clip-path="url(#clip430)" d="M18.2347 715.112 L28.3562 715.112 L28.3562 703.049 L32.9077 703.049 L32.9077 715.112 L52.2594 715.112 Q56.6199 715.112 57.8613 713.935 Q59.1026 712.725 59.1026 709.065 L59.1026 703.049 L64.0042 703.049 L64.0042 709.065 Q64.0042 715.844 61.4897 718.422 Q58.9434 721.001 52.2594 721.001 L32.9077 721.001 L32.9077 725.297 L28.3562 725.297 L28.3562 721.001 L18.2347 721.001 L18.2347 715.112 Z" fill="#000000" fill-rule="nonzero" fill-opacity="1" /><path clip-path="url(#clip430)" d="M28.3562 695.347 L28.3562 689.49 L64.0042 689.49 L64.0042 695.347 L28.3562 695.347 M14.479 695.347 L14.479 689.49 L21.895 689.49 L21.895 695.347 L14.479 695.347 Z" fill="#000000" fill-rule="nonzero" fill-opacity="1" /><path clip-path="url(#clip430)" d="M28.3562 681.438 L28.3562 675.231 L58.275 664.091 L28.3562 652.951 L28.3562 646.745 L64.0042 660.113 L64.0042 668.07 L28.3562 681.438 Z" fill="#000000" fill-rule="nonzero" fill-opacity="1" /><path clip-path="url(#clip430)" d="M44.7161 608.168 L47.5806 608.168 L47.5806 635.095 Q53.6281 634.713 56.8109 631.467 Q59.9619 628.189 59.9619 622.364 Q59.9619 618.99 59.1344 615.839 Q58.3069 612.656 56.6518 609.537 L62.1899 609.537 Q63.5267 612.688 64.227 615.998 Q64.9272 619.308 64.9272 622.714 Q64.9272 631.244 59.9619 636.241 Q54.9967 641.206 46.5303 641.206 Q37.7774 641.206 32.6531 636.496 Q27.4968 631.753 27.4968 623.733 Q27.4968 616.539 32.1438 612.37 Q36.7589 608.168 44.7161 608.168 M42.9973 614.025 Q38.1912 614.088 35.3266 616.73 Q32.4621 619.34 32.4621 623.669 Q32.4621 628.57 35.2312 631.531 Q38.0002 634.459 43.0292 634.904 L42.9973 614.025 Z" fill="#000000" fill-rule="nonzero" fill-opacity="1" /><path clip-path="url(#clip430)" d="M28.3562 582.037 L28.3562 575.831 L58.275 564.691 L28.3562 553.551 L28.3562 547.344 L64.0042 560.712 L64.0042 568.669 L28.3562 582.037 Z" fill="#000000" fill-rule="nonzero" fill-opacity="1" /><path clip-path="url(#clip430)" d="M46.0847 523.059 Q46.0847 530.157 47.7079 532.894 Q49.3312 535.631 53.2461 535.631 Q56.3653 535.631 58.2114 533.594 Q60.0256 531.525 60.0256 527.992 Q60.0256 523.123 56.5881 520.194 Q53.1188 517.234 47.3897 517.234 L46.0847 517.234 L46.0847 523.059 M43.6657 511.378 L64.0042 511.378 L64.0042 517.234 L58.5933 517.234 Q61.8398 519.239 63.3994 522.231 Q64.9272 525.223 64.9272 529.552 Q64.9272 535.026 61.8716 538.273 Q58.7843 541.488 53.6281 541.488 Q47.6125 541.488 44.5569 537.477 Q41.5014 533.435 41.5014 525.446 L41.5014 517.234 L40.9285 517.234 Q36.8862 517.234 34.6901 519.908 Q32.4621 522.55 32.4621 527.356 Q32.4621 530.411 33.1941 533.308 Q33.9262 536.204 35.3903 538.878 L29.9795 538.878 Q28.7381 535.663 28.1334 532.639 Q27.4968 529.616 27.4968 526.751 Q27.4968 519.017 31.5072 515.197 Q35.5176 511.378 43.6657 511.378 Z" fill="#000000" fill-rule="nonzero" fill-opacity="1" /><path clip-path="url(#clip430)" d="M14.479 499.315 L14.479 493.458 L64.0042 493.458 L64.0042 499.315 L14.479 499.315 Z" fill="#000000" fill-rule="nonzero" fill-opacity="1" /><path clip-path="url(#clip430)" d="M49.9359 481.809 L28.3562 481.809 L28.3562 475.953 L49.7131 475.953 Q54.7739 475.953 57.3202 473.979 Q59.8346 472.006 59.8346 468.059 Q59.8346 463.317 56.8109 460.579 Q53.7872 457.81 48.5673 457.81 L28.3562 457.81 L28.3562 451.954 L64.0042 451.954 L64.0042 457.81 L58.5296 457.81 Q61.7762 459.943 63.3676 462.776 Q64.9272 465.577 64.9272 469.3 Q64.9272 475.443 61.1078 478.626 Q57.2883 481.809 49.9359 481.809 M27.4968 467.072 L27.4968 467.072 Z" fill="#000000" fill-rule="nonzero" fill-opacity="1" /><path clip-path="url(#clip430)" d="M44.7161 409.399 L47.5806 409.399 L47.5806 436.326 Q53.6281 435.944 56.8109 432.698 Q59.9619 429.419 59.9619 423.595 Q59.9619 420.221 59.1344 417.07 Q58.3069 413.887 56.6518 410.768 L62.1899 410.768 Q63.5267 413.919 64.227 417.229 Q64.9272 420.539 64.9272 423.945 Q64.9272 432.475 59.9619 437.472 Q54.9967 442.437 46.5303 442.437 Q37.7774 442.437 32.6531 437.727 Q27.4968 432.984 27.4968 424.963 Q27.4968 417.77 32.1438 413.601 Q36.7589 409.399 44.7161 409.399 M42.9973 415.256 Q38.1912 415.319 35.3266 417.961 Q32.4621 420.571 32.4621 424.9 Q32.4621 429.801 35.2312 432.761 Q38.0002 435.69 43.0292 436.135 L42.9973 415.256 Z" fill="#000000" fill-rule="nonzero" fill-opacity="1" /><polyline clip-path="url(#clip432)" style="stroke:#009af9; stroke-linecap:round; stroke-linejoin:round; stroke-width:8; stroke-opacity:0.7; fill:none" points="244.451,1094.01 268.684,1095.01 292.918,1140.81 317.151,1148.38 341.384,1193.85 365.618,1238.44 389.851,1280.65 414.085,1317.17 438.318,1343.51 462.551,1358.02 486.785,1363.11 511.018,1365.78 535.252,1366.11 559.485,1366.95 583.718,1367.76 607.952,1370.32 632.185,1373.7 656.419,1378.37 680.652,1380.3 704.885,1382.14 729.119,1382.92 753.352,1383.49 777.586,1383.66 801.819,1383.76 826.052,1383.86 850.286,1384.04 874.519,1384.22 898.752,1384.23 922.986,1384.24 947.219,1384.24 971.453,1384.24 995.686,1384.24 1019.92,1384.24 1044.15,1384.24 1068.39,1384.24 1092.62,1384.24 1116.85,1384.24 1141.09,1384.24 1165.32,1384.24 1189.55,1384.24 "/>
<polyline clip-path="url(#clip432)" style="stroke:#009af9; stroke-linecap:round; stroke-linejoin:round; stroke-width:8; stroke-opacity:0.7; fill:none" points="244.451,884.62 268.684,930.529 292.918,976.435 317.151,1021.99 341.384,1067.88 365.618,1113.71 389.851,1159.38 414.085,1204.59 438.318,1248.48 462.551,1288.98 486.785,1322.25 511.018,1344.35 535.252,1355.43 559.485,1359.53 583.718,1360.44 607.952,1360.71 632.185,1360.74 656.419,1360.81 680.652,1361.01 704.885,1361.53 729.119,1362.08 753.352,1362.1 777.586,1362.1 801.819,1362.1 826.052,1362.1 850.286,1362.1 874.519,1364.64 898.752,1370.2 922.986,1371.55 947.219,1372.19 971.453,1372.68 995.686,1372.69 1019.92,1374.84 1044.15,1376.59 1068.39,1380.51 1092.62,1381.17 1116.85,1382.04 1141.09,1383.17 1165.32,1383.74 1189.55,1383.85 1213.79,1383.87 1238.02,1383.9 1262.25,1383.91 1286.49,1383.91 1310.72,1383.94 1334.95,1384 1359.19,1384.1 1383.42,1384.17 1407.65,1384.21 1431.89,1384.23 1456.12,1384.23 1480.35,1384.23 1504.59,1384.23 1528.82,1384.24 1553.05,1384.24 1577.29,1384.24 1601.52,1384.24 1625.75,1384.24 1649.99,1384.24 1674.22,1384.24 1698.45,1384.24 1722.69,1384.24 1746.92,1384.24 1771.15,1384.24 "/>
<polyline clip-path="url(#clip432)" style="stroke:#009af9; stroke-linecap:round; stroke-linejoin:round; stroke-width:8; stroke-opacity:0.7; fill:none" points="244.451,702.816 268.684,748.766 292.918,794.667 317.151,840.589 341.384,886.487 365.618,932.398 389.851,978.293 414.085,1024.19 438.318,1070.06 462.551,1115.87 486.785,1161.51 511.018,1206.64 535.252,1250.36 559.485,1290.57 583.718,1323.4 607.952,1345.01 632.185,1355.7 656.419,1359.61 680.652,1360.58 704.885,1360.71 729.119,1360.72 753.352,1360.74 777.586,1360.79 801.819,1360.93 826.052,1361.24 850.286,1361.88 874.519,1363.93 898.752,1368.52 922.986,1368.53 947.219,1368.53 971.453,1368.53 995.686,1368.53 1019.92,1368.53 1044.15,1368.53 1068.39,1368.53 1092.62,1370.33 1116.85,1371.38 1141.09,1372.98 1165.32,1373.77 1189.55,1374.13 1213.79,1374.79 1238.02,1375.17 1262.25,1376.27 1286.49,1377.39 1310.72,1377.48 1334.95,1377.48 1359.19,1377.48 1383.42,1378.9 1407.65,1382.05 1431.89,1383.67 1456.12,1384.11 1480.35,1384.19 1504.59,1384.22 1528.82,1384.23 1553.05,1384.23 1577.29,1384.24 1601.52,1384.24 1625.75,1384.24 1649.99,1384.24 1674.22,1384.24 1698.45,1384.24 1722.69,1384.24 1746.92,1384.24 1771.15,1384.24 1795.39,1384.24 1819.62,1384.24 1843.85,1384.24 1868.09,1384.24 1892.32,1384.24 1916.55,1384.24 1940.79,1384.24 1965.02,1384.24 1989.26,1384.24 "/>
<polyline clip-path="url(#clip432)" style="stroke:#009af9; stroke-linecap:round; stroke-linejoin:round; stroke-width:8; stroke-opacity:0.7; fill:none" points="244.451,829.712 268.684,875.643 292.918,921.54 317.151,967.456 341.384,1013.35 365.618,1060.08 389.851,1105.91 414.085,1151.59 438.318,1196.89 462.551,1241.05 486.785,1282.32 511.018,1317.18 535.252,1341.45 559.485,1354.31 583.718,1359.45 607.952,1361.19 632.185,1362.43 656.419,1365.81 680.652,1372.12 704.885,1377.82 729.119,1380.11 753.352,1381.09 777.586,1382.43 801.819,1383.08 826.052,1383.71 850.286,1383.87 874.519,1384.19 898.752,1384.22 922.986,1384.23 947.219,1384.23 971.453,1384.24 995.686,1384.24 1019.92,1384.24 1044.15,1384.24 1068.39,1384.24 1092.62,1384.24 1116.85,1384.24 1141.09,1384.24 1165.32,1384.24 1189.55,1384.24 1213.79,1384.24 1238.02,1384.24 1262.25,1384.24 1286.49,1384.24 1310.72,1384.24 1334.95,1384.24 "/>
<polyline clip-path="url(#clip432)" style="stroke:#e26f46; stroke-linecap:round; stroke-linejoin:round; stroke-width:8; stroke-opacity:0.7; fill:none" points="244.451,757.759 268.684,803.68 292.918,849.592 317.151,895.469 341.384,941.378 365.618,987.286 389.851,1033.18 414.085,1079.06 438.318,1124.86 462.551,1170.43 486.785,1215.37 511.018,1258.61 535.252,1297.73 559.485,1328.58 583.718,1347.86 607.952,1356.86 632.185,1359.71 656.419,1360.31 680.652,1360.68 704.885,1360.73 729.119,1360.76 753.352,1360.86 777.586,1361.15 801.819,1361.97 826.052,1364.68 850.286,1366.35 874.519,1371.43 898.752,1374.45 922.986,1375.35 947.219,1376.02 971.453,1377.08 995.686,1377.91 1019.92,1378.56 1044.15,1379.39 1068.39,1379.53 1092.62,1379.66 1116.85,1379.79 1141.09,1379.85 1165.32,1379.87 1189.55,1379.89 1213.79,1379.89 1238.02,1379.89 1262.25,1379.9 1286.49,1379.9 1310.72,1379.9 1334.95,1379.9 1359.19,1379.9 1383.42,1379.9 1407.65,1379.9 1431.89,1379.9 1456.12,1379.9 1480.35,1379.9 1504.59,1379.9 1528.82,1379.9 1553.05,1379.9 1577.29,1379.9 "/>
<polyline clip-path="url(#clip432)" style="stroke:#3da44d; stroke-linecap:round; stroke-linejoin:round; stroke-width:8; stroke-opacity:0.7; fill:none" points="244.451,86.1857 268.684,107.319 292.918,150.227 317.151,185.732 341.384,231.654 365.618,277.573 389.851,323.488 414.085,369.406 438.318,415.319 462.551,461.238 486.785,507.151 511.018,553.066 535.252,598.979 559.485,644.893 583.718,690.806 607.952,736.719 632.185,782.632 656.419,828.545 680.652,874.457 704.885,920.37 729.119,966.281 753.352,1012.19 777.586,1058.08 801.819,1103.93 826.052,1149.66 850.286,1195.01 874.519,1239.32 898.752,1280.84 922.986,1316.05 947.219,1340.7 971.453,1353.83 995.686,1359.02 1019.92,1360.47 1044.15,1360.7 1068.39,1360.71 1092.62,1360.72 1116.85,1360.75 1141.09,1360.84 1165.32,1361.02 1189.55,1361.56 1213.79,1362.99 1238.02,1364.35 1262.25,1365.98 1286.49,1365.98 1310.72,1367.34 1334.95,1369.83 1359.19,1369.83 1383.42,1369.83 1407.65,1369.83 1431.89,1369.83 1456.12,1369.83 1480.35,1369.83 1504.59,1369.83 1528.82,1371.37 1553.05,1372.07 1577.29,1373.95 1601.52,1374.65 1625.75,1376.31 1649.99,1377.34 1674.22,1377.94 1698.45,1378.02 1722.69,1378.04 1746.92,1378.05 1771.15,1378.06 1795.39,1378.06 1819.62,1378.06 1843.85,1378.06 1868.09,1378.06 1892.32,1378.06 1916.55,1378.06 1940.79,1378.06 1965.02,1378.06 1989.26,1378.06 2013.49,1378.06 2037.72,1378.06 2061.96,1378.06 2086.19,1378.06 2110.42,1378.06 2134.66,1378.06 2158.89,1378.06 2183.12,1378.06 2207.36,1378.06 2231.59,1378.06 2255.82,1378.06 2280.06,1378.06 2304.29,1378.06 2328.52,1378.06 2352.76,1378.06 "/>
<polyline clip-path="url(#clip432)" style="stroke:#3da44d; stroke-linecap:round; stroke-linejoin:round; stroke-width:8; stroke-opacity:0.7; fill:none" points="244.451,377.172 268.684,423.116 292.918,465.259 317.151,511.185 341.384,557.097 365.618,603.016 389.851,648.929 414.085,694.844 438.318,740.756 462.551,786.67 486.785,832.582 511.018,878.494 535.252,924.406 559.485,970.315 583.718,1016.22 607.952,1062.1 632.185,1107.93 656.419,1153.61 680.652,1198.85 704.885,1242.91 729.119,1283.95 753.352,1318.4 777.586,1342.1 801.819,1354.46 826.052,1359.22 850.286,1360.51 874.519,1360.7 898.752,1360.71 922.986,1360.71 947.219,1360.73 971.453,1360.77 995.686,1360.87 1019.92,1361.1 1044.15,1361.8 1068.39,1362.89 1092.62,1367.57 1116.85,1367.8 1141.09,1369.7 1165.32,1374.08 1189.55,1375.08 1213.79,1375.85 1238.02,1376.76 1262.25,1377.7 1286.49,1377.95 1310.72,1378.01 1334.95,1378.03 1359.19,1378.05 1383.42,1378.06 1407.65,1378.06 1431.89,1378.06 1456.12,1378.06 1480.35,1378.06 1504.59,1378.06 1528.82,1378.06 1553.05,1378.06 1577.29,1378.06 1601.52,1378.06 1625.75,1378.06 1649.99,1378.06 1674.22,1378.06 1698.45,1378.06 1722.69,1378.06 1746.92,1378.06 1771.15,1378.06 1795.39,1378.06 1819.62,1378.06 1843.85,1378.06 "/>
<polyline clip-path="url(#clip432)" style="stroke:#3da44d; stroke-linecap:round; stroke-linejoin:round; stroke-width:8; stroke-opacity:0.7; fill:none" points="244.451,1007.79 268.684,1053.65 292.918,1099.49 317.151,1145.26 341.384,1190.72 365.618,1235.29 389.851,1277.44 414.085,1313.8 438.318,1339.71 462.551,1353.55 486.785,1358.95 511.018,1360.46 535.252,1360.69 559.485,1360.74 583.718,1360.82 607.952,1361.01 632.185,1361.56 656.419,1363.55 680.652,1366.45 704.885,1367.47 729.119,1372 753.352,1373.32 777.586,1374.89 801.819,1376.43 826.052,1377.08 850.286,1377.8 874.519,1378 898.752,1378.04 922.986,1378.05 947.219,1378.06 971.453,1378.06 995.686,1378.06 1019.92,1378.06 1044.15,1378.06 1068.39,1378.06 1092.62,1378.06 1116.85,1378.06 1141.09,1378.06 1165.32,1378.06 1189.55,1378.06 1213.79,1378.06 1238.02,1378.06 1262.25,1378.06 1286.49,1378.06 1310.72,1378.06 1334.95,1378.06 1359.19,1378.06 1383.42,1378.06 "/>
<polyline clip-path="url(#clip432)" style="stroke:#3da44d; stroke-linecap:round; stroke-linejoin:round; stroke-width:8; stroke-opacity:0.7; fill:none" points="244.451,208.013 268.684,229.153 292.918,275.11 317.151,310.088 341.384,356.009 365.618,401.925 389.851,447.839 414.085,493.755 438.318,539.668 462.551,585.583 486.785,631.496 511.018,677.409 535.252,723.322 559.485,769.235 583.718,815.148 607.952,861.061 632.185,906.973 656.419,952.884 680.652,998.791 704.885,1044.68 729.119,1090.54 753.352,1136.29 777.586,1181.75 801.819,1226.4 826.052,1268.91 850.286,1284.63 874.519,1318.94 898.752,1342.53 922.986,1355.02 947.219,1360.65 971.453,1363.77 995.686,1364.75 1019.92,1364.79 1044.15,1365 1068.39,1365 1092.62,1365.4 1116.85,1370.61 1141.09,1375.7 1165.32,1377.19 1189.55,1377.25 1213.79,1377.64 1238.02,1377.76 1262.25,1377.85 1286.49,1377.93 1310.72,1377.98 1334.95,1378.02 1359.19,1378.03 1383.42,1378.04 1407.65,1378.04 1431.89,1378.04 1456.12,1378.04 1480.35,1378.04 1504.59,1378.04 1528.82,1378.04 1553.05,1378.04 1577.29,1378.04 1601.52,1378.04 1625.75,1378.04 1649.99,1378.04 1674.22,1378.04 1698.45,1378.04 1722.69,1378.04 1746.92,1378.04 1771.15,1378.04 1795.39,1378.04 1819.62,1378.04 1843.85,1378.04 1868.09,1378.04 1892.32,1378.04 1916.55,1378.04 1940.79,1378.04 1965.02,1378.04 1989.26,1378.04 2013.49,1378.04 2037.72,1378.04 2061.96,1378.04 "/>
<polyline clip-path="url(#clip432)" style="stroke:#c271d2; stroke-linecap:round; stroke-linejoin:round; stroke-width:8; stroke-opacity:0.7; fill:none" points="244.451,334.885 268.684,380.914 292.918,413.736 317.151,459.67 341.384,505.605 365.618,551.529 389.851,597.454 414.085,643.372 438.318,689.29 462.551,735.204 486.785,781.118 511.018,827.03 535.252,872.942 559.485,918.852 583.718,964.761 607.952,1010.66 632.185,1056.55 656.419,1102.4 680.652,1148.1 704.885,1193.43 729.119,1237.7 753.352,1279.26 777.586,1314.74 801.819,1339.88 826.052,1353.46 850.286,1358.9 874.519,1360.45 898.752,1360.69 922.986,1360.71 947.219,1360.71 971.453,1360.72 995.686,1360.75 1019.92,1360.82 1044.15,1361.01 1068.39,1361.5 1092.62,1362.97 1116.85,1364.87 1141.09,1368.77 1165.32,1372.04 1189.55,1372.04 1213.79,1372.04 1238.02,1373.16 1262.25,1373.38 1286.49,1373.4 1310.72,1373.4 1334.95,1373.4 1359.19,1373.4 1383.42,1373.4 1407.65,1373.4 1431.89,1373.4 1456.12,1373.4 1480.35,1373.4 "/>
</svg>
