<?xml version="1.0" encoding="utf-8"?>
<svg xmlns="http://www.w3.org/2000/svg" xmlns:xlink="http://www.w3.org/1999/xlink" width="800" height="400" viewBox="0 0 3200 1600">
<defs>
  <clipPath id="clip910">
    <rect x="0" y="0" width="3200" height="1600"/>
  </clipPath>
</defs>
<path clip-path="url(#clip910)" d="M0 1600 L3200 1600 L3200 0 L0 0  Z" fill="#ffffff" fill-rule="evenodd" fill-opacity="1"/>
<defs>
  <clipPath id="clip911">
    <rect x="640" y="0" width="2241" height="1600"/>
  </clipPath>
</defs>
<path clip-path="url(#clip910)" d="M247.328 1396.46 L3152.76 1396.46 L3152.76 47.2441 L247.328 47.2441  Z" fill="#ffffff" fill-rule="evenodd" fill-opacity="1"/>
<defs>
  <clipPath id="clip912">
    <rect x="247" y="47" width="2906" height="1350"/>
  </clipPath>
</defs>
<polyline clip-path="url(#clip910)" style="stroke:#000000; stroke-linecap:round; stroke-linejoin:round; stroke-width:4; stroke-opacity:1; fill:none" points="247.328,1396.46 3152.76,1396.46 "/>
<polyline clip-path="url(#clip910)" style="stroke:#000000; stroke-linecap:round; stroke-linejoin:round; stroke-width:4; stroke-opacity:1; fill:none" points="247.328,47.2441 3152.76,47.2441 "/>
<polyline clip-path="url(#clip910)" style="stroke:#000000; stroke-linecap:round; stroke-linejoin:round; stroke-width:4; stroke-opacity:1; fill:none" points="955.416,1396.46 955.416,1377.56 "/>
<polyline clip-path="url(#clip910)" style="stroke:#000000; stroke-linecap:round; stroke-linejoin:round; stroke-width:4; stroke-opacity:1; fill:none" points="1668.34,1396.46 1668.34,1377.56 "/>
<polyline clip-path="url(#clip910)" style="stroke:#000000; stroke-linecap:round; stroke-linejoin:round; stroke-width:4; stroke-opacity:1; fill:none" points="2381.27,1396.46 2381.27,1377.56 "/>
<polyline clip-path="url(#clip910)" style="stroke:#000000; stroke-linecap:round; stroke-linejoin:round; stroke-width:4; stroke-opacity:1; fill:none" points="3094.19,1396.46 3094.19,1377.56 "/>
<polyline clip-path="url(#clip910)" style="stroke:#000000; stroke-linecap:round; stroke-linejoin:round; stroke-width:4; stroke-opacity:1; fill:none" points="955.416,47.2441 955.416,66.1417 "/>
<polyline clip-path="url(#clip910)" style="stroke:#000000; stroke-linecap:round; stroke-linejoin:round; stroke-width:4; stroke-opacity:1; fill:none" points="1668.34,47.2441 1668.34,66.1417 "/>
<polyline clip-path="url(#clip910)" style="stroke:#000000; stroke-linecap:round; stroke-linejoin:round; stroke-width:4; stroke-opacity:1; fill:none" points="2381.27,47.2441 2381.27,66.1417 "/>
<polyline clip-path="url(#clip910)" style="stroke:#000000; stroke-linecap:round; stroke-linejoin:round; stroke-width:4; stroke-opacity:1; fill:none" points="3094.19,47.2441 3094.19,66.1417 "/>
<path clip-path="url(#clip910)" d="M945.694 1430.7 L964.05 1430.7 L964.05 1434.63 L949.976 1434.63 L949.976 1443.1 Q950.994 1442.76 952.013 1442.59 Q953.031 1442.41 954.05 1442.41 Q959.837 1442.41 963.217 1445.58 Q966.596 1448.75 966.596 1454.17 Q966.596 1459.75 963.124 1462.85 Q959.652 1465.93 953.332 1465.93 Q951.156 1465.93 948.888 1465.56 Q946.643 1465.19 944.235 1464.45 L944.235 1459.75 Q946.319 1460.88 948.541 1461.44 Q950.763 1461.99 953.24 1461.99 Q957.244 1461.99 959.582 1459.89 Q961.92 1457.78 961.92 1454.17 Q961.92 1450.56 959.582 1448.45 Q957.244 1446.34 953.24 1446.34 Q951.365 1446.34 949.49 1446.76 Q947.638 1447.18 945.694 1448.06 L945.694 1430.7 Z" fill="#000000" fill-rule="nonzero" fill-opacity="1" /><path clip-path="url(#clip910)" d="M1643.03 1461.32 L1650.67 1461.32 L1650.67 1434.95 L1642.36 1436.62 L1642.36 1432.36 L1650.62 1430.7 L1655.3 1430.7 L1655.3 1461.32 L1662.94 1461.32 L1662.94 1465.26 L1643.03 1465.26 L1643.03 1461.32 Z" fill="#000000" fill-rule="nonzero" fill-opacity="1" /><path clip-path="url(#clip910)" d="M1682.38 1433.77 Q1678.77 1433.77 1676.94 1437.34 Q1675.14 1440.88 1675.14 1448.01 Q1675.14 1455.12 1676.94 1458.68 Q1678.77 1462.22 1682.38 1462.22 Q1686.02 1462.22 1687.82 1458.68 Q1689.65 1455.12 1689.65 1448.01 Q1689.65 1440.88 1687.82 1437.34 Q1686.02 1433.77 1682.38 1433.77 M1682.38 1430.07 Q1688.19 1430.07 1691.25 1434.68 Q1694.33 1439.26 1694.33 1448.01 Q1694.33 1456.74 1691.25 1461.34 Q1688.19 1465.93 1682.38 1465.93 Q1676.57 1465.93 1673.49 1461.34 Q1670.44 1456.74 1670.44 1448.01 Q1670.44 1439.26 1673.49 1434.68 Q1676.57 1430.07 1682.38 1430.07 Z" fill="#000000" fill-rule="nonzero" fill-opacity="1" /><path clip-path="url(#clip910)" d="M2356.45 1461.32 L2364.09 1461.32 L2364.09 1434.95 L2355.78 1436.62 L2355.78 1432.36 L2364.05 1430.7 L2368.72 1430.7 L2368.72 1461.32 L2376.36 1461.32 L2376.36 1465.26 L2356.45 1465.26 L2356.45 1461.32 Z" fill="#000000" fill-rule="nonzero" fill-opacity="1" /><path clip-path="url(#clip910)" d="M2385.85 1430.7 L2404.21 1430.7 L2404.21 1434.63 L2390.13 1434.63 L2390.13 1443.1 Q2391.15 1442.76 2392.17 1442.59 Q2393.19 1442.41 2394.21 1442.41 Q2399.99 1442.41 2403.37 1445.58 Q2406.75 1448.75 2406.75 1454.17 Q2406.75 1459.75 2403.28 1462.85 Q2399.81 1465.93 2393.49 1465.93 Q2391.31 1465.93 2389.05 1465.56 Q2386.8 1465.19 2384.39 1464.45 L2384.39 1459.75 Q2386.48 1460.88 2388.7 1461.44 Q2390.92 1461.99 2393.4 1461.99 Q2397.4 1461.99 2399.74 1459.89 Q2402.08 1457.78 2402.08 1454.17 Q2402.08 1450.56 2399.74 1448.45 Q2397.4 1446.34 2393.4 1446.34 Q2391.52 1446.34 2389.65 1446.76 Q2387.8 1447.18 2385.85 1448.06 L2385.85 1430.7 Z" fill="#000000" fill-rule="nonzero" fill-opacity="1" /><path clip-path="url(#clip910)" d="M3072.97 1461.32 L3089.29 1461.32 L3089.29 1465.26 L3067.34 1465.26 L3067.34 1461.32 Q3070 1458.57 3074.59 1453.94 Q3079.19 1449.28 3080.37 1447.94 Q3082.62 1445.42 3083.5 1443.68 Q3084.4 1441.92 3084.4 1440.23 Q3084.4 1437.48 3082.46 1435.74 Q3080.54 1434.01 3077.43 1434.01 Q3075.23 1434.01 3072.78 1434.77 Q3070.35 1435.53 3067.57 1437.08 L3067.57 1432.36 Q3070.4 1431.23 3072.85 1430.65 Q3075.3 1430.07 3077.34 1430.07 Q3082.71 1430.07 3085.91 1432.76 Q3089.1 1435.44 3089.1 1439.93 Q3089.1 1442.06 3088.29 1443.98 Q3087.5 1445.88 3085.4 1448.47 Q3084.82 1449.14 3081.72 1452.36 Q3078.61 1455.56 3072.97 1461.32 Z" fill="#000000" fill-rule="nonzero" fill-opacity="1" /><path clip-path="url(#clip910)" d="M3109.1 1433.77 Q3105.49 1433.77 3103.66 1437.34 Q3101.86 1440.88 3101.86 1448.01 Q3101.86 1455.12 3103.66 1458.68 Q3105.49 1462.22 3109.1 1462.22 Q3112.73 1462.22 3114.54 1458.68 Q3116.37 1455.12 3116.37 1448.01 Q3116.37 1440.88 3114.54 1437.34 Q3112.73 1433.77 3109.1 1433.77 M3109.1 1430.07 Q3114.91 1430.07 3117.97 1434.68 Q3121.04 1439.26 3121.04 1448.01 Q3121.04 1456.74 3117.97 1461.34 Q3114.91 1465.93 3109.1 1465.93 Q3103.29 1465.93 3100.21 1461.34 Q3097.16 1456.74 3097.16 1448.01 Q3097.16 1439.26 3100.21 1434.68 Q3103.29 1430.07 3109.1 1430.07 Z" fill="#000000" fill-rule="nonzero" fill-opacity="1" /><path clip-path="url(#clip910)" d="M1682.7 1517.67 L1688.9 1517.67 L1700.04 1547.59 L1711.18 1517.67 L1717.39 1517.67 L1704.02 1553.32 L1696.06 1553.32 L1682.7 1517.67 Z" fill="#000000" fill-rule="nonzero" fill-opacity="1" /><polyline clip-path="url(#clip910)" style="stroke:#000000; stroke-linecap:round; stroke-linejoin:round; stroke-width:4; stroke-opacity:1; fill:none" points="247.328,1396.46 247.328,47.2441 "/>
<polyline clip-path="url(#clip910)" style="stroke:#000000; stroke-linecap:round; stroke-linejoin:round; stroke-width:4; stroke-opacity:1; fill:none" points="3152.76,1396.46 3152.76,47.2441 "/>
<polyline clip-path="url(#clip910)" style="stroke:#000000; stroke-linecap:round; stroke-linejoin:round; stroke-width:4; stroke-opacity:1; fill:none" points="247.328,1148.43 266.225,1148.43 "/>
<polyline clip-path="url(#clip910)" style="stroke:#000000; stroke-linecap:round; stroke-linejoin:round; stroke-width:4; stroke-opacity:1; fill:none" points="247.328,898.162 266.225,898.162 "/>
<polyline clip-path="url(#clip910)" style="stroke:#000000; stroke-linecap:round; stroke-linejoin:round; stroke-width:4; stroke-opacity:1; fill:none" points="247.328,647.892 266.225,647.892 "/>
<polyline clip-path="url(#clip910)" style="stroke:#000000; stroke-linecap:round; stroke-linejoin:round; stroke-width:4; stroke-opacity:1; fill:none" points="247.328,397.622 266.225,397.622 "/>
<polyline clip-path="url(#clip910)" style="stroke:#000000; stroke-linecap:round; stroke-linejoin:round; stroke-width:4; stroke-opacity:1; fill:none" points="247.328,147.352 266.225,147.352 "/>
<polyline clip-path="url(#clip910)" style="stroke:#000000; stroke-linecap:round; stroke-linejoin:round; stroke-width:4; stroke-opacity:1; fill:none" points="3152.76,1148.43 3133.86,1148.43 "/>
<polyline clip-path="url(#clip910)" style="stroke:#000000; stroke-linecap:round; stroke-linejoin:round; stroke-width:4; stroke-opacity:1; fill:none" points="3152.76,898.162 3133.86,898.162 "/>
<polyline clip-path="url(#clip910)" style="stroke:#000000; stroke-linecap:round; stroke-linejoin:round; stroke-width:4; stroke-opacity:1; fill:none" points="3152.76,647.892 3133.86,647.892 "/>
<polyline clip-path="url(#clip910)" style="stroke:#000000; stroke-linecap:round; stroke-linejoin:round; stroke-width:4; stroke-opacity:1; fill:none" points="3152.76,397.622 3133.86,397.622 "/>
<polyline clip-path="url(#clip910)" style="stroke:#000000; stroke-linecap:round; stroke-linejoin:round; stroke-width:4; stroke-opacity:1; fill:none" points="3152.76,147.352 3133.86,147.352 "/>
<path clip-path="url(#clip910)" d="M178.425 1131.15 L196.781 1131.15 L196.781 1135.09 L182.707 1135.09 L182.707 1143.56 Q183.726 1143.21 184.744 1143.05 Q185.763 1142.87 186.781 1142.87 Q192.568 1142.87 195.948 1146.04 Q199.328 1149.21 199.328 1154.62 Q199.328 1160.2 195.855 1163.3 Q192.383 1166.38 186.064 1166.38 Q183.888 1166.38 181.619 1166.01 Q179.374 1165.64 176.967 1164.9 L176.967 1160.2 Q179.05 1161.34 181.272 1161.89 Q183.494 1162.45 185.971 1162.45 Q189.976 1162.45 192.314 1160.34 Q194.652 1158.24 194.652 1154.62 Q194.652 1151.01 192.314 1148.91 Q189.976 1146.8 185.971 1146.8 Q184.096 1146.8 182.221 1147.22 Q180.369 1147.63 178.425 1148.51 L178.425 1131.15 Z" fill="#000000" fill-rule="nonzero" fill-opacity="1" /><path clip-path="url(#clip910)" d="M148.032 911.507 L155.67 911.507 L155.67 885.141 L147.36 886.808 L147.36 882.549 L155.624 880.882 L160.3 880.882 L160.3 911.507 L167.939 911.507 L167.939 915.442 L148.032 915.442 L148.032 911.507 Z" fill="#000000" fill-rule="nonzero" fill-opacity="1" /><path clip-path="url(#clip910)" d="M187.383 883.961 Q183.772 883.961 181.944 887.526 Q180.138 891.067 180.138 898.197 Q180.138 905.303 181.944 908.868 Q183.772 912.41 187.383 912.41 Q191.018 912.41 192.823 908.868 Q194.652 905.303 194.652 898.197 Q194.652 891.067 192.823 887.526 Q191.018 883.961 187.383 883.961 M187.383 880.257 Q193.193 880.257 196.249 884.864 Q199.328 889.447 199.328 898.197 Q199.328 906.924 196.249 911.53 Q193.193 916.114 187.383 916.114 Q181.573 916.114 178.494 911.53 Q175.439 906.924 175.439 898.197 Q175.439 889.447 178.494 884.864 Q181.573 880.257 187.383 880.257 Z" fill="#000000" fill-rule="nonzero" fill-opacity="1" /><path clip-path="url(#clip910)" d="M149.027 661.237 L156.666 661.237 L156.666 634.871 L148.356 636.538 L148.356 632.279 L156.62 630.612 L161.295 630.612 L161.295 661.237 L168.934 661.237 L168.934 665.172 L149.027 665.172 L149.027 661.237 Z" fill="#000000" fill-rule="nonzero" fill-opacity="1" /><path clip-path="url(#clip910)" d="M178.425 630.612 L196.781 630.612 L196.781 634.547 L182.707 634.547 L182.707 643.02 Q183.726 642.672 184.744 642.51 Q185.763 642.325 186.781 642.325 Q192.568 642.325 195.948 645.496 Q199.328 648.668 199.328 654.084 Q199.328 659.663 195.855 662.765 Q192.383 665.843 186.064 665.843 Q183.888 665.843 181.619 665.473 Q179.374 665.103 176.967 664.362 L176.967 659.663 Q179.05 660.797 181.272 661.353 Q183.494 661.908 185.971 661.908 Q189.976 661.908 192.314 659.802 Q194.652 657.695 194.652 654.084 Q194.652 650.473 192.314 648.367 Q189.976 646.26 185.971 646.26 Q184.096 646.26 182.221 646.677 Q180.369 647.094 178.425 647.973 L178.425 630.612 Z" fill="#000000" fill-rule="nonzero" fill-opacity="1" /><path clip-path="url(#clip910)" d="M151.249 410.967 L167.569 410.967 L167.569 414.902 L145.624 414.902 L145.624 410.967 Q148.286 408.212 152.87 403.583 Q157.476 398.93 158.657 397.587 Q160.902 395.064 161.782 393.328 Q162.684 391.569 162.684 389.879 Q162.684 387.125 160.74 385.388 Q158.819 383.652 155.717 383.652 Q153.518 383.652 151.064 384.416 Q148.633 385.18 145.856 386.731 L145.856 382.009 Q148.68 380.875 151.133 380.296 Q153.587 379.717 155.624 379.717 Q160.995 379.717 164.189 382.402 Q167.383 385.087 167.383 389.578 Q167.383 391.708 166.573 393.629 Q165.786 395.527 163.68 398.12 Q163.101 398.791 159.999 402.009 Q156.897 405.203 151.249 410.967 Z" fill="#000000" fill-rule="nonzero" fill-opacity="1" /><path clip-path="url(#clip910)" d="M187.383 383.421 Q183.772 383.421 181.944 386.986 Q180.138 390.527 180.138 397.657 Q180.138 404.763 181.944 408.328 Q183.772 411.87 187.383 411.87 Q191.018 411.87 192.823 408.328 Q194.652 404.763 194.652 397.657 Q194.652 390.527 192.823 386.986 Q191.018 383.421 187.383 383.421 M187.383 379.717 Q193.193 379.717 196.249 384.324 Q199.328 388.907 199.328 397.657 Q199.328 406.384 196.249 410.99 Q193.193 415.573 187.383 415.573 Q181.573 415.573 178.494 410.99 Q175.439 406.384 175.439 397.657 Q175.439 388.907 178.494 384.324 Q181.573 379.717 187.383 379.717 Z" fill="#000000" fill-rule="nonzero" fill-opacity="1" /><path clip-path="url(#clip910)" d="M152.245 160.697 L168.564 160.697 L168.564 164.632 L146.62 164.632 L146.62 160.697 Q149.282 157.942 153.865 153.313 Q158.471 148.66 159.652 147.317 Q161.897 144.794 162.777 143.058 Q163.68 141.299 163.68 139.609 Q163.68 136.854 161.735 135.118 Q159.814 133.382 156.712 133.382 Q154.513 133.382 152.059 134.146 Q149.629 134.91 146.851 136.461 L146.851 131.739 Q149.675 130.605 152.129 130.026 Q154.583 129.447 156.62 129.447 Q161.99 129.447 165.184 132.132 Q168.379 134.817 168.379 139.308 Q168.379 141.438 167.569 143.359 Q166.782 145.257 164.675 147.85 Q164.096 148.521 160.995 151.739 Q157.893 154.933 152.245 160.697 Z" fill="#000000" fill-rule="nonzero" fill-opacity="1" /><path clip-path="url(#clip910)" d="M178.425 130.072 L196.781 130.072 L196.781 134.007 L182.707 134.007 L182.707 142.479 Q183.726 142.132 184.744 141.97 Q185.763 141.785 186.781 141.785 Q192.568 141.785 195.948 144.956 Q199.328 148.128 199.328 153.544 Q199.328 159.123 195.855 162.225 Q192.383 165.303 186.064 165.303 Q183.888 165.303 181.619 164.933 Q179.374 164.563 176.967 163.822 L176.967 159.123 Q179.05 160.257 181.272 160.813 Q183.494 161.368 185.971 161.368 Q189.976 161.368 192.314 159.262 Q194.652 157.155 194.652 153.544 Q194.652 149.933 192.314 147.827 Q189.976 145.72 185.971 145.72 Q184.096 145.72 182.221 146.137 Q180.369 146.554 178.425 147.433 L178.425 130.072 Z" fill="#000000" fill-rule="nonzero" fill-opacity="1" /><path clip-path="url(#clip910)" d="M35.8483 740.708 L35.8483 734.279 L55.9321 734.279 L35.8483 712.954 L35.8483 704.678 L58.0009 728.263 L83.3683 702.992 L83.3683 711.458 L60.4835 734.279 L83.3683 734.279 L83.3683 740.708 L35.8483 740.708 Z" fill="#000000" fill-rule="nonzero" fill-opacity="1" /><polyline clip-path="url(#clip912)" style="stroke:#009af9; stroke-linecap:round; stroke-linejoin:round; stroke-width:24; stroke-opacity:1; fill:none" points="247.328,1396.46 257.931,1391.53 268.534,1386.61 279.138,1381.68 289.741,1376.76 300.344,1371.84 310.948,1366.91 321.551,1361.99 332.154,1357.06 342.758,1352.14 353.361,1347.22 363.964,1342.29 374.567,1337.37 385.171,1332.44 395.774,1327.52 406.377,1322.6 416.981,1317.67 427.584,1312.75 438.187,1307.83 448.791,1302.9 459.394,1297.98 469.997,1293.05 480.601,1288.13 491.204,1283.21 501.807,1278.28 512.411,1273.36 523.014,1268.43 533.617,1263.51 544.22,1258.59 554.824,1253.66 565.427,1248.74 576.03,1243.81 586.634,1238.89 597.237,1233.97 607.84,1229.04 618.444,1224.12 629.047,1219.19 639.65,1214.27 650.254,1209.35 660.857,1204.42 671.46,1199.5 682.064,1194.57 692.667,1189.65 703.27,1184.73 713.874,1179.8 724.477,1174.88 735.08,1169.96 745.683,1165.03 756.287,1160.11 766.89,1155.18 777.493,1150.26 788.097,1145.34 798.7,1140.41 809.303,1135.49 819.907,1130.56 830.51,1125.64 841.113,1120.72 851.717,1115.79 862.32,1110.87 872.923,1105.94 883.527,1101.02 894.13,1096.1 904.733,1091.17 915.337,1086.25 925.94,1081.32 936.543,1076.4 947.146,1071.48 957.75,1066.55 968.353,1061.63 978.956,1056.7 989.56,1051.78 1000.16,1046.86 1010.77,1041.93 1021.37,1037.01 1031.97,1032.09 1042.58,1027.16 1053.18,1022.24 1063.78,1017.31 1074.39,1012.39 1084.99,1007.47 1095.59,1002.54 1106.2,997.618 1116.8,992.694 1127.4,987.77 1138.01,982.846 1148.61,977.922 1159.21,972.998 1169.82,968.074 1180.42,963.15 1191.02,958.226 1201.63,953.302 1212.23,948.378 1222.83,943.454 1233.44,938.531 1244.04,933.607 1254.64,928.683 1265.25,923.759 1275.85,918.835 1286.45,913.911 1297.06,908.987 1307.66,904.063 1318.26,899.139 1328.87,894.215 1339.47,889.291 1350.07,884.367 1360.68,879.443 1371.28,874.519 1381.88,869.596 1392.49,864.672 1403.09,859.748 1413.69,854.824 1424.3,849.9 1434.9,844.976 1445.5,840.052 1456.11,835.128 1466.71,830.204 1477.31,825.28 1487.92,820.356 1498.52,815.432 1509.12,810.508 1519.73,805.585 1530.33,800.661 1540.93,795.737 1551.54,790.813 1562.14,785.889 1572.74,780.965 1583.35,776.041 1593.95,771.117 1604.55,766.193 1615.16,761.269 1625.76,756.345 1636.36,751.421 1646.97,746.497 1657.57,741.573 1668.17,736.65 1678.78,731.726 1689.38,726.802 1699.98,721.878 1710.59,716.954 1721.19,712.03 1731.79,707.106 1742.4,702.182 1753,697.258 1763.6,692.334 1774.21,687.41 1784.81,682.486 1795.41,677.562 1806.02,672.638 1816.62,667.715 1827.22,662.791 1837.82,657.867 1845.46,654.32 1850.69,651.893 1854.27,650.231 1856.65,649.123 1858.24,648.385 1859.3,647.892 1860.36,647.4 1861.96,646.661 1864.34,645.553 1867.92,643.891 1873.15,641.464 1880.78,637.918 1891.39,632.994 1901.99,628.07 1912.59,623.146 1923.2,618.222 1933.8,613.298 1944.4,608.374 1955.01,603.45 1965.61,598.526 1976.21,593.602 1986.82,588.678 1997.42,583.754 2008.02,578.831 2018.63,573.907 2029.23,568.983 2039.83,564.059 2050.44,559.135 2061.04,554.211 2071.64,549.287 2082.25,544.363 2092.85,539.439 2103.45,534.515 2114.06,529.591 2124.66,524.667 2135.26,519.743 2145.87,514.819 2156.47,509.896 2167.07,504.972 2177.68,500.048 2188.28,495.124 2198.88,490.2 2209.49,485.276 2220.09,480.352 2230.69,475.428 2241.3,470.504 2251.9,465.58 2262.5,460.656 2273.11,455.732 2283.71,450.808 2294.31,445.885 2304.92,440.961 2315.52,436.037 2326.12,431.113 2336.73,426.189 2347.33,421.265 2357.93,416.341 2368.54,411.417 2379.14,406.493 2389.74,401.569 2400.35,396.645 2410.95,391.721 2421.55,386.797 2432.16,381.873 2442.76,376.95 2453.36,372.026 2463.97,367.102 2474.57,362.178 2485.17,357.254 2495.78,352.33 2506.38,347.406 2516.98,342.482 2527.59,337.558 2538.19,332.634 2548.79,327.71 2559.4,322.786 2570,317.862 2580.6,312.938 2591.21,308.015 2601.81,303.091 2612.41,298.167 2623.02,293.243 2633.62,288.319 2644.22,283.395 2654.83,278.471 2665.43,273.547 2676.03,268.623 2686.64,263.699 2697.24,258.775 2707.84,253.851 2718.45,248.927 2729.05,244.004 2739.65,239.08 2750.26,234.156 2760.86,229.232 2771.46,224.308 2782.07,219.384 2792.67,214.46 2803.27,209.536 2813.88,204.612 2824.48,199.688 2835.08,194.764 2845.69,189.84 2856.29,184.916 2866.89,179.992 2877.5,175.069 2888.1,170.145 2898.7,165.221 2909.31,160.297 2919.91,155.373 2930.51,150.449 2941.12,145.525 2951.72,140.601 2962.32,135.677 2972.93,130.753 2983.53,125.829 2994.13,120.905 3004.74,115.981 3015.34,111.057 3025.94,106.134 3036.55,101.21 3047.15,96.2857 3057.75,91.3618 3068.36,86.4378 3078.96,81.5139 3089.56,76.59 3100.17,71.6661 3110.77,66.7421 3121.37,61.8182 3131.97,56.8943 3142.58,51.9703 3152.76,47.2441 "/>
<path clip-path="url(#clip910)" d="M344.175 195.898 L1006.92 195.898 L1006.92 92.2178 L344.175 92.2178  Z" fill="#ffffff" fill-rule="evenodd" fill-opacity="1"/>
<polyline clip-path="url(#clip910)" style="stroke:#000000; stroke-linecap:round; stroke-linejoin:round; stroke-width:4; stroke-opacity:1; fill:none" points="344.175,195.898 1006.92,195.898 1006.92,92.2178 344.175,92.2178 344.175,195.898 "/>
<polyline clip-path="url(#clip910)" style="stroke:#009af9; stroke-linecap:round; stroke-linejoin:round; stroke-width:20; stroke-opacity:1; fill:none" points="376.458,144.058 570.153,144.058 "/>
<path clip-path="url(#clip910)" d="M602.436 126.778 L607.111 126.778 L607.111 140.944 L624.102 140.944 L624.102 126.778 L628.778 126.778 L628.778 161.338 L624.102 161.338 L624.102 144.88 L607.111 144.88 L607.111 161.338 L602.436 161.338 L602.436 126.778 Z" fill="#000000" fill-rule="nonzero" fill-opacity="1" /><path clip-path="url(#clip910)" d="M647.945 138.398 Q644.519 138.398 642.528 141.083 Q640.537 143.745 640.537 148.398 Q640.537 153.051 642.505 155.736 Q644.496 158.398 647.945 158.398 Q651.347 158.398 653.338 155.713 Q655.329 153.028 655.329 148.398 Q655.329 143.792 653.338 141.106 Q651.347 138.398 647.945 138.398 M647.945 134.787 Q653.5 134.787 656.671 138.398 Q659.843 142.009 659.843 148.398 Q659.843 154.764 656.671 158.398 Q653.5 162.009 647.945 162.009 Q642.366 162.009 639.195 158.398 Q636.046 154.764 636.046 148.398 Q636.046 142.009 639.195 138.398 Q642.366 134.787 647.945 134.787 Z" fill="#000000" fill-rule="nonzero" fill-opacity="1" /><path clip-path="url(#clip910)" d="M671.023 157.449 L671.023 171.199 L666.741 171.199 L666.741 135.412 L671.023 135.412 L671.023 139.347 Q672.366 137.032 674.403 135.921 Q676.463 134.787 679.31 134.787 Q684.032 134.787 686.972 138.537 Q689.935 142.287 689.935 148.398 Q689.935 154.509 686.972 158.259 Q684.032 162.009 679.31 162.009 Q676.463 162.009 674.403 160.898 Q672.366 159.764 671.023 157.449 M685.514 148.398 Q685.514 143.699 683.569 141.037 Q681.648 138.352 678.268 138.352 Q674.889 138.352 672.944 141.037 Q671.023 143.699 671.023 148.398 Q671.023 153.097 672.944 155.782 Q674.889 158.444 678.268 158.444 Q681.648 158.444 683.569 155.782 Q685.514 153.097 685.514 148.398 Z" fill="#000000" fill-rule="nonzero" fill-opacity="1" /><path clip-path="url(#clip910)" d="M710.12 125.319 L710.12 128.861 L706.046 128.861 Q703.754 128.861 702.852 129.787 Q701.972 130.713 701.972 133.12 L701.972 135.412 L708.986 135.412 L708.986 138.722 L701.972 138.722 L701.972 161.338 L697.69 161.338 L697.69 138.722 L693.616 138.722 L693.616 135.412 L697.69 135.412 L697.69 133.606 Q697.69 129.278 699.704 127.31 Q701.717 125.319 706.092 125.319 L710.12 125.319 Z" fill="#000000" fill-rule="nonzero" fill-opacity="1" /><path clip-path="url(#clip910)" d="M747.365 148.398 Q747.365 143.699 745.421 141.037 Q743.5 138.352 740.12 138.352 Q736.74 138.352 734.796 141.037 Q732.875 143.699 732.875 148.398 Q732.875 153.097 734.796 155.782 Q736.74 158.444 740.12 158.444 Q743.5 158.444 745.421 155.782 Q747.365 153.097 747.365 148.398 M732.875 139.347 Q734.217 137.032 736.254 135.921 Q738.314 134.787 741.162 134.787 Q745.884 134.787 748.824 138.537 Q751.787 142.287 751.787 148.398 Q751.787 154.509 748.824 158.259 Q745.884 162.009 741.162 162.009 Q738.314 162.009 736.254 160.898 Q734.217 159.764 732.875 157.449 L732.875 161.338 L728.592 161.338 L728.592 125.319 L732.875 125.319 L732.875 139.347 Z" fill="#000000" fill-rule="nonzero" fill-opacity="1" /><path clip-path="url(#clip910)" d="M758.847 135.412 L763.106 135.412 L763.106 161.338 L758.847 161.338 L758.847 135.412 M758.847 125.319 L763.106 125.319 L763.106 130.713 L758.847 130.713 L758.847 125.319 Z" fill="#000000" fill-rule="nonzero" fill-opacity="1" /><path clip-path="url(#clip910)" d="M785.143 125.319 L785.143 128.861 L781.069 128.861 Q778.777 128.861 777.874 129.787 Q776.995 130.713 776.995 133.12 L776.995 135.412 L784.009 135.412 L784.009 138.722 L776.995 138.722 L776.995 161.338 L772.712 161.338 L772.712 138.722 L768.638 138.722 L768.638 135.412 L772.712 135.412 L772.712 133.606 Q772.712 129.278 774.726 127.31 Q776.74 125.319 781.115 125.319 L785.143 125.319 Z" fill="#000000" fill-rule="nonzero" fill-opacity="1" /><path clip-path="url(#clip910)" d="M788.268 151.106 L788.268 135.412 L792.527 135.412 L792.527 150.944 Q792.527 154.625 793.962 156.477 Q795.397 158.305 798.268 158.305 Q801.717 158.305 803.708 156.106 Q805.722 153.907 805.722 150.111 L805.722 135.412 L809.981 135.412 L809.981 161.338 L805.722 161.338 L805.722 157.356 Q804.171 159.717 802.11 160.875 Q800.073 162.009 797.365 162.009 Q792.898 162.009 790.583 159.231 Q788.268 156.454 788.268 151.106 M798.985 134.787 L798.985 134.787 Z" fill="#000000" fill-rule="nonzero" fill-opacity="1" /><path clip-path="url(#clip910)" d="M833.777 139.393 Q833.059 138.977 832.203 138.792 Q831.37 138.583 830.351 138.583 Q826.74 138.583 824.795 140.944 Q822.874 143.282 822.874 147.68 L822.874 161.338 L818.592 161.338 L818.592 135.412 L822.874 135.412 L822.874 139.44 Q824.217 137.079 826.37 135.944 Q828.522 134.787 831.601 134.787 Q832.041 134.787 832.573 134.856 Q833.106 134.903 833.754 135.019 L833.777 139.393 Z" fill="#000000" fill-rule="nonzero" fill-opacity="1" /><path clip-path="url(#clip910)" d="M855.86 136.407 L855.86 140.389 Q854.055 139.393 852.226 138.907 Q850.42 138.398 848.569 138.398 Q844.425 138.398 842.133 141.037 Q839.842 143.653 839.842 148.398 Q839.842 153.143 842.133 155.782 Q844.425 158.398 848.569 158.398 Q850.42 158.398 852.226 157.912 Q854.055 157.403 855.86 156.407 L855.86 160.342 Q854.078 161.176 852.156 161.592 Q850.258 162.009 848.106 162.009 Q842.249 162.009 838.8 158.329 Q835.351 154.648 835.351 148.398 Q835.351 142.056 838.823 138.421 Q842.319 134.787 848.383 134.787 Q850.351 134.787 852.226 135.204 Q854.101 135.597 855.86 136.407 Z" fill="#000000" fill-rule="nonzero" fill-opacity="1" /><path clip-path="url(#clip910)" d="M875.05 148.305 Q869.888 148.305 867.897 149.486 Q865.906 150.667 865.906 153.514 Q865.906 155.782 867.388 157.125 Q868.892 158.444 871.462 158.444 Q875.004 158.444 877.133 155.944 Q879.286 153.421 879.286 149.255 L879.286 148.305 L875.05 148.305 M883.545 146.546 L883.545 161.338 L879.286 161.338 L879.286 157.403 Q877.828 159.764 875.652 160.898 Q873.476 162.009 870.328 162.009 Q866.346 162.009 863.985 159.787 Q861.647 157.542 861.647 153.792 Q861.647 149.417 864.564 147.194 Q867.504 144.972 873.314 144.972 L879.286 144.972 L879.286 144.555 Q879.286 141.616 877.341 140.018 Q875.42 138.398 871.925 138.398 Q869.703 138.398 867.596 138.931 Q865.49 139.463 863.545 140.528 L863.545 136.593 Q865.883 135.69 868.082 135.25 Q870.281 134.787 872.365 134.787 Q877.99 134.787 880.767 137.704 Q883.545 140.62 883.545 146.546 Z" fill="#000000" fill-rule="nonzero" fill-opacity="1" /><path clip-path="url(#clip910)" d="M896.531 128.051 L896.531 135.412 L905.304 135.412 L905.304 138.722 L896.531 138.722 L896.531 152.796 Q896.531 155.967 897.388 156.87 Q898.267 157.773 900.929 157.773 L905.304 157.773 L905.304 161.338 L900.929 161.338 Q895.999 161.338 894.124 159.509 Q892.249 157.657 892.249 152.796 L892.249 138.722 L889.124 138.722 L889.124 135.412 L892.249 135.412 L892.249 128.051 L896.531 128.051 Z" fill="#000000" fill-rule="nonzero" fill-opacity="1" /><path clip-path="url(#clip910)" d="M910.906 135.412 L915.165 135.412 L915.165 161.338 L910.906 161.338 L910.906 135.412 M910.906 125.319 L915.165 125.319 L915.165 130.713 L910.906 130.713 L910.906 125.319 Z" fill="#000000" fill-rule="nonzero" fill-opacity="1" /><path clip-path="url(#clip910)" d="M934.124 138.398 Q930.698 138.398 928.707 141.083 Q926.716 143.745 926.716 148.398 Q926.716 153.051 928.684 155.736 Q930.675 158.398 934.124 158.398 Q937.526 158.398 939.517 155.713 Q941.508 153.028 941.508 148.398 Q941.508 143.792 939.517 141.106 Q937.526 138.398 934.124 138.398 M934.124 134.787 Q939.679 134.787 942.85 138.398 Q946.022 142.009 946.022 148.398 Q946.022 154.764 942.85 158.398 Q939.679 162.009 934.124 162.009 Q928.545 162.009 925.374 158.398 Q922.226 154.764 922.226 148.398 Q922.226 142.009 925.374 138.398 Q928.545 134.787 934.124 134.787 Z" fill="#000000" fill-rule="nonzero" fill-opacity="1" /><path clip-path="url(#clip910)" d="M974.633 145.69 L974.633 161.338 L970.373 161.338 L970.373 145.829 Q970.373 142.148 968.938 140.319 Q967.503 138.491 964.633 138.491 Q961.184 138.491 959.193 140.69 Q957.202 142.889 957.202 146.685 L957.202 161.338 L952.92 161.338 L952.92 135.412 L957.202 135.412 L957.202 139.44 Q958.73 137.102 960.79 135.944 Q962.873 134.787 965.582 134.787 Q970.049 134.787 972.341 137.565 Q974.633 140.319 974.633 145.69 Z" fill="#000000" fill-rule="nonzero" fill-opacity="1" /></svg>
