<?xml version="1.0" encoding="utf-8"?>
<svg xmlns="http://www.w3.org/2000/svg" xmlns:xlink="http://www.w3.org/1999/xlink" width="800" height="400" viewBox="0 0 3200 1600">
<defs>
  <clipPath id="clip160">
    <rect x="0" y="0" width="3200" height="1600"/>
  </clipPath>
</defs>
<path clip-path="url(#clip160)" d="M0 1600 L3200 1600 L3200 0 L0 0  Z" fill="#ffffff" fill-rule="evenodd" fill-opacity="1"/>
<defs>
  <clipPath id="clip161">
    <rect x="640" y="0" width="2241" height="1600"/>
  </clipPath>
</defs>
<path clip-path="url(#clip160)" d="M177.121 1443.7 L3152.76 1443.7 L3152.76 47.2441 L177.121 47.2441  Z" fill="#ffffff" fill-rule="evenodd" fill-opacity="1"/>
<defs>
  <clipPath id="clip162">
    <rect x="177" y="47" width="2977" height="1397"/>
  </clipPath>
</defs>
<polyline clip-path="url(#clip162)" style="stroke:#000000; stroke-linecap:round; stroke-linejoin:round; stroke-width:2; stroke-opacity:0.1; fill:none" points="177.121,1443.7 177.121,47.2441 "/>
<polyline clip-path="url(#clip162)" style="stroke:#000000; stroke-linecap:round; stroke-linejoin:round; stroke-width:2; stroke-opacity:0.1; fill:none" points="772.248,1443.7 772.248,47.2441 "/>
<polyline clip-path="url(#clip162)" style="stroke:#000000; stroke-linecap:round; stroke-linejoin:round; stroke-width:2; stroke-opacity:0.1; fill:none" points="1367.38,1443.7 1367.38,47.2441 "/>
<polyline clip-path="url(#clip162)" style="stroke:#000000; stroke-linecap:round; stroke-linejoin:round; stroke-width:2; stroke-opacity:0.1; fill:none" points="1962.5,1443.7 1962.5,47.2441 "/>
<polyline clip-path="url(#clip162)" style="stroke:#000000; stroke-linecap:round; stroke-linejoin:round; stroke-width:2; stroke-opacity:0.1; fill:none" points="2557.63,1443.7 2557.63,47.2441 "/>
<polyline clip-path="url(#clip162)" style="stroke:#000000; stroke-linecap:round; stroke-linejoin:round; stroke-width:2; stroke-opacity:0.1; fill:none" points="3152.76,1443.7 3152.76,47.2441 "/>
<polyline clip-path="url(#clip162)" style="stroke:#000000; stroke-linecap:round; stroke-linejoin:round; stroke-width:2; stroke-opacity:0.1; fill:none" points="177.121,1443.7 177.121,47.2441 "/>
<polyline clip-path="url(#clip162)" style="stroke:#000000; stroke-linecap:round; stroke-linejoin:round; stroke-width:2; stroke-opacity:0.1; fill:none" points="772.248,1443.7 772.248,47.2441 "/>
<polyline clip-path="url(#clip162)" style="stroke:#000000; stroke-linecap:round; stroke-linejoin:round; stroke-width:2; stroke-opacity:0.1; fill:none" points="1367.38,1443.7 1367.38,47.2441 "/>
<polyline clip-path="url(#clip162)" style="stroke:#000000; stroke-linecap:round; stroke-linejoin:round; stroke-width:2; stroke-opacity:0.1; fill:none" points="1962.5,1443.7 1962.5,47.2441 "/>
<polyline clip-path="url(#clip162)" style="stroke:#000000; stroke-linecap:round; stroke-linejoin:round; stroke-width:2; stroke-opacity:0.1; fill:none" points="2557.63,1443.7 2557.63,47.2441 "/>
<polyline clip-path="url(#clip162)" style="stroke:#000000; stroke-linecap:round; stroke-linejoin:round; stroke-width:2; stroke-opacity:0.1; fill:none" points="3152.76,1443.7 3152.76,47.2441 "/>
<polyline clip-path="url(#clip162)" style="stroke:#000000; stroke-linecap:round; stroke-linejoin:round; stroke-width:2; stroke-opacity:0.1; fill:none" points="177.121,1351.49 3152.76,1351.49 "/>
<polyline clip-path="url(#clip162)" style="stroke:#000000; stroke-linecap:round; stroke-linejoin:round; stroke-width:2; stroke-opacity:0.1; fill:none" points="177.121,1035.31 3152.76,1035.31 "/>
<polyline clip-path="url(#clip162)" style="stroke:#000000; stroke-linecap:round; stroke-linejoin:round; stroke-width:2; stroke-opacity:0.1; fill:none" points="177.121,719.127 3152.76,719.127 "/>
<polyline clip-path="url(#clip162)" style="stroke:#000000; stroke-linecap:round; stroke-linejoin:round; stroke-width:2; stroke-opacity:0.1; fill:none" points="177.121,402.947 3152.76,402.947 "/>
<polyline clip-path="url(#clip162)" style="stroke:#000000; stroke-linecap:round; stroke-linejoin:round; stroke-width:2; stroke-opacity:0.1; fill:none" points="177.121,86.7664 3152.76,86.7664 "/>
<polyline clip-path="url(#clip162)" style="stroke:#000000; stroke-linecap:round; stroke-linejoin:round; stroke-width:2; stroke-opacity:0.1; fill:none" points="177.121,1351.49 3152.76,1351.49 "/>
<polyline clip-path="url(#clip162)" style="stroke:#000000; stroke-linecap:round; stroke-linejoin:round; stroke-width:2; stroke-opacity:0.1; fill:none" points="177.121,1035.31 3152.76,1035.31 "/>
<polyline clip-path="url(#clip162)" style="stroke:#000000; stroke-linecap:round; stroke-linejoin:round; stroke-width:2; stroke-opacity:0.1; fill:none" points="177.121,719.127 3152.76,719.127 "/>
<polyline clip-path="url(#clip162)" style="stroke:#000000; stroke-linecap:round; stroke-linejoin:round; stroke-width:2; stroke-opacity:0.1; fill:none" points="177.121,402.947 3152.76,402.947 "/>
<polyline clip-path="url(#clip162)" style="stroke:#000000; stroke-linecap:round; stroke-linejoin:round; stroke-width:2; stroke-opacity:0.1; fill:none" points="177.121,86.7664 3152.76,86.7664 "/>
<polyline clip-path="url(#clip160)" style="stroke:#000000; stroke-linecap:round; stroke-linejoin:round; stroke-width:4; stroke-opacity:1; fill:none" points="177.121,1443.7 3152.76,1443.7 "/>
<polyline clip-path="url(#clip160)" style="stroke:#000000; stroke-linecap:round; stroke-linejoin:round; stroke-width:4; stroke-opacity:1; fill:none" points="177.121,47.2441 3152.76,47.2441 "/>
<polyline clip-path="url(#clip160)" style="stroke:#000000; stroke-linecap:round; stroke-linejoin:round; stroke-width:4; stroke-opacity:1; fill:none" points="177.121,1443.7 177.121,1424.8 "/>
<polyline clip-path="url(#clip160)" style="stroke:#000000; stroke-linecap:round; stroke-linejoin:round; stroke-width:4; stroke-opacity:1; fill:none" points="772.248,1443.7 772.248,1424.8 "/>
<polyline clip-path="url(#clip160)" style="stroke:#000000; stroke-linecap:round; stroke-linejoin:round; stroke-width:4; stroke-opacity:1; fill:none" points="1367.38,1443.7 1367.38,1424.8 "/>
<polyline clip-path="url(#clip160)" style="stroke:#000000; stroke-linecap:round; stroke-linejoin:round; stroke-width:4; stroke-opacity:1; fill:none" points="1962.5,1443.7 1962.5,1424.8 "/>
<polyline clip-path="url(#clip160)" style="stroke:#000000; stroke-linecap:round; stroke-linejoin:round; stroke-width:4; stroke-opacity:1; fill:none" points="2557.63,1443.7 2557.63,1424.8 "/>
<polyline clip-path="url(#clip160)" style="stroke:#000000; stroke-linecap:round; stroke-linejoin:round; stroke-width:4; stroke-opacity:1; fill:none" points="3152.76,1443.7 3152.76,1424.8 "/>
<polyline clip-path="url(#clip160)" style="stroke:#000000; stroke-linecap:round; stroke-linejoin:round; stroke-width:4; stroke-opacity:1; fill:none" points="177.121,47.2441 177.121,66.1417 "/>
<polyline clip-path="url(#clip160)" style="stroke:#000000; stroke-linecap:round; stroke-linejoin:round; stroke-width:4; stroke-opacity:1; fill:none" points="772.248,47.2441 772.248,66.1417 "/>
<polyline clip-path="url(#clip160)" style="stroke:#000000; stroke-linecap:round; stroke-linejoin:round; stroke-width:4; stroke-opacity:1; fill:none" points="1367.38,47.2441 1367.38,66.1417 "/>
<polyline clip-path="url(#clip160)" style="stroke:#000000; stroke-linecap:round; stroke-linejoin:round; stroke-width:4; stroke-opacity:1; fill:none" points="1962.5,47.2441 1962.5,66.1417 "/>
<polyline clip-path="url(#clip160)" style="stroke:#000000; stroke-linecap:round; stroke-linejoin:round; stroke-width:4; stroke-opacity:1; fill:none" points="2557.63,47.2441 2557.63,66.1417 "/>
<polyline clip-path="url(#clip160)" style="stroke:#000000; stroke-linecap:round; stroke-linejoin:round; stroke-width:4; stroke-opacity:1; fill:none" points="3152.76,47.2441 3152.76,66.1417 "/>
<path clip-path="url(#clip160)" d="M154.506 1481.02 Q150.895 1481.02 149.066 1484.58 Q147.26 1488.12 147.26 1495.25 Q147.26 1502.36 149.066 1505.93 Q150.895 1509.47 154.506 1509.47 Q158.14 1509.47 159.945 1505.93 Q161.774 1502.36 161.774 1495.25 Q161.774 1488.12 159.945 1484.58 Q158.14 1481.02 154.506 1481.02 M154.506 1477.31 Q160.316 1477.31 163.371 1481.92 Q166.45 1486.5 166.45 1495.25 Q166.45 1503.98 163.371 1508.59 Q160.316 1513.17 154.506 1513.17 Q148.696 1513.17 145.617 1508.59 Q142.561 1503.98 142.561 1495.25 Q142.561 1486.5 145.617 1481.92 Q148.696 1477.31 154.506 1477.31 Z" fill="#000000" fill-rule="nonzero" fill-opacity="1" /><path clip-path="url(#clip160)" d="M174.668 1506.62 L179.552 1506.62 L179.552 1512.5 L174.668 1512.5 L174.668 1506.62 Z" fill="#000000" fill-rule="nonzero" fill-opacity="1" /><path clip-path="url(#clip160)" d="M199.737 1481.02 Q196.126 1481.02 194.297 1484.58 Q192.492 1488.12 192.492 1495.25 Q192.492 1502.36 194.297 1505.93 Q196.126 1509.47 199.737 1509.47 Q203.371 1509.47 205.177 1505.93 Q207.005 1502.36 207.005 1495.25 Q207.005 1488.12 205.177 1484.58 Q203.371 1481.02 199.737 1481.02 M199.737 1477.31 Q205.547 1477.31 208.603 1481.92 Q211.681 1486.5 211.681 1495.25 Q211.681 1503.98 208.603 1508.59 Q205.547 1513.17 199.737 1513.17 Q193.927 1513.17 190.848 1508.59 Q187.793 1503.98 187.793 1495.25 Q187.793 1486.5 190.848 1481.92 Q193.927 1477.31 199.737 1477.31 Z" fill="#000000" fill-rule="nonzero" fill-opacity="1" /><path clip-path="url(#clip160)" d="M750.431 1481.02 Q746.82 1481.02 744.991 1484.58 Q743.186 1488.12 743.186 1495.25 Q743.186 1502.36 744.991 1505.93 Q746.82 1509.47 750.431 1509.47 Q754.065 1509.47 755.871 1505.93 Q757.7 1502.36 757.7 1495.25 Q757.7 1488.12 755.871 1484.58 Q754.065 1481.02 750.431 1481.02 M750.431 1477.31 Q756.241 1477.31 759.297 1481.92 Q762.376 1486.5 762.376 1495.25 Q762.376 1503.98 759.297 1508.59 Q756.241 1513.17 750.431 1513.17 Q744.621 1513.17 741.542 1508.59 Q738.487 1503.98 738.487 1495.25 Q738.487 1486.5 741.542 1481.92 Q744.621 1477.31 750.431 1477.31 Z" fill="#000000" fill-rule="nonzero" fill-opacity="1" /><path clip-path="url(#clip160)" d="M770.593 1506.62 L775.477 1506.62 L775.477 1512.5 L770.593 1512.5 L770.593 1506.62 Z" fill="#000000" fill-rule="nonzero" fill-opacity="1" /><path clip-path="url(#clip160)" d="M789.69 1508.56 L806.01 1508.56 L806.01 1512.5 L784.065 1512.5 L784.065 1508.56 Q786.727 1505.81 791.311 1501.18 Q795.917 1496.53 797.098 1495.19 Q799.343 1492.66 800.223 1490.93 Q801.125 1489.17 801.125 1487.48 Q801.125 1484.72 799.181 1482.99 Q797.26 1481.25 794.158 1481.25 Q791.959 1481.25 789.505 1482.01 Q787.075 1482.78 784.297 1484.33 L784.297 1479.61 Q787.121 1478.47 789.575 1477.89 Q792.028 1477.31 794.065 1477.31 Q799.436 1477.31 802.63 1480 Q805.824 1482.69 805.824 1487.18 Q805.824 1489.31 805.014 1491.23 Q804.227 1493.12 802.121 1495.72 Q801.542 1496.39 798.44 1499.61 Q795.338 1502.8 789.69 1508.56 Z" fill="#000000" fill-rule="nonzero" fill-opacity="1" /><path clip-path="url(#clip160)" d="M1344.52 1481.02 Q1340.91 1481.02 1339.08 1484.58 Q1337.27 1488.12 1337.27 1495.25 Q1337.27 1502.36 1339.08 1505.93 Q1340.91 1509.47 1344.52 1509.47 Q1348.15 1509.47 1349.96 1505.93 Q1351.78 1502.36 1351.78 1495.25 Q1351.78 1488.12 1349.96 1484.58 Q1348.15 1481.02 1344.52 1481.02 M1344.52 1477.31 Q1350.33 1477.31 1353.38 1481.92 Q1356.46 1486.5 1356.46 1495.25 Q1356.46 1503.98 1353.38 1508.59 Q1350.33 1513.17 1344.52 1513.17 Q1338.71 1513.17 1335.63 1508.59 Q1332.57 1503.98 1332.57 1495.25 Q1332.57 1486.5 1335.63 1481.92 Q1338.71 1477.31 1344.52 1477.31 Z" fill="#000000" fill-rule="nonzero" fill-opacity="1" /><path clip-path="url(#clip160)" d="M1364.68 1506.62 L1369.56 1506.62 L1369.56 1512.5 L1364.68 1512.5 L1364.68 1506.62 Z" fill="#000000" fill-rule="nonzero" fill-opacity="1" /><path clip-path="url(#clip160)" d="M1392.59 1482.01 L1380.79 1500.46 L1392.59 1500.46 L1392.59 1482.01 M1391.37 1477.94 L1397.25 1477.94 L1397.25 1500.46 L1402.18 1500.46 L1402.18 1504.35 L1397.25 1504.35 L1397.25 1512.5 L1392.59 1512.5 L1392.59 1504.35 L1376.99 1504.35 L1376.99 1499.84 L1391.37 1477.94 Z" fill="#000000" fill-rule="nonzero" fill-opacity="1" /><path clip-path="url(#clip160)" d="M1939.81 1481.02 Q1936.19 1481.02 1934.37 1484.58 Q1932.56 1488.12 1932.56 1495.25 Q1932.56 1502.36 1934.37 1505.93 Q1936.19 1509.47 1939.81 1509.47 Q1943.44 1509.47 1945.25 1505.93 Q1947.07 1502.36 1947.07 1495.25 Q1947.07 1488.12 1945.25 1484.58 Q1943.44 1481.02 1939.81 1481.02 M1939.81 1477.31 Q1945.62 1477.31 1948.67 1481.92 Q1951.75 1486.5 1951.75 1495.25 Q1951.75 1503.98 1948.67 1508.59 Q1945.62 1513.17 1939.81 1513.17 Q1934 1513.17 1930.92 1508.59 Q1927.86 1503.98 1927.86 1495.25 Q1927.86 1486.5 1930.92 1481.92 Q1934 1477.31 1939.81 1477.31 Z" fill="#000000" fill-rule="nonzero" fill-opacity="1" /><path clip-path="url(#clip160)" d="M1959.97 1506.62 L1964.85 1506.62 L1964.85 1512.5 L1959.97 1512.5 L1959.97 1506.62 Z" fill="#000000" fill-rule="nonzero" fill-opacity="1" /><path clip-path="url(#clip160)" d="M1985.62 1493.36 Q1982.47 1493.36 1980.62 1495.51 Q1978.79 1497.66 1978.79 1501.41 Q1978.79 1505.14 1980.62 1507.31 Q1982.47 1509.47 1985.62 1509.47 Q1988.76 1509.47 1990.59 1507.31 Q1992.44 1505.14 1992.44 1501.41 Q1992.44 1497.66 1990.59 1495.51 Q1988.76 1493.36 1985.62 1493.36 M1994.9 1478.7 L1994.9 1482.96 Q1993.14 1482.13 1991.33 1481.69 Q1989.55 1481.25 1987.79 1481.25 Q1983.16 1481.25 1980.71 1484.37 Q1978.28 1487.5 1977.93 1493.82 Q1979.3 1491.81 1981.36 1490.74 Q1983.42 1489.65 1985.89 1489.65 Q1991.1 1489.65 1994.11 1492.82 Q1997.14 1495.97 1997.14 1501.41 Q1997.14 1506.74 1993.99 1509.95 Q1990.85 1513.17 1985.62 1513.17 Q1979.62 1513.17 1976.45 1508.59 Q1973.28 1503.98 1973.28 1495.25 Q1973.28 1487.06 1977.17 1482.2 Q1981.06 1477.31 1987.61 1477.31 Q1989.37 1477.31 1991.15 1477.66 Q1992.95 1478.01 1994.9 1478.7 Z" fill="#000000" fill-rule="nonzero" fill-opacity="1" /><path clip-path="url(#clip160)" d="M2535.06 1481.02 Q2531.45 1481.02 2529.62 1484.58 Q2527.81 1488.12 2527.81 1495.25 Q2527.81 1502.36 2529.62 1505.93 Q2531.45 1509.47 2535.06 1509.47 Q2538.69 1509.47 2540.5 1505.93 Q2542.33 1502.36 2542.33 1495.25 Q2542.33 1488.12 2540.5 1484.58 Q2538.69 1481.02 2535.06 1481.02 M2535.06 1477.31 Q2540.87 1477.31 2543.93 1481.92 Q2547 1486.5 2547 1495.25 Q2547 1503.98 2543.93 1508.59 Q2540.87 1513.17 2535.06 1513.17 Q2529.25 1513.17 2526.17 1508.59 Q2523.12 1503.98 2523.12 1495.25 Q2523.12 1486.5 2526.17 1481.92 Q2529.25 1477.31 2535.06 1477.31 Z" fill="#000000" fill-rule="nonzero" fill-opacity="1" /><path clip-path="url(#clip160)" d="M2555.22 1506.62 L2560.11 1506.62 L2560.11 1512.5 L2555.22 1512.5 L2555.22 1506.62 Z" fill="#000000" fill-rule="nonzero" fill-opacity="1" /><path clip-path="url(#clip160)" d="M2580.29 1496.09 Q2576.96 1496.09 2575.04 1497.87 Q2573.14 1499.65 2573.14 1502.78 Q2573.14 1505.9 2575.04 1507.69 Q2576.96 1509.47 2580.29 1509.47 Q2583.62 1509.47 2585.55 1507.69 Q2587.47 1505.88 2587.47 1502.78 Q2587.47 1499.65 2585.55 1497.87 Q2583.65 1496.09 2580.29 1496.09 M2575.62 1494.1 Q2572.61 1493.36 2570.92 1491.3 Q2569.25 1489.24 2569.25 1486.27 Q2569.25 1482.13 2572.19 1479.72 Q2575.15 1477.31 2580.29 1477.31 Q2585.45 1477.31 2588.39 1479.72 Q2591.33 1482.13 2591.33 1486.27 Q2591.33 1489.24 2589.64 1491.3 Q2587.98 1493.36 2584.99 1494.1 Q2588.37 1494.88 2590.24 1497.18 Q2592.14 1499.47 2592.14 1502.78 Q2592.14 1507.8 2589.06 1510.49 Q2586.01 1513.17 2580.29 1513.17 Q2574.57 1513.17 2571.49 1510.49 Q2568.44 1507.8 2568.44 1502.78 Q2568.44 1499.47 2570.34 1497.18 Q2572.24 1494.88 2575.62 1494.1 M2573.9 1486.71 Q2573.9 1489.4 2575.57 1490.9 Q2577.26 1492.41 2580.29 1492.41 Q2583.3 1492.41 2584.99 1490.9 Q2586.7 1489.4 2586.7 1486.71 Q2586.7 1484.03 2584.99 1482.52 Q2583.3 1481.02 2580.29 1481.02 Q2577.26 1481.02 2575.57 1482.52 Q2573.9 1484.03 2573.9 1486.71 Z" fill="#000000" fill-rule="nonzero" fill-opacity="1" /><path clip-path="url(#clip160)" d="M3119.91 1508.56 L3127.55 1508.56 L3127.55 1482.2 L3119.24 1483.87 L3119.24 1479.61 L3127.5 1477.94 L3132.18 1477.94 L3132.18 1508.56 L3139.82 1508.56 L3139.82 1512.5 L3119.91 1512.5 L3119.91 1508.56 Z" fill="#000000" fill-rule="nonzero" fill-opacity="1" /><path clip-path="url(#clip160)" d="M3149.26 1506.62 L3154.14 1506.62 L3154.14 1512.5 L3149.26 1512.5 L3149.26 1506.62 Z" fill="#000000" fill-rule="nonzero" fill-opacity="1" /><path clip-path="url(#clip160)" d="M3174.33 1481.02 Q3170.72 1481.02 3168.89 1484.58 Q3167.08 1488.12 3167.08 1495.25 Q3167.08 1502.36 3168.89 1505.93 Q3170.72 1509.47 3174.33 1509.47 Q3177.96 1509.47 3179.77 1505.93 Q3181.6 1502.36 3181.6 1495.25 Q3181.6 1488.12 3179.77 1484.58 Q3177.96 1481.02 3174.33 1481.02 M3174.33 1477.31 Q3180.14 1477.31 3183.2 1481.92 Q3186.27 1486.5 3186.27 1495.25 Q3186.27 1503.98 3183.2 1508.59 Q3180.14 1513.17 3174.33 1513.17 Q3168.52 1513.17 3165.44 1508.59 Q3162.39 1503.98 3162.39 1495.25 Q3162.39 1486.5 3165.44 1481.92 Q3168.52 1477.31 3174.33 1477.31 Z" fill="#000000" fill-rule="nonzero" fill-opacity="1" /><path clip-path="url(#clip160)" d="M1664 1554.79 L1664 1564.92 L1676.06 1564.92 L1676.06 1569.47 L1664 1569.47 L1664 1588.82 Q1664 1593.18 1665.18 1594.42 Q1666.39 1595.66 1670.05 1595.66 L1676.06 1595.66 L1676.06 1600.56 L1670.05 1600.56 Q1663.27 1600.56 1660.69 1598.05 Q1658.11 1595.5 1658.11 1588.82 L1658.11 1569.47 L1653.81 1569.47 L1653.81 1564.92 L1658.11 1564.92 L1658.11 1554.79 L1664 1554.79 Z" fill="#000000" fill-rule="nonzero" fill-opacity="1" /><polyline clip-path="url(#clip160)" style="stroke:#000000; stroke-linecap:round; stroke-linejoin:round; stroke-width:4; stroke-opacity:1; fill:none" points="177.121,1443.7 177.121,47.2441 "/>
<polyline clip-path="url(#clip160)" style="stroke:#000000; stroke-linecap:round; stroke-linejoin:round; stroke-width:4; stroke-opacity:1; fill:none" points="3152.76,1443.7 3152.76,47.2441 "/>
<polyline clip-path="url(#clip160)" style="stroke:#000000; stroke-linecap:round; stroke-linejoin:round; stroke-width:4; stroke-opacity:1; fill:none" points="177.121,1351.49 196.019,1351.49 "/>
<polyline clip-path="url(#clip160)" style="stroke:#000000; stroke-linecap:round; stroke-linejoin:round; stroke-width:4; stroke-opacity:1; fill:none" points="177.121,1035.31 196.019,1035.31 "/>
<polyline clip-path="url(#clip160)" style="stroke:#000000; stroke-linecap:round; stroke-linejoin:round; stroke-width:4; stroke-opacity:1; fill:none" points="177.121,719.127 196.019,719.127 "/>
<polyline clip-path="url(#clip160)" style="stroke:#000000; stroke-linecap:round; stroke-linejoin:round; stroke-width:4; stroke-opacity:1; fill:none" points="177.121,402.947 196.019,402.947 "/>
<polyline clip-path="url(#clip160)" style="stroke:#000000; stroke-linecap:round; stroke-linejoin:round; stroke-width:4; stroke-opacity:1; fill:none" points="177.121,86.7664 196.019,86.7664 "/>
<polyline clip-path="url(#clip160)" style="stroke:#000000; stroke-linecap:round; stroke-linejoin:round; stroke-width:4; stroke-opacity:1; fill:none" points="3152.76,1351.49 3133.86,1351.49 "/>
<polyline clip-path="url(#clip160)" style="stroke:#000000; stroke-linecap:round; stroke-linejoin:round; stroke-width:4; stroke-opacity:1; fill:none" points="3152.76,1035.31 3133.86,1035.31 "/>
<polyline clip-path="url(#clip160)" style="stroke:#000000; stroke-linecap:round; stroke-linejoin:round; stroke-width:4; stroke-opacity:1; fill:none" points="3152.76,719.127 3133.86,719.127 "/>
<polyline clip-path="url(#clip160)" style="stroke:#000000; stroke-linecap:round; stroke-linejoin:round; stroke-width:4; stroke-opacity:1; fill:none" points="3152.76,402.947 3133.86,402.947 "/>
<polyline clip-path="url(#clip160)" style="stroke:#000000; stroke-linecap:round; stroke-linejoin:round; stroke-width:4; stroke-opacity:1; fill:none" points="3152.76,86.7664 3133.86,86.7664 "/>
<path clip-path="url(#clip160)" d="M81.0429 1364.83 L97.3622 1364.83 L97.3622 1368.77 L75.4179 1368.77 L75.4179 1364.83 Q78.0799 1362.08 82.6632 1357.45 Q87.2697 1352.8 88.4502 1351.45 Q90.6956 1348.93 91.5752 1347.19 Q92.478 1345.44 92.478 1343.75 Q92.478 1340.99 90.5336 1339.25 Q88.6123 1337.52 85.5104 1337.52 Q83.3114 1337.52 80.8577 1338.28 Q78.4271 1339.05 75.6494 1340.6 L75.6494 1335.87 Q78.4734 1334.74 80.9271 1334.16 Q83.3808 1333.58 85.4178 1333.58 Q90.7882 1333.58 93.9826 1336.27 Q97.177 1338.95 97.177 1343.44 Q97.177 1345.57 96.3669 1347.5 Q95.5798 1349.39 93.4734 1351.99 Q92.8947 1352.66 89.7928 1355.87 Q86.691 1359.07 81.0429 1364.83 Z" fill="#000000" fill-rule="nonzero" fill-opacity="1" /><path clip-path="url(#clip160)" d="M117.177 1337.29 Q113.566 1337.29 111.737 1340.85 Q109.932 1344.39 109.932 1351.52 Q109.932 1358.63 111.737 1362.19 Q113.566 1365.74 117.177 1365.74 Q120.811 1365.74 122.617 1362.19 Q124.445 1358.63 124.445 1351.52 Q124.445 1344.39 122.617 1340.85 Q120.811 1337.29 117.177 1337.29 M117.177 1333.58 Q122.987 1333.58 126.043 1338.19 Q129.121 1342.77 129.121 1351.52 Q129.121 1360.25 126.043 1364.86 Q122.987 1369.44 117.177 1369.44 Q111.367 1369.44 108.288 1364.86 Q105.233 1360.25 105.233 1351.52 Q105.233 1342.77 108.288 1338.19 Q111.367 1333.58 117.177 1333.58 Z" fill="#000000" fill-rule="nonzero" fill-opacity="1" /><path clip-path="url(#clip160)" d="M89.8623 1022.1 L78.0568 1040.55 L89.8623 1040.55 L89.8623 1022.1 M88.6354 1018.03 L94.515 1018.03 L94.515 1040.55 L99.4455 1040.55 L99.4455 1044.44 L94.515 1044.44 L94.515 1052.59 L89.8623 1052.59 L89.8623 1044.44 L74.2605 1044.44 L74.2605 1039.93 L88.6354 1018.03 Z" fill="#000000" fill-rule="nonzero" fill-opacity="1" /><path clip-path="url(#clip160)" d="M117.177 1021.11 Q113.566 1021.11 111.737 1024.67 Q109.932 1028.21 109.932 1035.34 Q109.932 1042.45 111.737 1046.01 Q113.566 1049.56 117.177 1049.56 Q120.811 1049.56 122.617 1046.01 Q124.445 1042.45 124.445 1035.34 Q124.445 1028.21 122.617 1024.67 Q120.811 1021.11 117.177 1021.11 M117.177 1017.4 Q122.987 1017.4 126.043 1022.01 Q129.121 1026.59 129.121 1035.34 Q129.121 1044.07 126.043 1048.68 Q122.987 1053.26 117.177 1053.26 Q111.367 1053.26 108.288 1048.68 Q105.233 1044.07 105.233 1035.34 Q105.233 1026.59 108.288 1022.01 Q111.367 1017.4 117.177 1017.4 Z" fill="#000000" fill-rule="nonzero" fill-opacity="1" /><path clip-path="url(#clip160)" d="M87.5938 717.264 Q84.4456 717.264 82.5938 719.417 Q80.7651 721.569 80.7651 725.319 Q80.7651 729.046 82.5938 731.222 Q84.4456 733.375 87.5938 733.375 Q90.7419 733.375 92.5706 731.222 Q94.4224 729.046 94.4224 725.319 Q94.4224 721.569 92.5706 719.417 Q90.7419 717.264 87.5938 717.264 M96.8761 702.611 L96.8761 706.87 Q95.1169 706.037 93.3113 705.597 Q91.5289 705.157 89.7697 705.157 Q85.1401 705.157 82.6864 708.282 Q80.2558 711.407 79.9086 717.727 Q81.2743 715.713 83.3345 714.648 Q85.3947 713.56 87.8715 713.56 Q93.0798 713.56 96.0891 716.732 Q99.1215 719.88 99.1215 725.319 Q99.1215 730.643 95.9733 733.861 Q92.8252 737.079 87.5938 737.079 Q81.5984 737.079 78.4271 732.495 Q75.2559 727.889 75.2559 719.162 Q75.2559 710.968 79.1447 706.107 Q83.0336 701.222 89.5845 701.222 Q91.3437 701.222 93.1261 701.57 Q94.9317 701.917 96.8761 702.611 Z" fill="#000000" fill-rule="nonzero" fill-opacity="1" /><path clip-path="url(#clip160)" d="M117.177 704.926 Q113.566 704.926 111.737 708.491 Q109.932 712.032 109.932 719.162 Q109.932 726.268 111.737 729.833 Q113.566 733.375 117.177 733.375 Q120.811 733.375 122.617 729.833 Q124.445 726.268 124.445 719.162 Q124.445 712.032 122.617 708.491 Q120.811 704.926 117.177 704.926 M117.177 701.222 Q122.987 701.222 126.043 705.829 Q129.121 710.412 129.121 719.162 Q129.121 727.889 126.043 732.495 Q122.987 737.079 117.177 737.079 Q111.367 737.079 108.288 732.495 Q105.233 727.889 105.233 719.162 Q105.233 710.412 108.288 705.829 Q111.367 701.222 117.177 701.222 Z" fill="#000000" fill-rule="nonzero" fill-opacity="1" /><path clip-path="url(#clip160)" d="M87.0151 403.815 Q83.6817 403.815 81.7605 405.597 Q79.8623 407.38 79.8623 410.505 Q79.8623 413.63 81.7605 415.412 Q83.6817 417.194 87.0151 417.194 Q90.3484 417.194 92.2697 415.412 Q94.1909 413.607 94.1909 410.505 Q94.1909 407.38 92.2697 405.597 Q90.3715 403.815 87.0151 403.815 M82.3392 401.824 Q79.3299 401.083 77.6401 399.023 Q75.9735 396.963 75.9735 394 Q75.9735 389.857 78.9133 387.449 Q81.8762 385.042 87.0151 385.042 Q92.1771 385.042 95.1169 387.449 Q98.0567 389.857 98.0567 394 Q98.0567 396.963 96.3669 399.023 Q94.7002 401.083 91.7141 401.824 Q95.0937 402.611 96.9687 404.903 Q98.8668 407.195 98.8668 410.505 Q98.8668 415.528 95.7882 418.213 Q92.7326 420.898 87.0151 420.898 Q81.2975 420.898 78.2188 418.213 Q75.1633 415.528 75.1633 410.505 Q75.1633 407.195 77.0614 404.903 Q78.9595 402.611 82.3392 401.824 M80.6262 394.44 Q80.6262 397.125 82.2929 398.63 Q83.9827 400.134 87.0151 400.134 Q90.0243 400.134 91.7141 398.63 Q93.4271 397.125 93.4271 394.44 Q93.4271 391.755 91.7141 390.25 Q90.0243 388.746 87.0151 388.746 Q83.9827 388.746 82.2929 390.25 Q80.6262 391.755 80.6262 394.44 Z" fill="#000000" fill-rule="nonzero" fill-opacity="1" /><path clip-path="url(#clip160)" d="M117.177 388.746 Q113.566 388.746 111.737 392.31 Q109.932 395.852 109.932 402.982 Q109.932 410.088 111.737 413.653 Q113.566 417.194 117.177 417.194 Q120.811 417.194 122.617 413.653 Q124.445 410.088 124.445 402.982 Q124.445 395.852 122.617 392.31 Q120.811 388.746 117.177 388.746 M117.177 385.042 Q122.987 385.042 126.043 389.648 Q129.121 394.232 129.121 402.982 Q129.121 411.708 126.043 416.315 Q122.987 420.898 117.177 420.898 Q111.367 420.898 108.288 416.315 Q105.233 411.708 105.233 402.982 Q105.233 394.232 108.288 389.648 Q111.367 385.042 117.177 385.042 Z" fill="#000000" fill-rule="nonzero" fill-opacity="1" /><path clip-path="url(#clip160)" d="M47.6634 100.111 L55.3023 100.111 L55.3023 73.7457 L46.9921 75.4123 L46.9921 71.1531 L55.256 69.4864 L59.9319 69.4864 L59.9319 100.111 L67.5707 100.111 L67.5707 104.046 L47.6634 104.046 L47.6634 100.111 Z" fill="#000000" fill-rule="nonzero" fill-opacity="1" /><path clip-path="url(#clip160)" d="M87.0151 72.5651 Q83.404 72.5651 81.5753 76.1299 Q79.7697 79.6716 79.7697 86.8011 Q79.7697 93.9076 81.5753 97.4724 Q83.404 101.014 87.0151 101.014 Q90.6493 101.014 92.4548 97.4724 Q94.2835 93.9076 94.2835 86.8011 Q94.2835 79.6716 92.4548 76.1299 Q90.6493 72.5651 87.0151 72.5651 M87.0151 68.8614 Q92.8252 68.8614 95.8808 73.4679 Q98.9594 78.0512 98.9594 86.8011 Q98.9594 95.528 95.8808 100.134 Q92.8252 104.718 87.0151 104.718 Q81.2049 104.718 78.1262 100.134 Q75.0707 95.528 75.0707 86.8011 Q75.0707 78.0512 78.1262 73.4679 Q81.2049 68.8614 87.0151 68.8614 Z" fill="#000000" fill-rule="nonzero" fill-opacity="1" /><path clip-path="url(#clip160)" d="M117.177 72.5651 Q113.566 72.5651 111.737 76.1299 Q109.932 79.6716 109.932 86.8011 Q109.932 93.9076 111.737 97.4724 Q113.566 101.014 117.177 101.014 Q120.811 101.014 122.617 97.4724 Q124.445 93.9076 124.445 86.8011 Q124.445 79.6716 122.617 76.1299 Q120.811 72.5651 117.177 72.5651 M117.177 68.8614 Q122.987 68.8614 126.043 73.4679 Q129.121 78.0512 129.121 86.8011 Q129.121 95.528 126.043 100.134 Q122.987 104.718 117.177 104.718 Q111.367 104.718 108.288 100.134 Q105.233 95.528 105.233 86.8011 Q105.233 78.0512 108.288 73.4679 Q111.367 68.8614 117.177 68.8614 Z" fill="#000000" fill-rule="nonzero" fill-opacity="1" /><polyline clip-path="url(#clip162)" style="stroke:#009af9; stroke-linecap:round; stroke-linejoin:round; stroke-width:12; stroke-opacity:1; fill:none" points="177.121,402.947 180.1,414.902 183.079,426.714 186.057,438.386 189.036,449.918 192.014,461.312 194.993,472.57 197.972,483.694 200.95,494.685 203.929,505.545 206.907,516.275 209.886,526.877 212.865,537.352 215.843,547.702 218.822,557.929 221.801,568.033 224.779,578.017 227.758,587.881 230.736,597.628 233.715,607.258 236.694,616.773 239.672,626.175 242.651,635.464 245.629,644.643 248.608,653.712 251.587,662.672 254.565,671.526 257.544,680.274 260.522,688.917 263.501,697.458 266.48,705.896 269.458,714.234 272.437,722.472 275.416,730.612 278.394,738.655 281.373,746.601 284.351,754.453 287.33,762.211 290.309,769.876 293.287,777.45 296.266,784.934 299.244,792.328 302.223,799.633 305.202,806.852 308.18,813.984 311.159,821.031 314.138,827.994 317.116,834.874 320.095,841.671 323.073,848.388 326.052,855.024 329.031,861.581 332.009,868.06 334.988,874.461 337.966,880.786 340.945,887.035 343.924,893.21 346.902,899.311 349.881,905.339 352.859,911.296 355.838,917.181 358.817,922.996 361.795,928.741 364.774,934.419 367.753,940.028 370.731,945.57 373.71,951.047 376.688,956.458 379.667,961.804 382.646,967.087 385.624,972.306 388.603,977.463 391.581,982.558 394.56,987.593 397.539,992.567 400.517,997.482 403.496,1002.34 406.475,1007.14 409.453,1011.88 412.432,1016.56 415.41,1021.19 418.389,1025.76 421.368,1030.28 424.346,1034.75 427.325,1039.16 430.303,1043.51 433.282,1047.82 436.261,1052.08 439.239,1056.28 442.218,1060.43 445.197,1064.54 448.175,1068.59 451.154,1072.6 454.132,1076.56 457.111,1080.47 460.09,1084.33 463.068,1088.15 466.047,1091.93 469.025,1095.66 472.004,1099.34 474.983,1102.98 477.961,1106.58 480.94,1110.13 483.918,1113.64 486.897,1117.11 489.876,1120.54 492.854,1123.92 495.833,1127.27 498.812,1130.58 501.79,1133.85 504.769,1137.07 507.747,1140.26 510.726,1143.41 513.705,1146.53 516.683,1149.61 519.662,1152.65 522.64,1155.65 525.619,1158.62 528.598,1161.55 531.576,1164.45 534.555,1167.31 537.534,1170.14 540.512,1172.93 543.491,1175.69 546.469,1178.42 549.448,1181.12 552.427,1183.78 555.405,1186.41 558.384,1189.01 561.362,1191.58 564.341,1194.12 567.32,1196.63 570.298,1199.1 573.277,1201.55 576.255,1203.97 579.234,1206.36 582.213,1208.72 585.191,1211.06 588.17,1213.36 591.149,1215.64 594.127,1217.89 597.106,1220.12 600.084,1222.31 603.063,1224.49 606.042,1226.63 609.02,1228.75 611.999,1230.85 614.977,1232.92 617.956,1234.96 620.935,1236.98 623.913,1238.98 626.892,1240.95 629.871,1242.9 632.849,1244.83 635.828,1246.73 638.806,1248.61 641.785,1250.47 644.764,1252.31 647.742,1254.12 650.721,1255.91 653.699,1257.68 656.678,1259.43 659.657,1261.16 662.635,1262.87 665.614,1264.56 668.592,1266.22 671.571,1267.87 674.55,1269.5 677.528,1271.11 680.507,1272.7 683.486,1274.27 686.464,1275.82 689.443,1277.35 692.421,1278.86 695.4,1280.36 698.379,1281.84 701.357,1283.3 704.336,1284.74 707.314,1286.17 710.293,1287.58 713.272,1288.97 716.25,1290.34 719.229,1291.7 722.208,1293.04 725.186,1294.37 728.165,1295.68 731.143,1296.98 734.122,1298.26 737.101,1299.52 740.079,1300.77 743.058,1302.01 746.036,1303.23 749.015,1304.43 751.994,1305.62 754.972,1306.8 757.951,1307.96 760.93,1309.11 763.908,1310.25 766.887,1311.37 769.865,1312.48 772.844,1313.57 775.823,1314.65 778.801,1315.72 781.78,1316.78 784.758,1317.82 787.737,1318.85 790.716,1319.87 793.694,1320.88 796.673,1321.88 799.651,1322.86 802.63,1323.83 805.609,1324.79 808.587,1325.74 811.566,1326.68 814.545,1327.6 817.523,1328.52 820.502,1329.42 823.48,1330.31 826.459,1331.19 829.438,1332.07 832.416,1332.93 835.395,1333.78 838.373,1334.62 841.352,1335.45 844.331,1336.27 847.309,1337.08 850.288,1337.88 853.267,1338.67 856.245,1339.46 859.224,1340.23 862.202,1340.99 865.181,1341.75 868.16,1342.49 871.138,1343.23 874.117,1343.96 877.095,1344.67 880.074,1345.38 883.053,1346.09 886.031,1346.78 889.01,1347.46 891.988,1348.14 894.967,1348.81 897.946,1349.47 900.924,1350.12 903.903,1350.77 906.882,1351.41 909.86,1352.04 912.839,1352.66 915.817,1353.27 918.796,1353.88 921.775,1354.48 924.753,1355.08 927.732,1355.66 930.71,1356.24 933.689,1356.81 936.668,1357.38 939.646,1357.94 942.625,1358.49 945.604,1359.04 948.582,1359.58 951.561,1360.11 954.539,1360.64 957.518,1361.16 960.497,1361.67 963.475,1362.18 966.454,1362.68 969.432,1363.18 972.411,1363.67 975.39,1364.15 978.368,1364.63 981.347,1365.1 984.325,1365.57 987.304,1366.03 990.283,1366.49 993.261,1366.94 996.24,1367.38 999.219,1367.82 1002.2,1368.26 1005.18,1368.68 1008.15,1369.11 1011.13,1369.53 1014.11,1369.94 1017.09,1370.35 1020.07,1370.75 1023.05,1371.15 1026.03,1371.55 1029,1371.94 1031.98,1372.32 1034.96,1372.7 1037.94,1373.08 1040.92,1373.45 1043.9,1373.82 1046.88,1374.18 1049.85,1374.54 1052.83,1374.89 1055.81,1375.24 1058.79,1375.59 1061.77,1375.93 1064.75,1376.26 1067.73,1376.6 1070.71,1376.93 1073.68,1377.25 1076.66,1377.57 1079.64,1377.89 1082.62,1378.2 1085.6,1378.51 1088.58,1378.82 1091.56,1379.12 1094.53,1379.42 1097.51,1379.72 1100.49,1380.01 1103.47,1380.3 1106.45,1380.58 1109.43,1380.86 1112.41,1381.14 1115.38,1381.42 1118.36,1381.69 1121.34,1381.96 1124.32,1382.22 1127.3,1382.48 1130.28,1382.74 1133.26,1383 1136.23,1383.25 1139.21,1383.5 1142.19,1383.75 1145.17,1383.99 1148.15,1384.24 1151.13,1384.47 1154.11,1384.71 1157.09,1384.94 1160.06,1385.17 1163.04,1385.4 1166.02,1385.62 1169,1385.85 1171.98,1386.07 1174.96,1386.28 1177.94,1386.5 1180.91,1386.71 1183.89,1386.92 1186.87,1387.12 1189.85,1387.33 1192.83,1387.53 1195.81,1387.73 1198.79,1387.92 1201.76,1388.12 1204.74,1388.31 1207.72,1388.5 1210.7,1388.69 1213.68,1388.87 1216.66,1389.06 1219.64,1389.24 1222.61,1389.42 1225.59,1389.59 1228.57,1389.77 1231.55,1389.94 1234.53,1390.11 1237.51,1390.28 1240.49,1390.44 1243.46,1390.61 1246.44,1390.77 1249.42,1390.93 1252.4,1391.09 1255.38,1391.24 1258.36,1391.4 1261.34,1391.55 1264.32,1391.7 1267.29,1391.85 1270.27,1392 1273.25,1392.14 1276.23,1392.29 1279.21,1392.43 1282.19,1392.57 1285.17,1392.71 1288.14,1392.84 1291.12,1392.98 1294.1,1393.11 1297.08,1393.24 1300.06,1393.37 1303.04,1393.5 1306.02,1393.63 1308.99,1393.76 1311.97,1393.88 1314.95,1394 1317.93,1394.12 1320.91,1394.24 1323.89,1394.36 1326.87,1394.48 1329.84,1394.6 1332.82,1394.71 1335.8,1394.82 1338.78,1394.93 1341.76,1395.04 1344.74,1395.15 1347.72,1395.26 1350.69,1395.37 1353.67,1395.47 1356.65,1395.58 1359.63,1395.68 1362.61,1395.78 1365.59,1395.88 1368.57,1395.98 1371.55,1396.08 1374.52,1396.18 1377.5,1396.27 1380.48,1396.37 1383.46,1396.46 1386.44,1396.55 1389.42,1396.65 1392.4,1396.74 1395.37,1396.82 1398.35,1396.91 1401.33,1397 1404.31,1397.09 1407.29,1397.17 1410.27,1397.26 1413.25,1397.34 1416.22,1397.42 1419.2,1397.5 1422.18,1397.58 1425.16,1397.66 1428.14,1397.74 1431.12,1397.82 1434.1,1397.89 1437.07,1397.97 1440.05,1398.04 1443.03,1398.11 1446.01,1398.19 1448.99,1398.26 1451.97,1398.33 1454.95,1398.4 1457.92,1398.47 1460.9,1398.54 1463.88,1398.6 1466.86,1398.67 1469.84,1398.74 1472.82,1398.8 1475.8,1398.87 1478.78,1398.93 1481.75,1398.99 1484.73,1399.05 1487.71,1399.12 1490.69,1399.18 1493.67,1399.24 1496.65,1399.29 1499.63,1399.35 1502.6,1399.41 1505.58,1399.47 1508.56,1399.52 1511.54,1399.58 1514.52,1399.63 1517.5,1399.69 1520.48,1399.74 1523.45,1399.79 1526.43,1399.85 1529.41,1399.9 1532.39,1399.95 1535.37,1400 1538.35,1400.05 1541.33,1400.1 1544.3,1400.15 1547.28,1400.19 1550.26,1400.24 1553.24,1400.29 1556.22,1400.34 1559.2,1400.38 1562.18,1400.43 1565.16,1400.47 1568.13,1400.52 1571.11,1400.56 1574.09,1400.6 1577.07,1400.64 1580.05,1400.69 1583.03,1400.73 1586.01,1400.77 1588.98,1400.81 1591.96,1400.85 1594.94,1400.89 1597.92,1400.93 1600.9,1400.97 1603.88,1401.01 1606.86,1401.04 1609.83,1401.08 1612.81,1401.12 1615.79,1401.16 1618.77,1401.19 1621.75,1401.23 1624.73,1401.26 1627.71,1401.3 1630.68,1401.33 1633.66,1401.37 1636.64,1401.4 1639.62,1401.43 1642.6,1401.47 1645.58,1401.5 1648.56,1401.53 1651.53,1401.56 1654.51,1401.6 1657.49,1401.63 1660.47,1401.66 1663.45,1401.69 1666.43,1401.72 1669.41,1401.75 1672.39,1401.78 1675.36,1401.81 1678.34,1401.83 1681.32,1401.86 1684.3,1401.89 1687.28,1401.92 1690.26,1401.95 1693.24,1401.97 1696.21,1402 1699.19,1402.03 1702.17,1402.05 1705.15,1402.08 1708.13,1402.1 1711.11,1402.13 1714.09,1402.15 1717.06,1402.18 1720.04,1402.2 1723.02,1402.22 1726,1402.25 1728.98,1402.27 1731.96,1402.29 1734.94,1402.32 1737.91,1402.34 1740.89,1402.36 1743.87,1402.38 1746.85,1402.4 1749.83,1402.43 1752.81,1402.45 1755.79,1402.47 1758.76,1402.49 1761.74,1402.51 1764.72,1402.53 1767.7,1402.55 1770.68,1402.57 1773.66,1402.59 1776.64,1402.6 1779.62,1402.62 1782.59,1402.64 1785.57,1402.66 1788.55,1402.68 1791.53,1402.7 1794.51,1402.71 1797.49,1402.73 1800.47,1402.75 1803.44,1402.77 1806.42,1402.78 1809.4,1402.8 1812.38,1402.82 1815.36,1402.83 1818.34,1402.85 1821.32,1402.86 1824.29,1402.88 1827.27,1402.89 1830.25,1402.91 1833.23,1402.92 1836.21,1402.94 1839.19,1402.95 1842.17,1402.97 1845.14,1402.98 1848.12,1403 1851.1,1403.01 1854.08,1403.02 1857.06,1403.04 1860.04,1403.05 1863.02,1403.07 1866,1403.08 1868.97,1403.09 1871.95,1403.1 1874.93,1403.12 1877.91,1403.13 1880.89,1403.14 1883.87,1403.16 1886.85,1403.17 1889.82,1403.18 1892.8,1403.19 1895.78,1403.2 1898.76,1403.22 1901.74,1403.23 1904.72,1403.24 1907.7,1403.25 1910.67,1403.26 1913.65,1403.27 1916.63,1403.28 1919.61,1403.29 1922.59,1403.3 1925.57,1403.32 1928.55,1403.33 1931.52,1403.34 1934.5,1403.35 1937.48,1403.36 1940.46,1403.37 1943.44,1403.38 1946.42,1403.39 1949.4,1403.4 1952.37,1403.41 1955.35,1403.41 1958.33,1403.42 1961.31,1403.43 1964.29,1403.44 1967.27,1403.45 1970.25,1403.46 1973.23,1403.47 1976.2,1403.48 1979.18,1403.49 1982.16,1403.49 1985.14,1403.5 1988.12,1403.51 1991.1,1403.52 1994.08,1403.53 1997.05,1403.54 2000.03,1403.54 2003.01,1403.55 2005.99,1403.56 2008.97,1403.57 2011.95,1403.57 2014.93,1403.58 2017.9,1403.59 2020.88,1403.6 2023.86,1403.6 2026.84,1403.61 2029.82,1403.62 2032.8,1403.62 2035.78,1403.63 2038.75,1403.64 2041.73,1403.64 2044.71,1403.65 2047.69,1403.66 2050.67,1403.66 2053.65,1403.67 2056.63,1403.68 2059.6,1403.68 2062.58,1403.69 2065.56,1403.69 2068.54,1403.7 2071.52,1403.71 2074.5,1403.71 2077.48,1403.72 2080.46,1403.72 2083.43,1403.73 2086.41,1403.73 2089.39,1403.74 2092.37,1403.74 2095.35,1403.75 2098.33,1403.75 2101.31,1403.76 2104.28,1403.76 2107.26,1403.77 2110.24,1403.77 2113.22,1403.78 2116.2,1403.78 2119.18,1403.79 2122.16,1403.79 2125.13,1403.8 2128.11,1403.8 2131.09,1403.81 2134.07,1403.81 2137.05,1403.82 2140.03,1403.82 2143.01,1403.82 2145.98,1403.83 2148.96,1403.83 2151.94,1403.84 2154.92,1403.84 2157.9,1403.84 2160.88,1403.85 2163.86,1403.85 2166.83,1403.86 2169.81,1403.86 2172.79,1403.86 2175.77,1403.87 2178.75,1403.87 2181.73,1403.87 2184.71,1403.88 2187.69,1403.88 2190.66,1403.88 2193.64,1403.89 2196.62,1403.89 2199.6,1403.9 2202.58,1403.9 2205.56,1403.9 2208.54,1403.91 2211.51,1403.91 2214.49,1403.91 2217.47,1403.91 2220.45,1403.92 2223.43,1403.92 2226.41,1403.92 2229.39,1403.93 2232.36,1403.93 2235.34,1403.93 2238.32,1403.94 2241.3,1403.94 2244.28,1403.94 2247.26,1403.94 2250.24,1403.95 2253.21,1403.95 2256.19,1403.95 2259.17,1403.96 2262.15,1403.96 2265.13,1403.96 2268.11,1403.96 2271.09,1403.97 2274.07,1403.97 2277.04,1403.97 2280.02,1403.98 2283,1403.98 2285.98,1403.98 2288.96,1403.98 2291.94,1403.99 2294.92,1403.99 2297.89,1403.99 2300.87,1403.99 2303.85,1403.99 2306.83,1404 2309.81,1404 2312.79,1404 2315.77,1404 2318.74,1404.01 2321.72,1404.01 2324.7,1404.01 2327.68,1404.01 2330.66,1404.02 2333.64,1404.02 2336.62,1404.02 2339.59,1404.02 2342.57,1404.02 2345.55,1404.03 2348.53,1404.03 2351.51,1404.03 2354.49,1404.03 2357.47,1404.03 2360.44,1404.04 2363.42,1404.04 2366.4,1404.04 2369.38,1404.04 2372.36,1404.04 2375.34,1404.04 2378.32,1404.05 2381.3,1404.05 2384.27,1404.05 2387.25,1404.05 2390.23,1404.05 2393.21,1404.05 2396.19,1404.06 2399.17,1404.06 2402.15,1404.06 2405.12,1404.06 2408.1,1404.06 2411.08,1404.06 2414.06,1404.07 2417.04,1404.07 2420.02,1404.07 2423,1404.07 2425.97,1404.07 2428.95,1404.07 2431.93,1404.07 2434.91,1404.08 2437.89,1404.08 2440.87,1404.08 2443.85,1404.08 2446.82,1404.08 2449.8,1404.08 2452.78,1404.08 2455.76,1404.08 2458.74,1404.09 2461.72,1404.09 2464.7,1404.09 2467.67,1404.09 2470.65,1404.09 2473.63,1404.09 2476.61,1404.09 2479.59,1404.09 2482.57,1404.09 2485.55,1404.1 2488.53,1404.1 2491.5,1404.1 2494.48,1404.1 2497.46,1404.1 2500.44,1404.1 2503.42,1404.1 2506.4,1404.1 2509.38,1404.1 2512.35,1404.1 2515.33,1404.11 2518.31,1404.11 2521.29,1404.11 2524.27,1404.11 2527.25,1404.11 2530.23,1404.11 2533.2,1404.11 2536.18,1404.11 2539.16,1404.11 2542.14,1404.11 2545.12,1404.11 2548.1,1404.11 2551.08,1404.12 2554.05,1404.12 2557.03,1404.12 2560.01,1404.12 2562.99,1404.12 2565.97,1404.12 2568.95,1404.12 2571.93,1404.12 2574.9,1404.12 2577.88,1404.12 2580.86,1404.12 2583.84,1404.12 2586.82,1404.12 2589.8,1404.12 2592.78,1404.12 2595.76,1404.13 2598.73,1404.13 2601.71,1404.13 2604.69,1404.13 2607.67,1404.13 2610.65,1404.13 2613.63,1404.13 2616.61,1404.13 2619.58,1404.13 2622.56,1404.13 2625.54,1404.13 2628.52,1404.13 2631.5,1404.13 2634.48,1404.13 2637.46,1404.13 2640.43,1404.13 2643.41,1404.13 2646.39,1404.14 2649.37,1404.14 2652.35,1404.14 2655.33,1404.14 2658.31,1404.14 2661.28,1404.14 2664.26,1404.14 2667.24,1404.14 2670.22,1404.14 2673.2,1404.14 2676.18,1404.14 2679.16,1404.14 2682.14,1404.14 2685.11,1404.14 2688.09,1404.14 2691.07,1404.14 2694.05,1404.14 2697.03,1404.14 2700.01,1404.14 2702.99,1404.15 2705.96,1404.15 2708.94,1404.15 2711.92,1404.15 2714.9,1404.15 2717.88,1404.15 2720.86,1404.15 2723.84,1404.15 2726.81,1404.15 2729.79,1404.15 2732.77,1404.15 2735.75,1404.15 2738.73,1404.15 2741.71,1404.15 2744.69,1404.15 2747.66,1404.15 2750.64,1404.15 2753.62,1404.15 2756.6,1404.15 2759.58,1404.15 2762.56,1404.15 2765.54,1404.15 2768.51,1404.16 2771.49,1404.16 2774.47,1404.16 2777.45,1404.16 2780.43,1404.16 2783.41,1404.16 2786.39,1404.16 2789.37,1404.16 2792.34,1404.16 2795.32,1404.16 2798.3,1404.16 2801.28,1404.16 2804.26,1404.16 2807.24,1404.16 2810.22,1404.16 2813.19,1404.16 2816.17,1404.16 2819.15,1404.16 2822.13,1404.16 2825.11,1404.16 2828.09,1404.16 2831.07,1404.16 2834.04,1404.16 2837.02,1404.16 2840,1404.16 2842.98,1404.16 2845.96,1404.16 2848.94,1404.16 2851.92,1404.16 2854.89,1404.16 2857.87,1404.17 2860.85,1404.17 2863.83,1404.17 2866.81,1404.17 2869.79,1404.17 2872.77,1404.17 2875.74,1404.17 2878.72,1404.17 2881.7,1404.17 2884.68,1404.17 2887.66,1404.17 2890.64,1404.17 2893.62,1404.17 2896.6,1404.17 2899.57,1404.17 2902.55,1404.17 2905.53,1404.17 2908.51,1404.17 2911.49,1404.17 2914.47,1404.17 2917.45,1404.17 2920.42,1404.17 2923.4,1404.17 2926.38,1404.17 2929.36,1404.17 2932.34,1404.17 2935.32,1404.17 2938.3,1404.17 2941.27,1404.17 2944.25,1404.17 2947.23,1404.17 2950.21,1404.17 2953.19,1404.17 2956.17,1404.17 2959.15,1404.17 2962.12,1404.17 2965.1,1404.17 2968.08,1404.17 2971.06,1404.17 2974.04,1404.17 2977.02,1404.17 2980,1404.17 2982.97,1404.17 2985.95,1404.17 2988.93,1404.17 2991.91,1404.17 2994.89,1404.17 2997.87,1404.17 3000.85,1404.17 3003.83,1404.17 3006.8,1404.17 3009.78,1404.17 3012.76,1404.17 3015.74,1404.17 3018.72,1404.17 3021.7,1404.17 3024.68,1404.17 3027.65,1404.17 3030.63,1404.17 3033.61,1404.17 3036.59,1404.17 3039.57,1404.17 3042.55,1404.17 3045.53,1404.17 3048.5,1404.17 3051.48,1404.17 3054.46,1404.18 3057.44,1404.18 3060.42,1404.18 3063.4,1404.18 3066.38,1404.18 3069.35,1404.18 3072.33,1404.18 3075.31,1404.18 3078.29,1404.18 3081.27,1404.18 3084.25,1404.18 3087.23,1404.18 3090.21,1404.18 3093.18,1404.18 3096.16,1404.18 3099.14,1404.18 3102.12,1404.18 3105.1,1404.18 3108.08,1404.18 3111.06,1404.18 3114.03,1404.18 3117.01,1404.18 3119.99,1404.18 3122.97,1404.18 3125.95,1404.18 3128.93,1404.18 3131.91,1404.18 3134.88,1404.18 3137.86,1404.18 3140.84,1404.18 3143.82,1404.18 3146.8,1404.18 3149.78,1404.18 3152.76,1404.18 "/>
<polyline clip-path="url(#clip162)" style="stroke:#e26f46; stroke-linecap:round; stroke-linejoin:round; stroke-width:12; stroke-opacity:1; fill:none" points="177.121,1351.49 180.1,1339.53 183.079,1327.72 186.057,1316.05 189.036,1304.52 192.014,1293.12 194.993,1281.86 197.972,1270.74 200.95,1259.75 203.929,1248.89 206.907,1238.16 209.886,1227.56 212.865,1217.08 215.843,1206.73 218.822,1196.51 221.801,1186.4 224.779,1176.42 227.758,1166.55 230.736,1156.81 233.715,1147.18 236.694,1137.66 239.672,1128.26 242.651,1118.97 245.629,1109.79 248.608,1100.72 251.587,1091.76 254.565,1082.91 257.544,1074.16 260.522,1065.52 263.501,1056.98 266.48,1048.54 269.458,1040.2 272.437,1031.96 275.416,1023.82 278.394,1015.78 281.373,1007.83 284.351,999.982 287.33,992.224 290.309,984.559 293.287,976.985 296.266,969.502 299.244,962.108 302.223,954.802 305.202,947.583 308.18,940.451 311.159,933.404 314.138,926.441 317.116,919.561 320.095,912.764 323.073,906.047 326.052,899.411 329.031,892.854 332.009,886.376 334.988,879.974 337.966,873.649 340.945,867.4 343.924,861.225 346.902,855.124 349.881,849.096 352.859,843.139 355.838,837.254 358.817,831.439 361.795,825.694 364.774,820.017 367.753,814.407 370.731,808.865 373.71,803.388 376.688,797.977 379.667,792.631 382.646,787.349 385.624,782.129 388.603,776.972 391.581,771.877 394.56,766.842 397.539,761.868 400.517,756.953 403.496,752.097 406.475,747.299 409.453,742.558 412.432,737.874 415.41,733.245 418.389,728.672 421.368,724.154 424.346,719.69 427.325,715.279 430.303,710.921 433.282,706.615 436.261,702.36 439.239,698.156 442.218,694.002 445.197,689.898 448.175,685.843 451.154,681.836 454.132,677.877 457.111,673.966 460.09,670.101 463.068,666.282 466.047,662.508 469.025,658.78 472.004,655.096 474.983,651.456 477.961,647.86 480.94,644.306 483.918,640.795 486.897,637.326 489.876,633.898 492.854,630.511 495.833,627.164 498.812,623.857 501.79,620.59 504.769,617.362 507.747,614.172 510.726,611.02 513.705,607.907 516.683,604.83 519.662,601.79 522.64,598.786 525.619,595.819 528.598,592.886 531.576,589.989 534.555,587.127 537.534,584.299 540.512,581.504 543.491,578.743 546.469,576.015 549.448,573.319 552.427,570.656 555.405,568.025 558.384,565.425 561.362,562.856 564.341,560.317 567.32,557.809 570.298,555.331 573.277,552.883 576.255,550.464 579.234,548.073 582.213,545.711 585.191,543.378 588.17,541.072 591.149,538.794 594.127,536.543 597.106,534.318 600.084,532.121 603.063,529.949 606.042,527.804 609.02,525.683 611.999,523.589 614.977,521.519 617.956,519.473 620.935,517.452 623.913,515.456 626.892,513.483 629.871,511.533 632.849,509.607 635.828,507.704 638.806,505.823 641.785,503.965 644.764,502.129 647.742,500.316 650.721,498.523 653.699,496.753 656.678,495.003 659.657,493.274 662.635,491.567 665.614,489.879 668.592,488.212 671.571,486.564 674.55,484.937 677.528,483.329 680.507,481.74 683.486,480.17 686.464,478.619 689.443,477.086 692.421,475.572 695.4,474.076 698.379,472.597 701.357,471.137 704.336,469.694 707.314,468.268 710.293,466.859 713.272,465.467 716.25,464.092 719.229,462.733 722.208,461.39 725.186,460.064 728.165,458.753 731.143,457.458 734.122,456.178 737.101,454.913 740.079,453.664 743.058,452.429 746.036,451.21 749.015,450.004 751.994,448.813 754.972,447.637 757.951,446.474 760.93,445.325 763.908,444.19 766.887,443.068 769.865,441.959 772.844,440.864 775.823,439.782 778.801,438.713 781.78,437.656 784.758,436.612 787.737,435.58 790.716,434.561 793.694,433.554 796.673,432.559 799.651,431.576 802.63,430.604 805.609,429.645 808.587,428.696 811.566,427.759 814.545,426.834 817.523,425.919 820.502,425.015 823.48,424.122 826.459,423.24 829.438,422.369 832.416,421.507 835.395,420.656 838.373,419.816 841.352,418.985 844.331,418.165 847.309,417.354 850.288,416.553 853.267,415.761 856.245,414.979 859.224,414.206 862.202,413.443 865.181,412.689 868.16,411.943 871.138,411.207 874.117,410.48 877.095,409.761 880.074,409.05 883.053,408.349 886.031,407.655 889.01,406.97 891.988,406.293 894.967,405.624 897.946,404.964 900.924,404.311 903.903,403.665 906.882,403.028 909.86,402.398 912.839,401.775 915.817,401.16 918.796,400.553 921.775,399.952 924.753,399.359 927.732,398.773 930.71,398.193 933.689,397.621 936.668,397.055 939.646,396.496 942.625,395.944 945.604,395.398 948.582,394.858 951.561,394.325 954.539,393.799 957.518,393.279 960.497,392.764 963.475,392.256 966.454,391.754 969.432,391.258 972.411,390.768 975.39,390.284 978.368,389.806 981.347,389.333 984.325,388.866 987.304,388.405 990.283,387.949 993.261,387.499 996.24,387.054 999.219,386.614 1002.2,386.18 1005.18,385.75 1008.15,385.326 1011.13,384.907 1014.11,384.494 1017.09,384.085 1020.07,383.681 1023.05,383.281 1026.03,382.887 1029,382.497 1031.98,382.112 1034.96,381.732 1037.94,381.356 1040.92,380.985 1043.9,380.618 1046.88,380.256 1049.85,379.898 1052.83,379.544 1055.81,379.195 1058.79,378.849 1061.77,378.508 1064.75,378.171 1067.73,377.838 1070.71,377.509 1073.68,377.184 1076.66,376.862 1079.64,376.545 1082.62,376.231 1085.6,375.922 1088.58,375.615 1091.56,375.313 1094.53,375.014 1097.51,374.718 1100.49,374.426 1103.47,374.138 1106.45,373.853 1109.43,373.571 1112.41,373.293 1115.38,373.018 1118.36,372.746 1121.34,372.478 1124.32,372.212 1127.3,371.95 1130.28,371.691 1133.26,371.435 1136.23,371.182 1139.21,370.932 1142.19,370.685 1145.17,370.44 1148.15,370.199 1151.13,369.961 1154.11,369.725 1157.09,369.492 1160.06,369.262 1163.04,369.035 1166.02,368.81 1169,368.588 1171.98,368.369 1174.96,368.152 1177.94,367.938 1180.91,367.727 1183.89,367.518 1186.87,367.311 1189.85,367.107 1192.83,366.906 1195.81,366.707 1198.79,366.51 1201.76,366.316 1204.74,366.124 1207.72,365.934 1210.7,365.747 1213.68,365.562 1216.66,365.379 1219.64,365.198 1222.61,365.019 1225.59,364.843 1228.57,364.669 1231.55,364.497 1234.53,364.326 1237.51,364.158 1240.49,363.992 1243.46,363.828 1246.44,363.666 1249.42,363.506 1252.4,363.348 1255.38,363.192 1258.36,363.038 1261.34,362.885 1264.32,362.734 1267.29,362.586 1270.27,362.439 1273.25,362.293 1276.23,362.15 1279.21,362.008 1282.19,361.868 1285.17,361.729 1288.14,361.592 1291.12,361.457 1294.1,361.324 1297.08,361.192 1300.06,361.061 1303.04,360.933 1306.02,360.805 1308.99,360.68 1311.97,360.555 1314.95,360.433 1317.93,360.311 1320.91,360.191 1323.89,360.073 1326.87,359.956 1329.84,359.84 1332.82,359.726 1335.8,359.613 1338.78,359.501 1341.76,359.39 1344.74,359.281 1347.72,359.173 1350.69,359.067 1353.67,358.962 1356.65,358.857 1359.63,358.754 1362.61,358.653 1365.59,358.552 1368.57,358.453 1371.55,358.355 1374.52,358.258 1377.5,358.162 1380.48,358.067 1383.46,357.974 1386.44,357.881 1389.42,357.79 1392.4,357.7 1395.37,357.61 1398.35,357.522 1401.33,357.435 1404.31,357.349 1407.29,357.264 1410.27,357.18 1413.25,357.097 1416.22,357.015 1419.2,356.934 1422.18,356.854 1425.16,356.775 1428.14,356.697 1431.12,356.62 1434.1,356.544 1437.07,356.468 1440.05,356.394 1443.03,356.32 1446.01,356.248 1448.99,356.176 1451.97,356.105 1454.95,356.035 1457.92,355.966 1460.9,355.898 1463.88,355.83 1466.86,355.764 1469.84,355.698 1472.82,355.633 1475.8,355.569 1478.78,355.505 1481.75,355.442 1484.73,355.381 1487.71,355.319 1490.69,355.259 1493.67,355.199 1496.65,355.14 1499.63,355.082 1502.6,355.025 1505.58,354.968 1508.56,354.912 1511.54,354.856 1514.52,354.801 1517.5,354.747 1520.48,354.694 1523.45,354.641 1526.43,354.589 1529.41,354.537 1532.39,354.486 1535.37,354.436 1538.35,354.386 1541.33,354.337 1544.3,354.288 1547.28,354.24 1550.26,354.193 1553.24,354.146 1556.22,354.1 1559.2,354.054 1562.18,354.009 1565.16,353.964 1568.13,353.92 1571.11,353.876 1574.09,353.833 1577.07,353.791 1580.05,353.749 1583.03,353.707 1586.01,353.666 1588.98,353.625 1591.96,353.585 1594.94,353.545 1597.92,353.506 1600.9,353.467 1603.88,353.428 1606.86,353.39 1609.83,353.353 1612.81,353.316 1615.79,353.279 1618.77,353.243 1621.75,353.207 1624.73,353.171 1627.71,353.136 1630.68,353.102 1633.66,353.068 1636.64,353.034 1639.62,353 1642.6,352.967 1645.58,352.935 1648.56,352.902 1651.53,352.871 1654.51,352.839 1657.49,352.808 1660.47,352.777 1663.45,352.747 1666.43,352.717 1669.41,352.687 1672.39,352.658 1675.36,352.629 1678.34,352.6 1681.32,352.572 1684.3,352.544 1687.28,352.517 1690.26,352.489 1693.24,352.463 1696.21,352.436 1699.19,352.41 1702.17,352.384 1705.15,352.358 1708.13,352.333 1711.11,352.308 1714.09,352.283 1717.06,352.259 1720.04,352.235 1723.02,352.211 1726,352.188 1728.98,352.164 1731.96,352.142 1734.94,352.119 1737.91,352.097 1740.89,352.074 1743.87,352.053 1746.85,352.031 1749.83,352.01 1752.81,351.989 1755.79,351.968 1758.76,351.948 1761.74,351.928 1764.72,351.908 1767.7,351.888 1770.68,351.868 1773.66,351.849 1776.64,351.83 1779.62,351.811 1782.59,351.793 1785.57,351.775 1788.55,351.757 1791.53,351.739 1794.51,351.721 1797.49,351.704 1800.47,351.686 1803.44,351.669 1806.42,351.653 1809.4,351.636 1812.38,351.62 1815.36,351.604 1818.34,351.588 1821.32,351.572 1824.29,351.556 1827.27,351.541 1830.25,351.526 1833.23,351.511 1836.21,351.496 1839.19,351.481 1842.17,351.467 1845.14,351.452 1848.12,351.438 1851.1,351.424 1854.08,351.41 1857.06,351.396 1860.04,351.383 1863.02,351.37 1866,351.356 1868.97,351.343 1871.95,351.33 1874.93,351.318 1877.91,351.305 1880.89,351.292 1883.87,351.28 1886.85,351.268 1889.82,351.256 1892.8,351.244 1895.78,351.232 1898.76,351.22 1901.74,351.208 1904.72,351.197 1907.7,351.186 1910.67,351.174 1913.65,351.163 1916.63,351.152 1919.61,351.141 1922.59,351.131 1925.57,351.12 1928.55,351.11 1931.52,351.099 1934.5,351.089 1937.48,351.079 1940.46,351.069 1943.44,351.059 1946.42,351.049 1949.4,351.039 1952.37,351.03 1955.35,351.02 1958.33,351.011 1961.31,351.002 1964.29,350.993 1967.27,350.984 1970.25,350.975 1973.23,350.966 1976.2,350.957 1979.18,350.949 1982.16,350.94 1985.14,350.932 1988.12,350.924 1991.1,350.915 1994.08,350.907 1997.05,350.899 2000.03,350.891 2003.01,350.884 2005.99,350.876 2008.97,350.868 2011.95,350.861 2014.93,350.853 2017.9,350.846 2020.88,350.839 2023.86,350.832 2026.84,350.825 2029.82,350.818 2032.8,350.811 2035.78,350.804 2038.75,350.798 2041.73,350.791 2044.71,350.784 2047.69,350.778 2050.67,350.772 2053.65,350.765 2056.63,350.759 2059.6,350.753 2062.58,350.747 2065.56,350.741 2068.54,350.735 2071.52,350.73 2074.5,350.724 2077.48,350.718 2080.46,350.713 2083.43,350.707 2086.41,350.702 2089.39,350.696 2092.37,350.691 2095.35,350.686 2098.33,350.681 2101.31,350.676 2104.28,350.671 2107.26,350.666 2110.24,350.661 2113.22,350.656 2116.2,350.651 2119.18,350.647 2122.16,350.642 2125.13,350.637 2128.11,350.633 2131.09,350.628 2134.07,350.624 2137.05,350.62 2140.03,350.615 2143.01,350.611 2145.98,350.607 2148.96,350.603 2151.94,350.599 2154.92,350.595 2157.9,350.591 2160.88,350.587 2163.86,350.583 2166.83,350.579 2169.81,350.575 2172.79,350.572 2175.77,350.568 2178.75,350.564 2181.73,350.561 2184.71,350.557 2187.69,350.554 2190.66,350.55 2193.64,350.547 2196.62,350.543 2199.6,350.54 2202.58,350.537 2205.56,350.533 2208.54,350.53 2211.51,350.527 2214.49,350.524 2217.47,350.52 2220.45,350.517 2223.43,350.514 2226.41,350.511 2229.39,350.508 2232.36,350.505 2235.34,350.502 2238.32,350.499 2241.3,350.496 2244.28,350.493 2247.26,350.49 2250.24,350.487 2253.21,350.484 2256.19,350.482 2259.17,350.479 2262.15,350.476 2265.13,350.473 2268.11,350.471 2271.09,350.468 2274.07,350.465 2277.04,350.463 2280.02,350.46 2283,350.457 2285.98,350.455 2288.96,350.452 2291.94,350.45 2294.92,350.447 2297.89,350.445 2300.87,350.443 2303.85,350.44 2306.83,350.438 2309.81,350.435 2312.79,350.433 2315.77,350.431 2318.74,350.429 2321.72,350.426 2324.7,350.424 2327.68,350.422 2330.66,350.42 2333.64,350.418 2336.62,350.416 2339.59,350.414 2342.57,350.412 2345.55,350.41 2348.53,350.408 2351.51,350.406 2354.49,350.404 2357.47,350.402 2360.44,350.4 2363.42,350.398 2366.4,350.396 2369.38,350.394 2372.36,350.392 2375.34,350.391 2378.32,350.389 2381.3,350.387 2384.27,350.385 2387.25,350.384 2390.23,350.382 2393.21,350.38 2396.19,350.379 2399.17,350.377 2402.15,350.376 2405.12,350.374 2408.1,350.372 2411.08,350.371 2414.06,350.369 2417.04,350.368 2420.02,350.367 2423,350.365 2425.97,350.364 2428.95,350.362 2431.93,350.361 2434.91,350.36 2437.89,350.358 2440.87,350.357 2443.85,350.356 2446.82,350.354 2449.8,350.353 2452.78,350.352 2455.76,350.351 2458.74,350.349 2461.72,350.348 2464.7,350.347 2467.67,350.346 2470.65,350.345 2473.63,350.344 2476.61,350.343 2479.59,350.342 2482.57,350.34 2485.55,350.339 2488.53,350.338 2491.5,350.337 2494.48,350.336 2497.46,350.335 2500.44,350.334 2503.42,350.334 2506.4,350.333 2509.38,350.332 2512.35,350.331 2515.33,350.33 2518.31,350.329 2521.29,350.328 2524.27,350.327 2527.25,350.326 2530.23,350.326 2533.2,350.325 2536.18,350.324 2539.16,350.323 2542.14,350.322 2545.12,350.322 2548.1,350.321 2551.08,350.32 2554.05,350.319 2557.03,350.319 2560.01,350.318 2562.99,350.317 2565.97,350.316 2568.95,350.316 2571.93,350.315 2574.9,350.314 2577.88,350.314 2580.86,350.313 2583.84,350.312 2586.82,350.312 2589.8,350.311 2592.78,350.311 2595.76,350.31 2598.73,350.309 2601.71,350.309 2604.69,350.308 2607.67,350.307 2610.65,350.307 2613.63,350.306 2616.61,350.306 2619.58,350.305 2622.56,350.305 2625.54,350.304 2628.52,350.303 2631.5,350.303 2634.48,350.302 2637.46,350.302 2640.43,350.301 2643.41,350.301 2646.39,350.3 2649.37,350.299 2652.35,350.299 2655.33,350.298 2658.31,350.298 2661.28,350.297 2664.26,350.297 2667.24,350.296 2670.22,350.296 2673.2,350.295 2676.18,350.294 2679.16,350.294 2682.14,350.293 2685.11,350.293 2688.09,350.292 2691.07,350.292 2694.05,350.291 2697.03,350.291 2700.01,350.29 2702.99,350.29 2705.96,350.289 2708.94,350.289 2711.92,350.288 2714.9,350.288 2717.88,350.287 2720.86,350.287 2723.84,350.286 2726.81,350.286 2729.79,350.285 2732.77,350.285 2735.75,350.285 2738.73,350.284 2741.71,350.284 2744.69,350.283 2747.66,350.283 2750.64,350.282 2753.62,350.282 2756.6,350.282 2759.58,350.281 2762.56,350.281 2765.54,350.28 2768.51,350.28 2771.49,350.279 2774.47,350.279 2777.45,350.279 2780.43,350.278 2783.41,350.278 2786.39,350.278 2789.37,350.277 2792.34,350.277 2795.32,350.276 2798.3,350.276 2801.28,350.276 2804.26,350.275 2807.24,350.275 2810.22,350.275 2813.19,350.274 2816.17,350.274 2819.15,350.274 2822.13,350.273 2825.11,350.273 2828.09,350.273 2831.07,350.273 2834.04,350.272 2837.02,350.272 2840,350.272 2842.98,350.271 2845.96,350.271 2848.94,350.271 2851.92,350.271 2854.89,350.27 2857.87,350.27 2860.85,350.27 2863.83,350.269 2866.81,350.269 2869.79,350.269 2872.77,350.269 2875.74,350.268 2878.72,350.268 2881.7,350.268 2884.68,350.268 2887.66,350.268 2890.64,350.267 2893.62,350.267 2896.6,350.267 2899.57,350.267 2902.55,350.267 2905.53,350.266 2908.51,350.266 2911.49,350.266 2914.47,350.266 2917.45,350.266 2920.42,350.265 2923.4,350.265 2926.38,350.265 2929.36,350.265 2932.34,350.265 2935.32,350.265 2938.3,350.264 2941.27,350.264 2944.25,350.264 2947.23,350.264 2950.21,350.264 2953.19,350.264 2956.17,350.263 2959.15,350.263 2962.12,350.263 2965.1,350.263 2968.08,350.263 2971.06,350.263 2974.04,350.263 2977.02,350.263 2980,350.262 2982.97,350.262 2985.95,350.262 2988.93,350.262 2991.91,350.262 2994.89,350.262 2997.87,350.262 3000.85,350.262 3003.83,350.262 3006.8,350.261 3009.78,350.261 3012.76,350.261 3015.74,350.261 3018.72,350.261 3021.7,350.261 3024.68,350.261 3027.65,350.261 3030.63,350.261 3033.61,350.261 3036.59,350.261 3039.57,350.26 3042.55,350.26 3045.53,350.26 3048.5,350.26 3051.48,350.26 3054.46,350.26 3057.44,350.26 3060.42,350.26 3063.4,350.26 3066.38,350.26 3069.35,350.26 3072.33,350.26 3075.31,350.26 3078.29,350.259 3081.27,350.259 3084.25,350.259 3087.23,350.259 3090.21,350.259 3093.18,350.259 3096.16,350.259 3099.14,350.259 3102.12,350.259 3105.1,350.259 3108.08,350.259 3111.06,350.259 3114.03,350.259 3117.01,350.259 3119.99,350.258 3122.97,350.258 3125.95,350.258 3128.93,350.258 3131.91,350.258 3134.88,350.258 3137.86,350.258 3140.84,350.258 3143.82,350.258 3146.8,350.258 3149.78,350.258 3152.76,350.258 "/>
<polyline clip-path="url(#clip162)" style="stroke:#3da44d; stroke-linecap:round; stroke-linejoin:round; stroke-width:12; stroke-opacity:1; fill:none" points="177.121,86.7664 180.1,86.7664 183.079,86.7664 186.057,86.7664 189.036,86.7664 192.014,86.7664 194.993,86.7664 197.972,86.7664 200.95,86.7664 203.929,86.7664 206.907,86.7664 209.886,86.7664 212.865,86.7664 215.843,86.7664 218.822,86.7664 221.801,86.7664 224.779,86.7664 227.758,86.7664 230.736,86.7664 233.715,86.7664 236.694,86.7664 239.672,86.7664 242.651,86.7664 245.629,86.7664 248.608,86.7664 251.587,86.7664 254.565,86.7664 257.544,86.7664 260.522,86.7664 263.501,86.7664 266.48,86.7664 269.458,86.7664 272.437,86.7664 275.416,86.7664 278.394,86.7664 281.373,86.7664 284.351,86.7664 287.33,86.7664 290.309,86.7664 293.287,86.7664 296.266,86.7664 299.244,86.7664 302.223,86.7664 305.202,86.7664 308.18,86.7664 311.159,86.7664 314.138,86.7664 317.116,86.7664 320.095,86.7664 323.073,86.7664 326.052,86.7664 329.031,86.7664 332.009,86.7664 334.988,86.7664 337.966,86.7664 340.945,86.7664 343.924,86.7664 346.902,86.7664 349.881,86.7664 352.859,86.7664 355.838,86.7664 358.817,86.7664 361.795,86.7664 364.774,86.7664 367.753,86.7664 370.731,86.7664 373.71,86.7664 376.688,86.7664 379.667,86.7664 382.646,86.7664 385.624,86.7664 388.603,86.7664 391.581,86.7664 394.56,86.7664 397.539,86.7664 400.517,86.7664 403.496,86.7664 406.475,86.7664 409.453,86.7664 412.432,86.7664 415.41,86.7664 418.389,86.7664 421.368,86.7664 424.346,86.7664 427.325,86.7664 430.303,86.7664 433.282,86.7664 436.261,86.7664 439.239,86.7664 442.218,86.7664 445.197,86.7664 448.175,86.7664 451.154,86.7664 454.132,86.7664 457.111,86.7664 460.09,86.7664 463.068,86.7664 466.047,86.7664 469.025,86.7664 472.004,86.7664 474.983,86.7664 477.961,86.7664 480.94,86.7664 483.918,86.7664 486.897,86.7664 489.876,86.7664 492.854,86.7664 495.833,86.7664 498.812,86.7664 501.79,86.7664 504.769,86.7664 507.747,86.7664 510.726,86.7664 513.705,86.7664 516.683,86.7664 519.662,86.7664 522.64,86.7664 525.619,86.7664 528.598,86.7664 531.576,86.7664 534.555,86.7664 537.534,86.7664 540.512,86.7664 543.491,86.7664 546.469,86.7664 549.448,86.7664 552.427,86.7664 555.405,86.7664 558.384,86.7664 561.362,86.7664 564.341,86.7664 567.32,86.7664 570.298,86.7664 573.277,86.7664 576.255,86.7664 579.234,86.7664 582.213,86.7664 585.191,86.7664 588.17,86.7664 591.149,86.7664 594.127,86.7664 597.106,86.7664 600.084,86.7664 603.063,86.7664 606.042,86.7664 609.02,86.7664 611.999,86.7664 614.977,86.7664 617.956,86.7664 620.935,86.7664 623.913,86.7664 626.892,86.7664 629.871,86.7664 632.849,86.7664 635.828,86.7664 638.806,86.7664 641.785,86.7664 644.764,86.7664 647.742,86.7664 650.721,86.7664 653.699,86.7664 656.678,86.7664 659.657,86.7664 662.635,86.7664 665.614,86.7664 668.592,86.7664 671.571,86.7664 674.55,86.7664 677.528,86.7664 680.507,86.7664 683.486,86.7664 686.464,86.7664 689.443,86.7664 692.421,86.7664 695.4,86.7664 698.379,86.7664 701.357,86.7664 704.336,86.7664 707.314,86.7664 710.293,86.7664 713.272,86.7664 716.25,86.7664 719.229,86.7664 722.208,86.7664 725.186,86.7664 728.165,86.7664 731.143,86.7664 734.122,86.7664 737.101,86.7664 740.079,86.7664 743.058,86.7664 746.036,86.7664 749.015,86.7664 751.994,86.7664 754.972,86.7664 757.951,86.7664 760.93,86.7664 763.908,86.7664 766.887,86.7664 769.865,86.7664 772.844,86.7664 775.823,86.7664 778.801,86.7664 781.78,86.7664 784.758,86.7664 787.737,86.7664 790.716,86.7664 793.694,86.7664 796.673,86.7664 799.651,86.7664 802.63,86.7664 805.609,86.7664 808.587,86.7664 811.566,86.7664 814.545,86.7664 817.523,86.7664 820.502,86.7664 823.48,86.7664 826.459,86.7664 829.438,86.7664 832.416,86.7664 835.395,86.7664 838.373,86.7664 841.352,86.7664 844.331,86.7664 847.309,86.7664 850.288,86.7664 853.267,86.7664 856.245,86.7664 859.224,86.7664 862.202,86.7664 865.181,86.7664 868.16,86.7664 871.138,86.7664 874.117,86.7664 877.095,86.7664 880.074,86.7664 883.053,86.7664 886.031,86.7664 889.01,86.7664 891.988,86.7664 894.967,86.7664 897.946,86.7664 900.924,86.7664 903.903,86.7664 906.882,86.7664 909.86,86.7664 912.839,86.7664 915.817,86.7664 918.796,86.7664 921.775,86.7664 924.753,86.7664 927.732,86.7664 930.71,86.7664 933.689,86.7664 936.668,86.7664 939.646,86.7664 942.625,86.7664 945.604,86.7664 948.582,86.7664 951.561,86.7664 954.539,86.7664 957.518,86.7664 960.497,86.7664 963.475,86.7664 966.454,86.7664 969.432,86.7664 972.411,86.7664 975.39,86.7664 978.368,86.7664 981.347,86.7664 984.325,86.7664 987.304,86.7664 990.283,86.7664 993.261,86.7664 996.24,86.7664 999.219,86.7664 1002.2,86.7664 1005.18,86.7664 1008.15,86.7664 1011.13,86.7664 1014.11,86.7664 1017.09,86.7664 1020.07,86.7664 1023.05,86.7664 1026.03,86.7664 1029,86.7664 1031.98,86.7664 1034.96,86.7664 1037.94,86.7664 1040.92,86.7664 1043.9,86.7664 1046.88,86.7664 1049.85,86.7664 1052.83,86.7664 1055.81,86.7664 1058.79,86.7664 1061.77,86.7664 1064.75,86.7664 1067.73,86.7664 1070.71,86.7664 1073.68,86.7664 1076.66,86.7664 1079.64,86.7664 1082.62,86.7664 1085.6,86.7664 1088.58,86.7664 1091.56,86.7664 1094.53,86.7664 1097.51,86.7664 1100.49,86.7664 1103.47,86.7664 1106.45,86.7664 1109.43,86.7664 1112.41,86.7664 1115.38,86.7664 1118.36,86.7664 1121.34,86.7664 1124.32,86.7664 1127.3,86.7664 1130.28,86.7664 1133.26,86.7664 1136.23,86.7664 1139.21,86.7664 1142.19,86.7664 1145.17,86.7664 1148.15,86.7664 1151.13,86.7664 1154.11,86.7664 1157.09,86.7664 1160.06,86.7664 1163.04,86.7664 1166.02,86.7664 1169,86.7664 1171.98,86.7664 1174.96,86.7664 1177.94,86.7664 1180.91,86.7664 1183.89,86.7664 1186.87,86.7664 1189.85,86.7664 1192.83,86.7664 1195.81,86.7664 1198.79,86.7664 1201.76,86.7664 1204.74,86.7664 1207.72,86.7664 1210.7,86.7664 1213.68,86.7664 1216.66,86.7664 1219.64,86.7664 1222.61,86.7664 1225.59,86.7664 1228.57,86.7664 1231.55,86.7664 1234.53,86.7664 1237.51,86.7664 1240.49,86.7664 1243.46,86.7664 1246.44,86.7664 1249.42,86.7664 1252.4,86.7664 1255.38,86.7664 1258.36,86.7664 1261.34,86.7664 1264.32,86.7664 1267.29,86.7664 1270.27,86.7664 1273.25,86.7664 1276.23,86.7664 1279.21,86.7664 1282.19,86.7664 1285.17,86.7664 1288.14,86.7664 1291.12,86.7664 1294.1,86.7664 1297.08,86.7664 1300.06,86.7664 1303.04,86.7664 1306.02,86.7664 1308.99,86.7664 1311.97,86.7664 1314.95,86.7664 1317.93,86.7664 1320.91,86.7664 1323.89,86.7664 1326.87,86.7664 1329.84,86.7664 1332.82,86.7664 1335.8,86.7664 1338.78,86.7664 1341.76,86.7664 1344.74,86.7664 1347.72,86.7664 1350.69,86.7664 1353.67,86.7664 1356.65,86.7664 1359.63,86.7664 1362.61,86.7664 1365.59,86.7664 1368.57,86.7664 1371.55,86.7664 1374.52,86.7664 1377.5,86.7664 1380.48,86.7664 1383.46,86.7664 1386.44,86.7664 1389.42,86.7664 1392.4,86.7664 1395.37,86.7664 1398.35,86.7664 1401.33,86.7664 1404.31,86.7664 1407.29,86.7664 1410.27,86.7664 1413.25,86.7664 1416.22,86.7664 1419.2,86.7664 1422.18,86.7664 1425.16,86.7664 1428.14,86.7664 1431.12,86.7664 1434.1,86.7664 1437.07,86.7664 1440.05,86.7664 1443.03,86.7664 1446.01,86.7664 1448.99,86.7664 1451.97,86.7664 1454.95,86.7664 1457.92,86.7664 1460.9,86.7664 1463.88,86.7664 1466.86,86.7664 1469.84,86.7664 1472.82,86.7664 1475.8,86.7664 1478.78,86.7664 1481.75,86.7664 1484.73,86.7664 1487.71,86.7664 1490.69,86.7664 1493.67,86.7664 1496.65,86.7664 1499.63,86.7664 1502.6,86.7664 1505.58,86.7664 1508.56,86.7664 1511.54,86.7664 1514.52,86.7664 1517.5,86.7664 1520.48,86.7664 1523.45,86.7664 1526.43,86.7664 1529.41,86.7664 1532.39,86.7664 1535.37,86.7664 1538.35,86.7664 1541.33,86.7664 1544.3,86.7664 1547.28,86.7664 1550.26,86.7664 1553.24,86.7664 1556.22,86.7664 1559.2,86.7664 1562.18,86.7664 1565.16,86.7664 1568.13,86.7664 1571.11,86.7664 1574.09,86.7664 1577.07,86.7664 1580.05,86.7664 1583.03,86.7664 1586.01,86.7664 1588.98,86.7664 1591.96,86.7664 1594.94,86.7664 1597.92,86.7664 1600.9,86.7664 1603.88,86.7664 1606.86,86.7664 1609.83,86.7664 1612.81,86.7664 1615.79,86.7664 1618.77,86.7664 1621.75,86.7664 1624.73,86.7664 1627.71,86.7664 1630.68,86.7664 1633.66,86.7664 1636.64,86.7664 1639.62,86.7664 1642.6,86.7664 1645.58,86.7664 1648.56,86.7664 1651.53,86.7664 1654.51,86.7664 1657.49,86.7664 1660.47,86.7664 1663.45,86.7664 1666.43,86.7664 1669.41,86.7664 1672.39,86.7664 1675.36,86.7664 1678.34,86.7664 1681.32,86.7664 1684.3,86.7664 1687.28,86.7664 1690.26,86.7664 1693.24,86.7664 1696.21,86.7664 1699.19,86.7664 1702.17,86.7664 1705.15,86.7664 1708.13,86.7664 1711.11,86.7664 1714.09,86.7664 1717.06,86.7664 1720.04,86.7664 1723.02,86.7664 1726,86.7664 1728.98,86.7664 1731.96,86.7664 1734.94,86.7664 1737.91,86.7664 1740.89,86.7664 1743.87,86.7664 1746.85,86.7664 1749.83,86.7664 1752.81,86.7664 1755.79,86.7664 1758.76,86.7664 1761.74,86.7664 1764.72,86.7664 1767.7,86.7664 1770.68,86.7664 1773.66,86.7664 1776.64,86.7664 1779.62,86.7664 1782.59,86.7664 1785.57,86.7664 1788.55,86.7664 1791.53,86.7664 1794.51,86.7664 1797.49,86.7664 1800.47,86.7664 1803.44,86.7664 1806.42,86.7664 1809.4,86.7664 1812.38,86.7664 1815.36,86.7664 1818.34,86.7664 1821.32,86.7664 1824.29,86.7664 1827.27,86.7664 1830.25,86.7664 1833.23,86.7664 1836.21,86.7664 1839.19,86.7664 1842.17,86.7664 1845.14,86.7664 1848.12,86.7664 1851.1,86.7664 1854.08,86.7664 1857.06,86.7664 1860.04,86.7664 1863.02,86.7664 1866,86.7664 1868.97,86.7664 1871.95,86.7664 1874.93,86.7664 1877.91,86.7664 1880.89,86.7664 1883.87,86.7664 1886.85,86.7664 1889.82,86.7664 1892.8,86.7664 1895.78,86.7664 1898.76,86.7664 1901.74,86.7664 1904.72,86.7664 1907.7,86.7664 1910.67,86.7664 1913.65,86.7664 1916.63,86.7664 1919.61,86.7664 1922.59,86.7664 1925.57,86.7664 1928.55,86.7664 1931.52,86.7664 1934.5,86.7664 1937.48,86.7664 1940.46,86.7664 1943.44,86.7664 1946.42,86.7664 1949.4,86.7664 1952.37,86.7664 1955.35,86.7664 1958.33,86.7664 1961.31,86.7664 1964.29,86.7664 1967.27,86.7664 1970.25,86.7664 1973.23,86.7664 1976.2,86.7664 1979.18,86.7664 1982.16,86.7664 1985.14,86.7664 1988.12,86.7664 1991.1,86.7664 1994.08,86.7664 1997.05,86.7664 2000.03,86.7664 2003.01,86.7664 2005.99,86.7664 2008.97,86.7664 2011.95,86.7664 2014.93,86.7664 2017.9,86.7664 2020.88,86.7664 2023.86,86.7664 2026.84,86.7664 2029.82,86.7664 2032.8,86.7664 2035.78,86.7664 2038.75,86.7664 2041.73,86.7664 2044.71,86.7664 2047.69,86.7664 2050.67,86.7664 2053.65,86.7664 2056.63,86.7664 2059.6,86.7664 2062.58,86.7664 2065.56,86.7664 2068.54,86.7664 2071.52,86.7664 2074.5,86.7664 2077.48,86.7664 2080.46,86.7664 2083.43,86.7664 2086.41,86.7664 2089.39,86.7664 2092.37,86.7664 2095.35,86.7664 2098.33,86.7664 2101.31,86.7664 2104.28,86.7664 2107.26,86.7664 2110.24,86.7664 2113.22,86.7664 2116.2,86.7664 2119.18,86.7664 2122.16,86.7664 2125.13,86.7664 2128.11,86.7664 2131.09,86.7664 2134.07,86.7664 2137.05,86.7664 2140.03,86.7664 2143.01,86.7664 2145.98,86.7664 2148.96,86.7664 2151.94,86.7664 2154.92,86.7664 2157.9,86.7664 2160.88,86.7664 2163.86,86.7664 2166.83,86.7664 2169.81,86.7664 2172.79,86.7664 2175.77,86.7664 2178.75,86.7664 2181.73,86.7664 2184.71,86.7664 2187.69,86.7664 2190.66,86.7664 2193.64,86.7664 2196.62,86.7664 2199.6,86.7664 2202.58,86.7664 2205.56,86.7664 2208.54,86.7664 2211.51,86.7664 2214.49,86.7664 2217.47,86.7664 2220.45,86.7664 2223.43,86.7664 2226.41,86.7664 2229.39,86.7664 2232.36,86.7664 2235.34,86.7664 2238.32,86.7664 2241.3,86.7664 2244.28,86.7664 2247.26,86.7664 2250.24,86.7664 2253.21,86.7664 2256.19,86.7664 2259.17,86.7664 2262.15,86.7664 2265.13,86.7664 2268.11,86.7664 2271.09,86.7664 2274.07,86.7664 2277.04,86.7664 2280.02,86.7664 2283,86.7664 2285.98,86.7664 2288.96,86.7664 2291.94,86.7664 2294.92,86.7664 2297.89,86.7664 2300.87,86.7664 2303.85,86.7664 2306.83,86.7664 2309.81,86.7664 2312.79,86.7664 2315.77,86.7664 2318.74,86.7664 2321.72,86.7664 2324.7,86.7664 2327.68,86.7664 2330.66,86.7664 2333.64,86.7664 2336.62,86.7664 2339.59,86.7664 2342.57,86.7664 2345.55,86.7664 2348.53,86.7664 2351.51,86.7664 2354.49,86.7664 2357.47,86.7664 2360.44,86.7664 2363.42,86.7664 2366.4,86.7664 2369.38,86.7664 2372.36,86.7664 2375.34,86.7664 2378.32,86.7664 2381.3,86.7664 2384.27,86.7664 2387.25,86.7664 2390.23,86.7664 2393.21,86.7664 2396.19,86.7664 2399.17,86.7664 2402.15,86.7664 2405.12,86.7664 2408.1,86.7664 2411.08,86.7664 2414.06,86.7664 2417.04,86.7664 2420.02,86.7664 2423,86.7664 2425.97,86.7664 2428.95,86.7664 2431.93,86.7664 2434.91,86.7664 2437.89,86.7664 2440.87,86.7664 2443.85,86.7664 2446.82,86.7664 2449.8,86.7664 2452.78,86.7664 2455.76,86.7664 2458.74,86.7664 2461.72,86.7664 2464.7,86.7664 2467.67,86.7664 2470.65,86.7664 2473.63,86.7664 2476.61,86.7664 2479.59,86.7664 2482.57,86.7664 2485.55,86.7664 2488.53,86.7664 2491.5,86.7664 2494.48,86.7664 2497.46,86.7664 2500.44,86.7664 2503.42,86.7664 2506.4,86.7664 2509.38,86.7664 2512.35,86.7664 2515.33,86.7664 2518.31,86.7664 2521.29,86.7664 2524.27,86.7664 2527.25,86.7664 2530.23,86.7664 2533.2,86.7664 2536.18,86.7664 2539.16,86.7664 2542.14,86.7664 2545.12,86.7664 2548.1,86.7664 2551.08,86.7664 2554.05,86.7664 2557.03,86.7664 2560.01,86.7664 2562.99,86.7664 2565.97,86.7664 2568.95,86.7664 2571.93,86.7664 2574.9,86.7664 2577.88,86.7664 2580.86,86.7664 2583.84,86.7664 2586.82,86.7664 2589.8,86.7664 2592.78,86.7664 2595.76,86.7664 2598.73,86.7664 2601.71,86.7664 2604.69,86.7664 2607.67,86.7664 2610.65,86.7664 2613.63,86.7664 2616.61,86.7664 2619.58,86.7664 2622.56,86.7664 2625.54,86.7664 2628.52,86.7664 2631.5,86.7664 2634.48,86.7664 2637.46,86.7664 2640.43,86.7664 2643.41,86.7664 2646.39,86.7664 2649.37,86.7664 2652.35,86.7664 2655.33,86.7664 2658.31,86.7664 2661.28,86.7664 2664.26,86.7664 2667.24,86.7664 2670.22,86.7664 2673.2,86.7664 2676.18,86.7664 2679.16,86.7664 2682.14,86.7664 2685.11,86.7664 2688.09,86.7664 2691.07,86.7664 2694.05,86.7664 2697.03,86.7664 2700.01,86.7664 2702.99,86.7664 2705.96,86.7664 2708.94,86.7664 2711.92,86.7664 2714.9,86.7664 2717.88,86.7664 2720.86,86.7664 2723.84,86.7664 2726.81,86.7664 2729.79,86.7664 2732.77,86.7664 2735.75,86.7664 2738.73,86.7664 2741.71,86.7664 2744.69,86.7664 2747.66,86.7664 2750.64,86.7664 2753.62,86.7664 2756.6,86.7664 2759.58,86.7664 2762.56,86.7664 2765.54,86.7664 2768.51,86.7664 2771.49,86.7664 2774.47,86.7664 2777.45,86.7664 2780.43,86.7664 2783.41,86.7664 2786.39,86.7664 2789.37,86.7664 2792.34,86.7664 2795.32,86.7664 2798.3,86.7664 2801.28,86.7664 2804.26,86.7664 2807.24,86.7664 2810.22,86.7664 2813.19,86.7664 2816.17,86.7664 2819.15,86.7664 2822.13,86.7664 2825.11,86.7664 2828.09,86.7664 2831.07,86.7664 2834.04,86.7664 2837.02,86.7664 2840,86.7664 2842.98,86.7664 2845.96,86.7664 2848.94,86.7664 2851.92,86.7664 2854.89,86.7664 2857.87,86.7664 2860.85,86.7664 2863.83,86.7664 2866.81,86.7664 2869.79,86.7664 2872.77,86.7664 2875.74,86.7664 2878.72,86.7664 2881.7,86.7664 2884.68,86.7664 2887.66,86.7664 2890.64,86.7664 2893.62,86.7664 2896.6,86.7664 2899.57,86.7664 2902.55,86.7664 2905.53,86.7664 2908.51,86.7664 2911.49,86.7664 2914.47,86.7664 2917.45,86.7664 2920.42,86.7664 2923.4,86.7664 2926.38,86.7664 2929.36,86.7664 2932.34,86.7664 2935.32,86.7664 2938.3,86.7664 2941.27,86.7664 2944.25,86.7664 2947.23,86.7664 2950.21,86.7664 2953.19,86.7664 2956.17,86.7664 2959.15,86.7664 2962.12,86.7664 2965.1,86.7664 2968.08,86.7664 2971.06,86.7664 2974.04,86.7664 2977.02,86.7664 2980,86.7664 2982.97,86.7664 2985.95,86.7664 2988.93,86.7664 2991.91,86.7664 2994.89,86.7664 2997.87,86.7664 3000.85,86.7664 3003.83,86.7664 3006.8,86.7664 3009.78,86.7664 3012.76,86.7664 3015.74,86.7664 3018.72,86.7664 3021.7,86.7664 3024.68,86.7664 3027.65,86.7664 3030.63,86.7664 3033.61,86.7664 3036.59,86.7664 3039.57,86.7664 3042.55,86.7664 3045.53,86.7664 3048.5,86.7664 3051.48,86.7664 3054.46,86.7664 3057.44,86.7664 3060.42,86.7664 3063.4,86.7664 3066.38,86.7664 3069.35,86.7664 3072.33,86.7664 3075.31,86.7664 3078.29,86.7664 3081.27,86.7664 3084.25,86.7664 3087.23,86.7664 3090.21,86.7664 3093.18,86.7664 3096.16,86.7664 3099.14,86.7664 3102.12,86.7664 3105.1,86.7664 3108.08,86.7664 3111.06,86.7664 3114.03,86.7664 3117.01,86.7664 3119.99,86.7664 3122.97,86.7664 3125.95,86.7664 3128.93,86.7664 3131.91,86.7664 3134.88,86.7664 3137.86,86.7664 3140.84,86.7664 3143.82,86.7664 3146.8,86.7664 3149.78,86.7664 3152.76,86.7664 "/>
<path clip-path="url(#clip160)" d="M276.309 1397.15 L1295.88 1397.15 L1295.88 1189.79 L276.309 1189.79  Z" fill="#ffffff" fill-rule="evenodd" fill-opacity="1"/>
<polyline clip-path="url(#clip160)" style="stroke:#000000; stroke-linecap:round; stroke-linejoin:round; stroke-width:4; stroke-opacity:1; fill:none" points="276.309,1397.15 1295.88,1397.15 1295.88,1189.79 276.309,1189.79 276.309,1397.15 "/>
<polyline clip-path="url(#clip160)" style="stroke:#009af9; stroke-linecap:round; stroke-linejoin:round; stroke-width:12; stroke-opacity:1; fill:none" points="309.372,1241.63 507.747,1241.63 "/>
<path clip-path="url(#clip160)" d="M542.384 1224.35 L547.407 1224.35 L555.995 1237.2 L564.629 1224.35 L569.652 1224.35 L558.541 1240.95 L570.393 1258.91 L565.37 1258.91 L555.648 1244.21 L545.856 1258.91 L540.81 1258.91 L553.148 1240.46 L542.384 1224.35 Z" fill="#000000" fill-rule="nonzero" fill-opacity="1" /><path clip-path="url(#clip160)" d="M575.486 1256.37 L580.208 1256.37 L580.208 1242.22 L575.046 1243.17 L575.046 1240.49 L580.37 1239.58 L583.541 1239.58 L583.541 1256.37 L588.287 1256.37 L588.287 1258.91 L575.486 1258.91 L575.486 1256.37 Z" fill="#000000" fill-rule="nonzero" fill-opacity="1" /><polyline clip-path="url(#clip160)" style="stroke:#e26f46; stroke-linecap:round; stroke-linejoin:round; stroke-width:12; stroke-opacity:1; fill:none" points="309.372,1293.47 507.747,1293.47 "/>
<path clip-path="url(#clip160)" d="M542.384 1276.19 L547.407 1276.19 L555.995 1289.04 L564.629 1276.19 L569.652 1276.19 L558.541 1292.79 L570.393 1310.75 L565.37 1310.75 L555.648 1296.05 L545.856 1310.75 L540.81 1310.75 L553.148 1292.3 L542.384 1276.19 Z" fill="#000000" fill-rule="nonzero" fill-opacity="1" /><path clip-path="url(#clip160)" d="M578.078 1308.11 L587.893 1308.11 L587.893 1310.75 L574.051 1310.75 L574.051 1308.21 Q574.838 1307.49 576.296 1306.19 Q584.259 1299.13 584.259 1296.96 Q584.259 1295.43 583.055 1294.5 Q581.851 1293.55 579.884 1293.55 Q578.68 1293.55 577.268 1293.97 Q575.856 1294.36 574.189 1295.17 L574.189 1292.33 Q575.972 1291.68 577.5 1291.35 Q579.051 1291.03 580.37 1291.03 Q583.726 1291.03 585.74 1292.56 Q587.754 1294.08 587.754 1296.58 Q587.754 1299.8 580.092 1306.38 Q578.796 1307.49 578.078 1308.11 Z" fill="#000000" fill-rule="nonzero" fill-opacity="1" /><polyline clip-path="url(#clip160)" style="stroke:#3da44d; stroke-linecap:round; stroke-linejoin:round; stroke-width:12; stroke-opacity:1; fill:none" points="309.372,1345.31 507.747,1345.31 "/>
<path clip-path="url(#clip160)" d="M542.384 1328.03 L547.407 1328.03 L555.995 1340.88 L564.629 1328.03 L569.652 1328.03 L558.541 1344.63 L570.393 1362.59 L565.37 1362.59 L555.648 1347.89 L545.856 1362.59 L540.81 1362.59 L553.148 1344.14 L542.384 1328.03 Z" fill="#000000" fill-rule="nonzero" fill-opacity="1" /><path clip-path="url(#clip160)" d="M575.486 1360.05 L580.208 1360.05 L580.208 1345.9 L575.046 1346.85 L575.046 1344.17 L580.37 1343.26 L583.541 1343.26 L583.541 1360.05 L588.287 1360.05 L588.287 1362.59 L575.486 1362.59 L575.486 1360.05 Z" fill="#000000" fill-rule="nonzero" fill-opacity="1" /><path clip-path="url(#clip160)" d="M627.754 1332.87 L627.754 1345.76 L640.647 1345.76 L640.647 1349.7 L627.754 1349.7 L627.754 1362.59 L623.865 1362.59 L623.865 1349.7 L610.972 1349.7 L610.972 1345.76 L623.865 1345.76 L623.865 1332.87 L627.754 1332.87 Z" fill="#000000" fill-rule="nonzero" fill-opacity="1" /><path clip-path="url(#clip160)" d="M663.726 1328.03 L668.749 1328.03 L677.337 1340.88 L685.971 1328.03 L690.994 1328.03 L679.883 1344.63 L691.735 1362.59 L686.712 1362.59 L676.99 1347.89 L667.198 1362.59 L662.152 1362.59 L674.49 1344.14 L663.726 1328.03 Z" fill="#000000" fill-rule="nonzero" fill-opacity="1" /><path clip-path="url(#clip160)" d="M699.42 1359.95 L709.235 1359.95 L709.235 1362.59 L695.392 1362.59 L695.392 1360.05 Q696.18 1359.33 697.638 1358.03 Q705.601 1350.97 705.601 1348.8 Q705.601 1347.27 704.397 1346.34 Q703.193 1345.39 701.226 1345.39 Q700.022 1345.39 698.61 1345.81 Q697.198 1346.2 695.531 1347.01 L695.531 1344.17 Q697.314 1343.52 698.842 1343.19 Q700.392 1342.87 701.712 1342.87 Q705.068 1342.87 707.082 1344.4 Q709.096 1345.92 709.096 1348.42 Q709.096 1351.64 701.434 1358.22 Q700.138 1359.33 699.42 1359.95 Z" fill="#000000" fill-rule="nonzero" fill-opacity="1" /><path clip-path="url(#clip160)" d="M741.989 1326.62 Q738.888 1331.94 737.383 1337.15 Q735.878 1342.36 735.878 1347.71 Q735.878 1353.05 737.383 1358.31 Q738.911 1363.54 741.989 1368.84 L738.286 1368.84 Q734.814 1363.4 733.077 1358.15 Q731.365 1352.89 731.365 1347.71 Q731.365 1342.55 733.077 1337.31 Q734.79 1332.08 738.286 1326.62 L741.989 1326.62 Z" fill="#000000" fill-rule="nonzero" fill-opacity="1" /><path clip-path="url(#clip160)" d="M762.036 1349.56 Q756.874 1349.56 754.883 1350.74 Q752.892 1351.92 752.892 1354.77 Q752.892 1357.04 754.374 1358.38 Q755.878 1359.7 758.448 1359.7 Q761.989 1359.7 764.119 1357.2 Q766.272 1354.67 766.272 1350.51 L766.272 1349.56 L762.036 1349.56 M770.531 1347.8 L770.531 1362.59 L766.272 1362.59 L766.272 1358.66 Q764.813 1361.02 762.638 1362.15 Q760.462 1363.26 757.313 1363.26 Q753.332 1363.26 750.971 1361.04 Q748.633 1358.8 748.633 1355.05 Q748.633 1350.67 751.55 1348.45 Q754.489 1346.23 760.3 1346.23 L766.272 1346.23 L766.272 1345.81 Q766.272 1342.87 764.327 1341.27 Q762.406 1339.65 758.911 1339.65 Q756.688 1339.65 754.582 1340.18 Q752.476 1340.72 750.531 1341.78 L750.531 1337.85 Q752.869 1336.94 755.068 1336.5 Q757.267 1336.04 759.35 1336.04 Q764.975 1336.04 767.753 1338.96 Q770.531 1341.87 770.531 1347.8 Z" fill="#000000" fill-rule="nonzero" fill-opacity="1" /><path clip-path="url(#clip160)" d="M813.031 1337.66 L813.031 1341.64 Q811.225 1340.65 809.397 1340.16 Q807.591 1339.65 805.739 1339.65 Q801.596 1339.65 799.304 1342.29 Q797.012 1344.91 797.012 1349.65 Q797.012 1354.4 799.304 1357.04 Q801.596 1359.65 805.739 1359.65 Q807.591 1359.65 809.397 1359.17 Q811.225 1358.66 813.031 1357.66 L813.031 1361.6 Q811.248 1362.43 809.327 1362.85 Q807.429 1363.26 805.276 1363.26 Q799.42 1363.26 795.971 1359.58 Q792.522 1355.9 792.522 1349.65 Q792.522 1343.31 795.994 1339.67 Q799.489 1336.04 805.554 1336.04 Q807.522 1336.04 809.397 1336.46 Q811.272 1336.85 813.031 1337.66 Z" fill="#000000" fill-rule="nonzero" fill-opacity="1" /><path clip-path="url(#clip160)" d="M830.484 1339.65 Q827.058 1339.65 825.068 1342.34 Q823.077 1345 823.077 1349.65 Q823.077 1354.3 825.045 1356.99 Q827.035 1359.65 830.484 1359.65 Q833.887 1359.65 835.878 1356.97 Q837.869 1354.28 837.869 1349.65 Q837.869 1345.05 835.878 1342.36 Q833.887 1339.65 830.484 1339.65 M830.484 1336.04 Q836.04 1336.04 839.211 1339.65 Q842.382 1343.26 842.382 1349.65 Q842.382 1356.02 839.211 1359.65 Q836.04 1363.26 830.484 1363.26 Q824.906 1363.26 821.734 1359.65 Q818.586 1356.02 818.586 1349.65 Q818.586 1343.26 821.734 1339.65 Q824.906 1336.04 830.484 1336.04 Z" fill="#000000" fill-rule="nonzero" fill-opacity="1" /><path clip-path="url(#clip160)" d="M870.993 1346.94 L870.993 1362.59 L866.734 1362.59 L866.734 1347.08 Q866.734 1343.4 865.299 1341.57 Q863.864 1339.74 860.993 1339.74 Q857.544 1339.74 855.554 1341.94 Q853.563 1344.14 853.563 1347.94 L853.563 1362.59 L849.281 1362.59 L849.281 1336.67 L853.563 1336.67 L853.563 1340.69 Q855.091 1338.36 857.151 1337.2 Q859.234 1336.04 861.943 1336.04 Q866.41 1336.04 868.702 1338.82 Q870.993 1341.57 870.993 1346.94 Z" fill="#000000" fill-rule="nonzero" fill-opacity="1" /><path clip-path="url(#clip160)" d="M896.016 1337.43 L896.016 1341.46 Q894.211 1340.53 892.266 1340.07 Q890.322 1339.61 888.239 1339.61 Q885.067 1339.61 883.47 1340.58 Q881.896 1341.55 881.896 1343.49 Q881.896 1344.98 883.03 1345.83 Q884.165 1346.67 887.591 1347.43 L889.049 1347.75 Q893.586 1348.73 895.484 1350.51 Q897.405 1352.27 897.405 1355.44 Q897.405 1359.05 894.535 1361.16 Q891.688 1363.26 886.688 1363.26 Q884.604 1363.26 882.336 1362.85 Q880.091 1362.45 877.591 1361.64 L877.591 1357.24 Q879.952 1358.47 882.243 1359.1 Q884.535 1359.7 886.78 1359.7 Q889.79 1359.7 891.41 1358.68 Q893.03 1357.64 893.03 1355.76 Q893.03 1354.03 891.85 1353.1 Q890.692 1352.17 886.734 1351.32 L885.253 1350.97 Q881.294 1350.14 879.535 1348.42 Q877.776 1346.69 877.776 1343.68 Q877.776 1340.02 880.368 1338.03 Q882.961 1336.04 887.729 1336.04 Q890.091 1336.04 892.174 1336.39 Q894.257 1336.73 896.016 1337.43 Z" fill="#000000" fill-rule="nonzero" fill-opacity="1" /><path clip-path="url(#clip160)" d="M926.363 1348.56 L926.363 1350.65 L906.78 1350.65 Q907.058 1355.05 909.419 1357.36 Q911.803 1359.65 916.039 1359.65 Q918.493 1359.65 920.785 1359.05 Q923.1 1358.45 925.368 1357.24 L925.368 1361.27 Q923.076 1362.24 920.669 1362.75 Q918.262 1363.26 915.785 1363.26 Q909.581 1363.26 905.947 1359.65 Q902.336 1356.04 902.336 1349.88 Q902.336 1343.52 905.762 1339.79 Q909.211 1336.04 915.044 1336.04 Q920.276 1336.04 923.308 1339.42 Q926.363 1342.78 926.363 1348.56 M922.104 1347.31 Q922.058 1343.82 920.137 1341.73 Q918.239 1339.65 915.09 1339.65 Q911.526 1339.65 909.373 1341.67 Q907.243 1343.68 906.919 1347.34 L922.104 1347.31 Z" fill="#000000" fill-rule="nonzero" fill-opacity="1" /><path clip-path="url(#clip160)" d="M948.377 1340.65 Q947.66 1340.23 946.803 1340.05 Q945.97 1339.84 944.951 1339.84 Q941.34 1339.84 939.396 1342.2 Q937.475 1344.54 937.475 1348.93 L937.475 1362.59 L933.192 1362.59 L933.192 1336.67 L937.475 1336.67 L937.475 1340.69 Q938.817 1338.33 940.97 1337.2 Q943.123 1336.04 946.201 1336.04 Q946.641 1336.04 947.174 1336.11 Q947.706 1336.16 948.354 1336.27 L948.377 1340.65 Z" fill="#000000" fill-rule="nonzero" fill-opacity="1" /><path clip-path="url(#clip160)" d="M949.789 1336.67 L954.303 1336.67 L962.405 1358.42 L970.507 1336.67 L975.021 1336.67 L965.298 1362.59 L959.511 1362.59 L949.789 1336.67 Z" fill="#000000" fill-rule="nonzero" fill-opacity="1" /><path clip-path="url(#clip160)" d="M1003.08 1348.56 L1003.08 1350.65 L983.493 1350.65 Q983.771 1355.05 986.132 1357.36 Q988.516 1359.65 992.752 1359.65 Q995.206 1359.65 997.497 1359.05 Q999.812 1358.45 1002.08 1357.24 L1002.08 1361.27 Q999.789 1362.24 997.382 1362.75 Q994.974 1363.26 992.497 1363.26 Q986.294 1363.26 982.659 1359.65 Q979.048 1356.04 979.048 1349.88 Q979.048 1343.52 982.474 1339.79 Q985.923 1336.04 991.757 1336.04 Q996.988 1336.04 1000.02 1339.42 Q1003.08 1342.78 1003.08 1348.56 M998.817 1347.31 Q998.77 1343.82 996.849 1341.73 Q994.951 1339.65 991.803 1339.65 Q988.238 1339.65 986.085 1341.67 Q983.956 1343.68 983.632 1347.34 L998.817 1347.31 Z" fill="#000000" fill-rule="nonzero" fill-opacity="1" /><path clip-path="url(#clip160)" d="M1027.13 1340.6 L1027.13 1326.57 L1031.39 1326.57 L1031.39 1362.59 L1027.13 1362.59 L1027.13 1358.7 Q1025.78 1361.02 1023.72 1362.15 Q1021.69 1363.26 1018.82 1363.26 Q1014.12 1363.26 1011.15 1359.51 Q1008.21 1355.76 1008.21 1349.65 Q1008.21 1343.54 1011.15 1339.79 Q1014.12 1336.04 1018.82 1336.04 Q1021.69 1336.04 1023.72 1337.17 Q1025.78 1338.29 1027.13 1340.6 M1012.61 1349.65 Q1012.61 1354.35 1014.53 1357.04 Q1016.48 1359.7 1019.86 1359.7 Q1023.24 1359.7 1025.18 1357.04 Q1027.13 1354.35 1027.13 1349.65 Q1027.13 1344.95 1025.18 1342.29 Q1023.24 1339.61 1019.86 1339.61 Q1016.48 1339.61 1014.53 1342.29 Q1012.61 1344.95 1012.61 1349.65 Z" fill="#000000" fill-rule="nonzero" fill-opacity="1" /><path clip-path="url(#clip160)" d="M1057.77 1349.65 Q1057.77 1354.35 1059.7 1357.04 Q1061.64 1359.7 1065.02 1359.7 Q1068.4 1359.7 1070.34 1357.04 Q1072.29 1354.35 1072.29 1349.65 Q1072.29 1344.95 1070.34 1342.29 Q1068.4 1339.61 1065.02 1339.61 Q1061.64 1339.61 1059.7 1342.29 Q1057.77 1344.95 1057.77 1349.65 M1072.29 1358.7 Q1070.95 1361.02 1068.89 1362.15 Q1066.85 1363.26 1063.98 1363.26 Q1059.28 1363.26 1056.32 1359.51 Q1053.38 1355.76 1053.38 1349.65 Q1053.38 1343.54 1056.32 1339.79 Q1059.28 1336.04 1063.98 1336.04 Q1066.85 1336.04 1068.89 1337.17 Q1070.95 1338.29 1072.29 1340.6 L1072.29 1336.67 L1076.55 1336.67 L1076.55 1372.45 L1072.29 1372.45 L1072.29 1358.7 Z" fill="#000000" fill-rule="nonzero" fill-opacity="1" /><path clip-path="url(#clip160)" d="M1084.88 1352.36 L1084.88 1336.67 L1089.14 1336.67 L1089.14 1352.2 Q1089.14 1355.88 1090.58 1357.73 Q1092.01 1359.56 1094.88 1359.56 Q1098.33 1359.56 1100.32 1357.36 Q1102.33 1355.16 1102.33 1351.36 L1102.33 1336.67 L1106.59 1336.67 L1106.59 1362.59 L1102.33 1362.59 L1102.33 1358.61 Q1100.78 1360.97 1098.72 1362.13 Q1096.69 1363.26 1093.98 1363.26 Q1089.51 1363.26 1087.2 1360.48 Q1084.88 1357.71 1084.88 1352.36 M1095.6 1336.04 L1095.6 1336.04 Z" fill="#000000" fill-rule="nonzero" fill-opacity="1" /><path clip-path="url(#clip160)" d="M1127.15 1349.56 Q1121.99 1349.56 1120 1350.74 Q1118.01 1351.92 1118.01 1354.77 Q1118.01 1357.04 1119.49 1358.38 Q1120.99 1359.7 1123.56 1359.7 Q1127.1 1359.7 1129.23 1357.2 Q1131.39 1354.67 1131.39 1350.51 L1131.39 1349.56 L1127.15 1349.56 M1135.64 1347.8 L1135.64 1362.59 L1131.39 1362.59 L1131.39 1358.66 Q1129.93 1361.02 1127.75 1362.15 Q1125.58 1363.26 1122.43 1363.26 Q1118.45 1363.26 1116.08 1361.04 Q1113.75 1358.8 1113.75 1355.05 Q1113.75 1350.67 1116.66 1348.45 Q1119.6 1346.23 1125.41 1346.23 L1131.39 1346.23 L1131.39 1345.81 Q1131.39 1342.87 1129.44 1341.27 Q1127.52 1339.65 1124.02 1339.65 Q1121.8 1339.65 1119.7 1340.18 Q1117.59 1340.72 1115.64 1341.78 L1115.64 1337.85 Q1117.98 1336.94 1120.18 1336.5 Q1122.38 1336.04 1124.46 1336.04 Q1130.09 1336.04 1132.87 1338.96 Q1135.64 1341.87 1135.64 1347.8 Z" fill="#000000" fill-rule="nonzero" fill-opacity="1" /><path clip-path="url(#clip160)" d="M1165.97 1346.94 L1165.97 1362.59 L1161.71 1362.59 L1161.71 1347.08 Q1161.71 1343.4 1160.27 1341.57 Q1158.84 1339.74 1155.97 1339.74 Q1152.52 1339.74 1150.53 1341.94 Q1148.54 1344.14 1148.54 1347.94 L1148.54 1362.59 L1144.26 1362.59 L1144.26 1336.67 L1148.54 1336.67 L1148.54 1340.69 Q1150.07 1338.36 1152.13 1337.2 Q1154.21 1336.04 1156.92 1336.04 Q1161.39 1336.04 1163.68 1338.82 Q1165.97 1341.57 1165.97 1346.94 Z" fill="#000000" fill-rule="nonzero" fill-opacity="1" /><path clip-path="url(#clip160)" d="M1178.68 1329.3 L1178.68 1336.67 L1187.45 1336.67 L1187.45 1339.98 L1178.68 1339.98 L1178.68 1354.05 Q1178.68 1357.22 1179.53 1358.12 Q1180.41 1359.03 1183.08 1359.03 L1187.45 1359.03 L1187.45 1362.59 L1183.08 1362.59 Q1178.14 1362.59 1176.27 1360.76 Q1174.39 1358.91 1174.39 1354.05 L1174.39 1339.98 L1171.27 1339.98 L1171.27 1336.67 L1174.39 1336.67 L1174.39 1329.3 L1178.68 1329.3 Z" fill="#000000" fill-rule="nonzero" fill-opacity="1" /><path clip-path="url(#clip160)" d="M1193.05 1336.67 L1197.31 1336.67 L1197.31 1362.59 L1193.05 1362.59 L1193.05 1336.67 M1193.05 1326.57 L1197.31 1326.57 L1197.31 1331.97 L1193.05 1331.97 L1193.05 1326.57 Z" fill="#000000" fill-rule="nonzero" fill-opacity="1" /><path clip-path="url(#clip160)" d="M1210.44 1329.3 L1210.44 1336.67 L1219.21 1336.67 L1219.21 1339.98 L1210.44 1339.98 L1210.44 1354.05 Q1210.44 1357.22 1211.29 1358.12 Q1212.17 1359.03 1214.83 1359.03 L1219.21 1359.03 L1219.21 1362.59 L1214.83 1362.59 Q1209.9 1362.59 1208.03 1360.76 Q1206.15 1358.91 1206.15 1354.05 L1206.15 1339.98 L1203.03 1339.98 L1203.03 1336.67 L1206.15 1336.67 L1206.15 1329.3 L1210.44 1329.3 Z" fill="#000000" fill-rule="nonzero" fill-opacity="1" /><path clip-path="url(#clip160)" d="M1235.6 1365 Q1233.79 1369.63 1232.08 1371.04 Q1230.37 1372.45 1227.5 1372.45 L1224.09 1372.45 L1224.09 1368.89 L1226.59 1368.89 Q1228.35 1368.89 1229.32 1368.05 Q1230.3 1367.22 1231.48 1364.12 L1232.24 1362.17 L1221.76 1336.67 L1226.27 1336.67 L1234.37 1356.94 L1242.47 1336.67 L1246.99 1336.67 L1235.6 1365 Z" fill="#000000" fill-rule="nonzero" fill-opacity="1" /><path clip-path="url(#clip160)" d="M1252.2 1326.62 L1255.9 1326.62 Q1259.37 1332.08 1261.08 1337.31 Q1262.82 1342.55 1262.82 1347.71 Q1262.82 1352.89 1261.08 1358.15 Q1259.37 1363.4 1255.9 1368.84 L1252.2 1368.84 Q1255.27 1363.54 1256.78 1358.31 Q1258.31 1353.05 1258.31 1347.71 Q1258.31 1342.36 1256.78 1337.15 Q1255.27 1331.94 1252.2 1326.62 Z" fill="#000000" fill-rule="nonzero" fill-opacity="1" /></svg>
