<?xml version="1.0" encoding="utf-8"?>
<svg xmlns="http://www.w3.org/2000/svg" xmlns:xlink="http://www.w3.org/1999/xlink" width="800" height="400" viewBox="0 0 3200 1600">
<defs>
  <clipPath id="clip240">
    <rect x="0" y="0" width="3200" height="1600"/>
  </clipPath>
</defs>
<path clip-path="url(#clip240)" d="M0 1600 L3200 1600 L3200 0 L0 0  Z" fill="#ffffff" fill-rule="evenodd" fill-opacity="1"/>
<defs>
  <clipPath id="clip241">
    <rect x="640" y="0" width="2241" height="1600"/>
  </clipPath>
</defs>
<path clip-path="url(#clip240)" d="M194.274 1443.7 L3152.76 1443.7 L3152.76 47.2441 L194.274 47.2441  Z" fill="#ffffff" fill-rule="evenodd" fill-opacity="1"/>
<defs>
  <clipPath id="clip242">
    <rect x="194" y="47" width="2959" height="1397"/>
  </clipPath>
</defs>
<polyline clip-path="url(#clip242)" style="stroke:#000000; stroke-linecap:round; stroke-linejoin:round; stroke-width:2; stroke-opacity:0.1; fill:none" points="194.274,1443.7 194.274,47.2441 "/>
<polyline clip-path="url(#clip242)" style="stroke:#000000; stroke-linecap:round; stroke-linejoin:round; stroke-width:2; stroke-opacity:0.1; fill:none" points="785.97,1443.7 785.97,47.2441 "/>
<polyline clip-path="url(#clip242)" style="stroke:#000000; stroke-linecap:round; stroke-linejoin:round; stroke-width:2; stroke-opacity:0.1; fill:none" points="1377.67,1443.7 1377.67,47.2441 "/>
<polyline clip-path="url(#clip242)" style="stroke:#000000; stroke-linecap:round; stroke-linejoin:round; stroke-width:2; stroke-opacity:0.1; fill:none" points="1969.36,1443.7 1969.36,47.2441 "/>
<polyline clip-path="url(#clip242)" style="stroke:#000000; stroke-linecap:round; stroke-linejoin:round; stroke-width:2; stroke-opacity:0.1; fill:none" points="2561.06,1443.7 2561.06,47.2441 "/>
<polyline clip-path="url(#clip242)" style="stroke:#000000; stroke-linecap:round; stroke-linejoin:round; stroke-width:2; stroke-opacity:0.1; fill:none" points="3152.76,1443.7 3152.76,47.2441 "/>
<polyline clip-path="url(#clip242)" style="stroke:#000000; stroke-linecap:round; stroke-linejoin:round; stroke-width:2; stroke-opacity:0.1; fill:none" points="194.274,1443.7 194.274,47.2441 "/>
<polyline clip-path="url(#clip242)" style="stroke:#000000; stroke-linecap:round; stroke-linejoin:round; stroke-width:2; stroke-opacity:0.1; fill:none" points="785.97,1443.7 785.97,47.2441 "/>
<polyline clip-path="url(#clip242)" style="stroke:#000000; stroke-linecap:round; stroke-linejoin:round; stroke-width:2; stroke-opacity:0.1; fill:none" points="1377.67,1443.7 1377.67,47.2441 "/>
<polyline clip-path="url(#clip242)" style="stroke:#000000; stroke-linecap:round; stroke-linejoin:round; stroke-width:2; stroke-opacity:0.1; fill:none" points="1969.36,1443.7 1969.36,47.2441 "/>
<polyline clip-path="url(#clip242)" style="stroke:#000000; stroke-linecap:round; stroke-linejoin:round; stroke-width:2; stroke-opacity:0.1; fill:none" points="2561.06,1443.7 2561.06,47.2441 "/>
<polyline clip-path="url(#clip242)" style="stroke:#000000; stroke-linecap:round; stroke-linejoin:round; stroke-width:2; stroke-opacity:0.1; fill:none" points="3152.76,1443.7 3152.76,47.2441 "/>
<polyline clip-path="url(#clip240)" style="stroke:#000000; stroke-linecap:round; stroke-linejoin:round; stroke-width:4; stroke-opacity:1; fill:none" points="194.274,1443.7 3152.76,1443.7 "/>
<polyline clip-path="url(#clip240)" style="stroke:#000000; stroke-linecap:round; stroke-linejoin:round; stroke-width:4; stroke-opacity:1; fill:none" points="194.274,47.2441 3152.76,47.2441 "/>
<polyline clip-path="url(#clip240)" style="stroke:#000000; stroke-linecap:round; stroke-linejoin:round; stroke-width:4; stroke-opacity:1; fill:none" points="194.274,1443.7 194.274,1424.8 "/>
<polyline clip-path="url(#clip240)" style="stroke:#000000; stroke-linecap:round; stroke-linejoin:round; stroke-width:4; stroke-opacity:1; fill:none" points="785.97,1443.7 785.97,1424.8 "/>
<polyline clip-path="url(#clip240)" style="stroke:#000000; stroke-linecap:round; stroke-linejoin:round; stroke-width:4; stroke-opacity:1; fill:none" points="1377.67,1443.7 1377.67,1424.8 "/>
<polyline clip-path="url(#clip240)" style="stroke:#000000; stroke-linecap:round; stroke-linejoin:round; stroke-width:4; stroke-opacity:1; fill:none" points="1969.36,1443.7 1969.36,1424.8 "/>
<polyline clip-path="url(#clip240)" style="stroke:#000000; stroke-linecap:round; stroke-linejoin:round; stroke-width:4; stroke-opacity:1; fill:none" points="2561.06,1443.7 2561.06,1424.8 "/>
<polyline clip-path="url(#clip240)" style="stroke:#000000; stroke-linecap:round; stroke-linejoin:round; stroke-width:4; stroke-opacity:1; fill:none" points="3152.76,1443.7 3152.76,1424.8 "/>
<polyline clip-path="url(#clip240)" style="stroke:#000000; stroke-linecap:round; stroke-linejoin:round; stroke-width:4; stroke-opacity:1; fill:none" points="194.274,47.2441 194.274,66.1417 "/>
<polyline clip-path="url(#clip240)" style="stroke:#000000; stroke-linecap:round; stroke-linejoin:round; stroke-width:4; stroke-opacity:1; fill:none" points="785.97,47.2441 785.97,66.1417 "/>
<polyline clip-path="url(#clip240)" style="stroke:#000000; stroke-linecap:round; stroke-linejoin:round; stroke-width:4; stroke-opacity:1; fill:none" points="1377.67,47.2441 1377.67,66.1417 "/>
<polyline clip-path="url(#clip240)" style="stroke:#000000; stroke-linecap:round; stroke-linejoin:round; stroke-width:4; stroke-opacity:1; fill:none" points="1969.36,47.2441 1969.36,66.1417 "/>
<polyline clip-path="url(#clip240)" style="stroke:#000000; stroke-linecap:round; stroke-linejoin:round; stroke-width:4; stroke-opacity:1; fill:none" points="2561.06,47.2441 2561.06,66.1417 "/>
<polyline clip-path="url(#clip240)" style="stroke:#000000; stroke-linecap:round; stroke-linejoin:round; stroke-width:4; stroke-opacity:1; fill:none" points="3152.76,47.2441 3152.76,66.1417 "/>
<path clip-path="url(#clip240)" d="M194.274 1481.02 Q190.663 1481.02 188.834 1484.58 Q187.029 1488.12 187.029 1495.25 Q187.029 1502.36 188.834 1505.93 Q190.663 1509.47 194.274 1509.47 Q197.908 1509.47 199.714 1505.93 Q201.542 1502.36 201.542 1495.25 Q201.542 1488.12 199.714 1484.58 Q197.908 1481.02 194.274 1481.02 M194.274 1477.31 Q200.084 1477.31 203.14 1481.92 Q206.218 1486.5 206.218 1495.25 Q206.218 1503.98 203.14 1508.59 Q200.084 1513.17 194.274 1513.17 Q188.464 1513.17 185.385 1508.59 Q182.33 1503.98 182.33 1495.25 Q182.33 1486.5 185.385 1481.92 Q188.464 1477.31 194.274 1477.31 Z" fill="#000000" fill-rule="nonzero" fill-opacity="1" /><path clip-path="url(#clip240)" d="M780.623 1508.56 L796.943 1508.56 L796.943 1512.5 L774.998 1512.5 L774.998 1508.56 Q777.66 1505.81 782.244 1501.18 Q786.85 1496.53 788.031 1495.19 Q790.276 1492.66 791.156 1490.93 Q792.058 1489.17 792.058 1487.48 Q792.058 1484.72 790.114 1482.99 Q788.193 1481.25 785.091 1481.25 Q782.892 1481.25 780.438 1482.01 Q778.007 1482.78 775.23 1484.33 L775.23 1479.61 Q778.054 1478.47 780.507 1477.89 Q782.961 1477.31 784.998 1477.31 Q790.369 1477.31 793.563 1480 Q796.757 1482.69 796.757 1487.18 Q796.757 1489.31 795.947 1491.23 Q795.16 1493.12 793.054 1495.72 Q792.475 1496.39 789.373 1499.61 Q786.271 1502.8 780.623 1508.56 Z" fill="#000000" fill-rule="nonzero" fill-opacity="1" /><path clip-path="url(#clip240)" d="M1380.68 1482.01 L1368.87 1500.46 L1380.68 1500.46 L1380.68 1482.01 M1379.45 1477.94 L1385.33 1477.94 L1385.33 1500.46 L1390.26 1500.46 L1390.26 1504.35 L1385.33 1504.35 L1385.33 1512.5 L1380.68 1512.5 L1380.68 1504.35 L1365.07 1504.35 L1365.07 1499.84 L1379.45 1477.94 Z" fill="#000000" fill-rule="nonzero" fill-opacity="1" /><path clip-path="url(#clip240)" d="M1969.77 1493.36 Q1966.62 1493.36 1964.77 1495.51 Q1962.94 1497.66 1962.94 1501.41 Q1962.94 1505.14 1964.77 1507.31 Q1966.62 1509.47 1969.77 1509.47 Q1972.92 1509.47 1974.75 1507.31 Q1976.6 1505.14 1976.6 1501.41 Q1976.6 1497.66 1974.75 1495.51 Q1972.92 1493.36 1969.77 1493.36 M1979.05 1478.7 L1979.05 1482.96 Q1977.29 1482.13 1975.49 1481.69 Q1973.7 1481.25 1971.94 1481.25 Q1967.31 1481.25 1964.86 1484.37 Q1962.43 1487.5 1962.08 1493.82 Q1963.45 1491.81 1965.51 1490.74 Q1967.57 1489.65 1970.05 1489.65 Q1975.25 1489.65 1978.26 1492.82 Q1981.3 1495.97 1981.3 1501.41 Q1981.3 1506.74 1978.15 1509.95 Q1975 1513.17 1969.77 1513.17 Q1963.77 1513.17 1960.6 1508.59 Q1957.43 1503.98 1957.43 1495.25 Q1957.43 1487.06 1961.32 1482.2 Q1965.21 1477.31 1971.76 1477.31 Q1973.52 1477.31 1975.3 1477.66 Q1977.11 1478.01 1979.05 1478.7 Z" fill="#000000" fill-rule="nonzero" fill-opacity="1" /><path clip-path="url(#clip240)" d="M2561.06 1496.09 Q2557.73 1496.09 2555.8 1497.87 Q2553.91 1499.65 2553.91 1502.78 Q2553.91 1505.9 2555.8 1507.69 Q2557.73 1509.47 2561.06 1509.47 Q2564.39 1509.47 2566.31 1507.69 Q2568.24 1505.88 2568.24 1502.78 Q2568.24 1499.65 2566.31 1497.87 Q2564.42 1496.09 2561.06 1496.09 M2556.38 1494.1 Q2553.37 1493.36 2551.68 1491.3 Q2550.02 1489.24 2550.02 1486.27 Q2550.02 1482.13 2552.96 1479.72 Q2555.92 1477.31 2561.06 1477.31 Q2566.22 1477.31 2569.16 1479.72 Q2572.1 1482.13 2572.1 1486.27 Q2572.1 1489.24 2570.41 1491.3 Q2568.74 1493.36 2565.76 1494.1 Q2569.14 1494.88 2571.01 1497.18 Q2572.91 1499.47 2572.91 1502.78 Q2572.91 1507.8 2569.83 1510.49 Q2566.78 1513.17 2561.06 1513.17 Q2555.34 1513.17 2552.26 1510.49 Q2549.21 1507.8 2549.21 1502.78 Q2549.21 1499.47 2551.11 1497.18 Q2553 1494.88 2556.38 1494.1 M2554.67 1486.71 Q2554.67 1489.4 2556.34 1490.9 Q2558.03 1492.41 2561.06 1492.41 Q2564.07 1492.41 2565.76 1490.9 Q2567.47 1489.4 2567.47 1486.71 Q2567.47 1484.03 2565.76 1482.52 Q2564.07 1481.02 2561.06 1481.02 Q2558.03 1481.02 2556.34 1482.52 Q2554.67 1484.03 2554.67 1486.71 Z" fill="#000000" fill-rule="nonzero" fill-opacity="1" /><path clip-path="url(#clip240)" d="M3127.44 1508.56 L3135.08 1508.56 L3135.08 1482.2 L3126.77 1483.87 L3126.77 1479.61 L3135.04 1477.94 L3139.71 1477.94 L3139.71 1508.56 L3147.35 1508.56 L3147.35 1512.5 L3127.44 1512.5 L3127.44 1508.56 Z" fill="#000000" fill-rule="nonzero" fill-opacity="1" /><path clip-path="url(#clip240)" d="M3166.8 1481.02 Q3163.18 1481.02 3161.36 1484.58 Q3159.55 1488.12 3159.55 1495.25 Q3159.55 1502.36 3161.36 1505.93 Q3163.18 1509.47 3166.8 1509.47 Q3170.43 1509.47 3172.23 1505.93 Q3174.06 1502.36 3174.06 1495.25 Q3174.06 1488.12 3172.23 1484.58 Q3170.43 1481.02 3166.8 1481.02 M3166.8 1477.31 Q3172.61 1477.31 3175.66 1481.92 Q3178.74 1486.5 3178.74 1495.25 Q3178.74 1503.98 3175.66 1508.59 Q3172.61 1513.17 3166.8 1513.17 Q3160.99 1513.17 3157.91 1508.59 Q3154.85 1503.98 3154.85 1495.25 Q3154.85 1486.5 3157.91 1481.92 Q3160.99 1477.31 3166.8 1477.31 Z" fill="#000000" fill-rule="nonzero" fill-opacity="1" /><path clip-path="url(#clip240)" d="M1672.58 1554.79 L1672.58 1564.92 L1684.64 1564.92 L1684.64 1569.47 L1672.58 1569.47 L1672.58 1588.82 Q1672.58 1593.18 1673.75 1594.42 Q1674.96 1595.66 1678.62 1595.66 L1684.64 1595.66 L1684.64 1600.56 L1678.62 1600.56 Q1671.84 1600.56 1669.27 1598.05 Q1666.69 1595.5 1666.69 1588.82 L1666.69 1569.47 L1662.39 1569.47 L1662.39 1564.92 L1666.69 1564.92 L1666.69 1554.79 L1672.58 1554.79 Z" fill="#000000" fill-rule="nonzero" fill-opacity="1" /><polyline clip-path="url(#clip242)" style="stroke:#000000; stroke-linecap:round; stroke-linejoin:round; stroke-width:2; stroke-opacity:0.1; fill:none" points="194.274,1404.18 3152.76,1404.18 "/>
<polyline clip-path="url(#clip242)" style="stroke:#000000; stroke-linecap:round; stroke-linejoin:round; stroke-width:2; stroke-opacity:0.1; fill:none" points="194.274,1093.12 3152.76,1093.12 "/>
<polyline clip-path="url(#clip242)" style="stroke:#000000; stroke-linecap:round; stroke-linejoin:round; stroke-width:2; stroke-opacity:0.1; fill:none" points="194.274,782.072 3152.76,782.072 "/>
<polyline clip-path="url(#clip242)" style="stroke:#000000; stroke-linecap:round; stroke-linejoin:round; stroke-width:2; stroke-opacity:0.1; fill:none" points="194.274,471.02 3152.76,471.02 "/>
<polyline clip-path="url(#clip242)" style="stroke:#000000; stroke-linecap:round; stroke-linejoin:round; stroke-width:2; stroke-opacity:0.1; fill:none" points="194.274,159.967 3152.76,159.967 "/>
<polyline clip-path="url(#clip242)" style="stroke:#000000; stroke-linecap:round; stroke-linejoin:round; stroke-width:2; stroke-opacity:0.1; fill:none" points="194.274,1404.18 3152.76,1404.18 "/>
<polyline clip-path="url(#clip242)" style="stroke:#000000; stroke-linecap:round; stroke-linejoin:round; stroke-width:2; stroke-opacity:0.1; fill:none" points="194.274,1093.12 3152.76,1093.12 "/>
<polyline clip-path="url(#clip242)" style="stroke:#000000; stroke-linecap:round; stroke-linejoin:round; stroke-width:2; stroke-opacity:0.1; fill:none" points="194.274,782.072 3152.76,782.072 "/>
<polyline clip-path="url(#clip242)" style="stroke:#000000; stroke-linecap:round; stroke-linejoin:round; stroke-width:2; stroke-opacity:0.1; fill:none" points="194.274,471.02 3152.76,471.02 "/>
<polyline clip-path="url(#clip242)" style="stroke:#000000; stroke-linecap:round; stroke-linejoin:round; stroke-width:2; stroke-opacity:0.1; fill:none" points="194.274,159.967 3152.76,159.967 "/>
<polyline clip-path="url(#clip240)" style="stroke:#000000; stroke-linecap:round; stroke-linejoin:round; stroke-width:4; stroke-opacity:1; fill:none" points="194.274,1443.7 194.274,47.2441 "/>
<polyline clip-path="url(#clip240)" style="stroke:#000000; stroke-linecap:round; stroke-linejoin:round; stroke-width:4; stroke-opacity:1; fill:none" points="3152.76,1443.7 3152.76,47.2441 "/>
<polyline clip-path="url(#clip240)" style="stroke:#000000; stroke-linecap:round; stroke-linejoin:round; stroke-width:4; stroke-opacity:1; fill:none" points="194.274,1404.18 213.172,1404.18 "/>
<polyline clip-path="url(#clip240)" style="stroke:#000000; stroke-linecap:round; stroke-linejoin:round; stroke-width:4; stroke-opacity:1; fill:none" points="194.274,1093.12 213.172,1093.12 "/>
<polyline clip-path="url(#clip240)" style="stroke:#000000; stroke-linecap:round; stroke-linejoin:round; stroke-width:4; stroke-opacity:1; fill:none" points="194.274,782.072 213.172,782.072 "/>
<polyline clip-path="url(#clip240)" style="stroke:#000000; stroke-linecap:round; stroke-linejoin:round; stroke-width:4; stroke-opacity:1; fill:none" points="194.274,471.02 213.172,471.02 "/>
<polyline clip-path="url(#clip240)" style="stroke:#000000; stroke-linecap:round; stroke-linejoin:round; stroke-width:4; stroke-opacity:1; fill:none" points="194.274,159.967 213.172,159.967 "/>
<polyline clip-path="url(#clip240)" style="stroke:#000000; stroke-linecap:round; stroke-linejoin:round; stroke-width:4; stroke-opacity:1; fill:none" points="3152.76,1404.18 3133.86,1404.18 "/>
<polyline clip-path="url(#clip240)" style="stroke:#000000; stroke-linecap:round; stroke-linejoin:round; stroke-width:4; stroke-opacity:1; fill:none" points="3152.76,1093.12 3133.86,1093.12 "/>
<polyline clip-path="url(#clip240)" style="stroke:#000000; stroke-linecap:round; stroke-linejoin:round; stroke-width:4; stroke-opacity:1; fill:none" points="3152.76,782.072 3133.86,782.072 "/>
<polyline clip-path="url(#clip240)" style="stroke:#000000; stroke-linecap:round; stroke-linejoin:round; stroke-width:4; stroke-opacity:1; fill:none" points="3152.76,471.02 3133.86,471.02 "/>
<polyline clip-path="url(#clip240)" style="stroke:#000000; stroke-linecap:round; stroke-linejoin:round; stroke-width:4; stroke-opacity:1; fill:none" points="3152.76,159.967 3133.86,159.967 "/>
<path clip-path="url(#clip240)" d="M58.9365 1389.98 Q55.3254 1389.98 53.4967 1393.54 Q51.6912 1397.08 51.6912 1404.21 Q51.6912 1411.32 53.4967 1414.88 Q55.3254 1418.43 58.9365 1418.43 Q62.5707 1418.43 64.3763 1414.88 Q66.205 1411.32 66.205 1404.21 Q66.205 1397.08 64.3763 1393.54 Q62.5707 1389.98 58.9365 1389.98 M58.9365 1386.27 Q64.7467 1386.27 67.8022 1390.88 Q70.8809 1395.46 70.8809 1404.21 Q70.8809 1412.94 67.8022 1417.55 Q64.7467 1422.13 58.9365 1422.13 Q53.1264 1422.13 50.0477 1417.55 Q46.9921 1412.94 46.9921 1404.21 Q46.9921 1395.46 50.0477 1390.88 Q53.1264 1386.27 58.9365 1386.27 Z" fill="#000000" fill-rule="nonzero" fill-opacity="1" /><path clip-path="url(#clip240)" d="M79.0984 1415.58 L83.9827 1415.58 L83.9827 1421.46 L79.0984 1421.46 L79.0984 1415.58 Z" fill="#000000" fill-rule="nonzero" fill-opacity="1" /><path clip-path="url(#clip240)" d="M104.168 1389.98 Q100.557 1389.98 98.728 1393.54 Q96.9224 1397.08 96.9224 1404.21 Q96.9224 1411.32 98.728 1414.88 Q100.557 1418.43 104.168 1418.43 Q107.802 1418.43 109.608 1414.88 Q111.436 1411.32 111.436 1404.21 Q111.436 1397.08 109.608 1393.54 Q107.802 1389.98 104.168 1389.98 M104.168 1386.27 Q109.978 1386.27 113.033 1390.88 Q116.112 1395.46 116.112 1404.21 Q116.112 1412.94 113.033 1417.55 Q109.978 1422.13 104.168 1422.13 Q98.3576 1422.13 95.2789 1417.55 Q92.2234 1412.94 92.2234 1404.21 Q92.2234 1395.46 95.2789 1390.88 Q98.3576 1386.27 104.168 1386.27 Z" fill="#000000" fill-rule="nonzero" fill-opacity="1" /><path clip-path="url(#clip240)" d="M134.33 1389.98 Q130.719 1389.98 128.89 1393.54 Q127.084 1397.08 127.084 1404.21 Q127.084 1411.32 128.89 1414.88 Q130.719 1418.43 134.33 1418.43 Q137.964 1418.43 139.769 1414.88 Q141.598 1411.32 141.598 1404.21 Q141.598 1397.08 139.769 1393.54 Q137.964 1389.98 134.33 1389.98 M134.33 1386.27 Q140.14 1386.27 143.195 1390.88 Q146.274 1395.46 146.274 1404.21 Q146.274 1412.94 143.195 1417.55 Q140.14 1422.13 134.33 1422.13 Q128.519 1422.13 125.441 1417.55 Q122.385 1412.94 122.385 1404.21 Q122.385 1395.46 125.441 1390.88 Q128.519 1386.27 134.33 1386.27 Z" fill="#000000" fill-rule="nonzero" fill-opacity="1" /><path clip-path="url(#clip240)" d="M59.9319 1078.92 Q56.3208 1078.92 54.4921 1082.49 Q52.6865 1086.03 52.6865 1093.16 Q52.6865 1100.27 54.4921 1103.83 Q56.3208 1107.37 59.9319 1107.37 Q63.5661 1107.37 65.3717 1103.83 Q67.2004 1100.27 67.2004 1093.16 Q67.2004 1086.03 65.3717 1082.49 Q63.5661 1078.92 59.9319 1078.92 M59.9319 1075.22 Q65.742 1075.22 68.7976 1079.83 Q71.8763 1084.41 71.8763 1093.16 Q71.8763 1101.89 68.7976 1106.49 Q65.742 1111.08 59.9319 1111.08 Q54.1217 1111.08 51.043 1106.49 Q47.9875 1101.89 47.9875 1093.16 Q47.9875 1084.41 51.043 1079.83 Q54.1217 1075.22 59.9319 1075.22 Z" fill="#000000" fill-rule="nonzero" fill-opacity="1" /><path clip-path="url(#clip240)" d="M80.0938 1104.53 L84.978 1104.53 L84.978 1110.4 L80.0938 1110.4 L80.0938 1104.53 Z" fill="#000000" fill-rule="nonzero" fill-opacity="1" /><path clip-path="url(#clip240)" d="M99.1909 1106.47 L115.51 1106.47 L115.51 1110.4 L93.566 1110.4 L93.566 1106.47 Q96.228 1103.72 100.811 1099.09 Q105.418 1094.43 106.598 1093.09 Q108.844 1090.57 109.723 1088.83 Q110.626 1087.07 110.626 1085.38 Q110.626 1082.63 108.682 1080.89 Q106.76 1079.16 103.658 1079.16 Q101.459 1079.16 99.0057 1079.92 Q96.5752 1080.68 93.7974 1082.23 L93.7974 1077.51 Q96.6215 1076.38 99.0752 1075.8 Q101.529 1075.22 103.566 1075.22 Q108.936 1075.22 112.131 1077.91 Q115.325 1080.59 115.325 1085.08 Q115.325 1087.21 114.515 1089.13 Q113.728 1091.03 111.621 1093.62 Q111.043 1094.29 107.941 1097.51 Q104.839 1100.71 99.1909 1106.47 Z" fill="#000000" fill-rule="nonzero" fill-opacity="1" /><path clip-path="url(#clip240)" d="M125.371 1075.84 L143.728 1075.84 L143.728 1079.78 L129.654 1079.78 L129.654 1088.25 Q130.672 1087.91 131.691 1087.74 Q132.709 1087.56 133.728 1087.56 Q139.515 1087.56 142.894 1090.73 Q146.274 1093.9 146.274 1099.32 Q146.274 1104.9 142.802 1108 Q139.33 1111.08 133.01 1111.08 Q130.834 1111.08 128.566 1110.71 Q126.32 1110.34 123.913 1109.59 L123.913 1104.9 Q125.996 1106.03 128.219 1106.59 Q130.441 1107.14 132.918 1107.14 Q136.922 1107.14 139.26 1105.03 Q141.598 1102.93 141.598 1099.32 Q141.598 1095.71 139.26 1093.6 Q136.922 1091.49 132.918 1091.49 Q131.043 1091.49 129.168 1091.91 Q127.316 1092.33 125.371 1093.21 L125.371 1075.84 Z" fill="#000000" fill-rule="nonzero" fill-opacity="1" /><path clip-path="url(#clip240)" d="M58.9365 767.871 Q55.3254 767.871 53.4967 771.436 Q51.6912 774.977 51.6912 782.107 Q51.6912 789.213 53.4967 792.778 Q55.3254 796.32 58.9365 796.32 Q62.5707 796.32 64.3763 792.778 Q66.205 789.213 66.205 782.107 Q66.205 774.977 64.3763 771.436 Q62.5707 767.871 58.9365 767.871 M58.9365 764.167 Q64.7467 764.167 67.8022 768.774 Q70.8809 773.357 70.8809 782.107 Q70.8809 790.834 67.8022 795.44 Q64.7467 800.024 58.9365 800.024 Q53.1264 800.024 50.0477 795.44 Q46.9921 790.834 46.9921 782.107 Q46.9921 773.357 50.0477 768.774 Q53.1264 764.167 58.9365 764.167 Z" fill="#000000" fill-rule="nonzero" fill-opacity="1" /><path clip-path="url(#clip240)" d="M79.0984 793.473 L83.9827 793.473 L83.9827 799.352 L79.0984 799.352 L79.0984 793.473 Z" fill="#000000" fill-rule="nonzero" fill-opacity="1" /><path clip-path="url(#clip240)" d="M94.2141 764.792 L112.57 764.792 L112.57 768.727 L98.4965 768.727 L98.4965 777.2 Q99.515 776.852 100.534 776.69 Q101.552 776.505 102.571 776.505 Q108.358 776.505 111.737 779.676 Q115.117 782.848 115.117 788.264 Q115.117 793.843 111.645 796.945 Q108.172 800.024 101.853 800.024 Q99.677 800.024 97.4085 799.653 Q95.1632 799.283 92.7558 798.542 L92.7558 793.843 Q94.8391 794.977 97.0613 795.533 Q99.2835 796.088 101.76 796.088 Q105.765 796.088 108.103 793.982 Q110.441 791.875 110.441 788.264 Q110.441 784.653 108.103 782.547 Q105.765 780.44 101.76 780.44 Q99.8854 780.44 98.0104 780.857 Q96.1585 781.274 94.2141 782.153 L94.2141 764.792 Z" fill="#000000" fill-rule="nonzero" fill-opacity="1" /><path clip-path="url(#clip240)" d="M134.33 767.871 Q130.719 767.871 128.89 771.436 Q127.084 774.977 127.084 782.107 Q127.084 789.213 128.89 792.778 Q130.719 796.32 134.33 796.32 Q137.964 796.32 139.769 792.778 Q141.598 789.213 141.598 782.107 Q141.598 774.977 139.769 771.436 Q137.964 767.871 134.33 767.871 M134.33 764.167 Q140.14 764.167 143.195 768.774 Q146.274 773.357 146.274 782.107 Q146.274 790.834 143.195 795.44 Q140.14 800.024 134.33 800.024 Q128.519 800.024 125.441 795.44 Q122.385 790.834 122.385 782.107 Q122.385 773.357 125.441 768.774 Q128.519 764.167 134.33 764.167 Z" fill="#000000" fill-rule="nonzero" fill-opacity="1" /><path clip-path="url(#clip240)" d="M59.9319 456.818 Q56.3208 456.818 54.4921 460.383 Q52.6865 463.925 52.6865 471.054 Q52.6865 478.161 54.4921 481.726 Q56.3208 485.267 59.9319 485.267 Q63.5661 485.267 65.3717 481.726 Q67.2004 478.161 67.2004 471.054 Q67.2004 463.925 65.3717 460.383 Q63.5661 456.818 59.9319 456.818 M59.9319 453.115 Q65.742 453.115 68.7976 457.721 Q71.8763 462.304 71.8763 471.054 Q71.8763 479.781 68.7976 484.388 Q65.742 488.971 59.9319 488.971 Q54.1217 488.971 51.043 484.388 Q47.9875 479.781 47.9875 471.054 Q47.9875 462.304 51.043 457.721 Q54.1217 453.115 59.9319 453.115 Z" fill="#000000" fill-rule="nonzero" fill-opacity="1" /><path clip-path="url(#clip240)" d="M80.0938 482.42 L84.978 482.42 L84.978 488.3 L80.0938 488.3 L80.0938 482.42 Z" fill="#000000" fill-rule="nonzero" fill-opacity="1" /><path clip-path="url(#clip240)" d="M93.9826 453.74 L116.205 453.74 L116.205 455.73 L103.658 488.3 L98.7743 488.3 L110.58 457.675 L93.9826 457.675 L93.9826 453.74 Z" fill="#000000" fill-rule="nonzero" fill-opacity="1" /><path clip-path="url(#clip240)" d="M125.371 453.74 L143.728 453.74 L143.728 457.675 L129.654 457.675 L129.654 466.147 Q130.672 465.8 131.691 465.638 Q132.709 465.453 133.728 465.453 Q139.515 465.453 142.894 468.624 Q146.274 471.795 146.274 477.212 Q146.274 482.79 142.802 485.892 Q139.33 488.971 133.01 488.971 Q130.834 488.971 128.566 488.601 Q126.32 488.23 123.913 487.49 L123.913 482.79 Q125.996 483.925 128.219 484.48 Q130.441 485.036 132.918 485.036 Q136.922 485.036 139.26 482.929 Q141.598 480.823 141.598 477.212 Q141.598 473.601 139.26 471.494 Q136.922 469.388 132.918 469.388 Q131.043 469.388 129.168 469.804 Q127.316 470.221 125.371 471.101 L125.371 453.74 Z" fill="#000000" fill-rule="nonzero" fill-opacity="1" /><path clip-path="url(#clip240)" d="M49.7467 173.312 L57.3856 173.312 L57.3856 146.946 L49.0754 148.613 L49.0754 144.354 L57.3393 142.687 L62.0152 142.687 L62.0152 173.312 L69.654 173.312 L69.654 177.247 L49.7467 177.247 L49.7467 173.312 Z" fill="#000000" fill-rule="nonzero" fill-opacity="1" /><path clip-path="url(#clip240)" d="M79.0984 171.367 L83.9827 171.367 L83.9827 177.247 L79.0984 177.247 L79.0984 171.367 Z" fill="#000000" fill-rule="nonzero" fill-opacity="1" /><path clip-path="url(#clip240)" d="M104.168 145.766 Q100.557 145.766 98.728 149.331 Q96.9224 152.872 96.9224 160.002 Q96.9224 167.108 98.728 170.673 Q100.557 174.215 104.168 174.215 Q107.802 174.215 109.608 170.673 Q111.436 167.108 111.436 160.002 Q111.436 152.872 109.608 149.331 Q107.802 145.766 104.168 145.766 M104.168 142.062 Q109.978 142.062 113.033 146.669 Q116.112 151.252 116.112 160.002 Q116.112 168.729 113.033 173.335 Q109.978 177.918 104.168 177.918 Q98.3576 177.918 95.2789 173.335 Q92.2234 168.729 92.2234 160.002 Q92.2234 151.252 95.2789 146.669 Q98.3576 142.062 104.168 142.062 Z" fill="#000000" fill-rule="nonzero" fill-opacity="1" /><path clip-path="url(#clip240)" d="M134.33 145.766 Q130.719 145.766 128.89 149.331 Q127.084 152.872 127.084 160.002 Q127.084 167.108 128.89 170.673 Q130.719 174.215 134.33 174.215 Q137.964 174.215 139.769 170.673 Q141.598 167.108 141.598 160.002 Q141.598 152.872 139.769 149.331 Q137.964 145.766 134.33 145.766 M134.33 142.062 Q140.14 142.062 143.195 146.669 Q146.274 151.252 146.274 160.002 Q146.274 168.729 143.195 173.335 Q140.14 177.918 134.33 177.918 Q128.519 177.918 125.441 173.335 Q122.385 168.729 122.385 160.002 Q122.385 151.252 125.441 146.669 Q128.519 142.062 134.33 142.062 Z" fill="#000000" fill-rule="nonzero" fill-opacity="1" /><polyline clip-path="url(#clip242)" style="stroke:#009af9; stroke-linecap:round; stroke-linejoin:round; stroke-width:32; stroke-opacity:1; fill:none" points="194.274,1404.18 197.235,1404.15 200.197,1404.05 203.158,1403.9 206.12,1403.7 209.081,1403.43 212.043,1403.11 215.004,1402.74 217.966,1402.31 220.927,1401.84 223.888,1401.31 226.85,1400.74 229.811,1400.12 232.773,1399.45 235.734,1398.74 238.696,1397.98 241.657,1397.18 244.619,1396.34 247.58,1395.46 250.541,1394.54 253.503,1393.58 256.464,1392.58 259.426,1391.55 262.387,1390.47 265.349,1389.37 268.31,1388.23 271.272,1387.05 274.233,1385.84 277.194,1384.6 280.156,1383.33 283.117,1382.03 286.079,1380.7 289.04,1379.34 292.002,1377.95 294.963,1376.53 297.925,1375.08 300.886,1373.61 303.847,1372.12 306.809,1370.59 309.77,1369.04 312.732,1367.47 315.693,1365.88 318.655,1364.26 321.616,1362.61 324.578,1360.95 327.539,1359.26 330.5,1357.56 333.462,1355.83 336.423,1354.08 339.385,1352.31 342.346,1350.53 345.308,1348.72 348.269,1346.89 351.23,1345.05 354.192,1343.19 357.153,1341.32 360.115,1339.42 363.076,1337.51 366.038,1335.58 368.999,1333.64 371.961,1331.69 374.922,1329.71 377.883,1327.73 380.845,1325.73 383.806,1323.71 386.768,1321.68 389.729,1319.64 392.691,1317.59 395.652,1315.52 398.614,1313.44 401.575,1311.35 404.536,1309.24 407.498,1307.13 410.459,1305 413.421,1302.87 416.382,1300.72 419.344,1298.56 422.305,1296.39 425.267,1294.22 428.228,1292.03 431.189,1289.83 434.151,1287.63 437.112,1285.41 440.074,1283.19 443.035,1280.96 445.997,1278.72 448.958,1276.47 451.92,1274.21 454.881,1271.95 457.842,1269.68 460.804,1267.4 463.765,1265.11 466.727,1262.82 469.688,1260.52 472.65,1258.22 475.611,1255.91 478.573,1253.59 481.534,1251.27 484.495,1248.94 487.457,1246.61 490.418,1244.27 493.38,1241.92 496.341,1239.57 499.303,1237.22 502.264,1234.86 505.226,1232.49 508.187,1230.12 511.148,1227.75 514.11,1225.38 517.071,1222.99 520.033,1220.61 522.994,1218.22 525.956,1215.83 528.917,1213.43 531.879,1211.04 534.84,1208.63 537.801,1206.23 540.763,1203.82 543.724,1201.41 546.686,1199 549.647,1196.58 552.609,1194.16 555.57,1191.74 558.532,1189.32 561.493,1186.89 564.454,1184.47 567.416,1182.04 570.377,1179.61 573.339,1177.17 576.3,1174.74 579.262,1172.31 582.223,1169.87 585.185,1167.43 588.146,1164.99 591.107,1162.55 594.069,1160.11 597.03,1157.67 599.992,1155.22 602.953,1152.78 605.915,1150.33 608.876,1147.89 611.838,1145.44 614.799,1143 617.76,1140.55 620.722,1138.1 623.683,1135.66 626.645,1133.21 629.606,1130.76 632.568,1128.32 635.529,1125.87 638.491,1123.42 641.452,1120.97 644.413,1118.53 647.375,1116.08 650.336,1113.64 653.298,1111.19 656.259,1108.75 659.221,1106.3 662.182,1103.86 665.143,1101.42 668.105,1098.98 671.066,1096.54 674.028,1094.1 676.989,1091.66 679.951,1089.22 682.912,1086.79 685.874,1084.35 688.835,1081.92 691.796,1079.49 694.758,1077.05 697.719,1074.62 700.681,1072.2 703.642,1069.77 706.604,1067.35 709.565,1064.92 712.527,1062.5 715.488,1060.08 718.449,1057.66 721.411,1055.25 724.372,1052.83 727.334,1050.42 730.295,1048.01 733.257,1045.6 736.218,1043.19 739.18,1040.79 742.141,1038.39 745.102,1035.99 748.064,1033.59 751.025,1031.19 753.987,1028.8 756.948,1026.41 759.91,1024.02 762.871,1021.63 765.833,1019.25 768.794,1016.86 771.755,1014.48 774.717,1012.11 777.678,1009.73 780.64,1007.36 783.601,1004.99 786.563,1002.63 789.524,1000.26 792.486,997.902 795.447,995.544 798.408,993.189 801.37,990.836 804.331,988.487 807.293,986.14 810.254,983.796 813.216,981.455 816.177,979.117 819.139,976.783 822.1,974.451 825.061,972.122 828.023,969.796 830.984,967.474 833.946,965.154 836.907,962.838 839.869,960.525 842.83,958.215 845.792,955.909 848.753,953.605 851.714,951.305 854.676,949.009 857.637,946.715 860.599,944.425 863.56,942.139 866.522,939.855 869.483,937.576 872.445,935.299 875.406,933.026 878.367,930.757 881.329,928.491 884.29,926.228 887.252,923.97 890.213,921.714 893.175,919.462 896.136,917.214 899.098,914.97 902.059,912.729 905.02,910.491 907.982,908.258 910.943,906.028 913.905,903.802 916.866,901.579 919.828,899.36 922.789,897.145 925.751,894.934 928.712,892.726 931.673,890.522 934.635,888.322 937.596,886.126 940.558,883.934 943.519,881.745 946.481,879.561 949.442,877.38 952.403,875.203 955.365,873.03 958.326,870.861 961.288,868.696 964.249,866.535 967.211,864.378 970.172,862.225 973.134,860.075 976.095,857.93 979.056,855.789 982.018,853.652 984.979,851.519 987.941,849.39 990.902,847.265 993.864,845.144 996.825,843.027 999.787,840.914 1002.75,838.805 1005.71,836.701 1008.67,834.6 1011.63,832.504 1014.59,830.412 1017.56,828.324 1020.52,826.24 1023.48,824.16 1026.44,822.085 1029.4,820.013 1032.36,817.946 1035.32,815.883 1038.29,813.824 1041.25,811.77 1044.21,809.72 1047.17,807.673 1050.13,805.632 1053.09,803.594 1056.05,801.56 1059.02,799.531 1061.98,797.506 1064.94,795.486 1067.9,793.469 1070.86,791.457 1073.82,789.449 1076.78,787.446 1079.75,785.446 1082.71,783.451 1085.67,781.46 1088.63,779.474 1091.59,777.492 1094.55,775.514 1097.51,773.54 1100.48,771.571 1103.44,769.606 1106.4,767.645 1109.36,765.689 1112.32,763.737 1115.28,761.789 1118.24,759.846 1121.21,757.907 1124.17,755.972 1127.13,754.042 1130.09,752.116 1133.05,750.195 1136.01,748.277 1138.97,746.364 1141.94,744.456 1144.9,742.552 1147.86,740.652 1150.82,738.756 1153.78,736.865 1156.74,734.979 1159.7,733.096 1162.67,731.219 1165.63,729.345 1168.59,727.476 1171.55,725.611 1174.51,723.751 1177.47,721.895 1180.43,720.043 1183.4,718.196 1186.36,716.353 1189.32,714.515 1192.28,712.681 1195.24,710.851 1198.2,709.026 1201.16,707.205 1204.13,705.389 1207.09,703.577 1210.05,701.77 1213.01,699.967 1215.97,698.168 1218.93,696.374 1221.89,694.584 1224.86,692.798 1227.82,691.017 1230.78,689.241 1233.74,687.468 1236.7,685.701 1239.66,683.937 1242.62,682.178 1245.59,680.424 1248.55,678.673 1251.51,676.928 1254.47,675.186 1257.43,673.449 1260.39,671.717 1263.36,669.989 1266.32,668.265 1269.28,666.545 1272.24,664.83 1275.2,663.12 1278.16,661.413 1281.12,659.711 1284.09,658.014 1287.05,656.321 1290.01,654.632 1292.97,652.947 1295.93,651.267 1298.89,649.591 1301.85,647.92 1304.82,646.253 1307.78,644.59 1310.74,642.932 1313.7,641.278 1316.66,639.629 1319.62,637.983 1322.58,636.342 1325.55,634.706 1328.51,633.073 1331.47,631.445 1334.43,629.822 1337.39,628.203 1340.35,626.588 1343.31,624.977 1346.28,623.37 1349.24,621.768 1352.2,620.171 1355.16,618.577 1358.12,616.988 1361.08,615.403 1364.04,613.823 1367.01,612.247 1369.97,610.675 1372.93,609.107 1375.89,607.543 1378.85,605.984 1381.81,604.43 1384.77,602.879 1387.74,601.333 1390.7,599.791 1393.66,598.253 1396.62,596.719 1399.58,595.19 1402.54,593.665 1405.5,592.144 1408.47,590.628 1411.43,589.116 1414.39,587.607 1417.35,586.104 1420.31,584.604 1423.27,583.109 1426.23,581.618 1429.2,580.131 1432.16,578.648 1435.12,577.169 1438.08,575.695 1441.04,574.225 1444,572.759 1446.96,571.297 1449.93,569.84 1452.89,568.387 1455.85,566.938 1458.81,565.493 1461.77,564.052 1464.73,562.615 1467.69,561.183 1470.66,559.754 1473.62,558.33 1476.58,556.91 1479.54,555.494 1482.5,554.083 1485.46,552.675 1488.42,551.271 1491.39,549.872 1494.35,548.477 1497.31,547.085 1500.27,545.698 1503.23,544.315 1506.19,542.936 1509.15,541.561 1512.12,540.19 1515.08,538.823 1518.04,537.46 1521,536.102 1523.96,534.747 1526.92,533.396 1529.88,532.05 1532.85,530.707 1535.81,529.368 1538.77,528.033 1541.73,526.703 1544.69,525.376 1547.65,524.053 1550.62,522.734 1553.58,521.42 1556.54,520.109 1559.5,518.802 1562.46,517.499 1565.42,516.2 1568.38,514.905 1571.35,513.614 1574.31,512.326 1577.27,511.043 1580.23,509.764 1583.19,508.488 1586.15,507.216 1589.11,505.949 1592.08,504.685 1595.04,503.425 1598,502.169 1600.96,500.916 1603.92,499.668 1606.88,498.423 1609.84,497.182 1612.81,495.946 1615.77,494.712 1618.73,493.483 1621.69,492.258 1624.65,491.036 1627.61,489.818 1630.57,488.604 1633.54,487.394 1636.5,486.187 1639.46,484.984 1642.42,483.786 1645.38,482.59 1648.34,481.399 1651.3,480.211 1654.27,479.027 1657.23,477.847 1660.19,476.67 1663.15,475.498 1666.11,474.329 1669.07,473.163 1672.03,472.001 1675,470.844 1677.96,469.689 1680.92,468.539 1683.88,467.392 1686.84,466.248 1689.8,465.109 1692.76,463.973 1695.73,462.841 1698.69,461.712 1701.65,460.587 1704.61,459.466 1707.57,458.348 1710.53,457.234 1713.49,456.123 1716.46,455.016 1719.42,453.913 1722.38,452.813 1725.34,451.717 1728.3,450.624 1731.26,449.535 1734.22,448.45 1737.19,447.368 1740.15,446.29 1743.11,445.215 1746.07,444.143 1749.03,443.075 1751.99,442.011 1754.95,440.95 1757.92,439.893 1760.88,438.839 1763.84,437.789 1766.8,436.742 1769.76,435.698 1772.72,434.658 1775.68,433.621 1778.65,432.588 1781.61,431.558 1784.57,430.532 1787.53,429.509 1790.49,428.489 1793.45,427.473 1796.41,426.46 1799.38,425.45 1802.34,424.444 1805.3,423.441 1808.26,422.442 1811.22,421.446 1814.18,420.453 1817.14,419.463 1820.11,418.477 1823.07,417.494 1826.03,416.515 1828.99,415.538 1831.95,414.565 1834.91,413.595 1837.88,412.629 1840.84,411.666 1843.8,410.706 1846.76,409.749 1849.72,408.795 1852.68,407.845 1855.64,406.898 1858.61,405.954 1861.57,405.013 1864.53,404.076 1867.49,403.141 1870.45,402.21 1873.41,401.282 1876.37,400.357 1879.34,399.436 1882.3,398.517 1885.26,397.602 1888.22,396.689 1891.18,395.78 1894.14,394.874 1897.1,393.971 1900.07,393.071 1903.03,392.174 1905.99,391.281 1908.95,390.39 1911.91,389.503 1914.87,388.618 1917.83,387.737 1920.8,386.858 1923.76,385.983 1926.72,385.111 1929.68,384.241 1932.64,383.375 1935.6,382.512 1938.56,381.651 1941.53,380.794 1944.49,379.94 1947.45,379.089 1950.41,378.24 1953.37,377.395 1956.33,376.552 1959.29,375.713 1962.26,374.876 1965.22,374.043 1968.18,373.212 1971.14,372.384 1974.1,371.56 1977.06,370.738 1980.02,369.919 1982.99,369.103 1985.95,368.289 1988.91,367.479 1991.87,366.672 1994.83,365.867 1997.79,365.065 2000.75,364.266 2003.72,363.47 2006.68,362.677 2009.64,361.887 2012.6,361.099 2015.56,360.314 2018.52,359.532 2021.48,358.753 2024.45,357.977 2027.41,357.203 2030.37,356.432 2033.33,355.664 2036.29,354.898 2039.25,354.136 2042.21,353.376 2045.18,352.618 2048.14,351.864 2051.1,351.112 2054.06,350.363 2057.02,349.616 2059.98,348.873 2062.94,348.132 2065.91,347.393 2068.87,346.657 2071.83,345.924 2074.79,345.194 2077.75,344.466 2080.71,343.74 2083.67,343.018 2086.64,342.298 2089.6,341.58 2092.56,340.865 2095.52,340.153 2098.48,339.443 2101.44,338.736 2104.4,338.032 2107.37,337.33 2110.33,336.63 2113.29,335.933 2116.25,335.239 2119.21,334.547 2122.17,333.857 2125.14,333.171 2128.1,332.486 2131.06,331.804 2134.02,331.125 2136.98,330.448 2139.94,329.773 2142.9,329.101 2145.87,328.432 2148.83,327.765 2151.79,327.1 2154.75,326.438 2157.71,325.778 2160.67,325.12 2163.63,324.465 2166.6,323.813 2169.56,323.163 2172.52,322.515 2175.48,321.869 2178.44,321.226 2181.4,320.586 2184.36,319.947 2187.33,319.311 2190.29,318.678 2193.25,318.046 2196.21,317.417 2199.17,316.791 2202.13,316.166 2205.09,315.544 2208.06,314.925 2211.02,314.307 2213.98,313.692 2216.94,313.079 2219.9,312.469 2222.86,311.86 2225.82,311.254 2228.79,310.651 2231.75,310.049 2234.71,309.45 2237.67,308.853 2240.63,308.258 2243.59,307.665 2246.55,307.075 2249.52,306.487 2252.48,305.901 2255.44,305.317 2258.4,304.735 2261.36,304.156 2264.32,303.579 2267.28,303.004 2270.25,302.431 2273.21,301.86 2276.17,301.292 2279.13,300.725 2282.09,300.161 2285.05,299.599 2288.01,299.039 2290.98,298.481 2293.94,297.925 2296.9,297.371 2299.86,296.82 2302.82,296.27 2305.78,295.723 2308.74,295.178 2311.71,294.634 2314.67,294.093 2317.63,293.554 2320.59,293.017 2323.55,292.482 2326.51,291.948 2329.47,291.417 2332.44,290.888 2335.4,290.361 2338.36,289.836 2341.32,289.313 2344.28,288.792 2347.24,288.273 2350.2,287.756 2353.17,287.241 2356.13,286.728 2359.09,286.216 2362.05,285.707 2365.01,285.2 2367.97,284.694 2370.93,284.191 2373.9,283.689 2376.86,283.19 2379.82,282.692 2382.78,282.196 2385.74,281.702 2388.7,281.21 2391.66,280.72 2394.63,280.232 2397.59,279.745 2400.55,279.261 2403.51,278.778 2406.47,278.297 2409.43,277.818 2412.4,277.341 2415.36,276.866 2418.32,276.392 2421.28,275.92 2424.24,275.45 2427.2,274.982 2430.16,274.516 2433.13,274.051 2436.09,273.589 2439.05,273.128 2442.01,272.669 2444.97,272.211 2447.93,271.756 2450.89,271.302 2453.86,270.849 2456.82,270.399 2459.78,269.95 2462.74,269.503 2465.7,269.058 2468.66,268.615 2471.62,268.173 2474.59,267.733 2477.55,267.295 2480.51,266.858 2483.47,266.423 2486.43,265.99 2489.39,265.558 2492.35,265.128 2495.32,264.7 2498.28,264.273 2501.24,263.848 2504.2,263.425 2507.16,263.003 2510.12,262.583 2513.08,262.165 2516.05,261.748 2519.01,261.333 2521.97,260.92 2524.93,260.508 2527.89,260.097 2530.85,259.689 2533.81,259.282 2536.78,258.876 2539.74,258.472 2542.7,258.07 2545.66,257.669 2548.62,257.27 2551.58,256.872 2554.54,256.476 2557.51,256.082 2560.47,255.689 2563.43,255.297 2566.39,254.907 2569.35,254.519 2572.31,254.132 2575.27,253.747 2578.24,253.363 2581.2,252.981 2584.16,252.6 2587.12,252.221 2590.08,251.843 2593.04,251.467 2596,251.092 2598.97,250.719 2601.93,250.347 2604.89,249.977 2607.85,249.608 2610.81,249.24 2613.77,248.874 2616.73,248.51 2619.7,248.147 2622.66,247.785 2625.62,247.425 2628.58,247.066 2631.54,246.709 2634.5,246.353 2637.46,245.998 2640.43,245.645 2643.39,245.293 2646.35,244.943 2649.31,244.594 2652.27,244.246 2655.23,243.9 2658.19,243.555 2661.16,243.212 2664.12,242.869 2667.08,242.529 2670.04,242.189 2673,241.851 2675.96,241.514 2678.92,241.179 2681.89,240.845 2684.85,240.512 2687.81,240.181 2690.77,239.851 2693.73,239.522 2696.69,239.194 2699.66,238.868 2702.62,238.543 2705.58,238.219 2708.54,237.897 2711.5,237.576 2714.46,237.256 2717.42,236.938 2720.39,236.621 2723.35,236.305 2726.31,235.99 2729.27,235.676 2732.23,235.364 2735.19,235.053 2738.15,234.744 2741.12,234.435 2744.08,234.128 2747.04,233.822 2750,233.517 2752.96,233.213 2755.92,232.911 2758.88,232.61 2761.85,232.31 2764.81,232.011 2767.77,231.714 2770.73,231.417 2773.69,231.122 2776.65,230.828 2779.61,230.535 2782.58,230.243 2785.54,229.953 2788.5,229.664 2791.46,229.375 2794.42,229.088 2797.38,228.802 2800.34,228.518 2803.31,228.234 2806.27,227.952 2809.23,227.67 2812.19,227.39 2815.15,227.111 2818.11,226.833 2821.07,226.556 2824.04,226.281 2827,226.006 2829.96,225.732 2832.92,225.46 2835.88,225.189 2838.84,224.918 2841.8,224.649 2844.77,224.381 2847.73,224.114 2850.69,223.848 2853.65,223.584 2856.61,223.32 2859.57,223.057 2862.53,222.796 2865.5,222.535 2868.46,222.275 2871.42,222.017 2874.38,221.76 2877.34,221.503 2880.3,221.248 2883.26,220.994 2886.23,220.74 2889.19,220.488 2892.15,220.237 2895.11,219.987 2898.07,219.737 2901.03,219.489 2903.99,219.242 2906.96,218.996 2909.92,218.751 2912.88,218.507 2915.84,218.263 2918.8,218.021 2921.76,217.78 2924.72,217.54 2927.69,217.301 2930.65,217.062 2933.61,216.825 2936.57,216.589 2939.53,216.353 2942.49,216.119 2945.45,215.885 2948.42,215.653 2951.38,215.421 2954.34,215.191 2957.3,214.961 2960.26,214.732 2963.22,214.504 2966.18,214.277 2969.15,214.051 2972.11,213.826 2975.07,213.602 2978.03,213.379 2980.99,213.156 2983.95,212.935 2986.92,212.714 2989.88,212.495 2992.84,212.276 2995.8,212.058 2998.76,211.841 3001.72,211.625 3004.68,211.41 3007.65,211.196 3010.61,210.982 3013.57,210.77 3016.53,210.558 3019.49,210.347 3022.45,210.137 3025.41,209.928 3028.38,209.72 3031.34,209.512 3034.3,209.306 3037.26,209.1 3040.22,208.895 3043.18,208.691 3046.14,208.488 3049.11,208.285 3052.07,208.084 3055.03,207.883 3057.99,207.683 3060.95,207.484 3063.91,207.285 3066.87,207.088 3069.84,206.891 3072.8,206.695 3075.76,206.5 3078.72,206.306 3081.68,206.113 3084.64,205.92 3087.6,205.728 3090.57,205.537 3093.53,205.347 3096.49,205.157 3099.45,204.968 3102.41,204.78 3105.37,204.593 3108.33,204.407 3111.3,204.221 3114.26,204.036 3117.22,203.852 3120.18,203.668 3123.14,203.486 3126.1,203.304 3129.06,203.123 3132.03,202.942 3134.99,202.762 3137.95,202.583 3140.91,202.405 3143.87,202.228 3146.83,202.051 3149.79,201.875 3152.76,201.7 "/>
<circle clip-path="url(#clip242)" cx="490.122" cy="1253.01" r="21.6" fill="#0000ff" fill-rule="evenodd" fill-opacity="1" stroke="#000000" stroke-opacity="1" stroke-width="3.2"/>
<circle clip-path="url(#clip242)" cx="785.97" cy="931.817" r="21.6" fill="#0000ff" fill-rule="evenodd" fill-opacity="1" stroke="#000000" stroke-opacity="1" stroke-width="3.2"/>
<circle clip-path="url(#clip242)" cx="1081.82" cy="793.711" r="21.6" fill="#0000ff" fill-rule="evenodd" fill-opacity="1" stroke="#000000" stroke-opacity="1" stroke-width="3.2"/>
<circle clip-path="url(#clip242)" cx="1377.67" cy="501.222" r="21.6" fill="#0000ff" fill-rule="evenodd" fill-opacity="1" stroke="#000000" stroke-opacity="1" stroke-width="3.2"/>
<circle clip-path="url(#clip242)" cx="1673.51" cy="444.136" r="21.6" fill="#0000ff" fill-rule="evenodd" fill-opacity="1" stroke="#000000" stroke-opacity="1" stroke-width="3.2"/>
<circle clip-path="url(#clip242)" cx="1969.36" cy="506.279" r="21.6" fill="#0000ff" fill-rule="evenodd" fill-opacity="1" stroke="#000000" stroke-opacity="1" stroke-width="3.2"/>
<circle clip-path="url(#clip242)" cx="2265.21" cy="472.953" r="21.6" fill="#0000ff" fill-rule="evenodd" fill-opacity="1" stroke="#000000" stroke-opacity="1" stroke-width="3.2"/>
<circle clip-path="url(#clip242)" cx="2561.06" cy="124.03" r="21.6" fill="#0000ff" fill-rule="evenodd" fill-opacity="1" stroke="#000000" stroke-opacity="1" stroke-width="3.2"/>
<circle clip-path="url(#clip242)" cx="2856.91" cy="86.7664" r="21.6" fill="#0000ff" fill-rule="evenodd" fill-opacity="1" stroke="#000000" stroke-opacity="1" stroke-width="3.2"/>
<circle clip-path="url(#clip242)" cx="3152.76" cy="342.508" r="21.6" fill="#0000ff" fill-rule="evenodd" fill-opacity="1" stroke="#000000" stroke-opacity="1" stroke-width="3.2"/>
<polyline clip-path="url(#clip242)" style="stroke:#add8e6; stroke-linecap:round; stroke-linejoin:round; stroke-width:24; stroke-opacity:1; fill:none" stroke-dasharray="96, 60" points="194.274,1404.18 197.235,1404.14 200.197,1404.05 203.158,1403.88 206.12,1403.66 209.081,1403.37 212.043,1403.02 215.004,1402.61 217.966,1402.15 220.927,1401.63 223.888,1401.05 226.85,1400.42 229.811,1399.73 232.773,1399 235.734,1398.21 238.696,1397.37 241.657,1396.48 244.619,1395.55 247.58,1394.56 250.541,1393.54 253.503,1392.46 256.464,1391.34 259.426,1390.18 262.387,1388.98 265.349,1387.74 268.31,1386.45 271.272,1385.13 274.233,1383.76 277.194,1382.36 280.156,1380.92 283.117,1379.45 286.079,1377.94 289.04,1376.4 292.002,1374.82 294.963,1373.21 297.925,1371.56 300.886,1369.89 303.847,1368.18 306.809,1366.45 309.77,1364.68 312.732,1362.89 315.693,1361.06 318.655,1359.21 321.616,1357.34 324.578,1355.43 327.539,1353.51 330.5,1351.55 333.462,1349.57 336.423,1347.57 339.385,1345.55 342.346,1343.5 345.308,1341.43 348.269,1339.34 351.23,1337.23 354.192,1335.09 357.153,1332.94 360.115,1330.77 363.076,1328.58 366.038,1326.37 368.999,1324.14 371.961,1321.9 374.922,1319.63 377.883,1317.36 380.845,1315.06 383.806,1312.75 386.768,1310.43 389.729,1308.09 392.691,1305.73 395.652,1303.36 398.614,1300.98 401.575,1298.59 404.536,1296.18 407.498,1293.76 410.459,1291.33 413.421,1288.88 416.382,1286.43 419.344,1283.96 422.305,1281.48 425.267,1279 428.228,1276.5 431.189,1273.99 434.151,1271.48 437.112,1268.95 440.074,1266.42 443.035,1263.88 445.997,1261.33 448.958,1258.77 451.92,1256.21 454.881,1253.63 457.842,1251.06 460.804,1248.47 463.765,1245.88 466.727,1243.28 469.688,1240.68 472.65,1238.07 475.611,1235.45 478.573,1232.83 481.534,1230.21 484.495,1227.58 487.457,1224.95 490.418,1222.31 493.38,1219.67 496.341,1217.02 499.303,1214.37 502.264,1211.72 505.226,1209.06 508.187,1206.41 511.148,1203.75 514.11,1201.08 517.071,1198.42 520.033,1195.75 522.994,1193.08 525.956,1190.41 528.917,1187.73 531.879,1185.06 534.84,1182.38 537.801,1179.71 540.763,1177.03 543.724,1174.35 546.686,1171.67 549.647,1168.99 552.609,1166.31 555.57,1163.63 558.532,1160.95 561.493,1158.27 564.454,1155.59 567.416,1152.91 570.377,1150.23 573.339,1147.55 576.3,1144.88 579.262,1142.2 582.223,1139.53 585.185,1136.85 588.146,1134.18 591.107,1131.51 594.069,1128.84 597.03,1126.17 599.992,1123.5 602.953,1120.84 605.915,1118.17 608.876,1115.51 611.838,1112.85 614.799,1110.2 617.76,1107.54 620.722,1104.89 623.683,1102.24 626.645,1099.59 629.606,1096.95 632.568,1094.31 635.529,1091.67 638.491,1089.03 641.452,1086.4 644.413,1083.77 647.375,1081.15 650.336,1078.52 653.298,1075.9 656.259,1073.29 659.221,1070.67 662.182,1068.06 665.143,1065.46 668.105,1062.86 671.066,1060.26 674.028,1057.66 676.989,1055.07 679.951,1052.48 682.912,1049.9 685.874,1047.32 688.835,1044.75 691.796,1042.18 694.758,1039.61 697.719,1037.05 700.681,1034.49 703.642,1031.94 706.604,1029.39 709.565,1026.84 712.527,1024.3 715.488,1021.77 718.449,1019.24 721.411,1016.71 724.372,1014.19 727.334,1011.67 730.295,1009.16 733.257,1006.65 736.218,1004.15 739.18,1001.65 742.141,999.154 745.102,996.665 748.064,994.182 751.025,991.703 753.987,989.229 756.948,986.761 759.91,984.297 762.871,981.838 765.833,979.385 768.794,976.936 771.755,974.493 774.717,972.055 777.678,969.622 780.64,967.195 783.601,964.772 786.563,962.355 789.524,959.944 792.486,957.537 795.447,955.136 798.408,952.741 801.37,950.351 804.331,947.966 807.293,945.587 810.254,943.213 813.216,940.844 816.177,938.482 819.139,936.124 822.1,933.772 825.061,931.426 828.023,929.086 830.984,926.75 833.946,924.421 836.907,922.097 839.869,919.779 842.83,917.466 845.792,915.159 848.753,912.857 851.714,910.561 854.676,908.271 857.637,905.986 860.599,903.707 863.56,901.434 866.522,899.166 869.483,896.904 872.445,894.648 875.406,892.397 878.367,890.152 881.329,887.913 884.29,885.679 887.252,883.451 890.213,881.229 893.175,879.012 896.136,876.802 899.098,874.596 902.059,872.397 905.02,870.203 907.982,868.015 910.943,865.833 913.905,863.656 916.866,861.485 919.828,859.32 922.789,857.161 925.751,855.007 928.712,852.859 931.673,850.717 934.635,848.58 937.596,846.45 940.558,844.324 943.519,842.205 946.481,840.092 949.442,837.984 952.403,835.881 955.365,833.785 958.326,831.694 961.288,829.609 964.249,827.53 967.211,825.457 970.172,823.389 973.134,821.327 976.095,819.27 979.056,817.22 982.018,815.175 984.979,813.135 987.941,811.102 990.902,809.074 993.864,807.052 996.825,805.035 999.787,803.024 1002.75,801.019 1005.71,799.019 1008.67,797.025 1011.63,795.037 1014.59,793.054 1017.56,791.077 1020.52,789.106 1023.48,787.14 1026.44,785.179 1029.4,783.224 1032.36,781.275 1035.32,779.331 1038.29,777.393 1041.25,775.461 1044.21,773.533 1047.17,771.612 1050.13,769.696 1053.09,767.785 1056.05,765.88 1059.02,763.981 1061.98,762.086 1064.94,760.198 1067.9,758.315 1070.86,756.437 1073.82,754.565 1076.78,752.698 1079.75,750.836 1082.71,748.98 1085.67,747.13 1088.63,745.284 1091.59,743.445 1094.55,741.61 1097.51,739.781 1100.48,737.957 1103.44,736.139 1106.4,734.326 1109.36,732.518 1112.32,730.716 1115.28,728.919 1118.24,727.127 1121.21,725.341 1124.17,723.559 1127.13,721.784 1130.09,720.013 1133.05,718.248 1136.01,716.487 1138.97,714.733 1141.94,712.983 1144.9,711.239 1147.86,709.499 1150.82,707.765 1153.78,706.036 1156.74,704.313 1159.7,702.594 1162.67,700.881 1165.63,699.173 1168.59,697.47 1171.55,695.772 1174.51,694.079 1177.47,692.391 1180.43,690.709 1183.4,689.031 1186.36,687.359 1189.32,685.691 1192.28,684.029 1195.24,682.371 1198.2,680.719 1201.16,679.071 1204.13,677.429 1207.09,675.791 1210.05,674.159 1213.01,672.531 1215.97,670.908 1218.93,669.291 1221.89,667.678 1224.86,666.07 1227.82,664.467 1230.78,662.868 1233.74,661.275 1236.7,659.686 1239.66,658.103 1242.62,656.524 1245.59,654.95 1248.55,653.38 1251.51,651.816 1254.47,650.256 1257.43,648.701 1260.39,647.151 1263.36,645.605 1266.32,644.064 1269.28,642.528 1272.24,640.997 1275.2,639.47 1278.16,637.948 1281.12,636.43 1284.09,634.917 1287.05,633.409 1290.01,631.906 1292.97,630.407 1295.93,628.912 1298.89,627.423 1301.85,625.937 1304.82,624.457 1307.78,622.981 1310.74,621.509 1313.7,620.042 1316.66,618.58 1319.62,617.122 1322.58,615.668 1325.55,614.219 1328.51,612.775 1331.47,611.335 1334.43,609.899 1337.39,608.468 1340.35,607.041 1343.31,605.619 1346.28,604.201 1349.24,602.787 1352.2,601.378 1355.16,599.973 1358.12,598.573 1361.08,597.177 1364.04,595.785 1367.01,594.398 1369.97,593.015 1372.93,591.636 1375.89,590.261 1378.85,588.891 1381.81,587.525 1384.77,586.163 1387.74,584.806 1390.7,583.453 1393.66,582.104 1396.62,580.759 1399.58,579.418 1402.54,578.082 1405.5,576.749 1408.47,575.421 1411.43,574.097 1414.39,572.777 1417.35,571.462 1420.31,570.15 1423.27,568.842 1426.23,567.539 1429.2,566.239 1432.16,564.944 1435.12,563.653 1438.08,562.365 1441.04,561.082 1444,559.803 1446.96,558.528 1449.93,557.256 1452.89,555.989 1455.85,554.726 1458.81,553.466 1461.77,552.211 1464.73,550.959 1467.69,549.711 1470.66,548.468 1473.62,547.228 1476.58,545.992 1479.54,544.76 1482.5,543.531 1485.46,542.307 1488.42,541.086 1491.39,539.87 1494.35,538.657 1497.31,537.447 1500.27,536.242 1503.23,535.04 1506.19,533.843 1509.15,532.648 1512.12,531.458 1515.08,530.271 1518.04,529.089 1521,527.909 1523.96,526.734 1526.92,525.562 1529.88,524.394 1532.85,523.229 1535.81,522.069 1538.77,520.911 1541.73,519.758 1544.69,518.608 1547.65,517.462 1550.62,516.319 1553.58,515.18 1556.54,514.044 1559.5,512.913 1562.46,511.784 1565.42,510.659 1568.38,509.538 1571.35,508.42 1574.31,507.306 1577.27,506.195 1580.23,505.088 1583.19,503.984 1586.15,502.884 1589.11,501.787 1592.08,500.694 1595.04,499.604 1598,498.518 1600.96,497.435 1603.92,496.355 1606.88,495.279 1609.84,494.206 1612.81,493.137 1615.77,492.071 1618.73,491.008 1621.69,489.949 1624.65,488.893 1627.61,487.84 1630.57,486.791 1633.54,485.745 1636.5,484.703 1639.46,483.663 1642.42,482.627 1645.38,481.595 1648.34,480.565 1651.3,479.539 1654.27,478.516 1657.23,477.496 1660.19,476.48 1663.15,475.467 1666.11,474.457 1669.07,473.45 1672.03,472.446 1675,471.446 1677.96,470.448 1680.92,469.454 1683.88,468.463 1686.84,467.475 1689.8,466.49 1692.76,465.509 1695.73,464.53 1698.69,463.555 1701.65,462.583 1704.61,461.613 1707.57,460.647 1710.53,459.684 1713.49,458.724 1716.46,457.767 1719.42,456.813 1722.38,455.862 1725.34,454.914 1728.3,453.969 1731.26,453.027 1734.22,452.088 1737.19,451.152 1740.15,450.219 1743.11,449.289 1746.07,448.362 1749.03,447.438 1751.99,446.516 1754.95,445.598 1757.92,444.683 1760.88,443.77 1763.84,442.86 1766.8,441.954 1769.76,441.05 1772.72,440.149 1775.68,439.25 1778.65,438.355 1781.61,437.463 1784.57,436.573 1787.53,435.686 1790.49,434.802 1793.45,433.921 1796.41,433.043 1799.38,432.167 1802.34,431.294 1805.3,430.424 1808.26,429.557 1811.22,428.692 1814.18,427.83 1817.14,426.971 1820.11,426.115 1823.07,425.261 1826.03,424.41 1828.99,423.562 1831.95,422.717 1834.91,421.874 1837.88,421.034 1840.84,420.196 1843.8,419.361 1846.76,418.529 1849.72,417.7 1852.68,416.873 1855.64,416.048 1858.61,415.227 1861.57,414.408 1864.53,413.591 1867.49,412.778 1870.45,411.966 1873.41,411.158 1876.37,410.352 1879.34,409.548 1882.3,408.747 1885.26,407.949 1888.22,407.153 1891.18,406.359 1894.14,405.569 1897.1,404.78 1900.07,403.995 1903.03,403.211 1905.99,402.431 1908.95,401.652 1911.91,400.877 1914.87,400.103 1917.83,399.332 1920.8,398.564 1923.76,397.798 1926.72,397.035 1929.68,396.273 1932.64,395.515 1935.6,394.759 1938.56,394.005 1941.53,393.254 1944.49,392.505 1947.45,391.758 1950.41,391.014 1953.37,390.272 1956.33,389.533 1959.29,388.795 1962.26,388.061 1965.22,387.328 1968.18,386.598 1971.14,385.871 1974.1,385.145 1977.06,384.422 1980.02,383.701 1982.99,382.983 1985.95,382.267 1988.91,381.553 1991.87,380.841 1994.83,380.132 1997.79,379.425 2000.75,378.72 2003.72,378.017 2006.68,377.317 2009.64,376.619 2012.6,375.923 2015.56,375.229 2018.52,374.538 2021.48,373.849 2024.45,373.162 2027.41,372.477 2030.37,371.794 2033.33,371.114 2036.29,370.435 2039.25,369.759 2042.21,369.085 2045.18,368.413 2048.14,367.744 2051.1,367.076 2054.06,366.411 2057.02,365.747 2059.98,365.086 2062.94,364.427 2065.91,363.77 2068.87,363.115 2071.83,362.462 2074.79,361.812 2077.75,361.163 2080.71,360.517 2083.67,359.872 2086.64,359.23 2089.6,358.589 2092.56,357.951 2095.52,357.315 2098.48,356.68 2101.44,356.048 2104.4,355.418 2107.37,354.79 2110.33,354.164 2113.29,353.539 2116.25,352.917 2119.21,352.297 2122.17,351.679 2125.14,351.062 2128.1,350.448 2131.06,349.836 2134.02,349.225 2136.98,348.617 2139.94,348.01 2142.9,347.406 2145.87,346.803 2148.83,346.203 2151.79,345.604 2154.75,345.007 2157.71,344.412 2160.67,343.819 2163.63,343.228 2166.6,342.638 2169.56,342.051 2172.52,341.466 2175.48,340.882 2178.44,340.3 2181.4,339.72 2184.36,339.142 2187.33,338.566 2190.29,337.992 2193.25,337.419 2196.21,336.848 2199.17,336.279 2202.13,335.712 2205.09,335.147 2208.06,334.584 2211.02,334.022 2213.98,333.462 2216.94,332.904 2219.9,332.348 2222.86,331.793 2225.82,331.241 2228.79,330.69 2231.75,330.14 2234.71,329.593 2237.67,329.047 2240.63,328.503 2243.59,327.961 2246.55,327.421 2249.52,326.882 2252.48,326.345 2255.44,325.81 2258.4,325.276 2261.36,324.745 2264.32,324.214 2267.28,323.686 2270.25,323.159 2273.21,322.634 2276.17,322.111 2279.13,321.589 2282.09,321.069 2285.05,320.551 2288.01,320.034 2290.98,319.519 2293.94,319.006 2296.9,318.494 2299.86,317.984 2302.82,317.475 2305.78,316.969 2308.74,316.463 2311.71,315.96 2314.67,315.458 2317.63,314.958 2320.59,314.459 2323.55,313.962 2326.51,313.466 2329.47,312.972 2332.44,312.48 2335.4,311.989 2338.36,311.5 2341.32,311.012 2344.28,310.526 2347.24,310.042 2350.2,309.559 2353.17,309.077 2356.13,308.598 2359.09,308.119 2362.05,307.642 2365.01,307.167 2367.97,306.693 2370.93,306.221 2373.9,305.75 2376.86,305.281 2379.82,304.814 2382.78,304.347 2385.74,303.883 2388.7,303.419 2391.66,302.958 2394.63,302.497 2397.59,302.039 2400.55,301.581 2403.51,301.126 2406.47,300.671 2409.43,300.218 2412.4,299.767 2415.36,299.317 2418.32,298.868 2421.28,298.421 2424.24,297.975 2427.2,297.531 2430.16,297.088 2433.13,296.647 2436.09,296.207 2439.05,295.768 2442.01,295.331 2444.97,294.895 2447.93,294.461 2450.89,294.028 2453.86,293.596 2456.82,293.166 2459.78,292.737 2462.74,292.31 2465.7,291.884 2468.66,291.459 2471.62,291.035 2474.59,290.613 2477.55,290.193 2480.51,289.773 2483.47,289.355 2486.43,288.939 2489.39,288.523 2492.35,288.11 2495.32,287.697 2498.28,287.286 2501.24,286.876 2504.2,286.467 2507.16,286.059 2510.12,285.653 2513.08,285.249 2516.05,284.845 2519.01,284.443 2521.97,284.042 2524.93,283.643 2527.89,283.244 2530.85,282.847 2533.81,282.451 2536.78,282.057 2539.74,281.664 2542.7,281.272 2545.66,280.881 2548.62,280.491 2551.58,280.103 2554.54,279.716 2557.51,279.331 2560.47,278.946 2563.43,278.563 2566.39,278.181 2569.35,277.8 2572.31,277.42 2575.27,277.042 2578.24,276.665 2581.2,276.289 2584.16,275.914 2587.12,275.541 2590.08,275.168 2593.04,274.797 2596,274.427 2598.97,274.058 2601.93,273.691 2604.89,273.324 2607.85,272.959 2610.81,272.595 2613.77,272.232 2616.73,271.871 2619.7,271.51 2622.66,271.151 2625.62,270.792 2628.58,270.435 2631.54,270.079 2634.5,269.724 2637.46,269.371 2640.43,269.018 2643.39,268.667 2646.35,268.317 2649.31,267.967 2652.27,267.619 2655.23,267.272 2658.19,266.927 2661.16,266.582 2664.12,266.238 2667.08,265.896 2670.04,265.555 2673,265.214 2675.96,264.875 2678.92,264.537 2681.89,264.2 2684.85,263.864 2687.81,263.529 2690.77,263.196 2693.73,262.863 2696.69,262.531 2699.66,262.201 2702.62,261.871 2705.58,261.543 2708.54,261.215 2711.5,260.889 2714.46,260.564 2717.42,260.24 2720.39,259.917 2723.35,259.594 2726.31,259.273 2729.27,258.953 2732.23,258.634 2735.19,258.316 2738.15,257.999 2741.12,257.683 2744.08,257.369 2747.04,257.055 2750,256.742 2752.96,256.43 2755.92,256.119 2758.88,255.809 2761.85,255.5 2764.81,255.192 2767.77,254.885 2770.73,254.579 2773.69,254.274 2776.65,253.971 2779.61,253.668 2782.58,253.366 2785.54,253.065 2788.5,252.764 2791.46,252.465 2794.42,252.167 2797.38,251.87 2800.34,251.574 2803.31,251.278 2806.27,250.984 2809.23,250.691 2812.19,250.398 2815.15,250.107 2818.11,249.816 2821.07,249.527 2824.04,249.238 2827,248.95 2829.96,248.663 2832.92,248.377 2835.88,248.092 2838.84,247.808 2841.8,247.525 2844.77,247.243 2847.73,246.962 2850.69,246.681 2853.65,246.402 2856.61,246.123 2859.57,245.845 2862.53,245.568 2865.5,245.292 2868.46,245.017 2871.42,244.743 2874.38,244.47 2877.34,244.197 2880.3,243.926 2883.26,243.655 2886.23,243.385 2889.19,243.116 2892.15,242.848 2895.11,242.581 2898.07,242.315 2901.03,242.049 2903.99,241.785 2906.96,241.521 2909.92,241.258 2912.88,240.996 2915.84,240.734 2918.8,240.474 2921.76,240.214 2924.72,239.956 2927.69,239.698 2930.65,239.441 2933.61,239.184 2936.57,238.929 2939.53,238.674 2942.49,238.421 2945.45,238.168 2948.42,237.915 2951.38,237.664 2954.34,237.414 2957.3,237.164 2960.26,236.915 2963.22,236.667 2966.18,236.419 2969.15,236.173 2972.11,235.927 2975.07,235.682 2978.03,235.438 2980.99,235.195 2983.95,234.952 2986.92,234.71 2989.88,234.469 2992.84,234.229 2995.8,233.989 2998.76,233.751 3001.72,233.513 3004.68,233.276 3007.65,233.039 3010.61,232.803 3013.57,232.569 3016.53,232.334 3019.49,232.101 3022.45,231.868 3025.41,231.636 3028.38,231.405 3031.34,231.175 3034.3,230.945 3037.26,230.716 3040.22,230.488 3043.18,230.261 3046.14,230.034 3049.11,229.808 3052.07,229.583 3055.03,229.358 3057.99,229.134 3060.95,228.911 3063.91,228.689 3066.87,228.467 3069.84,228.246 3072.8,228.026 3075.76,227.806 3078.72,227.588 3081.68,227.369 3084.64,227.152 3087.6,226.935 3090.57,226.719 3093.53,226.504 3096.49,226.289 3099.45,226.075 3102.41,225.862 3105.37,225.649 3108.33,225.438 3111.3,225.226 3114.26,225.016 3117.22,224.806 3120.18,224.597 3123.14,224.388 3126.1,224.181 3129.06,223.973 3132.03,223.767 3134.99,223.561 3137.95,223.356 3140.91,223.152 3143.87,222.948 3146.83,222.745 3149.79,222.542 3152.76,222.34 "/>
<path clip-path="url(#clip240)" d="M292.89 301.153 L931.931 301.153 L931.931 93.7926 L292.89 93.7926  Z" fill="#ffffff" fill-rule="evenodd" fill-opacity="1"/>
<polyline clip-path="url(#clip240)" style="stroke:#000000; stroke-linecap:round; stroke-linejoin:round; stroke-width:4; stroke-opacity:1; fill:none" points="292.89,301.153 931.931,301.153 931.931,93.7926 292.89,93.7926 292.89,301.153 "/>
<polyline clip-path="url(#clip240)" style="stroke:#009af9; stroke-linecap:round; stroke-linejoin:round; stroke-width:20; stroke-opacity:1; fill:none" points="325.762,145.633 522.994,145.633 "/>
<path clip-path="url(#clip240)" d="M555.866 128.353 L585.102 128.353 L585.102 132.288 L572.834 132.288 L572.834 162.913 L568.135 162.913 L568.135 132.288 L555.866 132.288 L555.866 128.353 Z" fill="#000000" fill-rule="nonzero" fill-opacity="1" /><path clip-path="url(#clip240)" d="M597.486 140.968 Q596.769 140.552 595.912 140.366 Q595.079 140.158 594.06 140.158 Q590.449 140.158 588.505 142.519 Q586.584 144.857 586.584 149.255 L586.584 162.913 L582.301 162.913 L582.301 136.987 L586.584 136.987 L586.584 141.015 Q587.926 138.653 590.079 137.519 Q592.232 136.362 595.31 136.362 Q595.75 136.362 596.283 136.431 Q596.815 136.478 597.463 136.593 L597.486 140.968 Z" fill="#000000" fill-rule="nonzero" fill-opacity="1" /><path clip-path="url(#clip240)" d="M601.514 152.681 L601.514 136.987 L605.773 136.987 L605.773 152.519 Q605.773 156.2 607.209 158.052 Q608.644 159.88 611.514 159.88 Q614.963 159.88 616.954 157.681 Q618.968 155.482 618.968 151.686 L618.968 136.987 L623.227 136.987 L623.227 162.913 L618.968 162.913 L618.968 158.931 Q617.417 161.292 615.357 162.45 Q613.32 163.584 610.611 163.584 Q606.144 163.584 603.829 160.806 Q601.514 158.028 601.514 152.681 M612.232 136.362 L612.232 136.362 Z" fill="#000000" fill-rule="nonzero" fill-opacity="1" /><path clip-path="url(#clip240)" d="M654.176 148.885 L654.176 150.968 L634.593 150.968 Q634.87 155.366 637.232 157.681 Q639.616 159.973 643.852 159.973 Q646.306 159.973 648.597 159.371 Q650.912 158.769 653.181 157.565 L653.181 161.593 Q650.889 162.565 648.481 163.075 Q646.074 163.584 643.597 163.584 Q637.394 163.584 633.759 159.973 Q630.148 156.362 630.148 150.204 Q630.148 143.839 633.574 140.112 Q637.023 136.362 642.857 136.362 Q648.088 136.362 651.12 139.741 Q654.176 143.098 654.176 148.885 M649.917 147.635 Q649.87 144.14 647.949 142.056 Q646.051 139.973 642.903 139.973 Q639.338 139.973 637.185 141.987 Q635.056 144.001 634.732 147.658 L649.917 147.635 Z" fill="#000000" fill-rule="nonzero" fill-opacity="1" /><path clip-path="url(#clip240)" d="M692.764 137.751 L692.764 141.778 Q690.958 140.853 689.014 140.39 Q687.069 139.927 684.986 139.927 Q681.815 139.927 680.217 140.899 Q678.643 141.871 678.643 143.815 Q678.643 145.297 679.778 146.153 Q680.912 146.987 684.338 147.751 L685.796 148.075 Q690.333 149.047 692.231 150.829 Q694.153 152.589 694.153 155.76 Q694.153 159.371 691.282 161.477 Q688.435 163.584 683.435 163.584 Q681.352 163.584 679.083 163.167 Q676.838 162.774 674.338 161.964 L674.338 157.565 Q676.699 158.792 678.991 159.417 Q681.282 160.019 683.528 160.019 Q686.537 160.019 688.157 159.001 Q689.778 157.959 689.778 156.084 Q689.778 154.348 688.597 153.422 Q687.44 152.496 683.481 151.64 L682 151.292 Q678.042 150.459 676.282 148.746 Q674.523 147.01 674.523 144.001 Q674.523 140.343 677.116 138.353 Q679.708 136.362 684.477 136.362 Q686.838 136.362 688.921 136.709 Q691.004 137.056 692.764 137.751 Z" fill="#000000" fill-rule="nonzero" fill-opacity="1" /><path clip-path="url(#clip240)" d="M710.981 139.973 Q707.555 139.973 705.565 142.658 Q703.574 145.32 703.574 149.973 Q703.574 154.626 705.541 157.311 Q707.532 159.973 710.981 159.973 Q714.384 159.973 716.375 157.288 Q718.365 154.602 718.365 149.973 Q718.365 145.366 716.375 142.681 Q714.384 139.973 710.981 139.973 M710.981 136.362 Q716.537 136.362 719.708 139.973 Q722.879 143.584 722.879 149.973 Q722.879 156.339 719.708 159.973 Q716.537 163.584 710.981 163.584 Q705.402 163.584 702.231 159.973 Q699.083 156.339 699.083 149.973 Q699.083 143.584 702.231 139.973 Q705.402 136.362 710.981 136.362 Z" fill="#000000" fill-rule="nonzero" fill-opacity="1" /><path clip-path="url(#clip240)" d="M729.939 126.894 L734.199 126.894 L734.199 162.913 L729.939 162.913 L729.939 126.894 Z" fill="#000000" fill-rule="nonzero" fill-opacity="1" /><path clip-path="url(#clip240)" d="M742.671 152.681 L742.671 136.987 L746.93 136.987 L746.93 152.519 Q746.93 156.2 748.365 158.052 Q749.8 159.88 752.671 159.88 Q756.12 159.88 758.111 157.681 Q760.124 155.482 760.124 151.686 L760.124 136.987 L764.384 136.987 L764.384 162.913 L760.124 162.913 L760.124 158.931 Q758.573 161.292 756.513 162.45 Q754.476 163.584 751.768 163.584 Q747.3 163.584 744.986 160.806 Q742.671 158.028 742.671 152.681 M753.388 136.362 L753.388 136.362 Z" fill="#000000" fill-rule="nonzero" fill-opacity="1" /><path clip-path="url(#clip240)" d="M777.37 129.626 L777.37 136.987 L786.143 136.987 L786.143 140.297 L777.37 140.297 L777.37 154.371 Q777.37 157.542 778.226 158.445 Q779.106 159.348 781.768 159.348 L786.143 159.348 L786.143 162.913 L781.768 162.913 Q776.837 162.913 774.962 161.084 Q773.087 159.232 773.087 154.371 L773.087 140.297 L769.962 140.297 L769.962 136.987 L773.087 136.987 L773.087 129.626 L777.37 129.626 Z" fill="#000000" fill-rule="nonzero" fill-opacity="1" /><path clip-path="url(#clip240)" d="M791.745 136.987 L796.004 136.987 L796.004 162.913 L791.745 162.913 L791.745 136.987 M791.745 126.894 L796.004 126.894 L796.004 132.288 L791.745 132.288 L791.745 126.894 Z" fill="#000000" fill-rule="nonzero" fill-opacity="1" /><path clip-path="url(#clip240)" d="M814.962 139.973 Q811.536 139.973 809.545 142.658 Q807.555 145.32 807.555 149.973 Q807.555 154.626 809.522 157.311 Q811.513 159.973 814.962 159.973 Q818.365 159.973 820.356 157.288 Q822.346 154.602 822.346 149.973 Q822.346 145.366 820.356 142.681 Q818.365 139.973 814.962 139.973 M814.962 136.362 Q820.518 136.362 823.689 139.973 Q826.86 143.584 826.86 149.973 Q826.86 156.339 823.689 159.973 Q820.518 163.584 814.962 163.584 Q809.383 163.584 806.212 159.973 Q803.064 156.339 803.064 149.973 Q803.064 143.584 806.212 139.973 Q809.383 136.362 814.962 136.362 Z" fill="#000000" fill-rule="nonzero" fill-opacity="1" /><path clip-path="url(#clip240)" d="M855.471 147.265 L855.471 162.913 L851.212 162.913 L851.212 147.403 Q851.212 143.723 849.777 141.894 Q848.342 140.066 845.471 140.066 Q842.022 140.066 840.031 142.265 Q838.041 144.464 838.041 148.26 L838.041 162.913 L833.758 162.913 L833.758 136.987 L838.041 136.987 L838.041 141.015 Q839.568 138.677 841.629 137.519 Q843.712 136.362 846.42 136.362 Q850.888 136.362 853.179 139.14 Q855.471 141.894 855.471 147.265 Z" fill="#000000" fill-rule="nonzero" fill-opacity="1" /><circle clip-path="url(#clip240)" cx="424.378" cy="197.473" r="21.2677" fill="#0000ff" fill-rule="evenodd" fill-opacity="1" stroke="#000000" stroke-opacity="1" stroke-width="3.15077"/>
<path clip-path="url(#clip240)" d="M555.866 180.193 L562.834 180.193 L571.653 203.711 L580.519 180.193 L587.486 180.193 L587.486 214.753 L582.926 214.753 L582.926 184.406 L574.014 208.109 L569.315 208.109 L560.403 184.406 L560.403 214.753 L555.866 214.753 L555.866 180.193 Z" fill="#000000" fill-rule="nonzero" fill-opacity="1" /><path clip-path="url(#clip240)" d="M618.759 200.725 L618.759 202.808 L599.176 202.808 Q599.454 207.206 601.815 209.521 Q604.199 211.813 608.435 211.813 Q610.889 211.813 613.181 211.211 Q615.496 210.609 617.764 209.405 L617.764 213.433 Q615.472 214.405 613.065 214.915 Q610.658 215.424 608.181 215.424 Q601.977 215.424 598.343 211.813 Q594.732 208.202 594.732 202.044 Q594.732 195.679 598.158 191.952 Q601.607 188.202 607.44 188.202 Q612.671 188.202 615.704 191.581 Q618.759 194.938 618.759 200.725 M614.5 199.475 Q614.454 195.98 612.533 193.896 Q610.634 191.813 607.486 191.813 Q603.922 191.813 601.769 193.827 Q599.639 195.841 599.315 199.498 L614.5 199.475 Z" fill="#000000" fill-rule="nonzero" fill-opacity="1" /><path clip-path="url(#clip240)" d="M637.532 201.72 Q632.37 201.72 630.38 202.901 Q628.389 204.081 628.389 206.929 Q628.389 209.197 629.87 210.54 Q631.375 211.859 633.945 211.859 Q637.486 211.859 639.616 209.359 Q641.769 206.836 641.769 202.669 L641.769 201.72 L637.532 201.72 M646.028 199.961 L646.028 214.753 L641.769 214.753 L641.769 210.817 Q640.31 213.179 638.134 214.313 Q635.958 215.424 632.81 215.424 Q628.829 215.424 626.468 213.202 Q624.13 210.956 624.13 207.206 Q624.13 202.831 627.046 200.609 Q629.986 198.387 635.796 198.387 L641.769 198.387 L641.769 197.97 Q641.769 195.031 639.824 193.433 Q637.903 191.813 634.407 191.813 Q632.185 191.813 630.079 192.345 Q627.972 192.878 626.028 193.943 L626.028 190.007 Q628.366 189.105 630.565 188.665 Q632.764 188.202 634.847 188.202 Q640.472 188.202 643.25 191.118 Q646.028 194.035 646.028 199.961 Z" fill="#000000" fill-rule="nonzero" fill-opacity="1" /><path clip-path="url(#clip240)" d="M671.329 189.591 L671.329 193.618 Q669.523 192.693 667.579 192.23 Q665.634 191.767 663.551 191.767 Q660.38 191.767 658.782 192.739 Q657.208 193.711 657.208 195.655 Q657.208 197.137 658.343 197.993 Q659.477 198.827 662.903 199.591 L664.361 199.915 Q668.898 200.887 670.796 202.669 Q672.717 204.429 672.717 207.6 Q672.717 211.211 669.847 213.317 Q667 215.424 662 215.424 Q659.917 215.424 657.648 215.007 Q655.403 214.614 652.903 213.804 L652.903 209.405 Q655.264 210.632 657.556 211.257 Q659.847 211.859 662.093 211.859 Q665.102 211.859 666.722 210.841 Q668.342 209.799 668.342 207.924 Q668.342 206.188 667.162 205.262 Q666.005 204.336 662.046 203.48 L660.565 203.132 Q656.606 202.299 654.847 200.586 Q653.088 198.85 653.088 195.841 Q653.088 192.183 655.681 190.193 Q658.273 188.202 663.042 188.202 Q665.403 188.202 667.486 188.549 Q669.569 188.896 671.329 189.591 Z" fill="#000000" fill-rule="nonzero" fill-opacity="1" /><path clip-path="url(#clip240)" d="M679.06 204.521 L679.06 188.827 L683.319 188.827 L683.319 204.359 Q683.319 208.04 684.754 209.892 Q686.19 211.72 689.06 211.72 Q692.509 211.72 694.5 209.521 Q696.514 207.322 696.514 203.526 L696.514 188.827 L700.773 188.827 L700.773 214.753 L696.514 214.753 L696.514 210.771 Q694.963 213.132 692.903 214.29 Q690.866 215.424 688.157 215.424 Q683.69 215.424 681.375 212.646 Q679.06 209.868 679.06 204.521 M689.778 188.202 L689.778 188.202 Z" fill="#000000" fill-rule="nonzero" fill-opacity="1" /><path clip-path="url(#clip240)" d="M724.569 192.808 Q723.851 192.392 722.995 192.206 Q722.162 191.998 721.143 191.998 Q717.532 191.998 715.588 194.359 Q713.666 196.697 713.666 201.095 L713.666 214.753 L709.384 214.753 L709.384 188.827 L713.666 188.827 L713.666 192.855 Q715.009 190.493 717.162 189.359 Q719.314 188.202 722.393 188.202 Q722.833 188.202 723.365 188.271 Q723.898 188.318 724.546 188.433 L724.569 192.808 Z" fill="#000000" fill-rule="nonzero" fill-opacity="1" /><path clip-path="url(#clip240)" d="M750.171 200.725 L750.171 202.808 L730.588 202.808 Q730.865 207.206 733.226 209.521 Q735.611 211.813 739.847 211.813 Q742.3 211.813 744.592 211.211 Q746.907 210.609 749.175 209.405 L749.175 213.433 Q746.884 214.405 744.476 214.915 Q742.069 215.424 739.592 215.424 Q733.388 215.424 729.754 211.813 Q726.143 208.202 726.143 202.044 Q726.143 195.679 729.569 191.952 Q733.018 188.202 738.851 188.202 Q744.083 188.202 747.115 191.581 Q750.171 194.938 750.171 200.725 M745.912 199.475 Q745.865 195.98 743.944 193.896 Q742.046 191.813 738.898 191.813 Q735.333 191.813 733.18 193.827 Q731.05 195.841 730.726 199.498 L745.912 199.475 Z" fill="#000000" fill-rule="nonzero" fill-opacity="1" /><path clip-path="url(#clip240)" d="M777.347 193.804 Q778.944 190.933 781.166 189.568 Q783.388 188.202 786.397 188.202 Q790.448 188.202 792.647 191.049 Q794.846 193.873 794.846 199.105 L794.846 214.753 L790.564 214.753 L790.564 199.243 Q790.564 195.517 789.245 193.711 Q787.925 191.906 785.217 191.906 Q781.907 191.906 779.985 194.105 Q778.064 196.304 778.064 200.1 L778.064 214.753 L773.782 214.753 L773.782 199.243 Q773.782 195.493 772.462 193.711 Q771.143 191.906 768.388 191.906 Q765.124 191.906 763.203 194.128 Q761.282 196.327 761.282 200.1 L761.282 214.753 L756.999 214.753 L756.999 188.827 L761.282 188.827 L761.282 192.855 Q762.74 190.47 764.777 189.336 Q766.814 188.202 769.615 188.202 Q772.439 188.202 774.407 189.637 Q776.397 191.072 777.347 193.804 Z" fill="#000000" fill-rule="nonzero" fill-opacity="1" /><path clip-path="url(#clip240)" d="M825.518 200.725 L825.518 202.808 L805.934 202.808 Q806.212 207.206 808.573 209.521 Q810.957 211.813 815.194 211.813 Q817.647 211.813 819.939 211.211 Q822.254 210.609 824.522 209.405 L824.522 213.433 Q822.231 214.405 819.823 214.915 Q817.416 215.424 814.939 215.424 Q808.735 215.424 805.101 211.813 Q801.49 208.202 801.49 202.044 Q801.49 195.679 804.916 191.952 Q808.365 188.202 814.198 188.202 Q819.43 188.202 822.462 191.581 Q825.518 194.938 825.518 200.725 M821.258 199.475 Q821.212 195.98 819.291 193.896 Q817.393 191.813 814.244 191.813 Q810.68 191.813 808.527 193.827 Q806.397 195.841 806.073 199.498 L821.258 199.475 Z" fill="#000000" fill-rule="nonzero" fill-opacity="1" /><path clip-path="url(#clip240)" d="M854.059 199.105 L854.059 214.753 L849.8 214.753 L849.8 199.243 Q849.8 195.563 848.365 193.734 Q846.929 191.906 844.059 191.906 Q840.61 191.906 838.619 194.105 Q836.629 196.304 836.629 200.1 L836.629 214.753 L832.346 214.753 L832.346 188.827 L836.629 188.827 L836.629 192.855 Q838.156 190.517 840.217 189.359 Q842.3 188.202 845.008 188.202 Q849.476 188.202 851.767 190.98 Q854.059 193.734 854.059 199.105 Z" fill="#000000" fill-rule="nonzero" fill-opacity="1" /><path clip-path="url(#clip240)" d="M866.767 181.466 L866.767 188.827 L875.54 188.827 L875.54 192.137 L866.767 192.137 L866.767 206.211 Q866.767 209.382 867.624 210.285 Q868.503 211.188 871.165 211.188 L875.54 211.188 L875.54 214.753 L871.165 214.753 Q866.235 214.753 864.36 212.924 Q862.485 211.072 862.485 206.211 L862.485 192.137 L859.36 192.137 L859.36 188.827 L862.485 188.827 L862.485 181.466 L866.767 181.466 Z" fill="#000000" fill-rule="nonzero" fill-opacity="1" /><path clip-path="url(#clip240)" d="M897.67 189.591 L897.67 193.618 Q895.864 192.693 893.92 192.23 Q891.976 191.767 889.892 191.767 Q886.721 191.767 885.124 192.739 Q883.55 193.711 883.55 195.655 Q883.55 197.137 884.684 197.993 Q885.818 198.827 889.244 199.591 L890.702 199.915 Q895.239 200.887 897.138 202.669 Q899.059 204.429 899.059 207.6 Q899.059 211.211 896.188 213.317 Q893.341 215.424 888.341 215.424 Q886.258 215.424 883.989 215.007 Q881.744 214.614 879.244 213.804 L879.244 209.405 Q881.605 210.632 883.897 211.257 Q886.189 211.859 888.434 211.859 Q891.443 211.859 893.064 210.841 Q894.684 209.799 894.684 207.924 Q894.684 206.188 893.503 205.262 Q892.346 204.336 888.388 203.48 L886.906 203.132 Q882.948 202.299 881.189 200.586 Q879.429 198.85 879.429 195.841 Q879.429 192.183 882.022 190.193 Q884.614 188.202 889.383 188.202 Q891.744 188.202 893.827 188.549 Q895.911 188.896 897.67 189.591 Z" fill="#000000" fill-rule="nonzero" fill-opacity="1" /><polyline clip-path="url(#clip240)" style="stroke:#add8e6; stroke-linecap:round; stroke-linejoin:round; stroke-width:20; stroke-opacity:1; fill:none" stroke-dasharray="80, 50" points="325.762,249.313 522.994,249.313 "/>
<path clip-path="url(#clip240)" d="M555.866 232.033 L575.727 232.033 L575.727 235.968 L560.542 235.968 L560.542 246.153 L574.246 246.153 L574.246 250.088 L560.542 250.088 L560.542 266.593 L555.866 266.593 L555.866 232.033 Z" fill="#000000" fill-rule="nonzero" fill-opacity="1" /><path clip-path="url(#clip240)" d="M579.5 240.667 L583.76 240.667 L583.76 266.593 L579.5 266.593 L579.5 240.667 M579.5 230.574 L583.76 230.574 L583.76 235.968 L579.5 235.968 L579.5 230.574 Z" fill="#000000" fill-rule="nonzero" fill-opacity="1" /><path clip-path="url(#clip240)" d="M596.885 233.306 L596.885 240.667 L605.658 240.667 L605.658 243.977 L596.885 243.977 L596.885 258.051 Q596.885 261.222 597.741 262.125 Q598.621 263.028 601.283 263.028 L605.658 263.028 L605.658 266.593 L601.283 266.593 Q596.352 266.593 594.477 264.764 Q592.602 262.912 592.602 258.051 L592.602 243.977 L589.477 243.977 L589.477 240.667 L592.602 240.667 L592.602 233.306 L596.885 233.306 Z" fill="#000000" fill-rule="nonzero" fill-opacity="1" /><path clip-path="url(#clip240)" d="M615.472 233.306 L615.472 240.667 L624.245 240.667 L624.245 243.977 L615.472 243.977 L615.472 258.051 Q615.472 261.222 616.329 262.125 Q617.208 263.028 619.871 263.028 L624.245 263.028 L624.245 266.593 L619.871 266.593 Q614.94 266.593 613.065 264.764 Q611.19 262.912 611.19 258.051 L611.19 243.977 L608.065 243.977 L608.065 240.667 L611.19 240.667 L611.19 233.306 L615.472 233.306 Z" fill="#000000" fill-rule="nonzero" fill-opacity="1" /><path clip-path="url(#clip240)" d="M652.023 252.565 L652.023 254.648 L632.44 254.648 Q632.718 259.046 635.079 261.361 Q637.463 263.653 641.699 263.653 Q644.153 263.653 646.444 263.051 Q648.759 262.449 651.028 261.245 L651.028 265.273 Q648.736 266.245 646.329 266.755 Q643.921 267.264 641.444 267.264 Q635.241 267.264 631.607 263.653 Q627.995 260.042 627.995 253.884 Q627.995 247.519 631.421 243.792 Q634.87 240.042 640.704 240.042 Q645.935 240.042 648.968 243.421 Q652.023 246.778 652.023 252.565 M647.764 251.315 Q647.718 247.82 645.796 245.736 Q643.898 243.653 640.75 243.653 Q637.185 243.653 635.032 245.667 Q632.903 247.681 632.579 251.338 L647.764 251.315 Z" fill="#000000" fill-rule="nonzero" fill-opacity="1" /><path clip-path="url(#clip240)" d="M676.074 244.602 L676.074 230.574 L680.333 230.574 L680.333 266.593 L676.074 266.593 L676.074 262.704 Q674.731 265.019 672.671 266.153 Q670.634 267.264 667.764 267.264 Q663.065 267.264 660.102 263.514 Q657.162 259.764 657.162 253.653 Q657.162 247.542 660.102 243.792 Q663.065 240.042 667.764 240.042 Q670.634 240.042 672.671 241.176 Q674.731 242.287 676.074 244.602 M661.56 253.653 Q661.56 258.352 663.481 261.037 Q665.426 263.699 668.805 263.699 Q672.185 263.699 674.129 261.037 Q676.074 258.352 676.074 253.653 Q676.074 248.954 674.129 246.292 Q672.185 243.607 668.805 243.607 Q665.426 243.607 663.481 246.292 Q661.56 248.954 661.56 253.653 Z" fill="#000000" fill-rule="nonzero" fill-opacity="1" /><path clip-path="url(#clip240)" d="M720.703 241.431 L720.703 245.458 Q718.898 244.533 716.953 244.07 Q715.009 243.607 712.926 243.607 Q709.754 243.607 708.157 244.579 Q706.583 245.551 706.583 247.495 Q706.583 248.977 707.717 249.833 Q708.852 250.667 712.277 251.431 L713.736 251.755 Q718.273 252.727 720.171 254.509 Q722.092 256.269 722.092 259.44 Q722.092 263.051 719.222 265.157 Q716.375 267.264 711.375 267.264 Q709.291 267.264 707.023 266.847 Q704.777 266.454 702.277 265.644 L702.277 261.245 Q704.639 262.472 706.93 263.097 Q709.222 263.699 711.467 263.699 Q714.476 263.699 716.097 262.681 Q717.717 261.639 717.717 259.764 Q717.717 258.028 716.537 257.102 Q715.379 256.176 711.421 255.32 L709.939 254.972 Q705.981 254.139 704.222 252.426 Q702.463 250.69 702.463 247.681 Q702.463 244.023 705.055 242.033 Q707.648 240.042 712.416 240.042 Q714.777 240.042 716.861 240.389 Q718.944 240.736 720.703 241.431 Z" fill="#000000" fill-rule="nonzero" fill-opacity="1" /><path clip-path="url(#clip240)" d="M738.921 243.653 Q735.495 243.653 733.504 246.338 Q731.513 249 731.513 253.653 Q731.513 258.306 733.481 260.991 Q735.472 263.653 738.921 263.653 Q742.324 263.653 744.314 260.968 Q746.305 258.282 746.305 253.653 Q746.305 249.046 744.314 246.361 Q742.324 243.653 738.921 243.653 M738.921 240.042 Q744.476 240.042 747.648 243.653 Q750.819 247.264 750.819 253.653 Q750.819 260.019 747.648 263.653 Q744.476 267.264 738.921 267.264 Q733.342 267.264 730.171 263.653 Q727.023 260.019 727.023 253.653 Q727.023 247.264 730.171 243.653 Q733.342 240.042 738.921 240.042 Z" fill="#000000" fill-rule="nonzero" fill-opacity="1" /><path clip-path="url(#clip240)" d="M757.879 230.574 L762.138 230.574 L762.138 266.593 L757.879 266.593 L757.879 230.574 Z" fill="#000000" fill-rule="nonzero" fill-opacity="1" /><path clip-path="url(#clip240)" d="M770.61 256.361 L770.61 240.667 L774.87 240.667 L774.87 256.199 Q774.87 259.88 776.305 261.732 Q777.74 263.56 780.61 263.56 Q784.059 263.56 786.05 261.361 Q788.064 259.162 788.064 255.366 L788.064 240.667 L792.323 240.667 L792.323 266.593 L788.064 266.593 L788.064 262.611 Q786.513 264.972 784.453 266.13 Q782.416 267.264 779.708 267.264 Q775.24 267.264 772.925 264.486 Q770.61 261.708 770.61 256.361 M781.328 240.042 L781.328 240.042 Z" fill="#000000" fill-rule="nonzero" fill-opacity="1" /><path clip-path="url(#clip240)" d="M805.309 233.306 L805.309 240.667 L814.082 240.667 L814.082 243.977 L805.309 243.977 L805.309 258.051 Q805.309 261.222 806.166 262.125 Q807.045 263.028 809.707 263.028 L814.082 263.028 L814.082 266.593 L809.707 266.593 Q804.777 266.593 802.902 264.764 Q801.027 262.912 801.027 258.051 L801.027 243.977 L797.902 243.977 L797.902 240.667 L801.027 240.667 L801.027 233.306 L805.309 233.306 Z" fill="#000000" fill-rule="nonzero" fill-opacity="1" /><path clip-path="url(#clip240)" d="M819.684 240.667 L823.944 240.667 L823.944 266.593 L819.684 266.593 L819.684 240.667 M819.684 230.574 L823.944 230.574 L823.944 235.968 L819.684 235.968 L819.684 230.574 Z" fill="#000000" fill-rule="nonzero" fill-opacity="1" /><path clip-path="url(#clip240)" d="M842.902 243.653 Q839.476 243.653 837.485 246.338 Q835.494 249 835.494 253.653 Q835.494 258.306 837.462 260.991 Q839.453 263.653 842.902 263.653 Q846.304 263.653 848.295 260.968 Q850.286 258.282 850.286 253.653 Q850.286 249.046 848.295 246.361 Q846.304 243.653 842.902 243.653 M842.902 240.042 Q848.457 240.042 851.629 243.653 Q854.8 247.264 854.8 253.653 Q854.8 260.019 851.629 263.653 Q848.457 267.264 842.902 267.264 Q837.323 267.264 834.152 263.653 Q831.004 260.019 831.004 253.653 Q831.004 247.264 834.152 243.653 Q837.323 240.042 842.902 240.042 Z" fill="#000000" fill-rule="nonzero" fill-opacity="1" /><path clip-path="url(#clip240)" d="M883.411 250.945 L883.411 266.593 L879.152 266.593 L879.152 251.083 Q879.152 247.403 877.716 245.574 Q876.281 243.746 873.411 243.746 Q869.962 243.746 867.971 245.945 Q865.98 248.144 865.98 251.94 L865.98 266.593 L861.698 266.593 L861.698 240.667 L865.98 240.667 L865.98 244.695 Q867.508 242.357 869.568 241.199 Q871.652 240.042 874.36 240.042 Q878.827 240.042 881.119 242.82 Q883.411 245.574 883.411 250.945 Z" fill="#000000" fill-rule="nonzero" fill-opacity="1" /></svg>
