<?xml version="1.0" encoding="UTF-8" standalone="no"?>
<!DOCTYPE svg PUBLIC "-//W3C//DTD SVG 1.1//EN"
 "http://www.w3.org/Graphics/SVG/1.1/DTD/svg11.dtd">
<!-- Generated by graphviz version 2.50.0 (20211204.2007)
 -->
<!-- Title: G Pages: 1 -->
<svg width="246pt" height="147pt"
 viewBox="0.00 0.00 245.99 147.00" xmlns="http://www.w3.org/2000/svg" xmlns:xlink="http://www.w3.org/1999/xlink">
<g id="graph0" class="graph" transform="scale(1 1) rotate(0) translate(4 143)">
<title>G</title>
<polygon fill="white" stroke="transparent" points="-4,4 -4,-143 241.99,-143 241.99,4 -4,4"/>
<!-- A -->
<g id="node1" class="node">
<title>A</title>
<ellipse fill="#6c9ac3" stroke="#6c9ac3" cx="32.5" cy="-18" rx="18" ry="18"/>
<text text-anchor="middle" x="32.5" y="-14.3" font-family="Times,serif" font-size="14.00">A</text>
</g>
<!-- B -->
<g id="node2" class="node">
<title>B</title>
<ellipse fill="#6c9ac3" stroke="#6c9ac3" cx="118.99" cy="-18" rx="18" ry="18"/>
<text text-anchor="middle" x="118.99" y="-14.3" font-family="Times,serif" font-size="14.00">B</text>
</g>
<!-- A&#45;&gt;B -->
<g id="edge1" class="edge">
<title>A&#45;&gt;B</title>
<path fill="none" stroke="black" d="M49.79,-12.54C61.6,-11.18 77.82,-10.9 91.48,-11.68"/>
<polygon fill="black" stroke="black" points="91.49,-15.2 101.75,-12.55 92.08,-8.22 91.49,-15.2"/>
</g>
<!-- B&#45;&gt;A -->
<g id="edge2" class="edge">
<title>B&#45;&gt;A</title>
<path fill="none" stroke="black" d="M101.75,-23.45C89.96,-24.82 73.74,-25.1 60.07,-24.32"/>
<polygon fill="black" stroke="black" points="60.05,-20.8 49.79,-23.46 59.46,-27.78 60.05,-20.8"/>
</g>
<!-- A + C -->
<g id="node3" class="node">
<title>A + C</title>
<ellipse fill="#6c9ac3" stroke="#6c9ac3" cx="32.5" cy="-103" rx="32.49" ry="32.49"/>
<text text-anchor="middle" x="32.5" y="-99.3" font-family="Times,serif" font-size="14.00">A + C</text>
</g>
<!-- D -->
<g id="node4" class="node">
<title>D</title>
<ellipse fill="#6c9ac3" stroke="#6c9ac3" cx="118.99" cy="-121" rx="18" ry="18"/>
<text text-anchor="middle" x="118.99" y="-117.3" font-family="Times,serif" font-size="14.00">D</text>
</g>
<!-- A + C&#45;&gt;D -->
<g id="edge3" class="edge">
<title>A + C&#45;&gt;D</title>
<path fill="none" stroke="black" d="M64.48,-109.6C73.32,-111.48 82.87,-113.52 91.42,-115.34"/>
<polygon fill="black" stroke="black" points="90.73,-118.77 101.24,-117.43 92.19,-111.92 90.73,-118.77"/>
</g>
<!-- B + E -->
<g id="node5" class="node">
<title>B + E</title>
<ellipse fill="#6c9ac3" stroke="#6c9ac3" cx="205.49" cy="-98" rx="32.49" ry="32.49"/>
<text text-anchor="middle" x="205.49" y="-94.3" font-family="Times,serif" font-size="14.00">B + E</text>
</g>
<!-- D&#45;&gt;B + E -->
<g id="edge4" class="edge">
<title>D&#45;&gt;B + E</title>
<path fill="none" stroke="black" d="M136.69,-116.46C144.54,-114.32 154.28,-111.67 163.91,-109.05"/>
<polygon fill="black" stroke="black" points="165.08,-112.35 173.81,-106.35 163.24,-105.6 165.08,-112.35"/>
</g>
<!-- B + E&#45;&gt;A + C -->
<g id="edge5" class="edge">
<title>B + E&#45;&gt;A + C</title>
<path fill="none" stroke="black" d="M172.76,-95.05C152.27,-93.57 125.04,-92.4 100.99,-94 92.43,-94.57 83.3,-95.54 74.6,-96.64"/>
<polygon fill="black" stroke="black" points="74.11,-93.17 64.66,-97.97 75.04,-100.11 74.11,-93.17"/>
</g>
</g>
</svg>
