<?xml version="1.0" encoding="utf-8"?>
<svg xmlns="http://www.w3.org/2000/svg" xmlns:xlink="http://www.w3.org/1999/xlink" width="800" height="400" viewBox="0 0 3200 1600">
<defs>
  <clipPath id="clip320">
    <rect x="0" y="0" width="3200" height="1600"/>
  </clipPath>
</defs>
<path clip-path="url(#clip320)" d="M0 1600 L3200 1600 L3200 0 L0 0  Z" fill="#ffffff" fill-rule="evenodd" fill-opacity="1"/>
<defs>
  <clipPath id="clip321">
    <rect x="211" y="47" width="2942" height="1350"/>
  </clipPath>
</defs>
<path clip-path="url(#clip320)" d="M211.356 1396.46 L3152.76 1396.46 L3152.76 47.2441 L211.356 47.2441  Z" fill="#ffffff" fill-rule="evenodd" fill-opacity="1"/>
<polyline clip-path="url(#clip321)" style="stroke:#000000; stroke-linecap:round; stroke-linejoin:round; stroke-width:2; stroke-opacity:0.1; fill:none" points="211.356,1396.46 211.356,47.2441 "/>
<polyline clip-path="url(#clip321)" style="stroke:#000000; stroke-linecap:round; stroke-linejoin:round; stroke-width:2; stroke-opacity:0.1; fill:none" points="799.636,1396.46 799.636,47.2441 "/>
<polyline clip-path="url(#clip321)" style="stroke:#000000; stroke-linecap:round; stroke-linejoin:round; stroke-width:2; stroke-opacity:0.1; fill:none" points="1387.92,1396.46 1387.92,47.2441 "/>
<polyline clip-path="url(#clip321)" style="stroke:#000000; stroke-linecap:round; stroke-linejoin:round; stroke-width:2; stroke-opacity:0.1; fill:none" points="1976.2,1396.46 1976.2,47.2441 "/>
<polyline clip-path="url(#clip321)" style="stroke:#000000; stroke-linecap:round; stroke-linejoin:round; stroke-width:2; stroke-opacity:0.1; fill:none" points="2564.48,1396.46 2564.48,47.2441 "/>
<polyline clip-path="url(#clip321)" style="stroke:#000000; stroke-linecap:round; stroke-linejoin:round; stroke-width:2; stroke-opacity:0.1; fill:none" points="3152.76,1396.46 3152.76,47.2441 "/>
<polyline clip-path="url(#clip321)" style="stroke:#000000; stroke-linecap:round; stroke-linejoin:round; stroke-width:2; stroke-opacity:0.1; fill:none" points="211.356,1396.46 211.356,47.2441 "/>
<polyline clip-path="url(#clip321)" style="stroke:#000000; stroke-linecap:round; stroke-linejoin:round; stroke-width:2; stroke-opacity:0.1; fill:none" points="799.636,1396.46 799.636,47.2441 "/>
<polyline clip-path="url(#clip321)" style="stroke:#000000; stroke-linecap:round; stroke-linejoin:round; stroke-width:2; stroke-opacity:0.1; fill:none" points="1387.92,1396.46 1387.92,47.2441 "/>
<polyline clip-path="url(#clip321)" style="stroke:#000000; stroke-linecap:round; stroke-linejoin:round; stroke-width:2; stroke-opacity:0.1; fill:none" points="1976.2,1396.46 1976.2,47.2441 "/>
<polyline clip-path="url(#clip321)" style="stroke:#000000; stroke-linecap:round; stroke-linejoin:round; stroke-width:2; stroke-opacity:0.1; fill:none" points="2564.48,1396.46 2564.48,47.2441 "/>
<polyline clip-path="url(#clip321)" style="stroke:#000000; stroke-linecap:round; stroke-linejoin:round; stroke-width:2; stroke-opacity:0.1; fill:none" points="3152.76,1396.46 3152.76,47.2441 "/>
<polyline clip-path="url(#clip321)" style="stroke:#000000; stroke-linecap:round; stroke-linejoin:round; stroke-width:2; stroke-opacity:0.1; fill:none" points="211.356,1358.27 3152.76,1358.27 "/>
<polyline clip-path="url(#clip321)" style="stroke:#000000; stroke-linecap:round; stroke-linejoin:round; stroke-width:2; stroke-opacity:0.1; fill:none" points="211.356,1040.06 3152.76,1040.06 "/>
<polyline clip-path="url(#clip321)" style="stroke:#000000; stroke-linecap:round; stroke-linejoin:round; stroke-width:2; stroke-opacity:0.1; fill:none" points="211.356,721.85 3152.76,721.85 "/>
<polyline clip-path="url(#clip321)" style="stroke:#000000; stroke-linecap:round; stroke-linejoin:round; stroke-width:2; stroke-opacity:0.1; fill:none" points="211.356,403.64 3152.76,403.64 "/>
<polyline clip-path="url(#clip321)" style="stroke:#000000; stroke-linecap:round; stroke-linejoin:round; stroke-width:2; stroke-opacity:0.1; fill:none" points="211.356,85.4293 3152.76,85.4293 "/>
<polyline clip-path="url(#clip321)" style="stroke:#000000; stroke-linecap:round; stroke-linejoin:round; stroke-width:2; stroke-opacity:0.1; fill:none" points="211.356,1358.27 3152.76,1358.27 "/>
<polyline clip-path="url(#clip321)" style="stroke:#000000; stroke-linecap:round; stroke-linejoin:round; stroke-width:2; stroke-opacity:0.1; fill:none" points="211.356,1040.06 3152.76,1040.06 "/>
<polyline clip-path="url(#clip321)" style="stroke:#000000; stroke-linecap:round; stroke-linejoin:round; stroke-width:2; stroke-opacity:0.1; fill:none" points="211.356,721.85 3152.76,721.85 "/>
<polyline clip-path="url(#clip321)" style="stroke:#000000; stroke-linecap:round; stroke-linejoin:round; stroke-width:2; stroke-opacity:0.1; fill:none" points="211.356,403.64 3152.76,403.64 "/>
<polyline clip-path="url(#clip321)" style="stroke:#000000; stroke-linecap:round; stroke-linejoin:round; stroke-width:2; stroke-opacity:0.1; fill:none" points="211.356,85.4293 3152.76,85.4293 "/>
<polyline clip-path="url(#clip320)" style="stroke:#000000; stroke-linecap:round; stroke-linejoin:round; stroke-width:4; stroke-opacity:1; fill:none" points="211.356,1396.46 3152.76,1396.46 "/>
<polyline clip-path="url(#clip320)" style="stroke:#000000; stroke-linecap:round; stroke-linejoin:round; stroke-width:4; stroke-opacity:1; fill:none" points="211.356,47.2441 3152.76,47.2441 "/>
<polyline clip-path="url(#clip320)" style="stroke:#000000; stroke-linecap:round; stroke-linejoin:round; stroke-width:4; stroke-opacity:1; fill:none" points="211.356,1396.46 211.356,1377.56 "/>
<polyline clip-path="url(#clip320)" style="stroke:#000000; stroke-linecap:round; stroke-linejoin:round; stroke-width:4; stroke-opacity:1; fill:none" points="799.636,1396.46 799.636,1377.56 "/>
<polyline clip-path="url(#clip320)" style="stroke:#000000; stroke-linecap:round; stroke-linejoin:round; stroke-width:4; stroke-opacity:1; fill:none" points="1387.92,1396.46 1387.92,1377.56 "/>
<polyline clip-path="url(#clip320)" style="stroke:#000000; stroke-linecap:round; stroke-linejoin:round; stroke-width:4; stroke-opacity:1; fill:none" points="1976.2,1396.46 1976.2,1377.56 "/>
<polyline clip-path="url(#clip320)" style="stroke:#000000; stroke-linecap:round; stroke-linejoin:round; stroke-width:4; stroke-opacity:1; fill:none" points="2564.48,1396.46 2564.48,1377.56 "/>
<polyline clip-path="url(#clip320)" style="stroke:#000000; stroke-linecap:round; stroke-linejoin:round; stroke-width:4; stroke-opacity:1; fill:none" points="3152.76,1396.46 3152.76,1377.56 "/>
<polyline clip-path="url(#clip320)" style="stroke:#000000; stroke-linecap:round; stroke-linejoin:round; stroke-width:4; stroke-opacity:1; fill:none" points="211.356,47.2441 211.356,66.1417 "/>
<polyline clip-path="url(#clip320)" style="stroke:#000000; stroke-linecap:round; stroke-linejoin:round; stroke-width:4; stroke-opacity:1; fill:none" points="799.636,47.2441 799.636,66.1417 "/>
<polyline clip-path="url(#clip320)" style="stroke:#000000; stroke-linecap:round; stroke-linejoin:round; stroke-width:4; stroke-opacity:1; fill:none" points="1387.92,47.2441 1387.92,66.1417 "/>
<polyline clip-path="url(#clip320)" style="stroke:#000000; stroke-linecap:round; stroke-linejoin:round; stroke-width:4; stroke-opacity:1; fill:none" points="1976.2,47.2441 1976.2,66.1417 "/>
<polyline clip-path="url(#clip320)" style="stroke:#000000; stroke-linecap:round; stroke-linejoin:round; stroke-width:4; stroke-opacity:1; fill:none" points="2564.48,47.2441 2564.48,66.1417 "/>
<polyline clip-path="url(#clip320)" style="stroke:#000000; stroke-linecap:round; stroke-linejoin:round; stroke-width:4; stroke-opacity:1; fill:none" points="3152.76,47.2441 3152.76,66.1417 "/>
<path clip-path="url(#clip320)" d="M188.741 1433.77 Q185.13 1433.77 183.301 1437.34 Q181.495 1440.88 181.495 1448.01 Q181.495 1455.12 183.301 1458.68 Q185.13 1462.22 188.741 1462.22 Q192.375 1462.22 194.18 1458.68 Q196.009 1455.12 196.009 1448.01 Q196.009 1440.88 194.18 1437.34 Q192.375 1433.77 188.741 1433.77 M188.741 1430.07 Q194.551 1430.07 197.606 1434.68 Q200.685 1439.26 200.685 1448.01 Q200.685 1456.74 197.606 1461.34 Q194.551 1465.93 188.741 1465.93 Q182.93 1465.93 179.852 1461.34 Q176.796 1456.74 176.796 1448.01 Q176.796 1439.26 179.852 1434.68 Q182.93 1430.07 188.741 1430.07 Z" fill="#000000" fill-rule="nonzero" fill-opacity="1" /><path clip-path="url(#clip320)" d="M208.903 1459.38 L213.787 1459.38 L213.787 1465.26 L208.903 1465.26 L208.903 1459.38 Z" fill="#000000" fill-rule="nonzero" fill-opacity="1" /><path clip-path="url(#clip320)" d="M233.972 1433.77 Q230.361 1433.77 228.532 1437.34 Q226.727 1440.88 226.727 1448.01 Q226.727 1455.12 228.532 1458.68 Q230.361 1462.22 233.972 1462.22 Q237.606 1462.22 239.412 1458.68 Q241.24 1455.12 241.24 1448.01 Q241.24 1440.88 239.412 1437.34 Q237.606 1433.77 233.972 1433.77 M233.972 1430.07 Q239.782 1430.07 242.838 1434.68 Q245.916 1439.26 245.916 1448.01 Q245.916 1456.74 242.838 1461.34 Q239.782 1465.93 233.972 1465.93 Q228.162 1465.93 225.083 1461.34 Q222.027 1456.74 222.027 1448.01 Q222.027 1439.26 225.083 1434.68 Q228.162 1430.07 233.972 1430.07 Z" fill="#000000" fill-rule="nonzero" fill-opacity="1" /><path clip-path="url(#clip320)" d="M777.819 1433.77 Q774.208 1433.77 772.379 1437.34 Q770.574 1440.88 770.574 1448.01 Q770.574 1455.12 772.379 1458.68 Q774.208 1462.22 777.819 1462.22 Q781.453 1462.22 783.259 1458.68 Q785.088 1455.12 785.088 1448.01 Q785.088 1440.88 783.259 1437.34 Q781.453 1433.77 777.819 1433.77 M777.819 1430.07 Q783.629 1430.07 786.685 1434.68 Q789.764 1439.26 789.764 1448.01 Q789.764 1456.74 786.685 1461.34 Q783.629 1465.93 777.819 1465.93 Q772.009 1465.93 768.93 1461.34 Q765.875 1456.74 765.875 1448.01 Q765.875 1439.26 768.93 1434.68 Q772.009 1430.07 777.819 1430.07 Z" fill="#000000" fill-rule="nonzero" fill-opacity="1" /><path clip-path="url(#clip320)" d="M797.981 1459.38 L802.865 1459.38 L802.865 1465.26 L797.981 1465.26 L797.981 1459.38 Z" fill="#000000" fill-rule="nonzero" fill-opacity="1" /><path clip-path="url(#clip320)" d="M817.078 1461.32 L833.398 1461.32 L833.398 1465.26 L811.453 1465.26 L811.453 1461.32 Q814.115 1458.57 818.699 1453.94 Q823.305 1449.28 824.486 1447.94 Q826.731 1445.42 827.611 1443.68 Q828.513 1441.92 828.513 1440.23 Q828.513 1437.48 826.569 1435.74 Q824.648 1434.01 821.546 1434.01 Q819.347 1434.01 816.893 1434.77 Q814.462 1435.53 811.685 1437.08 L811.685 1432.36 Q814.509 1431.23 816.962 1430.65 Q819.416 1430.07 821.453 1430.07 Q826.824 1430.07 830.018 1432.76 Q833.212 1435.44 833.212 1439.93 Q833.212 1442.06 832.402 1443.98 Q831.615 1445.88 829.509 1448.47 Q828.93 1449.14 825.828 1452.36 Q822.726 1455.56 817.078 1461.32 Z" fill="#000000" fill-rule="nonzero" fill-opacity="1" /><path clip-path="url(#clip320)" d="M1365.06 1433.77 Q1361.45 1433.77 1359.62 1437.34 Q1357.81 1440.88 1357.81 1448.01 Q1357.81 1455.12 1359.62 1458.68 Q1361.45 1462.22 1365.06 1462.22 Q1368.69 1462.22 1370.5 1458.68 Q1372.33 1455.12 1372.33 1448.01 Q1372.33 1440.88 1370.5 1437.34 Q1368.69 1433.77 1365.06 1433.77 M1365.06 1430.07 Q1370.87 1430.07 1373.92 1434.68 Q1377 1439.26 1377 1448.01 Q1377 1456.74 1373.92 1461.34 Q1370.87 1465.93 1365.06 1465.93 Q1359.25 1465.93 1356.17 1461.34 Q1353.11 1456.74 1353.11 1448.01 Q1353.11 1439.26 1356.17 1434.68 Q1359.25 1430.07 1365.06 1430.07 Z" fill="#000000" fill-rule="nonzero" fill-opacity="1" /><path clip-path="url(#clip320)" d="M1385.22 1459.38 L1390.1 1459.38 L1390.1 1465.26 L1385.22 1465.26 L1385.22 1459.38 Z" fill="#000000" fill-rule="nonzero" fill-opacity="1" /><path clip-path="url(#clip320)" d="M1413.14 1434.77 L1401.33 1453.22 L1413.14 1453.22 L1413.14 1434.77 M1411.91 1430.7 L1417.79 1430.7 L1417.79 1453.22 L1422.72 1453.22 L1422.72 1457.11 L1417.79 1457.11 L1417.79 1465.26 L1413.14 1465.26 L1413.14 1457.11 L1397.53 1457.11 L1397.53 1452.59 L1411.91 1430.7 Z" fill="#000000" fill-rule="nonzero" fill-opacity="1" /><path clip-path="url(#clip320)" d="M1953.5 1433.77 Q1949.89 1433.77 1948.06 1437.34 Q1946.25 1440.88 1946.25 1448.01 Q1946.25 1455.12 1948.06 1458.68 Q1949.89 1462.22 1953.5 1462.22 Q1957.13 1462.22 1958.94 1458.68 Q1960.77 1455.12 1960.77 1448.01 Q1960.77 1440.88 1958.94 1437.34 Q1957.13 1433.77 1953.5 1433.77 M1953.5 1430.07 Q1959.31 1430.07 1962.37 1434.68 Q1965.44 1439.26 1965.44 1448.01 Q1965.44 1456.74 1962.37 1461.34 Q1959.31 1465.93 1953.5 1465.93 Q1947.69 1465.93 1944.61 1461.34 Q1941.56 1456.74 1941.56 1448.01 Q1941.56 1439.26 1944.61 1434.68 Q1947.69 1430.07 1953.5 1430.07 Z" fill="#000000" fill-rule="nonzero" fill-opacity="1" /><path clip-path="url(#clip320)" d="M1973.66 1459.38 L1978.55 1459.38 L1978.55 1465.26 L1973.66 1465.26 L1973.66 1459.38 Z" fill="#000000" fill-rule="nonzero" fill-opacity="1" /><path clip-path="url(#clip320)" d="M1999.31 1446.11 Q1996.16 1446.11 1994.31 1448.27 Q1992.48 1450.42 1992.48 1454.17 Q1992.48 1457.89 1994.31 1460.07 Q1996.16 1462.22 1999.31 1462.22 Q2002.46 1462.22 2004.29 1460.07 Q2006.14 1457.89 2006.14 1454.17 Q2006.14 1450.42 2004.29 1448.27 Q2002.46 1446.11 1999.31 1446.11 M2008.59 1431.46 L2008.59 1435.72 Q2006.83 1434.89 2005.03 1434.45 Q2003.24 1434.01 2001.49 1434.01 Q1996.86 1434.01 1994.4 1437.13 Q1991.97 1440.26 1991.62 1446.58 Q1992.99 1444.56 1995.05 1443.5 Q1997.11 1442.41 1999.59 1442.41 Q2004.8 1442.41 2007.8 1445.58 Q2010.84 1448.73 2010.84 1454.17 Q2010.84 1459.49 2007.69 1462.71 Q2004.54 1465.93 1999.31 1465.93 Q1993.31 1465.93 1990.14 1461.34 Q1986.97 1456.74 1986.97 1448.01 Q1986.97 1439.82 1990.86 1434.95 Q1994.75 1430.07 2001.3 1430.07 Q2003.06 1430.07 2004.84 1430.42 Q2006.65 1430.77 2008.59 1431.46 Z" fill="#000000" fill-rule="nonzero" fill-opacity="1" /><path clip-path="url(#clip320)" d="M2541.91 1433.77 Q2538.3 1433.77 2536.47 1437.34 Q2534.66 1440.88 2534.66 1448.01 Q2534.66 1455.12 2536.47 1458.68 Q2538.3 1462.22 2541.91 1462.22 Q2545.54 1462.22 2547.35 1458.68 Q2549.18 1455.12 2549.18 1448.01 Q2549.18 1440.88 2547.35 1437.34 Q2545.54 1433.77 2541.91 1433.77 M2541.91 1430.07 Q2547.72 1430.07 2550.77 1434.68 Q2553.85 1439.26 2553.85 1448.01 Q2553.85 1456.74 2550.77 1461.34 Q2547.72 1465.93 2541.91 1465.93 Q2536.1 1465.93 2533.02 1461.34 Q2529.96 1456.74 2529.96 1448.01 Q2529.96 1439.26 2533.02 1434.68 Q2536.1 1430.07 2541.91 1430.07 Z" fill="#000000" fill-rule="nonzero" fill-opacity="1" /><path clip-path="url(#clip320)" d="M2562.07 1459.38 L2566.95 1459.38 L2566.95 1465.26 L2562.07 1465.26 L2562.07 1459.38 Z" fill="#000000" fill-rule="nonzero" fill-opacity="1" /><path clip-path="url(#clip320)" d="M2587.14 1448.84 Q2583.8 1448.84 2581.88 1450.63 Q2579.99 1452.41 2579.99 1455.53 Q2579.99 1458.66 2581.88 1460.44 Q2583.8 1462.22 2587.14 1462.22 Q2590.47 1462.22 2592.39 1460.44 Q2594.31 1458.64 2594.31 1455.53 Q2594.31 1452.41 2592.39 1450.63 Q2590.49 1448.84 2587.14 1448.84 M2582.46 1446.85 Q2579.45 1446.11 2577.76 1444.05 Q2576.1 1441.99 2576.1 1439.03 Q2576.1 1434.89 2579.04 1432.48 Q2582 1430.07 2587.14 1430.07 Q2592.3 1430.07 2595.24 1432.48 Q2598.18 1434.89 2598.18 1439.03 Q2598.18 1441.99 2596.49 1444.05 Q2594.82 1446.11 2591.84 1446.85 Q2595.22 1447.64 2597.09 1449.93 Q2598.99 1452.22 2598.99 1455.53 Q2598.99 1460.56 2595.91 1463.24 Q2592.86 1465.93 2587.14 1465.93 Q2581.42 1465.93 2578.34 1463.24 Q2575.29 1460.56 2575.29 1455.53 Q2575.29 1452.22 2577.18 1449.93 Q2579.08 1447.64 2582.46 1446.85 M2580.75 1439.47 Q2580.75 1442.15 2582.42 1443.66 Q2584.11 1445.16 2587.14 1445.16 Q2590.15 1445.16 2591.84 1443.66 Q2593.55 1442.15 2593.55 1439.47 Q2593.55 1436.78 2591.84 1435.28 Q2590.15 1433.77 2587.14 1433.77 Q2584.11 1433.77 2582.42 1435.28 Q2580.75 1436.78 2580.75 1439.47 Z" fill="#000000" fill-rule="nonzero" fill-opacity="1" /><path clip-path="url(#clip320)" d="M3119.91 1461.32 L3127.55 1461.32 L3127.55 1434.95 L3119.24 1436.62 L3119.24 1432.36 L3127.5 1430.7 L3132.18 1430.7 L3132.18 1461.32 L3139.82 1461.32 L3139.82 1465.26 L3119.91 1465.26 L3119.91 1461.32 Z" fill="#000000" fill-rule="nonzero" fill-opacity="1" /><path clip-path="url(#clip320)" d="M3149.26 1459.38 L3154.14 1459.38 L3154.14 1465.26 L3149.26 1465.26 L3149.26 1459.38 Z" fill="#000000" fill-rule="nonzero" fill-opacity="1" /><path clip-path="url(#clip320)" d="M3174.33 1433.77 Q3170.72 1433.77 3168.89 1437.34 Q3167.08 1440.88 3167.08 1448.01 Q3167.08 1455.12 3168.89 1458.68 Q3170.72 1462.22 3174.33 1462.22 Q3177.96 1462.22 3179.77 1458.68 Q3181.6 1455.12 3181.6 1448.01 Q3181.6 1440.88 3179.77 1437.34 Q3177.96 1433.77 3174.33 1433.77 M3174.33 1430.07 Q3180.14 1430.07 3183.2 1434.68 Q3186.27 1439.26 3186.27 1448.01 Q3186.27 1456.74 3183.2 1461.34 Q3180.14 1465.93 3174.33 1465.93 Q3168.52 1465.93 3165.44 1461.34 Q3162.39 1456.74 3162.39 1448.01 Q3162.39 1439.26 3165.44 1434.68 Q3168.52 1430.07 3174.33 1430.07 Z" fill="#000000" fill-rule="nonzero" fill-opacity="1" /><path clip-path="url(#clip320)" d="M1681.12 1507.55 L1681.12 1517.67 L1693.18 1517.67 L1693.18 1522.22 L1681.12 1522.22 L1681.12 1541.58 Q1681.12 1545.94 1682.29 1547.18 Q1683.5 1548.42 1687.16 1548.42 L1693.18 1548.42 L1693.18 1553.32 L1687.16 1553.32 Q1680.39 1553.32 1677.81 1550.81 Q1675.23 1548.26 1675.23 1541.58 L1675.23 1522.22 L1670.93 1522.22 L1670.93 1517.67 L1675.23 1517.67 L1675.23 1507.55 L1681.12 1507.55 Z" fill="#000000" fill-rule="nonzero" fill-opacity="1" /><polyline clip-path="url(#clip320)" style="stroke:#000000; stroke-linecap:round; stroke-linejoin:round; stroke-width:4; stroke-opacity:1; fill:none" points="211.356,1396.46 211.356,47.2441 "/>
<polyline clip-path="url(#clip320)" style="stroke:#000000; stroke-linecap:round; stroke-linejoin:round; stroke-width:4; stroke-opacity:1; fill:none" points="3152.76,1396.46 3152.76,47.2441 "/>
<polyline clip-path="url(#clip320)" style="stroke:#000000; stroke-linecap:round; stroke-linejoin:round; stroke-width:4; stroke-opacity:1; fill:none" points="211.356,1358.27 230.254,1358.27 "/>
<polyline clip-path="url(#clip320)" style="stroke:#000000; stroke-linecap:round; stroke-linejoin:round; stroke-width:4; stroke-opacity:1; fill:none" points="211.356,1040.06 230.254,1040.06 "/>
<polyline clip-path="url(#clip320)" style="stroke:#000000; stroke-linecap:round; stroke-linejoin:round; stroke-width:4; stroke-opacity:1; fill:none" points="211.356,721.85 230.254,721.85 "/>
<polyline clip-path="url(#clip320)" style="stroke:#000000; stroke-linecap:round; stroke-linejoin:round; stroke-width:4; stroke-opacity:1; fill:none" points="211.356,403.64 230.254,403.64 "/>
<polyline clip-path="url(#clip320)" style="stroke:#000000; stroke-linecap:round; stroke-linejoin:round; stroke-width:4; stroke-opacity:1; fill:none" points="211.356,85.4293 230.254,85.4293 "/>
<polyline clip-path="url(#clip320)" style="stroke:#000000; stroke-linecap:round; stroke-linejoin:round; stroke-width:4; stroke-opacity:1; fill:none" points="3152.76,1358.27 3133.86,1358.27 "/>
<polyline clip-path="url(#clip320)" style="stroke:#000000; stroke-linecap:round; stroke-linejoin:round; stroke-width:4; stroke-opacity:1; fill:none" points="3152.76,1040.06 3133.86,1040.06 "/>
<polyline clip-path="url(#clip320)" style="stroke:#000000; stroke-linecap:round; stroke-linejoin:round; stroke-width:4; stroke-opacity:1; fill:none" points="3152.76,721.85 3133.86,721.85 "/>
<polyline clip-path="url(#clip320)" style="stroke:#000000; stroke-linecap:round; stroke-linejoin:round; stroke-width:4; stroke-opacity:1; fill:none" points="3152.76,403.64 3133.86,403.64 "/>
<polyline clip-path="url(#clip320)" style="stroke:#000000; stroke-linecap:round; stroke-linejoin:round; stroke-width:4; stroke-opacity:1; fill:none" points="3152.76,85.4293 3133.86,85.4293 "/>
<path clip-path="url(#clip320)" d="M106.181 1344.07 Q102.57 1344.07 100.741 1347.63 Q98.9353 1351.18 98.9353 1358.31 Q98.9353 1365.41 100.741 1368.98 Q102.57 1372.52 106.181 1372.52 Q109.815 1372.52 111.62 1368.98 Q113.449 1365.41 113.449 1358.31 Q113.449 1351.18 111.62 1347.63 Q109.815 1344.07 106.181 1344.07 M106.181 1340.37 Q111.991 1340.37 115.046 1344.97 Q118.125 1349.56 118.125 1358.31 Q118.125 1367.03 115.046 1371.64 Q111.991 1376.22 106.181 1376.22 Q100.37 1376.22 97.2918 1371.64 Q94.2362 1367.03 94.2362 1358.31 Q94.2362 1349.56 97.2918 1344.97 Q100.37 1340.37 106.181 1340.37 Z" fill="#000000" fill-rule="nonzero" fill-opacity="1" /><path clip-path="url(#clip320)" d="M126.343 1369.67 L131.227 1369.67 L131.227 1375.55 L126.343 1375.55 L126.343 1369.67 Z" fill="#000000" fill-rule="nonzero" fill-opacity="1" /><path clip-path="url(#clip320)" d="M151.412 1344.07 Q147.801 1344.07 145.972 1347.63 Q144.167 1351.18 144.167 1358.31 Q144.167 1365.41 145.972 1368.98 Q147.801 1372.52 151.412 1372.52 Q155.046 1372.52 156.852 1368.98 Q158.68 1365.41 158.68 1358.31 Q158.68 1351.18 156.852 1347.63 Q155.046 1344.07 151.412 1344.07 M151.412 1340.37 Q157.222 1340.37 160.278 1344.97 Q163.356 1349.56 163.356 1358.31 Q163.356 1367.03 160.278 1371.64 Q157.222 1376.22 151.412 1376.22 Q145.602 1376.22 142.523 1371.64 Q139.467 1367.03 139.467 1358.31 Q139.467 1349.56 142.523 1344.97 Q145.602 1340.37 151.412 1340.37 Z" fill="#000000" fill-rule="nonzero" fill-opacity="1" /><path clip-path="url(#clip320)" d="M107.176 1025.86 Q103.565 1025.86 101.736 1029.42 Q99.9306 1032.97 99.9306 1040.09 Q99.9306 1047.2 101.736 1050.77 Q103.565 1054.31 107.176 1054.31 Q110.81 1054.31 112.616 1050.77 Q114.444 1047.2 114.444 1040.09 Q114.444 1032.97 112.616 1029.42 Q110.81 1025.86 107.176 1025.86 M107.176 1022.16 Q112.986 1022.16 116.042 1026.76 Q119.12 1031.34 119.12 1040.09 Q119.12 1048.82 116.042 1053.43 Q112.986 1058.01 107.176 1058.01 Q101.366 1058.01 98.2871 1053.43 Q95.2316 1048.82 95.2316 1040.09 Q95.2316 1031.34 98.2871 1026.76 Q101.366 1022.16 107.176 1022.16 Z" fill="#000000" fill-rule="nonzero" fill-opacity="1" /><path clip-path="url(#clip320)" d="M127.338 1051.46 L132.222 1051.46 L132.222 1057.34 L127.338 1057.34 L127.338 1051.46 Z" fill="#000000" fill-rule="nonzero" fill-opacity="1" /><path clip-path="url(#clip320)" d="M142.454 1022.78 L160.81 1022.78 L160.81 1026.72 L146.736 1026.72 L146.736 1035.19 Q147.754 1034.84 148.773 1034.68 Q149.791 1034.49 150.81 1034.49 Q156.597 1034.49 159.977 1037.66 Q163.356 1040.84 163.356 1046.25 Q163.356 1051.83 159.884 1054.93 Q156.412 1058.01 150.092 1058.01 Q147.916 1058.01 145.648 1057.64 Q143.403 1057.27 140.995 1056.53 L140.995 1051.83 Q143.079 1052.97 145.301 1053.52 Q147.523 1054.08 150 1054.08 Q154.004 1054.08 156.342 1051.97 Q158.68 1049.86 158.68 1046.25 Q158.68 1042.64 156.342 1040.53 Q154.004 1038.43 150 1038.43 Q148.125 1038.43 146.25 1038.84 Q144.398 1039.26 142.454 1040.14 L142.454 1022.78 Z" fill="#000000" fill-rule="nonzero" fill-opacity="1" /><path clip-path="url(#clip320)" d="M96.9908 735.195 L104.63 735.195 L104.63 708.829 L96.3195 710.496 L96.3195 706.237 L104.583 704.57 L109.259 704.57 L109.259 735.195 L116.898 735.195 L116.898 739.13 L96.9908 739.13 L96.9908 735.195 Z" fill="#000000" fill-rule="nonzero" fill-opacity="1" /><path clip-path="url(#clip320)" d="M126.343 733.25 L131.227 733.25 L131.227 739.13 L126.343 739.13 L126.343 733.25 Z" fill="#000000" fill-rule="nonzero" fill-opacity="1" /><path clip-path="url(#clip320)" d="M151.412 707.649 Q147.801 707.649 145.972 711.213 Q144.167 714.755 144.167 721.885 Q144.167 728.991 145.972 732.556 Q147.801 736.098 151.412 736.098 Q155.046 736.098 156.852 732.556 Q158.68 728.991 158.68 721.885 Q158.68 714.755 156.852 711.213 Q155.046 707.649 151.412 707.649 M151.412 703.945 Q157.222 703.945 160.278 708.551 Q163.356 713.135 163.356 721.885 Q163.356 730.611 160.278 735.218 Q157.222 739.801 151.412 739.801 Q145.602 739.801 142.523 735.218 Q139.467 730.611 139.467 721.885 Q139.467 713.135 142.523 708.551 Q145.602 703.945 151.412 703.945 Z" fill="#000000" fill-rule="nonzero" fill-opacity="1" /><path clip-path="url(#clip320)" d="M97.9862 416.984 L105.625 416.984 L105.625 390.619 L97.3149 392.286 L97.3149 388.026 L105.579 386.36 L110.255 386.36 L110.255 416.984 L117.894 416.984 L117.894 420.92 L97.9862 420.92 L97.9862 416.984 Z" fill="#000000" fill-rule="nonzero" fill-opacity="1" /><path clip-path="url(#clip320)" d="M127.338 415.04 L132.222 415.04 L132.222 420.92 L127.338 420.92 L127.338 415.04 Z" fill="#000000" fill-rule="nonzero" fill-opacity="1" /><path clip-path="url(#clip320)" d="M142.454 386.36 L160.81 386.36 L160.81 390.295 L146.736 390.295 L146.736 398.767 Q147.754 398.42 148.773 398.258 Q149.791 398.073 150.81 398.073 Q156.597 398.073 159.977 401.244 Q163.356 404.415 163.356 409.832 Q163.356 415.41 159.884 418.512 Q156.412 421.591 150.092 421.591 Q147.916 421.591 145.648 421.221 Q143.403 420.85 140.995 420.109 L140.995 415.41 Q143.079 416.545 145.301 417.1 Q147.523 417.656 150 417.656 Q154.004 417.656 156.342 415.549 Q158.68 413.443 158.68 409.832 Q158.68 406.221 156.342 404.114 Q154.004 402.008 150 402.008 Q148.125 402.008 146.25 402.424 Q144.398 402.841 142.454 403.721 L142.454 386.36 Z" fill="#000000" fill-rule="nonzero" fill-opacity="1" /><path clip-path="url(#clip320)" d="M100.208 98.7742 L116.528 98.7742 L116.528 102.709 L94.5834 102.709 L94.5834 98.7742 Q97.2455 96.0196 101.829 91.3899 Q106.435 86.7372 107.616 85.3946 Q109.861 82.8715 110.741 81.1354 Q111.644 79.3761 111.644 77.6863 Q111.644 74.9317 109.699 73.1956 Q107.778 71.4595 104.676 71.4595 Q102.477 71.4595 100.023 72.2234 Q97.5927 72.9873 94.8149 74.5382 L94.8149 69.816 Q97.639 68.6817 100.093 68.103 Q102.546 67.5243 104.583 67.5243 Q109.954 67.5243 113.148 70.2095 Q116.343 72.8947 116.343 77.3854 Q116.343 79.515 115.532 81.4363 Q114.745 83.3344 112.639 85.927 Q112.06 86.5983 108.958 89.8159 Q105.857 93.0103 100.208 98.7742 Z" fill="#000000" fill-rule="nonzero" fill-opacity="1" /><path clip-path="url(#clip320)" d="M126.343 96.8297 L131.227 96.8297 L131.227 102.709 L126.343 102.709 L126.343 96.8297 Z" fill="#000000" fill-rule="nonzero" fill-opacity="1" /><path clip-path="url(#clip320)" d="M151.412 71.228 Q147.801 71.228 145.972 74.7928 Q144.167 78.3345 144.167 85.4641 Q144.167 92.5705 145.972 96.1353 Q147.801 99.6769 151.412 99.6769 Q155.046 99.6769 156.852 96.1353 Q158.68 92.5705 158.68 85.4641 Q158.68 78.3345 156.852 74.7928 Q155.046 71.228 151.412 71.228 M151.412 67.5243 Q157.222 67.5243 160.278 72.1308 Q163.356 76.7141 163.356 85.4641 Q163.356 94.1909 160.278 98.7973 Q157.222 103.381 151.412 103.381 Q145.602 103.381 142.523 98.7973 Q139.467 94.1909 139.467 85.4641 Q139.467 76.7141 142.523 72.1308 Q145.602 67.5243 151.412 67.5243 Z" fill="#000000" fill-rule="nonzero" fill-opacity="1" /><polyline clip-path="url(#clip321)" style="stroke:#009af9; stroke-linecap:round; stroke-linejoin:round; stroke-width:12; stroke-opacity:1; fill:none" points="211.356,1358.27 214.301,1355.73 217.245,1353.19 220.189,1350.66 223.134,1348.14 226.078,1345.62 229.022,1343.12 231.967,1340.62 234.911,1338.13 237.855,1335.64 240.8,1333.17 243.744,1330.7 246.688,1328.24 249.633,1325.78 252.577,1323.33 255.521,1320.9 258.466,1318.46 261.41,1316.04 264.354,1313.62 267.299,1311.21 270.243,1308.81 273.187,1306.41 276.132,1304.02 279.076,1301.64 282.02,1299.26 284.965,1296.9 287.909,1294.54 290.854,1292.18 293.798,1289.84 296.742,1287.5 299.687,1285.17 302.631,1282.84 305.575,1280.52 308.52,1278.21 311.464,1275.91 314.408,1273.61 317.353,1271.32 320.297,1269.04 323.241,1266.76 326.186,1264.49 329.13,1262.23 332.074,1259.97 335.019,1257.72 337.963,1255.48 340.907,1253.24 343.852,1251.01 346.796,1248.79 349.74,1246.57 352.685,1244.36 355.629,1242.16 358.573,1239.96 361.518,1237.77 364.462,1235.59 367.406,1233.41 370.351,1231.24 373.295,1229.08 376.239,1226.92 379.184,1224.77 382.128,1222.63 385.073,1220.49 388.017,1218.36 390.961,1216.23 393.906,1214.12 396.85,1212 399.794,1209.9 402.739,1207.8 405.683,1205.71 408.627,1203.62 411.572,1201.54 414.516,1199.46 417.46,1197.4 420.405,1195.33 423.349,1193.28 426.293,1191.23 429.238,1189.18 432.182,1187.15 435.126,1185.12 438.071,1183.09 441.015,1181.07 443.959,1179.06 446.904,1177.05 449.848,1175.05 452.792,1173.05 455.737,1171.07 458.681,1169.08 461.625,1167.11 464.57,1165.13 467.514,1163.17 470.458,1161.21 473.403,1159.26 476.347,1157.31 479.292,1155.37 482.236,1153.43 485.18,1151.5 488.125,1149.58 491.069,1147.66 494.013,1145.74 496.958,1143.84 499.902,1141.94 502.846,1140.04 505.791,1138.15 508.735,1136.27 511.679,1134.39 514.624,1132.51 517.568,1130.65 520.512,1128.78 523.457,1126.93 526.401,1125.08 529.345,1123.23 532.29,1121.39 535.234,1119.56 538.178,1117.73 541.123,1115.91 544.067,1114.09 547.011,1112.28 549.956,1110.47 552.9,1108.67 555.844,1106.87 558.789,1105.08 561.733,1103.3 564.678,1101.52 567.622,1099.74 570.566,1097.97 573.511,1096.21 576.455,1094.45 579.399,1092.7 582.344,1090.95 585.288,1089.21 588.232,1087.47 591.177,1085.74 594.121,1084.01 597.065,1082.29 600.01,1080.57 602.954,1078.86 605.898,1077.15 608.843,1075.45 611.787,1073.75 614.731,1072.06 617.676,1070.38 620.62,1068.7 623.564,1067.02 626.509,1065.35 629.453,1063.68 632.397,1062.02 635.342,1060.37 638.286,1058.71 641.23,1057.07 644.175,1055.43 647.119,1053.79 650.063,1052.16 653.008,1050.53 655.952,1048.91 658.897,1047.29 661.841,1045.68 664.785,1044.07 667.73,1042.47 670.674,1040.87 673.618,1039.28 676.563,1037.69 679.507,1036.11 682.451,1034.53 685.396,1032.96 688.34,1031.39 691.284,1029.83 694.229,1028.27 697.173,1026.71 700.117,1025.16 703.062,1023.62 706.006,1022.07 708.95,1020.54 711.895,1019.01 714.839,1017.48 717.783,1015.96 720.728,1014.44 723.672,1012.93 726.616,1011.42 729.561,1009.91 732.505,1008.41 735.449,1006.92 738.394,1005.43 741.338,1003.94 744.282,1002.46 747.227,1000.98 750.171,999.507 753.116,998.039 756.06,996.574 759.004,995.115 761.949,993.659 764.893,992.208 767.837,990.761 770.782,989.319 773.726,987.881 776.67,986.447 779.615,985.017 782.559,983.592 785.503,982.171 788.448,980.754 791.392,979.342 794.336,977.934 797.281,976.53 800.225,975.13 803.169,973.735 806.114,972.343 809.058,970.956 812.002,969.573 814.947,968.194 817.891,966.819 820.835,965.448 823.78,964.082 826.724,962.719 829.668,961.361 832.613,960.007 835.557,958.657 838.501,957.31 841.446,955.968 844.39,954.63 847.335,953.296 850.279,951.966 853.223,950.64 856.168,949.318 859.112,947.999 862.056,946.685 865.001,945.375 867.945,944.069 870.889,942.766 873.834,941.468 876.778,940.173 879.722,938.882 882.667,937.595 885.611,936.312 888.555,935.033 891.5,933.758 894.444,932.486 897.388,931.219 900.333,929.955 903.277,928.695 906.221,927.438 909.166,926.186 912.11,924.937 915.054,923.692 917.999,922.451 920.943,921.213 923.887,919.979 926.832,918.749 929.776,917.522 932.721,916.3 935.665,915.08 938.609,913.865 941.554,912.653 944.498,911.445 947.442,910.24 950.387,909.039 953.331,907.842 956.275,906.648 959.22,905.458 962.164,904.271 965.108,903.088 968.053,901.909 970.997,900.733 973.941,899.56 976.886,898.391 979.83,897.226 982.774,896.064 985.719,894.905 988.663,893.75 991.607,892.599 994.552,891.451 997.496,890.306 1000.44,889.165 1003.38,888.027 1006.33,886.893 1009.27,885.762 1012.22,884.634 1015.16,883.51 1018.11,882.389 1021.05,881.272 1024,880.158 1026.94,879.047 1029.88,877.939 1032.83,876.835 1035.77,875.734 1038.72,874.637 1041.66,873.543 1044.61,872.452 1047.55,871.364 1050.49,870.28 1053.44,869.199 1056.38,868.121 1059.33,867.046 1062.27,865.974 1065.22,864.906 1068.16,863.841 1071.1,862.779 1074.05,861.721 1076.99,860.665 1079.94,859.613 1082.88,858.564 1085.83,857.518 1088.77,856.475 1091.72,855.435 1094.66,854.398 1097.6,853.365 1100.55,852.334 1103.49,851.307 1106.44,850.283 1109.38,849.261 1112.33,848.243 1115.27,847.228 1118.21,846.216 1121.16,845.207 1124.1,844.201 1127.05,843.198 1129.99,842.198 1132.94,841.201 1135.88,840.207 1138.82,839.216 1141.77,838.228 1144.71,837.243 1147.66,836.261 1150.6,835.282 1153.55,834.305 1156.49,833.332 1159.43,832.362 1162.38,831.394 1165.32,830.429 1168.27,829.468 1171.21,828.509 1174.16,827.553 1177.1,826.6 1180.05,825.65 1182.99,824.702 1185.93,823.758 1188.88,822.816 1191.82,821.877 1194.77,820.941 1197.71,820.008 1200.66,819.077 1203.6,818.15 1206.54,817.225 1209.49,816.303 1212.43,815.383 1215.38,814.467 1218.32,813.553 1221.27,812.642 1224.21,811.733 1227.15,810.828 1230.1,809.925 1233.04,809.025 1235.99,808.127 1238.93,807.232 1241.88,806.34 1244.82,805.451 1247.77,804.564 1250.71,803.68 1253.65,802.798 1256.6,801.919 1259.54,801.043 1262.49,800.17 1265.43,799.299 1268.38,798.43 1271.32,797.565 1274.26,796.702 1277.21,795.841 1280.15,794.983 1283.1,794.128 1286.04,793.275 1288.99,792.425 1291.93,791.577 1294.87,790.732 1297.82,789.889 1300.76,789.049 1303.71,788.211 1306.65,787.376 1309.6,786.544 1312.54,785.714 1315.49,784.886 1318.43,784.061 1321.37,783.238 1324.32,782.418 1327.26,781.6 1330.21,780.785 1333.15,779.972 1336.1,779.162 1339.04,778.354 1341.98,777.549 1344.93,776.746 1347.87,775.945 1350.82,775.147 1353.76,774.351 1356.71,773.557 1359.65,772.766 1362.59,771.977 1365.54,771.191 1368.48,770.407 1371.43,769.625 1374.37,768.846 1377.32,768.069 1380.26,767.294 1383.21,766.522 1386.15,765.752 1389.09,764.984 1392.04,764.219 1394.98,763.456 1397.93,762.695 1400.87,761.936 1403.82,761.18 1406.76,760.426 1409.7,759.674 1412.65,758.925 1415.59,758.177 1418.54,757.432 1421.48,756.69 1424.43,755.949 1427.37,755.211 1430.31,754.475 1433.26,753.741 1436.2,753.009 1439.15,752.28 1442.09,751.552 1445.04,750.827 1447.98,750.104 1450.93,749.383 1453.87,748.665 1456.81,747.948 1459.76,747.234 1462.7,746.522 1465.65,745.812 1468.59,745.104 1471.54,744.398 1474.48,743.694 1477.42,742.993 1480.37,742.293 1483.31,741.596 1486.26,740.9 1489.2,740.207 1492.15,739.516 1495.09,738.827 1498.03,738.14 1500.98,737.455 1503.92,736.772 1506.87,736.091 1509.81,735.412 1512.76,734.736 1515.7,734.061 1518.64,733.388 1521.59,732.717 1524.53,732.049 1527.48,731.382 1530.42,730.717 1533.37,730.055 1536.31,729.394 1539.26,728.735 1542.2,728.078 1545.14,727.424 1548.09,726.771 1551.03,726.12 1553.98,725.471 1556.92,724.824 1559.87,724.179 1562.81,723.536 1565.75,722.895 1568.7,722.255 1571.64,721.618 1574.59,720.982 1577.53,720.349 1580.48,719.717 1583.42,719.087 1586.36,718.46 1589.31,717.834 1592.25,717.209 1595.2,716.587 1598.14,715.967 1601.09,715.348 1604.03,714.732 1606.98,714.117 1609.92,713.504 1612.86,712.893 1615.81,712.283 1618.75,711.676 1621.7,711.07 1624.64,710.467 1627.59,709.865 1630.53,709.264 1633.47,708.666 1636.42,708.069 1639.36,707.474 1642.31,706.881 1645.25,706.29 1648.2,705.701 1651.14,705.113 1654.08,704.527 1657.03,703.943 1659.97,703.36 1662.92,702.78 1665.86,702.201 1668.81,701.623 1671.75,701.048 1674.7,700.474 1677.64,699.902 1680.58,699.332 1683.53,698.763 1686.47,698.196 1689.42,697.631 1692.36,697.068 1695.31,696.506 1698.25,695.946 1701.19,695.387 1704.14,694.831 1707.08,694.275 1710.03,693.722 1712.97,693.17 1715.92,692.62 1718.86,692.072 1721.8,691.525 1724.75,690.98 1727.69,690.436 1730.64,689.894 1733.58,689.354 1736.53,688.815 1739.47,688.278 1742.42,687.743 1745.36,687.209 1748.3,686.677 1751.25,686.146 1754.19,685.617 1757.14,685.09 1760.08,684.564 1763.03,684.039 1765.97,683.517 1768.91,682.996 1771.86,682.476 1774.8,681.958 1777.75,681.442 1780.69,680.927 1783.64,680.413 1786.58,679.901 1789.52,679.391 1792.47,678.882 1795.41,678.375 1798.36,677.869 1801.3,677.365 1804.25,676.863 1807.19,676.361 1810.14,675.862 1813.08,675.364 1816.02,674.867 1818.97,674.372 1821.91,673.878 1824.86,673.386 1827.8,672.895 1830.75,672.406 1833.69,671.918 1836.63,671.432 1839.58,670.947 1842.52,670.463 1845.47,669.981 1848.41,669.501 1851.36,669.022 1854.3,668.544 1857.24,668.068 1860.19,667.593 1863.13,667.12 1866.08,666.648 1869.02,666.177 1871.97,665.708 1874.91,665.24 1877.85,664.774 1880.8,664.309 1883.74,663.846 1886.69,663.383 1889.63,662.923 1892.58,662.463 1895.52,662.005 1898.47,661.549 1901.41,661.093 1904.35,660.64 1907.3,660.187 1910.24,659.736 1913.19,659.286 1916.13,658.838 1919.08,658.39 1922.02,657.945 1924.96,657.5 1927.91,657.057 1930.85,656.615 1933.8,656.175 1936.74,655.736 1939.69,655.298 1942.63,654.861 1945.57,654.426 1948.52,653.992 1951.46,653.56 1954.41,653.128 1957.35,652.698 1960.3,652.27 1963.24,651.842 1966.19,651.416 1969.13,650.991 1972.07,650.567 1975.02,650.145 1977.96,649.724 1980.91,649.304 1983.85,648.886 1986.8,648.468 1989.74,648.052 1992.68,647.637 1995.63,647.224 1998.57,646.812 2001.52,646.4 2004.46,645.991 2007.41,645.582 2010.35,645.175 2013.29,644.768 2016.24,644.363 2019.18,643.96 2022.13,643.557 2025.07,643.156 2028.02,642.755 2030.96,642.356 2033.91,641.959 2036.85,641.562 2039.79,641.167 2042.74,640.773 2045.68,640.379 2048.63,639.988 2051.57,639.597 2054.52,639.207 2057.46,638.819 2060.4,638.432 2063.35,638.046 2066.29,637.661 2069.24,637.277 2072.18,636.895 2075.13,636.513 2078.07,636.133 2081.01,635.754 2083.96,635.376 2086.9,634.999 2089.85,634.623 2092.79,634.249 2095.74,633.875 2098.68,633.503 2101.63,633.131 2104.57,632.761 2107.51,632.392 2110.46,632.024 2113.4,631.657 2116.35,631.292 2119.29,630.927 2122.24,630.564 2125.18,630.201 2128.12,629.84 2131.07,629.479 2134.01,629.12 2136.96,628.762 2139.9,628.405 2142.85,628.049 2145.79,627.694 2148.73,627.34 2151.68,626.988 2154.62,626.636 2157.57,626.285 2160.51,625.936 2163.46,625.587 2166.4,625.24 2169.34,624.893 2172.29,624.548 2175.23,624.203 2178.18,623.86 2181.12,623.518 2184.07,623.176 2187.01,622.836 2189.96,622.497 2192.9,622.159 2195.84,621.821 2198.79,621.485 2201.73,621.15 2204.68,620.816 2207.62,620.483 2210.57,620.15 2213.51,619.819 2216.45,619.489 2219.4,619.16 2222.34,618.832 2225.29,618.504 2228.23,618.178 2231.18,617.853 2234.12,617.529 2237.06,617.205 2240.01,616.883 2242.95,616.561 2245.9,616.241 2248.84,615.922 2251.79,615.603 2254.73,615.286 2257.68,614.969 2260.62,614.653 2263.56,614.339 2266.51,614.025 2269.45,613.712 2272.4,613.4 2275.34,613.089 2278.29,612.779 2281.23,612.47 2284.17,612.162 2287.12,611.855 2290.06,611.549 2293.01,611.244 2295.95,610.939 2298.9,610.636 2301.84,610.333 2304.78,610.031 2307.73,609.73 2310.67,609.431 2313.62,609.132 2316.56,608.833 2319.51,608.536 2322.45,608.24 2325.4,607.945 2328.34,607.65 2331.28,607.356 2334.23,607.064 2337.17,606.772 2340.12,606.481 2343.06,606.191 2346.01,605.901 2348.95,605.613 2351.89,605.325 2354.84,605.039 2357.78,604.753 2360.73,604.468 2363.67,604.184 2366.62,603.901 2369.56,603.618 2372.5,603.337 2375.45,603.056 2378.39,602.776 2381.34,602.497 2384.28,602.219 2387.23,601.942 2390.17,601.665 2393.12,601.39 2396.06,601.115 2399,600.841 2401.95,600.567 2404.89,600.295 2407.84,600.024 2410.78,599.753 2413.73,599.483 2416.67,599.214 2419.61,598.945 2422.56,598.678 2425.5,598.411 2428.45,598.145 2431.39,597.88 2434.34,597.616 2437.28,597.352 2440.22,597.09 2443.17,596.828 2446.11,596.566 2449.06,596.306 2452,596.046 2454.95,595.788 2457.89,595.53 2460.84,595.272 2463.78,595.016 2466.72,594.76 2469.67,594.505 2472.61,594.251 2475.56,593.997 2478.5,593.745 2481.45,593.493 2484.39,593.242 2487.33,592.991 2490.28,592.742 2493.22,592.493 2496.17,592.244 2499.11,591.997 2502.06,591.75 2505,591.504 2507.94,591.259 2510.89,591.015 2513.83,590.771 2516.78,590.528 2519.72,590.286 2522.67,590.044 2525.61,589.803 2528.55,589.563 2531.5,589.324 2534.44,589.085 2537.39,588.847 2540.33,588.61 2543.28,588.373 2546.22,588.137 2549.17,587.902 2552.11,587.668 2555.05,587.434 2558,587.201 2560.94,586.969 2563.89,586.737 2566.83,586.506 2569.78,586.276 2572.72,586.046 2575.66,585.817 2578.61,585.589 2581.55,585.361 2584.5,585.135 2587.44,584.908 2590.39,584.683 2593.33,584.458 2596.27,584.234 2599.22,584.011 2602.16,583.788 2605.11,583.566 2608.05,583.344 2611,583.123 2613.94,582.903 2616.89,582.684 2619.83,582.465 2622.77,582.247 2625.72,582.029 2628.66,581.812 2631.61,581.596 2634.55,581.381 2637.5,581.166 2640.44,580.951 2643.38,580.738 2646.33,580.525 2649.27,580.312 2652.22,580.101 2655.16,579.889 2658.11,579.679 2661.05,579.469 2663.99,579.26 2666.94,579.051 2669.88,578.843 2672.83,578.636 2675.77,578.429 2678.72,578.223 2681.66,578.018 2684.61,577.813 2687.55,577.609 2690.49,577.405 2693.44,577.202 2696.38,577 2699.33,576.798 2702.27,576.597 2705.22,576.396 2708.16,576.196 2711.1,575.997 2714.05,575.798 2716.99,575.6 2719.94,575.402 2722.88,575.205 2725.83,575.009 2728.77,574.813 2731.71,574.618 2734.66,574.423 2737.6,574.229 2740.55,574.035 2743.49,573.842 2746.44,573.65 2749.38,573.458 2752.33,573.267 2755.27,573.077 2758.21,572.887 2761.16,572.697 2764.1,572.508 2767.05,572.32 2769.99,572.132 2772.94,571.945 2775.88,571.758 2778.82,571.572 2781.77,571.387 2784.71,571.202 2787.66,571.017 2790.6,570.834 2793.55,570.65 2796.49,570.468 2799.43,570.285 2802.38,570.104 2805.32,569.923 2808.27,569.742 2811.21,569.562 2814.16,569.383 2817.1,569.204 2820.05,569.025 2822.99,568.847 2825.93,568.67 2828.88,568.493 2831.82,568.317 2834.77,568.141 2837.71,567.966 2840.66,567.791 2843.6,567.617 2846.54,567.444 2849.49,567.27 2852.43,567.098 2855.38,566.926 2858.32,566.754 2861.27,566.583 2864.21,566.413 2867.15,566.243 2870.1,566.073 2873.04,565.904 2875.99,565.736 2878.93,565.568 2881.88,565.4 2884.82,565.233 2887.76,565.067 2890.71,564.901 2893.65,564.735 2896.6,564.57 2899.54,564.406 2902.49,564.242 2905.43,564.078 2908.38,563.915 2911.32,563.753 2914.26,563.591 2917.21,563.429 2920.15,563.268 2923.1,563.108 2926.04,562.947 2928.99,562.788 2931.93,562.629 2934.87,562.47 2937.82,562.312 2940.76,562.154 2943.71,561.997 2946.65,561.84 2949.6,561.684 2952.54,561.528 2955.48,561.373 2958.43,561.218 2961.37,561.063 2964.32,560.909 2967.26,560.756 2970.21,560.603 2973.15,560.45 2976.1,560.298 2979.04,560.147 2981.98,559.995 2984.93,559.845 2987.87,559.694 2990.82,559.544 2993.76,559.395 2996.71,559.246 2999.65,559.098 3002.59,558.95 3005.54,558.802 3008.48,558.655 3011.43,558.508 3014.37,558.362 3017.32,558.216 3020.26,558.07 3023.2,557.925 3026.15,557.781 3029.09,557.637 3032.04,557.493 3034.98,557.35 3037.93,557.207 3040.87,557.065 3043.82,556.923 3046.76,556.781 3049.7,556.64 3052.65,556.499 3055.59,556.359 3058.54,556.219 3061.48,556.08 3064.43,555.941 3067.37,555.802 3070.31,555.664 3073.26,555.526 3076.2,555.389 3079.15,555.252 3082.09,555.115 3085.04,554.979 3087.98,554.843 3090.92,554.708 3093.87,554.573 3096.81,554.439 3099.76,554.305 3102.7,554.171 3105.65,554.038 3108.59,553.905 3111.54,553.772 3114.48,553.64 3117.42,553.508 3120.37,553.377 3123.31,553.246 3126.26,553.116 3129.2,552.985 3132.15,552.856 3135.09,552.726 3138.03,552.597 3140.98,552.469 3143.92,552.341 3146.87,552.213 3149.81,552.085 3152.76,551.958 "/>
<polyline clip-path="url(#clip321)" style="stroke:#e26f46; stroke-linecap:round; stroke-linejoin:round; stroke-width:12; stroke-opacity:1; fill:none" points="211.356,85.4293 214.301,87.9737 217.245,90.5105 220.189,93.0397 223.134,95.5613 226.078,98.0753 229.022,100.582 231.967,103.081 234.911,105.572 237.855,108.056 240.8,110.533 243.744,113.002 246.688,115.464 249.633,117.918 252.577,120.365 255.521,122.805 258.466,125.237 261.41,127.662 264.354,130.08 267.299,132.49 270.243,134.894 273.187,137.29 276.132,139.679 279.076,142.06 282.02,144.435 284.965,146.802 287.909,149.163 290.854,151.516 293.798,153.862 296.742,156.202 299.687,158.534 302.631,160.859 305.575,163.177 308.52,165.489 311.464,167.793 314.408,170.09 317.353,172.381 320.297,174.665 323.241,176.941 326.186,179.211 329.13,181.475 332.074,183.731 335.019,185.981 337.963,188.224 340.907,190.46 343.852,192.689 346.796,194.912 349.74,197.128 352.685,199.338 355.629,201.54 358.573,203.737 361.518,205.926 364.462,208.11 367.406,210.286 370.351,212.456 373.295,214.62 376.239,216.777 379.184,218.927 382.128,221.071 385.073,223.209 388.017,225.34 390.961,227.465 393.906,229.584 396.85,231.696 399.794,233.802 402.739,235.901 405.683,237.994 408.627,240.081 411.572,242.162 414.516,244.236 417.46,246.305 420.405,248.367 423.349,250.423 426.293,252.472 429.238,254.516 432.182,256.553 435.126,258.584 438.071,260.61 441.015,262.629 443.959,264.642 446.904,266.649 449.848,268.65 452.792,270.645 455.737,272.634 458.681,274.617 461.625,276.594 464.57,278.565 467.514,280.531 470.458,282.49 473.403,284.444 476.347,286.391 479.292,288.333 482.236,290.269 485.18,292.199 488.125,294.124 491.069,296.042 494.013,297.955 496.958,299.862 499.902,301.764 502.846,303.66 505.791,305.55 508.735,307.434 511.679,309.313 514.624,311.186 517.568,313.053 520.512,314.915 523.457,316.771 526.401,318.622 529.345,320.467 532.29,322.307 535.234,324.141 538.178,325.97 541.123,327.793 544.067,329.611 547.011,331.423 549.956,333.23 552.9,335.031 555.844,336.827 558.789,338.618 561.733,340.403 564.678,342.183 567.622,343.957 570.566,345.726 573.511,347.49 576.455,349.249 579.399,351.002 582.344,352.75 585.288,354.493 588.232,356.231 591.177,357.963 594.121,359.691 597.065,361.413 600.01,363.13 602.954,364.841 605.898,366.548 608.843,368.249 611.787,369.946 614.731,371.637 617.676,373.323 620.62,375.004 623.564,376.68 626.509,378.352 629.453,380.018 632.397,381.679 635.342,383.335 638.286,384.986 641.23,386.632 644.175,388.273 647.119,389.91 650.063,391.541 653.008,393.168 655.952,394.789 658.897,396.406 661.841,398.018 664.785,399.625 667.73,401.227 670.674,402.825 673.618,404.418 676.563,406.006 679.507,407.589 682.451,409.167 685.396,410.741 688.34,412.31 691.284,413.874 694.229,415.434 697.173,416.988 700.117,418.539 703.062,420.084 706.006,421.625 708.95,423.161 711.895,424.693 714.839,426.22 717.783,427.743 720.728,429.261 723.672,430.774 726.616,432.283 729.561,433.788 732.505,435.287 735.449,436.783 738.394,438.274 741.338,439.76 744.282,441.242 747.227,442.719 750.171,444.193 753.116,445.661 756.06,447.125 759.004,448.585 761.949,450.041 764.893,451.492 767.837,452.939 770.782,454.381 773.726,455.819 776.67,457.253 779.615,458.683 782.559,460.108 785.503,461.529 788.448,462.945 791.392,464.358 794.336,465.766 797.281,467.17 800.225,468.57 803.169,469.965 806.114,471.357 809.058,472.744 812.002,474.127 814.947,475.506 817.891,476.881 820.835,478.251 823.78,479.618 826.724,480.98 829.668,482.339 832.613,483.693 835.557,485.043 838.501,486.389 841.446,487.732 844.39,489.07 847.335,490.404 850.279,491.734 853.223,493.06 856.168,494.382 859.112,495.7 862.056,497.015 865.001,498.325 867.945,499.631 870.889,500.934 873.834,502.232 876.778,503.527 879.722,504.818 882.667,506.104 885.611,507.387 888.555,508.667 891.5,509.942 894.444,511.214 897.388,512.481 900.333,513.745 903.277,515.005 906.221,516.262 909.166,517.514 912.11,518.763 915.054,520.008 917.999,521.249 920.943,522.487 923.887,523.721 926.832,524.951 929.776,526.177 932.721,527.4 935.665,528.619 938.609,529.835 941.554,531.047 944.498,532.255 947.442,533.46 950.387,534.661 953.331,535.858 956.275,537.052 959.22,538.242 962.164,539.429 965.108,540.612 968.053,541.791 970.997,542.967 973.941,544.14 976.886,545.309 979.83,546.474 982.774,547.636 985.719,548.794 988.663,549.949 991.607,551.101 994.552,552.249 997.496,553.394 1000.44,554.535 1003.38,555.673 1006.33,556.807 1009.27,557.938 1012.22,559.066 1015.16,560.19 1018.11,561.311 1021.05,562.428 1024,563.542 1026.94,564.653 1029.88,565.76 1032.83,566.865 1035.77,567.965 1038.72,569.063 1041.66,570.157 1044.61,571.248 1047.55,572.336 1050.49,573.42 1053.44,574.501 1056.38,575.579 1059.33,576.654 1062.27,577.725 1065.22,578.794 1068.16,579.859 1071.1,580.921 1074.05,581.979 1076.99,583.035 1079.94,584.087 1082.88,585.136 1085.83,586.182 1088.77,587.225 1091.72,588.265 1094.66,589.302 1097.6,590.335 1100.55,591.366 1103.49,592.393 1106.44,593.417 1109.38,594.438 1112.33,595.457 1115.27,596.472 1118.21,597.484 1121.16,598.493 1124.1,599.499 1127.05,600.502 1129.99,601.502 1132.94,602.499 1135.88,603.493 1138.82,604.484 1141.77,605.472 1144.71,606.457 1147.66,607.439 1150.6,608.418 1153.55,609.395 1156.49,610.368 1159.43,611.338 1162.38,612.306 1165.32,613.27 1168.27,614.232 1171.21,615.191 1174.16,616.147 1177.1,617.1 1180.05,618.05 1182.99,618.998 1185.93,619.942 1188.88,620.884 1191.82,621.823 1194.77,622.759 1197.71,623.692 1200.66,624.622 1203.6,625.55 1206.54,626.475 1209.49,627.397 1212.43,628.317 1215.38,629.233 1218.32,630.147 1221.27,631.058 1224.21,631.966 1227.15,632.872 1230.1,633.775 1233.04,634.675 1235.99,635.573 1238.93,636.468 1241.88,637.36 1244.82,638.249 1247.77,639.136 1250.71,640.02 1253.65,640.902 1256.6,641.78 1259.54,642.657 1262.49,643.53 1265.43,644.401 1268.38,645.269 1271.32,646.135 1274.26,646.998 1277.21,647.859 1280.15,648.717 1283.1,649.572 1286.04,650.425 1288.99,651.275 1291.93,652.123 1294.87,652.968 1297.82,653.811 1300.76,654.651 1303.71,655.488 1306.65,656.324 1309.6,657.156 1312.54,657.986 1315.49,658.814 1318.43,659.639 1321.37,660.462 1324.32,661.282 1327.26,662.099 1330.21,662.915 1333.15,663.727 1336.1,664.538 1339.04,665.346 1341.98,666.151 1344.93,666.954 1347.87,667.755 1350.82,668.553 1353.76,669.349 1356.71,670.143 1359.65,670.934 1362.59,671.723 1365.54,672.509 1368.48,673.293 1371.43,674.075 1374.37,674.854 1377.32,675.631 1380.26,676.406 1383.21,677.178 1386.15,677.948 1389.09,678.716 1392.04,679.481 1394.98,680.244 1397.93,681.005 1400.87,681.764 1403.82,682.52 1406.76,683.274 1409.7,684.026 1412.65,684.775 1415.59,685.522 1418.54,686.267 1421.48,687.01 1424.43,687.751 1427.37,688.489 1430.31,689.225 1433.26,689.959 1436.2,690.691 1439.15,691.42 1442.09,692.148 1445.04,692.873 1447.98,693.596 1450.93,694.317 1453.87,695.035 1456.81,695.752 1459.76,696.466 1462.7,697.178 1465.65,697.888 1468.59,698.596 1471.54,699.302 1474.48,700.006 1477.42,700.707 1480.37,701.407 1483.31,702.104 1486.26,702.8 1489.2,703.493 1492.15,704.184 1495.09,704.873 1498.03,705.56 1500.98,706.245 1503.92,706.928 1506.87,707.609 1509.81,708.287 1512.76,708.964 1515.7,709.639 1518.64,710.312 1521.59,710.982 1524.53,711.651 1527.48,712.318 1530.42,712.982 1533.37,713.645 1536.31,714.306 1539.26,714.965 1542.2,715.621 1545.14,716.276 1548.09,716.929 1551.03,717.58 1553.98,718.229 1556.92,718.876 1559.87,719.521 1562.81,720.164 1565.75,720.805 1568.7,721.445 1571.64,722.082 1574.59,722.717 1577.53,723.351 1580.48,723.983 1583.42,724.612 1586.36,725.24 1589.31,725.866 1592.25,726.49 1595.2,727.113 1598.14,727.733 1601.09,728.351 1604.03,728.968 1606.98,729.583 1609.92,730.196 1612.86,730.807 1615.81,731.416 1618.75,732.024 1621.7,732.629 1624.64,733.233 1627.59,733.835 1630.53,734.436 1633.47,735.034 1636.42,735.631 1639.36,736.225 1642.31,736.818 1645.25,737.41 1648.2,737.999 1651.14,738.587 1654.08,739.173 1657.03,739.757 1659.97,740.339 1662.92,740.92 1665.86,741.499 1668.81,742.076 1671.75,742.652 1674.7,743.226 1677.64,743.798 1680.58,744.368 1683.53,744.937 1686.47,745.503 1689.42,746.069 1692.36,746.632 1695.31,747.194 1698.25,747.754 1701.19,748.313 1704.14,748.869 1707.08,749.424 1710.03,749.978 1712.97,750.53 1715.92,751.08 1718.86,751.628 1721.8,752.175 1724.75,752.72 1727.69,753.264 1730.64,753.806 1733.58,754.346 1736.53,754.885 1739.47,755.422 1742.42,755.957 1745.36,756.491 1748.3,757.023 1751.25,757.554 1754.19,758.083 1757.14,758.61 1760.08,759.136 1763.03,759.66 1765.97,760.183 1768.91,760.704 1771.86,761.224 1774.8,761.742 1777.75,762.258 1780.69,762.773 1783.64,763.287 1786.58,763.798 1789.52,764.309 1792.47,764.817 1795.41,765.325 1798.36,765.83 1801.3,766.335 1804.25,766.837 1807.19,767.338 1810.14,767.838 1813.08,768.336 1816.02,768.833 1818.97,769.328 1821.91,769.822 1824.86,770.314 1827.8,770.805 1830.75,771.294 1833.69,771.782 1836.63,772.268 1839.58,772.753 1842.52,773.237 1845.47,773.719 1848.41,774.199 1851.36,774.678 1854.3,775.156 1857.24,775.632 1860.19,776.107 1863.13,776.58 1866.08,777.052 1869.02,777.523 1871.97,777.992 1874.91,778.46 1877.85,778.926 1880.8,779.391 1883.74,779.854 1886.69,780.316 1889.63,780.777 1892.58,781.237 1895.52,781.695 1898.47,782.151 1901.41,782.606 1904.35,783.06 1907.3,783.513 1910.24,783.964 1913.19,784.414 1916.13,784.862 1919.08,785.309 1922.02,785.755 1924.96,786.2 1927.91,786.643 1930.85,787.085 1933.8,787.525 1936.74,787.964 1939.69,788.402 1942.63,788.839 1945.57,789.274 1948.52,789.708 1951.46,790.14 1954.41,790.572 1957.35,791.002 1960.3,791.43 1963.24,791.858 1966.19,792.284 1969.13,792.709 1972.07,793.132 1975.02,793.555 1977.96,793.976 1980.91,794.396 1983.85,794.814 1986.8,795.232 1989.74,795.648 1992.68,796.062 1995.63,796.476 1998.57,796.888 2001.52,797.299 2004.46,797.709 2007.41,798.118 2010.35,798.525 2013.29,798.932 2016.24,799.337 2019.18,799.74 2022.13,800.143 2025.07,800.544 2028.02,800.944 2030.96,801.343 2033.91,801.741 2036.85,802.138 2039.79,802.533 2042.74,802.927 2045.68,803.32 2048.63,803.712 2051.57,804.103 2054.52,804.492 2057.46,804.881 2060.4,805.268 2063.35,805.654 2066.29,806.039 2069.24,806.423 2072.18,806.805 2075.13,807.187 2078.07,807.567 2081.01,807.946 2083.96,808.324 2086.9,808.701 2089.85,809.077 2092.79,809.451 2095.74,809.825 2098.68,810.197 2101.63,810.568 2104.57,810.939 2107.51,811.308 2110.46,811.676 2113.4,812.042 2116.35,812.408 2119.29,812.773 2122.24,813.136 2125.18,813.499 2128.12,813.86 2131.07,814.22 2134.01,814.58 2136.96,814.938 2139.9,815.295 2142.85,815.651 2145.79,816.006 2148.73,816.359 2151.68,816.712 2154.62,817.064 2157.57,817.415 2160.51,817.764 2163.46,818.113 2166.4,818.46 2169.34,818.807 2172.29,819.152 2175.23,819.497 2178.18,819.84 2181.12,820.182 2184.07,820.524 2187.01,820.864 2189.96,821.203 2192.9,821.541 2195.84,821.879 2198.79,822.215 2201.73,822.55 2204.68,822.884 2207.62,823.217 2210.57,823.55 2213.51,823.881 2216.45,824.211 2219.4,824.54 2222.34,824.868 2225.29,825.196 2228.23,825.522 2231.18,825.847 2234.12,826.171 2237.06,826.495 2240.01,826.817 2242.95,827.138 2245.9,827.459 2248.84,827.778 2251.79,828.097 2254.73,828.414 2257.68,828.731 2260.62,829.046 2263.56,829.361 2266.51,829.675 2269.45,829.988 2272.4,830.299 2275.34,830.61 2278.29,830.92 2281.23,831.229 2284.17,831.538 2287.12,831.845 2290.06,832.151 2293.01,832.456 2295.95,832.761 2298.9,833.064 2301.84,833.367 2304.78,833.669 2307.73,833.969 2310.67,834.269 2313.62,834.568 2316.56,834.866 2319.51,835.164 2322.45,835.46 2325.4,835.755 2328.34,836.05 2331.28,836.343 2334.23,836.636 2337.17,836.928 2340.12,837.219 2343.06,837.509 2346.01,837.798 2348.95,838.087 2351.89,838.374 2354.84,838.661 2357.78,838.947 2360.73,839.232 2363.67,839.516 2366.62,839.799 2369.56,840.081 2372.5,840.363 2375.45,840.644 2378.39,840.924 2381.34,841.203 2384.28,841.481 2387.23,841.758 2390.17,842.035 2393.12,842.31 2396.06,842.585 2399,842.859 2401.95,843.132 2404.89,843.405 2407.84,843.676 2410.78,843.947 2413.73,844.217 2416.67,844.486 2419.61,844.754 2422.56,845.022 2425.5,845.289 2428.45,845.555 2431.39,845.82 2434.34,846.084 2437.28,846.348 2440.22,846.61 2443.17,846.872 2446.11,847.133 2449.06,847.394 2452,847.653 2454.95,847.912 2457.89,848.17 2460.84,848.428 2463.78,848.684 2466.72,848.94 2469.67,849.195 2472.61,849.449 2475.56,849.702 2478.5,849.955 2481.45,850.207 2484.39,850.458 2487.33,850.709 2490.28,850.958 2493.22,851.207 2496.17,851.455 2499.11,851.703 2502.06,851.95 2505,852.196 2507.94,852.441 2510.89,852.685 2513.83,852.929 2516.78,853.172 2519.72,853.414 2522.67,853.656 2525.61,853.897 2528.55,854.137 2531.5,854.376 2534.44,854.615 2537.39,854.853 2540.33,855.09 2543.28,855.327 2546.22,855.563 2549.17,855.798 2552.11,856.032 2555.05,856.266 2558,856.499 2560.94,856.731 2563.89,856.963 2566.83,857.194 2569.78,857.424 2572.72,857.654 2575.66,857.883 2578.61,858.111 2581.55,858.338 2584.5,858.565 2587.44,858.791 2590.39,859.017 2593.33,859.242 2596.27,859.466 2599.22,859.689 2602.16,859.912 2605.11,860.134 2608.05,860.356 2611,860.576 2613.94,860.797 2616.89,861.016 2619.83,861.235 2622.77,861.453 2625.72,861.671 2628.66,861.888 2631.61,862.104 2634.55,862.319 2637.5,862.534 2640.44,862.749 2643.38,862.962 2646.33,863.175 2649.27,863.388 2652.22,863.599 2655.16,863.81 2658.11,864.021 2661.05,864.231 2663.99,864.44 2666.94,864.648 2669.88,864.856 2672.83,865.064 2675.77,865.27 2678.72,865.477 2681.66,865.682 2684.61,865.887 2687.55,866.091 2690.49,866.295 2693.44,866.498 2696.38,866.7 2699.33,866.902 2702.27,867.103 2705.22,867.304 2708.16,867.504 2711.1,867.703 2714.05,867.902 2716.99,868.1 2719.94,868.298 2722.88,868.495 2725.83,868.691 2728.77,868.887 2731.71,869.082 2734.66,869.277 2737.6,869.471 2740.55,869.664 2743.49,869.857 2746.44,870.05 2749.38,870.241 2752.33,870.433 2755.27,870.623 2758.21,870.813 2761.16,871.003 2764.1,871.192 2767.05,871.38 2769.99,871.568 2772.94,871.755 2775.88,871.942 2778.82,872.128 2781.77,872.313 2784.71,872.498 2787.66,872.682 2790.6,872.866 2793.55,873.05 2796.49,873.232 2799.43,873.415 2802.38,873.596 2805.32,873.777 2808.27,873.958 2811.21,874.138 2814.16,874.317 2817.1,874.496 2820.05,874.675 2822.99,874.853 2825.93,875.03 2828.88,875.207 2831.82,875.383 2834.77,875.559 2837.71,875.734 2840.66,875.909 2843.6,876.083 2846.54,876.256 2849.49,876.429 2852.43,876.602 2855.38,876.774 2858.32,876.946 2861.27,877.117 2864.21,877.287 2867.15,877.457 2870.1,877.627 2873.04,877.796 2875.99,877.964 2878.93,878.132 2881.88,878.3 2884.82,878.467 2887.76,878.633 2890.71,878.799 2893.65,878.965 2896.6,879.13 2899.54,879.294 2902.49,879.458 2905.43,879.622 2908.38,879.785 2911.32,879.947 2914.26,880.109 2917.21,880.271 2920.15,880.432 2923.1,880.592 2926.04,880.752 2928.99,880.912 2931.93,881.071 2934.87,881.23 2937.82,881.388 2940.76,881.546 2943.71,881.703 2946.65,881.86 2949.6,882.016 2952.54,882.172 2955.48,882.327 2958.43,882.482 2961.37,882.636 2964.32,882.79 2967.26,882.944 2970.21,883.097 2973.15,883.249 2976.1,883.402 2979.04,883.553 2981.98,883.704 2984.93,883.855 2987.87,884.006 2990.82,884.155 2993.76,884.305 2996.71,884.454 2999.65,884.602 3002.59,884.75 3005.54,884.898 3008.48,885.045 3011.43,885.192 3014.37,885.338 3017.32,885.484 3020.26,885.629 3023.2,885.774 3026.15,885.919 3029.09,886.063 3032.04,886.207 3034.98,886.35 3037.93,886.493 3040.87,886.635 3043.82,886.777 3046.76,886.919 3049.7,887.06 3052.65,887.201 3055.59,887.341 3058.54,887.481 3061.48,887.62 3064.43,887.759 3067.37,887.898 3070.31,888.036 3073.26,888.174 3076.2,888.311 3079.15,888.448 3082.09,888.585 3085.04,888.721 3087.98,888.856 3090.92,888.992 3093.87,889.127 3096.81,889.261 3099.76,889.395 3102.7,889.529 3105.65,889.662 3108.59,889.795 3111.54,889.928 3114.48,890.06 3117.42,890.191 3120.37,890.323 3123.31,890.454 3126.26,890.584 3129.2,890.714 3132.15,890.844 3135.09,890.974 3138.03,891.103 3140.98,891.231 3143.92,891.359 3146.87,891.487 3149.81,891.615 3152.76,891.742 "/>
<path clip-path="url(#clip320)" d="M2730.99 247.738 L3054.71 247.738 L3054.71 92.2178 L2730.99 92.2178  Z" fill="#ffffff" fill-rule="evenodd" fill-opacity="1"/>
<polyline clip-path="url(#clip320)" style="stroke:#000000; stroke-linecap:round; stroke-linejoin:round; stroke-width:4; stroke-opacity:1; fill:none" points="2730.99,247.738 3054.71,247.738 3054.71,92.2178 2730.99,92.2178 2730.99,247.738 "/>
<polyline clip-path="url(#clip320)" style="stroke:#009af9; stroke-linecap:round; stroke-linejoin:round; stroke-width:12; stroke-opacity:1; fill:none" points="2763.67,144.058 2959.76,144.058 "/>
<path clip-path="url(#clip320)" d="M2994.02 126.778 L2999.04 126.778 L3007.63 139.625 L3016.26 126.778 L3021.29 126.778 L3010.18 143.375 L3022.03 161.338 L3017 161.338 L3007.28 146.639 L2997.49 161.338 L2992.44 161.338 L3004.78 142.889 L2994.02 126.778 Z" fill="#000000" fill-rule="nonzero" fill-opacity="1" /><polyline clip-path="url(#clip320)" style="stroke:#e26f46; stroke-linecap:round; stroke-linejoin:round; stroke-width:12; stroke-opacity:1; fill:none" points="2763.67,195.898 2959.76,195.898 "/>
<path clip-path="url(#clip320)" d="M2994.02 178.618 L2999.04 178.618 L3007.63 191.465 L3016.26 178.618 L3021.29 178.618 L3010.18 195.215 L3022.03 213.178 L3017 213.178 L3007.28 198.479 L2997.49 213.178 L2992.44 213.178 L3004.78 194.729 L2994.02 178.618 Z" fill="#000000" fill-rule="nonzero" fill-opacity="1" /></svg>
