<?xml version="1.0" encoding="utf-8"?>
<svg xmlns="http://www.w3.org/2000/svg" xmlns:xlink="http://www.w3.org/1999/xlink" width="600" height="400" viewBox="0 0 2400 1600">
<defs>
  <clipPath id="clip940">
    <rect x="0" y="0" width="2400" height="1600"/>
  </clipPath>
</defs>
<path clip-path="url(#clip940)" d="M0 1600 L2400 1600 L2400 0 L0 0  Z" fill="#ffffff" fill-rule="evenodd" fill-opacity="1"/>
<defs>
  <clipPath id="clip941">
    <rect x="480" y="0" width="1681" height="1600"/>
  </clipPath>
</defs>
<path clip-path="url(#clip940)" d="M216.365 1375.94 L2352.76 1375.94 L2352.76 47.2441 L216.365 47.2441  Z" fill="#ffffff" fill-rule="evenodd" fill-opacity="1"/>
<defs>
  <clipPath id="clip942">
    <rect x="216" y="47" width="2137" height="1330"/>
  </clipPath>
</defs>
<polyline clip-path="url(#clip942)" style="stroke:#000000; stroke-linecap:round; stroke-linejoin:round; stroke-width:2; stroke-opacity:0.1; fill:none" points="216.365,1375.94 216.365,47.2441 "/>
<polyline clip-path="url(#clip942)" style="stroke:#000000; stroke-linecap:round; stroke-linejoin:round; stroke-width:2; stroke-opacity:0.1; fill:none" points="643.644,1375.94 643.644,47.2441 "/>
<polyline clip-path="url(#clip942)" style="stroke:#000000; stroke-linecap:round; stroke-linejoin:round; stroke-width:2; stroke-opacity:0.1; fill:none" points="1070.92,1375.94 1070.92,47.2441 "/>
<polyline clip-path="url(#clip942)" style="stroke:#000000; stroke-linecap:round; stroke-linejoin:round; stroke-width:2; stroke-opacity:0.1; fill:none" points="1498.2,1375.94 1498.2,47.2441 "/>
<polyline clip-path="url(#clip942)" style="stroke:#000000; stroke-linecap:round; stroke-linejoin:round; stroke-width:2; stroke-opacity:0.1; fill:none" points="1925.48,1375.94 1925.48,47.2441 "/>
<polyline clip-path="url(#clip942)" style="stroke:#000000; stroke-linecap:round; stroke-linejoin:round; stroke-width:2; stroke-opacity:0.1; fill:none" points="2352.76,1375.94 2352.76,47.2441 "/>
<polyline clip-path="url(#clip942)" style="stroke:#000000; stroke-linecap:round; stroke-linejoin:round; stroke-width:2; stroke-opacity:0.1; fill:none" points="216.365,1338.33 2352.76,1338.33 "/>
<polyline clip-path="url(#clip942)" style="stroke:#000000; stroke-linecap:round; stroke-linejoin:round; stroke-width:2; stroke-opacity:0.1; fill:none" points="216.365,1021.8 2352.76,1021.8 "/>
<polyline clip-path="url(#clip942)" style="stroke:#000000; stroke-linecap:round; stroke-linejoin:round; stroke-width:2; stroke-opacity:0.1; fill:none" points="216.365,705.259 2352.76,705.259 "/>
<polyline clip-path="url(#clip942)" style="stroke:#000000; stroke-linecap:round; stroke-linejoin:round; stroke-width:2; stroke-opacity:0.1; fill:none" points="216.365,388.723 2352.76,388.723 "/>
<polyline clip-path="url(#clip942)" style="stroke:#000000; stroke-linecap:round; stroke-linejoin:round; stroke-width:2; stroke-opacity:0.1; fill:none" points="216.365,72.1871 2352.76,72.1871 "/>
<polyline clip-path="url(#clip940)" style="stroke:#000000; stroke-linecap:round; stroke-linejoin:round; stroke-width:4; stroke-opacity:1; fill:none" points="216.365,1375.94 2352.76,1375.94 "/>
<polyline clip-path="url(#clip940)" style="stroke:#000000; stroke-linecap:round; stroke-linejoin:round; stroke-width:4; stroke-opacity:1; fill:none" points="216.365,1375.94 216.365,1357.04 "/>
<polyline clip-path="url(#clip940)" style="stroke:#000000; stroke-linecap:round; stroke-linejoin:round; stroke-width:4; stroke-opacity:1; fill:none" points="643.644,1375.94 643.644,1357.04 "/>
<polyline clip-path="url(#clip940)" style="stroke:#000000; stroke-linecap:round; stroke-linejoin:round; stroke-width:4; stroke-opacity:1; fill:none" points="1070.92,1375.94 1070.92,1357.04 "/>
<polyline clip-path="url(#clip940)" style="stroke:#000000; stroke-linecap:round; stroke-linejoin:round; stroke-width:4; stroke-opacity:1; fill:none" points="1498.2,1375.94 1498.2,1357.04 "/>
<polyline clip-path="url(#clip940)" style="stroke:#000000; stroke-linecap:round; stroke-linejoin:round; stroke-width:4; stroke-opacity:1; fill:none" points="1925.48,1375.94 1925.48,1357.04 "/>
<polyline clip-path="url(#clip940)" style="stroke:#000000; stroke-linecap:round; stroke-linejoin:round; stroke-width:4; stroke-opacity:1; fill:none" points="2352.76,1375.94 2352.76,1357.04 "/>
<path clip-path="url(#clip940)" d="M216.365 1406.85 Q212.754 1406.85 210.926 1410.42 Q209.12 1413.96 209.12 1421.09 Q209.12 1428.2 210.926 1431.76 Q212.754 1435.3 216.365 1435.3 Q220 1435.3 221.805 1431.76 Q223.634 1428.2 223.634 1421.09 Q223.634 1413.96 221.805 1410.42 Q220 1406.85 216.365 1406.85 M216.365 1403.15 Q222.176 1403.15 225.231 1407.76 Q228.31 1412.34 228.31 1421.09 Q228.31 1429.82 225.231 1434.42 Q222.176 1439.01 216.365 1439.01 Q210.555 1439.01 207.477 1434.42 Q204.421 1429.82 204.421 1421.09 Q204.421 1412.34 207.477 1407.76 Q210.555 1403.15 216.365 1403.15 Z" fill="#000000" fill-rule="nonzero" fill-opacity="1" /><path clip-path="url(#clip940)" d="M618.343 1403.78 L636.699 1403.78 L636.699 1407.71 L622.625 1407.71 L622.625 1416.18 Q623.644 1415.84 624.662 1415.67 Q625.681 1415.49 626.699 1415.49 Q632.486 1415.49 635.866 1418.66 Q639.245 1421.83 639.245 1427.25 Q639.245 1432.83 635.773 1435.93 Q632.301 1439.01 625.982 1439.01 Q623.806 1439.01 621.537 1438.64 Q619.292 1438.27 616.884 1437.53 L616.884 1432.83 Q618.968 1433.96 621.19 1434.52 Q623.412 1435.07 625.889 1435.07 Q629.894 1435.07 632.232 1432.97 Q634.569 1430.86 634.569 1427.25 Q634.569 1423.64 632.232 1421.53 Q629.894 1419.42 625.889 1419.42 Q624.014 1419.42 622.139 1419.84 Q620.287 1420.26 618.343 1421.14 L618.343 1403.78 Z" fill="#000000" fill-rule="nonzero" fill-opacity="1" /><path clip-path="url(#clip940)" d="M658.458 1406.85 Q654.847 1406.85 653.018 1410.42 Q651.213 1413.96 651.213 1421.09 Q651.213 1428.2 653.018 1431.76 Q654.847 1435.3 658.458 1435.3 Q662.092 1435.3 663.898 1431.76 Q665.727 1428.2 665.727 1421.09 Q665.727 1413.96 663.898 1410.42 Q662.092 1406.85 658.458 1406.85 M658.458 1403.15 Q664.268 1403.15 667.324 1407.76 Q670.403 1412.34 670.403 1421.09 Q670.403 1429.82 667.324 1434.42 Q664.268 1439.01 658.458 1439.01 Q652.648 1439.01 649.569 1434.42 Q646.514 1429.82 646.514 1421.09 Q646.514 1412.34 649.569 1407.76 Q652.648 1403.15 658.458 1403.15 Z" fill="#000000" fill-rule="nonzero" fill-opacity="1" /><path clip-path="url(#clip940)" d="M1030.53 1434.4 L1038.17 1434.4 L1038.17 1408.03 L1029.86 1409.7 L1029.86 1405.44 L1038.12 1403.78 L1042.8 1403.78 L1042.8 1434.4 L1050.44 1434.4 L1050.44 1438.34 L1030.53 1438.34 L1030.53 1434.4 Z" fill="#000000" fill-rule="nonzero" fill-opacity="1" /><path clip-path="url(#clip940)" d="M1069.88 1406.85 Q1066.27 1406.85 1064.44 1410.42 Q1062.63 1413.96 1062.63 1421.09 Q1062.63 1428.2 1064.44 1431.76 Q1066.27 1435.3 1069.88 1435.3 Q1073.51 1435.3 1075.32 1431.76 Q1077.15 1428.2 1077.15 1421.09 Q1077.15 1413.96 1075.32 1410.42 Q1073.51 1406.85 1069.88 1406.85 M1069.88 1403.15 Q1075.69 1403.15 1078.75 1407.76 Q1081.82 1412.34 1081.82 1421.09 Q1081.82 1429.82 1078.75 1434.42 Q1075.69 1439.01 1069.88 1439.01 Q1064.07 1439.01 1060.99 1434.42 Q1057.94 1429.82 1057.94 1421.09 Q1057.94 1412.34 1060.99 1407.76 Q1064.07 1403.15 1069.88 1403.15 Z" fill="#000000" fill-rule="nonzero" fill-opacity="1" /><path clip-path="url(#clip940)" d="M1100.04 1406.85 Q1096.43 1406.85 1094.6 1410.42 Q1092.8 1413.96 1092.8 1421.09 Q1092.8 1428.2 1094.6 1431.76 Q1096.43 1435.3 1100.04 1435.3 Q1103.68 1435.3 1105.48 1431.76 Q1107.31 1428.2 1107.31 1421.09 Q1107.31 1413.96 1105.48 1410.42 Q1103.68 1406.85 1100.04 1406.85 M1100.04 1403.15 Q1105.85 1403.15 1108.91 1407.76 Q1111.99 1412.34 1111.99 1421.09 Q1111.99 1429.82 1108.91 1434.42 Q1105.85 1439.01 1100.04 1439.01 Q1094.23 1439.01 1091.15 1434.42 Q1088.1 1429.82 1088.1 1421.09 Q1088.1 1412.34 1091.15 1407.76 Q1094.23 1403.15 1100.04 1403.15 Z" fill="#000000" fill-rule="nonzero" fill-opacity="1" /><path clip-path="url(#clip940)" d="M1457.81 1434.4 L1465.45 1434.4 L1465.45 1408.03 L1457.14 1409.7 L1457.14 1405.44 L1465.4 1403.78 L1470.07 1403.78 L1470.07 1434.4 L1477.71 1434.4 L1477.71 1438.34 L1457.81 1438.34 L1457.81 1434.4 Z" fill="#000000" fill-rule="nonzero" fill-opacity="1" /><path clip-path="url(#clip940)" d="M1487.2 1403.78 L1505.56 1403.78 L1505.56 1407.71 L1491.49 1407.71 L1491.49 1416.18 Q1492.51 1415.84 1493.52 1415.67 Q1494.54 1415.49 1495.56 1415.49 Q1501.35 1415.49 1504.73 1418.66 Q1508.11 1421.83 1508.11 1427.25 Q1508.11 1432.83 1504.63 1435.93 Q1501.16 1439.01 1494.84 1439.01 Q1492.67 1439.01 1490.4 1438.64 Q1488.15 1438.27 1485.75 1437.53 L1485.75 1432.83 Q1487.83 1433.96 1490.05 1434.52 Q1492.27 1435.07 1494.75 1435.07 Q1498.76 1435.07 1501.09 1432.97 Q1503.43 1430.86 1503.43 1427.25 Q1503.43 1423.64 1501.09 1421.53 Q1498.76 1419.42 1494.75 1419.42 Q1492.88 1419.42 1491 1419.84 Q1489.15 1420.26 1487.2 1421.14 L1487.2 1403.78 Z" fill="#000000" fill-rule="nonzero" fill-opacity="1" /><path clip-path="url(#clip940)" d="M1527.32 1406.85 Q1523.71 1406.85 1521.88 1410.42 Q1520.07 1413.96 1520.07 1421.09 Q1520.07 1428.2 1521.88 1431.76 Q1523.71 1435.3 1527.32 1435.3 Q1530.95 1435.3 1532.76 1431.76 Q1534.59 1428.2 1534.59 1421.09 Q1534.59 1413.96 1532.76 1410.42 Q1530.95 1406.85 1527.32 1406.85 M1527.32 1403.15 Q1533.13 1403.15 1536.19 1407.76 Q1539.26 1412.34 1539.26 1421.09 Q1539.26 1429.82 1536.19 1434.42 Q1533.13 1439.01 1527.32 1439.01 Q1521.51 1439.01 1518.43 1434.42 Q1515.38 1429.82 1515.38 1421.09 Q1515.38 1412.34 1518.43 1407.76 Q1521.51 1403.15 1527.32 1403.15 Z" fill="#000000" fill-rule="nonzero" fill-opacity="1" /><path clip-path="url(#clip940)" d="M1889.17 1434.4 L1905.49 1434.4 L1905.49 1438.34 L1883.55 1438.34 L1883.55 1434.4 Q1886.21 1431.65 1890.79 1427.02 Q1895.4 1422.36 1896.58 1421.02 Q1898.82 1418.5 1899.7 1416.76 Q1900.61 1415 1900.61 1413.31 Q1900.61 1410.56 1898.66 1408.82 Q1896.74 1407.09 1893.64 1407.09 Q1891.44 1407.09 1888.98 1407.85 Q1886.55 1408.61 1883.78 1410.16 L1883.78 1405.44 Q1886.6 1404.31 1889.05 1403.73 Q1891.51 1403.15 1893.55 1403.15 Q1898.92 1403.15 1902.11 1405.84 Q1905.3 1408.52 1905.3 1413.01 Q1905.3 1415.14 1904.49 1417.06 Q1903.71 1418.96 1901.6 1421.55 Q1901.02 1422.22 1897.92 1425.44 Q1894.82 1428.64 1889.17 1434.4 Z" fill="#000000" fill-rule="nonzero" fill-opacity="1" /><path clip-path="url(#clip940)" d="M1925.3 1406.85 Q1921.69 1406.85 1919.86 1410.42 Q1918.06 1413.96 1918.06 1421.09 Q1918.06 1428.2 1919.86 1431.76 Q1921.69 1435.3 1925.3 1435.3 Q1928.94 1435.3 1930.74 1431.76 Q1932.57 1428.2 1932.57 1421.09 Q1932.57 1413.96 1930.74 1410.42 Q1928.94 1406.85 1925.3 1406.85 M1925.3 1403.15 Q1931.11 1403.15 1934.17 1407.76 Q1937.25 1412.34 1937.25 1421.09 Q1937.25 1429.82 1934.17 1434.42 Q1931.11 1439.01 1925.3 1439.01 Q1919.49 1439.01 1916.42 1434.42 Q1913.36 1429.82 1913.36 1421.09 Q1913.36 1412.34 1916.42 1407.76 Q1919.49 1403.15 1925.3 1403.15 Z" fill="#000000" fill-rule="nonzero" fill-opacity="1" /><path clip-path="url(#clip940)" d="M1955.47 1406.85 Q1951.85 1406.85 1950.03 1410.42 Q1948.22 1413.96 1948.22 1421.09 Q1948.22 1428.2 1950.03 1431.76 Q1951.85 1435.3 1955.47 1435.3 Q1959.1 1435.3 1960.91 1431.76 Q1962.73 1428.2 1962.73 1421.09 Q1962.73 1413.96 1960.91 1410.42 Q1959.1 1406.85 1955.47 1406.85 M1955.47 1403.15 Q1961.28 1403.15 1964.33 1407.76 Q1967.41 1412.34 1967.41 1421.09 Q1967.41 1429.82 1964.33 1434.42 Q1961.28 1439.01 1955.47 1439.01 Q1949.66 1439.01 1946.58 1434.42 Q1943.52 1429.82 1943.52 1421.09 Q1943.52 1412.34 1946.58 1407.76 Q1949.66 1403.15 1955.47 1403.15 Z" fill="#000000" fill-rule="nonzero" fill-opacity="1" /><path clip-path="url(#clip940)" d="M2316.45 1434.4 L2332.77 1434.4 L2332.77 1438.34 L2310.82 1438.34 L2310.82 1434.4 Q2313.49 1431.65 2318.07 1427.02 Q2322.68 1422.36 2323.86 1421.02 Q2326.1 1418.5 2326.98 1416.76 Q2327.88 1415 2327.88 1413.31 Q2327.88 1410.56 2325.94 1408.82 Q2324.02 1407.09 2320.92 1407.09 Q2318.72 1407.09 2316.26 1407.85 Q2313.83 1408.61 2311.05 1410.16 L2311.05 1405.44 Q2313.88 1404.31 2316.33 1403.73 Q2318.79 1403.15 2320.82 1403.15 Q2326.19 1403.15 2329.39 1405.84 Q2332.58 1408.52 2332.58 1413.01 Q2332.58 1415.14 2331.77 1417.06 Q2330.99 1418.96 2328.88 1421.55 Q2328.3 1422.22 2325.2 1425.44 Q2322.1 1428.64 2316.45 1434.4 Z" fill="#000000" fill-rule="nonzero" fill-opacity="1" /><path clip-path="url(#clip940)" d="M2342.63 1403.78 L2360.99 1403.78 L2360.99 1407.71 L2346.91 1407.71 L2346.91 1416.18 Q2347.93 1415.84 2348.95 1415.67 Q2349.97 1415.49 2350.99 1415.49 Q2356.77 1415.49 2360.15 1418.66 Q2363.53 1421.83 2363.53 1427.25 Q2363.53 1432.83 2360.06 1435.93 Q2356.59 1439.01 2350.27 1439.01 Q2348.09 1439.01 2345.82 1438.64 Q2343.58 1438.27 2341.17 1437.53 L2341.17 1432.83 Q2343.25 1433.96 2345.48 1434.52 Q2347.7 1435.07 2350.17 1435.07 Q2354.18 1435.07 2356.52 1432.97 Q2358.86 1430.86 2358.86 1427.25 Q2358.86 1423.64 2356.52 1421.53 Q2354.18 1419.42 2350.17 1419.42 Q2348.3 1419.42 2346.42 1419.84 Q2344.57 1420.26 2342.63 1421.14 L2342.63 1403.78 Z" fill="#000000" fill-rule="nonzero" fill-opacity="1" /><path clip-path="url(#clip940)" d="M2382.74 1406.85 Q2379.13 1406.85 2377.3 1410.42 Q2375.5 1413.96 2375.5 1421.09 Q2375.5 1428.2 2377.3 1431.76 Q2379.13 1435.3 2382.74 1435.3 Q2386.38 1435.3 2388.18 1431.76 Q2390.01 1428.2 2390.01 1421.09 Q2390.01 1413.96 2388.18 1410.42 Q2386.38 1406.85 2382.74 1406.85 M2382.74 1403.15 Q2388.55 1403.15 2391.61 1407.76 Q2394.69 1412.34 2394.69 1421.09 Q2394.69 1429.82 2391.61 1434.42 Q2388.55 1439.01 2382.74 1439.01 Q2376.93 1439.01 2373.86 1434.42 Q2370.8 1429.82 2370.8 1421.09 Q2370.8 1412.34 2373.86 1407.76 Q2376.93 1403.15 2382.74 1403.15 Z" fill="#000000" fill-rule="nonzero" fill-opacity="1" /><path clip-path="url(#clip940)" d="M1283.62 1475.03 L1283.62 1485.15 L1295.68 1485.15 L1295.68 1489.7 L1283.62 1489.7 L1283.62 1509.06 Q1283.62 1513.42 1284.8 1514.66 Q1286.01 1515.9 1289.67 1515.9 L1295.68 1515.9 L1295.68 1520.8 L1289.67 1520.8 Q1282.89 1520.8 1280.31 1518.29 Q1277.73 1515.74 1277.73 1509.06 L1277.73 1489.7 L1273.44 1489.7 L1273.44 1485.15 L1277.73 1485.15 L1277.73 1475.03 L1283.62 1475.03 Z" fill="#000000" fill-rule="nonzero" fill-opacity="1" /><polyline clip-path="url(#clip940)" style="stroke:#000000; stroke-linecap:round; stroke-linejoin:round; stroke-width:4; stroke-opacity:1; fill:none" points="216.365,1375.94 216.365,47.2441 "/>
<polyline clip-path="url(#clip940)" style="stroke:#000000; stroke-linecap:round; stroke-linejoin:round; stroke-width:4; stroke-opacity:1; fill:none" points="216.365,1338.33 235.263,1338.33 "/>
<polyline clip-path="url(#clip940)" style="stroke:#000000; stroke-linecap:round; stroke-linejoin:round; stroke-width:4; stroke-opacity:1; fill:none" points="216.365,1021.8 235.263,1021.8 "/>
<polyline clip-path="url(#clip940)" style="stroke:#000000; stroke-linecap:round; stroke-linejoin:round; stroke-width:4; stroke-opacity:1; fill:none" points="216.365,705.259 235.263,705.259 "/>
<polyline clip-path="url(#clip940)" style="stroke:#000000; stroke-linecap:round; stroke-linejoin:round; stroke-width:4; stroke-opacity:1; fill:none" points="216.365,388.723 235.263,388.723 "/>
<polyline clip-path="url(#clip940)" style="stroke:#000000; stroke-linecap:round; stroke-linejoin:round; stroke-width:4; stroke-opacity:1; fill:none" points="216.365,72.1871 235.263,72.1871 "/>
<path clip-path="url(#clip940)" d="M168.421 1324.13 Q164.81 1324.13 162.981 1327.69 Q161.176 1331.24 161.176 1338.37 Q161.176 1345.47 162.981 1349.04 Q164.81 1352.58 168.421 1352.58 Q172.055 1352.58 173.861 1349.04 Q175.69 1345.47 175.69 1338.37 Q175.69 1331.24 173.861 1327.69 Q172.055 1324.13 168.421 1324.13 M168.421 1320.43 Q174.231 1320.43 177.287 1325.03 Q180.365 1329.62 180.365 1338.37 Q180.365 1347.09 177.287 1351.7 Q174.231 1356.28 168.421 1356.28 Q162.611 1356.28 159.532 1351.7 Q156.477 1347.09 156.477 1338.37 Q156.477 1329.62 159.532 1325.03 Q162.611 1320.43 168.421 1320.43 Z" fill="#000000" fill-rule="nonzero" fill-opacity="1" /><path clip-path="url(#clip940)" d="M133.282 1035.14 L149.602 1035.14 L149.602 1039.08 L127.657 1039.08 L127.657 1035.14 Q130.319 1032.39 134.903 1027.76 Q139.509 1023.1 140.69 1021.76 Q142.935 1019.24 143.815 1017.5 Q144.717 1015.74 144.717 1014.05 Q144.717 1011.3 142.773 1009.56 Q140.852 1007.83 137.75 1007.83 Q135.551 1007.83 133.097 1008.59 Q130.667 1009.35 127.889 1010.9 L127.889 1006.18 Q130.713 1005.05 133.167 1004.47 Q135.62 1003.89 137.657 1003.89 Q143.028 1003.89 146.222 1006.58 Q149.417 1009.26 149.417 1013.75 Q149.417 1015.88 148.606 1017.8 Q147.819 1019.7 145.713 1022.29 Q145.134 1022.96 142.032 1026.18 Q138.93 1029.38 133.282 1035.14 Z" fill="#000000" fill-rule="nonzero" fill-opacity="1" /><path clip-path="url(#clip940)" d="M159.463 1004.52 L177.819 1004.52 L177.819 1008.45 L163.745 1008.45 L163.745 1016.92 Q164.764 1016.58 165.782 1016.41 Q166.801 1016.23 167.819 1016.23 Q173.606 1016.23 176.986 1019.4 Q180.365 1022.57 180.365 1027.99 Q180.365 1033.57 176.893 1036.67 Q173.421 1039.75 167.102 1039.75 Q164.926 1039.75 162.657 1039.38 Q160.412 1039.01 158.004 1038.27 L158.004 1033.57 Q160.088 1034.7 162.31 1035.26 Q164.532 1035.81 167.009 1035.81 Q171.014 1035.81 173.352 1033.7 Q175.69 1031.6 175.69 1027.99 Q175.69 1024.38 173.352 1022.27 Q171.014 1020.16 167.009 1020.16 Q165.134 1020.16 163.259 1020.58 Q161.407 1021 159.463 1021.88 L159.463 1004.52 Z" fill="#000000" fill-rule="nonzero" fill-opacity="1" /><path clip-path="url(#clip940)" d="M128.306 687.979 L146.662 687.979 L146.662 691.914 L132.588 691.914 L132.588 700.387 Q133.606 700.039 134.625 699.877 Q135.643 699.692 136.662 699.692 Q142.449 699.692 145.829 702.863 Q149.208 706.035 149.208 711.451 Q149.208 717.03 145.736 720.132 Q142.264 723.21 135.944 723.21 Q133.768 723.21 131.5 722.84 Q129.255 722.47 126.847 721.729 L126.847 717.03 Q128.931 718.164 131.153 718.72 Q133.375 719.275 135.852 719.275 Q139.856 719.275 142.194 717.169 Q144.532 715.062 144.532 711.451 Q144.532 707.84 142.194 705.734 Q139.856 703.627 135.852 703.627 Q133.977 703.627 132.102 704.044 Q130.25 704.461 128.306 705.34 L128.306 687.979 Z" fill="#000000" fill-rule="nonzero" fill-opacity="1" /><path clip-path="url(#clip940)" d="M168.421 691.058 Q164.81 691.058 162.981 694.623 Q161.176 698.164 161.176 705.294 Q161.176 712.4 162.981 715.965 Q164.81 719.507 168.421 719.507 Q172.055 719.507 173.861 715.965 Q175.69 712.4 175.69 705.294 Q175.69 698.164 173.861 694.623 Q172.055 691.058 168.421 691.058 M168.421 687.354 Q174.231 687.354 177.287 691.961 Q180.365 696.544 180.365 705.294 Q180.365 714.021 177.287 718.627 Q174.231 723.21 168.421 723.21 Q162.611 723.21 159.532 718.627 Q156.477 714.021 156.477 705.294 Q156.477 696.544 159.532 691.961 Q162.611 687.354 168.421 687.354 Z" fill="#000000" fill-rule="nonzero" fill-opacity="1" /><path clip-path="url(#clip940)" d="M128.074 371.443 L150.296 371.443 L150.296 373.434 L137.75 406.003 L132.866 406.003 L144.671 375.378 L128.074 375.378 L128.074 371.443 Z" fill="#000000" fill-rule="nonzero" fill-opacity="1" /><path clip-path="url(#clip940)" d="M159.463 371.443 L177.819 371.443 L177.819 375.378 L163.745 375.378 L163.745 383.851 Q164.764 383.503 165.782 383.341 Q166.801 383.156 167.819 383.156 Q173.606 383.156 176.986 386.327 Q180.365 389.499 180.365 394.915 Q180.365 400.494 176.893 403.596 Q173.421 406.674 167.102 406.674 Q164.926 406.674 162.657 406.304 Q160.412 405.934 158.004 405.193 L158.004 400.494 Q160.088 401.628 162.31 402.184 Q164.532 402.739 167.009 402.739 Q171.014 402.739 173.352 400.633 Q175.69 398.526 175.69 394.915 Q175.69 391.304 173.352 389.198 Q171.014 387.091 167.009 387.091 Q165.134 387.091 163.259 387.508 Q161.407 387.925 159.463 388.804 L159.463 371.443 Z" fill="#000000" fill-rule="nonzero" fill-opacity="1" /><path clip-path="url(#clip940)" d="M98.9075 85.532 L106.546 85.532 L106.546 59.1664 L98.2362 60.833 L98.2362 56.5738 L106.5 54.9071 L111.176 54.9071 L111.176 85.532 L118.815 85.532 L118.815 89.4671 L98.9075 89.4671 L98.9075 85.532 Z" fill="#000000" fill-rule="nonzero" fill-opacity="1" /><path clip-path="url(#clip940)" d="M138.259 57.9858 Q134.648 57.9858 132.819 61.5506 Q131.014 65.0923 131.014 72.2219 Q131.014 79.3283 132.819 82.8931 Q134.648 86.4347 138.259 86.4347 Q141.893 86.4347 143.699 82.8931 Q145.528 79.3283 145.528 72.2219 Q145.528 65.0923 143.699 61.5506 Q141.893 57.9858 138.259 57.9858 M138.259 54.2821 Q144.069 54.2821 147.125 58.8886 Q150.204 63.4719 150.204 72.2219 Q150.204 80.9487 147.125 85.5551 Q144.069 90.1384 138.259 90.1384 Q132.449 90.1384 129.37 85.5551 Q126.315 80.9487 126.315 72.2219 Q126.315 63.4719 129.37 58.8886 Q132.449 54.2821 138.259 54.2821 Z" fill="#000000" fill-rule="nonzero" fill-opacity="1" /><path clip-path="url(#clip940)" d="M168.421 57.9858 Q164.81 57.9858 162.981 61.5506 Q161.176 65.0923 161.176 72.2219 Q161.176 79.3283 162.981 82.8931 Q164.81 86.4347 168.421 86.4347 Q172.055 86.4347 173.861 82.8931 Q175.69 79.3283 175.69 72.2219 Q175.69 65.0923 173.861 61.5506 Q172.055 57.9858 168.421 57.9858 M168.421 54.2821 Q174.231 54.2821 177.287 58.8886 Q180.365 63.4719 180.365 72.2219 Q180.365 80.9487 177.287 85.5551 Q174.231 90.1384 168.421 90.1384 Q162.611 90.1384 159.532 85.5551 Q156.477 80.9487 156.477 72.2219 Q156.477 63.4719 159.532 58.8886 Q162.611 54.2821 168.421 54.2821 Z" fill="#000000" fill-rule="nonzero" fill-opacity="1" /><polyline clip-path="url(#clip942)" style="stroke:#009af9; stroke-linecap:round; stroke-linejoin:round; stroke-width:8; stroke-opacity:1; fill:none" points="216.365,84.8486 218.504,85.6094 220.642,86.4134 222.781,87.2631 224.92,88.161 227.058,89.1096 229.197,90.1119 231.335,91.1707 233.474,92.2891 235.612,93.4703 237.751,94.7178 239.889,96.035 242.028,97.4259 244.166,98.8942 246.305,100.444 248.443,102.08 250.582,103.806 252.72,105.627 254.859,107.548 256.997,109.574 259.136,111.711 261.275,113.964 263.413,116.339 265.552,118.842 267.69,121.478 269.829,124.256 271.967,127.198 274.106,130.313 276.244,133.578 278.383,136.973 280.521,140.481 282.66,144.088 284.798,147.784 286.937,151.561 289.075,155.415 291.214,159.344 293.352,163.349 295.491,167.431 297.63,171.59 299.768,175.827 301.907,180.143 304.045,184.539 306.184,189.014 308.322,193.569 310.461,198.206 312.599,202.923 314.738,207.704 316.876,212.527 319.015,217.376 321.153,222.24 323.292,227.116 325.43,232.007 327.569,236.922 329.707,241.876 331.846,246.893 333.985,252 336.123,257.233 338.262,262.634 340.4,268.249 342.539,274.134 344.677,280.35 346.816,286.963 348.954,294.047 351.093,301.683 353.231,309.957 355.37,318.961 357.508,328.796 359.647,339.568 361.785,350.711 363.924,361.256 366.062,371.238 368.201,380.742 370.339,389.89 372.478,398.845 374.617,407.809 376.755,417.02 378.894,426.759 381.032,437.343 383.171,449.129 385.309,462.505 387.448,477.382 389.586,492.988 391.725,508.697 393.863,524.101 396.002,539.008 398.14,553.443 400.279,567.615 402.417,581.528 404.556,595.148 406.694,608.473 408.833,621.503 410.972,634.238 413.11,646.683 415.249,658.843 417.387,670.725 419.526,682.351 421.664,693.837 423.803,705.299 425.941,716.816 428.08,728.42 430.218,740.104 432.357,751.817 434.495,763.466 436.634,774.915 438.772,785.986 440.911,796.504 443.049,806.623 445.188,816.305 447.327,825.571 449.465,834.591 451.604,843.69 453.742,853.327 455.881,863.487 458.019,874.377 460.158,886.226 462.296,898.947 464.435,912.136 466.573,925.073 468.712,936.819 470.85,947.58 472.989,957.396 475.127,966.195 477.266,974.07 479.404,981.283 481.543,988.26 483.682,995.212 485.82,1001.98 487.959,1008.59 490.097,1015.06 492.236,1021.42 494.374,1027.65 496.513,1033.77 498.651,1039.79 500.79,1045.72 502.928,1051.54 505.067,1057.23 507.205,1062.77 509.344,1068.17 511.482,1073.43 513.621,1078.57 515.759,1083.6 517.898,1088.55 520.037,1093.46 522.175,1098.38 524.314,1103.34 526.452,1108.32 528.591,1113.32 530.729,1118.31 532.868,1123.31 535.006,1128.3 537.145,1133.27 539.283,1138.22 541.422,1143.15 543.56,1148.06 545.699,1152.92 547.837,1157.75 549.976,1162.54 552.114,1167.27 554.253,1171.95 556.392,1176.57 558.53,1181.13 560.669,1185.62 562.807,1190.04 564.946,1194.38 567.084,1198.65 569.223,1202.83 571.361,1206.94 573.5,1210.95 575.638,1214.88 577.777,1218.72 579.915,1222.46 582.054,1226.12 584.192,1229.67 586.331,1233.13 588.469,1236.49 590.608,1239.76 592.747,1242.93 594.885,1246.01 597.024,1249 599.162,1251.89 601.301,1254.7 603.439,1257.42 605.578,1260.05 607.716,1262.6 609.855,1265.07 611.993,1267.46 614.132,1269.77 616.27,1272.01 618.409,1274.16 620.547,1276.25 622.686,1278.27 624.824,1280.21 626.963,1282.09 629.102,1283.91 631.24,1285.66 633.379,1287.35 635.517,1288.99 637.656,1290.56 639.794,1292.08 641.933,1293.55 644.071,1294.96 646.21,1296.32 648.348,1297.64 650.487,1298.9 652.625,1300.12 654.764,1301.3 656.902,1302.43 659.041,1303.51 661.179,1304.56 663.318,1305.57 665.457,1306.54 667.595,1307.47 669.734,1308.37 671.872,1309.24 674.011,1310.07 676.149,1310.87 678.288,1311.64 680.426,1312.38 682.565,1313.09 684.703,1313.77 686.842,1314.43 688.98,1315.07 691.119,1315.68 693.257,1316.27 695.396,1316.83 697.534,1317.38 699.673,1317.9 701.811,1318.4 703.95,1318.89 706.089,1319.36 708.227,1319.81 710.366,1320.24 712.504,1320.66 714.643,1321.06 716.781,1321.45 718.92,1321.82 721.058,1322.18 723.197,1322.53 725.335,1322.86 727.474,1323.19 729.612,1323.51 731.751,1323.81 733.889,1324.11 736.028,1324.4 738.166,1324.68 740.305,1324.96 742.444,1325.23 744.582,1325.49 746.721,1325.74 748.859,1325.99 750.998,1326.23 753.136,1326.46 755.275,1326.69 757.413,1326.92 759.552,1327.14 761.69,1327.36 763.829,1327.57 765.967,1327.78 768.106,1327.98 770.244,1328.18 772.383,1328.38 774.521,1328.57 776.66,1328.76 778.799,1328.94 780.937,1329.13 783.076,1329.31 785.214,1329.48 787.353,1329.66 789.491,1329.83 791.63,1330 793.768,1330.16 795.907,1330.32 798.045,1330.48 800.184,1330.64 802.322,1330.79 804.461,1330.94 806.599,1331.09 808.738,1331.23 810.876,1331.38 813.015,1331.53 815.154,1331.68 817.292,1331.82 819.431,1331.97 821.569,1332.11 823.708,1332.25 825.846,1332.39 827.985,1332.53 830.123,1332.67 832.262,1332.81 834.4,1332.94 836.539,1333.08 838.677,1333.21 840.816,1333.34 842.954,1333.47 845.093,1333.6 847.231,1333.73 849.37,1333.85 851.509,1333.97 853.647,1334.09 855.786,1334.21 857.924,1334.33 860.063,1334.45 862.201,1334.57 864.34,1334.68 866.478,1334.79 868.617,1334.9 870.755,1335.01 872.894,1335.11 875.032,1335.21 877.171,1335.31 879.309,1335.4 881.448,1335.49 883.586,1335.58 885.725,1335.66 887.864,1335.74 890.002,1335.82 892.141,1335.9 894.279,1335.97 896.418,1336.03 898.556,1336.1 900.695,1336.16 902.833,1336.22 904.972,1336.27 907.11,1336.33 909.249,1336.38 911.387,1336.42 913.526,1336.47 915.664,1336.51 917.803,1336.55 919.941,1336.59 922.08,1336.63 924.219,1336.67 926.357,1336.71 928.496,1336.74 930.634,1336.78 932.773,1336.81 934.911,1336.84 937.05,1336.87 939.188,1336.9 941.327,1336.92 943.465,1336.95 945.604,1336.97 947.742,1337 949.881,1337.02 952.019,1337.05 954.158,1337.07 956.296,1337.09 958.435,1337.11 960.574,1337.13 962.712,1337.16 964.851,1337.18 966.989,1337.2 969.128,1337.22 971.266,1337.24 973.405,1337.26 975.543,1337.28 977.682,1337.3 979.82,1337.31 981.959,1337.33 984.097,1337.35 986.236,1337.37 988.374,1337.39 990.513,1337.4 992.651,1337.42 994.79,1337.44 996.929,1337.46 999.067,1337.47 1001.21,1337.49 1003.34,1337.51 1005.48,1337.52 1007.62,1337.54 1009.76,1337.55 1011.9,1337.57 1014.04,1337.58 1016.18,1337.6 1018.31,1337.61 1020.45,1337.63 1022.59,1337.64 1024.73,1337.65 1026.87,1337.67 1029.01,1337.68 1031.14,1337.69 1033.28,1337.71 1035.42,1337.72 1037.56,1337.73 1039.7,1337.74 1041.84,1337.75 1043.98,1337.77 1046.11,1337.78 1048.25,1337.79 1050.39,1337.8 1052.53,1337.81 1054.67,1337.82 1056.81,1337.83 1058.95,1337.84 1061.08,1337.85 1063.22,1337.86 1065.36,1337.87 1067.5,1337.88 1069.64,1337.88 1071.78,1337.89 1073.92,1337.9 1076.05,1337.91 1078.19,1337.92 1080.33,1337.93 1082.47,1337.93 1084.61,1337.94 1086.75,1337.95 1088.89,1337.95 1091.02,1337.96 1093.16,1337.97 1095.3,1337.98 1097.44,1337.98 1099.58,1337.99 1101.72,1337.99 1103.85,1338 1105.99,1338.01 1108.13,1338.01 1110.27,1338.02 1112.41,1338.02 1114.55,1338.03 1116.69,1338.03 1118.82,1338.04 1120.96,1338.04 1123.1,1338.05 1125.24,1338.05 1127.38,1338.06 1129.52,1338.06 1131.66,1338.07 1133.79,1338.07 1135.93,1338.08 1138.07,1338.08 1140.21,1338.09 1142.35,1338.09 1144.49,1338.09 1146.63,1338.1 1148.76,1338.1 1150.9,1338.11 1153.04,1338.11 1155.18,1338.11 1157.32,1338.12 1159.46,1338.12 1161.6,1338.13 1163.73,1338.13 1165.87,1338.13 1168.01,1338.14 1170.15,1338.14 1172.29,1338.14 1174.43,1338.15 1176.56,1338.15 1178.7,1338.15 1180.84,1338.16 1182.98,1338.16 1185.12,1338.16 1187.26,1338.17 1189.4,1338.17 1191.53,1338.17 1193.67,1338.17 1195.81,1338.18 1197.95,1338.18 1200.09,1338.18 1202.23,1338.18 1204.37,1338.19 1206.5,1338.19 1208.64,1338.19 1210.78,1338.19 1212.92,1338.2 1215.06,1338.2 1217.2,1338.2 1219.34,1338.2 1221.47,1338.21 1223.61,1338.21 1225.75,1338.21 1227.89,1338.21 1230.03,1338.22 1232.17,1338.22 1234.31,1338.22 1236.44,1338.22 1238.58,1338.22 1240.72,1338.23 1242.86,1338.23 1245,1338.23 1247.14,1338.23 1249.27,1338.23 1251.41,1338.23 1253.55,1338.24 1255.69,1338.24 1257.83,1338.24 1259.97,1338.24 1262.11,1338.24 1264.24,1338.24 1266.38,1338.25 1268.52,1338.25 1270.66,1338.25 1272.8,1338.25 1274.94,1338.25 1277.08,1338.25 1279.21,1338.25 1281.35,1338.26 1283.49,1338.26 1285.63,1338.26 1287.77,1338.26 1289.91,1338.26 1292.05,1338.26 1294.18,1338.26 1296.32,1338.27 1298.46,1338.27 1300.6,1338.27 1302.74,1338.27 1304.88,1338.27 1307.02,1338.27 1309.15,1338.27 1311.29,1338.27 1313.43,1338.27 1315.57,1338.28 1317.71,1338.28 1319.85,1338.28 1321.98,1338.28 1324.12,1338.28 1326.26,1338.28 1328.4,1338.28 1330.54,1338.28 1332.68,1338.28 1334.82,1338.28 1336.95,1338.28 1339.09,1338.29 1341.23,1338.29 1343.37,1338.29 1345.51,1338.29 1347.65,1338.29 1349.79,1338.29 1351.92,1338.29 1354.06,1338.29 1356.2,1338.29 1358.34,1338.29 1360.48,1338.29 1362.62,1338.29 1364.76,1338.29 1366.89,1338.3 1369.03,1338.3 1371.17,1338.3 1373.31,1338.3 1375.45,1338.3 1377.59,1338.3 1379.73,1338.3 1381.86,1338.3 1384,1338.3 1386.14,1338.3 1388.28,1338.3 1390.42,1338.3 1392.56,1338.3 1394.69,1338.3 1396.83,1338.3 1398.97,1338.3 1401.11,1338.3 1403.25,1338.3 1405.39,1338.31 1407.53,1338.31 1409.66,1338.31 1411.8,1338.31 1413.94,1338.31 1416.08,1338.31 1418.22,1338.31 1420.36,1338.31 1422.5,1338.31 1424.63,1338.31 1426.77,1338.31 1428.91,1338.31 1431.05,1338.31 1433.19,1338.31 1435.33,1338.31 1437.47,1338.31 1439.6,1338.31 1441.74,1338.31 1443.88,1338.31 1446.02,1338.31 1448.16,1338.31 1450.3,1338.31 1452.44,1338.31 1454.57,1338.31 1456.71,1338.31 1458.85,1338.31 1460.99,1338.32 1463.13,1338.32 1465.27,1338.32 1467.4,1338.32 1469.54,1338.32 1471.68,1338.32 1473.82,1338.32 1475.96,1338.32 1478.1,1338.32 1480.24,1338.32 1482.37,1338.32 1484.51,1338.32 1486.65,1338.32 1488.79,1338.32 1490.93,1338.32 1493.07,1338.32 1495.21,1338.32 1497.34,1338.32 1499.48,1338.32 1501.62,1338.32 1503.76,1338.32 1505.9,1338.32 1508.04,1338.32 1510.18,1338.32 1512.31,1338.32 1514.45,1338.32 1516.59,1338.32 1518.73,1338.32 1520.87,1338.32 1523.01,1338.32 1525.15,1338.32 1527.28,1338.32 1529.42,1338.32 1531.56,1338.32 1533.7,1338.32 1535.84,1338.32 1537.98,1338.32 1540.11,1338.32 1542.25,1338.32 1544.39,1338.32 1546.53,1338.32 1548.67,1338.32 1550.81,1338.32 1552.95,1338.32 1555.08,1338.32 1557.22,1338.32 1559.36,1338.32 1561.5,1338.32 1563.64,1338.32 1565.78,1338.32 1567.92,1338.32 1570.05,1338.32 1572.19,1338.32 1574.33,1338.32 1576.47,1338.32 1578.61,1338.32 1580.75,1338.32 1582.89,1338.32 1585.02,1338.32 1587.16,1338.32 1589.3,1338.32 1591.44,1338.32 1593.58,1338.32 1595.72,1338.32 1597.86,1338.32 1599.99,1338.33 1602.13,1338.33 1604.27,1338.33 1606.41,1338.33 1608.55,1338.33 1610.69,1338.33 1612.82,1338.33 1614.96,1338.33 1617.1,1338.33 1619.24,1338.33 1621.38,1338.33 1623.52,1338.33 1625.66,1338.33 1627.79,1338.33 1629.93,1338.33 1632.07,1338.33 1634.21,1338.33 1636.35,1338.33 1638.49,1338.33 1640.63,1338.33 1642.76,1338.33 1644.9,1338.33 1647.04,1338.33 1649.18,1338.33 1651.32,1338.33 1653.46,1338.33 1655.6,1338.33 1657.73,1338.33 1659.87,1338.33 1662.01,1338.33 1664.15,1338.33 1666.29,1338.33 1668.43,1338.33 1670.57,1338.33 1672.7,1338.33 1674.84,1338.33 1676.98,1338.33 1679.12,1338.33 1681.26,1338.33 1683.4,1338.33 1685.53,1338.33 1687.67,1338.33 1689.81,1338.33 1691.95,1338.33 1694.09,1338.33 1696.23,1338.33 1698.37,1338.33 1700.5,1338.33 1702.64,1338.33 1704.78,1338.33 1706.92,1338.33 1709.06,1338.33 1711.2,1338.33 1713.34,1338.33 1715.47,1338.33 1717.61,1338.33 1719.75,1338.33 1721.89,1338.33 1724.03,1338.33 1726.17,1338.33 1728.31,1338.33 1730.44,1338.33 1732.58,1338.33 1734.72,1338.33 1736.86,1338.33 1739,1338.33 1741.14,1338.33 1743.28,1338.33 1745.41,1338.33 1747.55,1338.33 1749.69,1338.33 1751.83,1338.33 1753.97,1338.33 1756.11,1338.33 1758.24,1338.33 1760.38,1338.33 1762.52,1338.33 1764.66,1338.33 1766.8,1338.33 1768.94,1338.33 1771.08,1338.33 1773.21,1338.33 1775.35,1338.33 1777.49,1338.33 1779.63,1338.33 1781.77,1338.33 1783.91,1338.33 1786.05,1338.33 1788.18,1338.33 1790.32,1338.33 1792.46,1338.33 1794.6,1338.33 1796.74,1338.33 1798.88,1338.33 1801.02,1338.33 1803.15,1338.33 1805.29,1338.33 1807.43,1338.33 1809.57,1338.33 1811.71,1338.33 1813.85,1338.33 1815.99,1338.33 1818.12,1338.33 1820.26,1338.33 1822.4,1338.33 1824.54,1338.33 1826.68,1338.33 1828.82,1338.33 1830.95,1338.33 1833.09,1338.33 1835.23,1338.33 1837.37,1338.33 1839.51,1338.33 1841.65,1338.33 1843.79,1338.33 1845.92,1338.33 1848.06,1338.33 1850.2,1338.33 1852.34,1338.33 1854.48,1338.33 1856.62,1338.33 1858.76,1338.33 1860.89,1338.33 1863.03,1338.33 1865.17,1338.33 1867.31,1338.33 1869.45,1338.33 1871.59,1338.33 1873.73,1338.33 1875.86,1338.33 1878,1338.33 1880.14,1338.33 1882.28,1338.33 1884.42,1338.33 1886.56,1338.33 1888.7,1338.33 1890.83,1338.33 1892.97,1338.33 1895.11,1338.33 1897.25,1338.33 1899.39,1338.33 1901.53,1338.33 1903.66,1338.33 1905.8,1338.33 1907.94,1338.33 1910.08,1338.33 1912.22,1338.33 1914.36,1338.33 1916.5,1338.33 1918.63,1338.33 1920.77,1338.33 1922.91,1338.33 1925.05,1338.33 1927.19,1338.33 1929.33,1338.33 1931.47,1338.33 1933.6,1338.33 1935.74,1338.33 1937.88,1338.33 1940.02,1338.33 1942.16,1338.33 1944.3,1338.33 1946.44,1338.33 1948.57,1338.33 1950.71,1338.33 1952.85,1338.33 1954.99,1338.33 1957.13,1338.33 1959.27,1338.33 1961.41,1338.33 1963.54,1338.33 1965.68,1338.33 1967.82,1338.33 1969.96,1338.33 1972.1,1338.33 1974.24,1338.33 1976.37,1338.33 1978.51,1338.33 1980.65,1338.33 1982.79,1338.33 1984.93,1338.33 1987.07,1338.33 1989.21,1338.33 1991.34,1338.33 1993.48,1338.33 1995.62,1338.33 1997.76,1338.33 1999.9,1338.33 2002.04,1338.33 2004.18,1338.33 2006.31,1338.33 2008.45,1338.33 2010.59,1338.33 2012.73,1338.33 2014.87,1338.33 2017.01,1338.33 2019.15,1338.33 2021.28,1338.33 2023.42,1338.33 2025.56,1338.33 2027.7,1338.33 2029.84,1338.33 2031.98,1338.33 2034.12,1338.33 2036.25,1338.33 2038.39,1338.33 2040.53,1338.33 2042.67,1338.33 2044.81,1338.33 2046.95,1338.33 2049.08,1338.33 2051.22,1338.33 2053.36,1338.33 2055.5,1338.33 2057.64,1338.33 2059.78,1338.33 2061.92,1338.33 2064.05,1338.33 2066.19,1338.33 2068.33,1338.33 2070.47,1338.33 2072.61,1338.33 2074.75,1338.33 2076.89,1338.33 2079.02,1338.33 2081.16,1338.33 2083.3,1338.33 2085.44,1338.33 2087.58,1338.33 2089.72,1338.33 2091.86,1338.33 2093.99,1338.33 2096.13,1338.33 2098.27,1338.33 2100.41,1338.33 2102.55,1338.33 2104.69,1338.33 2106.83,1338.33 2108.96,1338.33 2111.1,1338.33 2113.24,1338.33 2115.38,1338.33 2117.52,1338.33 2119.66,1338.33 2121.79,1338.33 2123.93,1338.33 2126.07,1338.33 2128.21,1338.33 2130.35,1338.33 2132.49,1338.33 2134.63,1338.33 2136.76,1338.33 2138.9,1338.33 2141.04,1338.33 2143.18,1338.33 2145.32,1338.33 2147.46,1338.33 2149.6,1338.33 2151.73,1338.33 2153.87,1338.33 2156.01,1338.33 2158.15,1338.33 2160.29,1338.33 2162.43,1338.33 2164.57,1338.33 2166.7,1338.33 2168.84,1338.33 2170.98,1338.33 2173.12,1338.33 2175.26,1338.33 2177.4,1338.33 2179.54,1338.33 2181.67,1338.33 2183.81,1338.33 2185.95,1338.33 2188.09,1338.33 2190.23,1338.33 2192.37,1338.33 2194.5,1338.33 2196.64,1338.33 2198.78,1338.33 2200.92,1338.33 2203.06,1338.33 2205.2,1338.33 2207.34,1338.33 2209.47,1338.33 2211.61,1338.33 2213.75,1338.33 2215.89,1338.33 2218.03,1338.33 2220.17,1338.33 2222.31,1338.33 2224.44,1338.33 2226.58,1338.33 2228.72,1338.33 2230.86,1338.33 2233,1338.33 2235.14,1338.33 2237.28,1338.33 2239.41,1338.33 2241.55,1338.33 2243.69,1338.33 2245.83,1338.33 2247.97,1338.33 2250.11,1338.33 2252.25,1338.33 2254.38,1338.33 2256.52,1338.33 2258.66,1338.33 2260.8,1338.33 2262.94,1338.33 2265.08,1338.33 2267.21,1338.33 2269.35,1338.33 2271.49,1338.33 2273.63,1338.33 2275.77,1338.33 2277.91,1338.33 2280.05,1338.33 2282.18,1338.33 2284.32,1338.33 2286.46,1338.33 2288.6,1338.33 2290.74,1338.33 2292.88,1338.33 2295.02,1338.33 2297.15,1338.33 2299.29,1338.33 2301.43,1338.33 2303.57,1338.33 2305.71,1338.33 2307.85,1338.33 2309.99,1338.33 2312.12,1338.33 2314.26,1338.33 2316.4,1338.33 2318.54,1338.33 2320.68,1338.33 2322.82,1338.33 2324.96,1338.33 2327.09,1338.33 2329.23,1338.33 2331.37,1338.33 2333.51,1338.33 2335.65,1338.33 2337.79,1338.33 2339.92,1338.33 2342.06,1338.33 2344.2,1338.33 2346.34,1338.33 2348.48,1338.33 2350.62,1338.33 2352.76,1338.33 "/>
<polyline clip-path="url(#clip942)" style="stroke:#e26f46; stroke-linecap:round; stroke-linejoin:round; stroke-width:8; stroke-opacity:1; fill:none" points="216.365,1325.67 218.504,1324.94 220.642,1324.17 222.781,1323.36 224.92,1322.5 227.058,1321.59 229.197,1320.63 231.335,1319.62 233.474,1318.55 235.612,1317.42 237.751,1316.22 239.889,1314.96 242.028,1313.63 244.166,1312.23 246.305,1310.75 248.443,1309.18 250.582,1307.53 252.72,1305.79 254.859,1303.95 256.997,1302.01 259.136,1299.97 261.275,1297.82 263.413,1295.55 265.552,1293.15 267.69,1290.63 269.829,1287.98 271.967,1285.16 274.106,1282.19 276.244,1279.07 278.383,1275.82 280.521,1272.48 282.66,1269.04 284.798,1265.52 286.937,1261.93 289.075,1258.27 291.214,1254.55 293.352,1250.76 295.491,1246.9 297.63,1242.97 299.768,1238.98 301.907,1234.92 304.045,1230.79 306.184,1226.58 308.322,1222.31 310.461,1217.97 312.599,1213.56 314.738,1209.1 316.876,1204.61 319.015,1200.1 321.153,1195.59 323.292,1191.07 325.43,1186.55 327.569,1182.02 329.707,1177.46 331.846,1172.85 333.985,1168.16 336.123,1163.36 338.262,1158.4 340.4,1153.24 342.539,1147.82 344.677,1142.09 346.816,1135.98 348.954,1129.41 351.093,1122.31 353.231,1114.59 355.37,1106.16 357.508,1096.92 359.647,1086.77 361.785,1076.26 363.924,1066.39 366.062,1057.1 368.201,1048.31 370.339,1039.89 372.478,1031.69 374.617,1023.51 376.755,1015.1 378.894,1006.18 381.032,996.439 383.171,985.524 385.309,973.046 387.448,959.101 389.586,944.462 391.725,929.756 393.863,915.392 396.002,901.561 398.14,888.236 400.279,875.207 402.417,862.47 404.556,850.056 406.694,837.968 408.833,826.205 410.972,814.765 413.11,803.644 415.249,792.836 417.387,782.333 419.526,772.111 421.664,762.055 423.803,752.048 425.941,742.012 428.08,731.913 430.218,721.76 432.357,711.603 434.495,701.535 436.634,691.691 438.772,682.248 440.911,673.384 443.049,664.939 445.188,656.951 447.327,649.4 449.465,642.113 451.604,634.766 453.742,626.899 455.881,618.53 458.019,609.454 460.158,599.442 462.296,588.584 464.435,577.285 466.573,566.265 468.712,556.464 470.85,547.67 472.989,539.842 475.127,533.05 477.266,527.198 479.404,522.022 481.543,517.094 483.682,512.203 485.82,507.51 487.959,502.985 490.097,498.607 492.236,494.361 494.374,490.241 496.513,486.251 498.651,482.369 500.79,478.584 502.928,474.922 505.067,471.399 507.205,468.027 509.344,464.808 511.482,461.736 513.621,458.798 515.759,455.973 517.898,453.232 520.037,450.539 522.175,447.85 524.314,445.12 526.452,442.374 528.591,439.626 530.729,436.882 532.868,434.148 535.006,431.427 537.145,428.727 539.283,426.051 541.422,423.406 543.56,420.797 545.699,418.229 547.837,415.707 549.976,413.236 552.114,410.82 554.253,408.465 556.392,406.175 558.53,403.953 560.669,401.804 562.807,399.731 564.946,397.738 567.084,395.827 569.223,394.002 571.361,392.264 573.5,390.617 575.638,389.062 577.777,387.602 579.915,386.238 582.054,384.97 584.192,383.801 586.331,382.731 588.469,381.761 590.608,380.89 592.747,380.116 594.885,379.437 597.024,378.851 599.162,378.357 601.301,377.953 603.439,377.636 605.578,377.406 607.716,377.26 609.855,377.196 611.993,377.213 614.132,377.308 616.27,377.479 618.409,377.725 620.547,378.043 622.686,378.43 624.824,378.885 626.963,379.405 629.102,379.988 631.24,380.632 633.379,381.335 635.517,382.096 637.656,382.912 639.794,383.781 641.933,384.703 644.071,385.675 646.21,386.695 648.348,387.763 650.487,388.875 652.625,390.031 654.764,391.229 656.902,392.467 659.041,393.745 661.179,395.06 663.318,396.41 665.457,397.796 667.595,399.214 669.734,400.664 671.872,402.145 674.011,403.655 676.149,405.192 678.288,406.756 680.426,408.345 682.565,409.958 684.703,411.594 686.842,413.251 688.98,414.93 691.119,416.628 693.257,418.345 695.396,420.079 697.534,421.83 699.673,423.598 701.811,425.38 703.95,427.177 706.089,428.988 708.227,430.811 710.366,432.646 712.504,434.493 714.643,436.351 716.781,438.219 718.92,440.097 721.058,441.983 723.197,443.876 725.335,445.775 727.474,447.679 729.612,449.589 731.751,451.503 733.889,453.421 736.028,455.343 738.166,457.268 740.305,459.196 742.444,461.127 744.582,463.059 746.721,464.994 748.859,466.929 750.998,468.866 753.136,470.804 755.275,472.742 757.413,474.68 759.552,476.618 761.69,478.556 763.829,480.494 765.967,482.43 768.106,484.366 770.244,486.301 772.383,488.235 774.521,490.167 776.66,492.098 778.799,494.027 780.937,495.954 783.076,497.88 785.214,499.804 787.353,501.727 789.491,503.647 791.63,505.566 793.768,507.483 795.907,509.399 798.045,511.312 800.184,513.225 802.322,515.135 804.461,517.044 806.599,518.948 808.738,520.847 810.876,522.743 813.015,524.634 815.154,526.522 817.292,528.405 819.431,530.285 821.569,532.162 823.708,534.034 825.846,535.903 827.985,537.769 830.123,539.632 832.262,541.491 834.4,543.347 836.539,545.2 838.677,547.049 840.816,548.896 842.954,550.74 845.093,552.581 847.231,554.419 849.37,556.255 851.509,558.087 853.647,559.916 855.786,561.741 857.924,563.563 860.063,565.382 862.201,567.199 864.34,569.013 866.478,570.825 868.617,572.634 870.755,574.442 872.894,576.248 875.032,578.053 877.171,579.856 879.309,581.657 881.448,583.458 883.586,585.257 885.725,587.055 887.864,588.852 890.002,590.647 892.141,592.442 894.279,594.235 896.418,596.027 898.556,597.818 900.695,599.608 902.833,601.396 904.972,603.183 907.11,604.967 909.249,606.75 911.387,608.532 913.526,610.31 915.664,612.087 917.803,613.86 919.941,615.631 922.08,617.399 924.219,619.163 926.357,620.924 928.496,622.683 930.634,624.438 932.773,626.191 934.911,627.94 937.05,629.686 939.188,631.429 941.327,633.169 943.465,634.905 945.604,636.638 947.742,638.367 949.881,640.092 952.019,641.814 954.158,643.532 956.296,645.247 958.435,646.957 960.574,648.664 962.712,650.366 964.851,652.065 966.989,653.76 969.128,655.451 971.266,657.138 973.405,658.821 975.543,660.5 977.682,662.175 979.82,663.846 981.959,665.513 984.097,667.176 986.236,668.835 988.374,670.491 990.513,672.142 992.651,673.79 994.79,675.434 996.929,677.074 999.067,678.71 1001.21,680.342 1003.34,681.971 1005.48,683.595 1007.62,685.216 1009.76,686.833 1011.9,688.446 1014.04,690.056 1016.18,691.662 1018.31,693.263 1020.45,694.862 1022.59,696.456 1024.73,698.047 1026.87,699.633 1029.01,701.217 1031.14,702.796 1033.28,704.372 1035.42,705.944 1037.56,707.512 1039.7,709.077 1041.84,710.638 1043.98,712.195 1046.11,713.749 1048.25,715.299 1050.39,716.846 1052.53,718.388 1054.67,719.928 1056.81,721.463 1058.95,722.995 1061.08,724.524 1063.22,726.048 1065.36,727.57 1067.5,729.087 1069.64,730.601 1071.78,732.112 1073.92,733.618 1076.05,735.122 1078.19,736.621 1080.33,738.118 1082.47,739.61 1084.61,741.099 1086.75,742.584 1088.89,744.066 1091.02,745.545 1093.16,747.02 1095.3,748.491 1097.44,749.959 1099.58,751.423 1101.72,752.883 1103.85,754.341 1105.99,755.794 1108.13,757.244 1110.27,758.691 1112.41,760.134 1114.55,761.574 1116.69,763.01 1118.82,764.443 1120.96,765.872 1123.1,767.298 1125.24,768.72 1127.38,770.139 1129.52,771.555 1131.66,772.967 1133.79,774.375 1135.93,775.78 1138.07,777.182 1140.21,778.58 1142.35,779.975 1144.49,781.366 1146.63,782.754 1148.76,784.139 1150.9,785.52 1153.04,786.898 1155.18,788.272 1157.32,789.643 1159.46,791.011 1161.6,792.375 1163.73,793.736 1165.87,795.094 1168.01,796.448 1170.15,797.799 1172.29,799.146 1174.43,800.491 1176.56,801.832 1178.7,803.169 1180.84,804.504 1182.98,805.835 1185.12,807.163 1187.26,808.487 1189.4,809.809 1191.53,811.127 1193.67,812.442 1195.81,813.753 1197.95,815.062 1200.09,816.367 1202.23,817.669 1204.37,818.968 1206.5,820.263 1208.64,821.555 1210.78,822.845 1212.92,824.131 1215.06,825.413 1217.2,826.693 1219.34,827.969 1221.47,829.243 1223.61,830.513 1225.75,831.78 1227.89,833.044 1230.03,834.305 1232.17,835.562 1234.31,836.817 1236.44,838.068 1238.58,839.317 1240.72,840.562 1242.86,841.804 1245,843.043 1247.14,844.28 1249.27,845.513 1251.41,846.743 1253.55,847.969 1255.69,849.193 1257.83,850.414 1259.97,851.632 1262.11,852.847 1264.24,854.059 1266.38,855.268 1268.52,856.473 1270.66,857.676 1272.8,858.876 1274.94,860.073 1277.08,861.267 1279.21,862.458 1281.35,863.646 1283.49,864.831 1285.63,866.013 1287.77,867.192 1289.91,868.368 1292.05,869.542 1294.18,870.712 1296.32,871.88 1298.46,873.044 1300.6,874.206 1302.74,875.365 1304.88,876.521 1307.02,877.674 1309.15,878.825 1311.29,879.972 1313.43,881.116 1315.57,882.258 1317.71,883.397 1319.85,884.533 1321.98,885.666 1324.12,886.797 1326.26,887.924 1328.4,889.049 1330.54,890.171 1332.68,891.29 1334.82,892.407 1336.95,893.521 1339.09,894.631 1341.23,895.74 1343.37,896.845 1345.51,897.948 1347.65,899.048 1349.79,900.145 1351.92,901.239 1354.06,902.331 1356.2,903.42 1358.34,904.506 1360.48,905.59 1362.62,906.671 1364.76,907.749 1366.89,908.824 1369.03,909.897 1371.17,910.967 1373.31,912.035 1375.45,913.1 1377.59,914.162 1379.73,915.221 1381.86,916.278 1384,917.333 1386.14,918.384 1388.28,919.433 1390.42,920.48 1392.56,921.524 1394.69,922.565 1396.83,923.603 1398.97,924.64 1401.11,925.673 1403.25,926.704 1405.39,927.732 1407.53,928.758 1409.66,929.781 1411.8,930.802 1413.94,931.82 1416.08,932.836 1418.22,933.849 1420.36,934.859 1422.5,935.867 1424.63,936.873 1426.77,937.876 1428.91,938.876 1431.05,939.874 1433.19,940.87 1435.33,941.863 1437.47,942.853 1439.6,943.841 1441.74,944.827 1443.88,945.81 1446.02,946.791 1448.16,947.769 1450.3,948.745 1452.44,949.718 1454.57,950.689 1456.71,951.658 1458.85,952.624 1460.99,953.588 1463.13,954.549 1465.27,955.508 1467.4,956.465 1469.54,957.419 1471.68,958.37 1473.82,959.32 1475.96,960.267 1478.1,961.212 1480.24,962.154 1482.37,963.094 1484.51,964.032 1486.65,964.967 1488.79,965.9 1490.93,966.83 1493.07,967.759 1495.21,968.685 1497.34,969.608 1499.48,970.53 1501.62,971.449 1503.76,972.366 1505.9,973.28 1508.04,974.192 1510.18,975.102 1512.31,976.01 1514.45,976.915 1516.59,977.819 1518.73,978.719 1520.87,979.618 1523.01,980.514 1525.15,981.409 1527.28,982.301 1529.42,983.19 1531.56,984.078 1533.7,984.963 1535.84,985.846 1537.98,986.727 1540.11,987.606 1542.25,988.482 1544.39,989.356 1546.53,990.229 1548.67,991.098 1550.81,991.966 1552.95,992.832 1555.08,993.695 1557.22,994.557 1559.36,995.416 1561.5,996.273 1563.64,997.127 1565.78,997.98 1567.92,998.831 1570.05,999.679 1572.19,1000.53 1574.33,1001.37 1576.47,1002.21 1578.61,1003.05 1580.75,1003.89 1582.89,1004.73 1585.02,1005.56 1587.16,1006.39 1589.3,1007.22 1591.44,1008.05 1593.58,1008.87 1595.72,1009.7 1597.86,1010.52 1599.99,1011.34 1602.13,1012.15 1604.27,1012.97 1606.41,1013.78 1608.55,1014.59 1610.69,1015.4 1612.82,1016.21 1614.96,1017.02 1617.1,1017.82 1619.24,1018.62 1621.38,1019.42 1623.52,1020.22 1625.66,1021.01 1627.79,1021.8 1629.93,1022.59 1632.07,1023.38 1634.21,1024.17 1636.35,1024.96 1638.49,1025.74 1640.63,1026.52 1642.76,1027.3 1644.9,1028.08 1647.04,1028.85 1649.18,1029.63 1651.32,1030.4 1653.46,1031.17 1655.6,1031.93 1657.73,1032.7 1659.87,1033.46 1662.01,1034.23 1664.15,1034.99 1666.29,1035.74 1668.43,1036.5 1670.57,1037.25 1672.7,1038.01 1674.84,1038.76 1676.98,1039.51 1679.12,1040.25 1681.26,1041 1683.4,1041.74 1685.53,1042.48 1687.67,1043.22 1689.81,1043.96 1691.95,1044.7 1694.09,1045.43 1696.23,1046.16 1698.37,1046.89 1700.5,1047.62 1702.64,1048.35 1704.78,1049.07 1706.92,1049.79 1709.06,1050.52 1711.2,1051.23 1713.34,1051.95 1715.47,1052.67 1717.61,1053.38 1719.75,1054.09 1721.89,1054.8 1724.03,1055.51 1726.17,1056.22 1728.31,1056.92 1730.44,1057.63 1732.58,1058.33 1734.72,1059.03 1736.86,1059.73 1739,1060.42 1741.14,1061.12 1743.28,1061.81 1745.41,1062.5 1747.55,1063.19 1749.69,1063.88 1751.83,1064.57 1753.97,1065.25 1756.11,1065.93 1758.24,1066.61 1760.38,1067.29 1762.52,1067.97 1764.66,1068.64 1766.8,1069.32 1768.94,1069.99 1771.08,1070.66 1773.21,1071.33 1775.35,1072 1777.49,1072.66 1779.63,1073.33 1781.77,1073.99 1783.91,1074.65 1786.05,1075.31 1788.18,1075.97 1790.32,1076.62 1792.46,1077.28 1794.6,1077.93 1796.74,1078.58 1798.88,1079.23 1801.02,1079.88 1803.15,1080.52 1805.29,1081.17 1807.43,1081.81 1809.57,1082.45 1811.71,1083.09 1813.85,1083.73 1815.99,1084.36 1818.12,1085 1820.26,1085.63 1822.4,1086.26 1824.54,1086.89 1826.68,1087.52 1828.82,1088.15 1830.95,1088.77 1833.09,1089.4 1835.23,1090.02 1837.37,1090.64 1839.51,1091.26 1841.65,1091.88 1843.79,1092.49 1845.92,1093.11 1848.06,1093.72 1850.2,1094.33 1852.34,1094.94 1854.48,1095.55 1856.62,1096.16 1858.76,1096.76 1860.89,1097.37 1863.03,1097.97 1865.17,1098.57 1867.31,1099.17 1869.45,1099.77 1871.59,1100.36 1873.73,1100.96 1875.86,1101.55 1878,1102.14 1880.14,1102.73 1882.28,1103.32 1884.42,1103.91 1886.56,1104.49 1888.7,1105.08 1890.83,1105.66 1892.97,1106.24 1895.11,1106.82 1897.25,1107.4 1899.39,1107.98 1901.53,1108.56 1903.66,1109.13 1905.8,1109.7 1907.94,1110.27 1910.08,1110.84 1912.22,1111.41 1914.36,1111.98 1916.5,1112.55 1918.63,1113.11 1920.77,1113.67 1922.91,1114.23 1925.05,1114.79 1927.19,1115.35 1929.33,1115.91 1931.47,1116.47 1933.6,1117.02 1935.74,1117.57 1937.88,1118.13 1940.02,1118.68 1942.16,1119.22 1944.3,1119.77 1946.44,1120.32 1948.57,1120.86 1950.71,1121.41 1952.85,1121.95 1954.99,1122.49 1957.13,1123.03 1959.27,1123.57 1961.41,1124.1 1963.54,1124.64 1965.68,1125.17 1967.82,1125.71 1969.96,1126.24 1972.1,1126.77 1974.24,1127.3 1976.37,1127.82 1978.51,1128.35 1980.65,1128.88 1982.79,1129.4 1984.93,1129.92 1987.07,1130.44 1989.21,1130.96 1991.34,1131.48 1993.48,1132 1995.62,1132.51 1997.76,1133.03 1999.9,1133.54 2002.04,1134.05 2004.18,1134.56 2006.31,1135.07 2008.45,1135.58 2010.59,1136.09 2012.73,1136.59 2014.87,1137.1 2017.01,1137.6 2019.15,1138.1 2021.28,1138.6 2023.42,1139.1 2025.56,1139.6 2027.7,1140.09 2029.84,1140.59 2031.98,1141.08 2034.12,1141.58 2036.25,1142.07 2038.39,1142.56 2040.53,1143.05 2042.67,1143.54 2044.81,1144.02 2046.95,1144.51 2049.08,1144.99 2051.22,1145.48 2053.36,1145.96 2055.5,1146.44 2057.64,1146.92 2059.78,1147.4 2061.92,1147.88 2064.05,1148.35 2066.19,1148.83 2068.33,1149.3 2070.47,1149.77 2072.61,1150.24 2074.75,1150.71 2076.89,1151.18 2079.02,1151.65 2081.16,1152.12 2083.3,1152.58 2085.44,1153.05 2087.58,1153.51 2089.72,1153.97 2091.86,1154.43 2093.99,1154.89 2096.13,1155.35 2098.27,1155.81 2100.41,1156.26 2102.55,1156.72 2104.69,1157.17 2106.83,1157.63 2108.96,1158.08 2111.1,1158.53 2113.24,1158.98 2115.38,1159.43 2117.52,1159.87 2119.66,1160.32 2121.79,1160.76 2123.93,1161.21 2126.07,1161.65 2128.21,1162.09 2130.35,1162.53 2132.49,1162.97 2134.63,1163.41 2136.76,1163.85 2138.9,1164.28 2141.04,1164.72 2143.18,1165.15 2145.32,1165.59 2147.46,1166.02 2149.6,1166.45 2151.73,1166.88 2153.87,1167.31 2156.01,1167.73 2158.15,1168.16 2160.29,1168.58 2162.43,1169.01 2164.57,1169.43 2166.7,1169.85 2168.84,1170.28 2170.98,1170.7 2173.12,1171.11 2175.26,1171.53 2177.4,1171.95 2179.54,1172.37 2181.67,1172.78 2183.81,1173.19 2185.95,1173.61 2188.09,1174.02 2190.23,1174.43 2192.37,1174.84 2194.5,1175.25 2196.64,1175.65 2198.78,1176.06 2200.92,1176.47 2203.06,1176.87 2205.2,1177.27 2207.34,1177.68 2209.47,1178.08 2211.61,1178.48 2213.75,1178.88 2215.89,1179.28 2218.03,1179.68 2220.17,1180.07 2222.31,1180.47 2224.44,1180.86 2226.58,1181.26 2228.72,1181.65 2230.86,1182.04 2233,1182.43 2235.14,1182.82 2237.28,1183.21 2239.41,1183.6 2241.55,1183.98 2243.69,1184.37 2245.83,1184.75 2247.97,1185.14 2250.11,1185.52 2252.25,1185.9 2254.38,1186.28 2256.52,1186.66 2258.66,1187.04 2260.8,1187.42 2262.94,1187.8 2265.08,1188.17 2267.21,1188.55 2269.35,1188.92 2271.49,1189.3 2273.63,1189.67 2275.77,1190.04 2277.91,1190.41 2280.05,1190.78 2282.18,1191.15 2284.32,1191.52 2286.46,1191.88 2288.6,1192.25 2290.74,1192.62 2292.88,1192.98 2295.02,1193.34 2297.15,1193.71 2299.29,1194.07 2301.43,1194.43 2303.57,1194.79 2305.71,1195.15 2307.85,1195.5 2309.99,1195.86 2312.12,1196.22 2314.26,1196.57 2316.4,1196.93 2318.54,1197.28 2320.68,1197.63 2322.82,1197.98 2324.96,1198.34 2327.09,1198.68 2329.23,1199.03 2331.37,1199.38 2333.51,1199.73 2335.65,1200.08 2337.79,1200.42 2339.92,1200.77 2342.06,1201.11 2344.2,1201.45 2346.34,1201.8 2348.48,1202.14 2350.62,1202.48 2352.76,1202.82 "/>
<polyline clip-path="url(#clip942)" style="stroke:#3da44d; stroke-linecap:round; stroke-linejoin:round; stroke-width:8; stroke-opacity:1; fill:none" points="216.365,1338.33 218.504,1338.3 220.642,1338.26 222.781,1338.23 224.92,1338.19 227.058,1338.15 229.197,1338.11 231.335,1338.06 233.474,1338.01 235.612,1337.96 237.751,1337.91 239.889,1337.85 242.028,1337.79 244.166,1337.73 246.305,1337.66 248.443,1337.59 250.582,1337.51 252.72,1337.43 254.859,1337.35 256.997,1337.26 259.136,1337.17 261.275,1337.07 263.413,1336.97 265.552,1336.86 267.69,1336.74 269.829,1336.62 271.967,1336.49 274.106,1336.35 276.244,1336.21 278.383,1336.05 280.521,1335.89 282.66,1335.72 284.798,1335.55 286.937,1335.36 289.075,1335.16 291.214,1334.96 293.352,1334.74 295.491,1334.52 297.63,1334.29 299.768,1334.04 301.907,1333.79 304.045,1333.53 306.184,1333.25 308.322,1332.97 310.461,1332.67 312.599,1332.36 314.738,1332.05 316.876,1331.72 319.015,1331.37 321.153,1331.02 323.292,1330.66 325.43,1330.29 327.569,1329.91 329.707,1329.51 331.846,1329.1 333.985,1328.69 336.123,1328.26 338.262,1327.82 340.4,1327.36 342.539,1326.89 344.677,1326.41 346.816,1325.91 348.954,1325.39 351.093,1324.86 353.231,1324.3 355.37,1323.73 357.508,1323.13 359.647,1322.52 361.785,1321.87 363.924,1321.21 366.062,1320.51 368.201,1319.8 370.339,1319.07 372.478,1318.31 374.617,1317.53 376.755,1316.73 378.894,1315.91 381.032,1315.07 383.171,1314.2 385.309,1313.3 387.448,1312.37 389.586,1311.4 391.725,1310.4 393.863,1309.36 396.002,1308.28 398.14,1307.17 400.279,1306.03 402.417,1304.85 404.556,1303.65 406.694,1302.41 408.833,1301.14 410.972,1299.85 413.11,1298.52 415.249,1297.17 417.387,1295.79 419.526,1294.39 421.664,1292.96 423.803,1291.5 425.941,1290.02 428.08,1288.52 430.218,1286.99 432.357,1285.43 434.495,1283.85 436.634,1282.24 438.772,1280.62 440.911,1278.96 443.049,1277.29 445.188,1275.59 447.327,1273.88 449.465,1272.15 451.604,1270.39 453.742,1268.62 455.881,1266.83 458.019,1265.02 460.158,1263.18 462.296,1261.32 464.435,1259.43 466.573,1257.51 468.712,1255.57 470.85,1253.6 472.989,1251.61 475.127,1249.6 477.266,1247.58 479.404,1245.55 481.543,1243.5 483.682,1241.43 485.82,1239.36 487.959,1237.28 490.097,1235.18 492.236,1233.07 494.374,1230.96 496.513,1228.83 498.651,1226.69 500.79,1224.55 502.928,1222.39 505.067,1220.22 507.205,1218.05 509.344,1215.87 511.482,1213.68 513.621,1211.48 515.759,1209.28 517.898,1207.07 520.037,1204.85 522.175,1202.62 524.314,1200.39 526.452,1198.15 528.591,1195.91 530.729,1193.65 532.868,1191.39 535.006,1189.13 537.145,1186.85 539.283,1184.57 541.422,1182.29 543.56,1180 545.699,1177.7 547.837,1175.39 549.976,1173.08 552.114,1170.76 554.253,1168.44 556.392,1166.11 558.53,1163.77 560.669,1161.43 562.807,1159.08 564.946,1156.73 567.084,1154.38 569.223,1152.01 571.361,1149.65 573.5,1147.28 575.638,1144.91 577.777,1142.53 579.915,1140.15 582.054,1137.76 584.192,1135.38 586.331,1132.99 588.469,1130.59 590.608,1128.2 592.747,1125.8 594.885,1123.4 597.024,1121 599.162,1118.6 601.301,1116.2 603.439,1113.79 605.578,1111.39 607.716,1108.99 609.855,1106.58 611.993,1104.17 614.132,1101.77 616.27,1099.37 618.409,1096.96 620.547,1094.56 622.686,1092.15 624.824,1089.75 626.963,1087.35 629.102,1084.95 631.24,1082.56 633.379,1080.16 635.517,1077.77 637.656,1075.37 639.794,1072.98 641.933,1070.6 644.071,1068.21 646.21,1065.83 648.348,1063.45 650.487,1061.07 652.625,1058.7 654.764,1056.33 656.902,1053.96 659.041,1051.59 661.179,1049.23 663.318,1046.87 665.457,1044.51 667.595,1042.16 669.734,1039.81 671.872,1037.47 674.011,1035.13 676.149,1032.79 678.288,1030.46 680.426,1028.13 682.565,1025.8 684.703,1023.48 686.842,1021.17 688.98,1018.85 691.119,1016.54 693.257,1014.24 695.396,1011.94 697.534,1009.64 699.673,1007.35 701.811,1005.07 703.95,1002.78 706.089,1000.51 708.227,998.232 710.366,995.963 712.504,993.699 714.643,991.439 716.781,989.184 718.92,986.934 721.058,984.689 723.197,982.448 725.335,980.212 727.474,977.981 729.612,975.755 731.751,973.533 733.889,971.317 736.028,969.105 738.166,966.898 740.305,964.695 742.444,962.498 744.582,960.305 746.721,958.117 748.859,955.934 750.998,953.756 753.136,951.583 755.275,949.414 757.413,947.251 759.552,945.092 761.69,942.938 763.829,940.788 765.967,938.644 768.106,936.504 770.244,934.37 772.383,932.24 774.521,930.115 776.66,927.994 778.799,925.879 780.937,923.768 783.076,921.663 785.214,919.562 787.353,917.465 789.491,915.374 791.63,913.288 793.768,911.206 795.907,909.129 798.045,907.057 800.184,904.99 802.322,902.927 804.461,900.87 806.599,898.817 808.738,896.769 810.876,894.725 813.015,892.687 815.154,890.653 817.292,888.623 819.431,886.599 821.569,884.579 823.708,882.564 825.846,880.554 827.985,878.548 830.123,876.547 832.262,874.55 834.4,872.559 836.539,870.572 838.677,868.589 840.816,866.611 842.954,864.638 845.093,862.669 847.231,860.705 849.37,858.746 851.509,856.791 853.647,854.841 855.786,852.895 857.924,850.954 860.063,849.017 862.201,847.085 864.34,845.158 866.478,843.235 868.617,841.316 870.755,839.402 872.894,837.493 875.032,835.588 877.171,833.688 879.309,831.792 881.448,829.901 883.586,828.014 885.725,826.132 887.864,824.254 890.002,822.381 892.141,820.512 894.279,818.647 896.418,816.788 898.556,814.932 900.695,813.081 902.833,811.235 904.972,809.393 907.11,807.555 909.249,805.722 911.387,803.894 913.526,802.07 915.664,800.25 917.803,798.435 919.941,796.624 922.08,794.818 924.219,793.016 926.357,791.218 928.496,789.425 930.634,787.636 932.773,785.852 934.911,784.072 937.05,782.297 939.188,780.525 941.327,778.758 943.465,776.996 945.604,775.238 947.742,773.484 949.881,771.734 952.019,769.989 954.158,768.248 956.296,766.512 958.435,764.779 960.574,763.051 962.712,761.328 964.851,759.608 966.989,757.893 969.128,756.182 971.266,754.475 973.405,752.772 975.543,751.074 977.682,749.38 979.82,747.69 981.959,746.004 984.097,744.322 986.236,742.645 988.374,740.972 990.513,739.302 992.651,737.637 994.79,735.976 996.929,734.32 999.067,732.667 1001.21,731.018 1003.34,729.374 1005.48,727.733 1007.62,726.097 1009.76,724.464 1011.9,722.836 1014.04,721.212 1016.18,719.591 1018.31,717.975 1020.45,716.363 1022.59,714.754 1024.73,713.15 1026.87,711.55 1029.01,709.953 1031.14,708.361 1033.28,706.773 1035.42,705.188 1037.56,703.607 1039.7,702.031 1041.84,700.458 1043.98,698.889 1046.11,697.324 1048.25,695.763 1050.39,694.206 1052.53,692.653 1054.67,691.103 1056.81,689.557 1058.95,688.016 1061.08,686.478 1063.22,684.944 1065.36,683.413 1067.5,681.887 1069.64,680.364 1071.78,678.845 1073.92,677.33 1076.05,675.818 1078.19,674.311 1080.33,672.807 1082.47,671.307 1084.61,669.81 1086.75,668.318 1088.89,666.829 1091.02,665.343 1093.16,663.862 1095.3,662.384 1097.44,660.909 1099.58,659.439 1101.72,657.972 1103.85,656.509 1105.99,655.049 1108.13,653.593 1110.27,652.141 1112.41,650.692 1114.55,649.247 1116.69,647.805 1118.82,646.367 1120.96,644.933 1123.1,643.502 1125.24,642.075 1127.38,640.651 1129.52,639.231 1131.66,637.815 1133.79,636.402 1135.93,634.992 1138.07,633.586 1140.21,632.183 1142.35,630.784 1144.49,629.389 1146.63,627.997 1148.76,626.608 1150.9,625.223 1153.04,623.841 1155.18,622.463 1157.32,621.088 1159.46,619.717 1161.6,618.349 1163.73,616.984 1165.87,615.623 1168.01,614.265 1170.15,612.911 1172.29,611.56 1174.43,610.212 1176.56,608.868 1178.7,607.527 1180.84,606.19 1182.98,604.855 1185.12,603.525 1187.26,602.197 1189.4,600.873 1191.53,599.552 1193.67,598.234 1195.81,596.92 1197.95,595.609 1200.09,594.301 1202.23,592.996 1204.37,591.695 1206.5,590.397 1208.64,589.102 1210.78,587.81 1212.92,586.522 1215.06,585.237 1217.2,583.955 1219.34,582.676 1221.47,581.4 1223.61,580.128 1225.75,578.859 1227.89,577.593 1230.03,576.33 1232.17,575.07 1234.31,573.813 1236.44,572.56 1238.58,571.309 1240.72,570.062 1242.86,568.818 1245,567.577 1247.14,566.339 1249.27,565.104 1251.41,563.873 1253.55,562.644 1255.69,561.418 1257.83,560.196 1259.97,558.976 1262.11,557.76 1264.24,556.546 1266.38,555.336 1268.52,554.129 1270.66,552.924 1272.8,551.723 1274.94,550.525 1277.08,549.329 1279.21,548.137 1281.35,546.948 1283.49,545.761 1285.63,544.578 1287.77,543.397 1289.91,542.22 1292.05,541.045 1294.18,539.873 1296.32,538.705 1298.46,537.539 1300.6,536.376 1302.74,535.216 1304.88,534.059 1307.02,532.905 1309.15,531.753 1311.29,530.605 1313.43,529.459 1315.57,528.316 1317.71,527.176 1319.85,526.039 1321.98,524.905 1324.12,523.774 1326.26,522.645 1328.4,521.519 1330.54,520.397 1332.68,519.276 1334.82,518.159 1336.95,517.045 1339.09,515.933 1341.23,514.824 1343.37,513.718 1345.51,512.614 1347.65,511.514 1349.79,510.416 1351.92,509.32 1354.06,508.228 1356.2,507.138 1358.34,506.051 1360.48,504.967 1362.62,503.885 1364.76,502.806 1366.89,501.73 1369.03,500.657 1371.17,499.586 1373.31,498.518 1375.45,497.452 1377.59,496.389 1379.73,495.329 1381.86,494.272 1384,493.217 1386.14,492.165 1388.28,491.115 1390.42,490.068 1392.56,489.024 1394.69,487.982 1396.83,486.943 1398.97,485.906 1401.11,484.872 1403.25,483.841 1405.39,482.812 1407.53,481.786 1409.66,480.762 1411.8,479.741 1413.94,478.723 1416.08,477.706 1418.22,476.693 1420.36,475.682 1422.5,474.674 1424.63,473.668 1426.77,472.664 1428.91,471.663 1431.05,470.665 1433.19,469.669 1435.33,468.676 1437.47,467.685 1439.6,466.696 1441.74,465.71 1443.88,464.727 1446.02,463.746 1448.16,462.767 1450.3,461.791 1452.44,460.817 1454.57,459.846 1456.71,458.877 1458.85,457.911 1460.99,456.947 1463.13,455.985 1465.27,455.026 1467.4,454.069 1469.54,453.115 1471.68,452.163 1473.82,451.213 1475.96,450.266 1478.1,449.321 1480.24,448.378 1482.37,447.438 1484.51,446.5 1486.65,445.565 1488.79,444.631 1490.93,443.701 1493.07,442.772 1495.21,441.846 1497.34,440.922 1499.48,440 1501.62,439.081 1503.76,438.164 1505.9,437.249 1508.04,436.337 1510.18,435.427 1512.31,434.519 1514.45,433.613 1516.59,432.71 1518.73,431.809 1520.87,430.91 1523.01,430.014 1525.15,429.119 1527.28,428.227 1529.42,427.337 1531.56,426.45 1533.7,425.564 1535.84,424.681 1537.98,423.8 1540.11,422.921 1542.25,422.045 1544.39,421.17 1546.53,420.298 1548.67,419.428 1550.81,418.56 1552.95,417.695 1555.08,416.831 1557.22,415.97 1559.36,415.111 1561.5,414.253 1563.64,413.399 1565.78,412.546 1567.92,411.695 1570.05,410.847 1572.19,410 1574.33,409.156 1576.47,408.314 1578.61,407.474 1580.75,406.636 1582.89,405.8 1585.02,404.966 1587.16,404.134 1589.3,403.304 1591.44,402.477 1593.58,401.651 1595.72,400.828 1597.86,400.007 1599.99,399.187 1602.13,398.37 1604.27,397.555 1606.41,396.742 1608.55,395.93 1610.69,395.121 1612.82,394.314 1614.96,393.509 1617.1,392.706 1619.24,391.905 1621.38,391.106 1623.52,390.309 1625.66,389.514 1627.79,388.72 1629.93,387.929 1632.07,387.14 1634.21,386.353 1636.35,385.568 1638.49,384.785 1640.63,384.003 1642.76,383.224 1644.9,382.447 1647.04,381.671 1649.18,380.898 1651.32,380.126 1653.46,379.356 1655.6,378.589 1657.73,377.823 1659.87,377.059 1662.01,376.297 1664.15,375.537 1666.29,374.779 1668.43,374.023 1670.57,373.268 1672.7,372.516 1674.84,371.765 1676.98,371.016 1679.12,370.269 1681.26,369.524 1683.4,368.781 1685.53,368.04 1687.67,367.301 1689.81,366.563 1691.95,365.827 1694.09,365.093 1696.23,364.361 1698.37,363.631 1700.5,362.903 1702.64,362.176 1704.78,361.451 1706.92,360.728 1709.06,360.007 1711.2,359.288 1713.34,358.57 1715.47,357.854 1717.61,357.14 1719.75,356.428 1721.89,355.718 1724.03,355.009 1726.17,354.302 1728.31,353.597 1730.44,352.894 1732.58,352.192 1734.72,351.492 1736.86,350.794 1739,350.098 1741.14,349.403 1743.28,348.711 1745.41,348.019 1747.55,347.33 1749.69,346.642 1751.83,345.956 1753.97,345.272 1756.11,344.59 1758.24,343.909 1760.38,343.23 1762.52,342.552 1764.66,341.876 1766.8,341.202 1768.94,340.53 1771.08,339.859 1773.21,339.19 1775.35,338.523 1777.49,337.857 1779.63,337.193 1781.77,336.531 1783.91,335.87 1786.05,335.211 1788.18,334.554 1790.32,333.898 1792.46,333.244 1794.6,332.592 1796.74,331.941 1798.88,331.292 1801.02,330.644 1803.15,329.998 1805.29,329.354 1807.43,328.711 1809.57,328.07 1811.71,327.43 1813.85,326.792 1815.99,326.156 1818.12,325.521 1820.26,324.888 1822.4,324.256 1824.54,323.626 1826.68,322.998 1828.82,322.371 1830.95,321.746 1833.09,321.122 1835.23,320.5 1837.37,319.879 1839.51,319.26 1841.65,318.643 1843.79,318.027 1845.92,317.412 1848.06,316.799 1850.2,316.188 1852.34,315.578 1854.48,314.97 1856.62,314.363 1858.76,313.758 1860.89,313.154 1863.03,312.552 1865.17,311.951 1867.31,311.352 1869.45,310.754 1871.59,310.158 1873.73,309.563 1875.86,308.97 1878,308.378 1880.14,307.787 1882.28,307.199 1884.42,306.611 1886.56,306.025 1888.7,305.441 1890.83,304.858 1892.97,304.276 1895.11,303.696 1897.25,303.118 1899.39,302.54 1901.53,301.965 1903.66,301.39 1905.8,300.818 1907.94,300.246 1910.08,299.676 1912.22,299.108 1914.36,298.54 1916.5,297.975 1918.63,297.41 1920.77,296.847 1922.91,296.286 1925.05,295.726 1927.19,295.167 1929.33,294.61 1931.47,294.054 1933.6,293.499 1935.74,292.946 1937.88,292.394 1940.02,291.844 1942.16,291.295 1944.3,290.747 1946.44,290.201 1948.57,289.656 1950.71,289.113 1952.85,288.571 1954.99,288.03 1957.13,287.49 1959.27,286.952 1961.41,286.415 1963.54,285.88 1965.68,285.346 1967.82,284.813 1969.96,284.282 1972.1,283.752 1974.24,283.223 1976.37,282.695 1978.51,282.169 1980.65,281.644 1982.79,281.121 1984.93,280.599 1987.07,280.078 1989.21,279.558 1991.34,279.04 1993.48,278.523 1995.62,278.007 1997.76,277.493 1999.9,276.98 2002.04,276.468 2004.18,275.957 2006.31,275.448 2008.45,274.94 2010.59,274.433 2012.73,273.928 2014.87,273.423 2017.01,272.92 2019.15,272.419 2021.28,271.918 2023.42,271.419 2025.56,270.921 2027.7,270.424 2029.84,269.929 2031.98,269.435 2034.12,268.942 2036.25,268.45 2038.39,267.959 2040.53,267.47 2042.67,266.982 2044.81,266.495 2046.95,266.01 2049.08,265.525 2051.22,265.042 2053.36,264.56 2055.5,264.079 2057.64,263.6 2059.78,263.121 2061.92,262.644 2064.05,262.168 2066.19,261.693 2068.33,261.219 2070.47,260.747 2072.61,260.276 2074.75,259.806 2076.89,259.337 2079.02,258.869 2081.16,258.402 2083.3,257.937 2085.44,257.473 2087.58,257.01 2089.72,256.548 2091.86,256.087 2093.99,255.627 2096.13,255.169 2098.27,254.711 2100.41,254.255 2102.55,253.8 2104.69,253.346 2106.83,252.893 2108.96,252.442 2111.1,251.991 2113.24,251.542 2115.38,251.094 2117.52,250.646 2119.66,250.2 2121.79,249.755 2123.93,249.312 2126.07,248.869 2128.21,248.427 2130.35,247.987 2132.49,247.547 2134.63,247.109 2136.76,246.672 2138.9,246.236 2141.04,245.801 2143.18,245.367 2145.32,244.934 2147.46,244.502 2149.6,244.072 2151.73,243.642 2153.87,243.214 2156.01,242.786 2158.15,242.36 2160.29,241.934 2162.43,241.51 2164.57,241.087 2166.7,240.665 2168.84,240.244 2170.98,239.824 2173.12,239.405 2175.26,238.987 2177.4,238.57 2179.54,238.154 2181.67,237.739 2183.81,237.325 2185.95,236.913 2188.09,236.501 2190.23,236.09 2192.37,235.681 2194.5,235.272 2196.64,234.864 2198.78,234.458 2200.92,234.052 2203.06,233.648 2205.2,233.244 2207.34,232.842 2209.47,232.44 2211.61,232.04 2213.75,231.64 2215.89,231.241 2218.03,230.844 2220.17,230.447 2222.31,230.052 2224.44,229.657 2226.58,229.264 2228.72,228.871 2230.86,228.479 2233,228.089 2235.14,227.699 2237.28,227.311 2239.41,226.923 2241.55,226.536 2243.69,226.15 2245.83,225.765 2247.97,225.382 2250.11,224.999 2252.25,224.617 2254.38,224.236 2256.52,223.856 2258.66,223.477 2260.8,223.099 2262.94,222.721 2265.08,222.345 2267.21,221.97 2269.35,221.596 2271.49,221.222 2273.63,220.85 2275.77,220.478 2277.91,220.107 2280.05,219.738 2282.18,219.369 2284.32,219.001 2286.46,218.634 2288.6,218.268 2290.74,217.903 2292.88,217.539 2295.02,217.176 2297.15,216.813 2299.29,216.452 2301.43,216.091 2303.57,215.731 2305.71,215.373 2307.85,215.015 2309.99,214.658 2312.12,214.302 2314.26,213.947 2316.4,213.592 2318.54,213.239 2320.68,212.886 2322.82,212.535 2324.96,212.184 2327.09,211.834 2329.23,211.485 2331.37,211.137 2333.51,210.789 2335.65,210.443 2337.79,210.097 2339.92,209.753 2342.06,209.409 2344.2,209.066 2346.34,208.724 2348.48,208.383 2350.62,208.042 2352.76,207.703 "/>
<path clip-path="url(#clip940)" d="M287.578 298.894 L528.139 298.894 L528.139 91.5338 L287.578 91.5338  Z" fill="#ffffff" fill-rule="evenodd" fill-opacity="1"/>
<polyline clip-path="url(#clip940)" style="stroke:#000000; stroke-linecap:round; stroke-linejoin:round; stroke-width:4; stroke-opacity:1; fill:none" points="287.578,298.894 528.139,298.894 528.139,91.5338 287.578,91.5338 287.578,298.894 "/>
<polyline clip-path="url(#clip940)" style="stroke:#009af9; stroke-linecap:round; stroke-linejoin:round; stroke-width:8; stroke-opacity:1; fill:none" points="311.316,143.374 453.742,143.374 "/>
<path clip-path="url(#clip940)" d="M499.725 127.228 L499.725 131.788 Q497.063 130.515 494.702 129.89 Q492.341 129.265 490.142 129.265 Q486.322 129.265 484.239 130.747 Q482.179 132.228 482.179 134.96 Q482.179 137.251 483.545 138.432 Q484.933 139.589 488.776 140.307 L491.6 140.885 Q496.832 141.881 499.308 144.404 Q501.808 146.904 501.808 151.117 Q501.808 156.14 498.429 158.733 Q495.072 161.325 488.568 161.325 Q486.114 161.325 483.336 160.77 Q480.582 160.214 477.619 159.126 L477.619 154.311 Q480.466 155.908 483.197 156.719 Q485.929 157.529 488.568 157.529 Q492.572 157.529 494.748 155.955 Q496.924 154.381 496.924 151.464 Q496.924 148.918 495.35 147.483 Q493.799 146.047 490.234 145.33 L487.387 144.774 Q482.156 143.733 479.818 141.51 Q477.48 139.288 477.48 135.33 Q477.48 130.747 480.697 128.108 Q483.938 125.469 489.609 125.469 Q492.04 125.469 494.563 125.909 Q497.086 126.348 499.725 127.228 Z" fill="#000000" fill-rule="nonzero" fill-opacity="1" /><polyline clip-path="url(#clip940)" style="stroke:#e26f46; stroke-linecap:round; stroke-linejoin:round; stroke-width:8; stroke-opacity:1; fill:none" points="311.316,195.214 453.742,195.214 "/>
<path clip-path="url(#clip940)" d="M477.48 177.934 L482.156 177.934 L482.156 212.494 L477.48 212.494 L477.48 177.934 Z" fill="#000000" fill-rule="nonzero" fill-opacity="1" /><polyline clip-path="url(#clip940)" style="stroke:#3da44d; stroke-linecap:round; stroke-linejoin:round; stroke-width:8; stroke-opacity:1; fill:none" points="311.316,247.054 453.742,247.054 "/>
<path clip-path="url(#clip940)" d="M493.869 248.13 Q495.373 248.639 496.785 250.306 Q498.22 251.973 499.656 254.889 L504.401 264.334 L499.378 264.334 L494.957 255.468 Q493.244 251.996 491.623 250.862 Q490.026 249.727 487.248 249.727 L482.156 249.727 L482.156 264.334 L477.48 264.334 L477.48 229.774 L488.035 229.774 Q493.961 229.774 496.878 232.251 Q499.794 234.727 499.794 239.727 Q499.794 242.991 498.267 245.144 Q496.762 247.297 493.869 248.13 M482.156 233.616 L482.156 245.885 L488.035 245.885 Q491.415 245.885 493.128 244.334 Q494.864 242.76 494.864 239.727 Q494.864 236.695 493.128 235.167 Q491.415 233.616 488.035 233.616 L482.156 233.616 Z" fill="#000000" fill-rule="nonzero" fill-opacity="1" /></svg>
