<?xml version="1.0" encoding="utf-8"?>
<svg xmlns="http://www.w3.org/2000/svg" xmlns:xlink="http://www.w3.org/1999/xlink" width="600" height="400" viewBox="0 0 2400 1600">
<defs>
  <clipPath id="clip740">
    <rect x="0" y="0" width="2400" height="1600"/>
  </clipPath>
</defs>
<path clip-path="url(#clip740)" d="M0 1600 L2400 1600 L2400 0 L0 0  Z" fill="#ffffff" fill-rule="evenodd" fill-opacity="1"/>
<defs>
  <clipPath id="clip741">
    <rect x="141" y="47" width="2212" height="1377"/>
  </clipPath>
</defs>
<path clip-path="url(#clip740)" d="M141.853 1423.18 L2352.76 1423.18 L2352.76 47.2441 L141.853 47.2441  Z" fill="#ffffff" fill-rule="evenodd" fill-opacity="1"/>
<polyline clip-path="url(#clip741)" style="stroke:#000000; stroke-linecap:round; stroke-linejoin:round; stroke-width:2; stroke-opacity:0.1; fill:none" points="141.853,1423.18 141.853,47.2441 "/>
<polyline clip-path="url(#clip741)" style="stroke:#000000; stroke-linecap:round; stroke-linejoin:round; stroke-width:2; stroke-opacity:0.1; fill:none" points="694.579,1423.18 694.579,47.2441 "/>
<polyline clip-path="url(#clip741)" style="stroke:#000000; stroke-linecap:round; stroke-linejoin:round; stroke-width:2; stroke-opacity:0.1; fill:none" points="1247.3,1423.18 1247.3,47.2441 "/>
<polyline clip-path="url(#clip741)" style="stroke:#000000; stroke-linecap:round; stroke-linejoin:round; stroke-width:2; stroke-opacity:0.1; fill:none" points="1800.03,1423.18 1800.03,47.2441 "/>
<polyline clip-path="url(#clip741)" style="stroke:#000000; stroke-linecap:round; stroke-linejoin:round; stroke-width:2; stroke-opacity:0.1; fill:none" points="2352.76,1423.18 2352.76,47.2441 "/>
<polyline clip-path="url(#clip741)" style="stroke:#000000; stroke-linecap:round; stroke-linejoin:round; stroke-width:2; stroke-opacity:0.1; fill:none" points="141.853,1384.24 2352.76,1384.24 "/>
<polyline clip-path="url(#clip741)" style="stroke:#000000; stroke-linecap:round; stroke-linejoin:round; stroke-width:2; stroke-opacity:0.1; fill:none" points="141.853,1124.63 2352.76,1124.63 "/>
<polyline clip-path="url(#clip741)" style="stroke:#000000; stroke-linecap:round; stroke-linejoin:round; stroke-width:2; stroke-opacity:0.1; fill:none" points="141.853,865.017 2352.76,865.017 "/>
<polyline clip-path="url(#clip741)" style="stroke:#000000; stroke-linecap:round; stroke-linejoin:round; stroke-width:2; stroke-opacity:0.1; fill:none" points="141.853,605.407 2352.76,605.407 "/>
<polyline clip-path="url(#clip741)" style="stroke:#000000; stroke-linecap:round; stroke-linejoin:round; stroke-width:2; stroke-opacity:0.1; fill:none" points="141.853,345.796 2352.76,345.796 "/>
<polyline clip-path="url(#clip741)" style="stroke:#000000; stroke-linecap:round; stroke-linejoin:round; stroke-width:2; stroke-opacity:0.1; fill:none" points="141.853,86.1857 2352.76,86.1857 "/>
<polyline clip-path="url(#clip740)" style="stroke:#000000; stroke-linecap:round; stroke-linejoin:round; stroke-width:4; stroke-opacity:1; fill:none" points="141.853,1423.18 2352.76,1423.18 "/>
<polyline clip-path="url(#clip740)" style="stroke:#000000; stroke-linecap:round; stroke-linejoin:round; stroke-width:4; stroke-opacity:1; fill:none" points="141.853,1423.18 141.853,1404.28 "/>
<polyline clip-path="url(#clip740)" style="stroke:#000000; stroke-linecap:round; stroke-linejoin:round; stroke-width:4; stroke-opacity:1; fill:none" points="694.579,1423.18 694.579,1404.28 "/>
<polyline clip-path="url(#clip740)" style="stroke:#000000; stroke-linecap:round; stroke-linejoin:round; stroke-width:4; stroke-opacity:1; fill:none" points="1247.3,1423.18 1247.3,1404.28 "/>
<polyline clip-path="url(#clip740)" style="stroke:#000000; stroke-linecap:round; stroke-linejoin:round; stroke-width:4; stroke-opacity:1; fill:none" points="1800.03,1423.18 1800.03,1404.28 "/>
<polyline clip-path="url(#clip740)" style="stroke:#000000; stroke-linecap:round; stroke-linejoin:round; stroke-width:4; stroke-opacity:1; fill:none" points="2352.76,1423.18 2352.76,1404.28 "/>
<path clip-path="url(#clip740)" d="M141.853 1454.1 Q138.242 1454.1 136.413 1457.66 Q134.608 1461.2 134.608 1468.33 Q134.608 1475.44 136.413 1479.01 Q138.242 1482.55 141.853 1482.55 Q145.487 1482.55 147.293 1479.01 Q149.121 1475.44 149.121 1468.33 Q149.121 1461.2 147.293 1457.66 Q145.487 1454.1 141.853 1454.1 M141.853 1450.39 Q147.663 1450.39 150.719 1455 Q153.797 1459.58 153.797 1468.33 Q153.797 1477.06 150.719 1481.67 Q147.663 1486.25 141.853 1486.25 Q136.043 1486.25 132.964 1481.67 Q129.909 1477.06 129.909 1468.33 Q129.909 1459.58 132.964 1455 Q136.043 1450.39 141.853 1450.39 Z" fill="#000000" fill-rule="nonzero" fill-opacity="1" /><path clip-path="url(#clip740)" d="M669.278 1451.02 L687.634 1451.02 L687.634 1454.96 L673.56 1454.96 L673.56 1463.43 Q674.579 1463.08 675.597 1462.92 Q676.616 1462.73 677.634 1462.73 Q683.421 1462.73 686.801 1465.9 Q690.181 1469.08 690.181 1474.49 Q690.181 1480.07 686.708 1483.17 Q683.236 1486.25 676.917 1486.25 Q674.741 1486.25 672.472 1485.88 Q670.227 1485.51 667.82 1484.77 L667.82 1480.07 Q669.903 1481.2 672.125 1481.76 Q674.347 1482.32 676.824 1482.32 Q680.829 1482.32 683.167 1480.21 Q685.505 1478.1 685.505 1474.49 Q685.505 1470.88 683.167 1468.77 Q680.829 1466.67 676.824 1466.67 Q674.949 1466.67 673.074 1467.08 Q671.222 1467.5 669.278 1468.38 L669.278 1451.02 Z" fill="#000000" fill-rule="nonzero" fill-opacity="1" /><path clip-path="url(#clip740)" d="M709.393 1454.1 Q705.782 1454.1 703.954 1457.66 Q702.148 1461.2 702.148 1468.33 Q702.148 1475.44 703.954 1479.01 Q705.782 1482.55 709.393 1482.55 Q713.028 1482.55 714.833 1479.01 Q716.662 1475.44 716.662 1468.33 Q716.662 1461.2 714.833 1457.66 Q713.028 1454.1 709.393 1454.1 M709.393 1450.39 Q715.204 1450.39 718.259 1455 Q721.338 1459.58 721.338 1468.33 Q721.338 1477.06 718.259 1481.67 Q715.204 1486.25 709.393 1486.25 Q703.583 1486.25 700.505 1481.67 Q697.449 1477.06 697.449 1468.33 Q697.449 1459.58 700.505 1455 Q703.583 1450.39 709.393 1450.39 Z" fill="#000000" fill-rule="nonzero" fill-opacity="1" /><path clip-path="url(#clip740)" d="M1206.91 1481.64 L1214.55 1481.64 L1214.55 1455.28 L1206.24 1456.95 L1206.24 1452.69 L1214.5 1451.02 L1219.18 1451.02 L1219.18 1481.64 L1226.82 1481.64 L1226.82 1485.58 L1206.91 1485.58 L1206.91 1481.64 Z" fill="#000000" fill-rule="nonzero" fill-opacity="1" /><path clip-path="url(#clip740)" d="M1246.26 1454.1 Q1242.65 1454.1 1240.82 1457.66 Q1239.02 1461.2 1239.02 1468.33 Q1239.02 1475.44 1240.82 1479.01 Q1242.65 1482.55 1246.26 1482.55 Q1249.9 1482.55 1251.7 1479.01 Q1253.53 1475.44 1253.53 1468.33 Q1253.53 1461.2 1251.7 1457.66 Q1249.9 1454.1 1246.26 1454.1 M1246.26 1450.39 Q1252.07 1450.39 1255.13 1455 Q1258.21 1459.58 1258.21 1468.33 Q1258.21 1477.06 1255.13 1481.67 Q1252.07 1486.25 1246.26 1486.25 Q1240.45 1486.25 1237.37 1481.67 Q1234.32 1477.06 1234.32 1468.33 Q1234.32 1459.58 1237.37 1455 Q1240.45 1450.39 1246.26 1450.39 Z" fill="#000000" fill-rule="nonzero" fill-opacity="1" /><path clip-path="url(#clip740)" d="M1276.42 1454.1 Q1272.81 1454.1 1270.98 1457.66 Q1269.18 1461.2 1269.18 1468.33 Q1269.18 1475.44 1270.98 1479.01 Q1272.81 1482.55 1276.42 1482.55 Q1280.06 1482.55 1281.86 1479.01 Q1283.69 1475.44 1283.69 1468.33 Q1283.69 1461.2 1281.86 1457.66 Q1280.06 1454.1 1276.42 1454.1 M1276.42 1450.39 Q1282.23 1450.39 1285.29 1455 Q1288.37 1459.58 1288.37 1468.33 Q1288.37 1477.06 1285.29 1481.67 Q1282.23 1486.25 1276.42 1486.25 Q1270.61 1486.25 1267.54 1481.67 Q1264.48 1477.06 1264.48 1468.33 Q1264.48 1459.58 1267.54 1455 Q1270.61 1450.39 1276.42 1450.39 Z" fill="#000000" fill-rule="nonzero" fill-opacity="1" /><path clip-path="url(#clip740)" d="M1759.64 1481.64 L1767.28 1481.64 L1767.28 1455.28 L1758.97 1456.95 L1758.97 1452.69 L1767.23 1451.02 L1771.91 1451.02 L1771.91 1481.64 L1779.54 1481.64 L1779.54 1485.58 L1759.64 1485.58 L1759.64 1481.64 Z" fill="#000000" fill-rule="nonzero" fill-opacity="1" /><path clip-path="url(#clip740)" d="M1789.03 1451.02 L1807.39 1451.02 L1807.39 1454.96 L1793.32 1454.96 L1793.32 1463.43 Q1794.34 1463.08 1795.35 1462.92 Q1796.37 1462.73 1797.39 1462.73 Q1803.18 1462.73 1806.56 1465.9 Q1809.94 1469.08 1809.94 1474.49 Q1809.94 1480.07 1806.47 1483.17 Q1802.99 1486.25 1796.67 1486.25 Q1794.5 1486.25 1792.23 1485.88 Q1789.98 1485.51 1787.58 1484.77 L1787.58 1480.07 Q1789.66 1481.2 1791.88 1481.76 Q1794.1 1482.32 1796.58 1482.32 Q1800.59 1482.32 1802.92 1480.21 Q1805.26 1478.1 1805.26 1474.49 Q1805.26 1470.88 1802.92 1468.77 Q1800.59 1466.67 1796.58 1466.67 Q1794.71 1466.67 1792.83 1467.08 Q1790.98 1467.5 1789.03 1468.38 L1789.03 1451.02 Z" fill="#000000" fill-rule="nonzero" fill-opacity="1" /><path clip-path="url(#clip740)" d="M1829.15 1454.1 Q1825.54 1454.1 1823.71 1457.66 Q1821.91 1461.2 1821.91 1468.33 Q1821.91 1475.44 1823.71 1479.01 Q1825.54 1482.55 1829.15 1482.55 Q1832.78 1482.55 1834.59 1479.01 Q1836.42 1475.44 1836.42 1468.33 Q1836.42 1461.2 1834.59 1457.66 Q1832.78 1454.1 1829.15 1454.1 M1829.15 1450.39 Q1834.96 1450.39 1838.02 1455 Q1841.09 1459.58 1841.09 1468.33 Q1841.09 1477.06 1838.02 1481.67 Q1834.96 1486.25 1829.15 1486.25 Q1823.34 1486.25 1820.26 1481.67 Q1817.21 1477.06 1817.21 1468.33 Q1817.21 1459.58 1820.26 1455 Q1823.34 1450.39 1829.15 1450.39 Z" fill="#000000" fill-rule="nonzero" fill-opacity="1" /><path clip-path="url(#clip740)" d="M2316.45 1481.64 L2332.77 1481.64 L2332.77 1485.58 L2310.82 1485.58 L2310.82 1481.64 Q2313.49 1478.89 2318.07 1474.26 Q2322.68 1469.61 2323.86 1468.27 Q2326.1 1465.74 2326.98 1464.01 Q2327.88 1462.25 2327.88 1460.56 Q2327.88 1457.8 2325.94 1456.07 Q2324.02 1454.33 2320.92 1454.33 Q2318.72 1454.33 2316.26 1455.09 Q2313.83 1455.86 2311.05 1457.41 L2311.05 1452.69 Q2313.88 1451.55 2316.33 1450.97 Q2318.79 1450.39 2320.82 1450.39 Q2326.19 1450.39 2329.39 1453.08 Q2332.58 1455.77 2332.58 1460.26 Q2332.58 1462.39 2331.77 1464.31 Q2330.99 1466.2 2328.88 1468.8 Q2328.3 1469.47 2325.2 1472.69 Q2322.1 1475.88 2316.45 1481.64 Z" fill="#000000" fill-rule="nonzero" fill-opacity="1" /><path clip-path="url(#clip740)" d="M2352.58 1454.1 Q2348.97 1454.1 2347.14 1457.66 Q2345.34 1461.2 2345.34 1468.33 Q2345.34 1475.44 2347.14 1479.01 Q2348.97 1482.55 2352.58 1482.55 Q2356.22 1482.55 2358.02 1479.01 Q2359.85 1475.44 2359.85 1468.33 Q2359.85 1461.2 2358.02 1457.66 Q2356.22 1454.1 2352.58 1454.1 M2352.58 1450.39 Q2358.39 1450.39 2361.45 1455 Q2364.53 1459.58 2364.53 1468.33 Q2364.53 1477.06 2361.45 1481.67 Q2358.39 1486.25 2352.58 1486.25 Q2346.77 1486.25 2343.69 1481.67 Q2340.64 1477.06 2340.64 1468.33 Q2340.64 1459.58 2343.69 1455 Q2346.77 1450.39 2352.58 1450.39 Z" fill="#000000" fill-rule="nonzero" fill-opacity="1" /><path clip-path="url(#clip740)" d="M2382.74 1454.1 Q2379.13 1454.1 2377.3 1457.66 Q2375.5 1461.2 2375.5 1468.33 Q2375.5 1475.44 2377.3 1479.01 Q2379.13 1482.55 2382.74 1482.55 Q2386.38 1482.55 2388.18 1479.01 Q2390.01 1475.44 2390.01 1468.33 Q2390.01 1461.2 2388.18 1457.66 Q2386.38 1454.1 2382.74 1454.1 M2382.74 1450.39 Q2388.55 1450.39 2391.61 1455 Q2394.69 1459.58 2394.69 1468.33 Q2394.69 1477.06 2391.61 1481.67 Q2388.55 1486.25 2382.74 1486.25 Q2376.93 1486.25 2373.86 1481.67 Q2370.8 1477.06 2370.8 1468.33 Q2370.8 1459.58 2373.86 1455 Q2376.93 1450.39 2382.74 1450.39 Z" fill="#000000" fill-rule="nonzero" fill-opacity="1" /><path clip-path="url(#clip740)" d="M1246.37 1522.27 L1246.37 1532.4 L1258.43 1532.4 L1258.43 1536.95 L1246.37 1536.95 L1246.37 1556.3 Q1246.37 1560.66 1247.54 1561.9 Q1248.75 1563.14 1252.41 1563.14 L1258.43 1563.14 L1258.43 1568.04 L1252.41 1568.04 Q1245.63 1568.04 1243.06 1565.53 Q1240.48 1562.98 1240.48 1556.3 L1240.48 1536.95 L1236.18 1536.95 L1236.18 1532.4 L1240.48 1532.4 L1240.48 1522.27 L1246.37 1522.27 Z" fill="#000000" fill-rule="nonzero" fill-opacity="1" /><polyline clip-path="url(#clip740)" style="stroke:#000000; stroke-linecap:round; stroke-linejoin:round; stroke-width:4; stroke-opacity:1; fill:none" points="141.853,1423.18 141.853,47.2441 "/>
<polyline clip-path="url(#clip740)" style="stroke:#000000; stroke-linecap:round; stroke-linejoin:round; stroke-width:4; stroke-opacity:1; fill:none" points="141.853,1384.24 160.751,1384.24 "/>
<polyline clip-path="url(#clip740)" style="stroke:#000000; stroke-linecap:round; stroke-linejoin:round; stroke-width:4; stroke-opacity:1; fill:none" points="141.853,1124.63 160.751,1124.63 "/>
<polyline clip-path="url(#clip740)" style="stroke:#000000; stroke-linecap:round; stroke-linejoin:round; stroke-width:4; stroke-opacity:1; fill:none" points="141.853,865.017 160.751,865.017 "/>
<polyline clip-path="url(#clip740)" style="stroke:#000000; stroke-linecap:round; stroke-linejoin:round; stroke-width:4; stroke-opacity:1; fill:none" points="141.853,605.407 160.751,605.407 "/>
<polyline clip-path="url(#clip740)" style="stroke:#000000; stroke-linecap:round; stroke-linejoin:round; stroke-width:4; stroke-opacity:1; fill:none" points="141.853,345.796 160.751,345.796 "/>
<polyline clip-path="url(#clip740)" style="stroke:#000000; stroke-linecap:round; stroke-linejoin:round; stroke-width:4; stroke-opacity:1; fill:none" points="141.853,86.1857 160.751,86.1857 "/>
<path clip-path="url(#clip740)" d="M93.9086 1370.04 Q90.2975 1370.04 88.4688 1373.6 Q86.6632 1377.14 86.6632 1384.27 Q86.6632 1391.38 88.4688 1394.94 Q90.2975 1398.49 93.9086 1398.49 Q97.5428 1398.49 99.3483 1394.94 Q101.177 1391.38 101.177 1384.27 Q101.177 1377.14 99.3483 1373.6 Q97.5428 1370.04 93.9086 1370.04 M93.9086 1366.33 Q99.7187 1366.33 102.774 1370.94 Q105.853 1375.52 105.853 1384.27 Q105.853 1393 102.774 1397.61 Q99.7187 1402.19 93.9086 1402.19 Q88.0984 1402.19 85.0197 1397.61 Q81.9642 1393 81.9642 1384.27 Q81.9642 1375.52 85.0197 1370.94 Q88.0984 1366.33 93.9086 1366.33 Z" fill="#000000" fill-rule="nonzero" fill-opacity="1" /><path clip-path="url(#clip740)" d="M54.5569 1137.97 L62.1958 1137.97 L62.1958 1111.61 L53.8856 1113.27 L53.8856 1109.01 L62.1495 1107.35 L66.8254 1107.35 L66.8254 1137.97 L74.4642 1137.97 L74.4642 1141.91 L54.5569 1141.91 L54.5569 1137.97 Z" fill="#000000" fill-rule="nonzero" fill-opacity="1" /><path clip-path="url(#clip740)" d="M93.9086 1110.43 Q90.2975 1110.43 88.4688 1113.99 Q86.6632 1117.53 86.6632 1124.66 Q86.6632 1131.77 88.4688 1135.33 Q90.2975 1138.88 93.9086 1138.88 Q97.5428 1138.88 99.3483 1135.33 Q101.177 1131.77 101.177 1124.66 Q101.177 1117.53 99.3483 1113.99 Q97.5428 1110.43 93.9086 1110.43 M93.9086 1106.72 Q99.7187 1106.72 102.774 1111.33 Q105.853 1115.91 105.853 1124.66 Q105.853 1133.39 102.774 1138 Q99.7187 1142.58 93.9086 1142.58 Q88.0984 1142.58 85.0197 1138 Q81.9642 1133.39 81.9642 1124.66 Q81.9642 1115.91 85.0197 1111.33 Q88.0984 1106.72 93.9086 1106.72 Z" fill="#000000" fill-rule="nonzero" fill-opacity="1" /><path clip-path="url(#clip740)" d="M57.7745 878.362 L74.0939 878.362 L74.0939 882.297 L52.1495 882.297 L52.1495 878.362 Q54.8115 875.607 59.3949 870.978 Q64.0013 866.325 65.1819 864.983 Q67.4272 862.459 68.3068 860.723 Q69.2096 858.964 69.2096 857.274 Q69.2096 854.52 67.2652 852.783 Q65.3439 851.047 62.2421 851.047 Q60.043 851.047 57.5893 851.811 Q55.1588 852.575 52.381 854.126 L52.381 849.404 Q55.2051 848.27 57.6588 847.691 Q60.1124 847.112 62.1495 847.112 Q67.5198 847.112 70.7142 849.797 Q73.9087 852.483 73.9087 856.973 Q73.9087 859.103 73.0985 861.024 Q72.3115 862.922 70.205 865.515 Q69.6263 866.186 66.5245 869.404 Q63.4226 872.598 57.7745 878.362 Z" fill="#000000" fill-rule="nonzero" fill-opacity="1" /><path clip-path="url(#clip740)" d="M93.9086 850.816 Q90.2975 850.816 88.4688 854.381 Q86.6632 857.922 86.6632 865.052 Q86.6632 872.158 88.4688 875.723 Q90.2975 879.265 93.9086 879.265 Q97.5428 879.265 99.3483 875.723 Q101.177 872.158 101.177 865.052 Q101.177 857.922 99.3483 854.381 Q97.5428 850.816 93.9086 850.816 M93.9086 847.112 Q99.7187 847.112 102.774 851.719 Q105.853 856.302 105.853 865.052 Q105.853 873.779 102.774 878.385 Q99.7187 882.969 93.9086 882.969 Q88.0984 882.969 85.0197 878.385 Q81.9642 873.779 81.9642 865.052 Q81.9642 856.302 85.0197 851.719 Q88.0984 847.112 93.9086 847.112 Z" fill="#000000" fill-rule="nonzero" fill-opacity="1" /><path clip-path="url(#clip740)" d="M67.9133 604.053 Q71.2698 604.77 73.1448 607.039 Q75.0429 609.307 75.0429 612.64 Q75.0429 617.756 71.5244 620.557 Q68.0059 623.358 61.5245 623.358 Q59.3486 623.358 57.0338 622.918 Q54.7421 622.502 52.2884 621.645 L52.2884 617.131 Q54.2328 618.265 56.5477 618.844 Q58.8625 619.423 61.3856 619.423 Q65.7837 619.423 68.0754 617.687 Q70.3902 615.951 70.3902 612.64 Q70.3902 609.585 68.2374 607.872 Q66.1078 606.136 62.2884 606.136 L58.2606 606.136 L58.2606 602.293 L62.4735 602.293 Q65.9226 602.293 67.7513 600.928 Q69.58 599.539 69.58 596.946 Q69.58 594.284 67.6819 592.872 Q65.8069 591.437 62.2884 591.437 Q60.3671 591.437 58.168 591.854 Q55.969 592.27 53.3301 593.15 L53.3301 588.983 Q55.9921 588.242 58.3069 587.872 Q60.6449 587.502 62.705 587.502 Q68.0291 587.502 71.1309 589.932 Q74.2327 592.34 74.2327 596.46 Q74.2327 599.33 72.5892 601.321 Q70.9457 603.289 67.9133 604.053 Z" fill="#000000" fill-rule="nonzero" fill-opacity="1" /><path clip-path="url(#clip740)" d="M93.9086 591.205 Q90.2975 591.205 88.4688 594.77 Q86.6632 598.312 86.6632 605.441 Q86.6632 612.548 88.4688 616.113 Q90.2975 619.654 93.9086 619.654 Q97.5428 619.654 99.3483 616.113 Q101.177 612.548 101.177 605.441 Q101.177 598.312 99.3483 594.77 Q97.5428 591.205 93.9086 591.205 M93.9086 587.502 Q99.7187 587.502 102.774 592.108 Q105.853 596.691 105.853 605.441 Q105.853 614.168 102.774 618.775 Q99.7187 623.358 93.9086 623.358 Q88.0984 623.358 85.0197 618.775 Q81.9642 614.168 81.9642 605.441 Q81.9642 596.691 85.0197 592.108 Q88.0984 587.502 93.9086 587.502 Z" fill="#000000" fill-rule="nonzero" fill-opacity="1" /><path clip-path="url(#clip740)" d="M66.5939 332.59 L54.7884 351.039 L66.5939 351.039 L66.5939 332.59 M65.367 328.516 L71.2466 328.516 L71.2466 351.039 L76.1772 351.039 L76.1772 354.928 L71.2466 354.928 L71.2466 363.076 L66.5939 363.076 L66.5939 354.928 L50.9921 354.928 L50.9921 350.414 L65.367 328.516 Z" fill="#000000" fill-rule="nonzero" fill-opacity="1" /><path clip-path="url(#clip740)" d="M93.9086 331.595 Q90.2975 331.595 88.4688 335.16 Q86.6632 338.701 86.6632 345.831 Q86.6632 352.937 88.4688 356.502 Q90.2975 360.044 93.9086 360.044 Q97.5428 360.044 99.3483 356.502 Q101.177 352.937 101.177 345.831 Q101.177 338.701 99.3483 335.16 Q97.5428 331.595 93.9086 331.595 M93.9086 327.891 Q99.7187 327.891 102.774 332.498 Q105.853 337.081 105.853 345.831 Q105.853 354.558 102.774 359.164 Q99.7187 363.747 93.9086 363.747 Q88.0984 363.747 85.0197 359.164 Q81.9642 354.558 81.9642 345.831 Q81.9642 337.081 85.0197 332.498 Q88.0984 327.891 93.9086 327.891 Z" fill="#000000" fill-rule="nonzero" fill-opacity="1" /><path clip-path="url(#clip740)" d="M53.793 68.9057 L72.1494 68.9057 L72.1494 72.8408 L58.0754 72.8408 L58.0754 81.313 Q59.0939 80.9658 60.1124 80.8038 Q61.131 80.6186 62.1495 80.6186 Q67.9365 80.6186 71.3161 83.7899 Q74.6957 86.9611 74.6957 92.3778 Q74.6957 97.9564 71.2235 101.058 Q67.7513 104.137 61.4319 104.137 Q59.256 104.137 56.9875 103.767 Q54.7421 103.396 52.3347 102.655 L52.3347 97.9564 Q54.418 99.0907 56.6402 99.6462 Q58.8625 100.202 61.3393 100.202 Q65.3439 100.202 67.6819 98.0953 Q70.0198 95.9889 70.0198 92.3778 Q70.0198 88.7667 67.6819 86.6602 Q65.3439 84.5537 61.3393 84.5537 Q59.4643 84.5537 57.5893 84.9704 Q55.7375 85.3871 53.793 86.2667 L53.793 68.9057 Z" fill="#000000" fill-rule="nonzero" fill-opacity="1" /><path clip-path="url(#clip740)" d="M93.9086 71.9844 Q90.2975 71.9844 88.4688 75.5492 Q86.6632 79.0908 86.6632 86.2204 Q86.6632 93.3268 88.4688 96.8916 Q90.2975 100.433 93.9086 100.433 Q97.5428 100.433 99.3483 96.8916 Q101.177 93.3268 101.177 86.2204 Q101.177 79.0908 99.3483 75.5492 Q97.5428 71.9844 93.9086 71.9844 M93.9086 68.2807 Q99.7187 68.2807 102.774 72.8871 Q105.853 77.4704 105.853 86.2204 Q105.853 94.9472 102.774 99.5537 Q99.7187 104.137 93.9086 104.137 Q88.0984 104.137 85.0197 99.5537 Q81.9642 94.9472 81.9642 86.2204 Q81.9642 77.4704 85.0197 72.8871 Q88.0984 68.2807 93.9086 68.2807 Z" fill="#000000" fill-rule="nonzero" fill-opacity="1" /><polyline clip-path="url(#clip741)" style="stroke:#009af9; stroke-linecap:round; stroke-linejoin:round; stroke-width:20; stroke-opacity:1; fill:none" points="141.853,86.1857 144.066,110.459 146.279,131.688 148.492,150.365 150.705,166.893 152.919,181.6 155.132,194.759 157.345,206.598 159.558,217.306 161.771,227.044 163.984,235.947 166.197,244.129 168.41,251.688 170.623,258.708 172.837,265.261 175.05,271.407 177.263,277.2 179.476,282.686 181.689,287.902 183.902,292.884 186.115,297.662 188.328,302.261 190.541,306.703 192.755,311.006 194.968,315.189 197.181,319.265 199.394,323.249 201.607,327.15 203.82,330.979 206.033,334.743 208.246,338.451 210.46,342.108 212.673,345.72 214.886,349.293 217.099,352.832 219.312,356.338 221.525,359.816 223.738,363.269 225.951,366.698 228.164,370.108 230.378,373.499 232.591,376.873 234.804,380.232 237.017,383.578 239.23,386.91 241.443,390.23 243.656,393.539 245.869,396.838 248.083,400.127 250.296,403.408 252.509,406.681 254.722,409.946 256.935,413.204 259.148,416.454 261.361,419.698 263.574,422.935 265.787,426.165 268.001,429.39 270.214,432.608 272.427,435.821 274.64,439.029 276.853,442.231 279.066,445.428 281.279,448.62 283.492,451.806 285.705,454.988 287.919,458.164 290.132,461.336 292.345,464.502 294.558,467.663 296.771,470.82 298.984,473.971 301.197,477.118 303.41,480.26 305.624,483.397 307.837,486.53 310.05,489.658 312.263,492.782 314.476,495.901 316.689,499.015 318.902,502.124 321.115,505.228 323.328,508.328 325.542,511.422 327.755,514.512 329.968,517.597 332.181,520.677 334.394,523.752 336.607,526.823 338.82,529.888 341.033,532.949 343.247,536.005 345.46,539.057 347.673,542.104 349.886,545.146 352.099,548.184 354.312,551.217 356.525,554.244 358.738,557.267 360.951,560.285 363.165,563.298 365.378,566.306 367.591,569.308 369.804,572.306 372.017,575.298 374.23,578.286 376.443,581.268 378.656,584.245 380.869,587.217 383.083,590.185 385.296,593.147 387.509,596.105 389.722,599.058 391.935,602.006 394.148,604.949 396.361,607.887 398.574,610.821 400.788,613.749 403.001,616.672 405.214,619.589 407.427,622.502 409.64,625.409 411.853,628.31 414.066,631.206 416.279,634.097 418.492,636.982 420.706,639.862 422.919,642.737 425.132,645.606 427.345,648.47 429.558,651.329 431.771,654.182 433.984,657.03 436.197,659.874 438.41,662.712 440.624,665.546 442.837,668.374 445.05,671.198 447.263,674.016 449.476,676.828 451.689,679.635 453.902,682.437 456.115,685.233 458.329,688.023 460.542,690.808 462.755,693.587 464.968,696.36 467.181,699.128 469.394,701.889 471.607,704.645 473.82,707.395 476.033,710.14 478.247,712.879 480.46,715.612 482.673,718.34 484.886,721.062 487.099,723.779 489.312,726.491 491.525,729.197 493.738,731.898 495.952,734.595 498.165,737.286 500.378,739.971 502.591,742.651 504.804,745.324 507.017,747.993 509.23,750.655 511.443,753.311 513.656,755.962 515.87,758.606 518.083,761.244 520.296,763.876 522.509,766.502 524.722,769.122 526.935,771.735 529.148,774.343 531.361,776.945 533.574,779.54 535.788,782.13 538.001,784.714 540.214,787.292 542.427,789.864 544.64,792.431 546.853,794.992 549.066,797.548 551.279,800.099 553.493,802.644 555.706,805.183 557.919,807.717 560.132,810.244 562.345,812.766 564.558,815.282 566.771,817.791 568.984,820.295 571.197,822.792 573.411,825.282 575.624,827.766 577.837,830.244 580.05,832.716 582.263,835.181 584.476,837.639 586.689,840.091 588.902,842.537 591.116,844.976 593.329,847.409 595.542,849.836 597.755,852.256 599.968,854.67 602.181,857.079 604.394,859.481 606.607,861.878 608.82,864.269 611.034,866.655 613.247,869.035 615.46,871.409 617.673,873.777 619.886,876.139 622.099,878.495 624.312,880.844 626.525,883.188 628.738,885.524 630.952,887.855 633.165,890.178 635.378,892.495 637.591,894.806 639.804,897.109 642.017,899.406 644.23,901.697 646.443,903.98 648.657,906.257 650.87,908.527 653.083,910.79 655.296,913.047 657.509,915.298 659.722,917.541 661.935,919.779 664.148,922.01 666.361,924.234 668.575,926.453 670.788,928.666 673.001,930.872 675.214,933.073 677.427,935.268 679.64,937.457 681.853,939.64 684.066,941.817 686.279,943.987 688.493,946.151 690.706,948.309 692.919,950.459 695.132,952.603 697.345,954.74 699.558,956.871 701.771,958.994 703.984,961.111 706.198,963.221 708.411,965.323 710.624,967.419 712.837,969.508 715.05,971.59 717.263,973.665 719.476,975.734 721.689,977.795 723.902,979.85 726.116,981.898 728.329,983.939 730.542,985.974 732.755,988.003 734.968,990.025 737.181,992.04 739.394,994.05 741.607,996.054 743.821,998.051 746.034,1000.04 748.247,1002.03 750.46,1004.01 752.673,1005.98 754.886,1007.95 757.099,1009.91 759.312,1011.86 761.525,1013.8 763.739,1015.74 765.952,1017.68 768.165,1019.6 770.378,1021.52 772.591,1023.43 774.804,1025.34 777.017,1027.23 779.23,1029.12 781.443,1031.01 783.657,1032.88 785.87,1034.75 788.083,1036.62 790.296,1038.47 792.509,1040.32 794.722,1042.16 796.935,1044 799.148,1045.82 801.362,1047.65 803.575,1049.46 805.788,1051.27 808.001,1053.07 810.214,1054.87 812.427,1056.66 814.64,1058.44 816.853,1060.22 819.066,1061.99 821.28,1063.76 823.493,1065.52 825.706,1067.27 827.919,1069.02 830.132,1070.76 832.345,1072.49 834.558,1074.22 836.771,1075.93 838.985,1077.65 841.198,1079.35 843.411,1081.05 845.624,1082.74 847.837,1084.42 850.05,1086.1 852.263,1087.77 854.476,1089.44 856.689,1091.09 858.903,1092.74 861.116,1094.38 863.329,1096.02 865.542,1097.65 867.755,1099.27 869.968,1100.89 872.181,1102.5 874.394,1104.1 876.607,1105.69 878.821,1107.28 881.034,1108.87 883.247,1110.44 885.46,1112.02 887.673,1113.58 889.886,1115.14 892.099,1116.69 894.312,1118.24 896.526,1119.78 898.739,1121.32 900.952,1122.84 903.165,1124.36 905.378,1125.88 907.591,1127.39 909.804,1128.89 912.017,1130.38 914.23,1131.87 916.444,1133.35 918.657,1134.83 920.87,1136.29 923.083,1137.76 925.296,1139.21 927.509,1140.66 929.722,1142.1 931.935,1143.53 934.148,1144.96 936.362,1146.38 938.575,1147.8 940.788,1149.2 943.001,1150.61 945.214,1152 947.427,1153.39 949.64,1154.77 951.853,1156.15 954.067,1157.52 956.28,1158.88 958.493,1160.24 960.706,1161.59 962.919,1162.94 965.132,1164.28 967.345,1165.61 969.558,1166.94 971.771,1168.26 973.985,1169.58 976.198,1170.89 978.411,1172.19 980.624,1173.49 982.837,1174.78 985.05,1176.07 987.263,1177.35 989.476,1178.62 991.69,1179.89 993.903,1181.15 996.116,1182.4 998.329,1183.65 1000.54,1184.89 1002.76,1186.13 1004.97,1187.36 1007.18,1188.58 1009.39,1189.8 1011.61,1191.01 1013.82,1192.21 1016.03,1193.41 1018.25,1194.6 1020.46,1195.78 1022.67,1196.96 1024.89,1198.14 1027.1,1199.3 1029.31,1200.47 1031.53,1201.62 1033.74,1202.77 1035.95,1203.92 1038.16,1205.06 1040.38,1206.19 1042.59,1207.32 1044.8,1208.44 1047.02,1209.56 1049.23,1210.68 1051.44,1211.79 1053.66,1212.89 1055.87,1213.99 1058.08,1215.08 1060.3,1216.17 1062.51,1217.25 1064.72,1218.32 1066.94,1219.39 1069.15,1220.45 1071.36,1221.51 1073.57,1222.57 1075.79,1223.61 1078,1224.65 1080.21,1225.69 1082.43,1226.72 1084.64,1227.74 1086.85,1228.76 1089.07,1229.78 1091.28,1230.78 1093.49,1231.79 1095.71,1232.78 1097.92,1233.77 1100.13,1234.76 1102.35,1235.74 1104.56,1236.71 1106.77,1237.68 1108.98,1238.64 1111.2,1239.6 1113.41,1240.55 1115.62,1241.49 1117.84,1242.43 1120.05,1243.37 1122.26,1244.29 1124.48,1245.22 1126.69,1246.13 1128.9,1247.05 1131.12,1247.95 1133.33,1248.86 1135.54,1249.76 1137.76,1250.65 1139.97,1251.54 1142.18,1252.42 1144.39,1253.3 1146.61,1254.17 1148.82,1255.04 1151.03,1255.9 1153.25,1256.76 1155.46,1257.61 1157.67,1258.46 1159.89,1259.3 1162.1,1260.14 1164.31,1260.97 1166.53,1261.8 1168.74,1262.62 1170.95,1263.44 1173.17,1264.25 1175.38,1265.06 1177.59,1265.87 1179.8,1266.66 1182.02,1267.46 1184.23,1268.25 1186.44,1269.03 1188.66,1269.81 1190.87,1270.59 1193.08,1271.36 1195.3,1272.13 1197.51,1272.89 1199.72,1273.65 1201.94,1274.4 1204.15,1275.15 1206.36,1275.89 1208.57,1276.63 1210.79,1277.37 1213,1278.1 1215.21,1278.83 1217.43,1279.55 1219.64,1280.27 1221.85,1280.98 1224.07,1281.69 1226.28,1282.4 1228.49,1283.1 1230.71,1283.79 1232.92,1284.49 1235.13,1285.17 1237.35,1285.86 1239.56,1286.54 1241.77,1287.21 1243.98,1287.88 1246.2,1288.55 1248.41,1289.21 1250.62,1289.87 1252.84,1290.52 1255.05,1291.17 1257.26,1291.82 1259.48,1292.46 1261.69,1293.1 1263.9,1293.73 1266.12,1294.36 1268.33,1294.98 1270.54,1295.61 1272.76,1296.23 1274.97,1296.84 1277.18,1297.45 1279.39,1298.06 1281.61,1298.66 1283.82,1299.26 1286.03,1299.86 1288.25,1300.45 1290.46,1301.03 1292.67,1301.62 1294.89,1302.2 1297.1,1302.78 1299.31,1303.35 1301.53,1303.92 1303.74,1304.48 1305.95,1305.05 1308.17,1305.6 1310.38,1306.16 1312.59,1306.71 1314.8,1307.26 1317.02,1307.8 1319.23,1308.34 1321.44,1308.88 1323.66,1309.41 1325.87,1309.94 1328.08,1310.47 1330.3,1310.99 1332.51,1311.51 1334.72,1312.03 1336.94,1312.54 1339.15,1313.05 1341.36,1313.56 1343.57,1314.06 1345.79,1314.56 1348,1315.06 1350.21,1315.55 1352.43,1316.04 1354.64,1316.53 1356.85,1317.01 1359.07,1317.49 1361.28,1317.97 1363.49,1318.44 1365.71,1318.91 1367.92,1319.38 1370.13,1319.84 1372.35,1320.3 1374.56,1320.76 1376.77,1321.22 1378.98,1321.67 1381.2,1322.12 1383.41,1322.56 1385.62,1323.01 1387.84,1323.44 1390.05,1323.88 1392.26,1324.32 1394.48,1324.75 1396.69,1325.17 1398.9,1325.6 1401.12,1326.02 1403.33,1326.44 1405.54,1326.86 1407.76,1327.27 1409.97,1327.68 1412.18,1328.09 1414.39,1328.5 1416.61,1328.9 1418.82,1329.3 1421.03,1329.7 1423.25,1330.09 1425.46,1330.48 1427.67,1330.87 1429.89,1331.26 1432.1,1331.64 1434.31,1332.03 1436.53,1332.4 1438.74,1332.78 1440.95,1333.15 1443.17,1333.52 1445.38,1333.89 1447.59,1334.26 1449.8,1334.62 1452.02,1334.98 1454.23,1335.34 1456.44,1335.7 1458.66,1336.05 1460.87,1336.4 1463.08,1336.75 1465.3,1337.1 1467.51,1337.44 1469.72,1337.78 1471.94,1338.12 1474.15,1338.46 1476.36,1338.79 1478.58,1339.12 1480.79,1339.45 1483,1339.78 1485.21,1340.1 1487.43,1340.43 1489.64,1340.75 1491.85,1341.07 1494.07,1341.38 1496.28,1341.7 1498.49,1342.01 1500.71,1342.32 1502.92,1342.62 1505.13,1342.93 1507.35,1343.23 1509.56,1343.53 1511.77,1343.83 1513.98,1344.13 1516.2,1344.42 1518.41,1344.72 1520.62,1345.01 1522.84,1345.3 1525.05,1345.58 1527.26,1345.87 1529.48,1346.15 1531.69,1346.43 1533.9,1346.71 1536.12,1346.98 1538.33,1347.26 1540.54,1347.53 1542.76,1347.8 1544.97,1348.07 1547.18,1348.34 1549.39,1348.6 1551.61,1348.86 1553.82,1349.12 1556.03,1349.38 1558.25,1349.64 1560.46,1349.89 1562.67,1350.15 1564.89,1350.4 1567.1,1350.65 1569.31,1350.9 1571.53,1351.14 1573.74,1351.39 1575.95,1351.63 1578.17,1351.87 1580.38,1352.11 1582.59,1352.35 1584.8,1352.59 1587.02,1352.82 1589.23,1353.05 1591.44,1353.28 1593.66,1353.51 1595.87,1353.74 1598.08,1353.97 1600.3,1354.19 1602.51,1354.42 1604.72,1354.64 1606.94,1354.86 1609.15,1355.08 1611.36,1355.29 1613.58,1355.51 1615.79,1355.72 1618,1355.93 1620.21,1356.14 1622.43,1356.35 1624.64,1356.56 1626.85,1356.76 1629.07,1356.97 1631.28,1357.17 1633.49,1357.37 1635.71,1357.57 1637.92,1357.77 1640.13,1357.97 1642.35,1358.16 1644.56,1358.36 1646.77,1358.55 1648.98,1358.74 1651.2,1358.93 1653.41,1359.12 1655.62,1359.31 1657.84,1359.49 1660.05,1359.68 1662.26,1359.86 1664.48,1360.04 1666.69,1360.22 1668.9,1360.4 1671.12,1360.58 1673.33,1360.75 1675.54,1360.93 1677.76,1361.1 1679.97,1361.28 1682.18,1361.45 1684.39,1361.62 1686.61,1361.79 1688.82,1361.96 1691.03,1362.12 1693.25,1362.29 1695.46,1362.45 1697.67,1362.62 1699.89,1362.78 1702.1,1362.94 1704.31,1363.1 1706.53,1363.26 1708.74,1363.41 1710.95,1363.57 1713.17,1363.72 1715.38,1363.88 1717.59,1364.03 1719.8,1364.18 1722.02,1364.33 1724.23,1364.48 1726.44,1364.63 1728.66,1364.77 1730.87,1364.92 1733.08,1365.06 1735.3,1365.21 1737.51,1365.35 1739.72,1365.49 1741.94,1365.63 1744.15,1365.77 1746.36,1365.91 1748.58,1366.05 1750.79,1366.18 1753,1366.32 1755.21,1366.45 1757.43,1366.59 1759.64,1366.72 1761.85,1366.85 1764.07,1366.98 1766.28,1367.11 1768.49,1367.24 1770.71,1367.37 1772.92,1367.49 1775.13,1367.62 1777.35,1367.74 1779.56,1367.87 1781.77,1367.99 1783.99,1368.11 1786.2,1368.23 1788.41,1368.36 1790.62,1368.47 1792.84,1368.59 1795.05,1368.71 1797.26,1368.83 1799.48,1368.94 1801.69,1369.06 1803.9,1369.17 1806.12,1369.29 1808.33,1369.4 1810.54,1369.51 1812.76,1369.62 1814.97,1369.73 1817.18,1369.84 1819.39,1369.95 1821.61,1370.06 1823.82,1370.16 1826.03,1370.27 1828.25,1370.37 1830.46,1370.48 1832.67,1370.58 1834.89,1370.68 1837.1,1370.79 1839.31,1370.89 1841.53,1370.99 1843.74,1371.09 1845.95,1371.19 1848.17,1371.28 1850.38,1371.38 1852.59,1371.48 1854.8,1371.57 1857.02,1371.67 1859.23,1371.77 1861.44,1371.86 1863.66,1371.95 1865.87,1372.05 1868.08,1372.14 1870.3,1372.23 1872.51,1372.32 1874.72,1372.41 1876.94,1372.5 1879.15,1372.59 1881.36,1372.68 1883.58,1372.76 1885.79,1372.85 1888,1372.94 1890.21,1373.02 1892.43,1373.11 1894.64,1373.19 1896.85,1373.27 1899.07,1373.36 1901.28,1373.44 1903.49,1373.52 1905.71,1373.6 1907.92,1373.68 1910.13,1373.76 1912.35,1373.84 1914.56,1373.92 1916.77,1374 1918.99,1374.07 1921.2,1374.15 1923.41,1374.23 1925.62,1374.3 1927.84,1374.38 1930.05,1374.45 1932.26,1374.53 1934.48,1374.6 1936.69,1374.67 1938.9,1374.74 1941.12,1374.82 1943.33,1374.89 1945.54,1374.96 1947.76,1375.03 1949.97,1375.1 1952.18,1375.17 1954.4,1375.23 1956.61,1375.3 1958.82,1375.37 1961.03,1375.44 1963.25,1375.5 1965.46,1375.57 1967.67,1375.64 1969.89,1375.7 1972.1,1375.76 1974.31,1375.83 1976.53,1375.89 1978.74,1375.96 1980.95,1376.02 1983.17,1376.08 1985.38,1376.14 1987.59,1376.2 1989.8,1376.26 1992.02,1376.33 1994.23,1376.39 1996.44,1376.44 1998.66,1376.5 2000.87,1376.56 2003.08,1376.62 2005.3,1376.68 2007.51,1376.74 2009.72,1376.79 2011.94,1376.85 2014.15,1376.9 2016.36,1376.96 2018.58,1377.02 2020.79,1377.07 2023,1377.12 2025.21,1377.18 2027.43,1377.23 2029.64,1377.28 2031.85,1377.34 2034.07,1377.39 2036.28,1377.44 2038.49,1377.49 2040.71,1377.54 2042.92,1377.59 2045.13,1377.64 2047.35,1377.69 2049.56,1377.74 2051.77,1377.79 2053.99,1377.84 2056.2,1377.89 2058.41,1377.94 2060.62,1377.99 2062.84,1378.03 2065.05,1378.08 2067.26,1378.13 2069.48,1378.17 2071.69,1378.22 2073.9,1378.27 2076.12,1378.31 2078.33,1378.36 2080.54,1378.4 2082.76,1378.44 2084.97,1378.49 2087.18,1378.53 2089.4,1378.58 2091.61,1378.62 2093.82,1378.66 2096.03,1378.7 2098.25,1378.75 2100.46,1378.79 2102.67,1378.83 2104.89,1378.87 2107.1,1378.91 2109.31,1378.95 2111.53,1378.99 2113.74,1379.03 2115.95,1379.07 2118.17,1379.11 2120.38,1379.15 2122.59,1379.19 2124.8,1379.23 2127.02,1379.26 2129.23,1379.3 2131.44,1379.34 2133.66,1379.38 2135.87,1379.41 2138.08,1379.45 2140.3,1379.49 2142.51,1379.52 2144.72,1379.56 2146.94,1379.59 2149.15,1379.63 2151.36,1379.66 2153.58,1379.7 2155.79,1379.73 2158,1379.77 2160.21,1379.8 2162.43,1379.83 2164.64,1379.87 2166.85,1379.9 2169.07,1379.93 2171.28,1379.97 2173.49,1380 2175.71,1380.03 2177.92,1380.06 2180.13,1380.09 2182.35,1380.13 2184.56,1380.16 2186.77,1380.19 2188.99,1380.22 2191.2,1380.25 2193.41,1380.28 2195.62,1380.31 2197.84,1380.34 2200.05,1380.37 2202.26,1380.4 2204.48,1380.43 2206.69,1380.46 2208.9,1380.49 2211.12,1380.51 2213.33,1380.54 2215.54,1380.57 2217.76,1380.6 2219.97,1380.63 2222.18,1380.65 2224.4,1380.68 2226.61,1380.71 2228.82,1380.73 2231.03,1380.76 2233.25,1380.79 2235.46,1380.81 2237.67,1380.84 2239.89,1380.87 2242.1,1380.89 2244.31,1380.92 2246.53,1380.94 2248.74,1380.97 2250.95,1380.99 2253.17,1381.02 2255.38,1381.04 2257.59,1381.07 2259.81,1381.09 2262.02,1381.11 2264.23,1381.14 2266.44,1381.16 2268.66,1381.18 2270.87,1381.21 2273.08,1381.23 2275.3,1381.25 2277.51,1381.28 2279.72,1381.3 2281.94,1381.32 2284.15,1381.34 2286.36,1381.36 2288.58,1381.39 2290.79,1381.41 2293,1381.43 2295.21,1381.45 2297.43,1381.47 2299.64,1381.49 2301.85,1381.51 2304.07,1381.53 2306.28,1381.55 2308.49,1381.58 2310.71,1381.6 2312.92,1381.62 2315.13,1381.64 2317.35,1381.66 2319.56,1381.68 2321.77,1381.69 2323.99,1381.71 2326.2,1381.73 2328.41,1381.75 2330.62,1381.77 2332.84,1381.79 2335.05,1381.81 2337.26,1381.83 2339.48,1381.85 2341.69,1381.86 2343.9,1381.88 2346.12,1381.9 2348.33,1381.92 2350.54,1381.93 2352.76,1381.95 "/>
<polyline clip-path="url(#clip741)" style="stroke:#e26f46; stroke-linecap:round; stroke-linejoin:round; stroke-width:20; stroke-opacity:1; fill:none" points="141.853,1124.63 144.066,1148.65 146.279,1169.19 148.492,1186.8 150.705,1201.92 152.919,1214.95 155.132,1226.19 157.345,1235.89 159.558,1244.29 161.771,1251.55 163.984,1257.85 166.197,1263.31 168.41,1268.04 170.623,1272.15 172.837,1275.71 175.05,1278.8 177.263,1281.48 179.476,1283.8 181.689,1285.81 183.902,1287.55 186.115,1289.05 188.328,1290.35 190.541,1291.46 192.755,1292.41 194.968,1293.23 197.181,1293.92 199.394,1294.51 201.607,1295 203.82,1295.42 206.033,1295.76 208.246,1296.04 210.46,1296.26 212.673,1296.44 214.886,1296.57 217.099,1296.66 219.312,1296.72 221.525,1296.76 223.738,1296.76 225.951,1296.75 228.164,1296.71 230.378,1296.66 232.591,1296.59 234.804,1296.51 237.017,1296.41 239.23,1296.3 241.443,1296.19 243.656,1296.06 245.869,1295.93 248.083,1295.79 250.296,1295.65 252.509,1295.5 254.722,1295.35 256.935,1295.19 259.148,1295.02 261.361,1294.86 263.574,1294.69 265.787,1294.52 268.001,1294.34 270.214,1294.16 272.427,1293.98 274.64,1293.8 276.853,1293.62 279.066,1293.44 281.279,1293.25 283.492,1293.06 285.705,1292.87 287.919,1292.68 290.132,1292.49 292.345,1292.3 294.558,1292.11 296.771,1291.91 298.984,1291.72 301.197,1291.52 303.41,1291.32 305.624,1291.13 307.837,1290.93 310.05,1290.73 312.263,1290.53 314.476,1290.33 316.689,1290.13 318.902,1289.92 321.115,1289.72 323.328,1289.52 325.542,1289.31 327.755,1289.11 329.968,1288.9 332.181,1288.7 334.394,1288.49 336.607,1288.28 338.82,1288.07 341.033,1287.86 343.247,1287.65 345.46,1287.44 347.673,1287.23 349.886,1287.02 352.099,1286.81 354.312,1286.6 356.525,1286.39 358.738,1286.17 360.951,1285.96 363.165,1285.74 365.378,1285.53 367.591,1285.31 369.804,1285.09 372.017,1284.88 374.23,1284.66 376.443,1284.44 378.656,1284.22 380.869,1284 383.083,1283.78 385.296,1283.55 387.509,1283.33 389.722,1283.11 391.935,1282.89 394.148,1282.67 396.361,1282.44 398.574,1282.22 400.788,1281.99 403.001,1281.77 405.214,1281.54 407.427,1281.32 409.64,1281.09 411.853,1280.86 414.066,1280.63 416.279,1280.4 418.492,1280.17 420.706,1279.94 422.919,1279.71 425.132,1279.47 427.345,1279.24 429.558,1279 431.771,1278.77 433.984,1278.53 436.197,1278.3 438.41,1278.06 440.624,1277.83 442.837,1277.59 445.05,1277.35 447.263,1277.12 449.476,1276.88 451.689,1276.64 453.902,1276.4 456.115,1276.16 458.329,1275.92 460.542,1275.68 462.755,1275.44 464.968,1275.19 467.181,1274.95 469.394,1274.7 471.607,1274.46 473.82,1274.21 476.033,1273.96 478.247,1273.71 480.46,1273.46 482.673,1273.21 484.886,1272.96 487.099,1272.71 489.312,1272.46 491.525,1272.21 493.738,1271.96 495.952,1271.71 498.165,1271.46 500.378,1271.21 502.591,1270.96 504.804,1270.7 507.017,1270.45 509.23,1270.2 511.443,1269.94 513.656,1269.69 515.87,1269.43 518.083,1269.17 520.296,1268.91 522.509,1268.65 524.722,1268.39 526.935,1268.13 529.148,1267.87 531.361,1267.6 533.574,1267.34 535.788,1267.07 538.001,1266.81 540.214,1266.54 542.427,1266.27 544.64,1266.01 546.853,1265.74 549.066,1265.47 551.279,1265.21 553.493,1264.94 555.706,1264.67 557.919,1264.41 560.132,1264.14 562.345,1263.87 564.558,1263.6 566.771,1263.33 568.984,1263.06 571.197,1262.79 573.411,1262.52 575.624,1262.25 577.837,1261.97 580.05,1261.7 582.263,1261.42 584.476,1261.14 586.689,1260.86 588.902,1260.58 591.116,1260.3 593.329,1260.02 595.542,1259.74 597.755,1259.46 599.968,1259.18 602.181,1258.89 604.394,1258.61 606.607,1258.33 608.82,1258.04 611.034,1257.76 613.247,1257.48 615.46,1257.2 617.673,1256.91 619.886,1256.63 622.099,1256.35 624.312,1256.06 626.525,1255.78 628.738,1255.49 630.952,1255.21 633.165,1254.92 635.378,1254.63 637.591,1254.34 639.804,1254.05 642.017,1253.76 644.23,1253.47 646.443,1253.18 648.657,1252.88 650.87,1252.59 653.083,1252.29 655.296,1252 657.509,1251.7 659.722,1251.4 661.935,1251.1 664.148,1250.8 666.361,1250.5 668.575,1250.21 670.788,1249.91 673.001,1249.61 675.214,1249.31 677.427,1249.01 679.64,1248.71 681.853,1248.42 684.066,1248.12 686.279,1247.82 688.493,1247.52 690.706,1247.22 692.919,1246.92 695.132,1246.62 697.345,1246.32 699.558,1246.02 701.771,1245.71 703.984,1245.41 706.198,1245.11 708.411,1244.8 710.624,1244.49 712.837,1244.18 715.05,1243.88 717.263,1243.57 719.476,1243.26 721.689,1242.95 723.902,1242.63 726.116,1242.32 728.329,1242.01 730.542,1241.7 732.755,1241.38 734.968,1241.07 737.181,1240.76 739.394,1240.44 741.607,1240.13 743.821,1239.82 746.034,1239.51 748.247,1239.2 750.46,1238.89 752.673,1238.58 754.886,1238.26 757.099,1237.95 759.312,1237.64 761.525,1237.33 763.739,1237.02 765.952,1236.7 768.165,1236.39 770.378,1236.07 772.591,1235.76 774.804,1235.44 777.017,1235.12 779.23,1234.8 781.443,1234.48 783.657,1234.16 785.87,1233.84 788.083,1233.52 790.296,1233.2 792.509,1232.88 794.722,1232.56 796.935,1232.23 799.148,1231.91 801.362,1231.59 803.575,1231.26 805.788,1230.94 808.001,1230.62 810.214,1230.29 812.427,1229.97 814.64,1229.65 816.853,1229.33 819.066,1229.01 821.28,1228.69 823.493,1228.37 825.706,1228.05 827.919,1227.72 830.132,1227.4 832.345,1227.08 834.558,1226.76 836.771,1226.44 838.985,1226.12 841.198,1225.79 843.411,1225.47 845.624,1225.15 847.837,1224.82 850.05,1224.5 852.263,1224.17 854.476,1223.85 856.689,1223.52 858.903,1223.19 861.116,1222.86 863.329,1222.54 865.542,1222.21 867.755,1221.88 869.968,1221.55 872.181,1221.22 874.394,1220.89 876.607,1220.56 878.821,1220.23 881.034,1219.91 883.247,1219.58 885.46,1219.25 887.673,1218.93 889.886,1218.6 892.099,1218.28 894.312,1217.95 896.526,1217.63 898.739,1217.3 900.952,1216.98 903.165,1216.66 905.378,1216.33 907.591,1216.01 909.804,1215.68 912.017,1215.36 914.23,1215.04 916.444,1214.71 918.657,1214.39 920.87,1214.06 923.083,1213.74 925.296,1213.41 927.509,1213.08 929.722,1212.76 931.935,1212.43 934.148,1212.1 936.362,1211.77 938.575,1211.45 940.788,1211.12 943.001,1210.79 945.214,1210.46 947.427,1210.14 949.64,1209.81 951.853,1209.48 954.067,1209.16 956.28,1208.83 958.493,1208.5 960.706,1208.18 962.919,1207.86 965.132,1207.53 967.345,1207.21 969.558,1206.89 971.771,1206.57 973.985,1206.25 976.198,1205.93 978.411,1205.61 980.624,1205.29 982.837,1204.97 985.05,1204.65 987.263,1204.33 989.476,1204.02 991.69,1203.7 993.903,1203.38 996.116,1203.06 998.329,1202.74 1000.54,1202.42 1002.76,1202.1 1004.97,1201.78 1007.18,1201.47 1009.39,1201.15 1011.61,1200.83 1013.82,1200.51 1016.03,1200.19 1018.25,1199.87 1020.46,1199.55 1022.67,1199.24 1024.89,1198.92 1027.1,1198.6 1029.31,1198.28 1031.53,1197.97 1033.74,1197.65 1035.95,1197.34 1038.16,1197.02 1040.38,1196.71 1042.59,1196.4 1044.8,1196.09 1047.02,1195.78 1049.23,1195.47 1051.44,1195.17 1053.66,1194.86 1055.87,1194.56 1058.08,1194.25 1060.3,1193.95 1062.51,1193.64 1064.72,1193.34 1066.94,1193.04 1069.15,1192.73 1071.36,1192.43 1073.57,1192.13 1075.79,1191.83 1078,1191.53 1080.21,1191.22 1082.43,1190.92 1084.64,1190.62 1086.85,1190.32 1089.07,1190.02 1091.28,1189.72 1093.49,1189.42 1095.71,1189.13 1097.92,1188.83 1100.13,1188.53 1102.35,1188.23 1104.56,1187.93 1106.77,1187.64 1108.98,1187.34 1111.2,1187.04 1113.41,1186.75 1115.62,1186.45 1117.84,1186.16 1120.05,1185.86 1122.26,1185.57 1124.48,1185.27 1126.69,1184.98 1128.9,1184.69 1131.12,1184.4 1133.33,1184.1 1135.54,1183.81 1137.76,1183.52 1139.97,1183.24 1142.18,1182.95 1144.39,1182.66 1146.61,1182.37 1148.82,1182.09 1151.03,1181.8 1153.25,1181.52 1155.46,1181.24 1157.67,1180.95 1159.89,1180.67 1162.1,1180.39 1164.31,1180.11 1166.53,1179.83 1168.74,1179.55 1170.95,1179.27 1173.17,1178.99 1175.38,1178.71 1177.59,1178.44 1179.8,1178.16 1182.02,1177.89 1184.23,1177.61 1186.44,1177.34 1188.66,1177.07 1190.87,1176.8 1193.08,1176.53 1195.3,1176.26 1197.51,1175.99 1199.72,1175.72 1201.94,1175.45 1204.15,1175.19 1206.36,1174.92 1208.57,1174.66 1210.79,1174.4 1213,1174.13 1215.21,1173.87 1217.43,1173.61 1219.64,1173.35 1221.85,1173.09 1224.07,1172.84 1226.28,1172.58 1228.49,1172.32 1230.71,1172.07 1232.92,1171.81 1235.13,1171.56 1237.35,1171.3 1239.56,1171.05 1241.77,1170.8 1243.98,1170.55 1246.2,1170.3 1248.41,1170.05 1250.62,1169.8 1252.84,1169.55 1255.05,1169.3 1257.26,1169.05 1259.48,1168.81 1261.69,1168.56 1263.9,1168.32 1266.12,1168.08 1268.33,1167.84 1270.54,1167.59 1272.76,1167.35 1274.97,1167.12 1277.18,1166.88 1279.39,1166.64 1281.61,1166.41 1283.82,1166.17 1286.03,1165.94 1288.25,1165.7 1290.46,1165.47 1292.67,1165.24 1294.89,1165.01 1297.1,1164.78 1299.31,1164.55 1301.53,1164.33 1303.74,1164.1 1305.95,1163.87 1308.17,1163.65 1310.38,1163.42 1312.59,1163.2 1314.8,1162.98 1317.02,1162.76 1319.23,1162.53 1321.44,1162.31 1323.66,1162.1 1325.87,1161.88 1328.08,1161.66 1330.3,1161.44 1332.51,1161.23 1334.72,1161.01 1336.94,1160.8 1339.15,1160.59 1341.36,1160.38 1343.57,1160.17 1345.79,1159.96 1348,1159.75 1350.21,1159.54 1352.43,1159.33 1354.64,1159.13 1356.85,1158.92 1359.07,1158.72 1361.28,1158.52 1363.49,1158.31 1365.71,1158.11 1367.92,1157.91 1370.13,1157.71 1372.35,1157.51 1374.56,1157.31 1376.77,1157.12 1378.98,1156.92 1381.2,1156.72 1383.41,1156.53 1385.62,1156.34 1387.84,1156.14 1390.05,1155.95 1392.26,1155.76 1394.48,1155.57 1396.69,1155.38 1398.9,1155.19 1401.12,1155 1403.33,1154.81 1405.54,1154.63 1407.76,1154.44 1409.97,1154.26 1412.18,1154.07 1414.39,1153.89 1416.61,1153.71 1418.82,1153.53 1421.03,1153.35 1423.25,1153.17 1425.46,1153 1427.67,1152.82 1429.89,1152.64 1432.1,1152.47 1434.31,1152.29 1436.53,1152.12 1438.74,1151.95 1440.95,1151.78 1443.17,1151.61 1445.38,1151.44 1447.59,1151.27 1449.8,1151.1 1452.02,1150.93 1454.23,1150.77 1456.44,1150.6 1458.66,1150.43 1460.87,1150.27 1463.08,1150.11 1465.3,1149.94 1467.51,1149.78 1469.72,1149.62 1471.94,1149.46 1474.15,1149.3 1476.36,1149.14 1478.58,1148.99 1480.79,1148.83 1483,1148.67 1485.21,1148.52 1487.43,1148.37 1489.64,1148.21 1491.85,1148.06 1494.07,1147.91 1496.28,1147.76 1498.49,1147.61 1500.71,1147.46 1502.92,1147.31 1505.13,1147.16 1507.35,1147.02 1509.56,1146.87 1511.77,1146.73 1513.98,1146.58 1516.2,1146.44 1518.41,1146.3 1520.62,1146.16 1522.84,1146.01 1525.05,1145.87 1527.26,1145.73 1529.48,1145.6 1531.69,1145.46 1533.9,1145.32 1536.12,1145.18 1538.33,1145.05 1540.54,1144.91 1542.76,1144.78 1544.97,1144.64 1547.18,1144.51 1549.39,1144.38 1551.61,1144.25 1553.82,1144.12 1556.03,1143.99 1558.25,1143.86 1560.46,1143.73 1562.67,1143.6 1564.89,1143.47 1567.1,1143.35 1569.31,1143.22 1571.53,1143.1 1573.74,1142.97 1575.95,1142.85 1578.17,1142.73 1580.38,1142.61 1582.59,1142.49 1584.8,1142.37 1587.02,1142.25 1589.23,1142.13 1591.44,1142.01 1593.66,1141.89 1595.87,1141.78 1598.08,1141.66 1600.3,1141.54 1602.51,1141.43 1604.72,1141.32 1606.94,1141.2 1609.15,1141.09 1611.36,1140.98 1613.58,1140.87 1615.79,1140.76 1618,1140.65 1620.21,1140.54 1622.43,1140.43 1624.64,1140.32 1626.85,1140.21 1629.07,1140.11 1631.28,1140 1633.49,1139.9 1635.71,1139.79 1637.92,1139.69 1640.13,1139.58 1642.35,1139.48 1644.56,1139.38 1646.77,1139.28 1648.98,1139.17 1651.2,1139.07 1653.41,1138.97 1655.62,1138.87 1657.84,1138.78 1660.05,1138.68 1662.26,1138.58 1664.48,1138.48 1666.69,1138.39 1668.9,1138.29 1671.12,1138.2 1673.33,1138.1 1675.54,1138.01 1677.76,1137.92 1679.97,1137.83 1682.18,1137.73 1684.39,1137.64 1686.61,1137.55 1688.82,1137.46 1691.03,1137.37 1693.25,1137.28 1695.46,1137.2 1697.67,1137.11 1699.89,1137.02 1702.1,1136.93 1704.31,1136.85 1706.53,1136.76 1708.74,1136.68 1710.95,1136.59 1713.17,1136.51 1715.38,1136.43 1717.59,1136.34 1719.8,1136.26 1722.02,1136.18 1724.23,1136.1 1726.44,1136.02 1728.66,1135.94 1730.87,1135.86 1733.08,1135.78 1735.3,1135.7 1737.51,1135.62 1739.72,1135.54 1741.94,1135.46 1744.15,1135.39 1746.36,1135.31 1748.58,1135.23 1750.79,1135.16 1753,1135.08 1755.21,1135.01 1757.43,1134.94 1759.64,1134.86 1761.85,1134.79 1764.07,1134.72 1766.28,1134.65 1768.49,1134.57 1770.71,1134.5 1772.92,1134.43 1775.13,1134.36 1777.35,1134.3 1779.56,1134.23 1781.77,1134.16 1783.99,1134.09 1786.2,1134.02 1788.41,1133.96 1790.62,1133.89 1792.84,1133.82 1795.05,1133.76 1797.26,1133.69 1799.48,1133.63 1801.69,1133.56 1803.9,1133.5 1806.12,1133.44 1808.33,1133.37 1810.54,1133.31 1812.76,1133.25 1814.97,1133.19 1817.18,1133.12 1819.39,1133.06 1821.61,1133 1823.82,1132.94 1826.03,1132.88 1828.25,1132.82 1830.46,1132.76 1832.67,1132.7 1834.89,1132.65 1837.1,1132.59 1839.31,1132.53 1841.53,1132.47 1843.74,1132.42 1845.95,1132.36 1848.17,1132.3 1850.38,1132.25 1852.59,1132.19 1854.8,1132.14 1857.02,1132.08 1859.23,1132.03 1861.44,1131.98 1863.66,1131.92 1865.87,1131.87 1868.08,1131.82 1870.3,1131.76 1872.51,1131.71 1874.72,1131.66 1876.94,1131.61 1879.15,1131.56 1881.36,1131.51 1883.58,1131.46 1885.79,1131.41 1888,1131.36 1890.21,1131.31 1892.43,1131.26 1894.64,1131.22 1896.85,1131.17 1899.07,1131.12 1901.28,1131.07 1903.49,1131.03 1905.71,1130.98 1907.92,1130.93 1910.13,1130.89 1912.35,1130.84 1914.56,1130.8 1916.77,1130.75 1918.99,1130.71 1921.2,1130.66 1923.41,1130.62 1925.62,1130.57 1927.84,1130.53 1930.05,1130.49 1932.26,1130.44 1934.48,1130.4 1936.69,1130.36 1938.9,1130.32 1941.12,1130.27 1943.33,1130.23 1945.54,1130.19 1947.76,1130.15 1949.97,1130.11 1952.18,1130.07 1954.4,1130.03 1956.61,1129.99 1958.82,1129.95 1961.03,1129.91 1963.25,1129.87 1965.46,1129.83 1967.67,1129.8 1969.89,1129.76 1972.1,1129.72 1974.31,1129.68 1976.53,1129.65 1978.74,1129.61 1980.95,1129.57 1983.17,1129.54 1985.38,1129.5 1987.59,1129.46 1989.8,1129.43 1992.02,1129.39 1994.23,1129.36 1996.44,1129.32 1998.66,1129.29 2000.87,1129.25 2003.08,1129.22 2005.3,1129.19 2007.51,1129.15 2009.72,1129.12 2011.94,1129.09 2014.15,1129.05 2016.36,1129.02 2018.58,1128.99 2020.79,1128.96 2023,1128.92 2025.21,1128.89 2027.43,1128.86 2029.64,1128.83 2031.85,1128.8 2034.07,1128.77 2036.28,1128.74 2038.49,1128.71 2040.71,1128.67 2042.92,1128.64 2045.13,1128.62 2047.35,1128.59 2049.56,1128.56 2051.77,1128.53 2053.99,1128.5 2056.2,1128.47 2058.41,1128.44 2060.62,1128.41 2062.84,1128.38 2065.05,1128.36 2067.26,1128.33 2069.48,1128.3 2071.69,1128.27 2073.9,1128.25 2076.12,1128.22 2078.33,1128.19 2080.54,1128.17 2082.76,1128.14 2084.97,1128.11 2087.18,1128.09 2089.4,1128.06 2091.61,1128.04 2093.82,1128.01 2096.03,1127.99 2098.25,1127.96 2100.46,1127.94 2102.67,1127.91 2104.89,1127.89 2107.1,1127.86 2109.31,1127.84 2111.53,1127.82 2113.74,1127.79 2115.95,1127.77 2118.17,1127.74 2120.38,1127.72 2122.59,1127.7 2124.8,1127.68 2127.02,1127.65 2129.23,1127.63 2131.44,1127.61 2133.66,1127.59 2135.87,1127.56 2138.08,1127.54 2140.3,1127.52 2142.51,1127.5 2144.72,1127.48 2146.94,1127.46 2149.15,1127.43 2151.36,1127.41 2153.58,1127.39 2155.79,1127.37 2158,1127.35 2160.21,1127.33 2162.43,1127.31 2164.64,1127.29 2166.85,1127.27 2169.07,1127.25 2171.28,1127.23 2173.49,1127.21 2175.71,1127.19 2177.92,1127.17 2180.13,1127.15 2182.35,1127.13 2184.56,1127.12 2186.77,1127.1 2188.99,1127.08 2191.2,1127.06 2193.41,1127.04 2195.62,1127.02 2197.84,1127.01 2200.05,1126.99 2202.26,1126.97 2204.48,1126.95 2206.69,1126.94 2208.9,1126.92 2211.12,1126.9 2213.33,1126.88 2215.54,1126.87 2217.76,1126.85 2219.97,1126.83 2222.18,1126.82 2224.4,1126.8 2226.61,1126.78 2228.82,1126.77 2231.03,1126.75 2233.25,1126.74 2235.46,1126.72 2237.67,1126.7 2239.89,1126.69 2242.1,1126.67 2244.31,1126.66 2246.53,1126.64 2248.74,1126.63 2250.95,1126.61 2253.17,1126.6 2255.38,1126.58 2257.59,1126.57 2259.81,1126.55 2262.02,1126.54 2264.23,1126.53 2266.44,1126.51 2268.66,1126.5 2270.87,1126.48 2273.08,1126.47 2275.3,1126.45 2277.51,1126.44 2279.72,1126.43 2281.94,1126.41 2284.15,1126.4 2286.36,1126.39 2288.58,1126.37 2290.79,1126.36 2293,1126.35 2295.21,1126.33 2297.43,1126.32 2299.64,1126.31 2301.85,1126.3 2304.07,1126.28 2306.28,1126.27 2308.49,1126.26 2310.71,1126.25 2312.92,1126.23 2315.13,1126.22 2317.35,1126.21 2319.56,1126.2 2321.77,1126.19 2323.99,1126.17 2326.2,1126.16 2328.41,1126.15 2330.62,1126.14 2332.84,1126.13 2335.05,1126.12 2337.26,1126.11 2339.48,1126.09 2341.69,1126.08 2343.9,1126.07 2346.12,1126.06 2348.33,1126.05 2350.54,1126.04 2352.76,1126.03 "/>
<polyline clip-path="url(#clip741)" style="stroke:#3da44d; stroke-linecap:round; stroke-linejoin:round; stroke-width:20; stroke-opacity:1; fill:none" points="141.853,1384.24 144.066,1360.21 146.279,1339.68 148.492,1322.07 150.705,1306.94 152.919,1293.92 155.132,1282.68 157.345,1272.97 159.558,1264.58 161.771,1257.31 163.984,1251.02 166.197,1245.56 168.41,1240.82 170.623,1236.71 172.837,1233.15 175.05,1230.06 177.263,1227.38 179.476,1225.06 181.689,1223.05 183.902,1221.32 186.115,1219.81 188.328,1218.52 190.541,1217.41 192.755,1216.45 194.968,1215.64 197.181,1214.95 199.394,1214.36 201.607,1213.86 203.82,1213.45 206.033,1213.11 208.246,1212.83 210.46,1212.61 212.673,1212.43 214.886,1212.3 217.099,1212.2 219.312,1212.14 221.525,1212.11 223.738,1212.1 225.951,1212.12 228.164,1212.16 230.378,1212.21 232.591,1212.28 234.804,1212.36 237.017,1212.46 239.23,1212.56 241.443,1212.68 243.656,1212.8 245.869,1212.93 248.083,1213.07 250.296,1213.22 252.509,1213.37 254.722,1213.52 256.935,1213.68 259.148,1213.84 261.361,1214.01 263.574,1214.18 265.787,1214.35 268.001,1214.52 270.214,1214.7 272.427,1214.88 274.64,1215.06 276.853,1215.25 279.066,1215.43 281.279,1215.62 283.492,1215.8 285.705,1215.99 287.919,1216.18 290.132,1216.37 292.345,1216.56 294.558,1216.76 296.771,1216.95 298.984,1217.15 301.197,1217.34 303.41,1217.54 305.624,1217.74 307.837,1217.94 310.05,1218.14 312.263,1218.34 314.476,1218.54 316.689,1218.74 318.902,1218.94 321.115,1219.14 323.328,1219.35 325.542,1219.55 327.755,1219.76 329.968,1219.96 332.181,1220.17 334.394,1220.38 336.607,1220.59 338.82,1220.79 341.033,1221 343.247,1221.21 345.46,1221.42 347.673,1221.63 349.886,1221.84 352.099,1222.06 354.312,1222.27 356.525,1222.48 358.738,1222.69 360.951,1222.91 363.165,1223.12 365.378,1223.34 367.591,1223.55 369.804,1223.77 372.017,1223.99 374.23,1224.21 376.443,1224.43 378.656,1224.65 380.869,1224.87 383.083,1225.09 385.296,1225.31 387.509,1225.53 389.722,1225.76 391.935,1225.98 394.148,1226.2 396.361,1226.42 398.574,1226.65 400.788,1226.87 403.001,1227.1 405.214,1227.32 407.427,1227.55 409.64,1227.78 411.853,1228.01 414.066,1228.23 416.279,1228.47 418.492,1228.7 420.706,1228.93 422.919,1229.16 425.132,1229.39 427.345,1229.63 429.558,1229.86 431.771,1230.1 433.984,1230.33 436.197,1230.57 438.41,1230.8 440.624,1231.04 442.837,1231.28 445.05,1231.51 447.263,1231.75 449.476,1231.99 451.689,1232.22 453.902,1232.46 456.115,1232.7 458.329,1232.94 460.542,1233.19 462.755,1233.43 464.968,1233.67 467.181,1233.92 469.394,1234.16 471.607,1234.41 473.82,1234.66 476.033,1234.9 478.247,1235.15 480.46,1235.4 482.673,1235.65 484.886,1235.9 487.099,1236.15 489.312,1236.4 491.525,1236.65 493.738,1236.9 495.952,1237.16 498.165,1237.41 500.378,1237.66 502.591,1237.91 504.804,1238.16 507.017,1238.42 509.23,1238.67 511.443,1238.92 513.656,1239.18 515.87,1239.44 518.083,1239.7 520.296,1239.95 522.509,1240.21 524.722,1240.48 526.935,1240.74 529.148,1241 531.361,1241.26 533.574,1241.53 535.788,1241.79 538.001,1242.06 540.214,1242.33 542.427,1242.59 544.64,1242.86 546.853,1243.13 549.066,1243.39 551.279,1243.66 553.493,1243.93 555.706,1244.19 557.919,1244.46 560.132,1244.73 562.345,1244.99 564.558,1245.26 566.771,1245.53 568.984,1245.8 571.197,1246.07 573.411,1246.35 575.624,1246.62 577.837,1246.89 580.05,1247.17 582.263,1247.45 584.476,1247.72 586.689,1248 588.902,1248.28 591.116,1248.56 593.329,1248.84 595.542,1249.12 597.755,1249.41 599.968,1249.69 602.181,1249.97 604.394,1250.26 606.607,1250.54 608.82,1250.82 611.034,1251.1 613.247,1251.39 615.46,1251.67 617.673,1251.95 619.886,1252.24 622.099,1252.52 624.312,1252.8 626.525,1253.09 628.738,1253.37 630.952,1253.66 633.165,1253.95 635.378,1254.23 637.591,1254.52 639.804,1254.81 642.017,1255.1 644.23,1255.4 646.443,1255.69 648.657,1255.98 650.87,1256.28 653.083,1256.57 655.296,1256.87 657.509,1257.17 659.722,1257.46 661.935,1257.76 664.148,1258.06 666.361,1258.36 668.575,1258.66 670.788,1258.96 673.001,1259.26 675.214,1259.56 677.427,1259.85 679.64,1260.15 681.853,1260.45 684.066,1260.75 686.279,1261.05 688.493,1261.35 690.706,1261.64 692.919,1261.94 695.132,1262.25 697.345,1262.55 699.558,1262.85 701.771,1263.15 703.984,1263.46 706.198,1263.76 708.411,1264.07 710.624,1264.37 712.837,1264.68 715.05,1264.99 717.263,1265.3 719.476,1265.61 721.689,1265.92 723.902,1266.23 726.116,1266.54 728.329,1266.86 730.542,1267.17 732.755,1267.48 734.968,1267.8 737.181,1268.11 739.394,1268.42 741.607,1268.73 743.821,1269.05 746.034,1269.36 748.247,1269.67 750.46,1269.98 752.673,1270.29 754.886,1270.6 757.099,1270.91 759.312,1271.22 761.525,1271.54 763.739,1271.85 765.952,1272.16 768.165,1272.48 770.378,1272.79 772.591,1273.11 774.804,1273.43 777.017,1273.74 779.23,1274.06 781.443,1274.38 783.657,1274.7 785.87,1275.02 788.083,1275.34 790.296,1275.67 792.509,1275.99 794.722,1276.31 796.935,1276.63 799.148,1276.96 801.362,1277.28 803.575,1277.6 805.788,1277.93 808.001,1278.25 810.214,1278.57 812.427,1278.9 814.64,1279.22 816.853,1279.54 819.066,1279.86 821.28,1280.18 823.493,1280.5 825.706,1280.82 827.919,1281.14 830.132,1281.46 832.345,1281.78 834.558,1282.1 836.771,1282.43 838.985,1282.75 841.198,1283.07 843.411,1283.39 845.624,1283.72 847.837,1284.04 850.05,1284.37 852.263,1284.69 854.476,1285.02 856.689,1285.35 858.903,1285.67 861.116,1286 863.329,1286.33 865.542,1286.66 867.755,1286.99 869.968,1287.32 872.181,1287.65 874.394,1287.97 876.607,1288.3 878.821,1288.63 881.034,1288.96 883.247,1289.29 885.46,1289.61 887.673,1289.94 889.886,1290.27 892.099,1290.59 894.312,1290.92 896.526,1291.24 898.739,1291.56 900.952,1291.89 903.165,1292.21 905.378,1292.53 907.591,1292.86 909.804,1293.18 912.017,1293.51 914.23,1293.83 916.444,1294.15 918.657,1294.48 920.87,1294.81 923.083,1295.13 925.296,1295.46 927.509,1295.78 929.722,1296.11 931.935,1296.44 934.148,1296.76 936.362,1297.09 938.575,1297.42 940.788,1297.75 943.001,1298.07 945.214,1298.4 947.427,1298.73 949.64,1299.06 951.853,1299.38 954.067,1299.71 956.28,1300.04 958.493,1300.36 960.706,1300.69 962.919,1301.01 965.132,1301.33 967.345,1301.66 969.558,1301.98 971.771,1302.3 973.985,1302.62 976.198,1302.94 978.411,1303.26 980.624,1303.58 982.837,1303.89 985.05,1304.21 987.263,1304.53 989.476,1304.85 991.69,1305.17 993.903,1305.49 996.116,1305.81 998.329,1306.12 1000.54,1306.44 1002.76,1306.76 1004.97,1307.08 1007.18,1307.4 1009.39,1307.72 1011.61,1308.04 1013.82,1308.36 1016.03,1308.68 1018.25,1308.99 1020.46,1309.31 1022.67,1309.63 1024.89,1309.95 1027.1,1310.27 1029.31,1310.58 1031.53,1310.9 1033.74,1311.22 1035.95,1311.53 1038.16,1311.84 1040.38,1312.16 1042.59,1312.47 1044.8,1312.78 1047.02,1313.09 1049.23,1313.39 1051.44,1313.7 1053.66,1314 1055.87,1314.31 1058.08,1314.61 1060.3,1314.92 1062.51,1315.22 1064.72,1315.53 1066.94,1315.83 1069.15,1316.13 1071.36,1316.44 1073.57,1316.74 1075.79,1317.04 1078,1317.34 1080.21,1317.64 1082.43,1317.94 1084.64,1318.24 1086.85,1318.54 1089.07,1318.84 1091.28,1319.14 1093.49,1319.44 1095.71,1319.74 1097.92,1320.04 1100.13,1320.34 1102.35,1320.63 1104.56,1320.93 1106.77,1321.23 1108.98,1321.53 1111.2,1321.82 1113.41,1322.12 1115.62,1322.41 1117.84,1322.71 1120.05,1323 1122.26,1323.3 1124.48,1323.59 1126.69,1323.89 1128.9,1324.18 1131.12,1324.47 1133.33,1324.76 1135.54,1325.05 1137.76,1325.34 1139.97,1325.63 1142.18,1325.92 1144.39,1326.21 1146.61,1326.49 1148.82,1326.78 1151.03,1327.06 1153.25,1327.35 1155.46,1327.63 1157.67,1327.91 1159.89,1328.2 1162.1,1328.48 1164.31,1328.76 1166.53,1329.04 1168.74,1329.32 1170.95,1329.6 1173.17,1329.88 1175.38,1330.15 1177.59,1330.43 1179.8,1330.7 1182.02,1330.98 1184.23,1331.25 1186.44,1331.53 1188.66,1331.8 1190.87,1332.07 1193.08,1332.34 1195.3,1332.61 1197.51,1332.88 1199.72,1333.15 1201.94,1333.41 1204.15,1333.68 1206.36,1333.94 1208.57,1334.21 1210.79,1334.47 1213,1334.73 1215.21,1334.99 1217.43,1335.25 1219.64,1335.51 1221.85,1335.77 1224.07,1336.03 1226.28,1336.29 1228.49,1336.54 1230.71,1336.8 1232.92,1337.06 1235.13,1337.31 1237.35,1337.56 1239.56,1337.82 1241.77,1338.07 1243.98,1338.32 1246.2,1338.57 1248.41,1338.82 1250.62,1339.07 1252.84,1339.32 1255.05,1339.57 1257.26,1339.81 1259.48,1340.06 1261.69,1340.3 1263.9,1340.55 1266.12,1340.79 1268.33,1341.03 1270.54,1341.27 1272.76,1341.51 1274.97,1341.75 1277.18,1341.99 1279.39,1342.22 1281.61,1342.46 1283.82,1342.69 1286.03,1342.93 1288.25,1343.16 1290.46,1343.39 1292.67,1343.62 1294.89,1343.85 1297.1,1344.08 1299.31,1344.31 1301.53,1344.54 1303.74,1344.77 1305.95,1344.99 1308.17,1345.22 1310.38,1345.44 1312.59,1345.67 1314.8,1345.89 1317.02,1346.11 1319.23,1346.33 1321.44,1346.55 1323.66,1346.77 1325.87,1346.99 1328.08,1347.21 1330.3,1347.42 1332.51,1347.64 1334.72,1347.85 1336.94,1348.06 1339.15,1348.28 1341.36,1348.49 1343.57,1348.7 1345.79,1348.91 1348,1349.12 1350.21,1349.32 1352.43,1349.53 1354.64,1349.74 1356.85,1349.94 1359.07,1350.15 1361.28,1350.35 1363.49,1350.55 1365.71,1350.75 1367.92,1350.95 1370.13,1351.15 1372.35,1351.35 1374.56,1351.55 1376.77,1351.75 1378.98,1351.95 1381.2,1352.14 1383.41,1352.34 1385.62,1352.53 1387.84,1352.72 1390.05,1352.92 1392.26,1353.11 1394.48,1353.3 1396.69,1353.49 1398.9,1353.68 1401.12,1353.87 1403.33,1354.05 1405.54,1354.24 1407.76,1354.42 1409.97,1354.61 1412.18,1354.79 1414.39,1354.97 1416.61,1355.15 1418.82,1355.33 1421.03,1355.51 1423.25,1355.69 1425.46,1355.87 1427.67,1356.05 1429.89,1356.22 1432.1,1356.4 1434.31,1356.57 1436.53,1356.74 1438.74,1356.92 1440.95,1357.09 1443.17,1357.26 1445.38,1357.43 1447.59,1357.6 1449.8,1357.77 1452.02,1357.93 1454.23,1358.1 1456.44,1358.27 1458.66,1358.43 1460.87,1358.6 1463.08,1358.76 1465.3,1358.92 1467.51,1359.08 1469.72,1359.24 1471.94,1359.4 1474.15,1359.56 1476.36,1359.72 1478.58,1359.88 1480.79,1360.04 1483,1360.19 1485.21,1360.35 1487.43,1360.5 1489.64,1360.65 1491.85,1360.81 1494.07,1360.96 1496.28,1361.11 1498.49,1361.26 1500.71,1361.41 1502.92,1361.55 1505.13,1361.7 1507.35,1361.85 1509.56,1361.99 1511.77,1362.14 1513.98,1362.28 1516.2,1362.43 1518.41,1362.57 1520.62,1362.71 1522.84,1362.85 1525.05,1362.99 1527.26,1363.13 1529.48,1363.27 1531.69,1363.41 1533.9,1363.55 1536.12,1363.68 1538.33,1363.82 1540.54,1363.95 1542.76,1364.09 1544.97,1364.22 1547.18,1364.35 1549.39,1364.49 1551.61,1364.62 1553.82,1364.75 1556.03,1364.88 1558.25,1365.01 1560.46,1365.14 1562.67,1365.27 1564.89,1365.39 1567.1,1365.52 1569.31,1365.64 1571.53,1365.77 1573.74,1365.89 1575.95,1366.02 1578.17,1366.14 1580.38,1366.26 1582.59,1366.38 1584.8,1366.5 1587.02,1366.62 1589.23,1366.74 1591.44,1366.86 1593.66,1366.97 1595.87,1367.09 1598.08,1367.21 1600.3,1367.32 1602.51,1367.44 1604.72,1367.55 1606.94,1367.66 1609.15,1367.77 1611.36,1367.89 1613.58,1368 1615.79,1368.11 1618,1368.22 1620.21,1368.33 1622.43,1368.44 1624.64,1368.54 1626.85,1368.65 1629.07,1368.76 1631.28,1368.86 1633.49,1368.97 1635.71,1369.08 1637.92,1369.18 1640.13,1369.28 1642.35,1369.39 1644.56,1369.49 1646.77,1369.59 1648.98,1369.69 1651.2,1369.79 1653.41,1369.89 1655.62,1369.99 1657.84,1370.09 1660.05,1370.19 1662.26,1370.29 1664.48,1370.38 1666.69,1370.48 1668.9,1370.57 1671.12,1370.67 1673.33,1370.76 1675.54,1370.86 1677.76,1370.95 1679.97,1371.04 1682.18,1371.13 1684.39,1371.22 1686.61,1371.31 1688.82,1371.4 1691.03,1371.49 1693.25,1371.58 1695.46,1371.67 1697.67,1371.76 1699.89,1371.84 1702.1,1371.93 1704.31,1372.02 1706.53,1372.1 1708.74,1372.19 1710.95,1372.27 1713.17,1372.36 1715.38,1372.44 1717.59,1372.52 1719.8,1372.61 1722.02,1372.69 1724.23,1372.77 1726.44,1372.85 1728.66,1372.93 1730.87,1373.01 1733.08,1373.09 1735.3,1373.17 1737.51,1373.25 1739.72,1373.33 1741.94,1373.4 1744.15,1373.48 1746.36,1373.56 1748.58,1373.63 1750.79,1373.71 1753,1373.78 1755.21,1373.86 1757.43,1373.93 1759.64,1374 1761.85,1374.08 1764.07,1374.15 1766.28,1374.22 1768.49,1374.29 1770.71,1374.36 1772.92,1374.43 1775.13,1374.5 1777.35,1374.57 1779.56,1374.64 1781.77,1374.71 1783.99,1374.78 1786.2,1374.84 1788.41,1374.91 1790.62,1374.98 1792.84,1375.04 1795.05,1375.11 1797.26,1375.17 1799.48,1375.24 1801.69,1375.3 1803.9,1375.37 1806.12,1375.43 1808.33,1375.49 1810.54,1375.56 1812.76,1375.62 1814.97,1375.68 1817.18,1375.74 1819.39,1375.8 1821.61,1375.86 1823.82,1375.92 1826.03,1375.98 1828.25,1376.04 1830.46,1376.1 1832.67,1376.16 1834.89,1376.22 1837.1,1376.28 1839.31,1376.34 1841.53,1376.39 1843.74,1376.45 1845.95,1376.51 1848.17,1376.56 1850.38,1376.62 1852.59,1376.67 1854.8,1376.73 1857.02,1376.78 1859.23,1376.84 1861.44,1376.89 1863.66,1376.94 1865.87,1377 1868.08,1377.05 1870.3,1377.1 1872.51,1377.15 1874.72,1377.2 1876.94,1377.26 1879.15,1377.31 1881.36,1377.36 1883.58,1377.41 1885.79,1377.46 1888,1377.5 1890.21,1377.55 1892.43,1377.6 1894.64,1377.65 1896.85,1377.7 1899.07,1377.75 1901.28,1377.79 1903.49,1377.84 1905.71,1377.89 1907.92,1377.93 1910.13,1377.98 1912.35,1378.02 1914.56,1378.07 1916.77,1378.12 1918.99,1378.16 1921.2,1378.2 1923.41,1378.25 1925.62,1378.29 1927.84,1378.34 1930.05,1378.38 1932.26,1378.42 1934.48,1378.47 1936.69,1378.51 1938.9,1378.55 1941.12,1378.59 1943.33,1378.63 1945.54,1378.67 1947.76,1378.72 1949.97,1378.76 1952.18,1378.8 1954.4,1378.84 1956.61,1378.88 1958.82,1378.92 1961.03,1378.96 1963.25,1378.99 1965.46,1379.03 1967.67,1379.07 1969.89,1379.11 1972.1,1379.15 1974.31,1379.18 1976.53,1379.22 1978.74,1379.26 1980.95,1379.29 1983.17,1379.33 1985.38,1379.37 1987.59,1379.4 1989.8,1379.44 1992.02,1379.47 1994.23,1379.51 1996.44,1379.54 1998.66,1379.58 2000.87,1379.61 2003.08,1379.65 2005.3,1379.68 2007.51,1379.71 2009.72,1379.75 2011.94,1379.78 2014.15,1379.81 2016.36,1379.85 2018.58,1379.88 2020.79,1379.91 2023,1379.94 2025.21,1379.97 2027.43,1380.01 2029.64,1380.04 2031.85,1380.07 2034.07,1380.1 2036.28,1380.13 2038.49,1380.16 2040.71,1380.19 2042.92,1380.22 2045.13,1380.25 2047.35,1380.28 2049.56,1380.31 2051.77,1380.34 2053.99,1380.37 2056.2,1380.4 2058.41,1380.43 2060.62,1380.45 2062.84,1380.48 2065.05,1380.51 2067.26,1380.54 2069.48,1380.57 2071.69,1380.59 2073.9,1380.62 2076.12,1380.65 2078.33,1380.67 2080.54,1380.7 2082.76,1380.73 2084.97,1380.75 2087.18,1380.78 2089.4,1380.8 2091.61,1380.83 2093.82,1380.85 2096.03,1380.88 2098.25,1380.9 2100.46,1380.93 2102.67,1380.95 2104.89,1380.98 2107.1,1381 2109.31,1381.03 2111.53,1381.05 2113.74,1381.07 2115.95,1381.1 2118.17,1381.12 2120.38,1381.14 2122.59,1381.17 2124.8,1381.19 2127.02,1381.21 2129.23,1381.24 2131.44,1381.26 2133.66,1381.28 2135.87,1381.3 2138.08,1381.32 2140.3,1381.35 2142.51,1381.37 2144.72,1381.39 2146.94,1381.41 2149.15,1381.43 2151.36,1381.45 2153.58,1381.47 2155.79,1381.49 2158,1381.52 2160.21,1381.54 2162.43,1381.56 2164.64,1381.58 2166.85,1381.6 2169.07,1381.62 2171.28,1381.64 2173.49,1381.66 2175.71,1381.67 2177.92,1381.69 2180.13,1381.71 2182.35,1381.73 2184.56,1381.75 2186.77,1381.77 2188.99,1381.79 2191.2,1381.81 2193.41,1381.82 2195.62,1381.84 2197.84,1381.86 2200.05,1381.88 2202.26,1381.9 2204.48,1381.91 2206.69,1381.93 2208.9,1381.95 2211.12,1381.97 2213.33,1381.98 2215.54,1382 2217.76,1382.02 2219.97,1382.03 2222.18,1382.05 2224.4,1382.07 2226.61,1382.08 2228.82,1382.1 2231.03,1382.11 2233.25,1382.13 2235.46,1382.15 2237.67,1382.16 2239.89,1382.18 2242.1,1382.19 2244.31,1382.21 2246.53,1382.22 2248.74,1382.24 2250.95,1382.25 2253.17,1382.27 2255.38,1382.28 2257.59,1382.3 2259.81,1382.31 2262.02,1382.33 2264.23,1382.34 2266.44,1382.36 2268.66,1382.37 2270.87,1382.38 2273.08,1382.4 2275.3,1382.41 2277.51,1382.43 2279.72,1382.44 2281.94,1382.45 2284.15,1382.47 2286.36,1382.48 2288.58,1382.49 2290.79,1382.51 2293,1382.52 2295.21,1382.53 2297.43,1382.54 2299.64,1382.56 2301.85,1382.57 2304.07,1382.58 2306.28,1382.6 2308.49,1382.61 2310.71,1382.62 2312.92,1382.63 2315.13,1382.64 2317.35,1382.66 2319.56,1382.67 2321.77,1382.68 2323.99,1382.69 2326.2,1382.7 2328.41,1382.71 2330.62,1382.73 2332.84,1382.74 2335.05,1382.75 2337.26,1382.76 2339.48,1382.77 2341.69,1382.78 2343.9,1382.79 2346.12,1382.8 2348.33,1382.82 2350.54,1382.83 2352.76,1382.84 "/>
<polyline clip-path="url(#clip741)" style="stroke:#c271d2; stroke-linecap:round; stroke-linejoin:round; stroke-width:20; stroke-opacity:1; fill:none" points="141.853,1384.24 144.066,1383.99 146.279,1383.3 148.492,1382.23 150.705,1380.83 152.919,1379.15 155.132,1377.22 157.345,1375.09 159.558,1372.78 161.771,1370.31 163.984,1367.7 166.197,1364.98 168.41,1362.15 170.623,1359.24 172.837,1356.25 175.05,1353.19 177.263,1350.08 179.476,1346.91 181.689,1343.71 183.902,1340.46 186.115,1337.19 188.328,1333.88 190.541,1330.55 192.755,1327.2 194.968,1323.83 197.181,1320.45 199.394,1317.06 201.607,1313.65 203.82,1310.24 206.033,1306.81 208.246,1303.38 210.46,1299.95 212.673,1296.51 214.886,1293.07 217.099,1289.63 219.312,1286.18 221.525,1282.74 223.738,1279.29 225.951,1275.84 228.164,1272.4 230.378,1268.95 232.591,1265.51 234.804,1262.07 237.017,1258.63 239.23,1255.19 241.443,1251.76 243.656,1248.32 245.869,1244.89 248.083,1241.46 250.296,1238.04 252.509,1234.62 254.722,1231.2 256.935,1227.78 259.148,1224.37 261.361,1220.96 263.574,1217.55 265.787,1214.15 268.001,1210.75 270.214,1207.35 272.427,1203.96 274.64,1200.57 276.853,1197.19 279.066,1193.8 281.279,1190.43 283.492,1187.05 285.705,1183.68 287.919,1180.32 290.132,1176.95 292.345,1173.6 294.558,1170.24 296.771,1166.89 298.984,1163.54 301.197,1160.2 303.41,1156.86 305.624,1153.52 307.837,1150.19 310.05,1146.87 312.263,1143.54 314.476,1140.22 316.689,1136.91 318.902,1133.6 321.115,1130.29 323.328,1126.99 325.542,1123.69 327.755,1120.39 329.968,1117.1 332.181,1113.82 334.394,1110.53 336.607,1107.25 338.82,1103.98 341.033,1100.71 343.247,1097.44 345.46,1094.18 347.673,1090.92 349.886,1087.67 352.099,1084.42 354.312,1081.18 356.525,1077.94 358.738,1074.7 360.951,1071.47 363.165,1068.24 365.378,1065.02 367.591,1061.8 369.804,1058.58 372.017,1055.37 374.23,1052.17 376.443,1048.97 378.656,1045.77 380.869,1042.58 383.083,1039.39 385.296,1036.2 387.509,1033.02 389.722,1029.85 391.935,1026.68 394.148,1023.51 396.361,1020.35 398.574,1017.19 400.788,1014.04 403.001,1010.89 405.214,1007.75 407.427,1004.61 409.64,1001.48 411.853,998.347 414.066,995.221 416.279,992.1 418.492,988.984 420.706,985.872 422.919,982.765 425.132,979.662 427.345,976.564 429.558,973.471 431.771,970.383 433.984,967.299 436.197,964.22 438.41,961.146 440.624,958.076 442.837,955.012 445.05,951.952 447.263,948.897 449.476,945.847 451.689,942.802 453.902,939.761 456.115,936.726 458.329,933.694 460.542,930.668 462.755,927.647 464.968,924.63 467.181,921.618 469.394,918.611 471.607,915.609 473.82,912.612 476.033,909.619 478.247,906.632 480.46,903.649 482.673,900.671 484.886,897.699 487.099,894.731 489.312,891.769 491.525,888.812 493.738,885.859 495.952,882.912 498.165,879.971 500.378,877.034 502.591,874.102 504.804,871.176 507.017,868.254 509.23,865.338 511.443,862.427 513.656,859.52 515.87,856.619 518.083,853.723 520.296,850.832 522.509,847.946 524.722,845.065 526.935,842.19 529.148,839.319 531.361,836.454 533.574,833.594 535.788,830.739 538.001,827.889 540.214,825.045 542.427,822.206 544.64,819.372 546.853,816.544 549.066,813.722 551.279,810.905 553.493,808.093 555.706,805.287 557.919,802.487 560.132,799.691 562.345,796.902 564.558,794.117 566.771,791.338 568.984,788.565 571.197,785.796 573.411,783.033 575.624,780.276 577.837,777.524 580.05,774.777 582.263,772.036 584.476,769.3 586.689,766.569 588.902,763.845 591.116,761.125 593.329,758.411 595.542,755.703 597.755,753 599.968,750.303 602.181,747.611 604.394,744.925 606.607,742.245 608.82,739.571 611.034,736.903 613.247,734.241 615.46,731.584 617.673,728.933 619.886,726.288 622.099,723.649 624.312,721.015 626.525,718.388 628.738,715.765 630.952,713.149 633.165,710.538 635.378,707.933 637.591,705.334 639.804,702.74 642.017,700.152 644.23,697.57 646.443,694.994 648.657,692.423 650.87,689.858 653.083,687.299 655.296,684.745 657.509,682.198 659.722,679.656 661.935,677.12 664.148,674.59 666.361,672.067 668.575,669.549 670.788,667.037 673.001,664.532 675.214,662.032 677.427,659.539 679.64,657.052 681.853,654.571 684.066,652.097 686.279,649.628 688.493,647.165 690.706,644.709 692.919,642.258 695.132,639.814 697.345,637.375 699.558,634.943 701.771,632.516 703.984,630.095 706.198,627.681 708.411,625.272 710.624,622.87 712.837,620.473 715.05,618.082 717.263,615.698 719.476,613.319 721.689,610.947 723.902,608.581 726.116,606.22 728.329,603.866 730.542,601.519 732.755,599.177 734.968,596.842 737.181,594.513 739.394,592.191 741.607,589.875 743.821,587.566 746.034,585.263 748.247,582.966 750.46,580.676 752.673,578.392 754.886,576.115 757.099,573.844 759.312,571.579 761.525,569.32 763.739,567.068 765.952,564.822 768.165,562.582 770.378,560.348 772.591,558.121 774.804,555.9 777.017,553.685 779.23,551.476 781.443,549.274 783.657,547.077 785.87,544.888 788.083,542.704 790.296,540.526 792.509,538.355 794.722,536.191 796.935,534.032 799.148,531.88 801.362,529.735 803.575,527.596 805.788,525.463 808.001,523.338 810.214,521.218 812.427,519.106 814.64,517 816.853,514.901 819.066,512.808 821.28,510.722 823.493,508.643 825.706,506.57 827.919,504.503 830.132,502.443 832.345,500.39 834.558,498.343 836.771,496.302 838.985,494.268 841.198,492.24 843.411,490.218 845.624,488.203 847.837,486.195 850.05,484.192 852.263,482.196 854.476,480.207 856.689,478.223 858.903,476.247 861.116,474.276 863.329,472.312 865.542,470.355 867.755,468.404 869.968,466.459 872.181,464.521 874.394,462.59 876.607,460.665 878.821,458.746 881.034,456.835 883.247,454.93 885.46,453.032 887.673,451.14 889.886,449.256 892.099,447.378 894.312,445.507 896.526,443.642 898.739,441.784 900.952,439.933 903.165,438.088 905.378,436.25 907.591,434.418 909.804,432.593 912.017,430.774 914.23,428.961 916.444,427.155 918.657,425.356 920.87,423.562 923.083,421.776 925.296,419.995 927.509,418.221 929.722,416.454 931.935,414.693 934.148,412.938 936.362,411.189 938.575,409.447 940.788,407.712 943.001,405.983 945.214,404.26 947.427,402.544 949.64,400.835 951.853,399.132 954.067,397.435 956.28,395.745 958.493,394.062 960.706,392.385 962.919,390.716 965.132,389.052 967.345,387.396 969.558,385.746 971.771,384.103 973.985,382.466 976.198,380.836 978.411,379.212 980.624,377.595 982.837,375.984 985.05,374.38 987.263,372.781 989.476,371.19 991.69,369.604 993.903,368.025 996.116,366.452 998.329,364.886 1000.54,363.326 1002.76,361.772 1004.97,360.224 1007.18,358.683 1009.39,357.147 1011.61,355.618 1013.82,354.096 1016.03,352.579 1018.25,351.069 1020.46,349.565 1022.67,348.068 1024.89,346.576 1027.1,345.091 1029.31,343.613 1031.53,342.14 1033.74,340.674 1035.95,339.215 1038.16,337.762 1040.38,336.315 1042.59,334.875 1044.8,333.441 1047.02,332.014 1049.23,330.593 1051.44,329.178 1053.66,327.769 1055.87,326.366 1058.08,324.969 1060.3,323.578 1062.51,322.193 1064.72,320.814 1066.94,319.442 1069.15,318.075 1071.36,316.714 1073.57,315.359 1075.79,314.01 1078,312.667 1080.21,311.33 1082.43,309.999 1084.64,308.674 1086.85,307.356 1089.07,306.043 1091.28,304.736 1093.49,303.435 1095.71,302.14 1097.92,300.851 1100.13,299.568 1102.35,298.292 1104.56,297.021 1106.77,295.756 1108.98,294.497 1111.2,293.244 1113.41,291.997 1115.62,290.757 1117.84,289.522 1120.05,288.293 1122.26,287.071 1124.48,285.854 1126.69,284.643 1128.9,283.437 1131.12,282.237 1133.33,281.043 1135.54,279.855 1137.76,278.673 1139.97,277.496 1142.18,276.325 1144.39,275.16 1146.61,274 1148.82,272.847 1151.03,271.699 1153.25,270.556 1155.46,269.42 1157.67,268.289 1159.89,267.164 1162.1,266.045 1164.31,264.932 1166.53,263.824 1168.74,262.721 1170.95,261.625 1173.17,260.534 1175.38,259.448 1177.59,258.368 1179.8,257.293 1182.02,256.224 1184.23,255.161 1186.44,254.103 1188.66,253.05 1190.87,252.003 1193.08,250.961 1195.3,249.925 1197.51,248.894 1199.72,247.869 1201.94,246.849 1204.15,245.834 1206.36,244.825 1208.57,243.821 1210.79,242.822 1213,241.828 1215.21,240.84 1217.43,239.857 1219.64,238.88 1221.85,237.907 1224.07,236.939 1226.28,235.977 1228.49,235.02 1230.71,234.068 1232.92,233.121 1235.13,232.179 1237.35,231.242 1239.56,230.31 1241.77,229.383 1243.98,228.461 1246.2,227.544 1248.41,226.632 1250.62,225.725 1252.84,224.823 1255.05,223.926 1257.26,223.034 1259.48,222.147 1261.69,221.264 1263.9,220.387 1266.12,219.514 1268.33,218.647 1270.54,217.784 1272.76,216.926 1274.97,216.073 1277.18,215.224 1279.39,214.381 1281.61,213.542 1283.82,212.708 1286.03,211.879 1288.25,211.054 1290.46,210.234 1292.67,209.419 1294.89,208.608 1297.1,207.802 1299.31,207 1301.53,206.203 1303.74,205.411 1305.95,204.623 1308.17,203.84 1310.38,203.061 1312.59,202.286 1314.8,201.516 1317.02,200.751 1319.23,199.989 1321.44,199.233 1323.66,198.48 1325.87,197.732 1328.08,196.989 1330.3,196.249 1332.51,195.514 1334.72,194.784 1336.94,194.058 1339.15,193.336 1341.36,192.618 1343.57,191.904 1345.79,191.195 1348,190.49 1350.21,189.789 1352.43,189.093 1354.64,188.4 1356.85,187.711 1359.07,187.027 1361.28,186.347 1363.49,185.671 1365.71,184.998 1367.92,184.33 1370.13,183.666 1372.35,183.006 1374.56,182.349 1376.77,181.697 1378.98,181.048 1381.2,180.404 1383.41,179.763 1385.62,179.126 1387.84,178.493 1390.05,177.864 1392.26,177.239 1394.48,176.617 1396.69,175.999 1398.9,175.386 1401.12,174.775 1403.33,174.169 1405.54,173.566 1407.76,172.967 1409.97,172.372 1412.18,171.781 1414.39,171.193 1416.61,170.609 1418.82,170.029 1421.03,169.452 1423.25,168.879 1425.46,168.309 1427.67,167.743 1429.89,167.18 1432.1,166.621 1434.31,166.066 1436.53,165.514 1438.74,164.965 1440.95,164.42 1443.17,163.878 1445.38,163.34 1447.59,162.805 1449.8,162.273 1452.02,161.745 1454.23,161.22 1456.44,160.698 1458.66,160.18 1460.87,159.665 1463.08,159.153 1465.3,158.645 1467.51,158.139 1469.72,157.637 1471.94,157.138 1474.15,156.643 1476.36,156.15 1478.58,155.661 1480.79,155.175 1483,154.692 1485.21,154.212 1487.43,153.735 1489.64,153.261 1491.85,152.791 1494.07,152.323 1496.28,151.858 1498.49,151.397 1500.71,150.939 1502.92,150.483 1505.13,150.031 1507.35,149.581 1509.56,149.134 1511.77,148.691 1513.98,148.25 1516.2,147.812 1518.41,147.377 1520.62,146.944 1522.84,146.515 1525.05,146.088 1527.26,145.664 1529.48,145.243 1531.69,144.825 1533.9,144.409 1536.12,143.996 1538.33,143.586 1540.54,143.179 1542.76,142.774 1544.97,142.372 1547.18,141.972 1549.39,141.575 1551.61,141.181 1553.82,140.79 1556.03,140.401 1558.25,140.014 1560.46,139.63 1562.67,139.249 1564.89,138.87 1567.1,138.494 1569.31,138.12 1571.53,137.749 1573.74,137.381 1575.95,137.015 1578.17,136.651 1580.38,136.29 1582.59,135.931 1584.8,135.575 1587.02,135.221 1589.23,134.87 1591.44,134.521 1593.66,134.174 1595.87,133.83 1598.08,133.488 1600.3,133.148 1602.51,132.81 1604.72,132.475 1606.94,132.142 1609.15,131.812 1611.36,131.483 1613.58,131.157 1615.79,130.833 1618,130.511 1620.21,130.192 1622.43,129.874 1624.64,129.559 1626.85,129.246 1629.07,128.935 1631.28,128.626 1633.49,128.319 1635.71,128.015 1637.92,127.712 1640.13,127.412 1642.35,127.113 1644.56,126.817 1646.77,126.522 1648.98,126.23 1651.2,125.94 1653.41,125.651 1655.62,125.365 1657.84,125.081 1660.05,124.798 1662.26,124.518 1664.48,124.24 1666.69,123.963 1668.9,123.689 1671.12,123.416 1673.33,123.145 1675.54,122.877 1677.76,122.61 1679.97,122.345 1682.18,122.081 1684.39,121.82 1686.61,121.56 1688.82,121.303 1691.03,121.047 1693.25,120.793 1695.46,120.54 1697.67,120.289 1699.89,120.041 1702.1,119.793 1704.31,119.548 1706.53,119.304 1708.74,119.062 1710.95,118.822 1713.17,118.583 1715.38,118.346 1717.59,118.111 1719.8,117.877 1722.02,117.645 1724.23,117.414 1726.44,117.186 1728.66,116.958 1730.87,116.733 1733.08,116.509 1735.3,116.286 1737.51,116.065 1739.72,115.846 1741.94,115.628 1744.15,115.412 1746.36,115.197 1748.58,114.984 1750.79,114.772 1753,114.562 1755.21,114.353 1757.43,114.146 1759.64,113.94 1761.85,113.736 1764.07,113.534 1766.28,113.332 1768.49,113.132 1770.71,112.934 1772.92,112.737 1775.13,112.542 1777.35,112.347 1779.56,112.155 1781.77,111.963 1783.99,111.773 1786.2,111.584 1788.41,111.397 1790.62,111.211 1792.84,111.026 1795.05,110.843 1797.26,110.661 1799.48,110.48 1801.69,110.301 1803.9,110.122 1806.12,109.946 1808.33,109.77 1810.54,109.595 1812.76,109.422 1814.97,109.25 1817.18,109.08 1819.39,108.91 1821.61,108.742 1823.82,108.575 1826.03,108.409 1828.25,108.244 1830.46,108.081 1832.67,107.918 1834.89,107.757 1837.1,107.597 1839.31,107.438 1841.53,107.281 1843.74,107.124 1845.95,106.969 1848.17,106.814 1850.38,106.661 1852.59,106.509 1854.8,106.358 1857.02,106.208 1859.23,106.06 1861.44,105.912 1863.66,105.766 1865.87,105.62 1868.08,105.476 1870.3,105.332 1872.51,105.19 1874.72,105.049 1876.94,104.908 1879.15,104.769 1881.36,104.631 1883.58,104.494 1885.79,104.357 1888,104.222 1890.21,104.088 1892.43,103.955 1894.64,103.822 1896.85,103.691 1899.07,103.561 1901.28,103.431 1903.49,103.303 1905.71,103.175 1907.92,103.048 1910.13,102.923 1912.35,102.798 1914.56,102.674 1916.77,102.551 1918.99,102.429 1921.2,102.307 1923.41,102.187 1925.62,102.067 1927.84,101.949 1930.05,101.831 1932.26,101.714 1934.48,101.598 1936.69,101.483 1938.9,101.369 1941.12,101.255 1943.33,101.142 1945.54,101.031 1947.76,100.919 1949.97,100.809 1952.18,100.7 1954.4,100.591 1956.61,100.483 1958.82,100.376 1961.03,100.27 1963.25,100.165 1965.46,100.06 1967.67,99.9564 1969.89,99.8534 1972.1,99.7511 1974.31,99.6495 1976.53,99.5487 1978.74,99.4487 1980.95,99.3493 1983.17,99.2508 1985.38,99.1529 1987.59,99.0558 1989.8,98.9594 1992.02,98.8636 1994.23,98.7686 1996.44,98.6743 1998.66,98.5807 2000.87,98.4878 2003.08,98.3956 2005.3,98.304 2007.51,98.2131 2009.72,98.1229 2011.94,98.0333 2014.15,97.9444 2016.36,97.8562 2018.58,97.7686 2020.79,97.6816 2023,97.5953 2025.21,97.5096 2027.43,97.4246 2029.64,97.3402 2031.85,97.2564 2034.07,97.1732 2036.28,97.0906 2038.49,97.0086 2040.71,96.9273 2042.92,96.8465 2045.13,96.7664 2047.35,96.6868 2049.56,96.6078 2051.77,96.5294 2053.99,96.4516 2056.2,96.3744 2058.41,96.2977 2060.62,96.2216 2062.84,96.1461 2065.05,96.0712 2067.26,95.9968 2069.48,95.923 2071.69,95.8497 2073.9,95.777 2076.12,95.7048 2078.33,95.6331 2080.54,95.5621 2082.76,95.4915 2084.97,95.4215 2087.18,95.3519 2089.4,95.283 2091.61,95.2145 2093.82,95.1465 2096.03,95.0791 2098.25,95.0121 2100.46,94.9456 2102.67,94.8797 2104.89,94.8142 2107.1,94.7492 2109.31,94.6847 2111.53,94.6207 2113.74,94.5571 2115.95,94.494 2118.17,94.4314 2120.38,94.3693 2122.59,94.3076 2124.8,94.2464 2127.02,94.1856 2129.23,94.1253 2131.44,94.0654 2133.66,94.006 2135.87,93.947 2138.08,93.8884 2140.3,93.8303 2142.51,93.7726 2144.72,93.7154 2146.94,93.6585 2149.15,93.6021 2151.36,93.5461 2153.58,93.4906 2155.79,93.4354 2158,93.3807 2160.21,93.3263 2162.43,93.2724 2164.64,93.2189 2166.85,93.1657 2169.07,93.113 2171.28,93.0607 2173.49,93.0087 2175.71,92.9572 2177.92,92.906 2180.13,92.8552 2182.35,92.8048 2184.56,92.7548 2186.77,92.7052 2188.99,92.6559 2191.2,92.607 2193.41,92.5585 2195.62,92.5104 2197.84,92.4626 2200.05,92.4152 2202.26,92.3681 2204.48,92.3214 2206.69,92.2751 2208.9,92.2291 2211.12,92.1834 2213.33,92.1381 2215.54,92.0931 2217.76,92.0484 2219.97,92.0041 2222.18,91.9602 2224.4,91.9165 2226.61,91.8732 2228.82,91.8302 2231.03,91.7875 2233.25,91.7452 2235.46,91.7031 2237.67,91.6614 2239.89,91.62 2242.1,91.5789 2244.31,91.5381 2246.53,91.4976 2248.74,91.4574 2250.95,91.4175 2253.17,91.3779 2255.38,91.3386 2257.59,91.2996 2259.81,91.2609 2262.02,91.2225 2264.23,91.1843 2266.44,91.1465 2268.66,91.1089 2270.87,91.0716 2273.08,91.0346 2275.3,90.9979 2277.51,90.9614 2279.72,90.9253 2281.94,90.8894 2284.15,90.8537 2286.36,90.8184 2288.58,90.7832 2290.79,90.7484 2293,90.7138 2295.21,90.6795 2297.43,90.6455 2299.64,90.6117 2301.85,90.5781 2304.07,90.5448 2306.28,90.5118 2308.49,90.479 2310.71,90.4465 2312.92,90.4142 2315.13,90.3822 2317.35,90.3504 2319.56,90.3189 2321.77,90.2875 2323.99,90.2565 2326.2,90.2256 2328.41,90.195 2330.62,90.1646 2332.84,90.1345 2335.05,90.1046 2337.26,90.0749 2339.48,90.0454 2341.69,90.0161 2343.9,89.9871 2346.12,89.9583 2348.33,89.9297 2350.54,89.9013 2352.76,89.8731 "/>
<path clip-path="url(#clip740)" d="M215.55 352.309 L490.529 352.309 L490.529 93.1086 L215.55 93.1086  Z" fill="#ffffff" fill-rule="evenodd" fill-opacity="1"/>
<polyline clip-path="url(#clip740)" style="stroke:#000000; stroke-linecap:round; stroke-linejoin:round; stroke-width:4; stroke-opacity:1; fill:none" points="215.55,352.309 490.529,352.309 490.529,93.1086 215.55,93.1086 215.55,352.309 "/>
<polyline clip-path="url(#clip740)" style="stroke:#009af9; stroke-linecap:round; stroke-linejoin:round; stroke-width:20; stroke-opacity:1; fill:none" points="240.115,144.949 387.509,144.949 "/>
<path clip-path="url(#clip740)" d="M434.32 128.803 L434.32 133.363 Q431.658 132.09 429.297 131.465 Q426.935 130.84 424.736 130.84 Q420.917 130.84 418.834 132.321 Q416.773 133.803 416.773 136.534 Q416.773 138.826 418.139 140.007 Q419.528 141.164 423.371 141.882 L426.195 142.46 Q431.426 143.456 433.903 145.979 Q436.403 148.479 436.403 152.692 Q436.403 157.715 433.023 160.307 Q429.667 162.9 423.162 162.9 Q420.709 162.9 417.931 162.344 Q415.176 161.789 412.213 160.701 L412.213 155.886 Q415.061 157.483 417.792 158.293 Q420.523 159.104 423.162 159.104 Q427.167 159.104 429.343 157.53 Q431.519 155.956 431.519 153.039 Q431.519 150.493 429.945 149.057 Q428.394 147.622 424.829 146.905 L421.982 146.349 Q416.75 145.307 414.412 143.085 Q412.074 140.863 412.074 136.905 Q412.074 132.321 415.292 129.682 Q418.533 127.044 424.204 127.044 Q426.635 127.044 429.158 127.483 Q431.681 127.923 434.32 128.803 Z" fill="#000000" fill-rule="nonzero" fill-opacity="1" /><polyline clip-path="url(#clip740)" style="stroke:#e26f46; stroke-linecap:round; stroke-linejoin:round; stroke-width:20; stroke-opacity:1; fill:none" points="240.115,196.789 387.509,196.789 "/>
<path clip-path="url(#clip740)" d="M412.074 179.509 L433.926 179.509 L433.926 183.444 L416.75 183.444 L416.75 193.675 L433.209 193.675 L433.209 197.61 L416.75 197.61 L416.75 210.133 L434.343 210.133 L434.343 214.069 L412.074 214.069 L412.074 179.509 Z" fill="#000000" fill-rule="nonzero" fill-opacity="1" /><polyline clip-path="url(#clip740)" style="stroke:#3da44d; stroke-linecap:round; stroke-linejoin:round; stroke-width:20; stroke-opacity:1; fill:none" points="240.115,248.629 387.509,248.629 "/>
<path clip-path="url(#clip740)" d="M434.32 232.483 L434.32 237.043 Q431.658 235.77 429.297 235.145 Q426.935 234.52 424.736 234.52 Q420.917 234.52 418.834 236.001 Q416.773 237.483 416.773 240.214 Q416.773 242.506 418.139 243.687 Q419.528 244.844 423.371 245.562 L426.195 246.14 Q431.426 247.136 433.903 249.659 Q436.403 252.159 436.403 256.372 Q436.403 261.395 433.023 263.987 Q429.667 266.58 423.162 266.58 Q420.709 266.58 417.931 266.024 Q415.176 265.469 412.213 264.381 L412.213 259.566 Q415.061 261.163 417.792 261.973 Q420.523 262.784 423.162 262.784 Q427.167 262.784 429.343 261.21 Q431.519 259.636 431.519 256.719 Q431.519 254.173 429.945 252.737 Q428.394 251.302 424.829 250.585 L421.982 250.029 Q416.75 248.987 414.412 246.765 Q412.074 244.543 412.074 240.585 Q412.074 236.001 415.292 233.362 Q418.533 230.724 424.204 230.724 Q426.635 230.724 429.158 231.163 Q431.681 231.603 434.32 232.483 Z" fill="#000000" fill-rule="nonzero" fill-opacity="1" /><path clip-path="url(#clip740)" d="M443.695 231.349 L465.546 231.349 L465.546 235.284 L448.371 235.284 L448.371 245.515 L464.829 245.515 L464.829 249.45 L448.371 249.45 L448.371 261.973 L465.963 261.973 L465.963 265.909 L443.695 265.909 L443.695 231.349 Z" fill="#000000" fill-rule="nonzero" fill-opacity="1" /><polyline clip-path="url(#clip740)" style="stroke:#c271d2; stroke-linecap:round; stroke-linejoin:round; stroke-width:20; stroke-opacity:1; fill:none" points="240.115,300.469 387.509,300.469 "/>
<path clip-path="url(#clip740)" d="M416.75 287.031 L416.75 300.017 L422.63 300.017 Q425.894 300.017 427.676 298.327 Q429.459 296.638 429.459 293.513 Q429.459 290.411 427.676 288.721 Q425.894 287.031 422.63 287.031 L416.75 287.031 M412.074 283.189 L422.63 283.189 Q428.44 283.189 431.403 285.827 Q434.389 288.443 434.389 293.513 Q434.389 298.628 431.403 301.244 Q428.44 303.86 422.63 303.86 L416.75 303.86 L416.75 317.749 L412.074 317.749 L412.074 283.189 Z" fill="#000000" fill-rule="nonzero" fill-opacity="1" /></svg>
