<?xml version="1.0" encoding="utf-8"?>
<svg xmlns="http://www.w3.org/2000/svg" xmlns:xlink="http://www.w3.org/1999/xlink" width="800" height="400" viewBox="0 0 3200 1600">
<defs>
  <clipPath id="clip840">
    <rect x="0" y="0" width="3200" height="1600"/>
  </clipPath>
</defs>
<path clip-path="url(#clip840)" d="M0 1600 L3200 1600 L3200 0 L0 0  Z" fill="#ffffff" fill-rule="evenodd" fill-opacity="1"/>
<defs>
  <clipPath id="clip841">
    <rect x="640" y="0" width="2241" height="1600"/>
  </clipPath>
</defs>
<path clip-path="url(#clip840)" d="M194.274 1443.7 L3152.76 1443.7 L3152.76 47.2441 L194.274 47.2441  Z" fill="#ffffff" fill-rule="evenodd" fill-opacity="1"/>
<defs>
  <clipPath id="clip842">
    <rect x="194" y="47" width="2959" height="1397"/>
  </clipPath>
</defs>
<polyline clip-path="url(#clip842)" style="stroke:#000000; stroke-linecap:round; stroke-linejoin:round; stroke-width:2; stroke-opacity:0.1; fill:none" points="194.274,1443.7 194.274,47.2441 "/>
<polyline clip-path="url(#clip842)" style="stroke:#000000; stroke-linecap:round; stroke-linejoin:round; stroke-width:2; stroke-opacity:0.1; fill:none" points="785.97,1443.7 785.97,47.2441 "/>
<polyline clip-path="url(#clip842)" style="stroke:#000000; stroke-linecap:round; stroke-linejoin:round; stroke-width:2; stroke-opacity:0.1; fill:none" points="1377.67,1443.7 1377.67,47.2441 "/>
<polyline clip-path="url(#clip842)" style="stroke:#000000; stroke-linecap:round; stroke-linejoin:round; stroke-width:2; stroke-opacity:0.1; fill:none" points="1969.36,1443.7 1969.36,47.2441 "/>
<polyline clip-path="url(#clip842)" style="stroke:#000000; stroke-linecap:round; stroke-linejoin:round; stroke-width:2; stroke-opacity:0.1; fill:none" points="2561.06,1443.7 2561.06,47.2441 "/>
<polyline clip-path="url(#clip842)" style="stroke:#000000; stroke-linecap:round; stroke-linejoin:round; stroke-width:2; stroke-opacity:0.1; fill:none" points="3152.76,1443.7 3152.76,47.2441 "/>
<polyline clip-path="url(#clip842)" style="stroke:#000000; stroke-linecap:round; stroke-linejoin:round; stroke-width:2; stroke-opacity:0.1; fill:none" points="194.274,1443.7 194.274,47.2441 "/>
<polyline clip-path="url(#clip842)" style="stroke:#000000; stroke-linecap:round; stroke-linejoin:round; stroke-width:2; stroke-opacity:0.1; fill:none" points="785.97,1443.7 785.97,47.2441 "/>
<polyline clip-path="url(#clip842)" style="stroke:#000000; stroke-linecap:round; stroke-linejoin:round; stroke-width:2; stroke-opacity:0.1; fill:none" points="1377.67,1443.7 1377.67,47.2441 "/>
<polyline clip-path="url(#clip842)" style="stroke:#000000; stroke-linecap:round; stroke-linejoin:round; stroke-width:2; stroke-opacity:0.1; fill:none" points="1969.36,1443.7 1969.36,47.2441 "/>
<polyline clip-path="url(#clip842)" style="stroke:#000000; stroke-linecap:round; stroke-linejoin:round; stroke-width:2; stroke-opacity:0.1; fill:none" points="2561.06,1443.7 2561.06,47.2441 "/>
<polyline clip-path="url(#clip842)" style="stroke:#000000; stroke-linecap:round; stroke-linejoin:round; stroke-width:2; stroke-opacity:0.1; fill:none" points="3152.76,1443.7 3152.76,47.2441 "/>
<polyline clip-path="url(#clip842)" style="stroke:#000000; stroke-linecap:round; stroke-linejoin:round; stroke-width:2; stroke-opacity:0.1; fill:none" points="194.274,1404.18 3152.76,1404.18 "/>
<polyline clip-path="url(#clip842)" style="stroke:#000000; stroke-linecap:round; stroke-linejoin:round; stroke-width:2; stroke-opacity:0.1; fill:none" points="194.274,1074.82 3152.76,1074.82 "/>
<polyline clip-path="url(#clip842)" style="stroke:#000000; stroke-linecap:round; stroke-linejoin:round; stroke-width:2; stroke-opacity:0.1; fill:none" points="194.274,745.472 3152.76,745.472 "/>
<polyline clip-path="url(#clip842)" style="stroke:#000000; stroke-linecap:round; stroke-linejoin:round; stroke-width:2; stroke-opacity:0.1; fill:none" points="194.274,416.119 3152.76,416.119 "/>
<polyline clip-path="url(#clip842)" style="stroke:#000000; stroke-linecap:round; stroke-linejoin:round; stroke-width:2; stroke-opacity:0.1; fill:none" points="194.274,86.7664 3152.76,86.7664 "/>
<polyline clip-path="url(#clip842)" style="stroke:#000000; stroke-linecap:round; stroke-linejoin:round; stroke-width:2; stroke-opacity:0.1; fill:none" points="194.274,1404.18 3152.76,1404.18 "/>
<polyline clip-path="url(#clip842)" style="stroke:#000000; stroke-linecap:round; stroke-linejoin:round; stroke-width:2; stroke-opacity:0.1; fill:none" points="194.274,1074.82 3152.76,1074.82 "/>
<polyline clip-path="url(#clip842)" style="stroke:#000000; stroke-linecap:round; stroke-linejoin:round; stroke-width:2; stroke-opacity:0.1; fill:none" points="194.274,745.472 3152.76,745.472 "/>
<polyline clip-path="url(#clip842)" style="stroke:#000000; stroke-linecap:round; stroke-linejoin:round; stroke-width:2; stroke-opacity:0.1; fill:none" points="194.274,416.119 3152.76,416.119 "/>
<polyline clip-path="url(#clip842)" style="stroke:#000000; stroke-linecap:round; stroke-linejoin:round; stroke-width:2; stroke-opacity:0.1; fill:none" points="194.274,86.7664 3152.76,86.7664 "/>
<polyline clip-path="url(#clip840)" style="stroke:#000000; stroke-linecap:round; stroke-linejoin:round; stroke-width:4; stroke-opacity:1; fill:none" points="194.274,1443.7 3152.76,1443.7 "/>
<polyline clip-path="url(#clip840)" style="stroke:#000000; stroke-linecap:round; stroke-linejoin:round; stroke-width:4; stroke-opacity:1; fill:none" points="194.274,47.2441 3152.76,47.2441 "/>
<polyline clip-path="url(#clip840)" style="stroke:#000000; stroke-linecap:round; stroke-linejoin:round; stroke-width:4; stroke-opacity:1; fill:none" points="194.274,1443.7 194.274,1424.8 "/>
<polyline clip-path="url(#clip840)" style="stroke:#000000; stroke-linecap:round; stroke-linejoin:round; stroke-width:4; stroke-opacity:1; fill:none" points="785.97,1443.7 785.97,1424.8 "/>
<polyline clip-path="url(#clip840)" style="stroke:#000000; stroke-linecap:round; stroke-linejoin:round; stroke-width:4; stroke-opacity:1; fill:none" points="1377.67,1443.7 1377.67,1424.8 "/>
<polyline clip-path="url(#clip840)" style="stroke:#000000; stroke-linecap:round; stroke-linejoin:round; stroke-width:4; stroke-opacity:1; fill:none" points="1969.36,1443.7 1969.36,1424.8 "/>
<polyline clip-path="url(#clip840)" style="stroke:#000000; stroke-linecap:round; stroke-linejoin:round; stroke-width:4; stroke-opacity:1; fill:none" points="2561.06,1443.7 2561.06,1424.8 "/>
<polyline clip-path="url(#clip840)" style="stroke:#000000; stroke-linecap:round; stroke-linejoin:round; stroke-width:4; stroke-opacity:1; fill:none" points="3152.76,1443.7 3152.76,1424.8 "/>
<polyline clip-path="url(#clip840)" style="stroke:#000000; stroke-linecap:round; stroke-linejoin:round; stroke-width:4; stroke-opacity:1; fill:none" points="194.274,47.2441 194.274,66.1417 "/>
<polyline clip-path="url(#clip840)" style="stroke:#000000; stroke-linecap:round; stroke-linejoin:round; stroke-width:4; stroke-opacity:1; fill:none" points="785.97,47.2441 785.97,66.1417 "/>
<polyline clip-path="url(#clip840)" style="stroke:#000000; stroke-linecap:round; stroke-linejoin:round; stroke-width:4; stroke-opacity:1; fill:none" points="1377.67,47.2441 1377.67,66.1417 "/>
<polyline clip-path="url(#clip840)" style="stroke:#000000; stroke-linecap:round; stroke-linejoin:round; stroke-width:4; stroke-opacity:1; fill:none" points="1969.36,47.2441 1969.36,66.1417 "/>
<polyline clip-path="url(#clip840)" style="stroke:#000000; stroke-linecap:round; stroke-linejoin:round; stroke-width:4; stroke-opacity:1; fill:none" points="2561.06,47.2441 2561.06,66.1417 "/>
<polyline clip-path="url(#clip840)" style="stroke:#000000; stroke-linecap:round; stroke-linejoin:round; stroke-width:4; stroke-opacity:1; fill:none" points="3152.76,47.2441 3152.76,66.1417 "/>
<path clip-path="url(#clip840)" d="M194.274 1481.02 Q190.663 1481.02 188.834 1484.58 Q187.029 1488.12 187.029 1495.25 Q187.029 1502.36 188.834 1505.93 Q190.663 1509.47 194.274 1509.47 Q197.908 1509.47 199.714 1505.93 Q201.542 1502.36 201.542 1495.25 Q201.542 1488.12 199.714 1484.58 Q197.908 1481.02 194.274 1481.02 M194.274 1477.31 Q200.084 1477.31 203.14 1481.92 Q206.218 1486.5 206.218 1495.25 Q206.218 1503.98 203.14 1508.59 Q200.084 1513.17 194.274 1513.17 Q188.464 1513.17 185.385 1508.59 Q182.33 1503.98 182.33 1495.25 Q182.33 1486.5 185.385 1481.92 Q188.464 1477.31 194.274 1477.31 Z" fill="#000000" fill-rule="nonzero" fill-opacity="1" /><path clip-path="url(#clip840)" d="M780.623 1508.56 L796.943 1508.56 L796.943 1512.5 L774.998 1512.5 L774.998 1508.56 Q777.66 1505.81 782.244 1501.18 Q786.85 1496.53 788.031 1495.19 Q790.276 1492.66 791.156 1490.93 Q792.058 1489.17 792.058 1487.48 Q792.058 1484.72 790.114 1482.99 Q788.193 1481.25 785.091 1481.25 Q782.892 1481.25 780.438 1482.01 Q778.007 1482.78 775.23 1484.33 L775.23 1479.61 Q778.054 1478.47 780.507 1477.89 Q782.961 1477.31 784.998 1477.31 Q790.369 1477.31 793.563 1480 Q796.757 1482.69 796.757 1487.18 Q796.757 1489.31 795.947 1491.23 Q795.16 1493.12 793.054 1495.72 Q792.475 1496.39 789.373 1499.61 Q786.271 1502.8 780.623 1508.56 Z" fill="#000000" fill-rule="nonzero" fill-opacity="1" /><path clip-path="url(#clip840)" d="M1380.68 1482.01 L1368.87 1500.46 L1380.68 1500.46 L1380.68 1482.01 M1379.45 1477.94 L1385.33 1477.94 L1385.33 1500.46 L1390.26 1500.46 L1390.26 1504.35 L1385.33 1504.35 L1385.33 1512.5 L1380.68 1512.5 L1380.68 1504.35 L1365.07 1504.35 L1365.07 1499.84 L1379.45 1477.94 Z" fill="#000000" fill-rule="nonzero" fill-opacity="1" /><path clip-path="url(#clip840)" d="M1969.77 1493.36 Q1966.62 1493.36 1964.77 1495.51 Q1962.94 1497.66 1962.94 1501.41 Q1962.94 1505.14 1964.77 1507.31 Q1966.62 1509.47 1969.77 1509.47 Q1972.92 1509.47 1974.75 1507.31 Q1976.6 1505.14 1976.6 1501.41 Q1976.6 1497.66 1974.75 1495.51 Q1972.92 1493.36 1969.77 1493.36 M1979.05 1478.7 L1979.05 1482.96 Q1977.29 1482.13 1975.49 1481.69 Q1973.7 1481.25 1971.94 1481.25 Q1967.31 1481.25 1964.86 1484.37 Q1962.43 1487.5 1962.08 1493.82 Q1963.45 1491.81 1965.51 1490.74 Q1967.57 1489.65 1970.05 1489.65 Q1975.25 1489.65 1978.26 1492.82 Q1981.3 1495.97 1981.3 1501.41 Q1981.3 1506.74 1978.15 1509.95 Q1975 1513.17 1969.77 1513.17 Q1963.77 1513.17 1960.6 1508.59 Q1957.43 1503.98 1957.43 1495.25 Q1957.43 1487.06 1961.32 1482.2 Q1965.21 1477.31 1971.76 1477.31 Q1973.52 1477.31 1975.3 1477.66 Q1977.11 1478.01 1979.05 1478.7 Z" fill="#000000" fill-rule="nonzero" fill-opacity="1" /><path clip-path="url(#clip840)" d="M2561.06 1496.09 Q2557.73 1496.09 2555.8 1497.87 Q2553.91 1499.65 2553.91 1502.78 Q2553.91 1505.9 2555.8 1507.69 Q2557.73 1509.47 2561.06 1509.47 Q2564.39 1509.47 2566.31 1507.69 Q2568.24 1505.88 2568.24 1502.78 Q2568.24 1499.65 2566.31 1497.87 Q2564.42 1496.09 2561.06 1496.09 M2556.38 1494.1 Q2553.37 1493.36 2551.68 1491.3 Q2550.02 1489.24 2550.02 1486.27 Q2550.02 1482.13 2552.96 1479.72 Q2555.92 1477.31 2561.06 1477.31 Q2566.22 1477.31 2569.16 1479.72 Q2572.1 1482.13 2572.1 1486.27 Q2572.1 1489.24 2570.41 1491.3 Q2568.74 1493.36 2565.76 1494.1 Q2569.14 1494.88 2571.01 1497.18 Q2572.91 1499.47 2572.91 1502.78 Q2572.91 1507.8 2569.83 1510.49 Q2566.78 1513.17 2561.06 1513.17 Q2555.34 1513.17 2552.26 1510.49 Q2549.21 1507.8 2549.21 1502.78 Q2549.21 1499.47 2551.11 1497.18 Q2553 1494.88 2556.38 1494.1 M2554.67 1486.71 Q2554.67 1489.4 2556.34 1490.9 Q2558.03 1492.41 2561.06 1492.41 Q2564.07 1492.41 2565.76 1490.9 Q2567.47 1489.4 2567.47 1486.71 Q2567.47 1484.03 2565.76 1482.52 Q2564.07 1481.02 2561.06 1481.02 Q2558.03 1481.02 2556.34 1482.52 Q2554.67 1484.03 2554.67 1486.71 Z" fill="#000000" fill-rule="nonzero" fill-opacity="1" /><path clip-path="url(#clip840)" d="M3127.44 1508.56 L3135.08 1508.56 L3135.08 1482.2 L3126.77 1483.87 L3126.77 1479.61 L3135.04 1477.94 L3139.71 1477.94 L3139.71 1508.56 L3147.35 1508.56 L3147.35 1512.5 L3127.44 1512.5 L3127.44 1508.56 Z" fill="#000000" fill-rule="nonzero" fill-opacity="1" /><path clip-path="url(#clip840)" d="M3166.8 1481.02 Q3163.18 1481.02 3161.36 1484.58 Q3159.55 1488.12 3159.55 1495.25 Q3159.55 1502.36 3161.36 1505.93 Q3163.18 1509.47 3166.8 1509.47 Q3170.43 1509.47 3172.23 1505.93 Q3174.06 1502.36 3174.06 1495.25 Q3174.06 1488.12 3172.23 1484.58 Q3170.43 1481.02 3166.8 1481.02 M3166.8 1477.31 Q3172.61 1477.31 3175.66 1481.92 Q3178.74 1486.5 3178.74 1495.25 Q3178.74 1503.98 3175.66 1508.59 Q3172.61 1513.17 3166.8 1513.17 Q3160.99 1513.17 3157.91 1508.59 Q3154.85 1503.98 3154.85 1495.25 Q3154.85 1486.5 3157.91 1481.92 Q3160.99 1477.31 3166.8 1477.31 Z" fill="#000000" fill-rule="nonzero" fill-opacity="1" /><path clip-path="url(#clip840)" d="M1672.58 1554.79 L1672.58 1564.92 L1684.64 1564.92 L1684.64 1569.47 L1672.58 1569.47 L1672.58 1588.82 Q1672.58 1593.18 1673.75 1594.42 Q1674.96 1595.66 1678.62 1595.66 L1684.64 1595.66 L1684.64 1600.56 L1678.62 1600.56 Q1671.84 1600.56 1669.27 1598.05 Q1666.69 1595.5 1666.69 1588.82 L1666.69 1569.47 L1662.39 1569.47 L1662.39 1564.92 L1666.69 1564.92 L1666.69 1554.79 L1672.58 1554.79 Z" fill="#000000" fill-rule="nonzero" fill-opacity="1" /><polyline clip-path="url(#clip840)" style="stroke:#000000; stroke-linecap:round; stroke-linejoin:round; stroke-width:4; stroke-opacity:1; fill:none" points="194.274,1443.7 194.274,47.2441 "/>
<polyline clip-path="url(#clip840)" style="stroke:#000000; stroke-linecap:round; stroke-linejoin:round; stroke-width:4; stroke-opacity:1; fill:none" points="3152.76,1443.7 3152.76,47.2441 "/>
<polyline clip-path="url(#clip840)" style="stroke:#000000; stroke-linecap:round; stroke-linejoin:round; stroke-width:4; stroke-opacity:1; fill:none" points="194.274,1404.18 213.172,1404.18 "/>
<polyline clip-path="url(#clip840)" style="stroke:#000000; stroke-linecap:round; stroke-linejoin:round; stroke-width:4; stroke-opacity:1; fill:none" points="194.274,1074.82 213.172,1074.82 "/>
<polyline clip-path="url(#clip840)" style="stroke:#000000; stroke-linecap:round; stroke-linejoin:round; stroke-width:4; stroke-opacity:1; fill:none" points="194.274,745.472 213.172,745.472 "/>
<polyline clip-path="url(#clip840)" style="stroke:#000000; stroke-linecap:round; stroke-linejoin:round; stroke-width:4; stroke-opacity:1; fill:none" points="194.274,416.119 213.172,416.119 "/>
<polyline clip-path="url(#clip840)" style="stroke:#000000; stroke-linecap:round; stroke-linejoin:round; stroke-width:4; stroke-opacity:1; fill:none" points="194.274,86.7664 213.172,86.7664 "/>
<polyline clip-path="url(#clip840)" style="stroke:#000000; stroke-linecap:round; stroke-linejoin:round; stroke-width:4; stroke-opacity:1; fill:none" points="3152.76,1404.18 3133.86,1404.18 "/>
<polyline clip-path="url(#clip840)" style="stroke:#000000; stroke-linecap:round; stroke-linejoin:round; stroke-width:4; stroke-opacity:1; fill:none" points="3152.76,1074.82 3133.86,1074.82 "/>
<polyline clip-path="url(#clip840)" style="stroke:#000000; stroke-linecap:round; stroke-linejoin:round; stroke-width:4; stroke-opacity:1; fill:none" points="3152.76,745.472 3133.86,745.472 "/>
<polyline clip-path="url(#clip840)" style="stroke:#000000; stroke-linecap:round; stroke-linejoin:round; stroke-width:4; stroke-opacity:1; fill:none" points="3152.76,416.119 3133.86,416.119 "/>
<polyline clip-path="url(#clip840)" style="stroke:#000000; stroke-linecap:round; stroke-linejoin:round; stroke-width:4; stroke-opacity:1; fill:none" points="3152.76,86.7664 3133.86,86.7664 "/>
<path clip-path="url(#clip840)" d="M58.9365 1389.98 Q55.3254 1389.98 53.4967 1393.54 Q51.6912 1397.08 51.6912 1404.21 Q51.6912 1411.32 53.4967 1414.88 Q55.3254 1418.43 58.9365 1418.43 Q62.5707 1418.43 64.3763 1414.88 Q66.205 1411.32 66.205 1404.21 Q66.205 1397.08 64.3763 1393.54 Q62.5707 1389.98 58.9365 1389.98 M58.9365 1386.27 Q64.7467 1386.27 67.8022 1390.88 Q70.8809 1395.46 70.8809 1404.21 Q70.8809 1412.94 67.8022 1417.55 Q64.7467 1422.13 58.9365 1422.13 Q53.1264 1422.13 50.0477 1417.55 Q46.9921 1412.94 46.9921 1404.21 Q46.9921 1395.46 50.0477 1390.88 Q53.1264 1386.27 58.9365 1386.27 Z" fill="#000000" fill-rule="nonzero" fill-opacity="1" /><path clip-path="url(#clip840)" d="M79.0984 1415.58 L83.9827 1415.58 L83.9827 1421.46 L79.0984 1421.46 L79.0984 1415.58 Z" fill="#000000" fill-rule="nonzero" fill-opacity="1" /><path clip-path="url(#clip840)" d="M104.168 1389.98 Q100.557 1389.98 98.728 1393.54 Q96.9224 1397.08 96.9224 1404.21 Q96.9224 1411.32 98.728 1414.88 Q100.557 1418.43 104.168 1418.43 Q107.802 1418.43 109.608 1414.88 Q111.436 1411.32 111.436 1404.21 Q111.436 1397.08 109.608 1393.54 Q107.802 1389.98 104.168 1389.98 M104.168 1386.27 Q109.978 1386.27 113.033 1390.88 Q116.112 1395.46 116.112 1404.21 Q116.112 1412.94 113.033 1417.55 Q109.978 1422.13 104.168 1422.13 Q98.3576 1422.13 95.2789 1417.55 Q92.2234 1412.94 92.2234 1404.21 Q92.2234 1395.46 95.2789 1390.88 Q98.3576 1386.27 104.168 1386.27 Z" fill="#000000" fill-rule="nonzero" fill-opacity="1" /><path clip-path="url(#clip840)" d="M134.33 1389.98 Q130.719 1389.98 128.89 1393.54 Q127.084 1397.08 127.084 1404.21 Q127.084 1411.32 128.89 1414.88 Q130.719 1418.43 134.33 1418.43 Q137.964 1418.43 139.769 1414.88 Q141.598 1411.32 141.598 1404.21 Q141.598 1397.08 139.769 1393.54 Q137.964 1389.98 134.33 1389.98 M134.33 1386.27 Q140.14 1386.27 143.195 1390.88 Q146.274 1395.46 146.274 1404.21 Q146.274 1412.94 143.195 1417.55 Q140.14 1422.13 134.33 1422.13 Q128.519 1422.13 125.441 1417.55 Q122.385 1412.94 122.385 1404.21 Q122.385 1395.46 125.441 1390.88 Q128.519 1386.27 134.33 1386.27 Z" fill="#000000" fill-rule="nonzero" fill-opacity="1" /><path clip-path="url(#clip840)" d="M59.9319 1060.62 Q56.3208 1060.62 54.4921 1064.19 Q52.6865 1067.73 52.6865 1074.86 Q52.6865 1081.97 54.4921 1085.53 Q56.3208 1089.07 59.9319 1089.07 Q63.5661 1089.07 65.3717 1085.53 Q67.2004 1081.97 67.2004 1074.86 Q67.2004 1067.73 65.3717 1064.19 Q63.5661 1060.62 59.9319 1060.62 M59.9319 1056.92 Q65.742 1056.92 68.7976 1061.53 Q71.8763 1066.11 71.8763 1074.86 Q71.8763 1083.59 68.7976 1088.19 Q65.742 1092.78 59.9319 1092.78 Q54.1217 1092.78 51.043 1088.19 Q47.9875 1083.59 47.9875 1074.86 Q47.9875 1066.11 51.043 1061.53 Q54.1217 1056.92 59.9319 1056.92 Z" fill="#000000" fill-rule="nonzero" fill-opacity="1" /><path clip-path="url(#clip840)" d="M80.0938 1086.23 L84.978 1086.23 L84.978 1092.1 L80.0938 1092.1 L80.0938 1086.23 Z" fill="#000000" fill-rule="nonzero" fill-opacity="1" /><path clip-path="url(#clip840)" d="M99.1909 1088.17 L115.51 1088.17 L115.51 1092.1 L93.566 1092.1 L93.566 1088.17 Q96.228 1085.41 100.811 1080.79 Q105.418 1076.13 106.598 1074.79 Q108.844 1072.27 109.723 1070.53 Q110.626 1068.77 110.626 1067.08 Q110.626 1064.33 108.682 1062.59 Q106.76 1060.85 103.658 1060.85 Q101.459 1060.85 99.0057 1061.62 Q96.5752 1062.38 93.7974 1063.93 L93.7974 1059.21 Q96.6215 1058.08 99.0752 1057.5 Q101.529 1056.92 103.566 1056.92 Q108.936 1056.92 112.131 1059.6 Q115.325 1062.29 115.325 1066.78 Q115.325 1068.91 114.515 1070.83 Q113.728 1072.73 111.621 1075.32 Q111.043 1075.99 107.941 1079.21 Q104.839 1082.41 99.1909 1088.17 Z" fill="#000000" fill-rule="nonzero" fill-opacity="1" /><path clip-path="url(#clip840)" d="M125.371 1057.54 L143.728 1057.54 L143.728 1061.48 L129.654 1061.48 L129.654 1069.95 Q130.672 1069.6 131.691 1069.44 Q132.709 1069.26 133.728 1069.26 Q139.515 1069.26 142.894 1072.43 Q146.274 1075.6 146.274 1081.02 Q146.274 1086.6 142.802 1089.7 Q139.33 1092.78 133.01 1092.78 Q130.834 1092.78 128.566 1092.41 Q126.32 1092.04 123.913 1091.29 L123.913 1086.6 Q125.996 1087.73 128.219 1088.29 Q130.441 1088.84 132.918 1088.84 Q136.922 1088.84 139.26 1086.73 Q141.598 1084.63 141.598 1081.02 Q141.598 1077.41 139.26 1075.3 Q136.922 1073.19 132.918 1073.19 Q131.043 1073.19 129.168 1073.61 Q127.316 1074.03 125.371 1074.91 L125.371 1057.54 Z" fill="#000000" fill-rule="nonzero" fill-opacity="1" /><path clip-path="url(#clip840)" d="M58.9365 731.271 Q55.3254 731.271 53.4967 734.835 Q51.6912 738.377 51.6912 745.507 Q51.6912 752.613 53.4967 756.178 Q55.3254 759.72 58.9365 759.72 Q62.5707 759.72 64.3763 756.178 Q66.205 752.613 66.205 745.507 Q66.205 738.377 64.3763 734.835 Q62.5707 731.271 58.9365 731.271 M58.9365 727.567 Q64.7467 727.567 67.8022 732.173 Q70.8809 736.757 70.8809 745.507 Q70.8809 754.233 67.8022 758.84 Q64.7467 763.423 58.9365 763.423 Q53.1264 763.423 50.0477 758.84 Q46.9921 754.233 46.9921 745.507 Q46.9921 736.757 50.0477 732.173 Q53.1264 727.567 58.9365 727.567 Z" fill="#000000" fill-rule="nonzero" fill-opacity="1" /><path clip-path="url(#clip840)" d="M79.0984 756.872 L83.9827 756.872 L83.9827 762.752 L79.0984 762.752 L79.0984 756.872 Z" fill="#000000" fill-rule="nonzero" fill-opacity="1" /><path clip-path="url(#clip840)" d="M94.2141 728.192 L112.57 728.192 L112.57 732.127 L98.4965 732.127 L98.4965 740.599 Q99.515 740.252 100.534 740.09 Q101.552 739.905 102.571 739.905 Q108.358 739.905 111.737 743.076 Q115.117 746.247 115.117 751.664 Q115.117 757.243 111.645 760.345 Q108.172 763.423 101.853 763.423 Q99.677 763.423 97.4085 763.053 Q95.1632 762.683 92.7558 761.942 L92.7558 757.243 Q94.8391 758.377 97.0613 758.933 Q99.2835 759.488 101.76 759.488 Q105.765 759.488 108.103 757.382 Q110.441 755.275 110.441 751.664 Q110.441 748.053 108.103 745.947 Q105.765 743.84 101.76 743.84 Q99.8854 743.84 98.0104 744.257 Q96.1585 744.673 94.2141 745.553 L94.2141 728.192 Z" fill="#000000" fill-rule="nonzero" fill-opacity="1" /><path clip-path="url(#clip840)" d="M134.33 731.271 Q130.719 731.271 128.89 734.835 Q127.084 738.377 127.084 745.507 Q127.084 752.613 128.89 756.178 Q130.719 759.72 134.33 759.72 Q137.964 759.72 139.769 756.178 Q141.598 752.613 141.598 745.507 Q141.598 738.377 139.769 734.835 Q137.964 731.271 134.33 731.271 M134.33 727.567 Q140.14 727.567 143.195 732.173 Q146.274 736.757 146.274 745.507 Q146.274 754.233 143.195 758.84 Q140.14 763.423 134.33 763.423 Q128.519 763.423 125.441 758.84 Q122.385 754.233 122.385 745.507 Q122.385 736.757 125.441 732.173 Q128.519 727.567 134.33 727.567 Z" fill="#000000" fill-rule="nonzero" fill-opacity="1" /><path clip-path="url(#clip840)" d="M59.9319 401.918 Q56.3208 401.918 54.4921 405.483 Q52.6865 409.024 52.6865 416.154 Q52.6865 423.26 54.4921 426.825 Q56.3208 430.367 59.9319 430.367 Q63.5661 430.367 65.3717 426.825 Q67.2004 423.26 67.2004 416.154 Q67.2004 409.024 65.3717 405.483 Q63.5661 401.918 59.9319 401.918 M59.9319 398.214 Q65.742 398.214 68.7976 402.821 Q71.8763 407.404 71.8763 416.154 Q71.8763 424.881 68.7976 429.487 Q65.742 434.07 59.9319 434.07 Q54.1217 434.07 51.043 429.487 Q47.9875 424.881 47.9875 416.154 Q47.9875 407.404 51.043 402.821 Q54.1217 398.214 59.9319 398.214 Z" fill="#000000" fill-rule="nonzero" fill-opacity="1" /><path clip-path="url(#clip840)" d="M80.0938 427.52 L84.978 427.52 L84.978 433.399 L80.0938 433.399 L80.0938 427.52 Z" fill="#000000" fill-rule="nonzero" fill-opacity="1" /><path clip-path="url(#clip840)" d="M93.9826 398.839 L116.205 398.839 L116.205 400.83 L103.658 433.399 L98.7743 433.399 L110.58 402.774 L93.9826 402.774 L93.9826 398.839 Z" fill="#000000" fill-rule="nonzero" fill-opacity="1" /><path clip-path="url(#clip840)" d="M125.371 398.839 L143.728 398.839 L143.728 402.774 L129.654 402.774 L129.654 411.247 Q130.672 410.899 131.691 410.737 Q132.709 410.552 133.728 410.552 Q139.515 410.552 142.894 413.723 Q146.274 416.895 146.274 422.311 Q146.274 427.89 142.802 430.992 Q139.33 434.07 133.01 434.07 Q130.834 434.07 128.566 433.7 Q126.32 433.33 123.913 432.589 L123.913 427.89 Q125.996 429.024 128.219 429.58 Q130.441 430.135 132.918 430.135 Q136.922 430.135 139.26 428.029 Q141.598 425.922 141.598 422.311 Q141.598 418.7 139.26 416.594 Q136.922 414.487 132.918 414.487 Q131.043 414.487 129.168 414.904 Q127.316 415.321 125.371 416.2 L125.371 398.839 Z" fill="#000000" fill-rule="nonzero" fill-opacity="1" /><path clip-path="url(#clip840)" d="M49.7467 100.111 L57.3856 100.111 L57.3856 73.7457 L49.0754 75.4123 L49.0754 71.1531 L57.3393 69.4864 L62.0152 69.4864 L62.0152 100.111 L69.654 100.111 L69.654 104.046 L49.7467 104.046 L49.7467 100.111 Z" fill="#000000" fill-rule="nonzero" fill-opacity="1" /><path clip-path="url(#clip840)" d="M79.0984 98.1668 L83.9827 98.1668 L83.9827 104.046 L79.0984 104.046 L79.0984 98.1668 Z" fill="#000000" fill-rule="nonzero" fill-opacity="1" /><path clip-path="url(#clip840)" d="M104.168 72.5651 Q100.557 72.5651 98.728 76.1299 Q96.9224 79.6716 96.9224 86.8011 Q96.9224 93.9076 98.728 97.4724 Q100.557 101.014 104.168 101.014 Q107.802 101.014 109.608 97.4724 Q111.436 93.9076 111.436 86.8011 Q111.436 79.6716 109.608 76.1299 Q107.802 72.5651 104.168 72.5651 M104.168 68.8614 Q109.978 68.8614 113.033 73.4679 Q116.112 78.0512 116.112 86.8011 Q116.112 95.528 113.033 100.134 Q109.978 104.718 104.168 104.718 Q98.3576 104.718 95.2789 100.134 Q92.2234 95.528 92.2234 86.8011 Q92.2234 78.0512 95.2789 73.4679 Q98.3576 68.8614 104.168 68.8614 Z" fill="#000000" fill-rule="nonzero" fill-opacity="1" /><path clip-path="url(#clip840)" d="M134.33 72.5651 Q130.719 72.5651 128.89 76.1299 Q127.084 79.6716 127.084 86.8011 Q127.084 93.9076 128.89 97.4724 Q130.719 101.014 134.33 101.014 Q137.964 101.014 139.769 97.4724 Q141.598 93.9076 141.598 86.8011 Q141.598 79.6716 139.769 76.1299 Q137.964 72.5651 134.33 72.5651 M134.33 68.8614 Q140.14 68.8614 143.195 73.4679 Q146.274 78.0512 146.274 86.8011 Q146.274 95.528 143.195 100.134 Q140.14 104.718 134.33 104.718 Q128.519 104.718 125.441 100.134 Q122.385 95.528 122.385 86.8011 Q122.385 78.0512 125.441 73.4679 Q128.519 68.8614 134.33 68.8614 Z" fill="#000000" fill-rule="nonzero" fill-opacity="1" /><polyline clip-path="url(#clip842)" style="stroke:#009af9; stroke-linecap:round; stroke-linejoin:round; stroke-width:32; stroke-opacity:1; fill:none" points="194.274,86.7664 197.235,99.8166 200.197,112.599 203.158,125.121 206.12,137.392 209.081,149.42 212.043,161.211 215.004,172.775 217.966,184.116 220.927,195.243 223.888,206.162 226.85,216.878 229.811,227.398 232.773,237.728 235.734,247.873 238.696,257.838 241.657,267.629 244.619,277.251 247.58,286.707 250.541,296.004 253.503,305.144 256.464,314.133 259.426,322.975 262.387,331.673 265.349,340.231 268.31,348.654 271.272,356.944 274.233,365.105 277.194,373.14 280.156,381.053 283.117,388.847 286.079,396.524 289.04,404.088 292.002,411.541 294.963,418.887 297.925,426.127 300.886,433.265 303.847,440.302 306.809,447.241 309.77,454.085 312.732,460.835 315.693,467.495 318.655,474.065 321.616,480.549 324.578,486.947 327.539,493.263 330.5,499.497 333.462,505.652 336.423,511.73 339.385,517.731 342.346,523.659 345.308,529.513 348.269,535.297 351.23,541.011 354.192,546.657 357.153,552.236 360.115,557.75 363.076,563.2 366.038,568.587 368.999,573.913 371.961,579.18 374.922,584.387 377.883,589.537 380.845,594.63 383.806,599.668 386.768,604.651 389.729,609.582 392.691,614.46 395.652,619.287 398.614,624.064 401.575,628.791 404.536,633.471 407.498,638.102 410.459,642.688 413.421,647.227 416.382,651.722 419.344,656.173 422.305,660.58 425.267,664.945 428.228,669.268 431.189,673.55 434.151,677.792 437.112,681.994 440.074,686.158 443.035,690.283 445.997,694.371 448.958,698.422 451.92,702.437 454.881,706.416 457.842,710.36 460.804,714.27 463.765,718.145 466.727,721.988 469.688,725.797 472.65,729.575 475.611,733.32 478.573,737.035 481.534,740.718 484.495,744.372 487.457,747.995 490.418,751.589 493.38,755.154 496.341,758.691 499.303,762.2 502.264,765.681 505.226,769.134 508.187,772.561 511.148,775.962 514.11,779.336 517.071,782.685 520.033,786.008 522.994,789.307 525.956,792.581 528.917,795.831 531.879,799.057 534.84,802.259 537.801,805.438 540.763,808.595 543.724,811.729 546.686,814.84 549.647,817.93 552.609,820.997 555.57,824.044 558.532,827.069 561.493,830.074 564.454,833.058 567.416,836.021 570.377,838.965 573.339,841.889 576.3,844.793 579.262,847.678 582.223,850.544 585.185,853.391 588.146,856.22 591.107,859.03 594.069,861.822 597.03,864.596 599.992,867.352 602.953,870.091 605.915,872.813 608.876,875.517 611.838,878.204 614.799,880.875 617.76,883.529 620.722,886.166 623.683,888.788 626.645,891.393 629.606,893.983 632.568,896.557 635.529,899.115 638.491,901.658 641.452,904.186 644.413,906.699 647.375,909.197 650.336,911.681 653.298,914.15 656.259,916.605 659.221,919.045 662.182,921.471 665.143,923.884 668.105,926.283 671.066,928.668 674.028,931.039 676.989,933.397 679.951,935.742 682.912,938.074 685.874,940.393 688.835,942.698 691.796,944.991 694.758,947.272 697.719,949.54 700.681,951.795 703.642,954.038 706.604,956.269 709.565,958.488 712.527,960.695 715.488,962.89 718.449,965.074 721.411,967.245 724.372,969.405 727.334,971.554 730.295,973.691 733.257,975.817 736.218,977.931 739.18,980.035 742.141,982.127 745.102,984.209 748.064,986.279 751.025,988.339 753.987,990.388 756.948,992.427 759.91,994.455 762.871,996.473 765.833,998.48 768.794,1000.48 771.755,1002.46 774.717,1004.44 777.678,1006.41 780.64,1008.36 783.601,1010.31 786.563,1012.25 789.524,1014.18 792.486,1016.09 795.447,1018 798.408,1019.9 801.37,1021.79 804.331,1023.67 807.293,1025.54 810.254,1027.4 813.216,1029.26 816.177,1031.1 819.139,1032.93 822.1,1034.76 825.061,1036.57 828.023,1038.38 830.984,1040.18 833.946,1041.97 836.907,1043.75 839.869,1045.52 842.83,1047.29 845.792,1049.04 848.753,1050.79 851.714,1052.53 854.676,1054.26 857.637,1055.98 860.599,1057.69 863.56,1059.4 866.522,1061.09 869.483,1062.78 872.445,1064.46 875.406,1066.14 878.367,1067.8 881.329,1069.46 884.29,1071.11 887.252,1072.75 890.213,1074.38 893.175,1076.01 896.136,1077.63 899.098,1079.24 902.059,1080.84 905.02,1082.43 907.982,1084.02 910.943,1085.6 913.905,1087.17 916.866,1088.74 919.828,1090.29 922.789,1091.85 925.751,1093.39 928.712,1094.92 931.673,1096.45 934.635,1097.97 937.596,1099.49 940.558,1100.99 943.519,1102.49 946.481,1103.99 949.442,1105.47 952.403,1106.95 955.365,1108.42 958.326,1109.89 961.288,1111.35 964.249,1112.8 967.211,1114.24 970.172,1115.68 973.134,1117.11 976.095,1118.54 979.056,1119.96 982.018,1121.37 984.979,1122.77 987.941,1124.17 990.902,1125.56 993.864,1126.95 996.825,1128.33 999.787,1129.7 1002.75,1131.06 1005.71,1132.42 1008.67,1133.78 1011.63,1135.12 1014.59,1136.47 1017.56,1137.8 1020.52,1139.13 1023.48,1140.45 1026.44,1141.77 1029.4,1143.08 1032.36,1144.38 1035.32,1145.68 1038.29,1146.97 1041.25,1148.26 1044.21,1149.54 1047.17,1150.81 1050.13,1152.08 1053.09,1153.34 1056.05,1154.6 1059.02,1155.85 1061.98,1157.09 1064.94,1158.33 1067.9,1159.56 1070.86,1160.79 1073.82,1162.01 1076.78,1163.23 1079.75,1164.44 1082.71,1165.64 1085.67,1166.84 1088.63,1168.03 1091.59,1169.22 1094.55,1170.4 1097.51,1171.58 1100.48,1172.75 1103.44,1173.92 1106.4,1175.08 1109.36,1176.23 1112.32,1177.38 1115.28,1178.52 1118.24,1179.66 1121.21,1180.8 1124.17,1181.92 1127.13,1183.05 1130.09,1184.16 1133.05,1185.28 1136.01,1186.38 1138.97,1187.48 1141.94,1188.58 1144.9,1189.67 1147.86,1190.76 1150.82,1191.84 1153.78,1192.91 1156.74,1193.98 1159.7,1195.05 1162.67,1196.11 1165.63,1197.17 1168.59,1198.22 1171.55,1199.26 1174.51,1200.3 1177.47,1201.34 1180.43,1202.37 1183.4,1203.4 1186.36,1204.42 1189.32,1205.43 1192.28,1206.44 1195.24,1207.45 1198.2,1208.45 1201.16,1209.45 1204.13,1210.44 1207.09,1211.43 1210.05,1212.41 1213.01,1213.39 1215.97,1214.37 1218.93,1215.34 1221.89,1216.3 1224.86,1217.26 1227.82,1218.21 1230.78,1219.17 1233.74,1220.11 1236.7,1221.05 1239.66,1221.99 1242.62,1222.92 1245.59,1223.85 1248.55,1224.78 1251.51,1225.7 1254.47,1226.61 1257.43,1227.52 1260.39,1228.43 1263.36,1229.33 1266.32,1230.23 1269.28,1231.12 1272.24,1232.01 1275.2,1232.89 1278.16,1233.77 1281.12,1234.65 1284.09,1235.52 1287.05,1236.39 1290.01,1237.25 1292.97,1238.11 1295.93,1238.97 1298.89,1239.82 1301.85,1240.66 1304.82,1241.51 1307.78,1242.35 1310.74,1243.18 1313.7,1244.01 1316.66,1244.84 1319.62,1245.66 1322.58,1246.48 1325.55,1247.29 1328.51,1248.1 1331.47,1248.91 1334.43,1249.71 1337.39,1250.51 1340.35,1251.3 1343.31,1252.09 1346.28,1252.88 1349.24,1253.66 1352.2,1254.44 1355.16,1255.22 1358.12,1255.99 1361.08,1256.75 1364.04,1257.52 1367.01,1258.28 1369.97,1259.03 1372.93,1259.79 1375.89,1260.53 1378.85,1261.28 1381.81,1262.02 1384.77,1262.76 1387.74,1263.49 1390.7,1264.22 1393.66,1264.95 1396.62,1265.67 1399.58,1266.39 1402.54,1267.11 1405.5,1267.82 1408.47,1268.53 1411.43,1269.23 1414.39,1269.93 1417.35,1270.63 1420.31,1271.33 1423.27,1272.02 1426.23,1272.7 1429.2,1273.39 1432.16,1274.07 1435.12,1274.75 1438.08,1275.42 1441.04,1276.09 1444,1276.76 1446.96,1277.42 1449.93,1278.08 1452.89,1278.74 1455.85,1279.39 1458.81,1280.05 1461.77,1280.69 1464.73,1281.34 1467.69,1281.98 1470.66,1282.62 1473.62,1283.25 1476.58,1283.88 1479.54,1284.51 1482.5,1285.14 1485.46,1285.76 1488.42,1286.38 1491.39,1286.99 1494.35,1287.6 1497.31,1288.21 1500.27,1288.82 1503.23,1289.42 1506.19,1290.02 1509.15,1290.62 1512.12,1291.21 1515.08,1291.8 1518.04,1292.39 1521,1292.98 1523.96,1293.56 1526.92,1294.14 1529.88,1294.71 1532.85,1295.29 1535.81,1295.86 1538.77,1296.42 1541.73,1296.99 1544.69,1297.55 1547.65,1298.11 1550.62,1298.66 1553.58,1299.22 1556.54,1299.77 1559.5,1300.31 1562.46,1300.86 1565.42,1301.4 1568.38,1301.94 1571.35,1302.47 1574.31,1303.01 1577.27,1303.54 1580.23,1304.06 1583.19,1304.59 1586.15,1305.11 1589.11,1305.63 1592.08,1306.15 1595.04,1306.66 1598,1307.17 1600.96,1307.68 1603.92,1308.19 1606.88,1308.69 1609.84,1309.19 1612.81,1309.69 1615.77,1310.18 1618.73,1310.68 1621.69,1311.17 1624.65,1311.65 1627.61,1312.14 1630.57,1312.62 1633.54,1313.1 1636.5,1313.58 1639.46,1314.05 1642.42,1314.53 1645.38,1315 1648.34,1315.46 1651.3,1315.93 1654.27,1316.39 1657.23,1316.85 1660.19,1317.31 1663.15,1317.76 1666.11,1318.22 1669.07,1318.67 1672.03,1319.12 1675,1319.56 1677.96,1320.01 1680.92,1320.45 1683.88,1320.89 1686.84,1321.32 1689.8,1321.76 1692.76,1322.19 1695.73,1322.62 1698.69,1323.05 1701.65,1323.47 1704.61,1323.89 1707.57,1324.32 1710.53,1324.73 1713.49,1325.15 1716.46,1325.57 1719.42,1325.98 1722.38,1326.39 1725.34,1326.8 1728.3,1327.2 1731.26,1327.6 1734.22,1328.01 1737.19,1328.41 1740.15,1328.8 1743.11,1329.2 1746.07,1329.59 1749.03,1329.98 1751.99,1330.37 1754.95,1330.76 1757.92,1331.14 1760.88,1331.52 1763.84,1331.91 1766.8,1332.28 1769.76,1332.66 1772.72,1333.04 1775.68,1333.41 1778.65,1333.78 1781.61,1334.15 1784.57,1334.51 1787.53,1334.88 1790.49,1335.24 1793.45,1335.6 1796.41,1335.96 1799.38,1336.32 1802.34,1336.67 1805.3,1337.03 1808.26,1337.38 1811.22,1337.73 1814.18,1338.08 1817.14,1338.42 1820.11,1338.76 1823.07,1339.11 1826.03,1339.45 1828.99,1339.79 1831.95,1340.12 1834.91,1340.46 1837.88,1340.79 1840.84,1341.12 1843.8,1341.45 1846.76,1341.78 1849.72,1342.1 1852.68,1342.43 1855.64,1342.75 1858.61,1343.07 1861.57,1343.39 1864.53,1343.7 1867.49,1344.02 1870.45,1344.33 1873.41,1344.65 1876.37,1344.96 1879.34,1345.26 1882.3,1345.57 1885.26,1345.88 1888.22,1346.18 1891.18,1346.48 1894.14,1346.78 1897.1,1347.08 1900.07,1347.38 1903.03,1347.67 1905.99,1347.97 1908.95,1348.26 1911.91,1348.55 1914.87,1348.84 1917.83,1349.13 1920.8,1349.41 1923.76,1349.7 1926.72,1349.98 1929.68,1350.26 1932.64,1350.54 1935.6,1350.82 1938.56,1351.09 1941.53,1351.37 1944.49,1351.64 1947.45,1351.92 1950.41,1352.19 1953.37,1352.46 1956.33,1352.72 1959.29,1352.99 1962.26,1353.26 1965.22,1353.52 1968.18,1353.78 1971.14,1354.04 1974.1,1354.3 1977.06,1354.56 1980.02,1354.82 1982.99,1355.07 1985.95,1355.33 1988.91,1355.58 1991.87,1355.83 1994.83,1356.08 1997.79,1356.33 2000.75,1356.58 2003.72,1356.82 2006.68,1357.07 2009.64,1357.31 2012.6,1357.55 2015.56,1357.79 2018.52,1358.03 2021.48,1358.27 2024.45,1358.51 2027.41,1358.74 2030.37,1358.98 2033.33,1359.21 2036.29,1359.44 2039.25,1359.67 2042.21,1359.9 2045.18,1360.13 2048.14,1360.36 2051.1,1360.58 2054.06,1360.81 2057.02,1361.03 2059.98,1361.25 2062.94,1361.47 2065.91,1361.69 2068.87,1361.91 2071.83,1362.13 2074.79,1362.34 2077.75,1362.56 2080.71,1362.77 2083.67,1362.99 2086.64,1363.2 2089.6,1363.41 2092.56,1363.62 2095.52,1363.82 2098.48,1364.03 2101.44,1364.24 2104.4,1364.44 2107.37,1364.64 2110.33,1364.85 2113.29,1365.05 2116.25,1365.25 2119.21,1365.45 2122.17,1365.65 2125.14,1365.84 2128.1,1366.04 2131.06,1366.23 2134.02,1366.43 2136.98,1366.62 2139.94,1366.81 2142.9,1367 2145.87,1367.19 2148.83,1367.38 2151.79,1367.57 2154.75,1367.75 2157.71,1367.94 2160.67,1368.12 2163.63,1368.31 2166.6,1368.49 2169.56,1368.67 2172.52,1368.85 2175.48,1369.03 2178.44,1369.21 2181.4,1369.39 2184.36,1369.56 2187.33,1369.74 2190.29,1369.91 2193.25,1370.09 2196.21,1370.26 2199.17,1370.43 2202.13,1370.6 2205.09,1370.77 2208.06,1370.94 2211.02,1371.11 2213.98,1371.27 2216.94,1371.44 2219.9,1371.61 2222.86,1371.77 2225.82,1371.93 2228.79,1372.1 2231.75,1372.26 2234.71,1372.42 2237.67,1372.58 2240.63,1372.74 2243.59,1372.9 2246.55,1373.06 2249.52,1373.21 2252.48,1373.37 2255.44,1373.52 2258.4,1373.68 2261.36,1373.83 2264.32,1373.98 2267.28,1374.13 2270.25,1374.29 2273.21,1374.44 2276.17,1374.59 2279.13,1374.73 2282.09,1374.88 2285.05,1375.03 2288.01,1375.18 2290.98,1375.32 2293.94,1375.47 2296.9,1375.61 2299.86,1375.75 2302.82,1375.9 2305.78,1376.04 2308.74,1376.18 2311.71,1376.32 2314.67,1376.46 2317.63,1376.6 2320.59,1376.73 2323.55,1376.87 2326.51,1377.01 2329.47,1377.14 2332.44,1377.28 2335.4,1377.41 2338.36,1377.55 2341.32,1377.68 2344.28,1377.81 2347.24,1377.94 2350.2,1378.07 2353.17,1378.2 2356.13,1378.33 2359.09,1378.46 2362.05,1378.59 2365.01,1378.72 2367.97,1378.84 2370.93,1378.97 2373.9,1379.1 2376.86,1379.22 2379.82,1379.34 2382.78,1379.47 2385.74,1379.59 2388.7,1379.71 2391.66,1379.83 2394.63,1379.95 2397.59,1380.07 2400.55,1380.19 2403.51,1380.31 2406.47,1380.43 2409.43,1380.55 2412.4,1380.67 2415.36,1380.78 2418.32,1380.9 2421.28,1381.01 2424.24,1381.13 2427.2,1381.24 2430.16,1381.35 2433.13,1381.47 2436.09,1381.58 2439.05,1381.69 2442.01,1381.8 2444.97,1381.91 2447.93,1382.02 2450.89,1382.13 2453.86,1382.24 2456.82,1382.34 2459.78,1382.45 2462.74,1382.56 2465.7,1382.66 2468.66,1382.77 2471.62,1382.88 2474.59,1382.98 2477.55,1383.08 2480.51,1383.19 2483.47,1383.29 2486.43,1383.39 2489.39,1383.49 2492.35,1383.59 2495.32,1383.7 2498.28,1383.8 2501.24,1383.89 2504.2,1383.99 2507.16,1384.09 2510.12,1384.19 2513.08,1384.29 2516.05,1384.38 2519.01,1384.48 2521.97,1384.58 2524.93,1384.67 2527.89,1384.77 2530.85,1384.86 2533.81,1384.96 2536.78,1385.05 2539.74,1385.14 2542.7,1385.23 2545.66,1385.33 2548.62,1385.42 2551.58,1385.51 2554.54,1385.6 2557.51,1385.69 2560.47,1385.78 2563.43,1385.87 2566.39,1385.96 2569.35,1386.05 2572.31,1386.13 2575.27,1386.22 2578.24,1386.31 2581.2,1386.39 2584.16,1386.48 2587.12,1386.57 2590.08,1386.65 2593.04,1386.74 2596,1386.82 2598.97,1386.9 2601.93,1386.99 2604.89,1387.07 2607.85,1387.15 2610.81,1387.24 2613.77,1387.32 2616.73,1387.4 2619.7,1387.48 2622.66,1387.56 2625.62,1387.64 2628.58,1387.72 2631.54,1387.8 2634.5,1387.88 2637.46,1387.96 2640.43,1388.04 2643.39,1388.11 2646.35,1388.19 2649.31,1388.27 2652.27,1388.34 2655.23,1388.42 2658.19,1388.5 2661.16,1388.57 2664.12,1388.65 2667.08,1388.72 2670.04,1388.79 2673,1388.87 2675.96,1388.94 2678.92,1389.01 2681.89,1389.09 2684.85,1389.16 2687.81,1389.23 2690.77,1389.3 2693.73,1389.37 2696.69,1389.44 2699.66,1389.51 2702.62,1389.58 2705.58,1389.65 2708.54,1389.72 2711.5,1389.79 2714.46,1389.86 2717.42,1389.93 2720.39,1390 2723.35,1390.06 2726.31,1390.13 2729.27,1390.2 2732.23,1390.27 2735.19,1390.33 2738.15,1390.4 2741.12,1390.46 2744.08,1390.53 2747.04,1390.59 2750,1390.66 2752.96,1390.72 2755.92,1390.79 2758.88,1390.85 2761.85,1390.91 2764.81,1390.97 2767.77,1391.04 2770.73,1391.1 2773.69,1391.16 2776.65,1391.22 2779.61,1391.28 2782.58,1391.35 2785.54,1391.41 2788.5,1391.47 2791.46,1391.53 2794.42,1391.59 2797.38,1391.65 2800.34,1391.7 2803.31,1391.76 2806.27,1391.82 2809.23,1391.88 2812.19,1391.94 2815.15,1392 2818.11,1392.05 2821.07,1392.11 2824.04,1392.17 2827,1392.22 2829.96,1392.28 2832.92,1392.33 2835.88,1392.39 2838.84,1392.45 2841.8,1392.5 2844.77,1392.56 2847.73,1392.61 2850.69,1392.66 2853.65,1392.72 2856.61,1392.77 2859.57,1392.82 2862.53,1392.88 2865.5,1392.93 2868.46,1392.98 2871.42,1393.04 2874.38,1393.09 2877.34,1393.14 2880.3,1393.19 2883.26,1393.24 2886.23,1393.29 2889.19,1393.34 2892.15,1393.4 2895.11,1393.45 2898.07,1393.5 2901.03,1393.55 2903.99,1393.6 2906.96,1393.64 2909.92,1393.69 2912.88,1393.74 2915.84,1393.79 2918.8,1393.84 2921.76,1393.89 2924.72,1393.94 2927.69,1393.98 2930.65,1394.03 2933.61,1394.08 2936.57,1394.12 2939.53,1394.17 2942.49,1394.22 2945.45,1394.26 2948.42,1394.31 2951.38,1394.36 2954.34,1394.4 2957.3,1394.45 2960.26,1394.49 2963.22,1394.54 2966.18,1394.58 2969.15,1394.63 2972.11,1394.67 2975.07,1394.72 2978.03,1394.76 2980.99,1394.8 2983.95,1394.85 2986.92,1394.89 2989.88,1394.93 2992.84,1394.97 2995.8,1395.02 2998.76,1395.06 3001.72,1395.1 3004.68,1395.14 3007.65,1395.19 3010.61,1395.23 3013.57,1395.27 3016.53,1395.31 3019.49,1395.35 3022.45,1395.39 3025.41,1395.43 3028.38,1395.47 3031.34,1395.51 3034.3,1395.55 3037.26,1395.59 3040.22,1395.63 3043.18,1395.67 3046.14,1395.71 3049.11,1395.75 3052.07,1395.79 3055.03,1395.83 3057.99,1395.86 3060.95,1395.9 3063.91,1395.94 3066.87,1395.98 3069.84,1396.02 3072.8,1396.05 3075.76,1396.09 3078.72,1396.13 3081.68,1396.16 3084.64,1396.2 3087.6,1396.24 3090.57,1396.27 3093.53,1396.31 3096.49,1396.35 3099.45,1396.38 3102.41,1396.42 3105.37,1396.45 3108.33,1396.49 3111.3,1396.52 3114.26,1396.56 3117.22,1396.59 3120.18,1396.63 3123.14,1396.66 3126.1,1396.7 3129.06,1396.73 3132.03,1396.77 3134.99,1396.8 3137.95,1396.83 3140.91,1396.87 3143.87,1396.9 3146.83,1396.93 3149.79,1396.97 3152.76,1397 "/>
<polyline clip-path="url(#clip842)" style="stroke:#e26f46; stroke-linecap:round; stroke-linejoin:round; stroke-width:32; stroke-opacity:1; fill:none" points="194.274,1404.18 197.235,1404.14 200.197,1404.05 203.158,1403.89 206.12,1403.67 209.081,1403.39 212.043,1403.05 215.004,1402.65 217.966,1402.2 220.927,1401.7 223.888,1401.14 226.85,1400.53 229.811,1399.88 232.773,1399.17 235.734,1398.42 238.696,1397.62 241.657,1396.77 244.619,1395.88 247.58,1394.95 250.541,1393.97 253.503,1392.95 256.464,1391.9 259.426,1390.8 262.387,1389.67 265.349,1388.5 268.31,1387.29 271.272,1386.04 274.233,1384.77 277.194,1383.45 280.156,1382.11 283.117,1380.73 286.079,1379.32 289.04,1377.88 292.002,1376.4 294.963,1374.9 297.925,1373.37 300.886,1371.82 303.847,1370.23 306.809,1368.62 309.77,1366.98 312.732,1365.31 315.693,1363.62 318.655,1361.91 321.616,1360.17 324.578,1358.41 327.539,1356.62 330.5,1354.81 333.462,1352.98 336.423,1351.13 339.385,1349.26 342.346,1347.37 345.308,1345.46 348.269,1343.52 351.23,1341.57 354.192,1339.6 357.153,1337.62 360.115,1335.61 363.076,1333.59 366.038,1331.55 368.999,1329.49 371.961,1327.42 374.922,1325.33 377.883,1323.23 380.845,1321.11 383.806,1318.98 386.768,1316.83 389.729,1314.67 392.691,1312.49 395.652,1310.3 398.614,1308.1 401.575,1305.89 404.536,1303.66 407.498,1301.42 410.459,1299.17 413.421,1296.91 416.382,1294.63 419.344,1292.35 422.305,1290.05 425.267,1287.75 428.228,1285.43 431.189,1283.1 434.151,1280.77 437.112,1278.42 440.074,1276.07 443.035,1273.71 445.997,1271.33 448.958,1268.95 451.92,1266.57 454.881,1264.17 457.842,1261.76 460.804,1259.35 463.765,1256.93 466.727,1254.51 469.688,1252.07 472.65,1249.63 475.611,1247.18 478.573,1244.73 481.534,1242.27 484.495,1239.81 487.457,1237.33 490.418,1234.86 493.38,1232.37 496.341,1229.89 499.303,1227.39 502.264,1224.9 505.226,1222.39 508.187,1219.88 511.148,1217.37 514.11,1214.86 517.071,1212.33 520.033,1209.81 522.994,1207.28 525.956,1204.75 528.917,1202.21 531.879,1199.67 534.84,1197.13 537.801,1194.58 540.763,1192.03 543.724,1189.48 546.686,1186.93 549.647,1184.37 552.609,1181.81 555.57,1179.24 558.532,1176.68 561.493,1174.11 564.454,1171.54 567.416,1168.97 570.377,1166.4 573.339,1163.82 576.3,1161.24 579.262,1158.66 582.223,1156.08 585.185,1153.5 588.146,1150.92 591.107,1148.34 594.069,1145.75 597.03,1143.16 599.992,1140.58 602.953,1137.99 605.915,1135.4 608.876,1132.81 611.838,1130.22 614.799,1127.63 617.76,1125.04 620.722,1122.45 623.683,1119.86 626.645,1117.27 629.606,1114.68 632.568,1112.09 635.529,1109.49 638.491,1106.9 641.452,1104.31 644.413,1101.72 647.375,1099.13 650.336,1096.54 653.298,1093.95 656.259,1091.37 659.221,1088.78 662.182,1086.19 665.143,1083.61 668.105,1081.02 671.066,1078.44 674.028,1075.85 676.989,1073.27 679.951,1070.69 682.912,1068.11 685.874,1065.53 688.835,1062.96 691.796,1060.38 694.758,1057.81 697.719,1055.24 700.681,1052.67 703.642,1050.1 706.604,1047.53 709.565,1044.96 712.527,1042.4 715.488,1039.84 718.449,1037.28 721.411,1034.72 724.372,1032.16 727.334,1029.61 730.295,1027.05 733.257,1024.5 736.218,1021.95 739.18,1019.41 742.141,1016.86 745.102,1014.32 748.064,1011.78 751.025,1009.25 753.987,1006.71 756.948,1004.18 759.91,1001.65 762.871,999.124 765.833,996.599 768.794,994.077 771.755,991.558 774.717,989.041 777.678,986.527 780.64,984.016 783.601,981.508 786.563,979.002 789.524,976.5 792.486,974 795.447,971.503 798.408,969.009 801.37,966.518 804.331,964.03 807.293,961.546 810.254,959.064 813.216,956.585 816.177,954.11 819.139,951.638 822.1,949.169 825.061,946.703 828.023,944.24 830.984,941.781 833.946,939.325 836.907,936.873 839.869,934.424 842.83,931.978 845.792,929.536 848.753,927.097 851.714,924.661 854.676,922.23 857.637,919.801 860.599,917.377 863.56,914.955 866.522,912.538 869.483,910.124 872.445,907.714 875.406,905.307 878.367,902.904 881.329,900.505 884.29,898.109 887.252,895.718 890.213,893.329 893.175,890.945 896.136,888.565 899.098,886.188 902.059,883.815 905.02,881.446 907.982,879.081 910.943,876.72 913.905,874.363 916.866,872.01 919.828,869.66 922.789,867.315 925.751,864.973 928.712,862.636 931.673,860.302 934.635,857.973 937.596,855.648 940.558,853.326 943.519,851.009 946.481,848.696 949.442,846.387 952.403,844.082 955.365,841.781 958.326,839.485 961.288,837.192 964.249,834.904 967.211,832.62 970.172,830.34 973.134,828.064 976.095,825.793 979.056,823.526 982.018,821.263 984.979,819.004 987.941,816.75 990.902,814.5 993.864,812.254 996.825,810.013 999.787,807.776 1002.75,805.543 1005.71,803.314 1008.67,801.09 1011.63,798.871 1014.59,796.655 1017.56,794.445 1020.52,792.238 1023.48,790.036 1026.44,787.838 1029.4,785.645 1032.36,783.456 1035.32,781.272 1038.29,779.092 1041.25,776.917 1044.21,774.746 1047.17,772.579 1050.13,770.417 1053.09,768.26 1056.05,766.107 1059.02,763.958 1061.98,761.814 1064.94,759.674 1067.9,757.539 1070.86,755.409 1073.82,753.283 1076.78,751.161 1079.75,749.044 1082.71,746.932 1085.67,744.824 1088.63,742.721 1091.59,740.622 1094.55,738.528 1097.51,736.438 1100.48,734.353 1103.44,732.272 1106.4,730.196 1109.36,728.125 1112.32,726.058 1115.28,723.996 1118.24,721.938 1121.21,719.885 1124.17,717.836 1127.13,715.793 1130.09,713.753 1133.05,711.719 1136.01,709.689 1138.97,707.663 1141.94,705.642 1144.9,703.626 1147.86,701.615 1150.82,699.608 1153.78,697.605 1156.74,695.608 1159.7,693.615 1162.67,691.626 1165.63,689.643 1168.59,687.663 1171.55,685.689 1174.51,683.719 1177.47,681.754 1180.43,679.794 1183.4,677.838 1186.36,675.887 1189.32,673.94 1192.28,671.998 1195.24,670.061 1198.2,668.128 1201.16,666.2 1204.13,664.277 1207.09,662.359 1210.05,660.445 1213.01,658.536 1215.97,656.631 1218.93,654.731 1221.89,652.836 1224.86,650.946 1227.82,649.06 1230.78,647.179 1233.74,645.302 1236.7,643.43 1239.66,641.563 1242.62,639.701 1245.59,637.843 1248.55,635.99 1251.51,634.141 1254.47,632.298 1257.43,630.458 1260.39,628.624 1263.36,626.794 1266.32,624.969 1269.28,623.148 1272.24,621.332 1275.2,619.521 1278.16,617.714 1281.12,615.912 1284.09,614.115 1287.05,612.322 1290.01,610.534 1292.97,608.75 1295.93,606.971 1298.89,605.197 1301.85,603.427 1304.82,601.662 1307.78,599.902 1310.74,598.146 1313.7,596.394 1316.66,594.648 1319.62,592.906 1322.58,591.168 1325.55,589.435 1328.51,587.707 1331.47,585.983 1334.43,584.264 1337.39,582.55 1340.35,580.84 1343.31,579.134 1346.28,577.433 1349.24,575.737 1352.2,574.045 1355.16,572.358 1358.12,570.675 1361.08,568.997 1364.04,567.324 1367.01,565.655 1369.97,563.99 1372.93,562.33 1375.89,560.675 1378.85,559.024 1381.81,557.378 1384.77,555.736 1387.74,554.099 1390.7,552.466 1393.66,550.838 1396.62,549.214 1399.58,547.595 1402.54,545.98 1405.5,544.37 1408.47,542.764 1411.43,541.163 1414.39,539.566 1417.35,537.974 1420.31,536.386 1423.27,534.803 1426.23,533.224 1429.2,531.649 1432.16,530.08 1435.12,528.514 1438.08,526.953 1441.04,525.396 1444,523.844 1446.96,522.297 1449.93,520.753 1452.89,519.215 1455.85,517.68 1458.81,516.15 1461.77,514.625 1464.73,513.104 1467.69,511.587 1470.66,510.074 1473.62,508.566 1476.58,507.063 1479.54,505.564 1482.5,504.069 1485.46,502.578 1488.42,501.092 1491.39,499.611 1494.35,498.133 1497.31,496.66 1500.27,495.191 1503.23,493.727 1506.19,492.267 1509.15,490.811 1512.12,489.359 1515.08,487.912 1518.04,486.469 1521,485.03 1523.96,483.596 1526.92,482.166 1529.88,480.74 1532.85,479.318 1535.81,477.9 1538.77,476.487 1541.73,475.078 1544.69,473.673 1547.65,472.273 1550.62,470.877 1553.58,469.484 1556.54,468.096 1559.5,466.713 1562.46,465.333 1565.42,463.958 1568.38,462.586 1571.35,461.219 1574.31,459.856 1577.27,458.497 1580.23,457.143 1583.19,455.792 1586.15,454.445 1589.11,453.103 1592.08,451.765 1595.04,450.431 1598,449.101 1600.96,447.775 1603.92,446.453 1606.88,445.135 1609.84,443.821 1612.81,442.512 1615.77,441.206 1618.73,439.904 1621.69,438.607 1624.65,437.313 1627.61,436.024 1630.57,434.738 1633.54,433.457 1636.5,432.179 1639.46,430.906 1642.42,429.636 1645.38,428.371 1648.34,427.109 1651.3,425.851 1654.27,424.598 1657.23,423.348 1660.19,422.102 1663.15,420.861 1666.11,419.623 1669.07,418.389 1672.03,417.159 1675,415.933 1677.96,414.71 1680.92,413.492 1683.88,412.278 1686.84,411.067 1689.8,409.861 1692.76,408.658 1695.73,407.459 1698.69,406.264 1701.65,405.073 1704.61,403.885 1707.57,402.702 1710.53,401.522 1713.49,400.346 1716.46,399.174 1719.42,398.006 1722.38,396.842 1725.34,395.681 1728.3,394.524 1731.26,393.371 1734.22,392.222 1737.19,391.076 1740.15,389.934 1743.11,388.796 1746.07,387.662 1749.03,386.531 1751.99,385.404 1754.95,384.281 1757.92,383.161 1760.88,382.045 1763.84,380.933 1766.8,379.824 1769.76,378.719 1772.72,377.618 1775.68,376.52 1778.65,375.426 1781.61,374.336 1784.57,373.249 1787.53,372.166 1790.49,371.086 1793.45,370.01 1796.41,368.938 1799.38,367.869 1802.34,366.803 1805.3,365.742 1808.26,364.683 1811.22,363.629 1814.18,362.577 1817.14,361.53 1820.11,360.485 1823.07,359.445 1826.03,358.407 1828.99,357.374 1831.95,356.343 1834.91,355.317 1837.88,354.293 1840.84,353.273 1843.8,352.257 1846.76,351.244 1849.72,350.234 1852.68,349.228 1855.64,348.225 1858.61,347.225 1861.57,346.229 1864.53,345.237 1867.49,344.247 1870.45,343.261 1873.41,342.279 1876.37,341.299 1879.34,340.324 1882.3,339.351 1885.26,338.382 1888.22,337.416 1891.18,336.453 1894.14,335.494 1897.1,334.538 1900.07,333.585 1903.03,332.635 1905.99,331.689 1908.95,330.746 1911.91,329.806 1914.87,328.87 1917.83,327.936 1920.8,327.006 1923.76,326.079 1926.72,325.156 1929.68,324.235 1932.64,323.318 1935.6,322.404 1938.56,321.493 1941.53,320.585 1944.49,319.681 1947.45,318.779 1950.41,317.881 1953.37,316.986 1956.33,316.094 1959.29,315.205 1962.26,314.32 1965.22,313.437 1968.18,312.557 1971.14,311.681 1974.1,310.808 1977.06,309.937 1980.02,309.07 1982.99,308.206 1985.95,307.345 1988.91,306.487 1991.87,305.632 1994.83,304.78 1997.79,303.931 2000.75,303.085 2003.72,302.242 2006.68,301.402 2009.64,300.566 2012.6,299.732 2015.56,298.901 2018.52,298.073 2021.48,297.248 2024.45,296.425 2027.41,295.606 2030.37,294.79 2033.33,293.977 2036.29,293.166 2039.25,292.359 2042.21,291.554 2045.18,290.752 2048.14,289.953 2051.1,289.157 2054.06,288.364 2057.02,287.573 2059.98,286.786 2062.94,286.001 2065.91,285.219 2068.87,284.44 2071.83,283.664 2074.79,282.89 2077.75,282.12 2080.71,281.352 2083.67,280.587 2086.64,279.824 2089.6,279.064 2092.56,278.308 2095.52,277.553 2098.48,276.802 2101.44,276.053 2104.4,275.307 2107.37,274.564 2110.33,273.823 2113.29,273.085 2116.25,272.35 2119.21,271.617 2122.17,270.887 2125.14,270.16 2128.1,269.435 2131.06,268.713 2134.02,267.994 2136.98,267.277 2139.94,266.563 2142.9,265.851 2145.87,265.142 2148.83,264.436 2151.79,263.732 2154.75,263.031 2157.71,262.332 2160.67,261.636 2163.63,260.943 2166.6,260.252 2169.56,259.563 2172.52,258.877 2175.48,258.194 2178.44,257.513 2181.4,256.835 2184.36,256.159 2187.33,255.485 2190.29,254.814 2193.25,254.146 2196.21,253.48 2199.17,252.816 2202.13,252.155 2205.09,251.497 2208.06,250.841 2211.02,250.187 2213.98,249.536 2216.94,248.887 2219.9,248.24 2222.86,247.596 2225.82,246.954 2228.79,246.315 2231.75,245.678 2234.71,245.044 2237.67,244.411 2240.63,243.782 2243.59,243.154 2246.55,242.529 2249.52,241.906 2252.48,241.286 2255.44,240.668 2258.4,240.052 2261.36,239.438 2264.32,238.827 2267.28,238.218 2270.25,237.612 2273.21,237.008 2276.17,236.406 2279.13,235.806 2282.09,235.208 2285.05,234.613 2288.01,234.02 2290.98,233.429 2293.94,232.841 2296.9,232.255 2299.86,231.671 2302.82,231.089 2305.78,230.509 2308.74,229.932 2311.71,229.356 2314.67,228.783 2317.63,228.212 2320.59,227.644 2323.55,227.077 2326.51,226.513 2329.47,225.95 2332.44,225.39 2335.4,224.832 2338.36,224.276 2341.32,223.722 2344.28,223.171 2347.24,222.621 2350.2,222.074 2353.17,221.528 2356.13,220.985 2359.09,220.443 2362.05,219.904 2365.01,219.367 2367.97,218.832 2370.93,218.299 2373.9,217.768 2376.86,217.239 2379.82,216.712 2382.78,216.187 2385.74,215.664 2388.7,215.143 2391.66,214.624 2394.63,214.107 2397.59,213.592 2400.55,213.078 2403.51,212.567 2406.47,212.058 2409.43,211.551 2412.4,211.046 2415.36,210.542 2418.32,210.041 2421.28,209.542 2424.24,209.044 2427.2,208.548 2430.16,208.055 2433.13,207.563 2436.09,207.073 2439.05,206.585 2442.01,206.098 2444.97,205.614 2447.93,205.132 2450.89,204.651 2453.86,204.172 2456.82,203.695 2459.78,203.22 2462.74,202.747 2465.7,202.276 2468.66,201.806 2471.62,201.338 2474.59,200.872 2477.55,200.408 2480.51,199.946 2483.47,199.485 2486.43,199.027 2489.39,198.57 2492.35,198.114 2495.32,197.661 2498.28,197.209 2501.24,196.759 2504.2,196.311 2507.16,195.865 2510.12,195.42 2513.08,194.977 2516.05,194.536 2519.01,194.096 2521.97,193.658 2524.93,193.222 2527.89,192.788 2530.85,192.355 2533.81,191.924 2536.78,191.495 2539.74,191.067 2542.7,190.641 2545.66,190.217 2548.62,189.794 2551.58,189.373 2554.54,188.953 2557.51,188.536 2560.47,188.12 2563.43,187.705 2566.39,187.292 2569.35,186.881 2572.31,186.472 2575.27,186.064 2578.24,185.657 2581.2,185.253 2584.16,184.849 2587.12,184.448 2590.08,184.048 2593.04,183.65 2596,183.253 2598.97,182.857 2601.93,182.464 2604.89,182.072 2607.85,181.681 2610.81,181.292 2613.77,180.904 2616.73,180.518 2619.7,180.134 2622.66,179.751 2625.62,179.37 2628.58,178.99 2631.54,178.611 2634.5,178.234 2637.46,177.859 2640.43,177.485 2643.39,177.112 2646.35,176.741 2649.31,176.372 2652.27,176.004 2655.23,175.637 2658.19,175.272 2661.16,174.908 2664.12,174.546 2667.08,174.185 2670.04,173.826 2673,173.468 2675.96,173.111 2678.92,172.756 2681.89,172.402 2684.85,172.05 2687.81,171.699 2690.77,171.35 2693.73,171.001 2696.69,170.655 2699.66,170.309 2702.62,169.965 2705.58,169.623 2708.54,169.281 2711.5,168.941 2714.46,168.603 2717.42,168.266 2720.39,167.93 2723.35,167.595 2726.31,167.262 2729.27,166.93 2732.23,166.599 2735.19,166.27 2738.15,165.942 2741.12,165.616 2744.08,165.29 2747.04,164.966 2750,164.644 2752.96,164.322 2755.92,164.002 2758.88,163.683 2761.85,163.365 2764.81,163.049 2767.77,162.734 2770.73,162.42 2773.69,162.108 2776.65,161.796 2779.61,161.486 2782.58,161.177 2785.54,160.87 2788.5,160.563 2791.46,160.258 2794.42,159.954 2797.38,159.652 2800.34,159.35 2803.31,159.05 2806.27,158.751 2809.23,158.453 2812.19,158.156 2815.15,157.861 2818.11,157.566 2821.07,157.273 2824.04,156.981 2827,156.691 2829.96,156.401 2832.92,156.112 2835.88,155.825 2838.84,155.539 2841.8,155.254 2844.77,154.97 2847.73,154.688 2850.69,154.406 2853.65,154.126 2856.61,153.846 2859.57,153.568 2862.53,153.291 2865.5,153.015 2868.46,152.741 2871.42,152.467 2874.38,152.194 2877.34,151.923 2880.3,151.653 2883.26,151.383 2886.23,151.115 2889.19,150.848 2892.15,150.582 2895.11,150.317 2898.07,150.053 2901.03,149.791 2903.99,149.529 2906.96,149.268 2909.92,149.009 2912.88,148.75 2915.84,148.493 2918.8,148.236 2921.76,147.981 2924.72,147.726 2927.69,147.473 2930.65,147.221 2933.61,146.969 2936.57,146.719 2939.53,146.47 2942.49,146.222 2945.45,145.975 2948.42,145.728 2951.38,145.483 2954.34,145.239 2957.3,144.996 2960.26,144.753 2963.22,144.512 2966.18,144.272 2969.15,144.033 2972.11,143.794 2975.07,143.557 2978.03,143.32 2980.99,143.085 2983.95,142.851 2986.92,142.617 2989.88,142.385 2992.84,142.153 2995.8,141.922 2998.76,141.692 3001.72,141.464 3004.68,141.236 3007.65,141.009 3010.61,140.783 3013.57,140.558 3016.53,140.334 3019.49,140.11 3022.45,139.888 3025.41,139.667 3028.38,139.446 3031.34,139.226 3034.3,139.008 3037.26,138.79 3040.22,138.573 3043.18,138.357 3046.14,138.142 3049.11,137.927 3052.07,137.714 3055.03,137.501 3057.99,137.29 3060.95,137.079 3063.91,136.869 3066.87,136.66 3069.84,136.451 3072.8,136.244 3075.76,136.037 3078.72,135.832 3081.68,135.627 3084.64,135.423 3087.6,135.22 3090.57,135.017 3093.53,134.816 3096.49,134.615 3099.45,134.415 3102.41,134.216 3105.37,134.018 3108.33,133.82 3111.3,133.624 3114.26,133.428 3117.22,133.233 3120.18,133.039 3123.14,132.845 3126.1,132.653 3129.06,132.461 3132.03,132.27 3134.99,132.08 3137.95,131.89 3140.91,131.701 3143.87,131.513 3146.83,131.326 3149.79,131.14 3152.76,130.954 "/>
<circle clip-path="url(#clip842)" cx="490.122" cy="749.592" r="21.6" fill="#0000ff" fill-rule="evenodd" fill-opacity="1" stroke="#000000" stroke-opacity="1" stroke-width="3.2"/>
<circle clip-path="url(#clip842)" cx="785.97" cy="1048.41" r="21.6" fill="#0000ff" fill-rule="evenodd" fill-opacity="1" stroke="#000000" stroke-opacity="1" stroke-width="3.2"/>
<circle clip-path="url(#clip842)" cx="1081.82" cy="1129.32" r="21.6" fill="#0000ff" fill-rule="evenodd" fill-opacity="1" stroke="#000000" stroke-opacity="1" stroke-width="3.2"/>
<circle clip-path="url(#clip842)" cx="1377.67" cy="1273.15" r="21.6" fill="#0000ff" fill-rule="evenodd" fill-opacity="1" stroke="#000000" stroke-opacity="1" stroke-width="3.2"/>
<circle clip-path="url(#clip842)" cx="1673.51" cy="1310.76" r="21.6" fill="#0000ff" fill-rule="evenodd" fill-opacity="1" stroke="#000000" stroke-opacity="1" stroke-width="3.2"/>
<circle clip-path="url(#clip842)" cx="1969.36" cy="1347.5" r="21.6" fill="#0000ff" fill-rule="evenodd" fill-opacity="1" stroke="#000000" stroke-opacity="1" stroke-width="3.2"/>
<circle clip-path="url(#clip842)" cx="2265.21" cy="1371.18" r="21.6" fill="#0000ff" fill-rule="evenodd" fill-opacity="1" stroke="#000000" stroke-opacity="1" stroke-width="3.2"/>
<circle clip-path="url(#clip842)" cx="2561.06" cy="1388.82" r="21.6" fill="#0000ff" fill-rule="evenodd" fill-opacity="1" stroke="#000000" stroke-opacity="1" stroke-width="3.2"/>
<circle clip-path="url(#clip842)" cx="2856.91" cy="1390.55" r="21.6" fill="#0000ff" fill-rule="evenodd" fill-opacity="1" stroke="#000000" stroke-opacity="1" stroke-width="3.2"/>
<circle clip-path="url(#clip842)" cx="3152.76" cy="1395.73" r="21.6" fill="#0000ff" fill-rule="evenodd" fill-opacity="1" stroke="#000000" stroke-opacity="1" stroke-width="3.2"/>
<circle clip-path="url(#clip842)" cx="490.122" cy="1205.21" r="21.6" fill="#ff0000" fill-rule="evenodd" fill-opacity="1" stroke="#000000" stroke-opacity="1" stroke-width="3.2"/>
<circle clip-path="url(#clip842)" cx="785.97" cy="960.997" r="21.6" fill="#ff0000" fill-rule="evenodd" fill-opacity="1" stroke="#000000" stroke-opacity="1" stroke-width="3.2"/>
<circle clip-path="url(#clip842)" cx="1081.82" cy="715.201" r="21.6" fill="#ff0000" fill-rule="evenodd" fill-opacity="1" stroke="#000000" stroke-opacity="1" stroke-width="3.2"/>
<circle clip-path="url(#clip842)" cx="1377.67" cy="445.457" r="21.6" fill="#ff0000" fill-rule="evenodd" fill-opacity="1" stroke="#000000" stroke-opacity="1" stroke-width="3.2"/>
<circle clip-path="url(#clip842)" cx="1673.51" cy="531.459" r="21.6" fill="#ff0000" fill-rule="evenodd" fill-opacity="1" stroke="#000000" stroke-opacity="1" stroke-width="3.2"/>
<circle clip-path="url(#clip842)" cx="1969.36" cy="283.06" r="21.6" fill="#ff0000" fill-rule="evenodd" fill-opacity="1" stroke="#000000" stroke-opacity="1" stroke-width="3.2"/>
<circle clip-path="url(#clip842)" cx="2265.21" cy="460.755" r="21.6" fill="#ff0000" fill-rule="evenodd" fill-opacity="1" stroke="#000000" stroke-opacity="1" stroke-width="3.2"/>
<circle clip-path="url(#clip842)" cx="2561.06" cy="189.687" r="21.6" fill="#ff0000" fill-rule="evenodd" fill-opacity="1" stroke="#000000" stroke-opacity="1" stroke-width="3.2"/>
<circle clip-path="url(#clip842)" cx="2856.91" cy="217.529" r="21.6" fill="#ff0000" fill-rule="evenodd" fill-opacity="1" stroke="#000000" stroke-opacity="1" stroke-width="3.2"/>
<circle clip-path="url(#clip842)" cx="3152.76" cy="243.21" r="21.6" fill="#ff0000" fill-rule="evenodd" fill-opacity="1" stroke="#000000" stroke-opacity="1" stroke-width="3.2"/>
<path clip-path="url(#clip840)" d="M292.89 352.993 L858.181 352.993 L858.181 93.7926 L292.89 93.7926  Z" fill="#ffffff" fill-rule="evenodd" fill-opacity="1"/>
<polyline clip-path="url(#clip840)" style="stroke:#000000; stroke-linecap:round; stroke-linejoin:round; stroke-width:4; stroke-opacity:1; fill:none" points="292.89,352.993 858.181,352.993 858.181,93.7926 292.89,93.7926 292.89,352.993 "/>
<polyline clip-path="url(#clip840)" style="stroke:#009af9; stroke-linecap:round; stroke-linejoin:round; stroke-width:20; stroke-opacity:1; fill:none" points="325.762,145.633 522.994,145.633 "/>
<path clip-path="url(#clip840)" d="M555.866 128.353 L585.102 128.353 L585.102 132.288 L572.834 132.288 L572.834 162.913 L568.135 162.913 L568.135 132.288 L555.866 132.288 L555.866 128.353 Z" fill="#000000" fill-rule="nonzero" fill-opacity="1" /><path clip-path="url(#clip840)" d="M597.486 140.968 Q596.769 140.552 595.912 140.366 Q595.079 140.158 594.06 140.158 Q590.449 140.158 588.505 142.519 Q586.584 144.857 586.584 149.255 L586.584 162.913 L582.301 162.913 L582.301 136.987 L586.584 136.987 L586.584 141.015 Q587.926 138.653 590.079 137.519 Q592.232 136.362 595.31 136.362 Q595.75 136.362 596.283 136.431 Q596.815 136.478 597.463 136.593 L597.486 140.968 Z" fill="#000000" fill-rule="nonzero" fill-opacity="1" /><path clip-path="url(#clip840)" d="M601.514 152.681 L601.514 136.987 L605.773 136.987 L605.773 152.519 Q605.773 156.2 607.209 158.052 Q608.644 159.88 611.514 159.88 Q614.963 159.88 616.954 157.681 Q618.968 155.482 618.968 151.686 L618.968 136.987 L623.227 136.987 L623.227 162.913 L618.968 162.913 L618.968 158.931 Q617.417 161.292 615.357 162.45 Q613.32 163.584 610.611 163.584 Q606.144 163.584 603.829 160.806 Q601.514 158.028 601.514 152.681 M612.232 136.362 L612.232 136.362 Z" fill="#000000" fill-rule="nonzero" fill-opacity="1" /><path clip-path="url(#clip840)" d="M654.176 148.885 L654.176 150.968 L634.593 150.968 Q634.87 155.366 637.232 157.681 Q639.616 159.973 643.852 159.973 Q646.306 159.973 648.597 159.371 Q650.912 158.769 653.181 157.565 L653.181 161.593 Q650.889 162.565 648.481 163.075 Q646.074 163.584 643.597 163.584 Q637.394 163.584 633.759 159.973 Q630.148 156.362 630.148 150.204 Q630.148 143.839 633.574 140.112 Q637.023 136.362 642.857 136.362 Q648.088 136.362 651.12 139.741 Q654.176 143.098 654.176 148.885 M649.917 147.635 Q649.87 144.14 647.949 142.056 Q646.051 139.973 642.903 139.973 Q639.338 139.973 637.185 141.987 Q635.056 144.001 634.732 147.658 L649.917 147.635 Z" fill="#000000" fill-rule="nonzero" fill-opacity="1" /><path clip-path="url(#clip840)" d="M697.139 129.487 L697.139 134.047 Q694.477 132.774 692.116 132.149 Q689.754 131.524 687.555 131.524 Q683.736 131.524 681.653 133.005 Q679.592 134.487 679.592 137.218 Q679.592 139.51 680.958 140.691 Q682.347 141.848 686.19 142.566 L689.014 143.144 Q694.245 144.14 696.722 146.663 Q699.222 149.163 699.222 153.376 Q699.222 158.399 695.842 160.991 Q692.486 163.584 685.981 163.584 Q683.528 163.584 680.75 163.028 Q677.995 162.473 675.032 161.385 L675.032 156.57 Q677.879 158.167 680.611 158.977 Q683.342 159.788 685.981 159.788 Q689.986 159.788 692.162 158.214 Q694.338 156.64 694.338 153.723 Q694.338 151.177 692.764 149.741 Q691.213 148.306 687.648 147.589 L684.801 147.033 Q679.569 145.991 677.231 143.769 Q674.893 141.547 674.893 137.589 Q674.893 133.005 678.111 130.366 Q681.352 127.728 687.023 127.728 Q689.453 127.728 691.977 128.167 Q694.5 128.607 697.139 129.487 Z" fill="#000000" fill-rule="nonzero" fill-opacity="1" /><polyline clip-path="url(#clip840)" style="stroke:#e26f46; stroke-linecap:round; stroke-linejoin:round; stroke-width:20; stroke-opacity:1; fill:none" points="325.762,197.473 522.994,197.473 "/>
<path clip-path="url(#clip840)" d="M555.866 180.193 L585.102 180.193 L585.102 184.128 L572.834 184.128 L572.834 214.753 L568.135 214.753 L568.135 184.128 L555.866 184.128 L555.866 180.193 Z" fill="#000000" fill-rule="nonzero" fill-opacity="1" /><path clip-path="url(#clip840)" d="M597.486 192.808 Q596.769 192.392 595.912 192.206 Q595.079 191.998 594.06 191.998 Q590.449 191.998 588.505 194.359 Q586.584 196.697 586.584 201.095 L586.584 214.753 L582.301 214.753 L582.301 188.827 L586.584 188.827 L586.584 192.855 Q587.926 190.493 590.079 189.359 Q592.232 188.202 595.31 188.202 Q595.75 188.202 596.283 188.271 Q596.815 188.318 597.463 188.433 L597.486 192.808 Z" fill="#000000" fill-rule="nonzero" fill-opacity="1" /><path clip-path="url(#clip840)" d="M601.514 204.521 L601.514 188.827 L605.773 188.827 L605.773 204.359 Q605.773 208.04 607.209 209.892 Q608.644 211.72 611.514 211.72 Q614.963 211.72 616.954 209.521 Q618.968 207.322 618.968 203.526 L618.968 188.827 L623.227 188.827 L623.227 214.753 L618.968 214.753 L618.968 210.771 Q617.417 213.132 615.357 214.29 Q613.32 215.424 610.611 215.424 Q606.144 215.424 603.829 212.646 Q601.514 209.868 601.514 204.521 M612.232 188.202 L612.232 188.202 Z" fill="#000000" fill-rule="nonzero" fill-opacity="1" /><path clip-path="url(#clip840)" d="M654.176 200.725 L654.176 202.808 L634.593 202.808 Q634.87 207.206 637.232 209.521 Q639.616 211.813 643.852 211.813 Q646.306 211.813 648.597 211.211 Q650.912 210.609 653.181 209.405 L653.181 213.433 Q650.889 214.405 648.481 214.915 Q646.074 215.424 643.597 215.424 Q637.394 215.424 633.759 211.813 Q630.148 208.202 630.148 202.044 Q630.148 195.679 633.574 191.952 Q637.023 188.202 642.857 188.202 Q648.088 188.202 651.12 191.581 Q654.176 194.938 654.176 200.725 M649.917 199.475 Q649.87 195.98 647.949 193.896 Q646.051 191.813 642.903 191.813 Q639.338 191.813 637.185 193.827 Q635.056 195.841 634.732 199.498 L649.917 199.475 Z" fill="#000000" fill-rule="nonzero" fill-opacity="1" /><path clip-path="url(#clip840)" d="M681.097 184.035 L681.097 197.021 L686.977 197.021 Q690.241 197.021 692.023 195.331 Q693.805 193.642 693.805 190.517 Q693.805 187.415 692.023 185.725 Q690.241 184.035 686.977 184.035 L681.097 184.035 M676.421 180.193 L686.977 180.193 Q692.787 180.193 695.75 182.831 Q698.736 185.447 698.736 190.517 Q698.736 195.632 695.75 198.248 Q692.787 200.864 686.977 200.864 L681.097 200.864 L681.097 214.753 L676.421 214.753 L676.421 180.193 Z" fill="#000000" fill-rule="nonzero" fill-opacity="1" /><circle clip-path="url(#clip840)" cx="424.378" cy="249.313" r="21.2677" fill="#0000ff" fill-rule="evenodd" fill-opacity="1" stroke="#000000" stroke-opacity="1" stroke-width="3.15077"/>
<path clip-path="url(#clip840)" d="M555.866 232.033 L562.834 232.033 L571.653 255.551 L580.519 232.033 L587.486 232.033 L587.486 266.593 L582.926 266.593 L582.926 236.246 L574.014 259.949 L569.315 259.949 L560.403 236.246 L560.403 266.593 L555.866 266.593 L555.866 232.033 Z" fill="#000000" fill-rule="nonzero" fill-opacity="1" /><path clip-path="url(#clip840)" d="M618.759 252.565 L618.759 254.648 L599.176 254.648 Q599.454 259.046 601.815 261.361 Q604.199 263.653 608.435 263.653 Q610.889 263.653 613.181 263.051 Q615.496 262.449 617.764 261.245 L617.764 265.273 Q615.472 266.245 613.065 266.755 Q610.658 267.264 608.181 267.264 Q601.977 267.264 598.343 263.653 Q594.732 260.042 594.732 253.884 Q594.732 247.519 598.158 243.792 Q601.607 240.042 607.44 240.042 Q612.671 240.042 615.704 243.421 Q618.759 246.778 618.759 252.565 M614.5 251.315 Q614.454 247.82 612.533 245.736 Q610.634 243.653 607.486 243.653 Q603.922 243.653 601.769 245.667 Q599.639 247.681 599.315 251.338 L614.5 251.315 Z" fill="#000000" fill-rule="nonzero" fill-opacity="1" /><path clip-path="url(#clip840)" d="M637.532 253.56 Q632.37 253.56 630.38 254.741 Q628.389 255.921 628.389 258.769 Q628.389 261.037 629.87 262.38 Q631.375 263.699 633.945 263.699 Q637.486 263.699 639.616 261.199 Q641.769 258.676 641.769 254.509 L641.769 253.56 L637.532 253.56 M646.028 251.801 L646.028 266.593 L641.769 266.593 L641.769 262.657 Q640.31 265.019 638.134 266.153 Q635.958 267.264 632.81 267.264 Q628.829 267.264 626.468 265.042 Q624.13 262.796 624.13 259.046 Q624.13 254.671 627.046 252.449 Q629.986 250.227 635.796 250.227 L641.769 250.227 L641.769 249.81 Q641.769 246.871 639.824 245.273 Q637.903 243.653 634.407 243.653 Q632.185 243.653 630.079 244.185 Q627.972 244.718 626.028 245.783 L626.028 241.847 Q628.366 240.945 630.565 240.505 Q632.764 240.042 634.847 240.042 Q640.472 240.042 643.25 242.958 Q646.028 245.875 646.028 251.801 Z" fill="#000000" fill-rule="nonzero" fill-opacity="1" /><path clip-path="url(#clip840)" d="M671.329 241.431 L671.329 245.458 Q669.523 244.533 667.579 244.07 Q665.634 243.607 663.551 243.607 Q660.38 243.607 658.782 244.579 Q657.208 245.551 657.208 247.495 Q657.208 248.977 658.343 249.833 Q659.477 250.667 662.903 251.431 L664.361 251.755 Q668.898 252.727 670.796 254.509 Q672.717 256.269 672.717 259.44 Q672.717 263.051 669.847 265.157 Q667 267.264 662 267.264 Q659.917 267.264 657.648 266.847 Q655.403 266.454 652.903 265.644 L652.903 261.245 Q655.264 262.472 657.556 263.097 Q659.847 263.699 662.093 263.699 Q665.102 263.699 666.722 262.681 Q668.342 261.639 668.342 259.764 Q668.342 258.028 667.162 257.102 Q666.005 256.176 662.046 255.32 L660.565 254.972 Q656.606 254.139 654.847 252.426 Q653.088 250.69 653.088 247.681 Q653.088 244.023 655.681 242.033 Q658.273 240.042 663.042 240.042 Q665.403 240.042 667.486 240.389 Q669.569 240.736 671.329 241.431 Z" fill="#000000" fill-rule="nonzero" fill-opacity="1" /><path clip-path="url(#clip840)" d="M679.06 256.361 L679.06 240.667 L683.319 240.667 L683.319 256.199 Q683.319 259.88 684.754 261.732 Q686.19 263.56 689.06 263.56 Q692.509 263.56 694.5 261.361 Q696.514 259.162 696.514 255.366 L696.514 240.667 L700.773 240.667 L700.773 266.593 L696.514 266.593 L696.514 262.611 Q694.963 264.972 692.903 266.13 Q690.866 267.264 688.157 267.264 Q683.69 267.264 681.375 264.486 Q679.06 261.708 679.06 256.361 M689.778 240.042 L689.778 240.042 Z" fill="#000000" fill-rule="nonzero" fill-opacity="1" /><path clip-path="url(#clip840)" d="M724.569 244.648 Q723.851 244.232 722.995 244.046 Q722.162 243.838 721.143 243.838 Q717.532 243.838 715.588 246.199 Q713.666 248.537 713.666 252.935 L713.666 266.593 L709.384 266.593 L709.384 240.667 L713.666 240.667 L713.666 244.695 Q715.009 242.333 717.162 241.199 Q719.314 240.042 722.393 240.042 Q722.833 240.042 723.365 240.111 Q723.898 240.158 724.546 240.273 L724.569 244.648 Z" fill="#000000" fill-rule="nonzero" fill-opacity="1" /><path clip-path="url(#clip840)" d="M750.171 252.565 L750.171 254.648 L730.588 254.648 Q730.865 259.046 733.226 261.361 Q735.611 263.653 739.847 263.653 Q742.3 263.653 744.592 263.051 Q746.907 262.449 749.175 261.245 L749.175 265.273 Q746.884 266.245 744.476 266.755 Q742.069 267.264 739.592 267.264 Q733.388 267.264 729.754 263.653 Q726.143 260.042 726.143 253.884 Q726.143 247.519 729.569 243.792 Q733.018 240.042 738.851 240.042 Q744.083 240.042 747.115 243.421 Q750.171 246.778 750.171 252.565 M745.912 251.315 Q745.865 247.82 743.944 245.736 Q742.046 243.653 738.898 243.653 Q735.333 243.653 733.18 245.667 Q731.05 247.681 730.726 251.338 L745.912 251.315 Z" fill="#000000" fill-rule="nonzero" fill-opacity="1" /><path clip-path="url(#clip840)" d="M774.222 244.602 L774.222 230.574 L778.481 230.574 L778.481 266.593 L774.222 266.593 L774.222 262.704 Q772.879 265.019 770.819 266.153 Q768.782 267.264 765.911 267.264 Q761.212 267.264 758.249 263.514 Q755.31 259.764 755.31 253.653 Q755.31 247.542 758.249 243.792 Q761.212 240.042 765.911 240.042 Q768.782 240.042 770.819 241.176 Q772.879 242.287 774.222 244.602 M759.708 253.653 Q759.708 258.352 761.629 261.037 Q763.573 263.699 766.953 263.699 Q770.333 263.699 772.277 261.037 Q774.222 258.352 774.222 253.653 Q774.222 248.954 772.277 246.292 Q770.333 243.607 766.953 243.607 Q763.573 243.607 761.629 246.292 Q759.708 248.954 759.708 253.653 Z" fill="#000000" fill-rule="nonzero" fill-opacity="1" /><path clip-path="url(#clip840)" d="M823.226 233.167 L823.226 237.727 Q820.564 236.454 818.203 235.829 Q815.842 235.204 813.643 235.204 Q809.823 235.204 807.74 236.685 Q805.68 238.167 805.68 240.898 Q805.68 243.19 807.045 244.371 Q808.434 245.528 812.277 246.246 L815.101 246.824 Q820.332 247.82 822.809 250.343 Q825.309 252.843 825.309 257.056 Q825.309 262.079 821.93 264.671 Q818.573 267.264 812.069 267.264 Q809.615 267.264 806.837 266.708 Q804.082 266.153 801.12 265.065 L801.12 260.25 Q803.967 261.847 806.698 262.657 Q809.43 263.468 812.069 263.468 Q816.073 263.468 818.249 261.894 Q820.425 260.32 820.425 257.403 Q820.425 254.857 818.851 253.421 Q817.3 251.986 813.735 251.269 L810.888 250.713 Q805.657 249.671 803.319 247.449 Q800.981 245.227 800.981 241.269 Q800.981 236.685 804.198 234.046 Q807.439 231.408 813.11 231.408 Q815.541 231.408 818.064 231.847 Q820.587 232.287 823.226 233.167 Z" fill="#000000" fill-rule="nonzero" fill-opacity="1" /><circle clip-path="url(#clip840)" cx="424.378" cy="301.153" r="21.2677" fill="#ff0000" fill-rule="evenodd" fill-opacity="1" stroke="#000000" stroke-opacity="1" stroke-width="3.15077"/>
<path clip-path="url(#clip840)" d="M555.866 283.873 L562.834 283.873 L571.653 307.391 L580.519 283.873 L587.486 283.873 L587.486 318.433 L582.926 318.433 L582.926 288.086 L574.014 311.789 L569.315 311.789 L560.403 288.086 L560.403 318.433 L555.866 318.433 L555.866 283.873 Z" fill="#000000" fill-rule="nonzero" fill-opacity="1" /><path clip-path="url(#clip840)" d="M618.759 304.405 L618.759 306.488 L599.176 306.488 Q599.454 310.886 601.815 313.201 Q604.199 315.493 608.435 315.493 Q610.889 315.493 613.181 314.891 Q615.496 314.289 617.764 313.085 L617.764 317.113 Q615.472 318.085 613.065 318.595 Q610.658 319.104 608.181 319.104 Q601.977 319.104 598.343 315.493 Q594.732 311.882 594.732 305.724 Q594.732 299.359 598.158 295.632 Q601.607 291.882 607.44 291.882 Q612.671 291.882 615.704 295.261 Q618.759 298.618 618.759 304.405 M614.5 303.155 Q614.454 299.66 612.533 297.576 Q610.634 295.493 607.486 295.493 Q603.922 295.493 601.769 297.507 Q599.639 299.521 599.315 303.178 L614.5 303.155 Z" fill="#000000" fill-rule="nonzero" fill-opacity="1" /><path clip-path="url(#clip840)" d="M637.532 305.4 Q632.37 305.4 630.38 306.581 Q628.389 307.761 628.389 310.609 Q628.389 312.877 629.87 314.22 Q631.375 315.539 633.945 315.539 Q637.486 315.539 639.616 313.039 Q641.769 310.516 641.769 306.349 L641.769 305.4 L637.532 305.4 M646.028 303.641 L646.028 318.433 L641.769 318.433 L641.769 314.497 Q640.31 316.859 638.134 317.993 Q635.958 319.104 632.81 319.104 Q628.829 319.104 626.468 316.882 Q624.13 314.636 624.13 310.886 Q624.13 306.511 627.046 304.289 Q629.986 302.067 635.796 302.067 L641.769 302.067 L641.769 301.65 Q641.769 298.711 639.824 297.113 Q637.903 295.493 634.407 295.493 Q632.185 295.493 630.079 296.025 Q627.972 296.558 626.028 297.623 L626.028 293.687 Q628.366 292.785 630.565 292.345 Q632.764 291.882 634.847 291.882 Q640.472 291.882 643.25 294.798 Q646.028 297.715 646.028 303.641 Z" fill="#000000" fill-rule="nonzero" fill-opacity="1" /><path clip-path="url(#clip840)" d="M671.329 293.271 L671.329 297.298 Q669.523 296.373 667.579 295.91 Q665.634 295.447 663.551 295.447 Q660.38 295.447 658.782 296.419 Q657.208 297.391 657.208 299.335 Q657.208 300.817 658.343 301.673 Q659.477 302.507 662.903 303.271 L664.361 303.595 Q668.898 304.567 670.796 306.349 Q672.717 308.109 672.717 311.28 Q672.717 314.891 669.847 316.997 Q667 319.104 662 319.104 Q659.917 319.104 657.648 318.687 Q655.403 318.294 652.903 317.484 L652.903 313.085 Q655.264 314.312 657.556 314.937 Q659.847 315.539 662.093 315.539 Q665.102 315.539 666.722 314.521 Q668.342 313.479 668.342 311.604 Q668.342 309.868 667.162 308.942 Q666.005 308.016 662.046 307.16 L660.565 306.812 Q656.606 305.979 654.847 304.266 Q653.088 302.53 653.088 299.521 Q653.088 295.863 655.681 293.873 Q658.273 291.882 663.042 291.882 Q665.403 291.882 667.486 292.229 Q669.569 292.576 671.329 293.271 Z" fill="#000000" fill-rule="nonzero" fill-opacity="1" /><path clip-path="url(#clip840)" d="M679.06 308.201 L679.06 292.507 L683.319 292.507 L683.319 308.039 Q683.319 311.72 684.754 313.572 Q686.19 315.4 689.06 315.4 Q692.509 315.4 694.5 313.201 Q696.514 311.002 696.514 307.206 L696.514 292.507 L700.773 292.507 L700.773 318.433 L696.514 318.433 L696.514 314.451 Q694.963 316.812 692.903 317.97 Q690.866 319.104 688.157 319.104 Q683.69 319.104 681.375 316.326 Q679.06 313.548 679.06 308.201 M689.778 291.882 L689.778 291.882 Z" fill="#000000" fill-rule="nonzero" fill-opacity="1" /><path clip-path="url(#clip840)" d="M724.569 296.488 Q723.851 296.072 722.995 295.886 Q722.162 295.678 721.143 295.678 Q717.532 295.678 715.588 298.039 Q713.666 300.377 713.666 304.775 L713.666 318.433 L709.384 318.433 L709.384 292.507 L713.666 292.507 L713.666 296.535 Q715.009 294.173 717.162 293.039 Q719.314 291.882 722.393 291.882 Q722.833 291.882 723.365 291.951 Q723.898 291.998 724.546 292.113 L724.569 296.488 Z" fill="#000000" fill-rule="nonzero" fill-opacity="1" /><path clip-path="url(#clip840)" d="M750.171 304.405 L750.171 306.488 L730.588 306.488 Q730.865 310.886 733.226 313.201 Q735.611 315.493 739.847 315.493 Q742.3 315.493 744.592 314.891 Q746.907 314.289 749.175 313.085 L749.175 317.113 Q746.884 318.085 744.476 318.595 Q742.069 319.104 739.592 319.104 Q733.388 319.104 729.754 315.493 Q726.143 311.882 726.143 305.724 Q726.143 299.359 729.569 295.632 Q733.018 291.882 738.851 291.882 Q744.083 291.882 747.115 295.261 Q750.171 298.618 750.171 304.405 M745.912 303.155 Q745.865 299.66 743.944 297.576 Q742.046 295.493 738.898 295.493 Q735.333 295.493 733.18 297.507 Q731.05 299.521 730.726 303.178 L745.912 303.155 Z" fill="#000000" fill-rule="nonzero" fill-opacity="1" /><path clip-path="url(#clip840)" d="M774.222 296.442 L774.222 282.414 L778.481 282.414 L778.481 318.433 L774.222 318.433 L774.222 314.544 Q772.879 316.859 770.819 317.993 Q768.782 319.104 765.911 319.104 Q761.212 319.104 758.249 315.354 Q755.31 311.604 755.31 305.493 Q755.31 299.382 758.249 295.632 Q761.212 291.882 765.911 291.882 Q768.782 291.882 770.819 293.016 Q772.879 294.127 774.222 296.442 M759.708 305.493 Q759.708 310.192 761.629 312.877 Q763.573 315.539 766.953 315.539 Q770.333 315.539 772.277 312.877 Q774.222 310.192 774.222 305.493 Q774.222 300.794 772.277 298.132 Q770.333 295.447 766.953 295.447 Q763.573 295.447 761.629 298.132 Q759.708 300.794 759.708 305.493 Z" fill="#000000" fill-rule="nonzero" fill-opacity="1" /><path clip-path="url(#clip840)" d="M807.184 287.715 L807.184 300.701 L813.064 300.701 Q816.328 300.701 818.11 299.011 Q819.893 297.322 819.893 294.197 Q819.893 291.095 818.11 289.405 Q816.328 287.715 813.064 287.715 L807.184 287.715 M802.508 283.873 L813.064 283.873 Q818.874 283.873 821.837 286.511 Q824.823 289.127 824.823 294.197 Q824.823 299.312 821.837 301.928 Q818.874 304.544 813.064 304.544 L807.184 304.544 L807.184 318.433 L802.508 318.433 L802.508 283.873 Z" fill="#000000" fill-rule="nonzero" fill-opacity="1" /></svg>
