<?xml version="1.0" encoding="utf-8"?>
<svg xmlns="http://www.w3.org/2000/svg" xmlns:xlink="http://www.w3.org/1999/xlink" width="800" height="400" viewBox="0 0 3200 1600">
<defs>
  <clipPath id="clip680">
    <rect x="0" y="0" width="3200" height="1600"/>
  </clipPath>
</defs>
<path clip-path="url(#clip680)" d="M0 1600 L3200 1600 L3200 0 L0 0  Z" fill="#ffffff" fill-rule="evenodd" fill-opacity="1"/>
<defs>
  <clipPath id="clip681">
    <rect x="640" y="0" width="2241" height="1600"/>
  </clipPath>
</defs>
<path clip-path="url(#clip680)" d="M258.671 1443.7 L3152.76 1443.7 L3152.76 47.2441 L258.671 47.2441  Z" fill="#ffffff" fill-rule="evenodd" fill-opacity="1"/>
<defs>
  <clipPath id="clip682">
    <rect x="258" y="47" width="2895" height="1397"/>
  </clipPath>
</defs>
<polyline clip-path="url(#clip682)" style="stroke:#000000; stroke-linecap:round; stroke-linejoin:round; stroke-width:2; stroke-opacity:0.1; fill:none" points="340.579,1443.7 340.579,47.2441 "/>
<polyline clip-path="url(#clip682)" style="stroke:#000000; stroke-linecap:round; stroke-linejoin:round; stroke-width:2; stroke-opacity:0.1; fill:none" points="795.624,1443.7 795.624,47.2441 "/>
<polyline clip-path="url(#clip682)" style="stroke:#000000; stroke-linecap:round; stroke-linejoin:round; stroke-width:2; stroke-opacity:0.1; fill:none" points="1250.67,1443.7 1250.67,47.2441 "/>
<polyline clip-path="url(#clip682)" style="stroke:#000000; stroke-linecap:round; stroke-linejoin:round; stroke-width:2; stroke-opacity:0.1; fill:none" points="1705.71,1443.7 1705.71,47.2441 "/>
<polyline clip-path="url(#clip682)" style="stroke:#000000; stroke-linecap:round; stroke-linejoin:round; stroke-width:2; stroke-opacity:0.1; fill:none" points="2160.76,1443.7 2160.76,47.2441 "/>
<polyline clip-path="url(#clip682)" style="stroke:#000000; stroke-linecap:round; stroke-linejoin:round; stroke-width:2; stroke-opacity:0.1; fill:none" points="2615.8,1443.7 2615.8,47.2441 "/>
<polyline clip-path="url(#clip682)" style="stroke:#000000; stroke-linecap:round; stroke-linejoin:round; stroke-width:2; stroke-opacity:0.1; fill:none" points="3070.85,1443.7 3070.85,47.2441 "/>
<polyline clip-path="url(#clip682)" style="stroke:#000000; stroke-linecap:round; stroke-linejoin:round; stroke-width:2; stroke-opacity:0.1; fill:none" points="340.579,1443.7 340.579,47.2441 "/>
<polyline clip-path="url(#clip682)" style="stroke:#000000; stroke-linecap:round; stroke-linejoin:round; stroke-width:2; stroke-opacity:0.1; fill:none" points="795.624,1443.7 795.624,47.2441 "/>
<polyline clip-path="url(#clip682)" style="stroke:#000000; stroke-linecap:round; stroke-linejoin:round; stroke-width:2; stroke-opacity:0.1; fill:none" points="1250.67,1443.7 1250.67,47.2441 "/>
<polyline clip-path="url(#clip682)" style="stroke:#000000; stroke-linecap:round; stroke-linejoin:round; stroke-width:2; stroke-opacity:0.1; fill:none" points="1705.71,1443.7 1705.71,47.2441 "/>
<polyline clip-path="url(#clip682)" style="stroke:#000000; stroke-linecap:round; stroke-linejoin:round; stroke-width:2; stroke-opacity:0.1; fill:none" points="2160.76,1443.7 2160.76,47.2441 "/>
<polyline clip-path="url(#clip682)" style="stroke:#000000; stroke-linecap:round; stroke-linejoin:round; stroke-width:2; stroke-opacity:0.1; fill:none" points="2615.8,1443.7 2615.8,47.2441 "/>
<polyline clip-path="url(#clip682)" style="stroke:#000000; stroke-linecap:round; stroke-linejoin:round; stroke-width:2; stroke-opacity:0.1; fill:none" points="3070.85,1443.7 3070.85,47.2441 "/>
<polyline clip-path="url(#clip680)" style="stroke:#000000; stroke-linecap:round; stroke-linejoin:round; stroke-width:4; stroke-opacity:1; fill:none" points="258.671,1443.7 3152.76,1443.7 "/>
<polyline clip-path="url(#clip680)" style="stroke:#000000; stroke-linecap:round; stroke-linejoin:round; stroke-width:4; stroke-opacity:1; fill:none" points="258.671,47.2441 3152.76,47.2441 "/>
<polyline clip-path="url(#clip680)" style="stroke:#000000; stroke-linecap:round; stroke-linejoin:round; stroke-width:4; stroke-opacity:1; fill:none" points="340.579,1443.7 340.579,1424.8 "/>
<polyline clip-path="url(#clip680)" style="stroke:#000000; stroke-linecap:round; stroke-linejoin:round; stroke-width:4; stroke-opacity:1; fill:none" points="795.624,1443.7 795.624,1424.8 "/>
<polyline clip-path="url(#clip680)" style="stroke:#000000; stroke-linecap:round; stroke-linejoin:round; stroke-width:4; stroke-opacity:1; fill:none" points="1250.67,1443.7 1250.67,1424.8 "/>
<polyline clip-path="url(#clip680)" style="stroke:#000000; stroke-linecap:round; stroke-linejoin:round; stroke-width:4; stroke-opacity:1; fill:none" points="1705.71,1443.7 1705.71,1424.8 "/>
<polyline clip-path="url(#clip680)" style="stroke:#000000; stroke-linecap:round; stroke-linejoin:round; stroke-width:4; stroke-opacity:1; fill:none" points="2160.76,1443.7 2160.76,1424.8 "/>
<polyline clip-path="url(#clip680)" style="stroke:#000000; stroke-linecap:round; stroke-linejoin:round; stroke-width:4; stroke-opacity:1; fill:none" points="2615.8,1443.7 2615.8,1424.8 "/>
<polyline clip-path="url(#clip680)" style="stroke:#000000; stroke-linecap:round; stroke-linejoin:round; stroke-width:4; stroke-opacity:1; fill:none" points="3070.85,1443.7 3070.85,1424.8 "/>
<polyline clip-path="url(#clip680)" style="stroke:#000000; stroke-linecap:round; stroke-linejoin:round; stroke-width:4; stroke-opacity:1; fill:none" points="340.579,47.2441 340.579,66.1417 "/>
<polyline clip-path="url(#clip680)" style="stroke:#000000; stroke-linecap:round; stroke-linejoin:round; stroke-width:4; stroke-opacity:1; fill:none" points="795.624,47.2441 795.624,66.1417 "/>
<polyline clip-path="url(#clip680)" style="stroke:#000000; stroke-linecap:round; stroke-linejoin:round; stroke-width:4; stroke-opacity:1; fill:none" points="1250.67,47.2441 1250.67,66.1417 "/>
<polyline clip-path="url(#clip680)" style="stroke:#000000; stroke-linecap:round; stroke-linejoin:round; stroke-width:4; stroke-opacity:1; fill:none" points="1705.71,47.2441 1705.71,66.1417 "/>
<polyline clip-path="url(#clip680)" style="stroke:#000000; stroke-linecap:round; stroke-linejoin:round; stroke-width:4; stroke-opacity:1; fill:none" points="2160.76,47.2441 2160.76,66.1417 "/>
<polyline clip-path="url(#clip680)" style="stroke:#000000; stroke-linecap:round; stroke-linejoin:round; stroke-width:4; stroke-opacity:1; fill:none" points="2615.8,47.2441 2615.8,66.1417 "/>
<polyline clip-path="url(#clip680)" style="stroke:#000000; stroke-linecap:round; stroke-linejoin:round; stroke-width:4; stroke-opacity:1; fill:none" points="3070.85,47.2441 3070.85,66.1417 "/>
<path clip-path="url(#clip680)" d="M340.579 1481.02 Q336.968 1481.02 335.139 1484.58 Q333.334 1488.12 333.334 1495.25 Q333.334 1502.36 335.139 1505.93 Q336.968 1509.47 340.579 1509.47 Q344.214 1509.47 346.019 1505.93 Q347.848 1502.36 347.848 1495.25 Q347.848 1488.12 346.019 1484.58 Q344.214 1481.02 340.579 1481.02 M340.579 1477.31 Q346.389 1477.31 349.445 1481.92 Q352.524 1486.5 352.524 1495.25 Q352.524 1503.98 349.445 1508.59 Q346.389 1513.17 340.579 1513.17 Q334.769 1513.17 331.69 1508.59 Q328.635 1503.98 328.635 1495.25 Q328.635 1486.5 331.69 1481.92 Q334.769 1477.31 340.579 1477.31 Z" fill="#000000" fill-rule="nonzero" fill-opacity="1" /><path clip-path="url(#clip680)" d="M786.006 1508.56 L793.645 1508.56 L793.645 1482.2 L785.335 1483.87 L785.335 1479.61 L793.599 1477.94 L798.274 1477.94 L798.274 1508.56 L805.913 1508.56 L805.913 1512.5 L786.006 1512.5 L786.006 1508.56 Z" fill="#000000" fill-rule="nonzero" fill-opacity="1" /><path clip-path="url(#clip680)" d="M1245.32 1508.56 L1261.64 1508.56 L1261.64 1512.5 L1239.7 1512.5 L1239.7 1508.56 Q1242.36 1505.81 1246.94 1501.18 Q1251.55 1496.53 1252.73 1495.19 Q1254.97 1492.66 1255.85 1490.93 Q1256.76 1489.17 1256.76 1487.48 Q1256.76 1484.72 1254.81 1482.99 Q1252.89 1481.25 1249.79 1481.25 Q1247.59 1481.25 1245.14 1482.01 Q1242.71 1482.78 1239.93 1484.33 L1239.93 1479.61 Q1242.75 1478.47 1245.21 1477.89 Q1247.66 1477.31 1249.7 1477.31 Q1255.07 1477.31 1258.26 1480 Q1261.46 1482.69 1261.46 1487.18 Q1261.46 1489.31 1260.65 1491.23 Q1259.86 1493.12 1257.75 1495.72 Q1257.17 1496.39 1254.07 1499.61 Q1250.97 1502.8 1245.32 1508.56 Z" fill="#000000" fill-rule="nonzero" fill-opacity="1" /><path clip-path="url(#clip680)" d="M1709.96 1493.87 Q1713.32 1494.58 1715.19 1496.85 Q1717.09 1499.12 1717.09 1502.45 Q1717.09 1507.57 1713.57 1510.37 Q1710.05 1513.17 1703.57 1513.17 Q1701.4 1513.17 1699.08 1512.73 Q1696.79 1512.31 1694.34 1511.46 L1694.34 1506.94 Q1696.28 1508.08 1698.6 1508.66 Q1700.91 1509.24 1703.43 1509.24 Q1707.83 1509.24 1710.12 1507.5 Q1712.44 1505.76 1712.44 1502.45 Q1712.44 1499.4 1710.29 1497.69 Q1708.16 1495.95 1704.34 1495.95 L1700.31 1495.95 L1700.31 1492.11 L1704.52 1492.11 Q1707.97 1492.11 1709.8 1490.74 Q1711.63 1489.35 1711.63 1486.76 Q1711.63 1484.1 1709.73 1482.69 Q1707.85 1481.25 1704.34 1481.25 Q1702.41 1481.25 1700.22 1481.67 Q1698.02 1482.08 1695.38 1482.96 L1695.38 1478.8 Q1698.04 1478.06 1700.35 1477.69 Q1702.69 1477.31 1704.75 1477.31 Q1710.08 1477.31 1713.18 1479.75 Q1716.28 1482.15 1716.28 1486.27 Q1716.28 1489.14 1714.64 1491.13 Q1712.99 1493.1 1709.96 1493.87 Z" fill="#000000" fill-rule="nonzero" fill-opacity="1" /><path clip-path="url(#clip680)" d="M2163.77 1482.01 L2151.96 1500.46 L2163.77 1500.46 L2163.77 1482.01 M2162.54 1477.94 L2168.42 1477.94 L2168.42 1500.46 L2173.35 1500.46 L2173.35 1504.35 L2168.42 1504.35 L2168.42 1512.5 L2163.77 1512.5 L2163.77 1504.35 L2148.17 1504.35 L2148.17 1499.84 L2162.54 1477.94 Z" fill="#000000" fill-rule="nonzero" fill-opacity="1" /><path clip-path="url(#clip680)" d="M2606.08 1477.94 L2624.44 1477.94 L2624.44 1481.88 L2610.36 1481.88 L2610.36 1490.35 Q2611.38 1490 2612.4 1489.84 Q2613.42 1489.65 2614.44 1489.65 Q2620.22 1489.65 2623.6 1492.82 Q2626.98 1496 2626.98 1501.41 Q2626.98 1506.99 2623.51 1510.09 Q2620.04 1513.17 2613.72 1513.17 Q2611.54 1513.17 2609.28 1512.8 Q2607.03 1512.43 2604.62 1511.69 L2604.62 1506.99 Q2606.71 1508.12 2608.93 1508.68 Q2611.15 1509.24 2613.63 1509.24 Q2617.63 1509.24 2619.97 1507.13 Q2622.31 1505.02 2622.31 1501.41 Q2622.31 1497.8 2619.97 1495.69 Q2617.63 1493.59 2613.63 1493.59 Q2611.75 1493.59 2609.88 1494 Q2608.03 1494.42 2606.08 1495.3 L2606.08 1477.94 Z" fill="#000000" fill-rule="nonzero" fill-opacity="1" /><path clip-path="url(#clip680)" d="M3071.25 1493.36 Q3068.1 1493.36 3066.25 1495.51 Q3064.42 1497.66 3064.42 1501.41 Q3064.42 1505.14 3066.25 1507.31 Q3068.1 1509.47 3071.25 1509.47 Q3074.4 1509.47 3076.23 1507.31 Q3078.08 1505.14 3078.08 1501.41 Q3078.08 1497.66 3076.23 1495.51 Q3074.4 1493.36 3071.25 1493.36 M3080.54 1478.7 L3080.54 1482.96 Q3078.78 1482.13 3076.97 1481.69 Q3075.19 1481.25 3073.43 1481.25 Q3068.8 1481.25 3066.35 1484.37 Q3063.92 1487.5 3063.57 1493.82 Q3064.93 1491.81 3066.99 1490.74 Q3069.05 1489.65 3071.53 1489.65 Q3076.74 1489.65 3079.75 1492.82 Q3082.78 1495.97 3082.78 1501.41 Q3082.78 1506.74 3079.63 1509.95 Q3076.48 1513.17 3071.25 1513.17 Q3065.26 1513.17 3062.09 1508.59 Q3058.92 1503.98 3058.92 1495.25 Q3058.92 1487.06 3062.8 1482.2 Q3066.69 1477.31 3073.24 1477.31 Q3075 1477.31 3076.79 1477.66 Q3078.59 1478.01 3080.54 1478.7 Z" fill="#000000" fill-rule="nonzero" fill-opacity="1" /><path clip-path="url(#clip680)" d="M1644.87 1554.79 L1644.87 1564.92 L1656.94 1564.92 L1656.94 1569.47 L1644.87 1569.47 L1644.87 1588.82 Q1644.87 1593.18 1646.05 1594.42 Q1647.26 1595.66 1650.92 1595.66 L1656.94 1595.66 L1656.94 1600.56 L1650.92 1600.56 Q1644.14 1600.56 1641.56 1598.05 Q1638.99 1595.5 1638.99 1588.82 L1638.99 1569.47 L1634.69 1569.47 L1634.69 1564.92 L1638.99 1564.92 L1638.99 1554.79 L1644.87 1554.79 Z" fill="#000000" fill-rule="nonzero" fill-opacity="1" /><path clip-path="url(#clip680)" d="M1664.64 1564.92 L1670.5 1564.92 L1670.5 1600.56 L1664.64 1600.56 L1664.64 1564.92 M1664.64 1551.04 L1670.5 1551.04 L1670.5 1558.45 L1664.64 1558.45 L1664.64 1551.04 Z" fill="#000000" fill-rule="nonzero" fill-opacity="1" /><path clip-path="url(#clip680)" d="M1710.5 1571.76 Q1712.7 1567.81 1715.76 1565.93 Q1718.81 1564.06 1722.95 1564.06 Q1728.52 1564.06 1731.54 1567.97 Q1734.57 1571.85 1734.57 1579.05 L1734.57 1600.56 L1728.68 1600.56 L1728.68 1579.24 Q1728.68 1574.11 1726.86 1571.63 Q1725.05 1569.15 1721.33 1569.15 Q1716.77 1569.15 1714.13 1572.17 Q1711.49 1575.2 1711.49 1580.42 L1711.49 1600.56 L1705.6 1600.56 L1705.6 1579.24 Q1705.6 1574.08 1703.79 1571.63 Q1701.97 1569.15 1698.19 1569.15 Q1693.7 1569.15 1691.06 1572.2 Q1688.41 1575.23 1688.41 1580.42 L1688.41 1600.56 L1682.53 1600.56 L1682.53 1564.92 L1688.41 1564.92 L1688.41 1570.45 Q1690.42 1567.18 1693.22 1565.62 Q1696.02 1564.06 1699.87 1564.06 Q1703.76 1564.06 1706.46 1566.03 Q1709.2 1568 1710.5 1571.76 Z" fill="#000000" fill-rule="nonzero" fill-opacity="1" /><path clip-path="url(#clip680)" d="M1776.74 1581.28 L1776.74 1584.14 L1749.81 1584.14 Q1750.19 1590.19 1753.44 1593.37 Q1756.72 1596.52 1762.54 1596.52 Q1765.92 1596.52 1769.07 1595.69 Q1772.25 1594.87 1775.37 1593.21 L1775.37 1598.75 Q1772.22 1600.09 1768.91 1600.79 Q1765.6 1601.49 1762.19 1601.49 Q1753.66 1601.49 1748.67 1596.52 Q1743.7 1591.56 1743.7 1583.09 Q1743.7 1574.34 1748.41 1569.21 Q1753.15 1564.06 1761.17 1564.06 Q1768.37 1564.06 1772.54 1568.7 Q1776.74 1573.32 1776.74 1581.28 M1770.88 1579.56 Q1770.82 1574.75 1768.18 1571.89 Q1765.57 1569.02 1761.24 1569.02 Q1756.34 1569.02 1753.38 1571.79 Q1750.45 1574.56 1750 1579.59 L1770.88 1579.56 Z" fill="#000000" fill-rule="nonzero" fill-opacity="1" /><polyline clip-path="url(#clip682)" style="stroke:#000000; stroke-linecap:round; stroke-linejoin:round; stroke-width:2; stroke-opacity:0.1; fill:none" points="258.671,1405.51 3152.76,1405.51 "/>
<polyline clip-path="url(#clip682)" style="stroke:#000000; stroke-linecap:round; stroke-linejoin:round; stroke-width:2; stroke-opacity:0.1; fill:none" points="258.671,1071.48 3152.76,1071.48 "/>
<polyline clip-path="url(#clip682)" style="stroke:#000000; stroke-linecap:round; stroke-linejoin:round; stroke-width:2; stroke-opacity:0.1; fill:none" points="258.671,737.455 3152.76,737.455 "/>
<polyline clip-path="url(#clip682)" style="stroke:#000000; stroke-linecap:round; stroke-linejoin:round; stroke-width:2; stroke-opacity:0.1; fill:none" points="258.671,403.426 3152.76,403.426 "/>
<polyline clip-path="url(#clip682)" style="stroke:#000000; stroke-linecap:round; stroke-linejoin:round; stroke-width:2; stroke-opacity:0.1; fill:none" points="258.671,69.3969 3152.76,69.3969 "/>
<polyline clip-path="url(#clip682)" style="stroke:#000000; stroke-linecap:round; stroke-linejoin:round; stroke-width:2; stroke-opacity:0.1; fill:none" points="258.671,1405.51 3152.76,1405.51 "/>
<polyline clip-path="url(#clip682)" style="stroke:#000000; stroke-linecap:round; stroke-linejoin:round; stroke-width:2; stroke-opacity:0.1; fill:none" points="258.671,1071.48 3152.76,1071.48 "/>
<polyline clip-path="url(#clip682)" style="stroke:#000000; stroke-linecap:round; stroke-linejoin:round; stroke-width:2; stroke-opacity:0.1; fill:none" points="258.671,737.455 3152.76,737.455 "/>
<polyline clip-path="url(#clip682)" style="stroke:#000000; stroke-linecap:round; stroke-linejoin:round; stroke-width:2; stroke-opacity:0.1; fill:none" points="258.671,403.426 3152.76,403.426 "/>
<polyline clip-path="url(#clip682)" style="stroke:#000000; stroke-linecap:round; stroke-linejoin:round; stroke-width:2; stroke-opacity:0.1; fill:none" points="258.671,69.3969 3152.76,69.3969 "/>
<polyline clip-path="url(#clip680)" style="stroke:#000000; stroke-linecap:round; stroke-linejoin:round; stroke-width:4; stroke-opacity:1; fill:none" points="258.671,1443.7 258.671,47.2441 "/>
<polyline clip-path="url(#clip680)" style="stroke:#000000; stroke-linecap:round; stroke-linejoin:round; stroke-width:4; stroke-opacity:1; fill:none" points="3152.76,1443.7 3152.76,47.2441 "/>
<polyline clip-path="url(#clip680)" style="stroke:#000000; stroke-linecap:round; stroke-linejoin:round; stroke-width:4; stroke-opacity:1; fill:none" points="258.671,1405.51 277.569,1405.51 "/>
<polyline clip-path="url(#clip680)" style="stroke:#000000; stroke-linecap:round; stroke-linejoin:round; stroke-width:4; stroke-opacity:1; fill:none" points="258.671,1071.48 277.569,1071.48 "/>
<polyline clip-path="url(#clip680)" style="stroke:#000000; stroke-linecap:round; stroke-linejoin:round; stroke-width:4; stroke-opacity:1; fill:none" points="258.671,737.455 277.569,737.455 "/>
<polyline clip-path="url(#clip680)" style="stroke:#000000; stroke-linecap:round; stroke-linejoin:round; stroke-width:4; stroke-opacity:1; fill:none" points="258.671,403.426 277.569,403.426 "/>
<polyline clip-path="url(#clip680)" style="stroke:#000000; stroke-linecap:round; stroke-linejoin:round; stroke-width:4; stroke-opacity:1; fill:none" points="258.671,69.3969 277.569,69.3969 "/>
<polyline clip-path="url(#clip680)" style="stroke:#000000; stroke-linecap:round; stroke-linejoin:round; stroke-width:4; stroke-opacity:1; fill:none" points="3152.76,1405.51 3133.86,1405.51 "/>
<polyline clip-path="url(#clip680)" style="stroke:#000000; stroke-linecap:round; stroke-linejoin:round; stroke-width:4; stroke-opacity:1; fill:none" points="3152.76,1071.48 3133.86,1071.48 "/>
<polyline clip-path="url(#clip680)" style="stroke:#000000; stroke-linecap:round; stroke-linejoin:round; stroke-width:4; stroke-opacity:1; fill:none" points="3152.76,737.455 3133.86,737.455 "/>
<polyline clip-path="url(#clip680)" style="stroke:#000000; stroke-linecap:round; stroke-linejoin:round; stroke-width:4; stroke-opacity:1; fill:none" points="3152.76,403.426 3133.86,403.426 "/>
<polyline clip-path="url(#clip680)" style="stroke:#000000; stroke-linecap:round; stroke-linejoin:round; stroke-width:4; stroke-opacity:1; fill:none" points="3152.76,69.3969 3133.86,69.3969 "/>
<path clip-path="url(#clip680)" d="M198.727 1391.31 Q195.116 1391.31 193.287 1394.88 Q191.482 1398.42 191.482 1405.55 Q191.482 1412.65 193.287 1416.22 Q195.116 1419.76 198.727 1419.76 Q202.361 1419.76 204.167 1416.22 Q205.995 1412.65 205.995 1405.55 Q205.995 1398.42 204.167 1394.88 Q202.361 1391.31 198.727 1391.31 M198.727 1387.61 Q204.537 1387.61 207.593 1392.22 Q210.671 1396.8 210.671 1405.55 Q210.671 1414.28 207.593 1418.88 Q204.537 1423.46 198.727 1423.46 Q192.917 1423.46 189.838 1418.88 Q186.782 1414.28 186.782 1405.55 Q186.782 1396.8 189.838 1392.22 Q192.917 1387.61 198.727 1387.61 Z" fill="#000000" fill-rule="nonzero" fill-opacity="1" /><path clip-path="url(#clip680)" d="M132.431 1084.83 L148.75 1084.83 L148.75 1088.76 L126.806 1088.76 L126.806 1084.83 Q129.468 1082.07 134.051 1077.45 Q138.658 1072.79 139.838 1071.45 Q142.084 1068.93 142.963 1067.19 Q143.866 1065.43 143.866 1063.74 Q143.866 1060.99 141.922 1059.25 Q140 1057.51 136.898 1057.51 Q134.699 1057.51 132.246 1058.28 Q129.815 1059.04 127.037 1060.59 L127.037 1055.87 Q129.861 1054.74 132.315 1054.16 Q134.769 1053.58 136.806 1053.58 Q142.176 1053.58 145.371 1056.26 Q148.565 1058.95 148.565 1063.44 Q148.565 1065.57 147.755 1067.49 Q146.968 1069.39 144.861 1071.98 Q144.283 1072.65 141.181 1075.87 Q138.079 1079.07 132.431 1084.83 Z" fill="#000000" fill-rule="nonzero" fill-opacity="1" /><path clip-path="url(#clip680)" d="M158.611 1054.2 L176.968 1054.2 L176.968 1058.14 L162.894 1058.14 L162.894 1066.61 Q163.912 1066.26 164.931 1066.1 Q165.949 1065.92 166.968 1065.92 Q172.755 1065.92 176.134 1069.09 Q179.514 1072.26 179.514 1077.68 Q179.514 1083.26 176.042 1086.36 Q172.57 1089.44 166.25 1089.44 Q164.074 1089.44 161.806 1089.07 Q159.56 1088.7 157.153 1087.95 L157.153 1083.26 Q159.236 1084.39 161.459 1084.95 Q163.681 1085.5 166.158 1085.5 Q170.162 1085.5 172.5 1083.39 Q174.838 1081.29 174.838 1077.68 Q174.838 1074.07 172.5 1071.96 Q170.162 1069.85 166.158 1069.85 Q164.283 1069.85 162.408 1070.27 Q160.556 1070.69 158.611 1071.57 L158.611 1054.2 Z" fill="#000000" fill-rule="nonzero" fill-opacity="1" /><path clip-path="url(#clip680)" d="M198.727 1057.28 Q195.116 1057.28 193.287 1060.85 Q191.482 1064.39 191.482 1071.52 Q191.482 1078.63 193.287 1082.19 Q195.116 1085.73 198.727 1085.73 Q202.361 1085.73 204.167 1082.19 Q205.995 1078.63 205.995 1071.52 Q205.995 1064.39 204.167 1060.85 Q202.361 1057.28 198.727 1057.28 M198.727 1053.58 Q204.537 1053.58 207.593 1058.19 Q210.671 1062.77 210.671 1071.52 Q210.671 1080.25 207.593 1084.85 Q204.537 1089.44 198.727 1089.44 Q192.917 1089.44 189.838 1084.85 Q186.782 1080.25 186.782 1071.52 Q186.782 1062.77 189.838 1058.19 Q192.917 1053.58 198.727 1053.58 Z" fill="#000000" fill-rule="nonzero" fill-opacity="1" /><path clip-path="url(#clip680)" d="M128.449 720.175 L146.806 720.175 L146.806 724.11 L132.732 724.11 L132.732 732.583 Q133.75 732.235 134.769 732.073 Q135.787 731.888 136.806 731.888 Q142.593 731.888 145.972 735.059 Q149.352 738.231 149.352 743.647 Q149.352 749.226 145.88 752.328 Q142.408 755.407 136.088 755.407 Q133.912 755.407 131.644 755.036 Q129.399 754.666 126.991 753.925 L126.991 749.226 Q129.074 750.36 131.297 750.916 Q133.519 751.471 135.996 751.471 Q140 751.471 142.338 749.365 Q144.676 747.258 144.676 743.647 Q144.676 740.036 142.338 737.93 Q140 735.823 135.996 735.823 Q134.121 735.823 132.246 736.24 Q130.394 736.657 128.449 737.536 L128.449 720.175 Z" fill="#000000" fill-rule="nonzero" fill-opacity="1" /><path clip-path="url(#clip680)" d="M168.565 723.254 Q164.954 723.254 163.125 726.819 Q161.32 730.36 161.32 737.49 Q161.32 744.596 163.125 748.161 Q164.954 751.703 168.565 751.703 Q172.199 751.703 174.005 748.161 Q175.833 744.596 175.833 737.49 Q175.833 730.36 174.005 726.819 Q172.199 723.254 168.565 723.254 M168.565 719.55 Q174.375 719.55 177.431 724.157 Q180.509 728.74 180.509 737.49 Q180.509 746.217 177.431 750.823 Q174.375 755.407 168.565 755.407 Q162.755 755.407 159.676 750.823 Q156.621 746.217 156.621 737.49 Q156.621 728.74 159.676 724.157 Q162.755 719.55 168.565 719.55 Z" fill="#000000" fill-rule="nonzero" fill-opacity="1" /><path clip-path="url(#clip680)" d="M198.727 723.254 Q195.116 723.254 193.287 726.819 Q191.482 730.36 191.482 737.49 Q191.482 744.596 193.287 748.161 Q195.116 751.703 198.727 751.703 Q202.361 751.703 204.167 748.161 Q205.995 744.596 205.995 737.49 Q205.995 730.36 204.167 726.819 Q202.361 723.254 198.727 723.254 M198.727 719.55 Q204.537 719.55 207.593 724.157 Q210.671 728.74 210.671 737.49 Q210.671 746.217 207.593 750.823 Q204.537 755.407 198.727 755.407 Q192.917 755.407 189.838 750.823 Q186.782 746.217 186.782 737.49 Q186.782 728.74 189.838 724.157 Q192.917 719.55 198.727 719.55 Z" fill="#000000" fill-rule="nonzero" fill-opacity="1" /><path clip-path="url(#clip680)" d="M127.223 386.146 L149.445 386.146 L149.445 388.137 L136.898 420.706 L132.014 420.706 L143.82 390.081 L127.223 390.081 L127.223 386.146 Z" fill="#000000" fill-rule="nonzero" fill-opacity="1" /><path clip-path="url(#clip680)" d="M158.611 386.146 L176.968 386.146 L176.968 390.081 L162.894 390.081 L162.894 398.553 Q163.912 398.206 164.931 398.044 Q165.949 397.859 166.968 397.859 Q172.755 397.859 176.134 401.03 Q179.514 404.202 179.514 409.618 Q179.514 415.197 176.042 418.299 Q172.57 421.377 166.25 421.377 Q164.074 421.377 161.806 421.007 Q159.56 420.637 157.153 419.896 L157.153 415.197 Q159.236 416.331 161.459 416.887 Q163.681 417.442 166.158 417.442 Q170.162 417.442 172.5 415.336 Q174.838 413.229 174.838 409.618 Q174.838 406.007 172.5 403.901 Q170.162 401.794 166.158 401.794 Q164.283 401.794 162.408 402.211 Q160.556 402.627 158.611 403.507 L158.611 386.146 Z" fill="#000000" fill-rule="nonzero" fill-opacity="1" /><path clip-path="url(#clip680)" d="M198.727 389.225 Q195.116 389.225 193.287 392.79 Q191.482 396.331 191.482 403.461 Q191.482 410.567 193.287 414.132 Q195.116 417.674 198.727 417.674 Q202.361 417.674 204.167 414.132 Q205.995 410.567 205.995 403.461 Q205.995 396.331 204.167 392.79 Q202.361 389.225 198.727 389.225 M198.727 385.521 Q204.537 385.521 207.593 390.128 Q210.671 394.711 210.671 403.461 Q210.671 412.188 207.593 416.794 Q204.537 421.377 198.727 421.377 Q192.917 421.377 189.838 416.794 Q186.782 412.188 186.782 403.461 Q186.782 394.711 189.838 390.128 Q192.917 385.521 198.727 385.521 Z" fill="#000000" fill-rule="nonzero" fill-opacity="1" /><path clip-path="url(#clip680)" d="M99.0515 82.7417 L106.69 82.7417 L106.69 56.3761 L98.3802 58.0428 L98.3802 53.7836 L106.644 52.1169 L111.32 52.1169 L111.32 82.7417 L118.959 82.7417 L118.959 86.6769 L99.0515 86.6769 L99.0515 82.7417 Z" fill="#000000" fill-rule="nonzero" fill-opacity="1" /><path clip-path="url(#clip680)" d="M138.403 55.1956 Q134.792 55.1956 132.963 58.7604 Q131.158 62.302 131.158 69.4316 Q131.158 76.5381 132.963 80.1029 Q134.792 83.6445 138.403 83.6445 Q142.037 83.6445 143.843 80.1029 Q145.672 76.5381 145.672 69.4316 Q145.672 62.302 143.843 58.7604 Q142.037 55.1956 138.403 55.1956 M138.403 51.4919 Q144.213 51.4919 147.269 56.0984 Q150.347 60.6817 150.347 69.4316 Q150.347 78.1584 147.269 82.7649 Q144.213 87.3482 138.403 87.3482 Q132.593 87.3482 129.514 82.7649 Q126.459 78.1584 126.459 69.4316 Q126.459 60.6817 129.514 56.0984 Q132.593 51.4919 138.403 51.4919 Z" fill="#000000" fill-rule="nonzero" fill-opacity="1" /><path clip-path="url(#clip680)" d="M168.565 55.1956 Q164.954 55.1956 163.125 58.7604 Q161.32 62.302 161.32 69.4316 Q161.32 76.5381 163.125 80.1029 Q164.954 83.6445 168.565 83.6445 Q172.199 83.6445 174.005 80.1029 Q175.833 76.5381 175.833 69.4316 Q175.833 62.302 174.005 58.7604 Q172.199 55.1956 168.565 55.1956 M168.565 51.4919 Q174.375 51.4919 177.431 56.0984 Q180.509 60.6817 180.509 69.4316 Q180.509 78.1584 177.431 82.7649 Q174.375 87.3482 168.565 87.3482 Q162.755 87.3482 159.676 82.7649 Q156.621 78.1584 156.621 69.4316 Q156.621 60.6817 159.676 56.0984 Q162.755 51.4919 168.565 51.4919 Z" fill="#000000" fill-rule="nonzero" fill-opacity="1" /><path clip-path="url(#clip680)" d="M198.727 55.1956 Q195.116 55.1956 193.287 58.7604 Q191.482 62.302 191.482 69.4316 Q191.482 76.5381 193.287 80.1029 Q195.116 83.6445 198.727 83.6445 Q202.361 83.6445 204.167 80.1029 Q205.995 76.5381 205.995 69.4316 Q205.995 62.302 204.167 58.7604 Q202.361 55.1956 198.727 55.1956 M198.727 51.4919 Q204.537 51.4919 207.593 56.0984 Q210.671 60.6817 210.671 69.4316 Q210.671 78.1584 207.593 82.7649 Q204.537 87.3482 198.727 87.3482 Q192.917 87.3482 189.838 82.7649 Q186.782 78.1584 186.782 69.4316 Q186.782 60.6817 189.838 56.0984 Q192.917 51.4919 198.727 51.4919 Z" fill="#000000" fill-rule="nonzero" fill-opacity="1" /><path clip-path="url(#clip680)" d="M-6.11231 790.907 L11.7435 790.907 L11.7435 782.823 Q11.7435 778.335 9.42002 775.884 Q7.09654 773.433 2.79968 773.433 Q-1.46534 773.433 -3.78882 775.884 Q-6.11231 778.335 -6.11231 782.823 L-6.11231 790.907 M-11.3958 797.337 L-11.3958 782.823 Q-11.3958 774.834 -7.76739 770.76 Q-4.17077 766.654 2.79968 766.654 Q9.83379 766.654 13.4304 770.76 Q17.027 774.834 17.027 782.823 L17.027 790.907 L36.1242 790.907 L36.1242 797.337 L-11.3958 797.337 Z" fill="#000000" fill-rule="nonzero" fill-opacity="1" /><path clip-path="url(#clip680)" d="M-13.3374 744.215 Q-6.01682 748.48 1.1446 750.549 Q8.30602 752.617 15.6584 752.617 Q23.0108 752.617 30.2359 750.549 Q37.4291 748.448 44.7179 744.215 L44.7179 749.307 Q37.2382 754.082 30.0131 756.469 Q22.788 758.824 15.6584 758.824 Q8.56065 758.824 1.3674 756.469 Q-5.82585 754.113 -13.3374 749.307 L-13.3374 744.215 Z" fill="#000000" fill-rule="nonzero" fill-opacity="1" /><path clip-path="url(#clip680)" d="M-9.64527 727.059 L0.4762 727.059 L0.4762 714.996 L5.02768 714.996 L5.02768 727.059 L24.3794 727.059 Q28.7399 727.059 29.9813 725.882 Q31.2226 724.672 31.2226 721.012 L31.2226 714.996 L36.1242 714.996 L36.1242 721.012 Q36.1242 727.791 33.6097 730.369 Q31.0634 732.947 24.3794 732.947 L5.02768 732.947 L5.02768 737.244 L0.4762 737.244 L0.4762 732.947 L-9.64527 732.947 L-9.64527 727.059 Z" fill="#000000" fill-rule="nonzero" fill-opacity="1" /><path clip-path="url(#clip680)" d="M-13.3374 708.217 L-13.3374 703.124 Q-5.82585 698.35 1.3674 695.995 Q8.56065 693.607 15.6584 693.607 Q22.788 693.607 30.0131 695.995 Q37.2382 698.35 44.7179 703.124 L44.7179 708.217 Q37.4291 703.983 30.2359 701.915 Q23.0108 699.814 15.6584 699.814 Q8.30602 699.814 1.1446 701.915 Q-6.01682 703.983 -13.3374 708.217 Z" fill="#000000" fill-rule="nonzero" fill-opacity="1" /><polyline clip-path="url(#clip682)" style="stroke:#009af9; stroke-linecap:round; stroke-linejoin:round; stroke-width:12; stroke-opacity:1; fill:none" points="340.579,1404.18 340.621,1389.48 340.9,1143.63 341.12,1094.2 341.225,992.654 341.359,971.276 341.501,935.201 341.661,859.042 341.777,843.008 342.065,794.908 342.103,793.572 342.141,794.908 342.304,774.867 342.445,630.566 342.537,631.902 342.734,331.276 342.74,168.27 342.752,169.606 342.828,86.7664 342.968,86.7664 343.456,88.1025 343.666,89.4387 344.915,90.7748 345.426,92.1109 345.765,93.447 346.259,94.7831 346.607,96.1192 347.343,97.4554 347.583,98.7915 347.653,100.128 347.929,101.464 348.918,102.8 348.937,104.136 349.446,105.472 349.511,106.808 350.932,108.144 352.669,109.48 352.919,110.817 353.953,112.153 353.985,113.489 354.44,114.825 356.968,116.161 358.885,117.497 360.016,118.833 360.537,120.169 361.559,121.505 362.095,122.842 362.291,124.178 362.494,125.514 362.594,126.85 363.999,128.186 364.554,129.522 365.085,130.858 365.905,132.194 367.459,133.531 368.104,134.867 368.953,136.203 369.133,137.539 369.275,138.875 369.342,140.211 370.493,141.547 372.311,142.883 372.932,144.219 374.344,145.556 380.156,146.892 380.556,148.228 381.624,149.564 381.85,150.9 382.436,152.236 384.414,153.572 384.591,154.908 384.899,156.244 385.992,157.581 386.881,158.917 387.139,160.253 387.216,161.589 387.611,162.925 387.88,164.261 387.978,165.597 389.11,166.933 389.99,168.27 390.003,169.606 390.1,170.942 390.375,172.278 390.473,173.614 391.403,174.95 392.03,176.286 392.616,177.622 393.326,178.958 393.618,180.295 393.742,181.631 394.789,182.967 395.04,184.303 395.596,185.639 396.894,186.975 396.938,188.311 397.14,189.647 398.427,190.984 399.659,192.32 399.945,193.656 400.048,194.992 400.424,196.328 401.279,197.664 401.305,199 401.619,200.336 401.865,201.672 401.884,203.009 402.368,204.345 402.573,205.681 402.584,207.017 402.834,208.353 403.151,209.689 403.572,211.025 403.681,212.361 404.554,213.698 404.891,215.034 404.97,216.37 404.987,217.706 405.602,219.042 406.402,220.378 406.588,221.714 406.801,223.05 408.422,224.386 408.457,225.723 408.548,227.059 409.336,228.395 409.492,229.731 409.542,231.067 409.764,232.403 411.143,233.739 411.519,235.075 411.702,236.411 411.834,237.748 412.619,239.084 413.445,240.42 413.88,241.756 414.93,243.092 415.091,244.428 415.698,245.764 416.572,247.1 417.043,248.437 417.565,249.773 417.911,251.109 418.059,252.445 418.672,253.781 418.948,255.117 420.051,256.453 420.702,257.789 421.612,259.125 421.723,260.462 422.095,261.798 422.816,263.134 423.278,264.47 423.815,265.806 424.255,267.142 425.261,268.478 425.732,269.814 425.813,271.151 426,272.487 426.539,273.823 426.85,275.159 427.493,276.495 428.093,277.831 428.142,279.167 428.686,280.503 428.796,281.839 429.156,283.176 429.209,284.512 429.213,285.848 429.36,287.184 430.223,288.52 430.807,289.856 430.873,291.192 430.935,292.528 431.433,293.865 431.939,295.201 432.655,296.537 433.144,297.873 433.515,299.209 434.076,300.545 434.336,301.881 434.44,303.217 434.676,304.553 434.946,305.89 435.326,307.226 435.71,308.562 436.456,309.898 437.141,311.234 438.961,312.57 439.825,313.906 440.161,315.242 440.976,316.579 441.427,317.915 441.663,319.251 442.332,320.587 444.196,321.923 445.115,323.259 445.61,324.595 447.148,325.931 447.169,327.267 448.825,328.604 449.108,329.94 449.78,331.276 449.891,332.612 450.332,333.948 451.197,335.284 452.312,336.62 452.51,337.956 454.572,339.292 454.933,340.629 455.56,341.965 455.928,343.301 456.333,344.637 456.63,345.973 457.052,347.309 457.593,348.645 457.656,349.981 458.343,351.318 459.187,352.654 459.586,353.99 460.538,355.326 460.66,356.662 460.981,357.998 461.411,359.334 461.773,360.67 462.263,362.006 462.326,363.343 462.378,364.679 464.641,366.015 464.995,367.351 466.135,368.687 466.607,370.023 466.783,371.359 467.392,372.695 467.937,374.032 468.06,375.368 468.394,376.704 468.481,378.04 469.137,379.376 470.002,380.712 470.172,382.048 471.026,383.384 471.575,384.72 472.254,386.057 472.379,387.393 472.524,388.729 473.887,390.065 476.876,391.401 477.637,392.737 478.055,394.073 481.903,395.409 481.928,396.746 482.231,398.082 483.078,399.418 483.951,400.754 485.023,402.09 485.41,403.426 487.488,404.762 488.003,406.098 488.097,407.434 488.263,408.771 488.344,410.107 488.6,411.443 488.93,412.779 489.463,414.115 490.602,415.451 493.405,416.787 494.243,418.123 495.556,419.459 496.527,420.796 496.883,422.132 497.287,423.468 497.375,424.804 500.718,426.14 501.138,427.476 501.666,428.812 502.692,430.148 503.02,431.485 503.849,432.821 504.418,434.157 505.278,435.493 506.705,436.829 506.838,438.165 507.081,439.501 507.425,440.837 508.108,442.173 509.562,443.51 512.454,444.846 512.509,446.182 514.284,447.518 515.082,448.854 515.275,450.19 515.63,451.526 515.799,452.862 516.171,454.199 516.724,455.535 518.152,456.871 519.417,458.207 519.586,459.543 520.649,460.879 521.398,462.215 522.86,463.551 523.714,464.887 523.885,466.224 524.065,467.56 524.07,468.896 524.657,470.232 525.129,471.568 525.182,472.904 525.697,474.24 527.896,475.576 528.185,476.913 529.551,478.249 529.924,479.585 529.976,480.921 530.305,482.257 530.739,483.593 531.008,484.929 531.369,486.265 531.725,487.601 532.243,488.938 532.282,490.274 533.528,491.61 533.753,492.946 534.163,494.282 534.169,495.618 535.28,496.954 536.131,498.29 536.408,499.626 538.126,500.963 539.268,502.299 539.515,503.635 539.574,504.971 540.005,506.307 542.233,507.643 543.023,508.979 543.264,510.315 543.289,511.652 544.413,512.988 544.624,514.324 544.64,515.66 545.389,516.996 546.004,518.332 549.733,519.668 550.816,521.004 551.207,522.34 551.261,523.677 552.197,525.013 552.592,526.349 552.692,527.685 552.961,529.021 553.732,530.357 554.121,531.693 554.757,533.029 555.258,534.366 555.789,535.702 556.772,537.038 557.519,538.374 557.576,539.71 557.99,541.046 558.653,542.382 558.852,543.718 560.679,545.054 560.747,546.391 560.914,547.727 561.005,549.063 562.562,550.399 563.063,551.735 563.095,553.071 565.496,554.407 565.623,555.743 565.915,557.08 566.322,558.416 567.19,559.752 567.451,561.088 568.068,562.424 568.331,563.76 569.657,565.096 570.472,566.432 571.219,567.768 571.92,569.105 572.006,570.441 572.692,571.777 573.333,573.113 574.843,574.449 575.29,575.785 576.601,577.121 577.97,578.457 579.659,579.793 579.783,581.13 579.803,582.466 580.002,583.802 580.68,585.138 580.981,586.474 584.68,587.81 587.791,589.146 588.619,590.482 588.892,591.819 588.969,593.155 590.263,594.491 590.918,595.827 591.274,597.163 592.783,598.499 593.072,599.835 593.909,601.171 594.109,602.507 594.117,603.844 594.439,605.18 594.753,606.516 594.93,607.852 595.706,609.188 596.671,610.524 596.722,611.86 596.899,613.196 597.745,614.533 600.487,615.869 600.569,617.205 601.001,618.541 601.738,619.877 601.845,621.213 602.126,622.549 602.203,623.885 602.92,625.221 603.77,626.558 603.99,627.894 605.226,629.23 607.193,630.566 607.512,631.902 608.386,633.238 608.477,634.574 609.049,635.91 609.284,637.247 611.106,638.583 611.157,639.919 611.251,641.255 611.38,642.591 611.908,643.927 611.935,645.263 612.72,646.599 612.888,647.935 614.104,649.272 614.166,650.608 614.716,651.944 615.02,653.28 615.302,654.616 616.199,655.952 616.208,657.288 618.718,658.624 620.273,659.96 621.965,661.297 622.247,662.633 622.353,663.969 623.925,665.305 624.672,666.641 626.545,667.977 626.757,669.313 627.634,670.649 628.94,671.986 630.072,673.322 630.464,674.658 631.444,675.994 631.765,677.33 632.75,678.666 633.875,680.002 634.012,681.338 634.014,682.674 634.328,684.011 634.738,685.347 636.347,686.683 639.195,688.019 639.399,689.355 640.586,690.691 641.062,692.027 643.712,693.363 645.091,694.7 646.374,696.036 646.807,697.372 647.644,698.708 647.669,700.044 652.473,701.38 653.087,702.716 653.517,704.052 654.386,705.388 655.022,706.725 655.18,708.061 655.662,709.397 657.432,710.733 657.989,712.069 659.331,713.405 659.519,714.741 660.618,716.077 660.869,717.414 663.384,718.75 666.529,720.086 666.734,721.422 666.955,722.758 667.234,724.094 667.485,725.43 669.014,726.766 669.344,728.102 671.292,729.439 672.586,730.775 674.488,732.111 675.147,733.447 675.301,734.783 677.735,736.119 678.121,737.455 678.223,738.791 678.956,740.128 679.18,741.464 679.531,742.8 679.859,744.136 681.403,745.472 681.794,746.808 682.838,748.144 682.848,749.48 683.025,750.816 683.084,752.153 683.686,753.489 684.902,754.825 686.175,756.161 688.491,757.497 688.906,758.833 690.978,760.169 691.459,761.505 691.566,762.841 692.006,764.178 692.384,765.514 693.927,766.85 695.719,768.186 695.95,769.522 696.076,770.858 697.861,772.194 698.119,773.53 698.487,774.867 699.212,776.203 699.333,777.539 701.153,778.875 702.787,780.211 704.907,781.547 708.392,782.883 708.439,784.219 709.297,785.555 710.799,786.892 711.604,788.228 714.344,789.564 715.924,790.9 716.077,792.236 716.91,793.572 718.814,794.908 720.453,796.244 720.836,797.581 722.094,798.917 722.396,800.253 722.703,801.589 723.132,802.925 723.537,804.261 724.783,805.597 726.721,806.933 726.933,808.269 726.982,809.606 727.561,810.942 728.743,812.278 729.256,813.614 729.757,814.95 730.093,816.286 731.143,817.622 731.894,818.958 732.205,820.295 732.489,821.631 732.671,822.967 734.891,824.303 735.417,825.639 738.787,826.975 738.996,828.311 741.041,829.647 741.524,830.983 741.886,832.32 742.676,833.656 743.035,834.992 743.24,836.328 743.72,837.664 744.241,839 744.292,840.336 744.868,841.672 745.228,843.008 748.349,844.345 748.846,845.681 748.885,847.017 749.21,848.353 750.087,849.689 750.364,851.025 751.118,852.361 751.238,853.697 751.318,855.034 752.353,856.37 752.696,857.706 753.199,859.042 753.336,860.378 755.206,861.714 755.441,863.05 756.195,864.386 757.01,865.722 757.647,867.059 758.085,868.395 758.172,869.731 758.703,871.067 759.985,872.403 761.728,873.739 761.959,875.075 762.387,876.411 764.078,877.748 764.146,879.084 765.904,880.42 766.061,881.756 766.649,883.092 767.369,884.428 768.716,885.764 769.101,887.1 769.406,888.436 769.449,889.773 770.863,891.109 771.836,892.445 775.73,893.781 776.398,895.117 777.653,896.453 778.075,897.789 779.386,899.125 781.348,900.462 781.999,901.798 782.309,903.134 782.581,904.47 783.288,905.806 784.937,907.142 785.109,908.478 785.116,909.814 787.349,911.15 787.741,912.487 789.16,913.823 789.732,915.159 789.921,916.495 791.229,917.831 792.302,919.167 793.04,920.503 793.169,921.839 793.291,923.175 793.473,924.512 794.133,925.848 794.209,927.184 794.331,928.52 796.052,929.856 796.28,931.192 796.304,932.528 796.852,933.864 797.122,935.201 797.225,936.537 798.509,937.873 799.207,939.209 799.348,940.545 800.064,941.881 800.657,943.217 800.717,944.553 800.829,945.889 802.748,947.226 807.781,948.562 811.568,949.898 811.61,951.234 812.342,952.57 815.223,953.906 815.314,955.242 815.354,956.578 815.624,957.915 816.433,959.251 817.297,960.587 819.151,961.923 819.401,963.259 819.913,964.595 819.951,965.931 821.214,967.267 825.247,968.603 826.7,969.94 827.126,971.276 827.578,972.612 828.128,973.948 828.711,975.284 831.941,976.62 835.874,977.956 835.993,979.292 836.62,980.629 837.388,981.965 837.626,983.301 838.303,984.637 838.807,985.973 839.724,987.309 843.264,988.645 844.419,989.981 844.737,991.317 845.134,992.654 848.85,993.99 849.507,995.326 852.333,996.662 853.797,997.998 855.713,999.334 855.957,1000.67 858.009,1002.01 859.449,1003.34 859.933,1004.68 861.484,1006.01 862.449,1007.35 865.158,1008.69 865.902,1010.02 866.667,1011.36 868.512,1012.7 872.006,1014.03 875.01,1015.37 875.021,1016.7 876.03,1018.04 878.517,1019.38 881.021,1020.71 881.039,1022.05 882.643,1023.38 883.863,1024.72 885.94,1026.06 886.65,1027.39 887.496,1028.73 888.924,1030.06 890.529,1031.4 892.684,1032.74 893.251,1034.07 893.399,1035.41 895.325,1036.75 897.881,1038.08 901.688,1039.42 904.749,1040.75 907.164,1042.09 909.979,1043.43 911.733,1044.76 913.215,1046.1 914.11,1047.43 915.503,1048.77 918.437,1050.11 919.27,1051.44 921.601,1052.78 922.212,1054.11 923.981,1055.45 925.897,1056.79 927.122,1058.12 927.191,1059.46 930.455,1060.8 932.019,1062.13 936.623,1063.47 937.624,1064.8 937.721,1066.14 938.367,1067.48 945.186,1068.81 945.421,1070.15 949.749,1071.48 950.396,1072.82 951.505,1074.16 952.625,1075.49 953.312,1076.83 956.515,1078.17 958.543,1079.5 958.593,1080.84 960.465,1082.17 960.971,1083.51 965.688,1084.85 966.96,1086.18 967.731,1087.52 970.937,1088.85 971.26,1090.19 975.097,1091.53 976.05,1092.86 979.93,1094.2 981.255,1095.53 983.501,1096.87 984.895,1098.21 985.278,1099.54 990.333,1100.88 993.549,1102.22 994.032,1103.55 995.848,1104.89 997.597,1106.22 1004.61,1107.56 1005.97,1108.9 1006.74,1110.23 1007.75,1111.57 1010.14,1112.9 1013.45,1114.24 1014.18,1115.58 1014.75,1116.91 1014.76,1118.25 1015.96,1119.58 1018.1,1120.92 1020.54,1122.26 1021,1123.59 1022.94,1124.93 1023.61,1126.27 1024.27,1127.6 1027.9,1128.94 1031.37,1130.27 1037.34,1131.61 1038.16,1132.95 1039.33,1134.28 1041.62,1135.62 1042.74,1136.95 1044.62,1138.29 1045.76,1139.63 1050.89,1140.96 1052.1,1142.3 1052.47,1143.63 1057.82,1144.97 1059.38,1146.31 1061.14,1147.64 1066.94,1148.98 1068.13,1150.32 1069.7,1151.65 1073.62,1152.99 1074.87,1154.32 1076.89,1155.66 1083.76,1157 1084.03,1158.33 1087.23,1159.67 1088.87,1161 1089.6,1162.34 1090.28,1163.68 1091.79,1165.01 1093.25,1166.35 1094.19,1167.68 1098.94,1169.02 1101.82,1170.36 1103.67,1171.69 1104.5,1173.03 1106.92,1174.37 1109.65,1175.7 1111.34,1177.04 1112.11,1178.37 1113.85,1179.71 1113.91,1181.05 1117.44,1182.38 1117.75,1183.72 1123.08,1185.05 1123.41,1186.39 1124.11,1187.73 1126.5,1189.06 1127.99,1190.4 1131.28,1191.73 1137.21,1193.07 1139.04,1194.41 1139.47,1195.74 1139.88,1197.08 1140.66,1198.42 1142.84,1199.75 1143.05,1201.09 1144.98,1202.42 1151.85,1203.76 1153.09,1205.1 1172.19,1206.43 1175.77,1207.77 1178.41,1209.1 1182.91,1210.44 1192.34,1211.78 1196.8,1213.11 1197.75,1214.45 1198.75,1215.79 1200.76,1217.12 1202.23,1218.46 1205.03,1219.79 1207.29,1221.13 1210.03,1222.47 1210.86,1223.8 1211.58,1225.14 1211.68,1226.47 1212.59,1227.81 1216.46,1229.15 1216.73,1230.48 1218.97,1231.82 1221.05,1233.15 1224.11,1234.49 1224.46,1235.83 1226.92,1237.16 1229.92,1238.5 1235,1239.84 1235.99,1241.17 1237.09,1242.51 1238.08,1243.84 1239.97,1245.18 1246.46,1246.52 1248.37,1247.85 1256.89,1249.19 1263.44,1250.52 1263.5,1251.86 1263.66,1253.2 1265.48,1254.53 1276.47,1255.87 1276.82,1257.2 1280.55,1258.54 1280.86,1259.88 1283.56,1261.21 1284.64,1262.55 1287.24,1263.89 1295.5,1265.22 1300.65,1266.56 1305.63,1267.89 1307.91,1269.23 1309.82,1270.57 1310.75,1271.9 1312.6,1273.24 1312.69,1274.57 1326.09,1275.91 1330.79,1277.25 1333.85,1278.58 1334.86,1279.92 1337.5,1281.25 1338.89,1282.59 1341.52,1283.93 1352.04,1285.26 1357.05,1286.6 1358.64,1287.94 1358.94,1289.27 1363.01,1290.61 1365.79,1291.94 1366.32,1293.28 1369.29,1294.62 1369.66,1295.95 1374.05,1297.29 1375.97,1298.62 1379.34,1299.96 1383.36,1301.3 1391.65,1302.63 1407.04,1303.97 1408.58,1305.3 1409.34,1306.64 1409.51,1307.98 1419.51,1309.31 1428.21,1310.65 1429.49,1311.99 1446.47,1313.32 1465.18,1314.66 1465.28,1315.99 1465.4,1317.33 1470.91,1318.67 1477.53,1320 1477.87,1321.34 1497.07,1322.67 1509.11,1324.01 1509.3,1325.35 1513.87,1326.68 1514.55,1328.02 1527.17,1329.35 1527.53,1330.69 1531.93,1332.03 1550.32,1333.36 1571.32,1334.7 1571.99,1336.04 1581.32,1337.37 1584.96,1338.71 1590.7,1340.04 1597.72,1341.38 1604.14,1342.72 1604.68,1344.05 1625.05,1345.39 1640.16,1346.72 1651.25,1348.06 1664.79,1349.4 1676.58,1350.73 1679.82,1352.07 1684.64,1353.41 1693.7,1354.74 1694.59,1356.08 1705.76,1357.41 1729.22,1358.75 1729.85,1360.09 1743.36,1361.42 1744.83,1362.76 1755.98,1364.09 1763.71,1365.43 1767.3,1366.77 1804.09,1368.1 1812.86,1369.44 1816.73,1370.77 1909.4,1372.11 1919.58,1373.45 1932.09,1374.78 1960.19,1376.12 1962.3,1377.46 1982.95,1378.79 2030.81,1380.13 2067.62,1381.46 2070.78,1382.8 2087.67,1384.14 2094.29,1385.47 2136.77,1386.81 2140.43,1388.14 2167.4,1389.48 2229.66,1390.82 2234.46,1392.15 2237.7,1393.49 2252.11,1394.82 2295.86,1396.16 2386.4,1397.5 2511.66,1398.83 2561.3,1400.17 2607.86,1401.51 2742.5,1402.84 2840.6,1404.18 3070.85,1404.18 "/>
</svg>
