<?xml version="1.0" encoding="utf-8"?>
<svg xmlns="http://www.w3.org/2000/svg" xmlns:xlink="http://www.w3.org/1999/xlink" width="800" height="400" viewBox="0 0 3200 1600">
<defs>
  <clipPath id="clip590">
    <rect x="0" y="0" width="3200" height="1600"/>
  </clipPath>
</defs>
<path clip-path="url(#clip590)" d="M0 1600 L3200 1600 L3200 0 L0 0  Z" fill="#ffffff" fill-rule="evenodd" fill-opacity="1"/>
<defs>
  <clipPath id="clip591">
    <rect x="164" y="47" width="2989" height="1449"/>
  </clipPath>
</defs>
<path clip-path="url(#clip590)" d="M164.598 1495.09 L3152.76 1495.09 L3152.76 47.2441 L164.598 47.2441  Z" fill="#ffffff" fill-rule="evenodd" fill-opacity="1"/>
<polyline clip-path="url(#clip591)" style="stroke:#000000; stroke-linecap:round; stroke-linejoin:round; stroke-width:2; stroke-opacity:0.1; fill:none" points="572.562,1495.09 572.562,47.2441 "/>
<polyline clip-path="url(#clip591)" style="stroke:#000000; stroke-linecap:round; stroke-linejoin:round; stroke-width:2; stroke-opacity:0.1; fill:none" points="1658.68,1495.09 1658.68,47.2441 "/>
<polyline clip-path="url(#clip591)" style="stroke:#000000; stroke-linecap:round; stroke-linejoin:round; stroke-width:2; stroke-opacity:0.1; fill:none" points="2744.79,1495.09 2744.79,47.2441 "/>
<polyline clip-path="url(#clip591)" style="stroke:#000000; stroke-linecap:round; stroke-linejoin:round; stroke-width:2; stroke-opacity:0.1; fill:none" points="572.562,1495.09 572.562,47.2441 "/>
<polyline clip-path="url(#clip591)" style="stroke:#000000; stroke-linecap:round; stroke-linejoin:round; stroke-width:2; stroke-opacity:0.1; fill:none" points="1658.68,1495.09 1658.68,47.2441 "/>
<polyline clip-path="url(#clip591)" style="stroke:#000000; stroke-linecap:round; stroke-linejoin:round; stroke-width:2; stroke-opacity:0.1; fill:none" points="2744.79,1495.09 2744.79,47.2441 "/>
<polyline clip-path="url(#clip591)" style="stroke:#000000; stroke-linecap:round; stroke-linejoin:round; stroke-width:2; stroke-opacity:0.1; fill:none" points="164.598,1224.89 3152.76,1224.89 "/>
<polyline clip-path="url(#clip591)" style="stroke:#000000; stroke-linecap:round; stroke-linejoin:round; stroke-width:2; stroke-opacity:0.1; fill:none" points="164.598,951.97 3152.76,951.97 "/>
<polyline clip-path="url(#clip591)" style="stroke:#000000; stroke-linecap:round; stroke-linejoin:round; stroke-width:2; stroke-opacity:0.1; fill:none" points="164.598,679.047 3152.76,679.047 "/>
<polyline clip-path="url(#clip591)" style="stroke:#000000; stroke-linecap:round; stroke-linejoin:round; stroke-width:2; stroke-opacity:0.1; fill:none" points="164.598,406.124 3152.76,406.124 "/>
<polyline clip-path="url(#clip591)" style="stroke:#000000; stroke-linecap:round; stroke-linejoin:round; stroke-width:2; stroke-opacity:0.1; fill:none" points="164.598,133.2 3152.76,133.2 "/>
<polyline clip-path="url(#clip591)" style="stroke:#000000; stroke-linecap:round; stroke-linejoin:round; stroke-width:2; stroke-opacity:0.1; fill:none" points="164.598,1224.89 3152.76,1224.89 "/>
<polyline clip-path="url(#clip591)" style="stroke:#000000; stroke-linecap:round; stroke-linejoin:round; stroke-width:2; stroke-opacity:0.1; fill:none" points="164.598,951.97 3152.76,951.97 "/>
<polyline clip-path="url(#clip591)" style="stroke:#000000; stroke-linecap:round; stroke-linejoin:round; stroke-width:2; stroke-opacity:0.1; fill:none" points="164.598,679.047 3152.76,679.047 "/>
<polyline clip-path="url(#clip591)" style="stroke:#000000; stroke-linecap:round; stroke-linejoin:round; stroke-width:2; stroke-opacity:0.1; fill:none" points="164.598,406.124 3152.76,406.124 "/>
<polyline clip-path="url(#clip591)" style="stroke:#000000; stroke-linecap:round; stroke-linejoin:round; stroke-width:2; stroke-opacity:0.1; fill:none" points="164.598,133.2 3152.76,133.2 "/>
<polyline clip-path="url(#clip590)" style="stroke:#000000; stroke-linecap:round; stroke-linejoin:round; stroke-width:4; stroke-opacity:1; fill:none" points="164.598,1495.09 3152.76,1495.09 "/>
<polyline clip-path="url(#clip590)" style="stroke:#000000; stroke-linecap:round; stroke-linejoin:round; stroke-width:4; stroke-opacity:1; fill:none" points="164.598,47.2441 3152.76,47.2441 "/>
<polyline clip-path="url(#clip590)" style="stroke:#000000; stroke-linecap:round; stroke-linejoin:round; stroke-width:4; stroke-opacity:1; fill:none" points="572.562,1495.09 572.562,1476.19 "/>
<polyline clip-path="url(#clip590)" style="stroke:#000000; stroke-linecap:round; stroke-linejoin:round; stroke-width:4; stroke-opacity:1; fill:none" points="1658.68,1495.09 1658.68,1476.19 "/>
<polyline clip-path="url(#clip590)" style="stroke:#000000; stroke-linecap:round; stroke-linejoin:round; stroke-width:4; stroke-opacity:1; fill:none" points="2744.79,1495.09 2744.79,1476.19 "/>
<polyline clip-path="url(#clip590)" style="stroke:#000000; stroke-linecap:round; stroke-linejoin:round; stroke-width:4; stroke-opacity:1; fill:none" points="572.562,47.2441 572.562,66.1417 "/>
<polyline clip-path="url(#clip590)" style="stroke:#000000; stroke-linecap:round; stroke-linejoin:round; stroke-width:4; stroke-opacity:1; fill:none" points="1658.68,47.2441 1658.68,66.1417 "/>
<polyline clip-path="url(#clip590)" style="stroke:#000000; stroke-linecap:round; stroke-linejoin:round; stroke-width:4; stroke-opacity:1; fill:none" points="2744.79,47.2441 2744.79,66.1417 "/>
<path clip-path="url(#clip590)" d="M575.016 1550.86 Q569.854 1550.86 567.863 1552.04 Q565.873 1553.22 565.873 1556.06 Q565.873 1558.33 567.354 1559.67 Q568.859 1560.99 571.428 1560.99 Q574.97 1560.99 577.099 1558.49 Q579.252 1555.97 579.252 1551.8 L579.252 1550.86 L575.016 1550.86 M583.511 1549.1 L583.511 1563.89 L579.252 1563.89 L579.252 1559.95 Q577.794 1562.31 575.618 1563.45 Q573.442 1564.56 570.294 1564.56 Q566.312 1564.56 563.951 1562.34 Q561.613 1560.09 561.613 1556.34 Q561.613 1551.97 564.53 1549.74 Q567.47 1547.52 573.28 1547.52 L579.252 1547.52 L579.252 1547.11 Q579.252 1544.17 577.308 1542.57 Q575.386 1540.95 571.891 1540.95 Q569.669 1540.95 567.562 1541.48 Q565.456 1542.01 563.512 1543.08 L563.512 1539.14 Q565.849 1538.24 568.049 1537.8 Q570.248 1537.34 572.331 1537.34 Q577.956 1537.34 580.734 1540.25 Q583.511 1543.17 583.511 1549.1 Z" fill="#000000" fill-rule="nonzero" fill-opacity="1" /><path clip-path="url(#clip590)" d="M1651.76 1562.29 L1651.76 1573.75 L1647.47 1573.75 L1647.47 1538.12 Q1647.47 1527.57 1657.33 1527.57 Q1667.38 1527.57 1667.38 1536.48 Q1667.38 1542.82 1663.4 1545.14 Q1669.88 1547.22 1669.88 1553.4 Q1669.88 1564.37 1658.72 1564.37 Q1653.82 1564.37 1651.76 1562.29 M1651.76 1556.74 Q1654.33 1560.74 1658.89 1560.74 Q1665.55 1560.74 1665.55 1553.47 Q1665.55 1546.94 1654.81 1547.45 L1654.81 1543.52 Q1663.21 1543.52 1663.21 1536.11 Q1663.21 1531.04 1657.8 1531.04 Q1651.76 1531.04 1651.76 1538.26 L1651.76 1556.74 Z" fill="#000000" fill-rule="nonzero" fill-opacity="1" /><path clip-path="url(#clip590)" d="M2739.46 1542.04 L2745.13 1558.05 L2753.23 1537.96 L2757.74 1537.96 L2747.26 1563.89 L2747.26 1573.75 L2743 1573.75 L2743 1563.89 L2736.19 1544.54 Q2735.17 1541.62 2732.97 1541.62 L2731.84 1541.62 L2731.84 1537.96 L2733.46 1537.96 Q2738.02 1537.96 2739.46 1542.04 Z" fill="#000000" fill-rule="nonzero" fill-opacity="1" /><polyline clip-path="url(#clip590)" style="stroke:#000000; stroke-linecap:round; stroke-linejoin:round; stroke-width:4; stroke-opacity:1; fill:none" points="164.598,1495.09 164.598,47.2441 "/>
<polyline clip-path="url(#clip590)" style="stroke:#000000; stroke-linecap:round; stroke-linejoin:round; stroke-width:4; stroke-opacity:1; fill:none" points="3152.76,1495.09 3152.76,47.2441 "/>
<polyline clip-path="url(#clip590)" style="stroke:#000000; stroke-linecap:round; stroke-linejoin:round; stroke-width:4; stroke-opacity:1; fill:none" points="164.598,1224.89 183.496,1224.89 "/>
<polyline clip-path="url(#clip590)" style="stroke:#000000; stroke-linecap:round; stroke-linejoin:round; stroke-width:4; stroke-opacity:1; fill:none" points="164.598,951.97 183.496,951.97 "/>
<polyline clip-path="url(#clip590)" style="stroke:#000000; stroke-linecap:round; stroke-linejoin:round; stroke-width:4; stroke-opacity:1; fill:none" points="164.598,679.047 183.496,679.047 "/>
<polyline clip-path="url(#clip590)" style="stroke:#000000; stroke-linecap:round; stroke-linejoin:round; stroke-width:4; stroke-opacity:1; fill:none" points="164.598,406.124 183.496,406.124 "/>
<polyline clip-path="url(#clip590)" style="stroke:#000000; stroke-linecap:round; stroke-linejoin:round; stroke-width:4; stroke-opacity:1; fill:none" points="164.598,133.2 183.496,133.2 "/>
<polyline clip-path="url(#clip590)" style="stroke:#000000; stroke-linecap:round; stroke-linejoin:round; stroke-width:4; stroke-opacity:1; fill:none" points="3152.76,1224.89 3133.86,1224.89 "/>
<polyline clip-path="url(#clip590)" style="stroke:#000000; stroke-linecap:round; stroke-linejoin:round; stroke-width:4; stroke-opacity:1; fill:none" points="3152.76,951.97 3133.86,951.97 "/>
<polyline clip-path="url(#clip590)" style="stroke:#000000; stroke-linecap:round; stroke-linejoin:round; stroke-width:4; stroke-opacity:1; fill:none" points="3152.76,679.047 3133.86,679.047 "/>
<polyline clip-path="url(#clip590)" style="stroke:#000000; stroke-linecap:round; stroke-linejoin:round; stroke-width:4; stroke-opacity:1; fill:none" points="3152.76,406.124 3133.86,406.124 "/>
<polyline clip-path="url(#clip590)" style="stroke:#000000; stroke-linecap:round; stroke-linejoin:round; stroke-width:4; stroke-opacity:1; fill:none" points="3152.76,133.2 3133.86,133.2 "/>
<path clip-path="url(#clip590)" d="M60.6495 1210.69 Q57.0384 1210.69 55.2097 1214.26 Q53.4041 1217.8 53.4041 1224.93 Q53.4041 1232.03 55.2097 1235.6 Q57.0384 1239.14 60.6495 1239.14 Q64.2837 1239.14 66.0892 1235.6 Q67.9179 1232.03 67.9179 1224.93 Q67.9179 1217.8 66.0892 1214.26 Q64.2837 1210.69 60.6495 1210.69 M60.6495 1206.99 Q66.4596 1206.99 69.5152 1211.6 Q72.5938 1216.18 72.5938 1224.93 Q72.5938 1233.66 69.5152 1238.26 Q66.4596 1242.85 60.6495 1242.85 Q54.8393 1242.85 51.7606 1238.26 Q48.7051 1233.66 48.7051 1224.93 Q48.7051 1216.18 51.7606 1211.6 Q54.8393 1206.99 60.6495 1206.99 Z" fill="#000000" fill-rule="nonzero" fill-opacity="1" /><path clip-path="url(#clip590)" d="M80.8114 1236.29 L85.6956 1236.29 L85.6956 1242.17 L80.8114 1242.17 L80.8114 1236.29 Z" fill="#000000" fill-rule="nonzero" fill-opacity="1" /><path clip-path="url(#clip590)" d="M96.6909 1238.24 L104.33 1238.24 L104.33 1211.87 L96.0196 1213.54 L96.0196 1209.28 L104.283 1207.61 L108.959 1207.61 L108.959 1238.24 L116.598 1238.24 L116.598 1242.17 L96.6909 1242.17 L96.6909 1238.24 Z" fill="#000000" fill-rule="nonzero" fill-opacity="1" /><path clip-path="url(#clip590)" d="M61.0198 937.769 Q57.4087 937.769 55.58 941.334 Q53.7745 944.875 53.7745 952.005 Q53.7745 959.112 55.58 962.676 Q57.4087 966.218 61.0198 966.218 Q64.6541 966.218 66.4596 962.676 Q68.2883 959.112 68.2883 952.005 Q68.2883 944.875 66.4596 941.334 Q64.6541 937.769 61.0198 937.769 M61.0198 934.065 Q66.83 934.065 69.8855 938.672 Q72.9642 943.255 72.9642 952.005 Q72.9642 960.732 69.8855 965.338 Q66.83 969.922 61.0198 969.922 Q55.2097 969.922 52.131 965.338 Q49.0754 960.732 49.0754 952.005 Q49.0754 943.255 52.131 938.672 Q55.2097 934.065 61.0198 934.065 Z" fill="#000000" fill-rule="nonzero" fill-opacity="1" /><path clip-path="url(#clip590)" d="M81.1818 963.371 L86.066 963.371 L86.066 969.25 L81.1818 969.25 L81.1818 963.371 Z" fill="#000000" fill-rule="nonzero" fill-opacity="1" /><path clip-path="url(#clip590)" d="M100.279 965.315 L116.598 965.315 L116.598 969.25 L94.6539 969.25 L94.6539 965.315 Q97.3159 962.561 101.899 957.931 Q106.506 953.278 107.686 951.936 Q109.932 949.413 110.811 947.676 Q111.714 945.917 111.714 944.227 Q111.714 941.473 109.77 939.737 Q107.848 938.001 104.746 938.001 Q102.547 938.001 100.094 938.764 Q97.6632 939.528 94.8854 941.079 L94.8854 936.357 Q97.7094 935.223 100.163 934.644 Q102.617 934.065 104.654 934.065 Q110.024 934.065 113.219 936.751 Q116.413 939.436 116.413 943.926 Q116.413 946.056 115.603 947.977 Q114.816 949.875 112.709 952.468 Q112.131 953.139 109.029 956.357 Q105.927 959.551 100.279 965.315 Z" fill="#000000" fill-rule="nonzero" fill-opacity="1" /><path clip-path="url(#clip590)" d="M60.0708 664.846 Q56.4597 664.846 54.631 668.41 Q52.8254 671.952 52.8254 679.082 Q52.8254 686.188 54.631 689.753 Q56.4597 693.295 60.0708 693.295 Q63.705 693.295 65.5105 689.753 Q67.3392 686.188 67.3392 679.082 Q67.3392 671.952 65.5105 668.41 Q63.705 664.846 60.0708 664.846 M60.0708 661.142 Q65.8809 661.142 68.9365 665.748 Q72.0151 670.332 72.0151 679.082 Q72.0151 687.809 68.9365 692.415 Q65.8809 696.998 60.0708 696.998 Q54.2606 696.998 51.1819 692.415 Q48.1264 687.809 48.1264 679.082 Q48.1264 670.332 51.1819 665.748 Q54.2606 661.142 60.0708 661.142 Z" fill="#000000" fill-rule="nonzero" fill-opacity="1" /><path clip-path="url(#clip590)" d="M80.2327 690.447 L85.1169 690.447 L85.1169 696.327 L80.2327 696.327 L80.2327 690.447 Z" fill="#000000" fill-rule="nonzero" fill-opacity="1" /><path clip-path="url(#clip590)" d="M109.469 677.693 Q112.825 678.41 114.7 680.679 Q116.598 682.947 116.598 686.281 Q116.598 691.396 113.08 694.197 Q109.561 696.998 103.08 696.998 Q100.904 696.998 98.5891 696.558 Q96.2974 696.142 93.8437 695.285 L93.8437 690.771 Q95.7882 691.906 98.103 692.484 Q100.418 693.063 102.941 693.063 Q107.339 693.063 109.631 691.327 Q111.945 689.591 111.945 686.281 Q111.945 683.225 109.793 681.512 Q107.663 679.776 103.844 679.776 L99.8159 679.776 L99.8159 675.934 L104.029 675.934 Q107.478 675.934 109.307 674.568 Q111.135 673.179 111.135 670.586 Q111.135 667.924 109.237 666.512 Q107.362 665.077 103.844 665.077 Q101.922 665.077 99.7233 665.494 Q97.5243 665.91 94.8854 666.79 L94.8854 662.623 Q97.5474 661.883 99.8622 661.512 Q102.2 661.142 104.26 661.142 Q109.584 661.142 112.686 663.573 Q115.788 665.98 115.788 670.1 Q115.788 672.971 114.145 674.961 Q112.501 676.929 109.469 677.693 Z" fill="#000000" fill-rule="nonzero" fill-opacity="1" /><path clip-path="url(#clip590)" d="M58.9365 391.922 Q55.3254 391.922 53.4967 395.487 Q51.6912 399.029 51.6912 406.158 Q51.6912 413.265 53.4967 416.83 Q55.3254 420.371 58.9365 420.371 Q62.5707 420.371 64.3763 416.83 Q66.205 413.265 66.205 406.158 Q66.205 399.029 64.3763 395.487 Q62.5707 391.922 58.9365 391.922 M58.9365 388.219 Q64.7467 388.219 67.8022 392.825 Q70.8809 397.408 70.8809 406.158 Q70.8809 414.885 67.8022 419.492 Q64.7467 424.075 58.9365 424.075 Q53.1264 424.075 50.0477 419.492 Q46.9921 414.885 46.9921 406.158 Q46.9921 397.408 50.0477 392.825 Q53.1264 388.219 58.9365 388.219 Z" fill="#000000" fill-rule="nonzero" fill-opacity="1" /><path clip-path="url(#clip590)" d="M79.0984 417.524 L83.9827 417.524 L83.9827 423.404 L79.0984 423.404 L79.0984 417.524 Z" fill="#000000" fill-rule="nonzero" fill-opacity="1" /><path clip-path="url(#clip590)" d="M107.015 392.918 L95.2095 411.367 L107.015 411.367 L107.015 392.918 M105.788 388.844 L111.668 388.844 L111.668 411.367 L116.598 411.367 L116.598 415.256 L111.668 415.256 L111.668 423.404 L107.015 423.404 L107.015 415.256 L91.4132 415.256 L91.4132 410.742 L105.788 388.844 Z" fill="#000000" fill-rule="nonzero" fill-opacity="1" /><path clip-path="url(#clip590)" d="M60.418 118.999 Q56.8069 118.999 54.9782 122.564 Q53.1726 126.105 53.1726 133.235 Q53.1726 140.341 54.9782 143.906 Q56.8069 147.448 60.418 147.448 Q64.0522 147.448 65.8578 143.906 Q67.6865 140.341 67.6865 133.235 Q67.6865 126.105 65.8578 122.564 Q64.0522 118.999 60.418 118.999 M60.418 115.295 Q66.2281 115.295 69.2837 119.902 Q72.3624 124.485 72.3624 133.235 Q72.3624 141.962 69.2837 146.568 Q66.2281 151.152 60.418 151.152 Q54.6078 151.152 51.5291 146.568 Q48.4736 141.962 48.4736 133.235 Q48.4736 124.485 51.5291 119.902 Q54.6078 115.295 60.418 115.295 Z" fill="#000000" fill-rule="nonzero" fill-opacity="1" /><path clip-path="url(#clip590)" d="M80.5799 144.601 L85.4641 144.601 L85.4641 150.48 L80.5799 150.48 L80.5799 144.601 Z" fill="#000000" fill-rule="nonzero" fill-opacity="1" /><path clip-path="url(#clip590)" d="M95.6956 115.92 L114.052 115.92 L114.052 119.855 L99.978 119.855 L99.978 128.328 Q100.996 127.98 102.015 127.818 Q103.033 127.633 104.052 127.633 Q109.839 127.633 113.219 130.804 Q116.598 133.976 116.598 139.392 Q116.598 144.971 113.126 148.073 Q109.654 151.152 103.334 151.152 Q101.159 151.152 98.89 150.781 Q96.6446 150.411 94.2372 149.67 L94.2372 144.971 Q96.3206 146.105 98.5428 146.661 Q100.765 147.216 103.242 147.216 Q107.246 147.216 109.584 145.11 Q111.922 143.003 111.922 139.392 Q111.922 135.781 109.584 133.675 Q107.246 131.568 103.242 131.568 Q101.367 131.568 99.4918 131.985 Q97.64 132.402 95.6956 133.281 L95.6956 115.92 Z" fill="#000000" fill-rule="nonzero" fill-opacity="1" /><path clip-path="url(#clip591)" d="M267.474 353.214 L267.474 1495.09 L877.651 1495.09 L877.651 353.214 L267.474 353.214 L267.474 353.214  Z" fill="#009af9" fill-rule="evenodd" fill-opacity="1"/>
<polyline clip-path="url(#clip591)" style="stroke:#000000; stroke-linecap:round; stroke-linejoin:round; stroke-width:12; stroke-opacity:1; fill:none" points="267.474,353.214 267.474,1495.09 877.651,1495.09 877.651,353.214 267.474,353.214 "/>
<circle clip-path="url(#clip591)" style="fill:#009af9; stroke:none; fill-opacity:0" cx="572.562" cy="353.214" r="2"/>
<path clip-path="url(#clip591)" d="M1353.59 1474.03 L1353.59 1495.09 L1963.77 1495.09 L1963.77 1474.03 L1353.59 1474.03 L1353.59 1474.03  Z" fill="#e26f46" fill-rule="evenodd" fill-opacity="1"/>
<polyline clip-path="url(#clip591)" style="stroke:#000000; stroke-linecap:round; stroke-linejoin:round; stroke-width:12; stroke-opacity:1; fill:none" points="1353.59,1474.03 1353.59,1495.09 1963.77,1495.09 1963.77,1474.03 1353.59,1474.03 "/>
<circle clip-path="url(#clip591)" style="fill:#e26f46; stroke:none; fill-opacity:0" cx="1658.68" cy="1474.03" r="2"/>
<path clip-path="url(#clip591)" d="M2439.7 47.2441 L2439.7 1495.09 L3049.88 1495.09 L3049.88 47.2441 L2439.7 47.2441 L2439.7 47.2441  Z" fill="#3da44d" fill-rule="evenodd" fill-opacity="1"/>
<polyline clip-path="url(#clip591)" style="stroke:#000000; stroke-linecap:round; stroke-linejoin:round; stroke-width:12; stroke-opacity:1; fill:none" points="2439.7,47.2441 2439.7,1495.09 3049.88,1495.09 3049.88,47.2441 2439.7,47.2441 "/>
<circle clip-path="url(#clip591)" style="fill:#3da44d; stroke:none; fill-opacity:0" cx="2744.79" cy="47.2441" r="2"/>
<path clip-path="url(#clip590)" d="M264.203 302.866 L588.922 302.866 L588.922 95.5056 L264.203 95.5056  Z" fill="#ffffff" fill-rule="evenodd" fill-opacity="1"/>
<polyline clip-path="url(#clip590)" style="stroke:#000000; stroke-linecap:round; stroke-linejoin:round; stroke-width:4; stroke-opacity:1; fill:none" points="264.203,302.866 588.922,302.866 588.922,95.5056 264.203,95.5056 264.203,302.866 "/>
<path clip-path="url(#clip590)" d="M297.405 168.082 L496.616 168.082 L496.616 126.61 L297.405 126.61 L297.405 168.082  Z" fill="#009af9" fill-rule="evenodd" fill-opacity="1"/>
<polyline clip-path="url(#clip590)" style="stroke:#000000; stroke-linecap:round; stroke-linejoin:round; stroke-width:12; stroke-opacity:1; fill:none" points="297.405,168.082 496.616,168.082 496.616,126.61 297.405,126.61 297.405,168.082 "/>
<path clip-path="url(#clip590)" d="M543.22 151.593 Q538.058 151.593 536.067 152.774 Q534.077 153.954 534.077 156.802 Q534.077 159.07 535.558 160.413 Q537.063 161.732 539.632 161.732 Q543.174 161.732 545.304 159.232 Q547.456 156.709 547.456 152.542 L547.456 151.593 L543.22 151.593 M551.716 149.834 L551.716 164.626 L547.456 164.626 L547.456 160.69 Q545.998 163.051 543.822 164.186 Q541.646 165.297 538.498 165.297 Q534.517 165.297 532.155 163.075 Q529.818 160.829 529.818 157.079 Q529.818 152.704 532.734 150.482 Q535.674 148.26 541.484 148.26 L547.456 148.26 L547.456 147.843 Q547.456 144.903 545.512 143.306 Q543.591 141.686 540.095 141.686 Q537.873 141.686 535.767 142.218 Q533.66 142.751 531.716 143.815 L531.716 139.88 Q534.054 138.978 536.253 138.538 Q538.452 138.075 540.535 138.075 Q546.16 138.075 548.938 140.991 Q551.716 143.908 551.716 149.834 Z" fill="#000000" fill-rule="nonzero" fill-opacity="1" /><path clip-path="url(#clip590)" d="M297.405 219.922 L496.616 219.922 L496.616 178.45 L297.405 178.45 L297.405 219.922  Z" fill="#e26f46" fill-rule="evenodd" fill-opacity="1"/>
<polyline clip-path="url(#clip590)" style="stroke:#000000; stroke-linecap:round; stroke-linejoin:round; stroke-width:12; stroke-opacity:1; fill:none" points="297.405,219.922 496.616,219.922 496.616,178.45 297.405,178.45 297.405,219.922 "/>
<path clip-path="url(#clip590)" d="M534.1 214.868 L534.1 226.327 L529.818 226.327 L529.818 190.702 Q529.818 180.146 539.679 180.146 Q549.725 180.146 549.725 189.058 Q549.725 195.401 545.743 197.716 Q552.225 199.799 552.225 205.979 Q552.225 216.952 541.067 216.952 Q536.16 216.952 534.1 214.868 M534.1 209.313 Q536.669 213.317 541.229 213.317 Q547.896 213.317 547.896 206.049 Q547.896 199.521 537.155 200.03 L537.155 196.095 Q545.558 196.095 545.558 188.688 Q545.558 183.619 540.142 183.619 Q534.1 183.619 534.1 190.841 L534.1 209.313 Z" fill="#000000" fill-rule="nonzero" fill-opacity="1" /><path clip-path="url(#clip590)" d="M297.405 271.762 L496.616 271.762 L496.616 230.29 L297.405 230.29 L297.405 271.762  Z" fill="#3da44d" fill-rule="evenodd" fill-opacity="1"/>
<polyline clip-path="url(#clip590)" style="stroke:#000000; stroke-linecap:round; stroke-linejoin:round; stroke-width:12; stroke-opacity:1; fill:none" points="297.405,271.762 496.616,271.762 496.616,230.29 297.405,230.29 297.405,271.762 "/>
<path clip-path="url(#clip590)" d="M537.433 246.454 L543.104 262.472 L551.206 242.38 L555.72 242.38 L545.234 268.306 L545.234 278.167 L540.975 278.167 L540.975 268.306 L534.169 248.954 Q533.151 246.037 530.952 246.037 L529.818 246.037 L529.818 242.38 L531.438 242.38 Q535.998 242.38 537.433 246.454 Z" fill="#000000" fill-rule="nonzero" fill-opacity="1" /></svg>
