<?xml version="1.0" encoding="utf-8"?>
<svg xmlns="http://www.w3.org/2000/svg" xmlns:xlink="http://www.w3.org/1999/xlink" width="800" height="400" viewBox="0 0 3200 1600">
<defs>
  <clipPath id="clip520">
    <rect x="0" y="0" width="3200" height="1600"/>
  </clipPath>
</defs>
<path clip-path="url(#clip520)" d="M0 1600 L3200 1600 L3200 0 L0 0  Z" fill="#ffffff" fill-rule="evenodd" fill-opacity="1"/>
<defs>
  <clipPath id="clip521">
    <rect x="1845" y="108" width="1308" height="1388"/>
  </clipPath>
</defs>
<path clip-path="url(#clip520)" d="M178.857 1495.09 L1485.83 1495.09 L1485.83 108.352 L178.857 108.352  Z" fill="#ffffff" fill-rule="evenodd" fill-opacity="1"/>
<defs>
  <clipPath id="clip522">
    <rect x="178" y="108" width="1308" height="1388"/>
  </clipPath>
</defs>
<polyline clip-path="url(#clip522)" style="stroke:#000000; stroke-linecap:round; stroke-linejoin:round; stroke-width:2; stroke-opacity:0.1; fill:none" points="357.295,1495.09 357.295,108.352 "/>
<polyline clip-path="url(#clip522)" style="stroke:#000000; stroke-linecap:round; stroke-linejoin:round; stroke-width:2; stroke-opacity:0.1; fill:none" points="832.346,1495.09 832.346,108.352 "/>
<polyline clip-path="url(#clip522)" style="stroke:#000000; stroke-linecap:round; stroke-linejoin:round; stroke-width:2; stroke-opacity:0.1; fill:none" points="1307.4,1495.09 1307.4,108.352 "/>
<polyline clip-path="url(#clip522)" style="stroke:#000000; stroke-linecap:round; stroke-linejoin:round; stroke-width:2; stroke-opacity:0.1; fill:none" points="357.295,1495.09 357.295,108.352 "/>
<polyline clip-path="url(#clip522)" style="stroke:#000000; stroke-linecap:round; stroke-linejoin:round; stroke-width:2; stroke-opacity:0.1; fill:none" points="832.346,1495.09 832.346,108.352 "/>
<polyline clip-path="url(#clip522)" style="stroke:#000000; stroke-linecap:round; stroke-linejoin:round; stroke-width:2; stroke-opacity:0.1; fill:none" points="1307.4,1495.09 1307.4,108.352 "/>
<polyline clip-path="url(#clip522)" style="stroke:#000000; stroke-linecap:round; stroke-linejoin:round; stroke-width:2; stroke-opacity:0.1; fill:none" points="178.857,1495.09 1485.83,1495.09 "/>
<polyline clip-path="url(#clip522)" style="stroke:#000000; stroke-linecap:round; stroke-linejoin:round; stroke-width:2; stroke-opacity:0.1; fill:none" points="178.857,1033.71 1485.83,1033.71 "/>
<polyline clip-path="url(#clip522)" style="stroke:#000000; stroke-linecap:round; stroke-linejoin:round; stroke-width:2; stroke-opacity:0.1; fill:none" points="178.857,572.331 1485.83,572.331 "/>
<polyline clip-path="url(#clip522)" style="stroke:#000000; stroke-linecap:round; stroke-linejoin:round; stroke-width:2; stroke-opacity:0.1; fill:none" points="178.857,110.952 1485.83,110.952 "/>
<polyline clip-path="url(#clip522)" style="stroke:#000000; stroke-linecap:round; stroke-linejoin:round; stroke-width:2; stroke-opacity:0.1; fill:none" points="178.857,1495.09 1485.83,1495.09 "/>
<polyline clip-path="url(#clip522)" style="stroke:#000000; stroke-linecap:round; stroke-linejoin:round; stroke-width:2; stroke-opacity:0.1; fill:none" points="178.857,1033.71 1485.83,1033.71 "/>
<polyline clip-path="url(#clip522)" style="stroke:#000000; stroke-linecap:round; stroke-linejoin:round; stroke-width:2; stroke-opacity:0.1; fill:none" points="178.857,572.331 1485.83,572.331 "/>
<polyline clip-path="url(#clip522)" style="stroke:#000000; stroke-linecap:round; stroke-linejoin:round; stroke-width:2; stroke-opacity:0.1; fill:none" points="178.857,110.952 1485.83,110.952 "/>
<polyline clip-path="url(#clip520)" style="stroke:#000000; stroke-linecap:round; stroke-linejoin:round; stroke-width:4; stroke-opacity:1; fill:none" points="178.857,1495.09 1485.83,1495.09 "/>
<polyline clip-path="url(#clip520)" style="stroke:#000000; stroke-linecap:round; stroke-linejoin:round; stroke-width:4; stroke-opacity:1; fill:none" points="178.857,108.352 1485.83,108.352 "/>
<polyline clip-path="url(#clip520)" style="stroke:#000000; stroke-linecap:round; stroke-linejoin:round; stroke-width:4; stroke-opacity:1; fill:none" points="357.295,1495.09 357.295,1476.19 "/>
<polyline clip-path="url(#clip520)" style="stroke:#000000; stroke-linecap:round; stroke-linejoin:round; stroke-width:4; stroke-opacity:1; fill:none" points="832.346,1495.09 832.346,1476.19 "/>
<polyline clip-path="url(#clip520)" style="stroke:#000000; stroke-linecap:round; stroke-linejoin:round; stroke-width:4; stroke-opacity:1; fill:none" points="1307.4,1495.09 1307.4,1476.19 "/>
<polyline clip-path="url(#clip520)" style="stroke:#000000; stroke-linecap:round; stroke-linejoin:round; stroke-width:4; stroke-opacity:1; fill:none" points="357.295,108.352 357.295,127.25 "/>
<polyline clip-path="url(#clip520)" style="stroke:#000000; stroke-linecap:round; stroke-linejoin:round; stroke-width:4; stroke-opacity:1; fill:none" points="832.346,108.352 832.346,127.25 "/>
<polyline clip-path="url(#clip520)" style="stroke:#000000; stroke-linecap:round; stroke-linejoin:round; stroke-width:4; stroke-opacity:1; fill:none" points="1307.4,108.352 1307.4,127.25 "/>
<path clip-path="url(#clip520)" d="M350.374 1562.29 L350.374 1573.75 L346.091 1573.75 L346.091 1538.12 Q346.091 1527.57 355.953 1527.57 Q365.999 1527.57 365.999 1536.48 Q365.999 1542.82 362.017 1545.14 Q368.499 1547.22 368.499 1553.4 Q368.499 1564.37 357.341 1564.37 Q352.434 1564.37 350.374 1562.29 M350.374 1556.74 Q352.943 1560.74 357.503 1560.74 Q364.17 1560.74 364.17 1553.47 Q364.17 1546.94 353.429 1547.45 L353.429 1543.52 Q361.832 1543.52 361.832 1536.11 Q361.832 1531.04 356.416 1531.04 Q350.374 1531.04 350.374 1538.26 L350.374 1556.74 Z" fill="#000000" fill-rule="nonzero" fill-opacity="1" /><path clip-path="url(#clip520)" d="M834.8 1550.86 Q829.638 1550.86 827.647 1552.04 Q825.656 1553.22 825.656 1556.06 Q825.656 1558.33 827.138 1559.67 Q828.643 1560.99 831.212 1560.99 Q834.754 1560.99 836.883 1558.49 Q839.036 1555.97 839.036 1551.8 L839.036 1550.86 L834.8 1550.86 M843.295 1549.1 L843.295 1563.89 L839.036 1563.89 L839.036 1559.95 Q837.578 1562.31 835.402 1563.45 Q833.226 1564.56 830.078 1564.56 Q826.096 1564.56 823.735 1562.34 Q821.397 1560.09 821.397 1556.34 Q821.397 1551.97 824.314 1549.74 Q827.254 1547.52 833.064 1547.52 L839.036 1547.52 L839.036 1547.11 Q839.036 1544.17 837.092 1542.57 Q835.17 1540.95 831.675 1540.95 Q829.453 1540.95 827.346 1541.48 Q825.24 1542.01 823.295 1543.08 L823.295 1539.14 Q825.633 1538.24 827.832 1537.8 Q830.031 1537.34 832.115 1537.34 Q837.74 1537.34 840.517 1540.25 Q843.295 1543.17 843.295 1549.1 Z" fill="#000000" fill-rule="nonzero" fill-opacity="1" /><path clip-path="url(#clip520)" d="M1302.06 1542.04 L1307.73 1558.05 L1315.83 1537.96 L1320.35 1537.96 L1309.86 1563.89 L1309.86 1573.75 L1305.6 1573.75 L1305.6 1563.89 L1298.8 1544.54 Q1297.78 1541.62 1295.58 1541.62 L1294.45 1541.62 L1294.45 1537.96 L1296.07 1537.96 Q1300.63 1537.96 1302.06 1542.04 Z" fill="#000000" fill-rule="nonzero" fill-opacity="1" /><polyline clip-path="url(#clip520)" style="stroke:#000000; stroke-linecap:round; stroke-linejoin:round; stroke-width:4; stroke-opacity:1; fill:none" points="178.857,1495.09 178.857,108.352 "/>
<polyline clip-path="url(#clip520)" style="stroke:#000000; stroke-linecap:round; stroke-linejoin:round; stroke-width:4; stroke-opacity:1; fill:none" points="1485.83,1495.09 1485.83,108.352 "/>
<polyline clip-path="url(#clip520)" style="stroke:#000000; stroke-linecap:round; stroke-linejoin:round; stroke-width:4; stroke-opacity:1; fill:none" points="178.857,1495.09 197.755,1495.09 "/>
<polyline clip-path="url(#clip520)" style="stroke:#000000; stroke-linecap:round; stroke-linejoin:round; stroke-width:4; stroke-opacity:1; fill:none" points="178.857,1033.71 197.755,1033.71 "/>
<polyline clip-path="url(#clip520)" style="stroke:#000000; stroke-linecap:round; stroke-linejoin:round; stroke-width:4; stroke-opacity:1; fill:none" points="178.857,572.331 197.755,572.331 "/>
<polyline clip-path="url(#clip520)" style="stroke:#000000; stroke-linecap:round; stroke-linejoin:round; stroke-width:4; stroke-opacity:1; fill:none" points="178.857,110.952 197.755,110.952 "/>
<polyline clip-path="url(#clip520)" style="stroke:#000000; stroke-linecap:round; stroke-linejoin:round; stroke-width:4; stroke-opacity:1; fill:none" points="1485.83,1495.09 1466.94,1495.09 "/>
<polyline clip-path="url(#clip520)" style="stroke:#000000; stroke-linecap:round; stroke-linejoin:round; stroke-width:4; stroke-opacity:1; fill:none" points="1485.83,1033.71 1466.94,1033.71 "/>
<polyline clip-path="url(#clip520)" style="stroke:#000000; stroke-linecap:round; stroke-linejoin:round; stroke-width:4; stroke-opacity:1; fill:none" points="1485.83,572.331 1466.94,572.331 "/>
<polyline clip-path="url(#clip520)" style="stroke:#000000; stroke-linecap:round; stroke-linejoin:round; stroke-width:4; stroke-opacity:1; fill:none" points="1485.83,110.952 1466.94,110.952 "/>
<path clip-path="url(#clip520)" d="M118.913 1480.89 Q115.302 1480.89 113.473 1484.45 Q111.668 1487.99 111.668 1495.12 Q111.668 1502.23 113.473 1505.79 Q115.302 1509.34 118.913 1509.34 Q122.547 1509.34 124.353 1505.79 Q126.182 1502.23 126.182 1495.12 Q126.182 1487.99 124.353 1484.45 Q122.547 1480.89 118.913 1480.89 M118.913 1477.18 Q124.723 1477.18 127.779 1481.79 Q130.857 1486.37 130.857 1495.12 Q130.857 1503.85 127.779 1508.46 Q124.723 1513.04 118.913 1513.04 Q113.103 1513.04 110.024 1508.46 Q106.969 1503.85 106.969 1495.12 Q106.969 1486.37 110.024 1481.79 Q113.103 1477.18 118.913 1477.18 Z" fill="#000000" fill-rule="nonzero" fill-opacity="1" /><path clip-path="url(#clip520)" d="M49.3995 1047.05 L57.0384 1047.05 L57.0384 1020.69 L48.7282 1022.36 L48.7282 1018.1 L56.9921 1016.43 L61.668 1016.43 L61.668 1047.05 L69.3068 1047.05 L69.3068 1050.99 L49.3995 1050.99 L49.3995 1047.05 Z" fill="#000000" fill-rule="nonzero" fill-opacity="1" /><path clip-path="url(#clip520)" d="M88.7512 1019.51 Q85.1401 1019.51 83.3114 1023.07 Q81.5058 1026.61 81.5058 1033.74 Q81.5058 1040.85 83.3114 1044.42 Q85.1401 1047.96 88.7512 1047.96 Q92.3854 1047.96 94.1909 1044.42 Q96.0196 1040.85 96.0196 1033.74 Q96.0196 1026.61 94.1909 1023.07 Q92.3854 1019.51 88.7512 1019.51 M88.7512 1015.8 Q94.5613 1015.8 97.6169 1020.41 Q100.696 1024.99 100.696 1033.74 Q100.696 1042.47 97.6169 1047.08 Q94.5613 1051.66 88.7512 1051.66 Q82.941 1051.66 79.8623 1047.08 Q76.8068 1042.47 76.8068 1033.74 Q76.8068 1024.99 79.8623 1020.41 Q82.941 1015.8 88.7512 1015.8 Z" fill="#000000" fill-rule="nonzero" fill-opacity="1" /><path clip-path="url(#clip520)" d="M118.913 1019.51 Q115.302 1019.51 113.473 1023.07 Q111.668 1026.61 111.668 1033.74 Q111.668 1040.85 113.473 1044.42 Q115.302 1047.96 118.913 1047.96 Q122.547 1047.96 124.353 1044.42 Q126.182 1040.85 126.182 1033.74 Q126.182 1026.61 124.353 1023.07 Q122.547 1019.51 118.913 1019.51 M118.913 1015.8 Q124.723 1015.8 127.779 1020.41 Q130.857 1024.99 130.857 1033.74 Q130.857 1042.47 127.779 1047.08 Q124.723 1051.66 118.913 1051.66 Q113.103 1051.66 110.024 1047.08 Q106.969 1042.47 106.969 1033.74 Q106.969 1024.99 110.024 1020.41 Q113.103 1015.8 118.913 1015.8 Z" fill="#000000" fill-rule="nonzero" fill-opacity="1" /><path clip-path="url(#clip520)" d="M52.6171 585.675 L68.9365 585.675 L68.9365 589.611 L46.9921 589.611 L46.9921 585.675 Q49.6541 582.921 54.2375 578.291 Q58.8439 573.638 60.0245 572.296 Q62.2698 569.773 63.1494 568.037 Q64.0522 566.277 64.0522 564.588 Q64.0522 561.833 62.1078 560.097 Q60.1865 558.361 57.0847 558.361 Q54.8856 558.361 52.4319 559.125 Q50.0014 559.889 47.2236 561.439 L47.2236 556.717 Q50.0477 555.583 52.5014 555.004 Q54.955 554.426 56.9921 554.426 Q62.3624 554.426 65.5568 557.111 Q68.7513 559.796 68.7513 564.287 Q68.7513 566.416 67.9411 568.338 Q67.1541 570.236 65.0476 572.828 Q64.4689 573.5 61.367 576.717 Q58.2652 579.912 52.6171 585.675 Z" fill="#000000" fill-rule="nonzero" fill-opacity="1" /><path clip-path="url(#clip520)" d="M88.7512 558.129 Q85.1401 558.129 83.3114 561.694 Q81.5058 565.236 81.5058 572.365 Q81.5058 579.472 83.3114 583.037 Q85.1401 586.578 88.7512 586.578 Q92.3854 586.578 94.1909 583.037 Q96.0196 579.472 96.0196 572.365 Q96.0196 565.236 94.1909 561.694 Q92.3854 558.129 88.7512 558.129 M88.7512 554.426 Q94.5613 554.426 97.6169 559.032 Q100.696 563.615 100.696 572.365 Q100.696 581.092 97.6169 585.699 Q94.5613 590.282 88.7512 590.282 Q82.941 590.282 79.8623 585.699 Q76.8068 581.092 76.8068 572.365 Q76.8068 563.615 79.8623 559.032 Q82.941 554.426 88.7512 554.426 Z" fill="#000000" fill-rule="nonzero" fill-opacity="1" /><path clip-path="url(#clip520)" d="M118.913 558.129 Q115.302 558.129 113.473 561.694 Q111.668 565.236 111.668 572.365 Q111.668 579.472 113.473 583.037 Q115.302 586.578 118.913 586.578 Q122.547 586.578 124.353 583.037 Q126.182 579.472 126.182 572.365 Q126.182 565.236 124.353 561.694 Q122.547 558.129 118.913 558.129 M118.913 554.426 Q124.723 554.426 127.779 559.032 Q130.857 563.615 130.857 572.365 Q130.857 581.092 127.779 585.699 Q124.723 590.282 118.913 590.282 Q113.103 590.282 110.024 585.699 Q106.969 581.092 106.969 572.365 Q106.969 563.615 110.024 559.032 Q113.103 554.426 118.913 554.426 Z" fill="#000000" fill-rule="nonzero" fill-opacity="1" /><path clip-path="url(#clip520)" d="M62.7559 109.598 Q66.1124 110.315 67.9874 112.584 Q69.8855 114.852 69.8855 118.186 Q69.8855 123.301 66.367 126.102 Q62.8485 128.903 56.3671 128.903 Q54.1912 128.903 51.8764 128.463 Q49.5847 128.047 47.131 127.19 L47.131 122.676 Q49.0754 123.811 51.3903 124.389 Q53.7051 124.968 56.2282 124.968 Q60.6263 124.968 62.918 123.232 Q65.2328 121.496 65.2328 118.186 Q65.2328 115.13 63.08 113.417 Q60.9504 111.681 57.131 111.681 L53.1032 111.681 L53.1032 107.839 L57.3161 107.839 Q60.7652 107.839 62.5939 106.473 Q64.4226 105.084 64.4226 102.491 Q64.4226 99.8293 62.5245 98.4173 Q60.6495 96.9821 57.131 96.9821 Q55.2097 96.9821 53.0106 97.3987 Q50.8115 97.8154 48.1727 98.695 L48.1727 94.5284 Q50.8347 93.7877 53.1495 93.4173 Q55.4875 93.0469 57.5476 93.0469 Q62.8717 93.0469 65.9735 95.4775 Q69.0753 97.8849 69.0753 102.005 Q69.0753 104.876 67.4318 106.866 Q65.7883 108.834 62.7559 109.598 Z" fill="#000000" fill-rule="nonzero" fill-opacity="1" /><path clip-path="url(#clip520)" d="M88.7512 96.7506 Q85.1401 96.7506 83.3114 100.315 Q81.5058 103.857 81.5058 110.987 Q81.5058 118.093 83.3114 121.658 Q85.1401 125.2 88.7512 125.2 Q92.3854 125.2 94.1909 121.658 Q96.0196 118.093 96.0196 110.987 Q96.0196 103.857 94.1909 100.315 Q92.3854 96.7506 88.7512 96.7506 M88.7512 93.0469 Q94.5613 93.0469 97.6169 97.6534 Q100.696 102.237 100.696 110.987 Q100.696 119.713 97.6169 124.32 Q94.5613 128.903 88.7512 128.903 Q82.941 128.903 79.8623 124.32 Q76.8068 119.713 76.8068 110.987 Q76.8068 102.237 79.8623 97.6534 Q82.941 93.0469 88.7512 93.0469 Z" fill="#000000" fill-rule="nonzero" fill-opacity="1" /><path clip-path="url(#clip520)" d="M118.913 96.7506 Q115.302 96.7506 113.473 100.315 Q111.668 103.857 111.668 110.987 Q111.668 118.093 113.473 121.658 Q115.302 125.2 118.913 125.2 Q122.547 125.2 124.353 121.658 Q126.182 118.093 126.182 110.987 Q126.182 103.857 124.353 100.315 Q122.547 96.7506 118.913 96.7506 M118.913 93.0469 Q124.723 93.0469 127.779 97.6534 Q130.857 102.237 130.857 110.987 Q130.857 119.713 127.779 124.32 Q124.723 128.903 118.913 128.903 Q113.103 128.903 110.024 124.32 Q106.969 119.713 106.969 110.987 Q106.969 102.237 110.024 97.6534 Q113.103 93.0469 118.913 93.0469 Z" fill="#000000" fill-rule="nonzero" fill-opacity="1" /><path clip-path="url(#clip520)" d="M789.974 89.8329 L789.974 27.2059 L797.427 27.2059 L797.427 55.4002 Q797.427 61.274 800.223 64.2716 Q803.018 67.2693 808.486 67.2693 Q814.482 67.2693 817.479 63.8666 Q820.518 60.4638 820.518 53.6583 L820.518 27.2059 L827.971 27.2059 L827.971 62.1247 Q827.971 64.5552 828.66 65.73 Q829.389 66.8642 830.888 66.8642 Q831.252 66.8642 831.901 66.6617 Q832.549 66.4186 833.683 65.9325 L833.683 71.9279 Q832.022 72.8596 830.523 73.3052 Q829.065 73.7508 827.647 73.7508 Q824.852 73.7508 823.191 72.1709 Q821.53 70.5911 820.923 67.3503 Q818.897 70.5505 815.94 72.1709 Q813.023 73.7508 809.053 73.7508 Q804.922 73.7508 802.005 72.1709 Q799.129 70.5911 797.427 67.4314 L797.427 89.8329 L789.974 89.8329 Z" fill="#000000" fill-rule="nonzero" fill-opacity="1" /><path clip-path="url(#clip520)" d="M874.719 22.0612 L860.176 29.92 L874.719 37.8192 L872.369 41.7891 L858.758 33.5658 L858.758 48.8377 L854.14 48.8377 L854.14 33.5658 L840.529 41.7891 L838.179 37.8192 L852.722 29.92 L838.179 22.0612 L840.529 18.0508 L854.14 26.2742 L854.14 11.0023 L858.758 11.0023 L858.758 26.2742 L872.369 18.0508 L874.719 22.0612 Z" fill="#000000" fill-rule="nonzero" fill-opacity="1" /><path clip-path="url(#clip522)" d="M223.854 1093.6 L223.854 1495.09 L490.736 1495.09 L490.736 1093.6 L223.854 1093.6 L223.854 1093.6  Z" fill="#009af9" fill-rule="evenodd" fill-opacity="1"/>
<polyline clip-path="url(#clip522)" style="stroke:#000000; stroke-linecap:round; stroke-linejoin:round; stroke-width:12; stroke-opacity:1; fill:none" points="223.854,1093.6 223.854,1495.09 490.736,1495.09 490.736,1093.6 223.854,1093.6 "/>
<circle clip-path="url(#clip522)" style="fill:#009af9; stroke:none; fill-opacity:0" cx="357.295" cy="1093.6" r="2"/>
<path clip-path="url(#clip522)" d="M698.905 631.236 L698.905 1495.09 L965.788 1495.09 L965.788 631.236 L698.905 631.236 L698.905 631.236  Z" fill="#e26f46" fill-rule="evenodd" fill-opacity="1"/>
<polyline clip-path="url(#clip522)" style="stroke:#000000; stroke-linecap:round; stroke-linejoin:round; stroke-width:12; stroke-opacity:1; fill:none" points="698.905,631.236 698.905,1495.09 965.788,1495.09 965.788,631.236 698.905,631.236 "/>
<circle clip-path="url(#clip522)" style="fill:#e26f46; stroke:none; fill-opacity:0" cx="832.346" cy="631.236" r="2"/>
<path clip-path="url(#clip522)" d="M1173.96 108.352 L1173.96 1495.09 L1440.84 1495.09 L1440.84 108.352 L1173.96 108.352 L1173.96 108.352  Z" fill="#3da44d" fill-rule="evenodd" fill-opacity="1"/>
<polyline clip-path="url(#clip522)" style="stroke:#000000; stroke-linecap:round; stroke-linejoin:round; stroke-width:12; stroke-opacity:1; fill:none" points="1173.96,108.352 1173.96,1495.09 1440.84,1495.09 1440.84,108.352 1173.96,108.352 "/>
<circle clip-path="url(#clip522)" style="fill:#3da44d; stroke:none; fill-opacity:0" cx="1307.4" cy="108.352" r="2"/>
<path clip-path="url(#clip520)" d="M222.423 361.937 L379.024 361.937 L379.024 154.577 L222.423 154.577  Z" fill="#ffffff" fill-rule="evenodd" fill-opacity="1"/>
<polyline clip-path="url(#clip520)" style="stroke:#000000; stroke-linecap:round; stroke-linejoin:round; stroke-width:4; stroke-opacity:1; fill:none" points="222.423,361.937 379.024,361.937 379.024,154.577 222.423,154.577 222.423,361.937 "/>
<path clip-path="url(#clip520)" d="M236.945 227.153 L324.077 227.153 L324.077 185.681 L236.945 185.681 L236.945 227.153  Z" fill="#009af9" fill-rule="evenodd" fill-opacity="1"/>
<polyline clip-path="url(#clip520)" style="stroke:#000000; stroke-linecap:round; stroke-linejoin:round; stroke-width:12; stroke-opacity:1; fill:none" points="236.945,227.153 324.077,227.153 324.077,185.681 236.945,185.681 236.945,227.153 "/>
<path clip-path="url(#clip520)" d="M342.882 222.099 L342.882 233.558 L338.599 233.558 L338.599 197.933 Q338.599 187.377 348.46 187.377 Q358.506 187.377 358.506 196.289 Q358.506 202.632 354.525 204.947 Q361.006 207.03 361.006 213.211 Q361.006 224.183 349.849 224.183 Q344.942 224.183 342.882 222.099 M342.882 216.544 Q345.451 220.549 350.011 220.549 Q356.678 220.549 356.678 213.28 Q356.678 206.752 345.937 207.262 L345.937 203.326 Q354.34 203.326 354.34 195.919 Q354.34 190.85 348.923 190.85 Q342.882 190.85 342.882 198.072 L342.882 216.544 Z" fill="#000000" fill-rule="nonzero" fill-opacity="1" /><path clip-path="url(#clip520)" d="M236.945 278.993 L324.077 278.993 L324.077 237.521 L236.945 237.521 L236.945 278.993  Z" fill="#e26f46" fill-rule="evenodd" fill-opacity="1"/>
<polyline clip-path="url(#clip520)" style="stroke:#000000; stroke-linecap:round; stroke-linejoin:round; stroke-width:12; stroke-opacity:1; fill:none" points="236.945,278.993 324.077,278.993 324.077,237.521 236.945,237.521 236.945,278.993 "/>
<path clip-path="url(#clip520)" d="M352.002 262.504 Q346.84 262.504 344.849 263.685 Q342.858 264.865 342.858 267.713 Q342.858 269.981 344.34 271.324 Q345.844 272.643 348.414 272.643 Q351.956 272.643 354.085 270.143 Q356.238 267.62 356.238 263.453 L356.238 262.504 L352.002 262.504 M360.497 260.745 L360.497 275.537 L356.238 275.537 L356.238 271.601 Q354.78 273.963 352.604 275.097 Q350.428 276.208 347.28 276.208 Q343.298 276.208 340.937 273.986 Q338.599 271.74 338.599 267.99 Q338.599 263.615 341.516 261.393 Q344.456 259.171 350.266 259.171 L356.238 259.171 L356.238 258.754 Q356.238 255.815 354.293 254.217 Q352.372 252.597 348.877 252.597 Q346.655 252.597 344.548 253.129 Q342.442 253.662 340.497 254.727 L340.497 250.791 Q342.835 249.889 345.034 249.449 Q347.233 248.986 349.317 248.986 Q354.942 248.986 357.719 251.903 Q360.497 254.819 360.497 260.745 Z" fill="#000000" fill-rule="nonzero" fill-opacity="1" /><path clip-path="url(#clip520)" d="M236.945 330.833 L324.077 330.833 L324.077 289.361 L236.945 289.361 L236.945 330.833  Z" fill="#3da44d" fill-rule="evenodd" fill-opacity="1"/>
<polyline clip-path="url(#clip520)" style="stroke:#000000; stroke-linecap:round; stroke-linejoin:round; stroke-width:12; stroke-opacity:1; fill:none" points="236.945,330.833 324.077,330.833 324.077,289.361 236.945,289.361 236.945,330.833 "/>
<path clip-path="url(#clip520)" d="M346.215 305.525 L351.886 321.543 L359.988 301.451 L364.502 301.451 L354.016 327.377 L354.016 337.238 L349.756 337.238 L349.756 327.377 L342.951 308.025 Q341.932 305.108 339.733 305.108 L338.599 305.108 L338.599 301.451 L340.219 301.451 Q344.78 301.451 346.215 305.525 Z" fill="#000000" fill-rule="nonzero" fill-opacity="1" /><path clip-path="url(#clip520)" d="M1845.78 1495.09 L3152.76 1495.09 L3152.76 108.352 L1845.78 108.352  Z" fill="#ffffff" fill-rule="evenodd" fill-opacity="1"/>
<polyline clip-path="url(#clip521)" style="stroke:#000000; stroke-linecap:round; stroke-linejoin:round; stroke-width:2; stroke-opacity:0.1; fill:none" points="2024.22,1495.09 2024.22,108.352 "/>
<polyline clip-path="url(#clip521)" style="stroke:#000000; stroke-linecap:round; stroke-linejoin:round; stroke-width:2; stroke-opacity:0.1; fill:none" points="2499.27,1495.09 2499.27,108.352 "/>
<polyline clip-path="url(#clip521)" style="stroke:#000000; stroke-linecap:round; stroke-linejoin:round; stroke-width:2; stroke-opacity:0.1; fill:none" points="2974.32,1495.09 2974.32,108.352 "/>
<polyline clip-path="url(#clip521)" style="stroke:#000000; stroke-linecap:round; stroke-linejoin:round; stroke-width:2; stroke-opacity:0.1; fill:none" points="2024.22,1495.09 2024.22,108.352 "/>
<polyline clip-path="url(#clip521)" style="stroke:#000000; stroke-linecap:round; stroke-linejoin:round; stroke-width:2; stroke-opacity:0.1; fill:none" points="2499.27,1495.09 2499.27,108.352 "/>
<polyline clip-path="url(#clip521)" style="stroke:#000000; stroke-linecap:round; stroke-linejoin:round; stroke-width:2; stroke-opacity:0.1; fill:none" points="2974.32,1495.09 2974.32,108.352 "/>
<polyline clip-path="url(#clip521)" style="stroke:#000000; stroke-linecap:round; stroke-linejoin:round; stroke-width:2; stroke-opacity:0.1; fill:none" points="1845.78,1495.09 3152.76,1495.09 "/>
<polyline clip-path="url(#clip521)" style="stroke:#000000; stroke-linecap:round; stroke-linejoin:round; stroke-width:2; stroke-opacity:0.1; fill:none" points="1845.78,1109.1 3152.76,1109.1 "/>
<polyline clip-path="url(#clip521)" style="stroke:#000000; stroke-linecap:round; stroke-linejoin:round; stroke-width:2; stroke-opacity:0.1; fill:none" points="1845.78,723.111 3152.76,723.111 "/>
<polyline clip-path="url(#clip521)" style="stroke:#000000; stroke-linecap:round; stroke-linejoin:round; stroke-width:2; stroke-opacity:0.1; fill:none" points="1845.78,337.123 3152.76,337.123 "/>
<polyline clip-path="url(#clip521)" style="stroke:#000000; stroke-linecap:round; stroke-linejoin:round; stroke-width:2; stroke-opacity:0.1; fill:none" points="1845.78,1495.09 3152.76,1495.09 "/>
<polyline clip-path="url(#clip521)" style="stroke:#000000; stroke-linecap:round; stroke-linejoin:round; stroke-width:2; stroke-opacity:0.1; fill:none" points="1845.78,1109.1 3152.76,1109.1 "/>
<polyline clip-path="url(#clip521)" style="stroke:#000000; stroke-linecap:round; stroke-linejoin:round; stroke-width:2; stroke-opacity:0.1; fill:none" points="1845.78,723.111 3152.76,723.111 "/>
<polyline clip-path="url(#clip521)" style="stroke:#000000; stroke-linecap:round; stroke-linejoin:round; stroke-width:2; stroke-opacity:0.1; fill:none" points="1845.78,337.123 3152.76,337.123 "/>
<polyline clip-path="url(#clip520)" style="stroke:#000000; stroke-linecap:round; stroke-linejoin:round; stroke-width:4; stroke-opacity:1; fill:none" points="1845.78,1495.09 3152.76,1495.09 "/>
<polyline clip-path="url(#clip520)" style="stroke:#000000; stroke-linecap:round; stroke-linejoin:round; stroke-width:4; stroke-opacity:1; fill:none" points="1845.78,108.352 3152.76,108.352 "/>
<polyline clip-path="url(#clip520)" style="stroke:#000000; stroke-linecap:round; stroke-linejoin:round; stroke-width:4; stroke-opacity:1; fill:none" points="2024.22,1495.09 2024.22,1476.19 "/>
<polyline clip-path="url(#clip520)" style="stroke:#000000; stroke-linecap:round; stroke-linejoin:round; stroke-width:4; stroke-opacity:1; fill:none" points="2499.27,1495.09 2499.27,1476.19 "/>
<polyline clip-path="url(#clip520)" style="stroke:#000000; stroke-linecap:round; stroke-linejoin:round; stroke-width:4; stroke-opacity:1; fill:none" points="2974.32,1495.09 2974.32,1476.19 "/>
<polyline clip-path="url(#clip520)" style="stroke:#000000; stroke-linecap:round; stroke-linejoin:round; stroke-width:4; stroke-opacity:1; fill:none" points="2024.22,108.352 2024.22,127.25 "/>
<polyline clip-path="url(#clip520)" style="stroke:#000000; stroke-linecap:round; stroke-linejoin:round; stroke-width:4; stroke-opacity:1; fill:none" points="2499.27,108.352 2499.27,127.25 "/>
<polyline clip-path="url(#clip520)" style="stroke:#000000; stroke-linecap:round; stroke-linejoin:round; stroke-width:4; stroke-opacity:1; fill:none" points="2974.32,108.352 2974.32,127.25 "/>
<path clip-path="url(#clip520)" d="M2017.29 1562.29 L2017.29 1573.75 L2013.01 1573.75 L2013.01 1538.12 Q2013.01 1527.57 2022.87 1527.57 Q2032.92 1527.57 2032.92 1536.48 Q2032.92 1542.82 2028.94 1545.14 Q2035.42 1547.22 2035.42 1553.4 Q2035.42 1564.37 2024.26 1564.37 Q2019.35 1564.37 2017.29 1562.29 M2017.29 1556.74 Q2019.86 1560.74 2024.42 1560.74 Q2031.09 1560.74 2031.09 1553.47 Q2031.09 1546.94 2020.35 1547.45 L2020.35 1543.52 Q2028.75 1543.52 2028.75 1536.11 Q2028.75 1531.04 2023.34 1531.04 Q2017.29 1531.04 2017.29 1538.26 L2017.29 1556.74 Z" fill="#000000" fill-rule="nonzero" fill-opacity="1" /><path clip-path="url(#clip520)" d="M2501.72 1550.86 Q2496.56 1550.86 2494.57 1552.04 Q2492.58 1553.22 2492.58 1556.06 Q2492.58 1558.33 2494.06 1559.67 Q2495.56 1560.99 2498.13 1560.99 Q2501.67 1560.99 2503.8 1558.49 Q2505.96 1555.97 2505.96 1551.8 L2505.96 1550.86 L2501.72 1550.86 M2510.22 1549.1 L2510.22 1563.89 L2505.96 1563.89 L2505.96 1559.95 Q2504.5 1562.31 2502.32 1563.45 Q2500.15 1564.56 2497 1564.56 Q2493.02 1564.56 2490.66 1562.34 Q2488.32 1560.09 2488.32 1556.34 Q2488.32 1551.97 2491.23 1549.74 Q2494.17 1547.52 2499.98 1547.52 L2505.96 1547.52 L2505.96 1547.11 Q2505.96 1544.17 2504.01 1542.57 Q2502.09 1540.95 2498.6 1540.95 Q2496.37 1540.95 2494.27 1541.48 Q2492.16 1542.01 2490.22 1543.08 L2490.22 1539.14 Q2492.55 1538.24 2494.75 1537.8 Q2496.95 1537.34 2499.04 1537.34 Q2504.66 1537.34 2507.44 1540.25 Q2510.22 1543.17 2510.22 1549.1 Z" fill="#000000" fill-rule="nonzero" fill-opacity="1" /><path clip-path="url(#clip520)" d="M2968.98 1542.04 L2974.65 1558.05 L2982.76 1537.96 L2987.27 1537.96 L2976.78 1563.89 L2976.78 1573.75 L2972.52 1573.75 L2972.52 1563.89 L2965.72 1544.54 Q2964.7 1541.62 2962.5 1541.62 L2961.37 1541.62 L2961.37 1537.96 L2962.99 1537.96 Q2967.55 1537.96 2968.98 1542.04 Z" fill="#000000" fill-rule="nonzero" fill-opacity="1" /><polyline clip-path="url(#clip520)" style="stroke:#000000; stroke-linecap:round; stroke-linejoin:round; stroke-width:4; stroke-opacity:1; fill:none" points="1845.78,1495.09 1845.78,108.352 "/>
<polyline clip-path="url(#clip520)" style="stroke:#000000; stroke-linecap:round; stroke-linejoin:round; stroke-width:4; stroke-opacity:1; fill:none" points="3152.76,1495.09 3152.76,108.352 "/>
<polyline clip-path="url(#clip520)" style="stroke:#000000; stroke-linecap:round; stroke-linejoin:round; stroke-width:4; stroke-opacity:1; fill:none" points="1845.78,1495.09 1864.68,1495.09 "/>
<polyline clip-path="url(#clip520)" style="stroke:#000000; stroke-linecap:round; stroke-linejoin:round; stroke-width:4; stroke-opacity:1; fill:none" points="1845.78,1109.1 1864.68,1109.1 "/>
<polyline clip-path="url(#clip520)" style="stroke:#000000; stroke-linecap:round; stroke-linejoin:round; stroke-width:4; stroke-opacity:1; fill:none" points="1845.78,723.111 1864.68,723.111 "/>
<polyline clip-path="url(#clip520)" style="stroke:#000000; stroke-linecap:round; stroke-linejoin:round; stroke-width:4; stroke-opacity:1; fill:none" points="1845.78,337.123 1864.68,337.123 "/>
<polyline clip-path="url(#clip520)" style="stroke:#000000; stroke-linecap:round; stroke-linejoin:round; stroke-width:4; stroke-opacity:1; fill:none" points="3152.76,1495.09 3133.86,1495.09 "/>
<polyline clip-path="url(#clip520)" style="stroke:#000000; stroke-linecap:round; stroke-linejoin:round; stroke-width:4; stroke-opacity:1; fill:none" points="3152.76,1109.1 3133.86,1109.1 "/>
<polyline clip-path="url(#clip520)" style="stroke:#000000; stroke-linecap:round; stroke-linejoin:round; stroke-width:4; stroke-opacity:1; fill:none" points="3152.76,723.111 3133.86,723.111 "/>
<polyline clip-path="url(#clip520)" style="stroke:#000000; stroke-linecap:round; stroke-linejoin:round; stroke-width:4; stroke-opacity:1; fill:none" points="3152.76,337.123 3133.86,337.123 "/>
<path clip-path="url(#clip520)" d="M1785.83 1480.89 Q1782.22 1480.89 1780.39 1484.45 Q1778.59 1487.99 1778.59 1495.12 Q1778.59 1502.23 1780.39 1505.79 Q1782.22 1509.34 1785.83 1509.34 Q1789.47 1509.34 1791.27 1505.79 Q1793.1 1502.23 1793.1 1495.12 Q1793.1 1487.99 1791.27 1484.45 Q1789.47 1480.89 1785.83 1480.89 M1785.83 1477.18 Q1791.64 1477.18 1794.7 1481.79 Q1797.78 1486.37 1797.78 1495.12 Q1797.78 1503.85 1794.7 1508.46 Q1791.64 1513.04 1785.83 1513.04 Q1780.02 1513.04 1776.95 1508.46 Q1773.89 1503.85 1773.89 1495.12 Q1773.89 1486.37 1776.95 1481.79 Q1780.02 1477.18 1785.83 1477.18 Z" fill="#000000" fill-rule="nonzero" fill-opacity="1" /><path clip-path="url(#clip520)" d="M1581.95 1098.27 L1600.31 1098.27 L1600.31 1102.2 L1586.24 1102.2 L1586.24 1110.67 Q1587.25 1110.33 1588.27 1110.17 Q1589.29 1109.98 1590.31 1109.98 Q1596.1 1109.98 1599.48 1113.15 Q1602.86 1116.32 1602.86 1121.74 Q1602.86 1127.32 1599.38 1130.42 Q1595.91 1133.5 1589.59 1133.5 Q1587.42 1133.5 1585.15 1133.13 Q1582.9 1132.76 1580.5 1132.02 L1580.5 1127.32 Q1582.58 1128.45 1584.8 1129.01 Q1587.02 1129.56 1589.5 1129.56 Q1593.5 1129.56 1595.84 1127.46 Q1598.18 1125.35 1598.18 1121.74 Q1598.18 1118.13 1595.84 1116.02 Q1593.5 1113.92 1589.5 1113.92 Q1587.62 1113.92 1585.75 1114.33 Q1583.9 1114.75 1581.95 1115.63 L1581.95 1098.27 Z" fill="#000000" fill-rule="nonzero" fill-opacity="1" /><path clip-path="url(#clip520)" d="M1612.07 1126.95 L1616.95 1126.95 L1616.95 1132.83 L1612.07 1132.83 L1612.07 1126.95 Z" fill="#000000" fill-rule="nonzero" fill-opacity="1" /><path clip-path="url(#clip520)" d="M1637.14 1101.35 Q1633.53 1101.35 1631.7 1104.91 Q1629.89 1108.45 1629.89 1115.58 Q1629.89 1122.69 1631.7 1126.25 Q1633.53 1129.79 1637.14 1129.79 Q1640.77 1129.79 1642.58 1126.25 Q1644.41 1122.69 1644.41 1115.58 Q1644.41 1108.45 1642.58 1104.91 Q1640.77 1101.35 1637.14 1101.35 M1637.14 1097.64 Q1642.95 1097.64 1646 1102.25 Q1649.08 1106.83 1649.08 1115.58 Q1649.08 1124.31 1646 1128.92 Q1642.95 1133.5 1637.14 1133.5 Q1631.33 1133.5 1628.25 1128.92 Q1625.19 1124.31 1625.19 1115.58 Q1625.19 1106.83 1628.25 1102.25 Q1631.33 1097.64 1637.14 1097.64 Z" fill="#000000" fill-rule="nonzero" fill-opacity="1" /><path clip-path="url(#clip520)" d="M1667.3 1101.35 Q1663.69 1101.35 1661.86 1104.91 Q1660.05 1108.45 1660.05 1115.58 Q1660.05 1122.69 1661.86 1126.25 Q1663.69 1129.79 1667.3 1129.79 Q1670.93 1129.79 1672.74 1126.25 Q1674.57 1122.69 1674.57 1115.58 Q1674.57 1108.45 1672.74 1104.91 Q1670.93 1101.35 1667.3 1101.35 M1667.3 1097.64 Q1673.11 1097.64 1676.17 1102.25 Q1679.24 1106.83 1679.24 1115.58 Q1679.24 1124.31 1676.17 1128.92 Q1673.11 1133.5 1667.3 1133.5 Q1661.49 1133.5 1658.41 1128.92 Q1655.36 1124.31 1655.36 1115.58 Q1655.36 1106.83 1658.41 1102.25 Q1661.49 1097.64 1667.3 1097.64 Z" fill="#000000" fill-rule="nonzero" fill-opacity="1" /><path clip-path="url(#clip520)" d="M1715.63 1107.36 L1705.05 1117.99 L1715.63 1128.57 L1712.88 1131.37 L1702.25 1120.74 L1691.63 1131.37 L1688.9 1128.57 L1699.45 1117.99 L1688.9 1107.36 L1691.63 1104.56 L1702.25 1115.19 L1712.88 1104.56 L1715.63 1107.36 Z" fill="#000000" fill-rule="nonzero" fill-opacity="1" /><path clip-path="url(#clip520)" d="M1727.99 1128.89 L1735.63 1128.89 L1735.63 1102.53 L1727.32 1104.19 L1727.32 1099.93 L1735.59 1098.27 L1740.26 1098.27 L1740.26 1128.89 L1747.9 1128.89 L1747.9 1132.83 L1727.99 1132.83 L1727.99 1128.89 Z" fill="#000000" fill-rule="nonzero" fill-opacity="1" /><path clip-path="url(#clip520)" d="M1767.35 1101.35 Q1763.73 1101.35 1761.91 1104.91 Q1760.1 1108.45 1760.1 1115.58 Q1760.1 1122.69 1761.91 1126.25 Q1763.73 1129.79 1767.35 1129.79 Q1770.98 1129.79 1772.79 1126.25 Q1774.61 1122.69 1774.61 1115.58 Q1774.61 1108.45 1772.79 1104.91 Q1770.98 1101.35 1767.35 1101.35 M1767.35 1097.64 Q1773.16 1097.64 1776.21 1102.25 Q1779.29 1106.83 1779.29 1115.58 Q1779.29 1124.31 1776.21 1128.92 Q1773.16 1133.5 1767.35 1133.5 Q1761.54 1133.5 1758.46 1128.92 Q1755.4 1124.31 1755.4 1115.58 Q1755.4 1106.83 1758.46 1102.25 Q1761.54 1097.64 1767.35 1097.64 Z" fill="#000000" fill-rule="nonzero" fill-opacity="1" /><path clip-path="url(#clip520)" d="M1791.99 1090.28 Q1794.71 1090.86 1796.24 1092.7 Q1797.78 1094.55 1797.78 1097.25 Q1797.78 1101.41 1794.92 1103.69 Q1792.06 1105.96 1786.79 1105.96 Q1785.03 1105.96 1783.15 1105.6 Q1781.28 1105.27 1779.29 1104.57 L1779.29 1100.9 Q1780.87 1101.82 1782.75 1102.29 Q1784.63 1102.76 1786.68 1102.76 Q1790.26 1102.76 1792.12 1101.35 Q1794 1099.94 1794 1097.25 Q1794 1094.77 1792.25 1093.38 Q1790.52 1091.97 1787.42 1091.97 L1784.14 1091.97 L1784.14 1088.85 L1787.57 1088.85 Q1790.37 1088.85 1791.85 1087.74 Q1793.34 1086.61 1793.34 1084.5 Q1793.34 1082.34 1791.8 1081.19 Q1790.27 1080.03 1787.42 1080.03 Q1785.85 1080.03 1784.07 1080.36 Q1782.28 1080.7 1780.14 1081.42 L1780.14 1078.03 Q1782.3 1077.43 1784.18 1077.13 Q1786.08 1076.83 1787.75 1076.83 Q1792.08 1076.83 1794.6 1078.8 Q1797.12 1080.76 1797.12 1084.11 Q1797.12 1086.44 1795.78 1088.06 Q1794.45 1089.66 1791.99 1090.28 Z" fill="#000000" fill-rule="nonzero" fill-opacity="1" /><path clip-path="url(#clip520)" d="M1580.74 742.904 L1588.38 742.904 L1588.38 716.538 L1580.07 718.205 L1580.07 713.945 L1588.34 712.279 L1593.01 712.279 L1593.01 742.904 L1600.65 742.904 L1600.65 746.839 L1580.74 746.839 L1580.74 742.904 Z" fill="#000000" fill-rule="nonzero" fill-opacity="1" /><path clip-path="url(#clip520)" d="M1610.09 740.959 L1614.98 740.959 L1614.98 746.839 L1610.09 746.839 L1610.09 740.959 Z" fill="#000000" fill-rule="nonzero" fill-opacity="1" /><path clip-path="url(#clip520)" d="M1635.16 715.357 Q1631.55 715.357 1629.72 718.922 Q1627.92 722.464 1627.92 729.593 Q1627.92 736.7 1629.72 740.265 Q1631.55 743.806 1635.16 743.806 Q1638.8 743.806 1640.6 740.265 Q1642.43 736.7 1642.43 729.593 Q1642.43 722.464 1640.6 718.922 Q1638.8 715.357 1635.16 715.357 M1635.16 711.654 Q1640.97 711.654 1644.03 716.26 Q1647.11 720.843 1647.11 729.593 Q1647.11 738.32 1644.03 742.927 Q1640.97 747.51 1635.16 747.51 Q1629.35 747.51 1626.27 742.927 Q1623.22 738.32 1623.22 729.593 Q1623.22 720.843 1626.27 716.26 Q1629.35 711.654 1635.16 711.654 Z" fill="#000000" fill-rule="nonzero" fill-opacity="1" /><path clip-path="url(#clip520)" d="M1665.33 715.357 Q1661.71 715.357 1659.89 718.922 Q1658.08 722.464 1658.08 729.593 Q1658.08 736.7 1659.89 740.265 Q1661.71 743.806 1665.33 743.806 Q1668.96 743.806 1670.77 740.265 Q1672.59 736.7 1672.59 729.593 Q1672.59 722.464 1670.77 718.922 Q1668.96 715.357 1665.33 715.357 M1665.33 711.654 Q1671.14 711.654 1674.19 716.26 Q1677.27 720.843 1677.27 729.593 Q1677.27 738.32 1674.19 742.927 Q1671.14 747.51 1665.33 747.51 Q1659.52 747.51 1656.44 742.927 Q1653.38 738.32 1653.38 729.593 Q1653.38 720.843 1656.44 716.26 Q1659.52 711.654 1665.33 711.654 Z" fill="#000000" fill-rule="nonzero" fill-opacity="1" /><path clip-path="url(#clip520)" d="M1713.66 721.376 L1703.08 732.001 L1713.66 742.579 L1710.9 745.38 L1700.28 734.755 L1689.65 745.38 L1686.92 742.579 L1697.48 732.001 L1686.92 721.376 L1689.65 718.575 L1700.28 729.2 L1710.9 718.575 L1713.66 721.376 Z" fill="#000000" fill-rule="nonzero" fill-opacity="1" /><path clip-path="url(#clip520)" d="M1726.02 742.904 L1733.66 742.904 L1733.66 716.538 L1725.35 718.205 L1725.35 713.945 L1733.61 712.279 L1738.29 712.279 L1738.29 742.904 L1745.93 742.904 L1745.93 746.839 L1726.02 746.839 L1726.02 742.904 Z" fill="#000000" fill-rule="nonzero" fill-opacity="1" /><path clip-path="url(#clip520)" d="M1765.37 715.357 Q1761.76 715.357 1759.93 718.922 Q1758.13 722.464 1758.13 729.593 Q1758.13 736.7 1759.93 740.265 Q1761.76 743.806 1765.37 743.806 Q1769.01 743.806 1770.81 740.265 Q1772.64 736.7 1772.64 729.593 Q1772.64 722.464 1770.81 718.922 Q1769.01 715.357 1765.37 715.357 M1765.37 711.654 Q1771.18 711.654 1774.24 716.26 Q1777.32 720.843 1777.32 729.593 Q1777.32 738.32 1774.24 742.927 Q1771.18 747.51 1765.37 747.51 Q1759.56 747.51 1756.48 742.927 Q1753.43 738.32 1753.43 729.593 Q1753.43 720.843 1756.48 716.26 Q1759.56 711.654 1765.37 711.654 Z" fill="#000000" fill-rule="nonzero" fill-opacity="1" /><path clip-path="url(#clip520)" d="M1789.99 694.658 L1780.4 709.648 L1789.99 709.648 L1789.99 694.658 M1789 691.348 L1793.77 691.348 L1793.77 709.648 L1797.78 709.648 L1797.78 712.808 L1793.77 712.808 L1793.77 719.428 L1789.99 719.428 L1789.99 712.808 L1777.32 712.808 L1777.32 709.14 L1789 691.348 Z" fill="#000000" fill-rule="nonzero" fill-opacity="1" /><path clip-path="url(#clip520)" d="M1580.74 356.915 L1588.38 356.915 L1588.38 330.55 L1580.07 332.216 L1580.07 327.957 L1588.34 326.29 L1593.01 326.29 L1593.01 356.915 L1600.65 356.915 L1600.65 360.85 L1580.74 360.85 L1580.74 356.915 Z" fill="#000000" fill-rule="nonzero" fill-opacity="1" /><path clip-path="url(#clip520)" d="M1610.09 354.971 L1614.98 354.971 L1614.98 360.85 L1610.09 360.85 L1610.09 354.971 Z" fill="#000000" fill-rule="nonzero" fill-opacity="1" /><path clip-path="url(#clip520)" d="M1625.21 326.29 L1643.57 326.29 L1643.57 330.225 L1629.49 330.225 L1629.49 338.698 Q1630.51 338.35 1631.53 338.188 Q1632.55 338.003 1633.57 338.003 Q1639.35 338.003 1642.73 341.174 Q1646.11 344.346 1646.11 349.762 Q1646.11 355.341 1642.64 358.443 Q1639.17 361.522 1632.85 361.522 Q1630.67 361.522 1628.4 361.151 Q1626.16 360.781 1623.75 360.04 L1623.75 355.341 Q1625.83 356.475 1628.06 357.031 Q1630.28 357.586 1632.76 357.586 Q1636.76 357.586 1639.1 355.48 Q1641.44 353.373 1641.44 349.762 Q1641.44 346.151 1639.1 344.045 Q1636.76 341.938 1632.76 341.938 Q1630.88 341.938 1629.01 342.355 Q1627.15 342.772 1625.21 343.651 L1625.21 326.29 Z" fill="#000000" fill-rule="nonzero" fill-opacity="1" /><path clip-path="url(#clip520)" d="M1665.33 329.369 Q1661.71 329.369 1659.89 332.934 Q1658.08 336.475 1658.08 343.605 Q1658.08 350.711 1659.89 354.276 Q1661.71 357.818 1665.33 357.818 Q1668.96 357.818 1670.77 354.276 Q1672.59 350.711 1672.59 343.605 Q1672.59 336.475 1670.77 332.934 Q1668.96 329.369 1665.33 329.369 M1665.33 325.665 Q1671.14 325.665 1674.19 330.272 Q1677.27 334.855 1677.27 343.605 Q1677.27 352.332 1674.19 356.938 Q1671.14 361.522 1665.33 361.522 Q1659.52 361.522 1656.44 356.938 Q1653.38 352.332 1653.38 343.605 Q1653.38 334.855 1656.44 330.272 Q1659.52 325.665 1665.33 325.665 Z" fill="#000000" fill-rule="nonzero" fill-opacity="1" /><path clip-path="url(#clip520)" d="M1713.66 335.387 L1703.08 346.012 L1713.66 356.591 L1710.9 359.392 L1700.28 348.767 L1689.65 359.392 L1686.92 356.591 L1697.48 346.012 L1686.92 335.387 L1689.65 332.587 L1700.28 343.212 L1710.9 332.587 L1713.66 335.387 Z" fill="#000000" fill-rule="nonzero" fill-opacity="1" /><path clip-path="url(#clip520)" d="M1726.02 356.915 L1733.66 356.915 L1733.66 330.55 L1725.35 332.216 L1725.35 327.957 L1733.61 326.29 L1738.29 326.29 L1738.29 356.915 L1745.93 356.915 L1745.93 360.85 L1726.02 360.85 L1726.02 356.915 Z" fill="#000000" fill-rule="nonzero" fill-opacity="1" /><path clip-path="url(#clip520)" d="M1765.37 329.369 Q1761.76 329.369 1759.93 332.934 Q1758.13 336.475 1758.13 343.605 Q1758.13 350.711 1759.93 354.276 Q1761.76 357.818 1765.37 357.818 Q1769.01 357.818 1770.81 354.276 Q1772.64 350.711 1772.64 343.605 Q1772.64 336.475 1770.81 332.934 Q1769.01 329.369 1765.37 329.369 M1765.37 325.665 Q1771.18 325.665 1774.24 330.272 Q1777.32 334.855 1777.32 343.605 Q1777.32 352.332 1774.24 356.938 Q1771.18 361.522 1765.37 361.522 Q1759.56 361.522 1756.48 356.938 Q1753.43 352.332 1753.43 343.605 Q1753.43 334.855 1756.48 330.272 Q1759.56 325.665 1765.37 325.665 Z" fill="#000000" fill-rule="nonzero" fill-opacity="1" /><path clip-path="url(#clip520)" d="M1789.99 308.67 L1780.4 323.66 L1789.99 323.66 L1789.99 308.67 M1789 305.36 L1793.77 305.36 L1793.77 323.66 L1797.78 323.66 L1797.78 326.82 L1793.77 326.82 L1793.77 333.44 L1789.99 333.44 L1789.99 326.82 L1777.32 326.82 L1777.32 323.152 L1789 305.36 Z" fill="#000000" fill-rule="nonzero" fill-opacity="1" /><path clip-path="url(#clip520)" d="M2482.07 33.1202 Q2475.91 33.1202 2472.59 37.5762 Q2469.11 42.2347 2469.11 49.9314 Q2469.11 58.0738 2472.55 62.7728 Q2476.04 67.4314 2482.07 67.4314 Q2488.03 67.4314 2491.51 62.7323 Q2494.99 58.0333 2494.99 49.9314 Q2494.99 42.5183 2491.51 37.5762 Q2488.31 33.1202 2482.07 33.1202 M2482.07 27.2059 L2506.82 27.2059 L2506.82 34.6595 L2498.48 34.6595 Q2502.89 40.9789 2502.89 49.9314 Q2502.89 61.0714 2497.34 67.3908 Q2491.79 73.7508 2482.07 73.7508 Q2472.31 73.7508 2466.8 67.3908 Q2461.25 61.0714 2461.25 49.9314 Q2461.25 38.7104 2466.8 32.4315 Q2471.38 27.2059 2482.07 27.2059 Z" fill="#000000" fill-rule="nonzero" fill-opacity="1" /><path clip-path="url(#clip520)" d="M2520.11 40.8979 L2537.28 40.8979 L2537.28 45.516 L2513.06 45.516 L2513.06 41.06 Q2514.44 39.8042 2516.99 37.5357 Q2530.92 25.1804 2530.92 21.3726 Q2530.92 18.699 2528.82 17.0786 Q2526.71 15.4177 2523.27 15.4177 Q2521.16 15.4177 2518.69 16.1469 Q2516.22 16.8356 2513.3 18.2534 L2513.3 13.2708 Q2516.42 12.1365 2519.1 11.5694 Q2521.81 11.0023 2524.12 11.0023 Q2529.99 11.0023 2533.52 13.6759 Q2537.04 16.3494 2537.04 20.7244 Q2537.04 26.3552 2523.63 37.8598 Q2521.36 39.8042 2520.11 40.8979 Z" fill="#000000" fill-rule="nonzero" fill-opacity="1" /><path clip-path="url(#clip521)" d="M1890.77 961.867 L1890.77 1495.09 L2157.66 1495.09 L2157.66 961.867 L1890.77 961.867 L1890.77 961.867  Z" fill="#009af9" fill-rule="evenodd" fill-opacity="1"/>
<polyline clip-path="url(#clip521)" style="stroke:#000000; stroke-linecap:round; stroke-linejoin:round; stroke-width:12; stroke-opacity:1; fill:none" points="1890.77,961.867 1890.77,1495.09 2157.66,1495.09 2157.66,961.867 1890.77,961.867 "/>
<circle clip-path="url(#clip521)" style="fill:#009af9; stroke:none; fill-opacity:0" cx="2024.22" cy="961.867" r="2"/>
<path clip-path="url(#clip521)" d="M2365.83 938.069 L2365.83 1495.09 L2632.71 1495.09 L2632.71 938.069 L2365.83 938.069 L2365.83 938.069  Z" fill="#e26f46" fill-rule="evenodd" fill-opacity="1"/>
<polyline clip-path="url(#clip521)" style="stroke:#000000; stroke-linecap:round; stroke-linejoin:round; stroke-width:12; stroke-opacity:1; fill:none" points="2365.83,938.069 2365.83,1495.09 2632.71,1495.09 2632.71,938.069 2365.83,938.069 "/>
<circle clip-path="url(#clip521)" style="fill:#e26f46; stroke:none; fill-opacity:0" cx="2499.27" cy="938.069" r="2"/>
<path clip-path="url(#clip521)" d="M2840.88 108.352 L2840.88 1495.09 L3107.76 1495.09 L3107.76 108.352 L2840.88 108.352 L2840.88 108.352  Z" fill="#3da44d" fill-rule="evenodd" fill-opacity="1"/>
<polyline clip-path="url(#clip521)" style="stroke:#000000; stroke-linecap:round; stroke-linejoin:round; stroke-width:12; stroke-opacity:1; fill:none" points="2840.88,108.352 2840.88,1495.09 3107.76,1495.09 3107.76,108.352 2840.88,108.352 "/>
<circle clip-path="url(#clip521)" style="fill:#3da44d; stroke:none; fill-opacity:0" cx="2974.32" cy="108.352" r="2"/>
<path clip-path="url(#clip520)" d="M1889.34 361.937 L2045.94 361.937 L2045.94 154.577 L1889.34 154.577  Z" fill="#ffffff" fill-rule="evenodd" fill-opacity="1"/>
<polyline clip-path="url(#clip520)" style="stroke:#000000; stroke-linecap:round; stroke-linejoin:round; stroke-width:4; stroke-opacity:1; fill:none" points="1889.34,361.937 2045.94,361.937 2045.94,154.577 1889.34,154.577 1889.34,361.937 "/>
<path clip-path="url(#clip520)" d="M1903.87 227.153 L1991 227.153 L1991 185.681 L1903.87 185.681 L1903.87 227.153  Z" fill="#009af9" fill-rule="evenodd" fill-opacity="1"/>
<polyline clip-path="url(#clip520)" style="stroke:#000000; stroke-linecap:round; stroke-linejoin:round; stroke-width:12; stroke-opacity:1; fill:none" points="1903.87,227.153 1991,227.153 1991,185.681 1903.87,185.681 1903.87,227.153 "/>
<path clip-path="url(#clip520)" d="M2009.8 222.099 L2009.8 233.558 L2005.52 233.558 L2005.52 197.933 Q2005.52 187.377 2015.38 187.377 Q2025.43 187.377 2025.43 196.289 Q2025.43 202.632 2021.45 204.947 Q2027.93 207.03 2027.93 213.211 Q2027.93 224.183 2016.77 224.183 Q2011.86 224.183 2009.8 222.099 M2009.8 216.544 Q2012.37 220.549 2016.93 220.549 Q2023.6 220.549 2023.6 213.28 Q2023.6 206.752 2012.86 207.262 L2012.86 203.326 Q2021.26 203.326 2021.26 195.919 Q2021.26 190.85 2015.84 190.85 Q2009.8 190.85 2009.8 198.072 L2009.8 216.544 Z" fill="#000000" fill-rule="nonzero" fill-opacity="1" /><path clip-path="url(#clip520)" d="M1903.87 278.993 L1991 278.993 L1991 237.521 L1903.87 237.521 L1903.87 278.993  Z" fill="#e26f46" fill-rule="evenodd" fill-opacity="1"/>
<polyline clip-path="url(#clip520)" style="stroke:#000000; stroke-linecap:round; stroke-linejoin:round; stroke-width:12; stroke-opacity:1; fill:none" points="1903.87,278.993 1991,278.993 1991,237.521 1903.87,237.521 1903.87,278.993 "/>
<path clip-path="url(#clip520)" d="M2018.92 262.504 Q2013.76 262.504 2011.77 263.685 Q2009.78 264.865 2009.78 267.713 Q2009.78 269.981 2011.26 271.324 Q2012.77 272.643 2015.33 272.643 Q2018.88 272.643 2021.01 270.143 Q2023.16 267.62 2023.16 263.453 L2023.16 262.504 L2018.92 262.504 M2027.42 260.745 L2027.42 275.537 L2023.16 275.537 L2023.16 271.601 Q2021.7 273.963 2019.52 275.097 Q2017.35 276.208 2014.2 276.208 Q2010.22 276.208 2007.86 273.986 Q2005.52 271.74 2005.52 267.99 Q2005.52 263.615 2008.44 261.393 Q2011.38 259.171 2017.19 259.171 L2023.16 259.171 L2023.16 258.754 Q2023.16 255.815 2021.21 254.217 Q2019.29 252.597 2015.8 252.597 Q2013.58 252.597 2011.47 253.129 Q2009.36 253.662 2007.42 254.727 L2007.42 250.791 Q2009.76 249.889 2011.96 249.449 Q2014.15 248.986 2016.24 248.986 Q2021.86 248.986 2024.64 251.903 Q2027.42 254.819 2027.42 260.745 Z" fill="#000000" fill-rule="nonzero" fill-opacity="1" /><path clip-path="url(#clip520)" d="M1903.87 330.833 L1991 330.833 L1991 289.361 L1903.87 289.361 L1903.87 330.833  Z" fill="#3da44d" fill-rule="evenodd" fill-opacity="1"/>
<polyline clip-path="url(#clip520)" style="stroke:#000000; stroke-linecap:round; stroke-linejoin:round; stroke-width:12; stroke-opacity:1; fill:none" points="1903.87,330.833 1991,330.833 1991,289.361 1903.87,289.361 1903.87,330.833 "/>
<path clip-path="url(#clip520)" d="M2013.14 305.525 L2018.81 321.543 L2026.91 301.451 L2031.42 301.451 L2020.94 327.377 L2020.94 337.238 L2016.68 337.238 L2016.68 327.377 L2009.87 308.025 Q2008.85 305.108 2006.65 305.108 L2005.52 305.108 L2005.52 301.451 L2007.14 301.451 Q2011.7 301.451 2013.14 305.525 Z" fill="#000000" fill-rule="nonzero" fill-opacity="1" /></svg>
