<?xml version="1.0" encoding="utf-8"?>
<svg xmlns="http://www.w3.org/2000/svg" xmlns:xlink="http://www.w3.org/1999/xlink" width="800" height="400" viewBox="0 0 3200 1600">
<defs>
  <clipPath id="clip800">
    <rect x="0" y="0" width="3200" height="1600"/>
  </clipPath>
</defs>
<path clip-path="url(#clip800)" d="M0 1600 L3200 1600 L3200 0 L0 0  Z" fill="#ffffff" fill-rule="evenodd" fill-opacity="1"/>
<defs>
  <clipPath id="clip801">
    <rect x="164" y="47" width="2989" height="1449"/>
  </clipPath>
</defs>
<path clip-path="url(#clip800)" d="M164.598 1495.09 L3152.76 1495.09 L3152.76 47.2441 L164.598 47.2441  Z" fill="#ffffff" fill-rule="evenodd" fill-opacity="1"/>
<polyline clip-path="url(#clip801)" style="stroke:#000000; stroke-linecap:round; stroke-linejoin:round; stroke-width:2; stroke-opacity:0.1; fill:none" points="572.562,1495.09 572.562,47.2441 "/>
<polyline clip-path="url(#clip801)" style="stroke:#000000; stroke-linecap:round; stroke-linejoin:round; stroke-width:2; stroke-opacity:0.1; fill:none" points="1658.68,1495.09 1658.68,47.2441 "/>
<polyline clip-path="url(#clip801)" style="stroke:#000000; stroke-linecap:round; stroke-linejoin:round; stroke-width:2; stroke-opacity:0.1; fill:none" points="2744.79,1495.09 2744.79,47.2441 "/>
<polyline clip-path="url(#clip801)" style="stroke:#000000; stroke-linecap:round; stroke-linejoin:round; stroke-width:2; stroke-opacity:0.1; fill:none" points="572.562,1495.09 572.562,47.2441 "/>
<polyline clip-path="url(#clip801)" style="stroke:#000000; stroke-linecap:round; stroke-linejoin:round; stroke-width:2; stroke-opacity:0.1; fill:none" points="1658.68,1495.09 1658.68,47.2441 "/>
<polyline clip-path="url(#clip801)" style="stroke:#000000; stroke-linecap:round; stroke-linejoin:round; stroke-width:2; stroke-opacity:0.1; fill:none" points="2744.79,1495.09 2744.79,47.2441 "/>
<polyline clip-path="url(#clip801)" style="stroke:#000000; stroke-linecap:round; stroke-linejoin:round; stroke-width:2; stroke-opacity:0.1; fill:none" points="164.598,1245.12 3152.76,1245.12 "/>
<polyline clip-path="url(#clip801)" style="stroke:#000000; stroke-linecap:round; stroke-linejoin:round; stroke-width:2; stroke-opacity:0.1; fill:none" points="164.598,992.634 3152.76,992.634 "/>
<polyline clip-path="url(#clip801)" style="stroke:#000000; stroke-linecap:round; stroke-linejoin:round; stroke-width:2; stroke-opacity:0.1; fill:none" points="164.598,740.144 3152.76,740.144 "/>
<polyline clip-path="url(#clip801)" style="stroke:#000000; stroke-linecap:round; stroke-linejoin:round; stroke-width:2; stroke-opacity:0.1; fill:none" points="164.598,487.655 3152.76,487.655 "/>
<polyline clip-path="url(#clip801)" style="stroke:#000000; stroke-linecap:round; stroke-linejoin:round; stroke-width:2; stroke-opacity:0.1; fill:none" points="164.598,235.165 3152.76,235.165 "/>
<polyline clip-path="url(#clip801)" style="stroke:#000000; stroke-linecap:round; stroke-linejoin:round; stroke-width:2; stroke-opacity:0.1; fill:none" points="164.598,1245.12 3152.76,1245.12 "/>
<polyline clip-path="url(#clip801)" style="stroke:#000000; stroke-linecap:round; stroke-linejoin:round; stroke-width:2; stroke-opacity:0.1; fill:none" points="164.598,992.634 3152.76,992.634 "/>
<polyline clip-path="url(#clip801)" style="stroke:#000000; stroke-linecap:round; stroke-linejoin:round; stroke-width:2; stroke-opacity:0.1; fill:none" points="164.598,740.144 3152.76,740.144 "/>
<polyline clip-path="url(#clip801)" style="stroke:#000000; stroke-linecap:round; stroke-linejoin:round; stroke-width:2; stroke-opacity:0.1; fill:none" points="164.598,487.655 3152.76,487.655 "/>
<polyline clip-path="url(#clip801)" style="stroke:#000000; stroke-linecap:round; stroke-linejoin:round; stroke-width:2; stroke-opacity:0.1; fill:none" points="164.598,235.165 3152.76,235.165 "/>
<polyline clip-path="url(#clip800)" style="stroke:#000000; stroke-linecap:round; stroke-linejoin:round; stroke-width:4; stroke-opacity:1; fill:none" points="164.598,1495.09 3152.76,1495.09 "/>
<polyline clip-path="url(#clip800)" style="stroke:#000000; stroke-linecap:round; stroke-linejoin:round; stroke-width:4; stroke-opacity:1; fill:none" points="164.598,47.2441 3152.76,47.2441 "/>
<polyline clip-path="url(#clip800)" style="stroke:#000000; stroke-linecap:round; stroke-linejoin:round; stroke-width:4; stroke-opacity:1; fill:none" points="572.562,1495.09 572.562,1476.19 "/>
<polyline clip-path="url(#clip800)" style="stroke:#000000; stroke-linecap:round; stroke-linejoin:round; stroke-width:4; stroke-opacity:1; fill:none" points="1658.68,1495.09 1658.68,1476.19 "/>
<polyline clip-path="url(#clip800)" style="stroke:#000000; stroke-linecap:round; stroke-linejoin:round; stroke-width:4; stroke-opacity:1; fill:none" points="2744.79,1495.09 2744.79,1476.19 "/>
<polyline clip-path="url(#clip800)" style="stroke:#000000; stroke-linecap:round; stroke-linejoin:round; stroke-width:4; stroke-opacity:1; fill:none" points="572.562,47.2441 572.562,66.1417 "/>
<polyline clip-path="url(#clip800)" style="stroke:#000000; stroke-linecap:round; stroke-linejoin:round; stroke-width:4; stroke-opacity:1; fill:none" points="1658.68,47.2441 1658.68,66.1417 "/>
<polyline clip-path="url(#clip800)" style="stroke:#000000; stroke-linecap:round; stroke-linejoin:round; stroke-width:4; stroke-opacity:1; fill:none" points="2744.79,47.2441 2744.79,66.1417 "/>
<path clip-path="url(#clip800)" d="M575.016 1550.86 Q569.854 1550.86 567.863 1552.04 Q565.873 1553.22 565.873 1556.06 Q565.873 1558.33 567.354 1559.67 Q568.859 1560.99 571.428 1560.99 Q574.97 1560.99 577.099 1558.49 Q579.252 1555.97 579.252 1551.8 L579.252 1550.86 L575.016 1550.86 M583.511 1549.1 L583.511 1563.89 L579.252 1563.89 L579.252 1559.95 Q577.794 1562.31 575.618 1563.45 Q573.442 1564.56 570.294 1564.56 Q566.312 1564.56 563.951 1562.34 Q561.613 1560.09 561.613 1556.34 Q561.613 1551.97 564.53 1549.74 Q567.47 1547.52 573.28 1547.52 L579.252 1547.52 L579.252 1547.11 Q579.252 1544.17 577.308 1542.57 Q575.386 1540.95 571.891 1540.95 Q569.669 1540.95 567.562 1541.48 Q565.456 1542.01 563.512 1543.08 L563.512 1539.14 Q565.849 1538.24 568.049 1537.8 Q570.248 1537.34 572.331 1537.34 Q577.956 1537.34 580.734 1540.25 Q583.511 1543.17 583.511 1549.1 Z" fill="#000000" fill-rule="nonzero" fill-opacity="1" /><path clip-path="url(#clip800)" d="M1651.76 1562.29 L1651.76 1573.75 L1647.47 1573.75 L1647.47 1538.12 Q1647.47 1527.57 1657.33 1527.57 Q1667.38 1527.57 1667.38 1536.48 Q1667.38 1542.82 1663.4 1545.14 Q1669.88 1547.22 1669.88 1553.4 Q1669.88 1564.37 1658.72 1564.37 Q1653.82 1564.37 1651.76 1562.29 M1651.76 1556.74 Q1654.33 1560.74 1658.89 1560.74 Q1665.55 1560.74 1665.55 1553.47 Q1665.55 1546.94 1654.81 1547.45 L1654.81 1543.52 Q1663.21 1543.52 1663.21 1536.11 Q1663.21 1531.04 1657.8 1531.04 Q1651.76 1531.04 1651.76 1538.26 L1651.76 1556.74 Z" fill="#000000" fill-rule="nonzero" fill-opacity="1" /><path clip-path="url(#clip800)" d="M2739.46 1542.04 L2745.13 1558.05 L2753.23 1537.96 L2757.74 1537.96 L2747.26 1563.89 L2747.26 1573.75 L2743 1573.75 L2743 1563.89 L2736.19 1544.54 Q2735.17 1541.62 2732.97 1541.62 L2731.84 1541.62 L2731.84 1537.96 L2733.46 1537.96 Q2738.02 1537.96 2739.46 1542.04 Z" fill="#000000" fill-rule="nonzero" fill-opacity="1" /><polyline clip-path="url(#clip800)" style="stroke:#000000; stroke-linecap:round; stroke-linejoin:round; stroke-width:4; stroke-opacity:1; fill:none" points="164.598,1495.09 164.598,47.2441 "/>
<polyline clip-path="url(#clip800)" style="stroke:#000000; stroke-linecap:round; stroke-linejoin:round; stroke-width:4; stroke-opacity:1; fill:none" points="3152.76,1495.09 3152.76,47.2441 "/>
<polyline clip-path="url(#clip800)" style="stroke:#000000; stroke-linecap:round; stroke-linejoin:round; stroke-width:4; stroke-opacity:1; fill:none" points="164.598,1245.12 183.496,1245.12 "/>
<polyline clip-path="url(#clip800)" style="stroke:#000000; stroke-linecap:round; stroke-linejoin:round; stroke-width:4; stroke-opacity:1; fill:none" points="164.598,992.634 183.496,992.634 "/>
<polyline clip-path="url(#clip800)" style="stroke:#000000; stroke-linecap:round; stroke-linejoin:round; stroke-width:4; stroke-opacity:1; fill:none" points="164.598,740.144 183.496,740.144 "/>
<polyline clip-path="url(#clip800)" style="stroke:#000000; stroke-linecap:round; stroke-linejoin:round; stroke-width:4; stroke-opacity:1; fill:none" points="164.598,487.655 183.496,487.655 "/>
<polyline clip-path="url(#clip800)" style="stroke:#000000; stroke-linecap:round; stroke-linejoin:round; stroke-width:4; stroke-opacity:1; fill:none" points="164.598,235.165 183.496,235.165 "/>
<polyline clip-path="url(#clip800)" style="stroke:#000000; stroke-linecap:round; stroke-linejoin:round; stroke-width:4; stroke-opacity:1; fill:none" points="3152.76,1245.12 3133.86,1245.12 "/>
<polyline clip-path="url(#clip800)" style="stroke:#000000; stroke-linecap:round; stroke-linejoin:round; stroke-width:4; stroke-opacity:1; fill:none" points="3152.76,992.634 3133.86,992.634 "/>
<polyline clip-path="url(#clip800)" style="stroke:#000000; stroke-linecap:round; stroke-linejoin:round; stroke-width:4; stroke-opacity:1; fill:none" points="3152.76,740.144 3133.86,740.144 "/>
<polyline clip-path="url(#clip800)" style="stroke:#000000; stroke-linecap:round; stroke-linejoin:round; stroke-width:4; stroke-opacity:1; fill:none" points="3152.76,487.655 3133.86,487.655 "/>
<polyline clip-path="url(#clip800)" style="stroke:#000000; stroke-linecap:round; stroke-linejoin:round; stroke-width:4; stroke-opacity:1; fill:none" points="3152.76,235.165 3133.86,235.165 "/>
<path clip-path="url(#clip800)" d="M60.6495 1230.92 Q57.0384 1230.92 55.2097 1234.49 Q53.4041 1238.03 53.4041 1245.16 Q53.4041 1252.26 55.2097 1255.83 Q57.0384 1259.37 60.6495 1259.37 Q64.2837 1259.37 66.0892 1255.83 Q67.9179 1252.26 67.9179 1245.16 Q67.9179 1238.03 66.0892 1234.49 Q64.2837 1230.92 60.6495 1230.92 M60.6495 1227.22 Q66.4596 1227.22 69.5152 1231.82 Q72.5938 1236.41 72.5938 1245.16 Q72.5938 1253.88 69.5152 1258.49 Q66.4596 1263.07 60.6495 1263.07 Q54.8393 1263.07 51.7606 1258.49 Q48.7051 1253.88 48.7051 1245.16 Q48.7051 1236.41 51.7606 1231.82 Q54.8393 1227.22 60.6495 1227.22 Z" fill="#000000" fill-rule="nonzero" fill-opacity="1" /><path clip-path="url(#clip800)" d="M80.8114 1256.52 L85.6956 1256.52 L85.6956 1262.4 L80.8114 1262.4 L80.8114 1256.52 Z" fill="#000000" fill-rule="nonzero" fill-opacity="1" /><path clip-path="url(#clip800)" d="M96.6909 1258.47 L104.33 1258.47 L104.33 1232.1 L96.0196 1233.77 L96.0196 1229.51 L104.283 1227.84 L108.959 1227.84 L108.959 1258.47 L116.598 1258.47 L116.598 1262.4 L96.6909 1262.4 L96.6909 1258.47 Z" fill="#000000" fill-rule="nonzero" fill-opacity="1" /><path clip-path="url(#clip800)" d="M61.0198 978.432 Q57.4087 978.432 55.58 981.997 Q53.7745 985.539 53.7745 992.668 Q53.7745 999.775 55.58 1003.34 Q57.4087 1006.88 61.0198 1006.88 Q64.6541 1006.88 66.4596 1003.34 Q68.2883 999.775 68.2883 992.668 Q68.2883 985.539 66.4596 981.997 Q64.6541 978.432 61.0198 978.432 M61.0198 974.729 Q66.83 974.729 69.8855 979.335 Q72.9642 983.918 72.9642 992.668 Q72.9642 1001.4 69.8855 1006 Q66.83 1010.58 61.0198 1010.58 Q55.2097 1010.58 52.131 1006 Q49.0754 1001.4 49.0754 992.668 Q49.0754 983.918 52.131 979.335 Q55.2097 974.729 61.0198 974.729 Z" fill="#000000" fill-rule="nonzero" fill-opacity="1" /><path clip-path="url(#clip800)" d="M81.1818 1004.03 L86.066 1004.03 L86.066 1009.91 L81.1818 1009.91 L81.1818 1004.03 Z" fill="#000000" fill-rule="nonzero" fill-opacity="1" /><path clip-path="url(#clip800)" d="M100.279 1005.98 L116.598 1005.98 L116.598 1009.91 L94.6539 1009.91 L94.6539 1005.98 Q97.3159 1003.22 101.899 998.594 Q106.506 993.942 107.686 992.599 Q109.932 990.076 110.811 988.34 Q111.714 986.58 111.714 984.891 Q111.714 982.136 109.77 980.4 Q107.848 978.664 104.746 978.664 Q102.547 978.664 100.094 979.428 Q97.6632 980.192 94.8854 981.743 L94.8854 977.02 Q97.7094 975.886 100.163 975.307 Q102.617 974.729 104.654 974.729 Q110.024 974.729 113.219 977.414 Q116.413 980.099 116.413 984.59 Q116.413 986.719 115.603 988.641 Q114.816 990.539 112.709 993.131 Q112.131 993.803 109.029 997.02 Q105.927 1000.21 100.279 1005.98 Z" fill="#000000" fill-rule="nonzero" fill-opacity="1" /><path clip-path="url(#clip800)" d="M60.0708 725.943 Q56.4597 725.943 54.631 729.508 Q52.8254 733.049 52.8254 740.179 Q52.8254 747.285 54.631 750.85 Q56.4597 754.392 60.0708 754.392 Q63.705 754.392 65.5105 750.85 Q67.3392 747.285 67.3392 740.179 Q67.3392 733.049 65.5105 729.508 Q63.705 725.943 60.0708 725.943 M60.0708 722.239 Q65.8809 722.239 68.9365 726.846 Q72.0151 731.429 72.0151 740.179 Q72.0151 748.906 68.9365 753.512 Q65.8809 758.095 60.0708 758.095 Q54.2606 758.095 51.1819 753.512 Q48.1264 748.906 48.1264 740.179 Q48.1264 731.429 51.1819 726.846 Q54.2606 722.239 60.0708 722.239 Z" fill="#000000" fill-rule="nonzero" fill-opacity="1" /><path clip-path="url(#clip800)" d="M80.2327 751.545 L85.1169 751.545 L85.1169 757.424 L80.2327 757.424 L80.2327 751.545 Z" fill="#000000" fill-rule="nonzero" fill-opacity="1" /><path clip-path="url(#clip800)" d="M109.469 738.79 Q112.825 739.508 114.7 741.776 Q116.598 744.045 116.598 747.378 Q116.598 752.494 113.08 755.295 Q109.561 758.095 103.08 758.095 Q100.904 758.095 98.5891 757.656 Q96.2974 757.239 93.8437 756.382 L93.8437 751.869 Q95.7882 753.003 98.103 753.582 Q100.418 754.16 102.941 754.16 Q107.339 754.16 109.631 752.424 Q111.945 750.688 111.945 747.378 Q111.945 744.322 109.793 742.609 Q107.663 740.873 103.844 740.873 L99.8159 740.873 L99.8159 737.031 L104.029 737.031 Q107.478 737.031 109.307 735.665 Q111.135 734.276 111.135 731.684 Q111.135 729.022 109.237 727.609 Q107.362 726.174 103.844 726.174 Q101.922 726.174 99.7233 726.591 Q97.5243 727.008 94.8854 727.887 L94.8854 723.721 Q97.5474 722.98 99.8622 722.61 Q102.2 722.239 104.26 722.239 Q109.584 722.239 112.686 724.67 Q115.788 727.077 115.788 731.197 Q115.788 734.068 114.145 736.059 Q112.501 738.026 109.469 738.79 Z" fill="#000000" fill-rule="nonzero" fill-opacity="1" /><path clip-path="url(#clip800)" d="M58.9365 473.453 Q55.3254 473.453 53.4967 477.018 Q51.6912 480.56 51.6912 487.689 Q51.6912 494.796 53.4967 498.361 Q55.3254 501.902 58.9365 501.902 Q62.5707 501.902 64.3763 498.361 Q66.205 494.796 66.205 487.689 Q66.205 480.56 64.3763 477.018 Q62.5707 473.453 58.9365 473.453 M58.9365 469.75 Q64.7467 469.75 67.8022 474.356 Q70.8809 478.939 70.8809 487.689 Q70.8809 496.416 67.8022 501.023 Q64.7467 505.606 58.9365 505.606 Q53.1264 505.606 50.0477 501.023 Q46.9921 496.416 46.9921 487.689 Q46.9921 478.939 50.0477 474.356 Q53.1264 469.75 58.9365 469.75 Z" fill="#000000" fill-rule="nonzero" fill-opacity="1" /><path clip-path="url(#clip800)" d="M79.0984 499.055 L83.9827 499.055 L83.9827 504.935 L79.0984 504.935 L79.0984 499.055 Z" fill="#000000" fill-rule="nonzero" fill-opacity="1" /><path clip-path="url(#clip800)" d="M107.015 474.449 L95.2095 492.898 L107.015 492.898 L107.015 474.449 M105.788 470.375 L111.668 470.375 L111.668 492.898 L116.598 492.898 L116.598 496.787 L111.668 496.787 L111.668 504.935 L107.015 504.935 L107.015 496.787 L91.4132 496.787 L91.4132 492.273 L105.788 470.375 Z" fill="#000000" fill-rule="nonzero" fill-opacity="1" /><path clip-path="url(#clip800)" d="M60.418 220.964 Q56.8069 220.964 54.9782 224.529 Q53.1726 228.07 53.1726 235.2 Q53.1726 242.306 54.9782 245.871 Q56.8069 249.413 60.418 249.413 Q64.0522 249.413 65.8578 245.871 Q67.6865 242.306 67.6865 235.2 Q67.6865 228.07 65.8578 224.529 Q64.0522 220.964 60.418 220.964 M60.418 217.26 Q66.2281 217.26 69.2837 221.867 Q72.3624 226.45 72.3624 235.2 Q72.3624 243.927 69.2837 248.533 Q66.2281 253.116 60.418 253.116 Q54.6078 253.116 51.5291 248.533 Q48.4736 243.927 48.4736 235.2 Q48.4736 226.45 51.5291 221.867 Q54.6078 217.26 60.418 217.26 Z" fill="#000000" fill-rule="nonzero" fill-opacity="1" /><path clip-path="url(#clip800)" d="M80.5799 246.565 L85.4641 246.565 L85.4641 252.445 L80.5799 252.445 L80.5799 246.565 Z" fill="#000000" fill-rule="nonzero" fill-opacity="1" /><path clip-path="url(#clip800)" d="M95.6956 217.885 L114.052 217.885 L114.052 221.82 L99.978 221.82 L99.978 230.292 Q100.996 229.945 102.015 229.783 Q103.033 229.598 104.052 229.598 Q109.839 229.598 113.219 232.769 Q116.598 235.941 116.598 241.357 Q116.598 246.936 113.126 250.038 Q109.654 253.116 103.334 253.116 Q101.159 253.116 98.89 252.746 Q96.6446 252.376 94.2372 251.635 L94.2372 246.936 Q96.3206 248.07 98.5428 248.626 Q100.765 249.181 103.242 249.181 Q107.246 249.181 109.584 247.075 Q111.922 244.968 111.922 241.357 Q111.922 237.746 109.584 235.64 Q107.246 233.533 103.242 233.533 Q101.367 233.533 99.4918 233.95 Q97.64 234.366 95.6956 235.246 L95.6956 217.885 Z" fill="#000000" fill-rule="nonzero" fill-opacity="1" /><path clip-path="url(#clip801)" d="M267.474 340.704 L267.474 1495.09 L877.651 1495.09 L877.651 340.704 L267.474 340.704 L267.474 340.704  Z" fill="#009af9" fill-rule="evenodd" fill-opacity="1"/>
<polyline clip-path="url(#clip801)" style="stroke:#000000; stroke-linecap:round; stroke-linejoin:round; stroke-width:12; stroke-opacity:1; fill:none" points="267.474,340.704 267.474,1495.09 877.651,1495.09 877.651,340.704 267.474,340.704 "/>
<circle clip-path="url(#clip801)" style="fill:#009af9; stroke:none; fill-opacity:0" cx="572.562" cy="340.704" r="2"/>
<path clip-path="url(#clip801)" d="M1353.59 1465.29 L1353.59 1495.09 L1963.77 1495.09 L1963.77 1465.29 L1353.59 1465.29 L1353.59 1465.29  Z" fill="#e26f46" fill-rule="evenodd" fill-opacity="1"/>
<polyline clip-path="url(#clip801)" style="stroke:#000000; stroke-linecap:round; stroke-linejoin:round; stroke-width:12; stroke-opacity:1; fill:none" points="1353.59,1465.29 1353.59,1495.09 1963.77,1495.09 1963.77,1465.29 1353.59,1465.29 "/>
<circle clip-path="url(#clip801)" style="fill:#e26f46; stroke:none; fill-opacity:0" cx="1658.68" cy="1465.29" r="2"/>
<path clip-path="url(#clip801)" d="M2439.7 47.2441 L2439.7 1495.09 L3049.88 1495.09 L3049.88 47.2441 L2439.7 47.2441 L2439.7 47.2441  Z" fill="#3da44d" fill-rule="evenodd" fill-opacity="1"/>
<polyline clip-path="url(#clip801)" style="stroke:#000000; stroke-linecap:round; stroke-linejoin:round; stroke-width:12; stroke-opacity:1; fill:none" points="2439.7,47.2441 2439.7,1495.09 3049.88,1495.09 3049.88,47.2441 2439.7,47.2441 "/>
<circle clip-path="url(#clip801)" style="fill:#3da44d; stroke:none; fill-opacity:0" cx="2744.79" cy="47.2441" r="2"/>
<path clip-path="url(#clip800)" d="M264.203 302.866 L588.922 302.866 L588.922 95.5056 L264.203 95.5056  Z" fill="#ffffff" fill-rule="evenodd" fill-opacity="1"/>
<polyline clip-path="url(#clip800)" style="stroke:#000000; stroke-linecap:round; stroke-linejoin:round; stroke-width:4; stroke-opacity:1; fill:none" points="264.203,302.866 588.922,302.866 588.922,95.5056 264.203,95.5056 264.203,302.866 "/>
<path clip-path="url(#clip800)" d="M297.405 168.082 L496.616 168.082 L496.616 126.61 L297.405 126.61 L297.405 168.082  Z" fill="#009af9" fill-rule="evenodd" fill-opacity="1"/>
<polyline clip-path="url(#clip800)" style="stroke:#000000; stroke-linecap:round; stroke-linejoin:round; stroke-width:12; stroke-opacity:1; fill:none" points="297.405,168.082 496.616,168.082 496.616,126.61 297.405,126.61 297.405,168.082 "/>
<path clip-path="url(#clip800)" d="M543.22 151.593 Q538.058 151.593 536.067 152.774 Q534.077 153.954 534.077 156.802 Q534.077 159.07 535.558 160.413 Q537.063 161.732 539.632 161.732 Q543.174 161.732 545.304 159.232 Q547.456 156.709 547.456 152.542 L547.456 151.593 L543.22 151.593 M551.716 149.834 L551.716 164.626 L547.456 164.626 L547.456 160.69 Q545.998 163.051 543.822 164.186 Q541.646 165.297 538.498 165.297 Q534.517 165.297 532.155 163.075 Q529.818 160.829 529.818 157.079 Q529.818 152.704 532.734 150.482 Q535.674 148.26 541.484 148.26 L547.456 148.26 L547.456 147.843 Q547.456 144.903 545.512 143.306 Q543.591 141.686 540.095 141.686 Q537.873 141.686 535.767 142.218 Q533.66 142.751 531.716 143.815 L531.716 139.88 Q534.054 138.978 536.253 138.538 Q538.452 138.075 540.535 138.075 Q546.16 138.075 548.938 140.991 Q551.716 143.908 551.716 149.834 Z" fill="#000000" fill-rule="nonzero" fill-opacity="1" /><path clip-path="url(#clip800)" d="M297.405 219.922 L496.616 219.922 L496.616 178.45 L297.405 178.45 L297.405 219.922  Z" fill="#e26f46" fill-rule="evenodd" fill-opacity="1"/>
<polyline clip-path="url(#clip800)" style="stroke:#000000; stroke-linecap:round; stroke-linejoin:round; stroke-width:12; stroke-opacity:1; fill:none" points="297.405,219.922 496.616,219.922 496.616,178.45 297.405,178.45 297.405,219.922 "/>
<path clip-path="url(#clip800)" d="M534.1 214.868 L534.1 226.327 L529.818 226.327 L529.818 190.702 Q529.818 180.146 539.679 180.146 Q549.725 180.146 549.725 189.058 Q549.725 195.401 545.743 197.716 Q552.225 199.799 552.225 205.979 Q552.225 216.952 541.067 216.952 Q536.16 216.952 534.1 214.868 M534.1 209.313 Q536.669 213.317 541.229 213.317 Q547.896 213.317 547.896 206.049 Q547.896 199.521 537.155 200.03 L537.155 196.095 Q545.558 196.095 545.558 188.688 Q545.558 183.619 540.142 183.619 Q534.1 183.619 534.1 190.841 L534.1 209.313 Z" fill="#000000" fill-rule="nonzero" fill-opacity="1" /><path clip-path="url(#clip800)" d="M297.405 271.762 L496.616 271.762 L496.616 230.29 L297.405 230.29 L297.405 271.762  Z" fill="#3da44d" fill-rule="evenodd" fill-opacity="1"/>
<polyline clip-path="url(#clip800)" style="stroke:#000000; stroke-linecap:round; stroke-linejoin:round; stroke-width:12; stroke-opacity:1; fill:none" points="297.405,271.762 496.616,271.762 496.616,230.29 297.405,230.29 297.405,271.762 "/>
<path clip-path="url(#clip800)" d="M537.433 246.454 L543.104 262.472 L551.206 242.38 L555.72 242.38 L545.234 268.306 L545.234 278.167 L540.975 278.167 L540.975 268.306 L534.169 248.954 Q533.151 246.037 530.952 246.037 L529.818 246.037 L529.818 242.38 L531.438 242.38 Q535.998 242.38 537.433 246.454 Z" fill="#000000" fill-rule="nonzero" fill-opacity="1" /></svg>
