<?xml version="1.0" encoding="utf-8"?>
<svg xmlns="http://www.w3.org/2000/svg" xmlns:xlink="http://www.w3.org/1999/xlink" width="600" height="400" viewBox="0 0 2400 1600">
<defs>
  <clipPath id="clip890">
    <rect x="0" y="0" width="2400" height="1600"/>
  </clipPath>
</defs>
<path clip-path="url(#clip890)" d="M0 1600 L2400 1600 L2400 0 L0 0  Z" fill="#ffffff" fill-rule="evenodd" fill-opacity="1"/>
<defs>
  <clipPath id="clip891">
    <rect x="480" y="0" width="1681" height="1600"/>
  </clipPath>
</defs>
<path clip-path="url(#clip890)" d="M263.68 1375.94 L2352.76 1375.94 L2352.76 47.2441 L263.68 47.2441  Z" fill="#ffffff" fill-rule="evenodd" fill-opacity="1"/>
<defs>
  <clipPath id="clip892">
    <rect x="263" y="47" width="2090" height="1330"/>
  </clipPath>
</defs>
<polyline clip-path="url(#clip892)" style="stroke:#000000; stroke-linecap:round; stroke-linejoin:round; stroke-width:2; stroke-opacity:0.1; fill:none" points="378.583,1375.94 378.583,47.2441 "/>
<polyline clip-path="url(#clip892)" style="stroke:#000000; stroke-linecap:round; stroke-linejoin:round; stroke-width:2; stroke-opacity:0.1; fill:none" points="791.754,1375.94 791.754,47.2441 "/>
<polyline clip-path="url(#clip892)" style="stroke:#000000; stroke-linecap:round; stroke-linejoin:round; stroke-width:2; stroke-opacity:0.1; fill:none" points="1204.93,1375.94 1204.93,47.2441 "/>
<polyline clip-path="url(#clip892)" style="stroke:#000000; stroke-linecap:round; stroke-linejoin:round; stroke-width:2; stroke-opacity:0.1; fill:none" points="1618.1,1375.94 1618.1,47.2441 "/>
<polyline clip-path="url(#clip892)" style="stroke:#000000; stroke-linecap:round; stroke-linejoin:round; stroke-width:2; stroke-opacity:0.1; fill:none" points="2031.27,1375.94 2031.27,47.2441 "/>
<polyline clip-path="url(#clip892)" style="stroke:#000000; stroke-linecap:round; stroke-linejoin:round; stroke-width:2; stroke-opacity:0.1; fill:none" points="263.68,1375.94 2352.76,1375.94 "/>
<polyline clip-path="url(#clip892)" style="stroke:#000000; stroke-linecap:round; stroke-linejoin:round; stroke-width:2; stroke-opacity:0.1; fill:none" points="263.68,955.464 2352.76,955.464 "/>
<polyline clip-path="url(#clip892)" style="stroke:#000000; stroke-linecap:round; stroke-linejoin:round; stroke-width:2; stroke-opacity:0.1; fill:none" points="263.68,534.992 2352.76,534.992 "/>
<polyline clip-path="url(#clip892)" style="stroke:#000000; stroke-linecap:round; stroke-linejoin:round; stroke-width:2; stroke-opacity:0.1; fill:none" points="263.68,114.52 2352.76,114.52 "/>
<polyline clip-path="url(#clip890)" style="stroke:#000000; stroke-linecap:round; stroke-linejoin:round; stroke-width:4; stroke-opacity:1; fill:none" points="263.68,1375.94 2352.76,1375.94 "/>
<polyline clip-path="url(#clip890)" style="stroke:#000000; stroke-linecap:round; stroke-linejoin:round; stroke-width:4; stroke-opacity:1; fill:none" points="378.583,1375.94 378.583,1357.04 "/>
<polyline clip-path="url(#clip890)" style="stroke:#000000; stroke-linecap:round; stroke-linejoin:round; stroke-width:4; stroke-opacity:1; fill:none" points="791.754,1375.94 791.754,1357.04 "/>
<polyline clip-path="url(#clip890)" style="stroke:#000000; stroke-linecap:round; stroke-linejoin:round; stroke-width:4; stroke-opacity:1; fill:none" points="1204.93,1375.94 1204.93,1357.04 "/>
<polyline clip-path="url(#clip890)" style="stroke:#000000; stroke-linecap:round; stroke-linejoin:round; stroke-width:4; stroke-opacity:1; fill:none" points="1618.1,1375.94 1618.1,1357.04 "/>
<polyline clip-path="url(#clip890)" style="stroke:#000000; stroke-linecap:round; stroke-linejoin:round; stroke-width:4; stroke-opacity:1; fill:none" points="2031.27,1375.94 2031.27,1357.04 "/>
<path clip-path="url(#clip890)" d="M378.583 1406.85 Q374.972 1406.85 373.143 1410.42 Q371.338 1413.96 371.338 1421.09 Q371.338 1428.2 373.143 1431.76 Q374.972 1435.3 378.583 1435.3 Q382.217 1435.3 384.023 1431.76 Q385.851 1428.2 385.851 1421.09 Q385.851 1413.96 384.023 1410.42 Q382.217 1406.85 378.583 1406.85 M378.583 1403.15 Q384.393 1403.15 387.449 1407.76 Q390.527 1412.34 390.527 1421.09 Q390.527 1429.82 387.449 1434.42 Q384.393 1439.01 378.583 1439.01 Q372.773 1439.01 369.694 1434.42 Q366.638 1429.82 366.638 1421.09 Q366.638 1412.34 369.694 1407.76 Q372.773 1403.15 378.583 1403.15 Z" fill="#000000" fill-rule="nonzero" fill-opacity="1" /><path clip-path="url(#clip890)" d="M755.446 1434.4 L771.766 1434.4 L771.766 1438.34 L749.821 1438.34 L749.821 1434.4 Q752.483 1431.65 757.067 1427.02 Q761.673 1422.36 762.854 1421.02 Q765.099 1418.5 765.979 1416.76 Q766.881 1415 766.881 1413.31 Q766.881 1410.56 764.937 1408.82 Q763.016 1407.09 759.914 1407.09 Q757.715 1407.09 755.261 1407.85 Q752.831 1408.61 750.053 1410.16 L750.053 1405.44 Q752.877 1404.31 755.331 1403.73 Q757.784 1403.15 759.821 1403.15 Q765.192 1403.15 768.386 1405.84 Q771.581 1408.52 771.581 1413.01 Q771.581 1415.14 770.77 1417.06 Q769.983 1418.96 767.877 1421.55 Q767.298 1422.22 764.196 1425.44 Q761.094 1428.64 755.446 1434.4 Z" fill="#000000" fill-rule="nonzero" fill-opacity="1" /><path clip-path="url(#clip890)" d="M791.58 1406.85 Q787.969 1406.85 786.141 1410.42 Q784.335 1413.96 784.335 1421.09 Q784.335 1428.2 786.141 1431.76 Q787.969 1435.3 791.58 1435.3 Q795.215 1435.3 797.02 1431.76 Q798.849 1428.2 798.849 1421.09 Q798.849 1413.96 797.02 1410.42 Q795.215 1406.85 791.58 1406.85 M791.58 1403.15 Q797.391 1403.15 800.446 1407.76 Q803.525 1412.34 803.525 1421.09 Q803.525 1429.82 800.446 1434.42 Q797.391 1439.01 791.58 1439.01 Q785.77 1439.01 782.692 1434.42 Q779.636 1429.82 779.636 1421.09 Q779.636 1412.34 782.692 1407.76 Q785.77 1403.15 791.58 1403.15 Z" fill="#000000" fill-rule="nonzero" fill-opacity="1" /><path clip-path="url(#clip890)" d="M821.742 1406.85 Q818.131 1406.85 816.302 1410.42 Q814.497 1413.96 814.497 1421.09 Q814.497 1428.2 816.302 1431.76 Q818.131 1435.3 821.742 1435.3 Q825.377 1435.3 827.182 1431.76 Q829.011 1428.2 829.011 1421.09 Q829.011 1413.96 827.182 1410.42 Q825.377 1406.85 821.742 1406.85 M821.742 1403.15 Q827.552 1403.15 830.608 1407.76 Q833.687 1412.34 833.687 1421.09 Q833.687 1429.82 830.608 1434.42 Q827.552 1439.01 821.742 1439.01 Q815.932 1439.01 812.853 1434.42 Q809.798 1429.82 809.798 1421.09 Q809.798 1412.34 812.853 1407.76 Q815.932 1403.15 821.742 1403.15 Z" fill="#000000" fill-rule="nonzero" fill-opacity="1" /><path clip-path="url(#clip890)" d="M1178.02 1407.85 L1166.21 1426.3 L1178.02 1426.3 L1178.02 1407.85 M1176.79 1403.78 L1182.67 1403.78 L1182.67 1426.3 L1187.6 1426.3 L1187.6 1430.19 L1182.67 1430.19 L1182.67 1438.34 L1178.02 1438.34 L1178.02 1430.19 L1162.41 1430.19 L1162.41 1425.67 L1176.79 1403.78 Z" fill="#000000" fill-rule="nonzero" fill-opacity="1" /><path clip-path="url(#clip890)" d="M1205.33 1406.85 Q1201.72 1406.85 1199.89 1410.42 Q1198.08 1413.96 1198.08 1421.09 Q1198.08 1428.2 1199.89 1431.76 Q1201.72 1435.3 1205.33 1435.3 Q1208.96 1435.3 1210.77 1431.76 Q1212.6 1428.2 1212.6 1421.09 Q1212.6 1413.96 1210.77 1410.42 Q1208.96 1406.85 1205.33 1406.85 M1205.33 1403.15 Q1211.14 1403.15 1214.2 1407.76 Q1217.27 1412.34 1217.27 1421.09 Q1217.27 1429.82 1214.2 1434.42 Q1211.14 1439.01 1205.33 1439.01 Q1199.52 1439.01 1196.44 1434.42 Q1193.39 1429.82 1193.39 1421.09 Q1193.39 1412.34 1196.44 1407.76 Q1199.52 1403.15 1205.33 1403.15 Z" fill="#000000" fill-rule="nonzero" fill-opacity="1" /><path clip-path="url(#clip890)" d="M1235.49 1406.85 Q1231.88 1406.85 1230.05 1410.42 Q1228.25 1413.96 1228.25 1421.09 Q1228.25 1428.2 1230.05 1431.76 Q1231.88 1435.3 1235.49 1435.3 Q1239.13 1435.3 1240.93 1431.76 Q1242.76 1428.2 1242.76 1421.09 Q1242.76 1413.96 1240.93 1410.42 Q1239.13 1406.85 1235.49 1406.85 M1235.49 1403.15 Q1241.3 1403.15 1244.36 1407.76 Q1247.44 1412.34 1247.44 1421.09 Q1247.44 1429.82 1244.36 1434.42 Q1241.3 1439.01 1235.49 1439.01 Q1229.68 1439.01 1226.6 1434.42 Q1223.55 1429.82 1223.55 1421.09 Q1223.55 1412.34 1226.6 1407.76 Q1229.68 1403.15 1235.49 1403.15 Z" fill="#000000" fill-rule="nonzero" fill-opacity="1" /><path clip-path="url(#clip890)" d="M1588.42 1419.19 Q1585.27 1419.19 1583.42 1421.35 Q1581.59 1423.5 1581.59 1427.25 Q1581.59 1430.97 1583.42 1433.15 Q1585.27 1435.3 1588.42 1435.3 Q1591.57 1435.3 1593.4 1433.15 Q1595.25 1430.97 1595.25 1427.25 Q1595.25 1423.5 1593.4 1421.35 Q1591.57 1419.19 1588.42 1419.19 M1597.7 1404.54 L1597.7 1408.8 Q1595.94 1407.97 1594.14 1407.53 Q1592.36 1407.09 1590.6 1407.09 Q1585.97 1407.09 1583.51 1410.21 Q1581.08 1413.34 1580.74 1419.66 Q1582.1 1417.64 1584.16 1416.58 Q1586.22 1415.49 1588.7 1415.49 Q1593.91 1415.49 1596.92 1418.66 Q1599.95 1421.81 1599.95 1427.25 Q1599.95 1432.57 1596.8 1435.79 Q1593.65 1439.01 1588.42 1439.01 Q1582.43 1439.01 1579.25 1434.42 Q1576.08 1429.82 1576.08 1421.09 Q1576.08 1412.9 1579.97 1408.03 Q1583.86 1403.15 1590.41 1403.15 Q1592.17 1403.15 1593.95 1403.5 Q1595.76 1403.85 1597.7 1404.54 Z" fill="#000000" fill-rule="nonzero" fill-opacity="1" /><path clip-path="url(#clip890)" d="M1618 1406.85 Q1614.39 1406.85 1612.56 1410.42 Q1610.76 1413.96 1610.76 1421.09 Q1610.76 1428.2 1612.56 1431.76 Q1614.39 1435.3 1618 1435.3 Q1621.64 1435.3 1623.44 1431.76 Q1625.27 1428.2 1625.27 1421.09 Q1625.27 1413.96 1623.44 1410.42 Q1621.64 1406.85 1618 1406.85 M1618 1403.15 Q1623.81 1403.15 1626.87 1407.76 Q1629.95 1412.34 1629.95 1421.09 Q1629.95 1429.82 1626.87 1434.42 Q1623.81 1439.01 1618 1439.01 Q1612.19 1439.01 1609.11 1434.42 Q1606.06 1429.82 1606.06 1421.09 Q1606.06 1412.34 1609.11 1407.76 Q1612.19 1403.15 1618 1403.15 Z" fill="#000000" fill-rule="nonzero" fill-opacity="1" /><path clip-path="url(#clip890)" d="M1648.17 1406.85 Q1644.55 1406.85 1642.73 1410.42 Q1640.92 1413.96 1640.92 1421.09 Q1640.92 1428.2 1642.73 1431.76 Q1644.55 1435.3 1648.17 1435.3 Q1651.8 1435.3 1653.61 1431.76 Q1655.43 1428.2 1655.43 1421.09 Q1655.43 1413.96 1653.61 1410.42 Q1651.8 1406.85 1648.17 1406.85 M1648.17 1403.15 Q1653.98 1403.15 1657.03 1407.76 Q1660.11 1412.34 1660.11 1421.09 Q1660.11 1429.82 1657.03 1434.42 Q1653.98 1439.01 1648.17 1439.01 Q1642.36 1439.01 1639.28 1434.42 Q1636.22 1429.82 1636.22 1421.09 Q1636.22 1412.34 1639.28 1407.76 Q1642.36 1403.15 1648.17 1403.15 Z" fill="#000000" fill-rule="nonzero" fill-opacity="1" /><path clip-path="url(#clip890)" d="M2001.06 1421.92 Q1997.73 1421.92 1995.8 1423.71 Q1993.91 1425.49 1993.91 1428.61 Q1993.91 1431.74 1995.8 1433.52 Q1997.73 1435.3 2001.06 1435.3 Q2004.39 1435.3 2006.31 1433.52 Q2008.24 1431.72 2008.24 1428.61 Q2008.24 1425.49 2006.31 1423.71 Q2004.42 1421.92 2001.06 1421.92 M1996.38 1419.93 Q1993.37 1419.19 1991.68 1417.13 Q1990.02 1415.07 1990.02 1412.11 Q1990.02 1407.97 1992.96 1405.56 Q1995.92 1403.15 2001.06 1403.15 Q2006.22 1403.15 2009.16 1405.56 Q2012.1 1407.97 2012.1 1412.11 Q2012.1 1415.07 2010.41 1417.13 Q2008.74 1419.19 2005.76 1419.93 Q2009.14 1420.72 2011.01 1423.01 Q2012.91 1425.3 2012.91 1428.61 Q2012.91 1433.64 2009.83 1436.32 Q2006.78 1439.01 2001.06 1439.01 Q1995.34 1439.01 1992.26 1436.32 Q1989.21 1433.64 1989.21 1428.61 Q1989.21 1425.3 1991.11 1423.01 Q1993 1420.72 1996.38 1419.93 M1994.67 1412.55 Q1994.67 1415.23 1996.34 1416.74 Q1998.03 1418.24 2001.06 1418.24 Q2004.07 1418.24 2005.76 1416.74 Q2007.47 1415.23 2007.47 1412.55 Q2007.47 1409.86 2005.76 1408.36 Q2004.07 1406.85 2001.06 1406.85 Q1998.03 1406.85 1996.34 1408.36 Q1994.67 1409.86 1994.67 1412.55 Z" fill="#000000" fill-rule="nonzero" fill-opacity="1" /><path clip-path="url(#clip890)" d="M2031.22 1406.85 Q2027.61 1406.85 2025.78 1410.42 Q2023.98 1413.96 2023.98 1421.09 Q2023.98 1428.2 2025.78 1431.76 Q2027.61 1435.3 2031.22 1435.3 Q2034.86 1435.3 2036.66 1431.76 Q2038.49 1428.2 2038.49 1421.09 Q2038.49 1413.96 2036.66 1410.42 Q2034.86 1406.85 2031.22 1406.85 M2031.22 1403.15 Q2037.03 1403.15 2040.09 1407.76 Q2043.17 1412.34 2043.17 1421.09 Q2043.17 1429.82 2040.09 1434.42 Q2037.03 1439.01 2031.22 1439.01 Q2025.41 1439.01 2022.33 1434.42 Q2019.28 1429.82 2019.28 1421.09 Q2019.28 1412.34 2022.33 1407.76 Q2025.41 1403.15 2031.22 1403.15 Z" fill="#000000" fill-rule="nonzero" fill-opacity="1" /><path clip-path="url(#clip890)" d="M2061.38 1406.85 Q2057.77 1406.85 2055.94 1410.42 Q2054.14 1413.96 2054.14 1421.09 Q2054.14 1428.2 2055.94 1431.76 Q2057.77 1435.3 2061.38 1435.3 Q2065.02 1435.3 2066.82 1431.76 Q2068.65 1428.2 2068.65 1421.09 Q2068.65 1413.96 2066.82 1410.42 Q2065.02 1406.85 2061.38 1406.85 M2061.38 1403.15 Q2067.19 1403.15 2070.25 1407.76 Q2073.33 1412.34 2073.33 1421.09 Q2073.33 1429.82 2070.25 1434.42 Q2067.19 1439.01 2061.38 1439.01 Q2055.57 1439.01 2052.49 1434.42 Q2049.44 1429.82 2049.44 1421.09 Q2049.44 1412.34 2052.49 1407.76 Q2055.57 1403.15 2061.38 1403.15 Z" fill="#000000" fill-rule="nonzero" fill-opacity="1" /><path clip-path="url(#clip890)" d="M1084.81 1479.61 L1076.09 1503.26 L1093.57 1503.26 L1084.81 1479.61 M1081.19 1473.28 L1088.47 1473.28 L1106.58 1520.8 L1099.9 1520.8 L1095.57 1508.61 L1074.15 1508.61 L1069.82 1520.8 L1063.04 1520.8 L1081.19 1473.28 Z" fill="#000000" fill-rule="nonzero" fill-opacity="1" /><path clip-path="url(#clip890)" d="M1137.78 1486.52 L1137.78 1491.99 Q1135.29 1490.63 1132.78 1489.96 Q1130.3 1489.26 1127.75 1489.26 Q1122.05 1489.26 1118.9 1492.89 Q1115.75 1496.48 1115.75 1503.01 Q1115.75 1509.53 1118.9 1513.16 Q1122.05 1516.76 1127.75 1516.76 Q1130.3 1516.76 1132.78 1516.09 Q1135.29 1515.39 1137.78 1514.02 L1137.78 1519.43 Q1135.33 1520.58 1132.68 1521.15 Q1130.07 1521.72 1127.11 1521.72 Q1119.06 1521.72 1114.32 1516.66 Q1109.58 1511.6 1109.58 1503.01 Q1109.58 1494.29 1114.35 1489.29 Q1119.16 1484.29 1127.5 1484.29 Q1130.2 1484.29 1132.78 1484.87 Q1135.36 1485.41 1137.78 1486.52 Z" fill="#000000" fill-rule="nonzero" fill-opacity="1" /><path clip-path="url(#clip890)" d="M1153.75 1475.03 L1153.75 1485.15 L1165.82 1485.15 L1165.82 1489.7 L1153.75 1489.7 L1153.75 1509.06 Q1153.75 1513.42 1154.93 1514.66 Q1156.14 1515.9 1159.8 1515.9 L1165.82 1515.9 L1165.82 1520.8 L1159.8 1520.8 Q1153.02 1520.8 1150.44 1518.29 Q1147.87 1515.74 1147.87 1509.06 L1147.87 1489.7 L1143.57 1489.7 L1143.57 1485.15 L1147.87 1485.15 L1147.87 1475.03 L1153.75 1475.03 Z" fill="#000000" fill-rule="nonzero" fill-opacity="1" /><path clip-path="url(#clip890)" d="M1173.52 1485.15 L1179.38 1485.15 L1179.38 1520.8 L1173.52 1520.8 L1173.52 1485.15 M1173.52 1471.27 L1179.38 1471.27 L1179.38 1478.69 L1173.52 1478.69 L1173.52 1471.27 Z" fill="#000000" fill-rule="nonzero" fill-opacity="1" /><path clip-path="url(#clip890)" d="M1187.43 1485.15 L1193.64 1485.15 L1204.78 1515.07 L1215.92 1485.15 L1222.12 1485.15 L1208.75 1520.8 L1200.8 1520.8 L1187.43 1485.15 Z" fill="#000000" fill-rule="nonzero" fill-opacity="1" /><path clip-path="url(#clip890)" d="M1246.41 1502.88 Q1239.31 1502.88 1236.57 1504.5 Q1233.83 1506.13 1233.83 1510.04 Q1233.83 1513.16 1235.87 1515.01 Q1237.94 1516.82 1241.47 1516.82 Q1246.34 1516.82 1249.27 1513.38 Q1252.23 1509.91 1252.23 1504.19 L1252.23 1502.88 L1246.41 1502.88 M1258.09 1500.46 L1258.09 1520.8 L1252.23 1520.8 L1252.23 1515.39 Q1250.23 1518.64 1247.23 1520.2 Q1244.24 1521.72 1239.91 1521.72 Q1234.44 1521.72 1231.19 1518.67 Q1227.98 1515.58 1227.98 1510.42 Q1227.98 1504.41 1231.99 1501.35 Q1236.03 1498.3 1244.02 1498.3 L1252.23 1498.3 L1252.23 1497.72 Q1252.23 1493.68 1249.56 1491.49 Q1246.92 1489.26 1242.11 1489.26 Q1239.05 1489.26 1236.16 1489.99 Q1233.26 1490.72 1230.59 1492.19 L1230.59 1486.78 Q1233.8 1485.53 1236.83 1484.93 Q1239.85 1484.29 1242.71 1484.29 Q1250.45 1484.29 1254.27 1488.3 Q1258.09 1492.31 1258.09 1500.46 Z" fill="#000000" fill-rule="nonzero" fill-opacity="1" /><path clip-path="url(#clip890)" d="M1275.94 1475.03 L1275.94 1485.15 L1288.01 1485.15 L1288.01 1489.7 L1275.94 1489.7 L1275.94 1509.06 Q1275.94 1513.42 1277.12 1514.66 Q1278.33 1515.9 1281.99 1515.9 L1288.01 1515.9 L1288.01 1520.8 L1281.99 1520.8 Q1275.21 1520.8 1272.63 1518.29 Q1270.06 1515.74 1270.06 1509.06 L1270.06 1489.7 L1265.76 1489.7 L1265.76 1485.15 L1270.06 1485.15 L1270.06 1475.03 L1275.94 1475.03 Z" fill="#000000" fill-rule="nonzero" fill-opacity="1" /><path clip-path="url(#clip890)" d="M1295.71 1485.15 L1301.57 1485.15 L1301.57 1520.8 L1295.71 1520.8 L1295.71 1485.15 M1295.71 1471.27 L1301.57 1471.27 L1301.57 1478.69 L1295.71 1478.69 L1295.71 1471.27 Z" fill="#000000" fill-rule="nonzero" fill-opacity="1" /><path clip-path="url(#clip890)" d="M1327.63 1489.26 Q1322.92 1489.26 1320.19 1492.95 Q1317.45 1496.61 1317.45 1503.01 Q1317.45 1509.41 1320.15 1513.1 Q1322.89 1516.76 1327.63 1516.76 Q1332.31 1516.76 1335.05 1513.07 Q1337.79 1509.37 1337.79 1503.01 Q1337.79 1496.67 1335.05 1492.98 Q1332.31 1489.26 1327.63 1489.26 M1327.63 1484.29 Q1335.27 1484.29 1339.63 1489.26 Q1343.99 1494.22 1343.99 1503.01 Q1343.99 1511.76 1339.63 1516.76 Q1335.27 1521.72 1327.63 1521.72 Q1319.96 1521.72 1315.6 1516.76 Q1311.27 1511.76 1311.27 1503.01 Q1311.27 1494.22 1315.6 1489.26 Q1319.96 1484.29 1327.63 1484.29 Z" fill="#000000" fill-rule="nonzero" fill-opacity="1" /><path clip-path="url(#clip890)" d="M1383.33 1499.28 L1383.33 1520.8 L1377.48 1520.8 L1377.48 1499.47 Q1377.48 1494.41 1375.5 1491.9 Q1373.53 1489.38 1369.58 1489.38 Q1364.84 1489.38 1362.1 1492.41 Q1359.37 1495.43 1359.37 1500.65 L1359.37 1520.8 L1353.48 1520.8 L1353.48 1485.15 L1359.37 1485.15 L1359.37 1490.69 Q1361.47 1487.48 1364.3 1485.88 Q1367.16 1484.29 1370.89 1484.29 Q1377.03 1484.29 1380.18 1488.11 Q1383.33 1491.9 1383.33 1499.28 Z" fill="#000000" fill-rule="nonzero" fill-opacity="1" /><path clip-path="url(#clip890)" d="M1421.53 1475.03 L1421.53 1485.15 L1433.59 1485.15 L1433.59 1489.7 L1421.53 1489.7 L1421.53 1509.06 Q1421.53 1513.42 1422.71 1514.66 Q1423.91 1515.9 1427.57 1515.9 L1433.59 1515.9 L1433.59 1520.8 L1427.57 1520.8 Q1420.8 1520.8 1418.22 1518.29 Q1415.64 1515.74 1415.64 1509.06 L1415.64 1489.7 L1411.34 1489.7 L1411.34 1485.15 L1415.64 1485.15 L1415.64 1475.03 L1421.53 1475.03 Z" fill="#000000" fill-rule="nonzero" fill-opacity="1" /><path clip-path="url(#clip890)" d="M1441.29 1485.15 L1447.15 1485.15 L1447.15 1520.8 L1441.29 1520.8 L1441.29 1485.15 M1441.29 1471.27 L1447.15 1471.27 L1447.15 1478.69 L1441.29 1478.69 L1441.29 1471.27 Z" fill="#000000" fill-rule="nonzero" fill-opacity="1" /><path clip-path="url(#clip890)" d="M1487.16 1491.99 Q1489.35 1488.05 1492.41 1486.17 Q1495.47 1484.29 1499.6 1484.29 Q1505.17 1484.29 1508.2 1488.21 Q1511.22 1492.09 1511.22 1499.28 L1511.22 1520.8 L1505.33 1520.8 L1505.33 1499.47 Q1505.33 1494.35 1503.52 1491.87 Q1501.7 1489.38 1497.98 1489.38 Q1493.43 1489.38 1490.79 1492.41 Q1488.14 1495.43 1488.14 1500.65 L1488.14 1520.8 L1482.26 1520.8 L1482.26 1499.47 Q1482.26 1494.32 1480.44 1491.87 Q1478.63 1489.38 1474.84 1489.38 Q1470.35 1489.38 1467.71 1492.44 Q1465.07 1495.46 1465.07 1500.65 L1465.07 1520.8 L1459.18 1520.8 L1459.18 1485.15 L1465.07 1485.15 L1465.07 1490.69 Q1467.07 1487.41 1469.88 1485.85 Q1472.68 1484.29 1476.53 1484.29 Q1480.41 1484.29 1483.12 1486.27 Q1485.85 1488.24 1487.16 1491.99 Z" fill="#000000" fill-rule="nonzero" fill-opacity="1" /><path clip-path="url(#clip890)" d="M1553.39 1501.51 L1553.39 1504.38 L1526.47 1504.38 Q1526.85 1510.42 1530.09 1513.61 Q1533.37 1516.76 1539.2 1516.76 Q1542.57 1516.76 1545.72 1515.93 Q1548.91 1515.1 1552.02 1513.45 L1552.02 1518.99 Q1548.87 1520.32 1545.56 1521.02 Q1542.25 1521.72 1538.85 1521.72 Q1530.32 1521.72 1525.32 1516.76 Q1520.36 1511.79 1520.36 1503.33 Q1520.36 1494.57 1525.07 1489.45 Q1529.81 1484.29 1537.83 1484.29 Q1545.02 1484.29 1549.19 1488.94 Q1553.39 1493.55 1553.39 1501.51 M1547.54 1499.79 Q1547.47 1494.99 1544.83 1492.12 Q1542.22 1489.26 1537.89 1489.26 Q1532.99 1489.26 1530.03 1492.03 Q1527.1 1494.8 1526.66 1499.82 L1547.54 1499.79 Z" fill="#000000" fill-rule="nonzero" fill-opacity="1" /><polyline clip-path="url(#clip890)" style="stroke:#000000; stroke-linecap:round; stroke-linejoin:round; stroke-width:4; stroke-opacity:1; fill:none" points="263.68,1375.94 263.68,47.2441 "/>
<polyline clip-path="url(#clip890)" style="stroke:#000000; stroke-linecap:round; stroke-linejoin:round; stroke-width:4; stroke-opacity:1; fill:none" points="263.68,1375.94 282.578,1375.94 "/>
<polyline clip-path="url(#clip890)" style="stroke:#000000; stroke-linecap:round; stroke-linejoin:round; stroke-width:4; stroke-opacity:1; fill:none" points="263.68,955.464 282.578,955.464 "/>
<polyline clip-path="url(#clip890)" style="stroke:#000000; stroke-linecap:round; stroke-linejoin:round; stroke-width:4; stroke-opacity:1; fill:none" points="263.68,534.992 282.578,534.992 "/>
<polyline clip-path="url(#clip890)" style="stroke:#000000; stroke-linecap:round; stroke-linejoin:round; stroke-width:4; stroke-opacity:1; fill:none" points="263.68,114.52 282.578,114.52 "/>
<path clip-path="url(#clip890)" d="M110.181 1361.73 Q106.57 1361.73 104.741 1365.3 Q102.935 1368.84 102.935 1375.97 Q102.935 1383.08 104.741 1386.64 Q106.57 1390.18 110.181 1390.18 Q113.815 1390.18 115.62 1386.64 Q117.449 1383.08 117.449 1375.97 Q117.449 1368.84 115.62 1365.3 Q113.815 1361.73 110.181 1361.73 M110.181 1358.03 Q115.991 1358.03 119.046 1362.64 Q122.125 1367.22 122.125 1375.97 Q122.125 1384.7 119.046 1389.3 Q115.991 1393.89 110.181 1393.89 Q104.37 1393.89 101.292 1389.3 Q98.2362 1384.7 98.2362 1375.97 Q98.2362 1367.22 101.292 1362.64 Q104.37 1358.03 110.181 1358.03 Z" fill="#000000" fill-rule="nonzero" fill-opacity="1" /><path clip-path="url(#clip890)" d="M130.343 1387.34 L135.227 1387.34 L135.227 1393.22 L130.343 1393.22 L130.343 1387.34 Z" fill="#000000" fill-rule="nonzero" fill-opacity="1" /><path clip-path="url(#clip890)" d="M155.412 1361.73 Q151.801 1361.73 149.972 1365.3 Q148.167 1368.84 148.167 1375.97 Q148.167 1383.08 149.972 1386.64 Q151.801 1390.18 155.412 1390.18 Q159.046 1390.18 160.852 1386.64 Q162.68 1383.08 162.68 1375.97 Q162.68 1368.84 160.852 1365.3 Q159.046 1361.73 155.412 1361.73 M155.412 1358.03 Q161.222 1358.03 164.278 1362.64 Q167.356 1367.22 167.356 1375.97 Q167.356 1384.7 164.278 1389.3 Q161.222 1393.89 155.412 1393.89 Q149.602 1393.89 146.523 1389.3 Q143.467 1384.7 143.467 1375.97 Q143.467 1367.22 146.523 1362.64 Q149.602 1358.03 155.412 1358.03 Z" fill="#000000" fill-rule="nonzero" fill-opacity="1" /><path clip-path="url(#clip890)" d="M185.574 1361.73 Q181.963 1361.73 180.134 1365.3 Q178.328 1368.84 178.328 1375.97 Q178.328 1383.08 180.134 1386.64 Q181.963 1390.18 185.574 1390.18 Q189.208 1390.18 191.014 1386.64 Q192.842 1383.08 192.842 1375.97 Q192.842 1368.84 191.014 1365.3 Q189.208 1361.73 185.574 1361.73 M185.574 1358.03 Q191.384 1358.03 194.439 1362.64 Q197.518 1367.22 197.518 1375.97 Q197.518 1384.7 194.439 1389.3 Q191.384 1393.89 185.574 1393.89 Q179.764 1393.89 176.685 1389.3 Q173.629 1384.7 173.629 1375.97 Q173.629 1367.22 176.685 1362.64 Q179.764 1358.03 185.574 1358.03 Z" fill="#000000" fill-rule="nonzero" fill-opacity="1" /><path clip-path="url(#clip890)" d="M215.736 1361.73 Q212.124 1361.73 210.296 1365.3 Q208.49 1368.84 208.49 1375.97 Q208.49 1383.08 210.296 1386.64 Q212.124 1390.18 215.736 1390.18 Q219.37 1390.18 221.175 1386.64 Q223.004 1383.08 223.004 1375.97 Q223.004 1368.84 221.175 1365.3 Q219.37 1361.73 215.736 1361.73 M215.736 1358.03 Q221.546 1358.03 224.601 1362.64 Q227.68 1367.22 227.68 1375.97 Q227.68 1384.7 224.601 1389.3 Q221.546 1393.89 215.736 1393.89 Q209.925 1393.89 206.847 1389.3 Q203.791 1384.7 203.791 1375.97 Q203.791 1367.22 206.847 1362.64 Q209.925 1358.03 215.736 1358.03 Z" fill="#000000" fill-rule="nonzero" fill-opacity="1" /><path clip-path="url(#clip890)" d="M111.407 941.262 Q107.796 941.262 105.968 944.827 Q104.162 948.369 104.162 955.498 Q104.162 962.605 105.968 966.17 Q107.796 969.711 111.407 969.711 Q115.042 969.711 116.847 966.17 Q118.676 962.605 118.676 955.498 Q118.676 948.369 116.847 944.827 Q115.042 941.262 111.407 941.262 M111.407 937.559 Q117.218 937.559 120.273 942.165 Q123.352 946.748 123.352 955.498 Q123.352 964.225 120.273 968.832 Q117.218 973.415 111.407 973.415 Q105.597 973.415 102.519 968.832 Q99.4631 964.225 99.4631 955.498 Q99.4631 946.748 102.519 942.165 Q105.597 937.559 111.407 937.559 Z" fill="#000000" fill-rule="nonzero" fill-opacity="1" /><path clip-path="url(#clip890)" d="M131.569 966.864 L136.454 966.864 L136.454 972.744 L131.569 972.744 L131.569 966.864 Z" fill="#000000" fill-rule="nonzero" fill-opacity="1" /><path clip-path="url(#clip890)" d="M156.639 941.262 Q153.028 941.262 151.199 944.827 Q149.393 948.369 149.393 955.498 Q149.393 962.605 151.199 966.17 Q153.028 969.711 156.639 969.711 Q160.273 969.711 162.078 966.17 Q163.907 962.605 163.907 955.498 Q163.907 948.369 162.078 944.827 Q160.273 941.262 156.639 941.262 M156.639 937.559 Q162.449 937.559 165.504 942.165 Q168.583 946.748 168.583 955.498 Q168.583 964.225 165.504 968.832 Q162.449 973.415 156.639 973.415 Q150.829 973.415 147.75 968.832 Q144.694 964.225 144.694 955.498 Q144.694 946.748 147.75 942.165 Q150.829 937.559 156.639 937.559 Z" fill="#000000" fill-rule="nonzero" fill-opacity="1" /><path clip-path="url(#clip890)" d="M186.801 941.262 Q183.189 941.262 181.361 944.827 Q179.555 948.369 179.555 955.498 Q179.555 962.605 181.361 966.17 Q183.189 969.711 186.801 969.711 Q190.435 969.711 192.24 966.17 Q194.069 962.605 194.069 955.498 Q194.069 948.369 192.24 944.827 Q190.435 941.262 186.801 941.262 M186.801 937.559 Q192.611 937.559 195.666 942.165 Q198.745 946.748 198.745 955.498 Q198.745 964.225 195.666 968.832 Q192.611 973.415 186.801 973.415 Q180.99 973.415 177.912 968.832 Q174.856 964.225 174.856 955.498 Q174.856 946.748 177.912 942.165 Q180.99 937.559 186.801 937.559 Z" fill="#000000" fill-rule="nonzero" fill-opacity="1" /><path clip-path="url(#clip890)" d="M207.773 968.809 L215.412 968.809 L215.412 942.443 L207.101 944.11 L207.101 939.85 L215.365 938.184 L220.041 938.184 L220.041 968.809 L227.68 968.809 L227.68 972.744 L207.773 972.744 L207.773 968.809 Z" fill="#000000" fill-rule="nonzero" fill-opacity="1" /><path clip-path="url(#clip890)" d="M111.778 520.79 Q108.167 520.79 106.338 524.355 Q104.532 527.897 104.532 535.026 Q104.532 542.133 106.338 545.698 Q108.167 549.239 111.778 549.239 Q115.412 549.239 117.218 545.698 Q119.046 542.133 119.046 535.026 Q119.046 527.897 117.218 524.355 Q115.412 520.79 111.778 520.79 M111.778 517.087 Q117.588 517.087 120.644 521.693 Q123.722 526.276 123.722 535.026 Q123.722 543.753 120.644 548.36 Q117.588 552.943 111.778 552.943 Q105.968 552.943 102.889 548.36 Q99.8334 543.753 99.8334 535.026 Q99.8334 526.276 102.889 521.693 Q105.968 517.087 111.778 517.087 Z" fill="#000000" fill-rule="nonzero" fill-opacity="1" /><path clip-path="url(#clip890)" d="M131.94 546.392 L136.824 546.392 L136.824 552.272 L131.94 552.272 L131.94 546.392 Z" fill="#000000" fill-rule="nonzero" fill-opacity="1" /><path clip-path="url(#clip890)" d="M157.009 520.79 Q153.398 520.79 151.569 524.355 Q149.764 527.897 149.764 535.026 Q149.764 542.133 151.569 545.698 Q153.398 549.239 157.009 549.239 Q160.643 549.239 162.449 545.698 Q164.278 542.133 164.278 535.026 Q164.278 527.897 162.449 524.355 Q160.643 520.79 157.009 520.79 M157.009 517.087 Q162.819 517.087 165.875 521.693 Q168.953 526.276 168.953 535.026 Q168.953 543.753 165.875 548.36 Q162.819 552.943 157.009 552.943 Q151.199 552.943 148.12 548.36 Q145.065 543.753 145.065 535.026 Q145.065 526.276 148.12 521.693 Q151.199 517.087 157.009 517.087 Z" fill="#000000" fill-rule="nonzero" fill-opacity="1" /><path clip-path="url(#clip890)" d="M187.171 520.79 Q183.56 520.79 181.731 524.355 Q179.926 527.897 179.926 535.026 Q179.926 542.133 181.731 545.698 Q183.56 549.239 187.171 549.239 Q190.805 549.239 192.611 545.698 Q194.439 542.133 194.439 535.026 Q194.439 527.897 192.611 524.355 Q190.805 520.79 187.171 520.79 M187.171 517.087 Q192.981 517.087 196.037 521.693 Q199.115 526.276 199.115 535.026 Q199.115 543.753 196.037 548.36 Q192.981 552.943 187.171 552.943 Q181.361 552.943 178.282 548.36 Q175.227 543.753 175.227 535.026 Q175.227 526.276 178.282 521.693 Q181.361 517.087 187.171 517.087 Z" fill="#000000" fill-rule="nonzero" fill-opacity="1" /><path clip-path="url(#clip890)" d="M211.361 548.336 L227.68 548.336 L227.68 552.272 L205.736 552.272 L205.736 548.336 Q208.398 545.582 212.981 540.952 Q217.587 536.3 218.768 534.957 Q221.013 532.434 221.893 530.698 Q222.796 528.938 222.796 527.249 Q222.796 524.494 220.851 522.758 Q218.93 521.022 215.828 521.022 Q213.629 521.022 211.175 521.786 Q208.745 522.55 205.967 524.101 L205.967 519.378 Q208.791 518.244 211.245 517.665 Q213.699 517.087 215.736 517.087 Q221.106 517.087 224.3 519.772 Q227.495 522.457 227.495 526.948 Q227.495 529.077 226.685 530.999 Q225.898 532.897 223.791 535.489 Q223.212 536.161 220.111 539.378 Q217.009 542.573 211.361 548.336 Z" fill="#000000" fill-rule="nonzero" fill-opacity="1" /><path clip-path="url(#clip890)" d="M110.829 100.318 Q107.218 100.318 105.389 103.883 Q103.583 107.425 103.583 114.554 Q103.583 121.661 105.389 125.226 Q107.218 128.767 110.829 128.767 Q114.463 128.767 116.269 125.226 Q118.097 121.661 118.097 114.554 Q118.097 107.425 116.269 103.883 Q114.463 100.318 110.829 100.318 M110.829 96.6146 Q116.639 96.6146 119.694 101.221 Q122.773 105.804 122.773 114.554 Q122.773 123.281 119.694 127.888 Q116.639 132.471 110.829 132.471 Q105.019 132.471 101.94 127.888 Q98.8844 123.281 98.8844 114.554 Q98.8844 105.804 101.94 101.221 Q105.019 96.6146 110.829 96.6146 Z" fill="#000000" fill-rule="nonzero" fill-opacity="1" /><path clip-path="url(#clip890)" d="M130.991 125.92 L135.875 125.92 L135.875 131.8 L130.991 131.8 L130.991 125.92 Z" fill="#000000" fill-rule="nonzero" fill-opacity="1" /><path clip-path="url(#clip890)" d="M156.06 100.318 Q152.449 100.318 150.62 103.883 Q148.815 107.425 148.815 114.554 Q148.815 121.661 150.62 125.226 Q152.449 128.767 156.06 128.767 Q159.694 128.767 161.5 125.226 Q163.328 121.661 163.328 114.554 Q163.328 107.425 161.5 103.883 Q159.694 100.318 156.06 100.318 M156.06 96.6146 Q161.87 96.6146 164.926 101.221 Q168.004 105.804 168.004 114.554 Q168.004 123.281 164.926 127.888 Q161.87 132.471 156.06 132.471 Q150.25 132.471 147.171 127.888 Q144.116 123.281 144.116 114.554 Q144.116 105.804 147.171 101.221 Q150.25 96.6146 156.06 96.6146 Z" fill="#000000" fill-rule="nonzero" fill-opacity="1" /><path clip-path="url(#clip890)" d="M186.222 100.318 Q182.611 100.318 180.782 103.883 Q178.977 107.425 178.977 114.554 Q178.977 121.661 180.782 125.226 Q182.611 128.767 186.222 128.767 Q189.856 128.767 191.662 125.226 Q193.49 121.661 193.49 114.554 Q193.49 107.425 191.662 103.883 Q189.856 100.318 186.222 100.318 M186.222 96.6146 Q192.032 96.6146 195.088 101.221 Q198.166 105.804 198.166 114.554 Q198.166 123.281 195.088 127.888 Q192.032 132.471 186.222 132.471 Q180.412 132.471 177.333 127.888 Q174.277 123.281 174.277 114.554 Q174.277 105.804 177.333 101.221 Q180.412 96.6146 186.222 96.6146 Z" fill="#000000" fill-rule="nonzero" fill-opacity="1" /><path clip-path="url(#clip890)" d="M220.55 113.165 Q223.907 113.883 225.782 116.152 Q227.68 118.42 227.68 121.753 Q227.68 126.869 224.161 129.67 Q220.643 132.471 214.162 132.471 Q211.986 132.471 209.671 132.031 Q207.379 131.614 204.925 130.758 L204.925 126.244 Q206.87 127.378 209.185 127.957 Q211.5 128.536 214.023 128.536 Q218.421 128.536 220.712 126.8 Q223.027 125.064 223.027 121.753 Q223.027 118.698 220.874 116.985 Q218.745 115.249 214.925 115.249 L210.898 115.249 L210.898 111.406 L215.111 111.406 Q218.56 111.406 220.388 110.04 Q222.217 108.652 222.217 106.059 Q222.217 103.397 220.319 101.985 Q218.444 100.55 214.925 100.55 Q213.004 100.55 210.805 100.966 Q208.606 101.383 205.967 102.263 L205.967 98.0961 Q208.629 97.3554 210.944 96.985 Q213.282 96.6146 215.342 96.6146 Q220.666 96.6146 223.768 99.0452 Q226.87 101.453 226.87 105.573 Q226.87 108.443 225.226 110.434 Q223.583 112.402 220.55 113.165 Z" fill="#000000" fill-rule="nonzero" fill-opacity="1" /><path clip-path="url(#clip892)" d="M378.583 1275.02 L378.583 1375.94 L585.168 1375.94 L585.168 1275.02 L378.583 1275.02 L378.583 1275.02  Z" fill="#009af9" fill-rule="evenodd" fill-opacity="1"/>
<polyline clip-path="url(#clip892)" style="stroke:#000000; stroke-linecap:round; stroke-linejoin:round; stroke-width:8; stroke-opacity:1; fill:none" points="378.583,1275.02 378.583,1375.94 585.168,1375.94 585.168,1275.02 378.583,1275.02 "/>
<path clip-path="url(#clip892)" d="M585.168 47.2441 L585.168 1375.94 L791.754 1375.94 L791.754 47.2441 L585.168 47.2441 L585.168 47.2441  Z" fill="#009af9" fill-rule="evenodd" fill-opacity="1"/>
<polyline clip-path="url(#clip892)" style="stroke:#000000; stroke-linecap:round; stroke-linejoin:round; stroke-width:8; stroke-opacity:1; fill:none" points="585.168,47.2441 585.168,1375.94 791.754,1375.94 791.754,47.2441 585.168,47.2441 "/>
<path clip-path="url(#clip892)" d="M791.754 80.8819 L791.754 1375.94 L998.34 1375.94 L998.34 80.8819 L791.754 80.8819 L791.754 80.8819  Z" fill="#009af9" fill-rule="evenodd" fill-opacity="1"/>
<polyline clip-path="url(#clip892)" style="stroke:#000000; stroke-linecap:round; stroke-linejoin:round; stroke-width:8; stroke-opacity:1; fill:none" points="791.754,80.8819 791.754,1375.94 998.34,1375.94 998.34,80.8819 791.754,80.8819 "/>
<path clip-path="url(#clip892)" d="M998.34 619.086 L998.34 1375.94 L1204.93 1375.94 L1204.93 619.086 L998.34 619.086 L998.34 619.086  Z" fill="#009af9" fill-rule="evenodd" fill-opacity="1"/>
<polyline clip-path="url(#clip892)" style="stroke:#000000; stroke-linecap:round; stroke-linejoin:round; stroke-width:8; stroke-opacity:1; fill:none" points="998.34,619.086 998.34,1375.94 1204.93,1375.94 1204.93,619.086 998.34,619.086 "/>
<path clip-path="url(#clip892)" d="M1204.93 989.101 L1204.93 1375.94 L1411.51 1375.94 L1411.51 989.101 L1204.93 989.101 L1204.93 989.101  Z" fill="#009af9" fill-rule="evenodd" fill-opacity="1"/>
<polyline clip-path="url(#clip892)" style="stroke:#000000; stroke-linecap:round; stroke-linejoin:round; stroke-width:8; stroke-opacity:1; fill:none" points="1204.93,989.101 1204.93,1375.94 1411.51,1375.94 1411.51,989.101 1204.93,989.101 "/>
<path clip-path="url(#clip892)" d="M1411.51 1174.11 L1411.51 1375.94 L1618.1 1375.94 L1618.1 1174.11 L1411.51 1174.11 L1411.51 1174.11  Z" fill="#009af9" fill-rule="evenodd" fill-opacity="1"/>
<polyline clip-path="url(#clip892)" style="stroke:#000000; stroke-linecap:round; stroke-linejoin:round; stroke-width:8; stroke-opacity:1; fill:none" points="1411.51,1174.11 1411.51,1375.94 1618.1,1375.94 1618.1,1174.11 1411.51,1174.11 "/>
<path clip-path="url(#clip892)" d="M1618.1 1308.66 L1618.1 1375.94 L1824.68 1375.94 L1824.68 1308.66 L1618.1 1308.66 L1618.1 1308.66  Z" fill="#009af9" fill-rule="evenodd" fill-opacity="1"/>
<polyline clip-path="url(#clip892)" style="stroke:#000000; stroke-linecap:round; stroke-linejoin:round; stroke-width:8; stroke-opacity:1; fill:none" points="1618.1,1308.66 1618.1,1375.94 1824.68,1375.94 1824.68,1308.66 1618.1,1308.66 "/>
<path clip-path="url(#clip892)" d="M1824.68 1342.3 L1824.68 1375.94 L2031.27 1375.94 L2031.27 1342.3 L1824.68 1342.3 L1824.68 1342.3  Z" fill="#009af9" fill-rule="evenodd" fill-opacity="1"/>
<polyline clip-path="url(#clip892)" style="stroke:#000000; stroke-linecap:round; stroke-linejoin:round; stroke-width:8; stroke-opacity:1; fill:none" points="1824.68,1342.3 1824.68,1375.94 2031.27,1375.94 2031.27,1342.3 1824.68,1342.3 "/>
<path clip-path="url(#clip892)" d="M2031.27 1342.3 L2031.27 1375.94 L2237.85 1375.94 L2237.85 1342.3 L2031.27 1342.3 L2031.27 1342.3  Z" fill="#009af9" fill-rule="evenodd" fill-opacity="1"/>
<polyline clip-path="url(#clip892)" style="stroke:#000000; stroke-linecap:round; stroke-linejoin:round; stroke-width:8; stroke-opacity:1; fill:none" points="2031.27,1342.3 2031.27,1375.94 2237.85,1375.94 2237.85,1342.3 2031.27,1342.3 "/>
<circle clip-path="url(#clip892)" style="fill:#009af9; stroke:none; fill-opacity:0" cx="481.876" cy="1275.02" r="2"/>
<circle clip-path="url(#clip892)" style="fill:#009af9; stroke:none; fill-opacity:0" cx="688.461" cy="47.2441" r="2"/>
<circle clip-path="url(#clip892)" style="fill:#009af9; stroke:none; fill-opacity:0" cx="895.047" cy="80.8819" r="2"/>
<circle clip-path="url(#clip892)" style="fill:#009af9; stroke:none; fill-opacity:0" cx="1101.63" cy="619.086" r="2"/>
<circle clip-path="url(#clip892)" style="fill:#009af9; stroke:none; fill-opacity:0" cx="1308.22" cy="989.101" r="2"/>
<circle clip-path="url(#clip892)" style="fill:#009af9; stroke:none; fill-opacity:0" cx="1514.8" cy="1174.11" r="2"/>
<circle clip-path="url(#clip892)" style="fill:#009af9; stroke:none; fill-opacity:0" cx="1721.39" cy="1308.66" r="2"/>
<circle clip-path="url(#clip892)" style="fill:#009af9; stroke:none; fill-opacity:0" cx="1927.97" cy="1342.3" r="2"/>
<circle clip-path="url(#clip892)" style="fill:#009af9; stroke:none; fill-opacity:0" cx="2134.56" cy="1342.3" r="2"/>
<path clip-path="url(#clip890)" d="M1433.87 195.214 L2283.12 195.214 L2283.12 91.5338 L1433.87 91.5338  Z" fill="#ffffff" fill-rule="evenodd" fill-opacity="1"/>
<polyline clip-path="url(#clip890)" style="stroke:#000000; stroke-linecap:round; stroke-linejoin:round; stroke-width:4; stroke-opacity:1; fill:none" points="1433.87,195.214 2283.12,195.214 2283.12,91.5338 1433.87,91.5338 1433.87,195.214 "/>
<path clip-path="url(#clip890)" d="M1457.08 164.11 L1596.35 164.11 L1596.35 122.638 L1457.08 122.638 L1457.08 164.11  Z" fill="#009af9" fill-rule="evenodd" fill-opacity="1"/>
<polyline clip-path="url(#clip890)" style="stroke:#000000; stroke-linecap:round; stroke-linejoin:round; stroke-width:8; stroke-opacity:1; fill:none" points="1457.08,164.11 1596.35,164.11 1596.35,122.638 1457.08,122.638 1457.08,164.11 "/>
<path clip-path="url(#clip890)" d="M1635.4 130.7 L1629.05 147.899 L1641.76 147.899 L1635.4 130.7 M1632.76 126.094 L1638.06 126.094 L1651.23 160.654 L1646.37 160.654 L1643.22 151.788 L1627.64 151.788 L1624.49 160.654 L1619.56 160.654 L1632.76 126.094 Z" fill="#000000" fill-rule="nonzero" fill-opacity="1" /><path clip-path="url(#clip890)" d="M1673.92 135.723 L1673.92 139.705 Q1672.11 138.709 1670.28 138.223 Q1668.48 137.714 1666.62 137.714 Q1662.48 137.714 1660.19 140.353 Q1657.9 142.969 1657.9 147.714 Q1657.9 152.459 1660.19 155.098 Q1662.48 157.714 1666.62 157.714 Q1668.48 157.714 1670.28 157.228 Q1672.11 156.719 1673.92 155.723 L1673.92 159.658 Q1672.13 160.492 1670.21 160.908 Q1668.31 161.325 1666.16 161.325 Q1660.3 161.325 1656.86 157.645 Q1653.41 153.964 1653.41 147.714 Q1653.41 141.372 1656.88 137.737 Q1660.37 134.103 1666.44 134.103 Q1668.41 134.103 1670.28 134.52 Q1672.16 134.913 1673.92 135.723 Z" fill="#000000" fill-rule="nonzero" fill-opacity="1" /><path clip-path="url(#clip890)" d="M1685.54 127.367 L1685.54 134.728 L1694.31 134.728 L1694.31 138.038 L1685.54 138.038 L1685.54 152.112 Q1685.54 155.283 1686.39 156.186 Q1687.27 157.089 1689.93 157.089 L1694.31 157.089 L1694.31 160.654 L1689.93 160.654 Q1685 160.654 1683.13 158.825 Q1681.25 156.973 1681.25 152.112 L1681.25 138.038 L1678.13 138.038 L1678.13 134.728 L1681.25 134.728 L1681.25 127.367 L1685.54 127.367 Z" fill="#000000" fill-rule="nonzero" fill-opacity="1" /><path clip-path="url(#clip890)" d="M1699.91 134.728 L1704.17 134.728 L1704.17 160.654 L1699.91 160.654 L1699.91 134.728 M1699.91 124.635 L1704.17 124.635 L1704.17 130.029 L1699.91 130.029 L1699.91 124.635 Z" fill="#000000" fill-rule="nonzero" fill-opacity="1" /><path clip-path="url(#clip890)" d="M1710.03 134.728 L1714.54 134.728 L1722.64 156.487 L1730.74 134.728 L1735.26 134.728 L1725.54 160.654 L1719.75 160.654 L1710.03 134.728 Z" fill="#000000" fill-rule="nonzero" fill-opacity="1" /><path clip-path="url(#clip890)" d="M1752.92 147.621 Q1747.76 147.621 1745.77 148.802 Q1743.78 149.983 1743.78 152.83 Q1743.78 155.098 1745.26 156.441 Q1746.76 157.76 1749.33 157.76 Q1752.87 157.76 1755 155.26 Q1757.16 152.737 1757.16 148.571 L1757.16 147.621 L1752.92 147.621 M1761.42 145.862 L1761.42 160.654 L1757.16 160.654 L1757.16 156.719 Q1755.7 159.08 1753.52 160.214 Q1751.35 161.325 1748.2 161.325 Q1744.22 161.325 1741.86 159.103 Q1739.52 156.858 1739.52 153.108 Q1739.52 148.733 1742.43 146.51 Q1745.37 144.288 1751.18 144.288 L1757.16 144.288 L1757.16 143.871 Q1757.16 140.932 1755.21 139.334 Q1753.29 137.714 1749.8 137.714 Q1747.57 137.714 1745.47 138.247 Q1743.36 138.779 1741.42 139.844 L1741.42 135.909 Q1743.75 135.006 1745.95 134.566 Q1748.15 134.103 1750.23 134.103 Q1755.86 134.103 1758.64 137.02 Q1761.42 139.936 1761.42 145.862 Z" fill="#000000" fill-rule="nonzero" fill-opacity="1" /><path clip-path="url(#clip890)" d="M1774.4 127.367 L1774.4 134.728 L1783.17 134.728 L1783.17 138.038 L1774.4 138.038 L1774.4 152.112 Q1774.4 155.283 1775.26 156.186 Q1776.14 157.089 1778.8 157.089 L1783.17 157.089 L1783.17 160.654 L1778.8 160.654 Q1773.87 160.654 1771.99 158.825 Q1770.12 156.973 1770.12 152.112 L1770.12 138.038 L1766.99 138.038 L1766.99 134.728 L1770.12 134.728 L1770.12 127.367 L1774.4 127.367 Z" fill="#000000" fill-rule="nonzero" fill-opacity="1" /><path clip-path="url(#clip890)" d="M1788.78 134.728 L1793.04 134.728 L1793.04 160.654 L1788.78 160.654 L1788.78 134.728 M1788.78 124.635 L1793.04 124.635 L1793.04 130.029 L1788.78 130.029 L1788.78 124.635 Z" fill="#000000" fill-rule="nonzero" fill-opacity="1" /><path clip-path="url(#clip890)" d="M1811.99 137.714 Q1808.57 137.714 1806.58 140.399 Q1804.59 143.061 1804.59 147.714 Q1804.59 152.367 1806.55 155.052 Q1808.54 157.714 1811.99 157.714 Q1815.4 157.714 1817.39 155.029 Q1819.38 152.344 1819.38 147.714 Q1819.38 143.108 1817.39 140.422 Q1815.4 137.714 1811.99 137.714 M1811.99 134.103 Q1817.55 134.103 1820.72 137.714 Q1823.89 141.325 1823.89 147.714 Q1823.89 154.08 1820.72 157.714 Q1817.55 161.325 1811.99 161.325 Q1806.42 161.325 1803.24 157.714 Q1800.1 154.08 1800.1 147.714 Q1800.1 141.325 1803.24 137.714 Q1806.42 134.103 1811.99 134.103 Z" fill="#000000" fill-rule="nonzero" fill-opacity="1" /><path clip-path="url(#clip890)" d="M1852.5 145.006 L1852.5 160.654 L1848.24 160.654 L1848.24 145.145 Q1848.24 141.464 1846.81 139.635 Q1845.37 137.807 1842.5 137.807 Q1839.05 137.807 1837.06 140.006 Q1835.07 142.205 1835.07 146.001 L1835.07 160.654 L1830.79 160.654 L1830.79 134.728 L1835.07 134.728 L1835.07 138.756 Q1836.6 136.418 1838.66 135.26 Q1840.74 134.103 1843.45 134.103 Q1847.92 134.103 1850.21 136.881 Q1852.5 139.635 1852.5 145.006 Z" fill="#000000" fill-rule="nonzero" fill-opacity="1" /><path clip-path="url(#clip890)" d="M1880.28 127.367 L1880.28 134.728 L1889.05 134.728 L1889.05 138.038 L1880.28 138.038 L1880.28 152.112 Q1880.28 155.283 1881.14 156.186 Q1882.02 157.089 1884.68 157.089 L1889.05 157.089 L1889.05 160.654 L1884.68 160.654 Q1879.75 160.654 1877.87 158.825 Q1876 156.973 1876 152.112 L1876 138.038 L1872.87 138.038 L1872.87 134.728 L1876 134.728 L1876 127.367 L1880.28 127.367 Z" fill="#000000" fill-rule="nonzero" fill-opacity="1" /><path clip-path="url(#clip890)" d="M1894.66 134.728 L1898.91 134.728 L1898.91 160.654 L1894.66 160.654 L1894.66 134.728 M1894.66 124.635 L1898.91 124.635 L1898.91 130.029 L1894.66 130.029 L1894.66 124.635 Z" fill="#000000" fill-rule="nonzero" fill-opacity="1" /><path clip-path="url(#clip890)" d="M1928.01 139.705 Q1929.61 136.834 1931.83 135.469 Q1934.05 134.103 1937.06 134.103 Q1941.11 134.103 1943.31 136.95 Q1945.51 139.774 1945.51 145.006 L1945.51 160.654 L1941.23 160.654 L1941.23 145.145 Q1941.23 141.418 1939.91 139.612 Q1938.59 137.807 1935.88 137.807 Q1932.57 137.807 1930.65 140.006 Q1928.73 142.205 1928.73 146.001 L1928.73 160.654 L1924.45 160.654 L1924.45 145.145 Q1924.45 141.395 1923.13 139.612 Q1921.81 137.807 1919.05 137.807 Q1915.79 137.807 1913.87 140.029 Q1911.95 142.228 1911.95 146.001 L1911.95 160.654 L1907.66 160.654 L1907.66 134.728 L1911.95 134.728 L1911.95 138.756 Q1913.41 136.372 1915.44 135.237 Q1917.48 134.103 1920.28 134.103 Q1923.1 134.103 1925.07 135.538 Q1927.06 136.973 1928.01 139.705 Z" fill="#000000" fill-rule="nonzero" fill-opacity="1" /><path clip-path="url(#clip890)" d="M1976.18 146.626 L1976.18 148.709 L1956.6 148.709 Q1956.88 153.108 1959.24 155.422 Q1961.62 157.714 1965.86 157.714 Q1968.31 157.714 1970.6 157.112 Q1972.92 156.51 1975.19 155.307 L1975.19 159.334 Q1972.9 160.307 1970.49 160.816 Q1968.08 161.325 1965.6 161.325 Q1959.4 161.325 1955.77 157.714 Q1952.16 154.103 1952.16 147.946 Q1952.16 141.58 1955.58 137.853 Q1959.03 134.103 1964.86 134.103 Q1970.09 134.103 1973.13 137.483 Q1976.18 140.839 1976.18 146.626 M1971.92 145.376 Q1971.88 141.881 1969.96 139.797 Q1968.06 137.714 1964.91 137.714 Q1961.34 137.714 1959.19 139.728 Q1957.06 141.742 1956.74 145.399 L1971.92 145.376 Z" fill="#000000" fill-rule="nonzero" fill-opacity="1" /><path clip-path="url(#clip890)" d="M2015.3 138.663 L2015.3 124.635 L2019.56 124.635 L2019.56 160.654 L2015.3 160.654 L2015.3 156.765 Q2013.96 159.08 2011.9 160.214 Q2009.86 161.325 2006.99 161.325 Q2002.29 161.325 1999.33 157.575 Q1996.39 153.825 1996.39 147.714 Q1996.39 141.603 1999.33 137.853 Q2002.29 134.103 2006.99 134.103 Q2009.86 134.103 2011.9 135.237 Q2013.96 136.348 2015.3 138.663 M2000.79 147.714 Q2000.79 152.413 2002.71 155.098 Q2004.65 157.76 2008.03 157.76 Q2011.41 157.76 2013.36 155.098 Q2015.3 152.413 2015.3 147.714 Q2015.3 143.015 2013.36 140.353 Q2011.41 137.668 2008.03 137.668 Q2004.65 137.668 2002.71 140.353 Q2000.79 143.015 2000.79 147.714 Z" fill="#000000" fill-rule="nonzero" fill-opacity="1" /><path clip-path="url(#clip890)" d="M2028.34 134.728 L2032.59 134.728 L2032.59 160.654 L2028.34 160.654 L2028.34 134.728 M2028.34 124.635 L2032.59 124.635 L2032.59 130.029 L2028.34 130.029 L2028.34 124.635 Z" fill="#000000" fill-rule="nonzero" fill-opacity="1" /><path clip-path="url(#clip890)" d="M2058.03 135.492 L2058.03 139.52 Q2056.23 138.594 2054.28 138.131 Q2052.34 137.668 2050.26 137.668 Q2047.09 137.668 2045.49 138.64 Q2043.91 139.612 2043.91 141.557 Q2043.91 143.038 2045.05 143.895 Q2046.18 144.728 2049.61 145.492 L2051.07 145.816 Q2055.6 146.788 2057.5 148.571 Q2059.42 150.33 2059.42 153.501 Q2059.42 157.112 2056.55 159.219 Q2053.71 161.325 2048.71 161.325 Q2046.62 161.325 2044.35 160.908 Q2042.11 160.515 2039.61 159.705 L2039.61 155.307 Q2041.97 156.533 2044.26 157.158 Q2046.55 157.76 2048.8 157.76 Q2051.81 157.76 2053.43 156.742 Q2055.05 155.7 2055.05 153.825 Q2055.05 152.089 2053.87 151.163 Q2052.71 150.237 2048.75 149.381 L2047.27 149.034 Q2043.31 148.2 2041.55 146.487 Q2039.79 144.751 2039.79 141.742 Q2039.79 138.084 2042.39 136.094 Q2044.98 134.103 2049.75 134.103 Q2052.11 134.103 2054.19 134.45 Q2056.27 134.797 2058.03 135.492 Z" fill="#000000" fill-rule="nonzero" fill-opacity="1" /><path clip-path="url(#clip890)" d="M2070.42 127.367 L2070.42 134.728 L2079.19 134.728 L2079.19 138.038 L2070.42 138.038 L2070.42 152.112 Q2070.42 155.283 2071.27 156.186 Q2072.15 157.089 2074.82 157.089 L2079.19 157.089 L2079.19 160.654 L2074.82 160.654 Q2069.89 160.654 2068.01 158.825 Q2066.14 156.973 2066.14 152.112 L2066.14 138.038 L2063.01 138.038 L2063.01 134.728 L2066.14 134.728 L2066.14 127.367 L2070.42 127.367 Z" fill="#000000" fill-rule="nonzero" fill-opacity="1" /><path clip-path="url(#clip890)" d="M2099.82 138.709 Q2099.1 138.293 2098.24 138.108 Q2097.41 137.899 2096.39 137.899 Q2092.78 137.899 2090.83 140.26 Q2088.91 142.598 2088.91 146.996 L2088.91 160.654 L2084.63 160.654 L2084.63 134.728 L2088.91 134.728 L2088.91 138.756 Q2090.26 136.395 2092.41 135.26 Q2094.56 134.103 2097.64 134.103 Q2098.08 134.103 2098.61 134.172 Q2099.15 134.219 2099.79 134.335 L2099.82 138.709 Z" fill="#000000" fill-rule="nonzero" fill-opacity="1" /><path clip-path="url(#clip890)" d="M2104.28 134.728 L2108.54 134.728 L2108.54 160.654 L2104.28 160.654 L2104.28 134.728 M2104.28 124.635 L2108.54 124.635 L2108.54 130.029 L2104.28 130.029 L2104.28 124.635 Z" fill="#000000" fill-rule="nonzero" fill-opacity="1" /><path clip-path="url(#clip890)" d="M2136.07 147.714 Q2136.07 143.015 2134.12 140.353 Q2132.2 137.668 2128.82 137.668 Q2125.44 137.668 2123.5 140.353 Q2121.58 143.015 2121.58 147.714 Q2121.58 152.413 2123.5 155.098 Q2125.44 157.76 2128.82 157.76 Q2132.2 157.76 2134.12 155.098 Q2136.07 152.413 2136.07 147.714 M2121.58 138.663 Q2122.92 136.348 2124.96 135.237 Q2127.02 134.103 2129.86 134.103 Q2134.58 134.103 2137.52 137.853 Q2140.49 141.603 2140.49 147.714 Q2140.49 153.825 2137.52 157.575 Q2134.58 161.325 2129.86 161.325 Q2127.02 161.325 2124.96 160.214 Q2122.92 159.08 2121.58 156.765 L2121.58 160.654 L2117.29 160.654 L2117.29 124.635 L2121.58 124.635 L2121.58 138.663 Z" fill="#000000" fill-rule="nonzero" fill-opacity="1" /><path clip-path="url(#clip890)" d="M2147.11 150.422 L2147.11 134.728 L2151.37 134.728 L2151.37 150.26 Q2151.37 153.941 2152.8 155.793 Q2154.24 157.621 2157.11 157.621 Q2160.56 157.621 2162.55 155.422 Q2164.56 153.223 2164.56 149.427 L2164.56 134.728 L2168.82 134.728 L2168.82 160.654 L2164.56 160.654 L2164.56 156.672 Q2163.01 159.033 2160.95 160.191 Q2158.91 161.325 2156.2 161.325 Q2151.74 161.325 2149.42 158.547 Q2147.11 155.77 2147.11 150.422 M2157.83 134.103 L2157.83 134.103 Z" fill="#000000" fill-rule="nonzero" fill-opacity="1" /><path clip-path="url(#clip890)" d="M2181.81 127.367 L2181.81 134.728 L2190.58 134.728 L2190.58 138.038 L2181.81 138.038 L2181.81 152.112 Q2181.81 155.283 2182.66 156.186 Q2183.54 157.089 2186.2 157.089 L2190.58 157.089 L2190.58 160.654 L2186.2 160.654 Q2181.27 160.654 2179.4 158.825 Q2177.52 156.973 2177.52 152.112 L2177.52 138.038 L2174.4 138.038 L2174.4 134.728 L2177.52 134.728 L2177.52 127.367 L2181.81 127.367 Z" fill="#000000" fill-rule="nonzero" fill-opacity="1" /><path clip-path="url(#clip890)" d="M2196.18 134.728 L2200.44 134.728 L2200.44 160.654 L2196.18 160.654 L2196.18 134.728 M2196.18 124.635 L2200.44 124.635 L2200.44 130.029 L2196.18 130.029 L2196.18 124.635 Z" fill="#000000" fill-rule="nonzero" fill-opacity="1" /><path clip-path="url(#clip890)" d="M2219.4 137.714 Q2215.97 137.714 2213.98 140.399 Q2211.99 143.061 2211.99 147.714 Q2211.99 152.367 2213.96 155.052 Q2215.95 157.714 2219.4 157.714 Q2222.8 157.714 2224.79 155.029 Q2226.78 152.344 2226.78 147.714 Q2226.78 143.108 2224.79 140.422 Q2222.8 137.714 2219.4 137.714 M2219.4 134.103 Q2224.95 134.103 2228.13 137.714 Q2231.3 141.325 2231.3 147.714 Q2231.3 154.08 2228.13 157.714 Q2224.95 161.325 2219.4 161.325 Q2213.82 161.325 2210.65 157.714 Q2207.5 154.08 2207.5 147.714 Q2207.5 141.325 2210.65 137.714 Q2213.82 134.103 2219.4 134.103 Z" fill="#000000" fill-rule="nonzero" fill-opacity="1" /><path clip-path="url(#clip890)" d="M2259.91 145.006 L2259.91 160.654 L2255.65 160.654 L2255.65 145.145 Q2255.65 141.464 2254.21 139.635 Q2252.78 137.807 2249.91 137.807 Q2246.46 137.807 2244.47 140.006 Q2242.48 142.205 2242.48 146.001 L2242.48 160.654 L2238.2 160.654 L2238.2 134.728 L2242.48 134.728 L2242.48 138.756 Q2244.01 136.418 2246.07 135.26 Q2248.15 134.103 2250.86 134.103 Q2255.32 134.103 2257.62 136.881 Q2259.91 139.635 2259.91 145.006 Z" fill="#000000" fill-rule="nonzero" fill-opacity="1" /></svg>
