<?xml version="1.0" encoding="utf-8"?>
<svg xmlns="http://www.w3.org/2000/svg" xmlns:xlink="http://www.w3.org/1999/xlink" width="800" height="400" viewBox="0 0 3200 1600">
<defs>
  <clipPath id="clip790">
    <rect x="0" y="0" width="3200" height="1600"/>
  </clipPath>
</defs>
<path clip-path="url(#clip790)" d="M0 1600 L3200 1600 L3200 0 L0 0  Z" fill="#ffffff" fill-rule="evenodd" fill-opacity="1"/>
<defs>
  <clipPath id="clip791">
    <rect x="640" y="0" width="2241" height="1600"/>
  </clipPath>
</defs>
<path clip-path="url(#clip790)" d="M165.408 1443.7 L3152.76 1443.7 L3152.76 47.2441 L165.408 47.2441  Z" fill="#ffffff" fill-rule="evenodd" fill-opacity="1"/>
<defs>
  <clipPath id="clip792">
    <rect x="165" y="47" width="2988" height="1397"/>
  </clipPath>
</defs>
<polyline clip-path="url(#clip792)" style="stroke:#000000; stroke-linecap:round; stroke-linejoin:round; stroke-width:2; stroke-opacity:0.1; fill:none" points="165.408,1443.7 165.408,47.2441 "/>
<polyline clip-path="url(#clip792)" style="stroke:#000000; stroke-linecap:round; stroke-linejoin:round; stroke-width:2; stroke-opacity:0.1; fill:none" points="762.878,1443.7 762.878,47.2441 "/>
<polyline clip-path="url(#clip792)" style="stroke:#000000; stroke-linecap:round; stroke-linejoin:round; stroke-width:2; stroke-opacity:0.1; fill:none" points="1360.35,1443.7 1360.35,47.2441 "/>
<polyline clip-path="url(#clip792)" style="stroke:#000000; stroke-linecap:round; stroke-linejoin:round; stroke-width:2; stroke-opacity:0.1; fill:none" points="1957.82,1443.7 1957.82,47.2441 "/>
<polyline clip-path="url(#clip792)" style="stroke:#000000; stroke-linecap:round; stroke-linejoin:round; stroke-width:2; stroke-opacity:0.1; fill:none" points="2555.29,1443.7 2555.29,47.2441 "/>
<polyline clip-path="url(#clip792)" style="stroke:#000000; stroke-linecap:round; stroke-linejoin:round; stroke-width:2; stroke-opacity:0.1; fill:none" points="3152.76,1443.7 3152.76,47.2441 "/>
<polyline clip-path="url(#clip792)" style="stroke:#000000; stroke-linecap:round; stroke-linejoin:round; stroke-width:2; stroke-opacity:0.1; fill:none" points="165.408,1443.7 165.408,47.2441 "/>
<polyline clip-path="url(#clip792)" style="stroke:#000000; stroke-linecap:round; stroke-linejoin:round; stroke-width:2; stroke-opacity:0.1; fill:none" points="762.878,1443.7 762.878,47.2441 "/>
<polyline clip-path="url(#clip792)" style="stroke:#000000; stroke-linecap:round; stroke-linejoin:round; stroke-width:2; stroke-opacity:0.1; fill:none" points="1360.35,1443.7 1360.35,47.2441 "/>
<polyline clip-path="url(#clip792)" style="stroke:#000000; stroke-linecap:round; stroke-linejoin:round; stroke-width:2; stroke-opacity:0.1; fill:none" points="1957.82,1443.7 1957.82,47.2441 "/>
<polyline clip-path="url(#clip792)" style="stroke:#000000; stroke-linecap:round; stroke-linejoin:round; stroke-width:2; stroke-opacity:0.1; fill:none" points="2555.29,1443.7 2555.29,47.2441 "/>
<polyline clip-path="url(#clip792)" style="stroke:#000000; stroke-linecap:round; stroke-linejoin:round; stroke-width:2; stroke-opacity:0.1; fill:none" points="3152.76,1443.7 3152.76,47.2441 "/>
<polyline clip-path="url(#clip790)" style="stroke:#000000; stroke-linecap:round; stroke-linejoin:round; stroke-width:4; stroke-opacity:1; fill:none" points="165.408,1443.7 3152.76,1443.7 "/>
<polyline clip-path="url(#clip790)" style="stroke:#000000; stroke-linecap:round; stroke-linejoin:round; stroke-width:4; stroke-opacity:1; fill:none" points="165.408,47.2441 3152.76,47.2441 "/>
<polyline clip-path="url(#clip790)" style="stroke:#000000; stroke-linecap:round; stroke-linejoin:round; stroke-width:4; stroke-opacity:1; fill:none" points="165.408,1443.7 165.408,1424.8 "/>
<polyline clip-path="url(#clip790)" style="stroke:#000000; stroke-linecap:round; stroke-linejoin:round; stroke-width:4; stroke-opacity:1; fill:none" points="762.878,1443.7 762.878,1424.8 "/>
<polyline clip-path="url(#clip790)" style="stroke:#000000; stroke-linecap:round; stroke-linejoin:round; stroke-width:4; stroke-opacity:1; fill:none" points="1360.35,1443.7 1360.35,1424.8 "/>
<polyline clip-path="url(#clip790)" style="stroke:#000000; stroke-linecap:round; stroke-linejoin:round; stroke-width:4; stroke-opacity:1; fill:none" points="1957.82,1443.7 1957.82,1424.8 "/>
<polyline clip-path="url(#clip790)" style="stroke:#000000; stroke-linecap:round; stroke-linejoin:round; stroke-width:4; stroke-opacity:1; fill:none" points="2555.29,1443.7 2555.29,1424.8 "/>
<polyline clip-path="url(#clip790)" style="stroke:#000000; stroke-linecap:round; stroke-linejoin:round; stroke-width:4; stroke-opacity:1; fill:none" points="3152.76,1443.7 3152.76,1424.8 "/>
<polyline clip-path="url(#clip790)" style="stroke:#000000; stroke-linecap:round; stroke-linejoin:round; stroke-width:4; stroke-opacity:1; fill:none" points="165.408,47.2441 165.408,66.1417 "/>
<polyline clip-path="url(#clip790)" style="stroke:#000000; stroke-linecap:round; stroke-linejoin:round; stroke-width:4; stroke-opacity:1; fill:none" points="762.878,47.2441 762.878,66.1417 "/>
<polyline clip-path="url(#clip790)" style="stroke:#000000; stroke-linecap:round; stroke-linejoin:round; stroke-width:4; stroke-opacity:1; fill:none" points="1360.35,47.2441 1360.35,66.1417 "/>
<polyline clip-path="url(#clip790)" style="stroke:#000000; stroke-linecap:round; stroke-linejoin:round; stroke-width:4; stroke-opacity:1; fill:none" points="1957.82,47.2441 1957.82,66.1417 "/>
<polyline clip-path="url(#clip790)" style="stroke:#000000; stroke-linecap:round; stroke-linejoin:round; stroke-width:4; stroke-opacity:1; fill:none" points="2555.29,47.2441 2555.29,66.1417 "/>
<polyline clip-path="url(#clip790)" style="stroke:#000000; stroke-linecap:round; stroke-linejoin:round; stroke-width:4; stroke-opacity:1; fill:none" points="3152.76,47.2441 3152.76,66.1417 "/>
<path clip-path="url(#clip790)" d="M165.408 1481.02 Q161.797 1481.02 159.969 1484.58 Q158.163 1488.12 158.163 1495.25 Q158.163 1502.36 159.969 1505.93 Q161.797 1509.47 165.408 1509.47 Q169.043 1509.47 170.848 1505.93 Q172.677 1502.36 172.677 1495.25 Q172.677 1488.12 170.848 1484.58 Q169.043 1481.02 165.408 1481.02 M165.408 1477.31 Q171.219 1477.31 174.274 1481.92 Q177.353 1486.5 177.353 1495.25 Q177.353 1503.98 174.274 1508.59 Q171.219 1513.17 165.408 1513.17 Q159.598 1513.17 156.52 1508.59 Q153.464 1503.98 153.464 1495.25 Q153.464 1486.5 156.52 1481.92 Q159.598 1477.31 165.408 1477.31 Z" fill="#000000" fill-rule="nonzero" fill-opacity="1" /><path clip-path="url(#clip790)" d="M757.531 1508.56 L773.85 1508.56 L773.85 1512.5 L751.906 1512.5 L751.906 1508.56 Q754.568 1505.81 759.151 1501.18 Q763.758 1496.53 764.938 1495.19 Q767.183 1492.66 768.063 1490.93 Q768.966 1489.17 768.966 1487.48 Q768.966 1484.72 767.021 1482.99 Q765.1 1481.25 761.998 1481.25 Q759.799 1481.25 757.346 1482.01 Q754.915 1482.78 752.137 1484.33 L752.137 1479.61 Q754.961 1478.47 757.415 1477.89 Q759.869 1477.31 761.906 1477.31 Q767.276 1477.31 770.47 1480 Q773.665 1482.69 773.665 1487.18 Q773.665 1489.31 772.855 1491.23 Q772.068 1493.12 769.961 1495.72 Q769.383 1496.39 766.281 1499.61 Q763.179 1502.8 757.531 1508.56 Z" fill="#000000" fill-rule="nonzero" fill-opacity="1" /><path clip-path="url(#clip790)" d="M1363.36 1482.01 L1351.55 1500.46 L1363.36 1500.46 L1363.36 1482.01 M1362.13 1477.94 L1368.01 1477.94 L1368.01 1500.46 L1372.94 1500.46 L1372.94 1504.35 L1368.01 1504.35 L1368.01 1512.5 L1363.36 1512.5 L1363.36 1504.35 L1347.75 1504.35 L1347.75 1499.84 L1362.13 1477.94 Z" fill="#000000" fill-rule="nonzero" fill-opacity="1" /><path clip-path="url(#clip790)" d="M1958.22 1493.36 Q1955.07 1493.36 1953.22 1495.51 Q1951.39 1497.66 1951.39 1501.41 Q1951.39 1505.14 1953.22 1507.31 Q1955.07 1509.47 1958.22 1509.47 Q1961.37 1509.47 1963.2 1507.31 Q1965.05 1505.14 1965.05 1501.41 Q1965.05 1497.66 1963.2 1495.51 Q1961.37 1493.36 1958.22 1493.36 M1967.5 1478.7 L1967.5 1482.96 Q1965.75 1482.13 1963.94 1481.69 Q1962.16 1481.25 1960.4 1481.25 Q1955.77 1481.25 1953.31 1484.37 Q1950.88 1487.5 1950.54 1493.82 Q1951.9 1491.81 1953.96 1490.74 Q1956.02 1489.65 1958.5 1489.65 Q1963.71 1489.65 1966.72 1492.82 Q1969.75 1495.97 1969.75 1501.41 Q1969.75 1506.74 1966.6 1509.95 Q1963.45 1513.17 1958.22 1513.17 Q1952.23 1513.17 1949.06 1508.59 Q1945.88 1503.98 1945.88 1495.25 Q1945.88 1487.06 1949.77 1482.2 Q1953.66 1477.31 1960.21 1477.31 Q1961.97 1477.31 1963.75 1477.66 Q1965.56 1478.01 1967.5 1478.7 Z" fill="#000000" fill-rule="nonzero" fill-opacity="1" /><path clip-path="url(#clip790)" d="M2555.29 1496.09 Q2551.95 1496.09 2550.03 1497.87 Q2548.13 1499.65 2548.13 1502.78 Q2548.13 1505.9 2550.03 1507.69 Q2551.95 1509.47 2555.29 1509.47 Q2558.62 1509.47 2560.54 1507.69 Q2562.46 1505.88 2562.46 1502.78 Q2562.46 1499.65 2560.54 1497.87 Q2558.64 1496.09 2555.29 1496.09 M2550.61 1494.1 Q2547.6 1493.36 2545.91 1491.3 Q2544.24 1489.24 2544.24 1486.27 Q2544.24 1482.13 2547.18 1479.72 Q2550.15 1477.31 2555.29 1477.31 Q2560.45 1477.31 2563.39 1479.72 Q2566.33 1482.13 2566.33 1486.27 Q2566.33 1489.24 2564.64 1491.3 Q2562.97 1493.36 2559.99 1494.1 Q2563.37 1494.88 2565.24 1497.18 Q2567.14 1499.47 2567.14 1502.78 Q2567.14 1507.8 2564.06 1510.49 Q2561 1513.17 2555.29 1513.17 Q2549.57 1513.17 2546.49 1510.49 Q2543.43 1507.8 2543.43 1502.78 Q2543.43 1499.47 2545.33 1497.18 Q2547.23 1494.88 2550.61 1494.1 M2548.9 1486.71 Q2548.9 1489.4 2550.56 1490.9 Q2552.25 1492.41 2555.29 1492.41 Q2558.3 1492.41 2559.99 1490.9 Q2561.7 1489.4 2561.7 1486.71 Q2561.7 1484.03 2559.99 1482.52 Q2558.3 1481.02 2555.29 1481.02 Q2552.25 1481.02 2550.56 1482.52 Q2548.9 1484.03 2548.9 1486.71 Z" fill="#000000" fill-rule="nonzero" fill-opacity="1" /><path clip-path="url(#clip790)" d="M3127.44 1508.56 L3135.08 1508.56 L3135.08 1482.2 L3126.77 1483.87 L3126.77 1479.61 L3135.04 1477.94 L3139.71 1477.94 L3139.71 1508.56 L3147.35 1508.56 L3147.35 1512.5 L3127.44 1512.5 L3127.44 1508.56 Z" fill="#000000" fill-rule="nonzero" fill-opacity="1" /><path clip-path="url(#clip790)" d="M3166.8 1481.02 Q3163.18 1481.02 3161.36 1484.58 Q3159.55 1488.12 3159.55 1495.25 Q3159.55 1502.36 3161.36 1505.93 Q3163.18 1509.47 3166.8 1509.47 Q3170.43 1509.47 3172.23 1505.93 Q3174.06 1502.36 3174.06 1495.25 Q3174.06 1488.12 3172.23 1484.58 Q3170.43 1481.02 3166.8 1481.02 M3166.8 1477.31 Q3172.61 1477.31 3175.66 1481.92 Q3178.74 1486.5 3178.74 1495.25 Q3178.74 1503.98 3175.66 1508.59 Q3172.61 1513.17 3166.8 1513.17 Q3160.99 1513.17 3157.91 1508.59 Q3154.85 1503.98 3154.85 1495.25 Q3154.85 1486.5 3157.91 1481.92 Q3160.99 1477.31 3166.8 1477.31 Z" fill="#000000" fill-rule="nonzero" fill-opacity="1" /><path clip-path="url(#clip790)" d="M1658.14 1554.79 L1658.14 1564.92 L1670.21 1564.92 L1670.21 1569.47 L1658.14 1569.47 L1658.14 1588.82 Q1658.14 1593.18 1659.32 1594.42 Q1660.53 1595.66 1664.19 1595.66 L1670.21 1595.66 L1670.21 1600.56 L1664.19 1600.56 Q1657.41 1600.56 1654.83 1598.05 Q1652.25 1595.5 1652.25 1588.82 L1652.25 1569.47 L1647.96 1569.47 L1647.96 1564.92 L1652.25 1564.92 L1652.25 1554.79 L1658.14 1554.79 Z" fill="#000000" fill-rule="nonzero" fill-opacity="1" /><polyline clip-path="url(#clip792)" style="stroke:#000000; stroke-linecap:round; stroke-linejoin:round; stroke-width:2; stroke-opacity:0.1; fill:none" points="165.408,1404.18 3152.76,1404.18 "/>
<polyline clip-path="url(#clip792)" style="stroke:#000000; stroke-linecap:round; stroke-linejoin:round; stroke-width:2; stroke-opacity:0.1; fill:none" points="165.408,1099.46 3152.76,1099.46 "/>
<polyline clip-path="url(#clip792)" style="stroke:#000000; stroke-linecap:round; stroke-linejoin:round; stroke-width:2; stroke-opacity:0.1; fill:none" points="165.408,794.733 3152.76,794.733 "/>
<polyline clip-path="url(#clip792)" style="stroke:#000000; stroke-linecap:round; stroke-linejoin:round; stroke-width:2; stroke-opacity:0.1; fill:none" points="165.408,490.01 3152.76,490.01 "/>
<polyline clip-path="url(#clip792)" style="stroke:#000000; stroke-linecap:round; stroke-linejoin:round; stroke-width:2; stroke-opacity:0.1; fill:none" points="165.408,185.288 3152.76,185.288 "/>
<polyline clip-path="url(#clip792)" style="stroke:#000000; stroke-linecap:round; stroke-linejoin:round; stroke-width:2; stroke-opacity:0.1; fill:none" points="165.408,1404.18 3152.76,1404.18 "/>
<polyline clip-path="url(#clip792)" style="stroke:#000000; stroke-linecap:round; stroke-linejoin:round; stroke-width:2; stroke-opacity:0.1; fill:none" points="165.408,1099.46 3152.76,1099.46 "/>
<polyline clip-path="url(#clip792)" style="stroke:#000000; stroke-linecap:round; stroke-linejoin:round; stroke-width:2; stroke-opacity:0.1; fill:none" points="165.408,794.733 3152.76,794.733 "/>
<polyline clip-path="url(#clip792)" style="stroke:#000000; stroke-linecap:round; stroke-linejoin:round; stroke-width:2; stroke-opacity:0.1; fill:none" points="165.408,490.01 3152.76,490.01 "/>
<polyline clip-path="url(#clip792)" style="stroke:#000000; stroke-linecap:round; stroke-linejoin:round; stroke-width:2; stroke-opacity:0.1; fill:none" points="165.408,185.288 3152.76,185.288 "/>
<polyline clip-path="url(#clip790)" style="stroke:#000000; stroke-linecap:round; stroke-linejoin:round; stroke-width:4; stroke-opacity:1; fill:none" points="165.408,1443.7 165.408,47.2441 "/>
<polyline clip-path="url(#clip790)" style="stroke:#000000; stroke-linecap:round; stroke-linejoin:round; stroke-width:4; stroke-opacity:1; fill:none" points="3152.76,1443.7 3152.76,47.2441 "/>
<polyline clip-path="url(#clip790)" style="stroke:#000000; stroke-linecap:round; stroke-linejoin:round; stroke-width:4; stroke-opacity:1; fill:none" points="165.408,1404.18 184.306,1404.18 "/>
<polyline clip-path="url(#clip790)" style="stroke:#000000; stroke-linecap:round; stroke-linejoin:round; stroke-width:4; stroke-opacity:1; fill:none" points="165.408,1099.46 184.306,1099.46 "/>
<polyline clip-path="url(#clip790)" style="stroke:#000000; stroke-linecap:round; stroke-linejoin:round; stroke-width:4; stroke-opacity:1; fill:none" points="165.408,794.733 184.306,794.733 "/>
<polyline clip-path="url(#clip790)" style="stroke:#000000; stroke-linecap:round; stroke-linejoin:round; stroke-width:4; stroke-opacity:1; fill:none" points="165.408,490.01 184.306,490.01 "/>
<polyline clip-path="url(#clip790)" style="stroke:#000000; stroke-linecap:round; stroke-linejoin:round; stroke-width:4; stroke-opacity:1; fill:none" points="165.408,185.288 184.306,185.288 "/>
<polyline clip-path="url(#clip790)" style="stroke:#000000; stroke-linecap:round; stroke-linejoin:round; stroke-width:4; stroke-opacity:1; fill:none" points="3152.76,1404.18 3133.86,1404.18 "/>
<polyline clip-path="url(#clip790)" style="stroke:#000000; stroke-linecap:round; stroke-linejoin:round; stroke-width:4; stroke-opacity:1; fill:none" points="3152.76,1099.46 3133.86,1099.46 "/>
<polyline clip-path="url(#clip790)" style="stroke:#000000; stroke-linecap:round; stroke-linejoin:round; stroke-width:4; stroke-opacity:1; fill:none" points="3152.76,794.733 3133.86,794.733 "/>
<polyline clip-path="url(#clip790)" style="stroke:#000000; stroke-linecap:round; stroke-linejoin:round; stroke-width:4; stroke-opacity:1; fill:none" points="3152.76,490.01 3133.86,490.01 "/>
<polyline clip-path="url(#clip790)" style="stroke:#000000; stroke-linecap:round; stroke-linejoin:round; stroke-width:4; stroke-opacity:1; fill:none" points="3152.76,185.288 3133.86,185.288 "/>
<path clip-path="url(#clip790)" d="M63.08 1390.97 L51.2745 1409.42 L63.08 1409.42 L63.08 1390.97 M61.8532 1386.9 L67.7328 1386.9 L67.7328 1409.42 L72.6633 1409.42 L72.6633 1413.31 L67.7328 1413.31 L67.7328 1421.46 L63.08 1421.46 L63.08 1413.31 L47.4782 1413.31 L47.4782 1408.8 L61.8532 1386.9 Z" fill="#000000" fill-rule="nonzero" fill-opacity="1" /><path clip-path="url(#clip790)" d="M80.3947 1415.58 L85.279 1415.58 L85.279 1421.46 L80.3947 1421.46 L80.3947 1415.58 Z" fill="#000000" fill-rule="nonzero" fill-opacity="1" /><path clip-path="url(#clip790)" d="M105.464 1389.98 Q101.853 1389.98 100.024 1393.54 Q98.2187 1397.08 98.2187 1404.21 Q98.2187 1411.32 100.024 1414.88 Q101.853 1418.43 105.464 1418.43 Q109.098 1418.43 110.904 1414.88 Q112.733 1411.32 112.733 1404.21 Q112.733 1397.08 110.904 1393.54 Q109.098 1389.98 105.464 1389.98 M105.464 1386.27 Q111.274 1386.27 114.33 1390.88 Q117.408 1395.46 117.408 1404.21 Q117.408 1412.94 114.33 1417.55 Q111.274 1422.13 105.464 1422.13 Q99.6539 1422.13 96.5752 1417.55 Q93.5197 1412.94 93.5197 1404.21 Q93.5197 1395.46 96.5752 1390.88 Q99.6539 1386.27 105.464 1386.27 Z" fill="#000000" fill-rule="nonzero" fill-opacity="1" /><path clip-path="url(#clip790)" d="M64.6772 1086.25 L52.8717 1104.7 L64.6772 1104.7 L64.6772 1086.25 M63.4504 1082.18 L69.33 1082.18 L69.33 1104.7 L74.2605 1104.7 L74.2605 1108.59 L69.33 1108.59 L69.33 1116.74 L64.6772 1116.74 L64.6772 1108.59 L49.0754 1108.59 L49.0754 1104.07 L63.4504 1082.18 Z" fill="#000000" fill-rule="nonzero" fill-opacity="1" /><path clip-path="url(#clip790)" d="M81.9919 1110.86 L86.8762 1110.86 L86.8762 1116.74 L81.9919 1116.74 L81.9919 1110.86 Z" fill="#000000" fill-rule="nonzero" fill-opacity="1" /><path clip-path="url(#clip790)" d="M101.089 1112.8 L117.408 1112.8 L117.408 1116.74 L95.4641 1116.74 L95.4641 1112.8 Q98.1261 1110.05 102.709 1105.42 Q107.316 1100.76 108.496 1099.42 Q110.742 1096.9 111.621 1095.16 Q112.524 1093.4 112.524 1091.71 Q112.524 1088.96 110.58 1087.22 Q108.658 1085.49 105.557 1085.49 Q103.358 1085.49 100.904 1086.25 Q98.4733 1087.01 95.6956 1088.56 L95.6956 1083.84 Q98.5196 1082.71 100.973 1082.13 Q103.427 1081.55 105.464 1081.55 Q110.834 1081.55 114.029 1084.24 Q117.223 1086.92 117.223 1091.41 Q117.223 1093.54 116.413 1095.46 Q115.626 1097.36 113.52 1099.95 Q112.941 1100.62 109.839 1103.84 Q106.737 1107.04 101.089 1112.8 Z" fill="#000000" fill-rule="nonzero" fill-opacity="1" /><path clip-path="url(#clip790)" d="M62.5939 781.527 L50.7884 799.976 L62.5939 799.976 L62.5939 781.527 M61.367 777.453 L67.2466 777.453 L67.2466 799.976 L72.1772 799.976 L72.1772 803.864 L67.2466 803.864 L67.2466 812.013 L62.5939 812.013 L62.5939 803.864 L46.9921 803.864 L46.9921 799.351 L61.367 777.453 Z" fill="#000000" fill-rule="nonzero" fill-opacity="1" /><path clip-path="url(#clip790)" d="M79.9086 806.133 L84.7928 806.133 L84.7928 812.013 L79.9086 812.013 L79.9086 806.133 Z" fill="#000000" fill-rule="nonzero" fill-opacity="1" /><path clip-path="url(#clip790)" d="M107.825 781.527 L96.0196 799.976 L107.825 799.976 L107.825 781.527 M106.598 777.453 L112.478 777.453 L112.478 799.976 L117.408 799.976 L117.408 803.864 L112.478 803.864 L112.478 812.013 L107.825 812.013 L107.825 803.864 L92.2234 803.864 L92.2234 799.351 L106.598 777.453 Z" fill="#000000" fill-rule="nonzero" fill-opacity="1" /><path clip-path="url(#clip790)" d="M62.918 476.804 L51.1125 495.253 L62.918 495.253 L62.918 476.804 M61.6911 472.73 L67.5707 472.73 L67.5707 495.253 L72.5012 495.253 L72.5012 499.142 L67.5707 499.142 L67.5707 507.29 L62.918 507.29 L62.918 499.142 L47.3162 499.142 L47.3162 494.628 L61.6911 472.73 Z" fill="#000000" fill-rule="nonzero" fill-opacity="1" /><path clip-path="url(#clip790)" d="M80.2327 501.41 L85.1169 501.41 L85.1169 507.29 L80.2327 507.29 L80.2327 501.41 Z" fill="#000000" fill-rule="nonzero" fill-opacity="1" /><path clip-path="url(#clip790)" d="M105.881 488.147 Q102.733 488.147 100.881 490.299 Q99.052 492.452 99.052 496.202 Q99.052 499.929 100.881 502.105 Q102.733 504.258 105.881 504.258 Q109.029 504.258 110.858 502.105 Q112.709 499.929 112.709 496.202 Q112.709 492.452 110.858 490.299 Q109.029 488.147 105.881 488.147 M115.163 473.494 L115.163 477.753 Q113.404 476.92 111.598 476.48 Q109.816 476.04 108.057 476.04 Q103.427 476.04 100.973 479.165 Q98.5428 482.29 98.1956 488.61 Q99.5613 486.596 101.621 485.531 Q103.682 484.443 106.158 484.443 Q111.367 484.443 114.376 487.614 Q117.408 490.762 117.408 496.202 Q117.408 501.526 114.26 504.744 Q111.112 507.961 105.881 507.961 Q99.8854 507.961 96.7141 503.378 Q93.5428 498.772 93.5428 490.045 Q93.5428 481.85 97.4317 476.989 Q101.321 472.105 107.871 472.105 Q109.631 472.105 111.413 472.452 Q113.219 472.8 115.163 473.494 Z" fill="#000000" fill-rule="nonzero" fill-opacity="1" /><path clip-path="url(#clip790)" d="M63.1726 172.082 L51.3671 190.531 L63.1726 190.531 L63.1726 172.082 M61.9457 168.008 L67.8253 168.008 L67.8253 190.531 L72.7559 190.531 L72.7559 194.42 L67.8253 194.42 L67.8253 202.568 L63.1726 202.568 L63.1726 194.42 L47.5708 194.42 L47.5708 189.906 L61.9457 168.008 Z" fill="#000000" fill-rule="nonzero" fill-opacity="1" /><path clip-path="url(#clip790)" d="M80.4873 196.688 L85.3715 196.688 L85.3715 202.568 L80.4873 202.568 L80.4873 196.688 Z" fill="#000000" fill-rule="nonzero" fill-opacity="1" /><path clip-path="url(#clip790)" d="M105.557 186.156 Q102.223 186.156 100.302 187.938 Q98.4039 189.72 98.4039 192.845 Q98.4039 195.97 100.302 197.753 Q102.223 199.535 105.557 199.535 Q108.89 199.535 110.811 197.753 Q112.733 195.947 112.733 192.845 Q112.733 189.72 110.811 187.938 Q108.913 186.156 105.557 186.156 M100.881 184.165 Q97.8715 183.424 96.1817 181.364 Q94.515 179.304 94.515 176.341 Q94.515 172.197 97.4548 169.79 Q100.418 167.383 105.557 167.383 Q110.719 167.383 113.658 169.79 Q116.598 172.197 116.598 176.341 Q116.598 179.304 114.908 181.364 Q113.242 183.424 110.256 184.165 Q113.635 184.952 115.51 187.244 Q117.408 189.535 117.408 192.845 Q117.408 197.869 114.33 200.554 Q111.274 203.239 105.557 203.239 Q99.8391 203.239 96.7604 200.554 Q93.7048 197.869 93.7048 192.845 Q93.7048 189.535 95.603 187.244 Q97.5011 184.952 100.881 184.165 M99.1678 176.781 Q99.1678 179.466 100.834 180.971 Q102.524 182.475 105.557 182.475 Q108.566 182.475 110.256 180.971 Q111.969 179.466 111.969 176.781 Q111.969 174.096 110.256 172.591 Q108.566 171.086 105.557 171.086 Q102.524 171.086 100.834 172.591 Q99.1678 174.096 99.1678 176.781 Z" fill="#000000" fill-rule="nonzero" fill-opacity="1" /><polyline clip-path="url(#clip792)" style="stroke:#009af9; stroke-linecap:round; stroke-linejoin:round; stroke-width:12; stroke-opacity:1; fill:none" points="165.408,1404.18 168.399,1401.14 171.389,1398.11 174.379,1395.09 177.37,1392.09 180.36,1389.09 183.35,1386.11 186.341,1383.13 189.331,1380.15 192.321,1377.18 195.312,1374.2 198.302,1371.23 201.292,1368.26 204.283,1365.28 207.273,1362.29 210.263,1359.3 213.254,1356.3 216.244,1353.29 219.234,1350.27 222.225,1347.31 225.215,1344.39 228.206,1341.48 231.196,1338.59 234.186,1335.71 237.177,1332.84 240.167,1329.99 243.157,1327.14 246.148,1324.32 249.138,1321.5 252.128,1318.69 255.119,1315.9 258.109,1313.12 261.099,1310.35 264.09,1307.59 267.08,1304.85 270.07,1302.11 273.061,1299.38 276.051,1296.66 279.041,1293.96 282.032,1291.26 285.022,1288.57 288.012,1285.89 291.003,1283.22 293.993,1280.56 296.983,1277.91 299.974,1275.27 302.964,1272.63 305.954,1270 308.945,1267.38 311.935,1264.76 314.925,1262.15 317.916,1259.55 320.906,1256.96 323.896,1254.37 326.887,1251.79 329.877,1249.21 332.867,1246.64 335.858,1244.07 338.848,1241.51 341.838,1238.95 344.829,1236.4 347.819,1233.85 350.809,1231.3 353.8,1228.76 356.79,1226.22 359.78,1223.69 362.771,1221.15 365.761,1218.62 368.751,1216.1 371.742,1213.57 374.732,1211.05 377.722,1208.53 380.713,1206.01 383.703,1203.49 386.693,1200.97 389.684,1198.45 392.674,1195.93 395.664,1193.41 398.655,1190.9 401.645,1188.38 404.635,1185.86 407.626,1183.34 410.616,1180.82 413.606,1178.3 416.597,1175.77 419.587,1173.25 422.577,1170.72 425.568,1168.19 428.558,1165.66 431.548,1163.12 434.539,1160.58 437.529,1158.04 440.519,1155.5 443.51,1152.95 446.5,1150.39 449.491,1147.83 452.481,1145.27 455.471,1142.7 458.462,1140.13 461.452,1137.55 464.442,1134.97 467.433,1132.38 470.423,1129.78 473.413,1127.18 476.404,1124.57 479.394,1121.96 482.384,1119.33 485.375,1116.7 488.365,1114.06 491.355,1111.42 494.346,1108.76 497.336,1106.1 500.326,1103.43 503.317,1100.75 506.307,1098.06 509.297,1095.36 512.288,1092.65 515.278,1089.94 518.268,1087.21 521.259,1084.47 524.249,1081.72 527.239,1078.96 530.23,1076.19 533.22,1073.41 536.21,1070.61 539.201,1067.81 542.191,1064.99 545.181,1062.16 548.172,1059.76 551.162,1057.41 554.152,1055.07 557.143,1052.74 560.133,1050.42 563.123,1048.12 566.114,1045.82 569.104,1043.54 572.094,1041.26 575.085,1038.99 578.075,1036.74 581.065,1034.49 584.056,1032.26 587.046,1030.03 590.036,1027.81 593.027,1025.6 596.017,1023.41 599.007,1021.22 601.998,1019.04 604.988,1016.87 607.978,1014.7 610.969,1012.55 613.959,1010.41 616.949,1008.27 619.94,1006.14 622.93,1004.02 625.92,1001.91 628.911,999.807 631.901,997.712 634.891,995.625 637.882,993.545 640.872,991.473 643.862,989.409 646.853,987.352 649.843,985.302 652.833,983.26 655.824,981.224 658.814,979.196 661.804,977.175 664.795,975.16 667.785,973.152 670.776,971.15 673.766,969.155 676.756,967.167 679.747,965.184 682.737,963.208 685.727,961.237 688.718,959.273 691.708,957.314 694.698,955.361 697.689,953.413 700.679,951.471 703.669,949.535 706.66,947.603 709.65,945.677 712.64,943.755 715.631,941.839 718.621,939.927 721.611,938.02 724.602,936.118 727.592,934.22 730.582,932.326 733.573,930.436 736.563,928.551 739.553,926.67 742.544,924.792 745.534,922.919 748.524,921.049 751.515,919.182 754.505,917.319 757.495,915.46 760.486,913.604 763.476,911.75 766.466,909.9 769.457,908.053 772.447,906.208 775.437,904.367 778.428,902.527 781.418,900.691 784.408,898.856 787.399,897.024 790.389,895.194 793.379,893.366 796.37,891.54 799.36,889.716 802.35,887.893 805.341,886.072 808.331,884.253 811.321,882.434 814.312,880.618 817.302,878.802 820.292,876.987 823.283,875.173 826.273,873.36 829.263,871.548 832.254,869.736 835.244,867.925 838.234,866.114 841.225,864.303 844.215,862.493 847.205,860.683 850.196,858.872 853.186,857.061 856.176,855.25 859.167,853.439 862.157,851.627 865.147,849.815 868.138,848.001 871.128,846.187 874.118,844.372 877.109,842.556 880.099,840.739 883.089,838.92 886.08,837.1 889.07,835.279 892.061,833.456 895.051,831.631 898.041,829.804 901.032,827.976 904.022,826.145 907.012,824.312 910.003,822.477 912.993,820.64 915.983,818.8 918.974,816.957 921.964,815.112 924.954,813.264 927.945,811.412 930.935,809.558 933.925,807.701 936.916,805.84 939.906,803.976 942.896,802.109 945.887,800.238 948.877,798.363 951.867,796.485 954.858,794.602 957.848,792.716 960.838,790.825 963.829,788.93 966.819,787.03 969.809,785.127 972.8,783.218 975.79,781.305 978.78,779.387 981.771,777.464 984.761,775.536 987.751,773.603 990.742,771.665 993.732,769.721 996.722,767.772 999.713,765.817 1002.7,763.857 1005.69,761.89 1008.68,759.918 1011.67,757.94 1014.66,755.955 1017.65,753.965 1020.65,751.968 1023.64,749.964 1026.63,747.954 1029.62,745.937 1032.61,743.914 1035.6,741.883 1038.59,739.846 1041.58,737.801 1044.57,735.749 1047.56,733.69 1050.55,731.624 1053.54,729.549 1056.53,727.467 1059.52,725.378 1062.51,723.28 1065.5,721.174 1068.49,719.061 1071.48,716.938 1074.47,714.808 1077.46,712.669 1080.45,710.522 1083.44,708.366 1086.43,706.201 1089.42,704.027 1092.41,701.844 1095.4,699.652 1098.39,697.451 1101.38,695.241 1104.37,693.143 1107.36,691.52 1110.36,689.905 1113.35,688.298 1116.34,686.697 1119.33,685.104 1122.32,683.518 1125.31,681.939 1128.3,680.366 1131.29,678.801 1134.28,677.243 1137.27,675.691 1140.26,674.146 1143.25,672.608 1146.24,671.076 1149.23,669.551 1152.22,668.032 1155.21,666.52 1158.2,665.014 1161.19,663.514 1164.18,662.021 1167.17,660.534 1170.16,659.053 1173.15,657.577 1176.14,656.108 1179.13,654.645 1182.12,653.188 1185.11,651.737 1188.1,650.291 1191.09,648.851 1194.08,647.416 1197.07,645.988 1200.07,644.564 1203.06,643.146 1206.05,641.734 1209.04,640.327 1212.03,638.925 1215.02,637.528 1218.01,636.137 1221,634.75 1223.99,633.369 1226.98,631.992 1229.97,630.621 1232.96,629.254 1235.95,627.892 1238.94,626.535 1241.93,625.182 1244.92,623.834 1247.91,622.491 1250.9,621.152 1253.89,619.817 1256.88,618.487 1259.87,617.161 1262.86,615.839 1265.85,614.521 1268.84,613.208 1271.83,611.899 1274.82,610.593 1277.81,609.292 1280.8,607.994 1283.79,606.7 1286.79,605.41 1289.78,604.124 1292.77,602.841 1295.76,601.562 1298.75,600.286 1301.74,599.014 1304.73,597.745 1307.72,596.479 1310.71,595.217 1313.7,593.958 1316.69,592.702 1319.68,591.449 1322.67,590.199 1325.66,588.952 1328.65,587.708 1331.64,586.467 1334.63,585.228 1337.62,583.992 1340.61,582.759 1343.6,581.529 1346.59,580.301 1349.58,579.075 1352.57,577.852 1355.56,576.631 1358.55,575.413 1361.54,574.197 1364.53,572.983 1367.52,571.771 1370.51,570.561 1373.5,569.353 1376.5,568.147 1379.49,566.942 1382.48,565.74 1385.47,564.539 1388.46,563.34 1391.45,562.143 1394.44,560.947 1397.43,559.753 1400.42,558.56 1403.41,557.368 1406.4,556.178 1409.39,554.989 1412.38,553.801 1415.37,552.615 1418.36,551.429 1421.35,550.245 1424.34,549.061 1427.33,547.878 1430.32,546.696 1433.31,545.515 1436.3,544.335 1439.29,543.155 1442.28,541.976 1445.27,540.797 1448.26,539.619 1451.25,538.441 1454.24,537.264 1457.23,536.086 1460.22,534.909 1463.22,533.733 1466.21,532.556 1469.2,531.379 1472.19,530.202 1475.18,529.026 1478.17,527.849 1481.16,526.671 1484.15,525.494 1487.14,524.316 1490.13,523.138 1493.12,521.959 1496.11,520.78 1499.1,519.601 1502.09,518.42 1505.08,517.239 1508.07,516.057 1511.06,514.875 1514.05,513.691 1517.04,512.507 1520.03,511.322 1523.02,510.135 1526.01,508.948 1529,507.759 1531.99,506.569 1534.98,505.377 1537.97,504.185 1540.96,502.991 1543.95,501.795 1546.94,500.598 1549.93,499.399 1552.93,498.199 1555.92,496.997 1558.91,495.793 1561.9,494.587 1564.89,493.379 1567.88,492.17 1570.87,490.958 1573.86,489.744 1576.85,488.528 1579.84,487.31 1582.83,486.09 1585.82,484.867 1588.81,483.642 1591.8,482.414 1594.79,481.184 1597.78,479.952 1600.77,478.716 1603.76,477.478 1606.75,476.237 1609.74,474.994 1612.73,473.747 1615.72,472.498 1618.71,471.245 1621.7,469.99 1624.69,468.731 1627.68,467.469 1630.67,466.204 1633.66,464.936 1636.65,463.664 1639.64,462.389 1642.64,461.11 1645.63,459.828 1648.62,458.542 1651.61,457.253 1654.6,455.96 1657.59,454.663 1660.58,453.362 1663.57,452.057 1666.56,450.748 1669.55,449.435 1672.54,448.118 1675.53,446.797 1678.52,445.472 1681.51,444.142 1684.5,442.809 1687.49,441.47 1690.48,440.127 1693.47,438.78 1696.46,437.428 1699.45,436.072 1702.44,434.711 1705.43,433.345 1708.42,431.974 1711.41,430.598 1714.4,429.217 1717.39,427.832 1720.38,426.441 1723.37,425.045 1726.36,423.644 1729.36,422.238 1732.35,420.826 1735.34,419.409 1738.33,417.987 1741.32,416.559 1744.31,415.125 1747.3,413.686 1750.29,412.241 1753.28,410.791 1756.27,409.334 1759.26,407.872 1762.25,406.404 1765.24,404.93 1768.23,403.45 1771.22,401.964 1774.21,400.471 1777.2,398.972 1780.19,397.468 1783.18,396.386 1786.17,395.358 1789.16,394.334 1792.15,393.315 1795.14,392.3 1798.13,391.289 1801.12,390.283 1804.11,389.281 1807.1,388.283 1810.09,387.289 1813.08,386.3 1816.07,385.315 1819.07,384.334 1822.06,383.357 1825.05,382.384 1828.04,381.415 1831.03,380.451 1834.02,379.49 1837.01,378.533 1840,377.58 1842.99,376.632 1845.98,375.687 1848.97,374.746 1851.96,373.808 1854.95,372.875 1857.94,371.945 1860.93,371.019 1863.92,370.097 1866.91,369.179 1869.9,368.264 1872.89,367.353 1875.88,366.446 1878.87,365.542 1881.86,364.641 1884.85,363.744 1887.84,362.851 1890.83,361.961 1893.82,361.075 1896.81,360.192 1899.8,359.312 1902.79,358.436 1905.79,357.563 1908.78,356.693 1911.77,355.827 1914.76,354.964 1917.75,354.104 1920.74,353.247 1923.73,352.394 1926.72,351.543 1929.71,350.696 1932.7,349.852 1935.69,349.011 1938.68,348.172 1941.67,347.337 1944.66,346.505 1947.65,345.676 1950.64,344.849 1953.63,344.026 1956.62,343.205 1959.61,342.387 1962.6,341.572 1965.59,340.76 1968.58,339.95 1971.57,339.144 1974.56,338.339 1977.55,337.538 1980.54,336.739 1983.53,335.943 1986.52,335.149 1989.51,334.358 1992.5,333.569 1995.5,332.783 1998.49,331.999 2001.48,331.218 2004.47,330.439 2007.46,329.662 2010.45,328.888 2013.44,328.116 2016.43,327.346 2019.42,326.579 2022.41,325.813 2025.4,325.05 2028.39,324.29 2031.38,323.531 2034.37,322.774 2037.36,322.02 2040.35,321.267 2043.34,320.517 2046.33,319.768 2049.32,319.022 2052.31,318.277 2055.3,317.535 2058.29,316.794 2061.28,316.055 2064.27,315.318 2067.26,314.583 2070.25,313.849 2073.24,313.117 2076.23,312.387 2079.22,311.659 2082.21,310.932 2085.21,310.207 2088.2,309.484 2091.19,308.762 2094.18,308.041 2097.17,307.323 2100.16,306.605 2103.15,305.889 2106.14,305.175 2109.13,304.462 2112.12,303.75 2115.11,303.039 2118.1,302.33 2121.09,301.623 2124.08,300.916 2127.07,300.211 2130.06,299.507 2133.05,298.804 2136.04,298.102 2139.03,297.401 2142.02,296.702 2145.01,296.003 2148,295.306 2150.99,294.609 2153.98,293.914 2156.97,293.219 2159.96,292.525 2162.95,291.833 2165.94,291.141 2168.93,290.45 2171.93,289.759 2174.92,289.07 2177.91,288.381 2180.9,287.693 2183.89,287.006 2186.88,286.319 2189.87,285.633 2192.86,284.947 2195.85,284.263 2198.84,283.578 2201.83,282.894 2204.82,282.211 2207.81,281.528 2210.8,280.846 2213.79,280.164 2216.78,279.482 2219.77,278.801 2222.76,278.12 2225.75,277.439 2228.74,276.759 2231.73,276.078 2234.72,275.399 2237.71,274.719 2240.7,274.039 2243.69,273.36 2246.68,272.68 2249.67,272.001 2252.66,271.321 2255.65,270.642 2258.64,269.963 2261.64,269.283 2264.63,268.604 2267.62,267.924 2270.61,267.244 2273.6,266.565 2276.59,265.884 2279.58,265.204 2282.57,264.524 2285.56,263.843 2288.55,263.162 2291.54,262.48 2294.53,261.798 2297.52,261.116 2300.51,260.434 2303.5,259.75 2306.49,259.067 2309.48,258.383 2312.47,257.698 2315.46,257.013 2318.45,256.327 2321.44,255.641 2324.43,254.954 2327.42,254.266 2330.41,253.578 2333.4,252.889 2336.39,252.199 2339.38,251.508 2342.37,250.817 2345.36,250.125 2348.36,249.431 2351.35,248.737 2354.34,248.042 2357.33,247.346 2360.32,246.649 2363.31,245.951 2366.3,245.252 2369.29,244.552 2372.28,243.851 2375.27,243.149 2378.26,242.445 2381.25,241.741 2384.24,241.035 2387.23,240.328 2390.22,239.619 2393.21,238.91 2396.2,238.199 2399.19,237.486 2402.18,236.773 2405.17,236.057 2408.16,235.341 2411.15,234.623 2414.14,233.903 2417.13,233.182 2420.12,232.459 2423.11,231.735 2426.1,231.009 2429.09,230.282 2432.08,229.553 2435.07,228.822 2438.07,228.089 2441.06,227.355 2444.05,226.619 2447.04,225.881 2450.03,225.141 2453.02,224.4 2456.01,223.656 2459,222.911 2461.99,222.163 2464.98,221.414 2467.97,220.662 2470.96,219.909 2473.95,219.154 2476.94,218.396 2479.93,217.636 2482.92,216.874 2485.91,216.11 2488.9,215.344 2491.89,214.576 2494.88,213.805 2497.87,213.032 2500.86,212.257 2503.85,211.479 2506.84,210.699 2509.83,209.916 2512.82,209.131 2515.81,208.344 2518.8,207.554 2521.79,206.762 2524.78,205.967 2527.78,205.169 2530.77,204.369 2533.76,203.567 2536.75,202.761 2539.74,201.953 2542.73,201.142 2545.72,200.329 2548.71,199.512 2551.7,198.693 2554.69,197.871 2557.68,197.046 2560.67,196.219 2563.66,195.388 2566.65,194.554 2569.64,193.718 2572.63,192.878 2575.62,192.036 2578.61,191.19 2581.6,190.341 2584.59,189.489 2587.58,188.634 2590.57,187.776 2593.56,186.915 2596.55,186.05 2599.54,185.182 2602.53,184.311 2605.52,183.437 2608.51,182.559 2611.5,181.678 2614.5,180.793 2617.49,179.905 2620.48,179.014 2623.47,178.119 2626.46,177.22 2629.45,176.318 2632.44,175.413 2635.43,174.503 2638.42,173.591 2641.41,172.674 2644.4,171.754 2647.39,170.83 2650.38,169.903 2653.37,168.971 2656.36,168.054 2659.35,167.48 2662.34,166.909 2665.33,166.34 2668.32,165.774 2671.31,165.21 2674.3,164.649 2677.29,164.091 2680.28,163.535 2683.27,162.982 2686.26,162.431 2689.25,161.882 2692.24,161.336 2695.23,160.793 2698.22,160.251 2701.21,159.712 2704.21,159.175 2707.2,158.641 2710.19,158.108 2713.18,157.578 2716.17,157.05 2719.16,156.524 2722.15,156 2725.14,155.479 2728.13,154.959 2731.12,154.441 2734.11,153.925 2737.1,153.411 2740.09,152.899 2743.08,152.389 2746.07,151.881 2749.06,151.375 2752.05,150.87 2755.04,150.367 2758.03,149.866 2761.02,149.366 2764.01,148.868 2767,148.372 2769.99,147.878 2772.98,147.385 2775.97,146.893 2778.96,146.403 2781.95,145.914 2784.94,145.427 2787.93,144.942 2790.93,144.457 2793.92,143.974 2796.91,143.493 2799.9,143.012 2802.89,142.533 2805.88,142.055 2808.87,141.579 2811.86,141.103 2814.85,140.629 2817.84,140.156 2820.83,139.683 2823.82,139.212 2826.81,138.742 2829.8,138.273 2832.79,137.805 2835.78,137.338 2838.77,136.871 2841.76,136.406 2844.75,135.941 2847.74,135.477 2850.73,135.014 2853.72,134.552 2856.71,134.09 2859.7,133.629 2862.69,133.168 2865.68,132.709 2868.67,132.25 2871.66,131.791 2874.65,131.333 2877.64,130.875 2880.64,130.418 2883.63,129.961 2886.62,129.505 2889.61,129.049 2892.6,128.594 2895.59,128.138 2898.58,127.683 2901.57,127.228 2904.56,126.774 2907.55,126.32 2910.54,125.865 2913.53,125.411 2916.52,124.957 2919.51,124.503 2922.5,124.049 2925.49,123.595 2928.48,123.142 2931.47,122.688 2934.46,122.233 2937.45,121.779 2940.44,121.325 2943.43,120.87 2946.42,120.416 2949.41,119.961 2952.4,119.505 2955.39,119.05 2958.38,118.594 2961.37,118.137 2964.36,117.681 2967.35,117.224 2970.35,116.766 2973.34,116.308 2976.33,115.849 2979.32,115.39 2982.31,114.931 2985.3,114.47 2988.29,114.009 2991.28,113.548 2994.27,113.085 2997.26,112.622 3000.25,112.158 3003.24,111.694 3006.23,111.228 3009.22,110.762 3012.21,110.295 3015.2,109.826 3018.19,109.357 3021.18,108.887 3024.17,108.416 3027.16,107.944 3030.15,107.471 3033.14,106.996 3036.13,106.521 3039.12,106.044 3042.11,105.567 3045.1,105.088 3048.09,104.607 3051.08,104.126 3054.07,103.643 3057.07,103.158 3060.06,102.673 3063.05,102.186 3066.04,101.697 3069.03,101.207 3072.02,100.716 3075.01,100.223 3078,99.7284 3080.99,99.2322 3083.98,98.7345 3086.97,98.235 3089.96,97.7339 3092.95,97.2311 3095.94,96.7265 3098.93,96.2201 3101.92,95.7119 3104.91,95.2019 3107.9,94.69 3110.89,94.1763 3113.88,93.6605 3116.87,93.1429 3119.86,92.6232 3122.85,92.1015 3125.84,91.5777 3128.83,91.0519 3131.82,90.5239 3134.81,89.9938 3137.8,89.4616 3140.79,88.9271 3143.78,88.3903 3146.78,87.8514 3149.77,87.3101 3152.76,86.7664 "/>
<path clip-path="url(#clip790)" d="M264.987 197.473 L593.305 197.473 L593.305 93.7926 L264.987 93.7926  Z" fill="#ffffff" fill-rule="evenodd" fill-opacity="1"/>
<polyline clip-path="url(#clip790)" style="stroke:#000000; stroke-linecap:round; stroke-linejoin:round; stroke-width:4; stroke-opacity:1; fill:none" points="264.987,197.473 593.305,197.473 593.305,93.7926 264.987,93.7926 264.987,197.473 "/>
<polyline clip-path="url(#clip790)" style="stroke:#009af9; stroke-linecap:round; stroke-linejoin:round; stroke-width:12; stroke-opacity:1; fill:none" points="298.179,145.633 497.336,145.633 "/>
<path clip-path="url(#clip790)" d="M532.103 128.353 L537.126 128.353 L545.714 141.2 L554.348 128.353 L559.371 128.353 L548.26 144.95 L560.112 162.913 L555.089 162.913 L545.367 148.214 L535.575 162.913 L530.529 162.913 L542.867 144.464 L532.103 128.353 Z" fill="#000000" fill-rule="nonzero" fill-opacity="1" /></svg>
