<?xml version="1.0" encoding="utf-8"?>
<svg xmlns="http://www.w3.org/2000/svg" xmlns:xlink="http://www.w3.org/1999/xlink" width="800" height="400" viewBox="0 0 3200 1600">
<defs>
  <clipPath id="clip920">
    <rect x="0" y="0" width="3200" height="1600"/>
  </clipPath>
</defs>
<path clip-path="url(#clip920)" d="M0 1600 L3200 1600 L3200 0 L0 0  Z" fill="#ffffff" fill-rule="evenodd" fill-opacity="1"/>
<defs>
  <clipPath id="clip921">
    <rect x="640" y="0" width="2241" height="1600"/>
  </clipPath>
</defs>
<path clip-path="url(#clip920)" d="M178.857 1495.09 L1484.97 1495.09 L1484.97 108.352 L178.857 108.352  Z" fill="#ffffff" fill-rule="evenodd" fill-opacity="1"/>
<defs>
  <clipPath id="clip922">
    <rect x="178" y="108" width="1307" height="1388"/>
  </clipPath>
</defs>
<polyline clip-path="url(#clip922)" style="stroke:#000000; stroke-linecap:round; stroke-linejoin:round; stroke-width:2; stroke-opacity:0.1; fill:none" points="357.177,1495.09 357.177,108.352 "/>
<polyline clip-path="url(#clip922)" style="stroke:#000000; stroke-linecap:round; stroke-linejoin:round; stroke-width:2; stroke-opacity:0.1; fill:none" points="831.912,1495.09 831.912,108.352 "/>
<polyline clip-path="url(#clip922)" style="stroke:#000000; stroke-linecap:round; stroke-linejoin:round; stroke-width:2; stroke-opacity:0.1; fill:none" points="1306.65,1495.09 1306.65,108.352 "/>
<polyline clip-path="url(#clip922)" style="stroke:#000000; stroke-linecap:round; stroke-linejoin:round; stroke-width:2; stroke-opacity:0.1; fill:none" points="357.177,1495.09 357.177,108.352 "/>
<polyline clip-path="url(#clip922)" style="stroke:#000000; stroke-linecap:round; stroke-linejoin:round; stroke-width:2; stroke-opacity:0.1; fill:none" points="831.912,1495.09 831.912,108.352 "/>
<polyline clip-path="url(#clip922)" style="stroke:#000000; stroke-linecap:round; stroke-linejoin:round; stroke-width:2; stroke-opacity:0.1; fill:none" points="1306.65,1495.09 1306.65,108.352 "/>
<polyline clip-path="url(#clip920)" style="stroke:#000000; stroke-linecap:round; stroke-linejoin:round; stroke-width:4; stroke-opacity:1; fill:none" points="178.857,1495.09 1484.97,1495.09 "/>
<polyline clip-path="url(#clip920)" style="stroke:#000000; stroke-linecap:round; stroke-linejoin:round; stroke-width:4; stroke-opacity:1; fill:none" points="178.857,108.352 1484.97,108.352 "/>
<polyline clip-path="url(#clip920)" style="stroke:#000000; stroke-linecap:round; stroke-linejoin:round; stroke-width:4; stroke-opacity:1; fill:none" points="357.177,1495.09 357.177,1476.19 "/>
<polyline clip-path="url(#clip920)" style="stroke:#000000; stroke-linecap:round; stroke-linejoin:round; stroke-width:4; stroke-opacity:1; fill:none" points="831.912,1495.09 831.912,1476.19 "/>
<polyline clip-path="url(#clip920)" style="stroke:#000000; stroke-linecap:round; stroke-linejoin:round; stroke-width:4; stroke-opacity:1; fill:none" points="1306.65,1495.09 1306.65,1476.19 "/>
<polyline clip-path="url(#clip920)" style="stroke:#000000; stroke-linecap:round; stroke-linejoin:round; stroke-width:4; stroke-opacity:1; fill:none" points="357.177,108.352 357.177,127.25 "/>
<polyline clip-path="url(#clip920)" style="stroke:#000000; stroke-linecap:round; stroke-linejoin:round; stroke-width:4; stroke-opacity:1; fill:none" points="831.912,108.352 831.912,127.25 "/>
<polyline clip-path="url(#clip920)" style="stroke:#000000; stroke-linecap:round; stroke-linejoin:round; stroke-width:4; stroke-opacity:1; fill:none" points="1306.65,108.352 1306.65,127.25 "/>
<path clip-path="url(#clip920)" d="M350.255 1562.29 L350.255 1573.75 L345.973 1573.75 L345.973 1538.12 Q345.973 1527.57 355.834 1527.57 Q365.88 1527.57 365.88 1536.48 Q365.88 1542.82 361.899 1545.14 Q368.38 1547.22 368.38 1553.4 Q368.38 1564.37 357.223 1564.37 Q352.316 1564.37 350.255 1562.29 M350.255 1556.74 Q352.825 1560.74 357.385 1560.74 Q364.052 1560.74 364.052 1553.47 Q364.052 1546.94 353.311 1547.45 L353.311 1543.52 Q361.714 1543.52 361.714 1536.11 Q361.714 1531.04 356.297 1531.04 Q350.255 1531.04 350.255 1538.26 L350.255 1556.74 Z" fill="#000000" fill-rule="nonzero" fill-opacity="1" /><path clip-path="url(#clip920)" d="M834.366 1550.86 Q829.204 1550.86 827.213 1552.04 Q825.222 1553.22 825.222 1556.06 Q825.222 1558.33 826.704 1559.67 Q828.208 1560.99 830.778 1560.99 Q834.32 1560.99 836.449 1558.49 Q838.602 1555.97 838.602 1551.8 L838.602 1550.86 L834.366 1550.86 M842.861 1549.1 L842.861 1563.89 L838.602 1563.89 L838.602 1559.95 Q837.144 1562.31 834.968 1563.45 Q832.792 1564.56 829.644 1564.56 Q825.662 1564.56 823.301 1562.34 Q820.963 1560.09 820.963 1556.34 Q820.963 1551.97 823.88 1549.74 Q826.82 1547.52 832.63 1547.52 L838.602 1547.52 L838.602 1547.11 Q838.602 1544.17 836.658 1542.57 Q834.736 1540.95 831.241 1540.95 Q829.019 1540.95 826.912 1541.48 Q824.806 1542.01 822.861 1543.08 L822.861 1539.14 Q825.199 1538.24 827.398 1537.8 Q829.597 1537.34 831.681 1537.34 Q837.306 1537.34 840.083 1540.25 Q842.861 1543.17 842.861 1549.1 Z" fill="#000000" fill-rule="nonzero" fill-opacity="1" /><path clip-path="url(#clip920)" d="M1301.31 1542.04 L1306.98 1558.05 L1315.09 1537.96 L1319.6 1537.96 L1309.11 1563.89 L1309.11 1573.75 L1304.85 1573.75 L1304.85 1563.89 L1298.05 1544.54 Q1297.03 1541.62 1294.83 1541.62 L1293.7 1541.62 L1293.7 1537.96 L1295.32 1537.96 Q1299.88 1537.96 1301.31 1542.04 Z" fill="#000000" fill-rule="nonzero" fill-opacity="1" /><polyline clip-path="url(#clip922)" style="stroke:#000000; stroke-linecap:round; stroke-linejoin:round; stroke-width:2; stroke-opacity:0.1; fill:none" points="178.857,1495.09 1484.97,1495.09 "/>
<polyline clip-path="url(#clip922)" style="stroke:#000000; stroke-linecap:round; stroke-linejoin:round; stroke-width:2; stroke-opacity:0.1; fill:none" points="178.857,1066.78 1484.97,1066.78 "/>
<polyline clip-path="url(#clip922)" style="stroke:#000000; stroke-linecap:round; stroke-linejoin:round; stroke-width:2; stroke-opacity:0.1; fill:none" points="178.857,638.465 1484.97,638.465 "/>
<polyline clip-path="url(#clip922)" style="stroke:#000000; stroke-linecap:round; stroke-linejoin:round; stroke-width:2; stroke-opacity:0.1; fill:none" points="178.857,210.153 1484.97,210.153 "/>
<polyline clip-path="url(#clip922)" style="stroke:#000000; stroke-linecap:round; stroke-linejoin:round; stroke-width:2; stroke-opacity:0.1; fill:none" points="178.857,1495.09 1484.97,1495.09 "/>
<polyline clip-path="url(#clip922)" style="stroke:#000000; stroke-linecap:round; stroke-linejoin:round; stroke-width:2; stroke-opacity:0.1; fill:none" points="178.857,1066.78 1484.97,1066.78 "/>
<polyline clip-path="url(#clip922)" style="stroke:#000000; stroke-linecap:round; stroke-linejoin:round; stroke-width:2; stroke-opacity:0.1; fill:none" points="178.857,638.465 1484.97,638.465 "/>
<polyline clip-path="url(#clip922)" style="stroke:#000000; stroke-linecap:round; stroke-linejoin:round; stroke-width:2; stroke-opacity:0.1; fill:none" points="178.857,210.153 1484.97,210.153 "/>
<polyline clip-path="url(#clip920)" style="stroke:#000000; stroke-linecap:round; stroke-linejoin:round; stroke-width:4; stroke-opacity:1; fill:none" points="178.857,1495.09 178.857,108.352 "/>
<polyline clip-path="url(#clip920)" style="stroke:#000000; stroke-linecap:round; stroke-linejoin:round; stroke-width:4; stroke-opacity:1; fill:none" points="1484.97,1495.09 1484.97,108.352 "/>
<polyline clip-path="url(#clip920)" style="stroke:#000000; stroke-linecap:round; stroke-linejoin:round; stroke-width:4; stroke-opacity:1; fill:none" points="178.857,1495.09 197.755,1495.09 "/>
<polyline clip-path="url(#clip920)" style="stroke:#000000; stroke-linecap:round; stroke-linejoin:round; stroke-width:4; stroke-opacity:1; fill:none" points="178.857,1066.78 197.755,1066.78 "/>
<polyline clip-path="url(#clip920)" style="stroke:#000000; stroke-linecap:round; stroke-linejoin:round; stroke-width:4; stroke-opacity:1; fill:none" points="178.857,638.465 197.755,638.465 "/>
<polyline clip-path="url(#clip920)" style="stroke:#000000; stroke-linecap:round; stroke-linejoin:round; stroke-width:4; stroke-opacity:1; fill:none" points="178.857,210.153 197.755,210.153 "/>
<polyline clip-path="url(#clip920)" style="stroke:#000000; stroke-linecap:round; stroke-linejoin:round; stroke-width:4; stroke-opacity:1; fill:none" points="1484.97,1495.09 1466.07,1495.09 "/>
<polyline clip-path="url(#clip920)" style="stroke:#000000; stroke-linecap:round; stroke-linejoin:round; stroke-width:4; stroke-opacity:1; fill:none" points="1484.97,1066.78 1466.07,1066.78 "/>
<polyline clip-path="url(#clip920)" style="stroke:#000000; stroke-linecap:round; stroke-linejoin:round; stroke-width:4; stroke-opacity:1; fill:none" points="1484.97,638.465 1466.07,638.465 "/>
<polyline clip-path="url(#clip920)" style="stroke:#000000; stroke-linecap:round; stroke-linejoin:round; stroke-width:4; stroke-opacity:1; fill:none" points="1484.97,210.153 1466.07,210.153 "/>
<path clip-path="url(#clip920)" d="M118.913 1480.89 Q115.302 1480.89 113.473 1484.45 Q111.668 1487.99 111.668 1495.12 Q111.668 1502.23 113.473 1505.79 Q115.302 1509.34 118.913 1509.34 Q122.547 1509.34 124.353 1505.79 Q126.182 1502.23 126.182 1495.12 Q126.182 1487.99 124.353 1484.45 Q122.547 1480.89 118.913 1480.89 M118.913 1477.18 Q124.723 1477.18 127.779 1481.79 Q130.857 1486.37 130.857 1495.12 Q130.857 1503.85 127.779 1508.46 Q124.723 1513.04 118.913 1513.04 Q113.103 1513.04 110.024 1508.46 Q106.969 1503.85 106.969 1495.12 Q106.969 1486.37 110.024 1481.79 Q113.103 1477.18 118.913 1477.18 Z" fill="#000000" fill-rule="nonzero" fill-opacity="1" /><path clip-path="url(#clip920)" d="M49.3995 1080.12 L57.0384 1080.12 L57.0384 1053.76 L48.7282 1055.42 L48.7282 1051.16 L56.9921 1049.5 L61.668 1049.5 L61.668 1080.12 L69.3068 1080.12 L69.3068 1084.06 L49.3995 1084.06 L49.3995 1080.12 Z" fill="#000000" fill-rule="nonzero" fill-opacity="1" /><path clip-path="url(#clip920)" d="M88.7512 1052.58 Q85.1401 1052.58 83.3114 1056.14 Q81.5058 1059.68 81.5058 1066.81 Q81.5058 1073.92 83.3114 1077.48 Q85.1401 1081.02 88.7512 1081.02 Q92.3854 1081.02 94.1909 1077.48 Q96.0196 1073.92 96.0196 1066.81 Q96.0196 1059.68 94.1909 1056.14 Q92.3854 1052.58 88.7512 1052.58 M88.7512 1048.87 Q94.5613 1048.87 97.6169 1053.48 Q100.696 1058.06 100.696 1066.81 Q100.696 1075.54 97.6169 1080.14 Q94.5613 1084.73 88.7512 1084.73 Q82.941 1084.73 79.8623 1080.14 Q76.8068 1075.54 76.8068 1066.81 Q76.8068 1058.06 79.8623 1053.48 Q82.941 1048.87 88.7512 1048.87 Z" fill="#000000" fill-rule="nonzero" fill-opacity="1" /><path clip-path="url(#clip920)" d="M118.913 1052.58 Q115.302 1052.58 113.473 1056.14 Q111.668 1059.68 111.668 1066.81 Q111.668 1073.92 113.473 1077.48 Q115.302 1081.02 118.913 1081.02 Q122.547 1081.02 124.353 1077.48 Q126.182 1073.92 126.182 1066.81 Q126.182 1059.68 124.353 1056.14 Q122.547 1052.58 118.913 1052.58 M118.913 1048.87 Q124.723 1048.87 127.779 1053.48 Q130.857 1058.06 130.857 1066.81 Q130.857 1075.54 127.779 1080.14 Q124.723 1084.73 118.913 1084.73 Q113.103 1084.73 110.024 1080.14 Q106.969 1075.54 106.969 1066.81 Q106.969 1058.06 110.024 1053.48 Q113.103 1048.87 118.913 1048.87 Z" fill="#000000" fill-rule="nonzero" fill-opacity="1" /><path clip-path="url(#clip920)" d="M52.6171 651.81 L68.9365 651.81 L68.9365 655.745 L46.9921 655.745 L46.9921 651.81 Q49.6541 649.055 54.2375 644.425 Q58.8439 639.773 60.0245 638.43 Q62.2698 635.907 63.1494 634.171 Q64.0522 632.412 64.0522 630.722 Q64.0522 627.967 62.1078 626.231 Q60.1865 624.495 57.0847 624.495 Q54.8856 624.495 52.4319 625.259 Q50.0014 626.023 47.2236 627.574 L47.2236 622.852 Q50.0477 621.717 52.5014 621.139 Q54.955 620.56 56.9921 620.56 Q62.3624 620.56 65.5568 623.245 Q68.7513 625.93 68.7513 630.421 Q68.7513 632.551 67.9411 634.472 Q67.1541 636.37 65.0476 638.963 Q64.4689 639.634 61.367 642.851 Q58.2652 646.046 52.6171 651.81 Z" fill="#000000" fill-rule="nonzero" fill-opacity="1" /><path clip-path="url(#clip920)" d="M88.7512 624.264 Q85.1401 624.264 83.3114 627.828 Q81.5058 631.37 81.5058 638.5 Q81.5058 645.606 83.3114 649.171 Q85.1401 652.712 88.7512 652.712 Q92.3854 652.712 94.1909 649.171 Q96.0196 645.606 96.0196 638.5 Q96.0196 631.37 94.1909 627.828 Q92.3854 624.264 88.7512 624.264 M88.7512 620.56 Q94.5613 620.56 97.6169 625.166 Q100.696 629.75 100.696 638.5 Q100.696 647.226 97.6169 651.833 Q94.5613 656.416 88.7512 656.416 Q82.941 656.416 79.8623 651.833 Q76.8068 647.226 76.8068 638.5 Q76.8068 629.75 79.8623 625.166 Q82.941 620.56 88.7512 620.56 Z" fill="#000000" fill-rule="nonzero" fill-opacity="1" /><path clip-path="url(#clip920)" d="M118.913 624.264 Q115.302 624.264 113.473 627.828 Q111.668 631.37 111.668 638.5 Q111.668 645.606 113.473 649.171 Q115.302 652.712 118.913 652.712 Q122.547 652.712 124.353 649.171 Q126.182 645.606 126.182 638.5 Q126.182 631.37 124.353 627.828 Q122.547 624.264 118.913 624.264 M118.913 620.56 Q124.723 620.56 127.779 625.166 Q130.857 629.75 130.857 638.5 Q130.857 647.226 127.779 651.833 Q124.723 656.416 118.913 656.416 Q113.103 656.416 110.024 651.833 Q106.969 647.226 106.969 638.5 Q106.969 629.75 110.024 625.166 Q113.103 620.56 118.913 620.56 Z" fill="#000000" fill-rule="nonzero" fill-opacity="1" /><path clip-path="url(#clip920)" d="M62.7559 208.799 Q66.1124 209.517 67.9874 211.785 Q69.8855 214.054 69.8855 217.387 Q69.8855 222.503 66.367 225.304 Q62.8485 228.105 56.3671 228.105 Q54.1912 228.105 51.8764 227.665 Q49.5847 227.248 47.131 226.392 L47.131 221.878 Q49.0754 223.012 51.3903 223.591 Q53.7051 224.17 56.2282 224.17 Q60.6263 224.17 62.918 222.433 Q65.2328 220.697 65.2328 217.387 Q65.2328 214.332 63.08 212.619 Q60.9504 210.883 57.131 210.883 L53.1032 210.883 L53.1032 207.04 L57.3161 207.04 Q60.7652 207.04 62.5939 205.674 Q64.4226 204.285 64.4226 201.693 Q64.4226 199.031 62.5245 197.619 Q60.6495 196.184 57.131 196.184 Q55.2097 196.184 53.0106 196.6 Q50.8115 197.017 48.1727 197.896 L48.1727 193.73 Q50.8347 192.989 53.1495 192.619 Q55.4875 192.248 57.5476 192.248 Q62.8717 192.248 65.9735 194.679 Q69.0753 197.086 69.0753 201.207 Q69.0753 204.077 67.4318 206.068 Q65.7883 208.035 62.7559 208.799 Z" fill="#000000" fill-rule="nonzero" fill-opacity="1" /><path clip-path="url(#clip920)" d="M88.7512 195.952 Q85.1401 195.952 83.3114 199.517 Q81.5058 203.059 81.5058 210.188 Q81.5058 217.295 83.3114 220.859 Q85.1401 224.401 88.7512 224.401 Q92.3854 224.401 94.1909 220.859 Q96.0196 217.295 96.0196 210.188 Q96.0196 203.059 94.1909 199.517 Q92.3854 195.952 88.7512 195.952 M88.7512 192.248 Q94.5613 192.248 97.6169 196.855 Q100.696 201.438 100.696 210.188 Q100.696 218.915 97.6169 223.521 Q94.5613 228.105 88.7512 228.105 Q82.941 228.105 79.8623 223.521 Q76.8068 218.915 76.8068 210.188 Q76.8068 201.438 79.8623 196.855 Q82.941 192.248 88.7512 192.248 Z" fill="#000000" fill-rule="nonzero" fill-opacity="1" /><path clip-path="url(#clip920)" d="M118.913 195.952 Q115.302 195.952 113.473 199.517 Q111.668 203.059 111.668 210.188 Q111.668 217.295 113.473 220.859 Q115.302 224.401 118.913 224.401 Q122.547 224.401 124.353 220.859 Q126.182 217.295 126.182 210.188 Q126.182 203.059 124.353 199.517 Q122.547 195.952 118.913 195.952 M118.913 192.248 Q124.723 192.248 127.779 196.855 Q130.857 201.438 130.857 210.188 Q130.857 218.915 127.779 223.521 Q124.723 228.105 118.913 228.105 Q113.103 228.105 110.024 223.521 Q106.969 218.915 106.969 210.188 Q106.969 201.438 110.024 196.855 Q113.103 192.248 118.913 192.248 Z" fill="#000000" fill-rule="nonzero" fill-opacity="1" /><path clip-path="url(#clip920)" d="M789.54 89.8329 L789.54 27.2059 L796.993 27.2059 L796.993 55.4002 Q796.993 61.274 799.788 64.2716 Q802.584 67.2693 808.052 67.2693 Q814.048 67.2693 817.045 63.8666 Q820.084 60.4638 820.084 53.6583 L820.084 27.2059 L827.537 27.2059 L827.537 62.1247 Q827.537 64.5552 828.226 65.73 Q828.955 66.8642 830.454 66.8642 Q830.818 66.8642 831.467 66.6617 Q832.115 66.4186 833.249 65.9325 L833.249 71.9279 Q831.588 72.8596 830.089 73.3052 Q828.631 73.7508 827.213 73.7508 Q824.418 73.7508 822.757 72.1709 Q821.096 70.5911 820.489 67.3503 Q818.463 70.5505 815.506 72.1709 Q812.589 73.7508 808.619 73.7508 Q804.488 73.7508 801.571 72.1709 Q798.695 70.5911 796.993 67.4314 L796.993 89.8329 L789.54 89.8329 Z" fill="#000000" fill-rule="nonzero" fill-opacity="1" /><path clip-path="url(#clip920)" d="M874.285 22.0612 L859.742 29.92 L874.285 37.8192 L871.935 41.7891 L858.324 33.5658 L858.324 48.8377 L853.706 48.8377 L853.706 33.5658 L840.095 41.7891 L837.745 37.8192 L852.288 29.92 L837.745 22.0612 L840.095 18.0508 L853.706 26.2742 L853.706 11.0023 L858.324 11.0023 L858.324 26.2742 L871.935 18.0508 L874.285 22.0612 Z" fill="#000000" fill-rule="nonzero" fill-opacity="1" /><path clip-path="url(#clip922)" d="M223.824 1268.61 L223.824 1495.09 L490.529 1495.09 L490.529 1268.61 L223.824 1268.61 L223.824 1268.61  Z" fill="#009af9" fill-rule="evenodd" fill-opacity="1"/>
<polyline clip-path="url(#clip922)" style="stroke:#000000; stroke-linecap:round; stroke-linejoin:round; stroke-width:12; stroke-opacity:1; fill:none" points="223.824,1268.61 223.824,1495.09 490.529,1495.09 490.529,1268.61 223.824,1268.61 "/>
<circle clip-path="url(#clip922)" style="fill:#009af9; stroke:none; fill-opacity:0" cx="357.177" cy="1268.61" r="2"/>
<path clip-path="url(#clip922)" d="M698.559 263.86 L698.559 1495.09 L965.265 1495.09 L965.265 263.86 L698.559 263.86 L698.559 263.86  Z" fill="#e26f46" fill-rule="evenodd" fill-opacity="1"/>
<polyline clip-path="url(#clip922)" style="stroke:#000000; stroke-linecap:round; stroke-linejoin:round; stroke-width:12; stroke-opacity:1; fill:none" points="698.559,263.86 698.559,1495.09 965.265,1495.09 965.265,263.86 698.559,263.86 "/>
<circle clip-path="url(#clip922)" style="fill:#e26f46; stroke:none; fill-opacity:0" cx="831.912" cy="263.86" r="2"/>
<path clip-path="url(#clip922)" d="M1173.3 108.352 L1173.3 1495.09 L1440 1495.09 L1440 108.352 L1173.3 108.352 L1173.3 108.352  Z" fill="#3da44d" fill-rule="evenodd" fill-opacity="1"/>
<polyline clip-path="url(#clip922)" style="stroke:#000000; stroke-linecap:round; stroke-linejoin:round; stroke-width:12; stroke-opacity:1; fill:none" points="1173.3,108.352 1173.3,1495.09 1440,1495.09 1440,108.352 1173.3,108.352 "/>
<circle clip-path="url(#clip922)" style="fill:#3da44d; stroke:none; fill-opacity:0" cx="1306.65" cy="108.352" r="2"/>
<path clip-path="url(#clip920)" d="M222.394 361.937 L378.908 361.937 L378.908 154.577 L222.394 154.577  Z" fill="#ffffff" fill-rule="evenodd" fill-opacity="1"/>
<polyline clip-path="url(#clip920)" style="stroke:#000000; stroke-linecap:round; stroke-linejoin:round; stroke-width:4; stroke-opacity:1; fill:none" points="222.394,361.937 378.908,361.937 378.908,154.577 222.394,154.577 222.394,361.937 "/>
<path clip-path="url(#clip920)" d="M236.907 227.153 L323.981 227.153 L323.981 185.681 L236.907 185.681 L236.907 227.153  Z" fill="#009af9" fill-rule="evenodd" fill-opacity="1"/>
<polyline clip-path="url(#clip920)" style="stroke:#000000; stroke-linecap:round; stroke-linejoin:round; stroke-width:12; stroke-opacity:1; fill:none" points="236.907,227.153 323.981,227.153 323.981,185.681 236.907,185.681 236.907,227.153 "/>
<path clip-path="url(#clip920)" d="M342.775 222.099 L342.775 233.558 L338.493 233.558 L338.493 197.933 Q338.493 187.377 348.354 187.377 Q358.4 187.377 358.4 196.289 Q358.4 202.632 354.419 204.947 Q360.9 207.03 360.9 213.211 Q360.9 224.183 349.743 224.183 Q344.836 224.183 342.775 222.099 M342.775 216.544 Q345.345 220.549 349.905 220.549 Q356.572 220.549 356.572 213.28 Q356.572 206.752 345.831 207.262 L345.831 203.326 Q354.234 203.326 354.234 195.919 Q354.234 190.85 348.817 190.85 Q342.775 190.85 342.775 198.072 L342.775 216.544 Z" fill="#000000" fill-rule="nonzero" fill-opacity="1" /><path clip-path="url(#clip920)" d="M236.907 278.993 L323.981 278.993 L323.981 237.521 L236.907 237.521 L236.907 278.993  Z" fill="#e26f46" fill-rule="evenodd" fill-opacity="1"/>
<polyline clip-path="url(#clip920)" style="stroke:#000000; stroke-linecap:round; stroke-linejoin:round; stroke-width:12; stroke-opacity:1; fill:none" points="236.907,278.993 323.981,278.993 323.981,237.521 236.907,237.521 236.907,278.993 "/>
<path clip-path="url(#clip920)" d="M351.896 262.504 Q346.734 262.504 344.743 263.685 Q342.752 264.865 342.752 267.713 Q342.752 269.981 344.234 271.324 Q345.738 272.643 348.308 272.643 Q351.849 272.643 353.979 270.143 Q356.132 267.62 356.132 263.453 L356.132 262.504 L351.896 262.504 M360.391 260.745 L360.391 275.537 L356.132 275.537 L356.132 271.601 Q354.673 273.963 352.498 275.097 Q350.322 276.208 347.174 276.208 Q343.192 276.208 340.831 273.986 Q338.493 271.74 338.493 267.99 Q338.493 263.615 341.41 261.393 Q344.349 259.171 350.16 259.171 L356.132 259.171 L356.132 258.754 Q356.132 255.815 354.187 254.217 Q352.266 252.597 348.771 252.597 Q346.549 252.597 344.442 253.129 Q342.336 253.662 340.391 254.727 L340.391 250.791 Q342.729 249.889 344.928 249.449 Q347.127 248.986 349.211 248.986 Q354.836 248.986 357.613 251.903 Q360.391 254.819 360.391 260.745 Z" fill="#000000" fill-rule="nonzero" fill-opacity="1" /><path clip-path="url(#clip920)" d="M236.907 330.833 L323.981 330.833 L323.981 289.361 L236.907 289.361 L236.907 330.833  Z" fill="#3da44d" fill-rule="evenodd" fill-opacity="1"/>
<polyline clip-path="url(#clip920)" style="stroke:#000000; stroke-linecap:round; stroke-linejoin:round; stroke-width:12; stroke-opacity:1; fill:none" points="236.907,330.833 323.981,330.833 323.981,289.361 236.907,289.361 236.907,330.833 "/>
<path clip-path="url(#clip920)" d="M346.109 305.525 L351.78 321.543 L359.882 301.451 L364.396 301.451 L353.91 327.377 L353.91 337.238 L349.65 337.238 L349.65 327.377 L342.845 308.025 Q341.826 305.108 339.627 305.108 L338.493 305.108 L338.493 301.451 L340.113 301.451 Q344.674 301.451 346.109 305.525 Z" fill="#000000" fill-rule="nonzero" fill-opacity="1" /><path clip-path="url(#clip920)" d="M1846.65 1495.09 L3152.76 1495.09 L3152.76 108.352 L1846.65 108.352  Z" fill="#ffffff" fill-rule="evenodd" fill-opacity="1"/>
<defs>
  <clipPath id="clip923">
    <rect x="1846" y="108" width="1307" height="1388"/>
  </clipPath>
</defs>
<polyline clip-path="url(#clip923)" style="stroke:#000000; stroke-linecap:round; stroke-linejoin:round; stroke-width:2; stroke-opacity:0.1; fill:none" points="2024.97,1495.09 2024.97,108.352 "/>
<polyline clip-path="url(#clip923)" style="stroke:#000000; stroke-linecap:round; stroke-linejoin:round; stroke-width:2; stroke-opacity:0.1; fill:none" points="2499.7,1495.09 2499.7,108.352 "/>
<polyline clip-path="url(#clip923)" style="stroke:#000000; stroke-linecap:round; stroke-linejoin:round; stroke-width:2; stroke-opacity:0.1; fill:none" points="2974.44,1495.09 2974.44,108.352 "/>
<polyline clip-path="url(#clip923)" style="stroke:#000000; stroke-linecap:round; stroke-linejoin:round; stroke-width:2; stroke-opacity:0.1; fill:none" points="2024.97,1495.09 2024.97,108.352 "/>
<polyline clip-path="url(#clip923)" style="stroke:#000000; stroke-linecap:round; stroke-linejoin:round; stroke-width:2; stroke-opacity:0.1; fill:none" points="2499.7,1495.09 2499.7,108.352 "/>
<polyline clip-path="url(#clip923)" style="stroke:#000000; stroke-linecap:round; stroke-linejoin:round; stroke-width:2; stroke-opacity:0.1; fill:none" points="2974.44,1495.09 2974.44,108.352 "/>
<polyline clip-path="url(#clip920)" style="stroke:#000000; stroke-linecap:round; stroke-linejoin:round; stroke-width:4; stroke-opacity:1; fill:none" points="1846.65,1495.09 3152.76,1495.09 "/>
<polyline clip-path="url(#clip920)" style="stroke:#000000; stroke-linecap:round; stroke-linejoin:round; stroke-width:4; stroke-opacity:1; fill:none" points="1846.65,108.352 3152.76,108.352 "/>
<polyline clip-path="url(#clip920)" style="stroke:#000000; stroke-linecap:round; stroke-linejoin:round; stroke-width:4; stroke-opacity:1; fill:none" points="2024.97,1495.09 2024.97,1476.19 "/>
<polyline clip-path="url(#clip920)" style="stroke:#000000; stroke-linecap:round; stroke-linejoin:round; stroke-width:4; stroke-opacity:1; fill:none" points="2499.7,1495.09 2499.7,1476.19 "/>
<polyline clip-path="url(#clip920)" style="stroke:#000000; stroke-linecap:round; stroke-linejoin:round; stroke-width:4; stroke-opacity:1; fill:none" points="2974.44,1495.09 2974.44,1476.19 "/>
<polyline clip-path="url(#clip920)" style="stroke:#000000; stroke-linecap:round; stroke-linejoin:round; stroke-width:4; stroke-opacity:1; fill:none" points="2024.97,108.352 2024.97,127.25 "/>
<polyline clip-path="url(#clip920)" style="stroke:#000000; stroke-linecap:round; stroke-linejoin:round; stroke-width:4; stroke-opacity:1; fill:none" points="2499.7,108.352 2499.7,127.25 "/>
<polyline clip-path="url(#clip920)" style="stroke:#000000; stroke-linecap:round; stroke-linejoin:round; stroke-width:4; stroke-opacity:1; fill:none" points="2974.44,108.352 2974.44,127.25 "/>
<path clip-path="url(#clip920)" d="M2018.04 1562.29 L2018.04 1573.75 L2013.76 1573.75 L2013.76 1538.12 Q2013.76 1527.57 2023.62 1527.57 Q2033.67 1527.57 2033.67 1536.48 Q2033.67 1542.82 2029.69 1545.14 Q2036.17 1547.22 2036.17 1553.4 Q2036.17 1564.37 2025.01 1564.37 Q2020.1 1564.37 2018.04 1562.29 M2018.04 1556.74 Q2020.61 1560.74 2025.17 1560.74 Q2031.84 1560.74 2031.84 1553.47 Q2031.84 1546.94 2021.1 1547.45 L2021.1 1543.52 Q2029.5 1543.52 2029.5 1536.11 Q2029.5 1531.04 2024.09 1531.04 Q2018.04 1531.04 2018.04 1538.26 L2018.04 1556.74 Z" fill="#000000" fill-rule="nonzero" fill-opacity="1" /><path clip-path="url(#clip920)" d="M2502.15 1550.86 Q2496.99 1550.86 2495 1552.04 Q2493.01 1553.22 2493.01 1556.06 Q2493.01 1558.33 2494.49 1559.67 Q2496 1560.99 2498.57 1560.99 Q2502.11 1560.99 2504.24 1558.49 Q2506.39 1555.97 2506.39 1551.8 L2506.39 1550.86 L2502.15 1550.86 M2510.65 1549.1 L2510.65 1563.89 L2506.39 1563.89 L2506.39 1559.95 Q2504.93 1562.31 2502.76 1563.45 Q2500.58 1564.56 2497.43 1564.56 Q2493.45 1564.56 2491.09 1562.34 Q2488.75 1560.09 2488.75 1556.34 Q2488.75 1551.97 2491.67 1549.74 Q2494.61 1547.52 2500.42 1547.52 L2506.39 1547.52 L2506.39 1547.11 Q2506.39 1544.17 2504.45 1542.57 Q2502.53 1540.95 2499.03 1540.95 Q2496.81 1540.95 2494.7 1541.48 Q2492.59 1542.01 2490.65 1543.08 L2490.65 1539.14 Q2492.99 1538.24 2495.19 1537.8 Q2497.39 1537.34 2499.47 1537.34 Q2505.09 1537.34 2507.87 1540.25 Q2510.65 1543.17 2510.65 1549.1 Z" fill="#000000" fill-rule="nonzero" fill-opacity="1" /><path clip-path="url(#clip920)" d="M2969.1 1542.04 L2974.77 1558.05 L2982.87 1537.96 L2987.39 1537.96 L2976.9 1563.89 L2976.9 1573.75 L2972.64 1573.75 L2972.64 1563.89 L2965.84 1544.54 Q2964.82 1541.62 2962.62 1541.62 L2961.49 1541.62 L2961.49 1537.96 L2963.11 1537.96 Q2967.67 1537.96 2969.1 1542.04 Z" fill="#000000" fill-rule="nonzero" fill-opacity="1" /><polyline clip-path="url(#clip923)" style="stroke:#000000; stroke-linecap:round; stroke-linejoin:round; stroke-width:2; stroke-opacity:0.1; fill:none" points="1846.65,1495.09 3152.76,1495.09 "/>
<polyline clip-path="url(#clip923)" style="stroke:#000000; stroke-linecap:round; stroke-linejoin:round; stroke-width:2; stroke-opacity:0.1; fill:none" points="1846.65,1251.92 3152.76,1251.92 "/>
<polyline clip-path="url(#clip923)" style="stroke:#000000; stroke-linecap:round; stroke-linejoin:round; stroke-width:2; stroke-opacity:0.1; fill:none" points="1846.65,1008.74 3152.76,1008.74 "/>
<polyline clip-path="url(#clip923)" style="stroke:#000000; stroke-linecap:round; stroke-linejoin:round; stroke-width:2; stroke-opacity:0.1; fill:none" points="1846.65,765.569 3152.76,765.569 "/>
<polyline clip-path="url(#clip923)" style="stroke:#000000; stroke-linecap:round; stroke-linejoin:round; stroke-width:2; stroke-opacity:0.1; fill:none" points="1846.65,522.397 3152.76,522.397 "/>
<polyline clip-path="url(#clip923)" style="stroke:#000000; stroke-linecap:round; stroke-linejoin:round; stroke-width:2; stroke-opacity:0.1; fill:none" points="1846.65,279.224 3152.76,279.224 "/>
<polyline clip-path="url(#clip923)" style="stroke:#000000; stroke-linecap:round; stroke-linejoin:round; stroke-width:2; stroke-opacity:0.1; fill:none" points="1846.65,1495.09 3152.76,1495.09 "/>
<polyline clip-path="url(#clip923)" style="stroke:#000000; stroke-linecap:round; stroke-linejoin:round; stroke-width:2; stroke-opacity:0.1; fill:none" points="1846.65,1251.92 3152.76,1251.92 "/>
<polyline clip-path="url(#clip923)" style="stroke:#000000; stroke-linecap:round; stroke-linejoin:round; stroke-width:2; stroke-opacity:0.1; fill:none" points="1846.65,1008.74 3152.76,1008.74 "/>
<polyline clip-path="url(#clip923)" style="stroke:#000000; stroke-linecap:round; stroke-linejoin:round; stroke-width:2; stroke-opacity:0.1; fill:none" points="1846.65,765.569 3152.76,765.569 "/>
<polyline clip-path="url(#clip923)" style="stroke:#000000; stroke-linecap:round; stroke-linejoin:round; stroke-width:2; stroke-opacity:0.1; fill:none" points="1846.65,522.397 3152.76,522.397 "/>
<polyline clip-path="url(#clip923)" style="stroke:#000000; stroke-linecap:round; stroke-linejoin:round; stroke-width:2; stroke-opacity:0.1; fill:none" points="1846.65,279.224 3152.76,279.224 "/>
<polyline clip-path="url(#clip920)" style="stroke:#000000; stroke-linecap:round; stroke-linejoin:round; stroke-width:4; stroke-opacity:1; fill:none" points="1846.65,1495.09 1846.65,108.352 "/>
<polyline clip-path="url(#clip920)" style="stroke:#000000; stroke-linecap:round; stroke-linejoin:round; stroke-width:4; stroke-opacity:1; fill:none" points="3152.76,1495.09 3152.76,108.352 "/>
<polyline clip-path="url(#clip920)" style="stroke:#000000; stroke-linecap:round; stroke-linejoin:round; stroke-width:4; stroke-opacity:1; fill:none" points="1846.65,1495.09 1865.54,1495.09 "/>
<polyline clip-path="url(#clip920)" style="stroke:#000000; stroke-linecap:round; stroke-linejoin:round; stroke-width:4; stroke-opacity:1; fill:none" points="1846.65,1251.92 1865.54,1251.92 "/>
<polyline clip-path="url(#clip920)" style="stroke:#000000; stroke-linecap:round; stroke-linejoin:round; stroke-width:4; stroke-opacity:1; fill:none" points="1846.65,1008.74 1865.54,1008.74 "/>
<polyline clip-path="url(#clip920)" style="stroke:#000000; stroke-linecap:round; stroke-linejoin:round; stroke-width:4; stroke-opacity:1; fill:none" points="1846.65,765.569 1865.54,765.569 "/>
<polyline clip-path="url(#clip920)" style="stroke:#000000; stroke-linecap:round; stroke-linejoin:round; stroke-width:4; stroke-opacity:1; fill:none" points="1846.65,522.397 1865.54,522.397 "/>
<polyline clip-path="url(#clip920)" style="stroke:#000000; stroke-linecap:round; stroke-linejoin:round; stroke-width:4; stroke-opacity:1; fill:none" points="1846.65,279.224 1865.54,279.224 "/>
<polyline clip-path="url(#clip920)" style="stroke:#000000; stroke-linecap:round; stroke-linejoin:round; stroke-width:4; stroke-opacity:1; fill:none" points="3152.76,1495.09 3133.86,1495.09 "/>
<polyline clip-path="url(#clip920)" style="stroke:#000000; stroke-linecap:round; stroke-linejoin:round; stroke-width:4; stroke-opacity:1; fill:none" points="3152.76,1251.92 3133.86,1251.92 "/>
<polyline clip-path="url(#clip920)" style="stroke:#000000; stroke-linecap:round; stroke-linejoin:round; stroke-width:4; stroke-opacity:1; fill:none" points="3152.76,1008.74 3133.86,1008.74 "/>
<polyline clip-path="url(#clip920)" style="stroke:#000000; stroke-linecap:round; stroke-linejoin:round; stroke-width:4; stroke-opacity:1; fill:none" points="3152.76,765.569 3133.86,765.569 "/>
<polyline clip-path="url(#clip920)" style="stroke:#000000; stroke-linecap:round; stroke-linejoin:round; stroke-width:4; stroke-opacity:1; fill:none" points="3152.76,522.397 3133.86,522.397 "/>
<polyline clip-path="url(#clip920)" style="stroke:#000000; stroke-linecap:round; stroke-linejoin:round; stroke-width:4; stroke-opacity:1; fill:none" points="3152.76,279.224 3133.86,279.224 "/>
<path clip-path="url(#clip920)" d="M1786.7 1480.89 Q1783.09 1480.89 1781.26 1484.45 Q1779.46 1487.99 1779.46 1495.12 Q1779.46 1502.23 1781.26 1505.79 Q1783.09 1509.34 1786.7 1509.34 Q1790.34 1509.34 1792.14 1505.79 Q1793.97 1502.23 1793.97 1495.12 Q1793.97 1487.99 1792.14 1484.45 Q1790.34 1480.89 1786.7 1480.89 M1786.7 1477.18 Q1792.51 1477.18 1795.57 1481.79 Q1798.65 1486.37 1798.65 1495.12 Q1798.65 1503.85 1795.57 1508.46 Q1792.51 1513.04 1786.7 1513.04 Q1780.89 1513.04 1777.81 1508.46 Q1774.76 1503.85 1774.76 1495.12 Q1774.76 1486.37 1777.81 1481.79 Q1780.89 1477.18 1786.7 1477.18 Z" fill="#000000" fill-rule="nonzero" fill-opacity="1" /><path clip-path="url(#clip920)" d="M1582.82 1241.08 L1601.18 1241.08 L1601.18 1245.02 L1587.1 1245.02 L1587.1 1253.49 Q1588.12 1253.14 1589.14 1252.98 Q1590.16 1252.8 1591.18 1252.8 Q1596.96 1252.8 1600.34 1255.97 Q1603.72 1259.14 1603.72 1264.55 Q1603.72 1270.13 1600.25 1273.24 Q1596.78 1276.31 1590.46 1276.31 Q1588.28 1276.31 1586.02 1275.94 Q1583.77 1275.57 1581.36 1274.83 L1581.36 1270.13 Q1583.45 1271.27 1585.67 1271.82 Q1587.89 1272.38 1590.37 1272.38 Q1594.37 1272.38 1596.71 1270.27 Q1599.05 1268.17 1599.05 1264.55 Q1599.05 1260.94 1596.71 1258.84 Q1594.37 1256.73 1590.37 1256.73 Q1588.49 1256.73 1586.62 1257.15 Q1584.77 1257.56 1582.82 1258.44 L1582.82 1241.08 Z" fill="#000000" fill-rule="nonzero" fill-opacity="1" /><path clip-path="url(#clip920)" d="M1612.94 1269.76 L1617.82 1269.76 L1617.82 1275.64 L1612.94 1275.64 L1612.94 1269.76 Z" fill="#000000" fill-rule="nonzero" fill-opacity="1" /><path clip-path="url(#clip920)" d="M1638.01 1244.16 Q1634.4 1244.16 1632.57 1247.73 Q1630.76 1251.27 1630.76 1258.4 Q1630.76 1265.5 1632.57 1269.07 Q1634.4 1272.61 1638.01 1272.61 Q1641.64 1272.61 1643.45 1269.07 Q1645.27 1265.5 1645.27 1258.4 Q1645.27 1251.27 1643.45 1247.73 Q1641.64 1244.16 1638.01 1244.16 M1638.01 1240.46 Q1643.82 1240.46 1646.87 1245.06 Q1649.95 1249.65 1649.95 1258.4 Q1649.95 1267.12 1646.87 1271.73 Q1643.82 1276.31 1638.01 1276.31 Q1632.2 1276.31 1629.12 1271.73 Q1626.06 1267.12 1626.06 1258.4 Q1626.06 1249.65 1629.12 1245.06 Q1632.2 1240.46 1638.01 1240.46 Z" fill="#000000" fill-rule="nonzero" fill-opacity="1" /><path clip-path="url(#clip920)" d="M1668.17 1244.16 Q1664.56 1244.16 1662.73 1247.73 Q1660.92 1251.27 1660.92 1258.4 Q1660.92 1265.5 1662.73 1269.07 Q1664.56 1272.61 1668.17 1272.61 Q1671.8 1272.61 1673.61 1269.07 Q1675.44 1265.5 1675.44 1258.4 Q1675.44 1251.27 1673.61 1247.73 Q1671.8 1244.16 1668.17 1244.16 M1668.17 1240.46 Q1673.98 1240.46 1677.03 1245.06 Q1680.11 1249.65 1680.11 1258.4 Q1680.11 1267.12 1677.03 1271.73 Q1673.98 1276.31 1668.17 1276.31 Q1662.36 1276.31 1659.28 1271.73 Q1656.22 1267.12 1656.22 1258.4 Q1656.22 1249.65 1659.28 1245.06 Q1662.36 1240.46 1668.17 1240.46 Z" fill="#000000" fill-rule="nonzero" fill-opacity="1" /><path clip-path="url(#clip920)" d="M1716.5 1250.18 L1705.92 1260.8 L1716.5 1271.38 L1713.75 1274.18 L1703.12 1263.56 L1692.5 1274.18 L1689.77 1271.38 L1700.32 1260.8 L1689.77 1250.18 L1692.5 1247.38 L1703.12 1258 L1713.75 1247.38 L1716.5 1250.18 Z" fill="#000000" fill-rule="nonzero" fill-opacity="1" /><path clip-path="url(#clip920)" d="M1728.86 1271.71 L1736.5 1271.71 L1736.5 1245.34 L1728.19 1247.01 L1728.19 1242.75 L1736.45 1241.08 L1741.13 1241.08 L1741.13 1271.71 L1748.77 1271.71 L1748.77 1275.64 L1728.86 1275.64 L1728.86 1271.71 Z" fill="#000000" fill-rule="nonzero" fill-opacity="1" /><path clip-path="url(#clip920)" d="M1768.21 1244.16 Q1764.6 1244.16 1762.77 1247.73 Q1760.97 1251.27 1760.97 1258.4 Q1760.97 1265.5 1762.77 1269.07 Q1764.6 1272.61 1768.21 1272.61 Q1771.85 1272.61 1773.65 1269.07 Q1775.48 1265.5 1775.48 1258.4 Q1775.48 1251.27 1773.65 1247.73 Q1771.85 1244.16 1768.21 1244.16 M1768.21 1240.46 Q1774.02 1240.46 1777.08 1245.06 Q1780.16 1249.65 1780.16 1258.4 Q1780.16 1267.12 1777.08 1271.73 Q1774.02 1276.31 1768.21 1276.31 Q1762.4 1276.31 1759.33 1271.73 Q1756.27 1267.12 1756.27 1258.4 Q1756.27 1249.65 1759.33 1245.06 Q1762.4 1240.46 1768.21 1240.46 Z" fill="#000000" fill-rule="nonzero" fill-opacity="1" /><path clip-path="url(#clip920)" d="M1792.85 1233.09 Q1795.58 1233.68 1797.1 1235.52 Q1798.65 1237.36 1798.65 1240.07 Q1798.65 1244.23 1795.79 1246.5 Q1792.93 1248.78 1787.66 1248.78 Q1785.89 1248.78 1784.01 1248.42 Q1782.15 1248.08 1780.16 1247.39 L1780.16 1243.72 Q1781.74 1244.64 1783.62 1245.11 Q1785.5 1245.58 1787.55 1245.58 Q1791.12 1245.58 1792.99 1244.17 Q1794.87 1242.76 1794.87 1240.07 Q1794.87 1237.59 1793.12 1236.2 Q1791.39 1234.78 1788.28 1234.78 L1785.01 1234.78 L1785.01 1231.66 L1788.43 1231.66 Q1791.24 1231.66 1792.72 1230.55 Q1794.21 1229.42 1794.21 1227.32 Q1794.21 1225.16 1792.67 1224.01 Q1791.14 1222.84 1788.28 1222.84 Q1786.72 1222.84 1784.94 1223.18 Q1783.15 1223.52 1781 1224.23 L1781 1220.85 Q1783.17 1220.25 1785.05 1219.95 Q1786.95 1219.64 1788.62 1219.64 Q1792.95 1219.64 1795.47 1221.62 Q1797.99 1223.58 1797.99 1226.92 Q1797.99 1229.26 1796.65 1230.87 Q1795.32 1232.47 1792.85 1233.09 Z" fill="#000000" fill-rule="nonzero" fill-opacity="1" /><path clip-path="url(#clip920)" d="M1581.61 1028.53 L1589.25 1028.53 L1589.25 1002.17 L1580.94 1003.84 L1580.94 999.576 L1589.2 997.91 L1593.88 997.91 L1593.88 1028.53 L1601.52 1028.53 L1601.52 1032.47 L1581.61 1032.47 L1581.61 1028.53 Z" fill="#000000" fill-rule="nonzero" fill-opacity="1" /><path clip-path="url(#clip920)" d="M1610.96 1026.59 L1615.85 1026.59 L1615.85 1032.47 L1610.96 1032.47 L1610.96 1026.59 Z" fill="#000000" fill-rule="nonzero" fill-opacity="1" /><path clip-path="url(#clip920)" d="M1636.03 1000.99 Q1632.42 1000.99 1630.59 1004.55 Q1628.79 1008.09 1628.79 1015.22 Q1628.79 1022.33 1630.59 1025.9 Q1632.42 1029.44 1636.03 1029.44 Q1639.67 1029.44 1641.47 1025.9 Q1643.3 1022.33 1643.3 1015.22 Q1643.3 1008.09 1641.47 1004.55 Q1639.67 1000.99 1636.03 1000.99 M1636.03 997.285 Q1641.84 997.285 1644.9 1001.89 Q1647.98 1006.47 1647.98 1015.22 Q1647.98 1023.95 1644.9 1028.56 Q1641.84 1033.14 1636.03 1033.14 Q1630.22 1033.14 1627.14 1028.56 Q1624.09 1023.95 1624.09 1015.22 Q1624.09 1006.47 1627.14 1001.89 Q1630.22 997.285 1636.03 997.285 Z" fill="#000000" fill-rule="nonzero" fill-opacity="1" /><path clip-path="url(#clip920)" d="M1666.19 1000.99 Q1662.58 1000.99 1660.75 1004.55 Q1658.95 1008.09 1658.95 1015.22 Q1658.95 1022.33 1660.75 1025.9 Q1662.58 1029.44 1666.19 1029.44 Q1669.83 1029.44 1671.63 1025.9 Q1673.46 1022.33 1673.46 1015.22 Q1673.46 1008.09 1671.63 1004.55 Q1669.83 1000.99 1666.19 1000.99 M1666.19 997.285 Q1672 997.285 1675.06 1001.89 Q1678.14 1006.47 1678.14 1015.22 Q1678.14 1023.95 1675.06 1028.56 Q1672 1033.14 1666.19 1033.14 Q1660.38 1033.14 1657.3 1028.56 Q1654.25 1023.95 1654.25 1015.22 Q1654.25 1006.47 1657.3 1001.89 Q1660.38 997.285 1666.19 997.285 Z" fill="#000000" fill-rule="nonzero" fill-opacity="1" /><path clip-path="url(#clip920)" d="M1714.53 1007.01 L1703.95 1017.63 L1714.53 1028.21 L1711.77 1031.01 L1701.15 1020.39 L1690.52 1031.01 L1687.79 1028.21 L1698.35 1017.63 L1687.79 1007.01 L1690.52 1004.21 L1701.15 1014.83 L1711.77 1004.21 L1714.53 1007.01 Z" fill="#000000" fill-rule="nonzero" fill-opacity="1" /><path clip-path="url(#clip920)" d="M1726.89 1028.53 L1734.53 1028.53 L1734.53 1002.17 L1726.22 1003.84 L1726.22 999.576 L1734.48 997.91 L1739.16 997.91 L1739.16 1028.53 L1746.79 1028.53 L1746.79 1032.47 L1726.89 1032.47 L1726.89 1028.53 Z" fill="#000000" fill-rule="nonzero" fill-opacity="1" /><path clip-path="url(#clip920)" d="M1766.24 1000.99 Q1762.63 1000.99 1760.8 1004.55 Q1758.99 1008.09 1758.99 1015.22 Q1758.99 1022.33 1760.8 1025.9 Q1762.63 1029.44 1766.24 1029.44 Q1769.87 1029.44 1771.68 1025.9 Q1773.51 1022.33 1773.51 1015.22 Q1773.51 1008.09 1771.68 1004.55 Q1769.87 1000.99 1766.24 1000.99 M1766.24 997.285 Q1772.05 997.285 1775.1 1001.89 Q1778.18 1006.47 1778.18 1015.22 Q1778.18 1023.95 1775.1 1028.56 Q1772.05 1033.14 1766.24 1033.14 Q1760.43 1033.14 1757.35 1028.56 Q1754.29 1023.95 1754.29 1015.22 Q1754.29 1006.47 1757.35 1001.89 Q1760.43 997.285 1766.24 997.285 Z" fill="#000000" fill-rule="nonzero" fill-opacity="1" /><path clip-path="url(#clip920)" d="M1790.86 980.29 L1781.27 995.279 L1790.86 995.279 L1790.86 980.29 M1789.86 976.979 L1794.64 976.979 L1794.64 995.279 L1798.65 995.279 L1798.65 998.439 L1794.64 998.439 L1794.64 1005.06 L1790.86 1005.06 L1790.86 998.439 L1778.18 998.439 L1778.18 994.772 L1789.86 976.979 Z" fill="#000000" fill-rule="nonzero" fill-opacity="1" /><path clip-path="url(#clip920)" d="M1581.61 785.362 L1589.25 785.362 L1589.25 758.996 L1580.94 760.663 L1580.94 756.404 L1589.2 754.737 L1593.88 754.737 L1593.88 785.362 L1601.52 785.362 L1601.52 789.297 L1581.61 789.297 L1581.61 785.362 Z" fill="#000000" fill-rule="nonzero" fill-opacity="1" /><path clip-path="url(#clip920)" d="M1610.96 783.417 L1615.85 783.417 L1615.85 789.297 L1610.96 789.297 L1610.96 783.417 Z" fill="#000000" fill-rule="nonzero" fill-opacity="1" /><path clip-path="url(#clip920)" d="M1626.08 754.737 L1644.43 754.737 L1644.43 758.672 L1630.36 758.672 L1630.36 767.144 Q1631.38 766.797 1632.4 766.635 Q1633.42 766.45 1634.43 766.45 Q1640.22 766.45 1643.6 769.621 Q1646.98 772.792 1646.98 778.209 Q1646.98 783.788 1643.51 786.89 Q1640.04 789.968 1633.72 789.968 Q1631.54 789.968 1629.27 789.598 Q1627.03 789.228 1624.62 788.487 L1624.62 783.788 Q1626.7 784.922 1628.93 785.478 Q1631.15 786.033 1633.62 786.033 Q1637.63 786.033 1639.97 783.927 Q1642.3 781.82 1642.3 778.209 Q1642.3 774.598 1639.97 772.492 Q1637.63 770.385 1633.62 770.385 Q1631.75 770.385 1629.87 770.802 Q1628.02 771.218 1626.08 772.098 L1626.08 754.737 Z" fill="#000000" fill-rule="nonzero" fill-opacity="1" /><path clip-path="url(#clip920)" d="M1666.19 757.816 Q1662.58 757.816 1660.75 761.381 Q1658.95 764.922 1658.95 772.052 Q1658.95 779.158 1660.75 782.723 Q1662.58 786.265 1666.19 786.265 Q1669.83 786.265 1671.63 782.723 Q1673.46 779.158 1673.46 772.052 Q1673.46 764.922 1671.63 761.381 Q1669.83 757.816 1666.19 757.816 M1666.19 754.112 Q1672 754.112 1675.06 758.718 Q1678.14 763.302 1678.14 772.052 Q1678.14 780.779 1675.06 785.385 Q1672 789.968 1666.19 789.968 Q1660.38 789.968 1657.3 785.385 Q1654.25 780.779 1654.25 772.052 Q1654.25 763.302 1657.3 758.718 Q1660.38 754.112 1666.19 754.112 Z" fill="#000000" fill-rule="nonzero" fill-opacity="1" /><path clip-path="url(#clip920)" d="M1714.53 763.834 L1703.95 774.459 L1714.53 785.038 L1711.77 787.839 L1701.15 777.214 L1690.52 787.839 L1687.79 785.038 L1698.35 774.459 L1687.79 763.834 L1690.52 761.033 L1701.15 771.658 L1711.77 761.033 L1714.53 763.834 Z" fill="#000000" fill-rule="nonzero" fill-opacity="1" /><path clip-path="url(#clip920)" d="M1726.89 785.362 L1734.53 785.362 L1734.53 758.996 L1726.22 760.663 L1726.22 756.404 L1734.48 754.737 L1739.16 754.737 L1739.16 785.362 L1746.79 785.362 L1746.79 789.297 L1726.89 789.297 L1726.89 785.362 Z" fill="#000000" fill-rule="nonzero" fill-opacity="1" /><path clip-path="url(#clip920)" d="M1766.24 757.816 Q1762.63 757.816 1760.8 761.381 Q1758.99 764.922 1758.99 772.052 Q1758.99 779.158 1760.8 782.723 Q1762.63 786.265 1766.24 786.265 Q1769.87 786.265 1771.68 782.723 Q1773.51 779.158 1773.51 772.052 Q1773.51 764.922 1771.68 761.381 Q1769.87 757.816 1766.24 757.816 M1766.24 754.112 Q1772.05 754.112 1775.1 758.718 Q1778.18 763.302 1778.18 772.052 Q1778.18 780.779 1775.1 785.385 Q1772.05 789.968 1766.24 789.968 Q1760.43 789.968 1757.35 785.385 Q1754.29 780.779 1754.29 772.052 Q1754.29 763.302 1757.35 758.718 Q1760.43 754.112 1766.24 754.112 Z" fill="#000000" fill-rule="nonzero" fill-opacity="1" /><path clip-path="url(#clip920)" d="M1790.86 737.117 L1781.27 752.107 L1790.86 752.107 L1790.86 737.117 M1789.86 733.807 L1794.64 733.807 L1794.64 752.107 L1798.65 752.107 L1798.65 755.266 L1794.64 755.266 L1794.64 761.887 L1790.86 761.887 L1790.86 755.266 L1778.18 755.266 L1778.18 751.599 L1789.86 733.807 Z" fill="#000000" fill-rule="nonzero" fill-opacity="1" /><path clip-path="url(#clip920)" d="M1584.83 542.189 L1601.15 542.189 L1601.15 546.124 L1579.2 546.124 L1579.2 542.189 Q1581.87 539.434 1586.45 534.805 Q1591.05 530.152 1592.24 528.809 Q1594.48 526.286 1595.36 524.55 Q1596.26 522.791 1596.26 521.101 Q1596.26 518.347 1594.32 516.61 Q1592.4 514.874 1589.3 514.874 Q1587.1 514.874 1584.64 515.638 Q1582.21 516.402 1579.43 517.953 L1579.43 513.231 Q1582.26 512.097 1584.71 511.518 Q1587.17 510.939 1589.2 510.939 Q1594.57 510.939 1597.77 513.624 Q1600.96 516.31 1600.96 520.8 Q1600.96 522.93 1600.15 524.851 Q1599.37 526.749 1597.26 529.342 Q1596.68 530.013 1593.58 533.231 Q1590.48 536.425 1584.83 542.189 Z" fill="#000000" fill-rule="nonzero" fill-opacity="1" /><path clip-path="url(#clip920)" d="M1610.96 540.245 L1615.85 540.245 L1615.85 546.124 L1610.96 546.124 L1610.96 540.245 Z" fill="#000000" fill-rule="nonzero" fill-opacity="1" /><path clip-path="url(#clip920)" d="M1636.03 514.643 Q1632.42 514.643 1630.59 518.208 Q1628.79 521.749 1628.79 528.879 Q1628.79 535.985 1630.59 539.55 Q1632.42 543.092 1636.03 543.092 Q1639.67 543.092 1641.47 539.55 Q1643.3 535.985 1643.3 528.879 Q1643.3 521.749 1641.47 518.208 Q1639.67 514.643 1636.03 514.643 M1636.03 510.939 Q1641.84 510.939 1644.9 515.546 Q1647.98 520.129 1647.98 528.879 Q1647.98 537.606 1644.9 542.212 Q1641.84 546.796 1636.03 546.796 Q1630.22 546.796 1627.14 542.212 Q1624.09 537.606 1624.09 528.879 Q1624.09 520.129 1627.14 515.546 Q1630.22 510.939 1636.03 510.939 Z" fill="#000000" fill-rule="nonzero" fill-opacity="1" /><path clip-path="url(#clip920)" d="M1666.19 514.643 Q1662.58 514.643 1660.75 518.208 Q1658.95 521.749 1658.95 528.879 Q1658.95 535.985 1660.75 539.55 Q1662.58 543.092 1666.19 543.092 Q1669.83 543.092 1671.63 539.55 Q1673.46 535.985 1673.46 528.879 Q1673.46 521.749 1671.63 518.208 Q1669.83 514.643 1666.19 514.643 M1666.19 510.939 Q1672 510.939 1675.06 515.546 Q1678.14 520.129 1678.14 528.879 Q1678.14 537.606 1675.06 542.212 Q1672 546.796 1666.19 546.796 Q1660.38 546.796 1657.3 542.212 Q1654.25 537.606 1654.25 528.879 Q1654.25 520.129 1657.3 515.546 Q1660.38 510.939 1666.19 510.939 Z" fill="#000000" fill-rule="nonzero" fill-opacity="1" /><path clip-path="url(#clip920)" d="M1714.53 520.661 L1703.95 531.286 L1714.53 541.865 L1711.77 544.666 L1701.15 534.041 L1690.52 544.666 L1687.79 541.865 L1698.35 531.286 L1687.79 520.661 L1690.52 517.86 L1701.15 528.485 L1711.77 517.86 L1714.53 520.661 Z" fill="#000000" fill-rule="nonzero" fill-opacity="1" /><path clip-path="url(#clip920)" d="M1726.89 542.189 L1734.53 542.189 L1734.53 515.823 L1726.22 517.49 L1726.22 513.231 L1734.48 511.564 L1739.16 511.564 L1739.16 542.189 L1746.79 542.189 L1746.79 546.124 L1726.89 546.124 L1726.89 542.189 Z" fill="#000000" fill-rule="nonzero" fill-opacity="1" /><path clip-path="url(#clip920)" d="M1766.24 514.643 Q1762.63 514.643 1760.8 518.208 Q1758.99 521.749 1758.99 528.879 Q1758.99 535.985 1760.8 539.55 Q1762.63 543.092 1766.24 543.092 Q1769.87 543.092 1771.68 539.55 Q1773.51 535.985 1773.51 528.879 Q1773.51 521.749 1771.68 518.208 Q1769.87 514.643 1766.24 514.643 M1766.24 510.939 Q1772.05 510.939 1775.1 515.546 Q1778.18 520.129 1778.18 528.879 Q1778.18 537.606 1775.1 542.212 Q1772.05 546.796 1766.24 546.796 Q1760.43 546.796 1757.35 542.212 Q1754.29 537.606 1754.29 528.879 Q1754.29 520.129 1757.35 515.546 Q1760.43 510.939 1766.24 510.939 Z" fill="#000000" fill-rule="nonzero" fill-opacity="1" /><path clip-path="url(#clip920)" d="M1790.86 493.944 L1781.27 508.934 L1790.86 508.934 L1790.86 493.944 M1789.86 490.634 L1794.64 490.634 L1794.64 508.934 L1798.65 508.934 L1798.65 512.093 L1794.64 512.093 L1794.64 518.714 L1790.86 518.714 L1790.86 512.093 L1778.18 512.093 L1778.18 508.426 L1789.86 490.634 Z" fill="#000000" fill-rule="nonzero" fill-opacity="1" /><path clip-path="url(#clip920)" d="M1584.83 299.016 L1601.15 299.016 L1601.15 302.951 L1579.2 302.951 L1579.2 299.016 Q1581.87 296.262 1586.45 291.632 Q1591.05 286.979 1592.24 285.637 Q1594.48 283.114 1595.36 281.377 Q1596.26 279.618 1596.26 277.928 Q1596.26 275.174 1594.32 273.438 Q1592.4 271.702 1589.3 271.702 Q1587.1 271.702 1584.64 272.465 Q1582.21 273.229 1579.43 274.78 L1579.43 270.058 Q1582.26 268.924 1584.71 268.345 Q1587.17 267.766 1589.2 267.766 Q1594.57 267.766 1597.77 270.452 Q1600.96 273.137 1600.96 277.627 Q1600.96 279.757 1600.15 281.678 Q1599.37 283.576 1597.26 286.169 Q1596.68 286.84 1593.58 290.058 Q1590.48 293.252 1584.83 299.016 Z" fill="#000000" fill-rule="nonzero" fill-opacity="1" /><path clip-path="url(#clip920)" d="M1610.96 297.072 L1615.85 297.072 L1615.85 302.951 L1610.96 302.951 L1610.96 297.072 Z" fill="#000000" fill-rule="nonzero" fill-opacity="1" /><path clip-path="url(#clip920)" d="M1626.08 268.391 L1644.43 268.391 L1644.43 272.327 L1630.36 272.327 L1630.36 280.799 Q1631.38 280.452 1632.4 280.289 Q1633.42 280.104 1634.43 280.104 Q1640.22 280.104 1643.6 283.276 Q1646.98 286.447 1646.98 291.863 Q1646.98 297.442 1643.51 300.544 Q1640.04 303.623 1633.72 303.623 Q1631.54 303.623 1629.27 303.252 Q1627.03 302.882 1624.62 302.141 L1624.62 297.442 Q1626.7 298.576 1628.93 299.132 Q1631.15 299.688 1633.62 299.688 Q1637.63 299.688 1639.97 297.581 Q1642.3 295.475 1642.3 291.863 Q1642.3 288.252 1639.97 286.146 Q1637.63 284.039 1633.62 284.039 Q1631.75 284.039 1629.87 284.456 Q1628.02 284.873 1626.08 285.752 L1626.08 268.391 Z" fill="#000000" fill-rule="nonzero" fill-opacity="1" /><path clip-path="url(#clip920)" d="M1666.19 271.47 Q1662.58 271.47 1660.75 275.035 Q1658.95 278.577 1658.95 285.706 Q1658.95 292.813 1660.75 296.377 Q1662.58 299.919 1666.19 299.919 Q1669.83 299.919 1671.63 296.377 Q1673.46 292.813 1673.46 285.706 Q1673.46 278.577 1671.63 275.035 Q1669.83 271.47 1666.19 271.47 M1666.19 267.766 Q1672 267.766 1675.06 272.373 Q1678.14 276.956 1678.14 285.706 Q1678.14 294.433 1675.06 299.039 Q1672 303.623 1666.19 303.623 Q1660.38 303.623 1657.3 299.039 Q1654.25 294.433 1654.25 285.706 Q1654.25 276.956 1657.3 272.373 Q1660.38 267.766 1666.19 267.766 Z" fill="#000000" fill-rule="nonzero" fill-opacity="1" /><path clip-path="url(#clip920)" d="M1714.53 277.489 L1703.95 288.114 L1714.53 298.692 L1711.77 301.493 L1701.15 290.868 L1690.52 301.493 L1687.79 298.692 L1698.35 288.114 L1687.79 277.489 L1690.52 274.688 L1701.15 285.313 L1711.77 274.688 L1714.53 277.489 Z" fill="#000000" fill-rule="nonzero" fill-opacity="1" /><path clip-path="url(#clip920)" d="M1726.89 299.016 L1734.53 299.016 L1734.53 272.651 L1726.22 274.317 L1726.22 270.058 L1734.48 268.391 L1739.16 268.391 L1739.16 299.016 L1746.79 299.016 L1746.79 302.951 L1726.89 302.951 L1726.89 299.016 Z" fill="#000000" fill-rule="nonzero" fill-opacity="1" /><path clip-path="url(#clip920)" d="M1766.24 271.47 Q1762.63 271.47 1760.8 275.035 Q1758.99 278.577 1758.99 285.706 Q1758.99 292.813 1760.8 296.377 Q1762.63 299.919 1766.24 299.919 Q1769.87 299.919 1771.68 296.377 Q1773.51 292.813 1773.51 285.706 Q1773.51 278.577 1771.68 275.035 Q1769.87 271.47 1766.24 271.47 M1766.24 267.766 Q1772.05 267.766 1775.1 272.373 Q1778.18 276.956 1778.18 285.706 Q1778.18 294.433 1775.1 299.039 Q1772.05 303.623 1766.24 303.623 Q1760.43 303.623 1757.35 299.039 Q1754.29 294.433 1754.29 285.706 Q1754.29 276.956 1757.35 272.373 Q1760.43 267.766 1766.24 267.766 Z" fill="#000000" fill-rule="nonzero" fill-opacity="1" /><path clip-path="url(#clip920)" d="M1790.86 250.771 L1781.27 265.761 L1790.86 265.761 L1790.86 250.771 M1789.86 247.461 L1794.64 247.461 L1794.64 265.761 L1798.65 265.761 L1798.65 268.921 L1794.64 268.921 L1794.64 275.541 L1790.86 275.541 L1790.86 268.921 L1778.18 268.921 L1778.18 265.253 L1789.86 247.461 Z" fill="#000000" fill-rule="nonzero" fill-opacity="1" /><path clip-path="url(#clip920)" d="M2482.51 33.1202 Q2476.35 33.1202 2473.03 37.5762 Q2469.54 42.2347 2469.54 49.9314 Q2469.54 58.0738 2472.99 62.7728 Q2476.47 67.4314 2482.51 67.4314 Q2488.46 67.4314 2491.94 62.7323 Q2495.43 58.0333 2495.43 49.9314 Q2495.43 42.5183 2491.94 37.5762 Q2488.74 33.1202 2482.51 33.1202 M2482.51 27.2059 L2507.26 27.2059 L2507.26 34.6595 L2498.91 34.6595 Q2503.33 40.9789 2503.33 49.9314 Q2503.33 61.0714 2497.78 67.3908 Q2492.23 73.7508 2482.51 73.7508 Q2472.74 73.7508 2467.23 67.3908 Q2461.68 61.0714 2461.68 49.9314 Q2461.68 38.7104 2467.23 32.4315 Q2471.81 27.2059 2482.51 27.2059 Z" fill="#000000" fill-rule="nonzero" fill-opacity="1" /><path clip-path="url(#clip920)" d="M2520.54 40.8979 L2537.72 40.8979 L2537.72 45.516 L2513.49 45.516 L2513.49 41.06 Q2514.87 39.8042 2517.42 37.5357 Q2531.36 25.1804 2531.36 21.3726 Q2531.36 18.699 2529.25 17.0786 Q2527.15 15.4177 2523.7 15.4177 Q2521.6 15.4177 2519.13 16.1469 Q2516.65 16.8356 2513.74 18.2534 L2513.74 13.2708 Q2516.86 12.1365 2519.53 11.5694 Q2522.24 11.0023 2524.55 11.0023 Q2530.43 11.0023 2533.95 13.6759 Q2537.48 16.3494 2537.48 20.7244 Q2537.48 26.3552 2524.07 37.8598 Q2521.8 39.8042 2520.54 40.8979 Z" fill="#000000" fill-rule="nonzero" fill-opacity="1" /><path clip-path="url(#clip923)" d="M1891.61 1153.1 L1891.61 1495.09 L2158.32 1495.09 L2158.32 1153.1 L1891.61 1153.1 L1891.61 1153.1  Z" fill="#009af9" fill-rule="evenodd" fill-opacity="1"/>
<polyline clip-path="url(#clip923)" style="stroke:#000000; stroke-linecap:round; stroke-linejoin:round; stroke-width:12; stroke-opacity:1; fill:none" points="1891.61,1153.1 1891.61,1495.09 2158.32,1495.09 2158.32,1153.1 1891.61,1153.1 "/>
<circle clip-path="url(#clip923)" style="fill:#009af9; stroke:none; fill-opacity:0" cx="2024.97" cy="1153.1" r="2"/>
<path clip-path="url(#clip923)" d="M2366.35 250.594 L2366.35 1495.09 L2633.05 1495.09 L2633.05 250.594 L2366.35 250.594 L2366.35 250.594  Z" fill="#e26f46" fill-rule="evenodd" fill-opacity="1"/>
<polyline clip-path="url(#clip923)" style="stroke:#000000; stroke-linecap:round; stroke-linejoin:round; stroke-width:12; stroke-opacity:1; fill:none" points="2366.35,250.594 2366.35,1495.09 2633.05,1495.09 2633.05,250.594 2366.35,250.594 "/>
<circle clip-path="url(#clip923)" style="fill:#e26f46; stroke:none; fill-opacity:0" cx="2499.7" cy="250.594" r="2"/>
<path clip-path="url(#clip923)" d="M2841.08 108.352 L2841.08 1495.09 L3107.79 1495.09 L3107.79 108.352 L2841.08 108.352 L2841.08 108.352  Z" fill="#3da44d" fill-rule="evenodd" fill-opacity="1"/>
<polyline clip-path="url(#clip923)" style="stroke:#000000; stroke-linecap:round; stroke-linejoin:round; stroke-width:12; stroke-opacity:1; fill:none" points="2841.08,108.352 2841.08,1495.09 3107.79,1495.09 3107.79,108.352 2841.08,108.352 "/>
<circle clip-path="url(#clip923)" style="fill:#3da44d; stroke:none; fill-opacity:0" cx="2974.44" cy="108.352" r="2"/>
<path clip-path="url(#clip920)" d="M1890.18 361.937 L2046.7 361.937 L2046.7 154.577 L1890.18 154.577  Z" fill="#ffffff" fill-rule="evenodd" fill-opacity="1"/>
<polyline clip-path="url(#clip920)" style="stroke:#000000; stroke-linecap:round; stroke-linejoin:round; stroke-width:4; stroke-opacity:1; fill:none" points="1890.18,361.937 2046.7,361.937 2046.7,154.577 1890.18,154.577 1890.18,361.937 "/>
<path clip-path="url(#clip920)" d="M1904.7 227.153 L1991.77 227.153 L1991.77 185.681 L1904.7 185.681 L1904.7 227.153  Z" fill="#009af9" fill-rule="evenodd" fill-opacity="1"/>
<polyline clip-path="url(#clip920)" style="stroke:#000000; stroke-linecap:round; stroke-linejoin:round; stroke-width:12; stroke-opacity:1; fill:none" points="1904.7,227.153 1991.77,227.153 1991.77,185.681 1904.7,185.681 1904.7,227.153 "/>
<path clip-path="url(#clip920)" d="M2010.56 222.099 L2010.56 233.558 L2006.28 233.558 L2006.28 197.933 Q2006.28 187.377 2016.14 187.377 Q2026.19 187.377 2026.19 196.289 Q2026.19 202.632 2022.21 204.947 Q2028.69 207.03 2028.69 213.211 Q2028.69 224.183 2017.53 224.183 Q2012.62 224.183 2010.56 222.099 M2010.56 216.544 Q2013.13 220.549 2017.69 220.549 Q2024.36 220.549 2024.36 213.28 Q2024.36 206.752 2013.62 207.262 L2013.62 203.326 Q2022.02 203.326 2022.02 195.919 Q2022.02 190.85 2016.61 190.85 Q2010.56 190.85 2010.56 198.072 L2010.56 216.544 Z" fill="#000000" fill-rule="nonzero" fill-opacity="1" /><path clip-path="url(#clip920)" d="M1904.7 278.993 L1991.77 278.993 L1991.77 237.521 L1904.7 237.521 L1904.7 278.993  Z" fill="#e26f46" fill-rule="evenodd" fill-opacity="1"/>
<polyline clip-path="url(#clip920)" style="stroke:#000000; stroke-linecap:round; stroke-linejoin:round; stroke-width:12; stroke-opacity:1; fill:none" points="1904.7,278.993 1991.77,278.993 1991.77,237.521 1904.7,237.521 1904.7,278.993 "/>
<path clip-path="url(#clip920)" d="M2019.68 262.504 Q2014.52 262.504 2012.53 263.685 Q2010.54 264.865 2010.54 267.713 Q2010.54 269.981 2012.02 271.324 Q2013.53 272.643 2016.1 272.643 Q2019.64 272.643 2021.77 270.143 Q2023.92 267.62 2023.92 263.453 L2023.92 262.504 L2019.68 262.504 M2028.18 260.745 L2028.18 275.537 L2023.92 275.537 L2023.92 271.601 Q2022.46 273.963 2020.29 275.097 Q2018.11 276.208 2014.96 276.208 Q2010.98 276.208 2008.62 273.986 Q2006.28 271.74 2006.28 267.99 Q2006.28 263.615 2009.2 261.393 Q2012.14 259.171 2017.95 259.171 L2023.92 259.171 L2023.92 258.754 Q2023.92 255.815 2021.98 254.217 Q2020.06 252.597 2016.56 252.597 Q2014.34 252.597 2012.23 253.129 Q2010.12 253.662 2008.18 254.727 L2008.18 250.791 Q2010.52 249.889 2012.72 249.449 Q2014.92 248.986 2017 248.986 Q2022.62 248.986 2025.4 251.903 Q2028.18 254.819 2028.18 260.745 Z" fill="#000000" fill-rule="nonzero" fill-opacity="1" /><path clip-path="url(#clip920)" d="M1904.7 330.833 L1991.77 330.833 L1991.77 289.361 L1904.7 289.361 L1904.7 330.833  Z" fill="#3da44d" fill-rule="evenodd" fill-opacity="1"/>
<polyline clip-path="url(#clip920)" style="stroke:#000000; stroke-linecap:round; stroke-linejoin:round; stroke-width:12; stroke-opacity:1; fill:none" points="1904.7,330.833 1991.77,330.833 1991.77,289.361 1904.7,289.361 1904.7,330.833 "/>
<path clip-path="url(#clip920)" d="M2013.9 305.525 L2019.57 321.543 L2027.67 301.451 L2032.18 301.451 L2021.7 327.377 L2021.7 337.238 L2017.44 337.238 L2017.44 327.377 L2010.63 308.025 Q2009.62 305.108 2007.42 305.108 L2006.28 305.108 L2006.28 301.451 L2007.9 301.451 Q2012.46 301.451 2013.9 305.525 Z" fill="#000000" fill-rule="nonzero" fill-opacity="1" /></svg>
