<?xml version="1.0" encoding="utf-8"?>
<svg xmlns="http://www.w3.org/2000/svg" xmlns:xlink="http://www.w3.org/1999/xlink" width="800" height="400" viewBox="0 0 3200 1600">
<defs>
  <clipPath id="clip120">
    <rect x="0" y="0" width="3200" height="1600"/>
  </clipPath>
</defs>
<path clip-path="url(#clip120)" d="M0 1600 L3200 1600 L3200 0 L0 0  Z" fill="#ffffff" fill-rule="evenodd" fill-opacity="1"/>
<defs>
  <clipPath id="clip121">
    <rect x="211" y="47" width="2942" height="1350"/>
  </clipPath>
</defs>
<path clip-path="url(#clip120)" d="M211.842 1396.46 L3152.76 1396.46 L3152.76 47.2441 L211.842 47.2441  Z" fill="#ffffff" fill-rule="evenodd" fill-opacity="1"/>
<polyline clip-path="url(#clip121)" style="stroke:#000000; stroke-linecap:round; stroke-linejoin:round; stroke-width:2; stroke-opacity:0.1; fill:none" points="211.842,1396.46 211.842,47.2441 "/>
<polyline clip-path="url(#clip121)" style="stroke:#000000; stroke-linecap:round; stroke-linejoin:round; stroke-width:2; stroke-opacity:0.1; fill:none" points="800.025,1396.46 800.025,47.2441 "/>
<polyline clip-path="url(#clip121)" style="stroke:#000000; stroke-linecap:round; stroke-linejoin:round; stroke-width:2; stroke-opacity:0.1; fill:none" points="1388.21,1396.46 1388.21,47.2441 "/>
<polyline clip-path="url(#clip121)" style="stroke:#000000; stroke-linecap:round; stroke-linejoin:round; stroke-width:2; stroke-opacity:0.1; fill:none" points="1976.39,1396.46 1976.39,47.2441 "/>
<polyline clip-path="url(#clip121)" style="stroke:#000000; stroke-linecap:round; stroke-linejoin:round; stroke-width:2; stroke-opacity:0.1; fill:none" points="2564.57,1396.46 2564.57,47.2441 "/>
<polyline clip-path="url(#clip121)" style="stroke:#000000; stroke-linecap:round; stroke-linejoin:round; stroke-width:2; stroke-opacity:0.1; fill:none" points="3152.76,1396.46 3152.76,47.2441 "/>
<polyline clip-path="url(#clip121)" style="stroke:#000000; stroke-linecap:round; stroke-linejoin:round; stroke-width:2; stroke-opacity:0.1; fill:none" points="211.842,1396.46 211.842,47.2441 "/>
<polyline clip-path="url(#clip121)" style="stroke:#000000; stroke-linecap:round; stroke-linejoin:round; stroke-width:2; stroke-opacity:0.1; fill:none" points="800.025,1396.46 800.025,47.2441 "/>
<polyline clip-path="url(#clip121)" style="stroke:#000000; stroke-linecap:round; stroke-linejoin:round; stroke-width:2; stroke-opacity:0.1; fill:none" points="1388.21,1396.46 1388.21,47.2441 "/>
<polyline clip-path="url(#clip121)" style="stroke:#000000; stroke-linecap:round; stroke-linejoin:round; stroke-width:2; stroke-opacity:0.1; fill:none" points="1976.39,1396.46 1976.39,47.2441 "/>
<polyline clip-path="url(#clip121)" style="stroke:#000000; stroke-linecap:round; stroke-linejoin:round; stroke-width:2; stroke-opacity:0.1; fill:none" points="2564.57,1396.46 2564.57,47.2441 "/>
<polyline clip-path="url(#clip121)" style="stroke:#000000; stroke-linecap:round; stroke-linejoin:round; stroke-width:2; stroke-opacity:0.1; fill:none" points="3152.76,1396.46 3152.76,47.2441 "/>
<polyline clip-path="url(#clip121)" style="stroke:#000000; stroke-linecap:round; stroke-linejoin:round; stroke-width:2; stroke-opacity:0.1; fill:none" points="211.842,1307.58 3152.76,1307.58 "/>
<polyline clip-path="url(#clip121)" style="stroke:#000000; stroke-linecap:round; stroke-linejoin:round; stroke-width:2; stroke-opacity:0.1; fill:none" points="211.842,1007.21 3152.76,1007.21 "/>
<polyline clip-path="url(#clip121)" style="stroke:#000000; stroke-linecap:round; stroke-linejoin:round; stroke-width:2; stroke-opacity:0.1; fill:none" points="211.842,706.831 3152.76,706.831 "/>
<polyline clip-path="url(#clip121)" style="stroke:#000000; stroke-linecap:round; stroke-linejoin:round; stroke-width:2; stroke-opacity:0.1; fill:none" points="211.842,406.457 3152.76,406.457 "/>
<polyline clip-path="url(#clip121)" style="stroke:#000000; stroke-linecap:round; stroke-linejoin:round; stroke-width:2; stroke-opacity:0.1; fill:none" points="211.842,106.083 3152.76,106.083 "/>
<polyline clip-path="url(#clip121)" style="stroke:#000000; stroke-linecap:round; stroke-linejoin:round; stroke-width:2; stroke-opacity:0.1; fill:none" points="211.842,1307.58 3152.76,1307.58 "/>
<polyline clip-path="url(#clip121)" style="stroke:#000000; stroke-linecap:round; stroke-linejoin:round; stroke-width:2; stroke-opacity:0.1; fill:none" points="211.842,1007.21 3152.76,1007.21 "/>
<polyline clip-path="url(#clip121)" style="stroke:#000000; stroke-linecap:round; stroke-linejoin:round; stroke-width:2; stroke-opacity:0.1; fill:none" points="211.842,706.831 3152.76,706.831 "/>
<polyline clip-path="url(#clip121)" style="stroke:#000000; stroke-linecap:round; stroke-linejoin:round; stroke-width:2; stroke-opacity:0.1; fill:none" points="211.842,406.457 3152.76,406.457 "/>
<polyline clip-path="url(#clip121)" style="stroke:#000000; stroke-linecap:round; stroke-linejoin:round; stroke-width:2; stroke-opacity:0.1; fill:none" points="211.842,106.083 3152.76,106.083 "/>
<polyline clip-path="url(#clip120)" style="stroke:#000000; stroke-linecap:round; stroke-linejoin:round; stroke-width:4; stroke-opacity:1; fill:none" points="211.842,1396.46 3152.76,1396.46 "/>
<polyline clip-path="url(#clip120)" style="stroke:#000000; stroke-linecap:round; stroke-linejoin:round; stroke-width:4; stroke-opacity:1; fill:none" points="211.842,47.2441 3152.76,47.2441 "/>
<polyline clip-path="url(#clip120)" style="stroke:#000000; stroke-linecap:round; stroke-linejoin:round; stroke-width:4; stroke-opacity:1; fill:none" points="211.842,1396.46 211.842,1377.56 "/>
<polyline clip-path="url(#clip120)" style="stroke:#000000; stroke-linecap:round; stroke-linejoin:round; stroke-width:4; stroke-opacity:1; fill:none" points="800.025,1396.46 800.025,1377.56 "/>
<polyline clip-path="url(#clip120)" style="stroke:#000000; stroke-linecap:round; stroke-linejoin:round; stroke-width:4; stroke-opacity:1; fill:none" points="1388.21,1396.46 1388.21,1377.56 "/>
<polyline clip-path="url(#clip120)" style="stroke:#000000; stroke-linecap:round; stroke-linejoin:round; stroke-width:4; stroke-opacity:1; fill:none" points="1976.39,1396.46 1976.39,1377.56 "/>
<polyline clip-path="url(#clip120)" style="stroke:#000000; stroke-linecap:round; stroke-linejoin:round; stroke-width:4; stroke-opacity:1; fill:none" points="2564.57,1396.46 2564.57,1377.56 "/>
<polyline clip-path="url(#clip120)" style="stroke:#000000; stroke-linecap:round; stroke-linejoin:round; stroke-width:4; stroke-opacity:1; fill:none" points="3152.76,1396.46 3152.76,1377.56 "/>
<polyline clip-path="url(#clip120)" style="stroke:#000000; stroke-linecap:round; stroke-linejoin:round; stroke-width:4; stroke-opacity:1; fill:none" points="211.842,47.2441 211.842,66.1417 "/>
<polyline clip-path="url(#clip120)" style="stroke:#000000; stroke-linecap:round; stroke-linejoin:round; stroke-width:4; stroke-opacity:1; fill:none" points="800.025,47.2441 800.025,66.1417 "/>
<polyline clip-path="url(#clip120)" style="stroke:#000000; stroke-linecap:round; stroke-linejoin:round; stroke-width:4; stroke-opacity:1; fill:none" points="1388.21,47.2441 1388.21,66.1417 "/>
<polyline clip-path="url(#clip120)" style="stroke:#000000; stroke-linecap:round; stroke-linejoin:round; stroke-width:4; stroke-opacity:1; fill:none" points="1976.39,47.2441 1976.39,66.1417 "/>
<polyline clip-path="url(#clip120)" style="stroke:#000000; stroke-linecap:round; stroke-linejoin:round; stroke-width:4; stroke-opacity:1; fill:none" points="2564.57,47.2441 2564.57,66.1417 "/>
<polyline clip-path="url(#clip120)" style="stroke:#000000; stroke-linecap:round; stroke-linejoin:round; stroke-width:4; stroke-opacity:1; fill:none" points="3152.76,47.2441 3152.76,66.1417 "/>
<path clip-path="url(#clip120)" d="M189.227 1433.77 Q185.616 1433.77 183.787 1437.34 Q181.981 1440.88 181.981 1448.01 Q181.981 1455.12 183.787 1458.68 Q185.616 1462.22 189.227 1462.22 Q192.861 1462.22 194.666 1458.68 Q196.495 1455.12 196.495 1448.01 Q196.495 1440.88 194.666 1437.34 Q192.861 1433.77 189.227 1433.77 M189.227 1430.07 Q195.037 1430.07 198.092 1434.68 Q201.171 1439.26 201.171 1448.01 Q201.171 1456.74 198.092 1461.34 Q195.037 1465.93 189.227 1465.93 Q183.417 1465.93 180.338 1461.34 Q177.282 1456.74 177.282 1448.01 Q177.282 1439.26 180.338 1434.68 Q183.417 1430.07 189.227 1430.07 Z" fill="#000000" fill-rule="nonzero" fill-opacity="1" /><path clip-path="url(#clip120)" d="M209.389 1459.38 L214.273 1459.38 L214.273 1465.26 L209.389 1465.26 L209.389 1459.38 Z" fill="#000000" fill-rule="nonzero" fill-opacity="1" /><path clip-path="url(#clip120)" d="M234.458 1433.77 Q230.847 1433.77 229.018 1437.34 Q227.213 1440.88 227.213 1448.01 Q227.213 1455.12 229.018 1458.68 Q230.847 1462.22 234.458 1462.22 Q238.092 1462.22 239.898 1458.68 Q241.726 1455.12 241.726 1448.01 Q241.726 1440.88 239.898 1437.34 Q238.092 1433.77 234.458 1433.77 M234.458 1430.07 Q240.268 1430.07 243.324 1434.68 Q246.402 1439.26 246.402 1448.01 Q246.402 1456.74 243.324 1461.34 Q240.268 1465.93 234.458 1465.93 Q228.648 1465.93 225.569 1461.34 Q222.514 1456.74 222.514 1448.01 Q222.514 1439.26 225.569 1434.68 Q228.648 1430.07 234.458 1430.07 Z" fill="#000000" fill-rule="nonzero" fill-opacity="1" /><path clip-path="url(#clip120)" d="M778.208 1433.77 Q774.597 1433.77 772.768 1437.34 Q770.963 1440.88 770.963 1448.01 Q770.963 1455.12 772.768 1458.68 Q774.597 1462.22 778.208 1462.22 Q781.842 1462.22 783.648 1458.68 Q785.477 1455.12 785.477 1448.01 Q785.477 1440.88 783.648 1437.34 Q781.842 1433.77 778.208 1433.77 M778.208 1430.07 Q784.018 1430.07 787.074 1434.68 Q790.152 1439.26 790.152 1448.01 Q790.152 1456.74 787.074 1461.34 Q784.018 1465.93 778.208 1465.93 Q772.398 1465.93 769.319 1461.34 Q766.264 1456.74 766.264 1448.01 Q766.264 1439.26 769.319 1434.68 Q772.398 1430.07 778.208 1430.07 Z" fill="#000000" fill-rule="nonzero" fill-opacity="1" /><path clip-path="url(#clip120)" d="M798.37 1459.38 L803.254 1459.38 L803.254 1465.26 L798.37 1465.26 L798.37 1459.38 Z" fill="#000000" fill-rule="nonzero" fill-opacity="1" /><path clip-path="url(#clip120)" d="M817.467 1461.32 L833.786 1461.32 L833.786 1465.26 L811.842 1465.26 L811.842 1461.32 Q814.504 1458.57 819.087 1453.94 Q823.694 1449.28 824.874 1447.94 Q827.12 1445.42 827.999 1443.68 Q828.902 1441.92 828.902 1440.23 Q828.902 1437.48 826.958 1435.74 Q825.036 1434.01 821.935 1434.01 Q819.736 1434.01 817.282 1434.77 Q814.851 1435.53 812.074 1437.08 L812.074 1432.36 Q814.898 1431.23 817.351 1430.65 Q819.805 1430.07 821.842 1430.07 Q827.212 1430.07 830.407 1432.76 Q833.601 1435.44 833.601 1439.93 Q833.601 1442.06 832.791 1443.98 Q832.004 1445.88 829.898 1448.47 Q829.319 1449.14 826.217 1452.36 Q823.115 1455.56 817.467 1461.32 Z" fill="#000000" fill-rule="nonzero" fill-opacity="1" /><path clip-path="url(#clip120)" d="M1365.35 1433.77 Q1361.74 1433.77 1359.91 1437.34 Q1358.1 1440.88 1358.1 1448.01 Q1358.1 1455.12 1359.91 1458.68 Q1361.74 1462.22 1365.35 1462.22 Q1368.98 1462.22 1370.79 1458.68 Q1372.62 1455.12 1372.62 1448.01 Q1372.62 1440.88 1370.79 1437.34 Q1368.98 1433.77 1365.35 1433.77 M1365.35 1430.07 Q1371.16 1430.07 1374.21 1434.68 Q1377.29 1439.26 1377.29 1448.01 Q1377.29 1456.74 1374.21 1461.34 Q1371.16 1465.93 1365.35 1465.93 Q1359.54 1465.93 1356.46 1461.34 Q1353.4 1456.74 1353.4 1448.01 Q1353.4 1439.26 1356.46 1434.68 Q1359.54 1430.07 1365.35 1430.07 Z" fill="#000000" fill-rule="nonzero" fill-opacity="1" /><path clip-path="url(#clip120)" d="M1385.51 1459.38 L1390.4 1459.38 L1390.4 1465.26 L1385.51 1465.26 L1385.51 1459.38 Z" fill="#000000" fill-rule="nonzero" fill-opacity="1" /><path clip-path="url(#clip120)" d="M1413.43 1434.77 L1401.62 1453.22 L1413.43 1453.22 L1413.43 1434.77 M1412.2 1430.7 L1418.08 1430.7 L1418.08 1453.22 L1423.01 1453.22 L1423.01 1457.11 L1418.08 1457.11 L1418.08 1465.26 L1413.43 1465.26 L1413.43 1457.11 L1397.83 1457.11 L1397.83 1452.59 L1412.2 1430.7 Z" fill="#000000" fill-rule="nonzero" fill-opacity="1" /><path clip-path="url(#clip120)" d="M1953.69 1433.77 Q1950.08 1433.77 1948.25 1437.34 Q1946.45 1440.88 1946.45 1448.01 Q1946.45 1455.12 1948.25 1458.68 Q1950.08 1462.22 1953.69 1462.22 Q1957.33 1462.22 1959.13 1458.68 Q1960.96 1455.12 1960.96 1448.01 Q1960.96 1440.88 1959.13 1437.34 Q1957.33 1433.77 1953.69 1433.77 M1953.69 1430.07 Q1959.5 1430.07 1962.56 1434.68 Q1965.64 1439.26 1965.64 1448.01 Q1965.64 1456.74 1962.56 1461.34 Q1959.5 1465.93 1953.69 1465.93 Q1947.88 1465.93 1944.8 1461.34 Q1941.75 1456.74 1941.75 1448.01 Q1941.75 1439.26 1944.8 1434.68 Q1947.88 1430.07 1953.69 1430.07 Z" fill="#000000" fill-rule="nonzero" fill-opacity="1" /><path clip-path="url(#clip120)" d="M1973.86 1459.38 L1978.74 1459.38 L1978.74 1465.26 L1973.86 1465.26 L1973.86 1459.38 Z" fill="#000000" fill-rule="nonzero" fill-opacity="1" /><path clip-path="url(#clip120)" d="M1999.5 1446.11 Q1996.36 1446.11 1994.5 1448.27 Q1992.68 1450.42 1992.68 1454.17 Q1992.68 1457.89 1994.5 1460.07 Q1996.36 1462.22 1999.5 1462.22 Q2002.65 1462.22 2004.48 1460.07 Q2006.33 1457.89 2006.33 1454.17 Q2006.33 1450.42 2004.48 1448.27 Q2002.65 1446.11 1999.5 1446.11 M2008.79 1431.46 L2008.79 1435.72 Q2007.03 1434.89 2005.22 1434.45 Q2003.44 1434.01 2001.68 1434.01 Q1997.05 1434.01 1994.6 1437.13 Q1992.17 1440.26 1991.82 1446.58 Q1993.18 1444.56 1995.24 1443.5 Q1997.3 1442.41 1999.78 1442.41 Q2004.99 1442.41 2008 1445.58 Q2011.03 1448.73 2011.03 1454.17 Q2011.03 1459.49 2007.88 1462.71 Q2004.74 1465.93 1999.5 1465.93 Q1993.51 1465.93 1990.34 1461.34 Q1987.17 1456.74 1987.17 1448.01 Q1987.17 1439.82 1991.05 1434.95 Q1994.94 1430.07 2001.49 1430.07 Q2003.25 1430.07 2005.04 1430.42 Q2006.84 1430.77 2008.79 1431.46 Z" fill="#000000" fill-rule="nonzero" fill-opacity="1" /><path clip-path="url(#clip120)" d="M2542 1433.77 Q2538.39 1433.77 2536.56 1437.34 Q2534.76 1440.88 2534.76 1448.01 Q2534.76 1455.12 2536.56 1458.68 Q2538.39 1462.22 2542 1462.22 Q2545.64 1462.22 2547.44 1458.68 Q2549.27 1455.12 2549.27 1448.01 Q2549.27 1440.88 2547.44 1437.34 Q2545.64 1433.77 2542 1433.77 M2542 1430.07 Q2547.81 1430.07 2550.87 1434.68 Q2553.95 1439.26 2553.95 1448.01 Q2553.95 1456.74 2550.87 1461.34 Q2547.81 1465.93 2542 1465.93 Q2536.19 1465.93 2533.12 1461.34 Q2530.06 1456.74 2530.06 1448.01 Q2530.06 1439.26 2533.12 1434.68 Q2536.19 1430.07 2542 1430.07 Z" fill="#000000" fill-rule="nonzero" fill-opacity="1" /><path clip-path="url(#clip120)" d="M2562.17 1459.38 L2567.05 1459.38 L2567.05 1465.26 L2562.17 1465.26 L2562.17 1459.38 Z" fill="#000000" fill-rule="nonzero" fill-opacity="1" /><path clip-path="url(#clip120)" d="M2587.24 1448.84 Q2583.9 1448.84 2581.98 1450.63 Q2580.08 1452.41 2580.08 1455.53 Q2580.08 1458.66 2581.98 1460.44 Q2583.9 1462.22 2587.24 1462.22 Q2590.57 1462.22 2592.49 1460.44 Q2594.41 1458.64 2594.41 1455.53 Q2594.41 1452.41 2592.49 1450.63 Q2590.59 1448.84 2587.24 1448.84 M2582.56 1446.85 Q2579.55 1446.11 2577.86 1444.05 Q2576.19 1441.99 2576.19 1439.03 Q2576.19 1434.89 2579.13 1432.48 Q2582.1 1430.07 2587.24 1430.07 Q2592.4 1430.07 2595.34 1432.48 Q2598.28 1434.89 2598.28 1439.03 Q2598.28 1441.99 2596.59 1444.05 Q2594.92 1446.11 2591.93 1446.85 Q2595.31 1447.64 2597.19 1449.93 Q2599.09 1452.22 2599.09 1455.53 Q2599.09 1460.56 2596.01 1463.24 Q2592.95 1465.93 2587.24 1465.93 Q2581.52 1465.93 2578.44 1463.24 Q2575.38 1460.56 2575.38 1455.53 Q2575.38 1452.22 2577.28 1449.93 Q2579.18 1447.64 2582.56 1446.85 M2580.85 1439.47 Q2580.85 1442.15 2582.51 1443.66 Q2584.2 1445.16 2587.24 1445.16 Q2590.24 1445.16 2591.93 1443.66 Q2593.65 1442.15 2593.65 1439.47 Q2593.65 1436.78 2591.93 1435.28 Q2590.24 1433.77 2587.24 1433.77 Q2584.2 1433.77 2582.51 1435.28 Q2580.85 1436.78 2580.85 1439.47 Z" fill="#000000" fill-rule="nonzero" fill-opacity="1" /><path clip-path="url(#clip120)" d="M3119.91 1461.32 L3127.55 1461.32 L3127.55 1434.95 L3119.24 1436.62 L3119.24 1432.36 L3127.5 1430.7 L3132.18 1430.7 L3132.18 1461.32 L3139.82 1461.32 L3139.82 1465.26 L3119.91 1465.26 L3119.91 1461.32 Z" fill="#000000" fill-rule="nonzero" fill-opacity="1" /><path clip-path="url(#clip120)" d="M3149.26 1459.38 L3154.14 1459.38 L3154.14 1465.26 L3149.26 1465.26 L3149.26 1459.38 Z" fill="#000000" fill-rule="nonzero" fill-opacity="1" /><path clip-path="url(#clip120)" d="M3174.33 1433.77 Q3170.72 1433.77 3168.89 1437.34 Q3167.08 1440.88 3167.08 1448.01 Q3167.08 1455.12 3168.89 1458.68 Q3170.72 1462.22 3174.33 1462.22 Q3177.96 1462.22 3179.77 1458.68 Q3181.6 1455.12 3181.6 1448.01 Q3181.6 1440.88 3179.77 1437.34 Q3177.96 1433.77 3174.33 1433.77 M3174.33 1430.07 Q3180.14 1430.07 3183.2 1434.68 Q3186.27 1439.26 3186.27 1448.01 Q3186.27 1456.74 3183.2 1461.34 Q3180.14 1465.93 3174.33 1465.93 Q3168.52 1465.93 3165.44 1461.34 Q3162.39 1456.74 3162.39 1448.01 Q3162.39 1439.26 3165.44 1434.68 Q3168.52 1430.07 3174.33 1430.07 Z" fill="#000000" fill-rule="nonzero" fill-opacity="1" /><path clip-path="url(#clip120)" d="M1681.36 1507.55 L1681.36 1517.67 L1693.42 1517.67 L1693.42 1522.22 L1681.36 1522.22 L1681.36 1541.58 Q1681.36 1545.94 1682.54 1547.18 Q1683.75 1548.42 1687.41 1548.42 L1693.42 1548.42 L1693.42 1553.32 L1687.41 1553.32 Q1680.63 1553.32 1678.05 1550.81 Q1675.47 1548.26 1675.47 1541.58 L1675.47 1522.22 L1671.18 1522.22 L1671.18 1517.67 L1675.47 1517.67 L1675.47 1507.55 L1681.36 1507.55 Z" fill="#000000" fill-rule="nonzero" fill-opacity="1" /><polyline clip-path="url(#clip120)" style="stroke:#000000; stroke-linecap:round; stroke-linejoin:round; stroke-width:4; stroke-opacity:1; fill:none" points="211.842,1396.46 211.842,47.2441 "/>
<polyline clip-path="url(#clip120)" style="stroke:#000000; stroke-linecap:round; stroke-linejoin:round; stroke-width:4; stroke-opacity:1; fill:none" points="3152.76,1396.46 3152.76,47.2441 "/>
<polyline clip-path="url(#clip120)" style="stroke:#000000; stroke-linecap:round; stroke-linejoin:round; stroke-width:4; stroke-opacity:1; fill:none" points="211.842,1307.58 230.74,1307.58 "/>
<polyline clip-path="url(#clip120)" style="stroke:#000000; stroke-linecap:round; stroke-linejoin:round; stroke-width:4; stroke-opacity:1; fill:none" points="211.842,1007.21 230.74,1007.21 "/>
<polyline clip-path="url(#clip120)" style="stroke:#000000; stroke-linecap:round; stroke-linejoin:round; stroke-width:4; stroke-opacity:1; fill:none" points="211.842,706.831 230.74,706.831 "/>
<polyline clip-path="url(#clip120)" style="stroke:#000000; stroke-linecap:round; stroke-linejoin:round; stroke-width:4; stroke-opacity:1; fill:none" points="211.842,406.457 230.74,406.457 "/>
<polyline clip-path="url(#clip120)" style="stroke:#000000; stroke-linecap:round; stroke-linejoin:round; stroke-width:4; stroke-opacity:1; fill:none" points="211.842,106.083 230.74,106.083 "/>
<polyline clip-path="url(#clip120)" style="stroke:#000000; stroke-linecap:round; stroke-linejoin:round; stroke-width:4; stroke-opacity:1; fill:none" points="3152.76,1307.58 3133.86,1307.58 "/>
<polyline clip-path="url(#clip120)" style="stroke:#000000; stroke-linecap:round; stroke-linejoin:round; stroke-width:4; stroke-opacity:1; fill:none" points="3152.76,1007.21 3133.86,1007.21 "/>
<polyline clip-path="url(#clip120)" style="stroke:#000000; stroke-linecap:round; stroke-linejoin:round; stroke-width:4; stroke-opacity:1; fill:none" points="3152.76,706.831 3133.86,706.831 "/>
<polyline clip-path="url(#clip120)" style="stroke:#000000; stroke-linecap:round; stroke-linejoin:round; stroke-width:4; stroke-opacity:1; fill:none" points="3152.76,406.457 3133.86,406.457 "/>
<polyline clip-path="url(#clip120)" style="stroke:#000000; stroke-linecap:round; stroke-linejoin:round; stroke-width:4; stroke-opacity:1; fill:none" points="3152.76,106.083 3133.86,106.083 "/>
<path clip-path="url(#clip120)" d="M107.315 1293.38 Q103.704 1293.38 101.875 1296.94 Q100.07 1300.49 100.07 1307.61 Q100.07 1314.72 101.875 1318.29 Q103.704 1321.83 107.315 1321.83 Q110.949 1321.83 112.755 1318.29 Q114.583 1314.72 114.583 1307.61 Q114.583 1300.49 112.755 1296.94 Q110.949 1293.38 107.315 1293.38 M107.315 1289.67 Q113.125 1289.67 116.181 1294.28 Q119.259 1298.86 119.259 1307.61 Q119.259 1316.34 116.181 1320.95 Q113.125 1325.53 107.315 1325.53 Q101.505 1325.53 98.426 1320.95 Q95.3705 1316.34 95.3705 1307.61 Q95.3705 1298.86 98.426 1294.28 Q101.505 1289.67 107.315 1289.67 Z" fill="#000000" fill-rule="nonzero" fill-opacity="1" /><path clip-path="url(#clip120)" d="M127.477 1318.98 L132.361 1318.98 L132.361 1324.86 L127.477 1324.86 L127.477 1318.98 Z" fill="#000000" fill-rule="nonzero" fill-opacity="1" /><path clip-path="url(#clip120)" d="M156.713 1306.23 Q160.069 1306.94 161.944 1309.21 Q163.842 1311.48 163.842 1314.81 Q163.842 1319.93 160.324 1322.73 Q156.805 1325.53 150.324 1325.53 Q148.148 1325.53 145.833 1325.09 Q143.542 1324.67 141.088 1323.82 L141.088 1319.3 Q143.032 1320.44 145.347 1321.02 Q147.662 1321.6 150.185 1321.6 Q154.583 1321.6 156.875 1319.86 Q159.19 1318.12 159.19 1314.81 Q159.19 1311.76 157.037 1310.05 Q154.907 1308.31 151.088 1308.31 L147.06 1308.31 L147.06 1304.47 L151.273 1304.47 Q154.722 1304.47 156.551 1303.1 Q158.379 1301.71 158.379 1299.12 Q158.379 1296.46 156.481 1295.05 Q154.606 1293.61 151.088 1293.61 Q149.166 1293.61 146.967 1294.03 Q144.768 1294.44 142.129 1295.32 L142.129 1291.16 Q144.792 1290.42 147.106 1290.05 Q149.444 1289.67 151.504 1289.67 Q156.828 1289.67 159.93 1292.11 Q163.032 1294.51 163.032 1298.63 Q163.032 1301.5 161.389 1303.49 Q159.745 1305.46 156.713 1306.23 Z" fill="#000000" fill-rule="nonzero" fill-opacity="1" /><path clip-path="url(#clip120)" d="M106.181 993.004 Q102.57 993.004 100.741 996.569 Q98.9353 1000.11 98.9353 1007.24 Q98.9353 1014.35 100.741 1017.91 Q102.57 1021.45 106.181 1021.45 Q109.815 1021.45 111.62 1017.91 Q113.449 1014.35 113.449 1007.24 Q113.449 1000.11 111.62 996.569 Q109.815 993.004 106.181 993.004 M106.181 989.301 Q111.991 989.301 115.046 993.907 Q118.125 998.49 118.125 1007.24 Q118.125 1015.97 115.046 1020.57 Q111.991 1025.16 106.181 1025.16 Q100.37 1025.16 97.2918 1020.57 Q94.2362 1015.97 94.2362 1007.24 Q94.2362 998.49 97.2918 993.907 Q100.37 989.301 106.181 989.301 Z" fill="#000000" fill-rule="nonzero" fill-opacity="1" /><path clip-path="url(#clip120)" d="M126.343 1018.61 L131.227 1018.61 L131.227 1024.49 L126.343 1024.49 L126.343 1018.61 Z" fill="#000000" fill-rule="nonzero" fill-opacity="1" /><path clip-path="url(#clip120)" d="M154.259 994 L142.454 1012.45 L154.259 1012.45 L154.259 994 M153.032 989.926 L158.912 989.926 L158.912 1012.45 L163.842 1012.45 L163.842 1016.34 L158.912 1016.34 L158.912 1024.49 L154.259 1024.49 L154.259 1016.34 L138.657 1016.34 L138.657 1011.82 L153.032 989.926 Z" fill="#000000" fill-rule="nonzero" fill-opacity="1" /><path clip-path="url(#clip120)" d="M107.662 692.63 Q104.051 692.63 102.222 696.195 Q100.417 699.736 100.417 706.866 Q100.417 713.972 102.222 717.537 Q104.051 721.079 107.662 721.079 Q111.296 721.079 113.102 717.537 Q114.931 713.972 114.931 706.866 Q114.931 699.736 113.102 696.195 Q111.296 692.63 107.662 692.63 M107.662 688.926 Q113.472 688.926 116.528 693.533 Q119.606 698.116 119.606 706.866 Q119.606 715.593 116.528 720.199 Q113.472 724.782 107.662 724.782 Q101.852 724.782 98.7732 720.199 Q95.7177 715.593 95.7177 706.866 Q95.7177 698.116 98.7732 693.533 Q101.852 688.926 107.662 688.926 Z" fill="#000000" fill-rule="nonzero" fill-opacity="1" /><path clip-path="url(#clip120)" d="M127.824 718.232 L132.708 718.232 L132.708 724.111 L127.824 724.111 L127.824 718.232 Z" fill="#000000" fill-rule="nonzero" fill-opacity="1" /><path clip-path="url(#clip120)" d="M142.94 689.551 L161.296 689.551 L161.296 693.486 L147.222 693.486 L147.222 701.959 Q148.241 701.611 149.259 701.449 Q150.278 701.264 151.296 701.264 Q157.083 701.264 160.463 704.435 Q163.842 707.607 163.842 713.023 Q163.842 718.602 160.37 721.704 Q156.898 724.782 150.579 724.782 Q148.403 724.782 146.134 724.412 Q143.889 724.042 141.481 723.301 L141.481 718.602 Q143.565 719.736 145.787 720.292 Q148.009 720.847 150.486 720.847 Q154.491 720.847 156.828 718.741 Q159.166 716.634 159.166 713.023 Q159.166 709.412 156.828 707.306 Q154.491 705.199 150.486 705.199 Q148.611 705.199 146.736 705.616 Q144.884 706.033 142.94 706.912 L142.94 689.551 Z" fill="#000000" fill-rule="nonzero" fill-opacity="1" /><path clip-path="url(#clip120)" d="M106.505 392.256 Q102.894 392.256 101.065 395.82 Q99.2593 399.362 99.2593 406.492 Q99.2593 413.598 101.065 417.163 Q102.894 420.704 106.505 420.704 Q110.139 420.704 111.944 417.163 Q113.773 413.598 113.773 406.492 Q113.773 399.362 111.944 395.82 Q110.139 392.256 106.505 392.256 M106.505 388.552 Q112.315 388.552 115.37 393.158 Q118.449 397.742 118.449 406.492 Q118.449 415.218 115.37 419.825 Q112.315 424.408 106.505 424.408 Q100.695 424.408 97.6158 419.825 Q94.5603 415.218 94.5603 406.492 Q94.5603 397.742 97.6158 393.158 Q100.695 388.552 106.505 388.552 Z" fill="#000000" fill-rule="nonzero" fill-opacity="1" /><path clip-path="url(#clip120)" d="M126.667 417.857 L131.551 417.857 L131.551 423.737 L126.667 423.737 L126.667 417.857 Z" fill="#000000" fill-rule="nonzero" fill-opacity="1" /><path clip-path="url(#clip120)" d="M152.315 404.593 Q149.166 404.593 147.315 406.746 Q145.486 408.899 145.486 412.649 Q145.486 416.376 147.315 418.552 Q149.166 420.704 152.315 420.704 Q155.463 420.704 157.291 418.552 Q159.143 416.376 159.143 412.649 Q159.143 408.899 157.291 406.746 Q155.463 404.593 152.315 404.593 M161.597 389.941 L161.597 394.2 Q159.838 393.367 158.032 392.927 Q156.25 392.487 154.491 392.487 Q149.861 392.487 147.407 395.612 Q144.977 398.737 144.629 405.056 Q145.995 403.043 148.055 401.978 Q150.116 400.89 152.592 400.89 Q157.801 400.89 160.81 404.061 Q163.842 407.209 163.842 412.649 Q163.842 417.973 160.694 421.191 Q157.546 424.408 152.315 424.408 Q146.319 424.408 143.148 419.825 Q139.977 415.218 139.977 406.492 Q139.977 398.297 143.866 393.436 Q147.754 388.552 154.305 388.552 Q156.065 388.552 157.847 388.899 Q159.653 389.246 161.597 389.941 Z" fill="#000000" fill-rule="nonzero" fill-opacity="1" /><path clip-path="url(#clip120)" d="M107.569 91.8812 Q103.958 91.8812 102.13 95.446 Q100.324 98.9876 100.324 106.117 Q100.324 113.224 102.13 116.788 Q103.958 120.33 107.569 120.33 Q111.204 120.33 113.009 116.788 Q114.838 113.224 114.838 106.117 Q114.838 98.9876 113.009 95.446 Q111.204 91.8812 107.569 91.8812 M107.569 88.1775 Q113.38 88.1775 116.435 92.784 Q119.514 97.3673 119.514 106.117 Q119.514 114.844 116.435 119.451 Q113.38 124.034 107.569 124.034 Q101.759 124.034 98.6806 119.451 Q95.6251 114.844 95.6251 106.117 Q95.6251 97.3673 98.6806 92.784 Q101.759 88.1775 107.569 88.1775 Z" fill="#000000" fill-rule="nonzero" fill-opacity="1" /><path clip-path="url(#clip120)" d="M127.731 117.483 L132.616 117.483 L132.616 123.363 L127.731 123.363 L127.731 117.483 Z" fill="#000000" fill-rule="nonzero" fill-opacity="1" /><path clip-path="url(#clip120)" d="M141.62 88.8025 L163.842 88.8025 L163.842 90.7932 L151.296 123.363 L146.412 123.363 L158.217 92.7377 L141.62 92.7377 L141.62 88.8025 Z" fill="#000000" fill-rule="nonzero" fill-opacity="1" /><polyline clip-path="url(#clip121)" style="stroke:#009af9; stroke-linecap:round; stroke-linejoin:round; stroke-width:8; stroke-opacity:1; fill:none" points="211.842,1217.47 211.866,1217.4 258.585,1098.07 267.929,1075.78 278.441,1051.24 290.267,1024.41 303.571,995.036 318.538,963.17 335.377,928.54 354.319,891.328 375.63,851.258 399.605,808.724 426.576,763.453 456.919,716.135 491.054,666.508 529.457,615.645 572.66,563.286 621.263,510.94 675.941,458.312 737.455,407.331 806.658,357.589 884.511,311.296 972.095,267.814 1070.63,229.361 1181.48,194.946 1306.18,166.432 1446.48,142.438 1604.31,124.154 1781.87,109.935 1981.62,100.214 2206.34,93.3837 2459.16,89.3332 2743.57,86.8409 3063.54,85.6199 3152.76,85.4293 "/>
<polyline clip-path="url(#clip121)" style="stroke:#e26f46; stroke-linecap:round; stroke-linejoin:round; stroke-width:8; stroke-opacity:1; fill:none" points="211.842,226.232 211.866,226.295 258.585,345.628 267.929,367.92 278.441,392.462 290.267,419.293 303.571,448.664 318.538,480.53 335.377,515.16 354.319,552.372 375.63,592.442 399.605,634.975 426.576,680.247 456.919,727.565 491.054,777.192 529.457,828.054 572.66,880.414 621.263,932.76 675.941,985.388 737.455,1036.37 806.658,1086.11 884.511,1132.4 972.095,1175.89 1070.63,1214.34 1181.48,1248.75 1306.18,1277.27 1446.48,1301.26 1604.31,1319.55 1781.87,1333.76 1981.62,1343.49 2206.34,1350.32 2459.16,1354.37 2743.57,1356.86 3063.54,1358.08 3152.76,1358.27 "/>
<path clip-path="url(#clip120)" d="M309.873 247.738 L660.816 247.738 L660.816 92.2178 L309.873 92.2178  Z" fill="#ffffff" fill-rule="evenodd" fill-opacity="1"/>
<polyline clip-path="url(#clip120)" style="stroke:#000000; stroke-linecap:round; stroke-linejoin:round; stroke-width:4; stroke-opacity:1; fill:none" points="309.873,247.738 660.816,247.738 660.816,92.2178 309.873,92.2178 309.873,247.738 "/>
<polyline clip-path="url(#clip120)" style="stroke:#009af9; stroke-linecap:round; stroke-linejoin:round; stroke-width:8; stroke-opacity:1; fill:none" points="342.55,144.058 538.611,144.058 "/>
<path clip-path="url(#clip120)" d="M572.861 126.778 L577.885 126.778 L586.472 139.625 L595.107 126.778 L600.13 126.778 L589.019 143.375 L600.87 161.338 L595.847 161.338 L586.125 146.639 L576.334 161.338 L571.287 161.338 L583.625 142.889 L572.861 126.778 Z" fill="#000000" fill-rule="nonzero" fill-opacity="1" /><path clip-path="url(#clip120)" d="M608.232 157.403 L615.87 157.403 L615.87 131.037 L607.56 132.704 L607.56 128.444 L615.824 126.778 L620.5 126.778 L620.5 157.403 L628.139 157.403 L628.139 161.338 L608.232 161.338 L608.232 157.403 Z" fill="#000000" fill-rule="nonzero" fill-opacity="1" /><polyline clip-path="url(#clip120)" style="stroke:#e26f46; stroke-linecap:round; stroke-linejoin:round; stroke-width:8; stroke-opacity:1; fill:none" points="342.55,195.898 538.611,195.898 "/>
<path clip-path="url(#clip120)" d="M572.861 178.618 L577.885 178.618 L586.472 191.465 L595.107 178.618 L600.13 178.618 L589.019 195.215 L600.87 213.178 L595.847 213.178 L586.125 198.479 L576.334 213.178 L571.287 213.178 L583.625 194.729 L572.861 178.618 Z" fill="#000000" fill-rule="nonzero" fill-opacity="1" /><path clip-path="url(#clip120)" d="M611.449 209.243 L627.769 209.243 L627.769 213.178 L605.824 213.178 L605.824 209.243 Q608.486 206.488 613.07 201.858 Q617.676 197.206 618.857 195.863 Q621.102 193.34 621.981 191.604 Q622.884 189.845 622.884 188.155 Q622.884 185.4 620.94 183.664 Q619.019 181.928 615.917 181.928 Q613.718 181.928 611.264 182.692 Q608.833 183.456 606.056 185.007 L606.056 180.284 Q608.88 179.15 611.333 178.572 Q613.787 177.993 615.824 177.993 Q621.194 177.993 624.389 180.678 Q627.583 183.363 627.583 187.854 Q627.583 189.983 626.773 191.905 Q625.986 193.803 623.88 196.395 Q623.301 197.067 620.199 200.284 Q617.097 203.479 611.449 209.243 Z" fill="#000000" fill-rule="nonzero" fill-opacity="1" /></svg>
