<?xml version="1.0" encoding="utf-8"?>
<svg xmlns="http://www.w3.org/2000/svg" xmlns:xlink="http://www.w3.org/1999/xlink" width="800" height="400" viewBox="0 0 3200 1600">
<defs>
  <clipPath id="clip940">
    <rect x="0" y="0" width="3200" height="1600"/>
  </clipPath>
</defs>
<path clip-path="url(#clip940)" d="M0 1600 L3200 1600 L3200 0 L0 0  Z" fill="#ffffff" fill-rule="evenodd" fill-opacity="1"/>
<defs>
  <clipPath id="clip941">
    <rect x="226" y="47" width="2928" height="1350"/>
  </clipPath>
</defs>
<path clip-path="url(#clip940)" d="M226.102 1396.46 L3152.76 1396.46 L3152.76 47.2441 L226.102 47.2441  Z" fill="#ffffff" fill-rule="evenodd" fill-opacity="1"/>
<polyline clip-path="url(#clip941)" style="stroke:#000000; stroke-linecap:round; stroke-linejoin:round; stroke-width:2; stroke-opacity:0.1; fill:none" points="226.102,1396.46 226.102,47.2441 "/>
<polyline clip-path="url(#clip941)" style="stroke:#000000; stroke-linecap:round; stroke-linejoin:round; stroke-width:2; stroke-opacity:0.1; fill:none" points="811.432,1396.46 811.432,47.2441 "/>
<polyline clip-path="url(#clip941)" style="stroke:#000000; stroke-linecap:round; stroke-linejoin:round; stroke-width:2; stroke-opacity:0.1; fill:none" points="1396.76,1396.46 1396.76,47.2441 "/>
<polyline clip-path="url(#clip941)" style="stroke:#000000; stroke-linecap:round; stroke-linejoin:round; stroke-width:2; stroke-opacity:0.1; fill:none" points="1982.09,1396.46 1982.09,47.2441 "/>
<polyline clip-path="url(#clip941)" style="stroke:#000000; stroke-linecap:round; stroke-linejoin:round; stroke-width:2; stroke-opacity:0.1; fill:none" points="2567.43,1396.46 2567.43,47.2441 "/>
<polyline clip-path="url(#clip941)" style="stroke:#000000; stroke-linecap:round; stroke-linejoin:round; stroke-width:2; stroke-opacity:0.1; fill:none" points="3152.76,1396.46 3152.76,47.2441 "/>
<polyline clip-path="url(#clip941)" style="stroke:#000000; stroke-linecap:round; stroke-linejoin:round; stroke-width:2; stroke-opacity:0.1; fill:none" points="226.102,1396.46 226.102,47.2441 "/>
<polyline clip-path="url(#clip941)" style="stroke:#000000; stroke-linecap:round; stroke-linejoin:round; stroke-width:2; stroke-opacity:0.1; fill:none" points="811.432,1396.46 811.432,47.2441 "/>
<polyline clip-path="url(#clip941)" style="stroke:#000000; stroke-linecap:round; stroke-linejoin:round; stroke-width:2; stroke-opacity:0.1; fill:none" points="1396.76,1396.46 1396.76,47.2441 "/>
<polyline clip-path="url(#clip941)" style="stroke:#000000; stroke-linecap:round; stroke-linejoin:round; stroke-width:2; stroke-opacity:0.1; fill:none" points="1982.09,1396.46 1982.09,47.2441 "/>
<polyline clip-path="url(#clip941)" style="stroke:#000000; stroke-linecap:round; stroke-linejoin:round; stroke-width:2; stroke-opacity:0.1; fill:none" points="2567.43,1396.46 2567.43,47.2441 "/>
<polyline clip-path="url(#clip941)" style="stroke:#000000; stroke-linecap:round; stroke-linejoin:round; stroke-width:2; stroke-opacity:0.1; fill:none" points="3152.76,1396.46 3152.76,47.2441 "/>
<polyline clip-path="url(#clip941)" style="stroke:#000000; stroke-linecap:round; stroke-linejoin:round; stroke-width:2; stroke-opacity:0.1; fill:none" points="226.102,1260.55 3152.76,1260.55 "/>
<polyline clip-path="url(#clip941)" style="stroke:#000000; stroke-linecap:round; stroke-linejoin:round; stroke-width:2; stroke-opacity:0.1; fill:none" points="226.102,991.198 3152.76,991.198 "/>
<polyline clip-path="url(#clip941)" style="stroke:#000000; stroke-linecap:round; stroke-linejoin:round; stroke-width:2; stroke-opacity:0.1; fill:none" points="226.102,721.85 3152.76,721.85 "/>
<polyline clip-path="url(#clip941)" style="stroke:#000000; stroke-linecap:round; stroke-linejoin:round; stroke-width:2; stroke-opacity:0.1; fill:none" points="226.102,452.501 3152.76,452.501 "/>
<polyline clip-path="url(#clip941)" style="stroke:#000000; stroke-linecap:round; stroke-linejoin:round; stroke-width:2; stroke-opacity:0.1; fill:none" points="226.102,183.153 3152.76,183.153 "/>
<polyline clip-path="url(#clip941)" style="stroke:#000000; stroke-linecap:round; stroke-linejoin:round; stroke-width:2; stroke-opacity:0.1; fill:none" points="226.102,1260.55 3152.76,1260.55 "/>
<polyline clip-path="url(#clip941)" style="stroke:#000000; stroke-linecap:round; stroke-linejoin:round; stroke-width:2; stroke-opacity:0.1; fill:none" points="226.102,991.198 3152.76,991.198 "/>
<polyline clip-path="url(#clip941)" style="stroke:#000000; stroke-linecap:round; stroke-linejoin:round; stroke-width:2; stroke-opacity:0.1; fill:none" points="226.102,721.85 3152.76,721.85 "/>
<polyline clip-path="url(#clip941)" style="stroke:#000000; stroke-linecap:round; stroke-linejoin:round; stroke-width:2; stroke-opacity:0.1; fill:none" points="226.102,452.501 3152.76,452.501 "/>
<polyline clip-path="url(#clip941)" style="stroke:#000000; stroke-linecap:round; stroke-linejoin:round; stroke-width:2; stroke-opacity:0.1; fill:none" points="226.102,183.153 3152.76,183.153 "/>
<polyline clip-path="url(#clip940)" style="stroke:#000000; stroke-linecap:round; stroke-linejoin:round; stroke-width:4; stroke-opacity:1; fill:none" points="226.102,1396.46 3152.76,1396.46 "/>
<polyline clip-path="url(#clip940)" style="stroke:#000000; stroke-linecap:round; stroke-linejoin:round; stroke-width:4; stroke-opacity:1; fill:none" points="226.102,47.2441 3152.76,47.2441 "/>
<polyline clip-path="url(#clip940)" style="stroke:#000000; stroke-linecap:round; stroke-linejoin:round; stroke-width:4; stroke-opacity:1; fill:none" points="226.102,1396.46 226.102,1377.56 "/>
<polyline clip-path="url(#clip940)" style="stroke:#000000; stroke-linecap:round; stroke-linejoin:round; stroke-width:4; stroke-opacity:1; fill:none" points="811.432,1396.46 811.432,1377.56 "/>
<polyline clip-path="url(#clip940)" style="stroke:#000000; stroke-linecap:round; stroke-linejoin:round; stroke-width:4; stroke-opacity:1; fill:none" points="1396.76,1396.46 1396.76,1377.56 "/>
<polyline clip-path="url(#clip940)" style="stroke:#000000; stroke-linecap:round; stroke-linejoin:round; stroke-width:4; stroke-opacity:1; fill:none" points="1982.09,1396.46 1982.09,1377.56 "/>
<polyline clip-path="url(#clip940)" style="stroke:#000000; stroke-linecap:round; stroke-linejoin:round; stroke-width:4; stroke-opacity:1; fill:none" points="2567.43,1396.46 2567.43,1377.56 "/>
<polyline clip-path="url(#clip940)" style="stroke:#000000; stroke-linecap:round; stroke-linejoin:round; stroke-width:4; stroke-opacity:1; fill:none" points="3152.76,1396.46 3152.76,1377.56 "/>
<polyline clip-path="url(#clip940)" style="stroke:#000000; stroke-linecap:round; stroke-linejoin:round; stroke-width:4; stroke-opacity:1; fill:none" points="226.102,47.2441 226.102,66.1417 "/>
<polyline clip-path="url(#clip940)" style="stroke:#000000; stroke-linecap:round; stroke-linejoin:round; stroke-width:4; stroke-opacity:1; fill:none" points="811.432,47.2441 811.432,66.1417 "/>
<polyline clip-path="url(#clip940)" style="stroke:#000000; stroke-linecap:round; stroke-linejoin:round; stroke-width:4; stroke-opacity:1; fill:none" points="1396.76,47.2441 1396.76,66.1417 "/>
<polyline clip-path="url(#clip940)" style="stroke:#000000; stroke-linecap:round; stroke-linejoin:round; stroke-width:4; stroke-opacity:1; fill:none" points="1982.09,47.2441 1982.09,66.1417 "/>
<polyline clip-path="url(#clip940)" style="stroke:#000000; stroke-linecap:round; stroke-linejoin:round; stroke-width:4; stroke-opacity:1; fill:none" points="2567.43,47.2441 2567.43,66.1417 "/>
<polyline clip-path="url(#clip940)" style="stroke:#000000; stroke-linecap:round; stroke-linejoin:round; stroke-width:4; stroke-opacity:1; fill:none" points="3152.76,47.2441 3152.76,66.1417 "/>
<path clip-path="url(#clip940)" d="M203.486 1433.77 Q199.875 1433.77 198.046 1437.34 Q196.241 1440.88 196.241 1448.01 Q196.241 1455.12 198.046 1458.68 Q199.875 1462.22 203.486 1462.22 Q207.12 1462.22 208.926 1458.68 Q210.754 1455.12 210.754 1448.01 Q210.754 1440.88 208.926 1437.34 Q207.12 1433.77 203.486 1433.77 M203.486 1430.07 Q209.296 1430.07 212.352 1434.68 Q215.43 1439.26 215.43 1448.01 Q215.43 1456.74 212.352 1461.34 Q209.296 1465.93 203.486 1465.93 Q197.676 1465.93 194.597 1461.34 Q191.542 1456.74 191.542 1448.01 Q191.542 1439.26 194.597 1434.68 Q197.676 1430.07 203.486 1430.07 Z" fill="#000000" fill-rule="nonzero" fill-opacity="1" /><path clip-path="url(#clip940)" d="M223.648 1459.38 L228.532 1459.38 L228.532 1465.26 L223.648 1465.26 L223.648 1459.38 Z" fill="#000000" fill-rule="nonzero" fill-opacity="1" /><path clip-path="url(#clip940)" d="M248.717 1433.77 Q245.106 1433.77 243.277 1437.34 Q241.472 1440.88 241.472 1448.01 Q241.472 1455.12 243.277 1458.68 Q245.106 1462.22 248.717 1462.22 Q252.351 1462.22 254.157 1458.68 Q255.986 1455.12 255.986 1448.01 Q255.986 1440.88 254.157 1437.34 Q252.351 1433.77 248.717 1433.77 M248.717 1430.07 Q254.527 1430.07 257.583 1434.68 Q260.662 1439.26 260.662 1448.01 Q260.662 1456.74 257.583 1461.34 Q254.527 1465.93 248.717 1465.93 Q242.907 1465.93 239.828 1461.34 Q236.773 1456.74 236.773 1448.01 Q236.773 1439.26 239.828 1434.68 Q242.907 1430.07 248.717 1430.07 Z" fill="#000000" fill-rule="nonzero" fill-opacity="1" /><path clip-path="url(#clip940)" d="M789.615 1433.77 Q786.004 1433.77 784.176 1437.34 Q782.37 1440.88 782.37 1448.01 Q782.37 1455.12 784.176 1458.68 Q786.004 1462.22 789.615 1462.22 Q793.25 1462.22 795.055 1458.68 Q796.884 1455.12 796.884 1448.01 Q796.884 1440.88 795.055 1437.34 Q793.25 1433.77 789.615 1433.77 M789.615 1430.07 Q795.426 1430.07 798.481 1434.68 Q801.56 1439.26 801.56 1448.01 Q801.56 1456.74 798.481 1461.34 Q795.426 1465.93 789.615 1465.93 Q783.805 1465.93 780.727 1461.34 Q777.671 1456.74 777.671 1448.01 Q777.671 1439.26 780.727 1434.68 Q783.805 1430.07 789.615 1430.07 Z" fill="#000000" fill-rule="nonzero" fill-opacity="1" /><path clip-path="url(#clip940)" d="M809.777 1459.38 L814.662 1459.38 L814.662 1465.26 L809.777 1465.26 L809.777 1459.38 Z" fill="#000000" fill-rule="nonzero" fill-opacity="1" /><path clip-path="url(#clip940)" d="M828.874 1461.32 L845.194 1461.32 L845.194 1465.26 L823.249 1465.26 L823.249 1461.32 Q825.911 1458.57 830.495 1453.94 Q835.101 1449.28 836.282 1447.94 Q838.527 1445.42 839.407 1443.68 Q840.31 1441.92 840.31 1440.23 Q840.31 1437.48 838.365 1435.74 Q836.444 1434.01 833.342 1434.01 Q831.143 1434.01 828.689 1434.77 Q826.259 1435.53 823.481 1437.08 L823.481 1432.36 Q826.305 1431.23 828.759 1430.65 Q831.212 1430.07 833.249 1430.07 Q838.62 1430.07 841.814 1432.76 Q845.009 1435.44 845.009 1439.93 Q845.009 1442.06 844.198 1443.98 Q843.411 1445.88 841.305 1448.47 Q840.726 1449.14 837.624 1452.36 Q834.523 1455.56 828.874 1461.32 Z" fill="#000000" fill-rule="nonzero" fill-opacity="1" /><path clip-path="url(#clip940)" d="M1373.9 1433.77 Q1370.29 1433.77 1368.46 1437.34 Q1366.66 1440.88 1366.66 1448.01 Q1366.66 1455.12 1368.46 1458.68 Q1370.29 1462.22 1373.9 1462.22 Q1377.54 1462.22 1379.34 1458.68 Q1381.17 1455.12 1381.17 1448.01 Q1381.17 1440.88 1379.34 1437.34 Q1377.54 1433.77 1373.9 1433.77 M1373.9 1430.07 Q1379.71 1430.07 1382.77 1434.68 Q1385.85 1439.26 1385.85 1448.01 Q1385.85 1456.74 1382.77 1461.34 Q1379.71 1465.93 1373.9 1465.93 Q1368.09 1465.93 1365.02 1461.34 Q1361.96 1456.74 1361.96 1448.01 Q1361.96 1439.26 1365.02 1434.68 Q1368.09 1430.07 1373.9 1430.07 Z" fill="#000000" fill-rule="nonzero" fill-opacity="1" /><path clip-path="url(#clip940)" d="M1394.07 1459.38 L1398.95 1459.38 L1398.95 1465.26 L1394.07 1465.26 L1394.07 1459.38 Z" fill="#000000" fill-rule="nonzero" fill-opacity="1" /><path clip-path="url(#clip940)" d="M1421.98 1434.77 L1410.18 1453.22 L1421.98 1453.22 L1421.98 1434.77 M1420.76 1430.7 L1426.64 1430.7 L1426.64 1453.22 L1431.57 1453.22 L1431.57 1457.11 L1426.64 1457.11 L1426.64 1465.26 L1421.98 1465.26 L1421.98 1457.11 L1406.38 1457.11 L1406.38 1452.59 L1420.76 1430.7 Z" fill="#000000" fill-rule="nonzero" fill-opacity="1" /><path clip-path="url(#clip940)" d="M1959.4 1433.77 Q1955.79 1433.77 1953.96 1437.34 Q1952.15 1440.88 1952.15 1448.01 Q1952.15 1455.12 1953.96 1458.68 Q1955.79 1462.22 1959.4 1462.22 Q1963.03 1462.22 1964.84 1458.68 Q1966.67 1455.12 1966.67 1448.01 Q1966.67 1440.88 1964.84 1437.34 Q1963.03 1433.77 1959.4 1433.77 M1959.4 1430.07 Q1965.21 1430.07 1968.26 1434.68 Q1971.34 1439.26 1971.34 1448.01 Q1971.34 1456.74 1968.26 1461.34 Q1965.21 1465.93 1959.4 1465.93 Q1953.59 1465.93 1950.51 1461.34 Q1947.45 1456.74 1947.45 1448.01 Q1947.45 1439.26 1950.51 1434.68 Q1953.59 1430.07 1959.4 1430.07 Z" fill="#000000" fill-rule="nonzero" fill-opacity="1" /><path clip-path="url(#clip940)" d="M1979.56 1459.38 L1984.44 1459.38 L1984.44 1465.26 L1979.56 1465.26 L1979.56 1459.38 Z" fill="#000000" fill-rule="nonzero" fill-opacity="1" /><path clip-path="url(#clip940)" d="M2005.21 1446.11 Q2002.06 1446.11 2000.21 1448.27 Q1998.38 1450.42 1998.38 1454.17 Q1998.38 1457.89 2000.21 1460.07 Q2002.06 1462.22 2005.21 1462.22 Q2008.36 1462.22 2010.18 1460.07 Q2012.04 1457.89 2012.04 1454.17 Q2012.04 1450.42 2010.18 1448.27 Q2008.36 1446.11 2005.21 1446.11 M2014.49 1431.46 L2014.49 1435.72 Q2012.73 1434.89 2010.93 1434.45 Q2009.14 1434.01 2007.38 1434.01 Q2002.75 1434.01 2000.3 1437.13 Q1997.87 1440.26 1997.52 1446.58 Q1998.89 1444.56 2000.95 1443.5 Q2003.01 1442.41 2005.49 1442.41 Q2010.69 1442.41 2013.7 1445.58 Q2016.74 1448.73 2016.74 1454.17 Q2016.74 1459.49 2013.59 1462.71 Q2010.44 1465.93 2005.21 1465.93 Q1999.21 1465.93 1996.04 1461.34 Q1992.87 1456.74 1992.87 1448.01 Q1992.87 1439.82 1996.76 1434.95 Q2000.65 1430.07 2007.2 1430.07 Q2008.96 1430.07 2010.74 1430.42 Q2012.55 1430.77 2014.49 1431.46 Z" fill="#000000" fill-rule="nonzero" fill-opacity="1" /><path clip-path="url(#clip940)" d="M2544.86 1433.77 Q2541.24 1433.77 2539.42 1437.34 Q2537.61 1440.88 2537.61 1448.01 Q2537.61 1455.12 2539.42 1458.68 Q2541.24 1462.22 2544.86 1462.22 Q2548.49 1462.22 2550.3 1458.68 Q2552.12 1455.12 2552.12 1448.01 Q2552.12 1440.88 2550.3 1437.34 Q2548.49 1433.77 2544.86 1433.77 M2544.86 1430.07 Q2550.67 1430.07 2553.72 1434.68 Q2556.8 1439.26 2556.8 1448.01 Q2556.8 1456.74 2553.72 1461.34 Q2550.67 1465.93 2544.86 1465.93 Q2539.05 1465.93 2535.97 1461.34 Q2532.91 1456.74 2532.91 1448.01 Q2532.91 1439.26 2535.97 1434.68 Q2539.05 1430.07 2544.86 1430.07 Z" fill="#000000" fill-rule="nonzero" fill-opacity="1" /><path clip-path="url(#clip940)" d="M2565.02 1459.38 L2569.9 1459.38 L2569.9 1465.26 L2565.02 1465.26 L2565.02 1459.38 Z" fill="#000000" fill-rule="nonzero" fill-opacity="1" /><path clip-path="url(#clip940)" d="M2590.09 1448.84 Q2586.75 1448.84 2584.83 1450.63 Q2582.93 1452.41 2582.93 1455.53 Q2582.93 1458.66 2584.83 1460.44 Q2586.75 1462.22 2590.09 1462.22 Q2593.42 1462.22 2595.34 1460.44 Q2597.26 1458.64 2597.26 1455.53 Q2597.26 1452.41 2595.34 1450.63 Q2593.44 1448.84 2590.09 1448.84 M2585.41 1446.85 Q2582.4 1446.11 2580.71 1444.05 Q2579.05 1441.99 2579.05 1439.03 Q2579.05 1434.89 2581.99 1432.48 Q2584.95 1430.07 2590.09 1430.07 Q2595.25 1430.07 2598.19 1432.48 Q2601.13 1434.89 2601.13 1439.03 Q2601.13 1441.99 2599.44 1444.05 Q2597.77 1446.11 2594.79 1446.85 Q2598.17 1447.64 2600.04 1449.93 Q2601.94 1452.22 2601.94 1455.53 Q2601.94 1460.56 2598.86 1463.24 Q2595.8 1465.93 2590.09 1465.93 Q2584.37 1465.93 2581.29 1463.24 Q2578.24 1460.56 2578.24 1455.53 Q2578.24 1452.22 2580.13 1449.93 Q2582.03 1447.64 2585.41 1446.85 M2583.7 1439.47 Q2583.7 1442.15 2585.36 1443.66 Q2587.05 1445.16 2590.09 1445.16 Q2593.1 1445.16 2594.79 1443.66 Q2596.5 1442.15 2596.5 1439.47 Q2596.5 1436.78 2594.79 1435.28 Q2593.1 1433.77 2590.09 1433.77 Q2587.05 1433.77 2585.36 1435.28 Q2583.7 1436.78 2583.7 1439.47 Z" fill="#000000" fill-rule="nonzero" fill-opacity="1" /><path clip-path="url(#clip940)" d="M3119.91 1461.32 L3127.55 1461.32 L3127.55 1434.95 L3119.24 1436.62 L3119.24 1432.36 L3127.5 1430.7 L3132.18 1430.7 L3132.18 1461.32 L3139.82 1461.32 L3139.82 1465.26 L3119.91 1465.26 L3119.91 1461.32 Z" fill="#000000" fill-rule="nonzero" fill-opacity="1" /><path clip-path="url(#clip940)" d="M3149.26 1459.38 L3154.14 1459.38 L3154.14 1465.26 L3149.26 1465.26 L3149.26 1459.38 Z" fill="#000000" fill-rule="nonzero" fill-opacity="1" /><path clip-path="url(#clip940)" d="M3174.33 1433.77 Q3170.72 1433.77 3168.89 1437.34 Q3167.08 1440.88 3167.08 1448.01 Q3167.08 1455.12 3168.89 1458.68 Q3170.72 1462.22 3174.33 1462.22 Q3177.96 1462.22 3179.77 1458.68 Q3181.6 1455.12 3181.6 1448.01 Q3181.6 1440.88 3179.77 1437.34 Q3177.96 1433.77 3174.33 1433.77 M3174.33 1430.07 Q3180.14 1430.07 3183.2 1434.68 Q3186.27 1439.26 3186.27 1448.01 Q3186.27 1456.74 3183.2 1461.34 Q3180.14 1465.93 3174.33 1465.93 Q3168.52 1465.93 3165.44 1461.34 Q3162.39 1456.74 3162.39 1448.01 Q3162.39 1439.26 3165.44 1434.68 Q3168.52 1430.07 3174.33 1430.07 Z" fill="#000000" fill-rule="nonzero" fill-opacity="1" /><path clip-path="url(#clip940)" d="M1688.49 1507.55 L1688.49 1517.67 L1700.55 1517.67 L1700.55 1522.22 L1688.49 1522.22 L1688.49 1541.58 Q1688.49 1545.94 1689.67 1547.18 Q1690.88 1548.42 1694.54 1548.42 L1700.55 1548.42 L1700.55 1553.32 L1694.54 1553.32 Q1687.76 1553.32 1685.18 1550.81 Q1682.6 1548.26 1682.6 1541.58 L1682.6 1522.22 L1678.3 1522.22 L1678.3 1517.67 L1682.6 1517.67 L1682.6 1507.55 L1688.49 1507.55 Z" fill="#000000" fill-rule="nonzero" fill-opacity="1" /><polyline clip-path="url(#clip940)" style="stroke:#000000; stroke-linecap:round; stroke-linejoin:round; stroke-width:4; stroke-opacity:1; fill:none" points="226.102,1396.46 226.102,47.2441 "/>
<polyline clip-path="url(#clip940)" style="stroke:#000000; stroke-linecap:round; stroke-linejoin:round; stroke-width:4; stroke-opacity:1; fill:none" points="3152.76,1396.46 3152.76,47.2441 "/>
<polyline clip-path="url(#clip940)" style="stroke:#000000; stroke-linecap:round; stroke-linejoin:round; stroke-width:4; stroke-opacity:1; fill:none" points="226.102,1260.55 244.999,1260.55 "/>
<polyline clip-path="url(#clip940)" style="stroke:#000000; stroke-linecap:round; stroke-linejoin:round; stroke-width:4; stroke-opacity:1; fill:none" points="226.102,991.198 244.999,991.198 "/>
<polyline clip-path="url(#clip940)" style="stroke:#000000; stroke-linecap:round; stroke-linejoin:round; stroke-width:4; stroke-opacity:1; fill:none" points="226.102,721.85 244.999,721.85 "/>
<polyline clip-path="url(#clip940)" style="stroke:#000000; stroke-linecap:round; stroke-linejoin:round; stroke-width:4; stroke-opacity:1; fill:none" points="226.102,452.501 244.999,452.501 "/>
<polyline clip-path="url(#clip940)" style="stroke:#000000; stroke-linecap:round; stroke-linejoin:round; stroke-width:4; stroke-opacity:1; fill:none" points="226.102,183.153 244.999,183.153 "/>
<polyline clip-path="url(#clip940)" style="stroke:#000000; stroke-linecap:round; stroke-linejoin:round; stroke-width:4; stroke-opacity:1; fill:none" points="3152.76,1260.55 3133.86,1260.55 "/>
<polyline clip-path="url(#clip940)" style="stroke:#000000; stroke-linecap:round; stroke-linejoin:round; stroke-width:4; stroke-opacity:1; fill:none" points="3152.76,991.198 3133.86,991.198 "/>
<polyline clip-path="url(#clip940)" style="stroke:#000000; stroke-linecap:round; stroke-linejoin:round; stroke-width:4; stroke-opacity:1; fill:none" points="3152.76,721.85 3133.86,721.85 "/>
<polyline clip-path="url(#clip940)" style="stroke:#000000; stroke-linecap:round; stroke-linejoin:round; stroke-width:4; stroke-opacity:1; fill:none" points="3152.76,452.501 3133.86,452.501 "/>
<polyline clip-path="url(#clip940)" style="stroke:#000000; stroke-linecap:round; stroke-linejoin:round; stroke-width:4; stroke-opacity:1; fill:none" points="3152.76,183.153 3133.86,183.153 "/>
<path clip-path="url(#clip940)" d="M126.134 1277.11 L126.134 1272.85 Q127.893 1273.68 129.699 1274.12 Q131.505 1274.56 133.241 1274.56 Q137.87 1274.56 140.301 1271.46 Q142.754 1268.34 143.102 1261.99 Q141.759 1263.98 139.699 1265.05 Q137.639 1266.11 135.139 1266.11 Q129.954 1266.11 126.921 1262.99 Q123.912 1259.84 123.912 1254.4 Q123.912 1249.08 127.06 1245.86 Q130.208 1242.64 135.44 1242.64 Q141.435 1242.64 144.583 1247.25 Q147.754 1251.83 147.754 1260.58 Q147.754 1268.75 143.866 1273.64 Q140 1278.5 133.449 1278.5 Q131.69 1278.5 129.884 1278.15 Q128.079 1277.8 126.134 1277.11 M135.44 1262.46 Q138.588 1262.46 140.417 1260.3 Q142.268 1258.15 142.268 1254.4 Q142.268 1250.67 140.417 1248.52 Q138.588 1246.35 135.44 1246.35 Q132.292 1246.35 130.44 1248.52 Q128.611 1250.67 128.611 1254.4 Q128.611 1258.15 130.44 1260.3 Q132.292 1262.46 135.44 1262.46 Z" fill="#000000" fill-rule="nonzero" fill-opacity="1" /><path clip-path="url(#clip940)" d="M166.157 1246.35 Q162.546 1246.35 160.717 1249.91 Q158.912 1253.45 158.912 1260.58 Q158.912 1267.69 160.717 1271.25 Q162.546 1274.79 166.157 1274.79 Q169.791 1274.79 171.597 1271.25 Q173.426 1267.69 173.426 1260.58 Q173.426 1253.45 171.597 1249.91 Q169.791 1246.35 166.157 1246.35 M166.157 1242.64 Q171.967 1242.64 175.023 1247.25 Q178.102 1251.83 178.102 1260.58 Q178.102 1269.31 175.023 1273.91 Q171.967 1278.5 166.157 1278.5 Q160.347 1278.5 157.268 1273.91 Q154.213 1269.31 154.213 1260.58 Q154.213 1251.83 157.268 1247.25 Q160.347 1242.64 166.157 1242.64 Z" fill="#000000" fill-rule="nonzero" fill-opacity="1" /><path clip-path="url(#clip940)" d="M96.6436 1004.54 L104.282 1004.54 L104.282 978.178 L95.9723 979.844 L95.9723 975.585 L104.236 973.918 L108.912 973.918 L108.912 1004.54 L116.551 1004.54 L116.551 1008.48 L96.6436 1008.48 L96.6436 1004.54 Z" fill="#000000" fill-rule="nonzero" fill-opacity="1" /><path clip-path="url(#clip940)" d="M130.023 1004.54 L146.342 1004.54 L146.342 1008.48 L124.398 1008.48 L124.398 1004.54 Q127.06 1001.79 131.643 997.159 Q136.25 992.506 137.43 991.164 Q139.676 988.641 140.555 986.904 Q141.458 985.145 141.458 983.455 Q141.458 980.701 139.514 978.965 Q137.592 977.229 134.491 977.229 Q132.292 977.229 129.838 977.992 Q127.407 978.756 124.63 980.307 L124.63 975.585 Q127.454 974.451 129.907 973.872 Q132.361 973.293 134.398 973.293 Q139.768 973.293 142.963 975.979 Q146.157 978.664 146.157 983.154 Q146.157 985.284 145.347 987.205 Q144.56 989.104 142.454 991.696 Q141.875 992.367 138.773 995.585 Q135.671 998.779 130.023 1004.54 Z" fill="#000000" fill-rule="nonzero" fill-opacity="1" /><path clip-path="url(#clip940)" d="M166.157 976.997 Q162.546 976.997 160.717 980.562 Q158.912 984.104 158.912 991.233 Q158.912 998.34 160.717 1001.9 Q162.546 1005.45 166.157 1005.45 Q169.791 1005.45 171.597 1001.9 Q173.426 998.34 173.426 991.233 Q173.426 984.104 171.597 980.562 Q169.791 976.997 166.157 976.997 M166.157 973.293 Q171.967 973.293 175.023 977.9 Q178.102 982.483 178.102 991.233 Q178.102 999.96 175.023 1004.57 Q171.967 1009.15 166.157 1009.15 Q160.347 1009.15 157.268 1004.57 Q154.213 999.96 154.213 991.233 Q154.213 982.483 157.268 977.9 Q160.347 973.293 166.157 973.293 Z" fill="#000000" fill-rule="nonzero" fill-opacity="1" /><path clip-path="url(#clip940)" d="M96.6436 735.195 L104.282 735.195 L104.282 708.829 L95.9723 710.496 L95.9723 706.237 L104.236 704.57 L108.912 704.57 L108.912 735.195 L116.551 735.195 L116.551 739.13 L96.6436 739.13 L96.6436 735.195 Z" fill="#000000" fill-rule="nonzero" fill-opacity="1" /><path clip-path="url(#clip940)" d="M126.042 704.57 L144.398 704.57 L144.398 708.505 L130.324 708.505 L130.324 716.977 Q131.343 716.63 132.361 716.468 Q133.38 716.283 134.398 716.283 Q140.185 716.283 143.565 719.454 Q146.944 722.625 146.944 728.042 Q146.944 733.621 143.472 736.723 Q140 739.801 133.68 739.801 Q131.505 739.801 129.236 739.431 Q126.991 739.06 124.583 738.32 L124.583 733.621 Q126.667 734.755 128.889 735.31 Q131.111 735.866 133.588 735.866 Q137.592 735.866 139.93 733.76 Q142.268 731.653 142.268 728.042 Q142.268 724.431 139.93 722.324 Q137.592 720.218 133.588 720.218 Q131.713 720.218 129.838 720.635 Q127.986 721.051 126.042 721.931 L126.042 704.57 Z" fill="#000000" fill-rule="nonzero" fill-opacity="1" /><path clip-path="url(#clip940)" d="M166.157 707.649 Q162.546 707.649 160.717 711.213 Q158.912 714.755 158.912 721.885 Q158.912 728.991 160.717 732.556 Q162.546 736.098 166.157 736.098 Q169.791 736.098 171.597 732.556 Q173.426 728.991 173.426 721.885 Q173.426 714.755 171.597 711.213 Q169.791 707.649 166.157 707.649 M166.157 703.945 Q171.967 703.945 175.023 708.551 Q178.102 713.135 178.102 721.885 Q178.102 730.611 175.023 735.218 Q171.967 739.801 166.157 739.801 Q160.347 739.801 157.268 735.218 Q154.213 730.611 154.213 721.885 Q154.213 713.135 157.268 708.551 Q160.347 703.945 166.157 703.945 Z" fill="#000000" fill-rule="nonzero" fill-opacity="1" /><path clip-path="url(#clip940)" d="M96.6436 465.846 L104.282 465.846 L104.282 439.481 L95.9723 441.147 L95.9723 436.888 L104.236 435.221 L108.912 435.221 L108.912 465.846 L116.551 465.846 L116.551 469.781 L96.6436 469.781 L96.6436 465.846 Z" fill="#000000" fill-rule="nonzero" fill-opacity="1" /><path clip-path="url(#clip940)" d="M135.995 453.369 Q132.662 453.369 130.741 455.152 Q128.843 456.934 128.843 460.059 Q128.843 463.184 130.741 464.967 Q132.662 466.749 135.995 466.749 Q139.329 466.749 141.25 464.967 Q143.171 463.161 143.171 460.059 Q143.171 456.934 141.25 455.152 Q139.352 453.369 135.995 453.369 M131.319 451.379 Q128.31 450.638 126.62 448.578 Q124.954 446.518 124.954 443.555 Q124.954 439.411 127.893 437.004 Q130.856 434.596 135.995 434.596 Q141.157 434.596 144.097 437.004 Q147.037 439.411 147.037 443.555 Q147.037 446.518 145.347 448.578 Q143.68 450.638 140.694 451.379 Q144.074 452.166 145.949 454.457 Q147.847 456.749 147.847 460.059 Q147.847 465.082 144.768 467.768 Q141.713 470.453 135.995 470.453 Q130.278 470.453 127.199 467.768 Q124.143 465.082 124.143 460.059 Q124.143 456.749 126.042 454.457 Q127.94 452.166 131.319 451.379 M129.606 443.995 Q129.606 446.68 131.273 448.184 Q132.963 449.689 135.995 449.689 Q139.004 449.689 140.694 448.184 Q142.407 446.68 142.407 443.995 Q142.407 441.309 140.694 439.805 Q139.004 438.3 135.995 438.3 Q132.963 438.3 131.273 439.805 Q129.606 441.309 129.606 443.995 Z" fill="#000000" fill-rule="nonzero" fill-opacity="1" /><path clip-path="url(#clip940)" d="M166.157 438.3 Q162.546 438.3 160.717 441.865 Q158.912 445.407 158.912 452.536 Q158.912 459.643 160.717 463.207 Q162.546 466.749 166.157 466.749 Q169.791 466.749 171.597 463.207 Q173.426 459.643 173.426 452.536 Q173.426 445.407 171.597 441.865 Q169.791 438.3 166.157 438.3 M166.157 434.596 Q171.967 434.596 175.023 439.203 Q178.102 443.786 178.102 452.536 Q178.102 461.263 175.023 465.869 Q171.967 470.453 166.157 470.453 Q160.347 470.453 157.268 465.869 Q154.213 461.263 154.213 452.536 Q154.213 443.786 157.268 439.203 Q160.347 434.596 166.157 434.596 Z" fill="#000000" fill-rule="nonzero" fill-opacity="1" /><path clip-path="url(#clip940)" d="M99.8612 196.498 L116.181 196.498 L116.181 200.433 L94.2362 200.433 L94.2362 196.498 Q96.8982 193.743 101.482 189.114 Q106.088 184.461 107.269 183.118 Q109.514 180.595 110.394 178.859 Q111.296 177.1 111.296 175.41 Q111.296 172.655 109.352 170.919 Q107.431 169.183 104.329 169.183 Q102.13 169.183 99.676 169.947 Q97.2455 170.711 94.4677 172.262 L94.4677 167.54 Q97.2918 166.405 99.7455 165.827 Q102.199 165.248 104.236 165.248 Q109.607 165.248 112.801 167.933 Q115.995 170.618 115.995 175.109 Q115.995 177.239 115.185 179.16 Q114.398 181.058 112.292 183.651 Q111.713 184.322 108.611 187.539 Q105.509 190.734 99.8612 196.498 Z" fill="#000000" fill-rule="nonzero" fill-opacity="1" /><path clip-path="url(#clip940)" d="M126.805 196.498 L134.444 196.498 L134.444 170.132 L126.134 171.799 L126.134 167.54 L134.398 165.873 L139.074 165.873 L139.074 196.498 L146.713 196.498 L146.713 200.433 L126.805 200.433 L126.805 196.498 Z" fill="#000000" fill-rule="nonzero" fill-opacity="1" /><path clip-path="url(#clip940)" d="M166.157 168.952 Q162.546 168.952 160.717 172.516 Q158.912 176.058 158.912 183.188 Q158.912 190.294 160.717 193.859 Q162.546 197.401 166.157 197.401 Q169.791 197.401 171.597 193.859 Q173.426 190.294 173.426 183.188 Q173.426 176.058 171.597 172.516 Q169.791 168.952 166.157 168.952 M166.157 165.248 Q171.967 165.248 175.023 169.854 Q178.102 174.438 178.102 183.188 Q178.102 191.914 175.023 196.521 Q171.967 201.104 166.157 201.104 Q160.347 201.104 157.268 196.521 Q154.213 191.914 154.213 183.188 Q154.213 174.438 157.268 169.854 Q160.347 165.248 166.157 165.248 Z" fill="#000000" fill-rule="nonzero" fill-opacity="1" /><polyline clip-path="url(#clip941)" style="stroke:#009af9; stroke-linecap:round; stroke-linejoin:round; stroke-width:8; stroke-opacity:1; fill:none" points="226.102,1170.76 226.102,1170.88 229.626,1157.28 233.59,1139.85 238.05,1112.76 243.067,1089.22 248.711,1089.28 255.061,1082.97 262.205,1073.17 270.241,1071.52 279.282,1063.58 289.453,1064.58 300.896,1022.58 313.769,992.002 328.251,956.265 344.544,888.651 362.873,866.281 383.493,803.285 406.69,766.345 432.788,742.074 462.147,745.255 495.176,687.876 532.335,695.368 574.137,603.895 621.165,566.308 674.072,503.477 733.592,486.76 800.552,422.011 875.882,504.671 957.037,506.615 1048.34,529.324 1122.49,435.736 1205.91,312.699 1299.76,280.342 1405.34,300.099 1524.12,158.128 1622.79,114.697 1733.79,154.919 1858.67,227.506 1999.16,229.573 2044.4,204.807 2095.29,170.329 2152.55,159.438 2216.96,171.345 2289.42,176.512 2370.94,211.829 2462.66,186.959 2546.12,113.851 2640.02,115.359 2745.65,85.4293 2864.49,116.617 2998.18,149.181 3148.59,197.636 3152.76,200.887 "/>
<polyline clip-path="url(#clip941)" style="stroke:#e26f46; stroke-linecap:round; stroke-linejoin:round; stroke-width:8; stroke-opacity:1; fill:none" points="226.102,272.936 226.102,272.821 229.626,286.421 233.59,303.847 238.05,330.936 243.067,354.479 248.711,354.415 255.061,360.73 262.205,370.528 270.241,372.175 279.282,380.118 289.453,379.118 300.896,421.117 313.769,451.698 328.251,487.435 344.544,555.048 362.873,577.419 383.493,640.415 406.69,677.354 432.788,701.626 462.147,698.444 495.176,755.824 532.335,748.332 574.137,839.805 621.165,877.392 674.072,940.223 733.592,956.94 800.552,1021.69 875.882,939.029 957.037,937.084 1048.34,914.375 1122.49,1007.96 1205.91,1131 1299.76,1163.36 1405.34,1143.6 1524.12,1285.57 1622.79,1329 1733.79,1288.78 1858.67,1216.19 1999.16,1214.13 2044.4,1238.89 2095.29,1273.37 2152.55,1284.26 2216.96,1272.36 2289.42,1267.19 2370.94,1231.87 2462.66,1256.74 2546.12,1329.85 2640.02,1328.34 2745.65,1358.27 2864.49,1327.08 2998.18,1294.52 3148.59,1246.06 3152.76,1242.81 "/>
<path clip-path="url(#clip940)" d="M323.657 247.738 L673.174 247.738 L673.174 92.2178 L323.657 92.2178  Z" fill="#ffffff" fill-rule="evenodd" fill-opacity="1"/>
<polyline clip-path="url(#clip940)" style="stroke:#000000; stroke-linecap:round; stroke-linejoin:round; stroke-width:4; stroke-opacity:1; fill:none" points="323.657,247.738 673.174,247.738 673.174,92.2178 323.657,92.2178 323.657,247.738 "/>
<polyline clip-path="url(#clip940)" style="stroke:#009af9; stroke-linecap:round; stroke-linejoin:round; stroke-width:8; stroke-opacity:1; fill:none" points="356.175,144.058 551.285,144.058 "/>
<path clip-path="url(#clip940)" d="M585.378 126.778 L590.401 126.778 L598.989 139.625 L607.623 126.778 L612.646 126.778 L601.535 143.375 L613.387 161.338 L608.364 161.338 L598.642 146.639 L588.85 161.338 L583.804 161.338 L596.142 142.889 L585.378 126.778 Z" fill="#000000" fill-rule="nonzero" fill-opacity="1" /><path clip-path="url(#clip940)" d="M620.748 157.403 L628.387 157.403 L628.387 131.037 L620.077 132.704 L620.077 128.444 L628.341 126.778 L633.016 126.778 L633.016 157.403 L640.655 157.403 L640.655 161.338 L620.748 161.338 L620.748 157.403 Z" fill="#000000" fill-rule="nonzero" fill-opacity="1" /><polyline clip-path="url(#clip940)" style="stroke:#e26f46; stroke-linecap:round; stroke-linejoin:round; stroke-width:8; stroke-opacity:1; fill:none" points="356.175,195.898 551.285,195.898 "/>
<path clip-path="url(#clip940)" d="M585.378 178.618 L590.401 178.618 L598.989 191.465 L607.623 178.618 L612.646 178.618 L601.535 195.215 L613.387 213.178 L608.364 213.178 L598.642 198.479 L588.85 213.178 L583.804 213.178 L596.142 194.729 L585.378 178.618 Z" fill="#000000" fill-rule="nonzero" fill-opacity="1" /><path clip-path="url(#clip940)" d="M623.966 209.243 L640.285 209.243 L640.285 213.178 L618.341 213.178 L618.341 209.243 Q621.003 206.488 625.586 201.858 Q630.192 197.206 631.373 195.863 Q633.618 193.34 634.498 191.604 Q635.401 189.845 635.401 188.155 Q635.401 185.4 633.456 183.664 Q631.535 181.928 628.433 181.928 Q626.234 181.928 623.78 182.692 Q621.35 183.456 618.572 185.007 L618.572 180.284 Q621.396 179.15 623.85 178.572 Q626.303 177.993 628.341 177.993 Q633.711 177.993 636.905 180.678 Q640.1 183.363 640.1 187.854 Q640.1 189.983 639.29 191.905 Q638.502 193.803 636.396 196.395 Q635.817 197.067 632.715 200.284 Q629.614 203.479 623.966 209.243 Z" fill="#000000" fill-rule="nonzero" fill-opacity="1" /></svg>
