<?xml version="1.0" encoding="utf-8"?>
<svg xmlns="http://www.w3.org/2000/svg" xmlns:xlink="http://www.w3.org/1999/xlink" width="600" height="400" viewBox="0 0 2400 1600">
<defs>
  <clipPath id="clip590">
    <rect x="0" y="0" width="2400" height="1600"/>
  </clipPath>
</defs>
<path clip-path="url(#clip590)" d="M0 1600 L2400 1600 L2400 0 L0 0  Z" fill="#ffffff" fill-rule="evenodd" fill-opacity="1"/>
<defs>
  <clipPath id="clip591">
    <rect x="480" y="0" width="1681" height="1600"/>
  </clipPath>
</defs>
<path clip-path="url(#clip590)" d="M249.421 1375.94 L2352.76 1375.94 L2352.76 47.2441 L249.421 47.2441  Z" fill="#ffffff" fill-rule="evenodd" fill-opacity="1"/>
<defs>
  <clipPath id="clip592">
    <rect x="249" y="47" width="2104" height="1330"/>
  </clipPath>
</defs>
<polyline clip-path="url(#clip592)" style="stroke:#000000; stroke-linecap:round; stroke-linejoin:round; stroke-width:2; stroke-opacity:0.1; fill:none" points="249.421,1375.94 249.421,47.2441 "/>
<polyline clip-path="url(#clip592)" style="stroke:#000000; stroke-linecap:round; stroke-linejoin:round; stroke-width:2; stroke-opacity:0.1; fill:none" points="775.255,1375.94 775.255,47.2441 "/>
<polyline clip-path="url(#clip592)" style="stroke:#000000; stroke-linecap:round; stroke-linejoin:round; stroke-width:2; stroke-opacity:0.1; fill:none" points="1301.09,1375.94 1301.09,47.2441 "/>
<polyline clip-path="url(#clip592)" style="stroke:#000000; stroke-linecap:round; stroke-linejoin:round; stroke-width:2; stroke-opacity:0.1; fill:none" points="1826.92,1375.94 1826.92,47.2441 "/>
<polyline clip-path="url(#clip592)" style="stroke:#000000; stroke-linecap:round; stroke-linejoin:round; stroke-width:2; stroke-opacity:0.1; fill:none" points="2352.76,1375.94 2352.76,47.2441 "/>
<polyline clip-path="url(#clip592)" style="stroke:#000000; stroke-linecap:round; stroke-linejoin:round; stroke-width:2; stroke-opacity:0.1; fill:none" points="249.421,1338.33 2352.76,1338.33 "/>
<polyline clip-path="url(#clip592)" style="stroke:#000000; stroke-linecap:round; stroke-linejoin:round; stroke-width:2; stroke-opacity:0.1; fill:none" points="249.421,1088.8 2352.76,1088.8 "/>
<polyline clip-path="url(#clip592)" style="stroke:#000000; stroke-linecap:round; stroke-linejoin:round; stroke-width:2; stroke-opacity:0.1; fill:none" points="249.421,839.271 2352.76,839.271 "/>
<polyline clip-path="url(#clip592)" style="stroke:#000000; stroke-linecap:round; stroke-linejoin:round; stroke-width:2; stroke-opacity:0.1; fill:none" points="249.421,589.741 2352.76,589.741 "/>
<polyline clip-path="url(#clip592)" style="stroke:#000000; stroke-linecap:round; stroke-linejoin:round; stroke-width:2; stroke-opacity:0.1; fill:none" points="249.421,340.211 2352.76,340.211 "/>
<polyline clip-path="url(#clip592)" style="stroke:#000000; stroke-linecap:round; stroke-linejoin:round; stroke-width:2; stroke-opacity:0.1; fill:none" points="249.421,90.6806 2352.76,90.6806 "/>
<polyline clip-path="url(#clip590)" style="stroke:#000000; stroke-linecap:round; stroke-linejoin:round; stroke-width:4; stroke-opacity:1; fill:none" points="249.421,1375.94 2352.76,1375.94 "/>
<polyline clip-path="url(#clip590)" style="stroke:#000000; stroke-linecap:round; stroke-linejoin:round; stroke-width:4; stroke-opacity:1; fill:none" points="249.421,1375.94 249.421,1357.04 "/>
<polyline clip-path="url(#clip590)" style="stroke:#000000; stroke-linecap:round; stroke-linejoin:round; stroke-width:4; stroke-opacity:1; fill:none" points="775.255,1375.94 775.255,1357.04 "/>
<polyline clip-path="url(#clip590)" style="stroke:#000000; stroke-linecap:round; stroke-linejoin:round; stroke-width:4; stroke-opacity:1; fill:none" points="1301.09,1375.94 1301.09,1357.04 "/>
<polyline clip-path="url(#clip590)" style="stroke:#000000; stroke-linecap:round; stroke-linejoin:round; stroke-width:4; stroke-opacity:1; fill:none" points="1826.92,1375.94 1826.92,1357.04 "/>
<polyline clip-path="url(#clip590)" style="stroke:#000000; stroke-linecap:round; stroke-linejoin:round; stroke-width:4; stroke-opacity:1; fill:none" points="2352.76,1375.94 2352.76,1357.04 "/>
<path clip-path="url(#clip590)" d="M249.421 1406.85 Q245.81 1406.85 243.981 1410.42 Q242.175 1413.96 242.175 1421.09 Q242.175 1428.2 243.981 1431.76 Q245.81 1435.3 249.421 1435.3 Q253.055 1435.3 254.861 1431.76 Q256.689 1428.2 256.689 1421.09 Q256.689 1413.96 254.861 1410.42 Q253.055 1406.85 249.421 1406.85 M249.421 1403.15 Q255.231 1403.15 258.286 1407.76 Q261.365 1412.34 261.365 1421.09 Q261.365 1429.82 258.286 1434.42 Q255.231 1439.01 249.421 1439.01 Q243.611 1439.01 240.532 1434.42 Q237.476 1429.82 237.476 1421.09 Q237.476 1412.34 240.532 1407.76 Q243.611 1403.15 249.421 1403.15 Z" fill="#000000" fill-rule="nonzero" fill-opacity="1" /><path clip-path="url(#clip590)" d="M765.532 1403.78 L783.889 1403.78 L783.889 1407.71 L769.815 1407.71 L769.815 1416.18 Q770.833 1415.84 771.852 1415.67 Q772.87 1415.49 773.889 1415.49 Q779.676 1415.49 783.055 1418.66 Q786.435 1421.83 786.435 1427.25 Q786.435 1432.83 782.963 1435.93 Q779.491 1439.01 773.171 1439.01 Q770.995 1439.01 768.727 1438.64 Q766.481 1438.27 764.074 1437.53 L764.074 1432.83 Q766.157 1433.96 768.38 1434.52 Q770.602 1435.07 773.079 1435.07 Q777.083 1435.07 779.421 1432.97 Q781.759 1430.86 781.759 1427.25 Q781.759 1423.64 779.421 1421.53 Q777.083 1419.42 773.079 1419.42 Q771.204 1419.42 769.329 1419.84 Q767.477 1420.26 765.532 1421.14 L765.532 1403.78 Z" fill="#000000" fill-rule="nonzero" fill-opacity="1" /><path clip-path="url(#clip590)" d="M1275.78 1434.4 L1283.41 1434.4 L1283.41 1408.03 L1275.1 1409.7 L1275.1 1405.44 L1283.37 1403.78 L1288.04 1403.78 L1288.04 1434.4 L1295.68 1434.4 L1295.68 1438.34 L1275.78 1438.34 L1275.78 1434.4 Z" fill="#000000" fill-rule="nonzero" fill-opacity="1" /><path clip-path="url(#clip590)" d="M1315.13 1406.85 Q1311.52 1406.85 1309.69 1410.42 Q1307.88 1413.96 1307.88 1421.09 Q1307.88 1428.2 1309.69 1431.76 Q1311.52 1435.3 1315.13 1435.3 Q1318.76 1435.3 1320.57 1431.76 Q1322.4 1428.2 1322.4 1421.09 Q1322.4 1413.96 1320.57 1410.42 Q1318.76 1406.85 1315.13 1406.85 M1315.13 1403.15 Q1320.94 1403.15 1323.99 1407.76 Q1327.07 1412.34 1327.07 1421.09 Q1327.07 1429.82 1323.99 1434.42 Q1320.94 1439.01 1315.13 1439.01 Q1309.32 1439.01 1306.24 1434.42 Q1303.18 1429.82 1303.18 1421.09 Q1303.18 1412.34 1306.24 1407.76 Q1309.32 1403.15 1315.13 1403.15 Z" fill="#000000" fill-rule="nonzero" fill-opacity="1" /><path clip-path="url(#clip590)" d="M1802.11 1434.4 L1809.75 1434.4 L1809.75 1408.03 L1801.44 1409.7 L1801.44 1405.44 L1809.7 1403.78 L1814.38 1403.78 L1814.38 1434.4 L1822.01 1434.4 L1822.01 1438.34 L1802.11 1438.34 L1802.11 1434.4 Z" fill="#000000" fill-rule="nonzero" fill-opacity="1" /><path clip-path="url(#clip590)" d="M1831.51 1403.78 L1849.86 1403.78 L1849.86 1407.71 L1835.79 1407.71 L1835.79 1416.18 Q1836.81 1415.84 1837.82 1415.67 Q1838.84 1415.49 1839.86 1415.49 Q1845.65 1415.49 1849.03 1418.66 Q1852.41 1421.83 1852.41 1427.25 Q1852.41 1432.83 1848.94 1435.93 Q1845.46 1439.01 1839.14 1439.01 Q1836.97 1439.01 1834.7 1438.64 Q1832.45 1438.27 1830.05 1437.53 L1830.05 1432.83 Q1832.13 1433.96 1834.35 1434.52 Q1836.57 1435.07 1839.05 1435.07 Q1843.06 1435.07 1845.39 1432.97 Q1847.73 1430.86 1847.73 1427.25 Q1847.73 1423.64 1845.39 1421.53 Q1843.06 1419.42 1839.05 1419.42 Q1837.18 1419.42 1835.3 1419.84 Q1833.45 1420.26 1831.51 1421.14 L1831.51 1403.78 Z" fill="#000000" fill-rule="nonzero" fill-opacity="1" /><path clip-path="url(#clip590)" d="M2331.53 1434.4 L2347.85 1434.4 L2347.85 1438.34 L2325.9 1438.34 L2325.9 1434.4 Q2328.57 1431.65 2333.15 1427.02 Q2337.76 1422.36 2338.94 1421.02 Q2341.18 1418.5 2342.06 1416.76 Q2342.96 1415 2342.96 1413.31 Q2342.96 1410.56 2341.02 1408.82 Q2339.1 1407.09 2336 1407.09 Q2333.8 1407.09 2331.34 1407.85 Q2328.91 1408.61 2326.14 1410.16 L2326.14 1405.44 Q2328.96 1404.31 2331.41 1403.73 Q2333.87 1403.15 2335.9 1403.15 Q2341.27 1403.15 2344.47 1405.84 Q2347.66 1408.52 2347.66 1413.01 Q2347.66 1415.14 2346.85 1417.06 Q2346.07 1418.96 2343.96 1421.55 Q2343.38 1422.22 2340.28 1425.44 Q2337.18 1428.64 2331.53 1434.4 Z" fill="#000000" fill-rule="nonzero" fill-opacity="1" /><path clip-path="url(#clip590)" d="M2367.66 1406.85 Q2364.05 1406.85 2362.22 1410.42 Q2360.42 1413.96 2360.42 1421.09 Q2360.42 1428.2 2362.22 1431.76 Q2364.05 1435.3 2367.66 1435.3 Q2371.3 1435.3 2373.1 1431.76 Q2374.93 1428.2 2374.93 1421.09 Q2374.93 1413.96 2373.1 1410.42 Q2371.3 1406.85 2367.66 1406.85 M2367.66 1403.15 Q2373.47 1403.15 2376.53 1407.76 Q2379.61 1412.34 2379.61 1421.09 Q2379.61 1429.82 2376.53 1434.42 Q2373.47 1439.01 2367.66 1439.01 Q2361.85 1439.01 2358.77 1434.42 Q2355.72 1429.82 2355.72 1421.09 Q2355.72 1412.34 2358.77 1407.76 Q2361.85 1403.15 2367.66 1403.15 Z" fill="#000000" fill-rule="nonzero" fill-opacity="1" /><path clip-path="url(#clip590)" d="M1300.15 1475.03 L1300.15 1485.15 L1312.21 1485.15 L1312.21 1489.7 L1300.15 1489.7 L1300.15 1509.06 Q1300.15 1513.42 1301.33 1514.66 Q1302.54 1515.9 1306.2 1515.9 L1312.21 1515.9 L1312.21 1520.8 L1306.2 1520.8 Q1299.42 1520.8 1296.84 1518.29 Q1294.26 1515.74 1294.26 1509.06 L1294.26 1489.7 L1289.96 1489.7 L1289.96 1485.15 L1294.26 1485.15 L1294.26 1475.03 L1300.15 1475.03 Z" fill="#000000" fill-rule="nonzero" fill-opacity="1" /><polyline clip-path="url(#clip590)" style="stroke:#000000; stroke-linecap:round; stroke-linejoin:round; stroke-width:4; stroke-opacity:1; fill:none" points="249.421,1375.94 249.421,47.2441 "/>
<polyline clip-path="url(#clip590)" style="stroke:#000000; stroke-linecap:round; stroke-linejoin:round; stroke-width:4; stroke-opacity:1; fill:none" points="249.421,1338.33 268.318,1338.33 "/>
<polyline clip-path="url(#clip590)" style="stroke:#000000; stroke-linecap:round; stroke-linejoin:round; stroke-width:4; stroke-opacity:1; fill:none" points="249.421,1088.8 268.318,1088.8 "/>
<polyline clip-path="url(#clip590)" style="stroke:#000000; stroke-linecap:round; stroke-linejoin:round; stroke-width:4; stroke-opacity:1; fill:none" points="249.421,839.271 268.318,839.271 "/>
<polyline clip-path="url(#clip590)" style="stroke:#000000; stroke-linecap:round; stroke-linejoin:round; stroke-width:4; stroke-opacity:1; fill:none" points="249.421,589.741 268.318,589.741 "/>
<polyline clip-path="url(#clip590)" style="stroke:#000000; stroke-linecap:round; stroke-linejoin:round; stroke-width:4; stroke-opacity:1; fill:none" points="249.421,340.211 268.318,340.211 "/>
<polyline clip-path="url(#clip590)" style="stroke:#000000; stroke-linecap:round; stroke-linejoin:round; stroke-width:4; stroke-opacity:1; fill:none" points="249.421,90.6806 268.318,90.6806 "/>
<path clip-path="url(#clip590)" d="M201.476 1324.13 Q197.865 1324.13 196.037 1327.69 Q194.231 1331.24 194.231 1338.37 Q194.231 1345.47 196.037 1349.04 Q197.865 1352.58 201.476 1352.58 Q205.111 1352.58 206.916 1349.04 Q208.745 1345.47 208.745 1338.37 Q208.745 1331.24 206.916 1327.69 Q205.111 1324.13 201.476 1324.13 M201.476 1320.43 Q207.287 1320.43 210.342 1325.03 Q213.421 1329.62 213.421 1338.37 Q213.421 1347.09 210.342 1351.7 Q207.287 1356.28 201.476 1356.28 Q195.666 1356.28 192.588 1351.7 Q189.532 1347.09 189.532 1338.37 Q189.532 1329.62 192.588 1325.03 Q195.666 1320.43 201.476 1320.43 Z" fill="#000000" fill-rule="nonzero" fill-opacity="1" /><path clip-path="url(#clip590)" d="M101.801 1102.15 L109.44 1102.15 L109.44 1075.78 L101.13 1077.45 L101.13 1073.19 L109.394 1071.52 L114.069 1071.52 L114.069 1102.15 L121.708 1102.15 L121.708 1106.08 L101.801 1106.08 L101.801 1102.15 Z" fill="#000000" fill-rule="nonzero" fill-opacity="1" /><path clip-path="url(#clip590)" d="M141.153 1074.6 Q137.542 1074.6 135.713 1078.16 Q133.907 1081.71 133.907 1088.84 Q133.907 1095.94 135.713 1099.51 Q137.542 1103.05 141.153 1103.05 Q144.787 1103.05 146.592 1099.51 Q148.421 1095.94 148.421 1088.84 Q148.421 1081.71 146.592 1078.16 Q144.787 1074.6 141.153 1074.6 M141.153 1070.9 Q146.963 1070.9 150.018 1075.5 Q153.097 1080.09 153.097 1088.84 Q153.097 1097.56 150.018 1102.17 Q146.963 1106.75 141.153 1106.75 Q135.343 1106.75 132.264 1102.17 Q129.208 1097.56 129.208 1088.84 Q129.208 1080.09 132.264 1075.5 Q135.343 1070.9 141.153 1070.9 Z" fill="#000000" fill-rule="nonzero" fill-opacity="1" /><path clip-path="url(#clip590)" d="M171.315 1074.6 Q167.703 1074.6 165.875 1078.16 Q164.069 1081.71 164.069 1088.84 Q164.069 1095.94 165.875 1099.51 Q167.703 1103.05 171.315 1103.05 Q174.949 1103.05 176.754 1099.51 Q178.583 1095.94 178.583 1088.84 Q178.583 1081.71 176.754 1078.16 Q174.949 1074.6 171.315 1074.6 M171.315 1070.9 Q177.125 1070.9 180.18 1075.5 Q183.259 1080.09 183.259 1088.84 Q183.259 1097.56 180.18 1102.17 Q177.125 1106.75 171.315 1106.75 Q165.504 1106.75 162.426 1102.17 Q159.37 1097.56 159.37 1088.84 Q159.37 1080.09 162.426 1075.5 Q165.504 1070.9 171.315 1070.9 Z" fill="#000000" fill-rule="nonzero" fill-opacity="1" /><path clip-path="url(#clip590)" d="M201.476 1074.6 Q197.865 1074.6 196.037 1078.16 Q194.231 1081.71 194.231 1088.84 Q194.231 1095.94 196.037 1099.51 Q197.865 1103.05 201.476 1103.05 Q205.111 1103.05 206.916 1099.51 Q208.745 1095.94 208.745 1088.84 Q208.745 1081.71 206.916 1078.16 Q205.111 1074.6 201.476 1074.6 M201.476 1070.9 Q207.287 1070.9 210.342 1075.5 Q213.421 1080.09 213.421 1088.84 Q213.421 1097.56 210.342 1102.17 Q207.287 1106.75 201.476 1106.75 Q195.666 1106.75 192.588 1102.17 Q189.532 1097.56 189.532 1088.84 Q189.532 1080.09 192.588 1075.5 Q195.666 1070.9 201.476 1070.9 Z" fill="#000000" fill-rule="nonzero" fill-opacity="1" /><path clip-path="url(#clip590)" d="M105.019 852.616 L121.338 852.616 L121.338 856.551 L99.3936 856.551 L99.3936 852.616 Q102.056 849.861 106.639 845.232 Q111.245 840.579 112.426 839.236 Q114.671 836.713 115.551 834.977 Q116.454 833.218 116.454 831.528 Q116.454 828.773 114.509 827.037 Q112.588 825.301 109.486 825.301 Q107.287 825.301 104.833 826.065 Q102.403 826.829 99.6251 828.38 L99.6251 823.658 Q102.449 822.523 104.903 821.945 Q107.357 821.366 109.394 821.366 Q114.764 821.366 117.958 824.051 Q121.153 826.736 121.153 831.227 Q121.153 833.357 120.343 835.278 Q119.556 837.176 117.449 839.769 Q116.87 840.44 113.769 843.658 Q110.667 846.852 105.019 852.616 Z" fill="#000000" fill-rule="nonzero" fill-opacity="1" /><path clip-path="url(#clip590)" d="M141.153 825.07 Q137.542 825.07 135.713 828.634 Q133.907 832.176 133.907 839.306 Q133.907 846.412 135.713 849.977 Q137.542 853.519 141.153 853.519 Q144.787 853.519 146.592 849.977 Q148.421 846.412 148.421 839.306 Q148.421 832.176 146.592 828.634 Q144.787 825.07 141.153 825.07 M141.153 821.366 Q146.963 821.366 150.018 825.972 Q153.097 830.556 153.097 839.306 Q153.097 848.033 150.018 852.639 Q146.963 857.222 141.153 857.222 Q135.343 857.222 132.264 852.639 Q129.208 848.033 129.208 839.306 Q129.208 830.556 132.264 825.972 Q135.343 821.366 141.153 821.366 Z" fill="#000000" fill-rule="nonzero" fill-opacity="1" /><path clip-path="url(#clip590)" d="M171.315 825.07 Q167.703 825.07 165.875 828.634 Q164.069 832.176 164.069 839.306 Q164.069 846.412 165.875 849.977 Q167.703 853.519 171.315 853.519 Q174.949 853.519 176.754 849.977 Q178.583 846.412 178.583 839.306 Q178.583 832.176 176.754 828.634 Q174.949 825.07 171.315 825.07 M171.315 821.366 Q177.125 821.366 180.18 825.972 Q183.259 830.556 183.259 839.306 Q183.259 848.033 180.18 852.639 Q177.125 857.222 171.315 857.222 Q165.504 857.222 162.426 852.639 Q159.37 848.033 159.37 839.306 Q159.37 830.556 162.426 825.972 Q165.504 821.366 171.315 821.366 Z" fill="#000000" fill-rule="nonzero" fill-opacity="1" /><path clip-path="url(#clip590)" d="M201.476 825.07 Q197.865 825.07 196.037 828.634 Q194.231 832.176 194.231 839.306 Q194.231 846.412 196.037 849.977 Q197.865 853.519 201.476 853.519 Q205.111 853.519 206.916 849.977 Q208.745 846.412 208.745 839.306 Q208.745 832.176 206.916 828.634 Q205.111 825.07 201.476 825.07 M201.476 821.366 Q207.287 821.366 210.342 825.972 Q213.421 830.556 213.421 839.306 Q213.421 848.033 210.342 852.639 Q207.287 857.222 201.476 857.222 Q195.666 857.222 192.588 852.639 Q189.532 848.033 189.532 839.306 Q189.532 830.556 192.588 825.972 Q195.666 821.366 201.476 821.366 Z" fill="#000000" fill-rule="nonzero" fill-opacity="1" /><path clip-path="url(#clip590)" d="M115.157 588.387 Q118.514 589.104 120.389 591.373 Q122.287 593.641 122.287 596.975 Q122.287 602.09 118.769 604.891 Q115.25 607.692 108.769 607.692 Q106.593 607.692 104.278 607.252 Q101.986 606.836 99.5325 605.979 L99.5325 601.465 Q101.477 602.6 103.792 603.178 Q106.107 603.757 108.63 603.757 Q113.028 603.757 115.319 602.021 Q117.634 600.285 117.634 596.975 Q117.634 593.919 115.481 592.206 Q113.352 590.47 109.532 590.47 L105.505 590.47 L105.505 586.627 L109.718 586.627 Q113.167 586.627 114.995 585.262 Q116.824 583.873 116.824 581.28 Q116.824 578.618 114.926 577.206 Q113.051 575.771 109.532 575.771 Q107.611 575.771 105.412 576.188 Q103.213 576.604 100.574 577.484 L100.574 573.317 Q103.236 572.577 105.551 572.206 Q107.889 571.836 109.949 571.836 Q115.273 571.836 118.375 574.266 Q121.477 576.674 121.477 580.794 Q121.477 583.665 119.833 585.655 Q118.19 587.623 115.157 588.387 Z" fill="#000000" fill-rule="nonzero" fill-opacity="1" /><path clip-path="url(#clip590)" d="M141.153 575.54 Q137.542 575.54 135.713 579.104 Q133.907 582.646 133.907 589.776 Q133.907 596.882 135.713 600.447 Q137.542 603.988 141.153 603.988 Q144.787 603.988 146.592 600.447 Q148.421 596.882 148.421 589.776 Q148.421 582.646 146.592 579.104 Q144.787 575.54 141.153 575.54 M141.153 571.836 Q146.963 571.836 150.018 576.442 Q153.097 581.026 153.097 589.776 Q153.097 598.502 150.018 603.109 Q146.963 607.692 141.153 607.692 Q135.343 607.692 132.264 603.109 Q129.208 598.502 129.208 589.776 Q129.208 581.026 132.264 576.442 Q135.343 571.836 141.153 571.836 Z" fill="#000000" fill-rule="nonzero" fill-opacity="1" /><path clip-path="url(#clip590)" d="M171.315 575.54 Q167.703 575.54 165.875 579.104 Q164.069 582.646 164.069 589.776 Q164.069 596.882 165.875 600.447 Q167.703 603.988 171.315 603.988 Q174.949 603.988 176.754 600.447 Q178.583 596.882 178.583 589.776 Q178.583 582.646 176.754 579.104 Q174.949 575.54 171.315 575.54 M171.315 571.836 Q177.125 571.836 180.18 576.442 Q183.259 581.026 183.259 589.776 Q183.259 598.502 180.18 603.109 Q177.125 607.692 171.315 607.692 Q165.504 607.692 162.426 603.109 Q159.37 598.502 159.37 589.776 Q159.37 581.026 162.426 576.442 Q165.504 571.836 171.315 571.836 Z" fill="#000000" fill-rule="nonzero" fill-opacity="1" /><path clip-path="url(#clip590)" d="M201.476 575.54 Q197.865 575.54 196.037 579.104 Q194.231 582.646 194.231 589.776 Q194.231 596.882 196.037 600.447 Q197.865 603.988 201.476 603.988 Q205.111 603.988 206.916 600.447 Q208.745 596.882 208.745 589.776 Q208.745 582.646 206.916 579.104 Q205.111 575.54 201.476 575.54 M201.476 571.836 Q207.287 571.836 210.342 576.442 Q213.421 581.026 213.421 589.776 Q213.421 598.502 210.342 603.109 Q207.287 607.692 201.476 607.692 Q195.666 607.692 192.588 603.109 Q189.532 598.502 189.532 589.776 Q189.532 581.026 192.588 576.442 Q195.666 571.836 201.476 571.836 Z" fill="#000000" fill-rule="nonzero" fill-opacity="1" /><path clip-path="url(#clip590)" d="M113.838 327.005 L102.032 345.454 L113.838 345.454 L113.838 327.005 M112.611 322.931 L118.491 322.931 L118.491 345.454 L123.421 345.454 L123.421 349.343 L118.491 349.343 L118.491 357.491 L113.838 357.491 L113.838 349.343 L98.2362 349.343 L98.2362 344.829 L112.611 322.931 Z" fill="#000000" fill-rule="nonzero" fill-opacity="1" /><path clip-path="url(#clip590)" d="M141.153 326.009 Q137.542 326.009 135.713 329.574 Q133.907 333.116 133.907 340.245 Q133.907 347.352 135.713 350.917 Q137.542 354.458 141.153 354.458 Q144.787 354.458 146.592 350.917 Q148.421 347.352 148.421 340.245 Q148.421 333.116 146.592 329.574 Q144.787 326.009 141.153 326.009 M141.153 322.306 Q146.963 322.306 150.018 326.912 Q153.097 331.496 153.097 340.245 Q153.097 348.972 150.018 353.579 Q146.963 358.162 141.153 358.162 Q135.343 358.162 132.264 353.579 Q129.208 348.972 129.208 340.245 Q129.208 331.496 132.264 326.912 Q135.343 322.306 141.153 322.306 Z" fill="#000000" fill-rule="nonzero" fill-opacity="1" /><path clip-path="url(#clip590)" d="M171.315 326.009 Q167.703 326.009 165.875 329.574 Q164.069 333.116 164.069 340.245 Q164.069 347.352 165.875 350.917 Q167.703 354.458 171.315 354.458 Q174.949 354.458 176.754 350.917 Q178.583 347.352 178.583 340.245 Q178.583 333.116 176.754 329.574 Q174.949 326.009 171.315 326.009 M171.315 322.306 Q177.125 322.306 180.18 326.912 Q183.259 331.496 183.259 340.245 Q183.259 348.972 180.18 353.579 Q177.125 358.162 171.315 358.162 Q165.504 358.162 162.426 353.579 Q159.37 348.972 159.37 340.245 Q159.37 331.496 162.426 326.912 Q165.504 322.306 171.315 322.306 Z" fill="#000000" fill-rule="nonzero" fill-opacity="1" /><path clip-path="url(#clip590)" d="M201.476 326.009 Q197.865 326.009 196.037 329.574 Q194.231 333.116 194.231 340.245 Q194.231 347.352 196.037 350.917 Q197.865 354.458 201.476 354.458 Q205.111 354.458 206.916 350.917 Q208.745 347.352 208.745 340.245 Q208.745 333.116 206.916 329.574 Q205.111 326.009 201.476 326.009 M201.476 322.306 Q207.287 322.306 210.342 326.912 Q213.421 331.496 213.421 340.245 Q213.421 348.972 210.342 353.579 Q207.287 358.162 201.476 358.162 Q195.666 358.162 192.588 353.579 Q189.532 348.972 189.532 340.245 Q189.532 331.496 192.588 326.912 Q195.666 322.306 201.476 322.306 Z" fill="#000000" fill-rule="nonzero" fill-opacity="1" /><path clip-path="url(#clip590)" d="M101.037 73.4006 L119.394 73.4006 L119.394 77.3358 L105.32 77.3358 L105.32 85.808 Q106.338 85.4608 107.357 85.2987 Q108.375 85.1135 109.394 85.1135 Q115.181 85.1135 118.56 88.2848 Q121.94 91.4561 121.94 96.8727 Q121.94 102.451 118.468 105.553 Q114.995 108.632 108.676 108.632 Q106.5 108.632 104.232 108.262 Q101.986 107.891 99.5788 107.15 L99.5788 102.451 Q101.662 103.586 103.884 104.141 Q106.107 104.697 108.583 104.697 Q112.588 104.697 114.926 102.59 Q117.264 100.484 117.264 96.8727 Q117.264 93.2616 114.926 91.1552 Q112.588 89.0487 108.583 89.0487 Q106.708 89.0487 104.833 89.4654 Q102.982 89.882 101.037 90.7616 L101.037 73.4006 Z" fill="#000000" fill-rule="nonzero" fill-opacity="1" /><path clip-path="url(#clip590)" d="M141.153 76.4793 Q137.542 76.4793 135.713 80.0441 Q133.907 83.5858 133.907 90.7154 Q133.907 97.8218 135.713 101.387 Q137.542 104.928 141.153 104.928 Q144.787 104.928 146.592 101.387 Q148.421 97.8218 148.421 90.7154 Q148.421 83.5858 146.592 80.0441 Q144.787 76.4793 141.153 76.4793 M141.153 72.7756 Q146.963 72.7756 150.018 77.3821 Q153.097 81.9654 153.097 90.7154 Q153.097 99.4422 150.018 104.049 Q146.963 108.632 141.153 108.632 Q135.343 108.632 132.264 104.049 Q129.208 99.4422 129.208 90.7154 Q129.208 81.9654 132.264 77.3821 Q135.343 72.7756 141.153 72.7756 Z" fill="#000000" fill-rule="nonzero" fill-opacity="1" /><path clip-path="url(#clip590)" d="M171.315 76.4793 Q167.703 76.4793 165.875 80.0441 Q164.069 83.5858 164.069 90.7154 Q164.069 97.8218 165.875 101.387 Q167.703 104.928 171.315 104.928 Q174.949 104.928 176.754 101.387 Q178.583 97.8218 178.583 90.7154 Q178.583 83.5858 176.754 80.0441 Q174.949 76.4793 171.315 76.4793 M171.315 72.7756 Q177.125 72.7756 180.18 77.3821 Q183.259 81.9654 183.259 90.7154 Q183.259 99.4422 180.18 104.049 Q177.125 108.632 171.315 108.632 Q165.504 108.632 162.426 104.049 Q159.37 99.4422 159.37 90.7154 Q159.37 81.9654 162.426 77.3821 Q165.504 72.7756 171.315 72.7756 Z" fill="#000000" fill-rule="nonzero" fill-opacity="1" /><path clip-path="url(#clip590)" d="M201.476 76.4793 Q197.865 76.4793 196.037 80.0441 Q194.231 83.5858 194.231 90.7154 Q194.231 97.8218 196.037 101.387 Q197.865 104.928 201.476 104.928 Q205.111 104.928 206.916 101.387 Q208.745 97.8218 208.745 90.7154 Q208.745 83.5858 206.916 80.0441 Q205.111 76.4793 201.476 76.4793 M201.476 72.7756 Q207.287 72.7756 210.342 77.3821 Q213.421 81.9654 213.421 90.7154 Q213.421 99.4422 210.342 104.049 Q207.287 108.632 201.476 108.632 Q195.666 108.632 192.588 104.049 Q189.532 99.4422 189.532 90.7154 Q189.532 81.9654 192.588 77.3821 Q195.666 72.7756 201.476 72.7756 Z" fill="#000000" fill-rule="nonzero" fill-opacity="1" /><polyline clip-path="url(#clip592)" style="stroke:#009af9; stroke-linecap:round; stroke-linejoin:round; stroke-width:8; stroke-opacity:1; fill:none" points="249.421,1338.08 251.3,1338.28 253.18,1338.28 255.06,1338.28 256.939,1338.28 258.819,1338.28 260.699,1338.28 262.578,1338.28 264.458,1338.28 266.338,1338.28 268.217,1338.28 270.097,1338.28 271.977,1338.28 273.856,1338.28 275.736,1338.28 277.616,1338.28 279.495,1338.28 281.375,1338.28 283.255,1338.28 285.134,1338.28 287.014,1338.28 288.894,1338.28 290.773,1338.28 292.653,1338.28 294.533,1338.28 296.412,1338.28 298.292,1338.28 300.172,1338.28 302.051,1338.28 303.931,1338.28 305.81,1338.28 307.69,1338.28 309.57,1338.28 311.449,1338.28 313.329,1338.28 315.209,1338.28 317.088,1338.28 318.968,1338.28 320.848,1338.28 322.727,1338.28 324.607,1338.28 326.487,1338.28 328.366,1338.28 330.246,1338.28 332.126,1338.28 334.005,1338.28 335.885,1338.28 337.765,1338.28 339.644,1338.28 341.524,1338.28 343.404,1338.28 345.283,1338.28 347.163,1338.28 349.043,1338.28 350.922,1338.28 352.802,1338.28 354.682,1338.28 356.561,1338.28 358.441,1338.28 360.32,1338.28 362.2,1338.28 364.08,1338.28 365.959,1338.28 367.839,1338.28 369.719,1338.28 371.598,1338.28 373.478,1338.28 375.358,1338.28 377.237,1338.28 379.117,1338.28 380.997,1338.28 382.876,1338.28 384.756,1338.28 386.636,1338.28 388.515,1338.28 390.395,1338.28 392.275,1338.28 394.154,1338.28 396.034,1338.28 397.914,1338.28 399.793,1338.28 401.673,1338.28 403.553,1338.28 405.432,1338.28 407.312,1338.28 409.192,1338.28 411.071,1338.28 412.951,1338.28 414.831,1338.28 416.71,1338.28 418.59,1338.28 420.469,1338.28 422.349,1338.28 424.229,1338.28 426.108,1338.28 427.988,1338.28 429.868,1338.28 431.747,1338.28 433.627,1338.28 435.507,1338.28 437.386,1338.28 439.266,1338.28 441.146,1338.28 443.025,1338.28 444.905,1338.28 446.785,1338.28 448.664,1338.28 450.544,1338.28 452.424,1338.28 454.303,1338.28 456.183,1338.28 458.063,1338.28 459.942,1338.28 461.822,1338.28 463.702,1338.28 465.581,1338.28 467.461,1338.28 469.341,1338.28 471.22,1338.28 473.1,1338.28 474.98,1338.28 476.859,1338.28 478.739,1338.28 480.618,1338.28 482.498,1338.28 484.378,1338.28 486.257,1338.28 488.137,1338.28 490.017,1338.28 491.896,1338.28 493.776,1338.28 495.656,1338.28 497.535,1338.28 499.415,1338.28 501.295,1338.28 503.174,1338.28 505.054,1338.28 506.934,1338.28 508.813,1338.28 510.693,1338.28 512.573,1338.28 514.452,1338.28 516.332,1338.28 518.212,1338.28 520.091,1338.28 521.971,1338.28 523.851,1338.28 525.73,1338.28 527.61,1338.28 529.49,1338.28 531.369,1338.28 533.249,1338.28 535.129,1338.28 537.008,1338.28 538.888,1338.28 540.767,1338.28 542.647,1338.28 544.527,1338.28 546.406,1338.28 548.286,1338.28 550.166,1338.28 552.045,1338.28 553.925,1338.28 555.805,1338.28 557.684,1338.28 559.564,1338.28 561.444,1338.28 563.323,1338.28 565.203,1338.28 567.083,1338.28 568.962,1338.28 570.842,1338.28 572.722,1338.28 574.601,1338.28 576.481,1338.28 578.361,1338.28 580.24,1338.28 582.12,1338.28 584,1338.28 585.879,1338.28 587.759,1338.28 589.639,1338.28 591.518,1338.28 593.398,1338.28 595.278,1338.28 597.157,1338.28 599.037,1338.28 600.916,1338.28 602.796,1338.28 604.676,1338.28 606.555,1338.28 608.435,1338.28 610.315,1338.28 612.194,1338.28 614.074,1338.28 615.954,1338.28 617.833,1338.28 619.713,1338.28 621.593,1338.28 623.472,1338.28 625.352,1338.28 627.232,1338.28 629.111,1338.28 630.991,1338.28 632.871,1338.28 634.75,1338.28 636.63,1338.28 638.51,1338.28 640.389,1338.28 642.269,1338.28 644.149,1338.28 646.028,1338.28 647.908,1338.28 649.788,1338.28 651.667,1338.28 653.547,1338.28 655.426,1338.28 657.306,1338.28 659.186,1338.28 661.065,1338.28 662.945,1338.28 664.825,1338.28 666.704,1338.28 668.584,1338.28 670.464,1338.28 672.343,1338.28 674.223,1338.28 676.103,1338.28 677.982,1338.28 679.862,1338.28 681.742,1338.28 683.621,1338.28 685.501,1338.28 687.381,1338.28 689.26,1338.28 691.14,1338.28 693.02,1338.28 694.899,1338.28 696.779,1338.28 698.659,1338.28 700.538,1338.28 702.418,1338.28 704.298,1338.28 706.177,1338.28 708.057,1338.28 709.937,1338.28 711.816,1338.28 713.696,1338.28 715.575,1338.28 717.455,1338.28 719.335,1338.28 721.214,1338.28 723.094,1338.28 724.974,1338.28 726.853,1338.28 728.733,1338.28 730.613,1338.28 732.492,1338.28 734.372,1338.28 736.252,1338.28 738.131,1338.28 740.011,1338.28 741.891,1338.28 743.77,1338.28 745.65,1338.28 747.53,1338.28 749.409,1338.28 751.289,1338.28 753.169,1338.28 755.048,1338.28 756.928,1338.28 758.808,1338.28 760.687,1338.28 762.567,1338.28 764.447,1338.28 766.326,1338.28 768.206,1338.28 770.086,1338.28 771.965,1338.28 773.845,1338.28 775.724,1338.28 777.604,1338.28 779.484,1338.27 781.363,1338.27 783.243,1338.27 785.123,1338.27 787.002,1338.27 788.882,1338.27 790.762,1338.27 792.641,1338.27 794.521,1338.27 796.401,1338.27 798.28,1338.27 800.16,1338.27 802.04,1338.27 803.919,1338.27 805.799,1338.27 807.679,1338.27 809.558,1338.27 811.438,1338.27 813.318,1338.27 815.197,1338.27 817.077,1338.27 818.957,1338.27 820.836,1338.27 822.716,1338.27 824.596,1338.27 826.475,1338.27 828.355,1338.27 830.235,1338.27 832.114,1338.27 833.994,1338.27 835.873,1338.27 837.753,1338.27 839.633,1338.27 841.512,1338.27 843.392,1338.27 845.272,1338.27 847.151,1338.27 849.031,1338.27 850.911,1338.27 852.79,1338.27 854.67,1338.27 856.55,1338.27 858.429,1338.27 860.309,1338.27 862.189,1338.27 864.068,1338.27 865.948,1338.27 867.828,1338.27 869.707,1338.27 871.587,1338.27 873.467,1338.27 875.346,1338.27 877.226,1338.27 879.106,1338.27 880.985,1338.27 882.865,1338.27 884.745,1338.27 886.624,1338.27 888.504,1338.27 890.384,1338.27 892.263,1338.27 894.143,1338.27 896.022,1338.27 897.902,1338.27 899.782,1338.27 901.661,1338.27 903.541,1338.27 905.421,1338.27 907.3,1338.27 909.18,1338.27 911.06,1338.27 912.939,1338.27 914.819,1338.27 916.699,1338.27 918.578,1338.27 920.458,1338.27 922.338,1338.27 924.217,1338.27 926.097,1338.27 927.977,1338.27 929.856,1338.27 931.736,1338.27 933.616,1338.27 935.495,1338.27 937.375,1338.27 939.255,1338.27 941.134,1338.27 943.014,1338.27 944.894,1338.27 946.773,1338.27 948.653,1338.27 950.532,1338.27 952.412,1338.27 954.292,1338.27 956.171,1338.27 958.051,1338.27 959.931,1338.27 961.81,1338.27 963.69,1338.27 965.57,1338.27 967.449,1338.27 969.329,1338.27 971.209,1338.27 973.088,1338.27 974.968,1338.27 976.848,1338.27 978.727,1338.27 980.607,1338.27 982.487,1338.27 984.366,1338.27 986.246,1338.27 988.126,1338.27 990.005,1338.27 991.885,1338.27 993.765,1338.27 995.644,1338.27 997.524,1338.27 999.404,1338.27 1001.28,1338.27 1003.16,1338.27 1005.04,1338.27 1006.92,1338.27 1008.8,1338.27 1010.68,1338.27 1012.56,1338.27 1014.44,1338.27 1016.32,1338.27 1018.2,1338.27 1020.08,1338.27 1021.96,1338.27 1023.84,1338.27 1025.72,1338.27 1027.6,1338.27 1029.48,1338.27 1031.36,1338.27 1033.24,1338.27 1035.12,1338.27 1037,1338.27 1038.88,1338.27 1040.76,1338.27 1042.64,1338.27 1044.52,1338.27 1046.39,1338.27 1048.27,1338.27 1050.15,1338.27 1052.03,1338.27 1053.91,1338.27 1055.79,1338.27 1057.67,1338.27 1059.55,1338.27 1061.43,1338.27 1063.31,1338.27 1065.19,1338.27 1067.07,1338.27 1068.95,1338.27 1070.83,1338.27 1072.71,1338.27 1074.59,1338.27 1076.47,1338.27 1078.35,1338.27 1080.23,1338.27 1082.11,1338.27 1083.99,1338.27 1085.87,1338.27 1087.75,1338.27 1089.63,1338.27 1091.51,1338.27 1093.39,1338.27 1095.27,1338.27 1097.15,1338.27 1099.03,1338.27 1100.9,1338.27 1102.78,1338.27 1104.66,1338.27 1106.54,1338.27 1108.42,1338.27 1110.3,1338.27 1112.18,1338.27 1114.06,1338.27 1115.94,1338.27 1117.82,1338.27 1119.7,1338.27 1121.58,1338.27 1123.46,1338.27 1125.34,1338.27 1127.22,1338.27 1129.1,1338.27 1130.98,1338.27 1132.86,1338.27 1134.74,1338.27 1136.62,1338.27 1138.5,1338.27 1140.38,1338.27 1142.26,1338.27 1144.14,1338.27 1146.02,1338.27 1147.9,1338.27 1149.78,1338.27 1151.66,1338.27 1153.54,1338.27 1155.42,1338.27 1157.29,1338.27 1159.17,1338.27 1161.05,1338.27 1162.93,1338.27 1164.81,1338.27 1166.69,1338.27 1168.57,1338.27 1170.45,1338.27 1172.33,1338.27 1174.21,1338.27 1176.09,1338.27 1177.97,1338.27 1179.85,1338.27 1181.73,1338.27 1183.61,1338.27 1185.49,1338.27 1187.37,1338.27 1189.25,1338.27 1191.13,1338.27 1193.01,1338.27 1194.89,1338.27 1196.77,1338.27 1198.65,1338.27 1200.53,1338.27 1202.41,1338.27 1204.29,1338.27 1206.17,1338.27 1208.05,1338.27 1209.93,1338.27 1211.8,1338.27 1213.68,1338.27 1215.56,1338.27 1217.44,1338.27 1219.32,1338.27 1221.2,1338.27 1223.08,1338.27 1224.96,1338.27 1226.84,1338.27 1228.72,1338.27 1230.6,1338.26 1232.48,1338.26 1234.36,1338.26 1236.24,1338.26 1238.12,1338.26 1240,1338.26 1241.88,1338.26 1243.76,1338.26 1245.64,1338.26 1247.52,1338.26 1249.4,1338.26 1251.28,1338.26 1253.16,1338.26 1255.04,1338.26 1256.92,1338.26 1258.8,1338.26 1260.68,1338.26 1262.56,1338.26 1264.44,1338.26 1266.31,1338.26 1268.19,1338.26 1270.07,1338.26 1271.95,1338.26 1273.83,1338.26 1275.71,1338.26 1277.59,1338.26 1279.47,1338.26 1281.35,1338.26 1283.23,1338.26 1285.11,1338.26 1286.99,1338.26 1288.87,1338.26 1290.75,1338.26 1292.63,1338.26 1294.51,1338.26 1296.39,1338.26 1298.27,1338.26 1300.15,1338.26 1302.03,1338.26 1303.91,1338.26 1305.79,1338.26 1307.67,1338.26 1309.55,1338.26 1311.43,1338.26 1313.31,1338.26 1315.19,1338.26 1317.07,1338.26 1318.95,1338.26 1320.82,1338.26 1322.7,1338.26 1324.58,1338.26 1326.46,1338.26 1328.34,1338.26 1330.22,1338.26 1332.1,1338.26 1333.98,1338.26 1335.86,1338.26 1337.74,1338.26 1339.62,1338.26 1341.5,1338.26 1343.38,1338.26 1345.26,1338.26 1347.14,1338.26 1349.02,1338.26 1350.9,1338.26 1352.78,1338.26 1354.66,1338.26 1356.54,1338.26 1358.42,1338.26 1360.3,1338.26 1362.18,1338.26 1364.06,1338.26 1365.94,1338.26 1367.82,1338.26 1369.7,1338.26 1371.58,1338.26 1373.46,1338.26 1375.33,1338.26 1377.21,1338.26 1379.09,1338.26 1380.97,1338.26 1382.85,1338.26 1384.73,1338.26 1386.61,1338.26 1388.49,1338.26 1390.37,1338.26 1392.25,1338.26 1394.13,1338.26 1396.01,1338.26 1397.89,1338.26 1399.77,1338.26 1401.65,1338.26 1403.53,1338.26 1405.41,1338.26 1407.29,1338.26 1409.17,1338.26 1411.05,1338.26 1412.93,1338.26 1414.81,1338.26 1416.69,1338.26 1418.57,1338.26 1420.45,1338.26 1422.33,1338.26 1424.21,1338.26 1426.09,1338.26 1427.97,1338.26 1429.84,1338.26 1431.72,1338.26 1433.6,1338.26 1435.48,1338.26 1437.36,1338.26 1439.24,1338.26 1441.12,1338.26 1443,1338.25 1444.88,1338.25 1446.76,1338.25 1448.64,1338.25 1450.52,1338.25 1452.4,1338.25 1454.28,1338.25 1456.16,1338.25 1458.04,1338.25 1459.92,1338.25 1461.8,1338.25 1463.68,1338.25 1465.56,1338.25 1467.44,1338.25 1469.32,1338.25 1471.2,1338.25 1473.08,1338.25 1474.96,1338.25 1476.84,1338.25 1478.72,1338.25 1480.6,1338.25 1482.48,1338.25 1484.35,1338.25 1486.23,1338.25 1488.11,1338.25 1489.99,1338.25 1491.87,1338.25 1493.75,1338.25 1495.63,1338.25 1497.51,1338.25 1499.39,1338.25 1501.27,1338.25 1503.15,1338.25 1505.03,1338.25 1506.91,1338.25 1508.79,1338.25 1510.67,1338.25 1512.55,1338.25 1514.43,1338.25 1516.31,1338.25 1518.19,1338.25 1520.07,1338.25 1521.95,1338.25 1523.83,1338.25 1525.71,1338.25 1527.59,1338.25 1529.47,1338.25 1531.35,1338.25 1533.23,1338.25 1535.11,1338.24 1536.99,1338.24 1538.86,1338.24 1540.74,1338.24 1542.62,1338.24 1544.5,1338.24 1546.38,1338.24 1548.26,1338.24 1550.14,1338.24 1552.02,1338.24 1553.9,1338.24 1555.78,1338.24 1557.66,1338.24 1559.54,1338.24 1561.42,1338.24 1563.3,1338.24 1565.18,1338.24 1567.06,1338.23 1568.94,1338.23 1570.82,1338.22 1572.7,96.9801 1574.58,117.205 1576.46,137.072 1578.34,156.586 1580.22,175.756 1582.1,194.585 1583.98,213.081 1585.86,231.25 1587.74,249.097 1589.62,266.627 1591.5,283.847 1593.37,300.763 1595.25,317.378 1597.13,333.7 1599.01,349.732 1600.89,365.48 1602.77,380.95 1604.65,396.145 1606.53,411.071 1608.41,425.733 1610.29,440.136 1612.17,454.283 1614.05,468.179 1615.93,481.83 1617.81,495.239 1619.69,508.41 1621.57,521.348 1623.45,534.057 1625.33,546.541 1627.21,558.804 1629.09,570.85 1630.97,582.682 1632.85,594.305 1634.73,605.722 1636.61,616.937 1638.49,627.953 1640.37,638.774 1642.25,649.403 1644.13,659.845 1646.01,670.101 1647.88,680.176 1649.76,690.072 1651.64,699.794 1653.52,709.343 1655.4,718.723 1657.28,727.936 1659.16,736.987 1661.04,745.878 1662.92,754.611 1664.8,763.189 1666.68,771.616 1668.56,779.893 1670.44,788.024 1672.32,796.011 1674.2,803.856 1676.08,811.562 1677.96,819.133 1679.84,826.569 1681.72,833.873 1683.6,841.048 1685.48,848.096 1687.36,855.019 1689.24,861.82 1691.12,868.5 1693,875.063 1694.88,881.509 1696.76,887.84 1698.64,894.06 1700.52,900.17 1702.39,906.171 1704.27,912.066 1706.15,917.857 1708.03,923.545 1709.91,929.133 1711.79,934.622 1713.67,940.014 1715.55,945.31 1717.43,950.512 1719.31,955.623 1721.19,960.642 1723.07,965.573 1724.95,970.417 1726.83,975.175 1728.71,979.849 1730.59,984.44 1732.47,988.95 1734.35,993.38 1736.23,997.732 1738.11,1002.01 1739.99,1006.21 1741.87,1010.33 1743.75,1014.38 1745.63,1018.36 1747.51,1022.27 1749.39,1026.11 1751.27,1029.88 1753.15,1033.59 1755.03,1037.23 1756.9,1040.8 1758.78,1044.32 1760.66,1047.77 1762.54,1051.16 1764.42,1054.49 1766.3,1057.76 1768.18,1060.97 1770.06,1064.12 1771.94,1067.22 1773.82,1070.27 1775.7,1073.26 1777.58,1076.2 1779.46,1079.08 1781.34,1081.92 1783.22,1084.7 1785.1,1087.44 1786.98,1090.12 1788.86,1092.76 1790.74,1095.36 1792.62,1097.9 1794.5,1100.4 1796.38,1102.86 1798.26,1105.28 1800.14,1107.65 1802.02,1109.98 1803.9,1112.26 1805.78,1114.51 1807.66,1116.72 1809.54,1118.89 1811.41,1121.02 1813.29,1123.11 1815.17,1125.17 1817.05,1127.19 1818.93,1129.17 1820.81,1131.12 1822.69,1133.03 1824.57,1134.91 1826.45,1136.76 1828.33,1138.57 1830.21,1140.35 1832.09,1142.1 1833.97,1143.82 1835.85,1145.51 1837.73,1147.17 1839.61,1148.8 1841.49,1150.4 1843.37,1151.97 1845.25,1153.51 1847.13,1155.03 1849.01,1156.52 1850.89,1157.99 1852.77,1159.42 1854.65,1160.83 1856.53,1162.22 1858.41,1163.58 1860.29,1164.92 1862.17,1166.24 1864.05,1167.53 1865.92,1168.8 1867.8,1170.04 1869.68,1171.27 1871.56,1172.47 1873.44,1173.65 1875.32,1174.81 1877.2,1175.95 1879.08,1177.07 1880.96,1178.17 1882.84,1179.25 1884.72,1180.31 1886.6,1181.35 1888.48,1182.37 1890.36,1183.38 1892.24,1184.36 1894.12,1185.33 1896,1186.28 1897.88,1187.22 1899.76,1188.14 1901.64,1189.04 1903.52,1189.93 1905.4,1190.8 1907.28,1191.65 1909.16,1192.49 1911.04,1193.32 1912.92,1194.13 1914.8,1194.92 1916.68,1195.71 1918.56,1196.47 1920.44,1197.23 1922.31,1197.97 1924.19,1198.7 1926.07,1199.41 1927.95,1200.11 1929.83,1200.8 1931.71,1201.48 1933.59,1202.14 1935.47,1202.8 1937.35,1203.44 1939.23,1204.07 1941.11,1204.69 1942.99,1205.29 1944.87,1205.89 1946.75,1206.48 1948.63,1207.05 1950.51,1207.62 1952.39,1208.17 1954.27,1208.72 1956.15,1209.26 1958.03,1209.78 1959.91,1210.3 1961.79,1210.81 1963.67,1211.31 1965.55,1211.79 1967.43,1212.28 1969.31,1212.75 1971.19,1213.21 1973.07,1213.67 1974.95,1214.11 1976.82,1214.55 1978.7,1214.99 1980.58,1215.41 1982.46,1215.83 1984.34,1216.23 1986.22,1216.64 1988.1,1217.03 1989.98,1217.42 1991.86,1217.8 1993.74,1218.17 1995.62,1218.54 1997.5,1218.9 1999.38,1219.25 2001.26,1219.6 2003.14,1219.94 2005.02,1220.27 2006.9,1220.6 2008.78,1220.93 2010.66,1221.24 2012.54,1221.56 2014.42,1221.86 2016.3,1222.16 2018.18,1222.46 2020.06,1222.75 2021.94,1223.03 2023.82,1223.31 2025.7,1223.59 2027.58,1223.86 2029.46,1224.12 2031.33,1224.38 2033.21,1224.64 2035.09,1224.89 2036.97,1225.13 2038.85,1225.37 2040.73,1225.61 2042.61,1225.85 2044.49,1226.07 2046.37,1226.3 2048.25,1226.52 2050.13,1226.74 2052.01,1226.95 2053.89,1227.16 2055.77,1227.36 2057.65,1227.57 2059.53,1227.76 2061.41,1227.96 2063.29,1228.15 2065.17,1228.34 2067.05,1228.52 2068.93,1228.7 2070.81,1228.88 2072.69,1229.05 2074.57,1229.22 2076.45,1229.39 2078.33,1229.56 2080.21,1229.72 2082.09,1229.88 2083.97,1230.04 2085.84,1230.19 2087.72,1230.34 2089.6,1230.49 2091.48,1230.63 2093.36,1230.78 2095.24,1230.92 2097.12,1231.05 2099,1231.19 2100.88,1231.32 2102.76,1231.45 2104.64,1231.58 2106.52,1231.71 2108.4,1231.83 2110.28,1231.95 2112.16,1232.07 2114.04,1232.19 2115.92,1232.3 2117.8,1232.41 2119.68,1232.52 2121.56,1232.63 2123.44,1232.74 2125.32,1232.84 2127.2,1232.95 2129.08,1233.05 2130.96,1233.15 2132.84,1233.24 2134.72,1233.34 2136.6,1233.43 2138.48,1233.53 2140.35,1233.62 2142.23,1233.71 2144.11,1233.79 2145.99,1233.88 2147.87,1233.96 2149.75,1234.04 2151.63,1234.13 2153.51,1234.21 2155.39,1234.28 2157.27,1234.36 2159.15,1234.44 2161.03,1234.51 2162.91,1234.58 2164.79,1234.65 2166.67,1234.72 2168.55,1234.79 2170.43,1234.86 2172.31,1234.93 2174.19,1234.99 2176.07,1235.06 2177.95,1235.12 2179.83,1235.18 2181.71,1235.24 2183.59,1235.3 2185.47,1235.36 2187.35,1235.42 2189.23,1235.47 2191.11,1235.53 2192.99,1235.58 2194.86,1235.64 2196.74,1235.69 2198.62,1235.74 2200.5,1235.79 2202.38,1235.84 2204.26,1235.89 2206.14,1235.94 2208.02,1235.98 2209.9,1236.03 2211.78,1236.07 2213.66,1236.12 2215.54,1236.16 2217.42,1236.2 2219.3,1236.25 2221.18,1236.29 2223.06,1236.33 2224.94,1236.37 2226.82,1236.41 2228.7,1236.44 2230.58,1236.48 2232.46,1236.52 2234.34,1236.56 2236.22,1236.59 2238.1,1236.63 2239.98,1236.66 2241.86,1236.69 2243.74,1236.73 2245.62,1236.76 2247.5,1236.79 2249.37,1236.82 2251.25,1236.85 2253.13,1236.88 2255.01,1236.91 2256.89,1236.94 2258.77,1236.97 2260.65,1237 2262.53,1237.03 2264.41,1237.05 2266.29,1237.08 2268.17,1237.11 2270.05,1237.13 2271.93,1237.16 2273.81,1237.18 2275.69,1237.21 2277.57,1237.23 2279.45,1237.25 2281.33,1237.28 2283.21,1237.3 2285.09,1237.32 2286.97,1237.34 2288.85,1237.36 2290.73,1237.39 2292.61,1237.41 2294.49,1237.43 2296.37,1237.45 2298.25,1237.47 2300.13,1237.49 2302.01,1237.5 2303.88,1237.52 2305.76,1237.54 2307.64,1237.56 2309.52,1237.58 2311.4,1237.59 2313.28,1237.61 2315.16,1237.63 2317.04,1237.64 2318.92,1237.66 2320.8,1237.67 2322.68,1237.69 2324.56,1237.7 2326.44,1237.72 2328.32,1237.73 2330.2,1237.75 2332.08,1237.76 2333.96,1237.78 2335.84,1237.79 2337.72,1237.8 2339.6,1237.82 2341.48,1237.83 2343.36,1237.84 2345.24,1237.85 2347.12,1237.87 2349,1237.88 2350.88,1237.89 2352.76,1237.9 "/>
<polyline clip-path="url(#clip592)" style="stroke:#e26f46; stroke-linecap:round; stroke-linejoin:round; stroke-width:8; stroke-opacity:1; fill:none" points="249.421,1338.33 251.3,1336.35 253.18,1334.57 255.06,1332.78 256.939,1331 258.819,1329.22 260.699,1327.43 262.578,1325.65 264.458,1323.87 266.338,1322.08 268.217,1320.3 270.097,1318.52 271.977,1316.74 273.856,1314.95 275.736,1313.17 277.616,1311.39 279.495,1309.6 281.375,1307.82 283.255,1306.04 285.134,1304.25 287.014,1302.47 288.894,1300.69 290.773,1298.9 292.653,1297.12 294.533,1295.34 296.412,1293.56 298.292,1291.77 300.172,1289.99 302.051,1288.21 303.931,1286.42 305.81,1284.64 307.69,1282.86 309.57,1281.07 311.449,1279.29 313.329,1277.51 315.209,1275.73 317.088,1273.94 318.968,1272.16 320.848,1270.38 322.727,1268.59 324.607,1266.81 326.487,1265.03 328.366,1263.24 330.246,1261.46 332.126,1259.68 334.005,1257.9 335.885,1256.11 337.765,1254.33 339.644,1252.55 341.524,1250.76 343.404,1248.98 345.283,1247.2 347.163,1245.41 349.043,1243.63 350.922,1241.85 352.802,1240.06 354.682,1238.28 356.561,1236.5 358.441,1234.72 360.32,1232.93 362.2,1231.15 364.08,1229.37 365.959,1227.58 367.839,1225.8 369.719,1224.02 371.598,1222.23 373.478,1220.45 375.358,1218.67 377.237,1216.89 379.117,1215.1 380.997,1213.32 382.876,1211.54 384.756,1209.75 386.636,1207.97 388.515,1206.19 390.395,1204.4 392.275,1202.62 394.154,1200.84 396.034,1199.06 397.914,1197.27 399.793,1195.49 401.673,1193.71 403.553,1191.92 405.432,1190.14 407.312,1188.36 409.192,1186.57 411.071,1184.79 412.951,1183.01 414.831,1181.23 416.71,1179.44 418.59,1177.66 420.469,1175.88 422.349,1174.09 424.229,1172.31 426.108,1170.53 427.988,1168.74 429.868,1166.96 431.747,1165.18 433.627,1163.4 435.507,1161.61 437.386,1159.83 439.266,1158.05 441.146,1156.26 443.025,1154.48 444.905,1152.7 446.785,1150.91 448.664,1149.13 450.544,1147.35 452.424,1145.57 454.303,1143.78 456.183,1142 458.063,1140.22 459.942,1138.43 461.822,1136.65 463.702,1134.87 465.581,1133.08 467.461,1131.3 469.341,1129.52 471.22,1127.74 473.1,1125.95 474.98,1124.17 476.859,1122.39 478.739,1120.6 480.618,1118.82 482.498,1117.04 484.378,1115.25 486.257,1113.47 488.137,1111.69 490.017,1109.91 491.896,1108.12 493.776,1106.34 495.656,1104.56 497.535,1102.77 499.415,1100.99 501.295,1099.21 503.174,1097.42 505.054,1095.64 506.934,1093.86 508.813,1092.08 510.693,1090.29 512.573,1088.51 514.452,1086.73 516.332,1084.94 518.212,1083.16 520.091,1081.38 521.971,1079.59 523.851,1077.81 525.73,1076.03 527.61,1074.25 529.49,1072.46 531.369,1070.68 533.249,1068.9 535.129,1067.11 537.008,1065.33 538.888,1063.55 540.767,1061.76 542.647,1059.98 544.527,1058.2 546.406,1056.42 548.286,1054.63 550.166,1052.85 552.045,1051.07 553.925,1049.28 555.805,1047.5 557.684,1045.72 559.564,1043.93 561.444,1042.15 563.323,1040.37 565.203,1038.59 567.083,1036.8 568.962,1035.02 570.842,1033.24 572.722,1031.45 574.601,1029.67 576.481,1027.89 578.361,1026.11 580.24,1024.32 582.12,1022.54 584,1020.76 585.879,1018.97 587.759,1017.19 589.639,1015.41 591.518,1013.62 593.398,1011.84 595.278,1010.06 597.157,1008.28 599.037,1006.49 600.916,1004.71 602.796,1002.93 604.676,1001.14 606.555,999.361 608.435,997.578 610.315,995.795 612.194,994.012 614.074,992.229 615.954,990.446 617.833,988.663 619.713,986.88 621.593,985.097 623.472,983.314 625.352,981.531 627.232,979.748 629.111,977.965 630.991,976.182 632.871,974.399 634.75,972.616 636.63,970.833 638.51,969.05 640.389,967.267 642.269,965.484 644.149,963.702 646.028,961.919 647.908,960.136 649.788,958.353 651.667,956.57 653.547,954.787 655.426,953.004 657.306,951.221 659.186,949.438 661.065,947.655 662.945,945.872 664.825,944.089 666.704,942.306 668.584,940.523 670.464,938.74 672.343,936.957 674.223,935.174 676.103,933.391 677.982,931.608 679.862,929.825 681.742,928.043 683.621,926.26 685.501,924.477 687.381,922.694 689.26,920.911 691.14,919.128 693.02,917.345 694.899,915.562 696.779,913.779 698.659,911.996 700.538,910.213 702.418,908.43 704.298,906.647 706.177,904.864 708.057,903.081 709.937,901.298 711.816,899.515 713.696,897.733 715.575,895.95 717.455,894.167 719.335,892.384 721.214,890.601 723.094,888.818 724.974,887.035 726.853,885.252 728.733,883.469 730.613,881.686 732.492,879.903 734.372,878.12 736.252,876.337 738.131,874.554 740.011,872.772 741.891,870.989 743.77,869.206 745.65,867.423 747.53,865.64 749.409,863.857 751.289,862.074 753.169,860.291 755.048,858.508 756.928,856.725 758.808,854.942 760.687,853.159 762.567,851.376 764.447,849.593 766.326,847.811 768.206,846.028 770.086,844.245 771.965,842.462 773.845,840.679 775.724,838.896 777.604,837.113 779.484,835.33 781.363,833.547 783.243,831.764 785.123,829.981 787.002,828.198 788.882,826.416 790.762,824.633 792.641,822.85 794.521,821.067 796.401,819.284 798.28,817.501 800.16,815.718 802.04,813.935 803.919,812.152 805.799,810.369 807.679,808.586 809.558,806.804 811.438,805.021 813.318,803.238 815.197,801.455 817.077,799.672 818.957,797.889 820.836,796.106 822.716,794.323 824.596,792.54 826.475,790.757 828.355,788.975 830.235,787.192 832.114,785.409 833.994,783.626 835.873,781.843 837.753,780.06 839.633,778.277 841.512,776.494 843.392,774.711 845.272,772.928 847.151,771.146 849.031,769.363 850.911,767.58 852.79,765.797 854.67,764.014 856.55,762.231 858.429,760.448 860.309,758.665 862.189,756.882 864.068,755.1 865.948,753.317 867.828,751.534 869.707,749.751 871.587,747.968 873.467,746.185 875.346,744.402 877.226,742.619 879.106,740.836 880.985,739.054 882.865,737.271 884.745,735.488 886.624,733.705 888.504,731.922 890.384,730.139 892.263,728.356 894.143,726.573 896.022,724.791 897.902,723.008 899.782,721.225 901.661,719.442 903.541,717.659 905.421,715.876 907.3,714.093 909.18,712.31 911.06,710.528 912.939,708.745 914.819,706.962 916.699,705.179 918.578,703.396 920.458,701.613 922.338,699.83 924.217,698.048 926.097,696.265 927.977,694.482 929.856,692.699 931.736,690.916 933.616,689.133 935.495,687.35 937.375,685.567 939.255,683.785 941.134,682.002 943.014,680.219 944.894,678.436 946.773,676.653 948.653,674.87 950.532,673.087 952.412,671.305 954.292,669.522 956.171,667.739 958.051,665.956 959.931,664.173 961.81,662.39 963.69,660.608 965.57,658.825 967.449,657.042 969.329,655.259 971.209,653.476 973.088,651.693 974.968,649.91 976.848,648.128 978.727,646.345 980.607,644.562 982.487,642.779 984.366,640.996 986.246,639.213 988.126,637.431 990.005,635.648 991.885,633.865 993.765,632.082 995.644,630.299 997.524,628.516 999.404,626.733 1001.28,624.951 1003.16,623.168 1005.04,621.385 1006.92,619.602 1008.8,617.819 1010.68,616.036 1012.56,614.254 1014.44,612.471 1016.32,610.688 1018.2,608.905 1020.08,607.122 1021.96,605.34 1023.84,603.557 1025.72,601.774 1027.6,599.991 1029.48,598.208 1031.36,596.425 1033.24,594.643 1035.12,592.86 1037,591.077 1038.88,589.294 1040.76,587.511 1042.64,585.728 1044.52,583.946 1046.39,582.163 1048.27,580.38 1050.15,578.597 1052.03,576.814 1053.91,575.032 1055.79,573.249 1057.67,571.466 1059.55,569.683 1061.43,567.9 1063.31,566.118 1065.19,564.335 1067.07,562.552 1068.95,560.769 1070.83,558.986 1072.71,557.204 1074.59,555.421 1076.47,553.638 1078.35,551.855 1080.23,550.072 1082.11,548.29 1083.99,546.507 1085.87,544.724 1087.75,542.941 1089.63,541.158 1091.51,539.376 1093.39,537.593 1095.27,535.81 1097.15,534.027 1099.03,532.244 1100.9,530.462 1102.78,528.679 1104.66,526.896 1106.54,525.113 1108.42,523.331 1110.3,521.548 1112.18,519.765 1114.06,517.982 1115.94,516.199 1117.82,514.417 1119.7,512.634 1121.58,510.851 1123.46,509.068 1125.34,507.286 1127.22,505.503 1129.1,503.72 1130.98,501.937 1132.86,500.155 1134.74,498.372 1136.62,496.589 1138.5,494.806 1140.38,493.023 1142.26,491.241 1144.14,489.458 1146.02,487.675 1147.9,485.892 1149.78,484.11 1151.66,482.327 1153.54,480.544 1155.42,478.761 1157.29,476.979 1159.17,475.196 1161.05,473.413 1162.93,471.63 1164.81,469.848 1166.69,468.065 1168.57,466.282 1170.45,464.499 1172.33,462.717 1174.21,460.934 1176.09,459.151 1177.97,457.368 1179.85,455.586 1181.73,453.803 1183.61,452.02 1185.49,450.238 1187.37,448.455 1189.25,446.672 1191.13,444.889 1193.01,443.107 1194.89,441.324 1196.77,439.541 1198.65,437.758 1200.53,435.976 1202.41,434.193 1204.29,432.41 1206.17,430.627 1208.05,428.845 1209.93,427.062 1211.8,425.279 1213.68,423.497 1215.56,421.714 1217.44,419.931 1219.32,418.148 1221.2,416.366 1223.08,414.583 1224.96,412.8 1226.84,411.018 1228.72,409.235 1230.6,407.452 1232.48,405.67 1234.36,403.887 1236.24,402.104 1238.12,400.321 1240,398.539 1241.88,396.756 1243.76,394.973 1245.64,393.191 1247.52,391.408 1249.4,389.625 1251.28,387.843 1253.16,386.06 1255.04,384.277 1256.92,382.494 1258.8,380.712 1260.68,378.929 1262.56,377.146 1264.44,375.364 1266.31,373.581 1268.19,371.798 1270.07,370.016 1271.95,368.233 1273.83,366.45 1275.71,364.668 1277.59,362.885 1279.47,361.102 1281.35,359.32 1283.23,357.537 1285.11,355.754 1286.99,353.972 1288.87,352.189 1290.75,350.406 1292.63,348.624 1294.51,346.841 1296.39,345.058 1298.27,343.276 1300.15,341.493 1302.03,339.71 1303.91,337.928 1305.79,336.145 1307.67,334.363 1309.55,332.58 1311.43,330.797 1313.31,329.015 1315.19,327.232 1317.07,325.449 1318.95,323.667 1320.82,321.884 1322.7,320.102 1324.58,318.319 1326.46,316.536 1328.34,314.754 1330.22,312.971 1332.1,311.188 1333.98,309.406 1335.86,307.623 1337.74,305.841 1339.62,304.058 1341.5,302.275 1343.38,300.493 1345.26,298.71 1347.14,296.928 1349.02,295.145 1350.9,293.362 1352.78,291.58 1354.66,289.797 1356.54,288.015 1358.42,286.232 1360.3,284.45 1362.18,282.667 1364.06,280.884 1365.94,279.102 1367.82,277.319 1369.7,275.537 1371.58,273.754 1373.46,271.972 1375.33,270.189 1377.21,268.406 1379.09,266.624 1380.97,264.841 1382.85,263.059 1384.73,261.276 1386.61,259.494 1388.49,257.711 1390.37,255.929 1392.25,254.146 1394.13,252.364 1396.01,250.581 1397.89,248.798 1399.77,247.016 1401.65,245.233 1403.53,243.451 1405.41,241.668 1407.29,239.886 1409.17,238.103 1411.05,236.321 1412.93,234.538 1414.81,232.756 1416.69,230.973 1418.57,229.191 1420.45,227.408 1422.33,225.626 1424.21,223.843 1426.09,222.061 1427.97,220.278 1429.84,218.496 1431.72,216.713 1433.6,214.931 1435.48,213.148 1437.36,211.366 1439.24,209.584 1441.12,207.801 1443,206.019 1444.88,204.236 1446.76,202.454 1448.64,200.671 1450.52,198.889 1452.4,197.106 1454.28,195.324 1456.16,193.542 1458.04,191.759 1459.92,189.977 1461.8,188.194 1463.68,186.412 1465.56,184.63 1467.44,182.847 1469.32,181.065 1471.2,179.282 1473.08,177.5 1474.96,175.718 1476.84,173.935 1478.72,172.153 1480.6,170.371 1482.48,168.588 1484.35,166.806 1486.23,165.024 1488.11,163.241 1489.99,161.459 1491.87,159.677 1493.75,157.894 1495.63,156.112 1497.51,154.33 1499.39,152.547 1501.27,150.765 1503.15,148.983 1505.03,147.201 1506.91,145.418 1508.79,143.636 1510.67,141.854 1512.55,140.072 1514.43,138.289 1516.31,136.507 1518.19,134.725 1520.07,132.943 1521.95,131.161 1523.83,129.378 1525.71,127.596 1527.59,125.814 1529.47,124.032 1531.35,122.25 1533.23,120.468 1535.11,118.686 1536.99,116.904 1538.86,115.122 1540.74,113.34 1542.62,111.558 1544.5,109.776 1546.38,107.994 1548.26,106.212 1550.14,104.43 1552.02,102.648 1553.9,100.866 1555.78,99.0848 1557.66,97.3032 1559.54,95.5217 1561.42,93.7402 1563.3,91.9589 1565.18,90.1779 1567.06,88.3976 1568.94,86.6184 1570.82,84.8486 1572.7,1338.13 1574.58,1338.13 1576.46,1338.12 1578.34,1338.12 1580.22,1338.12 1582.1,1338.11 1583.98,1338.11 1585.86,1338.11 1587.74,1338.1 1589.62,1338.1 1591.5,1338.1 1593.37,1338.09 1595.25,1338.09 1597.13,1338.08 1599.01,1338.08 1600.89,1338.08 1602.77,1338.07 1604.65,1338.07 1606.53,1338.06 1608.41,1338.06 1610.29,1338.05 1612.17,1338.05 1614.05,1338.05 1615.93,1338.04 1617.81,1338.04 1619.69,1338.03 1621.57,1338.03 1623.45,1338.02 1625.33,1338.02 1627.21,1338.01 1629.09,1338.01 1630.97,1338 1632.85,1338 1634.73,1337.99 1636.61,1337.99 1638.49,1337.98 1640.37,1337.98 1642.25,1337.97 1644.13,1337.96 1646.01,1337.96 1647.88,1337.95 1649.76,1337.95 1651.64,1337.94 1653.52,1337.94 1655.4,1337.93 1657.28,1337.92 1659.16,1337.92 1661.04,1337.91 1662.92,1337.9 1664.8,1337.9 1666.68,1337.89 1668.56,1337.89 1670.44,1337.88 1672.32,1337.87 1674.2,1337.87 1676.08,1337.86 1677.96,1337.85 1679.84,1337.84 1681.72,1337.84 1683.6,1337.83 1685.48,1337.82 1687.36,1337.82 1689.24,1337.81 1691.12,1337.8 1693,1337.79 1694.88,1337.79 1696.76,1337.78 1698.64,1337.77 1700.52,1337.76 1702.39,1337.75 1704.27,1337.75 1706.15,1337.74 1708.03,1337.73 1709.91,1337.72 1711.79,1337.71 1713.67,1337.71 1715.55,1337.7 1717.43,1337.69 1719.31,1337.68 1721.19,1337.67 1723.07,1337.66 1724.95,1337.65 1726.83,1337.65 1728.71,1337.64 1730.59,1337.63 1732.47,1337.62 1734.35,1337.61 1736.23,1337.6 1738.11,1337.59 1739.99,1337.58 1741.87,1337.57 1743.75,1337.56 1745.63,1337.55 1747.51,1337.54 1749.39,1337.53 1751.27,1337.52 1753.15,1337.51 1755.03,1337.5 1756.9,1337.49 1758.78,1337.48 1760.66,1337.47 1762.54,1337.46 1764.42,1337.45 1766.3,1337.44 1768.18,1337.43 1770.06,1337.42 1771.94,1337.41 1773.82,1337.4 1775.7,1337.39 1777.58,1337.38 1779.46,1337.37 1781.34,1337.36 1783.22,1337.35 1785.1,1337.34 1786.98,1337.33 1788.86,1337.32 1790.74,1337.31 1792.62,1337.3 1794.5,1337.28 1796.38,1337.27 1798.26,1337.26 1800.14,1337.25 1802.02,1337.24 1803.9,1337.23 1805.78,1337.22 1807.66,1337.21 1809.54,1337.2 1811.41,1337.19 1813.29,1337.17 1815.17,1337.16 1817.05,1337.15 1818.93,1337.14 1820.81,1337.13 1822.69,1337.12 1824.57,1337.11 1826.45,1337.1 1828.33,1337.08 1830.21,1337.07 1832.09,1337.06 1833.97,1337.05 1835.85,1337.04 1837.73,1337.03 1839.61,1337.02 1841.49,1337.01 1843.37,1336.99 1845.25,1336.98 1847.13,1336.97 1849.01,1336.96 1850.89,1336.95 1852.77,1336.94 1854.65,1336.93 1856.53,1336.92 1858.41,1336.91 1860.29,1336.9 1862.17,1336.88 1864.05,1336.87 1865.92,1336.86 1867.8,1336.85 1869.68,1336.84 1871.56,1336.83 1873.44,1336.82 1875.32,1336.81 1877.2,1336.8 1879.08,1336.79 1880.96,1336.78 1882.84,1336.77 1884.72,1336.76 1886.6,1336.74 1888.48,1336.73 1890.36,1336.72 1892.24,1336.71 1894.12,1336.7 1896,1336.69 1897.88,1336.68 1899.76,1336.67 1901.64,1336.66 1903.52,1336.65 1905.4,1336.64 1907.28,1336.63 1909.16,1336.62 1911.04,1336.61 1912.92,1336.6 1914.8,1336.59 1916.68,1336.59 1918.56,1336.58 1920.44,1336.57 1922.31,1336.56 1924.19,1336.55 1926.07,1336.54 1927.95,1336.53 1929.83,1336.52 1931.71,1336.51 1933.59,1336.5 1935.47,1336.49 1937.35,1336.48 1939.23,1336.48 1941.11,1336.47 1942.99,1336.46 1944.87,1336.45 1946.75,1336.44 1948.63,1336.43 1950.51,1336.43 1952.39,1336.42 1954.27,1336.41 1956.15,1336.4 1958.03,1336.39 1959.91,1336.39 1961.79,1336.38 1963.67,1336.37 1965.55,1336.36 1967.43,1336.36 1969.31,1336.35 1971.19,1336.34 1973.07,1336.33 1974.95,1336.33 1976.82,1336.32 1978.7,1336.31 1980.58,1336.31 1982.46,1336.3 1984.34,1336.29 1986.22,1336.28 1988.1,1336.28 1989.98,1336.27 1991.86,1336.26 1993.74,1336.26 1995.62,1336.25 1997.5,1336.25 1999.38,1336.24 2001.26,1336.23 2003.14,1336.23 2005.02,1336.22 2006.9,1336.22 2008.78,1336.21 2010.66,1336.2 2012.54,1336.2 2014.42,1336.19 2016.3,1336.19 2018.18,1336.18 2020.06,1336.18 2021.94,1336.17 2023.82,1336.17 2025.7,1336.16 2027.58,1336.16 2029.46,1336.15 2031.33,1336.15 2033.21,1336.14 2035.09,1336.14 2036.97,1336.13 2038.85,1336.13 2040.73,1336.12 2042.61,1336.12 2044.49,1336.11 2046.37,1336.11 2048.25,1336.1 2050.13,1336.1 2052.01,1336.1 2053.89,1336.09 2055.77,1336.09 2057.65,1336.08 2059.53,1336.08 2061.41,1336.07 2063.29,1336.07 2065.17,1336.07 2067.05,1336.06 2068.93,1336.06 2070.81,1336.06 2072.69,1336.05 2074.57,1336.05 2076.45,1336.05 2078.33,1336.04 2080.21,1336.04 2082.09,1336.03 2083.97,1336.03 2085.84,1336.03 2087.72,1336.02 2089.6,1336.02 2091.48,1336.02 2093.36,1336.02 2095.24,1336.01 2097.12,1336.01 2099,1336.01 2100.88,1336 2102.76,1336 2104.64,1336 2106.52,1336 2108.4,1335.99 2110.28,1335.99 2112.16,1335.99 2114.04,1335.98 2115.92,1335.98 2117.8,1335.98 2119.68,1335.98 2121.56,1335.97 2123.44,1335.97 2125.32,1335.97 2127.2,1335.97 2129.08,1335.97 2130.96,1335.96 2132.84,1335.96 2134.72,1335.96 2136.6,1335.96 2138.48,1335.95 2140.35,1335.95 2142.23,1335.95 2144.11,1335.95 2145.99,1335.95 2147.87,1335.94 2149.75,1335.94 2151.63,1335.94 2153.51,1335.94 2155.39,1335.94 2157.27,1335.94 2159.15,1335.93 2161.03,1335.93 2162.91,1335.93 2164.79,1335.93 2166.67,1335.93 2168.55,1335.93 2170.43,1335.92 2172.31,1335.92 2174.19,1335.92 2176.07,1335.92 2177.95,1335.92 2179.83,1335.92 2181.71,1335.92 2183.59,1335.91 2185.47,1335.91 2187.35,1335.91 2189.23,1335.91 2191.11,1335.91 2192.99,1335.91 2194.86,1335.91 2196.74,1335.9 2198.62,1335.9 2200.5,1335.9 2202.38,1335.9 2204.26,1335.9 2206.14,1335.9 2208.02,1335.9 2209.9,1335.9 2211.78,1335.9 2213.66,1335.89 2215.54,1335.89 2217.42,1335.89 2219.3,1335.89 2221.18,1335.89 2223.06,1335.89 2224.94,1335.89 2226.82,1335.89 2228.7,1335.89 2230.58,1335.89 2232.46,1335.88 2234.34,1335.88 2236.22,1335.88 2238.1,1335.88 2239.98,1335.88 2241.86,1335.88 2243.74,1335.88 2245.62,1335.88 2247.5,1335.88 2249.37,1335.88 2251.25,1335.88 2253.13,1335.88 2255.01,1335.88 2256.89,1335.87 2258.77,1335.87 2260.65,1335.87 2262.53,1335.87 2264.41,1335.87 2266.29,1335.87 2268.17,1335.87 2270.05,1335.87 2271.93,1335.87 2273.81,1335.87 2275.69,1335.87 2277.57,1335.87 2279.45,1335.87 2281.33,1335.87 2283.21,1335.87 2285.09,1335.87 2286.97,1335.87 2288.85,1335.86 2290.73,1335.86 2292.61,1335.86 2294.49,1335.86 2296.37,1335.86 2298.25,1335.86 2300.13,1335.86 2302.01,1335.86 2303.88,1335.86 2305.76,1335.86 2307.64,1335.86 2309.52,1335.86 2311.4,1335.86 2313.28,1335.86 2315.16,1335.86 2317.04,1335.86 2318.92,1335.86 2320.8,1335.86 2322.68,1335.86 2324.56,1335.86 2326.44,1335.86 2328.32,1335.86 2330.2,1335.86 2332.08,1335.85 2333.96,1335.85 2335.84,1335.85 2337.72,1335.85 2339.6,1335.85 2341.48,1335.85 2343.36,1335.85 2345.24,1335.85 2347.12,1335.85 2349,1335.85 2350.88,1335.85 2352.76,1335.85 "/>
<path clip-path="url(#clip590)" d="M2042.73 247.054 L2282.64 247.054 L2282.64 91.5338 L2042.73 91.5338  Z" fill="#ffffff" fill-rule="evenodd" fill-opacity="1"/>
<polyline clip-path="url(#clip590)" style="stroke:#000000; stroke-linecap:round; stroke-linejoin:round; stroke-width:4; stroke-opacity:1; fill:none" points="2042.73,247.054 2282.64,247.054 2282.64,91.5338 2042.73,91.5338 2042.73,247.054 "/>
<polyline clip-path="url(#clip590)" style="stroke:#009af9; stroke-linecap:round; stroke-linejoin:round; stroke-width:8; stroke-opacity:1; fill:none" points="2066.1,143.374 2206.32,143.374 "/>
<path clip-path="url(#clip590)" d="M2231.27 126.094 L2236.29 126.094 L2244.88 138.941 L2253.51 126.094 L2258.53 126.094 L2247.42 142.691 L2259.27 160.654 L2254.25 160.654 L2244.53 145.955 L2234.74 160.654 L2229.69 160.654 L2242.03 142.205 L2231.27 126.094 Z" fill="#000000" fill-rule="nonzero" fill-opacity="1" /><polyline clip-path="url(#clip590)" style="stroke:#e26f46; stroke-linecap:round; stroke-linejoin:round; stroke-width:8; stroke-opacity:1; fill:none" points="2066.1,195.214 2206.32,195.214 "/>
<path clip-path="url(#clip590)" d="M2229.69 177.934 L2234.71 177.934 L2244.3 192.147 L2253.81 177.934 L2258.83 177.934 L2246.61 196.036 L2246.61 212.494 L2241.91 212.494 L2241.91 196.036 L2229.69 177.934 Z" fill="#000000" fill-rule="nonzero" fill-opacity="1" /></svg>
