<?xml version="1.0" encoding="utf-8"?>
<svg xmlns="http://www.w3.org/2000/svg" xmlns:xlink="http://www.w3.org/1999/xlink" width="800" height="400" viewBox="0 0 3200 1600">
<defs>
  <clipPath id="clip870">
    <rect x="0" y="0" width="3200" height="1600"/>
  </clipPath>
</defs>
<path clip-path="url(#clip870)" d="M0 1600 L3200 1600 L3200 0 L0 0  Z" fill="#ffffff" fill-rule="evenodd" fill-opacity="1"/>
<defs>
  <clipPath id="clip871">
    <rect x="247" y="47" width="2906" height="1350"/>
  </clipPath>
</defs>
<path clip-path="url(#clip870)" d="M247.328 1396.46 L3152.76 1396.46 L3152.76 47.2441 L247.328 47.2441  Z" fill="#ffffff" fill-rule="evenodd" fill-opacity="1"/>
<polyline clip-path="url(#clip870)" style="stroke:#000000; stroke-linecap:round; stroke-linejoin:round; stroke-width:4; stroke-opacity:1; fill:none" points="247.328,1396.46 3152.76,1396.46 "/>
<polyline clip-path="url(#clip870)" style="stroke:#000000; stroke-linecap:round; stroke-linejoin:round; stroke-width:4; stroke-opacity:1; fill:none" points="247.328,47.2441 3152.76,47.2441 "/>
<polyline clip-path="url(#clip870)" style="stroke:#000000; stroke-linecap:round; stroke-linejoin:round; stroke-width:4; stroke-opacity:1; fill:none" points="958.256,1396.46 958.256,1377.56 "/>
<polyline clip-path="url(#clip870)" style="stroke:#000000; stroke-linecap:round; stroke-linejoin:round; stroke-width:4; stroke-opacity:1; fill:none" points="1670.26,1396.46 1670.26,1377.56 "/>
<polyline clip-path="url(#clip870)" style="stroke:#000000; stroke-linecap:round; stroke-linejoin:round; stroke-width:4; stroke-opacity:1; fill:none" points="2382.26,1396.46 2382.26,1377.56 "/>
<polyline clip-path="url(#clip870)" style="stroke:#000000; stroke-linecap:round; stroke-linejoin:round; stroke-width:4; stroke-opacity:1; fill:none" points="3094.27,1396.46 3094.27,1377.56 "/>
<polyline clip-path="url(#clip870)" style="stroke:#000000; stroke-linecap:round; stroke-linejoin:round; stroke-width:4; stroke-opacity:1; fill:none" points="958.256,47.2441 958.256,66.1417 "/>
<polyline clip-path="url(#clip870)" style="stroke:#000000; stroke-linecap:round; stroke-linejoin:round; stroke-width:4; stroke-opacity:1; fill:none" points="1670.26,47.2441 1670.26,66.1417 "/>
<polyline clip-path="url(#clip870)" style="stroke:#000000; stroke-linecap:round; stroke-linejoin:round; stroke-width:4; stroke-opacity:1; fill:none" points="2382.26,47.2441 2382.26,66.1417 "/>
<polyline clip-path="url(#clip870)" style="stroke:#000000; stroke-linecap:round; stroke-linejoin:round; stroke-width:4; stroke-opacity:1; fill:none" points="3094.27,47.2441 3094.27,66.1417 "/>
<path clip-path="url(#clip870)" d="M948.533 1430.7 L966.89 1430.7 L966.89 1434.63 L952.816 1434.63 L952.816 1443.1 Q953.834 1442.76 954.853 1442.59 Q955.871 1442.41 956.89 1442.41 Q962.677 1442.41 966.056 1445.58 Q969.436 1448.75 969.436 1454.17 Q969.436 1459.75 965.964 1462.85 Q962.492 1465.93 956.172 1465.93 Q953.996 1465.93 951.728 1465.56 Q949.483 1465.19 947.075 1464.45 L947.075 1459.75 Q949.158 1460.88 951.381 1461.44 Q953.603 1461.99 956.08 1461.99 Q960.084 1461.99 962.422 1459.89 Q964.76 1457.78 964.76 1454.17 Q964.76 1450.56 962.422 1448.45 Q960.084 1446.34 956.08 1446.34 Q954.205 1446.34 952.33 1446.76 Q950.478 1447.18 948.533 1448.06 L948.533 1430.7 Z" fill="#000000" fill-rule="nonzero" fill-opacity="1" /><path clip-path="url(#clip870)" d="M1644.95 1461.32 L1652.59 1461.32 L1652.59 1434.95 L1644.28 1436.62 L1644.28 1432.36 L1652.54 1430.7 L1657.22 1430.7 L1657.22 1461.32 L1664.85 1461.32 L1664.85 1465.26 L1644.95 1465.26 L1644.95 1461.32 Z" fill="#000000" fill-rule="nonzero" fill-opacity="1" /><path clip-path="url(#clip870)" d="M1684.3 1433.77 Q1680.69 1433.77 1678.86 1437.34 Q1677.05 1440.88 1677.05 1448.01 Q1677.05 1455.12 1678.86 1458.68 Q1680.69 1462.22 1684.3 1462.22 Q1687.93 1462.22 1689.74 1458.68 Q1691.57 1455.12 1691.57 1448.01 Q1691.57 1440.88 1689.74 1437.34 Q1687.93 1433.77 1684.3 1433.77 M1684.3 1430.07 Q1690.11 1430.07 1693.16 1434.68 Q1696.24 1439.26 1696.24 1448.01 Q1696.24 1456.74 1693.16 1461.34 Q1690.11 1465.93 1684.3 1465.93 Q1678.49 1465.93 1675.41 1461.34 Q1672.35 1456.74 1672.35 1448.01 Q1672.35 1439.26 1675.41 1434.68 Q1678.49 1430.07 1684.3 1430.07 Z" fill="#000000" fill-rule="nonzero" fill-opacity="1" /><path clip-path="url(#clip870)" d="M2357.45 1461.32 L2365.09 1461.32 L2365.09 1434.95 L2356.78 1436.62 L2356.78 1432.36 L2365.04 1430.7 L2369.72 1430.7 L2369.72 1461.32 L2377.36 1461.32 L2377.36 1465.26 L2357.45 1465.26 L2357.45 1461.32 Z" fill="#000000" fill-rule="nonzero" fill-opacity="1" /><path clip-path="url(#clip870)" d="M2386.85 1430.7 L2405.2 1430.7 L2405.2 1434.63 L2391.13 1434.63 L2391.13 1443.1 Q2392.15 1442.76 2393.17 1442.59 Q2394.19 1442.41 2395.2 1442.41 Q2400.99 1442.41 2404.37 1445.58 Q2407.75 1448.75 2407.75 1454.17 Q2407.75 1459.75 2404.28 1462.85 Q2400.81 1465.93 2394.49 1465.93 Q2392.31 1465.93 2390.04 1465.56 Q2387.8 1465.19 2385.39 1464.45 L2385.39 1459.75 Q2387.47 1460.88 2389.69 1461.44 Q2391.92 1461.99 2394.39 1461.99 Q2398.4 1461.99 2400.74 1459.89 Q2403.07 1457.78 2403.07 1454.17 Q2403.07 1450.56 2400.74 1448.45 Q2398.4 1446.34 2394.39 1446.34 Q2392.52 1446.34 2390.64 1446.76 Q2388.79 1447.18 2386.85 1448.06 L2386.85 1430.7 Z" fill="#000000" fill-rule="nonzero" fill-opacity="1" /><path clip-path="url(#clip870)" d="M3073.04 1461.32 L3089.36 1461.32 L3089.36 1465.26 L3067.42 1465.26 L3067.42 1461.32 Q3070.08 1458.57 3074.66 1453.94 Q3079.27 1449.28 3080.45 1447.94 Q3082.69 1445.42 3083.57 1443.68 Q3084.48 1441.92 3084.48 1440.23 Q3084.48 1437.48 3082.53 1435.74 Q3080.61 1434.01 3077.51 1434.01 Q3075.31 1434.01 3072.86 1434.77 Q3070.43 1435.53 3067.65 1437.08 L3067.65 1432.36 Q3070.47 1431.23 3072.93 1430.65 Q3075.38 1430.07 3077.42 1430.07 Q3082.79 1430.07 3085.98 1432.76 Q3089.18 1435.44 3089.18 1439.93 Q3089.18 1442.06 3088.37 1443.98 Q3087.58 1445.88 3085.47 1448.47 Q3084.89 1449.14 3081.79 1452.36 Q3078.69 1455.56 3073.04 1461.32 Z" fill="#000000" fill-rule="nonzero" fill-opacity="1" /><path clip-path="url(#clip870)" d="M3109.18 1433.77 Q3105.57 1433.77 3103.74 1437.34 Q3101.93 1440.88 3101.93 1448.01 Q3101.93 1455.12 3103.74 1458.68 Q3105.57 1462.22 3109.18 1462.22 Q3112.81 1462.22 3114.62 1458.68 Q3116.44 1455.12 3116.44 1448.01 Q3116.44 1440.88 3114.62 1437.34 Q3112.81 1433.77 3109.18 1433.77 M3109.18 1430.07 Q3114.99 1430.07 3118.04 1434.68 Q3121.12 1439.26 3121.12 1448.01 Q3121.12 1456.74 3118.04 1461.34 Q3114.99 1465.93 3109.18 1465.93 Q3103.37 1465.93 3100.29 1461.34 Q3097.23 1456.74 3097.23 1448.01 Q3097.23 1439.26 3100.29 1434.68 Q3103.37 1430.07 3109.18 1430.07 Z" fill="#000000" fill-rule="nonzero" fill-opacity="1" /><path clip-path="url(#clip870)" d="M1682.7 1517.67 L1688.9 1517.67 L1700.04 1547.59 L1711.18 1517.67 L1717.39 1517.67 L1704.02 1553.32 L1696.06 1553.32 L1682.7 1517.67 Z" fill="#000000" fill-rule="nonzero" fill-opacity="1" /><polyline clip-path="url(#clip870)" style="stroke:#000000; stroke-linecap:round; stroke-linejoin:round; stroke-width:4; stroke-opacity:1; fill:none" points="247.328,1396.46 247.328,47.2441 "/>
<polyline clip-path="url(#clip870)" style="stroke:#000000; stroke-linecap:round; stroke-linejoin:round; stroke-width:4; stroke-opacity:1; fill:none" points="3152.76,1396.46 3152.76,47.2441 "/>
<polyline clip-path="url(#clip870)" style="stroke:#000000; stroke-linecap:round; stroke-linejoin:round; stroke-width:4; stroke-opacity:1; fill:none" points="247.328,1147.01 266.225,1147.01 "/>
<polyline clip-path="url(#clip870)" style="stroke:#000000; stroke-linecap:round; stroke-linejoin:round; stroke-width:4; stroke-opacity:1; fill:none" points="247.328,897.062 266.225,897.062 "/>
<polyline clip-path="url(#clip870)" style="stroke:#000000; stroke-linecap:round; stroke-linejoin:round; stroke-width:4; stroke-opacity:1; fill:none" points="247.328,647.116 266.225,647.116 "/>
<polyline clip-path="url(#clip870)" style="stroke:#000000; stroke-linecap:round; stroke-linejoin:round; stroke-width:4; stroke-opacity:1; fill:none" points="247.328,397.169 266.225,397.169 "/>
<polyline clip-path="url(#clip870)" style="stroke:#000000; stroke-linecap:round; stroke-linejoin:round; stroke-width:4; stroke-opacity:1; fill:none" points="247.328,147.223 266.225,147.223 "/>
<polyline clip-path="url(#clip870)" style="stroke:#000000; stroke-linecap:round; stroke-linejoin:round; stroke-width:4; stroke-opacity:1; fill:none" points="3152.76,1147.01 3133.86,1147.01 "/>
<polyline clip-path="url(#clip870)" style="stroke:#000000; stroke-linecap:round; stroke-linejoin:round; stroke-width:4; stroke-opacity:1; fill:none" points="3152.76,897.062 3133.86,897.062 "/>
<polyline clip-path="url(#clip870)" style="stroke:#000000; stroke-linecap:round; stroke-linejoin:round; stroke-width:4; stroke-opacity:1; fill:none" points="3152.76,647.116 3133.86,647.116 "/>
<polyline clip-path="url(#clip870)" style="stroke:#000000; stroke-linecap:round; stroke-linejoin:round; stroke-width:4; stroke-opacity:1; fill:none" points="3152.76,397.169 3133.86,397.169 "/>
<polyline clip-path="url(#clip870)" style="stroke:#000000; stroke-linecap:round; stroke-linejoin:round; stroke-width:4; stroke-opacity:1; fill:none" points="3152.76,147.223 3133.86,147.223 "/>
<path clip-path="url(#clip870)" d="M178.425 1129.73 L196.781 1129.73 L196.781 1133.66 L182.707 1133.66 L182.707 1142.14 Q183.726 1141.79 184.744 1141.63 Q185.763 1141.44 186.781 1141.44 Q192.568 1141.44 195.948 1144.61 Q199.328 1147.78 199.328 1153.2 Q199.328 1158.78 195.855 1161.88 Q192.383 1164.96 186.064 1164.96 Q183.888 1164.96 181.619 1164.59 Q179.374 1164.22 176.967 1163.48 L176.967 1158.78 Q179.05 1159.91 181.272 1160.47 Q183.494 1161.03 185.971 1161.03 Q189.976 1161.03 192.314 1158.92 Q194.652 1156.81 194.652 1153.2 Q194.652 1149.59 192.314 1147.48 Q189.976 1145.38 185.971 1145.38 Q184.096 1145.38 182.221 1145.79 Q180.369 1146.21 178.425 1147.09 L178.425 1129.73 Z" fill="#000000" fill-rule="nonzero" fill-opacity="1" /><path clip-path="url(#clip870)" d="M148.032 910.407 L155.67 910.407 L155.67 884.042 L147.36 885.708 L147.36 881.449 L155.624 879.782 L160.3 879.782 L160.3 910.407 L167.939 910.407 L167.939 914.342 L148.032 914.342 L148.032 910.407 Z" fill="#000000" fill-rule="nonzero" fill-opacity="1" /><path clip-path="url(#clip870)" d="M187.383 882.861 Q183.772 882.861 181.944 886.426 Q180.138 889.968 180.138 897.097 Q180.138 904.204 181.944 907.768 Q183.772 911.31 187.383 911.31 Q191.018 911.31 192.823 907.768 Q194.652 904.204 194.652 897.097 Q194.652 889.968 192.823 886.426 Q191.018 882.861 187.383 882.861 M187.383 879.157 Q193.193 879.157 196.249 883.764 Q199.328 888.347 199.328 897.097 Q199.328 905.824 196.249 910.43 Q193.193 915.014 187.383 915.014 Q181.573 915.014 178.494 910.43 Q175.439 905.824 175.439 897.097 Q175.439 888.347 178.494 883.764 Q181.573 879.157 187.383 879.157 Z" fill="#000000" fill-rule="nonzero" fill-opacity="1" /><path clip-path="url(#clip870)" d="M149.027 660.461 L156.666 660.461 L156.666 634.095 L148.356 635.762 L148.356 631.503 L156.62 629.836 L161.295 629.836 L161.295 660.461 L168.934 660.461 L168.934 664.396 L149.027 664.396 L149.027 660.461 Z" fill="#000000" fill-rule="nonzero" fill-opacity="1" /><path clip-path="url(#clip870)" d="M178.425 629.836 L196.781 629.836 L196.781 633.771 L182.707 633.771 L182.707 642.243 Q183.726 641.896 184.744 641.734 Q185.763 641.549 186.781 641.549 Q192.568 641.549 195.948 644.72 Q199.328 647.891 199.328 653.308 Q199.328 658.887 195.855 661.988 Q192.383 665.067 186.064 665.067 Q183.888 665.067 181.619 664.697 Q179.374 664.326 176.967 663.586 L176.967 658.887 Q179.05 660.021 181.272 660.576 Q183.494 661.132 185.971 661.132 Q189.976 661.132 192.314 659.026 Q194.652 656.919 194.652 653.308 Q194.652 649.697 192.314 647.59 Q189.976 645.484 185.971 645.484 Q184.096 645.484 182.221 645.901 Q180.369 646.317 178.425 647.197 L178.425 629.836 Z" fill="#000000" fill-rule="nonzero" fill-opacity="1" /><path clip-path="url(#clip870)" d="M151.249 410.514 L167.569 410.514 L167.569 414.449 L145.624 414.449 L145.624 410.514 Q148.286 407.76 152.87 403.13 Q157.476 398.477 158.657 397.135 Q160.902 394.611 161.782 392.875 Q162.684 391.116 162.684 389.426 Q162.684 386.672 160.74 384.936 Q158.819 383.199 155.717 383.199 Q153.518 383.199 151.064 383.963 Q148.633 384.727 145.856 386.278 L145.856 381.556 Q148.68 380.422 151.133 379.843 Q153.587 379.264 155.624 379.264 Q160.995 379.264 164.189 381.949 Q167.383 384.635 167.383 389.125 Q167.383 391.255 166.573 393.176 Q165.786 395.074 163.68 397.667 Q163.101 398.338 159.999 401.556 Q156.897 404.75 151.249 410.514 Z" fill="#000000" fill-rule="nonzero" fill-opacity="1" /><path clip-path="url(#clip870)" d="M187.383 382.968 Q183.772 382.968 181.944 386.533 Q180.138 390.074 180.138 397.204 Q180.138 404.31 181.944 407.875 Q183.772 411.417 187.383 411.417 Q191.018 411.417 192.823 407.875 Q194.652 404.31 194.652 397.204 Q194.652 390.074 192.823 386.533 Q191.018 382.968 187.383 382.968 M187.383 379.264 Q193.193 379.264 196.249 383.871 Q199.328 388.454 199.328 397.204 Q199.328 405.931 196.249 410.537 Q193.193 415.121 187.383 415.121 Q181.573 415.121 178.494 410.537 Q175.439 405.931 175.439 397.204 Q175.439 388.454 178.494 383.871 Q181.573 379.264 187.383 379.264 Z" fill="#000000" fill-rule="nonzero" fill-opacity="1" /><path clip-path="url(#clip870)" d="M152.245 160.568 L168.564 160.568 L168.564 164.503 L146.62 164.503 L146.62 160.568 Q149.282 157.813 153.865 153.183 Q158.471 148.531 159.652 147.188 Q161.897 144.665 162.777 142.929 Q163.68 141.17 163.68 139.48 Q163.68 136.725 161.735 134.989 Q159.814 133.253 156.712 133.253 Q154.513 133.253 152.059 134.017 Q149.629 134.781 146.851 136.332 L146.851 131.609 Q149.675 130.475 152.129 129.896 Q154.583 129.318 156.62 129.318 Q161.99 129.318 165.184 132.003 Q168.379 134.688 168.379 139.179 Q168.379 141.308 167.569 143.23 Q166.782 145.128 164.675 147.72 Q164.096 148.392 160.995 151.609 Q157.893 154.804 152.245 160.568 Z" fill="#000000" fill-rule="nonzero" fill-opacity="1" /><path clip-path="url(#clip870)" d="M178.425 129.943 L196.781 129.943 L196.781 133.878 L182.707 133.878 L182.707 142.35 Q183.726 142.003 184.744 141.841 Q185.763 141.656 186.781 141.656 Q192.568 141.656 195.948 144.827 Q199.328 147.998 199.328 153.415 Q199.328 158.993 195.855 162.095 Q192.383 165.174 186.064 165.174 Q183.888 165.174 181.619 164.804 Q179.374 164.433 176.967 163.693 L176.967 158.993 Q179.05 160.128 181.272 160.683 Q183.494 161.239 185.971 161.239 Q189.976 161.239 192.314 159.132 Q194.652 157.026 194.652 153.415 Q194.652 149.804 192.314 147.697 Q189.976 145.591 185.971 145.591 Q184.096 145.591 182.221 146.007 Q180.369 146.424 178.425 147.304 L178.425 129.943 Z" fill="#000000" fill-rule="nonzero" fill-opacity="1" /><path clip-path="url(#clip870)" d="M35.8483 740.708 L35.8483 734.279 L55.9321 734.279 L35.8483 712.954 L35.8483 704.678 L58.0009 728.263 L83.3683 702.992 L83.3683 711.458 L60.4835 734.279 L83.3683 734.279 L83.3683 740.708 L35.8483 740.708 Z" fill="#000000" fill-rule="nonzero" fill-opacity="1" /><polyline clip-path="url(#clip871)" style="stroke:#009af9; stroke-linecap:round; stroke-linejoin:round; stroke-width:24; stroke-opacity:1; fill:none" points="247.328,1396.46 251.083,1394.71 261.672,1389.79 272.262,1384.88 282.852,1379.96 293.441,1375.04 304.031,1370.12 314.62,1365.21 325.21,1360.29 335.8,1355.37 346.389,1350.45 356.979,1345.54 367.568,1340.62 378.158,1335.7 388.748,1330.78 399.337,1325.87 409.927,1320.95 420.516,1316.03 431.106,1311.11 441.696,1306.2 452.285,1301.28 462.875,1296.36 473.465,1291.44 484.054,1286.53 494.644,1281.61 505.233,1276.69 515.823,1271.77 526.413,1266.86 537.002,1261.94 547.592,1257.02 558.181,1252.1 568.771,1247.19 579.361,1242.27 589.95,1237.35 600.54,1232.43 611.129,1227.51 621.719,1222.6 632.309,1217.68 642.898,1212.76 653.488,1207.84 664.078,1202.93 674.667,1198.01 685.257,1193.09 695.846,1188.17 706.436,1183.26 717.026,1178.34 727.615,1173.42 738.205,1168.5 748.794,1163.59 759.384,1158.67 769.974,1153.75 780.563,1148.83 791.153,1143.92 801.742,1139 812.332,1134.08 822.922,1129.16 833.511,1124.25 844.101,1119.33 854.691,1114.41 865.28,1109.49 875.87,1104.58 886.459,1099.66 897.049,1094.74 907.639,1089.82 918.228,1084.91 928.818,1079.99 939.407,1075.07 949.997,1070.15 960.587,1065.24 971.176,1060.32 981.766,1055.4 992.355,1050.48 1002.95,1045.57 1013.53,1040.65 1024.12,1035.73 1034.71,1030.81 1045.3,1025.89 1055.89,1020.98 1066.48,1016.06 1077.07,1011.14 1087.66,1006.22 1098.25,1001.31 1108.84,996.389 1119.43,991.472 1130.02,986.554 1140.61,981.637 1151.2,976.719 1161.79,971.802 1172.38,966.884 1182.97,961.966 1193.56,957.049 1204.15,952.131 1214.74,947.214 1225.33,942.296 1235.92,937.379 1246.51,932.461 1257.1,927.543 1267.69,922.626 1278.27,917.708 1288.86,912.791 1299.45,907.873 1310.04,902.956 1320.63,898.038 1331.22,893.121 1341.81,888.203 1352.4,883.285 1362.99,878.368 1373.58,873.45 1384.17,868.533 1394.76,863.615 1405.35,858.698 1415.94,853.78 1426.53,848.862 1437.12,843.945 1447.71,839.027 1458.3,834.11 1468.89,829.192 1479.48,824.275 1490.07,819.357 1500.66,814.44 1511.25,809.522 1521.84,804.604 1532.43,799.687 1543.02,794.769 1553.6,789.852 1564.19,784.934 1574.78,780.017 1585.37,775.099 1595.96,770.181 1606.55,765.264 1617.14,760.346 1627.73,755.429 1638.32,750.511 1648.91,745.594 1659.5,740.676 1670.09,735.759 1680.68,730.841 1691.27,725.923 1701.86,721.006 1712.45,716.088 1723.04,711.171 1733.63,706.253 1744.22,701.336 1754.81,696.418 1765.4,691.5 1775.99,686.583 1786.58,681.665 1797.17,676.748 1807.76,671.83 1818.35,666.913 1828.93,661.995 1839.52,657.078 1847.15,653.536 1852.37,651.111 1855.95,649.452 1858.33,648.345 1859.92,647.608 1860.98,647.116 1862.03,646.624 1863.62,645.887 1866.01,644.78 1869.49,643.164 1874.57,640.803 1882.2,637.261 1892.79,632.343 1903.38,627.426 1913.97,622.508 1924.56,617.591 1935.15,612.673 1945.74,607.756 1956.33,602.838 1966.91,597.92 1977.5,593.003 1988.09,588.085 1998.68,583.168 2009.27,578.25 2019.86,573.333 2030.45,568.415 2041.04,563.498 2051.63,558.58 2062.22,553.662 2072.81,548.745 2083.4,543.827 2093.99,538.91 2104.58,533.992 2115.17,529.075 2125.76,524.157 2136.35,519.239 2146.94,514.322 2157.53,509.404 2168.12,504.487 2178.71,499.569 2189.3,494.652 2199.89,489.734 2210.48,484.817 2221.07,479.899 2231.65,474.981 2242.24,470.064 2252.83,465.146 2263.42,460.229 2274.01,455.311 2284.6,450.394 2295.19,445.476 2305.78,440.558 2316.37,435.641 2326.96,430.723 2337.55,425.806 2348.14,420.888 2358.73,415.971 2369.32,411.053 2379.91,406.136 2390.5,401.218 2401.09,396.3 2411.68,391.383 2422.27,386.465 2432.86,381.548 2443.45,376.63 2454.04,371.713 2464.63,366.795 2475.22,361.877 2485.81,356.96 2496.4,352.042 2506.98,347.125 2517.57,342.207 2528.16,337.29 2538.75,332.372 2549.34,327.455 2559.93,322.537 2570.52,317.619 2581.11,312.702 2591.7,307.784 2602.29,302.867 2612.88,297.949 2623.47,293.032 2634.06,288.114 2644.65,283.196 2655.24,278.279 2665.83,273.361 2676.42,268.444 2687.01,263.526 2697.6,258.609 2708.19,253.691 2718.78,248.774 2729.37,243.856 2739.96,238.938 2750.55,234.021 2761.14,229.103 2771.73,224.186 2782.31,219.268 2792.9,214.351 2803.49,209.433 2814.08,204.515 2824.67,199.598 2835.26,194.68 2845.85,189.763 2856.44,184.845 2867.03,179.928 2877.62,175.01 2888.21,170.092 2898.8,165.175 2909.39,160.257 2919.98,155.34 2930.57,150.422 2941.16,145.505 2951.75,140.587 2962.34,135.67 2972.93,130.752 2983.52,125.834 2994.11,120.917 3004.7,115.999 3015.29,111.082 3025.88,106.164 3036.47,101.247 3047.06,96.329 3057.64,91.4115 3068.23,86.4939 3078.82,81.5764 3089.41,76.6588 3100,71.7412 3110.59,66.8237 3121.18,61.9061 3131.77,56.9885 3142.36,52.071 3152.76,47.2441 "/>
<path clip-path="url(#clip870)" d="M344.175 195.898 L1006.92 195.898 L1006.92 92.2178 L344.175 92.2178  Z" fill="#ffffff" fill-rule="evenodd" fill-opacity="1"/>
<polyline clip-path="url(#clip870)" style="stroke:#000000; stroke-linecap:round; stroke-linejoin:round; stroke-width:4; stroke-opacity:1; fill:none" points="344.175,195.898 1006.92,195.898 1006.92,92.2178 344.175,92.2178 344.175,195.898 "/>
<polyline clip-path="url(#clip870)" style="stroke:#009af9; stroke-linecap:round; stroke-linejoin:round; stroke-width:20; stroke-opacity:1; fill:none" points="376.458,144.058 570.153,144.058 "/>
<path clip-path="url(#clip870)" d="M602.436 126.778 L607.111 126.778 L607.111 140.944 L624.102 140.944 L624.102 126.778 L628.778 126.778 L628.778 161.338 L624.102 161.338 L624.102 144.88 L607.111 144.88 L607.111 161.338 L602.436 161.338 L602.436 126.778 Z" fill="#000000" fill-rule="nonzero" fill-opacity="1" /><path clip-path="url(#clip870)" d="M647.945 138.398 Q644.519 138.398 642.528 141.083 Q640.537 143.745 640.537 148.398 Q640.537 153.051 642.505 155.736 Q644.496 158.398 647.945 158.398 Q651.347 158.398 653.338 155.713 Q655.329 153.028 655.329 148.398 Q655.329 143.792 653.338 141.106 Q651.347 138.398 647.945 138.398 M647.945 134.787 Q653.5 134.787 656.671 138.398 Q659.843 142.009 659.843 148.398 Q659.843 154.764 656.671 158.398 Q653.5 162.009 647.945 162.009 Q642.366 162.009 639.195 158.398 Q636.046 154.764 636.046 148.398 Q636.046 142.009 639.195 138.398 Q642.366 134.787 647.945 134.787 Z" fill="#000000" fill-rule="nonzero" fill-opacity="1" /><path clip-path="url(#clip870)" d="M671.023 157.449 L671.023 171.199 L666.741 171.199 L666.741 135.412 L671.023 135.412 L671.023 139.347 Q672.366 137.032 674.403 135.921 Q676.463 134.787 679.31 134.787 Q684.032 134.787 686.972 138.537 Q689.935 142.287 689.935 148.398 Q689.935 154.509 686.972 158.259 Q684.032 162.009 679.31 162.009 Q676.463 162.009 674.403 160.898 Q672.366 159.764 671.023 157.449 M685.514 148.398 Q685.514 143.699 683.569 141.037 Q681.648 138.352 678.268 138.352 Q674.889 138.352 672.944 141.037 Q671.023 143.699 671.023 148.398 Q671.023 153.097 672.944 155.782 Q674.889 158.444 678.268 158.444 Q681.648 158.444 683.569 155.782 Q685.514 153.097 685.514 148.398 Z" fill="#000000" fill-rule="nonzero" fill-opacity="1" /><path clip-path="url(#clip870)" d="M710.12 125.319 L710.12 128.861 L706.046 128.861 Q703.754 128.861 702.852 129.787 Q701.972 130.713 701.972 133.12 L701.972 135.412 L708.986 135.412 L708.986 138.722 L701.972 138.722 L701.972 161.338 L697.69 161.338 L697.69 138.722 L693.616 138.722 L693.616 135.412 L697.69 135.412 L697.69 133.606 Q697.69 129.278 699.704 127.31 Q701.717 125.319 706.092 125.319 L710.12 125.319 Z" fill="#000000" fill-rule="nonzero" fill-opacity="1" /><path clip-path="url(#clip870)" d="M747.365 148.398 Q747.365 143.699 745.421 141.037 Q743.5 138.352 740.12 138.352 Q736.74 138.352 734.796 141.037 Q732.875 143.699 732.875 148.398 Q732.875 153.097 734.796 155.782 Q736.74 158.444 740.12 158.444 Q743.5 158.444 745.421 155.782 Q747.365 153.097 747.365 148.398 M732.875 139.347 Q734.217 137.032 736.254 135.921 Q738.314 134.787 741.162 134.787 Q745.884 134.787 748.824 138.537 Q751.787 142.287 751.787 148.398 Q751.787 154.509 748.824 158.259 Q745.884 162.009 741.162 162.009 Q738.314 162.009 736.254 160.898 Q734.217 159.764 732.875 157.449 L732.875 161.338 L728.592 161.338 L728.592 125.319 L732.875 125.319 L732.875 139.347 Z" fill="#000000" fill-rule="nonzero" fill-opacity="1" /><path clip-path="url(#clip870)" d="M758.847 135.412 L763.106 135.412 L763.106 161.338 L758.847 161.338 L758.847 135.412 M758.847 125.319 L763.106 125.319 L763.106 130.713 L758.847 130.713 L758.847 125.319 Z" fill="#000000" fill-rule="nonzero" fill-opacity="1" /><path clip-path="url(#clip870)" d="M785.143 125.319 L785.143 128.861 L781.069 128.861 Q778.777 128.861 777.874 129.787 Q776.995 130.713 776.995 133.12 L776.995 135.412 L784.009 135.412 L784.009 138.722 L776.995 138.722 L776.995 161.338 L772.712 161.338 L772.712 138.722 L768.638 138.722 L768.638 135.412 L772.712 135.412 L772.712 133.606 Q772.712 129.278 774.726 127.31 Q776.74 125.319 781.115 125.319 L785.143 125.319 Z" fill="#000000" fill-rule="nonzero" fill-opacity="1" /><path clip-path="url(#clip870)" d="M788.268 151.106 L788.268 135.412 L792.527 135.412 L792.527 150.944 Q792.527 154.625 793.962 156.477 Q795.397 158.305 798.268 158.305 Q801.717 158.305 803.708 156.106 Q805.722 153.907 805.722 150.111 L805.722 135.412 L809.981 135.412 L809.981 161.338 L805.722 161.338 L805.722 157.356 Q804.171 159.717 802.11 160.875 Q800.073 162.009 797.365 162.009 Q792.898 162.009 790.583 159.231 Q788.268 156.454 788.268 151.106 M798.985 134.787 L798.985 134.787 Z" fill="#000000" fill-rule="nonzero" fill-opacity="1" /><path clip-path="url(#clip870)" d="M833.777 139.393 Q833.059 138.977 832.203 138.792 Q831.37 138.583 830.351 138.583 Q826.74 138.583 824.795 140.944 Q822.874 143.282 822.874 147.68 L822.874 161.338 L818.592 161.338 L818.592 135.412 L822.874 135.412 L822.874 139.44 Q824.217 137.079 826.37 135.944 Q828.522 134.787 831.601 134.787 Q832.041 134.787 832.573 134.856 Q833.106 134.903 833.754 135.019 L833.777 139.393 Z" fill="#000000" fill-rule="nonzero" fill-opacity="1" /><path clip-path="url(#clip870)" d="M855.86 136.407 L855.86 140.389 Q854.055 139.393 852.226 138.907 Q850.42 138.398 848.569 138.398 Q844.425 138.398 842.133 141.037 Q839.842 143.653 839.842 148.398 Q839.842 153.143 842.133 155.782 Q844.425 158.398 848.569 158.398 Q850.42 158.398 852.226 157.912 Q854.055 157.403 855.86 156.407 L855.86 160.342 Q854.078 161.176 852.156 161.592 Q850.258 162.009 848.106 162.009 Q842.249 162.009 838.8 158.329 Q835.351 154.648 835.351 148.398 Q835.351 142.056 838.823 138.421 Q842.319 134.787 848.383 134.787 Q850.351 134.787 852.226 135.204 Q854.101 135.597 855.86 136.407 Z" fill="#000000" fill-rule="nonzero" fill-opacity="1" /><path clip-path="url(#clip870)" d="M875.05 148.305 Q869.888 148.305 867.897 149.486 Q865.906 150.667 865.906 153.514 Q865.906 155.782 867.388 157.125 Q868.892 158.444 871.462 158.444 Q875.004 158.444 877.133 155.944 Q879.286 153.421 879.286 149.255 L879.286 148.305 L875.05 148.305 M883.545 146.546 L883.545 161.338 L879.286 161.338 L879.286 157.403 Q877.828 159.764 875.652 160.898 Q873.476 162.009 870.328 162.009 Q866.346 162.009 863.985 159.787 Q861.647 157.542 861.647 153.792 Q861.647 149.417 864.564 147.194 Q867.504 144.972 873.314 144.972 L879.286 144.972 L879.286 144.555 Q879.286 141.616 877.341 140.018 Q875.42 138.398 871.925 138.398 Q869.703 138.398 867.596 138.931 Q865.49 139.463 863.545 140.528 L863.545 136.593 Q865.883 135.69 868.082 135.25 Q870.281 134.787 872.365 134.787 Q877.99 134.787 880.767 137.704 Q883.545 140.62 883.545 146.546 Z" fill="#000000" fill-rule="nonzero" fill-opacity="1" /><path clip-path="url(#clip870)" d="M896.531 128.051 L896.531 135.412 L905.304 135.412 L905.304 138.722 L896.531 138.722 L896.531 152.796 Q896.531 155.967 897.388 156.87 Q898.267 157.773 900.929 157.773 L905.304 157.773 L905.304 161.338 L900.929 161.338 Q895.999 161.338 894.124 159.509 Q892.249 157.657 892.249 152.796 L892.249 138.722 L889.124 138.722 L889.124 135.412 L892.249 135.412 L892.249 128.051 L896.531 128.051 Z" fill="#000000" fill-rule="nonzero" fill-opacity="1" /><path clip-path="url(#clip870)" d="M910.906 135.412 L915.165 135.412 L915.165 161.338 L910.906 161.338 L910.906 135.412 M910.906 125.319 L915.165 125.319 L915.165 130.713 L910.906 130.713 L910.906 125.319 Z" fill="#000000" fill-rule="nonzero" fill-opacity="1" /><path clip-path="url(#clip870)" d="M934.124 138.398 Q930.698 138.398 928.707 141.083 Q926.716 143.745 926.716 148.398 Q926.716 153.051 928.684 155.736 Q930.675 158.398 934.124 158.398 Q937.526 158.398 939.517 155.713 Q941.508 153.028 941.508 148.398 Q941.508 143.792 939.517 141.106 Q937.526 138.398 934.124 138.398 M934.124 134.787 Q939.679 134.787 942.85 138.398 Q946.022 142.009 946.022 148.398 Q946.022 154.764 942.85 158.398 Q939.679 162.009 934.124 162.009 Q928.545 162.009 925.374 158.398 Q922.226 154.764 922.226 148.398 Q922.226 142.009 925.374 138.398 Q928.545 134.787 934.124 134.787 Z" fill="#000000" fill-rule="nonzero" fill-opacity="1" /><path clip-path="url(#clip870)" d="M974.633 145.69 L974.633 161.338 L970.373 161.338 L970.373 145.829 Q970.373 142.148 968.938 140.319 Q967.503 138.491 964.633 138.491 Q961.184 138.491 959.193 140.69 Q957.202 142.889 957.202 146.685 L957.202 161.338 L952.92 161.338 L952.92 135.412 L957.202 135.412 L957.202 139.44 Q958.73 137.102 960.79 135.944 Q962.873 134.787 965.582 134.787 Q970.049 134.787 972.341 137.565 Q974.633 140.319 974.633 145.69 Z" fill="#000000" fill-rule="nonzero" fill-opacity="1" /></svg>
