<?xml version="1.0" encoding="utf-8"?>
<svg xmlns="http://www.w3.org/2000/svg" xmlns:xlink="http://www.w3.org/1999/xlink" width="600" height="400" viewBox="0 0 2400 1600">
<defs>
  <clipPath id="clip790">
    <rect x="0" y="0" width="2400" height="1600"/>
  </clipPath>
</defs>
<path clip-path="url(#clip790)" d="M0 1600 L2400 1600 L2400 0 L0 0  Z" fill="#ffffff" fill-rule="evenodd" fill-opacity="1"/>
<defs>
  <clipPath id="clip791">
    <rect x="480" y="0" width="1681" height="1600"/>
  </clipPath>
</defs>
<path clip-path="url(#clip790)" d="M141.853 1423.18 L2352.76 1423.18 L2352.76 47.2441 L141.853 47.2441  Z" fill="#ffffff" fill-rule="evenodd" fill-opacity="1"/>
<defs>
  <clipPath id="clip792">
    <rect x="141" y="47" width="2212" height="1377"/>
  </clipPath>
</defs>
<polyline clip-path="url(#clip792)" style="stroke:#000000; stroke-linecap:round; stroke-linejoin:round; stroke-width:2; stroke-opacity:0.1; fill:none" points="141.853,1423.18 141.853,47.2441 "/>
<polyline clip-path="url(#clip792)" style="stroke:#000000; stroke-linecap:round; stroke-linejoin:round; stroke-width:2; stroke-opacity:0.1; fill:none" points="694.579,1423.18 694.579,47.2441 "/>
<polyline clip-path="url(#clip792)" style="stroke:#000000; stroke-linecap:round; stroke-linejoin:round; stroke-width:2; stroke-opacity:0.1; fill:none" points="1247.3,1423.18 1247.3,47.2441 "/>
<polyline clip-path="url(#clip792)" style="stroke:#000000; stroke-linecap:round; stroke-linejoin:round; stroke-width:2; stroke-opacity:0.1; fill:none" points="1800.03,1423.18 1800.03,47.2441 "/>
<polyline clip-path="url(#clip792)" style="stroke:#000000; stroke-linecap:round; stroke-linejoin:round; stroke-width:2; stroke-opacity:0.1; fill:none" points="2352.76,1423.18 2352.76,47.2441 "/>
<polyline clip-path="url(#clip790)" style="stroke:#000000; stroke-linecap:round; stroke-linejoin:round; stroke-width:4; stroke-opacity:1; fill:none" points="141.853,1423.18 2352.76,1423.18 "/>
<polyline clip-path="url(#clip790)" style="stroke:#000000; stroke-linecap:round; stroke-linejoin:round; stroke-width:4; stroke-opacity:1; fill:none" points="141.853,1423.18 141.853,1404.28 "/>
<polyline clip-path="url(#clip790)" style="stroke:#000000; stroke-linecap:round; stroke-linejoin:round; stroke-width:4; stroke-opacity:1; fill:none" points="694.579,1423.18 694.579,1404.28 "/>
<polyline clip-path="url(#clip790)" style="stroke:#000000; stroke-linecap:round; stroke-linejoin:round; stroke-width:4; stroke-opacity:1; fill:none" points="1247.3,1423.18 1247.3,1404.28 "/>
<polyline clip-path="url(#clip790)" style="stroke:#000000; stroke-linecap:round; stroke-linejoin:round; stroke-width:4; stroke-opacity:1; fill:none" points="1800.03,1423.18 1800.03,1404.28 "/>
<polyline clip-path="url(#clip790)" style="stroke:#000000; stroke-linecap:round; stroke-linejoin:round; stroke-width:4; stroke-opacity:1; fill:none" points="2352.76,1423.18 2352.76,1404.28 "/>
<path clip-path="url(#clip790)" d="M141.853 1454.1 Q138.242 1454.1 136.413 1457.66 Q134.608 1461.2 134.608 1468.33 Q134.608 1475.44 136.413 1479.01 Q138.242 1482.55 141.853 1482.55 Q145.487 1482.55 147.293 1479.01 Q149.121 1475.44 149.121 1468.33 Q149.121 1461.2 147.293 1457.66 Q145.487 1454.1 141.853 1454.1 M141.853 1450.39 Q147.663 1450.39 150.719 1455 Q153.797 1459.58 153.797 1468.33 Q153.797 1477.06 150.719 1481.67 Q147.663 1486.25 141.853 1486.25 Q136.043 1486.25 132.964 1481.67 Q129.909 1477.06 129.909 1468.33 Q129.909 1459.58 132.964 1455 Q136.043 1450.39 141.853 1450.39 Z" fill="#000000" fill-rule="nonzero" fill-opacity="1" /><path clip-path="url(#clip790)" d="M684.857 1451.02 L703.213 1451.02 L703.213 1454.96 L689.139 1454.96 L689.139 1463.43 Q690.157 1463.08 691.176 1462.92 Q692.194 1462.73 693.213 1462.73 Q699 1462.73 702.38 1465.9 Q705.759 1469.08 705.759 1474.49 Q705.759 1480.07 702.287 1483.17 Q698.815 1486.25 692.495 1486.25 Q690.319 1486.25 688.051 1485.88 Q685.806 1485.51 683.398 1484.77 L683.398 1480.07 Q685.482 1481.2 687.704 1481.76 Q689.926 1482.32 692.403 1482.32 Q696.407 1482.32 698.745 1480.21 Q701.083 1478.1 701.083 1474.49 Q701.083 1470.88 698.745 1468.77 Q696.407 1466.67 692.403 1466.67 Q690.528 1466.67 688.653 1467.08 Q686.801 1467.5 684.857 1468.38 L684.857 1451.02 Z" fill="#000000" fill-rule="nonzero" fill-opacity="1" /><path clip-path="url(#clip790)" d="M1221.99 1481.64 L1229.63 1481.64 L1229.63 1455.28 L1221.32 1456.95 L1221.32 1452.69 L1229.58 1451.02 L1234.26 1451.02 L1234.26 1481.64 L1241.9 1481.64 L1241.9 1485.58 L1221.99 1485.58 L1221.99 1481.64 Z" fill="#000000" fill-rule="nonzero" fill-opacity="1" /><path clip-path="url(#clip790)" d="M1261.34 1454.1 Q1257.73 1454.1 1255.9 1457.66 Q1254.1 1461.2 1254.1 1468.33 Q1254.1 1475.44 1255.9 1479.01 Q1257.73 1482.55 1261.34 1482.55 Q1264.98 1482.55 1266.78 1479.01 Q1268.61 1475.44 1268.61 1468.33 Q1268.61 1461.2 1266.78 1457.66 Q1264.98 1454.1 1261.34 1454.1 M1261.34 1450.39 Q1267.15 1450.39 1270.21 1455 Q1273.29 1459.58 1273.29 1468.33 Q1273.29 1477.06 1270.21 1481.67 Q1267.15 1486.25 1261.34 1486.25 Q1255.53 1486.25 1252.45 1481.67 Q1249.4 1477.06 1249.4 1468.33 Q1249.4 1459.58 1252.45 1455 Q1255.53 1450.39 1261.34 1450.39 Z" fill="#000000" fill-rule="nonzero" fill-opacity="1" /><path clip-path="url(#clip790)" d="M1775.22 1481.64 L1782.85 1481.64 L1782.85 1455.28 L1774.54 1456.95 L1774.54 1452.69 L1782.81 1451.02 L1787.48 1451.02 L1787.48 1481.64 L1795.12 1481.64 L1795.12 1485.58 L1775.22 1485.58 L1775.22 1481.64 Z" fill="#000000" fill-rule="nonzero" fill-opacity="1" /><path clip-path="url(#clip790)" d="M1804.61 1451.02 L1822.97 1451.02 L1822.97 1454.96 L1808.9 1454.96 L1808.9 1463.43 Q1809.91 1463.08 1810.93 1462.92 Q1811.95 1462.73 1812.97 1462.73 Q1818.76 1462.73 1822.14 1465.9 Q1825.52 1469.08 1825.52 1474.49 Q1825.52 1480.07 1822.04 1483.17 Q1818.57 1486.25 1812.25 1486.25 Q1810.08 1486.25 1807.81 1485.88 Q1805.56 1485.51 1803.16 1484.77 L1803.16 1480.07 Q1805.24 1481.2 1807.46 1481.76 Q1809.68 1482.32 1812.16 1482.32 Q1816.16 1482.32 1818.5 1480.21 Q1820.84 1478.1 1820.84 1474.49 Q1820.84 1470.88 1818.5 1468.77 Q1816.16 1466.67 1812.16 1466.67 Q1810.28 1466.67 1808.41 1467.08 Q1806.56 1467.5 1804.61 1468.38 L1804.61 1451.02 Z" fill="#000000" fill-rule="nonzero" fill-opacity="1" /><path clip-path="url(#clip790)" d="M2331.53 1481.64 L2347.85 1481.64 L2347.85 1485.58 L2325.9 1485.58 L2325.9 1481.64 Q2328.57 1478.89 2333.15 1474.26 Q2337.76 1469.61 2338.94 1468.27 Q2341.18 1465.74 2342.06 1464.01 Q2342.96 1462.25 2342.96 1460.56 Q2342.96 1457.8 2341.02 1456.07 Q2339.1 1454.33 2336 1454.33 Q2333.8 1454.33 2331.34 1455.09 Q2328.91 1455.86 2326.14 1457.41 L2326.14 1452.69 Q2328.96 1451.55 2331.41 1450.97 Q2333.87 1450.39 2335.9 1450.39 Q2341.27 1450.39 2344.47 1453.08 Q2347.66 1455.77 2347.66 1460.26 Q2347.66 1462.39 2346.85 1464.31 Q2346.07 1466.2 2343.96 1468.8 Q2343.38 1469.47 2340.28 1472.69 Q2337.18 1475.88 2331.53 1481.64 Z" fill="#000000" fill-rule="nonzero" fill-opacity="1" /><path clip-path="url(#clip790)" d="M2367.66 1454.1 Q2364.05 1454.1 2362.22 1457.66 Q2360.42 1461.2 2360.42 1468.33 Q2360.42 1475.44 2362.22 1479.01 Q2364.05 1482.55 2367.66 1482.55 Q2371.3 1482.55 2373.1 1479.01 Q2374.93 1475.44 2374.93 1468.33 Q2374.93 1461.2 2373.1 1457.66 Q2371.3 1454.1 2367.66 1454.1 M2367.66 1450.39 Q2373.47 1450.39 2376.53 1455 Q2379.61 1459.58 2379.61 1468.33 Q2379.61 1477.06 2376.53 1481.67 Q2373.47 1486.25 2367.66 1486.25 Q2361.85 1486.25 2358.77 1481.67 Q2355.72 1477.06 2355.72 1468.33 Q2355.72 1459.58 2358.77 1455 Q2361.85 1450.39 2367.66 1450.39 Z" fill="#000000" fill-rule="nonzero" fill-opacity="1" /><path clip-path="url(#clip790)" d="M1093.83 1520.52 L1134.03 1520.52 L1134.03 1525.93 L1117.16 1525.93 L1117.16 1568.04 L1110.7 1568.04 L1110.7 1525.93 L1093.83 1525.93 L1093.83 1520.52 Z" fill="#000000" fill-rule="nonzero" fill-opacity="1" /><path clip-path="url(#clip790)" d="M1137.97 1532.4 L1143.83 1532.4 L1143.83 1568.04 L1137.97 1568.04 L1137.97 1532.4 M1137.97 1518.52 L1143.83 1518.52 L1143.83 1525.93 L1137.97 1525.93 L1137.97 1518.52 Z" fill="#000000" fill-rule="nonzero" fill-opacity="1" /><path clip-path="url(#clip790)" d="M1183.84 1539.24 Q1186.03 1535.29 1189.09 1533.41 Q1192.15 1531.54 1196.28 1531.54 Q1201.85 1531.54 1204.88 1535.45 Q1207.9 1539.33 1207.9 1546.53 L1207.9 1568.04 L1202.01 1568.04 L1202.01 1546.72 Q1202.01 1541.59 1200.2 1539.11 Q1198.38 1536.63 1194.66 1536.63 Q1190.11 1536.63 1187.47 1539.65 Q1184.83 1542.68 1184.83 1547.9 L1184.83 1568.04 L1178.94 1568.04 L1178.94 1546.72 Q1178.94 1541.56 1177.12 1539.11 Q1175.31 1536.63 1171.52 1536.63 Q1167.03 1536.63 1164.39 1539.68 Q1161.75 1542.71 1161.75 1547.9 L1161.75 1568.04 L1155.86 1568.04 L1155.86 1532.4 L1161.75 1532.4 L1161.75 1537.93 Q1163.75 1534.66 1166.56 1533.1 Q1169.36 1531.54 1173.21 1531.54 Q1177.09 1531.54 1179.8 1533.51 Q1182.53 1535.48 1183.84 1539.24 Z" fill="#000000" fill-rule="nonzero" fill-opacity="1" /><path clip-path="url(#clip790)" d="M1250.07 1548.76 L1250.07 1551.62 L1223.15 1551.62 Q1223.53 1557.67 1226.78 1560.85 Q1230.05 1564 1235.88 1564 Q1239.25 1564 1242.4 1563.17 Q1245.59 1562.35 1248.7 1560.69 L1248.7 1566.23 Q1245.55 1567.57 1242.24 1568.27 Q1238.93 1568.97 1235.53 1568.97 Q1227 1568.97 1222 1564 Q1217.04 1559.04 1217.04 1550.57 Q1217.04 1541.82 1221.75 1536.69 Q1226.49 1531.54 1234.51 1531.54 Q1241.7 1531.54 1245.87 1536.18 Q1250.07 1540.8 1250.07 1548.76 M1244.22 1547.04 Q1244.15 1542.23 1241.51 1539.37 Q1238.9 1536.5 1234.57 1536.5 Q1229.67 1536.5 1226.71 1539.27 Q1223.78 1542.04 1223.34 1547.07 L1244.22 1547.04 Z" fill="#000000" fill-rule="nonzero" fill-opacity="1" /><path clip-path="url(#clip790)" d="M1294.47 1518.58 Q1290.21 1525.9 1288.14 1533.06 Q1286.07 1540.23 1286.07 1547.58 Q1286.07 1554.93 1288.14 1562.16 Q1290.24 1569.35 1294.47 1576.64 L1289.38 1576.64 Q1284.61 1569.16 1282.22 1561.93 Q1279.87 1554.71 1279.87 1547.58 Q1279.87 1540.48 1282.22 1533.29 Q1284.58 1526.09 1289.38 1518.58 L1294.47 1518.58 Z" fill="#000000" fill-rule="nonzero" fill-opacity="1" /><path clip-path="url(#clip790)" d="M1322.04 1550.12 Q1314.94 1550.12 1312.2 1551.75 Q1309.47 1553.37 1309.47 1557.29 Q1309.47 1560.4 1311.5 1562.25 Q1313.57 1564.07 1317.1 1564.07 Q1321.97 1564.07 1324.9 1560.63 Q1327.86 1557.16 1327.86 1551.43 L1327.86 1550.12 L1322.04 1550.12 M1333.72 1547.71 L1333.72 1568.04 L1327.86 1568.04 L1327.86 1562.63 Q1325.86 1565.88 1322.87 1567.44 Q1319.87 1568.97 1315.54 1568.97 Q1310.07 1568.97 1306.82 1565.91 Q1303.61 1562.82 1303.61 1557.67 Q1303.61 1551.65 1307.62 1548.6 Q1311.66 1545.54 1319.65 1545.54 L1327.86 1545.54 L1327.86 1544.97 Q1327.86 1540.93 1325.19 1538.73 Q1322.55 1536.5 1317.74 1536.5 Q1314.69 1536.5 1311.79 1537.23 Q1308.89 1537.97 1306.22 1539.43 L1306.22 1534.02 Q1309.43 1532.78 1312.46 1532.17 Q1315.48 1531.54 1318.35 1531.54 Q1326.08 1531.54 1329.9 1535.55 Q1333.72 1539.56 1333.72 1547.71 Z" fill="#000000" fill-rule="nonzero" fill-opacity="1" /><path clip-path="url(#clip790)" d="M1345.18 1553.98 L1345.18 1532.4 L1351.03 1532.4 L1351.03 1553.75 Q1351.03 1558.81 1353.01 1561.36 Q1354.98 1563.87 1358.93 1563.87 Q1363.67 1563.87 1366.41 1560.85 Q1369.18 1557.83 1369.18 1552.61 L1369.18 1532.4 L1375.03 1532.4 L1375.03 1568.04 L1369.18 1568.04 L1369.18 1562.57 Q1367.04 1565.82 1364.21 1567.41 Q1361.41 1568.97 1357.69 1568.97 Q1351.54 1568.97 1348.36 1565.15 Q1345.18 1561.33 1345.18 1553.98 M1359.91 1531.54 L1359.91 1531.54 Z" fill="#000000" fill-rule="nonzero" fill-opacity="1" /><path clip-path="url(#clip790)" d="M1386.17 1518.58 L1391.26 1518.58 Q1396.04 1526.09 1398.39 1533.29 Q1400.78 1540.48 1400.78 1547.58 Q1400.78 1554.71 1398.39 1561.93 Q1396.04 1569.16 1391.26 1576.64 L1386.17 1576.64 Q1390.41 1569.35 1392.47 1562.16 Q1394.58 1554.93 1394.58 1547.58 Q1394.58 1540.23 1392.47 1533.06 Q1390.41 1525.9 1386.17 1518.58 Z" fill="#000000" fill-rule="nonzero" fill-opacity="1" /><polyline clip-path="url(#clip792)" style="stroke:#000000; stroke-linecap:round; stroke-linejoin:round; stroke-width:2; stroke-opacity:0.1; fill:none" points="141.853,1384.24 2352.76,1384.24 "/>
<polyline clip-path="url(#clip792)" style="stroke:#000000; stroke-linecap:round; stroke-linejoin:round; stroke-width:2; stroke-opacity:0.1; fill:none" points="141.853,1124.63 2352.76,1124.63 "/>
<polyline clip-path="url(#clip792)" style="stroke:#000000; stroke-linecap:round; stroke-linejoin:round; stroke-width:2; stroke-opacity:0.1; fill:none" points="141.853,865.017 2352.76,865.017 "/>
<polyline clip-path="url(#clip792)" style="stroke:#000000; stroke-linecap:round; stroke-linejoin:round; stroke-width:2; stroke-opacity:0.1; fill:none" points="141.853,605.407 2352.76,605.407 "/>
<polyline clip-path="url(#clip792)" style="stroke:#000000; stroke-linecap:round; stroke-linejoin:round; stroke-width:2; stroke-opacity:0.1; fill:none" points="141.853,345.796 2352.76,345.796 "/>
<polyline clip-path="url(#clip792)" style="stroke:#000000; stroke-linecap:round; stroke-linejoin:round; stroke-width:2; stroke-opacity:0.1; fill:none" points="141.853,86.1857 2352.76,86.1857 "/>
<polyline clip-path="url(#clip790)" style="stroke:#000000; stroke-linecap:round; stroke-linejoin:round; stroke-width:4; stroke-opacity:1; fill:none" points="141.853,1423.18 141.853,47.2441 "/>
<polyline clip-path="url(#clip790)" style="stroke:#000000; stroke-linecap:round; stroke-linejoin:round; stroke-width:4; stroke-opacity:1; fill:none" points="141.853,1384.24 160.751,1384.24 "/>
<polyline clip-path="url(#clip790)" style="stroke:#000000; stroke-linecap:round; stroke-linejoin:round; stroke-width:4; stroke-opacity:1; fill:none" points="141.853,1124.63 160.751,1124.63 "/>
<polyline clip-path="url(#clip790)" style="stroke:#000000; stroke-linecap:round; stroke-linejoin:round; stroke-width:4; stroke-opacity:1; fill:none" points="141.853,865.017 160.751,865.017 "/>
<polyline clip-path="url(#clip790)" style="stroke:#000000; stroke-linecap:round; stroke-linejoin:round; stroke-width:4; stroke-opacity:1; fill:none" points="141.853,605.407 160.751,605.407 "/>
<polyline clip-path="url(#clip790)" style="stroke:#000000; stroke-linecap:round; stroke-linejoin:round; stroke-width:4; stroke-opacity:1; fill:none" points="141.853,345.796 160.751,345.796 "/>
<polyline clip-path="url(#clip790)" style="stroke:#000000; stroke-linecap:round; stroke-linejoin:round; stroke-width:4; stroke-opacity:1; fill:none" points="141.853,86.1857 160.751,86.1857 "/>
<path clip-path="url(#clip790)" d="M93.9086 1370.04 Q90.2975 1370.04 88.4688 1373.6 Q86.6632 1377.14 86.6632 1384.27 Q86.6632 1391.38 88.4688 1394.94 Q90.2975 1398.49 93.9086 1398.49 Q97.5428 1398.49 99.3483 1394.94 Q101.177 1391.38 101.177 1384.27 Q101.177 1377.14 99.3483 1373.6 Q97.5428 1370.04 93.9086 1370.04 M93.9086 1366.33 Q99.7187 1366.33 102.774 1370.94 Q105.853 1375.52 105.853 1384.27 Q105.853 1393 102.774 1397.61 Q99.7187 1402.19 93.9086 1402.19 Q88.0984 1402.19 85.0197 1397.61 Q81.9642 1393 81.9642 1384.27 Q81.9642 1375.52 85.0197 1370.94 Q88.0984 1366.33 93.9086 1366.33 Z" fill="#000000" fill-rule="nonzero" fill-opacity="1" /><path clip-path="url(#clip790)" d="M54.5569 1137.97 L62.1958 1137.97 L62.1958 1111.61 L53.8856 1113.27 L53.8856 1109.01 L62.1495 1107.35 L66.8254 1107.35 L66.8254 1137.97 L74.4642 1137.97 L74.4642 1141.91 L54.5569 1141.91 L54.5569 1137.97 Z" fill="#000000" fill-rule="nonzero" fill-opacity="1" /><path clip-path="url(#clip790)" d="M93.9086 1110.43 Q90.2975 1110.43 88.4688 1113.99 Q86.6632 1117.53 86.6632 1124.66 Q86.6632 1131.77 88.4688 1135.33 Q90.2975 1138.88 93.9086 1138.88 Q97.5428 1138.88 99.3483 1135.33 Q101.177 1131.77 101.177 1124.66 Q101.177 1117.53 99.3483 1113.99 Q97.5428 1110.43 93.9086 1110.43 M93.9086 1106.72 Q99.7187 1106.72 102.774 1111.33 Q105.853 1115.91 105.853 1124.66 Q105.853 1133.39 102.774 1138 Q99.7187 1142.58 93.9086 1142.58 Q88.0984 1142.58 85.0197 1138 Q81.9642 1133.39 81.9642 1124.66 Q81.9642 1115.91 85.0197 1111.33 Q88.0984 1106.72 93.9086 1106.72 Z" fill="#000000" fill-rule="nonzero" fill-opacity="1" /><path clip-path="url(#clip790)" d="M57.7745 878.362 L74.0939 878.362 L74.0939 882.297 L52.1495 882.297 L52.1495 878.362 Q54.8115 875.607 59.3949 870.978 Q64.0013 866.325 65.1819 864.983 Q67.4272 862.459 68.3068 860.723 Q69.2096 858.964 69.2096 857.274 Q69.2096 854.52 67.2652 852.783 Q65.3439 851.047 62.2421 851.047 Q60.043 851.047 57.5893 851.811 Q55.1588 852.575 52.381 854.126 L52.381 849.404 Q55.2051 848.27 57.6588 847.691 Q60.1124 847.112 62.1495 847.112 Q67.5198 847.112 70.7142 849.797 Q73.9087 852.483 73.9087 856.973 Q73.9087 859.103 73.0985 861.024 Q72.3115 862.922 70.205 865.515 Q69.6263 866.186 66.5245 869.404 Q63.4226 872.598 57.7745 878.362 Z" fill="#000000" fill-rule="nonzero" fill-opacity="1" /><path clip-path="url(#clip790)" d="M93.9086 850.816 Q90.2975 850.816 88.4688 854.381 Q86.6632 857.922 86.6632 865.052 Q86.6632 872.158 88.4688 875.723 Q90.2975 879.265 93.9086 879.265 Q97.5428 879.265 99.3483 875.723 Q101.177 872.158 101.177 865.052 Q101.177 857.922 99.3483 854.381 Q97.5428 850.816 93.9086 850.816 M93.9086 847.112 Q99.7187 847.112 102.774 851.719 Q105.853 856.302 105.853 865.052 Q105.853 873.779 102.774 878.385 Q99.7187 882.969 93.9086 882.969 Q88.0984 882.969 85.0197 878.385 Q81.9642 873.779 81.9642 865.052 Q81.9642 856.302 85.0197 851.719 Q88.0984 847.112 93.9086 847.112 Z" fill="#000000" fill-rule="nonzero" fill-opacity="1" /><path clip-path="url(#clip790)" d="M67.9133 604.053 Q71.2698 604.77 73.1448 607.039 Q75.0429 609.307 75.0429 612.64 Q75.0429 617.756 71.5244 620.557 Q68.0059 623.358 61.5245 623.358 Q59.3486 623.358 57.0338 622.918 Q54.7421 622.502 52.2884 621.645 L52.2884 617.131 Q54.2328 618.265 56.5477 618.844 Q58.8625 619.423 61.3856 619.423 Q65.7837 619.423 68.0754 617.687 Q70.3902 615.951 70.3902 612.64 Q70.3902 609.585 68.2374 607.872 Q66.1078 606.136 62.2884 606.136 L58.2606 606.136 L58.2606 602.293 L62.4735 602.293 Q65.9226 602.293 67.7513 600.928 Q69.58 599.539 69.58 596.946 Q69.58 594.284 67.6819 592.872 Q65.8069 591.437 62.2884 591.437 Q60.3671 591.437 58.168 591.854 Q55.969 592.27 53.3301 593.15 L53.3301 588.983 Q55.9921 588.242 58.3069 587.872 Q60.6449 587.502 62.705 587.502 Q68.0291 587.502 71.1309 589.932 Q74.2327 592.34 74.2327 596.46 Q74.2327 599.33 72.5892 601.321 Q70.9457 603.289 67.9133 604.053 Z" fill="#000000" fill-rule="nonzero" fill-opacity="1" /><path clip-path="url(#clip790)" d="M93.9086 591.205 Q90.2975 591.205 88.4688 594.77 Q86.6632 598.312 86.6632 605.441 Q86.6632 612.548 88.4688 616.113 Q90.2975 619.654 93.9086 619.654 Q97.5428 619.654 99.3483 616.113 Q101.177 612.548 101.177 605.441 Q101.177 598.312 99.3483 594.77 Q97.5428 591.205 93.9086 591.205 M93.9086 587.502 Q99.7187 587.502 102.774 592.108 Q105.853 596.691 105.853 605.441 Q105.853 614.168 102.774 618.775 Q99.7187 623.358 93.9086 623.358 Q88.0984 623.358 85.0197 618.775 Q81.9642 614.168 81.9642 605.441 Q81.9642 596.691 85.0197 592.108 Q88.0984 587.502 93.9086 587.502 Z" fill="#000000" fill-rule="nonzero" fill-opacity="1" /><path clip-path="url(#clip790)" d="M66.5939 332.59 L54.7884 351.039 L66.5939 351.039 L66.5939 332.59 M65.367 328.516 L71.2466 328.516 L71.2466 351.039 L76.1772 351.039 L76.1772 354.928 L71.2466 354.928 L71.2466 363.076 L66.5939 363.076 L66.5939 354.928 L50.9921 354.928 L50.9921 350.414 L65.367 328.516 Z" fill="#000000" fill-rule="nonzero" fill-opacity="1" /><path clip-path="url(#clip790)" d="M93.9086 331.595 Q90.2975 331.595 88.4688 335.16 Q86.6632 338.701 86.6632 345.831 Q86.6632 352.937 88.4688 356.502 Q90.2975 360.044 93.9086 360.044 Q97.5428 360.044 99.3483 356.502 Q101.177 352.937 101.177 345.831 Q101.177 338.701 99.3483 335.16 Q97.5428 331.595 93.9086 331.595 M93.9086 327.891 Q99.7187 327.891 102.774 332.498 Q105.853 337.081 105.853 345.831 Q105.853 354.558 102.774 359.164 Q99.7187 363.747 93.9086 363.747 Q88.0984 363.747 85.0197 359.164 Q81.9642 354.558 81.9642 345.831 Q81.9642 337.081 85.0197 332.498 Q88.0984 327.891 93.9086 327.891 Z" fill="#000000" fill-rule="nonzero" fill-opacity="1" /><path clip-path="url(#clip790)" d="M53.793 68.9057 L72.1494 68.9057 L72.1494 72.8408 L58.0754 72.8408 L58.0754 81.313 Q59.0939 80.9658 60.1124 80.8038 Q61.131 80.6186 62.1495 80.6186 Q67.9365 80.6186 71.3161 83.7899 Q74.6957 86.9611 74.6957 92.3778 Q74.6957 97.9564 71.2235 101.058 Q67.7513 104.137 61.4319 104.137 Q59.256 104.137 56.9875 103.767 Q54.7421 103.396 52.3347 102.655 L52.3347 97.9564 Q54.418 99.0907 56.6402 99.6462 Q58.8625 100.202 61.3393 100.202 Q65.3439 100.202 67.6819 98.0953 Q70.0198 95.9889 70.0198 92.3778 Q70.0198 88.7667 67.6819 86.6602 Q65.3439 84.5537 61.3393 84.5537 Q59.4643 84.5537 57.5893 84.9704 Q55.7375 85.3871 53.793 86.2667 L53.793 68.9057 Z" fill="#000000" fill-rule="nonzero" fill-opacity="1" /><path clip-path="url(#clip790)" d="M93.9086 71.9844 Q90.2975 71.9844 88.4688 75.5492 Q86.6632 79.0908 86.6632 86.2204 Q86.6632 93.3268 88.4688 96.8916 Q90.2975 100.433 93.9086 100.433 Q97.5428 100.433 99.3483 96.8916 Q101.177 93.3268 101.177 86.2204 Q101.177 79.0908 99.3483 75.5492 Q97.5428 71.9844 93.9086 71.9844 M93.9086 68.2807 Q99.7187 68.2807 102.774 72.8871 Q105.853 77.4704 105.853 86.2204 Q105.853 94.9472 102.774 99.5537 Q99.7187 104.137 93.9086 104.137 Q88.0984 104.137 85.0197 99.5537 Q81.9642 94.9472 81.9642 86.2204 Q81.9642 77.4704 85.0197 72.8871 Q88.0984 68.2807 93.9086 68.2807 Z" fill="#000000" fill-rule="nonzero" fill-opacity="1" /><polyline clip-path="url(#clip792)" style="stroke:#009af9; stroke-linecap:round; stroke-linejoin:round; stroke-width:8; stroke-opacity:1; fill:none" points="141.853,86.1857 147.38,455.927 152.907,532.945 158.435,684.194 163.962,739.357 169.489,716.766 175.016,850.086 180.544,919.557 186.071,963.974 191.598,904.524 197.126,896.492 202.653,1030.65 208.18,837.595 213.707,870.102 219.235,938.624 224.762,977.649 230.289,920.224 235.816,1047.76 241.344,964.18 246.871,1058.38 252.398,1102.37 257.925,1162.65 263.453,1052.17 268.98,1069.63 274.507,1078.42 280.034,1087.31 285.562,1100.54 291.089,1051.8 296.616,1105.02 302.143,1153.56 307.671,1197.85 313.198,1147.67 318.725,1166.24 324.252,1087.72 329.78,1128.98 335.307,1097.83 340.834,1182.51 346.361,1113.49 351.889,1140.19 357.416,1224.89 362.943,1180.83 368.47,1178.88 373.998,1130.58 379.525,1173.78 385.052,1205.58 390.58,1258.81 396.107,1301.08 401.634,1294.23 401.834,1292.54 407.361,1196.73 412.888,1113.27 418.415,1142.78 423.943,1204.84 429.47,1165.01 434.997,1077.58 440.524,1142.14 446.052,939.174 451.579,889.288 457.106,942.569 462.633,1022.01 468.161,1099.06 473.688,988.806 479.215,878.927 484.742,864.596 490.27,755.564 495.797,768.248 501.324,837.466 506.851,812.396 512.379,831.437 517.906,848.093 523.433,771.493 528.96,758.483 534.488,694.445 540.015,709.437 545.542,749.9 551.07,741.966 556.597,713.043 562.124,673.551 567.651,695.643 573.179,625.19 578.706,665.07 584.233,647.586 589.76,592.201 595.288,554.832 600.815,557.781 606.342,555.349 611.869,491.962 617.397,467.635 622.924,461.038 628.451,399.709 633.978,404.343 639.506,398.589 645.033,373.564 650.56,311.943 656.087,315.293 661.615,269.069 667.142,271.084 672.669,250.957 678.196,252.17 683.724,231.667 689.251,221.269 694.778,230.979 700.305,241.599 705.833,203.187 711.36,193.393 716.887,201.283 722.415,188.223 727.942,250.898 733.469,251.424 738.996,249.701 744.524,292.962 750.051,320.698 755.578,320.126 761.105,365.454 766.633,337.699 772.16,382.657 777.687,445.651 783.214,498.881 788.742,546.866 794.269,554.959 799.796,646.904 805.323,760.307 810.851,708.133 816.378,715.184 821.905,737.152 827.432,779.59 832.96,794.869 838.487,862.005 844.014,889.172 847.068,923.58 852.596,953.736 858.123,1003.08 863.65,1002.33 869.177,1094.05 874.705,1012.56 880.232,1048.64 885.759,867.361 891.286,949.018 896.814,980.094 902.341,864.277 907.868,888.95 913.395,1085.28 918.923,1102.03 924.45,1083.36 929.977,1003.72 935.504,1151.13 941.032,1012.4 946.559,1047.33 952.086,1186.93 957.613,1105.77 963.141,1132.61 968.668,1015.68 974.195,960.811 979.722,988.484 985.25,1024.12 990.777,1062.91 996.304,1063.73 1001.83,1041.25 1007.36,1174.59 1012.89,1062.08 1018.41,1003.21 1023.94,1133.02 1029.47,1200.05 1035,1167.15 1040.52,1131.18 1046.05,1075.83 1051.58,1139.89 1057.1,1071.9 1062.63,1082.29 1068.16,1055.31 1073.69,1062.78 1079.21,1002.82 1084.74,899.37 1090.27,1021.29 1095.79,983.686 1097.08,962.247 1102.61,912.743 1108.14,963.28 1113.66,1000.57 1119.19,1000.68 1124.72,981.071 1130.24,1000.5 1135.77,922.647 1141.3,887.832 1146.83,793.779 1152.35,855.622 1157.88,789.758 1163.41,939.024 1168.94,921.621 1174.46,1094.3 1179.99,1068.44 1185.52,1000.26 1191.04,939.027 1196.57,937.071 1202.1,936.326 1207.63,945.814 1213.15,845.499 1218.68,717.889 1224.21,713.065 1229.74,745.372 1235.26,754.049 1240.79,706.576 1246.32,678.422 1251.84,591.278 1257.37,601.071 1262.9,614.39 1268.43,541.738 1273.95,535.624 1279.48,482.455 1285.01,487.435 1290.53,460.451 1296.06,476.926 1301.59,500.313 1307.12,532.922 1312.64,544.889 1318.17,514.87 1323.7,501.197 1329.23,488.481 1334.75,499.167 1340.28,447.528 1345.81,403.206 1351.33,354.628 1356.86,319.862 1362.39,325.897 1367.92,277.683 1373.44,264.207 1378.97,265.028 1384.5,247.473 1390.03,236.455 1395.55,223.262 1401.08,223.492 1406.61,218.346 1412.13,222.124 1417.66,204.704 1423.19,211.067 1428.72,202.745 1434.24,217.265 1439.77,266.852 1445.3,277.17 1450.83,261.274 1456.35,287.38 1461.88,369.041 1467.41,417.663 1472.93,425.09 1478.46,445.377 1483.99,517.877 1489.52,577.461 1495.04,649.286 1500.57,654.13 1506.1,707.312 1511.63,799.608 1517.15,815.875 1522.68,824.619 1528.21,857.053 1533.73,833.782 1539.26,804.655 1544.79,842.434 1550.32,890.046 1553.41,909.109 1558.94,1024.79 1564.46,968.782 1569.99,1061.98 1575.52,1035.16 1581.05,954.382 1586.57,1023.66 1592.1,968.532 1597.63,882.908 1603.16,945.604 1608.68,962.171 1614.21,1017.87 1619.74,904.514 1625.26,1021.36 1630.79,1057.08 1636.32,1102.53 1641.85,1121.7 1647.37,1145.55 1652.9,1106.16 1658.43,1129.36 1663.96,1131.34 1669.48,948.754 1675.01,979.527 1680.54,961.904 1686.06,994.22 1691.59,1043.05 1697.12,1104 1702.65,1160.95 1708.17,1216.31 1713.7,1161.31 1719.23,1108.63 1724.76,1127.83 1730.28,959.446 1735.81,962.314 1741.34,1044.42 1746.86,1068.11 1752.39,1017.66 1757.92,1025.41 1763.45,1061.17 1768.97,995.953 1774.5,1069.2 1780.03,1054.2 1785.56,1138.35 1791.08,1053.19 1796.61,1093.4 1802.14,1116.2 1803.87,1095.44 1809.4,989.074 1814.92,875.858 1820.45,934.519 1825.98,812.523 1831.51,790.598 1837.03,812.661 1842.56,945.704 1848.09,904.01 1853.62,936.745 1859.14,910.96 1864.67,859.201 1870.2,785.899 1875.72,871.779 1881.25,873.122 1886.78,894.604 1892.31,821.508 1897.83,850.296 1903.36,802.36 1908.89,819.055 1914.42,799.559 1919.94,712.38 1925.47,783.623 1931,853.135 1936.52,903.171 1942.05,885.412 1947.58,874.207 1953.11,855.122 1958.63,852.721 1964.16,806.71 1969.69,860.155 1975.21,851.325 1980.74,793.469 1986.27,778.405 1991.8,765.99 1997.32,719.733 2002.85,594.574 2008.38,568.11 2013.91,550.994 2019.43,518.644 2024.96,459.29 2030.49,458.106 2036.01,418.136 2041.54,380.499 2047.07,389.369 2052.6,347.703 2058.12,318.144 2063.65,317.742 2069.18,348.221 2074.71,322.205 2080.23,311.023 2085.76,295.985 2091.29,272.392 2096.81,267.568 2102.34,290.36 2107.87,295.445 2113.4,283.591 2118.92,323.392 2124.45,320.06 2129.98,288.745 2135.51,322.795 2141.03,307.612 2146.56,402.324 2152.09,471.598 2157.61,457.893 2163.14,509.783 2168.67,533.471 2174.2,538.456 2179.72,610.514 2185.25,519.211 2190.78,551.348 2196.31,604.153 2201.83,611.909 2207.36,682.945 2212.89,664.678 2218.41,724.406 2223.94,809.5 2229.47,827.955 2235,808.343 2236.67,848.521 2242.2,994.277 2247.73,1005.94 2253.25,1012.32 2258.78,892.674 2264.31,791.087 2269.84,761.128 2275.36,792.782 2280.89,712.591 2286.42,919.52 2291.94,1058.16 2297.47,964.091 2303,941.657 2308.53,1059.7 2314.05,1083.61 2319.58,1149.59 2325.11,1089.43 2330.64,1086.65 2336.16,979.771 2341.69,1056.27 2347.22,988.633 2352.74,1050.39 2352.76,1049.54 "/>
<polyline clip-path="url(#clip792)" style="stroke:#e26f46; stroke-linecap:round; stroke-linejoin:round; stroke-width:8; stroke-opacity:1; fill:none" points="141.853,1384.24 147.38,1014.5 152.907,937.479 158.435,786.23 163.962,731.067 169.489,753.658 175.016,620.338 180.544,550.867 186.071,506.449 191.598,565.9 197.126,573.932 202.653,439.772 208.18,632.829 213.707,600.322 219.235,531.8 224.762,492.775 230.289,550.2 235.816,422.668 241.344,506.244 246.871,412.049 252.398,368.056 257.925,307.769 263.453,418.251 268.98,400.793 274.507,392.005 280.034,383.116 285.562,369.884 291.089,418.627 296.616,365.399 302.143,316.864 307.671,272.572 313.198,322.756 318.725,304.183 324.252,382.705 329.78,341.446 335.307,372.593 340.834,287.918 346.361,356.935 351.889,330.231 357.416,245.534 362.943,289.598 368.47,291.543 373.998,339.848 379.525,296.644 385.052,264.842 390.58,211.617 396.107,169.345 401.634,176.194 401.834,177.887 407.361,273.693 412.888,357.154 418.415,327.642 423.943,265.58 429.47,305.414 434.997,392.845 440.524,328.279 446.052,531.25 451.579,581.136 457.106,527.855 462.633,448.415 468.161,371.361 473.688,481.618 479.215,591.497 484.742,605.828 490.27,714.86 495.797,702.176 501.324,632.958 506.851,658.028 512.379,638.987 517.906,622.331 523.433,698.931 528.96,711.941 534.488,775.979 540.015,760.987 545.542,720.524 551.07,728.458 556.597,757.381 562.124,796.873 567.651,774.781 573.179,845.234 578.706,805.354 584.233,822.838 589.76,878.223 595.288,915.592 600.815,912.643 606.342,915.075 611.869,978.462 617.397,1002.79 622.924,1009.39 628.451,1070.71 633.978,1066.08 639.506,1071.83 645.033,1096.86 650.56,1158.48 656.087,1155.13 661.615,1201.35 667.142,1199.34 672.669,1219.47 678.196,1218.25 683.724,1238.76 689.251,1249.16 694.778,1239.45 700.305,1228.82 705.833,1267.24 711.36,1277.03 716.887,1269.14 722.415,1282.2 727.942,1219.53 733.469,1219 738.996,1220.72 744.524,1177.46 750.051,1149.73 755.578,1150.3 761.105,1104.97 766.633,1132.72 772.16,1087.77 777.687,1024.77 783.214,971.543 788.742,923.558 794.269,915.465 799.796,823.52 805.323,710.117 810.851,762.291 816.378,755.24 821.905,733.272 827.432,690.834 832.96,675.554 838.487,608.419 844.014,581.252 847.068,546.844 852.596,516.688 858.123,467.345 863.65,468.093 869.177,376.374 874.705,457.862 880.232,421.782 885.759,603.063 891.286,521.406 896.814,490.33 902.341,606.147 907.868,581.474 913.395,385.145 918.923,368.394 924.45,387.067 929.977,466.703 935.504,319.298 941.032,458.028 946.559,423.095 952.086,283.498 957.613,364.658 963.141,337.816 968.668,454.745 974.195,509.613 979.722,481.94 985.25,446.302 990.777,407.509 996.304,406.694 1001.83,429.177 1007.36,295.833 1012.89,408.345 1018.41,467.214 1023.94,337.401 1029.47,270.373 1035,303.271 1040.52,339.246 1046.05,394.598 1051.58,330.537 1057.1,398.519 1062.63,388.133 1068.16,415.118 1073.69,407.643 1079.21,467.607 1084.74,571.054 1090.27,449.133 1095.79,486.738 1097.08,508.177 1102.61,557.68 1108.14,507.144 1113.66,469.857 1119.19,469.745 1124.72,489.353 1130.24,469.921 1135.77,547.777 1141.3,582.592 1146.83,676.645 1152.35,614.802 1157.88,680.666 1163.41,531.4 1168.94,548.803 1174.46,376.124 1179.99,401.987 1185.52,470.162 1191.04,531.397 1196.57,533.353 1202.1,534.098 1207.63,524.61 1213.15,624.925 1218.68,752.535 1224.21,757.359 1229.74,725.052 1235.26,716.375 1240.79,763.848 1246.32,792.002 1251.84,879.146 1257.37,869.353 1262.9,856.034 1268.43,928.686 1273.95,934.8 1279.48,987.969 1285.01,982.989 1290.53,1009.97 1296.06,993.498 1301.59,970.111 1307.12,937.502 1312.64,925.535 1318.17,955.554 1323.7,969.227 1329.23,981.943 1334.75,971.257 1340.28,1022.9 1345.81,1067.22 1351.33,1115.8 1356.86,1150.56 1362.39,1144.53 1367.92,1192.74 1373.44,1206.22 1378.97,1205.4 1384.5,1222.95 1390.03,1233.97 1395.55,1247.16 1401.08,1246.93 1406.61,1252.08 1412.13,1248.3 1417.66,1265.72 1423.19,1259.36 1428.72,1267.68 1434.24,1253.16 1439.77,1203.57 1445.3,1193.25 1450.83,1209.15 1456.35,1183.04 1461.88,1101.38 1467.41,1052.76 1472.93,1045.33 1478.46,1025.05 1483.99,952.547 1489.52,892.963 1495.04,821.138 1500.57,816.294 1506.1,763.112 1511.63,670.816 1517.15,654.548 1522.68,645.805 1528.21,613.371 1533.73,636.642 1539.26,665.769 1544.79,627.989 1550.32,580.378 1553.41,561.315 1558.94,445.633 1564.46,501.642 1569.99,408.447 1575.52,435.259 1581.05,516.042 1586.57,446.761 1592.1,501.892 1597.63,587.516 1603.16,524.82 1608.68,508.253 1614.21,452.55 1619.74,565.91 1625.26,449.068 1630.79,413.344 1636.32,367.892 1641.85,348.725 1647.37,324.87 1652.9,364.262 1658.43,341.066 1663.96,339.085 1669.48,521.67 1675.01,490.897 1680.54,508.52 1686.06,476.204 1691.59,427.374 1697.12,366.425 1702.65,309.475 1708.17,254.109 1713.7,309.119 1719.23,361.799 1724.76,342.591 1730.28,510.978 1735.81,508.11 1741.34,426.009 1746.86,402.313 1752.39,452.766 1757.92,445.018 1763.45,409.255 1768.97,474.471 1774.5,401.223 1780.03,416.226 1785.56,332.077 1791.08,417.236 1796.61,377.029 1802.14,354.22 1803.87,374.986 1809.4,481.35 1814.92,594.566 1820.45,535.905 1825.98,657.901 1831.51,679.826 1837.03,657.763 1842.56,524.72 1848.09,566.414 1853.62,533.679 1859.14,559.464 1864.67,611.223 1870.2,684.525 1875.72,598.645 1881.25,597.302 1886.78,575.82 1892.31,648.916 1897.83,620.128 1903.36,668.064 1908.89,651.369 1914.42,670.864 1919.94,758.044 1925.47,686.801 1931,617.289 1936.52,567.253 1942.05,585.012 1947.58,596.217 1953.11,615.302 1958.63,617.703 1964.16,663.714 1969.69,610.269 1975.21,619.099 1980.74,676.955 1986.27,692.019 1991.8,704.434 1997.32,750.691 2002.85,875.849 2008.38,902.314 2013.91,919.43 2019.43,951.78 2024.96,1011.13 2030.49,1012.32 2036.01,1052.29 2041.54,1089.92 2047.07,1081.05 2052.6,1122.72 2058.12,1152.28 2063.65,1152.68 2069.18,1122.2 2074.71,1148.22 2080.23,1159.4 2085.76,1174.44 2091.29,1198.03 2096.81,1202.86 2102.34,1180.06 2107.87,1174.98 2113.4,1186.83 2118.92,1147.03 2124.45,1150.36 2129.98,1181.68 2135.51,1147.63 2141.03,1162.81 2146.56,1068.1 2152.09,998.826 2157.61,1012.53 2163.14,960.641 2168.67,936.952 2174.2,931.968 2179.72,859.91 2185.25,951.213 2190.78,919.076 2196.31,866.271 2201.83,858.515 2207.36,787.479 2212.89,805.746 2218.41,746.018 2223.94,660.924 2229.47,642.469 2235,662.08 2236.67,621.903 2242.2,476.147 2247.73,464.489 2253.25,458.1 2258.78,577.75 2264.31,679.337 2269.84,709.296 2275.36,677.642 2280.89,757.833 2286.42,550.903 2291.94,412.26 2297.47,506.333 2303,528.766 2308.53,410.72 2314.05,386.816 2319.58,320.829 2325.11,380.996 2330.64,383.773 2336.16,490.653 2341.69,414.152 2347.22,481.791 2352.74,420.031 2352.76,420.879 "/>
<polyline clip-path="url(#clip792)" style="stroke:#3da44d; stroke-linecap:round; stroke-linejoin:round; stroke-width:8; stroke-opacity:1; fill:none" points="141.853,735.212 147.38,735.212 152.907,729.666 158.435,722.964 163.962,713.994 169.489,704.197 175.016,694.738 180.544,683.28 186.071,670.779 191.598,657.612 197.126,645.337 202.653,633.182 208.18,619.015 213.707,607.744 219.235,595.986 224.762,583.199 230.289,569.827 235.816,557.317 241.344,542.893 246.871,529.723 252.398,515.14 257.925,499.897 263.453,483.75 268.98,469.261 274.507,454.509 280.034,439.625 285.562,424.609 291.089,409.393 296.616,394.909 302.143,379.627 307.671,363.616 313.198,346.941 318.725,331.019 324.252,314.818 329.78,299.795 335.307,284.153 340.834,268.978 346.361,252.533 351.889,237.124 357.416,221.314 362.943,204.233 368.47,187.814 373.998,171.423 379.525,155.757 385.052,139.443 390.58,122.653 396.107,105.063 401.634,86.8398 401.834,86.1857 407.361,717.117 412.888,700.459 418.415,685.052 423.943,669.203 429.47,652.423 434.997,636.241 440.524,621.37 446.052,605.531 451.579,592.736 457.106,580.689 462.633,567.844 468.161,553.806 473.688,538.613 479.215,525.074 484.742,513.183 490.27,501.507 495.797,491.466 501.324,481.235 506.851,469.966 512.379,459.073 517.906,447.894 523.433,436.465 528.96,426.186 534.488,416.101 540.015,406.977 545.542,397.629 551.07,387.673 556.597,377.836 562.124,368.433 567.651,359.623 573.179,350.481 578.706,342.396 584.233,333.713 589.76,325.292 595.288,317.701 600.815,310.672 606.342,303.598 611.869,296.56 617.397,290.474 622.924,284.752 628.451,279.129 633.978,274.426 639.506,269.654 645.033,264.968 650.56,260.657 656.087,257.271 661.615,253.834 667.142,251.091 672.669,248.317 678.196,245.846 683.724,243.356 689.251,241.174 694.778,239.148 700.305,236.976 705.833,234.645 711.36,232.89 716.887,231.281 722.415,229.555 727.942,228.024 733.469,225.554 738.996,223.075 744.524,220.622 750.051,217.521 755.578,214.003 761.105,210.494 766.633,206.305 772.16,202.532 777.687,198.085 783.214,192.693 788.742,186.503 794.269,179.593 799.796,172.561 805.323,164.15 810.851,154.038 816.378,144.709 821.905,135.274 827.432,125.51 832.96,115.109 838.487,104.478 844.014,92.8411 847.068,86.1857 852.596,722.651 858.123,709.638 863.65,695.884 869.177,682.142 874.705,667.024 880.232,653.129 885.759,638.692 891.286,626.974 896.814,614.032 902.341,600.623 907.868,588.952 913.395,576.91 918.923,561.924 924.45,546.686 929.977,531.729 935.504,517.966 941.032,501.991 946.559,488.098 952.086,473.681 957.613,457.17 963.141,441.876 968.668,426.18 974.195,412.238 979.722,399.118 985.25,385.584 990.777,371.515 996.304,356.864 1001.83,342.201 1007.36,327.875 1012.89,311.549 1018.41,296.91 1023.94,283.155 1029.47,267.452 1035,250.744 1040.52,234.53 1046.05,218.855 1051.58,204.01 1057.1,188.205 1062.63,173.419 1068.16,158.477 1073.69,143.941 1079.21,129.292 1084.74,115.542 1090.27,103.344 1095.79,89.3179 1097.08,86.1857 1102.61,722.071 1108.14,709.673 1113.66,696.516 1119.19,682.801 1124.72,669.083 1130.24,655.66 1135.77,641.945 1141.3,629.398 1146.83,617.374 1152.35,606.76 1157.88,595.218 1163.41,584.664 1168.94,571.872 1174.46,559.34 1179.99,544.219 1185.52,529.485 1191.04,515.774 1196.57,502.981 1202.1,490.218 1207.63,477.466 1213.15,464.571 1218.68,453.182 1224.21,443.706 1229.74,434.303 1235.26,424.415 1240.79,414.397 1246.32,405.091 1251.84,396.208 1257.37,388.631 1262.9,380.908 1268.43,372.985 1273.95,366.152 1279.48,359.41 1285.01,353.466 1290.53,347.447 1296.06,341.833 1301.59,335.972 1307.12,329.76 1312.64,323.059 1318.17,316.179 1323.7,309.749 1329.23,303.523 1334.75,297.489 1340.28,291.294 1345.81,285.874 1351.33,281.119 1356.86,277.092 1362.39,273.587 1367.92,269.991 1373.44,267.119 1378.97,264.449 1384.5,261.766 1390.03,259.347 1395.55,257.093 1401.08,255.036 1406.61,252.977 1412.13,250.994 1417.66,248.955 1423.19,247.178 1428.72,245.304 1434.24,243.556 1439.77,241.59 1445.3,238.88 1450.83,236.015 1456.35,233.389 1461.88,230.371 1467.41,226.128 1472.93,221.156 1478.46,216.072 1483.99,210.684 1489.52,204.209 1495.04,196.84 1500.57,188.393 1506.1,179.874 1511.63,170.557 1517.15,159.856 1522.68,148.911 1528.21,137.834 1533.73,126.271 1539.26,115.057 1544.79,104.28 1550.32,92.9364 1553.41,86.1857 1558.94,722.868 1564.46,708.789 1569.99,695.55 1575.52,680.913 1581.05,666.679 1586.57,653.656 1592.1,639.593 1597.63,626.358 1603.16,614.407 1608.68,601.516 1614.21,588.376 1619.74,574.401 1625.26,562.126 1630.79,548.099 1636.32,533.535 1641.85,518.29 1647.37,502.757 1652.9,486.867 1658.43,471.567 1663.96,455.919 1669.48,440.242 1675.01,427.304 1680.54,413.904 1686.06,400.768 1691.59,387.147 1697.12,372.794 1702.65,357.527 1708.17,341.406 1713.7,324.454 1719.23,308.327 1724.76,292.99 1730.28,277.366 1735.81,264.267 1741.34,251.125 1746.86,236.751 1752.39,222.022 1757.92,208.05 1763.45,193.962 1768.97,179.337 1774.5,165.691 1780.03,150.946 1785.56,136.425 1791.08,120.643 1796.61,106.138 1802.14,91.0298 1803.87,86.1857 1809.4,720.073 1814.92,706.53 1820.45,694.685 1825.98,681.96 1831.51,671.065 1837.03,660.499 1842.56,649.601 1848.09,636.709 1853.62,624.441 1859.14,611.683 1864.67,599.311 1870.2,587.716 1875.72,577.22 1881.25,565.436 1886.78,553.632 1892.31,541.506 1897.83,530.476 1903.36,519.015 1908.89,508.272 1914.42,497.279 1919.94,486.578 1925.47,477.185 1931,466.724 1936.52,455.22 1942.05,442.965 1947.58,430.976 1953.11,419.156 1958.63,407.622 1964.16,396.124 1969.69,385.316 1975.21,373.707 1980.74,362.23 1986.27,351.62 1991.8,341.237 1997.32,331.04 2002.85,321.537 2008.38,313.911 2013.91,306.682 2019.43,299.71 2024.96,293.223 2030.49,287.627 2036.01,282.048 2041.54,277.068 2047.07,272.654 2052.6,268.106 2058.12,264.183 2063.65,260.704 2069.18,257.231 2074.71,253.3 2080.23,249.76 2085.76,246.387 2091.29,243.24 2096.81,240.447 2102.34,237.726 2107.87,234.664 2113.4,231.525 2118.92,228.564 2124.45,225.006 2129.98,221.498 2135.51,218.459 2141.03,214.91 2146.56,211.589 2152.09,206.847 2157.61,201.065 2163.14,195.49 2168.67,189.136 2174.2,182.427 2179.72,175.642 2185.25,167.778 2190.78,161.282 2196.31,154.305 2201.83,146.535 2207.36,138.649 2212.89,129.698 2218.41,121.021 2223.94,111.447 2229.47,100.598 2235,89.471 2236.67,86.1857 2242.2,723.777 2247.73,710.156 2253.25,696.359 2258.78,682.467 2264.31,670.37 2269.84,659.796 2275.36,649.672 2280.89,639.073 2286.42,629.677 2291.94,617.177 2297.47,602.598 2303,589.429 2308.53,576.597 2314.05,561.994 2319.58,547.033 2325.11,531.082 2330.64,516.033 2336.16,501.026 2341.69,487.622 2347.22,473.071 2352.74,459.534 2352.76,459.505 "/>
<path clip-path="url(#clip790)" d="M2006.9 1377.32 L2279.06 1377.32 L2279.06 1169.96 L2006.9 1169.96  Z" fill="#ffffff" fill-rule="evenodd" fill-opacity="1"/>
<polyline clip-path="url(#clip790)" style="stroke:#000000; stroke-linecap:round; stroke-linejoin:round; stroke-width:4; stroke-opacity:1; fill:none" points="2006.9,1377.32 2279.06,1377.32 2279.06,1169.96 2006.9,1169.96 2006.9,1377.32 "/>
<polyline clip-path="url(#clip790)" style="stroke:#009af9; stroke-linecap:round; stroke-linejoin:round; stroke-width:8; stroke-opacity:1; fill:none" points="2031.47,1221.8 2178.86,1221.8 "/>
<path clip-path="url(#clip790)" d="M2228.98 1234.14 L2228.98 1224.86 L2221.35 1224.86 L2221.35 1221.02 L2233.61 1221.02 L2233.61 1235.86 Q2230.91 1237.78 2227.64 1238.77 Q2224.38 1239.75 2220.67 1239.75 Q2212.57 1239.75 2207.99 1235.02 Q2203.43 1230.28 2203.43 1221.83 Q2203.43 1213.36 2207.99 1208.64 Q2212.57 1203.89 2220.67 1203.89 Q2224.05 1203.89 2227.09 1204.72 Q2230.14 1205.56 2232.71 1207.18 L2232.71 1212.15 Q2230.12 1209.96 2227.2 1208.84 Q2224.29 1207.73 2221.07 1207.73 Q2214.73 1207.73 2211.53 1211.27 Q2208.36 1214.82 2208.36 1221.83 Q2208.36 1228.82 2211.53 1232.36 Q2214.73 1235.9 2221.07 1235.9 Q2223.54 1235.9 2225.49 1235.49 Q2227.43 1235.05 2228.98 1234.14 Z" fill="#000000" fill-rule="nonzero" fill-opacity="1" /><polyline clip-path="url(#clip790)" style="stroke:#e26f46; stroke-linecap:round; stroke-linejoin:round; stroke-width:8; stroke-opacity:1; fill:none" points="2031.47,1273.64 2178.86,1273.64 "/>
<path clip-path="url(#clip790)" d="M2228.98 1285.98 L2228.98 1276.7 L2221.35 1276.7 L2221.35 1272.86 L2233.61 1272.86 L2233.61 1287.7 Q2230.91 1289.62 2227.64 1290.61 Q2224.38 1291.59 2220.67 1291.59 Q2212.57 1291.59 2207.99 1286.86 Q2203.43 1282.12 2203.43 1273.67 Q2203.43 1265.2 2207.99 1260.48 Q2212.57 1255.73 2220.67 1255.73 Q2224.05 1255.73 2227.09 1256.56 Q2230.14 1257.4 2232.71 1259.02 L2232.71 1263.99 Q2230.12 1261.8 2227.2 1260.68 Q2224.29 1259.57 2221.07 1259.57 Q2214.73 1259.57 2211.53 1263.11 Q2208.36 1266.66 2208.36 1273.67 Q2208.36 1280.66 2211.53 1284.2 Q2214.73 1287.74 2221.07 1287.74 Q2223.54 1287.74 2225.49 1287.33 Q2227.43 1286.89 2228.98 1285.98 Z" fill="#000000" fill-rule="nonzero" fill-opacity="1" /><path clip-path="url(#clip790)" d="M2243.38 1258.25 L2243.38 1265.52 L2247.09 1265.52 Q2249.15 1265.52 2250.26 1264.57 Q2251.39 1263.62 2251.39 1261.89 Q2251.39 1260.15 2250.26 1259.2 Q2249.15 1258.25 2247.09 1258.25 L2243.38 1258.25 M2240.44 1256.1 L2247.09 1256.1 Q2250.74 1256.1 2252.62 1257.56 Q2254.49 1259.04 2254.49 1261.89 Q2254.49 1264.73 2252.62 1266.22 Q2250.74 1267.67 2247.09 1267.67 L2243.38 1267.67 L2243.38 1275.45 L2240.44 1275.45 L2240.44 1256.1 Z" fill="#000000" fill-rule="nonzero" fill-opacity="1" /><polyline clip-path="url(#clip790)" style="stroke:#3da44d; stroke-linecap:round; stroke-linejoin:round; stroke-width:8; stroke-opacity:1; fill:none" points="2031.47,1325.48 2178.86,1325.48 "/>
<path clip-path="url(#clip790)" d="M2216.62 1342.76 L2203.43 1308.2 L2208.31 1308.2 L2219.26 1337.29 L2230.23 1308.2 L2235.1 1308.2 L2221.92 1342.76 L2216.62 1342.76 Z" fill="#000000" fill-rule="nonzero" fill-opacity="1" /></svg>
