<?xml version="1.0" encoding="utf-8"?>
<svg xmlns="http://www.w3.org/2000/svg" xmlns:xlink="http://www.w3.org/1999/xlink" width="800" height="400" viewBox="0 0 3200 1600">
<defs>
  <clipPath id="clip600">
    <rect x="0" y="0" width="3200" height="1600"/>
  </clipPath>
</defs>
<path clip-path="url(#clip600)" d="M0 1600 L3200 1600 L3200 0 L0 0  Z" fill="#ffffff" fill-rule="evenodd" fill-opacity="1"/>
<defs>
  <clipPath id="clip601">
    <rect x="640" y="0" width="2241" height="1600"/>
  </clipPath>
</defs>
<path clip-path="url(#clip600)" d="M167.421 1396.46 L3152.76 1396.46 L3152.76 47.2441 L167.421 47.2441  Z" fill="#ffffff" fill-rule="evenodd" fill-opacity="1"/>
<defs>
  <clipPath id="clip602">
    <rect x="167" y="47" width="2986" height="1350"/>
  </clipPath>
</defs>
<polyline clip-path="url(#clip602)" style="stroke:#000000; stroke-linecap:round; stroke-linejoin:round; stroke-width:2; stroke-opacity:0.1; fill:none" points="167.421,1396.46 167.421,47.2441 "/>
<polyline clip-path="url(#clip602)" style="stroke:#000000; stroke-linecap:round; stroke-linejoin:round; stroke-width:2; stroke-opacity:0.1; fill:none" points="764.488,1396.46 764.488,47.2441 "/>
<polyline clip-path="url(#clip602)" style="stroke:#000000; stroke-linecap:round; stroke-linejoin:round; stroke-width:2; stroke-opacity:0.1; fill:none" points="1361.56,1396.46 1361.56,47.2441 "/>
<polyline clip-path="url(#clip602)" style="stroke:#000000; stroke-linecap:round; stroke-linejoin:round; stroke-width:2; stroke-opacity:0.1; fill:none" points="1958.62,1396.46 1958.62,47.2441 "/>
<polyline clip-path="url(#clip602)" style="stroke:#000000; stroke-linecap:round; stroke-linejoin:round; stroke-width:2; stroke-opacity:0.1; fill:none" points="2555.69,1396.46 2555.69,47.2441 "/>
<polyline clip-path="url(#clip602)" style="stroke:#000000; stroke-linecap:round; stroke-linejoin:round; stroke-width:2; stroke-opacity:0.1; fill:none" points="3152.76,1396.46 3152.76,47.2441 "/>
<polyline clip-path="url(#clip602)" style="stroke:#000000; stroke-linecap:round; stroke-linejoin:round; stroke-width:2; stroke-opacity:0.1; fill:none" points="167.421,1396.46 167.421,47.2441 "/>
<polyline clip-path="url(#clip602)" style="stroke:#000000; stroke-linecap:round; stroke-linejoin:round; stroke-width:2; stroke-opacity:0.1; fill:none" points="764.488,1396.46 764.488,47.2441 "/>
<polyline clip-path="url(#clip602)" style="stroke:#000000; stroke-linecap:round; stroke-linejoin:round; stroke-width:2; stroke-opacity:0.1; fill:none" points="1361.56,1396.46 1361.56,47.2441 "/>
<polyline clip-path="url(#clip602)" style="stroke:#000000; stroke-linecap:round; stroke-linejoin:round; stroke-width:2; stroke-opacity:0.1; fill:none" points="1958.62,1396.46 1958.62,47.2441 "/>
<polyline clip-path="url(#clip602)" style="stroke:#000000; stroke-linecap:round; stroke-linejoin:round; stroke-width:2; stroke-opacity:0.1; fill:none" points="2555.69,1396.46 2555.69,47.2441 "/>
<polyline clip-path="url(#clip602)" style="stroke:#000000; stroke-linecap:round; stroke-linejoin:round; stroke-width:2; stroke-opacity:0.1; fill:none" points="3152.76,1396.46 3152.76,47.2441 "/>
<polyline clip-path="url(#clip602)" style="stroke:#000000; stroke-linecap:round; stroke-linejoin:round; stroke-width:2; stroke-opacity:0.1; fill:none" points="167.421,1388.31 3152.76,1388.31 "/>
<polyline clip-path="url(#clip602)" style="stroke:#000000; stroke-linecap:round; stroke-linejoin:round; stroke-width:2; stroke-opacity:0.1; fill:none" points="167.421,1087.89 3152.76,1087.89 "/>
<polyline clip-path="url(#clip602)" style="stroke:#000000; stroke-linecap:round; stroke-linejoin:round; stroke-width:2; stroke-opacity:0.1; fill:none" points="167.421,787.47 3152.76,787.47 "/>
<polyline clip-path="url(#clip602)" style="stroke:#000000; stroke-linecap:round; stroke-linejoin:round; stroke-width:2; stroke-opacity:0.1; fill:none" points="167.421,487.049 3152.76,487.049 "/>
<polyline clip-path="url(#clip602)" style="stroke:#000000; stroke-linecap:round; stroke-linejoin:round; stroke-width:2; stroke-opacity:0.1; fill:none" points="167.421,186.628 3152.76,186.628 "/>
<polyline clip-path="url(#clip602)" style="stroke:#000000; stroke-linecap:round; stroke-linejoin:round; stroke-width:2; stroke-opacity:0.1; fill:none" points="167.421,1388.31 3152.76,1388.31 "/>
<polyline clip-path="url(#clip602)" style="stroke:#000000; stroke-linecap:round; stroke-linejoin:round; stroke-width:2; stroke-opacity:0.1; fill:none" points="167.421,1087.89 3152.76,1087.89 "/>
<polyline clip-path="url(#clip602)" style="stroke:#000000; stroke-linecap:round; stroke-linejoin:round; stroke-width:2; stroke-opacity:0.1; fill:none" points="167.421,787.47 3152.76,787.47 "/>
<polyline clip-path="url(#clip602)" style="stroke:#000000; stroke-linecap:round; stroke-linejoin:round; stroke-width:2; stroke-opacity:0.1; fill:none" points="167.421,487.049 3152.76,487.049 "/>
<polyline clip-path="url(#clip602)" style="stroke:#000000; stroke-linecap:round; stroke-linejoin:round; stroke-width:2; stroke-opacity:0.1; fill:none" points="167.421,186.628 3152.76,186.628 "/>
<polyline clip-path="url(#clip600)" style="stroke:#000000; stroke-linecap:round; stroke-linejoin:round; stroke-width:4; stroke-opacity:1; fill:none" points="167.421,1396.46 3152.76,1396.46 "/>
<polyline clip-path="url(#clip600)" style="stroke:#000000; stroke-linecap:round; stroke-linejoin:round; stroke-width:4; stroke-opacity:1; fill:none" points="167.421,47.2441 3152.76,47.2441 "/>
<polyline clip-path="url(#clip600)" style="stroke:#000000; stroke-linecap:round; stroke-linejoin:round; stroke-width:4; stroke-opacity:1; fill:none" points="167.421,1396.46 167.421,1377.56 "/>
<polyline clip-path="url(#clip600)" style="stroke:#000000; stroke-linecap:round; stroke-linejoin:round; stroke-width:4; stroke-opacity:1; fill:none" points="764.488,1396.46 764.488,1377.56 "/>
<polyline clip-path="url(#clip600)" style="stroke:#000000; stroke-linecap:round; stroke-linejoin:round; stroke-width:4; stroke-opacity:1; fill:none" points="1361.56,1396.46 1361.56,1377.56 "/>
<polyline clip-path="url(#clip600)" style="stroke:#000000; stroke-linecap:round; stroke-linejoin:round; stroke-width:4; stroke-opacity:1; fill:none" points="1958.62,1396.46 1958.62,1377.56 "/>
<polyline clip-path="url(#clip600)" style="stroke:#000000; stroke-linecap:round; stroke-linejoin:round; stroke-width:4; stroke-opacity:1; fill:none" points="2555.69,1396.46 2555.69,1377.56 "/>
<polyline clip-path="url(#clip600)" style="stroke:#000000; stroke-linecap:round; stroke-linejoin:round; stroke-width:4; stroke-opacity:1; fill:none" points="3152.76,1396.46 3152.76,1377.56 "/>
<polyline clip-path="url(#clip600)" style="stroke:#000000; stroke-linecap:round; stroke-linejoin:round; stroke-width:4; stroke-opacity:1; fill:none" points="167.421,47.2441 167.421,66.1417 "/>
<polyline clip-path="url(#clip600)" style="stroke:#000000; stroke-linecap:round; stroke-linejoin:round; stroke-width:4; stroke-opacity:1; fill:none" points="764.488,47.2441 764.488,66.1417 "/>
<polyline clip-path="url(#clip600)" style="stroke:#000000; stroke-linecap:round; stroke-linejoin:round; stroke-width:4; stroke-opacity:1; fill:none" points="1361.56,47.2441 1361.56,66.1417 "/>
<polyline clip-path="url(#clip600)" style="stroke:#000000; stroke-linecap:round; stroke-linejoin:round; stroke-width:4; stroke-opacity:1; fill:none" points="1958.62,47.2441 1958.62,66.1417 "/>
<polyline clip-path="url(#clip600)" style="stroke:#000000; stroke-linecap:round; stroke-linejoin:round; stroke-width:4; stroke-opacity:1; fill:none" points="2555.69,47.2441 2555.69,66.1417 "/>
<polyline clip-path="url(#clip600)" style="stroke:#000000; stroke-linecap:round; stroke-linejoin:round; stroke-width:4; stroke-opacity:1; fill:none" points="3152.76,47.2441 3152.76,66.1417 "/>
<path clip-path="url(#clip600)" d="M167.421 1433.77 Q163.81 1433.77 161.981 1437.34 Q160.176 1440.88 160.176 1448.01 Q160.176 1455.12 161.981 1458.68 Q163.81 1462.22 167.421 1462.22 Q171.056 1462.22 172.861 1458.68 Q174.69 1455.12 174.69 1448.01 Q174.69 1440.88 172.861 1437.34 Q171.056 1433.77 167.421 1433.77 M167.421 1430.07 Q173.231 1430.07 176.287 1434.68 Q179.366 1439.26 179.366 1448.01 Q179.366 1456.74 176.287 1461.34 Q173.231 1465.93 167.421 1465.93 Q161.611 1465.93 158.532 1461.34 Q155.477 1456.74 155.477 1448.01 Q155.477 1439.26 158.532 1434.68 Q161.611 1430.07 167.421 1430.07 Z" fill="#000000" fill-rule="nonzero" fill-opacity="1" /><path clip-path="url(#clip600)" d="M759.141 1461.32 L775.46 1461.32 L775.46 1465.26 L753.516 1465.26 L753.516 1461.32 Q756.178 1458.57 760.761 1453.94 Q765.368 1449.28 766.548 1447.94 Q768.794 1445.42 769.673 1443.68 Q770.576 1441.92 770.576 1440.23 Q770.576 1437.48 768.632 1435.74 Q766.71 1434.01 763.609 1434.01 Q761.41 1434.01 758.956 1434.77 Q756.525 1435.53 753.748 1437.08 L753.748 1432.36 Q756.572 1431.23 759.025 1430.65 Q761.479 1430.07 763.516 1430.07 Q768.886 1430.07 772.081 1432.76 Q775.275 1435.44 775.275 1439.93 Q775.275 1442.06 774.465 1443.98 Q773.678 1445.88 771.571 1448.47 Q770.993 1449.14 767.891 1452.36 Q764.789 1455.56 759.141 1461.32 Z" fill="#000000" fill-rule="nonzero" fill-opacity="1" /><path clip-path="url(#clip600)" d="M1364.56 1434.77 L1352.76 1453.22 L1364.56 1453.22 L1364.56 1434.77 M1363.34 1430.7 L1369.22 1430.7 L1369.22 1453.22 L1374.15 1453.22 L1374.15 1457.11 L1369.22 1457.11 L1369.22 1465.26 L1364.56 1465.26 L1364.56 1457.11 L1348.96 1457.11 L1348.96 1452.59 L1363.34 1430.7 Z" fill="#000000" fill-rule="nonzero" fill-opacity="1" /><path clip-path="url(#clip600)" d="M1959.03 1446.11 Q1955.88 1446.11 1954.03 1448.27 Q1952.2 1450.42 1952.2 1454.17 Q1952.2 1457.89 1954.03 1460.07 Q1955.88 1462.22 1959.03 1462.22 Q1962.18 1462.22 1964 1460.07 Q1965.86 1457.89 1965.86 1454.17 Q1965.86 1450.42 1964 1448.27 Q1962.18 1446.11 1959.03 1446.11 M1968.31 1431.46 L1968.31 1435.72 Q1966.55 1434.89 1964.74 1434.45 Q1962.96 1434.01 1961.2 1434.01 Q1956.57 1434.01 1954.12 1437.13 Q1951.69 1440.26 1951.34 1446.58 Q1952.71 1444.56 1954.77 1443.5 Q1956.83 1442.41 1959.3 1442.41 Q1964.51 1442.41 1967.52 1445.58 Q1970.55 1448.73 1970.55 1454.17 Q1970.55 1459.49 1967.41 1462.71 Q1964.26 1465.93 1959.03 1465.93 Q1953.03 1465.93 1949.86 1461.34 Q1946.69 1456.74 1946.69 1448.01 Q1946.69 1439.82 1950.58 1434.95 Q1954.47 1430.07 1961.02 1430.07 Q1962.78 1430.07 1964.56 1430.42 Q1966.37 1430.77 1968.31 1431.46 Z" fill="#000000" fill-rule="nonzero" fill-opacity="1" /><path clip-path="url(#clip600)" d="M2555.69 1448.84 Q2552.36 1448.84 2550.43 1450.63 Q2548.54 1452.41 2548.54 1455.53 Q2548.54 1458.66 2550.43 1460.44 Q2552.36 1462.22 2555.69 1462.22 Q2559.02 1462.22 2560.94 1460.44 Q2562.86 1458.64 2562.86 1455.53 Q2562.86 1452.41 2560.94 1450.63 Q2559.05 1448.84 2555.69 1448.84 M2551.01 1446.85 Q2548 1446.11 2546.31 1444.05 Q2544.65 1441.99 2544.65 1439.03 Q2544.65 1434.89 2547.59 1432.48 Q2550.55 1430.07 2555.69 1430.07 Q2560.85 1430.07 2563.79 1432.48 Q2566.73 1434.89 2566.73 1439.03 Q2566.73 1441.99 2565.04 1444.05 Q2563.37 1446.11 2560.39 1446.85 Q2563.77 1447.64 2565.64 1449.93 Q2567.54 1452.22 2567.54 1455.53 Q2567.54 1460.56 2564.46 1463.24 Q2561.41 1465.93 2555.69 1465.93 Q2549.97 1465.93 2546.89 1463.24 Q2543.84 1460.56 2543.84 1455.53 Q2543.84 1452.22 2545.74 1449.93 Q2547.63 1447.64 2551.01 1446.85 M2549.3 1439.47 Q2549.3 1442.15 2550.97 1443.66 Q2552.66 1445.16 2555.69 1445.16 Q2558.7 1445.16 2560.39 1443.66 Q2562.1 1442.15 2562.1 1439.47 Q2562.1 1436.78 2560.39 1435.28 Q2558.7 1433.77 2555.69 1433.77 Q2552.66 1433.77 2550.97 1435.28 Q2549.3 1436.78 2549.3 1439.47 Z" fill="#000000" fill-rule="nonzero" fill-opacity="1" /><path clip-path="url(#clip600)" d="M3127.44 1461.32 L3135.08 1461.32 L3135.08 1434.95 L3126.77 1436.62 L3126.77 1432.36 L3135.04 1430.7 L3139.71 1430.7 L3139.71 1461.32 L3147.35 1461.32 L3147.35 1465.26 L3127.44 1465.26 L3127.44 1461.32 Z" fill="#000000" fill-rule="nonzero" fill-opacity="1" /><path clip-path="url(#clip600)" d="M3166.8 1433.77 Q3163.18 1433.77 3161.36 1437.34 Q3159.55 1440.88 3159.55 1448.01 Q3159.55 1455.12 3161.36 1458.68 Q3163.18 1462.22 3166.8 1462.22 Q3170.43 1462.22 3172.23 1458.68 Q3174.06 1455.12 3174.06 1448.01 Q3174.06 1440.88 3172.23 1437.34 Q3170.43 1433.77 3166.8 1433.77 M3166.8 1430.07 Q3172.61 1430.07 3175.66 1434.68 Q3178.74 1439.26 3178.74 1448.01 Q3178.74 1456.74 3175.66 1461.34 Q3172.61 1465.93 3166.8 1465.93 Q3160.99 1465.93 3157.91 1461.34 Q3154.85 1456.74 3154.85 1448.01 Q3154.85 1439.26 3157.91 1434.68 Q3160.99 1430.07 3166.8 1430.07 Z" fill="#000000" fill-rule="nonzero" fill-opacity="1" /><path clip-path="url(#clip600)" d="M1659.15 1507.55 L1659.15 1517.67 L1671.21 1517.67 L1671.21 1522.22 L1659.15 1522.22 L1659.15 1541.58 Q1659.15 1545.94 1660.33 1547.18 Q1661.54 1548.42 1665.2 1548.42 L1671.21 1548.42 L1671.21 1553.32 L1665.2 1553.32 Q1658.42 1553.32 1655.84 1550.81 Q1653.26 1548.26 1653.26 1541.58 L1653.26 1522.22 L1648.96 1522.22 L1648.96 1517.67 L1653.26 1517.67 L1653.26 1507.55 L1659.15 1507.55 Z" fill="#000000" fill-rule="nonzero" fill-opacity="1" /><polyline clip-path="url(#clip600)" style="stroke:#000000; stroke-linecap:round; stroke-linejoin:round; stroke-width:4; stroke-opacity:1; fill:none" points="167.421,1396.46 167.421,47.2441 "/>
<polyline clip-path="url(#clip600)" style="stroke:#000000; stroke-linecap:round; stroke-linejoin:round; stroke-width:4; stroke-opacity:1; fill:none" points="3152.76,1396.46 3152.76,47.2441 "/>
<polyline clip-path="url(#clip600)" style="stroke:#000000; stroke-linecap:round; stroke-linejoin:round; stroke-width:4; stroke-opacity:1; fill:none" points="167.421,1388.31 186.319,1388.31 "/>
<polyline clip-path="url(#clip600)" style="stroke:#000000; stroke-linecap:round; stroke-linejoin:round; stroke-width:4; stroke-opacity:1; fill:none" points="167.421,1087.89 186.319,1087.89 "/>
<polyline clip-path="url(#clip600)" style="stroke:#000000; stroke-linecap:round; stroke-linejoin:round; stroke-width:4; stroke-opacity:1; fill:none" points="167.421,787.47 186.319,787.47 "/>
<polyline clip-path="url(#clip600)" style="stroke:#000000; stroke-linecap:round; stroke-linejoin:round; stroke-width:4; stroke-opacity:1; fill:none" points="167.421,487.049 186.319,487.049 "/>
<polyline clip-path="url(#clip600)" style="stroke:#000000; stroke-linecap:round; stroke-linejoin:round; stroke-width:4; stroke-opacity:1; fill:none" points="167.421,186.628 186.319,186.628 "/>
<polyline clip-path="url(#clip600)" style="stroke:#000000; stroke-linecap:round; stroke-linejoin:round; stroke-width:4; stroke-opacity:1; fill:none" points="3152.76,1388.31 3133.86,1388.31 "/>
<polyline clip-path="url(#clip600)" style="stroke:#000000; stroke-linecap:round; stroke-linejoin:round; stroke-width:4; stroke-opacity:1; fill:none" points="3152.76,1087.89 3133.86,1087.89 "/>
<polyline clip-path="url(#clip600)" style="stroke:#000000; stroke-linecap:round; stroke-linejoin:round; stroke-width:4; stroke-opacity:1; fill:none" points="3152.76,787.47 3133.86,787.47 "/>
<polyline clip-path="url(#clip600)" style="stroke:#000000; stroke-linecap:round; stroke-linejoin:round; stroke-width:4; stroke-opacity:1; fill:none" points="3152.76,487.049 3133.86,487.049 "/>
<polyline clip-path="url(#clip600)" style="stroke:#000000; stroke-linecap:round; stroke-linejoin:round; stroke-width:4; stroke-opacity:1; fill:none" points="3152.76,186.628 3133.86,186.628 "/>
<path clip-path="url(#clip600)" d="M107.477 1374.11 Q103.866 1374.11 102.037 1377.68 Q100.232 1381.22 100.232 1388.35 Q100.232 1395.45 102.037 1399.02 Q103.866 1402.56 107.477 1402.56 Q111.111 1402.56 112.917 1399.02 Q114.745 1395.45 114.745 1388.35 Q114.745 1381.22 112.917 1377.68 Q111.111 1374.11 107.477 1374.11 M107.477 1370.41 Q113.287 1370.41 116.343 1375.01 Q119.421 1379.6 119.421 1388.35 Q119.421 1397.07 116.343 1401.68 Q113.287 1406.26 107.477 1406.26 Q101.667 1406.26 98.588 1401.68 Q95.5325 1397.07 95.5325 1388.35 Q95.5325 1379.6 98.588 1375.01 Q101.667 1370.41 107.477 1370.41 Z" fill="#000000" fill-rule="nonzero" fill-opacity="1" /><path clip-path="url(#clip600)" d="M99.514 1101.24 L107.153 1101.24 L107.153 1074.87 L98.8427 1076.54 L98.8427 1072.28 L107.107 1070.61 L111.782 1070.61 L111.782 1101.24 L119.421 1101.24 L119.421 1105.17 L99.514 1105.17 L99.514 1101.24 Z" fill="#000000" fill-rule="nonzero" fill-opacity="1" /><path clip-path="url(#clip600)" d="M103.102 800.815 L119.421 800.815 L119.421 804.75 L97.4769 804.75 L97.4769 800.815 Q100.139 798.06 104.722 793.431 Q109.329 788.778 110.509 787.435 Q112.755 784.912 113.634 783.176 Q114.537 781.417 114.537 779.727 Q114.537 776.973 112.593 775.236 Q110.671 773.5 107.569 773.5 Q105.37 773.5 102.917 774.264 Q100.486 775.028 97.7084 776.579 L97.7084 771.857 Q100.532 770.723 102.986 770.144 Q105.44 769.565 107.477 769.565 Q112.847 769.565 116.042 772.25 Q119.236 774.936 119.236 779.426 Q119.236 781.556 118.426 783.477 Q117.639 785.375 115.532 787.968 Q114.954 788.639 111.852 791.857 Q108.75 795.051 103.102 800.815 Z" fill="#000000" fill-rule="nonzero" fill-opacity="1" /><path clip-path="url(#clip600)" d="M112.292 485.695 Q115.648 486.412 117.523 488.681 Q119.421 490.949 119.421 494.283 Q119.421 499.398 115.903 502.199 Q112.384 505 105.903 505 Q103.727 505 101.412 504.56 Q99.1205 504.144 96.6668 503.287 L96.6668 498.773 Q98.6112 499.908 100.926 500.486 Q103.241 501.065 105.764 501.065 Q110.162 501.065 112.454 499.329 Q114.769 497.593 114.769 494.283 Q114.769 491.227 112.616 489.514 Q110.486 487.778 106.667 487.778 L102.639 487.778 L102.639 483.936 L106.852 483.936 Q110.301 483.936 112.13 482.57 Q113.958 481.181 113.958 478.588 Q113.958 475.926 112.06 474.514 Q110.185 473.079 106.667 473.079 Q104.745 473.079 102.546 473.496 Q100.347 473.912 97.7084 474.792 L97.7084 470.625 Q100.37 469.885 102.685 469.514 Q105.023 469.144 107.083 469.144 Q112.407 469.144 115.509 471.575 Q118.611 473.982 118.611 478.102 Q118.611 480.973 116.968 482.963 Q115.324 484.931 112.292 485.695 Z" fill="#000000" fill-rule="nonzero" fill-opacity="1" /><path clip-path="url(#clip600)" d="M109.838 173.422 L98.0325 191.871 L109.838 191.871 L109.838 173.422 M108.611 169.348 L114.491 169.348 L114.491 191.871 L119.421 191.871 L119.421 195.76 L114.491 195.76 L114.491 203.908 L109.838 203.908 L109.838 195.76 L94.2362 195.76 L94.2362 191.246 L108.611 169.348 Z" fill="#000000" fill-rule="nonzero" fill-opacity="1" /><polyline clip-path="url(#clip602)" style="stroke:#009af9; stroke-linecap:round; stroke-linejoin:round; stroke-width:12; stroke-opacity:1; fill:none" points="167.421,1358.27 170.41,1355.33 173.398,1352.39 176.386,1349.46 179.375,1346.53 182.363,1343.61 185.351,1340.69 188.34,1337.78 191.328,1334.88 194.316,1331.98 197.305,1329.09 200.293,1326.21 203.281,1323.33 206.269,1320.45 209.258,1317.58 212.246,1314.72 215.234,1311.86 218.223,1309.01 221.211,1306.17 224.199,1303.33 227.188,1300.49 230.176,1297.66 233.164,1294.84 236.153,1292.02 239.141,1289.21 242.129,1286.41 245.118,1283.61 248.106,1280.81 251.094,1278.02 254.083,1275.24 257.071,1272.46 260.059,1269.69 263.048,1266.92 266.036,1264.16 269.024,1261.4 272.013,1258.65 275.001,1255.91 277.989,1253.17 280.978,1250.44 283.966,1247.71 286.954,1244.98 289.943,1242.27 292.931,1239.55 295.919,1236.85 298.907,1234.15 301.896,1231.45 304.884,1228.76 307.872,1226.07 310.861,1223.4 313.849,1220.72 316.837,1218.05 319.826,1215.39 322.814,1212.73 325.802,1210.08 328.791,1207.43 331.779,1204.79 334.767,1202.15 337.756,1199.52 340.744,1196.89 343.732,1194.27 346.721,1191.65 349.709,1189.04 352.697,1186.44 355.686,1183.84 358.674,1181.24 361.662,1178.65 364.651,1176.07 367.639,1173.49 370.627,1170.91 373.616,1168.34 376.604,1165.78 379.592,1163.22 382.581,1160.66 385.569,1158.12 388.557,1155.57 391.545,1153.03 394.534,1150.5 397.522,1147.97 400.51,1145.45 403.499,1142.93 406.487,1140.42 409.475,1137.91 412.464,1135.4 415.452,1132.91 418.44,1130.41 421.429,1127.92 424.417,1125.44 427.405,1122.96 430.394,1120.49 433.382,1118.02 436.37,1115.56 439.359,1113.1 442.347,1110.64 445.335,1108.19 448.324,1105.75 451.312,1103.31 454.3,1100.88 457.289,1098.45 460.277,1096.02 463.265,1093.6 466.254,1091.19 469.242,1088.78 472.23,1086.37 475.219,1083.97 478.207,1081.58 481.195,1079.19 484.184,1076.8 487.172,1074.42 490.16,1072.04 493.148,1069.67 496.137,1067.31 499.125,1064.94 502.113,1062.59 505.102,1060.23 508.09,1057.88 511.078,1055.54 514.067,1053.2 517.055,1050.87 520.043,1048.54 523.032,1046.21 526.02,1043.89 529.008,1041.58 531.997,1039.27 534.985,1036.96 537.973,1034.66 540.962,1032.36 543.95,1030.07 546.938,1027.78 549.927,1025.5 552.915,1023.22 555.903,1020.95 558.892,1018.68 561.88,1016.41 564.868,1014.15 567.857,1011.9 570.845,1009.65 573.833,1007.4 576.822,1005.16 579.81,1002.92 582.798,1000.69 585.786,998.457 588.775,996.232 591.763,994.012 594.751,991.797 597.74,989.585 600.728,987.379 603.716,985.176 606.705,982.978 609.693,980.785 612.681,978.596 615.67,976.411 618.658,974.23 621.646,972.054 624.635,969.883 627.623,967.715 630.611,965.552 633.6,963.394 636.588,961.239 639.576,959.089 642.565,956.943 645.553,954.802 648.541,952.665 651.53,950.532 654.518,948.403 657.506,946.279 660.495,944.159 663.483,942.043 666.471,939.931 669.46,937.824 672.448,935.72 675.436,933.621 678.424,931.526 681.413,929.436 684.401,927.349 687.389,925.267 690.378,923.189 693.366,921.115 696.354,919.045 699.343,916.979 702.331,914.918 705.319,912.861 708.308,910.807 711.296,908.758 714.284,906.713 717.273,904.672 720.261,902.635 723.249,900.602 726.238,898.573 729.226,896.549 732.214,894.528 735.203,892.511 738.191,890.499 741.179,888.49 744.168,886.486 747.156,884.485 750.144,882.488 753.133,880.496 756.121,878.507 759.109,876.523 762.098,874.542 765.086,872.565 768.074,870.593 771.063,868.624 774.051,866.659 777.039,864.698 780.027,862.741 783.016,860.788 786.004,858.839 788.992,856.894 791.981,854.952 794.969,853.015 797.957,851.081 800.946,849.152 803.934,847.226 806.922,845.304 809.911,843.385 812.899,841.471 815.887,839.561 818.876,837.654 821.864,835.751 824.852,833.852 827.841,831.957 830.829,830.065 833.817,828.177 836.806,826.293 839.794,824.413 842.782,822.537 845.771,820.664 848.759,818.795 851.747,816.93 854.736,815.069 857.724,813.211 860.712,811.357 863.701,809.507 866.689,807.66 869.677,805.817 872.665,803.978 875.654,802.142 878.642,800.31 881.63,798.482 884.619,796.658 887.607,794.837 890.595,793.02 893.584,791.206 896.572,789.396 899.56,787.59 902.549,785.787 905.537,783.988 908.525,782.192 911.514,780.4 914.502,778.612 917.49,776.827 920.479,775.046 923.467,773.268 926.455,771.494 929.444,769.723 932.432,767.956 935.42,766.193 938.409,764.433 941.397,762.676 944.385,760.923 947.374,759.174 950.362,757.428 953.35,755.685 956.339,753.947 959.327,752.211 962.315,750.479 965.304,748.75 968.292,747.025 971.28,745.304 974.268,743.585 977.257,741.871 980.245,740.159 983.233,738.451 986.222,736.747 989.21,735.046 992.198,733.348 995.187,731.654 998.175,729.963 1001.16,728.275 1004.15,726.591 1007.14,724.91 1010.13,723.233 1013.12,721.559 1016.1,719.888 1019.09,718.221 1022.08,716.557 1025.07,714.896 1028.06,713.239 1031.05,711.585 1034.03,709.934 1037.02,708.286 1040.01,706.642 1043,705.001 1045.99,703.364 1048.98,701.729 1051.96,700.098 1054.95,698.471 1057.94,696.846 1060.93,695.225 1063.92,693.607 1066.91,691.992 1069.89,690.38 1072.88,688.772 1075.87,687.167 1078.86,685.565 1081.85,683.966 1084.84,682.371 1087.82,680.778 1090.81,679.189 1093.8,677.603 1096.79,676.021 1099.78,674.441 1102.77,672.864 1105.75,671.291 1108.74,669.721 1111.73,668.154 1114.72,666.59 1117.71,665.029 1120.7,663.472 1123.68,661.917 1126.67,660.366 1129.66,658.817 1132.65,657.272 1135.64,655.73 1138.63,654.191 1141.61,652.655 1144.6,651.122 1147.59,649.592 1150.58,648.066 1153.57,646.542 1156.56,645.021 1159.54,643.504 1162.53,641.989 1165.52,640.477 1168.51,638.969 1171.5,637.463 1174.49,635.961 1177.47,634.461 1180.46,632.965 1183.45,631.471 1186.44,629.981 1189.43,628.493 1192.42,627.009 1195.4,625.527 1198.39,624.049 1201.38,622.573 1204.37,621.1 1207.36,619.63 1210.35,618.164 1213.33,616.7 1216.32,615.239 1219.31,613.781 1222.3,612.325 1225.29,610.873 1228.28,609.424 1231.26,607.978 1234.25,606.534 1237.24,605.093 1240.23,603.656 1243.22,602.221 1246.21,600.789 1249.19,599.36 1252.18,597.933 1255.17,596.51 1258.16,595.089 1261.15,593.671 1264.14,592.256 1267.12,590.844 1270.11,589.435 1273.1,588.029 1276.09,586.625 1279.08,585.224 1282.07,583.826 1285.05,582.431 1288.04,581.039 1291.03,579.649 1294.02,578.262 1297.01,576.878 1300,575.497 1302.98,574.118 1305.97,572.742 1308.96,571.369 1311.95,569.999 1314.94,568.631 1317.93,567.266 1320.91,565.904 1323.9,564.545 1326.89,563.188 1329.88,561.834 1332.87,560.483 1335.86,559.134 1338.84,557.789 1341.83,556.445 1344.82,555.105 1347.81,553.767 1350.8,552.432 1353.79,551.099 1356.77,549.77 1359.76,548.443 1362.75,547.118 1365.74,545.796 1368.73,544.477 1371.72,543.161 1374.7,541.847 1377.69,540.535 1380.68,539.227 1383.67,537.921 1386.66,536.617 1389.65,535.316 1392.63,534.018 1395.62,532.722 1398.61,531.429 1401.6,530.139 1404.59,528.851 1407.58,527.566 1410.56,526.283 1413.55,525.003 1416.54,523.725 1419.53,522.45 1422.52,521.178 1425.51,519.908 1428.49,518.64 1431.48,517.375 1434.47,516.113 1437.46,514.853 1440.45,513.596 1443.44,512.341 1446.42,511.089 1449.41,509.839 1452.4,508.592 1455.39,507.347 1458.38,506.104 1461.37,504.865 1464.35,503.627 1467.34,502.392 1470.33,501.16 1473.32,499.93 1476.31,498.703 1479.3,497.478 1482.28,496.255 1485.27,495.035 1488.26,493.817 1491.25,492.602 1494.24,491.389 1497.22,490.179 1500.21,488.971 1503.2,487.765 1506.19,486.562 1509.18,485.361 1512.17,484.163 1515.15,482.967 1518.14,481.774 1521.13,480.582 1524.12,479.394 1527.11,478.207 1530.1,477.023 1533.08,475.842 1536.07,474.662 1539.06,473.485 1542.05,472.311 1545.04,471.139 1548.03,469.969 1551.01,468.801 1554,467.636 1556.99,466.473 1559.98,465.313 1562.97,464.154 1565.96,462.998 1568.94,461.845 1571.93,460.694 1574.92,459.545 1577.91,458.398 1580.9,457.253 1583.89,456.111 1586.87,454.972 1589.86,453.834 1592.85,452.699 1595.84,451.566 1598.83,450.435 1601.82,449.307 1604.8,448.18 1607.79,447.056 1610.78,445.935 1613.77,444.815 1616.76,443.698 1619.75,442.583 1622.73,441.47 1625.72,440.36 1628.71,439.252 1631.7,438.145 1634.69,437.042 1637.68,435.94 1640.66,434.84 1643.65,433.743 1646.64,432.648 1649.63,431.555 1652.62,430.465 1655.61,429.376 1658.59,428.29 1661.58,427.206 1664.57,426.124 1667.56,425.044 1670.55,423.966 1673.54,422.891 1676.52,421.817 1679.51,420.746 1682.5,419.677 1685.49,418.61 1688.48,417.545 1691.47,416.483 1694.45,415.422 1697.44,414.364 1700.43,413.307 1703.42,412.253 1706.41,411.201 1709.4,410.151 1712.38,409.103 1715.37,408.058 1718.36,407.014 1721.35,405.972 1724.34,404.933 1727.33,403.895 1730.31,402.86 1733.3,401.827 1736.29,400.796 1739.28,399.766 1742.27,398.739 1745.26,397.714 1748.24,396.691 1751.23,395.67 1754.22,394.651 1757.21,393.635 1760.2,392.62 1763.19,391.607 1766.17,390.596 1769.16,389.587 1772.15,388.581 1775.14,387.576 1778.13,386.573 1781.12,385.572 1784.1,384.574 1787.09,383.577 1790.08,382.582 1793.07,381.59 1796.06,380.599 1799.05,379.61 1802.03,378.623 1805.02,377.638 1808.01,376.656 1811,375.675 1813.99,374.696 1816.98,373.719 1819.96,372.744 1822.95,371.771 1825.94,370.8 1828.93,369.831 1831.92,368.863 1834.91,367.898 1837.89,366.935 1840.88,365.973 1843.87,365.014 1846.86,364.056 1849.85,363.1 1852.84,362.147 1855.82,361.195 1858.81,360.245 1861.8,359.297 1864.79,358.351 1867.78,357.406 1870.77,356.464 1873.75,355.523 1876.74,354.585 1879.73,353.648 1882.72,352.713 1885.71,351.78 1888.7,350.849 1891.68,349.92 1894.67,348.992 1897.66,348.067 1900.65,347.143 1903.64,346.221 1906.63,345.301 1909.61,344.383 1912.6,343.467 1915.59,342.552 1918.58,341.639 1921.57,340.728 1924.56,339.819 1927.54,338.912 1930.53,338.007 1933.52,337.103 1936.51,336.201 1939.5,335.301 1942.49,334.403 1945.47,333.507 1948.46,332.612 1951.45,331.719 1954.44,330.828 1957.43,329.939 1960.42,329.052 1963.4,328.166 1966.39,327.282 1969.38,326.4 1972.37,325.519 1975.36,324.641 1978.34,323.764 1981.33,322.889 1984.32,322.015 1987.31,321.144 1990.3,320.274 1993.29,319.405 1996.27,318.539 1999.26,317.674 2002.25,316.811 2005.24,315.95 2008.23,315.091 2011.22,314.233 2014.2,313.377 2017.19,312.522 2020.18,311.67 2023.17,310.819 2026.16,309.969 2029.15,309.122 2032.13,308.276 2035.12,307.432 2038.11,306.589 2041.1,305.748 2044.09,304.909 2047.08,304.072 2050.06,303.236 2053.05,302.402 2056.04,301.569 2059.03,300.739 2062.02,299.91 2065.01,299.082 2067.99,298.256 2070.98,297.432 2073.97,296.61 2076.96,295.789 2079.95,294.97 2082.94,294.152 2085.92,293.336 2088.91,292.522 2091.9,291.709 2094.89,290.898 2097.88,290.089 2100.87,289.281 2103.85,288.475 2106.84,287.67 2109.83,286.867 2112.82,286.066 2115.81,285.266 2118.8,284.468 2121.78,283.671 2124.77,282.876 2127.76,282.083 2130.75,281.291 2133.74,280.501 2136.73,279.712 2139.71,278.925 2142.7,278.14 2145.69,277.356 2148.68,276.573 2151.67,275.793 2154.66,275.014 2157.64,274.236 2160.63,273.46 2163.62,272.685 2166.61,271.912 2169.6,271.141 2172.59,270.371 2175.57,269.603 2178.56,268.836 2181.55,268.07 2184.54,267.307 2187.53,266.545 2190.52,265.784 2193.5,265.025 2196.49,264.267 2199.48,263.511 2202.47,262.756 2205.46,262.003 2208.45,261.252 2211.43,260.501 2214.42,259.753 2217.41,259.006 2220.4,258.26 2223.39,257.516 2226.38,256.773 2229.36,256.032 2232.35,255.293 2235.34,254.554 2238.33,253.818 2241.32,253.083 2244.31,252.349 2247.29,251.617 2250.28,250.886 2253.27,250.156 2256.26,249.428 2259.25,248.702 2262.24,247.977 2265.22,247.254 2268.21,246.531 2271.2,245.811 2274.19,245.092 2277.18,244.374 2280.17,243.658 2283.15,242.943 2286.14,242.229 2289.13,241.517 2292.12,240.807 2295.11,240.097 2298.1,239.39 2301.08,238.683 2304.07,237.978 2307.06,237.275 2310.05,236.573 2313.04,235.872 2316.03,235.173 2319.01,234.475 2322,233.778 2324.99,233.083 2327.98,232.389 2330.97,231.697 2333.96,231.006 2336.94,230.317 2339.93,229.628 2342.92,228.942 2345.91,228.256 2348.9,227.572 2351.89,226.889 2354.87,226.208 2357.86,225.528 2360.85,224.849 2363.84,224.172 2366.83,223.496 2369.82,222.822 2372.8,222.149 2375.79,221.477 2378.78,220.806 2381.77,220.137 2384.76,219.469 2387.75,218.803 2390.73,218.138 2393.72,217.474 2396.71,216.811 2399.7,216.15 2402.69,215.49 2405.68,214.832 2408.66,214.175 2411.65,213.519 2414.64,212.864 2417.63,212.211 2420.62,211.559 2423.61,210.908 2426.59,210.259 2429.58,209.611 2432.57,208.964 2435.56,208.318 2438.55,207.674 2441.54,207.031 2444.52,206.39 2447.51,205.749 2450.5,205.11 2453.49,204.473 2456.48,203.836 2459.46,203.201 2462.45,202.567 2465.44,201.934 2468.43,201.303 2471.42,200.673 2474.41,200.044 2477.39,199.416 2480.38,198.79 2483.37,198.165 2486.36,197.541 2489.35,196.918 2492.34,196.297 2495.32,195.677 2498.31,195.058 2501.3,194.44 2504.29,193.824 2507.28,193.208 2510.27,192.594 2513.25,191.982 2516.24,191.37 2519.23,190.76 2522.22,190.151 2525.21,189.543 2528.2,188.936 2531.18,188.331 2534.17,187.727 2537.16,187.124 2540.15,186.522 2543.14,185.921 2546.13,185.322 2549.11,184.724 2552.1,184.127 2555.09,183.531 2558.08,182.936 2561.07,182.343 2564.06,181.75 2567.04,181.159 2570.03,180.569 2573.02,179.981 2576.01,179.393 2579,178.807 2581.99,178.222 2584.97,177.638 2587.96,177.055 2590.95,176.473 2593.94,175.893 2596.93,175.313 2599.92,174.735 2602.9,174.158 2605.89,173.582 2608.88,173.007 2611.87,172.434 2614.86,171.861 2617.85,171.29 2620.83,170.72 2623.82,170.151 2626.81,169.583 2629.8,169.016 2632.79,168.451 2635.78,167.886 2638.76,167.323 2641.75,166.76 2644.74,166.199 2647.73,165.639 2650.72,165.08 2653.71,164.523 2656.69,163.966 2659.68,163.411 2662.67,162.856 2665.66,162.303 2668.65,161.751 2671.64,161.2 2674.62,160.65 2677.61,160.101 2680.6,159.553 2683.59,159.006 2686.58,158.461 2689.57,157.916 2692.55,157.373 2695.54,156.83 2698.53,156.289 2701.52,155.749 2704.51,155.21 2707.5,154.672 2710.48,154.135 2713.47,153.599 2716.46,153.064 2719.45,152.53 2722.44,151.998 2725.43,151.466 2728.41,150.936 2731.4,150.406 2734.39,149.878 2737.38,149.35 2740.37,148.824 2743.36,148.299 2746.34,147.775 2749.33,147.252 2752.32,146.729 2755.31,146.208 2758.3,145.688 2761.29,145.169 2764.27,144.651 2767.26,144.135 2770.25,143.619 2773.24,143.104 2776.23,142.59 2779.22,142.077 2782.2,141.566 2785.19,141.055 2788.18,140.545 2791.17,140.036 2794.16,139.529 2797.15,139.022 2800.13,138.516 2803.12,138.012 2806.11,137.508 2809.1,137.006 2812.09,136.504 2815.08,136.003 2818.06,135.504 2821.05,135.005 2824.04,134.508 2827.03,134.011 2830.02,133.515 2833.01,133.021 2835.99,132.527 2838.98,132.035 2841.97,131.543 2844.96,131.052 2847.95,130.563 2850.94,130.074 2853.92,129.586 2856.91,129.099 2859.9,128.614 2862.89,128.129 2865.88,127.645 2868.87,127.162 2871.85,126.68 2874.84,126.199 2877.83,125.719 2880.82,125.24 2883.81,124.762 2886.8,124.285 2889.78,123.809 2892.77,123.334 2895.76,122.859 2898.75,122.386 2901.74,121.914 2904.73,121.442 2907.71,120.972 2910.7,120.502 2913.69,120.034 2916.68,119.566 2919.67,119.099 2922.66,118.634 2925.64,118.169 2928.63,117.705 2931.62,117.242 2934.61,116.78 2937.6,116.319 2940.58,115.858 2943.57,115.399 2946.56,114.941 2949.55,114.483 2952.54,114.027 2955.53,113.571 2958.51,113.116 2961.5,112.663 2964.49,112.21 2967.48,111.758 2970.47,111.307 2973.46,110.856 2976.44,110.407 2979.43,109.959 2982.42,109.511 2985.41,109.065 2988.4,108.619 2991.39,108.174 2994.37,107.73 2997.36,107.287 3000.35,106.845 3003.34,106.404 3006.33,105.963 3009.32,105.524 3012.3,105.085 3015.29,104.647 3018.28,104.211 3021.27,103.775 3024.26,103.339 3027.25,102.905 3030.23,102.472 3033.22,102.039 3036.21,101.608 3039.2,101.177 3042.19,100.747 3045.18,100.318 3048.16,99.8895 3051.15,99.4621 3054.14,99.0356 3057.13,98.61 3060.12,98.1852 3063.11,97.7612 3066.09,97.3381 3069.08,96.9159 3072.07,96.4945 3075.06,96.0739 3078.05,95.6541 3081.04,95.2353 3084.02,94.8172 3087.01,94.4 3090,93.9836 3092.99,93.568 3095.98,93.1533 3098.97,92.7394 3101.95,92.3264 3104.94,91.9141 3107.93,91.5027 3110.92,91.0921 3113.91,90.6824 3116.9,90.2734 3119.88,89.8653 3122.87,89.458 3125.86,89.0515 3128.85,88.6458 3131.84,88.2409 3134.83,87.8368 3137.81,87.4336 3140.8,87.0311 3143.79,86.6295 3146.78,86.2286 3149.77,85.8286 3152.76,85.4293 "/>
<path clip-path="url(#clip600)" d="M266.932 195.898 L595.049 195.898 L595.049 92.2178 L266.932 92.2178  Z" fill="#ffffff" fill-rule="evenodd" fill-opacity="1"/>
<polyline clip-path="url(#clip600)" style="stroke:#000000; stroke-linecap:round; stroke-linejoin:round; stroke-width:4; stroke-opacity:1; fill:none" points="266.932,195.898 595.049,195.898 595.049,92.2178 266.932,92.2178 266.932,195.898 "/>
<polyline clip-path="url(#clip600)" style="stroke:#009af9; stroke-linecap:round; stroke-linejoin:round; stroke-width:12; stroke-opacity:1; fill:none" points="300.103,144.058 499.125,144.058 "/>
<path clip-path="url(#clip600)" d="M533.87 126.778 L538.893 126.778 L547.481 139.625 L556.115 126.778 L561.138 126.778 L550.027 143.375 L561.879 161.338 L556.856 161.338 L547.133 146.639 L537.342 161.338 L532.296 161.338 L544.633 142.889 L533.87 126.778 Z" fill="#000000" fill-rule="nonzero" fill-opacity="1" /></svg>
