<?xml version="1.0" encoding="utf-8"?>
<svg xmlns="http://www.w3.org/2000/svg" xmlns:xlink="http://www.w3.org/1999/xlink" width="800" height="400" viewBox="0 0 3200 1600">
<defs>
  <clipPath id="clip860">
    <rect x="0" y="0" width="3200" height="1600"/>
  </clipPath>
</defs>
<path clip-path="url(#clip860)" d="M0 1600 L3200 1600 L3200 0 L0 0  Z" fill="#ffffff" fill-rule="evenodd" fill-opacity="1"/>
<defs>
  <clipPath id="clip861">
    <rect x="640" y="0" width="2241" height="1600"/>
  </clipPath>
</defs>
<path clip-path="url(#clip860)" d="M149.853 1443.7 L3152.76 1443.7 L3152.76 47.2441 L149.853 47.2441  Z" fill="#ffffff" fill-rule="evenodd" fill-opacity="1"/>
<defs>
  <clipPath id="clip862">
    <rect x="149" y="47" width="3004" height="1397"/>
  </clipPath>
</defs>
<polyline clip-path="url(#clip862)" style="stroke:#000000; stroke-linecap:round; stroke-linejoin:round; stroke-width:2; stroke-opacity:0.1; fill:none" points="149.853,1443.7 149.853,47.2441 "/>
<polyline clip-path="url(#clip862)" style="stroke:#000000; stroke-linecap:round; stroke-linejoin:round; stroke-width:2; stroke-opacity:0.1; fill:none" points="750.434,1443.7 750.434,47.2441 "/>
<polyline clip-path="url(#clip862)" style="stroke:#000000; stroke-linecap:round; stroke-linejoin:round; stroke-width:2; stroke-opacity:0.1; fill:none" points="1351.01,1443.7 1351.01,47.2441 "/>
<polyline clip-path="url(#clip862)" style="stroke:#000000; stroke-linecap:round; stroke-linejoin:round; stroke-width:2; stroke-opacity:0.1; fill:none" points="1951.59,1443.7 1951.59,47.2441 "/>
<polyline clip-path="url(#clip862)" style="stroke:#000000; stroke-linecap:round; stroke-linejoin:round; stroke-width:2; stroke-opacity:0.1; fill:none" points="2552.18,1443.7 2552.18,47.2441 "/>
<polyline clip-path="url(#clip862)" style="stroke:#000000; stroke-linecap:round; stroke-linejoin:round; stroke-width:2; stroke-opacity:0.1; fill:none" points="3152.76,1443.7 3152.76,47.2441 "/>
<polyline clip-path="url(#clip862)" style="stroke:#000000; stroke-linecap:round; stroke-linejoin:round; stroke-width:2; stroke-opacity:0.1; fill:none" points="149.853,1443.7 149.853,47.2441 "/>
<polyline clip-path="url(#clip862)" style="stroke:#000000; stroke-linecap:round; stroke-linejoin:round; stroke-width:2; stroke-opacity:0.1; fill:none" points="750.434,1443.7 750.434,47.2441 "/>
<polyline clip-path="url(#clip862)" style="stroke:#000000; stroke-linecap:round; stroke-linejoin:round; stroke-width:2; stroke-opacity:0.1; fill:none" points="1351.01,1443.7 1351.01,47.2441 "/>
<polyline clip-path="url(#clip862)" style="stroke:#000000; stroke-linecap:round; stroke-linejoin:round; stroke-width:2; stroke-opacity:0.1; fill:none" points="1951.59,1443.7 1951.59,47.2441 "/>
<polyline clip-path="url(#clip862)" style="stroke:#000000; stroke-linecap:round; stroke-linejoin:round; stroke-width:2; stroke-opacity:0.1; fill:none" points="2552.18,1443.7 2552.18,47.2441 "/>
<polyline clip-path="url(#clip862)" style="stroke:#000000; stroke-linecap:round; stroke-linejoin:round; stroke-width:2; stroke-opacity:0.1; fill:none" points="3152.76,1443.7 3152.76,47.2441 "/>
<polyline clip-path="url(#clip860)" style="stroke:#000000; stroke-linecap:round; stroke-linejoin:round; stroke-width:4; stroke-opacity:1; fill:none" points="149.853,1443.7 3152.76,1443.7 "/>
<polyline clip-path="url(#clip860)" style="stroke:#000000; stroke-linecap:round; stroke-linejoin:round; stroke-width:4; stroke-opacity:1; fill:none" points="149.853,47.2441 3152.76,47.2441 "/>
<polyline clip-path="url(#clip860)" style="stroke:#000000; stroke-linecap:round; stroke-linejoin:round; stroke-width:4; stroke-opacity:1; fill:none" points="149.853,1443.7 149.853,1424.8 "/>
<polyline clip-path="url(#clip860)" style="stroke:#000000; stroke-linecap:round; stroke-linejoin:round; stroke-width:4; stroke-opacity:1; fill:none" points="750.434,1443.7 750.434,1424.8 "/>
<polyline clip-path="url(#clip860)" style="stroke:#000000; stroke-linecap:round; stroke-linejoin:round; stroke-width:4; stroke-opacity:1; fill:none" points="1351.01,1443.7 1351.01,1424.8 "/>
<polyline clip-path="url(#clip860)" style="stroke:#000000; stroke-linecap:round; stroke-linejoin:round; stroke-width:4; stroke-opacity:1; fill:none" points="1951.59,1443.7 1951.59,1424.8 "/>
<polyline clip-path="url(#clip860)" style="stroke:#000000; stroke-linecap:round; stroke-linejoin:round; stroke-width:4; stroke-opacity:1; fill:none" points="2552.18,1443.7 2552.18,1424.8 "/>
<polyline clip-path="url(#clip860)" style="stroke:#000000; stroke-linecap:round; stroke-linejoin:round; stroke-width:4; stroke-opacity:1; fill:none" points="3152.76,1443.7 3152.76,1424.8 "/>
<polyline clip-path="url(#clip860)" style="stroke:#000000; stroke-linecap:round; stroke-linejoin:round; stroke-width:4; stroke-opacity:1; fill:none" points="149.853,47.2441 149.853,66.1417 "/>
<polyline clip-path="url(#clip860)" style="stroke:#000000; stroke-linecap:round; stroke-linejoin:round; stroke-width:4; stroke-opacity:1; fill:none" points="750.434,47.2441 750.434,66.1417 "/>
<polyline clip-path="url(#clip860)" style="stroke:#000000; stroke-linecap:round; stroke-linejoin:round; stroke-width:4; stroke-opacity:1; fill:none" points="1351.01,47.2441 1351.01,66.1417 "/>
<polyline clip-path="url(#clip860)" style="stroke:#000000; stroke-linecap:round; stroke-linejoin:round; stroke-width:4; stroke-opacity:1; fill:none" points="1951.59,47.2441 1951.59,66.1417 "/>
<polyline clip-path="url(#clip860)" style="stroke:#000000; stroke-linecap:round; stroke-linejoin:round; stroke-width:4; stroke-opacity:1; fill:none" points="2552.18,47.2441 2552.18,66.1417 "/>
<polyline clip-path="url(#clip860)" style="stroke:#000000; stroke-linecap:round; stroke-linejoin:round; stroke-width:4; stroke-opacity:1; fill:none" points="3152.76,47.2441 3152.76,66.1417 "/>
<path clip-path="url(#clip860)" d="M127.237 1481.02 Q123.626 1481.02 121.798 1484.58 Q119.992 1488.12 119.992 1495.25 Q119.992 1502.36 121.798 1505.93 Q123.626 1509.47 127.237 1509.47 Q130.872 1509.47 132.677 1505.93 Q134.506 1502.36 134.506 1495.25 Q134.506 1488.12 132.677 1484.58 Q130.872 1481.02 127.237 1481.02 M127.237 1477.31 Q133.047 1477.31 136.103 1481.92 Q139.182 1486.5 139.182 1495.25 Q139.182 1503.98 136.103 1508.59 Q133.047 1513.17 127.237 1513.17 Q121.427 1513.17 118.348 1508.59 Q115.293 1503.98 115.293 1495.25 Q115.293 1486.5 118.348 1481.92 Q121.427 1477.31 127.237 1477.31 Z" fill="#000000" fill-rule="nonzero" fill-opacity="1" /><path clip-path="url(#clip860)" d="M147.399 1506.62 L152.283 1506.62 L152.283 1512.5 L147.399 1512.5 L147.399 1506.62 Z" fill="#000000" fill-rule="nonzero" fill-opacity="1" /><path clip-path="url(#clip860)" d="M172.469 1481.02 Q168.857 1481.02 167.029 1484.58 Q165.223 1488.12 165.223 1495.25 Q165.223 1502.36 167.029 1505.93 Q168.857 1509.47 172.469 1509.47 Q176.103 1509.47 177.908 1505.93 Q179.737 1502.36 179.737 1495.25 Q179.737 1488.12 177.908 1484.58 Q176.103 1481.02 172.469 1481.02 M172.469 1477.31 Q178.279 1477.31 181.334 1481.92 Q184.413 1486.5 184.413 1495.25 Q184.413 1503.98 181.334 1508.59 Q178.279 1513.17 172.469 1513.17 Q166.658 1513.17 163.58 1508.59 Q160.524 1503.98 160.524 1495.25 Q160.524 1486.5 163.58 1481.92 Q166.658 1477.31 172.469 1477.31 Z" fill="#000000" fill-rule="nonzero" fill-opacity="1" /><path clip-path="url(#clip860)" d="M728.617 1481.02 Q725.005 1481.02 723.177 1484.58 Q721.371 1488.12 721.371 1495.25 Q721.371 1502.36 723.177 1505.93 Q725.005 1509.47 728.617 1509.47 Q732.251 1509.47 734.056 1505.93 Q735.885 1502.36 735.885 1495.25 Q735.885 1488.12 734.056 1484.58 Q732.251 1481.02 728.617 1481.02 M728.617 1477.31 Q734.427 1477.31 737.482 1481.92 Q740.561 1486.5 740.561 1495.25 Q740.561 1503.98 737.482 1508.59 Q734.427 1513.17 728.617 1513.17 Q722.806 1513.17 719.728 1508.59 Q716.672 1503.98 716.672 1495.25 Q716.672 1486.5 719.728 1481.92 Q722.806 1477.31 728.617 1477.31 Z" fill="#000000" fill-rule="nonzero" fill-opacity="1" /><path clip-path="url(#clip860)" d="M748.778 1506.62 L753.663 1506.62 L753.663 1512.5 L748.778 1512.5 L748.778 1506.62 Z" fill="#000000" fill-rule="nonzero" fill-opacity="1" /><path clip-path="url(#clip860)" d="M767.876 1508.56 L784.195 1508.56 L784.195 1512.5 L762.251 1512.5 L762.251 1508.56 Q764.913 1505.81 769.496 1501.18 Q774.102 1496.53 775.283 1495.19 Q777.528 1492.66 778.408 1490.93 Q779.311 1489.17 779.311 1487.48 Q779.311 1484.72 777.366 1482.99 Q775.445 1481.25 772.343 1481.25 Q770.144 1481.25 767.69 1482.01 Q765.26 1482.78 762.482 1484.33 L762.482 1479.61 Q765.306 1478.47 767.76 1477.89 Q770.214 1477.31 772.251 1477.31 Q777.621 1477.31 780.815 1480 Q784.01 1482.69 784.01 1487.18 Q784.01 1489.31 783.2 1491.23 Q782.413 1493.12 780.306 1495.72 Q779.727 1496.39 776.626 1499.61 Q773.524 1502.8 767.876 1508.56 Z" fill="#000000" fill-rule="nonzero" fill-opacity="1" /><path clip-path="url(#clip860)" d="M1328.16 1481.02 Q1324.54 1481.02 1322.72 1484.58 Q1320.91 1488.12 1320.91 1495.25 Q1320.91 1502.36 1322.72 1505.93 Q1324.54 1509.47 1328.16 1509.47 Q1331.79 1509.47 1333.6 1505.93 Q1335.42 1502.36 1335.42 1495.25 Q1335.42 1488.12 1333.6 1484.58 Q1331.79 1481.02 1328.16 1481.02 M1328.16 1477.31 Q1333.97 1477.31 1337.02 1481.92 Q1340.1 1486.5 1340.1 1495.25 Q1340.1 1503.98 1337.02 1508.59 Q1333.97 1513.17 1328.16 1513.17 Q1322.35 1513.17 1319.27 1508.59 Q1316.21 1503.98 1316.21 1495.25 Q1316.21 1486.5 1319.27 1481.92 Q1322.35 1477.31 1328.16 1477.31 Z" fill="#000000" fill-rule="nonzero" fill-opacity="1" /><path clip-path="url(#clip860)" d="M1348.32 1506.62 L1353.2 1506.62 L1353.2 1512.5 L1348.32 1512.5 L1348.32 1506.62 Z" fill="#000000" fill-rule="nonzero" fill-opacity="1" /><path clip-path="url(#clip860)" d="M1376.23 1482.01 L1364.43 1500.46 L1376.23 1500.46 L1376.23 1482.01 M1375.01 1477.94 L1380.89 1477.94 L1380.89 1500.46 L1385.82 1500.46 L1385.82 1504.35 L1380.89 1504.35 L1380.89 1512.5 L1376.23 1512.5 L1376.23 1504.35 L1360.63 1504.35 L1360.63 1499.84 L1375.01 1477.94 Z" fill="#000000" fill-rule="nonzero" fill-opacity="1" /><path clip-path="url(#clip860)" d="M1928.9 1481.02 Q1925.29 1481.02 1923.46 1484.58 Q1921.65 1488.12 1921.65 1495.25 Q1921.65 1502.36 1923.46 1505.93 Q1925.29 1509.47 1928.9 1509.47 Q1932.53 1509.47 1934.34 1505.93 Q1936.17 1502.36 1936.17 1495.25 Q1936.17 1488.12 1934.34 1484.58 Q1932.53 1481.02 1928.9 1481.02 M1928.9 1477.31 Q1934.71 1477.31 1937.76 1481.92 Q1940.84 1486.5 1940.84 1495.25 Q1940.84 1503.98 1937.76 1508.59 Q1934.71 1513.17 1928.9 1513.17 Q1923.09 1513.17 1920.01 1508.59 Q1916.95 1503.98 1916.95 1495.25 Q1916.95 1486.5 1920.01 1481.92 Q1923.09 1477.31 1928.9 1477.31 Z" fill="#000000" fill-rule="nonzero" fill-opacity="1" /><path clip-path="url(#clip860)" d="M1949.06 1506.62 L1953.94 1506.62 L1953.94 1512.5 L1949.06 1512.5 L1949.06 1506.62 Z" fill="#000000" fill-rule="nonzero" fill-opacity="1" /><path clip-path="url(#clip860)" d="M1974.71 1493.36 Q1971.56 1493.36 1969.71 1495.51 Q1967.88 1497.66 1967.88 1501.41 Q1967.88 1505.14 1969.71 1507.31 Q1971.56 1509.47 1974.71 1509.47 Q1977.86 1509.47 1979.68 1507.31 Q1981.54 1505.14 1981.54 1501.41 Q1981.54 1497.66 1979.68 1495.51 Q1977.86 1493.36 1974.71 1493.36 M1983.99 1478.7 L1983.99 1482.96 Q1982.23 1482.13 1980.43 1481.69 Q1978.64 1481.25 1976.88 1481.25 Q1972.25 1481.25 1969.8 1484.37 Q1967.37 1487.5 1967.02 1493.82 Q1968.39 1491.81 1970.45 1490.74 Q1972.51 1489.65 1974.99 1489.65 Q1980.19 1489.65 1983.2 1492.82 Q1986.24 1495.97 1986.24 1501.41 Q1986.24 1506.74 1983.09 1509.95 Q1979.94 1513.17 1974.71 1513.17 Q1968.71 1513.17 1965.54 1508.59 Q1962.37 1503.98 1962.37 1495.25 Q1962.37 1487.06 1966.26 1482.2 Q1970.15 1477.31 1976.7 1477.31 Q1978.46 1477.31 1980.24 1477.66 Q1982.05 1478.01 1983.99 1478.7 Z" fill="#000000" fill-rule="nonzero" fill-opacity="1" /><path clip-path="url(#clip860)" d="M2529.61 1481.02 Q2525.99 1481.02 2524.17 1484.58 Q2522.36 1488.12 2522.36 1495.25 Q2522.36 1502.36 2524.17 1505.93 Q2525.99 1509.47 2529.61 1509.47 Q2533.24 1509.47 2535.05 1505.93 Q2536.87 1502.36 2536.87 1495.25 Q2536.87 1488.12 2535.05 1484.58 Q2533.24 1481.02 2529.61 1481.02 M2529.61 1477.31 Q2535.42 1477.31 2538.47 1481.92 Q2541.55 1486.5 2541.55 1495.25 Q2541.55 1503.98 2538.47 1508.59 Q2535.42 1513.17 2529.61 1513.17 Q2523.8 1513.17 2520.72 1508.59 Q2517.66 1503.98 2517.66 1495.25 Q2517.66 1486.5 2520.72 1481.92 Q2523.8 1477.31 2529.61 1477.31 Z" fill="#000000" fill-rule="nonzero" fill-opacity="1" /><path clip-path="url(#clip860)" d="M2549.77 1506.62 L2554.65 1506.62 L2554.65 1512.5 L2549.77 1512.5 L2549.77 1506.62 Z" fill="#000000" fill-rule="nonzero" fill-opacity="1" /><path clip-path="url(#clip860)" d="M2574.84 1496.09 Q2571.5 1496.09 2569.58 1497.87 Q2567.68 1499.65 2567.68 1502.78 Q2567.68 1505.9 2569.58 1507.69 Q2571.5 1509.47 2574.84 1509.47 Q2578.17 1509.47 2580.09 1507.69 Q2582.01 1505.88 2582.01 1502.78 Q2582.01 1499.65 2580.09 1497.87 Q2578.19 1496.09 2574.84 1496.09 M2570.16 1494.1 Q2567.15 1493.36 2565.46 1491.3 Q2563.8 1489.24 2563.8 1486.27 Q2563.8 1482.13 2566.74 1479.72 Q2569.7 1477.31 2574.84 1477.31 Q2580 1477.31 2582.94 1479.72 Q2585.88 1482.13 2585.88 1486.27 Q2585.88 1489.24 2584.19 1491.3 Q2582.52 1493.36 2579.54 1494.1 Q2582.92 1494.88 2584.79 1497.18 Q2586.69 1499.47 2586.69 1502.78 Q2586.69 1507.8 2583.61 1510.49 Q2580.55 1513.17 2574.84 1513.17 Q2569.12 1513.17 2566.04 1510.49 Q2562.99 1507.8 2562.99 1502.78 Q2562.99 1499.47 2564.88 1497.18 Q2566.78 1494.88 2570.16 1494.1 M2568.45 1486.71 Q2568.45 1489.4 2570.12 1490.9 Q2571.8 1492.41 2574.84 1492.41 Q2577.85 1492.41 2579.54 1490.9 Q2581.25 1489.4 2581.25 1486.71 Q2581.25 1484.03 2579.54 1482.52 Q2577.85 1481.02 2574.84 1481.02 Q2571.8 1481.02 2570.12 1482.52 Q2568.45 1484.03 2568.45 1486.71 Z" fill="#000000" fill-rule="nonzero" fill-opacity="1" /><path clip-path="url(#clip860)" d="M3119.91 1508.56 L3127.55 1508.56 L3127.55 1482.2 L3119.24 1483.87 L3119.24 1479.61 L3127.5 1477.94 L3132.18 1477.94 L3132.18 1508.56 L3139.82 1508.56 L3139.82 1512.5 L3119.91 1512.5 L3119.91 1508.56 Z" fill="#000000" fill-rule="nonzero" fill-opacity="1" /><path clip-path="url(#clip860)" d="M3149.26 1506.62 L3154.14 1506.62 L3154.14 1512.5 L3149.26 1512.5 L3149.26 1506.62 Z" fill="#000000" fill-rule="nonzero" fill-opacity="1" /><path clip-path="url(#clip860)" d="M3174.33 1481.02 Q3170.72 1481.02 3168.89 1484.58 Q3167.08 1488.12 3167.08 1495.25 Q3167.08 1502.36 3168.89 1505.93 Q3170.72 1509.47 3174.33 1509.47 Q3177.96 1509.47 3179.77 1505.93 Q3181.6 1502.36 3181.6 1495.25 Q3181.6 1488.12 3179.77 1484.58 Q3177.96 1481.02 3174.33 1481.02 M3174.33 1477.31 Q3180.14 1477.31 3183.2 1481.92 Q3186.27 1486.5 3186.27 1495.25 Q3186.27 1503.98 3183.2 1508.59 Q3180.14 1513.17 3174.33 1513.17 Q3168.52 1513.17 3165.44 1508.59 Q3162.39 1503.98 3162.39 1495.25 Q3162.39 1486.5 3165.44 1481.92 Q3168.52 1477.31 3174.33 1477.31 Z" fill="#000000" fill-rule="nonzero" fill-opacity="1" /><path clip-path="url(#clip860)" d="M1650.37 1554.79 L1650.37 1564.92 L1662.43 1564.92 L1662.43 1569.47 L1650.37 1569.47 L1650.37 1588.82 Q1650.37 1593.18 1651.54 1594.42 Q1652.75 1595.66 1656.41 1595.66 L1662.43 1595.66 L1662.43 1600.56 L1656.41 1600.56 Q1649.63 1600.56 1647.06 1598.05 Q1644.48 1595.5 1644.48 1588.82 L1644.48 1569.47 L1640.18 1569.47 L1640.18 1564.92 L1644.48 1564.92 L1644.48 1554.79 L1650.37 1554.79 Z" fill="#000000" fill-rule="nonzero" fill-opacity="1" /><polyline clip-path="url(#clip862)" style="stroke:#000000; stroke-linecap:round; stroke-linejoin:round; stroke-width:2; stroke-opacity:0.1; fill:none" points="149.853,1334.85 3152.76,1334.85 "/>
<polyline clip-path="url(#clip862)" style="stroke:#000000; stroke-linecap:round; stroke-linejoin:round; stroke-width:2; stroke-opacity:0.1; fill:none" points="149.853,1126.83 3152.76,1126.83 "/>
<polyline clip-path="url(#clip862)" style="stroke:#000000; stroke-linecap:round; stroke-linejoin:round; stroke-width:2; stroke-opacity:0.1; fill:none" points="149.853,918.821 3152.76,918.821 "/>
<polyline clip-path="url(#clip862)" style="stroke:#000000; stroke-linecap:round; stroke-linejoin:round; stroke-width:2; stroke-opacity:0.1; fill:none" points="149.853,710.807 3152.76,710.807 "/>
<polyline clip-path="url(#clip862)" style="stroke:#000000; stroke-linecap:round; stroke-linejoin:round; stroke-width:2; stroke-opacity:0.1; fill:none" points="149.853,502.794 3152.76,502.794 "/>
<polyline clip-path="url(#clip862)" style="stroke:#000000; stroke-linecap:round; stroke-linejoin:round; stroke-width:2; stroke-opacity:0.1; fill:none" points="149.853,294.78 3152.76,294.78 "/>
<polyline clip-path="url(#clip862)" style="stroke:#000000; stroke-linecap:round; stroke-linejoin:round; stroke-width:2; stroke-opacity:0.1; fill:none" points="149.853,86.7664 3152.76,86.7664 "/>
<polyline clip-path="url(#clip862)" style="stroke:#000000; stroke-linecap:round; stroke-linejoin:round; stroke-width:2; stroke-opacity:0.1; fill:none" points="149.853,1334.85 3152.76,1334.85 "/>
<polyline clip-path="url(#clip862)" style="stroke:#000000; stroke-linecap:round; stroke-linejoin:round; stroke-width:2; stroke-opacity:0.1; fill:none" points="149.853,1126.83 3152.76,1126.83 "/>
<polyline clip-path="url(#clip862)" style="stroke:#000000; stroke-linecap:round; stroke-linejoin:round; stroke-width:2; stroke-opacity:0.1; fill:none" points="149.853,918.821 3152.76,918.821 "/>
<polyline clip-path="url(#clip862)" style="stroke:#000000; stroke-linecap:round; stroke-linejoin:round; stroke-width:2; stroke-opacity:0.1; fill:none" points="149.853,710.807 3152.76,710.807 "/>
<polyline clip-path="url(#clip862)" style="stroke:#000000; stroke-linecap:round; stroke-linejoin:round; stroke-width:2; stroke-opacity:0.1; fill:none" points="149.853,502.794 3152.76,502.794 "/>
<polyline clip-path="url(#clip862)" style="stroke:#000000; stroke-linecap:round; stroke-linejoin:round; stroke-width:2; stroke-opacity:0.1; fill:none" points="149.853,294.78 3152.76,294.78 "/>
<polyline clip-path="url(#clip862)" style="stroke:#000000; stroke-linecap:round; stroke-linejoin:round; stroke-width:2; stroke-opacity:0.1; fill:none" points="149.853,86.7664 3152.76,86.7664 "/>
<polyline clip-path="url(#clip860)" style="stroke:#000000; stroke-linecap:round; stroke-linejoin:round; stroke-width:4; stroke-opacity:1; fill:none" points="149.853,1443.7 149.853,47.2441 "/>
<polyline clip-path="url(#clip860)" style="stroke:#000000; stroke-linecap:round; stroke-linejoin:round; stroke-width:4; stroke-opacity:1; fill:none" points="3152.76,1443.7 3152.76,47.2441 "/>
<polyline clip-path="url(#clip860)" style="stroke:#000000; stroke-linecap:round; stroke-linejoin:round; stroke-width:4; stroke-opacity:1; fill:none" points="149.853,1334.85 168.751,1334.85 "/>
<polyline clip-path="url(#clip860)" style="stroke:#000000; stroke-linecap:round; stroke-linejoin:round; stroke-width:4; stroke-opacity:1; fill:none" points="149.853,1126.83 168.751,1126.83 "/>
<polyline clip-path="url(#clip860)" style="stroke:#000000; stroke-linecap:round; stroke-linejoin:round; stroke-width:4; stroke-opacity:1; fill:none" points="149.853,918.821 168.751,918.821 "/>
<polyline clip-path="url(#clip860)" style="stroke:#000000; stroke-linecap:round; stroke-linejoin:round; stroke-width:4; stroke-opacity:1; fill:none" points="149.853,710.807 168.751,710.807 "/>
<polyline clip-path="url(#clip860)" style="stroke:#000000; stroke-linecap:round; stroke-linejoin:round; stroke-width:4; stroke-opacity:1; fill:none" points="149.853,502.794 168.751,502.794 "/>
<polyline clip-path="url(#clip860)" style="stroke:#000000; stroke-linecap:round; stroke-linejoin:round; stroke-width:4; stroke-opacity:1; fill:none" points="149.853,294.78 168.751,294.78 "/>
<polyline clip-path="url(#clip860)" style="stroke:#000000; stroke-linecap:round; stroke-linejoin:round; stroke-width:4; stroke-opacity:1; fill:none" points="149.853,86.7664 168.751,86.7664 "/>
<polyline clip-path="url(#clip860)" style="stroke:#000000; stroke-linecap:round; stroke-linejoin:round; stroke-width:4; stroke-opacity:1; fill:none" points="3152.76,1334.85 3133.86,1334.85 "/>
<polyline clip-path="url(#clip860)" style="stroke:#000000; stroke-linecap:round; stroke-linejoin:round; stroke-width:4; stroke-opacity:1; fill:none" points="3152.76,1126.83 3133.86,1126.83 "/>
<polyline clip-path="url(#clip860)" style="stroke:#000000; stroke-linecap:round; stroke-linejoin:round; stroke-width:4; stroke-opacity:1; fill:none" points="3152.76,918.821 3133.86,918.821 "/>
<polyline clip-path="url(#clip860)" style="stroke:#000000; stroke-linecap:round; stroke-linejoin:round; stroke-width:4; stroke-opacity:1; fill:none" points="3152.76,710.807 3133.86,710.807 "/>
<polyline clip-path="url(#clip860)" style="stroke:#000000; stroke-linecap:round; stroke-linejoin:round; stroke-width:4; stroke-opacity:1; fill:none" points="3152.76,502.794 3133.86,502.794 "/>
<polyline clip-path="url(#clip860)" style="stroke:#000000; stroke-linecap:round; stroke-linejoin:round; stroke-width:4; stroke-opacity:1; fill:none" points="3152.76,294.78 3133.86,294.78 "/>
<polyline clip-path="url(#clip860)" style="stroke:#000000; stroke-linecap:round; stroke-linejoin:round; stroke-width:4; stroke-opacity:1; fill:none" points="3152.76,86.7664 3133.86,86.7664 "/>
<path clip-path="url(#clip860)" d="M53.7745 1348.19 L70.0939 1348.19 L70.0939 1352.13 L48.1495 1352.13 L48.1495 1348.19 Q50.8115 1345.44 55.3949 1340.81 Q60.0013 1336.16 61.1819 1334.81 Q63.4272 1332.29 64.3068 1330.55 Q65.2096 1328.8 65.2096 1327.11 Q65.2096 1324.35 63.2652 1322.61 Q61.3439 1320.88 58.2421 1320.88 Q56.043 1320.88 53.5893 1321.64 Q51.1588 1322.41 48.381 1323.96 L48.381 1319.24 Q51.2051 1318.1 53.6588 1317.52 Q56.1124 1316.94 58.1495 1316.94 Q63.5198 1316.94 66.7142 1319.63 Q69.9087 1322.31 69.9087 1326.8 Q69.9087 1328.93 69.0985 1330.86 Q68.3115 1332.75 66.205 1335.35 Q65.6263 1336.02 62.5245 1339.24 Q59.4226 1342.43 53.7745 1348.19 Z" fill="#000000" fill-rule="nonzero" fill-opacity="1" /><path clip-path="url(#clip860)" d="M89.9086 1320.65 Q86.2975 1320.65 84.4688 1324.21 Q82.6632 1327.75 82.6632 1334.88 Q82.6632 1341.99 84.4688 1345.55 Q86.2975 1349.1 89.9086 1349.1 Q93.5428 1349.1 95.3483 1345.55 Q97.177 1341.99 97.177 1334.88 Q97.177 1327.75 95.3483 1324.21 Q93.5428 1320.65 89.9086 1320.65 M89.9086 1316.94 Q95.7187 1316.94 98.7743 1321.55 Q101.853 1326.13 101.853 1334.88 Q101.853 1343.61 98.7743 1348.22 Q95.7187 1352.8 89.9086 1352.8 Q84.0984 1352.8 81.0197 1348.22 Q77.9642 1343.61 77.9642 1334.88 Q77.9642 1326.13 81.0197 1321.55 Q84.0984 1316.94 89.9086 1316.94 Z" fill="#000000" fill-rule="nonzero" fill-opacity="1" /><path clip-path="url(#clip860)" d="M63.9133 1125.48 Q67.2698 1126.2 69.1448 1128.47 Q71.0429 1130.74 71.0429 1134.07 Q71.0429 1139.18 67.5244 1141.99 Q64.0059 1144.79 57.5245 1144.79 Q55.3486 1144.79 53.0338 1144.35 Q50.7421 1143.93 48.2884 1143.07 L48.2884 1138.56 Q50.2328 1139.69 52.5477 1140.27 Q54.8625 1140.85 57.3856 1140.85 Q61.7837 1140.85 64.0754 1139.11 Q66.3902 1137.38 66.3902 1134.07 Q66.3902 1131.01 64.2374 1129.3 Q62.1078 1127.56 58.2884 1127.56 L54.2606 1127.56 L54.2606 1123.72 L58.4735 1123.72 Q61.9226 1123.72 63.7513 1122.36 Q65.58 1120.97 65.58 1118.37 Q65.58 1115.71 63.6819 1114.3 Q61.8069 1112.86 58.2884 1112.86 Q56.3671 1112.86 54.168 1113.28 Q51.969 1113.7 49.3301 1114.58 L49.3301 1110.41 Q51.9921 1109.67 54.3069 1109.3 Q56.6449 1108.93 58.705 1108.93 Q64.0291 1108.93 67.1309 1111.36 Q70.2327 1113.77 70.2327 1117.89 Q70.2327 1120.76 68.5892 1122.75 Q66.9457 1124.72 63.9133 1125.48 Z" fill="#000000" fill-rule="nonzero" fill-opacity="1" /><path clip-path="url(#clip860)" d="M89.9086 1112.63 Q86.2975 1112.63 84.4688 1116.2 Q82.6632 1119.74 82.6632 1126.87 Q82.6632 1133.98 84.4688 1137.54 Q86.2975 1141.08 89.9086 1141.08 Q93.5428 1141.08 95.3483 1137.54 Q97.177 1133.98 97.177 1126.87 Q97.177 1119.74 95.3483 1116.2 Q93.5428 1112.63 89.9086 1112.63 M89.9086 1108.93 Q95.7187 1108.93 98.7743 1113.54 Q101.853 1118.12 101.853 1126.87 Q101.853 1135.6 98.7743 1140.2 Q95.7187 1144.79 89.9086 1144.79 Q84.0984 1144.79 81.0197 1140.2 Q77.9642 1135.6 77.9642 1126.87 Q77.9642 1118.12 81.0197 1113.54 Q84.0984 1108.93 89.9086 1108.93 Z" fill="#000000" fill-rule="nonzero" fill-opacity="1" /><path clip-path="url(#clip860)" d="M62.5939 905.615 L50.7884 924.064 L62.5939 924.064 L62.5939 905.615 M61.367 901.541 L67.2466 901.541 L67.2466 924.064 L72.1772 924.064 L72.1772 927.953 L67.2466 927.953 L67.2466 936.101 L62.5939 936.101 L62.5939 927.953 L46.9921 927.953 L46.9921 923.439 L61.367 901.541 Z" fill="#000000" fill-rule="nonzero" fill-opacity="1" /><path clip-path="url(#clip860)" d="M89.9086 904.62 Q86.2975 904.62 84.4688 908.185 Q82.6632 911.726 82.6632 918.856 Q82.6632 925.962 84.4688 929.527 Q86.2975 933.069 89.9086 933.069 Q93.5428 933.069 95.3483 929.527 Q97.177 925.962 97.177 918.856 Q97.177 911.726 95.3483 908.185 Q93.5428 904.62 89.9086 904.62 M89.9086 900.916 Q95.7187 900.916 98.7743 905.523 Q101.853 910.106 101.853 918.856 Q101.853 927.583 98.7743 932.189 Q95.7187 936.772 89.9086 936.772 Q84.0984 936.772 81.0197 932.189 Q77.9642 927.583 77.9642 918.856 Q77.9642 910.106 81.0197 905.523 Q84.0984 900.916 89.9086 900.916 Z" fill="#000000" fill-rule="nonzero" fill-opacity="1" /><path clip-path="url(#clip860)" d="M49.793 693.527 L68.1494 693.527 L68.1494 697.463 L54.0754 697.463 L54.0754 705.935 Q55.0939 705.588 56.1124 705.426 Q57.131 705.24 58.1495 705.24 Q63.9365 705.24 67.3161 708.412 Q70.6957 711.583 70.6957 717 Q70.6957 722.578 67.2235 725.68 Q63.7513 728.759 57.4319 728.759 Q55.256 728.759 52.9875 728.388 Q50.7421 728.018 48.3347 727.277 L48.3347 722.578 Q50.418 723.712 52.6402 724.268 Q54.8625 724.824 57.3393 724.824 Q61.3439 724.824 63.6819 722.717 Q66.0198 720.611 66.0198 717 Q66.0198 713.388 63.6819 711.282 Q61.3439 709.176 57.3393 709.176 Q55.4643 709.176 53.5893 709.592 Q51.7375 710.009 49.793 710.888 L49.793 693.527 Z" fill="#000000" fill-rule="nonzero" fill-opacity="1" /><path clip-path="url(#clip860)" d="M89.9086 696.606 Q86.2975 696.606 84.4688 700.171 Q82.6632 703.713 82.6632 710.842 Q82.6632 717.949 84.4688 721.513 Q86.2975 725.055 89.9086 725.055 Q93.5428 725.055 95.3483 721.513 Q97.177 717.949 97.177 710.842 Q97.177 703.713 95.3483 700.171 Q93.5428 696.606 89.9086 696.606 M89.9086 692.902 Q95.7187 692.902 98.7743 697.509 Q101.853 702.092 101.853 710.842 Q101.853 719.569 98.7743 724.175 Q95.7187 728.759 89.9086 728.759 Q84.0984 728.759 81.0197 724.175 Q77.9642 719.569 77.9642 710.842 Q77.9642 702.092 81.0197 697.509 Q84.0984 692.902 89.9086 692.902 Z" fill="#000000" fill-rule="nonzero" fill-opacity="1" /><path clip-path="url(#clip860)" d="M60.3254 500.93 Q57.1773 500.93 55.3254 503.083 Q53.4967 505.236 53.4967 508.986 Q53.4967 512.713 55.3254 514.889 Q57.1773 517.041 60.3254 517.041 Q63.4735 517.041 65.3022 514.889 Q67.1541 512.713 67.1541 508.986 Q67.1541 505.236 65.3022 503.083 Q63.4735 500.93 60.3254 500.93 M69.6077 486.278 L69.6077 490.537 Q67.8485 489.704 66.0429 489.264 Q64.2606 488.824 62.5013 488.824 Q57.8717 488.824 55.418 491.949 Q52.9875 495.074 52.6402 501.393 Q54.006 499.379 56.0662 498.315 Q58.1263 497.227 60.6032 497.227 Q65.8115 497.227 68.8207 500.398 Q71.8531 503.546 71.8531 508.986 Q71.8531 514.31 68.705 517.527 Q65.5568 520.745 60.3254 520.745 Q54.33 520.745 51.1588 516.162 Q47.9875 511.555 47.9875 502.828 Q47.9875 494.634 51.8764 489.773 Q55.7652 484.889 62.3161 484.889 Q64.0754 484.889 65.8578 485.236 Q67.6633 485.583 69.6077 486.278 Z" fill="#000000" fill-rule="nonzero" fill-opacity="1" /><path clip-path="url(#clip860)" d="M89.9086 488.592 Q86.2975 488.592 84.4688 492.157 Q82.6632 495.699 82.6632 502.828 Q82.6632 509.935 84.4688 513.5 Q86.2975 517.041 89.9086 517.041 Q93.5428 517.041 95.3483 513.5 Q97.177 509.935 97.177 502.828 Q97.177 495.699 95.3483 492.157 Q93.5428 488.592 89.9086 488.592 M89.9086 484.889 Q95.7187 484.889 98.7743 489.495 Q101.853 494.079 101.853 502.828 Q101.853 511.555 98.7743 516.162 Q95.7187 520.745 89.9086 520.745 Q84.0984 520.745 81.0197 516.162 Q77.9642 511.555 77.9642 502.828 Q77.9642 494.079 81.0197 489.495 Q84.0984 484.889 89.9086 484.889 Z" fill="#000000" fill-rule="nonzero" fill-opacity="1" /><path clip-path="url(#clip860)" d="M48.5662 277.5 L70.7883 277.5 L70.7883 279.491 L58.2421 312.06 L53.3578 312.06 L65.1633 281.435 L48.5662 281.435 L48.5662 277.5 Z" fill="#000000" fill-rule="nonzero" fill-opacity="1" /><path clip-path="url(#clip860)" d="M89.9086 280.579 Q86.2975 280.579 84.4688 284.144 Q82.6632 287.685 82.6632 294.815 Q82.6632 301.921 84.4688 305.486 Q86.2975 309.028 89.9086 309.028 Q93.5428 309.028 95.3483 305.486 Q97.177 301.921 97.177 294.815 Q97.177 287.685 95.3483 284.144 Q93.5428 280.579 89.9086 280.579 M89.9086 276.875 Q95.7187 276.875 98.7743 281.482 Q101.853 286.065 101.853 294.815 Q101.853 303.542 98.7743 308.148 Q95.7187 312.731 89.9086 312.731 Q84.0984 312.731 81.0197 308.148 Q77.9642 303.542 77.9642 294.815 Q77.9642 286.065 81.0197 281.482 Q84.0984 276.875 89.9086 276.875 Z" fill="#000000" fill-rule="nonzero" fill-opacity="1" /><path clip-path="url(#clip860)" d="M59.7467 87.6345 Q56.4134 87.6345 54.4921 89.4169 Q52.5939 91.1993 52.5939 94.3243 Q52.5939 97.4492 54.4921 99.2316 Q56.4134 101.014 59.7467 101.014 Q63.08 101.014 65.0013 99.2316 Q66.9226 97.4261 66.9226 94.3243 Q66.9226 91.1993 65.0013 89.4169 Q63.1032 87.6345 59.7467 87.6345 M55.0708 85.6437 Q52.0615 84.903 50.3717 82.8428 Q48.7051 80.7827 48.7051 77.8197 Q48.7051 73.6762 51.6449 71.2688 Q54.6078 68.8614 59.7467 68.8614 Q64.9087 68.8614 67.8485 71.2688 Q70.7883 73.6762 70.7883 77.8197 Q70.7883 80.7827 69.0985 82.8428 Q67.4318 84.903 64.4457 85.6437 Q67.8253 86.4308 69.7003 88.7224 Q71.5985 91.0141 71.5985 94.3243 Q71.5985 99.3474 68.5198 102.033 Q65.4642 104.718 59.7467 104.718 Q54.0291 104.718 50.9504 102.033 Q47.8949 99.3474 47.8949 94.3243 Q47.8949 91.0141 49.793 88.7224 Q51.6912 86.4308 55.0708 85.6437 M53.3578 78.2595 Q53.3578 80.9447 55.0245 82.4493 Q56.7143 83.9539 59.7467 83.9539 Q62.7559 83.9539 64.4457 82.4493 Q66.1587 80.9447 66.1587 78.2595 Q66.1587 75.5744 64.4457 74.0697 Q62.7559 72.5651 59.7467 72.5651 Q56.7143 72.5651 55.0245 74.0697 Q53.3578 75.5744 53.3578 78.2595 Z" fill="#000000" fill-rule="nonzero" fill-opacity="1" /><path clip-path="url(#clip860)" d="M89.9086 72.5651 Q86.2975 72.5651 84.4688 76.1299 Q82.6632 79.6716 82.6632 86.8011 Q82.6632 93.9076 84.4688 97.4724 Q86.2975 101.014 89.9086 101.014 Q93.5428 101.014 95.3483 97.4724 Q97.177 93.9076 97.177 86.8011 Q97.177 79.6716 95.3483 76.1299 Q93.5428 72.5651 89.9086 72.5651 M89.9086 68.8614 Q95.7187 68.8614 98.7743 73.4679 Q101.853 78.0512 101.853 86.8011 Q101.853 95.528 98.7743 100.134 Q95.7187 104.718 89.9086 104.718 Q84.0984 104.718 81.0197 100.134 Q77.9642 95.528 77.9642 86.8011 Q77.9642 78.0512 81.0197 73.4679 Q84.0984 68.8614 89.9086 68.8614 Z" fill="#000000" fill-rule="nonzero" fill-opacity="1" /><polyline clip-path="url(#clip862)" style="stroke:#009af9; stroke-linecap:round; stroke-linejoin:round; stroke-width:12; stroke-opacity:1; fill:none" points="149.853,86.7664 152.859,102.38 155.865,117.584 158.871,132.399 161.877,146.846 164.882,160.945 167.888,174.718 170.894,188.184 173.9,201.365 176.906,214.28 179.912,226.951 182.918,239.398 185.924,251.642 188.93,263.704 191.936,275.603 194.942,287.362 197.947,298.999 200.953,310.536 203.959,321.994 206.965,333.393 209.971,344.754 212.977,356.097 215.983,367.443 218.989,378.812 221.995,390.226 225.001,401.705 228.007,413.269 231.012,424.939 234.018,436.736 237.024,448.68 240.03,460.792 243.036,473.093 246.042,485.603 249.048,498.343 252.054,511.333 255.06,524.594 258.066,538.146 261.072,552.011 264.077,566.209 267.083,579.527 270.089,589.259 273.095,598.733 276.101,607.966 279.107,616.973 282.113,625.771 285.119,634.375 288.125,642.801 291.131,651.066 294.137,659.185 297.142,667.174 300.148,675.048 303.154,682.825 306.16,690.52 309.166,698.148 312.172,705.726 315.178,713.27 318.184,720.795 321.19,728.317 324.196,735.853 327.202,743.418 330.207,751.029 333.213,758.7 336.219,766.449 339.225,774.29 342.231,782.241 345.237,790.316 348.243,798.532 351.249,806.904 354.255,815.45 357.261,824.183 360.267,833.121 363.272,842.28 366.278,849.375 369.284,855.875 372.29,862.21 375.296,868.388 378.302,874.416 381.308,880.302 384.314,886.052 387.32,891.674 390.326,897.176 393.332,902.564 396.337,907.847 399.343,913.031 402.349,918.125 405.355,923.134 408.361,928.068 411.367,932.932 414.373,937.735 417.379,942.484 420.385,947.186 423.391,951.849 426.397,956.48 429.402,961.086 432.408,965.674 435.414,970.253 438.42,974.829 441.426,979.41 444.432,984.003 447.438,988.616 450.444,993.256 453.45,997.93 456.456,1002.65 459.462,1007.41 462.467,1012.23 465.473,1017.12 468.479,1022.07 471.485,1027.11 474.491,1032.23 477.497,1037.44 480.503,1042.76 483.509,1048.18 486.515,1053.72 489.521,1059.38 492.527,1065.17 495.532,1071.1 498.538,1077.16 501.544,1081.04 504.55,1084.81 507.556,1088.49 510.562,1092.09 513.568,1095.59 516.574,1099.01 519.58,1102.36 522.586,1105.62 525.592,1108.82 528.597,1111.96 531.603,1115.03 534.609,1118.04 537.615,1121 540.621,1123.91 543.627,1126.78 546.633,1129.6 549.639,1132.39 552.645,1135.15 555.651,1137.87 558.657,1140.58 561.662,1143.26 564.668,1145.93 567.674,1148.58 570.68,1151.23 573.686,1153.87 576.692,1156.52 579.698,1159.17 582.704,1161.83 585.71,1164.5 588.716,1167.19 591.722,1169.9 594.727,1172.64 597.733,1175.4 600.739,1178.21 603.745,1181.05 606.751,1183.93 609.757,1186.86 612.763,1189.84 615.769,1192.87 618.775,1195.97 621.781,1199.12 624.787,1202.35 627.792,1205.64 630.798,1209.02 633.804,1212.47 636.81,1215.99 639.816,1218.22 642.822,1220.4 645.828,1222.52 648.834,1224.59 651.84,1226.61 654.846,1228.58 657.852,1230.51 660.857,1232.39 663.863,1234.24 666.869,1236.04 669.875,1237.8 672.881,1239.53 675.887,1241.22 678.893,1242.89 681.899,1244.52 684.905,1246.12 687.911,1247.7 690.917,1249.25 693.922,1250.79 696.928,1252.3 699.934,1253.79 702.94,1255.27 705.946,1256.73 708.952,1258.18 711.958,1259.62 714.964,1261.05 717.97,1262.47 720.976,1263.89 723.982,1265.31 726.987,1266.73 729.993,1268.15 732.999,1269.57 736.005,1270.99 739.011,1272.43 742.017,1273.87 745.023,1275.32 748.029,1276.79 751.035,1278.28 754.041,1279.78 757.047,1281.29 760.052,1282.83 763.058,1284.4 766.064,1285.98 769.07,1287.6 772.076,1289.24 775.082,1290.92 778.088,1292.62 781.094,1294.37 784.1,1296.14 787.106,1297.96 790.112,1299.82 793.117,1301.72 796.123,1303.67 799.129,1305.66 802.135,1306.97 805.141,1308.11 808.147,1309.23 811.153,1310.31 814.159,1311.37 817.165,1312.41 820.171,1313.42 823.177,1314.41 826.182,1315.37 829.188,1316.32 832.194,1317.24 835.2,1318.15 838.206,1319.03 841.212,1319.9 844.218,1320.75 847.224,1321.59 850.23,1322.41 853.236,1323.22 856.242,1324.01 859.247,1324.8 862.253,1325.57 865.259,1326.33 868.265,1327.08 871.271,1327.83 874.277,1328.56 877.283,1329.29 880.289,1330.01 883.295,1330.73 886.301,1331.45 889.307,1332.16 892.312,1332.87 895.318,1333.58 898.324,1334.29 901.33,1335.01 904.336,1335.72 907.342,1336.43 910.348,1337.15 913.354,1337.88 916.36,1338.61 919.366,1339.34 922.372,1340.09 925.377,1340.84 928.383,1341.6 931.389,1342.37 934.395,1343.15 937.401,1343.95 940.407,1344.75 943.413,1345.57 946.419,1346.41 949.425,1347.26 952.431,1348.13 955.437,1349.02 958.442,1349.92 961.448,1350.84 964.454,1351.79 967.46,1352.75 970.466,1353.74 973.472,1354.75 976.478,1355.75 979.484,1356.33 982.49,1356.89 985.496,1357.43 988.502,1357.97 991.507,1358.49 994.513,1359 997.519,1359.5 1000.53,1359.99 1003.53,1360.46 1006.54,1360.93 1009.54,1361.38 1012.55,1361.83 1015.55,1362.26 1018.56,1362.69 1021.57,1363.11 1024.57,1363.52 1027.58,1363.92 1030.58,1364.31 1033.59,1364.7 1036.6,1365.08 1039.6,1365.46 1042.61,1365.83 1045.61,1366.19 1048.62,1366.55 1051.63,1366.9 1054.63,1367.25 1057.64,1367.59 1060.64,1367.94 1063.65,1368.27 1066.66,1368.61 1069.66,1368.94 1072.67,1369.27 1075.67,1369.6 1078.68,1369.93 1081.68,1370.26 1084.69,1370.58 1087.7,1370.91 1090.7,1371.24 1093.71,1371.56 1096.71,1371.89 1099.72,1372.22 1102.73,1372.55 1105.73,1372.89 1108.74,1373.22 1111.74,1373.56 1114.75,1373.91 1117.76,1374.25 1120.76,1374.6 1123.77,1374.96 1126.77,1375.32 1129.78,1375.68 1132.79,1376.06 1135.79,1376.43 1138.8,1376.82 1141.8,1377.21 1144.81,1377.61 1147.81,1378.01 1150.82,1378.43 1153.83,1378.85 1156.83,1379.28 1159.84,1379.72 1162.84,1380.17 1165.85,1380.63 1168.86,1381.1 1171.86,1381.58 1174.87,1382.07 1177.87,1382.53 1180.88,1382.78 1183.89,1383.03 1186.89,1383.28 1189.9,1383.52 1192.9,1383.75 1195.91,1383.98 1198.92,1384.2 1201.92,1384.42 1204.93,1384.63 1207.93,1384.84 1210.94,1385.05 1213.94,1385.25 1216.95,1385.44 1219.96,1385.63 1222.96,1385.82 1225.97,1386 1228.97,1386.18 1231.98,1386.36 1234.99,1386.53 1237.99,1386.7 1241,1386.87 1244,1387.03 1247.01,1387.19 1250.02,1387.35 1253.02,1387.51 1256.03,1387.66 1259.03,1387.81 1262.04,1387.96 1265.05,1388.11 1268.05,1388.25 1271.06,1388.39 1274.06,1388.54 1277.07,1388.68 1280.07,1388.82 1283.08,1388.96 1286.09,1389.1 1289.09,1389.23 1292.1,1389.37 1295.1,1389.51 1298.11,1389.64 1301.12,1389.78 1304.12,1389.91 1307.13,1390.05 1310.13,1390.19 1313.14,1390.33 1316.15,1390.46 1319.15,1390.6 1322.16,1390.74 1325.16,1390.88 1328.17,1391.02 1331.18,1391.17 1334.18,1391.31 1337.19,1391.46 1340.19,1391.61 1343.2,1391.76 1346.2,1391.91 1349.21,1392.07 1352.22,1392.23 1355.22,1392.39 1358.23,1392.55 1361.23,1392.71 1364.24,1392.88 1367.25,1393.06 1370.25,1393.23 1373.26,1393.41 1376.26,1393.59 1379.27,1393.78 1382.28,1393.97 1385.28,1394.16 1388.29,1394.36 1391.29,1394.57 1394.3,1394.77 1397.31,1394.99 1400.31,1395.2 1403.32,1395.39 1406.32,1395.49 1409.33,1395.59 1412.33,1395.69 1415.34,1395.79 1418.35,1395.88 1421.35,1395.98 1424.36,1396.07 1427.36,1396.16 1430.37,1396.24 1433.38,1396.33 1436.38,1396.41 1439.39,1396.49 1442.39,1396.57 1445.4,1396.65 1448.41,1396.73 1451.41,1396.8 1454.42,1396.88 1457.42,1396.95 1460.43,1397.02 1463.44,1397.09 1466.44,1397.15 1469.45,1397.22 1472.45,1397.29 1475.46,1397.35 1478.46,1397.41 1481.47,1397.47 1484.48,1397.53 1487.48,1397.59 1490.49,1397.65 1493.49,1397.71 1496.5,1397.77 1499.51,1397.82 1502.51,1397.88 1505.52,1397.93 1508.52,1397.99 1511.53,1398.04 1514.54,1398.09 1517.54,1398.15 1520.55,1398.2 1523.55,1398.25 1526.56,1398.3 1529.57,1398.35 1532.57,1398.4 1535.58,1398.45 1538.58,1398.5 1541.59,1398.55 1544.59,1398.6 1547.6,1398.65 1550.61,1398.7 1553.61,1398.75 1556.62,1398.8 1559.62,1398.85 1562.63,1398.9 1565.64,1398.96 1568.64,1399.01 1571.65,1399.06 1574.65,1399.11 1577.66,1399.16 1580.67,1399.22 1583.67,1399.27 1586.68,1399.33 1589.68,1399.38 1592.69,1399.44 1595.7,1399.5 1598.7,1399.55 1601.71,1399.61 1604.71,1399.67 1607.72,1399.73 1610.72,1399.8 1613.73,1399.86 1616.74,1399.92 1619.74,1399.99 1622.75,1400.06 1625.75,1400.12 1628.76,1400.19 1631.77,1400.27 1634.77,1400.34 1637.78,1400.41 1640.78,1400.49 1643.79,1400.56 1646.8,1400.64 1649.8,1400.72 1652.81,1400.81 1655.81,1400.89 1658.82,1400.98 1661.83,1401.05 1664.83,1401.09 1667.84,1401.12 1670.84,1401.16 1673.85,1401.2 1676.85,1401.23 1679.86,1401.26 1682.87,1401.3 1685.87,1401.33 1688.88,1401.36 1691.88,1401.39 1694.89,1401.42 1697.9,1401.45 1700.9,1401.48 1703.91,1401.51 1706.91,1401.53 1709.92,1401.56 1712.93,1401.59 1715.93,1401.61 1718.94,1401.64 1721.94,1401.66 1724.95,1401.69 1727.96,1401.71 1730.96,1401.73 1733.97,1401.76 1736.97,1401.78 1739.98,1401.8 1742.98,1401.82 1745.99,1401.84 1749,1401.86 1752,1401.88 1755.01,1401.9 1758.01,1401.92 1761.02,1401.94 1764.03,1401.96 1767.03,1401.98 1770.04,1402 1773.04,1402.02 1776.05,1402.04 1779.06,1402.05 1782.06,1402.07 1785.07,1402.09 1788.07,1402.1 1791.08,1402.12 1794.09,1402.14 1797.09,1402.15 1800.1,1402.17 1803.1,1402.19 1806.11,1402.2 1809.11,1402.22 1812.12,1402.24 1815.13,1402.25 1818.13,1402.27 1821.14,1402.28 1824.14,1402.3 1827.15,1402.31 1830.16,1402.33 1833.16,1402.35 1836.17,1402.36 1839.17,1402.38 1842.18,1402.39 1845.19,1402.41 1848.19,1402.43 1851.2,1402.44 1854.2,1402.46 1857.21,1402.47 1860.22,1402.49 1863.22,1402.51 1866.23,1402.53 1869.23,1402.54 1872.24,1402.56 1875.24,1402.58 1878.25,1402.6 1881.26,1402.61 1884.26,1402.63 1887.27,1402.65 1890.27,1402.67 1893.28,1402.69 1896.29,1402.71 1899.29,1402.73 1902.3,1402.75 1905.3,1402.77 1908.31,1402.79 1911.32,1402.81 1914.32,1402.83 1917.33,1402.86 1920.33,1402.88 1923.34,1402.9 1926.35,1402.93 1929.35,1402.95 1932.36,1402.98 1935.36,1403 1938.37,1403.03 1941.37,1403.05 1944.38,1403.08 1947.39,1403.11 1950.39,1403.14 1953.4,1403.16 1956.4,1403.19 1959.41,1403.22 1962.42,1403.24 1965.42,1403.25 1968.43,1403.26 1971.43,1403.27 1974.44,1403.28 1977.45,1403.29 1980.45,1403.3 1983.46,1403.31 1986.46,1403.32 1989.47,1403.33 1992.48,1403.34 1995.48,1403.35 1998.49,1403.36 2001.49,1403.37 2004.5,1403.38 2007.5,1403.39 2010.51,1403.4 2013.52,1403.4 2016.52,1403.41 2019.53,1403.42 2022.53,1403.43 2025.54,1403.43 2028.55,1403.44 2031.55,1403.45 2034.56,1403.46 2037.56,1403.46 2040.57,1403.47 2043.58,1403.48 2046.58,1403.48 2049.59,1403.49 2052.59,1403.49 2055.6,1403.5 2058.61,1403.51 2061.61,1403.51 2064.62,1403.52 2067.62,1403.52 2070.63,1403.53 2073.63,1403.53 2076.64,1403.54 2079.65,1403.54 2082.65,1403.55 2085.66,1403.55 2088.66,1403.56 2091.67,1403.56 2094.68,1403.57 2097.68,1403.57 2100.69,1403.58 2103.69,1403.58 2106.7,1403.59 2109.71,1403.59 2112.71,1403.6 2115.72,1403.6 2118.72,1403.61 2121.73,1403.61 2124.74,1403.61 2127.74,1403.62 2130.75,1403.62 2133.75,1403.63 2136.76,1403.63 2139.76,1403.63 2142.77,1403.64 2145.78,1403.64 2148.78,1403.65 2151.79,1403.65 2154.79,1403.65 2157.8,1403.66 2160.81,1403.66 2163.81,1403.67 2166.82,1403.67 2169.82,1403.67 2172.83,1403.68 2175.84,1403.68 2178.84,1403.69 2181.85,1403.69 2184.85,1403.7 2187.86,1403.7 2190.87,1403.7 2193.87,1403.71 2196.88,1403.71 2199.88,1403.72 2202.89,1403.72 2205.89,1403.73 2208.9,1403.73 2211.91,1403.73 2214.91,1403.74 2217.92,1403.74 2220.92,1403.75 2223.93,1403.75 2226.94,1403.76 2229.94,1403.76 2232.95,1403.77 2235.95,1403.77 2238.96,1403.78 2241.97,1403.78 2244.97,1403.79 2247.98,1403.8 2250.98,1403.8 2253.99,1403.81 2257,1403.81 2260,1403.82 2263.01,1403.82 2266.01,1403.83 2269.02,1403.84 2272.02,1403.84 2275.03,1403.85 2278.04,1403.86 2281.04,1403.86 2284.05,1403.87 2287.05,1403.88 2290.06,1403.89 2293.07,1403.89 2296.07,1403.9 2299.08,1403.91 2302.08,1403.92 2305.09,1403.93 2308.1,1403.93 2311.1,1403.94 2314.11,1403.95 2317.11,1403.96 2320.12,1403.96 2323.13,1403.96 2326.13,1403.96 2329.14,1403.97 2332.14,1403.97 2335.15,1403.97 2338.15,1403.97 2341.16,1403.98 2344.17,1403.98 2347.17,1403.98 2350.18,1403.98 2353.18,1403.98 2356.19,1403.99 2359.2,1403.99 2362.2,1403.99 2365.21,1403.99 2368.21,1404 2371.22,1404 2374.23,1404 2377.23,1404 2380.24,1404 2383.24,1404 2386.25,1404.01 2389.26,1404.01 2392.26,1404.01 2395.27,1404.01 2398.27,1404.01 2401.28,1404.01 2404.28,1404.02 2407.29,1404.02 2410.3,1404.02 2413.3,1404.02 2416.31,1404.02 2419.31,1404.02 2422.32,1404.03 2425.33,1404.03 2428.33,1404.03 2431.34,1404.03 2434.34,1404.03 2437.35,1404.03 2440.36,1404.03 2443.36,1404.03 2446.37,1404.04 2449.37,1404.04 2452.38,1404.04 2455.39,1404.04 2458.39,1404.04 2461.4,1404.04 2464.4,1404.04 2467.41,1404.04 2470.41,1404.04 2473.42,1404.05 2476.43,1404.05 2479.43,1404.05 2482.44,1404.05 2485.44,1404.05 2488.45,1404.05 2491.46,1404.05 2494.46,1404.05 2497.47,1404.05 2500.47,1404.05 2503.48,1404.05 2506.49,1404.06 2509.49,1404.06 2512.5,1404.06 2515.5,1404.06 2518.51,1404.06 2521.52,1404.06 2524.52,1404.06 2527.53,1404.06 2530.53,1404.06 2533.54,1404.06 2536.54,1404.06 2539.55,1404.06 2542.56,1404.06 2545.56,1404.07 2548.57,1404.07 2551.57,1404.07 2554.58,1404.07 2557.59,1404.07 2560.59,1404.07 2563.6,1404.07 2566.6,1404.07 2569.61,1404.07 2572.62,1404.07 2575.62,1404.07 2578.63,1404.07 2581.63,1404.07 2584.64,1404.08 2587.65,1404.08 2590.65,1404.08 2593.66,1404.08 2596.66,1404.08 2599.67,1404.08 2602.67,1404.08 2605.68,1404.08 2608.69,1404.08 2611.69,1404.08 2614.7,1404.08 2617.7,1404.09 2620.71,1404.09 2623.72,1404.09 2626.72,1404.09 2629.73,1404.09 2632.73,1404.09 2635.74,1404.09 2638.75,1404.09 2641.75,1404.09 2644.76,1404.09 2647.76,1404.09 2650.77,1404.1 2653.78,1404.1 2656.78,1404.1 2659.79,1404.1 2662.79,1404.1 2665.8,1404.1 2668.8,1404.1 2671.81,1404.1 2674.82,1404.11 2677.82,1404.11 2680.83,1404.11 2683.83,1404.11 2686.84,1404.11 2689.85,1404.11 2692.85,1404.11 2695.86,1404.12 2698.86,1404.12 2701.87,1404.12 2704.88,1404.12 2707.88,1404.12 2710.89,1404.12 2713.89,1404.12 2716.9,1404.13 2719.91,1404.13 2722.91,1404.13 2725.92,1404.13 2728.92,1404.13 2731.93,1404.14 2734.93,1404.14 2737.94,1404.14 2740.95,1404.14 2743.95,1404.14 2746.96,1404.14 2749.96,1404.14 2752.97,1404.14 2755.98,1404.14 2758.98,1404.14 2761.99,1404.15 2764.99,1404.15 2768,1404.15 2771.01,1404.15 2774.01,1404.15 2777.02,1404.15 2780.02,1404.15 2783.03,1404.15 2786.04,1404.15 2789.04,1404.15 2792.05,1404.15 2795.05,1404.15 2798.06,1404.15 2801.06,1404.15 2804.07,1404.15 2807.08,1404.15 2810.08,1404.15 2813.09,1404.15 2816.09,1404.15 2819.1,1404.15 2822.11,1404.15 2825.11,1404.15 2828.12,1404.15 2831.12,1404.15 2834.13,1404.15 2837.14,1404.15 2840.14,1404.15 2843.15,1404.16 2846.15,1404.16 2849.16,1404.16 2852.17,1404.16 2855.17,1404.16 2858.18,1404.16 2861.18,1404.16 2864.19,1404.16 2867.19,1404.16 2870.2,1404.16 2873.21,1404.16 2876.21,1404.16 2879.22,1404.16 2882.22,1404.16 2885.23,1404.16 2888.24,1404.16 2891.24,1404.16 2894.25,1404.16 2897.25,1404.16 2900.26,1404.16 2903.27,1404.16 2906.27,1404.16 2909.28,1404.16 2912.28,1404.16 2915.29,1404.16 2918.3,1404.16 2921.3,1404.16 2924.31,1404.16 2927.31,1404.16 2930.32,1404.16 2933.32,1404.16 2936.33,1404.16 2939.34,1404.16 2942.34,1404.16 2945.35,1404.16 2948.35,1404.16 2951.36,1404.16 2954.37,1404.16 2957.37,1404.16 2960.38,1404.16 2963.38,1404.16 2966.39,1404.16 2969.4,1404.16 2972.4,1404.16 2975.41,1404.16 2978.41,1404.16 2981.42,1404.16 2984.43,1404.16 2987.43,1404.16 2990.44,1404.16 2993.44,1404.16 2996.45,1404.16 2999.45,1404.16 3002.46,1404.17 3005.47,1404.17 3008.47,1404.17 3011.48,1404.17 3014.48,1404.17 3017.49,1404.17 3020.5,1404.17 3023.5,1404.17 3026.51,1404.17 3029.51,1404.17 3032.52,1404.17 3035.53,1404.17 3038.53,1404.17 3041.54,1404.17 3044.54,1404.17 3047.55,1404.17 3050.56,1404.17 3053.56,1404.17 3056.57,1404.17 3059.57,1404.17 3062.58,1404.17 3065.58,1404.17 3068.59,1404.17 3071.6,1404.17 3074.6,1404.17 3077.61,1404.17 3080.61,1404.17 3083.62,1404.17 3086.63,1404.17 3089.63,1404.17 3092.64,1404.17 3095.64,1404.17 3098.65,1404.17 3101.66,1404.17 3104.66,1404.17 3107.67,1404.17 3110.67,1404.17 3113.68,1404.17 3116.68,1404.17 3119.69,1404.17 3122.7,1404.17 3125.7,1404.17 3128.71,1404.17 3131.71,1404.17 3134.72,1404.18 3137.73,1404.18 3140.73,1404.18 3143.74,1404.18 3146.74,1404.18 3149.75,1404.18 3152.76,1404.18 "/>
<path clip-path="url(#clip860)" d="M2704.89 197.473 L3052.66 197.473 L3052.66 93.7926 L2704.89 93.7926  Z" fill="#ffffff" fill-rule="evenodd" fill-opacity="1"/>
<polyline clip-path="url(#clip860)" style="stroke:#000000; stroke-linecap:round; stroke-linejoin:round; stroke-width:4; stroke-opacity:1; fill:none" points="2704.89,197.473 3052.66,197.473 3052.66,93.7926 2704.89,93.7926 2704.89,197.473 "/>
<polyline clip-path="url(#clip860)" style="stroke:#009af9; stroke-linecap:round; stroke-linejoin:round; stroke-width:12; stroke-opacity:1; fill:none" points="2738.26,145.633 2938.45,145.633 "/>
<path clip-path="url(#clip860)" d="M2973.39 128.353 L2978.41 128.353 L2987 141.2 L2995.64 128.353 L3000.66 128.353 L2989.55 144.95 L3001.4 162.913 L2996.38 162.913 L2986.65 148.214 L2976.86 162.913 L2971.82 162.913 L2984.15 144.464 L2973.39 128.353 Z" fill="#000000" fill-rule="nonzero" fill-opacity="1" /><path clip-path="url(#clip860)" d="M3006.49 160.366 L3011.21 160.366 L3011.21 146.223 L3006.05 147.172 L3006.05 144.487 L3011.38 143.584 L3014.55 143.584 L3014.55 160.366 L3019.29 160.366 L3019.29 162.913 L3006.49 162.913 L3006.49 160.366 Z" fill="#000000" fill-rule="nonzero" fill-opacity="1" /></svg>
