<?xml version="1.0" encoding="utf-8"?>
<svg xmlns="http://www.w3.org/2000/svg" xmlns:xlink="http://www.w3.org/1999/xlink" width="800" height="350" viewBox="0 0 3200 1400">
<defs>
  <clipPath id="clip680">
    <rect x="0" y="0" width="3200" height="1400"/>
  </clipPath>
</defs>
<path clip-path="url(#clip680)" d="M0 1400 L3200 1400 L3200 0 L0 0  Z" fill="#ffffff" fill-rule="evenodd" fill-opacity="1"/>
<defs>
  <clipPath id="clip681">
    <rect x="214" y="47" width="2939" height="1176"/>
  </clipPath>
</defs>
<path clip-path="url(#clip680)" d="M214.354 1221.9 L3152.76 1221.9 L3152.76 47.2441 L214.354 47.2441  Z" fill="#ffffff" fill-rule="evenodd" fill-opacity="1"/>
<polyline clip-path="url(#clip681)" style="stroke:#000000; stroke-linecap:round; stroke-linejoin:round; stroke-width:2; stroke-opacity:0.1; fill:none" points="214.354,1221.9 214.354,47.2441 "/>
<polyline clip-path="url(#clip681)" style="stroke:#000000; stroke-linecap:round; stroke-linejoin:round; stroke-width:2; stroke-opacity:0.1; fill:none" points="802.035,1221.9 802.035,47.2441 "/>
<polyline clip-path="url(#clip681)" style="stroke:#000000; stroke-linecap:round; stroke-linejoin:round; stroke-width:2; stroke-opacity:0.1; fill:none" points="1389.71,1221.9 1389.71,47.2441 "/>
<polyline clip-path="url(#clip681)" style="stroke:#000000; stroke-linecap:round; stroke-linejoin:round; stroke-width:2; stroke-opacity:0.1; fill:none" points="1977.4,1221.9 1977.4,47.2441 "/>
<polyline clip-path="url(#clip681)" style="stroke:#000000; stroke-linecap:round; stroke-linejoin:round; stroke-width:2; stroke-opacity:0.1; fill:none" points="2565.08,1221.9 2565.08,47.2441 "/>
<polyline clip-path="url(#clip681)" style="stroke:#000000; stroke-linecap:round; stroke-linejoin:round; stroke-width:2; stroke-opacity:0.1; fill:none" points="3152.76,1221.9 3152.76,47.2441 "/>
<polyline clip-path="url(#clip681)" style="stroke:#000000; stroke-linecap:round; stroke-linejoin:round; stroke-width:2; stroke-opacity:0.1; fill:none" points="214.354,1221.9 214.354,47.2441 "/>
<polyline clip-path="url(#clip681)" style="stroke:#000000; stroke-linecap:round; stroke-linejoin:round; stroke-width:2; stroke-opacity:0.1; fill:none" points="802.035,1221.9 802.035,47.2441 "/>
<polyline clip-path="url(#clip681)" style="stroke:#000000; stroke-linecap:round; stroke-linejoin:round; stroke-width:2; stroke-opacity:0.1; fill:none" points="1389.71,1221.9 1389.71,47.2441 "/>
<polyline clip-path="url(#clip681)" style="stroke:#000000; stroke-linecap:round; stroke-linejoin:round; stroke-width:2; stroke-opacity:0.1; fill:none" points="1977.4,1221.9 1977.4,47.2441 "/>
<polyline clip-path="url(#clip681)" style="stroke:#000000; stroke-linecap:round; stroke-linejoin:round; stroke-width:2; stroke-opacity:0.1; fill:none" points="2565.08,1221.9 2565.08,47.2441 "/>
<polyline clip-path="url(#clip681)" style="stroke:#000000; stroke-linecap:round; stroke-linejoin:round; stroke-width:2; stroke-opacity:0.1; fill:none" points="3152.76,1221.9 3152.76,47.2441 "/>
<polyline clip-path="url(#clip681)" style="stroke:#000000; stroke-linecap:round; stroke-linejoin:round; stroke-width:2; stroke-opacity:0.1; fill:none" points="214.354,1188.67 3152.76,1188.67 "/>
<polyline clip-path="url(#clip681)" style="stroke:#000000; stroke-linecap:round; stroke-linejoin:round; stroke-width:2; stroke-opacity:0.1; fill:none" points="214.354,1003.63 3152.76,1003.63 "/>
<polyline clip-path="url(#clip681)" style="stroke:#000000; stroke-linecap:round; stroke-linejoin:round; stroke-width:2; stroke-opacity:0.1; fill:none" points="214.354,818.583 3152.76,818.583 "/>
<polyline clip-path="url(#clip681)" style="stroke:#000000; stroke-linecap:round; stroke-linejoin:round; stroke-width:2; stroke-opacity:0.1; fill:none" points="214.354,633.54 3152.76,633.54 "/>
<polyline clip-path="url(#clip681)" style="stroke:#000000; stroke-linecap:round; stroke-linejoin:round; stroke-width:2; stroke-opacity:0.1; fill:none" points="214.354,448.497 3152.76,448.497 "/>
<polyline clip-path="url(#clip681)" style="stroke:#000000; stroke-linecap:round; stroke-linejoin:round; stroke-width:2; stroke-opacity:0.1; fill:none" points="214.354,263.454 3152.76,263.454 "/>
<polyline clip-path="url(#clip681)" style="stroke:#000000; stroke-linecap:round; stroke-linejoin:round; stroke-width:2; stroke-opacity:0.1; fill:none" points="214.354,78.4114 3152.76,78.4114 "/>
<polyline clip-path="url(#clip681)" style="stroke:#000000; stroke-linecap:round; stroke-linejoin:round; stroke-width:2; stroke-opacity:0.1; fill:none" points="214.354,1188.67 3152.76,1188.67 "/>
<polyline clip-path="url(#clip681)" style="stroke:#000000; stroke-linecap:round; stroke-linejoin:round; stroke-width:2; stroke-opacity:0.1; fill:none" points="214.354,1003.63 3152.76,1003.63 "/>
<polyline clip-path="url(#clip681)" style="stroke:#000000; stroke-linecap:round; stroke-linejoin:round; stroke-width:2; stroke-opacity:0.1; fill:none" points="214.354,818.583 3152.76,818.583 "/>
<polyline clip-path="url(#clip681)" style="stroke:#000000; stroke-linecap:round; stroke-linejoin:round; stroke-width:2; stroke-opacity:0.1; fill:none" points="214.354,633.54 3152.76,633.54 "/>
<polyline clip-path="url(#clip681)" style="stroke:#000000; stroke-linecap:round; stroke-linejoin:round; stroke-width:2; stroke-opacity:0.1; fill:none" points="214.354,448.497 3152.76,448.497 "/>
<polyline clip-path="url(#clip681)" style="stroke:#000000; stroke-linecap:round; stroke-linejoin:round; stroke-width:2; stroke-opacity:0.1; fill:none" points="214.354,263.454 3152.76,263.454 "/>
<polyline clip-path="url(#clip681)" style="stroke:#000000; stroke-linecap:round; stroke-linejoin:round; stroke-width:2; stroke-opacity:0.1; fill:none" points="214.354,78.4114 3152.76,78.4114 "/>
<polyline clip-path="url(#clip680)" style="stroke:#000000; stroke-linecap:round; stroke-linejoin:round; stroke-width:4; stroke-opacity:1; fill:none" points="214.354,1221.9 3152.76,1221.9 "/>
<polyline clip-path="url(#clip680)" style="stroke:#000000; stroke-linecap:round; stroke-linejoin:round; stroke-width:4; stroke-opacity:1; fill:none" points="214.354,47.2441 3152.76,47.2441 "/>
<polyline clip-path="url(#clip680)" style="stroke:#000000; stroke-linecap:round; stroke-linejoin:round; stroke-width:4; stroke-opacity:1; fill:none" points="214.354,1221.9 214.354,1203 "/>
<polyline clip-path="url(#clip680)" style="stroke:#000000; stroke-linecap:round; stroke-linejoin:round; stroke-width:4; stroke-opacity:1; fill:none" points="802.035,1221.9 802.035,1203 "/>
<polyline clip-path="url(#clip680)" style="stroke:#000000; stroke-linecap:round; stroke-linejoin:round; stroke-width:4; stroke-opacity:1; fill:none" points="1389.71,1221.9 1389.71,1203 "/>
<polyline clip-path="url(#clip680)" style="stroke:#000000; stroke-linecap:round; stroke-linejoin:round; stroke-width:4; stroke-opacity:1; fill:none" points="1977.4,1221.9 1977.4,1203 "/>
<polyline clip-path="url(#clip680)" style="stroke:#000000; stroke-linecap:round; stroke-linejoin:round; stroke-width:4; stroke-opacity:1; fill:none" points="2565.08,1221.9 2565.08,1203 "/>
<polyline clip-path="url(#clip680)" style="stroke:#000000; stroke-linecap:round; stroke-linejoin:round; stroke-width:4; stroke-opacity:1; fill:none" points="3152.76,1221.9 3152.76,1203 "/>
<polyline clip-path="url(#clip680)" style="stroke:#000000; stroke-linecap:round; stroke-linejoin:round; stroke-width:4; stroke-opacity:1; fill:none" points="214.354,47.2441 214.354,66.1417 "/>
<polyline clip-path="url(#clip680)" style="stroke:#000000; stroke-linecap:round; stroke-linejoin:round; stroke-width:4; stroke-opacity:1; fill:none" points="802.035,47.2441 802.035,66.1417 "/>
<polyline clip-path="url(#clip680)" style="stroke:#000000; stroke-linecap:round; stroke-linejoin:round; stroke-width:4; stroke-opacity:1; fill:none" points="1389.71,47.2441 1389.71,66.1417 "/>
<polyline clip-path="url(#clip680)" style="stroke:#000000; stroke-linecap:round; stroke-linejoin:round; stroke-width:4; stroke-opacity:1; fill:none" points="1977.4,47.2441 1977.4,66.1417 "/>
<polyline clip-path="url(#clip680)" style="stroke:#000000; stroke-linecap:round; stroke-linejoin:round; stroke-width:4; stroke-opacity:1; fill:none" points="2565.08,47.2441 2565.08,66.1417 "/>
<polyline clip-path="url(#clip680)" style="stroke:#000000; stroke-linecap:round; stroke-linejoin:round; stroke-width:4; stroke-opacity:1; fill:none" points="3152.76,47.2441 3152.76,66.1417 "/>
<path clip-path="url(#clip680)" d="M214.354 1259.22 Q210.743 1259.22 208.915 1262.78 Q207.109 1266.32 207.109 1273.45 Q207.109 1280.56 208.915 1284.12 Q210.743 1287.67 214.354 1287.67 Q217.989 1287.67 219.794 1284.12 Q221.623 1280.56 221.623 1273.45 Q221.623 1266.32 219.794 1262.78 Q217.989 1259.22 214.354 1259.22 M214.354 1255.51 Q220.164 1255.51 223.22 1260.12 Q226.299 1264.7 226.299 1273.45 Q226.299 1282.18 223.22 1286.79 Q220.164 1291.37 214.354 1291.37 Q208.544 1291.37 205.465 1286.79 Q202.41 1282.18 202.41 1273.45 Q202.41 1264.7 205.465 1260.12 Q208.544 1255.51 214.354 1255.51 Z" fill="#000000" fill-rule="nonzero" fill-opacity="1" /><path clip-path="url(#clip680)" d="M796.687 1286.76 L813.007 1286.76 L813.007 1290.7 L791.062 1290.7 L791.062 1286.76 Q793.724 1284.01 798.308 1279.38 Q802.914 1274.73 804.095 1273.38 Q806.34 1270.86 807.22 1269.12 Q808.123 1267.37 808.123 1265.68 Q808.123 1262.92 806.178 1261.19 Q804.257 1259.45 801.155 1259.45 Q798.956 1259.45 796.502 1260.21 Q794.072 1260.98 791.294 1262.53 L791.294 1257.81 Q794.118 1256.67 796.572 1256.09 Q799.025 1255.51 801.062 1255.51 Q806.433 1255.51 809.627 1258.2 Q812.822 1260.88 812.822 1265.37 Q812.822 1267.5 812.011 1269.43 Q811.224 1271.32 809.118 1273.92 Q808.539 1274.59 805.437 1277.81 Q802.336 1281 796.687 1286.76 Z" fill="#000000" fill-rule="nonzero" fill-opacity="1" /><path clip-path="url(#clip680)" d="M1392.72 1260.21 L1380.92 1278.66 L1392.72 1278.66 L1392.72 1260.21 M1391.5 1256.14 L1397.38 1256.14 L1397.38 1278.66 L1402.31 1278.66 L1402.31 1282.55 L1397.38 1282.55 L1397.38 1290.7 L1392.72 1290.7 L1392.72 1282.55 L1377.12 1282.55 L1377.12 1278.04 L1391.5 1256.14 Z" fill="#000000" fill-rule="nonzero" fill-opacity="1" /><path clip-path="url(#clip680)" d="M1977.8 1271.56 Q1974.65 1271.56 1972.8 1273.71 Q1970.97 1275.86 1970.97 1279.61 Q1970.97 1283.34 1972.8 1285.51 Q1974.65 1287.67 1977.8 1287.67 Q1980.95 1287.67 1982.78 1285.51 Q1984.63 1283.34 1984.63 1279.61 Q1984.63 1275.86 1982.78 1273.71 Q1980.95 1271.56 1977.8 1271.56 M1987.08 1256.9 L1987.08 1261.16 Q1985.32 1260.33 1983.52 1259.89 Q1981.74 1259.45 1979.98 1259.45 Q1975.35 1259.45 1972.89 1262.57 Q1970.46 1265.7 1970.12 1272.02 Q1971.48 1270 1973.54 1268.94 Q1975.6 1267.85 1978.08 1267.85 Q1983.29 1267.85 1986.3 1271.02 Q1989.33 1274.17 1989.33 1279.61 Q1989.33 1284.93 1986.18 1288.15 Q1983.03 1291.37 1977.8 1291.37 Q1971.81 1291.37 1968.63 1286.79 Q1965.46 1282.18 1965.46 1273.45 Q1965.46 1265.26 1969.35 1260.4 Q1973.24 1255.51 1979.79 1255.51 Q1981.55 1255.51 1983.33 1255.86 Q1985.14 1256.21 1987.08 1256.9 Z" fill="#000000" fill-rule="nonzero" fill-opacity="1" /><path clip-path="url(#clip680)" d="M2565.08 1274.29 Q2561.74 1274.29 2559.82 1276.07 Q2557.92 1277.85 2557.92 1280.98 Q2557.92 1284.1 2559.82 1285.88 Q2561.74 1287.67 2565.08 1287.67 Q2568.41 1287.67 2570.33 1285.88 Q2572.25 1284.08 2572.25 1280.98 Q2572.25 1277.85 2570.33 1276.07 Q2568.43 1274.29 2565.08 1274.29 M2560.4 1272.3 Q2557.39 1271.56 2555.7 1269.5 Q2554.03 1267.44 2554.03 1264.47 Q2554.03 1260.33 2556.97 1257.92 Q2559.94 1255.51 2565.08 1255.51 Q2570.24 1255.51 2573.18 1257.92 Q2576.12 1260.33 2576.12 1264.47 Q2576.12 1267.44 2574.43 1269.5 Q2572.76 1271.56 2569.77 1272.3 Q2573.15 1273.08 2575.03 1275.37 Q2576.93 1277.67 2576.93 1280.98 Q2576.93 1286 2573.85 1288.68 Q2570.79 1291.37 2565.08 1291.37 Q2559.36 1291.37 2556.28 1288.68 Q2553.22 1286 2553.22 1280.98 Q2553.22 1277.67 2555.12 1275.37 Q2557.02 1273.08 2560.4 1272.3 M2558.69 1264.91 Q2558.69 1267.6 2560.35 1269.1 Q2562.04 1270.61 2565.08 1270.61 Q2568.08 1270.61 2569.77 1269.1 Q2571.49 1267.6 2571.49 1264.91 Q2571.49 1262.23 2569.77 1260.72 Q2568.08 1259.22 2565.08 1259.22 Q2562.04 1259.22 2560.35 1260.72 Q2558.69 1262.23 2558.69 1264.91 Z" fill="#000000" fill-rule="nonzero" fill-opacity="1" /><path clip-path="url(#clip680)" d="M3127.44 1286.76 L3135.08 1286.76 L3135.08 1260.4 L3126.77 1262.06 L3126.77 1257.81 L3135.04 1256.14 L3139.71 1256.14 L3139.71 1286.76 L3147.35 1286.76 L3147.35 1290.7 L3127.44 1290.7 L3127.44 1286.76 Z" fill="#000000" fill-rule="nonzero" fill-opacity="1" /><path clip-path="url(#clip680)" d="M3166.8 1259.22 Q3163.18 1259.22 3161.36 1262.78 Q3159.55 1266.32 3159.55 1273.45 Q3159.55 1280.56 3161.36 1284.12 Q3163.18 1287.67 3166.8 1287.67 Q3170.43 1287.67 3172.23 1284.12 Q3174.06 1280.56 3174.06 1273.45 Q3174.06 1266.32 3172.23 1262.78 Q3170.43 1259.22 3166.8 1259.22 M3166.8 1255.51 Q3172.61 1255.51 3175.66 1260.12 Q3178.74 1264.7 3178.74 1273.45 Q3178.74 1282.18 3175.66 1286.79 Q3172.61 1291.37 3166.8 1291.37 Q3160.99 1291.37 3157.91 1286.79 Q3154.85 1282.18 3154.85 1273.45 Q3154.85 1264.7 3157.91 1260.12 Q3160.99 1255.51 3166.8 1255.51 Z" fill="#000000" fill-rule="nonzero" fill-opacity="1" /><path clip-path="url(#clip680)" d="M1682.62 1332.99 L1682.62 1343.11 L1694.68 1343.11 L1694.68 1347.67 L1682.62 1347.67 L1682.62 1367.02 Q1682.62 1371.38 1683.79 1372.62 Q1685 1373.86 1688.66 1373.86 L1694.68 1373.86 L1694.68 1378.76 L1688.66 1378.76 Q1681.88 1378.76 1679.31 1376.25 Q1676.73 1373.7 1676.73 1367.02 L1676.73 1347.67 L1672.43 1347.67 L1672.43 1343.11 L1676.73 1343.11 L1676.73 1332.99 L1682.62 1332.99 Z" fill="#000000" fill-rule="nonzero" fill-opacity="1" /><polyline clip-path="url(#clip680)" style="stroke:#000000; stroke-linecap:round; stroke-linejoin:round; stroke-width:4; stroke-opacity:1; fill:none" points="214.354,1221.9 214.354,47.2441 "/>
<polyline clip-path="url(#clip680)" style="stroke:#000000; stroke-linecap:round; stroke-linejoin:round; stroke-width:4; stroke-opacity:1; fill:none" points="3152.76,1221.9 3152.76,47.2441 "/>
<polyline clip-path="url(#clip680)" style="stroke:#000000; stroke-linecap:round; stroke-linejoin:round; stroke-width:4; stroke-opacity:1; fill:none" points="214.354,1188.67 233.252,1188.67 "/>
<polyline clip-path="url(#clip680)" style="stroke:#000000; stroke-linecap:round; stroke-linejoin:round; stroke-width:4; stroke-opacity:1; fill:none" points="214.354,1003.63 233.252,1003.63 "/>
<polyline clip-path="url(#clip680)" style="stroke:#000000; stroke-linecap:round; stroke-linejoin:round; stroke-width:4; stroke-opacity:1; fill:none" points="214.354,818.583 233.252,818.583 "/>
<polyline clip-path="url(#clip680)" style="stroke:#000000; stroke-linecap:round; stroke-linejoin:round; stroke-width:4; stroke-opacity:1; fill:none" points="214.354,633.54 233.252,633.54 "/>
<polyline clip-path="url(#clip680)" style="stroke:#000000; stroke-linecap:round; stroke-linejoin:round; stroke-width:4; stroke-opacity:1; fill:none" points="214.354,448.497 233.252,448.497 "/>
<polyline clip-path="url(#clip680)" style="stroke:#000000; stroke-linecap:round; stroke-linejoin:round; stroke-width:4; stroke-opacity:1; fill:none" points="214.354,263.454 233.252,263.454 "/>
<polyline clip-path="url(#clip680)" style="stroke:#000000; stroke-linecap:round; stroke-linejoin:round; stroke-width:4; stroke-opacity:1; fill:none" points="214.354,78.4114 233.252,78.4114 "/>
<polyline clip-path="url(#clip680)" style="stroke:#000000; stroke-linecap:round; stroke-linejoin:round; stroke-width:4; stroke-opacity:1; fill:none" points="3152.76,1188.67 3133.86,1188.67 "/>
<polyline clip-path="url(#clip680)" style="stroke:#000000; stroke-linecap:round; stroke-linejoin:round; stroke-width:4; stroke-opacity:1; fill:none" points="3152.76,1003.63 3133.86,1003.63 "/>
<polyline clip-path="url(#clip680)" style="stroke:#000000; stroke-linecap:round; stroke-linejoin:round; stroke-width:4; stroke-opacity:1; fill:none" points="3152.76,818.583 3133.86,818.583 "/>
<polyline clip-path="url(#clip680)" style="stroke:#000000; stroke-linecap:round; stroke-linejoin:round; stroke-width:4; stroke-opacity:1; fill:none" points="3152.76,633.54 3133.86,633.54 "/>
<polyline clip-path="url(#clip680)" style="stroke:#000000; stroke-linecap:round; stroke-linejoin:round; stroke-width:4; stroke-opacity:1; fill:none" points="3152.76,448.497 3133.86,448.497 "/>
<polyline clip-path="url(#clip680)" style="stroke:#000000; stroke-linecap:round; stroke-linejoin:round; stroke-width:4; stroke-opacity:1; fill:none" points="3152.76,263.454 3133.86,263.454 "/>
<polyline clip-path="url(#clip680)" style="stroke:#000000; stroke-linecap:round; stroke-linejoin:round; stroke-width:4; stroke-opacity:1; fill:none" points="3152.76,78.4114 3133.86,78.4114 "/>
<path clip-path="url(#clip680)" d="M154.41 1174.47 Q150.799 1174.47 148.97 1178.03 Q147.165 1181.57 147.165 1188.7 Q147.165 1195.81 148.97 1199.37 Q150.799 1202.92 154.41 1202.92 Q158.044 1202.92 159.85 1199.37 Q161.678 1195.81 161.678 1188.7 Q161.678 1181.57 159.85 1178.03 Q158.044 1174.47 154.41 1174.47 M154.41 1170.76 Q160.22 1170.76 163.276 1175.37 Q166.354 1179.95 166.354 1188.7 Q166.354 1197.43 163.276 1202.04 Q160.22 1206.62 154.41 1206.62 Q148.6 1206.62 145.521 1202.04 Q142.466 1197.43 142.466 1188.7 Q142.466 1179.95 145.521 1175.37 Q148.6 1170.76 154.41 1170.76 Z" fill="#000000" fill-rule="nonzero" fill-opacity="1" /><path clip-path="url(#clip680)" d="M146.447 1016.97 L154.086 1016.97 L154.086 990.605 L145.776 992.272 L145.776 988.013 L154.04 986.346 L158.715 986.346 L158.715 1016.97 L166.354 1016.97 L166.354 1020.91 L146.447 1020.91 L146.447 1016.97 Z" fill="#000000" fill-rule="nonzero" fill-opacity="1" /><path clip-path="url(#clip680)" d="M150.035 831.928 L166.354 831.928 L166.354 835.863 L144.41 835.863 L144.41 831.928 Q147.072 829.173 151.655 824.544 Q156.262 819.891 157.442 818.548 Q159.688 816.025 160.567 814.289 Q161.47 812.53 161.47 810.84 Q161.47 808.085 159.526 806.349 Q157.604 804.613 154.503 804.613 Q152.303 804.613 149.85 805.377 Q147.419 806.141 144.641 807.692 L144.641 802.97 Q147.466 801.836 149.919 801.257 Q152.373 800.678 154.41 800.678 Q159.78 800.678 162.975 803.363 Q166.169 806.048 166.169 810.539 Q166.169 812.669 165.359 814.59 Q164.572 816.488 162.465 819.081 Q161.887 819.752 158.785 822.97 Q155.683 826.164 150.035 831.928 Z" fill="#000000" fill-rule="nonzero" fill-opacity="1" /><path clip-path="url(#clip680)" d="M159.225 632.186 Q162.581 632.904 164.456 635.172 Q166.354 637.441 166.354 640.774 Q166.354 645.89 162.836 648.691 Q159.317 651.491 152.836 651.491 Q150.66 651.491 148.345 651.052 Q146.053 650.635 143.6 649.779 L143.6 645.265 Q145.544 646.399 147.859 646.978 Q150.174 647.556 152.697 647.556 Q157.095 647.556 159.387 645.82 Q161.702 644.084 161.702 640.774 Q161.702 637.718 159.549 636.005 Q157.419 634.269 153.6 634.269 L149.572 634.269 L149.572 630.427 L153.785 630.427 Q157.234 630.427 159.063 629.061 Q160.891 627.672 160.891 625.08 Q160.891 622.418 158.993 621.006 Q157.118 619.57 153.6 619.57 Q151.678 619.57 149.479 619.987 Q147.28 620.404 144.641 621.283 L144.641 617.117 Q147.303 616.376 149.618 616.006 Q151.956 615.635 154.016 615.635 Q159.34 615.635 162.442 618.066 Q165.544 620.473 165.544 624.593 Q165.544 627.464 163.901 629.455 Q162.257 631.422 159.225 632.186 Z" fill="#000000" fill-rule="nonzero" fill-opacity="1" /><path clip-path="url(#clip680)" d="M156.771 435.291 L144.966 453.74 L156.771 453.74 L156.771 435.291 M155.544 431.217 L161.424 431.217 L161.424 453.74 L166.354 453.74 L166.354 457.629 L161.424 457.629 L161.424 465.777 L156.771 465.777 L156.771 457.629 L141.169 457.629 L141.169 453.115 L155.544 431.217 Z" fill="#000000" fill-rule="nonzero" fill-opacity="1" /><path clip-path="url(#clip680)" d="M145.452 246.174 L163.808 246.174 L163.808 250.109 L149.734 250.109 L149.734 258.582 Q150.753 258.234 151.771 258.072 Q152.79 257.887 153.808 257.887 Q159.595 257.887 162.975 261.058 Q166.354 264.23 166.354 269.646 Q166.354 275.225 162.882 278.327 Q159.41 281.406 153.09 281.406 Q150.915 281.406 148.646 281.035 Q146.401 280.665 143.993 279.924 L143.993 275.225 Q146.077 276.359 148.299 276.915 Q150.521 277.47 152.998 277.47 Q157.003 277.47 159.34 275.364 Q161.678 273.257 161.678 269.646 Q161.678 266.035 159.34 263.929 Q157.003 261.822 152.998 261.822 Q151.123 261.822 149.248 262.239 Q147.396 262.656 145.452 263.535 L145.452 246.174 Z" fill="#000000" fill-rule="nonzero" fill-opacity="1" /><path clip-path="url(#clip680)" d="M154.827 76.5479 Q151.678 76.5479 149.827 78.7007 Q147.998 80.8535 147.998 84.6034 Q147.998 88.3303 149.827 90.5062 Q151.678 92.659 154.827 92.659 Q157.975 92.659 159.803 90.5062 Q161.655 88.3303 161.655 84.6034 Q161.655 80.8535 159.803 78.7007 Q157.975 76.5479 154.827 76.5479 M164.109 61.8952 L164.109 66.1545 Q162.35 65.3211 160.544 64.8813 Q158.762 64.4415 157.003 64.4415 Q152.373 64.4415 149.919 67.5665 Q147.489 70.6915 147.141 77.0109 Q148.507 74.997 150.567 73.9322 Q152.628 72.8443 155.104 72.8443 Q160.313 72.8443 163.322 76.0155 Q166.354 79.1637 166.354 84.6034 Q166.354 89.9275 163.206 93.1451 Q160.058 96.3626 154.827 96.3626 Q148.831 96.3626 145.66 91.7793 Q142.489 87.1729 142.489 78.4461 Q142.489 70.2517 146.378 65.3906 Q150.266 60.5064 156.817 60.5064 Q158.577 60.5064 160.359 60.8536 Q162.165 61.2008 164.109 61.8952 Z" fill="#000000" fill-rule="nonzero" fill-opacity="1" /><path clip-path="url(#clip680)" d="M31.3933 652.746 L31.3933 645.839 L49.0581 634.03 L31.3933 622.158 L31.3933 615.252 L54.2143 630.529 L78.9133 614.233 L78.9133 621.14 L58.7021 634.508 L78.9133 647.971 L78.9133 654.91 L53.5459 637.945 L31.3933 652.746 Z" fill="#000000" fill-rule="nonzero" fill-opacity="1" /><polyline clip-path="url(#clip681)" style="stroke:#009af9; stroke-linecap:round; stroke-linejoin:round; stroke-width:16; stroke-opacity:1; fill:none" points="214.354,911.105 217.296,906.357 220.237,902.247 223.178,898.696 226.12,895.634 229.061,892.998 232.002,890.736 234.944,888.801 237.885,887.151 240.826,885.751 243.768,884.568 246.709,883.576 249.65,882.751 252.592,882.073 255.533,881.521 258.474,881.079 261.416,880.734 264.357,880.474 267.298,880.288 270.24,880.168 273.181,880.104 276.123,880.089 279.064,880.117 282.005,880.184 284.947,880.284 287.888,880.415 290.829,880.571 293.771,880.75 296.712,880.949 299.653,881.165 302.595,881.396 305.536,881.641 308.477,881.899 311.419,882.168 314.36,882.448 317.301,882.735 320.243,883.031 323.184,883.333 326.125,883.641 329.067,883.955 332.008,884.274 334.949,884.598 337.891,884.927 340.832,885.26 343.773,885.598 346.715,885.938 349.656,886.282 352.597,886.629 355.539,886.978 358.48,887.33 361.421,887.685 364.363,888.042 367.304,888.402 370.245,888.764 373.187,889.129 376.128,889.496 379.07,889.866 382.011,890.237 384.952,890.611 387.894,890.987 390.835,891.364 393.776,891.743 396.718,892.125 399.659,892.508 402.6,892.893 405.542,893.281 408.483,893.67 411.424,894.062 414.366,894.455 417.307,894.851 420.248,895.249 423.19,895.648 426.131,896.05 429.072,896.453 432.014,896.859 434.955,897.266 437.896,897.675 440.838,898.086 443.779,898.498 446.72,898.913 449.662,899.329 452.603,899.748 455.544,900.168 458.486,900.591 461.427,901.016 464.368,901.443 467.31,901.872 470.251,902.303 473.192,902.736 476.134,903.172 479.075,903.609 482.017,904.049 484.958,904.49 487.899,904.933 490.841,905.379 493.782,905.826 496.723,906.275 499.665,906.725 502.606,907.178 505.547,907.632 508.489,908.089 511.43,908.548 514.371,909.009 517.313,909.472 520.254,909.937 523.195,910.405 526.137,910.875 529.078,911.348 532.019,911.823 534.961,912.3 537.902,912.779 540.843,913.261 543.785,913.745 546.726,914.231 549.667,914.719 552.609,915.209 555.55,915.701 558.491,916.195 561.433,916.69 564.374,917.187 567.315,917.686 570.257,918.187 573.198,918.69 576.139,919.195 579.081,919.703 582.022,920.212 584.964,920.725 587.905,921.24 590.846,921.758 593.788,922.278 596.729,922.801 599.67,923.326 602.612,923.854 605.553,924.385 608.494,924.918 611.436,925.453 614.377,925.991 617.318,926.53 620.26,927.072 623.201,927.616 626.142,928.161 629.084,928.708 632.025,929.256 634.966,929.805 637.908,930.357 640.849,930.91 643.79,931.466 646.732,932.024 649.673,932.585 652.614,933.149 655.556,933.715 658.497,934.284 661.438,934.856 664.38,935.43 667.321,936.008 670.262,936.588 673.204,937.172 676.145,937.757 679.086,938.346 682.028,938.937 684.969,939.53 687.911,940.126 690.852,940.723 693.793,941.323 696.735,941.923 699.676,942.525 702.617,943.128 705.559,943.733 708.5,944.339 711.441,944.946 714.383,945.557 717.324,946.169 720.265,946.784 723.207,947.402 726.148,948.022 729.089,948.646 732.031,949.273 734.972,949.902 737.913,950.535 740.855,951.171 743.796,951.809 746.737,952.451 749.679,953.095 752.62,953.742 755.561,954.391 758.503,955.043 761.444,955.697 764.385,956.352 767.327,957.009 770.268,957.667 773.209,958.325 776.151,958.984 779.092,959.645 782.033,960.307 784.975,960.971 787.916,961.638 790.858,962.307 793.799,962.978 796.74,963.652 799.682,964.329 802.623,965.009 805.564,965.692 808.506,966.379 811.447,967.068 814.388,967.76 817.33,968.455 820.271,969.153 823.212,969.853 826.154,970.556 829.095,971.262 832.036,971.969 834.978,972.678 837.919,973.389 840.86,974.1 843.802,974.812 846.743,975.525 849.684,976.238 852.626,976.952 855.567,977.668 858.508,978.386 861.45,979.105 864.391,979.827 867.332,980.552 870.274,981.279 873.215,982.009 876.156,982.741 879.098,983.477 882.039,984.215 884.98,984.956 887.922,985.7 890.863,986.447 893.805,987.196 896.746,987.947 899.687,988.701 902.629,989.456 905.57,990.213 908.511,990.971 911.453,991.731 914.394,992.491 917.335,993.251 920.277,994.011 923.218,994.771 926.159,995.533 929.101,996.296 932.042,997.06 934.983,997.826 937.925,998.595 940.866,999.365 943.807,1000.14 946.749,1000.91 949.69,1001.69 952.631,1002.47 955.573,1003.25 958.514,1004.04 961.455,1004.82 964.397,1005.61 967.338,1006.4 970.279,1007.2 973.221,1007.99 976.162,1008.79 979.103,1009.58 982.045,1010.38 984.986,1011.18 987.927,1011.98 990.869,1012.77 993.81,1013.57 996.752,1014.37 999.693,1015.16 1002.63,1015.96 1005.58,1016.76 1008.52,1017.56 1011.46,1018.37 1014.4,1019.17 1017.34,1019.98 1020.28,1020.79 1023.22,1021.6 1026.16,1022.41 1029.11,1023.22 1032.05,1024.04 1034.99,1024.85 1037.93,1025.67 1040.87,1026.49 1043.81,1027.31 1046.75,1028.13 1049.7,1028.95 1052.64,1029.77 1055.58,1030.59 1058.52,1031.41 1061.46,1032.23 1064.4,1033.05 1067.34,1033.87 1070.29,1034.69 1073.23,1035.51 1076.17,1036.33 1079.11,1037.15 1082.05,1037.97 1084.99,1038.79 1087.93,1039.61 1090.87,1040.43 1093.82,1041.26 1096.76,1042.08 1099.7,1042.91 1102.64,1043.73 1105.58,1044.56 1108.52,1045.39 1111.46,1046.22 1114.41,1047.04 1117.35,1047.87 1120.29,1048.7 1123.23,1049.53 1126.17,1050.35 1129.11,1051.18 1132.05,1052 1134.99,1052.82 1137.94,1053.64 1140.88,1054.46 1143.82,1055.28 1146.76,1056.1 1149.7,1056.92 1152.64,1057.74 1155.58,1058.56 1158.53,1059.38 1161.47,1060.2 1164.41,1061.02 1167.35,1061.83 1170.29,1062.65 1173.23,1063.47 1176.17,1064.29 1179.11,1065.11 1182.06,1065.92 1185,1066.74 1187.94,1067.55 1190.88,1068.36 1193.82,1069.18 1196.76,1069.99 1199.7,1070.79 1202.65,1071.6 1205.59,1072.4 1208.53,1073.2 1211.47,1074.01 1214.41,1074.8 1217.35,1075.6 1220.29,1076.4 1223.23,1077.19 1226.18,1077.99 1229.12,1078.78 1232.06,1079.57 1235,1080.36 1237.94,1081.15 1240.88,1081.94 1243.82,1082.73 1246.77,1083.51 1249.71,1084.3 1252.65,1085.08 1255.59,1085.86 1258.53,1086.64 1261.47,1087.42 1264.41,1088.19 1267.36,1088.96 1270.3,1089.73 1273.24,1090.49 1276.18,1091.26 1279.12,1092.02 1282.06,1092.77 1285,1093.53 1287.94,1094.28 1290.89,1095.03 1293.83,1095.78 1296.77,1096.53 1299.71,1097.28 1302.65,1098.02 1305.59,1098.76 1308.53,1099.5 1311.48,1100.23 1314.42,1100.97 1317.36,1101.7 1320.3,1102.43 1323.24,1103.16 1326.18,1103.88 1329.12,1104.6 1332.06,1105.32 1335.01,1106.03 1337.95,1106.74 1340.89,1107.45 1343.83,1108.15 1346.77,1108.85 1349.71,1109.55 1352.65,1110.24 1355.6,1110.94 1358.54,1111.62 1361.48,1112.31 1364.42,1112.99 1367.36,1113.67 1370.3,1114.35 1373.24,1115.03 1376.18,1115.7 1379.13,1116.36 1382.07,1117.03 1385.01,1117.69 1387.95,1118.35 1390.89,1119.01 1393.83,1119.66 1396.77,1120.31 1399.72,1120.95 1402.66,1121.59 1405.6,1122.23 1408.54,1122.86 1411.48,1123.49 1414.42,1124.11 1417.36,1124.74 1420.3,1125.35 1423.25,1125.97 1426.19,1126.58 1429.13,1127.19 1432.07,1127.79 1435.01,1128.4 1437.95,1128.99 1440.89,1129.59 1443.84,1130.18 1446.78,1130.77 1449.72,1131.35 1452.66,1131.93 1455.6,1132.51 1458.54,1133.08 1461.48,1133.65 1464.43,1134.21 1467.37,1134.77 1470.31,1135.33 1473.25,1135.88 1476.19,1136.43 1479.13,1136.97 1482.07,1137.52 1485.01,1138.05 1487.96,1138.59 1490.9,1139.12 1493.84,1139.64 1496.78,1140.16 1499.72,1140.68 1502.66,1141.2 1505.6,1141.71 1508.55,1142.22 1511.49,1142.72 1514.43,1143.22 1517.37,1143.72 1520.31,1144.21 1523.25,1144.7 1526.19,1145.18 1529.13,1145.66 1532.08,1146.14 1535.02,1146.61 1537.96,1147.08 1540.9,1147.54 1543.84,1148 1546.78,1148.46 1549.72,1148.91 1552.67,1149.36 1555.61,1149.81 1558.55,1150.25 1561.49,1150.69 1564.43,1151.13 1567.37,1151.56 1570.31,1151.98 1573.25,1152.41 1576.2,1152.83 1579.14,1153.24 1582.08,1153.66 1585.02,1154.07 1587.96,1154.47 1590.9,1154.87 1593.84,1155.27 1596.79,1155.66 1599.73,1156.05 1602.67,1156.44 1605.61,1156.82 1608.55,1157.2 1611.49,1157.58 1614.43,1157.95 1617.37,1158.32 1620.32,1158.68 1623.26,1159.04 1626.2,1159.4 1629.14,1159.76 1632.08,1160.11 1635.02,1160.46 1637.96,1160.8 1640.91,1161.14 1643.85,1161.48 1646.79,1161.81 1649.73,1162.15 1652.67,1162.47 1655.61,1162.8 1658.55,1163.12 1661.5,1163.43 1664.44,1163.75 1667.38,1164.06 1670.32,1164.37 1673.26,1164.67 1676.2,1164.97 1679.14,1165.27 1682.08,1165.57 1685.03,1165.86 1687.97,1166.15 1690.91,1166.43 1693.85,1166.71 1696.79,1166.99 1699.73,1167.27 1702.67,1167.54 1705.62,1167.82 1708.56,1168.08 1711.5,1168.35 1714.44,1168.61 1717.38,1168.87 1720.32,1169.12 1723.26,1169.38 1726.2,1169.63 1729.15,1169.87 1732.09,1170.12 1735.03,1170.36 1737.97,1170.6 1740.91,1170.83 1743.85,1171.07 1746.79,1171.3 1749.74,1171.53 1752.68,1171.75 1755.62,1171.98 1758.56,1172.2 1761.5,1172.41 1764.44,1172.63 1767.38,1172.84 1770.32,1173.05 1773.27,1173.26 1776.21,1173.46 1779.15,1173.67 1782.09,1173.87 1785.03,1174.07 1787.97,1174.26 1790.91,1174.45 1793.86,1174.64 1796.8,1174.83 1799.74,1175.02 1802.68,1175.2 1805.62,1175.39 1808.56,1175.56 1811.5,1175.74 1814.44,1175.92 1817.39,1176.09 1820.33,1176.26 1823.27,1176.43 1826.21,1176.6 1829.15,1176.76 1832.09,1176.92 1835.03,1177.08 1837.98,1177.24 1840.92,1177.4 1843.86,1177.55 1846.8,1177.71 1849.74,1177.86 1852.68,1178.01 1855.62,1178.15 1858.57,1178.3 1861.51,1178.44 1864.45,1178.58 1867.39,1178.72 1870.33,1178.86 1873.27,1178.99 1876.21,1179.13 1879.15,1179.26 1882.1,1179.39 1885.04,1179.52 1887.98,1179.65 1890.92,1179.77 1893.86,1179.9 1896.8,1180.02 1899.74,1180.14 1902.69,1180.26 1905.63,1180.38 1908.57,1180.49 1911.51,1180.61 1914.45,1180.72 1917.39,1180.83 1920.33,1180.94 1923.27,1181.05 1926.22,1181.16 1929.16,1181.26 1932.1,1181.37 1935.04,1181.47 1937.98,1181.57 1940.92,1181.67 1943.86,1181.77 1946.81,1181.87 1949.75,1181.97 1952.69,1182.06 1955.63,1182.16 1958.57,1182.25 1961.51,1182.34 1964.45,1182.43 1967.39,1182.52 1970.34,1182.61 1973.28,1182.69 1976.22,1182.78 1979.16,1182.86 1982.1,1182.94 1985.04,1183.03 1987.98,1183.11 1990.93,1183.19 1993.87,1183.26 1996.81,1183.34 1999.75,1183.42 2002.69,1183.49 2005.63,1183.57 2008.57,1183.64 2011.51,1183.71 2014.46,1183.78 2017.4,1183.85 2020.34,1183.92 2023.28,1183.99 2026.22,1184.06 2029.16,1184.12 2032.1,1184.19 2035.05,1184.25 2037.99,1184.32 2040.93,1184.38 2043.87,1184.44 2046.81,1184.5 2049.75,1184.56 2052.69,1184.62 2055.63,1184.68 2058.58,1184.74 2061.52,1184.8 2064.46,1184.85 2067.4,1184.91 2070.34,1184.96 2073.28,1185.02 2076.22,1185.07 2079.17,1185.12 2082.11,1185.17 2085.05,1185.22 2087.99,1185.27 2090.93,1185.32 2093.87,1185.37 2096.81,1185.42 2099.76,1185.47 2102.7,1185.51 2105.64,1185.56 2108.58,1185.6 2111.52,1185.65 2114.46,1185.69 2117.4,1185.74 2120.34,1185.78 2123.29,1185.82 2126.23,1185.86 2129.17,1185.9 2132.11,1185.94 2135.05,1185.98 2137.99,1186.02 2140.93,1186.06 2143.88,1186.1 2146.82,1186.14 2149.76,1186.17 2152.7,1186.21 2155.64,1186.25 2158.58,1186.28 2161.52,1186.32 2164.46,1186.35 2167.41,1186.38 2170.35,1186.42 2173.29,1186.45 2176.23,1186.48 2179.17,1186.52 2182.11,1186.55 2185.05,1186.58 2188,1186.61 2190.94,1186.64 2193.88,1186.67 2196.82,1186.7 2199.76,1186.73 2202.7,1186.76 2205.64,1186.78 2208.58,1186.81 2211.53,1186.84 2214.47,1186.87 2217.41,1186.89 2220.35,1186.92 2223.29,1186.94 2226.23,1186.97 2229.17,1186.99 2232.12,1187.02 2235.06,1187.04 2238,1187.07 2240.94,1187.09 2243.88,1187.11 2246.82,1187.14 2249.76,1187.16 2252.7,1187.18 2255.65,1187.2 2258.59,1187.23 2261.53,1187.25 2264.47,1187.27 2267.41,1187.29 2270.35,1187.31 2273.29,1187.33 2276.24,1187.35 2279.18,1187.37 2282.12,1187.39 2285.06,1187.41 2288,1187.42 2290.94,1187.44 2293.88,1187.46 2296.83,1187.48 2299.77,1187.5 2302.71,1187.51 2305.65,1187.53 2308.59,1187.55 2311.53,1187.56 2314.47,1187.58 2317.41,1187.6 2320.36,1187.61 2323.3,1187.63 2326.24,1187.64 2329.18,1187.66 2332.12,1187.67 2335.06,1187.69 2338,1187.7 2340.95,1187.72 2343.89,1187.73 2346.83,1187.75 2349.77,1187.76 2352.71,1187.77 2355.65,1187.79 2358.59,1187.8 2361.53,1187.81 2364.48,1187.82 2367.42,1187.84 2370.36,1187.85 2373.3,1187.86 2376.24,1187.87 2379.18,1187.88 2382.12,1187.9 2385.07,1187.91 2388.01,1187.92 2390.95,1187.93 2393.89,1187.94 2396.83,1187.95 2399.77,1187.96 2402.71,1187.97 2405.65,1187.98 2408.6,1187.99 2411.54,1188 2414.48,1188.01 2417.42,1188.02 2420.36,1188.03 2423.3,1188.04 2426.24,1188.05 2429.19,1188.06 2432.13,1188.07 2435.07,1188.08 2438.01,1188.09 2440.95,1188.1 2443.89,1188.1 2446.83,1188.11 2449.77,1188.12 2452.72,1188.13 2455.66,1188.14 2458.6,1188.15 2461.54,1188.15 2464.48,1188.16 2467.42,1188.17 2470.36,1188.18 2473.31,1188.18 2476.25,1188.19 2479.19,1188.2 2482.13,1188.2 2485.07,1188.21 2488.01,1188.22 2490.95,1188.22 2493.9,1188.23 2496.84,1188.24 2499.78,1188.24 2502.72,1188.25 2505.66,1188.26 2508.6,1188.26 2511.54,1188.27 2514.48,1188.27 2517.43,1188.28 2520.37,1188.29 2523.31,1188.29 2526.25,1188.3 2529.19,1188.3 2532.13,1188.31 2535.07,1188.31 2538.02,1188.32 2540.96,1188.32 2543.9,1188.33 2546.84,1188.33 2549.78,1188.34 2552.72,1188.34 2555.66,1188.35 2558.6,1188.35 2561.55,1188.36 2564.49,1188.36 2567.43,1188.37 2570.37,1188.37 2573.31,1188.38 2576.25,1188.38 2579.19,1188.39 2582.14,1188.39 2585.08,1188.39 2588.02,1188.4 2590.96,1188.4 2593.9,1188.41 2596.84,1188.41 2599.78,1188.41 2602.72,1188.42 2605.67,1188.42 2608.61,1188.42 2611.55,1188.43 2614.49,1188.43 2617.43,1188.44 2620.37,1188.44 2623.31,1188.44 2626.26,1188.45 2629.2,1188.45 2632.14,1188.45 2635.08,1188.46 2638.02,1188.46 2640.96,1188.46 2643.9,1188.47 2646.84,1188.47 2649.79,1188.47 2652.73,1188.47 2655.67,1188.48 2658.61,1188.48 2661.55,1188.48 2664.49,1188.49 2667.43,1188.49 2670.38,1188.49 2673.32,1188.49 2676.26,1188.5 2679.2,1188.5 2682.14,1188.5 2685.08,1188.5 2688.02,1188.51 2690.97,1188.51 2693.91,1188.51 2696.85,1188.51 2699.79,1188.52 2702.73,1188.52 2705.67,1188.52 2708.61,1188.52 2711.55,1188.52 2714.5,1188.53 2717.44,1188.53 2720.38,1188.53 2723.32,1188.53 2726.26,1188.54 2729.2,1188.54 2732.14,1188.54 2735.09,1188.54 2738.03,1188.54 2740.97,1188.54 2743.91,1188.55 2746.85,1188.55 2749.79,1188.55 2752.73,1188.55 2755.67,1188.55 2758.62,1188.56 2761.56,1188.56 2764.5,1188.56 2767.44,1188.56 2770.38,1188.56 2773.32,1188.56 2776.26,1188.57 2779.21,1188.57 2782.15,1188.57 2785.09,1188.57 2788.03,1188.57 2790.97,1188.57 2793.91,1188.57 2796.85,1188.58 2799.79,1188.58 2802.74,1188.58 2805.68,1188.58 2808.62,1188.58 2811.56,1188.58 2814.5,1188.58 2817.44,1188.58 2820.38,1188.59 2823.33,1188.59 2826.27,1188.59 2829.21,1188.59 2832.15,1188.59 2835.09,1188.59 2838.03,1188.59 2840.97,1188.59 2843.91,1188.6 2846.86,1188.6 2849.8,1188.6 2852.74,1188.6 2855.68,1188.6 2858.62,1188.6 2861.56,1188.6 2864.5,1188.6 2867.45,1188.6 2870.39,1188.6 2873.33,1188.61 2876.27,1188.61 2879.21,1188.61 2882.15,1188.61 2885.09,1188.61 2888.04,1188.61 2890.98,1188.61 2893.92,1188.61 2896.86,1188.61 2899.8,1188.61 2902.74,1188.61 2905.68,1188.62 2908.62,1188.62 2911.57,1188.62 2914.51,1188.62 2917.45,1188.62 2920.39,1188.62 2923.33,1188.62 2926.27,1188.62 2929.21,1188.62 2932.16,1188.62 2935.1,1188.62 2938.04,1188.62 2940.98,1188.62 2943.92,1188.62 2946.86,1188.63 2949.8,1188.63 2952.74,1188.63 2955.69,1188.63 2958.63,1188.63 2961.57,1188.63 2964.51,1188.63 2967.45,1188.63 2970.39,1188.63 2973.33,1188.63 2976.28,1188.63 2979.22,1188.63 2982.16,1188.63 2985.1,1188.63 2988.04,1188.63 2990.98,1188.63 2993.92,1188.63 2996.86,1188.64 2999.81,1188.64 3002.75,1188.64 3005.69,1188.64 3008.63,1188.64 3011.57,1188.64 3014.51,1188.64 3017.45,1188.64 3020.4,1188.64 3023.34,1188.64 3026.28,1188.64 3029.22,1188.64 3032.16,1188.64 3035.1,1188.64 3038.04,1188.64 3040.98,1188.64 3043.93,1188.64 3046.87,1188.64 3049.81,1188.64 3052.75,1188.64 3055.69,1188.64 3058.63,1188.64 3061.57,1188.64 3064.52,1188.65 3067.46,1188.65 3070.4,1188.65 3073.34,1188.65 3076.28,1188.65 3079.22,1188.65 3082.16,1188.65 3085.11,1188.65 3088.05,1188.65 3090.99,1188.65 3093.93,1188.65 3096.87,1188.65 3099.81,1188.65 3102.75,1188.65 3105.69,1188.65 3108.64,1188.65 3111.58,1188.65 3114.52,1188.65 3117.46,1188.65 3120.4,1188.65 3123.34,1188.65 3126.28,1188.65 3129.23,1188.65 3132.17,1188.65 3135.11,1188.65 3138.05,1188.65 3140.99,1188.65 3143.93,1188.65 3146.87,1188.65 3149.81,1188.65 3152.76,1188.65 "/>
<polyline clip-path="url(#clip681)" style="stroke:#e26f46; stroke-linecap:round; stroke-linejoin:round; stroke-width:16; stroke-opacity:1; fill:none" points="214.354,726.062 217.296,731.616 220.237,736.326 223.178,740.314 226.12,743.686 229.061,746.532 232.002,748.927 234.944,750.935 237.885,752.613 240.826,754.007 243.768,755.158 246.709,756.098 249.65,756.859 252.592,757.465 255.533,757.94 258.474,758.302 261.416,758.567 264.357,758.746 267.298,758.853 270.24,758.897 273.181,758.89 276.123,758.836 279.064,758.742 282.005,758.612 284.947,758.452 287.888,758.265 290.829,758.057 293.771,757.83 296.712,757.587 299.653,757.328 302.595,757.056 305.536,756.772 308.477,756.478 311.419,756.174 314.36,755.863 317.301,755.545 320.243,755.222 323.184,754.893 326.125,754.558 329.067,754.219 332.008,753.874 334.949,753.525 337.891,753.173 340.832,752.816 343.773,752.457 346.715,752.095 349.656,751.73 352.597,751.363 355.539,750.992 358.48,750.619 361.421,750.244 364.363,749.865 367.304,749.484 370.245,749.1 373.187,748.714 376.128,748.325 379.07,747.935 382.011,747.541 384.952,747.146 387.894,746.749 390.835,746.349 393.776,745.947 396.718,745.543 399.659,745.136 402.6,744.727 405.542,744.315 408.483,743.902 411.424,743.486 414.366,743.067 417.307,742.646 420.248,742.223 423.19,741.797 426.131,741.37 429.072,740.939 432.014,740.507 434.955,740.071 437.896,739.633 440.838,739.191 443.779,738.746 446.72,738.299 449.662,737.849 452.603,737.397 455.544,736.943 458.486,736.487 461.427,736.029 464.368,735.569 467.31,735.107 470.251,734.643 473.192,734.178 476.134,733.71 479.075,733.241 482.017,732.77 484.958,732.296 487.899,731.82 490.841,731.341 493.782,730.86 496.723,730.375 499.665,729.887 502.606,729.396 505.547,728.901 508.489,728.401 511.43,727.897 514.371,727.389 517.313,726.877 520.254,726.362 523.195,725.844 526.137,725.324 529.078,724.802 532.019,724.278 534.961,723.752 537.902,723.225 540.843,722.697 543.785,722.167 546.726,721.635 549.667,721.101 552.609,720.565 555.55,720.026 558.491,719.485 561.433,718.94 564.374,718.391 567.315,717.838 570.257,717.28 573.198,716.715 576.139,716.145 579.081,715.57 582.022,714.991 584.964,714.408 587.905,713.823 590.846,713.236 593.788,712.647 596.729,712.056 599.67,711.465 602.612,710.873 605.553,710.279 608.494,709.685 611.436,709.089 614.377,708.492 617.318,707.892 620.26,707.29 623.201,706.685 626.142,706.077 629.084,705.463 632.025,704.844 634.966,704.219 637.908,703.585 640.849,702.943 643.79,702.293 646.732,701.636 649.673,700.976 652.614,700.311 655.556,699.645 658.497,698.977 661.438,698.309 664.38,697.641 667.321,696.973 670.262,696.306 673.204,695.64 676.145,694.973 679.086,694.307 682.028,693.639 684.969,692.971 687.911,692.299 690.852,691.624 693.793,690.943 696.735,690.256 699.676,689.56 702.617,688.854 705.559,688.135 708.5,687.403 711.441,686.661 714.383,685.913 717.324,685.16 720.265,684.404 723.207,683.648 726.148,682.892 729.089,682.138 732.031,681.387 734.972,680.638 737.913,679.892 740.855,679.148 743.796,678.406 746.737,677.665 749.679,676.924 752.62,676.18 755.561,675.433 758.503,674.68 761.444,673.918 764.385,673.144 767.327,672.355 770.268,671.547 773.209,670.723 776.151,669.887 779.092,669.044 782.033,668.197 784.975,667.347 787.916,666.499 790.858,665.653 793.799,664.81 796.74,663.972 799.682,663.14 802.623,662.311 805.564,661.487 808.506,660.666 811.447,659.847 814.388,659.027 817.33,658.204 820.271,657.374 823.212,656.535 826.154,655.682 829.095,654.811 832.036,653.917 834.978,653.002 837.919,652.074 840.86,651.138 843.802,650.197 846.743,649.254 849.684,648.314 852.626,647.377 855.567,646.445 858.508,645.519 861.45,644.6 864.391,643.686 867.332,642.778 870.274,641.873 873.215,640.97 876.156,640.065 879.098,639.157 882.039,638.239 884.98,637.309 887.922,636.361 890.863,635.389 893.805,634.39 896.746,633.374 899.687,632.348 902.629,631.316 905.57,630.282 908.511,629.25 911.453,628.221 914.394,627.197 917.335,626.181 920.277,625.171 923.218,624.168 926.159,623.172 929.101,622.179 932.042,621.189 934.983,620.198 937.925,619.203 940.866,618.198 943.807,617.18 946.749,616.141 949.69,615.077 952.631,613.985 955.573,612.876 958.514,611.757 961.455,610.633 964.397,609.508 967.338,608.385 970.279,607.267 973.221,606.156 976.162,605.052 979.103,603.956 982.045,602.867 984.986,601.785 987.927,600.707 990.869,599.63 993.81,598.551 996.752,597.465 999.693,596.368 1002.63,595.253 1005.58,594.114 1008.52,592.945 1011.46,591.752 1014.4,590.547 1017.34,589.334 1020.28,588.119 1023.22,586.904 1026.16,585.695 1029.11,584.492 1032.05,583.298 1034.99,582.113 1037.93,580.936 1040.87,579.767 1043.81,578.603 1046.75,577.442 1049.7,576.281 1052.64,575.113 1055.58,573.935 1058.52,572.74 1061.46,571.52 1064.4,570.267 1067.34,568.993 1070.29,567.716 1073.23,566.437 1076.17,565.154 1079.11,563.869 1082.05,562.581 1084.99,561.29 1087.93,559.997 1090.87,558.701 1093.82,557.401 1096.76,556.099 1099.7,554.795 1102.64,553.487 1105.58,552.177 1108.52,550.863 1111.46,549.547 1114.41,548.229 1117.35,546.907 1120.29,545.583 1123.23,544.255 1126.17,542.925 1129.11,541.592 1132.05,540.257 1134.99,538.918 1137.94,537.577 1140.88,536.233 1143.82,534.886 1146.76,533.536 1149.7,532.184 1152.64,530.828 1155.58,529.47 1158.53,528.109 1161.47,526.75 1164.41,525.387 1167.35,524.02 1170.29,522.649 1173.23,521.274 1176.17,519.895 1179.11,518.511 1182.06,517.123 1185,515.732 1187.94,514.336 1190.88,512.935 1193.82,511.531 1196.76,510.123 1199.7,508.71 1202.65,507.294 1205.59,505.873 1208.53,504.448 1211.47,503.019 1214.41,501.585 1217.35,500.148 1220.29,498.706 1223.23,497.261 1226.18,495.811 1229.12,494.348 1232.06,492.873 1235,491.398 1237.94,489.921 1240.88,488.442 1243.82,486.962 1246.77,485.481 1249.71,483.997 1252.65,482.513 1255.59,481.027 1258.53,479.539 1261.47,478.05 1264.41,476.559 1267.36,475.067 1270.3,473.573 1273.24,472.078 1276.18,470.581 1279.12,469.083 1282.06,467.583 1285,466.082 1287.94,464.579 1290.89,463.075 1293.83,461.569 1296.77,460.062 1299.71,458.553 1302.65,457.043 1305.59,455.531 1308.53,454.018 1311.48,452.503 1314.42,450.986 1317.36,449.469 1320.3,447.949 1323.24,446.428 1326.18,444.906 1329.12,443.387 1332.06,441.871 1335.01,440.353 1337.95,438.834 1340.89,437.313 1343.83,435.791 1346.77,434.269 1349.71,432.744 1352.65,431.219 1355.6,429.692 1358.54,428.164 1361.48,426.635 1364.42,425.105 1367.36,423.573 1370.3,422.04 1373.24,420.506 1376.18,418.97 1379.13,417.433 1382.07,415.895 1385.01,414.356 1387.95,412.816 1390.89,411.274 1393.83,409.731 1396.77,408.187 1399.72,406.637 1402.66,405.07 1405.6,403.506 1408.54,401.943 1411.48,400.383 1414.42,398.824 1417.36,397.267 1420.3,395.713 1423.25,394.16 1426.19,392.61 1429.13,391.061 1432.07,389.515 1435.01,387.97 1437.95,386.428 1440.89,384.887 1443.84,383.349 1446.78,381.812 1449.72,380.278 1452.66,378.745 1455.6,377.215 1458.54,375.686 1461.48,374.16 1464.43,372.635 1467.37,371.113 1470.31,369.593 1473.25,368.074 1476.19,366.558 1479.13,365.043 1482.07,363.531 1485.01,362.02 1487.96,360.512 1490.9,359.006 1493.84,357.501 1496.78,355.999 1499.72,354.499 1502.66,353.001 1505.6,351.506 1508.55,350.014 1511.49,348.524 1514.43,347.037 1517.37,345.552 1520.31,344.07 1523.25,342.59 1526.19,341.113 1529.13,339.638 1532.08,338.166 1535.02,336.697 1537.96,335.23 1540.9,333.766 1543.84,332.304 1546.78,330.845 1549.72,329.388 1552.67,327.934 1555.61,326.482 1558.55,325.033 1561.49,323.587 1564.43,322.143 1567.37,320.701 1570.31,319.263 1573.25,317.826 1576.2,316.381 1579.14,314.93 1582.08,313.485 1585.02,312.045 1587.96,310.61 1590.9,309.18 1593.84,307.756 1596.79,306.337 1599.73,304.923 1602.67,303.514 1605.61,302.111 1608.55,300.713 1611.49,299.32 1614.43,297.932 1617.37,296.549 1620.32,295.172 1623.26,293.8 1626.2,292.433 1629.14,291.071 1632.08,289.714 1635.02,288.363 1637.96,287.017 1640.91,285.676 1643.85,284.341 1646.79,283.01 1649.73,281.685 1652.67,280.365 1655.61,279.05 1658.55,277.741 1661.5,276.436 1664.44,275.137 1667.38,273.843 1670.32,272.555 1673.26,271.271 1676.2,269.993 1679.14,268.714 1682.08,267.43 1685.03,266.152 1687.97,264.88 1690.91,263.614 1693.85,262.353 1696.79,261.098 1699.73,259.849 1702.67,258.605 1705.62,257.366 1708.56,256.134 1711.5,254.907 1714.44,253.686 1717.38,252.47 1720.32,251.26 1723.26,250.055 1726.2,248.857 1729.15,247.664 1732.09,246.476 1735.03,245.294 1737.97,244.118 1740.91,242.947 1743.85,241.782 1746.79,240.623 1749.74,239.47 1752.68,238.321 1755.62,237.179 1758.56,236.042 1761.5,234.911 1764.44,233.786 1767.38,232.666 1770.32,231.552 1773.27,230.443 1776.21,229.34 1779.15,228.243 1782.09,227.148 1785.03,226.046 1787.97,224.95 1790.91,223.861 1793.86,222.777 1796.8,221.7 1799.74,220.629 1802.68,219.563 1805.62,218.504 1808.56,217.451 1811.5,216.404 1814.44,215.363 1817.39,214.329 1820.33,213.3 1823.27,212.277 1826.21,211.261 1829.15,210.25 1832.09,209.246 1835.03,208.248 1837.98,207.256 1840.92,206.27 1843.86,205.29 1846.8,204.316 1849.74,203.348 1852.68,202.386 1855.62,201.43 1858.57,200.481 1861.51,199.537 1864.45,198.6 1867.39,197.669 1870.33,196.744 1873.27,195.825 1876.21,194.912 1879.15,194.005 1882.1,193.104 1885.04,192.209 1887.98,191.32 1890.92,190.438 1893.86,189.561 1896.8,188.691 1899.74,187.827 1902.69,186.963 1905.63,186.098 1908.57,185.238 1911.51,184.383 1914.45,183.535 1917.39,182.691 1920.33,181.853 1923.27,181.02 1926.22,180.192 1929.16,179.37 1932.1,178.553 1935.04,177.742 1937.98,176.936 1940.92,176.135 1943.86,175.339 1946.81,174.549 1949.75,173.765 1952.69,172.985 1955.63,172.211 1958.57,171.443 1961.51,170.68 1964.45,169.922 1967.39,169.169 1970.34,168.422 1973.28,167.68 1976.22,166.944 1979.16,166.213 1982.1,165.487 1985.04,164.766 1987.98,164.051 1990.93,163.342 1993.87,162.638 1996.81,161.939 1999.75,161.245 2002.69,160.557 2005.63,159.874 2008.57,159.196 2011.51,158.524 2014.46,157.858 2017.4,157.196 2020.34,156.54 2023.28,155.889 2026.22,155.244 2029.16,154.595 2032.1,153.951 2035.05,153.311 2037.99,152.676 2040.93,152.044 2043.87,151.417 2046.81,150.795 2049.75,150.176 2052.69,149.562 2055.63,148.953 2058.58,148.348 2061.52,147.747 2064.46,147.15 2067.4,146.558 2070.34,145.97 2073.28,145.386 2076.22,144.807 2079.17,144.232 2082.11,143.661 2085.05,143.095 2087.99,142.533 2090.93,141.975 2093.87,141.421 2096.81,140.872 2099.76,140.328 2102.7,139.787 2105.64,139.251 2108.58,138.72 2111.52,138.192 2114.46,137.669 2117.4,137.15 2120.34,136.636 2123.29,136.126 2126.23,135.62 2129.17,135.119 2132.11,134.622 2135.05,134.129 2137.99,133.641 2140.93,133.156 2143.88,132.677 2146.82,132.201 2149.76,131.73 2152.7,131.263 2155.64,130.801 2158.58,130.343 2161.52,129.889 2164.46,129.439 2167.41,128.994 2170.35,128.554 2173.29,128.117 2176.23,127.685 2179.17,127.251 2182.11,126.821 2185.05,126.394 2188,125.97 2190.94,125.548 2193.88,125.13 2196.82,124.715 2199.76,124.303 2202.7,123.893 2205.64,123.487 2208.58,123.084 2211.53,122.684 2214.47,122.286 2217.41,121.892 2220.35,121.501 2223.29,121.113 2226.23,120.727 2229.17,120.345 2232.12,119.966 2235.06,119.589 2238,119.216 2240.94,118.846 2243.88,118.479 2246.82,118.114 2249.76,117.753 2252.7,117.395 2255.65,117.04 2258.59,116.687 2261.53,116.338 2264.47,115.992 2267.41,115.648 2270.35,115.308 2273.29,114.971 2276.24,114.637 2279.18,114.305 2282.12,113.977 2285.06,113.652 2288,113.329 2290.94,113.01 2293.88,112.694 2296.83,112.381 2299.77,112.07 2302.71,111.763 2305.65,111.459 2308.59,111.157 2311.53,110.859 2314.47,110.564 2317.41,110.272 2320.36,109.982 2323.3,109.696 2326.24,109.413 2329.18,109.132 2332.12,108.855 2335.06,108.581 2338,108.309 2340.95,108.039 2343.89,107.771 2346.83,107.505 2349.77,107.241 2352.71,106.979 2355.65,106.718 2358.59,106.46 2361.53,106.203 2364.48,105.948 2367.42,105.695 2370.36,105.444 2373.3,105.195 2376.24,104.948 2379.18,104.702 2382.12,104.459 2385.07,104.217 2388.01,103.977 2390.95,103.739 2393.89,103.503 2396.83,103.269 2399.77,103.036 2402.71,102.806 2405.65,102.577 2408.6,102.35 2411.54,102.126 2414.48,101.903 2417.42,101.681 2420.36,101.462 2423.3,101.245 2426.24,101.029 2429.19,100.815 2432.13,100.604 2435.07,100.394 2438.01,100.186 2440.95,99.9794 2443.89,99.7751 2446.83,99.5726 2449.77,99.3721 2452.72,99.1733 2455.66,98.9765 2458.6,98.7815 2461.54,98.5884 2464.48,98.3972 2467.42,98.2078 2470.36,98.0203 2473.31,97.8347 2476.25,97.6509 2479.19,97.4691 2482.13,97.289 2485.07,97.1109 2488.01,96.9346 2490.95,96.7602 2493.9,96.5877 2496.84,96.417 2499.78,96.2482 2502.72,96.0813 2505.66,95.9162 2508.6,95.7531 2511.54,95.5917 2514.48,95.4323 2517.43,95.2747 2520.37,95.119 2523.31,94.9652 2526.25,94.8135 2529.19,94.6635 2532.13,94.5146 2535.07,94.3666 2538.02,94.2197 2540.96,94.0738 2543.9,93.9289 2546.84,93.7851 2549.78,93.6422 2552.72,93.5004 2555.66,93.3596 2558.6,93.2199 2561.55,93.0812 2564.49,92.9435 2567.43,92.8068 2570.37,92.6711 2573.31,92.5365 2576.25,92.4029 2579.19,92.2703 2582.14,92.1387 2585.08,92.0082 2588.02,91.8786 2590.96,91.7501 2593.9,91.6227 2596.84,91.4962 2599.78,91.3708 2602.72,91.2464 2605.67,91.123 2608.61,91.0007 2611.55,90.8794 2614.49,90.7591 2617.43,90.6398 2620.37,90.5215 2623.31,90.4043 2626.26,90.2881 2629.2,90.1729 2632.14,90.0587 2635.08,89.9456 2638.02,89.8335 2640.96,89.7224 2643.9,89.6123 2646.84,89.5033 2649.79,89.3953 2652.73,89.2883 2655.67,89.1823 2658.61,89.0773 2661.55,88.9734 2664.49,88.8705 2667.43,88.7687 2670.38,88.6678 2673.32,88.568 2676.26,88.4692 2679.2,88.3714 2682.14,88.2746 2685.08,88.1789 2688.02,88.0842 2690.97,87.9905 2693.91,87.8978 2696.85,87.8062 2699.79,87.7156 2702.73,87.626 2705.67,87.5374 2708.61,87.4499 2711.55,87.3634 2714.5,87.2779 2717.44,87.1934 2720.38,87.11 2723.32,87.0275 2726.26,86.9461 2729.2,86.8658 2732.14,86.7864 2735.09,86.7081 2738.03,86.6315 2740.97,86.5564 2743.91,86.4817 2746.85,86.4075 2749.79,86.3338 2752.73,86.2605 2755.67,86.1878 2758.62,86.1156 2761.56,86.0438 2764.5,85.9725 2767.44,85.9017 2770.38,85.8314 2773.32,85.7616 2776.26,85.6923 2779.21,85.6235 2782.15,85.5551 2785.09,85.4872 2788.03,85.4198 2790.97,85.353 2793.91,85.2865 2796.85,85.2206 2799.79,85.1552 2802.74,85.0902 2805.68,85.0258 2808.62,84.9618 2811.56,84.8983 2814.5,84.8353 2817.44,84.7728 2820.38,84.7108 2823.33,84.6492 2826.27,84.5882 2829.21,84.5276 2832.15,84.4675 2835.09,84.408 2838.03,84.3489 2840.97,84.2902 2843.91,84.2321 2846.86,84.1745 2849.8,84.1173 2852.74,84.0606 2855.68,84.0044 2858.62,83.9487 2861.56,83.8935 2864.5,83.8388 2867.45,83.7846 2870.39,83.7308 2873.33,83.6775 2876.27,83.6248 2879.21,83.5725 2882.15,83.5207 2885.09,83.4694 2888.04,83.4185 2890.98,83.3682 2893.92,83.3183 2896.86,83.269 2899.8,83.2201 2902.74,83.1717 2905.68,83.1238 2908.62,83.0763 2911.57,83.0294 2914.51,82.983 2917.45,82.937 2920.39,82.8915 2923.33,82.8465 2926.27,82.802 2929.21,82.758 2932.16,82.7145 2935.1,82.6714 2938.04,82.6289 2940.98,82.5868 2943.92,82.5452 2946.86,82.5041 2949.8,82.4635 2952.74,82.4234 2955.69,82.3838 2958.63,82.3446 2961.57,82.306 2964.51,82.2678 2967.45,82.2301 2970.39,82.1929 2973.33,82.1562 2976.28,82.12 2979.22,82.0842 2982.16,82.049 2985.1,82.0142 2988.04,81.9799 2990.98,81.9461 2993.92,81.9128 2996.86,81.88 2999.81,81.8475 3002.75,81.8151 3005.69,81.7831 3008.63,81.7512 3011.57,81.7197 3014.51,81.6883 3017.45,81.6572 3020.4,81.6264 3023.34,81.5958 3026.28,81.5654 3029.22,81.5353 3032.16,81.5054 3035.1,81.4757 3038.04,81.4463 3040.98,81.4172 3043.93,81.3883 3046.87,81.3596 3049.81,81.3312 3052.75,81.303 3055.69,81.275 3058.63,81.2473 3061.57,81.2199 3064.52,81.1927 3067.46,81.1657 3070.4,81.139 3073.34,81.1125 3076.28,81.0862 3079.22,81.0602 3082.16,81.0345 3085.11,81.009 3088.05,80.9837 3090.99,80.9586 3093.93,80.9339 3096.87,80.9093 3099.81,80.885 3102.75,80.8609 3105.69,80.8371 3108.64,80.8136 3111.58,80.7902 3114.52,80.7671 3117.46,80.7443 3120.4,80.7217 3123.34,80.6993 3126.28,80.6772 3129.23,80.6553 3132.17,80.6337 3135.11,80.6123 3138.05,80.5911 3140.99,80.5702 3143.93,80.5496 3146.87,80.5292 3149.81,80.509 3152.76,80.489 "/>
<path clip-path="url(#clip680)" d="M312.301 241.919 L845.469 241.919 L845.469 86.3993 L312.301 86.3993  Z" fill="#ffffff" fill-rule="evenodd" fill-opacity="1"/>
<polyline clip-path="url(#clip680)" style="stroke:#000000; stroke-linecap:round; stroke-linejoin:round; stroke-width:4; stroke-opacity:1; fill:none" points="312.301,241.919 845.469,241.919 845.469,86.3993 312.301,86.3993 312.301,241.919 "/>
<polyline clip-path="url(#clip680)" style="stroke:#009af9; stroke-linecap:round; stroke-linejoin:round; stroke-width:16; stroke-opacity:1; fill:none" points="344.95,138.239 540.843,138.239 "/>
<path clip-path="url(#clip680)" d="M575.066 120.959 L580.089 120.959 L588.677 133.806 L597.312 120.959 L602.335 120.959 L591.224 137.556 L603.075 155.519 L598.052 155.519 L588.33 140.82 L578.539 155.519 L573.492 155.519 L585.83 137.07 L575.066 120.959 Z" fill="#000000" fill-rule="nonzero" fill-opacity="1" /><path clip-path="url(#clip680)" d="M619.256 119.547 Q616.154 124.871 614.649 130.08 Q613.145 135.288 613.145 140.635 Q613.145 145.982 614.649 151.237 Q616.177 156.468 619.256 161.769 L615.552 161.769 Q612.08 156.329 610.344 151.075 Q608.631 145.82 608.631 140.635 Q608.631 135.473 610.344 130.242 Q612.057 125.01 615.552 119.547 L619.256 119.547 Z" fill="#000000" fill-rule="nonzero" fill-opacity="1" /><path clip-path="url(#clip680)" d="M638.122 124.038 Q634.51 124.038 632.682 127.603 Q630.876 131.144 630.876 138.274 Q630.876 145.38 632.682 148.945 Q634.51 152.487 638.122 152.487 Q641.756 152.487 643.561 148.945 Q645.39 145.38 645.39 138.274 Q645.39 131.144 643.561 127.603 Q641.756 124.038 638.122 124.038 M638.122 120.334 Q643.932 120.334 646.987 124.941 Q650.066 129.524 650.066 138.274 Q650.066 147.001 646.987 151.607 Q643.932 156.191 638.122 156.191 Q632.311 156.191 629.233 151.607 Q626.177 147.001 626.177 138.274 Q626.177 129.524 629.233 124.941 Q632.311 120.334 638.122 120.334 Z" fill="#000000" fill-rule="nonzero" fill-opacity="1" /><path clip-path="url(#clip680)" d="M657.01 119.547 L660.714 119.547 Q664.186 125.01 665.899 130.242 Q667.635 135.473 667.635 140.635 Q667.635 145.82 665.899 151.075 Q664.186 156.329 660.714 161.769 L657.01 161.769 Q660.089 156.468 661.594 151.237 Q663.121 145.982 663.121 140.635 Q663.121 135.288 661.594 130.08 Q660.089 124.871 657.01 119.547 Z" fill="#000000" fill-rule="nonzero" fill-opacity="1" /><path clip-path="url(#clip680)" d="M691.802 133.992 L721.478 133.992 L721.478 137.88 L691.802 137.88 L691.802 133.992 M691.802 143.436 L721.478 143.436 L721.478 147.371 L691.802 147.371 L691.802 143.436 Z" fill="#000000" fill-rule="nonzero" fill-opacity="1" /><path clip-path="url(#clip680)" d="M747.45 151.584 L755.089 151.584 L755.089 125.218 L746.778 126.885 L746.778 122.626 L755.042 120.959 L759.718 120.959 L759.718 151.584 L767.357 151.584 L767.357 155.519 L747.45 155.519 L747.45 151.584 Z" fill="#000000" fill-rule="nonzero" fill-opacity="1" /><path clip-path="url(#clip680)" d="M776.801 149.64 L781.686 149.64 L781.686 155.519 L776.801 155.519 L776.801 149.64 Z" fill="#000000" fill-rule="nonzero" fill-opacity="1" /><path clip-path="url(#clip680)" d="M791.917 120.959 L810.273 120.959 L810.273 124.894 L796.199 124.894 L796.199 133.367 Q797.218 133.019 798.236 132.857 Q799.255 132.672 800.273 132.672 Q806.06 132.672 809.44 135.843 Q812.82 139.015 812.82 144.431 Q812.82 150.01 809.347 153.112 Q805.875 156.191 799.556 156.191 Q797.38 156.191 795.111 155.82 Q792.866 155.45 790.459 154.709 L790.459 150.01 Q792.542 151.144 794.764 151.7 Q796.986 152.255 799.463 152.255 Q803.468 152.255 805.806 150.149 Q808.144 148.042 808.144 144.431 Q808.144 140.82 805.806 138.714 Q803.468 136.607 799.463 136.607 Q797.588 136.607 795.713 137.024 Q793.861 137.441 791.917 138.32 L791.917 120.959 Z" fill="#000000" fill-rule="nonzero" fill-opacity="1" /><polyline clip-path="url(#clip680)" style="stroke:#e26f46; stroke-linecap:round; stroke-linejoin:round; stroke-width:16; stroke-opacity:1; fill:none" points="344.95,190.079 540.843,190.079 "/>
<path clip-path="url(#clip680)" d="M575.066 172.799 L580.089 172.799 L588.677 185.646 L597.312 172.799 L602.335 172.799 L591.224 189.396 L603.075 207.359 L598.052 207.359 L588.33 192.66 L578.539 207.359 L573.492 207.359 L585.83 188.91 L575.066 172.799 Z" fill="#000000" fill-rule="nonzero" fill-opacity="1" /><path clip-path="url(#clip680)" d="M619.256 171.387 Q616.154 176.711 614.649 181.92 Q613.145 187.128 613.145 192.475 Q613.145 197.822 614.649 203.077 Q616.177 208.308 619.256 213.609 L615.552 213.609 Q612.08 208.169 610.344 202.915 Q608.631 197.66 608.631 192.475 Q608.631 187.313 610.344 182.082 Q612.057 176.85 615.552 171.387 L619.256 171.387 Z" fill="#000000" fill-rule="nonzero" fill-opacity="1" /><path clip-path="url(#clip680)" d="M638.122 175.878 Q634.51 175.878 632.682 179.443 Q630.876 182.984 630.876 190.114 Q630.876 197.22 632.682 200.785 Q634.51 204.327 638.122 204.327 Q641.756 204.327 643.561 200.785 Q645.39 197.22 645.39 190.114 Q645.39 182.984 643.561 179.443 Q641.756 175.878 638.122 175.878 M638.122 172.174 Q643.932 172.174 646.987 176.781 Q650.066 181.364 650.066 190.114 Q650.066 198.841 646.987 203.447 Q643.932 208.031 638.122 208.031 Q632.311 208.031 629.233 203.447 Q626.177 198.841 626.177 190.114 Q626.177 181.364 629.233 176.781 Q632.311 172.174 638.122 172.174 Z" fill="#000000" fill-rule="nonzero" fill-opacity="1" /><path clip-path="url(#clip680)" d="M657.01 171.387 L660.714 171.387 Q664.186 176.85 665.899 182.082 Q667.635 187.313 667.635 192.475 Q667.635 197.66 665.899 202.915 Q664.186 208.169 660.714 213.609 L657.01 213.609 Q660.089 208.308 661.594 203.077 Q663.121 197.822 663.121 192.475 Q663.121 187.128 661.594 181.92 Q660.089 176.711 657.01 171.387 Z" fill="#000000" fill-rule="nonzero" fill-opacity="1" /><path clip-path="url(#clip680)" d="M691.802 185.832 L721.478 185.832 L721.478 189.72 L691.802 189.72 L691.802 185.832 M691.802 195.276 L721.478 195.276 L721.478 199.211 L691.802 199.211 L691.802 195.276 Z" fill="#000000" fill-rule="nonzero" fill-opacity="1" /><path clip-path="url(#clip680)" d="M750.667 203.424 L766.987 203.424 L766.987 207.359 L745.042 207.359 L745.042 203.424 Q747.704 200.669 752.288 196.04 Q756.894 191.387 758.075 190.045 Q760.32 187.521 761.2 185.785 Q762.102 184.026 762.102 182.336 Q762.102 179.582 760.158 177.846 Q758.237 176.109 755.135 176.109 Q752.936 176.109 750.482 176.873 Q748.052 177.637 745.274 179.188 L745.274 174.466 Q748.098 173.332 750.552 172.753 Q753.005 172.174 755.042 172.174 Q760.413 172.174 763.607 174.859 Q766.801 177.545 766.801 182.035 Q766.801 184.165 765.991 186.086 Q765.204 187.984 763.098 190.577 Q762.519 191.248 759.417 194.466 Q756.315 197.66 750.667 203.424 Z" fill="#000000" fill-rule="nonzero" fill-opacity="1" /><path clip-path="url(#clip680)" d="M776.801 201.48 L781.686 201.48 L781.686 207.359 L776.801 207.359 L776.801 201.48 Z" fill="#000000" fill-rule="nonzero" fill-opacity="1" /><path clip-path="url(#clip680)" d="M791.917 172.799 L810.273 172.799 L810.273 176.734 L796.199 176.734 L796.199 185.207 Q797.218 184.859 798.236 184.697 Q799.255 184.512 800.273 184.512 Q806.06 184.512 809.44 187.683 Q812.82 190.855 812.82 196.271 Q812.82 201.85 809.347 204.952 Q805.875 208.031 799.556 208.031 Q797.38 208.031 795.111 207.66 Q792.866 207.29 790.459 206.549 L790.459 201.85 Q792.542 202.984 794.764 203.54 Q796.986 204.095 799.463 204.095 Q803.468 204.095 805.806 201.989 Q808.144 199.882 808.144 196.271 Q808.144 192.66 805.806 190.554 Q803.468 188.447 799.463 188.447 Q797.588 188.447 795.713 188.864 Q793.861 189.281 791.917 190.16 L791.917 172.799 Z" fill="#000000" fill-rule="nonzero" fill-opacity="1" /></svg>
