<?xml version="1.0" encoding="utf-8"?>
<svg xmlns="http://www.w3.org/2000/svg" xmlns:xlink="http://www.w3.org/1999/xlink" width="700" height="500" viewBox="0 0 2800 2000">
<defs>
  <clipPath id="clip340">
    <rect x="0" y="0" width="2800" height="2000"/>
  </clipPath>
</defs>
<path clip-path="url(#clip340)" d="M0 2000 L2800 2000 L2800 0 L0 0  Z" fill="#ffffff" fill-rule="evenodd" fill-opacity="1"/>
<defs>
  <clipPath id="clip341">
    <rect x="560" y="0" width="1961" height="1961"/>
  </clipPath>
</defs>
<path clip-path="url(#clip340)" d="M235.435 766.073 L2752.76 766.073 L2752.76 47.2441 L235.435 47.2441  Z" fill="#ffffff" fill-rule="evenodd" fill-opacity="1"/>
<defs>
  <clipPath id="clip342">
    <rect x="235" y="47" width="2518" height="720"/>
  </clipPath>
</defs>
<polyline clip-path="url(#clip340)" style="stroke:#000000; stroke-linecap:round; stroke-linejoin:round; stroke-width:4; stroke-opacity:1; fill:none" points="235.435,766.073 2752.76,766.073 "/>
<polyline clip-path="url(#clip340)" style="stroke:#000000; stroke-linecap:round; stroke-linejoin:round; stroke-width:4; stroke-opacity:1; fill:none" points="235.435,47.2441 2752.76,47.2441 "/>
<polyline clip-path="url(#clip340)" style="stroke:#000000; stroke-linecap:round; stroke-linejoin:round; stroke-width:4; stroke-opacity:1; fill:none" points="235.435,766.073 235.435,747.175 "/>
<polyline clip-path="url(#clip340)" style="stroke:#000000; stroke-linecap:round; stroke-linejoin:round; stroke-width:4; stroke-opacity:1; fill:none" points="738.899,766.073 738.899,747.175 "/>
<polyline clip-path="url(#clip340)" style="stroke:#000000; stroke-linecap:round; stroke-linejoin:round; stroke-width:4; stroke-opacity:1; fill:none" points="1242.36,766.073 1242.36,747.175 "/>
<polyline clip-path="url(#clip340)" style="stroke:#000000; stroke-linecap:round; stroke-linejoin:round; stroke-width:4; stroke-opacity:1; fill:none" points="1745.83,766.073 1745.83,747.175 "/>
<polyline clip-path="url(#clip340)" style="stroke:#000000; stroke-linecap:round; stroke-linejoin:round; stroke-width:4; stroke-opacity:1; fill:none" points="2249.29,766.073 2249.29,747.175 "/>
<polyline clip-path="url(#clip340)" style="stroke:#000000; stroke-linecap:round; stroke-linejoin:round; stroke-width:4; stroke-opacity:1; fill:none" points="2752.76,766.073 2752.76,747.175 "/>
<polyline clip-path="url(#clip340)" style="stroke:#000000; stroke-linecap:round; stroke-linejoin:round; stroke-width:4; stroke-opacity:1; fill:none" points="235.435,47.2441 235.435,66.1417 "/>
<polyline clip-path="url(#clip340)" style="stroke:#000000; stroke-linecap:round; stroke-linejoin:round; stroke-width:4; stroke-opacity:1; fill:none" points="738.899,47.2441 738.899,66.1417 "/>
<polyline clip-path="url(#clip340)" style="stroke:#000000; stroke-linecap:round; stroke-linejoin:round; stroke-width:4; stroke-opacity:1; fill:none" points="1242.36,47.2441 1242.36,66.1417 "/>
<polyline clip-path="url(#clip340)" style="stroke:#000000; stroke-linecap:round; stroke-linejoin:round; stroke-width:4; stroke-opacity:1; fill:none" points="1745.83,47.2441 1745.83,66.1417 "/>
<polyline clip-path="url(#clip340)" style="stroke:#000000; stroke-linecap:round; stroke-linejoin:round; stroke-width:4; stroke-opacity:1; fill:none" points="2249.29,47.2441 2249.29,66.1417 "/>
<polyline clip-path="url(#clip340)" style="stroke:#000000; stroke-linecap:round; stroke-linejoin:round; stroke-width:4; stroke-opacity:1; fill:none" points="2752.76,47.2441 2752.76,66.1417 "/>
<path clip-path="url(#clip340)" d="M235.435 800.192 Q231.824 800.192 229.995 803.756 Q228.189 807.298 228.189 814.428 Q228.189 821.534 229.995 825.099 Q231.824 828.64 235.435 828.64 Q239.069 828.64 240.875 825.099 Q242.703 821.534 242.703 814.428 Q242.703 807.298 240.875 803.756 Q239.069 800.192 235.435 800.192 M235.435 796.488 Q241.245 796.488 244.3 801.094 Q247.379 805.678 247.379 814.428 Q247.379 823.154 244.3 827.761 Q241.245 832.344 235.435 832.344 Q229.625 832.344 226.546 827.761 Q223.49 823.154 223.49 814.428 Q223.49 805.678 226.546 801.094 Q229.625 796.488 235.435 796.488 Z" fill="#000000" fill-rule="nonzero" fill-opacity="1" /><path clip-path="url(#clip340)" d="M713.587 827.738 L721.225 827.738 L721.225 801.372 L712.915 803.039 L712.915 798.78 L721.179 797.113 L725.855 797.113 L725.855 827.738 L733.494 827.738 L733.494 831.673 L713.587 831.673 L713.587 827.738 Z" fill="#000000" fill-rule="nonzero" fill-opacity="1" /><path clip-path="url(#clip340)" d="M752.938 800.192 Q749.327 800.192 747.498 803.756 Q745.693 807.298 745.693 814.428 Q745.693 821.534 747.498 825.099 Q749.327 828.64 752.938 828.64 Q756.573 828.64 758.378 825.099 Q760.207 821.534 760.207 814.428 Q760.207 807.298 758.378 803.756 Q756.573 800.192 752.938 800.192 M752.938 796.488 Q758.748 796.488 761.804 801.094 Q764.883 805.678 764.883 814.428 Q764.883 823.154 761.804 827.761 Q758.748 832.344 752.938 832.344 Q747.128 832.344 744.049 827.761 Q740.994 823.154 740.994 814.428 Q740.994 805.678 744.049 801.094 Q747.128 796.488 752.938 796.488 Z" fill="#000000" fill-rule="nonzero" fill-opacity="1" /><path clip-path="url(#clip340)" d="M1221.14 827.738 L1237.46 827.738 L1237.46 831.673 L1215.51 831.673 L1215.51 827.738 Q1218.17 824.983 1222.76 820.354 Q1227.36 815.701 1228.54 814.358 Q1230.79 811.835 1231.67 810.099 Q1232.57 808.34 1232.57 806.65 Q1232.57 803.895 1230.63 802.159 Q1228.71 800.423 1225.6 800.423 Q1223.4 800.423 1220.95 801.187 Q1218.52 801.951 1215.74 803.502 L1215.74 798.78 Q1218.57 797.645 1221.02 797.067 Q1223.47 796.488 1225.51 796.488 Q1230.88 796.488 1234.08 799.173 Q1237.27 801.858 1237.27 806.349 Q1237.27 808.479 1236.46 810.4 Q1235.67 812.298 1233.57 814.891 Q1232.99 815.562 1229.89 818.779 Q1226.78 821.974 1221.14 827.738 Z" fill="#000000" fill-rule="nonzero" fill-opacity="1" /><path clip-path="url(#clip340)" d="M1257.27 800.192 Q1253.66 800.192 1251.83 803.756 Q1250.03 807.298 1250.03 814.428 Q1250.03 821.534 1251.83 825.099 Q1253.66 828.64 1257.27 828.64 Q1260.9 828.64 1262.71 825.099 Q1264.54 821.534 1264.54 814.428 Q1264.54 807.298 1262.71 803.756 Q1260.9 800.192 1257.27 800.192 M1257.27 796.488 Q1263.08 796.488 1266.14 801.094 Q1269.21 805.678 1269.21 814.428 Q1269.21 823.154 1266.14 827.761 Q1263.08 832.344 1257.27 832.344 Q1251.46 832.344 1248.38 827.761 Q1245.33 823.154 1245.33 814.428 Q1245.33 805.678 1248.38 801.094 Q1251.46 796.488 1257.27 796.488 Z" fill="#000000" fill-rule="nonzero" fill-opacity="1" /><path clip-path="url(#clip340)" d="M1734.67 813.039 Q1738.03 813.756 1739.9 816.025 Q1741.8 818.293 1741.8 821.627 Q1741.8 826.742 1738.28 829.543 Q1734.76 832.344 1728.28 832.344 Q1726.11 832.344 1723.79 831.904 Q1721.5 831.488 1719.05 830.631 L1719.05 826.117 Q1720.99 827.252 1723.3 827.83 Q1725.62 828.409 1728.14 828.409 Q1732.54 828.409 1734.83 826.673 Q1737.15 824.937 1737.15 821.627 Q1737.15 818.571 1734.99 816.858 Q1732.86 815.122 1729.05 815.122 L1725.02 815.122 L1725.02 811.279 L1729.23 811.279 Q1732.68 811.279 1734.51 809.914 Q1736.34 808.525 1736.34 805.932 Q1736.34 803.27 1734.44 801.858 Q1732.56 800.423 1729.05 800.423 Q1727.12 800.423 1724.92 800.84 Q1722.73 801.256 1720.09 802.136 L1720.09 797.969 Q1722.75 797.229 1725.06 796.858 Q1727.4 796.488 1729.46 796.488 Q1734.79 796.488 1737.89 798.918 Q1740.99 801.326 1740.99 805.446 Q1740.99 808.317 1739.35 810.307 Q1737.7 812.275 1734.67 813.039 Z" fill="#000000" fill-rule="nonzero" fill-opacity="1" /><path clip-path="url(#clip340)" d="M1760.67 800.192 Q1757.05 800.192 1755.23 803.756 Q1753.42 807.298 1753.42 814.428 Q1753.42 821.534 1755.23 825.099 Q1757.05 828.64 1760.67 828.64 Q1764.3 828.64 1766.11 825.099 Q1767.93 821.534 1767.93 814.428 Q1767.93 807.298 1766.11 803.756 Q1764.3 800.192 1760.67 800.192 M1760.67 796.488 Q1766.48 796.488 1769.53 801.094 Q1772.61 805.678 1772.61 814.428 Q1772.61 823.154 1769.53 827.761 Q1766.48 832.344 1760.67 832.344 Q1754.86 832.344 1751.78 827.761 Q1748.72 823.154 1748.72 814.428 Q1748.72 805.678 1751.78 801.094 Q1754.86 796.488 1760.67 796.488 Z" fill="#000000" fill-rule="nonzero" fill-opacity="1" /><path clip-path="url(#clip340)" d="M2237.46 801.187 L2225.66 819.636 L2237.46 819.636 L2237.46 801.187 M2236.24 797.113 L2242.12 797.113 L2242.12 819.636 L2247.05 819.636 L2247.05 823.525 L2242.12 823.525 L2242.12 831.673 L2237.46 831.673 L2237.46 823.525 L2221.86 823.525 L2221.86 819.011 L2236.24 797.113 Z" fill="#000000" fill-rule="nonzero" fill-opacity="1" /><path clip-path="url(#clip340)" d="M2264.78 800.192 Q2261.17 800.192 2259.34 803.756 Q2257.53 807.298 2257.53 814.428 Q2257.53 821.534 2259.34 825.099 Q2261.17 828.64 2264.78 828.64 Q2268.41 828.64 2270.22 825.099 Q2272.05 821.534 2272.05 814.428 Q2272.05 807.298 2270.22 803.756 Q2268.41 800.192 2264.78 800.192 M2264.78 796.488 Q2270.59 796.488 2273.64 801.094 Q2276.72 805.678 2276.72 814.428 Q2276.72 823.154 2273.64 827.761 Q2270.59 832.344 2264.78 832.344 Q2258.97 832.344 2255.89 827.761 Q2252.83 823.154 2252.83 814.428 Q2252.83 805.678 2255.89 801.094 Q2258.97 796.488 2264.78 796.488 Z" fill="#000000" fill-rule="nonzero" fill-opacity="1" /><path clip-path="url(#clip340)" d="M2727.46 797.113 L2745.81 797.113 L2745.81 801.048 L2731.74 801.048 L2731.74 809.52 Q2732.76 809.173 2733.77 809.011 Q2734.79 808.826 2735.81 808.826 Q2741.6 808.826 2744.98 811.997 Q2748.36 815.168 2748.36 820.585 Q2748.36 826.164 2744.89 829.265 Q2741.41 832.344 2735.09 832.344 Q2732.92 832.344 2730.65 831.974 Q2728.4 831.603 2726 830.863 L2726 826.164 Q2728.08 827.298 2730.3 827.853 Q2732.52 828.409 2735 828.409 Q2739.01 828.409 2741.34 826.303 Q2743.68 824.196 2743.68 820.585 Q2743.68 816.974 2741.34 814.867 Q2739.01 812.761 2735 812.761 Q2733.13 812.761 2731.25 813.178 Q2729.4 813.594 2727.46 814.474 L2727.46 797.113 Z" fill="#000000" fill-rule="nonzero" fill-opacity="1" /><path clip-path="url(#clip340)" d="M2767.57 800.192 Q2763.96 800.192 2762.13 803.756 Q2760.33 807.298 2760.33 814.428 Q2760.33 821.534 2762.13 825.099 Q2763.96 828.64 2767.57 828.64 Q2771.2 828.64 2773.01 825.099 Q2774.84 821.534 2774.84 814.428 Q2774.84 807.298 2773.01 803.756 Q2771.2 800.192 2767.57 800.192 M2767.57 796.488 Q2773.38 796.488 2776.44 801.094 Q2779.52 805.678 2779.52 814.428 Q2779.52 823.154 2776.44 827.761 Q2773.38 832.344 2767.57 832.344 Q2761.76 832.344 2758.68 827.761 Q2755.63 823.154 2755.63 814.428 Q2755.63 805.678 2758.68 801.094 Q2761.76 796.488 2767.57 796.488 Z" fill="#000000" fill-rule="nonzero" fill-opacity="1" /><path clip-path="url(#clip340)" d="M1493.16 871.167 L1493.16 881.289 L1505.22 881.289 L1505.22 885.84 L1493.16 885.84 L1493.16 905.192 Q1493.16 909.553 1494.33 910.794 Q1495.54 912.035 1499.2 912.035 L1505.22 912.035 L1505.22 916.937 L1499.2 916.937 Q1492.42 916.937 1489.85 914.422 Q1487.27 911.876 1487.27 905.192 L1487.27 885.84 L1482.97 885.84 L1482.97 881.289 L1487.27 881.289 L1487.27 871.167 L1493.16 871.167 Z" fill="#000000" fill-rule="nonzero" fill-opacity="1" /><polyline clip-path="url(#clip340)" style="stroke:#000000; stroke-linecap:round; stroke-linejoin:round; stroke-width:4; stroke-opacity:1; fill:none" points="235.435,766.073 235.435,47.2441 "/>
<polyline clip-path="url(#clip340)" style="stroke:#000000; stroke-linecap:round; stroke-linejoin:round; stroke-width:4; stroke-opacity:1; fill:none" points="2752.76,766.073 2752.76,47.2441 "/>
<polyline clip-path="url(#clip340)" style="stroke:#000000; stroke-linecap:round; stroke-linejoin:round; stroke-width:4; stroke-opacity:1; fill:none" points="235.435,756.948 254.332,756.948 "/>
<polyline clip-path="url(#clip340)" style="stroke:#000000; stroke-linecap:round; stroke-linejoin:round; stroke-width:4; stroke-opacity:1; fill:none" points="235.435,648.918 254.332,648.918 "/>
<polyline clip-path="url(#clip340)" style="stroke:#000000; stroke-linecap:round; stroke-linejoin:round; stroke-width:4; stroke-opacity:1; fill:none" points="235.435,540.888 254.332,540.888 "/>
<polyline clip-path="url(#clip340)" style="stroke:#000000; stroke-linecap:round; stroke-linejoin:round; stroke-width:4; stroke-opacity:1; fill:none" points="235.435,432.857 254.332,432.857 "/>
<polyline clip-path="url(#clip340)" style="stroke:#000000; stroke-linecap:round; stroke-linejoin:round; stroke-width:4; stroke-opacity:1; fill:none" points="235.435,324.827 254.332,324.827 "/>
<polyline clip-path="url(#clip340)" style="stroke:#000000; stroke-linecap:round; stroke-linejoin:round; stroke-width:4; stroke-opacity:1; fill:none" points="235.435,216.796 254.332,216.796 "/>
<polyline clip-path="url(#clip340)" style="stroke:#000000; stroke-linecap:round; stroke-linejoin:round; stroke-width:4; stroke-opacity:1; fill:none" points="235.435,108.766 254.332,108.766 "/>
<polyline clip-path="url(#clip340)" style="stroke:#000000; stroke-linecap:round; stroke-linejoin:round; stroke-width:4; stroke-opacity:1; fill:none" points="2752.76,756.948 2733.86,756.948 "/>
<polyline clip-path="url(#clip340)" style="stroke:#000000; stroke-linecap:round; stroke-linejoin:round; stroke-width:4; stroke-opacity:1; fill:none" points="2752.76,648.918 2733.86,648.918 "/>
<polyline clip-path="url(#clip340)" style="stroke:#000000; stroke-linecap:round; stroke-linejoin:round; stroke-width:4; stroke-opacity:1; fill:none" points="2752.76,540.888 2733.86,540.888 "/>
<polyline clip-path="url(#clip340)" style="stroke:#000000; stroke-linecap:round; stroke-linejoin:round; stroke-width:4; stroke-opacity:1; fill:none" points="2752.76,432.857 2733.86,432.857 "/>
<polyline clip-path="url(#clip340)" style="stroke:#000000; stroke-linecap:round; stroke-linejoin:round; stroke-width:4; stroke-opacity:1; fill:none" points="2752.76,324.827 2733.86,324.827 "/>
<polyline clip-path="url(#clip340)" style="stroke:#000000; stroke-linecap:round; stroke-linejoin:round; stroke-width:4; stroke-opacity:1; fill:none" points="2752.76,216.796 2733.86,216.796 "/>
<polyline clip-path="url(#clip340)" style="stroke:#000000; stroke-linecap:round; stroke-linejoin:round; stroke-width:4; stroke-opacity:1; fill:none" points="2752.76,108.766 2733.86,108.766 "/>
<path clip-path="url(#clip340)" d="M181.49 742.747 Q177.879 742.747 176.051 746.312 Q174.245 749.854 174.245 756.983 Q174.245 764.09 176.051 767.654 Q177.879 771.196 181.49 771.196 Q185.125 771.196 186.93 767.654 Q188.759 764.09 188.759 756.983 Q188.759 749.854 186.93 746.312 Q185.125 742.747 181.49 742.747 M181.49 739.043 Q187.301 739.043 190.356 743.65 Q193.435 748.233 193.435 756.983 Q193.435 765.71 190.356 770.316 Q187.301 774.9 181.49 774.9 Q175.68 774.9 172.602 770.316 Q169.546 765.71 169.546 756.983 Q169.546 748.233 172.602 743.65 Q175.68 739.043 181.49 739.043 Z" fill="#000000" fill-rule="nonzero" fill-opacity="1" /><path clip-path="url(#clip340)" d="M177.115 662.263 L193.435 662.263 L193.435 666.198 L171.49 666.198 L171.49 662.263 Q174.152 659.508 178.736 654.879 Q183.342 650.226 184.523 648.883 Q186.768 646.36 187.648 644.624 Q188.551 642.865 188.551 641.175 Q188.551 638.42 186.606 636.684 Q184.685 634.948 181.583 634.948 Q179.384 634.948 176.93 635.712 Q174.5 636.476 171.722 638.027 L171.722 633.305 Q174.546 632.17 177 631.592 Q179.453 631.013 181.49 631.013 Q186.861 631.013 190.055 633.698 Q193.25 636.383 193.25 640.874 Q193.25 643.004 192.439 644.925 Q191.652 646.823 189.546 649.416 Q188.967 650.087 185.865 653.305 Q182.764 656.499 177.115 662.263 Z" fill="#000000" fill-rule="nonzero" fill-opacity="1" /><path clip-path="url(#clip340)" d="M183.851 527.682 L172.046 546.131 L183.851 546.131 L183.851 527.682 M182.625 523.608 L188.504 523.608 L188.504 546.131 L193.435 546.131 L193.435 550.02 L188.504 550.02 L188.504 558.168 L183.851 558.168 L183.851 550.02 L168.25 550.02 L168.25 545.506 L182.625 523.608 Z" fill="#000000" fill-rule="nonzero" fill-opacity="1" /><path clip-path="url(#clip340)" d="M181.907 430.994 Q178.759 430.994 176.907 433.147 Q175.078 435.299 175.078 439.049 Q175.078 442.776 176.907 444.952 Q178.759 447.105 181.907 447.105 Q185.055 447.105 186.884 444.952 Q188.736 442.776 188.736 439.049 Q188.736 435.299 186.884 433.147 Q185.055 430.994 181.907 430.994 M191.189 416.341 L191.189 420.6 Q189.43 419.767 187.625 419.327 Q185.842 418.887 184.083 418.887 Q179.453 418.887 177 422.012 Q174.569 425.137 174.222 431.457 Q175.588 429.443 177.648 428.378 Q179.708 427.29 182.185 427.29 Q187.393 427.29 190.402 430.461 Q193.435 433.61 193.435 439.049 Q193.435 444.373 190.287 447.591 Q187.139 450.809 181.907 450.809 Q175.912 450.809 172.74 446.225 Q169.569 441.619 169.569 432.892 Q169.569 424.698 173.458 419.836 Q177.347 414.952 183.898 414.952 Q185.657 414.952 187.439 415.299 Q189.245 415.647 191.189 416.341 Z" fill="#000000" fill-rule="nonzero" fill-opacity="1" /><path clip-path="url(#clip340)" d="M181.583 325.695 Q178.25 325.695 176.328 327.477 Q174.43 329.26 174.43 332.385 Q174.43 335.51 176.328 337.292 Q178.25 339.074 181.583 339.074 Q184.916 339.074 186.838 337.292 Q188.759 335.486 188.759 332.385 Q188.759 329.26 186.838 327.477 Q184.939 325.695 181.583 325.695 M176.907 323.704 Q173.898 322.963 172.208 320.903 Q170.541 318.843 170.541 315.88 Q170.541 311.737 173.481 309.329 Q176.444 306.922 181.583 306.922 Q186.745 306.922 189.685 309.329 Q192.625 311.737 192.625 315.88 Q192.625 318.843 190.935 320.903 Q189.268 322.963 186.282 323.704 Q189.662 324.491 191.537 326.783 Q193.435 329.074 193.435 332.385 Q193.435 337.408 190.356 340.093 Q187.301 342.778 181.583 342.778 Q175.865 342.778 172.787 340.093 Q169.731 337.408 169.731 332.385 Q169.731 329.074 171.629 326.783 Q173.527 324.491 176.907 323.704 M175.194 316.32 Q175.194 319.005 176.861 320.51 Q178.551 322.014 181.583 322.014 Q184.592 322.014 186.282 320.51 Q187.995 319.005 187.995 316.32 Q187.995 313.635 186.282 312.13 Q184.592 310.625 181.583 310.625 Q178.551 310.625 176.861 312.13 Q175.194 313.635 175.194 316.32 Z" fill="#000000" fill-rule="nonzero" fill-opacity="1" /><path clip-path="url(#clip340)" d="M142.139 230.141 L149.778 230.141 L149.778 203.776 L141.467 205.442 L141.467 201.183 L149.731 199.516 L154.407 199.516 L154.407 230.141 L162.046 230.141 L162.046 234.076 L142.139 234.076 L142.139 230.141 Z" fill="#000000" fill-rule="nonzero" fill-opacity="1" /><path clip-path="url(#clip340)" d="M181.49 202.595 Q177.879 202.595 176.051 206.16 Q174.245 209.702 174.245 216.831 Q174.245 223.938 176.051 227.502 Q177.879 231.044 181.49 231.044 Q185.125 231.044 186.93 227.502 Q188.759 223.938 188.759 216.831 Q188.759 209.702 186.93 206.16 Q185.125 202.595 181.49 202.595 M181.49 198.891 Q187.301 198.891 190.356 203.498 Q193.435 208.081 193.435 216.831 Q193.435 225.558 190.356 230.164 Q187.301 234.748 181.49 234.748 Q175.68 234.748 172.602 230.164 Q169.546 225.558 169.546 216.831 Q169.546 208.081 172.602 203.498 Q175.68 198.891 181.49 198.891 Z" fill="#000000" fill-rule="nonzero" fill-opacity="1" /><path clip-path="url(#clip340)" d="M143.736 122.111 L151.375 122.111 L151.375 95.7452 L143.065 97.4119 L143.065 93.1526 L151.329 91.486 L156.004 91.486 L156.004 122.111 L163.643 122.111 L163.643 126.046 L143.736 126.046 L143.736 122.111 Z" fill="#000000" fill-rule="nonzero" fill-opacity="1" /><path clip-path="url(#clip340)" d="M177.115 122.111 L193.435 122.111 L193.435 126.046 L171.49 126.046 L171.49 122.111 Q174.152 119.356 178.736 114.727 Q183.342 110.074 184.523 108.731 Q186.768 106.208 187.648 104.472 Q188.551 102.713 188.551 101.023 Q188.551 98.2683 186.606 96.5322 Q184.685 94.7961 181.583 94.7961 Q179.384 94.7961 176.93 95.56 Q174.5 96.3239 171.722 97.8748 L171.722 93.1526 Q174.546 92.0184 177 91.4397 Q179.453 90.861 181.49 90.861 Q186.861 90.861 190.055 93.5461 Q193.25 96.2313 193.25 100.722 Q193.25 102.852 192.439 104.773 Q191.652 106.671 189.546 109.264 Q188.967 109.935 185.865 113.153 Q182.764 116.347 177.115 122.111 Z" fill="#000000" fill-rule="nonzero" fill-opacity="1" /><polyline clip-path="url(#clip342)" style="stroke:#009af9; stroke-linecap:round; stroke-linejoin:round; stroke-width:8; stroke-opacity:1; fill:none" points="235.435,702.933 237.358,710.389 239.281,716.483 241.204,721.496 243.127,725.635 245.05,729.061 246.973,731.903 248.896,734.262 250.819,736.221 252.743,737.85 254.666,739.204 256.589,740.329 258.512,741.264 260.435,742.041 262.358,742.687 264.281,743.224 266.204,743.669 268.127,744.039 270.05,744.346 271.973,744.6 273.897,744.81 275.82,744.984 277.743,745.128 279.666,745.247 281.589,745.345 283.512,745.425 285.435,745.491 287.358,745.544 289.281,745.588 291.204,745.623 293.127,745.651 295.05,745.673 296.974,745.691 298.897,745.704 300.82,745.714 302.743,745.721 304.666,745.725 306.589,745.728 308.512,745.729 310.435,745.728 312.358,745.727 314.281,745.724 316.204,745.721 318.128,745.717 320.051,745.712 321.974,745.707 323.897,745.701 325.82,745.695 327.743,745.689 329.666,745.683 331.589,745.676 333.512,745.669 335.435,745.662 337.358,745.655 339.281,745.648 341.205,745.641 343.128,745.633 345.051,745.626 346.974,745.618 348.897,745.611 350.82,745.603 352.743,745.595 354.666,745.587 356.589,745.58 358.512,745.572 360.435,745.564 362.359,745.556 364.282,745.548 366.205,745.54 368.128,745.532 370.051,745.524 371.974,745.516 373.897,745.508 375.82,745.5 377.743,745.492 379.666,745.484 381.589,745.475 383.512,745.467 385.436,745.459 387.359,745.451 389.282,745.442 391.205,745.434 393.128,745.426 395.051,745.418 396.974,745.409 398.897,745.401 400.82,745.393 402.743,745.384 404.666,745.376 406.59,745.367 408.513,745.359 410.436,745.35 412.359,745.341 414.282,745.333 416.205,745.324 418.128,745.315 420.051,745.307 421.974,745.298 423.897,745.289 425.82,745.281 427.743,745.272 429.667,745.263 431.59,745.255 433.513,745.246 435.436,745.237 437.359,745.228 439.282,745.22 441.205,745.211 443.128,745.202 445.051,745.192 446.974,745.183 448.897,745.174 450.821,745.165 452.744,745.156 454.667,745.146 456.59,745.137 458.513,745.128 460.436,745.119 462.359,745.11 464.282,745.101 466.205,745.092 468.128,745.083 470.051,745.073 471.974,745.064 473.898,745.055 475.821,745.046 477.744,745.036 479.667,745.027 481.59,745.017 483.513,745.007 485.436,744.998 487.359,744.988 489.282,744.978 491.205,744.968 493.128,744.958 495.052,744.948 496.975,744.938 498.898,744.928 500.821,744.919 502.744,744.909 504.667,744.899 506.59,744.89 508.513,744.88 510.436,744.871 512.359,744.861 514.282,744.851 516.206,744.841 518.129,744.831 520.052,744.821 521.975,744.811 523.898,744.8 525.821,744.79 527.744,744.779 529.667,744.769 531.59,744.758 533.513,744.747 535.436,744.736 537.359,744.726 539.283,744.715 541.206,744.705 543.129,744.694 545.052,744.684 546.975,744.673 548.898,744.663 550.821,744.653 552.744,744.643 554.667,744.632 556.59,744.622 558.513,744.611 560.437,744.6 562.36,744.59 564.283,744.579 566.206,744.567 568.129,744.556 570.052,744.545 571.975,744.533 573.898,744.522 575.821,744.51 577.744,744.499 579.667,744.487 581.59,744.475 583.514,744.464 585.437,744.452 587.36,744.441 589.283,744.43 591.206,744.418 593.129,744.407 595.052,744.396 596.975,744.385 598.898,744.374 600.821,744.363 602.744,744.351 604.668,744.339 606.591,744.328 608.514,744.316 610.437,744.304 612.36,744.292 614.283,744.279 616.206,744.267 618.129,744.254 620.052,744.242 621.975,744.229 623.898,744.216 625.821,744.204 627.745,744.191 629.668,744.178 631.591,744.166 633.514,744.153 635.437,744.141 637.36,744.129 639.283,744.116 641.206,744.104 643.129,744.092 645.052,744.08 646.975,744.067 648.899,744.055 650.822,744.042 652.745,744.029 654.668,744.016 656.591,744.003 658.514,743.99 660.437,743.976 662.36,743.963 664.283,743.949 666.206,743.935 668.129,743.921 670.052,743.907 671.976,743.893 673.899,743.879 675.822,743.865 677.745,743.851 679.668,743.837 681.591,743.823 683.514,743.81 685.437,743.796 687.36,743.783 689.283,743.769 691.206,743.755 693.13,743.741 695.053,743.728 696.976,743.714 698.899,743.699 700.822,743.685 702.745,743.671 704.668,743.656 706.591,743.641 708.514,743.627 710.437,743.611 712.36,743.596 714.283,743.581 716.207,743.565 718.13,743.55 720.053,743.534 721.976,743.519 723.899,743.503 725.822,743.487 727.745,743.471 729.668,743.456 731.591,743.44 733.514,743.425 735.437,743.41 737.361,743.394 739.284,743.379 741.207,743.363 743.13,743.348 745.053,743.332 746.976,743.316 748.899,743.3 750.822,743.284 752.745,743.268 754.668,743.251 756.591,743.235 758.514,743.218 760.438,743.201 762.361,743.184 764.284,743.166 766.207,743.149 768.13,743.131 770.053,743.114 771.976,743.096 773.899,743.078 775.822,743.06 777.745,743.042 779.668,743.024 781.592,743.007 783.515,742.989 785.438,742.971 787.361,742.953 789.284,742.935 791.207,742.917 793.13,742.899 795.053,742.881 796.976,742.863 798.899,742.845 800.822,742.826 802.745,742.808 804.669,742.789 806.592,742.77 808.515,742.751 810.438,742.731 812.361,742.712 814.284,742.692 816.207,742.672 818.13,742.652 820.053,742.632 821.976,742.611 823.899,742.591 825.823,742.57 827.746,742.549 829.669,742.528 831.592,742.507 833.515,742.486 835.438,742.465 837.361,742.444 839.284,742.423 841.207,742.402 843.13,742.381 845.053,742.36 846.977,742.338 848.9,742.317 850.823,742.295 852.746,742.273 854.669,742.251 856.592,742.229 858.515,742.206 860.438,742.184 862.361,742.161 864.284,742.138 866.207,742.115 868.13,742.091 870.054,742.067 871.977,742.044 873.9,742.019 875.823,741.995 877.746,741.971 879.669,741.946 881.592,741.921 883.515,741.896 885.438,741.871 887.361,741.845 889.284,741.82 891.208,741.794 893.131,741.768 895.054,741.742 896.977,741.716 898.9,741.69 900.823,741.663 902.746,741.637 904.669,741.61 906.592,741.583 908.515,741.556 910.438,741.528 912.361,741.501 914.285,741.473 916.208,741.445 918.131,741.416 920.054,741.388 921.977,741.359 923.9,741.33 925.823,741.3 927.746,741.27 929.669,741.24 931.592,741.21 933.515,741.179 935.439,741.148 937.362,741.117 939.285,741.085 941.208,741.053 943.131,741.021 945.054,740.989 946.977,740.956 948.9,740.923 950.823,740.89 952.746,740.856 954.669,740.822 956.592,740.788 958.516,740.753 960.439,740.718 962.362,740.683 964.285,740.647 966.208,740.611 968.131,740.575 970.054,740.538 971.977,740.501 973.9,740.463 975.823,740.425 977.746,740.386 979.67,740.347 981.593,740.308 983.516,740.268 985.439,740.228 987.362,740.188 989.285,740.146 991.208,740.105 993.131,740.063 995.054,740.02 996.977,739.977 998.9,739.933 1000.82,739.889 1002.75,739.844 1004.67,739.799 1006.59,739.753 1008.52,739.706 1010.44,739.659 1012.36,739.611 1014.29,739.563 1016.21,739.514 1018.13,739.464 1020.05,739.413 1021.98,739.362 1023.9,739.31 1025.82,739.257 1027.75,739.203 1029.67,739.148 1031.59,739.091 1033.52,739.031 1035.44,738.97 1037.36,738.907 1039.29,738.843 1041.21,738.777 1043.13,738.71 1045.05,738.641 1046.98,738.572 1048.9,738.501 1050.82,738.43 1052.75,738.358 1054.67,738.285 1056.59,738.212 1058.52,738.137 1060.44,738.063 1062.36,737.987 1064.29,737.911 1066.21,737.834 1068.13,737.756 1070.05,737.677 1071.98,737.598 1073.9,737.517 1075.82,737.435 1077.75,737.352 1079.67,737.268 1081.59,737.182 1083.52,737.095 1085.44,737.005 1087.36,736.914 1089.29,736.82 1091.21,736.724 1093.13,736.625 1095.05,736.524 1096.98,736.419 1098.9,736.31 1100.82,736.198 1102.75,736.082 1104.67,735.961 1106.59,735.835 1108.52,735.705 1110.44,735.569 1112.36,735.427 1114.29,735.279 1116.21,735.124 1118.13,734.962 1120.05,734.793 1121.98,734.616 1123.9,734.43 1125.82,734.236 1127.75,734.032 1129.67,733.818 1131.59,733.594 1133.52,733.359 1135.44,733.112 1137.36,732.854 1139.29,732.583 1141.21,732.296 1143.13,731.99 1145.06,731.665 1146.98,731.319 1148.9,730.952 1150.82,730.561 1152.75,730.142 1154.67,729.692 1156.59,729.203 1158.52,728.671 1160.44,728.087 1162.36,727.442 1164.29,726.728 1166.21,725.934 1168.13,725.047 1170.06,724.036 1171.98,722.888 1173.9,721.588 1175.82,720.094 1177.75,718.336 1179.67,716.219 1181.59,713.618 1183.52,710.38 1185.44,706.128 1187.36,700.719 1189.29,693.37 1191.21,682.269 1193.13,664.236 1195.06,632.39 1196.98,561.242 1198.9,366.012 1200.82,94.7194 1202.75,69.635 1204.67,91.9414 1206.59,115.937 1208.52,139.218 1210.44,161.682 1212.36,183.353 1214.29,204.261 1216.21,224.433 1218.13,243.903 1220.06,262.703 1221.98,280.846 1223.9,298.374 1225.82,315.303 1227.75,331.66 1229.67,347.47 1231.59,362.754 1233.52,377.534 1235.44,391.836 1237.36,405.672 1239.29,419.071 1241.21,432.047 1243.13,444.62 1245.06,456.81 1246.98,468.632 1248.9,480.105 1250.82,491.243 1252.75,502.065 1254.67,512.586 1256.59,522.818 1258.52,532.776 1260.44,542.473 1262.36,551.923 1264.29,561.139 1266.21,570.13 1268.13,578.906 1270.06,587.476 1271.98,595.847 1273.9,604.026 1275.82,612.016 1277.75,619.821 1279.67,627.441 1281.59,634.874 1283.52,642.115 1285.44,649.159 1287.36,655.997 1289.29,662.617 1291.21,669.007 1293.13,675.154 1295.06,681.045 1296.98,686.665 1298.9,691.999 1300.83,697.033 1302.75,701.759 1304.67,706.17 1306.59,710.263 1308.52,714.036 1310.44,717.495 1312.36,720.645 1314.29,723.5 1316.21,726.072 1318.13,728.384 1320.06,730.455 1321.98,732.298 1323.9,733.926 1325.83,735.354 1327.75,736.599 1329.67,737.683 1331.59,738.627 1333.52,739.456 1335.44,740.186 1337.36,740.82 1339.29,741.368 1341.21,741.842 1343.13,742.25 1345.06,742.601 1346.98,742.905 1348.9,743.167 1350.83,743.393 1352.75,743.585 1354.67,743.749 1356.59,743.888 1358.52,744.007 1360.44,744.108 1362.36,744.194 1364.29,744.268 1366.21,744.33 1368.13,744.382 1370.06,744.425 1371.98,744.46 1373.9,744.49 1375.83,744.514 1377.75,744.533 1379.67,744.548 1381.59,744.56 1383.52,744.569 1385.44,744.575 1387.36,744.578 1389.29,744.58 1391.21,744.58 1393.13,744.578 1395.06,744.575 1396.98,744.571 1398.9,744.567 1400.83,744.561 1402.75,744.555 1404.67,744.548 1406.59,744.54 1408.52,744.532 1410.44,744.523 1412.36,744.514 1414.29,744.505 1416.21,744.495 1418.13,744.486 1420.06,744.476 1421.98,744.466 1423.9,744.455 1425.83,744.445 1427.75,744.434 1429.67,744.423 1431.6,744.412 1433.52,744.401 1435.44,744.389 1437.36,744.378 1439.29,744.367 1441.21,744.355 1443.13,744.344 1445.06,744.332 1446.98,744.321 1448.9,744.309 1450.83,744.297 1452.75,744.285 1454.67,744.273 1456.6,744.261 1458.52,744.249 1460.44,744.237 1462.36,744.225 1464.29,744.212 1466.21,744.2 1468.13,744.188 1470.06,744.175 1471.98,744.163 1473.9,744.151 1475.83,744.138 1477.75,744.126 1479.67,744.113 1481.6,744.1 1483.52,744.087 1485.44,744.075 1487.36,744.062 1489.29,744.049 1491.21,744.036 1493.13,744.023 1495.06,744.009 1496.98,743.996 1498.9,743.983 1500.83,743.97 1502.75,743.956 1504.67,743.943 1506.6,743.93 1508.52,743.916 1510.44,743.903 1512.36,743.889 1514.29,743.876 1516.21,743.862 1518.13,743.849 1520.06,743.835 1521.98,743.821 1523.9,743.807 1525.83,743.793 1527.75,743.779 1529.67,743.765 1531.6,743.75 1533.52,743.736 1535.44,743.722 1537.36,743.707 1539.29,743.692 1541.21,743.678 1543.13,743.663 1545.06,743.649 1546.98,743.634 1548.9,743.619 1550.83,743.605 1552.75,743.59 1554.67,743.575 1556.6,743.56 1558.52,743.545 1560.44,743.53 1562.36,743.515 1564.29,743.5 1566.21,743.484 1568.13,743.469 1570.06,743.453 1571.98,743.438 1573.9,743.422 1575.83,743.406 1577.75,743.39 1579.67,743.374 1581.6,743.357 1583.52,743.341 1585.44,743.325 1587.37,743.309 1589.29,743.292 1591.21,743.276 1593.13,743.259 1595.06,743.243 1596.98,743.227 1598.9,743.21 1600.83,743.193 1602.75,743.177 1604.67,743.16 1606.6,743.143 1608.52,743.126 1610.44,743.109 1612.37,743.091 1614.29,743.074 1616.21,743.056 1618.13,743.039 1620.06,743.021 1621.98,743.003 1623.9,742.985 1625.83,742.966 1627.75,742.948 1629.67,742.93 1631.6,742.911 1633.52,742.893 1635.44,742.874 1637.37,742.855 1639.29,742.837 1641.21,742.818 1643.13,742.799 1645.06,742.78 1646.98,742.761 1648.9,742.742 1650.83,742.723 1652.75,742.704 1654.67,742.684 1656.6,742.665 1658.52,742.645 1660.44,742.625 1662.37,742.605 1664.29,742.585 1666.21,742.564 1668.13,742.544 1670.06,742.523 1671.98,742.502 1673.9,742.481 1675.83,742.46 1677.75,742.439 1679.67,742.417 1681.6,742.396 1683.52,742.374 1685.44,742.352 1687.37,742.33 1689.29,742.308 1691.21,742.286 1693.13,742.264 1695.06,742.242 1696.98,742.219 1698.9,742.197 1700.83,742.174 1702.75,742.151 1704.67,742.128 1706.6,742.105 1708.52,742.082 1710.44,742.059 1712.37,742.035 1714.29,742.011 1716.21,741.987 1718.13,741.963 1720.06,741.938 1721.98,741.913 1723.9,741.888 1725.83,741.863 1727.75,741.838 1729.67,741.812 1731.6,741.786 1733.52,741.76 1735.44,741.734 1737.37,741.708 1739.29,741.681 1741.21,741.654 1743.14,741.628 1745.06,741.6 1746.98,741.573 1748.9,741.546 1750.83,741.518 1752.75,741.49 1754.67,741.462 1756.6,741.434 1758.52,741.405 1760.44,741.377 1762.37,741.348 1764.29,741.318 1766.21,741.289 1768.14,741.259 1770.06,741.229 1771.98,741.199 1773.9,741.168 1775.83,741.137 1777.75,741.106 1779.67,741.074 1781.6,741.043 1783.52,741.01 1785.44,740.978 1787.37,740.945 1789.29,740.912 1791.21,740.878 1793.14,740.845 1795.06,740.811 1796.98,740.776 1798.9,740.741 1800.83,740.706 1802.75,740.671 1804.67,740.635 1806.6,740.599 1808.52,740.562 1810.44,740.525 1812.37,740.488 1814.29,740.45 1816.21,740.412 1818.14,740.373 1820.06,740.334 1821.98,740.294 1823.9,740.254 1825.83,740.214 1827.75,740.173 1829.67,740.132 1831.6,740.09 1833.52,740.047 1835.44,740.005 1837.37,739.961 1839.29,739.917 1841.21,739.873 1843.14,739.828 1845.06,739.782 1846.98,739.736 1848.9,739.689 1850.83,739.642 1852.75,739.594 1854.67,739.545 1856.6,739.496 1858.52,739.446 1860.44,739.395 1862.37,739.343 1864.29,739.291 1866.21,739.238 1868.14,739.184 1870.06,739.129 1871.98,739.073 1873.91,739.017 1875.83,738.959 1877.75,738.901 1879.67,738.841 1881.6,738.779 1883.52,738.715 1885.44,738.65 1887.37,738.584 1889.29,738.516 1891.21,738.447 1893.14,738.377 1895.06,738.305 1896.98,738.233 1898.91,738.159 1900.83,738.084 1902.75,738.008 1904.67,737.931 1906.6,737.853 1908.52,737.774 1910.44,737.693 1912.37,737.611 1914.29,737.528 1916.21,737.443 1918.14,737.357 1920.06,737.269 1921.98,737.179 1923.91,737.087 1925.83,736.994 1927.75,736.897 1929.67,736.799 1931.6,736.698 1933.52,736.593 1935.44,736.486 1937.37,736.376 1939.29,736.261 1941.21,736.144 1943.14,736.021 1945.06,735.895 1946.98,735.764 1948.91,735.628 1950.83,735.486 1952.75,735.339 1954.67,735.186 1956.6,735.027 1958.52,734.861 1960.44,734.687 1962.37,734.506 1964.29,734.318 1966.21,734.121 1968.14,733.915 1970.06,733.699 1971.98,733.474 1973.91,733.238 1975.83,732.988 1977.75,732.722 1979.67,732.443 1981.6,732.148 1983.52,731.837 1985.44,731.508 1987.37,731.159 1989.29,730.786 1991.21,730.386 1993.14,729.954 1995.06,729.486 1996.98,728.975 1998.91,728.417 2000.83,727.803 2002.75,727.127 2004.67,726.381 2006.6,725.517 2008.52,724.527 2010.44,723.436 2012.37,722.24 2014.29,720.902 2016.21,719.357 2018.14,717.507 2020.06,715.225 2021.98,712.354 2023.91,708.703 2025.83,704.022 2027.75,697.753 2029.68,688.937 2031.6,675.403 2033.52,652.536 2035.44,608.67 2037.37,499.088 2039.29,221.722 2041.21,67.5883 2043.14,78.837 2045.06,102.724 2046.98,126.44 2048.91,149.354 2050.83,171.459 2052.75,192.785 2054.68,213.363 2056.6,233.22 2058.52,252.383 2060.44,270.887 2062.37,288.755 2064.29,306.008 2066.21,322.683 2068.14,338.789 2070.06,354.364 2071.98,369.418 2073.91,383.983 2075.83,398.074 2077.75,411.711 2079.68,424.921 2081.6,437.713 2083.52,450.112 2085.44,462.137 2087.37,473.801 2089.29,485.122 2091.21,496.117 2093.14,506.802 2095.06,517.192 2096.98,527.301 2098.91,537.141 2100.83,546.725 2102.75,556.068 2104.68,565.183 2106.6,574.077 2108.52,582.76 2110.44,591.24 2112.37,599.525 2114.29,607.619 2116.21,615.526 2118.14,623.248 2120.06,630.785 2121.98,638.133 2123.91,645.287 2125.83,652.24 2127.75,658.983 2129.68,665.502 2131.6,671.785 2133.52,677.819 2135.44,683.589 2137.37,689.082 2139.29,694.285 2141.21,699.183 2143.14,703.769 2145.06,708.039 2146.98,711.989 2148.91,715.622 2150.83,718.943 2152.75,721.959 2154.68,724.685 2156.6,727.135 2158.52,729.331 2160.45,731.292 2162.37,733.034 2164.29,734.571 2166.21,735.919 2168.14,737.096 2170.06,738.122 2171.98,739.016 2173.91,739.8 2175.83,740.485 2177.75,741.079 2179.68,741.593 2181.6,742.035 2183.52,742.416 2185.45,742.745 2187.37,743.029 2189.29,743.273 2191.21,743.483 2193.14,743.662 2195.06,743.815 2196.98,743.945 2198.91,744.055 2200.83,744.149 2202.75,744.229 2204.68,744.298 2206.6,744.355 2208.52,744.403 2210.45,744.442 2212.37,744.475 2214.29,744.501 2216.21,744.523 2218.14,744.541 2220.06,744.554 2221.98,744.565 2223.91,744.572 2225.83,744.577 2227.75,744.579 2229.68,744.58 2231.6,744.579 2233.52,744.577 2235.45,744.574 2237.37,744.57 2239.29,744.564 2241.21,744.558 2243.14,744.552 2245.06,744.544 2246.98,744.536 2248.91,744.528 2250.83,744.519 2252.75,744.51 2254.68,744.501 2256.6,744.491 2258.52,744.481 2260.45,744.471 2262.37,744.461 2264.29,744.45 2266.21,744.44 2268.14,744.429 2270.06,744.418 2271.98,744.407 2273.91,744.396 2275.83,744.384 2277.75,744.373 2279.68,744.362 2281.6,744.35 2283.52,744.339 2285.45,744.327 2287.37,744.315 2289.29,744.304 2291.21,744.292 2293.14,744.28 2295.06,744.268 2296.98,744.256 2298.91,744.244 2300.83,744.231 2302.75,744.219 2304.68,744.207 2306.6,744.195 2308.52,744.182 2310.45,744.17 2312.37,744.157 2314.29,744.145 2316.22,744.132 2318.14,744.12 2320.06,744.107 2321.98,744.095 2323.91,744.082 2325.83,744.069 2327.75,744.056 2329.68,744.043 2331.6,744.03 2333.52,744.017 2335.45,744.004 2337.37,743.99 2339.29,743.977 2341.22,743.964 2343.14,743.95 2345.06,743.937 2346.98,743.924 2348.91,743.91 2350.83,743.897 2352.75,743.883 2354.68,743.87 2356.6,743.856 2358.52,743.842 2360.45,743.829 2362.37,743.815 2364.29,743.801 2366.22,743.787 2368.14,743.773 2370.06,743.758 2371.98,743.744 2373.91,743.73 2375.83,743.715 2377.75,743.701 2379.68,743.686 2381.6,743.671 2383.52,743.657 2385.45,743.642 2387.37,743.627 2389.29,743.613 2391.22,743.598 2393.14,743.583 2395.06,743.568 2396.98,743.554 2398.91,743.538 2400.83,743.523 2402.75,743.508 2404.68,743.493 2406.6,743.477 2408.52,743.462 2410.45,743.446 2412.37,743.43 2414.29,743.415 2416.22,743.399 2418.14,743.383 2420.06,743.366 2421.98,743.35 2423.91,743.334 2425.83,743.318 2427.75,743.301 2429.68,743.285 2431.6,743.269 2433.52,743.252 2435.45,743.236 2437.37,743.219 2439.29,743.203 2441.22,743.186 2443.14,743.169 2445.06,743.152 2446.99,743.135 2448.91,743.118 2450.83,743.101 2452.75,743.084 2454.68,743.066 2456.6,743.049 2458.52,743.031 2460.45,743.013 2462.37,742.995 2464.29,742.977 2466.22,742.958 2468.14,742.94 2470.06,742.921 2471.99,742.903 2473.91,742.884 2475.83,742.866 2477.75,742.847 2479.68,742.828 2481.6,742.809 2483.52,742.791 2485.45,742.772 2487.37,742.753 2489.29,742.734 2491.22,742.714 2493.14,742.695 2495.06,742.675 2496.99,742.656 2498.91,742.636 2500.83,742.616 2502.75,742.596 2504.68,742.576 2506.6,742.555 2508.52,742.535 2510.45,742.514 2512.37,742.493 2514.29,742.472 2516.22,742.451 2518.14,742.429 2520.06,742.408 2521.99,742.386 2523.91,742.364 2525.83,742.342 2527.75,742.32 2529.68,742.298 2531.6,742.276 2533.52,742.254 2535.45,742.232 2537.37,742.209 2539.29,742.187 2541.22,742.164 2543.14,742.141 2545.06,742.118 2546.99,742.095 2548.91,742.071 2550.83,742.048 2552.75,742.024 2554.68,742 2556.6,741.976 2558.52,741.952 2560.45,741.927 2562.37,741.902 2564.29,741.877 2566.22,741.852 2568.14,741.826 2570.06,741.801 2571.99,741.775 2573.91,741.749 2575.83,741.723 2577.75,741.696 2579.68,741.669 2581.6,741.643 2583.52,741.615 2585.45,741.588 2587.37,741.561 2589.29,741.533 2591.22,741.506 2593.14,741.478 2595.06,741.45 2596.99,741.421 2598.91,741.393 2600.83,741.364 2602.76,741.335 2604.68,741.305 2606.6,741.276 2608.52,741.246 2610.45,741.216 2612.37,741.185 2614.29,741.154 2616.22,741.123 2618.14,741.092 2620.06,741.06 2621.99,741.028 2623.91,740.996 2625.83,740.963 2627.76,740.93 2629.68,740.897 2631.6,740.863 2633.52,740.83 2635.45,740.795 2637.37,740.761 2639.29,740.726 2641.22,740.69 2643.14,740.655 2645.06,740.619 2646.99,740.582 2648.91,740.546 2650.83,740.508 2652.76,740.471 2654.68,740.433 2656.6,740.394 2658.52,740.356 2660.45,740.316 2662.37,740.277 2664.29,740.236 2666.22,740.196 2668.14,740.155 2670.06,740.113 2671.99,740.071 2673.91,740.028 2675.83,739.985 2677.76,739.942 2679.68,739.897 2681.6,739.853 2683.52,739.807 2685.45,739.762 2687.37,739.715 2689.29,739.668 2691.22,739.62 2693.14,739.572 2695.06,739.523 2696.99,739.473 2698.91,739.423 2700.83,739.372 2702.76,739.32 2704.68,739.267 2706.6,739.214 2708.52,739.159 2710.45,739.104 2712.37,739.048 2714.29,738.991 2716.22,738.933 2718.14,738.874 2720.06,738.814 2721.99,738.753 2723.91,738.691 2725.83,738.628 2727.76,738.564 2729.68,738.499 2731.6,738.432 2733.53,738.365 2735.45,738.295 2737.37,738.225 2739.29,738.153 2741.22,738.08 2743.14,738.005 2745.06,737.929 2746.99,737.851 2748.91,737.772 2750.83,737.691 2752.76,737.608 "/>
<path clip-path="url(#clip340)" d="M2387.53 174.885 L2668.85 174.885 L2668.85 71.2051 L2387.53 71.2051  Z" fill="#ffffff" fill-rule="evenodd" fill-opacity="1"/>
<polyline clip-path="url(#clip340)" style="stroke:#000000; stroke-linecap:round; stroke-linejoin:round; stroke-width:4; stroke-opacity:1; fill:none" points="2387.53,174.885 2668.85,174.885 2668.85,71.2051 2387.53,71.2051 2387.53,174.885 "/>
<polyline clip-path="url(#clip340)" style="stroke:#009af9; stroke-linecap:round; stroke-linejoin:round; stroke-width:8; stroke-opacity:1; fill:none" points="2415.5,123.045 2583.32,123.045 "/>
<path clip-path="url(#clip340)" d="M2612.87 105.765 L2617.89 105.765 L2626.48 118.612 L2635.11 105.765 L2640.13 105.765 L2629.02 122.362 L2640.87 140.325 L2635.85 140.325 L2626.13 125.626 L2616.34 140.325 L2611.29 140.325 L2623.63 121.876 L2612.87 105.765 Z" fill="#000000" fill-rule="nonzero" fill-opacity="1" /><path clip-path="url(#clip340)" d="M235.435 1766.07 L2752.76 1766.07 L2752.76 1047.24 L235.435 1047.24  Z" fill="#ffffff" fill-rule="evenodd" fill-opacity="1"/>
<defs>
  <clipPath id="clip343">
    <rect x="235" y="1047" width="2518" height="720"/>
  </clipPath>
</defs>
<polyline clip-path="url(#clip340)" style="stroke:#000000; stroke-linecap:round; stroke-linejoin:round; stroke-width:4; stroke-opacity:1; fill:none" points="235.435,1766.07 2752.76,1766.07 "/>
<polyline clip-path="url(#clip340)" style="stroke:#000000; stroke-linecap:round; stroke-linejoin:round; stroke-width:4; stroke-opacity:1; fill:none" points="235.435,1047.24 2752.76,1047.24 "/>
<polyline clip-path="url(#clip340)" style="stroke:#000000; stroke-linecap:round; stroke-linejoin:round; stroke-width:4; stroke-opacity:1; fill:none" points="235.435,1766.07 235.435,1747.18 "/>
<polyline clip-path="url(#clip340)" style="stroke:#000000; stroke-linecap:round; stroke-linejoin:round; stroke-width:4; stroke-opacity:1; fill:none" points="738.899,1766.07 738.899,1747.18 "/>
<polyline clip-path="url(#clip340)" style="stroke:#000000; stroke-linecap:round; stroke-linejoin:round; stroke-width:4; stroke-opacity:1; fill:none" points="1242.36,1766.07 1242.36,1747.18 "/>
<polyline clip-path="url(#clip340)" style="stroke:#000000; stroke-linecap:round; stroke-linejoin:round; stroke-width:4; stroke-opacity:1; fill:none" points="1745.83,1766.07 1745.83,1747.18 "/>
<polyline clip-path="url(#clip340)" style="stroke:#000000; stroke-linecap:round; stroke-linejoin:round; stroke-width:4; stroke-opacity:1; fill:none" points="2249.29,1766.07 2249.29,1747.18 "/>
<polyline clip-path="url(#clip340)" style="stroke:#000000; stroke-linecap:round; stroke-linejoin:round; stroke-width:4; stroke-opacity:1; fill:none" points="2752.76,1766.07 2752.76,1747.18 "/>
<polyline clip-path="url(#clip340)" style="stroke:#000000; stroke-linecap:round; stroke-linejoin:round; stroke-width:4; stroke-opacity:1; fill:none" points="235.435,1047.24 235.435,1066.14 "/>
<polyline clip-path="url(#clip340)" style="stroke:#000000; stroke-linecap:round; stroke-linejoin:round; stroke-width:4; stroke-opacity:1; fill:none" points="738.899,1047.24 738.899,1066.14 "/>
<polyline clip-path="url(#clip340)" style="stroke:#000000; stroke-linecap:round; stroke-linejoin:round; stroke-width:4; stroke-opacity:1; fill:none" points="1242.36,1047.24 1242.36,1066.14 "/>
<polyline clip-path="url(#clip340)" style="stroke:#000000; stroke-linecap:round; stroke-linejoin:round; stroke-width:4; stroke-opacity:1; fill:none" points="1745.83,1047.24 1745.83,1066.14 "/>
<polyline clip-path="url(#clip340)" style="stroke:#000000; stroke-linecap:round; stroke-linejoin:round; stroke-width:4; stroke-opacity:1; fill:none" points="2249.29,1047.24 2249.29,1066.14 "/>
<polyline clip-path="url(#clip340)" style="stroke:#000000; stroke-linecap:round; stroke-linejoin:round; stroke-width:4; stroke-opacity:1; fill:none" points="2752.76,1047.24 2752.76,1066.14 "/>
<path clip-path="url(#clip340)" d="M235.435 1800.19 Q231.824 1800.19 229.995 1803.76 Q228.189 1807.3 228.189 1814.43 Q228.189 1821.53 229.995 1825.1 Q231.824 1828.64 235.435 1828.64 Q239.069 1828.64 240.875 1825.1 Q242.703 1821.53 242.703 1814.43 Q242.703 1807.3 240.875 1803.76 Q239.069 1800.19 235.435 1800.19 M235.435 1796.49 Q241.245 1796.49 244.3 1801.09 Q247.379 1805.68 247.379 1814.43 Q247.379 1823.15 244.3 1827.76 Q241.245 1832.34 235.435 1832.34 Q229.625 1832.34 226.546 1827.76 Q223.49 1823.15 223.49 1814.43 Q223.49 1805.68 226.546 1801.09 Q229.625 1796.49 235.435 1796.49 Z" fill="#000000" fill-rule="nonzero" fill-opacity="1" /><path clip-path="url(#clip340)" d="M713.587 1827.74 L721.225 1827.74 L721.225 1801.37 L712.915 1803.04 L712.915 1798.78 L721.179 1797.11 L725.855 1797.11 L725.855 1827.74 L733.494 1827.74 L733.494 1831.67 L713.587 1831.67 L713.587 1827.74 Z" fill="#000000" fill-rule="nonzero" fill-opacity="1" /><path clip-path="url(#clip340)" d="M752.938 1800.19 Q749.327 1800.19 747.498 1803.76 Q745.693 1807.3 745.693 1814.43 Q745.693 1821.53 747.498 1825.1 Q749.327 1828.64 752.938 1828.64 Q756.573 1828.64 758.378 1825.1 Q760.207 1821.53 760.207 1814.43 Q760.207 1807.3 758.378 1803.76 Q756.573 1800.19 752.938 1800.19 M752.938 1796.49 Q758.748 1796.49 761.804 1801.09 Q764.883 1805.68 764.883 1814.43 Q764.883 1823.15 761.804 1827.76 Q758.748 1832.34 752.938 1832.34 Q747.128 1832.34 744.049 1827.76 Q740.994 1823.15 740.994 1814.43 Q740.994 1805.68 744.049 1801.09 Q747.128 1796.49 752.938 1796.49 Z" fill="#000000" fill-rule="nonzero" fill-opacity="1" /><path clip-path="url(#clip340)" d="M1221.14 1827.74 L1237.46 1827.74 L1237.46 1831.67 L1215.51 1831.67 L1215.51 1827.74 Q1218.17 1824.98 1222.76 1820.35 Q1227.36 1815.7 1228.54 1814.36 Q1230.79 1811.84 1231.67 1810.1 Q1232.57 1808.34 1232.57 1806.65 Q1232.57 1803.9 1230.63 1802.16 Q1228.71 1800.42 1225.6 1800.42 Q1223.4 1800.42 1220.95 1801.19 Q1218.52 1801.95 1215.74 1803.5 L1215.74 1798.78 Q1218.57 1797.65 1221.02 1797.07 Q1223.47 1796.49 1225.51 1796.49 Q1230.88 1796.49 1234.08 1799.17 Q1237.27 1801.86 1237.27 1806.35 Q1237.27 1808.48 1236.46 1810.4 Q1235.67 1812.3 1233.57 1814.89 Q1232.99 1815.56 1229.89 1818.78 Q1226.78 1821.97 1221.14 1827.74 Z" fill="#000000" fill-rule="nonzero" fill-opacity="1" /><path clip-path="url(#clip340)" d="M1257.27 1800.19 Q1253.66 1800.19 1251.83 1803.76 Q1250.03 1807.3 1250.03 1814.43 Q1250.03 1821.53 1251.83 1825.1 Q1253.66 1828.64 1257.27 1828.64 Q1260.9 1828.64 1262.71 1825.1 Q1264.54 1821.53 1264.54 1814.43 Q1264.54 1807.3 1262.71 1803.76 Q1260.9 1800.19 1257.27 1800.19 M1257.27 1796.49 Q1263.08 1796.49 1266.14 1801.09 Q1269.21 1805.68 1269.21 1814.43 Q1269.21 1823.15 1266.14 1827.76 Q1263.08 1832.34 1257.27 1832.34 Q1251.46 1832.34 1248.38 1827.76 Q1245.33 1823.15 1245.33 1814.43 Q1245.33 1805.68 1248.38 1801.09 Q1251.46 1796.49 1257.27 1796.49 Z" fill="#000000" fill-rule="nonzero" fill-opacity="1" /><path clip-path="url(#clip340)" d="M1734.67 1813.04 Q1738.03 1813.76 1739.9 1816.02 Q1741.8 1818.29 1741.8 1821.63 Q1741.8 1826.74 1738.28 1829.54 Q1734.76 1832.34 1728.28 1832.34 Q1726.11 1832.34 1723.79 1831.9 Q1721.5 1831.49 1719.05 1830.63 L1719.05 1826.12 Q1720.99 1827.25 1723.3 1827.83 Q1725.62 1828.41 1728.14 1828.41 Q1732.54 1828.41 1734.83 1826.67 Q1737.15 1824.94 1737.15 1821.63 Q1737.15 1818.57 1734.99 1816.86 Q1732.86 1815.12 1729.05 1815.12 L1725.02 1815.12 L1725.02 1811.28 L1729.23 1811.28 Q1732.68 1811.28 1734.51 1809.91 Q1736.34 1808.52 1736.34 1805.93 Q1736.34 1803.27 1734.44 1801.86 Q1732.56 1800.42 1729.05 1800.42 Q1727.12 1800.42 1724.92 1800.84 Q1722.73 1801.26 1720.09 1802.14 L1720.09 1797.97 Q1722.75 1797.23 1725.06 1796.86 Q1727.4 1796.49 1729.46 1796.49 Q1734.79 1796.49 1737.89 1798.92 Q1740.99 1801.33 1740.99 1805.45 Q1740.99 1808.32 1739.35 1810.31 Q1737.7 1812.27 1734.67 1813.04 Z" fill="#000000" fill-rule="nonzero" fill-opacity="1" /><path clip-path="url(#clip340)" d="M1760.67 1800.19 Q1757.05 1800.19 1755.23 1803.76 Q1753.42 1807.3 1753.42 1814.43 Q1753.42 1821.53 1755.23 1825.1 Q1757.05 1828.64 1760.67 1828.64 Q1764.3 1828.64 1766.11 1825.1 Q1767.93 1821.53 1767.93 1814.43 Q1767.93 1807.3 1766.11 1803.76 Q1764.3 1800.19 1760.67 1800.19 M1760.67 1796.49 Q1766.48 1796.49 1769.53 1801.09 Q1772.61 1805.68 1772.61 1814.43 Q1772.61 1823.15 1769.53 1827.76 Q1766.48 1832.34 1760.67 1832.34 Q1754.86 1832.34 1751.78 1827.76 Q1748.72 1823.15 1748.72 1814.43 Q1748.72 1805.68 1751.78 1801.09 Q1754.86 1796.49 1760.67 1796.49 Z" fill="#000000" fill-rule="nonzero" fill-opacity="1" /><path clip-path="url(#clip340)" d="M2237.46 1801.19 L2225.66 1819.64 L2237.46 1819.64 L2237.46 1801.19 M2236.24 1797.11 L2242.12 1797.11 L2242.12 1819.64 L2247.05 1819.64 L2247.05 1823.52 L2242.12 1823.52 L2242.12 1831.67 L2237.46 1831.67 L2237.46 1823.52 L2221.86 1823.52 L2221.86 1819.01 L2236.24 1797.11 Z" fill="#000000" fill-rule="nonzero" fill-opacity="1" /><path clip-path="url(#clip340)" d="M2264.78 1800.19 Q2261.17 1800.19 2259.34 1803.76 Q2257.53 1807.3 2257.53 1814.43 Q2257.53 1821.53 2259.34 1825.1 Q2261.17 1828.64 2264.78 1828.64 Q2268.41 1828.64 2270.22 1825.1 Q2272.05 1821.53 2272.05 1814.43 Q2272.05 1807.3 2270.22 1803.76 Q2268.41 1800.19 2264.78 1800.19 M2264.78 1796.49 Q2270.59 1796.49 2273.64 1801.09 Q2276.72 1805.68 2276.72 1814.43 Q2276.72 1823.15 2273.64 1827.76 Q2270.59 1832.34 2264.78 1832.34 Q2258.97 1832.34 2255.89 1827.76 Q2252.83 1823.15 2252.83 1814.43 Q2252.83 1805.68 2255.89 1801.09 Q2258.97 1796.49 2264.78 1796.49 Z" fill="#000000" fill-rule="nonzero" fill-opacity="1" /><path clip-path="url(#clip340)" d="M2727.46 1797.11 L2745.81 1797.11 L2745.81 1801.05 L2731.74 1801.05 L2731.74 1809.52 Q2732.76 1809.17 2733.77 1809.01 Q2734.79 1808.83 2735.81 1808.83 Q2741.6 1808.83 2744.98 1812 Q2748.36 1815.17 2748.36 1820.58 Q2748.36 1826.16 2744.89 1829.27 Q2741.41 1832.34 2735.09 1832.34 Q2732.92 1832.34 2730.65 1831.97 Q2728.4 1831.6 2726 1830.86 L2726 1826.16 Q2728.08 1827.3 2730.3 1827.85 Q2732.52 1828.41 2735 1828.41 Q2739.01 1828.41 2741.34 1826.3 Q2743.68 1824.2 2743.68 1820.58 Q2743.68 1816.97 2741.34 1814.87 Q2739.01 1812.76 2735 1812.76 Q2733.13 1812.76 2731.25 1813.18 Q2729.4 1813.59 2727.46 1814.47 L2727.46 1797.11 Z" fill="#000000" fill-rule="nonzero" fill-opacity="1" /><path clip-path="url(#clip340)" d="M2767.57 1800.19 Q2763.96 1800.19 2762.13 1803.76 Q2760.33 1807.3 2760.33 1814.43 Q2760.33 1821.53 2762.13 1825.1 Q2763.96 1828.64 2767.57 1828.64 Q2771.2 1828.64 2773.01 1825.1 Q2774.84 1821.53 2774.84 1814.43 Q2774.84 1807.3 2773.01 1803.76 Q2771.2 1800.19 2767.57 1800.19 M2767.57 1796.49 Q2773.38 1796.49 2776.44 1801.09 Q2779.52 1805.68 2779.52 1814.43 Q2779.52 1823.15 2776.44 1827.76 Q2773.38 1832.34 2767.57 1832.34 Q2761.76 1832.34 2758.68 1827.76 Q2755.63 1823.15 2755.63 1814.43 Q2755.63 1805.68 2758.68 1801.09 Q2761.76 1796.49 2767.57 1796.49 Z" fill="#000000" fill-rule="nonzero" fill-opacity="1" /><path clip-path="url(#clip340)" d="M1493.16 1871.17 L1493.16 1881.29 L1505.22 1881.29 L1505.22 1885.84 L1493.16 1885.84 L1493.16 1905.19 Q1493.16 1909.55 1494.33 1910.79 Q1495.54 1912.04 1499.2 1912.04 L1505.22 1912.04 L1505.22 1916.94 L1499.2 1916.94 Q1492.42 1916.94 1489.85 1914.42 Q1487.27 1911.88 1487.27 1905.19 L1487.27 1885.84 L1482.97 1885.84 L1482.97 1881.29 L1487.27 1881.29 L1487.27 1871.17 L1493.16 1871.17 Z" fill="#000000" fill-rule="nonzero" fill-opacity="1" /><polyline clip-path="url(#clip340)" style="stroke:#000000; stroke-linecap:round; stroke-linejoin:round; stroke-width:4; stroke-opacity:1; fill:none" points="235.435,1766.07 235.435,1047.24 "/>
<polyline clip-path="url(#clip340)" style="stroke:#000000; stroke-linecap:round; stroke-linejoin:round; stroke-width:4; stroke-opacity:1; fill:none" points="2752.76,1766.07 2752.76,1047.24 "/>
<polyline clip-path="url(#clip340)" style="stroke:#000000; stroke-linecap:round; stroke-linejoin:round; stroke-width:4; stroke-opacity:1; fill:none" points="235.435,1745.73 254.332,1745.73 "/>
<polyline clip-path="url(#clip340)" style="stroke:#000000; stroke-linecap:round; stroke-linejoin:round; stroke-width:4; stroke-opacity:1; fill:none" points="235.435,1622.9 254.332,1622.9 "/>
<polyline clip-path="url(#clip340)" style="stroke:#000000; stroke-linecap:round; stroke-linejoin:round; stroke-width:4; stroke-opacity:1; fill:none" points="235.435,1500.08 254.332,1500.08 "/>
<polyline clip-path="url(#clip340)" style="stroke:#000000; stroke-linecap:round; stroke-linejoin:round; stroke-width:4; stroke-opacity:1; fill:none" points="235.435,1377.26 254.332,1377.26 "/>
<polyline clip-path="url(#clip340)" style="stroke:#000000; stroke-linecap:round; stroke-linejoin:round; stroke-width:4; stroke-opacity:1; fill:none" points="235.435,1254.43 254.332,1254.43 "/>
<polyline clip-path="url(#clip340)" style="stroke:#000000; stroke-linecap:round; stroke-linejoin:round; stroke-width:4; stroke-opacity:1; fill:none" points="235.435,1131.61 254.332,1131.61 "/>
<polyline clip-path="url(#clip340)" style="stroke:#000000; stroke-linecap:round; stroke-linejoin:round; stroke-width:4; stroke-opacity:1; fill:none" points="2752.76,1745.73 2733.86,1745.73 "/>
<polyline clip-path="url(#clip340)" style="stroke:#000000; stroke-linecap:round; stroke-linejoin:round; stroke-width:4; stroke-opacity:1; fill:none" points="2752.76,1622.9 2733.86,1622.9 "/>
<polyline clip-path="url(#clip340)" style="stroke:#000000; stroke-linecap:round; stroke-linejoin:round; stroke-width:4; stroke-opacity:1; fill:none" points="2752.76,1500.08 2733.86,1500.08 "/>
<polyline clip-path="url(#clip340)" style="stroke:#000000; stroke-linecap:round; stroke-linejoin:round; stroke-width:4; stroke-opacity:1; fill:none" points="2752.76,1377.26 2733.86,1377.26 "/>
<polyline clip-path="url(#clip340)" style="stroke:#000000; stroke-linecap:round; stroke-linejoin:round; stroke-width:4; stroke-opacity:1; fill:none" points="2752.76,1254.43 2733.86,1254.43 "/>
<polyline clip-path="url(#clip340)" style="stroke:#000000; stroke-linecap:round; stroke-linejoin:round; stroke-width:4; stroke-opacity:1; fill:none" points="2752.76,1131.61 2733.86,1131.61 "/>
<path clip-path="url(#clip340)" d="M136.259 1731.53 Q132.648 1731.53 130.819 1735.09 Q129.014 1738.63 129.014 1745.76 Q129.014 1752.87 130.819 1756.43 Q132.648 1759.98 136.259 1759.98 Q139.893 1759.98 141.699 1756.43 Q143.528 1752.87 143.528 1745.76 Q143.528 1738.63 141.699 1735.09 Q139.893 1731.53 136.259 1731.53 M136.259 1727.82 Q142.069 1727.82 145.125 1732.43 Q148.204 1737.01 148.204 1745.76 Q148.204 1754.49 145.125 1759.1 Q142.069 1763.68 136.259 1763.68 Q130.449 1763.68 127.37 1759.1 Q124.315 1754.49 124.315 1745.76 Q124.315 1737.01 127.37 1732.43 Q130.449 1727.82 136.259 1727.82 Z" fill="#000000" fill-rule="nonzero" fill-opacity="1" /><path clip-path="url(#clip340)" d="M156.421 1757.13 L161.305 1757.13 L161.305 1763.01 L156.421 1763.01 L156.421 1757.13 Z" fill="#000000" fill-rule="nonzero" fill-opacity="1" /><path clip-path="url(#clip340)" d="M181.49 1731.53 Q177.879 1731.53 176.051 1735.09 Q174.245 1738.63 174.245 1745.76 Q174.245 1752.87 176.051 1756.43 Q177.879 1759.98 181.49 1759.98 Q185.125 1759.98 186.93 1756.43 Q188.759 1752.87 188.759 1745.76 Q188.759 1738.63 186.93 1735.09 Q185.125 1731.53 181.49 1731.53 M181.49 1727.82 Q187.301 1727.82 190.356 1732.43 Q193.435 1737.01 193.435 1745.76 Q193.435 1754.49 190.356 1759.1 Q187.301 1763.68 181.49 1763.68 Q175.68 1763.68 172.602 1759.1 Q169.546 1754.49 169.546 1745.76 Q169.546 1737.01 172.602 1732.43 Q175.68 1727.82 181.49 1727.82 Z" fill="#000000" fill-rule="nonzero" fill-opacity="1" /><path clip-path="url(#clip340)" d="M131.282 1636.25 L147.602 1636.25 L147.602 1640.18 L125.657 1640.18 L125.657 1636.25 Q128.319 1633.49 132.903 1628.87 Q137.509 1624.21 138.69 1622.87 Q140.935 1620.35 141.815 1618.61 Q142.717 1616.85 142.717 1615.16 Q142.717 1612.41 140.773 1610.67 Q138.852 1608.93 135.75 1608.93 Q133.551 1608.93 131.097 1609.7 Q128.667 1610.46 125.889 1612.01 L125.889 1607.29 Q128.713 1606.16 131.167 1605.58 Q133.62 1605 135.657 1605 Q141.028 1605 144.222 1607.68 Q147.417 1610.37 147.417 1614.86 Q147.417 1616.99 146.606 1618.91 Q145.819 1620.81 143.713 1623.4 Q143.134 1624.07 140.032 1627.29 Q136.93 1630.49 131.282 1636.25 Z" fill="#000000" fill-rule="nonzero" fill-opacity="1" /><path clip-path="url(#clip340)" d="M157.416 1634.31 L162.301 1634.31 L162.301 1640.18 L157.416 1640.18 L157.416 1634.31 Z" fill="#000000" fill-rule="nonzero" fill-opacity="1" /><path clip-path="url(#clip340)" d="M172.532 1605.62 L190.888 1605.62 L190.888 1609.56 L176.814 1609.56 L176.814 1618.03 Q177.833 1617.68 178.852 1617.52 Q179.87 1617.34 180.889 1617.34 Q186.676 1617.34 190.055 1620.51 Q193.435 1623.68 193.435 1629.1 Q193.435 1634.68 189.963 1637.78 Q186.49 1640.86 180.171 1640.86 Q177.995 1640.86 175.727 1640.49 Q173.481 1640.12 171.074 1639.37 L171.074 1634.68 Q173.157 1635.81 175.379 1636.37 Q177.602 1636.92 180.078 1636.92 Q184.083 1636.92 186.421 1634.81 Q188.759 1632.71 188.759 1629.1 Q188.759 1625.49 186.421 1623.38 Q184.083 1621.27 180.078 1621.27 Q178.203 1621.27 176.328 1621.69 Q174.477 1622.11 172.532 1622.99 L172.532 1605.62 Z" fill="#000000" fill-rule="nonzero" fill-opacity="1" /><path clip-path="url(#clip340)" d="M126.306 1482.8 L144.662 1482.8 L144.662 1486.74 L130.588 1486.74 L130.588 1495.21 Q131.606 1494.86 132.625 1494.7 Q133.643 1494.51 134.662 1494.51 Q140.449 1494.51 143.829 1497.68 Q147.208 1500.86 147.208 1506.27 Q147.208 1511.85 143.736 1514.95 Q140.264 1518.03 133.944 1518.03 Q131.768 1518.03 129.5 1517.66 Q127.255 1517.29 124.847 1516.55 L124.847 1511.85 Q126.931 1512.99 129.153 1513.54 Q131.375 1514.1 133.852 1514.1 Q137.856 1514.1 140.194 1511.99 Q142.532 1509.88 142.532 1506.27 Q142.532 1502.66 140.194 1500.56 Q137.856 1498.45 133.852 1498.45 Q131.977 1498.45 130.102 1498.87 Q128.25 1499.28 126.306 1500.16 L126.306 1482.8 Z" fill="#000000" fill-rule="nonzero" fill-opacity="1" /><path clip-path="url(#clip340)" d="M156.421 1511.48 L161.305 1511.48 L161.305 1517.36 L156.421 1517.36 L156.421 1511.48 Z" fill="#000000" fill-rule="nonzero" fill-opacity="1" /><path clip-path="url(#clip340)" d="M181.49 1485.88 Q177.879 1485.88 176.051 1489.44 Q174.245 1492.99 174.245 1500.12 Q174.245 1507.22 176.051 1510.79 Q177.879 1514.33 181.49 1514.33 Q185.125 1514.33 186.93 1510.79 Q188.759 1507.22 188.759 1500.12 Q188.759 1492.99 186.93 1489.44 Q185.125 1485.88 181.49 1485.88 M181.49 1482.18 Q187.301 1482.18 190.356 1486.78 Q193.435 1491.37 193.435 1500.12 Q193.435 1508.84 190.356 1513.45 Q187.301 1518.03 181.49 1518.03 Q175.68 1518.03 172.602 1513.45 Q169.546 1508.84 169.546 1500.12 Q169.546 1491.37 172.602 1486.78 Q175.68 1482.18 181.49 1482.18 Z" fill="#000000" fill-rule="nonzero" fill-opacity="1" /><path clip-path="url(#clip340)" d="M126.074 1359.98 L148.296 1359.98 L148.296 1361.97 L135.75 1394.54 L130.866 1394.54 L142.671 1363.91 L126.074 1363.91 L126.074 1359.98 Z" fill="#000000" fill-rule="nonzero" fill-opacity="1" /><path clip-path="url(#clip340)" d="M157.416 1388.66 L162.301 1388.66 L162.301 1394.54 L157.416 1394.54 L157.416 1388.66 Z" fill="#000000" fill-rule="nonzero" fill-opacity="1" /><path clip-path="url(#clip340)" d="M172.532 1359.98 L190.888 1359.98 L190.888 1363.91 L176.814 1363.91 L176.814 1372.38 Q177.833 1372.04 178.852 1371.87 Q179.87 1371.69 180.889 1371.69 Q186.676 1371.69 190.055 1374.86 Q193.435 1378.03 193.435 1383.45 Q193.435 1389.03 189.963 1392.13 Q186.49 1395.21 180.171 1395.21 Q177.995 1395.21 175.727 1394.84 Q173.481 1394.47 171.074 1393.73 L171.074 1389.03 Q173.157 1390.16 175.379 1390.72 Q177.602 1391.27 180.078 1391.27 Q184.083 1391.27 186.421 1389.17 Q188.759 1387.06 188.759 1383.45 Q188.759 1379.84 186.421 1377.73 Q184.083 1375.62 180.078 1375.62 Q178.203 1375.62 176.328 1376.04 Q174.477 1376.46 172.532 1377.34 L172.532 1359.98 Z" fill="#000000" fill-rule="nonzero" fill-opacity="1" /><path clip-path="url(#clip340)" d="M96.9075 1267.78 L104.546 1267.78 L104.546 1241.41 L96.2362 1243.08 L96.2362 1238.82 L104.5 1237.15 L109.176 1237.15 L109.176 1267.78 L116.815 1267.78 L116.815 1271.71 L96.9075 1271.71 L96.9075 1267.78 Z" fill="#000000" fill-rule="nonzero" fill-opacity="1" /><path clip-path="url(#clip340)" d="M136.259 1240.23 Q132.648 1240.23 130.819 1243.8 Q129.014 1247.34 129.014 1254.47 Q129.014 1261.57 130.819 1265.14 Q132.648 1268.68 136.259 1268.68 Q139.893 1268.68 141.699 1265.14 Q143.528 1261.57 143.528 1254.47 Q143.528 1247.34 141.699 1243.8 Q139.893 1240.23 136.259 1240.23 M136.259 1236.53 Q142.069 1236.53 145.125 1241.13 Q148.204 1245.72 148.204 1254.47 Q148.204 1263.19 145.125 1267.8 Q142.069 1272.38 136.259 1272.38 Q130.449 1272.38 127.37 1267.8 Q124.315 1263.19 124.315 1254.47 Q124.315 1245.72 127.37 1241.13 Q130.449 1236.53 136.259 1236.53 Z" fill="#000000" fill-rule="nonzero" fill-opacity="1" /><path clip-path="url(#clip340)" d="M156.421 1265.83 L161.305 1265.83 L161.305 1271.71 L156.421 1271.71 L156.421 1265.83 Z" fill="#000000" fill-rule="nonzero" fill-opacity="1" /><path clip-path="url(#clip340)" d="M181.49 1240.23 Q177.879 1240.23 176.051 1243.8 Q174.245 1247.34 174.245 1254.47 Q174.245 1261.57 176.051 1265.14 Q177.879 1268.68 181.49 1268.68 Q185.125 1268.68 186.93 1265.14 Q188.759 1261.57 188.759 1254.47 Q188.759 1247.34 186.93 1243.8 Q185.125 1240.23 181.49 1240.23 M181.49 1236.53 Q187.301 1236.53 190.356 1241.13 Q193.435 1245.72 193.435 1254.47 Q193.435 1263.19 190.356 1267.8 Q187.301 1272.38 181.49 1272.38 Q175.68 1272.38 172.602 1267.8 Q169.546 1263.19 169.546 1254.47 Q169.546 1245.72 172.602 1241.13 Q175.68 1236.53 181.49 1236.53 Z" fill="#000000" fill-rule="nonzero" fill-opacity="1" /><path clip-path="url(#clip340)" d="M97.9029 1144.95 L105.542 1144.95 L105.542 1118.59 L97.2316 1120.25 L97.2316 1116 L105.495 1114.33 L110.171 1114.33 L110.171 1144.95 L117.81 1144.95 L117.81 1148.89 L97.9029 1148.89 L97.9029 1144.95 Z" fill="#000000" fill-rule="nonzero" fill-opacity="1" /><path clip-path="url(#clip340)" d="M131.282 1144.95 L147.602 1144.95 L147.602 1148.89 L125.657 1148.89 L125.657 1144.95 Q128.319 1142.2 132.903 1137.57 Q137.509 1132.92 138.69 1131.57 Q140.935 1129.05 141.815 1127.31 Q142.717 1125.56 142.717 1123.87 Q142.717 1121.11 140.773 1119.38 Q138.852 1117.64 135.75 1117.64 Q133.551 1117.64 131.097 1118.4 Q128.667 1119.17 125.889 1120.72 L125.889 1116 Q128.713 1114.86 131.167 1114.28 Q133.62 1113.7 135.657 1113.7 Q141.028 1113.7 144.222 1116.39 Q147.417 1119.07 147.417 1123.56 Q147.417 1125.69 146.606 1127.62 Q145.819 1129.51 143.713 1132.11 Q143.134 1132.78 140.032 1136 Q136.93 1139.19 131.282 1144.95 Z" fill="#000000" fill-rule="nonzero" fill-opacity="1" /><path clip-path="url(#clip340)" d="M157.416 1143.01 L162.301 1143.01 L162.301 1148.89 L157.416 1148.89 L157.416 1143.01 Z" fill="#000000" fill-rule="nonzero" fill-opacity="1" /><path clip-path="url(#clip340)" d="M172.532 1114.33 L190.888 1114.33 L190.888 1118.26 L176.814 1118.26 L176.814 1126.74 Q177.833 1126.39 178.852 1126.23 Q179.87 1126.04 180.889 1126.04 Q186.676 1126.04 190.055 1129.21 Q193.435 1132.38 193.435 1137.8 Q193.435 1143.38 189.963 1146.48 Q186.49 1149.56 180.171 1149.56 Q177.995 1149.56 175.727 1149.19 Q173.481 1148.82 171.074 1148.08 L171.074 1143.38 Q173.157 1144.51 175.379 1145.07 Q177.602 1145.62 180.078 1145.62 Q184.083 1145.62 186.421 1143.52 Q188.759 1141.41 188.759 1137.8 Q188.759 1134.19 186.421 1132.08 Q184.083 1129.98 180.078 1129.98 Q178.203 1129.98 176.328 1130.39 Q174.477 1130.81 172.532 1131.69 L172.532 1114.33 Z" fill="#000000" fill-rule="nonzero" fill-opacity="1" /><polyline clip-path="url(#clip343)" style="stroke:#009af9; stroke-linecap:round; stroke-linejoin:round; stroke-width:8; stroke-opacity:1; fill:none" points="235.435,1745.73 237.358,1738.81 239.281,1732.9 241.204,1727.78 243.127,1723.3 245.05,1719.33 246.973,1715.79 248.896,1712.59 250.819,1709.69 252.743,1707.02 254.666,1704.55 256.589,1702.25 258.512,1700.08 260.435,1698.03 262.358,1696.07 264.281,1694.19 266.204,1692.38 268.127,1690.62 270.05,1688.91 271.973,1687.24 273.897,1685.59 275.82,1683.98 277.743,1682.38 279.666,1680.81 281.589,1679.25 283.512,1677.7 285.435,1676.16 287.358,1674.63 289.281,1673.11 291.204,1671.6 293.127,1670.09 295.05,1668.58 296.974,1667.08 298.897,1665.58 300.82,1664.09 302.743,1662.6 304.666,1661.11 306.589,1659.62 308.512,1658.13 310.435,1656.64 312.358,1655.16 314.281,1653.67 316.204,1652.19 318.128,1650.71 320.051,1649.22 321.974,1647.74 323.897,1646.26 325.82,1644.78 327.743,1643.3 329.666,1641.82 331.589,1640.34 333.512,1638.86 335.435,1637.39 337.358,1635.91 339.281,1634.43 341.205,1632.95 343.128,1631.48 345.051,1630 346.974,1628.52 348.897,1627.05 350.82,1625.57 352.743,1624.1 354.666,1622.62 356.589,1621.15 358.512,1619.67 360.435,1618.2 362.359,1616.73 364.282,1615.25 366.205,1613.78 368.128,1612.31 370.051,1610.83 371.974,1609.36 373.897,1607.89 375.82,1606.42 377.743,1604.95 379.666,1603.47 381.589,1602 383.512,1600.53 385.436,1599.06 387.359,1597.59 389.282,1596.12 391.205,1594.66 393.128,1593.19 395.051,1591.72 396.974,1590.25 398.897,1588.78 400.82,1587.31 402.743,1585.85 404.666,1584.38 406.59,1582.91 408.513,1581.45 410.436,1579.98 412.359,1578.51 414.282,1577.05 416.205,1575.58 418.128,1574.12 420.051,1572.66 421.974,1571.19 423.897,1569.73 425.82,1568.26 427.743,1566.8 429.667,1565.34 431.59,1563.88 433.513,1562.41 435.436,1560.95 437.359,1559.49 439.282,1558.03 441.205,1556.57 443.128,1555.11 445.051,1553.65 446.974,1552.19 448.897,1550.73 450.821,1549.27 452.744,1547.81 454.667,1546.35 456.59,1544.89 458.513,1543.44 460.436,1541.98 462.359,1540.52 464.282,1539.06 466.205,1537.61 468.128,1536.15 470.051,1534.7 471.974,1533.24 473.898,1531.79 475.821,1530.33 477.744,1528.88 479.667,1527.42 481.59,1525.97 483.513,1524.52 485.436,1523.06 487.359,1521.61 489.282,1520.16 491.205,1518.71 493.128,1517.26 495.052,1515.81 496.975,1514.35 498.898,1512.9 500.821,1511.45 502.744,1510 504.667,1508.56 506.59,1507.11 508.513,1505.66 510.436,1504.21 512.359,1502.76 514.282,1501.31 516.206,1499.87 518.129,1498.42 520.052,1496.97 521.975,1495.53 523.898,1494.08 525.821,1492.64 527.744,1491.19 529.667,1489.75 531.59,1488.31 533.513,1486.86 535.436,1485.42 537.359,1483.98 539.283,1482.54 541.206,1481.09 543.129,1479.65 545.052,1478.21 546.975,1476.77 548.898,1475.33 550.821,1473.89 552.744,1472.45 554.667,1471.01 556.59,1469.57 558.513,1468.13 560.437,1466.69 562.36,1465.26 564.283,1463.82 566.206,1462.38 568.129,1460.95 570.052,1459.51 571.975,1458.08 573.898,1456.64 575.821,1455.21 577.744,1453.77 579.667,1452.34 581.59,1450.91 583.514,1449.48 585.437,1448.04 587.36,1446.61 589.283,1445.18 591.206,1443.75 593.129,1442.32 595.052,1440.89 596.975,1439.46 598.898,1438.03 600.821,1436.6 602.744,1435.17 604.668,1433.74 606.591,1432.31 608.514,1430.89 610.437,1429.46 612.36,1428.03 614.283,1426.61 616.206,1425.18 618.129,1423.76 620.052,1422.34 621.975,1420.91 623.898,1419.49 625.821,1418.07 627.745,1416.64 629.668,1415.22 631.591,1413.8 633.514,1412.38 635.437,1410.96 637.36,1409.54 639.283,1408.12 641.206,1406.7 643.129,1405.28 645.052,1403.86 646.975,1402.44 648.899,1401.03 650.822,1399.61 652.745,1398.19 654.668,1396.78 656.591,1395.36 658.514,1393.95 660.437,1392.54 662.36,1391.12 664.283,1389.71 666.206,1388.3 668.129,1386.88 670.052,1385.47 671.976,1384.06 673.899,1382.65 675.822,1381.24 677.745,1379.83 679.668,1378.43 681.591,1377.02 683.514,1375.61 685.437,1374.2 687.36,1372.79 689.283,1371.39 691.206,1369.98 693.13,1368.58 695.053,1367.17 696.976,1365.77 698.899,1364.36 700.822,1362.96 702.745,1361.56 704.668,1360.16 706.591,1358.76 708.514,1357.36 710.437,1355.96 712.36,1354.56 714.283,1353.16 716.207,1351.76 718.13,1350.36 720.053,1348.97 721.976,1347.57 723.899,1346.17 725.822,1344.78 727.745,1343.38 729.668,1341.99 731.591,1340.6 733.514,1339.2 735.437,1337.81 737.361,1336.42 739.284,1335.03 741.207,1333.64 743.13,1332.25 745.053,1330.86 746.976,1329.47 748.899,1328.08 750.822,1326.69 752.745,1325.31 754.668,1323.92 756.591,1322.54 758.514,1321.15 760.438,1319.77 762.361,1318.38 764.284,1317 766.207,1315.62 768.13,1314.24 770.053,1312.86 771.976,1311.48 773.899,1310.1 775.822,1308.72 777.745,1307.34 779.668,1305.97 781.592,1304.59 783.515,1303.22 785.438,1301.84 787.361,1300.47 789.284,1299.09 791.207,1297.72 793.13,1296.35 795.053,1294.98 796.976,1293.6 798.899,1292.23 800.822,1290.86 802.745,1289.5 804.669,1288.13 806.592,1286.76 808.515,1285.4 810.438,1284.03 812.361,1282.67 814.284,1281.3 816.207,1279.94 818.13,1278.58 820.053,1277.22 821.976,1275.86 823.899,1274.5 825.823,1273.14 827.746,1271.78 829.669,1270.42 831.592,1269.07 833.515,1267.71 835.438,1266.36 837.361,1265 839.284,1263.65 841.207,1262.3 843.13,1260.94 845.053,1259.59 846.977,1258.24 848.9,1256.89 850.823,1255.55 852.746,1254.2 854.669,1252.85 856.592,1251.51 858.515,1250.16 860.438,1248.82 862.361,1247.48 864.284,1246.14 866.207,1244.8 868.13,1243.46 870.054,1242.12 871.977,1240.78 873.9,1239.44 875.823,1238.11 877.746,1236.77 879.669,1235.44 881.592,1234.11 883.515,1232.78 885.438,1231.45 887.361,1230.12 889.284,1228.79 891.208,1227.46 893.131,1226.14 895.054,1224.81 896.977,1223.49 898.9,1222.16 900.823,1220.84 902.746,1219.52 904.669,1218.2 906.592,1216.88 908.515,1215.56 910.438,1214.25 912.361,1212.93 914.285,1211.62 916.208,1210.31 918.131,1208.99 920.054,1207.68 921.977,1206.38 923.9,1205.07 925.823,1203.76 927.746,1202.46 929.669,1201.15 931.592,1199.85 933.515,1198.55 935.439,1197.25 937.362,1195.95 939.285,1194.65 941.208,1193.35 943.131,1192.06 945.054,1190.77 946.977,1189.48 948.9,1188.18 950.823,1186.9 952.746,1185.61 954.669,1184.32 956.592,1183.04 958.516,1181.75 960.439,1180.47 962.362,1179.19 964.285,1177.91 966.208,1176.64 968.131,1175.36 970.054,1174.09 971.977,1172.82 973.9,1171.55 975.823,1170.28 977.746,1169.01 979.67,1167.75 981.593,1166.48 983.516,1165.22 985.439,1163.96 987.362,1162.7 989.285,1161.45 991.208,1160.19 993.131,1158.94 995.054,1157.69 996.977,1156.44 998.9,1155.19 1000.82,1153.95 1002.75,1152.71 1004.67,1151.47 1006.59,1150.23 1008.52,1148.99 1010.44,1147.76 1012.36,1146.53 1014.29,1145.3 1016.21,1144.07 1018.13,1142.85 1020.05,1141.62 1021.98,1140.4 1023.9,1139.19 1025.82,1137.97 1027.75,1136.76 1029.67,1135.55 1031.59,1134.35 1033.52,1133.15 1035.44,1131.95 1037.36,1130.75 1039.29,1129.56 1041.21,1128.38 1043.13,1127.19 1045.05,1126.01 1046.98,1124.84 1048.9,1123.66 1050.82,1122.49 1052.75,1121.32 1054.67,1120.15 1056.59,1118.99 1058.52,1117.83 1060.44,1116.67 1062.36,1115.52 1064.29,1114.37 1066.21,1113.22 1068.13,1112.08 1070.05,1110.94 1071.98,1109.8 1073.9,1108.67 1075.82,1107.54 1077.75,1106.41 1079.67,1105.29 1081.59,1104.17 1083.52,1103.06 1085.44,1101.95 1087.36,1100.85 1089.29,1099.76 1091.21,1098.67 1093.13,1097.58 1095.05,1096.51 1096.98,1095.44 1098.9,1094.37 1100.82,1093.32 1102.75,1092.27 1104.67,1091.23 1106.59,1090.21 1108.52,1089.19 1110.44,1088.18 1112.36,1087.18 1114.29,1086.19 1116.21,1085.22 1118.13,1084.25 1120.05,1083.3 1121.98,1082.36 1123.9,1081.44 1125.82,1080.53 1127.75,1079.64 1129.67,1078.76 1131.59,1077.9 1133.52,1077.06 1135.44,1076.23 1137.36,1075.43 1139.29,1074.64 1141.21,1073.87 1143.13,1073.14 1145.06,1072.43 1146.98,1071.75 1148.9,1071.11 1150.82,1070.49 1152.75,1069.92 1154.67,1069.39 1156.59,1068.92 1158.52,1068.5 1160.44,1068.14 1162.36,1067.87 1164.29,1067.68 1166.21,1067.59 1168.13,1067.61 1170.06,1067.78 1171.98,1068.11 1173.9,1068.62 1175.82,1069.35 1177.75,1070.39 1179.67,1071.81 1181.59,1073.76 1183.52,1076.39 1185.44,1080.07 1187.36,1084.96 1189.29,1091.84 1191.21,1102.45 1193.13,1119.87 1195.06,1150.65 1196.98,1218.88 1198.9,1404.19 1200.82,1667.96 1202.75,1712.71 1204.67,1714.05 1206.59,1713.04 1208.52,1711.85 1210.44,1710.61 1212.36,1709.32 1214.29,1707.99 1216.21,1706.62 1218.13,1705.19 1220.06,1703.71 1221.98,1702.19 1223.9,1700.6 1225.82,1698.96 1227.75,1697.27 1229.67,1695.51 1231.59,1693.69 1233.52,1691.81 1235.44,1689.86 1237.36,1687.84 1239.29,1685.74 1241.21,1683.58 1243.13,1681.33 1245.06,1679.01 1246.98,1676.6 1248.9,1674.1 1250.82,1671.52 1252.75,1668.84 1254.67,1666.07 1256.59,1663.2 1258.52,1660.22 1260.44,1657.15 1262.36,1653.96 1264.29,1650.66 1266.21,1647.26 1268.13,1643.73 1270.06,1640.1 1271.98,1636.35 1273.9,1632.49 1275.82,1628.52 1277.75,1624.44 1279.67,1620.27 1281.59,1616 1283.52,1611.65 1285.44,1607.23 1287.36,1602.76 1289.29,1598.26 1291.21,1593.73 1293.13,1589.21 1295.06,1584.72 1296.98,1580.27 1298.9,1575.89 1300.83,1571.6 1302.75,1567.42 1304.67,1563.38 1306.59,1559.47 1308.52,1555.72 1310.44,1552.12 1312.36,1548.7 1314.29,1545.43 1316.21,1542.33 1318.13,1539.39 1320.06,1536.58 1321.98,1533.92 1323.9,1531.4 1325.83,1529 1327.75,1526.71 1329.67,1524.53 1331.59,1522.45 1333.52,1520.44 1335.44,1518.49 1337.36,1516.61 1339.29,1514.79 1341.21,1513.01 1343.13,1511.28 1345.06,1509.59 1346.98,1507.93 1348.9,1506.3 1350.83,1504.69 1352.75,1503.11 1354.67,1501.54 1356.59,1500 1358.52,1498.46 1360.44,1496.94 1362.36,1495.43 1364.29,1493.93 1366.21,1492.44 1368.13,1490.95 1370.06,1489.47 1371.98,1487.99 1373.9,1486.52 1375.83,1485.06 1377.75,1483.6 1379.67,1482.14 1381.59,1480.68 1383.52,1479.23 1385.44,1477.77 1387.36,1476.32 1389.29,1474.88 1391.21,1473.43 1393.13,1471.98 1395.06,1470.54 1396.98,1469.1 1398.9,1467.65 1400.83,1466.21 1402.75,1464.77 1404.67,1463.33 1406.59,1461.89 1408.52,1460.46 1410.44,1459.02 1412.36,1457.58 1414.29,1456.15 1416.21,1454.71 1418.13,1453.28 1420.06,1451.84 1421.98,1450.41 1423.9,1448.97 1425.83,1447.54 1427.75,1446.11 1429.67,1444.68 1431.6,1443.25 1433.52,1441.82 1435.44,1440.39 1437.36,1438.96 1439.29,1437.53 1441.21,1436.1 1443.13,1434.67 1445.06,1433.24 1446.98,1431.81 1448.9,1430.39 1450.83,1428.96 1452.75,1427.53 1454.67,1426.11 1456.6,1424.68 1458.52,1423.26 1460.44,1421.83 1462.36,1420.41 1464.29,1418.99 1466.21,1417.57 1468.13,1416.14 1470.06,1414.72 1471.98,1413.3 1473.9,1411.88 1475.83,1410.46 1477.75,1409.04 1479.67,1407.62 1481.6,1406.2 1483.52,1404.78 1485.44,1403.36 1487.36,1401.95 1489.29,1400.53 1491.21,1399.11 1493.13,1397.7 1495.06,1396.28 1496.98,1394.87 1498.9,1393.45 1500.83,1392.04 1502.75,1390.63 1504.67,1389.21 1506.6,1387.8 1508.52,1386.39 1510.44,1384.98 1512.36,1383.57 1514.29,1382.16 1516.21,1380.75 1518.13,1379.34 1520.06,1377.93 1521.98,1376.52 1523.9,1375.11 1525.83,1373.71 1527.75,1372.3 1529.67,1370.89 1531.6,1369.49 1533.52,1368.08 1535.44,1366.68 1537.36,1365.28 1539.29,1363.87 1541.21,1362.47 1543.13,1361.07 1545.06,1359.67 1546.98,1358.26 1548.9,1356.86 1550.83,1355.46 1552.75,1354.07 1554.67,1352.67 1556.6,1351.27 1558.52,1349.87 1560.44,1348.47 1562.36,1347.08 1564.29,1345.68 1566.21,1344.29 1568.13,1342.89 1570.06,1341.5 1571.98,1340.11 1573.9,1338.71 1575.83,1337.32 1577.75,1335.93 1579.67,1334.54 1581.6,1333.15 1583.52,1331.76 1585.44,1330.37 1587.37,1328.98 1589.29,1327.59 1591.21,1326.21 1593.13,1324.82 1595.06,1323.44 1596.98,1322.05 1598.9,1320.67 1600.83,1319.28 1602.75,1317.9 1604.67,1316.52 1606.6,1315.13 1608.52,1313.75 1610.44,1312.37 1612.37,1310.99 1614.29,1309.61 1616.21,1308.24 1618.13,1306.86 1620.06,1305.48 1621.98,1304.11 1623.9,1302.73 1625.83,1301.36 1627.75,1299.98 1629.67,1298.61 1631.6,1297.24 1633.52,1295.86 1635.44,1294.49 1637.37,1293.12 1639.29,1291.75 1641.21,1290.38 1643.13,1289.02 1645.06,1287.65 1646.98,1286.28 1648.9,1284.92 1650.83,1283.55 1652.75,1282.19 1654.67,1280.82 1656.6,1279.46 1658.52,1278.1 1660.44,1276.74 1662.37,1275.38 1664.29,1274.02 1666.21,1272.66 1668.13,1271.3 1670.06,1269.94 1671.98,1268.59 1673.9,1267.23 1675.83,1265.88 1677.75,1264.52 1679.67,1263.17 1681.6,1261.82 1683.52,1260.47 1685.44,1259.12 1687.37,1257.77 1689.29,1256.42 1691.21,1255.07 1693.13,1253.73 1695.06,1252.38 1696.98,1251.04 1698.9,1249.69 1700.83,1248.35 1702.75,1247.01 1704.67,1245.67 1706.6,1244.33 1708.52,1242.99 1710.44,1241.65 1712.37,1240.31 1714.29,1238.97 1716.21,1237.64 1718.13,1236.31 1720.06,1234.97 1721.98,1233.64 1723.9,1232.31 1725.83,1230.98 1727.75,1229.65 1729.67,1228.32 1731.6,1226.99 1733.52,1225.67 1735.44,1224.34 1737.37,1223.02 1739.29,1221.7 1741.21,1220.38 1743.14,1219.06 1745.06,1217.74 1746.98,1216.42 1748.9,1215.1 1750.83,1213.79 1752.75,1212.47 1754.67,1211.16 1756.6,1209.84 1758.52,1208.53 1760.44,1207.22 1762.37,1205.92 1764.29,1204.61 1766.21,1203.3 1768.14,1202 1770.06,1200.69 1771.98,1199.39 1773.9,1198.09 1775.83,1196.79 1777.75,1195.49 1779.67,1194.19 1781.6,1192.9 1783.52,1191.61 1785.44,1190.31 1787.37,1189.02 1789.29,1187.73 1791.21,1186.44 1793.14,1185.16 1795.06,1183.87 1796.98,1182.59 1798.9,1181.3 1800.83,1180.02 1802.75,1178.74 1804.67,1177.46 1806.6,1176.19 1808.52,1174.91 1810.44,1173.64 1812.37,1172.37 1814.29,1171.1 1816.21,1169.83 1818.14,1168.57 1820.06,1167.3 1821.98,1166.04 1823.9,1164.78 1825.83,1163.52 1827.75,1162.26 1829.67,1161.01 1831.6,1159.75 1833.52,1158.5 1835.44,1157.25 1837.37,1156 1839.29,1154.76 1841.21,1153.51 1843.14,1152.27 1845.06,1151.03 1846.98,1149.79 1848.9,1148.56 1850.83,1147.33 1852.75,1146.1 1854.67,1144.87 1856.6,1143.64 1858.52,1142.42 1860.44,1141.2 1862.37,1139.98 1864.29,1138.76 1866.21,1137.55 1868.14,1136.34 1870.06,1135.13 1871.98,1133.92 1873.91,1132.72 1875.83,1131.52 1877.75,1130.32 1879.67,1129.13 1881.6,1127.94 1883.52,1126.75 1885.44,1125.57 1887.37,1124.39 1889.29,1123.21 1891.21,1122.04 1893.14,1120.87 1895.06,1119.7 1896.98,1118.54 1898.91,1117.38 1900.83,1116.23 1902.75,1115.08 1904.67,1113.93 1906.6,1112.78 1908.52,1111.64 1910.44,1110.5 1912.37,1109.37 1914.29,1108.24 1916.21,1107.11 1918.14,1105.99 1920.06,1104.88 1921.98,1103.77 1923.91,1102.66 1925.83,1101.56 1927.75,1100.46 1929.67,1099.37 1931.6,1098.29 1933.52,1097.21 1935.44,1096.14 1937.37,1095.08 1939.29,1094.02 1941.21,1092.98 1943.14,1091.94 1945.06,1090.9 1946.98,1089.88 1948.91,1088.87 1950.83,1087.87 1952.75,1086.87 1954.67,1085.89 1956.6,1084.92 1958.52,1083.96 1960.44,1083.02 1962.37,1082.08 1964.29,1081.16 1966.21,1080.26 1968.14,1079.37 1970.06,1078.49 1971.98,1077.63 1973.91,1076.79 1975.83,1075.97 1977.75,1075.17 1979.67,1074.4 1981.6,1073.64 1983.52,1072.92 1985.44,1072.22 1987.37,1071.55 1989.29,1070.91 1991.21,1070.31 1993.14,1069.76 1995.06,1069.25 1996.98,1068.8 1998.91,1068.42 2000.83,1068.1 2002.75,1067.87 2004.67,1067.72 2006.6,1067.7 2008.52,1067.84 2010.44,1068.1 2012.37,1068.49 2014.29,1069.05 2016.21,1069.85 2018.14,1070.99 2020.06,1072.6 2021.98,1074.84 2023.91,1077.9 2025.83,1082.04 2027.75,1087.81 2029.68,1096.15 2031.6,1109.16 2033.52,1131.27 2035.44,1173.58 2037.37,1278.13 2039.29,1541.8 2041.21,1702.35 2043.14,1714.1 2045.06,1713.65 2046.98,1712.51 2048.91,1711.3 2050.83,1710.04 2052.75,1708.74 2054.68,1707.38 2056.6,1705.98 2058.52,1704.54 2060.44,1703.04 2062.37,1701.48 2064.29,1699.88 2066.21,1698.21 2068.14,1696.49 2070.06,1694.7 2071.98,1692.86 2073.91,1690.94 2075.83,1688.96 2077.75,1686.91 2079.68,1684.78 2081.6,1682.58 2083.52,1680.3 2085.44,1677.94 2087.37,1675.5 2089.29,1672.96 2091.21,1670.34 2093.14,1667.62 2095.06,1664.8 2096.98,1661.88 2098.91,1658.86 2100.83,1655.74 2102.75,1652.5 2104.68,1649.16 2106.6,1645.7 2108.52,1642.12 2110.44,1638.44 2112.37,1634.64 2114.29,1630.73 2116.21,1626.71 2118.14,1622.59 2120.06,1618.37 2121.98,1614.07 2123.91,1609.68 2125.83,1605.24 2127.75,1600.75 2129.68,1596.24 2131.6,1591.71 2133.52,1587.2 2135.44,1582.72 2137.37,1578.3 2139.29,1573.96 2141.21,1569.72 2143.14,1565.6 2145.06,1561.61 2146.98,1557.77 2148.91,1554.09 2150.83,1550.57 2152.75,1547.22 2154.68,1544.03 2156.6,1541 2158.52,1538.12 2160.45,1535.39 2162.37,1532.79 2164.29,1530.32 2166.21,1527.97 2168.14,1525.73 2170.06,1523.59 2171.98,1521.54 2173.91,1519.56 2175.83,1517.64 2177.75,1515.79 2179.68,1513.99 2181.6,1512.23 2183.52,1510.52 2185.45,1508.84 2187.37,1507.2 2189.29,1505.58 2191.21,1503.98 2193.14,1502.41 2195.06,1500.85 2196.98,1499.31 2198.91,1497.78 2200.83,1496.27 2202.75,1494.76 2204.68,1493.26 2206.6,1491.77 2208.52,1490.29 2210.45,1488.81 2212.37,1487.34 2214.29,1485.87 2216.21,1484.41 2218.14,1482.94 2220.06,1481.49 2221.98,1480.03 2223.91,1478.58 2225.83,1477.13 2227.75,1475.68 2229.68,1474.23 2231.6,1472.78 2233.52,1471.34 2235.45,1469.89 2237.37,1468.45 2239.29,1467.01 2241.21,1465.57 2243.14,1464.13 2245.06,1462.69 2246.98,1461.25 2248.91,1459.81 2250.83,1458.38 2252.75,1456.94 2254.68,1455.51 2256.6,1454.07 2258.52,1452.64 2260.45,1451.2 2262.37,1449.77 2264.29,1448.33 2266.21,1446.9 2268.14,1445.47 2270.06,1444.04 2271.98,1442.61 2273.91,1441.18 2275.83,1439.75 2277.75,1438.32 2279.68,1436.89 2281.6,1435.46 2283.52,1434.03 2285.45,1432.6 2287.37,1431.18 2289.29,1429.75 2291.21,1428.32 2293.14,1426.9 2295.06,1425.47 2296.98,1424.05 2298.91,1422.62 2300.83,1421.2 2302.75,1419.78 2304.68,1418.35 2306.6,1416.93 2308.52,1415.51 2310.45,1414.09 2312.37,1412.67 2314.29,1411.24 2316.22,1409.82 2318.14,1408.4 2320.06,1406.99 2321.98,1405.57 2323.91,1404.15 2325.83,1402.73 2327.75,1401.31 2329.68,1399.9 2331.6,1398.48 2333.52,1397.07 2335.45,1395.65 2337.37,1394.24 2339.29,1392.82 2341.22,1391.41 2343.14,1389.99 2345.06,1388.58 2346.98,1387.17 2348.91,1385.76 2350.83,1384.35 2352.75,1382.94 2354.68,1381.53 2356.6,1380.12 2358.52,1378.71 2360.45,1377.3 2362.37,1375.89 2364.29,1374.48 2366.22,1373.08 2368.14,1371.67 2370.06,1370.27 2371.98,1368.86 2373.91,1367.46 2375.83,1366.05 2377.75,1364.65 2379.68,1363.25 2381.6,1361.84 2383.52,1360.44 2385.45,1359.04 2387.37,1357.64 2389.29,1356.24 2391.22,1354.84 2393.14,1353.44 2395.06,1352.04 2396.98,1350.64 2398.91,1349.25 2400.83,1347.85 2402.75,1346.45 2404.68,1345.06 2406.6,1343.66 2408.52,1342.27 2410.45,1340.88 2412.37,1339.48 2414.29,1338.09 2416.22,1336.7 2418.14,1335.31 2420.06,1333.92 2421.98,1332.53 2423.91,1331.14 2425.83,1329.75 2427.75,1328.36 2429.68,1326.98 2431.6,1325.59 2433.52,1324.2 2435.45,1322.82 2437.37,1321.43 2439.29,1320.05 2441.22,1318.66 2443.14,1317.28 2445.06,1315.9 2446.99,1314.52 2448.91,1313.14 2450.83,1311.76 2452.75,1310.38 2454.68,1309 2456.6,1307.62 2458.52,1306.24 2460.45,1304.87 2462.37,1303.49 2464.29,1302.12 2466.22,1300.74 2468.14,1299.37 2470.06,1298 2471.99,1296.62 2473.91,1295.25 2475.83,1293.88 2477.75,1292.51 2479.68,1291.14 2481.6,1289.77 2483.52,1288.41 2485.45,1287.04 2487.37,1285.67 2489.29,1284.31 2491.22,1282.94 2493.14,1281.58 2495.06,1280.21 2496.99,1278.85 2498.91,1277.49 2500.83,1276.13 2502.75,1274.77 2504.68,1273.41 2506.6,1272.05 2508.52,1270.69 2510.45,1269.34 2512.37,1267.98 2514.29,1266.63 2516.22,1265.27 2518.14,1263.92 2520.06,1262.57 2521.99,1261.22 2523.91,1259.87 2525.83,1258.52 2527.75,1257.17 2529.68,1255.82 2531.6,1254.47 2533.52,1253.13 2535.45,1251.78 2537.37,1250.44 2539.29,1249.09 2541.22,1247.75 2543.14,1246.41 2545.06,1245.07 2546.99,1243.73 2548.91,1242.39 2550.83,1241.05 2552.75,1239.71 2554.68,1238.38 2556.6,1237.04 2558.52,1235.71 2560.45,1234.38 2562.37,1233.05 2564.29,1231.71 2566.22,1230.39 2568.14,1229.06 2570.06,1227.73 2571.99,1226.4 2573.91,1225.08 2575.83,1223.75 2577.75,1222.43 2579.68,1221.11 2581.6,1219.79 2583.52,1218.47 2585.45,1217.15 2587.37,1215.83 2589.29,1214.51 2591.22,1213.2 2593.14,1211.88 2595.06,1210.57 2596.99,1209.26 2598.91,1207.95 2600.83,1206.64 2602.76,1205.33 2604.68,1204.02 2606.6,1202.72 2608.52,1201.41 2610.45,1200.11 2612.37,1198.81 2614.29,1197.51 2616.22,1196.21 2618.14,1194.91 2620.06,1193.62 2621.99,1192.32 2623.91,1191.03 2625.83,1189.74 2627.76,1188.45 2629.68,1187.16 2631.6,1185.87 2633.52,1184.58 2635.45,1183.3 2637.37,1182.01 2639.29,1180.73 2641.22,1179.45 2643.14,1178.17 2645.06,1176.89 2646.99,1175.62 2648.91,1174.35 2650.83,1173.07 2652.76,1171.8 2654.68,1170.53 2656.6,1169.27 2658.52,1168 2660.45,1166.74 2662.37,1165.48 2664.29,1164.22 2666.22,1162.96 2668.14,1161.7 2670.06,1160.45 2671.99,1159.19 2673.91,1157.94 2675.83,1156.69 2677.76,1155.45 2679.68,1154.2 2681.6,1152.96 2683.52,1151.72 2685.45,1150.48 2687.37,1149.24 2689.29,1148.01 2691.22,1146.78 2693.14,1145.55 2695.06,1144.32 2696.99,1143.09 2698.91,1141.87 2700.83,1140.65 2702.76,1139.43 2704.68,1138.22 2706.6,1137.01 2708.52,1135.8 2710.45,1134.59 2712.37,1133.38 2714.29,1132.18 2716.22,1130.98 2718.14,1129.79 2720.06,1128.59 2721.99,1127.4 2723.91,1126.22 2725.83,1125.03 2727.76,1123.85 2729.68,1122.67 2731.6,1121.5 2733.53,1120.33 2735.45,1119.16 2737.37,1118 2739.29,1116.84 2741.22,1115.68 2743.14,1114.53 2745.06,1113.38 2746.99,1112.24 2748.91,1111.1 2750.83,1109.97 2752.76,1108.84 "/>
<path clip-path="url(#clip340)" d="M319.345 1174.89 L600.221 1174.89 L600.221 1071.21 L319.345 1071.21  Z" fill="#ffffff" fill-rule="evenodd" fill-opacity="1"/>
<polyline clip-path="url(#clip340)" style="stroke:#000000; stroke-linecap:round; stroke-linejoin:round; stroke-width:4; stroke-opacity:1; fill:none" points="319.345,1174.89 600.221,1174.89 600.221,1071.21 319.345,1071.21 319.345,1174.89 "/>
<polyline clip-path="url(#clip340)" style="stroke:#009af9; stroke-linecap:round; stroke-linejoin:round; stroke-width:8; stroke-opacity:1; fill:none" points="347.316,1123.05 515.137,1123.05 "/>
<path clip-path="url(#clip340)" d="M543.107 1105.77 L548.13 1105.77 L557.714 1119.98 L567.228 1105.77 L572.251 1105.77 L560.029 1123.87 L560.029 1140.33 L555.33 1140.33 L555.33 1123.87 L543.107 1105.77 Z" fill="#000000" fill-rule="nonzero" fill-opacity="1" /></svg>
