<?xml version="1.0" encoding="utf-8"?>
<svg xmlns="http://www.w3.org/2000/svg" xmlns:xlink="http://www.w3.org/1999/xlink" width="800" height="400" viewBox="0 0 3200 1600">
<defs>
  <clipPath id="clip440">
    <rect x="0" y="0" width="3200" height="1600"/>
  </clipPath>
</defs>
<path clip-path="url(#clip440)" d="M0 1600 L3200 1600 L3200 0 L0 0  Z" fill="#ffffff" fill-rule="evenodd" fill-opacity="1"/>
<defs>
  <clipPath id="clip441">
    <rect x="640" y="0" width="2241" height="1600"/>
  </clipPath>
</defs>
<path clip-path="url(#clip440)" d="M194.436 1443.7 L3152.76 1443.7 L3152.76 47.2441 L194.436 47.2441  Z" fill="#ffffff" fill-rule="evenodd" fill-opacity="1"/>
<defs>
  <clipPath id="clip442">
    <rect x="194" y="47" width="2959" height="1397"/>
  </clipPath>
</defs>
<polyline clip-path="url(#clip442)" style="stroke:#000000; stroke-linecap:round; stroke-linejoin:round; stroke-width:2; stroke-opacity:0.1; fill:none" points="194.436,1443.7 194.436,47.2441 "/>
<polyline clip-path="url(#clip442)" style="stroke:#000000; stroke-linecap:round; stroke-linejoin:round; stroke-width:2; stroke-opacity:0.1; fill:none" points="786.1,1443.7 786.1,47.2441 "/>
<polyline clip-path="url(#clip442)" style="stroke:#000000; stroke-linecap:round; stroke-linejoin:round; stroke-width:2; stroke-opacity:0.1; fill:none" points="1377.76,1443.7 1377.76,47.2441 "/>
<polyline clip-path="url(#clip442)" style="stroke:#000000; stroke-linecap:round; stroke-linejoin:round; stroke-width:2; stroke-opacity:0.1; fill:none" points="1969.43,1443.7 1969.43,47.2441 "/>
<polyline clip-path="url(#clip442)" style="stroke:#000000; stroke-linecap:round; stroke-linejoin:round; stroke-width:2; stroke-opacity:0.1; fill:none" points="2561.09,1443.7 2561.09,47.2441 "/>
<polyline clip-path="url(#clip442)" style="stroke:#000000; stroke-linecap:round; stroke-linejoin:round; stroke-width:2; stroke-opacity:0.1; fill:none" points="3152.76,1443.7 3152.76,47.2441 "/>
<polyline clip-path="url(#clip442)" style="stroke:#000000; stroke-linecap:round; stroke-linejoin:round; stroke-width:2; stroke-opacity:0.1; fill:none" points="194.436,1443.7 194.436,47.2441 "/>
<polyline clip-path="url(#clip442)" style="stroke:#000000; stroke-linecap:round; stroke-linejoin:round; stroke-width:2; stroke-opacity:0.1; fill:none" points="786.1,1443.7 786.1,47.2441 "/>
<polyline clip-path="url(#clip442)" style="stroke:#000000; stroke-linecap:round; stroke-linejoin:round; stroke-width:2; stroke-opacity:0.1; fill:none" points="1377.76,1443.7 1377.76,47.2441 "/>
<polyline clip-path="url(#clip442)" style="stroke:#000000; stroke-linecap:round; stroke-linejoin:round; stroke-width:2; stroke-opacity:0.1; fill:none" points="1969.43,1443.7 1969.43,47.2441 "/>
<polyline clip-path="url(#clip442)" style="stroke:#000000; stroke-linecap:round; stroke-linejoin:round; stroke-width:2; stroke-opacity:0.1; fill:none" points="2561.09,1443.7 2561.09,47.2441 "/>
<polyline clip-path="url(#clip442)" style="stroke:#000000; stroke-linecap:round; stroke-linejoin:round; stroke-width:2; stroke-opacity:0.1; fill:none" points="3152.76,1443.7 3152.76,47.2441 "/>
<polyline clip-path="url(#clip440)" style="stroke:#000000; stroke-linecap:round; stroke-linejoin:round; stroke-width:4; stroke-opacity:1; fill:none" points="194.436,1443.7 3152.76,1443.7 "/>
<polyline clip-path="url(#clip440)" style="stroke:#000000; stroke-linecap:round; stroke-linejoin:round; stroke-width:4; stroke-opacity:1; fill:none" points="194.436,47.2441 3152.76,47.2441 "/>
<polyline clip-path="url(#clip440)" style="stroke:#000000; stroke-linecap:round; stroke-linejoin:round; stroke-width:4; stroke-opacity:1; fill:none" points="194.436,1443.7 194.436,1424.8 "/>
<polyline clip-path="url(#clip440)" style="stroke:#000000; stroke-linecap:round; stroke-linejoin:round; stroke-width:4; stroke-opacity:1; fill:none" points="786.1,1443.7 786.1,1424.8 "/>
<polyline clip-path="url(#clip440)" style="stroke:#000000; stroke-linecap:round; stroke-linejoin:round; stroke-width:4; stroke-opacity:1; fill:none" points="1377.76,1443.7 1377.76,1424.8 "/>
<polyline clip-path="url(#clip440)" style="stroke:#000000; stroke-linecap:round; stroke-linejoin:round; stroke-width:4; stroke-opacity:1; fill:none" points="1969.43,1443.7 1969.43,1424.8 "/>
<polyline clip-path="url(#clip440)" style="stroke:#000000; stroke-linecap:round; stroke-linejoin:round; stroke-width:4; stroke-opacity:1; fill:none" points="2561.09,1443.7 2561.09,1424.8 "/>
<polyline clip-path="url(#clip440)" style="stroke:#000000; stroke-linecap:round; stroke-linejoin:round; stroke-width:4; stroke-opacity:1; fill:none" points="3152.76,1443.7 3152.76,1424.8 "/>
<polyline clip-path="url(#clip440)" style="stroke:#000000; stroke-linecap:round; stroke-linejoin:round; stroke-width:4; stroke-opacity:1; fill:none" points="194.436,47.2441 194.436,66.1417 "/>
<polyline clip-path="url(#clip440)" style="stroke:#000000; stroke-linecap:round; stroke-linejoin:round; stroke-width:4; stroke-opacity:1; fill:none" points="786.1,47.2441 786.1,66.1417 "/>
<polyline clip-path="url(#clip440)" style="stroke:#000000; stroke-linecap:round; stroke-linejoin:round; stroke-width:4; stroke-opacity:1; fill:none" points="1377.76,47.2441 1377.76,66.1417 "/>
<polyline clip-path="url(#clip440)" style="stroke:#000000; stroke-linecap:round; stroke-linejoin:round; stroke-width:4; stroke-opacity:1; fill:none" points="1969.43,47.2441 1969.43,66.1417 "/>
<polyline clip-path="url(#clip440)" style="stroke:#000000; stroke-linecap:round; stroke-linejoin:round; stroke-width:4; stroke-opacity:1; fill:none" points="2561.09,47.2441 2561.09,66.1417 "/>
<polyline clip-path="url(#clip440)" style="stroke:#000000; stroke-linecap:round; stroke-linejoin:round; stroke-width:4; stroke-opacity:1; fill:none" points="3152.76,47.2441 3152.76,66.1417 "/>
<path clip-path="url(#clip440)" d="M194.436 1481.02 Q190.825 1481.02 188.996 1484.58 Q187.191 1488.12 187.191 1495.25 Q187.191 1502.36 188.996 1505.93 Q190.825 1509.47 194.436 1509.47 Q198.07 1509.47 199.876 1505.93 Q201.705 1502.36 201.705 1495.25 Q201.705 1488.12 199.876 1484.58 Q198.07 1481.02 194.436 1481.02 M194.436 1477.31 Q200.246 1477.31 203.302 1481.92 Q206.38 1486.5 206.38 1495.25 Q206.38 1503.98 203.302 1508.59 Q200.246 1513.17 194.436 1513.17 Q188.626 1513.17 185.547 1508.59 Q182.492 1503.98 182.492 1495.25 Q182.492 1486.5 185.547 1481.92 Q188.626 1477.31 194.436 1477.31 Z" fill="#000000" fill-rule="nonzero" fill-opacity="1" /><path clip-path="url(#clip440)" d="M780.753 1508.56 L797.072 1508.56 L797.072 1512.5 L775.128 1512.5 L775.128 1508.56 Q777.79 1505.81 782.373 1501.18 Q786.98 1496.53 788.16 1495.19 Q790.406 1492.66 791.285 1490.93 Q792.188 1489.17 792.188 1487.48 Q792.188 1484.72 790.244 1482.99 Q788.322 1481.25 785.22 1481.25 Q783.021 1481.25 780.568 1482.01 Q778.137 1482.78 775.359 1484.33 L775.359 1479.61 Q778.183 1478.47 780.637 1477.89 Q783.091 1477.31 785.128 1477.31 Q790.498 1477.31 793.693 1480 Q796.887 1482.69 796.887 1487.18 Q796.887 1489.31 796.077 1491.23 Q795.29 1493.12 793.183 1495.72 Q792.605 1496.39 789.503 1499.61 Q786.401 1502.8 780.753 1508.56 Z" fill="#000000" fill-rule="nonzero" fill-opacity="1" /><path clip-path="url(#clip440)" d="M1380.77 1482.01 L1368.97 1500.46 L1380.77 1500.46 L1380.77 1482.01 M1379.55 1477.94 L1385.43 1477.94 L1385.43 1500.46 L1390.36 1500.46 L1390.36 1504.35 L1385.43 1504.35 L1385.43 1512.5 L1380.77 1512.5 L1380.77 1504.35 L1365.17 1504.35 L1365.17 1499.84 L1379.55 1477.94 Z" fill="#000000" fill-rule="nonzero" fill-opacity="1" /><path clip-path="url(#clip440)" d="M1969.83 1493.36 Q1966.68 1493.36 1964.83 1495.51 Q1963 1497.66 1963 1501.41 Q1963 1505.14 1964.83 1507.31 Q1966.68 1509.47 1969.83 1509.47 Q1972.98 1509.47 1974.81 1507.31 Q1976.66 1505.14 1976.66 1501.41 Q1976.66 1497.66 1974.81 1495.51 Q1972.98 1493.36 1969.83 1493.36 M1979.12 1478.7 L1979.12 1482.96 Q1977.36 1482.13 1975.55 1481.69 Q1973.77 1481.25 1972.01 1481.25 Q1967.38 1481.25 1964.93 1484.37 Q1962.5 1487.5 1962.15 1493.82 Q1963.51 1491.81 1965.57 1490.74 Q1967.63 1489.65 1970.11 1489.65 Q1975.32 1489.65 1978.33 1492.82 Q1981.36 1495.97 1981.36 1501.41 Q1981.36 1506.74 1978.21 1509.95 Q1975.06 1513.17 1969.83 1513.17 Q1963.84 1513.17 1960.67 1508.59 Q1957.5 1503.98 1957.5 1495.25 Q1957.5 1487.06 1961.38 1482.2 Q1965.27 1477.31 1971.82 1477.31 Q1973.58 1477.31 1975.37 1477.66 Q1977.17 1478.01 1979.12 1478.7 Z" fill="#000000" fill-rule="nonzero" fill-opacity="1" /><path clip-path="url(#clip440)" d="M2561.09 1496.09 Q2557.76 1496.09 2555.84 1497.87 Q2553.94 1499.65 2553.94 1502.78 Q2553.94 1505.9 2555.84 1507.69 Q2557.76 1509.47 2561.09 1509.47 Q2564.43 1509.47 2566.35 1507.69 Q2568.27 1505.88 2568.27 1502.78 Q2568.27 1499.65 2566.35 1497.87 Q2564.45 1496.09 2561.09 1496.09 M2556.42 1494.1 Q2553.41 1493.36 2551.72 1491.3 Q2550.05 1489.24 2550.05 1486.27 Q2550.05 1482.13 2552.99 1479.72 Q2555.95 1477.31 2561.09 1477.31 Q2566.25 1477.31 2569.19 1479.72 Q2572.13 1482.13 2572.13 1486.27 Q2572.13 1489.24 2570.44 1491.3 Q2568.78 1493.36 2565.79 1494.1 Q2569.17 1494.88 2571.05 1497.18 Q2572.94 1499.47 2572.94 1502.78 Q2572.94 1507.8 2569.87 1510.49 Q2566.81 1513.17 2561.09 1513.17 Q2555.37 1513.17 2552.3 1510.49 Q2549.24 1507.8 2549.24 1502.78 Q2549.24 1499.47 2551.14 1497.18 Q2553.04 1494.88 2556.42 1494.1 M2554.7 1486.71 Q2554.7 1489.4 2556.37 1490.9 Q2558.06 1492.41 2561.09 1492.41 Q2564.1 1492.41 2565.79 1490.9 Q2567.5 1489.4 2567.5 1486.71 Q2567.5 1484.03 2565.79 1482.52 Q2564.1 1481.02 2561.09 1481.02 Q2558.06 1481.02 2556.37 1482.52 Q2554.7 1484.03 2554.7 1486.71 Z" fill="#000000" fill-rule="nonzero" fill-opacity="1" /><path clip-path="url(#clip440)" d="M3127.44 1508.56 L3135.08 1508.56 L3135.08 1482.2 L3126.77 1483.87 L3126.77 1479.61 L3135.04 1477.94 L3139.71 1477.94 L3139.71 1508.56 L3147.35 1508.56 L3147.35 1512.5 L3127.44 1512.5 L3127.44 1508.56 Z" fill="#000000" fill-rule="nonzero" fill-opacity="1" /><path clip-path="url(#clip440)" d="M3166.8 1481.02 Q3163.18 1481.02 3161.36 1484.58 Q3159.55 1488.12 3159.55 1495.25 Q3159.55 1502.36 3161.36 1505.93 Q3163.18 1509.47 3166.8 1509.47 Q3170.43 1509.47 3172.23 1505.93 Q3174.06 1502.36 3174.06 1495.25 Q3174.06 1488.12 3172.23 1484.58 Q3170.43 1481.02 3166.8 1481.02 M3166.8 1477.31 Q3172.61 1477.31 3175.66 1481.92 Q3178.74 1486.5 3178.74 1495.25 Q3178.74 1503.98 3175.66 1508.59 Q3172.61 1513.17 3166.8 1513.17 Q3160.99 1513.17 3157.91 1508.59 Q3154.85 1503.98 3154.85 1495.25 Q3154.85 1486.5 3157.91 1481.92 Q3160.99 1477.31 3166.8 1477.31 Z" fill="#000000" fill-rule="nonzero" fill-opacity="1" /><path clip-path="url(#clip440)" d="M1672.66 1554.79 L1672.66 1564.92 L1684.72 1564.92 L1684.72 1569.47 L1672.66 1569.47 L1672.66 1588.82 Q1672.66 1593.18 1673.83 1594.42 Q1675.04 1595.66 1678.7 1595.66 L1684.72 1595.66 L1684.72 1600.56 L1678.7 1600.56 Q1671.92 1600.56 1669.35 1598.05 Q1666.77 1595.5 1666.77 1588.82 L1666.77 1569.47 L1662.47 1569.47 L1662.47 1564.92 L1666.77 1564.92 L1666.77 1554.79 L1672.66 1554.79 Z" fill="#000000" fill-rule="nonzero" fill-opacity="1" /><polyline clip-path="url(#clip442)" style="stroke:#000000; stroke-linecap:round; stroke-linejoin:round; stroke-width:2; stroke-opacity:0.1; fill:none" points="194.436,1304.05 3152.76,1304.05 "/>
<polyline clip-path="url(#clip442)" style="stroke:#000000; stroke-linecap:round; stroke-linejoin:round; stroke-width:2; stroke-opacity:0.1; fill:none" points="194.436,1024.76 3152.76,1024.76 "/>
<polyline clip-path="url(#clip442)" style="stroke:#000000; stroke-linecap:round; stroke-linejoin:round; stroke-width:2; stroke-opacity:0.1; fill:none" points="194.436,745.472 3152.76,745.472 "/>
<polyline clip-path="url(#clip442)" style="stroke:#000000; stroke-linecap:round; stroke-linejoin:round; stroke-width:2; stroke-opacity:0.1; fill:none" points="194.436,466.181 3152.76,466.181 "/>
<polyline clip-path="url(#clip442)" style="stroke:#000000; stroke-linecap:round; stroke-linejoin:round; stroke-width:2; stroke-opacity:0.1; fill:none" points="194.436,186.89 3152.76,186.89 "/>
<polyline clip-path="url(#clip442)" style="stroke:#000000; stroke-linecap:round; stroke-linejoin:round; stroke-width:2; stroke-opacity:0.1; fill:none" points="194.436,1304.05 3152.76,1304.05 "/>
<polyline clip-path="url(#clip442)" style="stroke:#000000; stroke-linecap:round; stroke-linejoin:round; stroke-width:2; stroke-opacity:0.1; fill:none" points="194.436,1024.76 3152.76,1024.76 "/>
<polyline clip-path="url(#clip442)" style="stroke:#000000; stroke-linecap:round; stroke-linejoin:round; stroke-width:2; stroke-opacity:0.1; fill:none" points="194.436,745.472 3152.76,745.472 "/>
<polyline clip-path="url(#clip442)" style="stroke:#000000; stroke-linecap:round; stroke-linejoin:round; stroke-width:2; stroke-opacity:0.1; fill:none" points="194.436,466.181 3152.76,466.181 "/>
<polyline clip-path="url(#clip442)" style="stroke:#000000; stroke-linecap:round; stroke-linejoin:round; stroke-width:2; stroke-opacity:0.1; fill:none" points="194.436,186.89 3152.76,186.89 "/>
<polyline clip-path="url(#clip440)" style="stroke:#000000; stroke-linecap:round; stroke-linejoin:round; stroke-width:4; stroke-opacity:1; fill:none" points="194.436,1443.7 194.436,47.2441 "/>
<polyline clip-path="url(#clip440)" style="stroke:#000000; stroke-linecap:round; stroke-linejoin:round; stroke-width:4; stroke-opacity:1; fill:none" points="3152.76,1443.7 3152.76,47.2441 "/>
<polyline clip-path="url(#clip440)" style="stroke:#000000; stroke-linecap:round; stroke-linejoin:round; stroke-width:4; stroke-opacity:1; fill:none" points="194.436,1304.05 213.334,1304.05 "/>
<polyline clip-path="url(#clip440)" style="stroke:#000000; stroke-linecap:round; stroke-linejoin:round; stroke-width:4; stroke-opacity:1; fill:none" points="194.436,1024.76 213.334,1024.76 "/>
<polyline clip-path="url(#clip440)" style="stroke:#000000; stroke-linecap:round; stroke-linejoin:round; stroke-width:4; stroke-opacity:1; fill:none" points="194.436,745.472 213.334,745.472 "/>
<polyline clip-path="url(#clip440)" style="stroke:#000000; stroke-linecap:round; stroke-linejoin:round; stroke-width:4; stroke-opacity:1; fill:none" points="194.436,466.181 213.334,466.181 "/>
<polyline clip-path="url(#clip440)" style="stroke:#000000; stroke-linecap:round; stroke-linejoin:round; stroke-width:4; stroke-opacity:1; fill:none" points="194.436,186.89 213.334,186.89 "/>
<polyline clip-path="url(#clip440)" style="stroke:#000000; stroke-linecap:round; stroke-linejoin:round; stroke-width:4; stroke-opacity:1; fill:none" points="3152.76,1304.05 3133.86,1304.05 "/>
<polyline clip-path="url(#clip440)" style="stroke:#000000; stroke-linecap:round; stroke-linejoin:round; stroke-width:4; stroke-opacity:1; fill:none" points="3152.76,1024.76 3133.86,1024.76 "/>
<polyline clip-path="url(#clip440)" style="stroke:#000000; stroke-linecap:round; stroke-linejoin:round; stroke-width:4; stroke-opacity:1; fill:none" points="3152.76,745.472 3133.86,745.472 "/>
<polyline clip-path="url(#clip440)" style="stroke:#000000; stroke-linecap:round; stroke-linejoin:round; stroke-width:4; stroke-opacity:1; fill:none" points="3152.76,466.181 3133.86,466.181 "/>
<polyline clip-path="url(#clip440)" style="stroke:#000000; stroke-linecap:round; stroke-linejoin:round; stroke-width:4; stroke-opacity:1; fill:none" points="3152.76,186.89 3133.86,186.89 "/>
<path clip-path="url(#clip440)" d="M58.9365 1289.85 Q55.3254 1289.85 53.4967 1293.42 Q51.6912 1296.96 51.6912 1304.09 Q51.6912 1311.2 53.4967 1314.76 Q55.3254 1318.3 58.9365 1318.3 Q62.5707 1318.3 64.3763 1314.76 Q66.205 1311.2 66.205 1304.09 Q66.205 1296.96 64.3763 1293.42 Q62.5707 1289.85 58.9365 1289.85 M58.9365 1286.15 Q64.7467 1286.15 67.8022 1290.76 Q70.8809 1295.34 70.8809 1304.09 Q70.8809 1312.82 67.8022 1317.42 Q64.7467 1322.01 58.9365 1322.01 Q53.1264 1322.01 50.0477 1317.42 Q46.9921 1312.82 46.9921 1304.09 Q46.9921 1295.34 50.0477 1290.76 Q53.1264 1286.15 58.9365 1286.15 Z" fill="#000000" fill-rule="nonzero" fill-opacity="1" /><path clip-path="url(#clip440)" d="M79.0984 1315.45 L83.9827 1315.45 L83.9827 1321.33 L79.0984 1321.33 L79.0984 1315.45 Z" fill="#000000" fill-rule="nonzero" fill-opacity="1" /><path clip-path="url(#clip440)" d="M94.3067 1320.62 L94.3067 1316.36 Q96.0659 1317.19 97.8715 1317.63 Q99.677 1318.07 101.413 1318.07 Q106.043 1318.07 108.473 1314.97 Q110.927 1311.84 111.274 1305.5 Q109.932 1307.49 107.871 1308.56 Q105.811 1309.62 103.311 1309.62 Q98.1261 1309.62 95.0937 1306.5 Q92.0845 1303.35 92.0845 1297.91 Q92.0845 1292.58 95.2326 1289.37 Q98.3807 1286.15 103.612 1286.15 Q109.608 1286.15 112.756 1290.76 Q115.927 1295.34 115.927 1304.09 Q115.927 1312.26 112.038 1317.14 Q108.172 1322.01 101.621 1322.01 Q99.8622 1322.01 98.0567 1321.66 Q96.2511 1321.31 94.3067 1320.62 M103.612 1305.96 Q106.76 1305.96 108.589 1303.81 Q110.441 1301.66 110.441 1297.91 Q110.441 1294.18 108.589 1292.03 Q106.76 1289.85 103.612 1289.85 Q100.464 1289.85 98.6122 1292.03 Q96.7835 1294.18 96.7835 1297.91 Q96.7835 1301.66 98.6122 1303.81 Q100.464 1305.96 103.612 1305.96 Z" fill="#000000" fill-rule="nonzero" fill-opacity="1" /><path clip-path="url(#clip440)" d="M134.908 1302.19 Q131.76 1302.19 129.908 1304.34 Q128.08 1306.5 128.08 1310.25 Q128.08 1313.97 129.908 1316.15 Q131.76 1318.3 134.908 1318.3 Q138.056 1318.3 139.885 1316.15 Q141.737 1313.97 141.737 1310.25 Q141.737 1306.5 139.885 1304.34 Q138.056 1302.19 134.908 1302.19 M144.191 1287.54 L144.191 1291.8 Q142.431 1290.96 140.626 1290.52 Q138.843 1290.08 137.084 1290.08 Q132.455 1290.08 130.001 1293.21 Q127.57 1296.33 127.223 1302.65 Q128.589 1300.64 130.649 1299.58 Q132.709 1298.49 135.186 1298.49 Q140.394 1298.49 143.404 1301.66 Q146.436 1304.81 146.436 1310.25 Q146.436 1315.57 143.288 1318.79 Q140.14 1322.01 134.908 1322.01 Q128.913 1322.01 125.742 1317.42 Q122.57 1312.82 122.57 1304.09 Q122.57 1295.89 126.459 1291.03 Q130.348 1286.15 136.899 1286.15 Q138.658 1286.15 140.441 1286.5 Q142.246 1286.84 144.191 1287.54 Z" fill="#000000" fill-rule="nonzero" fill-opacity="1" /><path clip-path="url(#clip440)" d="M59.1911 1010.56 Q55.58 1010.56 53.7513 1014.13 Q51.9458 1017.67 51.9458 1024.8 Q51.9458 1031.9 53.7513 1035.47 Q55.58 1039.01 59.1911 1039.01 Q62.8254 1039.01 64.6309 1035.47 Q66.4596 1031.9 66.4596 1024.8 Q66.4596 1017.67 64.6309 1014.13 Q62.8254 1010.56 59.1911 1010.56 M59.1911 1006.86 Q65.0013 1006.86 68.0568 1011.46 Q71.1355 1016.05 71.1355 1024.8 Q71.1355 1033.52 68.0568 1038.13 Q65.0013 1042.71 59.1911 1042.71 Q53.381 1042.71 50.3023 1038.13 Q47.2468 1033.52 47.2468 1024.8 Q47.2468 1016.05 50.3023 1011.46 Q53.381 1006.86 59.1911 1006.86 Z" fill="#000000" fill-rule="nonzero" fill-opacity="1" /><path clip-path="url(#clip440)" d="M79.3531 1036.16 L84.2373 1036.16 L84.2373 1042.04 L79.3531 1042.04 L79.3531 1036.16 Z" fill="#000000" fill-rule="nonzero" fill-opacity="1" /><path clip-path="url(#clip440)" d="M94.5613 1041.33 L94.5613 1037.07 Q96.3206 1037.9 98.1261 1038.34 Q99.9317 1038.78 101.668 1038.78 Q106.297 1038.78 108.728 1035.68 Q111.182 1032.55 111.529 1026.21 Q110.186 1028.2 108.126 1029.27 Q106.066 1030.33 103.566 1030.33 Q98.3807 1030.33 95.3483 1027.21 Q92.3391 1024.06 92.3391 1018.62 Q92.3391 1013.29 95.4872 1010.08 Q98.6354 1006.86 103.867 1006.86 Q109.862 1006.86 113.01 1011.46 Q116.182 1016.05 116.182 1024.8 Q116.182 1032.97 112.293 1037.85 Q108.427 1042.71 101.876 1042.71 Q100.117 1042.71 98.3113 1042.37 Q96.5057 1042.02 94.5613 1041.33 M103.867 1026.67 Q107.015 1026.67 108.844 1024.52 Q110.695 1022.37 110.695 1018.62 Q110.695 1014.89 108.844 1012.74 Q107.015 1010.56 103.867 1010.56 Q100.719 1010.56 98.8668 1012.74 Q97.0382 1014.89 97.0382 1018.62 Q97.0382 1022.37 98.8668 1024.52 Q100.719 1026.67 103.867 1026.67 Z" fill="#000000" fill-rule="nonzero" fill-opacity="1" /><path clip-path="url(#clip440)" d="M134.584 1025.63 Q131.251 1025.63 129.33 1027.41 Q127.432 1029.2 127.432 1032.32 Q127.432 1035.45 129.33 1037.23 Q131.251 1039.01 134.584 1039.01 Q137.918 1039.01 139.839 1037.23 Q141.76 1035.42 141.76 1032.32 Q141.76 1029.2 139.839 1027.41 Q137.941 1025.63 134.584 1025.63 M129.908 1023.64 Q126.899 1022.9 125.209 1020.84 Q123.543 1018.78 123.543 1015.82 Q123.543 1011.67 126.482 1009.27 Q129.445 1006.86 134.584 1006.86 Q139.746 1006.86 142.686 1009.27 Q145.626 1011.67 145.626 1015.82 Q145.626 1018.78 143.936 1020.84 Q142.269 1022.9 139.283 1023.64 Q142.663 1024.43 144.538 1026.72 Q146.436 1029.01 146.436 1032.32 Q146.436 1037.34 143.357 1040.03 Q140.302 1042.71 134.584 1042.71 Q128.867 1042.71 125.788 1040.03 Q122.732 1037.34 122.732 1032.32 Q122.732 1029.01 124.631 1026.72 Q126.529 1024.43 129.908 1023.64 M128.195 1016.26 Q128.195 1018.94 129.862 1020.45 Q131.552 1021.95 134.584 1021.95 Q137.593 1021.95 139.283 1020.45 Q140.996 1018.94 140.996 1016.26 Q140.996 1013.57 139.283 1012.07 Q137.593 1010.56 134.584 1010.56 Q131.552 1010.56 129.862 1012.07 Q128.195 1013.57 128.195 1016.26 Z" fill="#000000" fill-rule="nonzero" fill-opacity="1" /><path clip-path="url(#clip440)" d="M49.9088 758.817 L57.5476 758.817 L57.5476 732.451 L49.2375 734.118 L49.2375 729.859 L57.5013 728.192 L62.1772 728.192 L62.1772 758.817 L69.8161 758.817 L69.8161 762.752 L49.9088 762.752 L49.9088 758.817 Z" fill="#000000" fill-rule="nonzero" fill-opacity="1" /><path clip-path="url(#clip440)" d="M79.2605 756.872 L84.1447 756.872 L84.1447 762.752 L79.2605 762.752 L79.2605 756.872 Z" fill="#000000" fill-rule="nonzero" fill-opacity="1" /><path clip-path="url(#clip440)" d="M104.33 731.271 Q100.719 731.271 98.89 734.835 Q97.0845 738.377 97.0845 745.507 Q97.0845 752.613 98.89 756.178 Q100.719 759.72 104.33 759.72 Q107.964 759.72 109.77 756.178 Q111.598 752.613 111.598 745.507 Q111.598 738.377 109.77 734.835 Q107.964 731.271 104.33 731.271 M104.33 727.567 Q110.14 727.567 113.195 732.173 Q116.274 736.757 116.274 745.507 Q116.274 754.233 113.195 758.84 Q110.14 763.423 104.33 763.423 Q98.5196 763.423 95.4409 758.84 Q92.3854 754.233 92.3854 745.507 Q92.3854 736.757 95.4409 732.173 Q98.5196 727.567 104.33 727.567 Z" fill="#000000" fill-rule="nonzero" fill-opacity="1" /><path clip-path="url(#clip440)" d="M134.492 731.271 Q130.881 731.271 129.052 734.835 Q127.246 738.377 127.246 745.507 Q127.246 752.613 129.052 756.178 Q130.881 759.72 134.492 759.72 Q138.126 759.72 139.931 756.178 Q141.76 752.613 141.76 745.507 Q141.76 738.377 139.931 734.835 Q138.126 731.271 134.492 731.271 M134.492 727.567 Q140.302 727.567 143.357 732.173 Q146.436 736.757 146.436 745.507 Q146.436 754.233 143.357 758.84 Q140.302 763.423 134.492 763.423 Q128.682 763.423 125.603 758.84 Q122.547 754.233 122.547 745.507 Q122.547 736.757 125.603 732.173 Q128.682 727.567 134.492 727.567 Z" fill="#000000" fill-rule="nonzero" fill-opacity="1" /><path clip-path="url(#clip440)" d="M51.506 479.526 L59.1448 479.526 L59.1448 453.16 L50.8347 454.827 L50.8347 450.567 L59.0985 448.901 L63.7744 448.901 L63.7744 479.526 L71.4133 479.526 L71.4133 483.461 L51.506 483.461 L51.506 479.526 Z" fill="#000000" fill-rule="nonzero" fill-opacity="1" /><path clip-path="url(#clip440)" d="M80.8577 477.581 L85.7419 477.581 L85.7419 483.461 L80.8577 483.461 L80.8577 477.581 Z" fill="#000000" fill-rule="nonzero" fill-opacity="1" /><path clip-path="url(#clip440)" d="M105.927 451.98 Q102.316 451.98 100.487 455.544 Q98.6817 459.086 98.6817 466.216 Q98.6817 473.322 100.487 476.887 Q102.316 480.428 105.927 480.428 Q109.561 480.428 111.367 476.887 Q113.195 473.322 113.195 466.216 Q113.195 459.086 111.367 455.544 Q109.561 451.98 105.927 451.98 M105.927 448.276 Q111.737 448.276 114.793 452.882 Q117.871 457.466 117.871 466.216 Q117.871 474.942 114.793 479.549 Q111.737 484.132 105.927 484.132 Q100.117 484.132 97.0382 479.549 Q93.9826 474.942 93.9826 466.216 Q93.9826 457.466 97.0382 452.882 Q100.117 448.276 105.927 448.276 Z" fill="#000000" fill-rule="nonzero" fill-opacity="1" /><path clip-path="url(#clip440)" d="M130.117 479.526 L146.436 479.526 L146.436 483.461 L124.492 483.461 L124.492 479.526 Q127.154 476.771 131.737 472.141 Q136.343 467.489 137.524 466.146 Q139.769 463.623 140.649 461.887 Q141.552 460.128 141.552 458.438 Q141.552 455.683 139.607 453.947 Q137.686 452.211 134.584 452.211 Q132.385 452.211 129.931 452.975 Q127.501 453.739 124.723 455.29 L124.723 450.567 Q127.547 449.433 130.001 448.855 Q132.455 448.276 134.492 448.276 Q139.862 448.276 143.056 450.961 Q146.251 453.646 146.251 458.137 Q146.251 460.266 145.441 462.188 Q144.654 464.086 142.547 466.679 Q141.968 467.35 138.867 470.567 Q135.765 473.762 130.117 479.526 Z" fill="#000000" fill-rule="nonzero" fill-opacity="1" /><path clip-path="url(#clip440)" d="M49.4227 200.235 L57.0615 200.235 L57.0615 173.869 L48.7514 175.536 L48.7514 171.276 L57.0152 169.61 L61.6911 169.61 L61.6911 200.235 L69.33 200.235 L69.33 204.17 L49.4227 204.17 L49.4227 200.235 Z" fill="#000000" fill-rule="nonzero" fill-opacity="1" /><path clip-path="url(#clip440)" d="M78.7744 198.29 L83.6586 198.29 L83.6586 204.17 L78.7744 204.17 L78.7744 198.29 Z" fill="#000000" fill-rule="nonzero" fill-opacity="1" /><path clip-path="url(#clip440)" d="M103.844 172.688 Q100.233 172.688 98.4039 176.253 Q96.5983 179.795 96.5983 186.924 Q96.5983 194.031 98.4039 197.596 Q100.233 201.137 103.844 201.137 Q107.478 201.137 109.283 197.596 Q111.112 194.031 111.112 186.924 Q111.112 179.795 109.283 176.253 Q107.478 172.688 103.844 172.688 M103.844 168.985 Q109.654 168.985 112.709 173.591 Q115.788 178.174 115.788 186.924 Q115.788 195.651 112.709 200.258 Q109.654 204.841 103.844 204.841 Q98.0335 204.841 94.9548 200.258 Q91.8993 195.651 91.8993 186.924 Q91.8993 178.174 94.9548 173.591 Q98.0335 168.985 103.844 168.985 Z" fill="#000000" fill-rule="nonzero" fill-opacity="1" /><path clip-path="url(#clip440)" d="M136.853 173.684 L125.047 192.133 L136.853 192.133 L136.853 173.684 M135.626 169.61 L141.506 169.61 L141.506 192.133 L146.436 192.133 L146.436 196.022 L141.506 196.022 L141.506 204.17 L136.853 204.17 L136.853 196.022 L121.251 196.022 L121.251 191.508 L135.626 169.61 Z" fill="#000000" fill-rule="nonzero" fill-opacity="1" /><polyline clip-path="url(#clip442)" style="stroke:#009af9; stroke-linecap:round; stroke-linejoin:round; stroke-width:12; stroke-opacity:1; fill:none" points="194.436,745.472 197.397,745.472 200.359,745.472 203.32,745.472 206.281,745.472 209.242,745.472 212.204,745.472 215.165,745.472 218.126,745.472 221.088,745.472 224.049,745.472 227.01,745.472 229.971,745.472 232.933,745.472 235.894,745.472 238.855,745.472 241.817,745.472 244.778,745.472 247.739,745.472 250.7,745.472 253.662,745.472 256.623,745.472 259.584,745.472 262.546,745.472 265.507,745.472 268.468,745.472 271.429,745.472 274.391,745.472 277.352,745.472 280.313,745.472 283.274,745.472 286.236,745.472 289.197,745.472 292.158,745.472 295.12,745.472 298.081,745.472 301.042,745.472 304.003,745.472 306.965,745.472 309.926,745.472 312.887,745.472 315.849,745.472 318.81,745.472 321.771,745.472 324.732,745.472 327.694,745.472 330.655,745.472 333.616,745.472 336.578,745.472 339.539,745.472 342.5,745.472 345.461,745.472 348.423,745.472 351.384,745.472 354.345,745.472 357.307,745.472 360.268,745.472 363.229,745.472 366.19,745.472 369.152,745.472 372.113,745.472 375.074,745.472 378.035,745.472 380.997,745.472 383.958,745.472 386.919,745.472 389.881,745.472 392.842,745.472 395.803,745.472 398.764,745.472 401.726,745.472 404.687,745.472 407.648,745.472 410.61,745.472 413.571,745.472 416.532,745.472 419.493,745.472 422.455,745.472 425.416,745.472 428.377,745.472 431.339,745.472 434.3,745.472 437.261,745.472 440.222,745.472 443.184,745.472 446.145,745.472 449.106,745.472 452.067,745.472 455.029,745.472 457.99,745.472 460.951,745.472 463.913,745.472 466.874,745.472 469.835,745.472 472.796,745.472 475.758,745.472 478.719,745.472 481.68,745.472 484.642,745.472 487.603,745.472 490.564,745.472 493.525,745.472 496.487,745.472 499.448,745.472 502.409,745.472 505.371,745.472 508.332,745.472 511.293,745.472 514.254,745.472 517.216,745.472 520.177,745.472 523.138,745.472 526.1,745.472 529.061,745.472 532.022,745.472 534.983,745.472 537.945,745.472 540.906,745.472 543.867,745.472 546.828,745.472 549.79,745.472 552.751,745.472 555.712,745.472 558.674,745.472 561.635,745.472 564.596,745.472 567.557,745.472 570.519,745.472 573.48,745.472 576.441,745.472 579.403,745.472 582.364,745.472 585.325,745.472 588.286,745.472 591.248,745.472 594.209,745.472 597.17,745.472 600.132,745.472 603.093,745.472 606.054,745.472 609.015,745.472 611.977,745.472 614.938,745.472 617.899,745.472 620.861,745.472 623.822,745.472 626.783,745.472 629.744,745.472 632.706,745.472 635.667,745.472 638.628,745.472 641.589,745.472 644.551,745.472 647.512,745.472 650.473,745.472 653.435,745.472 656.396,745.472 659.357,745.472 662.318,745.472 665.28,745.472 668.241,745.472 671.202,745.472 674.164,745.472 677.125,745.472 680.086,745.472 683.047,745.472 686.009,745.472 688.97,745.472 691.931,745.472 694.893,745.472 697.854,745.472 700.815,745.472 703.776,745.472 706.738,745.472 709.699,745.472 712.66,745.472 715.622,745.472 718.583,745.472 721.544,745.472 724.505,745.472 727.467,745.472 730.428,745.472 733.389,745.472 736.35,745.472 739.312,745.472 742.273,745.472 745.234,745.472 748.196,745.472 751.157,745.472 754.118,745.472 757.079,745.472 760.041,745.472 763.002,745.472 765.963,745.472 768.925,745.472 771.886,745.472 774.847,745.472 777.808,745.472 780.77,745.472 783.731,745.472 786.692,745.472 789.654,745.472 792.615,745.472 795.576,745.472 798.537,745.472 801.499,745.472 804.46,745.472 807.421,745.472 810.383,745.472 813.344,745.472 816.305,745.472 819.266,745.472 822.228,745.472 825.189,745.472 828.15,745.472 831.111,745.472 834.073,745.472 837.034,745.472 839.995,745.472 842.957,745.472 845.918,745.472 848.879,745.472 851.84,745.472 854.802,745.472 857.763,745.472 860.724,745.472 863.686,745.472 866.647,745.472 869.608,745.472 872.569,745.472 875.531,745.472 878.492,745.472 881.453,745.472 884.415,745.472 887.376,745.472 890.337,745.472 893.298,745.472 896.26,745.472 899.221,745.472 902.182,745.472 905.144,745.472 908.105,745.472 911.066,745.472 914.027,745.472 916.989,745.472 919.95,745.472 922.911,745.472 925.872,745.472 928.834,745.472 931.795,745.472 934.756,745.472 937.718,745.472 940.679,745.472 943.64,745.472 946.601,745.472 949.563,745.472 952.524,745.472 955.485,745.472 958.447,745.472 961.408,745.472 964.369,745.472 967.33,745.472 970.292,745.472 973.253,745.472 976.214,745.472 979.176,745.472 982.137,745.472 985.098,745.472 988.059,745.472 991.021,745.472 993.982,745.472 996.943,745.472 999.905,745.472 1002.87,745.472 1005.83,745.472 1008.79,745.472 1011.75,745.472 1014.71,745.472 1017.67,745.472 1020.63,745.472 1023.59,745.472 1026.56,745.472 1029.52,745.472 1032.48,745.472 1035.44,745.472 1038.4,745.472 1041.36,745.472 1044.32,745.472 1047.29,745.472 1050.25,745.472 1053.21,745.472 1056.17,745.472 1059.13,745.472 1062.09,745.472 1065.05,745.472 1068.01,745.472 1070.98,745.472 1073.94,745.472 1076.9,745.472 1079.86,745.472 1082.82,745.472 1085.78,745.472 1088.74,745.472 1091.7,745.472 1094.67,745.472 1097.63,745.472 1100.59,745.472 1103.55,745.472 1106.51,745.472 1109.47,745.472 1112.43,745.472 1115.39,745.472 1118.36,745.472 1121.32,745.472 1124.28,745.472 1127.24,745.472 1130.2,745.472 1133.16,745.472 1136.12,745.472 1139.08,745.472 1142.05,745.472 1145.01,745.472 1147.97,745.472 1150.93,745.472 1153.89,745.472 1156.85,745.472 1159.81,745.472 1162.77,745.472 1165.74,745.472 1168.7,745.472 1171.66,745.472 1174.62,745.472 1177.58,745.472 1180.54,745.472 1183.5,745.472 1186.47,745.472 1189.43,745.472 1192.39,745.472 1195.35,745.472 1198.31,745.472 1201.27,745.472 1204.23,745.472 1207.19,745.472 1210.16,745.472 1213.12,745.472 1216.08,745.472 1219.04,745.472 1222,745.472 1224.96,745.472 1227.92,745.472 1230.88,745.472 1233.85,745.472 1236.81,745.472 1239.77,745.472 1242.73,745.472 1245.69,745.472 1248.65,745.472 1251.61,745.472 1254.57,745.472 1257.54,745.472 1260.5,745.472 1263.46,745.472 1266.42,745.472 1269.38,745.472 1272.34,745.472 1275.3,745.472 1278.26,745.472 1281.23,745.472 1284.19,745.472 1287.15,745.472 1290.11,745.472 1293.07,745.472 1296.03,745.472 1298.99,745.472 1301.96,745.472 1304.92,745.472 1307.88,745.472 1310.84,745.472 1313.8,745.472 1316.76,745.472 1319.72,745.472 1322.68,745.472 1325.65,745.472 1328.61,745.472 1331.57,745.472 1334.53,745.472 1337.49,745.472 1340.45,745.472 1343.41,745.472 1346.37,745.472 1349.34,745.472 1352.3,745.472 1355.26,745.472 1358.22,745.472 1361.18,745.472 1364.14,745.472 1367.1,745.472 1370.06,745.472 1373.03,745.472 1375.99,745.472 1378.95,745.472 1381.91,745.472 1384.87,745.472 1387.83,745.472 1390.79,745.472 1393.75,745.472 1396.72,745.472 1399.68,745.472 1402.64,745.472 1405.6,745.472 1408.56,745.472 1411.52,745.472 1414.48,745.472 1417.45,745.472 1420.41,745.472 1423.37,745.472 1426.33,745.472 1429.29,745.472 1432.25,745.472 1435.21,745.472 1438.17,745.472 1441.14,745.472 1444.1,745.472 1447.06,745.472 1450.02,745.472 1452.98,745.472 1455.94,745.472 1458.9,745.472 1461.86,745.472 1464.83,745.472 1467.79,745.472 1470.75,745.472 1473.71,745.472 1476.67,745.472 1479.63,745.472 1482.59,745.472 1485.55,745.472 1488.52,745.472 1491.48,745.472 1494.44,745.472 1497.4,745.472 1500.36,745.472 1503.32,745.472 1506.28,745.472 1509.24,745.472 1512.21,745.472 1515.17,745.472 1518.13,745.472 1521.09,745.472 1524.05,745.472 1527.01,745.472 1529.97,745.472 1532.94,745.472 1535.9,745.472 1538.86,745.472 1541.82,745.472 1544.78,745.472 1547.74,745.472 1550.7,745.472 1553.66,745.472 1556.63,745.472 1559.59,745.472 1562.55,745.472 1565.51,745.472 1568.47,745.472 1571.43,745.472 1574.39,745.472 1577.35,745.472 1580.32,745.472 1583.28,745.472 1586.24,745.472 1589.2,745.472 1592.16,745.472 1595.12,745.472 1598.08,745.472 1601.04,745.472 1604.01,745.472 1606.97,745.472 1609.93,745.472 1612.89,745.472 1615.85,745.472 1618.81,745.472 1621.77,745.472 1624.73,745.472 1627.7,745.472 1630.66,745.472 1633.62,745.472 1636.58,745.472 1639.54,745.472 1642.5,745.472 1645.46,745.472 1648.43,745.472 1651.39,745.472 1654.35,745.472 1657.31,745.472 1660.27,745.472 1663.23,745.472 1666.19,745.472 1669.15,745.472 1672.12,745.472 1675.08,745.472 1678.04,745.472 1681,745.472 1683.96,745.472 1686.92,745.472 1689.88,745.472 1692.84,745.472 1695.81,745.472 1698.77,745.472 1701.73,745.472 1704.69,745.472 1707.65,745.472 1710.61,745.472 1713.57,745.472 1716.53,745.472 1719.5,745.472 1722.46,745.472 1725.42,745.472 1728.38,745.472 1731.34,745.472 1734.3,745.472 1737.26,745.472 1740.22,745.472 1743.19,745.472 1746.15,745.472 1749.11,745.472 1752.07,745.472 1755.03,745.472 1757.99,745.472 1760.95,745.472 1763.92,745.472 1766.88,745.472 1769.84,745.472 1772.8,745.472 1775.76,745.472 1778.72,745.472 1781.68,745.472 1784.64,745.472 1787.61,745.472 1790.57,745.472 1793.53,745.472 1796.49,745.472 1799.45,745.472 1802.41,745.472 1805.37,745.472 1808.33,745.472 1811.3,745.472 1814.26,745.472 1817.22,745.472 1820.18,745.472 1823.14,745.472 1826.1,745.472 1829.06,745.472 1832.02,745.472 1834.99,745.472 1837.95,745.472 1840.91,745.472 1843.87,745.472 1846.83,745.472 1849.79,745.472 1852.75,745.472 1855.71,745.472 1858.68,745.472 1861.64,745.472 1864.6,745.472 1867.56,745.472 1870.52,745.472 1873.48,745.472 1876.44,745.472 1879.41,745.472 1882.37,745.472 1885.33,745.472 1888.29,745.472 1891.25,745.472 1894.21,745.472 1897.17,745.472 1900.13,745.472 1903.1,745.472 1906.06,745.472 1909.02,745.472 1911.98,745.472 1914.94,745.472 1917.9,745.472 1920.86,745.472 1923.82,745.472 1926.79,745.472 1929.75,745.472 1932.71,745.472 1935.67,745.472 1938.63,745.472 1941.59,745.472 1944.55,745.472 1947.51,745.472 1950.48,745.472 1953.44,745.472 1956.4,745.472 1959.36,745.472 1962.32,745.472 1965.28,745.472 1968.24,745.472 1971.2,745.472 1974.17,745.472 1977.13,745.472 1980.09,745.472 1983.05,745.472 1986.01,745.472 1988.97,745.472 1991.93,745.472 1994.89,745.472 1997.86,745.472 2000.82,745.472 2003.78,745.472 2006.74,745.472 2009.7,745.472 2012.66,745.472 2015.62,745.472 2018.59,745.472 2021.55,745.472 2024.51,745.472 2027.47,745.472 2030.43,745.472 2033.39,745.472 2036.35,745.472 2039.31,745.472 2042.28,745.472 2045.24,745.472 2048.2,745.472 2051.16,745.472 2054.12,745.472 2057.08,745.472 2060.04,745.472 2063,745.472 2065.97,745.472 2068.93,745.472 2071.89,745.472 2074.85,745.472 2077.81,745.472 2080.77,745.472 2083.73,745.472 2086.69,745.472 2089.66,745.472 2092.62,745.472 2095.58,745.472 2098.54,745.472 2101.5,745.472 2104.46,745.472 2107.42,745.472 2110.38,745.472 2113.35,745.472 2116.31,745.472 2119.27,745.472 2122.23,745.472 2125.19,745.472 2128.15,745.472 2131.11,745.472 2134.08,745.472 2137.04,745.472 2140,745.472 2142.96,745.472 2145.92,745.472 2148.88,745.472 2151.84,745.472 2154.8,745.472 2157.77,745.472 2160.73,745.472 2163.69,745.472 2166.65,745.472 2169.61,745.472 2172.57,745.472 2175.53,745.472 2178.49,745.472 2181.46,745.472 2184.42,745.472 2187.38,745.472 2190.34,745.472 2193.3,745.472 2196.26,745.472 2199.22,745.472 2202.18,745.472 2205.15,745.472 2208.11,745.472 2211.07,745.472 2214.03,745.472 2216.99,745.472 2219.95,745.472 2222.91,745.472 2225.87,745.472 2228.84,745.472 2231.8,745.472 2234.76,745.472 2237.72,745.472 2240.68,745.472 2243.64,745.472 2246.6,745.472 2249.57,745.472 2252.53,745.472 2255.49,745.472 2258.45,745.472 2261.41,745.472 2264.37,745.472 2267.33,745.472 2270.29,745.472 2273.26,745.472 2276.22,745.472 2279.18,745.472 2282.14,745.472 2285.1,745.472 2288.06,745.472 2291.02,745.472 2293.98,745.472 2296.95,745.472 2299.91,745.472 2302.87,745.472 2305.83,745.472 2308.79,745.472 2311.75,745.472 2314.71,745.472 2317.67,745.472 2320.64,745.472 2323.6,745.472 2326.56,745.472 2329.52,745.472 2332.48,745.472 2335.44,745.472 2338.4,745.472 2341.36,745.472 2344.33,745.472 2347.29,745.472 2350.25,745.472 2353.21,745.472 2356.17,745.472 2359.13,745.472 2362.09,745.472 2365.06,745.472 2368.02,745.472 2370.98,745.472 2373.94,745.472 2376.9,745.472 2379.86,745.472 2382.82,745.472 2385.78,745.472 2388.75,745.472 2391.71,745.472 2394.67,745.472 2397.63,745.472 2400.59,745.472 2403.55,745.472 2406.51,745.472 2409.47,745.472 2412.44,745.472 2415.4,745.472 2418.36,745.472 2421.32,745.472 2424.28,745.472 2427.24,745.472 2430.2,745.472 2433.16,745.472 2436.13,745.472 2439.09,745.472 2442.05,745.472 2445.01,745.472 2447.97,745.472 2450.93,745.472 2453.89,745.472 2456.85,745.472 2459.82,745.472 2462.78,745.472 2465.74,745.472 2468.7,745.472 2471.66,745.472 2474.62,745.472 2477.58,745.472 2480.55,745.472 2483.51,745.472 2486.47,745.472 2489.43,745.472 2492.39,745.472 2495.35,745.472 2498.31,745.472 2501.27,745.472 2504.24,745.472 2507.2,745.472 2510.16,745.472 2513.12,745.472 2516.08,745.472 2519.04,745.472 2522,745.472 2524.96,745.472 2527.93,745.472 2530.89,745.472 2533.85,745.472 2536.81,745.472 2539.77,745.472 2542.73,745.472 2545.69,745.472 2548.65,745.472 2551.62,745.472 2554.58,745.472 2557.54,745.472 2560.5,745.472 2563.46,745.472 2566.42,745.472 2569.38,745.472 2572.34,745.472 2575.31,745.472 2578.27,745.472 2581.23,745.472 2584.19,745.472 2587.15,745.472 2590.11,745.472 2593.07,745.472 2596.04,745.472 2599,745.472 2601.96,745.472 2604.92,745.472 2607.88,745.472 2610.84,745.472 2613.8,745.472 2616.76,745.472 2619.73,745.472 2622.69,745.472 2625.65,745.472 2628.61,745.472 2631.57,745.472 2634.53,745.472 2637.49,745.472 2640.45,745.472 2643.42,745.472 2646.38,745.472 2649.34,745.472 2652.3,745.472 2655.26,745.472 2658.22,745.472 2661.18,745.472 2664.14,745.472 2667.11,745.472 2670.07,745.472 2673.03,745.472 2675.99,745.472 2678.95,745.472 2681.91,745.472 2684.87,745.472 2687.83,745.472 2690.8,745.472 2693.76,745.472 2696.72,745.472 2699.68,745.472 2702.64,745.472 2705.6,745.472 2708.56,745.472 2711.53,745.472 2714.49,745.472 2717.45,745.472 2720.41,745.472 2723.37,745.472 2726.33,745.472 2729.29,745.472 2732.25,745.472 2735.22,745.472 2738.18,745.472 2741.14,745.472 2744.1,745.472 2747.06,745.472 2750.02,745.472 2752.98,745.472 2755.94,745.472 2758.91,745.472 2761.87,745.472 2764.83,745.472 2767.79,745.472 2770.75,745.472 2773.71,745.472 2776.67,745.472 2779.63,745.472 2782.6,745.472 2785.56,745.472 2788.52,745.472 2791.48,745.472 2794.44,745.472 2797.4,745.472 2800.36,745.472 2803.32,745.472 2806.29,745.472 2809.25,745.472 2812.21,745.472 2815.17,745.472 2818.13,745.472 2821.09,745.472 2824.05,745.472 2827.01,745.472 2829.98,745.472 2832.94,745.472 2835.9,745.472 2838.86,745.472 2841.82,745.472 2844.78,745.472 2847.74,745.472 2850.71,745.472 2853.67,745.472 2856.63,745.472 2859.59,745.472 2862.55,745.472 2865.51,745.472 2868.47,745.472 2871.43,745.472 2874.4,745.472 2877.36,745.472 2880.32,745.472 2883.28,745.472 2886.24,745.472 2889.2,745.472 2892.16,745.472 2895.12,745.472 2898.09,745.472 2901.05,745.472 2904.01,745.472 2906.97,745.472 2909.93,745.472 2912.89,745.472 2915.85,745.472 2918.81,745.472 2921.78,745.472 2924.74,745.472 2927.7,745.472 2930.66,745.472 2933.62,745.472 2936.58,745.472 2939.54,745.472 2942.5,745.472 2945.47,745.472 2948.43,745.472 2951.39,745.472 2954.35,745.472 2957.31,745.472 2960.27,745.472 2963.23,745.472 2966.2,745.472 2969.16,745.472 2972.12,745.472 2975.08,745.472 2978.04,745.472 2981,745.472 2983.96,745.472 2986.92,745.472 2989.89,745.472 2992.85,745.472 2995.81,745.472 2998.77,745.472 3001.73,745.472 3004.69,745.472 3007.65,745.472 3010.61,745.472 3013.58,745.472 3016.54,745.472 3019.5,745.472 3022.46,745.472 3025.42,745.472 3028.38,745.472 3031.34,745.472 3034.3,745.472 3037.27,745.472 3040.23,745.472 3043.19,745.472 3046.15,745.472 3049.11,745.472 3052.07,745.472 3055.03,745.472 3057.99,745.472 3060.96,745.472 3063.92,745.472 3066.88,745.472 3069.84,745.472 3072.8,745.472 3075.76,745.472 3078.72,745.472 3081.69,745.472 3084.65,745.472 3087.61,745.472 3090.57,745.472 3093.53,745.472 3096.49,745.472 3099.45,745.472 3102.41,745.472 3105.38,745.472 3108.34,745.472 3111.3,745.472 3114.26,745.472 3117.22,745.472 3120.18,745.472 3123.14,745.472 3126.1,745.472 3129.07,745.472 3132.03,745.472 3134.99,745.472 3137.95,745.472 3140.91,745.472 3143.87,745.472 3146.83,745.472 3149.79,745.472 3152.76,745.472 "/>
<path clip-path="url(#clip440)" d="M2662.2 197.473 L3054.15 197.473 L3054.15 93.7926 L2662.2 93.7926  Z" fill="#ffffff" fill-rule="evenodd" fill-opacity="1"/>
<polyline clip-path="url(#clip440)" style="stroke:#000000; stroke-linecap:round; stroke-linejoin:round; stroke-width:4; stroke-opacity:1; fill:none" points="2662.2,197.473 3054.15,197.473 3054.15,93.7926 2662.2,93.7926 2662.2,197.473 "/>
<polyline clip-path="url(#clip440)" style="stroke:#009af9; stroke-linecap:round; stroke-linejoin:round; stroke-width:12; stroke-opacity:1; fill:none" points="2695.07,145.633 2892.29,145.633 "/>
<path clip-path="url(#clip440)" d="M2926.74 128.353 L2931.76 128.353 L2940.35 141.2 L2948.98 128.353 L2954.01 128.353 L2942.9 144.95 L2954.75 162.913 L2949.72 162.913 L2940 148.214 L2930.21 162.913 L2925.16 162.913 L2937.5 144.464 L2926.74 128.353 Z" fill="#000000" fill-rule="nonzero" fill-opacity="1" /><path clip-path="url(#clip440)" d="M2964.91 129.626 L2964.91 136.987 L2973.68 136.987 L2973.68 140.297 L2964.91 140.297 L2964.91 154.371 Q2964.91 157.542 2965.77 158.445 Q2966.65 159.348 2969.31 159.348 L2973.68 159.348 L2973.68 162.913 L2969.31 162.913 Q2964.38 162.913 2962.5 161.084 Q2960.63 159.232 2960.63 154.371 L2960.63 140.297 L2957.5 140.297 L2957.5 136.987 L2960.63 136.987 L2960.63 129.626 L2964.91 129.626 Z" fill="#000000" fill-rule="nonzero" fill-opacity="1" /><path clip-path="url(#clip440)" d="M2989.33 139.973 Q2985.9 139.973 2983.91 142.658 Q2981.92 145.32 2981.92 149.973 Q2981.92 154.626 2983.89 157.311 Q2985.88 159.973 2989.33 159.973 Q2992.73 159.973 2994.72 157.288 Q2996.71 154.602 2996.71 149.973 Q2996.71 145.366 2994.72 142.681 Q2992.73 139.973 2989.33 139.973 M2989.33 136.362 Q2994.89 136.362 2998.06 139.973 Q3001.23 143.584 3001.23 149.973 Q3001.23 156.339 2998.06 159.973 Q2994.89 163.584 2989.33 163.584 Q2983.75 163.584 2980.58 159.973 Q2977.43 156.339 2977.43 149.973 Q2977.43 143.584 2980.58 139.973 Q2983.75 136.362 2989.33 136.362 Z" fill="#000000" fill-rule="nonzero" fill-opacity="1" /><path clip-path="url(#clip440)" d="M3012.5 129.626 L3012.5 136.987 L3021.28 136.987 L3021.28 140.297 L3012.5 140.297 L3012.5 154.371 Q3012.5 157.542 3013.36 158.445 Q3014.24 159.348 3016.9 159.348 L3021.28 159.348 L3021.28 162.913 L3016.9 162.913 Q3011.97 162.913 3010.09 161.084 Q3008.22 159.232 3008.22 154.371 L3008.22 140.297 L3005.09 140.297 L3005.09 136.987 L3008.22 136.987 L3008.22 129.626 L3012.5 129.626 Z" fill="#000000" fill-rule="nonzero" fill-opacity="1" /></svg>
