<?xml version="1.0" encoding="utf-8"?>
<svg xmlns="http://www.w3.org/2000/svg" xmlns:xlink="http://www.w3.org/1999/xlink" width="800" height="400" viewBox="0 0 3200 1600">
<defs>
  <clipPath id="clip120">
    <rect x="0" y="0" width="3200" height="1600"/>
  </clipPath>
</defs>
<path clip-path="url(#clip120)" d="M0 1600 L3200 1600 L3200 0 L0 0  Z" fill="#ffffff" fill-rule="evenodd" fill-opacity="1"/>
<defs>
  <clipPath id="clip121">
    <rect x="640" y="0" width="2241" height="1600"/>
  </clipPath>
</defs>
<path clip-path="url(#clip120)" d="M200.084 1443.7 L3152.76 1443.7 L3152.76 47.2441 L200.084 47.2441  Z" fill="#ffffff" fill-rule="evenodd" fill-opacity="1"/>
<defs>
  <clipPath id="clip122">
    <rect x="200" y="47" width="2954" height="1397"/>
  </clipPath>
</defs>
<polyline clip-path="url(#clip120)" style="stroke:#000000; stroke-linecap:round; stroke-linejoin:round; stroke-width:4; stroke-opacity:1; fill:none" points="200.084,1443.7 3152.76,1443.7 "/>
<polyline clip-path="url(#clip120)" style="stroke:#000000; stroke-linecap:round; stroke-linejoin:round; stroke-width:4; stroke-opacity:1; fill:none" points="200.084,47.2441 3152.76,47.2441 "/>
<polyline clip-path="url(#clip120)" style="stroke:#000000; stroke-linecap:round; stroke-linejoin:round; stroke-width:4; stroke-opacity:1; fill:none" points="200.084,1443.7 200.084,1424.8 "/>
<polyline clip-path="url(#clip120)" style="stroke:#000000; stroke-linecap:round; stroke-linejoin:round; stroke-width:4; stroke-opacity:1; fill:none" points="938.252,1443.7 938.252,1424.8 "/>
<polyline clip-path="url(#clip120)" style="stroke:#000000; stroke-linecap:round; stroke-linejoin:round; stroke-width:4; stroke-opacity:1; fill:none" points="1676.42,1443.7 1676.42,1424.8 "/>
<polyline clip-path="url(#clip120)" style="stroke:#000000; stroke-linecap:round; stroke-linejoin:round; stroke-width:4; stroke-opacity:1; fill:none" points="2414.59,1443.7 2414.59,1424.8 "/>
<polyline clip-path="url(#clip120)" style="stroke:#000000; stroke-linecap:round; stroke-linejoin:round; stroke-width:4; stroke-opacity:1; fill:none" points="3152.76,1443.7 3152.76,1424.8 "/>
<polyline clip-path="url(#clip120)" style="stroke:#000000; stroke-linecap:round; stroke-linejoin:round; stroke-width:4; stroke-opacity:1; fill:none" points="200.084,47.2441 200.084,66.1417 "/>
<polyline clip-path="url(#clip120)" style="stroke:#000000; stroke-linecap:round; stroke-linejoin:round; stroke-width:4; stroke-opacity:1; fill:none" points="938.252,47.2441 938.252,66.1417 "/>
<polyline clip-path="url(#clip120)" style="stroke:#000000; stroke-linecap:round; stroke-linejoin:round; stroke-width:4; stroke-opacity:1; fill:none" points="1676.42,47.2441 1676.42,66.1417 "/>
<polyline clip-path="url(#clip120)" style="stroke:#000000; stroke-linecap:round; stroke-linejoin:round; stroke-width:4; stroke-opacity:1; fill:none" points="2414.59,47.2441 2414.59,66.1417 "/>
<polyline clip-path="url(#clip120)" style="stroke:#000000; stroke-linecap:round; stroke-linejoin:round; stroke-width:4; stroke-opacity:1; fill:none" points="3152.76,47.2441 3152.76,66.1417 "/>
<path clip-path="url(#clip120)" d="M200.084 1481.02 Q196.472 1481.02 194.644 1484.58 Q192.838 1488.12 192.838 1495.25 Q192.838 1502.36 194.644 1505.93 Q196.472 1509.47 200.084 1509.47 Q203.718 1509.47 205.523 1505.93 Q207.352 1502.36 207.352 1495.25 Q207.352 1488.12 205.523 1484.58 Q203.718 1481.02 200.084 1481.02 M200.084 1477.31 Q205.894 1477.31 208.949 1481.92 Q212.028 1486.5 212.028 1495.25 Q212.028 1503.98 208.949 1508.59 Q205.894 1513.17 200.084 1513.17 Q194.273 1513.17 191.195 1508.59 Q188.139 1503.98 188.139 1495.25 Q188.139 1486.5 191.195 1481.92 Q194.273 1477.31 200.084 1477.31 Z" fill="#000000" fill-rule="nonzero" fill-opacity="1" /><path clip-path="url(#clip120)" d="M928.529 1477.94 L946.886 1477.94 L946.886 1481.88 L932.812 1481.88 L932.812 1490.35 Q933.83 1490 934.849 1489.84 Q935.867 1489.65 936.886 1489.65 Q942.673 1489.65 946.053 1492.82 Q949.432 1496 949.432 1501.41 Q949.432 1506.99 945.96 1510.09 Q942.488 1513.17 936.168 1513.17 Q933.992 1513.17 931.724 1512.8 Q929.479 1512.43 927.071 1511.69 L927.071 1506.99 Q929.154 1508.12 931.377 1508.68 Q933.599 1509.24 936.076 1509.24 Q940.08 1509.24 942.418 1507.13 Q944.756 1505.02 944.756 1501.41 Q944.756 1497.8 942.418 1495.69 Q940.08 1493.59 936.076 1493.59 Q934.201 1493.59 932.326 1494 Q930.474 1494.42 928.529 1495.3 L928.529 1477.94 Z" fill="#000000" fill-rule="nonzero" fill-opacity="1" /><path clip-path="url(#clip120)" d="M1651.11 1508.56 L1658.75 1508.56 L1658.75 1482.2 L1650.44 1483.87 L1650.44 1479.61 L1658.7 1477.94 L1663.38 1477.94 L1663.38 1508.56 L1671.01 1508.56 L1671.01 1512.5 L1651.11 1512.5 L1651.11 1508.56 Z" fill="#000000" fill-rule="nonzero" fill-opacity="1" /><path clip-path="url(#clip120)" d="M1690.46 1481.02 Q1686.85 1481.02 1685.02 1484.58 Q1683.21 1488.12 1683.21 1495.25 Q1683.21 1502.36 1685.02 1505.93 Q1686.85 1509.47 1690.46 1509.47 Q1694.09 1509.47 1695.9 1505.93 Q1697.73 1502.36 1697.73 1495.25 Q1697.73 1488.12 1695.9 1484.58 Q1694.09 1481.02 1690.46 1481.02 M1690.46 1477.31 Q1696.27 1477.31 1699.32 1481.92 Q1702.4 1486.5 1702.4 1495.25 Q1702.4 1503.98 1699.32 1508.59 Q1696.27 1513.17 1690.46 1513.17 Q1684.65 1513.17 1681.57 1508.59 Q1678.51 1503.98 1678.51 1495.25 Q1678.51 1486.5 1681.57 1481.92 Q1684.65 1477.31 1690.46 1477.31 Z" fill="#000000" fill-rule="nonzero" fill-opacity="1" /><path clip-path="url(#clip120)" d="M2389.77 1508.56 L2397.41 1508.56 L2397.41 1482.2 L2389.1 1483.87 L2389.1 1479.61 L2397.37 1477.94 L2402.04 1477.94 L2402.04 1508.56 L2409.68 1508.56 L2409.68 1512.5 L2389.77 1512.5 L2389.77 1508.56 Z" fill="#000000" fill-rule="nonzero" fill-opacity="1" /><path clip-path="url(#clip120)" d="M2419.17 1477.94 L2437.53 1477.94 L2437.53 1481.88 L2423.45 1481.88 L2423.45 1490.35 Q2424.47 1490 2425.49 1489.84 Q2426.51 1489.65 2427.53 1489.65 Q2433.31 1489.65 2436.69 1492.82 Q2440.07 1496 2440.07 1501.41 Q2440.07 1506.99 2436.6 1510.09 Q2433.13 1513.17 2426.81 1513.17 Q2424.63 1513.17 2422.37 1512.8 Q2420.12 1512.43 2417.71 1511.69 L2417.71 1506.99 Q2419.8 1508.12 2422.02 1508.68 Q2424.24 1509.24 2426.72 1509.24 Q2430.72 1509.24 2433.06 1507.13 Q2435.4 1505.02 2435.4 1501.41 Q2435.4 1497.8 2433.06 1495.69 Q2430.72 1493.59 2426.72 1493.59 Q2424.84 1493.59 2422.97 1494 Q2421.12 1494.42 2419.17 1495.3 L2419.17 1477.94 Z" fill="#000000" fill-rule="nonzero" fill-opacity="1" /><path clip-path="url(#clip120)" d="M3131.53 1508.56 L3147.85 1508.56 L3147.85 1512.5 L3125.9 1512.5 L3125.9 1508.56 Q3128.57 1505.81 3133.15 1501.18 Q3137.76 1496.53 3138.94 1495.19 Q3141.18 1492.66 3142.06 1490.93 Q3142.96 1489.17 3142.96 1487.48 Q3142.96 1484.72 3141.02 1482.99 Q3139.1 1481.25 3136 1481.25 Q3133.8 1481.25 3131.34 1482.01 Q3128.91 1482.78 3126.14 1484.33 L3126.14 1479.61 Q3128.96 1478.47 3131.41 1477.89 Q3133.87 1477.31 3135.9 1477.31 Q3141.27 1477.31 3144.47 1480 Q3147.66 1482.69 3147.66 1487.18 Q3147.66 1489.31 3146.85 1491.23 Q3146.07 1493.12 3143.96 1495.72 Q3143.38 1496.39 3140.28 1499.61 Q3137.18 1502.8 3131.53 1508.56 Z" fill="#000000" fill-rule="nonzero" fill-opacity="1" /><path clip-path="url(#clip120)" d="M3167.66 1481.02 Q3164.05 1481.02 3162.22 1484.58 Q3160.42 1488.12 3160.42 1495.25 Q3160.42 1502.36 3162.22 1505.93 Q3164.05 1509.47 3167.66 1509.47 Q3171.3 1509.47 3173.1 1505.93 Q3174.93 1502.36 3174.93 1495.25 Q3174.93 1488.12 3173.1 1484.58 Q3171.3 1481.02 3167.66 1481.02 M3167.66 1477.31 Q3173.47 1477.31 3176.53 1481.92 Q3179.61 1486.5 3179.61 1495.25 Q3179.61 1503.98 3176.53 1508.59 Q3173.47 1513.17 3167.66 1513.17 Q3161.85 1513.17 3158.77 1508.59 Q3155.72 1503.98 3155.72 1495.25 Q3155.72 1486.5 3158.77 1481.92 Q3161.85 1477.31 3167.66 1477.31 Z" fill="#000000" fill-rule="nonzero" fill-opacity="1" /><path clip-path="url(#clip120)" d="M1659.07 1564.92 L1665.28 1564.92 L1676.42 1594.83 L1687.56 1564.92 L1693.77 1564.92 L1680.4 1600.56 L1672.44 1600.56 L1659.07 1564.92 Z" fill="#000000" fill-rule="nonzero" fill-opacity="1" /><polyline clip-path="url(#clip120)" style="stroke:#000000; stroke-linecap:round; stroke-linejoin:round; stroke-width:4; stroke-opacity:1; fill:none" points="200.084,1443.7 200.084,47.2441 "/>
<polyline clip-path="url(#clip120)" style="stroke:#000000; stroke-linecap:round; stroke-linejoin:round; stroke-width:4; stroke-opacity:1; fill:none" points="3152.76,1443.7 3152.76,47.2441 "/>
<polyline clip-path="url(#clip120)" style="stroke:#000000; stroke-linecap:round; stroke-linejoin:round; stroke-width:4; stroke-opacity:1; fill:none" points="200.084,1443.7 218.981,1443.7 "/>
<polyline clip-path="url(#clip120)" style="stroke:#000000; stroke-linecap:round; stroke-linejoin:round; stroke-width:4; stroke-opacity:1; fill:none" points="200.084,1113.7 218.981,1113.7 "/>
<polyline clip-path="url(#clip120)" style="stroke:#000000; stroke-linecap:round; stroke-linejoin:round; stroke-width:4; stroke-opacity:1; fill:none" points="200.084,783.707 218.981,783.707 "/>
<polyline clip-path="url(#clip120)" style="stroke:#000000; stroke-linecap:round; stroke-linejoin:round; stroke-width:4; stroke-opacity:1; fill:none" points="200.084,453.711 218.981,453.711 "/>
<polyline clip-path="url(#clip120)" style="stroke:#000000; stroke-linecap:round; stroke-linejoin:round; stroke-width:4; stroke-opacity:1; fill:none" points="200.084,123.715 218.981,123.715 "/>
<polyline clip-path="url(#clip120)" style="stroke:#000000; stroke-linecap:round; stroke-linejoin:round; stroke-width:4; stroke-opacity:1; fill:none" points="3152.76,1443.7 3133.86,1443.7 "/>
<polyline clip-path="url(#clip120)" style="stroke:#000000; stroke-linecap:round; stroke-linejoin:round; stroke-width:4; stroke-opacity:1; fill:none" points="3152.76,1113.7 3133.86,1113.7 "/>
<polyline clip-path="url(#clip120)" style="stroke:#000000; stroke-linecap:round; stroke-linejoin:round; stroke-width:4; stroke-opacity:1; fill:none" points="3152.76,783.707 3133.86,783.707 "/>
<polyline clip-path="url(#clip120)" style="stroke:#000000; stroke-linecap:round; stroke-linejoin:round; stroke-width:4; stroke-opacity:1; fill:none" points="3152.76,453.711 3133.86,453.711 "/>
<polyline clip-path="url(#clip120)" style="stroke:#000000; stroke-linecap:round; stroke-linejoin:round; stroke-width:4; stroke-opacity:1; fill:none" points="3152.76,123.715 3133.86,123.715 "/>
<path clip-path="url(#clip120)" d="M140.139 1429.5 Q136.528 1429.5 134.699 1433.06 Q132.894 1436.6 132.894 1443.73 Q132.894 1450.84 134.699 1454.41 Q136.528 1457.95 140.139 1457.95 Q143.773 1457.95 145.579 1454.41 Q147.408 1450.84 147.408 1443.73 Q147.408 1436.6 145.579 1433.06 Q143.773 1429.5 140.139 1429.5 M140.139 1425.79 Q145.949 1425.79 149.005 1430.4 Q152.084 1434.98 152.084 1443.73 Q152.084 1452.46 149.005 1457.07 Q145.949 1461.65 140.139 1461.65 Q134.329 1461.65 131.25 1457.07 Q128.195 1452.46 128.195 1443.73 Q128.195 1434.98 131.25 1430.4 Q134.329 1425.79 140.139 1425.79 Z" fill="#000000" fill-rule="nonzero" fill-opacity="1" /><path clip-path="url(#clip120)" d="M131.181 1096.42 L149.537 1096.42 L149.537 1100.36 L135.463 1100.36 L135.463 1108.83 Q136.482 1108.48 137.5 1108.32 Q138.519 1108.14 139.537 1108.14 Q145.324 1108.14 148.704 1111.31 Q152.084 1114.48 152.084 1119.9 Q152.084 1125.47 148.611 1128.58 Q145.139 1131.65 138.82 1131.65 Q136.644 1131.65 134.375 1131.28 Q132.13 1130.91 129.723 1130.17 L129.723 1125.47 Q131.806 1126.61 134.028 1127.16 Q136.25 1127.72 138.727 1127.72 Q142.732 1127.72 145.07 1125.61 Q147.408 1123.51 147.408 1119.9 Q147.408 1116.28 145.07 1114.18 Q142.732 1112.07 138.727 1112.07 Q136.852 1112.07 134.977 1112.49 Q133.125 1112.9 131.181 1113.78 L131.181 1096.42 Z" fill="#000000" fill-rule="nonzero" fill-opacity="1" /><path clip-path="url(#clip120)" d="M100.788 797.052 L108.426 797.052 L108.426 770.686 L100.116 772.353 L100.116 768.094 L108.38 766.427 L113.056 766.427 L113.056 797.052 L120.695 797.052 L120.695 800.987 L100.788 800.987 L100.788 797.052 Z" fill="#000000" fill-rule="nonzero" fill-opacity="1" /><path clip-path="url(#clip120)" d="M140.139 769.506 Q136.528 769.506 134.699 773.071 Q132.894 776.612 132.894 783.742 Q132.894 790.848 134.699 794.413 Q136.528 797.955 140.139 797.955 Q143.773 797.955 145.579 794.413 Q147.408 790.848 147.408 783.742 Q147.408 776.612 145.579 773.071 Q143.773 769.506 140.139 769.506 M140.139 765.802 Q145.949 765.802 149.005 770.409 Q152.084 774.992 152.084 783.742 Q152.084 792.469 149.005 797.075 Q145.949 801.659 140.139 801.659 Q134.329 801.659 131.25 797.075 Q128.195 792.469 128.195 783.742 Q128.195 774.992 131.25 770.409 Q134.329 765.802 140.139 765.802 Z" fill="#000000" fill-rule="nonzero" fill-opacity="1" /><path clip-path="url(#clip120)" d="M101.783 467.056 L109.422 467.056 L109.422 440.69 L101.112 442.357 L101.112 438.098 L109.375 436.431 L114.051 436.431 L114.051 467.056 L121.69 467.056 L121.69 470.991 L101.783 470.991 L101.783 467.056 Z" fill="#000000" fill-rule="nonzero" fill-opacity="1" /><path clip-path="url(#clip120)" d="M131.181 436.431 L149.537 436.431 L149.537 440.366 L135.463 440.366 L135.463 448.838 Q136.482 448.491 137.5 448.329 Q138.519 448.144 139.537 448.144 Q145.324 448.144 148.704 451.315 Q152.084 454.486 152.084 459.903 Q152.084 465.482 148.611 468.584 Q145.139 471.662 138.82 471.662 Q136.644 471.662 134.375 471.292 Q132.13 470.922 129.723 470.181 L129.723 465.482 Q131.806 466.616 134.028 467.172 Q136.25 467.727 138.727 467.727 Q142.732 467.727 145.07 465.621 Q147.408 463.514 147.408 459.903 Q147.408 456.292 145.07 454.185 Q142.732 452.079 138.727 452.079 Q136.852 452.079 134.977 452.496 Q133.125 452.912 131.181 453.792 L131.181 436.431 Z" fill="#000000" fill-rule="nonzero" fill-opacity="1" /><path clip-path="url(#clip120)" d="M104.005 137.06 L120.324 137.06 L120.324 140.995 L98.3802 140.995 L98.3802 137.06 Q101.042 134.305 105.625 129.675 Q110.232 125.023 111.412 123.68 Q113.658 121.157 114.537 119.421 Q115.44 117.661 115.44 115.972 Q115.44 113.217 113.496 111.481 Q111.575 109.745 108.473 109.745 Q106.274 109.745 103.82 110.509 Q101.389 111.273 98.6116 112.824 L98.6116 108.101 Q101.436 106.967 103.889 106.388 Q106.343 105.81 108.38 105.81 Q113.75 105.81 116.945 108.495 Q120.139 111.18 120.139 115.671 Q120.139 117.8 119.329 119.722 Q118.542 121.62 116.436 124.212 Q115.857 124.884 112.755 128.101 Q109.653 131.296 104.005 137.06 Z" fill="#000000" fill-rule="nonzero" fill-opacity="1" /><path clip-path="url(#clip120)" d="M140.139 109.513 Q136.528 109.513 134.699 113.078 Q132.894 116.62 132.894 123.749 Q132.894 130.856 134.699 134.421 Q136.528 137.962 140.139 137.962 Q143.773 137.962 145.579 134.421 Q147.408 130.856 147.408 123.749 Q147.408 116.62 145.579 113.078 Q143.773 109.513 140.139 109.513 M140.139 105.81 Q145.949 105.81 149.005 110.416 Q152.084 114.999 152.084 123.749 Q152.084 132.476 149.005 137.083 Q145.949 141.666 140.139 141.666 Q134.329 141.666 131.25 137.083 Q128.195 132.476 128.195 123.749 Q128.195 114.999 131.25 110.416 Q134.329 105.81 140.139 105.81 Z" fill="#000000" fill-rule="nonzero" fill-opacity="1" /><path clip-path="url(#clip120)" d="M-6.11231 948.952 L11.7435 948.952 L11.7435 940.867 Q11.7435 936.38 9.42002 933.929 Q7.09654 931.478 2.79968 931.478 Q-1.46534 931.478 -3.78882 933.929 Q-6.11231 936.38 -6.11231 940.867 L-6.11231 948.952 M-11.3958 955.381 L-11.3958 940.867 Q-11.3958 932.878 -7.76739 928.804 Q-4.17077 924.698 2.79968 924.698 Q9.83379 924.698 13.4304 928.804 Q17.027 932.878 17.027 940.867 L17.027 948.952 L36.1242 948.952 L36.1242 955.381 L-11.3958 955.381 Z" fill="#000000" fill-rule="nonzero" fill-opacity="1" /><path clip-path="url(#clip120)" d="M16.8361 888.159 L19.7006 888.159 L19.7006 915.086 Q25.7481 914.704 28.9309 911.458 Q32.0819 908.179 32.0819 902.355 Q32.0819 898.981 31.2544 895.83 Q30.4269 892.647 28.7718 889.528 L34.3099 889.528 Q35.6467 892.679 36.347 895.989 Q37.0472 899.299 37.0472 902.705 Q37.0472 911.235 32.0819 916.232 Q27.1167 921.197 18.6503 921.197 Q9.89745 921.197 4.77305 916.487 Q-0.38317 911.744 -0.38317 903.723 Q-0.38317 896.53 4.2638 892.361 Q8.87893 888.159 16.8361 888.159 M15.1173 894.016 Q10.3112 894.079 7.44665 896.721 Q4.58208 899.331 4.58208 903.66 Q4.58208 908.561 7.35116 911.521 Q10.1202 914.45 15.1492 914.895 L15.1173 894.016 Z" fill="#000000" fill-rule="nonzero" fill-opacity="1" /><path clip-path="url(#clip120)" d="M5.95071 857.89 Q5.37779 858.877 5.12317 860.055 Q4.83671 861.201 4.83671 862.601 Q4.83671 867.566 8.08322 870.24 Q11.2979 872.882 17.3453 872.882 L36.1242 872.882 L36.1242 878.77 L0.4762 878.77 L0.4762 872.882 L6.01437 872.882 Q2.76785 871.036 1.20826 868.075 Q-0.38317 865.115 -0.38317 860.882 Q-0.38317 860.277 -0.287684 859.545 Q-0.224027 858.813 -0.0648847 857.922 L5.95071 857.89 Z" fill="#000000" fill-rule="nonzero" fill-opacity="1" /><path clip-path="url(#clip120)" d="M0.4762 851.747 L0.4762 845.891 L36.1242 845.891 L36.1242 851.747 L0.4762 851.747 M-13.401 851.747 L-13.401 845.891 L-5.98499 845.891 L-5.98499 851.747 L-13.401 851.747 Z" fill="#000000" fill-rule="nonzero" fill-opacity="1" /><path clip-path="url(#clip120)" d="M4.58208 819.823 Q4.58208 824.534 8.27419 827.271 Q11.9345 830.009 18.332 830.009 Q24.7295 830.009 28.4217 827.303 Q32.0819 824.566 32.0819 819.823 Q32.0819 815.145 28.3898 812.407 Q24.6977 809.67 18.332 809.67 Q11.9981 809.67 8.30602 812.407 Q4.58208 815.145 4.58208 819.823 M-0.38317 819.823 Q-0.38317 812.185 4.58208 807.824 Q9.54733 803.464 18.332 803.464 Q27.0849 803.464 32.0819 807.824 Q37.0472 812.185 37.0472 819.823 Q37.0472 827.494 32.0819 831.855 Q27.0849 836.183 18.332 836.183 Q9.54733 836.183 4.58208 831.855 Q-0.38317 827.494 -0.38317 819.823 Z" fill="#000000" fill-rule="nonzero" fill-opacity="1" /><path clip-path="url(#clip120)" d="M5.88705 770.298 L-13.401 770.298 L-13.401 764.442 L36.1242 764.442 L36.1242 770.298 L30.777 770.298 Q33.9598 772.144 35.5194 774.977 Q37.0472 777.778 37.0472 781.725 Q37.0472 788.186 31.891 792.26 Q26.7347 796.302 18.332 796.302 Q9.92927 796.302 4.77305 792.26 Q-0.38317 788.186 -0.38317 781.725 Q-0.38317 777.778 1.17643 774.977 Q2.7042 772.144 5.88705 770.298 M18.332 790.255 Q24.7932 790.255 28.4853 787.613 Q32.1456 784.939 32.1456 780.292 Q32.1456 775.645 28.4853 772.972 Q24.7932 770.298 18.332 770.298 Q11.8708 770.298 8.21053 772.972 Q4.51842 775.645 4.51842 780.292 Q4.51842 784.939 8.21053 787.613 Q11.8708 790.255 18.332 790.255 Z" fill="#000000" fill-rule="nonzero" fill-opacity="1" /><path clip-path="url(#clip120)" d="M-13.401 731.658 L-13.401 725.802 L36.1242 725.802 L36.1242 731.658 L-13.401 731.658 Z" fill="#000000" fill-rule="nonzero" fill-opacity="1" /><path clip-path="url(#clip120)" d="M16.8361 683.056 L19.7006 683.056 L19.7006 709.983 Q25.7481 709.601 28.9309 706.355 Q32.0819 703.076 32.0819 697.252 Q32.0819 693.878 31.2544 690.727 Q30.4269 687.544 28.7718 684.425 L34.3099 684.425 Q35.6467 687.576 36.347 690.886 Q37.0472 694.196 37.0472 697.602 Q37.0472 706.132 32.0819 711.129 Q27.1167 716.094 18.6503 716.094 Q9.89745 716.094 4.77305 711.384 Q-0.38317 706.641 -0.38317 698.62 Q-0.38317 691.427 4.2638 687.258 Q8.87893 683.056 16.8361 683.056 M15.1173 688.913 Q10.3112 688.976 7.44665 691.618 Q4.58208 694.228 4.58208 698.557 Q4.58208 703.458 7.35116 706.418 Q10.1202 709.347 15.1492 709.792 L15.1173 688.913 Z" fill="#000000" fill-rule="nonzero" fill-opacity="1" /><path clip-path="url(#clip120)" d="M14.6081 643.812 L36.1242 643.812 L36.1242 649.668 L14.799 649.668 Q9.7383 649.668 7.22385 651.641 Q4.7094 653.615 4.7094 657.562 Q4.7094 662.304 7.73311 665.041 Q10.7568 667.779 15.9767 667.779 L36.1242 667.779 L36.1242 673.667 L0.4762 673.667 L0.4762 667.779 L6.01437 667.779 Q2.79968 665.678 1.20826 662.845 Q-0.38317 659.981 -0.38317 656.257 Q-0.38317 650.114 3.43625 646.963 Q7.22385 643.812 14.6081 643.812 Z" fill="#000000" fill-rule="nonzero" fill-opacity="1" /><path clip-path="url(#clip120)" d="M17.8864 608.673 Q11.5207 608.673 8.01956 611.315 Q4.51842 613.925 4.51842 618.667 Q4.51842 623.378 8.01956 626.019 Q11.5207 628.629 17.8864 628.629 Q24.2203 628.629 27.7214 626.019 Q31.2226 623.378 31.2226 618.667 Q31.2226 613.925 27.7214 611.315 Q24.2203 608.673 17.8864 608.673 M31.7 602.816 Q40.803 602.816 45.2271 606.859 Q49.6831 610.901 49.6831 619.24 Q49.6831 622.327 49.2057 625.065 Q48.7601 627.802 47.8052 630.38 L42.1079 630.38 Q43.5084 627.802 44.1768 625.287 Q44.8452 622.773 44.8452 620.163 Q44.8452 614.402 41.8215 611.538 Q38.8296 608.673 32.7503 608.673 L29.8539 608.673 Q33.005 610.487 34.5646 613.32 Q36.1242 616.153 36.1242 620.099 Q36.1242 626.656 31.1271 630.666 Q26.13 634.677 17.8864 634.677 Q9.61099 634.677 4.61391 630.666 Q-0.38317 626.656 -0.38317 620.099 Q-0.38317 616.153 1.17643 613.32 Q2.73603 610.487 5.88705 608.673 L0.4762 608.673 L0.4762 602.816 L31.7 602.816 Z" fill="#000000" fill-rule="nonzero" fill-opacity="1" /><path clip-path="url(#clip120)" d="M-9.64527 584.961 L0.4762 584.961 L0.4762 572.898 L5.02768 572.898 L5.02768 584.961 L24.3794 584.961 Q28.7399 584.961 29.9813 583.783 Q31.2226 582.574 31.2226 578.913 L31.2226 572.898 L36.1242 572.898 L36.1242 578.913 Q36.1242 585.693 33.6097 588.271 Q31.0634 590.849 24.3794 590.849 L5.02768 590.849 L5.02768 595.146 L0.4762 595.146 L0.4762 590.849 L-9.64527 590.849 L-9.64527 584.961 Z" fill="#000000" fill-rule="nonzero" fill-opacity="1" /><path clip-path="url(#clip120)" d="M14.6081 535.563 L36.1242 535.563 L36.1242 541.419 L14.799 541.419 Q9.7383 541.419 7.22385 543.393 Q4.7094 545.366 4.7094 549.313 Q4.7094 554.055 7.73311 556.792 Q10.7568 559.53 15.9767 559.53 L36.1242 559.53 L36.1242 565.418 L-13.401 565.418 L-13.401 559.53 L6.01437 559.53 Q2.79968 557.429 1.20826 554.596 Q-0.38317 551.732 -0.38317 548.008 Q-0.38317 541.865 3.43625 538.714 Q7.22385 535.563 14.6081 535.563 Z" fill="#000000" fill-rule="nonzero" fill-opacity="1" /><polyline clip-path="url(#clip122)" style="stroke:#009af9; stroke-linecap:round; stroke-linejoin:round; stroke-width:8; stroke-opacity:1; fill:none" points="1875.89,246.384 1876.02,246.367 "/>
<polyline clip-path="url(#clip122)" style="stroke:#009af9; stroke-linecap:round; stroke-linejoin:round; stroke-width:8; stroke-opacity:1; fill:none" points="1876.02,246.367 1876.21,246.343 "/>
<polyline clip-path="url(#clip122)" style="stroke:#009af9; stroke-linecap:round; stroke-linejoin:round; stroke-width:8; stroke-opacity:1; fill:none" points="1876.21,246.343 1876.5,246.306 "/>
<polyline clip-path="url(#clip122)" style="stroke:#009af9; stroke-linecap:round; stroke-linejoin:round; stroke-width:8; stroke-opacity:1; fill:none" points="1876.5,246.306 1876.95,246.249 "/>
<polyline clip-path="url(#clip122)" style="stroke:#009af9; stroke-linecap:round; stroke-linejoin:round; stroke-width:8; stroke-opacity:1; fill:none" points="1876.95,246.249 1877.65,246.16 "/>
<polyline clip-path="url(#clip122)" style="stroke:#009af9; stroke-linecap:round; stroke-linejoin:round; stroke-width:8; stroke-opacity:1; fill:none" points="1877.65,246.16 1878.77,246.016 "/>
<polyline clip-path="url(#clip122)" style="stroke:#009af9; stroke-linecap:round; stroke-linejoin:round; stroke-width:8; stroke-opacity:1; fill:none" points="1878.77,246.016 1880.64,245.778 "/>
<polyline clip-path="url(#clip122)" style="stroke:#009af9; stroke-linecap:round; stroke-linejoin:round; stroke-width:8; stroke-opacity:1; fill:none" points="1880.64,245.778 1883.29,245.441 "/>
<polyline clip-path="url(#clip122)" style="stroke:#009af9; stroke-linecap:round; stroke-linejoin:round; stroke-width:8; stroke-opacity:1; fill:none" points="1883.29,245.441 1886.36,245.047 "/>
<polyline clip-path="url(#clip122)" style="stroke:#009af9; stroke-linecap:round; stroke-linejoin:round; stroke-width:8; stroke-opacity:1; fill:none" points="1886.36,245.047 1889.84,244.601 "/>
<polyline clip-path="url(#clip122)" style="stroke:#009af9; stroke-linecap:round; stroke-linejoin:round; stroke-width:8; stroke-opacity:1; fill:none" points="1889.84,244.601 1893.73,244.102 "/>
<polyline clip-path="url(#clip122)" style="stroke:#009af9; stroke-linecap:round; stroke-linejoin:round; stroke-width:8; stroke-opacity:1; fill:none" points="1893.73,244.102 1898,243.552 "/>
<polyline clip-path="url(#clip122)" style="stroke:#009af9; stroke-linecap:round; stroke-linejoin:round; stroke-width:8; stroke-opacity:1; fill:none" points="1898,243.552 1902.64,242.954 "/>
<polyline clip-path="url(#clip122)" style="stroke:#009af9; stroke-linecap:round; stroke-linejoin:round; stroke-width:8; stroke-opacity:1; fill:none" points="1902.64,242.954 1907.62,242.308 "/>
<polyline clip-path="url(#clip122)" style="stroke:#009af9; stroke-linecap:round; stroke-linejoin:round; stroke-width:8; stroke-opacity:1; fill:none" points="1907.62,242.308 1912.95,241.617 "/>
<polyline clip-path="url(#clip122)" style="stroke:#009af9; stroke-linecap:round; stroke-linejoin:round; stroke-width:8; stroke-opacity:1; fill:none" points="1912.95,241.617 1918.6,240.882 "/>
<polyline clip-path="url(#clip122)" style="stroke:#009af9; stroke-linecap:round; stroke-linejoin:round; stroke-width:8; stroke-opacity:1; fill:none" points="1918.6,240.882 1924.55,240.105 "/>
<polyline clip-path="url(#clip122)" style="stroke:#009af9; stroke-linecap:round; stroke-linejoin:round; stroke-width:8; stroke-opacity:1; fill:none" points="1924.55,240.105 1930.79,239.288 "/>
<polyline clip-path="url(#clip122)" style="stroke:#009af9; stroke-linecap:round; stroke-linejoin:round; stroke-width:8; stroke-opacity:1; fill:none" points="1930.79,239.288 1937.3,238.431 "/>
<polyline clip-path="url(#clip122)" style="stroke:#009af9; stroke-linecap:round; stroke-linejoin:round; stroke-width:8; stroke-opacity:1; fill:none" points="1937.3,238.431 1944.07,237.538 "/>
<polyline clip-path="url(#clip122)" style="stroke:#009af9; stroke-linecap:round; stroke-linejoin:round; stroke-width:8; stroke-opacity:1; fill:none" points="1944.07,237.538 1951.09,236.609 "/>
<polyline clip-path="url(#clip122)" style="stroke:#009af9; stroke-linecap:round; stroke-linejoin:round; stroke-width:8; stroke-opacity:1; fill:none" points="1951.09,236.609 1958.34,235.645 "/>
<polyline clip-path="url(#clip122)" style="stroke:#009af9; stroke-linecap:round; stroke-linejoin:round; stroke-width:8; stroke-opacity:1; fill:none" points="1958.34,235.645 1965.81,234.649 "/>
<polyline clip-path="url(#clip122)" style="stroke:#009af9; stroke-linecap:round; stroke-linejoin:round; stroke-width:8; stroke-opacity:1; fill:none" points="1965.81,234.649 1973.49,233.62 "/>
<polyline clip-path="url(#clip122)" style="stroke:#009af9; stroke-linecap:round; stroke-linejoin:round; stroke-width:8; stroke-opacity:1; fill:none" points="1973.49,233.62 1981.36,232.562 "/>
<polyline clip-path="url(#clip122)" style="stroke:#009af9; stroke-linecap:round; stroke-linejoin:round; stroke-width:8; stroke-opacity:1; fill:none" points="1981.36,232.562 1989.42,231.474 "/>
<polyline clip-path="url(#clip122)" style="stroke:#009af9; stroke-linecap:round; stroke-linejoin:round; stroke-width:8; stroke-opacity:1; fill:none" points="1989.42,231.474 1997.65,230.359 "/>
<polyline clip-path="url(#clip122)" style="stroke:#009af9; stroke-linecap:round; stroke-linejoin:round; stroke-width:8; stroke-opacity:1; fill:none" points="1997.65,230.359 2006.05,229.216 "/>
<polyline clip-path="url(#clip122)" style="stroke:#009af9; stroke-linecap:round; stroke-linejoin:round; stroke-width:8; stroke-opacity:1; fill:none" points="2006.05,229.216 2014.6,228.047 "/>
<polyline clip-path="url(#clip122)" style="stroke:#009af9; stroke-linecap:round; stroke-linejoin:round; stroke-width:8; stroke-opacity:1; fill:none" points="2014.6,228.047 2023.3,226.854 "/>
<polyline clip-path="url(#clip122)" style="stroke:#009af9; stroke-linecap:round; stroke-linejoin:round; stroke-width:8; stroke-opacity:1; fill:none" points="2023.3,226.854 2032.15,225.636 "/>
<polyline clip-path="url(#clip122)" style="stroke:#009af9; stroke-linecap:round; stroke-linejoin:round; stroke-width:8; stroke-opacity:1; fill:none" points="2032.15,225.636 2041.12,224.395 "/>
<polyline clip-path="url(#clip122)" style="stroke:#009af9; stroke-linecap:round; stroke-linejoin:round; stroke-width:8; stroke-opacity:1; fill:none" points="2041.12,224.395 2050.22,223.132 "/>
<polyline clip-path="url(#clip122)" style="stroke:#009af9; stroke-linecap:round; stroke-linejoin:round; stroke-width:8; stroke-opacity:1; fill:none" points="2050.22,223.132 2059.44,221.847 "/>
<polyline clip-path="url(#clip122)" style="stroke:#009af9; stroke-linecap:round; stroke-linejoin:round; stroke-width:8; stroke-opacity:1; fill:none" points="2059.44,221.847 2068.76,220.541 "/>
<polyline clip-path="url(#clip122)" style="stroke:#009af9; stroke-linecap:round; stroke-linejoin:round; stroke-width:8; stroke-opacity:1; fill:none" points="2068.76,220.541 2078.2,219.215 "/>
<polyline clip-path="url(#clip122)" style="stroke:#009af9; stroke-linecap:round; stroke-linejoin:round; stroke-width:8; stroke-opacity:1; fill:none" points="2078.2,219.215 2087.73,217.87 "/>
<polyline clip-path="url(#clip122)" style="stroke:#009af9; stroke-linecap:round; stroke-linejoin:round; stroke-width:8; stroke-opacity:1; fill:none" points="2087.73,217.87 2097.36,216.506 "/>
<polyline clip-path="url(#clip122)" style="stroke:#009af9; stroke-linecap:round; stroke-linejoin:round; stroke-width:8; stroke-opacity:1; fill:none" points="2097.36,216.506 2107.09,215.123 "/>
<polyline clip-path="url(#clip122)" style="stroke:#009af9; stroke-linecap:round; stroke-linejoin:round; stroke-width:8; stroke-opacity:1; fill:none" points="2107.09,215.123 2116.89,213.723 "/>
<polyline clip-path="url(#clip122)" style="stroke:#009af9; stroke-linecap:round; stroke-linejoin:round; stroke-width:8; stroke-opacity:1; fill:none" points="2116.89,213.723 2126.78,212.305 "/>
<polyline clip-path="url(#clip122)" style="stroke:#009af9; stroke-linecap:round; stroke-linejoin:round; stroke-width:8; stroke-opacity:1; fill:none" points="2126.78,212.305 2136.75,210.871 "/>
<polyline clip-path="url(#clip122)" style="stroke:#009af9; stroke-linecap:round; stroke-linejoin:round; stroke-width:8; stroke-opacity:1; fill:none" points="2136.75,210.871 2146.78,209.421 "/>
<polyline clip-path="url(#clip122)" style="stroke:#009af9; stroke-linecap:round; stroke-linejoin:round; stroke-width:8; stroke-opacity:1; fill:none" points="2146.78,209.421 2156.89,207.956 "/>
<polyline clip-path="url(#clip122)" style="stroke:#009af9; stroke-linecap:round; stroke-linejoin:round; stroke-width:8; stroke-opacity:1; fill:none" points="2156.89,207.956 2167.07,206.475 "/>
<polyline clip-path="url(#clip122)" style="stroke:#009af9; stroke-linecap:round; stroke-linejoin:round; stroke-width:8; stroke-opacity:1; fill:none" points="2167.07,206.475 2177.31,204.979 "/>
<polyline clip-path="url(#clip122)" style="stroke:#009af9; stroke-linecap:round; stroke-linejoin:round; stroke-width:8; stroke-opacity:1; fill:none" points="2177.31,204.979 2187.6,203.47 "/>
<polyline clip-path="url(#clip122)" style="stroke:#009af9; stroke-linecap:round; stroke-linejoin:round; stroke-width:8; stroke-opacity:1; fill:none" points="2187.6,203.47 2197.96,201.946 "/>
<polyline clip-path="url(#clip122)" style="stroke:#009af9; stroke-linecap:round; stroke-linejoin:round; stroke-width:8; stroke-opacity:1; fill:none" points="2197.96,201.946 2208.37,200.409 "/>
<polyline clip-path="url(#clip122)" style="stroke:#009af9; stroke-linecap:round; stroke-linejoin:round; stroke-width:8; stroke-opacity:1; fill:none" points="2208.37,200.409 2218.83,198.859 "/>
<polyline clip-path="url(#clip122)" style="stroke:#009af9; stroke-linecap:round; stroke-linejoin:round; stroke-width:8; stroke-opacity:1; fill:none" points="2218.83,198.859 2229.34,197.296 "/>
<polyline clip-path="url(#clip122)" style="stroke:#009af9; stroke-linecap:round; stroke-linejoin:round; stroke-width:8; stroke-opacity:1; fill:none" points="2229.34,197.296 2239.9,195.721 "/>
<polyline clip-path="url(#clip122)" style="stroke:#009af9; stroke-linecap:round; stroke-linejoin:round; stroke-width:8; stroke-opacity:1; fill:none" points="2239.9,195.721 2250.5,194.133 "/>
<polyline clip-path="url(#clip122)" style="stroke:#009af9; stroke-linecap:round; stroke-linejoin:round; stroke-width:8; stroke-opacity:1; fill:none" points="2250.5,194.133 2261.15,192.534 "/>
<polyline clip-path="url(#clip122)" style="stroke:#009af9; stroke-linecap:round; stroke-linejoin:round; stroke-width:8; stroke-opacity:1; fill:none" points="2261.15,192.534 2271.83,190.924 "/>
<polyline clip-path="url(#clip122)" style="stroke:#009af9; stroke-linecap:round; stroke-linejoin:round; stroke-width:8; stroke-opacity:1; fill:none" points="2271.83,190.924 2282.56,189.303 "/>
<polyline clip-path="url(#clip122)" style="stroke:#009af9; stroke-linecap:round; stroke-linejoin:round; stroke-width:8; stroke-opacity:1; fill:none" points="2282.56,189.303 2293.32,187.671 "/>
<polyline clip-path="url(#clip122)" style="stroke:#009af9; stroke-linecap:round; stroke-linejoin:round; stroke-width:8; stroke-opacity:1; fill:none" points="2293.32,187.671 2304.12,186.028 "/>
<polyline clip-path="url(#clip122)" style="stroke:#009af9; stroke-linecap:round; stroke-linejoin:round; stroke-width:8; stroke-opacity:1; fill:none" points="2304.12,186.028 2314.95,184.375 "/>
<polyline clip-path="url(#clip122)" style="stroke:#009af9; stroke-linecap:round; stroke-linejoin:round; stroke-width:8; stroke-opacity:1; fill:none" points="2314.95,184.375 2325.81,182.713 "/>
<polyline clip-path="url(#clip122)" style="stroke:#009af9; stroke-linecap:round; stroke-linejoin:round; stroke-width:8; stroke-opacity:1; fill:none" points="2325.81,182.713 2336.71,181.041 "/>
<polyline clip-path="url(#clip122)" style="stroke:#009af9; stroke-linecap:round; stroke-linejoin:round; stroke-width:8; stroke-opacity:1; fill:none" points="2336.71,181.041 2347.63,179.359 "/>
<polyline clip-path="url(#clip122)" style="stroke:#009af9; stroke-linecap:round; stroke-linejoin:round; stroke-width:8; stroke-opacity:1; fill:none" points="2347.63,179.359 2358.58,177.668 "/>
<polyline clip-path="url(#clip122)" style="stroke:#009af9; stroke-linecap:round; stroke-linejoin:round; stroke-width:8; stroke-opacity:1; fill:none" points="2358.58,177.668 2369.56,175.969 "/>
<polyline clip-path="url(#clip122)" style="stroke:#009af9; stroke-linecap:round; stroke-linejoin:round; stroke-width:8; stroke-opacity:1; fill:none" points="2369.56,175.969 2380.56,174.261 "/>
<polyline clip-path="url(#clip122)" style="stroke:#009af9; stroke-linecap:round; stroke-linejoin:round; stroke-width:8; stroke-opacity:1; fill:none" points="2380.56,174.261 2391.59,172.544 "/>
<polyline clip-path="url(#clip122)" style="stroke:#009af9; stroke-linecap:round; stroke-linejoin:round; stroke-width:8; stroke-opacity:1; fill:none" points="2391.59,172.544 2402.64,170.819 "/>
<polyline clip-path="url(#clip122)" style="stroke:#009af9; stroke-linecap:round; stroke-linejoin:round; stroke-width:8; stroke-opacity:1; fill:none" points="2402.64,170.819 2413.72,169.087 "/>
<polyline clip-path="url(#clip122)" style="stroke:#009af9; stroke-linecap:round; stroke-linejoin:round; stroke-width:8; stroke-opacity:1; fill:none" points="2413.72,169.087 2424.81,167.346 "/>
<polyline clip-path="url(#clip122)" style="stroke:#009af9; stroke-linecap:round; stroke-linejoin:round; stroke-width:8; stroke-opacity:1; fill:none" points="2424.81,167.346 2435.93,165.599 "/>
<polyline clip-path="url(#clip122)" style="stroke:#009af9; stroke-linecap:round; stroke-linejoin:round; stroke-width:8; stroke-opacity:1; fill:none" points="2435.93,165.599 2447.06,163.844 "/>
<polyline clip-path="url(#clip122)" style="stroke:#009af9; stroke-linecap:round; stroke-linejoin:round; stroke-width:8; stroke-opacity:1; fill:none" points="2447.06,163.844 2458.21,162.081 "/>
<polyline clip-path="url(#clip122)" style="stroke:#009af9; stroke-linecap:round; stroke-linejoin:round; stroke-width:8; stroke-opacity:1; fill:none" points="2458.21,162.081 2469.38,160.312 "/>
<polyline clip-path="url(#clip122)" style="stroke:#009af9; stroke-linecap:round; stroke-linejoin:round; stroke-width:8; stroke-opacity:1; fill:none" points="2469.38,160.312 2480.57,158.537 "/>
<polyline clip-path="url(#clip122)" style="stroke:#009af9; stroke-linecap:round; stroke-linejoin:round; stroke-width:8; stroke-opacity:1; fill:none" points="2480.57,158.537 2491.77,156.754 "/>
<polyline clip-path="url(#clip122)" style="stroke:#009af9; stroke-linecap:round; stroke-linejoin:round; stroke-width:8; stroke-opacity:1; fill:none" points="2491.77,156.754 2502.99,154.966 "/>
<polyline clip-path="url(#clip122)" style="stroke:#009af9; stroke-linecap:round; stroke-linejoin:round; stroke-width:8; stroke-opacity:1; fill:none" points="2502.99,154.966 2514.23,153.171 "/>
<polyline clip-path="url(#clip122)" style="stroke:#009af9; stroke-linecap:round; stroke-linejoin:round; stroke-width:8; stroke-opacity:1; fill:none" points="2514.23,153.171 2525.47,151.371 "/>
<polyline clip-path="url(#clip122)" style="stroke:#009af9; stroke-linecap:round; stroke-linejoin:round; stroke-width:8; stroke-opacity:1; fill:none" points="2525.47,151.371 2536.73,149.564 "/>
<polyline clip-path="url(#clip122)" style="stroke:#009af9; stroke-linecap:round; stroke-linejoin:round; stroke-width:8; stroke-opacity:1; fill:none" points="2536.73,149.564 2548,147.752 "/>
<polyline clip-path="url(#clip122)" style="stroke:#009af9; stroke-linecap:round; stroke-linejoin:round; stroke-width:8; stroke-opacity:1; fill:none" points="2548,147.752 2559.29,145.935 "/>
<polyline clip-path="url(#clip122)" style="stroke:#009af9; stroke-linecap:round; stroke-linejoin:round; stroke-width:8; stroke-opacity:1; fill:none" points="2559.29,145.935 2570.58,144.112 "/>
<polyline clip-path="url(#clip122)" style="stroke:#009af9; stroke-linecap:round; stroke-linejoin:round; stroke-width:8; stroke-opacity:1; fill:none" points="2570.58,144.112 2581.89,142.285 "/>
<polyline clip-path="url(#clip122)" style="stroke:#009af9; stroke-linecap:round; stroke-linejoin:round; stroke-width:8; stroke-opacity:1; fill:none" points="2581.89,142.285 2593.21,140.452 "/>
<polyline clip-path="url(#clip122)" style="stroke:#009af9; stroke-linecap:round; stroke-linejoin:round; stroke-width:8; stroke-opacity:1; fill:none" points="2593.21,140.452 2604.53,138.614 "/>
<polyline clip-path="url(#clip122)" style="stroke:#009af9; stroke-linecap:round; stroke-linejoin:round; stroke-width:8; stroke-opacity:1; fill:none" points="2604.53,138.614 2615.87,136.772 "/>
<polyline clip-path="url(#clip122)" style="stroke:#009af9; stroke-linecap:round; stroke-linejoin:round; stroke-width:8; stroke-opacity:1; fill:none" points="2615.87,136.772 2627.21,134.926 "/>
<polyline clip-path="url(#clip122)" style="stroke:#009af9; stroke-linecap:round; stroke-linejoin:round; stroke-width:8; stroke-opacity:1; fill:none" points="2627.21,134.926 2638.57,133.075 "/>
<polyline clip-path="url(#clip122)" style="stroke:#009af9; stroke-linecap:round; stroke-linejoin:round; stroke-width:8; stroke-opacity:1; fill:none" points="2638.57,133.075 2649.93,131.22 "/>
<polyline clip-path="url(#clip122)" style="stroke:#009af9; stroke-linecap:round; stroke-linejoin:round; stroke-width:8; stroke-opacity:1; fill:none" points="2649.93,131.22 2661.29,129.36 "/>
<polyline clip-path="url(#clip122)" style="stroke:#009af9; stroke-linecap:round; stroke-linejoin:round; stroke-width:8; stroke-opacity:1; fill:none" points="2661.29,129.36 2672.67,127.497 "/>
<polyline clip-path="url(#clip122)" style="stroke:#009af9; stroke-linecap:round; stroke-linejoin:round; stroke-width:8; stroke-opacity:1; fill:none" points="2672.67,127.497 2684.05,125.63 "/>
<polyline clip-path="url(#clip122)" style="stroke:#009af9; stroke-linecap:round; stroke-linejoin:round; stroke-width:8; stroke-opacity:1; fill:none" points="2684.05,125.63 2695.44,123.76 "/>
<polyline clip-path="url(#clip122)" style="stroke:#009af9; stroke-linecap:round; stroke-linejoin:round; stroke-width:8; stroke-opacity:1; fill:none" points="2695.44,123.76 2706.83,121.886 "/>
<polyline clip-path="url(#clip122)" style="stroke:#009af9; stroke-linecap:round; stroke-linejoin:round; stroke-width:8; stroke-opacity:1; fill:none" points="2706.83,121.886 2718.23,120.008 "/>
<polyline clip-path="url(#clip122)" style="stroke:#009af9; stroke-linecap:round; stroke-linejoin:round; stroke-width:8; stroke-opacity:1; fill:none" points="2718.23,120.008 2729.64,118.128 "/>
<polyline clip-path="url(#clip122)" style="stroke:#009af9; stroke-linecap:round; stroke-linejoin:round; stroke-width:8; stroke-opacity:1; fill:none" points="2729.64,118.128 2741.04,116.244 "/>
<polyline clip-path="url(#clip122)" style="stroke:#009af9; stroke-linecap:round; stroke-linejoin:round; stroke-width:8; stroke-opacity:1; fill:none" points="2741.04,116.244 2752.46,114.357 "/>
<polyline clip-path="url(#clip122)" style="stroke:#009af9; stroke-linecap:round; stroke-linejoin:round; stroke-width:8; stroke-opacity:1; fill:none" points="2752.46,114.357 2763.88,112.467 "/>
<polyline clip-path="url(#clip122)" style="stroke:#009af9; stroke-linecap:round; stroke-linejoin:round; stroke-width:8; stroke-opacity:1; fill:none" points="2763.88,112.467 2775.3,110.575 "/>
<polyline clip-path="url(#clip122)" style="stroke:#009af9; stroke-linecap:round; stroke-linejoin:round; stroke-width:8; stroke-opacity:1; fill:none" points="2775.3,110.575 2786.72,108.679 "/>
<polyline clip-path="url(#clip122)" style="stroke:#009af9; stroke-linecap:round; stroke-linejoin:round; stroke-width:8; stroke-opacity:1; fill:none" points="2786.72,108.679 2798.15,106.782 "/>
<polyline clip-path="url(#clip122)" style="stroke:#009af9; stroke-linecap:round; stroke-linejoin:round; stroke-width:8; stroke-opacity:1; fill:none" points="2798.15,106.782 2809.58,104.881 "/>
<polyline clip-path="url(#clip122)" style="stroke:#009af9; stroke-linecap:round; stroke-linejoin:round; stroke-width:8; stroke-opacity:1; fill:none" points="2809.58,104.881 2821.02,102.979 "/>
<polyline clip-path="url(#clip122)" style="stroke:#009af9; stroke-linecap:round; stroke-linejoin:round; stroke-width:8; stroke-opacity:1; fill:none" points="2821.02,102.979 2832.46,101.074 "/>
<polyline clip-path="url(#clip122)" style="stroke:#009af9; stroke-linecap:round; stroke-linejoin:round; stroke-width:8; stroke-opacity:1; fill:none" points="2832.46,101.074 2843.9,99.1669 "/>
<polyline clip-path="url(#clip122)" style="stroke:#009af9; stroke-linecap:round; stroke-linejoin:round; stroke-width:8; stroke-opacity:1; fill:none" points="2843.9,99.1669 2855.34,97.2578 "/>
<polyline clip-path="url(#clip122)" style="stroke:#009af9; stroke-linecap:round; stroke-linejoin:round; stroke-width:8; stroke-opacity:1; fill:none" points="2855.34,97.2578 2866.78,95.3469 "/>
<polyline clip-path="url(#clip122)" style="stroke:#009af9; stroke-linecap:round; stroke-linejoin:round; stroke-width:8; stroke-opacity:1; fill:none" points="2866.78,95.3469 2878.23,93.4341 "/>
<polyline clip-path="url(#clip122)" style="stroke:#009af9; stroke-linecap:round; stroke-linejoin:round; stroke-width:8; stroke-opacity:1; fill:none" points="2878.23,93.4341 2889.67,91.5196 "/>
<polyline clip-path="url(#clip122)" style="stroke:#009af9; stroke-linecap:round; stroke-linejoin:round; stroke-width:8; stroke-opacity:1; fill:none" points="2889.67,91.5196 2901.12,89.6035 "/>
<polyline clip-path="url(#clip122)" style="stroke:#009af9; stroke-linecap:round; stroke-linejoin:round; stroke-width:8; stroke-opacity:1; fill:none" points="2901.12,89.6035 2912.57,87.6858 "/>
<polyline clip-path="url(#clip122)" style="stroke:#009af9; stroke-linecap:round; stroke-linejoin:round; stroke-width:8; stroke-opacity:1; fill:none" points="2912.57,87.6858 2924.02,85.7666 "/>
<polyline clip-path="url(#clip122)" style="stroke:#009af9; stroke-linecap:round; stroke-linejoin:round; stroke-width:8; stroke-opacity:1; fill:none" points="2924.02,85.7666 2935.47,83.8461 "/>
<polyline clip-path="url(#clip122)" style="stroke:#009af9; stroke-linecap:round; stroke-linejoin:round; stroke-width:8; stroke-opacity:1; fill:none" points="2935.47,83.8461 2946.93,81.9243 "/>
<polyline clip-path="url(#clip122)" style="stroke:#009af9; stroke-linecap:round; stroke-linejoin:round; stroke-width:8; stroke-opacity:1; fill:none" points="2946.93,81.9243 2958.38,80.0013 "/>
<polyline clip-path="url(#clip122)" style="stroke:#009af9; stroke-linecap:round; stroke-linejoin:round; stroke-width:8; stroke-opacity:1; fill:none" points="2958.38,80.0013 2969.83,78.0772 "/>
<polyline clip-path="url(#clip122)" style="stroke:#009af9; stroke-linecap:round; stroke-linejoin:round; stroke-width:8; stroke-opacity:1; fill:none" points="2969.83,78.0772 2981.28,76.152 "/>
<polyline clip-path="url(#clip122)" style="stroke:#009af9; stroke-linecap:round; stroke-linejoin:round; stroke-width:8; stroke-opacity:1; fill:none" points="2981.28,76.152 2992.73,74.2259 "/>
<polyline clip-path="url(#clip122)" style="stroke:#009af9; stroke-linecap:round; stroke-linejoin:round; stroke-width:8; stroke-opacity:1; fill:none" points="2992.73,74.2259 3004.19,72.299 "/>
<polyline clip-path="url(#clip122)" style="stroke:#009af9; stroke-linecap:round; stroke-linejoin:round; stroke-width:8; stroke-opacity:1; fill:none" points="3004.19,72.299 3015.64,70.3713 "/>
<polyline clip-path="url(#clip122)" style="stroke:#009af9; stroke-linecap:round; stroke-linejoin:round; stroke-width:8; stroke-opacity:1; fill:none" points="3015.64,70.3713 3027.09,68.4428 "/>
<polyline clip-path="url(#clip122)" style="stroke:#009af9; stroke-linecap:round; stroke-linejoin:round; stroke-width:8; stroke-opacity:1; fill:none" points="3027.09,68.4428 3038.54,66.5137 "/>
<polyline clip-path="url(#clip122)" style="stroke:#009af9; stroke-linecap:round; stroke-linejoin:round; stroke-width:8; stroke-opacity:1; fill:none" points="3038.54,66.5137 3049.99,64.5841 "/>
<polyline clip-path="url(#clip122)" style="stroke:#009af9; stroke-linecap:round; stroke-linejoin:round; stroke-width:8; stroke-opacity:1; fill:none" points="3049.99,64.5841 3061.44,62.654 "/>
<polyline clip-path="url(#clip122)" style="stroke:#009af9; stroke-linecap:round; stroke-linejoin:round; stroke-width:8; stroke-opacity:1; fill:none" points="3061.44,62.654 3072.89,60.7235 "/>
<polyline clip-path="url(#clip122)" style="stroke:#009af9; stroke-linecap:round; stroke-linejoin:round; stroke-width:8; stroke-opacity:1; fill:none" points="3072.89,60.7235 3084.34,58.7926 "/>
<polyline clip-path="url(#clip122)" style="stroke:#009af9; stroke-linecap:round; stroke-linejoin:round; stroke-width:8; stroke-opacity:1; fill:none" points="3084.34,58.7926 3095.78,56.8614 "/>
<polyline clip-path="url(#clip122)" style="stroke:#009af9; stroke-linecap:round; stroke-linejoin:round; stroke-width:8; stroke-opacity:1; fill:none" points="3095.78,56.8614 3107.23,54.9301 "/>
<polyline clip-path="url(#clip122)" style="stroke:#009af9; stroke-linecap:round; stroke-linejoin:round; stroke-width:8; stroke-opacity:1; fill:none" points="3107.23,54.9301 3118.67,52.9986 "/>
<polyline clip-path="url(#clip122)" style="stroke:#009af9; stroke-linecap:round; stroke-linejoin:round; stroke-width:8; stroke-opacity:1; fill:none" points="3118.67,52.9986 3130.11,51.067 "/>
<polyline clip-path="url(#clip122)" style="stroke:#009af9; stroke-linecap:round; stroke-linejoin:round; stroke-width:8; stroke-opacity:1; fill:none" points="3130.11,51.067 3141.56,49.1354 "/>
<polyline clip-path="url(#clip122)" style="stroke:#009af9; stroke-linecap:round; stroke-linejoin:round; stroke-width:8; stroke-opacity:1; fill:none" points="3141.56,49.1354 3152.76,47.2441 "/>
</svg>
