<?xml version="1.0" encoding="utf-8"?>
<svg xmlns="http://www.w3.org/2000/svg" xmlns:xlink="http://www.w3.org/1999/xlink" width="600" height="400" viewBox="0 0 2400 1600">
<defs>
  <clipPath id="clip980">
    <rect x="0" y="0" width="2400" height="1600"/>
  </clipPath>
</defs>
<path clip-path="url(#clip980)" d="M0 1600 L2400 1600 L2400 0 L0 0  Z" fill="#ffffff" fill-rule="evenodd" fill-opacity="1"/>
<defs>
  <clipPath id="clip981">
    <rect x="480" y="0" width="1681" height="1600"/>
  </clipPath>
</defs>
<path clip-path="url(#clip980)" d="M251.208 1375.94 L2352.76 1375.94 L2352.76 47.2441 L251.208 47.2441  Z" fill="#ffffff" fill-rule="evenodd" fill-opacity="1"/>
<defs>
  <clipPath id="clip982">
    <rect x="251" y="47" width="2103" height="1330"/>
  </clipPath>
</defs>
<polyline clip-path="url(#clip980)" style="stroke:#000000; stroke-linecap:round; stroke-linejoin:round; stroke-width:4; stroke-opacity:1; fill:none" points="251.208,1375.94 2352.76,1375.94 "/>
<polyline clip-path="url(#clip980)" style="stroke:#000000; stroke-linecap:round; stroke-linejoin:round; stroke-width:4; stroke-opacity:1; fill:none" points="251.208,47.2441 2352.76,47.2441 "/>
<polyline clip-path="url(#clip980)" style="stroke:#000000; stroke-linecap:round; stroke-linejoin:round; stroke-width:4; stroke-opacity:1; fill:none" points="251.208,1375.94 251.208,1357.04 "/>
<polyline clip-path="url(#clip980)" style="stroke:#000000; stroke-linecap:round; stroke-linejoin:round; stroke-width:4; stroke-opacity:1; fill:none" points="776.595,1375.94 776.595,1357.04 "/>
<polyline clip-path="url(#clip980)" style="stroke:#000000; stroke-linecap:round; stroke-linejoin:round; stroke-width:4; stroke-opacity:1; fill:none" points="1301.98,1375.94 1301.98,1357.04 "/>
<polyline clip-path="url(#clip980)" style="stroke:#000000; stroke-linecap:round; stroke-linejoin:round; stroke-width:4; stroke-opacity:1; fill:none" points="1827.37,1375.94 1827.37,1357.04 "/>
<polyline clip-path="url(#clip980)" style="stroke:#000000; stroke-linecap:round; stroke-linejoin:round; stroke-width:4; stroke-opacity:1; fill:none" points="2352.76,1375.94 2352.76,1357.04 "/>
<polyline clip-path="url(#clip980)" style="stroke:#000000; stroke-linecap:round; stroke-linejoin:round; stroke-width:4; stroke-opacity:1; fill:none" points="251.208,47.2441 251.208,66.1417 "/>
<polyline clip-path="url(#clip980)" style="stroke:#000000; stroke-linecap:round; stroke-linejoin:round; stroke-width:4; stroke-opacity:1; fill:none" points="776.595,47.2441 776.595,66.1417 "/>
<polyline clip-path="url(#clip980)" style="stroke:#000000; stroke-linecap:round; stroke-linejoin:round; stroke-width:4; stroke-opacity:1; fill:none" points="1301.98,47.2441 1301.98,66.1417 "/>
<polyline clip-path="url(#clip980)" style="stroke:#000000; stroke-linecap:round; stroke-linejoin:round; stroke-width:4; stroke-opacity:1; fill:none" points="1827.37,47.2441 1827.37,66.1417 "/>
<polyline clip-path="url(#clip980)" style="stroke:#000000; stroke-linecap:round; stroke-linejoin:round; stroke-width:4; stroke-opacity:1; fill:none" points="2352.76,47.2441 2352.76,66.1417 "/>
<path clip-path="url(#clip980)" d="M251.208 1406.85 Q247.597 1406.85 245.768 1410.42 Q243.962 1413.96 243.962 1421.09 Q243.962 1428.2 245.768 1431.76 Q247.597 1435.3 251.208 1435.3 Q254.842 1435.3 256.647 1431.76 Q258.476 1428.2 258.476 1421.09 Q258.476 1413.96 256.647 1410.42 Q254.842 1406.85 251.208 1406.85 M251.208 1403.15 Q257.018 1403.15 260.073 1407.76 Q263.152 1412.34 263.152 1421.09 Q263.152 1429.82 260.073 1434.42 Q257.018 1439.01 251.208 1439.01 Q245.398 1439.01 242.319 1434.42 Q239.263 1429.82 239.263 1421.09 Q239.263 1412.34 242.319 1407.76 Q245.398 1403.15 251.208 1403.15 Z" fill="#000000" fill-rule="nonzero" fill-opacity="1" /><path clip-path="url(#clip980)" d="M766.873 1403.78 L785.229 1403.78 L785.229 1407.71 L771.155 1407.71 L771.155 1416.18 Q772.173 1415.84 773.192 1415.67 Q774.21 1415.49 775.229 1415.49 Q781.016 1415.49 784.396 1418.66 Q787.775 1421.83 787.775 1427.25 Q787.775 1432.83 784.303 1435.93 Q780.831 1439.01 774.511 1439.01 Q772.335 1439.01 770.067 1438.64 Q767.822 1438.27 765.414 1437.53 L765.414 1432.83 Q767.498 1433.96 769.72 1434.52 Q771.942 1435.07 774.419 1435.07 Q778.423 1435.07 780.761 1432.97 Q783.099 1430.86 783.099 1427.25 Q783.099 1423.64 780.761 1421.53 Q778.423 1419.42 774.419 1419.42 Q772.544 1419.42 770.669 1419.84 Q768.817 1420.26 766.873 1421.14 L766.873 1403.78 Z" fill="#000000" fill-rule="nonzero" fill-opacity="1" /><path clip-path="url(#clip980)" d="M1276.67 1434.4 L1284.31 1434.4 L1284.31 1408.03 L1276 1409.7 L1276 1405.44 L1284.26 1403.78 L1288.94 1403.78 L1288.94 1434.4 L1296.58 1434.4 L1296.58 1438.34 L1276.67 1438.34 L1276.67 1434.4 Z" fill="#000000" fill-rule="nonzero" fill-opacity="1" /><path clip-path="url(#clip980)" d="M1316.02 1406.85 Q1312.41 1406.85 1310.58 1410.42 Q1308.78 1413.96 1308.78 1421.09 Q1308.78 1428.2 1310.58 1431.76 Q1312.41 1435.3 1316.02 1435.3 Q1319.66 1435.3 1321.46 1431.76 Q1323.29 1428.2 1323.29 1421.09 Q1323.29 1413.96 1321.46 1410.42 Q1319.66 1406.85 1316.02 1406.85 M1316.02 1403.15 Q1321.83 1403.15 1324.89 1407.76 Q1327.97 1412.34 1327.97 1421.09 Q1327.97 1429.82 1324.89 1434.42 Q1321.83 1439.01 1316.02 1439.01 Q1310.21 1439.01 1307.13 1434.42 Q1304.08 1429.82 1304.08 1421.09 Q1304.08 1412.34 1307.13 1407.76 Q1310.21 1403.15 1316.02 1403.15 Z" fill="#000000" fill-rule="nonzero" fill-opacity="1" /><path clip-path="url(#clip980)" d="M1802.55 1434.4 L1810.19 1434.4 L1810.19 1408.03 L1801.88 1409.7 L1801.88 1405.44 L1810.15 1403.78 L1814.82 1403.78 L1814.82 1434.4 L1822.46 1434.4 L1822.46 1438.34 L1802.55 1438.34 L1802.55 1434.4 Z" fill="#000000" fill-rule="nonzero" fill-opacity="1" /><path clip-path="url(#clip980)" d="M1831.95 1403.78 L1850.31 1403.78 L1850.31 1407.71 L1836.23 1407.71 L1836.23 1416.18 Q1837.25 1415.84 1838.27 1415.67 Q1839.29 1415.49 1840.31 1415.49 Q1846.1 1415.49 1849.48 1418.66 Q1852.85 1421.83 1852.85 1427.25 Q1852.85 1432.83 1849.38 1435.93 Q1845.91 1439.01 1839.59 1439.01 Q1837.42 1439.01 1835.15 1438.64 Q1832.9 1438.27 1830.49 1437.53 L1830.49 1432.83 Q1832.58 1433.96 1834.8 1434.52 Q1837.02 1435.07 1839.5 1435.07 Q1843.5 1435.07 1845.84 1432.97 Q1848.18 1430.86 1848.18 1427.25 Q1848.18 1423.64 1845.84 1421.53 Q1843.5 1419.42 1839.5 1419.42 Q1837.62 1419.42 1835.75 1419.84 Q1833.9 1420.26 1831.95 1421.14 L1831.95 1403.78 Z" fill="#000000" fill-rule="nonzero" fill-opacity="1" /><path clip-path="url(#clip980)" d="M2331.53 1434.4 L2347.85 1434.4 L2347.85 1438.34 L2325.9 1438.34 L2325.9 1434.4 Q2328.57 1431.65 2333.15 1427.02 Q2337.76 1422.36 2338.94 1421.02 Q2341.18 1418.5 2342.06 1416.76 Q2342.96 1415 2342.96 1413.31 Q2342.96 1410.56 2341.02 1408.82 Q2339.1 1407.09 2336 1407.09 Q2333.8 1407.09 2331.34 1407.85 Q2328.91 1408.61 2326.14 1410.16 L2326.14 1405.44 Q2328.96 1404.31 2331.41 1403.73 Q2333.87 1403.15 2335.9 1403.15 Q2341.27 1403.15 2344.47 1405.84 Q2347.66 1408.52 2347.66 1413.01 Q2347.66 1415.14 2346.85 1417.06 Q2346.07 1418.96 2343.96 1421.55 Q2343.38 1422.22 2340.28 1425.44 Q2337.18 1428.64 2331.53 1434.4 Z" fill="#000000" fill-rule="nonzero" fill-opacity="1" /><path clip-path="url(#clip980)" d="M2367.66 1406.85 Q2364.05 1406.85 2362.22 1410.42 Q2360.42 1413.96 2360.42 1421.09 Q2360.42 1428.2 2362.22 1431.76 Q2364.05 1435.3 2367.66 1435.3 Q2371.3 1435.3 2373.1 1431.76 Q2374.93 1428.2 2374.93 1421.09 Q2374.93 1413.96 2373.1 1410.42 Q2371.3 1406.85 2367.66 1406.85 M2367.66 1403.15 Q2373.47 1403.15 2376.53 1407.76 Q2379.61 1412.34 2379.61 1421.09 Q2379.61 1429.82 2376.53 1434.42 Q2373.47 1439.01 2367.66 1439.01 Q2361.85 1439.01 2358.77 1434.42 Q2355.72 1429.82 2355.72 1421.09 Q2355.72 1412.34 2358.77 1407.76 Q2361.85 1403.15 2367.66 1403.15 Z" fill="#000000" fill-rule="nonzero" fill-opacity="1" /><path clip-path="url(#clip980)" d="M1284.64 1485.15 L1290.84 1485.15 L1301.98 1515.07 L1313.12 1485.15 L1319.33 1485.15 L1305.96 1520.8 L1298 1520.8 L1284.64 1485.15 Z" fill="#000000" fill-rule="nonzero" fill-opacity="1" /><polyline clip-path="url(#clip980)" style="stroke:#000000; stroke-linecap:round; stroke-linejoin:round; stroke-width:4; stroke-opacity:1; fill:none" points="251.208,1375.94 251.208,47.2441 "/>
<polyline clip-path="url(#clip980)" style="stroke:#000000; stroke-linecap:round; stroke-linejoin:round; stroke-width:4; stroke-opacity:1; fill:none" points="2352.76,1375.94 2352.76,47.2441 "/>
<polyline clip-path="url(#clip980)" style="stroke:#000000; stroke-linecap:round; stroke-linejoin:round; stroke-width:4; stroke-opacity:1; fill:none" points="251.208,1338.33 270.105,1338.33 "/>
<polyline clip-path="url(#clip980)" style="stroke:#000000; stroke-linecap:round; stroke-linejoin:round; stroke-width:4; stroke-opacity:1; fill:none" points="251.208,1061.1 270.105,1061.1 "/>
<polyline clip-path="url(#clip980)" style="stroke:#000000; stroke-linecap:round; stroke-linejoin:round; stroke-width:4; stroke-opacity:1; fill:none" points="251.208,783.866 270.105,783.866 "/>
<polyline clip-path="url(#clip980)" style="stroke:#000000; stroke-linecap:round; stroke-linejoin:round; stroke-width:4; stroke-opacity:1; fill:none" points="251.208,506.633 270.105,506.633 "/>
<polyline clip-path="url(#clip980)" style="stroke:#000000; stroke-linecap:round; stroke-linejoin:round; stroke-width:4; stroke-opacity:1; fill:none" points="251.208,229.4 270.105,229.4 "/>
<polyline clip-path="url(#clip980)" style="stroke:#000000; stroke-linecap:round; stroke-linejoin:round; stroke-width:4; stroke-opacity:1; fill:none" points="2352.76,1338.33 2333.86,1338.33 "/>
<polyline clip-path="url(#clip980)" style="stroke:#000000; stroke-linecap:round; stroke-linejoin:round; stroke-width:4; stroke-opacity:1; fill:none" points="2352.76,1061.1 2333.86,1061.1 "/>
<polyline clip-path="url(#clip980)" style="stroke:#000000; stroke-linecap:round; stroke-linejoin:round; stroke-width:4; stroke-opacity:1; fill:none" points="2352.76,783.866 2333.86,783.866 "/>
<polyline clip-path="url(#clip980)" style="stroke:#000000; stroke-linecap:round; stroke-linejoin:round; stroke-width:4; stroke-opacity:1; fill:none" points="2352.76,506.633 2333.86,506.633 "/>
<polyline clip-path="url(#clip980)" style="stroke:#000000; stroke-linecap:round; stroke-linejoin:round; stroke-width:4; stroke-opacity:1; fill:none" points="2352.76,229.4 2333.86,229.4 "/>
<path clip-path="url(#clip980)" d="M203.263 1324.13 Q199.652 1324.13 197.824 1327.69 Q196.018 1331.24 196.018 1338.37 Q196.018 1345.47 197.824 1349.04 Q199.652 1352.58 203.263 1352.58 Q206.898 1352.58 208.703 1349.04 Q210.532 1345.47 210.532 1338.37 Q210.532 1331.24 208.703 1327.69 Q206.898 1324.13 203.263 1324.13 M203.263 1320.43 Q209.073 1320.43 212.129 1325.03 Q215.208 1329.62 215.208 1338.37 Q215.208 1347.09 212.129 1351.7 Q209.073 1356.28 203.263 1356.28 Q197.453 1356.28 194.374 1351.7 Q191.319 1347.09 191.319 1338.37 Q191.319 1329.62 194.374 1325.03 Q197.453 1320.43 203.263 1320.43 Z" fill="#000000" fill-rule="nonzero" fill-opacity="1" /><path clip-path="url(#clip980)" d="M194.305 1043.82 L212.661 1043.82 L212.661 1047.75 L198.587 1047.75 L198.587 1056.23 Q199.606 1055.88 200.624 1055.72 Q201.643 1055.53 202.661 1055.53 Q208.448 1055.53 211.828 1058.7 Q215.208 1061.87 215.208 1067.29 Q215.208 1072.87 211.735 1075.97 Q208.263 1079.05 201.944 1079.05 Q199.768 1079.05 197.499 1078.68 Q195.254 1078.31 192.847 1077.57 L192.847 1072.87 Q194.93 1074 197.152 1074.56 Q199.374 1075.11 201.851 1075.11 Q205.856 1075.11 208.194 1073.01 Q210.532 1070.9 210.532 1067.29 Q210.532 1063.68 208.194 1061.57 Q205.856 1059.47 201.851 1059.47 Q199.976 1059.47 198.101 1059.88 Q196.249 1060.3 194.305 1061.18 L194.305 1043.82 Z" fill="#000000" fill-rule="nonzero" fill-opacity="1" /><path clip-path="url(#clip980)" d="M163.912 797.211 L171.55 797.211 L171.55 770.845 L163.24 772.512 L163.24 768.252 L171.504 766.586 L176.18 766.586 L176.18 797.211 L183.819 797.211 L183.819 801.146 L163.912 801.146 L163.912 797.211 Z" fill="#000000" fill-rule="nonzero" fill-opacity="1" /><path clip-path="url(#clip980)" d="M203.263 769.664 Q199.652 769.664 197.824 773.229 Q196.018 776.771 196.018 783.9 Q196.018 791.007 197.824 794.572 Q199.652 798.113 203.263 798.113 Q206.898 798.113 208.703 794.572 Q210.532 791.007 210.532 783.9 Q210.532 776.771 208.703 773.229 Q206.898 769.664 203.263 769.664 M203.263 765.961 Q209.073 765.961 212.129 770.567 Q215.208 775.151 215.208 783.9 Q215.208 792.627 212.129 797.234 Q209.073 801.817 203.263 801.817 Q197.453 801.817 194.374 797.234 Q191.319 792.627 191.319 783.9 Q191.319 775.151 194.374 770.567 Q197.453 765.961 203.263 765.961 Z" fill="#000000" fill-rule="nonzero" fill-opacity="1" /><path clip-path="url(#clip980)" d="M164.907 519.978 L172.546 519.978 L172.546 493.612 L164.236 495.279 L164.236 491.02 L172.5 489.353 L177.175 489.353 L177.175 519.978 L184.814 519.978 L184.814 523.913 L164.907 523.913 L164.907 519.978 Z" fill="#000000" fill-rule="nonzero" fill-opacity="1" /><path clip-path="url(#clip980)" d="M194.305 489.353 L212.661 489.353 L212.661 493.288 L198.587 493.288 L198.587 501.76 Q199.606 501.413 200.624 501.251 Q201.643 501.066 202.661 501.066 Q208.448 501.066 211.828 504.237 Q215.208 507.408 215.208 512.825 Q215.208 518.404 211.735 521.506 Q208.263 524.584 201.944 524.584 Q199.768 524.584 197.499 524.214 Q195.254 523.844 192.847 523.103 L192.847 518.404 Q194.93 519.538 197.152 520.094 Q199.374 520.649 201.851 520.649 Q205.856 520.649 208.194 518.543 Q210.532 516.436 210.532 512.825 Q210.532 509.214 208.194 507.108 Q205.856 505.001 201.851 505.001 Q199.976 505.001 198.101 505.418 Q196.249 505.834 194.305 506.714 L194.305 489.353 Z" fill="#000000" fill-rule="nonzero" fill-opacity="1" /><path clip-path="url(#clip980)" d="M167.129 242.745 L183.449 242.745 L183.449 246.68 L161.504 246.68 L161.504 242.745 Q164.166 239.99 168.75 235.361 Q173.356 230.708 174.537 229.366 Q176.782 226.842 177.662 225.106 Q178.564 223.347 178.564 221.657 Q178.564 218.903 176.62 217.167 Q174.699 215.43 171.597 215.43 Q169.398 215.43 166.944 216.194 Q164.513 216.958 161.736 218.509 L161.736 213.787 Q164.56 212.653 167.013 212.074 Q169.467 211.495 171.504 211.495 Q176.875 211.495 180.069 214.18 Q183.263 216.866 183.263 221.356 Q183.263 223.486 182.453 225.407 Q181.666 227.305 179.56 229.898 Q178.981 230.569 175.879 233.787 Q172.777 236.981 167.129 242.745 Z" fill="#000000" fill-rule="nonzero" fill-opacity="1" /><path clip-path="url(#clip980)" d="M203.263 215.199 Q199.652 215.199 197.824 218.764 Q196.018 222.305 196.018 229.435 Q196.018 236.541 197.824 240.106 Q199.652 243.648 203.263 243.648 Q206.898 243.648 208.703 240.106 Q210.532 236.541 210.532 229.435 Q210.532 222.305 208.703 218.764 Q206.898 215.199 203.263 215.199 M203.263 211.495 Q209.073 211.495 212.129 216.102 Q215.208 220.685 215.208 229.435 Q215.208 238.162 212.129 242.768 Q209.073 247.352 203.263 247.352 Q197.453 247.352 194.374 242.768 Q191.319 238.162 191.319 229.435 Q191.319 220.685 194.374 216.102 Q197.453 211.495 203.263 211.495 Z" fill="#000000" fill-rule="nonzero" fill-opacity="1" /><path clip-path="url(#clip980)" d="M63.7283 729.764 L63.7283 722.857 L81.3931 711.049 L63.7283 699.177 L63.7283 692.27 L86.5493 707.548 L111.248 691.251 L111.248 698.158 L91.0371 711.526 L111.248 724.99 L111.248 731.928 L85.8809 714.964 L63.7283 729.764 Z" fill="#000000" fill-rule="nonzero" fill-opacity="1" /><polyline clip-path="url(#clip982)" style="stroke:#009af9; stroke-linecap:round; stroke-linejoin:round; stroke-width:20; stroke-opacity:1; fill:none" points="251.208,1338.33 252.735,1334.3 "/>
<polyline clip-path="url(#clip982)" style="stroke:#009af9; stroke-linecap:round; stroke-linejoin:round; stroke-width:20; stroke-opacity:1; fill:none" points="252.735,1334.3 255.65,1326.61 "/>
<polyline clip-path="url(#clip982)" style="stroke:#009af9; stroke-linecap:round; stroke-linejoin:round; stroke-width:20; stroke-opacity:1; fill:none" points="255.65,1326.61 258.564,1318.92 "/>
<polyline clip-path="url(#clip982)" style="stroke:#009af9; stroke-linecap:round; stroke-linejoin:round; stroke-width:20; stroke-opacity:1; fill:none" points="258.564,1318.92 261.479,1311.23 "/>
<polyline clip-path="url(#clip982)" style="stroke:#009af9; stroke-linecap:round; stroke-linejoin:round; stroke-width:20; stroke-opacity:1; fill:none" points="261.479,1311.23 264.393,1303.54 "/>
<polyline clip-path="url(#clip982)" style="stroke:#009af9; stroke-linecap:round; stroke-linejoin:round; stroke-width:20; stroke-opacity:1; fill:none" points="264.393,1303.54 267.309,1295.86 "/>
<polyline clip-path="url(#clip982)" style="stroke:#009af9; stroke-linecap:round; stroke-linejoin:round; stroke-width:20; stroke-opacity:1; fill:none" points="267.309,1295.86 270.225,1288.17 "/>
<polyline clip-path="url(#clip982)" style="stroke:#009af9; stroke-linecap:round; stroke-linejoin:round; stroke-width:20; stroke-opacity:1; fill:none" points="270.225,1288.17 273.143,1280.48 "/>
<polyline clip-path="url(#clip982)" style="stroke:#009af9; stroke-linecap:round; stroke-linejoin:round; stroke-width:20; stroke-opacity:1; fill:none" points="273.143,1280.48 276.061,1272.79 "/>
<polyline clip-path="url(#clip982)" style="stroke:#009af9; stroke-linecap:round; stroke-linejoin:round; stroke-width:20; stroke-opacity:1; fill:none" points="276.061,1272.79 278.982,1265.1 "/>
<polyline clip-path="url(#clip982)" style="stroke:#009af9; stroke-linecap:round; stroke-linejoin:round; stroke-width:20; stroke-opacity:1; fill:none" points="278.982,1265.1 281.906,1257.41 "/>
<polyline clip-path="url(#clip982)" style="stroke:#009af9; stroke-linecap:round; stroke-linejoin:round; stroke-width:20; stroke-opacity:1; fill:none" points="281.906,1257.41 284.832,1249.73 "/>
<polyline clip-path="url(#clip982)" style="stroke:#009af9; stroke-linecap:round; stroke-linejoin:round; stroke-width:20; stroke-opacity:1; fill:none" points="284.832,1249.73 287.762,1242.04 "/>
<polyline clip-path="url(#clip982)" style="stroke:#009af9; stroke-linecap:round; stroke-linejoin:round; stroke-width:20; stroke-opacity:1; fill:none" points="287.762,1242.04 290.695,1234.35 "/>
<polyline clip-path="url(#clip982)" style="stroke:#009af9; stroke-linecap:round; stroke-linejoin:round; stroke-width:20; stroke-opacity:1; fill:none" points="290.695,1234.35 293.634,1226.66 "/>
<polyline clip-path="url(#clip982)" style="stroke:#009af9; stroke-linecap:round; stroke-linejoin:round; stroke-width:20; stroke-opacity:1; fill:none" points="293.634,1226.66 296.579,1218.98 "/>
<polyline clip-path="url(#clip982)" style="stroke:#009af9; stroke-linecap:round; stroke-linejoin:round; stroke-width:20; stroke-opacity:1; fill:none" points="296.579,1218.98 299.529,1211.29 "/>
<polyline clip-path="url(#clip982)" style="stroke:#009af9; stroke-linecap:round; stroke-linejoin:round; stroke-width:20; stroke-opacity:1; fill:none" points="299.529,1211.29 302.487,1203.61 "/>
<polyline clip-path="url(#clip982)" style="stroke:#009af9; stroke-linecap:round; stroke-linejoin:round; stroke-width:20; stroke-opacity:1; fill:none" points="302.487,1203.61 305.454,1195.93 "/>
<polyline clip-path="url(#clip982)" style="stroke:#009af9; stroke-linecap:round; stroke-linejoin:round; stroke-width:20; stroke-opacity:1; fill:none" points="305.454,1195.93 308.429,1188.24 "/>
<polyline clip-path="url(#clip982)" style="stroke:#009af9; stroke-linecap:round; stroke-linejoin:round; stroke-width:20; stroke-opacity:1; fill:none" points="308.429,1188.24 311.414,1180.56 "/>
<polyline clip-path="url(#clip982)" style="stroke:#009af9; stroke-linecap:round; stroke-linejoin:round; stroke-width:20; stroke-opacity:1; fill:none" points="311.414,1180.56 314.411,1172.88 "/>
<polyline clip-path="url(#clip982)" style="stroke:#009af9; stroke-linecap:round; stroke-linejoin:round; stroke-width:20; stroke-opacity:1; fill:none" points="314.411,1172.88 317.419,1165.2 "/>
<polyline clip-path="url(#clip982)" style="stroke:#009af9; stroke-linecap:round; stroke-linejoin:round; stroke-width:20; stroke-opacity:1; fill:none" points="317.419,1165.2 320.441,1157.53 "/>
<polyline clip-path="url(#clip982)" style="stroke:#009af9; stroke-linecap:round; stroke-linejoin:round; stroke-width:20; stroke-opacity:1; fill:none" points="320.441,1157.53 323.478,1149.85 "/>
<polyline clip-path="url(#clip982)" style="stroke:#009af9; stroke-linecap:round; stroke-linejoin:round; stroke-width:20; stroke-opacity:1; fill:none" points="323.478,1149.85 326.531,1142.18 "/>
<polyline clip-path="url(#clip982)" style="stroke:#009af9; stroke-linecap:round; stroke-linejoin:round; stroke-width:20; stroke-opacity:1; fill:none" points="326.531,1142.18 329.6,1134.5 "/>
<polyline clip-path="url(#clip982)" style="stroke:#009af9; stroke-linecap:round; stroke-linejoin:round; stroke-width:20; stroke-opacity:1; fill:none" points="329.6,1134.5 332.689,1126.83 "/>
<polyline clip-path="url(#clip982)" style="stroke:#009af9; stroke-linecap:round; stroke-linejoin:round; stroke-width:20; stroke-opacity:1; fill:none" points="332.689,1126.83 335.797,1119.16 "/>
<polyline clip-path="url(#clip982)" style="stroke:#009af9; stroke-linecap:round; stroke-linejoin:round; stroke-width:20; stroke-opacity:1; fill:none" points="335.797,1119.16 338.926,1111.5 "/>
<polyline clip-path="url(#clip982)" style="stroke:#009af9; stroke-linecap:round; stroke-linejoin:round; stroke-width:20; stroke-opacity:1; fill:none" points="338.926,1111.5 342.078,1103.84 "/>
<polyline clip-path="url(#clip982)" style="stroke:#009af9; stroke-linecap:round; stroke-linejoin:round; stroke-width:20; stroke-opacity:1; fill:none" points="342.078,1103.84 345.255,1096.18 "/>
<polyline clip-path="url(#clip982)" style="stroke:#009af9; stroke-linecap:round; stroke-linejoin:round; stroke-width:20; stroke-opacity:1; fill:none" points="345.255,1096.18 348.458,1088.52 "/>
<polyline clip-path="url(#clip982)" style="stroke:#009af9; stroke-linecap:round; stroke-linejoin:round; stroke-width:20; stroke-opacity:1; fill:none" points="348.458,1088.52 351.688,1080.87 "/>
<polyline clip-path="url(#clip982)" style="stroke:#009af9; stroke-linecap:round; stroke-linejoin:round; stroke-width:20; stroke-opacity:1; fill:none" points="351.688,1080.87 354.947,1073.22 "/>
<polyline clip-path="url(#clip982)" style="stroke:#009af9; stroke-linecap:round; stroke-linejoin:round; stroke-width:20; stroke-opacity:1; fill:none" points="354.947,1073.22 358.238,1065.57 "/>
<polyline clip-path="url(#clip982)" style="stroke:#009af9; stroke-linecap:round; stroke-linejoin:round; stroke-width:20; stroke-opacity:1; fill:none" points="358.238,1065.57 361.561,1057.93 "/>
<polyline clip-path="url(#clip982)" style="stroke:#009af9; stroke-linecap:round; stroke-linejoin:round; stroke-width:20; stroke-opacity:1; fill:none" points="361.561,1057.93 364.918,1050.29 "/>
<polyline clip-path="url(#clip982)" style="stroke:#009af9; stroke-linecap:round; stroke-linejoin:round; stroke-width:20; stroke-opacity:1; fill:none" points="364.918,1050.29 368.312,1042.65 "/>
<polyline clip-path="url(#clip982)" style="stroke:#009af9; stroke-linecap:round; stroke-linejoin:round; stroke-width:20; stroke-opacity:1; fill:none" points="368.312,1042.65 371.744,1035.02 "/>
<polyline clip-path="url(#clip982)" style="stroke:#009af9; stroke-linecap:round; stroke-linejoin:round; stroke-width:20; stroke-opacity:1; fill:none" points="371.744,1035.02 375.216,1027.4 "/>
<polyline clip-path="url(#clip982)" style="stroke:#009af9; stroke-linecap:round; stroke-linejoin:round; stroke-width:20; stroke-opacity:1; fill:none" points="375.216,1027.4 378.73,1019.78 "/>
<polyline clip-path="url(#clip982)" style="stroke:#009af9; stroke-linecap:round; stroke-linejoin:round; stroke-width:20; stroke-opacity:1; fill:none" points="378.73,1019.78 382.287,1012.17 "/>
<polyline clip-path="url(#clip982)" style="stroke:#009af9; stroke-linecap:round; stroke-linejoin:round; stroke-width:20; stroke-opacity:1; fill:none" points="382.287,1012.17 385.891,1004.56 "/>
<polyline clip-path="url(#clip982)" style="stroke:#009af9; stroke-linecap:round; stroke-linejoin:round; stroke-width:20; stroke-opacity:1; fill:none" points="385.891,1004.56 389.543,996.959 "/>
<polyline clip-path="url(#clip982)" style="stroke:#009af9; stroke-linecap:round; stroke-linejoin:round; stroke-width:20; stroke-opacity:1; fill:none" points="389.543,996.959 393.244,989.364 "/>
<polyline clip-path="url(#clip982)" style="stroke:#009af9; stroke-linecap:round; stroke-linejoin:round; stroke-width:20; stroke-opacity:1; fill:none" points="393.244,989.364 396.998,981.777 "/>
<polyline clip-path="url(#clip982)" style="stroke:#009af9; stroke-linecap:round; stroke-linejoin:round; stroke-width:20; stroke-opacity:1; fill:none" points="396.998,981.777 400.805,974.198 "/>
<polyline clip-path="url(#clip982)" style="stroke:#009af9; stroke-linecap:round; stroke-linejoin:round; stroke-width:20; stroke-opacity:1; fill:none" points="400.805,974.198 404.669,966.626 "/>
<polyline clip-path="url(#clip982)" style="stroke:#009af9; stroke-linecap:round; stroke-linejoin:round; stroke-width:20; stroke-opacity:1; fill:none" points="404.669,966.626 408.591,959.063 "/>
<polyline clip-path="url(#clip982)" style="stroke:#009af9; stroke-linecap:round; stroke-linejoin:round; stroke-width:20; stroke-opacity:1; fill:none" points="408.591,959.063 412.573,951.508 "/>
<polyline clip-path="url(#clip982)" style="stroke:#009af9; stroke-linecap:round; stroke-linejoin:round; stroke-width:20; stroke-opacity:1; fill:none" points="412.573,951.508 416.618,943.963 "/>
<polyline clip-path="url(#clip982)" style="stroke:#009af9; stroke-linecap:round; stroke-linejoin:round; stroke-width:20; stroke-opacity:1; fill:none" points="416.618,943.963 420.728,936.427 "/>
<polyline clip-path="url(#clip982)" style="stroke:#009af9; stroke-linecap:round; stroke-linejoin:round; stroke-width:20; stroke-opacity:1; fill:none" points="420.728,936.427 424.904,928.902 "/>
<polyline clip-path="url(#clip982)" style="stroke:#009af9; stroke-linecap:round; stroke-linejoin:round; stroke-width:20; stroke-opacity:1; fill:none" points="424.904,928.902 429.149,921.387 "/>
<polyline clip-path="url(#clip982)" style="stroke:#009af9; stroke-linecap:round; stroke-linejoin:round; stroke-width:20; stroke-opacity:1; fill:none" points="429.149,921.387 433.466,913.884 "/>
<polyline clip-path="url(#clip982)" style="stroke:#009af9; stroke-linecap:round; stroke-linejoin:round; stroke-width:20; stroke-opacity:1; fill:none" points="433.466,913.884 437.855,906.392 "/>
<polyline clip-path="url(#clip982)" style="stroke:#009af9; stroke-linecap:round; stroke-linejoin:round; stroke-width:20; stroke-opacity:1; fill:none" points="437.855,906.392 442.32,898.913 "/>
<polyline clip-path="url(#clip982)" style="stroke:#009af9; stroke-linecap:round; stroke-linejoin:round; stroke-width:20; stroke-opacity:1; fill:none" points="442.32,898.913 446.862,891.447 "/>
<polyline clip-path="url(#clip982)" style="stroke:#009af9; stroke-linecap:round; stroke-linejoin:round; stroke-width:20; stroke-opacity:1; fill:none" points="446.862,891.447 451.484,883.994 "/>
<polyline clip-path="url(#clip982)" style="stroke:#009af9; stroke-linecap:round; stroke-linejoin:round; stroke-width:20; stroke-opacity:1; fill:none" points="451.484,883.994 456.187,876.556 "/>
<polyline clip-path="url(#clip982)" style="stroke:#009af9; stroke-linecap:round; stroke-linejoin:round; stroke-width:20; stroke-opacity:1; fill:none" points="456.187,876.556 460.974,869.132 "/>
<polyline clip-path="url(#clip982)" style="stroke:#009af9; stroke-linecap:round; stroke-linejoin:round; stroke-width:20; stroke-opacity:1; fill:none" points="460.974,869.132 465.847,861.724 "/>
<polyline clip-path="url(#clip982)" style="stroke:#009af9; stroke-linecap:round; stroke-linejoin:round; stroke-width:20; stroke-opacity:1; fill:none" points="465.847,861.724 470.807,854.333 "/>
<polyline clip-path="url(#clip982)" style="stroke:#009af9; stroke-linecap:round; stroke-linejoin:round; stroke-width:20; stroke-opacity:1; fill:none" points="470.807,854.333 475.857,846.958 "/>
<polyline clip-path="url(#clip982)" style="stroke:#009af9; stroke-linecap:round; stroke-linejoin:round; stroke-width:20; stroke-opacity:1; fill:none" points="475.857,846.958 480.998,839.6 "/>
<polyline clip-path="url(#clip982)" style="stroke:#009af9; stroke-linecap:round; stroke-linejoin:round; stroke-width:20; stroke-opacity:1; fill:none" points="480.998,839.6 486.232,832.261 "/>
<polyline clip-path="url(#clip982)" style="stroke:#009af9; stroke-linecap:round; stroke-linejoin:round; stroke-width:20; stroke-opacity:1; fill:none" points="486.232,832.261 491.561,824.941 "/>
<polyline clip-path="url(#clip982)" style="stroke:#009af9; stroke-linecap:round; stroke-linejoin:round; stroke-width:20; stroke-opacity:1; fill:none" points="491.561,824.941 496.987,817.641 "/>
<polyline clip-path="url(#clip982)" style="stroke:#009af9; stroke-linecap:round; stroke-linejoin:round; stroke-width:20; stroke-opacity:1; fill:none" points="496.987,817.641 502.512,810.362 "/>
<polyline clip-path="url(#clip982)" style="stroke:#009af9; stroke-linecap:round; stroke-linejoin:round; stroke-width:20; stroke-opacity:1; fill:none" points="502.512,810.362 508.137,803.104 "/>
<polyline clip-path="url(#clip982)" style="stroke:#009af9; stroke-linecap:round; stroke-linejoin:round; stroke-width:20; stroke-opacity:1; fill:none" points="508.137,803.104 513.863,795.868 "/>
<polyline clip-path="url(#clip982)" style="stroke:#009af9; stroke-linecap:round; stroke-linejoin:round; stroke-width:20; stroke-opacity:1; fill:none" points="513.863,795.868 519.692,788.655 "/>
<polyline clip-path="url(#clip982)" style="stroke:#009af9; stroke-linecap:round; stroke-linejoin:round; stroke-width:20; stroke-opacity:1; fill:none" points="519.692,788.655 525.626,781.465 "/>
<polyline clip-path="url(#clip982)" style="stroke:#009af9; stroke-linecap:round; stroke-linejoin:round; stroke-width:20; stroke-opacity:1; fill:none" points="525.626,781.465 531.665,774.3 "/>
<polyline clip-path="url(#clip982)" style="stroke:#009af9; stroke-linecap:round; stroke-linejoin:round; stroke-width:20; stroke-opacity:1; fill:none" points="531.665,774.3 537.812,767.161 "/>
<polyline clip-path="url(#clip982)" style="stroke:#009af9; stroke-linecap:round; stroke-linejoin:round; stroke-width:20; stroke-opacity:1; fill:none" points="537.812,767.161 544.067,760.048 "/>
<polyline clip-path="url(#clip982)" style="stroke:#009af9; stroke-linecap:round; stroke-linejoin:round; stroke-width:20; stroke-opacity:1; fill:none" points="544.067,760.048 550.431,752.962 "/>
<polyline clip-path="url(#clip982)" style="stroke:#009af9; stroke-linecap:round; stroke-linejoin:round; stroke-width:20; stroke-opacity:1; fill:none" points="550.431,752.962 556.905,745.903 "/>
<polyline clip-path="url(#clip982)" style="stroke:#009af9; stroke-linecap:round; stroke-linejoin:round; stroke-width:20; stroke-opacity:1; fill:none" points="556.905,745.903 563.49,738.874 "/>
<polyline clip-path="url(#clip982)" style="stroke:#009af9; stroke-linecap:round; stroke-linejoin:round; stroke-width:20; stroke-opacity:1; fill:none" points="563.49,738.874 570.187,731.874 "/>
<polyline clip-path="url(#clip982)" style="stroke:#009af9; stroke-linecap:round; stroke-linejoin:round; stroke-width:20; stroke-opacity:1; fill:none" points="570.187,731.874 576.997,724.904 "/>
<polyline clip-path="url(#clip982)" style="stroke:#009af9; stroke-linecap:round; stroke-linejoin:round; stroke-width:20; stroke-opacity:1; fill:none" points="576.997,724.904 583.92,717.965 "/>
<polyline clip-path="url(#clip982)" style="stroke:#009af9; stroke-linecap:round; stroke-linejoin:round; stroke-width:20; stroke-opacity:1; fill:none" points="583.92,717.965 590.957,711.058 "/>
<polyline clip-path="url(#clip982)" style="stroke:#009af9; stroke-linecap:round; stroke-linejoin:round; stroke-width:20; stroke-opacity:1; fill:none" points="590.957,711.058 598.107,704.184 "/>
<polyline clip-path="url(#clip982)" style="stroke:#009af9; stroke-linecap:round; stroke-linejoin:round; stroke-width:20; stroke-opacity:1; fill:none" points="598.107,704.184 605.372,697.343 "/>
<polyline clip-path="url(#clip982)" style="stroke:#009af9; stroke-linecap:round; stroke-linejoin:round; stroke-width:20; stroke-opacity:1; fill:none" points="605.372,697.343 612.752,690.537 "/>
<polyline clip-path="url(#clip982)" style="stroke:#009af9; stroke-linecap:round; stroke-linejoin:round; stroke-width:20; stroke-opacity:1; fill:none" points="612.752,690.537 620.246,683.765 "/>
<polyline clip-path="url(#clip982)" style="stroke:#009af9; stroke-linecap:round; stroke-linejoin:round; stroke-width:20; stroke-opacity:1; fill:none" points="620.246,683.765 627.855,677.029 "/>
<polyline clip-path="url(#clip982)" style="stroke:#009af9; stroke-linecap:round; stroke-linejoin:round; stroke-width:20; stroke-opacity:1; fill:none" points="627.855,677.029 635.578,670.33 "/>
<polyline clip-path="url(#clip982)" style="stroke:#009af9; stroke-linecap:round; stroke-linejoin:round; stroke-width:20; stroke-opacity:1; fill:none" points="635.578,670.33 643.415,663.668 "/>
<polyline clip-path="url(#clip982)" style="stroke:#009af9; stroke-linecap:round; stroke-linejoin:round; stroke-width:20; stroke-opacity:1; fill:none" points="643.415,663.668 651.367,657.043 "/>
<polyline clip-path="url(#clip982)" style="stroke:#009af9; stroke-linecap:round; stroke-linejoin:round; stroke-width:20; stroke-opacity:1; fill:none" points="651.367,657.043 659.432,650.456 "/>
<polyline clip-path="url(#clip982)" style="stroke:#009af9; stroke-linecap:round; stroke-linejoin:round; stroke-width:20; stroke-opacity:1; fill:none" points="659.432,650.456 667.61,643.909 "/>
<polyline clip-path="url(#clip982)" style="stroke:#009af9; stroke-linecap:round; stroke-linejoin:round; stroke-width:20; stroke-opacity:1; fill:none" points="667.61,643.909 675.901,637.401 "/>
<polyline clip-path="url(#clip982)" style="stroke:#009af9; stroke-linecap:round; stroke-linejoin:round; stroke-width:20; stroke-opacity:1; fill:none" points="675.901,637.401 684.304,630.933 "/>
<polyline clip-path="url(#clip982)" style="stroke:#009af9; stroke-linecap:round; stroke-linejoin:round; stroke-width:20; stroke-opacity:1; fill:none" points="684.304,630.933 692.818,624.506 "/>
<polyline clip-path="url(#clip982)" style="stroke:#009af9; stroke-linecap:round; stroke-linejoin:round; stroke-width:20; stroke-opacity:1; fill:none" points="692.818,624.506 701.442,618.12 "/>
<polyline clip-path="url(#clip982)" style="stroke:#009af9; stroke-linecap:round; stroke-linejoin:round; stroke-width:20; stroke-opacity:1; fill:none" points="701.442,618.12 710.176,611.776 "/>
<polyline clip-path="url(#clip982)" style="stroke:#009af9; stroke-linecap:round; stroke-linejoin:round; stroke-width:20; stroke-opacity:1; fill:none" points="710.176,611.776 719.018,605.473 "/>
<polyline clip-path="url(#clip982)" style="stroke:#009af9; stroke-linecap:round; stroke-linejoin:round; stroke-width:20; stroke-opacity:1; fill:none" points="719.018,605.473 727.968,599.213 "/>
<polyline clip-path="url(#clip982)" style="stroke:#009af9; stroke-linecap:round; stroke-linejoin:round; stroke-width:20; stroke-opacity:1; fill:none" points="727.968,599.213 737.024,592.996 "/>
<polyline clip-path="url(#clip982)" style="stroke:#009af9; stroke-linecap:round; stroke-linejoin:round; stroke-width:20; stroke-opacity:1; fill:none" points="737.024,592.996 746.185,586.821 "/>
<polyline clip-path="url(#clip982)" style="stroke:#009af9; stroke-linecap:round; stroke-linejoin:round; stroke-width:20; stroke-opacity:1; fill:none" points="746.185,586.821 755.451,580.691 "/>
<polyline clip-path="url(#clip982)" style="stroke:#009af9; stroke-linecap:round; stroke-linejoin:round; stroke-width:20; stroke-opacity:1; fill:none" points="755.451,580.691 764.819,574.603 "/>
<polyline clip-path="url(#clip982)" style="stroke:#009af9; stroke-linecap:round; stroke-linejoin:round; stroke-width:20; stroke-opacity:1; fill:none" points="764.819,574.603 774.289,568.56 "/>
<polyline clip-path="url(#clip982)" style="stroke:#009af9; stroke-linecap:round; stroke-linejoin:round; stroke-width:20; stroke-opacity:1; fill:none" points="774.289,568.56 783.859,562.561 "/>
<polyline clip-path="url(#clip982)" style="stroke:#009af9; stroke-linecap:round; stroke-linejoin:round; stroke-width:20; stroke-opacity:1; fill:none" points="783.859,562.561 793.527,556.606 "/>
<polyline clip-path="url(#clip982)" style="stroke:#009af9; stroke-linecap:round; stroke-linejoin:round; stroke-width:20; stroke-opacity:1; fill:none" points="793.527,556.606 803.293,550.695 "/>
<polyline clip-path="url(#clip982)" style="stroke:#009af9; stroke-linecap:round; stroke-linejoin:round; stroke-width:20; stroke-opacity:1; fill:none" points="803.293,550.695 813.155,544.829 "/>
<polyline clip-path="url(#clip982)" style="stroke:#009af9; stroke-linecap:round; stroke-linejoin:round; stroke-width:20; stroke-opacity:1; fill:none" points="813.155,544.829 823.111,539.008 "/>
<polyline clip-path="url(#clip982)" style="stroke:#009af9; stroke-linecap:round; stroke-linejoin:round; stroke-width:20; stroke-opacity:1; fill:none" points="823.111,539.008 833.16,533.231 "/>
<polyline clip-path="url(#clip982)" style="stroke:#009af9; stroke-linecap:round; stroke-linejoin:round; stroke-width:20; stroke-opacity:1; fill:none" points="833.16,533.231 843.301,527.498 "/>
<polyline clip-path="url(#clip982)" style="stroke:#009af9; stroke-linecap:round; stroke-linejoin:round; stroke-width:20; stroke-opacity:1; fill:none" points="843.301,527.498 853.531,521.811 "/>
<polyline clip-path="url(#clip982)" style="stroke:#009af9; stroke-linecap:round; stroke-linejoin:round; stroke-width:20; stroke-opacity:1; fill:none" points="853.531,521.811 863.85,516.168 "/>
<polyline clip-path="url(#clip982)" style="stroke:#009af9; stroke-linecap:round; stroke-linejoin:round; stroke-width:20; stroke-opacity:1; fill:none" points="863.85,516.168 874.255,510.569 "/>
<polyline clip-path="url(#clip982)" style="stroke:#009af9; stroke-linecap:round; stroke-linejoin:round; stroke-width:20; stroke-opacity:1; fill:none" points="874.255,510.569 884.745,505.015 "/>
<polyline clip-path="url(#clip982)" style="stroke:#009af9; stroke-linecap:round; stroke-linejoin:round; stroke-width:20; stroke-opacity:1; fill:none" points="884.745,505.015 895.32,499.505 "/>
<polyline clip-path="url(#clip982)" style="stroke:#009af9; stroke-linecap:round; stroke-linejoin:round; stroke-width:20; stroke-opacity:1; fill:none" points="895.32,499.505 905.976,494.04 "/>
<polyline clip-path="url(#clip982)" style="stroke:#009af9; stroke-linecap:round; stroke-linejoin:round; stroke-width:20; stroke-opacity:1; fill:none" points="905.976,494.04 916.712,488.618 "/>
<polyline clip-path="url(#clip982)" style="stroke:#009af9; stroke-linecap:round; stroke-linejoin:round; stroke-width:20; stroke-opacity:1; fill:none" points="916.712,488.618 927.528,483.241 "/>
<polyline clip-path="url(#clip982)" style="stroke:#009af9; stroke-linecap:round; stroke-linejoin:round; stroke-width:20; stroke-opacity:1; fill:none" points="927.528,483.241 938.421,477.907 "/>
<polyline clip-path="url(#clip982)" style="stroke:#009af9; stroke-linecap:round; stroke-linejoin:round; stroke-width:20; stroke-opacity:1; fill:none" points="938.421,477.907 949.389,472.616 "/>
<polyline clip-path="url(#clip982)" style="stroke:#009af9; stroke-linecap:round; stroke-linejoin:round; stroke-width:20; stroke-opacity:1; fill:none" points="949.389,472.616 960.432,467.369 "/>
<polyline clip-path="url(#clip982)" style="stroke:#009af9; stroke-linecap:round; stroke-linejoin:round; stroke-width:20; stroke-opacity:1; fill:none" points="960.432,467.369 971.548,462.164 "/>
<polyline clip-path="url(#clip982)" style="stroke:#009af9; stroke-linecap:round; stroke-linejoin:round; stroke-width:20; stroke-opacity:1; fill:none" points="971.548,462.164 982.735,457.002 "/>
<polyline clip-path="url(#clip982)" style="stroke:#009af9; stroke-linecap:round; stroke-linejoin:round; stroke-width:20; stroke-opacity:1; fill:none" points="982.735,457.002 993.992,451.883 "/>
<polyline clip-path="url(#clip982)" style="stroke:#009af9; stroke-linecap:round; stroke-linejoin:round; stroke-width:20; stroke-opacity:1; fill:none" points="993.992,451.883 1005.32,446.806 "/>
<polyline clip-path="url(#clip982)" style="stroke:#009af9; stroke-linecap:round; stroke-linejoin:round; stroke-width:20; stroke-opacity:1; fill:none" points="1005.32,446.806 1016.71,441.77 "/>
<polyline clip-path="url(#clip982)" style="stroke:#009af9; stroke-linecap:round; stroke-linejoin:round; stroke-width:20; stroke-opacity:1; fill:none" points="1016.71,441.77 1028.17,436.776 "/>
<polyline clip-path="url(#clip982)" style="stroke:#009af9; stroke-linecap:round; stroke-linejoin:round; stroke-width:20; stroke-opacity:1; fill:none" points="1028.17,436.776 1039.69,431.823 "/>
<polyline clip-path="url(#clip982)" style="stroke:#009af9; stroke-linecap:round; stroke-linejoin:round; stroke-width:20; stroke-opacity:1; fill:none" points="1039.69,431.823 1051.27,426.911 "/>
<polyline clip-path="url(#clip982)" style="stroke:#009af9; stroke-linecap:round; stroke-linejoin:round; stroke-width:20; stroke-opacity:1; fill:none" points="1051.27,426.911 1062.91,422.039 "/>
<polyline clip-path="url(#clip982)" style="stroke:#009af9; stroke-linecap:round; stroke-linejoin:round; stroke-width:20; stroke-opacity:1; fill:none" points="1062.91,422.039 1074.62,417.208 "/>
<polyline clip-path="url(#clip982)" style="stroke:#009af9; stroke-linecap:round; stroke-linejoin:round; stroke-width:20; stroke-opacity:1; fill:none" points="1074.62,417.208 1086.38,412.416 "/>
<polyline clip-path="url(#clip982)" style="stroke:#009af9; stroke-linecap:round; stroke-linejoin:round; stroke-width:20; stroke-opacity:1; fill:none" points="1086.38,412.416 1098.2,407.663 "/>
<polyline clip-path="url(#clip982)" style="stroke:#009af9; stroke-linecap:round; stroke-linejoin:round; stroke-width:20; stroke-opacity:1; fill:none" points="1098.2,407.663 1110.08,402.95 "/>
<polyline clip-path="url(#clip982)" style="stroke:#009af9; stroke-linecap:round; stroke-linejoin:round; stroke-width:20; stroke-opacity:1; fill:none" points="1110.08,402.95 1122.01,398.275 "/>
<polyline clip-path="url(#clip982)" style="stroke:#009af9; stroke-linecap:round; stroke-linejoin:round; stroke-width:20; stroke-opacity:1; fill:none" points="1122.01,398.275 1133.99,393.638 "/>
<polyline clip-path="url(#clip982)" style="stroke:#009af9; stroke-linecap:round; stroke-linejoin:round; stroke-width:20; stroke-opacity:1; fill:none" points="1133.99,393.638 1146.03,389.039 "/>
<polyline clip-path="url(#clip982)" style="stroke:#009af9; stroke-linecap:round; stroke-linejoin:round; stroke-width:20; stroke-opacity:1; fill:none" points="1146.03,389.039 1158.12,384.477 "/>
<polyline clip-path="url(#clip982)" style="stroke:#009af9; stroke-linecap:round; stroke-linejoin:round; stroke-width:20; stroke-opacity:1; fill:none" points="1158.12,384.477 1170.25,379.952 "/>
<polyline clip-path="url(#clip982)" style="stroke:#009af9; stroke-linecap:round; stroke-linejoin:round; stroke-width:20; stroke-opacity:1; fill:none" points="1170.25,379.952 1182.44,375.464 "/>
<polyline clip-path="url(#clip982)" style="stroke:#009af9; stroke-linecap:round; stroke-linejoin:round; stroke-width:20; stroke-opacity:1; fill:none" points="1182.44,375.464 1194.67,371.012 "/>
<polyline clip-path="url(#clip982)" style="stroke:#009af9; stroke-linecap:round; stroke-linejoin:round; stroke-width:20; stroke-opacity:1; fill:none" points="1194.67,371.012 1206.95,366.596 "/>
<polyline clip-path="url(#clip982)" style="stroke:#009af9; stroke-linecap:round; stroke-linejoin:round; stroke-width:20; stroke-opacity:1; fill:none" points="1206.95,366.596 1219.28,362.216 "/>
<polyline clip-path="url(#clip982)" style="stroke:#009af9; stroke-linecap:round; stroke-linejoin:round; stroke-width:20; stroke-opacity:1; fill:none" points="1219.28,362.216 1231.65,357.87 "/>
<polyline clip-path="url(#clip982)" style="stroke:#009af9; stroke-linecap:round; stroke-linejoin:round; stroke-width:20; stroke-opacity:1; fill:none" points="1231.65,357.87 1244.06,353.559 "/>
<polyline clip-path="url(#clip982)" style="stroke:#009af9; stroke-linecap:round; stroke-linejoin:round; stroke-width:20; stroke-opacity:1; fill:none" points="1244.06,353.559 1256.51,349.282 "/>
<polyline clip-path="url(#clip982)" style="stroke:#009af9; stroke-linecap:round; stroke-linejoin:round; stroke-width:20; stroke-opacity:1; fill:none" points="1256.51,349.282 1269.01,345.039 "/>
<polyline clip-path="url(#clip982)" style="stroke:#009af9; stroke-linecap:round; stroke-linejoin:round; stroke-width:20; stroke-opacity:1; fill:none" points="1269.01,345.039 1279.7,341.446 "/>
<polyline clip-path="url(#clip982)" style="stroke:#009af9; stroke-linecap:round; stroke-linejoin:round; stroke-width:20; stroke-opacity:1; fill:none" points="1279.7,341.446 1287.23,338.936 "/>
<polyline clip-path="url(#clip982)" style="stroke:#009af9; stroke-linecap:round; stroke-linejoin:round; stroke-width:20; stroke-opacity:1; fill:none" points="1287.23,338.936 1292.53,337.179 "/>
<polyline clip-path="url(#clip982)" style="stroke:#009af9; stroke-linecap:round; stroke-linejoin:round; stroke-width:20; stroke-opacity:1; fill:none" points="1292.53,337.179 1296.26,335.948 "/>
<polyline clip-path="url(#clip982)" style="stroke:#009af9; stroke-linecap:round; stroke-linejoin:round; stroke-width:20; stroke-opacity:1; fill:none" points="1296.26,335.948 1298.88,335.085 "/>
<polyline clip-path="url(#clip982)" style="stroke:#009af9; stroke-linecap:round; stroke-linejoin:round; stroke-width:20; stroke-opacity:1; fill:none" points="1298.88,335.085 1300.72,334.48 "/>
<polyline clip-path="url(#clip982)" style="stroke:#009af9; stroke-linecap:round; stroke-linejoin:round; stroke-width:20; stroke-opacity:1; fill:none" points="1300.72,334.48 1301.98,334.065 "/>
<polyline clip-path="url(#clip982)" style="stroke:#009af9; stroke-linecap:round; stroke-linejoin:round; stroke-width:20; stroke-opacity:1; fill:none" points="1301.98,334.065 1301.98,334.065 "/>
<polyline clip-path="url(#clip982)" style="stroke:#009af9; stroke-linecap:round; stroke-linejoin:round; stroke-width:20; stroke-opacity:1; fill:none" points="1301.98,334.065 1303.24,333.652 "/>
<polyline clip-path="url(#clip982)" style="stroke:#009af9; stroke-linecap:round; stroke-linejoin:round; stroke-width:20; stroke-opacity:1; fill:none" points="1303.24,333.652 1305.09,333.048 "/>
<polyline clip-path="url(#clip982)" style="stroke:#009af9; stroke-linecap:round; stroke-linejoin:round; stroke-width:20; stroke-opacity:1; fill:none" points="1305.09,333.048 1307.71,332.189 "/>
<polyline clip-path="url(#clip982)" style="stroke:#009af9; stroke-linecap:round; stroke-linejoin:round; stroke-width:20; stroke-opacity:1; fill:none" points="1307.71,332.189 1311.46,330.97 "/>
<polyline clip-path="url(#clip982)" style="stroke:#009af9; stroke-linecap:round; stroke-linejoin:round; stroke-width:20; stroke-opacity:1; fill:none" points="1311.46,330.97 1316.79,329.239 "/>
<polyline clip-path="url(#clip982)" style="stroke:#009af9; stroke-linecap:round; stroke-linejoin:round; stroke-width:20; stroke-opacity:1; fill:none" points="1316.79,329.239 1324.38,326.786 "/>
<polyline clip-path="url(#clip982)" style="stroke:#009af9; stroke-linecap:round; stroke-linejoin:round; stroke-width:20; stroke-opacity:1; fill:none" points="1324.38,326.786 1335.22,323.315 "/>
<polyline clip-path="url(#clip982)" style="stroke:#009af9; stroke-linecap:round; stroke-linejoin:round; stroke-width:20; stroke-opacity:1; fill:none" points="1335.22,323.315 1347.95,319.274 "/>
<polyline clip-path="url(#clip982)" style="stroke:#009af9; stroke-linecap:round; stroke-linejoin:round; stroke-width:20; stroke-opacity:1; fill:none" points="1347.95,319.274 1360.72,315.263 "/>
<polyline clip-path="url(#clip982)" style="stroke:#009af9; stroke-linecap:round; stroke-linejoin:round; stroke-width:20; stroke-opacity:1; fill:none" points="1360.72,315.263 1373.52,311.284 "/>
<polyline clip-path="url(#clip982)" style="stroke:#009af9; stroke-linecap:round; stroke-linejoin:round; stroke-width:20; stroke-opacity:1; fill:none" points="1373.52,311.284 1386.36,307.334 "/>
<polyline clip-path="url(#clip982)" style="stroke:#009af9; stroke-linecap:round; stroke-linejoin:round; stroke-width:20; stroke-opacity:1; fill:none" points="1386.36,307.334 1399.23,303.415 "/>
<polyline clip-path="url(#clip982)" style="stroke:#009af9; stroke-linecap:round; stroke-linejoin:round; stroke-width:20; stroke-opacity:1; fill:none" points="1399.23,303.415 1412.14,299.524 "/>
<polyline clip-path="url(#clip982)" style="stroke:#009af9; stroke-linecap:round; stroke-linejoin:round; stroke-width:20; stroke-opacity:1; fill:none" points="1412.14,299.524 1425.07,295.663 "/>
<polyline clip-path="url(#clip982)" style="stroke:#009af9; stroke-linecap:round; stroke-linejoin:round; stroke-width:20; stroke-opacity:1; fill:none" points="1425.07,295.663 1438.03,291.831 "/>
<polyline clip-path="url(#clip982)" style="stroke:#009af9; stroke-linecap:round; stroke-linejoin:round; stroke-width:20; stroke-opacity:1; fill:none" points="1438.03,291.831 1442.9,290.401 "/>
<polyline clip-path="url(#clip982)" style="stroke:#009af9; stroke-linecap:round; stroke-linejoin:round; stroke-width:4; stroke-opacity:1; fill:none" points="1442.9,290.401 1455.91,286.607 "/>
<polyline clip-path="url(#clip982)" style="stroke:#009af9; stroke-linecap:round; stroke-linejoin:round; stroke-width:4; stroke-opacity:1; fill:none" points="1455.91,286.607 1468.94,282.841 "/>
<polyline clip-path="url(#clip982)" style="stroke:#009af9; stroke-linecap:round; stroke-linejoin:round; stroke-width:4; stroke-opacity:1; fill:none" points="1468.94,282.841 1482.01,279.103 "/>
<polyline clip-path="url(#clip982)" style="stroke:#009af9; stroke-linecap:round; stroke-linejoin:round; stroke-width:4; stroke-opacity:1; fill:none" points="1482.01,279.103 1495.1,275.392 "/>
<polyline clip-path="url(#clip982)" style="stroke:#009af9; stroke-linecap:round; stroke-linejoin:round; stroke-width:4; stroke-opacity:1; fill:none" points="1495.1,275.392 1508.21,271.707 "/>
<polyline clip-path="url(#clip982)" style="stroke:#009af9; stroke-linecap:round; stroke-linejoin:round; stroke-width:4; stroke-opacity:1; fill:none" points="1508.21,271.707 1521.36,268.049 "/>
<polyline clip-path="url(#clip982)" style="stroke:#009af9; stroke-linecap:round; stroke-linejoin:round; stroke-width:4; stroke-opacity:1; fill:none" points="1521.36,268.049 1534.53,264.418 "/>
<polyline clip-path="url(#clip982)" style="stroke:#009af9; stroke-linecap:round; stroke-linejoin:round; stroke-width:4; stroke-opacity:1; fill:none" points="1534.53,264.418 1547.72,260.812 "/>
<polyline clip-path="url(#clip982)" style="stroke:#009af9; stroke-linecap:round; stroke-linejoin:round; stroke-width:4; stroke-opacity:1; fill:none" points="1547.72,260.812 1560.95,257.231 "/>
<polyline clip-path="url(#clip982)" style="stroke:#009af9; stroke-linecap:round; stroke-linejoin:round; stroke-width:4; stroke-opacity:1; fill:none" points="1560.95,257.231 1574.19,253.676 "/>
<polyline clip-path="url(#clip982)" style="stroke:#009af9; stroke-linecap:round; stroke-linejoin:round; stroke-width:4; stroke-opacity:1; fill:none" points="1574.19,253.676 1587.46,250.145 "/>
<polyline clip-path="url(#clip982)" style="stroke:#009af9; stroke-linecap:round; stroke-linejoin:round; stroke-width:4; stroke-opacity:1; fill:none" points="1587.46,250.145 1600.75,246.639 "/>
<polyline clip-path="url(#clip982)" style="stroke:#009af9; stroke-linecap:round; stroke-linejoin:round; stroke-width:4; stroke-opacity:1; fill:none" points="1600.75,246.639 1614.07,243.157 "/>
<polyline clip-path="url(#clip982)" style="stroke:#009af9; stroke-linecap:round; stroke-linejoin:round; stroke-width:4; stroke-opacity:1; fill:none" points="1614.07,243.157 1627.4,239.699 "/>
<polyline clip-path="url(#clip982)" style="stroke:#009af9; stroke-linecap:round; stroke-linejoin:round; stroke-width:4; stroke-opacity:1; fill:none" points="1627.4,239.699 1640.76,236.265 "/>
<polyline clip-path="url(#clip982)" style="stroke:#009af9; stroke-linecap:round; stroke-linejoin:round; stroke-width:4; stroke-opacity:1; fill:none" points="1640.76,236.265 1654.14,232.854 "/>
<polyline clip-path="url(#clip982)" style="stroke:#009af9; stroke-linecap:round; stroke-linejoin:round; stroke-width:4; stroke-opacity:1; fill:none" points="1654.14,232.854 1667.55,229.466 "/>
<polyline clip-path="url(#clip982)" style="stroke:#009af9; stroke-linecap:round; stroke-linejoin:round; stroke-width:4; stroke-opacity:1; fill:none" points="1667.55,229.466 1680.97,226.101 "/>
<polyline clip-path="url(#clip982)" style="stroke:#009af9; stroke-linecap:round; stroke-linejoin:round; stroke-width:4; stroke-opacity:1; fill:none" points="1680.97,226.101 1694.41,222.758 "/>
<polyline clip-path="url(#clip982)" style="stroke:#009af9; stroke-linecap:round; stroke-linejoin:round; stroke-width:4; stroke-opacity:1; fill:none" points="1694.41,222.758 1707.87,219.437 "/>
<polyline clip-path="url(#clip982)" style="stroke:#009af9; stroke-linecap:round; stroke-linejoin:round; stroke-width:4; stroke-opacity:1; fill:none" points="1707.87,219.437 1721.35,216.139 "/>
<polyline clip-path="url(#clip982)" style="stroke:#009af9; stroke-linecap:round; stroke-linejoin:round; stroke-width:4; stroke-opacity:1; fill:none" points="1721.35,216.139 1734.85,212.862 "/>
<polyline clip-path="url(#clip982)" style="stroke:#009af9; stroke-linecap:round; stroke-linejoin:round; stroke-width:4; stroke-opacity:1; fill:none" points="1734.85,212.862 1748.37,209.606 "/>
<polyline clip-path="url(#clip982)" style="stroke:#009af9; stroke-linecap:round; stroke-linejoin:round; stroke-width:4; stroke-opacity:1; fill:none" points="1748.37,209.606 1761.91,206.371 "/>
<polyline clip-path="url(#clip982)" style="stroke:#009af9; stroke-linecap:round; stroke-linejoin:round; stroke-width:4; stroke-opacity:1; fill:none" points="1761.91,206.371 1775.46,203.157 "/>
<polyline clip-path="url(#clip982)" style="stroke:#009af9; stroke-linecap:round; stroke-linejoin:round; stroke-width:4; stroke-opacity:1; fill:none" points="1775.46,203.157 1789.04,199.964 "/>
<polyline clip-path="url(#clip982)" style="stroke:#009af9; stroke-linecap:round; stroke-linejoin:round; stroke-width:4; stroke-opacity:1; fill:none" points="1789.04,199.964 1802.63,196.791 "/>
<polyline clip-path="url(#clip982)" style="stroke:#009af9; stroke-linecap:round; stroke-linejoin:round; stroke-width:4; stroke-opacity:1; fill:none" points="1802.63,196.791 1816.23,193.638 "/>
<polyline clip-path="url(#clip982)" style="stroke:#009af9; stroke-linecap:round; stroke-linejoin:round; stroke-width:4; stroke-opacity:1; fill:none" points="1816.23,193.638 1829.85,190.505 "/>
<polyline clip-path="url(#clip982)" style="stroke:#009af9; stroke-linecap:round; stroke-linejoin:round; stroke-width:4; stroke-opacity:1; fill:none" points="1829.85,190.505 1843.49,187.392 "/>
<polyline clip-path="url(#clip982)" style="stroke:#009af9; stroke-linecap:round; stroke-linejoin:round; stroke-width:4; stroke-opacity:1; fill:none" points="1843.49,187.392 1857.15,184.297 "/>
<polyline clip-path="url(#clip982)" style="stroke:#009af9; stroke-linecap:round; stroke-linejoin:round; stroke-width:4; stroke-opacity:1; fill:none" points="1857.15,184.297 1870.82,181.222 "/>
<polyline clip-path="url(#clip982)" style="stroke:#009af9; stroke-linecap:round; stroke-linejoin:round; stroke-width:4; stroke-opacity:1; fill:none" points="1870.82,181.222 1884.5,178.166 "/>
<polyline clip-path="url(#clip982)" style="stroke:#009af9; stroke-linecap:round; stroke-linejoin:round; stroke-width:4; stroke-opacity:1; fill:none" points="1884.5,178.166 1898.2,175.129 "/>
<polyline clip-path="url(#clip982)" style="stroke:#009af9; stroke-linecap:round; stroke-linejoin:round; stroke-width:4; stroke-opacity:1; fill:none" points="1898.2,175.129 1911.92,172.11 "/>
<polyline clip-path="url(#clip982)" style="stroke:#009af9; stroke-linecap:round; stroke-linejoin:round; stroke-width:4; stroke-opacity:1; fill:none" points="1911.92,172.11 1925.65,169.109 "/>
<polyline clip-path="url(#clip982)" style="stroke:#009af9; stroke-linecap:round; stroke-linejoin:round; stroke-width:4; stroke-opacity:1; fill:none" points="1925.65,169.109 1939.39,166.126 "/>
<polyline clip-path="url(#clip982)" style="stroke:#009af9; stroke-linecap:round; stroke-linejoin:round; stroke-width:4; stroke-opacity:1; fill:none" points="1939.39,166.126 1953.15,163.161 "/>
<polyline clip-path="url(#clip982)" style="stroke:#009af9; stroke-linecap:round; stroke-linejoin:round; stroke-width:4; stroke-opacity:1; fill:none" points="1953.15,163.161 1966.92,160.214 "/>
<polyline clip-path="url(#clip982)" style="stroke:#009af9; stroke-linecap:round; stroke-linejoin:round; stroke-width:4; stroke-opacity:1; fill:none" points="1966.92,160.214 1980.7,157.284 "/>
<polyline clip-path="url(#clip982)" style="stroke:#009af9; stroke-linecap:round; stroke-linejoin:round; stroke-width:4; stroke-opacity:1; fill:none" points="1980.7,157.284 1994.5,154.371 "/>
<polyline clip-path="url(#clip982)" style="stroke:#009af9; stroke-linecap:round; stroke-linejoin:round; stroke-width:4; stroke-opacity:1; fill:none" points="1994.5,154.371 2008.31,151.475 "/>
<polyline clip-path="url(#clip982)" style="stroke:#009af9; stroke-linecap:round; stroke-linejoin:round; stroke-width:4; stroke-opacity:1; fill:none" points="2008.31,151.475 2022.13,148.596 "/>
<polyline clip-path="url(#clip982)" style="stroke:#009af9; stroke-linecap:round; stroke-linejoin:round; stroke-width:4; stroke-opacity:1; fill:none" points="2022.13,148.596 2035.96,145.733 "/>
<polyline clip-path="url(#clip982)" style="stroke:#009af9; stroke-linecap:round; stroke-linejoin:round; stroke-width:4; stroke-opacity:1; fill:none" points="2035.96,145.733 2049.81,142.887 "/>
<polyline clip-path="url(#clip982)" style="stroke:#009af9; stroke-linecap:round; stroke-linejoin:round; stroke-width:4; stroke-opacity:1; fill:none" points="2049.81,142.887 2063.67,140.057 "/>
<polyline clip-path="url(#clip982)" style="stroke:#009af9; stroke-linecap:round; stroke-linejoin:round; stroke-width:4; stroke-opacity:1; fill:none" points="2063.67,140.057 2077.54,137.243 "/>
<polyline clip-path="url(#clip982)" style="stroke:#009af9; stroke-linecap:round; stroke-linejoin:round; stroke-width:4; stroke-opacity:1; fill:none" points="2077.54,137.243 2091.42,134.445 "/>
<polyline clip-path="url(#clip982)" style="stroke:#009af9; stroke-linecap:round; stroke-linejoin:round; stroke-width:4; stroke-opacity:1; fill:none" points="2091.42,134.445 2105.31,131.663 "/>
<polyline clip-path="url(#clip982)" style="stroke:#009af9; stroke-linecap:round; stroke-linejoin:round; stroke-width:4; stroke-opacity:1; fill:none" points="2105.31,131.663 2119.22,128.896 "/>
<polyline clip-path="url(#clip982)" style="stroke:#009af9; stroke-linecap:round; stroke-linejoin:round; stroke-width:4; stroke-opacity:1; fill:none" points="2119.22,128.896 2133.13,126.144 "/>
<polyline clip-path="url(#clip982)" style="stroke:#009af9; stroke-linecap:round; stroke-linejoin:round; stroke-width:4; stroke-opacity:1; fill:none" points="2133.13,126.144 2147.06,123.407 "/>
<polyline clip-path="url(#clip982)" style="stroke:#009af9; stroke-linecap:round; stroke-linejoin:round; stroke-width:4; stroke-opacity:1; fill:none" points="2147.06,123.407 2161,120.686 "/>
<polyline clip-path="url(#clip982)" style="stroke:#009af9; stroke-linecap:round; stroke-linejoin:round; stroke-width:4; stroke-opacity:1; fill:none" points="2161,120.686 2174.94,117.979 "/>
<polyline clip-path="url(#clip982)" style="stroke:#009af9; stroke-linecap:round; stroke-linejoin:round; stroke-width:4; stroke-opacity:1; fill:none" points="2174.94,117.979 2188.9,115.287 "/>
<polyline clip-path="url(#clip982)" style="stroke:#009af9; stroke-linecap:round; stroke-linejoin:round; stroke-width:4; stroke-opacity:1; fill:none" points="2188.9,115.287 2202.87,112.609 "/>
<polyline clip-path="url(#clip982)" style="stroke:#009af9; stroke-linecap:round; stroke-linejoin:round; stroke-width:4; stroke-opacity:1; fill:none" points="2202.87,112.609 2216.84,109.946 "/>
<polyline clip-path="url(#clip982)" style="stroke:#009af9; stroke-linecap:round; stroke-linejoin:round; stroke-width:4; stroke-opacity:1; fill:none" points="2216.84,109.946 2230.83,107.297 "/>
<polyline clip-path="url(#clip982)" style="stroke:#009af9; stroke-linecap:round; stroke-linejoin:round; stroke-width:4; stroke-opacity:1; fill:none" points="2230.83,107.297 2244.83,104.662 "/>
<polyline clip-path="url(#clip982)" style="stroke:#009af9; stroke-linecap:round; stroke-linejoin:round; stroke-width:4; stroke-opacity:1; fill:none" points="2244.83,104.662 2258.83,102.04 "/>
<polyline clip-path="url(#clip982)" style="stroke:#009af9; stroke-linecap:round; stroke-linejoin:round; stroke-width:4; stroke-opacity:1; fill:none" points="2258.83,102.04 2272.85,99.4325 "/>
<polyline clip-path="url(#clip982)" style="stroke:#009af9; stroke-linecap:round; stroke-linejoin:round; stroke-width:4; stroke-opacity:1; fill:none" points="2272.85,99.4325 2286.87,96.8384 "/>
<polyline clip-path="url(#clip982)" style="stroke:#009af9; stroke-linecap:round; stroke-linejoin:round; stroke-width:4; stroke-opacity:1; fill:none" points="2286.87,96.8384 2300.9,94.2577 "/>
<polyline clip-path="url(#clip982)" style="stroke:#009af9; stroke-linecap:round; stroke-linejoin:round; stroke-width:4; stroke-opacity:1; fill:none" points="2300.9,94.2577 2314.94,91.6903 "/>
<polyline clip-path="url(#clip982)" style="stroke:#009af9; stroke-linecap:round; stroke-linejoin:round; stroke-width:4; stroke-opacity:1; fill:none" points="2314.94,91.6903 2328.99,89.136 "/>
<polyline clip-path="url(#clip982)" style="stroke:#009af9; stroke-linecap:round; stroke-linejoin:round; stroke-width:4; stroke-opacity:1; fill:none" points="2328.99,89.136 2343.05,86.5946 "/>
<polyline clip-path="url(#clip982)" style="stroke:#009af9; stroke-linecap:round; stroke-linejoin:round; stroke-width:4; stroke-opacity:1; fill:none" points="2343.05,86.5946 2352.76,84.8486 "/>
<circle clip-path="url(#clip982)" cx="1442.9" cy="290.401" r="10.8" fill="#ff0000" fill-rule="evenodd" fill-opacity="1" stroke="none"/>
<circle clip-path="url(#clip982)" cx="1442.9" cy="290.401" r="10.8" fill="#ff0000" fill-rule="evenodd" fill-opacity="1" stroke="none"/>
<path clip-path="url(#clip980)" d="M321.259 247.054 L1167.87 247.054 L1167.87 91.5338 L321.259 91.5338  Z" fill="#ffffff" fill-rule="evenodd" fill-opacity="1"/>
<polyline clip-path="url(#clip980)" style="stroke:#000000; stroke-linecap:round; stroke-linejoin:round; stroke-width:4; stroke-opacity:1; fill:none" points="321.259,247.054 1167.87,247.054 1167.87,91.5338 321.259,91.5338 321.259,247.054 "/>
<polyline clip-path="url(#clip980)" style="stroke:#009af9; stroke-linecap:round; stroke-linejoin:round; stroke-width:20; stroke-opacity:1; fill:none" points="344.61,143.374 484.713,143.374 "/>
<path clip-path="url(#clip980)" d="M530.309 127.228 L530.309 131.788 Q527.647 130.515 525.286 129.89 Q522.925 129.265 520.726 129.265 Q516.906 129.265 514.823 130.747 Q512.763 132.228 512.763 134.96 Q512.763 137.251 514.128 138.432 Q515.517 139.589 519.36 140.307 L522.184 140.885 Q527.415 141.881 529.892 144.404 Q532.392 146.904 532.392 151.117 Q532.392 156.14 529.013 158.733 Q525.656 161.325 519.151 161.325 Q516.698 161.325 513.92 160.77 Q511.165 160.214 508.202 159.126 L508.202 154.311 Q511.05 155.908 513.781 156.719 Q516.513 157.529 519.151 157.529 Q523.156 157.529 525.332 155.955 Q527.508 154.381 527.508 151.464 Q527.508 148.918 525.934 147.483 Q524.383 146.047 520.818 145.33 L517.971 144.774 Q512.739 143.733 510.402 141.51 Q508.064 139.288 508.064 135.33 Q508.064 130.747 511.281 128.108 Q514.522 125.469 520.193 125.469 Q522.624 125.469 525.147 125.909 Q527.67 126.348 530.309 127.228 Z" fill="#000000" fill-rule="nonzero" fill-opacity="1" /><path clip-path="url(#clip980)" d="M543.712 127.367 L543.712 134.728 L552.485 134.728 L552.485 138.038 L543.712 138.038 L543.712 152.112 Q543.712 155.283 544.568 156.186 Q545.448 157.089 548.11 157.089 L552.485 157.089 L552.485 160.654 L548.11 160.654 Q543.179 160.654 541.304 158.825 Q539.429 156.973 539.429 152.112 L539.429 138.038 L536.304 138.038 L536.304 134.728 L539.429 134.728 L539.429 127.367 L543.712 127.367 Z" fill="#000000" fill-rule="nonzero" fill-opacity="1" /><path clip-path="url(#clip980)" d="M580.262 146.626 L580.262 148.709 L560.679 148.709 Q560.957 153.108 563.318 155.422 Q565.702 157.714 569.938 157.714 Q572.392 157.714 574.684 157.112 Q576.998 156.51 579.267 155.307 L579.267 159.334 Q576.975 160.307 574.568 160.816 Q572.16 161.325 569.684 161.325 Q563.48 161.325 559.846 157.714 Q556.235 154.103 556.235 147.946 Q556.235 141.58 559.661 137.853 Q563.11 134.103 568.943 134.103 Q574.174 134.103 577.207 137.483 Q580.262 140.839 580.262 146.626 M576.003 145.376 Q575.957 141.881 574.035 139.797 Q572.137 137.714 568.989 137.714 Q565.424 137.714 563.272 139.728 Q561.142 141.742 560.818 145.399 L576.003 145.376 Z" fill="#000000" fill-rule="nonzero" fill-opacity="1" /><path clip-path="url(#clip980)" d="M599.035 147.621 Q593.873 147.621 591.883 148.802 Q589.892 149.983 589.892 152.83 Q589.892 155.098 591.373 156.441 Q592.878 157.76 595.447 157.76 Q598.989 157.76 601.119 155.26 Q603.271 152.737 603.271 148.571 L603.271 147.621 L599.035 147.621 M607.531 145.862 L607.531 160.654 L603.271 160.654 L603.271 156.719 Q601.813 159.08 599.637 160.214 Q597.461 161.325 594.313 161.325 Q590.332 161.325 587.971 159.103 Q585.633 156.858 585.633 153.108 Q585.633 148.733 588.549 146.51 Q591.489 144.288 597.299 144.288 L603.271 144.288 L603.271 143.871 Q603.271 140.932 601.327 139.334 Q599.406 137.714 595.91 137.714 Q593.688 137.714 591.582 138.247 Q589.475 138.779 587.531 139.844 L587.531 135.909 Q589.869 135.006 592.068 134.566 Q594.267 134.103 596.35 134.103 Q601.975 134.103 604.753 137.02 Q607.531 139.936 607.531 145.862 Z" fill="#000000" fill-rule="nonzero" fill-opacity="1" /><path clip-path="url(#clip980)" d="M633.364 138.663 L633.364 124.635 L637.623 124.635 L637.623 160.654 L633.364 160.654 L633.364 156.765 Q632.021 159.08 629.961 160.214 Q627.924 161.325 625.054 161.325 Q620.355 161.325 617.392 157.575 Q614.452 153.825 614.452 147.714 Q614.452 141.603 617.392 137.853 Q620.355 134.103 625.054 134.103 Q627.924 134.103 629.961 135.237 Q632.021 136.348 633.364 138.663 M618.85 147.714 Q618.85 152.413 620.771 155.098 Q622.716 157.76 626.095 157.76 Q629.475 157.76 631.419 155.098 Q633.364 152.413 633.364 147.714 Q633.364 143.015 631.419 140.353 Q629.475 137.668 626.095 137.668 Q622.716 137.668 620.771 140.353 Q618.85 143.015 618.85 147.714 Z" fill="#000000" fill-rule="nonzero" fill-opacity="1" /><path clip-path="url(#clip980)" d="M657.183 163.061 Q655.378 167.691 653.665 169.103 Q651.952 170.515 649.081 170.515 L645.679 170.515 L645.679 166.95 L648.179 166.95 Q649.938 166.95 650.91 166.117 Q651.882 165.283 653.063 162.182 L653.827 160.237 L643.341 134.728 L647.854 134.728 L655.956 155.006 L664.058 134.728 L668.572 134.728 L657.183 163.061 Z" fill="#000000" fill-rule="nonzero" fill-opacity="1" /><path clip-path="url(#clip980)" d="M706.049 135.492 L706.049 139.52 Q704.243 138.594 702.299 138.131 Q700.354 137.668 698.271 137.668 Q695.1 137.668 693.502 138.64 Q691.928 139.612 691.928 141.557 Q691.928 143.038 693.063 143.895 Q694.197 144.728 697.623 145.492 L699.081 145.816 Q703.618 146.788 705.516 148.571 Q707.437 150.33 707.437 153.501 Q707.437 157.112 704.567 159.219 Q701.72 161.325 696.72 161.325 Q694.637 161.325 692.368 160.908 Q690.123 160.515 687.623 159.705 L687.623 155.307 Q689.984 156.533 692.276 157.158 Q694.567 157.76 696.813 157.76 Q699.822 157.76 701.442 156.742 Q703.063 155.7 703.063 153.825 Q703.063 152.089 701.882 151.163 Q700.725 150.237 696.766 149.381 L695.285 149.034 Q691.326 148.2 689.567 146.487 Q687.808 144.751 687.808 141.742 Q687.808 138.084 690.401 136.094 Q692.993 134.103 697.762 134.103 Q700.123 134.103 702.206 134.45 Q704.289 134.797 706.049 135.492 Z" fill="#000000" fill-rule="nonzero" fill-opacity="1" /><path clip-path="url(#clip980)" d="M718.433 127.367 L718.433 134.728 L727.206 134.728 L727.206 138.038 L718.433 138.038 L718.433 152.112 Q718.433 155.283 719.289 156.186 Q720.169 157.089 722.831 157.089 L727.206 157.089 L727.206 160.654 L722.831 160.654 Q717.9 160.654 716.025 158.825 Q714.15 156.973 714.15 152.112 L714.15 138.038 L711.025 138.038 L711.025 134.728 L714.15 134.728 L714.15 127.367 L718.433 127.367 Z" fill="#000000" fill-rule="nonzero" fill-opacity="1" /><path clip-path="url(#clip980)" d="M744.59 147.621 Q739.428 147.621 737.437 148.802 Q735.447 149.983 735.447 152.83 Q735.447 155.098 736.928 156.441 Q738.433 157.76 741.002 157.76 Q744.544 157.76 746.673 155.26 Q748.826 152.737 748.826 148.571 L748.826 147.621 L744.59 147.621 M753.085 145.862 L753.085 160.654 L748.826 160.654 L748.826 156.719 Q747.368 159.08 745.192 160.214 Q743.016 161.325 739.868 161.325 Q735.886 161.325 733.525 159.103 Q731.187 156.858 731.187 153.108 Q731.187 148.733 734.104 146.51 Q737.044 144.288 742.854 144.288 L748.826 144.288 L748.826 143.871 Q748.826 140.932 746.882 139.334 Q744.96 137.714 741.465 137.714 Q739.243 137.714 737.136 138.247 Q735.03 138.779 733.086 139.844 L733.086 135.909 Q735.423 135.006 737.623 134.566 Q739.822 134.103 741.905 134.103 Q747.53 134.103 750.308 137.02 Q753.085 139.936 753.085 145.862 Z" fill="#000000" fill-rule="nonzero" fill-opacity="1" /><path clip-path="url(#clip980)" d="M766.071 127.367 L766.071 134.728 L774.845 134.728 L774.845 138.038 L766.071 138.038 L766.071 152.112 Q766.071 155.283 766.928 156.186 Q767.808 157.089 770.47 157.089 L774.845 157.089 L774.845 160.654 L770.47 160.654 Q765.539 160.654 763.664 158.825 Q761.789 156.973 761.789 152.112 L761.789 138.038 L758.664 138.038 L758.664 134.728 L761.789 134.728 L761.789 127.367 L766.071 127.367 Z" fill="#000000" fill-rule="nonzero" fill-opacity="1" /><path clip-path="url(#clip980)" d="M802.622 146.626 L802.622 148.709 L783.039 148.709 Q783.317 153.108 785.678 155.422 Q788.062 157.714 792.298 157.714 Q794.752 157.714 797.043 157.112 Q799.358 156.51 801.627 155.307 L801.627 159.334 Q799.335 160.307 796.928 160.816 Q794.52 161.325 792.044 161.325 Q785.84 161.325 782.206 157.714 Q778.595 154.103 778.595 147.946 Q778.595 141.58 782.02 137.853 Q785.469 134.103 791.303 134.103 Q796.534 134.103 799.567 137.483 Q802.622 140.839 802.622 146.626 M798.363 145.376 Q798.317 141.881 796.395 139.797 Q794.497 137.714 791.349 137.714 Q787.784 137.714 785.632 139.728 Q783.502 141.742 783.178 145.399 L798.363 145.376 Z" fill="#000000" fill-rule="nonzero" fill-opacity="1" /><path clip-path="url(#clip980)" d="M843.34 135.723 L843.34 139.705 Q841.534 138.709 839.705 138.223 Q837.9 137.714 836.048 137.714 Q831.904 137.714 829.613 140.353 Q827.321 142.969 827.321 147.714 Q827.321 152.459 829.613 155.098 Q831.904 157.714 836.048 157.714 Q837.9 157.714 839.705 157.228 Q841.534 156.719 843.34 155.723 L843.34 159.658 Q841.557 160.492 839.636 160.908 Q837.738 161.325 835.585 161.325 Q829.729 161.325 826.279 157.645 Q822.83 153.964 822.83 147.714 Q822.83 141.372 826.303 137.737 Q829.798 134.103 835.863 134.103 Q837.83 134.103 839.705 134.52 Q841.58 134.913 843.34 135.723 Z" fill="#000000" fill-rule="nonzero" fill-opacity="1" /><path clip-path="url(#clip980)" d="M860.793 137.714 Q857.367 137.714 855.377 140.399 Q853.386 143.061 853.386 147.714 Q853.386 152.367 855.353 155.052 Q857.344 157.714 860.793 157.714 Q864.196 157.714 866.187 155.029 Q868.177 152.344 868.177 147.714 Q868.177 143.108 866.187 140.422 Q864.196 137.714 860.793 137.714 M860.793 134.103 Q866.349 134.103 869.52 137.714 Q872.691 141.325 872.691 147.714 Q872.691 154.08 869.52 157.714 Q866.349 161.325 860.793 161.325 Q855.214 161.325 852.043 157.714 Q848.895 154.08 848.895 147.714 Q848.895 141.325 852.043 137.714 Q855.214 134.103 860.793 134.103 Z" fill="#000000" fill-rule="nonzero" fill-opacity="1" /><path clip-path="url(#clip980)" d="M901.302 145.006 L901.302 160.654 L897.043 160.654 L897.043 145.145 Q897.043 141.464 895.608 139.635 Q894.173 137.807 891.302 137.807 Q887.853 137.807 885.862 140.006 Q883.872 142.205 883.872 146.001 L883.872 160.654 L879.589 160.654 L879.589 134.728 L883.872 134.728 L883.872 138.756 Q885.4 136.418 887.46 135.26 Q889.543 134.103 892.251 134.103 Q896.719 134.103 899.011 136.881 Q901.302 139.635 901.302 145.006 Z" fill="#000000" fill-rule="nonzero" fill-opacity="1" /><path clip-path="url(#clip980)" d="M928.455 135.723 L928.455 139.705 Q926.649 138.709 924.821 138.223 Q923.015 137.714 921.163 137.714 Q917.02 137.714 914.728 140.353 Q912.436 142.969 912.436 147.714 Q912.436 152.459 914.728 155.098 Q917.02 157.714 921.163 157.714 Q923.015 157.714 924.821 157.228 Q926.649 156.719 928.455 155.723 L928.455 159.658 Q926.672 160.492 924.751 160.908 Q922.853 161.325 920.7 161.325 Q914.844 161.325 911.395 157.645 Q907.946 153.964 907.946 147.714 Q907.946 141.372 911.418 137.737 Q914.913 134.103 920.978 134.103 Q922.946 134.103 924.821 134.52 Q926.696 134.913 928.455 135.723 Z" fill="#000000" fill-rule="nonzero" fill-opacity="1" /><path clip-path="url(#clip980)" d="M958.038 146.626 L958.038 148.709 L938.455 148.709 Q938.733 153.108 941.094 155.422 Q943.478 157.714 947.714 157.714 Q950.168 157.714 952.459 157.112 Q954.774 156.51 957.043 155.307 L957.043 159.334 Q954.751 160.307 952.344 160.816 Q949.936 161.325 947.459 161.325 Q941.256 161.325 937.621 157.714 Q934.01 154.103 934.01 147.946 Q934.01 141.58 937.436 137.853 Q940.885 134.103 946.719 134.103 Q951.95 134.103 954.982 137.483 Q958.038 140.839 958.038 146.626 M953.779 145.376 Q953.732 141.881 951.811 139.797 Q949.913 137.714 946.765 137.714 Q943.2 137.714 941.047 139.728 Q938.918 141.742 938.594 145.399 L953.779 145.376 Z" fill="#000000" fill-rule="nonzero" fill-opacity="1" /><path clip-path="url(#clip980)" d="M986.58 145.006 L986.58 160.654 L982.32 160.654 L982.32 145.145 Q982.32 141.464 980.885 139.635 Q979.45 137.807 976.58 137.807 Q973.131 137.807 971.14 140.006 Q969.149 142.205 969.149 146.001 L969.149 160.654 L964.867 160.654 L964.867 134.728 L969.149 134.728 L969.149 138.756 Q970.677 136.418 972.737 135.26 Q974.82 134.103 977.529 134.103 Q981.996 134.103 984.288 136.881 Q986.58 139.635 986.58 145.006 Z" fill="#000000" fill-rule="nonzero" fill-opacity="1" /><path clip-path="url(#clip980)" d="M999.288 127.367 L999.288 134.728 L1008.06 134.728 L1008.06 138.038 L999.288 138.038 L999.288 152.112 Q999.288 155.283 1000.14 156.186 Q1001.02 157.089 1003.69 157.089 L1008.06 157.089 L1008.06 160.654 L1003.69 160.654 Q998.755 160.654 996.88 158.825 Q995.005 156.973 995.005 152.112 L995.005 138.038 L991.88 138.038 L991.88 134.728 L995.005 134.728 L995.005 127.367 L999.288 127.367 Z" fill="#000000" fill-rule="nonzero" fill-opacity="1" /><path clip-path="url(#clip980)" d="M1028.69 138.709 Q1027.97 138.293 1027.11 138.108 Q1026.28 137.899 1025.26 137.899 Q1021.65 137.899 1019.7 140.26 Q1017.78 142.598 1017.78 146.996 L1017.78 160.654 L1013.5 160.654 L1013.5 134.728 L1017.78 134.728 L1017.78 138.756 Q1019.13 136.395 1021.28 135.26 Q1023.43 134.103 1026.51 134.103 Q1026.95 134.103 1027.48 134.172 Q1028.01 134.219 1028.66 134.335 L1028.69 138.709 Z" fill="#000000" fill-rule="nonzero" fill-opacity="1" /><path clip-path="url(#clip980)" d="M1044.94 147.621 Q1039.77 147.621 1037.78 148.802 Q1035.79 149.983 1035.79 152.83 Q1035.79 155.098 1037.27 156.441 Q1038.78 157.76 1041.35 157.76 Q1044.89 157.76 1047.02 155.26 Q1049.17 152.737 1049.17 148.571 L1049.17 147.621 L1044.94 147.621 M1053.43 145.862 L1053.43 160.654 L1049.17 160.654 L1049.17 156.719 Q1047.71 159.08 1045.54 160.214 Q1043.36 161.325 1040.21 161.325 Q1036.23 161.325 1033.87 159.103 Q1031.53 156.858 1031.53 153.108 Q1031.53 148.733 1034.45 146.51 Q1037.39 144.288 1043.2 144.288 L1049.17 144.288 L1049.17 143.871 Q1049.17 140.932 1047.23 139.334 Q1045.31 137.714 1041.81 137.714 Q1039.59 137.714 1037.48 138.247 Q1035.38 138.779 1033.43 139.844 L1033.43 135.909 Q1035.77 135.006 1037.97 134.566 Q1040.17 134.103 1042.25 134.103 Q1047.88 134.103 1050.65 137.02 Q1053.43 139.936 1053.43 145.862 Z" fill="#000000" fill-rule="nonzero" fill-opacity="1" /><path clip-path="url(#clip980)" d="M1066.42 127.367 L1066.42 134.728 L1075.19 134.728 L1075.19 138.038 L1066.42 138.038 L1066.42 152.112 Q1066.42 155.283 1067.27 156.186 Q1068.15 157.089 1070.82 157.089 L1075.19 157.089 L1075.19 160.654 L1070.82 160.654 Q1065.88 160.654 1064.01 158.825 Q1062.13 156.973 1062.13 152.112 L1062.13 138.038 L1059.01 138.038 L1059.01 134.728 L1062.13 134.728 L1062.13 127.367 L1066.42 127.367 Z" fill="#000000" fill-rule="nonzero" fill-opacity="1" /><path clip-path="url(#clip980)" d="M1080.79 134.728 L1085.05 134.728 L1085.05 160.654 L1080.79 160.654 L1080.79 134.728 M1080.79 124.635 L1085.05 124.635 L1085.05 130.029 L1080.79 130.029 L1080.79 124.635 Z" fill="#000000" fill-rule="nonzero" fill-opacity="1" /><path clip-path="url(#clip980)" d="M1104.01 137.714 Q1100.58 137.714 1098.59 140.399 Q1096.6 143.061 1096.6 147.714 Q1096.6 152.367 1098.57 155.052 Q1100.56 157.714 1104.01 157.714 Q1107.41 157.714 1109.4 155.029 Q1111.39 152.344 1111.39 147.714 Q1111.39 143.108 1109.4 140.422 Q1107.41 137.714 1104.01 137.714 M1104.01 134.103 Q1109.56 134.103 1112.74 137.714 Q1115.91 141.325 1115.91 147.714 Q1115.91 154.08 1112.74 157.714 Q1109.56 161.325 1104.01 161.325 Q1098.43 161.325 1095.26 157.714 Q1092.11 154.08 1092.11 147.714 Q1092.11 141.325 1095.26 137.714 Q1098.43 134.103 1104.01 134.103 Z" fill="#000000" fill-rule="nonzero" fill-opacity="1" /><path clip-path="url(#clip980)" d="M1144.52 145.006 L1144.52 160.654 L1140.26 160.654 L1140.26 145.145 Q1140.26 141.464 1138.82 139.635 Q1137.39 137.807 1134.52 137.807 Q1131.07 137.807 1129.08 140.006 Q1127.09 142.205 1127.09 146.001 L1127.09 160.654 L1122.81 160.654 L1122.81 134.728 L1127.09 134.728 L1127.09 138.756 Q1128.62 136.418 1130.68 135.26 Q1132.76 134.103 1135.47 134.103 Q1139.94 134.103 1142.23 136.881 Q1144.52 139.635 1144.52 145.006 Z" fill="#000000" fill-rule="nonzero" fill-opacity="1" /><circle clip-path="url(#clip980)" cx="414.661" cy="195.214" r="23.04" fill="#ff0000" fill-rule="evenodd" fill-opacity="1" stroke="none"/>
<path clip-path="url(#clip980)" d="M529.776 196.846 L529.776 212.494 L525.517 212.494 L525.517 196.985 Q525.517 193.304 524.082 191.475 Q522.647 189.647 519.776 189.647 Q516.327 189.647 514.337 191.846 Q512.346 194.045 512.346 197.841 L512.346 212.494 L508.064 212.494 L508.064 176.475 L512.346 176.475 L512.346 190.596 Q513.874 188.258 515.934 187.1 Q518.017 185.943 520.726 185.943 Q525.193 185.943 527.485 188.721 Q529.776 191.475 529.776 196.846 Z" fill="#000000" fill-rule="nonzero" fill-opacity="1" /><path clip-path="url(#clip980)" d="M548.318 189.554 Q544.892 189.554 542.901 192.239 Q540.911 194.901 540.911 199.554 Q540.911 204.207 542.878 206.892 Q544.869 209.554 548.318 209.554 Q551.721 209.554 553.711 206.869 Q555.702 204.184 555.702 199.554 Q555.702 194.948 553.711 192.262 Q551.721 189.554 548.318 189.554 M548.318 185.943 Q553.874 185.943 557.045 189.554 Q560.216 193.165 560.216 199.554 Q560.216 205.92 557.045 209.554 Q553.874 213.165 548.318 213.165 Q542.739 213.165 539.568 209.554 Q536.42 205.92 536.42 199.554 Q536.42 193.165 539.568 189.554 Q542.739 185.943 548.318 185.943 Z" fill="#000000" fill-rule="nonzero" fill-opacity="1" /><path clip-path="url(#clip980)" d="M571.397 208.605 L571.397 222.355 L567.114 222.355 L567.114 186.568 L571.397 186.568 L571.397 190.503 Q572.739 188.188 574.776 187.077 Q576.836 185.943 579.684 185.943 Q584.406 185.943 587.346 189.693 Q590.308 193.443 590.308 199.554 Q590.308 205.665 587.346 209.415 Q584.406 213.165 579.684 213.165 Q576.836 213.165 574.776 212.054 Q572.739 210.92 571.397 208.605 M585.887 199.554 Q585.887 194.855 583.943 192.193 Q582.022 189.508 578.642 189.508 Q575.262 189.508 573.318 192.193 Q571.397 194.855 571.397 199.554 Q571.397 204.253 573.318 206.938 Q575.262 209.6 578.642 209.6 Q582.022 209.6 583.943 206.938 Q585.887 204.253 585.887 199.554 Z" fill="#000000" fill-rule="nonzero" fill-opacity="1" /><path clip-path="url(#clip980)" d="M610.494 176.475 L610.494 180.017 L606.42 180.017 Q604.128 180.017 603.225 180.943 Q602.345 181.869 602.345 184.276 L602.345 186.568 L609.359 186.568 L609.359 189.878 L602.345 189.878 L602.345 212.494 L598.063 212.494 L598.063 189.878 L593.989 189.878 L593.989 186.568 L598.063 186.568 L598.063 184.762 Q598.063 180.434 600.077 178.466 Q602.091 176.475 606.466 176.475 L610.494 176.475 Z" fill="#000000" fill-rule="nonzero" fill-opacity="1" /></svg>
