<?xml version="1.0" encoding="utf-8"?>
<svg xmlns="http://www.w3.org/2000/svg" xmlns:xlink="http://www.w3.org/1999/xlink" width="800" height="400" viewBox="0 0 3200 1600">
<defs>
  <clipPath id="clip170">
    <rect x="0" y="0" width="3200" height="1600"/>
  </clipPath>
</defs>
<path clip-path="url(#clip170)" d="M0 1600 L3200 1600 L3200 0 L0 0  Z" fill="#ffffff" fill-rule="evenodd" fill-opacity="1"/>
<defs>
  <clipPath id="clip171">
    <rect x="155" y="47" width="2998" height="1397"/>
  </clipPath>
</defs>
<path clip-path="url(#clip170)" d="M155.478 1443.7 L3152.76 1443.7 L3152.76 47.2441 L155.478 47.2441  Z" fill="#ffffff" fill-rule="evenodd" fill-opacity="1"/>
<polyline clip-path="url(#clip171)" style="stroke:#000000; stroke-linecap:round; stroke-linejoin:round; stroke-width:2; stroke-opacity:0.1; fill:none" points="155.478,1443.7 155.478,47.2441 "/>
<polyline clip-path="url(#clip171)" style="stroke:#000000; stroke-linecap:round; stroke-linejoin:round; stroke-width:2; stroke-opacity:0.1; fill:none" points="754.934,1443.7 754.934,47.2441 "/>
<polyline clip-path="url(#clip171)" style="stroke:#000000; stroke-linecap:round; stroke-linejoin:round; stroke-width:2; stroke-opacity:0.1; fill:none" points="1354.39,1443.7 1354.39,47.2441 "/>
<polyline clip-path="url(#clip171)" style="stroke:#000000; stroke-linecap:round; stroke-linejoin:round; stroke-width:2; stroke-opacity:0.1; fill:none" points="1953.84,1443.7 1953.84,47.2441 "/>
<polyline clip-path="url(#clip171)" style="stroke:#000000; stroke-linecap:round; stroke-linejoin:round; stroke-width:2; stroke-opacity:0.1; fill:none" points="2553.3,1443.7 2553.3,47.2441 "/>
<polyline clip-path="url(#clip171)" style="stroke:#000000; stroke-linecap:round; stroke-linejoin:round; stroke-width:2; stroke-opacity:0.1; fill:none" points="3152.76,1443.7 3152.76,47.2441 "/>
<polyline clip-path="url(#clip171)" style="stroke:#000000; stroke-linecap:round; stroke-linejoin:round; stroke-width:2; stroke-opacity:0.1; fill:none" points="155.478,1443.7 155.478,47.2441 "/>
<polyline clip-path="url(#clip171)" style="stroke:#000000; stroke-linecap:round; stroke-linejoin:round; stroke-width:2; stroke-opacity:0.1; fill:none" points="754.934,1443.7 754.934,47.2441 "/>
<polyline clip-path="url(#clip171)" style="stroke:#000000; stroke-linecap:round; stroke-linejoin:round; stroke-width:2; stroke-opacity:0.1; fill:none" points="1354.39,1443.7 1354.39,47.2441 "/>
<polyline clip-path="url(#clip171)" style="stroke:#000000; stroke-linecap:round; stroke-linejoin:round; stroke-width:2; stroke-opacity:0.1; fill:none" points="1953.84,1443.7 1953.84,47.2441 "/>
<polyline clip-path="url(#clip171)" style="stroke:#000000; stroke-linecap:round; stroke-linejoin:round; stroke-width:2; stroke-opacity:0.1; fill:none" points="2553.3,1443.7 2553.3,47.2441 "/>
<polyline clip-path="url(#clip171)" style="stroke:#000000; stroke-linecap:round; stroke-linejoin:round; stroke-width:2; stroke-opacity:0.1; fill:none" points="3152.76,1443.7 3152.76,47.2441 "/>
<polyline clip-path="url(#clip171)" style="stroke:#000000; stroke-linecap:round; stroke-linejoin:round; stroke-width:2; stroke-opacity:0.1; fill:none" points="155.478,1433.23 3152.76,1433.23 "/>
<polyline clip-path="url(#clip171)" style="stroke:#000000; stroke-linecap:round; stroke-linejoin:round; stroke-width:2; stroke-opacity:0.1; fill:none" points="155.478,1157.57 3152.76,1157.57 "/>
<polyline clip-path="url(#clip171)" style="stroke:#000000; stroke-linecap:round; stroke-linejoin:round; stroke-width:2; stroke-opacity:0.1; fill:none" points="155.478,881.92 3152.76,881.92 "/>
<polyline clip-path="url(#clip171)" style="stroke:#000000; stroke-linecap:round; stroke-linejoin:round; stroke-width:2; stroke-opacity:0.1; fill:none" points="155.478,606.267 3152.76,606.267 "/>
<polyline clip-path="url(#clip171)" style="stroke:#000000; stroke-linecap:round; stroke-linejoin:round; stroke-width:2; stroke-opacity:0.1; fill:none" points="155.478,330.614 3152.76,330.614 "/>
<polyline clip-path="url(#clip171)" style="stroke:#000000; stroke-linecap:round; stroke-linejoin:round; stroke-width:2; stroke-opacity:0.1; fill:none" points="155.478,54.9616 3152.76,54.9616 "/>
<polyline clip-path="url(#clip171)" style="stroke:#000000; stroke-linecap:round; stroke-linejoin:round; stroke-width:2; stroke-opacity:0.1; fill:none" points="155.478,1433.23 3152.76,1433.23 "/>
<polyline clip-path="url(#clip171)" style="stroke:#000000; stroke-linecap:round; stroke-linejoin:round; stroke-width:2; stroke-opacity:0.1; fill:none" points="155.478,1157.57 3152.76,1157.57 "/>
<polyline clip-path="url(#clip171)" style="stroke:#000000; stroke-linecap:round; stroke-linejoin:round; stroke-width:2; stroke-opacity:0.1; fill:none" points="155.478,881.92 3152.76,881.92 "/>
<polyline clip-path="url(#clip171)" style="stroke:#000000; stroke-linecap:round; stroke-linejoin:round; stroke-width:2; stroke-opacity:0.1; fill:none" points="155.478,606.267 3152.76,606.267 "/>
<polyline clip-path="url(#clip171)" style="stroke:#000000; stroke-linecap:round; stroke-linejoin:round; stroke-width:2; stroke-opacity:0.1; fill:none" points="155.478,330.614 3152.76,330.614 "/>
<polyline clip-path="url(#clip171)" style="stroke:#000000; stroke-linecap:round; stroke-linejoin:round; stroke-width:2; stroke-opacity:0.1; fill:none" points="155.478,54.9616 3152.76,54.9616 "/>
<polyline clip-path="url(#clip170)" style="stroke:#000000; stroke-linecap:round; stroke-linejoin:round; stroke-width:4; stroke-opacity:1; fill:none" points="155.478,1443.7 3152.76,1443.7 "/>
<polyline clip-path="url(#clip170)" style="stroke:#000000; stroke-linecap:round; stroke-linejoin:round; stroke-width:4; stroke-opacity:1; fill:none" points="155.478,47.2441 3152.76,47.2441 "/>
<polyline clip-path="url(#clip170)" style="stroke:#000000; stroke-linecap:round; stroke-linejoin:round; stroke-width:4; stroke-opacity:1; fill:none" points="155.478,1443.7 155.478,1424.8 "/>
<polyline clip-path="url(#clip170)" style="stroke:#000000; stroke-linecap:round; stroke-linejoin:round; stroke-width:4; stroke-opacity:1; fill:none" points="754.934,1443.7 754.934,1424.8 "/>
<polyline clip-path="url(#clip170)" style="stroke:#000000; stroke-linecap:round; stroke-linejoin:round; stroke-width:4; stroke-opacity:1; fill:none" points="1354.39,1443.7 1354.39,1424.8 "/>
<polyline clip-path="url(#clip170)" style="stroke:#000000; stroke-linecap:round; stroke-linejoin:round; stroke-width:4; stroke-opacity:1; fill:none" points="1953.84,1443.7 1953.84,1424.8 "/>
<polyline clip-path="url(#clip170)" style="stroke:#000000; stroke-linecap:round; stroke-linejoin:round; stroke-width:4; stroke-opacity:1; fill:none" points="2553.3,1443.7 2553.3,1424.8 "/>
<polyline clip-path="url(#clip170)" style="stroke:#000000; stroke-linecap:round; stroke-linejoin:round; stroke-width:4; stroke-opacity:1; fill:none" points="3152.76,1443.7 3152.76,1424.8 "/>
<polyline clip-path="url(#clip170)" style="stroke:#000000; stroke-linecap:round; stroke-linejoin:round; stroke-width:4; stroke-opacity:1; fill:none" points="155.478,47.2441 155.478,66.1417 "/>
<polyline clip-path="url(#clip170)" style="stroke:#000000; stroke-linecap:round; stroke-linejoin:round; stroke-width:4; stroke-opacity:1; fill:none" points="754.934,47.2441 754.934,66.1417 "/>
<polyline clip-path="url(#clip170)" style="stroke:#000000; stroke-linecap:round; stroke-linejoin:round; stroke-width:4; stroke-opacity:1; fill:none" points="1354.39,47.2441 1354.39,66.1417 "/>
<polyline clip-path="url(#clip170)" style="stroke:#000000; stroke-linecap:round; stroke-linejoin:round; stroke-width:4; stroke-opacity:1; fill:none" points="1953.84,47.2441 1953.84,66.1417 "/>
<polyline clip-path="url(#clip170)" style="stroke:#000000; stroke-linecap:round; stroke-linejoin:round; stroke-width:4; stroke-opacity:1; fill:none" points="2553.3,47.2441 2553.3,66.1417 "/>
<polyline clip-path="url(#clip170)" style="stroke:#000000; stroke-linecap:round; stroke-linejoin:round; stroke-width:4; stroke-opacity:1; fill:none" points="3152.76,47.2441 3152.76,66.1417 "/>
<path clip-path="url(#clip170)" d="M132.862 1481.02 Q129.251 1481.02 127.423 1484.58 Q125.617 1488.12 125.617 1495.25 Q125.617 1502.36 127.423 1505.93 Q129.251 1509.47 132.862 1509.47 Q136.497 1509.47 138.302 1505.93 Q140.131 1502.36 140.131 1495.25 Q140.131 1488.12 138.302 1484.58 Q136.497 1481.02 132.862 1481.02 M132.862 1477.31 Q138.672 1477.31 141.728 1481.92 Q144.807 1486.5 144.807 1495.25 Q144.807 1503.98 141.728 1508.59 Q138.672 1513.17 132.862 1513.17 Q127.052 1513.17 123.973 1508.59 Q120.918 1503.98 120.918 1495.25 Q120.918 1486.5 123.973 1481.92 Q127.052 1477.31 132.862 1477.31 Z" fill="#000000" fill-rule="nonzero" fill-opacity="1" /><path clip-path="url(#clip170)" d="M153.024 1506.62 L157.908 1506.62 L157.908 1512.5 L153.024 1512.5 L153.024 1506.62 Z" fill="#000000" fill-rule="nonzero" fill-opacity="1" /><path clip-path="url(#clip170)" d="M178.094 1481.02 Q174.482 1481.02 172.654 1484.58 Q170.848 1488.12 170.848 1495.25 Q170.848 1502.36 172.654 1505.93 Q174.482 1509.47 178.094 1509.47 Q181.728 1509.47 183.533 1505.93 Q185.362 1502.36 185.362 1495.25 Q185.362 1488.12 183.533 1484.58 Q181.728 1481.02 178.094 1481.02 M178.094 1477.31 Q183.904 1477.31 186.959 1481.92 Q190.038 1486.5 190.038 1495.25 Q190.038 1503.98 186.959 1508.59 Q183.904 1513.17 178.094 1513.17 Q172.283 1513.17 169.205 1508.59 Q166.149 1503.98 166.149 1495.25 Q166.149 1486.5 169.205 1481.92 Q172.283 1477.31 178.094 1477.31 Z" fill="#000000" fill-rule="nonzero" fill-opacity="1" /><path clip-path="url(#clip170)" d="M733.116 1481.02 Q729.505 1481.02 727.677 1484.58 Q725.871 1488.12 725.871 1495.25 Q725.871 1502.36 727.677 1505.93 Q729.505 1509.47 733.116 1509.47 Q736.751 1509.47 738.556 1505.93 Q740.385 1502.36 740.385 1495.25 Q740.385 1488.12 738.556 1484.58 Q736.751 1481.02 733.116 1481.02 M733.116 1477.31 Q738.927 1477.31 741.982 1481.92 Q745.061 1486.5 745.061 1495.25 Q745.061 1503.98 741.982 1508.59 Q738.927 1513.17 733.116 1513.17 Q727.306 1513.17 724.228 1508.59 Q721.172 1503.98 721.172 1495.25 Q721.172 1486.5 724.228 1481.92 Q727.306 1477.31 733.116 1477.31 Z" fill="#000000" fill-rule="nonzero" fill-opacity="1" /><path clip-path="url(#clip170)" d="M753.278 1506.62 L758.163 1506.62 L758.163 1512.5 L753.278 1512.5 L753.278 1506.62 Z" fill="#000000" fill-rule="nonzero" fill-opacity="1" /><path clip-path="url(#clip170)" d="M772.376 1508.56 L788.695 1508.56 L788.695 1512.5 L766.751 1512.5 L766.751 1508.56 Q769.413 1505.81 773.996 1501.18 Q778.602 1496.53 779.783 1495.19 Q782.028 1492.66 782.908 1490.93 Q783.811 1489.17 783.811 1487.48 Q783.811 1484.72 781.866 1482.99 Q779.945 1481.25 776.843 1481.25 Q774.644 1481.25 772.19 1482.01 Q769.76 1482.78 766.982 1484.33 L766.982 1479.61 Q769.806 1478.47 772.26 1477.89 Q774.713 1477.31 776.751 1477.31 Q782.121 1477.31 785.315 1480 Q788.51 1482.69 788.51 1487.18 Q788.51 1489.31 787.7 1491.23 Q786.913 1493.12 784.806 1495.72 Q784.227 1496.39 781.126 1499.61 Q778.024 1502.8 772.376 1508.56 Z" fill="#000000" fill-rule="nonzero" fill-opacity="1" /><path clip-path="url(#clip170)" d="M1331.53 1481.02 Q1327.92 1481.02 1326.09 1484.58 Q1324.29 1488.12 1324.29 1495.25 Q1324.29 1502.36 1326.09 1505.93 Q1327.92 1509.47 1331.53 1509.47 Q1335.16 1509.47 1336.97 1505.93 Q1338.8 1502.36 1338.8 1495.25 Q1338.8 1488.12 1336.97 1484.58 Q1335.16 1481.02 1331.53 1481.02 M1331.53 1477.31 Q1337.34 1477.31 1340.4 1481.92 Q1343.47 1486.5 1343.47 1495.25 Q1343.47 1503.98 1340.4 1508.59 Q1337.34 1513.17 1331.53 1513.17 Q1325.72 1513.17 1322.64 1508.59 Q1319.59 1503.98 1319.59 1495.25 Q1319.59 1486.5 1322.64 1481.92 Q1325.72 1477.31 1331.53 1477.31 Z" fill="#000000" fill-rule="nonzero" fill-opacity="1" /><path clip-path="url(#clip170)" d="M1351.69 1506.62 L1356.58 1506.62 L1356.58 1512.5 L1351.69 1512.5 L1351.69 1506.62 Z" fill="#000000" fill-rule="nonzero" fill-opacity="1" /><path clip-path="url(#clip170)" d="M1379.61 1482.01 L1367.8 1500.46 L1379.61 1500.46 L1379.61 1482.01 M1378.38 1477.94 L1384.26 1477.94 L1384.26 1500.46 L1389.19 1500.46 L1389.19 1504.35 L1384.26 1504.35 L1384.26 1512.5 L1379.61 1512.5 L1379.61 1504.35 L1364.01 1504.35 L1364.01 1499.84 L1378.38 1477.94 Z" fill="#000000" fill-rule="nonzero" fill-opacity="1" /><path clip-path="url(#clip170)" d="M1931.15 1481.02 Q1927.54 1481.02 1925.71 1484.58 Q1923.9 1488.12 1923.9 1495.25 Q1923.9 1502.36 1925.71 1505.93 Q1927.54 1509.47 1931.15 1509.47 Q1934.78 1509.47 1936.59 1505.93 Q1938.42 1502.36 1938.42 1495.25 Q1938.42 1488.12 1936.59 1484.58 Q1934.78 1481.02 1931.15 1481.02 M1931.15 1477.31 Q1936.96 1477.31 1940.01 1481.92 Q1943.09 1486.5 1943.09 1495.25 Q1943.09 1503.98 1940.01 1508.59 Q1936.96 1513.17 1931.15 1513.17 Q1925.34 1513.17 1922.26 1508.59 Q1919.2 1503.98 1919.2 1495.25 Q1919.2 1486.5 1922.26 1481.92 Q1925.34 1477.31 1931.15 1477.31 Z" fill="#000000" fill-rule="nonzero" fill-opacity="1" /><path clip-path="url(#clip170)" d="M1951.31 1506.62 L1956.19 1506.62 L1956.19 1512.5 L1951.31 1512.5 L1951.31 1506.62 Z" fill="#000000" fill-rule="nonzero" fill-opacity="1" /><path clip-path="url(#clip170)" d="M1976.96 1493.36 Q1973.81 1493.36 1971.96 1495.51 Q1970.13 1497.66 1970.13 1501.41 Q1970.13 1505.14 1971.96 1507.31 Q1973.81 1509.47 1976.96 1509.47 Q1980.11 1509.47 1981.93 1507.31 Q1983.79 1505.14 1983.79 1501.41 Q1983.79 1497.66 1981.93 1495.51 Q1980.11 1493.36 1976.96 1493.36 M1986.24 1478.7 L1986.24 1482.96 Q1984.48 1482.13 1982.68 1481.69 Q1980.89 1481.25 1979.13 1481.25 Q1974.5 1481.25 1972.05 1484.37 Q1969.62 1487.5 1969.27 1493.82 Q1970.64 1491.81 1972.7 1490.74 Q1974.76 1489.65 1977.24 1489.65 Q1982.44 1489.65 1985.45 1492.82 Q1988.49 1495.97 1988.49 1501.41 Q1988.49 1506.74 1985.34 1509.95 Q1982.19 1513.17 1976.96 1513.17 Q1970.96 1513.17 1967.79 1508.59 Q1964.62 1503.98 1964.62 1495.25 Q1964.62 1487.06 1968.51 1482.2 Q1972.4 1477.31 1978.95 1477.31 Q1980.71 1477.31 1982.49 1477.66 Q1984.3 1478.01 1986.24 1478.7 Z" fill="#000000" fill-rule="nonzero" fill-opacity="1" /><path clip-path="url(#clip170)" d="M2530.73 1481.02 Q2527.12 1481.02 2525.29 1484.58 Q2523.49 1488.12 2523.49 1495.25 Q2523.49 1502.36 2525.29 1505.93 Q2527.12 1509.47 2530.73 1509.47 Q2534.37 1509.47 2536.17 1505.93 Q2538 1502.36 2538 1495.25 Q2538 1488.12 2536.17 1484.58 Q2534.37 1481.02 2530.73 1481.02 M2530.73 1477.31 Q2536.54 1477.31 2539.6 1481.92 Q2542.68 1486.5 2542.68 1495.25 Q2542.68 1503.98 2539.6 1508.59 Q2536.54 1513.17 2530.73 1513.17 Q2524.92 1513.17 2521.84 1508.59 Q2518.79 1503.98 2518.79 1495.25 Q2518.79 1486.5 2521.84 1481.92 Q2524.92 1477.31 2530.73 1477.31 Z" fill="#000000" fill-rule="nonzero" fill-opacity="1" /><path clip-path="url(#clip170)" d="M2550.89 1506.62 L2555.78 1506.62 L2555.78 1512.5 L2550.89 1512.5 L2550.89 1506.62 Z" fill="#000000" fill-rule="nonzero" fill-opacity="1" /><path clip-path="url(#clip170)" d="M2575.96 1496.09 Q2572.63 1496.09 2570.71 1497.87 Q2568.81 1499.65 2568.81 1502.78 Q2568.81 1505.9 2570.71 1507.69 Q2572.63 1509.47 2575.96 1509.47 Q2579.3 1509.47 2581.22 1507.69 Q2583.14 1505.88 2583.14 1502.78 Q2583.14 1499.65 2581.22 1497.87 Q2579.32 1496.09 2575.96 1496.09 M2571.29 1494.1 Q2568.28 1493.36 2566.59 1491.3 Q2564.92 1489.24 2564.92 1486.27 Q2564.92 1482.13 2567.86 1479.72 Q2570.82 1477.31 2575.96 1477.31 Q2581.12 1477.31 2584.06 1479.72 Q2587 1482.13 2587 1486.27 Q2587 1489.24 2585.31 1491.3 Q2583.65 1493.36 2580.66 1494.1 Q2584.04 1494.88 2585.92 1497.18 Q2587.81 1499.47 2587.81 1502.78 Q2587.81 1507.8 2584.74 1510.49 Q2581.68 1513.17 2575.96 1513.17 Q2570.24 1513.17 2567.17 1510.49 Q2564.11 1507.8 2564.11 1502.78 Q2564.11 1499.47 2566.01 1497.18 Q2567.91 1494.88 2571.29 1494.1 M2569.57 1486.71 Q2569.57 1489.4 2571.24 1490.9 Q2572.93 1492.41 2575.96 1492.41 Q2578.97 1492.41 2580.66 1490.9 Q2582.37 1489.4 2582.37 1486.71 Q2582.37 1484.03 2580.66 1482.52 Q2578.97 1481.02 2575.96 1481.02 Q2572.93 1481.02 2571.24 1482.52 Q2569.57 1484.03 2569.57 1486.71 Z" fill="#000000" fill-rule="nonzero" fill-opacity="1" /><path clip-path="url(#clip170)" d="M3119.91 1508.56 L3127.55 1508.56 L3127.55 1482.2 L3119.24 1483.87 L3119.24 1479.61 L3127.5 1477.94 L3132.18 1477.94 L3132.18 1508.56 L3139.82 1508.56 L3139.82 1512.5 L3119.91 1512.5 L3119.91 1508.56 Z" fill="#000000" fill-rule="nonzero" fill-opacity="1" /><path clip-path="url(#clip170)" d="M3149.26 1506.62 L3154.14 1506.62 L3154.14 1512.5 L3149.26 1512.5 L3149.26 1506.62 Z" fill="#000000" fill-rule="nonzero" fill-opacity="1" /><path clip-path="url(#clip170)" d="M3174.33 1481.02 Q3170.72 1481.02 3168.89 1484.58 Q3167.08 1488.12 3167.08 1495.25 Q3167.08 1502.36 3168.89 1505.93 Q3170.72 1509.47 3174.33 1509.47 Q3177.96 1509.47 3179.77 1505.93 Q3181.6 1502.36 3181.6 1495.25 Q3181.6 1488.12 3179.77 1484.58 Q3177.96 1481.02 3174.33 1481.02 M3174.33 1477.31 Q3180.14 1477.31 3183.2 1481.92 Q3186.27 1486.5 3186.27 1495.25 Q3186.27 1503.98 3183.2 1508.59 Q3180.14 1513.17 3174.33 1513.17 Q3168.52 1513.17 3165.44 1508.59 Q3162.39 1503.98 3162.39 1495.25 Q3162.39 1486.5 3165.44 1481.92 Q3168.52 1477.31 3174.33 1477.31 Z" fill="#000000" fill-rule="nonzero" fill-opacity="1" /><path clip-path="url(#clip170)" d="M1653.18 1554.79 L1653.18 1564.92 L1665.24 1564.92 L1665.24 1569.47 L1653.18 1569.47 L1653.18 1588.82 Q1653.18 1593.18 1654.36 1594.42 Q1655.57 1595.66 1659.23 1595.66 L1665.24 1595.66 L1665.24 1600.56 L1659.23 1600.56 Q1652.45 1600.56 1649.87 1598.05 Q1647.29 1595.5 1647.29 1588.82 L1647.29 1569.47 L1642.99 1569.47 L1642.99 1564.92 L1647.29 1564.92 L1647.29 1554.79 L1653.18 1554.79 Z" fill="#000000" fill-rule="nonzero" fill-opacity="1" /><polyline clip-path="url(#clip170)" style="stroke:#000000; stroke-linecap:round; stroke-linejoin:round; stroke-width:4; stroke-opacity:1; fill:none" points="155.478,1443.7 155.478,47.2441 "/>
<polyline clip-path="url(#clip170)" style="stroke:#000000; stroke-linecap:round; stroke-linejoin:round; stroke-width:4; stroke-opacity:1; fill:none" points="3152.76,1443.7 3152.76,47.2441 "/>
<polyline clip-path="url(#clip170)" style="stroke:#000000; stroke-linecap:round; stroke-linejoin:round; stroke-width:4; stroke-opacity:1; fill:none" points="155.478,1433.23 174.376,1433.23 "/>
<polyline clip-path="url(#clip170)" style="stroke:#000000; stroke-linecap:round; stroke-linejoin:round; stroke-width:4; stroke-opacity:1; fill:none" points="155.478,1157.57 174.376,1157.57 "/>
<polyline clip-path="url(#clip170)" style="stroke:#000000; stroke-linecap:round; stroke-linejoin:round; stroke-width:4; stroke-opacity:1; fill:none" points="155.478,881.92 174.376,881.92 "/>
<polyline clip-path="url(#clip170)" style="stroke:#000000; stroke-linecap:round; stroke-linejoin:round; stroke-width:4; stroke-opacity:1; fill:none" points="155.478,606.267 174.376,606.267 "/>
<polyline clip-path="url(#clip170)" style="stroke:#000000; stroke-linecap:round; stroke-linejoin:round; stroke-width:4; stroke-opacity:1; fill:none" points="155.478,330.614 174.376,330.614 "/>
<polyline clip-path="url(#clip170)" style="stroke:#000000; stroke-linecap:round; stroke-linejoin:round; stroke-width:4; stroke-opacity:1; fill:none" points="155.478,54.9616 174.376,54.9616 "/>
<polyline clip-path="url(#clip170)" style="stroke:#000000; stroke-linecap:round; stroke-linejoin:round; stroke-width:4; stroke-opacity:1; fill:none" points="3152.76,1433.23 3133.86,1433.23 "/>
<polyline clip-path="url(#clip170)" style="stroke:#000000; stroke-linecap:round; stroke-linejoin:round; stroke-width:4; stroke-opacity:1; fill:none" points="3152.76,1157.57 3133.86,1157.57 "/>
<polyline clip-path="url(#clip170)" style="stroke:#000000; stroke-linecap:round; stroke-linejoin:round; stroke-width:4; stroke-opacity:1; fill:none" points="3152.76,881.92 3133.86,881.92 "/>
<polyline clip-path="url(#clip170)" style="stroke:#000000; stroke-linecap:round; stroke-linejoin:round; stroke-width:4; stroke-opacity:1; fill:none" points="3152.76,606.267 3133.86,606.267 "/>
<polyline clip-path="url(#clip170)" style="stroke:#000000; stroke-linecap:round; stroke-linejoin:round; stroke-width:4; stroke-opacity:1; fill:none" points="3152.76,330.614 3133.86,330.614 "/>
<polyline clip-path="url(#clip170)" style="stroke:#000000; stroke-linecap:round; stroke-linejoin:round; stroke-width:4; stroke-opacity:1; fill:none" points="3152.76,54.9616 3133.86,54.9616 "/>
<path clip-path="url(#clip170)" d="M47.3625 1433.68 L77.0383 1433.68 L77.0383 1437.61 L47.3625 1437.61 L47.3625 1433.68 Z" fill="#000000" fill-rule="nonzero" fill-opacity="1" /><path clip-path="url(#clip170)" d="M91.1586 1446.57 L107.478 1446.57 L107.478 1450.51 L85.5336 1450.51 L85.5336 1446.57 Q88.1956 1443.82 92.7789 1439.19 Q97.3854 1434.53 98.5659 1433.19 Q100.811 1430.67 101.691 1428.93 Q102.594 1427.17 102.594 1425.48 Q102.594 1422.73 100.649 1420.99 Q98.728 1419.26 95.6261 1419.26 Q93.4271 1419.26 90.9734 1420.02 Q88.5428 1420.78 85.7651 1422.33 L85.7651 1417.61 Q88.5891 1416.48 91.0428 1415.9 Q93.4965 1415.32 95.5335 1415.32 Q100.904 1415.32 104.098 1418.01 Q107.293 1420.69 107.293 1425.18 Q107.293 1427.31 106.483 1429.23 Q105.696 1431.13 103.589 1433.72 Q103.01 1434.39 99.9085 1437.61 Q96.8067 1440.81 91.1586 1446.57 Z" fill="#000000" fill-rule="nonzero" fill-opacity="1" /><path clip-path="url(#clip170)" d="M46.9921 1158.02 L76.6679 1158.02 L76.6679 1161.96 L46.9921 1161.96 L46.9921 1158.02 Z" fill="#000000" fill-rule="nonzero" fill-opacity="1" /><path clip-path="url(#clip170)" d="M87.5706 1170.92 L95.2095 1170.92 L95.2095 1144.55 L86.8993 1146.22 L86.8993 1141.96 L95.1632 1140.29 L99.8391 1140.29 L99.8391 1170.92 L107.478 1170.92 L107.478 1174.85 L87.5706 1174.85 L87.5706 1170.92 Z" fill="#000000" fill-rule="nonzero" fill-opacity="1" /><path clip-path="url(#clip170)" d="M95.5335 867.719 Q91.9224 867.719 90.0937 871.284 Q88.2882 874.825 88.2882 881.955 Q88.2882 889.061 90.0937 892.626 Q91.9224 896.168 95.5335 896.168 Q99.1678 896.168 100.973 892.626 Q102.802 889.061 102.802 881.955 Q102.802 874.825 100.973 871.284 Q99.1678 867.719 95.5335 867.719 M95.5335 864.015 Q101.344 864.015 104.399 868.622 Q107.478 873.205 107.478 881.955 Q107.478 890.682 104.399 895.288 Q101.344 899.871 95.5335 899.871 Q89.7234 899.871 86.6447 895.288 Q83.5892 890.682 83.5892 881.955 Q83.5892 873.205 86.6447 868.622 Q89.7234 864.015 95.5335 864.015 Z" fill="#000000" fill-rule="nonzero" fill-opacity="1" /><path clip-path="url(#clip170)" d="M87.5706 619.612 L95.2095 619.612 L95.2095 593.247 L86.8993 594.913 L86.8993 590.654 L95.1632 588.987 L99.8391 588.987 L99.8391 619.612 L107.478 619.612 L107.478 623.547 L87.5706 623.547 L87.5706 619.612 Z" fill="#000000" fill-rule="nonzero" fill-opacity="1" /><path clip-path="url(#clip170)" d="M91.1586 343.959 L107.478 343.959 L107.478 347.894 L85.5336 347.894 L85.5336 343.959 Q88.1956 341.205 92.7789 336.575 Q97.3854 331.922 98.5659 330.58 Q100.811 328.057 101.691 326.32 Q102.594 324.561 102.594 322.871 Q102.594 320.117 100.649 318.381 Q98.728 316.645 95.6261 316.645 Q93.4271 316.645 90.9734 317.408 Q88.5428 318.172 85.7651 319.723 L85.7651 315.001 Q88.5891 313.867 91.0428 313.288 Q93.4965 312.709 95.5335 312.709 Q100.904 312.709 104.098 315.395 Q107.293 318.08 107.293 322.57 Q107.293 324.7 106.483 326.621 Q105.696 328.52 103.589 331.112 Q103.01 331.783 99.9085 335.001 Q96.8067 338.195 91.1586 343.959 Z" fill="#000000" fill-rule="nonzero" fill-opacity="1" /><path clip-path="url(#clip170)" d="M100.348 53.6074 Q103.705 54.325 105.58 56.5935 Q107.478 58.862 107.478 62.1953 Q107.478 67.3111 103.959 70.112 Q100.441 72.9129 93.9595 72.9129 Q91.7836 72.9129 89.4688 72.4731 Q87.1771 72.0564 84.7234 71.1999 L84.7234 66.6861 Q86.6678 67.8203 88.9826 68.399 Q91.2974 68.9777 93.8206 68.9777 Q98.2187 68.9777 100.51 67.2416 Q102.825 65.5055 102.825 62.1953 Q102.825 59.1398 100.672 57.4269 Q98.5428 55.6908 94.7234 55.6908 L90.6956 55.6908 L90.6956 51.8482 L94.9085 51.8482 Q98.3576 51.8482 100.186 50.4824 Q102.015 49.0936 102.015 46.501 Q102.015 43.839 100.117 42.4269 Q98.2419 40.9918 94.7234 40.9918 Q92.8021 40.9918 90.603 41.4084 Q88.4039 41.8251 85.7651 42.7047 L85.7651 38.5381 Q88.4271 37.7973 90.7419 37.427 Q93.0798 37.0566 95.14 37.0566 Q100.464 37.0566 103.566 39.4871 Q106.668 41.8945 106.668 46.0149 Q106.668 48.8852 105.024 50.876 Q103.381 52.8435 100.348 53.6074 Z" fill="#000000" fill-rule="nonzero" fill-opacity="1" /><polyline clip-path="url(#clip171)" style="stroke:#009af9; stroke-linecap:round; stroke-linejoin:round; stroke-width:8; stroke-opacity:1; fill:none" points="155.478,790.955 155.478,790.92 155.853,791.403 155.928,790.518 156.012,785.542 156.107,784.451 156.214,784.668 156.334,788.531 156.469,785.766 156.621,791.483 156.792,791.226 156.985,786.824 157.201,791.917 157.445,788.388 157.718,795.384 158.027,789.538 158.373,796.883 158.763,799.988 159.202,803.995 159.696,795.446 160.251,802.399 160.876,808.986 161.579,813.22 162.37,797.666 163.259,807.41 164.26,816.81 165.386,820.584 166.652,813.496 168.077,840.234 169.15,844.157 170.357,809.386 170.859,804.435 171.423,790.145 171.995,794.827 172.637,794.779 173.361,794.583 174.174,774.835 175.089,778.288 176.119,775.279 177.277,793.6 178.581,792.079 180.047,805.396 181.696,776.852 182.879,756.195 184.21,760.447 185.707,762.233 187.391,768.897 189.271,778.155 191.385,767.634 193.764,772.96 196.44,772.716 199.45,788.707 202.837,770.325 206.647,768.73 210.933,761.872 215.756,743.904 219.868,742.036 224.494,758.829 229.699,752.44 235.554,764.137 239.194,760.914 243.289,761.143 247.897,734.463 253.08,748.217 255.452,752.607 258.121,769.867 261.123,785.571 264.501,773.729 268.301,747.475 272.576,727.88 275.518,704.802 278.056,708.548 280.911,720.084 282.824,701.921 284.976,683.892 287.397,687.994 290.121,679.273 293.185,650.857 296.632,657.317 300.51,621.6 302.393,615.889 304.51,596.951 306.567,591.572 308.88,580.962 311.482,600.964 314.41,616.694 317.703,630.416 321.409,631.236 325.577,613.372 330.267,626.057 335.542,624.316 340.281,599.238 345.611,623.527 351.609,600.496 353.693,603.835 356.039,598.796 358.678,595.024 361.646,605.863 364.986,600.178 365.654,596.248 366.405,612.489 366.555,621.652 366.725,621.794 366.915,619.782 367.129,626.231 367.369,627.305 367.64,628.438 367.945,630.761 368.288,629.396 368.673,630.477 369.107,635.632 369.595,632.883 370.144,626.707 370.762,633.78 371.457,623.461 371.738,619.663 372.054,616.783 372.409,616.852 372.809,614.406 373.259,616.308 373.766,616.291 374.335,628.13 374.976,629.995 375.697,629.348 376.508,614.724 377.42,605.402 378.447,609.033 379.602,625.06 380.152,634.723 380.772,640.345 381.469,636.856 382.253,630.888 383.135,628.831 384.128,621.461 385.244,606.924 386.5,605.914 387.914,609.536 389.503,612.962 391.292,600.463 393.304,602.743 395.567,605.113 398.114,614.412 400.979,620.88 404.201,629.634 406.074,622.975 408.18,608.409 410.271,580.617 411.144,588.916 412.125,593.222 413.228,592.832 414.47,588.68 415.867,604.395 417.439,608.275 419.207,599.181 421.195,605.512 423.433,596.618 424.874,591.278 426.494,598.32 428.317,581.081 430.369,609.535 430.779,611.205 431.24,613.821 431.759,611.113 432.344,614.084 433.001,612.547 433.74,607.315 434.412,593.573 435.168,590.944 436.019,595.081 436.976,585.498 438.053,578.133 439.265,587.211 440.627,593.611 442.161,590.224 443.885,575.115 445.826,585.382 448.009,571.735 450.465,559.811 453.228,580.866 455.366,575.797 457.772,606.909 459.233,587.4 460.877,571.355 462.727,563.981 464.808,560.423 467.148,555.308 469.782,584.07 472.744,594.215 476.077,593.023 479.827,580.553 484.045,590.9 487.891,607.961 492.217,600.358 494.146,609.1 496.317,608.432 497.708,620.648 499.273,623.673 501.033,613.551 503.013,599.482 505.241,610.273 507.747,612.148 508.745,613.452 509.868,618.333 510.332,626.445 510.853,631.201 511.439,632.859 512.099,629.645 512.842,646.013 513.445,645.992 514.124,640.976 514.888,644.916 515.747,636.592 516.713,644.108 517.8,641.834 519.024,637.496 520.4,639.964 521.948,630.979 523.69,635.4 524.634,648.399 525.696,652.156 526.891,660.759 528.235,647.957 529.748,644.133 531.449,663.669 533.024,670.469 534.796,675.613 536.789,693.814 539.032,683.464 541.555,710.823 544.393,729.845 547.586,745.621 551.178,764.661 555.219,741.488 556.853,761.349 558.692,782.017 560.759,787.039 563.086,782.06 565.703,775.718 568.647,781.7 571.96,794.497 575.686,785.894 579.878,768.556 584.594,761.438 589.9,741.98 595.869,741.269 602.033,751.814 608.967,731.175 616.352,746.952 624.661,779.059 634.007,752.076 641.169,691.628 644.835,672.662 648.96,662.471 653.601,671.964 658.822,688.866 662.446,669.427 666.524,686.263 671.112,711.301 676.273,712.054 682.079,694.414 687.215,665.64 692.993,658.473 699.494,670.027 706.807,666.749 715.035,693.059 724.291,688.952 731.344,706.669 739.279,724.492 748.205,753.861 755.464,742.307 760.047,730.108 760.964,719.972 761.995,710.835 763.155,721.532 764.461,723.92 765.929,742.762 766.222,741.069 766.553,742.036 766.889,726.754 767.037,725.141 767.203,733.845 767.39,731.345 767.601,730.761 767.837,723.089 768.104,719.014 768.403,715.088 768.74,707.047 769.119,694.48 769.441,699.346 769.802,699.921 770.209,691.723 770.666,698.751 771.181,687.953 771.76,684.627 772.411,689.266 773.144,686.169 773.968,696.77 774.896,684.412 775.744,691.006 776.699,695.992 777.773,695.792 778.981,717.537 779.867,723.106 780.863,723.211 781.984,722.831 783.245,714.922 784.664,741.471 785.316,729.201 786.049,739.084 786.874,745.944 787.803,734.443 788.847,723.693 790.022,736.918 791.343,726.195 792.83,728.449 794.503,714.669 796.385,707.894 797.874,705.118 799.55,719.734 801.435,714.726 802.858,712.969 804.46,729.058 804.78,735.871 805.14,737.004 805.546,737.812 806.002,728.56 806.515,733.975 807.092,747.247 807.741,750.886 808.472,745.744 809.293,755.244 810.218,757.045 811.258,762.306 812.428,754.954 813.745,747.604 815.225,752.964 816.891,760.979 818.766,760.898 820.874,771.547 823.246,765.446 825.915,738.843 828.917,774.039 831.89,803.714 835.234,811.827 838.996,801.016 843.13,763.929 847.781,773.405 853.013,758.904 858.899,720.369 861.111,725.261 863.599,736.41 866.397,741.899 869.546,750.685 871.128,737.021 872.909,705.412 874.345,711.236 875.96,706.148 877.778,700.365 879.822,685.294 882.123,680.21 884.711,690.616 886.501,711.582 888.515,709.236 890.78,701.348 891.481,702.598 892.269,692.898 893.156,691.915 894.154,681.455 895.276,693.947 896.538,699.379 897.959,695.179 899.557,707.185 901.355,706.654 903.377,711.554 905.652,718.445 908.212,718.268 910.795,706.714 912.925,711.701 915.321,703.818 918.017,707.371 921.049,694.421 924.066,680.7 927.46,684.343 931.278,682.713 935.574,689.315 940.406,698.528 945.843,703.54 951.959,655.079 955.358,660.981 959.183,666.371 963.485,657.631 968.326,656.124 973.771,654.309 979.897,688.721 984.562,670.381 989.809,693.395 995.713,676.323 1002.35,679.752 1009.83,677.261 1017.17,659.562 1020.13,639.12 1023.45,615.162 1024.45,619.344 1025.57,614.994 1026.83,618.367 1028.25,627.743 1029.84,620.2 1031.63,632.059 1033.65,645.521 1035.93,662.317 1036.47,661.182 1037.08,658.687 1037.76,660.357 1038.53,667.78 1039.4,671.658 1040.37,667.811 1041.47,655.764 1042.71,648.234 1044.09,636.461 1045.66,630.512 1047.42,634.659 1049.39,635.314 1051.62,642.939 1052.91,654.317 1054.35,642.798 1055.98,640.249 1057.82,643.389 1059.88,641.036 1062.2,629.262 1064.81,635.6 1067.75,621.424 1071.05,616.202 1071.74,610.61 1072.53,615.15 1073.41,626.938 1074.4,628.936 1075.51,624.897 1076.76,624.266 1078.17,632.142 1079.04,627.696 1080.02,617.143 1080.68,617.897 1081.43,617.291 1082.26,605.075 1083.21,603.727 1084.27,595.016 1085.46,592.609 1086.8,593.671 1088.31,602.601 1090.01,609.156 1091.92,634.44 1092.32,634.159 1092.77,629.353 1093.28,628.122 1093.85,629.543 1094.49,636.079 1095.22,633.811 1096.03,632.856 1096.95,627.275 1097.98,629.296 1099.13,619.327 1100.44,607.877 1101.64,597.709 1102.98,598.506 1104.5,597.528 1106.21,597.432 1108.13,605.369 1110.29,609.794 1110.96,607.335 1111.72,603.681 1112.57,601.944 1113.53,611.981 1114.6,615.48 1114.82,616.263 1115.06,617.465 1115.33,613.526 1115.64,609.321 1115.99,607.853 1116.37,608.264 1116.81,604.467 1117.3,598.26 1117.86,593.925 1118.48,604.918 1119.18,605.87 1119.97,607.834 1120.3,602.902 1120.67,601.847 1121.09,599.251 1121.56,594.516 1122.09,585.779 1122.69,586.2 1123.36,582.413 1124.11,590.819 1124.96,586.437 1125.92,578.246 1127,580.895 1128.21,584.317 1129.57,577.588 1131.1,573.281 1132.82,563.919 1134.76,551.827 1136.94,561.318 1139.4,591.075 1140.05,592.9 1140.79,595.932 1141.63,611.77 1142.34,606.974 1143.15,603.372 1144.06,608.793 1145.08,616.089 1146.22,637.563 1146.57,645.913 1146.96,645.836 1147.39,644.263 1147.89,630.494 1148.36,623.143 1148.88,616.31 1149.48,613.697 1150.14,612.562 1150.89,610.722 1151.74,602.825 1152.69,604.574 1153.76,593.366 1154.87,589.835 1156.11,587.323 1157.51,589.046 1159.09,598.371 1160.86,587.673 1162.86,578.449 1164.76,564.189 1166.27,554.759 1167.97,549.602 1169.89,554.857 1172.04,555.185 1174.46,584.939 1176.43,575.42 1178.65,589.004 1181.15,614.633 1183.87,620.129 1186.92,632.038 1187.93,629.968 1189.06,621.34 1189.67,618.376 1190.35,612.359 1191.11,616.517 1191.97,625.657 1192.94,617.52 1194.03,632.28 1195.11,640.379 1196.32,647.49 1197.69,642.726 1199.22,655.203 1200.95,668.13 1202.89,667.379 1205.08,661.719 1207.54,657.284 1210.31,658.754 1213.42,646.254 1216.92,635.477 1220.86,628.342 1225.29,652.588 1230.28,641.498 1235.88,615.998 1237.14,611.957 1238.56,616.119 1240.15,619.486 1240.57,620.254 1241.05,627.029 1241.58,624.381 1242.19,624.996 1242.86,631.741 1243.63,633.893 1244.48,633.721 1245.45,633.924 1246.53,653.443 1247.14,641.448 1247.83,645.84 1248.6,631.811 1249.03,632.906 1249.52,628.899 1250.06,627.212 1250.68,622.787 1251.37,629.343 1252.15,631.559 1253.02,636.228 1254.01,654.137 1254.97,651.811 1256.05,667.197 1256.78,671.67 1257.6,678.686 1258.52,688.872 1259.39,689.081 1260.36,703.064 1261.45,690.463 1262.68,674.708 1264.06,663.424 1265.62,662.519 1267.37,671.603 1269.34,696.847 1271.56,682.89 1274.05,650.965 1274.58,658.316 1275.17,655.659 1275.84,663.741 1276.6,667.433 1277.44,670.961 1278.4,679.78 1279.47,699.012 1280.67,716.381 1281.71,722.313 1282.87,726.63 1284.18,710.954 1285.29,704.653 1286.53,699.918 1287.93,679.688 1289.5,676.057 1291.27,672.653 1293.26,660.493 1293.82,668.401 1294.44,663.822 1295.15,658.761 1295.94,658.662 1296.83,653.294 1297.83,656.619 1298.96,651.857 1300.23,654.466 1301.65,650.927 1303.26,643.244 1305.06,644.287 1307.1,639.715 1309.38,634.786 1311.95,629.132 1314.85,632.548 1318.1,637.853 1321.76,660.694 1325.88,655.08 1330.51,674.823 1332.95,687.765 1335.68,719.48 1337.49,740.725 1339.52,750.178 1341.8,760.65 1344.37,750.671 1347.26,751.768 1350.52,757.235 1354.18,756.23 1354.91,759.686 1355.73,739.26 1356.58,736.534 1357.53,736.061 1358.6,735.365 1359.8,738.16 1361.15,734.621 1362.67,712.857 1362.98,713.135 1363.32,715.378 1363.7,717.617 1364.14,719.913 1364.62,722.545 1365.14,733.181 1365.71,748.377 1366.36,752.961 1367.09,760.805 1367.52,748.323 1368.01,752.651 1368.55,751.874 1369.16,737.529 1369.85,734.064 1370.62,721.447 1371.49,724.784 1372.47,729.573 1373.57,719.903 1374.8,726.785 1376.2,722.37 1377.76,724.023 1379.53,709.85 1381.51,712.675 1383.74,694.72 1384.49,699.623 1385.32,687.33 1386.27,688.65 1387.33,696.073 1388.52,691.216 1389.87,687.818 1391.38,697.378 1393.08,706.81 1394.99,707.7 1397.14,720.915 1398.45,741.247 1399.91,740.108 1401.56,743.218 1403.42,715.282 1403.79,710.499 1404.21,710.821 1404.68,715.716 1405.21,713.613 1405.8,714.85 1406.47,711.973 1407.22,694.204 1408.07,697.214 1409.02,704.913 1409.5,698.654 1410.05,697.67 1410.66,685.035 1411.35,682.078 1412.12,685.153 1412.99,679.902 1413.97,679.247 1415.08,674.206 1416.32,677.307 1417.71,683.838 1419.28,680.64 1421.05,688.944 1423.04,696.979 1425.27,687.975 1427.79,707.794 1430.62,702.237 1433.8,706.129 1437.38,684.815 1439.12,685.111 1441.08,695.11 1443.29,696.707 1445.77,681.288 1448.56,682.953 1451.65,647.771 1452.67,651.852 1453.81,658.192 1455.1,656.274 1456.55,657.907 1458.18,634.663 1459.52,636.072 1461.02,634.674 1462.71,634.621 1464.62,617.715 1466.75,621.431 1469.16,631.356 1471.87,634.23 1474.92,619.866 1478.34,611.145 1482.2,603.319 1484.97,599.655 1488.09,600.076 1491.59,623.034 1495.31,607.388 1499.1,613.545 1503.35,630.298 1508.14,606.829 1513.53,577.062 1515.45,558.641 1517.62,561.119 1520.06,575.878 1522.81,580.359 1525.89,575.483 1529.37,587.436 1533.27,596.608 1537.67,575.471 1542.62,557.14 1548.18,559.963 1553.41,571.436 1559.3,575.805 1565.93,600.2 1573.38,618.182 1575.38,638.79 1577.63,657.511 1580.16,688.015 1581.42,686.125 1582.83,679.258 1584.42,681.364 1586.21,662.978 1588.23,649.366 1589.66,642.541 1591.27,649.67 1593.09,661.874 1594.26,653.556 1595.57,656.018 1597.05,671.515 1597.81,662.142 1598.66,667.064 1599.61,668.962 1600.69,668.283 1601.9,676.991 1603.26,663.622 1604.79,655.295 1606.51,643.242 1608.45,647.127 1610.4,664.871 1612.58,666.471 1615.04,667.114 1617.81,658.347 1620.93,658.36 1624.43,641.515 1628.37,635.665 1632.8,633.215 1637.79,627.984 1643.4,619.909 1649.7,597.567 1656.78,612.814 1664.75,610.964 1668.09,598.901 1671.85,605.213 1676.08,615.984 1680.84,620.284 1685.2,612.635 1688.5,592.032 1691.64,561.439 1695.17,561.666 1699.14,576.971 1701.92,582.41 1705.05,566.141 1708.57,589.649 1712.52,561.219 1715.69,571.17 1719.26,581.291 1723.27,566.006 1727.78,548.68 1732.85,523.814 1738.56,534.068 1744.99,563.193 1752.21,558.948 1760.34,565.876 1769.49,566.813 1779.78,562.51 1791.35,535.218 1804.38,594.77 1813.29,559.953 1823.31,570.233 1834.59,544.28 1847.27,540.188 1851.75,582.32 1856.34,607.213 1861.5,613.622 1864.44,598.564 1867.75,597.906 1871.48,586.63 1875.67,610.391 1877.87,607.579 1880.34,613.5 1883.13,619.084 1886.26,615.895 1889.78,600.781 1893.74,594.454 1895.84,577.9 1898.2,569.254 1900.85,576.908 1903.84,575.164 1907.2,567.687 1910.98,552.776 1915.23,538.308 1920.01,539.354 1925.39,554.698 1931.44,583.671 1938.25,569.012 1945.91,555.111 1950.14,590.099 1951.6,575.627 1953.24,580.337 1955.09,574.385 1957.16,583.688 1959.5,568.601 1962.13,544.451 1964.7,538.908 1967.6,526.723 1970.86,526.332 1974.53,539.148 1978.66,546.079 1983.3,543.447 1988.53,526.875 1994.41,517.852 2001.02,553.965 2008.46,564.024 2016.83,572.563 2021.97,573.362 2026.68,520.811 2027.62,531.917 2028.68,529.119 2029.87,513.155 2031.21,490.82 2032.72,473.892 2034.41,468.147 2036.32,463.928 2038.47,474.081 2039.78,472.549 2041.26,461.681 2042.92,450.012 2044.79,469.294 2046.89,476.15 2049.26,458.599 2051.92,463.321 2054.91,434.554 2058.28,423.425 2062.07,380.524 2066.33,362.875 2071.13,395.603 2076.52,394.931 2082.59,417.42 2087.9,473.397 2093.87,476.772 2100.59,492.115 2108.15,469.577 2116.66,452.363 2126.22,432.777 2136.99,468.636 2149.09,450.897 2162.72,424.228 2178.04,351.98 2185.81,294.287 2194.55,230.867 2204.39,283.075 2215.45,184.592 2219.58,187.577 2224.21,148.772 2229.43,179.548 2235.3,86.7664 2241.19,121.835 2247.83,131.732 2255.29,106.244 2263.68,104.201 2273.13,249.927 2276.37,261.202 2280.01,260.204 2284.11,293.163 2288.72,296.424 2293.9,324.987 2299.74,320.185 2306.3,357.112 2313.69,403.634 2317.2,409.734 2321.15,432.74 2325.6,430.711 2330.6,443.44 2336.22,479.29 2342.55,485.387 2349.67,513.353 2357.68,515.144 2366.69,517.771 2373.75,477.918 2381.7,540.128 2387.31,562.461 2393.63,568.18 2400.73,588.912 2408.72,638.571 2417.7,642.566 2420.91,623.868 2424.51,649.378 2428.56,630.057 2433.12,612.316 2434.89,600.083 2436.87,601.724 2439.09,607.122 2441.6,611.053 2444.42,602.667 2447.6,583.67 2451.16,592.639 2455.18,599.96 2459.7,640.19 2460.6,644.131 2461.62,635.523 2462.76,637.787 2464.05,630.661 2465.5,637.472 2467.12,646.466 2468.96,654.171 2471.02,634.811 2472.7,656.212 2474.6,667.909 2476.73,685.799 2479.13,692.791 2481.83,692.827 2484.87,658.803 2487.09,658.383 2489.58,641.919 2492.39,660.462 2494.01,686.255 2495.18,687.131 2496.49,673.822 2497.96,664.383 2499.62,647.571 2501.49,628.773 2503.58,627.802 2505.95,634.924 2508.6,624.986 2511.59,629.275 2513.97,634.515 2516.64,632.281 2518.28,628.401 2520.13,621.854 2522.2,611.721 2524.54,608.823 2527.16,593.853 2530.11,571.005 2533.44,582.585 2537.18,575.558 2541.38,586.498 2546.11,601.283 2551.44,597.875 2555.93,607.906 2560.98,592.973 2564.94,577.207 2569.39,571.783 2570.28,571.262 2571.29,576.63 2572.41,573.474 2573.68,583.885 2575.11,574.482 2576.72,574.529 2578.52,582.782 2580.55,590.187 2582.84,590.091 2585.41,595.61 2588.3,590.129 2591.56,602.191 2595.22,600.802 2599.34,583.394 2603.97,554.789 2609.19,583.28 2615.05,593.499 2621.65,606.798 2629.08,619.194 2634.09,612.701 2639.74,600.499 2646.09,619.615 2647.59,607.534 2649.28,613.303 2651.18,602.3 2651.56,597.77 2651.99,603.45 2652.47,608.209 2653.01,602.113 2653.62,602.599 2654.31,603.515 2655.08,605.252 2655.95,611.701 2656.92,620.139 2658.02,607.599 2659.26,598.567 2660.65,607.569 2662.21,618.969 2663.51,613.541 2664.97,605.82 2666.61,604.234 2668.46,594.481 2670.55,586.365 2672.89,586.388 2675.52,566.184 2678.49,577.039 2681.82,596.739 2685.57,585.884 2689.79,598.275 2694.54,588.295 2699.88,601.086 2705.89,599.175 2708.51,604.666 2711.47,610.309 2713.64,612.602 2716.08,619.525 2718.82,624.083 2721.91,633.642 2725.38,643.62 2729.29,648.88 2733.68,642.621 2738.63,617.06 2744.19,612.917 2748.81,599.804 2754.01,614.239 2759.86,616.881 2763.35,624.995 2767.27,643.884 2771.23,634.71 2775.68,625.173 2780.69,635.107 2785.87,636.961 2791.7,643.597 2798.25,609.585 2799.56,604.029 2801.04,591.316 2802.7,607.676 2804.56,620.892 2806.66,617.34 2809.02,629.108 2811.68,620.096 2814.67,627.716 2818.03,643.111 2821.82,665.562 2826.07,653.783 2828.33,639.813 2830.88,643.514 2833.74,643.569 2836.13,641.065 2838.82,652.259 2841.84,649.245 2845.25,640.942 2849.07,635.151 2853.38,653.03 2858.23,646.842 2860.2,630.046 2862.43,605.843 2864.39,598.595 2866.6,600.984 2869.08,609.911 2871.87,627.422 2873.41,605.283 2874.49,604.657 2875.7,610.366 2877.07,617.535 2878.61,602.58 2880.35,604.219 2882.29,597.625 2884.49,619.653 2886.95,646.225 2887.45,649.251 2888,649.933 2888.63,656.209 2889.33,662.455 2890.12,654.738 2891.01,651.099 2892.01,650.159 2893.13,654.243 2894.4,639.061 2895.82,639.154 2897.42,624.542 2898.52,629.492 2899.75,619.812 2901.14,610.739 2902.7,604.418 2904.46,608.283 2906.44,617.388 2908.66,620.738 2911.16,607.283 2913.98,611.744 2917.14,621.092 2920.71,637.115 2923.82,636.305 2927.33,652.668 2931.27,669.464 2935.71,684.087 2939.54,698.982 2943.84,710.197 2948.68,712.106 2954.12,715.658 2960.25,725.477 2965.53,698.294 2968.69,709.392 2971.43,706.663 2974.52,698.708 2977.99,701.204 2981.9,679.821 2984.78,677.016 2988.02,646.54 2991.67,669.691 2995.78,677.921 2999.95,672.23 3004.63,668.484 3008.07,669.655 3011.94,679.824 3016.29,695.188 3021.19,719.652 3023.57,704.639 3026.26,714.902 3029.28,733.419 3032.67,754.047 3036.49,745.917 3040.79,753.051 3045.62,719.623 3051.06,739.896 3053.13,728.923 3055.46,715.75 3058.09,721.508 3061.04,722.153 3064.36,702.59 3068.09,702.398 3070.64,726.223 3072.02,745.336 3073.57,746.708 3075.31,745.513 3077.27,727.64 3079.47,736.627 3081.27,721.317 3083.28,715.522 3085.55,703.481 3088.1,725.717 3089.79,734.718 3091.7,727.692 3093.84,735.957 3096.25,739.709 3097.42,742.796 3098.73,750.853 3100.21,737.409 3101.87,753.708 3103.74,763.615 3104.33,765.815 3105,779.106 3105.74,774.539 3106.58,779.12 3107.52,790.174 3108.59,794.634 3109.78,790.519 3111.12,802.823 3112.64,802.761 3114.34,822.606 3116.25,804.6 3118.4,810.236 3120.83,833.915 3123.55,816.424 3126.62,829.179 3130.06,846.837 3133.94,875.062 3136.01,889.073 3138.08,883.02 3139.65,863.057 3141.41,856.592 3143.38,874.578 3145.61,898.794 3148.11,926.528 3150.93,888.866 3152.76,893.636 "/>
<polyline clip-path="url(#clip171)" style="stroke:#e26f46; stroke-linecap:round; stroke-linejoin:round; stroke-width:8; stroke-opacity:1; fill:none" points="155.478,699.989 155.478,700.024 155.853,699.54 155.928,700.426 156.012,705.402 156.107,706.492 156.214,706.276 156.334,702.412 156.469,705.178 156.621,699.461 156.792,699.718 156.985,704.12 157.201,699.027 157.445,702.556 157.718,695.56 158.027,701.406 158.373,694.061 158.763,690.956 159.202,686.949 159.696,695.498 160.251,688.545 160.876,681.958 161.579,677.724 162.37,693.278 163.259,683.534 164.26,674.134 165.386,670.36 166.652,677.448 168.077,650.71 169.15,646.787 170.357,681.558 170.859,686.509 171.423,700.799 171.995,696.117 172.637,696.165 173.361,696.361 174.174,716.109 175.089,712.656 176.119,715.664 177.277,697.344 178.581,698.865 180.047,685.548 181.696,714.092 182.879,734.749 184.21,730.497 185.707,728.711 187.391,722.046 189.271,712.789 191.385,723.31 193.764,717.984 196.44,718.227 199.45,702.237 202.837,720.619 206.647,722.214 210.933,729.072 215.756,747.04 219.868,748.908 224.494,732.115 229.699,738.504 235.554,726.807 239.194,730.03 243.289,729.801 247.897,756.481 253.08,742.727 255.452,738.336 258.121,721.077 261.123,705.373 264.501,717.215 268.301,743.469 272.576,763.063 275.518,786.142 278.056,782.396 280.911,770.86 282.824,789.023 284.976,807.052 287.397,802.95 290.121,811.671 293.185,840.086 296.632,833.627 300.51,869.344 302.393,875.055 304.51,893.993 306.567,899.372 308.88,909.982 311.482,889.98 314.41,874.25 317.703,860.528 321.409,859.708 325.577,877.572 330.267,864.887 335.542,866.628 340.281,891.706 345.611,867.417 351.609,890.448 353.693,887.109 356.039,892.147 358.678,895.92 361.646,885.081 364.986,890.766 365.654,894.696 366.405,878.454 366.555,869.292 366.725,869.15 366.915,871.162 367.129,864.713 367.369,863.639 367.64,862.506 367.945,860.182 368.288,861.548 368.673,860.467 369.107,855.312 369.595,858.061 370.144,864.237 370.762,857.164 371.457,867.483 371.738,871.281 372.054,874.161 372.409,874.092 372.809,876.538 373.259,874.636 373.766,874.653 374.335,862.814 374.976,860.949 375.697,861.596 376.508,876.22 377.42,885.542 378.447,881.911 379.602,865.884 380.152,856.221 380.772,850.599 381.469,854.088 382.253,860.056 383.135,862.113 384.128,869.483 385.244,884.02 386.5,885.03 387.914,881.408 389.503,877.982 391.292,890.481 393.304,888.201 395.567,885.831 398.114,876.532 400.979,870.064 404.201,861.31 406.074,867.969 408.18,882.535 410.271,910.327 411.144,902.028 412.125,897.722 413.228,898.112 414.47,902.264 415.867,886.548 417.439,882.669 419.207,891.762 421.195,885.432 423.433,894.326 424.874,899.666 426.494,892.624 428.317,909.863 430.369,881.409 430.779,879.739 431.24,877.123 431.759,879.831 432.344,876.86 433.001,878.397 433.74,883.629 434.412,897.37 435.168,900 436.019,895.862 436.976,905.446 438.053,912.811 439.265,903.733 440.627,897.333 442.161,900.72 443.885,915.829 445.826,905.562 448.009,919.209 450.465,931.133 453.228,910.078 455.366,915.147 457.772,884.035 459.233,903.544 460.877,919.589 462.727,926.963 464.808,930.52 467.148,935.636 469.782,906.874 472.744,896.729 476.077,897.921 479.827,910.391 484.045,900.044 487.891,882.982 492.217,890.586 494.146,881.844 496.317,882.512 497.708,870.296 499.273,867.271 501.033,877.393 503.013,891.462 505.241,880.671 507.747,878.796 508.745,877.492 509.868,872.611 510.332,864.499 510.853,859.743 511.439,858.085 512.099,861.299 512.842,844.931 513.445,844.952 514.124,849.968 514.888,846.028 515.747,854.352 516.713,846.836 517.8,849.11 519.024,853.448 520.4,850.98 521.948,859.965 523.69,855.544 524.634,842.545 525.696,838.788 526.891,830.185 528.235,842.987 529.748,846.811 531.449,827.275 533.024,820.475 534.796,815.331 536.789,797.13 539.032,807.48 541.555,780.121 544.393,761.099 547.586,745.323 551.178,726.283 555.219,749.456 556.853,729.595 558.692,708.927 560.759,703.905 563.086,708.884 565.703,715.226 568.647,709.244 571.96,696.446 575.686,705.05 579.878,722.388 584.594,729.505 589.9,748.964 595.869,749.675 602.033,739.13 608.967,759.769 616.352,743.992 624.661,711.885 634.007,738.868 641.169,799.316 644.835,818.282 648.96,828.473 653.601,818.98 658.822,802.078 662.446,821.517 666.524,804.681 671.112,779.643 676.273,778.89 682.079,796.53 687.215,825.304 692.993,832.471 699.494,820.917 706.807,824.195 715.035,797.885 724.291,801.992 731.344,784.275 739.279,766.452 748.205,737.083 755.464,748.637 760.047,760.835 760.964,770.972 761.995,780.109 763.155,769.412 764.461,767.024 765.929,748.182 766.222,749.875 766.553,748.908 766.889,764.19 767.037,765.803 767.203,757.098 767.39,759.599 767.601,760.183 767.837,767.855 768.104,771.93 768.403,775.856 768.74,783.897 769.119,796.464 769.441,791.598 769.802,791.023 770.209,799.221 770.666,792.193 771.181,802.991 771.76,806.317 772.411,801.678 773.144,804.775 773.968,794.174 774.896,806.532 775.744,799.938 776.699,794.952 777.773,795.152 778.981,773.407 779.867,767.838 780.863,767.733 781.984,768.113 783.245,776.022 784.664,749.473 785.316,761.743 786.049,751.86 786.874,745 787.803,756.501 788.847,767.251 790.022,754.026 791.343,764.749 792.83,762.495 794.503,776.274 796.385,783.05 797.874,785.826 799.55,771.21 801.435,776.218 802.858,777.975 804.46,761.885 804.78,755.073 805.14,753.94 805.546,753.132 806.002,762.384 806.515,756.969 807.092,743.697 807.741,740.058 808.472,745.2 809.293,735.7 810.218,733.899 811.258,728.638 812.428,735.99 813.745,743.34 815.225,737.98 816.891,729.964 818.766,730.046 820.874,719.397 823.246,725.498 825.915,752.101 828.917,716.905 831.89,687.23 835.234,679.117 838.996,689.928 843.13,727.015 847.781,717.539 853.013,732.04 858.899,770.575 861.111,765.683 863.599,754.534 866.397,749.045 869.546,740.259 871.128,753.923 872.909,785.532 874.345,779.708 875.96,784.796 877.778,790.579 879.822,805.65 882.123,810.734 884.711,800.328 886.501,779.361 888.515,781.708 890.78,789.596 891.481,788.346 892.269,798.045 893.156,799.029 894.154,809.489 895.276,796.997 896.538,791.565 897.959,795.765 899.557,783.759 901.355,784.29 903.377,779.39 905.652,772.499 908.212,772.676 910.795,784.23 912.925,779.243 915.321,787.126 918.017,783.573 921.049,796.523 924.066,810.244 927.46,806.601 931.278,808.231 935.574,801.629 940.406,792.416 945.843,787.404 951.959,835.865 955.358,829.963 959.183,824.573 963.485,833.312 968.326,834.82 973.771,836.635 979.897,802.223 984.562,820.563 989.809,797.549 995.713,814.621 1002.35,811.192 1009.83,813.683 1017.17,831.382 1020.13,851.824 1023.45,875.782 1024.45,871.6 1025.57,875.95 1026.83,872.577 1028.25,863.2 1029.84,870.744 1031.63,858.885 1033.65,845.423 1035.93,828.627 1036.47,829.762 1037.08,832.257 1037.76,830.587 1038.53,823.164 1039.4,819.286 1040.37,823.133 1041.47,835.18 1042.71,842.71 1044.09,854.483 1045.66,860.432 1047.42,856.285 1049.39,855.63 1051.62,848.005 1052.91,836.627 1054.35,848.146 1055.98,850.694 1057.82,847.555 1059.88,849.908 1062.2,861.682 1064.81,855.344 1067.75,869.52 1071.05,874.742 1071.74,880.334 1072.53,875.794 1073.41,864.006 1074.4,862.008 1075.51,866.047 1076.76,866.678 1078.17,858.802 1079.04,863.247 1080.02,873.801 1080.68,873.047 1081.43,873.653 1082.26,885.868 1083.21,887.217 1084.27,895.928 1085.46,898.335 1086.8,897.273 1088.31,888.343 1090.01,881.788 1091.92,856.504 1092.32,856.785 1092.77,861.591 1093.28,862.822 1093.85,861.401 1094.49,854.864 1095.22,857.133 1096.03,858.088 1096.95,863.669 1097.98,861.647 1099.13,871.617 1100.44,883.067 1101.64,893.235 1102.98,892.438 1104.5,893.416 1106.21,893.512 1108.13,885.575 1110.29,881.15 1110.96,883.609 1111.72,887.263 1112.57,889 1113.53,878.963 1114.6,875.464 1114.82,874.681 1115.06,873.479 1115.33,877.418 1115.64,881.623 1115.99,883.091 1116.37,882.68 1116.81,886.477 1117.3,892.684 1117.86,897.019 1118.48,886.026 1119.18,885.074 1119.97,883.11 1120.3,888.042 1120.67,889.097 1121.09,891.693 1121.56,896.428 1122.09,905.165 1122.69,904.744 1123.36,908.531 1124.11,900.125 1124.96,904.507 1125.92,912.698 1127,910.049 1128.21,906.627 1129.57,913.356 1131.1,917.663 1132.82,927.025 1134.76,939.117 1136.94,929.625 1139.4,899.869 1140.05,898.044 1140.79,895.012 1141.63,879.174 1142.34,883.969 1143.15,887.572 1144.06,882.151 1145.08,874.855 1146.22,853.381 1146.57,845.031 1146.96,845.108 1147.39,846.681 1147.89,860.45 1148.36,867.801 1148.88,874.634 1149.48,877.247 1150.14,878.382 1150.89,880.222 1151.74,888.118 1152.69,886.37 1153.76,897.578 1154.87,901.109 1156.11,903.621 1157.51,901.898 1159.09,892.573 1160.86,903.271 1162.86,912.495 1164.76,926.755 1166.27,936.185 1167.97,941.342 1169.89,936.086 1172.04,935.759 1174.46,906.005 1176.43,915.524 1178.65,901.94 1181.15,876.311 1183.87,870.815 1186.92,858.906 1187.93,860.976 1189.06,869.604 1189.67,872.568 1190.35,878.585 1191.11,874.427 1191.97,865.287 1192.94,873.424 1194.03,858.663 1195.11,850.565 1196.32,843.454 1197.69,848.218 1199.22,835.741 1200.95,822.814 1202.89,823.565 1205.08,829.225 1207.54,833.66 1210.31,832.19 1213.42,844.689 1216.92,855.467 1220.86,862.602 1225.29,838.356 1230.28,849.446 1235.88,874.946 1237.14,878.987 1238.56,874.825 1240.15,871.458 1240.57,870.69 1241.05,863.915 1241.58,866.563 1242.19,865.948 1242.86,859.203 1243.63,857.051 1244.48,857.223 1245.45,857.02 1246.53,837.501 1247.14,849.496 1247.83,845.104 1248.6,859.133 1249.03,858.038 1249.52,862.045 1250.06,863.732 1250.68,868.157 1251.37,861.601 1252.15,859.385 1253.02,854.716 1254.01,836.807 1254.97,839.133 1256.05,823.746 1256.78,819.273 1257.6,812.258 1258.52,802.072 1259.39,801.863 1260.36,787.879 1261.45,800.481 1262.68,816.236 1264.06,827.52 1265.62,828.425 1267.37,819.341 1269.34,794.097 1271.56,808.053 1274.05,839.979 1274.58,832.628 1275.17,835.285 1275.84,827.203 1276.6,823.511 1277.44,819.983 1278.4,811.164 1279.47,791.932 1280.67,774.563 1281.71,768.631 1282.87,764.314 1284.18,779.99 1285.29,786.291 1286.53,791.025 1287.93,811.256 1289.5,814.887 1291.27,818.291 1293.26,830.451 1293.82,822.543 1294.44,827.122 1295.15,832.183 1295.94,832.282 1296.83,837.65 1297.83,834.325 1298.96,839.087 1300.23,836.478 1301.65,840.017 1303.26,847.7 1305.06,846.657 1307.1,851.229 1309.38,856.158 1311.95,861.812 1314.85,858.395 1318.1,853.091 1321.76,830.25 1325.88,835.864 1330.51,816.121 1332.95,803.179 1335.68,771.464 1337.49,750.219 1339.52,740.766 1341.8,730.294 1344.37,740.273 1347.26,739.176 1350.52,733.709 1354.18,734.714 1354.91,731.258 1355.73,751.684 1356.58,754.41 1357.53,754.883 1358.6,755.578 1359.8,752.784 1361.15,756.323 1362.67,778.087 1362.98,777.809 1363.32,775.566 1363.7,773.327 1364.14,771.03 1364.62,768.399 1365.14,757.763 1365.71,742.567 1366.36,737.983 1367.09,730.139 1367.52,742.621 1368.01,738.293 1368.55,739.07 1369.16,753.415 1369.85,756.88 1370.62,769.497 1371.49,766.16 1372.47,761.37 1373.57,771.041 1374.8,764.159 1376.2,768.574 1377.76,766.921 1379.53,781.094 1381.51,778.269 1383.74,796.224 1384.49,791.321 1385.32,803.614 1386.27,802.294 1387.33,794.871 1388.52,799.728 1389.87,803.126 1391.38,793.566 1393.08,784.134 1394.99,783.244 1397.14,770.029 1398.45,749.697 1399.91,750.836 1401.56,747.726 1403.42,775.662 1403.79,780.445 1404.21,780.123 1404.68,775.228 1405.21,777.33 1405.8,776.094 1406.47,778.971 1407.22,796.74 1408.07,793.73 1409.02,786.031 1409.5,792.29 1410.05,793.274 1410.66,805.909 1411.35,808.866 1412.12,805.791 1412.99,811.042 1413.97,811.697 1415.08,816.738 1416.32,813.637 1417.71,807.106 1419.28,810.304 1421.05,802 1423.04,793.965 1425.27,802.969 1427.79,783.15 1430.62,788.707 1433.8,784.815 1437.38,806.129 1439.12,805.833 1441.08,795.833 1443.29,794.237 1445.77,809.656 1448.56,807.991 1451.65,843.173 1452.67,839.092 1453.81,832.752 1455.1,834.67 1456.55,833.037 1458.18,856.281 1459.52,854.872 1461.02,856.27 1462.71,856.323 1464.62,873.229 1466.75,869.513 1469.16,859.588 1471.87,856.714 1474.92,871.078 1478.34,879.799 1482.2,887.624 1484.97,891.289 1488.09,890.868 1491.59,867.91 1495.31,883.556 1499.1,877.399 1503.35,860.646 1508.14,884.115 1513.53,913.882 1515.45,932.303 1517.62,929.825 1520.06,915.066 1522.81,910.585 1525.89,915.461 1529.37,903.508 1533.27,894.336 1537.67,915.473 1542.62,933.804 1548.18,930.981 1553.41,919.508 1559.3,915.139 1565.93,890.744 1573.38,872.762 1575.38,852.154 1577.63,833.433 1580.16,802.929 1581.42,804.819 1582.83,811.686 1584.42,809.58 1586.21,827.966 1588.23,841.578 1589.66,848.403 1591.27,841.274 1593.09,829.07 1594.26,837.388 1595.57,834.926 1597.05,819.429 1597.81,828.802 1598.66,823.88 1599.61,821.982 1600.69,822.661 1601.9,813.953 1603.26,827.322 1604.79,835.649 1606.51,847.701 1608.45,843.817 1610.4,826.073 1612.58,824.473 1615.04,823.83 1617.81,832.597 1620.93,832.584 1624.43,849.429 1628.37,855.279 1632.8,857.729 1637.79,862.96 1643.4,871.035 1649.7,893.377 1656.78,878.13 1664.75,879.98 1668.09,892.043 1671.85,885.731 1676.08,874.96 1680.84,870.66 1685.2,878.309 1688.5,898.912 1691.64,929.505 1695.17,929.278 1699.14,913.972 1701.92,908.534 1705.05,924.803 1708.57,901.295 1712.52,929.725 1715.69,919.774 1719.26,909.653 1723.27,924.938 1727.78,942.264 1732.85,967.13 1738.56,956.876 1744.99,927.751 1752.21,931.996 1760.34,925.068 1769.49,924.131 1779.78,928.434 1791.35,955.726 1804.38,896.174 1813.29,930.991 1823.31,920.711 1834.59,946.664 1847.27,950.756 1851.75,908.624 1856.34,883.731 1861.5,877.322 1864.44,892.38 1867.75,893.038 1871.48,904.314 1875.67,880.553 1877.87,883.365 1880.34,877.444 1883.13,871.86 1886.26,875.049 1889.78,890.163 1893.74,896.49 1895.84,913.043 1898.2,921.69 1900.85,914.035 1903.84,915.78 1907.2,923.257 1910.98,938.168 1915.23,952.636 1920.01,951.59 1925.39,936.246 1931.44,907.273 1938.25,921.932 1945.91,935.833 1950.14,900.845 1951.6,915.317 1953.24,910.607 1955.09,916.559 1957.16,907.256 1959.5,922.343 1962.13,946.493 1964.7,952.036 1967.6,964.221 1970.86,964.612 1974.53,951.796 1978.66,944.865 1983.3,947.497 1988.53,964.069 1994.41,973.091 2001.02,936.979 2008.46,926.92 2016.83,918.381 2021.97,917.582 2026.68,970.133 2027.62,959.027 2028.68,961.825 2029.87,977.788 2031.21,1000.12 2032.72,1017.05 2034.41,1022.8 2036.32,1027.02 2038.47,1016.86 2039.78,1018.39 2041.26,1029.26 2042.92,1040.93 2044.79,1021.65 2046.89,1014.79 2049.26,1032.34 2051.92,1027.62 2054.91,1056.39 2058.28,1067.52 2062.07,1110.42 2066.33,1128.07 2071.13,1095.34 2076.52,1096.01 2082.59,1073.52 2087.9,1017.55 2093.87,1014.17 2100.59,998.829 2108.15,1021.37 2116.66,1038.58 2126.22,1058.17 2136.99,1022.31 2149.09,1040.05 2162.72,1066.72 2178.04,1138.96 2185.81,1196.66 2194.55,1260.08 2204.39,1207.87 2215.45,1306.35 2219.58,1303.37 2224.21,1342.17 2229.43,1311.4 2235.3,1404.18 2241.19,1369.11 2247.83,1359.21 2255.29,1384.7 2263.68,1386.74 2273.13,1241.02 2276.37,1229.74 2280.01,1230.74 2284.11,1197.78 2288.72,1194.52 2293.9,1165.96 2299.74,1170.76 2306.3,1133.83 2313.69,1087.31 2317.2,1081.21 2321.15,1058.2 2325.6,1060.23 2330.6,1047.5 2336.22,1011.65 2342.55,1005.56 2349.67,977.591 2357.68,975.8 2366.69,973.173 2373.75,1013.03 2381.7,950.816 2387.31,928.483 2393.63,922.764 2400.73,902.032 2408.72,852.373 2417.7,848.378 2420.91,867.076 2424.51,841.566 2428.56,860.886 2433.12,878.628 2434.89,890.861 2436.87,889.22 2439.09,883.822 2441.6,879.891 2444.42,888.276 2447.6,907.274 2451.16,898.305 2455.18,890.984 2459.7,850.754 2460.6,846.812 2461.62,855.421 2462.76,853.157 2464.05,860.283 2465.5,853.471 2467.12,844.478 2468.96,836.773 2471.02,856.133 2472.7,834.732 2474.6,823.035 2476.73,805.145 2479.13,798.153 2481.83,798.117 2484.87,832.141 2487.09,832.561 2489.58,849.025 2492.39,830.482 2494.01,804.689 2495.18,803.813 2496.49,817.121 2497.96,826.56 2499.62,843.373 2501.49,862.17 2503.58,863.142 2505.95,856.02 2508.6,865.958 2511.59,861.669 2513.97,856.429 2516.64,858.663 2518.28,862.543 2520.13,869.09 2522.2,879.223 2524.54,882.121 2527.16,897.091 2530.11,919.939 2533.44,908.359 2537.18,915.386 2541.38,904.446 2546.11,889.661 2551.44,893.069 2555.93,883.038 2560.98,897.971 2564.94,913.737 2569.39,919.161 2570.28,919.682 2571.29,914.314 2572.41,917.47 2573.68,907.059 2575.11,916.461 2576.72,916.415 2578.52,908.162 2580.55,900.757 2582.84,900.853 2585.41,895.334 2588.3,900.815 2591.56,888.752 2595.22,890.142 2599.34,907.55 2603.97,936.154 2609.19,907.664 2615.05,897.445 2621.65,884.146 2629.08,871.75 2634.09,878.243 2639.74,890.445 2646.09,871.328 2647.59,883.41 2649.28,877.641 2651.18,888.644 2651.56,893.174 2651.99,887.494 2652.47,882.735 2653.01,888.831 2653.62,888.345 2654.31,887.429 2655.08,885.692 2655.95,879.243 2656.92,870.805 2658.02,883.345 2659.26,892.377 2660.65,883.375 2662.21,871.974 2663.51,877.403 2664.97,885.124 2666.61,886.71 2668.46,896.463 2670.55,904.579 2672.89,904.556 2675.52,924.76 2678.49,913.905 2681.82,894.204 2685.57,905.06 2689.79,892.669 2694.54,902.649 2699.88,889.858 2705.89,891.769 2708.51,886.278 2711.47,880.634 2713.64,878.342 2716.08,871.419 2718.82,866.861 2721.91,857.302 2725.38,847.324 2729.29,842.063 2733.68,848.322 2738.63,873.884 2744.19,878.027 2748.81,891.14 2754.01,876.705 2759.86,874.063 2763.35,865.948 2767.27,847.06 2771.23,856.234 2775.68,865.771 2780.69,855.837 2785.87,853.983 2791.7,847.347 2798.25,881.359 2799.56,886.915 2801.04,899.628 2802.7,883.268 2804.56,870.052 2806.66,873.604 2809.02,861.836 2811.68,870.848 2814.67,863.228 2818.03,847.833 2821.82,825.382 2826.07,837.161 2828.33,851.131 2830.88,847.43 2833.74,847.375 2836.13,849.879 2838.82,838.685 2841.84,841.699 2845.25,850.002 2849.07,855.793 2853.38,837.914 2858.23,844.102 2860.2,860.898 2862.43,885.101 2864.39,892.349 2866.6,889.96 2869.08,881.033 2871.87,863.522 2873.41,885.661 2874.49,886.287 2875.7,880.578 2877.07,873.409 2878.61,888.364 2880.35,886.725 2882.29,893.319 2884.49,871.291 2886.95,844.719 2887.45,841.693 2888,841.011 2888.63,834.735 2889.33,828.489 2890.12,836.206 2891.01,839.845 2892.01,840.785 2893.13,836.701 2894.4,851.883 2895.82,851.79 2897.42,866.402 2898.52,861.452 2899.75,871.132 2901.14,880.205 2902.7,886.526 2904.46,882.661 2906.44,873.556 2908.66,870.206 2911.16,883.661 2913.98,879.2 2917.14,869.852 2920.71,853.829 2923.82,854.639 2927.33,838.276 2931.27,821.48 2935.71,806.857 2939.54,791.962 2943.84,780.747 2948.68,778.838 2954.12,775.286 2960.25,765.467 2965.53,792.65 2968.69,781.552 2971.43,784.281 2974.52,792.236 2977.99,789.74 2981.9,811.123 2984.78,813.928 2988.02,844.404 2991.67,821.253 2995.78,813.023 2999.95,818.714 3004.63,822.459 3008.07,821.289 3011.94,811.119 3016.29,795.756 3021.19,771.292 3023.57,786.305 3026.26,776.042 3029.28,757.525 3032.67,736.897 3036.49,745.027 3040.79,737.893 3045.62,771.321 3051.06,751.048 3053.13,762.021 3055.46,775.194 3058.09,769.436 3061.04,768.791 3064.36,788.354 3068.09,788.546 3070.64,764.721 3072.02,745.608 3073.57,744.236 3075.31,745.431 3077.27,763.304 3079.47,754.317 3081.27,769.627 3083.28,775.422 3085.55,787.463 3088.1,765.227 3089.79,756.226 3091.7,763.252 3093.84,754.987 3096.25,751.235 3097.42,748.148 3098.73,740.091 3100.21,753.535 3101.87,737.236 3103.74,727.329 3104.33,725.129 3105,711.838 3105.74,716.405 3106.58,711.824 3107.52,700.77 3108.59,696.31 3109.78,700.425 3111.12,688.12 3112.64,688.183 3114.34,668.338 3116.25,686.344 3118.4,680.708 3120.83,657.029 3123.55,674.519 3126.62,661.764 3130.06,644.107 3133.94,615.882 3136.01,601.871 3138.08,607.924 3139.65,627.887 3141.41,634.352 3143.38,616.366 3145.61,592.15 3148.11,564.416 3150.93,602.078 3152.76,597.308 "/>
<path clip-path="url(#clip170)" d="M2696.27 249.313 L3052.85 249.313 L3052.85 93.7926 L2696.27 93.7926  Z" fill="#ffffff" fill-rule="evenodd" fill-opacity="1"/>
<polyline clip-path="url(#clip170)" style="stroke:#000000; stroke-linecap:round; stroke-linejoin:round; stroke-width:4; stroke-opacity:1; fill:none" points="2696.27,249.313 3052.85,249.313 3052.85,93.7926 2696.27,93.7926 2696.27,249.313 "/>
<polyline clip-path="url(#clip170)" style="stroke:#009af9; stroke-linecap:round; stroke-linejoin:round; stroke-width:8; stroke-opacity:1; fill:none" points="2729.57,145.633 2929.39,145.633 "/>
<path clip-path="url(#clip170)" d="M2964.27 128.353 L2969.29 128.353 L2977.88 141.2 L2986.51 128.353 L2991.53 128.353 L2980.42 144.95 L2992.28 162.913 L2987.25 162.913 L2977.53 148.214 L2967.74 162.913 L2962.69 162.913 L2975.03 144.464 L2964.27 128.353 Z" fill="#000000" fill-rule="nonzero" fill-opacity="1" /><path clip-path="url(#clip170)" d="M2999.64 158.977 L3007.28 158.977 L3007.28 132.612 L2998.96 134.279 L2998.96 130.019 L3007.23 128.353 L3011.9 128.353 L3011.9 158.977 L3019.54 158.977 L3019.54 162.913 L2999.64 162.913 L2999.64 158.977 Z" fill="#000000" fill-rule="nonzero" fill-opacity="1" /><polyline clip-path="url(#clip170)" style="stroke:#e26f46; stroke-linecap:round; stroke-linejoin:round; stroke-width:8; stroke-opacity:1; fill:none" points="2729.57,197.473 2929.39,197.473 "/>
<path clip-path="url(#clip170)" d="M2964.27 180.193 L2969.29 180.193 L2977.88 193.04 L2986.51 180.193 L2991.53 180.193 L2980.42 196.79 L2992.28 214.753 L2987.25 214.753 L2977.53 200.054 L2967.74 214.753 L2962.69 214.753 L2975.03 196.304 L2964.27 180.193 Z" fill="#000000" fill-rule="nonzero" fill-opacity="1" /><path clip-path="url(#clip170)" d="M3002.85 210.817 L3019.17 210.817 L3019.17 214.753 L2997.23 214.753 L2997.23 210.817 Q2999.89 208.063 3004.47 203.433 Q3009.08 198.78 3010.26 197.438 Q3012.51 194.915 3013.39 193.179 Q3014.29 191.419 3014.29 189.73 Q3014.29 186.975 3012.34 185.239 Q3010.42 183.503 3007.32 183.503 Q3005.12 183.503 3002.67 184.267 Q3000.24 185.031 2997.46 186.581 L2997.46 181.859 Q3000.28 180.725 3002.74 180.146 Q3005.19 179.568 3007.23 179.568 Q3012.6 179.568 3015.79 182.253 Q3018.99 184.938 3018.99 189.429 Q3018.99 191.558 3018.18 193.48 Q3017.39 195.378 3015.28 197.97 Q3014.71 198.642 3011.6 201.859 Q3008.5 205.054 3002.85 210.817 Z" fill="#000000" fill-rule="nonzero" fill-opacity="1" /></svg>
