<?xml version="1.0" encoding="utf-8"?>
<svg xmlns="http://www.w3.org/2000/svg" xmlns:xlink="http://www.w3.org/1999/xlink" width="800" height="400" viewBox="0 0 3200 1600">
<defs>
  <clipPath id="clip230">
    <rect x="0" y="0" width="3200" height="1600"/>
  </clipPath>
</defs>
<path clip-path="url(#clip230)" d="M0 1600 L3200 1600 L3200 0 L0 0  Z" fill="#ffffff" fill-rule="evenodd" fill-opacity="1"/>
<defs>
  <clipPath id="clip231">
    <rect x="178" y="47" width="2975" height="1397"/>
  </clipPath>
</defs>
<path clip-path="url(#clip230)" d="M178.857 1443.7 L3152.76 1443.7 L3152.76 47.2441 L178.857 47.2441  Z" fill="#ffffff" fill-rule="evenodd" fill-opacity="1"/>
<polyline clip-path="url(#clip231)" style="stroke:#000000; stroke-linecap:round; stroke-linejoin:round; stroke-width:2; stroke-opacity:0.1; fill:none" points="178.857,1443.7 178.857,47.2441 "/>
<polyline clip-path="url(#clip231)" style="stroke:#000000; stroke-linecap:round; stroke-linejoin:round; stroke-width:2; stroke-opacity:0.1; fill:none" points="773.637,1443.7 773.637,47.2441 "/>
<polyline clip-path="url(#clip231)" style="stroke:#000000; stroke-linecap:round; stroke-linejoin:round; stroke-width:2; stroke-opacity:0.1; fill:none" points="1368.42,1443.7 1368.42,47.2441 "/>
<polyline clip-path="url(#clip231)" style="stroke:#000000; stroke-linecap:round; stroke-linejoin:round; stroke-width:2; stroke-opacity:0.1; fill:none" points="1963.2,1443.7 1963.2,47.2441 "/>
<polyline clip-path="url(#clip231)" style="stroke:#000000; stroke-linecap:round; stroke-linejoin:round; stroke-width:2; stroke-opacity:0.1; fill:none" points="2557.98,1443.7 2557.98,47.2441 "/>
<polyline clip-path="url(#clip231)" style="stroke:#000000; stroke-linecap:round; stroke-linejoin:round; stroke-width:2; stroke-opacity:0.1; fill:none" points="3152.76,1443.7 3152.76,47.2441 "/>
<polyline clip-path="url(#clip231)" style="stroke:#000000; stroke-linecap:round; stroke-linejoin:round; stroke-width:2; stroke-opacity:0.1; fill:none" points="178.857,1443.7 178.857,47.2441 "/>
<polyline clip-path="url(#clip231)" style="stroke:#000000; stroke-linecap:round; stroke-linejoin:round; stroke-width:2; stroke-opacity:0.1; fill:none" points="773.637,1443.7 773.637,47.2441 "/>
<polyline clip-path="url(#clip231)" style="stroke:#000000; stroke-linecap:round; stroke-linejoin:round; stroke-width:2; stroke-opacity:0.1; fill:none" points="1368.42,1443.7 1368.42,47.2441 "/>
<polyline clip-path="url(#clip231)" style="stroke:#000000; stroke-linecap:round; stroke-linejoin:round; stroke-width:2; stroke-opacity:0.1; fill:none" points="1963.2,1443.7 1963.2,47.2441 "/>
<polyline clip-path="url(#clip231)" style="stroke:#000000; stroke-linecap:round; stroke-linejoin:round; stroke-width:2; stroke-opacity:0.1; fill:none" points="2557.98,1443.7 2557.98,47.2441 "/>
<polyline clip-path="url(#clip231)" style="stroke:#000000; stroke-linecap:round; stroke-linejoin:round; stroke-width:2; stroke-opacity:0.1; fill:none" points="3152.76,1443.7 3152.76,47.2441 "/>
<polyline clip-path="url(#clip231)" style="stroke:#000000; stroke-linecap:round; stroke-linejoin:round; stroke-width:2; stroke-opacity:0.1; fill:none" points="178.857,1312.62 3152.76,1312.62 "/>
<polyline clip-path="url(#clip231)" style="stroke:#000000; stroke-linecap:round; stroke-linejoin:round; stroke-width:2; stroke-opacity:0.1; fill:none" points="178.857,1123.57 3152.76,1123.57 "/>
<polyline clip-path="url(#clip231)" style="stroke:#000000; stroke-linecap:round; stroke-linejoin:round; stroke-width:2; stroke-opacity:0.1; fill:none" points="178.857,934.522 3152.76,934.522 "/>
<polyline clip-path="url(#clip231)" style="stroke:#000000; stroke-linecap:round; stroke-linejoin:round; stroke-width:2; stroke-opacity:0.1; fill:none" points="178.857,745.472 3152.76,745.472 "/>
<polyline clip-path="url(#clip231)" style="stroke:#000000; stroke-linecap:round; stroke-linejoin:round; stroke-width:2; stroke-opacity:0.1; fill:none" points="178.857,556.422 3152.76,556.422 "/>
<polyline clip-path="url(#clip231)" style="stroke:#000000; stroke-linecap:round; stroke-linejoin:round; stroke-width:2; stroke-opacity:0.1; fill:none" points="178.857,367.372 3152.76,367.372 "/>
<polyline clip-path="url(#clip231)" style="stroke:#000000; stroke-linecap:round; stroke-linejoin:round; stroke-width:2; stroke-opacity:0.1; fill:none" points="178.857,178.322 3152.76,178.322 "/>
<polyline clip-path="url(#clip231)" style="stroke:#000000; stroke-linecap:round; stroke-linejoin:round; stroke-width:2; stroke-opacity:0.1; fill:none" points="178.857,1312.62 3152.76,1312.62 "/>
<polyline clip-path="url(#clip231)" style="stroke:#000000; stroke-linecap:round; stroke-linejoin:round; stroke-width:2; stroke-opacity:0.1; fill:none" points="178.857,1123.57 3152.76,1123.57 "/>
<polyline clip-path="url(#clip231)" style="stroke:#000000; stroke-linecap:round; stroke-linejoin:round; stroke-width:2; stroke-opacity:0.1; fill:none" points="178.857,934.522 3152.76,934.522 "/>
<polyline clip-path="url(#clip231)" style="stroke:#000000; stroke-linecap:round; stroke-linejoin:round; stroke-width:2; stroke-opacity:0.1; fill:none" points="178.857,745.472 3152.76,745.472 "/>
<polyline clip-path="url(#clip231)" style="stroke:#000000; stroke-linecap:round; stroke-linejoin:round; stroke-width:2; stroke-opacity:0.1; fill:none" points="178.857,556.422 3152.76,556.422 "/>
<polyline clip-path="url(#clip231)" style="stroke:#000000; stroke-linecap:round; stroke-linejoin:round; stroke-width:2; stroke-opacity:0.1; fill:none" points="178.857,367.372 3152.76,367.372 "/>
<polyline clip-path="url(#clip231)" style="stroke:#000000; stroke-linecap:round; stroke-linejoin:round; stroke-width:2; stroke-opacity:0.1; fill:none" points="178.857,178.322 3152.76,178.322 "/>
<polyline clip-path="url(#clip230)" style="stroke:#000000; stroke-linecap:round; stroke-linejoin:round; stroke-width:4; stroke-opacity:1; fill:none" points="178.857,1443.7 3152.76,1443.7 "/>
<polyline clip-path="url(#clip230)" style="stroke:#000000; stroke-linecap:round; stroke-linejoin:round; stroke-width:4; stroke-opacity:1; fill:none" points="178.857,47.2441 3152.76,47.2441 "/>
<polyline clip-path="url(#clip230)" style="stroke:#000000; stroke-linecap:round; stroke-linejoin:round; stroke-width:4; stroke-opacity:1; fill:none" points="178.857,1443.7 178.857,1424.8 "/>
<polyline clip-path="url(#clip230)" style="stroke:#000000; stroke-linecap:round; stroke-linejoin:round; stroke-width:4; stroke-opacity:1; fill:none" points="773.637,1443.7 773.637,1424.8 "/>
<polyline clip-path="url(#clip230)" style="stroke:#000000; stroke-linecap:round; stroke-linejoin:round; stroke-width:4; stroke-opacity:1; fill:none" points="1368.42,1443.7 1368.42,1424.8 "/>
<polyline clip-path="url(#clip230)" style="stroke:#000000; stroke-linecap:round; stroke-linejoin:round; stroke-width:4; stroke-opacity:1; fill:none" points="1963.2,1443.7 1963.2,1424.8 "/>
<polyline clip-path="url(#clip230)" style="stroke:#000000; stroke-linecap:round; stroke-linejoin:round; stroke-width:4; stroke-opacity:1; fill:none" points="2557.98,1443.7 2557.98,1424.8 "/>
<polyline clip-path="url(#clip230)" style="stroke:#000000; stroke-linecap:round; stroke-linejoin:round; stroke-width:4; stroke-opacity:1; fill:none" points="3152.76,1443.7 3152.76,1424.8 "/>
<polyline clip-path="url(#clip230)" style="stroke:#000000; stroke-linecap:round; stroke-linejoin:round; stroke-width:4; stroke-opacity:1; fill:none" points="178.857,47.2441 178.857,66.1417 "/>
<polyline clip-path="url(#clip230)" style="stroke:#000000; stroke-linecap:round; stroke-linejoin:round; stroke-width:4; stroke-opacity:1; fill:none" points="773.637,47.2441 773.637,66.1417 "/>
<polyline clip-path="url(#clip230)" style="stroke:#000000; stroke-linecap:round; stroke-linejoin:round; stroke-width:4; stroke-opacity:1; fill:none" points="1368.42,47.2441 1368.42,66.1417 "/>
<polyline clip-path="url(#clip230)" style="stroke:#000000; stroke-linecap:round; stroke-linejoin:round; stroke-width:4; stroke-opacity:1; fill:none" points="1963.2,47.2441 1963.2,66.1417 "/>
<polyline clip-path="url(#clip230)" style="stroke:#000000; stroke-linecap:round; stroke-linejoin:round; stroke-width:4; stroke-opacity:1; fill:none" points="2557.98,47.2441 2557.98,66.1417 "/>
<polyline clip-path="url(#clip230)" style="stroke:#000000; stroke-linecap:round; stroke-linejoin:round; stroke-width:4; stroke-opacity:1; fill:none" points="3152.76,47.2441 3152.76,66.1417 "/>
<path clip-path="url(#clip230)" d="M156.242 1481.02 Q152.631 1481.02 150.802 1484.58 Q148.996 1488.12 148.996 1495.25 Q148.996 1502.36 150.802 1505.93 Q152.631 1509.47 156.242 1509.47 Q159.876 1509.47 161.682 1505.93 Q163.51 1502.36 163.51 1495.25 Q163.51 1488.12 161.682 1484.58 Q159.876 1481.02 156.242 1481.02 M156.242 1477.31 Q162.052 1477.31 165.107 1481.92 Q168.186 1486.5 168.186 1495.25 Q168.186 1503.98 165.107 1508.59 Q162.052 1513.17 156.242 1513.17 Q150.432 1513.17 147.353 1508.59 Q144.297 1503.98 144.297 1495.25 Q144.297 1486.5 147.353 1481.92 Q150.432 1477.31 156.242 1477.31 Z" fill="#000000" fill-rule="nonzero" fill-opacity="1" /><path clip-path="url(#clip230)" d="M176.404 1506.62 L181.288 1506.62 L181.288 1512.5 L176.404 1512.5 L176.404 1506.62 Z" fill="#000000" fill-rule="nonzero" fill-opacity="1" /><path clip-path="url(#clip230)" d="M201.473 1481.02 Q197.862 1481.02 196.033 1484.58 Q194.228 1488.12 194.228 1495.25 Q194.228 1502.36 196.033 1505.93 Q197.862 1509.47 201.473 1509.47 Q205.107 1509.47 206.913 1505.93 Q208.742 1502.36 208.742 1495.25 Q208.742 1488.12 206.913 1484.58 Q205.107 1481.02 201.473 1481.02 M201.473 1477.31 Q207.283 1477.31 210.339 1481.92 Q213.417 1486.5 213.417 1495.25 Q213.417 1503.98 210.339 1508.59 Q207.283 1513.17 201.473 1513.17 Q195.663 1513.17 192.584 1508.59 Q189.529 1503.98 189.529 1495.25 Q189.529 1486.5 192.584 1481.92 Q195.663 1477.31 201.473 1477.31 Z" fill="#000000" fill-rule="nonzero" fill-opacity="1" /><path clip-path="url(#clip230)" d="M751.82 1481.02 Q748.209 1481.02 746.38 1484.58 Q744.575 1488.12 744.575 1495.25 Q744.575 1502.36 746.38 1505.93 Q748.209 1509.47 751.82 1509.47 Q755.454 1509.47 757.26 1505.93 Q759.089 1502.36 759.089 1495.25 Q759.089 1488.12 757.26 1484.58 Q755.454 1481.02 751.82 1481.02 M751.82 1477.31 Q757.63 1477.31 760.686 1481.92 Q763.764 1486.5 763.764 1495.25 Q763.764 1503.98 760.686 1508.59 Q757.63 1513.17 751.82 1513.17 Q746.01 1513.17 742.931 1508.59 Q739.876 1503.98 739.876 1495.25 Q739.876 1486.5 742.931 1481.92 Q746.01 1477.31 751.82 1477.31 Z" fill="#000000" fill-rule="nonzero" fill-opacity="1" /><path clip-path="url(#clip230)" d="M771.982 1506.62 L776.866 1506.62 L776.866 1512.5 L771.982 1512.5 L771.982 1506.62 Z" fill="#000000" fill-rule="nonzero" fill-opacity="1" /><path clip-path="url(#clip230)" d="M791.079 1508.56 L807.399 1508.56 L807.399 1512.5 L785.454 1512.5 L785.454 1508.56 Q788.116 1505.81 792.7 1501.18 Q797.306 1496.53 798.487 1495.19 Q800.732 1492.66 801.612 1490.93 Q802.514 1489.17 802.514 1487.48 Q802.514 1484.72 800.57 1482.99 Q798.649 1481.25 795.547 1481.25 Q793.348 1481.25 790.894 1482.01 Q788.463 1482.78 785.686 1484.33 L785.686 1479.61 Q788.51 1478.47 790.963 1477.89 Q793.417 1477.31 795.454 1477.31 Q800.824 1477.31 804.019 1480 Q807.213 1482.69 807.213 1487.18 Q807.213 1489.31 806.403 1491.23 Q805.616 1493.12 803.51 1495.72 Q802.931 1496.39 799.829 1499.61 Q796.727 1502.8 791.079 1508.56 Z" fill="#000000" fill-rule="nonzero" fill-opacity="1" /><path clip-path="url(#clip230)" d="M1345.56 1481.02 Q1341.95 1481.02 1340.12 1484.58 Q1338.31 1488.12 1338.31 1495.25 Q1338.31 1502.36 1340.12 1505.93 Q1341.95 1509.47 1345.56 1509.47 Q1349.19 1509.47 1351 1505.93 Q1352.83 1502.36 1352.83 1495.25 Q1352.83 1488.12 1351 1484.58 Q1349.19 1481.02 1345.56 1481.02 M1345.56 1477.31 Q1351.37 1477.31 1354.42 1481.92 Q1357.5 1486.5 1357.5 1495.25 Q1357.5 1503.98 1354.42 1508.59 Q1351.37 1513.17 1345.56 1513.17 Q1339.75 1513.17 1336.67 1508.59 Q1333.61 1503.98 1333.61 1495.25 Q1333.61 1486.5 1336.67 1481.92 Q1339.75 1477.31 1345.56 1477.31 Z" fill="#000000" fill-rule="nonzero" fill-opacity="1" /><path clip-path="url(#clip230)" d="M1365.72 1506.62 L1370.6 1506.62 L1370.6 1512.5 L1365.72 1512.5 L1365.72 1506.62 Z" fill="#000000" fill-rule="nonzero" fill-opacity="1" /><path clip-path="url(#clip230)" d="M1393.64 1482.01 L1381.83 1500.46 L1393.64 1500.46 L1393.64 1482.01 M1392.41 1477.94 L1398.29 1477.94 L1398.29 1500.46 L1403.22 1500.46 L1403.22 1504.35 L1398.29 1504.35 L1398.29 1512.5 L1393.64 1512.5 L1393.64 1504.35 L1378.03 1504.35 L1378.03 1499.84 L1392.41 1477.94 Z" fill="#000000" fill-rule="nonzero" fill-opacity="1" /><path clip-path="url(#clip230)" d="M1940.5 1481.02 Q1936.89 1481.02 1935.06 1484.58 Q1933.25 1488.12 1933.25 1495.25 Q1933.25 1502.36 1935.06 1505.93 Q1936.89 1509.47 1940.5 1509.47 Q1944.13 1509.47 1945.94 1505.93 Q1947.77 1502.36 1947.77 1495.25 Q1947.77 1488.12 1945.94 1484.58 Q1944.13 1481.02 1940.5 1481.02 M1940.5 1477.31 Q1946.31 1477.31 1949.37 1481.92 Q1952.44 1486.5 1952.44 1495.25 Q1952.44 1503.98 1949.37 1508.59 Q1946.31 1513.17 1940.5 1513.17 Q1934.69 1513.17 1931.61 1508.59 Q1928.56 1503.98 1928.56 1495.25 Q1928.56 1486.5 1931.61 1481.92 Q1934.69 1477.31 1940.5 1477.31 Z" fill="#000000" fill-rule="nonzero" fill-opacity="1" /><path clip-path="url(#clip230)" d="M1960.66 1506.62 L1965.55 1506.62 L1965.55 1512.5 L1960.66 1512.5 L1960.66 1506.62 Z" fill="#000000" fill-rule="nonzero" fill-opacity="1" /><path clip-path="url(#clip230)" d="M1986.31 1493.36 Q1983.16 1493.36 1981.31 1495.51 Q1979.48 1497.66 1979.48 1501.41 Q1979.48 1505.14 1981.31 1507.31 Q1983.16 1509.47 1986.31 1509.47 Q1989.46 1509.47 1991.29 1507.31 Q1993.14 1505.14 1993.14 1501.41 Q1993.14 1497.66 1991.29 1495.51 Q1989.46 1493.36 1986.31 1493.36 M1995.59 1478.7 L1995.59 1482.96 Q1993.83 1482.13 1992.03 1481.69 Q1990.24 1481.25 1988.49 1481.25 Q1983.86 1481.25 1981.4 1484.37 Q1978.97 1487.5 1978.62 1493.82 Q1979.99 1491.81 1982.05 1490.74 Q1984.11 1489.65 1986.59 1489.65 Q1991.8 1489.65 1994.81 1492.82 Q1997.84 1495.97 1997.84 1501.41 Q1997.84 1506.74 1994.69 1509.95 Q1991.54 1513.17 1986.31 1513.17 Q1980.31 1513.17 1977.14 1508.59 Q1973.97 1503.98 1973.97 1495.25 Q1973.97 1487.06 1977.86 1482.2 Q1981.75 1477.31 1988.3 1477.31 Q1990.06 1477.31 1991.84 1477.66 Q1993.65 1478.01 1995.59 1478.7 Z" fill="#000000" fill-rule="nonzero" fill-opacity="1" /><path clip-path="url(#clip230)" d="M2535.41 1481.02 Q2531.8 1481.02 2529.97 1484.58 Q2528.16 1488.12 2528.16 1495.25 Q2528.16 1502.36 2529.97 1505.93 Q2531.8 1509.47 2535.41 1509.47 Q2539.04 1509.47 2540.85 1505.93 Q2542.68 1502.36 2542.68 1495.25 Q2542.68 1488.12 2540.85 1484.58 Q2539.04 1481.02 2535.41 1481.02 M2535.41 1477.31 Q2541.22 1477.31 2544.27 1481.92 Q2547.35 1486.5 2547.35 1495.25 Q2547.35 1503.98 2544.27 1508.59 Q2541.22 1513.17 2535.41 1513.17 Q2529.6 1513.17 2526.52 1508.59 Q2523.46 1503.98 2523.46 1495.25 Q2523.46 1486.5 2526.52 1481.92 Q2529.6 1477.31 2535.41 1477.31 Z" fill="#000000" fill-rule="nonzero" fill-opacity="1" /><path clip-path="url(#clip230)" d="M2555.57 1506.62 L2560.45 1506.62 L2560.45 1512.5 L2555.57 1512.5 L2555.57 1506.62 Z" fill="#000000" fill-rule="nonzero" fill-opacity="1" /><path clip-path="url(#clip230)" d="M2580.64 1496.09 Q2577.3 1496.09 2575.38 1497.87 Q2573.49 1499.65 2573.49 1502.78 Q2573.49 1505.9 2575.38 1507.69 Q2577.3 1509.47 2580.64 1509.47 Q2583.97 1509.47 2585.89 1507.69 Q2587.81 1505.88 2587.81 1502.78 Q2587.81 1499.65 2585.89 1497.87 Q2583.99 1496.09 2580.64 1496.09 M2575.96 1494.1 Q2572.95 1493.36 2571.26 1491.3 Q2569.6 1489.24 2569.6 1486.27 Q2569.6 1482.13 2572.54 1479.72 Q2575.5 1477.31 2580.64 1477.31 Q2585.8 1477.31 2588.74 1479.72 Q2591.68 1482.13 2591.68 1486.27 Q2591.68 1489.24 2589.99 1491.3 Q2588.32 1493.36 2585.34 1494.1 Q2588.72 1494.88 2590.59 1497.18 Q2592.49 1499.47 2592.49 1502.78 Q2592.49 1507.8 2589.41 1510.49 Q2586.36 1513.17 2580.64 1513.17 Q2574.92 1513.17 2571.84 1510.49 Q2568.79 1507.8 2568.79 1502.78 Q2568.79 1499.47 2570.68 1497.18 Q2572.58 1494.88 2575.96 1494.1 M2574.25 1486.71 Q2574.25 1489.4 2575.92 1490.9 Q2577.61 1492.41 2580.64 1492.41 Q2583.65 1492.41 2585.34 1490.9 Q2587.05 1489.4 2587.05 1486.71 Q2587.05 1484.03 2585.34 1482.52 Q2583.65 1481.02 2580.64 1481.02 Q2577.61 1481.02 2575.92 1482.52 Q2574.25 1484.03 2574.25 1486.71 Z" fill="#000000" fill-rule="nonzero" fill-opacity="1" /><path clip-path="url(#clip230)" d="M3119.91 1508.56 L3127.55 1508.56 L3127.55 1482.2 L3119.24 1483.87 L3119.24 1479.61 L3127.5 1477.94 L3132.18 1477.94 L3132.18 1508.56 L3139.82 1508.56 L3139.82 1512.5 L3119.91 1512.5 L3119.91 1508.56 Z" fill="#000000" fill-rule="nonzero" fill-opacity="1" /><path clip-path="url(#clip230)" d="M3149.26 1506.62 L3154.14 1506.62 L3154.14 1512.5 L3149.26 1512.5 L3149.26 1506.62 Z" fill="#000000" fill-rule="nonzero" fill-opacity="1" /><path clip-path="url(#clip230)" d="M3174.33 1481.02 Q3170.72 1481.02 3168.89 1484.58 Q3167.08 1488.12 3167.08 1495.25 Q3167.08 1502.36 3168.89 1505.93 Q3170.72 1509.47 3174.33 1509.47 Q3177.96 1509.47 3179.77 1505.93 Q3181.6 1502.36 3181.6 1495.25 Q3181.6 1488.12 3179.77 1484.58 Q3177.96 1481.02 3174.33 1481.02 M3174.33 1477.31 Q3180.14 1477.31 3183.2 1481.92 Q3186.27 1486.5 3186.27 1495.25 Q3186.27 1503.98 3183.2 1508.59 Q3180.14 1513.17 3174.33 1513.17 Q3168.52 1513.17 3165.44 1508.59 Q3162.39 1503.98 3162.39 1495.25 Q3162.39 1486.5 3165.44 1481.92 Q3168.52 1477.31 3174.33 1477.31 Z" fill="#000000" fill-rule="nonzero" fill-opacity="1" /><path clip-path="url(#clip230)" d="M1664.87 1554.79 L1664.87 1564.92 L1676.93 1564.92 L1676.93 1569.47 L1664.87 1569.47 L1664.87 1588.82 Q1664.87 1593.18 1666.05 1594.42 Q1667.25 1595.66 1670.92 1595.66 L1676.93 1595.66 L1676.93 1600.56 L1670.92 1600.56 Q1664.14 1600.56 1661.56 1598.05 Q1658.98 1595.5 1658.98 1588.82 L1658.98 1569.47 L1654.68 1569.47 L1654.68 1564.92 L1658.98 1564.92 L1658.98 1554.79 L1664.87 1554.79 Z" fill="#000000" fill-rule="nonzero" fill-opacity="1" /><polyline clip-path="url(#clip230)" style="stroke:#000000; stroke-linecap:round; stroke-linejoin:round; stroke-width:4; stroke-opacity:1; fill:none" points="178.857,1443.7 178.857,47.2441 "/>
<polyline clip-path="url(#clip230)" style="stroke:#000000; stroke-linecap:round; stroke-linejoin:round; stroke-width:4; stroke-opacity:1; fill:none" points="3152.76,1443.7 3152.76,47.2441 "/>
<polyline clip-path="url(#clip230)" style="stroke:#000000; stroke-linecap:round; stroke-linejoin:round; stroke-width:4; stroke-opacity:1; fill:none" points="178.857,1312.62 197.755,1312.62 "/>
<polyline clip-path="url(#clip230)" style="stroke:#000000; stroke-linecap:round; stroke-linejoin:round; stroke-width:4; stroke-opacity:1; fill:none" points="178.857,1123.57 197.755,1123.57 "/>
<polyline clip-path="url(#clip230)" style="stroke:#000000; stroke-linecap:round; stroke-linejoin:round; stroke-width:4; stroke-opacity:1; fill:none" points="178.857,934.522 197.755,934.522 "/>
<polyline clip-path="url(#clip230)" style="stroke:#000000; stroke-linecap:round; stroke-linejoin:round; stroke-width:4; stroke-opacity:1; fill:none" points="178.857,745.472 197.755,745.472 "/>
<polyline clip-path="url(#clip230)" style="stroke:#000000; stroke-linecap:round; stroke-linejoin:round; stroke-width:4; stroke-opacity:1; fill:none" points="178.857,556.422 197.755,556.422 "/>
<polyline clip-path="url(#clip230)" style="stroke:#000000; stroke-linecap:round; stroke-linejoin:round; stroke-width:4; stroke-opacity:1; fill:none" points="178.857,367.372 197.755,367.372 "/>
<polyline clip-path="url(#clip230)" style="stroke:#000000; stroke-linecap:round; stroke-linejoin:round; stroke-width:4; stroke-opacity:1; fill:none" points="178.857,178.322 197.755,178.322 "/>
<polyline clip-path="url(#clip230)" style="stroke:#000000; stroke-linecap:round; stroke-linejoin:round; stroke-width:4; stroke-opacity:1; fill:none" points="3152.76,1312.62 3133.86,1312.62 "/>
<polyline clip-path="url(#clip230)" style="stroke:#000000; stroke-linecap:round; stroke-linejoin:round; stroke-width:4; stroke-opacity:1; fill:none" points="3152.76,1123.57 3133.86,1123.57 "/>
<polyline clip-path="url(#clip230)" style="stroke:#000000; stroke-linecap:round; stroke-linejoin:round; stroke-width:4; stroke-opacity:1; fill:none" points="3152.76,934.522 3133.86,934.522 "/>
<polyline clip-path="url(#clip230)" style="stroke:#000000; stroke-linecap:round; stroke-linejoin:round; stroke-width:4; stroke-opacity:1; fill:none" points="3152.76,745.472 3133.86,745.472 "/>
<polyline clip-path="url(#clip230)" style="stroke:#000000; stroke-linecap:round; stroke-linejoin:round; stroke-width:4; stroke-opacity:1; fill:none" points="3152.76,556.422 3133.86,556.422 "/>
<polyline clip-path="url(#clip230)" style="stroke:#000000; stroke-linecap:round; stroke-linejoin:round; stroke-width:4; stroke-opacity:1; fill:none" points="3152.76,367.372 3133.86,367.372 "/>
<polyline clip-path="url(#clip230)" style="stroke:#000000; stroke-linecap:round; stroke-linejoin:round; stroke-width:4; stroke-opacity:1; fill:none" points="3152.76,178.322 3133.86,178.322 "/>
<path clip-path="url(#clip230)" d="M78.566 1295.34 L100.788 1295.34 L100.788 1297.33 L88.2419 1329.9 L83.3577 1329.9 L95.1632 1299.28 L78.566 1299.28 L78.566 1295.34 Z" fill="#000000" fill-rule="nonzero" fill-opacity="1" /><path clip-path="url(#clip230)" d="M109.955 1295.34 L128.311 1295.34 L128.311 1299.28 L114.237 1299.28 L114.237 1307.75 Q115.256 1307.4 116.274 1307.24 Q117.293 1307.05 118.311 1307.05 Q124.098 1307.05 127.478 1310.23 Q130.857 1313.4 130.857 1318.81 Q130.857 1324.39 127.385 1327.49 Q123.913 1330.57 117.594 1330.57 Q115.418 1330.57 113.149 1330.2 Q110.904 1329.83 108.496 1329.09 L108.496 1324.39 Q110.58 1325.53 112.802 1326.08 Q115.024 1326.64 117.501 1326.64 Q121.506 1326.64 123.844 1324.53 Q126.182 1322.43 126.182 1318.81 Q126.182 1315.2 123.844 1313.1 Q121.506 1310.99 117.501 1310.99 Q115.626 1310.99 113.751 1311.41 Q111.899 1311.82 109.955 1312.7 L109.955 1295.34 Z" fill="#000000" fill-rule="nonzero" fill-opacity="1" /><path clip-path="url(#clip230)" d="M49.3995 1136.92 L57.0384 1136.92 L57.0384 1110.55 L48.7282 1112.22 L48.7282 1107.96 L56.9921 1106.29 L61.668 1106.29 L61.668 1136.92 L69.3068 1136.92 L69.3068 1140.85 L49.3995 1140.85 L49.3995 1136.92 Z" fill="#000000" fill-rule="nonzero" fill-opacity="1" /><path clip-path="url(#clip230)" d="M88.7512 1109.37 Q85.1401 1109.37 83.3114 1112.94 Q81.5058 1116.48 81.5058 1123.61 Q81.5058 1130.71 83.3114 1134.28 Q85.1401 1137.82 88.7512 1137.82 Q92.3854 1137.82 94.1909 1134.28 Q96.0196 1130.71 96.0196 1123.61 Q96.0196 1116.48 94.1909 1112.94 Q92.3854 1109.37 88.7512 1109.37 M88.7512 1105.67 Q94.5613 1105.67 97.6169 1110.27 Q100.696 1114.86 100.696 1123.61 Q100.696 1132.33 97.6169 1136.94 Q94.5613 1141.52 88.7512 1141.52 Q82.941 1141.52 79.8623 1136.94 Q76.8068 1132.33 76.8068 1123.61 Q76.8068 1114.86 79.8623 1110.27 Q82.941 1105.67 88.7512 1105.67 Z" fill="#000000" fill-rule="nonzero" fill-opacity="1" /><path clip-path="url(#clip230)" d="M118.913 1109.37 Q115.302 1109.37 113.473 1112.94 Q111.668 1116.48 111.668 1123.61 Q111.668 1130.71 113.473 1134.28 Q115.302 1137.82 118.913 1137.82 Q122.547 1137.82 124.353 1134.28 Q126.182 1130.71 126.182 1123.61 Q126.182 1116.48 124.353 1112.94 Q122.547 1109.37 118.913 1109.37 M118.913 1105.67 Q124.723 1105.67 127.779 1110.27 Q130.857 1114.86 130.857 1123.61 Q130.857 1132.33 127.779 1136.94 Q124.723 1141.52 118.913 1141.52 Q113.103 1141.52 110.024 1136.94 Q106.969 1132.33 106.969 1123.61 Q106.969 1114.86 110.024 1110.27 Q113.103 1105.67 118.913 1105.67 Z" fill="#000000" fill-rule="nonzero" fill-opacity="1" /><path clip-path="url(#clip230)" d="M50.3949 947.867 L58.0337 947.867 L58.0337 921.501 L49.7236 923.168 L49.7236 918.909 L57.9874 917.242 L62.6633 917.242 L62.6633 947.867 L70.3022 947.867 L70.3022 951.802 L50.3949 951.802 L50.3949 947.867 Z" fill="#000000" fill-rule="nonzero" fill-opacity="1" /><path clip-path="url(#clip230)" d="M83.7743 947.867 L100.094 947.867 L100.094 951.802 L78.1494 951.802 L78.1494 947.867 Q80.8114 945.112 85.3947 940.483 Q90.0012 935.83 91.1817 934.487 Q93.4271 931.964 94.3067 930.228 Q95.2095 928.469 95.2095 926.779 Q95.2095 924.024 93.265 922.288 Q91.3437 920.552 88.2419 920.552 Q86.0428 920.552 83.5892 921.316 Q81.1586 922.08 78.3808 923.631 L78.3808 918.909 Q81.2049 917.774 83.6586 917.196 Q86.1123 916.617 88.1493 916.617 Q93.5197 916.617 96.7141 919.302 Q99.9085 921.987 99.9085 926.478 Q99.9085 928.608 99.0983 930.529 Q98.3113 932.427 96.2048 935.02 Q95.6261 935.691 92.5243 938.909 Q89.4225 942.103 83.7743 947.867 Z" fill="#000000" fill-rule="nonzero" fill-opacity="1" /><path clip-path="url(#clip230)" d="M109.955 917.242 L128.311 917.242 L128.311 921.177 L114.237 921.177 L114.237 929.649 Q115.256 929.302 116.274 929.14 Q117.293 928.955 118.311 928.955 Q124.098 928.955 127.478 932.126 Q130.857 935.297 130.857 940.714 Q130.857 946.293 127.385 949.395 Q123.913 952.473 117.594 952.473 Q115.418 952.473 113.149 952.103 Q110.904 951.733 108.496 950.992 L108.496 946.293 Q110.58 947.427 112.802 947.983 Q115.024 948.538 117.501 948.538 Q121.506 948.538 123.844 946.432 Q126.182 944.325 126.182 940.714 Q126.182 937.103 123.844 934.997 Q121.506 932.89 117.501 932.89 Q115.626 932.89 113.751 933.307 Q111.899 933.723 109.955 934.603 L109.955 917.242 Z" fill="#000000" fill-rule="nonzero" fill-opacity="1" /><path clip-path="url(#clip230)" d="M49.3995 758.817 L57.0384 758.817 L57.0384 732.451 L48.7282 734.118 L48.7282 729.859 L56.9921 728.192 L61.668 728.192 L61.668 758.817 L69.3068 758.817 L69.3068 762.752 L49.3995 762.752 L49.3995 758.817 Z" fill="#000000" fill-rule="nonzero" fill-opacity="1" /><path clip-path="url(#clip230)" d="M78.7975 728.192 L97.1539 728.192 L97.1539 732.127 L83.0799 732.127 L83.0799 740.599 Q84.0984 740.252 85.1169 740.09 Q86.1354 739.905 87.1539 739.905 Q92.941 739.905 96.3206 743.076 Q99.7002 746.247 99.7002 751.664 Q99.7002 757.243 96.228 760.345 Q92.7558 763.423 86.4364 763.423 Q84.2604 763.423 81.9919 763.053 Q79.7466 762.683 77.3392 761.942 L77.3392 757.243 Q79.4225 758.377 81.6447 758.933 Q83.8669 759.488 86.3438 759.488 Q90.3484 759.488 92.6863 757.382 Q95.0243 755.275 95.0243 751.664 Q95.0243 748.053 92.6863 745.947 Q90.3484 743.84 86.3438 743.84 Q84.4688 743.84 82.5938 744.257 Q80.7419 744.673 78.7975 745.553 L78.7975 728.192 Z" fill="#000000" fill-rule="nonzero" fill-opacity="1" /><path clip-path="url(#clip230)" d="M118.913 731.271 Q115.302 731.271 113.473 734.835 Q111.668 738.377 111.668 745.507 Q111.668 752.613 113.473 756.178 Q115.302 759.72 118.913 759.72 Q122.547 759.72 124.353 756.178 Q126.182 752.613 126.182 745.507 Q126.182 738.377 124.353 734.835 Q122.547 731.271 118.913 731.271 M118.913 727.567 Q124.723 727.567 127.779 732.173 Q130.857 736.757 130.857 745.507 Q130.857 754.233 127.779 758.84 Q124.723 763.423 118.913 763.423 Q113.103 763.423 110.024 758.84 Q106.969 754.233 106.969 745.507 Q106.969 736.757 110.024 732.173 Q113.103 727.567 118.913 727.567 Z" fill="#000000" fill-rule="nonzero" fill-opacity="1" /><path clip-path="url(#clip230)" d="M50.3949 569.767 L58.0337 569.767 L58.0337 543.401 L49.7236 545.068 L49.7236 540.809 L57.9874 539.142 L62.6633 539.142 L62.6633 569.767 L70.3022 569.767 L70.3022 573.702 L50.3949 573.702 L50.3949 569.767 Z" fill="#000000" fill-rule="nonzero" fill-opacity="1" /><path clip-path="url(#clip230)" d="M78.566 539.142 L100.788 539.142 L100.788 541.133 L88.2419 573.702 L83.3577 573.702 L95.1632 543.077 L78.566 543.077 L78.566 539.142 Z" fill="#000000" fill-rule="nonzero" fill-opacity="1" /><path clip-path="url(#clip230)" d="M109.955 539.142 L128.311 539.142 L128.311 543.077 L114.237 543.077 L114.237 551.549 Q115.256 551.202 116.274 551.04 Q117.293 550.855 118.311 550.855 Q124.098 550.855 127.478 554.026 Q130.857 557.197 130.857 562.614 Q130.857 568.193 127.385 571.295 Q123.913 574.373 117.594 574.373 Q115.418 574.373 113.149 574.003 Q110.904 573.633 108.496 572.892 L108.496 568.193 Q110.58 569.327 112.802 569.883 Q115.024 570.438 117.501 570.438 Q121.506 570.438 123.844 568.332 Q126.182 566.225 126.182 562.614 Q126.182 559.003 123.844 556.896 Q121.506 554.79 117.501 554.79 Q115.626 554.79 113.751 555.207 Q111.899 555.623 109.955 556.503 L109.955 539.142 Z" fill="#000000" fill-rule="nonzero" fill-opacity="1" /><path clip-path="url(#clip230)" d="M52.6171 380.717 L68.9365 380.717 L68.9365 384.652 L46.9921 384.652 L46.9921 380.717 Q49.6541 377.962 54.2375 373.333 Q58.8439 368.68 60.0245 367.337 Q62.2698 364.814 63.1494 363.078 Q64.0522 361.319 64.0522 359.629 Q64.0522 356.874 62.1078 355.138 Q60.1865 353.402 57.0847 353.402 Q54.8856 353.402 52.4319 354.166 Q50.0014 354.93 47.2236 356.481 L47.2236 351.759 Q50.0477 350.624 52.5014 350.046 Q54.955 349.467 56.9921 349.467 Q62.3624 349.467 65.5568 352.152 Q68.7513 354.837 68.7513 359.328 Q68.7513 361.458 67.9411 363.379 Q67.1541 365.277 65.0476 367.87 Q64.4689 368.541 61.367 371.759 Q58.2652 374.953 52.6171 380.717 Z" fill="#000000" fill-rule="nonzero" fill-opacity="1" /><path clip-path="url(#clip230)" d="M88.7512 353.171 Q85.1401 353.171 83.3114 356.735 Q81.5058 360.277 81.5058 367.407 Q81.5058 374.513 83.3114 378.078 Q85.1401 381.62 88.7512 381.62 Q92.3854 381.62 94.1909 378.078 Q96.0196 374.513 96.0196 367.407 Q96.0196 360.277 94.1909 356.735 Q92.3854 353.171 88.7512 353.171 M88.7512 349.467 Q94.5613 349.467 97.6169 354.073 Q100.696 358.657 100.696 367.407 Q100.696 376.133 97.6169 380.74 Q94.5613 385.323 88.7512 385.323 Q82.941 385.323 79.8623 380.74 Q76.8068 376.133 76.8068 367.407 Q76.8068 358.657 79.8623 354.073 Q82.941 349.467 88.7512 349.467 Z" fill="#000000" fill-rule="nonzero" fill-opacity="1" /><path clip-path="url(#clip230)" d="M118.913 353.171 Q115.302 353.171 113.473 356.735 Q111.668 360.277 111.668 367.407 Q111.668 374.513 113.473 378.078 Q115.302 381.62 118.913 381.62 Q122.547 381.62 124.353 378.078 Q126.182 374.513 126.182 367.407 Q126.182 360.277 124.353 356.735 Q122.547 353.171 118.913 353.171 M118.913 349.467 Q124.723 349.467 127.779 354.073 Q130.857 358.657 130.857 367.407 Q130.857 376.133 127.779 380.74 Q124.723 385.323 118.913 385.323 Q113.103 385.323 110.024 380.74 Q106.969 376.133 106.969 367.407 Q106.969 358.657 110.024 354.073 Q113.103 349.467 118.913 349.467 Z" fill="#000000" fill-rule="nonzero" fill-opacity="1" /><path clip-path="url(#clip230)" d="M53.6125 191.667 L69.9318 191.667 L69.9318 195.602 L47.9875 195.602 L47.9875 191.667 Q50.6495 188.912 55.2328 184.283 Q59.8393 179.63 61.0198 178.287 Q63.2652 175.764 64.1448 174.028 Q65.0476 172.269 65.0476 170.579 Q65.0476 167.824 63.1032 166.088 Q61.1819 164.352 58.08 164.352 Q55.881 164.352 53.4273 165.116 Q50.9967 165.88 48.219 167.431 L48.219 162.709 Q51.043 161.574 53.4967 160.996 Q55.9504 160.417 57.9874 160.417 Q63.3578 160.417 66.5522 163.102 Q69.7466 165.787 69.7466 170.278 Q69.7466 172.408 68.9365 174.329 Q68.1494 176.227 66.0429 178.82 Q65.4642 179.491 62.3624 182.709 Q59.2606 185.903 53.6125 191.667 Z" fill="#000000" fill-rule="nonzero" fill-opacity="1" /><path clip-path="url(#clip230)" d="M83.7743 191.667 L100.094 191.667 L100.094 195.602 L78.1494 195.602 L78.1494 191.667 Q80.8114 188.912 85.3947 184.283 Q90.0012 179.63 91.1817 178.287 Q93.4271 175.764 94.3067 174.028 Q95.2095 172.269 95.2095 170.579 Q95.2095 167.824 93.265 166.088 Q91.3437 164.352 88.2419 164.352 Q86.0428 164.352 83.5892 165.116 Q81.1586 165.88 78.3808 167.431 L78.3808 162.709 Q81.2049 161.574 83.6586 160.996 Q86.1123 160.417 88.1493 160.417 Q93.5197 160.417 96.7141 163.102 Q99.9085 165.787 99.9085 170.278 Q99.9085 172.408 99.0983 174.329 Q98.3113 176.227 96.2048 178.82 Q95.6261 179.491 92.5243 182.709 Q89.4225 185.903 83.7743 191.667 Z" fill="#000000" fill-rule="nonzero" fill-opacity="1" /><path clip-path="url(#clip230)" d="M109.955 161.042 L128.311 161.042 L128.311 164.977 L114.237 164.977 L114.237 173.449 Q115.256 173.102 116.274 172.94 Q117.293 172.755 118.311 172.755 Q124.098 172.755 127.478 175.926 Q130.857 179.097 130.857 184.514 Q130.857 190.093 127.385 193.195 Q123.913 196.273 117.594 196.273 Q115.418 196.273 113.149 195.903 Q110.904 195.533 108.496 194.792 L108.496 190.093 Q110.58 191.227 112.802 191.783 Q115.024 192.338 117.501 192.338 Q121.506 192.338 123.844 190.232 Q126.182 188.125 126.182 184.514 Q126.182 180.903 123.844 178.796 Q121.506 176.69 117.501 176.69 Q115.626 176.69 113.751 177.107 Q111.899 177.523 109.955 178.403 L109.955 161.042 Z" fill="#000000" fill-rule="nonzero" fill-opacity="1" /><polyline clip-path="url(#clip231)" style="stroke:#009af9; stroke-linecap:round; stroke-linejoin:round; stroke-width:8; stroke-opacity:1; fill:none" points="178.857,1123.57 178.857,1123.69 178.883,1117.53 178.912,1107.16 178.945,1099.37 178.982,1087.97 179.023,1090.55 179.069,1082.22 179.122,1068.75 179.18,1049.31 179.246,1023.64 179.321,983.778 179.405,965.919 179.499,945.635 179.605,916.226 179.724,896.307 179.858,869.251 180.009,862.778 180.179,851.559 180.369,817.419 180.584,768.375 180.826,737.734 181.098,685.044 181.404,683.316 181.748,678.034 182.135,663.082 182.57,633.704 183.06,569.716 183.611,509.188 184.231,499.912 184.929,473.027 185.713,471.301 186.596,439.691 187.589,416.83 188.706,383.155 189.963,342.656 191.377,291.27 192.968,281.95 194.758,332.579 196.771,419.077 199.036,281.154 201.584,293.043 204.45,328.63 207.675,250.202 210.517,210.511 213.715,193.175 215.256,208.175 216.99,208.646 218.94,256.288 221.135,264.323 223.604,267.222 226.381,239.33 229.505,247.469 233.02,176.413 236.975,272.197 237.958,301.842 239.065,341.767 240.31,373.099 241.71,360.369 243.286,305.681 245.058,261.574 247.053,288.99 249.296,215.078 251.82,211.682 254.659,341.689 257.853,288.858 260.631,338.372 263.757,258.17 267.076,287.184 270.809,303.678 272.984,279.647 275.431,219.711 278.183,189.644 281.279,322.976 284.763,351.078 288.682,350.437 292.364,258.651 296.507,348.956 301.168,331.29 302.1,329.453 303.148,258.477 304.328,265.431 305.655,304.503 307.148,267.066 308.828,337.821 310.718,319.42 312.843,326.639 315.235,316.536 317.926,203.335 320.952,189.04 324.358,241.248 328.189,207.873 332.498,188.112 334.991,194.712 337.794,247.237 340.948,103.694 344.497,236.834 346.439,246.059 348.624,155.354 351.082,196.371 351.771,194.54 352.547,247.642 353.419,260.736 354.401,286.585 355.505,270.031 356.747,239.837 358.145,344.418 359.717,381.182 361.486,280.073 363.476,318.584 365.714,312.134 368.233,318.496 371.066,355.88 374.253,307.799 377.788,196.138 381.765,184.178 386.239,276.336 391.169,352.798 396.716,350.916 398.064,242.24 399.581,251.43 401.288,363.537 403.208,353.147 405.186,358.28 407.413,393.62 409.917,377.306 412.735,233.477 415.904,328.023 419.47,257.713 421.886,224.869 424.604,99.9803 427.662,239.523 428.599,267.379 429.654,257.36 430.841,246.052 432.176,224.127 433.678,180.763 435.367,200.112 437.268,219.576 439.406,231.021 441.812,276.776 444.518,326.211 447.562,284.132 449.858,181.041 452.441,101.601 455.346,203.623 456.753,200.971 458.336,189.672 460.117,232.145 462.121,239.904 464.375,229.464 466.911,270.361 469.764,191.114 472.973,294.818 474.881,275.015 477.027,272.517 479.441,256.502 482.157,263.427 485.213,245.619 488.65,319.18 492.517,270.656 493.816,206.613 495.277,192.7 496.921,197.982 498.77,274.88 500.851,287.814 503.191,166.255 505.824,225.889 508.723,199.531 511.983,204.497 515.444,161.371 519.337,195.884 522.019,279.364 525.037,377.833 528.432,321.503 529.937,352.232 531.629,196.868 533.533,227.656 535.675,241.503 538.085,225.328 540.796,188.909 543.845,178.255 546.417,218.088 549.31,143.742 552.565,298.671 554.566,171.074 556.817,234.042 559.349,276.354 562.198,305.153 565.403,299.839 569.009,156.242 573.066,289.824 575.641,345.35 578.538,315.009 580.971,298.232 583.709,248.624 586.789,252.126 590.253,223.044 594.151,349.109 597.018,350.912 600.244,327.365 603.873,221.922 607.955,259.829 612.548,147.912 617.715,208.488 618.748,256.411 619.911,251.68 621.219,176.531 622.69,229.937 624.345,303.796 626.208,208.148 628.302,172.409 630.659,277.826 633.311,276.438 636.293,299.92 639.649,223.662 643.424,236.228 647.671,259.187 652.449,304.782 657.824,176.445 658.899,151.381 660.109,190.139 661.469,123.658 663,93.6719 664.722,190.884 666.659,169.603 668.839,126.055 671.29,117.997 674.049,236.829 677.152,295.214 680.643,313.423 684.57,335.218 688.988,313.779 693.17,249.953 697.874,255.682 703.166,258.386 709.119,294.913 715.817,279.857 717.156,250.631 718.663,320.383 720.359,310.731 722.266,279.975 724.412,366.192 726.826,253.553 729.541,209.694 732.596,310.255 736.033,264.419 739.9,242.887 744.25,281.637 749.143,188.036 754.649,178.124 757.035,242.013 759.72,259.642 762.74,269.806 766.138,232.55 769.96,264.343 774.26,218.855 779.098,219.86 782.587,298.251 786.513,354.711 790.929,300.309 793.368,304.377 796.113,349.945 799.201,253.815 802.674,155.752 806.582,224.253 807.364,196.843 808.243,105.36 809.232,193.137 810.345,212.087 811.597,275.043 813.005,348.047 814.59,376.128 816.372,297.696 818.378,314.515 820.634,246.226 823.172,260.249 826.027,269.758 829.239,264.842 832.853,290.119 836.918,236.814 840.052,281.288 843.577,228.569 847.543,296.643 852.004,317.471 857.023,290.977 861.371,273.94 866.263,263.908 871.766,313.617 877.957,308.732 879.855,290.436 881.991,335.284 884.393,298.544 887.096,315.128 890.137,254.949 893.557,328.219 897.406,337.849 900.067,355.611 903.06,300.522 906.428,249.24 910.217,186.623 914.479,231.341 915.337,267.89 916.302,247.207 917.388,274.797 918.609,310.405 919.983,249.919 921.529,248.06 923.269,215.124 925.225,282.953 927.426,321.441 929.903,198.916 932.689,200.49 935.823,188.462 939.349,204.776 943.315,199.378 947.778,262.13 952.798,208.784 958.446,174.498 959.779,151.367 961.278,140.478 962.965,152.354 964.863,191.63 966.998,182.622 969.4,176.178 972.102,244.825 975.142,290.793 978.561,274.311 982.409,240.372 986.737,228.625 991.606,283.038 997.084,202.54 1003.25,146.865 1006.41,231.816 1009.97,337.154 1013.97,303.447 1016.17,216.166 1018.65,245.534 1021.44,289.2 1024.57,288.454 1027.97,315.811 1031.79,236.702 1035.8,275.053 1040.32,277.286 1045.4,301.91 1051.11,208.661 1054.97,302.952 1059.31,293.512 1064.2,291.721 1069.69,251.482 1075.87,280.816 1082.83,288.493 1085.93,231.16 1089.42,293.052 1093.35,267.305 1097.76,226.872 1102.73,409.387 1106.31,296.461 1108.2,264.555 1110.33,258.573 1112.72,227.043 1115.41,188.608 1118.44,213.961 1121.22,215.317 1124.35,220.305 1127.87,271.873 1131.83,311.223 1136.28,238.517 1139.33,248.141 1142.76,313.313 1146.62,303.55 1148.05,306.059 1149.66,268.627 1151.47,269.419 1153.5,284.346 1155.79,265.305 1158.37,201.155 1161.27,248.685 1162.9,246.98 1164.73,292.937 1166.8,406.054 1168.21,331.228 1169.8,252.977 1171.58,270.819 1173.59,217.768 1175.85,214.633 1178.39,294.926 1181.25,352.578 1184.47,297.225 1186.99,383.97 1189.82,366.314 1193,312.61 1196.58,336.087 1200.61,210.619 1204.7,222.815 1209.29,275.754 1214.46,305.514 1220.27,338.3 1225.26,262.432 1230.37,297.408 1236.11,214.972 1237.76,217.983 1239.61,222.639 1241.69,234.578 1244.03,269.752 1246.66,174.699 1249.62,148.083 1251.17,120.689 1252.91,118.149 1254.88,194.636 1257.08,177.25 1259.56,185.618 1262.36,203.134 1265.5,199.871 1269.03,200.94 1273.01,297.852 1277.48,201.618 1282.51,192.569 1287.99,188.287 1292.95,225.868 1298.54,366.617 1302.81,321.888 1305.38,314.478 1308.27,289.677 1311.52,346.666 1315.17,226.787 1317.4,207.806 1319.91,292.451 1322.73,219.585 1325.91,218.247 1329.48,310.095 1333.5,126.563 1337.27,90.6302 1341.5,248.69 1343.5,169.191 1345.75,165.966 1348.28,295.235 1351.13,373.822 1354.33,357.34 1356.24,244.127 1358.39,271.266 1360.81,250.762 1363.52,301.761 1366.58,238.366 1368.35,244.059 1370.33,219.631 1372.57,224.781 1375.08,141.539 1377.9,183.817 1379.13,223.778 1380.52,228.927 1382.08,186.209 1383.83,172.958 1385.8,218.817 1388.02,311.903 1390.52,343.484 1393.33,212.274 1396.48,250.841 1400.04,355.36 1404.04,296.031 1404.84,385.054 1405.73,326.808 1406.75,303.423 1407.89,252.458 1409.17,289.138 1410.61,239.832 1412.23,257.569 1414.05,251.59 1416.1,260.696 1418.41,247.236 1421.01,210.684 1423.93,293.439 1426.39,289.868 1429.16,226.184 1432.27,216.017 1435.78,235.31 1439.72,286.166 1444.16,316.879 1449.14,237.283 1452.58,215.927 1456.44,338.018 1460.78,314.112 1463.74,249.777 1467.08,347.472 1470.83,295.526 1472.6,242.502 1474.6,259.881 1476.84,158.301 1479.37,190.165 1480.6,214.404 1481.98,261.692 1483.54,257.623 1485.29,259.532 1487.26,282.132 1489.47,212.013 1491.96,345.289 1494.77,283.268 1497.32,227.517 1500.2,362.657 1503.43,276.056 1505.25,257.075 1507.31,312.16 1509.62,272.311 1510.35,249 1511.18,253.689 1512.12,229.268 1513.17,275.762 1514.35,253.664 1515.67,195.299 1517.17,197.667 1518.85,143.628 1520.74,282.61 1522.86,311.665 1525.26,322.083 1527.95,273.676 1530.98,281.76 1534.38,174.973 1538.22,238.48 1540.37,188.651 1542.79,236.811 1544.61,304.955 1546.65,293.366 1548.95,344.115 1551.54,279.32 1554.46,293.042 1557.73,295.446 1561.42,309.099 1565.57,145.837 1570.14,257.871 1572.66,169.542 1575.49,186.882 1576.6,202.516 1577.85,161.156 1579.26,214.85 1580.84,218.418 1582.61,293.799 1584.61,286.883 1586.86,225.011 1589.39,170.62 1592.24,187.808 1593.95,220.62 1595.86,244.299 1598.02,228.4 1600.45,160.513 1603.18,115.777 1604.53,185.543 1606.06,170.872 1607.77,224.67 1609.69,296.357 1611.86,315.756 1614.3,354.95 1617.04,306.658 1620.12,307.707 1623.59,250.142 1627.49,348.34 1631.88,310.88 1632.76,312.311 1633.75,330.65 1634.86,272.709 1636.11,234.136 1637.52,285.549 1639.1,294.804 1640.88,282.296 1642.89,240.14 1645.14,258.556 1647.67,193.955 1650.53,172.911 1651.56,263.962 1652.72,315.959 1654.03,268.004 1655.5,257.948 1657.15,280.258 1659.01,293.75 1661.11,233.582 1663.46,174.556 1666.11,190.714 1667.65,190.608 1669.39,211.088 1671.34,234.54 1673.53,229.959 1676,138.942 1678.77,202.221 1679.74,212.604 1680.82,250.595 1682.04,246.888 1683.41,216.356 1684.95,191.751 1686.68,183.722 1688.64,267.695 1690.83,302.391 1693.3,248.072 1696.08,291.209 1699.2,172.351 1701.19,159.516 1703.42,213.496 1705.93,287.213 1708.76,318.445 1711.94,320.989 1715.51,236.057 1719.54,249.559 1724.06,183.069 1729.15,160.18 1730.17,206.048 1731.32,226.961 1732.61,217.539 1734.06,239.749 1735.69,251.225 1737.52,309.478 1739.59,229.927 1741.14,297.055 1742.89,255.136 1744.86,296.373 1747.07,277.556 1749.28,296.138 1751.76,332.922 1754.55,276.441 1757.68,205.776 1761.21,165.604 1765.04,147.345 1767.96,150.178 1771.26,302.097 1774.96,210.681 1779.13,177.756 1783.82,265.567 1787.25,261.788 1791.11,312.184 1795.45,249.731 1796.84,306.902 1798.41,321.731 1800.17,303.862 1802.16,318.59 1804.39,275.905 1806.9,335.325 1809.72,226.72 1811.79,239.048 1814.11,199.637 1816.72,162.305 1819.02,233.215 1821.6,339.533 1824.5,237.056 1826.3,254.539 1828.31,280.676 1830.58,281.217 1833.13,212.069 1836,260.012 1839.22,305.913 1842.85,366.463 1844.29,314.267 1845.9,284.188 1847.71,311.184 1849.74,292.199 1852.04,340.281 1854.61,295.493 1857.51,219.278 1860.78,264.05 1864.45,271.784 1868.58,99.5578 1870.53,253.117 1872.72,255.87 1875.19,197.971 1877.97,297.379 1879.54,292.744 1881.32,352.182 1883.31,304.504 1885.55,233.17 1888.07,231.044 1890.91,336.245 1894.1,310.526 1896.31,321.651 1898.79,358.233 1901.59,246.708 1904.73,188.417 1908.27,195.113 1911.46,210.891 1915.05,279.756 1919.09,372.228 1923.63,176.142 1924.91,155.319 1926.35,126.201 1927.97,180.3 1929.79,209.894 1931.83,204.758 1934.14,157.932 1936.73,134.637 1938.89,178.467 1941.32,244.192 1944.06,292.018 1947.14,287.438 1950.28,307.005 1953.81,397.003 1957.78,257.202 1959.68,303.122 1961.83,311.881 1963.49,246.574 1965.36,329.768 1967.46,353.374 1968.8,290.467 1970.3,244.964 1972,246.027 1973.9,221.069 1976.04,300.067 1978.45,132.662 1981.17,113.444 1983.5,158.601 1986.12,227.25 1989.08,205.994 1992.4,277.198 1996.14,365.702 2000.34,318.036 2001.57,359.232 2002.96,349.179 2004.52,384.296 2006.28,332.404 2008.25,295.703 2010.48,326.102 2012.98,327.48 2015.79,202.749 2018.95,283.344 2022.51,315.883 2026.52,241.568 2030.28,273.118 2034.51,128.228 2039.26,257.796 2040.3,274.942 2041.46,335.422 2042.77,291.644 2044.24,311.494 2045.89,288.959 2047.76,346.596 2049.85,273.23 2052.21,391.178 2054.86,247.588 2056.31,227.186 2057.95,143.336 2059.79,166.103 2061.17,217.633 2062.73,206.664 2064.48,229.133 2066.45,254.174 2068.67,243.96 2071.16,206.944 2073.97,201.345 2077.13,300.581 2080.68,270.383 2084.68,172.743 2089.17,317.341 2091.38,296.417 2093.87,221.976 2096.67,175.076 2099.82,233.699 2102.61,220.57 2105.75,217.289 2109.29,341.69 2113.26,277.521 2115.66,317.366 2118.36,321.083 2121.39,416.536 2124.8,351.484 2126.84,318.982 2129.12,377.845 2131.7,291.057 2134.59,303.165 2137.85,319.334 2141.52,267.549 2145.64,339.267 2150.28,264.779 2152.24,263.804 2154.44,269.873 2156.91,244.421 2159.7,300.712 2162.84,202.6 2165.35,193.377 2168.19,224.219 2171.38,293.371 2174.96,246.812 2179,277.304 2183.54,293.445 2188.65,146.422 2191.75,180.883 2195.24,386.563 2199.17,214.501 2201.41,226.374 2203.93,322.742 2206.77,284.134 2209.53,262.138 2212.63,247.121 2216.11,328.307 2220.03,297.418 2221.1,299.007 2222.31,287.522 2223.66,261.817 2225.19,270.344 2226.91,235.69 2228.84,234.231 2231.01,262.369 2233.45,294.884 2236.2,288.624 2239.16,248.787 2242.49,272.829 2246.23,254.764 2250.44,336.607 2255.18,275.645 2256.24,242.939 2257.43,229.733 2258.78,263.224 2260.29,160.058 2261.99,147.184 2263.9,196.584 2266.06,257.105 2268.48,319.299 2271.2,186.728 2272.61,216.054 2274.2,188.848 2275.98,283.409 2277.98,240.968 2280.24,303.229 2282.78,268.516 2285.63,279.033 2288.84,275.128 2292.46,200.944 2296.52,211.765 2299.48,212.468 2302.81,267.904 2306.55,210.698 2310.76,106.746 2314.2,192.934 2316.03,260.734 2318.09,210.703 2320.4,230.286 2323.01,175.768 2325.94,251.58 2328.46,239.144 2331.29,308.964 2334.48,277.962 2338.06,325.389 2342.1,232.473 2345.24,213.518 2348.77,295.102 2352.74,341.937 2357.22,261.702 2360.08,267.298 2363.3,183.421 2366.92,164.859 2368.86,246.881 2371.04,252.206 2373.5,287.63 2376.25,234.628 2378.84,287.285 2381.76,268.246 2385.04,289.263 2388.72,272.344 2392.68,328.202 2397.12,279.203 2398.76,311.347 2400.59,347.489 2402.66,263.488 2404.98,354.117 2407.6,323.478 2409.14,240.604 2410.89,315.429 2412.85,325.967 2414.53,318.673 2416.42,340.136 2418.55,377.012 2420.94,380.336 2423.63,373.792 2426.66,229.443 2430.07,252.184 2433.91,221.342 2438.22,314.576 2440.09,280.318 2442.18,255.417 2444.54,241.062 2447.19,368.242 2450.17,394.404 2452.2,413.476 2454.47,384.429 2457.03,345.124 2459.9,317.903 2463.14,368.268 2466.78,277.907 2469.91,312.11 2473.42,228.758 2477.38,195.04 2481.83,200.007 2484.74,237.416 2488.01,312.444 2491.69,243.71 2494.49,205.132 2497.64,238.046 2500.02,204.565 2502.69,167.855 2505.58,215.853 2508.84,225.566 2512.5,171.584 2516.63,284.628 2519.15,375.428 2521.99,320.655 2525.18,318.469 2528.78,261.143 2532.82,254.914 2537.37,292.669 2542.48,289.424 2543.95,238.604 2545.6,312.353 2547.45,245.052 2549.54,315.106 2551.88,294.9 2553.74,310.722 2555.82,187.781 2558.16,191.292 2560.8,333.273 2563.77,283.333 2567.1,226.22 2570.86,181.146 2575.08,319.308 2578.23,284.746 2581.77,217.734 2585.75,194.761 2590.23,242.968 2594.51,330.596 2599.31,287.981 2600.63,216.699 2602.11,211.123 2603.78,227.098 2605.66,169.726 2607.77,211.039 2610.14,223.236 2612.81,178.517 2615.81,262.472 2618.41,240.503 2621.34,246.404 2624.63,358.963 2628.33,260.432 2629.65,297.836 2631.13,291.431 2632.79,343.696 2634.67,336.294 2636.78,311.563 2639.15,324.107 2641.82,256.136 2644.82,319.956 2648.2,196.298 2649.44,275.754 2650.83,273.565 2652.4,229.058 2654.16,303.325 2656.14,269.351 2658.37,290.937 2660.88,424.595 2663.7,302.836 2665.55,297.875 2667.64,325.12 2669.98,277.807 2672.61,244.433 2675.57,244.492 2678.91,315.759 2682.66,239.075 2685.6,389.945 2688.9,295.588 2690.98,187.169 2693.32,170.026 2695.95,188.656 2698.9,244.935 2702.23,229.864 2705.97,251.071 2710.18,228.334 2714.92,201.854 2717.46,291.635 2720.33,268.302 2723.55,293.117 2727.17,387.653 2729.86,334.092 2732.89,288.927 2736.3,340.432 2740.13,326.411 2743.05,316.349 2746.33,314.854 2750.03,205.206 2754.18,161.386 2758.86,175.144 2761.36,167.3 2764.18,262.043 2767.35,265.418 2770.91,234.511 2774.92,255.578 2779.43,242.747 2784.51,306.63 2790.22,322.774 2792.65,360.893 2795.38,325.932 2798.45,331.208 2801.9,133.568 2805.79,196.959 2808.64,257.273 2811.85,247.288 2815.46,295.408 2819.52,261.366 2821.82,255.575 2824.41,315.916 2827.32,222.162 2828.23,262.05 2829.25,254.733 2830.4,280.736 2831.7,209.779 2833.15,142.007 2834.79,188.293 2836.64,200.519 2838.71,288.788 2841.05,271.573 2843.68,255.88 2846.63,266.832 2849.96,388.351 2851.1,357.675 2852.39,308.398 2853.84,238.834 2855.46,210.096 2857.3,273.813 2859.36,273.566 2861.68,320.137 2864.29,314.25 2866.58,314.006 2869.16,272.543 2872.05,312.958 2875.32,233.566 2878.06,272.038 2881.15,248.996 2884.62,330.465 2888.53,301.923 2890.26,327.57 2892.2,327.425 2894.38,252.913 2896.84,225.789 2899.61,257.153 2902.72,265.743 2906.21,208.989 2910.15,166.586 2912.92,285.351 2916.04,332.174 2919.54,276.627 2922.48,282.243 2925.78,284.487 2929.49,181.432 2933.67,166.803 2936.03,173.519 2938.68,186.585 2941.67,276.34 2945.03,291.871 2948.81,258.466 2953.06,300.095 2957.84,301.481 2959.1,302.121 2960.51,292.977 2962.11,248.024 2963.9,280.843 2965.92,269.421 2968.19,197.449 2970.74,227.07 2973.61,294.722 2976.85,280.389 2980.48,273.287 2984.57,186.919 2989.17,322.032 2991.43,259.652 2993.98,314.592 2996.84,229.951 2998.26,225.564 2999.86,222.976 3001.66,190.94 3003.69,262.148 3005.97,336.603 3008.53,225.075 3011.41,152.511 3014.66,105.699 3016.24,86.7664 3018.02,165.055 3020.02,204.128 3022.27,286.174 3024.8,268.477 3027.65,281.014 3030.86,217.097 3034.46,217.885 3038.52,320.4 3043.08,279.597 3046.53,315.586 3050.41,301.219 3053.49,326.896 3056.96,349.562 3060.87,210.93 3064.79,317.473 3069.19,323.354 3073.62,281.336 3078.6,281.759 3084.2,358.201 3088.92,313.365 3091.42,272.231 3094.24,295.225 3097.41,253.343 3100.98,197.165 3104.99,209.167 3107.37,254.134 3110.04,238.641 3113.05,180.176 3116.44,272.213 3117.94,289.91 3119.62,293.298 3121.52,235.389 3123.65,215.276 3126.05,233.347 3128.75,227.833 3131.79,231.658 3135.21,285.48 3139.05,253.98 3143.37,125.227 3147.66,168.377 3148.52,192.24 3149.48,169.337 3150.57,237.629 3151.79,286.092 3152.76,239.817 "/>
<polyline clip-path="url(#clip231)" style="stroke:#e26f46; stroke-linecap:round; stroke-linejoin:round; stroke-width:8; stroke-opacity:1; fill:none" points="178.857,367.372 178.857,367.257 178.883,373.411 178.912,383.784 178.945,391.575 178.982,402.973 179.023,400.392 179.069,408.724 179.122,422.197 179.18,441.632 179.246,467.301 179.321,507.166 179.405,525.025 179.499,545.308 179.605,574.718 179.724,594.637 179.858,621.693 180.009,628.166 180.179,639.385 180.369,673.525 180.584,722.569 180.826,753.21 181.098,805.9 181.404,807.628 181.748,812.91 182.135,827.862 182.57,857.24 183.06,921.228 183.611,981.756 184.231,991.032 184.929,1017.92 185.713,1019.64 186.596,1051.25 187.589,1074.11 188.706,1107.79 189.963,1148.29 191.377,1199.67 192.968,1208.99 194.758,1158.36 196.771,1071.87 199.036,1209.79 201.584,1197.9 204.45,1162.31 207.675,1240.74 210.517,1280.43 213.715,1297.77 215.256,1282.77 216.99,1282.3 218.94,1234.66 221.135,1226.62 223.604,1223.72 226.381,1251.61 229.505,1243.47 233.02,1314.53 236.975,1218.75 237.958,1189.1 239.065,1149.18 240.31,1117.84 241.71,1130.57 243.286,1185.26 245.058,1229.37 247.053,1201.95 249.296,1275.87 251.82,1279.26 254.659,1149.26 257.853,1202.09 260.631,1152.57 263.757,1232.77 267.076,1203.76 270.809,1187.27 272.984,1211.3 275.431,1271.23 278.183,1301.3 281.279,1167.97 284.763,1139.87 288.682,1140.51 292.364,1232.29 296.507,1141.99 301.168,1159.65 302.1,1161.49 303.148,1232.47 304.328,1225.51 305.655,1186.44 307.148,1223.88 308.828,1153.12 310.718,1171.52 312.843,1164.3 315.235,1174.41 317.926,1287.61 320.952,1301.9 324.358,1249.7 328.189,1283.07 332.498,1302.83 334.991,1296.23 337.794,1243.71 340.948,1387.25 344.497,1254.11 346.439,1244.89 348.624,1335.59 351.082,1294.57 351.771,1296.4 352.547,1243.3 353.419,1230.21 354.401,1204.36 355.505,1220.91 356.747,1251.11 358.145,1146.53 359.717,1109.76 361.486,1210.87 363.476,1172.36 365.714,1178.81 368.233,1172.45 371.066,1135.06 374.253,1183.14 377.788,1294.81 381.765,1306.77 386.239,1214.61 391.169,1138.15 396.716,1140.03 398.064,1248.7 399.581,1239.51 401.288,1127.41 403.208,1137.8 405.186,1132.66 407.413,1097.32 409.917,1113.64 412.735,1257.47 415.904,1162.92 419.47,1233.23 421.886,1266.08 424.604,1390.96 427.662,1251.42 428.599,1223.56 429.654,1233.58 430.841,1244.89 432.176,1266.82 433.678,1310.18 435.367,1290.83 437.268,1271.37 439.406,1259.92 441.812,1214.17 444.518,1164.73 447.562,1206.81 449.858,1309.9 452.441,1389.34 455.346,1287.32 456.753,1289.97 458.336,1301.27 460.117,1258.8 462.121,1251.04 464.375,1261.48 466.911,1220.58 469.764,1299.83 472.973,1196.13 474.881,1215.93 477.027,1218.43 479.441,1234.44 482.157,1227.52 485.213,1245.32 488.65,1171.76 492.517,1220.29 493.816,1284.33 495.277,1298.24 496.921,1292.96 498.77,1216.06 500.851,1203.13 503.191,1324.69 505.824,1265.06 508.723,1291.41 511.983,1286.45 515.444,1329.57 519.337,1295.06 522.019,1211.58 525.037,1113.11 528.432,1169.44 529.937,1138.71 531.629,1294.08 533.533,1263.29 535.675,1249.44 538.085,1265.62 540.796,1302.03 543.845,1312.69 546.417,1272.86 549.31,1347.2 552.565,1192.27 554.566,1319.87 556.817,1256.9 559.349,1214.59 562.198,1185.79 565.403,1191.1 569.009,1334.7 573.066,1201.12 575.641,1145.59 578.538,1175.94 580.971,1192.71 583.709,1242.32 586.789,1238.82 590.253,1267.9 594.151,1141.83 597.018,1140.03 600.244,1163.58 603.873,1269.02 607.955,1231.12 612.548,1343.03 617.715,1282.46 618.748,1234.53 619.911,1239.26 621.219,1314.41 622.69,1261.01 624.345,1187.15 626.208,1282.8 628.302,1318.54 630.659,1213.12 633.311,1214.51 636.293,1191.02 639.649,1267.28 643.424,1254.72 647.671,1231.76 652.449,1186.16 657.824,1314.5 658.899,1339.56 660.109,1300.8 661.469,1367.29 663,1397.27 664.722,1300.06 666.659,1321.34 668.839,1364.89 671.29,1372.95 674.049,1254.11 677.152,1195.73 680.643,1177.52 684.57,1155.73 688.988,1177.17 693.17,1240.99 697.874,1235.26 703.166,1232.56 709.119,1196.03 715.817,1211.09 717.156,1240.31 718.663,1170.56 720.359,1180.21 722.266,1210.97 724.412,1124.75 726.826,1237.39 729.541,1281.25 732.596,1180.69 736.033,1226.53 739.9,1248.06 744.25,1209.31 749.143,1302.91 754.649,1312.82 757.035,1248.93 759.72,1231.3 762.74,1221.14 766.138,1258.39 769.96,1226.6 774.26,1272.09 779.098,1271.08 782.587,1192.69 786.513,1136.23 790.929,1190.64 793.368,1186.57 796.113,1141 799.201,1237.13 802.674,1335.19 806.582,1266.69 807.364,1294.1 808.243,1385.58 809.232,1297.81 810.345,1278.86 811.597,1215.9 813.005,1142.9 814.59,1114.82 816.372,1193.25 818.378,1176.43 820.634,1244.72 823.172,1230.69 826.027,1221.19 829.239,1226.1 832.853,1200.82 836.918,1254.13 840.052,1209.66 843.577,1262.38 847.543,1194.3 852.004,1173.47 857.023,1199.97 861.371,1217 866.263,1227.04 871.766,1177.33 877.957,1182.21 879.855,1200.51 881.991,1155.66 884.393,1192.4 887.096,1175.82 890.137,1235.99 893.557,1162.72 897.406,1153.09 900.067,1135.33 903.06,1190.42 906.428,1241.7 910.217,1304.32 914.479,1259.6 915.337,1223.05 916.302,1243.74 917.388,1216.15 918.609,1180.54 919.983,1241.02 921.529,1242.88 923.269,1275.82 925.225,1207.99 927.426,1169.5 929.903,1292.03 932.689,1290.45 935.823,1302.48 939.349,1286.17 943.315,1291.57 947.778,1228.81 952.798,1282.16 958.446,1316.45 959.779,1339.58 961.278,1350.47 962.965,1338.59 964.863,1299.31 966.998,1308.32 969.4,1314.77 972.102,1246.12 975.142,1200.15 978.561,1216.63 982.409,1250.57 986.737,1262.32 991.606,1207.91 997.084,1288.4 1003.25,1344.08 1006.41,1259.13 1009.97,1153.79 1013.97,1187.5 1016.17,1274.78 1018.65,1245.41 1021.44,1201.74 1024.57,1202.49 1027.97,1175.13 1031.79,1254.24 1035.8,1215.89 1040.32,1213.66 1045.4,1189.03 1051.11,1282.28 1054.97,1187.99 1059.31,1197.43 1064.2,1199.22 1069.69,1239.46 1075.87,1210.13 1082.83,1202.45 1085.93,1259.78 1089.42,1197.89 1093.35,1223.64 1097.76,1264.07 1102.73,1081.56 1106.31,1194.48 1108.2,1226.39 1110.33,1232.37 1112.72,1263.9 1115.41,1302.34 1118.44,1276.98 1121.22,1275.63 1124.35,1270.64 1127.87,1219.07 1131.83,1179.72 1136.28,1252.43 1139.33,1242.8 1142.76,1177.63 1146.62,1187.39 1148.05,1184.89 1149.66,1222.32 1151.47,1221.52 1153.5,1206.6 1155.79,1225.64 1158.37,1289.79 1161.27,1242.26 1162.9,1243.96 1164.73,1198.01 1166.8,1084.89 1168.21,1159.72 1169.8,1237.97 1171.58,1220.13 1173.59,1273.18 1175.85,1276.31 1178.39,1196.02 1181.25,1138.37 1184.47,1193.72 1186.99,1106.97 1189.82,1124.63 1193,1178.33 1196.58,1154.86 1200.61,1280.32 1204.7,1268.13 1209.29,1215.19 1214.46,1185.43 1220.27,1152.64 1225.26,1228.51 1230.37,1193.54 1236.11,1275.97 1237.76,1272.96 1239.61,1268.31 1241.69,1256.37 1244.03,1221.19 1246.66,1316.24 1249.62,1342.86 1251.17,1370.26 1252.91,1372.79 1254.88,1296.31 1257.08,1313.69 1259.56,1305.33 1262.36,1287.81 1265.5,1291.07 1269.03,1290 1273.01,1193.09 1277.48,1289.33 1282.51,1298.37 1287.99,1302.66 1292.95,1265.08 1298.54,1124.33 1302.81,1169.06 1305.38,1176.47 1308.27,1201.27 1311.52,1144.28 1315.17,1264.16 1317.4,1283.14 1319.91,1198.49 1322.73,1271.36 1325.91,1272.7 1329.48,1180.85 1333.5,1364.38 1337.27,1400.31 1341.5,1242.25 1343.5,1321.75 1345.75,1324.98 1348.28,1195.71 1351.13,1117.12 1354.33,1133.6 1356.24,1246.82 1358.39,1219.68 1360.81,1240.18 1363.52,1189.18 1366.58,1252.58 1368.35,1246.89 1370.33,1271.31 1372.57,1266.16 1375.08,1349.4 1377.9,1307.13 1379.13,1267.17 1380.52,1262.02 1382.08,1304.74 1383.83,1317.99 1385.8,1272.13 1388.02,1179.04 1390.52,1147.46 1393.33,1278.67 1396.48,1240.1 1400.04,1135.58 1404.04,1194.91 1404.84,1105.89 1405.73,1164.14 1406.75,1187.52 1407.89,1238.49 1409.17,1201.81 1410.61,1251.11 1412.23,1233.38 1414.05,1239.35 1416.1,1230.25 1418.41,1243.71 1421.01,1280.26 1423.93,1197.51 1426.39,1201.08 1429.16,1264.76 1432.27,1274.93 1435.78,1255.63 1439.72,1204.78 1444.16,1174.06 1449.14,1253.66 1452.58,1275.02 1456.44,1152.93 1460.78,1176.83 1463.74,1241.17 1467.08,1143.47 1470.83,1195.42 1472.6,1248.44 1474.6,1231.06 1476.84,1332.64 1479.37,1300.78 1480.6,1276.54 1481.98,1229.25 1483.54,1233.32 1485.29,1231.41 1487.26,1208.81 1489.47,1278.93 1491.96,1145.65 1494.77,1207.68 1497.32,1263.43 1500.2,1128.29 1503.43,1214.89 1505.25,1233.87 1507.31,1178.78 1509.62,1218.63 1510.35,1241.94 1511.18,1237.25 1512.12,1261.68 1513.17,1215.18 1514.35,1237.28 1515.67,1295.65 1517.17,1293.28 1518.85,1347.32 1520.74,1208.33 1522.86,1179.28 1525.26,1168.86 1527.95,1217.27 1530.98,1209.18 1534.38,1315.97 1538.22,1252.46 1540.37,1302.29 1542.79,1254.13 1544.61,1185.99 1546.65,1197.58 1548.95,1146.83 1551.54,1211.62 1554.46,1197.9 1557.73,1195.5 1561.42,1181.84 1565.57,1345.11 1570.14,1233.07 1572.66,1321.4 1575.49,1304.06 1576.6,1288.43 1577.85,1329.79 1579.26,1276.09 1580.84,1272.53 1582.61,1197.15 1584.61,1204.06 1586.86,1265.93 1589.39,1320.32 1592.24,1303.14 1593.95,1270.32 1595.86,1246.64 1598.02,1262.54 1600.45,1330.43 1603.18,1375.17 1604.53,1305.4 1606.06,1320.07 1607.77,1266.27 1609.69,1194.59 1611.86,1175.19 1614.3,1135.99 1617.04,1184.29 1620.12,1183.24 1623.59,1240.8 1627.49,1142.6 1631.88,1180.06 1632.76,1178.63 1633.75,1160.29 1634.86,1218.24 1636.11,1256.81 1637.52,1205.39 1639.1,1196.14 1640.88,1208.65 1642.89,1250.8 1645.14,1232.39 1647.67,1296.99 1650.53,1318.03 1651.56,1226.98 1652.72,1174.98 1654.03,1222.94 1655.5,1233 1657.15,1210.69 1659.01,1197.19 1661.11,1257.36 1663.46,1316.39 1666.11,1300.23 1667.65,1300.34 1669.39,1279.86 1671.34,1256.4 1673.53,1260.98 1676,1352 1678.77,1288.72 1679.74,1278.34 1680.82,1240.35 1682.04,1244.06 1683.41,1274.59 1684.95,1299.19 1686.68,1307.22 1688.64,1223.25 1690.83,1188.55 1693.3,1242.87 1696.08,1199.74 1699.2,1318.59 1701.19,1331.43 1703.42,1277.45 1705.93,1203.73 1708.76,1172.5 1711.94,1169.95 1715.51,1254.89 1719.54,1241.38 1724.06,1307.87 1729.15,1330.76 1730.17,1284.9 1731.32,1263.98 1732.61,1273.4 1734.06,1251.19 1735.69,1239.72 1737.52,1181.47 1739.59,1261.02 1741.14,1193.89 1742.89,1235.81 1744.86,1194.57 1747.07,1213.39 1749.28,1194.81 1751.76,1158.02 1754.55,1214.5 1757.68,1285.17 1761.21,1325.34 1765.04,1343.6 1767.96,1340.77 1771.26,1188.85 1774.96,1280.26 1779.13,1313.19 1783.82,1225.38 1787.25,1229.16 1791.11,1178.76 1795.45,1241.21 1796.84,1184.04 1798.41,1169.21 1800.17,1187.08 1802.16,1172.35 1804.39,1215.04 1806.9,1155.62 1809.72,1264.22 1811.79,1251.9 1814.11,1291.31 1816.72,1328.64 1819.02,1257.73 1821.6,1151.41 1824.5,1253.89 1826.3,1236.41 1828.31,1210.27 1830.58,1209.73 1833.13,1278.88 1836,1230.93 1839.22,1185.03 1842.85,1124.48 1844.29,1176.68 1845.9,1206.76 1847.71,1179.76 1849.74,1198.74 1852.04,1150.66 1854.61,1195.45 1857.51,1271.67 1860.78,1226.89 1864.45,1219.16 1868.58,1391.39 1870.53,1237.83 1872.72,1235.07 1875.19,1292.97 1877.97,1193.56 1879.54,1198.2 1881.32,1138.76 1883.31,1186.44 1885.55,1257.77 1888.07,1259.9 1890.91,1154.7 1894.1,1180.42 1896.31,1169.29 1898.79,1132.71 1901.59,1244.24 1904.73,1302.53 1908.27,1295.83 1911.46,1280.05 1915.05,1211.19 1919.09,1118.72 1923.63,1314.8 1924.91,1335.63 1926.35,1364.74 1927.97,1310.64 1929.79,1281.05 1931.83,1286.19 1934.14,1333.01 1936.73,1356.31 1938.89,1312.48 1941.32,1246.75 1944.06,1198.93 1947.14,1203.51 1950.28,1183.94 1953.81,1093.94 1957.78,1233.74 1959.68,1187.82 1961.83,1179.06 1963.49,1244.37 1965.36,1161.18 1967.46,1137.57 1968.8,1200.48 1970.3,1245.98 1972,1244.92 1973.9,1269.88 1976.04,1190.88 1978.45,1358.28 1981.17,1377.5 1983.5,1332.34 1986.12,1263.69 1989.08,1284.95 1992.4,1213.75 1996.14,1125.24 2000.34,1172.91 2001.57,1131.71 2002.96,1141.77 2004.52,1106.65 2006.28,1158.54 2008.25,1195.24 2010.48,1164.84 2012.98,1163.46 2015.79,1288.2 2018.95,1207.6 2022.51,1175.06 2026.52,1249.38 2030.28,1217.83 2034.51,1362.72 2039.26,1233.15 2040.3,1216 2041.46,1155.52 2042.77,1199.3 2044.24,1179.45 2045.89,1201.99 2047.76,1144.35 2049.85,1217.71 2052.21,1099.77 2054.86,1243.36 2056.31,1263.76 2057.95,1347.61 2059.79,1324.84 2061.17,1273.31 2062.73,1284.28 2064.48,1261.81 2066.45,1236.77 2068.67,1246.98 2071.16,1284 2073.97,1289.6 2077.13,1190.36 2080.68,1220.56 2084.68,1318.2 2089.17,1173.6 2091.38,1194.53 2093.87,1268.97 2096.67,1315.87 2099.82,1257.25 2102.61,1270.37 2105.75,1273.66 2109.29,1149.25 2113.26,1213.42 2115.66,1173.58 2118.36,1169.86 2121.39,1074.41 2124.8,1139.46 2126.84,1171.96 2129.12,1113.1 2131.7,1199.89 2134.59,1187.78 2137.85,1171.61 2141.52,1223.39 2145.64,1151.68 2150.28,1226.16 2152.24,1227.14 2154.44,1221.07 2156.91,1246.52 2159.7,1190.23 2162.84,1288.34 2165.35,1297.57 2168.19,1266.72 2171.38,1197.57 2174.96,1244.13 2179,1213.64 2183.54,1197.5 2188.65,1344.52 2191.75,1310.06 2195.24,1104.38 2199.17,1276.44 2201.41,1264.57 2203.93,1168.2 2206.77,1206.81 2209.53,1228.81 2212.63,1243.82 2216.11,1162.64 2220.03,1193.53 2221.1,1191.94 2222.31,1203.42 2223.66,1229.13 2225.19,1220.6 2226.91,1255.25 2228.84,1256.71 2231.01,1228.58 2233.45,1196.06 2236.2,1202.32 2239.16,1242.16 2242.49,1218.12 2246.23,1236.18 2250.44,1154.34 2255.18,1215.3 2256.24,1248.01 2257.43,1261.21 2258.78,1227.72 2260.29,1330.89 2261.99,1343.76 2263.9,1294.36 2266.06,1233.84 2268.48,1171.64 2271.2,1304.22 2272.61,1274.89 2274.2,1302.1 2275.98,1207.53 2277.98,1249.98 2280.24,1187.71 2282.78,1222.43 2285.63,1211.91 2288.84,1215.82 2292.46,1290 2296.52,1279.18 2299.48,1278.48 2302.81,1223.04 2306.55,1280.25 2310.76,1384.2 2314.2,1298.01 2316.03,1230.21 2318.09,1280.24 2320.4,1260.66 2323.01,1315.18 2325.94,1239.36 2328.46,1251.8 2331.29,1181.98 2334.48,1212.98 2338.06,1165.55 2342.1,1258.47 2345.24,1277.43 2348.77,1195.84 2352.74,1149.01 2357.22,1229.24 2360.08,1223.65 2363.3,1307.52 2366.92,1326.09 2368.86,1244.06 2371.04,1238.74 2373.5,1203.31 2376.25,1256.32 2378.84,1203.66 2381.76,1222.7 2385.04,1201.68 2388.72,1218.6 2392.68,1162.74 2397.12,1211.74 2398.76,1179.6 2400.59,1143.46 2402.66,1227.46 2404.98,1136.83 2407.6,1167.47 2409.14,1250.34 2410.89,1175.51 2412.85,1164.98 2414.53,1172.27 2416.42,1150.81 2418.55,1113.93 2420.94,1110.61 2423.63,1117.15 2426.66,1261.5 2430.07,1238.76 2433.91,1269.6 2438.22,1176.37 2440.09,1210.63 2442.18,1235.53 2444.54,1249.88 2447.19,1122.7 2450.17,1096.54 2452.2,1077.47 2454.47,1106.51 2457.03,1145.82 2459.9,1173.04 2463.14,1122.68 2466.78,1213.04 2469.91,1178.83 2473.42,1262.19 2477.38,1295.9 2481.83,1290.94 2484.74,1253.53 2488.01,1178.5 2491.69,1247.23 2494.49,1285.81 2497.64,1252.9 2500.02,1286.38 2502.69,1323.09 2505.58,1275.09 2508.84,1265.38 2512.5,1319.36 2516.63,1206.32 2519.15,1115.52 2521.99,1170.29 2525.18,1172.47 2528.78,1229.8 2532.82,1236.03 2537.37,1198.28 2542.48,1201.52 2543.95,1252.34 2545.6,1178.59 2547.45,1245.89 2549.54,1175.84 2551.88,1196.04 2553.74,1180.22 2555.82,1303.16 2558.16,1299.65 2560.8,1157.67 2563.77,1207.61 2567.1,1264.72 2570.86,1309.8 2575.08,1171.64 2578.23,1206.2 2581.77,1273.21 2585.75,1296.18 2590.23,1247.98 2594.51,1160.35 2599.31,1202.96 2600.63,1274.25 2602.11,1279.82 2603.78,1263.85 2605.66,1321.22 2607.77,1279.91 2610.14,1267.71 2612.81,1312.43 2615.81,1228.47 2618.41,1250.44 2621.34,1244.54 2624.63,1131.98 2628.33,1230.51 2629.65,1193.11 2631.13,1199.51 2632.79,1147.25 2634.67,1154.65 2636.78,1179.38 2639.15,1166.84 2641.82,1234.81 2644.82,1170.99 2648.2,1294.65 2649.44,1215.19 2650.83,1217.38 2652.4,1261.89 2654.16,1187.62 2656.14,1221.59 2658.37,1200.01 2660.88,1066.35 2663.7,1188.11 2665.55,1193.07 2667.64,1165.82 2669.98,1213.14 2672.61,1246.51 2675.57,1246.45 2678.91,1175.18 2682.66,1251.87 2685.6,1101 2688.9,1195.36 2690.98,1303.77 2693.32,1320.92 2695.95,1302.29 2698.9,1246.01 2702.23,1261.08 2705.97,1239.87 2710.18,1262.61 2714.92,1289.09 2717.46,1199.31 2720.33,1222.64 2723.55,1197.83 2727.17,1103.29 2729.86,1156.85 2732.89,1202.02 2736.3,1150.51 2740.13,1164.53 2743.05,1174.6 2746.33,1176.09 2750.03,1285.74 2754.18,1329.56 2758.86,1315.8 2761.36,1323.64 2764.18,1228.9 2767.35,1225.53 2770.91,1256.43 2774.92,1235.37 2779.43,1248.2 2784.51,1184.31 2790.22,1168.17 2792.65,1130.05 2795.38,1165.01 2798.45,1159.74 2801.9,1357.38 2805.79,1293.98 2808.64,1233.67 2811.85,1243.66 2815.46,1195.54 2819.52,1229.58 2821.82,1235.37 2824.41,1175.03 2827.32,1268.78 2828.23,1228.89 2829.25,1236.21 2830.4,1210.21 2831.7,1281.16 2833.15,1348.94 2834.79,1302.65 2836.64,1290.43 2838.71,1202.16 2841.05,1219.37 2843.68,1235.06 2846.63,1224.11 2849.96,1102.59 2851.1,1133.27 2852.39,1182.55 2853.84,1252.11 2855.46,1280.85 2857.3,1217.13 2859.36,1217.38 2861.68,1170.81 2864.29,1176.69 2866.58,1176.94 2869.16,1218.4 2872.05,1177.99 2875.32,1257.38 2878.06,1218.91 2881.15,1241.95 2884.62,1160.48 2888.53,1189.02 2890.26,1163.37 2892.2,1163.52 2894.38,1238.03 2896.84,1265.15 2899.61,1233.79 2902.72,1225.2 2906.21,1281.95 2910.15,1324.36 2912.92,1205.59 2916.04,1158.77 2919.54,1214.32 2922.48,1208.7 2925.78,1206.46 2929.49,1309.51 2933.67,1324.14 2936.03,1317.42 2938.68,1304.36 2941.67,1214.6 2945.03,1199.07 2948.81,1232.48 2953.06,1190.85 2957.84,1189.46 2959.1,1188.82 2960.51,1197.97 2962.11,1242.92 2963.9,1210.1 2965.92,1221.52 2968.19,1293.49 2970.74,1263.87 2973.61,1196.22 2976.85,1210.55 2980.48,1217.66 2984.57,1304.03 2989.17,1168.91 2991.43,1231.29 2993.98,1176.35 2996.84,1260.99 2998.26,1265.38 2999.86,1267.97 3001.66,1300 3003.69,1228.8 3005.97,1154.34 3008.53,1265.87 3011.41,1338.43 3014.66,1385.24 3016.24,1404.18 3018.02,1325.89 3020.02,1286.82 3022.27,1204.77 3024.8,1222.47 3027.65,1209.93 3030.86,1273.85 3034.46,1273.06 3038.52,1170.54 3043.08,1211.35 3046.53,1175.36 3050.41,1189.73 3053.49,1164.05 3056.96,1141.38 3060.87,1280.01 3064.79,1173.47 3069.19,1167.59 3073.62,1209.61 3078.6,1209.19 3084.2,1132.74 3088.92,1177.58 3091.42,1218.71 3094.24,1195.72 3097.41,1237.6 3100.98,1293.78 3104.99,1281.78 3107.37,1236.81 3110.04,1252.3 3113.05,1310.77 3116.44,1218.73 3117.94,1201.03 3119.62,1197.65 3121.52,1255.56 3123.65,1275.67 3126.05,1257.6 3128.75,1263.11 3131.79,1259.29 3135.21,1205.46 3139.05,1236.96 3143.37,1365.72 3147.66,1322.57 3148.52,1298.7 3149.48,1321.61 3150.57,1253.31 3151.79,1204.85 3152.76,1251.13 "/>
<path clip-path="url(#clip230)" d="M2699.38 249.313 L3053.63 249.313 L3053.63 93.7926 L2699.38 93.7926  Z" fill="#ffffff" fill-rule="evenodd" fill-opacity="1"/>
<polyline clip-path="url(#clip230)" style="stroke:#000000; stroke-linecap:round; stroke-linejoin:round; stroke-width:4; stroke-opacity:1; fill:none" points="2699.38,249.313 3053.63,249.313 3053.63,93.7926 2699.38,93.7926 2699.38,249.313 "/>
<polyline clip-path="url(#clip230)" style="stroke:#009af9; stroke-linecap:round; stroke-linejoin:round; stroke-width:8; stroke-opacity:1; fill:none" points="2732.43,145.633 2930.69,145.633 "/>
<path clip-path="url(#clip230)" d="M2965.31 128.353 L2970.33 128.353 L2978.92 141.2 L2987.55 128.353 L2992.57 128.353 L2981.46 144.95 L2993.31 162.913 L2988.29 162.913 L2978.57 148.214 L2968.78 162.913 L2963.73 162.913 L2976.07 144.464 L2965.31 128.353 Z" fill="#000000" fill-rule="nonzero" fill-opacity="1" /><path clip-path="url(#clip230)" d="M3000.68 158.977 L3008.31 158.977 L3008.31 132.612 L3000 134.279 L3000 130.019 L3008.27 128.353 L3012.94 128.353 L3012.94 158.977 L3020.58 158.977 L3020.58 162.913 L3000.68 162.913 L3000.68 158.977 Z" fill="#000000" fill-rule="nonzero" fill-opacity="1" /><polyline clip-path="url(#clip230)" style="stroke:#e26f46; stroke-linecap:round; stroke-linejoin:round; stroke-width:8; stroke-opacity:1; fill:none" points="2732.43,197.473 2930.69,197.473 "/>
<path clip-path="url(#clip230)" d="M2965.31 180.193 L2970.33 180.193 L2978.92 193.04 L2987.55 180.193 L2992.57 180.193 L2981.46 196.79 L2993.31 214.753 L2988.29 214.753 L2978.57 200.054 L2968.78 214.753 L2963.73 214.753 L2976.07 196.304 L2965.31 180.193 Z" fill="#000000" fill-rule="nonzero" fill-opacity="1" /><path clip-path="url(#clip230)" d="M3003.89 210.817 L3020.21 210.817 L3020.21 214.753 L2998.27 214.753 L2998.27 210.817 Q3000.93 208.063 3005.51 203.433 Q3010.12 198.78 3011.3 197.438 Q3013.55 194.915 3014.43 193.179 Q3015.33 191.419 3015.33 189.73 Q3015.33 186.975 3013.38 185.239 Q3011.46 183.503 3008.36 183.503 Q3006.16 183.503 3003.71 184.267 Q3001.28 185.031 2998.5 186.581 L2998.5 181.859 Q3001.32 180.725 3003.78 180.146 Q3006.23 179.568 3008.27 179.568 Q3013.64 179.568 3016.83 182.253 Q3020.03 184.938 3020.03 189.429 Q3020.03 191.558 3019.22 193.48 Q3018.43 195.378 3016.32 197.97 Q3015.74 198.642 3012.64 201.859 Q3009.54 205.054 3003.89 210.817 Z" fill="#000000" fill-rule="nonzero" fill-opacity="1" /></svg>
