<?xml version="1.0" encoding="utf-8"?>
<svg xmlns="http://www.w3.org/2000/svg" xmlns:xlink="http://www.w3.org/1999/xlink" width="600" height="400" viewBox="0 0 2400 1600">
<defs>
  <clipPath id="clip270">
    <rect x="0" y="0" width="2400" height="1600"/>
  </clipPath>
</defs>
<path clip-path="url(#clip270)" d="M0 1600 L2400 1600 L2400 0 L0 0  Z" fill="#ffffff" fill-rule="evenodd" fill-opacity="1"/>
<defs>
  <clipPath id="clip271">
    <rect x="186" y="47" width="2167" height="1377"/>
  </clipPath>
</defs>
<path clip-path="url(#clip270)" d="M186.274 1423.18 L2352.76 1423.18 L2352.76 47.2441 L186.274 47.2441  Z" fill="#ffffff" fill-rule="evenodd" fill-opacity="1"/>
<polyline clip-path="url(#clip271)" style="stroke:#000000; stroke-linecap:round; stroke-linejoin:round; stroke-width:2; stroke-opacity:0.1; fill:none" points="186.274,1423.18 186.274,47.2441 "/>
<polyline clip-path="url(#clip271)" style="stroke:#000000; stroke-linecap:round; stroke-linejoin:round; stroke-width:2; stroke-opacity:0.1; fill:none" points="619.57,1423.18 619.57,47.2441 "/>
<polyline clip-path="url(#clip271)" style="stroke:#000000; stroke-linecap:round; stroke-linejoin:round; stroke-width:2; stroke-opacity:0.1; fill:none" points="1052.87,1423.18 1052.87,47.2441 "/>
<polyline clip-path="url(#clip271)" style="stroke:#000000; stroke-linecap:round; stroke-linejoin:round; stroke-width:2; stroke-opacity:0.1; fill:none" points="1486.16,1423.18 1486.16,47.2441 "/>
<polyline clip-path="url(#clip271)" style="stroke:#000000; stroke-linecap:round; stroke-linejoin:round; stroke-width:2; stroke-opacity:0.1; fill:none" points="1919.46,1423.18 1919.46,47.2441 "/>
<polyline clip-path="url(#clip271)" style="stroke:#000000; stroke-linecap:round; stroke-linejoin:round; stroke-width:2; stroke-opacity:0.1; fill:none" points="2352.76,1423.18 2352.76,47.2441 "/>
<polyline clip-path="url(#clip271)" style="stroke:#000000; stroke-linecap:round; stroke-linejoin:round; stroke-width:2; stroke-opacity:0.1; fill:none" points="186.274,1269.48 2352.76,1269.48 "/>
<polyline clip-path="url(#clip271)" style="stroke:#000000; stroke-linecap:round; stroke-linejoin:round; stroke-width:2; stroke-opacity:0.1; fill:none" points="186.274,1078.22 2352.76,1078.22 "/>
<polyline clip-path="url(#clip271)" style="stroke:#000000; stroke-linecap:round; stroke-linejoin:round; stroke-width:2; stroke-opacity:0.1; fill:none" points="186.274,886.952 2352.76,886.952 "/>
<polyline clip-path="url(#clip271)" style="stroke:#000000; stroke-linecap:round; stroke-linejoin:round; stroke-width:2; stroke-opacity:0.1; fill:none" points="186.274,695.688 2352.76,695.688 "/>
<polyline clip-path="url(#clip271)" style="stroke:#000000; stroke-linecap:round; stroke-linejoin:round; stroke-width:2; stroke-opacity:0.1; fill:none" points="186.274,504.425 2352.76,504.425 "/>
<polyline clip-path="url(#clip271)" style="stroke:#000000; stroke-linecap:round; stroke-linejoin:round; stroke-width:2; stroke-opacity:0.1; fill:none" points="186.274,313.161 2352.76,313.161 "/>
<polyline clip-path="url(#clip271)" style="stroke:#000000; stroke-linecap:round; stroke-linejoin:round; stroke-width:2; stroke-opacity:0.1; fill:none" points="186.274,121.897 2352.76,121.897 "/>
<polyline clip-path="url(#clip270)" style="stroke:#000000; stroke-linecap:round; stroke-linejoin:round; stroke-width:4; stroke-opacity:1; fill:none" points="186.274,1423.18 2352.76,1423.18 "/>
<polyline clip-path="url(#clip270)" style="stroke:#000000; stroke-linecap:round; stroke-linejoin:round; stroke-width:4; stroke-opacity:1; fill:none" points="186.274,1423.18 186.274,1404.28 "/>
<polyline clip-path="url(#clip270)" style="stroke:#000000; stroke-linecap:round; stroke-linejoin:round; stroke-width:4; stroke-opacity:1; fill:none" points="619.57,1423.18 619.57,1404.28 "/>
<polyline clip-path="url(#clip270)" style="stroke:#000000; stroke-linecap:round; stroke-linejoin:round; stroke-width:4; stroke-opacity:1; fill:none" points="1052.87,1423.18 1052.87,1404.28 "/>
<polyline clip-path="url(#clip270)" style="stroke:#000000; stroke-linecap:round; stroke-linejoin:round; stroke-width:4; stroke-opacity:1; fill:none" points="1486.16,1423.18 1486.16,1404.28 "/>
<polyline clip-path="url(#clip270)" style="stroke:#000000; stroke-linecap:round; stroke-linejoin:round; stroke-width:4; stroke-opacity:1; fill:none" points="1919.46,1423.18 1919.46,1404.28 "/>
<polyline clip-path="url(#clip270)" style="stroke:#000000; stroke-linecap:round; stroke-linejoin:round; stroke-width:4; stroke-opacity:1; fill:none" points="2352.76,1423.18 2352.76,1404.28 "/>
<path clip-path="url(#clip270)" d="M186.274 1454.1 Q182.663 1454.1 180.834 1457.66 Q179.029 1461.2 179.029 1468.33 Q179.029 1475.44 180.834 1479.01 Q182.663 1482.55 186.274 1482.55 Q189.908 1482.55 191.714 1479.01 Q193.542 1475.44 193.542 1468.33 Q193.542 1461.2 191.714 1457.66 Q189.908 1454.1 186.274 1454.1 M186.274 1450.39 Q192.084 1450.39 195.14 1455 Q198.218 1459.58 198.218 1468.33 Q198.218 1477.06 195.14 1481.67 Q192.084 1486.25 186.274 1486.25 Q180.464 1486.25 177.385 1481.67 Q174.33 1477.06 174.33 1468.33 Q174.33 1459.58 177.385 1455 Q180.464 1450.39 186.274 1450.39 Z" fill="#000000" fill-rule="nonzero" fill-opacity="1" /><path clip-path="url(#clip270)" d="M594.258 1481.64 L601.897 1481.64 L601.897 1455.28 L593.587 1456.95 L593.587 1452.69 L601.851 1451.02 L606.526 1451.02 L606.526 1481.64 L614.165 1481.64 L614.165 1485.58 L594.258 1485.58 L594.258 1481.64 Z" fill="#000000" fill-rule="nonzero" fill-opacity="1" /><path clip-path="url(#clip270)" d="M633.61 1454.1 Q629.999 1454.1 628.17 1457.66 Q626.364 1461.2 626.364 1468.33 Q626.364 1475.44 628.17 1479.01 Q629.999 1482.55 633.61 1482.55 Q637.244 1482.55 639.049 1479.01 Q640.878 1475.44 640.878 1468.33 Q640.878 1461.2 639.049 1457.66 Q637.244 1454.1 633.61 1454.1 M633.61 1450.39 Q639.42 1450.39 642.475 1455 Q645.554 1459.58 645.554 1468.33 Q645.554 1477.06 642.475 1481.67 Q639.42 1486.25 633.61 1486.25 Q627.8 1486.25 624.721 1481.67 Q621.665 1477.06 621.665 1468.33 Q621.665 1459.58 624.721 1455 Q627.8 1450.39 633.61 1450.39 Z" fill="#000000" fill-rule="nonzero" fill-opacity="1" /><path clip-path="url(#clip270)" d="M1031.64 1481.64 L1047.96 1481.64 L1047.96 1485.58 L1026.02 1485.58 L1026.02 1481.64 Q1028.68 1478.89 1033.26 1474.26 Q1037.87 1469.61 1039.05 1468.27 Q1041.29 1465.74 1042.17 1464.01 Q1043.08 1462.25 1043.08 1460.56 Q1043.08 1457.8 1041.13 1456.07 Q1039.21 1454.33 1036.11 1454.33 Q1033.91 1454.33 1031.45 1455.09 Q1029.02 1455.86 1026.25 1457.41 L1026.25 1452.69 Q1029.07 1451.55 1031.52 1450.97 Q1033.98 1450.39 1036.02 1450.39 Q1041.39 1450.39 1044.58 1453.08 Q1047.77 1455.77 1047.77 1460.26 Q1047.77 1462.39 1046.96 1464.31 Q1046.18 1466.2 1044.07 1468.8 Q1043.49 1469.47 1040.39 1472.69 Q1037.29 1475.88 1031.64 1481.64 Z" fill="#000000" fill-rule="nonzero" fill-opacity="1" /><path clip-path="url(#clip270)" d="M1067.77 1454.1 Q1064.16 1454.1 1062.33 1457.66 Q1060.53 1461.2 1060.53 1468.33 Q1060.53 1475.44 1062.33 1479.01 Q1064.16 1482.55 1067.77 1482.55 Q1071.41 1482.55 1073.21 1479.01 Q1075.04 1475.44 1075.04 1468.33 Q1075.04 1461.2 1073.21 1457.66 Q1071.41 1454.1 1067.77 1454.1 M1067.77 1450.39 Q1073.58 1450.39 1076.64 1455 Q1079.72 1459.58 1079.72 1468.33 Q1079.72 1477.06 1076.64 1481.67 Q1073.58 1486.25 1067.77 1486.25 Q1061.96 1486.25 1058.89 1481.67 Q1055.83 1477.06 1055.83 1468.33 Q1055.83 1459.58 1058.89 1455 Q1061.96 1450.39 1067.77 1450.39 Z" fill="#000000" fill-rule="nonzero" fill-opacity="1" /><path clip-path="url(#clip270)" d="M1475.01 1466.95 Q1478.36 1467.66 1480.24 1469.93 Q1482.14 1472.2 1482.14 1475.53 Q1482.14 1480.65 1478.62 1483.45 Q1475.1 1486.25 1468.62 1486.25 Q1466.44 1486.25 1464.13 1485.81 Q1461.83 1485.39 1459.38 1484.54 L1459.38 1480.02 Q1461.33 1481.16 1463.64 1481.74 Q1465.95 1482.32 1468.48 1482.32 Q1472.88 1482.32 1475.17 1480.58 Q1477.48 1478.84 1477.48 1475.53 Q1477.48 1472.48 1475.33 1470.77 Q1473.2 1469.03 1469.38 1469.03 L1465.35 1469.03 L1465.35 1465.19 L1469.57 1465.19 Q1473.02 1465.19 1474.84 1463.82 Q1476.67 1462.43 1476.67 1459.84 Q1476.67 1457.18 1474.77 1455.77 Q1472.9 1454.33 1469.38 1454.33 Q1467.46 1454.33 1465.26 1454.75 Q1463.06 1455.16 1460.42 1456.04 L1460.42 1451.88 Q1463.08 1451.14 1465.4 1450.77 Q1467.74 1450.39 1469.8 1450.39 Q1475.12 1450.39 1478.22 1452.83 Q1481.33 1455.23 1481.33 1459.35 Q1481.33 1462.22 1479.68 1464.21 Q1478.04 1466.18 1475.01 1466.95 Z" fill="#000000" fill-rule="nonzero" fill-opacity="1" /><path clip-path="url(#clip270)" d="M1501 1454.1 Q1497.39 1454.1 1495.56 1457.66 Q1493.76 1461.2 1493.76 1468.33 Q1493.76 1475.44 1495.56 1479.01 Q1497.39 1482.55 1501 1482.55 Q1504.64 1482.55 1506.44 1479.01 Q1508.27 1475.44 1508.27 1468.33 Q1508.27 1461.2 1506.44 1457.66 Q1504.64 1454.1 1501 1454.1 M1501 1450.39 Q1506.81 1450.39 1509.87 1455 Q1512.95 1459.58 1512.95 1468.33 Q1512.95 1477.06 1509.87 1481.67 Q1506.81 1486.25 1501 1486.25 Q1495.19 1486.25 1492.11 1481.67 Q1489.06 1477.06 1489.06 1468.33 Q1489.06 1459.58 1492.11 1455 Q1495.19 1450.39 1501 1450.39 Z" fill="#000000" fill-rule="nonzero" fill-opacity="1" /><path clip-path="url(#clip270)" d="M1907.63 1455.09 L1895.83 1473.54 L1907.63 1473.54 L1907.63 1455.09 M1906.4 1451.02 L1912.28 1451.02 L1912.28 1473.54 L1917.21 1473.54 L1917.21 1477.43 L1912.28 1477.43 L1912.28 1485.58 L1907.63 1485.58 L1907.63 1477.43 L1892.03 1477.43 L1892.03 1472.92 L1906.4 1451.02 Z" fill="#000000" fill-rule="nonzero" fill-opacity="1" /><path clip-path="url(#clip270)" d="M1934.95 1454.1 Q1931.33 1454.1 1929.51 1457.66 Q1927.7 1461.2 1927.7 1468.33 Q1927.7 1475.44 1929.51 1479.01 Q1931.33 1482.55 1934.95 1482.55 Q1938.58 1482.55 1940.39 1479.01 Q1942.21 1475.44 1942.21 1468.33 Q1942.21 1461.2 1940.39 1457.66 Q1938.58 1454.1 1934.95 1454.1 M1934.95 1450.39 Q1940.76 1450.39 1943.81 1455 Q1946.89 1459.58 1946.89 1468.33 Q1946.89 1477.06 1943.81 1481.67 Q1940.76 1486.25 1934.95 1486.25 Q1929.14 1486.25 1926.06 1481.67 Q1923 1477.06 1923 1468.33 Q1923 1459.58 1926.06 1455 Q1929.14 1450.39 1934.95 1450.39 Z" fill="#000000" fill-rule="nonzero" fill-opacity="1" /><path clip-path="url(#clip270)" d="M2327.46 1451.02 L2345.81 1451.02 L2345.81 1454.96 L2331.74 1454.96 L2331.74 1463.43 Q2332.76 1463.08 2333.77 1462.92 Q2334.79 1462.73 2335.81 1462.73 Q2341.6 1462.73 2344.98 1465.9 Q2348.36 1469.08 2348.36 1474.49 Q2348.36 1480.07 2344.89 1483.17 Q2341.41 1486.25 2335.09 1486.25 Q2332.92 1486.25 2330.65 1485.88 Q2328.4 1485.51 2326 1484.77 L2326 1480.07 Q2328.08 1481.2 2330.3 1481.76 Q2332.52 1482.32 2335 1482.32 Q2339.01 1482.32 2341.34 1480.21 Q2343.68 1478.1 2343.68 1474.49 Q2343.68 1470.88 2341.34 1468.77 Q2339.01 1466.67 2335 1466.67 Q2333.13 1466.67 2331.25 1467.08 Q2329.4 1467.5 2327.46 1468.38 L2327.46 1451.02 Z" fill="#000000" fill-rule="nonzero" fill-opacity="1" /><path clip-path="url(#clip270)" d="M2367.57 1454.1 Q2363.96 1454.1 2362.13 1457.66 Q2360.33 1461.2 2360.33 1468.33 Q2360.33 1475.44 2362.13 1479.01 Q2363.96 1482.55 2367.57 1482.55 Q2371.2 1482.55 2373.01 1479.01 Q2374.84 1475.44 2374.84 1468.33 Q2374.84 1461.2 2373.01 1457.66 Q2371.2 1454.1 2367.57 1454.1 M2367.57 1450.39 Q2373.38 1450.39 2376.44 1455 Q2379.52 1459.58 2379.52 1468.33 Q2379.52 1477.06 2376.44 1481.67 Q2373.38 1486.25 2367.57 1486.25 Q2361.76 1486.25 2358.68 1481.67 Q2355.63 1477.06 2355.63 1468.33 Q2355.63 1459.58 2358.68 1455 Q2361.76 1450.39 2367.57 1450.39 Z" fill="#000000" fill-rule="nonzero" fill-opacity="1" /><path clip-path="url(#clip270)" d="M1268.58 1522.27 L1268.58 1532.4 L1280.64 1532.4 L1280.64 1536.95 L1268.58 1536.95 L1268.58 1556.3 Q1268.58 1560.66 1269.75 1561.9 Q1270.96 1563.14 1274.62 1563.14 L1280.64 1563.14 L1280.64 1568.04 L1274.62 1568.04 Q1267.84 1568.04 1265.27 1565.53 Q1262.69 1562.98 1262.69 1556.3 L1262.69 1536.95 L1258.39 1536.95 L1258.39 1532.4 L1262.69 1532.4 L1262.69 1522.27 L1268.58 1522.27 Z" fill="#000000" fill-rule="nonzero" fill-opacity="1" /><polyline clip-path="url(#clip270)" style="stroke:#000000; stroke-linecap:round; stroke-linejoin:round; stroke-width:4; stroke-opacity:1; fill:none" points="186.274,1423.18 186.274,47.2441 "/>
<polyline clip-path="url(#clip270)" style="stroke:#000000; stroke-linecap:round; stroke-linejoin:round; stroke-width:4; stroke-opacity:1; fill:none" points="186.274,1269.48 205.172,1269.48 "/>
<polyline clip-path="url(#clip270)" style="stroke:#000000; stroke-linecap:round; stroke-linejoin:round; stroke-width:4; stroke-opacity:1; fill:none" points="186.274,1078.22 205.172,1078.22 "/>
<polyline clip-path="url(#clip270)" style="stroke:#000000; stroke-linecap:round; stroke-linejoin:round; stroke-width:4; stroke-opacity:1; fill:none" points="186.274,886.952 205.172,886.952 "/>
<polyline clip-path="url(#clip270)" style="stroke:#000000; stroke-linecap:round; stroke-linejoin:round; stroke-width:4; stroke-opacity:1; fill:none" points="186.274,695.688 205.172,695.688 "/>
<polyline clip-path="url(#clip270)" style="stroke:#000000; stroke-linecap:round; stroke-linejoin:round; stroke-width:4; stroke-opacity:1; fill:none" points="186.274,504.425 205.172,504.425 "/>
<polyline clip-path="url(#clip270)" style="stroke:#000000; stroke-linecap:round; stroke-linejoin:round; stroke-width:4; stroke-opacity:1; fill:none" points="186.274,313.161 205.172,313.161 "/>
<polyline clip-path="url(#clip270)" style="stroke:#000000; stroke-linecap:round; stroke-linejoin:round; stroke-width:4; stroke-opacity:1; fill:none" points="186.274,121.897 205.172,121.897 "/>
<path clip-path="url(#clip270)" d="M63.9319 1255.28 Q60.3208 1255.28 58.4921 1258.84 Q56.6865 1262.39 56.6865 1269.51 Q56.6865 1276.62 58.4921 1280.19 Q60.3208 1283.73 63.9319 1283.73 Q67.5661 1283.73 69.3717 1280.19 Q71.2004 1276.62 71.2004 1269.51 Q71.2004 1262.39 69.3717 1258.84 Q67.5661 1255.28 63.9319 1255.28 M63.9319 1251.57 Q69.742 1251.57 72.7976 1256.18 Q75.8763 1260.76 75.8763 1269.51 Q75.8763 1278.24 72.7976 1282.85 Q69.742 1287.43 63.9319 1287.43 Q58.1217 1287.43 55.043 1282.85 Q51.9875 1278.24 51.9875 1269.51 Q51.9875 1260.76 55.043 1256.18 Q58.1217 1251.57 63.9319 1251.57 Z" fill="#000000" fill-rule="nonzero" fill-opacity="1" /><path clip-path="url(#clip270)" d="M84.0938 1280.88 L88.978 1280.88 L88.978 1286.76 L84.0938 1286.76 L84.0938 1280.88 Z" fill="#000000" fill-rule="nonzero" fill-opacity="1" /><path clip-path="url(#clip270)" d="M103.191 1282.82 L119.51 1282.82 L119.51 1286.76 L97.566 1286.76 L97.566 1282.82 Q100.228 1280.07 104.811 1275.44 Q109.418 1270.79 110.598 1269.45 Q112.844 1266.92 113.723 1265.19 Q114.626 1263.43 114.626 1261.74 Q114.626 1258.98 112.682 1257.25 Q110.76 1255.51 107.658 1255.51 Q105.459 1255.51 103.006 1256.27 Q100.575 1257.04 97.7974 1258.59 L97.7974 1253.87 Q100.621 1252.73 103.075 1252.15 Q105.529 1251.57 107.566 1251.57 Q112.936 1251.57 116.131 1254.26 Q119.325 1256.95 119.325 1261.44 Q119.325 1263.57 118.515 1265.49 Q117.728 1267.39 115.621 1269.98 Q115.043 1270.65 111.941 1273.87 Q108.839 1277.06 103.191 1282.82 Z" fill="#000000" fill-rule="nonzero" fill-opacity="1" /><path clip-path="url(#clip270)" d="M129.371 1252.2 L147.728 1252.2 L147.728 1256.14 L133.654 1256.14 L133.654 1264.61 Q134.672 1264.26 135.691 1264.1 Q136.709 1263.91 137.728 1263.91 Q143.515 1263.91 146.894 1267.08 Q150.274 1270.26 150.274 1275.67 Q150.274 1281.25 146.802 1284.35 Q143.33 1287.43 137.01 1287.43 Q134.834 1287.43 132.566 1287.06 Q130.32 1286.69 127.913 1285.95 L127.913 1281.25 Q129.996 1282.38 132.219 1282.94 Q134.441 1283.5 136.918 1283.5 Q140.922 1283.5 143.26 1281.39 Q145.598 1279.28 145.598 1275.67 Q145.598 1272.06 143.26 1269.95 Q140.922 1267.85 136.918 1267.85 Q135.043 1267.85 133.168 1268.26 Q131.316 1268.68 129.371 1269.56 L129.371 1252.2 Z" fill="#000000" fill-rule="nonzero" fill-opacity="1" /><path clip-path="url(#clip270)" d="M62.9365 1064.01 Q59.3254 1064.01 57.4967 1067.58 Q55.6912 1071.12 55.6912 1078.25 Q55.6912 1085.36 57.4967 1088.92 Q59.3254 1092.46 62.9365 1092.46 Q66.5707 1092.46 68.3763 1088.92 Q70.205 1085.36 70.205 1078.25 Q70.205 1071.12 68.3763 1067.58 Q66.5707 1064.01 62.9365 1064.01 M62.9365 1060.31 Q68.7467 1060.31 71.8022 1064.92 Q74.8809 1069.5 74.8809 1078.25 Q74.8809 1086.98 71.8022 1091.58 Q68.7467 1096.17 62.9365 1096.17 Q57.1264 1096.17 54.0477 1091.58 Q50.9921 1086.98 50.9921 1078.25 Q50.9921 1069.5 54.0477 1064.92 Q57.1264 1060.31 62.9365 1060.31 Z" fill="#000000" fill-rule="nonzero" fill-opacity="1" /><path clip-path="url(#clip270)" d="M83.0984 1089.62 L87.9827 1089.62 L87.9827 1095.5 L83.0984 1095.5 L83.0984 1089.62 Z" fill="#000000" fill-rule="nonzero" fill-opacity="1" /><path clip-path="url(#clip270)" d="M98.2141 1060.94 L116.57 1060.94 L116.57 1064.87 L102.496 1064.87 L102.496 1073.34 Q103.515 1073 104.534 1072.83 Q105.552 1072.65 106.571 1072.65 Q112.358 1072.65 115.737 1075.82 Q119.117 1078.99 119.117 1084.41 Q119.117 1089.99 115.645 1093.09 Q112.172 1096.17 105.853 1096.17 Q103.677 1096.17 101.409 1095.8 Q99.1632 1095.43 96.7558 1094.69 L96.7558 1089.99 Q98.8391 1091.12 101.061 1091.68 Q103.284 1092.23 105.76 1092.23 Q109.765 1092.23 112.103 1090.13 Q114.441 1088.02 114.441 1084.41 Q114.441 1080.8 112.103 1078.69 Q109.765 1076.58 105.76 1076.58 Q103.885 1076.58 102.01 1077 Q100.159 1077.42 98.2141 1078.3 L98.2141 1060.94 Z" fill="#000000" fill-rule="nonzero" fill-opacity="1" /><path clip-path="url(#clip270)" d="M138.33 1064.01 Q134.719 1064.01 132.89 1067.58 Q131.084 1071.12 131.084 1078.25 Q131.084 1085.36 132.89 1088.92 Q134.719 1092.46 138.33 1092.46 Q141.964 1092.46 143.769 1088.92 Q145.598 1085.36 145.598 1078.25 Q145.598 1071.12 143.769 1067.58 Q141.964 1064.01 138.33 1064.01 M138.33 1060.31 Q144.14 1060.31 147.195 1064.92 Q150.274 1069.5 150.274 1078.25 Q150.274 1086.98 147.195 1091.58 Q144.14 1096.17 138.33 1096.17 Q132.519 1096.17 129.441 1091.58 Q126.385 1086.98 126.385 1078.25 Q126.385 1069.5 129.441 1064.92 Q132.519 1060.31 138.33 1060.31 Z" fill="#000000" fill-rule="nonzero" fill-opacity="1" /><path clip-path="url(#clip270)" d="M63.9319 872.751 Q60.3208 872.751 58.4921 876.316 Q56.6865 879.857 56.6865 886.987 Q56.6865 894.093 58.4921 897.658 Q60.3208 901.2 63.9319 901.2 Q67.5661 901.2 69.3717 897.658 Q71.2004 894.093 71.2004 886.987 Q71.2004 879.857 69.3717 876.316 Q67.5661 872.751 63.9319 872.751 M63.9319 869.047 Q69.742 869.047 72.7976 873.654 Q75.8763 878.237 75.8763 886.987 Q75.8763 895.714 72.7976 900.32 Q69.742 904.904 63.9319 904.904 Q58.1217 904.904 55.043 900.32 Q51.9875 895.714 51.9875 886.987 Q51.9875 878.237 55.043 873.654 Q58.1217 869.047 63.9319 869.047 Z" fill="#000000" fill-rule="nonzero" fill-opacity="1" /><path clip-path="url(#clip270)" d="M84.0938 898.353 L88.978 898.353 L88.978 904.232 L84.0938 904.232 L84.0938 898.353 Z" fill="#000000" fill-rule="nonzero" fill-opacity="1" /><path clip-path="url(#clip270)" d="M97.9826 869.672 L120.205 869.672 L120.205 871.663 L107.658 904.232 L102.774 904.232 L114.58 873.607 L97.9826 873.607 L97.9826 869.672 Z" fill="#000000" fill-rule="nonzero" fill-opacity="1" /><path clip-path="url(#clip270)" d="M129.371 869.672 L147.728 869.672 L147.728 873.607 L133.654 873.607 L133.654 882.08 Q134.672 881.732 135.691 881.57 Q136.709 881.385 137.728 881.385 Q143.515 881.385 146.894 884.556 Q150.274 887.728 150.274 893.144 Q150.274 898.723 146.802 901.825 Q143.33 904.904 137.01 904.904 Q134.834 904.904 132.566 904.533 Q130.32 904.163 127.913 903.422 L127.913 898.723 Q129.996 899.857 132.219 900.413 Q134.441 900.968 136.918 900.968 Q140.922 900.968 143.26 898.862 Q145.598 896.755 145.598 893.144 Q145.598 889.533 143.26 887.427 Q140.922 885.32 136.918 885.32 Q135.043 885.32 133.168 885.737 Q131.316 886.154 129.371 887.033 L129.371 869.672 Z" fill="#000000" fill-rule="nonzero" fill-opacity="1" /><path clip-path="url(#clip270)" d="M53.7467 709.033 L61.3856 709.033 L61.3856 682.668 L53.0754 684.334 L53.0754 680.075 L61.3393 678.408 L66.0152 678.408 L66.0152 709.033 L73.654 709.033 L73.654 712.968 L53.7467 712.968 L53.7467 709.033 Z" fill="#000000" fill-rule="nonzero" fill-opacity="1" /><path clip-path="url(#clip270)" d="M83.0984 707.089 L87.9827 707.089 L87.9827 712.968 L83.0984 712.968 L83.0984 707.089 Z" fill="#000000" fill-rule="nonzero" fill-opacity="1" /><path clip-path="url(#clip270)" d="M108.168 681.487 Q104.557 681.487 102.728 685.052 Q100.922 688.594 100.922 695.723 Q100.922 702.83 102.728 706.394 Q104.557 709.936 108.168 709.936 Q111.802 709.936 113.608 706.394 Q115.436 702.83 115.436 695.723 Q115.436 688.594 113.608 685.052 Q111.802 681.487 108.168 681.487 M108.168 677.783 Q113.978 677.783 117.033 682.39 Q120.112 686.973 120.112 695.723 Q120.112 704.45 117.033 709.056 Q113.978 713.64 108.168 713.64 Q102.358 713.64 99.2789 709.056 Q96.2234 704.45 96.2234 695.723 Q96.2234 686.973 99.2789 682.39 Q102.358 677.783 108.168 677.783 Z" fill="#000000" fill-rule="nonzero" fill-opacity="1" /><path clip-path="url(#clip270)" d="M138.33 681.487 Q134.719 681.487 132.89 685.052 Q131.084 688.594 131.084 695.723 Q131.084 702.83 132.89 706.394 Q134.719 709.936 138.33 709.936 Q141.964 709.936 143.769 706.394 Q145.598 702.83 145.598 695.723 Q145.598 688.594 143.769 685.052 Q141.964 681.487 138.33 681.487 M138.33 677.783 Q144.14 677.783 147.195 682.39 Q150.274 686.973 150.274 695.723 Q150.274 704.45 147.195 709.056 Q144.14 713.64 138.33 713.64 Q132.519 713.64 129.441 709.056 Q126.385 704.45 126.385 695.723 Q126.385 686.973 129.441 682.39 Q132.519 677.783 138.33 677.783 Z" fill="#000000" fill-rule="nonzero" fill-opacity="1" /><path clip-path="url(#clip270)" d="M54.7421 517.769 L62.381 517.769 L62.381 491.404 L54.0708 493.07 L54.0708 488.811 L62.3347 487.145 L67.0106 487.145 L67.0106 517.769 L74.6494 517.769 L74.6494 521.705 L54.7421 521.705 L54.7421 517.769 Z" fill="#000000" fill-rule="nonzero" fill-opacity="1" /><path clip-path="url(#clip270)" d="M84.0938 515.825 L88.978 515.825 L88.978 521.705 L84.0938 521.705 L84.0938 515.825 Z" fill="#000000" fill-rule="nonzero" fill-opacity="1" /><path clip-path="url(#clip270)" d="M103.191 517.769 L119.51 517.769 L119.51 521.705 L97.566 521.705 L97.566 517.769 Q100.228 515.015 104.811 510.385 Q109.418 505.732 110.598 504.39 Q112.844 501.867 113.723 500.131 Q114.626 498.371 114.626 496.682 Q114.626 493.927 112.682 492.191 Q110.76 490.455 107.658 490.455 Q105.459 490.455 103.006 491.219 Q100.575 491.983 97.7974 493.533 L97.7974 488.811 Q100.621 487.677 103.075 487.098 Q105.529 486.52 107.566 486.52 Q112.936 486.52 116.131 489.205 Q119.325 491.89 119.325 496.381 Q119.325 498.51 118.515 500.432 Q117.728 502.33 115.621 504.922 Q115.043 505.594 111.941 508.811 Q108.839 512.006 103.191 517.769 Z" fill="#000000" fill-rule="nonzero" fill-opacity="1" /><path clip-path="url(#clip270)" d="M129.371 487.145 L147.728 487.145 L147.728 491.08 L133.654 491.08 L133.654 499.552 Q134.672 499.205 135.691 499.043 Q136.709 498.857 137.728 498.857 Q143.515 498.857 146.894 502.029 Q150.274 505.2 150.274 510.617 Q150.274 516.195 146.802 519.297 Q143.33 522.376 137.01 522.376 Q134.834 522.376 132.566 522.006 Q130.32 521.635 127.913 520.894 L127.913 516.195 Q129.996 517.33 132.219 517.885 Q134.441 518.441 136.918 518.441 Q140.922 518.441 143.26 516.334 Q145.598 514.228 145.598 510.617 Q145.598 507.006 143.26 504.899 Q140.922 502.793 136.918 502.793 Q135.043 502.793 133.168 503.209 Q131.316 503.626 129.371 504.506 L129.371 487.145 Z" fill="#000000" fill-rule="nonzero" fill-opacity="1" /><path clip-path="url(#clip270)" d="M53.7467 326.506 L61.3856 326.506 L61.3856 300.14 L53.0754 301.807 L53.0754 297.547 L61.3393 295.881 L66.0152 295.881 L66.0152 326.506 L73.654 326.506 L73.654 330.441 L53.7467 330.441 L53.7467 326.506 Z" fill="#000000" fill-rule="nonzero" fill-opacity="1" /><path clip-path="url(#clip270)" d="M83.0984 324.561 L87.9827 324.561 L87.9827 330.441 L83.0984 330.441 L83.0984 324.561 Z" fill="#000000" fill-rule="nonzero" fill-opacity="1" /><path clip-path="url(#clip270)" d="M98.2141 295.881 L116.57 295.881 L116.57 299.816 L102.496 299.816 L102.496 308.288 Q103.515 307.941 104.534 307.779 Q105.552 307.594 106.571 307.594 Q112.358 307.594 115.737 310.765 Q119.117 313.936 119.117 319.353 Q119.117 324.932 115.645 328.033 Q112.172 331.112 105.853 331.112 Q103.677 331.112 101.409 330.742 Q99.1632 330.371 96.7558 329.631 L96.7558 324.932 Q98.8391 326.066 101.061 326.621 Q103.284 327.177 105.76 327.177 Q109.765 327.177 112.103 325.07 Q114.441 322.964 114.441 319.353 Q114.441 315.742 112.103 313.635 Q109.765 311.529 105.76 311.529 Q103.885 311.529 102.01 311.945 Q100.159 312.362 98.2141 313.242 L98.2141 295.881 Z" fill="#000000" fill-rule="nonzero" fill-opacity="1" /><path clip-path="url(#clip270)" d="M138.33 298.959 Q134.719 298.959 132.89 302.524 Q131.084 306.066 131.084 313.195 Q131.084 320.302 132.89 323.867 Q134.719 327.408 138.33 327.408 Q141.964 327.408 143.769 323.867 Q145.598 320.302 145.598 313.195 Q145.598 306.066 143.769 302.524 Q141.964 298.959 138.33 298.959 M138.33 295.256 Q144.14 295.256 147.195 299.862 Q150.274 304.446 150.274 313.195 Q150.274 321.922 147.195 326.529 Q144.14 331.112 138.33 331.112 Q132.519 331.112 129.441 326.529 Q126.385 321.922 126.385 313.195 Q126.385 304.446 129.441 299.862 Q132.519 295.256 138.33 295.256 Z" fill="#000000" fill-rule="nonzero" fill-opacity="1" /><path clip-path="url(#clip270)" d="M54.7421 135.242 L62.381 135.242 L62.381 108.876 L54.0708 110.543 L54.0708 106.284 L62.3347 104.617 L67.0106 104.617 L67.0106 135.242 L74.6494 135.242 L74.6494 139.177 L54.7421 139.177 L54.7421 135.242 Z" fill="#000000" fill-rule="nonzero" fill-opacity="1" /><path clip-path="url(#clip270)" d="M84.0938 133.297 L88.978 133.297 L88.978 139.177 L84.0938 139.177 L84.0938 133.297 Z" fill="#000000" fill-rule="nonzero" fill-opacity="1" /><path clip-path="url(#clip270)" d="M97.9826 104.617 L120.205 104.617 L120.205 106.608 L107.658 139.177 L102.774 139.177 L114.58 108.552 L97.9826 108.552 L97.9826 104.617 Z" fill="#000000" fill-rule="nonzero" fill-opacity="1" /><path clip-path="url(#clip270)" d="M129.371 104.617 L147.728 104.617 L147.728 108.552 L133.654 108.552 L133.654 117.024 Q134.672 116.677 135.691 116.515 Q136.709 116.33 137.728 116.33 Q143.515 116.33 146.894 119.501 Q150.274 122.672 150.274 128.089 Q150.274 133.668 146.802 136.77 Q143.33 139.848 137.01 139.848 Q134.834 139.848 132.566 139.478 Q130.32 139.107 127.913 138.367 L127.913 133.668 Q129.996 134.802 132.219 135.357 Q134.441 135.913 136.918 135.913 Q140.922 135.913 143.26 133.807 Q145.598 131.7 145.598 128.089 Q145.598 124.478 143.26 122.371 Q140.922 120.265 136.918 120.265 Q135.043 120.265 133.168 120.682 Q131.316 121.098 129.371 121.978 L129.371 104.617 Z" fill="#000000" fill-rule="nonzero" fill-opacity="1" /><polyline clip-path="url(#clip271)" style="stroke:#009af9; stroke-linecap:round; stroke-linejoin:round; stroke-width:4; stroke-opacity:1; fill:none" points="186.274,1384.24 188.443,1350.62 190.611,1318.65 192.78,1288.24 194.949,1259.31 197.117,1231.8 199.286,1205.63 201.455,1180.73 203.623,1157.05 205.792,1134.53 207.961,1113.11 210.129,1092.73 212.298,1073.35 214.466,1054.91 216.635,1037.37 218.804,1020.69 220.972,1004.83 223.141,989.735 225.31,975.38 227.478,961.725 229.647,948.737 231.816,936.384 233.984,924.633 236.153,913.457 238.322,902.826 240.49,892.715 242.659,883.096 244.828,873.947 246.996,865.244 249.165,856.966 251.334,849.092 253.502,841.603 255.671,834.48 257.839,827.705 260.008,821.261 262.177,815.131 264.345,809.301 266.514,803.755 268.683,798.479 270.851,793.459 273.02,788.685 275.189,784.144 277.357,779.825 279.526,775.717 281.695,771.81 283.863,768.095 286.032,764.561 288.201,761.2 290.369,758.003 292.538,754.962 294.707,752.069 296.875,749.316 299.044,746.697 301.212,744.205 303.381,741.835 305.55,739.58 307.718,737.437 309.887,735.398 312.056,733.46 314.224,731.616 316.393,729.863 318.562,728.196 320.73,726.611 322.899,725.103 325.068,723.668 327.236,722.303 329.405,721.004 331.574,719.767 333.742,718.59 335.911,717.47 338.08,716.405 340.248,715.392 342.417,714.429 344.585,713.513 346.754,712.642 348.923,711.814 351.091,711.028 353.26,710.28 355.429,709.569 357.597,708.893 359.766,708.25 361.935,707.638 364.103,707.056 366.272,706.502 368.441,705.975 370.609,705.473 372.778,704.994 374.947,704.538 377.115,704.105 379.284,703.692 381.453,703.3 383.621,702.927 385.79,702.572 387.959,702.235 390.127,701.915 392.296,701.61 394.464,701.322 396.633,701.047 398.802,700.786 400.97,700.539 403.139,700.304 405.308,700.08 407.476,699.867 409.645,699.665 411.814,699.472 413.982,699.288 416.151,699.113 418.32,698.946 420.488,698.786 422.657,698.634 424.826,698.489 426.994,698.351 429.163,698.219 431.332,698.094 433.5,697.975 435.669,697.862 437.837,697.755 440.006,697.654 442.175,697.557 444.343,697.465 446.512,697.379 448.681,697.296 450.849,697.219 453.018,697.145 455.187,697.075 457.355,697.008 459.524,696.945 461.693,696.885 463.861,696.828 466.03,696.774 468.199,696.722 470.367,696.673 472.536,696.626 474.705,696.58 476.873,696.536 479.042,696.494 481.21,696.454 483.379,696.416 485.548,696.38 487.716,696.345 489.885,696.311 492.054,696.28 494.222,696.25 496.391,696.222 498.56,696.195 500.728,696.169 502.897,696.145 505.066,696.122 507.234,696.101 509.403,696.08 511.572,696.061 513.74,696.043 515.909,696.026 518.078,696.01 520.246,695.995 522.415,695.981 524.583,695.968 526.752,695.955 528.921,695.944 531.089,695.932 533.258,695.922 535.427,695.911 537.595,695.901 539.764,695.892 541.933,695.882 544.101,695.873 546.27,695.864 548.439,695.856 550.607,695.847 552.776,695.839 554.945,695.832 557.113,695.824 559.282,695.817 561.451,695.811 563.619,695.805 565.788,695.799 567.956,695.793 570.125,695.788 572.294,695.782 574.462,695.778 576.631,695.773 578.8,695.769 580.968,695.765 583.137,695.761 585.306,695.758 587.474,695.754 589.643,695.751 591.812,695.748 593.98,695.746 596.149,695.743 598.318,695.741 600.486,695.738 602.655,695.736 604.824,695.734 606.992,695.732 609.161,695.731 611.33,695.729 613.498,695.727 615.667,695.725 617.835,695.724 620.004,695.361 622.173,683.756 624.341,658.763 626.51,624.016 628.679,582.678 630.847,537.435 633.016,490.501 635.185,443.615 637.353,398.058 639.522,354.951 641.691,314.949 643.859,278.392 646.028,245.445 648.197,216.11 650.365,190.34 652.534,167.957 654.703,148.762 656.871,132.554 659.04,119.137 661.208,108.311 663.377,99.8784 665.546,93.6405 667.714,89.3994 669.883,86.9691 672.052,86.1857 674.22,86.8887 676.389,88.9288 678.558,92.1675 680.726,96.4773 682.895,101.742 685.064,107.855 687.232,114.722 689.401,122.249 691.57,130.353 693.738,138.958 695.907,147.992 698.076,157.389 700.244,167.09 702.413,177.041 704.581,187.193 706.75,197.506 708.919,207.942 711.087,218.472 713.256,229.06 715.425,239.674 717.593,250.288 719.762,260.877 721.931,271.418 724.099,281.893 726.268,292.284 728.437,302.574 730.605,312.751 732.774,322.803 734.943,332.722 737.111,342.501 739.28,352.131 741.449,361.606 743.617,370.917 745.786,380.062 747.954,389.034 750.123,397.83 752.292,406.448 754.46,414.884 756.629,423.138 758.798,431.208 760.966,439.095 763.135,446.798 765.304,454.319 767.472,461.66 769.641,468.824 771.81,475.814 773.978,482.628 776.147,489.269 778.316,495.737 780.484,502.036 782.653,508.167 784.822,514.132 786.99,519.934 789.159,525.575 791.328,531.058 793.496,536.387 795.665,541.563 797.833,546.591 800.002,551.473 802.171,556.212 804.339,560.814 806.508,565.28 808.677,569.616 810.845,573.824 813.014,577.906 815.183,581.865 817.351,585.704 819.52,589.425 821.689,593.031 823.857,596.526 826.026,599.911 828.195,603.189 830.363,606.364 832.532,609.437 834.701,612.413 836.869,615.292 839.038,618.079 841.206,620.775 843.375,623.384 845.544,625.907 847.712,628.349 849.881,630.711 852.05,632.996 854.218,635.207 856.387,637.347 858.556,639.416 860.724,641.417 862.893,643.351 865.062,645.22 867.23,647.027 869.399,648.773 871.568,650.459 873.736,652.088 875.905,653.661 878.074,655.18 880.242,656.647 882.411,658.063 884.579,659.43 886.748,660.749 888.917,662.022 891.085,663.25 893.254,664.436 895.423,665.58 897.591,666.684 899.76,667.749 901.929,668.777 904.097,669.769 906.266,670.727 908.435,671.651 910.603,672.543 912.772,673.404 914.941,674.235 917.109,675.036 919.278,675.809 921.447,676.554 923.615,677.273 925.784,677.965 927.952,678.633 930.121,679.276 932.29,679.896 934.458,680.493 936.627,681.068 938.796,681.621 940.964,682.155 943.133,682.668 945.302,683.163 947.47,683.639 949.639,684.097 951.808,684.538 953.976,684.963 956.145,685.372 958.314,685.766 960.482,686.145 962.651,686.51 964.82,686.862 966.988,687.201 969.157,687.527 971.326,687.841 973.494,688.145 975.663,688.437 977.831,688.718 980,688.99 982.169,689.251 984.337,689.503 986.506,689.745 988.675,689.978 990.843,690.202 993.012,690.418 995.181,690.625 997.349,690.825 999.518,691.017 1001.69,691.201 1003.86,691.378 1006.02,691.548 1008.19,691.711 1010.36,691.868 1012.53,692.018 1014.7,692.163 1016.87,692.301 1019.04,692.435 1021.2,692.563 1023.37,692.685 1025.54,692.803 1027.71,692.917 1029.88,693.026 1032.05,693.13 1034.22,693.231 1036.39,693.327 1038.55,693.42 1040.72,693.51 1042.89,693.596 1045.06,693.679 1047.23,693.76 1049.4,693.837 1051.57,693.912 1053.73,693.984 1055.9,694.053 1058.07,694.12 1060.24,694.184 1062.41,694.246 1064.58,694.305 1066.75,694.362 1068.91,694.417 1071.08,694.47 1073.25,694.52 1075.42,694.569 1077.59,694.615 1079.76,694.66 1081.93,694.702 1084.1,694.743 1086.26,694.782 1088.43,694.819 1090.6,694.855 1092.77,694.889 1094.94,694.921 1097.11,694.952 1099.28,694.981 1101.44,695.01 1103.61,695.037 1105.78,695.062 1107.95,695.087 1110.12,695.11 1112.29,695.133 1114.46,695.154 1116.63,695.175 1118.79,695.195 1120.96,695.214 1123.13,695.232 1125.3,695.25 1127.47,695.267 1129.64,695.283 1131.81,695.299 1133.97,695.315 1136.14,695.331 1138.31,695.346 1140.48,695.36 1142.65,695.374 1144.82,695.388 1146.99,695.401 1149.15,695.414 1151.32,695.426 1153.49,695.438 1155.66,695.449 1157.83,695.46 1160,695.47 1162.17,695.48 1164.34,695.49 1166.5,695.499 1168.67,695.508 1170.84,695.516 1173.01,695.524 1175.18,695.532 1177.35,695.539 1179.52,695.545 1181.68,695.552 1183.85,695.558 1186.02,695.563 1188.19,695.569 1190.36,695.574 1192.53,695.578 1194.7,695.583 1196.87,695.587 1199.03,695.591 1201.2,695.594 1203.37,695.597 1205.54,695.6 1207.71,695.603 1209.88,695.606 1212.05,695.609 1214.21,695.611 1216.38,695.613 1218.55,695.615 1220.72,695.617 1222.89,695.619 1225.06,695.621 1227.23,695.623 1229.39,695.625 1231.56,695.627 1233.73,695.629 1235.9,695.631 1238.07,695.633 1240.24,695.635 1242.41,695.638 1244.58,695.64 1246.74,695.642 1248.91,695.644 1251.08,695.647 1253.25,695.649 1255.42,695.651 1257.59,695.653 1259.76,695.655 1261.92,695.657 1264.09,695.659 1266.26,695.661 1268.43,695.663 1270.6,695.665 1272.77,695.667 1274.94,695.668 1277.11,695.67 1279.27,695.671 1281.44,695.673 1283.61,695.674 1285.78,695.675 1287.95,695.676 1290.12,695.677 1292.29,695.678 1294.45,695.679 1296.62,695.68 1298.79,695.68 1300.96,695.681 1303.13,695.681 1305.3,695.682 1307.47,695.682 1309.63,695.682 1311.8,695.683 1313.97,695.683 1316.14,695.683 1318.31,695.683 1320.48,695.683 1322.65,695.682 1324.82,695.682 1326.98,695.682 1329.15,695.682 1331.32,695.681 1333.49,695.681 1335.66,695.681 1337.83,695.68 1340,695.68 1342.16,695.679 1344.33,695.679 1346.5,695.678 1348.67,695.678 1350.84,695.678 1353.01,695.677 1355.18,695.677 1357.35,695.677 1359.51,695.677 1361.68,695.677 1363.85,695.677 1366.02,695.677 1368.19,695.677 1370.36,695.678 1372.53,695.678 1374.69,695.679 1376.86,695.68 1379.03,695.681 1381.2,695.682 1383.37,695.683 1385.54,695.684 1387.71,695.685 1389.88,695.687 1392.04,695.688 1394.21,695.69 1396.38,695.691 1398.55,695.693 1400.72,695.694 1402.89,695.696 1405.06,695.697 1407.22,695.698 1409.39,695.7 1411.56,695.701 1413.73,695.702 1415.9,695.704 1418.07,695.705 1420.24,695.706 1422.4,695.707 1424.57,695.708 1426.74,695.709 1428.91,695.709 1431.08,695.71 1433.25,695.71 1435.42,695.711 1437.59,695.711 1439.75,695.711 1441.92,695.711 1444.09,695.711 1446.26,695.711 1448.43,695.711 1450.6,695.711 1452.77,695.71 1454.93,695.709 1457.1,695.709 1459.27,695.708 1461.44,695.707 1463.61,695.706 1465.78,695.705 1467.95,695.704 1470.12,695.702 1472.28,695.701 1474.45,695.699 1476.62,695.698 1478.79,695.696 1480.96,695.695 1483.13,695.693 1485.3,695.691 1487.46,695.689 1489.63,695.687 1491.8,695.685 1493.97,695.684 1496.14,695.682 1498.31,695.68 1500.48,695.678 1502.64,695.676 1504.81,695.674 1506.98,695.673 1509.15,695.671 1511.32,695.67 1513.49,695.668 1515.66,695.667 1517.83,695.666 1519.99,695.665 1522.16,695.664 1524.33,695.663 1526.5,695.663 1528.67,695.662 1530.84,695.662 1533.01,695.663 1535.17,695.663 1537.34,695.664 1539.51,695.665 1541.68,695.667 1543.85,695.67 1546.02,695.674 1548.19,695.68 1550.36,695.687 1552.52,695.695 1554.69,695.704 1556.86,695.713 1559.03,695.723 1561.2,695.734 1563.37,695.745 1565.54,695.757 1567.7,695.769 1569.87,695.781 1572.04,695.793 1574.21,695.805 1576.38,695.817 1578.55,695.829 1580.72,695.841 1582.88,695.852 1585.05,695.863 1587.22,695.874 1589.39,695.884 1591.56,695.893 1593.73,695.902 1595.9,695.911 1598.07,695.918 1600.23,695.925 1602.4,695.932 1604.57,695.937 1606.74,695.942 1608.91,695.945 1611.08,695.948 1613.25,695.95 1615.41,695.951 1617.58,695.951 1619.75,695.95 1621.92,695.949 1624.09,695.946 1626.26,695.942 1628.43,695.937 1630.6,695.932 1632.76,695.925 1634.93,695.918 1637.1,695.909 1639.27,695.9 1641.44,695.89 1643.61,695.879 1645.78,695.867 1647.94,695.854 1650.11,695.841 1652.28,695.827 1654.45,695.812 1656.62,695.796 1658.79,695.78 1660.96,695.764 1663.13,695.747 1665.29,695.73 1667.46,695.712 1669.63,695.694 1671.8,695.676 1673.97,695.658 1676.14,695.639 1678.31,695.621 1680.47,695.603 1682.64,695.585 1684.81,695.567 1686.98,695.55 1689.15,695.533 1691.32,695.517 1693.49,695.501 1695.65,695.487 1697.82,695.473 1699.99,695.46 1702.16,695.449 1704.33,695.438 1706.5,695.429 1708.67,695.422 1710.84,695.416 1713,695.412 1715.17,695.41 1717.34,695.41 1719.51,695.412 1721.68,695.417 1723.85,695.424 1726.02,695.434 1728.18,695.447 1730.35,695.464 1732.52,695.487 1734.69,695.516 1736.86,695.549 1739.03,695.587 1741.2,695.628 1743.37,695.672 1745.53,695.718 1747.7,695.766 1749.87,695.816 1752.04,695.867 1754.21,695.918 1756.38,695.97 1758.55,696.021 1760.71,696.071 1762.88,696.121 1765.05,696.169 1767.22,696.215 1769.39,696.259 1771.56,696.301 1773.73,696.341 1775.89,696.377 1778.06,696.411 1780.23,696.441 1782.4,696.468 1784.57,696.491 1786.74,696.51 1788.91,696.525 1791.08,696.537 1793.24,696.544 1795.41,696.547 1797.58,696.546 1799.75,696.54 1801.92,696.53 1804.09,696.516 1806.26,696.497 1808.42,696.475 1810.59,696.448 1812.76,696.417 1814.93,696.382 1817.1,696.343 1819.27,696.301 1821.44,696.255 1823.61,696.205 1825.77,696.153 1827.94,696.097 1830.11,696.039 1832.28,695.978 1834.45,695.915 1836.62,695.851 1838.79,695.784 1840.95,695.717 1843.12,695.649 1845.29,695.58 1847.46,695.511 1849.63,695.443 1851.8,695.375 1853.97,695.309 1856.13,695.244 1858.3,695.182 1860.47,695.123 1862.64,695.066 1864.81,695.014 1866.98,694.966 1869.15,694.923 1871.32,694.885 1873.48,694.854 1875.65,694.83 1877.82,694.813 1879.99,694.805 1882.16,694.806 1884.33,694.816 1886.5,694.837 1888.66,694.87 1890.83,694.913 1893,694.965 1895.17,695.023 1897.34,695.086 1899.51,695.155 1901.68,695.226 1903.85,695.301 1906.01,695.378 1908.18,695.456 1910.35,695.535 1912.52,695.614 1914.69,695.693 1916.86,695.77 1919.03,695.845 1921.19,695.918 1923.36,695.988 1925.53,696.055 1927.7,696.118 1929.87,696.176 1932.04,696.231 1934.21,696.28 1936.37,696.324 1938.54,696.363 1940.71,696.396 1942.88,696.423 1945.05,696.445 1947.22,696.46 1949.39,696.469 1951.56,696.472 1953.72,696.468 1955.89,696.458 1958.06,696.442 1960.23,696.42 1962.4,696.392 1964.57,696.358 1966.74,696.319 1968.9,696.274 1971.07,696.224 1973.24,696.17 1975.41,696.11 1977.58,696.047 1979.75,695.98 1981.92,695.91 1984.09,695.837 1986.25,695.761 1988.42,695.684 1990.59,695.606 1992.76,695.527 1994.93,695.448 1997.1,695.37 1999.27,695.294 2001.43,695.219 2003.6,695.148 2005.77,695.081 2007.94,695.018 2010.11,694.962 2012.28,694.911 2014.45,694.868 2016.62,694.834 2018.78,694.809 2020.95,694.795 2023.12,694.793 2025.29,694.803 2027.46,694.828 2029.63,694.867 2031.8,694.915 2033.96,694.967 2036.13,695.022 2038.3,695.08 2040.47,695.14 2042.64,695.201 2044.81,695.263 2046.98,695.326 2049.14,695.388 2051.31,695.45 2053.48,695.511 2055.65,695.57 2057.82,695.628 2059.99,695.683 2062.16,695.736 2064.33,695.786 2066.49,695.832 2068.66,695.876 2070.83,695.915 2073,695.951 2075.17,695.983 2077.34,696.01 2079.51,696.034 2081.67,696.053 2083.84,696.067 2086.01,696.077 2088.18,696.082 2090.35,696.083 2092.52,696.079 2094.69,696.071 2096.86,696.059 2099.02,696.042 2101.19,696.021 2103.36,695.997 2105.53,695.968 2107.7,695.937 2109.87,695.901 2112.04,695.863 2114.2,695.822 2116.37,695.779 2118.54,695.734 2120.71,695.687 2122.88,695.639 2125.05,695.591 2127.22,695.542 2129.38,695.493 2131.55,695.444 2133.72,695.398 2135.89,695.352 2138.06,695.31 2140.23,695.27 2142.4,695.234 2144.57,695.202 2146.73,695.176 2148.9,695.155 2151.07,695.141 2153.24,695.134 2155.41,695.135 2157.58,695.145 2159.75,695.165 2161.91,695.193 2164.08,695.224 2166.25,695.257 2168.42,695.292 2170.59,695.328 2172.76,695.366 2174.93,695.403 2177.1,695.442 2179.26,695.48 2181.43,695.518 2183.6,695.556 2185.77,695.592 2187.94,695.628 2190.11,695.663 2192.28,695.696 2194.44,695.728 2196.61,695.757 2198.78,695.785 2200.95,695.81 2203.12,695.834 2205.29,695.855 2207.46,695.873 2209.62,695.889 2211.79,695.903 2213.96,695.913 2216.13,695.921 2218.3,695.926 2220.47,695.929 2222.64,695.928 2224.81,695.925 2226.97,695.92 2229.14,695.911 2231.31,695.901 2233.48,695.887 2235.65,695.872 2237.82,695.854 2239.99,695.834 2242.15,695.812 2244.32,695.789 2246.49,695.764 2248.66,695.737 2250.83,695.71 2253,695.681 2255.17,695.652 2257.34,695.622 2259.5,695.592 2261.67,695.563 2263.84,695.533 2266.01,695.505 2268.18,695.478 2270.35,695.452 2272.52,695.428 2274.68,695.406 2276.85,695.387 2279.02,695.371 2281.19,695.359 2283.36,695.351 2285.53,695.347 2287.7,695.348 2289.87,695.354 2292.03,695.366 2294.2,695.383 2296.37,695.398 2298.54,695.414 2300.71,695.428 2302.88,695.442 2305.05,695.455 2307.21,695.467 2309.38,695.479 2311.55,695.49 2313.72,695.5 2315.89,695.51 2318.06,695.519 2320.23,695.528 2322.39,695.536 2324.56,695.544 2326.73,695.552 2328.9,695.559 2331.07,695.565 2333.24,695.571 2335.41,695.577 2337.58,695.583 2339.74,695.588 2341.91,695.593 2344.08,695.597 2346.25,695.602 2348.42,695.606 2350.59,695.61 2352.76,695.614 "/>
<path clip-path="url(#clip270)" d="M2035.67 196.789 L2280.54 196.789 L2280.54 93.1086 L2035.67 93.1086  Z" fill="#ffffff" fill-rule="evenodd" fill-opacity="1"/>
<polyline clip-path="url(#clip270)" style="stroke:#000000; stroke-linecap:round; stroke-linejoin:round; stroke-width:4; stroke-opacity:1; fill:none" points="2035.67,196.789 2280.54,196.789 2280.54,93.1086 2035.67,93.1086 2035.67,196.789 "/>
<polyline clip-path="url(#clip270)" style="stroke:#009af9; stroke-linecap:round; stroke-linejoin:round; stroke-width:4; stroke-opacity:1; fill:none" points="2059.75,144.949 2204.18,144.949 "/>
<path clip-path="url(#clip270)" d="M2228.78 127.669 L2255.94 127.669 L2255.94 131.233 L2234.08 158.293 L2256.47 158.293 L2256.47 162.229 L2228.25 162.229 L2228.25 158.664 L2250.1 131.604 L2228.78 131.604 L2228.78 127.669 Z" fill="#000000" fill-rule="nonzero" fill-opacity="1" /></svg>
