<?xml version="1.0" encoding="utf-8"?>
<svg xmlns="http://www.w3.org/2000/svg" xmlns:xlink="http://www.w3.org/1999/xlink" width="800" height="400" viewBox="0 0 3200 1600">
<defs>
  <clipPath id="clip100">
    <rect x="0" y="0" width="3200" height="1600"/>
  </clipPath>
</defs>
<path clip-path="url(#clip100)" d="M0 1600 L3200 1600 L3200 0 L0 0  Z" fill="#ffffff" fill-rule="evenodd" fill-opacity="1"/>
<defs>
  <clipPath id="clip101">
    <rect x="149" y="47" width="3004" height="1449"/>
  </clipPath>
</defs>
<path clip-path="url(#clip100)" d="M149.853 1495.09 L3152.76 1495.09 L3152.76 47.2441 L149.853 47.2441  Z" fill="#ffffff" fill-rule="evenodd" fill-opacity="1"/>
<polyline clip-path="url(#clip101)" style="stroke:#000000; stroke-linecap:round; stroke-linejoin:round; stroke-width:2; stroke-opacity:0.1; fill:none" points="234.841,1495.09 234.841,47.2441 "/>
<polyline clip-path="url(#clip101)" style="stroke:#000000; stroke-linecap:round; stroke-linejoin:round; stroke-width:2; stroke-opacity:0.1; fill:none" points="943.073,1495.09 943.073,47.2441 "/>
<polyline clip-path="url(#clip101)" style="stroke:#000000; stroke-linecap:round; stroke-linejoin:round; stroke-width:2; stroke-opacity:0.1; fill:none" points="1651.3,1495.09 1651.3,47.2441 "/>
<polyline clip-path="url(#clip101)" style="stroke:#000000; stroke-linecap:round; stroke-linejoin:round; stroke-width:2; stroke-opacity:0.1; fill:none" points="2359.54,1495.09 2359.54,47.2441 "/>
<polyline clip-path="url(#clip101)" style="stroke:#000000; stroke-linecap:round; stroke-linejoin:round; stroke-width:2; stroke-opacity:0.1; fill:none" points="3067.77,1495.09 3067.77,47.2441 "/>
<polyline clip-path="url(#clip101)" style="stroke:#000000; stroke-linecap:round; stroke-linejoin:round; stroke-width:2; stroke-opacity:0.1; fill:none" points="234.841,1495.09 234.841,47.2441 "/>
<polyline clip-path="url(#clip101)" style="stroke:#000000; stroke-linecap:round; stroke-linejoin:round; stroke-width:2; stroke-opacity:0.1; fill:none" points="943.073,1495.09 943.073,47.2441 "/>
<polyline clip-path="url(#clip101)" style="stroke:#000000; stroke-linecap:round; stroke-linejoin:round; stroke-width:2; stroke-opacity:0.1; fill:none" points="1651.3,1495.09 1651.3,47.2441 "/>
<polyline clip-path="url(#clip101)" style="stroke:#000000; stroke-linecap:round; stroke-linejoin:round; stroke-width:2; stroke-opacity:0.1; fill:none" points="2359.54,1495.09 2359.54,47.2441 "/>
<polyline clip-path="url(#clip101)" style="stroke:#000000; stroke-linecap:round; stroke-linejoin:round; stroke-width:2; stroke-opacity:0.1; fill:none" points="3067.77,1495.09 3067.77,47.2441 "/>
<polyline clip-path="url(#clip101)" style="stroke:#000000; stroke-linecap:round; stroke-linejoin:round; stroke-width:2; stroke-opacity:0.1; fill:none" points="149.853,1466.67 3152.76,1466.67 "/>
<polyline clip-path="url(#clip101)" style="stroke:#000000; stroke-linecap:round; stroke-linejoin:round; stroke-width:2; stroke-opacity:0.1; fill:none" points="149.853,1216.49 3152.76,1216.49 "/>
<polyline clip-path="url(#clip101)" style="stroke:#000000; stroke-linecap:round; stroke-linejoin:round; stroke-width:2; stroke-opacity:0.1; fill:none" points="149.853,966.31 3152.76,966.31 "/>
<polyline clip-path="url(#clip101)" style="stroke:#000000; stroke-linecap:round; stroke-linejoin:round; stroke-width:2; stroke-opacity:0.1; fill:none" points="149.853,716.128 3152.76,716.128 "/>
<polyline clip-path="url(#clip101)" style="stroke:#000000; stroke-linecap:round; stroke-linejoin:round; stroke-width:2; stroke-opacity:0.1; fill:none" points="149.853,465.946 3152.76,465.946 "/>
<polyline clip-path="url(#clip101)" style="stroke:#000000; stroke-linecap:round; stroke-linejoin:round; stroke-width:2; stroke-opacity:0.1; fill:none" points="149.853,215.764 3152.76,215.764 "/>
<polyline clip-path="url(#clip101)" style="stroke:#000000; stroke-linecap:round; stroke-linejoin:round; stroke-width:2; stroke-opacity:0.1; fill:none" points="149.853,1466.67 3152.76,1466.67 "/>
<polyline clip-path="url(#clip101)" style="stroke:#000000; stroke-linecap:round; stroke-linejoin:round; stroke-width:2; stroke-opacity:0.1; fill:none" points="149.853,1216.49 3152.76,1216.49 "/>
<polyline clip-path="url(#clip101)" style="stroke:#000000; stroke-linecap:round; stroke-linejoin:round; stroke-width:2; stroke-opacity:0.1; fill:none" points="149.853,966.31 3152.76,966.31 "/>
<polyline clip-path="url(#clip101)" style="stroke:#000000; stroke-linecap:round; stroke-linejoin:round; stroke-width:2; stroke-opacity:0.1; fill:none" points="149.853,716.128 3152.76,716.128 "/>
<polyline clip-path="url(#clip101)" style="stroke:#000000; stroke-linecap:round; stroke-linejoin:round; stroke-width:2; stroke-opacity:0.1; fill:none" points="149.853,465.946 3152.76,465.946 "/>
<polyline clip-path="url(#clip101)" style="stroke:#000000; stroke-linecap:round; stroke-linejoin:round; stroke-width:2; stroke-opacity:0.1; fill:none" points="149.853,215.764 3152.76,215.764 "/>
<polyline clip-path="url(#clip100)" style="stroke:#000000; stroke-linecap:round; stroke-linejoin:round; stroke-width:4; stroke-opacity:1; fill:none" points="149.853,1495.09 3152.76,1495.09 "/>
<polyline clip-path="url(#clip100)" style="stroke:#000000; stroke-linecap:round; stroke-linejoin:round; stroke-width:4; stroke-opacity:1; fill:none" points="149.853,47.2441 3152.76,47.2441 "/>
<polyline clip-path="url(#clip100)" style="stroke:#000000; stroke-linecap:round; stroke-linejoin:round; stroke-width:4; stroke-opacity:1; fill:none" points="234.841,1495.09 234.841,1476.19 "/>
<polyline clip-path="url(#clip100)" style="stroke:#000000; stroke-linecap:round; stroke-linejoin:round; stroke-width:4; stroke-opacity:1; fill:none" points="943.073,1495.09 943.073,1476.19 "/>
<polyline clip-path="url(#clip100)" style="stroke:#000000; stroke-linecap:round; stroke-linejoin:round; stroke-width:4; stroke-opacity:1; fill:none" points="1651.3,1495.09 1651.3,1476.19 "/>
<polyline clip-path="url(#clip100)" style="stroke:#000000; stroke-linecap:round; stroke-linejoin:round; stroke-width:4; stroke-opacity:1; fill:none" points="2359.54,1495.09 2359.54,1476.19 "/>
<polyline clip-path="url(#clip100)" style="stroke:#000000; stroke-linecap:round; stroke-linejoin:round; stroke-width:4; stroke-opacity:1; fill:none" points="3067.77,1495.09 3067.77,1476.19 "/>
<polyline clip-path="url(#clip100)" style="stroke:#000000; stroke-linecap:round; stroke-linejoin:round; stroke-width:4; stroke-opacity:1; fill:none" points="234.841,47.2441 234.841,66.1417 "/>
<polyline clip-path="url(#clip100)" style="stroke:#000000; stroke-linecap:round; stroke-linejoin:round; stroke-width:4; stroke-opacity:1; fill:none" points="943.073,47.2441 943.073,66.1417 "/>
<polyline clip-path="url(#clip100)" style="stroke:#000000; stroke-linecap:round; stroke-linejoin:round; stroke-width:4; stroke-opacity:1; fill:none" points="1651.3,47.2441 1651.3,66.1417 "/>
<polyline clip-path="url(#clip100)" style="stroke:#000000; stroke-linecap:round; stroke-linejoin:round; stroke-width:4; stroke-opacity:1; fill:none" points="2359.54,47.2441 2359.54,66.1417 "/>
<polyline clip-path="url(#clip100)" style="stroke:#000000; stroke-linecap:round; stroke-linejoin:round; stroke-width:4; stroke-opacity:1; fill:none" points="3067.77,47.2441 3067.77,66.1417 "/>
<path clip-path="url(#clip100)" d="M234.841 1532.41 Q231.23 1532.41 229.401 1535.97 Q227.595 1539.51 227.595 1546.64 Q227.595 1553.75 229.401 1557.31 Q231.23 1560.86 234.841 1560.86 Q238.475 1560.86 240.281 1557.31 Q242.109 1553.75 242.109 1546.64 Q242.109 1539.51 240.281 1535.97 Q238.475 1532.41 234.841 1532.41 M234.841 1528.7 Q240.651 1528.7 243.706 1533.31 Q246.785 1537.89 246.785 1546.64 Q246.785 1555.37 243.706 1559.98 Q240.651 1564.56 234.841 1564.56 Q229.031 1564.56 225.952 1559.98 Q222.896 1555.37 222.896 1546.64 Q222.896 1537.89 225.952 1533.31 Q229.031 1528.7 234.841 1528.7 Z" fill="#000000" fill-rule="nonzero" fill-opacity="1" /><path clip-path="url(#clip100)" d="M917.772 1529.33 L936.128 1529.33 L936.128 1533.26 L922.054 1533.26 L922.054 1541.74 Q923.073 1541.39 924.091 1541.23 Q925.11 1541.04 926.128 1541.04 Q931.915 1541.04 935.295 1544.21 Q938.674 1547.38 938.674 1552.8 Q938.674 1558.38 935.202 1561.48 Q931.73 1564.56 925.411 1564.56 Q923.235 1564.56 920.966 1564.19 Q918.721 1563.82 916.313 1563.08 L916.313 1558.38 Q918.397 1559.51 920.619 1560.07 Q922.841 1560.62 925.318 1560.62 Q929.323 1560.62 931.661 1558.52 Q933.999 1556.41 933.999 1552.8 Q933.999 1549.19 931.661 1547.08 Q929.323 1544.98 925.318 1544.98 Q923.443 1544.98 921.568 1545.39 Q919.716 1545.81 917.772 1546.69 L917.772 1529.33 Z" fill="#000000" fill-rule="nonzero" fill-opacity="1" /><path clip-path="url(#clip100)" d="M957.887 1532.41 Q954.276 1532.41 952.448 1535.97 Q950.642 1539.51 950.642 1546.64 Q950.642 1553.75 952.448 1557.31 Q954.276 1560.86 957.887 1560.86 Q961.522 1560.86 963.327 1557.31 Q965.156 1553.75 965.156 1546.64 Q965.156 1539.51 963.327 1535.97 Q961.522 1532.41 957.887 1532.41 M957.887 1528.7 Q963.697 1528.7 966.753 1533.31 Q969.832 1537.89 969.832 1546.64 Q969.832 1555.37 966.753 1559.98 Q963.697 1564.56 957.887 1564.56 Q952.077 1564.56 948.998 1559.98 Q945.943 1555.37 945.943 1546.64 Q945.943 1537.89 948.998 1533.31 Q952.077 1528.7 957.887 1528.7 Z" fill="#000000" fill-rule="nonzero" fill-opacity="1" /><path clip-path="url(#clip100)" d="M1610.91 1559.95 L1618.55 1559.95 L1618.55 1533.59 L1610.24 1535.25 L1610.24 1530.99 L1618.5 1529.33 L1623.18 1529.33 L1623.18 1559.95 L1630.82 1559.95 L1630.82 1563.89 L1610.91 1563.89 L1610.91 1559.95 Z" fill="#000000" fill-rule="nonzero" fill-opacity="1" /><path clip-path="url(#clip100)" d="M1650.26 1532.41 Q1646.65 1532.41 1644.82 1535.97 Q1643.02 1539.51 1643.02 1546.64 Q1643.02 1553.75 1644.82 1557.31 Q1646.65 1560.86 1650.26 1560.86 Q1653.9 1560.86 1655.7 1557.31 Q1657.53 1553.75 1657.53 1546.64 Q1657.53 1539.51 1655.7 1535.97 Q1653.9 1532.41 1650.26 1532.41 M1650.26 1528.7 Q1656.07 1528.7 1659.13 1533.31 Q1662.21 1537.89 1662.21 1546.64 Q1662.21 1555.37 1659.13 1559.98 Q1656.07 1564.56 1650.26 1564.56 Q1644.45 1564.56 1641.37 1559.98 Q1638.32 1555.37 1638.32 1546.64 Q1638.32 1537.89 1641.37 1533.31 Q1644.45 1528.7 1650.26 1528.7 Z" fill="#000000" fill-rule="nonzero" fill-opacity="1" /><path clip-path="url(#clip100)" d="M1680.42 1532.41 Q1676.81 1532.41 1674.98 1535.97 Q1673.18 1539.51 1673.18 1546.64 Q1673.18 1553.75 1674.98 1557.31 Q1676.81 1560.86 1680.42 1560.86 Q1684.06 1560.86 1685.86 1557.31 Q1687.69 1553.75 1687.69 1546.64 Q1687.69 1539.51 1685.86 1535.97 Q1684.06 1532.41 1680.42 1532.41 M1680.42 1528.7 Q1686.23 1528.7 1689.29 1533.31 Q1692.37 1537.89 1692.37 1546.64 Q1692.37 1555.37 1689.29 1559.98 Q1686.23 1564.56 1680.42 1564.56 Q1674.61 1564.56 1671.54 1559.98 Q1668.48 1555.37 1668.48 1546.64 Q1668.48 1537.89 1671.54 1533.31 Q1674.61 1528.7 1680.42 1528.7 Z" fill="#000000" fill-rule="nonzero" fill-opacity="1" /><path clip-path="url(#clip100)" d="M2319.14 1559.95 L2326.78 1559.95 L2326.78 1533.59 L2318.47 1535.25 L2318.47 1530.99 L2326.74 1529.33 L2331.41 1529.33 L2331.41 1559.95 L2339.05 1559.95 L2339.05 1563.89 L2319.14 1563.89 L2319.14 1559.95 Z" fill="#000000" fill-rule="nonzero" fill-opacity="1" /><path clip-path="url(#clip100)" d="M2348.54 1529.33 L2366.9 1529.33 L2366.9 1533.26 L2352.82 1533.26 L2352.82 1541.74 Q2353.84 1541.39 2354.86 1541.23 Q2355.88 1541.04 2356.9 1541.04 Q2362.68 1541.04 2366.06 1544.21 Q2369.44 1547.38 2369.44 1552.8 Q2369.44 1558.38 2365.97 1561.48 Q2362.5 1564.56 2356.18 1564.56 Q2354 1564.56 2351.74 1564.19 Q2349.49 1563.82 2347.08 1563.08 L2347.08 1558.38 Q2349.17 1559.51 2351.39 1560.07 Q2353.61 1560.62 2356.09 1560.62 Q2360.09 1560.62 2362.43 1558.52 Q2364.77 1556.41 2364.77 1552.8 Q2364.77 1549.19 2362.43 1547.08 Q2360.09 1544.98 2356.09 1544.98 Q2354.21 1544.98 2352.34 1545.39 Q2350.49 1545.81 2348.54 1546.69 L2348.54 1529.33 Z" fill="#000000" fill-rule="nonzero" fill-opacity="1" /><path clip-path="url(#clip100)" d="M2388.66 1532.41 Q2385.05 1532.41 2383.22 1535.97 Q2381.41 1539.51 2381.41 1546.64 Q2381.41 1553.75 2383.22 1557.31 Q2385.05 1560.86 2388.66 1560.86 Q2392.29 1560.86 2394.1 1557.31 Q2395.92 1553.75 2395.92 1546.64 Q2395.92 1539.51 2394.1 1535.97 Q2392.29 1532.41 2388.66 1532.41 M2388.66 1528.7 Q2394.47 1528.7 2397.52 1533.31 Q2400.6 1537.89 2400.6 1546.64 Q2400.6 1555.37 2397.52 1559.98 Q2394.47 1564.56 2388.66 1564.56 Q2382.85 1564.56 2379.77 1559.98 Q2376.71 1555.37 2376.71 1546.64 Q2376.71 1537.89 2379.77 1533.31 Q2382.85 1528.7 2388.66 1528.7 Z" fill="#000000" fill-rule="nonzero" fill-opacity="1" /><path clip-path="url(#clip100)" d="M3031.46 1559.95 L3047.78 1559.95 L3047.78 1563.89 L3025.84 1563.89 L3025.84 1559.95 Q3028.5 1557.2 3033.08 1552.57 Q3037.69 1547.92 3038.87 1546.57 Q3041.11 1544.05 3041.99 1542.31 Q3042.9 1540.55 3042.9 1538.86 Q3042.9 1536.11 3040.95 1534.37 Q3039.03 1532.64 3035.93 1532.64 Q3033.73 1532.64 3031.28 1533.4 Q3028.84 1534.17 3026.07 1535.72 L3026.07 1530.99 Q3028.89 1529.86 3031.34 1529.28 Q3033.8 1528.7 3035.84 1528.7 Q3041.21 1528.7 3044.4 1531.39 Q3047.59 1534.07 3047.59 1538.56 Q3047.59 1540.69 3046.78 1542.61 Q3046 1544.51 3043.89 1547.11 Q3043.31 1547.78 3040.21 1550.99 Q3037.11 1554.19 3031.46 1559.95 Z" fill="#000000" fill-rule="nonzero" fill-opacity="1" /><path clip-path="url(#clip100)" d="M3067.59 1532.41 Q3063.98 1532.41 3062.15 1535.97 Q3060.35 1539.51 3060.35 1546.64 Q3060.35 1553.75 3062.15 1557.31 Q3063.98 1560.86 3067.59 1560.86 Q3071.23 1560.86 3073.03 1557.31 Q3074.86 1553.75 3074.86 1546.64 Q3074.86 1539.51 3073.03 1535.97 Q3071.23 1532.41 3067.59 1532.41 M3067.59 1528.7 Q3073.4 1528.7 3076.46 1533.31 Q3079.54 1537.89 3079.54 1546.64 Q3079.54 1555.37 3076.46 1559.98 Q3073.4 1564.56 3067.59 1564.56 Q3061.78 1564.56 3058.71 1559.98 Q3055.65 1555.37 3055.65 1546.64 Q3055.65 1537.89 3058.71 1533.31 Q3061.78 1528.7 3067.59 1528.7 Z" fill="#000000" fill-rule="nonzero" fill-opacity="1" /><path clip-path="url(#clip100)" d="M3097.76 1532.41 Q3094.15 1532.41 3092.32 1535.97 Q3090.51 1539.51 3090.51 1546.64 Q3090.51 1553.75 3092.32 1557.31 Q3094.15 1560.86 3097.76 1560.86 Q3101.39 1560.86 3103.2 1557.31 Q3105.02 1553.75 3105.02 1546.64 Q3105.02 1539.51 3103.2 1535.97 Q3101.39 1532.41 3097.76 1532.41 M3097.76 1528.7 Q3103.57 1528.7 3106.62 1533.31 Q3109.7 1537.89 3109.7 1546.64 Q3109.7 1555.37 3106.62 1559.98 Q3103.57 1564.56 3097.76 1564.56 Q3091.95 1564.56 3088.87 1559.98 Q3085.81 1555.37 3085.81 1546.64 Q3085.81 1537.89 3088.87 1533.31 Q3091.95 1528.7 3097.76 1528.7 Z" fill="#000000" fill-rule="nonzero" fill-opacity="1" /><polyline clip-path="url(#clip100)" style="stroke:#000000; stroke-linecap:round; stroke-linejoin:round; stroke-width:4; stroke-opacity:1; fill:none" points="149.853,1495.09 149.853,47.2441 "/>
<polyline clip-path="url(#clip100)" style="stroke:#000000; stroke-linecap:round; stroke-linejoin:round; stroke-width:4; stroke-opacity:1; fill:none" points="3152.76,1495.09 3152.76,47.2441 "/>
<polyline clip-path="url(#clip100)" style="stroke:#000000; stroke-linecap:round; stroke-linejoin:round; stroke-width:4; stroke-opacity:1; fill:none" points="149.853,1466.67 168.751,1466.67 "/>
<polyline clip-path="url(#clip100)" style="stroke:#000000; stroke-linecap:round; stroke-linejoin:round; stroke-width:4; stroke-opacity:1; fill:none" points="149.853,1216.49 168.751,1216.49 "/>
<polyline clip-path="url(#clip100)" style="stroke:#000000; stroke-linecap:round; stroke-linejoin:round; stroke-width:4; stroke-opacity:1; fill:none" points="149.853,966.31 168.751,966.31 "/>
<polyline clip-path="url(#clip100)" style="stroke:#000000; stroke-linecap:round; stroke-linejoin:round; stroke-width:4; stroke-opacity:1; fill:none" points="149.853,716.128 168.751,716.128 "/>
<polyline clip-path="url(#clip100)" style="stroke:#000000; stroke-linecap:round; stroke-linejoin:round; stroke-width:4; stroke-opacity:1; fill:none" points="149.853,465.946 168.751,465.946 "/>
<polyline clip-path="url(#clip100)" style="stroke:#000000; stroke-linecap:round; stroke-linejoin:round; stroke-width:4; stroke-opacity:1; fill:none" points="149.853,215.764 168.751,215.764 "/>
<polyline clip-path="url(#clip100)" style="stroke:#000000; stroke-linecap:round; stroke-linejoin:round; stroke-width:4; stroke-opacity:1; fill:none" points="3152.76,1466.67 3133.86,1466.67 "/>
<polyline clip-path="url(#clip100)" style="stroke:#000000; stroke-linecap:round; stroke-linejoin:round; stroke-width:4; stroke-opacity:1; fill:none" points="3152.76,1216.49 3133.86,1216.49 "/>
<polyline clip-path="url(#clip100)" style="stroke:#000000; stroke-linecap:round; stroke-linejoin:round; stroke-width:4; stroke-opacity:1; fill:none" points="3152.76,966.31 3133.86,966.31 "/>
<polyline clip-path="url(#clip100)" style="stroke:#000000; stroke-linecap:round; stroke-linejoin:round; stroke-width:4; stroke-opacity:1; fill:none" points="3152.76,716.128 3133.86,716.128 "/>
<polyline clip-path="url(#clip100)" style="stroke:#000000; stroke-linecap:round; stroke-linejoin:round; stroke-width:4; stroke-opacity:1; fill:none" points="3152.76,465.946 3133.86,465.946 "/>
<polyline clip-path="url(#clip100)" style="stroke:#000000; stroke-linecap:round; stroke-linejoin:round; stroke-width:4; stroke-opacity:1; fill:none" points="3152.76,215.764 3133.86,215.764 "/>
<path clip-path="url(#clip100)" d="M50.5569 1480.02 L58.1958 1480.02 L58.1958 1453.65 L49.8856 1455.32 L49.8856 1451.06 L58.1495 1449.39 L62.8254 1449.39 L62.8254 1480.02 L70.4642 1480.02 L70.4642 1483.95 L50.5569 1483.95 L50.5569 1480.02 Z" fill="#000000" fill-rule="nonzero" fill-opacity="1" /><path clip-path="url(#clip100)" d="M89.9086 1452.47 Q86.2975 1452.47 84.4688 1456.04 Q82.6632 1459.58 82.6632 1466.71 Q82.6632 1473.82 84.4688 1477.38 Q86.2975 1480.92 89.9086 1480.92 Q93.5428 1480.92 95.3483 1477.38 Q97.177 1473.82 97.177 1466.71 Q97.177 1459.58 95.3483 1456.04 Q93.5428 1452.47 89.9086 1452.47 M89.9086 1448.77 Q95.7187 1448.77 98.7743 1453.38 Q101.853 1457.96 101.853 1466.71 Q101.853 1475.44 98.7743 1480.04 Q95.7187 1484.63 89.9086 1484.63 Q84.0984 1484.63 81.0197 1480.04 Q77.9642 1475.44 77.9642 1466.71 Q77.9642 1457.96 81.0197 1453.38 Q84.0984 1448.77 89.9086 1448.77 Z" fill="#000000" fill-rule="nonzero" fill-opacity="1" /><path clip-path="url(#clip100)" d="M53.7745 1229.84 L70.0939 1229.84 L70.0939 1233.77 L48.1495 1233.77 L48.1495 1229.84 Q50.8115 1227.08 55.3949 1222.45 Q60.0013 1217.8 61.1819 1216.46 Q63.4272 1213.93 64.3068 1212.2 Q65.2096 1210.44 65.2096 1208.75 Q65.2096 1205.99 63.2652 1204.26 Q61.3439 1202.52 58.2421 1202.52 Q56.043 1202.52 53.5893 1203.29 Q51.1588 1204.05 48.381 1205.6 L48.381 1200.88 Q51.2051 1199.74 53.6588 1199.17 Q56.1124 1198.59 58.1495 1198.59 Q63.5198 1198.59 66.7142 1201.27 Q69.9087 1203.96 69.9087 1208.45 Q69.9087 1210.58 69.0985 1212.5 Q68.3115 1214.4 66.205 1216.99 Q65.6263 1217.66 62.5245 1220.88 Q59.4226 1224.07 53.7745 1229.84 Z" fill="#000000" fill-rule="nonzero" fill-opacity="1" /><path clip-path="url(#clip100)" d="M89.9086 1202.29 Q86.2975 1202.29 84.4688 1205.86 Q82.6632 1209.4 82.6632 1216.53 Q82.6632 1223.63 84.4688 1227.2 Q86.2975 1230.74 89.9086 1230.74 Q93.5428 1230.74 95.3483 1227.2 Q97.177 1223.63 97.177 1216.53 Q97.177 1209.4 95.3483 1205.86 Q93.5428 1202.29 89.9086 1202.29 M89.9086 1198.59 Q95.7187 1198.59 98.7743 1203.19 Q101.853 1207.78 101.853 1216.53 Q101.853 1225.25 98.7743 1229.86 Q95.7187 1234.44 89.9086 1234.44 Q84.0984 1234.44 81.0197 1229.86 Q77.9642 1225.25 77.9642 1216.53 Q77.9642 1207.78 81.0197 1203.19 Q84.0984 1198.59 89.9086 1198.59 Z" fill="#000000" fill-rule="nonzero" fill-opacity="1" /><path clip-path="url(#clip100)" d="M63.9133 964.956 Q67.2698 965.674 69.1448 967.942 Q71.0429 970.211 71.0429 973.544 Q71.0429 978.66 67.5244 981.461 Q64.0059 984.262 57.5245 984.262 Q55.3486 984.262 53.0338 983.822 Q50.7421 983.405 48.2884 982.549 L48.2884 978.035 Q50.2328 979.169 52.5477 979.748 Q54.8625 980.326 57.3856 980.326 Q61.7837 980.326 64.0754 978.59 Q66.3902 976.854 66.3902 973.544 Q66.3902 970.488 64.2374 968.776 Q62.1078 967.039 58.2884 967.039 L54.2606 967.039 L54.2606 963.197 L58.4735 963.197 Q61.9226 963.197 63.7513 961.831 Q65.58 960.442 65.58 957.85 Q65.58 955.188 63.6819 953.776 Q61.8069 952.34 58.2884 952.34 Q56.3671 952.34 54.168 952.757 Q51.969 953.174 49.3301 954.053 L49.3301 949.887 Q51.9921 949.146 54.3069 948.776 Q56.6449 948.405 58.705 948.405 Q64.0291 948.405 67.1309 950.836 Q70.2327 953.243 70.2327 957.364 Q70.2327 960.234 68.5892 962.225 Q66.9457 964.192 63.9133 964.956 Z" fill="#000000" fill-rule="nonzero" fill-opacity="1" /><path clip-path="url(#clip100)" d="M89.9086 952.109 Q86.2975 952.109 84.4688 955.674 Q82.6632 959.215 82.6632 966.345 Q82.6632 973.451 84.4688 977.016 Q86.2975 980.558 89.9086 980.558 Q93.5428 980.558 95.3483 977.016 Q97.177 973.451 97.177 966.345 Q97.177 959.215 95.3483 955.674 Q93.5428 952.109 89.9086 952.109 M89.9086 948.405 Q95.7187 948.405 98.7743 953.012 Q101.853 957.595 101.853 966.345 Q101.853 975.072 98.7743 979.678 Q95.7187 984.262 89.9086 984.262 Q84.0984 984.262 81.0197 979.678 Q77.9642 975.072 77.9642 966.345 Q77.9642 957.595 81.0197 953.012 Q84.0984 948.405 89.9086 948.405 Z" fill="#000000" fill-rule="nonzero" fill-opacity="1" /><path clip-path="url(#clip100)" d="M62.5939 702.922 L50.7884 721.371 L62.5939 721.371 L62.5939 702.922 M61.367 698.848 L67.2466 698.848 L67.2466 721.371 L72.1772 721.371 L72.1772 725.26 L67.2466 725.26 L67.2466 733.408 L62.5939 733.408 L62.5939 725.26 L46.9921 725.26 L46.9921 720.746 L61.367 698.848 Z" fill="#000000" fill-rule="nonzero" fill-opacity="1" /><path clip-path="url(#clip100)" d="M89.9086 701.927 Q86.2975 701.927 84.4688 705.492 Q82.6632 709.033 82.6632 716.163 Q82.6632 723.269 84.4688 726.834 Q86.2975 730.376 89.9086 730.376 Q93.5428 730.376 95.3483 726.834 Q97.177 723.269 97.177 716.163 Q97.177 709.033 95.3483 705.492 Q93.5428 701.927 89.9086 701.927 M89.9086 698.223 Q95.7187 698.223 98.7743 702.83 Q101.853 707.413 101.853 716.163 Q101.853 724.89 98.7743 729.496 Q95.7187 734.079 89.9086 734.079 Q84.0984 734.079 81.0197 729.496 Q77.9642 724.89 77.9642 716.163 Q77.9642 707.413 81.0197 702.83 Q84.0984 698.223 89.9086 698.223 Z" fill="#000000" fill-rule="nonzero" fill-opacity="1" /><path clip-path="url(#clip100)" d="M49.793 448.666 L68.1494 448.666 L68.1494 452.601 L54.0754 452.601 L54.0754 461.073 Q55.0939 460.726 56.1124 460.564 Q57.131 460.379 58.1495 460.379 Q63.9365 460.379 67.3161 463.55 Q70.6957 466.721 70.6957 472.138 Q70.6957 477.717 67.2235 480.819 Q63.7513 483.897 57.4319 483.897 Q55.256 483.897 52.9875 483.527 Q50.7421 483.157 48.3347 482.416 L48.3347 477.717 Q50.418 478.851 52.6402 479.407 Q54.8625 479.962 57.3393 479.962 Q61.3439 479.962 63.6819 477.856 Q66.0198 475.749 66.0198 472.138 Q66.0198 468.527 63.6819 466.421 Q61.3439 464.314 57.3393 464.314 Q55.4643 464.314 53.5893 464.731 Q51.7375 465.147 49.793 466.027 L49.793 448.666 Z" fill="#000000" fill-rule="nonzero" fill-opacity="1" /><path clip-path="url(#clip100)" d="M89.9086 451.745 Q86.2975 451.745 84.4688 455.31 Q82.6632 458.851 82.6632 465.981 Q82.6632 473.087 84.4688 476.652 Q86.2975 480.194 89.9086 480.194 Q93.5428 480.194 95.3483 476.652 Q97.177 473.087 97.177 465.981 Q97.177 458.851 95.3483 455.31 Q93.5428 451.745 89.9086 451.745 M89.9086 448.041 Q95.7187 448.041 98.7743 452.647 Q101.853 457.231 101.853 465.981 Q101.853 474.708 98.7743 479.314 Q95.7187 483.897 89.9086 483.897 Q84.0984 483.897 81.0197 479.314 Q77.9642 474.708 77.9642 465.981 Q77.9642 457.231 81.0197 452.647 Q84.0984 448.041 89.9086 448.041 Z" fill="#000000" fill-rule="nonzero" fill-opacity="1" /><path clip-path="url(#clip100)" d="M60.3254 213.901 Q57.1773 213.901 55.3254 216.053 Q53.4967 218.206 53.4967 221.956 Q53.4967 225.683 55.3254 227.859 Q57.1773 230.012 60.3254 230.012 Q63.4735 230.012 65.3022 227.859 Q67.1541 225.683 67.1541 221.956 Q67.1541 218.206 65.3022 216.053 Q63.4735 213.901 60.3254 213.901 M69.6077 199.248 L69.6077 203.507 Q67.8485 202.674 66.0429 202.234 Q64.2606 201.794 62.5013 201.794 Q57.8717 201.794 55.418 204.919 Q52.9875 208.044 52.6402 214.363 Q54.006 212.35 56.0662 211.285 Q58.1263 210.197 60.6032 210.197 Q65.8115 210.197 68.8207 213.368 Q71.8531 216.516 71.8531 221.956 Q71.8531 227.28 68.705 230.498 Q65.5568 233.715 60.3254 233.715 Q54.33 233.715 51.1588 229.132 Q47.9875 224.525 47.9875 215.799 Q47.9875 207.604 51.8764 202.743 Q55.7652 197.859 62.3161 197.859 Q64.0754 197.859 65.8578 198.206 Q67.6633 198.553 69.6077 199.248 Z" fill="#000000" fill-rule="nonzero" fill-opacity="1" /><path clip-path="url(#clip100)" d="M89.9086 201.563 Q86.2975 201.563 84.4688 205.127 Q82.6632 208.669 82.6632 215.799 Q82.6632 222.905 84.4688 226.47 Q86.2975 230.012 89.9086 230.012 Q93.5428 230.012 95.3483 226.47 Q97.177 222.905 97.177 215.799 Q97.177 208.669 95.3483 205.127 Q93.5428 201.563 89.9086 201.563 M89.9086 197.859 Q95.7187 197.859 98.7743 202.465 Q101.853 207.049 101.853 215.799 Q101.853 224.525 98.7743 229.132 Q95.7187 233.715 89.9086 233.715 Q84.0984 233.715 81.0197 229.132 Q77.9642 224.525 77.9642 215.799 Q77.9642 207.049 81.0197 202.465 Q84.0984 197.859 89.9086 197.859 Z" fill="#000000" fill-rule="nonzero" fill-opacity="1" /><path clip-path="url(#clip101)" d="M234.841 591.037 L249.005 704.32 L263.17 762.702 L277.335 830.451 L291.499 899.232 L305.664 951.898 L319.829 1007.52 L333.993 1071.45 L348.158 1126.15 L362.322 1165.81 L376.487 1208.3 L390.652 1237.64 L404.816 1290.62 L418.981 1309.14 L433.146 1348.36 L447.31 1370.65 L461.475 1394.6 L475.64 1410.96 L489.804 1426.92 L503.969 1427.54 L518.133 1442.15 L532.298 1442.48 L546.463 1454.11 L560.627 1448.86 L574.792 1422.32 L588.957 1424.55 L603.121 1404.23 L617.286 1415.79 L631.451 1420.57 L645.615 1414.59 L659.78 1368.61 L673.944 1352.86 L688.109 1348.33 L702.274 1315.43 L716.438 1279.89 L730.603 1243.83 L744.768 1196.52 L758.932 1174.85 L773.097 1146.43 L787.262 1141.69 L801.426 1132.83 L815.591 1150.42 L829.756 1140.11 L843.92 1184.89 L858.085 1195.27 L872.249 1186.15 L886.414 1202.48 L900.579 1209.54 L914.743 1240.88 L928.908 1235.75 L943.073 1280.49 L957.237 1288.02 L971.402 1271.02 L985.567 1303.26 L999.731 1324.42 L1013.9 1333.12 L1028.06 1356.37 L1042.23 1363.09 L1056.39 1377.73 L1070.55 1393.88 L1084.72 1391.21 L1098.88 1409.72 L1113.05 1392.61 L1127.21 1403.93 L1141.38 1420.7 L1155.54 1399.64 L1169.71 1398.48 L1183.87 1392.35 L1198.04 1392.44 L1212.2 1403.12 L1226.37 1396.07 L1240.53 1390.81 L1254.69 1403.93 L1268.86 1387.99 L1283.02 1385.84 L1297.19 1400.81 L1311.35 1366.14 L1325.52 1340.37 L1339.68 1337.38 L1353.85 1294.4 L1368.01 1277.06 L1382.18 1281.45 L1396.34 1286.09 L1410.51 1276.81 L1424.67 1270.79 L1438.83 1290.75 L1453 1308.52 L1467.16 1300.03 L1481.33 1297.22 L1495.49 1321.48 L1509.66 1317.56 L1523.82 1333.29 L1537.99 1323.18 L1552.15 1316.94 L1566.32 1343.88 L1580.48 1360.43 L1594.65 1375.59 L1608.81 1377.98 L1622.98 1385.42 L1637.14 1365.6 L1651.3 1344.62 L1665.47 1365.74 L1679.63 1357.23 L1693.8 1347.66 L1707.96 1376.14 L1722.13 1383.38 L1736.29 1363.65 L1750.46 1383.34 L1764.62 1379.09 L1778.79 1379.4 L1792.95 1383.78 L1807.12 1368.57 L1821.28 1346.9 L1835.44 1346.79 L1849.61 1351.87 L1863.77 1351.21 L1877.94 1351.79 L1892.1 1357.27 L1906.27 1350.59 L1920.43 1334.33 L1934.6 1365.11 L1948.76 1343.06 L1962.93 1328.65 L1977.09 1341.35 L1991.26 1347.87 L2005.42 1336.32 L2019.58 1338.42 L2033.75 1337.21 L2047.91 1344.42 L2062.08 1349.03 L2076.24 1356.48 L2090.41 1351.2 L2104.57 1353.23 L2118.74 1335.62 L2132.9 1348.46 L2147.07 1352.27 L2161.23 1350.5 L2175.4 1361.75 L2189.56 1365.45 L2203.73 1357.27 L2217.89 1370.86 L2232.05 1385.96 L2246.22 1344.45 L2260.38 1366.18 L2274.55 1352.56 L2288.71 1357.25 L2302.88 1387.17 L2317.04 1364.29 L2331.21 1370.79 L2345.37 1363.92 L2359.54 1369.12 L2373.7 1350.67 L2387.87 1362.01 L2402.03 1370.04 L2416.19 1359.85 L2430.36 1351.13 L2444.52 1367.82 L2458.69 1382.25 L2472.85 1384.26 L2487.02 1400.59 L2501.18 1394.34 L2515.35 1381.92 L2529.51 1375.23 L2543.68 1365.39 L2557.84 1386.37 L2572.01 1384.92 L2586.17 1375.64 L2600.34 1335.34 L2614.5 1354.38 L2628.66 1357.37 L2642.83 1340 L2656.99 1334.97 L2671.16 1322.4 L2685.32 1324.06 L2699.49 1331.05 L2713.65 1326.85 L2727.82 1345.35 L2741.98 1347.03 L2756.15 1353.66 L2770.31 1346.14 L2784.48 1372.57 L2798.64 1377.73 L2812.8 1371.4 L2826.97 1370.67 L2841.13 1364.38 L2855.3 1379.11 L2869.46 1362.2 L2883.63 1367.88 L2897.79 1381.99 L2911.96 1360.48 L2926.12 1364.95 L2940.29 1329.27 L2954.45 1336.77 L2968.62 1345.11 L2982.78 1355.47 L2996.94 1358.64 L3011.11 1349 L3025.27 1344.49 L3039.44 1344.19 L3053.6 1384.8 L3067.77 1385.99 L3067.77 399.431 L3053.6 373.033 L3039.44 332.993 L3025.27 323.283 L3011.11 259.227 L2996.94 352.698 L2982.78 317.2 L2968.62 367.031 L2954.45 388.125 L2940.29 416.448 L2926.12 387.72 L2911.96 337.977 L2897.79 326.988 L2883.63 393.253 L2869.46 372.227 L2855.3 341.472 L2841.13 274.309 L2826.97 259.46 L2812.8 310.769 L2798.64 322.278 L2784.48 342.48 L2770.31 310.801 L2756.15 340.881 L2741.98 355.089 L2727.82 342.526 L2713.65 325.254 L2699.49 358.204 L2685.32 350.882 L2671.16 376.142 L2656.99 402.833 L2642.83 425.314 L2628.66 401.156 L2614.5 371.521 L2600.34 351.686 L2586.17 328.261 L2572.01 266.388 L2557.84 288.761 L2543.68 307.957 L2529.51 283.815 L2515.35 322.517 L2501.18 287.962 L2487.02 267.634 L2472.85 323.216 L2458.69 384.784 L2444.52 347.355 L2430.36 309.87 L2416.19 387.118 L2402.03 411.756 L2387.87 443.123 L2373.7 456.454 L2359.54 508.55 L2345.37 512.386 L2331.21 479.203 L2317.04 490.278 L2302.88 458.891 L2288.71 441.797 L2274.55 417.834 L2260.38 392.556 L2246.22 421.973 L2232.05 378.321 L2217.89 400.211 L2203.73 363.958 L2189.56 365.569 L2175.4 336.361 L2161.23 302.418 L2147.07 265.552 L2132.9 232.058 L2118.74 236.318 L2104.57 256.736 L2090.41 207.973 L2076.24 205.572 L2062.08 222.347 L2047.91 241.615 L2033.75 301.115 L2019.58 337.094 L2005.42 347.429 L1991.26 368.949 L1977.09 364.368 L1962.93 386.349 L1948.76 310.707 L1934.6 333.786 L1920.43 353.812 L1906.27 337.907 L1892.1 361.376 L1877.94 360.384 L1863.77 377.485 L1849.61 341.803 L1835.44 396.559 L1821.28 395.214 L1807.12 414.328 L1792.95 434.988 L1778.79 417.47 L1764.62 472.395 L1750.46 524.179 L1736.29 532.108 L1722.13 553.593 L1707.96 601.619 L1693.8 546.48 L1679.63 563.287 L1665.47 527.54 L1651.3 524.416 L1637.14 486.663 L1622.98 460.796 L1608.81 488.892 L1594.65 439.025 L1580.48 421.942 L1566.32 434.799 L1552.15 419.677 L1537.99 405.725 L1523.82 370.791 L1509.66 340.492 L1495.49 321.865 L1481.33 306.031 L1467.16 247.316 L1453 253.051 L1438.83 259.786 L1424.67 258.611 L1410.51 228.55 L1396.34 199.885 L1382.18 223.249 L1368.01 262.346 L1353.85 218.93 L1339.68 211.609 L1325.52 218.946 L1311.35 290.807 L1297.19 383.433 L1283.02 435.18 L1268.86 494.456 L1254.69 512.279 L1240.53 560.333 L1226.37 533.804 L1212.2 510.147 L1198.04 596.129 L1183.87 571.532 L1169.71 598.058 L1155.54 644.832 L1141.38 627.794 L1127.21 638.307 L1113.05 648.27 L1098.88 694.828 L1084.72 712.708 L1070.55 700.381 L1056.39 671.84 L1042.23 633.623 L1028.06 597.451 L1013.9 515.388 L999.731 458.648 L985.567 433.11 L971.402 328.732 L957.237 283.9 L943.073 258.177 L928.908 230.159 L914.743 174.906 L900.579 137.088 L886.414 88.2208 L872.249 126.222 L858.085 149.143 L843.92 138.578 L829.756 171.923 L815.591 213.463 L801.426 157.366 L787.262 150.584 L773.097 163.084 L758.932 207.45 L744.768 275.673 L730.603 352.083 L716.438 392.946 L702.274 401.373 L688.109 463.51 L673.944 523.037 L659.78 550.201 L645.615 579.867 L631.451 676.058 L617.286 756.159 L603.121 802.622 L588.957 878.28 L574.792 907.784 L560.627 898.648 L546.463 938.6 L532.298 998.6 L518.133 1038.34 L503.969 1070.93 L489.804 1047.29 L475.64 1019.71 L461.475 981.752 L447.31 956.082 L433.146 918.581 L418.981 907.606 L404.816 870.628 L390.652 834.603 L376.487 779.607 L362.322 714.625 L348.158 683.259 L333.993 664.477 L319.829 591.295 L305.664 529.364 L291.499 497.487 L277.335 463.555 L263.17 475.045 L249.005 474.734 L234.841 591.037  Z" fill="#009af9" fill-rule="evenodd" fill-opacity="0.2"/>
<polyline clip-path="url(#clip101)" style="stroke:#009af9; stroke-linecap:round; stroke-linejoin:round; stroke-width:12; stroke-opacity:1; fill:none" points="234.841,591.037 249.005,591.278 263.17,614.558 277.335,637.383 291.499,686.675 305.664,745.933 319.829,800.009 333.993,854.099 348.158,916.401 362.322,971.413 376.487,1025.55 390.652,1075.83 404.816,1123.35 418.981,1156.46 433.146,1187.4 447.31,1213.94 461.475,1250.21 475.64,1259.87 489.804,1274.52 503.969,1280.9 518.133,1279.61 532.298,1269.62 546.463,1259.2 560.627,1260.59 574.792,1245.53 588.957,1225.72 603.121,1192.73 617.286,1158.17 631.451,1115.9 645.615,1070.74 659.78,1028.53 673.944,972.709 688.109,928.675 702.274,880.109 716.438,837.257 730.603,798.349 744.768,776.179 758.932,734.509 773.097,692.324 787.262,705.93 801.426,679.638 815.591,651.472 829.756,676.226 843.92,698.311 858.085,732.676 872.249,758.572 886.414,791.15 900.579,821.483 914.743,868.577 928.908,882.639 943.073,922.875 957.237,961.123 971.402,992.741 985.567,1044.72 999.731,1055.69 1013.9,1081.59 1028.06,1084.46 1042.23,1098.7 1056.39,1133.27 1070.55,1156.44 1084.72,1150.54 1098.88,1157.1 1113.05,1167.42 1127.21,1186.06 1141.38,1188.79 1155.54,1174.17 1169.71,1164.16 1183.87,1132.88 1198.04,1108.18 1212.2,1094.35 1226.37,1056.32 1240.53,1026.7 1254.69,1013.98 1268.86,966.155 1283.02,954.508 1297.19,929.756 1311.35,926.63 1325.52,923.896 1339.68,895.871 1353.85,876.637 1368.01,859.363 1382.18,860.918 1396.34,851.932 1410.51,878.863 1424.67,868.027 1438.83,856.451 1453,882.106 1467.16,881.629 1481.33,897.846 1495.49,902.159 1509.66,932.419 1523.82,950.615 1537.99,988.158 1552.15,998.524 1566.32,986.206 1580.48,1011.95 1594.65,1032.6 1608.81,1039.41 1622.98,1046.59 1637.14,1078.64 1651.3,1085.1 1665.47,1103.77 1679.63,1096.2 1693.8,1083.24 1707.96,1084.2 1722.13,1068.4 1736.29,1054.47 1750.46,1047.17 1764.62,1036.7 1778.79,1051.54 1792.95,1048.24 1807.12,1058.35 1821.28,1045.52 1835.44,1039.31 1849.61,1004.41 1863.77,991.638 1877.94,971.429 1892.1,942.805 1906.27,930.989 1920.43,932.285 1934.6,919.399 1948.76,916.266 1962.93,916.714 1977.09,918.608 1991.26,934.654 2005.42,928.228 2019.58,923.978 2033.75,943.406 2047.91,930.011 2062.08,950.888 2076.24,978.99 2090.41,982.417 2104.57,1015.95 2118.74,1010.07 2132.9,1001.57 2147.07,1000.86 2161.23,987.116 2175.4,957.949 2189.56,952.699 2203.73,968.835 2217.89,963.702 2232.05,962.594 2246.22,998.49 2260.38,1012.15 2274.55,1010.97 2288.71,1030.02 2302.88,1020.58 2317.04,1010.28 2331.21,1012.89 2345.37,1007.08 2359.54,1016.35 2373.7,1043.11 2387.87,1042.62 2402.03,1032.38 2416.19,1055.64 2430.36,1039.22 2444.52,1032.86 2458.69,1010.44 2472.85,1022.71 2487.02,1011.84 2501.18,1010.53 2515.35,1009.87 2529.51,1022.95 2543.68,1031.41 2557.84,1011.23 2572.01,1009.74 2586.17,998.447 2600.34,977.79 2614.5,989.87 2628.66,990.639 2642.83,941.991 2656.99,950.443 2671.16,940.929 2685.32,949.217 2699.49,926.042 2713.65,936.339 2727.82,958.642 2741.98,980.523 2756.15,987.39 2770.31,972.478 2784.48,970.424 2798.64,954.502 2812.8,945.212 2826.97,947.466 2841.13,943.579 2855.3,964.777 2869.46,992.065 2883.63,1011.51 2897.79,1001.82 2911.96,1004.27 2926.12,985.491 2940.29,990.309 2954.45,1014.86 2968.62,1012.17 2982.78,1022.95 2996.94,1036.11 3011.11,1029.03 3025.27,1035.83 3039.44,1029.74 3053.6,1012.02 3067.77,1028.82 "/>
<path clip-path="url(#clip101)" d="M234.841 591.037 L249.005 664.03 L263.17 731.044 L277.335 794.829 L291.499 856.952 L305.664 915.342 L319.829 982.518 L333.993 1048.81 L348.158 1101.99 L362.322 1156.66 L376.487 1204.43 L390.652 1251.08 L404.816 1287.03 L418.981 1321.95 L433.146 1354.04 L447.31 1368.02 L461.475 1390.33 L475.64 1403.55 L489.804 1415.26 L503.969 1418.49 L518.133 1438.76 L532.298 1441.02 L546.463 1433.29 L560.627 1429.64 L574.792 1416.72 L588.957 1401.3 L603.121 1388.03 L617.286 1371.25 L631.451 1353.65 L645.615 1337.64 L659.78 1309.64 L673.944 1292.98 L688.109 1275.03 L702.274 1247.53 L716.438 1221.3 L730.603 1223.45 L744.768 1219.8 L758.932 1229.77 L773.097 1212.41 L787.262 1199.71 L801.426 1227.5 L815.591 1225.36 L829.756 1248.56 L843.92 1265.61 L858.085 1281.2 L872.249 1302.97 L886.414 1312.13 L900.579 1333.19 L914.743 1333.43 L928.908 1353.38 L943.073 1365.75 L957.237 1375.38 L971.402 1367.44 L985.567 1374.12 L999.731 1379.2 L1013.9 1368.96 L1028.06 1364.01 L1042.23 1360 L1056.39 1383.86 L1070.55 1400.57 L1084.72 1416.12 L1098.88 1429.51 L1113.05 1442.3 L1127.21 1442.37 L1141.38 1444.82 L1155.54 1435.5 L1169.71 1409.23 L1183.87 1412.48 L1198.04 1408.32 L1212.2 1390.39 L1226.37 1388.45 L1240.53 1365.45 L1254.69 1359.35 L1268.86 1356.21 L1283.02 1349.93 L1297.19 1330.28 L1311.35 1351.21 L1325.52 1370.69 L1339.68 1358.89 L1353.85 1349.11 L1368.01 1369.84 L1382.18 1380.07 L1396.34 1352.49 L1410.51 1344.56 L1424.67 1341.77 L1438.83 1344.01 L1453 1352.68 L1467.16 1356.13 L1481.33 1371.28 L1495.49 1370.61 L1509.66 1384.82 L1523.82 1359.59 L1537.99 1355.7 L1552.15 1363.1 L1566.32 1363.9 L1580.48 1369.2 L1594.65 1336.71 L1608.81 1342.27 L1622.98 1348.58 L1637.14 1334.55 L1651.3 1348.69 L1665.47 1362.14 L1679.63 1365.2 L1693.8 1390.33 L1707.96 1397.52 L1722.13 1401.41 L1736.29 1394.81 L1750.46 1398.59 L1764.62 1396.05 L1778.79 1405.91 L1792.95 1408.31 L1807.12 1410.79 L1821.28 1393.49 L1835.44 1395.3 L1849.61 1380.54 L1863.77 1387.91 L1877.94 1393.05 L1892.1 1395.32 L1906.27 1396.46 L1920.43 1375.18 L1934.6 1369.28 L1948.76 1360.04 L1962.93 1354.57 L1977.09 1324.77 L1991.26 1355.13 L2005.42 1367.93 L2019.58 1375.87 L2033.75 1355.45 L2047.91 1363.91 L2062.08 1384.73 L2076.24 1398.1 L2090.41 1389.19 L2104.57 1390.23 L2118.74 1391.2 L2132.9 1392.05 L2147.07 1387.8 L2161.23 1378.83 L2175.4 1358.6 L2189.56 1344.46 L2203.73 1330.14 L2217.89 1347.67 L2232.05 1333.53 L2246.22 1330.7 L2260.38 1346.54 L2274.55 1370.78 L2288.71 1382.04 L2302.88 1377.44 L2317.04 1379.21 L2331.21 1389.18 L2345.37 1394.35 L2359.54 1383.06 L2373.7 1390.41 L2387.87 1412.83 L2402.03 1428.02 L2416.19 1424.55 L2430.36 1424.12 L2444.52 1417.16 L2458.69 1430.94 L2472.85 1414.28 L2487.02 1419.41 L2501.18 1410.43 L2515.35 1384.12 L2529.51 1376.09 L2543.68 1392.67 L2557.84 1400.41 L2572.01 1411.24 L2586.17 1400.6 L2600.34 1405.99 L2614.5 1389.67 L2628.66 1394.61 L2642.83 1403.42 L2656.99 1406.06 L2671.16 1380.79 L2685.32 1392.77 L2699.49 1401.83 L2713.65 1383.42 L2727.82 1361.96 L2741.98 1344.79 L2756.15 1361.06 L2770.31 1373.77 L2784.48 1360.38 L2798.64 1359.45 L2812.8 1351.06 L2826.97 1356.62 L2841.13 1352.85 L2855.3 1343.49 L2869.46 1348.37 L2883.63 1368.85 L2897.79 1381.21 L2911.96 1394.76 L2926.12 1401.76 L2940.29 1404.61 L2954.45 1402.84 L2968.62 1391.56 L2982.78 1411.49 L2996.94 1405.8 L3011.11 1411.09 L3025.27 1424.72 L3039.44 1419.9 L3053.6 1413.3 L3067.77 1403.24 L3067.77 175.18 L3053.6 228.028 L3039.44 191.181 L3025.27 235.336 L3011.11 176.989 L2996.94 180.984 L2982.78 100.122 L2968.62 106.449 L2954.45 133.081 L2940.29 148.773 L2926.12 197.95 L2911.96 289.314 L2897.79 270.616 L2883.63 280.602 L2869.46 253.332 L2855.3 235.022 L2841.13 266.922 L2826.97 231.058 L2812.8 240.539 L2798.64 281.606 L2784.48 351.717 L2770.31 367.374 L2756.15 371.641 L2741.98 335.251 L2727.82 327.905 L2713.65 329.168 L2699.49 358.73 L2685.32 333.841 L2671.16 398.553 L2656.99 412.391 L2642.83 422.825 L2628.66 388.099 L2614.5 381.787 L2600.34 376.899 L2586.17 393.494 L2572.01 409.616 L2557.84 404.321 L2543.68 347.428 L2529.51 321.686 L2515.35 314.23 L2501.18 328.113 L2487.02 317.764 L2472.85 326.965 L2458.69 284.327 L2444.52 339.367 L2430.36 363.437 L2416.19 314.761 L2402.03 274.923 L2387.87 305.217 L2373.7 297.016 L2359.54 302.569 L2345.37 279.831 L2331.21 257.242 L2317.04 204.508 L2302.88 174.649 L2288.71 140.735 L2274.55 136.684 L2260.38 106.005 L2246.22 108.657 L2232.05 144.883 L2217.89 185.69 L2203.73 185.439 L2189.56 196.647 L2175.4 254.882 L2161.23 251.428 L2147.07 280.973 L2132.9 242.46 L2118.74 176.604 L2104.57 176.703 L2090.41 165.354 L2076.24 180.654 L2062.08 230.77 L2047.91 304.754 L2033.75 272.056 L2019.58 357.573 L2005.42 350.084 L1991.26 350.96 L1977.09 364.623 L1962.93 365.851 L1948.76 352.991 L1934.6 361.259 L1920.43 342.34 L1906.27 376.321 L1892.1 378.785 L1877.94 404.787 L1863.77 416.906 L1849.61 409.666 L1835.44 393.822 L1821.28 412.965 L1807.12 394.243 L1792.95 402.556 L1778.79 381.833 L1764.62 373.067 L1750.46 366.449 L1736.29 330.304 L1722.13 351.943 L1707.96 333.434 L1693.8 338.934 L1679.63 349.582 L1665.47 325.714 L1651.3 285.113 L1637.14 248.372 L1622.98 233.123 L1608.81 177.728 L1594.65 147.864 L1580.48 131.121 L1566.32 129.81 L1552.15 139.967 L1537.99 144.246 L1523.82 153.087 L1509.66 133.415 L1495.49 125.88 L1481.33 155.177 L1467.16 179.11 L1453 156.136 L1438.83 158.524 L1424.67 147.957 L1410.51 179.518 L1396.34 271.441 L1382.18 224.88 L1368.01 272.772 L1353.85 300.079 L1339.68 319.395 L1325.52 355.141 L1311.35 366.072 L1297.19 364.366 L1283.02 371.456 L1268.86 399.544 L1254.69 423.371 L1240.53 395.191 L1226.37 403.672 L1212.2 370.571 L1198.04 329.632 L1183.87 405.456 L1169.71 464.568 L1155.54 442.933 L1141.38 507.842 L1127.21 575.273 L1113.05 530.546 L1098.88 516.336 L1084.72 499.779 L1070.55 473.414 L1056.39 408.16 L1042.23 464.96 L1028.06 467.161 L1013.9 475.042 L999.731 485.439 L985.567 462.059 L971.402 412.578 L957.237 345.349 L943.073 282.706 L928.908 237.336 L914.743 228.962 L900.579 247.46 L886.414 241.18 L872.249 209.275 L858.085 174.594 L843.92 152.799 L829.756 200.068 L815.591 227.252 L801.426 220.558 L787.262 225.435 L773.097 231.452 L758.932 266.277 L744.768 313.708 L730.603 327.732 L716.438 347.366 L702.274 392.221 L688.109 450.791 L673.944 521.854 L659.78 553.294 L645.615 599.999 L631.451 612.33 L617.286 709.934 L603.121 810.196 L588.957 889.706 L574.792 958.108 L560.627 1023.64 L546.463 1058.5 L532.298 1056.78 L518.133 1102.52 L503.969 1095.38 L489.804 1080.84 L475.64 1054.82 L461.475 1026.41 L447.31 995.735 L433.146 963.018 L418.981 925.903 L404.816 889.119 L390.652 845.957 L376.487 799.263 L362.322 756.38 L348.158 712.331 L333.993 676.029 L319.829 623.252 L305.664 584.411 L291.499 545.038 L277.335 516.304 L263.17 506.908 L249.005 522.959 L234.841 591.037  Z" fill="#e26f46" fill-rule="evenodd" fill-opacity="0.2"/>
<polyline clip-path="url(#clip101)" style="stroke:#e26f46; stroke-linecap:round; stroke-linejoin:round; stroke-width:12; stroke-opacity:1; fill:none" points="234.841,591.037 249.005,596.119 263.17,616.787 277.335,654.328 291.499,702.617 305.664,756.179 319.829,814.956 333.993,871.963 348.158,926.45 362.322,976.183 376.487,1029.45 390.652,1078.87 404.816,1120.94 418.981,1159.77 433.146,1194.86 447.31,1220.29 461.475,1241.22 475.64,1258.98 489.804,1276.15 503.969,1275.93 518.133,1270.95 532.298,1270.23 546.463,1251.85 560.627,1238.53 574.792,1219.53 588.957,1188.73 603.121,1158.7 617.286,1115.9 631.451,1071.89 645.615,1037.41 659.78,990.068 673.944,931.919 688.109,889.539 702.274,848.52 716.438,805.523 730.603,775.201 744.768,757.829 758.932,746.165 773.097,737.892 787.262,726.432 801.426,728.482 815.591,737.827 829.756,752.981 843.92,789.859 858.085,797.937 872.249,826.525 886.414,849.152 900.579,892.082 914.743,925.613 928.908,979.668 943.073,1032.49 957.237,1063.91 971.402,1074.2 985.567,1103.32 999.731,1117.34 1013.9,1108.49 1028.06,1113.43 1042.23,1117.23 1056.39,1123.53 1070.55,1111.02 1084.72,1092.14 1098.88,1095 1113.05,1088.9 1127.21,1077.19 1141.38,1069.46 1155.54,1056.71 1169.71,1035.4 1183.87,1045.37 1198.04,1032.22 1212.2,1028.72 1226.37,1033.12 1240.53,1035.08 1254.69,1014.16 1268.86,1021.98 1283.02,1001.37 1297.19,989.186 1311.35,979.019 1325.52,966.552 1339.68,974.823 1353.85,960.044 1368.01,956.353 1382.18,955.392 1396.34,957.85 1410.51,964.583 1424.67,965.588 1438.83,950.077 1453,950.835 1467.16,960.943 1481.33,974.334 1495.49,972.997 1509.66,974.473 1523.82,979.917 1537.99,1004.87 1552.15,999.97 1566.32,995.247 1580.48,1004.83 1594.65,1019.96 1608.81,1002.99 1622.98,999.434 1637.14,998.865 1651.3,992.331 1665.47,994.704 1679.63,992.828 1693.8,1004.88 1707.96,1020.14 1722.13,1020.8 1736.29,1027.15 1750.46,1036.49 1764.62,1034.86 1778.79,1029.66 1792.95,1025.87 1807.12,1027.93 1821.28,1031.53 1835.44,1033.63 1849.61,1030.87 1863.77,1041.74 1877.94,1027.98 1892.1,1031.23 1906.27,1028.27 1920.43,1027.47 1934.6,1033.61 1948.76,1035.97 1962.93,1024.08 1977.09,1024.35 1991.26,1016.26 2005.42,1025.5 2019.58,1025.46 2033.75,1006.45 2047.91,1005.81 2062.08,1007.33 2076.24,1009.18 2090.41,996.906 2104.57,991.082 2118.74,1000.7 2132.9,994.908 2147.07,1005.09 2161.23,999.304 2175.4,998.349 2189.56,1000.64 2203.73,998.166 2217.89,999.959 2232.05,991.084 2246.22,995.687 2260.38,997.288 2274.55,1001.92 2288.71,1002.76 2302.88,997.103 2317.04,1000.37 2331.21,1009.02 2345.37,1005.04 2359.54,998.057 2373.7,989.587 2387.87,991.071 2402.03,1007.52 2416.19,1013.88 2430.36,1010.93 2444.52,1036.58 2458.69,1042.31 2472.85,1038.03 2487.02,1038.92 2501.18,1025.19 2515.35,1015.37 2529.51,1015.13 2543.68,1024.59 2557.84,1022.04 2572.01,1034.7 2586.17,1027.1 2600.34,1019.2 2614.5,1013.52 2628.66,1007.44 2642.83,1019.34 2656.99,1040.12 2671.16,1024.52 2685.32,1016.97 2699.49,1021.18 2713.65,1019.86 2727.82,1009.46 2741.98,997.247 2756.15,1010.73 2770.31,1008.25 2784.48,1015.38 2798.64,1007.46 2812.8,1004.46 2826.97,997.582 2841.13,994.88 2855.3,993.882 2869.46,1007.57 2883.63,1018.31 2897.79,1024.46 2911.96,1022.7 2926.12,1021.31 2940.29,1006.61 2954.45,1025.94 2968.62,1021.04 2982.78,1015.22 2996.94,1022.95 3011.11,1032.23 3025.27,1037.32 3039.44,1028.09 3053.6,1036.34 3067.77,1021.85 "/>
</svg>
