<?xml version="1.0" encoding="utf-8"?>
<svg xmlns="http://www.w3.org/2000/svg" xmlns:xlink="http://www.w3.org/1999/xlink" width="600" height="400" viewBox="0 0 2400 1600">
<defs>
  <clipPath id="clip970">
    <rect x="0" y="0" width="2400" height="1600"/>
  </clipPath>
</defs>
<path clip-path="url(#clip970)" d="M0 1600 L2400 1600 L2400 0 L0 0  Z" fill="#ffffff" fill-rule="evenodd" fill-opacity="1"/>
<defs>
  <clipPath id="clip971">
    <rect x="480" y="0" width="1681" height="1600"/>
  </clipPath>
</defs>
<path clip-path="url(#clip970)" d="M186.274 1423.18 L2352.76 1423.18 L2352.76 47.2441 L186.274 47.2441  Z" fill="#ffffff" fill-rule="evenodd" fill-opacity="1"/>
<defs>
  <clipPath id="clip972">
    <rect x="186" y="47" width="2167" height="1377"/>
  </clipPath>
</defs>
<polyline clip-path="url(#clip972)" style="stroke:#000000; stroke-linecap:round; stroke-linejoin:round; stroke-width:2; stroke-opacity:0.1; fill:none" points="186.274,1423.18 186.274,47.2441 "/>
<polyline clip-path="url(#clip972)" style="stroke:#000000; stroke-linecap:round; stroke-linejoin:round; stroke-width:2; stroke-opacity:0.1; fill:none" points="619.57,1423.18 619.57,47.2441 "/>
<polyline clip-path="url(#clip972)" style="stroke:#000000; stroke-linecap:round; stroke-linejoin:round; stroke-width:2; stroke-opacity:0.1; fill:none" points="1052.87,1423.18 1052.87,47.2441 "/>
<polyline clip-path="url(#clip972)" style="stroke:#000000; stroke-linecap:round; stroke-linejoin:round; stroke-width:2; stroke-opacity:0.1; fill:none" points="1486.16,1423.18 1486.16,47.2441 "/>
<polyline clip-path="url(#clip972)" style="stroke:#000000; stroke-linecap:round; stroke-linejoin:round; stroke-width:2; stroke-opacity:0.1; fill:none" points="1919.46,1423.18 1919.46,47.2441 "/>
<polyline clip-path="url(#clip972)" style="stroke:#000000; stroke-linecap:round; stroke-linejoin:round; stroke-width:2; stroke-opacity:0.1; fill:none" points="2352.76,1423.18 2352.76,47.2441 "/>
<polyline clip-path="url(#clip970)" style="stroke:#000000; stroke-linecap:round; stroke-linejoin:round; stroke-width:4; stroke-opacity:1; fill:none" points="186.274,1423.18 2352.76,1423.18 "/>
<polyline clip-path="url(#clip970)" style="stroke:#000000; stroke-linecap:round; stroke-linejoin:round; stroke-width:4; stroke-opacity:1; fill:none" points="186.274,1423.18 186.274,1404.28 "/>
<polyline clip-path="url(#clip970)" style="stroke:#000000; stroke-linecap:round; stroke-linejoin:round; stroke-width:4; stroke-opacity:1; fill:none" points="619.57,1423.18 619.57,1404.28 "/>
<polyline clip-path="url(#clip970)" style="stroke:#000000; stroke-linecap:round; stroke-linejoin:round; stroke-width:4; stroke-opacity:1; fill:none" points="1052.87,1423.18 1052.87,1404.28 "/>
<polyline clip-path="url(#clip970)" style="stroke:#000000; stroke-linecap:round; stroke-linejoin:round; stroke-width:4; stroke-opacity:1; fill:none" points="1486.16,1423.18 1486.16,1404.28 "/>
<polyline clip-path="url(#clip970)" style="stroke:#000000; stroke-linecap:round; stroke-linejoin:round; stroke-width:4; stroke-opacity:1; fill:none" points="1919.46,1423.18 1919.46,1404.28 "/>
<polyline clip-path="url(#clip970)" style="stroke:#000000; stroke-linecap:round; stroke-linejoin:round; stroke-width:4; stroke-opacity:1; fill:none" points="2352.76,1423.18 2352.76,1404.28 "/>
<path clip-path="url(#clip970)" d="M186.274 1454.1 Q182.663 1454.1 180.834 1457.66 Q179.029 1461.2 179.029 1468.33 Q179.029 1475.44 180.834 1479.01 Q182.663 1482.55 186.274 1482.55 Q189.908 1482.55 191.714 1479.01 Q193.542 1475.44 193.542 1468.33 Q193.542 1461.2 191.714 1457.66 Q189.908 1454.1 186.274 1454.1 M186.274 1450.39 Q192.084 1450.39 195.14 1455 Q198.218 1459.58 198.218 1468.33 Q198.218 1477.06 195.14 1481.67 Q192.084 1486.25 186.274 1486.25 Q180.464 1486.25 177.385 1481.67 Q174.33 1477.06 174.33 1468.33 Q174.33 1459.58 177.385 1455 Q180.464 1450.39 186.274 1450.39 Z" fill="#000000" fill-rule="nonzero" fill-opacity="1" /><path clip-path="url(#clip970)" d="M614.223 1481.64 L630.543 1481.64 L630.543 1485.58 L608.598 1485.58 L608.598 1481.64 Q611.26 1478.89 615.844 1474.26 Q620.45 1469.61 621.631 1468.27 Q623.876 1465.74 624.756 1464.01 Q625.658 1462.25 625.658 1460.56 Q625.658 1457.8 623.714 1456.07 Q621.793 1454.33 618.691 1454.33 Q616.492 1454.33 614.038 1455.09 Q611.607 1455.86 608.83 1457.41 L608.83 1452.69 Q611.654 1451.55 614.107 1450.97 Q616.561 1450.39 618.598 1450.39 Q623.969 1450.39 627.163 1453.08 Q630.357 1455.77 630.357 1460.26 Q630.357 1462.39 629.547 1464.31 Q628.76 1466.2 626.654 1468.8 Q626.075 1469.47 622.973 1472.69 Q619.871 1475.88 614.223 1481.64 Z" fill="#000000" fill-rule="nonzero" fill-opacity="1" /><path clip-path="url(#clip970)" d="M1055.88 1455.09 L1044.07 1473.54 L1055.88 1473.54 L1055.88 1455.09 M1054.65 1451.02 L1060.53 1451.02 L1060.53 1473.54 L1065.46 1473.54 L1065.46 1477.43 L1060.53 1477.43 L1060.53 1485.58 L1055.88 1485.58 L1055.88 1477.43 L1040.27 1477.43 L1040.27 1472.92 L1054.65 1451.02 Z" fill="#000000" fill-rule="nonzero" fill-opacity="1" /><path clip-path="url(#clip970)" d="M1486.57 1466.44 Q1483.42 1466.44 1481.57 1468.59 Q1479.74 1470.74 1479.74 1474.49 Q1479.74 1478.22 1481.57 1480.39 Q1483.42 1482.55 1486.57 1482.55 Q1489.72 1482.55 1491.55 1480.39 Q1493.4 1478.22 1493.4 1474.49 Q1493.4 1470.74 1491.55 1468.59 Q1489.72 1466.44 1486.57 1466.44 M1495.85 1451.78 L1495.85 1456.04 Q1494.09 1455.21 1492.29 1454.77 Q1490.5 1454.33 1488.74 1454.33 Q1484.11 1454.33 1481.66 1457.45 Q1479.23 1460.58 1478.88 1466.9 Q1480.25 1464.89 1482.31 1463.82 Q1484.37 1462.73 1486.85 1462.73 Q1492.05 1462.73 1495.06 1465.9 Q1498.1 1469.05 1498.1 1474.49 Q1498.1 1479.82 1494.95 1483.03 Q1491.8 1486.25 1486.57 1486.25 Q1480.57 1486.25 1477.4 1481.67 Q1474.23 1477.06 1474.23 1468.33 Q1474.23 1460.14 1478.12 1455.28 Q1482.01 1450.39 1488.56 1450.39 Q1490.32 1450.39 1492.1 1450.74 Q1493.91 1451.09 1495.85 1451.78 Z" fill="#000000" fill-rule="nonzero" fill-opacity="1" /><path clip-path="url(#clip970)" d="M1919.46 1469.17 Q1916.13 1469.17 1914.2 1470.95 Q1912.31 1472.73 1912.31 1475.86 Q1912.31 1478.98 1914.2 1480.77 Q1916.13 1482.55 1919.46 1482.55 Q1922.79 1482.55 1924.71 1480.77 Q1926.64 1478.96 1926.64 1475.86 Q1926.64 1472.73 1924.71 1470.95 Q1922.82 1469.17 1919.46 1469.17 M1914.78 1467.18 Q1911.77 1466.44 1910.08 1464.38 Q1908.42 1462.32 1908.42 1459.35 Q1908.42 1455.21 1911.36 1452.8 Q1914.32 1450.39 1919.46 1450.39 Q1924.62 1450.39 1927.56 1452.8 Q1930.5 1455.21 1930.5 1459.35 Q1930.5 1462.32 1928.81 1464.38 Q1927.14 1466.44 1924.16 1467.18 Q1927.54 1467.96 1929.41 1470.26 Q1931.31 1472.55 1931.31 1475.86 Q1931.31 1480.88 1928.23 1483.57 Q1925.18 1486.25 1919.46 1486.25 Q1913.74 1486.25 1910.66 1483.57 Q1907.61 1480.88 1907.61 1475.86 Q1907.61 1472.55 1909.51 1470.26 Q1911.4 1467.96 1914.78 1467.18 M1913.07 1459.79 Q1913.07 1462.48 1914.74 1463.98 Q1916.43 1465.49 1919.46 1465.49 Q1922.47 1465.49 1924.16 1463.98 Q1925.87 1462.48 1925.87 1459.79 Q1925.87 1457.11 1924.16 1455.6 Q1922.47 1454.1 1919.46 1454.1 Q1916.43 1454.1 1914.74 1455.6 Q1913.07 1457.11 1913.07 1459.79 Z" fill="#000000" fill-rule="nonzero" fill-opacity="1" /><path clip-path="url(#clip970)" d="M2327.44 1481.64 L2335.08 1481.64 L2335.08 1455.28 L2326.77 1456.95 L2326.77 1452.69 L2335.04 1451.02 L2339.71 1451.02 L2339.71 1481.64 L2347.35 1481.64 L2347.35 1485.58 L2327.44 1485.58 L2327.44 1481.64 Z" fill="#000000" fill-rule="nonzero" fill-opacity="1" /><path clip-path="url(#clip970)" d="M2366.8 1454.1 Q2363.18 1454.1 2361.36 1457.66 Q2359.55 1461.2 2359.55 1468.33 Q2359.55 1475.44 2361.36 1479.01 Q2363.18 1482.55 2366.8 1482.55 Q2370.43 1482.55 2372.23 1479.01 Q2374.06 1475.44 2374.06 1468.33 Q2374.06 1461.2 2372.23 1457.66 Q2370.43 1454.1 2366.8 1454.1 M2366.8 1450.39 Q2372.61 1450.39 2375.66 1455 Q2378.74 1459.58 2378.74 1468.33 Q2378.74 1477.06 2375.66 1481.67 Q2372.61 1486.25 2366.8 1486.25 Q2360.99 1486.25 2357.91 1481.67 Q2354.85 1477.06 2354.85 1468.33 Q2354.85 1459.58 2357.91 1455 Q2360.99 1450.39 2366.8 1450.39 Z" fill="#000000" fill-rule="nonzero" fill-opacity="1" /><path clip-path="url(#clip970)" d="M1268.58 1522.27 L1268.58 1532.4 L1280.64 1532.4 L1280.64 1536.95 L1268.58 1536.95 L1268.58 1556.3 Q1268.58 1560.66 1269.75 1561.9 Q1270.96 1563.14 1274.62 1563.14 L1280.64 1563.14 L1280.64 1568.04 L1274.62 1568.04 Q1267.84 1568.04 1265.27 1565.53 Q1262.69 1562.98 1262.69 1556.3 L1262.69 1536.95 L1258.39 1536.95 L1258.39 1532.4 L1262.69 1532.4 L1262.69 1522.27 L1268.58 1522.27 Z" fill="#000000" fill-rule="nonzero" fill-opacity="1" /><polyline clip-path="url(#clip972)" style="stroke:#000000; stroke-linecap:round; stroke-linejoin:round; stroke-width:2; stroke-opacity:0.1; fill:none" points="186.274,1384.24 2352.76,1384.24 "/>
<polyline clip-path="url(#clip972)" style="stroke:#000000; stroke-linecap:round; stroke-linejoin:round; stroke-width:2; stroke-opacity:0.1; fill:none" points="186.274,1054.54 2352.76,1054.54 "/>
<polyline clip-path="url(#clip972)" style="stroke:#000000; stroke-linecap:round; stroke-linejoin:round; stroke-width:2; stroke-opacity:0.1; fill:none" points="186.274,724.834 2352.76,724.834 "/>
<polyline clip-path="url(#clip972)" style="stroke:#000000; stroke-linecap:round; stroke-linejoin:round; stroke-width:2; stroke-opacity:0.1; fill:none" points="186.274,395.132 2352.76,395.132 "/>
<polyline clip-path="url(#clip972)" style="stroke:#000000; stroke-linecap:round; stroke-linejoin:round; stroke-width:2; stroke-opacity:0.1; fill:none" points="186.274,65.4295 2352.76,65.4295 "/>
<polyline clip-path="url(#clip970)" style="stroke:#000000; stroke-linecap:round; stroke-linejoin:round; stroke-width:4; stroke-opacity:1; fill:none" points="186.274,1423.18 186.274,47.2441 "/>
<polyline clip-path="url(#clip970)" style="stroke:#000000; stroke-linecap:round; stroke-linejoin:round; stroke-width:4; stroke-opacity:1; fill:none" points="186.274,1384.24 205.172,1384.24 "/>
<polyline clip-path="url(#clip970)" style="stroke:#000000; stroke-linecap:round; stroke-linejoin:round; stroke-width:4; stroke-opacity:1; fill:none" points="186.274,1054.54 205.172,1054.54 "/>
<polyline clip-path="url(#clip970)" style="stroke:#000000; stroke-linecap:round; stroke-linejoin:round; stroke-width:4; stroke-opacity:1; fill:none" points="186.274,724.834 205.172,724.834 "/>
<polyline clip-path="url(#clip970)" style="stroke:#000000; stroke-linecap:round; stroke-linejoin:round; stroke-width:4; stroke-opacity:1; fill:none" points="186.274,395.132 205.172,395.132 "/>
<polyline clip-path="url(#clip970)" style="stroke:#000000; stroke-linecap:round; stroke-linejoin:round; stroke-width:4; stroke-opacity:1; fill:none" points="186.274,65.4295 205.172,65.4295 "/>
<path clip-path="url(#clip970)" d="M62.9365 1370.04 Q59.3254 1370.04 57.4967 1373.6 Q55.6912 1377.14 55.6912 1384.27 Q55.6912 1391.38 57.4967 1394.94 Q59.3254 1398.49 62.9365 1398.49 Q66.5707 1398.49 68.3763 1394.94 Q70.205 1391.38 70.205 1384.27 Q70.205 1377.14 68.3763 1373.6 Q66.5707 1370.04 62.9365 1370.04 M62.9365 1366.33 Q68.7467 1366.33 71.8022 1370.94 Q74.8809 1375.52 74.8809 1384.27 Q74.8809 1393 71.8022 1397.61 Q68.7467 1402.19 62.9365 1402.19 Q57.1264 1402.19 54.0477 1397.61 Q50.9921 1393 50.9921 1384.27 Q50.9921 1375.52 54.0477 1370.94 Q57.1264 1366.33 62.9365 1366.33 Z" fill="#000000" fill-rule="nonzero" fill-opacity="1" /><path clip-path="url(#clip970)" d="M83.0984 1395.64 L87.9827 1395.64 L87.9827 1401.52 L83.0984 1401.52 L83.0984 1395.64 Z" fill="#000000" fill-rule="nonzero" fill-opacity="1" /><path clip-path="url(#clip970)" d="M108.168 1370.04 Q104.557 1370.04 102.728 1373.6 Q100.922 1377.14 100.922 1384.27 Q100.922 1391.38 102.728 1394.94 Q104.557 1398.49 108.168 1398.49 Q111.802 1398.49 113.608 1394.94 Q115.436 1391.38 115.436 1384.27 Q115.436 1377.14 113.608 1373.6 Q111.802 1370.04 108.168 1370.04 M108.168 1366.33 Q113.978 1366.33 117.033 1370.94 Q120.112 1375.52 120.112 1384.27 Q120.112 1393 117.033 1397.61 Q113.978 1402.19 108.168 1402.19 Q102.358 1402.19 99.2789 1397.61 Q96.2234 1393 96.2234 1384.27 Q96.2234 1375.52 99.2789 1370.94 Q102.358 1366.33 108.168 1366.33 Z" fill="#000000" fill-rule="nonzero" fill-opacity="1" /><path clip-path="url(#clip970)" d="M138.33 1370.04 Q134.719 1370.04 132.89 1373.6 Q131.084 1377.14 131.084 1384.27 Q131.084 1391.38 132.89 1394.94 Q134.719 1398.49 138.33 1398.49 Q141.964 1398.49 143.769 1394.94 Q145.598 1391.38 145.598 1384.27 Q145.598 1377.14 143.769 1373.6 Q141.964 1370.04 138.33 1370.04 M138.33 1366.33 Q144.14 1366.33 147.195 1370.94 Q150.274 1375.52 150.274 1384.27 Q150.274 1393 147.195 1397.61 Q144.14 1402.19 138.33 1402.19 Q132.519 1402.19 129.441 1397.61 Q126.385 1393 126.385 1384.27 Q126.385 1375.52 129.441 1370.94 Q132.519 1366.33 138.33 1366.33 Z" fill="#000000" fill-rule="nonzero" fill-opacity="1" /><path clip-path="url(#clip970)" d="M63.9319 1040.33 Q60.3208 1040.33 58.4921 1043.9 Q56.6865 1047.44 56.6865 1054.57 Q56.6865 1061.68 58.4921 1065.24 Q60.3208 1068.78 63.9319 1068.78 Q67.5661 1068.78 69.3717 1065.24 Q71.2004 1061.68 71.2004 1054.57 Q71.2004 1047.44 69.3717 1043.9 Q67.5661 1040.33 63.9319 1040.33 M63.9319 1036.63 Q69.742 1036.63 72.7976 1041.24 Q75.8763 1045.82 75.8763 1054.57 Q75.8763 1063.3 72.7976 1067.9 Q69.742 1072.49 63.9319 1072.49 Q58.1217 1072.49 55.043 1067.9 Q51.9875 1063.3 51.9875 1054.57 Q51.9875 1045.82 55.043 1041.24 Q58.1217 1036.63 63.9319 1036.63 Z" fill="#000000" fill-rule="nonzero" fill-opacity="1" /><path clip-path="url(#clip970)" d="M84.0938 1065.94 L88.978 1065.94 L88.978 1071.82 L84.0938 1071.82 L84.0938 1065.94 Z" fill="#000000" fill-rule="nonzero" fill-opacity="1" /><path clip-path="url(#clip970)" d="M103.191 1067.88 L119.51 1067.88 L119.51 1071.82 L97.566 1071.82 L97.566 1067.88 Q100.228 1065.13 104.811 1060.5 Q109.418 1055.84 110.598 1054.5 Q112.844 1051.98 113.723 1050.24 Q114.626 1048.48 114.626 1046.79 Q114.626 1044.04 112.682 1042.3 Q110.76 1040.57 107.658 1040.57 Q105.459 1040.57 103.006 1041.33 Q100.575 1042.09 97.7974 1043.64 L97.7974 1038.92 Q100.621 1037.79 103.075 1037.21 Q105.529 1036.63 107.566 1036.63 Q112.936 1036.63 116.131 1039.32 Q119.325 1042 119.325 1046.49 Q119.325 1048.62 118.515 1050.54 Q117.728 1052.44 115.621 1055.03 Q115.043 1055.71 111.941 1058.92 Q108.839 1062.12 103.191 1067.88 Z" fill="#000000" fill-rule="nonzero" fill-opacity="1" /><path clip-path="url(#clip970)" d="M129.371 1037.26 L147.728 1037.26 L147.728 1041.19 L133.654 1041.19 L133.654 1049.66 Q134.672 1049.32 135.691 1049.15 Q136.709 1048.97 137.728 1048.97 Q143.515 1048.97 146.894 1052.14 Q150.274 1055.31 150.274 1060.73 Q150.274 1066.31 146.802 1069.41 Q143.33 1072.49 137.01 1072.49 Q134.834 1072.49 132.566 1072.12 Q130.32 1071.75 127.913 1071.01 L127.913 1066.31 Q129.996 1067.44 132.219 1068 Q134.441 1068.55 136.918 1068.55 Q140.922 1068.55 143.26 1066.45 Q145.598 1064.34 145.598 1060.73 Q145.598 1057.12 143.26 1055.01 Q140.922 1052.9 136.918 1052.9 Q135.043 1052.9 133.168 1053.32 Q131.316 1053.74 129.371 1054.62 L129.371 1037.26 Z" fill="#000000" fill-rule="nonzero" fill-opacity="1" /><path clip-path="url(#clip970)" d="M62.9365 710.633 Q59.3254 710.633 57.4967 714.197 Q55.6912 717.739 55.6912 724.869 Q55.6912 731.975 57.4967 735.54 Q59.3254 739.081 62.9365 739.081 Q66.5707 739.081 68.3763 735.54 Q70.205 731.975 70.205 724.869 Q70.205 717.739 68.3763 714.197 Q66.5707 710.633 62.9365 710.633 M62.9365 706.929 Q68.7467 706.929 71.8022 711.535 Q74.8809 716.119 74.8809 724.869 Q74.8809 733.595 71.8022 738.202 Q68.7467 742.785 62.9365 742.785 Q57.1264 742.785 54.0477 738.202 Q50.9921 733.595 50.9921 724.869 Q50.9921 716.119 54.0477 711.535 Q57.1264 706.929 62.9365 706.929 Z" fill="#000000" fill-rule="nonzero" fill-opacity="1" /><path clip-path="url(#clip970)" d="M83.0984 736.234 L87.9827 736.234 L87.9827 742.114 L83.0984 742.114 L83.0984 736.234 Z" fill="#000000" fill-rule="nonzero" fill-opacity="1" /><path clip-path="url(#clip970)" d="M98.2141 707.554 L116.57 707.554 L116.57 711.489 L102.496 711.489 L102.496 719.961 Q103.515 719.614 104.534 719.452 Q105.552 719.267 106.571 719.267 Q112.358 719.267 115.737 722.438 Q119.117 725.609 119.117 731.026 Q119.117 736.605 115.645 739.706 Q112.172 742.785 105.853 742.785 Q103.677 742.785 101.409 742.415 Q99.1632 742.044 96.7558 741.304 L96.7558 736.605 Q98.8391 737.739 101.061 738.294 Q103.284 738.85 105.76 738.85 Q109.765 738.85 112.103 736.744 Q114.441 734.637 114.441 731.026 Q114.441 727.415 112.103 725.308 Q109.765 723.202 105.76 723.202 Q103.885 723.202 102.01 723.619 Q100.159 724.035 98.2141 724.915 L98.2141 707.554 Z" fill="#000000" fill-rule="nonzero" fill-opacity="1" /><path clip-path="url(#clip970)" d="M138.33 710.633 Q134.719 710.633 132.89 714.197 Q131.084 717.739 131.084 724.869 Q131.084 731.975 132.89 735.54 Q134.719 739.081 138.33 739.081 Q141.964 739.081 143.769 735.54 Q145.598 731.975 145.598 724.869 Q145.598 717.739 143.769 714.197 Q141.964 710.633 138.33 710.633 M138.33 706.929 Q144.14 706.929 147.195 711.535 Q150.274 716.119 150.274 724.869 Q150.274 733.595 147.195 738.202 Q144.14 742.785 138.33 742.785 Q132.519 742.785 129.441 738.202 Q126.385 733.595 126.385 724.869 Q126.385 716.119 129.441 711.535 Q132.519 706.929 138.33 706.929 Z" fill="#000000" fill-rule="nonzero" fill-opacity="1" /><path clip-path="url(#clip970)" d="M63.9319 380.93 Q60.3208 380.93 58.4921 384.495 Q56.6865 388.037 56.6865 395.166 Q56.6865 402.273 58.4921 405.838 Q60.3208 409.379 63.9319 409.379 Q67.5661 409.379 69.3717 405.838 Q71.2004 402.273 71.2004 395.166 Q71.2004 388.037 69.3717 384.495 Q67.5661 380.93 63.9319 380.93 M63.9319 377.227 Q69.742 377.227 72.7976 381.833 Q75.8763 386.416 75.8763 395.166 Q75.8763 403.893 72.7976 408.5 Q69.742 413.083 63.9319 413.083 Q58.1217 413.083 55.043 408.5 Q51.9875 403.893 51.9875 395.166 Q51.9875 386.416 55.043 381.833 Q58.1217 377.227 63.9319 377.227 Z" fill="#000000" fill-rule="nonzero" fill-opacity="1" /><path clip-path="url(#clip970)" d="M84.0938 406.532 L88.978 406.532 L88.978 412.412 L84.0938 412.412 L84.0938 406.532 Z" fill="#000000" fill-rule="nonzero" fill-opacity="1" /><path clip-path="url(#clip970)" d="M97.9826 377.852 L120.205 377.852 L120.205 379.842 L107.658 412.412 L102.774 412.412 L114.58 381.787 L97.9826 381.787 L97.9826 377.852 Z" fill="#000000" fill-rule="nonzero" fill-opacity="1" /><path clip-path="url(#clip970)" d="M129.371 377.852 L147.728 377.852 L147.728 381.787 L133.654 381.787 L133.654 390.259 Q134.672 389.912 135.691 389.75 Q136.709 389.565 137.728 389.565 Q143.515 389.565 146.894 392.736 Q150.274 395.907 150.274 401.324 Q150.274 406.902 146.802 410.004 Q143.33 413.083 137.01 413.083 Q134.834 413.083 132.566 412.713 Q130.32 412.342 127.913 411.601 L127.913 406.902 Q129.996 408.037 132.219 408.592 Q134.441 409.148 136.918 409.148 Q140.922 409.148 143.26 407.041 Q145.598 404.935 145.598 401.324 Q145.598 397.713 143.26 395.606 Q140.922 393.5 136.918 393.5 Q135.043 393.5 133.168 393.916 Q131.316 394.333 129.371 395.213 L129.371 377.852 Z" fill="#000000" fill-rule="nonzero" fill-opacity="1" /><path clip-path="url(#clip970)" d="M53.7467 78.7743 L61.3856 78.7743 L61.3856 52.4087 L53.0754 54.0754 L53.0754 49.8161 L61.3393 48.1495 L66.0152 48.1495 L66.0152 78.7743 L73.654 78.7743 L73.654 82.7095 L53.7467 82.7095 L53.7467 78.7743 Z" fill="#000000" fill-rule="nonzero" fill-opacity="1" /><path clip-path="url(#clip970)" d="M83.0984 76.8299 L87.9827 76.8299 L87.9827 82.7095 L83.0984 82.7095 L83.0984 76.8299 Z" fill="#000000" fill-rule="nonzero" fill-opacity="1" /><path clip-path="url(#clip970)" d="M108.168 51.2282 Q104.557 51.2282 102.728 54.793 Q100.922 58.3346 100.922 65.4642 Q100.922 72.5706 102.728 76.1354 Q104.557 79.6771 108.168 79.6771 Q111.802 79.6771 113.608 76.1354 Q115.436 72.5706 115.436 65.4642 Q115.436 58.3346 113.608 54.793 Q111.802 51.2282 108.168 51.2282 M108.168 47.5245 Q113.978 47.5245 117.033 52.1309 Q120.112 56.7142 120.112 65.4642 Q120.112 74.191 117.033 78.7975 Q113.978 83.3808 108.168 83.3808 Q102.358 83.3808 99.2789 78.7975 Q96.2234 74.191 96.2234 65.4642 Q96.2234 56.7142 99.2789 52.1309 Q102.358 47.5245 108.168 47.5245 Z" fill="#000000" fill-rule="nonzero" fill-opacity="1" /><path clip-path="url(#clip970)" d="M138.33 51.2282 Q134.719 51.2282 132.89 54.793 Q131.084 58.3346 131.084 65.4642 Q131.084 72.5706 132.89 76.1354 Q134.719 79.6771 138.33 79.6771 Q141.964 79.6771 143.769 76.1354 Q145.598 72.5706 145.598 65.4642 Q145.598 58.3346 143.769 54.793 Q141.964 51.2282 138.33 51.2282 M138.33 47.5245 Q144.14 47.5245 147.195 52.1309 Q150.274 56.7142 150.274 65.4642 Q150.274 74.191 147.195 78.7975 Q144.14 83.3808 138.33 83.3808 Q132.519 83.3808 129.441 78.7975 Q126.385 74.191 126.385 65.4642 Q126.385 56.7142 129.441 52.1309 Q132.519 47.5245 138.33 47.5245 Z" fill="#000000" fill-rule="nonzero" fill-opacity="1" /><polyline clip-path="url(#clip972)" style="stroke:#009af9; stroke-linecap:round; stroke-linejoin:round; stroke-width:32; stroke-opacity:1; fill:none" points="186.274,1384.24 188.443,1384.21 190.611,1384.11 192.78,1383.95 194.949,1383.73 197.117,1383.45 199.286,1383.11 201.455,1382.71 203.623,1382.26 205.792,1381.76 207.961,1381.2 210.129,1380.59 212.298,1379.93 214.466,1379.23 216.635,1378.47 218.804,1377.67 220.972,1376.82 223.141,1375.93 225.31,1375 227.478,1374.02 229.647,1373 231.816,1371.95 233.984,1370.85 236.153,1369.71 238.322,1368.54 240.49,1367.33 242.659,1366.09 244.828,1364.81 246.996,1363.49 249.165,1362.14 251.334,1360.76 253.502,1359.35 255.671,1357.91 257.839,1356.44 260.008,1354.93 262.177,1353.4 264.345,1351.84 266.514,1350.25 268.683,1348.64 270.851,1347 273.02,1345.33 275.189,1343.64 277.357,1341.92 279.526,1340.18 281.695,1338.42 283.863,1336.63 286.032,1334.82 288.201,1332.99 290.369,1331.14 292.538,1329.26 294.707,1327.37 296.875,1325.45 299.044,1323.52 301.212,1321.57 303.381,1319.6 305.55,1317.61 307.718,1315.6 309.887,1313.57 312.056,1311.53 314.224,1309.47 316.393,1307.4 318.562,1305.31 320.73,1303.2 322.899,1301.08 325.068,1298.95 327.236,1296.8 329.405,1294.63 331.574,1292.45 333.742,1290.26 335.911,1288.06 338.08,1285.84 340.248,1283.61 342.417,1281.37 344.585,1279.12 346.754,1276.85 348.923,1274.58 351.091,1272.29 353.26,1269.99 355.429,1267.68 357.597,1265.37 359.766,1263.04 361.935,1260.7 364.103,1258.35 366.272,1255.99 368.441,1253.63 370.609,1251.25 372.778,1248.87 374.947,1246.48 377.115,1244.08 379.284,1241.67 381.453,1239.26 383.621,1236.84 385.79,1234.41 387.959,1231.97 390.127,1229.53 392.296,1227.08 394.464,1224.62 396.633,1222.16 398.802,1219.69 400.97,1217.22 403.139,1214.74 405.308,1212.25 407.476,1209.76 409.645,1207.27 411.814,1204.77 413.982,1202.26 416.151,1199.75 418.32,1197.24 420.488,1194.72 422.657,1192.19 424.826,1189.66 426.994,1187.13 429.163,1184.6 431.332,1182.06 433.5,1179.52 435.669,1176.97 437.837,1174.42 440.006,1171.87 442.175,1169.31 444.343,1166.76 446.512,1164.19 448.681,1161.63 450.849,1159.07 453.018,1156.5 455.187,1153.93 457.355,1151.35 459.524,1148.78 461.693,1146.2 463.861,1143.63 466.03,1141.05 468.199,1138.46 470.367,1135.88 472.536,1133.3 474.705,1130.71 476.873,1128.12 479.042,1125.54 481.21,1122.95 483.379,1120.36 485.548,1117.77 487.716,1115.18 489.885,1112.58 492.054,1109.99 494.222,1107.4 496.391,1104.81 498.56,1102.21 500.728,1099.62 502.897,1097.02 505.066,1094.43 507.234,1091.84 509.403,1089.24 511.572,1086.65 513.74,1084.06 515.909,1081.46 518.078,1078.87 520.246,1076.28 522.415,1073.69 524.583,1071.1 526.752,1068.51 528.921,1065.92 531.089,1063.33 533.258,1060.74 535.427,1058.15 537.595,1055.57 539.764,1052.98 541.933,1050.4 544.101,1047.82 546.27,1045.24 548.439,1042.66 550.607,1040.08 552.776,1037.5 554.945,1034.93 557.113,1032.35 559.282,1029.78 561.451,1027.21 563.619,1024.64 565.788,1022.08 567.956,1019.51 570.125,1016.95 572.294,1014.39 574.462,1011.83 576.631,1009.27 578.8,1006.71 580.968,1004.16 583.137,1001.61 585.306,999.061 587.474,996.515 589.643,993.97 591.812,991.428 593.98,988.889 596.149,986.352 598.318,983.817 600.486,981.284 602.655,978.755 604.824,976.227 606.992,973.703 609.161,971.181 611.33,968.662 613.498,966.145 615.667,963.631 617.835,961.12 620.004,958.612 622.173,956.107 624.341,953.604 626.51,951.105 628.679,948.608 630.847,946.115 633.016,943.624 635.185,941.137 637.353,938.652 639.522,936.171 641.691,933.693 643.859,931.218 646.028,928.747 648.197,926.278 650.365,923.813 652.534,921.351 654.703,918.893 656.871,916.438 659.04,913.986 661.208,911.538 663.377,909.093 665.546,906.651 667.714,904.213 669.883,901.779 672.052,899.348 674.22,896.921 676.389,894.497 678.558,892.077 680.726,889.661 682.895,887.248 685.064,884.839 687.232,882.433 689.401,880.031 691.57,877.633 693.738,875.239 695.907,872.848 698.076,870.461 700.244,868.078 702.413,865.699 704.581,863.324 706.75,860.953 708.919,858.585 711.087,856.221 713.256,853.862 715.425,851.506 717.593,849.154 719.762,846.806 721.931,844.462 724.099,842.122 726.268,839.786 728.437,837.454 730.605,835.126 732.774,832.803 734.943,830.483 737.111,828.167 739.28,825.856 741.449,823.549 743.617,821.245 745.786,818.946 747.954,816.651 750.123,814.361 752.292,812.074 754.46,809.792 756.629,807.514 758.798,805.24 760.966,802.97 763.135,800.705 765.304,798.444 767.472,796.187 769.641,793.935 771.81,791.687 773.978,789.443 776.147,787.204 778.316,784.968 780.484,782.738 782.653,780.511 784.822,778.289 786.99,776.072 789.159,773.858 791.328,771.65 793.496,769.445 795.665,767.245 797.833,765.05 800.002,762.859 802.171,760.672 804.339,758.49 806.508,756.312 808.677,754.139 810.845,751.97 813.014,749.806 815.183,747.646 817.351,745.49 819.52,743.34 821.689,741.193 823.857,739.051 826.026,736.914 828.195,734.781 830.363,732.653 832.532,730.529 834.701,728.41 836.869,726.295 839.038,724.185 841.206,722.08 843.375,719.979 845.544,717.882 847.712,715.79 849.881,713.703 852.05,711.62 854.218,709.542 856.387,707.468 858.556,705.399 860.724,703.335 862.893,701.275 865.062,699.22 867.23,697.169 869.399,695.123 871.568,693.082 873.736,691.045 875.905,689.013 878.074,686.985 880.242,684.962 882.411,682.944 884.579,680.93 886.748,678.921 888.917,676.917 891.085,674.917 893.254,672.922 895.423,670.931 897.591,668.945 899.76,666.964 901.929,664.988 904.097,663.016 906.266,661.048 908.435,659.086 910.603,657.128 912.772,655.175 914.941,653.226 917.109,651.282 919.278,649.343 921.447,647.408 923.615,645.478 925.784,643.553 927.952,641.632 930.121,639.717 932.29,637.805 934.458,635.899 936.627,633.997 938.796,632.1 940.964,630.207 943.133,628.319 945.302,626.436 947.47,624.558 949.639,622.684 951.808,620.815 953.976,618.951 956.145,617.091 958.314,615.236 960.482,613.385 962.651,611.539 964.82,609.698 966.988,607.862 969.157,606.03 971.326,604.203 973.494,602.38 975.663,600.562 977.831,598.749 980,596.941 982.169,595.137 984.337,593.337 986.506,591.543 988.675,589.752 990.843,587.967 993.012,586.186 995.181,584.41 997.349,582.638 999.518,580.871 1001.69,579.109 1003.86,577.351 1006.02,575.598 1008.19,573.85 1010.36,572.106 1012.53,570.366 1014.7,568.632 1016.87,566.902 1019.04,565.176 1021.2,563.455 1023.37,561.739 1025.54,560.027 1027.71,558.32 1029.88,556.617 1032.05,554.919 1034.22,553.225 1036.39,551.536 1038.55,549.852 1040.72,548.172 1042.89,546.497 1045.06,544.826 1047.23,543.16 1049.4,541.498 1051.57,539.841 1053.73,538.188 1055.9,536.54 1058.07,534.897 1060.24,533.258 1062.41,531.623 1064.58,529.993 1066.75,528.368 1068.91,526.747 1071.08,525.13 1073.25,523.518 1075.42,521.911 1077.59,520.308 1079.76,518.71 1081.93,517.116 1084.1,515.526 1086.26,513.941 1088.43,512.361 1090.6,510.785 1092.77,509.213 1094.94,507.646 1097.11,506.083 1099.28,504.525 1101.44,502.971 1103.61,501.422 1105.78,499.877 1107.95,498.336 1110.12,496.8 1112.29,495.269 1114.46,493.742 1116.63,492.219 1118.79,490.701 1120.96,489.187 1123.13,487.677 1125.3,486.172 1127.47,484.671 1129.64,483.175 1131.81,481.683 1133.97,480.195 1136.14,478.712 1138.31,477.233 1140.48,475.758 1142.65,474.288 1144.82,472.822 1146.99,471.36 1149.15,469.902 1151.32,468.449 1153.49,467.001 1155.66,465.556 1157.83,464.116 1160,462.68 1162.17,461.248 1164.34,459.821 1166.5,458.397 1168.67,456.978 1170.84,455.564 1173.01,454.153 1175.18,452.747 1177.35,451.345 1179.52,449.947 1181.68,448.553 1183.85,447.164 1186.02,445.779 1188.19,444.398 1190.36,443.021 1192.53,441.648 1194.7,440.279 1196.87,438.915 1199.03,437.555 1201.2,436.199 1203.37,434.847 1205.54,433.499 1207.71,432.155 1209.88,430.815 1212.05,429.48 1214.21,428.148 1216.38,426.821 1218.55,425.497 1220.72,424.178 1222.89,422.863 1225.06,421.552 1227.23,420.245 1229.39,418.942 1231.56,417.643 1233.73,416.348 1235.9,415.057 1238.07,413.77 1240.24,412.487 1242.41,411.209 1244.58,409.934 1246.74,408.663 1248.91,407.396 1251.08,406.133 1253.25,404.874 1255.42,403.619 1257.59,402.368 1259.76,401.121 1261.92,399.878 1264.09,398.639 1266.26,397.404 1268.43,396.172 1270.6,394.945 1272.77,393.721 1274.94,392.502 1277.11,391.286 1279.27,390.074 1281.44,388.866 1283.61,387.662 1285.78,386.462 1287.95,385.266 1290.12,384.073 1292.29,382.885 1294.45,381.7 1296.62,380.519 1298.79,379.342 1300.96,378.169 1303.13,376.999 1305.3,375.834 1307.47,374.672 1309.63,373.514 1311.8,372.359 1313.97,371.209 1316.14,370.062 1318.31,368.919 1320.48,367.78 1322.65,366.644 1324.82,365.512 1326.98,364.384 1329.15,363.259 1331.32,362.139 1333.49,361.022 1335.66,359.908 1337.83,358.798 1340,357.692 1342.16,356.59 1344.33,355.491 1346.5,354.396 1348.67,353.304 1350.84,352.216 1353.01,351.132 1355.18,350.051 1357.35,348.974 1359.51,347.9 1361.68,346.83 1363.85,345.764 1366.02,344.701 1368.19,343.641 1370.36,342.585 1372.53,341.533 1374.69,340.484 1376.86,339.439 1379.03,338.397 1381.2,337.359 1383.37,336.324 1385.54,335.292 1387.71,334.265 1389.88,333.24 1392.04,332.219 1394.21,331.201 1396.38,330.187 1398.55,329.177 1400.72,328.169 1402.89,327.165 1405.06,326.165 1407.22,325.168 1409.39,324.174 1411.56,323.184 1413.73,322.197 1415.9,321.213 1418.07,320.233 1420.24,319.256 1422.4,318.282 1424.57,317.312 1426.74,316.345 1428.91,315.381 1431.08,314.421 1433.25,313.463 1435.42,312.51 1437.59,311.559 1439.75,310.612 1441.92,309.668 1444.09,308.727 1446.26,307.79 1448.43,306.855 1450.6,305.924 1452.77,304.996 1454.93,304.072 1457.1,303.15 1459.27,302.232 1461.44,301.317 1463.61,300.405 1465.78,299.497 1467.95,298.591 1470.12,297.689 1472.28,296.789 1474.45,295.893 1476.62,295 1478.79,294.111 1480.96,293.224 1483.13,292.34 1485.3,291.46 1487.46,290.583 1489.63,289.708 1491.8,288.837 1493.97,287.969 1496.14,287.104 1498.31,286.242 1500.48,285.383 1502.64,284.527 1504.81,283.674 1506.98,282.825 1509.15,281.978 1511.32,281.134 1513.49,280.293 1515.66,279.455 1517.83,278.621 1519.99,277.789 1522.16,276.96 1524.33,276.134 1526.5,275.311 1528.67,274.491 1530.84,273.674 1533.01,272.859 1535.17,272.048 1537.34,271.24 1539.51,270.434 1541.68,269.632 1543.85,268.832 1546.02,268.035 1548.19,267.241 1550.36,266.45 1552.52,265.661 1554.69,264.876 1556.86,264.093 1559.03,263.313 1561.2,262.536 1563.37,261.762 1565.54,260.99 1567.7,260.221 1569.87,259.455 1572.04,258.692 1574.21,257.932 1576.38,257.174 1578.55,256.419 1580.72,255.667 1582.88,254.917 1585.05,254.17 1587.22,253.426 1589.39,252.685 1591.56,251.946 1593.73,251.21 1595.9,250.476 1598.07,249.746 1600.23,249.018 1602.4,248.292 1604.57,247.569 1606.74,246.849 1608.91,246.132 1611.08,245.417 1613.25,244.704 1615.41,243.995 1617.58,243.288 1619.75,242.583 1621.92,241.881 1624.09,241.182 1626.26,240.485 1628.43,239.791 1630.6,239.099 1632.76,238.41 1634.93,237.723 1637.1,237.039 1639.27,236.357 1641.44,235.678 1643.61,235.002 1645.78,234.327 1647.94,233.656 1650.11,232.987 1652.28,232.32 1654.45,231.656 1656.62,230.994 1658.79,230.335 1660.96,229.678 1663.13,229.023 1665.29,228.371 1667.46,227.722 1669.63,227.075 1671.8,226.43 1673.97,225.787 1676.14,225.147 1678.31,224.51 1680.47,223.875 1682.64,223.242 1684.81,222.611 1686.98,221.983 1689.15,221.357 1691.32,220.734 1693.49,220.113 1695.65,219.494 1697.82,218.878 1699.99,218.264 1702.16,217.652 1704.33,217.042 1706.5,216.435 1708.67,215.83 1710.84,215.227 1713,214.627 1715.17,214.029 1717.34,213.433 1719.51,212.839 1721.68,212.248 1723.85,211.659 1726.02,211.072 1728.18,210.487 1730.35,209.905 1732.52,209.325 1734.69,208.747 1736.86,208.171 1739.03,207.597 1741.2,207.026 1743.37,206.456 1745.53,205.889 1747.7,205.324 1749.87,204.761 1752.04,204.2 1754.21,203.642 1756.38,203.085 1758.55,202.531 1760.71,201.978 1762.88,201.428 1765.05,200.88 1767.22,200.334 1769.39,199.79 1771.56,199.248 1773.73,198.709 1775.89,198.171 1778.06,197.635 1780.23,197.101 1782.4,196.57 1784.57,196.04 1786.74,195.513 1788.91,194.987 1791.08,194.463 1793.24,193.942 1795.41,193.422 1797.58,192.905 1799.75,192.389 1801.92,191.876 1804.09,191.364 1806.26,190.854 1808.42,190.346 1810.59,189.841 1812.76,189.337 1814.93,188.835 1817.1,188.335 1819.27,187.837 1821.44,187.341 1823.61,186.846 1825.77,186.354 1827.94,185.863 1830.11,185.375 1832.28,184.888 1834.45,184.403 1836.62,183.92 1838.79,183.439 1840.95,182.96 1843.12,182.483 1845.29,182.007 1847.46,181.533 1849.63,181.061 1851.8,180.591 1853.97,180.123 1856.13,179.657 1858.3,179.192 1860.47,178.729 1862.64,178.268 1864.81,177.809 1866.98,177.351 1869.15,176.896 1871.32,176.442 1873.48,175.989 1875.65,175.539 1877.82,175.09 1879.99,174.643 1882.16,174.198 1884.33,173.755 1886.5,173.313 1888.66,172.873 1890.83,172.435 1893,171.998 1895.17,171.563 1897.34,171.13 1899.51,170.698 1901.68,170.269 1903.85,169.841 1906.01,169.414 1908.18,168.989 1910.35,168.566 1912.52,168.145 1914.69,167.725 1916.86,167.307 1919.03,166.89 1921.19,166.475 1923.36,166.062 1925.53,165.65 1927.7,165.24 1929.87,164.832 1932.04,164.425 1934.21,164.02 1936.37,163.617 1938.54,163.215 1940.71,162.814 1942.88,162.415 1945.05,162.018 1947.22,161.622 1949.39,161.228 1951.56,160.836 1953.72,160.445 1955.89,160.055 1958.06,159.667 1960.23,159.281 1962.4,158.896 1964.57,158.513 1966.74,158.131 1968.9,157.751 1971.07,157.372 1973.24,156.994 1975.41,156.619 1977.58,156.244 1979.75,155.871 1981.92,155.5 1984.09,155.13 1986.25,154.762 1988.42,154.395 1990.59,154.029 1992.76,153.665 1994.93,153.302 1997.1,152.941 1999.27,152.581 2001.43,152.223 2003.6,151.866 2005.77,151.51 2007.94,151.156 2010.11,150.804 2012.28,150.452 2014.45,150.102 2016.62,149.754 2018.78,149.407 2020.95,149.061 2023.12,148.717 2025.29,148.374 2027.46,148.032 2029.63,147.692 2031.8,147.353 2033.96,147.015 2036.13,146.679 2038.3,146.344 2040.47,146.01 2042.64,145.678 2044.81,145.347 2046.98,145.018 2049.14,144.689 2051.31,144.362 2053.48,144.037 2055.65,143.712 2057.82,143.389 2059.99,143.067 2062.16,142.747 2064.33,142.428 2066.49,142.11 2068.66,141.793 2070.83,141.478 2073,141.163 2075.17,140.851 2077.34,140.539 2079.51,140.228 2081.67,139.919 2083.84,139.611 2086.01,139.305 2088.18,138.999 2090.35,138.695 2092.52,138.392 2094.69,138.09 2096.86,137.79 2099.02,137.49 2101.19,137.192 2103.36,136.895 2105.53,136.599 2107.7,136.305 2109.87,136.011 2112.04,135.719 2114.2,135.428 2116.37,135.138 2118.54,134.849 2120.71,134.562 2122.88,134.275 2125.05,133.99 2127.22,133.706 2129.38,133.423 2131.55,133.141 2133.72,132.86 2135.89,132.581 2138.06,132.302 2140.23,132.025 2142.4,131.749 2144.57,131.474 2146.73,131.2 2148.9,130.927 2151.07,130.655 2153.24,130.384 2155.41,130.115 2157.58,129.846 2159.75,129.579 2161.91,129.313 2164.08,129.048 2166.25,128.783 2168.42,128.52 2170.59,128.258 2172.76,127.998 2174.93,127.738 2177.1,127.479 2179.26,127.221 2181.43,126.964 2183.6,126.709 2185.77,126.454 2187.94,126.201 2190.11,125.948 2192.28,125.696 2194.44,125.446 2196.61,125.196 2198.78,124.948 2200.95,124.7 2203.12,124.454 2205.29,124.208 2207.46,123.964 2209.62,123.72 2211.79,123.478 2213.96,123.236 2216.13,122.996 2218.3,122.756 2220.47,122.518 2222.64,122.28 2224.81,122.044 2226.97,121.808 2229.14,121.573 2231.31,121.339 2233.48,121.107 2235.65,120.875 2237.82,120.644 2239.99,120.414 2242.15,120.185 2244.32,119.957 2246.49,119.729 2248.66,119.503 2250.83,119.278 2253,119.053 2255.17,118.83 2257.34,118.607 2259.5,118.386 2261.67,118.165 2263.84,117.945 2266.01,117.726 2268.18,117.508 2270.35,117.291 2272.52,117.075 2274.68,116.859 2276.85,116.645 2279.02,116.431 2281.19,116.218 2283.36,116.006 2285.53,115.795 2287.7,115.585 2289.87,115.376 2292.03,115.167 2294.2,114.96 2296.37,114.753 2298.54,114.547 2300.71,114.342 2302.88,114.137 2305.05,113.934 2307.21,113.731 2309.38,113.53 2311.55,113.329 2313.72,113.129 2315.89,112.929 2318.06,112.731 2320.23,112.533 2322.39,112.337 2324.56,112.141 2326.73,111.945 2328.9,111.751 2331.07,111.557 2333.24,111.364 2335.41,111.172 2337.58,110.981 2339.74,110.791 2341.91,110.601 2344.08,110.412 2346.25,110.224 2348.42,110.037 2350.59,109.85 2352.76,109.664 "/>
<circle clip-path="url(#clip972)" cx="402.922" cy="1248.39" r="21.6" fill="#0000ff" fill-rule="evenodd" fill-opacity="1" stroke="#000000" stroke-opacity="1" stroke-width="3.2"/>
<circle clip-path="url(#clip972)" cx="619.57" cy="1005.06" r="21.6" fill="#0000ff" fill-rule="evenodd" fill-opacity="1" stroke="#000000" stroke-opacity="1" stroke-width="3.2"/>
<circle clip-path="url(#clip972)" cx="836.219" cy="748.349" r="21.6" fill="#0000ff" fill-rule="evenodd" fill-opacity="1" stroke="#000000" stroke-opacity="1" stroke-width="3.2"/>
<circle clip-path="url(#clip972)" cx="1052.87" cy="465.978" r="21.6" fill="#0000ff" fill-rule="evenodd" fill-opacity="1" stroke="#000000" stroke-opacity="1" stroke-width="3.2"/>
<circle clip-path="url(#clip972)" cx="1269.51" cy="422.6" r="21.6" fill="#0000ff" fill-rule="evenodd" fill-opacity="1" stroke="#000000" stroke-opacity="1" stroke-width="3.2"/>
<circle clip-path="url(#clip972)" cx="1486.16" cy="195.164" r="21.6" fill="#0000ff" fill-rule="evenodd" fill-opacity="1" stroke="#000000" stroke-opacity="1" stroke-width="3.2"/>
<circle clip-path="url(#clip972)" cx="1702.81" cy="344.764" r="21.6" fill="#0000ff" fill-rule="evenodd" fill-opacity="1" stroke="#000000" stroke-opacity="1" stroke-width="3.2"/>
<circle clip-path="url(#clip972)" cx="1919.46" cy="242.828" r="21.6" fill="#0000ff" fill-rule="evenodd" fill-opacity="1" stroke="#000000" stroke-opacity="1" stroke-width="3.2"/>
<circle clip-path="url(#clip972)" cx="2136.11" cy="86.1857" r="21.6" fill="#0000ff" fill-rule="evenodd" fill-opacity="1" stroke="#000000" stroke-opacity="1" stroke-width="3.2"/>
<circle clip-path="url(#clip972)" cx="2352.76" cy="172.687" r="21.6" fill="#0000ff" fill-rule="evenodd" fill-opacity="1" stroke="#000000" stroke-opacity="1" stroke-width="3.2"/>
<polyline clip-path="url(#clip972)" style="stroke:#add8e6; stroke-linecap:round; stroke-linejoin:round; stroke-width:24; stroke-opacity:1; fill:none" stroke-dasharray="96, 60" points="186.274,1384.24 188.443,1384.21 190.611,1384.14 192.78,1384.03 194.949,1383.86 197.117,1383.66 199.286,1383.41 201.455,1383.11 203.623,1382.77 205.792,1382.39 207.961,1381.97 210.129,1381.5 212.298,1381 214.466,1380.45 216.635,1379.87 218.804,1379.24 220.972,1378.58 223.141,1377.88 225.31,1377.14 227.478,1376.36 229.647,1375.55 231.816,1374.71 233.984,1373.82 236.153,1372.91 238.322,1371.95 240.49,1370.97 242.659,1369.95 244.828,1368.9 246.996,1367.81 249.165,1366.7 251.334,1365.55 253.502,1364.37 255.671,1363.16 257.839,1361.92 260.008,1360.66 262.177,1359.36 264.345,1358.03 266.514,1356.68 268.683,1355.3 270.851,1353.89 273.02,1352.45 275.189,1350.99 277.357,1349.5 279.526,1347.98 281.695,1346.44 283.863,1344.88 286.032,1343.29 288.201,1341.68 290.369,1340.04 292.538,1338.38 294.707,1336.69 296.875,1334.99 299.044,1333.26 301.212,1331.51 303.381,1329.74 305.55,1327.95 307.718,1326.13 309.887,1324.3 312.056,1322.44 314.224,1320.57 316.393,1318.68 318.562,1316.76 320.73,1314.83 322.899,1312.88 325.068,1310.92 327.236,1308.93 329.405,1306.93 331.574,1304.91 333.742,1302.87 335.911,1300.82 338.08,1298.75 340.248,1296.66 342.417,1294.56 344.585,1292.44 346.754,1290.31 348.923,1288.16 351.091,1286 353.26,1283.83 355.429,1281.64 357.597,1279.43 359.766,1277.22 361.935,1274.99 364.103,1272.75 366.272,1270.49 368.441,1268.22 370.609,1265.94 372.778,1263.65 374.947,1261.35 377.115,1259.03 379.284,1256.7 381.453,1254.37 383.621,1252.02 385.79,1249.66 387.959,1247.29 390.127,1244.91 392.296,1242.52 394.464,1240.12 396.633,1237.72 398.802,1235.3 400.97,1232.87 403.139,1230.44 405.308,1227.99 407.476,1225.54 409.645,1223.08 411.814,1220.61 413.982,1218.14 416.151,1215.66 418.32,1213.17 420.488,1210.67 422.657,1208.16 424.826,1205.65 426.994,1203.13 429.163,1200.61 431.332,1198.08 433.5,1195.54 435.669,1193 437.837,1190.45 440.006,1187.89 442.175,1185.33 444.343,1182.77 446.512,1180.2 448.681,1177.62 450.849,1175.04 453.018,1172.46 455.187,1169.87 457.355,1167.28 459.524,1164.68 461.693,1162.08 463.861,1159.47 466.03,1156.86 468.199,1154.25 470.367,1151.64 472.536,1149.02 474.705,1146.39 476.873,1143.77 479.042,1141.14 481.21,1138.51 483.379,1135.88 485.548,1133.24 487.716,1130.6 489.885,1127.96 492.054,1125.32 494.222,1122.67 496.391,1120.03 498.56,1117.38 500.728,1114.73 502.897,1112.08 505.066,1109.43 507.234,1106.77 509.403,1104.12 511.572,1101.46 513.74,1098.8 515.909,1096.14 518.078,1093.49 520.246,1090.83 522.415,1088.17 524.583,1085.5 526.752,1082.84 528.921,1080.18 531.089,1077.52 533.258,1074.86 535.427,1072.2 537.595,1069.54 539.764,1066.88 541.933,1064.22 544.101,1061.56 546.27,1058.9 548.439,1056.24 550.607,1053.58 552.776,1050.92 554.945,1048.27 557.113,1045.61 559.282,1042.96 561.451,1040.3 563.619,1037.65 565.788,1035 567.956,1032.35 570.125,1029.7 572.294,1027.06 574.462,1024.41 576.631,1021.77 578.8,1019.13 580.968,1016.49 583.137,1013.85 585.306,1011.21 587.474,1008.58 589.643,1005.95 591.812,1003.32 593.98,1000.69 596.149,998.063 598.318,995.44 600.486,992.82 602.655,990.202 604.824,987.586 606.992,984.973 609.161,982.362 611.33,979.754 613.498,977.149 615.667,974.547 617.835,971.947 620.004,969.35 622.173,966.757 624.341,964.166 626.51,961.578 628.679,958.993 630.847,956.412 633.016,953.834 635.185,951.259 637.353,948.687 639.522,946.118 641.691,943.553 643.859,940.992 646.028,938.434 648.197,935.879 650.365,933.328 652.534,930.781 654.703,928.237 656.871,925.697 659.04,923.16 661.208,920.628 663.377,918.099 665.546,915.574 667.714,913.053 669.883,910.536 672.052,908.023 674.22,905.514 676.389,903.009 678.558,900.508 680.726,898.011 682.895,895.519 685.064,893.03 687.232,890.546 689.401,888.066 691.57,885.59 693.738,883.119 695.907,880.652 698.076,878.189 700.244,875.731 702.413,873.277 704.581,870.827 706.75,868.383 708.919,865.942 711.087,863.506 713.256,861.075 715.425,858.648 717.593,856.226 719.762,853.808 721.931,851.395 724.099,848.987 726.268,846.583 728.437,844.185 730.605,841.79 732.774,839.401 734.943,837.016 737.111,834.636 739.28,832.261 741.449,829.891 743.617,827.525 745.786,825.165 747.954,822.809 750.123,820.458 752.292,818.112 754.46,815.771 756.629,813.435 758.798,811.104 760.966,808.778 763.135,806.457 765.304,804.141 767.472,801.829 769.641,799.523 771.81,797.222 773.978,794.926 776.147,792.635 778.316,790.349 780.484,788.069 782.653,785.793 784.822,783.522 786.99,781.257 789.159,778.997 791.328,776.742 793.496,774.492 795.665,772.247 797.833,770.008 800.002,767.774 802.171,765.544 804.339,763.321 806.508,761.102 808.677,758.889 810.845,756.681 813.014,754.478 815.183,752.28 817.351,750.088 819.52,747.901 821.689,745.719 823.857,743.543 826.026,741.372 828.195,739.206 830.363,737.045 832.532,734.89 834.701,732.741 836.869,730.596 839.038,728.457 841.206,726.323 843.375,724.195 845.544,722.072 847.712,719.954 849.881,717.842 852.05,715.735 854.218,713.633 856.387,711.537 858.556,709.446 860.724,707.36 862.893,705.28 865.062,703.205 867.23,701.136 869.399,699.071 871.568,697.013 873.736,694.959 875.905,692.911 878.074,690.868 880.242,688.831 882.411,686.799 884.579,684.772 886.748,682.751 888.917,680.735 891.085,678.724 893.254,676.719 895.423,674.719 897.591,672.724 899.76,670.735 901.929,668.751 904.097,666.772 906.266,664.799 908.435,662.831 910.603,660.869 912.772,658.911 914.941,656.959 917.109,655.013 919.278,653.071 921.447,651.135 923.615,649.205 925.784,647.279 927.952,645.359 930.121,643.444 932.29,641.535 934.458,639.631 936.627,637.732 938.796,635.838 940.964,633.95 943.133,632.067 945.302,630.189 947.47,628.317 949.639,626.45 951.808,624.588 953.976,622.731 956.145,620.88 958.314,619.033 960.482,617.193 962.651,615.357 964.82,613.527 966.988,611.701 969.157,609.881 971.326,608.067 973.494,606.257 975.663,604.453 977.831,602.654 980,600.86 982.169,599.071 984.337,597.288 986.506,595.51 988.675,593.737 990.843,591.969 993.012,590.206 995.181,588.448 997.349,586.696 999.518,584.949 1001.69,583.207 1003.86,581.47 1006.02,579.738 1008.19,578.011 1010.36,576.29 1012.53,574.573 1014.7,572.862 1016.87,571.155 1019.04,569.454 1021.2,567.758 1023.37,566.067 1025.54,564.381 1027.71,562.7 1029.88,561.024 1032.05,559.353 1034.22,557.687 1036.39,556.026 1038.55,554.37 1040.72,552.719 1042.89,551.073 1045.06,549.431 1047.23,547.795 1049.4,546.164 1051.57,544.538 1053.73,542.916 1055.9,541.3 1058.07,539.688 1060.24,538.082 1062.41,536.48 1064.58,534.883 1066.75,533.291 1068.91,531.704 1071.08,530.122 1073.25,528.544 1075.42,526.971 1077.59,525.404 1079.76,523.841 1081.93,522.282 1084.1,520.729 1086.26,519.18 1088.43,517.636 1090.6,516.097 1092.77,514.563 1094.94,513.033 1097.11,511.508 1099.28,509.988 1101.44,508.472 1103.61,506.962 1105.78,505.456 1107.95,503.954 1110.12,502.457 1112.29,500.965 1114.46,499.478 1116.63,497.995 1118.79,496.517 1120.96,495.043 1123.13,493.574 1125.3,492.11 1127.47,490.65 1129.64,489.195 1131.81,487.744 1133.97,486.298 1136.14,484.857 1138.31,483.42 1140.48,481.988 1142.65,480.56 1144.82,479.137 1146.99,477.718 1149.15,476.303 1151.32,474.894 1153.49,473.488 1155.66,472.087 1157.83,470.691 1160,469.299 1162.17,467.911 1164.34,466.528 1166.5,465.149 1168.67,463.775 1170.84,462.405 1173.01,461.04 1175.18,459.678 1177.35,458.322 1179.52,456.969 1181.68,455.621 1183.85,454.277 1186.02,452.938 1188.19,451.603 1190.36,450.272 1192.53,448.946 1194.7,447.624 1196.87,446.306 1199.03,444.992 1201.2,443.683 1203.37,442.378 1205.54,441.077 1207.71,439.78 1209.88,438.487 1212.05,437.199 1214.21,435.915 1216.38,434.635 1218.55,433.359 1220.72,432.088 1222.89,430.82 1225.06,429.557 1227.23,428.297 1229.39,427.042 1231.56,425.791 1233.73,424.544 1235.9,423.301 1238.07,422.062 1240.24,420.827 1242.41,419.597 1244.58,418.37 1246.74,417.147 1248.91,415.928 1251.08,414.714 1253.25,413.503 1255.42,412.296 1257.59,411.093 1259.76,409.894 1261.92,408.699 1264.09,407.508 1266.26,406.321 1268.43,405.138 1270.6,403.958 1272.77,402.783 1274.94,401.611 1277.11,400.443 1279.27,399.279 1281.44,398.119 1283.61,396.963 1285.78,395.81 1287.95,394.662 1290.12,393.517 1292.29,392.376 1294.45,391.238 1296.62,390.105 1298.79,388.975 1300.96,387.849 1303.13,386.727 1305.3,385.608 1307.47,384.493 1309.63,383.382 1311.8,382.274 1313.97,381.17 1316.14,380.07 1318.31,378.974 1320.48,377.881 1322.65,376.791 1324.82,375.706 1326.98,374.624 1329.15,373.545 1331.32,372.471 1333.49,371.399 1335.66,370.332 1337.83,369.268 1340,368.207 1342.16,367.15 1344.33,366.096 1346.5,365.047 1348.67,364 1350.84,362.957 1353.01,361.918 1355.18,360.882 1357.35,359.849 1359.51,358.82 1361.68,357.795 1363.85,356.773 1366.02,355.754 1368.19,354.739 1370.36,353.727 1372.53,352.718 1374.69,351.713 1376.86,350.712 1379.03,349.713 1381.2,348.718 1383.37,347.727 1385.54,346.739 1387.71,345.754 1389.88,344.772 1392.04,343.794 1394.21,342.819 1396.38,341.847 1398.55,340.879 1400.72,339.914 1402.89,338.952 1405.06,337.994 1407.22,337.039 1409.39,336.087 1411.56,335.138 1413.73,334.192 1415.9,333.25 1418.07,332.311 1420.24,331.375 1422.4,330.442 1424.57,329.513 1426.74,328.586 1428.91,327.663 1431.08,326.743 1433.25,325.826 1435.42,324.912 1437.59,324.001 1439.75,323.094 1441.92,322.189 1444.09,321.288 1446.26,320.389 1448.43,319.494 1450.6,318.602 1452.77,317.713 1454.93,316.826 1457.1,315.943 1459.27,315.063 1461.44,314.186 1463.61,313.312 1465.78,312.44 1467.95,311.572 1470.12,310.707 1472.28,309.845 1474.45,308.985 1476.62,308.129 1478.79,307.275 1480.96,306.425 1483.13,305.577 1485.3,304.733 1487.46,303.891 1489.63,303.052 1491.8,302.216 1493.97,301.382 1496.14,300.552 1498.31,299.724 1500.48,298.9 1502.64,298.078 1504.81,297.259 1506.98,296.442 1509.15,295.629 1511.32,294.818 1513.49,294.01 1515.66,293.205 1517.83,292.403 1519.99,291.603 1522.16,290.806 1524.33,290.012 1526.5,289.221 1528.67,288.432 1530.84,287.646 1533.01,286.863 1535.17,286.082 1537.34,285.304 1539.51,284.529 1541.68,283.757 1543.85,282.987 1546.02,282.219 1548.19,281.455 1550.36,280.693 1552.52,279.933 1554.69,279.177 1556.86,278.422 1559.03,277.671 1561.2,276.922 1563.37,276.176 1565.54,275.432 1567.7,274.69 1569.87,273.952 1572.04,273.216 1574.21,272.482 1576.38,271.751 1578.55,271.022 1580.72,270.296 1582.88,269.573 1585.05,268.852 1587.22,268.133 1589.39,267.417 1591.56,266.704 1593.73,265.993 1595.9,265.284 1598.07,264.578 1600.23,263.874 1602.4,263.173 1604.57,262.474 1606.74,261.777 1608.91,261.083 1611.08,260.392 1613.25,259.702 1615.41,259.016 1617.58,258.331 1619.75,257.649 1621.92,256.969 1624.09,256.292 1626.26,255.617 1628.43,254.944 1630.6,254.274 1632.76,253.606 1634.93,252.94 1637.1,252.277 1639.27,251.616 1641.44,250.957 1643.61,250.301 1645.78,249.646 1647.94,248.995 1650.11,248.345 1652.28,247.698 1654.45,247.052 1656.62,246.41 1658.79,245.769 1660.96,245.131 1663.13,244.494 1665.29,243.861 1667.46,243.229 1669.63,242.599 1671.8,241.972 1673.97,241.347 1676.14,240.724 1678.31,240.103 1680.47,239.485 1682.64,238.868 1684.81,238.254 1686.98,237.642 1689.15,237.032 1691.32,236.424 1693.49,235.818 1695.65,235.215 1697.82,234.613 1699.99,234.014 1702.16,233.417 1704.33,232.821 1706.5,232.228 1708.67,231.637 1710.84,231.048 1713,230.461 1715.17,229.876 1717.34,229.294 1719.51,228.713 1721.68,228.134 1723.85,227.557 1726.02,226.983 1728.18,226.41 1730.35,225.839 1732.52,225.27 1734.69,224.704 1736.86,224.139 1739.03,223.576 1741.2,223.015 1743.37,222.457 1745.53,221.9 1747.7,221.345 1749.87,220.792 1752.04,220.241 1754.21,219.692 1756.38,219.144 1758.55,218.599 1760.71,218.056 1762.88,217.514 1765.05,216.975 1767.22,216.437 1769.39,215.901 1771.56,215.367 1773.73,214.835 1775.89,214.305 1778.06,213.777 1780.23,213.25 1782.4,212.726 1784.57,212.203 1786.74,211.682 1788.91,211.163 1791.08,210.645 1793.24,210.13 1795.41,209.616 1797.58,209.104 1799.75,208.594 1801.92,208.086 1804.09,207.579 1806.26,207.075 1808.42,206.572 1810.59,206.071 1812.76,205.571 1814.93,205.073 1817.1,204.577 1819.27,204.083 1821.44,203.591 1823.61,203.1 1825.77,202.611 1827.94,202.124 1830.11,201.638 1832.28,201.154 1834.45,200.672 1836.62,200.192 1838.79,199.713 1840.95,199.236 1843.12,198.76 1845.29,198.286 1847.46,197.814 1849.63,197.344 1851.8,196.875 1853.97,196.408 1856.13,195.942 1858.3,195.478 1860.47,195.016 1862.64,194.556 1864.81,194.097 1866.98,193.639 1869.15,193.183 1871.32,192.729 1873.48,192.277 1875.65,191.826 1877.82,191.376 1879.99,190.929 1882.16,190.482 1884.33,190.038 1886.5,189.594 1888.66,189.153 1890.83,188.713 1893,188.275 1895.17,187.838 1897.34,187.402 1899.51,186.968 1901.68,186.536 1903.85,186.105 1906.01,185.676 1908.18,185.248 1910.35,184.822 1912.52,184.397 1914.69,183.974 1916.86,183.552 1919.03,183.132 1921.19,182.713 1923.36,182.296 1925.53,181.88 1927.7,181.466 1929.87,181.053 1932.04,180.642 1934.21,180.232 1936.37,179.823 1938.54,179.416 1940.71,179.01 1942.88,178.606 1945.05,178.203 1947.22,177.802 1949.39,177.402 1951.56,177.004 1953.72,176.607 1955.89,176.211 1958.06,175.817 1960.23,175.424 1962.4,175.032 1964.57,174.642 1966.74,174.253 1968.9,173.866 1971.07,173.48 1973.24,173.095 1975.41,172.712 1977.58,172.33 1979.75,171.949 1981.92,171.57 1984.09,171.192 1986.25,170.816 1988.42,170.441 1990.59,170.067 1992.76,169.694 1994.93,169.323 1997.1,168.953 1999.27,168.585 2001.43,168.217 2003.6,167.851 2005.77,167.487 2007.94,167.123 2010.11,166.761 2012.28,166.4 2014.45,166.041 2016.62,165.682 2018.78,165.325 2020.95,164.97 2023.12,164.615 2025.29,164.262 2027.46,163.91 2029.63,163.559 2031.8,163.209 2033.96,162.861 2036.13,162.514 2038.3,162.168 2040.47,161.824 2042.64,161.48 2044.81,161.138 2046.98,160.797 2049.14,160.458 2051.31,160.119 2053.48,159.782 2055.65,159.446 2057.82,159.111 2059.99,158.777 2062.16,158.444 2064.33,158.113 2066.49,157.783 2068.66,157.454 2070.83,157.126 2073,156.799 2075.17,156.473 2077.34,156.149 2079.51,155.826 2081.67,155.504 2083.84,155.183 2086.01,154.863 2088.18,154.544 2090.35,154.226 2092.52,153.91 2094.69,153.595 2096.86,153.28 2099.02,152.967 2101.19,152.655 2103.36,152.345 2105.53,152.035 2107.7,151.726 2109.87,151.418 2112.04,151.112 2114.2,150.807 2116.37,150.502 2118.54,150.199 2120.71,149.897 2122.88,149.596 2125.05,149.296 2127.22,148.997 2129.38,148.699 2131.55,148.402 2133.72,148.106 2135.89,147.812 2138.06,147.518 2140.23,147.225 2142.4,146.934 2144.57,146.643 2146.73,146.354 2148.9,146.065 2151.07,145.778 2153.24,145.491 2155.41,145.206 2157.58,144.921 2159.75,144.638 2161.91,144.355 2164.08,144.074 2166.25,143.793 2168.42,143.514 2170.59,143.236 2172.76,142.958 2174.93,142.682 2177.1,142.406 2179.26,142.132 2181.43,141.858 2183.6,141.586 2185.77,141.314 2187.94,141.043 2190.11,140.774 2192.28,140.505 2194.44,140.237 2196.61,139.971 2198.78,139.705 2200.95,139.44 2203.12,139.176 2205.29,138.913 2207.46,138.651 2209.62,138.39 2211.79,138.129 2213.96,137.87 2216.13,137.612 2218.3,137.354 2220.47,137.098 2222.64,136.842 2224.81,136.587 2226.97,136.333 2229.14,136.08 2231.31,135.828 2233.48,135.577 2235.65,135.327 2237.82,135.078 2239.99,134.829 2242.15,134.582 2244.32,134.335 2246.49,134.089 2248.66,133.844 2250.83,133.6 2253,133.357 2255.17,133.114 2257.34,132.873 2259.5,132.632 2261.67,132.392 2263.84,132.154 2266.01,131.915 2268.18,131.678 2270.35,131.442 2272.52,131.206 2274.68,130.972 2276.85,130.738 2279.02,130.505 2281.19,130.272 2283.36,130.041 2285.53,129.81 2287.7,129.581 2289.87,129.352 2292.03,129.124 2294.2,128.896 2296.37,128.67 2298.54,128.444 2300.71,128.219 2302.88,127.995 2305.05,127.772 2307.21,127.549 2309.38,127.328 2311.55,127.107 2313.72,126.887 2315.89,126.667 2318.06,126.449 2320.23,126.231 2322.39,126.014 2324.56,125.798 2326.73,125.582 2328.9,125.368 2331.07,125.154 2333.24,124.94 2335.41,124.728 2337.58,124.516 2339.74,124.305 2341.91,124.095 2344.08,123.886 2346.25,123.677 2348.42,123.469 2350.59,123.262 2352.76,123.056 "/>
<path clip-path="url(#clip970)" d="M258.49 300.469 L818.331 300.469 L818.331 93.1086 L258.49 93.1086  Z" fill="#ffffff" fill-rule="evenodd" fill-opacity="1"/>
<polyline clip-path="url(#clip970)" style="stroke:#000000; stroke-linecap:round; stroke-linejoin:round; stroke-width:4; stroke-opacity:1; fill:none" points="258.49,300.469 818.331,300.469 818.331,93.1086 258.49,93.1086 258.49,300.469 "/>
<polyline clip-path="url(#clip970)" style="stroke:#009af9; stroke-linecap:round; stroke-linejoin:round; stroke-width:20; stroke-opacity:1; fill:none" points="282.562,144.949 426.994,144.949 "/>
<path clip-path="url(#clip970)" d="M451.066 127.669 L480.302 127.669 L480.302 131.604 L468.034 131.604 L468.034 162.229 L463.335 162.229 L463.335 131.604 L451.066 131.604 L451.066 127.669 Z" fill="#000000" fill-rule="nonzero" fill-opacity="1" /><path clip-path="url(#clip970)" d="M492.686 140.284 Q491.969 139.868 491.112 139.682 Q490.279 139.474 489.26 139.474 Q485.649 139.474 483.705 141.835 Q481.784 144.173 481.784 148.571 L481.784 162.229 L477.501 162.229 L477.501 136.303 L481.784 136.303 L481.784 140.331 Q483.126 137.969 485.279 136.835 Q487.432 135.678 490.51 135.678 Q490.95 135.678 491.483 135.747 Q492.015 135.794 492.663 135.909 L492.686 140.284 Z" fill="#000000" fill-rule="nonzero" fill-opacity="1" /><path clip-path="url(#clip970)" d="M496.714 151.997 L496.714 136.303 L500.973 136.303 L500.973 151.835 Q500.973 155.516 502.409 157.368 Q503.844 159.196 506.714 159.196 Q510.163 159.196 512.154 156.997 Q514.168 154.798 514.168 151.002 L514.168 136.303 L518.427 136.303 L518.427 162.229 L514.168 162.229 L514.168 158.247 Q512.617 160.608 510.557 161.766 Q508.52 162.9 505.811 162.9 Q501.344 162.9 499.029 160.122 Q496.714 157.344 496.714 151.997 M507.432 135.678 L507.432 135.678 Z" fill="#000000" fill-rule="nonzero" fill-opacity="1" /><path clip-path="url(#clip970)" d="M549.376 148.201 L549.376 150.284 L529.793 150.284 Q530.07 154.682 532.432 156.997 Q534.816 159.289 539.052 159.289 Q541.506 159.289 543.797 158.687 Q546.112 158.085 548.381 156.881 L548.381 160.909 Q546.089 161.881 543.681 162.391 Q541.274 162.9 538.797 162.9 Q532.594 162.9 528.959 159.289 Q525.348 155.678 525.348 149.52 Q525.348 143.155 528.774 139.428 Q532.223 135.678 538.057 135.678 Q543.288 135.678 546.32 139.057 Q549.376 142.414 549.376 148.201 M545.117 146.951 Q545.07 143.456 543.149 141.372 Q541.251 139.289 538.103 139.289 Q534.538 139.289 532.385 141.303 Q530.256 143.317 529.932 146.974 L545.117 146.951 Z" fill="#000000" fill-rule="nonzero" fill-opacity="1" /><path clip-path="url(#clip970)" d="M587.964 137.067 L587.964 141.094 Q586.158 140.169 584.214 139.706 Q582.269 139.243 580.186 139.243 Q577.015 139.243 575.417 140.215 Q573.843 141.187 573.843 143.131 Q573.843 144.613 574.978 145.469 Q576.112 146.303 579.538 147.067 L580.996 147.391 Q585.533 148.363 587.431 150.145 Q589.353 151.905 589.353 155.076 Q589.353 158.687 586.482 160.793 Q583.635 162.9 578.635 162.9 Q576.552 162.9 574.283 162.483 Q572.038 162.09 569.538 161.28 L569.538 156.881 Q571.899 158.108 574.191 158.733 Q576.482 159.335 578.728 159.335 Q581.737 159.335 583.357 158.317 Q584.978 157.275 584.978 155.4 Q584.978 153.664 583.797 152.738 Q582.64 151.812 578.681 150.956 L577.2 150.608 Q573.242 149.775 571.482 148.062 Q569.723 146.326 569.723 143.317 Q569.723 139.659 572.316 137.669 Q574.908 135.678 579.677 135.678 Q582.038 135.678 584.121 136.025 Q586.204 136.372 587.964 137.067 Z" fill="#000000" fill-rule="nonzero" fill-opacity="1" /><path clip-path="url(#clip970)" d="M606.181 139.289 Q602.755 139.289 600.765 141.974 Q598.774 144.636 598.774 149.289 Q598.774 153.942 600.741 156.627 Q602.732 159.289 606.181 159.289 Q609.584 159.289 611.575 156.604 Q613.565 153.918 613.565 149.289 Q613.565 144.682 611.575 141.997 Q609.584 139.289 606.181 139.289 M606.181 135.678 Q611.737 135.678 614.908 139.289 Q618.079 142.9 618.079 149.289 Q618.079 155.655 614.908 159.289 Q611.737 162.9 606.181 162.9 Q600.602 162.9 597.431 159.289 Q594.283 155.655 594.283 149.289 Q594.283 142.9 597.431 139.289 Q600.602 135.678 606.181 135.678 Z" fill="#000000" fill-rule="nonzero" fill-opacity="1" /><path clip-path="url(#clip970)" d="M625.139 126.21 L629.399 126.21 L629.399 162.229 L625.139 162.229 L625.139 126.21 Z" fill="#000000" fill-rule="nonzero" fill-opacity="1" /><path clip-path="url(#clip970)" d="M637.871 151.997 L637.871 136.303 L642.13 136.303 L642.13 151.835 Q642.13 155.516 643.565 157.368 Q645 159.196 647.871 159.196 Q651.32 159.196 653.311 156.997 Q655.324 154.798 655.324 151.002 L655.324 136.303 L659.584 136.303 L659.584 162.229 L655.324 162.229 L655.324 158.247 Q653.773 160.608 651.713 161.766 Q649.676 162.9 646.968 162.9 Q642.5 162.9 640.186 160.122 Q637.871 157.344 637.871 151.997 M648.588 135.678 L648.588 135.678 Z" fill="#000000" fill-rule="nonzero" fill-opacity="1" /><path clip-path="url(#clip970)" d="M672.57 128.942 L672.57 136.303 L681.343 136.303 L681.343 139.613 L672.57 139.613 L672.57 153.687 Q672.57 156.858 673.426 157.761 Q674.306 158.664 676.968 158.664 L681.343 158.664 L681.343 162.229 L676.968 162.229 Q672.037 162.229 670.162 160.4 Q668.287 158.548 668.287 153.687 L668.287 139.613 L665.162 139.613 L665.162 136.303 L668.287 136.303 L668.287 128.942 L672.57 128.942 Z" fill="#000000" fill-rule="nonzero" fill-opacity="1" /><path clip-path="url(#clip970)" d="M686.945 136.303 L691.204 136.303 L691.204 162.229 L686.945 162.229 L686.945 136.303 M686.945 126.21 L691.204 126.21 L691.204 131.604 L686.945 131.604 L686.945 126.21 Z" fill="#000000" fill-rule="nonzero" fill-opacity="1" /><path clip-path="url(#clip970)" d="M710.162 139.289 Q706.736 139.289 704.745 141.974 Q702.755 144.636 702.755 149.289 Q702.755 153.942 704.722 156.627 Q706.713 159.289 710.162 159.289 Q713.565 159.289 715.556 156.604 Q717.546 153.918 717.546 149.289 Q717.546 144.682 715.556 141.997 Q713.565 139.289 710.162 139.289 M710.162 135.678 Q715.718 135.678 718.889 139.289 Q722.06 142.9 722.06 149.289 Q722.06 155.655 718.889 159.289 Q715.718 162.9 710.162 162.9 Q704.583 162.9 701.412 159.289 Q698.264 155.655 698.264 149.289 Q698.264 142.9 701.412 139.289 Q704.583 135.678 710.162 135.678 Z" fill="#000000" fill-rule="nonzero" fill-opacity="1" /><path clip-path="url(#clip970)" d="M750.671 146.581 L750.671 162.229 L746.412 162.229 L746.412 146.719 Q746.412 143.039 744.977 141.21 Q743.542 139.382 740.671 139.382 Q737.222 139.382 735.231 141.581 Q733.241 143.78 733.241 147.576 L733.241 162.229 L728.958 162.229 L728.958 136.303 L733.241 136.303 L733.241 140.331 Q734.768 137.993 736.829 136.835 Q738.912 135.678 741.62 135.678 Q746.088 135.678 748.379 138.456 Q750.671 141.21 750.671 146.581 Z" fill="#000000" fill-rule="nonzero" fill-opacity="1" /><circle clip-path="url(#clip970)" cx="354.778" cy="196.789" r="21.2677" fill="#0000ff" fill-rule="evenodd" fill-opacity="1" stroke="#000000" stroke-opacity="1" stroke-width="3.15077"/>
<path clip-path="url(#clip970)" d="M451.066 179.509 L458.034 179.509 L466.853 203.027 L475.719 179.509 L482.686 179.509 L482.686 214.069 L478.126 214.069 L478.126 183.722 L469.214 207.425 L464.515 207.425 L455.603 183.722 L455.603 214.069 L451.066 214.069 L451.066 179.509 Z" fill="#000000" fill-rule="nonzero" fill-opacity="1" /><path clip-path="url(#clip970)" d="M513.959 200.041 L513.959 202.124 L494.376 202.124 Q494.654 206.522 497.015 208.837 Q499.399 211.129 503.635 211.129 Q506.089 211.129 508.381 210.527 Q510.696 209.925 512.964 208.721 L512.964 212.749 Q510.672 213.721 508.265 214.231 Q505.858 214.74 503.381 214.74 Q497.177 214.74 493.543 211.129 Q489.932 207.518 489.932 201.36 Q489.932 194.995 493.358 191.268 Q496.807 187.518 502.64 187.518 Q507.871 187.518 510.904 190.897 Q513.959 194.254 513.959 200.041 M509.7 198.791 Q509.654 195.296 507.733 193.212 Q505.834 191.129 502.686 191.129 Q499.122 191.129 496.969 193.143 Q494.839 195.157 494.515 198.814 L509.7 198.791 Z" fill="#000000" fill-rule="nonzero" fill-opacity="1" /><path clip-path="url(#clip970)" d="M532.732 201.036 Q527.57 201.036 525.58 202.217 Q523.589 203.397 523.589 206.245 Q523.589 208.513 525.07 209.856 Q526.575 211.175 529.145 211.175 Q532.686 211.175 534.816 208.675 Q536.969 206.152 536.969 201.985 L536.969 201.036 L532.732 201.036 M541.228 199.277 L541.228 214.069 L536.969 214.069 L536.969 210.133 Q535.51 212.495 533.334 213.629 Q531.158 214.74 528.01 214.74 Q524.029 214.74 521.668 212.518 Q519.33 210.272 519.33 206.522 Q519.33 202.147 522.246 199.925 Q525.186 197.703 530.996 197.703 L536.969 197.703 L536.969 197.286 Q536.969 194.347 535.024 192.749 Q533.103 191.129 529.607 191.129 Q527.385 191.129 525.279 191.661 Q523.172 192.194 521.228 193.259 L521.228 189.323 Q523.566 188.421 525.765 187.981 Q527.964 187.518 530.047 187.518 Q535.672 187.518 538.45 190.434 Q541.228 193.351 541.228 199.277 Z" fill="#000000" fill-rule="nonzero" fill-opacity="1" /><path clip-path="url(#clip970)" d="M566.529 188.907 L566.529 192.934 Q564.723 192.009 562.779 191.546 Q560.834 191.083 558.751 191.083 Q555.58 191.083 553.982 192.055 Q552.408 193.027 552.408 194.971 Q552.408 196.453 553.543 197.309 Q554.677 198.143 558.103 198.907 L559.561 199.231 Q564.098 200.203 565.996 201.985 Q567.917 203.745 567.917 206.916 Q567.917 210.527 565.047 212.633 Q562.2 214.74 557.2 214.74 Q555.117 214.74 552.848 214.323 Q550.603 213.93 548.103 213.12 L548.103 208.721 Q550.464 209.948 552.756 210.573 Q555.047 211.175 557.293 211.175 Q560.302 211.175 561.922 210.157 Q563.542 209.115 563.542 207.24 Q563.542 205.504 562.362 204.578 Q561.205 203.652 557.246 202.796 L555.765 202.448 Q551.806 201.615 550.047 199.902 Q548.288 198.166 548.288 195.157 Q548.288 191.499 550.881 189.509 Q553.473 187.518 558.242 187.518 Q560.603 187.518 562.686 187.865 Q564.769 188.212 566.529 188.907 Z" fill="#000000" fill-rule="nonzero" fill-opacity="1" /><path clip-path="url(#clip970)" d="M574.26 203.837 L574.26 188.143 L578.519 188.143 L578.519 203.675 Q578.519 207.356 579.954 209.208 Q581.39 211.036 584.26 211.036 Q587.709 211.036 589.7 208.837 Q591.714 206.638 591.714 202.842 L591.714 188.143 L595.973 188.143 L595.973 214.069 L591.714 214.069 L591.714 210.087 Q590.163 212.448 588.103 213.606 Q586.066 214.74 583.357 214.74 Q578.89 214.74 576.575 211.962 Q574.26 209.184 574.26 203.837 M584.978 187.518 L584.978 187.518 Z" fill="#000000" fill-rule="nonzero" fill-opacity="1" /><path clip-path="url(#clip970)" d="M619.769 192.124 Q619.051 191.708 618.195 191.522 Q617.362 191.314 616.343 191.314 Q612.732 191.314 610.788 193.675 Q608.866 196.013 608.866 200.411 L608.866 214.069 L604.584 214.069 L604.584 188.143 L608.866 188.143 L608.866 192.171 Q610.209 189.809 612.362 188.675 Q614.514 187.518 617.593 187.518 Q618.033 187.518 618.565 187.587 Q619.098 187.634 619.746 187.749 L619.769 192.124 Z" fill="#000000" fill-rule="nonzero" fill-opacity="1" /><path clip-path="url(#clip970)" d="M645.371 200.041 L645.371 202.124 L625.788 202.124 Q626.065 206.522 628.426 208.837 Q630.811 211.129 635.047 211.129 Q637.5 211.129 639.792 210.527 Q642.107 209.925 644.375 208.721 L644.375 212.749 Q642.084 213.721 639.676 214.231 Q637.269 214.74 634.792 214.74 Q628.588 214.74 624.954 211.129 Q621.343 207.518 621.343 201.36 Q621.343 194.995 624.769 191.268 Q628.218 187.518 634.051 187.518 Q639.283 187.518 642.315 190.897 Q645.371 194.254 645.371 200.041 M641.112 198.791 Q641.065 195.296 639.144 193.212 Q637.246 191.129 634.098 191.129 Q630.533 191.129 628.38 193.143 Q626.25 195.157 625.926 198.814 L641.112 198.791 Z" fill="#000000" fill-rule="nonzero" fill-opacity="1" /><path clip-path="url(#clip970)" d="M672.547 193.12 Q674.144 190.249 676.366 188.884 Q678.588 187.518 681.597 187.518 Q685.648 187.518 687.847 190.365 Q690.046 193.189 690.046 198.421 L690.046 214.069 L685.764 214.069 L685.764 198.559 Q685.764 194.833 684.445 193.027 Q683.125 191.222 680.417 191.222 Q677.107 191.222 675.185 193.421 Q673.264 195.62 673.264 199.416 L673.264 214.069 L668.982 214.069 L668.982 198.559 Q668.982 194.809 667.662 193.027 Q666.343 191.222 663.588 191.222 Q660.324 191.222 658.403 193.444 Q656.482 195.643 656.482 199.416 L656.482 214.069 L652.199 214.069 L652.199 188.143 L656.482 188.143 L656.482 192.171 Q657.94 189.786 659.977 188.652 Q662.014 187.518 664.815 187.518 Q667.639 187.518 669.607 188.953 Q671.597 190.388 672.547 193.12 Z" fill="#000000" fill-rule="nonzero" fill-opacity="1" /><path clip-path="url(#clip970)" d="M720.718 200.041 L720.718 202.124 L701.134 202.124 Q701.412 206.522 703.773 208.837 Q706.157 211.129 710.394 211.129 Q712.847 211.129 715.139 210.527 Q717.454 209.925 719.722 208.721 L719.722 212.749 Q717.431 213.721 715.023 214.231 Q712.616 214.74 710.139 214.74 Q703.935 214.74 700.301 211.129 Q696.69 207.518 696.69 201.36 Q696.69 194.995 700.116 191.268 Q703.565 187.518 709.398 187.518 Q714.63 187.518 717.662 190.897 Q720.718 194.254 720.718 200.041 M716.458 198.791 Q716.412 195.296 714.491 193.212 Q712.593 191.129 709.444 191.129 Q705.88 191.129 703.727 193.143 Q701.597 195.157 701.273 198.814 L716.458 198.791 Z" fill="#000000" fill-rule="nonzero" fill-opacity="1" /><path clip-path="url(#clip970)" d="M749.259 198.421 L749.259 214.069 L745 214.069 L745 198.559 Q745 194.879 743.565 193.05 Q742.129 191.222 739.259 191.222 Q735.81 191.222 733.819 193.421 Q731.829 195.62 731.829 199.416 L731.829 214.069 L727.546 214.069 L727.546 188.143 L731.829 188.143 L731.829 192.171 Q733.356 189.833 735.417 188.675 Q737.5 187.518 740.208 187.518 Q744.676 187.518 746.967 190.296 Q749.259 193.05 749.259 198.421 Z" fill="#000000" fill-rule="nonzero" fill-opacity="1" /><path clip-path="url(#clip970)" d="M761.967 180.782 L761.967 188.143 L770.74 188.143 L770.74 191.453 L761.967 191.453 L761.967 205.527 Q761.967 208.698 762.824 209.601 Q763.703 210.504 766.365 210.504 L770.74 210.504 L770.74 214.069 L766.365 214.069 Q761.435 214.069 759.56 212.24 Q757.685 210.388 757.685 205.527 L757.685 191.453 L754.56 191.453 L754.56 188.143 L757.685 188.143 L757.685 180.782 L761.967 180.782 Z" fill="#000000" fill-rule="nonzero" fill-opacity="1" /><path clip-path="url(#clip970)" d="M792.87 188.907 L792.87 192.934 Q791.064 192.009 789.12 191.546 Q787.176 191.083 785.092 191.083 Q781.921 191.083 780.324 192.055 Q778.75 193.027 778.75 194.971 Q778.75 196.453 779.884 197.309 Q781.018 198.143 784.444 198.907 L785.902 199.231 Q790.439 200.203 792.338 201.985 Q794.259 203.745 794.259 206.916 Q794.259 210.527 791.388 212.633 Q788.541 214.74 783.541 214.74 Q781.458 214.74 779.189 214.323 Q776.944 213.93 774.444 213.12 L774.444 208.721 Q776.805 209.948 779.097 210.573 Q781.389 211.175 783.634 211.175 Q786.643 211.175 788.264 210.157 Q789.884 209.115 789.884 207.24 Q789.884 205.504 788.703 204.578 Q787.546 203.652 783.588 202.796 L782.106 202.448 Q778.148 201.615 776.389 199.902 Q774.629 198.166 774.629 195.157 Q774.629 191.499 777.222 189.509 Q779.814 187.518 784.583 187.518 Q786.944 187.518 789.027 187.865 Q791.111 188.212 792.87 188.907 Z" fill="#000000" fill-rule="nonzero" fill-opacity="1" /><polyline clip-path="url(#clip970)" style="stroke:#add8e6; stroke-linecap:round; stroke-linejoin:round; stroke-width:20; stroke-opacity:1; fill:none" stroke-dasharray="80, 50" points="282.562,248.629 426.994,248.629 "/>
<path clip-path="url(#clip970)" d="M451.066 231.349 L470.927 231.349 L470.927 235.284 L455.742 235.284 L455.742 245.469 L469.446 245.469 L469.446 249.404 L455.742 249.404 L455.742 265.909 L451.066 265.909 L451.066 231.349 Z" fill="#000000" fill-rule="nonzero" fill-opacity="1" /><path clip-path="url(#clip970)" d="M474.7 239.983 L478.96 239.983 L478.96 265.909 L474.7 265.909 L474.7 239.983 M474.7 229.89 L478.96 229.89 L478.96 235.284 L474.7 235.284 L474.7 229.89 Z" fill="#000000" fill-rule="nonzero" fill-opacity="1" /><path clip-path="url(#clip970)" d="M492.085 232.622 L492.085 239.983 L500.858 239.983 L500.858 243.293 L492.085 243.293 L492.085 257.367 Q492.085 260.538 492.941 261.441 Q493.821 262.344 496.483 262.344 L500.858 262.344 L500.858 265.909 L496.483 265.909 Q491.552 265.909 489.677 264.08 Q487.802 262.228 487.802 257.367 L487.802 243.293 L484.677 243.293 L484.677 239.983 L487.802 239.983 L487.802 232.622 L492.085 232.622 Z" fill="#000000" fill-rule="nonzero" fill-opacity="1" /><path clip-path="url(#clip970)" d="M510.672 232.622 L510.672 239.983 L519.445 239.983 L519.445 243.293 L510.672 243.293 L510.672 257.367 Q510.672 260.538 511.529 261.441 Q512.408 262.344 515.071 262.344 L519.445 262.344 L519.445 265.909 L515.071 265.909 Q510.14 265.909 508.265 264.08 Q506.39 262.228 506.39 257.367 L506.39 243.293 L503.265 243.293 L503.265 239.983 L506.39 239.983 L506.39 232.622 L510.672 232.622 Z" fill="#000000" fill-rule="nonzero" fill-opacity="1" /><path clip-path="url(#clip970)" d="M547.223 251.881 L547.223 253.964 L527.64 253.964 Q527.918 258.362 530.279 260.677 Q532.663 262.969 536.899 262.969 Q539.353 262.969 541.644 262.367 Q543.959 261.765 546.228 260.561 L546.228 264.589 Q543.936 265.561 541.529 266.071 Q539.121 266.58 536.644 266.58 Q530.441 266.58 526.807 262.969 Q523.195 259.358 523.195 253.2 Q523.195 246.835 526.621 243.108 Q530.07 239.358 535.904 239.358 Q541.135 239.358 544.168 242.737 Q547.223 246.094 547.223 251.881 M542.964 250.631 Q542.918 247.136 540.996 245.052 Q539.098 242.969 535.95 242.969 Q532.385 242.969 530.232 244.983 Q528.103 246.997 527.779 250.654 L542.964 250.631 Z" fill="#000000" fill-rule="nonzero" fill-opacity="1" /><path clip-path="url(#clip970)" d="M571.274 243.918 L571.274 229.89 L575.533 229.89 L575.533 265.909 L571.274 265.909 L571.274 262.02 Q569.931 264.335 567.871 265.469 Q565.834 266.58 562.964 266.58 Q558.265 266.58 555.302 262.83 Q552.362 259.08 552.362 252.969 Q552.362 246.858 555.302 243.108 Q558.265 239.358 562.964 239.358 Q565.834 239.358 567.871 240.492 Q569.931 241.603 571.274 243.918 M556.76 252.969 Q556.76 257.668 558.681 260.353 Q560.626 263.015 564.005 263.015 Q567.385 263.015 569.329 260.353 Q571.274 257.668 571.274 252.969 Q571.274 248.27 569.329 245.608 Q567.385 242.923 564.005 242.923 Q560.626 242.923 558.681 245.608 Q556.76 248.27 556.76 252.969 Z" fill="#000000" fill-rule="nonzero" fill-opacity="1" /><path clip-path="url(#clip970)" d="M615.903 240.747 L615.903 244.774 Q614.098 243.849 612.153 243.386 Q610.209 242.923 608.126 242.923 Q604.954 242.923 603.357 243.895 Q601.783 244.867 601.783 246.811 Q601.783 248.293 602.917 249.149 Q604.052 249.983 607.477 250.747 L608.936 251.071 Q613.473 252.043 615.371 253.825 Q617.292 255.585 617.292 258.756 Q617.292 262.367 614.422 264.473 Q611.575 266.58 606.575 266.58 Q604.491 266.58 602.223 266.163 Q599.977 265.77 597.477 264.96 L597.477 260.561 Q599.839 261.788 602.13 262.413 Q604.422 263.015 606.667 263.015 Q609.676 263.015 611.297 261.997 Q612.917 260.955 612.917 259.08 Q612.917 257.344 611.737 256.418 Q610.579 255.492 606.621 254.636 L605.139 254.288 Q601.181 253.455 599.422 251.742 Q597.663 250.006 597.663 246.997 Q597.663 243.339 600.255 241.349 Q602.848 239.358 607.616 239.358 Q609.977 239.358 612.061 239.705 Q614.144 240.052 615.903 240.747 Z" fill="#000000" fill-rule="nonzero" fill-opacity="1" /><path clip-path="url(#clip970)" d="M634.121 242.969 Q630.695 242.969 628.704 245.654 Q626.713 248.316 626.713 252.969 Q626.713 257.622 628.681 260.307 Q630.672 262.969 634.121 262.969 Q637.524 262.969 639.514 260.284 Q641.505 257.598 641.505 252.969 Q641.505 248.362 639.514 245.677 Q637.524 242.969 634.121 242.969 M634.121 239.358 Q639.676 239.358 642.848 242.969 Q646.019 246.58 646.019 252.969 Q646.019 259.335 642.848 262.969 Q639.676 266.58 634.121 266.58 Q628.542 266.58 625.371 262.969 Q622.223 259.335 622.223 252.969 Q622.223 246.58 625.371 242.969 Q628.542 239.358 634.121 239.358 Z" fill="#000000" fill-rule="nonzero" fill-opacity="1" /><path clip-path="url(#clip970)" d="M653.079 229.89 L657.338 229.89 L657.338 265.909 L653.079 265.909 L653.079 229.89 Z" fill="#000000" fill-rule="nonzero" fill-opacity="1" /><path clip-path="url(#clip970)" d="M665.81 255.677 L665.81 239.983 L670.07 239.983 L670.07 255.515 Q670.07 259.196 671.505 261.048 Q672.94 262.876 675.81 262.876 Q679.259 262.876 681.25 260.677 Q683.264 258.478 683.264 254.682 L683.264 239.983 L687.523 239.983 L687.523 265.909 L683.264 265.909 L683.264 261.927 Q681.713 264.288 679.653 265.446 Q677.616 266.58 674.908 266.58 Q670.44 266.58 668.125 263.802 Q665.81 261.024 665.81 255.677 M676.528 239.358 L676.528 239.358 Z" fill="#000000" fill-rule="nonzero" fill-opacity="1" /><path clip-path="url(#clip970)" d="M700.509 232.622 L700.509 239.983 L709.282 239.983 L709.282 243.293 L700.509 243.293 L700.509 257.367 Q700.509 260.538 701.366 261.441 Q702.245 262.344 704.907 262.344 L709.282 262.344 L709.282 265.909 L704.907 265.909 Q699.977 265.909 698.102 264.08 Q696.227 262.228 696.227 257.367 L696.227 243.293 L693.102 243.293 L693.102 239.983 L696.227 239.983 L696.227 232.622 L700.509 232.622 Z" fill="#000000" fill-rule="nonzero" fill-opacity="1" /><path clip-path="url(#clip970)" d="M714.884 239.983 L719.144 239.983 L719.144 265.909 L714.884 265.909 L714.884 239.983 M714.884 229.89 L719.144 229.89 L719.144 235.284 L714.884 235.284 L714.884 229.89 Z" fill="#000000" fill-rule="nonzero" fill-opacity="1" /><path clip-path="url(#clip970)" d="M738.102 242.969 Q734.676 242.969 732.685 245.654 Q730.694 248.316 730.694 252.969 Q730.694 257.622 732.662 260.307 Q734.653 262.969 738.102 262.969 Q741.504 262.969 743.495 260.284 Q745.486 257.598 745.486 252.969 Q745.486 248.362 743.495 245.677 Q741.504 242.969 738.102 242.969 M738.102 239.358 Q743.657 239.358 746.829 242.969 Q750 246.58 750 252.969 Q750 259.335 746.829 262.969 Q743.657 266.58 738.102 266.58 Q732.523 266.58 729.352 262.969 Q726.204 259.335 726.204 252.969 Q726.204 246.58 729.352 242.969 Q732.523 239.358 738.102 239.358 Z" fill="#000000" fill-rule="nonzero" fill-opacity="1" /><path clip-path="url(#clip970)" d="M778.611 250.261 L778.611 265.909 L774.352 265.909 L774.352 250.399 Q774.352 246.719 772.916 244.89 Q771.481 243.062 768.611 243.062 Q765.162 243.062 763.171 245.261 Q761.18 247.46 761.18 251.256 L761.18 265.909 L756.898 265.909 L756.898 239.983 L761.18 239.983 L761.18 244.011 Q762.708 241.673 764.768 240.515 Q766.852 239.358 769.56 239.358 Q774.027 239.358 776.319 242.136 Q778.611 244.89 778.611 250.261 Z" fill="#000000" fill-rule="nonzero" fill-opacity="1" /></svg>
