<?xml version="1.0" encoding="utf-8"?>
<svg xmlns="http://www.w3.org/2000/svg" xmlns:xlink="http://www.w3.org/1999/xlink" width="600" height="400" viewBox="0 0 2400 1600">
<defs>
  <clipPath id="clip710">
    <rect x="0" y="0" width="2400" height="1600"/>
  </clipPath>
</defs>
<path clip-path="url(#clip710)" d="M0 1600 L2400 1600 L2400 0 L0 0  Z" fill="#ffffff" fill-rule="evenodd" fill-opacity="1"/>
<defs>
  <clipPath id="clip711">
    <rect x="480" y="0" width="1681" height="1600"/>
  </clipPath>
</defs>
<path clip-path="url(#clip710)" d="M203.842 1375.94 L2352.76 1375.94 L2352.76 47.2441 L203.842 47.2441  Z" fill="#ffffff" fill-rule="evenodd" fill-opacity="1"/>
<defs>
  <clipPath id="clip712">
    <rect x="203" y="47" width="2150" height="1330"/>
  </clipPath>
</defs>
<polyline clip-path="url(#clip712)" style="stroke:#000000; stroke-linecap:round; stroke-linejoin:round; stroke-width:2; stroke-opacity:0.1; fill:none" points="203.842,1375.94 203.842,47.2441 "/>
<polyline clip-path="url(#clip712)" style="stroke:#000000; stroke-linecap:round; stroke-linejoin:round; stroke-width:2; stroke-opacity:0.1; fill:none" points="633.625,1375.94 633.625,47.2441 "/>
<polyline clip-path="url(#clip712)" style="stroke:#000000; stroke-linecap:round; stroke-linejoin:round; stroke-width:2; stroke-opacity:0.1; fill:none" points="1063.41,1375.94 1063.41,47.2441 "/>
<polyline clip-path="url(#clip712)" style="stroke:#000000; stroke-linecap:round; stroke-linejoin:round; stroke-width:2; stroke-opacity:0.1; fill:none" points="1493.19,1375.94 1493.19,47.2441 "/>
<polyline clip-path="url(#clip712)" style="stroke:#000000; stroke-linecap:round; stroke-linejoin:round; stroke-width:2; stroke-opacity:0.1; fill:none" points="1922.97,1375.94 1922.97,47.2441 "/>
<polyline clip-path="url(#clip712)" style="stroke:#000000; stroke-linecap:round; stroke-linejoin:round; stroke-width:2; stroke-opacity:0.1; fill:none" points="2352.76,1375.94 2352.76,47.2441 "/>
<polyline clip-path="url(#clip712)" style="stroke:#000000; stroke-linecap:round; stroke-linejoin:round; stroke-width:2; stroke-opacity:0.1; fill:none" points="203.842,1288.43 2352.76,1288.43 "/>
<polyline clip-path="url(#clip712)" style="stroke:#000000; stroke-linecap:round; stroke-linejoin:round; stroke-width:2; stroke-opacity:0.1; fill:none" points="203.842,992.613 2352.76,992.613 "/>
<polyline clip-path="url(#clip712)" style="stroke:#000000; stroke-linecap:round; stroke-linejoin:round; stroke-width:2; stroke-opacity:0.1; fill:none" points="203.842,696.799 2352.76,696.799 "/>
<polyline clip-path="url(#clip712)" style="stroke:#000000; stroke-linecap:round; stroke-linejoin:round; stroke-width:2; stroke-opacity:0.1; fill:none" points="203.842,400.985 2352.76,400.985 "/>
<polyline clip-path="url(#clip712)" style="stroke:#000000; stroke-linecap:round; stroke-linejoin:round; stroke-width:2; stroke-opacity:0.1; fill:none" points="203.842,105.172 2352.76,105.172 "/>
<polyline clip-path="url(#clip710)" style="stroke:#000000; stroke-linecap:round; stroke-linejoin:round; stroke-width:4; stroke-opacity:1; fill:none" points="203.842,1375.94 2352.76,1375.94 "/>
<polyline clip-path="url(#clip710)" style="stroke:#000000; stroke-linecap:round; stroke-linejoin:round; stroke-width:4; stroke-opacity:1; fill:none" points="203.842,1375.94 203.842,1357.04 "/>
<polyline clip-path="url(#clip710)" style="stroke:#000000; stroke-linecap:round; stroke-linejoin:round; stroke-width:4; stroke-opacity:1; fill:none" points="633.625,1375.94 633.625,1357.04 "/>
<polyline clip-path="url(#clip710)" style="stroke:#000000; stroke-linecap:round; stroke-linejoin:round; stroke-width:4; stroke-opacity:1; fill:none" points="1063.41,1375.94 1063.41,1357.04 "/>
<polyline clip-path="url(#clip710)" style="stroke:#000000; stroke-linecap:round; stroke-linejoin:round; stroke-width:4; stroke-opacity:1; fill:none" points="1493.19,1375.94 1493.19,1357.04 "/>
<polyline clip-path="url(#clip710)" style="stroke:#000000; stroke-linecap:round; stroke-linejoin:round; stroke-width:4; stroke-opacity:1; fill:none" points="1922.97,1375.94 1922.97,1357.04 "/>
<polyline clip-path="url(#clip710)" style="stroke:#000000; stroke-linecap:round; stroke-linejoin:round; stroke-width:4; stroke-opacity:1; fill:none" points="2352.76,1375.94 2352.76,1357.04 "/>
<path clip-path="url(#clip710)" d="M181.227 1406.85 Q177.616 1406.85 175.787 1410.42 Q173.981 1413.96 173.981 1421.09 Q173.981 1428.2 175.787 1431.76 Q177.616 1435.3 181.227 1435.3 Q184.861 1435.3 186.666 1431.76 Q188.495 1428.2 188.495 1421.09 Q188.495 1413.96 186.666 1410.42 Q184.861 1406.85 181.227 1406.85 M181.227 1403.15 Q187.037 1403.15 190.092 1407.76 Q193.171 1412.34 193.171 1421.09 Q193.171 1429.82 190.092 1434.42 Q187.037 1439.01 181.227 1439.01 Q175.417 1439.01 172.338 1434.42 Q169.282 1429.82 169.282 1421.09 Q169.282 1412.34 172.338 1407.76 Q175.417 1403.15 181.227 1403.15 Z" fill="#000000" fill-rule="nonzero" fill-opacity="1" /><path clip-path="url(#clip710)" d="M201.389 1432.46 L206.273 1432.46 L206.273 1438.34 L201.389 1438.34 L201.389 1432.46 Z" fill="#000000" fill-rule="nonzero" fill-opacity="1" /><path clip-path="url(#clip710)" d="M226.458 1406.85 Q222.847 1406.85 221.018 1410.42 Q219.213 1413.96 219.213 1421.09 Q219.213 1428.2 221.018 1431.76 Q222.847 1435.3 226.458 1435.3 Q230.092 1435.3 231.898 1431.76 Q233.726 1428.2 233.726 1421.09 Q233.726 1413.96 231.898 1410.42 Q230.092 1406.85 226.458 1406.85 M226.458 1403.15 Q232.268 1403.15 235.324 1407.76 Q238.402 1412.34 238.402 1421.09 Q238.402 1429.82 235.324 1434.42 Q232.268 1439.01 226.458 1439.01 Q220.648 1439.01 217.569 1434.42 Q214.514 1429.82 214.514 1421.09 Q214.514 1412.34 217.569 1407.76 Q220.648 1403.15 226.458 1403.15 Z" fill="#000000" fill-rule="nonzero" fill-opacity="1" /><path clip-path="url(#clip710)" d="M611.808 1406.85 Q608.197 1406.85 606.368 1410.42 Q604.563 1413.96 604.563 1421.09 Q604.563 1428.2 606.368 1431.76 Q608.197 1435.3 611.808 1435.3 Q615.442 1435.3 617.248 1431.76 Q619.077 1428.2 619.077 1421.09 Q619.077 1413.96 617.248 1410.42 Q615.442 1406.85 611.808 1406.85 M611.808 1403.15 Q617.618 1403.15 620.674 1407.76 Q623.752 1412.34 623.752 1421.09 Q623.752 1429.82 620.674 1434.42 Q617.618 1439.01 611.808 1439.01 Q605.998 1439.01 602.919 1434.42 Q599.864 1429.82 599.864 1421.09 Q599.864 1412.34 602.919 1407.76 Q605.998 1403.15 611.808 1403.15 Z" fill="#000000" fill-rule="nonzero" fill-opacity="1" /><path clip-path="url(#clip710)" d="M631.97 1432.46 L636.854 1432.46 L636.854 1438.34 L631.97 1438.34 L631.97 1432.46 Z" fill="#000000" fill-rule="nonzero" fill-opacity="1" /><path clip-path="url(#clip710)" d="M651.067 1434.4 L667.386 1434.4 L667.386 1438.34 L645.442 1438.34 L645.442 1434.4 Q648.104 1431.65 652.687 1427.02 Q657.294 1422.36 658.474 1421.02 Q660.72 1418.5 661.599 1416.76 Q662.502 1415 662.502 1413.31 Q662.502 1410.56 660.558 1408.82 Q658.636 1407.09 655.535 1407.09 Q653.336 1407.09 650.882 1407.85 Q648.451 1408.61 645.674 1410.16 L645.674 1405.44 Q648.498 1404.31 650.951 1403.73 Q653.405 1403.15 655.442 1403.15 Q660.812 1403.15 664.007 1405.84 Q667.201 1408.52 667.201 1413.01 Q667.201 1415.14 666.391 1417.06 Q665.604 1418.96 663.498 1421.55 Q662.919 1422.22 659.817 1425.44 Q656.715 1428.64 651.067 1434.4 Z" fill="#000000" fill-rule="nonzero" fill-opacity="1" /><path clip-path="url(#clip710)" d="M1040.55 1406.85 Q1036.94 1406.85 1035.11 1410.42 Q1033.3 1413.96 1033.3 1421.09 Q1033.3 1428.2 1035.11 1431.76 Q1036.94 1435.3 1040.55 1435.3 Q1044.18 1435.3 1045.99 1431.76 Q1047.82 1428.2 1047.82 1421.09 Q1047.82 1413.96 1045.99 1410.42 Q1044.18 1406.85 1040.55 1406.85 M1040.55 1403.15 Q1046.36 1403.15 1049.41 1407.76 Q1052.49 1412.34 1052.49 1421.09 Q1052.49 1429.82 1049.41 1434.42 Q1046.36 1439.01 1040.55 1439.01 Q1034.74 1439.01 1031.66 1434.42 Q1028.6 1429.82 1028.6 1421.09 Q1028.6 1412.34 1031.66 1407.76 Q1034.74 1403.15 1040.55 1403.15 Z" fill="#000000" fill-rule="nonzero" fill-opacity="1" /><path clip-path="url(#clip710)" d="M1060.71 1432.46 L1065.6 1432.46 L1065.6 1438.34 L1060.71 1438.34 L1060.71 1432.46 Z" fill="#000000" fill-rule="nonzero" fill-opacity="1" /><path clip-path="url(#clip710)" d="M1088.63 1407.85 L1076.82 1426.3 L1088.63 1426.3 L1088.63 1407.85 M1087.4 1403.78 L1093.28 1403.78 L1093.28 1426.3 L1098.21 1426.3 L1098.21 1430.19 L1093.28 1430.19 L1093.28 1438.34 L1088.63 1438.34 L1088.63 1430.19 L1073.03 1430.19 L1073.03 1425.67 L1087.4 1403.78 Z" fill="#000000" fill-rule="nonzero" fill-opacity="1" /><path clip-path="url(#clip710)" d="M1470.49 1406.85 Q1466.88 1406.85 1465.05 1410.42 Q1463.25 1413.96 1463.25 1421.09 Q1463.25 1428.2 1465.05 1431.76 Q1466.88 1435.3 1470.49 1435.3 Q1474.13 1435.3 1475.93 1431.76 Q1477.76 1428.2 1477.76 1421.09 Q1477.76 1413.96 1475.93 1410.42 Q1474.13 1406.85 1470.49 1406.85 M1470.49 1403.15 Q1476.3 1403.15 1479.36 1407.76 Q1482.44 1412.34 1482.44 1421.09 Q1482.44 1429.82 1479.36 1434.42 Q1476.3 1439.01 1470.49 1439.01 Q1464.68 1439.01 1461.6 1434.42 Q1458.55 1429.82 1458.55 1421.09 Q1458.55 1412.34 1461.6 1407.76 Q1464.68 1403.15 1470.49 1403.15 Z" fill="#000000" fill-rule="nonzero" fill-opacity="1" /><path clip-path="url(#clip710)" d="M1490.66 1432.46 L1495.54 1432.46 L1495.54 1438.34 L1490.66 1438.34 L1490.66 1432.46 Z" fill="#000000" fill-rule="nonzero" fill-opacity="1" /><path clip-path="url(#clip710)" d="M1516.3 1419.19 Q1513.16 1419.19 1511.3 1421.35 Q1509.48 1423.5 1509.48 1427.25 Q1509.48 1430.97 1511.3 1433.15 Q1513.16 1435.3 1516.3 1435.3 Q1519.45 1435.3 1521.28 1433.15 Q1523.13 1430.97 1523.13 1427.25 Q1523.13 1423.5 1521.28 1421.35 Q1519.45 1419.19 1516.3 1419.19 M1525.59 1404.54 L1525.59 1408.8 Q1523.83 1407.97 1522.02 1407.53 Q1520.24 1407.09 1518.48 1407.09 Q1513.85 1407.09 1511.4 1410.21 Q1508.97 1413.34 1508.62 1419.66 Q1509.98 1417.64 1512.04 1416.58 Q1514.1 1415.49 1516.58 1415.49 Q1521.79 1415.49 1524.8 1418.66 Q1527.83 1421.81 1527.83 1427.25 Q1527.83 1432.57 1524.68 1435.79 Q1521.54 1439.01 1516.3 1439.01 Q1510.31 1439.01 1507.14 1434.42 Q1503.97 1429.82 1503.97 1421.09 Q1503.97 1412.9 1507.85 1408.03 Q1511.74 1403.15 1518.29 1403.15 Q1520.05 1403.15 1521.84 1403.5 Q1523.64 1403.85 1525.59 1404.54 Z" fill="#000000" fill-rule="nonzero" fill-opacity="1" /><path clip-path="url(#clip710)" d="M1900.4 1406.85 Q1896.79 1406.85 1894.96 1410.42 Q1893.16 1413.96 1893.16 1421.09 Q1893.16 1428.2 1894.96 1431.76 Q1896.79 1435.3 1900.4 1435.3 Q1904.04 1435.3 1905.84 1431.76 Q1907.67 1428.2 1907.67 1421.09 Q1907.67 1413.96 1905.84 1410.42 Q1904.04 1406.85 1900.4 1406.85 M1900.4 1403.15 Q1906.21 1403.15 1909.27 1407.76 Q1912.35 1412.34 1912.35 1421.09 Q1912.35 1429.82 1909.27 1434.42 Q1906.21 1439.01 1900.4 1439.01 Q1894.59 1439.01 1891.52 1434.42 Q1888.46 1429.82 1888.46 1421.09 Q1888.46 1412.34 1891.52 1407.76 Q1894.59 1403.15 1900.4 1403.15 Z" fill="#000000" fill-rule="nonzero" fill-opacity="1" /><path clip-path="url(#clip710)" d="M1920.57 1432.46 L1925.45 1432.46 L1925.45 1438.34 L1920.57 1438.34 L1920.57 1432.46 Z" fill="#000000" fill-rule="nonzero" fill-opacity="1" /><path clip-path="url(#clip710)" d="M1945.64 1421.92 Q1942.3 1421.92 1940.38 1423.71 Q1938.48 1425.49 1938.48 1428.61 Q1938.48 1431.74 1940.38 1433.52 Q1942.3 1435.3 1945.64 1435.3 Q1948.97 1435.3 1950.89 1433.52 Q1952.81 1431.72 1952.81 1428.61 Q1952.81 1425.49 1950.89 1423.71 Q1948.99 1421.92 1945.64 1421.92 M1940.96 1419.93 Q1937.95 1419.19 1936.26 1417.13 Q1934.59 1415.07 1934.59 1412.11 Q1934.59 1407.97 1937.53 1405.56 Q1940.5 1403.15 1945.64 1403.15 Q1950.8 1403.15 1953.74 1405.56 Q1956.68 1407.97 1956.68 1412.11 Q1956.68 1415.07 1954.99 1417.13 Q1953.32 1419.19 1950.33 1419.93 Q1953.71 1420.72 1955.59 1423.01 Q1957.49 1425.3 1957.49 1428.61 Q1957.49 1433.64 1954.41 1436.32 Q1951.35 1439.01 1945.64 1439.01 Q1939.92 1439.01 1936.84 1436.32 Q1933.78 1433.64 1933.78 1428.61 Q1933.78 1425.3 1935.68 1423.01 Q1937.58 1420.72 1940.96 1419.93 M1939.25 1412.55 Q1939.25 1415.23 1940.91 1416.74 Q1942.6 1418.24 1945.64 1418.24 Q1948.64 1418.24 1950.33 1416.74 Q1952.05 1415.23 1952.05 1412.55 Q1952.05 1409.86 1950.33 1408.36 Q1948.64 1406.85 1945.64 1406.85 Q1942.6 1406.85 1940.91 1408.36 Q1939.25 1409.86 1939.25 1412.55 Z" fill="#000000" fill-rule="nonzero" fill-opacity="1" /><path clip-path="url(#clip710)" d="M2319.91 1434.4 L2327.55 1434.4 L2327.55 1408.03 L2319.24 1409.7 L2319.24 1405.44 L2327.5 1403.78 L2332.18 1403.78 L2332.18 1434.4 L2339.82 1434.4 L2339.82 1438.34 L2319.91 1438.34 L2319.91 1434.4 Z" fill="#000000" fill-rule="nonzero" fill-opacity="1" /><path clip-path="url(#clip710)" d="M2349.26 1432.46 L2354.14 1432.46 L2354.14 1438.34 L2349.26 1438.34 L2349.26 1432.46 Z" fill="#000000" fill-rule="nonzero" fill-opacity="1" /><path clip-path="url(#clip710)" d="M2374.33 1406.85 Q2370.72 1406.85 2368.89 1410.42 Q2367.08 1413.96 2367.08 1421.09 Q2367.08 1428.2 2368.89 1431.76 Q2370.72 1435.3 2374.33 1435.3 Q2377.96 1435.3 2379.77 1431.76 Q2381.6 1428.2 2381.6 1421.09 Q2381.6 1413.96 2379.77 1410.42 Q2377.96 1406.85 2374.33 1406.85 M2374.33 1403.15 Q2380.14 1403.15 2383.2 1407.76 Q2386.27 1412.34 2386.27 1421.09 Q2386.27 1429.82 2383.2 1434.42 Q2380.14 1439.01 2374.33 1439.01 Q2368.52 1439.01 2365.44 1434.42 Q2362.39 1429.82 2362.39 1421.09 Q2362.39 1412.34 2365.44 1407.76 Q2368.52 1403.15 2374.33 1403.15 Z" fill="#000000" fill-rule="nonzero" fill-opacity="1" /><path clip-path="url(#clip710)" d="M1277.36 1475.03 L1277.36 1485.15 L1289.42 1485.15 L1289.42 1489.7 L1277.36 1489.7 L1277.36 1509.06 Q1277.36 1513.42 1278.54 1514.66 Q1279.75 1515.9 1283.41 1515.9 L1289.42 1515.9 L1289.42 1520.8 L1283.41 1520.8 Q1276.63 1520.8 1274.05 1518.29 Q1271.47 1515.74 1271.47 1509.06 L1271.47 1489.7 L1267.18 1489.7 L1267.18 1485.15 L1271.47 1485.15 L1271.47 1475.03 L1277.36 1475.03 Z" fill="#000000" fill-rule="nonzero" fill-opacity="1" /><polyline clip-path="url(#clip710)" style="stroke:#000000; stroke-linecap:round; stroke-linejoin:round; stroke-width:4; stroke-opacity:1; fill:none" points="203.842,1375.94 203.842,47.2441 "/>
<polyline clip-path="url(#clip710)" style="stroke:#000000; stroke-linecap:round; stroke-linejoin:round; stroke-width:4; stroke-opacity:1; fill:none" points="203.842,1288.43 222.74,1288.43 "/>
<polyline clip-path="url(#clip710)" style="stroke:#000000; stroke-linecap:round; stroke-linejoin:round; stroke-width:4; stroke-opacity:1; fill:none" points="203.842,992.613 222.74,992.613 "/>
<polyline clip-path="url(#clip710)" style="stroke:#000000; stroke-linecap:round; stroke-linejoin:round; stroke-width:4; stroke-opacity:1; fill:none" points="203.842,696.799 222.74,696.799 "/>
<polyline clip-path="url(#clip710)" style="stroke:#000000; stroke-linecap:round; stroke-linejoin:round; stroke-width:4; stroke-opacity:1; fill:none" points="203.842,400.985 222.74,400.985 "/>
<polyline clip-path="url(#clip710)" style="stroke:#000000; stroke-linecap:round; stroke-linejoin:round; stroke-width:4; stroke-opacity:1; fill:none" points="203.842,105.172 222.74,105.172 "/>
<path clip-path="url(#clip710)" d="M111.315 1274.23 Q107.704 1274.23 105.875 1277.79 Q104.07 1281.33 104.07 1288.46 Q104.07 1295.57 105.875 1299.13 Q107.704 1302.67 111.315 1302.67 Q114.949 1302.67 116.755 1299.13 Q118.583 1295.57 118.583 1288.46 Q118.583 1281.33 116.755 1277.79 Q114.949 1274.23 111.315 1274.23 M111.315 1270.52 Q117.125 1270.52 120.181 1275.13 Q123.259 1279.71 123.259 1288.46 Q123.259 1297.19 120.181 1301.79 Q117.125 1306.38 111.315 1306.38 Q105.505 1306.38 102.426 1301.79 Q99.3705 1297.19 99.3705 1288.46 Q99.3705 1279.71 102.426 1275.13 Q105.505 1270.52 111.315 1270.52 Z" fill="#000000" fill-rule="nonzero" fill-opacity="1" /><path clip-path="url(#clip710)" d="M131.477 1299.83 L136.361 1299.83 L136.361 1305.71 L131.477 1305.71 L131.477 1299.83 Z" fill="#000000" fill-rule="nonzero" fill-opacity="1" /><path clip-path="url(#clip710)" d="M160.713 1287.07 Q164.069 1287.79 165.944 1290.06 Q167.842 1292.33 167.842 1295.66 Q167.842 1300.78 164.324 1303.58 Q160.805 1306.38 154.324 1306.38 Q152.148 1306.38 149.833 1305.94 Q147.542 1305.52 145.088 1304.67 L145.088 1300.15 Q147.032 1301.29 149.347 1301.86 Q151.662 1302.44 154.185 1302.44 Q158.583 1302.44 160.875 1300.71 Q163.19 1298.97 163.19 1295.66 Q163.19 1292.61 161.037 1290.89 Q158.907 1289.16 155.088 1289.16 L151.06 1289.16 L151.06 1285.31 L155.273 1285.31 Q158.722 1285.31 160.551 1283.95 Q162.379 1282.56 162.379 1279.97 Q162.379 1277.3 160.481 1275.89 Q158.606 1274.46 155.088 1274.46 Q153.166 1274.46 150.967 1274.87 Q148.768 1275.29 146.129 1276.17 L146.129 1272 Q148.792 1271.26 151.106 1270.89 Q153.444 1270.52 155.504 1270.52 Q160.828 1270.52 163.93 1272.95 Q167.032 1275.36 167.032 1279.48 Q167.032 1282.35 165.389 1284.34 Q163.745 1286.31 160.713 1287.07 Z" fill="#000000" fill-rule="nonzero" fill-opacity="1" /><path clip-path="url(#clip710)" d="M110.181 978.412 Q106.57 978.412 104.741 981.977 Q102.935 985.518 102.935 992.648 Q102.935 999.754 104.741 1003.32 Q106.57 1006.86 110.181 1006.86 Q113.815 1006.86 115.62 1003.32 Q117.449 999.754 117.449 992.648 Q117.449 985.518 115.62 981.977 Q113.815 978.412 110.181 978.412 M110.181 974.708 Q115.991 974.708 119.046 979.315 Q122.125 983.898 122.125 992.648 Q122.125 1001.37 119.046 1005.98 Q115.991 1010.56 110.181 1010.56 Q104.37 1010.56 101.292 1005.98 Q98.2362 1001.37 98.2362 992.648 Q98.2362 983.898 101.292 979.315 Q104.37 974.708 110.181 974.708 Z" fill="#000000" fill-rule="nonzero" fill-opacity="1" /><path clip-path="url(#clip710)" d="M130.343 1004.01 L135.227 1004.01 L135.227 1009.89 L130.343 1009.89 L130.343 1004.01 Z" fill="#000000" fill-rule="nonzero" fill-opacity="1" /><path clip-path="url(#clip710)" d="M158.259 979.407 L146.454 997.856 L158.259 997.856 L158.259 979.407 M157.032 975.333 L162.912 975.333 L162.912 997.856 L167.842 997.856 L167.842 1001.74 L162.912 1001.74 L162.912 1009.89 L158.259 1009.89 L158.259 1001.74 L142.657 1001.74 L142.657 997.231 L157.032 975.333 Z" fill="#000000" fill-rule="nonzero" fill-opacity="1" /><path clip-path="url(#clip710)" d="M111.662 682.598 Q108.051 682.598 106.222 686.163 Q104.417 689.704 104.417 696.834 Q104.417 703.94 106.222 707.505 Q108.051 711.047 111.662 711.047 Q115.296 711.047 117.102 707.505 Q118.931 703.94 118.931 696.834 Q118.931 689.704 117.102 686.163 Q115.296 682.598 111.662 682.598 M111.662 678.894 Q117.472 678.894 120.528 683.501 Q123.606 688.084 123.606 696.834 Q123.606 705.561 120.528 710.167 Q117.472 714.751 111.662 714.751 Q105.852 714.751 102.773 710.167 Q99.7177 705.561 99.7177 696.834 Q99.7177 688.084 102.773 683.501 Q105.852 678.894 111.662 678.894 Z" fill="#000000" fill-rule="nonzero" fill-opacity="1" /><path clip-path="url(#clip710)" d="M131.824 708.2 L136.708 708.2 L136.708 714.079 L131.824 714.079 L131.824 708.2 Z" fill="#000000" fill-rule="nonzero" fill-opacity="1" /><path clip-path="url(#clip710)" d="M146.94 679.519 L165.296 679.519 L165.296 683.454 L151.222 683.454 L151.222 691.927 Q152.241 691.579 153.259 691.417 Q154.278 691.232 155.296 691.232 Q161.083 691.232 164.463 694.403 Q167.842 697.575 167.842 702.991 Q167.842 708.57 164.37 711.672 Q160.898 714.751 154.579 714.751 Q152.403 714.751 150.134 714.38 Q147.889 714.01 145.481 713.269 L145.481 708.57 Q147.565 709.704 149.787 710.26 Q152.009 710.815 154.486 710.815 Q158.491 710.815 160.828 708.709 Q163.166 706.602 163.166 702.991 Q163.166 699.38 160.828 697.274 Q158.491 695.167 154.486 695.167 Q152.611 695.167 150.736 695.584 Q148.884 696.001 146.94 696.88 L146.94 679.519 Z" fill="#000000" fill-rule="nonzero" fill-opacity="1" /><path clip-path="url(#clip710)" d="M110.505 386.784 Q106.894 386.784 105.065 390.349 Q103.259 393.891 103.259 401.02 Q103.259 408.127 105.065 411.691 Q106.894 415.233 110.505 415.233 Q114.139 415.233 115.944 411.691 Q117.773 408.127 117.773 401.02 Q117.773 393.891 115.944 390.349 Q114.139 386.784 110.505 386.784 M110.505 383.08 Q116.315 383.08 119.37 387.687 Q122.449 392.27 122.449 401.02 Q122.449 409.747 119.37 414.353 Q116.315 418.937 110.505 418.937 Q104.695 418.937 101.616 414.353 Q98.5603 409.747 98.5603 401.02 Q98.5603 392.27 101.616 387.687 Q104.695 383.08 110.505 383.08 Z" fill="#000000" fill-rule="nonzero" fill-opacity="1" /><path clip-path="url(#clip710)" d="M130.667 412.386 L135.551 412.386 L135.551 418.265 L130.667 418.265 L130.667 412.386 Z" fill="#000000" fill-rule="nonzero" fill-opacity="1" /><path clip-path="url(#clip710)" d="M156.315 399.122 Q153.166 399.122 151.315 401.275 Q149.486 403.428 149.486 407.177 Q149.486 410.904 151.315 413.08 Q153.166 415.233 156.315 415.233 Q159.463 415.233 161.291 413.08 Q163.143 410.904 163.143 407.177 Q163.143 403.428 161.291 401.275 Q159.463 399.122 156.315 399.122 M165.597 384.469 L165.597 388.729 Q163.838 387.895 162.032 387.455 Q160.25 387.016 158.491 387.016 Q153.861 387.016 151.407 390.141 Q148.977 393.266 148.629 399.585 Q149.995 397.571 152.055 396.506 Q154.116 395.418 156.592 395.418 Q161.801 395.418 164.81 398.59 Q167.842 401.738 167.842 407.177 Q167.842 412.502 164.694 415.719 Q161.546 418.937 156.315 418.937 Q150.319 418.937 147.148 414.353 Q143.977 409.747 143.977 401.02 Q143.977 392.826 147.866 387.965 Q151.754 383.08 158.305 383.08 Q160.065 383.08 161.847 383.428 Q163.653 383.775 165.597 384.469 Z" fill="#000000" fill-rule="nonzero" fill-opacity="1" /><path clip-path="url(#clip710)" d="M111.569 90.9702 Q107.958 90.9702 106.13 94.535 Q104.324 98.0767 104.324 105.206 Q104.324 112.313 106.13 115.878 Q107.958 119.419 111.569 119.419 Q115.204 119.419 117.009 115.878 Q118.838 112.313 118.838 105.206 Q118.838 98.0767 117.009 94.535 Q115.204 90.9702 111.569 90.9702 M111.569 87.2665 Q117.38 87.2665 120.435 91.873 Q123.514 96.4563 123.514 105.206 Q123.514 113.933 120.435 118.54 Q117.38 123.123 111.569 123.123 Q105.759 123.123 102.681 118.54 Q99.6251 113.933 99.6251 105.206 Q99.6251 96.4563 102.681 91.873 Q105.759 87.2665 111.569 87.2665 Z" fill="#000000" fill-rule="nonzero" fill-opacity="1" /><path clip-path="url(#clip710)" d="M131.731 116.572 L136.616 116.572 L136.616 122.452 L131.731 122.452 L131.731 116.572 Z" fill="#000000" fill-rule="nonzero" fill-opacity="1" /><path clip-path="url(#clip710)" d="M145.62 87.8915 L167.842 87.8915 L167.842 89.8823 L155.296 122.452 L150.412 122.452 L162.217 91.8267 L145.62 91.8267 L145.62 87.8915 Z" fill="#000000" fill-rule="nonzero" fill-opacity="1" /><polyline clip-path="url(#clip712)" style="stroke:#009af9; stroke-linecap:round; stroke-linejoin:round; stroke-width:8; stroke-opacity:1; fill:none" points="203.842,1199.68 203.962,1199.25 204.096,1198.76 204.247,1198.21 204.418,1197.59 204.609,1196.9 204.824,1196.12 205.066,1195.24 205.339,1194.26 205.646,1193.15 205.99,1191.9 206.378,1190.5 206.815,1188.93 207.306,1187.17 207.858,1185.18 208.48,1182.95 209.179,1180.45 209.966,1177.65 210.851,1174.5 211.846,1170.97 212.966,1167.01 214.226,1162.57 215.644,1157.6 217.238,1152.04 219.032,1145.82 221.05,1138.86 223.321,1131.08 225.875,1122.41 228.749,1112.72 231.981,1101.95 235.618,1089.95 239.71,1076.63 244.313,1061.84 249.491,1045.49 255.317,1027.38 261.87,1007.46 269.243,985.5 277.538,961.468 286.869,935.132 297.367,906.517 309.177,875.376 322.464,841.853 337.411,805.691 354.226,767.216 373.144,726.173 394.426,683.148 418.368,637.896 445.303,591.343 475.606,543.249 509.695,494.938 548.047,446.147 591.192,398.597 639.73,351.936 694.335,308.176 755.766,266.773 824.876,229.798 902.625,196.398 990.092,168.377 1088.49,144.517 1199.19,126.041 1323.73,111.453 1463.84,101.267 1621.46,93.9695 1798.78,89.5202 1998.26,86.7112 2222.69,85.2822 2352.76,84.8486 "/>
<polyline clip-path="url(#clip712)" style="stroke:#e26f46; stroke-linecap:round; stroke-linejoin:round; stroke-width:8; stroke-opacity:1; fill:none" points="203.842,223.497 203.962,223.931 204.096,224.419 204.247,224.968 204.418,225.586 204.609,226.28 204.824,227.06 205.066,227.937 205.339,228.923 205.646,230.031 205.99,231.277 206.378,232.676 206.815,234.248 207.306,236.014 207.858,237.998 208.48,240.225 209.179,242.725 209.966,245.531 210.851,248.68 211.846,252.21 212.966,256.17 214.226,260.605 215.644,265.575 217.238,271.138 219.032,277.363 221.05,284.321 223.321,292.098 225.875,300.774 228.749,310.456 231.981,321.232 235.618,333.231 239.71,346.549 244.313,361.339 249.491,377.695 255.317,395.796 261.87,415.722 269.243,437.68 277.538,461.712 286.869,488.048 297.367,516.663 309.177,547.804 322.464,581.327 337.411,617.489 354.226,655.964 373.144,697.007 394.426,740.032 418.368,785.284 445.303,831.837 475.606,879.931 509.695,928.242 548.047,977.032 591.192,1024.58 639.73,1071.24 694.335,1115 755.766,1156.41 824.876,1193.38 902.625,1226.78 990.092,1254.8 1088.49,1278.66 1199.19,1297.14 1323.73,1311.73 1463.84,1321.91 1621.46,1329.21 1798.78,1333.66 1998.26,1336.47 2222.69,1337.9 2352.76,1338.33 "/>
<path clip-path="url(#clip710)" d="M2009.38 247.054 L2281.13 247.054 L2281.13 91.5338 L2009.38 91.5338  Z" fill="#ffffff" fill-rule="evenodd" fill-opacity="1"/>
<polyline clip-path="url(#clip710)" style="stroke:#000000; stroke-linecap:round; stroke-linejoin:round; stroke-width:4; stroke-opacity:1; fill:none" points="2009.38,247.054 2281.13,247.054 2281.13,91.5338 2009.38,91.5338 2009.38,247.054 "/>
<polyline clip-path="url(#clip710)" style="stroke:#009af9; stroke-linecap:round; stroke-linejoin:round; stroke-width:8; stroke-opacity:1; fill:none" points="2033.26,143.374 2176.52,143.374 "/>
<path clip-path="url(#clip710)" d="M2201.97 126.094 L2206.99 126.094 L2215.58 138.941 L2224.22 126.094 L2229.24 126.094 L2218.13 142.691 L2229.98 160.654 L2224.96 160.654 L2215.23 145.955 L2205.44 160.654 L2200.4 160.654 L2212.73 142.205 L2201.97 126.094 Z" fill="#000000" fill-rule="nonzero" fill-opacity="1" /><path clip-path="url(#clip710)" d="M2237.34 156.719 L2244.98 156.719 L2244.98 130.353 L2236.67 132.02 L2236.67 127.76 L2244.93 126.094 L2249.61 126.094 L2249.61 156.719 L2257.25 156.719 L2257.25 160.654 L2237.34 160.654 L2237.34 156.719 Z" fill="#000000" fill-rule="nonzero" fill-opacity="1" /><polyline clip-path="url(#clip710)" style="stroke:#e26f46; stroke-linecap:round; stroke-linejoin:round; stroke-width:8; stroke-opacity:1; fill:none" points="2033.26,195.214 2176.52,195.214 "/>
<path clip-path="url(#clip710)" d="M2201.97 177.934 L2206.99 177.934 L2215.58 190.781 L2224.22 177.934 L2229.24 177.934 L2218.13 194.531 L2229.98 212.494 L2224.96 212.494 L2215.23 197.795 L2205.44 212.494 L2200.4 212.494 L2212.73 194.045 L2201.97 177.934 Z" fill="#000000" fill-rule="nonzero" fill-opacity="1" /><path clip-path="url(#clip710)" d="M2240.56 208.559 L2256.88 208.559 L2256.88 212.494 L2234.93 212.494 L2234.93 208.559 Q2237.6 205.804 2242.18 201.174 Q2246.79 196.522 2247.97 195.179 Q2250.21 192.656 2251.09 190.92 Q2251.99 189.161 2251.99 187.471 Q2251.99 184.716 2250.05 182.98 Q2248.13 181.244 2245.03 181.244 Q2242.83 181.244 2240.37 182.008 Q2237.94 182.772 2235.17 184.323 L2235.17 179.6 Q2237.99 178.466 2240.44 177.888 Q2242.9 177.309 2244.93 177.309 Q2250.3 177.309 2253.5 179.994 Q2256.69 182.679 2256.69 187.17 Q2256.69 189.299 2255.88 191.221 Q2255.1 193.119 2252.99 195.711 Q2252.41 196.383 2249.31 199.6 Q2246.21 202.795 2240.56 208.559 Z" fill="#000000" fill-rule="nonzero" fill-opacity="1" /></svg>
