<?xml version="1.0" encoding="utf-8"?>
<svg xmlns="http://www.w3.org/2000/svg" xmlns:xlink="http://www.w3.org/1999/xlink" width="600" height="400" viewBox="0 0 2400 1600">
<defs>
  <clipPath id="clip650">
    <rect x="0" y="0" width="2400" height="1600"/>
  </clipPath>
</defs>
<path clip-path="url(#clip650)" d="M0 1600 L2400 1600 L2400 0 L0 0  Z" fill="#ffffff" fill-rule="evenodd" fill-opacity="1"/>
<defs>
  <clipPath id="clip651">
    <rect x="480" y="0" width="1681" height="1600"/>
  </clipPath>
</defs>
<path clip-path="url(#clip650)" d="M251.208 1375.94 L2352.76 1375.94 L2352.76 47.2441 L251.208 47.2441  Z" fill="#ffffff" fill-rule="evenodd" fill-opacity="1"/>
<defs>
  <clipPath id="clip652">
    <rect x="251" y="47" width="2103" height="1330"/>
  </clipPath>
</defs>
<polyline clip-path="url(#clip650)" style="stroke:#000000; stroke-linecap:round; stroke-linejoin:round; stroke-width:4; stroke-opacity:1; fill:none" points="251.208,1375.94 2352.76,1375.94 "/>
<polyline clip-path="url(#clip650)" style="stroke:#000000; stroke-linecap:round; stroke-linejoin:round; stroke-width:4; stroke-opacity:1; fill:none" points="251.208,47.2441 2352.76,47.2441 "/>
<polyline clip-path="url(#clip650)" style="stroke:#000000; stroke-linecap:round; stroke-linejoin:round; stroke-width:4; stroke-opacity:1; fill:none" points="251.208,1375.94 251.208,1357.04 "/>
<polyline clip-path="url(#clip650)" style="stroke:#000000; stroke-linecap:round; stroke-linejoin:round; stroke-width:4; stroke-opacity:1; fill:none" points="776.595,1375.94 776.595,1357.04 "/>
<polyline clip-path="url(#clip650)" style="stroke:#000000; stroke-linecap:round; stroke-linejoin:round; stroke-width:4; stroke-opacity:1; fill:none" points="1301.98,1375.94 1301.98,1357.04 "/>
<polyline clip-path="url(#clip650)" style="stroke:#000000; stroke-linecap:round; stroke-linejoin:round; stroke-width:4; stroke-opacity:1; fill:none" points="1827.37,1375.94 1827.37,1357.04 "/>
<polyline clip-path="url(#clip650)" style="stroke:#000000; stroke-linecap:round; stroke-linejoin:round; stroke-width:4; stroke-opacity:1; fill:none" points="2352.76,1375.94 2352.76,1357.04 "/>
<polyline clip-path="url(#clip650)" style="stroke:#000000; stroke-linecap:round; stroke-linejoin:round; stroke-width:4; stroke-opacity:1; fill:none" points="251.208,47.2441 251.208,66.1417 "/>
<polyline clip-path="url(#clip650)" style="stroke:#000000; stroke-linecap:round; stroke-linejoin:round; stroke-width:4; stroke-opacity:1; fill:none" points="776.595,47.2441 776.595,66.1417 "/>
<polyline clip-path="url(#clip650)" style="stroke:#000000; stroke-linecap:round; stroke-linejoin:round; stroke-width:4; stroke-opacity:1; fill:none" points="1301.98,47.2441 1301.98,66.1417 "/>
<polyline clip-path="url(#clip650)" style="stroke:#000000; stroke-linecap:round; stroke-linejoin:round; stroke-width:4; stroke-opacity:1; fill:none" points="1827.37,47.2441 1827.37,66.1417 "/>
<polyline clip-path="url(#clip650)" style="stroke:#000000; stroke-linecap:round; stroke-linejoin:round; stroke-width:4; stroke-opacity:1; fill:none" points="2352.76,47.2441 2352.76,66.1417 "/>
<path clip-path="url(#clip650)" d="M251.208 1406.85 Q247.597 1406.85 245.768 1410.42 Q243.962 1413.96 243.962 1421.09 Q243.962 1428.2 245.768 1431.76 Q247.597 1435.3 251.208 1435.3 Q254.842 1435.3 256.647 1431.76 Q258.476 1428.2 258.476 1421.09 Q258.476 1413.96 256.647 1410.42 Q254.842 1406.85 251.208 1406.85 M251.208 1403.15 Q257.018 1403.15 260.073 1407.76 Q263.152 1412.34 263.152 1421.09 Q263.152 1429.82 260.073 1434.42 Q257.018 1439.01 251.208 1439.01 Q245.398 1439.01 242.319 1434.42 Q239.263 1429.82 239.263 1421.09 Q239.263 1412.34 242.319 1407.76 Q245.398 1403.15 251.208 1403.15 Z" fill="#000000" fill-rule="nonzero" fill-opacity="1" /><path clip-path="url(#clip650)" d="M766.873 1403.78 L785.229 1403.78 L785.229 1407.71 L771.155 1407.71 L771.155 1416.18 Q772.173 1415.84 773.192 1415.67 Q774.21 1415.49 775.229 1415.49 Q781.016 1415.49 784.396 1418.66 Q787.775 1421.83 787.775 1427.25 Q787.775 1432.83 784.303 1435.93 Q780.831 1439.01 774.511 1439.01 Q772.335 1439.01 770.067 1438.64 Q767.822 1438.27 765.414 1437.53 L765.414 1432.83 Q767.498 1433.96 769.72 1434.52 Q771.942 1435.07 774.419 1435.07 Q778.423 1435.07 780.761 1432.97 Q783.099 1430.86 783.099 1427.25 Q783.099 1423.64 780.761 1421.53 Q778.423 1419.42 774.419 1419.42 Q772.544 1419.42 770.669 1419.84 Q768.817 1420.26 766.873 1421.14 L766.873 1403.78 Z" fill="#000000" fill-rule="nonzero" fill-opacity="1" /><path clip-path="url(#clip650)" d="M1276.67 1434.4 L1284.31 1434.4 L1284.31 1408.03 L1276 1409.7 L1276 1405.44 L1284.26 1403.78 L1288.94 1403.78 L1288.94 1434.4 L1296.58 1434.4 L1296.58 1438.34 L1276.67 1438.34 L1276.67 1434.4 Z" fill="#000000" fill-rule="nonzero" fill-opacity="1" /><path clip-path="url(#clip650)" d="M1316.02 1406.85 Q1312.41 1406.85 1310.58 1410.42 Q1308.78 1413.96 1308.78 1421.09 Q1308.78 1428.2 1310.58 1431.76 Q1312.41 1435.3 1316.02 1435.3 Q1319.66 1435.3 1321.46 1431.76 Q1323.29 1428.2 1323.29 1421.09 Q1323.29 1413.96 1321.46 1410.42 Q1319.66 1406.85 1316.02 1406.85 M1316.02 1403.15 Q1321.83 1403.15 1324.89 1407.76 Q1327.97 1412.34 1327.97 1421.09 Q1327.97 1429.82 1324.89 1434.42 Q1321.83 1439.01 1316.02 1439.01 Q1310.21 1439.01 1307.13 1434.42 Q1304.08 1429.82 1304.08 1421.09 Q1304.08 1412.34 1307.13 1407.76 Q1310.21 1403.15 1316.02 1403.15 Z" fill="#000000" fill-rule="nonzero" fill-opacity="1" /><path clip-path="url(#clip650)" d="M1802.55 1434.4 L1810.19 1434.4 L1810.19 1408.03 L1801.88 1409.7 L1801.88 1405.44 L1810.15 1403.78 L1814.82 1403.78 L1814.82 1434.4 L1822.46 1434.4 L1822.46 1438.34 L1802.55 1438.34 L1802.55 1434.4 Z" fill="#000000" fill-rule="nonzero" fill-opacity="1" /><path clip-path="url(#clip650)" d="M1831.95 1403.78 L1850.31 1403.78 L1850.31 1407.71 L1836.23 1407.71 L1836.23 1416.18 Q1837.25 1415.84 1838.27 1415.67 Q1839.29 1415.49 1840.31 1415.49 Q1846.1 1415.49 1849.48 1418.66 Q1852.85 1421.83 1852.85 1427.25 Q1852.85 1432.83 1849.38 1435.93 Q1845.91 1439.01 1839.59 1439.01 Q1837.42 1439.01 1835.15 1438.64 Q1832.9 1438.27 1830.49 1437.53 L1830.49 1432.83 Q1832.58 1433.96 1834.8 1434.52 Q1837.02 1435.07 1839.5 1435.07 Q1843.5 1435.07 1845.84 1432.97 Q1848.18 1430.86 1848.18 1427.25 Q1848.18 1423.64 1845.84 1421.53 Q1843.5 1419.42 1839.5 1419.42 Q1837.62 1419.42 1835.75 1419.84 Q1833.9 1420.26 1831.95 1421.14 L1831.95 1403.78 Z" fill="#000000" fill-rule="nonzero" fill-opacity="1" /><path clip-path="url(#clip650)" d="M2331.53 1434.4 L2347.85 1434.4 L2347.85 1438.34 L2325.9 1438.34 L2325.9 1434.4 Q2328.57 1431.65 2333.15 1427.02 Q2337.76 1422.36 2338.94 1421.02 Q2341.18 1418.5 2342.06 1416.76 Q2342.96 1415 2342.96 1413.31 Q2342.96 1410.56 2341.02 1408.82 Q2339.1 1407.09 2336 1407.09 Q2333.8 1407.09 2331.34 1407.85 Q2328.91 1408.61 2326.14 1410.16 L2326.14 1405.44 Q2328.96 1404.31 2331.41 1403.73 Q2333.87 1403.15 2335.9 1403.15 Q2341.27 1403.15 2344.47 1405.84 Q2347.66 1408.52 2347.66 1413.01 Q2347.66 1415.14 2346.85 1417.06 Q2346.07 1418.96 2343.96 1421.55 Q2343.38 1422.22 2340.28 1425.44 Q2337.18 1428.64 2331.53 1434.4 Z" fill="#000000" fill-rule="nonzero" fill-opacity="1" /><path clip-path="url(#clip650)" d="M2367.66 1406.85 Q2364.05 1406.85 2362.22 1410.42 Q2360.42 1413.96 2360.42 1421.09 Q2360.42 1428.2 2362.22 1431.76 Q2364.05 1435.3 2367.66 1435.3 Q2371.3 1435.3 2373.1 1431.76 Q2374.93 1428.2 2374.93 1421.09 Q2374.93 1413.96 2373.1 1410.42 Q2371.3 1406.85 2367.66 1406.85 M2367.66 1403.15 Q2373.47 1403.15 2376.53 1407.76 Q2379.61 1412.34 2379.61 1421.09 Q2379.61 1429.82 2376.53 1434.42 Q2373.47 1439.01 2367.66 1439.01 Q2361.85 1439.01 2358.77 1434.42 Q2355.72 1429.82 2355.72 1421.09 Q2355.72 1412.34 2358.77 1407.76 Q2361.85 1403.15 2367.66 1403.15 Z" fill="#000000" fill-rule="nonzero" fill-opacity="1" /><path clip-path="url(#clip650)" d="M1284.64 1485.15 L1290.84 1485.15 L1301.98 1515.07 L1313.12 1485.15 L1319.33 1485.15 L1305.96 1520.8 L1298 1520.8 L1284.64 1485.15 Z" fill="#000000" fill-rule="nonzero" fill-opacity="1" /><polyline clip-path="url(#clip650)" style="stroke:#000000; stroke-linecap:round; stroke-linejoin:round; stroke-width:4; stroke-opacity:1; fill:none" points="251.208,1375.94 251.208,47.2441 "/>
<polyline clip-path="url(#clip650)" style="stroke:#000000; stroke-linecap:round; stroke-linejoin:round; stroke-width:4; stroke-opacity:1; fill:none" points="2352.76,1375.94 2352.76,47.2441 "/>
<polyline clip-path="url(#clip650)" style="stroke:#000000; stroke-linecap:round; stroke-linejoin:round; stroke-width:4; stroke-opacity:1; fill:none" points="251.208,1375.94 270.105,1375.94 "/>
<polyline clip-path="url(#clip650)" style="stroke:#000000; stroke-linecap:round; stroke-linejoin:round; stroke-width:4; stroke-opacity:1; fill:none" points="251.208,1061.95 270.105,1061.95 "/>
<polyline clip-path="url(#clip650)" style="stroke:#000000; stroke-linecap:round; stroke-linejoin:round; stroke-width:4; stroke-opacity:1; fill:none" points="251.208,747.97 270.105,747.97 "/>
<polyline clip-path="url(#clip650)" style="stroke:#000000; stroke-linecap:round; stroke-linejoin:round; stroke-width:4; stroke-opacity:1; fill:none" points="251.208,433.987 270.105,433.987 "/>
<polyline clip-path="url(#clip650)" style="stroke:#000000; stroke-linecap:round; stroke-linejoin:round; stroke-width:4; stroke-opacity:1; fill:none" points="251.208,120.004 270.105,120.004 "/>
<polyline clip-path="url(#clip650)" style="stroke:#000000; stroke-linecap:round; stroke-linejoin:round; stroke-width:4; stroke-opacity:1; fill:none" points="2352.76,1375.94 2333.86,1375.94 "/>
<polyline clip-path="url(#clip650)" style="stroke:#000000; stroke-linecap:round; stroke-linejoin:round; stroke-width:4; stroke-opacity:1; fill:none" points="2352.76,1061.95 2333.86,1061.95 "/>
<polyline clip-path="url(#clip650)" style="stroke:#000000; stroke-linecap:round; stroke-linejoin:round; stroke-width:4; stroke-opacity:1; fill:none" points="2352.76,747.97 2333.86,747.97 "/>
<polyline clip-path="url(#clip650)" style="stroke:#000000; stroke-linecap:round; stroke-linejoin:round; stroke-width:4; stroke-opacity:1; fill:none" points="2352.76,433.987 2333.86,433.987 "/>
<polyline clip-path="url(#clip650)" style="stroke:#000000; stroke-linecap:round; stroke-linejoin:round; stroke-width:4; stroke-opacity:1; fill:none" points="2352.76,120.004 2333.86,120.004 "/>
<path clip-path="url(#clip650)" d="M203.263 1361.73 Q199.652 1361.73 197.824 1365.3 Q196.018 1368.84 196.018 1375.97 Q196.018 1383.08 197.824 1386.64 Q199.652 1390.18 203.263 1390.18 Q206.898 1390.18 208.703 1386.64 Q210.532 1383.08 210.532 1375.97 Q210.532 1368.84 208.703 1365.3 Q206.898 1361.73 203.263 1361.73 M203.263 1358.03 Q209.073 1358.03 212.129 1362.64 Q215.208 1367.22 215.208 1375.97 Q215.208 1384.7 212.129 1389.3 Q209.073 1393.89 203.263 1393.89 Q197.453 1393.89 194.374 1389.3 Q191.319 1384.7 191.319 1375.97 Q191.319 1367.22 194.374 1362.64 Q197.453 1358.03 203.263 1358.03 Z" fill="#000000" fill-rule="nonzero" fill-opacity="1" /><path clip-path="url(#clip650)" d="M194.305 1044.67 L212.661 1044.67 L212.661 1048.61 L198.587 1048.61 L198.587 1057.08 Q199.606 1056.73 200.624 1056.57 Q201.643 1056.39 202.661 1056.39 Q208.448 1056.39 211.828 1059.56 Q215.208 1062.73 215.208 1068.14 Q215.208 1073.72 211.735 1076.83 Q208.263 1079.9 201.944 1079.9 Q199.768 1079.9 197.499 1079.53 Q195.254 1079.16 192.847 1078.42 L192.847 1073.72 Q194.93 1074.86 197.152 1075.41 Q199.374 1075.97 201.851 1075.97 Q205.856 1075.97 208.194 1073.86 Q210.532 1071.76 210.532 1068.14 Q210.532 1064.53 208.194 1062.43 Q205.856 1060.32 201.851 1060.32 Q199.976 1060.32 198.101 1060.74 Q196.249 1061.15 194.305 1062.03 L194.305 1044.67 Z" fill="#000000" fill-rule="nonzero" fill-opacity="1" /><path clip-path="url(#clip650)" d="M163.912 761.315 L171.55 761.315 L171.55 734.949 L163.24 736.616 L163.24 732.356 L171.504 730.69 L176.18 730.69 L176.18 761.315 L183.819 761.315 L183.819 765.25 L163.912 765.25 L163.912 761.315 Z" fill="#000000" fill-rule="nonzero" fill-opacity="1" /><path clip-path="url(#clip650)" d="M203.263 733.768 Q199.652 733.768 197.824 737.333 Q196.018 740.875 196.018 748.005 Q196.018 755.111 197.824 758.676 Q199.652 762.217 203.263 762.217 Q206.898 762.217 208.703 758.676 Q210.532 755.111 210.532 748.005 Q210.532 740.875 208.703 737.333 Q206.898 733.768 203.263 733.768 M203.263 730.065 Q209.073 730.065 212.129 734.671 Q215.208 739.255 215.208 748.005 Q215.208 756.731 212.129 761.338 Q209.073 765.921 203.263 765.921 Q197.453 765.921 194.374 761.338 Q191.319 756.731 191.319 748.005 Q191.319 739.255 194.374 734.671 Q197.453 730.065 203.263 730.065 Z" fill="#000000" fill-rule="nonzero" fill-opacity="1" /><path clip-path="url(#clip650)" d="M164.907 447.332 L172.546 447.332 L172.546 420.966 L164.236 422.633 L164.236 418.373 L172.5 416.707 L177.175 416.707 L177.175 447.332 L184.814 447.332 L184.814 451.267 L164.907 451.267 L164.907 447.332 Z" fill="#000000" fill-rule="nonzero" fill-opacity="1" /><path clip-path="url(#clip650)" d="M194.305 416.707 L212.661 416.707 L212.661 420.642 L198.587 420.642 L198.587 429.114 Q199.606 428.767 200.624 428.605 Q201.643 428.42 202.661 428.42 Q208.448 428.42 211.828 431.591 Q215.208 434.762 215.208 440.179 Q215.208 445.758 211.735 448.859 Q208.263 451.938 201.944 451.938 Q199.768 451.938 197.499 451.568 Q195.254 451.197 192.847 450.457 L192.847 445.758 Q194.93 446.892 197.152 447.447 Q199.374 448.003 201.851 448.003 Q205.856 448.003 208.194 445.896 Q210.532 443.79 210.532 440.179 Q210.532 436.568 208.194 434.461 Q205.856 432.355 201.851 432.355 Q199.976 432.355 198.101 432.772 Q196.249 433.188 194.305 434.068 L194.305 416.707 Z" fill="#000000" fill-rule="nonzero" fill-opacity="1" /><path clip-path="url(#clip650)" d="M167.129 133.349 L183.449 133.349 L183.449 137.284 L161.504 137.284 L161.504 133.349 Q164.166 130.594 168.75 125.964 Q173.356 121.312 174.537 119.969 Q176.782 117.446 177.662 115.71 Q178.564 113.951 178.564 112.261 Q178.564 109.506 176.62 107.77 Q174.699 106.034 171.597 106.034 Q169.398 106.034 166.944 106.798 Q164.513 107.562 161.736 109.113 L161.736 104.391 Q164.56 103.256 167.013 102.678 Q169.467 102.099 171.504 102.099 Q176.875 102.099 180.069 104.784 Q183.263 107.469 183.263 111.96 Q183.263 114.09 182.453 116.011 Q181.666 117.909 179.56 120.502 Q178.981 121.173 175.879 124.39 Q172.777 127.585 167.129 133.349 Z" fill="#000000" fill-rule="nonzero" fill-opacity="1" /><path clip-path="url(#clip650)" d="M203.263 105.803 Q199.652 105.803 197.824 109.367 Q196.018 112.909 196.018 120.039 Q196.018 127.145 197.824 130.71 Q199.652 134.251 203.263 134.251 Q206.898 134.251 208.703 130.71 Q210.532 127.145 210.532 120.039 Q210.532 112.909 208.703 109.367 Q206.898 105.803 203.263 105.803 M203.263 102.099 Q209.073 102.099 212.129 106.705 Q215.208 111.289 215.208 120.039 Q215.208 128.765 212.129 133.372 Q209.073 137.955 203.263 137.955 Q197.453 137.955 194.374 133.372 Q191.319 128.765 191.319 120.039 Q191.319 111.289 194.374 106.705 Q197.453 102.099 203.263 102.099 Z" fill="#000000" fill-rule="nonzero" fill-opacity="1" /><path clip-path="url(#clip650)" d="M69.0118 915.07 L86.8676 915.07 L86.8676 906.985 Q86.8676 902.497 84.5441 900.047 Q82.2206 897.596 77.9238 897.596 Q73.6588 897.596 71.3353 900.047 Q69.0118 902.497 69.0118 906.985 L69.0118 915.07 M63.7283 921.499 L63.7283 906.985 Q63.7283 898.996 67.3567 894.922 Q70.9533 890.816 77.9238 890.816 Q84.9579 890.816 88.5545 894.922 Q92.1511 898.996 92.1511 906.985 L92.1511 915.07 L111.248 915.07 L111.248 921.499 L63.7283 921.499 Z" fill="#000000" fill-rule="nonzero" fill-opacity="1" /><path clip-path="url(#clip650)" d="M91.9602 854.277 L94.8247 854.277 L94.8247 881.204 Q100.872 880.822 104.055 877.576 Q107.206 874.297 107.206 868.473 Q107.206 865.099 106.378 861.948 Q105.551 858.765 103.896 855.646 L109.434 855.646 Q110.771 858.797 111.471 862.107 Q112.171 865.417 112.171 868.823 Q112.171 877.353 107.206 882.35 Q102.241 887.315 93.7744 887.315 Q85.0215 887.315 79.8971 882.605 Q74.7409 877.862 74.7409 869.841 Q74.7409 862.648 79.3879 858.479 Q84.003 854.277 91.9602 854.277 M90.2414 860.134 Q85.4353 860.197 82.5707 862.839 Q79.7062 865.449 79.7062 869.778 Q79.7062 874.679 82.4753 877.639 Q85.2443 880.568 90.2732 881.013 L90.2414 860.134 Z" fill="#000000" fill-rule="nonzero" fill-opacity="1" /><path clip-path="url(#clip650)" d="M81.0748 824.008 Q80.5019 824.995 80.2473 826.173 Q79.9608 827.318 79.9608 828.719 Q79.9608 833.684 83.2073 836.358 Q86.422 839 92.4694 839 L111.248 839 L111.248 844.888 L75.6003 844.888 L75.6003 839 L81.1385 839 Q77.8919 837.153 76.3324 834.193 Q74.7409 831.233 74.7409 827 Q74.7409 826.395 74.8364 825.663 Q74.9001 824.931 75.0592 824.04 L81.0748 824.008 Z" fill="#000000" fill-rule="nonzero" fill-opacity="1" /><path clip-path="url(#clip650)" d="M75.6003 817.865 L75.6003 812.009 L111.248 812.009 L111.248 817.865 L75.6003 817.865 M61.7231 817.865 L61.7231 812.009 L69.1391 812.009 L69.1391 817.865 L61.7231 817.865 Z" fill="#000000" fill-rule="nonzero" fill-opacity="1" /><path clip-path="url(#clip650)" d="M79.7062 785.941 Q79.7062 790.652 83.3983 793.389 Q87.0586 796.127 93.4561 796.127 Q99.8536 796.127 103.546 793.421 Q107.206 790.684 107.206 785.941 Q107.206 781.263 103.514 778.525 Q99.8218 775.788 93.4561 775.788 Q87.1222 775.788 83.4301 778.525 Q79.7062 781.263 79.7062 785.941 M74.7409 785.941 Q74.7409 778.303 79.7062 773.942 Q84.6714 769.582 93.4561 769.582 Q102.209 769.582 107.206 773.942 Q112.171 778.303 112.171 785.941 Q112.171 793.612 107.206 797.973 Q102.209 802.301 93.4561 802.301 Q84.6714 802.301 79.7062 797.973 Q74.7409 793.612 74.7409 785.941 Z" fill="#000000" fill-rule="nonzero" fill-opacity="1" /><path clip-path="url(#clip650)" d="M81.0111 736.416 L61.7231 736.416 L61.7231 730.56 L111.248 730.56 L111.248 736.416 L105.901 736.416 Q109.084 738.262 110.644 741.095 Q112.171 743.896 112.171 747.843 Q112.171 754.304 107.015 758.378 Q101.859 762.42 93.4561 762.42 Q85.0534 762.42 79.8971 758.378 Q74.7409 754.304 74.7409 747.843 Q74.7409 743.896 76.3005 741.095 Q77.8283 738.262 81.0111 736.416 M93.4561 756.373 Q99.9173 756.373 103.609 753.731 Q107.27 751.057 107.27 746.41 Q107.27 741.763 103.609 739.09 Q99.9173 736.416 93.4561 736.416 Q86.9949 736.416 83.3346 739.09 Q79.6425 741.763 79.6425 746.41 Q79.6425 751.057 83.3346 753.731 Q86.9949 756.373 93.4561 756.373 Z" fill="#000000" fill-rule="nonzero" fill-opacity="1" /><path clip-path="url(#clip650)" d="M61.7231 697.776 L61.7231 691.92 L111.248 691.92 L111.248 697.776 L61.7231 697.776 Z" fill="#000000" fill-rule="nonzero" fill-opacity="1" /><path clip-path="url(#clip650)" d="M91.9602 649.174 L94.8247 649.174 L94.8247 676.101 Q100.872 675.719 104.055 672.473 Q107.206 669.194 107.206 663.37 Q107.206 659.996 106.378 656.845 Q105.551 653.662 103.896 650.543 L109.434 650.543 Q110.771 653.694 111.471 657.004 Q112.171 660.314 112.171 663.72 Q112.171 672.25 107.206 677.247 Q102.241 682.212 93.7744 682.212 Q85.0215 682.212 79.8971 677.502 Q74.7409 672.759 74.7409 664.738 Q74.7409 657.545 79.3879 653.376 Q84.003 649.174 91.9602 649.174 M90.2414 655.031 Q85.4353 655.094 82.5707 657.736 Q79.7062 660.346 79.7062 664.675 Q79.7062 669.576 82.4753 672.536 Q85.2443 675.465 90.2732 675.91 L90.2414 655.031 Z" fill="#000000" fill-rule="nonzero" fill-opacity="1" /><path clip-path="url(#clip650)" d="M89.7322 609.93 L111.248 609.93 L111.248 615.786 L89.9231 615.786 Q84.8624 615.786 82.3479 617.759 Q79.8335 619.733 79.8335 623.68 Q79.8335 628.422 82.8572 631.159 Q85.8809 633.896 91.1008 633.896 L111.248 633.896 L111.248 639.785 L75.6003 639.785 L75.6003 633.896 L81.1385 633.896 Q77.9238 631.796 76.3324 628.963 Q74.7409 626.098 74.7409 622.375 Q74.7409 616.232 78.5603 613.081 Q82.3479 609.93 89.7322 609.93 Z" fill="#000000" fill-rule="nonzero" fill-opacity="1" /><path clip-path="url(#clip650)" d="M93.0105 574.791 Q86.6448 574.791 83.1437 577.433 Q79.6425 580.043 79.6425 584.785 Q79.6425 589.496 83.1437 592.137 Q86.6448 594.747 93.0105 594.747 Q99.3444 594.747 102.846 592.137 Q106.347 589.496 106.347 584.785 Q106.347 580.043 102.846 577.433 Q99.3444 574.791 93.0105 574.791 M106.824 568.934 Q115.927 568.934 120.351 572.977 Q124.807 577.019 124.807 585.358 Q124.807 588.445 124.33 591.183 Q123.884 593.92 122.929 596.498 L117.232 596.498 Q118.632 593.92 119.301 591.405 Q119.969 588.891 119.969 586.281 Q119.969 580.52 116.946 577.655 Q113.954 574.791 107.874 574.791 L104.978 574.791 Q108.129 576.605 109.689 579.438 Q111.248 582.271 111.248 586.217 Q111.248 592.774 106.251 596.784 Q101.254 600.795 93.0105 600.795 Q84.7351 600.795 79.738 596.784 Q74.7409 592.774 74.7409 586.217 Q74.7409 582.271 76.3005 579.438 Q77.8601 576.605 81.0111 574.791 L75.6003 574.791 L75.6003 568.934 L106.824 568.934 Z" fill="#000000" fill-rule="nonzero" fill-opacity="1" /><path clip-path="url(#clip650)" d="M65.4788 551.079 L75.6003 551.079 L75.6003 539.016 L80.1518 539.016 L80.1518 551.079 L99.5035 551.079 Q103.864 551.079 105.105 549.901 Q106.347 548.691 106.347 545.031 L106.347 539.016 L111.248 539.016 L111.248 545.031 Q111.248 551.811 108.734 554.389 Q106.188 556.967 99.5035 556.967 L80.1518 556.967 L80.1518 561.264 L75.6003 561.264 L75.6003 556.967 L65.4788 556.967 L65.4788 551.079 Z" fill="#000000" fill-rule="nonzero" fill-opacity="1" /><path clip-path="url(#clip650)" d="M89.7322 501.681 L111.248 501.681 L111.248 507.537 L89.9231 507.537 Q84.8624 507.537 82.3479 509.511 Q79.8335 511.484 79.8335 515.431 Q79.8335 520.173 82.8572 522.91 Q85.8809 525.648 91.1008 525.648 L111.248 525.648 L111.248 531.536 L61.7231 531.536 L61.7231 525.648 L81.1385 525.648 Q77.9238 523.547 76.3324 520.714 Q74.7409 517.85 74.7409 514.126 Q74.7409 507.983 78.5603 504.832 Q82.3479 501.681 89.7322 501.681 Z" fill="#000000" fill-rule="nonzero" fill-opacity="1" /><polyline clip-path="url(#clip652)" style="stroke:#009af9; stroke-linecap:round; stroke-linejoin:round; stroke-width:8; stroke-opacity:1; fill:none" points="1443.95,236.72 1444.05,236.704 "/>
<polyline clip-path="url(#clip652)" style="stroke:#009af9; stroke-linecap:round; stroke-linejoin:round; stroke-width:8; stroke-opacity:1; fill:none" points="1444.05,236.704 1444.18,236.681 "/>
<polyline clip-path="url(#clip652)" style="stroke:#009af9; stroke-linecap:round; stroke-linejoin:round; stroke-width:8; stroke-opacity:1; fill:none" points="1444.18,236.681 1444.39,236.646 "/>
<polyline clip-path="url(#clip652)" style="stroke:#009af9; stroke-linecap:round; stroke-linejoin:round; stroke-width:8; stroke-opacity:1; fill:none" points="1444.39,236.646 1444.71,236.592 "/>
<polyline clip-path="url(#clip652)" style="stroke:#009af9; stroke-linecap:round; stroke-linejoin:round; stroke-width:8; stroke-opacity:1; fill:none" points="1444.71,236.592 1445.2,236.507 "/>
<polyline clip-path="url(#clip652)" style="stroke:#009af9; stroke-linecap:round; stroke-linejoin:round; stroke-width:8; stroke-opacity:1; fill:none" points="1445.2,236.507 1446.01,236.371 "/>
<polyline clip-path="url(#clip652)" style="stroke:#009af9; stroke-linecap:round; stroke-linejoin:round; stroke-width:8; stroke-opacity:1; fill:none" points="1446.01,236.371 1447.33,236.144 "/>
<polyline clip-path="url(#clip652)" style="stroke:#009af9; stroke-linecap:round; stroke-linejoin:round; stroke-width:8; stroke-opacity:1; fill:none" points="1447.33,236.144 1449.22,235.823 "/>
<polyline clip-path="url(#clip652)" style="stroke:#009af9; stroke-linecap:round; stroke-linejoin:round; stroke-width:8; stroke-opacity:1; fill:none" points="1449.22,235.823 1451.4,235.449 "/>
<polyline clip-path="url(#clip652)" style="stroke:#009af9; stroke-linecap:round; stroke-linejoin:round; stroke-width:8; stroke-opacity:1; fill:none" points="1451.4,235.449 1453.89,235.024 "/>
<polyline clip-path="url(#clip652)" style="stroke:#009af9; stroke-linecap:round; stroke-linejoin:round; stroke-width:8; stroke-opacity:1; fill:none" points="1453.89,235.024 1456.65,234.549 "/>
<polyline clip-path="url(#clip652)" style="stroke:#009af9; stroke-linecap:round; stroke-linejoin:round; stroke-width:8; stroke-opacity:1; fill:none" points="1456.65,234.549 1459.69,234.026 "/>
<polyline clip-path="url(#clip652)" style="stroke:#009af9; stroke-linecap:round; stroke-linejoin:round; stroke-width:8; stroke-opacity:1; fill:none" points="1459.69,234.026 1462.99,233.457 "/>
<polyline clip-path="url(#clip652)" style="stroke:#009af9; stroke-linecap:round; stroke-linejoin:round; stroke-width:8; stroke-opacity:1; fill:none" points="1462.99,233.457 1466.54,232.842 "/>
<polyline clip-path="url(#clip652)" style="stroke:#009af9; stroke-linecap:round; stroke-linejoin:round; stroke-width:8; stroke-opacity:1; fill:none" points="1466.54,232.842 1470.33,232.185 "/>
<polyline clip-path="url(#clip652)" style="stroke:#009af9; stroke-linecap:round; stroke-linejoin:round; stroke-width:8; stroke-opacity:1; fill:none" points="1470.33,232.185 1474.35,231.486 "/>
<polyline clip-path="url(#clip652)" style="stroke:#009af9; stroke-linecap:round; stroke-linejoin:round; stroke-width:8; stroke-opacity:1; fill:none" points="1474.35,231.486 1478.58,230.746 "/>
<polyline clip-path="url(#clip652)" style="stroke:#009af9; stroke-linecap:round; stroke-linejoin:round; stroke-width:8; stroke-opacity:1; fill:none" points="1478.58,230.746 1483.03,229.969 "/>
<polyline clip-path="url(#clip652)" style="stroke:#009af9; stroke-linecap:round; stroke-linejoin:round; stroke-width:8; stroke-opacity:1; fill:none" points="1483.03,229.969 1487.66,229.154 "/>
<polyline clip-path="url(#clip652)" style="stroke:#009af9; stroke-linecap:round; stroke-linejoin:round; stroke-width:8; stroke-opacity:1; fill:none" points="1487.66,229.154 1492.48,228.304 "/>
<polyline clip-path="url(#clip652)" style="stroke:#009af9; stroke-linecap:round; stroke-linejoin:round; stroke-width:8; stroke-opacity:1; fill:none" points="1492.48,228.304 1497.48,227.42 "/>
<polyline clip-path="url(#clip652)" style="stroke:#009af9; stroke-linecap:round; stroke-linejoin:round; stroke-width:8; stroke-opacity:1; fill:none" points="1497.48,227.42 1502.64,226.503 "/>
<polyline clip-path="url(#clip652)" style="stroke:#009af9; stroke-linecap:round; stroke-linejoin:round; stroke-width:8; stroke-opacity:1; fill:none" points="1502.64,226.503 1507.95,225.555 "/>
<polyline clip-path="url(#clip652)" style="stroke:#009af9; stroke-linecap:round; stroke-linejoin:round; stroke-width:8; stroke-opacity:1; fill:none" points="1507.95,225.555 1513.42,224.576 "/>
<polyline clip-path="url(#clip652)" style="stroke:#009af9; stroke-linecap:round; stroke-linejoin:round; stroke-width:8; stroke-opacity:1; fill:none" points="1513.42,224.576 1519.02,223.569 "/>
<polyline clip-path="url(#clip652)" style="stroke:#009af9; stroke-linecap:round; stroke-linejoin:round; stroke-width:8; stroke-opacity:1; fill:none" points="1519.02,223.569 1524.76,222.534 "/>
<polyline clip-path="url(#clip652)" style="stroke:#009af9; stroke-linecap:round; stroke-linejoin:round; stroke-width:8; stroke-opacity:1; fill:none" points="1524.76,222.534 1530.62,221.473 "/>
<polyline clip-path="url(#clip652)" style="stroke:#009af9; stroke-linecap:round; stroke-linejoin:round; stroke-width:8; stroke-opacity:1; fill:none" points="1530.62,221.473 1536.59,220.386 "/>
<polyline clip-path="url(#clip652)" style="stroke:#009af9; stroke-linecap:round; stroke-linejoin:round; stroke-width:8; stroke-opacity:1; fill:none" points="1536.59,220.386 1542.68,219.274 "/>
<polyline clip-path="url(#clip652)" style="stroke:#009af9; stroke-linecap:round; stroke-linejoin:round; stroke-width:8; stroke-opacity:1; fill:none" points="1542.68,219.274 1548.88,218.138 "/>
<polyline clip-path="url(#clip652)" style="stroke:#009af9; stroke-linecap:round; stroke-linejoin:round; stroke-width:8; stroke-opacity:1; fill:none" points="1548.88,218.138 1555.17,216.979 "/>
<polyline clip-path="url(#clip652)" style="stroke:#009af9; stroke-linecap:round; stroke-linejoin:round; stroke-width:8; stroke-opacity:1; fill:none" points="1555.17,216.979 1561.56,215.799 "/>
<polyline clip-path="url(#clip652)" style="stroke:#009af9; stroke-linecap:round; stroke-linejoin:round; stroke-width:8; stroke-opacity:1; fill:none" points="1561.56,215.799 1568.03,214.597 "/>
<polyline clip-path="url(#clip652)" style="stroke:#009af9; stroke-linecap:round; stroke-linejoin:round; stroke-width:8; stroke-opacity:1; fill:none" points="1568.03,214.597 1574.59,213.374 "/>
<polyline clip-path="url(#clip652)" style="stroke:#009af9; stroke-linecap:round; stroke-linejoin:round; stroke-width:8; stroke-opacity:1; fill:none" points="1574.59,213.374 1581.23,212.132 "/>
<polyline clip-path="url(#clip652)" style="stroke:#009af9; stroke-linecap:round; stroke-linejoin:round; stroke-width:8; stroke-opacity:1; fill:none" points="1581.23,212.132 1587.95,210.87 "/>
<polyline clip-path="url(#clip652)" style="stroke:#009af9; stroke-linecap:round; stroke-linejoin:round; stroke-width:8; stroke-opacity:1; fill:none" points="1587.95,210.87 1594.73,209.59 "/>
<polyline clip-path="url(#clip652)" style="stroke:#009af9; stroke-linecap:round; stroke-linejoin:round; stroke-width:8; stroke-opacity:1; fill:none" points="1594.73,209.59 1601.59,208.292 "/>
<polyline clip-path="url(#clip652)" style="stroke:#009af9; stroke-linecap:round; stroke-linejoin:round; stroke-width:8; stroke-opacity:1; fill:none" points="1601.59,208.292 1608.51,206.977 "/>
<polyline clip-path="url(#clip652)" style="stroke:#009af9; stroke-linecap:round; stroke-linejoin:round; stroke-width:8; stroke-opacity:1; fill:none" points="1608.51,206.977 1615.49,205.644 "/>
<polyline clip-path="url(#clip652)" style="stroke:#009af9; stroke-linecap:round; stroke-linejoin:round; stroke-width:8; stroke-opacity:1; fill:none" points="1615.49,205.644 1622.52,204.296 "/>
<polyline clip-path="url(#clip652)" style="stroke:#009af9; stroke-linecap:round; stroke-linejoin:round; stroke-width:8; stroke-opacity:1; fill:none" points="1622.52,204.296 1629.62,202.931 "/>
<polyline clip-path="url(#clip652)" style="stroke:#009af9; stroke-linecap:round; stroke-linejoin:round; stroke-width:8; stroke-opacity:1; fill:none" points="1629.62,202.931 1636.76,201.552 "/>
<polyline clip-path="url(#clip652)" style="stroke:#009af9; stroke-linecap:round; stroke-linejoin:round; stroke-width:8; stroke-opacity:1; fill:none" points="1636.76,201.552 1643.96,200.157 "/>
<polyline clip-path="url(#clip652)" style="stroke:#009af9; stroke-linecap:round; stroke-linejoin:round; stroke-width:8; stroke-opacity:1; fill:none" points="1643.96,200.157 1651.2,198.748 "/>
<polyline clip-path="url(#clip652)" style="stroke:#009af9; stroke-linecap:round; stroke-linejoin:round; stroke-width:8; stroke-opacity:1; fill:none" points="1651.2,198.748 1658.48,197.325 "/>
<polyline clip-path="url(#clip652)" style="stroke:#009af9; stroke-linecap:round; stroke-linejoin:round; stroke-width:8; stroke-opacity:1; fill:none" points="1658.48,197.325 1665.81,195.889 "/>
<polyline clip-path="url(#clip652)" style="stroke:#009af9; stroke-linecap:round; stroke-linejoin:round; stroke-width:8; stroke-opacity:1; fill:none" points="1665.81,195.889 1673.18,194.439 "/>
<polyline clip-path="url(#clip652)" style="stroke:#009af9; stroke-linecap:round; stroke-linejoin:round; stroke-width:8; stroke-opacity:1; fill:none" points="1673.18,194.439 1680.59,192.977 "/>
<polyline clip-path="url(#clip652)" style="stroke:#009af9; stroke-linecap:round; stroke-linejoin:round; stroke-width:8; stroke-opacity:1; fill:none" points="1680.59,192.977 1688.04,191.502 "/>
<polyline clip-path="url(#clip652)" style="stroke:#009af9; stroke-linecap:round; stroke-linejoin:round; stroke-width:8; stroke-opacity:1; fill:none" points="1688.04,191.502 1695.52,190.015 "/>
<polyline clip-path="url(#clip652)" style="stroke:#009af9; stroke-linecap:round; stroke-linejoin:round; stroke-width:8; stroke-opacity:1; fill:none" points="1695.52,190.015 1703.03,188.516 "/>
<polyline clip-path="url(#clip652)" style="stroke:#009af9; stroke-linecap:round; stroke-linejoin:round; stroke-width:8; stroke-opacity:1; fill:none" points="1703.03,188.516 1710.58,187.005 "/>
<polyline clip-path="url(#clip652)" style="stroke:#009af9; stroke-linecap:round; stroke-linejoin:round; stroke-width:8; stroke-opacity:1; fill:none" points="1710.58,187.005 1718.16,185.484 "/>
<polyline clip-path="url(#clip652)" style="stroke:#009af9; stroke-linecap:round; stroke-linejoin:round; stroke-width:8; stroke-opacity:1; fill:none" points="1718.16,185.484 1725.76,183.952 "/>
<polyline clip-path="url(#clip652)" style="stroke:#009af9; stroke-linecap:round; stroke-linejoin:round; stroke-width:8; stroke-opacity:1; fill:none" points="1725.76,183.952 1733.4,182.409 "/>
<polyline clip-path="url(#clip652)" style="stroke:#009af9; stroke-linecap:round; stroke-linejoin:round; stroke-width:8; stroke-opacity:1; fill:none" points="1733.4,182.409 1741.06,180.856 "/>
<polyline clip-path="url(#clip652)" style="stroke:#009af9; stroke-linecap:round; stroke-linejoin:round; stroke-width:8; stroke-opacity:1; fill:none" points="1741.06,180.856 1748.74,179.294 "/>
<polyline clip-path="url(#clip652)" style="stroke:#009af9; stroke-linecap:round; stroke-linejoin:round; stroke-width:8; stroke-opacity:1; fill:none" points="1748.74,179.294 1756.45,177.721 "/>
<polyline clip-path="url(#clip652)" style="stroke:#009af9; stroke-linecap:round; stroke-linejoin:round; stroke-width:8; stroke-opacity:1; fill:none" points="1756.45,177.721 1764.18,176.139 "/>
<polyline clip-path="url(#clip652)" style="stroke:#009af9; stroke-linecap:round; stroke-linejoin:round; stroke-width:8; stroke-opacity:1; fill:none" points="1764.18,176.139 1771.94,174.548 "/>
<polyline clip-path="url(#clip652)" style="stroke:#009af9; stroke-linecap:round; stroke-linejoin:round; stroke-width:8; stroke-opacity:1; fill:none" points="1771.94,174.548 1779.71,172.948 "/>
<polyline clip-path="url(#clip652)" style="stroke:#009af9; stroke-linecap:round; stroke-linejoin:round; stroke-width:8; stroke-opacity:1; fill:none" points="1779.71,172.948 1787.51,171.339 "/>
<polyline clip-path="url(#clip652)" style="stroke:#009af9; stroke-linecap:round; stroke-linejoin:round; stroke-width:8; stroke-opacity:1; fill:none" points="1787.51,171.339 1795.32,169.722 "/>
<polyline clip-path="url(#clip652)" style="stroke:#009af9; stroke-linecap:round; stroke-linejoin:round; stroke-width:8; stroke-opacity:1; fill:none" points="1795.32,169.722 1803.15,168.097 "/>
<polyline clip-path="url(#clip652)" style="stroke:#009af9; stroke-linecap:round; stroke-linejoin:round; stroke-width:8; stroke-opacity:1; fill:none" points="1803.15,168.097 1811,166.464 "/>
<polyline clip-path="url(#clip652)" style="stroke:#009af9; stroke-linecap:round; stroke-linejoin:round; stroke-width:8; stroke-opacity:1; fill:none" points="1811,166.464 1818.87,164.823 "/>
<polyline clip-path="url(#clip652)" style="stroke:#009af9; stroke-linecap:round; stroke-linejoin:round; stroke-width:8; stroke-opacity:1; fill:none" points="1818.87,164.823 1826.75,163.174 "/>
<polyline clip-path="url(#clip652)" style="stroke:#009af9; stroke-linecap:round; stroke-linejoin:round; stroke-width:8; stroke-opacity:1; fill:none" points="1826.75,163.174 1834.65,161.518 "/>
<polyline clip-path="url(#clip652)" style="stroke:#009af9; stroke-linecap:round; stroke-linejoin:round; stroke-width:8; stroke-opacity:1; fill:none" points="1834.65,161.518 1842.56,159.855 "/>
<polyline clip-path="url(#clip652)" style="stroke:#009af9; stroke-linecap:round; stroke-linejoin:round; stroke-width:8; stroke-opacity:1; fill:none" points="1842.56,159.855 1850.48,158.186 "/>
<polyline clip-path="url(#clip652)" style="stroke:#009af9; stroke-linecap:round; stroke-linejoin:round; stroke-width:8; stroke-opacity:1; fill:none" points="1850.48,158.186 1858.42,156.509 "/>
<polyline clip-path="url(#clip652)" style="stroke:#009af9; stroke-linecap:round; stroke-linejoin:round; stroke-width:8; stroke-opacity:1; fill:none" points="1858.42,156.509 1866.37,154.826 "/>
<polyline clip-path="url(#clip652)" style="stroke:#009af9; stroke-linecap:round; stroke-linejoin:round; stroke-width:8; stroke-opacity:1; fill:none" points="1866.37,154.826 1874.33,153.136 "/>
<polyline clip-path="url(#clip652)" style="stroke:#009af9; stroke-linecap:round; stroke-linejoin:round; stroke-width:8; stroke-opacity:1; fill:none" points="1874.33,153.136 1882.31,151.44 "/>
<polyline clip-path="url(#clip652)" style="stroke:#009af9; stroke-linecap:round; stroke-linejoin:round; stroke-width:8; stroke-opacity:1; fill:none" points="1882.31,151.44 1890.29,149.739 "/>
<polyline clip-path="url(#clip652)" style="stroke:#009af9; stroke-linecap:round; stroke-linejoin:round; stroke-width:8; stroke-opacity:1; fill:none" points="1890.29,149.739 1898.29,148.031 "/>
<polyline clip-path="url(#clip652)" style="stroke:#009af9; stroke-linecap:round; stroke-linejoin:round; stroke-width:8; stroke-opacity:1; fill:none" points="1898.29,148.031 1906.29,146.318 "/>
<polyline clip-path="url(#clip652)" style="stroke:#009af9; stroke-linecap:round; stroke-linejoin:round; stroke-width:8; stroke-opacity:1; fill:none" points="1906.29,146.318 1914.3,144.599 "/>
<polyline clip-path="url(#clip652)" style="stroke:#009af9; stroke-linecap:round; stroke-linejoin:round; stroke-width:8; stroke-opacity:1; fill:none" points="1914.3,144.599 1922.33,142.875 "/>
<polyline clip-path="url(#clip652)" style="stroke:#009af9; stroke-linecap:round; stroke-linejoin:round; stroke-width:8; stroke-opacity:1; fill:none" points="1922.33,142.875 1930.36,141.146 "/>
<polyline clip-path="url(#clip652)" style="stroke:#009af9; stroke-linecap:round; stroke-linejoin:round; stroke-width:8; stroke-opacity:1; fill:none" points="1930.36,141.146 1938.4,139.412 "/>
<polyline clip-path="url(#clip652)" style="stroke:#009af9; stroke-linecap:round; stroke-linejoin:round; stroke-width:8; stroke-opacity:1; fill:none" points="1938.4,139.412 1946.45,137.673 "/>
<polyline clip-path="url(#clip652)" style="stroke:#009af9; stroke-linecap:round; stroke-linejoin:round; stroke-width:8; stroke-opacity:1; fill:none" points="1946.45,137.673 1954.5,135.929 "/>
<polyline clip-path="url(#clip652)" style="stroke:#009af9; stroke-linecap:round; stroke-linejoin:round; stroke-width:8; stroke-opacity:1; fill:none" points="1954.5,135.929 1962.56,134.181 "/>
<polyline clip-path="url(#clip652)" style="stroke:#009af9; stroke-linecap:round; stroke-linejoin:round; stroke-width:8; stroke-opacity:1; fill:none" points="1962.56,134.181 1970.63,132.428 "/>
<polyline clip-path="url(#clip652)" style="stroke:#009af9; stroke-linecap:round; stroke-linejoin:round; stroke-width:8; stroke-opacity:1; fill:none" points="1970.63,132.428 1978.7,130.671 "/>
<polyline clip-path="url(#clip652)" style="stroke:#009af9; stroke-linecap:round; stroke-linejoin:round; stroke-width:8; stroke-opacity:1; fill:none" points="1978.7,130.671 1986.78,128.91 "/>
<polyline clip-path="url(#clip652)" style="stroke:#009af9; stroke-linecap:round; stroke-linejoin:round; stroke-width:8; stroke-opacity:1; fill:none" points="1986.78,128.91 1994.87,127.145 "/>
<polyline clip-path="url(#clip652)" style="stroke:#009af9; stroke-linecap:round; stroke-linejoin:round; stroke-width:8; stroke-opacity:1; fill:none" points="1994.87,127.145 2002.96,125.376 "/>
<polyline clip-path="url(#clip652)" style="stroke:#009af9; stroke-linecap:round; stroke-linejoin:round; stroke-width:8; stroke-opacity:1; fill:none" points="2002.96,125.376 2011.06,123.603 "/>
<polyline clip-path="url(#clip652)" style="stroke:#009af9; stroke-linecap:round; stroke-linejoin:round; stroke-width:8; stroke-opacity:1; fill:none" points="2011.06,123.603 2019.16,121.827 "/>
<polyline clip-path="url(#clip652)" style="stroke:#009af9; stroke-linecap:round; stroke-linejoin:round; stroke-width:8; stroke-opacity:1; fill:none" points="2019.16,121.827 2027.26,120.047 "/>
<polyline clip-path="url(#clip652)" style="stroke:#009af9; stroke-linecap:round; stroke-linejoin:round; stroke-width:8; stroke-opacity:1; fill:none" points="2027.26,120.047 2035.37,118.264 "/>
<polyline clip-path="url(#clip652)" style="stroke:#009af9; stroke-linecap:round; stroke-linejoin:round; stroke-width:8; stroke-opacity:1; fill:none" points="2035.37,118.264 2043.49,116.477 "/>
<polyline clip-path="url(#clip652)" style="stroke:#009af9; stroke-linecap:round; stroke-linejoin:round; stroke-width:8; stroke-opacity:1; fill:none" points="2043.49,116.477 2051.6,114.688 "/>
<polyline clip-path="url(#clip652)" style="stroke:#009af9; stroke-linecap:round; stroke-linejoin:round; stroke-width:8; stroke-opacity:1; fill:none" points="2051.6,114.688 2059.72,112.896 "/>
<polyline clip-path="url(#clip652)" style="stroke:#009af9; stroke-linecap:round; stroke-linejoin:round; stroke-width:8; stroke-opacity:1; fill:none" points="2059.72,112.896 2067.85,111.1 "/>
<polyline clip-path="url(#clip652)" style="stroke:#009af9; stroke-linecap:round; stroke-linejoin:round; stroke-width:8; stroke-opacity:1; fill:none" points="2067.85,111.1 2075.97,109.302 "/>
<polyline clip-path="url(#clip652)" style="stroke:#009af9; stroke-linecap:round; stroke-linejoin:round; stroke-width:8; stroke-opacity:1; fill:none" points="2075.97,109.302 2084.1,107.501 "/>
<polyline clip-path="url(#clip652)" style="stroke:#009af9; stroke-linecap:round; stroke-linejoin:round; stroke-width:8; stroke-opacity:1; fill:none" points="2084.1,107.501 2092.23,105.698 "/>
<polyline clip-path="url(#clip652)" style="stroke:#009af9; stroke-linecap:round; stroke-linejoin:round; stroke-width:8; stroke-opacity:1; fill:none" points="2092.23,105.698 2100.37,103.892 "/>
<polyline clip-path="url(#clip652)" style="stroke:#009af9; stroke-linecap:round; stroke-linejoin:round; stroke-width:8; stroke-opacity:1; fill:none" points="2100.37,103.892 2108.5,102.084 "/>
<polyline clip-path="url(#clip652)" style="stroke:#009af9; stroke-linecap:round; stroke-linejoin:round; stroke-width:8; stroke-opacity:1; fill:none" points="2108.5,102.084 2116.64,100.274 "/>
<polyline clip-path="url(#clip652)" style="stroke:#009af9; stroke-linecap:round; stroke-linejoin:round; stroke-width:8; stroke-opacity:1; fill:none" points="2116.64,100.274 2124.78,98.4617 "/>
<polyline clip-path="url(#clip652)" style="stroke:#009af9; stroke-linecap:round; stroke-linejoin:round; stroke-width:8; stroke-opacity:1; fill:none" points="2124.78,98.4617 2132.93,96.6473 "/>
<polyline clip-path="url(#clip652)" style="stroke:#009af9; stroke-linecap:round; stroke-linejoin:round; stroke-width:8; stroke-opacity:1; fill:none" points="2132.93,96.6473 2141.07,94.8309 "/>
<polyline clip-path="url(#clip652)" style="stroke:#009af9; stroke-linecap:round; stroke-linejoin:round; stroke-width:8; stroke-opacity:1; fill:none" points="2141.07,94.8309 2149.22,93.0127 "/>
<polyline clip-path="url(#clip652)" style="stroke:#009af9; stroke-linecap:round; stroke-linejoin:round; stroke-width:8; stroke-opacity:1; fill:none" points="2149.22,93.0127 2157.36,91.1927 "/>
<polyline clip-path="url(#clip652)" style="stroke:#009af9; stroke-linecap:round; stroke-linejoin:round; stroke-width:8; stroke-opacity:1; fill:none" points="2157.36,91.1927 2165.51,89.3711 "/>
<polyline clip-path="url(#clip652)" style="stroke:#009af9; stroke-linecap:round; stroke-linejoin:round; stroke-width:8; stroke-opacity:1; fill:none" points="2165.51,89.3711 2173.66,87.5479 "/>
<polyline clip-path="url(#clip652)" style="stroke:#009af9; stroke-linecap:round; stroke-linejoin:round; stroke-width:8; stroke-opacity:1; fill:none" points="2173.66,87.5479 2181.81,85.7233 "/>
<polyline clip-path="url(#clip652)" style="stroke:#009af9; stroke-linecap:round; stroke-linejoin:round; stroke-width:8; stroke-opacity:1; fill:none" points="2181.81,85.7233 2189.96,83.8973 "/>
<polyline clip-path="url(#clip652)" style="stroke:#009af9; stroke-linecap:round; stroke-linejoin:round; stroke-width:8; stroke-opacity:1; fill:none" points="2189.96,83.8973 2198.11,82.0699 "/>
<polyline clip-path="url(#clip652)" style="stroke:#009af9; stroke-linecap:round; stroke-linejoin:round; stroke-width:8; stroke-opacity:1; fill:none" points="2198.11,82.0699 2206.26,80.2414 "/>
<polyline clip-path="url(#clip652)" style="stroke:#009af9; stroke-linecap:round; stroke-linejoin:round; stroke-width:8; stroke-opacity:1; fill:none" points="2206.26,80.2414 2214.41,78.4117 "/>
<polyline clip-path="url(#clip652)" style="stroke:#009af9; stroke-linecap:round; stroke-linejoin:round; stroke-width:8; stroke-opacity:1; fill:none" points="2214.41,78.4117 2222.56,76.581 "/>
<polyline clip-path="url(#clip652)" style="stroke:#009af9; stroke-linecap:round; stroke-linejoin:round; stroke-width:8; stroke-opacity:1; fill:none" points="2222.56,76.581 2230.71,74.7492 "/>
<polyline clip-path="url(#clip652)" style="stroke:#009af9; stroke-linecap:round; stroke-linejoin:round; stroke-width:8; stroke-opacity:1; fill:none" points="2230.71,74.7492 2238.86,72.9166 "/>
<polyline clip-path="url(#clip652)" style="stroke:#009af9; stroke-linecap:round; stroke-linejoin:round; stroke-width:8; stroke-opacity:1; fill:none" points="2238.86,72.9166 2247.01,71.0832 "/>
<polyline clip-path="url(#clip652)" style="stroke:#009af9; stroke-linecap:round; stroke-linejoin:round; stroke-width:8; stroke-opacity:1; fill:none" points="2247.01,71.0832 2255.16,69.249 "/>
<polyline clip-path="url(#clip652)" style="stroke:#009af9; stroke-linecap:round; stroke-linejoin:round; stroke-width:8; stroke-opacity:1; fill:none" points="2255.16,69.249 2263.31,67.4141 "/>
<polyline clip-path="url(#clip652)" style="stroke:#009af9; stroke-linecap:round; stroke-linejoin:round; stroke-width:8; stroke-opacity:1; fill:none" points="2263.31,67.4141 2271.46,65.5787 "/>
<polyline clip-path="url(#clip652)" style="stroke:#009af9; stroke-linecap:round; stroke-linejoin:round; stroke-width:8; stroke-opacity:1; fill:none" points="2271.46,65.5787 2279.61,63.7427 "/>
<polyline clip-path="url(#clip652)" style="stroke:#009af9; stroke-linecap:round; stroke-linejoin:round; stroke-width:8; stroke-opacity:1; fill:none" points="2279.61,63.7427 2287.76,61.9062 "/>
<polyline clip-path="url(#clip652)" style="stroke:#009af9; stroke-linecap:round; stroke-linejoin:round; stroke-width:8; stroke-opacity:1; fill:none" points="2287.76,61.9062 2295.91,60.0694 "/>
<polyline clip-path="url(#clip652)" style="stroke:#009af9; stroke-linecap:round; stroke-linejoin:round; stroke-width:8; stroke-opacity:1; fill:none" points="2295.91,60.0694 2304.06,58.2322 "/>
<polyline clip-path="url(#clip652)" style="stroke:#009af9; stroke-linecap:round; stroke-linejoin:round; stroke-width:8; stroke-opacity:1; fill:none" points="2304.06,58.2322 2312.21,56.3948 "/>
<polyline clip-path="url(#clip652)" style="stroke:#009af9; stroke-linecap:round; stroke-linejoin:round; stroke-width:8; stroke-opacity:1; fill:none" points="2312.21,56.3948 2320.35,54.5571 "/>
<polyline clip-path="url(#clip652)" style="stroke:#009af9; stroke-linecap:round; stroke-linejoin:round; stroke-width:8; stroke-opacity:1; fill:none" points="2320.35,54.5571 2328.5,52.7193 "/>
<polyline clip-path="url(#clip652)" style="stroke:#009af9; stroke-linecap:round; stroke-linejoin:round; stroke-width:8; stroke-opacity:1; fill:none" points="2328.5,52.7193 2336.64,50.8815 "/>
<polyline clip-path="url(#clip652)" style="stroke:#009af9; stroke-linecap:round; stroke-linejoin:round; stroke-width:8; stroke-opacity:1; fill:none" points="2336.64,50.8815 2344.78,49.0436 "/>
<polyline clip-path="url(#clip652)" style="stroke:#009af9; stroke-linecap:round; stroke-linejoin:round; stroke-width:8; stroke-opacity:1; fill:none" points="2344.78,49.0436 2352.76,47.2441 "/>
</svg>
