<?xml version="1.0" encoding="utf-8"?>
<svg xmlns="http://www.w3.org/2000/svg" xmlns:xlink="http://www.w3.org/1999/xlink" width="800" height="400" viewBox="0 0 3200 1600">
<defs>
  <clipPath id="clip630">
    <rect x="0" y="0" width="3200" height="1600"/>
  </clipPath>
</defs>
<path clip-path="url(#clip630)" d="M0 1600 L3200 1600 L3200 0 L0 0  Z" fill="#ffffff" fill-rule="evenodd" fill-opacity="1"/>
<defs>
  <clipPath id="clip631">
    <rect x="640" y="0" width="2241" height="1600"/>
  </clipPath>
</defs>
<path clip-path="url(#clip630)" d="M278.647 1396.46 L3152.76 1396.46 L3152.76 47.2441 L278.647 47.2441  Z" fill="#ffffff" fill-rule="evenodd" fill-opacity="1"/>
<defs>
  <clipPath id="clip632">
    <rect x="278" y="47" width="2875" height="1350"/>
  </clipPath>
</defs>
<polyline clip-path="url(#clip632)" style="stroke:#000000; stroke-linecap:round; stroke-linejoin:round; stroke-width:2; stroke-opacity:0.1; fill:none" points="278.647,1396.46 278.647,47.2441 "/>
<polyline clip-path="url(#clip632)" style="stroke:#000000; stroke-linecap:round; stroke-linejoin:round; stroke-width:2; stroke-opacity:0.1; fill:none" points="757.665,1396.46 757.665,47.2441 "/>
<polyline clip-path="url(#clip632)" style="stroke:#000000; stroke-linecap:round; stroke-linejoin:round; stroke-width:2; stroke-opacity:0.1; fill:none" points="1236.68,1396.46 1236.68,47.2441 "/>
<polyline clip-path="url(#clip632)" style="stroke:#000000; stroke-linecap:round; stroke-linejoin:round; stroke-width:2; stroke-opacity:0.1; fill:none" points="1715.7,1396.46 1715.7,47.2441 "/>
<polyline clip-path="url(#clip632)" style="stroke:#000000; stroke-linecap:round; stroke-linejoin:round; stroke-width:2; stroke-opacity:0.1; fill:none" points="2194.72,1396.46 2194.72,47.2441 "/>
<polyline clip-path="url(#clip632)" style="stroke:#000000; stroke-linecap:round; stroke-linejoin:round; stroke-width:2; stroke-opacity:0.1; fill:none" points="2673.74,1396.46 2673.74,47.2441 "/>
<polyline clip-path="url(#clip632)" style="stroke:#000000; stroke-linecap:round; stroke-linejoin:round; stroke-width:2; stroke-opacity:0.1; fill:none" points="3152.76,1396.46 3152.76,47.2441 "/>
<polyline clip-path="url(#clip632)" style="stroke:#000000; stroke-linecap:round; stroke-linejoin:round; stroke-width:2; stroke-opacity:0.1; fill:none" points="278.647,1396.46 278.647,47.2441 "/>
<polyline clip-path="url(#clip632)" style="stroke:#000000; stroke-linecap:round; stroke-linejoin:round; stroke-width:2; stroke-opacity:0.1; fill:none" points="757.665,1396.46 757.665,47.2441 "/>
<polyline clip-path="url(#clip632)" style="stroke:#000000; stroke-linecap:round; stroke-linejoin:round; stroke-width:2; stroke-opacity:0.1; fill:none" points="1236.68,1396.46 1236.68,47.2441 "/>
<polyline clip-path="url(#clip632)" style="stroke:#000000; stroke-linecap:round; stroke-linejoin:round; stroke-width:2; stroke-opacity:0.1; fill:none" points="1715.7,1396.46 1715.7,47.2441 "/>
<polyline clip-path="url(#clip632)" style="stroke:#000000; stroke-linecap:round; stroke-linejoin:round; stroke-width:2; stroke-opacity:0.1; fill:none" points="2194.72,1396.46 2194.72,47.2441 "/>
<polyline clip-path="url(#clip632)" style="stroke:#000000; stroke-linecap:round; stroke-linejoin:round; stroke-width:2; stroke-opacity:0.1; fill:none" points="2673.74,1396.46 2673.74,47.2441 "/>
<polyline clip-path="url(#clip632)" style="stroke:#000000; stroke-linecap:round; stroke-linejoin:round; stroke-width:2; stroke-opacity:0.1; fill:none" points="3152.76,1396.46 3152.76,47.2441 "/>
<polyline clip-path="url(#clip632)" style="stroke:#000000; stroke-linecap:round; stroke-linejoin:round; stroke-width:2; stroke-opacity:0.1; fill:none" points="278.647,1360.15 3152.76,1360.15 "/>
<polyline clip-path="url(#clip632)" style="stroke:#000000; stroke-linecap:round; stroke-linejoin:round; stroke-width:2; stroke-opacity:0.1; fill:none" points="278.647,1171.77 3152.76,1171.77 "/>
<polyline clip-path="url(#clip632)" style="stroke:#000000; stroke-linecap:round; stroke-linejoin:round; stroke-width:2; stroke-opacity:0.1; fill:none" points="278.647,983.386 3152.76,983.386 "/>
<polyline clip-path="url(#clip632)" style="stroke:#000000; stroke-linecap:round; stroke-linejoin:round; stroke-width:2; stroke-opacity:0.1; fill:none" points="278.647,795.002 3152.76,795.002 "/>
<polyline clip-path="url(#clip632)" style="stroke:#000000; stroke-linecap:round; stroke-linejoin:round; stroke-width:2; stroke-opacity:0.1; fill:none" points="278.647,606.618 3152.76,606.618 "/>
<polyline clip-path="url(#clip632)" style="stroke:#000000; stroke-linecap:round; stroke-linejoin:round; stroke-width:2; stroke-opacity:0.1; fill:none" points="278.647,418.234 3152.76,418.234 "/>
<polyline clip-path="url(#clip632)" style="stroke:#000000; stroke-linecap:round; stroke-linejoin:round; stroke-width:2; stroke-opacity:0.1; fill:none" points="278.647,229.85 3152.76,229.85 "/>
<polyline clip-path="url(#clip632)" style="stroke:#000000; stroke-linecap:round; stroke-linejoin:round; stroke-width:2; stroke-opacity:0.1; fill:none" points="278.647,1360.15 3152.76,1360.15 "/>
<polyline clip-path="url(#clip632)" style="stroke:#000000; stroke-linecap:round; stroke-linejoin:round; stroke-width:2; stroke-opacity:0.1; fill:none" points="278.647,1171.77 3152.76,1171.77 "/>
<polyline clip-path="url(#clip632)" style="stroke:#000000; stroke-linecap:round; stroke-linejoin:round; stroke-width:2; stroke-opacity:0.1; fill:none" points="278.647,983.386 3152.76,983.386 "/>
<polyline clip-path="url(#clip632)" style="stroke:#000000; stroke-linecap:round; stroke-linejoin:round; stroke-width:2; stroke-opacity:0.1; fill:none" points="278.647,795.002 3152.76,795.002 "/>
<polyline clip-path="url(#clip632)" style="stroke:#000000; stroke-linecap:round; stroke-linejoin:round; stroke-width:2; stroke-opacity:0.1; fill:none" points="278.647,606.618 3152.76,606.618 "/>
<polyline clip-path="url(#clip632)" style="stroke:#000000; stroke-linecap:round; stroke-linejoin:round; stroke-width:2; stroke-opacity:0.1; fill:none" points="278.647,418.234 3152.76,418.234 "/>
<polyline clip-path="url(#clip632)" style="stroke:#000000; stroke-linecap:round; stroke-linejoin:round; stroke-width:2; stroke-opacity:0.1; fill:none" points="278.647,229.85 3152.76,229.85 "/>
<polyline clip-path="url(#clip630)" style="stroke:#000000; stroke-linecap:round; stroke-linejoin:round; stroke-width:4; stroke-opacity:1; fill:none" points="278.647,1396.46 3152.76,1396.46 "/>
<polyline clip-path="url(#clip630)" style="stroke:#000000; stroke-linecap:round; stroke-linejoin:round; stroke-width:4; stroke-opacity:1; fill:none" points="278.647,47.2441 3152.76,47.2441 "/>
<polyline clip-path="url(#clip630)" style="stroke:#000000; stroke-linecap:round; stroke-linejoin:round; stroke-width:4; stroke-opacity:1; fill:none" points="278.647,1396.46 278.647,1377.56 "/>
<polyline clip-path="url(#clip630)" style="stroke:#000000; stroke-linecap:round; stroke-linejoin:round; stroke-width:4; stroke-opacity:1; fill:none" points="757.665,1396.46 757.665,1377.56 "/>
<polyline clip-path="url(#clip630)" style="stroke:#000000; stroke-linecap:round; stroke-linejoin:round; stroke-width:4; stroke-opacity:1; fill:none" points="1236.68,1396.46 1236.68,1377.56 "/>
<polyline clip-path="url(#clip630)" style="stroke:#000000; stroke-linecap:round; stroke-linejoin:round; stroke-width:4; stroke-opacity:1; fill:none" points="1715.7,1396.46 1715.7,1377.56 "/>
<polyline clip-path="url(#clip630)" style="stroke:#000000; stroke-linecap:round; stroke-linejoin:round; stroke-width:4; stroke-opacity:1; fill:none" points="2194.72,1396.46 2194.72,1377.56 "/>
<polyline clip-path="url(#clip630)" style="stroke:#000000; stroke-linecap:round; stroke-linejoin:round; stroke-width:4; stroke-opacity:1; fill:none" points="2673.74,1396.46 2673.74,1377.56 "/>
<polyline clip-path="url(#clip630)" style="stroke:#000000; stroke-linecap:round; stroke-linejoin:round; stroke-width:4; stroke-opacity:1; fill:none" points="3152.76,1396.46 3152.76,1377.56 "/>
<polyline clip-path="url(#clip630)" style="stroke:#000000; stroke-linecap:round; stroke-linejoin:round; stroke-width:4; stroke-opacity:1; fill:none" points="278.647,47.2441 278.647,66.1417 "/>
<polyline clip-path="url(#clip630)" style="stroke:#000000; stroke-linecap:round; stroke-linejoin:round; stroke-width:4; stroke-opacity:1; fill:none" points="757.665,47.2441 757.665,66.1417 "/>
<polyline clip-path="url(#clip630)" style="stroke:#000000; stroke-linecap:round; stroke-linejoin:round; stroke-width:4; stroke-opacity:1; fill:none" points="1236.68,47.2441 1236.68,66.1417 "/>
<polyline clip-path="url(#clip630)" style="stroke:#000000; stroke-linecap:round; stroke-linejoin:round; stroke-width:4; stroke-opacity:1; fill:none" points="1715.7,47.2441 1715.7,66.1417 "/>
<polyline clip-path="url(#clip630)" style="stroke:#000000; stroke-linecap:round; stroke-linejoin:round; stroke-width:4; stroke-opacity:1; fill:none" points="2194.72,47.2441 2194.72,66.1417 "/>
<polyline clip-path="url(#clip630)" style="stroke:#000000; stroke-linecap:round; stroke-linejoin:round; stroke-width:4; stroke-opacity:1; fill:none" points="2673.74,47.2441 2673.74,66.1417 "/>
<polyline clip-path="url(#clip630)" style="stroke:#000000; stroke-linecap:round; stroke-linejoin:round; stroke-width:4; stroke-opacity:1; fill:none" points="3152.76,47.2441 3152.76,66.1417 "/>
<path clip-path="url(#clip630)" d="M278.647 1433.77 Q275.036 1433.77 273.207 1437.34 Q271.402 1440.88 271.402 1448.01 Q271.402 1455.12 273.207 1458.68 Q275.036 1462.22 278.647 1462.22 Q282.281 1462.22 284.087 1458.68 Q285.915 1455.12 285.915 1448.01 Q285.915 1440.88 284.087 1437.34 Q282.281 1433.77 278.647 1433.77 M278.647 1430.07 Q284.457 1430.07 287.513 1434.68 Q290.591 1439.26 290.591 1448.01 Q290.591 1456.74 287.513 1461.34 Q284.457 1465.93 278.647 1465.93 Q272.837 1465.93 269.758 1461.34 Q266.703 1456.74 266.703 1448.01 Q266.703 1439.26 269.758 1434.68 Q272.837 1430.07 278.647 1430.07 Z" fill="#000000" fill-rule="nonzero" fill-opacity="1" /><path clip-path="url(#clip630)" d="M748.047 1461.32 L755.686 1461.32 L755.686 1434.95 L747.376 1436.62 L747.376 1432.36 L755.64 1430.7 L760.316 1430.7 L760.316 1461.32 L767.954 1461.32 L767.954 1465.26 L748.047 1465.26 L748.047 1461.32 Z" fill="#000000" fill-rule="nonzero" fill-opacity="1" /><path clip-path="url(#clip630)" d="M1231.34 1461.32 L1247.66 1461.32 L1247.66 1465.26 L1225.71 1465.26 L1225.71 1461.32 Q1228.37 1458.57 1232.96 1453.94 Q1237.56 1449.28 1238.74 1447.94 Q1240.99 1445.42 1241.87 1443.68 Q1242.77 1441.92 1242.77 1440.23 Q1242.77 1437.48 1240.83 1435.74 Q1238.91 1434.01 1235.8 1434.01 Q1233.6 1434.01 1231.15 1434.77 Q1228.72 1435.53 1225.94 1437.08 L1225.94 1432.36 Q1228.77 1431.23 1231.22 1430.65 Q1233.67 1430.07 1235.71 1430.07 Q1241.08 1430.07 1244.28 1432.76 Q1247.47 1435.44 1247.47 1439.93 Q1247.47 1442.06 1246.66 1443.98 Q1245.87 1445.88 1243.77 1448.47 Q1243.19 1449.14 1240.09 1452.36 Q1236.98 1455.56 1231.34 1461.32 Z" fill="#000000" fill-rule="nonzero" fill-opacity="1" /><path clip-path="url(#clip630)" d="M1719.95 1446.62 Q1723.31 1447.34 1725.18 1449.61 Q1727.08 1451.88 1727.08 1455.21 Q1727.08 1460.33 1723.56 1463.13 Q1720.04 1465.93 1713.56 1465.93 Q1711.38 1465.93 1709.07 1465.49 Q1706.78 1465.07 1704.32 1464.21 L1704.32 1459.7 Q1706.27 1460.83 1708.58 1461.41 Q1710.9 1461.99 1713.42 1461.99 Q1717.82 1461.99 1720.11 1460.26 Q1722.43 1458.52 1722.43 1455.21 Q1722.43 1452.15 1720.27 1450.44 Q1718.14 1448.7 1714.32 1448.7 L1710.3 1448.7 L1710.3 1444.86 L1714.51 1444.86 Q1717.96 1444.86 1719.79 1443.5 Q1721.62 1442.11 1721.62 1439.52 Q1721.62 1436.85 1719.72 1435.44 Q1717.84 1434.01 1714.32 1434.01 Q1712.4 1434.01 1710.2 1434.42 Q1708 1434.84 1705.37 1435.72 L1705.37 1431.55 Q1708.03 1430.81 1710.34 1430.44 Q1712.68 1430.07 1714.74 1430.07 Q1720.06 1430.07 1723.17 1432.5 Q1726.27 1434.91 1726.27 1439.03 Q1726.27 1441.9 1724.62 1443.89 Q1722.98 1445.86 1719.95 1446.62 Z" fill="#000000" fill-rule="nonzero" fill-opacity="1" /><path clip-path="url(#clip630)" d="M2197.73 1434.77 L2185.92 1453.22 L2197.73 1453.22 L2197.73 1434.77 M2196.5 1430.7 L2202.38 1430.7 L2202.38 1453.22 L2207.31 1453.22 L2207.31 1457.11 L2202.38 1457.11 L2202.38 1465.26 L2197.73 1465.26 L2197.73 1457.11 L2182.13 1457.11 L2182.13 1452.59 L2196.5 1430.7 Z" fill="#000000" fill-rule="nonzero" fill-opacity="1" /><path clip-path="url(#clip630)" d="M2664.02 1430.7 L2682.37 1430.7 L2682.37 1434.63 L2668.3 1434.63 L2668.3 1443.1 Q2669.32 1442.76 2670.33 1442.59 Q2671.35 1442.41 2672.37 1442.41 Q2678.16 1442.41 2681.54 1445.58 Q2684.92 1448.75 2684.92 1454.17 Q2684.92 1459.75 2681.45 1462.85 Q2677.97 1465.93 2671.65 1465.93 Q2669.48 1465.93 2667.21 1465.56 Q2664.96 1465.19 2662.56 1464.45 L2662.56 1459.75 Q2664.64 1460.88 2666.86 1461.44 Q2669.08 1461.99 2671.56 1461.99 Q2675.57 1461.99 2677.9 1459.89 Q2680.24 1457.78 2680.24 1454.17 Q2680.24 1450.56 2677.9 1448.45 Q2675.57 1446.34 2671.56 1446.34 Q2669.69 1446.34 2667.81 1446.76 Q2665.96 1447.18 2664.02 1448.06 L2664.02 1430.7 Z" fill="#000000" fill-rule="nonzero" fill-opacity="1" /><path clip-path="url(#clip630)" d="M3153.16 1446.11 Q3150.01 1446.11 3148.16 1448.27 Q3146.33 1450.42 3146.33 1454.17 Q3146.33 1457.89 3148.16 1460.07 Q3150.01 1462.22 3153.16 1462.22 Q3156.31 1462.22 3158.14 1460.07 Q3159.99 1457.89 3159.99 1454.17 Q3159.99 1450.42 3158.14 1448.27 Q3156.31 1446.11 3153.16 1446.11 M3162.44 1431.46 L3162.44 1435.72 Q3160.68 1434.89 3158.88 1434.45 Q3157.1 1434.01 3155.34 1434.01 Q3150.71 1434.01 3148.25 1437.13 Q3145.82 1440.26 3145.48 1446.58 Q3146.84 1444.56 3148.9 1443.5 Q3150.96 1442.41 3153.44 1442.41 Q3158.65 1442.41 3161.66 1445.58 Q3164.69 1448.73 3164.69 1454.17 Q3164.69 1459.49 3161.54 1462.71 Q3158.39 1465.93 3153.16 1465.93 Q3147.17 1465.93 3143.99 1461.34 Q3140.82 1456.74 3140.82 1448.01 Q3140.82 1439.82 3144.71 1434.95 Q3148.6 1430.07 3155.15 1430.07 Q3156.91 1430.07 3158.69 1430.42 Q3160.5 1430.77 3162.44 1431.46 Z" fill="#000000" fill-rule="nonzero" fill-opacity="1" /><path clip-path="url(#clip630)" d="M1654.86 1507.55 L1654.86 1517.67 L1666.92 1517.67 L1666.92 1522.22 L1654.86 1522.22 L1654.86 1541.58 Q1654.86 1545.94 1656.04 1547.18 Q1657.25 1548.42 1660.91 1548.42 L1666.92 1548.42 L1666.92 1553.32 L1660.91 1553.32 Q1654.13 1553.32 1651.55 1550.81 Q1648.97 1548.26 1648.97 1541.58 L1648.97 1522.22 L1644.68 1522.22 L1644.68 1517.67 L1648.97 1517.67 L1648.97 1507.55 L1654.86 1507.55 Z" fill="#000000" fill-rule="nonzero" fill-opacity="1" /><path clip-path="url(#clip630)" d="M1674.63 1517.67 L1680.48 1517.67 L1680.48 1553.32 L1674.63 1553.32 L1674.63 1517.67 M1674.63 1503.79 L1680.48 1503.79 L1680.48 1511.21 L1674.63 1511.21 L1674.63 1503.79 Z" fill="#000000" fill-rule="nonzero" fill-opacity="1" /><path clip-path="url(#clip630)" d="M1720.49 1524.51 Q1722.69 1520.57 1725.74 1518.69 Q1728.8 1516.81 1732.94 1516.81 Q1738.51 1516.81 1741.53 1520.73 Q1744.55 1524.61 1744.55 1531.8 L1744.55 1553.32 L1738.67 1553.32 L1738.67 1531.99 Q1738.67 1526.87 1736.85 1524.39 Q1735.04 1521.9 1731.31 1521.9 Q1726.76 1521.9 1724.12 1524.93 Q1721.48 1527.95 1721.48 1533.17 L1721.48 1553.32 L1715.59 1553.32 L1715.59 1531.99 Q1715.59 1526.84 1713.78 1524.39 Q1711.96 1521.9 1708.17 1521.9 Q1703.69 1521.9 1701.04 1524.96 Q1698.4 1527.98 1698.4 1533.17 L1698.4 1553.32 L1692.51 1553.32 L1692.51 1517.67 L1698.4 1517.67 L1698.4 1523.21 Q1700.41 1519.93 1703.21 1518.37 Q1706.01 1516.81 1709.86 1516.81 Q1713.74 1516.81 1716.45 1518.79 Q1719.19 1520.76 1720.49 1524.51 Z" fill="#000000" fill-rule="nonzero" fill-opacity="1" /><path clip-path="url(#clip630)" d="M1786.73 1534.03 L1786.73 1536.9 L1759.8 1536.9 Q1760.18 1542.94 1763.43 1546.13 Q1766.71 1549.28 1772.53 1549.28 Q1775.91 1549.28 1779.06 1548.45 Q1782.24 1547.62 1785.36 1545.97 L1785.36 1551.51 Q1782.21 1552.84 1778.9 1553.54 Q1775.59 1554.24 1772.18 1554.24 Q1763.65 1554.24 1758.65 1549.28 Q1753.69 1544.31 1753.69 1535.85 Q1753.69 1527.09 1758.4 1521.97 Q1763.14 1516.81 1771.16 1516.81 Q1778.36 1516.81 1782.53 1521.46 Q1786.73 1526.07 1786.73 1534.03 M1780.87 1532.31 Q1780.81 1527.51 1778.16 1524.64 Q1775.55 1521.78 1771.23 1521.78 Q1766.32 1521.78 1763.36 1524.55 Q1760.44 1527.32 1759.99 1532.34 L1780.87 1532.31 Z" fill="#000000" fill-rule="nonzero" fill-opacity="1" /><polyline clip-path="url(#clip630)" style="stroke:#000000; stroke-linecap:round; stroke-linejoin:round; stroke-width:4; stroke-opacity:1; fill:none" points="278.647,1396.46 278.647,47.2441 "/>
<polyline clip-path="url(#clip630)" style="stroke:#000000; stroke-linecap:round; stroke-linejoin:round; stroke-width:4; stroke-opacity:1; fill:none" points="3152.76,1396.46 3152.76,47.2441 "/>
<polyline clip-path="url(#clip630)" style="stroke:#000000; stroke-linecap:round; stroke-linejoin:round; stroke-width:4; stroke-opacity:1; fill:none" points="278.647,1360.15 297.545,1360.15 "/>
<polyline clip-path="url(#clip630)" style="stroke:#000000; stroke-linecap:round; stroke-linejoin:round; stroke-width:4; stroke-opacity:1; fill:none" points="278.647,1171.77 297.545,1171.77 "/>
<polyline clip-path="url(#clip630)" style="stroke:#000000; stroke-linecap:round; stroke-linejoin:round; stroke-width:4; stroke-opacity:1; fill:none" points="278.647,983.386 297.545,983.386 "/>
<polyline clip-path="url(#clip630)" style="stroke:#000000; stroke-linecap:round; stroke-linejoin:round; stroke-width:4; stroke-opacity:1; fill:none" points="278.647,795.002 297.545,795.002 "/>
<polyline clip-path="url(#clip630)" style="stroke:#000000; stroke-linecap:round; stroke-linejoin:round; stroke-width:4; stroke-opacity:1; fill:none" points="278.647,606.618 297.545,606.618 "/>
<polyline clip-path="url(#clip630)" style="stroke:#000000; stroke-linecap:round; stroke-linejoin:round; stroke-width:4; stroke-opacity:1; fill:none" points="278.647,418.234 297.545,418.234 "/>
<polyline clip-path="url(#clip630)" style="stroke:#000000; stroke-linecap:round; stroke-linejoin:round; stroke-width:4; stroke-opacity:1; fill:none" points="278.647,229.85 297.545,229.85 "/>
<polyline clip-path="url(#clip630)" style="stroke:#000000; stroke-linecap:round; stroke-linejoin:round; stroke-width:4; stroke-opacity:1; fill:none" points="3152.76,1360.15 3133.86,1360.15 "/>
<polyline clip-path="url(#clip630)" style="stroke:#000000; stroke-linecap:round; stroke-linejoin:round; stroke-width:4; stroke-opacity:1; fill:none" points="3152.76,1171.77 3133.86,1171.77 "/>
<polyline clip-path="url(#clip630)" style="stroke:#000000; stroke-linecap:round; stroke-linejoin:round; stroke-width:4; stroke-opacity:1; fill:none" points="3152.76,983.386 3133.86,983.386 "/>
<polyline clip-path="url(#clip630)" style="stroke:#000000; stroke-linecap:round; stroke-linejoin:round; stroke-width:4; stroke-opacity:1; fill:none" points="3152.76,795.002 3133.86,795.002 "/>
<polyline clip-path="url(#clip630)" style="stroke:#000000; stroke-linecap:round; stroke-linejoin:round; stroke-width:4; stroke-opacity:1; fill:none" points="3152.76,606.618 3133.86,606.618 "/>
<polyline clip-path="url(#clip630)" style="stroke:#000000; stroke-linecap:round; stroke-linejoin:round; stroke-width:4; stroke-opacity:1; fill:none" points="3152.76,418.234 3133.86,418.234 "/>
<polyline clip-path="url(#clip630)" style="stroke:#000000; stroke-linecap:round; stroke-linejoin:round; stroke-width:4; stroke-opacity:1; fill:none" points="3152.76,229.85 3133.86,229.85 "/>
<path clip-path="url(#clip630)" d="M218.703 1345.95 Q215.091 1345.95 213.263 1349.52 Q211.457 1353.06 211.457 1360.19 Q211.457 1367.3 213.263 1370.86 Q215.091 1374.4 218.703 1374.4 Q222.337 1374.4 224.142 1370.86 Q225.971 1367.3 225.971 1360.19 Q225.971 1353.06 224.142 1349.52 Q222.337 1345.95 218.703 1345.95 M218.703 1342.25 Q224.513 1342.25 227.568 1346.86 Q230.647 1351.44 230.647 1360.19 Q230.647 1368.92 227.568 1373.52 Q224.513 1378.11 218.703 1378.11 Q212.892 1378.11 209.814 1373.52 Q206.758 1368.92 206.758 1360.19 Q206.758 1351.44 209.814 1346.86 Q212.892 1342.25 218.703 1342.25 Z" fill="#000000" fill-rule="nonzero" fill-opacity="1" /><path clip-path="url(#clip630)" d="M149.189 1185.12 L156.828 1185.12 L156.828 1158.75 L148.518 1160.42 L148.518 1156.16 L156.782 1154.49 L161.458 1154.49 L161.458 1185.12 L169.096 1185.12 L169.096 1189.05 L149.189 1189.05 L149.189 1185.12 Z" fill="#000000" fill-rule="nonzero" fill-opacity="1" /><path clip-path="url(#clip630)" d="M188.541 1157.57 Q184.93 1157.57 183.101 1161.13 Q181.295 1164.68 181.295 1171.81 Q181.295 1178.91 183.101 1182.48 Q184.93 1186.02 188.541 1186.02 Q192.175 1186.02 193.98 1182.48 Q195.809 1178.91 195.809 1171.81 Q195.809 1164.68 193.98 1161.13 Q192.175 1157.57 188.541 1157.57 M188.541 1153.87 Q194.351 1153.87 197.406 1158.47 Q200.485 1163.06 200.485 1171.81 Q200.485 1180.53 197.406 1185.14 Q194.351 1189.72 188.541 1189.72 Q182.731 1189.72 179.652 1185.14 Q176.596 1180.53 176.596 1171.81 Q176.596 1163.06 179.652 1158.47 Q182.731 1153.87 188.541 1153.87 Z" fill="#000000" fill-rule="nonzero" fill-opacity="1" /><path clip-path="url(#clip630)" d="M218.703 1157.57 Q215.091 1157.57 213.263 1161.13 Q211.457 1164.68 211.457 1171.81 Q211.457 1178.91 213.263 1182.48 Q215.091 1186.02 218.703 1186.02 Q222.337 1186.02 224.142 1182.48 Q225.971 1178.91 225.971 1171.81 Q225.971 1164.68 224.142 1161.13 Q222.337 1157.57 218.703 1157.57 M218.703 1153.87 Q224.513 1153.87 227.568 1158.47 Q230.647 1163.06 230.647 1171.81 Q230.647 1180.53 227.568 1185.14 Q224.513 1189.72 218.703 1189.72 Q212.892 1189.72 209.814 1185.14 Q206.758 1180.53 206.758 1171.81 Q206.758 1163.06 209.814 1158.47 Q212.892 1153.87 218.703 1153.87 Z" fill="#000000" fill-rule="nonzero" fill-opacity="1" /><path clip-path="url(#clip630)" d="M152.407 996.731 L168.726 996.731 L168.726 1000.67 L146.782 1000.67 L146.782 996.731 Q149.444 993.977 154.027 989.347 Q158.633 984.694 159.814 983.352 Q162.059 980.828 162.939 979.092 Q163.842 977.333 163.842 975.643 Q163.842 972.889 161.897 971.153 Q159.976 969.416 156.874 969.416 Q154.675 969.416 152.221 970.18 Q149.791 970.944 147.013 972.495 L147.013 967.773 Q149.837 966.639 152.291 966.06 Q154.745 965.481 156.782 965.481 Q162.152 965.481 165.346 968.166 Q168.541 970.852 168.541 975.342 Q168.541 977.472 167.731 979.393 Q166.944 981.291 164.837 983.884 Q164.258 984.555 161.157 987.773 Q158.055 990.967 152.407 996.731 Z" fill="#000000" fill-rule="nonzero" fill-opacity="1" /><path clip-path="url(#clip630)" d="M188.541 969.185 Q184.93 969.185 183.101 972.75 Q181.295 976.291 181.295 983.421 Q181.295 990.527 183.101 994.092 Q184.93 997.634 188.541 997.634 Q192.175 997.634 193.98 994.092 Q195.809 990.527 195.809 983.421 Q195.809 976.291 193.98 972.75 Q192.175 969.185 188.541 969.185 M188.541 965.481 Q194.351 965.481 197.406 970.088 Q200.485 974.671 200.485 983.421 Q200.485 992.148 197.406 996.754 Q194.351 1001.34 188.541 1001.34 Q182.731 1001.34 179.652 996.754 Q176.596 992.148 176.596 983.421 Q176.596 974.671 179.652 970.088 Q182.731 965.481 188.541 965.481 Z" fill="#000000" fill-rule="nonzero" fill-opacity="1" /><path clip-path="url(#clip630)" d="M218.703 969.185 Q215.091 969.185 213.263 972.75 Q211.457 976.291 211.457 983.421 Q211.457 990.527 213.263 994.092 Q215.091 997.634 218.703 997.634 Q222.337 997.634 224.142 994.092 Q225.971 990.527 225.971 983.421 Q225.971 976.291 224.142 972.75 Q222.337 969.185 218.703 969.185 M218.703 965.481 Q224.513 965.481 227.568 970.088 Q230.647 974.671 230.647 983.421 Q230.647 992.148 227.568 996.754 Q224.513 1001.34 218.703 1001.34 Q212.892 1001.34 209.814 996.754 Q206.758 992.148 206.758 983.421 Q206.758 974.671 209.814 970.088 Q212.892 965.481 218.703 965.481 Z" fill="#000000" fill-rule="nonzero" fill-opacity="1" /><path clip-path="url(#clip630)" d="M162.545 793.648 Q165.902 794.366 167.777 796.634 Q169.675 798.903 169.675 802.236 Q169.675 807.352 166.157 810.153 Q162.638 812.954 156.157 812.954 Q153.981 812.954 151.666 812.514 Q149.374 812.097 146.921 811.241 L146.921 806.727 Q148.865 807.861 151.18 808.44 Q153.495 809.018 156.018 809.018 Q160.416 809.018 162.707 807.282 Q165.022 805.546 165.022 802.236 Q165.022 799.18 162.87 797.468 Q160.74 795.731 156.92 795.731 L152.893 795.731 L152.893 791.889 L157.106 791.889 Q160.555 791.889 162.383 790.523 Q164.212 789.134 164.212 786.542 Q164.212 783.88 162.314 782.468 Q160.439 781.032 156.92 781.032 Q154.999 781.032 152.8 781.449 Q150.601 781.866 147.962 782.745 L147.962 778.579 Q150.624 777.838 152.939 777.468 Q155.277 777.097 157.337 777.097 Q162.661 777.097 165.763 779.528 Q168.865 781.935 168.865 786.056 Q168.865 788.926 167.221 790.917 Q165.578 792.884 162.545 793.648 Z" fill="#000000" fill-rule="nonzero" fill-opacity="1" /><path clip-path="url(#clip630)" d="M188.541 780.801 Q184.93 780.801 183.101 784.366 Q181.295 787.907 181.295 795.037 Q181.295 802.143 183.101 805.708 Q184.93 809.25 188.541 809.25 Q192.175 809.25 193.98 805.708 Q195.809 802.143 195.809 795.037 Q195.809 787.907 193.98 784.366 Q192.175 780.801 188.541 780.801 M188.541 777.097 Q194.351 777.097 197.406 781.704 Q200.485 786.287 200.485 795.037 Q200.485 803.764 197.406 808.37 Q194.351 812.954 188.541 812.954 Q182.731 812.954 179.652 808.37 Q176.596 803.764 176.596 795.037 Q176.596 786.287 179.652 781.704 Q182.731 777.097 188.541 777.097 Z" fill="#000000" fill-rule="nonzero" fill-opacity="1" /><path clip-path="url(#clip630)" d="M218.703 780.801 Q215.091 780.801 213.263 784.366 Q211.457 787.907 211.457 795.037 Q211.457 802.143 213.263 805.708 Q215.091 809.25 218.703 809.25 Q222.337 809.25 224.142 805.708 Q225.971 802.143 225.971 795.037 Q225.971 787.907 224.142 784.366 Q222.337 780.801 218.703 780.801 M218.703 777.097 Q224.513 777.097 227.568 781.704 Q230.647 786.287 230.647 795.037 Q230.647 803.764 227.568 808.37 Q224.513 812.954 218.703 812.954 Q212.892 812.954 209.814 808.37 Q206.758 803.764 206.758 795.037 Q206.758 786.287 209.814 781.704 Q212.892 777.097 218.703 777.097 Z" fill="#000000" fill-rule="nonzero" fill-opacity="1" /><path clip-path="url(#clip630)" d="M161.226 593.412 L149.421 611.861 L161.226 611.861 L161.226 593.412 M159.999 589.338 L165.879 589.338 L165.879 611.861 L170.809 611.861 L170.809 615.75 L165.879 615.75 L165.879 623.898 L161.226 623.898 L161.226 615.75 L145.624 615.75 L145.624 611.236 L159.999 589.338 Z" fill="#000000" fill-rule="nonzero" fill-opacity="1" /><path clip-path="url(#clip630)" d="M188.541 592.417 Q184.93 592.417 183.101 595.982 Q181.295 599.523 181.295 606.653 Q181.295 613.759 183.101 617.324 Q184.93 620.866 188.541 620.866 Q192.175 620.866 193.98 617.324 Q195.809 613.759 195.809 606.653 Q195.809 599.523 193.98 595.982 Q192.175 592.417 188.541 592.417 M188.541 588.713 Q194.351 588.713 197.406 593.32 Q200.485 597.903 200.485 606.653 Q200.485 615.38 197.406 619.986 Q194.351 624.57 188.541 624.57 Q182.731 624.57 179.652 619.986 Q176.596 615.38 176.596 606.653 Q176.596 597.903 179.652 593.32 Q182.731 588.713 188.541 588.713 Z" fill="#000000" fill-rule="nonzero" fill-opacity="1" /><path clip-path="url(#clip630)" d="M218.703 592.417 Q215.091 592.417 213.263 595.982 Q211.457 599.523 211.457 606.653 Q211.457 613.759 213.263 617.324 Q215.091 620.866 218.703 620.866 Q222.337 620.866 224.142 617.324 Q225.971 613.759 225.971 606.653 Q225.971 599.523 224.142 595.982 Q222.337 592.417 218.703 592.417 M218.703 588.713 Q224.513 588.713 227.568 593.32 Q230.647 597.903 230.647 606.653 Q230.647 615.38 227.568 619.986 Q224.513 624.57 218.703 624.57 Q212.892 624.57 209.814 619.986 Q206.758 615.38 206.758 606.653 Q206.758 597.903 209.814 593.32 Q212.892 588.713 218.703 588.713 Z" fill="#000000" fill-rule="nonzero" fill-opacity="1" /><path clip-path="url(#clip630)" d="M148.425 400.954 L166.782 400.954 L166.782 404.889 L152.708 404.889 L152.708 413.362 Q153.726 413.014 154.745 412.852 Q155.763 412.667 156.782 412.667 Q162.569 412.667 165.948 415.838 Q169.328 419.01 169.328 424.426 Q169.328 430.005 165.856 433.107 Q162.383 436.186 156.064 436.186 Q153.888 436.186 151.62 435.815 Q149.374 435.445 146.967 434.704 L146.967 430.005 Q149.05 431.139 151.272 431.695 Q153.495 432.25 155.971 432.25 Q159.976 432.25 162.314 430.144 Q164.652 428.037 164.652 424.426 Q164.652 420.815 162.314 418.709 Q159.976 416.602 155.971 416.602 Q154.096 416.602 152.221 417.019 Q150.37 417.436 148.425 418.315 L148.425 400.954 Z" fill="#000000" fill-rule="nonzero" fill-opacity="1" /><path clip-path="url(#clip630)" d="M188.541 404.033 Q184.93 404.033 183.101 407.598 Q181.295 411.139 181.295 418.269 Q181.295 425.375 183.101 428.94 Q184.93 432.482 188.541 432.482 Q192.175 432.482 193.98 428.94 Q195.809 425.375 195.809 418.269 Q195.809 411.139 193.98 407.598 Q192.175 404.033 188.541 404.033 M188.541 400.329 Q194.351 400.329 197.406 404.936 Q200.485 409.519 200.485 418.269 Q200.485 426.996 197.406 431.602 Q194.351 436.186 188.541 436.186 Q182.731 436.186 179.652 431.602 Q176.596 426.996 176.596 418.269 Q176.596 409.519 179.652 404.936 Q182.731 400.329 188.541 400.329 Z" fill="#000000" fill-rule="nonzero" fill-opacity="1" /><path clip-path="url(#clip630)" d="M218.703 404.033 Q215.091 404.033 213.263 407.598 Q211.457 411.139 211.457 418.269 Q211.457 425.375 213.263 428.94 Q215.091 432.482 218.703 432.482 Q222.337 432.482 224.142 428.94 Q225.971 425.375 225.971 418.269 Q225.971 411.139 224.142 407.598 Q222.337 404.033 218.703 404.033 M218.703 400.329 Q224.513 400.329 227.568 404.936 Q230.647 409.519 230.647 418.269 Q230.647 426.996 227.568 431.602 Q224.513 436.186 218.703 436.186 Q212.892 436.186 209.814 431.602 Q206.758 426.996 206.758 418.269 Q206.758 409.519 209.814 404.936 Q212.892 400.329 218.703 400.329 Z" fill="#000000" fill-rule="nonzero" fill-opacity="1" /><path clip-path="url(#clip630)" d="M158.958 227.987 Q155.809 227.987 153.958 230.14 Q152.129 232.292 152.129 236.042 Q152.129 239.769 153.958 241.945 Q155.809 244.098 158.958 244.098 Q162.106 244.098 163.934 241.945 Q165.786 239.769 165.786 236.042 Q165.786 232.292 163.934 230.14 Q162.106 227.987 158.958 227.987 M168.24 213.334 L168.24 217.593 Q166.481 216.76 164.675 216.32 Q162.893 215.88 161.133 215.88 Q156.504 215.88 154.05 219.005 Q151.62 222.13 151.272 228.45 Q152.638 226.436 154.698 225.371 Q156.758 224.283 159.235 224.283 Q164.444 224.283 167.453 227.454 Q170.485 230.602 170.485 236.042 Q170.485 241.366 167.337 244.584 Q164.189 247.801 158.958 247.801 Q152.962 247.801 149.791 243.218 Q146.62 238.612 146.62 229.885 Q146.62 221.69 150.508 216.829 Q154.397 211.945 160.948 211.945 Q162.707 211.945 164.49 212.292 Q166.295 212.64 168.24 213.334 Z" fill="#000000" fill-rule="nonzero" fill-opacity="1" /><path clip-path="url(#clip630)" d="M188.541 215.649 Q184.93 215.649 183.101 219.214 Q181.295 222.755 181.295 229.885 Q181.295 236.991 183.101 240.556 Q184.93 244.098 188.541 244.098 Q192.175 244.098 193.98 240.556 Q195.809 236.991 195.809 229.885 Q195.809 222.755 193.98 219.214 Q192.175 215.649 188.541 215.649 M188.541 211.945 Q194.351 211.945 197.406 216.552 Q200.485 221.135 200.485 229.885 Q200.485 238.612 197.406 243.218 Q194.351 247.801 188.541 247.801 Q182.731 247.801 179.652 243.218 Q176.596 238.612 176.596 229.885 Q176.596 221.135 179.652 216.552 Q182.731 211.945 188.541 211.945 Z" fill="#000000" fill-rule="nonzero" fill-opacity="1" /><path clip-path="url(#clip630)" d="M218.703 215.649 Q215.091 215.649 213.263 219.214 Q211.457 222.755 211.457 229.885 Q211.457 236.991 213.263 240.556 Q215.091 244.098 218.703 244.098 Q222.337 244.098 224.142 240.556 Q225.971 236.991 225.971 229.885 Q225.971 222.755 224.142 219.214 Q222.337 215.649 218.703 215.649 M218.703 211.945 Q224.513 211.945 227.568 216.552 Q230.647 221.135 230.647 229.885 Q230.647 238.612 227.568 243.218 Q224.513 247.801 218.703 247.801 Q212.892 247.801 209.814 243.218 Q206.758 238.612 206.758 229.885 Q206.758 221.135 209.814 216.552 Q212.892 211.945 218.703 211.945 Z" fill="#000000" fill-rule="nonzero" fill-opacity="1" /><path clip-path="url(#clip630)" d="M65.4488 942.087 Q65.4488 949.185 67.072 951.922 Q68.6953 954.66 72.6102 954.66 Q75.7294 954.66 77.5755 952.623 Q79.3897 950.554 79.3897 947.021 Q79.3897 942.151 75.9522 939.223 Q72.4829 936.263 66.7538 936.263 L65.4488 936.263 L65.4488 942.087 M63.0298 930.406 L83.3683 930.406 L83.3683 936.263 L77.9574 936.263 Q81.2039 938.268 82.7635 941.26 Q84.2913 944.252 84.2913 948.58 Q84.2913 954.055 81.2357 957.301 Q78.1484 960.516 72.9922 960.516 Q66.9766 960.516 63.921 956.506 Q60.8655 952.464 60.8655 944.475 L60.8655 936.263 L60.2926 936.263 Q56.2503 936.263 54.0542 938.936 Q51.8262 941.578 51.8262 946.384 Q51.8262 949.44 52.5582 952.336 Q53.2903 955.233 54.7544 957.906 L49.3436 957.906 Q48.1022 954.692 47.4975 951.668 Q46.8609 948.644 46.8609 945.78 Q46.8609 938.045 50.8713 934.226 Q54.8817 930.406 63.0298 930.406 Z" fill="#000000" fill-rule="nonzero" fill-opacity="1" /><path clip-path="url(#clip630)" d="M47.7203 922.545 L47.7203 916.338 L77.6391 905.198 L47.7203 894.058 L47.7203 887.852 L83.3683 901.22 L83.3683 909.177 L47.7203 922.545 Z" fill="#000000" fill-rule="nonzero" fill-opacity="1" /><path clip-path="url(#clip630)" d="M64.0802 849.275 L66.9447 849.275 L66.9447 876.202 Q72.9922 875.82 76.175 872.574 Q79.326 869.296 79.326 863.471 Q79.326 860.097 78.4985 856.946 Q77.6709 853.763 76.0159 850.644 L81.554 850.644 Q82.8908 853.795 83.5911 857.105 Q84.2913 860.415 84.2913 863.821 Q84.2913 872.351 79.326 877.348 Q74.3608 882.313 65.8944 882.313 Q57.1415 882.313 52.0171 877.603 Q46.8609 872.86 46.8609 864.84 Q46.8609 857.646 51.5079 853.477 Q56.123 849.275 64.0802 849.275 M62.3614 855.132 Q57.5553 855.196 54.6907 857.837 Q51.8262 860.447 51.8262 864.776 Q51.8262 869.678 54.5953 872.638 Q57.3643 875.566 62.3932 876.011 L62.3614 855.132 Z" fill="#000000" fill-rule="nonzero" fill-opacity="1" /><path clip-path="url(#clip630)" d="M53.1948 819.007 Q52.6219 819.993 52.3673 821.171 Q52.0808 822.317 52.0808 823.717 Q52.0808 828.682 55.3273 831.356 Q58.542 833.998 64.5894 833.998 L83.3683 833.998 L83.3683 839.886 L47.7203 839.886 L47.7203 833.998 L53.2585 833.998 Q50.0119 832.152 48.4524 829.192 Q46.8609 826.232 46.8609 821.998 Q46.8609 821.394 46.9564 820.662 Q47.0201 819.93 47.1792 819.038 L53.1948 819.007 Z" fill="#000000" fill-rule="nonzero" fill-opacity="1" /><path clip-path="url(#clip630)" d="M65.4488 796.663 Q65.4488 803.761 67.072 806.498 Q68.6953 809.235 72.6102 809.235 Q75.7294 809.235 77.5755 807.198 Q79.3897 805.129 79.3897 801.596 Q79.3897 796.727 75.9522 793.798 Q72.4829 790.838 66.7538 790.838 L65.4488 790.838 L65.4488 796.663 M63.0298 784.982 L83.3683 784.982 L83.3683 790.838 L77.9574 790.838 Q81.2039 792.843 82.7635 795.835 Q84.2913 798.827 84.2913 803.156 Q84.2913 808.63 81.2357 811.877 Q78.1484 815.092 72.9922 815.092 Q66.9766 815.092 63.921 811.081 Q60.8655 807.039 60.8655 799.05 L60.8655 790.838 L60.2926 790.838 Q56.2503 790.838 54.0542 793.512 Q51.8262 796.154 51.8262 800.96 Q51.8262 804.015 52.5582 806.912 Q53.2903 809.808 54.7544 812.482 L49.3436 812.482 Q48.1022 809.267 47.4975 806.243 Q46.8609 803.22 46.8609 800.355 Q46.8609 792.621 50.8713 788.801 Q54.8817 784.982 63.0298 784.982 Z" fill="#000000" fill-rule="nonzero" fill-opacity="1" /><path clip-path="url(#clip630)" d="M65.1305 749.461 Q58.7648 749.461 55.2637 752.103 Q51.7625 754.713 51.7625 759.455 Q51.7625 764.166 55.2637 766.808 Q58.7648 769.418 65.1305 769.418 Q71.4644 769.418 74.9655 766.808 Q78.4667 764.166 78.4667 759.455 Q78.4667 754.713 74.9655 752.103 Q71.4644 749.461 65.1305 749.461 M78.9441 743.605 Q88.047 743.605 92.4712 747.647 Q96.9272 751.689 96.9272 760.028 Q96.9272 763.116 96.4498 765.853 Q96.0042 768.59 95.0493 771.168 L89.352 771.168 Q90.7525 768.59 91.4209 766.076 Q92.0893 763.561 92.0893 760.951 Q92.0893 755.19 89.0656 752.326 Q86.0737 749.461 79.9944 749.461 L77.098 749.461 Q80.2491 751.275 81.8087 754.108 Q83.3683 756.941 83.3683 760.888 Q83.3683 767.444 78.3712 771.455 Q73.3741 775.465 65.1305 775.465 Q56.8551 775.465 51.858 771.455 Q46.8609 767.444 46.8609 760.888 Q46.8609 756.941 48.4205 754.108 Q49.9801 751.275 53.1311 749.461 L47.7203 749.461 L47.7203 743.605 L78.9441 743.605 Z" fill="#000000" fill-rule="nonzero" fill-opacity="1" /><path clip-path="url(#clip630)" d="M64.0802 701.05 L66.9447 701.05 L66.9447 727.977 Q72.9922 727.595 76.175 724.348 Q79.326 721.07 79.326 715.246 Q79.326 711.872 78.4985 708.721 Q77.6709 705.538 76.0159 702.419 L81.554 702.419 Q82.8908 705.57 83.5911 708.88 Q84.2913 712.19 84.2913 715.596 Q84.2913 724.126 79.326 729.123 Q74.3608 734.088 65.8944 734.088 Q57.1415 734.088 52.0171 729.377 Q46.8609 724.635 46.8609 716.614 Q46.8609 709.421 51.5079 705.251 Q56.123 701.05 64.0802 701.05 M62.3614 706.906 Q57.5553 706.97 54.6907 709.612 Q51.8262 712.222 51.8262 716.55 Q51.8262 721.452 54.5953 724.412 Q57.3643 727.34 62.3932 727.786 L62.3614 706.906 Z" fill="#000000" fill-rule="nonzero" fill-opacity="1" /><path clip-path="url(#clip630)" d="M51.8262 656.904 Q51.8262 661.614 55.5183 664.352 Q59.1786 667.089 65.5761 667.089 Q71.9736 667.089 75.6657 664.384 Q79.326 661.646 79.326 656.904 Q79.326 652.225 75.6339 649.488 Q71.9418 646.75 65.5761 646.75 Q59.2422 646.75 55.5501 649.488 Q51.8262 652.225 51.8262 656.904 M46.8609 656.904 Q46.8609 649.265 51.8262 644.904 Q56.7914 640.544 65.5761 640.544 Q74.3289 640.544 79.326 644.904 Q84.2913 649.265 84.2913 656.904 Q84.2913 664.574 79.326 668.935 Q74.3289 673.264 65.5761 673.264 Q56.7914 673.264 51.8262 668.935 Q46.8609 664.574 46.8609 656.904 Z" fill="#000000" fill-rule="nonzero" fill-opacity="1" /><path clip-path="url(#clip630)" d="M33.8431 612.789 L38.7128 612.789 L38.7128 618.391 Q38.7128 621.542 39.986 622.784 Q41.2591 623.993 44.5693 623.993 L47.7203 623.993 L47.7203 614.349 L52.2718 614.349 L52.2718 623.993 L83.3683 623.993 L83.3683 629.881 L52.2718 629.881 L52.2718 635.483 L47.7203 635.483 L47.7203 629.881 L45.2377 629.881 Q39.2857 629.881 36.5803 627.112 Q33.8431 624.343 33.8431 618.328 L33.8431 612.789 Z" fill="#000000" fill-rule="nonzero" fill-opacity="1" /><path clip-path="url(#clip630)" d="M41.1318 580.483 L58.9876 580.483 L58.9876 572.399 Q58.9876 567.911 56.6641 565.46 Q54.3406 563.01 50.0438 563.01 Q45.7788 563.01 43.4553 565.46 Q41.1318 567.911 41.1318 572.399 L41.1318 580.483 M35.8483 586.913 L35.8483 572.399 Q35.8483 564.41 39.4767 560.336 Q43.0733 556.23 50.0438 556.23 Q57.0779 556.23 60.6745 560.336 Q64.2711 564.41 64.2711 572.399 L64.2711 580.483 L83.3683 580.483 L83.3683 586.913 L35.8483 586.913 Z" fill="#000000" fill-rule="nonzero" fill-opacity="1" /><path clip-path="url(#clip630)" d="M33.9067 533.791 Q41.2273 538.056 48.3887 540.125 Q55.5501 542.194 62.9025 542.194 Q70.2549 542.194 77.48 540.125 Q84.6732 538.024 91.962 533.791 L91.962 538.884 Q84.4823 543.658 77.2572 546.045 Q70.0321 548.4 62.9025 548.4 Q55.8047 548.4 48.6115 546.045 Q41.4182 543.69 33.9067 538.884 L33.9067 533.791 Z" fill="#000000" fill-rule="nonzero" fill-opacity="1" /><path clip-path="url(#clip630)" d="M37.5988 516.635 L47.7203 516.635 L47.7203 504.572 L52.2718 504.572 L52.2718 516.635 L71.6235 516.635 Q75.984 516.635 77.2253 515.458 Q78.4667 514.248 78.4667 510.588 L78.4667 504.572 L83.3683 504.572 L83.3683 510.588 Q83.3683 517.368 80.8538 519.946 Q78.3075 522.524 71.6235 522.524 L52.2718 522.524 L52.2718 526.821 L47.7203 526.821 L47.7203 522.524 L37.5988 522.524 L37.5988 516.635 Z" fill="#000000" fill-rule="nonzero" fill-opacity="1" /><path clip-path="url(#clip630)" d="M33.9067 497.793 L33.9067 492.7 Q41.4182 487.926 48.6115 485.571 Q55.8047 483.184 62.9025 483.184 Q70.0321 483.184 77.2572 485.571 Q84.4823 487.926 91.962 492.7 L91.962 497.793 Q84.6732 493.56 77.48 491.491 Q70.2549 489.39 62.9025 489.39 Q55.5501 489.39 48.3887 491.491 Q41.2273 493.56 33.9067 497.793 Z" fill="#000000" fill-rule="nonzero" fill-opacity="1" /><polyline clip-path="url(#clip632)" style="stroke:#009af9; stroke-linecap:round; stroke-linejoin:round; stroke-width:8; stroke-opacity:1; fill:none" points="278.647,1358.27 326.549,85.4293 374.451,203.535 422.352,311.504 470.254,408.55 518.156,496.266 566.058,576.102 613.96,646.647 661.861,711.325 709.763,769.268 757.665,821.128 805.567,868.028 853.469,910.14 901.371,947.843 949.272,982.009 997.174,1013.4 1045.08,1041.98 1092.98,1066.95 1140.88,1089.83 1188.78,1110.36 1236.68,1128.51 1284.59,1144.68 1332.49,1159.05 1380.39,1173.67 1428.29,1186.74 1476.19,1197.27 1524.09,1206.75 1572,1215.53 1619.9,1221.54 1667.8,1228.35 1715.7,1234.52 1763.6,1240.32 1811.51,1246.4 1859.41,1251.14 1907.31,1255.69 1955.21,1260.79 2003.11,1262.99 2051.01,1265.34 2098.92,1269.13 2146.82,1272.1 2194.72,1274.33 2242.62,1276.93 2290.52,1278.89 2338.43,1281.46 2386.33,1283.04 2434.23,1283.46 2482.13,1283.11 2530.03,1282.82 2577.93,1284.19 2625.84,1285.82 2673.74,1286.19 2721.64,1287.23 2769.54,1287.44 2817.44,1286.98 2865.35,1287.52 2913.25,1287.76 2961.15,1287.82 3009.05,1286.58 3056.95,1288.65 3104.85,1288.46 3152.76,1288.73 "/>
</svg>
