<?xml version="1.0" encoding="utf-8"?>
<svg xmlns="http://www.w3.org/2000/svg" xmlns:xlink="http://www.w3.org/1999/xlink" width="600" height="400" viewBox="0 0 2400 1600">
<defs>
  <clipPath id="clip620">
    <rect x="0" y="0" width="2400" height="1600"/>
  </clipPath>
</defs>
<path clip-path="url(#clip620)" d="M0 1600 L2400 1600 L2400 0 L0 0  Z" fill="#ffffff" fill-rule="evenodd" fill-opacity="1"/>
<defs>
  <clipPath id="clip621">
    <rect x="480" y="0" width="1681" height="1600"/>
  </clipPath>
</defs>
<path clip-path="url(#clip620)" d="M203.518 1375.94 L2352.76 1375.94 L2352.76 47.2441 L203.518 47.2441  Z" fill="#ffffff" fill-rule="evenodd" fill-opacity="1"/>
<defs>
  <clipPath id="clip622">
    <rect x="203" y="47" width="2150" height="1330"/>
  </clipPath>
</defs>
<polyline clip-path="url(#clip622)" style="stroke:#000000; stroke-linecap:round; stroke-linejoin:round; stroke-width:2; stroke-opacity:0.1; fill:none" points="203.518,1375.94 203.518,47.2441 "/>
<polyline clip-path="url(#clip622)" style="stroke:#000000; stroke-linecap:round; stroke-linejoin:round; stroke-width:2; stroke-opacity:0.1; fill:none" points="633.366,1375.94 633.366,47.2441 "/>
<polyline clip-path="url(#clip622)" style="stroke:#000000; stroke-linecap:round; stroke-linejoin:round; stroke-width:2; stroke-opacity:0.1; fill:none" points="1063.21,1375.94 1063.21,47.2441 "/>
<polyline clip-path="url(#clip622)" style="stroke:#000000; stroke-linecap:round; stroke-linejoin:round; stroke-width:2; stroke-opacity:0.1; fill:none" points="1493.06,1375.94 1493.06,47.2441 "/>
<polyline clip-path="url(#clip622)" style="stroke:#000000; stroke-linecap:round; stroke-linejoin:round; stroke-width:2; stroke-opacity:0.1; fill:none" points="1922.91,1375.94 1922.91,47.2441 "/>
<polyline clip-path="url(#clip622)" style="stroke:#000000; stroke-linecap:round; stroke-linejoin:round; stroke-width:2; stroke-opacity:0.1; fill:none" points="2352.76,1375.94 2352.76,47.2441 "/>
<polyline clip-path="url(#clip622)" style="stroke:#000000; stroke-linecap:round; stroke-linejoin:round; stroke-width:2; stroke-opacity:0.1; fill:none" points="203.518,1254.2 2352.76,1254.2 "/>
<polyline clip-path="url(#clip622)" style="stroke:#000000; stroke-linecap:round; stroke-linejoin:round; stroke-width:2; stroke-opacity:0.1; fill:none" points="203.518,1001.8 2352.76,1001.8 "/>
<polyline clip-path="url(#clip622)" style="stroke:#000000; stroke-linecap:round; stroke-linejoin:round; stroke-width:2; stroke-opacity:0.1; fill:none" points="203.518,749.402 2352.76,749.402 "/>
<polyline clip-path="url(#clip622)" style="stroke:#000000; stroke-linecap:round; stroke-linejoin:round; stroke-width:2; stroke-opacity:0.1; fill:none" points="203.518,497.003 2352.76,497.003 "/>
<polyline clip-path="url(#clip622)" style="stroke:#000000; stroke-linecap:round; stroke-linejoin:round; stroke-width:2; stroke-opacity:0.1; fill:none" points="203.518,244.605 2352.76,244.605 "/>
<polyline clip-path="url(#clip620)" style="stroke:#000000; stroke-linecap:round; stroke-linejoin:round; stroke-width:4; stroke-opacity:1; fill:none" points="203.518,1375.94 2352.76,1375.94 "/>
<polyline clip-path="url(#clip620)" style="stroke:#000000; stroke-linecap:round; stroke-linejoin:round; stroke-width:4; stroke-opacity:1; fill:none" points="203.518,1375.94 203.518,1357.04 "/>
<polyline clip-path="url(#clip620)" style="stroke:#000000; stroke-linecap:round; stroke-linejoin:round; stroke-width:4; stroke-opacity:1; fill:none" points="633.366,1375.94 633.366,1357.04 "/>
<polyline clip-path="url(#clip620)" style="stroke:#000000; stroke-linecap:round; stroke-linejoin:round; stroke-width:4; stroke-opacity:1; fill:none" points="1063.21,1375.94 1063.21,1357.04 "/>
<polyline clip-path="url(#clip620)" style="stroke:#000000; stroke-linecap:round; stroke-linejoin:round; stroke-width:4; stroke-opacity:1; fill:none" points="1493.06,1375.94 1493.06,1357.04 "/>
<polyline clip-path="url(#clip620)" style="stroke:#000000; stroke-linecap:round; stroke-linejoin:round; stroke-width:4; stroke-opacity:1; fill:none" points="1922.91,1375.94 1922.91,1357.04 "/>
<polyline clip-path="url(#clip620)" style="stroke:#000000; stroke-linecap:round; stroke-linejoin:round; stroke-width:4; stroke-opacity:1; fill:none" points="2352.76,1375.94 2352.76,1357.04 "/>
<path clip-path="url(#clip620)" d="M203.518 1406.85 Q199.907 1406.85 198.078 1410.42 Q196.273 1413.96 196.273 1421.09 Q196.273 1428.2 198.078 1431.76 Q199.907 1435.3 203.518 1435.3 Q207.152 1435.3 208.958 1431.76 Q210.787 1428.2 210.787 1421.09 Q210.787 1413.96 208.958 1410.42 Q207.152 1406.85 203.518 1406.85 M203.518 1403.15 Q209.328 1403.15 212.384 1407.76 Q215.463 1412.34 215.463 1421.09 Q215.463 1429.82 212.384 1434.42 Q209.328 1439.01 203.518 1439.01 Q197.708 1439.01 194.629 1434.42 Q191.574 1429.82 191.574 1421.09 Q191.574 1412.34 194.629 1407.76 Q197.708 1403.15 203.518 1403.15 Z" fill="#000000" fill-rule="nonzero" fill-opacity="1" /><path clip-path="url(#clip620)" d="M628.019 1434.4 L644.338 1434.4 L644.338 1438.34 L622.394 1438.34 L622.394 1434.4 Q625.056 1431.65 629.639 1427.02 Q634.245 1422.36 635.426 1421.02 Q637.671 1418.5 638.551 1416.76 Q639.454 1415 639.454 1413.31 Q639.454 1410.56 637.509 1408.82 Q635.588 1407.09 632.486 1407.09 Q630.287 1407.09 627.833 1407.85 Q625.403 1408.61 622.625 1410.16 L622.625 1405.44 Q625.449 1404.31 627.903 1403.73 Q630.357 1403.15 632.394 1403.15 Q637.764 1403.15 640.958 1405.84 Q644.153 1408.52 644.153 1413.01 Q644.153 1415.14 643.343 1417.06 Q642.556 1418.96 640.449 1421.55 Q639.87 1422.22 636.769 1425.44 Q633.667 1428.64 628.019 1434.4 Z" fill="#000000" fill-rule="nonzero" fill-opacity="1" /><path clip-path="url(#clip620)" d="M1066.22 1407.85 L1054.42 1426.3 L1066.22 1426.3 L1066.22 1407.85 M1065 1403.78 L1070.88 1403.78 L1070.88 1426.3 L1075.81 1426.3 L1075.81 1430.19 L1070.88 1430.19 L1070.88 1438.34 L1066.22 1438.34 L1066.22 1430.19 L1050.62 1430.19 L1050.62 1425.67 L1065 1403.78 Z" fill="#000000" fill-rule="nonzero" fill-opacity="1" /><path clip-path="url(#clip620)" d="M1493.47 1419.19 Q1490.32 1419.19 1488.47 1421.35 Q1486.64 1423.5 1486.64 1427.25 Q1486.64 1430.97 1488.47 1433.15 Q1490.32 1435.3 1493.47 1435.3 Q1496.61 1435.3 1498.44 1433.15 Q1500.29 1430.97 1500.29 1427.25 Q1500.29 1423.5 1498.44 1421.35 Q1496.61 1419.19 1493.47 1419.19 M1502.75 1404.54 L1502.75 1408.8 Q1500.99 1407.97 1499.18 1407.53 Q1497.4 1407.09 1495.64 1407.09 Q1491.01 1407.09 1488.56 1410.21 Q1486.13 1413.34 1485.78 1419.66 Q1487.15 1417.64 1489.21 1416.58 Q1491.27 1415.49 1493.74 1415.49 Q1498.95 1415.49 1501.96 1418.66 Q1504.99 1421.81 1504.99 1427.25 Q1504.99 1432.57 1501.85 1435.79 Q1498.7 1439.01 1493.47 1439.01 Q1487.47 1439.01 1484.3 1434.42 Q1481.13 1429.82 1481.13 1421.09 Q1481.13 1412.9 1485.02 1408.03 Q1488.91 1403.15 1495.46 1403.15 Q1497.22 1403.15 1499 1403.5 Q1500.8 1403.85 1502.75 1404.54 Z" fill="#000000" fill-rule="nonzero" fill-opacity="1" /><path clip-path="url(#clip620)" d="M1922.91 1421.92 Q1919.58 1421.92 1917.65 1423.71 Q1915.76 1425.49 1915.76 1428.61 Q1915.76 1431.74 1917.65 1433.52 Q1919.58 1435.3 1922.91 1435.3 Q1926.24 1435.3 1928.16 1433.52 Q1930.08 1431.72 1930.08 1428.61 Q1930.08 1425.49 1928.16 1423.71 Q1926.26 1421.92 1922.91 1421.92 M1918.23 1419.93 Q1915.22 1419.19 1913.53 1417.13 Q1911.87 1415.07 1911.87 1412.11 Q1911.87 1407.97 1914.81 1405.56 Q1917.77 1403.15 1922.91 1403.15 Q1928.07 1403.15 1931.01 1405.56 Q1933.95 1407.97 1933.95 1412.11 Q1933.95 1415.07 1932.26 1417.13 Q1930.59 1419.19 1927.61 1419.93 Q1930.99 1420.72 1932.86 1423.01 Q1934.76 1425.3 1934.76 1428.61 Q1934.76 1433.64 1931.68 1436.32 Q1928.63 1439.01 1922.91 1439.01 Q1917.19 1439.01 1914.11 1436.32 Q1911.06 1433.64 1911.06 1428.61 Q1911.06 1425.3 1912.95 1423.01 Q1914.85 1420.72 1918.23 1419.93 M1916.52 1412.55 Q1916.52 1415.23 1918.19 1416.74 Q1919.88 1418.24 1922.91 1418.24 Q1925.92 1418.24 1927.61 1416.74 Q1929.32 1415.23 1929.32 1412.55 Q1929.32 1409.86 1927.61 1408.36 Q1925.92 1406.85 1922.91 1406.85 Q1919.88 1406.85 1918.19 1408.36 Q1916.52 1409.86 1916.52 1412.55 Z" fill="#000000" fill-rule="nonzero" fill-opacity="1" /><path clip-path="url(#clip620)" d="M2327.44 1434.4 L2335.08 1434.4 L2335.08 1408.03 L2326.77 1409.7 L2326.77 1405.44 L2335.04 1403.78 L2339.71 1403.78 L2339.71 1434.4 L2347.35 1434.4 L2347.35 1438.34 L2327.44 1438.34 L2327.44 1434.4 Z" fill="#000000" fill-rule="nonzero" fill-opacity="1" /><path clip-path="url(#clip620)" d="M2366.8 1406.85 Q2363.18 1406.85 2361.36 1410.42 Q2359.55 1413.96 2359.55 1421.09 Q2359.55 1428.2 2361.36 1431.76 Q2363.18 1435.3 2366.8 1435.3 Q2370.43 1435.3 2372.23 1431.76 Q2374.06 1428.2 2374.06 1421.09 Q2374.06 1413.96 2372.23 1410.42 Q2370.43 1406.85 2366.8 1406.85 M2366.8 1403.15 Q2372.61 1403.15 2375.66 1407.76 Q2378.74 1412.34 2378.74 1421.09 Q2378.74 1429.82 2375.66 1434.42 Q2372.61 1439.01 2366.8 1439.01 Q2360.99 1439.01 2357.91 1434.42 Q2354.85 1429.82 2354.85 1421.09 Q2354.85 1412.34 2357.91 1407.76 Q2360.99 1403.15 2366.8 1403.15 Z" fill="#000000" fill-rule="nonzero" fill-opacity="1" /><path clip-path="url(#clip620)" d="M1277.2 1475.03 L1277.2 1485.15 L1289.26 1485.15 L1289.26 1489.7 L1277.2 1489.7 L1277.2 1509.06 Q1277.2 1513.42 1278.38 1514.66 Q1279.59 1515.9 1283.25 1515.9 L1289.26 1515.9 L1289.26 1520.8 L1283.25 1520.8 Q1276.47 1520.8 1273.89 1518.29 Q1271.31 1515.74 1271.31 1509.06 L1271.31 1489.7 L1267.01 1489.7 L1267.01 1485.15 L1271.31 1485.15 L1271.31 1475.03 L1277.2 1475.03 Z" fill="#000000" fill-rule="nonzero" fill-opacity="1" /><polyline clip-path="url(#clip620)" style="stroke:#000000; stroke-linecap:round; stroke-linejoin:round; stroke-width:4; stroke-opacity:1; fill:none" points="203.518,1375.94 203.518,47.2441 "/>
<polyline clip-path="url(#clip620)" style="stroke:#000000; stroke-linecap:round; stroke-linejoin:round; stroke-width:4; stroke-opacity:1; fill:none" points="203.518,1254.2 222.416,1254.2 "/>
<polyline clip-path="url(#clip620)" style="stroke:#000000; stroke-linecap:round; stroke-linejoin:round; stroke-width:4; stroke-opacity:1; fill:none" points="203.518,1001.8 222.416,1001.8 "/>
<polyline clip-path="url(#clip620)" style="stroke:#000000; stroke-linecap:round; stroke-linejoin:round; stroke-width:4; stroke-opacity:1; fill:none" points="203.518,749.402 222.416,749.402 "/>
<polyline clip-path="url(#clip620)" style="stroke:#000000; stroke-linecap:round; stroke-linejoin:round; stroke-width:4; stroke-opacity:1; fill:none" points="203.518,497.003 222.416,497.003 "/>
<polyline clip-path="url(#clip620)" style="stroke:#000000; stroke-linecap:round; stroke-linejoin:round; stroke-width:4; stroke-opacity:1; fill:none" points="203.518,244.605 222.416,244.605 "/>
<path clip-path="url(#clip620)" d="M110.181 1240 Q106.57 1240 104.741 1243.56 Q102.935 1247.1 102.935 1254.23 Q102.935 1261.34 104.741 1264.9 Q106.57 1268.45 110.181 1268.45 Q113.815 1268.45 115.62 1264.9 Q117.449 1261.34 117.449 1254.23 Q117.449 1247.1 115.62 1243.56 Q113.815 1240 110.181 1240 M110.181 1236.29 Q115.991 1236.29 119.046 1240.9 Q122.125 1245.48 122.125 1254.23 Q122.125 1262.96 119.046 1267.57 Q115.991 1272.15 110.181 1272.15 Q104.37 1272.15 101.292 1267.57 Q98.2362 1262.96 98.2362 1254.23 Q98.2362 1245.48 101.292 1240.9 Q104.37 1236.29 110.181 1236.29 Z" fill="#000000" fill-rule="nonzero" fill-opacity="1" /><path clip-path="url(#clip620)" d="M130.343 1265.6 L135.227 1265.6 L135.227 1271.48 L130.343 1271.48 L130.343 1265.6 Z" fill="#000000" fill-rule="nonzero" fill-opacity="1" /><path clip-path="url(#clip620)" d="M155.991 1252.34 Q152.842 1252.34 150.991 1254.49 Q149.162 1256.64 149.162 1260.39 Q149.162 1264.12 150.991 1266.29 Q152.842 1268.45 155.991 1268.45 Q159.139 1268.45 160.967 1266.29 Q162.819 1264.12 162.819 1260.39 Q162.819 1256.64 160.967 1254.49 Q159.139 1252.34 155.991 1252.34 M165.273 1237.68 L165.273 1241.94 Q163.514 1241.11 161.708 1240.67 Q159.926 1240.23 158.166 1240.23 Q153.537 1240.23 151.083 1243.35 Q148.653 1246.48 148.305 1252.8 Q149.671 1250.78 151.731 1249.72 Q153.791 1248.63 156.268 1248.63 Q161.477 1248.63 164.486 1251.8 Q167.518 1254.95 167.518 1260.39 Q167.518 1265.71 164.37 1268.93 Q161.222 1272.15 155.991 1272.15 Q149.995 1272.15 146.824 1267.57 Q143.653 1262.96 143.653 1254.23 Q143.653 1246.04 147.542 1241.18 Q151.43 1236.29 157.981 1236.29 Q159.741 1236.29 161.523 1236.64 Q163.328 1236.99 165.273 1237.68 Z" fill="#000000" fill-rule="nonzero" fill-opacity="1" /><path clip-path="url(#clip620)" d="M110.528 987.599 Q106.917 987.599 105.088 991.163 Q103.282 994.705 103.282 1001.83 Q103.282 1008.94 105.088 1012.51 Q106.917 1016.05 110.528 1016.05 Q114.162 1016.05 115.968 1012.51 Q117.796 1008.94 117.796 1001.83 Q117.796 994.705 115.968 991.163 Q114.162 987.599 110.528 987.599 M110.528 983.895 Q116.338 983.895 119.394 988.501 Q122.472 993.085 122.472 1001.83 Q122.472 1010.56 119.394 1015.17 Q116.338 1019.75 110.528 1019.75 Q104.718 1019.75 101.639 1015.17 Q98.5834 1010.56 98.5834 1001.83 Q98.5834 993.085 101.639 988.501 Q104.718 983.895 110.528 983.895 Z" fill="#000000" fill-rule="nonzero" fill-opacity="1" /><path clip-path="url(#clip620)" d="M130.69 1013.2 L135.574 1013.2 L135.574 1019.08 L130.69 1019.08 L130.69 1013.2 Z" fill="#000000" fill-rule="nonzero" fill-opacity="1" /><path clip-path="url(#clip620)" d="M145.898 1018.36 L145.898 1014.1 Q147.657 1014.94 149.463 1015.38 Q151.268 1015.82 153.004 1015.82 Q157.634 1015.82 160.065 1012.71 Q162.518 1009.59 162.866 1003.25 Q161.523 1005.24 159.463 1006.3 Q157.403 1007.37 154.903 1007.37 Q149.717 1007.37 146.685 1004.24 Q143.676 1001.09 143.676 995.654 Q143.676 990.33 146.824 987.113 Q149.972 983.895 155.204 983.895 Q161.199 983.895 164.347 988.501 Q167.518 993.085 167.518 1001.83 Q167.518 1010.01 163.629 1014.89 Q159.764 1019.75 153.213 1019.75 Q151.454 1019.75 149.648 1019.4 Q147.842 1019.06 145.898 1018.36 M155.204 1003.71 Q158.352 1003.71 160.18 1001.56 Q162.032 999.404 162.032 995.654 Q162.032 991.927 160.18 989.775 Q158.352 987.599 155.204 987.599 Q152.055 987.599 150.204 989.775 Q148.375 991.927 148.375 995.654 Q148.375 999.404 150.204 1001.56 Q152.055 1003.71 155.204 1003.71 Z" fill="#000000" fill-rule="nonzero" fill-opacity="1" /><path clip-path="url(#clip620)" d="M102.75 762.746 L110.389 762.746 L110.389 736.381 L102.079 738.047 L102.079 733.788 L110.343 732.122 L115.019 732.122 L115.019 762.746 L122.657 762.746 L122.657 766.682 L102.75 766.682 L102.75 762.746 Z" fill="#000000" fill-rule="nonzero" fill-opacity="1" /><path clip-path="url(#clip620)" d="M132.102 760.802 L136.986 760.802 L136.986 766.682 L132.102 766.682 L132.102 760.802 Z" fill="#000000" fill-rule="nonzero" fill-opacity="1" /><path clip-path="url(#clip620)" d="M151.199 762.746 L167.518 762.746 L167.518 766.682 L145.574 766.682 L145.574 762.746 Q148.236 759.992 152.819 755.362 Q157.426 750.709 158.606 749.367 Q160.852 746.844 161.731 745.108 Q162.634 743.348 162.634 741.658 Q162.634 738.904 160.69 737.168 Q158.768 735.432 155.666 735.432 Q153.467 735.432 151.014 736.196 Q148.583 736.959 145.805 738.51 L145.805 733.788 Q148.629 732.654 151.083 732.075 Q153.537 731.497 155.574 731.497 Q160.944 731.497 164.139 734.182 Q167.333 736.867 167.333 741.358 Q167.333 743.487 166.523 745.408 Q165.736 747.307 163.629 749.899 Q163.051 750.57 159.949 753.788 Q156.847 756.982 151.199 762.746 Z" fill="#000000" fill-rule="nonzero" fill-opacity="1" /><path clip-path="url(#clip620)" d="M102.148 510.348 L109.787 510.348 L109.787 483.982 L101.477 485.649 L101.477 481.39 L109.741 479.723 L114.417 479.723 L114.417 510.348 L122.056 510.348 L122.056 514.283 L102.148 514.283 L102.148 510.348 Z" fill="#000000" fill-rule="nonzero" fill-opacity="1" /><path clip-path="url(#clip620)" d="M131.5 508.403 L136.384 508.403 L136.384 514.283 L131.5 514.283 L131.5 508.403 Z" fill="#000000" fill-rule="nonzero" fill-opacity="1" /><path clip-path="url(#clip620)" d="M146.616 479.723 L164.972 479.723 L164.972 483.658 L150.898 483.658 L150.898 492.13 Q151.916 491.783 152.935 491.621 Q153.954 491.436 154.972 491.436 Q160.759 491.436 164.139 494.607 Q167.518 497.778 167.518 503.195 Q167.518 508.774 164.046 511.876 Q160.574 514.954 154.254 514.954 Q152.079 514.954 149.81 514.584 Q147.565 514.214 145.157 513.473 L145.157 508.774 Q147.241 509.908 149.463 510.464 Q151.685 511.019 154.162 511.019 Q158.166 511.019 160.504 508.913 Q162.842 506.806 162.842 503.195 Q162.842 499.584 160.504 497.478 Q158.166 495.371 154.162 495.371 Q152.287 495.371 150.412 495.788 Q148.56 496.204 146.616 497.084 L146.616 479.723 Z" fill="#000000" fill-rule="nonzero" fill-opacity="1" /><path clip-path="url(#clip620)" d="M101.245 257.949 L108.884 257.949 L108.884 231.584 L100.574 233.25 L100.574 228.991 L108.838 227.325 L113.514 227.325 L113.514 257.949 L121.153 257.949 L121.153 261.885 L101.245 261.885 L101.245 257.949 Z" fill="#000000" fill-rule="nonzero" fill-opacity="1" /><path clip-path="url(#clip620)" d="M130.597 256.005 L135.481 256.005 L135.481 261.885 L130.597 261.885 L130.597 256.005 Z" fill="#000000" fill-rule="nonzero" fill-opacity="1" /><path clip-path="url(#clip620)" d="M155.666 245.473 Q152.333 245.473 150.412 247.255 Q148.514 249.037 148.514 252.162 Q148.514 255.287 150.412 257.07 Q152.333 258.852 155.666 258.852 Q159 258.852 160.921 257.07 Q162.842 255.264 162.842 252.162 Q162.842 249.037 160.921 247.255 Q159.023 245.473 155.666 245.473 M150.991 243.482 Q147.981 242.741 146.292 240.681 Q144.625 238.621 144.625 235.658 Q144.625 231.514 147.565 229.107 Q150.528 226.7 155.666 226.7 Q160.828 226.7 163.768 229.107 Q166.708 231.514 166.708 235.658 Q166.708 238.621 165.018 240.681 Q163.352 242.741 160.366 243.482 Q163.745 244.269 165.62 246.561 Q167.518 248.852 167.518 252.162 Q167.518 257.186 164.44 259.871 Q161.384 262.556 155.666 262.556 Q149.949 262.556 146.87 259.871 Q143.815 257.186 143.815 252.162 Q143.815 248.852 145.713 246.561 Q147.611 244.269 150.991 243.482 M149.278 236.098 Q149.278 238.783 150.944 240.287 Q152.634 241.792 155.666 241.792 Q158.676 241.792 160.366 240.287 Q162.078 238.783 162.078 236.098 Q162.078 233.412 160.366 231.908 Q158.676 230.403 155.666 230.403 Q152.634 230.403 150.944 231.908 Q149.278 233.412 149.278 236.098 Z" fill="#000000" fill-rule="nonzero" fill-opacity="1" /><polyline clip-path="url(#clip622)" style="stroke:#009af9; stroke-linecap:round; stroke-linejoin:round; stroke-width:4; stroke-opacity:1; fill:none" points="203.518,1338.33 205.67,1332.03 207.821,1325.76 209.972,1319.52 212.124,1313.32 214.275,1307.14 216.427,1301 218.578,1294.88 220.729,1288.8 222.881,1282.75 225.032,1276.72 227.184,1270.73 229.335,1264.77 231.486,1258.83 233.638,1252.93 235.789,1247.06 237.94,1241.21 240.092,1235.4 242.243,1229.61 244.395,1223.85 246.546,1218.12 248.697,1212.42 250.849,1206.75 253,1201.11 255.152,1195.49 257.303,1189.9 259.454,1184.34 261.606,1178.81 263.757,1173.31 265.909,1167.83 268.06,1162.38 270.211,1156.96 272.363,1151.57 274.514,1146.2 276.665,1140.86 278.817,1135.54 280.968,1130.25 283.12,1124.99 285.271,1119.76 287.422,1114.55 289.574,1109.36 291.725,1104.21 293.877,1099.08 296.028,1093.97 298.179,1088.89 300.331,1083.83 302.482,1078.8 304.634,1073.8 306.785,1068.82 308.936,1063.86 311.088,1058.93 313.239,1054.03 315.39,1049.15 317.542,1044.29 319.693,1039.46 321.845,1034.65 323.996,1029.86 326.147,1025.1 328.299,1020.37 330.45,1015.65 332.602,1010.96 334.753,1006.3 336.904,1001.66 339.056,997.036 341.207,992.44 343.359,987.866 345.51,983.315 347.661,978.787 349.813,974.282 351.964,969.799 354.115,965.338 356.267,960.9 358.418,956.484 360.57,952.09 362.721,947.717 364.872,943.367 367.024,939.038 369.175,934.731 371.327,930.446 373.478,926.182 375.629,921.939 377.781,917.717 379.932,913.517 382.084,909.337 384.235,905.178 386.386,901.04 388.538,896.923 390.689,892.826 392.84,888.75 394.992,884.694 397.143,880.658 399.295,876.643 401.446,872.647 403.597,868.672 405.749,864.716 407.9,860.78 410.052,856.864 412.203,852.967 414.354,849.09 416.506,845.232 418.657,841.393 420.809,837.573 422.96,833.773 425.111,829.991 427.263,826.229 429.414,822.485 431.565,818.76 433.717,815.053 435.868,811.365 438.02,807.695 440.171,804.044 442.322,800.411 444.474,796.796 446.625,793.199 448.777,789.62 450.928,786.059 453.079,782.516 455.231,778.99 457.382,775.482 459.534,771.992 461.685,768.519 463.836,765.063 465.988,761.624 468.139,758.203 470.29,754.799 472.442,751.412 474.593,748.041 476.745,744.688 478.896,741.351 481.047,738.031 483.199,734.728 485.35,731.441 487.502,728.17 489.653,724.916 491.804,721.678 493.956,718.456 496.107,715.25 498.259,712.061 500.41,708.887 502.561,705.729 504.713,702.587 506.864,699.46 509.016,696.349 511.167,693.254 513.318,690.174 515.47,687.109 517.621,684.06 519.772,681.026 521.924,678.007 524.075,675.003 526.227,672.015 528.378,669.041 530.529,666.082 532.681,663.137 534.832,660.208 536.984,657.293 539.135,654.392 541.286,651.506 543.438,648.635 545.589,645.778 547.741,642.935 549.892,640.106 552.043,637.291 554.195,634.491 556.346,631.704 558.497,628.931 560.649,626.172 562.8,623.427 564.952,620.696 567.103,617.978 569.254,615.274 571.406,612.583 573.557,609.906 575.709,607.242 577.86,604.591 580.011,601.954 582.163,599.33 584.314,596.719 586.466,594.121 588.617,591.535 590.768,588.963 592.92,586.404 595.071,583.857 597.222,581.324 599.374,578.802 601.525,576.294 603.677,573.798 605.828,571.314 607.979,568.843 610.131,566.384 612.282,563.937 614.434,561.503 616.585,559.081 618.736,556.671 620.888,554.273 623.039,551.887 625.191,549.513 627.342,547.15 629.493,544.8 631.645,542.461 633.796,540.134 635.947,537.818 638.099,535.515 640.25,533.222 642.402,530.941 644.553,528.672 646.704,526.413 648.856,524.167 651.007,521.931 653.159,519.706 655.31,517.493 657.461,515.29 659.613,513.099 661.764,510.919 663.916,508.749 666.067,506.59 668.218,504.442 670.37,502.305 672.521,500.178 674.672,498.063 676.824,495.957 678.975,493.862 681.127,491.778 683.278,489.704 685.429,487.64 687.581,485.587 689.732,483.544 691.884,481.511 694.035,479.488 696.186,477.475 698.338,475.473 700.489,473.48 702.641,471.497 704.792,469.524 706.943,467.562 709.095,465.608 711.246,463.665 713.397,461.731 715.549,459.807 717.7,457.893 719.852,455.988 722.003,454.092 724.154,452.206 726.306,450.33 728.457,448.463 730.609,446.605 732.76,444.756 734.911,442.917 737.063,441.086 739.214,439.265 741.366,437.453 743.517,435.65 745.668,433.856 747.82,432.071 749.971,430.295 752.122,428.528 754.274,426.769 756.425,425.02 758.577,423.279 760.728,421.547 762.879,419.823 765.031,418.108 767.182,416.402 769.334,414.704 771.485,413.014 773.636,411.333 775.788,409.661 777.939,407.997 780.091,406.341 782.242,404.693 784.393,403.054 786.545,401.422 788.696,399.799 790.847,398.184 792.999,396.578 795.15,394.979 797.302,393.388 799.453,391.805 801.604,390.23 803.756,388.663 805.907,387.103 808.059,385.552 810.21,384.008 812.361,382.472 814.513,380.944 816.664,379.423 818.816,377.91 820.967,376.404 823.118,374.906 825.27,373.416 827.421,371.933 829.572,370.457 831.724,368.989 833.875,367.528 836.027,366.074 838.178,364.628 840.329,363.188 842.481,361.756 844.632,360.331 846.784,358.914 848.935,357.503 851.086,356.099 853.238,354.703 855.389,353.313 857.541,351.93 859.692,350.555 861.843,349.186 863.995,347.824 866.146,346.468 868.297,345.12 870.449,343.778 872.6,342.443 874.752,341.115 876.903,339.793 879.054,338.478 881.206,337.169 883.357,335.867 885.509,334.571 887.66,333.282 889.811,331.999 891.963,330.723 894.114,329.453 896.266,328.19 898.417,326.932 900.568,325.681 902.72,324.437 904.871,323.198 907.022,321.966 909.174,320.739 911.325,319.519 913.477,318.305 915.628,317.097 917.779,315.895 919.931,314.699 922.082,313.509 924.234,312.325 926.385,311.147 928.536,309.975 930.688,308.809 932.839,307.648 934.991,306.493 937.142,305.344 939.293,304.201 941.445,303.063 943.596,301.931 945.747,300.805 947.899,299.684 950.05,298.569 952.202,297.459 954.353,296.355 956.504,295.256 958.656,294.163 960.807,293.075 962.959,291.993 965.11,290.916 967.261,289.845 969.413,288.779 971.564,287.718 973.716,286.662 975.867,285.612 978.018,284.567 980.17,283.527 982.321,282.493 984.472,281.463 986.624,280.439 988.775,279.42 990.927,278.406 993.078,277.397 995.229,276.393 997.381,275.394 999.532,274.4 1001.68,273.411 1003.83,272.427 1005.99,271.448 1008.14,270.474 1010.29,269.504 1012.44,268.54 1014.59,267.58 1016.74,266.625 1018.89,265.675 1021.05,264.73 1023.2,263.789 1025.35,262.853 1027.5,261.922 1029.65,260.995 1031.8,260.073 1033.95,259.156 1036.11,258.243 1038.26,257.335 1040.41,256.431 1042.56,255.532 1044.71,254.637 1046.86,253.747 1049.01,252.862 1051.17,251.98 1053.32,251.103 1055.47,250.231 1057.62,249.363 1059.77,248.499 1061.92,247.64 1064.07,246.784 1066.23,245.934 1068.38,245.087 1070.53,244.245 1072.68,243.406 1074.83,242.572 1076.98,241.743 1079.13,240.917 1081.28,240.095 1083.44,239.278 1085.59,238.465 1087.74,237.655 1089.89,236.85 1092.04,236.049 1094.19,235.252 1096.34,234.458 1098.5,233.669 1100.65,232.884 1102.8,232.102 1104.95,231.325 1107.1,230.551 1109.25,229.782 1111.4,229.016 1113.56,228.254 1115.71,227.495 1117.86,226.741 1120.01,225.99 1122.16,225.243 1124.31,224.5 1126.46,223.76 1128.62,223.025 1130.77,222.292 1132.92,221.564 1135.07,220.839 1137.22,220.118 1139.37,219.4 1141.52,218.686 1143.68,217.975 1145.83,217.269 1147.98,216.565 1150.13,215.865 1152.28,215.169 1154.43,214.476 1156.58,213.786 1158.73,213.1 1160.89,212.417 1163.04,211.738 1165.19,211.062 1167.34,210.39 1169.49,209.721 1171.64,209.055 1173.79,208.392 1175.95,207.733 1178.1,207.077 1180.25,206.424 1182.4,205.775 1184.55,205.129 1186.7,204.486 1188.85,203.846 1191.01,203.209 1193.16,202.576 1195.31,201.946 1197.46,201.319 1199.61,200.694 1201.76,200.074 1203.91,199.456 1206.07,198.841 1208.22,198.229 1210.37,197.62 1212.52,197.015 1214.67,196.412 1216.82,195.812 1218.97,195.216 1221.13,194.622 1223.28,194.031 1225.43,193.444 1227.58,192.859 1229.73,192.277 1231.88,191.698 1234.03,191.121 1236.18,190.548 1238.34,189.978 1240.49,189.41 1242.64,188.845 1244.79,188.283 1246.94,187.724 1249.09,187.168 1251.24,186.614 1253.4,186.064 1255.55,185.516 1257.7,184.97 1259.85,184.428 1262,183.888 1264.15,183.351 1266.3,182.816 1268.46,182.284 1270.61,181.755 1272.76,181.229 1274.91,180.705 1277.06,180.184 1279.21,179.665 1281.36,179.149 1283.52,178.635 1285.67,178.124 1287.82,177.616 1289.97,177.11 1292.12,176.607 1294.27,176.106 1296.42,175.608 1298.58,175.112 1300.73,174.619 1302.88,174.128 1305.03,173.64 1307.18,173.154 1309.33,172.671 1311.48,172.19 1313.64,171.711 1315.79,171.235 1317.94,170.761 1320.09,170.29 1322.24,169.821 1324.39,169.354 1326.54,168.889 1328.69,168.427 1330.85,167.968 1333,167.51 1335.15,167.055 1337.3,166.602 1339.45,166.152 1341.6,165.703 1343.75,165.257 1345.91,164.813 1348.06,164.372 1350.21,163.932 1352.36,163.495 1354.51,163.06 1356.66,162.627 1358.81,162.196 1360.97,161.768 1363.12,161.342 1365.27,160.917 1367.42,160.495 1369.57,160.075 1371.72,159.657 1373.87,159.241 1376.03,158.828 1378.18,158.416 1380.33,158.006 1382.48,157.599 1384.63,157.193 1386.78,156.79 1388.93,156.388 1391.09,155.989 1393.24,155.592 1395.39,155.196 1397.54,154.803 1399.69,154.411 1401.84,154.021 1403.99,153.634 1406.14,153.248 1408.3,152.864 1410.45,152.483 1412.6,152.103 1414.75,151.725 1416.9,151.348 1419.05,150.974 1421.2,150.602 1423.36,150.231 1425.51,149.862 1427.66,149.496 1429.81,149.131 1431.96,148.767 1434.11,148.406 1436.26,148.046 1438.42,147.689 1440.57,147.333 1442.72,146.978 1444.87,146.626 1447.02,146.275 1449.17,145.926 1451.32,145.579 1453.48,145.233 1455.63,144.89 1457.78,144.547 1459.93,144.207 1462.08,143.868 1464.23,143.531 1466.38,143.196 1468.54,142.862 1470.69,142.53 1472.84,142.2 1474.99,141.871 1477.14,141.544 1479.29,141.219 1481.44,140.895 1483.59,140.573 1485.75,140.252 1487.9,139.933 1490.05,139.615 1492.2,139.3 1494.35,138.985 1496.5,138.672 1498.65,138.361 1500.81,138.051 1502.96,137.743 1505.11,137.437 1507.26,137.132 1509.41,136.828 1511.56,136.526 1513.71,136.225 1515.87,135.926 1518.02,135.628 1520.17,135.332 1522.32,135.037 1524.47,134.744 1526.62,134.452 1528.77,134.162 1530.93,133.873 1533.08,133.586 1535.23,133.3 1537.38,133.015 1539.53,132.732 1541.68,132.45 1543.83,132.17 1545.99,131.891 1548.14,131.613 1550.29,131.337 1552.44,131.062 1554.59,130.788 1556.74,130.516 1558.89,130.245 1561.04,129.976 1563.2,129.708 1565.35,129.441 1567.5,129.176 1569.65,128.912 1571.8,128.649 1573.95,128.388 1576.1,128.127 1578.26,127.869 1580.41,127.611 1582.56,127.355 1584.71,127.1 1586.86,126.846 1589.01,126.594 1591.16,126.343 1593.32,126.093 1595.47,125.844 1597.62,125.597 1599.77,125.351 1601.92,125.106 1604.07,124.862 1606.22,124.62 1608.38,124.378 1610.53,124.138 1612.68,123.899 1614.83,123.662 1616.98,123.425 1619.13,123.19 1621.28,122.956 1623.44,122.723 1625.59,122.491 1627.74,122.261 1629.89,122.032 1632.04,121.803 1634.19,121.576 1636.34,121.35 1638.49,121.125 1640.65,120.902 1642.8,120.679 1644.95,120.458 1647.1,120.237 1649.25,120.018 1651.4,119.8 1653.55,119.583 1655.71,119.367 1657.86,119.152 1660.01,118.938 1662.16,118.726 1664.31,118.514 1666.46,118.304 1668.61,118.094 1670.77,117.886 1672.92,117.678 1675.07,117.472 1677.22,117.267 1679.37,117.062 1681.52,116.859 1683.67,116.657 1685.83,116.456 1687.98,116.256 1690.13,116.056 1692.28,115.858 1694.43,115.661 1696.58,115.465 1698.73,115.27 1700.89,115.075 1703.04,114.882 1705.19,114.69 1707.34,114.498 1709.49,114.308 1711.64,114.119 1713.79,113.93 1715.94,113.743 1718.1,113.556 1720.25,113.371 1722.4,113.186 1724.55,113.002 1726.7,112.819 1728.85,112.637 1731,112.456 1733.16,112.276 1735.31,112.097 1737.46,111.919 1739.61,111.741 1741.76,111.565 1743.91,111.389 1746.06,111.215 1748.22,111.041 1750.37,110.868 1752.52,110.695 1754.67,110.524 1756.82,110.354 1758.97,110.184 1761.12,110.015 1763.28,109.848 1765.43,109.681 1767.58,109.514 1769.73,109.349 1771.88,109.184 1774.03,109.021 1776.18,108.858 1778.34,108.696 1780.49,108.534 1782.64,108.374 1784.79,108.214 1786.94,108.055 1789.09,107.897 1791.24,107.74 1793.39,107.583 1795.55,107.428 1797.7,107.273 1799.85,107.118 1802,106.965 1804.15,106.812 1806.3,106.66 1808.45,106.509 1810.61,106.359 1812.76,106.209 1814.91,106.06 1817.06,105.912 1819.21,105.764 1821.36,105.617 1823.51,105.471 1825.67,105.326 1827.82,105.182 1829.97,105.038 1832.12,104.895 1834.27,104.752 1836.42,104.61 1838.57,104.469 1840.73,104.329 1842.88,104.189 1845.03,104.05 1847.18,103.912 1849.33,103.774 1851.48,103.637 1853.63,103.501 1855.79,103.365 1857.94,103.23 1860.09,103.096 1862.24,102.963 1864.39,102.83 1866.54,102.697 1868.69,102.565 1870.84,102.434 1873,102.304 1875.15,102.174 1877.3,102.045 1879.45,101.917 1881.6,101.789 1883.75,101.662 1885.9,101.535 1888.06,101.409 1890.21,101.284 1892.36,101.159 1894.51,101.035 1896.66,100.911 1898.81,100.788 1900.96,100.666 1903.12,100.544 1905.27,100.423 1907.42,100.303 1909.57,100.183 1911.72,100.064 1913.87,99.9449 1916.02,99.8268 1918.18,99.7093 1920.33,99.5923 1922.48,99.476 1924.63,99.3602 1926.78,99.245 1928.93,99.1304 1931.08,99.0163 1933.24,98.9028 1935.39,98.7899 1937.54,98.6775 1939.69,98.5657 1941.84,98.4545 1943.99,98.3438 1946.14,98.2336 1948.29,98.1241 1950.45,98.015 1952.6,97.9065 1954.75,97.7986 1956.9,97.6912 1959.05,97.5843 1961.2,97.478 1963.35,97.3722 1965.51,97.2669 1967.66,97.1622 1969.81,97.058 1971.96,96.9543 1974.11,96.8512 1976.26,96.7485 1978.41,96.6464 1980.57,96.5448 1982.72,96.4437 1984.87,96.3431 1987.02,96.243 1989.17,96.1434 1991.32,96.0443 1993.47,95.9458 1995.63,95.8477 1997.78,95.7501 1999.93,95.653 2002.08,95.5564 2004.23,95.4603 2006.38,95.3647 2008.53,95.2695 2010.69,95.1749 2012.84,95.0807 2014.99,94.987 2017.14,94.8937 2019.29,94.801 2021.44,94.7087 2023.59,94.6169 2025.74,94.5255 2027.9,94.4346 2030.05,94.3442 2032.2,94.2542 2034.35,94.1647 2036.5,94.0756 2038.65,93.987 2040.8,93.8988 2042.96,93.8111 2045.11,93.7238 2047.26,93.637 2049.41,93.5506 2051.56,93.4646 2053.71,93.3791 2055.86,93.2941 2058.02,93.2094 2060.17,93.1252 2062.32,93.0414 2064.47,92.958 2066.62,92.8751 2068.77,92.7926 2070.92,92.7104 2073.08,92.6288 2075.23,92.5475 2077.38,92.4666 2079.53,92.3862 2081.68,92.3061 2083.83,92.2265 2085.98,92.1473 2088.14,92.0684 2090.29,91.99 2092.44,91.912 2094.59,91.8343 2096.74,91.7571 2098.89,91.6802 2101.04,91.6038 2103.19,91.5277 2105.35,91.452 2107.5,91.3767 2109.65,91.3018 2111.8,91.2272 2113.95,91.1531 2116.1,91.0793 2118.25,91.0059 2120.41,90.9328 2122.56,90.8602 2124.71,90.7878 2126.86,90.7159 2129.01,90.6443 2131.16,90.5731 2133.31,90.5022 2135.47,90.4317 2137.62,90.3616 2139.77,90.2918 2141.92,90.2224 2144.07,90.1533 2146.22,90.0845 2148.37,90.0161 2150.53,89.9481 2152.68,89.8804 2154.83,89.813 2156.98,89.746 2159.13,89.6793 2161.28,89.6129 2163.43,89.5469 2165.59,89.4812 2167.74,89.4159 2169.89,89.3508 2172.04,89.2861 2174.19,89.2217 2176.34,89.1577 2178.49,89.0939 2180.64,89.0305 2182.8,88.9674 2184.95,88.9046 2187.1,88.8421 2189.25,88.7799 2191.4,88.7181 2193.55,88.6565 2195.7,88.5953 2197.86,88.5343 2200.01,88.4737 2202.16,88.4134 2204.31,88.3533 2206.46,88.2936 2208.61,88.2341 2210.76,88.175 2212.92,88.1161 2215.07,88.0575 2217.22,87.9993 2219.37,87.9413 2221.52,87.8835 2223.67,87.8261 2225.82,87.769 2227.98,87.7121 2230.13,87.6555 2232.28,87.5992 2234.43,87.5432 2236.58,87.4874 2238.73,87.4319 2240.88,87.3767 2243.04,87.3218 2245.19,87.2671 2247.34,87.2127 2249.49,87.1585 2251.64,87.1046 2253.79,87.051 2255.94,86.9976 2258.09,86.9445 2260.25,86.8916 2262.4,86.839 2264.55,86.7867 2266.7,86.7346 2268.85,86.6827 2271,86.6311 2273.15,86.5798 2275.31,86.5287 2277.46,86.4778 2279.61,86.4272 2281.76,86.3768 2283.91,86.3267 2286.06,86.2768 2288.21,86.2272 2290.37,86.1778 2292.52,86.1287 2294.67,86.0799 2296.82,86.0312 2298.97,85.9828 2301.12,85.9347 2303.27,85.8868 2305.43,85.8391 2307.58,85.7917 2309.73,85.7445 2311.88,85.6975 2314.03,85.6508 2316.18,85.6043 2318.33,85.5581 2320.49,85.512 2322.64,85.4662 2324.79,85.4207 2326.94,85.3753 2329.09,85.3302 2331.24,85.2853 2333.39,85.2407 2335.54,85.1962 2337.7,85.152 2339.85,85.108 2342,85.0642 2344.15,85.0207 2346.3,84.9773 2348.45,84.9342 2350.6,84.8913 2352.76,84.8486 "/>
<path clip-path="url(#clip620)" d="M275.16 195.214 L519.666 195.214 L519.666 91.5338 L275.16 91.5338  Z" fill="#ffffff" fill-rule="evenodd" fill-opacity="1"/>
<polyline clip-path="url(#clip620)" style="stroke:#000000; stroke-linecap:round; stroke-linejoin:round; stroke-width:4; stroke-opacity:1; fill:none" points="275.16,195.214 519.666,195.214 519.666,91.5338 275.16,91.5338 275.16,195.214 "/>
<polyline clip-path="url(#clip620)" style="stroke:#009af9; stroke-linecap:round; stroke-linejoin:round; stroke-width:4; stroke-opacity:1; fill:none" points="299.04,143.374 442.322,143.374 "/>
<path clip-path="url(#clip620)" d="M467.777 126.094 L472.8 126.094 L481.388 138.941 L490.022 126.094 L495.045 126.094 L483.934 142.691 L495.786 160.654 L490.763 160.654 L481.041 145.955 L471.249 160.654 L466.203 160.654 L478.541 142.205 L467.777 126.094 Z" fill="#000000" fill-rule="nonzero" fill-opacity="1" /></svg>
