<?xml version="1.0" encoding="utf-8"?>
<svg xmlns="http://www.w3.org/2000/svg" xmlns:xlink="http://www.w3.org/1999/xlink" width="800" height="400" viewBox="0 0 3200 1600">
<defs>
  <clipPath id="clip640">
    <rect x="0" y="0" width="3200" height="1600"/>
  </clipPath>
</defs>
<path clip-path="url(#clip640)" d="M0 1600 L3200 1600 L3200 0 L0 0  Z" fill="#ffffff" fill-rule="evenodd" fill-opacity="1"/>
<defs>
  <clipPath id="clip641">
    <rect x="640" y="0" width="2241" height="1600"/>
  </clipPath>
</defs>
<path clip-path="url(#clip640)" d="M194.274 1443.7 L3152.76 1443.7 L3152.76 47.2441 L194.274 47.2441  Z" fill="#ffffff" fill-rule="evenodd" fill-opacity="1"/>
<defs>
  <clipPath id="clip642">
    <rect x="194" y="47" width="2959" height="1397"/>
  </clipPath>
</defs>
<polyline clip-path="url(#clip642)" style="stroke:#000000; stroke-linecap:round; stroke-linejoin:round; stroke-width:2; stroke-opacity:0.1; fill:none" points="194.274,1443.7 194.274,47.2441 "/>
<polyline clip-path="url(#clip642)" style="stroke:#000000; stroke-linecap:round; stroke-linejoin:round; stroke-width:2; stroke-opacity:0.1; fill:none" points="785.97,1443.7 785.97,47.2441 "/>
<polyline clip-path="url(#clip642)" style="stroke:#000000; stroke-linecap:round; stroke-linejoin:round; stroke-width:2; stroke-opacity:0.1; fill:none" points="1377.67,1443.7 1377.67,47.2441 "/>
<polyline clip-path="url(#clip642)" style="stroke:#000000; stroke-linecap:round; stroke-linejoin:round; stroke-width:2; stroke-opacity:0.1; fill:none" points="1969.36,1443.7 1969.36,47.2441 "/>
<polyline clip-path="url(#clip642)" style="stroke:#000000; stroke-linecap:round; stroke-linejoin:round; stroke-width:2; stroke-opacity:0.1; fill:none" points="2561.06,1443.7 2561.06,47.2441 "/>
<polyline clip-path="url(#clip642)" style="stroke:#000000; stroke-linecap:round; stroke-linejoin:round; stroke-width:2; stroke-opacity:0.1; fill:none" points="3152.76,1443.7 3152.76,47.2441 "/>
<polyline clip-path="url(#clip642)" style="stroke:#000000; stroke-linecap:round; stroke-linejoin:round; stroke-width:2; stroke-opacity:0.1; fill:none" points="194.274,1443.7 194.274,47.2441 "/>
<polyline clip-path="url(#clip642)" style="stroke:#000000; stroke-linecap:round; stroke-linejoin:round; stroke-width:2; stroke-opacity:0.1; fill:none" points="785.97,1443.7 785.97,47.2441 "/>
<polyline clip-path="url(#clip642)" style="stroke:#000000; stroke-linecap:round; stroke-linejoin:round; stroke-width:2; stroke-opacity:0.1; fill:none" points="1377.67,1443.7 1377.67,47.2441 "/>
<polyline clip-path="url(#clip642)" style="stroke:#000000; stroke-linecap:round; stroke-linejoin:round; stroke-width:2; stroke-opacity:0.1; fill:none" points="1969.36,1443.7 1969.36,47.2441 "/>
<polyline clip-path="url(#clip642)" style="stroke:#000000; stroke-linecap:round; stroke-linejoin:round; stroke-width:2; stroke-opacity:0.1; fill:none" points="2561.06,1443.7 2561.06,47.2441 "/>
<polyline clip-path="url(#clip642)" style="stroke:#000000; stroke-linecap:round; stroke-linejoin:round; stroke-width:2; stroke-opacity:0.1; fill:none" points="3152.76,1443.7 3152.76,47.2441 "/>
<polyline clip-path="url(#clip640)" style="stroke:#000000; stroke-linecap:round; stroke-linejoin:round; stroke-width:4; stroke-opacity:1; fill:none" points="194.274,1443.7 3152.76,1443.7 "/>
<polyline clip-path="url(#clip640)" style="stroke:#000000; stroke-linecap:round; stroke-linejoin:round; stroke-width:4; stroke-opacity:1; fill:none" points="194.274,47.2441 3152.76,47.2441 "/>
<polyline clip-path="url(#clip640)" style="stroke:#000000; stroke-linecap:round; stroke-linejoin:round; stroke-width:4; stroke-opacity:1; fill:none" points="194.274,1443.7 194.274,1424.8 "/>
<polyline clip-path="url(#clip640)" style="stroke:#000000; stroke-linecap:round; stroke-linejoin:round; stroke-width:4; stroke-opacity:1; fill:none" points="785.97,1443.7 785.97,1424.8 "/>
<polyline clip-path="url(#clip640)" style="stroke:#000000; stroke-linecap:round; stroke-linejoin:round; stroke-width:4; stroke-opacity:1; fill:none" points="1377.67,1443.7 1377.67,1424.8 "/>
<polyline clip-path="url(#clip640)" style="stroke:#000000; stroke-linecap:round; stroke-linejoin:round; stroke-width:4; stroke-opacity:1; fill:none" points="1969.36,1443.7 1969.36,1424.8 "/>
<polyline clip-path="url(#clip640)" style="stroke:#000000; stroke-linecap:round; stroke-linejoin:round; stroke-width:4; stroke-opacity:1; fill:none" points="2561.06,1443.7 2561.06,1424.8 "/>
<polyline clip-path="url(#clip640)" style="stroke:#000000; stroke-linecap:round; stroke-linejoin:round; stroke-width:4; stroke-opacity:1; fill:none" points="3152.76,1443.7 3152.76,1424.8 "/>
<polyline clip-path="url(#clip640)" style="stroke:#000000; stroke-linecap:round; stroke-linejoin:round; stroke-width:4; stroke-opacity:1; fill:none" points="194.274,47.2441 194.274,66.1417 "/>
<polyline clip-path="url(#clip640)" style="stroke:#000000; stroke-linecap:round; stroke-linejoin:round; stroke-width:4; stroke-opacity:1; fill:none" points="785.97,47.2441 785.97,66.1417 "/>
<polyline clip-path="url(#clip640)" style="stroke:#000000; stroke-linecap:round; stroke-linejoin:round; stroke-width:4; stroke-opacity:1; fill:none" points="1377.67,47.2441 1377.67,66.1417 "/>
<polyline clip-path="url(#clip640)" style="stroke:#000000; stroke-linecap:round; stroke-linejoin:round; stroke-width:4; stroke-opacity:1; fill:none" points="1969.36,47.2441 1969.36,66.1417 "/>
<polyline clip-path="url(#clip640)" style="stroke:#000000; stroke-linecap:round; stroke-linejoin:round; stroke-width:4; stroke-opacity:1; fill:none" points="2561.06,47.2441 2561.06,66.1417 "/>
<polyline clip-path="url(#clip640)" style="stroke:#000000; stroke-linecap:round; stroke-linejoin:round; stroke-width:4; stroke-opacity:1; fill:none" points="3152.76,47.2441 3152.76,66.1417 "/>
<path clip-path="url(#clip640)" d="M194.274 1481.02 Q190.663 1481.02 188.834 1484.58 Q187.029 1488.12 187.029 1495.25 Q187.029 1502.36 188.834 1505.93 Q190.663 1509.47 194.274 1509.47 Q197.908 1509.47 199.714 1505.93 Q201.542 1502.36 201.542 1495.25 Q201.542 1488.12 199.714 1484.58 Q197.908 1481.02 194.274 1481.02 M194.274 1477.31 Q200.084 1477.31 203.14 1481.92 Q206.218 1486.5 206.218 1495.25 Q206.218 1503.98 203.14 1508.59 Q200.084 1513.17 194.274 1513.17 Q188.464 1513.17 185.385 1508.59 Q182.33 1503.98 182.33 1495.25 Q182.33 1486.5 185.385 1481.92 Q188.464 1477.31 194.274 1477.31 Z" fill="#000000" fill-rule="nonzero" fill-opacity="1" /><path clip-path="url(#clip640)" d="M780.623 1508.56 L796.943 1508.56 L796.943 1512.5 L774.998 1512.5 L774.998 1508.56 Q777.66 1505.81 782.244 1501.18 Q786.85 1496.53 788.031 1495.19 Q790.276 1492.66 791.156 1490.93 Q792.058 1489.17 792.058 1487.48 Q792.058 1484.72 790.114 1482.99 Q788.193 1481.25 785.091 1481.25 Q782.892 1481.25 780.438 1482.01 Q778.007 1482.78 775.23 1484.33 L775.23 1479.61 Q778.054 1478.47 780.507 1477.89 Q782.961 1477.31 784.998 1477.31 Q790.369 1477.31 793.563 1480 Q796.757 1482.69 796.757 1487.18 Q796.757 1489.31 795.947 1491.23 Q795.16 1493.12 793.054 1495.72 Q792.475 1496.39 789.373 1499.61 Q786.271 1502.8 780.623 1508.56 Z" fill="#000000" fill-rule="nonzero" fill-opacity="1" /><path clip-path="url(#clip640)" d="M1380.68 1482.01 L1368.87 1500.46 L1380.68 1500.46 L1380.68 1482.01 M1379.45 1477.94 L1385.33 1477.94 L1385.33 1500.46 L1390.26 1500.46 L1390.26 1504.35 L1385.33 1504.35 L1385.33 1512.5 L1380.68 1512.5 L1380.68 1504.35 L1365.07 1504.35 L1365.07 1499.84 L1379.45 1477.94 Z" fill="#000000" fill-rule="nonzero" fill-opacity="1" /><path clip-path="url(#clip640)" d="M1969.77 1493.36 Q1966.62 1493.36 1964.77 1495.51 Q1962.94 1497.66 1962.94 1501.41 Q1962.94 1505.14 1964.77 1507.31 Q1966.62 1509.47 1969.77 1509.47 Q1972.92 1509.47 1974.75 1507.31 Q1976.6 1505.14 1976.6 1501.41 Q1976.6 1497.66 1974.75 1495.51 Q1972.92 1493.36 1969.77 1493.36 M1979.05 1478.7 L1979.05 1482.96 Q1977.29 1482.13 1975.49 1481.69 Q1973.7 1481.25 1971.94 1481.25 Q1967.31 1481.25 1964.86 1484.37 Q1962.43 1487.5 1962.08 1493.82 Q1963.45 1491.81 1965.51 1490.74 Q1967.57 1489.65 1970.05 1489.65 Q1975.25 1489.65 1978.26 1492.82 Q1981.3 1495.97 1981.3 1501.41 Q1981.3 1506.74 1978.15 1509.95 Q1975 1513.17 1969.77 1513.17 Q1963.77 1513.17 1960.6 1508.59 Q1957.43 1503.98 1957.43 1495.25 Q1957.43 1487.06 1961.32 1482.2 Q1965.21 1477.31 1971.76 1477.31 Q1973.52 1477.31 1975.3 1477.66 Q1977.11 1478.01 1979.05 1478.7 Z" fill="#000000" fill-rule="nonzero" fill-opacity="1" /><path clip-path="url(#clip640)" d="M2561.06 1496.09 Q2557.73 1496.09 2555.8 1497.87 Q2553.91 1499.65 2553.91 1502.78 Q2553.91 1505.9 2555.8 1507.69 Q2557.73 1509.47 2561.06 1509.47 Q2564.39 1509.47 2566.31 1507.69 Q2568.24 1505.88 2568.24 1502.78 Q2568.24 1499.65 2566.31 1497.87 Q2564.42 1496.09 2561.06 1496.09 M2556.38 1494.1 Q2553.37 1493.36 2551.68 1491.3 Q2550.02 1489.24 2550.02 1486.27 Q2550.02 1482.13 2552.96 1479.72 Q2555.92 1477.31 2561.06 1477.31 Q2566.22 1477.31 2569.16 1479.72 Q2572.1 1482.13 2572.1 1486.27 Q2572.1 1489.24 2570.41 1491.3 Q2568.74 1493.36 2565.76 1494.1 Q2569.14 1494.88 2571.01 1497.18 Q2572.91 1499.47 2572.91 1502.78 Q2572.91 1507.8 2569.83 1510.49 Q2566.78 1513.17 2561.06 1513.17 Q2555.34 1513.17 2552.26 1510.49 Q2549.21 1507.8 2549.21 1502.78 Q2549.21 1499.47 2551.11 1497.18 Q2553 1494.88 2556.38 1494.1 M2554.67 1486.71 Q2554.67 1489.4 2556.34 1490.9 Q2558.03 1492.41 2561.06 1492.41 Q2564.07 1492.41 2565.76 1490.9 Q2567.47 1489.4 2567.47 1486.71 Q2567.47 1484.03 2565.76 1482.52 Q2564.07 1481.02 2561.06 1481.02 Q2558.03 1481.02 2556.34 1482.52 Q2554.67 1484.03 2554.67 1486.71 Z" fill="#000000" fill-rule="nonzero" fill-opacity="1" /><path clip-path="url(#clip640)" d="M3127.44 1508.56 L3135.08 1508.56 L3135.08 1482.2 L3126.77 1483.87 L3126.77 1479.61 L3135.04 1477.94 L3139.71 1477.94 L3139.71 1508.56 L3147.35 1508.56 L3147.35 1512.5 L3127.44 1512.5 L3127.44 1508.56 Z" fill="#000000" fill-rule="nonzero" fill-opacity="1" /><path clip-path="url(#clip640)" d="M3166.8 1481.02 Q3163.18 1481.02 3161.36 1484.58 Q3159.55 1488.12 3159.55 1495.25 Q3159.55 1502.36 3161.36 1505.93 Q3163.18 1509.47 3166.8 1509.47 Q3170.43 1509.47 3172.23 1505.93 Q3174.06 1502.36 3174.06 1495.25 Q3174.06 1488.12 3172.23 1484.58 Q3170.43 1481.02 3166.8 1481.02 M3166.8 1477.31 Q3172.61 1477.31 3175.66 1481.92 Q3178.74 1486.5 3178.74 1495.25 Q3178.74 1503.98 3175.66 1508.59 Q3172.61 1513.17 3166.8 1513.17 Q3160.99 1513.17 3157.91 1508.59 Q3154.85 1503.98 3154.85 1495.25 Q3154.85 1486.5 3157.91 1481.92 Q3160.99 1477.31 3166.8 1477.31 Z" fill="#000000" fill-rule="nonzero" fill-opacity="1" /><path clip-path="url(#clip640)" d="M1672.58 1554.79 L1672.58 1564.92 L1684.64 1564.92 L1684.64 1569.47 L1672.58 1569.47 L1672.58 1588.82 Q1672.58 1593.18 1673.75 1594.42 Q1674.96 1595.66 1678.62 1595.66 L1684.64 1595.66 L1684.64 1600.56 L1678.62 1600.56 Q1671.84 1600.56 1669.27 1598.05 Q1666.69 1595.5 1666.69 1588.82 L1666.69 1569.47 L1662.39 1569.47 L1662.39 1564.92 L1666.69 1564.92 L1666.69 1554.79 L1672.58 1554.79 Z" fill="#000000" fill-rule="nonzero" fill-opacity="1" /><polyline clip-path="url(#clip642)" style="stroke:#000000; stroke-linecap:round; stroke-linejoin:round; stroke-width:2; stroke-opacity:0.1; fill:none" points="194.274,1404.18 3152.76,1404.18 "/>
<polyline clip-path="url(#clip642)" style="stroke:#000000; stroke-linecap:round; stroke-linejoin:round; stroke-width:2; stroke-opacity:0.1; fill:none" points="194.274,1076.05 3152.76,1076.05 "/>
<polyline clip-path="url(#clip642)" style="stroke:#000000; stroke-linecap:round; stroke-linejoin:round; stroke-width:2; stroke-opacity:0.1; fill:none" points="194.274,747.922 3152.76,747.922 "/>
<polyline clip-path="url(#clip642)" style="stroke:#000000; stroke-linecap:round; stroke-linejoin:round; stroke-width:2; stroke-opacity:0.1; fill:none" points="194.274,419.795 3152.76,419.795 "/>
<polyline clip-path="url(#clip642)" style="stroke:#000000; stroke-linecap:round; stroke-linejoin:round; stroke-width:2; stroke-opacity:0.1; fill:none" points="194.274,91.6671 3152.76,91.6671 "/>
<polyline clip-path="url(#clip642)" style="stroke:#000000; stroke-linecap:round; stroke-linejoin:round; stroke-width:2; stroke-opacity:0.1; fill:none" points="194.274,1404.18 3152.76,1404.18 "/>
<polyline clip-path="url(#clip642)" style="stroke:#000000; stroke-linecap:round; stroke-linejoin:round; stroke-width:2; stroke-opacity:0.1; fill:none" points="194.274,1076.05 3152.76,1076.05 "/>
<polyline clip-path="url(#clip642)" style="stroke:#000000; stroke-linecap:round; stroke-linejoin:round; stroke-width:2; stroke-opacity:0.1; fill:none" points="194.274,747.922 3152.76,747.922 "/>
<polyline clip-path="url(#clip642)" style="stroke:#000000; stroke-linecap:round; stroke-linejoin:round; stroke-width:2; stroke-opacity:0.1; fill:none" points="194.274,419.795 3152.76,419.795 "/>
<polyline clip-path="url(#clip642)" style="stroke:#000000; stroke-linecap:round; stroke-linejoin:round; stroke-width:2; stroke-opacity:0.1; fill:none" points="194.274,91.6671 3152.76,91.6671 "/>
<polyline clip-path="url(#clip640)" style="stroke:#000000; stroke-linecap:round; stroke-linejoin:round; stroke-width:4; stroke-opacity:1; fill:none" points="194.274,1443.7 194.274,47.2441 "/>
<polyline clip-path="url(#clip640)" style="stroke:#000000; stroke-linecap:round; stroke-linejoin:round; stroke-width:4; stroke-opacity:1; fill:none" points="3152.76,1443.7 3152.76,47.2441 "/>
<polyline clip-path="url(#clip640)" style="stroke:#000000; stroke-linecap:round; stroke-linejoin:round; stroke-width:4; stroke-opacity:1; fill:none" points="194.274,1404.18 213.172,1404.18 "/>
<polyline clip-path="url(#clip640)" style="stroke:#000000; stroke-linecap:round; stroke-linejoin:round; stroke-width:4; stroke-opacity:1; fill:none" points="194.274,1076.05 213.172,1076.05 "/>
<polyline clip-path="url(#clip640)" style="stroke:#000000; stroke-linecap:round; stroke-linejoin:round; stroke-width:4; stroke-opacity:1; fill:none" points="194.274,747.922 213.172,747.922 "/>
<polyline clip-path="url(#clip640)" style="stroke:#000000; stroke-linecap:round; stroke-linejoin:round; stroke-width:4; stroke-opacity:1; fill:none" points="194.274,419.795 213.172,419.795 "/>
<polyline clip-path="url(#clip640)" style="stroke:#000000; stroke-linecap:round; stroke-linejoin:round; stroke-width:4; stroke-opacity:1; fill:none" points="194.274,91.6671 213.172,91.6671 "/>
<polyline clip-path="url(#clip640)" style="stroke:#000000; stroke-linecap:round; stroke-linejoin:round; stroke-width:4; stroke-opacity:1; fill:none" points="3152.76,1404.18 3133.86,1404.18 "/>
<polyline clip-path="url(#clip640)" style="stroke:#000000; stroke-linecap:round; stroke-linejoin:round; stroke-width:4; stroke-opacity:1; fill:none" points="3152.76,1076.05 3133.86,1076.05 "/>
<polyline clip-path="url(#clip640)" style="stroke:#000000; stroke-linecap:round; stroke-linejoin:round; stroke-width:4; stroke-opacity:1; fill:none" points="3152.76,747.922 3133.86,747.922 "/>
<polyline clip-path="url(#clip640)" style="stroke:#000000; stroke-linecap:round; stroke-linejoin:round; stroke-width:4; stroke-opacity:1; fill:none" points="3152.76,419.795 3133.86,419.795 "/>
<polyline clip-path="url(#clip640)" style="stroke:#000000; stroke-linecap:round; stroke-linejoin:round; stroke-width:4; stroke-opacity:1; fill:none" points="3152.76,91.6671 3133.86,91.6671 "/>
<path clip-path="url(#clip640)" d="M58.9365 1389.98 Q55.3254 1389.98 53.4967 1393.54 Q51.6912 1397.08 51.6912 1404.21 Q51.6912 1411.32 53.4967 1414.88 Q55.3254 1418.43 58.9365 1418.43 Q62.5707 1418.43 64.3763 1414.88 Q66.205 1411.32 66.205 1404.21 Q66.205 1397.08 64.3763 1393.54 Q62.5707 1389.98 58.9365 1389.98 M58.9365 1386.27 Q64.7467 1386.27 67.8022 1390.88 Q70.8809 1395.46 70.8809 1404.21 Q70.8809 1412.94 67.8022 1417.55 Q64.7467 1422.13 58.9365 1422.13 Q53.1264 1422.13 50.0477 1417.55 Q46.9921 1412.94 46.9921 1404.21 Q46.9921 1395.46 50.0477 1390.88 Q53.1264 1386.27 58.9365 1386.27 Z" fill="#000000" fill-rule="nonzero" fill-opacity="1" /><path clip-path="url(#clip640)" d="M79.0984 1415.58 L83.9827 1415.58 L83.9827 1421.46 L79.0984 1421.46 L79.0984 1415.58 Z" fill="#000000" fill-rule="nonzero" fill-opacity="1" /><path clip-path="url(#clip640)" d="M104.168 1389.98 Q100.557 1389.98 98.728 1393.54 Q96.9224 1397.08 96.9224 1404.21 Q96.9224 1411.32 98.728 1414.88 Q100.557 1418.43 104.168 1418.43 Q107.802 1418.43 109.608 1414.88 Q111.436 1411.32 111.436 1404.21 Q111.436 1397.08 109.608 1393.54 Q107.802 1389.98 104.168 1389.98 M104.168 1386.27 Q109.978 1386.27 113.033 1390.88 Q116.112 1395.46 116.112 1404.21 Q116.112 1412.94 113.033 1417.55 Q109.978 1422.13 104.168 1422.13 Q98.3576 1422.13 95.2789 1417.55 Q92.2234 1412.94 92.2234 1404.21 Q92.2234 1395.46 95.2789 1390.88 Q98.3576 1386.27 104.168 1386.27 Z" fill="#000000" fill-rule="nonzero" fill-opacity="1" /><path clip-path="url(#clip640)" d="M134.33 1389.98 Q130.719 1389.98 128.89 1393.54 Q127.084 1397.08 127.084 1404.21 Q127.084 1411.32 128.89 1414.88 Q130.719 1418.43 134.33 1418.43 Q137.964 1418.43 139.769 1414.88 Q141.598 1411.32 141.598 1404.21 Q141.598 1397.08 139.769 1393.54 Q137.964 1389.98 134.33 1389.98 M134.33 1386.27 Q140.14 1386.27 143.195 1390.88 Q146.274 1395.46 146.274 1404.21 Q146.274 1412.94 143.195 1417.55 Q140.14 1422.13 134.33 1422.13 Q128.519 1422.13 125.441 1417.55 Q122.385 1412.94 122.385 1404.21 Q122.385 1395.46 125.441 1390.88 Q128.519 1386.27 134.33 1386.27 Z" fill="#000000" fill-rule="nonzero" fill-opacity="1" /><path clip-path="url(#clip640)" d="M59.9319 1061.85 Q56.3208 1061.85 54.4921 1065.41 Q52.6865 1068.96 52.6865 1076.08 Q52.6865 1083.19 54.4921 1086.76 Q56.3208 1090.3 59.9319 1090.3 Q63.5661 1090.3 65.3717 1086.76 Q67.2004 1083.19 67.2004 1076.08 Q67.2004 1068.96 65.3717 1065.41 Q63.5661 1061.85 59.9319 1061.85 M59.9319 1058.14 Q65.742 1058.14 68.7976 1062.75 Q71.8763 1067.33 71.8763 1076.08 Q71.8763 1084.81 68.7976 1089.42 Q65.742 1094 59.9319 1094 Q54.1217 1094 51.043 1089.42 Q47.9875 1084.81 47.9875 1076.08 Q47.9875 1067.33 51.043 1062.75 Q54.1217 1058.14 59.9319 1058.14 Z" fill="#000000" fill-rule="nonzero" fill-opacity="1" /><path clip-path="url(#clip640)" d="M80.0938 1087.45 L84.978 1087.45 L84.978 1093.33 L80.0938 1093.33 L80.0938 1087.45 Z" fill="#000000" fill-rule="nonzero" fill-opacity="1" /><path clip-path="url(#clip640)" d="M99.1909 1089.39 L115.51 1089.39 L115.51 1093.33 L93.566 1093.33 L93.566 1089.39 Q96.228 1086.64 100.811 1082.01 Q105.418 1077.36 106.598 1076.02 Q108.844 1073.49 109.723 1071.76 Q110.626 1070 110.626 1068.31 Q110.626 1065.55 108.682 1063.82 Q106.76 1062.08 103.658 1062.08 Q101.459 1062.08 99.0057 1062.84 Q96.5752 1063.61 93.7974 1065.16 L93.7974 1060.44 Q96.6215 1059.3 99.0752 1058.72 Q101.529 1058.14 103.566 1058.14 Q108.936 1058.14 112.131 1060.83 Q115.325 1063.52 115.325 1068.01 Q115.325 1070.14 114.515 1072.06 Q113.728 1073.96 111.621 1076.55 Q111.043 1077.22 107.941 1080.44 Q104.839 1083.63 99.1909 1089.39 Z" fill="#000000" fill-rule="nonzero" fill-opacity="1" /><path clip-path="url(#clip640)" d="M125.371 1058.77 L143.728 1058.77 L143.728 1062.71 L129.654 1062.71 L129.654 1071.18 Q130.672 1070.83 131.691 1070.67 Q132.709 1070.48 133.728 1070.48 Q139.515 1070.48 142.894 1073.65 Q146.274 1076.83 146.274 1082.24 Q146.274 1087.82 142.802 1090.92 Q139.33 1094 133.01 1094 Q130.834 1094 128.566 1093.63 Q126.32 1093.26 123.913 1092.52 L123.913 1087.82 Q125.996 1088.95 128.219 1089.51 Q130.441 1090.07 132.918 1090.07 Q136.922 1090.07 139.26 1087.96 Q141.598 1085.85 141.598 1082.24 Q141.598 1078.63 139.26 1076.52 Q136.922 1074.42 132.918 1074.42 Q131.043 1074.42 129.168 1074.83 Q127.316 1075.25 125.371 1076.13 L125.371 1058.77 Z" fill="#000000" fill-rule="nonzero" fill-opacity="1" /><path clip-path="url(#clip640)" d="M58.9365 733.721 Q55.3254 733.721 53.4967 737.286 Q51.6912 740.827 51.6912 747.957 Q51.6912 755.063 53.4967 758.628 Q55.3254 762.17 58.9365 762.17 Q62.5707 762.17 64.3763 758.628 Q66.205 755.063 66.205 747.957 Q66.205 740.827 64.3763 737.286 Q62.5707 733.721 58.9365 733.721 M58.9365 730.017 Q64.7467 730.017 67.8022 734.624 Q70.8809 739.207 70.8809 747.957 Q70.8809 756.684 67.8022 761.29 Q64.7467 765.874 58.9365 765.874 Q53.1264 765.874 50.0477 761.29 Q46.9921 756.684 46.9921 747.957 Q46.9921 739.207 50.0477 734.624 Q53.1264 730.017 58.9365 730.017 Z" fill="#000000" fill-rule="nonzero" fill-opacity="1" /><path clip-path="url(#clip640)" d="M79.0984 759.323 L83.9827 759.323 L83.9827 765.202 L79.0984 765.202 L79.0984 759.323 Z" fill="#000000" fill-rule="nonzero" fill-opacity="1" /><path clip-path="url(#clip640)" d="M94.2141 730.642 L112.57 730.642 L112.57 734.577 L98.4965 734.577 L98.4965 743.05 Q99.515 742.702 100.534 742.54 Q101.552 742.355 102.571 742.355 Q108.358 742.355 111.737 745.526 Q115.117 748.698 115.117 754.114 Q115.117 759.693 111.645 762.795 Q108.172 765.874 101.853 765.874 Q99.677 765.874 97.4085 765.503 Q95.1632 765.133 92.7558 764.392 L92.7558 759.693 Q94.8391 760.827 97.0613 761.383 Q99.2835 761.938 101.76 761.938 Q105.765 761.938 108.103 759.832 Q110.441 757.725 110.441 754.114 Q110.441 750.503 108.103 748.397 Q105.765 746.29 101.76 746.29 Q99.8854 746.29 98.0104 746.707 Q96.1585 747.124 94.2141 748.003 L94.2141 730.642 Z" fill="#000000" fill-rule="nonzero" fill-opacity="1" /><path clip-path="url(#clip640)" d="M134.33 733.721 Q130.719 733.721 128.89 737.286 Q127.084 740.827 127.084 747.957 Q127.084 755.063 128.89 758.628 Q130.719 762.17 134.33 762.17 Q137.964 762.17 139.769 758.628 Q141.598 755.063 141.598 747.957 Q141.598 740.827 139.769 737.286 Q137.964 733.721 134.33 733.721 M134.33 730.017 Q140.14 730.017 143.195 734.624 Q146.274 739.207 146.274 747.957 Q146.274 756.684 143.195 761.29 Q140.14 765.874 134.33 765.874 Q128.519 765.874 125.441 761.29 Q122.385 756.684 122.385 747.957 Q122.385 739.207 125.441 734.624 Q128.519 730.017 134.33 730.017 Z" fill="#000000" fill-rule="nonzero" fill-opacity="1" /><path clip-path="url(#clip640)" d="M59.9319 405.593 Q56.3208 405.593 54.4921 409.158 Q52.6865 412.7 52.6865 419.829 Q52.6865 426.936 54.4921 430.501 Q56.3208 434.042 59.9319 434.042 Q63.5661 434.042 65.3717 430.501 Q67.2004 426.936 67.2004 419.829 Q67.2004 412.7 65.3717 409.158 Q63.5661 405.593 59.9319 405.593 M59.9319 401.89 Q65.742 401.89 68.7976 406.496 Q71.8763 411.079 71.8763 419.829 Q71.8763 428.556 68.7976 433.163 Q65.742 437.746 59.9319 437.746 Q54.1217 437.746 51.043 433.163 Q47.9875 428.556 47.9875 419.829 Q47.9875 411.079 51.043 406.496 Q54.1217 401.89 59.9319 401.89 Z" fill="#000000" fill-rule="nonzero" fill-opacity="1" /><path clip-path="url(#clip640)" d="M80.0938 431.195 L84.978 431.195 L84.978 437.075 L80.0938 437.075 L80.0938 431.195 Z" fill="#000000" fill-rule="nonzero" fill-opacity="1" /><path clip-path="url(#clip640)" d="M93.9826 402.515 L116.205 402.515 L116.205 404.505 L103.658 437.075 L98.7743 437.075 L110.58 406.45 L93.9826 406.45 L93.9826 402.515 Z" fill="#000000" fill-rule="nonzero" fill-opacity="1" /><path clip-path="url(#clip640)" d="M125.371 402.515 L143.728 402.515 L143.728 406.45 L129.654 406.45 L129.654 414.922 Q130.672 414.575 131.691 414.413 Q132.709 414.228 133.728 414.228 Q139.515 414.228 142.894 417.399 Q146.274 420.57 146.274 425.987 Q146.274 431.565 142.802 434.667 Q139.33 437.746 133.01 437.746 Q130.834 437.746 128.566 437.376 Q126.32 437.005 123.913 436.265 L123.913 431.565 Q125.996 432.7 128.219 433.255 Q130.441 433.811 132.918 433.811 Q136.922 433.811 139.26 431.704 Q141.598 429.598 141.598 425.987 Q141.598 422.376 139.26 420.269 Q136.922 418.163 132.918 418.163 Q131.043 418.163 129.168 418.579 Q127.316 418.996 125.371 419.876 L125.371 402.515 Z" fill="#000000" fill-rule="nonzero" fill-opacity="1" /><path clip-path="url(#clip640)" d="M49.7467 105.012 L57.3856 105.012 L57.3856 78.6463 L49.0754 80.313 L49.0754 76.0537 L57.3393 74.3871 L62.0152 74.3871 L62.0152 105.012 L69.654 105.012 L69.654 108.947 L49.7467 108.947 L49.7467 105.012 Z" fill="#000000" fill-rule="nonzero" fill-opacity="1" /><path clip-path="url(#clip640)" d="M79.0984 103.067 L83.9827 103.067 L83.9827 108.947 L79.0984 108.947 L79.0984 103.067 Z" fill="#000000" fill-rule="nonzero" fill-opacity="1" /><path clip-path="url(#clip640)" d="M104.168 77.4658 Q100.557 77.4658 98.728 81.0306 Q96.9224 84.5722 96.9224 91.7018 Q96.9224 98.8082 98.728 102.373 Q100.557 105.915 104.168 105.915 Q107.802 105.915 109.608 102.373 Q111.436 98.8082 111.436 91.7018 Q111.436 84.5722 109.608 81.0306 Q107.802 77.4658 104.168 77.4658 M104.168 73.7621 Q109.978 73.7621 113.033 78.3685 Q116.112 82.9518 116.112 91.7018 Q116.112 100.429 113.033 105.035 Q109.978 109.618 104.168 109.618 Q98.3576 109.618 95.2789 105.035 Q92.2234 100.429 92.2234 91.7018 Q92.2234 82.9518 95.2789 78.3685 Q98.3576 73.7621 104.168 73.7621 Z" fill="#000000" fill-rule="nonzero" fill-opacity="1" /><path clip-path="url(#clip640)" d="M134.33 77.4658 Q130.719 77.4658 128.89 81.0306 Q127.084 84.5722 127.084 91.7018 Q127.084 98.8082 128.89 102.373 Q130.719 105.915 134.33 105.915 Q137.964 105.915 139.769 102.373 Q141.598 98.8082 141.598 91.7018 Q141.598 84.5722 139.769 81.0306 Q137.964 77.4658 134.33 77.4658 M134.33 73.7621 Q140.14 73.7621 143.195 78.3685 Q146.274 82.9518 146.274 91.7018 Q146.274 100.429 143.195 105.035 Q140.14 109.618 134.33 109.618 Q128.519 109.618 125.441 105.035 Q122.385 100.429 122.385 91.7018 Q122.385 82.9518 125.441 78.3685 Q128.519 73.7621 134.33 73.7621 Z" fill="#000000" fill-rule="nonzero" fill-opacity="1" /><polyline clip-path="url(#clip642)" style="stroke:#009af9; stroke-linecap:round; stroke-linejoin:round; stroke-width:32; stroke-opacity:1; fill:none" points="194.274,91.6671 197.235,104.604 200.197,117.367 203.158,129.602 206.12,141.605 209.081,153.678 212.043,165.82 215.004,177.125 217.966,188.081 220.927,198.857 223.888,209.628 226.85,220.565 229.811,231.775 232.773,241.932 235.734,251.734 238.696,261.283 241.657,270.684 244.619,280.041 247.58,289.457 250.541,299.037 253.503,308.883 256.464,318.143 259.426,326.747 262.387,335.089 265.349,343.227 268.31,351.22 271.272,359.124 274.233,366.998 277.194,374.9 280.156,382.886 283.117,391.015 286.079,399.344 289.04,407.807 292.002,415.151 294.963,422.27 297.925,429.196 300.886,435.962 303.847,442.599 306.809,449.137 309.77,455.609 312.732,462.046 315.693,468.479 318.655,474.941 321.616,481.462 324.578,488.073 327.539,494.808 330.5,501.696 333.462,508.769 336.423,515.019 339.385,520.882 342.346,526.598 345.308,532.184 348.269,537.655 351.23,543.028 354.192,548.319 357.153,553.545 360.115,558.722 363.076,563.865 366.038,568.992 368.999,574.119 371.961,579.262 374.922,584.437 377.883,589.661 380.845,594.949 383.806,600.319 386.768,605.786 389.729,611.367 392.691,617.079 395.652,622.192 398.614,626.882 401.575,631.471 404.536,635.968 407.498,640.381 410.459,644.718 413.421,648.987 416.382,653.197 419.344,657.356 422.305,661.471 425.267,665.552 428.228,669.606 431.189,673.642 434.151,677.667 437.112,681.69 440.074,685.72 443.035,689.764 445.997,693.83 448.958,697.927 451.92,702.063 454.881,706.247 457.842,710.485 460.804,714.788 463.765,719.162 466.727,723.616 469.688,728.158 472.65,732.072 475.611,735.755 478.573,739.374 481.534,742.932 484.495,746.434 487.457,749.885 490.418,753.287 493.38,756.644 496.341,759.962 499.303,763.244 502.264,766.495 505.226,769.717 508.187,772.915 511.148,776.094 514.11,779.258 517.071,782.409 520.033,785.554 522.994,788.695 525.956,791.836 528.917,794.982 531.879,798.137 534.84,801.305 537.801,804.489 540.763,807.695 543.724,810.925 546.686,814.185 549.647,817.477 552.609,820.807 555.57,824.178 558.532,827.594 561.493,831.06 564.454,834.579 567.416,838.135 570.377,841.055 573.339,843.932 576.3,846.768 579.262,849.565 582.223,852.326 585.185,855.052 588.146,857.745 591.107,860.409 594.069,863.043 597.03,865.651 599.992,868.235 602.953,870.797 605.915,873.338 608.876,875.861 611.838,878.368 614.799,880.861 617.76,883.342 620.722,885.813 623.683,888.276 626.645,890.733 629.606,893.187 632.568,895.638 635.529,898.09 638.491,900.544 641.452,903.003 644.413,905.468 647.375,907.942 650.336,910.426 653.298,912.923 656.259,915.434 659.221,917.962 662.182,920.509 665.143,923.077 668.105,925.667 671.066,928.283 674.028,930.925 676.989,933.596 679.951,936.299 682.912,939.035 685.874,941.806 688.835,944.414 691.796,946.684 694.758,948.927 697.719,951.143 700.681,953.333 703.642,955.499 706.604,957.642 709.565,959.762 712.527,961.861 715.488,963.94 718.449,966 721.411,968.042 724.372,970.067 727.334,972.077 730.295,974.072 733.257,976.053 736.218,978.022 739.18,979.98 742.141,981.928 745.102,983.866 748.064,985.796 751.025,987.72 753.987,989.638 756.948,991.551 759.91,993.46 762.871,995.367 765.833,997.273 768.794,999.178 771.755,1001.08 774.717,1002.99 777.678,1004.9 780.64,1006.82 783.601,1008.74 786.563,1010.66 789.524,1012.6 792.486,1014.54 795.447,1016.49 798.408,1018.45 801.37,1020.43 804.331,1022.41 807.293,1024.42 810.254,1026.43 813.216,1028.46 816.177,1030.51 819.139,1032.58 822.1,1034.67 825.061,1036.78 828.023,1038.91 830.984,1041.06 833.946,1043.23 836.907,1045.09 839.869,1046.84 842.83,1048.57 845.792,1050.28 848.753,1051.98 851.714,1053.66 854.676,1055.32 857.637,1056.96 860.599,1058.59 863.56,1060.21 866.522,1061.81 869.483,1063.4 872.445,1064.97 875.406,1066.53 878.367,1068.09 881.329,1069.63 884.29,1071.15 887.252,1072.67 890.213,1074.19 893.175,1075.69 896.136,1077.18 899.098,1078.67 902.059,1080.15 905.02,1081.63 907.982,1083.1 910.943,1084.56 913.905,1086.02 916.866,1087.48 919.828,1088.94 922.789,1090.39 925.751,1091.84 928.712,1093.29 931.673,1094.74 934.635,1096.2 937.596,1097.65 940.558,1099.1 943.519,1100.56 946.481,1102.02 949.442,1103.48 952.403,1104.95 955.365,1106.42 958.326,1107.9 961.288,1109.39 964.249,1110.88 967.211,1112.38 970.172,1113.88 973.134,1115.4 976.095,1116.92 979.056,1118.46 982.018,1120 984.979,1121.56 987.941,1123.13 990.902,1124.71 993.864,1126.31 996.825,1127.91 999.787,1129.54 1002.75,1131.18 1005.71,1132.83 1008.67,1134.5 1011.63,1136.13 1014.59,1137.46 1017.56,1138.77 1020.52,1140.07 1023.48,1141.36 1026.44,1142.64 1029.4,1143.9 1032.36,1145.15 1035.32,1146.38 1038.29,1147.61 1041.25,1148.83 1044.21,1150.03 1047.17,1151.22 1050.13,1152.41 1053.09,1153.58 1056.05,1154.74 1059.02,1155.9 1061.98,1157.05 1064.94,1158.18 1067.9,1159.32 1070.86,1160.44 1073.82,1161.56 1076.78,1162.67 1079.75,1163.77 1082.71,1164.87 1085.67,1165.96 1088.63,1167.05 1091.59,1168.14 1094.55,1169.22 1097.51,1170.29 1100.48,1171.36 1103.44,1172.43 1106.4,1173.5 1109.36,1174.57 1112.32,1175.63 1115.28,1176.69 1118.24,1177.75 1121.21,1178.81 1124.17,1179.87 1127.13,1180.93 1130.09,1181.99 1133.05,1183.06 1136.01,1184.12 1138.97,1185.18 1141.94,1186.25 1144.9,1187.32 1147.86,1188.4 1150.82,1189.47 1153.78,1190.55 1156.74,1191.64 1159.7,1192.73 1162.67,1193.82 1165.63,1194.92 1168.59,1196.02 1171.55,1197.14 1174.51,1198.25 1177.47,1199.38 1180.43,1200.51 1183.4,1201.65 1186.36,1202.8 1189.32,1203.95 1192.28,1205.12 1195.24,1206.3 1198.2,1207.48 1201.16,1208.67 1204.13,1209.88 1207.09,1211.1 1210.05,1212.32 1213.01,1213.56 1215.97,1214.81 1218.93,1216.04 1221.89,1216.99 1224.86,1217.94 1227.82,1218.88 1230.78,1219.8 1233.74,1220.72 1236.7,1221.63 1239.66,1222.52 1242.62,1223.41 1245.59,1224.29 1248.55,1225.16 1251.51,1226.02 1254.47,1226.88 1257.43,1227.72 1260.39,1228.56 1263.36,1229.39 1266.32,1230.22 1269.28,1231.04 1272.24,1231.85 1275.2,1232.65 1278.16,1233.45 1281.12,1234.24 1284.09,1235.03 1287.05,1235.81 1290.01,1236.59 1292.97,1237.36 1295.93,1238.13 1298.89,1238.89 1301.85,1239.65 1304.82,1240.41 1307.78,1241.16 1310.74,1241.91 1313.7,1242.66 1316.66,1243.4 1319.62,1244.14 1322.58,1244.88 1325.55,1245.62 1328.51,1246.35 1331.47,1247.09 1334.43,1247.82 1337.39,1248.55 1340.35,1249.28 1343.31,1250.01 1346.28,1250.74 1349.24,1251.47 1352.2,1252.2 1355.16,1252.93 1358.12,1253.66 1361.08,1254.4 1364.04,1255.13 1367.01,1255.87 1369.97,1256.6 1372.93,1257.34 1375.89,1258.09 1378.85,1258.83 1381.81,1259.58 1384.77,1260.33 1387.74,1261.08 1390.7,1261.84 1393.66,1262.6 1396.62,1263.37 1399.58,1264.14 1402.54,1264.91 1405.5,1265.69 1408.47,1266.48 1411.43,1267.27 1414.39,1268.07 1417.35,1268.87 1420.31,1269.68 1423.27,1270.49 1426.23,1271.31 1429.2,1272.14 1432.16,1272.97 1435.12,1273.82 1438.08,1274.67 1441.04,1275.53 1444,1276.39 1446.96,1277.27 1449.93,1278.15 1452.89,1279.04 1455.85,1279.86 1458.81,1280.5 1461.77,1281.14 1464.73,1281.77 1467.69,1282.39 1470.66,1283.01 1473.62,1283.62 1476.58,1284.22 1479.54,1284.82 1482.5,1285.41 1485.46,1285.99 1488.42,1286.57 1491.39,1287.14 1494.35,1287.71 1497.31,1288.27 1500.27,1288.83 1503.23,1289.38 1506.19,1289.92 1509.15,1290.46 1512.12,1291 1515.08,1291.53 1518.04,1292.06 1521,1292.58 1523.96,1293.1 1526.92,1293.62 1529.88,1294.13 1532.85,1294.64 1535.81,1295.14 1538.77,1295.64 1541.73,1296.14 1544.69,1296.64 1547.65,1297.13 1550.62,1297.62 1553.58,1298.11 1556.54,1298.6 1559.5,1299.08 1562.46,1299.56 1565.42,1300.04 1568.38,1300.52 1571.35,1301 1574.31,1301.47 1577.27,1301.95 1580.23,1302.42 1583.19,1302.89 1586.15,1303.37 1589.11,1303.84 1592.08,1304.31 1595.04,1304.78 1598,1305.25 1600.96,1305.73 1603.92,1306.2 1606.88,1306.67 1609.84,1307.14 1612.81,1307.62 1615.77,1308.09 1618.73,1308.57 1621.69,1309.05 1624.65,1309.53 1627.61,1310.01 1630.57,1310.49 1633.54,1310.97 1636.5,1311.46 1639.46,1311.95 1642.42,1312.44 1645.38,1312.93 1648.34,1313.43 1651.3,1313.93 1654.27,1314.43 1657.23,1314.94 1660.19,1315.45 1663.15,1315.96 1666.11,1316.48 1669.07,1317 1672.03,1317.52 1675,1318.05 1677.96,1318.59 1680.92,1319.13 1683.88,1319.67 1686.84,1320.22 1689.8,1320.77 1692.76,1321.33 1695.73,1321.89 1698.69,1322.46 1701.65,1323.03 1704.61,1323.61 1707.57,1324.2 1710.53,1324.79 1713.49,1325.39 1716.46,1325.86 1719.42,1326.26 1722.38,1326.67 1725.34,1327.06 1728.3,1327.46 1731.26,1327.85 1734.22,1328.23 1737.19,1328.61 1740.15,1328.99 1743.11,1329.36 1746.07,1329.73 1749.03,1330.09 1751.99,1330.45 1754.95,1330.81 1757.92,1331.16 1760.88,1331.51 1763.84,1331.86 1766.8,1332.2 1769.76,1332.54 1772.72,1332.88 1775.68,1333.21 1778.65,1333.54 1781.61,1333.87 1784.57,1334.19 1787.53,1334.51 1790.49,1334.83 1793.45,1335.15 1796.41,1335.47 1799.38,1335.78 1802.34,1336.09 1805.3,1336.4 1808.26,1336.71 1811.22,1337.01 1814.18,1337.31 1817.14,1337.61 1820.11,1337.91 1823.07,1338.21 1826.03,1338.51 1828.99,1338.81 1831.95,1339.1 1834.91,1339.39 1837.88,1339.69 1840.84,1339.98 1843.8,1340.27 1846.76,1340.56 1849.72,1340.85 1852.68,1341.14 1855.64,1341.43 1858.61,1341.72 1861.57,1342.01 1864.53,1342.29 1867.49,1342.58 1870.45,1342.87 1873.41,1343.16 1876.37,1343.45 1879.34,1343.74 1882.3,1344.03 1885.26,1344.32 1888.22,1344.61 1891.18,1344.9 1894.14,1345.2 1897.1,1345.49 1900.07,1345.79 1903.03,1346.08 1905.99,1346.38 1908.95,1346.68 1911.91,1346.98 1914.87,1347.28 1917.83,1347.59 1920.8,1347.89 1923.76,1348.2 1926.72,1348.51 1929.68,1348.82 1932.64,1349.13 1935.6,1349.45 1938.56,1349.77 1941.53,1350.09 1944.49,1350.41 1947.45,1350.74 1950.41,1351.07 1953.37,1351.4 1956.33,1351.73 1959.29,1352.07 1962.26,1352.41 1965.22,1352.76 1968.18,1353.1 1971.14,1353.45 1974.1,1353.81 1977.06,1354.17 1980.02,1354.53 1982.99,1354.89 1985.95,1355.26 1988.91,1355.64 1991.87,1356.01 1994.83,1356.26 1997.79,1356.5 2000.75,1356.75 2003.72,1356.99 2006.68,1357.22 2009.64,1357.46 2012.6,1357.69 2015.56,1357.92 2018.52,1358.14 2021.48,1358.37 2024.45,1358.59 2027.41,1358.81 2030.37,1359.02 2033.33,1359.24 2036.29,1359.45 2039.25,1359.66 2042.21,1359.87 2045.18,1360.07 2048.14,1360.28 2051.1,1360.48 2054.06,1360.68 2057.02,1360.88 2059.98,1361.08 2062.94,1361.27 2065.91,1361.46 2068.87,1361.66 2071.83,1361.85 2074.79,1362.04 2077.75,1362.22 2080.71,1362.41 2083.67,1362.59 2086.64,1362.78 2089.6,1362.96 2092.56,1363.14 2095.52,1363.32 2098.48,1363.5 2101.44,1363.68 2104.4,1363.86 2107.37,1364.03 2110.33,1364.21 2113.29,1364.38 2116.25,1364.56 2119.21,1364.73 2122.17,1364.9 2125.14,1365.08 2128.1,1365.25 2131.06,1365.42 2134.02,1365.59 2136.98,1365.76 2139.94,1365.93 2142.9,1366.1 2145.87,1366.27 2148.83,1366.44 2151.79,1366.61 2154.75,1366.78 2157.71,1366.95 2160.67,1367.12 2163.63,1367.29 2166.6,1367.47 2169.56,1367.64 2172.52,1367.81 2175.48,1367.98 2178.44,1368.15 2181.4,1368.33 2184.36,1368.5 2187.33,1368.68 2190.29,1368.85 2193.25,1369.03 2196.21,1369.2 2199.17,1369.38 2202.13,1369.56 2205.09,1369.74 2208.06,1369.92 2211.02,1370.1 2213.98,1370.28 2216.94,1370.47 2219.9,1370.65 2222.86,1370.84 2225.82,1371.03 2228.79,1371.22 2231.75,1371.41 2234.71,1371.6 2237.67,1371.8 2240.63,1371.99 2243.59,1372.19 2246.55,1372.39 2249.52,1372.59 2252.48,1372.79 2255.44,1373 2258.4,1373.21 2261.36,1373.42 2264.32,1373.63 2267.28,1373.84 2270.25,1374.06 2273.21,1374.27 2276.17,1374.49 2279.13,1374.72 2282.09,1374.94 2285.05,1375.14 2288.01,1375.28 2290.98,1375.43 2293.94,1375.57 2296.9,1375.71 2299.86,1375.85 2302.82,1375.98 2305.78,1376.12 2308.74,1376.25 2311.71,1376.38 2314.67,1376.51 2317.63,1376.64 2320.59,1376.77 2323.55,1376.9 2326.51,1377.03 2329.47,1377.15 2332.44,1377.27 2335.4,1377.39 2338.36,1377.52 2341.32,1377.64 2344.28,1377.75 2347.24,1377.87 2350.2,1377.99 2353.17,1378.1 2356.13,1378.22 2359.09,1378.33 2362.05,1378.44 2365.01,1378.55 2367.97,1378.66 2370.93,1378.77 2373.9,1378.88 2376.86,1378.99 2379.82,1379.1 2382.78,1379.21 2385.74,1379.31 2388.7,1379.42 2391.66,1379.52 2394.63,1379.63 2397.59,1379.73 2400.55,1379.83 2403.51,1379.94 2406.47,1380.04 2409.43,1380.14 2412.4,1380.24 2415.36,1380.34 2418.32,1380.44 2421.28,1380.54 2424.24,1380.64 2427.2,1380.74 2430.16,1380.84 2433.13,1380.94 2436.09,1381.04 2439.05,1381.14 2442.01,1381.24 2444.97,1381.34 2447.93,1381.43 2450.89,1381.53 2453.86,1381.63 2456.82,1381.73 2459.78,1381.83 2462.74,1381.93 2465.7,1382.03 2468.66,1382.13 2471.62,1382.23 2474.59,1382.33 2477.55,1382.43 2480.51,1382.53 2483.47,1382.63 2486.43,1382.73 2489.39,1382.83 2492.35,1382.93 2495.32,1383.03 2498.28,1383.13 2501.24,1383.24 2504.2,1383.34 2507.16,1383.45 2510.12,1383.55 2513.08,1383.66 2516.05,1383.76 2519.01,1383.87 2521.97,1383.98 2524.93,1384.08 2527.89,1384.19 2530.85,1384.3 2533.81,1384.41 2536.78,1384.53 2539.74,1384.64 2542.7,1384.75 2545.66,1384.87 2548.62,1384.98 2551.58,1385.1 2554.54,1385.21 2557.51,1385.33 2560.47,1385.45 2563.43,1385.57 2566.39,1385.7 2569.35,1385.82 2572.31,1385.94 2575.27,1386.07 2578.24,1386.2 2581.2,1386.32 2584.16,1386.45 2587.12,1386.58 2590.08,1386.72 2593.04,1386.8 2596,1386.88 2598.97,1386.97 2601.93,1387.05 2604.89,1387.13 2607.85,1387.21 2610.81,1387.29 2613.77,1387.36 2616.73,1387.44 2619.7,1387.52 2622.66,1387.59 2625.62,1387.67 2628.58,1387.74 2631.54,1387.82 2634.5,1387.89 2637.46,1387.96 2640.43,1388.03 2643.39,1388.1 2646.35,1388.17 2649.31,1388.24 2652.27,1388.31 2655.23,1388.38 2658.19,1388.45 2661.16,1388.51 2664.12,1388.58 2667.08,1388.64 2670.04,1388.71 2673,1388.77 2675.96,1388.84 2678.92,1388.9 2681.89,1388.96 2684.85,1389.03 2687.81,1389.09 2690.77,1389.15 2693.73,1389.21 2696.69,1389.27 2699.66,1389.34 2702.62,1389.4 2705.58,1389.46 2708.54,1389.52 2711.5,1389.57 2714.46,1389.63 2717.42,1389.69 2720.39,1389.75 2723.35,1389.81 2726.31,1389.87 2729.27,1389.93 2732.23,1389.98 2735.19,1390.04 2738.15,1390.1 2741.12,1390.16 2744.08,1390.21 2747.04,1390.27 2750,1390.33 2752.96,1390.38 2755.92,1390.44 2758.88,1390.5 2761.85,1390.55 2764.81,1390.61 2767.77,1390.67 2770.73,1390.73 2773.69,1390.78 2776.65,1390.84 2779.61,1390.9 2782.58,1390.95 2785.54,1391.01 2788.5,1391.07 2791.46,1391.12 2794.42,1391.18 2797.38,1391.24 2800.34,1391.3 2803.31,1391.36 2806.27,1391.41 2809.23,1391.47 2812.19,1391.53 2815.15,1391.59 2818.11,1391.65 2821.07,1391.71 2824.04,1391.77 2827,1391.83 2829.96,1391.89 2832.92,1391.95 2835.88,1392.01 2838.84,1392.07 2841.8,1392.14 2844.77,1392.2 2847.73,1392.26 2850.69,1392.33 2853.65,1392.39 2856.61,1392.45 2859.57,1392.52 2862.53,1392.58 2865.5,1392.65 2868.46,1392.72 2871.42,1392.78 2874.38,1392.85 2877.34,1392.92 2880.3,1392.99 2883.26,1393.06 2886.23,1393.13 2889.19,1393.2 2892.15,1393.27 2895.11,1393.34 2898.07,1393.42 2901.03,1393.49 2903.99,1393.57 2906.96,1393.64 2909.92,1393.72 2912.88,1393.78 2915.84,1393.83 2918.8,1393.88 2921.76,1393.92 2924.72,1393.97 2927.69,1394.02 2930.65,1394.06 2933.61,1394.11 2936.57,1394.15 2939.53,1394.2 2942.49,1394.24 2945.45,1394.28 2948.42,1394.33 2951.38,1394.37 2954.34,1394.41 2957.3,1394.45 2960.26,1394.49 2963.22,1394.54 2966.18,1394.58 2969.15,1394.62 2972.11,1394.66 2975.07,1394.7 2978.03,1394.74 2980.99,1394.78 2983.95,1394.82 2986.92,1394.85 2989.88,1394.89 2992.84,1394.93 2995.8,1394.97 2998.76,1395.01 3001.72,1395.04 3004.68,1395.08 3007.65,1395.12 3010.61,1395.16 3013.57,1395.19 3016.53,1395.23 3019.49,1395.27 3022.45,1395.31 3025.41,1395.34 3028.38,1395.38 3031.34,1395.42 3034.3,1395.45 3037.26,1395.49 3040.22,1395.52 3043.18,1395.56 3046.14,1395.6 3049.11,1395.63 3052.07,1395.67 3055.03,1395.71 3057.99,1395.74 3060.95,1395.78 3063.91,1395.82 3066.87,1395.86 3069.84,1395.89 3072.8,1395.93 3075.76,1395.97 3078.72,1396 3081.68,1396.04 3084.64,1396.08 3087.6,1396.12 3090.57,1396.16 3093.53,1396.19 3096.49,1396.23 3099.45,1396.27 3102.41,1396.31 3105.37,1396.35 3108.33,1396.39 3111.3,1396.43 3114.26,1396.47 3117.22,1396.51 3120.18,1396.55 3123.14,1396.59 3126.1,1396.63 3129.06,1396.68 3132.03,1396.72 3134.99,1396.76 3137.95,1396.8 3140.91,1396.85 3143.87,1396.89 3146.83,1396.94 3149.79,1396.98 3152.76,1397.03 "/>
<polyline clip-path="url(#clip642)" style="stroke:#e26f46; stroke-linecap:round; stroke-linejoin:round; stroke-width:32; stroke-opacity:1; fill:none" points="194.274,1404.18 197.235,1404.13 200.197,1404.04 203.158,1403.82 206.12,1403.55 209.081,1403.29 212.043,1403.05 215.004,1402.6 217.966,1402.07 220.927,1401.49 223.888,1400.9 226.85,1400.36 229.811,1399.89 232.773,1399.15 235.734,1398.32 238.696,1397.43 241.657,1396.49 244.619,1395.54 247.58,1394.61 250.541,1393.72 253.503,1392.91 256.464,1391.93 259.426,1390.78 262.387,1389.57 265.349,1388.29 268.31,1386.98 271.272,1385.65 274.233,1384.3 277.194,1382.97 280.156,1381.65 283.117,1380.38 286.079,1379.16 289.04,1377.97 292.002,1376.48 294.963,1374.93 297.925,1373.33 300.886,1371.68 303.847,1370 306.809,1368.29 309.77,1366.56 312.732,1364.82 315.693,1363.08 318.655,1361.35 321.616,1359.64 324.578,1357.95 327.539,1356.29 330.5,1354.68 333.462,1353.11 336.423,1351.32 339.385,1349.43 342.346,1347.49 345.308,1345.52 348.269,1343.52 351.23,1341.49 354.192,1339.43 357.153,1337.36 360.115,1335.28 363.076,1333.19 366.038,1331.09 368.999,1329 371.961,1326.9 374.922,1324.82 377.883,1322.75 380.845,1320.7 383.806,1318.66 386.768,1316.66 389.729,1314.69 392.691,1312.75 395.652,1310.65 398.614,1308.44 401.575,1306.2 404.536,1303.95 407.498,1301.67 410.459,1299.37 413.421,1297.06 416.382,1294.73 419.344,1292.39 422.305,1290.04 425.267,1287.68 428.228,1285.31 431.189,1282.94 434.151,1280.57 437.112,1278.19 440.074,1275.82 443.035,1273.45 445.997,1271.08 448.958,1268.73 451.92,1266.38 454.881,1264.04 457.842,1261.72 460.804,1259.41 463.765,1257.12 466.727,1254.85 469.688,1252.6 472.65,1250.2 475.611,1247.76 478.573,1245.3 481.534,1242.84 484.495,1240.36 487.457,1237.87 490.418,1235.38 493.38,1232.88 496.341,1230.37 499.303,1227.85 502.264,1225.33 505.226,1222.81 508.187,1220.28 511.148,1217.74 514.11,1215.21 517.071,1212.67 520.033,1210.13 522.994,1207.59 525.956,1205.04 528.917,1202.5 531.879,1199.96 534.84,1197.43 537.801,1194.89 540.763,1192.36 543.724,1189.83 546.686,1187.31 549.647,1184.79 552.609,1182.28 555.57,1179.78 558.532,1177.28 561.493,1174.8 564.454,1172.32 567.416,1169.84 570.377,1167.28 573.339,1164.71 576.3,1162.15 579.262,1159.58 582.223,1157.01 585.185,1154.44 588.146,1151.87 591.107,1149.3 594.069,1146.73 597.03,1144.16 599.992,1141.58 602.953,1139.01 605.915,1136.43 608.876,1133.85 611.838,1131.28 614.799,1128.7 617.76,1126.12 620.722,1123.54 623.683,1120.97 626.645,1118.39 629.606,1115.81 632.568,1113.23 635.529,1110.65 638.491,1108.07 641.452,1105.49 644.413,1102.91 647.375,1100.33 650.336,1097.75 653.298,1095.16 656.259,1092.58 659.221,1090 662.182,1087.42 665.143,1084.85 668.105,1082.27 671.066,1079.69 674.028,1077.11 676.989,1074.53 679.951,1071.95 682.912,1069.38 685.874,1066.8 688.835,1064.23 691.796,1061.67 694.758,1059.11 697.719,1056.56 700.681,1054.01 703.642,1051.47 706.604,1048.94 709.565,1046.41 712.527,1043.88 715.488,1041.36 718.449,1038.84 721.411,1036.32 724.372,1033.81 727.334,1031.3 730.295,1028.79 733.257,1026.29 736.218,1023.79 739.18,1021.29 742.141,1018.79 745.102,1016.3 748.064,1013.8 751.025,1011.31 753.987,1008.82 756.948,1006.33 759.91,1003.84 762.871,1001.35 765.833,998.858 768.794,996.368 771.755,993.877 774.717,991.386 777.678,988.895 780.64,986.402 783.601,983.907 786.563,981.411 789.524,978.914 792.486,976.414 795.447,973.912 798.408,971.408 801.37,968.901 804.331,966.391 807.293,963.878 810.254,961.361 813.216,958.841 816.177,956.316 819.139,953.788 822.1,951.256 825.061,948.718 828.023,946.176 830.984,943.629 833.946,941.077 836.907,938.613 839.869,936.182 842.83,933.76 845.792,931.347 848.753,928.944 851.714,926.549 854.676,924.163 857.637,921.784 860.599,919.413 863.56,917.05 866.522,914.693 869.483,912.344 872.445,910 875.406,907.663 878.367,905.332 881.329,903.006 884.29,900.685 887.252,898.368 890.213,896.056 893.175,893.749 896.136,891.445 899.098,889.144 902.059,886.847 905.02,884.553 907.982,882.261 910.943,879.971 913.905,877.683 916.866,875.396 919.828,873.111 922.789,870.827 925.751,868.543 928.712,866.259 931.673,863.975 934.635,861.691 937.596,859.406 940.558,857.12 943.519,854.833 946.481,852.544 949.442,850.252 952.403,847.959 955.365,845.663 958.326,843.363 961.288,841.061 964.249,838.754 967.211,836.444 970.172,834.129 973.134,831.81 976.095,829.485 979.056,827.156 982.018,824.821 984.979,822.479 987.941,820.132 990.902,817.778 993.864,815.417 996.825,813.049 999.787,810.673 1002.75,808.289 1005.71,805.897 1008.67,803.497 1011.63,801.122 1014.59,798.921 1017.56,796.73 1020.52,794.552 1023.48,792.384 1026.44,790.227 1029.4,788.08 1032.36,785.944 1035.32,783.817 1038.29,781.7 1041.25,779.592 1044.21,777.493 1047.17,775.402 1050.13,773.32 1053.09,771.245 1056.05,769.178 1059.02,767.117 1061.98,765.064 1064.94,763.017 1067.9,760.977 1070.86,758.942 1073.82,756.913 1076.78,754.889 1079.75,752.87 1082.71,750.856 1085.67,748.845 1088.63,746.839 1091.59,744.836 1094.55,742.837 1097.51,740.84 1100.48,738.846 1103.44,736.854 1106.4,734.865 1109.36,732.877 1112.32,730.89 1115.28,728.904 1118.24,726.919 1121.21,724.934 1124.17,722.949 1127.13,720.964 1130.09,718.978 1133.05,716.992 1136.01,715.003 1138.97,713.014 1141.94,711.022 1144.9,709.028 1147.86,707.032 1150.82,705.032 1153.78,703.029 1156.74,701.023 1159.7,699.013 1162.67,696.998 1165.63,694.979 1168.59,692.955 1171.55,690.926 1174.51,688.891 1177.47,686.851 1180.43,684.804 1183.4,682.751 1186.36,680.69 1189.32,678.623 1192.28,676.548 1195.24,674.466 1198.2,672.375 1201.16,670.276 1204.13,668.168 1207.09,666.05 1210.05,663.924 1213.01,661.787 1215.97,659.641 1218.93,657.519 1221.89,655.636 1224.86,653.764 1227.82,651.905 1230.78,650.056 1233.74,648.219 1236.7,646.393 1239.66,644.577 1242.62,642.771 1245.59,640.975 1248.55,639.189 1251.51,637.412 1254.47,635.644 1257.43,633.885 1260.39,632.135 1263.36,630.392 1266.32,628.658 1269.28,626.931 1272.24,625.212 1275.2,623.499 1278.16,621.794 1281.12,620.095 1284.09,618.402 1287.05,616.714 1290.01,615.033 1292.97,613.357 1295.93,611.685 1298.89,610.019 1301.85,608.357 1304.82,606.699 1307.78,605.045 1310.74,603.394 1313.7,601.747 1316.66,600.103 1319.62,598.461 1322.58,596.822 1325.55,595.185 1328.51,593.55 1331.47,591.917 1334.43,590.284 1337.39,588.653 1340.35,587.022 1343.31,585.392 1346.28,583.762 1349.24,582.131 1352.2,580.501 1355.16,578.869 1358.12,577.236 1361.08,575.602 1364.04,573.967 1367.01,572.329 1369.97,570.689 1372.93,569.047 1375.89,567.402 1378.85,565.754 1381.81,564.102 1384.77,562.447 1387.74,560.788 1390.7,559.124 1393.66,557.456 1396.62,555.784 1399.58,554.106 1402.54,552.422 1405.5,550.733 1408.47,549.039 1411.43,547.337 1414.39,545.63 1417.35,543.915 1420.31,542.193 1423.27,540.464 1426.23,538.728 1429.2,536.983 1432.16,535.23 1435.12,533.468 1438.08,531.697 1441.04,529.918 1444,528.129 1446.96,526.33 1449.93,524.521 1452.89,522.702 1455.85,520.978 1458.81,519.46 1461.77,517.952 1464.73,516.455 1467.69,514.968 1470.66,513.492 1473.62,512.025 1476.58,510.568 1479.54,509.12 1482.5,507.682 1485.46,506.253 1488.42,504.832 1491.39,503.42 1494.35,502.016 1497.31,500.62 1500.27,499.232 1503.23,497.851 1506.19,496.478 1509.15,495.112 1512.12,493.752 1515.08,492.399 1518.04,491.053 1521,489.712 1523.96,488.378 1526.92,487.049 1529.88,485.725 1532.85,484.406 1535.81,483.093 1538.77,481.784 1541.73,480.479 1544.69,479.179 1547.65,477.882 1550.62,476.589 1553.58,475.3 1556.54,474.014 1559.5,472.731 1562.46,471.45 1565.42,470.172 1568.38,468.897 1571.35,467.623 1574.31,466.351 1577.27,465.081 1580.23,463.812 1583.19,462.544 1586.15,461.277 1589.11,460.01 1592.08,458.744 1595.04,457.478 1598,456.212 1600.96,454.945 1603.92,453.678 1606.88,452.41 1609.84,451.14 1612.81,449.87 1615.77,448.598 1618.73,447.324 1621.69,446.048 1624.65,444.769 1627.61,443.489 1630.57,442.205 1633.54,440.918 1636.5,439.629 1639.46,438.335 1642.42,437.038 1645.38,435.737 1648.34,434.432 1651.3,433.122 1654.27,431.808 1657.23,430.489 1660.19,429.164 1663.15,427.834 1666.11,426.499 1669.07,425.157 1672.03,423.81 1675,422.456 1677.96,421.095 1680.92,419.728 1683.88,418.354 1686.84,416.972 1689.8,415.583 1692.76,414.185 1695.73,412.78 1698.69,411.367 1701.65,409.945 1704.61,408.514 1707.57,407.075 1710.53,405.626 1713.49,404.167 1716.46,402.914 1719.42,401.757 1722.38,400.609 1725.34,399.469 1728.3,398.338 1731.26,397.216 1734.22,396.102 1737.19,394.996 1740.15,393.898 1743.11,392.808 1746.07,391.725 1749.03,390.65 1751.99,389.582 1754.95,388.521 1757.92,387.466 1760.88,386.418 1763.84,385.377 1766.8,384.342 1769.76,383.313 1772.72,382.29 1775.68,381.272 1778.65,380.26 1781.61,379.253 1784.57,378.252 1787.53,377.255 1790.49,376.263 1793.45,375.275 1796.41,374.292 1799.38,373.314 1802.34,372.339 1805.3,371.368 1808.26,370.4 1811.22,369.436 1814.18,368.475 1817.14,367.518 1820.11,366.563 1823.07,365.611 1826.03,364.661 1828.99,363.714 1831.95,362.769 1834.91,361.825 1837.88,360.884 1840.84,359.944 1843.8,359.005 1846.76,358.068 1849.72,357.132 1852.68,356.196 1855.64,355.261 1858.61,354.327 1861.57,353.393 1864.53,352.458 1867.49,351.524 1870.45,350.59 1873.41,349.655 1876.37,348.719 1879.34,347.782 1882.3,346.845 1885.26,345.906 1888.22,344.966 1891.18,344.024 1894.14,343.08 1897.1,342.134 1900.07,341.187 1903.03,340.236 1905.99,339.284 1908.95,338.328 1911.91,337.37 1914.87,336.408 1917.83,335.444 1920.8,334.475 1923.76,333.503 1926.72,332.528 1929.68,331.548 1932.64,330.564 1935.6,329.575 1938.56,328.582 1941.53,327.585 1944.49,326.582 1947.45,325.574 1950.41,324.561 1953.37,323.542 1956.33,322.517 1959.29,321.487 1962.26,320.45 1965.22,319.407 1968.18,318.358 1971.14,317.302 1974.1,316.239 1977.06,315.17 1980.02,314.093 1982.99,313.008 1985.95,311.916 1988.91,310.816 1991.87,309.719 1994.83,308.872 1997.79,308.033 2000.75,307.2 2003.72,306.375 2006.68,305.556 2009.64,304.743 2012.6,303.937 2015.56,303.138 2018.52,302.344 2021.48,301.557 2024.45,300.775 2027.41,299.999 2030.37,299.229 2033.33,298.464 2036.29,297.705 2039.25,296.951 2042.21,296.201 2045.18,295.457 2048.14,294.718 2051.1,293.983 2054.06,293.252 2057.02,292.526 2059.98,291.805 2062.94,291.087 2065.91,290.373 2068.87,289.663 2071.83,288.957 2074.79,288.254 2077.75,287.555 2080.71,286.859 2083.67,286.166 2086.64,285.476 2089.6,284.789 2092.56,284.105 2095.52,283.423 2098.48,282.744 2101.44,282.067 2104.4,281.392 2107.37,280.719 2110.33,280.048 2113.29,279.379 2116.25,278.711 2119.21,278.045 2122.17,277.381 2125.14,276.717 2128.1,276.055 2131.06,275.393 2134.02,274.732 2136.98,274.072 2139.94,273.413 2142.9,272.754 2145.87,272.095 2148.83,271.436 2151.79,270.777 2154.75,270.118 2157.71,269.459 2160.67,268.799 2163.63,268.139 2166.6,267.478 2169.56,266.816 2172.52,266.153 2175.48,265.49 2178.44,264.824 2181.4,264.158 2184.36,263.49 2187.33,262.82 2190.29,262.148 2193.25,261.475 2196.21,260.799 2199.17,260.121 2202.13,259.441 2205.09,258.758 2208.06,258.073 2211.02,257.384 2213.98,256.693 2216.94,255.999 2219.9,255.302 2222.86,254.601 2225.82,253.897 2228.79,253.19 2231.75,252.478 2234.71,251.763 2237.67,251.044 2240.63,250.32 2243.59,249.593 2246.55,248.86 2249.52,248.124 2252.48,247.382 2255.44,246.636 2258.4,245.885 2261.36,245.129 2264.32,244.367 2267.28,243.6 2270.25,242.828 2273.21,242.05 2276.17,241.266 2279.13,240.476 2282.09,239.68 2285.05,238.964 2288.01,238.376 2290.98,237.793 2293.94,237.215 2296.9,236.642 2299.86,236.074 2302.82,235.511 2305.78,234.952 2308.74,234.398 2311.71,233.849 2314.67,233.303 2317.63,232.762 2320.59,232.226 2323.55,231.693 2326.51,231.164 2329.47,230.64 2332.44,230.119 2335.4,229.602 2338.36,229.088 2341.32,228.578 2344.28,228.071 2347.24,227.568 2350.2,227.068 2353.17,226.571 2356.13,226.077 2359.09,225.586 2362.05,225.098 2365.01,224.613 2367.97,224.13 2370.93,223.65 2373.9,223.172 2376.86,222.697 2379.82,222.224 2382.78,221.754 2385.74,221.285 2388.7,220.818 2391.66,220.354 2394.63,219.891 2397.59,219.43 2400.55,218.97 2403.51,218.512 2406.47,218.055 2409.43,217.6 2412.4,217.146 2415.36,216.693 2418.32,216.241 2421.28,215.791 2424.24,215.341 2427.2,214.891 2430.16,214.443 2433.13,213.995 2436.09,213.547 2439.05,213.1 2442.01,212.653 2444.97,212.207 2447.93,211.76 2450.89,211.314 2453.86,210.867 2456.82,210.42 2459.78,209.973 2462.74,209.526 2465.7,209.078 2468.66,208.629 2471.62,208.18 2474.59,207.73 2477.55,207.28 2480.51,206.828 2483.47,206.375 2486.43,205.921 2489.39,205.466 2492.35,205.01 2495.32,204.552 2498.28,204.093 2501.24,203.632 2504.2,203.169 2507.16,202.705 2510.12,202.239 2513.08,201.77 2516.05,201.3 2519.01,200.827 2521.97,200.352 2524.93,199.875 2527.89,199.395 2530.85,198.913 2533.81,198.428 2536.78,197.941 2539.74,197.45 2542.7,196.957 2545.66,196.46 2548.62,195.961 2551.58,195.458 2554.54,194.952 2557.51,194.442 2560.47,193.929 2563.43,193.412 2566.39,192.892 2569.35,192.368 2572.31,191.84 2575.27,191.308 2578.24,190.772 2581.2,190.231 2584.16,189.687 2587.12,189.138 2590.08,188.587 2593.04,188.191 2596,187.799 2598.97,187.41 2601.93,187.024 2604.89,186.642 2607.85,186.264 2610.81,185.888 2613.77,185.516 2616.73,185.147 2619.7,184.781 2622.66,184.418 2625.62,184.058 2628.58,183.701 2631.54,183.347 2634.5,182.995 2637.46,182.646 2640.43,182.3 2643.39,181.956 2646.35,181.615 2649.31,181.276 2652.27,180.94 2655.23,180.606 2658.19,180.274 2661.16,179.945 2664.12,179.617 2667.08,179.292 2670.04,178.968 2673,178.647 2675.96,178.327 2678.92,178.01 2681.89,177.694 2684.85,177.38 2687.81,177.067 2690.77,176.756 2693.73,176.447 2696.69,176.139 2699.66,175.832 2702.62,175.527 2705.58,175.222 2708.54,174.92 2711.5,174.618 2714.46,174.317 2717.42,174.018 2720.39,173.719 2723.35,173.421 2726.31,173.124 2729.27,172.828 2732.23,172.533 2735.19,172.238 2738.15,171.944 2741.12,171.65 2744.08,171.357 2747.04,171.064 2750,170.771 2752.96,170.479 2755.92,170.187 2758.88,169.895 2761.85,169.603 2764.81,169.311 2767.77,169.019 2770.73,168.727 2773.69,168.435 2776.65,168.143 2779.61,167.85 2782.58,167.557 2785.54,167.264 2788.5,166.97 2791.46,166.675 2794.42,166.38 2797.38,166.085 2800.34,165.788 2803.31,165.491 2806.27,165.193 2809.23,164.894 2812.19,164.594 2815.15,164.293 2818.11,163.991 2821.07,163.688 2824.04,163.383 2827,163.078 2829.96,162.771 2832.92,162.462 2835.88,162.152 2838.84,161.841 2841.8,161.527 2844.77,161.213 2847.73,160.896 2850.69,160.578 2853.65,160.258 2856.61,159.936 2859.57,159.612 2862.53,159.286 2865.5,158.958 2868.46,158.627 2871.42,158.295 2874.38,157.96 2877.34,157.623 2880.3,157.283 2883.26,156.942 2886.23,156.597 2889.19,156.25 2892.15,155.9 2895.11,155.548 2898.07,155.192 2901.03,154.834 2903.99,154.473 2906.96,154.109 2909.92,153.742 2912.88,153.42 2915.84,153.165 2918.8,152.912 2921.76,152.662 2924.72,152.414 2927.69,152.168 2930.65,151.924 2933.61,151.682 2936.57,151.443 2939.53,151.205 2942.49,150.97 2945.45,150.736 2948.42,150.504 2951.38,150.274 2954.34,150.046 2957.3,149.819 2960.26,149.594 2963.22,149.371 2966.18,149.149 2969.15,148.928 2972.11,148.709 2975.07,148.491 2978.03,148.275 2980.99,148.059 2983.95,147.845 2986.92,147.632 2989.88,147.42 2992.84,147.209 2995.8,146.999 2998.76,146.79 3001.72,146.581 3004.68,146.374 3007.65,146.167 3010.61,145.96 3013.57,145.754 3016.53,145.549 3019.49,145.344 3022.45,145.14 3025.41,144.936 3028.38,144.732 3031.34,144.529 3034.3,144.326 3037.26,144.123 3040.22,143.919 3043.18,143.716 3046.14,143.513 3049.11,143.31 3052.07,143.107 3055.03,142.903 3057.99,142.699 3060.95,142.495 3063.91,142.291 3066.87,142.085 3069.84,141.88 3072.8,141.674 3075.76,141.467 3078.72,141.26 3081.68,141.052 3084.64,140.843 3087.6,140.633 3090.57,140.423 3093.53,140.211 3096.49,139.998 3099.45,139.785 3102.41,139.57 3105.37,139.354 3108.33,139.137 3111.3,138.918 3114.26,138.698 3117.22,138.477 3120.18,138.254 3123.14,138.03 3126.1,137.804 3129.06,137.577 3132.03,137.347 3134.99,137.116 3137.95,136.884 3140.91,136.649 3143.87,136.412 3146.83,136.174 3149.79,135.933 3152.76,135.691 "/>
<circle clip-path="url(#clip642)" cx="490.122" cy="796.401" r="21.6" fill="#0000ff" fill-rule="evenodd" fill-opacity="1" stroke="#000000" stroke-opacity="1" stroke-width="3.2"/>
<circle clip-path="url(#clip642)" cx="785.97" cy="1021.06" r="21.6" fill="#0000ff" fill-rule="evenodd" fill-opacity="1" stroke="#000000" stroke-opacity="1" stroke-width="3.2"/>
<circle clip-path="url(#clip642)" cx="1081.82" cy="1150.97" r="21.6" fill="#0000ff" fill-rule="evenodd" fill-opacity="1" stroke="#000000" stroke-opacity="1" stroke-width="3.2"/>
<circle clip-path="url(#clip642)" cx="1377.67" cy="1250.7" r="21.6" fill="#0000ff" fill-rule="evenodd" fill-opacity="1" stroke="#000000" stroke-opacity="1" stroke-width="3.2"/>
<circle clip-path="url(#clip642)" cx="1673.51" cy="1324.41" r="21.6" fill="#0000ff" fill-rule="evenodd" fill-opacity="1" stroke="#000000" stroke-opacity="1" stroke-width="3.2"/>
<circle clip-path="url(#clip642)" cx="1969.36" cy="1362.03" r="21.6" fill="#0000ff" fill-rule="evenodd" fill-opacity="1" stroke="#000000" stroke-opacity="1" stroke-width="3.2"/>
<circle clip-path="url(#clip642)" cx="2265.21" cy="1368.44" r="21.6" fill="#0000ff" fill-rule="evenodd" fill-opacity="1" stroke="#000000" stroke-opacity="1" stroke-width="3.2"/>
<circle clip-path="url(#clip642)" cx="2561.06" cy="1388.03" r="21.6" fill="#0000ff" fill-rule="evenodd" fill-opacity="1" stroke="#000000" stroke-opacity="1" stroke-width="3.2"/>
<circle clip-path="url(#clip642)" cx="2856.91" cy="1390.2" r="21.6" fill="#0000ff" fill-rule="evenodd" fill-opacity="1" stroke="#000000" stroke-opacity="1" stroke-width="3.2"/>
<circle clip-path="url(#clip642)" cx="3152.76" cy="1397.98" r="21.6" fill="#0000ff" fill-rule="evenodd" fill-opacity="1" stroke="#000000" stroke-opacity="1" stroke-width="3.2"/>
<circle clip-path="url(#clip642)" cx="490.122" cy="1259.03" r="21.6" fill="#ff0000" fill-rule="evenodd" fill-opacity="1" stroke="#000000" stroke-opacity="1" stroke-width="3.2"/>
<circle clip-path="url(#clip642)" cx="785.97" cy="968.957" r="21.6" fill="#ff0000" fill-rule="evenodd" fill-opacity="1" stroke="#000000" stroke-opacity="1" stroke-width="3.2"/>
<circle clip-path="url(#clip642)" cx="1081.82" cy="688.14" r="21.6" fill="#ff0000" fill-rule="evenodd" fill-opacity="1" stroke="#000000" stroke-opacity="1" stroke-width="3.2"/>
<circle clip-path="url(#clip642)" cx="1377.67" cy="446.829" r="21.6" fill="#ff0000" fill-rule="evenodd" fill-opacity="1" stroke="#000000" stroke-opacity="1" stroke-width="3.2"/>
<circle clip-path="url(#clip642)" cx="1673.51" cy="583.313" r="21.6" fill="#ff0000" fill-rule="evenodd" fill-opacity="1" stroke="#000000" stroke-opacity="1" stroke-width="3.2"/>
<circle clip-path="url(#clip642)" cx="1969.36" cy="437.599" r="21.6" fill="#ff0000" fill-rule="evenodd" fill-opacity="1" stroke="#000000" stroke-opacity="1" stroke-width="3.2"/>
<circle clip-path="url(#clip642)" cx="2265.21" cy="86.7664" r="21.6" fill="#ff0000" fill-rule="evenodd" fill-opacity="1" stroke="#000000" stroke-opacity="1" stroke-width="3.2"/>
<circle clip-path="url(#clip642)" cx="2561.06" cy="354.268" r="21.6" fill="#ff0000" fill-rule="evenodd" fill-opacity="1" stroke="#000000" stroke-opacity="1" stroke-width="3.2"/>
<circle clip-path="url(#clip642)" cx="2856.91" cy="109.004" r="21.6" fill="#ff0000" fill-rule="evenodd" fill-opacity="1" stroke="#000000" stroke-opacity="1" stroke-width="3.2"/>
<circle clip-path="url(#clip642)" cx="3152.76" cy="300.078" r="21.6" fill="#ff0000" fill-rule="evenodd" fill-opacity="1" stroke="#000000" stroke-opacity="1" stroke-width="3.2"/>
<path clip-path="url(#clip640)" d="M292.89 352.993 L858.181 352.993 L858.181 93.7926 L292.89 93.7926  Z" fill="#ffffff" fill-rule="evenodd" fill-opacity="1"/>
<polyline clip-path="url(#clip640)" style="stroke:#000000; stroke-linecap:round; stroke-linejoin:round; stroke-width:4; stroke-opacity:1; fill:none" points="292.89,352.993 858.181,352.993 858.181,93.7926 292.89,93.7926 292.89,352.993 "/>
<polyline clip-path="url(#clip640)" style="stroke:#009af9; stroke-linecap:round; stroke-linejoin:round; stroke-width:20; stroke-opacity:1; fill:none" points="325.762,145.633 522.994,145.633 "/>
<path clip-path="url(#clip640)" d="M555.866 128.353 L585.102 128.353 L585.102 132.288 L572.834 132.288 L572.834 162.913 L568.135 162.913 L568.135 132.288 L555.866 132.288 L555.866 128.353 Z" fill="#000000" fill-rule="nonzero" fill-opacity="1" /><path clip-path="url(#clip640)" d="M597.486 140.968 Q596.769 140.552 595.912 140.366 Q595.079 140.158 594.06 140.158 Q590.449 140.158 588.505 142.519 Q586.584 144.857 586.584 149.255 L586.584 162.913 L582.301 162.913 L582.301 136.987 L586.584 136.987 L586.584 141.015 Q587.926 138.653 590.079 137.519 Q592.232 136.362 595.31 136.362 Q595.75 136.362 596.283 136.431 Q596.815 136.478 597.463 136.593 L597.486 140.968 Z" fill="#000000" fill-rule="nonzero" fill-opacity="1" /><path clip-path="url(#clip640)" d="M601.514 152.681 L601.514 136.987 L605.773 136.987 L605.773 152.519 Q605.773 156.2 607.209 158.052 Q608.644 159.88 611.514 159.88 Q614.963 159.88 616.954 157.681 Q618.968 155.482 618.968 151.686 L618.968 136.987 L623.227 136.987 L623.227 162.913 L618.968 162.913 L618.968 158.931 Q617.417 161.292 615.357 162.45 Q613.32 163.584 610.611 163.584 Q606.144 163.584 603.829 160.806 Q601.514 158.028 601.514 152.681 M612.232 136.362 L612.232 136.362 Z" fill="#000000" fill-rule="nonzero" fill-opacity="1" /><path clip-path="url(#clip640)" d="M654.176 148.885 L654.176 150.968 L634.593 150.968 Q634.87 155.366 637.232 157.681 Q639.616 159.973 643.852 159.973 Q646.306 159.973 648.597 159.371 Q650.912 158.769 653.181 157.565 L653.181 161.593 Q650.889 162.565 648.481 163.075 Q646.074 163.584 643.597 163.584 Q637.394 163.584 633.759 159.973 Q630.148 156.362 630.148 150.204 Q630.148 143.839 633.574 140.112 Q637.023 136.362 642.857 136.362 Q648.088 136.362 651.12 139.741 Q654.176 143.098 654.176 148.885 M649.917 147.635 Q649.87 144.14 647.949 142.056 Q646.051 139.973 642.903 139.973 Q639.338 139.973 637.185 141.987 Q635.056 144.001 634.732 147.658 L649.917 147.635 Z" fill="#000000" fill-rule="nonzero" fill-opacity="1" /><path clip-path="url(#clip640)" d="M697.139 129.487 L697.139 134.047 Q694.477 132.774 692.116 132.149 Q689.754 131.524 687.555 131.524 Q683.736 131.524 681.653 133.005 Q679.592 134.487 679.592 137.218 Q679.592 139.51 680.958 140.691 Q682.347 141.848 686.19 142.566 L689.014 143.144 Q694.245 144.14 696.722 146.663 Q699.222 149.163 699.222 153.376 Q699.222 158.399 695.842 160.991 Q692.486 163.584 685.981 163.584 Q683.528 163.584 680.75 163.028 Q677.995 162.473 675.032 161.385 L675.032 156.57 Q677.879 158.167 680.611 158.977 Q683.342 159.788 685.981 159.788 Q689.986 159.788 692.162 158.214 Q694.338 156.64 694.338 153.723 Q694.338 151.177 692.764 149.741 Q691.213 148.306 687.648 147.589 L684.801 147.033 Q679.569 145.991 677.231 143.769 Q674.893 141.547 674.893 137.589 Q674.893 133.005 678.111 130.366 Q681.352 127.728 687.023 127.728 Q689.453 127.728 691.977 128.167 Q694.5 128.607 697.139 129.487 Z" fill="#000000" fill-rule="nonzero" fill-opacity="1" /><polyline clip-path="url(#clip640)" style="stroke:#e26f46; stroke-linecap:round; stroke-linejoin:round; stroke-width:20; stroke-opacity:1; fill:none" points="325.762,197.473 522.994,197.473 "/>
<path clip-path="url(#clip640)" d="M555.866 180.193 L585.102 180.193 L585.102 184.128 L572.834 184.128 L572.834 214.753 L568.135 214.753 L568.135 184.128 L555.866 184.128 L555.866 180.193 Z" fill="#000000" fill-rule="nonzero" fill-opacity="1" /><path clip-path="url(#clip640)" d="M597.486 192.808 Q596.769 192.392 595.912 192.206 Q595.079 191.998 594.06 191.998 Q590.449 191.998 588.505 194.359 Q586.584 196.697 586.584 201.095 L586.584 214.753 L582.301 214.753 L582.301 188.827 L586.584 188.827 L586.584 192.855 Q587.926 190.493 590.079 189.359 Q592.232 188.202 595.31 188.202 Q595.75 188.202 596.283 188.271 Q596.815 188.318 597.463 188.433 L597.486 192.808 Z" fill="#000000" fill-rule="nonzero" fill-opacity="1" /><path clip-path="url(#clip640)" d="M601.514 204.521 L601.514 188.827 L605.773 188.827 L605.773 204.359 Q605.773 208.04 607.209 209.892 Q608.644 211.72 611.514 211.72 Q614.963 211.72 616.954 209.521 Q618.968 207.322 618.968 203.526 L618.968 188.827 L623.227 188.827 L623.227 214.753 L618.968 214.753 L618.968 210.771 Q617.417 213.132 615.357 214.29 Q613.32 215.424 610.611 215.424 Q606.144 215.424 603.829 212.646 Q601.514 209.868 601.514 204.521 M612.232 188.202 L612.232 188.202 Z" fill="#000000" fill-rule="nonzero" fill-opacity="1" /><path clip-path="url(#clip640)" d="M654.176 200.725 L654.176 202.808 L634.593 202.808 Q634.87 207.206 637.232 209.521 Q639.616 211.813 643.852 211.813 Q646.306 211.813 648.597 211.211 Q650.912 210.609 653.181 209.405 L653.181 213.433 Q650.889 214.405 648.481 214.915 Q646.074 215.424 643.597 215.424 Q637.394 215.424 633.759 211.813 Q630.148 208.202 630.148 202.044 Q630.148 195.679 633.574 191.952 Q637.023 188.202 642.857 188.202 Q648.088 188.202 651.12 191.581 Q654.176 194.938 654.176 200.725 M649.917 199.475 Q649.87 195.98 647.949 193.896 Q646.051 191.813 642.903 191.813 Q639.338 191.813 637.185 193.827 Q635.056 195.841 634.732 199.498 L649.917 199.475 Z" fill="#000000" fill-rule="nonzero" fill-opacity="1" /><path clip-path="url(#clip640)" d="M681.097 184.035 L681.097 197.021 L686.977 197.021 Q690.241 197.021 692.023 195.331 Q693.805 193.642 693.805 190.517 Q693.805 187.415 692.023 185.725 Q690.241 184.035 686.977 184.035 L681.097 184.035 M676.421 180.193 L686.977 180.193 Q692.787 180.193 695.75 182.831 Q698.736 185.447 698.736 190.517 Q698.736 195.632 695.75 198.248 Q692.787 200.864 686.977 200.864 L681.097 200.864 L681.097 214.753 L676.421 214.753 L676.421 180.193 Z" fill="#000000" fill-rule="nonzero" fill-opacity="1" /><circle clip-path="url(#clip640)" cx="424.378" cy="249.313" r="21.2677" fill="#0000ff" fill-rule="evenodd" fill-opacity="1" stroke="#000000" stroke-opacity="1" stroke-width="3.15077"/>
<path clip-path="url(#clip640)" d="M555.866 232.033 L562.834 232.033 L571.653 255.551 L580.519 232.033 L587.486 232.033 L587.486 266.593 L582.926 266.593 L582.926 236.246 L574.014 259.949 L569.315 259.949 L560.403 236.246 L560.403 266.593 L555.866 266.593 L555.866 232.033 Z" fill="#000000" fill-rule="nonzero" fill-opacity="1" /><path clip-path="url(#clip640)" d="M618.759 252.565 L618.759 254.648 L599.176 254.648 Q599.454 259.046 601.815 261.361 Q604.199 263.653 608.435 263.653 Q610.889 263.653 613.181 263.051 Q615.496 262.449 617.764 261.245 L617.764 265.273 Q615.472 266.245 613.065 266.755 Q610.658 267.264 608.181 267.264 Q601.977 267.264 598.343 263.653 Q594.732 260.042 594.732 253.884 Q594.732 247.519 598.158 243.792 Q601.607 240.042 607.44 240.042 Q612.671 240.042 615.704 243.421 Q618.759 246.778 618.759 252.565 M614.5 251.315 Q614.454 247.82 612.533 245.736 Q610.634 243.653 607.486 243.653 Q603.922 243.653 601.769 245.667 Q599.639 247.681 599.315 251.338 L614.5 251.315 Z" fill="#000000" fill-rule="nonzero" fill-opacity="1" /><path clip-path="url(#clip640)" d="M637.532 253.56 Q632.37 253.56 630.38 254.741 Q628.389 255.921 628.389 258.769 Q628.389 261.037 629.87 262.38 Q631.375 263.699 633.945 263.699 Q637.486 263.699 639.616 261.199 Q641.769 258.676 641.769 254.509 L641.769 253.56 L637.532 253.56 M646.028 251.801 L646.028 266.593 L641.769 266.593 L641.769 262.657 Q640.31 265.019 638.134 266.153 Q635.958 267.264 632.81 267.264 Q628.829 267.264 626.468 265.042 Q624.13 262.796 624.13 259.046 Q624.13 254.671 627.046 252.449 Q629.986 250.227 635.796 250.227 L641.769 250.227 L641.769 249.81 Q641.769 246.871 639.824 245.273 Q637.903 243.653 634.407 243.653 Q632.185 243.653 630.079 244.185 Q627.972 244.718 626.028 245.783 L626.028 241.847 Q628.366 240.945 630.565 240.505 Q632.764 240.042 634.847 240.042 Q640.472 240.042 643.25 242.958 Q646.028 245.875 646.028 251.801 Z" fill="#000000" fill-rule="nonzero" fill-opacity="1" /><path clip-path="url(#clip640)" d="M671.329 241.431 L671.329 245.458 Q669.523 244.533 667.579 244.07 Q665.634 243.607 663.551 243.607 Q660.38 243.607 658.782 244.579 Q657.208 245.551 657.208 247.495 Q657.208 248.977 658.343 249.833 Q659.477 250.667 662.903 251.431 L664.361 251.755 Q668.898 252.727 670.796 254.509 Q672.717 256.269 672.717 259.44 Q672.717 263.051 669.847 265.157 Q667 267.264 662 267.264 Q659.917 267.264 657.648 266.847 Q655.403 266.454 652.903 265.644 L652.903 261.245 Q655.264 262.472 657.556 263.097 Q659.847 263.699 662.093 263.699 Q665.102 263.699 666.722 262.681 Q668.342 261.639 668.342 259.764 Q668.342 258.028 667.162 257.102 Q666.005 256.176 662.046 255.32 L660.565 254.972 Q656.606 254.139 654.847 252.426 Q653.088 250.69 653.088 247.681 Q653.088 244.023 655.681 242.033 Q658.273 240.042 663.042 240.042 Q665.403 240.042 667.486 240.389 Q669.569 240.736 671.329 241.431 Z" fill="#000000" fill-rule="nonzero" fill-opacity="1" /><path clip-path="url(#clip640)" d="M679.06 256.361 L679.06 240.667 L683.319 240.667 L683.319 256.199 Q683.319 259.88 684.754 261.732 Q686.19 263.56 689.06 263.56 Q692.509 263.56 694.5 261.361 Q696.514 259.162 696.514 255.366 L696.514 240.667 L700.773 240.667 L700.773 266.593 L696.514 266.593 L696.514 262.611 Q694.963 264.972 692.903 266.13 Q690.866 267.264 688.157 267.264 Q683.69 267.264 681.375 264.486 Q679.06 261.708 679.06 256.361 M689.778 240.042 L689.778 240.042 Z" fill="#000000" fill-rule="nonzero" fill-opacity="1" /><path clip-path="url(#clip640)" d="M724.569 244.648 Q723.851 244.232 722.995 244.046 Q722.162 243.838 721.143 243.838 Q717.532 243.838 715.588 246.199 Q713.666 248.537 713.666 252.935 L713.666 266.593 L709.384 266.593 L709.384 240.667 L713.666 240.667 L713.666 244.695 Q715.009 242.333 717.162 241.199 Q719.314 240.042 722.393 240.042 Q722.833 240.042 723.365 240.111 Q723.898 240.158 724.546 240.273 L724.569 244.648 Z" fill="#000000" fill-rule="nonzero" fill-opacity="1" /><path clip-path="url(#clip640)" d="M750.171 252.565 L750.171 254.648 L730.588 254.648 Q730.865 259.046 733.226 261.361 Q735.611 263.653 739.847 263.653 Q742.3 263.653 744.592 263.051 Q746.907 262.449 749.175 261.245 L749.175 265.273 Q746.884 266.245 744.476 266.755 Q742.069 267.264 739.592 267.264 Q733.388 267.264 729.754 263.653 Q726.143 260.042 726.143 253.884 Q726.143 247.519 729.569 243.792 Q733.018 240.042 738.851 240.042 Q744.083 240.042 747.115 243.421 Q750.171 246.778 750.171 252.565 M745.912 251.315 Q745.865 247.82 743.944 245.736 Q742.046 243.653 738.898 243.653 Q735.333 243.653 733.18 245.667 Q731.05 247.681 730.726 251.338 L745.912 251.315 Z" fill="#000000" fill-rule="nonzero" fill-opacity="1" /><path clip-path="url(#clip640)" d="M774.222 244.602 L774.222 230.574 L778.481 230.574 L778.481 266.593 L774.222 266.593 L774.222 262.704 Q772.879 265.019 770.819 266.153 Q768.782 267.264 765.911 267.264 Q761.212 267.264 758.249 263.514 Q755.31 259.764 755.31 253.653 Q755.31 247.542 758.249 243.792 Q761.212 240.042 765.911 240.042 Q768.782 240.042 770.819 241.176 Q772.879 242.287 774.222 244.602 M759.708 253.653 Q759.708 258.352 761.629 261.037 Q763.573 263.699 766.953 263.699 Q770.333 263.699 772.277 261.037 Q774.222 258.352 774.222 253.653 Q774.222 248.954 772.277 246.292 Q770.333 243.607 766.953 243.607 Q763.573 243.607 761.629 246.292 Q759.708 248.954 759.708 253.653 Z" fill="#000000" fill-rule="nonzero" fill-opacity="1" /><path clip-path="url(#clip640)" d="M823.226 233.167 L823.226 237.727 Q820.564 236.454 818.203 235.829 Q815.842 235.204 813.643 235.204 Q809.823 235.204 807.74 236.685 Q805.68 238.167 805.68 240.898 Q805.68 243.19 807.045 244.371 Q808.434 245.528 812.277 246.246 L815.101 246.824 Q820.332 247.82 822.809 250.343 Q825.309 252.843 825.309 257.056 Q825.309 262.079 821.93 264.671 Q818.573 267.264 812.069 267.264 Q809.615 267.264 806.837 266.708 Q804.082 266.153 801.12 265.065 L801.12 260.25 Q803.967 261.847 806.698 262.657 Q809.43 263.468 812.069 263.468 Q816.073 263.468 818.249 261.894 Q820.425 260.32 820.425 257.403 Q820.425 254.857 818.851 253.421 Q817.3 251.986 813.735 251.269 L810.888 250.713 Q805.657 249.671 803.319 247.449 Q800.981 245.227 800.981 241.269 Q800.981 236.685 804.198 234.046 Q807.439 231.408 813.11 231.408 Q815.541 231.408 818.064 231.847 Q820.587 232.287 823.226 233.167 Z" fill="#000000" fill-rule="nonzero" fill-opacity="1" /><circle clip-path="url(#clip640)" cx="424.378" cy="301.153" r="21.2677" fill="#ff0000" fill-rule="evenodd" fill-opacity="1" stroke="#000000" stroke-opacity="1" stroke-width="3.15077"/>
<path clip-path="url(#clip640)" d="M555.866 283.873 L562.834 283.873 L571.653 307.391 L580.519 283.873 L587.486 283.873 L587.486 318.433 L582.926 318.433 L582.926 288.086 L574.014 311.789 L569.315 311.789 L560.403 288.086 L560.403 318.433 L555.866 318.433 L555.866 283.873 Z" fill="#000000" fill-rule="nonzero" fill-opacity="1" /><path clip-path="url(#clip640)" d="M618.759 304.405 L618.759 306.488 L599.176 306.488 Q599.454 310.886 601.815 313.201 Q604.199 315.493 608.435 315.493 Q610.889 315.493 613.181 314.891 Q615.496 314.289 617.764 313.085 L617.764 317.113 Q615.472 318.085 613.065 318.595 Q610.658 319.104 608.181 319.104 Q601.977 319.104 598.343 315.493 Q594.732 311.882 594.732 305.724 Q594.732 299.359 598.158 295.632 Q601.607 291.882 607.44 291.882 Q612.671 291.882 615.704 295.261 Q618.759 298.618 618.759 304.405 M614.5 303.155 Q614.454 299.66 612.533 297.576 Q610.634 295.493 607.486 295.493 Q603.922 295.493 601.769 297.507 Q599.639 299.521 599.315 303.178 L614.5 303.155 Z" fill="#000000" fill-rule="nonzero" fill-opacity="1" /><path clip-path="url(#clip640)" d="M637.532 305.4 Q632.37 305.4 630.38 306.581 Q628.389 307.761 628.389 310.609 Q628.389 312.877 629.87 314.22 Q631.375 315.539 633.945 315.539 Q637.486 315.539 639.616 313.039 Q641.769 310.516 641.769 306.349 L641.769 305.4 L637.532 305.4 M646.028 303.641 L646.028 318.433 L641.769 318.433 L641.769 314.497 Q640.31 316.859 638.134 317.993 Q635.958 319.104 632.81 319.104 Q628.829 319.104 626.468 316.882 Q624.13 314.636 624.13 310.886 Q624.13 306.511 627.046 304.289 Q629.986 302.067 635.796 302.067 L641.769 302.067 L641.769 301.65 Q641.769 298.711 639.824 297.113 Q637.903 295.493 634.407 295.493 Q632.185 295.493 630.079 296.025 Q627.972 296.558 626.028 297.623 L626.028 293.687 Q628.366 292.785 630.565 292.345 Q632.764 291.882 634.847 291.882 Q640.472 291.882 643.25 294.798 Q646.028 297.715 646.028 303.641 Z" fill="#000000" fill-rule="nonzero" fill-opacity="1" /><path clip-path="url(#clip640)" d="M671.329 293.271 L671.329 297.298 Q669.523 296.373 667.579 295.91 Q665.634 295.447 663.551 295.447 Q660.38 295.447 658.782 296.419 Q657.208 297.391 657.208 299.335 Q657.208 300.817 658.343 301.673 Q659.477 302.507 662.903 303.271 L664.361 303.595 Q668.898 304.567 670.796 306.349 Q672.717 308.109 672.717 311.28 Q672.717 314.891 669.847 316.997 Q667 319.104 662 319.104 Q659.917 319.104 657.648 318.687 Q655.403 318.294 652.903 317.484 L652.903 313.085 Q655.264 314.312 657.556 314.937 Q659.847 315.539 662.093 315.539 Q665.102 315.539 666.722 314.521 Q668.342 313.479 668.342 311.604 Q668.342 309.868 667.162 308.942 Q666.005 308.016 662.046 307.16 L660.565 306.812 Q656.606 305.979 654.847 304.266 Q653.088 302.53 653.088 299.521 Q653.088 295.863 655.681 293.873 Q658.273 291.882 663.042 291.882 Q665.403 291.882 667.486 292.229 Q669.569 292.576 671.329 293.271 Z" fill="#000000" fill-rule="nonzero" fill-opacity="1" /><path clip-path="url(#clip640)" d="M679.06 308.201 L679.06 292.507 L683.319 292.507 L683.319 308.039 Q683.319 311.72 684.754 313.572 Q686.19 315.4 689.06 315.4 Q692.509 315.4 694.5 313.201 Q696.514 311.002 696.514 307.206 L696.514 292.507 L700.773 292.507 L700.773 318.433 L696.514 318.433 L696.514 314.451 Q694.963 316.812 692.903 317.97 Q690.866 319.104 688.157 319.104 Q683.69 319.104 681.375 316.326 Q679.06 313.548 679.06 308.201 M689.778 291.882 L689.778 291.882 Z" fill="#000000" fill-rule="nonzero" fill-opacity="1" /><path clip-path="url(#clip640)" d="M724.569 296.488 Q723.851 296.072 722.995 295.886 Q722.162 295.678 721.143 295.678 Q717.532 295.678 715.588 298.039 Q713.666 300.377 713.666 304.775 L713.666 318.433 L709.384 318.433 L709.384 292.507 L713.666 292.507 L713.666 296.535 Q715.009 294.173 717.162 293.039 Q719.314 291.882 722.393 291.882 Q722.833 291.882 723.365 291.951 Q723.898 291.998 724.546 292.113 L724.569 296.488 Z" fill="#000000" fill-rule="nonzero" fill-opacity="1" /><path clip-path="url(#clip640)" d="M750.171 304.405 L750.171 306.488 L730.588 306.488 Q730.865 310.886 733.226 313.201 Q735.611 315.493 739.847 315.493 Q742.3 315.493 744.592 314.891 Q746.907 314.289 749.175 313.085 L749.175 317.113 Q746.884 318.085 744.476 318.595 Q742.069 319.104 739.592 319.104 Q733.388 319.104 729.754 315.493 Q726.143 311.882 726.143 305.724 Q726.143 299.359 729.569 295.632 Q733.018 291.882 738.851 291.882 Q744.083 291.882 747.115 295.261 Q750.171 298.618 750.171 304.405 M745.912 303.155 Q745.865 299.66 743.944 297.576 Q742.046 295.493 738.898 295.493 Q735.333 295.493 733.18 297.507 Q731.05 299.521 730.726 303.178 L745.912 303.155 Z" fill="#000000" fill-rule="nonzero" fill-opacity="1" /><path clip-path="url(#clip640)" d="M774.222 296.442 L774.222 282.414 L778.481 282.414 L778.481 318.433 L774.222 318.433 L774.222 314.544 Q772.879 316.859 770.819 317.993 Q768.782 319.104 765.911 319.104 Q761.212 319.104 758.249 315.354 Q755.31 311.604 755.31 305.493 Q755.31 299.382 758.249 295.632 Q761.212 291.882 765.911 291.882 Q768.782 291.882 770.819 293.016 Q772.879 294.127 774.222 296.442 M759.708 305.493 Q759.708 310.192 761.629 312.877 Q763.573 315.539 766.953 315.539 Q770.333 315.539 772.277 312.877 Q774.222 310.192 774.222 305.493 Q774.222 300.794 772.277 298.132 Q770.333 295.447 766.953 295.447 Q763.573 295.447 761.629 298.132 Q759.708 300.794 759.708 305.493 Z" fill="#000000" fill-rule="nonzero" fill-opacity="1" /><path clip-path="url(#clip640)" d="M807.184 287.715 L807.184 300.701 L813.064 300.701 Q816.328 300.701 818.11 299.011 Q819.893 297.322 819.893 294.197 Q819.893 291.095 818.11 289.405 Q816.328 287.715 813.064 287.715 L807.184 287.715 M802.508 283.873 L813.064 283.873 Q818.874 283.873 821.837 286.511 Q824.823 289.127 824.823 294.197 Q824.823 299.312 821.837 301.928 Q818.874 304.544 813.064 304.544 L807.184 304.544 L807.184 318.433 L802.508 318.433 L802.508 283.873 Z" fill="#000000" fill-rule="nonzero" fill-opacity="1" /></svg>
