<?xml version="1.0" encoding="utf-8"?>
<svg xmlns="http://www.w3.org/2000/svg" xmlns:xlink="http://www.w3.org/1999/xlink" width="800" height="400" viewBox="0 0 3200 1600">
<defs>
  <clipPath id="clip700">
    <rect x="0" y="0" width="3200" height="1600"/>
  </clipPath>
</defs>
<path clip-path="url(#clip700)" d="M0 1600 L3200 1600 L3200 0 L0 0  Z" fill="#ffffff" fill-rule="evenodd" fill-opacity="1"/>
<defs>
  <clipPath id="clip701">
    <rect x="149" y="47" width="3004" height="1397"/>
  </clipPath>
</defs>
<path clip-path="url(#clip700)" d="M149.853 1443.7 L3152.76 1443.7 L3152.76 47.2441 L149.853 47.2441  Z" fill="#ffffff" fill-rule="evenodd" fill-opacity="1"/>
<polyline clip-path="url(#clip701)" style="stroke:#000000; stroke-linecap:round; stroke-linejoin:round; stroke-width:2; stroke-opacity:0.1; fill:none" points="149.853,1443.7 149.853,47.2441 "/>
<polyline clip-path="url(#clip701)" style="stroke:#000000; stroke-linecap:round; stroke-linejoin:round; stroke-width:2; stroke-opacity:0.1; fill:none" points="900.579,1443.7 900.579,47.2441 "/>
<polyline clip-path="url(#clip701)" style="stroke:#000000; stroke-linecap:round; stroke-linejoin:round; stroke-width:2; stroke-opacity:0.1; fill:none" points="1651.3,1443.7 1651.3,47.2441 "/>
<polyline clip-path="url(#clip701)" style="stroke:#000000; stroke-linecap:round; stroke-linejoin:round; stroke-width:2; stroke-opacity:0.1; fill:none" points="2402.03,1443.7 2402.03,47.2441 "/>
<polyline clip-path="url(#clip701)" style="stroke:#000000; stroke-linecap:round; stroke-linejoin:round; stroke-width:2; stroke-opacity:0.1; fill:none" points="3152.76,1443.7 3152.76,47.2441 "/>
<polyline clip-path="url(#clip701)" style="stroke:#000000; stroke-linecap:round; stroke-linejoin:round; stroke-width:2; stroke-opacity:0.1; fill:none" points="149.853,1443.7 149.853,47.2441 "/>
<polyline clip-path="url(#clip701)" style="stroke:#000000; stroke-linecap:round; stroke-linejoin:round; stroke-width:2; stroke-opacity:0.1; fill:none" points="900.579,1443.7 900.579,47.2441 "/>
<polyline clip-path="url(#clip701)" style="stroke:#000000; stroke-linecap:round; stroke-linejoin:round; stroke-width:2; stroke-opacity:0.1; fill:none" points="1651.3,1443.7 1651.3,47.2441 "/>
<polyline clip-path="url(#clip701)" style="stroke:#000000; stroke-linecap:round; stroke-linejoin:round; stroke-width:2; stroke-opacity:0.1; fill:none" points="2402.03,1443.7 2402.03,47.2441 "/>
<polyline clip-path="url(#clip701)" style="stroke:#000000; stroke-linecap:round; stroke-linejoin:round; stroke-width:2; stroke-opacity:0.1; fill:none" points="3152.76,1443.7 3152.76,47.2441 "/>
<polyline clip-path="url(#clip701)" style="stroke:#000000; stroke-linecap:round; stroke-linejoin:round; stroke-width:2; stroke-opacity:0.1; fill:none" points="149.853,1392.17 3152.76,1392.17 "/>
<polyline clip-path="url(#clip701)" style="stroke:#000000; stroke-linecap:round; stroke-linejoin:round; stroke-width:2; stroke-opacity:0.1; fill:none" points="149.853,1137.02 3152.76,1137.02 "/>
<polyline clip-path="url(#clip701)" style="stroke:#000000; stroke-linecap:round; stroke-linejoin:round; stroke-width:2; stroke-opacity:0.1; fill:none" points="149.853,881.875 3152.76,881.875 "/>
<polyline clip-path="url(#clip701)" style="stroke:#000000; stroke-linecap:round; stroke-linejoin:round; stroke-width:2; stroke-opacity:0.1; fill:none" points="149.853,626.725 3152.76,626.725 "/>
<polyline clip-path="url(#clip701)" style="stroke:#000000; stroke-linecap:round; stroke-linejoin:round; stroke-width:2; stroke-opacity:0.1; fill:none" points="149.853,371.576 3152.76,371.576 "/>
<polyline clip-path="url(#clip701)" style="stroke:#000000; stroke-linecap:round; stroke-linejoin:round; stroke-width:2; stroke-opacity:0.1; fill:none" points="149.853,116.426 3152.76,116.426 "/>
<polyline clip-path="url(#clip701)" style="stroke:#000000; stroke-linecap:round; stroke-linejoin:round; stroke-width:2; stroke-opacity:0.1; fill:none" points="149.853,1392.17 3152.76,1392.17 "/>
<polyline clip-path="url(#clip701)" style="stroke:#000000; stroke-linecap:round; stroke-linejoin:round; stroke-width:2; stroke-opacity:0.1; fill:none" points="149.853,1137.02 3152.76,1137.02 "/>
<polyline clip-path="url(#clip701)" style="stroke:#000000; stroke-linecap:round; stroke-linejoin:round; stroke-width:2; stroke-opacity:0.1; fill:none" points="149.853,881.875 3152.76,881.875 "/>
<polyline clip-path="url(#clip701)" style="stroke:#000000; stroke-linecap:round; stroke-linejoin:round; stroke-width:2; stroke-opacity:0.1; fill:none" points="149.853,626.725 3152.76,626.725 "/>
<polyline clip-path="url(#clip701)" style="stroke:#000000; stroke-linecap:round; stroke-linejoin:round; stroke-width:2; stroke-opacity:0.1; fill:none" points="149.853,371.576 3152.76,371.576 "/>
<polyline clip-path="url(#clip701)" style="stroke:#000000; stroke-linecap:round; stroke-linejoin:round; stroke-width:2; stroke-opacity:0.1; fill:none" points="149.853,116.426 3152.76,116.426 "/>
<polyline clip-path="url(#clip700)" style="stroke:#000000; stroke-linecap:round; stroke-linejoin:round; stroke-width:4; stroke-opacity:1; fill:none" points="149.853,1443.7 3152.76,1443.7 "/>
<polyline clip-path="url(#clip700)" style="stroke:#000000; stroke-linecap:round; stroke-linejoin:round; stroke-width:4; stroke-opacity:1; fill:none" points="149.853,47.2441 3152.76,47.2441 "/>
<polyline clip-path="url(#clip700)" style="stroke:#000000; stroke-linecap:round; stroke-linejoin:round; stroke-width:4; stroke-opacity:1; fill:none" points="149.853,1443.7 149.853,1424.8 "/>
<polyline clip-path="url(#clip700)" style="stroke:#000000; stroke-linecap:round; stroke-linejoin:round; stroke-width:4; stroke-opacity:1; fill:none" points="900.579,1443.7 900.579,1424.8 "/>
<polyline clip-path="url(#clip700)" style="stroke:#000000; stroke-linecap:round; stroke-linejoin:round; stroke-width:4; stroke-opacity:1; fill:none" points="1651.3,1443.7 1651.3,1424.8 "/>
<polyline clip-path="url(#clip700)" style="stroke:#000000; stroke-linecap:round; stroke-linejoin:round; stroke-width:4; stroke-opacity:1; fill:none" points="2402.03,1443.7 2402.03,1424.8 "/>
<polyline clip-path="url(#clip700)" style="stroke:#000000; stroke-linecap:round; stroke-linejoin:round; stroke-width:4; stroke-opacity:1; fill:none" points="3152.76,1443.7 3152.76,1424.8 "/>
<polyline clip-path="url(#clip700)" style="stroke:#000000; stroke-linecap:round; stroke-linejoin:round; stroke-width:4; stroke-opacity:1; fill:none" points="149.853,47.2441 149.853,66.1417 "/>
<polyline clip-path="url(#clip700)" style="stroke:#000000; stroke-linecap:round; stroke-linejoin:round; stroke-width:4; stroke-opacity:1; fill:none" points="900.579,47.2441 900.579,66.1417 "/>
<polyline clip-path="url(#clip700)" style="stroke:#000000; stroke-linecap:round; stroke-linejoin:round; stroke-width:4; stroke-opacity:1; fill:none" points="1651.3,47.2441 1651.3,66.1417 "/>
<polyline clip-path="url(#clip700)" style="stroke:#000000; stroke-linecap:round; stroke-linejoin:round; stroke-width:4; stroke-opacity:1; fill:none" points="2402.03,47.2441 2402.03,66.1417 "/>
<polyline clip-path="url(#clip700)" style="stroke:#000000; stroke-linecap:round; stroke-linejoin:round; stroke-width:4; stroke-opacity:1; fill:none" points="3152.76,47.2441 3152.76,66.1417 "/>
<path clip-path="url(#clip700)" d="M149.853 1481.02 Q146.242 1481.02 144.413 1484.58 Q142.608 1488.12 142.608 1495.25 Q142.608 1502.36 144.413 1505.93 Q146.242 1509.47 149.853 1509.47 Q153.487 1509.47 155.293 1505.93 Q157.121 1502.36 157.121 1495.25 Q157.121 1488.12 155.293 1484.58 Q153.487 1481.02 149.853 1481.02 M149.853 1477.31 Q155.663 1477.31 158.719 1481.92 Q161.797 1486.5 161.797 1495.25 Q161.797 1503.98 158.719 1508.59 Q155.663 1513.17 149.853 1513.17 Q144.043 1513.17 140.964 1508.59 Q137.909 1503.98 137.909 1495.25 Q137.909 1486.5 140.964 1481.92 Q144.043 1477.31 149.853 1477.31 Z" fill="#000000" fill-rule="nonzero" fill-opacity="1" /><path clip-path="url(#clip700)" d="M875.278 1477.94 L893.634 1477.94 L893.634 1481.88 L879.56 1481.88 L879.56 1490.35 Q880.579 1490 881.597 1489.84 Q882.616 1489.65 883.634 1489.65 Q889.421 1489.65 892.801 1492.82 Q896.181 1496 896.181 1501.41 Q896.181 1506.99 892.708 1510.09 Q889.236 1513.17 882.917 1513.17 Q880.741 1513.17 878.472 1512.8 Q876.227 1512.43 873.82 1511.69 L873.82 1506.99 Q875.903 1508.12 878.125 1508.68 Q880.347 1509.24 882.824 1509.24 Q886.829 1509.24 889.167 1507.13 Q891.505 1505.02 891.505 1501.41 Q891.505 1497.8 889.167 1495.69 Q886.829 1493.59 882.824 1493.59 Q880.949 1493.59 879.074 1494 Q877.222 1494.42 875.278 1495.3 L875.278 1477.94 Z" fill="#000000" fill-rule="nonzero" fill-opacity="1" /><path clip-path="url(#clip700)" d="M915.393 1481.02 Q911.782 1481.02 909.954 1484.58 Q908.148 1488.12 908.148 1495.25 Q908.148 1502.36 909.954 1505.93 Q911.782 1509.47 915.393 1509.47 Q919.028 1509.47 920.833 1505.93 Q922.662 1502.36 922.662 1495.25 Q922.662 1488.12 920.833 1484.58 Q919.028 1481.02 915.393 1481.02 M915.393 1477.31 Q921.204 1477.31 924.259 1481.92 Q927.338 1486.5 927.338 1495.25 Q927.338 1503.98 924.259 1508.59 Q921.204 1513.17 915.393 1513.17 Q909.583 1513.17 906.505 1508.59 Q903.449 1503.98 903.449 1495.25 Q903.449 1486.5 906.505 1481.92 Q909.583 1477.31 915.393 1477.31 Z" fill="#000000" fill-rule="nonzero" fill-opacity="1" /><path clip-path="url(#clip700)" d="M1610.91 1508.56 L1618.55 1508.56 L1618.55 1482.2 L1610.24 1483.87 L1610.24 1479.61 L1618.5 1477.94 L1623.18 1477.94 L1623.18 1508.56 L1630.82 1508.56 L1630.82 1512.5 L1610.91 1512.5 L1610.91 1508.56 Z" fill="#000000" fill-rule="nonzero" fill-opacity="1" /><path clip-path="url(#clip700)" d="M1650.26 1481.02 Q1646.65 1481.02 1644.82 1484.58 Q1643.02 1488.12 1643.02 1495.25 Q1643.02 1502.36 1644.82 1505.93 Q1646.65 1509.47 1650.26 1509.47 Q1653.9 1509.47 1655.7 1505.93 Q1657.53 1502.36 1657.53 1495.25 Q1657.53 1488.12 1655.7 1484.58 Q1653.9 1481.02 1650.26 1481.02 M1650.26 1477.31 Q1656.07 1477.31 1659.13 1481.92 Q1662.21 1486.5 1662.21 1495.25 Q1662.21 1503.98 1659.13 1508.59 Q1656.07 1513.17 1650.26 1513.17 Q1644.45 1513.17 1641.37 1508.59 Q1638.32 1503.98 1638.32 1495.25 Q1638.32 1486.5 1641.37 1481.92 Q1644.45 1477.31 1650.26 1477.31 Z" fill="#000000" fill-rule="nonzero" fill-opacity="1" /><path clip-path="url(#clip700)" d="M1680.42 1481.02 Q1676.81 1481.02 1674.98 1484.58 Q1673.18 1488.12 1673.18 1495.25 Q1673.18 1502.36 1674.98 1505.93 Q1676.81 1509.47 1680.42 1509.47 Q1684.06 1509.47 1685.86 1505.93 Q1687.69 1502.36 1687.69 1495.25 Q1687.69 1488.12 1685.86 1484.58 Q1684.06 1481.02 1680.42 1481.02 M1680.42 1477.31 Q1686.23 1477.31 1689.29 1481.92 Q1692.37 1486.5 1692.37 1495.25 Q1692.37 1503.98 1689.29 1508.59 Q1686.23 1513.17 1680.42 1513.17 Q1674.61 1513.17 1671.54 1508.59 Q1668.48 1503.98 1668.48 1495.25 Q1668.48 1486.5 1671.54 1481.92 Q1674.61 1477.31 1680.42 1477.31 Z" fill="#000000" fill-rule="nonzero" fill-opacity="1" /><path clip-path="url(#clip700)" d="M2361.64 1508.56 L2369.28 1508.56 L2369.28 1482.2 L2360.97 1483.87 L2360.97 1479.61 L2369.23 1477.94 L2373.91 1477.94 L2373.91 1508.56 L2381.54 1508.56 L2381.54 1512.5 L2361.64 1512.5 L2361.64 1508.56 Z" fill="#000000" fill-rule="nonzero" fill-opacity="1" /><path clip-path="url(#clip700)" d="M2391.03 1477.94 L2409.39 1477.94 L2409.39 1481.88 L2395.32 1481.88 L2395.32 1490.35 Q2396.34 1490 2397.35 1489.84 Q2398.37 1489.65 2399.39 1489.65 Q2405.18 1489.65 2408.56 1492.82 Q2411.94 1496 2411.94 1501.41 Q2411.94 1506.99 2408.47 1510.09 Q2404.99 1513.17 2398.67 1513.17 Q2396.5 1513.17 2394.23 1512.8 Q2391.98 1512.43 2389.58 1511.69 L2389.58 1506.99 Q2391.66 1508.12 2393.88 1508.68 Q2396.1 1509.24 2398.58 1509.24 Q2402.59 1509.24 2404.92 1507.13 Q2407.26 1505.02 2407.26 1501.41 Q2407.26 1497.8 2404.92 1495.69 Q2402.59 1493.59 2398.58 1493.59 Q2396.71 1493.59 2394.83 1494 Q2392.98 1494.42 2391.03 1495.3 L2391.03 1477.94 Z" fill="#000000" fill-rule="nonzero" fill-opacity="1" /><path clip-path="url(#clip700)" d="M2431.15 1481.02 Q2427.54 1481.02 2425.71 1484.58 Q2423.91 1488.12 2423.91 1495.25 Q2423.91 1502.36 2425.71 1505.93 Q2427.54 1509.47 2431.15 1509.47 Q2434.78 1509.47 2436.59 1505.93 Q2438.42 1502.36 2438.42 1495.25 Q2438.42 1488.12 2436.59 1484.58 Q2434.78 1481.02 2431.15 1481.02 M2431.15 1477.31 Q2436.96 1477.31 2440.02 1481.92 Q2443.09 1486.5 2443.09 1495.25 Q2443.09 1503.98 2440.02 1508.59 Q2436.96 1513.17 2431.15 1513.17 Q2425.34 1513.17 2422.26 1508.59 Q2419.21 1503.98 2419.21 1495.25 Q2419.21 1486.5 2422.26 1481.92 Q2425.34 1477.31 2431.15 1477.31 Z" fill="#000000" fill-rule="nonzero" fill-opacity="1" /><path clip-path="url(#clip700)" d="M3116.45 1508.56 L3132.77 1508.56 L3132.77 1512.5 L3110.82 1512.5 L3110.82 1508.56 Q3113.49 1505.81 3118.07 1501.18 Q3122.68 1496.53 3123.86 1495.19 Q3126.1 1492.66 3126.98 1490.93 Q3127.88 1489.17 3127.88 1487.48 Q3127.88 1484.72 3125.94 1482.99 Q3124.02 1481.25 3120.92 1481.25 Q3118.72 1481.25 3116.26 1482.01 Q3113.83 1482.78 3111.05 1484.33 L3111.05 1479.61 Q3113.88 1478.47 3116.33 1477.89 Q3118.79 1477.31 3120.82 1477.31 Q3126.19 1477.31 3129.39 1480 Q3132.58 1482.69 3132.58 1487.18 Q3132.58 1489.31 3131.77 1491.23 Q3130.99 1493.12 3128.88 1495.72 Q3128.3 1496.39 3125.2 1499.61 Q3122.1 1502.8 3116.45 1508.56 Z" fill="#000000" fill-rule="nonzero" fill-opacity="1" /><path clip-path="url(#clip700)" d="M3152.58 1481.02 Q3148.97 1481.02 3147.14 1484.58 Q3145.34 1488.12 3145.34 1495.25 Q3145.34 1502.36 3147.14 1505.93 Q3148.97 1509.47 3152.58 1509.47 Q3156.22 1509.47 3158.02 1505.93 Q3159.85 1502.36 3159.85 1495.25 Q3159.85 1488.12 3158.02 1484.58 Q3156.22 1481.02 3152.58 1481.02 M3152.58 1477.31 Q3158.39 1477.31 3161.45 1481.92 Q3164.53 1486.5 3164.53 1495.25 Q3164.53 1503.98 3161.45 1508.59 Q3158.39 1513.17 3152.58 1513.17 Q3146.77 1513.17 3143.69 1508.59 Q3140.64 1503.98 3140.64 1495.25 Q3140.64 1486.5 3143.69 1481.92 Q3146.77 1477.31 3152.58 1477.31 Z" fill="#000000" fill-rule="nonzero" fill-opacity="1" /><path clip-path="url(#clip700)" d="M3182.74 1481.02 Q3179.13 1481.02 3177.3 1484.58 Q3175.5 1488.12 3175.5 1495.25 Q3175.5 1502.36 3177.3 1505.93 Q3179.13 1509.47 3182.74 1509.47 Q3186.38 1509.47 3188.18 1505.93 Q3190.01 1502.36 3190.01 1495.25 Q3190.01 1488.12 3188.18 1484.58 Q3186.38 1481.02 3182.74 1481.02 M3182.74 1477.31 Q3188.55 1477.31 3191.61 1481.92 Q3194.69 1486.5 3194.69 1495.25 Q3194.69 1503.98 3191.61 1508.59 Q3188.55 1513.17 3182.74 1513.17 Q3176.93 1513.17 3173.86 1508.59 Q3170.8 1503.98 3170.8 1495.25 Q3170.8 1486.5 3173.86 1481.92 Q3176.93 1477.31 3182.74 1477.31 Z" fill="#000000" fill-rule="nonzero" fill-opacity="1" /><path clip-path="url(#clip700)" d="M1650.37 1554.79 L1650.37 1564.92 L1662.43 1564.92 L1662.43 1569.47 L1650.37 1569.47 L1650.37 1588.82 Q1650.37 1593.18 1651.54 1594.42 Q1652.75 1595.66 1656.41 1595.66 L1662.43 1595.66 L1662.43 1600.56 L1656.41 1600.56 Q1649.63 1600.56 1647.06 1598.05 Q1644.48 1595.5 1644.48 1588.82 L1644.48 1569.47 L1640.18 1569.47 L1640.18 1564.92 L1644.48 1564.92 L1644.48 1554.79 L1650.37 1554.79 Z" fill="#000000" fill-rule="nonzero" fill-opacity="1" /><polyline clip-path="url(#clip700)" style="stroke:#000000; stroke-linecap:round; stroke-linejoin:round; stroke-width:4; stroke-opacity:1; fill:none" points="149.853,1443.7 149.853,47.2441 "/>
<polyline clip-path="url(#clip700)" style="stroke:#000000; stroke-linecap:round; stroke-linejoin:round; stroke-width:4; stroke-opacity:1; fill:none" points="3152.76,1443.7 3152.76,47.2441 "/>
<polyline clip-path="url(#clip700)" style="stroke:#000000; stroke-linecap:round; stroke-linejoin:round; stroke-width:4; stroke-opacity:1; fill:none" points="149.853,1392.17 168.751,1392.17 "/>
<polyline clip-path="url(#clip700)" style="stroke:#000000; stroke-linecap:round; stroke-linejoin:round; stroke-width:4; stroke-opacity:1; fill:none" points="149.853,1137.02 168.751,1137.02 "/>
<polyline clip-path="url(#clip700)" style="stroke:#000000; stroke-linecap:round; stroke-linejoin:round; stroke-width:4; stroke-opacity:1; fill:none" points="149.853,881.875 168.751,881.875 "/>
<polyline clip-path="url(#clip700)" style="stroke:#000000; stroke-linecap:round; stroke-linejoin:round; stroke-width:4; stroke-opacity:1; fill:none" points="149.853,626.725 168.751,626.725 "/>
<polyline clip-path="url(#clip700)" style="stroke:#000000; stroke-linecap:round; stroke-linejoin:round; stroke-width:4; stroke-opacity:1; fill:none" points="149.853,371.576 168.751,371.576 "/>
<polyline clip-path="url(#clip700)" style="stroke:#000000; stroke-linecap:round; stroke-linejoin:round; stroke-width:4; stroke-opacity:1; fill:none" points="149.853,116.426 168.751,116.426 "/>
<polyline clip-path="url(#clip700)" style="stroke:#000000; stroke-linecap:round; stroke-linejoin:round; stroke-width:4; stroke-opacity:1; fill:none" points="3152.76,1392.17 3133.86,1392.17 "/>
<polyline clip-path="url(#clip700)" style="stroke:#000000; stroke-linecap:round; stroke-linejoin:round; stroke-width:4; stroke-opacity:1; fill:none" points="3152.76,1137.02 3133.86,1137.02 "/>
<polyline clip-path="url(#clip700)" style="stroke:#000000; stroke-linecap:round; stroke-linejoin:round; stroke-width:4; stroke-opacity:1; fill:none" points="3152.76,881.875 3133.86,881.875 "/>
<polyline clip-path="url(#clip700)" style="stroke:#000000; stroke-linecap:round; stroke-linejoin:round; stroke-width:4; stroke-opacity:1; fill:none" points="3152.76,626.725 3133.86,626.725 "/>
<polyline clip-path="url(#clip700)" style="stroke:#000000; stroke-linecap:round; stroke-linejoin:round; stroke-width:4; stroke-opacity:1; fill:none" points="3152.76,371.576 3133.86,371.576 "/>
<polyline clip-path="url(#clip700)" style="stroke:#000000; stroke-linecap:round; stroke-linejoin:round; stroke-width:4; stroke-opacity:1; fill:none" points="3152.76,116.426 3133.86,116.426 "/>
<path clip-path="url(#clip700)" d="M50.5569 1405.52 L58.1958 1405.52 L58.1958 1379.15 L49.8856 1380.82 L49.8856 1376.56 L58.1495 1374.89 L62.8254 1374.89 L62.8254 1405.52 L70.4642 1405.52 L70.4642 1409.45 L50.5569 1409.45 L50.5569 1405.52 Z" fill="#000000" fill-rule="nonzero" fill-opacity="1" /><path clip-path="url(#clip700)" d="M89.9086 1377.97 Q86.2975 1377.97 84.4688 1381.54 Q82.6632 1385.08 82.6632 1392.21 Q82.6632 1399.32 84.4688 1402.88 Q86.2975 1406.42 89.9086 1406.42 Q93.5428 1406.42 95.3483 1402.88 Q97.177 1399.32 97.177 1392.21 Q97.177 1385.08 95.3483 1381.54 Q93.5428 1377.97 89.9086 1377.97 M89.9086 1374.27 Q95.7187 1374.27 98.7743 1378.88 Q101.853 1383.46 101.853 1392.21 Q101.853 1400.94 98.7743 1405.54 Q95.7187 1410.13 89.9086 1410.13 Q84.0984 1410.13 81.0197 1405.54 Q77.9642 1400.94 77.9642 1392.21 Q77.9642 1383.46 81.0197 1378.88 Q84.0984 1374.27 89.9086 1374.27 Z" fill="#000000" fill-rule="nonzero" fill-opacity="1" /><path clip-path="url(#clip700)" d="M53.7745 1150.37 L70.0939 1150.37 L70.0939 1154.3 L48.1495 1154.3 L48.1495 1150.37 Q50.8115 1147.61 55.3949 1142.99 Q60.0013 1138.33 61.1819 1136.99 Q63.4272 1134.47 64.3068 1132.73 Q65.2096 1130.97 65.2096 1129.28 Q65.2096 1126.53 63.2652 1124.79 Q61.3439 1123.05 58.2421 1123.05 Q56.043 1123.05 53.5893 1123.82 Q51.1588 1124.58 48.381 1126.13 L48.381 1121.41 Q51.2051 1120.28 53.6588 1119.7 Q56.1124 1119.12 58.1495 1119.12 Q63.5198 1119.12 66.7142 1121.8 Q69.9087 1124.49 69.9087 1128.98 Q69.9087 1131.11 69.0985 1133.03 Q68.3115 1134.93 66.205 1137.52 Q65.6263 1138.19 62.5245 1141.41 Q59.4226 1144.61 53.7745 1150.37 Z" fill="#000000" fill-rule="nonzero" fill-opacity="1" /><path clip-path="url(#clip700)" d="M89.9086 1122.82 Q86.2975 1122.82 84.4688 1126.39 Q82.6632 1129.93 82.6632 1137.06 Q82.6632 1144.17 84.4688 1147.73 Q86.2975 1151.27 89.9086 1151.27 Q93.5428 1151.27 95.3483 1147.73 Q97.177 1144.17 97.177 1137.06 Q97.177 1129.93 95.3483 1126.39 Q93.5428 1122.82 89.9086 1122.82 M89.9086 1119.12 Q95.7187 1119.12 98.7743 1123.73 Q101.853 1128.31 101.853 1137.06 Q101.853 1145.79 98.7743 1150.39 Q95.7187 1154.98 89.9086 1154.98 Q84.0984 1154.98 81.0197 1150.39 Q77.9642 1145.79 77.9642 1137.06 Q77.9642 1128.31 81.0197 1123.73 Q84.0984 1119.12 89.9086 1119.12 Z" fill="#000000" fill-rule="nonzero" fill-opacity="1" /><path clip-path="url(#clip700)" d="M63.9133 880.521 Q67.2698 881.238 69.1448 883.507 Q71.0429 885.775 71.0429 889.109 Q71.0429 894.224 67.5244 897.025 Q64.0059 899.826 57.5245 899.826 Q55.3486 899.826 53.0338 899.386 Q50.7421 898.97 48.2884 898.113 L48.2884 893.599 Q50.2328 894.734 52.5477 895.312 Q54.8625 895.891 57.3856 895.891 Q61.7837 895.891 64.0754 894.155 Q66.3902 892.419 66.3902 889.109 Q66.3902 886.053 64.2374 884.34 Q62.1078 882.604 58.2884 882.604 L54.2606 882.604 L54.2606 878.762 L58.4735 878.762 Q61.9226 878.762 63.7513 877.396 Q65.58 876.007 65.58 873.414 Q65.58 870.752 63.6819 869.34 Q61.8069 867.905 58.2884 867.905 Q56.3671 867.905 54.168 868.322 Q51.969 868.738 49.3301 869.618 L49.3301 865.451 Q51.9921 864.711 54.3069 864.34 Q56.6449 863.97 58.705 863.97 Q64.0291 863.97 67.1309 866.401 Q70.2327 868.808 70.2327 872.928 Q70.2327 875.799 68.5892 877.789 Q66.9457 879.757 63.9133 880.521 Z" fill="#000000" fill-rule="nonzero" fill-opacity="1" /><path clip-path="url(#clip700)" d="M89.9086 867.674 Q86.2975 867.674 84.4688 871.238 Q82.6632 874.78 82.6632 881.91 Q82.6632 889.016 84.4688 892.581 Q86.2975 896.123 89.9086 896.123 Q93.5428 896.123 95.3483 892.581 Q97.177 889.016 97.177 881.91 Q97.177 874.78 95.3483 871.238 Q93.5428 867.674 89.9086 867.674 M89.9086 863.97 Q95.7187 863.97 98.7743 868.576 Q101.853 873.16 101.853 881.91 Q101.853 890.636 98.7743 895.243 Q95.7187 899.826 89.9086 899.826 Q84.0984 899.826 81.0197 895.243 Q77.9642 890.636 77.9642 881.91 Q77.9642 873.16 81.0197 868.576 Q84.0984 863.97 89.9086 863.97 Z" fill="#000000" fill-rule="nonzero" fill-opacity="1" /><path clip-path="url(#clip700)" d="M62.5939 613.519 L50.7884 631.968 L62.5939 631.968 L62.5939 613.519 M61.367 609.445 L67.2466 609.445 L67.2466 631.968 L72.1772 631.968 L72.1772 635.857 L67.2466 635.857 L67.2466 644.005 L62.5939 644.005 L62.5939 635.857 L46.9921 635.857 L46.9921 631.343 L61.367 609.445 Z" fill="#000000" fill-rule="nonzero" fill-opacity="1" /><path clip-path="url(#clip700)" d="M89.9086 612.524 Q86.2975 612.524 84.4688 616.089 Q82.6632 619.63 82.6632 626.76 Q82.6632 633.866 84.4688 637.431 Q86.2975 640.973 89.9086 640.973 Q93.5428 640.973 95.3483 637.431 Q97.177 633.866 97.177 626.76 Q97.177 619.63 95.3483 616.089 Q93.5428 612.524 89.9086 612.524 M89.9086 608.82 Q95.7187 608.82 98.7743 613.427 Q101.853 618.01 101.853 626.76 Q101.853 635.487 98.7743 640.093 Q95.7187 644.677 89.9086 644.677 Q84.0984 644.677 81.0197 640.093 Q77.9642 635.487 77.9642 626.76 Q77.9642 618.01 81.0197 613.427 Q84.0984 608.82 89.9086 608.82 Z" fill="#000000" fill-rule="nonzero" fill-opacity="1" /><path clip-path="url(#clip700)" d="M49.793 354.296 L68.1494 354.296 L68.1494 358.231 L54.0754 358.231 L54.0754 366.703 Q55.0939 366.356 56.1124 366.194 Q57.131 366.008 58.1495 366.008 Q63.9365 366.008 67.3161 369.18 Q70.6957 372.351 70.6957 377.768 Q70.6957 383.346 67.2235 386.448 Q63.7513 389.527 57.4319 389.527 Q55.256 389.527 52.9875 389.156 Q50.7421 388.786 48.3347 388.045 L48.3347 383.346 Q50.418 384.481 52.6402 385.036 Q54.8625 385.592 57.3393 385.592 Q61.3439 385.592 63.6819 383.485 Q66.0198 381.379 66.0198 377.768 Q66.0198 374.157 63.6819 372.05 Q61.3439 369.944 57.3393 369.944 Q55.4643 369.944 53.5893 370.36 Q51.7375 370.777 49.793 371.657 L49.793 354.296 Z" fill="#000000" fill-rule="nonzero" fill-opacity="1" /><path clip-path="url(#clip700)" d="M89.9086 357.374 Q86.2975 357.374 84.4688 360.939 Q82.6632 364.481 82.6632 371.61 Q82.6632 378.717 84.4688 382.282 Q86.2975 385.823 89.9086 385.823 Q93.5428 385.823 95.3483 382.282 Q97.177 378.717 97.177 371.61 Q97.177 364.481 95.3483 360.939 Q93.5428 357.374 89.9086 357.374 M89.9086 353.671 Q95.7187 353.671 98.7743 358.277 Q101.853 362.86 101.853 371.61 Q101.853 380.337 98.7743 384.944 Q95.7187 389.527 89.9086 389.527 Q84.0984 389.527 81.0197 384.944 Q77.9642 380.337 77.9642 371.61 Q77.9642 362.86 81.0197 358.277 Q84.0984 353.671 89.9086 353.671 Z" fill="#000000" fill-rule="nonzero" fill-opacity="1" /><path clip-path="url(#clip700)" d="M60.3254 114.562 Q57.1773 114.562 55.3254 116.715 Q53.4967 118.868 53.4967 122.618 Q53.4967 126.345 55.3254 128.521 Q57.1773 130.673 60.3254 130.673 Q63.4735 130.673 65.3022 128.521 Q67.1541 126.345 67.1541 122.618 Q67.1541 118.868 65.3022 116.715 Q63.4735 114.562 60.3254 114.562 M69.6077 99.9097 L69.6077 104.169 Q67.8485 103.336 66.0429 102.896 Q64.2606 102.456 62.5013 102.456 Q57.8717 102.456 55.418 105.581 Q52.9875 108.706 52.6402 115.025 Q54.006 113.012 56.0662 111.947 Q58.1263 110.859 60.6032 110.859 Q65.8115 110.859 68.8207 114.03 Q71.8531 117.178 71.8531 122.618 Q71.8531 127.942 68.705 131.16 Q65.5568 134.377 60.3254 134.377 Q54.33 134.377 51.1588 129.794 Q47.9875 125.187 47.9875 116.461 Q47.9875 108.266 51.8764 103.405 Q55.7652 98.5208 62.3161 98.5208 Q64.0754 98.5208 65.8578 98.8681 Q67.6633 99.2153 69.6077 99.9097 Z" fill="#000000" fill-rule="nonzero" fill-opacity="1" /><path clip-path="url(#clip700)" d="M89.9086 102.225 Q86.2975 102.225 84.4688 105.789 Q82.6632 109.331 82.6632 116.461 Q82.6632 123.567 84.4688 127.132 Q86.2975 130.673 89.9086 130.673 Q93.5428 130.673 95.3483 127.132 Q97.177 123.567 97.177 116.461 Q97.177 109.331 95.3483 105.789 Q93.5428 102.225 89.9086 102.225 M89.9086 98.5208 Q95.7187 98.5208 98.7743 103.127 Q101.853 107.711 101.853 116.461 Q101.853 125.187 98.7743 129.794 Q95.7187 134.377 89.9086 134.377 Q84.0984 134.377 81.0197 129.794 Q77.9642 125.187 77.9642 116.461 Q77.9642 107.711 81.0197 103.127 Q84.0984 98.5208 89.9086 98.5208 Z" fill="#000000" fill-rule="nonzero" fill-opacity="1" /><polyline clip-path="url(#clip701)" style="stroke:#009af9; stroke-linecap:round; stroke-linejoin:round; stroke-width:12; stroke-opacity:1; fill:none" points="149.853,499.15 149.853,499.126 149.854,499.587 149.854,500.173 149.855,499.923 149.855,500.194 149.856,499.919 149.857,500.104 149.857,499.856 149.858,501.407 149.859,502.008 149.86,503.843 149.862,505.178 149.863,504.161 149.865,504.189 149.866,505.396 149.869,506.239 149.871,507.041 149.873,505.831 149.876,505.241 149.88,505.737 149.883,507.709 149.887,506.251 149.892,506.788 149.897,505.151 149.903,506.858 149.91,510.106 149.917,509.44 149.926,508.217 149.935,507.96 149.946,503.66 149.958,504.788 149.971,502.743 149.986,501.447 150.003,501.287 150.022,502.662 150.044,502.947 150.068,498.861 150.095,499.551 150.126,495.287 150.161,496.928 150.199,499.834 150.243,501.037 150.292,496.634 150.347,499.088 150.41,502.495 150.48,490.045 150.558,494.899 150.647,497.001 150.746,500.527 150.858,504.012 150.984,511.671 151.126,503.936 151.286,499.75 151.465,494.231 151.667,487.054 151.894,492.875 152.149,492.576 152.437,495.095 152.76,506.588 153.124,501.125 153.533,495.624 153.993,503.646 154.511,498.163 155.094,489.05 155.749,469.036 156.487,494.544 157.316,494.431 158.25,504.405 159.299,513.926 160.481,509.874 161.809,515.848 163.304,487.021 164.986,519.6 166.878,500.178 169.007,538.895 171.401,554.505 174.095,533.795 177.126,511.736 180.535,528.402 184.371,565.769 188.686,558.252 193.54,654.915 198.698,679.582 204.501,763.719 211.029,816.749 218.373,841.287 221.489,877.115 224.995,898.119 228.939,945.175 233.376,966.562 238.367,986.352 243.983,999.363 250.3,1026.55 255.545,1050.83 261.446,1023.14 268.085,1039.34 275.553,1077.74 283.955,1141.77 291.106,1200.84 299.152,1183.91 301.891,1195.86 304.971,1171.44 308.437,1160.64 312.337,1145.56 316.723,1164.98 321.658,1159.63 327.21,1121.42 333.456,1092.54 340.482,1109.85 348.387,1122.38 357.28,1099.03 367.285,1015.95 378.54,1028.7 391.202,987.186 405.447,1007.86 415.255,927.227 426.29,950.147 433.231,920.876 441.04,959.138 449.825,941.245 459.708,929.817 470.826,1001.98 483.334,1068.96 490.09,1087.86 497.691,1079.03 506.242,1118.12 511.875,1130.11 518.212,1127.41 525.342,1170.33 533.362,1176.9 542.386,1173.38 552.537,1078.35 562.283,1036.93 573.248,1009.65 583.638,961.043 595.326,850.415 608.475,795.775 623.268,748.172 636.643,775.387 647.081,807.363 656.716,699.572 667.555,702.135 679.75,574.085 692.476,596.371 704.312,568.632 717.628,591.686 732.608,632.428 742.307,649.866 753.218,595.136 765.494,697.723 772.317,700.443 779.994,736.586 788.63,747.512 798.346,800.367 802.836,811.129 807.887,859.19 813.57,908.467 819.962,941.463 827.154,865.416 833.894,868.401 841.477,856.416 850.007,828.653 859.604,818.295 870.4,803.098 878.965,844.596 888.6,913.958 895.201,855.119 901.999,894.746 909.646,939.757 917.172,1023.94 921.609,1026.58 926.6,1062.48 932.216,1110.33 938.533,1076.52 942.537,1070.88 947.042,1069.35 952.11,1073.75 957.811,1044.11 964.225,1056.56 971.44,1044.87 975.239,1043.41 979.513,1032.08 984.321,1081.17 989.729,1072.42 995.814,1043.33 1002.66,1046.05 1010.36,1019.45 1019.03,988.427 1028.77,1050.48 1039.74,1106.01 1052.07,1129.25 1063.12,1123.14 1075.55,1101.75 1087.12,1101.83 1100.13,1072.43 1111.36,1052.81 1124,1065.79 1138.22,1065.41 1154.21,1157.55 1168.52,1230.74 1183.2,1122.52 1196.2,1097.1 1210.81,1134.37 1227.25,1023.27 1235.53,957.284 1244.85,894.569 1255.33,752.662 1267.12,713.704 1280.38,795.768 1295.3,835.723 1305.63,715.076 1317.25,702.599 1325.33,697.251 1334.42,625.333 1344.64,611.468 1353.8,569.943 1364.11,477.457 1375.7,377.474 1388.74,485.611 1398.32,541.077 1409.09,678.939 1420.96,613.547 1434.3,728.106 1443.62,742.799 1454.11,769.345 1465.91,809.032 1474.62,811.793 1484.41,928.954 1495.42,927.775 1507.82,933.99 1517.75,944.485 1524.61,975.867 1532.32,1001.83 1539.85,972.009 1548.31,984.712 1557.83,970.576 1568.55,1081.57 1577.08,1061.34 1586.68,1090.5 1597.49,1095.32 1609.64,1061.17 1623.31,1072.29 1638.69,1072.25 1652.18,1065.53 1667.34,1124.08 1684.41,1200.21 1700.36,1224.16 1709.67,1234.63 1720.15,1261.5 1731.94,1246.27 1741.67,1210.38 1752.62,1173.8 1764.94,1148.08 1776.11,1014.69 1788.69,1001.76 1802.83,899.786 1817.34,791.324 1833.66,675.003 1844.46,698.786 1856.6,721.02 1867.5,661.553 1879.75,699.082 1891.37,613.57 1904.43,548.158 1915.04,471.44 1926.97,513.307 1940.4,527.205 1951.19,397.49 1956.58,356.977 1962.65,379.277 1969.48,348.534 1977.16,401.408 1985.8,441.155 1993.95,505.763 2003.12,576.093 2013.44,594.07 2021.84,571.589 2031.29,607.911 2040.8,594.909 2049.9,686.635 2060.13,695.948 2068.44,696.141 2077.79,758.872 2085.79,751.369 2094.79,771.204 2104.41,833.813 2115.24,875.531 2126.43,923.49 2139.01,949.543 2150.26,997.641 2162.91,1042.25 2177.14,1040.79 2192.9,1068.07 2210.62,1072.07 2230.56,1151.27 2243.42,1209.94 2257.89,1228.73 2264.62,1184.9 2272.18,1173.8 2280.7,1203.73 2290.27,1213.93 2301.05,1262.11 2308,1253.36 2315.83,1236.25 2324.63,1249.24 2330.46,1236.89 2337.02,1218.43 2344.4,1197 2352.7,1173.94 2362.04,1081.13 2372.55,991.725 2384.37,947.798 2396.5,914.066 2410.14,746.29 2421.72,779.29 2431.42,781.412 2442.34,911.378 2454.63,1014.78 2464.65,975.64 2475.92,996.432 2488.6,949.04 2494.3,998.662 2500.71,989.802 2507.91,935.217 2516.02,884.487 2522.38,869.734 2529.53,802.908 2537.58,783.52 2546.63,826.793 2556.82,812.768 2568.27,793.402 2579.01,756.652 2591.08,725.487 2598.6,755.154 2607.06,743.907 2611.71,729.301 2616.93,744.585 2622.81,794.675 2629.42,846.012 2636.86,857.277 2645.23,849.678 2654.65,792.639 2664.45,835.737 2675.47,915.851 2687.16,888.667 2700.3,903.774 2710.77,951.496 2722.55,1070.47 2732.37,1139.34 2739.64,1110.67 2747.73,1110.25 2756.82,1129.32 2767.05,1160.35 2778.56,1164.97 2791.51,1218.57 2806.07,1141.92 2814.28,1096.77 2823.51,1130.38 2833.89,1108.53 2845.57,1148.78 2858.71,1202.73 2873.5,1164.21 2889.47,1119.25 2907.43,1053.24 2925.71,1050.97 2943.99,1048.8 2959.32,952.686 2970.93,833.819 2983.99,773.524 2998.68,741.472 3015.2,853.15 3033.8,808.952 3054.71,700.728 3065.49,711.616 3077.62,782.61 3091.26,863.218 3106.61,818.971 3117.07,762.939 3128.84,787.656 3138.78,789.485 3149.96,855.121 3152.76,841.928 "/>
<polyline clip-path="url(#clip701)" style="stroke:#e26f46; stroke-linecap:round; stroke-linejoin:round; stroke-width:12; stroke-opacity:1; fill:none" points="149.853,499.15 149.853,499.056 149.854,499.204 149.854,499.665 149.855,499.301 149.855,499.785 149.856,499.549 149.857,500.447 149.857,500.144 149.858,499.472 149.859,498.78 149.86,498.288 149.862,497.465 149.863,498.864 149.865,499.599 149.866,499.936 149.869,499.653 149.871,499.792 149.873,499.554 149.876,501.017 149.88,502.479 149.883,504.447 149.887,503.325 149.892,503.412 149.897,505.72 149.903,507.227 149.91,505.284 149.917,506.181 149.926,505.24 149.935,502.763 149.946,505.827 149.958,505.837 149.971,504.204 149.986,507.67 150.003,506.033 150.022,504.432 150.044,508.027 150.068,505.679 150.095,505.757 150.126,507.701 150.161,507.15 150.199,510.13 150.243,502.724 150.292,495.041 150.347,495.88 150.41,495.215 150.48,481.151 150.558,480.166 150.647,473.437 150.746,475.013 150.858,485.237 150.984,485.842 151.126,479.629 151.286,489.439 151.465,489.891 151.667,473.91 151.894,467.44 152.149,456.919 152.437,459.664 152.76,458.902 153.124,470.821 153.533,469.067 153.993,474.674 154.511,474.759 155.094,455.931 155.749,476.923 156.487,489.625 157.316,480.544 158.25,499.279 159.299,482.613 160.481,486.549 161.809,467.445 163.304,507.207 164.986,479.787 166.878,507.818 169.007,499.936 171.401,486.888 174.095,548.717 175.992,586.714 178.127,610.674 180.528,556.141 183.229,577.054 186.268,596.945 189.687,613.296 193.533,659.783 197.543,655.379 202.054,746.646 206.024,740.71 210.491,738.301 215.515,785.769 221.168,789.565 227.528,758.776 234.204,790.109 241.715,807.384 250.164,882.446 259.67,869.398 270.364,949.577 282.395,987.963 289.293,1032.26 297.053,1102.88 304.122,1112.76 312.074,1132.56 321.02,1150.33 331.084,1142.11 342.407,1124.16 352.872,1169.02 364.645,1233.83 374.173,1269.29 384.893,1272.43 396.952,1331.98 410.518,1288.72 425.781,1325.78 442.951,1426.62 452.056,1443.7 462.299,1402.2 473.822,1363.04 483.506,1352.62 494.4,1297.25 506.279,1240.89 516.709,1281.88 527.219,1237.3 532.873,1274.53 539.235,1177.68 546.392,1170.67 554.443,1101.68 563.501,1001.79 573.691,934.511 585.154,855.845 595.729,763.311 607.626,655.841 621.009,703.224 629.958,596.521 640.026,658.883 647.431,653.999 655.762,588.197 665.135,607.823 669.334,585.265 674.058,494.901 678.228,493.32 682.92,491.979 688.198,471.268 694.136,383.574 700.595,364.929 707.862,295.473 716.036,316.378 725.233,269.182 735.579,316.519 742.34,306.959 749.947,354.067 758.504,305.27 768.132,340.456 778.962,386.48 787.26,368.86 796.594,398.814 805.843,423.365 816.249,508.694 824.717,494.293 834.245,569.244 844.441,664.475 853.55,765.455 863.796,774.949 873.497,874.146 884.41,894.225 896.688,930.206 909.425,886.081 923.755,951.423 933.284,924.413 944.006,918.375 956.067,935.008 969.636,975.033 980.901,1029.47 993.575,1073.66 1007.83,1070.28 1023.87,1034.61 1041.92,1121.39 1054.23,1130.58 1068.08,1188.8 1083.67,1165.28 1099.24,1140.92 1116.75,1138.86 1136.46,1101.71 1144.77,1116.31 1154.12,1142.33 1163.54,1124.08 1174.14,1071.57 1186.06,1092.06 1199.46,1077.35 1212.49,975.378 1221.09,863.337 1230.76,849.011 1241.64,814.746 1253.88,594.481 1262.81,563.071 1272.85,559.787 1284.15,398.731 1296.57,373.464 1310.54,311.578 1326.26,207.164 1337.77,84.4597 1350.71,193.221 1365.27,47.2441 1376.71,114.757 1389.58,117.967 1404.05,196.984 1417.31,213.979 1431.73,177.623 1438.96,163.066 1447.1,217.479 1451.46,180.802 1456.38,245.97 1461.61,303.334 1467.49,378.558 1472.92,410.19 1479.02,469.449 1485.32,558.642 1492.41,512.145 1498.82,522.433 1506.02,575.087 1511.12,572.976 1516.84,647.276 1522.37,689.881 1528.59,711.992 1535.59,721.669 1541.98,784.644 1549.16,883.14 1557.24,930.238 1566.33,959.63 1576.56,958.422 1588.07,1010.78 1596.25,1011.98 1605.45,1059.2 1615.8,1108.43 1627.45,1138.23 1640.55,1233.5 1655.29,1289.83 1664.84,1296.86 1675.59,1304.74 1687.66,1361.08 1701.25,1380.29 1716.53,1425.21 1733.73,1435.33 1749.55,1386.75 1767.35,1328.15 1778.48,1351.44 1790.99,1292.39 1803.1,1286.88 1816.72,1132.03 1831.62,992.455 1846.05,919.136 1858.07,877.047 1871.59,922.141 1883.88,824.178 1897.7,715.236 1910.6,667.854 1923.19,723.05 1937.36,768.621 1952.49,851.94 1963.48,783.922 1975.85,669.25 1983.92,641.035 1993,632.686 2003.21,594.76 2014.33,563.487 2025.56,504.492 2038.19,564.073 2052.41,530.888 2066.16,632.398 2071.65,628.797 2077.82,640.434 2084.76,668.258 2092.57,728.713 2101.36,830.953 2109.84,806.277 2119.38,781.955 2128.56,730.231 2138.89,684.053 2147.85,717.656 2157.93,672.828 2169.27,741.522 2177.72,784.707 2187.23,825.324 2197.93,820.926 2209.97,770.126 2223.51,876.054 2234.09,874.098 2245.99,880.615 2259.38,880.701 2273.65,958.129 2288.91,973.899 2306.09,1014.77 2325.41,998.302 2340.46,991.472 2357.38,997.828 2376.43,968.993 2397.85,1012.46 2421.95,892.402 2430.48,775.713 2440.08,794.627 2450.88,787.648 2463.04,799.108 2470.61,835.538 2479.13,821.504 2488.72,744.932 2499.51,597.716 2511.65,516.799 2525.3,532.535 2537.53,458.583 2548.84,505.674 2561.55,551.413 2575.86,472.273 2591.96,498.578 2603.85,541.155 2617.23,603.831 2632.28,702.047 2639,792.129 2646.56,816.361 2655.06,908.355 2664.63,1008.66 2675.39,1085.37 2687.5,1125.41 2701.13,1177.09 2714.66,1209.09 2729.87,1177.79 2746.99,1111.13 2766.26,1156.13 2782.31,1173.19 2800.38,1153.41 2812.17,1101.35 2825.44,1113.38 2840.36,998.703 2850.32,954.978 2861.52,971.455 2870.52,881.35 2880.65,875.461 2892.04,779.415 2904.86,736.782 2915.52,702.893 2927.51,655.084 2939.67,627.637 2953.35,513.133 2968.75,492.654 2977.36,597.891 2987.05,534.438 2994.99,536.474 3003.92,522.216 3013.97,498.589 3025.27,543.535 3037.99,565.258 3043.9,636.728 3050.55,666.509 3058.04,707.435 3066.45,778.366 3075.92,845.768 3081.5,852.965 3087.78,846.793 3094.84,899.413 3102.79,993.403 3111.73,1030.39 3121.78,1060.49 3133.09,1097.88 3145.82,1178.68 3152.76,1220.07 "/>
<polyline clip-path="url(#clip701)" style="stroke:#3da44d; stroke-linecap:round; stroke-linejoin:round; stroke-width:12; stroke-opacity:1; fill:none" points="149.853,499.15 149.853,499.151 149.854,499.231 149.854,499.863 149.855,500.223 149.855,500.581 149.856,500.734 149.857,499.779 149.857,499.739 149.858,500.184 149.859,499.991 149.86,500.366 149.862,500.399 149.863,500.003 149.865,499.689 149.866,498.418 149.869,498.473 149.871,498.897 149.873,499.839 149.876,499.593 149.88,498.447 149.883,500.482 149.887,501.739 149.892,504.343 149.897,502.903 149.903,502.583 149.91,502.373 149.917,501.033 149.926,502.845 149.935,500.948 149.946,499.005 149.958,501.115 149.971,503.011 149.986,501.762 150.003,503.341 150.022,505.395 150.044,503.487 150.068,506.502 150.095,506.749 150.126,507.23 150.161,507.228 150.199,502.411 150.243,504.219 150.292,501.272 150.347,504.451 150.41,488.246 150.48,488.385 150.558,483.381 150.647,486.281 150.746,491.239 150.858,491.927 150.984,482.442 151.126,491.559 151.286,502.401 151.465,493.972 151.667,480.868 151.894,465.142 152.149,460.35 152.437,449.184 152.76,445.623 153.124,464.841 153.533,442.666 153.993,441.971 154.511,437.768 155.094,448.645 155.749,450.955 156.487,452.988 157.316,436.906 158.25,432.406 159.299,425.49 160.481,409.597 161.809,400.652 163.304,404.69 164.986,439.048 166.878,409.93 169.007,439.875 171.401,403.078 174.095,412.206 177.126,465.758 180.535,508.892 184.371,514.174 188.686,522.831 190.337,473.422 192.195,460.8 194.285,452.209 196.637,392.168 199.282,389.607 202.258,345.149 205.606,301.685 209.372,398.792 213.549,397.299 218.249,477.884 223.536,536.657 229.483,587.267 236.175,593.666 243.702,521.309 248.304,581.516 253.482,644.148 257.43,620.138 261.872,636.61 266.869,674.435 270.536,670.614 274.662,723.29 279.304,742.771 284.526,770.848 290.4,809.791 297.009,832.221 304.445,811.348 311.263,837.313 318.934,908.842 327.564,837.817 333.762,872.609 340.735,860.737 345.856,825.002 351.618,907.079 358.1,924.3 363.32,941.505 369.193,979.746 375.8,996.717 383.232,970.375 389.764,995.123 397.111,1032.65 403.291,1006.91 410.244,992.735 418.065,1024.92 426.864,1050.35 436.763,1061.96 444.59,1049.18 453.396,1048.32 463.303,1029.15 469.706,1032.04 476.911,1023.25 485.015,1039.45 494.133,1091.96 504.391,1099.7 513.706,1188.35 521.764,1190.05 530.828,1203.93 540.995,1235.71 552.433,1255.77 561.015,1219.23 570.67,1234.37 581.482,1245.38 589.758,1235.93 599.069,1259.44 607.799,1290.4 617.621,1343.65 624.188,1315.3 631.575,1253.9 639.886,1300.23 647.555,1289.16 656.181,1282.8 664.722,1259.02 674.331,1229.37 685.141,1220.88 697.302,1194.71 707.764,1140.47 719.533,1168.21 732.774,1200.82 747.669,1081.79 760.267,977.908 766.144,874.349 772.756,811.574 779.649,852.901 787.405,797.787 796.13,732.764 805.313,695.274 814.238,676.648 824.278,647.096 833.184,644.964 843.202,648.244 851.951,599.271 861.794,481.754 872.089,549.797 882.204,537.94 893.45,568.118 905.577,601.954 919.219,455.097 931.649,508.322 945.633,416.728 958.928,279.298 972.43,311.757 987.621,292.25 1004.71,535.338 1015.71,575.982 1028.08,617.555 1042,555.383 1054.47,521.397 1068.5,653.382 1078.24,641.386 1089.19,618.086 1101.51,628.902 1109.03,663.387 1117.5,639.055 1127.03,718.098 1137.74,756.894 1147.78,752.385 1159.08,813.951 1171.78,869.402 1181.85,1003.24 1193.17,1040.76 1200.71,1020.29 1209.19,1046.68 1218.73,1068.53 1229.46,1121.59 1241.54,1165.97 1252.18,1190.17 1264.15,1252.4 1272.99,1239 1282.92,1227.61 1292.86,1248.03 1304.04,1272.02 1313.86,1307.45 1323.81,1373.4 1332.95,1372.92 1342.68,1321.42 1351.76,1297.17 1361.08,1282.19 1370.68,1243.96 1381.48,1217.47 1391.24,1208.35 1402.23,1133.65 1412.85,1111.34 1424.8,1146.83 1434.9,1059.93 1446.27,1011.14 1459.05,999.729 1469.83,1021.36 1481.96,996.433 1495.6,1004.37 1510.94,942.22 1528.2,1100.31 1543.58,1019.78 1560.87,949.767 1580.32,972.515 1602.21,965.054 1624.9,909.936 1650.42,841.915 1668.01,826.003 1677.05,834.236 1687.22,845.783 1698.66,824.05 1711.54,810.713 1726.02,811.871 1742.31,833.67 1760.64,974.774 1781.26,1007.19 1789.35,1032.88 1798.45,993.745 1808.69,1088.65 1820.21,1065.95 1833.17,1032.08 1845.04,1041.58 1857.24,1038.63 1869.71,971.128 1883.74,956.064 1896.94,981.465 1910.05,1025.01 1924.81,1070.79 1937.22,1060.95 1951.19,1073.11 1966.35,998.716 1983.39,941.642 1988.96,909.917 1995.22,891.801 2002.26,823.328 2010.19,804.775 2019.1,830.648 2029.13,775.496 2040.41,764.258 2047.45,701.125 2055.38,658.967 2064.29,642.609 2074.32,600.533 2085.6,643.996 2098.29,483.96 2112.57,401.114 2128.63,503.772 2139.92,515.342 2152.63,494.298 2166.93,511.456 2176.72,533.479 2187.75,433.037 2200.14,423.897 2214.09,403.502 2229.78,409.401 2246.62,460.421 2265.57,543.849 2278.61,537.812 2293.29,573.956 2309.8,606.028 2327.84,689.507 2346.04,721.254 2358.76,777.588 2373.08,793.128 2382.33,821.526 2392.73,906.478 2404.44,941.485 2417.61,1084.75 2427.58,1079.91 2438.8,1017.78 2451.41,938.724 2465.6,955.43 2481.57,959.67 2497.8,972.943 2516.05,1072.84 2529.96,1038.67 2545.61,1062.44 2561.91,1118.38 2578.13,1055.53 2591.94,1020.66 2607.48,1001.88 2624.95,913.991 2644.61,877.472 2666.73,836.009 2674.03,816.409 2682.24,833.525 2691.48,787.731 2701.87,737.19 2711.01,817.733 2721.28,812.498 2732.85,781.184 2745.83,804.851 2760.44,770.777 2775.41,774.888 2788.34,837.586 2802.89,885.089 2814.75,893.667 2828.09,992.387 2839.08,998.467 2847.36,1001.22 2856.68,1017.55 2867.16,1047.41 2878.95,1055.84 2889.43,1004.49 2901.22,1039.45 2914.47,1045.26 2924.86,1062.88 2933.33,1019.73 2942.86,1015.73 2953.58,977.654 2956.97,961.821 2960.78,959.866 2963.97,1007.94 2967.57,963.769 2971.61,938.949 2976.16,877.819 2981.27,851.507 2987.03,819.81 2993.5,863.96 3000.79,832.509 3008.98,768.815 3018.2,717.593 3028.58,723.762 3040.25,626.339 3053.37,571.068 3068.14,803.745 3078.96,882.819 3091.12,902.86 3104.81,921.94 3120.21,986.3 3131.58,1022.04 3141.69,998.396 3148.52,1051.37 3152.76,1104.86 "/>
<polyline clip-path="url(#clip701)" style="stroke:#c271d2; stroke-linecap:round; stroke-linejoin:round; stroke-width:12; stroke-opacity:1; fill:none" points="149.853,499.15 149.853,499.427 149.854,499.993 149.854,499.682 149.855,499.854 149.855,500.12 149.856,499.853 149.857,499.298 149.857,499.572 149.858,500.454 149.859,500.354 149.86,500.434 149.862,500.546 149.863,501.819 149.865,501.443 149.866,501.283 149.869,501.186 149.871,501.26 149.873,500.82 149.876,501.4 149.88,500.836 149.883,501.584 149.887,500.937 149.892,503.452 149.897,502.712 149.903,501.907 149.91,502.278 149.917,501.888 149.926,502.521 149.935,503.939 149.946,505.104 149.958,500.569 149.971,503.924 149.986,502.476 150.003,503.948 150.022,508.357 150.044,503.078 150.068,501.521 150.095,511.293 150.126,509.858 150.161,511.254 150.199,504.829 150.243,500.482 150.292,503.004 150.347,503.802 150.41,509.146 150.48,503.466 150.558,503.147 150.647,499.197 150.746,484.997 150.858,477.326 150.984,482.688 151.126,490.857 151.286,484.551 151.465,477.933 151.667,477.498 151.894,451.54 152.149,456.577 152.437,445.811 152.76,439.157 153.124,443.379 153.533,446.782 153.993,442.593 154.511,408.742 155.094,427.685 155.749,449.155 156.487,481.76 157.316,510.15 158.25,473.242 159.299,471.451 160.481,436.251 161.809,448.717 163.304,441.367 164.986,454.576 166.878,406.239 169.007,420.48 171.401,367.897 174.025,359.882 176.976,382.039 180.296,314.337 184.032,278.666 188.234,307.613 192.961,320.3 198.28,318.142 204.263,372.535 210.994,396.339 218.567,440.636 227.086,459.913 236.67,600.897 247.452,609.372 259.581,625.696 270.343,702.687 282.021,770.303 295.158,870.769 305.943,923.463 315.98,972.458 327.271,940.009 335.387,1000.15 344.519,1001.02 354.792,1063.02 366.349,1155.87 376.918,1164.15 384.696,1173.39 393.445,1204.09 403.288,1208.77 412.83,1238.86 421.593,1265.2 431.451,1285.44 438.069,1292.78 445.514,1309.89 451.287,1331.2 457.781,1326.88 465.088,1306.75 472.71,1347.94 481.285,1316.02 487.573,1330.22 494.647,1288.63 502.606,1279.04 511.559,1243.94 521.631,1216.61 532.34,1215.03 542.953,1234.74 554.892,1254.17 567.744,1251.39 577.796,1239.28 589.105,1317.3 599.69,1210.23 611.598,1191.27 624.995,1066.62 636.228,979.293 648.866,876.168 654.985,861.687 661.869,901.12 669.614,780.016 678.326,717.2 688.128,680.116 697.585,772.012 708.224,801.802 719.94,620.835 733.121,624.394 743.695,636.224 755.591,574.803 767.168,545.332 780.191,604.372 794.842,631.007 811.325,606.91 828.155,583.453 847.088,693.524 867.168,728.378 883.741,728.097 898.976,724.478 914.969,764.652 931.55,789.217 944.035,887.751 958.079,923.523 969.839,993.29 983.068,1059.74 997.951,1029.6 1010.71,1022.45 1023.05,1025.14 1036.94,987.239 1052.45,1048.8 1069.9,1131.53 1079.18,1178 1089.61,1182.71 1101.35,1155.21 1113.93,1135.48 1128.09,1130.39 1140.35,1162.84 1154.15,1068.14 1164.61,937.552 1176.37,944.753 1189.61,990.99 1204.49,972.652 1221.25,851.35 1230.24,951.419 1240.36,834.294 1251.74,813.328 1263.95,707.628 1277.69,660.157 1293.14,565.329 1309.81,447.384 1320.92,583.298 1333.41,759.818 1346.66,763.599 1357.61,748.772 1369.92,767.392 1382.54,792.671 1396.73,861.031 1412.7,955.152 1428.14,999.749 1445.52,986.687 1458.57,938.602 1473.24,914.11 1489.75,973.58 1508.32,1002.4 1522.37,996.775 1538.17,1097.32 1555.94,1069.48 1565.81,1086.1 1576.92,1142.68 1589.42,1088.84 1601.59,1125.51 1612.85,1011.34 1619.02,1021.14 1625.97,1001.14 1633.78,950.081 1642.56,927.495 1652.45,904.43 1663.57,767.296 1676.08,678.608 1685.55,750.505 1696.21,655.419 1708.2,688.342 1720.23,643.592 1733.75,661.407 1748.97,610.145 1759.54,573.108 1771.43,550.145 1784.8,561.86 1799.85,654.378 1814.77,646.86 1831.55,794.1 1850.43,851.608 1871.67,892.177 1885.92,993.947 1901.95,981.565 1908.89,913.982 1916.71,929.758 1925.5,959.545 1935.4,991.248 1946.53,1089.53 1959.05,1164.57 1967.65,1170.34 1977.32,1121 1988.21,1096.22 2000.46,934.879 2014.23,868.699 2020.67,819.71 2027.92,857.612 2036.07,833.611 2045.24,815.027 2055.56,792.127 2064.2,732.061 2073.91,694.936 2084.04,732.761 2095.43,722.144 2108.24,747.128 2120.82,676.158 2134.97,623.951 2150.89,668.766 2165.46,650.198 2181.85,703.918 2200.29,770.124 2217.6,819.224 2237.08,900.304 2258.99,866.017 2283.64,923.247 2293.36,962.562 2304.29,989.989 2316.59,1022.87 2328.64,1026.45 2342.19,1047.54 2355.24,1125.5 2369.93,1122.65 2378.49,1175.87 2388.13,1261.93 2396.81,1281.35 2406.57,1294.22 2415.15,1338.97 2424.81,1399.81 2432.6,1355.42 2441.37,1341.94 2450.92,1264.67 2461.67,1160.78 2472.54,1152.53 2484.77,1110.88 2498.52,972.943 2514,906.522 2526.3,943.157 2540.13,908.651 2555.7,849.946 2573.21,873.572 2583.29,823.06 2594.64,722.597 2607.41,701.919 2619.81,793.747 2633.75,821.367 2649.44,965.932 2667.1,1001.77 2676.88,1004.28 2687.88,978.523 2700.26,1004.39 2709.28,1000.78 2719.43,931.845 2730.84,928.6 2739.65,921.768 2749.56,879.921 2760.71,929.067 2773.26,904.507 2787.37,944.281 2803.25,960.241 2817.34,974.878 2830.26,953.513 2844.8,1012.81 2861.15,1067.96 2872.97,984.784 2880.46,1008.07 2888.89,1063.21 2898.38,1058.88 2906.12,1082.22 2914.82,1139.04 2924.62,1165.28 2935.64,1123.84 2948.04,1056.92 2961.99,998.135 2977.68,1024.8 2995.33,982.26 3010.71,942.022 3028,814.009 3040.68,654.77 3054.93,575.65 3069.22,545.87 3085.3,514.235 3103.38,579.502 3123.73,682.747 3142.83,775.089 3152.76,892.333 "/>
</svg>
