<?xml version="1.0" encoding="utf-8"?>
<svg xmlns="http://www.w3.org/2000/svg" xmlns:xlink="http://www.w3.org/1999/xlink" width="800" height="400" viewBox="0 0 3200 1600">
<defs>
  <clipPath id="clip580">
    <rect x="0" y="0" width="3200" height="1600"/>
  </clipPath>
</defs>
<path clip-path="url(#clip580)" d="M0 1600 L3200 1600 L3200 0 L0 0  Z" fill="#ffffff" fill-rule="evenodd" fill-opacity="1"/>
<defs>
  <clipPath id="clip581">
    <rect x="640" y="0" width="2241" height="1600"/>
  </clipPath>
</defs>
<path clip-path="url(#clip580)" d="M197.097 1396.46 L3152.76 1396.46 L3152.76 47.2441 L197.097 47.2441  Z" fill="#ffffff" fill-rule="evenodd" fill-opacity="1"/>
<defs>
  <clipPath id="clip582">
    <rect x="197" y="47" width="2957" height="1350"/>
  </clipPath>
</defs>
<polyline clip-path="url(#clip582)" style="stroke:#000000; stroke-linecap:round; stroke-linejoin:round; stroke-width:2; stroke-opacity:0.1; fill:none" points="197.097,1396.46 197.097,47.2441 "/>
<polyline clip-path="url(#clip582)" style="stroke:#000000; stroke-linecap:round; stroke-linejoin:round; stroke-width:2; stroke-opacity:0.1; fill:none" points="936.012,1396.46 936.012,47.2441 "/>
<polyline clip-path="url(#clip582)" style="stroke:#000000; stroke-linecap:round; stroke-linejoin:round; stroke-width:2; stroke-opacity:0.1; fill:none" points="1674.93,1396.46 1674.93,47.2441 "/>
<polyline clip-path="url(#clip582)" style="stroke:#000000; stroke-linecap:round; stroke-linejoin:round; stroke-width:2; stroke-opacity:0.1; fill:none" points="2413.84,1396.46 2413.84,47.2441 "/>
<polyline clip-path="url(#clip582)" style="stroke:#000000; stroke-linecap:round; stroke-linejoin:round; stroke-width:2; stroke-opacity:0.1; fill:none" points="3152.76,1396.46 3152.76,47.2441 "/>
<polyline clip-path="url(#clip582)" style="stroke:#000000; stroke-linecap:round; stroke-linejoin:round; stroke-width:2; stroke-opacity:0.1; fill:none" points="197.097,1396.46 197.097,47.2441 "/>
<polyline clip-path="url(#clip582)" style="stroke:#000000; stroke-linecap:round; stroke-linejoin:round; stroke-width:2; stroke-opacity:0.1; fill:none" points="936.012,1396.46 936.012,47.2441 "/>
<polyline clip-path="url(#clip582)" style="stroke:#000000; stroke-linecap:round; stroke-linejoin:round; stroke-width:2; stroke-opacity:0.1; fill:none" points="1674.93,1396.46 1674.93,47.2441 "/>
<polyline clip-path="url(#clip582)" style="stroke:#000000; stroke-linecap:round; stroke-linejoin:round; stroke-width:2; stroke-opacity:0.1; fill:none" points="2413.84,1396.46 2413.84,47.2441 "/>
<polyline clip-path="url(#clip582)" style="stroke:#000000; stroke-linecap:round; stroke-linejoin:round; stroke-width:2; stroke-opacity:0.1; fill:none" points="3152.76,1396.46 3152.76,47.2441 "/>
<polyline clip-path="url(#clip582)" style="stroke:#000000; stroke-linecap:round; stroke-linejoin:round; stroke-width:2; stroke-opacity:0.1; fill:none" points="197.097,1170.05 3152.76,1170.05 "/>
<polyline clip-path="url(#clip582)" style="stroke:#000000; stroke-linecap:round; stroke-linejoin:round; stroke-width:2; stroke-opacity:0.1; fill:none" points="197.097,823.182 3152.76,823.182 "/>
<polyline clip-path="url(#clip582)" style="stroke:#000000; stroke-linecap:round; stroke-linejoin:round; stroke-width:2; stroke-opacity:0.1; fill:none" points="197.097,476.311 3152.76,476.311 "/>
<polyline clip-path="url(#clip582)" style="stroke:#000000; stroke-linecap:round; stroke-linejoin:round; stroke-width:2; stroke-opacity:0.1; fill:none" points="197.097,129.44 3152.76,129.44 "/>
<polyline clip-path="url(#clip582)" style="stroke:#000000; stroke-linecap:round; stroke-linejoin:round; stroke-width:2; stroke-opacity:0.1; fill:none" points="197.097,1170.05 3152.76,1170.05 "/>
<polyline clip-path="url(#clip582)" style="stroke:#000000; stroke-linecap:round; stroke-linejoin:round; stroke-width:2; stroke-opacity:0.1; fill:none" points="197.097,823.182 3152.76,823.182 "/>
<polyline clip-path="url(#clip582)" style="stroke:#000000; stroke-linecap:round; stroke-linejoin:round; stroke-width:2; stroke-opacity:0.1; fill:none" points="197.097,476.311 3152.76,476.311 "/>
<polyline clip-path="url(#clip582)" style="stroke:#000000; stroke-linecap:round; stroke-linejoin:round; stroke-width:2; stroke-opacity:0.1; fill:none" points="197.097,129.44 3152.76,129.44 "/>
<polyline clip-path="url(#clip580)" style="stroke:#000000; stroke-linecap:round; stroke-linejoin:round; stroke-width:4; stroke-opacity:1; fill:none" points="197.097,1396.46 3152.76,1396.46 "/>
<polyline clip-path="url(#clip580)" style="stroke:#000000; stroke-linecap:round; stroke-linejoin:round; stroke-width:4; stroke-opacity:1; fill:none" points="197.097,47.2441 3152.76,47.2441 "/>
<polyline clip-path="url(#clip580)" style="stroke:#000000; stroke-linecap:round; stroke-linejoin:round; stroke-width:4; stroke-opacity:1; fill:none" points="197.097,1396.46 197.097,1377.56 "/>
<polyline clip-path="url(#clip580)" style="stroke:#000000; stroke-linecap:round; stroke-linejoin:round; stroke-width:4; stroke-opacity:1; fill:none" points="936.012,1396.46 936.012,1377.56 "/>
<polyline clip-path="url(#clip580)" style="stroke:#000000; stroke-linecap:round; stroke-linejoin:round; stroke-width:4; stroke-opacity:1; fill:none" points="1674.93,1396.46 1674.93,1377.56 "/>
<polyline clip-path="url(#clip580)" style="stroke:#000000; stroke-linecap:round; stroke-linejoin:round; stroke-width:4; stroke-opacity:1; fill:none" points="2413.84,1396.46 2413.84,1377.56 "/>
<polyline clip-path="url(#clip580)" style="stroke:#000000; stroke-linecap:round; stroke-linejoin:round; stroke-width:4; stroke-opacity:1; fill:none" points="3152.76,1396.46 3152.76,1377.56 "/>
<polyline clip-path="url(#clip580)" style="stroke:#000000; stroke-linecap:round; stroke-linejoin:round; stroke-width:4; stroke-opacity:1; fill:none" points="197.097,47.2441 197.097,66.1417 "/>
<polyline clip-path="url(#clip580)" style="stroke:#000000; stroke-linecap:round; stroke-linejoin:round; stroke-width:4; stroke-opacity:1; fill:none" points="936.012,47.2441 936.012,66.1417 "/>
<polyline clip-path="url(#clip580)" style="stroke:#000000; stroke-linecap:round; stroke-linejoin:round; stroke-width:4; stroke-opacity:1; fill:none" points="1674.93,47.2441 1674.93,66.1417 "/>
<polyline clip-path="url(#clip580)" style="stroke:#000000; stroke-linecap:round; stroke-linejoin:round; stroke-width:4; stroke-opacity:1; fill:none" points="2413.84,47.2441 2413.84,66.1417 "/>
<polyline clip-path="url(#clip580)" style="stroke:#000000; stroke-linecap:round; stroke-linejoin:round; stroke-width:4; stroke-opacity:1; fill:none" points="3152.76,47.2441 3152.76,66.1417 "/>
<path clip-path="url(#clip580)" d="M197.097 1433.77 Q193.486 1433.77 191.657 1437.34 Q189.852 1440.88 189.852 1448.01 Q189.852 1455.12 191.657 1458.68 Q193.486 1462.22 197.097 1462.22 Q200.731 1462.22 202.537 1458.68 Q204.366 1455.12 204.366 1448.01 Q204.366 1440.88 202.537 1437.34 Q200.731 1433.77 197.097 1433.77 M197.097 1430.07 Q202.907 1430.07 205.963 1434.68 Q209.041 1439.26 209.041 1448.01 Q209.041 1456.74 205.963 1461.34 Q202.907 1465.93 197.097 1465.93 Q191.287 1465.93 188.208 1461.34 Q185.153 1456.74 185.153 1448.01 Q185.153 1439.26 188.208 1434.68 Q191.287 1430.07 197.097 1430.07 Z" fill="#000000" fill-rule="nonzero" fill-opacity="1" /><path clip-path="url(#clip580)" d="M910.711 1430.7 L929.067 1430.7 L929.067 1434.63 L914.993 1434.63 L914.993 1443.1 Q916.012 1442.76 917.03 1442.59 Q918.049 1442.41 919.067 1442.41 Q924.854 1442.41 928.234 1445.58 Q931.614 1448.75 931.614 1454.17 Q931.614 1459.75 928.141 1462.85 Q924.669 1465.93 918.35 1465.93 Q916.174 1465.93 913.905 1465.56 Q911.66 1465.19 909.253 1464.45 L909.253 1459.75 Q911.336 1460.88 913.558 1461.44 Q915.78 1461.99 918.257 1461.99 Q922.262 1461.99 924.6 1459.89 Q926.938 1457.78 926.938 1454.17 Q926.938 1450.56 924.6 1448.45 Q922.262 1446.34 918.257 1446.34 Q916.382 1446.34 914.507 1446.76 Q912.655 1447.18 910.711 1448.06 L910.711 1430.7 Z" fill="#000000" fill-rule="nonzero" fill-opacity="1" /><path clip-path="url(#clip580)" d="M950.826 1433.77 Q947.215 1433.77 945.387 1437.34 Q943.581 1440.88 943.581 1448.01 Q943.581 1455.12 945.387 1458.68 Q947.215 1462.22 950.826 1462.22 Q954.461 1462.22 956.266 1458.68 Q958.095 1455.12 958.095 1448.01 Q958.095 1440.88 956.266 1437.34 Q954.461 1433.77 950.826 1433.77 M950.826 1430.07 Q956.637 1430.07 959.692 1434.68 Q962.771 1439.26 962.771 1448.01 Q962.771 1456.74 959.692 1461.34 Q956.637 1465.93 950.826 1465.93 Q945.016 1465.93 941.938 1461.34 Q938.882 1456.74 938.882 1448.01 Q938.882 1439.26 941.938 1434.68 Q945.016 1430.07 950.826 1430.07 Z" fill="#000000" fill-rule="nonzero" fill-opacity="1" /><path clip-path="url(#clip580)" d="M1634.53 1461.32 L1642.17 1461.32 L1642.17 1434.95 L1633.86 1436.62 L1633.86 1432.36 L1642.13 1430.7 L1646.8 1430.7 L1646.8 1461.32 L1654.44 1461.32 L1654.44 1465.26 L1634.53 1465.26 L1634.53 1461.32 Z" fill="#000000" fill-rule="nonzero" fill-opacity="1" /><path clip-path="url(#clip580)" d="M1673.88 1433.77 Q1670.27 1433.77 1668.45 1437.34 Q1666.64 1440.88 1666.64 1448.01 Q1666.64 1455.12 1668.45 1458.68 Q1670.27 1462.22 1673.88 1462.22 Q1677.52 1462.22 1679.32 1458.68 Q1681.15 1455.12 1681.15 1448.01 Q1681.15 1440.88 1679.32 1437.34 Q1677.52 1433.77 1673.88 1433.77 M1673.88 1430.07 Q1679.69 1430.07 1682.75 1434.68 Q1685.83 1439.26 1685.83 1448.01 Q1685.83 1456.74 1682.75 1461.34 Q1679.69 1465.93 1673.88 1465.93 Q1668.07 1465.93 1665 1461.34 Q1661.94 1456.74 1661.94 1448.01 Q1661.94 1439.26 1665 1434.68 Q1668.07 1430.07 1673.88 1430.07 Z" fill="#000000" fill-rule="nonzero" fill-opacity="1" /><path clip-path="url(#clip580)" d="M1704.05 1433.77 Q1700.44 1433.77 1698.61 1437.34 Q1696.8 1440.88 1696.8 1448.01 Q1696.8 1455.12 1698.61 1458.68 Q1700.44 1462.22 1704.05 1462.22 Q1707.68 1462.22 1709.49 1458.68 Q1711.32 1455.12 1711.32 1448.01 Q1711.32 1440.88 1709.49 1437.34 Q1707.68 1433.77 1704.05 1433.77 M1704.05 1430.07 Q1709.86 1430.07 1712.91 1434.68 Q1715.99 1439.26 1715.99 1448.01 Q1715.99 1456.74 1712.91 1461.34 Q1709.86 1465.93 1704.05 1465.93 Q1698.24 1465.93 1695.16 1461.34 Q1692.1 1456.74 1692.1 1448.01 Q1692.1 1439.26 1695.16 1434.68 Q1698.24 1430.07 1704.05 1430.07 Z" fill="#000000" fill-rule="nonzero" fill-opacity="1" /><path clip-path="url(#clip580)" d="M2373.45 1461.32 L2381.09 1461.32 L2381.09 1434.95 L2372.78 1436.62 L2372.78 1432.36 L2381.04 1430.7 L2385.72 1430.7 L2385.72 1461.32 L2393.36 1461.32 L2393.36 1465.26 L2373.45 1465.26 L2373.45 1461.32 Z" fill="#000000" fill-rule="nonzero" fill-opacity="1" /><path clip-path="url(#clip580)" d="M2402.85 1430.7 L2421.2 1430.7 L2421.2 1434.63 L2407.13 1434.63 L2407.13 1443.1 Q2408.15 1442.76 2409.17 1442.59 Q2410.18 1442.41 2411.2 1442.41 Q2416.99 1442.41 2420.37 1445.58 Q2423.75 1448.75 2423.75 1454.17 Q2423.75 1459.75 2420.28 1462.85 Q2416.8 1465.93 2410.48 1465.93 Q2408.31 1465.93 2406.04 1465.56 Q2403.79 1465.19 2401.39 1464.45 L2401.39 1459.75 Q2403.47 1460.88 2405.69 1461.44 Q2407.92 1461.99 2410.39 1461.99 Q2414.4 1461.99 2416.73 1459.89 Q2419.07 1457.78 2419.07 1454.17 Q2419.07 1450.56 2416.73 1448.45 Q2414.4 1446.34 2410.39 1446.34 Q2408.52 1446.34 2406.64 1446.76 Q2404.79 1447.18 2402.85 1448.06 L2402.85 1430.7 Z" fill="#000000" fill-rule="nonzero" fill-opacity="1" /><path clip-path="url(#clip580)" d="M2442.96 1433.77 Q2439.35 1433.77 2437.52 1437.34 Q2435.72 1440.88 2435.72 1448.01 Q2435.72 1455.12 2437.52 1458.68 Q2439.35 1462.22 2442.96 1462.22 Q2446.6 1462.22 2448.4 1458.68 Q2450.23 1455.12 2450.23 1448.01 Q2450.23 1440.88 2448.4 1437.34 Q2446.6 1433.77 2442.96 1433.77 M2442.96 1430.07 Q2448.77 1430.07 2451.83 1434.68 Q2454.91 1439.26 2454.91 1448.01 Q2454.91 1456.74 2451.83 1461.34 Q2448.77 1465.93 2442.96 1465.93 Q2437.15 1465.93 2434.07 1461.34 Q2431.02 1456.74 2431.02 1448.01 Q2431.02 1439.26 2434.07 1434.68 Q2437.15 1430.07 2442.96 1430.07 Z" fill="#000000" fill-rule="nonzero" fill-opacity="1" /><path clip-path="url(#clip580)" d="M3116.45 1461.32 L3132.77 1461.32 L3132.77 1465.26 L3110.82 1465.26 L3110.82 1461.32 Q3113.49 1458.57 3118.07 1453.94 Q3122.68 1449.28 3123.86 1447.94 Q3126.1 1445.42 3126.98 1443.68 Q3127.88 1441.92 3127.88 1440.23 Q3127.88 1437.48 3125.94 1435.74 Q3124.02 1434.01 3120.92 1434.01 Q3118.72 1434.01 3116.26 1434.77 Q3113.83 1435.53 3111.05 1437.08 L3111.05 1432.36 Q3113.88 1431.23 3116.33 1430.65 Q3118.79 1430.07 3120.82 1430.07 Q3126.19 1430.07 3129.39 1432.76 Q3132.58 1435.44 3132.58 1439.93 Q3132.58 1442.06 3131.77 1443.98 Q3130.99 1445.88 3128.88 1448.47 Q3128.3 1449.14 3125.2 1452.36 Q3122.1 1455.56 3116.45 1461.32 Z" fill="#000000" fill-rule="nonzero" fill-opacity="1" /><path clip-path="url(#clip580)" d="M3152.58 1433.77 Q3148.97 1433.77 3147.14 1437.34 Q3145.34 1440.88 3145.34 1448.01 Q3145.34 1455.12 3147.14 1458.68 Q3148.97 1462.22 3152.58 1462.22 Q3156.22 1462.22 3158.02 1458.68 Q3159.85 1455.12 3159.85 1448.01 Q3159.85 1440.88 3158.02 1437.34 Q3156.22 1433.77 3152.58 1433.77 M3152.58 1430.07 Q3158.39 1430.07 3161.45 1434.68 Q3164.53 1439.26 3164.53 1448.01 Q3164.53 1456.74 3161.45 1461.34 Q3158.39 1465.93 3152.58 1465.93 Q3146.77 1465.93 3143.69 1461.34 Q3140.64 1456.74 3140.64 1448.01 Q3140.64 1439.26 3143.69 1434.68 Q3146.77 1430.07 3152.58 1430.07 Z" fill="#000000" fill-rule="nonzero" fill-opacity="1" /><path clip-path="url(#clip580)" d="M3182.74 1433.77 Q3179.13 1433.77 3177.3 1437.34 Q3175.5 1440.88 3175.5 1448.01 Q3175.5 1455.12 3177.3 1458.68 Q3179.13 1462.22 3182.74 1462.22 Q3186.38 1462.22 3188.18 1458.68 Q3190.01 1455.12 3190.01 1448.01 Q3190.01 1440.88 3188.18 1437.34 Q3186.38 1433.77 3182.74 1433.77 M3182.74 1430.07 Q3188.55 1430.07 3191.61 1434.68 Q3194.69 1439.26 3194.69 1448.01 Q3194.69 1456.74 3191.61 1461.34 Q3188.55 1465.93 3182.74 1465.93 Q3176.93 1465.93 3173.86 1461.34 Q3170.8 1456.74 3170.8 1448.01 Q3170.8 1439.26 3173.86 1434.68 Q3176.93 1430.07 3182.74 1430.07 Z" fill="#000000" fill-rule="nonzero" fill-opacity="1" /><path clip-path="url(#clip580)" d="M1673.99 1507.55 L1673.99 1517.67 L1686.05 1517.67 L1686.05 1522.22 L1673.99 1522.22 L1673.99 1541.58 Q1673.99 1545.94 1675.17 1547.18 Q1676.37 1548.42 1680.03 1548.42 L1686.05 1548.42 L1686.05 1553.32 L1680.03 1553.32 Q1673.26 1553.32 1670.68 1550.81 Q1668.1 1548.26 1668.1 1541.58 L1668.1 1522.22 L1663.8 1522.22 L1663.8 1517.67 L1668.1 1517.67 L1668.1 1507.55 L1673.99 1507.55 Z" fill="#000000" fill-rule="nonzero" fill-opacity="1" /><polyline clip-path="url(#clip580)" style="stroke:#000000; stroke-linecap:round; stroke-linejoin:round; stroke-width:4; stroke-opacity:1; fill:none" points="197.097,1396.46 197.097,47.2441 "/>
<polyline clip-path="url(#clip580)" style="stroke:#000000; stroke-linecap:round; stroke-linejoin:round; stroke-width:4; stroke-opacity:1; fill:none" points="3152.76,1396.46 3152.76,47.2441 "/>
<polyline clip-path="url(#clip580)" style="stroke:#000000; stroke-linecap:round; stroke-linejoin:round; stroke-width:4; stroke-opacity:1; fill:none" points="197.097,1170.05 215.995,1170.05 "/>
<polyline clip-path="url(#clip580)" style="stroke:#000000; stroke-linecap:round; stroke-linejoin:round; stroke-width:4; stroke-opacity:1; fill:none" points="197.097,823.182 215.995,823.182 "/>
<polyline clip-path="url(#clip580)" style="stroke:#000000; stroke-linecap:round; stroke-linejoin:round; stroke-width:4; stroke-opacity:1; fill:none" points="197.097,476.311 215.995,476.311 "/>
<polyline clip-path="url(#clip580)" style="stroke:#000000; stroke-linecap:round; stroke-linejoin:round; stroke-width:4; stroke-opacity:1; fill:none" points="197.097,129.44 215.995,129.44 "/>
<polyline clip-path="url(#clip580)" style="stroke:#000000; stroke-linecap:round; stroke-linejoin:round; stroke-width:4; stroke-opacity:1; fill:none" points="3152.76,1170.05 3133.86,1170.05 "/>
<polyline clip-path="url(#clip580)" style="stroke:#000000; stroke-linecap:round; stroke-linejoin:round; stroke-width:4; stroke-opacity:1; fill:none" points="3152.76,823.182 3133.86,823.182 "/>
<polyline clip-path="url(#clip580)" style="stroke:#000000; stroke-linecap:round; stroke-linejoin:round; stroke-width:4; stroke-opacity:1; fill:none" points="3152.76,476.311 3133.86,476.311 "/>
<polyline clip-path="url(#clip580)" style="stroke:#000000; stroke-linecap:round; stroke-linejoin:round; stroke-width:4; stroke-opacity:1; fill:none" points="3152.76,129.44 3133.86,129.44 "/>
<path clip-path="url(#clip580)" d="M101.019 1183.4 L117.338 1183.4 L117.338 1187.33 L95.3936 1187.33 L95.3936 1183.4 Q98.0556 1180.64 102.639 1176.01 Q107.245 1171.36 108.426 1170.02 Q110.671 1167.49 111.551 1165.76 Q112.454 1164 112.454 1162.31 Q112.454 1159.55 110.509 1157.82 Q108.588 1156.08 105.486 1156.08 Q103.287 1156.08 100.833 1156.85 Q98.4029 1157.61 95.6251 1159.16 L95.6251 1154.44 Q98.4492 1153.3 100.903 1152.73 Q103.357 1152.15 105.394 1152.15 Q110.764 1152.15 113.958 1154.83 Q117.153 1157.52 117.153 1162.01 Q117.153 1164.14 116.343 1166.06 Q115.556 1167.96 113.449 1170.55 Q112.87 1171.22 109.769 1174.44 Q106.667 1177.63 101.019 1183.4 Z" fill="#000000" fill-rule="nonzero" fill-opacity="1" /><path clip-path="url(#clip580)" d="M137.153 1155.85 Q133.542 1155.85 131.713 1159.42 Q129.907 1162.96 129.907 1170.09 Q129.907 1177.19 131.713 1180.76 Q133.542 1184.3 137.153 1184.3 Q140.787 1184.3 142.592 1180.76 Q144.421 1177.19 144.421 1170.09 Q144.421 1162.96 142.592 1159.42 Q140.787 1155.85 137.153 1155.85 M137.153 1152.15 Q142.963 1152.15 146.018 1156.75 Q149.097 1161.34 149.097 1170.09 Q149.097 1178.81 146.018 1183.42 Q142.963 1188 137.153 1188 Q131.343 1188 128.264 1183.42 Q125.208 1178.81 125.208 1170.09 Q125.208 1161.34 128.264 1156.75 Q131.343 1152.15 137.153 1152.15 Z" fill="#000000" fill-rule="nonzero" fill-opacity="1" /><path clip-path="url(#clip580)" d="M111.157 821.828 Q114.514 822.545 116.389 824.814 Q118.287 827.082 118.287 830.416 Q118.287 835.531 114.769 838.332 Q111.25 841.133 104.769 841.133 Q102.593 841.133 100.278 840.693 Q97.9862 840.277 95.5325 839.42 L95.5325 834.906 Q97.4769 836.04 99.7917 836.619 Q102.107 837.198 104.63 837.198 Q109.028 837.198 111.319 835.462 Q113.634 833.726 113.634 830.416 Q113.634 827.36 111.481 825.647 Q109.352 823.911 105.532 823.911 L101.505 823.911 L101.505 820.068 L105.718 820.068 Q109.167 820.068 110.995 818.703 Q112.824 817.314 112.824 814.721 Q112.824 812.059 110.926 810.647 Q109.051 809.212 105.532 809.212 Q103.611 809.212 101.412 809.629 Q99.213 810.045 96.5742 810.925 L96.5742 806.758 Q99.2362 806.017 101.551 805.647 Q103.889 805.277 105.949 805.277 Q111.273 805.277 114.375 807.707 Q117.477 810.115 117.477 814.235 Q117.477 817.105 115.833 819.096 Q114.19 821.064 111.157 821.828 Z" fill="#000000" fill-rule="nonzero" fill-opacity="1" /><path clip-path="url(#clip580)" d="M137.153 808.98 Q133.542 808.98 131.713 812.545 Q129.907 816.087 129.907 823.216 Q129.907 830.323 131.713 833.888 Q133.542 837.429 137.153 837.429 Q140.787 837.429 142.592 833.888 Q144.421 830.323 144.421 823.216 Q144.421 816.087 142.592 812.545 Q140.787 808.98 137.153 808.98 M137.153 805.277 Q142.963 805.277 146.018 809.883 Q149.097 814.467 149.097 823.216 Q149.097 831.943 146.018 836.55 Q142.963 841.133 137.153 841.133 Q131.343 841.133 128.264 836.55 Q125.208 831.943 125.208 823.216 Q125.208 814.467 128.264 809.883 Q131.343 805.277 137.153 805.277 Z" fill="#000000" fill-rule="nonzero" fill-opacity="1" /><path clip-path="url(#clip580)" d="M109.838 463.105 L98.0325 481.554 L109.838 481.554 L109.838 463.105 M108.611 459.031 L114.491 459.031 L114.491 481.554 L119.421 481.554 L119.421 485.443 L114.491 485.443 L114.491 493.591 L109.838 493.591 L109.838 485.443 L94.2362 485.443 L94.2362 480.929 L108.611 459.031 Z" fill="#000000" fill-rule="nonzero" fill-opacity="1" /><path clip-path="url(#clip580)" d="M137.153 462.11 Q133.542 462.11 131.713 465.674 Q129.907 469.216 129.907 476.346 Q129.907 483.452 131.713 487.017 Q133.542 490.559 137.153 490.559 Q140.787 490.559 142.592 487.017 Q144.421 483.452 144.421 476.346 Q144.421 469.216 142.592 465.674 Q140.787 462.11 137.153 462.11 M137.153 458.406 Q142.963 458.406 146.018 463.012 Q149.097 467.596 149.097 476.346 Q149.097 485.072 146.018 489.679 Q142.963 494.262 137.153 494.262 Q131.343 494.262 128.264 489.679 Q125.208 485.072 125.208 476.346 Q125.208 467.596 128.264 463.012 Q131.343 458.406 137.153 458.406 Z" fill="#000000" fill-rule="nonzero" fill-opacity="1" /><path clip-path="url(#clip580)" d="M97.0371 112.16 L115.394 112.16 L115.394 116.095 L101.32 116.095 L101.32 124.568 Q102.338 124.22 103.357 124.058 Q104.375 123.873 105.394 123.873 Q111.181 123.873 114.56 127.044 Q117.94 130.216 117.94 135.632 Q117.94 141.211 114.468 144.313 Q110.995 147.391 104.676 147.391 Q102.5 147.391 100.232 147.021 Q97.9862 146.651 95.5788 145.91 L95.5788 141.211 Q97.6621 142.345 99.8843 142.901 Q102.107 143.456 104.583 143.456 Q108.588 143.456 110.926 141.35 Q113.264 139.243 113.264 135.632 Q113.264 132.021 110.926 129.915 Q108.588 127.808 104.583 127.808 Q102.708 127.808 100.833 128.225 Q98.9816 128.642 97.0371 129.521 L97.0371 112.16 Z" fill="#000000" fill-rule="nonzero" fill-opacity="1" /><path clip-path="url(#clip580)" d="M137.153 115.239 Q133.542 115.239 131.713 118.804 Q129.907 122.345 129.907 129.475 Q129.907 136.581 131.713 140.146 Q133.542 143.688 137.153 143.688 Q140.787 143.688 142.592 140.146 Q144.421 136.581 144.421 129.475 Q144.421 122.345 142.592 118.804 Q140.787 115.239 137.153 115.239 M137.153 111.535 Q142.963 111.535 146.018 116.142 Q149.097 120.725 149.097 129.475 Q149.097 138.202 146.018 142.808 Q142.963 147.391 137.153 147.391 Q131.343 147.391 128.264 142.808 Q125.208 138.202 125.208 129.475 Q125.208 120.725 128.264 116.142 Q131.343 111.535 137.153 111.535 Z" fill="#000000" fill-rule="nonzero" fill-opacity="1" /><polyline clip-path="url(#clip582)" style="stroke:#009af9; stroke-linecap:round; stroke-linejoin:round; stroke-width:12; stroke-opacity:1; fill:none" points="197.097,302.876 200.056,300.27 203.014,299.378 205.973,299.81 208.932,301.246 211.89,303.571 214.849,306.803 217.807,310.851 220.766,315.637 223.725,321.103 226.683,327.145 229.642,333.528 232.6,340.634 235.559,348.787 238.518,358.144 241.476,368.695 244.435,380.262 247.394,392.499 250.352,404.891 253.311,417.304 256.269,430.331 259.228,443.918 262.187,458.029 265.145,472.668 268.104,487.914 271.062,503.724 274.021,519.818 276.98,535.975 279.938,552.042 282.897,567.932 285.856,583.625 288.814,599.168 291.773,614.674 294.731,630.265 297.69,645.79 300.649,661.29 303.607,676.812 306.566,692.368 309.525,707.934 312.483,723.449 315.442,738.817 318.4,753.938 321.359,768.88 324.318,783.685 327.276,798.379 330.235,812.975 333.193,827.476 336.152,841.873 339.111,856.15 342.069,870.277 345.028,884.239 347.987,898.083 350.945,911.804 353.904,925.391 356.862,938.828 359.821,952.102 362.78,965.195 365.738,978.089 368.697,990.767 371.655,1003.21 374.614,1015.39 377.573,1027.29 380.531,1038.82 383.49,1049.94 386.449,1060.72 389.407,1071.21 392.366,1081.44 395.324,1091.44 398.283,1101.22 401.242,1110.77 404.2,1120.08 407.159,1129.12 410.117,1137.83 413.076,1146.18 416.035,1154.07 418.993,1161.56 421.952,1168.71 424.911,1175.55 427.869,1182.12 430.828,1188.44 433.786,1194.54 436.745,1200.42 439.704,1206.13 442.662,1211.65 445.621,1217.02 448.58,1222.24 451.538,1227.31 454.497,1232.23 457.455,1236.95 460.414,1241.3 463.373,1245.31 466.331,1248.98 469.29,1252.32 472.248,1255.34 475.207,1258.04 478.166,1260.42 481.124,1262.45 484.083,1264.13 487.042,1265.44 490,1266.35 492.959,1266.82 495.917,1266.83 498.876,1266.34 501.835,1265.29 504.793,1263.7 507.752,1261.67 510.71,1259.27 513.669,1256.57 516.628,1253.6 519.586,1250.38 522.545,1246.9 525.504,1243.14 528.462,1239.03 531.421,1234.51 534.379,1229.49 537.338,1223.84 540.297,1217.53 543.255,1210.62 546.214,1203.19 549.173,1195.3 552.131,1186.98 555.09,1178.27 558.048,1169.16 561.007,1159.65 563.966,1149.69 566.924,1139.24 569.883,1128.25 572.841,1116.61 575.8,1104.23 578.759,1091.12 581.717,1077.4 584.676,1063.14 587.635,1048.43 590.593,1033.31 593.552,1017.84 596.51,1002.03 599.469,985.897 602.428,969.433 605.386,952.618 608.345,935.412 611.303,917.764 614.262,899.603 617.221,880.846 620.179,861.656 623.138,842.264 626.097,822.602 629.055,802.621 632.014,782.296 634.972,761.625 637.931,740.629 640.89,719.351 643.848,697.858 646.807,676.239 649.766,654.607 652.724,633.096 655.683,611.866 658.641,591.097 661.6,570.993 664.559,551.582 667.517,532.497 670.476,513.727 673.434,495.286 676.393,477.193 679.352,459.477 682.31,442.172 685.269,425.32 688.228,408.969 691.186,393.176 694.145,378.001 697.103,363.516 700.062,349.795 703.021,336.922 705.979,324.987 708.938,313.692 711.896,302.256 714.855,290.978 717.814,280.159 720.772,270.046 723.731,260.827 726.69,252.64 729.648,245.563 732.607,239.622 735.565,234.787 738.524,230.972 741.483,228.037 744.441,225.786 747.4,223.967 750.359,222.275 753.317,220.81 756.276,220.223 759.234,220.508 762.193,221.648 765.152,223.634 768.11,226.46 771.069,230.126 774.027,234.64 776.986,240.012 779.945,246.26 782.903,253.407 785.862,261.482 788.821,270.52 791.779,280.559 794.738,291.646 797.696,303.403 800.655,315.472 803.614,327.926 806.572,340.823 809.531,354.204 812.489,368.097 815.448,382.515 818.407,397.454 821.365,412.897 824.324,428.811 827.283,445.15 830.241,461.85 833.2,478.834 836.158,496.01 839.117,513.271 842.076,530.493 845.034,547.54 847.993,564.262 850.952,580.882 853.91,597.577 856.869,614.306 859.827,631.027 862.786,647.709 865.745,664.318 868.703,680.831 871.662,697.223 874.62,713.477 877.579,729.58 880.538,745.522 883.496,761.297 886.455,776.903 889.414,792.345 892.372,807.628 895.331,822.765 898.289,837.77 901.248,852.656 904.207,867.329 907.165,881.735 910.124,895.859 913.082,909.689 916.041,923.218 919,936.442 921.958,949.362 924.917,961.983 927.876,974.313 930.834,986.367 933.793,998.16 936.751,1009.71 939.71,1021.06 942.669,1032.21 945.627,1043.22 948.586,1054.11 951.544,1064.94 954.503,1075.73 957.462,1086.45 960.42,1096.9 963.379,1107.1 966.338,1117.02 969.296,1126.67 972.255,1136.05 975.213,1145.14 978.172,1153.96 981.131,1162.5 984.089,1170.77 987.048,1178.75 990.007,1186.46 992.965,1193.89 995.924,1201.05 998.882,1207.95 1001.84,1214.58 1004.8,1220.95 1007.76,1227.07 1010.72,1232.94 1013.68,1238.58 1016.63,1244.12 1019.59,1249.56 1022.55,1254.84 1025.51,1259.89 1028.47,1264.66 1031.43,1269.09 1034.39,1273.14 1037.34,1276.79 1040.3,1280 1043.26,1282.75 1046.22,1285.03 1049.18,1286.84 1052.14,1288.18 1055.1,1289.05 1058.05,1289.48 1061.01,1289.5 1063.97,1289.12 1066.93,1288.39 1069.89,1287.36 1072.85,1286.09 1075.81,1284.59 1078.77,1282.77 1081.72,1280.55 1084.68,1277.87 1087.64,1274.66 1090.6,1270.89 1093.56,1266.54 1096.52,1261.57 1099.48,1256 1102.43,1249.82 1105.39,1243.07 1108.35,1235.76 1111.31,1227.95 1114.27,1219.69 1117.23,1211.05 1120.19,1202.12 1123.14,1192.98 1126.1,1183.75 1129.06,1174.53 1132.02,1165.47 1134.98,1156.55 1137.94,1147.24 1140.9,1137.51 1143.85,1127.39 1146.81,1116.92 1149.77,1106.12 1152.73,1095.01 1155.69,1083.64 1158.65,1072.01 1161.61,1060.17 1164.56,1048.12 1167.52,1035.89 1170.48,1023.51 1173.44,1010.98 1176.4,998.231 1179.36,984.95 1182.32,971.247 1185.28,957.249 1188.23,943.064 1191.19,928.782 1194.15,914.472 1197.11,900.182 1200.07,885.944 1203.03,871.769 1205.99,857.646 1208.94,843.548 1211.9,829.427 1214.86,815.216 1217.82,800.827 1220.78,786.153 1223.74,771.07 1226.7,755.431 1229.65,739.071 1232.61,721.806 1235.57,703.594 1238.53,685.435 1241.49,667.383 1244.45,649.286 1247.41,631.04 1250.36,612.591 1253.32,593.93 1256.28,575.096 1259.24,556.176 1262.2,537.305 1265.16,518.665 1268.12,500.485 1271.08,483.042 1274.03,466.66 1276.99,451.703 1279.95,437.668 1282.91,423.992 1285.87,410.563 1288.83,397.302 1291.79,384.156 1294.74,371.1 1297.7,358.138 1300.66,345.303 1303.62,332.655 1306.58,320.283 1309.54,308.304 1312.5,296.863 1315.45,286.134 1318.41,276.319 1321.37,267.536 1324.33,258.982 1327.29,250.65 1330.25,242.764 1333.21,235.523 1336.16,229.099 1339.12,223.635 1342.08,219.249 1345.04,216.03 1348,214.043 1350.96,213.323 1353.92,213.88 1356.88,215.695 1359.83,218.724 1362.79,222.895 1365.75,228.108 1368.71,234.239 1371.67,241.134 1374.63,248.614 1377.59,256.47 1380.54,264.565 1383.5,273.344 1386.46,282.945 1389.42,293.403 1392.38,304.726 1395.34,316.902 1398.3,329.896 1401.25,343.652 1404.21,358.087 1407.17,373.099 1410.13,388.564 1413.09,404.332 1416.05,420.232 1419.01,436.072 1421.96,451.64 1424.92,466.944 1427.88,482.132 1430.84,497.296 1433.8,512.515 1436.76,527.849 1439.72,543.346 1442.67,559.036 1445.63,574.936 1448.59,591.045 1451.55,607.35 1454.51,623.818 1457.47,640.405 1460.43,657.048 1463.39,673.672 1466.34,690.183 1469.3,706.475 1472.26,722.424 1475.22,737.933 1478.18,753.256 1481.14,768.434 1484.1,783.433 1487.05,798.224 1490.01,812.784 1492.97,827.094 1495.93,841.14 1498.89,854.913 1501.85,868.409 1504.81,881.628 1507.76,894.576 1510.72,907.263 1513.68,919.704 1516.64,931.92 1519.6,943.935 1522.56,955.779 1525.52,967.52 1528.47,979.262 1531.43,990.938 1534.39,1002.47 1537.35,1013.81 1540.31,1024.9 1543.27,1035.69 1546.23,1046.16 1549.19,1056.29 1552.14,1066.07 1555.1,1075.49 1558.06,1084.57 1561.02,1093.34 1563.98,1101.81 1566.94,1110.04 1569.9,1118.08 1572.85,1125.99 1575.81,1133.83 1578.77,1141.6 1581.73,1148.75 1584.69,1155.34 1587.65,1161.48 1590.61,1167.29 1593.56,1172.88 1596.52,1178.3 1599.48,1183.63 1602.44,1188.89 1605.4,1194.12 1608.36,1199.33 1611.32,1204.49 1614.27,1209.58 1617.23,1214.54 1620.19,1219.33 1623.15,1223.84 1626.11,1227.98 1629.07,1231.63 1632.03,1234.78 1634.99,1237.64 1637.94,1240.14 1640.9,1242.17 1643.86,1243.68 1646.82,1244.59 1649.78,1244.85 1652.74,1244.45 1655.7,1243.36 1658.65,1241.59 1661.61,1239.15 1664.57,1236.08 1667.53,1232.41 1670.49,1228.22 1673.45,1223.57 1676.41,1218.57 1679.36,1213.32 1682.32,1207.94 1685.28,1202.25 1688.24,1196 1691.2,1189.17 1694.16,1181.76 1697.12,1173.76 1700.07,1165.2 1703.03,1156.09 1705.99,1146.47 1708.95,1136.39 1711.91,1125.9 1714.87,1115.07 1717.83,1103.98 1720.79,1092.71 1723.74,1081.37 1726.7,1070.06 1729.66,1058.91 1732.62,1048.03 1735.58,1037.3 1738.54,1026.53 1741.5,1015.59 1744.45,1004.36 1747.41,992.749 1750.37,980.682 1753.33,968.109 1756.29,955.003 1759.25,941.358 1762.21,927.189 1765.16,912.535 1768.12,897.457 1771.08,882.036 1774.04,866.377 1777,850.606 1779.96,834.871 1782.92,819.344 1785.87,804.079 1788.83,788.463 1791.79,772.546 1794.75,756.494 1797.71,740.45 1800.67,724.538 1803.63,708.864 1806.58,693.51 1809.54,678.541 1812.5,664 1815.46,649.91 1818.42,636.274 1821.38,623.076 1824.34,610.276 1827.3,597.818 1830.25,585.625 1833.21,573.597 1836.17,561.616 1839.13,549.56 1842.09,537.489 1845.05,525.569 1848.01,513.944 1850.96,502.737 1853.92,492.046 1856.88,481.947 1859.84,472.495 1862.8,463.722 1865.76,455.636 1868.72,448.225 1871.67,441.453 1874.63,435.262 1877.59,429.571 1880.55,424.277 1883.51,419.255 1886.47,414.356 1889.43,409.411 1892.38,404.401 1895.34,400.551 1898.3,397.936 1901.26,396.332 1904.22,395.555 1907.18,395.454 1910.14,395.911 1913.1,396.848 1916.05,398.218 1919.01,400.013 1921.97,402.258 1924.93,405.014 1927.89,408.378 1930.85,412.48 1933.81,417.489 1936.76,423.606 1939.72,431.067 1942.68,439.464 1945.64,448.296 1948.6,457.485 1951.56,466.968 1954.52,476.694 1957.47,486.628 1960.43,496.746 1963.39,507.039 1966.35,517.511 1969.31,528.178 1972.27,539.071 1975.23,550.234 1978.18,561.725 1981.14,573.614 1984.1,585.907 1987.06,598.355 1990.02,610.931 1992.98,623.636 1995.94,636.466 1998.9,649.418 2001.85,662.489 2004.81,675.672 2007.77,688.959 2010.73,702.341 2013.69,715.809 2016.65,729.35 2019.61,742.952 2022.56,756.6 2025.52,770.279 2028.48,783.971 2031.44,797.696 2034.4,811.458 2037.36,825.195 2040.32,838.85 2043.27,852.374 2046.23,865.725 2049.19,878.871 2052.15,891.785 2055.11,904.45 2058.07,916.853 2061.03,928.993 2063.98,940.875 2066.94,952.51 2069.9,963.919 2072.86,975.129 2075.82,986.176 2078.78,997.103 2081.74,1007.96 2084.69,1018.81 2087.65,1029.71 2090.61,1040.72 2093.57,1051.73 2096.53,1062.58 2099.49,1073.16 2102.45,1083.38 2105.41,1093.16 2108.36,1102.45 2111.32,1111.25 2114.28,1119.53 2117.24,1127.34 2120.2,1134.71 2123.16,1141.72 2126.12,1148.47 2129.07,1155.08 2132.03,1161.68 2134.99,1168.45 2137.95,1175.29 2140.91,1181.65 2143.87,1187.52 2146.83,1192.95 2149.78,1197.96 2152.74,1202.59 2155.7,1206.86 2158.66,1210.8 2161.62,1214.44 2164.58,1217.81 2167.54,1220.94 2170.49,1223.84 2173.45,1226.55 2176.41,1229.08 2179.37,1231.43 2182.33,1233.3 2185.29,1234.66 2188.25,1235.59 2191.21,1236.17 2194.16,1236.45 2197.12,1236.47 2200.08,1236.29 2203.04,1235.9 2206,1235.33 2208.96,1234.58 2211.92,1233.63 2214.87,1232.46 2217.83,1231.03 2220.79,1229.29 2223.75,1227.18 2226.71,1224.63 2229.67,1221.55 2232.63,1217.86 2235.58,1213.44 2238.54,1208.17 2241.5,1201.94 2244.46,1194.91 2247.42,1187.32 2250.38,1179.37 2253.34,1171.2 2256.29,1162.92 2259.25,1154.61 2262.21,1146.3 2265.17,1137.99 2268.13,1129.61 2271.09,1121.07 2274.05,1112.26 2277.01,1102.99 2279.96,1093.06 2282.92,1082.26 2285.88,1070.83 2288.84,1058.89 2291.8,1046.48 2294.76,1033.64 2297.72,1020.4 2300.67,1006.8 2303.63,992.867 2306.59,978.614 2309.55,964.059 2312.51,949.215 2315.47,934.086 2318.43,918.676 2321.38,902.98 2324.34,886.99 2327.3,870.694 2330.26,854.221 2333.22,837.971 2336.18,821.82 2339.14,805.625 2342.09,789.265 2345.05,772.643 2348.01,755.684 2350.97,738.336 2353.93,720.571 2356.89,702.383 2359.85,683.79 2362.81,664.831 2365.76,645.569 2368.72,626.091 2371.68,606.505 2374.64,586.944 2377.6,567.562 2380.56,548.537 2383.52,530.07 2386.47,512.385 2389.43,495.727 2392.39,479.914 2395.35,464.227 2398.31,448.905 2401.27,434.178 2404.23,420.226 2407.18,407.185 2410.14,395.144 2413.1,384.143 2416.06,374.178 2419.02,365.197 2421.98,357.101 2424.94,349.744 2427.89,342.935 2430.85,336.433 2433.81,329.954 2436.77,323.319 2439.73,317.409 2442.69,312.345 2445.65,308.049 2448.6,304.459 2451.56,301.528 2454.52,299.229 2457.48,297.551 2460.44,296.501 2463.4,296.103 2466.36,296.397 2469.32,297.442 2472.27,299.313 2475.23,302.103 2478.19,305.922 2481.15,310.897 2484.11,317.173 2487.07,324.82 2490.03,333.314 2492.98,342.489 2495.94,352.29 2498.9,362.658 2501.86,373.537 2504.82,384.87 2507.78,396.6 2510.74,408.672 2513.69,421.03 2516.65,433.619 2519.61,446.382 2522.57,459.267 2525.53,472.217 2528.49,485.179 2531.45,498.099 2534.4,510.924 2537.36,523.61 2540.32,536.403 2543.28,549.363 2546.24,562.425 2549.2,575.527 2552.16,588.621 2555.12,601.666 2558.07,614.631 2561.03,627.493 2563.99,640.239 2566.95,652.866 2569.91,665.378 2572.87,677.79 2575.83,690.126 2578.78,702.419 2581.74,714.711 2584.7,727.052 2587.66,739.504 2590.62,752.136 2593.58,765.022 2596.54,777.975 2599.49,790.895 2602.45,803.821 2605.41,816.782 2608.37,829.8 2611.33,842.884 2614.29,856.037 2617.25,869.251 2620.2,882.509 2623.16,895.785 2626.12,909.041 2629.08,922.234 2632.04,935.309 2635,948.202 2637.96,960.839 2640.92,973.139 2643.87,985.008 2646.83,996.368 2649.79,1007.26 2652.75,1017.76 2655.71,1027.92 2658.67,1037.8 2661.63,1047.44 2664.58,1056.87 2667.54,1066.11 2670.5,1075.16 2673.46,1084.02 2676.42,1092.69 2679.38,1101.12 2682.34,1109.3 2685.29,1117.16 2688.25,1124.66 2691.21,1131.73 2694.17,1138.28 2697.13,1144.23 2700.09,1149.65 2703.05,1155 2706,1160.22 2708.96,1165.2 2711.92,1169.87 2714.88,1174.17 2717.84,1178.06 2720.8,1181.49 2723.76,1184.45 2726.71,1186.93 2729.67,1188.94 2732.63,1190.49 2735.59,1191.61 2738.55,1192.37 2741.51,1192.82 2744.47,1193.03 2747.43,1193.1 2750.38,1193 2753.34,1192.59 2756.3,1191.8 2759.26,1190.6 2762.22,1188.94 2765.18,1186.81 2768.14,1184.2 2771.09,1181.1 2774.05,1177.54 2777.01,1173.53 2779.97,1169.11 2782.93,1164.35 2785.89,1159.28 2788.85,1154 2791.8,1148.58 2794.76,1143.13 2797.72,1137.28 2800.68,1130.85 2803.64,1123.97 2806.6,1116.73 2809.56,1109.23 2812.51,1101.56 2815.47,1093.77 2818.43,1085.92 2821.39,1078.03 2824.35,1070.12 2827.31,1062.2 2830.27,1054.25 2833.23,1046.24 2836.18,1038.13 2839.14,1029.87 2842.1,1021.36 2845.06,1012.54 2848.02,1003.28 2850.98,993.482 2853.94,982.997 2856.89,971.95 2859.85,960.58 2862.81,949.022 2865.77,937.383 2868.73,925.75 2871.69,914.184 2874.65,902.723 2877.6,891.38 2880.56,880.146 2883.52,868.988 2886.48,857.848 2889.44,846.645 2892.4,835.274 2895.36,823.607 2898.31,811.49 2901.27,798.749 2904.23,785.182 2907.19,770.642 2910.15,755.617 2913.11,740.412 2916.07,725.207 2919.03,710.157 2921.98,695.389 2924.94,681.001 2927.9,667.068 2930.86,653.632 2933.82,640.713 2936.78,628.3 2939.74,616.357 2942.69,604.82 2945.65,593.596 2948.61,582.568 2951.57,571.588 2954.53,560.618 2957.49,549.761 2960.45,539.115 2963.4,528.766 2966.36,518.786 2969.32,509.236 2972.28,500.166 2975.24,491.614 2978.2,483.604 2981.16,476.151 2984.11,469.255 2987.07,462.906 2990.03,457.082 2992.99,451.748 2995.95,446.857 2998.91,442.352 3001.87,438.161 3004.83,434.203 3007.78,430.566 3010.74,427.94 3013.7,426.265 3016.66,425.406 3019.62,425.249 3022.58,425.702 3025.54,426.696 3028.49,428.185 3031.45,430.146 3034.41,432.578 3037.37,435.501 3040.33,438.959 3043.29,443.02 3046.25,447.771 3049.2,453.325 3052.16,459.816 3055.12,466.97 3058.08,474.435 3061.04,482.23 3064,490.371 3066.96,498.868 3069.91,507.729 3072.87,516.957 3075.83,526.551 3078.79,536.506 3081.75,546.813 3084.71,557.461 3087.67,568.432 3090.62,579.706 3093.58,591.258 3096.54,603.061 3099.5,615.081 3102.46,627.283 3105.42,639.63 3108.38,652.109 3111.34,664.67 3114.29,677.258 3117.25,689.829 3120.21,702.347 3123.17,714.785 3126.13,727.125 3129.09,739.355 3132.05,751.473 3135,763.487 3137.96,775.412 3140.92,787.271 3143.88,799.096 3146.84,810.929 3149.8,822.818 3152.76,834.821 "/>
<polyline clip-path="url(#clip582)" style="stroke:#e26f46; stroke-linecap:round; stroke-linejoin:round; stroke-width:12; stroke-opacity:1; fill:none" points="197.097,302.876 200.056,299.904 203.014,297.919 205.973,296.963 208.932,297.128 211.89,298.55 214.849,301.408 217.807,305.868 220.766,311.845 223.725,319.091 226.683,327.216 229.642,336.109 232.6,345.914 235.559,356.454 238.518,367.595 241.476,379.248 244.435,391.63 247.394,404.77 250.352,418.524 253.311,432.772 256.269,447.415 259.228,462.377 262.187,477.608 265.145,493.078 268.104,508.78 271.062,524.733 274.021,540.976 276.98,557.484 279.938,574.106 282.897,590.718 285.856,607.241 288.814,623.636 291.773,639.909 294.731,656.107 297.69,672.322 300.649,688.535 303.607,704.642 306.566,720.692 309.525,736.714 312.483,752.719 315.442,768.697 318.4,784.621 321.359,800.442 324.318,816.094 327.276,831.487 330.235,846.484 333.193,861.125 336.152,875.497 339.111,889.669 342.069,903.688 345.028,917.581 347.987,931.355 350.945,944.997 353.904,958.472 356.862,971.725 359.821,984.684 362.78,997.311 365.738,1009.69 368.697,1021.85 371.655,1033.8 374.614,1045.55 377.573,1057.09 380.531,1068.42 383.49,1079.51 386.449,1090.36 389.407,1100.92 392.366,1111.17 395.324,1121.05 398.283,1130.65 401.242,1140.04 404.2,1149.19 407.159,1158.06 410.117,1166.63 413.076,1174.88 416.035,1182.81 418.993,1190.41 421.952,1197.68 424.911,1204.65 427.869,1211.34 430.828,1217.76 433.786,1223.97 436.745,1230.01 439.704,1235.89 442.662,1241.39 445.621,1246.5 448.58,1251.28 451.538,1255.76 454.497,1259.97 457.455,1263.92 460.414,1267.65 463.373,1271.15 466.331,1274.43 469.29,1277.47 472.248,1280.28 475.207,1282.82 478.166,1285.07 481.124,1286.99 484.083,1288.42 487.042,1289.33 490,1289.74 492.959,1289.67 495.917,1289.14 498.876,1288.16 501.835,1286.75 504.793,1284.91 507.752,1282.63 510.71,1279.93 513.669,1276.79 516.628,1273.2 519.586,1269.14 522.545,1264.6 525.504,1259.56 528.462,1253.99 531.421,1247.96 534.379,1241.5 537.338,1234.59 540.297,1227.24 543.255,1219.43 546.214,1211.16 549.173,1202.4 552.131,1193.14 555.09,1183.34 558.048,1172.99 561.007,1162.04 563.966,1150.47 566.924,1138.23 569.883,1125.28 572.841,1111.57 575.8,1097.08 578.759,1082.23 581.717,1067.17 584.676,1051.88 587.635,1036.33 590.593,1020.51 593.552,1004.4 596.51,987.975 599.469,971.213 602.428,954.095 605.386,936.597 608.345,918.697 611.303,900.372 614.262,881.598 617.221,862.351 620.179,842.607 623.138,822.341 626.097,801.527 629.055,779.889 632.014,757.395 634.972,734.458 637.931,711.438 640.89,688.639 643.848,666.307 646.807,644.63 649.766,623.744 652.724,603.724 655.683,584.592 658.641,566.312 661.6,548.79 664.559,531.879 667.517,515.373 670.476,499.009 673.434,482.471 676.393,465.383 679.352,447.419 682.31,429.348 685.269,411.609 688.228,394.399 691.186,377.88 694.145,362.172 697.103,347.355 700.062,333.474 703.021,320.53 705.979,308.489 708.938,297.275 711.896,286.775 714.855,276.835 717.814,267.263 720.772,257.922 723.731,249.484 726.69,242.031 729.648,235.451 732.607,229.65 735.565,224.56 738.524,220.13 741.483,216.333 744.441,213.163 747.4,210.634 750.359,208.782 753.317,207.665 756.276,207.362 759.234,207.974 762.193,209.62 765.152,212.445 768.11,216.613 771.069,221.834 774.027,227.708 776.986,234.225 779.945,241.374 782.903,249.145 785.862,257.524 788.821,266.502 791.779,276.065 794.738,286.202 797.696,296.9 800.655,308.147 803.614,319.928 806.572,332.233 809.531,345.045 812.489,358.303 815.448,371.94 818.407,385.926 821.365,400.229 824.324,414.82 827.283,429.67 830.241,444.748 833.2,460.025 836.158,475.472 839.117,491.06 842.076,506.76 845.034,522.543 847.993,538.382 850.952,554.248 853.91,570.113 856.869,585.949 859.827,601.728 862.786,617.424 865.745,633.018 868.703,648.569 871.662,664.084 874.62,679.551 877.579,694.956 880.538,710.287 883.496,725.527 886.455,740.662 889.414,755.675 892.372,770.55 895.331,785.268 898.289,799.812 901.248,814.162 904.207,828.299 907.165,842.201 910.124,855.848 913.082,869.217 916.041,882.286 919,895.041 921.958,907.521 924.917,919.774 927.876,931.844 930.834,943.767 933.793,955.572 936.751,967.284 939.71,978.919 942.669,990.486 945.627,1001.99 948.586,1013.43 951.544,1024.79 954.503,1036.05 957.462,1047.2 960.42,1058.21 963.379,1069.04 966.338,1079.64 969.296,1089.97 972.255,1099.97 975.213,1109.64 978.172,1119.02 981.131,1128.15 984.089,1137.05 987.048,1145.75 990.007,1154.25 992.965,1162.58 995.924,1170.74 998.882,1178.71 1001.84,1186.5 1004.8,1194.08 1007.76,1201.44 1010.72,1208.55 1013.68,1215.37 1016.63,1221.86 1019.59,1227.97 1022.55,1233.65 1025.51,1238.89 1028.47,1243.84 1031.43,1248.51 1034.39,1252.91 1037.34,1257.05 1040.3,1260.9 1043.26,1264.46 1046.22,1267.73 1049.18,1270.69 1052.14,1273.32 1055.1,1275.6 1058.05,1277.51 1061.01,1279.03 1063.97,1280.12 1066.93,1280.76 1069.89,1280.91 1072.85,1280.54 1075.81,1279.59 1078.77,1277.79 1081.72,1275.16 1084.68,1271.79 1087.64,1267.77 1090.6,1263.18 1093.56,1258.1 1096.52,1252.59 1099.48,1246.72 1102.43,1240.54 1105.39,1234.1 1108.35,1227.44 1111.31,1220.61 1114.27,1213.63 1117.23,1206.52 1120.19,1199.29 1123.14,1191.97 1126.1,1184.56 1129.06,1177.04 1132.02,1169.34 1134.98,1161.33 1137.94,1153.01 1140.9,1144.39 1143.85,1135.47 1146.81,1126.25 1149.77,1116.73 1152.73,1106.92 1155.69,1096.82 1158.65,1086.42 1161.61,1075.74 1164.56,1064.76 1167.52,1053.49 1170.48,1041.92 1173.44,1030.06 1176.4,1017.91 1179.36,1005.46 1182.32,992.706 1185.28,979.673 1188.23,966.426 1191.19,952.982 1194.15,939.35 1197.11,925.539 1200.07,911.553 1203.03,897.397 1205.99,883.074 1208.94,868.582 1211.9,853.919 1214.86,839.083 1217.82,824.067 1220.78,808.863 1223.74,793.462 1226.7,777.852 1229.65,762.02 1232.61,745.949 1235.57,729.622 1238.53,713.021 1241.49,696.123 1244.45,678.901 1247.41,661.369 1250.36,643.661 1253.32,625.91 1256.28,608.236 1259.24,590.741 1262.2,573.513 1265.16,556.624 1268.12,540.131 1271.08,524.075 1274.03,508.481 1276.99,493.361 1279.95,478.708 1282.91,464.502 1285.87,450.707 1288.83,437.271 1291.79,424.127 1294.74,411.205 1297.7,398.568 1300.66,386.341 1303.62,374.638 1306.58,363.554 1309.54,353.169 1312.5,343.548 1315.45,334.74 1318.41,326.779 1321.37,319.681 1324.33,313.449 1327.29,308.069 1330.25,303.512 1333.21,299.731 1336.16,296.667 1339.12,294.243 1342.08,292.366 1345.04,290.928 1348,289.806 1350.96,288.861 1353.92,288.142 1356.88,289.176 1359.83,291.874 1362.79,295.765 1365.75,300.456 1368.71,305.63 1371.67,311.041 1374.63,316.524 1377.59,321.987 1380.54,327.414 1383.5,332.863 1386.46,338.47 1389.42,344.445 1392.38,351.074 1395.34,358.718 1398.3,367.816 1401.25,378.727 1404.21,390.132 1407.17,401.654 1410.13,413.364 1413.09,425.317 1416.05,437.55 1419.01,450.085 1421.96,462.927 1424.92,476.064 1427.88,489.469 1430.84,503.097 1433.8,516.887 1436.76,530.763 1439.72,544.631 1442.67,558.382 1445.63,571.923 1448.59,585.356 1451.55,598.718 1454.51,612.028 1457.47,625.303 1460.43,638.559 1463.39,651.812 1466.34,665.075 1469.3,678.358 1472.26,691.672 1475.22,705.027 1478.18,718.428 1481.14,731.882 1484.1,745.393 1487.05,758.963 1490.01,772.595 1492.97,786.286 1495.93,800.036 1498.89,813.839 1501.85,827.621 1504.81,841.309 1507.76,854.844 1510.72,868.178 1513.68,881.274 1516.64,894.1 1519.6,906.638 1522.56,918.875 1525.52,930.809 1528.47,942.447 1531.43,953.806 1534.39,964.909 1537.35,975.792 1540.31,986.499 1543.27,997.08 1546.23,1007.6 1549.19,1018.13 1552.14,1028.61 1555.1,1038.99 1558.06,1049.27 1561.02,1059.43 1563.98,1069.48 1566.94,1079.41 1569.9,1089.21 1572.85,1098.87 1575.81,1108.38 1578.77,1117.7 1581.73,1126.83 1584.69,1135.73 1587.65,1144.37 1590.61,1152.73 1593.56,1160.77 1596.52,1168.46 1599.48,1175.81 1602.44,1183.03 1605.4,1190.11 1608.36,1196.99 1611.32,1203.65 1614.27,1210.05 1617.23,1216.16 1620.19,1221.97 1623.15,1227.46 1626.11,1232.61 1629.07,1237.42 1632.03,1241.88 1634.99,1246 1637.94,1249.77 1640.9,1253.22 1643.86,1256.36 1646.82,1259.2 1649.78,1261.77 1652.74,1264.1 1655.7,1266.19 1658.65,1267.96 1661.61,1269.34 1664.57,1270.28 1667.53,1270.74 1670.49,1270.67 1673.45,1270.06 1676.41,1268.9 1679.36,1267.21 1682.32,1264.99 1685.28,1262.27 1688.24,1259.11 1691.2,1255.55 1694.16,1251.67 1697.12,1247.54 1700.07,1243.25 1703.03,1238.67 1705.99,1233.65 1708.95,1228.11 1711.91,1221.99 1714.87,1215.22 1717.83,1207.77 1720.79,1199.6 1723.74,1190.7 1726.7,1181.05 1729.66,1170.66 1732.62,1159.56 1735.58,1147.76 1738.54,1135.31 1741.5,1122.26 1744.45,1108.68 1747.41,1094.64 1750.37,1080.24 1753.33,1065.57 1756.29,1050.53 1759.25,1035.16 1762.21,1019.56 1765.16,1003.82 1768.12,988.011 1771.08,972.183 1774.04,956.379 1777,940.621 1779.96,924.913 1782.92,909.246 1785.87,893.591 1788.83,877.905 1791.79,862.126 1794.75,846.177 1797.71,829.964 1800.67,813.377 1803.63,796.288 1806.58,778.554 1809.54,760.014 1812.5,740.676 1815.46,720.978 1818.42,701.141 1821.38,681.347 1824.34,661.744 1827.3,642.455 1830.25,623.57 1833.21,605.151 1836.17,587.228 1839.13,569.803 1842.09,552.849 1845.05,536.307 1848.01,520.09 1850.96,504.08 1853.92,488.131 1856.88,472.064 1859.84,455.96 1862.8,440.582 1865.76,425.936 1868.72,411.976 1871.67,398.663 1874.63,385.969 1877.59,373.876 1880.55,362.375 1883.51,351.468 1886.47,341.167 1889.43,331.493 1892.38,322.478 1895.34,314.161 1898.3,306.596 1901.26,299.842 1904.22,293.964 1907.18,288.974 1910.14,284.867 1913.1,281.639 1916.05,279.282 1919.01,277.789 1921.97,277.152 1924.93,277.359 1927.89,278.397 1930.85,280.253 1933.81,282.912 1936.76,286.357 1939.72,290.569 1942.68,295.529 1945.64,301.215 1948.6,307.604 1951.56,314.671 1954.52,322.392 1957.47,330.738 1960.43,339.68 1963.39,349.188 1966.35,359.229 1969.31,369.722 1972.27,380.456 1975.23,391.491 1978.18,402.907 1981.14,414.768 1984.1,427.123 1987.06,440.006 1990.02,453.437 1992.98,467.42 1995.94,481.946 1998.9,496.989 2001.85,512.509 2004.81,528.452 2007.77,544.747 2010.73,561.31 2013.69,578.042 2016.65,594.828 2019.61,611.539 2022.56,628.031 2025.52,644.15 2028.48,660.133 2031.44,676.144 2034.4,692.135 2037.36,708.064 2040.32,723.895 2043.27,739.598 2046.23,755.148 2049.19,770.528 2052.15,785.725 2055.11,800.734 2058.07,815.554 2061.03,830.192 2063.98,844.658 2066.94,858.971 2069.9,873.155 2072.86,887.24 2075.82,901.26 2078.78,915.199 2081.74,928.859 2084.69,942.24 2087.65,955.362 2090.61,968.243 2093.57,980.897 2096.53,993.338 2099.49,1005.58 2102.45,1017.62 2105.41,1029.48 2108.36,1041.16 2111.32,1052.66 2114.28,1063.98 2117.24,1075.12 2120.2,1086.08 2123.16,1096.84 2126.12,1107.41 2129.07,1117.78 2132.03,1127.92 2134.99,1137.83 2137.95,1147.5 2140.91,1156.94 2143.87,1166.16 2146.83,1175.15 2149.78,1183.92 2152.74,1192.45 2155.7,1200.75 2158.66,1208.8 2161.62,1216.6 2164.58,1224.14 2167.54,1231.4 2170.49,1238.36 2173.45,1245.02 2176.41,1251.34 2179.37,1257.3 2182.33,1262.89 2185.29,1268.08 2188.25,1272.84 2191.21,1277.13 2194.16,1280.93 2197.12,1284.31 2200.08,1287.79 2203.04,1291.29 2206,1294.69 2208.96,1297.86 2211.92,1300.69 2214.87,1303.13 2217.83,1305.09 2220.79,1306.54 2223.75,1307.46 2226.71,1307.85 2229.67,1307.72 2232.63,1307.1 2235.58,1306.06 2238.54,1304.66 2241.5,1303.01 2244.46,1301.21 2247.42,1299.39 2250.38,1297.48 2253.34,1295.22 2256.29,1292.49 2259.25,1289.24 2262.21,1285.39 2265.17,1280.9 2268.13,1275.75 2271.09,1269.92 2274.05,1263.44 2277.01,1256.33 2279.96,1248.63 2282.92,1240.42 2285.88,1231.77 2288.84,1222.8 2291.8,1213.61 2294.76,1204.12 2297.72,1194.24 2300.67,1184.01 2303.63,1173.48 2306.59,1162.68 2309.55,1151.62 2312.51,1140.32 2315.47,1128.77 2318.43,1116.99 2321.38,1104.94 2324.34,1092.61 2327.3,1079.96 2330.26,1066.96 2333.22,1053.55 2336.18,1039.68 2339.14,1025.27 2342.09,1010.16 2345.05,994.08 2348.01,977.177 2350.97,959.615 2353.93,941.547 2356.89,923.109 2359.85,904.426 2362.81,885.606 2365.76,866.746 2368.72,847.929 2371.68,829.224 2374.64,810.685 2377.6,792.354 2380.56,774.26 2383.52,756.416 2386.47,738.823 2389.43,721.467 2392.39,704.323 2395.35,687.149 2398.31,669.524 2401.27,651.611 2404.23,633.584 2407.18,615.597 2410.14,597.789 2413.1,580.278 2416.06,563.166 2419.02,546.536 2421.98,530.453 2424.94,514.966 2427.89,500.103 2430.85,485.876 2433.81,472.28 2436.77,459.289 2439.73,446.862 2442.69,434.939 2445.65,423.442 2448.6,412.275 2451.56,401.342 2454.52,391.133 2457.48,381.785 2460.44,373.141 2463.4,365.079 2466.36,357.509 2469.32,350.375 2472.27,343.65 2475.23,337.345 2478.19,331.499 2481.15,326.186 2484.11,321.513 2487.07,317.618 2490.03,314.673 2492.98,312.882 2495.94,312.483 2498.9,313.268 2501.86,313.948 2504.82,314.731 2507.78,315.909 2510.74,317.724 2513.69,320.365 2516.65,323.968 2519.61,328.619 2522.57,334.352 2525.53,341.149 2528.49,348.94 2531.45,357.602 2534.4,366.963 2537.36,376.797 2540.32,386.827 2543.28,396.723 2546.24,406.685 2549.2,417.31 2552.16,428.417 2555.12,439.852 2558.07,451.496 2561.03,463.262 2563.99,475.1 2566.95,486.992 2569.91,498.956 2572.87,511.043 2575.83,523.34 2578.78,535.968 2581.74,549.08 2584.7,562.865 2587.66,577.431 2590.62,592.22 2593.58,607.093 2596.54,622.02 2599.49,636.977 2602.45,651.946 2605.41,666.914 2608.37,681.874 2611.33,696.826 2614.29,711.774 2617.25,726.728 2620.2,741.705 2623.16,756.726 2626.12,771.82 2629.08,787.019 2632.04,802.215 2635,817.229 2637.96,832.066 2640.92,846.729 2643.87,861.219 2646.83,875.539 2649.79,889.688 2652.75,903.665 2655.71,917.47 2658.67,931.099 2661.63,944.549 2664.58,957.815 2667.54,970.894 2670.5,983.777 2673.46,996.459 2676.42,1008.93 2679.38,1021.18 2682.34,1033.21 2685.29,1045.02 2688.25,1056.7 2691.21,1068.18 2694.17,1079.43 2697.13,1090.4 2700.09,1101.07 2703.05,1111.4 2706,1121.39 2708.96,1131 2711.92,1140.25 2714.88,1149.14 2717.84,1157.66 2720.8,1165.84 2723.76,1173.69 2726.71,1181.25 2729.67,1188.55 2732.63,1195.63 2735.59,1202.54 2738.55,1209.34 2741.51,1216.08 2744.47,1222.73 2747.43,1229.25 2750.38,1235.58 2753.34,1241.7 2756.3,1247.56 2759.26,1253.14 2762.22,1258.42 2765.18,1263.37 2768.14,1267.98 2771.09,1272.26 2774.05,1276.2 2777.01,1279.8 2779.97,1283.09 2782.93,1286.06 2785.89,1288.76 2788.85,1291.2 2791.8,1293.43 2794.76,1295.47 2797.72,1297.39 2800.68,1299.35 2803.64,1301.35 2806.6,1303.23 2809.56,1304.83 2812.51,1306.03 2815.47,1306.73 2818.43,1306.86 2821.39,1306.37 2824.35,1305.26 2827.31,1303.53 2830.27,1301.22 2833.23,1298.38 2836.18,1295.12 2839.14,1291.55 2842.1,1287.8 2845.06,1284.06 2848.02,1280.52 2850.98,1276.88 2853.94,1272.76 2856.89,1268.15 2859.85,1263.07 2862.81,1257.48 2865.77,1251.38 2868.73,1244.74 2871.69,1237.55 2874.65,1229.76 2877.6,1221.35 2880.56,1212.28 2883.52,1202.51 2886.48,1191.98 2889.44,1180.65 2892.4,1168.46 2895.36,1155.65 2898.31,1142.75 2901.27,1129.72 2904.23,1116.52 2907.19,1103.1 2910.15,1089.42 2913.11,1075.41 2916.07,1061.02 2919.03,1046.21 2921.98,1030.9 2924.94,1015.06 2927.9,998.611 2930.86,981.499 2933.82,963.662 2936.78,945.002 2939.74,925.5 2942.69,905.558 2945.65,885.546 2948.61,865.75 2951.57,846.379 2954.53,827.556 2957.49,809.326 2960.45,791.651 2963.4,774.413 2966.36,757.412 2969.32,740.368 2972.28,722.918 2975.24,704.619 2978.2,686.031 2981.16,668.52 2984.11,651.596 2987.07,634.833 2990.03,617.909 2992.99,600.611 2995.95,582.829 2998.91,564.559 3001.87,545.902 3004.83,527.068 3007.78,508.367 3010.74,490.219 3013.7,473.105 3016.66,456.966 3019.62,441.478 3022.58,426.4 3025.54,411.553 3028.49,396.817 3031.45,382.136 3034.41,367.513 3037.37,353.013 3040.33,338.762 3043.29,324.949 3046.25,311.821 3049.2,299.69 3052.16,288.899 3055.12,279.356 3058.08,270.84 3061.04,263.216 3064,256.379 3066.96,250.256 3069.91,244.802 3072.87,240.007 3075.83,235.889 3078.79,232.496 3081.75,229.91 3084.71,228.24 3087.67,227.628 3090.62,228.247 3093.58,230.3 3096.54,233.89 3099.5,238.712 3102.46,244.524 3105.42,251.123 3108.38,258.338 3111.34,266.028 3114.29,274.085 3117.25,282.435 3120.21,291.032 3123.17,299.865 3126.13,308.955 3129.09,318.353 3132.05,328.143 3135,338.44 3137.96,349.386 3140.92,360.901 3143.88,372.848 3146.84,385.164 3149.8,397.87 3152.76,411.061 "/>
<polyline clip-path="url(#clip582)" style="stroke:#3da44d; stroke-linecap:round; stroke-linejoin:round; stroke-width:12; stroke-opacity:1; fill:none" points="197.097,302.876 200.056,300.071 203.014,298.525 205.973,298.612 208.932,300.564 211.89,304.256 214.849,309.315 217.807,315.593 220.766,322.982 223.725,331.546 226.683,341.44 229.642,352.479 232.6,364.386 235.559,376.9 238.518,389.772 241.476,402.785 244.435,415.976 247.394,429.473 250.352,443.376 253.311,457.765 256.269,472.7 259.228,488.221 262.187,504.203 265.145,520.332 268.104,536.495 271.062,552.621 274.021,568.671 276.98,584.646 279.938,600.584 282.897,616.558 285.856,632.52 288.814,648.313 291.773,664.009 294.731,679.661 297.69,695.299 300.649,710.933 303.607,726.55 306.566,742.112 309.525,757.562 312.483,772.983 315.442,788.422 318.4,803.774 321.359,818.958 324.318,833.92 327.276,848.63 330.235,863.079 333.193,877.288 336.152,891.298 339.111,905.177 342.069,919.012 345.028,932.752 347.987,946.329 350.945,959.711 353.904,972.87 356.862,985.785 359.821,998.438 362.78,1010.82 365.738,1022.91 368.697,1034.72 371.655,1046.24 374.614,1057.48 377.573,1068.59 380.531,1079.64 383.49,1090.54 386.449,1101.23 389.407,1111.67 392.366,1121.79 395.324,1131.58 398.283,1141.02 401.242,1150.1 404.2,1158.82 407.159,1167.2 410.117,1175.27 413.076,1183.06 416.035,1190.56 418.993,1197.71 421.952,1204.57 424.911,1211.2 427.869,1217.64 430.828,1223.92 433.786,1230.06 436.745,1236.06 439.704,1241.91 442.662,1247.57 445.621,1253 448.58,1258.15 451.538,1262.94 454.497,1267.28 457.455,1271.08 460.414,1274.21 463.373,1276.67 466.331,1278.55 469.29,1279.98 472.248,1281.03 475.207,1281.78 478.166,1282.28 481.124,1282.58 484.083,1282.68 487.042,1282.61 490,1282.33 492.959,1281.83 495.917,1281.05 498.876,1280.13 501.835,1279.22 504.793,1278.2 507.752,1276.92 510.71,1275.29 513.669,1273.23 516.628,1270.71 519.586,1267.69 522.545,1264.17 525.504,1260.18 528.462,1255.78 531.421,1251.04 534.379,1246.05 537.338,1240.95 540.297,1235.83 543.255,1230.34 546.214,1224.46 549.173,1218.25 552.131,1211.76 555.09,1205.02 558.048,1198 561.007,1190.69 563.966,1183.03 566.924,1174.94 569.883,1166.32 572.841,1157.03 575.8,1146.94 578.759,1135.86 581.717,1123.59 584.676,1109.95 587.635,1095.17 590.593,1079.49 593.552,1063.1 596.51,1046.2 599.469,1028.92 602.428,1011.36 605.386,993.594 608.345,975.67 611.303,957.59 614.262,939.325 617.221,920.816 620.179,901.965 623.138,882.969 626.097,864.426 629.055,846.128 632.014,827.872 634.972,809.503 637.931,790.913 640.89,772.043 643.848,752.878 646.807,733.455 649.766,713.855 652.724,694.206 655.683,674.687 658.641,655.521 661.6,636.98 664.559,619.266 667.517,602.166 670.476,585.416 673.434,568.81 676.393,552.209 679.352,535.532 682.31,518.762 685.269,501.943 688.228,485.181 691.186,468.644 694.145,452.561 697.103,437.225 700.062,422.989 703.021,410.01 705.979,397.267 708.938,384.786 711.896,372.743 714.855,361.263 717.814,350.418 720.772,340.23 723.731,330.666 726.69,321.646 729.648,313.032 732.607,304.641 735.565,296.231 738.524,287.969 741.483,280.973 744.441,275.09 747.4,270.109 750.359,265.862 753.317,262.229 756.276,259.131 759.234,256.536 762.193,254.455 765.152,252.944 768.11,252.104 771.069,252.082 774.027,253.066 776.986,255.078 779.945,257.78 782.903,261.264 785.862,265.612 788.821,270.871 791.779,277.058 794.738,284.15 797.696,292.094 800.655,300.801 803.614,310.149 806.572,319.981 809.531,330.106 812.489,340.299 815.448,350.327 818.407,360.586 821.365,371.368 824.324,382.747 827.283,394.774 830.241,407.474 833.2,420.849 836.158,434.877 839.117,449.51 842.076,464.679 845.034,480.288 847.993,496.217 850.952,512.323 853.91,528.462 856.869,544.635 859.827,560.84 862.786,577.061 865.745,593.284 868.703,609.496 871.662,625.685 874.62,641.838 877.579,657.946 880.538,673.997 883.496,689.984 886.455,705.897 889.414,721.73 892.372,737.476 895.331,753.128 898.289,768.683 901.248,784.133 904.207,799.446 907.165,814.597 910.124,829.572 913.082,844.362 916.041,858.957 919,873.349 921.958,887.53 924.917,901.496 927.876,915.243 930.834,928.769 933.793,942.073 936.751,955.156 939.71,968.019 942.669,980.667 945.627,993.104 948.586,1005.34 951.544,1017.37 954.503,1029.22 957.462,1040.9 960.42,1052.41 963.379,1063.8 966.338,1075.12 969.296,1086.33 972.255,1097.38 975.213,1108.27 978.172,1118.95 981.131,1129.41 984.089,1139.65 987.048,1149.65 990.007,1159.41 992.965,1168.95 995.924,1178.28 998.882,1187.41 1001.84,1196.37 1004.8,1205.19 1007.76,1213.9 1010.72,1222.56 1013.68,1231.03 1016.63,1239.24 1019.59,1247.21 1022.55,1254.95 1025.51,1262.46 1028.47,1269.76 1031.43,1276.84 1034.39,1283.73 1037.34,1290.43 1040.3,1296.94 1043.26,1303.27 1046.22,1309.43 1049.18,1315.41 1052.14,1321.24 1055.1,1326.9 1058.05,1332.4 1061.01,1337.74 1063.97,1342.93 1066.93,1347.88 1069.89,1352.37 1072.85,1356.5 1075.81,1360.34 1078.77,1363.98 1081.72,1367.47 1084.68,1370.84 1087.64,1374.13 1090.6,1377.35 1093.56,1380.48 1096.52,1383.5 1099.48,1386.38 1102.43,1389.05 1105.39,1391.46 1108.35,1393.52 1111.31,1395.12 1114.27,1396.14 1117.23,1396.46 1120.19,1395.92 1123.14,1394.35 1126.1,1391.73 1129.06,1388.32 1132.02,1384.4 1134.98,1380.18 1137.94,1375.83 1140.9,1371.47 1143.85,1367.16 1146.81,1362.94 1149.77,1358.78 1152.73,1354.6 1155.69,1350.28 1158.65,1345.65 1161.61,1340.49 1164.56,1334.54 1167.52,1327.55 1170.48,1320 1173.44,1312.02 1176.4,1303.57 1179.36,1294.6 1182.32,1285.09 1185.28,1275 1188.23,1264.34 1191.19,1253.1 1194.15,1241.31 1197.11,1228.98 1200.07,1216.15 1203.03,1202.86 1205.99,1189.18 1208.94,1175.17 1211.9,1160.91 1214.86,1146.44 1217.82,1131.11 1220.78,1114.85 1223.74,1097.9 1226.7,1080.43 1229.65,1062.62 1232.61,1044.58 1235.57,1026.4 1238.53,1008.15 1241.49,989.84 1244.45,971.461 1247.41,952.968 1250.36,934.279 1253.32,915.282 1256.28,895.828 1259.24,875.735 1262.2,854.787 1265.16,832.735 1268.12,809.831 1271.08,787.069 1274.03,764.393 1276.99,741.726 1279.95,719.01 1282.91,696.206 1285.87,673.294 1288.83,650.276 1291.79,627.173 1294.74,604.024 1297.7,580.89 1300.66,557.849 1303.62,535.001 1306.58,512.465 1309.54,490.379 1312.5,468.695 1315.45,447.082 1318.41,425.663 1321.37,404.562 1324.33,383.891 1327.29,363.74 1330.25,344.185 1333.21,325.286 1336.16,307.085 1339.12,289.606 1342.08,272.858 1345.04,256.833 1348,241.505 1350.96,226.833 1353.92,212.758 1356.88,199.204 1359.83,186.079 1362.79,173.274 1365.75,160.672 1368.71,148.889 1371.67,138.137 1374.63,128.137 1377.59,118.673 1380.54,109.585 1383.5,100.775 1386.46,92.2038 1389.42,83.8923 1392.38,75.9206 1395.34,68.4288 1398.3,61.6165 1401.25,55.7431 1404.21,51.1275 1407.17,48.1484 1410.13,47.2441 1413.09,48.8975 1416.05,52.2008 1419.01,56.4756 1421.96,61.8543 1424.92,68.4303 1427.88,76.258 1430.84,85.3528 1433.8,95.6908 1436.76,107.209 1439.72,119.807 1442.67,133.342 1445.63,147.635 1448.59,162.467 1451.55,177.592 1454.51,192.919 1457.47,208.464 1460.43,224.24 1463.39,240.26 1466.34,256.532 1469.3,273.066 1472.26,289.869 1475.22,306.947 1478.18,324.303 1481.14,341.94 1484.1,359.86 1487.05,378.061 1490.01,396.542 1492.97,415.299 1495.93,434.327 1498.89,453.579 1501.85,472.848 1504.81,492.14 1507.76,511.482 1510.72,530.894 1513.68,550.381 1516.64,569.942 1519.6,589.563 1522.56,609.218 1525.52,628.873 1528.47,648.482 1531.43,667.988 1534.39,687.324 1537.35,706.413 1540.31,725.166 1543.27,743.484 1546.23,761.411 1549.19,779.108 1552.14,796.561 1555.1,813.756 1558.06,830.684 1561.02,847.338 1563.98,863.716 1566.94,879.819 1569.9,895.654 1572.85,911.228 1575.81,926.554 1578.77,941.649 1581.73,956.533 1584.69,971.229 1587.65,985.766 1590.61,1000.04 1593.56,1013.96 1596.52,1027.54 1599.48,1040.81 1602.44,1053.8 1605.4,1066.53 1608.36,1079.01 1611.32,1091.26 1614.27,1103.29 1617.23,1115.1 1620.19,1126.71 1623.15,1138.11 1626.11,1149.3 1629.07,1160.27 1632.03,1171.02 1634.99,1181.54 1637.94,1191.8 1640.9,1201.8 1643.86,1211.51 1646.82,1221.17 1649.78,1230.89 1652.74,1240.52 1655.7,1249.95 1658.65,1259.09 1661.61,1267.84 1664.57,1276.15 1667.53,1283.96 1670.49,1291.26 1673.45,1298.02 1676.41,1304.26 1679.36,1310.01 1682.32,1315.29 1685.28,1320.19 1688.24,1324.77 1691.2,1329.13 1694.16,1333.39 1697.12,1337.64 1700.07,1341.56 1703.03,1345.01 1705.99,1347.96 1708.95,1350.38 1711.91,1352.25 1714.87,1353.55 1717.83,1354.27 1720.79,1354.41 1723.74,1353.96 1726.7,1352.93 1729.66,1351.34 1732.62,1349.21 1735.58,1346.56 1738.54,1343.42 1741.5,1339.84 1744.45,1335.83 1747.41,1331.38 1750.37,1326.57 1753.33,1321.45 1756.29,1316.04 1759.25,1310.37 1762.21,1304.46 1765.16,1298.3 1768.12,1291.87 1771.08,1285.14 1774.04,1278.06 1777,1270.58 1779.96,1262.63 1782.92,1254.11 1785.87,1244.93 1788.83,1234.97 1791.79,1224.11 1794.75,1212.41 1797.71,1200.18 1800.67,1187.31 1803.63,1173.69 1806.58,1159.25 1809.54,1143.95 1812.5,1127.83 1815.46,1110.93 1818.42,1093.35 1821.38,1075.23 1824.34,1056.74 1827.3,1038.11 1830.25,1019.57 1833.21,1000.49 1836.17,980.662 1839.13,960.232 1842.09,939.345 1845.05,918.122 1848.01,896.665 1850.96,875.055 1853.92,853.353 1856.88,831.602 1859.84,809.824 1862.8,788.02 1865.76,766.172 1868.72,744.244 1871.67,722.178 1874.63,699.897 1877.59,677.553 1880.55,655.427 1883.51,633.5 1886.47,611.767 1889.43,590.238 1892.38,568.942 1895.34,547.922 1898.3,527.24 1901.26,506.972 1904.22,487.213 1907.18,468.072 1910.14,449.675 1913.1,432.167 1916.05,415.547 1919.01,399.662 1921.97,384.487 1924.93,369.997 1927.89,356.168 1930.85,342.977 1933.81,330.4 1936.76,318.413 1939.72,306.995 1942.68,296.123 1945.64,285.775 1948.6,275.931 1951.56,266.568 1954.52,257.667 1957.47,249.207 1960.43,241.168 1963.39,233.531 1966.35,226.289 1969.31,219.788 1972.27,214.135 1975.23,209.268 1978.18,205.145 1981.14,201.739 1984.1,199.043 1987.06,197.067 1990.02,195.837 1992.98,195.4 1995.94,195.82 1998.9,197.176 2001.85,199.567 2004.81,203.111 2007.77,207.918 2010.73,213.652 2013.69,220.1 2016.65,227.188 2019.61,234.855 2022.56,243.052 2025.52,251.741 2028.48,260.896 2031.44,270.5 2034.4,280.551 2037.36,291.056 2040.32,302.035 2043.27,313.517 2046.23,325.545 2049.19,338.173 2052.15,351.464 2055.11,365.496 2058.07,380.036 2061.03,394.743 2063.98,409.653 2066.94,424.791 2069.9,440.177 2072.86,455.819 2075.82,471.718 2078.78,487.868 2081.74,504.251 2084.69,520.843 2087.65,537.61 2090.61,554.51 2093.57,571.492 2096.53,588.497 2099.49,605.456 2102.45,622.294 2105.41,638.925 2108.36,655.255 2111.32,671.295 2114.28,687.37 2117.24,703.418 2120.2,719.349 2123.16,735.086 2126.12,750.565 2129.07,765.736 2132.03,780.564 2134.99,795.025 2137.95,809.113 2140.91,822.833 2143.87,836.203 2146.83,849.257 2149.78,862.041 2152.74,874.617 2155.7,887.058 2158.66,899.453 2161.62,911.904 2164.58,924.523 2167.54,937.069 2170.49,949.341 2173.45,961.361 2176.41,973.149 2179.37,984.719 2182.33,996.079 2185.29,1007.24 2188.25,1018.19 2191.21,1028.94 2194.16,1039.47 2197.12,1049.77 2200.08,1059.83 2203.04,1069.62 2206,1079.11 2208.96,1088.27 2211.92,1097.07 2214.87,1105.5 2217.83,1113.73 2220.79,1121.75 2223.75,1129.46 2226.71,1136.82 2229.67,1143.76 2232.63,1150.26 2235.58,1156.27 2238.54,1161.8 2241.5,1166.84 2244.46,1171.4 2247.42,1175.52 2250.38,1179.23 2253.34,1182.59 2256.29,1185.66 2259.25,1188.53 2262.21,1191.29 2265.17,1194.04 2268.13,1196.9 2271.09,1200.01 2274.05,1202.98 2277.01,1205.48 2279.96,1207.55 2282.92,1209.21 2285.88,1210.47 2288.84,1211.34 2291.8,1211.83 2294.76,1211.94 2297.72,1211.64 2300.67,1210.92 2303.63,1209.76 2306.59,1208.12 2309.55,1205.95 2312.51,1203.22 2315.47,1199.87 2318.43,1196.19 2321.38,1192.29 2324.34,1188.12 2327.3,1183.64 2330.26,1178.83 2333.22,1173.65 2336.18,1168.07 2339.14,1162.08 2342.09,1155.65 2345.05,1148.77 2348.01,1141.42 2350.97,1133.61 2353.93,1125.32 2356.89,1116.56 2359.85,1107.34 2362.81,1097.65 2365.76,1087.62 2368.72,1077.58 2371.68,1067.44 2374.64,1057.06 2377.6,1046.34 2380.56,1035.18 2383.52,1023.5 2386.47,1011.25 2389.43,998.386 2392.39,984.887 2395.35,970.755 2398.31,956.006 2401.27,940.677 2404.23,924.823 2407.18,908.517 2410.14,891.852 2413.1,874.939 2416.06,857.908 2419.02,840.906 2421.98,824.102 2424.94,807.68 2427.89,791.846 2430.85,776.823 2433.81,762.057 2436.77,746.758 2439.73,731.294 2442.69,715.983 2445.65,701.08 2448.6,686.782 2451.56,673.219 2454.52,660.465 2457.48,648.529 2460.44,637.36 2463.4,626.847 2466.36,616.814 2469.32,607.026 2472.27,597.186 2475.23,586.937 2478.19,575.954 2481.15,565.005 2484.11,554.214 2487.07,543.423 2490.03,532.511 2492.98,521.396 2495.94,510.036 2498.9,498.427 2501.86,486.605 2504.82,474.643 2507.78,462.656 2510.74,450.795 2513.69,439.251 2516.65,428.255 2519.61,418.075 2522.57,409.019 2525.53,401.433 2528.49,395.501 2531.45,390.819 2534.4,387.014 2537.36,383.79 2540.32,380.93 2543.28,378.291 2546.24,375.806 2549.2,373.487 2552.16,371.419 2555.12,369.766 2558.07,368.766 2561.03,368.735 2563.99,370.064 2566.95,373.222 2569.91,378.132 2572.87,383.719 2575.83,389.845 2578.78,396.429 2581.74,403.406 2584.7,410.732 2587.66,418.379 2590.62,426.341 2593.58,434.629 2596.54,443.272 2599.49,452.32 2602.45,461.84 2605.41,471.919 2608.37,482.338 2611.33,492.661 2614.29,503.088 2617.25,513.799 2620.2,524.932 2623.16,536.588 2626.12,548.827 2629.08,561.672 2632.04,575.105 2635,589.07 2637.96,603.471 2640.92,618.174 2643.87,633.004 2646.83,647.749 2649.79,662.156 2652.75,676.046 2655.71,689.818 2658.67,703.519 2661.63,717.122 2664.58,730.604 2667.54,743.95 2670.5,757.147 2673.46,770.191 2676.42,783.079 2679.38,795.818 2682.34,808.415 2685.29,820.888 2688.25,833.257 2691.21,845.546 2694.17,857.791 2697.13,870.046 2700.09,882.287 2703.05,894.466 2706,906.544 2708.96,918.493 2711.92,930.292 2714.88,941.928 2717.84,953.396 2720.8,964.703 2723.76,975.86 2726.71,986.891 2729.67,997.825 2732.63,1008.7 2735.59,1019.57 2738.55,1030.48 2741.51,1041.3 2744.47,1051.88 2747.43,1062.22 2750.38,1072.34 2753.34,1082.22 2756.3,1091.89 2759.26,1101.34 2762.22,1110.59 2765.18,1119.64 2768.14,1128.52 2771.09,1137.24 2774.05,1145.83 2777.01,1154.29 2779.97,1162.65 2782.93,1170.94 2785.89,1179.16 2788.85,1187.1 2791.8,1194.66 2794.76,1201.81 2797.72,1208.54 2800.68,1214.83 2803.64,1220.68 2806.6,1226.09 2809.56,1231.06 2812.51,1235.6 2815.47,1239.74 2818.43,1243.49 2821.39,1246.88 2824.35,1249.95 2827.31,1252.74 2830.27,1255.3 2833.23,1257.68 2836.18,1259.93 2839.14,1262.12 2842.1,1264.32 2845.06,1266.4 2848.02,1268.22 2850.98,1269.76 2853.94,1270.98 2856.89,1271.85 2859.85,1272.34 2862.81,1272.41 2865.77,1272.04 2868.73,1271.19 2871.69,1269.82 2874.65,1267.89 2877.6,1265.38 2880.56,1262.25 2883.52,1258.45 2886.48,1253.96 2889.44,1248.73 2892.4,1242.73 2895.36,1236.09 2898.31,1228.8 2901.27,1220.83 2904.23,1212.15 2907.19,1202.73 2910.15,1192.56 2913.11,1181.66 2916.07,1170.01 2919.03,1157.65 2921.98,1144.6 2924.94,1130.91 2927.9,1116.62 2930.86,1101.79 2933.82,1086.49 2936.78,1070.8 2939.74,1054.81 2942.69,1038.62 2945.65,1022.33 2948.61,1006.07 2951.57,989.923 2954.53,973.329 2957.49,956.19 2960.45,938.667 2963.4,920.901 2966.36,903.01 2969.32,885.094 2972.28,867.234 2975.24,849.488 2978.2,831.895 2981.16,814.475 2984.11,797.225 2987.07,780.124 2990.03,763.129 2992.99,746.18 2995.95,729.193 2998.91,712.065 3001.87,694.674 3004.83,676.881 3007.78,658.73 3010.74,640.33 3013.7,621.725 3016.66,602.962 3019.62,584.087 3022.58,565.147 3025.54,546.188 3028.49,527.259 3031.45,508.408 3034.41,489.684 3037.37,471.136 3040.33,452.813 3043.29,434.767 3046.25,417.048 3049.2,399.707 3052.16,382.796 3055.12,366.367 3058.08,350.867 3061.04,337.065 3064,324.515 3066.96,312.787 3069.91,301.53 3072.87,290.468 3075.83,279.405 3078.79,268.223 3081.75,256.88 3084.71,245.411 3087.67,233.932 3090.62,222.634 3093.58,211.785 3096.54,201.733 3099.5,192.901 3102.46,185.793 3105.42,180.988 3108.38,178.376 3111.34,176.542 3114.29,175.507 3117.25,175.337 3120.21,176.082 3123.17,177.766 3126.13,180.395 3129.09,183.953 3132.05,188.404 3135,193.69 3137.96,199.733 3140.92,206.433 3143.88,213.669 3146.84,221.301 3149.8,229.369 3152.76,238.497 "/>
<polyline clip-path="url(#clip582)" style="stroke:#c271d2; stroke-linecap:round; stroke-linejoin:round; stroke-width:12; stroke-opacity:1; fill:none" points="197.097,302.876 200.056,300.42 203.014,300.045 205.973,300.998 208.932,302.818 211.89,305.716 214.849,310.113 217.807,315.723 220.766,322.229 223.725,329.295 226.683,336.808 229.642,344.868 232.6,353.553 235.559,362.909 238.518,372.946 241.476,383.484 244.435,394.44 247.394,405.808 250.352,417.572 253.311,429.715 256.269,442.214 259.228,455.041 262.187,468.184 265.145,481.722 268.104,495.572 271.062,509.632 274.021,523.818 276.98,538.063 279.938,552.317 282.897,566.547 285.856,580.739 288.814,594.895 291.773,609.035 294.731,623.196 297.69,637.431 300.649,651.815 303.607,666.296 306.566,680.715 309.525,695.121 312.483,709.548 315.442,724.008 318.4,738.496 321.359,752.981 324.318,767.415 327.276,781.727 330.235,795.868 333.193,809.936 336.152,823.912 339.111,837.764 342.069,851.465 345.028,864.995 347.987,878.336 350.945,891.478 353.904,904.413 356.862,917.14 359.821,929.668 362.78,942.066 365.738,954.321 368.697,966.4 371.655,978.276 374.614,989.929 377.573,1001.34 380.531,1012.51 383.49,1023.43 386.449,1034.11 389.407,1044.56 392.366,1054.78 395.324,1064.82 398.283,1074.69 401.242,1084.44 404.2,1094.04 407.159,1103.46 410.117,1112.69 413.076,1121.7 416.035,1130.48 418.993,1138.98 421.952,1147.21 424.911,1155.12 427.869,1162.72 430.828,1169.97 433.786,1176.85 436.745,1183.35 439.704,1189.46 442.662,1195.19 445.621,1200.56 448.58,1205.58 451.538,1210.25 454.497,1214.58 457.455,1218.57 460.414,1222.22 463.373,1225.53 466.331,1228.5 469.29,1231.13 472.248,1233.42 475.207,1235.36 478.166,1236.94 481.124,1238.16 484.083,1239.01 487.042,1239.48 490,1239.57 492.959,1239.25 495.917,1238.53 498.876,1237.41 501.835,1235.93 504.793,1234.1 507.752,1231.96 510.71,1229.5 513.669,1226.73 516.628,1223.63 519.586,1220.2 522.545,1216.41 525.504,1212.23 528.462,1207.61 531.421,1202.52 534.379,1196.89 537.338,1190.66 540.297,1183.77 543.255,1176.13 546.214,1167.67 549.173,1158.45 552.131,1148.59 555.09,1138.2 558.048,1127.37 561.007,1116.19 563.966,1104.73 566.924,1093.01 569.883,1081.09 572.841,1068.98 575.8,1056.69 578.759,1044.2 581.717,1031.48 584.676,1018.53 587.635,1005.44 590.593,992.127 593.552,978.508 596.51,964.516 599.469,950.108 602.428,935.258 605.386,919.961 608.345,904.229 611.303,888.098 614.262,871.621 617.221,854.869 620.179,837.936 623.138,820.93 626.097,803.902 629.055,786.849 632.014,769.772 634.972,752.676 637.931,735.57 640.89,718.468 643.848,701.391 646.807,684.362 649.766,667.41 652.724,650.567 655.683,633.873 658.641,617.369 661.6,601.104 664.559,585.13 667.517,569.503 670.476,554.202 673.434,539.147 676.393,524.394 679.352,509.992 682.31,495.976 685.269,482.369 688.228,469.18 691.186,456.407 694.145,444.036 697.103,432.04 700.062,420.378 703.021,408.999 705.979,397.837 708.938,386.816 711.896,375.845 714.855,364.901 717.814,354.222 720.772,344.057 723.731,334.619 726.69,326.08 729.648,318.579 732.607,312.212 735.565,307.042 738.524,303.089 741.483,300.341 744.441,298.744 747.4,298.207 750.359,298.602 753.317,299.764 756.276,301.487 759.234,303.53 762.193,305.838 765.152,309.26 768.11,313.736 771.069,319.078 774.027,325.127 776.986,331.753 779.945,338.853 782.903,346.354 785.862,354.209 788.821,362.4 791.779,370.939 794.738,379.864 797.696,389.243 800.655,399.171 803.614,409.771 806.572,420.853 809.531,432.12 812.489,443.688 815.448,455.652 818.407,468.082 821.365,481.027 824.324,494.512 827.283,508.539 830.241,523.088 833.2,538.115 836.158,553.554 839.117,569.316 842.076,585.287 845.034,601.334 847.993,617.301 850.952,633.177 853.91,649.012 856.869,664.812 859.827,680.579 862.786,696.311 865.745,712 868.703,727.634 871.662,743.193 874.62,758.655 877.579,773.992 880.538,789.169 883.496,804.149 886.455,818.887 889.414,833.336 892.372,847.44 895.331,861.144 898.289,874.458 901.248,887.456 904.207,900.201 907.165,912.743 910.124,925.122 913.082,937.368 916.041,949.498 919,961.52 921.958,973.431 924.917,985.215 927.876,996.849 930.834,1008.3 933.793,1019.51 936.751,1030.38 939.71,1040.64 942.669,1050.39 945.627,1059.77 948.586,1068.91 951.544,1077.93 954.503,1086.89 957.462,1095.85 960.42,1104.85 963.379,1113.89 966.338,1122.96 969.296,1132.02 972.255,1141 975.213,1149.81 978.172,1158.35 981.131,1166.48 984.089,1174.04 987.048,1180.84 990.007,1187.17 992.965,1193.22 995.924,1198.93 998.882,1204.25 1001.84,1209.15 1004.8,1213.61 1007.76,1217.63 1010.72,1221.2 1013.68,1224.36 1016.63,1227.13 1019.59,1229.58 1022.55,1231.76 1025.51,1233.74 1028.47,1235.44 1031.43,1236.48 1034.39,1236.92 1037.34,1236.83 1040.3,1236.27 1043.26,1235.28 1046.22,1233.9 1049.18,1232.16 1052.14,1230.08 1055.1,1227.68 1058.05,1224.95 1061.01,1221.89 1063.97,1218.48 1066.93,1214.71 1069.89,1210.53 1072.85,1205.91 1075.81,1200.79 1078.77,1195.15 1081.72,1189.2 1084.68,1182.99 1087.64,1176.53 1090.6,1169.85 1093.56,1162.93 1096.52,1155.78 1099.48,1148.39 1102.43,1140.73 1105.39,1132.78 1108.35,1124.53 1111.31,1115.92 1114.27,1106.91 1117.23,1097.46 1120.19,1087.52 1123.14,1077.01 1126.1,1065.79 1129.06,1053.41 1132.02,1040.1 1134.98,1026.19 1137.94,1011.94 1140.9,997.537 1143.85,983.157 1146.81,968.903 1149.77,954.834 1152.73,940.957 1155.69,927.229 1158.65,913.557 1161.61,899.798 1164.56,885.758 1167.52,871.192 1170.48,855.807 1173.44,839.62 1176.4,823.124 1179.36,806.5 1182.32,789.893 1185.28,773.422 1188.23,757.173 1191.19,741.204 1194.15,725.541 1197.11,710.182 1200.07,695.095 1203.03,680.216 1205.99,665.454 1208.94,650.686 1211.9,635.748 1214.86,620.547 1217.82,605.259 1220.78,590.065 1223.74,575.119 1226.7,560.555 1229.65,546.481 1232.61,532.982 1235.57,520.119 1238.53,507.93 1241.49,496.429 1244.45,485.606 1247.41,475.427 1250.36,465.836 1253.32,456.752 1256.28,448.07 1259.24,439.662 1262.2,431.414 1265.16,423.616 1268.12,416.353 1271.08,409.611 1274.03,403.381 1276.99,397.661 1279.95,392.45 1282.91,387.755 1285.87,383.587 1288.83,379.962 1291.79,376.9 1294.74,374.428 1297.7,372.574 1300.66,371.376 1303.62,370.874 1306.58,371.112 1309.54,372.142 1312.5,373.996 1315.45,376.418 1318.41,379.331 1321.37,382.747 1324.33,386.676 1327.29,391.128 1330.25,396.114 1333.21,401.639 1336.16,407.71 1339.12,414.333 1342.08,421.512 1345.04,429.249 1348,437.545 1350.96,446.401 1353.92,455.817 1356.88,465.79 1359.83,476.316 1362.79,487.392 1365.75,499.011 1368.71,511.163 1371.67,523.741 1374.63,536.666 1377.59,549.891 1380.54,563.377 1383.5,577.084 1386.46,590.979 1389.42,605.033 1392.38,619.217 1395.34,633.51 1398.3,647.892 1401.25,662.348 1404.21,676.866 1407.17,691.439 1410.13,706.06 1413.09,720.731 1416.05,735.455 1419.01,750.237 1421.96,765.089 1424.92,780.009 1427.88,794.911 1430.84,809.704 1433.8,824.317 1436.76,838.689 1439.72,852.777 1442.67,866.549 1445.63,879.99 1448.59,893.098 1451.55,905.885 1454.51,918.377 1457.47,930.615 1460.43,942.655 1463.39,954.565 1466.34,966.43 1469.3,978.345 1472.26,990.421 1475.22,1002.38 1478.18,1014.02 1481.14,1025.36 1484.1,1036.41 1487.05,1047.2 1490.01,1057.74 1492.97,1068.02 1495.93,1078.07 1498.89,1087.87 1501.85,1097.42 1504.81,1106.71 1507.76,1115.74 1510.72,1124.47 1513.68,1132.91 1516.64,1141 1519.6,1148.74 1522.56,1156.13 1525.52,1163.19 1528.47,1169.92 1531.43,1176.33 1534.39,1182.41 1537.35,1188.16 1540.31,1193.59 1543.27,1198.68 1546.23,1203.44 1549.19,1207.84 1552.14,1211.89 1555.1,1215.56 1558.06,1218.84 1561.02,1221.73 1563.98,1224.19 1566.94,1226.2 1569.9,1227.76 1572.85,1228.83 1575.81,1229.38 1578.77,1229.4 1581.73,1228.84 1584.69,1227.74 1587.65,1226.17 1590.61,1224.21 1593.56,1221.89 1596.52,1219.28 1599.48,1216.39 1602.44,1213.24 1605.4,1209.83 1608.36,1206.15 1611.32,1202.18 1614.27,1197.88 1617.23,1193.2 1620.19,1188.07 1623.15,1182.42 1626.11,1176.16 1629.07,1169.18 1632.03,1161.36 1634.99,1152.59 1637.94,1142.71 1640.9,1131.83 1643.86,1120.45 1646.82,1108.57 1649.78,1096.22 1652.74,1083.4 1655.7,1070.13 1658.65,1056.43 1661.61,1042.32 1664.57,1027.82 1667.53,1012.98 1670.49,997.808 1673.45,982.357 1676.41,966.662 1679.36,950.765 1682.32,934.712 1685.28,918.554 1688.24,902.243 1691.2,885.774 1694.16,869.218 1697.12,852.631 1700.07,836.064 1703.03,819.554 1705.99,803.127 1708.95,786.8 1711.91,770.579 1714.87,754.459 1717.83,738.425 1720.79,722.451 1723.74,706.5 1726.7,690.526 1729.66,674.471 1732.62,658.206 1735.58,641.306 1738.54,623.946 1741.5,606.394 1744.45,588.884 1747.41,571.612 1750.37,554.744 1753.33,538.408 1756.29,522.699 1759.25,507.677 1762.21,493.368 1765.16,479.762 1768.12,466.817 1771.08,454.454 1774.04,442.561 1777,430.99 1779.96,419.56 1782.92,408.055 1785.87,396.504 1788.83,385.464 1791.79,374.852 1794.75,364.573 1797.71,354.557 1800.67,344.758 1803.63,335.153 1806.58,325.747 1809.54,316.567 1812.5,307.667 1815.46,299.124 1818.42,291.04 1821.38,283.544 1824.34,276.788 1827.3,270.947 1830.25,266.224 1833.21,262.844 1836.17,260.971 1839.13,260.038 1842.09,259.824 1845.05,260.256 1848.01,261.276 1850.96,262.845 1853.92,264.937 1856.88,267.543 1859.84,270.673 1862.8,274.348 1865.76,278.608 1868.72,283.511 1871.67,289.127 1874.63,295.544 1877.59,302.868 1880.55,311.215 1883.51,320.576 1886.47,330.797 1889.43,341.734 1892.38,353.26 1895.34,365.263 1898.3,377.646 1901.26,390.329 1904.22,403.247 1907.18,416.352 1910.14,429.611 1913.1,443.007 1916.05,456.539 1919.01,470.221 1921.97,484.085 1924.93,498.175 1927.89,512.556 1930.85,527.304 1933.81,542.513 1936.76,558.234 1939.72,574.028 1942.68,589.792 1945.64,605.537 1948.6,621.268 1951.56,636.988 1954.52,652.701 1957.47,668.404 1960.43,684.095 1963.39,699.767 1966.35,715.412 1969.31,731.019 1972.27,746.576 1975.23,762.065 1978.18,777.47 1981.14,792.769 1984.1,807.938 1987.06,822.911 1990.02,837.651 1992.98,852.169 1995.94,866.474 1998.9,880.574 2001.85,894.476 2004.81,908.187 2007.77,921.711 2010.73,935.054 2013.69,948.218 2016.65,961.206 2019.61,974.019 2022.56,986.659 2025.52,999.124 2028.48,1011.41 2031.44,1023.53 2034.4,1035.46 2037.36,1047.21 2040.32,1058.76 2043.27,1070.1 2046.23,1081.15 2049.19,1091.96 2052.15,1102.55 2055.11,1112.94 2058.07,1123.15 2061.03,1133.19 2063.98,1143.07 2066.94,1152.78 2069.9,1162.32 2072.86,1171.69 2075.82,1180.85 2078.78,1189.79 2081.74,1198.48 2084.69,1206.9 2087.65,1214.99 2090.61,1222.72 2093.57,1230.04 2096.53,1236.9 2099.49,1243.46 2102.45,1249.76 2105.41,1255.81 2108.36,1261.61 2111.32,1267.17 2114.28,1272.5 2117.24,1277.59 2120.2,1282.45 2123.16,1287.07 2126.12,1291.45 2129.07,1295.58 2132.03,1299.46 2134.99,1303.08 2137.95,1306.42 2140.91,1309.49 2143.87,1312.25 2146.83,1314.71 2149.78,1316.84 2152.74,1318.62 2155.7,1319.95 2158.66,1320.63 2161.62,1320.69 2164.58,1320.15 2167.54,1319.05 2170.49,1317.41 2173.45,1315.26 2176.41,1312.59 2179.37,1309.43 2182.33,1305.78 2185.29,1301.63 2188.25,1296.99 2191.21,1291.85 2194.16,1286.19 2197.12,1280 2200.08,1273.25 2203.04,1265.91 2206,1257.95 2208.96,1249.33 2211.92,1240.02 2214.87,1229.97 2217.83,1219.15 2220.79,1207.76 2223.75,1195.96 2226.71,1183.9 2229.67,1171.69 2232.63,1159.42 2235.58,1147.16 2238.54,1134.97 2241.5,1122.86 2244.46,1110.85 2247.42,1098.9 2250.38,1086.98 2253.34,1075.02 2256.29,1062.93 2259.25,1050.6 2262.21,1037.9 2265.17,1024.68 2268.13,1010.74 2271.09,995.895 2274.05,979.926 2277.01,963.369 2279.96,946.569 2282.92,929.46 2285.88,911.991 2288.84,894.125 2291.8,875.84 2294.76,857.13 2297.72,838.003 2300.67,818.482 2303.63,798.606 2306.59,778.428 2309.55,758.017 2312.51,737.455 2315.47,716.84 2318.43,696.287 2321.38,675.923 2324.34,655.878 2327.3,636.186 2330.26,616.858 2333.22,597.909 2336.18,579.351 2339.14,561.191 2342.09,543.434 2345.05,526.082 2348.01,509.134 2350.97,492.586 2353.93,476.431 2356.89,460.658 2359.85,445.253 2362.81,430.199 2365.76,415.478 2368.72,401.066 2371.68,386.938 2374.64,373.063 2377.6,359.411 2380.56,345.946 2383.52,332.629 2386.47,319.776 2389.43,307.911 2392.39,296.957 2395.35,286.839 2398.31,277.498 2401.27,268.884 2404.23,260.961 2407.18,253.708 2410.14,247.113 2413.1,241.18 2416.06,235.924 2419.02,231.375 2421.98,227.572 2424.94,224.572 2427.89,222.441 2430.85,221.258 2433.81,221.117 2436.77,222.12 2439.73,224.167 2442.69,227.131 2445.65,230.991 2448.6,235.72 2451.56,241.295 2454.52,247.689 2457.48,254.876 2460.44,262.83 2463.4,271.525 2466.36,280.931 2469.32,291.021 2472.27,301.767 2475.23,313.139 2478.19,325.106 2481.15,337.64 2484.11,350.709 2487.07,364.281 2490.03,378.325 2492.98,392.808 2495.94,407.72 2498.9,423.009 2501.86,438.604 2504.82,454.439 2507.78,470.458 2510.74,486.611 2513.69,502.859 2516.65,519.169 2519.61,535.516 2522.57,551.884 2525.53,568.263 2528.49,584.655 2531.45,601.065 2534.4,617.51 2537.36,634.013 2540.32,650.605 2543.28,667.327 2546.24,684.109 2549.2,700.641 2552.16,716.926 2555.12,732.99 2558.07,748.855 2561.03,764.542 2563.99,780.066 2566.95,795.444 2569.91,810.685 2572.87,825.8 2575.83,840.795 2578.78,855.673 2581.74,870.435 2584.7,885.08 2587.66,899.603 2590.62,913.997 2593.58,928.253 2596.54,942.358 2599.49,956.297 2602.45,970.052 2605.41,983.622 2608.37,997.048 2611.33,1010.3 2614.29,1023.34 2617.25,1036.14 2620.2,1048.66 2623.16,1060.9 2626.12,1072.82 2629.08,1084.42 2632.04,1095.67 2635,1106.58 2637.96,1117.15 2640.92,1127.36 2643.87,1137.24 2646.83,1146.78 2649.79,1156 2652.75,1164.93 2655.71,1173.57 2658.67,1181.96 2661.63,1190.12 2664.58,1198.09 2667.54,1205.91 2670.5,1213.62 2673.46,1221.16 2676.42,1228.45 2679.38,1235.42 2682.34,1242.01 2685.29,1248.18 2688.25,1253.88 2691.21,1259.08 2694.17,1263.77 2697.13,1267.95 2700.09,1271.6 2703.05,1274.75 2706,1277.42 2708.96,1279.65 2711.92,1281.47 2714.88,1282.94 2717.84,1284.13 2720.8,1285.12 2723.76,1285.85 2726.71,1286.18 2729.67,1286.05 2732.63,1285.41 2735.59,1284.22 2738.55,1282.45 2741.51,1280.07 2744.47,1277.09 2747.43,1273.49 2750.38,1269.29 2753.34,1264.51 2756.3,1259.16 2759.26,1253.3 2762.22,1246.97 2765.18,1240.22 2768.14,1233.13 2771.09,1225.77 2774.05,1218.23 2777.01,1210.39 2779.97,1201.53 2782.93,1191.81 2785.89,1181.44 2788.85,1170.57 2791.8,1159.35 2794.76,1147.86 2797.72,1136.15 2800.68,1124.25 2803.64,1112.13 2806.6,1099.73 2809.56,1086.95 2812.51,1073.65 2815.47,1059.67 2818.43,1044.8 2821.39,1028.99 2824.35,1013.03 2827.31,996.931 2830.27,980.589 2833.23,963.932 2836.18,946.912 2839.14,929.508 2842.1,911.72 2845.06,893.578 2848.02,875.134 2850.98,856.467 2853.94,837.678 2856.89,818.896 2859.85,800.275 2862.81,781.993 2865.77,764.253 2868.73,747.284 2871.69,731.059 2874.65,714.777 2877.6,698.396 2880.56,681.954 2883.52,665.486 2886.48,649.03 2889.44,632.624 2892.4,616.307 2895.36,600.119 2898.31,584.098 2901.27,568.287 2904.23,552.727 2907.19,537.459 2910.15,522.525 2913.11,507.971 2916.07,493.774 2919.03,479.941 2921.98,466.568 2924.94,453.74 2927.9,441.531 2930.86,430.002 2933.82,419.205 2936.78,409.178 2939.74,399.95 2942.69,391.537 2945.65,383.943 2948.61,377.162 2951.57,371.175 2954.53,365.953 2957.49,361.455 2960.45,357.627 2963.4,354.405 2966.36,351.714 2969.32,349.494 2972.28,347.858 2975.24,346.834 2978.2,346.418 2981.16,346.61 2984.11,347.407 2987.07,348.807 2990.03,350.806 2992.99,353.401 2995.95,356.591 2998.91,360.37 3001.87,364.736 3004.83,369.684 3007.78,375.21 3010.74,381.311 3013.7,387.981 3016.66,395.095 3019.62,402.553 3022.58,410.373 3025.54,418.569 3028.49,427.145 3031.45,436.102 3034.41,445.431 3037.37,455.118 3040.33,465.143 3043.29,475.478 3046.25,486.09 3049.2,496.937 3052.16,507.973 3055.12,519.144 3058.08,530.389 3061.04,541.642 3064,552.83 3066.96,564.1 3069.91,575.6 3072.87,587.315 3075.83,599.231 3078.79,611.33 3081.75,623.595 3084.71,636.008 3087.67,648.549 3090.62,661.199 3093.58,673.935 3096.54,686.735 3099.5,699.576 3102.46,712.433 3105.42,725.282 3108.38,738.094 3111.34,750.84 3114.29,763.518 3117.25,776.145 3120.21,788.734 3123.17,801.295 3126.13,813.833 3129.09,826.349 3132.05,838.842 3135,851.304 3137.96,863.727 3140.92,876.095 3143.88,888.392 3146.84,900.594 3149.8,912.678 3152.76,924.613 "/>
</svg>
