<?xml version="1.0" encoding="UTF-8" standalone="no"?>
<!DOCTYPE svg PUBLIC "-//W3C//DTD SVG 1.1//EN"
 "http://www.w3.org/Graphics/SVG/1.1/DTD/svg11.dtd">
<!-- Generated by graphviz version 2.50.0 (20211204.2007)
 -->
<!-- Title: G Pages: 1 -->
<svg width="225pt" height="90pt"
 viewBox="0.00 0.00 225.19 90.15" xmlns="http://www.w3.org/2000/svg" xmlns:xlink="http://www.w3.org/1999/xlink">
<g id="graph0" class="graph" transform="scale(1 1) rotate(0) translate(4 86.15)">
<title>G</title>
<polygon fill="white" stroke="transparent" points="-4,4 -4,-86.15 221.19,-86.15 221.19,4 -4,4"/>
<!-- 2A -->
<g id="node1" class="node">
<title>2A</title>
<ellipse fill="#6c9ac3" stroke="#6c9ac3" cx="21.45" cy="-49" rx="21.4" ry="21.4"/>
<text text-anchor="middle" x="21.45" y="-45.3" font-family="Times,serif" font-size="14.00">2A</text>
</g>
<!-- B + G -->
<g id="node2" class="node">
<title>B + G</title>
<ellipse fill="#6c9ac3" stroke="#6c9ac3" cx="112.04" cy="-49" rx="33.29" ry="33.29"/>
<text text-anchor="middle" x="112.04" y="-45.3" font-family="Times,serif" font-size="14.00">B + G</text>
</g>
<!-- 2A&#45;&gt;B + G -->
<g id="edge1" class="edge">
<title>2A&#45;&gt;B + G</title>
<path fill="none" stroke="black" d="M42.55,-43.24C50.42,-42.52 59.75,-42.2 68.95,-42.26"/>
<polygon fill="black" stroke="black" points="69.13,-45.76 79.2,-42.49 69.29,-38.76 69.13,-45.76"/>
</g>
<!-- B + G&#45;&gt;2A -->
<g id="edge2" class="edge">
<title>B + G&#45;&gt;2A</title>
<path fill="none" stroke="black" d="M79.2,-55.51C70.51,-55.85 61.12,-55.83 52.53,-55.43"/>
<polygon fill="black" stroke="black" points="52.76,-51.94 42.55,-54.76 52.29,-58.92 52.76,-51.94"/>
</g>
<!-- H -->
<g id="node3" class="node">
<title>H</title>
<ellipse fill="#6c9ac3" stroke="#6c9ac3" cx="199.19" cy="-18" rx="18" ry="18"/>
<text text-anchor="middle" x="199.19" y="-14.3" font-family="Times,serif" font-size="14.00">H</text>
</g>
<!-- B + G&#45;&gt;H -->
<g id="edge3" class="edge">
<title>B + G&#45;&gt;H</title>
<path fill="none" stroke="black" d="M143.78,-37.81C153.2,-34.38 163.45,-30.65 172.49,-27.36"/>
<polygon fill="black" stroke="black" points="173.88,-30.58 182.07,-23.87 171.48,-24 173.88,-30.58"/>
</g>
<!-- H&#45;&gt;2A -->
<g id="edge4" class="edge">
<title>H&#45;&gt;2A</title>
<path fill="none" stroke="black" d="M181.9,-12.44C158.48,-5.34 114.24,4.71 78.9,-7 66.39,-11.14 54.41,-19.24 44.73,-27.24"/>
<polygon fill="black" stroke="black" points="42.4,-24.62 37.17,-33.83 47.01,-29.89 42.4,-24.62"/>
</g>
</g>
</svg>
