<?xml version="1.0" encoding="utf-8"?>
<svg xmlns="http://www.w3.org/2000/svg" xmlns:xlink="http://www.w3.org/1999/xlink" width="600" height="600" viewBox="0 0 2400 2400">
<defs>
  <clipPath id="clip140">
    <rect x="0" y="0" width="2400" height="2400"/>
  </clipPath>
</defs>
<path clip-path="url(#clip140)" d="M0 2400 L2400 2400 L2400 0 L0 0  Z" fill="#ffffff" fill-rule="evenodd" fill-opacity="1"/>
<defs>
  <clipPath id="clip141">
    <rect x="480" y="240" width="1681" height="1681"/>
  </clipPath>
</defs>
<path clip-path="url(#clip140)" d="M320.546 2126.9 L2352.76 2126.9 L2352.76 47.2441 L320.546 47.2441  Z" fill="#ffffff" fill-rule="evenodd" fill-opacity="1"/>
<defs>
  <clipPath id="clip142">
    <rect x="320" y="47" width="2033" height="2081"/>
  </clipPath>
</defs>
<polyline clip-path="url(#clip140)" style="stroke:#000000; stroke-linecap:round; stroke-linejoin:round; stroke-width:4; stroke-opacity:1; fill:none" points="320.546,2126.9 2352.76,2126.9 "/>
<polyline clip-path="url(#clip140)" style="stroke:#000000; stroke-linecap:round; stroke-linejoin:round; stroke-width:4; stroke-opacity:1; fill:none" points="320.546,47.2441 2352.76,47.2441 "/>
<polyline clip-path="url(#clip140)" style="stroke:#000000; stroke-linecap:round; stroke-linejoin:round; stroke-width:4; stroke-opacity:1; fill:none" points="320.546,2126.9 320.546,2108 "/>
<polyline clip-path="url(#clip140)" style="stroke:#000000; stroke-linecap:round; stroke-linejoin:round; stroke-width:4; stroke-opacity:1; fill:none" points="743.923,2126.9 743.923,2108 "/>
<polyline clip-path="url(#clip140)" style="stroke:#000000; stroke-linecap:round; stroke-linejoin:round; stroke-width:4; stroke-opacity:1; fill:none" points="1167.3,2126.9 1167.3,2108 "/>
<polyline clip-path="url(#clip140)" style="stroke:#000000; stroke-linecap:round; stroke-linejoin:round; stroke-width:4; stroke-opacity:1; fill:none" points="1590.68,2126.9 1590.68,2108 "/>
<polyline clip-path="url(#clip140)" style="stroke:#000000; stroke-linecap:round; stroke-linejoin:round; stroke-width:4; stroke-opacity:1; fill:none" points="2014.05,2126.9 2014.05,2108 "/>
<polyline clip-path="url(#clip140)" style="stroke:#000000; stroke-linecap:round; stroke-linejoin:round; stroke-width:4; stroke-opacity:1; fill:none" points="320.546,47.2441 320.546,66.1417 "/>
<polyline clip-path="url(#clip140)" style="stroke:#000000; stroke-linecap:round; stroke-linejoin:round; stroke-width:4; stroke-opacity:1; fill:none" points="743.923,47.2441 743.923,66.1417 "/>
<polyline clip-path="url(#clip140)" style="stroke:#000000; stroke-linecap:round; stroke-linejoin:round; stroke-width:4; stroke-opacity:1; fill:none" points="1167.3,47.2441 1167.3,66.1417 "/>
<polyline clip-path="url(#clip140)" style="stroke:#000000; stroke-linecap:round; stroke-linejoin:round; stroke-width:4; stroke-opacity:1; fill:none" points="1590.68,47.2441 1590.68,66.1417 "/>
<polyline clip-path="url(#clip140)" style="stroke:#000000; stroke-linecap:round; stroke-linejoin:round; stroke-width:4; stroke-opacity:1; fill:none" points="2014.05,47.2441 2014.05,66.1417 "/>
<path clip-path="url(#clip140)" d="M282.85 2157.81 Q279.238 2157.81 277.41 2161.38 Q275.604 2164.92 275.604 2172.05 Q275.604 2179.16 277.41 2182.72 Q279.238 2186.26 282.85 2186.26 Q286.484 2186.26 288.289 2182.72 Q290.118 2179.16 290.118 2172.05 Q290.118 2164.92 288.289 2161.38 Q286.484 2157.81 282.85 2157.81 M282.85 2154.11 Q288.66 2154.11 291.715 2158.72 Q294.794 2163.3 294.794 2172.05 Q294.794 2180.78 291.715 2185.38 Q288.66 2189.97 282.85 2189.97 Q277.039 2189.97 273.961 2185.38 Q270.905 2180.78 270.905 2172.05 Q270.905 2163.3 273.961 2158.72 Q277.039 2154.11 282.85 2154.11 Z" fill="#000000" fill-rule="nonzero" fill-opacity="1" /><path clip-path="url(#clip140)" d="M303.011 2183.42 L307.896 2183.42 L307.896 2189.3 L303.011 2189.3 L303.011 2183.42 Z" fill="#000000" fill-rule="nonzero" fill-opacity="1" /><path clip-path="url(#clip140)" d="M328.081 2157.81 Q324.47 2157.81 322.641 2161.38 Q320.835 2164.92 320.835 2172.05 Q320.835 2179.16 322.641 2182.72 Q324.47 2186.26 328.081 2186.26 Q331.715 2186.26 333.521 2182.72 Q335.349 2179.16 335.349 2172.05 Q335.349 2164.92 333.521 2161.38 Q331.715 2157.81 328.081 2157.81 M328.081 2154.11 Q333.891 2154.11 336.947 2158.72 Q340.025 2163.3 340.025 2172.05 Q340.025 2180.78 336.947 2185.38 Q333.891 2189.97 328.081 2189.97 Q322.271 2189.97 319.192 2185.38 Q316.136 2180.78 316.136 2172.05 Q316.136 2163.3 319.192 2158.72 Q322.271 2154.11 328.081 2154.11 Z" fill="#000000" fill-rule="nonzero" fill-opacity="1" /><path clip-path="url(#clip140)" d="M358.243 2157.81 Q354.632 2157.81 352.803 2161.38 Q350.997 2164.92 350.997 2172.05 Q350.997 2179.16 352.803 2182.72 Q354.632 2186.26 358.243 2186.26 Q361.877 2186.26 363.682 2182.72 Q365.511 2179.16 365.511 2172.05 Q365.511 2164.92 363.682 2161.38 Q361.877 2157.81 358.243 2157.81 M358.243 2154.11 Q364.053 2154.11 367.108 2158.72 Q370.187 2163.3 370.187 2172.05 Q370.187 2180.78 367.108 2185.38 Q364.053 2189.97 358.243 2189.97 Q352.433 2189.97 349.354 2185.38 Q346.298 2180.78 346.298 2172.05 Q346.298 2163.3 349.354 2158.72 Q352.433 2154.11 358.243 2154.11 Z" fill="#000000" fill-rule="nonzero" fill-opacity="1" /><path clip-path="url(#clip140)" d="M706.724 2157.81 Q703.113 2157.81 701.285 2161.38 Q699.479 2164.92 699.479 2172.05 Q699.479 2179.16 701.285 2182.72 Q703.113 2186.26 706.724 2186.26 Q710.359 2186.26 712.164 2182.72 Q713.993 2179.16 713.993 2172.05 Q713.993 2164.92 712.164 2161.38 Q710.359 2157.81 706.724 2157.81 M706.724 2154.11 Q712.534 2154.11 715.59 2158.72 Q718.669 2163.3 718.669 2172.05 Q718.669 2180.78 715.59 2185.38 Q712.534 2189.97 706.724 2189.97 Q700.914 2189.97 697.835 2185.38 Q694.78 2180.78 694.78 2172.05 Q694.78 2163.3 697.835 2158.72 Q700.914 2154.11 706.724 2154.11 Z" fill="#000000" fill-rule="nonzero" fill-opacity="1" /><path clip-path="url(#clip140)" d="M726.886 2183.42 L731.77 2183.42 L731.77 2189.3 L726.886 2189.3 L726.886 2183.42 Z" fill="#000000" fill-rule="nonzero" fill-opacity="1" /><path clip-path="url(#clip140)" d="M745.983 2185.36 L762.303 2185.36 L762.303 2189.3 L740.358 2189.3 L740.358 2185.36 Q743.02 2182.61 747.604 2177.98 Q752.21 2173.32 753.391 2171.98 Q755.636 2169.46 756.516 2167.72 Q757.418 2165.96 757.418 2164.27 Q757.418 2161.52 755.474 2159.78 Q753.553 2158.05 750.451 2158.05 Q748.252 2158.05 745.798 2158.81 Q743.368 2159.57 740.59 2161.12 L740.59 2156.4 Q743.414 2155.27 745.868 2154.69 Q748.321 2154.11 750.358 2154.11 Q755.729 2154.11 758.923 2156.8 Q762.118 2159.48 762.118 2163.97 Q762.118 2166.1 761.307 2168.02 Q760.52 2169.92 758.414 2172.51 Q757.835 2173.18 754.733 2176.4 Q751.631 2179.6 745.983 2185.36 Z" fill="#000000" fill-rule="nonzero" fill-opacity="1" /><path clip-path="url(#clip140)" d="M772.164 2154.74 L790.52 2154.74 L790.52 2158.67 L776.446 2158.67 L776.446 2167.14 Q777.465 2166.8 778.483 2166.63 Q779.502 2166.45 780.52 2166.45 Q786.307 2166.45 789.687 2169.62 Q793.066 2172.79 793.066 2178.21 Q793.066 2183.79 789.594 2186.89 Q786.122 2189.97 779.803 2189.97 Q777.627 2189.97 775.358 2189.6 Q773.113 2189.23 770.705 2188.49 L770.705 2183.79 Q772.789 2184.92 775.011 2185.48 Q777.233 2186.03 779.71 2186.03 Q783.715 2186.03 786.053 2183.93 Q788.391 2181.82 788.391 2178.21 Q788.391 2174.6 786.053 2172.49 Q783.715 2170.38 779.71 2170.38 Q777.835 2170.38 775.96 2170.8 Q774.108 2171.22 772.164 2172.1 L772.164 2154.74 Z" fill="#000000" fill-rule="nonzero" fill-opacity="1" /><path clip-path="url(#clip140)" d="M1129.6 2157.81 Q1125.99 2157.81 1124.16 2161.38 Q1122.36 2164.92 1122.36 2172.05 Q1122.36 2179.16 1124.16 2182.72 Q1125.99 2186.26 1129.6 2186.26 Q1133.24 2186.26 1135.04 2182.72 Q1136.87 2179.16 1136.87 2172.05 Q1136.87 2164.92 1135.04 2161.38 Q1133.24 2157.81 1129.6 2157.81 M1129.6 2154.11 Q1135.41 2154.11 1138.47 2158.72 Q1141.55 2163.3 1141.55 2172.05 Q1141.55 2180.78 1138.47 2185.38 Q1135.41 2189.97 1129.6 2189.97 Q1123.79 2189.97 1120.71 2185.38 Q1117.66 2180.78 1117.66 2172.05 Q1117.66 2163.3 1120.71 2158.72 Q1123.79 2154.11 1129.6 2154.11 Z" fill="#000000" fill-rule="nonzero" fill-opacity="1" /><path clip-path="url(#clip140)" d="M1149.77 2183.42 L1154.65 2183.42 L1154.65 2189.3 L1149.77 2189.3 L1149.77 2183.42 Z" fill="#000000" fill-rule="nonzero" fill-opacity="1" /><path clip-path="url(#clip140)" d="M1164.88 2154.74 L1183.24 2154.74 L1183.24 2158.67 L1169.16 2158.67 L1169.16 2167.14 Q1170.18 2166.8 1171.2 2166.63 Q1172.22 2166.45 1173.24 2166.45 Q1179.02 2166.45 1182.4 2169.62 Q1185.78 2172.79 1185.78 2178.21 Q1185.78 2183.79 1182.31 2186.89 Q1178.84 2189.97 1172.52 2189.97 Q1170.34 2189.97 1168.08 2189.6 Q1165.83 2189.23 1163.42 2188.49 L1163.42 2183.79 Q1165.51 2184.92 1167.73 2185.48 Q1169.95 2186.03 1172.43 2186.03 Q1176.43 2186.03 1178.77 2183.93 Q1181.11 2181.82 1181.11 2178.21 Q1181.11 2174.6 1178.77 2172.49 Q1176.43 2170.38 1172.43 2170.38 Q1170.55 2170.38 1168.68 2170.8 Q1166.83 2171.22 1164.88 2172.1 L1164.88 2154.74 Z" fill="#000000" fill-rule="nonzero" fill-opacity="1" /><path clip-path="url(#clip140)" d="M1205 2157.81 Q1201.39 2157.81 1199.56 2161.38 Q1197.75 2164.92 1197.75 2172.05 Q1197.75 2179.16 1199.56 2182.72 Q1201.39 2186.26 1205 2186.26 Q1208.63 2186.26 1210.44 2182.72 Q1212.27 2179.16 1212.27 2172.05 Q1212.27 2164.92 1210.44 2161.38 Q1208.63 2157.81 1205 2157.81 M1205 2154.11 Q1210.81 2154.11 1213.86 2158.72 Q1216.94 2163.3 1216.94 2172.05 Q1216.94 2180.78 1213.86 2185.38 Q1210.81 2189.97 1205 2189.97 Q1199.19 2189.97 1196.11 2185.38 Q1193.05 2180.78 1193.05 2172.05 Q1193.05 2163.3 1196.11 2158.72 Q1199.19 2154.11 1205 2154.11 Z" fill="#000000" fill-rule="nonzero" fill-opacity="1" /><path clip-path="url(#clip140)" d="M1553.48 2157.81 Q1549.87 2157.81 1548.04 2161.38 Q1546.23 2164.92 1546.23 2172.05 Q1546.23 2179.16 1548.04 2182.72 Q1549.87 2186.26 1553.48 2186.26 Q1557.11 2186.26 1558.92 2182.72 Q1560.75 2179.16 1560.75 2172.05 Q1560.75 2164.92 1558.92 2161.38 Q1557.11 2157.81 1553.48 2157.81 M1553.48 2154.11 Q1559.29 2154.11 1562.34 2158.72 Q1565.42 2163.3 1565.42 2172.05 Q1565.42 2180.78 1562.34 2185.38 Q1559.29 2189.97 1553.48 2189.97 Q1547.67 2189.97 1544.59 2185.38 Q1541.53 2180.78 1541.53 2172.05 Q1541.53 2163.3 1544.59 2158.72 Q1547.67 2154.11 1553.48 2154.11 Z" fill="#000000" fill-rule="nonzero" fill-opacity="1" /><path clip-path="url(#clip140)" d="M1573.64 2183.42 L1578.52 2183.42 L1578.52 2189.3 L1573.64 2189.3 L1573.64 2183.42 Z" fill="#000000" fill-rule="nonzero" fill-opacity="1" /><path clip-path="url(#clip140)" d="M1587.53 2154.74 L1609.75 2154.74 L1609.75 2156.73 L1597.2 2189.3 L1592.32 2189.3 L1604.13 2158.67 L1587.53 2158.67 L1587.53 2154.74 Z" fill="#000000" fill-rule="nonzero" fill-opacity="1" /><path clip-path="url(#clip140)" d="M1618.92 2154.74 L1637.27 2154.74 L1637.27 2158.67 L1623.2 2158.67 L1623.2 2167.14 Q1624.22 2166.8 1625.24 2166.63 Q1626.26 2166.45 1627.27 2166.45 Q1633.06 2166.45 1636.44 2169.62 Q1639.82 2172.79 1639.82 2178.21 Q1639.82 2183.79 1636.35 2186.89 Q1632.88 2189.97 1626.56 2189.97 Q1624.38 2189.97 1622.11 2189.6 Q1619.87 2189.23 1617.46 2188.49 L1617.46 2183.79 Q1619.54 2184.92 1621.77 2185.48 Q1623.99 2186.03 1626.46 2186.03 Q1630.47 2186.03 1632.81 2183.93 Q1635.14 2181.82 1635.14 2178.21 Q1635.14 2174.6 1632.81 2172.49 Q1630.47 2170.38 1626.46 2170.38 Q1624.59 2170.38 1622.71 2170.8 Q1620.86 2171.22 1618.92 2172.1 L1618.92 2154.74 Z" fill="#000000" fill-rule="nonzero" fill-opacity="1" /><path clip-path="url(#clip140)" d="M1966.13 2185.36 L1973.77 2185.36 L1973.77 2158.99 L1965.45 2160.66 L1965.45 2156.4 L1973.72 2154.74 L1978.39 2154.74 L1978.39 2185.36 L1986.03 2185.36 L1986.03 2189.3 L1966.13 2189.3 L1966.13 2185.36 Z" fill="#000000" fill-rule="nonzero" fill-opacity="1" /><path clip-path="url(#clip140)" d="M1995.48 2183.42 L2000.36 2183.42 L2000.36 2189.3 L1995.48 2189.3 L1995.48 2183.42 Z" fill="#000000" fill-rule="nonzero" fill-opacity="1" /><path clip-path="url(#clip140)" d="M2020.55 2157.81 Q2016.94 2157.81 2015.11 2161.38 Q2013.3 2164.92 2013.3 2172.05 Q2013.3 2179.16 2015.11 2182.72 Q2016.94 2186.26 2020.55 2186.26 Q2024.18 2186.26 2025.99 2182.72 Q2027.82 2179.16 2027.82 2172.05 Q2027.82 2164.92 2025.99 2161.38 Q2024.18 2157.81 2020.55 2157.81 M2020.55 2154.11 Q2026.36 2154.11 2029.41 2158.72 Q2032.49 2163.3 2032.49 2172.05 Q2032.49 2180.78 2029.41 2185.38 Q2026.36 2189.97 2020.55 2189.97 Q2014.74 2189.97 2011.66 2185.38 Q2008.6 2180.78 2008.6 2172.05 Q2008.6 2163.3 2011.66 2158.72 Q2014.74 2154.11 2020.55 2154.11 Z" fill="#000000" fill-rule="nonzero" fill-opacity="1" /><path clip-path="url(#clip140)" d="M2050.71 2157.81 Q2047.1 2157.81 2045.27 2161.38 Q2043.46 2164.92 2043.46 2172.05 Q2043.46 2179.16 2045.27 2182.72 Q2047.1 2186.26 2050.71 2186.26 Q2054.34 2186.26 2056.15 2182.72 Q2057.98 2179.16 2057.98 2172.05 Q2057.98 2164.92 2056.15 2161.38 Q2054.34 2157.81 2050.71 2157.81 M2050.71 2154.11 Q2056.52 2154.11 2059.57 2158.72 Q2062.65 2163.3 2062.65 2172.05 Q2062.65 2180.78 2059.57 2185.38 Q2056.52 2189.97 2050.71 2189.97 Q2044.9 2189.97 2041.82 2185.38 Q2038.76 2180.78 2038.76 2172.05 Q2038.76 2163.3 2041.82 2158.72 Q2044.9 2154.11 2050.71 2154.11 Z" fill="#000000" fill-rule="nonzero" fill-opacity="1" /><path clip-path="url(#clip140)" d="M1318.48 2224.24 L1325.38 2224.24 L1337.19 2241.9 L1349.06 2224.24 L1355.97 2224.24 L1340.69 2247.06 L1356.99 2271.76 L1350.08 2271.76 L1336.71 2251.55 L1323.25 2271.76 L1316.31 2271.76 L1333.28 2246.39 L1318.48 2224.24 Z" fill="#000000" fill-rule="nonzero" fill-opacity="1" /><polyline clip-path="url(#clip140)" style="stroke:#000000; stroke-linecap:round; stroke-linejoin:round; stroke-width:4; stroke-opacity:1; fill:none" points="320.546,2126.9 320.546,47.2441 "/>
<polyline clip-path="url(#clip140)" style="stroke:#000000; stroke-linecap:round; stroke-linejoin:round; stroke-width:4; stroke-opacity:1; fill:none" points="2352.76,2126.9 2352.76,47.2441 "/>
<polyline clip-path="url(#clip140)" style="stroke:#000000; stroke-linecap:round; stroke-linejoin:round; stroke-width:4; stroke-opacity:1; fill:none" points="320.546,2126.9 339.444,2126.9 "/>
<polyline clip-path="url(#clip140)" style="stroke:#000000; stroke-linecap:round; stroke-linejoin:round; stroke-width:4; stroke-opacity:1; fill:none" points="320.546,1693.63 339.444,1693.63 "/>
<polyline clip-path="url(#clip140)" style="stroke:#000000; stroke-linecap:round; stroke-linejoin:round; stroke-width:4; stroke-opacity:1; fill:none" points="320.546,1260.37 339.444,1260.37 "/>
<polyline clip-path="url(#clip140)" style="stroke:#000000; stroke-linecap:round; stroke-linejoin:round; stroke-width:4; stroke-opacity:1; fill:none" points="320.546,827.113 339.444,827.113 "/>
<polyline clip-path="url(#clip140)" style="stroke:#000000; stroke-linecap:round; stroke-linejoin:round; stroke-width:4; stroke-opacity:1; fill:none" points="320.546,393.853 339.444,393.853 "/>
<polyline clip-path="url(#clip140)" style="stroke:#000000; stroke-linecap:round; stroke-linejoin:round; stroke-width:4; stroke-opacity:1; fill:none" points="2352.76,2126.9 2333.86,2126.9 "/>
<polyline clip-path="url(#clip140)" style="stroke:#000000; stroke-linecap:round; stroke-linejoin:round; stroke-width:4; stroke-opacity:1; fill:none" points="2352.76,1693.63 2333.86,1693.63 "/>
<polyline clip-path="url(#clip140)" style="stroke:#000000; stroke-linecap:round; stroke-linejoin:round; stroke-width:4; stroke-opacity:1; fill:none" points="2352.76,1260.37 2333.86,1260.37 "/>
<polyline clip-path="url(#clip140)" style="stroke:#000000; stroke-linecap:round; stroke-linejoin:round; stroke-width:4; stroke-opacity:1; fill:none" points="2352.76,827.113 2333.86,827.113 "/>
<polyline clip-path="url(#clip140)" style="stroke:#000000; stroke-linecap:round; stroke-linejoin:round; stroke-width:4; stroke-opacity:1; fill:none" points="2352.76,393.853 2333.86,393.853 "/>
<path clip-path="url(#clip140)" d="M197.209 2112.69 Q193.598 2112.69 191.769 2116.26 Q189.963 2119.8 189.963 2126.93 Q189.963 2134.04 191.769 2137.6 Q193.598 2141.14 197.209 2141.14 Q200.843 2141.14 202.648 2137.6 Q204.477 2134.04 204.477 2126.93 Q204.477 2119.8 202.648 2116.26 Q200.843 2112.69 197.209 2112.69 M197.209 2108.99 Q203.019 2108.99 206.074 2113.6 Q209.153 2118.18 209.153 2126.93 Q209.153 2135.66 206.074 2140.26 Q203.019 2144.85 197.209 2144.85 Q191.398 2144.85 188.32 2140.26 Q185.264 2135.66 185.264 2126.93 Q185.264 2118.18 188.32 2113.6 Q191.398 2108.99 197.209 2108.99 Z" fill="#000000" fill-rule="nonzero" fill-opacity="1" /><path clip-path="url(#clip140)" d="M217.371 2138.3 L222.255 2138.3 L222.255 2144.18 L217.371 2144.18 L217.371 2138.3 Z" fill="#000000" fill-rule="nonzero" fill-opacity="1" /><path clip-path="url(#clip140)" d="M242.44 2112.69 Q238.829 2112.69 237 2116.26 Q235.195 2119.8 235.195 2126.93 Q235.195 2134.04 237 2137.6 Q238.829 2141.14 242.44 2141.14 Q246.074 2141.14 247.88 2137.6 Q249.708 2134.04 249.708 2126.93 Q249.708 2119.8 247.88 2116.26 Q246.074 2112.69 242.44 2112.69 M242.44 2108.99 Q248.25 2108.99 251.306 2113.6 Q254.384 2118.18 254.384 2126.93 Q254.384 2135.66 251.306 2140.26 Q248.25 2144.85 242.44 2144.85 Q236.63 2144.85 233.551 2140.26 Q230.495 2135.66 230.495 2126.93 Q230.495 2118.18 233.551 2113.6 Q236.63 2108.99 242.44 2108.99 Z" fill="#000000" fill-rule="nonzero" fill-opacity="1" /><path clip-path="url(#clip140)" d="M272.602 2112.69 Q268.991 2112.69 267.162 2116.26 Q265.356 2119.8 265.356 2126.93 Q265.356 2134.04 267.162 2137.6 Q268.991 2141.14 272.602 2141.14 Q276.236 2141.14 278.042 2137.6 Q279.87 2134.04 279.87 2126.93 Q279.87 2119.8 278.042 2116.26 Q276.236 2112.69 272.602 2112.69 M272.602 2108.99 Q278.412 2108.99 281.467 2113.6 Q284.546 2118.18 284.546 2126.93 Q284.546 2135.66 281.467 2140.26 Q278.412 2144.85 272.602 2144.85 Q266.792 2144.85 263.713 2140.26 Q260.657 2135.66 260.657 2126.93 Q260.657 2118.18 263.713 2113.6 Q266.792 2108.99 272.602 2108.99 Z" fill="#000000" fill-rule="nonzero" fill-opacity="1" /><path clip-path="url(#clip140)" d="M198.204 1679.43 Q194.593 1679.43 192.764 1683 Q190.959 1686.54 190.959 1693.67 Q190.959 1700.78 192.764 1704.34 Q194.593 1707.88 198.204 1707.88 Q201.838 1707.88 203.644 1704.34 Q205.472 1700.78 205.472 1693.67 Q205.472 1686.54 203.644 1683 Q201.838 1679.43 198.204 1679.43 M198.204 1675.73 Q204.014 1675.73 207.07 1680.34 Q210.148 1684.92 210.148 1693.67 Q210.148 1702.4 207.07 1707 Q204.014 1711.59 198.204 1711.59 Q192.394 1711.59 189.315 1707 Q186.26 1702.4 186.26 1693.67 Q186.26 1684.92 189.315 1680.34 Q192.394 1675.73 198.204 1675.73 Z" fill="#000000" fill-rule="nonzero" fill-opacity="1" /><path clip-path="url(#clip140)" d="M218.366 1705.04 L223.25 1705.04 L223.25 1710.91 L218.366 1710.91 L218.366 1705.04 Z" fill="#000000" fill-rule="nonzero" fill-opacity="1" /><path clip-path="url(#clip140)" d="M237.463 1706.98 L253.782 1706.98 L253.782 1710.91 L231.838 1710.91 L231.838 1706.98 Q234.5 1704.23 239.083 1699.6 Q243.69 1694.94 244.87 1693.6 Q247.116 1691.08 247.995 1689.34 Q248.898 1687.58 248.898 1685.89 Q248.898 1683.14 246.954 1681.4 Q245.032 1679.67 241.931 1679.67 Q239.732 1679.67 237.278 1680.43 Q234.847 1681.19 232.07 1682.74 L232.07 1678.02 Q234.894 1676.89 237.347 1676.31 Q239.801 1675.73 241.838 1675.73 Q247.208 1675.73 250.403 1678.42 Q253.597 1681.1 253.597 1685.59 Q253.597 1687.72 252.787 1689.64 Q252 1691.54 249.894 1694.13 Q249.315 1694.8 246.213 1698.02 Q243.111 1701.22 237.463 1706.98 Z" fill="#000000" fill-rule="nonzero" fill-opacity="1" /><path clip-path="url(#clip140)" d="M263.643 1676.35 L282 1676.35 L282 1680.29 L267.926 1680.29 L267.926 1688.76 Q268.944 1688.42 269.963 1688.25 Q270.981 1688.07 272 1688.07 Q277.787 1688.07 281.167 1691.24 Q284.546 1694.41 284.546 1699.83 Q284.546 1705.41 281.074 1708.51 Q277.602 1711.59 271.282 1711.59 Q269.106 1711.59 266.838 1711.22 Q264.593 1710.85 262.185 1710.1 L262.185 1705.41 Q264.268 1706.54 266.491 1707.1 Q268.713 1707.65 271.19 1707.65 Q275.194 1707.65 277.532 1705.54 Q279.87 1703.44 279.87 1699.83 Q279.87 1696.22 277.532 1694.11 Q275.194 1692 271.19 1692 Q269.315 1692 267.44 1692.42 Q265.588 1692.84 263.643 1693.72 L263.643 1676.35 Z" fill="#000000" fill-rule="nonzero" fill-opacity="1" /><path clip-path="url(#clip140)" d="M197.209 1246.17 Q193.598 1246.17 191.769 1249.74 Q189.963 1253.28 189.963 1260.41 Q189.963 1267.52 191.769 1271.08 Q193.598 1274.62 197.209 1274.62 Q200.843 1274.62 202.648 1271.08 Q204.477 1267.52 204.477 1260.41 Q204.477 1253.28 202.648 1249.74 Q200.843 1246.17 197.209 1246.17 M197.209 1242.47 Q203.019 1242.47 206.074 1247.08 Q209.153 1251.66 209.153 1260.41 Q209.153 1269.14 206.074 1273.74 Q203.019 1278.33 197.209 1278.33 Q191.398 1278.33 188.32 1273.74 Q185.264 1269.14 185.264 1260.41 Q185.264 1251.66 188.32 1247.08 Q191.398 1242.47 197.209 1242.47 Z" fill="#000000" fill-rule="nonzero" fill-opacity="1" /><path clip-path="url(#clip140)" d="M217.371 1271.77 L222.255 1271.77 L222.255 1277.65 L217.371 1277.65 L217.371 1271.77 Z" fill="#000000" fill-rule="nonzero" fill-opacity="1" /><path clip-path="url(#clip140)" d="M232.486 1243.09 L250.843 1243.09 L250.843 1247.03 L236.769 1247.03 L236.769 1255.5 Q237.787 1255.15 238.806 1254.99 Q239.824 1254.81 240.843 1254.81 Q246.63 1254.81 250.009 1257.98 Q253.389 1261.15 253.389 1266.57 Q253.389 1272.14 249.917 1275.25 Q246.444 1278.33 240.125 1278.33 Q237.949 1278.33 235.681 1277.96 Q233.435 1277.58 231.028 1276.84 L231.028 1272.14 Q233.111 1273.28 235.333 1273.83 Q237.556 1274.39 240.032 1274.39 Q244.037 1274.39 246.375 1272.28 Q248.713 1270.18 248.713 1266.57 Q248.713 1262.96 246.375 1260.85 Q244.037 1258.74 240.032 1258.74 Q238.157 1258.74 236.282 1259.16 Q234.431 1259.58 232.486 1260.46 L232.486 1243.09 Z" fill="#000000" fill-rule="nonzero" fill-opacity="1" /><path clip-path="url(#clip140)" d="M272.602 1246.17 Q268.991 1246.17 267.162 1249.74 Q265.356 1253.28 265.356 1260.41 Q265.356 1267.52 267.162 1271.08 Q268.991 1274.62 272.602 1274.62 Q276.236 1274.62 278.042 1271.08 Q279.87 1267.52 279.87 1260.41 Q279.87 1253.28 278.042 1249.74 Q276.236 1246.17 272.602 1246.17 M272.602 1242.47 Q278.412 1242.47 281.467 1247.08 Q284.546 1251.66 284.546 1260.41 Q284.546 1269.14 281.467 1273.74 Q278.412 1278.33 272.602 1278.33 Q266.792 1278.33 263.713 1273.74 Q260.657 1269.14 260.657 1260.41 Q260.657 1251.66 263.713 1247.08 Q266.792 1242.47 272.602 1242.47 Z" fill="#000000" fill-rule="nonzero" fill-opacity="1" /><path clip-path="url(#clip140)" d="M198.204 812.912 Q194.593 812.912 192.764 816.477 Q190.959 820.019 190.959 827.148 Q190.959 834.255 192.764 837.819 Q194.593 841.361 198.204 841.361 Q201.838 841.361 203.644 837.819 Q205.472 834.255 205.472 827.148 Q205.472 820.019 203.644 816.477 Q201.838 812.912 198.204 812.912 M198.204 809.208 Q204.014 809.208 207.07 813.815 Q210.148 818.398 210.148 827.148 Q210.148 835.875 207.07 840.481 Q204.014 845.065 198.204 845.065 Q192.394 845.065 189.315 840.481 Q186.26 835.875 186.26 827.148 Q186.26 818.398 189.315 813.815 Q192.394 809.208 198.204 809.208 Z" fill="#000000" fill-rule="nonzero" fill-opacity="1" /><path clip-path="url(#clip140)" d="M218.366 838.514 L223.25 838.514 L223.25 844.393 L218.366 844.393 L218.366 838.514 Z" fill="#000000" fill-rule="nonzero" fill-opacity="1" /><path clip-path="url(#clip140)" d="M232.255 809.833 L254.477 809.833 L254.477 811.824 L241.931 844.393 L237.046 844.393 L248.852 813.769 L232.255 813.769 L232.255 809.833 Z" fill="#000000" fill-rule="nonzero" fill-opacity="1" /><path clip-path="url(#clip140)" d="M263.643 809.833 L282 809.833 L282 813.769 L267.926 813.769 L267.926 822.241 Q268.944 821.894 269.963 821.732 Q270.981 821.546 272 821.546 Q277.787 821.546 281.167 824.718 Q284.546 827.889 284.546 833.306 Q284.546 838.884 281.074 841.986 Q277.602 845.065 271.282 845.065 Q269.106 845.065 266.838 844.694 Q264.593 844.324 262.185 843.583 L262.185 838.884 Q264.268 840.018 266.491 840.574 Q268.713 841.13 271.19 841.13 Q275.194 841.13 277.532 839.023 Q279.87 836.917 279.87 833.306 Q279.87 829.694 277.532 827.588 Q275.194 825.482 271.19 825.482 Q269.315 825.482 267.44 825.898 Q265.588 826.315 263.643 827.194 L263.643 809.833 Z" fill="#000000" fill-rule="nonzero" fill-opacity="1" /><path clip-path="url(#clip140)" d="M188.019 407.198 L195.658 407.198 L195.658 380.832 L187.348 382.499 L187.348 378.239 L195.611 376.573 L200.287 376.573 L200.287 407.198 L207.926 407.198 L207.926 411.133 L188.019 411.133 L188.019 407.198 Z" fill="#000000" fill-rule="nonzero" fill-opacity="1" /><path clip-path="url(#clip140)" d="M217.371 405.253 L222.255 405.253 L222.255 411.133 L217.371 411.133 L217.371 405.253 Z" fill="#000000" fill-rule="nonzero" fill-opacity="1" /><path clip-path="url(#clip140)" d="M242.44 379.651 Q238.829 379.651 237 383.216 Q235.195 386.758 235.195 393.887 Q235.195 400.994 237 404.559 Q238.829 408.1 242.44 408.1 Q246.074 408.1 247.88 404.559 Q249.708 400.994 249.708 393.887 Q249.708 386.758 247.88 383.216 Q246.074 379.651 242.44 379.651 M242.44 375.948 Q248.25 375.948 251.306 380.554 Q254.384 385.137 254.384 393.887 Q254.384 402.614 251.306 407.221 Q248.25 411.804 242.44 411.804 Q236.63 411.804 233.551 407.221 Q230.495 402.614 230.495 393.887 Q230.495 385.137 233.551 380.554 Q236.63 375.948 242.44 375.948 Z" fill="#000000" fill-rule="nonzero" fill-opacity="1" /><path clip-path="url(#clip140)" d="M272.602 379.651 Q268.991 379.651 267.162 383.216 Q265.356 386.758 265.356 393.887 Q265.356 400.994 267.162 404.559 Q268.991 408.1 272.602 408.1 Q276.236 408.1 278.042 404.559 Q279.87 400.994 279.87 393.887 Q279.87 386.758 278.042 383.216 Q276.236 379.651 272.602 379.651 M272.602 375.948 Q278.412 375.948 281.467 380.554 Q284.546 385.137 284.546 393.887 Q284.546 402.614 281.467 407.221 Q278.412 411.804 272.602 411.804 Q266.792 411.804 263.713 407.221 Q260.657 402.614 260.657 393.887 Q260.657 385.137 263.713 380.554 Q266.792 375.948 272.602 375.948 Z" fill="#000000" fill-rule="nonzero" fill-opacity="1" /><path clip-path="url(#clip140)" d="M87.4883 1107.11 L87.4883 1100.2 L107.031 1087.02 L87.4883 1073.94 L87.4883 1067.03 L112.378 1083.84 L135.008 1083.84 L135.008 1090.3 L112.378 1090.3 L87.4883 1107.11 Z" fill="#000000" fill-rule="nonzero" fill-opacity="1" /><polyline clip-path="url(#clip142)" style="stroke:#009af9; stroke-linecap:round; stroke-linejoin:round; stroke-width:28; stroke-opacity:0.7; fill:none" points="320.656,-9464.25 320.657,-9439.74 320.658,-9415.24 320.659,-9390.73 320.66,-9366.22 320.661,-9341.71 320.662,-9317.2 320.663,-9292.69 320.664,-9268.18 320.665,-9243.67 320.666,-9219.16 320.667,-9194.66 320.668,-9170.15 320.669,-9145.64 320.67,-9121.13 320.671,-9096.62 320.672,-9072.11 320.673,-9047.6 320.674,-9023.09 320.675,-8998.58 320.676,-8974.07 320.678,-8949.57 320.679,-8925.06 320.68,-8900.55 320.681,-8876.04 320.682,-8851.53 320.684,-8827.02 320.685,-8802.51 320.686,-8778 320.687,-8753.49 320.689,-8728.99 320.69,-8704.48 320.691,-8679.97 320.693,-8655.46 320.694,-8630.95 320.695,-8606.44 320.697,-8581.93 320.698,-8557.42 320.699,-8532.91 320.701,-8508.41 320.702,-8483.9 320.704,-8459.39 320.705,-8434.88 320.707,-8410.37 320.708,-8385.86 320.71,-8361.35 320.711,-8336.84 320.713,-8312.33 320.714,-8287.82 320.716,-8263.32 320.718,-8238.81 320.719,-8214.3 320.721,-8189.79 320.723,-8165.28 320.724,-8140.77 320.726,-8116.26 320.728,-8091.75 320.729,-8067.24 320.731,-8042.74 320.733,-8018.23 320.735,-7993.72 320.737,-7969.21 320.739,-7944.7 320.74,-7920.19 320.742,-7895.68 320.744,-7871.17 320.746,-7846.66 320.748,-7822.16 320.75,-7797.65 320.752,-7773.14 320.754,-7748.63 320.756,-7724.12 320.758,-7699.61 320.761,-7675.1 320.763,-7650.59 320.765,-7626.08 320.767,-7601.57 320.769,-7577.07 320.772,-7552.56 320.774,-7528.05 320.776,-7503.54 320.779,-7479.03 320.781,-7454.52 320.783,-7430.01 320.786,-7405.5 320.788,-7380.99 320.791,-7356.49 320.793,-7331.98 320.796,-7307.47 320.799,-7282.96 320.801,-7258.45 320.804,-7233.94 320.807,-7209.43 320.809,-7184.92 320.812,-7160.41 320.815,-7135.91 320.818,-7111.4 320.821,-7086.89 320.824,-7062.38 320.827,-7037.87 320.83,-7013.36 320.833,-6988.85 320.836,-6964.34 320.839,-6939.83 320.842,-6915.32 320.845,-6890.82 320.849,-6866.31 320.852,-6841.8 320.855,-6817.29 320.859,-6792.78 320.862,-6768.27 320.866,-6743.76 320.869,-6719.25 320.873,-6694.74 320.877,-6670.24 320.88,-6645.73 320.884,-6621.22 320.888,-6596.71 320.892,-6572.2 320.896,-6547.69 320.9,-6523.18 320.904,-6498.67 320.908,-6474.16 320.912,-6449.66 320.916,-6425.15 320.92,-6400.64 320.925,-6376.13 320.929,-6351.62 320.934,-6327.11 320.938,-6302.6 320.943,-6278.09 320.947,-6253.58 320.952,-6229.07 320.957,-6204.57 320.962,-6180.06 320.967,-6155.55 320.972,-6131.04 320.977,-6106.53 320.982,-6082.02 320.987,-6057.51 320.993,-6033 320.998,-6008.49 321.003,-5983.99 321.009,-5959.48 321.015,-5934.97 321.02,-5910.46 321.026,-5885.95 321.032,-5861.44 321.038,-5836.93 321.044,-5812.42 321.05,-5787.91 321.057,-5763.4 321.063,-5738.9 321.07,-5714.39 321.076,-5689.88 321.083,-5665.37 321.09,-5640.86 321.097,-5616.35 321.104,-5591.84 321.111,-5567.33 321.118,-5542.82 321.125,-5518.32 321.133,-5493.81 321.141,-5469.3 321.148,-5444.79 321.156,-5420.28 321.164,-5395.77 321.172,-5371.26 321.18,-5346.75 321.189,-5322.24 321.197,-5297.74 321.206,-5273.23 321.215,-5248.72 321.224,-5224.21 321.233,-5199.7 321.242,-5175.19 321.252,-5150.68 321.261,-5126.17 321.271,-5101.66 321.281,-5077.16 321.291,-5052.65 321.301,-5028.14 321.312,-5003.63 321.322,-4979.12 321.333,-4954.61 321.344,-4930.1 321.355,-4905.59 321.367,-4881.08 321.378,-4856.57 321.39,-4832.07 321.402,-4807.56 321.414,-4783.05 321.427,-4758.54 321.439,-4734.03 321.452,-4709.52 321.465,-4685.01 321.478,-4660.5 321.492,-4635.99 321.506,-4611.49 321.52,-4586.98 321.534,-4562.47 321.549,-4537.96 321.564,-4513.45 321.579,-4488.94 321.594,-4464.43 321.61,-4439.92 321.626,-4415.41 321.642,-4390.91 321.659,-4366.4 321.676,-4341.89 321.693,-4317.38 321.711,-4292.87 321.729,-4268.36 321.747,-4243.85 321.766,-4219.34 321.785,-4194.83 321.804,-4170.32 321.824,-4145.82 321.844,-4121.31 321.865,-4096.8 321.886,-4072.29 321.907,-4047.78 321.929,-4023.27 321.951,-3998.76 321.974,-3974.25 321.997,-3949.74 322.021,-3925.24 322.045,-3900.73 322.069,-3876.22 322.094,-3851.71 322.12,-3827.2 322.146,-3802.69 322.173,-3778.18 322.2,-3753.67 322.228,-3729.16 322.256,-3704.66 322.285,-3680.15 322.315,-3655.64 322.345,-3631.13 322.376,-3606.62 322.408,-3582.11 322.44,-3557.6 322.473,-3533.09 322.507,-3508.58 322.541,-3484.08 322.576,-3459.57 322.612,-3435.06 322.649,-3410.55 322.687,-3386.04 322.725,-3361.53 322.765,-3337.02 322.805,-3312.51 322.846,-3288 322.888,-3263.5 322.931,-3238.99 322.975,-3214.48 323.02,-3189.97 323.066,-3165.46 323.113,-3140.95 323.161,-3116.44 323.211,-3091.93 323.261,-3067.42 323.313,-3042.92 323.366,-3018.41 323.42,-2993.9 323.476,-2969.39 323.533,-2944.88 323.591,-2920.37 323.651,-2895.86 323.712,-2871.35 323.775,-2846.84 323.839,-2822.34 323.905,-2797.83 323.973,-2773.32 324.042,-2748.81 324.113,-2724.3 324.186,-2699.79 324.261,-2675.28 324.337,-2650.77 324.416,-2626.26 324.497,-2601.76 324.58,-2577.25 324.664,-2552.74 324.752,-2528.23 324.841,-2503.72 324.933,-2479.21 325.027,-2454.7 325.124,-2430.19 325.224,-2405.69 325.326,-2381.18 325.431,-2356.67 325.539,-2332.16 325.65,-2307.65 325.764,-2283.14 325.882,-2258.63 326.002,-2234.13 326.126,-2209.62 326.254,-2185.11 326.385,-2160.6 326.52,-2136.09 326.659,-2111.58 326.802,-2087.07 326.949,-2062.57 327.1,-2038.06 327.256,-2013.55 327.417,-1989.04 327.582,-1964.53 327.752,-1940.02 327.928,-1915.52 328.109,-1891.01 328.296,-1866.5 328.488,-1841.99 328.686,-1817.48 328.891,-1792.97 329.101,-1768.47 329.319,-1743.96 329.544,-1719.45 329.775,-1694.94 330.015,-1670.44 330.262,-1645.93 330.517,-1621.42 330.78,-1596.91 331.052,-1572.41 331.334,-1547.9 331.624,-1523.39 331.925,-1498.88 332.236,-1474.38 332.557,-1449.87 332.889,-1425.36 333.233,-1400.86 333.589,-1376.35 333.958,-1351.85 334.339,-1327.34 334.735,-1302.83 335.144,-1278.33 335.568,-1253.82 336.007,-1229.32 336.463,-1204.81 336.935,-1180.31 337.425,-1155.81 337.934,-1131.3 338.461,-1106.8 339.008,-1082.3 339.577,-1057.8 340.167,-1033.29 340.78,-1008.79 341.417,-984.293 342.079,-959.793 342.767,-935.294 343.483,-910.796 344.227,-886.299 345.002,-861.803 345.808,-837.308 346.648,-812.814 347.522,-788.321 348.432,-763.83 349.381,-739.34 350.37,-714.852 351.402,-690.366 352.477,-665.882 353.6,-641.4 354.771,-616.92 355.994,-592.443 357.271,-567.969 358.605,-543.498 359.999,-519.031 361.457,-494.567 362.981,-470.108 364.575,-445.653 366.243,-421.203 367.989,-396.759 369.817,-372.322 371.732,-347.891 373.738,-323.468 375.841,-299.054 378.046,-274.649 380.358,-250.254 382.784,-225.871 385.329,-201.5 388.002,-177.144 390.808,-152.803 393.755,-128.48 396.851,-104.177 400.105,-79.8942 403.525,-55.6358 407.121,-31.404 410.903,-7.20165 414.88,16.9679 419.064,41.101 423.465,65.1937 428.097,89.2414 432.969,113.239 438.097,137.181 443.491,161.062 449.167,184.875 455.137,208.613 461.415,232.267 468.017,255.829 474.955,279.29 482.244,302.64 489.897,325.865 497.928,348.955 506.351,371.903 515.177,394.691 524.417,417.307 534.082,439.736 544.18,461.966 554.719,483.98 565.703,505.765 577.137,527.307 589.022,548.592 601.357,569.607 614.141,590.339 627.369,610.777 641.034,630.912 655.129,650.735 669.642,670.239 684.563,689.417 699.879,708.267 715.575,726.786 731.636,744.973 748.048,762.83 764.792,780.36 781.855,797.565 799.218,814.452 816.865,831.027 834.781,847.297 852.949,863.271 871.355,878.957 889.983,894.365 908.819,909.506 927.85,924.39 947.061,939.028 966.442,953.43 985.979,967.609 1005.66,981.575 1025.48,995.34 1045.42,1008.91 1065.48,1022.31 1085.64,1035.54 1105.9,1048.61 1126.25,1061.54 1146.68,1074.33 1167.18,1087 1187.75,1099.55 1208.38,1112.01 1229.06,1124.37 1249.78,1136.65 1270.55,1148.87 1291.34,1161.02 1312.17,1173.13 1333.01,1185.2 1353.87,1197.25 1374.73,1209.28 1395.6,1221.31 1416.46,1233.35 1437.31,1245.41 1458.14,1257.5 1478.94,1269.65 1499.71,1281.85 1520.44,1294.13 1541.12,1306.5 1561.73,1318.98 1582.27,1331.59 1602.73,1344.33 1623.09,1357.24 1643.34,1370.33 1663.46,1383.62 1683.44,1397.14 1703.25,1410.92 1722.87,1424.97 1742.28,1439.34 1761.44,1454.05 1780.32,1469.13 1798.88,1484.63 1817.08,1500.58 1834.85,1517.02 1852.15,1533.99 1868.9,1551.52 1885.03,1569.66 1900.45,1588.44 1915.08,1607.87 1928.82,1627.98 1941.58,1648.75 1953.28,1670.17 1963.86,1692.2 1973.27,1714.77 1981.5,1737.83 1988.56,1761.28 1994.5,1785.05 1999.4,1809.07 2003.35,1833.26 2006.47,1857.58 2008.86,1881.98 2010.64,1906.43 2011.92,1930.91 2012.8,1955.4 2013.38,1979.91 2013.73,2004.41 2013.92,2028.92 2014.01,2053.43 2014.05,2077.94 2014.05,2102.45 2014.05,2126.83 2014.05,2126.55 2014.05,2102.04 2014.05,2077.53 2014.01,2053.02 2013.92,2028.51 2013.72,2004 2013.37,1979.5 2012.79,1954.99 2011.9,1930.5 2010.61,1906.02 2008.82,1881.58 2006.42,1857.18 2003.3,1832.87 1999.33,1808.69 1994.42,1784.68 1988.46,1760.91 1981.38,1737.47 1973.14,1714.42 1963.71,1691.86 1953.11,1669.84 1941.39,1648.43 1928.61,1627.66 1914.85,1607.56 1900.21,1588.13 1884.77,1569.37 1868.63,1551.23 1851.87,1533.71 1834.57,1516.75 1816.78,1500.31 1798.58,1484.37 1780.01,1468.88 1761.12,1453.8 1741.96,1439.1 1722.55,1424.74 1702.92,1410.68 1683.11,1396.91 1663.12,1383.4 1643,1370.11 1622.75,1357.02 1602.39,1344.12 1581.93,1331.37 1561.38,1318.77 1540.77,1306.3 1520.09,1293.93 1499.37,1281.65 1478.6,1269.44 1457.79,1257.3 1436.96,1245.21 1416.11,1233.15 1395.25,1221.11 1374.38,1209.08 1353.52,1197.05 1332.66,1185 1311.82,1172.93 1290.99,1160.82 1270.2,1148.66 1249.43,1136.45 1228.71,1124.16 1208.03,1111.8 1187.41,1099.34 1166.84,1086.79 1146.34,1074.12 1125.91,1061.32 1105.56,1048.39 1085.3,1035.32 1065.14,1022.09 1045.09,1008.69 1025.15,995.111 1005.33,981.344 985.651,967.374 966.117,953.192 946.739,938.786 927.531,924.144 908.504,909.256 889.671,894.111 871.047,878.698 852.645,863.007 834.481,847.029 816.57,830.754 798.927,814.174 781.569,797.282 764.512,780.072 747.773,762.537 731.368,744.675 715.312,726.482 699.623,707.958 684.314,689.103 669.399,669.919 654.893,650.411 640.805,630.583 627.147,610.443 613.927,589.999 601.15,569.262 588.822,548.243 576.944,526.953 565.518,505.407 554.541,483.618 544.01,461.6 533.919,439.367 524.261,416.934 515.027,394.315 506.208,371.523 497.791,348.573 489.766,325.477 482.118,302.248 474.835,278.897 467.903,255.434 461.307,231.87 455.034,208.214 449.069,184.475 443.398,160.661 438.008,136.779 432.885,112.836 428.017,88.8373 423.39,64.7889 418.992,40.6955 414.811,16.5617 410.838,-7.60843 407.059,-31.8113 403.466,-56.0436 400.049,-80.3024 396.798,-104.585 393.704,-128.889 390.759,-153.213 387.956,-177.554 385.286,-201.91 382.742,-226.281 380.318,-250.664 378.008,-275.059 375.805,-299.464 373.704,-323.879 371.699,-348.302 369.786,-372.733 367.959,-397.171 366.214,-421.615 364.547,-446.064 362.954,-470.519 361.432,-494.978 359.975,-519.442 358.582,-543.91 357.249,-568.381 355.973,-592.855 354.751,-617.332 353.581,-641.812 352.459,-666.294 351.384,-690.778 350.353,-715.264 349.365,-739.752 348.417,-764.242 347.507,-788.733 346.633,-813.226 345.794,-837.72 344.989,-862.215 344.215,-886.711 343.471,-911.208 342.755,-935.706 342.068,-960.205 341.406,-984.705 340.769,-1009.2 340.157,-1033.71 339.567,-1058.21 338.999,-1082.71 338.452,-1107.21 337.925,-1131.71 337.417,-1156.22 336.927,-1180.72 336.455,-1205.23 336,-1229.73 335.561,-1254.24 335.137,-1278.74 334.728,-1303.25 334.333,-1327.75 333.952,-1352.26 333.583,-1376.76 333.228,-1401.27 332.884,-1425.78 332.552,-1450.28 332.23,-1474.79 331.92,-1499.3 331.619,-1523.8 331.329,-1548.31 331.048,-1572.82 330.776,-1597.33 330.512,-1621.83 330.257,-1646.34 330.011,-1670.85 329.771,-1695.36 329.54,-1719.86 329.315,-1744.37 329.098,-1768.88 328.887,-1793.39 328.683,-1817.9 328.485,-1842.4 328.292,-1866.91 328.106,-1891.42 327.925,-1915.93 327.75,-1940.44 327.579,-1964.94 327.414,-1989.45 327.253,-2013.96 327.098,-2038.47 326.946,-2062.98 326.799,-2087.49 326.656,-2111.99 326.517,-2136.5 326.383,-2161.01 326.251,-2185.52 326.124,-2210.03 326,-2234.54 325.88,-2259.05 325.762,-2283.55 325.648,-2308.06 325.537,-2332.57 325.43,-2357.08 325.324,-2381.59 325.222,-2406.1 325.123,-2430.61 325.026,-2455.12 324.932,-2479.62 324.84,-2504.13 324.75,-2528.64 324.663,-2553.15 324.578,-2577.66 324.495,-2602.17 324.415,-2626.68 324.336,-2651.19 324.26,-2675.69 324.185,-2700.2 324.112,-2724.71 324.041,-2749.22 323.972,-2773.73 323.904,-2798.24 323.838,-2822.75 323.774,-2847.26 323.711,-2871.77 323.65,-2896.27 323.59,-2920.78 323.532,-2945.29 323.475,-2969.8 323.42,-2994.31 323.365,-3018.82 323.312,-3043.33 323.261,-3067.84 323.21,-3092.35 323.161,-3116.85 323.112,-3141.36 323.065,-3165.87 323.019,-3190.38 322.974,-3214.89 322.93,-3239.4 322.887,-3263.91 322.845,-3288.42 322.804,-3312.93 322.764,-3337.43 322.725,-3361.94 322.686,-3386.45 322.649,-3410.96 322.612,-3435.47 322.576,-3459.98 322.541,-3484.49 322.506,-3509 322.473,-3533.51 322.44,-3558.01 322.407,-3582.52 322.376,-3607.03 322.345,-3631.54 322.315,-3656.05 322.285,-3680.56 322.256,-3705.07 322.227,-3729.58 322.2,-3754.09 322.172,-3778.59 322.146,-3803.1 322.12,-3827.61 322.094,-3852.12 322.069,-3876.63 322.044,-3901.14 322.02,-3925.65 321.997,-3950.16 321.973,-3974.67 321.951,-3999.17 321.928,-4023.68 321.907,-4048.19 321.885,-4072.7 321.864,-4097.21 321.844,-4121.72 321.824,-4146.23 321.804,-4170.74 321.785,-4195.25 321.766,-4219.75 321.747,-4244.26 321.729,-4268.77 321.711,-4293.28 321.693,-4317.79 321.676,-4342.3 321.659,-4366.81 321.642,-4391.32 "/>
<polyline clip-path="url(#clip142)" style="stroke:#e26f46; stroke-linecap:round; stroke-linejoin:round; stroke-width:28; stroke-opacity:0.7; fill:none" points="320.546,393.853 322.257,393.853 346.207,393.853 370.157,393.863 394.107,393.9 418.056,394 442.006,394.206 465.954,394.579 489.897,395.189 513.83,396.119 537.747,397.463 561.633,399.328 585.467,401.824 609.217,405.069 632.843,409.18 656.291,414.268 679.497,420.428 702.387,427.738 724.882,436.243 746.906,445.96 768.39,456.872 789.278,468.932 809.533,482.07 829.135,496.202 848.082,511.236 866.387,527.076 884.071,543.632 901.166,560.818 917.709,578.559 933.737,596.785 949.289,615.435 964.403,634.455 979.117,653.801 993.465,673.43 1007.48,693.308 1021.2,713.405 1034.64,733.692 1047.83,754.148 1060.81,774.751 1073.58,795.482 1086.18,816.326 1098.63,837.268 1110.93,858.294 1123.12,879.394 1135.2,900.556 1147.2,921.77 1159.12,943.027 1170.98,964.319 1182.8,985.637 1194.58,1006.97 1206.34,1028.32 1218.1,1049.68 1229.86,1071.03 1241.63,1092.37 1253.43,1113.7 1265.26,1135.01 1277.14,1156.29 1289.08,1177.54 1301.09,1198.74 1313.18,1219.9 1325.36,1241 1337.63,1262.05 1350.02,1283.02 1362.53,1303.92 1375.17,1324.74 1387.96,1345.47 1400.9,1366.09 1414,1386.61 1427.28,1407.01 1440.74,1427.28 1454.4,1447.41 1468.27,1467.39 1482.36,1487.21 1496.69,1506.86 1511.25,1526.32 1526.06,1545.58 1541.14,1564.63 1556.49,1583.44 1572.12,1602.02 1588.04,1620.33 1604.26,1638.37 1620.78,1656.12 1637.62,1673.55 1654.77,1690.66 1672.24,1707.43 1690.04,1723.84 1708.16,1739.88 1726.6,1755.52 1745.37,1770.76 1764.45,1785.58 1783.84,1799.97 1803.54,1813.92 1823.53,1827.43 1843.81,1840.47 1864.37,1853.06 1885.19,1865.19 1906.26,1876.86 1927.56,1888.07 1949.09,1898.82 1970.83,1909.12 1992.76,1918.98 2014.87,1928.4 2037.15,1937.4 2059.59,1945.99 2082.16,1954.18 2104.87,1961.99 2127.7,1969.42 2150.63,1976.49 2173.66,1983.22 2196.78,1989.63 2219.98,1995.71 2243.26,2001.5 2266.6,2007 2290,2012.23 2313.45,2017.19 2336.96,2021.91 2352.76,2024.95 "/>
<path clip-path="url(#clip142)" d="M1274.18 1191 L1262.86 1162.32 L1234.18 1151 L1262.86 1139.68 L1274.18 1111 L1285.5 1139.68 L1314.18 1151 L1285.5 1162.32 L1274.18 1191 Z" fill="#ff0000" fill-rule="evenodd" fill-opacity="1" stroke="#000000" stroke-opacity="1" stroke-width="4.8"/>
<circle clip-path="url(#clip142)" cx="515.783" cy="396.212" r="36" fill="#0000ff" fill-rule="evenodd" fill-opacity="1" stroke="#000000" stroke-opacity="1" stroke-width="4.8"/>
<circle clip-path="url(#clip142)" cx="2011.75" cy="1927.1" r="36" fill="#0000ff" fill-rule="evenodd" fill-opacity="1" stroke="#000000" stroke-opacity="1" stroke-width="4.8"/>
<path clip-path="url(#clip140)" d="M1475.92 440.566 L2285.02 440.566 L2285.02 116.566 L1475.92 116.566  Z" fill="#ffffff" fill-rule="evenodd" fill-opacity="1"/>
<polyline clip-path="url(#clip140)" style="stroke:#000000; stroke-linecap:round; stroke-linejoin:round; stroke-width:4; stroke-opacity:1; fill:none" points="1475.92,440.566 2285.02,440.566 2285.02,116.566 1475.92,116.566 1475.92,440.566 "/>
<polyline clip-path="url(#clip140)" style="stroke:#009af9; stroke-linecap:round; stroke-linejoin:round; stroke-width:25; stroke-opacity:0.7; fill:none" points="1498.5,181.366 1633.98,181.366 "/>
<path clip-path="url(#clip140)" d="M1680.2 175.478 L1680.2 157.943 L1685.53 157.943 L1685.53 202.966 L1680.2 202.966 L1680.2 198.105 Q1678.53 200.998 1675.95 202.416 Q1673.41 203.805 1669.82 203.805 Q1663.94 203.805 1660.24 199.117 Q1656.56 194.43 1656.56 186.791 Q1656.56 179.152 1660.24 174.465 Q1663.94 169.777 1669.82 169.777 Q1673.41 169.777 1675.95 171.195 Q1678.53 172.584 1680.2 175.478 M1662.06 186.791 Q1662.06 192.665 1664.46 196.021 Q1666.89 199.349 1671.12 199.349 Q1675.34 199.349 1677.77 196.021 Q1680.2 192.665 1680.2 186.791 Q1680.2 180.917 1677.77 177.59 Q1675.34 174.233 1671.12 174.233 Q1666.89 174.233 1664.46 177.59 Q1662.06 180.917 1662.06 186.791 Z" fill="#000000" fill-rule="nonzero" fill-opacity="1" /><path clip-path="url(#clip140)" d="M1694.64 159.766 L1700.92 159.766 L1711.66 175.825 L1722.45 159.766 L1728.73 159.766 L1714.84 180.512 L1729.65 202.966 L1723.38 202.966 L1711.22 184.592 L1698.98 202.966 L1692.68 202.966 L1708.1 179.905 L1694.64 159.766 Z" fill="#000000" fill-rule="nonzero" fill-opacity="1" /><path clip-path="url(#clip140)" d="M1746.55 159.766 L1751.47 159.766 L1736.43 208.463 L1731.51 208.463 L1746.55 159.766 Z" fill="#000000" fill-rule="nonzero" fill-opacity="1" /><path clip-path="url(#clip140)" d="M1778.38 175.478 L1778.38 157.943 L1783.71 157.943 L1783.71 202.966 L1778.38 202.966 L1778.38 198.105 Q1776.7 200.998 1774.13 202.416 Q1771.58 203.805 1767.99 203.805 Q1762.12 203.805 1758.42 199.117 Q1754.74 194.43 1754.74 186.791 Q1754.74 179.152 1758.42 174.465 Q1762.12 169.777 1767.99 169.777 Q1771.58 169.777 1774.13 171.195 Q1776.7 172.584 1778.38 175.478 M1760.24 186.791 Q1760.24 192.665 1762.64 196.021 Q1765.07 199.349 1769.3 199.349 Q1773.52 199.349 1775.95 196.021 Q1778.38 192.665 1778.38 186.791 Q1778.38 180.917 1775.95 177.59 Q1773.52 174.233 1769.3 174.233 Q1765.07 174.233 1762.64 177.59 Q1760.24 180.917 1760.24 186.791 Z" fill="#000000" fill-rule="nonzero" fill-opacity="1" /><path clip-path="url(#clip140)" d="M1799.94 161.357 L1799.94 170.559 L1810.9 170.559 L1810.9 174.696 L1799.94 174.696 L1799.94 192.289 Q1799.94 196.253 1801.01 197.381 Q1802.11 198.51 1805.44 198.51 L1810.9 198.51 L1810.9 202.966 L1805.44 202.966 Q1799.27 202.966 1796.93 200.68 Q1794.58 198.365 1794.58 192.289 L1794.58 174.696 L1790.68 174.696 L1790.68 170.559 L1794.58 170.559 L1794.58 161.357 L1799.94 161.357 Z" fill="#000000" fill-rule="nonzero" fill-opacity="1" /><path clip-path="url(#clip140)" d="M1837.44 176.056 L1874.53 176.056 L1874.53 180.917 L1837.44 180.917 L1837.44 176.056 M1837.44 187.862 L1874.53 187.862 L1874.53 192.781 L1837.44 192.781 L1837.44 187.862 Z" fill="#000000" fill-rule="nonzero" fill-opacity="1" /><path clip-path="url(#clip140)" d="M1918.48 163.614 Q1913.97 163.614 1911.69 168.07 Q1909.43 172.497 1909.43 181.409 Q1909.43 190.292 1911.69 194.748 Q1913.97 199.175 1918.48 199.175 Q1923.03 199.175 1925.28 194.748 Q1927.57 190.292 1927.57 181.409 Q1927.57 172.497 1925.28 168.07 Q1923.03 163.614 1918.48 163.614 M1918.48 158.985 Q1925.75 158.985 1929.57 164.743 Q1933.42 170.472 1933.42 181.409 Q1933.42 192.318 1929.57 198.076 Q1925.75 203.805 1918.48 203.805 Q1911.22 203.805 1907.37 198.076 Q1903.55 192.318 1903.55 181.409 Q1903.55 170.472 1907.37 164.743 Q1911.22 158.985 1918.48 158.985 Z" fill="#000000" fill-rule="nonzero" fill-opacity="1" /><polyline clip-path="url(#clip140)" style="stroke:#e26f46; stroke-linecap:round; stroke-linejoin:round; stroke-width:25; stroke-opacity:0.7; fill:none" points="1498.5,246.166 1633.98,246.166 "/>
<path clip-path="url(#clip140)" d="M1680.2 240.278 L1680.2 222.743 L1685.53 222.743 L1685.53 267.766 L1680.2 267.766 L1680.2 262.905 Q1678.53 265.798 1675.95 267.216 Q1673.41 268.605 1669.82 268.605 Q1663.94 268.605 1660.24 263.917 Q1656.56 259.23 1656.56 251.591 Q1656.56 243.952 1660.24 239.265 Q1663.94 234.577 1669.82 234.577 Q1673.41 234.577 1675.95 235.995 Q1678.53 237.384 1680.2 240.278 M1662.06 251.591 Q1662.06 257.465 1664.46 260.821 Q1666.89 264.149 1671.12 264.149 Q1675.34 264.149 1677.77 260.821 Q1680.2 257.465 1680.2 251.591 Q1680.2 245.717 1677.77 242.39 Q1675.34 239.033 1671.12 239.033 Q1666.89 239.033 1664.46 242.39 Q1662.06 245.717 1662.06 251.591 Z" fill="#000000" fill-rule="nonzero" fill-opacity="1" /><path clip-path="url(#clip140)" d="M1690.8 224.566 L1697.07 224.566 L1709.05 242.332 L1720.95 224.566 L1727.22 224.566 L1711.95 247.193 L1711.95 267.766 L1706.07 267.766 L1706.07 247.193 L1690.8 224.566 Z" fill="#000000" fill-rule="nonzero" fill-opacity="1" /><path clip-path="url(#clip140)" d="M1742.15 224.566 L1747.07 224.566 L1732.03 273.263 L1727.11 273.263 L1742.15 224.566 Z" fill="#000000" fill-rule="nonzero" fill-opacity="1" /><path clip-path="url(#clip140)" d="M1773.98 240.278 L1773.98 222.743 L1779.31 222.743 L1779.31 267.766 L1773.98 267.766 L1773.98 262.905 Q1772.3 265.798 1769.73 267.216 Q1767.18 268.605 1763.6 268.605 Q1757.72 268.605 1754.02 263.917 Q1750.34 259.23 1750.34 251.591 Q1750.34 243.952 1754.02 239.265 Q1757.72 234.577 1763.6 234.577 Q1767.18 234.577 1769.73 235.995 Q1772.3 237.384 1773.98 240.278 M1755.84 251.591 Q1755.84 257.465 1758.24 260.821 Q1760.67 264.149 1764.9 264.149 Q1769.12 264.149 1771.55 260.821 Q1773.98 257.465 1773.98 251.591 Q1773.98 245.717 1771.55 242.39 Q1769.12 239.033 1764.9 239.033 Q1760.67 239.033 1758.24 242.39 Q1755.84 245.717 1755.84 251.591 Z" fill="#000000" fill-rule="nonzero" fill-opacity="1" /><path clip-path="url(#clip140)" d="M1795.54 226.157 L1795.54 235.359 L1806.51 235.359 L1806.51 239.496 L1795.54 239.496 L1795.54 257.089 Q1795.54 261.053 1796.61 262.181 Q1797.71 263.31 1801.04 263.31 L1806.51 263.31 L1806.51 267.766 L1801.04 267.766 Q1794.87 267.766 1792.53 265.48 Q1790.19 263.165 1790.19 257.089 L1790.19 239.496 L1786.28 239.496 L1786.28 235.359 L1790.19 235.359 L1790.19 226.157 L1795.54 226.157 Z" fill="#000000" fill-rule="nonzero" fill-opacity="1" /><path clip-path="url(#clip140)" d="M1833.04 240.856 L1870.13 240.856 L1870.13 245.717 L1833.04 245.717 L1833.04 240.856 M1833.04 252.662 L1870.13 252.662 L1870.13 257.581 L1833.04 257.581 L1833.04 252.662 Z" fill="#000000" fill-rule="nonzero" fill-opacity="1" /><path clip-path="url(#clip140)" d="M1914.09 228.414 Q1909.57 228.414 1907.29 232.87 Q1905.03 237.297 1905.03 246.209 Q1905.03 255.092 1907.29 259.548 Q1909.57 263.975 1914.09 263.975 Q1918.63 263.975 1920.89 259.548 Q1923.17 255.092 1923.17 246.209 Q1923.17 237.297 1920.89 232.87 Q1918.63 228.414 1914.09 228.414 M1914.09 223.785 Q1921.35 223.785 1925.17 229.543 Q1929.02 235.272 1929.02 246.209 Q1929.02 257.118 1925.17 262.876 Q1921.35 268.605 1914.09 268.605 Q1906.82 268.605 1902.98 262.876 Q1899.16 257.118 1899.16 246.209 Q1899.16 235.272 1902.98 229.543 Q1906.82 223.785 1914.09 223.785 Z" fill="#000000" fill-rule="nonzero" fill-opacity="1" /><circle clip-path="url(#clip140)" cx="1566.24" cy="310.966" r="25.6" fill="#0000ff" fill-rule="evenodd" fill-opacity="1" stroke="#000000" stroke-opacity="1" stroke-width="8.53333"/>
<path clip-path="url(#clip140)" d="M1684.37 290.784 L1684.37 296.484 Q1681.04 294.892 1678.09 294.111 Q1675.14 293.33 1672.39 293.33 Q1667.62 293.33 1665.01 295.182 Q1662.44 297.034 1662.44 300.448 Q1662.44 303.313 1664.15 304.788 Q1665.88 306.235 1670.69 307.132 L1674.22 307.855 Q1680.75 309.1 1683.85 312.253 Q1686.98 315.378 1686.98 320.645 Q1686.98 326.923 1682.75 330.164 Q1678.56 333.405 1670.42 333.405 Q1667.36 333.405 1663.89 332.71 Q1660.44 332.016 1656.74 330.656 L1656.74 324.638 Q1660.3 326.634 1663.71 327.647 Q1667.13 328.66 1670.42 328.66 Q1675.43 328.66 1678.15 326.692 Q1680.87 324.724 1680.87 321.079 Q1680.87 317.896 1678.9 316.102 Q1676.96 314.308 1672.51 313.411 L1668.95 312.716 Q1662.41 311.414 1659.49 308.637 Q1656.56 305.859 1656.56 300.911 Q1656.56 295.182 1660.59 291.883 Q1664.64 288.585 1671.73 288.585 Q1674.77 288.585 1677.92 289.134 Q1681.07 289.684 1684.37 290.784 Z" fill="#000000" fill-rule="nonzero" fill-opacity="1" /><path clip-path="url(#clip140)" d="M1701.12 290.957 L1701.12 300.159 L1712.09 300.159 L1712.09 304.296 L1701.12 304.296 L1701.12 321.889 Q1701.12 325.853 1702.2 326.981 Q1703.29 328.11 1706.62 328.11 L1712.09 328.11 L1712.09 332.566 L1706.62 332.566 Q1700.46 332.566 1698.12 330.28 Q1695.77 327.965 1695.77 321.889 L1695.77 304.296 L1691.87 304.296 L1691.87 300.159 L1695.77 300.159 L1695.77 290.957 L1701.12 290.957 Z" fill="#000000" fill-rule="nonzero" fill-opacity="1" /><path clip-path="url(#clip140)" d="M1733.82 316.275 Q1727.37 316.275 1724.88 317.751 Q1722.39 319.227 1722.39 322.786 Q1722.39 325.621 1724.24 327.3 Q1726.12 328.949 1729.34 328.949 Q1733.76 328.949 1736.43 325.824 Q1739.12 322.67 1739.12 317.462 L1739.12 316.275 L1733.82 316.275 M1744.44 314.076 L1744.44 332.566 L1739.12 332.566 L1739.12 327.647 Q1737.29 330.598 1734.57 332.016 Q1731.85 333.405 1727.92 333.405 Q1722.94 333.405 1719.99 330.627 Q1717.07 327.82 1717.07 323.133 Q1717.07 317.664 1720.71 314.887 Q1724.39 312.109 1731.65 312.109 L1739.12 312.109 L1739.12 311.588 Q1739.12 307.913 1736.69 305.917 Q1734.28 303.891 1729.92 303.891 Q1727.14 303.891 1724.5 304.557 Q1721.87 305.222 1719.44 306.553 L1719.44 301.634 Q1722.36 300.506 1725.11 299.956 Q1727.86 299.377 1730.46 299.377 Q1737.5 299.377 1740.97 303.023 Q1744.44 306.669 1744.44 314.076 Z" fill="#000000" fill-rule="nonzero" fill-opacity="1" /><path clip-path="url(#clip140)" d="M1778.67 316.391 Q1778.67 310.517 1776.24 307.19 Q1773.84 303.833 1769.61 303.833 Q1765.39 303.833 1762.96 307.19 Q1760.56 310.517 1760.56 316.391 Q1760.56 322.265 1762.96 325.621 Q1765.39 328.949 1769.61 328.949 Q1773.84 328.949 1776.24 325.621 Q1778.67 322.265 1778.67 316.391 M1760.56 305.078 Q1762.24 302.184 1764.78 300.795 Q1767.36 299.377 1770.92 299.377 Q1776.82 299.377 1780.49 304.065 Q1784.2 308.752 1784.2 316.391 Q1784.2 324.03 1780.49 328.717 Q1776.82 333.405 1770.92 333.405 Q1767.36 333.405 1764.78 332.016 Q1762.24 330.598 1760.56 327.705 L1760.56 332.566 L1755.2 332.566 L1755.2 287.543 L1760.56 287.543 L1760.56 305.078 Z" fill="#000000" fill-rule="nonzero" fill-opacity="1" /><path clip-path="url(#clip140)" d="M1793.02 287.543 L1798.35 287.543 L1798.35 332.566 L1793.02 332.566 L1793.02 287.543 Z" fill="#000000" fill-rule="nonzero" fill-opacity="1" /><path clip-path="url(#clip140)" d="M1837.21 315.031 L1837.21 317.635 L1812.73 317.635 Q1813.07 323.133 1816.03 326.026 Q1819.01 328.891 1824.3 328.891 Q1827.37 328.891 1830.23 328.139 Q1833.13 327.386 1835.96 325.882 L1835.96 330.917 Q1833.1 332.132 1830.09 332.768 Q1827.08 333.405 1823.98 333.405 Q1816.23 333.405 1811.69 328.891 Q1807.17 324.377 1807.17 316.68 Q1807.17 308.723 1811.45 304.065 Q1815.77 299.377 1823.06 299.377 Q1829.6 299.377 1833.39 303.602 Q1837.21 307.797 1837.21 315.031 M1831.88 313.469 Q1831.82 309.1 1829.42 306.495 Q1827.05 303.891 1823.11 303.891 Q1818.66 303.891 1815.97 306.409 Q1813.31 308.926 1812.9 313.498 L1831.88 313.469 Z" fill="#000000" fill-rule="nonzero" fill-opacity="1" /><path clip-path="url(#clip140)" d="M1885.44 301.113 L1885.44 306.148 Q1883.18 304.991 1880.75 304.412 Q1878.32 303.833 1875.72 303.833 Q1871.75 303.833 1869.76 305.049 Q1867.79 306.264 1867.79 308.694 Q1867.79 310.546 1869.21 311.617 Q1870.63 312.659 1874.91 313.613 L1876.73 314.018 Q1882.4 315.234 1884.78 317.462 Q1887.18 319.661 1887.18 323.625 Q1887.18 328.139 1883.59 330.772 Q1880.03 333.405 1873.78 333.405 Q1871.18 333.405 1868.34 332.884 Q1865.53 332.392 1862.41 331.379 L1862.41 325.882 Q1865.36 327.415 1868.22 328.197 Q1871.09 328.949 1873.9 328.949 Q1877.66 328.949 1879.68 327.676 Q1881.71 326.374 1881.71 324.03 Q1881.71 321.86 1880.23 320.702 Q1878.79 319.545 1873.84 318.474 L1871.99 318.04 Q1867.04 316.999 1864.84 314.858 Q1862.64 312.687 1862.64 308.926 Q1862.64 304.354 1865.88 301.866 Q1869.12 299.377 1875.08 299.377 Q1878.03 299.377 1880.64 299.811 Q1883.24 300.245 1885.44 301.113 Z" fill="#000000" fill-rule="nonzero" fill-opacity="1" /><path clip-path="url(#clip140)" d="M1900.92 290.957 L1900.92 300.159 L1911.89 300.159 L1911.89 304.296 L1900.92 304.296 L1900.92 321.889 Q1900.92 325.853 1901.99 326.981 Q1903.09 328.11 1906.42 328.11 L1911.89 328.11 L1911.89 332.566 L1906.42 332.566 Q1900.26 332.566 1897.91 330.28 Q1895.57 327.965 1895.57 321.889 L1895.57 304.296 L1891.66 304.296 L1891.66 300.159 L1895.57 300.159 L1895.57 290.957 L1900.92 290.957 Z" fill="#000000" fill-rule="nonzero" fill-opacity="1" /><path clip-path="url(#clip140)" d="M1946.61 315.031 L1946.61 317.635 L1922.13 317.635 Q1922.48 323.133 1925.43 326.026 Q1928.41 328.891 1933.7 328.891 Q1936.77 328.891 1939.64 328.139 Q1942.53 327.386 1945.37 325.882 L1945.37 330.917 Q1942.5 332.132 1939.49 332.768 Q1936.48 333.405 1933.39 333.405 Q1925.63 333.405 1921.09 328.891 Q1916.58 324.377 1916.58 316.68 Q1916.58 308.723 1920.86 304.065 Q1925.17 299.377 1932.46 299.377 Q1939 299.377 1942.79 303.602 Q1946.61 307.797 1946.61 315.031 M1941.29 313.469 Q1941.23 309.1 1938.83 306.495 Q1936.45 303.891 1932.52 303.891 Q1928.06 303.891 1925.37 306.409 Q1922.71 308.926 1922.3 313.498 L1941.29 313.469 Z" fill="#000000" fill-rule="nonzero" fill-opacity="1" /><path clip-path="url(#clip140)" d="M1970.08 316.275 Q1963.62 316.275 1961.14 317.751 Q1958.65 319.227 1958.65 322.786 Q1958.65 325.621 1960.5 327.3 Q1962.38 328.949 1965.59 328.949 Q1970.02 328.949 1972.68 325.824 Q1975.37 322.67 1975.37 317.462 L1975.37 316.275 L1970.08 316.275 M1980.7 314.076 L1980.7 332.566 L1975.37 332.566 L1975.37 327.647 Q1973.55 330.598 1970.83 332.016 Q1968.11 333.405 1964.17 333.405 Q1959.2 333.405 1956.24 330.627 Q1953.32 327.82 1953.32 323.133 Q1953.32 317.664 1956.97 314.887 Q1960.64 312.109 1967.91 312.109 L1975.37 312.109 L1975.37 311.588 Q1975.37 307.913 1972.94 305.917 Q1970.54 303.891 1966.17 303.891 Q1963.39 303.891 1960.76 304.557 Q1958.13 305.222 1955.7 306.553 L1955.7 301.634 Q1958.62 300.506 1961.37 299.956 Q1964.12 299.377 1966.72 299.377 Q1973.75 299.377 1977.22 303.023 Q1980.7 306.669 1980.7 314.076 Z" fill="#000000" fill-rule="nonzero" fill-opacity="1" /><path clip-path="url(#clip140)" d="M2012.99 305.078 L2012.99 287.543 L2018.31 287.543 L2018.31 332.566 L2012.99 332.566 L2012.99 327.705 Q2011.31 330.598 2008.73 332.016 Q2006.19 333.405 2002.6 333.405 Q1996.73 333.405 1993.02 328.717 Q1989.35 324.03 1989.35 316.391 Q1989.35 308.752 1993.02 304.065 Q1996.73 299.377 2002.6 299.377 Q2006.19 299.377 2008.73 300.795 Q2011.31 302.184 2012.99 305.078 M1994.84 316.391 Q1994.84 322.265 1997.25 325.621 Q1999.68 328.949 2003.9 328.949 Q2008.13 328.949 2010.56 325.621 Q2012.99 322.265 2012.99 316.391 Q2012.99 310.517 2010.56 307.19 Q2008.13 303.833 2003.9 303.833 Q1999.68 303.833 1997.25 307.19 Q1994.84 310.517 1994.84 316.391 Z" fill="#000000" fill-rule="nonzero" fill-opacity="1" /><path clip-path="url(#clip140)" d="M2068.77 301.113 L2068.77 306.148 Q2066.52 304.991 2064.09 304.412 Q2061.66 303.833 2059.05 303.833 Q2055.09 303.833 2053.09 305.049 Q2051.12 306.264 2051.12 308.694 Q2051.12 310.546 2052.54 311.617 Q2053.96 312.659 2058.24 313.613 L2060.06 314.018 Q2065.74 315.234 2068.11 317.462 Q2070.51 319.661 2070.51 323.625 Q2070.51 328.139 2066.92 330.772 Q2063.36 333.405 2057.11 333.405 Q2054.51 333.405 2051.67 332.884 Q2048.87 332.392 2045.74 331.379 L2045.74 325.882 Q2048.69 327.415 2051.56 328.197 Q2054.42 328.949 2057.23 328.949 Q2060.99 328.949 2063.02 327.676 Q2065.04 326.374 2065.04 324.03 Q2065.04 321.86 2063.57 320.702 Q2062.12 319.545 2057.17 318.474 L2055.32 318.04 Q2050.37 316.999 2048.17 314.858 Q2045.97 312.687 2045.97 308.926 Q2045.97 304.354 2049.21 301.866 Q2052.45 299.377 2058.41 299.377 Q2061.37 299.377 2063.97 299.811 Q2066.57 300.245 2068.77 301.113 Z" fill="#000000" fill-rule="nonzero" fill-opacity="1" /><path clip-path="url(#clip140)" d="M2084.25 290.957 L2084.25 300.159 L2095.22 300.159 L2095.22 304.296 L2084.25 304.296 L2084.25 321.889 Q2084.25 325.853 2085.32 326.981 Q2086.42 328.11 2089.75 328.11 L2095.22 328.11 L2095.22 332.566 L2089.75 332.566 Q2083.59 332.566 2081.24 330.28 Q2078.9 327.965 2078.9 321.889 L2078.9 304.296 L2074.99 304.296 L2074.99 300.159 L2078.9 300.159 L2078.9 290.957 L2084.25 290.957 Z" fill="#000000" fill-rule="nonzero" fill-opacity="1" /><path clip-path="url(#clip140)" d="M2116.95 316.275 Q2110.5 316.275 2108.01 317.751 Q2105.52 319.227 2105.52 322.786 Q2105.52 325.621 2107.37 327.3 Q2109.25 328.949 2112.47 328.949 Q2116.89 328.949 2119.55 325.824 Q2122.25 322.67 2122.25 317.462 L2122.25 316.275 L2116.95 316.275 M2127.57 314.076 L2127.57 332.566 L2122.25 332.566 L2122.25 327.647 Q2120.42 330.598 2117.7 332.016 Q2114.98 333.405 2111.05 333.405 Q2106.07 333.405 2103.12 330.627 Q2100.2 327.82 2100.2 323.133 Q2100.2 317.664 2103.84 314.887 Q2107.52 312.109 2114.78 312.109 L2122.25 312.109 L2122.25 311.588 Q2122.25 307.913 2119.81 305.917 Q2117.41 303.891 2113.04 303.891 Q2110.27 303.891 2107.63 304.557 Q2105 305.222 2102.57 306.553 L2102.57 301.634 Q2105.49 300.506 2108.24 299.956 Q2110.99 299.377 2113.59 299.377 Q2120.62 299.377 2124.1 303.023 Q2127.57 306.669 2127.57 314.076 Z" fill="#000000" fill-rule="nonzero" fill-opacity="1" /><path clip-path="url(#clip140)" d="M2143.8 290.957 L2143.8 300.159 L2154.77 300.159 L2154.77 304.296 L2143.8 304.296 L2143.8 321.889 Q2143.8 325.853 2144.87 326.981 Q2145.97 328.11 2149.3 328.11 L2154.77 328.11 L2154.77 332.566 L2149.3 332.566 Q2143.14 332.566 2140.79 330.28 Q2138.45 327.965 2138.45 321.889 L2138.45 304.296 L2134.54 304.296 L2134.54 300.159 L2138.45 300.159 L2138.45 290.957 L2143.8 290.957 Z" fill="#000000" fill-rule="nonzero" fill-opacity="1" /><path clip-path="url(#clip140)" d="M2189.49 315.031 L2189.49 317.635 L2165.01 317.635 Q2165.36 323.133 2168.31 326.026 Q2171.29 328.891 2176.59 328.891 Q2179.65 328.891 2182.52 328.139 Q2185.41 327.386 2188.25 325.882 L2188.25 330.917 Q2185.38 332.132 2182.37 332.768 Q2179.36 333.405 2176.27 333.405 Q2168.51 333.405 2163.97 328.891 Q2159.46 324.377 2159.46 316.68 Q2159.46 308.723 2163.74 304.065 Q2168.05 299.377 2175.34 299.377 Q2181.88 299.377 2185.67 303.602 Q2189.49 307.797 2189.49 315.031 M2184.17 313.469 Q2184.11 309.1 2181.71 306.495 Q2179.33 303.891 2175.4 303.891 Q2170.94 303.891 2168.25 306.409 Q2165.59 308.926 2165.18 313.498 L2184.17 313.469 Z" fill="#000000" fill-rule="nonzero" fill-opacity="1" /><path clip-path="url(#clip140)" d="M1566.24 404.21 L1558.19 383.816 L1537.8 375.766 L1558.19 367.716 L1566.24 347.321 L1574.29 367.716 L1594.69 375.766 L1574.29 383.816 L1566.24 404.21 Z" fill="#ff0000" fill-rule="evenodd" fill-opacity="1" stroke="#000000" stroke-opacity="1" stroke-width="8.53333"/>
<path clip-path="url(#clip140)" d="M1656.56 354.166 L1662.44 354.166 L1662.44 380.41 Q1662.44 387.354 1664.96 390.421 Q1667.47 393.46 1673.12 393.46 Q1678.73 393.46 1681.25 390.421 Q1683.76 387.354 1683.76 380.41 L1683.76 354.166 L1689.64 354.166 L1689.64 381.133 Q1689.64 389.582 1685.44 393.894 Q1681.28 398.205 1673.12 398.205 Q1664.93 398.205 1660.73 393.894 Q1656.56 389.582 1656.56 381.133 L1656.56 354.166 Z" fill="#000000" fill-rule="nonzero" fill-opacity="1" /><path clip-path="url(#clip140)" d="M1727.31 377.806 L1727.31 397.366 L1721.99 397.366 L1721.99 377.979 Q1721.99 373.379 1720.19 371.093 Q1718.4 368.807 1714.81 368.807 Q1710.5 368.807 1708.01 371.556 Q1705.52 374.305 1705.52 379.05 L1705.52 397.366 L1700.17 397.366 L1700.17 364.959 L1705.52 364.959 L1705.52 369.993 Q1707.43 367.071 1710.01 365.624 Q1712.61 364.177 1716 364.177 Q1721.58 364.177 1724.45 367.65 Q1727.31 371.093 1727.31 377.806 Z" fill="#000000" fill-rule="nonzero" fill-opacity="1" /><path clip-path="url(#clip140)" d="M1758.59 365.913 L1758.59 370.948 Q1756.33 369.791 1753.9 369.212 Q1751.47 368.633 1748.87 368.633 Q1744.9 368.633 1742.91 369.849 Q1740.94 371.064 1740.94 373.494 Q1740.94 375.346 1742.36 376.417 Q1743.78 377.459 1748.06 378.413 L1749.88 378.818 Q1755.55 380.034 1757.92 382.262 Q1760.33 384.461 1760.33 388.425 Q1760.33 392.939 1756.74 395.572 Q1753.18 398.205 1746.93 398.205 Q1744.32 398.205 1741.49 397.684 Q1738.68 397.192 1735.56 396.179 L1735.56 390.682 Q1738.51 392.215 1741.37 392.997 Q1744.24 393.749 1747.04 393.749 Q1750.81 393.749 1752.83 392.476 Q1754.86 391.174 1754.86 388.83 Q1754.86 386.66 1753.38 385.502 Q1751.93 384.345 1746.99 383.274 L1745.14 382.84 Q1740.19 381.799 1737.99 379.658 Q1735.79 377.487 1735.79 373.726 Q1735.79 369.154 1739.03 366.666 Q1742.27 364.177 1748.23 364.177 Q1751.18 364.177 1753.79 364.611 Q1756.39 365.045 1758.59 365.913 Z" fill="#000000" fill-rule="nonzero" fill-opacity="1" /><path clip-path="url(#clip140)" d="M1774.07 355.757 L1774.07 364.959 L1785.04 364.959 L1785.04 369.096 L1774.07 369.096 L1774.07 386.689 Q1774.07 390.653 1775.14 391.781 Q1776.24 392.91 1779.57 392.91 L1785.04 392.91 L1785.04 397.366 L1779.57 397.366 Q1773.4 397.366 1771.06 395.08 Q1768.72 392.765 1768.72 386.689 L1768.72 369.096 L1764.81 369.096 L1764.81 364.959 L1768.72 364.959 L1768.72 355.757 L1774.07 355.757 Z" fill="#000000" fill-rule="nonzero" fill-opacity="1" /><path clip-path="url(#clip140)" d="M1806.77 381.075 Q1800.31 381.075 1797.83 382.551 Q1795.34 384.027 1795.34 387.586 Q1795.34 390.421 1797.19 392.1 Q1799.07 393.749 1802.28 393.749 Q1806.71 393.749 1809.37 390.624 Q1812.06 387.47 1812.06 382.262 L1812.06 381.075 L1806.77 381.075 M1817.39 378.876 L1817.39 397.366 L1812.06 397.366 L1812.06 392.447 Q1810.24 395.398 1807.52 396.816 Q1804.8 398.205 1800.86 398.205 Q1795.89 398.205 1792.94 395.427 Q1790.01 392.62 1790.01 387.933 Q1790.01 382.464 1793.66 379.687 Q1797.33 376.909 1804.6 376.909 L1812.06 376.909 L1812.06 376.388 Q1812.06 372.713 1809.63 370.717 Q1807.23 368.691 1802.86 368.691 Q1800.08 368.691 1797.45 369.357 Q1794.82 370.022 1792.39 371.353 L1792.39 366.434 Q1795.31 365.306 1798.06 364.756 Q1800.81 364.177 1803.41 364.177 Q1810.44 364.177 1813.91 367.823 Q1817.39 371.469 1817.39 378.876 Z" fill="#000000" fill-rule="nonzero" fill-opacity="1" /><path clip-path="url(#clip140)" d="M1851.62 381.191 Q1851.62 375.317 1849.19 371.99 Q1846.78 368.633 1842.56 368.633 Q1838.33 368.633 1835.9 371.99 Q1833.5 375.317 1833.5 381.191 Q1833.5 387.065 1835.9 390.421 Q1838.33 393.749 1842.56 393.749 Q1846.78 393.749 1849.19 390.421 Q1851.62 387.065 1851.62 381.191 M1833.5 369.878 Q1835.18 366.984 1837.73 365.595 Q1840.3 364.177 1843.86 364.177 Q1849.76 364.177 1853.44 368.865 Q1857.14 373.552 1857.14 381.191 Q1857.14 388.83 1853.44 393.517 Q1849.76 398.205 1843.86 398.205 Q1840.3 398.205 1837.73 396.816 Q1835.18 395.398 1833.5 392.505 L1833.5 397.366 L1828.15 397.366 L1828.15 352.343 L1833.5 352.343 L1833.5 369.878 Z" fill="#000000" fill-rule="nonzero" fill-opacity="1" /><path clip-path="url(#clip140)" d="M1865.97 352.343 L1871.29 352.343 L1871.29 397.366 L1865.97 397.366 L1865.97 352.343 Z" fill="#000000" fill-rule="nonzero" fill-opacity="1" /><path clip-path="url(#clip140)" d="M1910.15 379.831 L1910.15 382.435 L1885.67 382.435 Q1886.02 387.933 1888.97 390.826 Q1891.95 393.691 1897.25 393.691 Q1900.31 393.691 1903.18 392.939 Q1906.07 392.186 1908.91 390.682 L1908.91 395.717 Q1906.04 396.932 1903.03 397.568 Q1900.02 398.205 1896.93 398.205 Q1889.17 398.205 1884.63 393.691 Q1880.12 389.177 1880.12 381.48 Q1880.12 373.523 1884.4 368.865 Q1888.71 364.177 1896 364.177 Q1902.54 364.177 1906.33 368.402 Q1910.15 372.597 1910.15 379.831 M1904.83 378.269 Q1904.77 373.9 1902.37 371.295 Q1900 368.691 1896.06 368.691 Q1891.6 368.691 1888.91 371.209 Q1886.25 373.726 1885.85 378.298 L1904.83 378.269 Z" fill="#000000" fill-rule="nonzero" fill-opacity="1" /><path clip-path="url(#clip140)" d="M1958.39 365.913 L1958.39 370.948 Q1956.13 369.791 1953.7 369.212 Q1951.27 368.633 1948.66 368.633 Q1944.7 368.633 1942.7 369.849 Q1940.74 371.064 1940.74 373.494 Q1940.74 375.346 1942.15 376.417 Q1943.57 377.459 1947.85 378.413 L1949.68 378.818 Q1955.35 380.034 1957.72 382.262 Q1960.12 384.461 1960.12 388.425 Q1960.12 392.939 1956.53 395.572 Q1952.98 398.205 1946.73 398.205 Q1944.12 398.205 1941.29 397.684 Q1938.48 397.192 1935.35 396.179 L1935.35 390.682 Q1938.31 392.215 1941.17 392.997 Q1944.03 393.749 1946.84 393.749 Q1950.6 393.749 1952.63 392.476 Q1954.65 391.174 1954.65 388.83 Q1954.65 386.66 1953.18 385.502 Q1951.73 384.345 1946.78 383.274 L1944.93 382.84 Q1939.98 381.799 1937.78 379.658 Q1935.59 377.487 1935.59 373.726 Q1935.59 369.154 1938.83 366.666 Q1942.07 364.177 1948.03 364.177 Q1950.98 364.177 1953.58 364.611 Q1956.19 365.045 1958.39 365.913 Z" fill="#000000" fill-rule="nonzero" fill-opacity="1" /><path clip-path="url(#clip140)" d="M1973.87 355.757 L1973.87 364.959 L1984.83 364.959 L1984.83 369.096 L1973.87 369.096 L1973.87 386.689 Q1973.87 390.653 1974.94 391.781 Q1976.04 392.91 1979.36 392.91 L1984.83 392.91 L1984.83 397.366 L1979.36 397.366 Q1973.2 397.366 1970.86 395.08 Q1968.51 392.765 1968.51 386.689 L1968.51 369.096 L1964.61 369.096 L1964.61 364.959 L1968.51 364.959 L1968.51 355.757 L1973.87 355.757 Z" fill="#000000" fill-rule="nonzero" fill-opacity="1" /><path clip-path="url(#clip140)" d="M2019.55 379.831 L2019.55 382.435 L1995.08 382.435 Q1995.42 387.933 1998.37 390.826 Q2001.35 393.691 2006.65 393.691 Q2009.72 393.691 2012.58 392.939 Q2015.47 392.186 2018.31 390.682 L2018.31 395.717 Q2015.45 396.932 2012.44 397.568 Q2009.43 398.205 2006.33 398.205 Q1998.58 398.205 1994.03 393.691 Q1989.52 389.177 1989.52 381.48 Q1989.52 373.523 1993.8 368.865 Q1998.11 364.177 2005.41 364.177 Q2011.94 364.177 2015.74 368.402 Q2019.55 372.597 2019.55 379.831 M2014.23 378.269 Q2014.17 373.9 2011.77 371.295 Q2009.4 368.691 2005.46 368.691 Q2001.01 368.691 1998.32 371.209 Q1995.65 373.726 1995.25 378.298 L2014.23 378.269 Z" fill="#000000" fill-rule="nonzero" fill-opacity="1" /><path clip-path="url(#clip140)" d="M2043.02 381.075 Q2036.57 381.075 2034.08 382.551 Q2031.59 384.027 2031.59 387.586 Q2031.59 390.421 2033.44 392.1 Q2035.32 393.749 2038.54 393.749 Q2042.96 393.749 2045.63 390.624 Q2048.32 387.47 2048.32 382.262 L2048.32 381.075 L2043.02 381.075 M2053.64 378.876 L2053.64 397.366 L2048.32 397.366 L2048.32 392.447 Q2046.49 395.398 2043.77 396.816 Q2041.05 398.205 2037.12 398.205 Q2032.14 398.205 2029.19 395.427 Q2026.27 392.62 2026.27 387.933 Q2026.27 382.464 2029.91 379.687 Q2033.59 376.909 2040.85 376.909 L2048.32 376.909 L2048.32 376.388 Q2048.32 372.713 2045.89 370.717 Q2043.48 368.691 2039.11 368.691 Q2036.34 368.691 2033.7 369.357 Q2031.07 370.022 2028.64 371.353 L2028.64 366.434 Q2031.56 365.306 2034.31 364.756 Q2037.06 364.177 2039.66 364.177 Q2046.7 364.177 2050.17 367.823 Q2053.64 371.469 2053.64 378.876 Z" fill="#000000" fill-rule="nonzero" fill-opacity="1" /><path clip-path="url(#clip140)" d="M2085.93 369.878 L2085.93 352.343 L2091.26 352.343 L2091.26 397.366 L2085.93 397.366 L2085.93 392.505 Q2084.25 395.398 2081.68 396.816 Q2079.13 398.205 2075.54 398.205 Q2069.67 398.205 2065.97 393.517 Q2062.29 388.83 2062.29 381.191 Q2062.29 373.552 2065.97 368.865 Q2069.67 364.177 2075.54 364.177 Q2079.13 364.177 2081.68 365.595 Q2084.25 366.984 2085.93 369.878 M2067.79 381.191 Q2067.79 387.065 2070.19 390.421 Q2072.62 393.749 2076.85 393.749 Q2081.07 393.749 2083.5 390.421 Q2085.93 387.065 2085.93 381.191 Q2085.93 375.317 2083.5 371.99 Q2081.07 368.633 2076.85 368.633 Q2072.62 368.633 2070.19 371.99 Q2067.79 375.317 2067.79 381.191 Z" fill="#000000" fill-rule="nonzero" fill-opacity="1" /><path clip-path="url(#clip140)" d="M2141.72 365.913 L2141.72 370.948 Q2139.46 369.791 2137.03 369.212 Q2134.6 368.633 2132 368.633 Q2128.03 368.633 2126.04 369.849 Q2124.07 371.064 2124.07 373.494 Q2124.07 375.346 2125.49 376.417 Q2126.9 377.459 2131.19 378.413 L2133.01 378.818 Q2138.68 380.034 2141.05 382.262 Q2143.45 384.461 2143.45 388.425 Q2143.45 392.939 2139.87 395.572 Q2136.31 398.205 2130.06 398.205 Q2127.45 398.205 2124.62 397.684 Q2121.81 397.192 2118.69 396.179 L2118.69 390.682 Q2121.64 392.215 2124.5 392.997 Q2127.37 393.749 2130.17 393.749 Q2133.94 393.749 2135.96 392.476 Q2137.99 391.174 2137.99 388.83 Q2137.99 386.66 2136.51 385.502 Q2135.06 384.345 2130.12 383.274 L2128.26 382.84 Q2123.32 381.799 2121.12 379.658 Q2118.92 377.487 2118.92 373.726 Q2118.92 369.154 2122.16 366.666 Q2125.4 364.177 2131.36 364.177 Q2134.31 364.177 2136.92 364.611 Q2139.52 365.045 2141.72 365.913 Z" fill="#000000" fill-rule="nonzero" fill-opacity="1" /><path clip-path="url(#clip140)" d="M2157.2 355.757 L2157.2 364.959 L2168.17 364.959 L2168.17 369.096 L2157.2 369.096 L2157.2 386.689 Q2157.2 390.653 2158.27 391.781 Q2159.37 392.91 2162.7 392.91 L2168.17 392.91 L2168.17 397.366 L2162.7 397.366 Q2156.53 397.366 2154.19 395.08 Q2151.85 392.765 2151.85 386.689 L2151.85 369.096 L2147.94 369.096 L2147.94 364.959 L2151.85 364.959 L2151.85 355.757 L2157.2 355.757 Z" fill="#000000" fill-rule="nonzero" fill-opacity="1" /><path clip-path="url(#clip140)" d="M2189.9 381.075 Q2183.44 381.075 2180.95 382.551 Q2178.47 384.027 2178.47 387.586 Q2178.47 390.421 2180.32 392.1 Q2182.2 393.749 2185.41 393.749 Q2189.84 393.749 2192.5 390.624 Q2195.19 387.47 2195.19 382.262 L2195.19 381.075 L2189.9 381.075 M2200.51 378.876 L2200.51 397.366 L2195.19 397.366 L2195.19 392.447 Q2193.37 395.398 2190.65 396.816 Q2187.93 398.205 2183.99 398.205 Q2179.02 398.205 2176.06 395.427 Q2173.14 392.62 2173.14 387.933 Q2173.14 382.464 2176.79 379.687 Q2180.46 376.909 2187.73 376.909 L2195.19 376.909 L2195.19 376.388 Q2195.19 372.713 2192.76 370.717 Q2190.36 368.691 2185.99 368.691 Q2183.21 368.691 2180.58 369.357 Q2177.95 370.022 2175.51 371.353 L2175.51 366.434 Q2178.44 365.306 2181.19 364.756 Q2183.93 364.177 2186.54 364.177 Q2193.57 364.177 2197.04 367.823 Q2200.51 371.469 2200.51 378.876 Z" fill="#000000" fill-rule="nonzero" fill-opacity="1" /><path clip-path="url(#clip140)" d="M2216.75 355.757 L2216.75 364.959 L2227.71 364.959 L2227.71 369.096 L2216.75 369.096 L2216.75 386.689 Q2216.75 390.653 2217.82 391.781 Q2218.92 392.91 2222.24 392.91 L2227.71 392.91 L2227.71 397.366 L2222.24 397.366 Q2216.08 397.366 2213.74 395.08 Q2211.39 392.765 2211.39 386.689 L2211.39 369.096 L2207.49 369.096 L2207.49 364.959 L2211.39 364.959 L2211.39 355.757 L2216.75 355.757 Z" fill="#000000" fill-rule="nonzero" fill-opacity="1" /><path clip-path="url(#clip140)" d="M2262.44 379.831 L2262.44 382.435 L2237.96 382.435 Q2238.3 387.933 2241.26 390.826 Q2244.24 393.691 2249.53 393.691 Q2252.6 393.691 2255.46 392.939 Q2258.36 392.186 2261.19 390.682 L2261.19 395.717 Q2258.33 396.932 2255.32 397.568 Q2252.31 398.205 2249.21 398.205 Q2241.46 398.205 2236.91 393.691 Q2232.4 389.177 2232.4 381.48 Q2232.4 373.523 2236.68 368.865 Q2240.99 364.177 2248.29 364.177 Q2254.83 364.177 2258.62 368.402 Q2262.44 372.597 2262.44 379.831 M2257.11 378.269 Q2257.05 373.9 2254.65 371.295 Q2252.28 368.691 2248.34 368.691 Q2243.89 368.691 2241.2 371.209 Q2238.54 373.726 2238.13 378.298 L2257.11 378.269 Z" fill="#000000" fill-rule="nonzero" fill-opacity="1" /></svg>
