<?xml version="1.0" encoding="utf-8"?>
<svg xmlns="http://www.w3.org/2000/svg" xmlns:xlink="http://www.w3.org/1999/xlink" width="600" height="400" viewBox="0 0 2400 1600">
<defs>
  <clipPath id="clip240">
    <rect x="0" y="0" width="2400" height="1600"/>
  </clipPath>
</defs>
<path clip-path="url(#clip240)" d="M0 1600 L2400 1600 L2400 0 L0 0  Z" fill="#ffffff" fill-rule="evenodd" fill-opacity="1"/>
<defs>
  <clipPath id="clip241">
    <rect x="480" y="0" width="1681" height="1600"/>
  </clipPath>
</defs>
<path clip-path="url(#clip240)" d="M186.274 1423.18 L2352.76 1423.18 L2352.76 47.2441 L186.274 47.2441  Z" fill="#ffffff" fill-rule="evenodd" fill-opacity="1"/>
<defs>
  <clipPath id="clip242">
    <rect x="186" y="47" width="2167" height="1377"/>
  </clipPath>
</defs>
<polyline clip-path="url(#clip242)" style="stroke:#000000; stroke-linecap:round; stroke-linejoin:round; stroke-width:2; stroke-opacity:0.1; fill:none" points="186.274,1423.18 186.274,47.2441 "/>
<polyline clip-path="url(#clip242)" style="stroke:#000000; stroke-linecap:round; stroke-linejoin:round; stroke-width:2; stroke-opacity:0.1; fill:none" points="727.894,1423.18 727.894,47.2441 "/>
<polyline clip-path="url(#clip242)" style="stroke:#000000; stroke-linecap:round; stroke-linejoin:round; stroke-width:2; stroke-opacity:0.1; fill:none" points="1269.51,1423.18 1269.51,47.2441 "/>
<polyline clip-path="url(#clip242)" style="stroke:#000000; stroke-linecap:round; stroke-linejoin:round; stroke-width:2; stroke-opacity:0.1; fill:none" points="1811.14,1423.18 1811.14,47.2441 "/>
<polyline clip-path="url(#clip242)" style="stroke:#000000; stroke-linecap:round; stroke-linejoin:round; stroke-width:2; stroke-opacity:0.1; fill:none" points="2352.76,1423.18 2352.76,47.2441 "/>
<polyline clip-path="url(#clip240)" style="stroke:#000000; stroke-linecap:round; stroke-linejoin:round; stroke-width:4; stroke-opacity:1; fill:none" points="186.274,1423.18 2352.76,1423.18 "/>
<polyline clip-path="url(#clip240)" style="stroke:#000000; stroke-linecap:round; stroke-linejoin:round; stroke-width:4; stroke-opacity:1; fill:none" points="186.274,1423.18 186.274,1404.28 "/>
<polyline clip-path="url(#clip240)" style="stroke:#000000; stroke-linecap:round; stroke-linejoin:round; stroke-width:4; stroke-opacity:1; fill:none" points="727.894,1423.18 727.894,1404.28 "/>
<polyline clip-path="url(#clip240)" style="stroke:#000000; stroke-linecap:round; stroke-linejoin:round; stroke-width:4; stroke-opacity:1; fill:none" points="1269.51,1423.18 1269.51,1404.28 "/>
<polyline clip-path="url(#clip240)" style="stroke:#000000; stroke-linecap:round; stroke-linejoin:round; stroke-width:4; stroke-opacity:1; fill:none" points="1811.14,1423.18 1811.14,1404.28 "/>
<polyline clip-path="url(#clip240)" style="stroke:#000000; stroke-linecap:round; stroke-linejoin:round; stroke-width:4; stroke-opacity:1; fill:none" points="2352.76,1423.18 2352.76,1404.28 "/>
<path clip-path="url(#clip240)" d="M186.274 1454.1 Q182.663 1454.1 180.834 1457.66 Q179.029 1461.2 179.029 1468.33 Q179.029 1475.44 180.834 1479.01 Q182.663 1482.55 186.274 1482.55 Q189.908 1482.55 191.714 1479.01 Q193.542 1475.44 193.542 1468.33 Q193.542 1461.2 191.714 1457.66 Q189.908 1454.1 186.274 1454.1 M186.274 1450.39 Q192.084 1450.39 195.14 1455 Q198.218 1459.58 198.218 1468.33 Q198.218 1477.06 195.14 1481.67 Q192.084 1486.25 186.274 1486.25 Q180.464 1486.25 177.385 1481.67 Q174.33 1477.06 174.33 1468.33 Q174.33 1459.58 177.385 1455 Q180.464 1450.39 186.274 1450.39 Z" fill="#000000" fill-rule="nonzero" fill-opacity="1" /><path clip-path="url(#clip240)" d="M718.172 1451.02 L736.529 1451.02 L736.529 1454.96 L722.455 1454.96 L722.455 1463.43 Q723.473 1463.08 724.492 1462.92 Q725.51 1462.73 726.529 1462.73 Q732.316 1462.73 735.695 1465.9 Q739.075 1469.08 739.075 1474.49 Q739.075 1480.07 735.603 1483.17 Q732.131 1486.25 725.811 1486.25 Q723.635 1486.25 721.367 1485.88 Q719.121 1485.51 716.714 1484.77 L716.714 1480.07 Q718.797 1481.2 721.02 1481.76 Q723.242 1482.32 725.719 1482.32 Q729.723 1482.32 732.061 1480.21 Q734.399 1478.1 734.399 1474.49 Q734.399 1470.88 732.061 1468.77 Q729.723 1466.67 725.719 1466.67 Q723.844 1466.67 721.969 1467.08 Q720.117 1467.5 718.172 1468.38 L718.172 1451.02 Z" fill="#000000" fill-rule="nonzero" fill-opacity="1" /><path clip-path="url(#clip240)" d="M1244.2 1481.64 L1251.84 1481.64 L1251.84 1455.28 L1243.53 1456.95 L1243.53 1452.69 L1251.8 1451.02 L1256.47 1451.02 L1256.47 1481.64 L1264.11 1481.64 L1264.11 1485.58 L1244.2 1485.58 L1244.2 1481.64 Z" fill="#000000" fill-rule="nonzero" fill-opacity="1" /><path clip-path="url(#clip240)" d="M1283.55 1454.1 Q1279.94 1454.1 1278.11 1457.66 Q1276.31 1461.2 1276.31 1468.33 Q1276.31 1475.44 1278.11 1479.01 Q1279.94 1482.55 1283.55 1482.55 Q1287.19 1482.55 1288.99 1479.01 Q1290.82 1475.44 1290.82 1468.33 Q1290.82 1461.2 1288.99 1457.66 Q1287.19 1454.1 1283.55 1454.1 M1283.55 1450.39 Q1289.36 1450.39 1292.42 1455 Q1295.5 1459.58 1295.5 1468.33 Q1295.5 1477.06 1292.42 1481.67 Q1289.36 1486.25 1283.55 1486.25 Q1277.74 1486.25 1274.67 1481.67 Q1271.61 1477.06 1271.61 1468.33 Q1271.61 1459.58 1274.67 1455 Q1277.74 1450.39 1283.55 1450.39 Z" fill="#000000" fill-rule="nonzero" fill-opacity="1" /><path clip-path="url(#clip240)" d="M1786.32 1481.64 L1793.96 1481.64 L1793.96 1455.28 L1785.65 1456.95 L1785.65 1452.69 L1793.91 1451.02 L1798.59 1451.02 L1798.59 1481.64 L1806.23 1481.64 L1806.23 1485.58 L1786.32 1485.58 L1786.32 1481.64 Z" fill="#000000" fill-rule="nonzero" fill-opacity="1" /><path clip-path="url(#clip240)" d="M1815.72 1451.02 L1834.08 1451.02 L1834.08 1454.96 L1820 1454.96 L1820 1463.43 Q1821.02 1463.08 1822.04 1462.92 Q1823.06 1462.73 1824.08 1462.73 Q1829.86 1462.73 1833.24 1465.9 Q1836.62 1469.08 1836.62 1474.49 Q1836.62 1480.07 1833.15 1483.17 Q1829.68 1486.25 1823.36 1486.25 Q1821.18 1486.25 1818.91 1485.88 Q1816.67 1485.51 1814.26 1484.77 L1814.26 1480.07 Q1816.34 1481.2 1818.57 1481.76 Q1820.79 1482.32 1823.26 1482.32 Q1827.27 1482.32 1829.61 1480.21 Q1831.95 1478.1 1831.95 1474.49 Q1831.95 1470.88 1829.61 1468.77 Q1827.27 1466.67 1823.26 1466.67 Q1821.39 1466.67 1819.52 1467.08 Q1817.66 1467.5 1815.72 1468.38 L1815.72 1451.02 Z" fill="#000000" fill-rule="nonzero" fill-opacity="1" /><path clip-path="url(#clip240)" d="M2331.53 1481.64 L2347.85 1481.64 L2347.85 1485.58 L2325.9 1485.58 L2325.9 1481.64 Q2328.57 1478.89 2333.15 1474.26 Q2337.76 1469.61 2338.94 1468.27 Q2341.18 1465.74 2342.06 1464.01 Q2342.96 1462.25 2342.96 1460.56 Q2342.96 1457.8 2341.02 1456.07 Q2339.1 1454.33 2336 1454.33 Q2333.8 1454.33 2331.34 1455.09 Q2328.91 1455.86 2326.14 1457.41 L2326.14 1452.69 Q2328.96 1451.55 2331.41 1450.97 Q2333.87 1450.39 2335.9 1450.39 Q2341.27 1450.39 2344.47 1453.08 Q2347.66 1455.77 2347.66 1460.26 Q2347.66 1462.39 2346.85 1464.31 Q2346.07 1466.2 2343.96 1468.8 Q2343.38 1469.47 2340.28 1472.69 Q2337.18 1475.88 2331.53 1481.64 Z" fill="#000000" fill-rule="nonzero" fill-opacity="1" /><path clip-path="url(#clip240)" d="M2367.66 1454.1 Q2364.05 1454.1 2362.22 1457.66 Q2360.42 1461.2 2360.42 1468.33 Q2360.42 1475.44 2362.22 1479.01 Q2364.05 1482.55 2367.66 1482.55 Q2371.3 1482.55 2373.1 1479.01 Q2374.93 1475.44 2374.93 1468.33 Q2374.93 1461.2 2373.1 1457.66 Q2371.3 1454.1 2367.66 1454.1 M2367.66 1450.39 Q2373.47 1450.39 2376.53 1455 Q2379.61 1459.58 2379.61 1468.33 Q2379.61 1477.06 2376.53 1481.67 Q2373.47 1486.25 2367.66 1486.25 Q2361.85 1486.25 2358.77 1481.67 Q2355.72 1477.06 2355.72 1468.33 Q2355.72 1459.58 2358.77 1455 Q2361.85 1450.39 2367.66 1450.39 Z" fill="#000000" fill-rule="nonzero" fill-opacity="1" /><path clip-path="url(#clip240)" d="M1116.04 1520.52 L1156.24 1520.52 L1156.24 1525.93 L1139.37 1525.93 L1139.37 1568.04 L1132.91 1568.04 L1132.91 1525.93 L1116.04 1525.93 L1116.04 1520.52 Z" fill="#000000" fill-rule="nonzero" fill-opacity="1" /><path clip-path="url(#clip240)" d="M1160.18 1532.4 L1166.04 1532.4 L1166.04 1568.04 L1160.18 1568.04 L1160.18 1532.4 M1160.18 1518.52 L1166.04 1518.52 L1166.04 1525.93 L1160.18 1525.93 L1160.18 1518.52 Z" fill="#000000" fill-rule="nonzero" fill-opacity="1" /><path clip-path="url(#clip240)" d="M1206.05 1539.24 Q1208.25 1535.29 1211.3 1533.41 Q1214.36 1531.54 1218.49 1531.54 Q1224.06 1531.54 1227.09 1535.45 Q1230.11 1539.33 1230.11 1546.53 L1230.11 1568.04 L1224.22 1568.04 L1224.22 1546.72 Q1224.22 1541.59 1222.41 1539.11 Q1220.59 1536.63 1216.87 1536.63 Q1212.32 1536.63 1209.68 1539.65 Q1207.04 1542.68 1207.04 1547.9 L1207.04 1568.04 L1201.15 1568.04 L1201.15 1546.72 Q1201.15 1541.56 1199.33 1539.11 Q1197.52 1536.63 1193.73 1536.63 Q1189.24 1536.63 1186.6 1539.68 Q1183.96 1542.71 1183.96 1547.9 L1183.96 1568.04 L1178.07 1568.04 L1178.07 1532.4 L1183.96 1532.4 L1183.96 1537.93 Q1185.97 1534.66 1188.77 1533.1 Q1191.57 1531.54 1195.42 1531.54 Q1199.3 1531.54 1202.01 1533.51 Q1204.74 1535.48 1206.05 1539.24 Z" fill="#000000" fill-rule="nonzero" fill-opacity="1" /><path clip-path="url(#clip240)" d="M1272.28 1548.76 L1272.28 1551.62 L1245.36 1551.62 Q1245.74 1557.67 1248.99 1560.85 Q1252.26 1564 1258.09 1564 Q1261.46 1564 1264.61 1563.17 Q1267.8 1562.35 1270.92 1560.69 L1270.92 1566.23 Q1267.76 1567.57 1264.45 1568.27 Q1261.14 1568.97 1257.74 1568.97 Q1249.21 1568.97 1244.21 1564 Q1239.25 1559.04 1239.25 1550.57 Q1239.25 1541.82 1243.96 1536.69 Q1248.7 1531.54 1256.72 1531.54 Q1263.91 1531.54 1268.08 1536.18 Q1272.28 1540.8 1272.28 1548.76 M1266.43 1547.04 Q1266.36 1542.23 1263.72 1539.37 Q1261.11 1536.5 1256.78 1536.5 Q1251.88 1536.5 1248.92 1539.27 Q1245.99 1542.04 1245.55 1547.07 L1266.43 1547.04 Z" fill="#000000" fill-rule="nonzero" fill-opacity="1" /><path clip-path="url(#clip240)" d="M1316.68 1518.58 Q1312.42 1525.9 1310.35 1533.06 Q1308.28 1540.23 1308.28 1547.58 Q1308.28 1554.93 1310.35 1562.16 Q1312.45 1569.35 1316.68 1576.64 L1311.59 1576.64 Q1306.82 1569.16 1304.43 1561.93 Q1302.08 1554.71 1302.08 1547.58 Q1302.08 1540.48 1304.43 1533.29 Q1306.79 1526.09 1311.59 1518.58 L1316.68 1518.58 Z" fill="#000000" fill-rule="nonzero" fill-opacity="1" /><path clip-path="url(#clip240)" d="M1344.25 1550.12 Q1337.15 1550.12 1334.41 1551.75 Q1331.68 1553.37 1331.68 1557.29 Q1331.68 1560.4 1333.71 1562.25 Q1335.78 1564.07 1339.31 1564.07 Q1344.18 1564.07 1347.11 1560.63 Q1350.07 1557.16 1350.07 1551.43 L1350.07 1550.12 L1344.25 1550.12 M1355.93 1547.71 L1355.93 1568.04 L1350.07 1568.04 L1350.07 1562.63 Q1348.07 1565.88 1345.08 1567.44 Q1342.08 1568.97 1337.76 1568.97 Q1332.28 1568.97 1329.03 1565.91 Q1325.82 1562.82 1325.82 1557.67 Q1325.82 1551.65 1329.83 1548.6 Q1333.87 1545.54 1341.86 1545.54 L1350.07 1545.54 L1350.07 1544.97 Q1350.07 1540.93 1347.4 1538.73 Q1344.76 1536.5 1339.95 1536.5 Q1336.9 1536.5 1334 1537.23 Q1331.1 1537.97 1328.43 1539.43 L1328.43 1534.02 Q1331.64 1532.78 1334.67 1532.17 Q1337.69 1531.54 1340.56 1531.54 Q1348.29 1531.54 1352.11 1535.55 Q1355.93 1539.56 1355.93 1547.71 Z" fill="#000000" fill-rule="nonzero" fill-opacity="1" /><path clip-path="url(#clip240)" d="M1367.39 1553.98 L1367.39 1532.4 L1373.24 1532.4 L1373.24 1553.75 Q1373.24 1558.81 1375.22 1561.36 Q1377.19 1563.87 1381.14 1563.87 Q1385.88 1563.87 1388.62 1560.85 Q1391.39 1557.83 1391.39 1552.61 L1391.39 1532.4 L1397.24 1532.4 L1397.24 1568.04 L1391.39 1568.04 L1391.39 1562.57 Q1389.25 1565.82 1386.42 1567.41 Q1383.62 1568.97 1379.9 1568.97 Q1373.75 1568.97 1370.57 1565.15 Q1367.39 1561.33 1367.39 1553.98 M1382.12 1531.54 L1382.12 1531.54 Z" fill="#000000" fill-rule="nonzero" fill-opacity="1" /><path clip-path="url(#clip240)" d="M1408.38 1518.58 L1413.48 1518.58 Q1418.25 1526.09 1420.61 1533.29 Q1422.99 1540.48 1422.99 1547.58 Q1422.99 1554.71 1420.61 1561.93 Q1418.25 1569.16 1413.48 1576.64 L1408.38 1576.64 Q1412.62 1569.35 1414.68 1562.16 Q1416.79 1554.93 1416.79 1547.58 Q1416.79 1540.23 1414.68 1533.06 Q1412.62 1525.9 1408.38 1518.58 Z" fill="#000000" fill-rule="nonzero" fill-opacity="1" /><polyline clip-path="url(#clip242)" style="stroke:#000000; stroke-linecap:round; stroke-linejoin:round; stroke-width:2; stroke-opacity:0.1; fill:none" points="186.274,1382.06 2352.76,1382.06 "/>
<polyline clip-path="url(#clip242)" style="stroke:#000000; stroke-linecap:round; stroke-linejoin:round; stroke-width:2; stroke-opacity:0.1; fill:none" points="186.274,1058.63 2352.76,1058.63 "/>
<polyline clip-path="url(#clip242)" style="stroke:#000000; stroke-linecap:round; stroke-linejoin:round; stroke-width:2; stroke-opacity:0.1; fill:none" points="186.274,735.212 2352.76,735.212 "/>
<polyline clip-path="url(#clip242)" style="stroke:#000000; stroke-linecap:round; stroke-linejoin:round; stroke-width:2; stroke-opacity:0.1; fill:none" points="186.274,411.79 2352.76,411.79 "/>
<polyline clip-path="url(#clip242)" style="stroke:#000000; stroke-linecap:round; stroke-linejoin:round; stroke-width:2; stroke-opacity:0.1; fill:none" points="186.274,88.3683 2352.76,88.3683 "/>
<polyline clip-path="url(#clip240)" style="stroke:#000000; stroke-linecap:round; stroke-linejoin:round; stroke-width:4; stroke-opacity:1; fill:none" points="186.274,1423.18 186.274,47.2441 "/>
<polyline clip-path="url(#clip240)" style="stroke:#000000; stroke-linecap:round; stroke-linejoin:round; stroke-width:4; stroke-opacity:1; fill:none" points="186.274,1382.06 205.172,1382.06 "/>
<polyline clip-path="url(#clip240)" style="stroke:#000000; stroke-linecap:round; stroke-linejoin:round; stroke-width:4; stroke-opacity:1; fill:none" points="186.274,1058.63 205.172,1058.63 "/>
<polyline clip-path="url(#clip240)" style="stroke:#000000; stroke-linecap:round; stroke-linejoin:round; stroke-width:4; stroke-opacity:1; fill:none" points="186.274,735.212 205.172,735.212 "/>
<polyline clip-path="url(#clip240)" style="stroke:#000000; stroke-linecap:round; stroke-linejoin:round; stroke-width:4; stroke-opacity:1; fill:none" points="186.274,411.79 205.172,411.79 "/>
<polyline clip-path="url(#clip240)" style="stroke:#000000; stroke-linecap:round; stroke-linejoin:round; stroke-width:4; stroke-opacity:1; fill:none" points="186.274,88.3683 205.172,88.3683 "/>
<path clip-path="url(#clip240)" d="M62.9365 1367.85 Q59.3254 1367.85 57.4967 1371.42 Q55.6912 1374.96 55.6912 1382.09 Q55.6912 1389.2 57.4967 1392.76 Q59.3254 1396.3 62.9365 1396.3 Q66.5707 1396.3 68.3763 1392.76 Q70.205 1389.2 70.205 1382.09 Q70.205 1374.96 68.3763 1371.42 Q66.5707 1367.85 62.9365 1367.85 M62.9365 1364.15 Q68.7467 1364.15 71.8022 1368.76 Q74.8809 1373.34 74.8809 1382.09 Q74.8809 1390.82 71.8022 1395.42 Q68.7467 1400.01 62.9365 1400.01 Q57.1264 1400.01 54.0477 1395.42 Q50.9921 1390.82 50.9921 1382.09 Q50.9921 1373.34 54.0477 1368.76 Q57.1264 1364.15 62.9365 1364.15 Z" fill="#000000" fill-rule="nonzero" fill-opacity="1" /><path clip-path="url(#clip240)" d="M83.0984 1393.46 L87.9827 1393.46 L87.9827 1399.34 L83.0984 1399.34 L83.0984 1393.46 Z" fill="#000000" fill-rule="nonzero" fill-opacity="1" /><path clip-path="url(#clip240)" d="M108.168 1367.85 Q104.557 1367.85 102.728 1371.42 Q100.922 1374.96 100.922 1382.09 Q100.922 1389.2 102.728 1392.76 Q104.557 1396.3 108.168 1396.3 Q111.802 1396.3 113.608 1392.76 Q115.436 1389.2 115.436 1382.09 Q115.436 1374.96 113.608 1371.42 Q111.802 1367.85 108.168 1367.85 M108.168 1364.15 Q113.978 1364.15 117.033 1368.76 Q120.112 1373.34 120.112 1382.09 Q120.112 1390.82 117.033 1395.42 Q113.978 1400.01 108.168 1400.01 Q102.358 1400.01 99.2789 1395.42 Q96.2234 1390.82 96.2234 1382.09 Q96.2234 1373.34 99.2789 1368.76 Q102.358 1364.15 108.168 1364.15 Z" fill="#000000" fill-rule="nonzero" fill-opacity="1" /><path clip-path="url(#clip240)" d="M138.33 1367.85 Q134.719 1367.85 132.89 1371.42 Q131.084 1374.96 131.084 1382.09 Q131.084 1389.2 132.89 1392.76 Q134.719 1396.3 138.33 1396.3 Q141.964 1396.3 143.769 1392.76 Q145.598 1389.2 145.598 1382.09 Q145.598 1374.96 143.769 1371.42 Q141.964 1367.85 138.33 1367.85 M138.33 1364.15 Q144.14 1364.15 147.195 1368.76 Q150.274 1373.34 150.274 1382.09 Q150.274 1390.82 147.195 1395.42 Q144.14 1400.01 138.33 1400.01 Q132.519 1400.01 129.441 1395.42 Q126.385 1390.82 126.385 1382.09 Q126.385 1373.34 129.441 1368.76 Q132.519 1364.15 138.33 1364.15 Z" fill="#000000" fill-rule="nonzero" fill-opacity="1" /><path clip-path="url(#clip240)" d="M63.9319 1044.43 Q60.3208 1044.43 58.4921 1048 Q56.6865 1051.54 56.6865 1058.67 Q56.6865 1065.77 58.4921 1069.34 Q60.3208 1072.88 63.9319 1072.88 Q67.5661 1072.88 69.3717 1069.34 Q71.2004 1065.77 71.2004 1058.67 Q71.2004 1051.54 69.3717 1048 Q67.5661 1044.43 63.9319 1044.43 M63.9319 1040.73 Q69.742 1040.73 72.7976 1045.34 Q75.8763 1049.92 75.8763 1058.67 Q75.8763 1067.4 72.7976 1072 Q69.742 1076.59 63.9319 1076.59 Q58.1217 1076.59 55.043 1072 Q51.9875 1067.4 51.9875 1058.67 Q51.9875 1049.92 55.043 1045.34 Q58.1217 1040.73 63.9319 1040.73 Z" fill="#000000" fill-rule="nonzero" fill-opacity="1" /><path clip-path="url(#clip240)" d="M84.0938 1070.03 L88.978 1070.03 L88.978 1075.91 L84.0938 1075.91 L84.0938 1070.03 Z" fill="#000000" fill-rule="nonzero" fill-opacity="1" /><path clip-path="url(#clip240)" d="M103.191 1071.98 L119.51 1071.98 L119.51 1075.91 L97.566 1075.91 L97.566 1071.98 Q100.228 1069.22 104.811 1064.59 Q109.418 1059.94 110.598 1058.6 Q112.844 1056.08 113.723 1054.34 Q114.626 1052.58 114.626 1050.89 Q114.626 1048.14 112.682 1046.4 Q110.76 1044.66 107.658 1044.66 Q105.459 1044.66 103.006 1045.43 Q100.575 1046.19 97.7974 1047.74 L97.7974 1043.02 Q100.621 1041.89 103.075 1041.31 Q105.529 1040.73 107.566 1040.73 Q112.936 1040.73 116.131 1043.41 Q119.325 1046.1 119.325 1050.59 Q119.325 1052.72 118.515 1054.64 Q117.728 1056.54 115.621 1059.13 Q115.043 1059.8 111.941 1063.02 Q108.839 1066.21 103.191 1071.98 Z" fill="#000000" fill-rule="nonzero" fill-opacity="1" /><path clip-path="url(#clip240)" d="M129.371 1041.35 L147.728 1041.35 L147.728 1045.29 L133.654 1045.29 L133.654 1053.76 Q134.672 1053.41 135.691 1053.25 Q136.709 1053.07 137.728 1053.07 Q143.515 1053.07 146.894 1056.24 Q150.274 1059.41 150.274 1064.83 Q150.274 1070.4 146.802 1073.51 Q143.33 1076.59 137.01 1076.59 Q134.834 1076.59 132.566 1076.21 Q130.32 1075.84 127.913 1075.1 L127.913 1070.4 Q129.996 1071.54 132.219 1072.09 Q134.441 1072.65 136.918 1072.65 Q140.922 1072.65 143.26 1070.54 Q145.598 1068.44 145.598 1064.83 Q145.598 1061.21 143.26 1059.11 Q140.922 1057 136.918 1057 Q135.043 1057 133.168 1057.42 Q131.316 1057.84 129.371 1058.71 L129.371 1041.35 Z" fill="#000000" fill-rule="nonzero" fill-opacity="1" /><path clip-path="url(#clip240)" d="M62.9365 721.011 Q59.3254 721.011 57.4967 724.575 Q55.6912 728.117 55.6912 735.247 Q55.6912 742.353 57.4967 745.918 Q59.3254 749.46 62.9365 749.46 Q66.5707 749.46 68.3763 745.918 Q70.205 742.353 70.205 735.247 Q70.205 728.117 68.3763 724.575 Q66.5707 721.011 62.9365 721.011 M62.9365 717.307 Q68.7467 717.307 71.8022 721.913 Q74.8809 726.497 74.8809 735.247 Q74.8809 743.973 71.8022 748.58 Q68.7467 753.163 62.9365 753.163 Q57.1264 753.163 54.0477 748.58 Q50.9921 743.973 50.9921 735.247 Q50.9921 726.497 54.0477 721.913 Q57.1264 717.307 62.9365 717.307 Z" fill="#000000" fill-rule="nonzero" fill-opacity="1" /><path clip-path="url(#clip240)" d="M83.0984 746.612 L87.9827 746.612 L87.9827 752.492 L83.0984 752.492 L83.0984 746.612 Z" fill="#000000" fill-rule="nonzero" fill-opacity="1" /><path clip-path="url(#clip240)" d="M98.2141 717.932 L116.57 717.932 L116.57 721.867 L102.496 721.867 L102.496 730.339 Q103.515 729.992 104.534 729.83 Q105.552 729.645 106.571 729.645 Q112.358 729.645 115.737 732.816 Q119.117 735.987 119.117 741.404 Q119.117 746.983 115.645 750.085 Q112.172 753.163 105.853 753.163 Q103.677 753.163 101.409 752.793 Q99.1632 752.423 96.7558 751.682 L96.7558 746.983 Q98.8391 748.117 101.061 748.673 Q103.284 749.228 105.76 749.228 Q109.765 749.228 112.103 747.122 Q114.441 745.015 114.441 741.404 Q114.441 737.793 112.103 735.687 Q109.765 733.58 105.76 733.58 Q103.885 733.58 102.01 733.997 Q100.159 734.413 98.2141 735.293 L98.2141 717.932 Z" fill="#000000" fill-rule="nonzero" fill-opacity="1" /><path clip-path="url(#clip240)" d="M138.33 721.011 Q134.719 721.011 132.89 724.575 Q131.084 728.117 131.084 735.247 Q131.084 742.353 132.89 745.918 Q134.719 749.46 138.33 749.46 Q141.964 749.46 143.769 745.918 Q145.598 742.353 145.598 735.247 Q145.598 728.117 143.769 724.575 Q141.964 721.011 138.33 721.011 M138.33 717.307 Q144.14 717.307 147.195 721.913 Q150.274 726.497 150.274 735.247 Q150.274 743.973 147.195 748.58 Q144.14 753.163 138.33 753.163 Q132.519 753.163 129.441 748.58 Q126.385 743.973 126.385 735.247 Q126.385 726.497 129.441 721.913 Q132.519 717.307 138.33 717.307 Z" fill="#000000" fill-rule="nonzero" fill-opacity="1" /><path clip-path="url(#clip240)" d="M63.9319 397.589 Q60.3208 397.589 58.4921 401.154 Q56.6865 404.695 56.6865 411.825 Q56.6865 418.931 58.4921 422.496 Q60.3208 426.038 63.9319 426.038 Q67.5661 426.038 69.3717 422.496 Q71.2004 418.931 71.2004 411.825 Q71.2004 404.695 69.3717 401.154 Q67.5661 397.589 63.9319 397.589 M63.9319 393.885 Q69.742 393.885 72.7976 398.492 Q75.8763 403.075 75.8763 411.825 Q75.8763 420.552 72.7976 425.158 Q69.742 429.741 63.9319 429.741 Q58.1217 429.741 55.043 425.158 Q51.9875 420.552 51.9875 411.825 Q51.9875 403.075 55.043 398.492 Q58.1217 393.885 63.9319 393.885 Z" fill="#000000" fill-rule="nonzero" fill-opacity="1" /><path clip-path="url(#clip240)" d="M84.0938 423.191 L88.978 423.191 L88.978 429.07 L84.0938 429.07 L84.0938 423.191 Z" fill="#000000" fill-rule="nonzero" fill-opacity="1" /><path clip-path="url(#clip240)" d="M97.9826 394.51 L120.205 394.51 L120.205 396.501 L107.658 429.07 L102.774 429.07 L114.58 398.445 L97.9826 398.445 L97.9826 394.51 Z" fill="#000000" fill-rule="nonzero" fill-opacity="1" /><path clip-path="url(#clip240)" d="M129.371 394.51 L147.728 394.51 L147.728 398.445 L133.654 398.445 L133.654 406.917 Q134.672 406.57 135.691 406.408 Q136.709 406.223 137.728 406.223 Q143.515 406.223 146.894 409.394 Q150.274 412.566 150.274 417.982 Q150.274 423.561 146.802 426.663 Q143.33 429.741 137.01 429.741 Q134.834 429.741 132.566 429.371 Q130.32 429.001 127.913 428.26 L127.913 423.561 Q129.996 424.695 132.219 425.251 Q134.441 425.806 136.918 425.806 Q140.922 425.806 143.26 423.7 Q145.598 421.593 145.598 417.982 Q145.598 414.371 143.26 412.265 Q140.922 410.158 136.918 410.158 Q135.043 410.158 133.168 410.575 Q131.316 410.992 129.371 411.871 L129.371 394.51 Z" fill="#000000" fill-rule="nonzero" fill-opacity="1" /><path clip-path="url(#clip240)" d="M53.7467 101.713 L61.3856 101.713 L61.3856 75.3475 L53.0754 77.0142 L53.0754 72.755 L61.3393 71.0883 L66.0152 71.0883 L66.0152 101.713 L73.654 101.713 L73.654 105.648 L53.7467 105.648 L53.7467 101.713 Z" fill="#000000" fill-rule="nonzero" fill-opacity="1" /><path clip-path="url(#clip240)" d="M83.0984 99.7687 L87.9827 99.7687 L87.9827 105.648 L83.0984 105.648 L83.0984 99.7687 Z" fill="#000000" fill-rule="nonzero" fill-opacity="1" /><path clip-path="url(#clip240)" d="M108.168 74.167 Q104.557 74.167 102.728 77.7318 Q100.922 81.2734 100.922 88.403 Q100.922 95.5095 102.728 99.0743 Q104.557 102.616 108.168 102.616 Q111.802 102.616 113.608 99.0743 Q115.436 95.5095 115.436 88.403 Q115.436 81.2734 113.608 77.7318 Q111.802 74.167 108.168 74.167 M108.168 70.4633 Q113.978 70.4633 117.033 75.0698 Q120.112 79.6531 120.112 88.403 Q120.112 97.1298 117.033 101.736 Q113.978 106.32 108.168 106.32 Q102.358 106.32 99.2789 101.736 Q96.2234 97.1298 96.2234 88.403 Q96.2234 79.6531 99.2789 75.0698 Q102.358 70.4633 108.168 70.4633 Z" fill="#000000" fill-rule="nonzero" fill-opacity="1" /><path clip-path="url(#clip240)" d="M138.33 74.167 Q134.719 74.167 132.89 77.7318 Q131.084 81.2734 131.084 88.403 Q131.084 95.5095 132.89 99.0743 Q134.719 102.616 138.33 102.616 Q141.964 102.616 143.769 99.0743 Q145.598 95.5095 145.598 88.403 Q145.598 81.2734 143.769 77.7318 Q141.964 74.167 138.33 74.167 M138.33 70.4633 Q144.14 70.4633 147.195 75.0698 Q150.274 79.6531 150.274 88.403 Q150.274 97.1298 147.195 101.736 Q144.14 106.32 138.33 106.32 Q132.519 106.32 129.441 101.736 Q126.385 97.1298 126.385 88.403 Q126.385 79.6531 129.441 75.0698 Q132.519 70.4633 138.33 70.4633 Z" fill="#000000" fill-rule="nonzero" fill-opacity="1" /><polyline clip-path="url(#clip242)" style="stroke:#009af9; stroke-linecap:round; stroke-linejoin:round; stroke-width:8; stroke-opacity:1; fill:none" points="186.274,88.3683 186.274,88.5026 186.274,88.4638 186.274,88.4775 186.274,88.5004 186.274,88.3823 186.274,88.3324 186.274,88.3094 186.274,88.3395 186.274,88.0999 186.274,88.0794 186.274,88.406 186.274,88.2247 186.274,88.2389 186.274,87.8965 186.274,87.9217 186.274,87.6169 186.274,87.9103 186.274,87.4773 186.274,87.7961 186.274,87.7836 186.275,88.0992 186.275,88.0571 186.275,88.0213 186.275,88.0139 186.275,87.4276 186.275,87.4958 186.275,87.5773 186.275,87.2667 186.276,87.8302 186.276,88.2453 186.276,87.7458 186.276,87.5786 186.276,87.1684 186.277,86.3189 186.277,86.1857 186.278,87.4372 186.278,87.6939 186.278,87.4288 186.279,87.9383 186.28,87.5527 186.28,87.1766 186.281,87.1953 186.282,88.1522 186.283,91.2193 186.284,93.0648 186.286,95.1369 186.287,94.5567 186.289,95.7657 186.29,94.9989 186.292,95.8275 186.295,97.6737 186.297,99.4714 186.3,102.332 186.304,104.168 186.307,102.763 186.312,104.096 186.316,97.5662 186.321,94.4278 186.327,97.4428 186.334,101.126 186.342,108.963 186.35,107.73 186.36,104.853 186.37,101.259 186.382,95.4987 186.396,95.0402 186.411,96.2799 186.428,100.999 186.448,109.579 186.469,117.275 186.494,115.687 186.521,122.443 186.552,116.195 186.587,126.867 186.626,140.264 186.67,138.928 186.719,146.528 186.775,157.115 186.838,168.998 186.908,167.482 186.988,197.631 187.077,203.957 187.177,224.718 187.29,233.052 187.417,251.661 187.56,257.61 187.721,275.955 187.901,273.75 188.105,311.771 188.334,314.007 188.591,335.8 188.881,360.178 189.207,386.466 189.573,374.414 189.986,410.527 190.45,416.134 190.972,434.922 191.559,462.311 192.219,518.343 192.962,526.457 193.799,561.082 194.739,628.586 195.797,743.044 196.988,741.933 198.327,771.372 199.834,826.602 201.528,839.441 203.435,966.894 205.58,968.735 207.994,967.559 210.709,1028.38 213.763,1044.04 217.199,1031.39 221.065,1067.3 225.414,1008.36 230.306,1076.31 234.632,1126.01 239.498,1145.01 243.558,1159.51 248.126,1119.15 252.55,1174.26 257.433,1226.65 260.839,1151.93 264.671,1135.01 268.983,1139.25 273.158,1156.24 277.855,1148.71 281.822,1190.23 286.284,1177.55 290.233,1211.49 294.676,1203 298.471,1192.16 302.741,1204.6 306.581,1191.26 310.9,1236.3 314.287,1182.09 318.096,1198.45 321.902,1088.56 326.045,1145.93 330.705,1158.5 334.411,1088.26 338.58,1103.66 343.171,1224.66 346.594,1218.98 350.445,1197.27 354.292,1143.52 358.025,1230.6 362.226,1136.42 365.946,1159.59 370.132,1244.9 373.066,1195.35 376.366,1206.23 379.996,1131.28 383.119,1100.22 386.633,1119.93 390.586,1140.15 394.115,1159.4 398.085,1155.96 401.633,1139.96 405.625,1221.58 407.998,1158.99 410.668,1121.01 413.672,1191.27 416.679,1228.01 420.062,1203.51 423.481,1176.81 427.329,1139.95 430.978,1183.38 435.083,1133.8 438.799,1142.8 442.98,1124.16 446.553,1130.55 450.573,1089.16 454.278,1021.98 458.446,1116.94 461.772,1089.12 465.513,1026.79 468.505,1038.24 471.872,1078.73 475.473,1084.76 479.245,1093.23 483.14,1089.41 487.171,1075.67 491.155,1080.86 495.255,1037.63 499.597,1015 503.52,959.952 507.932,988.256 511.452,950.391 515.412,1033.96 518.558,1024.37 522.096,1119.34 525.185,1108.83 528.66,1077.17 532.174,1041.55 532.907,1041.31 536.86,1037.49 541.306,951.516 546.309,855.11 551.937,888.695 557.108,933.763 562.926,938.514 567.739,886.21 573.155,858.212 578.636,771.504 584.802,801.17 589.861,815.4 595.552,728.669 601.891,727.307 607.308,667.499 613.401,674.595 618.863,638.608 625.008,653.968 630.42,670.336 636.508,685.122 641.714,672.352 647.572,613.415 653.607,568.733 660.397,525.022 666.412,510.945 673.178,426.156 680.184,343.96 688.066,268.756 695.884,220.472 704.679,210.557 711.957,161.831 720.145,149.922 728.616,169.007 737.261,168.524 746.803,195.917 754.358,234.681 762.857,271.882 769.573,322.092 777.129,383.981 783.029,399.769 789.667,460.279 795.356,487.907 801.755,551.603 807.057,642.932 813.022,677.88 817.931,665.319 823.453,715.968 828.299,814.437 833.751,871.991 837.971,864.571 842.719,873.89 847.226,941.874 852.296,980.257 856.301,1020.75 860.806,991.954 865.038,1023.39 869.8,1072.78 873.054,1074.5 876.715,1063.49 880.833,1080.6 884.525,1049.02 888.679,1014.92 892.87,1045.28 897.475,1080.12 901.307,1096.42 905.619,1043.77 909.754,1092.52 914.406,1075.76 918.129,1133.9 922.317,1124.7 925.863,1084.28 929.853,1123.26 933.439,1093.94 937.474,1045.28 941.439,1080.47 945.9,1089.53 949.462,1119.12 953.468,1055.03 957.35,1121.65 961.716,1143.2 965.004,1167.52 968.703,1179.3 972.132,1193.69 975.99,1169.32 979.451,1183.34 983.344,1185.65 986.723,1083.76 990.523,1101.85 994.608,1092.26 998.398,1110.53 1002.66,1140.2 1006.06,1174.5 1009.89,1207.96 1013.12,1241.05 1016.76,1208.64 1020.59,1176.25 1024.26,1188.16 1027.92,1086.15 1031.19,1130.77 1034.88,1152.03 1038.15,1124.76 1041.83,1134.13 1045.16,1158.44 1048.31,1125 1052.04,1115.81 1056.24,1221.26 1059.37,1144.92 1062.89,1187.33 1066.85,1202.26 1070.99,1139.95 1075.66,1213.95 1079.66,1193.95 1084.17,1095.89 1088.55,1130.28 1093.48,1050.05 1097.34,1049.69 1101.69,1073.99 1106.53,1166.1 1110.49,1123.67 1114.96,1144 1119.1,1122.69 1123.76,1089.47 1128.29,1048.21 1133.39,1131.76 1137.33,1126.13 1141.75,1136.19 1145.86,1080.69 1150.49,1113.26 1154.85,1078.04 1159.75,1100.28 1163.72,1087.4 1168.18,1023.75 1172.86,1106.63 1177.08,1159.02 1181.82,1183.66 1185.43,1157.58 1189.48,1139.76 1193.47,1120.44 1197.97,1115.47 1201.84,1074.88 1206.19,1134.33 1209.71,1134.26 1213.67,1081.49 1217.81,1054.69 1221.98,1045.07 1226.68,1024.12 1230.64,930.508 1235.11,943.828 1239.4,955.742 1244.24,928.64 1248.39,875.048 1253.06,911.629 1257.05,876.272 1261.54,835.844 1265.96,838.186 1270.93,795.275 1275.35,775.824 1280.31,788.42 1284.47,819.152 1289.15,780.699 1293.55,779.571 1298.49,749.951 1302.81,701.573 1307.68,679.313 1312.06,686.268 1316.99,664.695 1321.38,625.4 1326.32,629.137 1330.61,595.752 1335.44,542.235 1340.19,546.894 1345.53,483.564 1350.33,490.309 1355.73,486.662 1360.15,450.279 1365.12,393.682 1370.21,372.359 1375.66,341.379 1380.91,322.247 1386.81,282.637 1391.98,280.654 1397.79,279.695 1402.55,263.267 1407.91,267.53 1412.72,247.96 1418.12,255.407 1422.94,283.402 1428.36,290.745 1433.1,285.068 1438.43,358.973 1443.15,344.644 1448.45,349.442 1453.07,396.062 1458.26,427.35 1462.71,411.253 1467.71,389.734 1472.46,387.295 1477.8,420.374 1482.25,404.05 1487.25,519.955 1491.37,617.267 1496,606.62 1500.22,628.055 1504.98,714.888 1508.89,759.563 1513.29,825.318 1517.03,835.584 1521.25,856.682 1525.02,810.707 1529.25,866.151 1533.06,837.97 1537.35,886.87 1541.16,895.59 1545.46,935.632 1549.01,932.68 1553.01,949.605 1555.93,931.263 1559.5,936.075 1563.52,996.032 1568.04,972.359 1573.12,1024.71 1577.78,938.406 1583.01,1031.41 1587.64,1071.92 1592.84,1155.34 1596.76,1165.34 1601.17,1158.36 1605.43,1195.16 1610.13,1142.8 1614.77,1087.49 1620,1111.4 1624.08,1080.22 1628.67,1111.88 1632.87,1129.64 1637.58,1147.15 1641.56,1190.04 1646.03,1147.25 1650.68,1124.2 1655.41,1091.47 1660.28,1122.34 1664.81,1145.17 1669.9,1141.46 1673.79,1163.28 1678.17,1132.14 1682.14,1124.39 1686.61,1190.95 1690.21,1090.56 1694.27,1149.22 1698.12,1201.16 1702.46,1219.47 1706.05,1202.09 1710.08,1142.17 1713.8,1191.09 1717.98,1165.77 1721.85,1193.57 1726.2,1190.62 1729.7,1127.17 1732.68,1176.78 1736.03,1211.6 1739.62,1195.09 1743.43,1131.94 1747.72,1156.11 1751.31,1123.8 1755.36,1173.48 1758.9,1155.9 1762.88,1115.82 1766.47,1141.38 1770.52,1108.39 1774.31,1095.94 1778.58,1118.34 1782.19,1187.39 1786.25,1164.25 1790.05,1234.85 1794.3,1174.06 1797.89,1175.8 1801.94,1176.06 1805.27,1185.17 1809.02,1189.62 1812.39,1164.27 1816.19,1111.98 1819.9,1074.49 1824.07,1027 1827.22,1012.44 1830.76,1037.68 1834.39,1088 1838.2,1032.41 1842.45,1010.24 1846.26,989.036 1850.55,975.874 1854.17,943.949 1858.25,941.138 1861.79,1007.63 1865.77,969.797 1869.47,960.059 1873.65,999.856 1877.17,995.936 1881.14,1109.46 1884.26,1113.16 1887.77,1096.88 1891.24,1118.06 1895.15,1082.25 1898.65,1072.76 1899.92,1062.19 1903.86,993.655 1908.3,967.239 1913.29,929.23 1918.87,931.457 1923.95,993.138 1929.66,947.185 1934.77,931.936 1940.51,884.835 1945.81,879.301 1951.77,903.087 1956.49,937.203 1961.81,912.234 1966.73,846.553 1972.26,799.912 1977.66,672.361 1983.73,669.873 1989.08,640.521 1995.1,670.805 2000.3,655.929 2006.16,555.757 2012.74,557.437 2018.21,484.531 2024.36,465.802 2030.51,443.29 2037.43,356.708 2045.21,294.744 2052.52,271.846 2060.73,223.658 2068.74,182.953 2077.74,162.251 2085.94,152.806 2095.15,181.724 2102.36,213.739 2110.47,306.216 2116.67,334.117 2123.64,305.617 2131.2,399.08 2136.91,425.764 2143.34,460.804 2149.12,565.858 2155.63,578.097 2160.91,604.579 2166.85,723.986 2171.36,751.76 2176.43,734.527 2181.5,729.798 2187.2,820.784 2191.55,779.987 2196.45,786.689 2201.21,879.655 2206.57,924.704 2210.61,934.949 2215.16,962.329 2219.34,937.832 2224.04,1018.7 2227.73,1015.56 2231.89,986.348 2236.18,1006.16 2240.8,1100.74 2243.98,1068.44 2247.56,1064.4 2251.53,1007.48 2256,999.13 2259.97,1004.2 2264.43,1055.28 2268.11,1076.45 2272.25,1146.84 2275.67,1138.81 2279.52,1124.52 2283.14,1153.39 2287.2,1160.65 2290.67,1170.29 2294.58,1084.56 2298.63,1148.28 2301.42,1166.36 2304.55,1091.55 2308.08,1135.2 2311.61,1198.05 2315.58,1177.78 2318.87,1118.98 2322.57,1131.42 2326.23,1126.41 2330.34,1151.2 2333.74,1154.8 2337.57,1130.61 2341.08,1114.86 2345.04,1162.98 2348.42,1177.55 2352.21,1152.73 2352.76,1172.57 "/>
<polyline clip-path="url(#clip242)" style="stroke:#e26f46; stroke-linecap:round; stroke-linejoin:round; stroke-width:8; stroke-opacity:1; fill:none" points="186.274,1382.06 186.274,1381.92 186.274,1381.96 186.274,1381.95 186.274,1381.92 186.274,1382.04 186.274,1382.09 186.274,1382.11 186.274,1382.08 186.274,1382.32 186.274,1382.34 186.274,1382.02 186.274,1382.2 186.274,1382.18 186.274,1382.53 186.274,1382.5 186.274,1382.81 186.274,1382.51 186.274,1382.95 186.274,1382.63 186.274,1382.64 186.275,1382.32 186.275,1382.37 186.275,1382.4 186.275,1382.41 186.275,1383 186.275,1382.93 186.275,1382.85 186.275,1383.16 186.276,1382.59 186.276,1382.18 186.276,1382.68 186.276,1382.85 186.276,1383.26 186.277,1384.11 186.277,1384.24 186.278,1382.99 186.278,1382.73 186.278,1383 186.279,1382.49 186.28,1382.87 186.28,1383.25 186.281,1383.23 186.282,1382.27 186.283,1379.2 186.284,1377.36 186.286,1375.29 186.287,1375.87 186.289,1374.66 186.29,1375.42 186.292,1374.6 186.295,1372.75 186.297,1370.95 186.3,1368.09 186.304,1366.26 186.307,1367.66 186.312,1366.33 186.316,1372.86 186.321,1376 186.327,1372.98 186.334,1369.3 186.342,1361.46 186.35,1362.69 186.36,1365.57 186.37,1369.16 186.382,1374.93 186.396,1375.38 186.411,1374.14 186.428,1369.42 186.448,1360.84 186.469,1353.15 186.494,1354.74 186.521,1347.98 186.552,1354.23 186.587,1343.56 186.626,1330.16 186.67,1331.5 186.719,1323.9 186.775,1313.31 186.838,1301.43 186.908,1302.94 186.988,1272.79 187.077,1266.47 187.177,1245.71 187.29,1237.37 187.417,1218.76 187.56,1212.81 187.721,1194.47 187.901,1196.67 188.105,1158.65 188.334,1156.42 188.591,1134.62 188.881,1110.25 189.207,1083.96 189.573,1096.01 189.986,1059.9 190.45,1054.29 190.972,1035.5 191.559,1008.11 192.219,952.081 192.962,943.967 193.799,909.342 194.739,841.838 195.797,727.38 196.988,728.49 198.327,699.052 199.834,643.822 201.528,630.983 203.435,503.53 205.58,501.689 207.994,502.865 210.709,442.042 213.763,426.389 217.199,439.029 221.065,403.121 225.414,462.062 230.306,394.114 234.632,344.413 239.498,325.41 243.558,310.913 248.126,351.276 252.55,296.163 257.433,243.776 260.839,318.497 264.671,335.415 268.983,331.175 273.158,314.187 277.855,321.711 281.822,280.195 286.284,292.877 290.233,258.937 294.676,267.425 298.471,278.268 302.741,265.827 306.581,279.164 310.9,234.127 314.287,288.33 318.096,271.977 321.902,381.865 326.045,324.492 330.705,311.925 334.411,382.162 338.58,366.762 343.171,245.765 346.594,251.44 350.445,273.152 354.292,326.904 358.025,239.825 362.226,334.005 365.946,310.832 370.132,225.522 373.066,275.077 376.366,264.19 379.996,339.144 383.119,370.205 386.633,350.491 390.586,330.272 394.115,311.024 398.085,314.459 401.633,330.461 405.625,248.843 407.998,311.43 410.668,349.418 413.672,279.152 416.679,242.41 420.062,266.918 423.481,293.612 427.329,330.479 430.978,287.04 435.083,336.627 438.799,327.621 442.98,346.266 446.553,339.877 450.573,381.263 454.278,448.443 458.446,353.485 461.772,381.308 465.513,443.63 468.505,432.185 471.872,391.694 475.473,385.661 479.245,377.196 483.14,381.016 487.171,394.757 491.155,389.568 495.255,432.789 499.597,455.422 503.52,510.471 507.932,482.167 511.452,520.033 515.412,436.463 518.558,446.055 522.096,351.087 525.185,361.597 528.66,393.256 532.174,428.878 532.907,429.116 536.86,432.933 541.306,518.908 546.309,615.314 551.937,581.729 557.108,536.661 562.926,531.91 567.739,584.214 573.155,612.212 578.636,698.92 584.802,669.254 589.861,655.024 595.552,741.754 601.891,743.117 607.308,802.925 613.401,795.829 618.863,831.816 625.008,816.456 630.42,800.088 636.508,785.302 641.714,798.072 647.572,857.009 653.607,901.691 660.397,945.402 666.412,959.479 673.178,1044.27 680.184,1126.46 688.066,1201.67 695.884,1249.95 704.679,1259.87 711.957,1308.59 720.145,1320.5 728.616,1301.42 737.261,1301.9 746.803,1274.51 754.358,1235.74 762.857,1198.54 769.573,1148.33 777.129,1086.44 783.029,1070.66 789.667,1010.14 795.356,982.517 801.755,918.821 807.057,827.492 813.022,792.544 817.931,805.105 823.453,754.456 828.299,655.987 833.751,598.433 837.971,605.853 842.719,596.534 847.226,528.55 852.296,490.167 856.301,449.673 860.806,478.47 865.038,447.038 869.8,397.641 873.054,395.923 876.715,406.935 880.833,389.827 884.525,421.405 888.679,455.509 892.87,425.147 897.475,390.305 901.307,373.999 905.619,426.654 909.754,377.901 914.406,394.661 918.129,336.528 922.317,345.727 925.863,386.147 929.853,347.161 933.439,376.48 937.474,425.141 941.439,389.959 945.9,380.896 949.462,351.302 953.468,415.392 957.35,348.778 961.716,327.229 965.004,302.9 968.703,291.125 972.132,276.731 975.99,301.102 979.451,287.086 983.344,284.778 986.723,386.663 990.523,368.572 994.608,378.168 998.398,359.899 1002.66,330.22 1006.06,295.929 1009.89,262.466 1013.12,229.371 1016.76,261.782 1020.59,294.169 1024.26,282.262 1027.92,384.275 1031.19,339.65 1034.88,318.391 1038.15,345.66 1041.83,336.297 1045.16,311.982 1048.31,345.423 1052.04,354.616 1056.24,249.168 1059.37,325.501 1062.89,283.091 1066.85,268.162 1070.99,330.476 1075.66,256.474 1079.66,276.474 1084.17,374.532 1088.55,340.146 1093.48,420.375 1097.34,420.735 1101.69,396.437 1106.53,304.322 1110.49,346.752 1114.96,326.422 1119.1,347.732 1123.76,380.949 1128.29,422.217 1133.39,338.667 1137.33,344.29 1141.75,334.233 1145.86,389.736 1150.49,357.167 1154.85,392.379 1159.75,370.14 1163.72,383.022 1168.18,446.674 1172.86,363.796 1177.08,311.404 1181.82,286.767 1185.43,312.844 1189.48,330.664 1193.47,349.986 1197.97,354.949 1201.84,395.544 1206.19,336.094 1209.71,336.165 1213.67,388.93 1217.81,415.737 1221.98,425.35 1226.68,446.307 1230.64,539.916 1235.11,526.596 1239.4,514.682 1244.24,541.784 1248.39,595.376 1253.06,558.795 1257.05,594.152 1261.54,634.58 1265.96,632.238 1270.93,675.149 1275.35,694.6 1280.31,682.004 1284.47,651.272 1289.15,689.725 1293.55,690.853 1298.49,720.473 1302.81,768.851 1307.68,791.111 1312.06,784.156 1316.99,805.728 1321.38,845.024 1326.32,841.287 1330.61,874.672 1335.44,928.189 1340.19,923.53 1345.53,986.86 1350.33,980.114 1355.73,983.761 1360.15,1020.15 1365.12,1076.74 1370.21,1098.06 1375.66,1129.04 1380.91,1148.18 1386.81,1187.79 1391.98,1189.77 1397.79,1190.73 1402.55,1207.16 1407.91,1202.89 1412.72,1222.46 1418.12,1215.02 1422.94,1187.02 1428.36,1179.68 1433.1,1185.36 1438.43,1111.45 1443.15,1125.78 1448.45,1120.98 1453.07,1074.36 1458.26,1043.07 1462.71,1059.17 1467.71,1080.69 1472.46,1083.13 1477.8,1050.05 1482.25,1066.37 1487.25,950.469 1491.37,853.157 1496,863.804 1500.22,842.369 1504.98,755.536 1508.89,710.861 1513.29,645.106 1517.03,634.84 1521.25,613.742 1525.02,659.717 1529.25,604.273 1533.06,632.454 1537.35,583.554 1541.16,574.834 1545.46,534.792 1549.01,537.744 1553.01,520.819 1555.93,539.161 1559.5,534.349 1563.52,474.392 1568.04,498.065 1573.12,445.715 1577.78,532.018 1583.01,439.015 1587.64,398.505 1592.84,315.081 1596.76,305.084 1601.17,312.06 1605.43,275.265 1610.13,327.626 1614.77,382.933 1620,359.026 1624.08,390.2 1628.67,358.541 1632.87,340.78 1637.58,323.275 1641.56,280.386 1646.03,323.175 1650.68,346.228 1655.41,378.951 1660.28,348.085 1664.81,325.251 1669.9,328.963 1673.79,307.141 1678.17,338.279 1682.14,346.033 1686.61,279.473 1690.21,379.869 1694.27,321.207 1698.12,269.263 1702.46,250.954 1706.05,268.337 1710.08,328.252 1713.8,279.338 1717.98,304.656 1721.85,276.852 1726.2,279.799 1729.7,343.255 1732.68,293.648 1736.03,258.827 1739.62,275.331 1743.43,338.488 1747.72,314.311 1751.31,346.629 1755.36,296.943 1758.9,314.52 1762.88,354.604 1766.47,329.042 1770.52,362.034 1774.31,374.485 1778.58,352.082 1782.19,283.032 1786.25,306.175 1790.05,235.574 1794.3,296.367 1797.89,294.622 1801.94,294.369 1805.27,285.254 1809.02,280.802 1812.39,306.159 1816.19,358.448 1819.9,395.939 1824.07,443.419 1827.22,457.979 1830.76,432.741 1834.39,382.425 1838.2,438.017 1842.45,460.181 1846.26,481.388 1850.55,494.55 1854.17,526.475 1858.25,529.286 1861.79,462.799 1865.77,500.627 1869.47,510.365 1873.65,470.568 1877.17,474.488 1881.14,360.964 1884.26,357.263 1887.77,373.545 1891.24,352.361 1895.15,388.177 1898.65,397.659 1899.92,408.231 1903.86,476.769 1908.3,503.185 1913.29,541.194 1918.87,538.966 1923.95,477.286 1929.66,523.239 1934.77,538.488 1940.51,585.589 1945.81,591.123 1951.77,567.337 1956.49,533.221 1961.81,558.19 1966.73,623.871 1972.26,670.512 1977.66,798.063 1983.73,800.551 1989.08,829.903 1995.1,799.619 2000.3,814.495 2006.16,914.667 2012.74,912.987 2018.21,985.893 2024.36,1004.62 2030.51,1027.13 2037.43,1113.72 2045.21,1175.68 2052.52,1198.58 2060.73,1246.77 2068.74,1287.47 2077.74,1308.17 2085.94,1317.62 2095.15,1288.7 2102.36,1256.68 2110.47,1164.21 2116.67,1136.31 2123.64,1164.81 2131.2,1071.34 2136.91,1044.66 2143.34,1009.62 2149.12,904.566 2155.63,892.327 2160.91,865.845 2166.85,746.438 2171.36,718.664 2176.43,735.897 2181.5,740.626 2187.2,649.64 2191.55,690.437 2196.45,683.735 2201.21,590.769 2206.57,545.72 2210.61,535.474 2215.16,508.095 2219.34,532.592 2224.04,451.719 2227.73,454.866 2231.89,484.076 2236.18,464.268 2240.8,369.683 2243.98,401.987 2247.56,406.026 2251.53,462.943 2256,471.294 2259.97,466.225 2264.43,415.14 2268.11,393.978 2272.25,323.58 2275.67,331.611 2279.52,345.901 2283.14,317.032 2287.2,309.774 2290.67,300.137 2294.58,385.869 2298.63,322.142 2301.42,304.065 2304.55,378.869 2308.08,335.221 2311.61,272.371 2315.58,292.644 2318.87,351.448 2322.57,339.007 2326.23,344.012 2330.34,319.227 2333.74,315.622 2337.57,339.813 2341.08,355.568 2345.04,307.441 2348.42,292.873 2352.21,317.698 2352.76,297.859 "/>
<polyline clip-path="url(#clip242)" style="stroke:#3da44d; stroke-linecap:round; stroke-linejoin:round; stroke-width:8; stroke-opacity:1; fill:none" points="186.274,735.212 186.274,735.212 186.274,735.212 186.274,735.212 186.274,735.212 186.274,735.212 186.274,735.212 186.274,735.212 186.274,735.212 186.274,735.212 186.274,735.212 186.274,735.212 186.274,735.212 186.274,735.212 186.274,735.212 186.274,735.212 186.274,735.212 186.274,735.212 186.274,735.212 186.274,735.212 186.274,735.212 186.275,735.212 186.275,735.212 186.275,735.212 186.275,735.212 186.275,735.212 186.275,735.212 186.275,735.212 186.275,735.212 186.276,735.212 186.276,735.212 186.276,735.212 186.276,735.212 186.276,735.212 186.277,735.212 186.277,735.212 186.278,735.212 186.278,735.212 186.278,735.212 186.279,735.212 186.28,735.212 186.28,735.212 186.281,735.212 186.282,735.212 186.283,735.212 186.284,735.212 186.286,735.212 186.287,735.212 186.289,735.212 186.29,735.212 186.292,735.212 186.295,735.212 186.297,735.212 186.3,735.212 186.304,735.212 186.307,735.212 186.312,735.211 186.316,735.211 186.321,735.211 186.327,735.211 186.334,735.211 186.342,735.211 186.35,735.21 186.36,735.21 186.37,735.21 186.382,735.21 186.396,735.209 186.411,735.209 186.428,735.209 186.448,735.208 186.469,735.207 186.494,735.206 186.521,735.205 186.552,735.203 186.587,735.201 186.626,735.197 186.67,735.193 186.719,735.188 186.775,735.182 186.838,735.173 186.908,735.163 186.988,735.149 187.077,735.13 187.177,735.107 187.29,735.078 187.417,735.042 187.56,734.998 187.721,734.945 187.901,734.883 188.105,734.806 188.334,734.711 188.591,734.599 188.881,734.46 189.207,734.288 189.573,734.091 189.986,733.859 190.45,733.581 190.972,733.256 191.559,732.866 192.219,732.375 192.962,731.78 193.799,731.077 194.739,730.199 195.797,729.032 196.988,727.594 198.327,725.942 199.834,723.965 201.528,721.635 203.435,718.767 205.58,715.284 207.994,711.364 210.709,706.805 213.763,701.461 217.199,695.438 221.065,688.58 225.414,680.956 230.306,672.34 234.632,664.251 239.498,654.845 243.558,646.87 248.126,638.007 252.55,629.362 257.433,619.338 260.839,612.413 264.671,604.946 268.983,596.598 273.158,588.432 277.855,579.203 281.822,571.285 286.284,562.259 290.233,554.194 294.676,545.016 298.471,537.243 302.741,528.492 306.581,520.627 310.9,511.651 314.287,504.644 318.096,496.896 321.902,489.479 326.045,481.611 330.705,472.457 334.411,465.376 338.58,457.621 343.171,448.504 346.594,441.34 350.445,433.379 354.292,425.694 358.025,418.12 362.226,409.625 365.946,402.347 370.132,393.74 373.066,387.609 376.366,380.831 379.996,373.59 383.119,367.664 386.633,361.037 390.586,353.434 394.115,346.518 398.085,338.68 401.633,331.739 405.625,323.688 407.998,318.86 410.668,313.675 413.672,307.753 416.679,301.528 420.062,294.487 423.481,287.53 427.329,279.93 430.978,272.699 435.083,264.586 438.799,257.382 442.98,249.313 446.553,242.459 450.573,234.877 454.278,228.26 458.446,220.711 461.772,214.482 465.513,207.785 468.505,202.568 471.872,196.539 475.473,189.936 479.245,182.966 483.14,175.753 487.171,168.355 491.155,161.072 495.255,153.724 499.597,146.203 503.52,139.691 507.932,132.476 511.452,126.749 515.412,120.141 518.558,114.675 522.096,108.253 525.185,102.403 528.66,95.9564 532.174,89.657 532.907,88.3683 536.86,728.271 541.306,720.831 546.309,713.303 551.937,705.162 557.108,697.306 562.926,688.202 567.739,680.877 573.155,673.04 578.636,665.688 584.802,657.742 589.861,651.018 595.552,643.835 601.891,636.348 607.308,630.236 613.401,623.681 618.863,617.939 625.008,611.61 630.42,605.883 636.508,599.258 641.714,593.583 647.572,587.586 653.607,581.984 660.397,576.236 666.412,571.462 673.178,566.712 680.184,562.875 688.066,559.702 695.884,557.447 704.679,555.382 711.957,554.068 720.145,553.047 728.616,551.935 737.261,550.652 746.803,548.998 754.358,547.228 762.857,544.64 769.573,542.065 777.129,538.373 783.029,535.067 789.667,530.88 795.356,526.829 801.755,521.732 807.057,516.764 813.022,510.464 817.931,505.178 823.453,499.038 828.299,492.982 833.751,485.384 837.971,479.305 842.719,472.46 847.226,465.646 852.296,457.477 856.301,450.733 860.806,443.097 865.038,435.914 869.8,427.476 873.054,421.557 876.715,414.929 880.833,407.45 884.525,400.789 888.679,393.552 892.87,386.266 897.475,377.983 901.307,370.908 905.619,363.091 909.754,355.612 914.406,347.06 918.129,340.072 922.317,332.022 925.863,325.371 929.853,317.893 933.439,311.138 937.474,303.828 941.439,296.694 945.9,288.486 949.462,281.804 953.468,274.415 957.35,267.252 961.716,258.835 965.004,252.358 968.703,244.948 972.132,237.996 975.99,230.21 979.451,223.258 983.344,215.378 986.723,208.851 990.523,201.803 994.608,194.195 998.398,187.108 1002.66,178.945 1006.06,172.236 1009.89,164.449 1013.12,157.664 1016.76,150.028 1020.59,142.221 1024.26,134.811 1027.92,127.727 1031.19,121.554 1034.88,114.386 1038.15,108.041 1041.83,100.964 1045.16,94.4798 1048.31,88.3683 1052.04,728.094 1056.24,719.729 1059.37,713.407 1062.89,706.404 1066.85,698.318 1070.99,690.026 1075.66,680.656 1079.66,672.401 1084.17,663.606 1088.55,655.321 1093.48,646.206 1097.34,639.344 1101.69,631.53 1106.53,622.317 1110.49,614.583 1114.96,605.975 1119.1,597.982 1123.76,589.224 1128.29,581.014 1133.39,571.58 1137.33,564.023 1141.75,555.505 1145.86,547.764 1150.49,539.156 1154.85,531.045 1159.75,521.981 1163.72,514.616 1168.18,506.644 1172.86,498.218 1177.08,490.08 1181.82,480.588 1185.43,473.39 1189.48,465.459 1193.47,457.771 1197.97,449.223 1201.84,442.032 1206.19,433.866 1209.71,427.067 1213.67,419.611 1217.81,412.128 1221.98,404.721 1226.68,396.519 1230.64,390.007 1235.11,383.013 1239.4,376.182 1244.24,368.564 1248.39,362.326 1253.06,355.382 1257.05,349.447 1261.54,343.083 1265.96,336.973 1270.93,330.285 1275.35,324.6 1280.31,318.239 1284.47,312.758 1289.15,306.611 1293.55,300.995 1298.49,294.818 1302.81,289.722 1307.68,284.319 1312.06,279.511 1316.99,274.167 1321.38,269.645 1326.32,264.728 1330.61,260.57 1335.44,256.286 1340.19,252.285 1345.53,248.073 1350.33,244.54 1355.73,240.55 1360.15,237.446 1365.12,234.387 1370.21,231.617 1375.66,228.914 1380.91,226.554 1386.81,224.219 1391.98,222.376 1397.79,220.318 1402.55,218.707 1407.91,216.956 1412.72,215.453 1418.12,213.824 1422.94,212.214 1428.36,210.226 1433.1,208.479 1438.43,206.178 1443.15,203.886 1448.45,201.354 1453.07,198.932 1458.26,195.832 1462.71,193.113 1467.71,190.23 1472.46,187.598 1477.8,184.485 1482.25,181.824 1487.25,178.373 1491.37,174.723 1496,170.245 1500.22,166.12 1504.98,161.005 1508.89,156.322 1513.29,150.603 1517.03,145.468 1521.25,139.567 1525.02,134.381 1529.25,128.514 1533.06,123.144 1537.35,117.022 1541.16,111.363 1545.46,104.802 1549.01,99.251 1553.01,92.9552 1555.93,88.3683 1559.5,729.64 1563.52,723.131 1568.04,715.656 1573.12,707.114 1577.78,699.438 1583.01,690.771 1587.64,682.546 1592.84,672.696 1596.76,664.935 1601.17,656.191 1605.43,647.641 1610.13,638.261 1614.77,629.453 1620,619.698 1624.08,612.105 1628.67,603.564 1632.87,595.573 1637.58,586.432 1641.56,578.507 1646.03,569.588 1650.68,560.594 1655.41,551.689 1660.28,542.525 1664.81,533.792 1669.9,523.875 1673.79,516.224 1678.17,507.653 1682.14,500.031 1686.61,491.219 1690.21,484.213 1694.27,476.487 1698.12,468.757 1702.46,459.78 1706.05,452.344 1710.08,444.267 1713.8,436.864 1717.98,428.444 1721.85,420.656 1726.2,411.794 1729.7,404.867 1732.68,399.018 1736.03,392.178 1739.62,384.797 1743.43,377.232 1747.72,368.875 1751.31,361.888 1755.36,353.966 1758.9,346.934 1762.88,339.235 1766.47,332.332 1770.52,324.592 1774.31,317.495 1778.58,309.473 1782.19,302.377 1786.25,294.22 1790.05,286.416 1794.3,277.663 1797.89,270.453 1801.94,262.333 1805.27,255.615 1809.02,248.008 1812.39,241.227 1816.19,233.87 1819.9,226.989 1824.07,219.576 1827.22,214.164 1830.76,208.042 1834.39,201.513 1838.2,194.668 1842.45,187.352 1846.26,180.936 1850.55,173.858 1854.17,168.025 1858.25,161.591 1861.79,155.806 1865.77,149.193 1869.47,143.193 1873.65,136.329 1877.17,130.405 1881.14,123.34 1884.26,117.452 1887.77,110.868 1891.24,104.331 1895.15,97.0295 1898.65,90.6301 1899.92,88.3683 1903.86,728.373 1908.3,721.068 1913.29,713.147 1918.87,704.468 1923.95,696.278 1929.66,686.973 1934.77,678.947 1940.51,670.25 1945.81,662.489 1951.77,653.657 1956.49,646.415 1961.81,638.209 1966.73,631.01 1972.26,623.5 1977.66,617.046 1983.73,610.514 1989.08,604.913 1995.1,598.607 2000.3,593.082 2006.16,587.488 2012.74,581.795 2018.21,577.43 2024.36,573.04 2030.51,568.881 2037.43,564.898 2045.21,561.486 2052.52,558.856 2060.73,556.438 2068.74,554.739 2077.74,553.339 2085.94,552.292 2095.15,550.95 2102.36,549.498 2110.47,546.928 2116.67,544.277 2123.64,541.298 2131.2,537.611 2136.91,534.196 2143.34,529.986 2149.12,525.454 2155.63,519.643 2160.91,514.748 2166.85,508.432 2171.36,503.029 2176.43,496.902 2181.5,490.876 2187.2,483.643 2191.55,477.919 2196.45,471.636 2201.21,465.088 2206.57,457.038 2210.61,450.758 2215.16,443.534 2219.34,436.889 2224.04,429.169 2227.73,422.829 2231.89,415.82 2236.18,408.637 2240.8,400.398 2243.98,394.545 2247.56,388.08 2251.53,381.137 2256,373.596 2259.97,366.901 2264.43,359.136 2268.11,352.496 2272.25,344.678 2275.67,338.016 2279.52,330.601 2283.14,323.593 2287.2,315.573 2290.67,308.67 2294.58,301.178 2298.63,293.481 2301.42,287.985 2304.55,281.965 2308.08,275.295 2311.61,268.264 2315.58,260.198 2318.87,253.757 2322.57,246.672 2326.23,239.653 2330.34,231.682 2333.74,224.992 2337.57,217.538 2341.08,210.822 2345.04,203.15 2348.42,196.407 2352.21,188.855 2352.76,187.78 "/>
<path clip-path="url(#clip240)" d="M2012.83 1377.32 L2280.54 1377.32 L2280.54 1169.96 L2012.83 1169.96  Z" fill="#ffffff" fill-rule="evenodd" fill-opacity="1"/>
<polyline clip-path="url(#clip240)" style="stroke:#000000; stroke-linecap:round; stroke-linejoin:round; stroke-width:4; stroke-opacity:1; fill:none" points="2012.83,1377.32 2280.54,1377.32 2280.54,1169.96 2012.83,1169.96 2012.83,1377.32 "/>
<polyline clip-path="url(#clip240)" style="stroke:#009af9; stroke-linecap:round; stroke-linejoin:round; stroke-width:8; stroke-opacity:1; fill:none" points="2036.9,1221.8 2181.33,1221.8 "/>
<path clip-path="url(#clip240)" d="M2230.96 1234.14 L2230.96 1224.86 L2223.32 1224.86 L2223.32 1221.02 L2235.59 1221.02 L2235.59 1235.86 Q2232.88 1237.78 2229.62 1238.77 Q2226.35 1239.75 2222.65 1239.75 Q2214.55 1239.75 2209.96 1235.02 Q2205.4 1230.28 2205.4 1221.83 Q2205.4 1213.36 2209.96 1208.64 Q2214.55 1203.89 2222.65 1203.89 Q2226.03 1203.89 2229.06 1204.72 Q2232.12 1205.56 2234.69 1207.18 L2234.69 1212.15 Q2232.09 1209.96 2229.18 1208.84 Q2226.26 1207.73 2223.04 1207.73 Q2216.7 1207.73 2213.51 1211.27 Q2210.33 1214.82 2210.33 1221.83 Q2210.33 1228.82 2213.51 1232.36 Q2216.7 1235.9 2223.04 1235.9 Q2225.52 1235.9 2227.46 1235.49 Q2229.41 1235.05 2230.96 1234.14 Z" fill="#000000" fill-rule="nonzero" fill-opacity="1" /><polyline clip-path="url(#clip240)" style="stroke:#e26f46; stroke-linecap:round; stroke-linejoin:round; stroke-width:8; stroke-opacity:1; fill:none" points="2036.9,1273.64 2181.33,1273.64 "/>
<path clip-path="url(#clip240)" d="M2230.96 1285.98 L2230.96 1276.7 L2223.32 1276.7 L2223.32 1272.86 L2235.59 1272.86 L2235.59 1287.7 Q2232.88 1289.62 2229.62 1290.61 Q2226.35 1291.59 2222.65 1291.59 Q2214.55 1291.59 2209.96 1286.86 Q2205.4 1282.12 2205.4 1273.67 Q2205.4 1265.2 2209.96 1260.48 Q2214.55 1255.73 2222.65 1255.73 Q2226.03 1255.73 2229.06 1256.56 Q2232.12 1257.4 2234.69 1259.02 L2234.69 1263.99 Q2232.09 1261.8 2229.18 1260.68 Q2226.26 1259.57 2223.04 1259.57 Q2216.7 1259.57 2213.51 1263.11 Q2210.33 1266.66 2210.33 1273.67 Q2210.33 1280.66 2213.51 1284.2 Q2216.7 1287.74 2223.04 1287.74 Q2225.52 1287.74 2227.46 1287.33 Q2229.41 1286.89 2230.96 1285.98 Z" fill="#000000" fill-rule="nonzero" fill-opacity="1" /><path clip-path="url(#clip240)" d="M2245.36 1258.25 L2245.36 1265.52 L2249.06 1265.52 Q2251.12 1265.52 2252.23 1264.57 Q2253.37 1263.62 2253.37 1261.89 Q2253.37 1260.15 2252.23 1259.2 Q2251.12 1258.25 2249.06 1258.25 L2245.36 1258.25 M2242.42 1256.1 L2249.06 1256.1 Q2252.72 1256.1 2254.59 1257.56 Q2256.47 1259.04 2256.47 1261.89 Q2256.47 1264.73 2254.59 1266.22 Q2252.72 1267.67 2249.06 1267.67 L2245.36 1267.67 L2245.36 1275.45 L2242.42 1275.45 L2242.42 1256.1 Z" fill="#000000" fill-rule="nonzero" fill-opacity="1" /><polyline clip-path="url(#clip240)" style="stroke:#3da44d; stroke-linecap:round; stroke-linejoin:round; stroke-width:8; stroke-opacity:1; fill:none" points="2036.9,1325.48 2181.33,1325.48 "/>
<path clip-path="url(#clip240)" d="M2218.6 1342.76 L2205.4 1308.2 L2210.29 1308.2 L2221.24 1337.29 L2232.21 1308.2 L2237.07 1308.2 L2223.9 1342.76 L2218.6 1342.76 Z" fill="#000000" fill-rule="nonzero" fill-opacity="1" /></svg>
