<?xml version="1.0" encoding="utf-8"?>
<svg xmlns="http://www.w3.org/2000/svg" xmlns:xlink="http://www.w3.org/1999/xlink" width="800" height="400" viewBox="0 0 3200 1600">
<defs>
  <clipPath id="clip480">
    <rect x="0" y="0" width="3200" height="1600"/>
  </clipPath>
</defs>
<path clip-path="url(#clip480)" d="M0 1600 L3200 1600 L3200 0 L0 0  Z" fill="#ffffff" fill-rule="evenodd" fill-opacity="1"/>
<defs>
  <clipPath id="clip481">
    <rect x="640" y="0" width="2241" height="1600"/>
  </clipPath>
</defs>
<path clip-path="url(#clip480)" d="M164.598 1443.7 L3152.76 1443.7 L3152.76 47.2441 L164.598 47.2441  Z" fill="#ffffff" fill-rule="evenodd" fill-opacity="1"/>
<defs>
  <clipPath id="clip482">
    <rect x="164" y="47" width="2989" height="1397"/>
  </clipPath>
</defs>
<polyline clip-path="url(#clip482)" style="stroke:#000000; stroke-linecap:round; stroke-linejoin:round; stroke-width:2; stroke-opacity:0.1; fill:none" points="164.598,1443.7 164.598,47.2441 "/>
<polyline clip-path="url(#clip482)" style="stroke:#000000; stroke-linecap:round; stroke-linejoin:round; stroke-width:2; stroke-opacity:0.1; fill:none" points="762.23,1443.7 762.23,47.2441 "/>
<polyline clip-path="url(#clip482)" style="stroke:#000000; stroke-linecap:round; stroke-linejoin:round; stroke-width:2; stroke-opacity:0.1; fill:none" points="1359.86,1443.7 1359.86,47.2441 "/>
<polyline clip-path="url(#clip482)" style="stroke:#000000; stroke-linecap:round; stroke-linejoin:round; stroke-width:2; stroke-opacity:0.1; fill:none" points="1957.49,1443.7 1957.49,47.2441 "/>
<polyline clip-path="url(#clip482)" style="stroke:#000000; stroke-linecap:round; stroke-linejoin:round; stroke-width:2; stroke-opacity:0.1; fill:none" points="2555.12,1443.7 2555.12,47.2441 "/>
<polyline clip-path="url(#clip482)" style="stroke:#000000; stroke-linecap:round; stroke-linejoin:round; stroke-width:2; stroke-opacity:0.1; fill:none" points="3152.76,1443.7 3152.76,47.2441 "/>
<polyline clip-path="url(#clip482)" style="stroke:#000000; stroke-linecap:round; stroke-linejoin:round; stroke-width:2; stroke-opacity:0.1; fill:none" points="164.598,1443.7 164.598,47.2441 "/>
<polyline clip-path="url(#clip482)" style="stroke:#000000; stroke-linecap:round; stroke-linejoin:round; stroke-width:2; stroke-opacity:0.1; fill:none" points="762.23,1443.7 762.23,47.2441 "/>
<polyline clip-path="url(#clip482)" style="stroke:#000000; stroke-linecap:round; stroke-linejoin:round; stroke-width:2; stroke-opacity:0.1; fill:none" points="1359.86,1443.7 1359.86,47.2441 "/>
<polyline clip-path="url(#clip482)" style="stroke:#000000; stroke-linecap:round; stroke-linejoin:round; stroke-width:2; stroke-opacity:0.1; fill:none" points="1957.49,1443.7 1957.49,47.2441 "/>
<polyline clip-path="url(#clip482)" style="stroke:#000000; stroke-linecap:round; stroke-linejoin:round; stroke-width:2; stroke-opacity:0.1; fill:none" points="2555.12,1443.7 2555.12,47.2441 "/>
<polyline clip-path="url(#clip482)" style="stroke:#000000; stroke-linecap:round; stroke-linejoin:round; stroke-width:2; stroke-opacity:0.1; fill:none" points="3152.76,1443.7 3152.76,47.2441 "/>
<polyline clip-path="url(#clip480)" style="stroke:#000000; stroke-linecap:round; stroke-linejoin:round; stroke-width:4; stroke-opacity:1; fill:none" points="164.598,1443.7 3152.76,1443.7 "/>
<polyline clip-path="url(#clip480)" style="stroke:#000000; stroke-linecap:round; stroke-linejoin:round; stroke-width:4; stroke-opacity:1; fill:none" points="164.598,47.2441 3152.76,47.2441 "/>
<polyline clip-path="url(#clip480)" style="stroke:#000000; stroke-linecap:round; stroke-linejoin:round; stroke-width:4; stroke-opacity:1; fill:none" points="164.598,1443.7 164.598,1424.8 "/>
<polyline clip-path="url(#clip480)" style="stroke:#000000; stroke-linecap:round; stroke-linejoin:round; stroke-width:4; stroke-opacity:1; fill:none" points="762.23,1443.7 762.23,1424.8 "/>
<polyline clip-path="url(#clip480)" style="stroke:#000000; stroke-linecap:round; stroke-linejoin:round; stroke-width:4; stroke-opacity:1; fill:none" points="1359.86,1443.7 1359.86,1424.8 "/>
<polyline clip-path="url(#clip480)" style="stroke:#000000; stroke-linecap:round; stroke-linejoin:round; stroke-width:4; stroke-opacity:1; fill:none" points="1957.49,1443.7 1957.49,1424.8 "/>
<polyline clip-path="url(#clip480)" style="stroke:#000000; stroke-linecap:round; stroke-linejoin:round; stroke-width:4; stroke-opacity:1; fill:none" points="2555.12,1443.7 2555.12,1424.8 "/>
<polyline clip-path="url(#clip480)" style="stroke:#000000; stroke-linecap:round; stroke-linejoin:round; stroke-width:4; stroke-opacity:1; fill:none" points="3152.76,1443.7 3152.76,1424.8 "/>
<polyline clip-path="url(#clip480)" style="stroke:#000000; stroke-linecap:round; stroke-linejoin:round; stroke-width:4; stroke-opacity:1; fill:none" points="164.598,47.2441 164.598,66.1417 "/>
<polyline clip-path="url(#clip480)" style="stroke:#000000; stroke-linecap:round; stroke-linejoin:round; stroke-width:4; stroke-opacity:1; fill:none" points="762.23,47.2441 762.23,66.1417 "/>
<polyline clip-path="url(#clip480)" style="stroke:#000000; stroke-linecap:round; stroke-linejoin:round; stroke-width:4; stroke-opacity:1; fill:none" points="1359.86,47.2441 1359.86,66.1417 "/>
<polyline clip-path="url(#clip480)" style="stroke:#000000; stroke-linecap:round; stroke-linejoin:round; stroke-width:4; stroke-opacity:1; fill:none" points="1957.49,47.2441 1957.49,66.1417 "/>
<polyline clip-path="url(#clip480)" style="stroke:#000000; stroke-linecap:round; stroke-linejoin:round; stroke-width:4; stroke-opacity:1; fill:none" points="2555.12,47.2441 2555.12,66.1417 "/>
<polyline clip-path="url(#clip480)" style="stroke:#000000; stroke-linecap:round; stroke-linejoin:round; stroke-width:4; stroke-opacity:1; fill:none" points="3152.76,47.2441 3152.76,66.1417 "/>
<path clip-path="url(#clip480)" d="M164.598 1481.02 Q160.987 1481.02 159.158 1484.58 Q157.353 1488.12 157.353 1495.25 Q157.353 1502.36 159.158 1505.93 Q160.987 1509.47 164.598 1509.47 Q168.232 1509.47 170.038 1505.93 Q171.867 1502.36 171.867 1495.25 Q171.867 1488.12 170.038 1484.58 Q168.232 1481.02 164.598 1481.02 M164.598 1477.31 Q170.408 1477.31 173.464 1481.92 Q176.543 1486.5 176.543 1495.25 Q176.543 1503.98 173.464 1508.59 Q170.408 1513.17 164.598 1513.17 Q158.788 1513.17 155.709 1508.59 Q152.654 1503.98 152.654 1495.25 Q152.654 1486.5 155.709 1481.92 Q158.788 1477.31 164.598 1477.31 Z" fill="#000000" fill-rule="nonzero" fill-opacity="1" /><path clip-path="url(#clip480)" d="M756.883 1508.56 L773.202 1508.56 L773.202 1512.5 L751.258 1512.5 L751.258 1508.56 Q753.92 1505.81 758.503 1501.18 Q763.109 1496.53 764.29 1495.19 Q766.535 1492.66 767.415 1490.93 Q768.318 1489.17 768.318 1487.48 Q768.318 1484.72 766.373 1482.99 Q764.452 1481.25 761.35 1481.25 Q759.151 1481.25 756.697 1482.01 Q754.267 1482.78 751.489 1484.33 L751.489 1479.61 Q754.313 1478.47 756.767 1477.89 Q759.221 1477.31 761.258 1477.31 Q766.628 1477.31 769.822 1480 Q773.017 1482.69 773.017 1487.18 Q773.017 1489.31 772.207 1491.23 Q771.42 1493.12 769.313 1495.72 Q768.734 1496.39 765.633 1499.61 Q762.531 1502.8 756.883 1508.56 Z" fill="#000000" fill-rule="nonzero" fill-opacity="1" /><path clip-path="url(#clip480)" d="M1362.87 1482.01 L1351.07 1500.46 L1362.87 1500.46 L1362.87 1482.01 M1361.64 1477.94 L1367.52 1477.94 L1367.52 1500.46 L1372.45 1500.46 L1372.45 1504.35 L1367.52 1504.35 L1367.52 1512.5 L1362.87 1512.5 L1362.87 1504.35 L1347.27 1504.35 L1347.27 1499.84 L1361.64 1477.94 Z" fill="#000000" fill-rule="nonzero" fill-opacity="1" /><path clip-path="url(#clip480)" d="M1957.9 1493.36 Q1954.75 1493.36 1952.9 1495.51 Q1951.07 1497.66 1951.07 1501.41 Q1951.07 1505.14 1952.9 1507.31 Q1954.75 1509.47 1957.9 1509.47 Q1961.05 1509.47 1962.87 1507.31 Q1964.73 1505.14 1964.73 1501.41 Q1964.73 1497.66 1962.87 1495.51 Q1961.05 1493.36 1957.9 1493.36 M1967.18 1478.7 L1967.18 1482.96 Q1965.42 1482.13 1963.62 1481.69 Q1961.83 1481.25 1960.07 1481.25 Q1955.44 1481.25 1952.99 1484.37 Q1950.56 1487.5 1950.21 1493.82 Q1951.58 1491.81 1953.64 1490.74 Q1955.7 1489.65 1958.18 1489.65 Q1963.38 1489.65 1966.39 1492.82 Q1969.43 1495.97 1969.43 1501.41 Q1969.43 1506.74 1966.28 1509.95 Q1963.13 1513.17 1957.9 1513.17 Q1951.9 1513.17 1948.73 1508.59 Q1945.56 1503.98 1945.56 1495.25 Q1945.56 1487.06 1949.45 1482.2 Q1953.34 1477.31 1959.89 1477.31 Q1961.65 1477.31 1963.43 1477.66 Q1965.24 1478.01 1967.18 1478.7 Z" fill="#000000" fill-rule="nonzero" fill-opacity="1" /><path clip-path="url(#clip480)" d="M2555.12 1496.09 Q2551.79 1496.09 2549.87 1497.87 Q2547.97 1499.65 2547.97 1502.78 Q2547.97 1505.9 2549.87 1507.69 Q2551.79 1509.47 2555.12 1509.47 Q2558.46 1509.47 2560.38 1507.69 Q2562.3 1505.88 2562.3 1502.78 Q2562.3 1499.65 2560.38 1497.87 Q2558.48 1496.09 2555.12 1496.09 M2550.45 1494.1 Q2547.44 1493.36 2545.75 1491.3 Q2544.08 1489.24 2544.08 1486.27 Q2544.08 1482.13 2547.02 1479.72 Q2549.99 1477.31 2555.12 1477.31 Q2560.29 1477.31 2563.23 1479.72 Q2566.17 1482.13 2566.17 1486.27 Q2566.17 1489.24 2564.48 1491.3 Q2562.81 1493.36 2559.82 1494.1 Q2563.2 1494.88 2565.08 1497.18 Q2566.98 1499.47 2566.98 1502.78 Q2566.98 1507.8 2563.9 1510.49 Q2560.84 1513.17 2555.12 1513.17 Q2549.41 1513.17 2546.33 1510.49 Q2543.27 1507.8 2543.27 1502.78 Q2543.27 1499.47 2545.17 1497.18 Q2547.07 1494.88 2550.45 1494.1 M2548.74 1486.71 Q2548.74 1489.4 2550.4 1490.9 Q2552.09 1492.41 2555.12 1492.41 Q2558.13 1492.41 2559.82 1490.9 Q2561.54 1489.4 2561.54 1486.71 Q2561.54 1484.03 2559.82 1482.52 Q2558.13 1481.02 2555.12 1481.02 Q2552.09 1481.02 2550.4 1482.52 Q2548.74 1484.03 2548.74 1486.71 Z" fill="#000000" fill-rule="nonzero" fill-opacity="1" /><path clip-path="url(#clip480)" d="M3127.44 1508.56 L3135.08 1508.56 L3135.08 1482.2 L3126.77 1483.87 L3126.77 1479.61 L3135.04 1477.94 L3139.71 1477.94 L3139.71 1508.56 L3147.35 1508.56 L3147.35 1512.5 L3127.44 1512.5 L3127.44 1508.56 Z" fill="#000000" fill-rule="nonzero" fill-opacity="1" /><path clip-path="url(#clip480)" d="M3166.8 1481.02 Q3163.18 1481.02 3161.36 1484.58 Q3159.55 1488.12 3159.55 1495.25 Q3159.55 1502.36 3161.36 1505.93 Q3163.18 1509.47 3166.8 1509.47 Q3170.43 1509.47 3172.23 1505.93 Q3174.06 1502.36 3174.06 1495.25 Q3174.06 1488.12 3172.23 1484.58 Q3170.43 1481.02 3166.8 1481.02 M3166.8 1477.31 Q3172.61 1477.31 3175.66 1481.92 Q3178.74 1486.5 3178.74 1495.25 Q3178.74 1503.98 3175.66 1508.59 Q3172.61 1513.17 3166.8 1513.17 Q3160.99 1513.17 3157.91 1508.59 Q3154.85 1503.98 3154.85 1495.25 Q3154.85 1486.5 3157.91 1481.92 Q3160.99 1477.31 3166.8 1477.31 Z" fill="#000000" fill-rule="nonzero" fill-opacity="1" /><path clip-path="url(#clip480)" d="M1657.74 1554.79 L1657.74 1564.92 L1669.8 1564.92 L1669.8 1569.47 L1657.74 1569.47 L1657.74 1588.82 Q1657.74 1593.18 1658.92 1594.42 Q1660.13 1595.66 1663.79 1595.66 L1669.8 1595.66 L1669.8 1600.56 L1663.79 1600.56 Q1657.01 1600.56 1654.43 1598.05 Q1651.85 1595.5 1651.85 1588.82 L1651.85 1569.47 L1647.55 1569.47 L1647.55 1564.92 L1651.85 1564.92 L1651.85 1554.79 L1657.74 1554.79 Z" fill="#000000" fill-rule="nonzero" fill-opacity="1" /><polyline clip-path="url(#clip482)" style="stroke:#000000; stroke-linecap:round; stroke-linejoin:round; stroke-width:2; stroke-opacity:0.1; fill:none" points="164.598,1404.18 3152.76,1404.18 "/>
<polyline clip-path="url(#clip482)" style="stroke:#000000; stroke-linecap:round; stroke-linejoin:round; stroke-width:2; stroke-opacity:0.1; fill:none" points="164.598,1131.55 3152.76,1131.55 "/>
<polyline clip-path="url(#clip482)" style="stroke:#000000; stroke-linecap:round; stroke-linejoin:round; stroke-width:2; stroke-opacity:0.1; fill:none" points="164.598,858.925 3152.76,858.925 "/>
<polyline clip-path="url(#clip482)" style="stroke:#000000; stroke-linecap:round; stroke-linejoin:round; stroke-width:2; stroke-opacity:0.1; fill:none" points="164.598,586.298 3152.76,586.298 "/>
<polyline clip-path="url(#clip482)" style="stroke:#000000; stroke-linecap:round; stroke-linejoin:round; stroke-width:2; stroke-opacity:0.1; fill:none" points="164.598,313.672 3152.76,313.672 "/>
<polyline clip-path="url(#clip482)" style="stroke:#000000; stroke-linecap:round; stroke-linejoin:round; stroke-width:2; stroke-opacity:0.1; fill:none" points="164.598,1404.18 3152.76,1404.18 "/>
<polyline clip-path="url(#clip482)" style="stroke:#000000; stroke-linecap:round; stroke-linejoin:round; stroke-width:2; stroke-opacity:0.1; fill:none" points="164.598,1131.55 3152.76,1131.55 "/>
<polyline clip-path="url(#clip482)" style="stroke:#000000; stroke-linecap:round; stroke-linejoin:round; stroke-width:2; stroke-opacity:0.1; fill:none" points="164.598,858.925 3152.76,858.925 "/>
<polyline clip-path="url(#clip482)" style="stroke:#000000; stroke-linecap:round; stroke-linejoin:round; stroke-width:2; stroke-opacity:0.1; fill:none" points="164.598,586.298 3152.76,586.298 "/>
<polyline clip-path="url(#clip482)" style="stroke:#000000; stroke-linecap:round; stroke-linejoin:round; stroke-width:2; stroke-opacity:0.1; fill:none" points="164.598,313.672 3152.76,313.672 "/>
<polyline clip-path="url(#clip480)" style="stroke:#000000; stroke-linecap:round; stroke-linejoin:round; stroke-width:4; stroke-opacity:1; fill:none" points="164.598,1443.7 164.598,47.2441 "/>
<polyline clip-path="url(#clip480)" style="stroke:#000000; stroke-linecap:round; stroke-linejoin:round; stroke-width:4; stroke-opacity:1; fill:none" points="3152.76,1443.7 3152.76,47.2441 "/>
<polyline clip-path="url(#clip480)" style="stroke:#000000; stroke-linecap:round; stroke-linejoin:round; stroke-width:4; stroke-opacity:1; fill:none" points="164.598,1404.18 183.496,1404.18 "/>
<polyline clip-path="url(#clip480)" style="stroke:#000000; stroke-linecap:round; stroke-linejoin:round; stroke-width:4; stroke-opacity:1; fill:none" points="164.598,1131.55 183.496,1131.55 "/>
<polyline clip-path="url(#clip480)" style="stroke:#000000; stroke-linecap:round; stroke-linejoin:round; stroke-width:4; stroke-opacity:1; fill:none" points="164.598,858.925 183.496,858.925 "/>
<polyline clip-path="url(#clip480)" style="stroke:#000000; stroke-linecap:round; stroke-linejoin:round; stroke-width:4; stroke-opacity:1; fill:none" points="164.598,586.298 183.496,586.298 "/>
<polyline clip-path="url(#clip480)" style="stroke:#000000; stroke-linecap:round; stroke-linejoin:round; stroke-width:4; stroke-opacity:1; fill:none" points="164.598,313.672 183.496,313.672 "/>
<polyline clip-path="url(#clip480)" style="stroke:#000000; stroke-linecap:round; stroke-linejoin:round; stroke-width:4; stroke-opacity:1; fill:none" points="3152.76,1404.18 3133.86,1404.18 "/>
<polyline clip-path="url(#clip480)" style="stroke:#000000; stroke-linecap:round; stroke-linejoin:round; stroke-width:4; stroke-opacity:1; fill:none" points="3152.76,1131.55 3133.86,1131.55 "/>
<polyline clip-path="url(#clip480)" style="stroke:#000000; stroke-linecap:round; stroke-linejoin:round; stroke-width:4; stroke-opacity:1; fill:none" points="3152.76,858.925 3133.86,858.925 "/>
<polyline clip-path="url(#clip480)" style="stroke:#000000; stroke-linecap:round; stroke-linejoin:round; stroke-width:4; stroke-opacity:1; fill:none" points="3152.76,586.298 3133.86,586.298 "/>
<polyline clip-path="url(#clip480)" style="stroke:#000000; stroke-linecap:round; stroke-linejoin:round; stroke-width:4; stroke-opacity:1; fill:none" points="3152.76,313.672 3133.86,313.672 "/>
<path clip-path="url(#clip480)" d="M59.4226 1389.98 Q55.8115 1389.98 53.9828 1393.54 Q52.1773 1397.08 52.1773 1404.21 Q52.1773 1411.32 53.9828 1414.88 Q55.8115 1418.43 59.4226 1418.43 Q63.0569 1418.43 64.8624 1414.88 Q66.6911 1411.32 66.6911 1404.21 Q66.6911 1397.08 64.8624 1393.54 Q63.0569 1389.98 59.4226 1389.98 M59.4226 1386.27 Q65.2328 1386.27 68.2883 1390.88 Q71.367 1395.46 71.367 1404.21 Q71.367 1412.94 68.2883 1417.55 Q65.2328 1422.13 59.4226 1422.13 Q53.6125 1422.13 50.5338 1417.55 Q47.4782 1412.94 47.4782 1404.21 Q47.4782 1395.46 50.5338 1390.88 Q53.6125 1386.27 59.4226 1386.27 Z" fill="#000000" fill-rule="nonzero" fill-opacity="1" /><path clip-path="url(#clip480)" d="M79.5845 1415.58 L84.4688 1415.58 L84.4688 1421.46 L79.5845 1421.46 L79.5845 1415.58 Z" fill="#000000" fill-rule="nonzero" fill-opacity="1" /><path clip-path="url(#clip480)" d="M104.654 1389.98 Q101.043 1389.98 99.2141 1393.54 Q97.4085 1397.08 97.4085 1404.21 Q97.4085 1411.32 99.2141 1414.88 Q101.043 1418.43 104.654 1418.43 Q108.288 1418.43 110.094 1414.88 Q111.922 1411.32 111.922 1404.21 Q111.922 1397.08 110.094 1393.54 Q108.288 1389.98 104.654 1389.98 M104.654 1386.27 Q110.464 1386.27 113.52 1390.88 Q116.598 1395.46 116.598 1404.21 Q116.598 1412.94 113.52 1417.55 Q110.464 1422.13 104.654 1422.13 Q98.8437 1422.13 95.765 1417.55 Q92.7095 1412.94 92.7095 1404.21 Q92.7095 1395.46 95.765 1390.88 Q98.8437 1386.27 104.654 1386.27 Z" fill="#000000" fill-rule="nonzero" fill-opacity="1" /><path clip-path="url(#clip480)" d="M61.0198 1117.35 Q57.4087 1117.35 55.58 1120.91 Q53.7745 1124.46 53.7745 1131.59 Q53.7745 1138.69 55.58 1142.26 Q57.4087 1145.8 61.0198 1145.8 Q64.6541 1145.8 66.4596 1142.26 Q68.2883 1138.69 68.2883 1131.59 Q68.2883 1124.46 66.4596 1120.91 Q64.6541 1117.35 61.0198 1117.35 M61.0198 1113.65 Q66.83 1113.65 69.8855 1118.25 Q72.9642 1122.84 72.9642 1131.59 Q72.9642 1140.31 69.8855 1144.92 Q66.83 1149.5 61.0198 1149.5 Q55.2097 1149.5 52.131 1144.92 Q49.0754 1140.31 49.0754 1131.59 Q49.0754 1122.84 52.131 1118.25 Q55.2097 1113.65 61.0198 1113.65 Z" fill="#000000" fill-rule="nonzero" fill-opacity="1" /><path clip-path="url(#clip480)" d="M81.1818 1142.95 L86.066 1142.95 L86.066 1148.83 L81.1818 1148.83 L81.1818 1142.95 Z" fill="#000000" fill-rule="nonzero" fill-opacity="1" /><path clip-path="url(#clip480)" d="M100.279 1144.9 L116.598 1144.9 L116.598 1148.83 L94.6539 1148.83 L94.6539 1144.9 Q97.3159 1142.14 101.899 1137.51 Q106.506 1132.86 107.686 1131.52 Q109.932 1128.99 110.811 1127.26 Q111.714 1125.5 111.714 1123.81 Q111.714 1121.05 109.77 1119.32 Q107.848 1117.58 104.746 1117.58 Q102.547 1117.58 100.094 1118.35 Q97.6632 1119.11 94.8854 1120.66 L94.8854 1115.94 Q97.7094 1114.8 100.163 1114.22 Q102.617 1113.65 104.654 1113.65 Q110.024 1113.65 113.219 1116.33 Q116.413 1119.02 116.413 1123.51 Q116.413 1125.64 115.603 1127.56 Q114.816 1129.46 112.709 1132.05 Q112.131 1132.72 109.029 1135.94 Q105.927 1139.13 100.279 1144.9 Z" fill="#000000" fill-rule="nonzero" fill-opacity="1" /><path clip-path="url(#clip480)" d="M58.9365 844.723 Q55.3254 844.723 53.4967 848.288 Q51.6912 851.83 51.6912 858.959 Q51.6912 866.066 53.4967 869.63 Q55.3254 873.172 58.9365 873.172 Q62.5707 873.172 64.3763 869.63 Q66.205 866.066 66.205 858.959 Q66.205 851.83 64.3763 848.288 Q62.5707 844.723 58.9365 844.723 M58.9365 841.02 Q64.7467 841.02 67.8022 845.626 Q70.8809 850.209 70.8809 858.959 Q70.8809 867.686 67.8022 872.292 Q64.7467 876.876 58.9365 876.876 Q53.1264 876.876 50.0477 872.292 Q46.9921 867.686 46.9921 858.959 Q46.9921 850.209 50.0477 845.626 Q53.1264 841.02 58.9365 841.02 Z" fill="#000000" fill-rule="nonzero" fill-opacity="1" /><path clip-path="url(#clip480)" d="M79.0984 870.325 L83.9827 870.325 L83.9827 876.205 L79.0984 876.205 L79.0984 870.325 Z" fill="#000000" fill-rule="nonzero" fill-opacity="1" /><path clip-path="url(#clip480)" d="M107.015 845.719 L95.2095 864.168 L107.015 864.168 L107.015 845.719 M105.788 841.645 L111.668 841.645 L111.668 864.168 L116.598 864.168 L116.598 868.056 L111.668 868.056 L111.668 876.205 L107.015 876.205 L107.015 868.056 L91.4132 868.056 L91.4132 863.543 L105.788 841.645 Z" fill="#000000" fill-rule="nonzero" fill-opacity="1" /><path clip-path="url(#clip480)" d="M59.2606 572.097 Q55.6495 572.097 53.8208 575.661 Q52.0152 579.203 52.0152 586.333 Q52.0152 593.439 53.8208 597.004 Q55.6495 600.546 59.2606 600.546 Q62.8948 600.546 64.7004 597.004 Q66.5291 593.439 66.5291 586.333 Q66.5291 579.203 64.7004 575.661 Q62.8948 572.097 59.2606 572.097 M59.2606 568.393 Q65.0707 568.393 68.1263 572.999 Q71.205 577.583 71.205 586.333 Q71.205 595.06 68.1263 599.666 Q65.0707 604.249 59.2606 604.249 Q53.4504 604.249 50.3717 599.666 Q47.3162 595.06 47.3162 586.333 Q47.3162 577.583 50.3717 572.999 Q53.4504 568.393 59.2606 568.393 Z" fill="#000000" fill-rule="nonzero" fill-opacity="1" /><path clip-path="url(#clip480)" d="M79.4225 597.698 L84.3067 597.698 L84.3067 603.578 L79.4225 603.578 L79.4225 597.698 Z" fill="#000000" fill-rule="nonzero" fill-opacity="1" /><path clip-path="url(#clip480)" d="M105.071 584.435 Q101.922 584.435 100.071 586.587 Q98.2419 588.74 98.2419 592.49 Q98.2419 596.217 100.071 598.393 Q101.922 600.546 105.071 600.546 Q108.219 600.546 110.047 598.393 Q111.899 596.217 111.899 592.49 Q111.899 588.74 110.047 586.587 Q108.219 584.435 105.071 584.435 M114.353 569.782 L114.353 574.041 Q112.594 573.208 110.788 572.768 Q109.006 572.328 107.246 572.328 Q102.617 572.328 100.163 575.453 Q97.7326 578.578 97.3854 584.898 Q98.7511 582.884 100.811 581.819 Q102.871 580.731 105.348 580.731 Q110.557 580.731 113.566 583.902 Q116.598 587.05 116.598 592.49 Q116.598 597.814 113.45 601.032 Q110.302 604.249 105.071 604.249 Q99.0752 604.249 95.9039 599.666 Q92.7326 595.06 92.7326 586.333 Q92.7326 578.138 96.6215 573.277 Q100.51 568.393 107.061 568.393 Q108.82 568.393 110.603 568.74 Q112.408 569.087 114.353 569.782 Z" fill="#000000" fill-rule="nonzero" fill-opacity="1" /><path clip-path="url(#clip480)" d="M59.5152 299.47 Q55.9041 299.47 54.0754 303.035 Q52.2699 306.577 52.2699 313.706 Q52.2699 320.813 54.0754 324.377 Q55.9041 327.919 59.5152 327.919 Q63.1494 327.919 64.955 324.377 Q66.7837 320.813 66.7837 313.706 Q66.7837 306.577 64.955 303.035 Q63.1494 299.47 59.5152 299.47 M59.5152 295.767 Q65.3254 295.767 68.3809 300.373 Q71.4596 304.956 71.4596 313.706 Q71.4596 322.433 68.3809 327.039 Q65.3254 331.623 59.5152 331.623 Q53.7051 331.623 50.6264 327.039 Q47.5708 322.433 47.5708 313.706 Q47.5708 304.956 50.6264 300.373 Q53.7051 295.767 59.5152 295.767 Z" fill="#000000" fill-rule="nonzero" fill-opacity="1" /><path clip-path="url(#clip480)" d="M79.6771 325.072 L84.5614 325.072 L84.5614 330.952 L79.6771 330.952 L79.6771 325.072 Z" fill="#000000" fill-rule="nonzero" fill-opacity="1" /><path clip-path="url(#clip480)" d="M104.746 314.54 Q101.413 314.54 99.4918 316.322 Q97.5937 318.104 97.5937 321.229 Q97.5937 324.354 99.4918 326.137 Q101.413 327.919 104.746 327.919 Q108.08 327.919 110.001 326.137 Q111.922 324.331 111.922 321.229 Q111.922 318.104 110.001 316.322 Q108.103 314.54 104.746 314.54 M100.071 312.549 Q97.0613 311.808 95.3715 309.748 Q93.7048 307.688 93.7048 304.725 Q93.7048 300.581 96.6446 298.174 Q99.6076 295.767 104.746 295.767 Q109.908 295.767 112.848 298.174 Q115.788 300.581 115.788 304.725 Q115.788 307.688 114.098 309.748 Q112.432 311.808 109.445 312.549 Q112.825 313.336 114.7 315.628 Q116.598 317.919 116.598 321.229 Q116.598 326.252 113.52 328.938 Q110.464 331.623 104.746 331.623 Q99.0289 331.623 95.9502 328.938 Q92.8947 326.252 92.8947 321.229 Q92.8947 317.919 94.7928 315.628 Q96.6909 313.336 100.071 312.549 M98.3576 305.165 Q98.3576 307.85 100.024 309.354 Q101.714 310.859 104.746 310.859 Q107.756 310.859 109.445 309.354 Q111.158 307.85 111.158 305.165 Q111.158 302.479 109.445 300.975 Q107.756 299.47 104.746 299.47 Q101.714 299.47 100.024 300.975 Q98.3576 302.479 98.3576 305.165 Z" fill="#000000" fill-rule="nonzero" fill-opacity="1" /><polyline clip-path="url(#clip482)" style="stroke:#009af9; stroke-linecap:round; stroke-linejoin:round; stroke-width:32; stroke-opacity:1; fill:none" points="164.598,1404.18 167.589,1404.14 170.581,1404.04 173.572,1403.88 176.563,1403.65 179.554,1403.36 182.545,1403.01 185.536,1402.6 188.527,1402.13 191.519,1401.61 194.51,1401.04 197.501,1400.41 200.492,1399.73 203.483,1399 206.474,1398.22 209.465,1397.39 212.457,1396.51 215.448,1395.59 218.439,1394.63 221.43,1393.62 224.421,1392.57 227.412,1391.47 230.404,1390.34 233.395,1389.16 236.386,1387.95 239.377,1386.7 242.368,1385.41 245.359,1384.09 248.35,1382.73 251.342,1381.34 254.333,1379.91 257.324,1378.45 260.315,1376.96 263.306,1375.44 266.297,1373.89 269.288,1372.3 272.28,1370.69 275.271,1369.05 278.262,1367.38 281.253,1365.69 284.244,1363.96 287.235,1362.21 290.226,1360.44 293.218,1358.64 296.209,1356.82 299.2,1354.97 302.191,1353.1 305.182,1351.21 308.173,1349.29 311.165,1347.35 314.156,1345.4 317.147,1343.42 320.138,1341.42 323.129,1339.4 326.12,1337.36 329.111,1335.31 332.103,1333.23 335.094,1331.14 338.085,1329.03 341.076,1326.9 344.067,1324.76 347.058,1322.6 350.049,1320.42 353.041,1318.23 356.032,1316.02 359.023,1313.8 362.014,1311.56 365.005,1309.31 367.996,1307.04 370.988,1304.77 373.979,1302.47 376.97,1300.17 379.961,1297.85 382.952,1295.52 385.943,1293.18 388.934,1290.83 391.926,1288.47 394.917,1286.09 397.908,1283.71 400.899,1281.31 403.89,1278.9 406.881,1276.49 409.872,1274.06 412.864,1271.62 415.855,1269.18 418.846,1266.72 421.837,1264.26 424.828,1261.79 427.819,1259.31 430.81,1256.82 433.802,1254.33 436.793,1251.82 439.784,1249.31 442.775,1246.79 445.766,1244.27 448.757,1241.74 451.749,1239.2 454.74,1236.65 457.731,1234.1 460.722,1231.54 463.713,1228.98 466.704,1226.41 469.695,1223.84 472.687,1221.26 475.678,1218.67 478.669,1216.08 481.66,1213.49 484.651,1210.89 487.642,1208.29 490.633,1205.68 493.625,1203.06 496.616,1200.45 499.607,1197.83 502.598,1195.2 505.589,1192.57 508.58,1189.94 511.571,1187.31 514.563,1184.67 517.554,1182.03 520.545,1179.39 523.536,1176.74 526.527,1174.09 529.518,1171.44 532.51,1168.78 535.501,1166.13 538.492,1163.47 541.483,1160.81 544.474,1158.14 547.465,1155.48 550.456,1152.81 553.448,1150.14 556.439,1147.47 559.43,1144.8 562.421,1142.13 565.412,1139.46 568.403,1136.78 571.394,1134.11 574.386,1131.43 577.377,1128.75 580.368,1126.07 583.359,1123.39 586.35,1120.71 589.341,1118.03 592.333,1115.35 595.324,1112.67 598.315,1109.99 601.306,1107.31 604.297,1104.63 607.288,1101.95 610.279,1099.27 613.271,1096.59 616.262,1093.91 619.253,1091.23 622.244,1088.55 625.235,1085.87 628.226,1083.19 631.217,1080.51 634.209,1077.83 637.2,1075.16 640.191,1072.48 643.182,1069.81 646.173,1067.13 649.164,1064.46 652.155,1061.79 655.147,1059.12 658.138,1056.45 661.129,1053.78 664.12,1051.12 667.111,1048.45 670.102,1045.79 673.094,1043.13 676.085,1040.47 679.076,1037.81 682.067,1035.15 685.058,1032.5 688.049,1029.84 691.04,1027.19 694.032,1024.54 697.023,1021.89 700.014,1019.25 703.005,1016.61 705.996,1013.97 708.987,1011.33 711.978,1008.69 714.97,1006.06 717.961,1003.42 720.952,1000.79 723.943,998.166 726.934,995.541 729.925,992.918 732.917,990.298 735.908,987.681 738.899,985.066 741.89,982.454 744.881,979.844 747.872,977.238 750.863,974.634 753.855,972.033 756.846,969.434 759.837,966.839 762.828,964.246 765.819,961.657 768.81,959.07 771.801,956.487 774.793,953.906 777.784,951.329 780.775,948.755 783.766,946.184 786.757,943.616 789.748,941.051 792.739,938.49 795.731,935.932 798.722,933.377 801.713,930.826 804.704,928.278 807.695,925.733 810.686,923.192 813.678,920.655 816.669,918.12 819.66,915.59 822.651,913.063 825.642,910.539 828.633,908.02 831.624,905.503 834.616,902.991 837.607,900.482 840.598,897.977 843.589,895.475 846.58,892.978 849.571,890.484 852.562,887.993 855.554,885.507 858.545,883.025 861.536,880.546 864.527,878.071 867.518,875.6 870.509,873.133 873.501,870.67 876.492,868.211 879.483,865.756 882.474,863.305 885.465,860.858 888.456,858.414 891.447,855.975 894.439,853.54 897.43,851.109 900.421,848.683 903.412,846.26 906.403,843.841 909.394,841.427 912.385,839.017 915.377,836.611 918.368,834.209 921.359,831.811 924.35,829.418 927.341,827.029 930.332,824.644 933.323,822.263 936.315,819.887 939.306,817.515 942.297,815.147 945.288,812.784 948.279,810.425 951.27,808.07 954.262,805.72 957.253,803.374 960.244,801.032 963.235,798.695 966.226,796.363 969.217,794.035 972.208,791.711 975.2,789.392 978.191,787.077 981.182,784.767 984.173,782.461 987.164,780.16 990.155,777.863 993.146,775.571 996.138,773.283 999.129,771 1002.12,768.722 1005.11,766.448 1008.1,764.179 1011.09,761.914 1014.08,759.654 1017.08,757.398 1020.07,755.147 1023.06,752.901 1026.05,750.659 1029.04,748.422 1032.03,746.19 1035.02,743.962 1038.01,741.739 1041,739.52 1044,737.307 1046.99,735.098 1049.98,732.893 1052.97,730.693 1055.96,728.498 1058.95,726.308 1061.94,724.122 1064.93,721.941 1067.93,719.764 1070.92,717.593 1073.91,715.426 1076.9,713.264 1079.89,711.106 1082.88,708.953 1085.87,706.805 1088.86,704.662 1091.85,702.523 1094.85,700.39 1097.84,698.261 1100.83,696.136 1103.82,694.017 1106.81,691.902 1109.8,689.792 1112.79,687.687 1115.78,685.586 1118.77,683.49 1121.77,681.399 1124.76,679.313 1127.75,677.232 1130.74,675.155 1133.73,673.083 1136.72,671.016 1139.71,668.954 1142.7,666.897 1145.7,664.844 1148.69,662.796 1151.68,660.754 1154.67,658.715 1157.66,656.682 1160.65,654.653 1163.64,652.63 1166.63,650.611 1169.62,648.597 1172.62,646.587 1175.61,644.583 1178.6,642.583 1181.59,640.589 1184.58,638.599 1187.57,636.614 1190.56,634.633 1193.55,632.658 1196.54,630.687 1199.54,628.721 1202.53,626.76 1205.52,624.804 1208.51,622.853 1211.5,620.907 1214.49,618.965 1217.48,617.028 1220.47,615.096 1223.46,613.169 1226.46,611.247 1229.45,609.33 1232.44,607.417 1235.43,605.509 1238.42,603.606 1241.41,601.708 1244.4,599.814 1247.39,597.926 1250.39,596.042 1253.38,594.163 1256.37,592.289 1259.36,590.42 1262.35,588.555 1265.34,586.695 1268.33,584.84 1271.32,582.99 1274.31,581.144 1277.31,579.304 1280.3,577.468 1283.29,575.637 1286.28,573.81 1289.27,571.989 1292.26,570.172 1295.25,568.36 1298.24,566.553 1301.23,564.75 1304.23,562.952 1307.22,561.159 1310.21,559.371 1313.2,557.587 1316.19,555.809 1319.18,554.035 1322.17,552.265 1325.16,550.501 1328.16,548.741 1331.15,546.986 1334.14,545.235 1337.13,543.489 1340.12,541.748 1343.11,540.012 1346.1,538.28 1349.09,536.553 1352.08,534.831 1355.08,533.114 1358.07,531.401 1361.06,529.693 1364.05,527.989 1367.04,526.291 1370.03,524.596 1373.02,522.907 1376.01,521.222 1379,519.542 1382,517.867 1384.99,516.196 1387.98,514.53 1390.97,512.868 1393.96,511.212 1396.95,509.559 1399.94,507.912 1402.93,506.269 1405.92,504.631 1408.92,502.997 1411.91,501.368 1414.9,499.744 1417.89,498.124 1420.88,496.509 1423.87,494.898 1426.86,493.292 1429.85,491.691 1432.85,490.094 1435.84,488.501 1438.83,486.914 1441.82,485.331 1444.81,483.752 1447.8,482.178 1450.79,480.609 1453.78,479.044 1456.77,477.484 1459.77,475.928 1462.76,474.377 1465.75,472.83 1468.74,471.288 1471.73,469.75 1474.72,468.217 1477.71,466.688 1480.7,465.164 1483.69,463.644 1486.69,462.129 1489.68,460.618 1492.67,459.112 1495.66,457.61 1498.65,456.112 1501.64,454.619 1504.63,453.131 1507.62,451.646 1510.62,450.167 1513.61,448.691 1516.6,447.22 1519.59,445.754 1522.58,444.291 1525.57,442.833 1528.56,441.38 1531.55,439.931 1534.54,438.486 1537.54,437.045 1540.53,435.609 1543.52,434.177 1546.51,432.75 1549.5,431.327 1552.49,429.908 1555.48,428.493 1558.47,427.083 1561.46,425.677 1564.46,424.275 1567.45,422.878 1570.44,421.485 1573.43,420.096 1576.42,418.711 1579.41,417.33 1582.4,415.954 1585.39,414.582 1588.39,413.214 1591.38,411.851 1594.37,410.492 1597.36,409.136 1600.35,407.785 1603.34,406.439 1606.33,405.096 1609.32,403.758 1612.31,402.423 1615.31,401.093 1618.3,399.767 1621.29,398.445 1624.28,397.128 1627.27,395.814 1630.26,394.505 1633.25,393.199 1636.24,391.898 1639.23,390.601 1642.23,389.308 1645.22,388.019 1648.21,386.734 1651.2,385.453 1654.19,384.176 1657.18,382.904 1660.17,381.635 1663.16,380.371 1666.15,379.11 1669.15,377.853 1672.14,376.601 1675.13,375.352 1678.12,374.108 1681.11,372.867 1684.1,371.631 1687.09,370.398 1690.08,369.17 1693.08,367.945 1696.07,366.724 1699.06,365.508 1702.05,364.295 1705.04,363.086 1708.03,361.881 1711.02,360.681 1714.01,359.484 1717,358.29 1720,357.101 1722.99,355.916 1725.98,354.734 1728.97,353.557 1731.96,352.383 1734.95,351.213 1737.94,350.047 1740.93,348.885 1743.92,347.726 1746.92,346.572 1749.91,345.421 1752.9,344.274 1755.89,343.13 1758.88,341.991 1761.87,340.855 1764.86,339.723 1767.85,338.595 1770.85,337.47 1773.84,336.349 1776.83,335.232 1779.82,334.119 1782.81,333.009 1785.8,331.903 1788.79,330.801 1791.78,329.702 1794.77,328.607 1797.77,327.516 1800.76,326.428 1803.75,325.344 1806.74,324.264 1809.73,323.187 1812.72,322.113 1815.71,321.044 1818.7,319.978 1821.69,318.915 1824.69,317.856 1827.68,316.801 1830.67,315.749 1833.66,314.701 1836.65,313.656 1839.64,312.615 1842.63,311.577 1845.62,310.543 1848.62,309.513 1851.61,308.486 1854.6,307.462 1857.59,306.442 1860.58,305.425 1863.57,304.412 1866.56,303.402 1869.55,302.396 1872.54,301.393 1875.54,300.393 1878.53,299.397 1881.52,298.404 1884.51,297.415 1887.5,296.429 1890.49,295.447 1893.48,294.468 1896.47,293.492 1899.46,292.52 1902.46,291.55 1905.45,290.585 1908.44,289.622 1911.43,288.663 1914.42,287.708 1917.41,286.755 1920.4,285.806 1923.39,284.86 1926.38,283.918 1929.38,282.979 1932.37,282.043 1935.36,281.11 1938.35,280.181 1941.34,279.255 1944.33,278.332 1947.32,277.412 1950.31,276.495 1953.31,275.582 1956.3,274.672 1959.29,273.765 1962.28,272.862 1965.27,271.961 1968.26,271.064 1971.25,270.17 1974.24,269.279 1977.23,268.391 1980.23,267.506 1983.22,266.625 1986.21,265.747 1989.2,264.871 1992.19,263.999 1995.18,263.13 1998.17,262.264 2001.16,261.401 2004.15,260.541 2007.15,259.685 2010.14,258.831 2013.13,257.98 2016.12,257.133 2019.11,256.288 2022.1,255.446 2025.09,254.608 2028.08,253.772 2031.08,252.94 2034.07,252.11 2037.06,251.283 2040.05,250.46 2043.04,249.639 2046.03,248.821 2049.02,248.006 2052.01,247.194 2055,246.385 2058,245.579 2060.99,244.776 2063.98,243.976 2066.97,243.178 2069.96,242.383 2072.95,241.592 2075.94,240.803 2078.93,240.017 2081.92,239.234 2084.92,238.453 2087.91,237.676 2090.9,236.901 2093.89,236.129 2096.88,235.36 2099.87,234.594 2102.86,233.83 2105.85,233.069 2108.84,232.311 2111.84,231.556 2114.83,230.803 2117.82,230.054 2120.81,229.306 2123.8,228.562 2126.79,227.82 2129.78,227.081 2132.77,226.345 2135.77,225.612 2138.76,224.881 2141.75,224.153 2144.74,223.427 2147.73,222.704 2150.72,221.984 2153.71,221.266 2156.7,220.551 2159.69,219.839 2162.69,219.129 2165.68,218.422 2168.67,217.717 2171.66,217.016 2174.65,216.316 2177.64,215.619 2180.63,214.925 2183.62,214.234 2186.61,213.544 2189.61,212.858 2192.6,212.174 2195.59,211.492 2198.58,210.813 2201.57,210.137 2204.56,209.463 2207.55,208.792 2210.54,208.123 2213.54,207.456 2216.53,206.792 2219.52,206.131 2222.51,205.472 2225.5,204.815 2228.49,204.161 2231.48,203.51 2234.47,202.86 2237.46,202.213 2240.46,201.569 2243.45,200.927 2246.44,200.288 2249.43,199.65 2252.42,199.016 2255.41,198.383 2258.4,197.753 2261.39,197.126 2264.38,196.5 2267.38,195.877 2270.37,195.257 2273.36,194.639 2276.35,194.023 2279.34,193.409 2282.33,192.798 2285.32,192.189 2288.31,191.583 2291.31,190.978 2294.3,190.376 2297.29,189.776 2300.28,189.179 2303.27,188.584 2306.26,187.991 2309.25,187.4 2312.24,186.812 2315.23,186.225 2318.23,185.641 2321.22,185.059 2324.21,184.48 2327.2,183.902 2330.19,183.327 2333.18,182.754 2336.17,182.183 2339.16,181.615 2342.15,181.048 2345.15,180.484 2348.14,179.921 2351.13,179.361 2354.12,178.803 2357.11,178.248 2360.1,177.694 2363.09,177.142 2366.08,176.593 2369.07,176.045 2372.07,175.5 2375.06,174.957 2378.05,174.416 2381.04,173.877 2384.03,173.34 2387.02,172.805 2390.01,172.272 2393,171.741 2396,171.212 2398.99,170.685 2401.98,170.16 2404.97,169.637 2407.96,169.117 2410.95,168.598 2413.94,168.081 2416.93,167.566 2419.92,167.053 2422.92,166.542 2425.91,166.034 2428.9,165.527 2431.89,165.022 2434.88,164.519 2437.87,164.017 2440.86,163.518 2443.85,163.021 2446.84,162.526 2449.84,162.032 2452.83,161.541 2455.82,161.051 2458.81,160.563 2461.8,160.077 2464.79,159.593 2467.78,159.111 2470.77,158.631 2473.77,158.152 2476.76,157.676 2479.75,157.201 2482.74,156.728 2485.73,156.257 2488.72,155.788 2491.71,155.321 2494.7,154.855 2497.69,154.391 2500.69,153.929 2503.68,153.469 2506.67,153.011 2509.66,152.554 2512.65,152.1 2515.64,151.647 2518.63,151.195 2521.62,150.746 2524.61,150.298 2527.61,149.852 2530.6,149.408 2533.59,148.965 2536.58,148.524 2539.57,148.085 2542.56,147.648 2545.55,147.212 2548.54,146.778 2551.53,146.346 2554.53,145.916 2557.52,145.487 2560.51,145.06 2563.5,144.634 2566.49,144.211 2569.48,143.788 2572.47,143.368 2575.46,142.949 2578.46,142.532 2581.45,142.117 2584.44,141.703 2587.43,141.29 2590.42,140.88 2593.41,140.471 2596.4,140.064 2599.39,139.658 2602.38,139.254 2605.38,138.851 2608.37,138.45 2611.36,138.051 2614.35,137.653 2617.34,137.257 2620.33,136.862 2623.32,136.469 2626.31,136.077 2629.3,135.687 2632.3,135.299 2635.29,134.912 2638.28,134.527 2641.27,134.143 2644.26,133.76 2647.25,133.379 2650.24,133 2653.23,132.622 2656.23,132.246 2659.22,131.871 2662.21,131.498 2665.2,131.126 2668.19,130.755 2671.18,130.387 2674.17,130.019 2677.16,129.653 2680.15,129.289 2683.15,128.925 2686.14,128.564 2689.13,128.203 2692.12,127.845 2695.11,127.487 2698.1,127.131 2701.09,126.777 2704.08,126.424 2707.07,126.072 2710.07,125.722 2713.06,125.373 2716.05,125.025 2719.04,124.679 2722.03,124.334 2725.02,123.991 2728.01,123.649 2731,123.308 2734,122.969 2736.99,122.631 2739.98,122.294 2742.97,121.959 2745.96,121.625 2748.95,121.292 2751.94,120.961 2754.93,120.631 2757.92,120.302 2760.92,119.975 2763.91,119.649 2766.9,119.324 2769.89,119.001 2772.88,118.679 2775.87,118.358 2778.86,118.038 2781.85,117.72 2784.84,117.403 2787.84,117.087 2790.83,116.773 2793.82,116.46 2796.81,116.148 2799.8,115.837 2802.79,115.528 2805.78,115.219 2808.77,114.912 2811.76,114.607 2814.76,114.302 2817.75,113.999 2820.74,113.697 2823.73,113.396 2826.72,113.096 2829.71,112.798 2832.7,112.501 2835.69,112.204 2838.69,111.91 2841.68,111.616 2844.67,111.323 2847.66,111.032 2850.65,110.742 2853.64,110.453 2856.63,110.165 2859.62,109.879 2862.61,109.593 2865.61,109.309 2868.6,109.026 2871.59,108.744 2874.58,108.463 2877.57,108.183 2880.56,107.904 2883.55,107.627 2886.54,107.351 2889.53,107.075 2892.53,106.801 2895.52,106.528 2898.51,106.256 2901.5,105.986 2904.49,105.716 2907.48,105.447 2910.47,105.18 2913.46,104.913 2916.46,104.648 2919.45,104.384 2922.44,104.121 2925.43,103.858 2928.42,103.597 2931.41,103.337 2934.4,103.078 2937.39,102.821 2940.38,102.564 2943.38,102.308 2946.37,102.053 2949.36,101.799 2952.35,101.547 2955.34,101.295 2958.33,101.044 2961.32,100.795 2964.31,100.546 2967.3,100.299 2970.3,100.052 2973.29,99.8064 2976.28,99.5618 2979.27,99.3182 2982.26,99.0756 2985.25,98.834 2988.24,98.5933 2991.23,98.3537 2994.23,98.115 2997.22,97.8773 3000.21,97.6405 3003.2,97.4048 3006.19,97.17 3009.18,96.9361 3012.17,96.7032 3015.16,96.4712 3018.15,96.2402 3021.15,96.0102 3024.14,95.781 3027.13,95.5528 3030.12,95.3256 3033.11,95.0992 3036.1,94.8738 3039.09,94.6493 3042.08,94.4258 3045.07,94.2031 3048.07,93.9814 3051.06,93.7605 3054.05,93.5406 3057.04,93.3215 3060.03,93.1034 3063.02,92.8861 3066.01,92.6698 3069,92.4543 3071.99,92.2397 3074.99,92.026 3077.98,91.8131 3080.97,91.6011 3083.96,91.39 3086.95,91.1798 3089.94,90.9704 3092.93,90.7619 3095.92,90.5542 3098.92,90.3474 3101.91,90.1414 3104.9,89.9363 3107.89,89.732 3110.88,89.5285 3113.87,89.3259 3116.86,89.1242 3119.85,88.9232 3122.84,88.7231 3125.84,88.5238 3128.83,88.3253 3131.82,88.1276 3134.81,87.9307 3137.8,87.7347 3140.79,87.5394 3143.78,87.345 3146.77,87.1513 3149.76,86.9585 3152.76,86.7664 "/>
<circle clip-path="url(#clip482)" cx="463.414" cy="1222" r="21.6" fill="#0000ff" fill-rule="evenodd" fill-opacity="1" stroke="#000000" stroke-opacity="1" stroke-width="3.2"/>
<circle clip-path="url(#clip482)" cx="762.23" cy="923.259" r="21.6" fill="#0000ff" fill-rule="evenodd" fill-opacity="1" stroke="#000000" stroke-opacity="1" stroke-width="3.2"/>
<circle clip-path="url(#clip482)" cx="1061.05" cy="760.521" r="21.6" fill="#0000ff" fill-rule="evenodd" fill-opacity="1" stroke="#000000" stroke-opacity="1" stroke-width="3.2"/>
<circle clip-path="url(#clip482)" cx="1359.86" cy="534.151" r="21.6" fill="#0000ff" fill-rule="evenodd" fill-opacity="1" stroke="#000000" stroke-opacity="1" stroke-width="3.2"/>
<circle clip-path="url(#clip482)" cx="1658.68" cy="390.863" r="21.6" fill="#0000ff" fill-rule="evenodd" fill-opacity="1" stroke="#000000" stroke-opacity="1" stroke-width="3.2"/>
<circle clip-path="url(#clip482)" cx="1957.49" cy="150.681" r="21.6" fill="#0000ff" fill-rule="evenodd" fill-opacity="1" stroke="#000000" stroke-opacity="1" stroke-width="3.2"/>
<circle clip-path="url(#clip482)" cx="2256.31" cy="342.314" r="21.6" fill="#0000ff" fill-rule="evenodd" fill-opacity="1" stroke="#000000" stroke-opacity="1" stroke-width="3.2"/>
<circle clip-path="url(#clip482)" cx="2555.12" cy="269.161" r="21.6" fill="#0000ff" fill-rule="evenodd" fill-opacity="1" stroke="#000000" stroke-opacity="1" stroke-width="3.2"/>
<circle clip-path="url(#clip482)" cx="2853.94" cy="193.608" r="21.6" fill="#0000ff" fill-rule="evenodd" fill-opacity="1" stroke="#000000" stroke-opacity="1" stroke-width="3.2"/>
<circle clip-path="url(#clip482)" cx="3152.76" cy="307.345" r="21.6" fill="#0000ff" fill-rule="evenodd" fill-opacity="1" stroke="#000000" stroke-opacity="1" stroke-width="3.2"/>
<polyline clip-path="url(#clip482)" style="stroke:#add8e6; stroke-linecap:round; stroke-linejoin:round; stroke-width:24; stroke-opacity:1; fill:none" stroke-dasharray="96, 60" points="164.598,1404.18 167.589,1404.13 170.581,1404 173.572,1403.78 176.563,1403.47 179.554,1403.08 182.545,1402.62 185.536,1402.07 188.527,1401.45 191.519,1400.76 194.51,1400 197.501,1399.16 200.492,1398.26 203.483,1397.3 206.474,1396.27 209.465,1395.17 212.457,1394.02 215.448,1392.81 218.439,1391.55 221.43,1390.22 224.421,1388.85 227.412,1387.42 230.404,1385.94 233.395,1384.42 236.386,1382.84 239.377,1381.22 242.368,1379.55 245.359,1377.85 248.35,1376.09 251.342,1374.3 254.333,1372.47 257.324,1370.6 260.315,1368.69 263.306,1366.75 266.297,1364.77 269.288,1362.75 272.28,1360.71 275.271,1358.63 278.262,1356.52 281.253,1354.38 284.244,1352.21 287.235,1350.02 290.226,1347.79 293.218,1345.54 296.209,1343.27 299.2,1340.97 302.191,1338.64 305.182,1336.3 308.173,1333.93 311.165,1331.54 314.156,1329.12 317.147,1326.69 320.138,1324.24 323.129,1321.77 326.12,1319.29 329.111,1316.78 332.103,1314.26 335.094,1311.72 338.085,1309.17 341.076,1306.61 344.067,1304.02 347.058,1301.43 350.049,1298.82 353.041,1296.2 356.032,1293.57 359.023,1290.92 362.014,1288.26 365.005,1285.6 367.996,1282.92 370.988,1280.23 373.979,1277.54 376.97,1274.83 379.961,1272.12 382.952,1269.4 385.943,1266.67 388.934,1263.93 391.926,1261.19 394.917,1258.44 397.908,1255.68 400.899,1252.92 403.89,1250.15 406.881,1247.38 409.872,1244.6 412.864,1241.82 415.855,1239.04 418.846,1236.25 421.837,1233.45 424.828,1230.66 427.819,1227.86 430.81,1225.05 433.802,1222.25 436.793,1219.44 439.784,1216.63 442.775,1213.82 445.766,1211.01 448.757,1208.19 451.749,1205.38 454.74,1202.56 457.731,1199.75 460.722,1196.93 463.713,1194.11 466.704,1191.29 469.695,1188.48 472.687,1185.66 475.678,1182.84 478.669,1180.03 481.66,1177.21 484.651,1174.4 487.642,1171.58 490.633,1168.77 493.625,1165.96 496.616,1163.15 499.607,1160.35 502.598,1157.54 505.589,1154.74 508.58,1151.94 511.571,1149.14 514.563,1146.34 517.554,1143.55 520.545,1140.76 523.536,1137.97 526.527,1135.18 529.518,1132.4 532.51,1129.62 535.501,1126.84 538.492,1124.07 541.483,1121.3 544.474,1118.53 547.465,1115.77 550.456,1113.01 553.448,1110.25 556.439,1107.5 559.43,1104.75 562.421,1102.01 565.412,1099.27 568.403,1096.53 571.394,1093.8 574.386,1091.07 577.377,1088.35 580.368,1085.63 583.359,1082.92 586.35,1080.21 589.341,1077.5 592.333,1074.8 595.324,1072.11 598.315,1069.41 601.306,1066.73 604.297,1064.05 607.288,1061.37 610.279,1058.7 613.271,1056.03 616.262,1053.37 619.253,1050.71 622.244,1048.06 625.235,1045.41 628.226,1042.77 631.217,1040.13 634.209,1037.5 637.2,1034.87 640.191,1032.25 643.182,1029.63 646.173,1027.02 649.164,1024.42 652.155,1021.82 655.147,1019.22 658.138,1016.63 661.129,1014.05 664.12,1011.47 667.111,1008.9 670.102,1006.33 673.094,1003.77 676.085,1001.22 679.076,998.667 682.067,996.122 685.058,993.584 688.049,991.05 691.04,988.523 694.032,986.001 697.023,983.485 700.014,980.974 703.005,978.469 705.996,975.97 708.987,973.476 711.978,970.988 714.97,968.506 717.961,966.03 720.952,963.559 723.943,961.094 726.934,958.635 729.925,956.182 732.917,953.734 735.908,951.292 738.899,948.856 741.89,946.426 744.881,944.002 747.872,941.583 750.863,939.17 753.855,936.763 756.846,934.362 759.837,931.966 762.828,929.576 765.819,927.193 768.81,924.815 771.801,922.442 774.793,920.076 777.784,917.716 780.775,915.361 783.766,913.012 786.757,910.669 789.748,908.332 792.739,906.001 795.731,903.675 798.722,901.356 801.713,899.042 804.704,896.734 807.695,894.432 810.686,892.135 813.678,889.845 816.669,887.56 819.66,885.281 822.651,883.007 825.642,880.74 828.633,878.478 831.624,876.222 834.616,873.972 837.607,871.727 840.598,869.488 843.589,867.255 846.58,865.027 849.571,862.805 852.562,860.589 855.554,858.379 858.545,856.174 861.536,853.975 864.527,851.781 867.518,849.593 870.509,847.411 873.501,845.234 876.492,843.063 879.483,840.898 882.474,838.738 885.465,836.584 888.456,834.435 891.447,832.292 894.439,830.155 897.43,828.023 900.421,825.896 903.412,823.776 906.403,821.66 909.394,819.551 912.385,817.446 915.377,815.348 918.368,813.254 921.359,811.167 924.35,809.084 927.341,807.008 930.332,804.936 933.323,802.871 936.315,800.81 939.306,798.755 942.297,796.706 945.288,794.662 948.279,792.623 951.27,790.59 954.262,788.562 957.253,786.54 960.244,784.523 963.235,782.511 966.226,780.505 969.217,778.503 972.208,776.508 975.2,774.517 978.191,772.532 981.182,770.552 984.173,768.577 987.164,766.608 990.155,764.643 993.146,762.684 996.138,760.73 999.129,758.782 1002.12,756.838 1005.11,754.9 1008.1,752.967 1011.09,751.039 1014.08,749.116 1017.08,747.198 1020.07,745.286 1023.06,743.378 1026.05,741.475 1029.04,739.578 1032.03,737.686 1035.02,735.798 1038.01,733.916 1041,732.039 1044,730.166 1046.99,728.299 1049.98,726.437 1052.97,724.58 1055.96,722.727 1058.95,720.88 1061.94,719.037 1064.93,717.2 1067.93,715.367 1070.92,713.54 1073.91,711.717 1076.9,709.899 1079.89,708.086 1082.88,706.278 1085.87,704.474 1088.86,702.676 1091.85,700.882 1094.85,699.093 1097.84,697.309 1100.83,695.53 1103.82,693.755 1106.81,691.986 1109.8,690.221 1112.79,688.461 1115.78,686.705 1118.77,684.955 1121.77,683.209 1124.76,681.467 1127.75,679.731 1130.74,677.999 1133.73,676.272 1136.72,674.549 1139.71,672.832 1142.7,671.118 1145.7,669.41 1148.69,667.706 1151.68,666.006 1154.67,664.311 1157.66,662.621 1160.65,660.936 1163.64,659.254 1166.63,657.578 1169.62,655.906 1172.62,654.238 1175.61,652.575 1178.6,650.916 1181.59,649.262 1184.58,647.613 1187.57,645.967 1190.56,644.326 1193.55,642.69 1196.54,641.058 1199.54,639.431 1202.53,637.807 1205.52,636.189 1208.51,634.574 1211.5,632.964 1214.49,631.358 1217.48,629.757 1220.47,628.16 1223.46,626.567 1226.46,624.979 1229.45,623.394 1232.44,621.814 1235.43,620.239 1238.42,618.667 1241.41,617.1 1244.4,615.537 1247.39,613.978 1250.39,612.424 1253.38,610.874 1256.37,609.327 1259.36,607.786 1262.35,606.248 1265.34,604.714 1268.33,603.185 1271.32,601.659 1274.31,600.138 1277.31,598.621 1280.3,597.108 1283.29,595.599 1286.28,594.094 1289.27,592.593 1292.26,591.096 1295.25,589.604 1298.24,588.115 1301.23,586.63 1304.23,585.15 1307.22,583.673 1310.21,582.2 1313.2,580.732 1316.19,579.267 1319.18,577.806 1322.17,576.349 1325.16,574.897 1328.16,573.448 1331.15,572.003 1334.14,570.562 1337.13,569.125 1340.12,567.691 1343.11,566.262 1346.1,564.837 1349.09,563.415 1352.08,561.997 1355.08,560.583 1358.07,559.173 1361.06,557.767 1364.05,556.365 1367.04,554.966 1370.03,553.571 1373.02,552.18 1376.01,550.793 1379,549.41 1382,548.03 1384.99,546.654 1387.98,545.282 1390.97,543.913 1393.96,542.548 1396.95,541.187 1399.94,539.83 1402.93,538.476 1405.92,537.126 1408.92,535.779 1411.91,534.436 1414.9,533.097 1417.89,531.762 1420.88,530.43 1423.87,529.101 1426.86,527.777 1429.85,526.455 1432.85,525.138 1435.84,523.824 1438.83,522.513 1441.82,521.206 1444.81,519.903 1447.8,518.603 1450.79,517.307 1453.78,516.014 1456.77,514.725 1459.77,513.439 1462.76,512.157 1465.75,510.878 1468.74,509.603 1471.73,508.331 1474.72,507.062 1477.71,505.797 1480.7,504.535 1483.69,503.277 1486.69,502.022 1489.68,500.771 1492.67,499.523 1495.66,498.278 1498.65,497.037 1501.64,495.799 1504.63,494.565 1507.62,493.333 1510.62,492.106 1513.61,490.881 1516.6,489.66 1519.59,488.442 1522.58,487.227 1525.57,486.016 1528.56,484.808 1531.55,483.603 1534.54,482.402 1537.54,481.203 1540.53,480.008 1543.52,478.816 1546.51,477.628 1549.5,476.443 1552.49,475.26 1555.48,474.082 1558.47,472.906 1561.46,471.733 1564.46,470.564 1567.45,469.398 1570.44,468.235 1573.43,467.075 1576.42,465.918 1579.41,464.765 1582.4,463.614 1585.39,462.467 1588.39,461.322 1591.38,460.181 1594.37,459.043 1597.36,457.908 1600.35,456.776 1603.34,455.648 1606.33,454.522 1609.32,453.399 1612.31,452.28 1615.31,451.163 1618.3,450.049 1621.29,448.939 1624.28,447.831 1627.27,446.727 1630.26,445.625 1633.25,444.527 1636.24,443.431 1639.23,442.339 1642.23,441.249 1645.22,440.162 1648.21,439.079 1651.2,437.998 1654.19,436.92 1657.18,435.845 1660.17,434.773 1663.16,433.704 1666.15,432.638 1669.15,431.575 1672.14,430.515 1675.13,429.457 1678.12,428.402 1681.11,427.351 1684.1,426.302 1687.09,425.256 1690.08,424.213 1693.08,423.172 1696.07,422.135 1699.06,421.1 1702.05,420.068 1705.04,419.039 1708.03,418.012 1711.02,416.989 1714.01,415.968 1717,414.95 1720,413.935 1722.99,412.922 1725.98,411.912 1728.97,410.905 1731.96,409.901 1734.95,408.9 1737.94,407.901 1740.93,406.905 1743.92,405.911 1746.92,404.92 1749.91,403.932 1752.9,402.947 1755.89,401.964 1758.88,400.984 1761.87,400.007 1764.86,399.032 1767.85,398.06 1770.85,397.09 1773.84,396.124 1776.83,395.159 1779.82,394.198 1782.81,393.239 1785.8,392.282 1788.79,391.329 1791.78,390.377 1794.77,389.429 1797.77,388.483 1800.76,387.539 1803.75,386.598 1806.74,385.66 1809.73,384.724 1812.72,383.791 1815.71,382.86 1818.7,381.932 1821.69,381.006 1824.69,380.083 1827.68,379.162 1830.67,378.244 1833.66,377.328 1836.65,376.415 1839.64,375.504 1842.63,374.596 1845.62,373.69 1848.62,372.787 1851.61,371.886 1854.6,370.987 1857.59,370.091 1860.58,369.197 1863.57,368.306 1866.56,367.417 1869.55,366.531 1872.54,365.647 1875.54,364.766 1878.53,363.886 1881.52,363.01 1884.51,362.135 1887.5,361.263 1890.49,360.393 1893.48,359.526 1896.47,358.661 1899.46,357.798 1902.46,356.938 1905.45,356.08 1908.44,355.224 1911.43,354.371 1914.42,353.52 1917.41,352.671 1920.4,351.825 1923.39,350.981 1926.38,350.139 1929.38,349.3 1932.37,348.462 1935.36,347.627 1938.35,346.795 1941.34,345.964 1944.33,345.136 1947.32,344.31 1950.31,343.486 1953.31,342.665 1956.3,341.846 1959.29,341.029 1962.28,340.214 1965.27,339.401 1968.26,338.591 1971.25,337.783 1974.24,336.977 1977.23,336.173 1980.23,335.371 1983.22,334.572 1986.21,333.775 1989.2,332.98 1992.19,332.187 1995.18,331.396 1998.17,330.607 2001.16,329.821 2004.15,329.036 2007.15,328.254 2010.14,327.474 2013.13,326.696 2016.12,325.92 2019.11,325.147 2022.1,324.375 2025.09,323.606 2028.08,322.838 2031.08,322.073 2034.07,321.31 2037.06,320.548 2040.05,319.789 2043.04,319.032 2046.03,318.277 2049.02,317.524 2052.01,316.773 2055,316.025 2058,315.278 2060.99,314.533 2063.98,313.79 2066.97,313.049 2069.96,312.311 2072.95,311.574 2075.94,310.839 2078.93,310.107 2081.92,309.376 2084.92,308.647 2087.91,307.92 2090.9,307.195 2093.89,306.473 2096.88,305.752 2099.87,305.033 2102.86,304.316 2105.85,303.601 2108.84,302.888 2111.84,302.177 2114.83,301.467 2117.82,300.76 2120.81,300.055 2123.8,299.351 2126.79,298.65 2129.78,297.95 2132.77,297.252 2135.77,296.557 2138.76,295.863 2141.75,295.171 2144.74,294.48 2147.73,293.792 2150.72,293.106 2153.71,292.421 2156.7,291.738 2159.69,291.057 2162.69,290.378 2165.68,289.701 2168.67,289.026 2171.66,288.352 2174.65,287.68 2177.64,287.011 2180.63,286.342 2183.62,285.676 2186.61,285.012 2189.61,284.349 2192.6,283.688 2195.59,283.029 2198.58,282.372 2201.57,281.716 2204.56,281.063 2207.55,280.411 2210.54,279.76 2213.54,279.112 2216.53,278.465 2219.52,277.82 2222.51,277.177 2225.5,276.536 2228.49,275.896 2231.48,275.258 2234.47,274.622 2237.46,273.987 2240.46,273.355 2243.45,272.724 2246.44,272.094 2249.43,271.467 2252.42,270.841 2255.41,270.216 2258.4,269.594 2261.39,268.973 2264.38,268.354 2267.38,267.736 2270.37,267.12 2273.36,266.506 2276.35,265.894 2279.34,265.283 2282.33,264.674 2285.32,264.066 2288.31,263.46 2291.31,262.856 2294.3,262.253 2297.29,261.652 2300.28,261.053 2303.27,260.455 2306.26,259.859 2309.25,259.264 2312.24,258.672 2315.23,258.08 2318.23,257.491 2321.22,256.902 2324.21,256.316 2327.2,255.731 2330.19,255.148 2333.18,254.566 2336.17,253.986 2339.16,253.407 2342.15,252.83 2345.15,252.255 2348.14,251.681 2351.13,251.109 2354.12,250.538 2357.11,249.969 2360.1,249.401 2363.09,248.835 2366.08,248.27 2369.07,247.707 2372.07,247.146 2375.06,246.586 2378.05,246.027 2381.04,245.47 2384.03,244.915 2387.02,244.361 2390.01,243.808 2393,243.257 2396,242.708 2398.99,242.16 2401.98,241.613 2404.97,241.068 2407.96,240.525 2410.95,239.983 2413.94,239.442 2416.93,238.903 2419.92,238.366 2422.92,237.829 2425.91,237.295 2428.9,236.762 2431.89,236.23 2434.88,235.699 2437.87,235.171 2440.86,234.643 2443.85,234.117 2446.84,233.593 2449.84,233.069 2452.83,232.548 2455.82,232.027 2458.81,231.509 2461.8,230.991 2464.79,230.475 2467.78,229.961 2470.77,229.447 2473.77,228.936 2476.76,228.425 2479.75,227.916 2482.74,227.409 2485.73,226.902 2488.72,226.397 2491.71,225.894 2494.7,225.392 2497.69,224.891 2500.69,224.392 2503.68,223.894 2506.67,223.397 2509.66,222.902 2512.65,222.408 2515.64,221.916 2518.63,221.425 2521.62,220.935 2524.61,220.446 2527.61,219.959 2530.6,219.473 2533.59,218.989 2536.58,218.506 2539.57,218.024 2542.56,217.543 2545.55,217.064 2548.54,216.586 2551.53,216.109 2554.53,215.634 2557.52,215.16 2560.51,214.687 2563.5,214.216 2566.49,213.746 2569.48,213.277 2572.47,212.809 2575.46,212.343 2578.46,211.878 2581.45,211.414 2584.44,210.951 2587.43,210.49 2590.42,210.03 2593.41,209.571 2596.4,209.113 2599.39,208.657 2602.38,208.202 2605.38,207.748 2608.37,207.295 2611.36,206.844 2614.35,206.394 2617.34,205.945 2620.33,205.497 2623.32,205.05 2626.31,204.605 2629.3,204.161 2632.3,203.718 2635.29,203.276 2638.28,202.836 2641.27,202.396 2644.26,201.958 2647.25,201.521 2650.24,201.085 2653.23,200.651 2656.23,200.217 2659.22,199.785 2662.21,199.354 2665.2,198.924 2668.19,198.495 2671.18,198.067 2674.17,197.641 2677.16,197.215 2680.15,196.791 2683.15,196.368 2686.14,195.946 2689.13,195.525 2692.12,195.105 2695.11,194.687 2698.1,194.269 2701.09,193.853 2704.08,193.438 2707.07,193.024 2710.07,192.611 2713.06,192.199 2716.05,191.788 2719.04,191.379 2722.03,190.97 2725.02,190.563 2728.01,190.156 2731,189.751 2734,189.347 2736.99,188.944 2739.98,188.542 2742.97,188.141 2745.96,187.741 2748.95,187.342 2751.94,186.945 2754.93,186.548 2757.92,186.153 2760.92,185.758 2763.91,185.365 2766.9,184.972 2769.89,184.581 2772.88,184.191 2775.87,183.802 2778.86,183.414 2781.85,183.026 2784.84,182.64 2787.84,182.255 2790.83,181.871 2793.82,181.488 2796.81,181.107 2799.8,180.726 2802.79,180.346 2805.78,179.967 2808.77,179.589 2811.76,179.212 2814.76,178.837 2817.75,178.462 2820.74,178.088 2823.73,177.715 2826.72,177.344 2829.71,176.973 2832.7,176.603 2835.69,176.235 2838.69,175.867 2841.68,175.5 2844.67,175.134 2847.66,174.77 2850.65,174.406 2853.64,174.043 2856.63,173.681 2859.62,173.321 2862.61,172.961 2865.61,172.602 2868.6,172.244 2871.59,171.887 2874.58,171.531 2877.57,171.176 2880.56,170.822 2883.55,170.469 2886.54,170.117 2889.53,169.766 2892.53,169.416 2895.52,169.067 2898.51,168.719 2901.5,168.372 2904.49,168.025 2907.48,167.68 2910.47,167.336 2913.46,166.992 2916.46,166.65 2919.45,166.308 2922.44,165.967 2925.43,165.628 2928.42,165.289 2931.41,164.951 2934.4,164.614 2937.39,164.278 2940.38,163.943 2943.38,163.609 2946.37,163.276 2949.36,162.944 2952.35,162.613 2955.34,162.282 2958.33,161.953 2961.32,161.624 2964.31,161.297 2967.3,160.97 2970.3,160.644 2973.29,160.319 2976.28,159.995 2979.27,159.672 2982.26,159.35 2985.25,159.029 2988.24,158.709 2991.23,158.389 2994.23,158.071 2997.22,157.753 3000.21,157.436 3003.2,157.12 3006.19,156.805 3009.18,156.49 3012.17,156.177 3015.16,155.864 3018.15,155.552 3021.15,155.241 3024.14,154.931 3027.13,154.622 3030.12,154.313 3033.11,154.006 3036.1,153.699 3039.09,153.393 3042.08,153.088 3045.07,152.784 3048.07,152.48 3051.06,152.177 3054.05,151.876 3057.04,151.575 3060.03,151.274 3063.02,150.975 3066.01,150.676 3069,150.379 3071.99,150.082 3074.99,149.785 3077.98,149.49 3080.97,149.196 3083.96,148.902 3086.95,148.609 3089.94,148.317 3092.93,148.025 3095.92,147.735 3098.92,147.445 3101.91,147.156 3104.9,146.867 3107.89,146.58 3110.88,146.293 3113.87,146.007 3116.86,145.722 3119.85,145.438 3122.84,145.154 3125.84,144.871 3128.83,144.589 3131.82,144.308 3134.81,144.028 3137.8,143.748 3140.79,143.469 3143.78,143.191 3146.77,142.913 3149.76,142.636 3152.76,142.36 "/>
<path clip-path="url(#clip480)" d="M264.203 301.153 L906.212 301.153 L906.212 93.7926 L264.203 93.7926  Z" fill="#ffffff" fill-rule="evenodd" fill-opacity="1"/>
<polyline clip-path="url(#clip480)" style="stroke:#000000; stroke-linecap:round; stroke-linejoin:round; stroke-width:4; stroke-opacity:1; fill:none" points="264.203,301.153 906.212,301.153 906.212,93.7926 264.203,93.7926 264.203,301.153 "/>
<polyline clip-path="url(#clip480)" style="stroke:#009af9; stroke-linecap:round; stroke-linejoin:round; stroke-width:20; stroke-opacity:1; fill:none" points="297.405,145.633 496.616,145.633 "/>
<path clip-path="url(#clip480)" d="M529.818 128.353 L559.053 128.353 L559.053 132.288 L546.785 132.288 L546.785 162.913 L542.086 162.913 L542.086 132.288 L529.818 132.288 L529.818 128.353 Z" fill="#000000" fill-rule="nonzero" fill-opacity="1" /><path clip-path="url(#clip480)" d="M571.438 140.968 Q570.72 140.552 569.864 140.366 Q569.03 140.158 568.012 140.158 Q564.401 140.158 562.456 142.519 Q560.535 144.857 560.535 149.255 L560.535 162.913 L556.253 162.913 L556.253 136.987 L560.535 136.987 L560.535 141.015 Q561.878 138.653 564.03 137.519 Q566.183 136.362 569.262 136.362 Q569.702 136.362 570.234 136.431 Q570.766 136.478 571.415 136.593 L571.438 140.968 Z" fill="#000000" fill-rule="nonzero" fill-opacity="1" /><path clip-path="url(#clip480)" d="M575.465 152.681 L575.465 136.987 L579.725 136.987 L579.725 152.519 Q579.725 156.2 581.16 158.052 Q582.595 159.88 585.465 159.88 Q588.914 159.88 590.905 157.681 Q592.919 155.482 592.919 151.686 L592.919 136.987 L597.178 136.987 L597.178 162.913 L592.919 162.913 L592.919 158.931 Q591.368 161.292 589.308 162.45 Q587.271 163.584 584.563 163.584 Q580.095 163.584 577.78 160.806 Q575.465 158.028 575.465 152.681 M586.183 136.362 L586.183 136.362 Z" fill="#000000" fill-rule="nonzero" fill-opacity="1" /><path clip-path="url(#clip480)" d="M628.127 148.885 L628.127 150.968 L608.544 150.968 Q608.822 155.366 611.183 157.681 Q613.567 159.973 617.803 159.973 Q620.257 159.973 622.548 159.371 Q624.863 158.769 627.132 157.565 L627.132 161.593 Q624.84 162.565 622.433 163.075 Q620.025 163.584 617.549 163.584 Q611.345 163.584 607.711 159.973 Q604.1 156.362 604.1 150.204 Q604.1 143.839 607.525 140.112 Q610.974 136.362 616.808 136.362 Q622.039 136.362 625.072 139.741 Q628.127 143.098 628.127 148.885 M623.868 147.635 Q623.822 144.14 621.9 142.056 Q620.002 139.973 616.854 139.973 Q613.289 139.973 611.137 141.987 Q609.007 144.001 608.683 147.658 L623.868 147.635 Z" fill="#000000" fill-rule="nonzero" fill-opacity="1" /><path clip-path="url(#clip480)" d="M666.715 137.751 L666.715 141.778 Q664.909 140.853 662.965 140.39 Q661.021 139.927 658.937 139.927 Q655.766 139.927 654.169 140.899 Q652.595 141.871 652.595 143.815 Q652.595 145.297 653.729 146.153 Q654.863 146.987 658.289 147.751 L659.747 148.075 Q664.284 149.047 666.183 150.829 Q668.104 152.589 668.104 155.76 Q668.104 159.371 665.233 161.477 Q662.386 163.584 657.386 163.584 Q655.303 163.584 653.034 163.167 Q650.789 162.774 648.289 161.964 L648.289 157.565 Q650.65 158.792 652.942 159.417 Q655.234 160.019 657.479 160.019 Q660.488 160.019 662.108 159.001 Q663.729 157.959 663.729 156.084 Q663.729 154.348 662.548 153.422 Q661.391 152.496 657.433 151.64 L655.951 151.292 Q651.993 150.459 650.234 148.746 Q648.474 147.01 648.474 144.001 Q648.474 140.343 651.067 138.353 Q653.659 136.362 658.428 136.362 Q660.789 136.362 662.872 136.709 Q664.956 137.056 666.715 137.751 Z" fill="#000000" fill-rule="nonzero" fill-opacity="1" /><path clip-path="url(#clip480)" d="M684.932 139.973 Q681.507 139.973 679.516 142.658 Q677.525 145.32 677.525 149.973 Q677.525 154.626 679.493 157.311 Q681.483 159.973 684.932 159.973 Q688.335 159.973 690.326 157.288 Q692.317 154.602 692.317 149.973 Q692.317 145.366 690.326 142.681 Q688.335 139.973 684.932 139.973 M684.932 136.362 Q690.488 136.362 693.659 139.973 Q696.83 143.584 696.83 149.973 Q696.83 156.339 693.659 159.973 Q690.488 163.584 684.932 163.584 Q679.354 163.584 676.182 159.973 Q673.034 156.339 673.034 149.973 Q673.034 143.584 676.182 139.973 Q679.354 136.362 684.932 136.362 Z" fill="#000000" fill-rule="nonzero" fill-opacity="1" /><path clip-path="url(#clip480)" d="M703.891 126.894 L708.15 126.894 L708.15 162.913 L703.891 162.913 L703.891 126.894 Z" fill="#000000" fill-rule="nonzero" fill-opacity="1" /><path clip-path="url(#clip480)" d="M716.622 152.681 L716.622 136.987 L720.881 136.987 L720.881 152.519 Q720.881 156.2 722.316 158.052 Q723.752 159.88 726.622 159.88 Q730.071 159.88 732.062 157.681 Q734.076 155.482 734.076 151.686 L734.076 136.987 L738.335 136.987 L738.335 162.913 L734.076 162.913 L734.076 158.931 Q732.525 161.292 730.465 162.45 Q728.428 163.584 725.719 163.584 Q721.252 163.584 718.937 160.806 Q716.622 158.028 716.622 152.681 M727.34 136.362 L727.34 136.362 Z" fill="#000000" fill-rule="nonzero" fill-opacity="1" /><path clip-path="url(#clip480)" d="M751.321 129.626 L751.321 136.987 L760.094 136.987 L760.094 140.297 L751.321 140.297 L751.321 154.371 Q751.321 157.542 752.177 158.445 Q753.057 159.348 755.719 159.348 L760.094 159.348 L760.094 162.913 L755.719 162.913 Q750.789 162.913 748.914 161.084 Q747.039 159.232 747.039 154.371 L747.039 140.297 L743.914 140.297 L743.914 136.987 L747.039 136.987 L747.039 129.626 L751.321 129.626 Z" fill="#000000" fill-rule="nonzero" fill-opacity="1" /><path clip-path="url(#clip480)" d="M765.696 136.987 L769.955 136.987 L769.955 162.913 L765.696 162.913 L765.696 136.987 M765.696 126.894 L769.955 126.894 L769.955 132.288 L765.696 132.288 L765.696 126.894 Z" fill="#000000" fill-rule="nonzero" fill-opacity="1" /><path clip-path="url(#clip480)" d="M788.913 139.973 Q785.487 139.973 783.497 142.658 Q781.506 145.32 781.506 149.973 Q781.506 154.626 783.474 157.311 Q785.464 159.973 788.913 159.973 Q792.316 159.973 794.307 157.288 Q796.298 154.602 796.298 149.973 Q796.298 145.366 794.307 142.681 Q792.316 139.973 788.913 139.973 M788.913 136.362 Q794.469 136.362 797.64 139.973 Q800.811 143.584 800.811 149.973 Q800.811 156.339 797.64 159.973 Q794.469 163.584 788.913 163.584 Q783.335 163.584 780.163 159.973 Q777.015 156.339 777.015 149.973 Q777.015 143.584 780.163 139.973 Q783.335 136.362 788.913 136.362 Z" fill="#000000" fill-rule="nonzero" fill-opacity="1" /><path clip-path="url(#clip480)" d="M829.422 147.265 L829.422 162.913 L825.163 162.913 L825.163 147.403 Q825.163 143.723 823.728 141.894 Q822.293 140.066 819.422 140.066 Q815.973 140.066 813.983 142.265 Q811.992 144.464 811.992 148.26 L811.992 162.913 L807.71 162.913 L807.71 136.987 L811.992 136.987 L811.992 141.015 Q813.52 138.677 815.58 137.519 Q817.663 136.362 820.372 136.362 Q824.839 136.362 827.131 139.14 Q829.422 141.894 829.422 147.265 Z" fill="#000000" fill-rule="nonzero" fill-opacity="1" /><circle clip-path="url(#clip480)" cx="397.01" cy="197.473" r="21.2677" fill="#0000ff" fill-rule="evenodd" fill-opacity="1" stroke="#000000" stroke-opacity="1" stroke-width="3.15077"/>
<path clip-path="url(#clip480)" d="M529.818 180.193 L536.785 180.193 L545.604 203.711 L554.47 180.193 L561.438 180.193 L561.438 214.753 L556.878 214.753 L556.878 184.406 L547.966 208.109 L543.267 208.109 L534.355 184.406 L534.355 214.753 L529.818 214.753 L529.818 180.193 Z" fill="#000000" fill-rule="nonzero" fill-opacity="1" /><path clip-path="url(#clip480)" d="M592.711 200.725 L592.711 202.808 L573.127 202.808 Q573.405 207.206 575.766 209.521 Q578.151 211.813 582.387 211.813 Q584.84 211.813 587.132 211.211 Q589.447 210.609 591.715 209.405 L591.715 213.433 Q589.424 214.405 587.016 214.915 Q584.609 215.424 582.132 215.424 Q575.928 215.424 572.294 211.813 Q568.683 208.202 568.683 202.044 Q568.683 195.679 572.109 191.952 Q575.558 188.202 581.391 188.202 Q586.623 188.202 589.655 191.581 Q592.711 194.938 592.711 200.725 M588.451 199.475 Q588.405 195.98 586.484 193.896 Q584.586 191.813 581.438 191.813 Q577.873 191.813 575.72 193.827 Q573.59 195.841 573.266 199.498 L588.451 199.475 Z" fill="#000000" fill-rule="nonzero" fill-opacity="1" /><path clip-path="url(#clip480)" d="M611.484 201.72 Q606.322 201.72 604.331 202.901 Q602.34 204.081 602.34 206.929 Q602.34 209.197 603.822 210.54 Q605.326 211.859 607.896 211.859 Q611.437 211.859 613.567 209.359 Q615.72 206.836 615.72 202.669 L615.72 201.72 L611.484 201.72 M619.979 199.961 L619.979 214.753 L615.72 214.753 L615.72 210.817 Q614.261 213.179 612.086 214.313 Q609.91 215.424 606.762 215.424 Q602.78 215.424 600.419 213.202 Q598.081 210.956 598.081 207.206 Q598.081 202.831 600.998 200.609 Q603.937 198.387 609.748 198.387 L615.72 198.387 L615.72 197.97 Q615.72 195.031 613.775 193.433 Q611.854 191.813 608.359 191.813 Q606.137 191.813 604.03 192.345 Q601.924 192.878 599.979 193.943 L599.979 190.007 Q602.317 189.105 604.516 188.665 Q606.715 188.202 608.799 188.202 Q614.424 188.202 617.201 191.118 Q619.979 194.035 619.979 199.961 Z" fill="#000000" fill-rule="nonzero" fill-opacity="1" /><path clip-path="url(#clip480)" d="M645.28 189.591 L645.28 193.618 Q643.474 192.693 641.53 192.23 Q639.585 191.767 637.502 191.767 Q634.331 191.767 632.734 192.739 Q631.16 193.711 631.16 195.655 Q631.16 197.137 632.294 197.993 Q633.428 198.827 636.854 199.591 L638.312 199.915 Q642.849 200.887 644.747 202.669 Q646.669 204.429 646.669 207.6 Q646.669 211.211 643.798 213.317 Q640.951 215.424 635.951 215.424 Q633.868 215.424 631.599 215.007 Q629.354 214.614 626.854 213.804 L626.854 209.405 Q629.215 210.632 631.507 211.257 Q633.798 211.859 636.044 211.859 Q639.053 211.859 640.673 210.841 Q642.294 209.799 642.294 207.924 Q642.294 206.188 641.113 205.262 Q639.956 204.336 635.997 203.48 L634.516 203.132 Q630.558 202.299 628.798 200.586 Q627.039 198.85 627.039 195.841 Q627.039 192.183 629.632 190.193 Q632.224 188.202 636.993 188.202 Q639.354 188.202 641.437 188.549 Q643.521 188.896 645.28 189.591 Z" fill="#000000" fill-rule="nonzero" fill-opacity="1" /><path clip-path="url(#clip480)" d="M653.011 204.521 L653.011 188.827 L657.271 188.827 L657.271 204.359 Q657.271 208.04 658.706 209.892 Q660.141 211.72 663.011 211.72 Q666.46 211.72 668.451 209.521 Q670.465 207.322 670.465 203.526 L670.465 188.827 L674.724 188.827 L674.724 214.753 L670.465 214.753 L670.465 210.771 Q668.914 213.132 666.854 214.29 Q664.817 215.424 662.108 215.424 Q657.641 215.424 655.326 212.646 Q653.011 209.868 653.011 204.521 M663.729 188.202 L663.729 188.202 Z" fill="#000000" fill-rule="nonzero" fill-opacity="1" /><path clip-path="url(#clip480)" d="M698.52 192.808 Q697.803 192.392 696.946 192.206 Q696.113 191.998 695.094 191.998 Q691.483 191.998 689.539 194.359 Q687.618 196.697 687.618 201.095 L687.618 214.753 L683.335 214.753 L683.335 188.827 L687.618 188.827 L687.618 192.855 Q688.96 190.493 691.113 189.359 Q693.266 188.202 696.344 188.202 Q696.784 188.202 697.317 188.271 Q697.849 188.318 698.497 188.433 L698.52 192.808 Z" fill="#000000" fill-rule="nonzero" fill-opacity="1" /><path clip-path="url(#clip480)" d="M724.122 200.725 L724.122 202.808 L704.539 202.808 Q704.817 207.206 707.178 209.521 Q709.562 211.813 713.798 211.813 Q716.252 211.813 718.543 211.211 Q720.858 210.609 723.127 209.405 L723.127 213.433 Q720.835 214.405 718.428 214.915 Q716.02 215.424 713.543 215.424 Q707.34 215.424 703.705 211.813 Q700.094 208.202 700.094 202.044 Q700.094 195.679 703.52 191.952 Q706.969 188.202 712.803 188.202 Q718.034 188.202 721.066 191.581 Q724.122 194.938 724.122 200.725 M719.863 199.475 Q719.816 195.98 717.895 193.896 Q715.997 191.813 712.849 191.813 Q709.284 191.813 707.131 193.827 Q705.002 195.841 704.678 199.498 L719.863 199.475 Z" fill="#000000" fill-rule="nonzero" fill-opacity="1" /><path clip-path="url(#clip480)" d="M751.298 193.804 Q752.895 190.933 755.117 189.568 Q757.339 188.202 760.349 188.202 Q764.4 188.202 766.599 191.049 Q768.798 193.873 768.798 199.105 L768.798 214.753 L764.515 214.753 L764.515 199.243 Q764.515 195.517 763.196 193.711 Q761.876 191.906 759.168 191.906 Q755.858 191.906 753.937 194.105 Q752.015 196.304 752.015 200.1 L752.015 214.753 L747.733 214.753 L747.733 199.243 Q747.733 195.493 746.414 193.711 Q745.094 191.906 742.34 191.906 Q739.076 191.906 737.154 194.128 Q735.233 196.327 735.233 200.1 L735.233 214.753 L730.951 214.753 L730.951 188.827 L735.233 188.827 L735.233 192.855 Q736.691 190.47 738.728 189.336 Q740.765 188.202 743.566 188.202 Q746.39 188.202 748.358 189.637 Q750.349 191.072 751.298 193.804 Z" fill="#000000" fill-rule="nonzero" fill-opacity="1" /><path clip-path="url(#clip480)" d="M799.469 200.725 L799.469 202.808 L779.886 202.808 Q780.163 207.206 782.524 209.521 Q784.909 211.813 789.145 211.813 Q791.599 211.813 793.89 211.211 Q796.205 210.609 798.473 209.405 L798.473 213.433 Q796.182 214.405 793.774 214.915 Q791.367 215.424 788.89 215.424 Q782.687 215.424 779.052 211.813 Q775.441 208.202 775.441 202.044 Q775.441 195.679 778.867 191.952 Q782.316 188.202 788.149 188.202 Q793.381 188.202 796.413 191.581 Q799.469 194.938 799.469 200.725 M795.21 199.475 Q795.163 195.98 793.242 193.896 Q791.344 191.813 788.196 191.813 Q784.631 191.813 782.478 193.827 Q780.349 195.841 780.024 199.498 L795.21 199.475 Z" fill="#000000" fill-rule="nonzero" fill-opacity="1" /><path clip-path="url(#clip480)" d="M828.01 199.105 L828.01 214.753 L823.751 214.753 L823.751 199.243 Q823.751 195.563 822.316 193.734 Q820.881 191.906 818.01 191.906 Q814.561 191.906 812.571 194.105 Q810.58 196.304 810.58 200.1 L810.58 214.753 L806.298 214.753 L806.298 188.827 L810.58 188.827 L810.58 192.855 Q812.108 190.517 814.168 189.359 Q816.251 188.202 818.959 188.202 Q823.427 188.202 825.719 190.98 Q828.01 193.734 828.01 199.105 Z" fill="#000000" fill-rule="nonzero" fill-opacity="1" /><path clip-path="url(#clip480)" d="M840.719 181.466 L840.719 188.827 L849.492 188.827 L849.492 192.137 L840.719 192.137 L840.719 206.211 Q840.719 209.382 841.575 210.285 Q842.455 211.188 845.117 211.188 L849.492 211.188 L849.492 214.753 L845.117 214.753 Q840.186 214.753 838.311 212.924 Q836.436 211.072 836.436 206.211 L836.436 192.137 L833.311 192.137 L833.311 188.827 L836.436 188.827 L836.436 181.466 L840.719 181.466 Z" fill="#000000" fill-rule="nonzero" fill-opacity="1" /><path clip-path="url(#clip480)" d="M871.621 189.591 L871.621 193.618 Q869.816 192.693 867.871 192.23 Q865.927 191.767 863.843 191.767 Q860.672 191.767 859.075 192.739 Q857.501 193.711 857.501 195.655 Q857.501 197.137 858.635 197.993 Q859.769 198.827 863.195 199.591 L864.654 199.915 Q869.191 200.887 871.089 202.669 Q873.01 204.429 873.01 207.6 Q873.01 211.211 870.14 213.317 Q867.293 215.424 862.293 215.424 Q860.209 215.424 857.941 215.007 Q855.695 214.614 853.195 213.804 L853.195 209.405 Q855.557 210.632 857.848 211.257 Q860.14 211.859 862.385 211.859 Q865.394 211.859 867.015 210.841 Q868.635 209.799 868.635 207.924 Q868.635 206.188 867.455 205.262 Q866.297 204.336 862.339 203.48 L860.857 203.132 Q856.899 202.299 855.14 200.586 Q853.381 198.85 853.381 195.841 Q853.381 192.183 855.973 190.193 Q858.566 188.202 863.334 188.202 Q865.695 188.202 867.779 188.549 Q869.862 188.896 871.621 189.591 Z" fill="#000000" fill-rule="nonzero" fill-opacity="1" /><polyline clip-path="url(#clip480)" style="stroke:#add8e6; stroke-linecap:round; stroke-linejoin:round; stroke-width:20; stroke-opacity:1; fill:none" stroke-dasharray="80, 50" points="297.405,249.313 496.616,249.313 "/>
<path clip-path="url(#clip480)" d="M529.818 232.033 L549.679 232.033 L549.679 235.968 L534.493 235.968 L534.493 246.153 L548.197 246.153 L548.197 250.088 L534.493 250.088 L534.493 266.593 L529.818 266.593 L529.818 232.033 Z" fill="#000000" fill-rule="nonzero" fill-opacity="1" /><path clip-path="url(#clip480)" d="M553.452 240.667 L557.711 240.667 L557.711 266.593 L553.452 266.593 L553.452 240.667 M553.452 230.574 L557.711 230.574 L557.711 235.968 L553.452 235.968 L553.452 230.574 Z" fill="#000000" fill-rule="nonzero" fill-opacity="1" /><path clip-path="url(#clip480)" d="M570.836 233.306 L570.836 240.667 L579.609 240.667 L579.609 243.977 L570.836 243.977 L570.836 258.051 Q570.836 261.222 571.692 262.125 Q572.572 263.028 575.234 263.028 L579.609 263.028 L579.609 266.593 L575.234 266.593 Q570.303 266.593 568.428 264.764 Q566.553 262.912 566.553 258.051 L566.553 243.977 L563.428 243.977 L563.428 240.667 L566.553 240.667 L566.553 233.306 L570.836 233.306 Z" fill="#000000" fill-rule="nonzero" fill-opacity="1" /><path clip-path="url(#clip480)" d="M589.424 233.306 L589.424 240.667 L598.197 240.667 L598.197 243.977 L589.424 243.977 L589.424 258.051 Q589.424 261.222 590.28 262.125 Q591.16 263.028 593.822 263.028 L598.197 263.028 L598.197 266.593 L593.822 266.593 Q588.891 266.593 587.016 264.764 Q585.141 262.912 585.141 258.051 L585.141 243.977 L582.016 243.977 L582.016 240.667 L585.141 240.667 L585.141 233.306 L589.424 233.306 Z" fill="#000000" fill-rule="nonzero" fill-opacity="1" /><path clip-path="url(#clip480)" d="M625.974 252.565 L625.974 254.648 L606.391 254.648 Q606.669 259.046 609.03 261.361 Q611.414 263.653 615.65 263.653 Q618.104 263.653 620.396 263.051 Q622.711 262.449 624.979 261.245 L624.979 265.273 Q622.687 266.245 620.28 266.755 Q617.873 267.264 615.396 267.264 Q609.192 267.264 605.558 263.653 Q601.947 260.042 601.947 253.884 Q601.947 247.519 605.373 243.792 Q608.822 240.042 614.655 240.042 Q619.886 240.042 622.919 243.421 Q625.974 246.778 625.974 252.565 M621.715 251.315 Q621.669 247.82 619.748 245.736 Q617.849 243.653 614.701 243.653 Q611.137 243.653 608.984 245.667 Q606.854 247.681 606.53 251.338 L621.715 251.315 Z" fill="#000000" fill-rule="nonzero" fill-opacity="1" /><path clip-path="url(#clip480)" d="M650.025 244.602 L650.025 230.574 L654.284 230.574 L654.284 266.593 L650.025 266.593 L650.025 262.704 Q648.683 265.019 646.622 266.153 Q644.585 267.264 641.715 267.264 Q637.016 267.264 634.053 263.514 Q631.113 259.764 631.113 253.653 Q631.113 247.542 634.053 243.792 Q637.016 240.042 641.715 240.042 Q644.585 240.042 646.622 241.176 Q648.683 242.287 650.025 244.602 M635.511 253.653 Q635.511 258.352 637.433 261.037 Q639.377 263.699 642.757 263.699 Q646.136 263.699 648.081 261.037 Q650.025 258.352 650.025 253.653 Q650.025 248.954 648.081 246.292 Q646.136 243.607 642.757 243.607 Q639.377 243.607 637.433 246.292 Q635.511 248.954 635.511 253.653 Z" fill="#000000" fill-rule="nonzero" fill-opacity="1" /><path clip-path="url(#clip480)" d="M694.655 241.431 L694.655 245.458 Q692.849 244.533 690.905 244.07 Q688.96 243.607 686.877 243.607 Q683.706 243.607 682.108 244.579 Q680.534 245.551 680.534 247.495 Q680.534 248.977 681.669 249.833 Q682.803 250.667 686.229 251.431 L687.687 251.755 Q692.224 252.727 694.122 254.509 Q696.043 256.269 696.043 259.44 Q696.043 263.051 693.173 265.157 Q690.326 267.264 685.326 267.264 Q683.243 267.264 680.974 266.847 Q678.729 266.454 676.229 265.644 L676.229 261.245 Q678.59 262.472 680.882 263.097 Q683.173 263.699 685.419 263.699 Q688.428 263.699 690.048 262.681 Q691.668 261.639 691.668 259.764 Q691.668 258.028 690.488 257.102 Q689.331 256.176 685.372 255.32 L683.891 254.972 Q679.932 254.139 678.173 252.426 Q676.414 250.69 676.414 247.681 Q676.414 244.023 679.007 242.033 Q681.599 240.042 686.368 240.042 Q688.729 240.042 690.812 240.389 Q692.895 240.736 694.655 241.431 Z" fill="#000000" fill-rule="nonzero" fill-opacity="1" /><path clip-path="url(#clip480)" d="M712.872 243.653 Q709.446 243.653 707.455 246.338 Q705.465 249 705.465 253.653 Q705.465 258.306 707.432 260.991 Q709.423 263.653 712.872 263.653 Q716.275 263.653 718.266 260.968 Q720.256 258.282 720.256 253.653 Q720.256 249.046 718.266 246.361 Q716.275 243.653 712.872 243.653 M712.872 240.042 Q718.428 240.042 721.599 243.653 Q724.77 247.264 724.77 253.653 Q724.77 260.019 721.599 263.653 Q718.428 267.264 712.872 267.264 Q707.293 267.264 704.122 263.653 Q700.974 260.019 700.974 253.653 Q700.974 247.264 704.122 243.653 Q707.293 240.042 712.872 240.042 Z" fill="#000000" fill-rule="nonzero" fill-opacity="1" /><path clip-path="url(#clip480)" d="M731.83 230.574 L736.09 230.574 L736.09 266.593 L731.83 266.593 L731.83 230.574 Z" fill="#000000" fill-rule="nonzero" fill-opacity="1" /><path clip-path="url(#clip480)" d="M744.562 256.361 L744.562 240.667 L748.821 240.667 L748.821 256.199 Q748.821 259.88 750.256 261.732 Q751.691 263.56 754.562 263.56 Q758.011 263.56 760.001 261.361 Q762.015 259.162 762.015 255.366 L762.015 240.667 L766.275 240.667 L766.275 266.593 L762.015 266.593 L762.015 262.611 Q760.464 264.972 758.404 266.13 Q756.367 267.264 753.659 267.264 Q749.191 267.264 746.877 264.486 Q744.562 261.708 744.562 256.361 M755.279 240.042 L755.279 240.042 Z" fill="#000000" fill-rule="nonzero" fill-opacity="1" /><path clip-path="url(#clip480)" d="M779.261 233.306 L779.261 240.667 L788.034 240.667 L788.034 243.977 L779.261 243.977 L779.261 258.051 Q779.261 261.222 780.117 262.125 Q780.997 263.028 783.659 263.028 L788.034 263.028 L788.034 266.593 L783.659 266.593 Q778.728 266.593 776.853 264.764 Q774.978 262.912 774.978 258.051 L774.978 243.977 L771.853 243.977 L771.853 240.667 L774.978 240.667 L774.978 233.306 L779.261 233.306 Z" fill="#000000" fill-rule="nonzero" fill-opacity="1" /><path clip-path="url(#clip480)" d="M793.636 240.667 L797.895 240.667 L797.895 266.593 L793.636 266.593 L793.636 240.667 M793.636 230.574 L797.895 230.574 L797.895 235.968 L793.636 235.968 L793.636 230.574 Z" fill="#000000" fill-rule="nonzero" fill-opacity="1" /><path clip-path="url(#clip480)" d="M816.853 243.653 Q813.427 243.653 811.436 246.338 Q809.446 249 809.446 253.653 Q809.446 258.306 811.413 260.991 Q813.404 263.653 816.853 263.653 Q820.256 263.653 822.246 260.968 Q824.237 258.282 824.237 253.653 Q824.237 249.046 822.246 246.361 Q820.256 243.653 816.853 243.653 M816.853 240.042 Q822.409 240.042 825.58 243.653 Q828.751 247.264 828.751 253.653 Q828.751 260.019 825.58 263.653 Q822.409 267.264 816.853 267.264 Q811.274 267.264 808.103 263.653 Q804.955 260.019 804.955 253.653 Q804.955 247.264 808.103 243.653 Q811.274 240.042 816.853 240.042 Z" fill="#000000" fill-rule="nonzero" fill-opacity="1" /><path clip-path="url(#clip480)" d="M857.362 250.945 L857.362 266.593 L853.103 266.593 L853.103 251.083 Q853.103 247.403 851.668 245.574 Q850.232 243.746 847.362 243.746 Q843.913 243.746 841.922 245.945 Q839.932 248.144 839.932 251.94 L839.932 266.593 L835.649 266.593 L835.649 240.667 L839.932 240.667 L839.932 244.695 Q841.459 242.357 843.52 241.199 Q845.603 240.042 848.311 240.042 Q852.779 240.042 855.07 242.82 Q857.362 245.574 857.362 250.945 Z" fill="#000000" fill-rule="nonzero" fill-opacity="1" /></svg>
