<?xml version="1.0" encoding="utf-8"?>
<svg xmlns="http://www.w3.org/2000/svg" xmlns:xlink="http://www.w3.org/1999/xlink" width="800" height="400" viewBox="0 0 3200 1600">
<defs>
  <clipPath id="clip010">
    <rect x="0" y="0" width="3200" height="1600"/>
  </clipPath>
</defs>
<path clip-path="url(#clip010)" d="M0 1600 L3200 1600 L3200 0 L0 0  Z" fill="#ffffff" fill-rule="evenodd" fill-opacity="1"/>
<defs>
  <clipPath id="clip011">
    <rect x="640" y="0" width="2241" height="1600"/>
  </clipPath>
</defs>
<path clip-path="url(#clip010)" d="M211.842 1396.46 L3152.76 1396.46 L3152.76 47.2441 L211.842 47.2441  Z" fill="#ffffff" fill-rule="evenodd" fill-opacity="1"/>
<defs>
  <clipPath id="clip012">
    <rect x="211" y="47" width="2942" height="1350"/>
  </clipPath>
</defs>
<polyline clip-path="url(#clip012)" style="stroke:#000000; stroke-linecap:round; stroke-linejoin:round; stroke-width:2; stroke-opacity:0.1; fill:none" points="211.842,1396.46 211.842,47.2441 "/>
<polyline clip-path="url(#clip012)" style="stroke:#000000; stroke-linecap:round; stroke-linejoin:round; stroke-width:2; stroke-opacity:0.1; fill:none" points="800.025,1396.46 800.025,47.2441 "/>
<polyline clip-path="url(#clip012)" style="stroke:#000000; stroke-linecap:round; stroke-linejoin:round; stroke-width:2; stroke-opacity:0.1; fill:none" points="1388.21,1396.46 1388.21,47.2441 "/>
<polyline clip-path="url(#clip012)" style="stroke:#000000; stroke-linecap:round; stroke-linejoin:round; stroke-width:2; stroke-opacity:0.1; fill:none" points="1976.39,1396.46 1976.39,47.2441 "/>
<polyline clip-path="url(#clip012)" style="stroke:#000000; stroke-linecap:round; stroke-linejoin:round; stroke-width:2; stroke-opacity:0.1; fill:none" points="2564.57,1396.46 2564.57,47.2441 "/>
<polyline clip-path="url(#clip012)" style="stroke:#000000; stroke-linecap:round; stroke-linejoin:round; stroke-width:2; stroke-opacity:0.1; fill:none" points="3152.76,1396.46 3152.76,47.2441 "/>
<polyline clip-path="url(#clip012)" style="stroke:#000000; stroke-linecap:round; stroke-linejoin:round; stroke-width:2; stroke-opacity:0.1; fill:none" points="211.842,1396.46 211.842,47.2441 "/>
<polyline clip-path="url(#clip012)" style="stroke:#000000; stroke-linecap:round; stroke-linejoin:round; stroke-width:2; stroke-opacity:0.1; fill:none" points="800.025,1396.46 800.025,47.2441 "/>
<polyline clip-path="url(#clip012)" style="stroke:#000000; stroke-linecap:round; stroke-linejoin:round; stroke-width:2; stroke-opacity:0.1; fill:none" points="1388.21,1396.46 1388.21,47.2441 "/>
<polyline clip-path="url(#clip012)" style="stroke:#000000; stroke-linecap:round; stroke-linejoin:round; stroke-width:2; stroke-opacity:0.1; fill:none" points="1976.39,1396.46 1976.39,47.2441 "/>
<polyline clip-path="url(#clip012)" style="stroke:#000000; stroke-linecap:round; stroke-linejoin:round; stroke-width:2; stroke-opacity:0.1; fill:none" points="2564.57,1396.46 2564.57,47.2441 "/>
<polyline clip-path="url(#clip012)" style="stroke:#000000; stroke-linecap:round; stroke-linejoin:round; stroke-width:2; stroke-opacity:0.1; fill:none" points="3152.76,1396.46 3152.76,47.2441 "/>
<polyline clip-path="url(#clip012)" style="stroke:#000000; stroke-linecap:round; stroke-linejoin:round; stroke-width:2; stroke-opacity:0.1; fill:none" points="211.842,1358.27 3152.76,1358.27 "/>
<polyline clip-path="url(#clip012)" style="stroke:#000000; stroke-linecap:round; stroke-linejoin:round; stroke-width:2; stroke-opacity:0.1; fill:none" points="211.842,1094.87 3152.76,1094.87 "/>
<polyline clip-path="url(#clip012)" style="stroke:#000000; stroke-linecap:round; stroke-linejoin:round; stroke-width:2; stroke-opacity:0.1; fill:none" points="211.842,831.464 3152.76,831.464 "/>
<polyline clip-path="url(#clip012)" style="stroke:#000000; stroke-linecap:round; stroke-linejoin:round; stroke-width:2; stroke-opacity:0.1; fill:none" points="211.842,568.061 3152.76,568.061 "/>
<polyline clip-path="url(#clip012)" style="stroke:#000000; stroke-linecap:round; stroke-linejoin:round; stroke-width:2; stroke-opacity:0.1; fill:none" points="211.842,304.658 3152.76,304.658 "/>
<polyline clip-path="url(#clip012)" style="stroke:#000000; stroke-linecap:round; stroke-linejoin:round; stroke-width:2; stroke-opacity:0.1; fill:none" points="211.842,1358.27 3152.76,1358.27 "/>
<polyline clip-path="url(#clip012)" style="stroke:#000000; stroke-linecap:round; stroke-linejoin:round; stroke-width:2; stroke-opacity:0.1; fill:none" points="211.842,1094.87 3152.76,1094.87 "/>
<polyline clip-path="url(#clip012)" style="stroke:#000000; stroke-linecap:round; stroke-linejoin:round; stroke-width:2; stroke-opacity:0.1; fill:none" points="211.842,831.464 3152.76,831.464 "/>
<polyline clip-path="url(#clip012)" style="stroke:#000000; stroke-linecap:round; stroke-linejoin:round; stroke-width:2; stroke-opacity:0.1; fill:none" points="211.842,568.061 3152.76,568.061 "/>
<polyline clip-path="url(#clip012)" style="stroke:#000000; stroke-linecap:round; stroke-linejoin:round; stroke-width:2; stroke-opacity:0.1; fill:none" points="211.842,304.658 3152.76,304.658 "/>
<polyline clip-path="url(#clip010)" style="stroke:#000000; stroke-linecap:round; stroke-linejoin:round; stroke-width:4; stroke-opacity:1; fill:none" points="211.842,1396.46 3152.76,1396.46 "/>
<polyline clip-path="url(#clip010)" style="stroke:#000000; stroke-linecap:round; stroke-linejoin:round; stroke-width:4; stroke-opacity:1; fill:none" points="211.842,47.2441 3152.76,47.2441 "/>
<polyline clip-path="url(#clip010)" style="stroke:#000000; stroke-linecap:round; stroke-linejoin:round; stroke-width:4; stroke-opacity:1; fill:none" points="211.842,1396.46 211.842,1377.56 "/>
<polyline clip-path="url(#clip010)" style="stroke:#000000; stroke-linecap:round; stroke-linejoin:round; stroke-width:4; stroke-opacity:1; fill:none" points="800.025,1396.46 800.025,1377.56 "/>
<polyline clip-path="url(#clip010)" style="stroke:#000000; stroke-linecap:round; stroke-linejoin:round; stroke-width:4; stroke-opacity:1; fill:none" points="1388.21,1396.46 1388.21,1377.56 "/>
<polyline clip-path="url(#clip010)" style="stroke:#000000; stroke-linecap:round; stroke-linejoin:round; stroke-width:4; stroke-opacity:1; fill:none" points="1976.39,1396.46 1976.39,1377.56 "/>
<polyline clip-path="url(#clip010)" style="stroke:#000000; stroke-linecap:round; stroke-linejoin:round; stroke-width:4; stroke-opacity:1; fill:none" points="2564.57,1396.46 2564.57,1377.56 "/>
<polyline clip-path="url(#clip010)" style="stroke:#000000; stroke-linecap:round; stroke-linejoin:round; stroke-width:4; stroke-opacity:1; fill:none" points="3152.76,1396.46 3152.76,1377.56 "/>
<polyline clip-path="url(#clip010)" style="stroke:#000000; stroke-linecap:round; stroke-linejoin:round; stroke-width:4; stroke-opacity:1; fill:none" points="211.842,47.2441 211.842,66.1417 "/>
<polyline clip-path="url(#clip010)" style="stroke:#000000; stroke-linecap:round; stroke-linejoin:round; stroke-width:4; stroke-opacity:1; fill:none" points="800.025,47.2441 800.025,66.1417 "/>
<polyline clip-path="url(#clip010)" style="stroke:#000000; stroke-linecap:round; stroke-linejoin:round; stroke-width:4; stroke-opacity:1; fill:none" points="1388.21,47.2441 1388.21,66.1417 "/>
<polyline clip-path="url(#clip010)" style="stroke:#000000; stroke-linecap:round; stroke-linejoin:round; stroke-width:4; stroke-opacity:1; fill:none" points="1976.39,47.2441 1976.39,66.1417 "/>
<polyline clip-path="url(#clip010)" style="stroke:#000000; stroke-linecap:round; stroke-linejoin:round; stroke-width:4; stroke-opacity:1; fill:none" points="2564.57,47.2441 2564.57,66.1417 "/>
<polyline clip-path="url(#clip010)" style="stroke:#000000; stroke-linecap:round; stroke-linejoin:round; stroke-width:4; stroke-opacity:1; fill:none" points="3152.76,47.2441 3152.76,66.1417 "/>
<path clip-path="url(#clip010)" d="M211.842 1433.77 Q208.231 1433.77 206.403 1437.34 Q204.597 1440.88 204.597 1448.01 Q204.597 1455.12 206.403 1458.68 Q208.231 1462.22 211.842 1462.22 Q215.477 1462.22 217.282 1458.68 Q219.111 1455.12 219.111 1448.01 Q219.111 1440.88 217.282 1437.34 Q215.477 1433.77 211.842 1433.77 M211.842 1430.07 Q217.652 1430.07 220.708 1434.68 Q223.787 1439.26 223.787 1448.01 Q223.787 1456.74 220.708 1461.34 Q217.652 1465.93 211.842 1465.93 Q206.032 1465.93 202.953 1461.34 Q199.898 1456.74 199.898 1448.01 Q199.898 1439.26 202.953 1434.68 Q206.032 1430.07 211.842 1430.07 Z" fill="#000000" fill-rule="nonzero" fill-opacity="1" /><path clip-path="url(#clip010)" d="M794.678 1461.32 L810.997 1461.32 L810.997 1465.26 L789.053 1465.26 L789.053 1461.32 Q791.715 1458.57 796.298 1453.94 Q800.905 1449.28 802.085 1447.94 Q804.331 1445.42 805.21 1443.68 Q806.113 1441.92 806.113 1440.23 Q806.113 1437.48 804.169 1435.74 Q802.247 1434.01 799.145 1434.01 Q796.946 1434.01 794.493 1434.77 Q792.062 1435.53 789.284 1437.08 L789.284 1432.36 Q792.108 1431.23 794.562 1430.65 Q797.016 1430.07 799.053 1430.07 Q804.423 1430.07 807.618 1432.76 Q810.812 1435.44 810.812 1439.93 Q810.812 1442.06 810.002 1443.98 Q809.215 1445.88 807.108 1448.47 Q806.53 1449.14 803.428 1452.36 Q800.326 1455.56 794.678 1461.32 Z" fill="#000000" fill-rule="nonzero" fill-opacity="1" /><path clip-path="url(#clip010)" d="M1391.22 1434.77 L1379.41 1453.22 L1391.22 1453.22 L1391.22 1434.77 M1389.99 1430.7 L1395.87 1430.7 L1395.87 1453.22 L1400.8 1453.22 L1400.8 1457.11 L1395.87 1457.11 L1395.87 1465.26 L1391.22 1465.26 L1391.22 1457.11 L1375.62 1457.11 L1375.62 1452.59 L1389.99 1430.7 Z" fill="#000000" fill-rule="nonzero" fill-opacity="1" /><path clip-path="url(#clip010)" d="M1976.8 1446.11 Q1973.65 1446.11 1971.8 1448.27 Q1969.97 1450.42 1969.97 1454.17 Q1969.97 1457.89 1971.8 1460.07 Q1973.65 1462.22 1976.8 1462.22 Q1979.94 1462.22 1981.77 1460.07 Q1983.62 1457.89 1983.62 1454.17 Q1983.62 1450.42 1981.77 1448.27 Q1979.94 1446.11 1976.8 1446.11 M1986.08 1431.46 L1986.08 1435.72 Q1984.32 1434.89 1982.51 1434.45 Q1980.73 1434.01 1978.97 1434.01 Q1974.34 1434.01 1971.89 1437.13 Q1969.46 1440.26 1969.11 1446.58 Q1970.48 1444.56 1972.54 1443.5 Q1974.6 1442.41 1977.07 1442.41 Q1982.28 1442.41 1985.29 1445.58 Q1988.32 1448.73 1988.32 1454.17 Q1988.32 1459.49 1985.18 1462.71 Q1982.03 1465.93 1976.8 1465.93 Q1970.8 1465.93 1967.63 1461.34 Q1964.46 1456.74 1964.46 1448.01 Q1964.46 1439.82 1968.35 1434.95 Q1972.24 1430.07 1978.79 1430.07 Q1980.55 1430.07 1982.33 1430.42 Q1984.13 1430.77 1986.08 1431.46 Z" fill="#000000" fill-rule="nonzero" fill-opacity="1" /><path clip-path="url(#clip010)" d="M2564.57 1448.84 Q2561.24 1448.84 2559.32 1450.63 Q2557.42 1452.41 2557.42 1455.53 Q2557.42 1458.66 2559.32 1460.44 Q2561.24 1462.22 2564.57 1462.22 Q2567.91 1462.22 2569.83 1460.44 Q2571.75 1458.64 2571.75 1455.53 Q2571.75 1452.41 2569.83 1450.63 Q2567.93 1448.84 2564.57 1448.84 M2559.9 1446.85 Q2556.89 1446.11 2555.2 1444.05 Q2553.53 1441.99 2553.53 1439.03 Q2553.53 1434.89 2556.47 1432.48 Q2559.43 1430.07 2564.57 1430.07 Q2569.74 1430.07 2572.67 1432.48 Q2575.61 1434.89 2575.61 1439.03 Q2575.61 1441.99 2573.92 1444.05 Q2572.26 1446.11 2569.27 1446.85 Q2572.65 1447.64 2574.53 1449.93 Q2576.42 1452.22 2576.42 1455.53 Q2576.42 1460.56 2573.35 1463.24 Q2570.29 1465.93 2564.57 1465.93 Q2558.86 1465.93 2555.78 1463.24 Q2552.72 1460.56 2552.72 1455.53 Q2552.72 1452.22 2554.62 1449.93 Q2556.52 1447.64 2559.9 1446.85 M2558.18 1439.47 Q2558.18 1442.15 2559.85 1443.66 Q2561.54 1445.16 2564.57 1445.16 Q2567.58 1445.16 2569.27 1443.66 Q2570.99 1442.15 2570.99 1439.47 Q2570.99 1436.78 2569.27 1435.28 Q2567.58 1433.77 2564.57 1433.77 Q2561.54 1433.77 2559.85 1435.28 Q2558.18 1436.78 2558.18 1439.47 Z" fill="#000000" fill-rule="nonzero" fill-opacity="1" /><path clip-path="url(#clip010)" d="M3127.44 1461.32 L3135.08 1461.32 L3135.08 1434.95 L3126.77 1436.62 L3126.77 1432.36 L3135.04 1430.7 L3139.71 1430.7 L3139.71 1461.32 L3147.35 1461.32 L3147.35 1465.26 L3127.44 1465.26 L3127.44 1461.32 Z" fill="#000000" fill-rule="nonzero" fill-opacity="1" /><path clip-path="url(#clip010)" d="M3166.8 1433.77 Q3163.18 1433.77 3161.36 1437.34 Q3159.55 1440.88 3159.55 1448.01 Q3159.55 1455.12 3161.36 1458.68 Q3163.18 1462.22 3166.8 1462.22 Q3170.43 1462.22 3172.23 1458.68 Q3174.06 1455.12 3174.06 1448.01 Q3174.06 1440.88 3172.23 1437.34 Q3170.43 1433.77 3166.8 1433.77 M3166.8 1430.07 Q3172.61 1430.07 3175.66 1434.68 Q3178.74 1439.26 3178.74 1448.01 Q3178.74 1456.74 3175.66 1461.34 Q3172.61 1465.93 3166.8 1465.93 Q3160.99 1465.93 3157.91 1461.34 Q3154.85 1456.74 3154.85 1448.01 Q3154.85 1439.26 3157.91 1434.68 Q3160.99 1430.07 3166.8 1430.07 Z" fill="#000000" fill-rule="nonzero" fill-opacity="1" /><path clip-path="url(#clip010)" d="M1681.36 1507.55 L1681.36 1517.67 L1693.42 1517.67 L1693.42 1522.22 L1681.36 1522.22 L1681.36 1541.58 Q1681.36 1545.94 1682.54 1547.18 Q1683.75 1548.42 1687.41 1548.42 L1693.42 1548.42 L1693.42 1553.32 L1687.41 1553.32 Q1680.63 1553.32 1678.05 1550.81 Q1675.47 1548.26 1675.47 1541.58 L1675.47 1522.22 L1671.18 1522.22 L1671.18 1517.67 L1675.47 1517.67 L1675.47 1507.55 L1681.36 1507.55 Z" fill="#000000" fill-rule="nonzero" fill-opacity="1" /><polyline clip-path="url(#clip010)" style="stroke:#000000; stroke-linecap:round; stroke-linejoin:round; stroke-width:4; stroke-opacity:1; fill:none" points="211.842,1396.46 211.842,47.2441 "/>
<polyline clip-path="url(#clip010)" style="stroke:#000000; stroke-linecap:round; stroke-linejoin:round; stroke-width:4; stroke-opacity:1; fill:none" points="3152.76,1396.46 3152.76,47.2441 "/>
<polyline clip-path="url(#clip010)" style="stroke:#000000; stroke-linecap:round; stroke-linejoin:round; stroke-width:4; stroke-opacity:1; fill:none" points="211.842,1358.27 230.74,1358.27 "/>
<polyline clip-path="url(#clip010)" style="stroke:#000000; stroke-linecap:round; stroke-linejoin:round; stroke-width:4; stroke-opacity:1; fill:none" points="211.842,1094.87 230.74,1094.87 "/>
<polyline clip-path="url(#clip010)" style="stroke:#000000; stroke-linecap:round; stroke-linejoin:round; stroke-width:4; stroke-opacity:1; fill:none" points="211.842,831.464 230.74,831.464 "/>
<polyline clip-path="url(#clip010)" style="stroke:#000000; stroke-linecap:round; stroke-linejoin:round; stroke-width:4; stroke-opacity:1; fill:none" points="211.842,568.061 230.74,568.061 "/>
<polyline clip-path="url(#clip010)" style="stroke:#000000; stroke-linecap:round; stroke-linejoin:round; stroke-width:4; stroke-opacity:1; fill:none" points="211.842,304.658 230.74,304.658 "/>
<polyline clip-path="url(#clip010)" style="stroke:#000000; stroke-linecap:round; stroke-linejoin:round; stroke-width:4; stroke-opacity:1; fill:none" points="3152.76,1358.27 3133.86,1358.27 "/>
<polyline clip-path="url(#clip010)" style="stroke:#000000; stroke-linecap:round; stroke-linejoin:round; stroke-width:4; stroke-opacity:1; fill:none" points="3152.76,1094.87 3133.86,1094.87 "/>
<polyline clip-path="url(#clip010)" style="stroke:#000000; stroke-linecap:round; stroke-linejoin:round; stroke-width:4; stroke-opacity:1; fill:none" points="3152.76,831.464 3133.86,831.464 "/>
<polyline clip-path="url(#clip010)" style="stroke:#000000; stroke-linecap:round; stroke-linejoin:round; stroke-width:4; stroke-opacity:1; fill:none" points="3152.76,568.061 3133.86,568.061 "/>
<polyline clip-path="url(#clip010)" style="stroke:#000000; stroke-linecap:round; stroke-linejoin:round; stroke-width:4; stroke-opacity:1; fill:none" points="3152.76,304.658 3133.86,304.658 "/>
<path clip-path="url(#clip010)" d="M106.667 1344.07 Q103.056 1344.07 101.227 1347.63 Q99.4214 1351.18 99.4214 1358.31 Q99.4214 1365.41 101.227 1368.98 Q103.056 1372.52 106.667 1372.52 Q110.301 1372.52 112.106 1368.98 Q113.935 1365.41 113.935 1358.31 Q113.935 1351.18 112.106 1347.63 Q110.301 1344.07 106.667 1344.07 M106.667 1340.37 Q112.477 1340.37 115.532 1344.97 Q118.611 1349.56 118.611 1358.31 Q118.611 1367.03 115.532 1371.64 Q112.477 1376.22 106.667 1376.22 Q100.857 1376.22 97.7779 1371.64 Q94.7223 1367.03 94.7223 1358.31 Q94.7223 1349.56 97.7779 1344.97 Q100.857 1340.37 106.667 1340.37 Z" fill="#000000" fill-rule="nonzero" fill-opacity="1" /><path clip-path="url(#clip010)" d="M126.829 1369.67 L131.713 1369.67 L131.713 1375.55 L126.829 1375.55 L126.829 1369.67 Z" fill="#000000" fill-rule="nonzero" fill-opacity="1" /><path clip-path="url(#clip010)" d="M151.898 1344.07 Q148.287 1344.07 146.458 1347.63 Q144.653 1351.18 144.653 1358.31 Q144.653 1365.41 146.458 1368.98 Q148.287 1372.52 151.898 1372.52 Q155.532 1372.52 157.338 1368.98 Q159.166 1365.41 159.166 1358.31 Q159.166 1351.18 157.338 1347.63 Q155.532 1344.07 151.898 1344.07 M151.898 1340.37 Q157.708 1340.37 160.764 1344.97 Q163.842 1349.56 163.842 1358.31 Q163.842 1367.03 160.764 1371.64 Q157.708 1376.22 151.898 1376.22 Q146.088 1376.22 143.009 1371.64 Q139.954 1367.03 139.954 1358.31 Q139.954 1349.56 143.009 1344.97 Q146.088 1340.37 151.898 1340.37 Z" fill="#000000" fill-rule="nonzero" fill-opacity="1" /><path clip-path="url(#clip010)" d="M108.264 1080.67 Q104.653 1080.67 102.824 1084.23 Q101.019 1087.77 101.019 1094.9 Q101.019 1102.01 102.824 1105.57 Q104.653 1109.11 108.264 1109.11 Q111.898 1109.11 113.704 1105.57 Q115.532 1102.01 115.532 1094.9 Q115.532 1087.77 113.704 1084.23 Q111.898 1080.67 108.264 1080.67 M108.264 1076.96 Q114.074 1076.96 117.13 1081.57 Q120.208 1086.15 120.208 1094.9 Q120.208 1103.63 117.13 1108.24 Q114.074 1112.82 108.264 1112.82 Q102.454 1112.82 99.3751 1108.24 Q96.3195 1103.63 96.3195 1094.9 Q96.3195 1086.15 99.3751 1081.57 Q102.454 1076.96 108.264 1076.96 Z" fill="#000000" fill-rule="nonzero" fill-opacity="1" /><path clip-path="url(#clip010)" d="M128.426 1106.27 L133.31 1106.27 L133.31 1112.15 L128.426 1112.15 L128.426 1106.27 Z" fill="#000000" fill-rule="nonzero" fill-opacity="1" /><path clip-path="url(#clip010)" d="M147.523 1108.21 L163.842 1108.21 L163.842 1112.15 L141.898 1112.15 L141.898 1108.21 Q144.56 1105.46 149.143 1100.83 Q153.75 1096.18 154.93 1094.83 Q157.176 1092.31 158.055 1090.57 Q158.958 1088.81 158.958 1087.12 Q158.958 1084.37 157.014 1082.63 Q155.092 1080.9 151.991 1080.9 Q149.791 1080.9 147.338 1081.66 Q144.907 1082.43 142.129 1083.98 L142.129 1079.25 Q144.954 1078.12 147.407 1077.54 Q149.861 1076.96 151.898 1076.96 Q157.268 1076.96 160.463 1079.65 Q163.657 1082.33 163.657 1086.82 Q163.657 1088.95 162.847 1090.87 Q162.06 1092.77 159.953 1095.37 Q159.375 1096.04 156.273 1099.25 Q153.171 1102.45 147.523 1108.21 Z" fill="#000000" fill-rule="nonzero" fill-opacity="1" /><path clip-path="url(#clip010)" d="M106.181 817.263 Q102.57 817.263 100.741 820.828 Q98.9353 824.369 98.9353 831.499 Q98.9353 838.605 100.741 842.17 Q102.57 845.712 106.181 845.712 Q109.815 845.712 111.62 842.17 Q113.449 838.605 113.449 831.499 Q113.449 824.369 111.62 820.828 Q109.815 817.263 106.181 817.263 M106.181 813.559 Q111.991 813.559 115.046 818.166 Q118.125 822.749 118.125 831.499 Q118.125 840.226 115.046 844.832 Q111.991 849.415 106.181 849.415 Q100.37 849.415 97.2918 844.832 Q94.2362 840.226 94.2362 831.499 Q94.2362 822.749 97.2918 818.166 Q100.37 813.559 106.181 813.559 Z" fill="#000000" fill-rule="nonzero" fill-opacity="1" /><path clip-path="url(#clip010)" d="M126.343 842.865 L131.227 842.865 L131.227 848.744 L126.343 848.744 L126.343 842.865 Z" fill="#000000" fill-rule="nonzero" fill-opacity="1" /><path clip-path="url(#clip010)" d="M154.259 818.258 L142.454 836.707 L154.259 836.707 L154.259 818.258 M153.032 814.184 L158.912 814.184 L158.912 836.707 L163.842 836.707 L163.842 840.596 L158.912 840.596 L158.912 848.744 L154.259 848.744 L154.259 840.596 L138.657 840.596 L138.657 836.082 L153.032 814.184 Z" fill="#000000" fill-rule="nonzero" fill-opacity="1" /><path clip-path="url(#clip010)" d="M106.505 553.86 Q102.894 553.86 101.065 557.425 Q99.2593 560.966 99.2593 568.096 Q99.2593 575.202 101.065 578.767 Q102.894 582.309 106.505 582.309 Q110.139 582.309 111.944 578.767 Q113.773 575.202 113.773 568.096 Q113.773 560.966 111.944 557.425 Q110.139 553.86 106.505 553.86 M106.505 550.156 Q112.315 550.156 115.37 554.762 Q118.449 559.346 118.449 568.096 Q118.449 576.823 115.37 581.429 Q112.315 586.012 106.505 586.012 Q100.695 586.012 97.6158 581.429 Q94.5603 576.823 94.5603 568.096 Q94.5603 559.346 97.6158 554.762 Q100.695 550.156 106.505 550.156 Z" fill="#000000" fill-rule="nonzero" fill-opacity="1" /><path clip-path="url(#clip010)" d="M126.667 579.461 L131.551 579.461 L131.551 585.341 L126.667 585.341 L126.667 579.461 Z" fill="#000000" fill-rule="nonzero" fill-opacity="1" /><path clip-path="url(#clip010)" d="M152.315 566.198 Q149.166 566.198 147.315 568.35 Q145.486 570.503 145.486 574.253 Q145.486 577.98 147.315 580.156 Q149.166 582.309 152.315 582.309 Q155.463 582.309 157.291 580.156 Q159.143 577.98 159.143 574.253 Q159.143 570.503 157.291 568.35 Q155.463 566.198 152.315 566.198 M161.597 551.545 L161.597 555.804 Q159.838 554.971 158.032 554.531 Q156.25 554.091 154.491 554.091 Q149.861 554.091 147.407 557.216 Q144.977 560.341 144.629 566.661 Q145.995 564.647 148.055 563.582 Q150.116 562.494 152.592 562.494 Q157.801 562.494 160.81 565.665 Q163.842 568.813 163.842 574.253 Q163.842 579.577 160.694 582.795 Q157.546 586.012 152.315 586.012 Q146.319 586.012 143.148 581.429 Q139.977 576.823 139.977 568.096 Q139.977 559.901 143.866 555.04 Q147.754 550.156 154.305 550.156 Q156.065 550.156 157.847 550.503 Q159.653 550.85 161.597 551.545 Z" fill="#000000" fill-rule="nonzero" fill-opacity="1" /><path clip-path="url(#clip010)" d="M106.759 290.457 Q103.148 290.457 101.32 294.021 Q99.514 297.563 99.514 304.693 Q99.514 311.799 101.32 315.364 Q103.148 318.905 106.759 318.905 Q110.394 318.905 112.199 315.364 Q114.028 311.799 114.028 304.693 Q114.028 297.563 112.199 294.021 Q110.394 290.457 106.759 290.457 M106.759 286.753 Q112.569 286.753 115.625 291.359 Q118.704 295.943 118.704 304.693 Q118.704 313.419 115.625 318.026 Q112.569 322.609 106.759 322.609 Q100.949 322.609 97.8705 318.026 Q94.8149 313.419 94.8149 304.693 Q94.8149 295.943 97.8705 291.359 Q100.949 286.753 106.759 286.753 Z" fill="#000000" fill-rule="nonzero" fill-opacity="1" /><path clip-path="url(#clip010)" d="M126.921 316.058 L131.805 316.058 L131.805 321.938 L126.921 321.938 L126.921 316.058 Z" fill="#000000" fill-rule="nonzero" fill-opacity="1" /><path clip-path="url(#clip010)" d="M151.991 305.526 Q148.657 305.526 146.736 307.308 Q144.838 309.091 144.838 312.216 Q144.838 315.341 146.736 317.123 Q148.657 318.905 151.991 318.905 Q155.324 318.905 157.245 317.123 Q159.166 315.318 159.166 312.216 Q159.166 309.091 157.245 307.308 Q155.347 305.526 151.991 305.526 M147.315 303.535 Q144.305 302.794 142.616 300.734 Q140.949 298.674 140.949 295.711 Q140.949 291.568 143.889 289.16 Q146.852 286.753 151.991 286.753 Q157.153 286.753 160.092 289.16 Q163.032 291.568 163.032 295.711 Q163.032 298.674 161.342 300.734 Q159.676 302.794 156.69 303.535 Q160.069 304.322 161.944 306.614 Q163.842 308.906 163.842 312.216 Q163.842 317.239 160.764 319.924 Q157.708 322.609 151.991 322.609 Q146.273 322.609 143.194 319.924 Q140.139 317.239 140.139 312.216 Q140.139 308.906 142.037 306.614 Q143.935 304.322 147.315 303.535 M145.602 296.151 Q145.602 298.836 147.268 300.341 Q148.958 301.845 151.991 301.845 Q155 301.845 156.69 300.341 Q158.403 298.836 158.403 296.151 Q158.403 293.466 156.69 291.961 Q155 290.457 151.991 290.457 Q148.958 290.457 147.268 291.961 Q145.602 293.466 145.602 296.151 Z" fill="#000000" fill-rule="nonzero" fill-opacity="1" /><polyline clip-path="url(#clip012)" style="stroke:#009af9; stroke-linecap:round; stroke-linejoin:round; stroke-width:16; stroke-opacity:1; fill:none" points="211.842,1358.27 214.786,1358.24 217.73,1358.14 220.674,1357.98 223.618,1357.76 226.562,1357.48 229.505,1357.14 232.449,1356.75 235.393,1356.3 238.337,1355.79 241.281,1355.24 244.225,1354.63 247.169,1353.97 250.112,1353.27 253.056,1352.51 256,1351.71 258.944,1350.87 261.888,1349.98 264.832,1349.04 267.776,1348.07 270.719,1347.05 273.663,1345.99 276.607,1344.9 279.551,1343.77 282.495,1342.59 285.439,1341.39 288.383,1340.14 291.326,1338.86 294.27,1337.55 297.214,1336.21 300.158,1334.83 303.102,1333.42 306.046,1331.98 308.99,1330.51 311.933,1329.01 314.877,1327.48 317.821,1325.92 320.765,1324.33 323.709,1322.72 326.653,1321.08 329.597,1319.42 332.54,1317.73 335.484,1316.01 338.428,1314.27 341.372,1312.51 344.316,1310.73 347.26,1308.92 350.204,1307.09 353.147,1305.24 356.091,1303.37 359.035,1301.48 361.979,1299.57 364.923,1297.64 367.867,1295.69 370.811,1293.72 373.754,1291.73 376.698,1289.73 379.642,1287.7 382.586,1285.66 385.53,1283.61 388.474,1281.54 391.418,1279.45 394.361,1277.35 397.305,1275.23 400.249,1273.1 403.193,1270.95 406.137,1268.79 409.081,1266.61 412.025,1264.42 414.968,1262.22 417.912,1260.01 420.856,1257.78 423.8,1255.54 426.744,1253.29 429.688,1251.03 432.632,1248.76 435.575,1246.47 438.519,1244.18 441.463,1241.87 444.407,1239.56 447.351,1237.23 450.295,1234.9 453.239,1232.55 456.182,1230.2 459.126,1227.84 462.07,1225.47 465.014,1223.09 467.958,1220.7 470.902,1218.3 473.846,1215.9 476.789,1213.49 479.733,1211.07 482.677,1208.64 485.621,1206.21 488.565,1203.77 491.509,1201.32 494.453,1198.87 497.397,1196.41 500.34,1193.95 503.284,1191.48 506.228,1189 509.172,1186.52 512.116,1184.03 515.06,1181.54 518.004,1179.04 520.947,1176.54 523.891,1174.03 526.835,1171.52 529.779,1169.01 532.723,1166.49 535.667,1163.96 538.611,1161.43 541.554,1158.9 544.498,1156.37 547.442,1153.83 550.386,1151.28 553.33,1148.74 556.274,1146.19 559.218,1143.64 562.161,1141.08 565.105,1138.53 568.049,1135.97 570.993,1133.4 573.937,1130.84 576.881,1128.27 579.825,1125.7 582.768,1123.13 585.712,1120.56 588.656,1117.98 591.6,1115.41 594.544,1112.83 597.488,1110.25 600.432,1107.67 603.375,1105.09 606.319,1102.5 609.263,1099.92 612.207,1097.34 615.151,1094.75 618.095,1092.16 621.039,1089.57 623.982,1086.99 626.926,1084.4 629.87,1081.81 632.814,1079.22 635.758,1076.63 638.702,1074.04 641.646,1071.45 644.589,1068.86 647.533,1066.27 650.477,1063.68 653.421,1061.09 656.365,1058.5 659.309,1055.91 662.253,1053.32 665.196,1050.73 668.14,1048.14 671.084,1045.55 674.028,1042.97 676.972,1040.38 679.916,1037.8 682.86,1035.21 685.803,1032.63 688.747,1030.05 691.691,1027.47 694.635,1024.89 697.579,1022.31 700.523,1019.73 703.467,1017.15 706.41,1014.58 709.354,1012.01 712.298,1009.43 715.242,1006.86 718.186,1004.3 721.13,1001.73 724.074,999.163 727.017,996.6 729.961,994.039 732.905,991.479 735.849,988.921 738.793,986.365 741.737,983.811 744.681,981.26 747.624,978.71 750.568,976.163 753.512,973.617 756.456,971.074 759.4,968.533 762.344,965.995 765.288,963.459 768.231,960.925 771.175,958.393 774.119,955.865 777.063,953.338 780.007,950.814 782.951,948.293 785.895,945.775 788.838,943.259 791.782,940.746 794.726,938.235 797.67,935.728 800.614,933.223 803.558,930.721 806.502,928.222 809.445,925.726 812.389,923.233 815.333,920.743 818.277,918.255 821.221,915.771 824.165,913.29 827.109,910.813 830.052,908.338 832.996,905.866 835.94,903.398 838.884,900.933 841.828,898.471 844.772,896.013 847.716,893.558 850.659,891.106 853.603,888.657 856.547,886.212 859.491,883.771 862.435,881.333 865.379,878.898 868.323,876.467 871.266,874.04 874.21,871.616 877.154,869.195 880.098,866.778 883.042,864.365 885.986,861.956 888.93,859.55 891.873,857.147 894.817,854.749 897.761,852.354 900.705,849.963 903.649,847.576 906.593,845.192 909.537,842.812 912.48,840.437 915.424,838.064 918.368,835.696 921.312,833.332 924.256,830.971 927.2,828.615 930.144,826.262 933.087,823.914 936.031,821.569 938.975,819.228 941.919,816.891 944.863,814.559 947.807,812.23 950.751,809.905 953.694,807.585 956.638,805.268 959.582,802.956 962.526,800.647 965.47,798.343 968.414,796.043 971.358,793.747 974.301,791.455 977.245,789.168 980.189,786.884 983.133,784.605 986.077,782.33 989.021,780.059 991.965,777.793 994.908,775.531 997.852,773.273 1000.8,771.019 1003.74,768.77 1006.68,766.525 1009.63,764.284 1012.57,762.047 1015.52,759.815 1018.46,757.588 1021.4,755.364 1024.35,753.145 1027.29,750.931 1030.23,748.72 1033.18,746.515 1036.12,744.313 1039.07,742.116 1042.01,739.924 1044.95,737.736 1047.9,735.552 1050.84,733.373 1053.79,731.198 1056.73,729.028 1059.67,726.862 1062.62,724.7 1065.56,722.544 1068.5,720.391 1071.45,718.243 1074.39,716.1 1077.34,713.961 1080.28,711.826 1083.22,709.697 1086.17,707.571 1089.11,705.45 1092.06,703.334 1095,701.222 1097.94,699.115 1100.89,697.012 1103.83,694.914 1106.77,692.82 1109.72,690.731 1112.66,688.647 1115.61,686.567 1118.55,684.491 1121.49,682.421 1124.44,680.354 1127.38,678.293 1130.33,676.236 1133.27,674.183 1136.21,672.135 1139.16,670.092 1142.1,668.054 1145.05,666.019 1147.99,663.99 1150.93,661.965 1153.88,659.945 1156.82,657.929 1159.76,655.918 1162.71,653.912 1165.65,651.91 1168.6,649.913 1171.54,647.921 1174.48,645.933 1177.43,643.95 1180.37,641.971 1183.32,639.998 1186.26,638.028 1189.2,636.064 1192.15,634.104 1195.09,632.149 1198.03,630.198 1200.98,628.252 1203.92,626.311 1206.87,624.374 1209.81,622.442 1212.75,620.515 1215.7,618.592 1218.64,616.674 1221.59,614.761 1224.53,612.852 1227.47,610.948 1230.42,609.049 1233.36,607.155 1236.3,605.265 1239.25,603.379 1242.19,601.499 1245.14,599.623 1248.08,597.752 1251.02,595.885 1253.97,594.023 1256.91,592.166 1259.86,590.313 1262.8,588.465 1265.74,586.622 1268.69,584.784 1271.63,582.95 1274.57,581.12 1277.52,579.296 1280.46,577.475 1283.41,575.66 1286.35,573.849 1289.29,572.043 1292.24,570.242 1295.18,568.445 1298.13,566.652 1301.07,564.865 1304.01,563.082 1306.96,561.303 1309.9,559.53 1312.85,557.76 1315.79,555.996 1318.73,554.236 1321.68,552.481 1324.62,550.73 1327.56,548.984 1330.51,547.242 1333.45,545.505 1336.4,543.773 1339.34,542.045 1342.28,540.322 1345.23,538.603 1348.17,536.889 1351.12,535.18 1354.06,533.475 1357,531.774 1359.95,530.079 1362.89,528.387 1365.83,526.701 1368.78,525.019 1371.72,523.341 1374.67,521.668 1377.61,519.999 1380.55,518.335 1383.5,516.676 1386.44,515.021 1389.39,513.371 1392.33,511.725 1395.27,510.084 1398.22,508.447 1401.16,506.815 1404.1,505.187 1407.05,503.564 1409.99,501.945 1412.94,500.331 1415.88,498.721 1418.82,497.116 1421.77,495.515 1424.71,493.919 1427.66,492.327 1430.6,490.739 1433.54,489.157 1436.49,487.578 1439.43,486.004 1442.37,484.435 1445.32,482.87 1448.26,481.309 1451.21,479.753 1454.15,478.201 1457.09,476.654 1460.04,475.111 1462.98,473.573 1465.93,472.039 1468.87,470.51 1471.81,468.985 1474.76,467.464 1477.7,465.948 1480.64,464.436 1483.59,462.928 1486.53,461.425 1489.48,459.926 1492.42,458.432 1495.36,456.942 1498.31,455.456 1501.25,453.975 1504.2,452.498 1507.14,451.025 1510.08,449.557 1513.03,448.093 1515.97,446.633 1518.92,445.178 1521.86,443.727 1524.8,442.28 1527.75,440.837 1530.69,439.399 1533.63,437.965 1536.58,436.535 1539.52,435.11 1542.47,433.688 1545.41,432.271 1548.35,430.859 1551.3,429.45 1554.24,428.046 1557.19,426.646 1560.13,425.25 1563.07,423.858 1566.02,422.47 1568.96,421.087 1571.9,419.708 1574.85,418.333 1577.79,416.962 1580.74,415.595 1583.68,414.232 1586.62,412.874 1589.57,411.52 1592.51,410.17 1595.46,408.823 1598.4,407.482 1601.34,406.144 1604.29,404.81 1607.23,403.48 1610.17,402.155 1613.12,400.833 1616.06,399.516 1619.01,398.202 1621.95,396.893 1624.89,395.588 1627.84,394.287 1630.78,392.989 1633.73,391.696 1636.67,390.407 1639.61,389.122 1642.56,387.841 1645.5,386.564 1648.44,385.291 1651.39,384.022 1654.33,382.756 1657.28,381.495 1660.22,380.238 1663.16,378.985 1666.11,377.735 1669.05,376.49 1672,375.249 1674.94,374.011 1677.88,372.778 1680.83,371.548 1683.77,370.322 1686.71,369.1 1689.66,367.882 1692.6,366.668 1695.55,365.458 1698.49,364.252 1701.43,363.05 1704.38,361.851 1707.32,360.656 1710.27,359.465 1713.21,358.278 1716.15,357.095 1719.1,355.916 1722.04,354.741 1724.99,353.569 1727.93,352.401 1730.87,351.237 1733.82,350.077 1736.76,348.92 1739.7,347.767 1742.65,346.618 1745.59,345.473 1748.54,344.332 1751.48,343.194 1754.42,342.06 1757.37,340.929 1760.31,339.803 1763.26,338.68 1766.2,337.56 1769.14,336.445 1772.09,335.333 1775.03,334.225 1777.97,333.12 1780.92,332.019 1783.86,330.922 1786.81,329.828 1789.75,328.738 1792.69,327.651 1795.64,326.569 1798.58,325.489 1801.53,324.414 1804.47,323.341 1807.41,322.273 1810.36,321.208 1813.3,320.146 1816.24,319.088 1819.19,318.034 1822.13,316.983 1825.08,315.935 1828.02,314.892 1830.96,313.851 1833.91,312.814 1836.85,311.781 1839.8,310.751 1842.74,309.724 1845.68,308.701 1848.63,307.682 1851.57,306.665 1854.51,305.653 1857.46,304.643 1860.4,303.637 1863.35,302.635 1866.29,301.636 1869.23,300.64 1872.18,299.647 1875.12,298.658 1878.07,297.673 1881.01,296.69 1883.95,295.711 1886.9,294.736 1889.84,293.763 1892.78,292.794 1895.73,291.829 1898.67,290.866 1901.62,289.907 1904.56,288.951 1907.5,287.999 1910.45,287.05 1913.39,286.104 1916.34,285.161 1919.28,284.222 1922.22,283.285 1925.17,282.352 1928.11,281.422 1931.06,280.496 1934,279.573 1936.94,278.652 1939.89,277.735 1942.83,276.822 1945.77,275.911 1948.72,275.004 1951.66,274.099 1954.61,273.198 1957.55,272.3 1960.49,271.405 1963.44,270.514 1966.38,269.625 1969.33,268.74 1972.27,267.857 1975.21,266.978 1978.16,266.102 1981.1,265.229 1984.04,264.359 1986.99,263.492 1989.93,262.628 1992.88,261.767 1995.82,260.909 1998.76,260.055 2001.71,259.203 2004.65,258.354 2007.6,257.509 2010.54,256.666 2013.48,255.826 2016.43,254.99 2019.37,254.156 2022.31,253.325 2025.26,252.498 2028.2,251.673 2031.15,250.851 2034.09,250.032 2037.03,249.216 2039.98,248.403 2042.92,247.592 2045.87,246.785 2048.81,245.981 2051.75,245.179 2054.7,244.38 2057.64,243.585 2060.58,242.792 2063.53,242.001 2066.47,241.214 2069.42,240.43 2072.36,239.648 2075.3,238.869 2078.25,238.093 2081.19,237.32 2084.14,236.549 2087.08,235.782 2090.02,235.017 2092.97,234.255 2095.91,233.495 2098.85,232.738 2101.8,231.984 2104.74,231.233 2107.69,230.485 2110.63,229.739 2113.57,228.996 2116.52,228.255 2119.46,227.518 2122.41,226.782 2125.35,226.05 2128.29,225.32 2131.24,224.593 2134.18,223.869 2137.13,223.147 2140.07,222.428 2143.01,221.711 2145.96,220.997 2148.9,220.286 2151.84,219.577 2154.79,218.871 2157.73,218.167 2160.68,217.466 2163.62,216.768 2166.56,216.072 2169.51,215.379 2172.45,214.688 2175.4,214 2178.34,213.314 2181.28,212.631 2184.23,211.95 2187.17,211.272 2190.11,210.596 2193.06,209.923 2196,209.252 2198.95,208.584 2201.89,207.918 2204.83,207.255 2207.78,206.594 2210.72,205.936 2213.67,205.28 2216.61,204.626 2219.55,203.975 2222.5,203.326 2225.44,202.68 2228.38,202.036 2231.33,201.395 2234.27,200.756 2237.22,200.119 2240.16,199.484 2243.1,198.852 2246.05,198.223 2248.99,197.596 2251.94,196.971 2254.88,196.348 2257.82,195.728 2260.77,195.11 2263.71,194.494 2266.65,193.881 2269.6,193.27 2272.54,192.661 2275.49,192.055 2278.43,191.451 2281.37,190.849 2284.32,190.249 2287.26,189.652 2290.21,189.057 2293.15,188.464 2296.09,187.874 2299.04,187.285 2301.98,186.699 2304.92,186.115 2307.87,185.534 2310.81,184.954 2313.76,184.377 2316.7,183.802 2319.64,183.229 2322.59,182.658 2325.53,182.09 2328.48,181.523 2331.42,180.959 2334.36,180.397 2337.31,179.837 2340.25,179.279 2343.2,178.723 2346.14,178.17 2349.08,177.618 2352.03,177.069 2354.97,176.521 2357.91,175.976 2360.86,175.433 2363.8,174.892 2366.75,174.353 2369.69,173.816 2372.63,173.281 2375.58,172.748 2378.52,172.217 2381.47,171.688 2384.41,171.161 2387.35,170.636 2390.3,170.113 2393.24,169.592 2396.18,169.074 2399.13,168.557 2402.07,168.042 2405.02,167.529 2407.96,167.018 2410.9,166.509 2413.85,166.002 2416.79,165.497 2419.74,164.994 2422.68,164.492 2425.62,163.993 2428.57,163.496 2431.51,163 2434.45,162.506 2437.4,162.015 2440.34,161.525 2443.29,161.037 2446.23,160.551 2449.17,160.067 2452.12,159.584 2455.06,159.104 2458.01,158.625 2460.95,158.149 2463.89,157.674 2466.84,157.201 2469.78,156.729 2472.72,156.26 2475.67,155.792 2478.61,155.327 2481.56,154.863 2484.5,154.4 2487.44,153.94 2490.39,153.481 2493.33,153.024 2496.28,152.569 2499.22,152.116 2502.16,151.664 2505.11,151.215 2508.05,150.766 2510.99,150.32 2513.94,149.876 2516.88,149.433 2519.83,148.992 2522.77,148.552 2525.71,148.114 2528.66,147.678 2531.6,147.244 2534.55,146.812 2537.49,146.381 2540.43,145.951 2543.38,145.524 2546.32,145.098 2549.27,144.674 2552.21,144.251 2555.15,143.83 2558.1,143.411 2561.04,142.993 2563.98,142.578 2566.93,142.163 2569.87,141.751 2572.82,141.339 2575.76,140.93 2578.7,140.522 2581.65,140.116 2584.59,139.711 2587.54,139.308 2590.48,138.907 2593.42,138.507 2596.37,138.109 2599.31,137.712 2602.25,137.317 2605.2,136.923 2608.14,136.531 2611.09,136.141 2614.03,135.752 2616.97,135.364 2619.92,134.979 2622.86,134.594 2625.81,134.211 2628.75,133.83 2631.69,133.45 2634.64,133.072 2637.58,132.695 2640.52,132.32 2643.47,131.946 2646.41,131.574 2649.36,131.203 2652.3,130.833 2655.24,130.465 2658.19,130.099 2661.13,129.734 2664.08,129.37 2667.02,129.008 2669.96,128.647 2672.91,128.288 2675.85,127.93 2678.79,127.574 2681.74,127.219 2684.68,126.865 2687.63,126.513 2690.57,126.162 2693.51,125.813 2696.46,125.465 2699.4,125.118 2702.35,124.773 2705.29,124.429 2708.23,124.086 2711.18,123.745 2714.12,123.405 2717.07,123.067 2720.01,122.729 2722.95,122.394 2725.9,122.059 2728.84,121.726 2731.78,121.394 2734.73,121.064 2737.67,120.735 2740.62,120.407 2743.56,120.08 2746.5,119.755 2749.45,119.431 2752.39,119.108 2755.34,118.787 2758.28,118.467 2761.22,118.148 2764.17,117.831 2767.11,117.514 2770.05,117.199 2773,116.886 2775.94,116.573 2778.89,116.262 2781.83,115.952 2784.77,115.643 2787.72,115.336 2790.66,115.029 2793.61,114.724 2796.55,114.421 2799.49,114.118 2802.44,113.817 2805.38,113.516 2808.32,113.217 2811.27,112.92 2814.21,112.623 2817.16,112.328 2820.1,112.033 2823.04,111.74 2825.99,111.449 2828.93,111.158 2831.88,110.868 2834.82,110.58 2837.76,110.293 2840.71,110.007 2843.65,109.722 2846.59,109.438 2849.54,109.156 2852.48,108.874 2855.43,108.594 2858.37,108.315 2861.31,108.037 2864.26,107.76 2867.2,107.484 2870.15,107.209 2873.09,106.936 2876.03,106.663 2878.98,106.392 2881.92,106.121 2884.86,105.852 2887.81,105.584 2890.75,105.317 2893.7,105.051 2896.64,104.786 2899.58,104.523 2902.53,104.26 2905.47,103.998 2908.42,103.738 2911.36,103.478 2914.3,103.22 2917.25,102.962 2920.19,102.706 2923.14,102.451 2926.08,102.196 2929.02,101.943 2931.97,101.691 2934.91,101.44 2937.85,101.19 2940.8,100.94 2943.74,100.692 2946.69,100.445 2949.63,100.199 2952.57,99.9538 2955.52,99.7096 2958.46,99.4665 2961.41,99.2243 2964.35,98.9831 2967.29,98.7429 2970.24,98.5037 2973.18,98.2654 2976.12,98.0281 2979.07,97.7918 2982.01,97.5565 2984.96,97.3221 2987.9,97.0886 2990.84,96.8561 2993.79,96.6246 2996.73,96.394 2999.68,96.1643 3002.62,95.9356 3005.56,95.7078 3008.51,95.4809 3011.45,95.2549 3014.39,95.0299 3017.34,94.8058 3020.28,94.5826 3023.23,94.3603 3026.17,94.139 3029.11,93.9185 3032.06,93.6989 3035,93.4802 3037.95,93.2624 3040.89,93.0456 3043.83,92.8295 3046.78,92.6144 3049.72,92.4002 3052.66,92.1868 3055.61,91.9743 3058.55,91.7627 3061.5,91.5519 3064.44,91.342 3067.38,91.1329 3070.33,90.9248 3073.27,90.7174 3076.22,90.5109 3079.16,90.3053 3082.1,90.1005 3085.05,89.8965 3087.99,89.6934 3090.93,89.4911 3093.88,89.2896 3096.82,89.089 3099.77,88.8891 3102.71,88.6901 3105.65,88.4919 3108.6,88.2946 3111.54,88.098 3114.49,87.9022 3117.43,87.7073 3120.37,87.5131 3123.32,87.3198 3126.26,87.1272 3129.21,86.9354 3132.15,86.7444 3135.09,86.5542 3138.04,86.3648 3140.98,86.1762 3143.92,85.9883 3146.87,85.8012 3149.81,85.6149 3152.76,85.4293 "/>
<circle clip-path="url(#clip012)" cx="505.934" cy="1169.24" r="21.6" fill="#0000ff" fill-rule="evenodd" fill-opacity="1" stroke="#000000" stroke-opacity="1" stroke-width="3.2"/>
<circle clip-path="url(#clip012)" cx="800.025" cy="852.454" r="21.6" fill="#0000ff" fill-rule="evenodd" fill-opacity="1" stroke="#000000" stroke-opacity="1" stroke-width="3.2"/>
<circle clip-path="url(#clip012)" cx="1094.12" cy="720.327" r="21.6" fill="#0000ff" fill-rule="evenodd" fill-opacity="1" stroke="#000000" stroke-opacity="1" stroke-width="3.2"/>
<circle clip-path="url(#clip012)" cx="1388.21" cy="547.345" r="21.6" fill="#0000ff" fill-rule="evenodd" fill-opacity="1" stroke="#000000" stroke-opacity="1" stroke-width="3.2"/>
<circle clip-path="url(#clip012)" cx="1682.3" cy="541.058" r="21.6" fill="#0000ff" fill-rule="evenodd" fill-opacity="1" stroke="#000000" stroke-opacity="1" stroke-width="3.2"/>
<circle clip-path="url(#clip012)" cx="1976.39" cy="317.25" r="21.6" fill="#0000ff" fill-rule="evenodd" fill-opacity="1" stroke="#000000" stroke-opacity="1" stroke-width="3.2"/>
<circle clip-path="url(#clip012)" cx="2270.48" cy="256.536" r="21.6" fill="#0000ff" fill-rule="evenodd" fill-opacity="1" stroke="#000000" stroke-opacity="1" stroke-width="3.2"/>
<circle clip-path="url(#clip012)" cx="2564.57" cy="127.61" r="21.6" fill="#0000ff" fill-rule="evenodd" fill-opacity="1" stroke="#000000" stroke-opacity="1" stroke-width="3.2"/>
<circle clip-path="url(#clip012)" cx="2858.66" cy="94.6507" r="21.6" fill="#0000ff" fill-rule="evenodd" fill-opacity="1" stroke="#000000" stroke-opacity="1" stroke-width="3.2"/>
<circle clip-path="url(#clip012)" cx="3152.76" cy="223.214" r="21.6" fill="#0000ff" fill-rule="evenodd" fill-opacity="1" stroke="#000000" stroke-opacity="1" stroke-width="3.2"/>
<path clip-path="url(#clip010)" d="M309.873 247.738 L947.157 247.738 L947.157 92.2178 L309.873 92.2178  Z" fill="#ffffff" fill-rule="evenodd" fill-opacity="1"/>
<polyline clip-path="url(#clip010)" style="stroke:#000000; stroke-linecap:round; stroke-linejoin:round; stroke-width:4; stroke-opacity:1; fill:none" points="309.873,247.738 947.157,247.738 947.157,92.2178 309.873,92.2178 309.873,247.738 "/>
<polyline clip-path="url(#clip010)" style="stroke:#009af9; stroke-linecap:round; stroke-linejoin:round; stroke-width:16; stroke-opacity:1; fill:none" points="342.55,144.058 538.611,144.058 "/>
<path clip-path="url(#clip010)" d="M571.287 126.778 L600.523 126.778 L600.523 130.713 L588.255 130.713 L588.255 161.338 L583.556 161.338 L583.556 130.713 L571.287 130.713 L571.287 126.778 Z" fill="#000000" fill-rule="nonzero" fill-opacity="1" /><path clip-path="url(#clip010)" d="M612.907 139.393 Q612.19 138.977 611.333 138.792 Q610.5 138.583 609.482 138.583 Q605.87 138.583 603.926 140.944 Q602.005 143.282 602.005 147.68 L602.005 161.338 L597.722 161.338 L597.722 135.412 L602.005 135.412 L602.005 139.44 Q603.347 137.079 605.5 135.944 Q607.653 134.787 610.732 134.787 Q611.171 134.787 611.704 134.856 Q612.236 134.903 612.884 135.019 L612.907 139.393 Z" fill="#000000" fill-rule="nonzero" fill-opacity="1" /><path clip-path="url(#clip010)" d="M616.935 151.106 L616.935 135.412 L621.194 135.412 L621.194 150.944 Q621.194 154.625 622.63 156.477 Q624.065 158.305 626.935 158.305 Q630.384 158.305 632.375 156.106 Q634.389 153.907 634.389 150.111 L634.389 135.412 L638.648 135.412 L638.648 161.338 L634.389 161.338 L634.389 157.356 Q632.838 159.717 630.778 160.875 Q628.741 162.009 626.032 162.009 Q621.565 162.009 619.25 159.231 Q616.935 156.454 616.935 151.106 M627.653 134.787 L627.653 134.787 Z" fill="#000000" fill-rule="nonzero" fill-opacity="1" /><path clip-path="url(#clip010)" d="M669.597 147.31 L669.597 149.393 L650.014 149.393 Q650.292 153.792 652.653 156.106 Q655.037 158.398 659.273 158.398 Q661.727 158.398 664.018 157.796 Q666.333 157.194 668.602 155.991 L668.602 160.018 Q666.31 160.991 663.903 161.5 Q661.495 162.009 659.018 162.009 Q652.815 162.009 649.18 158.398 Q645.569 154.787 645.569 148.63 Q645.569 142.264 648.995 138.537 Q652.444 134.787 658.278 134.787 Q663.509 134.787 666.541 138.167 Q669.597 141.523 669.597 147.31 M665.338 146.06 Q665.291 142.565 663.37 140.481 Q661.472 138.398 658.324 138.398 Q654.759 138.398 652.606 140.412 Q650.477 142.426 650.153 146.083 L665.338 146.06 Z" fill="#000000" fill-rule="nonzero" fill-opacity="1" /><path clip-path="url(#clip010)" d="M708.185 136.176 L708.185 140.204 Q706.379 139.278 704.435 138.815 Q702.49 138.352 700.407 138.352 Q697.236 138.352 695.639 139.324 Q694.064 140.296 694.064 142.241 Q694.064 143.722 695.199 144.579 Q696.333 145.412 699.759 146.176 L701.217 146.5 Q705.754 147.472 707.652 149.255 Q709.574 151.014 709.574 154.185 Q709.574 157.796 706.703 159.903 Q703.856 162.009 698.856 162.009 Q696.773 162.009 694.504 161.592 Q692.259 161.199 689.759 160.389 L689.759 155.991 Q692.12 157.217 694.412 157.842 Q696.703 158.444 698.949 158.444 Q701.958 158.444 703.578 157.426 Q705.199 156.384 705.199 154.509 Q705.199 152.773 704.018 151.847 Q702.861 150.921 698.902 150.065 L697.421 149.718 Q693.463 148.884 691.703 147.171 Q689.944 145.435 689.944 142.426 Q689.944 138.768 692.537 136.778 Q695.129 134.787 699.898 134.787 Q702.259 134.787 704.342 135.134 Q706.425 135.481 708.185 136.176 Z" fill="#000000" fill-rule="nonzero" fill-opacity="1" /><path clip-path="url(#clip010)" d="M726.402 138.398 Q722.976 138.398 720.986 141.083 Q718.995 143.745 718.995 148.398 Q718.995 153.051 720.962 155.736 Q722.953 158.398 726.402 158.398 Q729.805 158.398 731.796 155.713 Q733.786 153.028 733.786 148.398 Q733.786 143.792 731.796 141.106 Q729.805 138.398 726.402 138.398 M726.402 134.787 Q731.958 134.787 735.129 138.398 Q738.3 142.009 738.3 148.398 Q738.3 154.764 735.129 158.398 Q731.958 162.009 726.402 162.009 Q720.824 162.009 717.652 158.398 Q714.504 154.764 714.504 148.398 Q714.504 142.009 717.652 138.398 Q720.824 134.787 726.402 134.787 Z" fill="#000000" fill-rule="nonzero" fill-opacity="1" /><path clip-path="url(#clip010)" d="M745.36 125.319 L749.62 125.319 L749.62 161.338 L745.36 161.338 L745.36 125.319 Z" fill="#000000" fill-rule="nonzero" fill-opacity="1" /><path clip-path="url(#clip010)" d="M758.092 151.106 L758.092 135.412 L762.351 135.412 L762.351 150.944 Q762.351 154.625 763.786 156.477 Q765.221 158.305 768.092 158.305 Q771.541 158.305 773.532 156.106 Q775.545 153.907 775.545 150.111 L775.545 135.412 L779.805 135.412 L779.805 161.338 L775.545 161.338 L775.545 157.356 Q773.995 159.717 771.934 160.875 Q769.897 162.009 767.189 162.009 Q762.721 162.009 760.407 159.231 Q758.092 156.454 758.092 151.106 M768.809 134.787 L768.809 134.787 Z" fill="#000000" fill-rule="nonzero" fill-opacity="1" /><path clip-path="url(#clip010)" d="M792.791 128.051 L792.791 135.412 L801.564 135.412 L801.564 138.722 L792.791 138.722 L792.791 152.796 Q792.791 155.967 793.647 156.87 Q794.527 157.773 797.189 157.773 L801.564 157.773 L801.564 161.338 L797.189 161.338 Q792.258 161.338 790.383 159.509 Q788.508 157.657 788.508 152.796 L788.508 138.722 L785.383 138.722 L785.383 135.412 L788.508 135.412 L788.508 128.051 L792.791 128.051 Z" fill="#000000" fill-rule="nonzero" fill-opacity="1" /><path clip-path="url(#clip010)" d="M807.166 135.412 L811.425 135.412 L811.425 161.338 L807.166 161.338 L807.166 135.412 M807.166 125.319 L811.425 125.319 L811.425 130.713 L807.166 130.713 L807.166 125.319 Z" fill="#000000" fill-rule="nonzero" fill-opacity="1" /><path clip-path="url(#clip010)" d="M830.383 138.398 Q826.957 138.398 824.967 141.083 Q822.976 143.745 822.976 148.398 Q822.976 153.051 824.943 155.736 Q826.934 158.398 830.383 158.398 Q833.786 158.398 835.777 155.713 Q837.767 153.028 837.767 148.398 Q837.767 143.792 835.777 141.106 Q833.786 138.398 830.383 138.398 M830.383 134.787 Q835.939 134.787 839.11 138.398 Q842.281 142.009 842.281 148.398 Q842.281 154.764 839.11 158.398 Q835.939 162.009 830.383 162.009 Q824.804 162.009 821.633 158.398 Q818.485 154.764 818.485 148.398 Q818.485 142.009 821.633 138.398 Q824.804 134.787 830.383 134.787 Z" fill="#000000" fill-rule="nonzero" fill-opacity="1" /><path clip-path="url(#clip010)" d="M870.892 145.69 L870.892 161.338 L866.633 161.338 L866.633 145.829 Q866.633 142.148 865.198 140.319 Q863.763 138.491 860.892 138.491 Q857.443 138.491 855.452 140.69 Q853.462 142.889 853.462 146.685 L853.462 161.338 L849.179 161.338 L849.179 135.412 L853.462 135.412 L853.462 139.44 Q854.99 137.102 857.05 135.944 Q859.133 134.787 861.841 134.787 Q866.309 134.787 868.601 137.565 Q870.892 140.319 870.892 145.69 Z" fill="#000000" fill-rule="nonzero" fill-opacity="1" /><circle clip-path="url(#clip010)" cx="440.58" cy="195.898" r="21.2677" fill="#0000ff" fill-rule="evenodd" fill-opacity="1" stroke="#000000" stroke-opacity="1" stroke-width="3.15077"/>
<path clip-path="url(#clip010)" d="M571.287 178.618 L578.255 178.618 L587.074 202.136 L595.94 178.618 L602.908 178.618 L602.908 213.178 L598.347 213.178 L598.347 182.831 L589.435 206.534 L584.736 206.534 L575.824 182.831 L575.824 213.178 L571.287 213.178 L571.287 178.618 Z" fill="#000000" fill-rule="nonzero" fill-opacity="1" /><path clip-path="url(#clip010)" d="M634.181 199.15 L634.181 201.233 L614.597 201.233 Q614.875 205.632 617.236 207.946 Q619.62 210.238 623.856 210.238 Q626.31 210.238 628.602 209.636 Q630.917 209.034 633.185 207.831 L633.185 211.858 Q630.893 212.831 628.486 213.34 Q626.079 213.849 623.602 213.849 Q617.398 213.849 613.764 210.238 Q610.153 206.627 610.153 200.47 Q610.153 194.104 613.579 190.377 Q617.028 186.627 622.861 186.627 Q628.093 186.627 631.125 190.007 Q634.181 193.363 634.181 199.15 M629.921 197.9 Q629.875 194.405 627.954 192.321 Q626.056 190.238 622.907 190.238 Q619.343 190.238 617.19 192.252 Q615.06 194.266 614.736 197.923 L629.921 197.9 Z" fill="#000000" fill-rule="nonzero" fill-opacity="1" /><path clip-path="url(#clip010)" d="M652.954 200.145 Q647.792 200.145 645.801 201.326 Q643.81 202.507 643.81 205.354 Q643.81 207.622 645.292 208.965 Q646.796 210.284 649.366 210.284 Q652.907 210.284 655.037 207.784 Q657.19 205.261 657.19 201.095 L657.19 200.145 L652.954 200.145 M661.449 198.386 L661.449 213.178 L657.19 213.178 L657.19 209.243 Q655.731 211.604 653.555 212.738 Q651.379 213.849 648.231 213.849 Q644.25 213.849 641.889 211.627 Q639.551 209.382 639.551 205.632 Q639.551 201.257 642.467 199.034 Q645.407 196.812 651.217 196.812 L657.19 196.812 L657.19 196.395 Q657.19 193.456 655.245 191.858 Q653.324 190.238 649.829 190.238 Q647.606 190.238 645.5 190.771 Q643.393 191.303 641.449 192.368 L641.449 188.433 Q643.787 187.53 645.986 187.09 Q648.185 186.627 650.268 186.627 Q655.893 186.627 658.671 189.544 Q661.449 192.46 661.449 198.386 Z" fill="#000000" fill-rule="nonzero" fill-opacity="1" /><path clip-path="url(#clip010)" d="M686.75 188.016 L686.75 192.044 Q684.944 191.118 683 190.655 Q681.055 190.192 678.972 190.192 Q675.801 190.192 674.203 191.164 Q672.629 192.136 672.629 194.081 Q672.629 195.562 673.764 196.419 Q674.898 197.252 678.324 198.016 L679.782 198.34 Q684.319 199.312 686.217 201.095 Q688.139 202.854 688.139 206.025 Q688.139 209.636 685.268 211.743 Q682.421 213.849 677.421 213.849 Q675.338 213.849 673.069 213.432 Q670.824 213.039 668.324 212.229 L668.324 207.831 Q670.685 209.057 672.977 209.682 Q675.268 210.284 677.514 210.284 Q680.523 210.284 682.143 209.266 Q683.764 208.224 683.764 206.349 Q683.764 204.613 682.583 203.687 Q681.426 202.761 677.467 201.905 L675.986 201.558 Q672.028 200.724 670.268 199.011 Q668.509 197.275 668.509 194.266 Q668.509 190.608 671.102 188.618 Q673.694 186.627 678.463 186.627 Q680.824 186.627 682.907 186.974 Q684.99 187.321 686.75 188.016 Z" fill="#000000" fill-rule="nonzero" fill-opacity="1" /><path clip-path="url(#clip010)" d="M694.481 202.946 L694.481 187.252 L698.74 187.252 L698.74 202.784 Q698.74 206.465 700.176 208.317 Q701.611 210.145 704.481 210.145 Q707.93 210.145 709.921 207.946 Q711.935 205.747 711.935 201.951 L711.935 187.252 L716.194 187.252 L716.194 213.178 L711.935 213.178 L711.935 209.196 Q710.384 211.557 708.324 212.715 Q706.287 213.849 703.578 213.849 Q699.111 213.849 696.796 211.071 Q694.481 208.294 694.481 202.946 M705.199 186.627 L705.199 186.627 Z" fill="#000000" fill-rule="nonzero" fill-opacity="1" /><path clip-path="url(#clip010)" d="M739.99 191.233 Q739.273 190.817 738.416 190.632 Q737.583 190.423 736.564 190.423 Q732.953 190.423 731.009 192.784 Q729.087 195.122 729.087 199.52 L729.087 213.178 L724.805 213.178 L724.805 187.252 L729.087 187.252 L729.087 191.28 Q730.43 188.919 732.583 187.784 Q734.736 186.627 737.814 186.627 Q738.254 186.627 738.786 186.696 Q739.319 186.743 739.967 186.859 L739.99 191.233 Z" fill="#000000" fill-rule="nonzero" fill-opacity="1" /><path clip-path="url(#clip010)" d="M765.592 199.15 L765.592 201.233 L746.009 201.233 Q746.286 205.632 748.647 207.946 Q751.032 210.238 755.268 210.238 Q757.722 210.238 760.013 209.636 Q762.328 209.034 764.596 207.831 L764.596 211.858 Q762.305 212.831 759.897 213.34 Q757.49 213.849 755.013 213.849 Q748.81 213.849 745.175 210.238 Q741.564 206.627 741.564 200.47 Q741.564 194.104 744.99 190.377 Q748.439 186.627 754.272 186.627 Q759.504 186.627 762.536 190.007 Q765.592 193.363 765.592 199.15 M761.333 197.9 Q761.286 194.405 759.365 192.321 Q757.467 190.238 754.319 190.238 Q750.754 190.238 748.601 192.252 Q746.472 194.266 746.147 197.923 L761.333 197.9 Z" fill="#000000" fill-rule="nonzero" fill-opacity="1" /><path clip-path="url(#clip010)" d="M792.768 192.229 Q794.365 189.358 796.587 187.993 Q798.809 186.627 801.818 186.627 Q805.869 186.627 808.068 189.474 Q810.268 192.298 810.268 197.53 L810.268 213.178 L805.985 213.178 L805.985 197.669 Q805.985 193.942 804.666 192.136 Q803.346 190.331 800.638 190.331 Q797.328 190.331 795.406 192.53 Q793.485 194.729 793.485 198.525 L793.485 213.178 L789.203 213.178 L789.203 197.669 Q789.203 193.919 787.883 192.136 Q786.564 190.331 783.809 190.331 Q780.545 190.331 778.624 192.553 Q776.703 194.752 776.703 198.525 L776.703 213.178 L772.421 213.178 L772.421 187.252 L776.703 187.252 L776.703 191.28 Q778.161 188.896 780.198 187.761 Q782.235 186.627 785.036 186.627 Q787.86 186.627 789.828 188.062 Q791.819 189.497 792.768 192.229 Z" fill="#000000" fill-rule="nonzero" fill-opacity="1" /><path clip-path="url(#clip010)" d="M840.939 199.15 L840.939 201.233 L821.355 201.233 Q821.633 205.632 823.994 207.946 Q826.379 210.238 830.615 210.238 Q833.068 210.238 835.36 209.636 Q837.675 209.034 839.943 207.831 L839.943 211.858 Q837.652 212.831 835.244 213.34 Q832.837 213.849 830.36 213.849 Q824.156 213.849 820.522 210.238 Q816.911 206.627 816.911 200.47 Q816.911 194.104 820.337 190.377 Q823.786 186.627 829.619 186.627 Q834.851 186.627 837.883 190.007 Q840.939 193.363 840.939 199.15 M836.679 197.9 Q836.633 194.405 834.712 192.321 Q832.814 190.238 829.666 190.238 Q826.101 190.238 823.948 192.252 Q821.818 194.266 821.494 197.923 L836.679 197.9 Z" fill="#000000" fill-rule="nonzero" fill-opacity="1" /><path clip-path="url(#clip010)" d="M869.48 197.53 L869.48 213.178 L865.221 213.178 L865.221 197.669 Q865.221 193.988 863.786 192.159 Q862.351 190.331 859.48 190.331 Q856.031 190.331 854.04 192.53 Q852.05 194.729 852.05 198.525 L852.05 213.178 L847.767 213.178 L847.767 187.252 L852.05 187.252 L852.05 191.28 Q853.577 188.942 855.638 187.784 Q857.721 186.627 860.429 186.627 Q864.897 186.627 867.189 189.405 Q869.48 192.159 869.48 197.53 Z" fill="#000000" fill-rule="nonzero" fill-opacity="1" /><path clip-path="url(#clip010)" d="M882.188 179.891 L882.188 187.252 L890.962 187.252 L890.962 190.562 L882.188 190.562 L882.188 204.636 Q882.188 207.807 883.045 208.71 Q883.925 209.613 886.587 209.613 L890.962 209.613 L890.962 213.178 L886.587 213.178 Q881.656 213.178 879.781 211.349 Q877.906 209.497 877.906 204.636 L877.906 190.562 L874.781 190.562 L874.781 187.252 L877.906 187.252 L877.906 179.891 L882.188 179.891 Z" fill="#000000" fill-rule="nonzero" fill-opacity="1" /><path clip-path="url(#clip010)" d="M913.091 188.016 L913.091 192.044 Q911.285 191.118 909.341 190.655 Q907.397 190.192 905.313 190.192 Q902.142 190.192 900.545 191.164 Q898.971 192.136 898.971 194.081 Q898.971 195.562 900.105 196.419 Q901.239 197.252 904.665 198.016 L906.123 198.34 Q910.661 199.312 912.559 201.095 Q914.48 202.854 914.48 206.025 Q914.48 209.636 911.61 211.743 Q908.762 213.849 903.762 213.849 Q901.679 213.849 899.411 213.432 Q897.165 213.039 894.665 212.229 L894.665 207.831 Q897.026 209.057 899.318 209.682 Q901.61 210.284 903.855 210.284 Q906.864 210.284 908.485 209.266 Q910.105 208.224 910.105 206.349 Q910.105 204.613 908.924 203.687 Q907.767 202.761 903.809 201.905 L902.327 201.558 Q898.369 200.724 896.61 199.011 Q894.85 197.275 894.85 194.266 Q894.85 190.608 897.443 188.618 Q900.036 186.627 904.804 186.627 Q907.165 186.627 909.248 186.974 Q911.332 187.321 913.091 188.016 Z" fill="#000000" fill-rule="nonzero" fill-opacity="1" /></svg>
