<?xml version="1.0" encoding="utf-8"?>
<svg xmlns="http://www.w3.org/2000/svg" xmlns:xlink="http://www.w3.org/1999/xlink" width="800" height="400" viewBox="0 0 3200 1600">
<defs>
  <clipPath id="clip510">
    <rect x="0" y="0" width="3200" height="1600"/>
  </clipPath>
</defs>
<path clip-path="url(#clip510)" d="M0 1600 L3200 1600 L3200 0 L0 0  Z" fill="#ffffff" fill-rule="evenodd" fill-opacity="1"/>
<defs>
  <clipPath id="clip511">
    <rect x="192" y="47" width="2962" height="1397"/>
  </clipPath>
</defs>
<path clip-path="url(#clip510)" d="M192.191 1443.7 L3152.76 1443.7 L3152.76 47.2441 L192.191 47.2441  Z" fill="#ffffff" fill-rule="evenodd" fill-opacity="1"/>
<polyline clip-path="url(#clip510)" style="stroke:#000000; stroke-linecap:round; stroke-linejoin:round; stroke-width:4; stroke-opacity:1; fill:none" points="192.191,1443.7 3152.76,1443.7 "/>
<polyline clip-path="url(#clip510)" style="stroke:#000000; stroke-linecap:round; stroke-linejoin:round; stroke-width:4; stroke-opacity:1; fill:none" points="192.191,47.2441 3152.76,47.2441 "/>
<polyline clip-path="url(#clip510)" style="stroke:#000000; stroke-linecap:round; stroke-linejoin:round; stroke-width:4; stroke-opacity:1; fill:none" points="229.873,1443.7 229.873,1424.8 "/>
<polyline clip-path="url(#clip510)" style="stroke:#000000; stroke-linecap:round; stroke-linejoin:round; stroke-width:4; stroke-opacity:1; fill:none" points="673.818,1443.7 673.818,1424.8 "/>
<polyline clip-path="url(#clip510)" style="stroke:#000000; stroke-linecap:round; stroke-linejoin:round; stroke-width:4; stroke-opacity:1; fill:none" points="1117.76,1443.7 1117.76,1424.8 "/>
<polyline clip-path="url(#clip510)" style="stroke:#000000; stroke-linecap:round; stroke-linejoin:round; stroke-width:4; stroke-opacity:1; fill:none" points="1561.71,1443.7 1561.71,1424.8 "/>
<polyline clip-path="url(#clip510)" style="stroke:#000000; stroke-linecap:round; stroke-linejoin:round; stroke-width:4; stroke-opacity:1; fill:none" points="2005.65,1443.7 2005.65,1424.8 "/>
<polyline clip-path="url(#clip510)" style="stroke:#000000; stroke-linecap:round; stroke-linejoin:round; stroke-width:4; stroke-opacity:1; fill:none" points="2449.6,1443.7 2449.6,1424.8 "/>
<polyline clip-path="url(#clip510)" style="stroke:#000000; stroke-linecap:round; stroke-linejoin:round; stroke-width:4; stroke-opacity:1; fill:none" points="2893.54,1443.7 2893.54,1424.8 "/>
<polyline clip-path="url(#clip510)" style="stroke:#000000; stroke-linecap:round; stroke-linejoin:round; stroke-width:4; stroke-opacity:1; fill:none" points="229.873,47.2441 229.873,66.1417 "/>
<polyline clip-path="url(#clip510)" style="stroke:#000000; stroke-linecap:round; stroke-linejoin:round; stroke-width:4; stroke-opacity:1; fill:none" points="673.818,47.2441 673.818,66.1417 "/>
<polyline clip-path="url(#clip510)" style="stroke:#000000; stroke-linecap:round; stroke-linejoin:round; stroke-width:4; stroke-opacity:1; fill:none" points="1117.76,47.2441 1117.76,66.1417 "/>
<polyline clip-path="url(#clip510)" style="stroke:#000000; stroke-linecap:round; stroke-linejoin:round; stroke-width:4; stroke-opacity:1; fill:none" points="1561.71,47.2441 1561.71,66.1417 "/>
<polyline clip-path="url(#clip510)" style="stroke:#000000; stroke-linecap:round; stroke-linejoin:round; stroke-width:4; stroke-opacity:1; fill:none" points="2005.65,47.2441 2005.65,66.1417 "/>
<polyline clip-path="url(#clip510)" style="stroke:#000000; stroke-linecap:round; stroke-linejoin:round; stroke-width:4; stroke-opacity:1; fill:none" points="2449.6,47.2441 2449.6,66.1417 "/>
<polyline clip-path="url(#clip510)" style="stroke:#000000; stroke-linecap:round; stroke-linejoin:round; stroke-width:4; stroke-opacity:1; fill:none" points="2893.54,47.2441 2893.54,66.1417 "/>
<path clip-path="url(#clip510)" d="M229.873 1481.02 Q226.262 1481.02 224.434 1484.58 Q222.628 1488.12 222.628 1495.25 Q222.628 1502.36 224.434 1505.93 Q226.262 1509.47 229.873 1509.47 Q233.508 1509.47 235.313 1505.93 Q237.142 1502.36 237.142 1495.25 Q237.142 1488.12 235.313 1484.58 Q233.508 1481.02 229.873 1481.02 M229.873 1477.31 Q235.683 1477.31 238.739 1481.92 Q241.818 1486.5 241.818 1495.25 Q241.818 1503.98 238.739 1508.59 Q235.683 1513.17 229.873 1513.17 Q224.063 1513.17 220.984 1508.59 Q217.929 1503.98 217.929 1495.25 Q217.929 1486.5 220.984 1481.92 Q224.063 1477.31 229.873 1477.31 Z" fill="#000000" fill-rule="nonzero" fill-opacity="1" /><path clip-path="url(#clip510)" d="M668.471 1508.56 L684.79 1508.56 L684.79 1512.5 L662.846 1512.5 L662.846 1508.56 Q665.508 1505.81 670.091 1501.18 Q674.697 1496.53 675.878 1495.19 Q678.123 1492.66 679.003 1490.93 Q679.906 1489.17 679.906 1487.48 Q679.906 1484.72 677.961 1482.99 Q676.04 1481.25 672.938 1481.25 Q670.739 1481.25 668.285 1482.01 Q665.855 1482.78 663.077 1484.33 L663.077 1479.61 Q665.901 1478.47 668.355 1477.89 Q670.809 1477.31 672.846 1477.31 Q678.216 1477.31 681.41 1480 Q684.605 1482.69 684.605 1487.18 Q684.605 1489.31 683.795 1491.23 Q683.008 1493.12 680.901 1495.72 Q680.322 1496.39 677.221 1499.61 Q674.119 1502.8 668.471 1508.56 Z" fill="#000000" fill-rule="nonzero" fill-opacity="1" /><path clip-path="url(#clip510)" d="M1120.77 1482.01 L1108.97 1500.46 L1120.77 1500.46 L1120.77 1482.01 M1119.54 1477.94 L1125.42 1477.94 L1125.42 1500.46 L1130.35 1500.46 L1130.35 1504.35 L1125.42 1504.35 L1125.42 1512.5 L1120.77 1512.5 L1120.77 1504.35 L1105.17 1504.35 L1105.17 1499.84 L1119.54 1477.94 Z" fill="#000000" fill-rule="nonzero" fill-opacity="1" /><path clip-path="url(#clip510)" d="M1562.11 1493.36 Q1558.96 1493.36 1557.11 1495.51 Q1555.28 1497.66 1555.28 1501.41 Q1555.28 1505.14 1557.11 1507.31 Q1558.96 1509.47 1562.11 1509.47 Q1565.26 1509.47 1567.09 1507.31 Q1568.94 1505.14 1568.94 1501.41 Q1568.94 1497.66 1567.09 1495.51 Q1565.26 1493.36 1562.11 1493.36 M1571.39 1478.7 L1571.39 1482.96 Q1569.64 1482.13 1567.83 1481.69 Q1566.05 1481.25 1564.29 1481.25 Q1559.66 1481.25 1557.2 1484.37 Q1554.77 1487.5 1554.43 1493.82 Q1555.79 1491.81 1557.85 1490.74 Q1559.91 1489.65 1562.39 1489.65 Q1567.6 1489.65 1570.61 1492.82 Q1573.64 1495.97 1573.64 1501.41 Q1573.64 1506.74 1570.49 1509.95 Q1567.34 1513.17 1562.11 1513.17 Q1556.12 1513.17 1552.95 1508.59 Q1549.77 1503.98 1549.77 1495.25 Q1549.77 1487.06 1553.66 1482.2 Q1557.55 1477.31 1564.1 1477.31 Q1565.86 1477.31 1567.64 1477.66 Q1569.45 1478.01 1571.39 1478.7 Z" fill="#000000" fill-rule="nonzero" fill-opacity="1" /><path clip-path="url(#clip510)" d="M2005.65 1496.09 Q2002.32 1496.09 2000.4 1497.87 Q1998.5 1499.65 1998.5 1502.78 Q1998.5 1505.9 2000.4 1507.69 Q2002.32 1509.47 2005.65 1509.47 Q2008.98 1509.47 2010.91 1507.69 Q2012.83 1505.88 2012.83 1502.78 Q2012.83 1499.65 2010.91 1497.87 Q2009.01 1496.09 2005.65 1496.09 M2000.98 1494.1 Q1997.97 1493.36 1996.28 1491.3 Q1994.61 1489.24 1994.61 1486.27 Q1994.61 1482.13 1997.55 1479.72 Q2000.51 1477.31 2005.65 1477.31 Q2010.81 1477.31 2013.75 1479.72 Q2016.69 1482.13 2016.69 1486.27 Q2016.69 1489.24 2015 1491.3 Q2013.34 1493.36 2010.35 1494.1 Q2013.73 1494.88 2015.61 1497.18 Q2017.5 1499.47 2017.5 1502.78 Q2017.5 1507.8 2014.42 1510.49 Q2011.37 1513.17 2005.65 1513.17 Q1999.93 1513.17 1996.86 1510.49 Q1993.8 1507.8 1993.8 1502.78 Q1993.8 1499.47 1995.7 1497.18 Q1997.6 1494.88 2000.98 1494.1 M1999.26 1486.71 Q1999.26 1489.4 2000.93 1490.9 Q2002.62 1492.41 2005.65 1492.41 Q2008.66 1492.41 2010.35 1490.9 Q2012.06 1489.4 2012.06 1486.71 Q2012.06 1484.03 2010.35 1482.52 Q2008.66 1481.02 2005.65 1481.02 Q2002.62 1481.02 2000.93 1482.52 Q1999.26 1484.03 1999.26 1486.71 Z" fill="#000000" fill-rule="nonzero" fill-opacity="1" /><path clip-path="url(#clip510)" d="M2424.28 1508.56 L2431.92 1508.56 L2431.92 1482.2 L2423.61 1483.87 L2423.61 1479.61 L2431.88 1477.94 L2436.55 1477.94 L2436.55 1508.56 L2444.19 1508.56 L2444.19 1512.5 L2424.28 1512.5 L2424.28 1508.56 Z" fill="#000000" fill-rule="nonzero" fill-opacity="1" /><path clip-path="url(#clip510)" d="M2463.64 1481.02 Q2460.02 1481.02 2458.2 1484.58 Q2456.39 1488.12 2456.39 1495.25 Q2456.39 1502.36 2458.2 1505.93 Q2460.02 1509.47 2463.64 1509.47 Q2467.27 1509.47 2469.08 1505.93 Q2470.9 1502.36 2470.9 1495.25 Q2470.9 1488.12 2469.08 1484.58 Q2467.27 1481.02 2463.64 1481.02 M2463.64 1477.31 Q2469.45 1477.31 2472.5 1481.92 Q2475.58 1486.5 2475.58 1495.25 Q2475.58 1503.98 2472.5 1508.59 Q2469.45 1513.17 2463.64 1513.17 Q2457.83 1513.17 2454.75 1508.59 Q2451.69 1503.98 2451.69 1495.25 Q2451.69 1486.5 2454.75 1481.92 Q2457.83 1477.31 2463.64 1477.31 Z" fill="#000000" fill-rule="nonzero" fill-opacity="1" /><path clip-path="url(#clip510)" d="M2869.03 1508.56 L2876.67 1508.56 L2876.67 1482.2 L2868.36 1483.87 L2868.36 1479.61 L2876.62 1477.94 L2881.3 1477.94 L2881.3 1508.56 L2888.93 1508.56 L2888.93 1512.5 L2869.03 1512.5 L2869.03 1508.56 Z" fill="#000000" fill-rule="nonzero" fill-opacity="1" /><path clip-path="url(#clip510)" d="M2902.41 1508.56 L2918.73 1508.56 L2918.73 1512.5 L2896.78 1512.5 L2896.78 1508.56 Q2899.44 1505.81 2904.03 1501.18 Q2908.63 1496.53 2909.81 1495.19 Q2912.06 1492.66 2912.94 1490.93 Q2913.84 1489.17 2913.84 1487.48 Q2913.84 1484.72 2911.9 1482.99 Q2909.98 1481.25 2906.87 1481.25 Q2904.67 1481.25 2902.22 1482.01 Q2899.79 1482.78 2897.01 1484.33 L2897.01 1479.61 Q2899.84 1478.47 2902.29 1477.89 Q2904.74 1477.31 2906.78 1477.31 Q2912.15 1477.31 2915.35 1480 Q2918.54 1482.69 2918.54 1487.18 Q2918.54 1489.31 2917.73 1491.23 Q2916.94 1493.12 2914.84 1495.72 Q2914.26 1496.39 2911.16 1499.61 Q2908.05 1502.8 2902.41 1508.56 Z" fill="#000000" fill-rule="nonzero" fill-opacity="1" /><path clip-path="url(#clip510)" d="M1504.67 1553.04 L1544.87 1553.04 L1544.87 1558.45 L1528 1558.45 L1528 1600.56 L1521.54 1600.56 L1521.54 1558.45 L1504.67 1558.45 L1504.67 1553.04 Z" fill="#000000" fill-rule="nonzero" fill-opacity="1" /><path clip-path="url(#clip510)" d="M1548.82 1564.92 L1554.68 1564.92 L1554.68 1600.56 L1548.82 1600.56 L1548.82 1564.92 M1548.82 1551.04 L1554.68 1551.04 L1554.68 1558.45 L1548.82 1558.45 L1548.82 1551.04 Z" fill="#000000" fill-rule="nonzero" fill-opacity="1" /><path clip-path="url(#clip510)" d="M1594.68 1571.76 Q1596.88 1567.81 1599.94 1565.93 Q1602.99 1564.06 1607.13 1564.06 Q1612.7 1564.06 1615.72 1567.97 Q1618.75 1571.85 1618.75 1579.05 L1618.75 1600.56 L1612.86 1600.56 L1612.86 1579.24 Q1612.86 1574.11 1611.04 1571.63 Q1609.23 1569.15 1605.51 1569.15 Q1600.95 1569.15 1598.31 1572.17 Q1595.67 1575.2 1595.67 1580.42 L1595.67 1600.56 L1589.78 1600.56 L1589.78 1579.24 Q1589.78 1574.08 1587.97 1571.63 Q1586.15 1569.15 1582.37 1569.15 Q1577.88 1569.15 1575.24 1572.2 Q1572.6 1575.23 1572.6 1580.42 L1572.6 1600.56 L1566.71 1600.56 L1566.71 1564.92 L1572.6 1564.92 L1572.6 1570.45 Q1574.6 1567.18 1577.4 1565.62 Q1580.2 1564.06 1584.05 1564.06 Q1587.94 1564.06 1590.64 1566.03 Q1593.38 1568 1594.68 1571.76 Z" fill="#000000" fill-rule="nonzero" fill-opacity="1" /><path clip-path="url(#clip510)" d="M1660.92 1581.28 L1660.92 1584.14 L1633.99 1584.14 Q1634.37 1590.19 1637.62 1593.37 Q1640.9 1596.52 1646.72 1596.52 Q1650.1 1596.52 1653.25 1595.69 Q1656.43 1594.87 1659.55 1593.21 L1659.55 1598.75 Q1656.4 1600.09 1653.09 1600.79 Q1649.78 1601.49 1646.37 1601.49 Q1637.84 1601.49 1632.85 1596.52 Q1627.88 1591.56 1627.88 1583.09 Q1627.88 1574.34 1632.59 1569.21 Q1637.33 1564.06 1645.36 1564.06 Q1652.55 1564.06 1656.72 1568.7 Q1660.92 1573.32 1660.92 1581.28 M1655.06 1579.56 Q1655 1574.75 1652.36 1571.89 Q1649.75 1569.02 1645.42 1569.02 Q1640.52 1569.02 1637.56 1571.79 Q1634.63 1574.56 1634.18 1579.59 L1655.06 1579.56 Z" fill="#000000" fill-rule="nonzero" fill-opacity="1" /><path clip-path="url(#clip510)" d="M1705.32 1551.1 Q1701.06 1558.42 1698.99 1565.58 Q1696.92 1572.75 1696.92 1580.1 Q1696.92 1587.45 1698.99 1594.68 Q1701.09 1601.87 1705.32 1609.16 L1700.23 1609.16 Q1695.45 1601.68 1693.07 1594.45 Q1690.71 1587.23 1690.71 1580.1 Q1690.71 1573 1693.07 1565.81 Q1695.42 1558.61 1700.23 1551.1 L1705.32 1551.1 Z" fill="#000000" fill-rule="nonzero" fill-opacity="1" /><path clip-path="url(#clip510)" d="M1739.41 1565.97 L1739.41 1571.5 Q1736.93 1570.23 1734.25 1569.59 Q1731.58 1568.96 1728.71 1568.96 Q1724.35 1568.96 1722.16 1570.29 Q1719.99 1571.63 1719.99 1574.31 Q1719.99 1576.34 1721.55 1577.52 Q1723.11 1578.67 1727.82 1579.72 L1729.83 1580.16 Q1736.07 1581.5 1738.68 1583.95 Q1741.32 1586.37 1741.32 1590.73 Q1741.32 1595.69 1737.37 1598.59 Q1733.46 1601.49 1726.58 1601.49 Q1723.72 1601.49 1720.6 1600.91 Q1717.51 1600.37 1714.07 1599.26 L1714.07 1593.21 Q1717.32 1594.9 1720.47 1595.76 Q1723.62 1596.59 1726.71 1596.59 Q1730.85 1596.59 1733.07 1595.18 Q1735.3 1593.75 1735.3 1591.17 Q1735.3 1588.79 1733.68 1587.51 Q1732.09 1586.24 1726.65 1585.06 L1724.61 1584.59 Q1719.17 1583.44 1716.75 1581.08 Q1714.33 1578.7 1714.33 1574.56 Q1714.33 1569.53 1717.89 1566.79 Q1721.46 1564.06 1728.01 1564.06 Q1731.26 1564.06 1734.13 1564.53 Q1736.99 1565.01 1739.41 1565.97 Z" fill="#000000" fill-rule="nonzero" fill-opacity="1" /><path clip-path="url(#clip510)" d="M1781.14 1581.28 L1781.14 1584.14 L1754.21 1584.14 Q1754.59 1590.19 1757.84 1593.37 Q1761.12 1596.52 1766.94 1596.52 Q1770.31 1596.52 1773.47 1595.69 Q1776.65 1594.87 1779.77 1593.21 L1779.77 1598.75 Q1776.62 1600.09 1773.31 1600.79 Q1770 1601.49 1766.59 1601.49 Q1758.06 1601.49 1753.06 1596.52 Q1748.1 1591.56 1748.1 1583.09 Q1748.1 1574.34 1752.81 1569.21 Q1757.55 1564.06 1765.57 1564.06 Q1772.77 1564.06 1776.93 1568.7 Q1781.14 1573.32 1781.14 1581.28 M1775.28 1579.56 Q1775.22 1574.75 1772.57 1571.89 Q1769.96 1569.02 1765.64 1569.02 Q1760.73 1569.02 1757.77 1571.79 Q1754.85 1574.56 1754.4 1579.59 L1775.28 1579.56 Z" fill="#000000" fill-rule="nonzero" fill-opacity="1" /><path clip-path="url(#clip510)" d="M1816.4 1566.28 L1816.4 1571.76 Q1813.92 1570.39 1811.4 1569.72 Q1808.92 1569.02 1806.38 1569.02 Q1800.68 1569.02 1797.53 1572.65 Q1794.38 1576.25 1794.38 1582.77 Q1794.38 1589.3 1797.53 1592.92 Q1800.68 1596.52 1806.38 1596.52 Q1808.92 1596.52 1811.4 1595.85 Q1813.92 1595.15 1816.4 1593.78 L1816.4 1599.2 Q1813.95 1600.34 1811.31 1600.91 Q1808.7 1601.49 1805.74 1601.49 Q1797.69 1601.49 1792.94 1596.43 Q1788.2 1591.37 1788.2 1582.77 Q1788.2 1574.05 1792.98 1569.05 Q1797.78 1564.06 1806.12 1564.06 Q1808.83 1564.06 1811.4 1564.63 Q1813.98 1565.17 1816.4 1566.28 Z" fill="#000000" fill-rule="nonzero" fill-opacity="1" /><path clip-path="url(#clip510)" d="M1825.66 1551.1 L1830.76 1551.1 Q1835.53 1558.61 1837.89 1565.81 Q1840.27 1573 1840.27 1580.1 Q1840.27 1587.23 1837.89 1594.45 Q1835.53 1601.68 1830.76 1609.16 L1825.66 1609.16 Q1829.9 1601.87 1831.97 1594.68 Q1834.07 1587.45 1834.07 1580.1 Q1834.07 1572.75 1831.97 1565.58 Q1829.9 1558.42 1825.66 1551.1 Z" fill="#000000" fill-rule="nonzero" fill-opacity="1" /><polyline clip-path="url(#clip510)" style="stroke:#000000; stroke-linecap:round; stroke-linejoin:round; stroke-width:4; stroke-opacity:1; fill:none" points="192.191,1443.7 192.191,47.2441 "/>
<polyline clip-path="url(#clip510)" style="stroke:#000000; stroke-linecap:round; stroke-linejoin:round; stroke-width:4; stroke-opacity:1; fill:none" points="3152.76,1443.7 3152.76,47.2441 "/>
<polyline clip-path="url(#clip510)" style="stroke:#000000; stroke-linecap:round; stroke-linejoin:round; stroke-width:4; stroke-opacity:1; fill:none" points="192.191,1404.18 211.088,1404.18 "/>
<polyline clip-path="url(#clip510)" style="stroke:#000000; stroke-linecap:round; stroke-linejoin:round; stroke-width:4; stroke-opacity:1; fill:none" points="192.191,1165.53 211.088,1165.53 "/>
<polyline clip-path="url(#clip510)" style="stroke:#000000; stroke-linecap:round; stroke-linejoin:round; stroke-width:4; stroke-opacity:1; fill:none" points="192.191,926.89 211.088,926.89 "/>
<polyline clip-path="url(#clip510)" style="stroke:#000000; stroke-linecap:round; stroke-linejoin:round; stroke-width:4; stroke-opacity:1; fill:none" points="192.191,688.246 211.088,688.246 "/>
<polyline clip-path="url(#clip510)" style="stroke:#000000; stroke-linecap:round; stroke-linejoin:round; stroke-width:4; stroke-opacity:1; fill:none" points="192.191,449.603 211.088,449.603 "/>
<polyline clip-path="url(#clip510)" style="stroke:#000000; stroke-linecap:round; stroke-linejoin:round; stroke-width:4; stroke-opacity:1; fill:none" points="192.191,210.959 211.088,210.959 "/>
<polyline clip-path="url(#clip510)" style="stroke:#000000; stroke-linecap:round; stroke-linejoin:round; stroke-width:4; stroke-opacity:1; fill:none" points="3152.76,1404.18 3133.86,1404.18 "/>
<polyline clip-path="url(#clip510)" style="stroke:#000000; stroke-linecap:round; stroke-linejoin:round; stroke-width:4; stroke-opacity:1; fill:none" points="3152.76,1165.53 3133.86,1165.53 "/>
<polyline clip-path="url(#clip510)" style="stroke:#000000; stroke-linecap:round; stroke-linejoin:round; stroke-width:4; stroke-opacity:1; fill:none" points="3152.76,926.89 3133.86,926.89 "/>
<polyline clip-path="url(#clip510)" style="stroke:#000000; stroke-linecap:round; stroke-linejoin:round; stroke-width:4; stroke-opacity:1; fill:none" points="3152.76,688.246 3133.86,688.246 "/>
<polyline clip-path="url(#clip510)" style="stroke:#000000; stroke-linecap:round; stroke-linejoin:round; stroke-width:4; stroke-opacity:1; fill:none" points="3152.76,449.603 3133.86,449.603 "/>
<polyline clip-path="url(#clip510)" style="stroke:#000000; stroke-linecap:round; stroke-linejoin:round; stroke-width:4; stroke-opacity:1; fill:none" points="3152.76,210.959 3133.86,210.959 "/>
<path clip-path="url(#clip510)" d="M87.0151 1389.98 Q83.404 1389.98 81.5753 1393.54 Q79.7697 1397.08 79.7697 1404.21 Q79.7697 1411.32 81.5753 1414.88 Q83.404 1418.43 87.0151 1418.43 Q90.6493 1418.43 92.4548 1414.88 Q94.2835 1411.32 94.2835 1404.21 Q94.2835 1397.08 92.4548 1393.54 Q90.6493 1389.98 87.0151 1389.98 M87.0151 1386.27 Q92.8252 1386.27 95.8808 1390.88 Q98.9594 1395.46 98.9594 1404.21 Q98.9594 1412.94 95.8808 1417.55 Q92.8252 1422.13 87.0151 1422.13 Q81.2049 1422.13 78.1262 1417.55 Q75.0707 1412.94 75.0707 1404.21 Q75.0707 1395.46 78.1262 1390.88 Q81.2049 1386.27 87.0151 1386.27 Z" fill="#000000" fill-rule="nonzero" fill-opacity="1" /><path clip-path="url(#clip510)" d="M107.177 1415.58 L112.061 1415.58 L112.061 1421.46 L107.177 1421.46 L107.177 1415.58 Z" fill="#000000" fill-rule="nonzero" fill-opacity="1" /><path clip-path="url(#clip510)" d="M132.246 1389.98 Q128.635 1389.98 126.807 1393.54 Q125.001 1397.08 125.001 1404.21 Q125.001 1411.32 126.807 1414.88 Q128.635 1418.43 132.246 1418.43 Q135.881 1418.43 137.686 1414.88 Q139.515 1411.32 139.515 1404.21 Q139.515 1397.08 137.686 1393.54 Q135.881 1389.98 132.246 1389.98 M132.246 1386.27 Q138.056 1386.27 141.112 1390.88 Q144.191 1395.46 144.191 1404.21 Q144.191 1412.94 141.112 1417.55 Q138.056 1422.13 132.246 1422.13 Q126.436 1422.13 123.357 1417.55 Q120.302 1412.94 120.302 1404.21 Q120.302 1395.46 123.357 1390.88 Q126.436 1386.27 132.246 1386.27 Z" fill="#000000" fill-rule="nonzero" fill-opacity="1" /><path clip-path="url(#clip510)" d="M82.0382 1178.88 L98.3576 1178.88 L98.3576 1182.81 L76.4133 1182.81 L76.4133 1178.88 Q79.0753 1176.12 83.6586 1171.49 Q88.2651 1166.84 89.4456 1165.5 Q91.691 1162.98 92.5706 1161.24 Q93.4734 1159.48 93.4734 1157.79 Q93.4734 1155.04 91.5289 1153.3 Q89.6076 1151.56 86.5058 1151.56 Q84.3067 1151.56 81.8531 1152.33 Q79.4225 1153.09 76.6447 1154.64 L76.6447 1149.92 Q79.4688 1148.79 81.9225 1148.21 Q84.3762 1147.63 86.4132 1147.63 Q91.7836 1147.63 94.978 1150.31 Q98.1724 1153 98.1724 1157.49 Q98.1724 1159.62 97.3622 1161.54 Q96.5752 1163.44 94.4687 1166.03 Q93.89 1166.7 90.7882 1169.92 Q87.6864 1173.11 82.0382 1178.88 Z" fill="#000000" fill-rule="nonzero" fill-opacity="1" /><path clip-path="url(#clip510)" d="M108.172 1176.93 L113.057 1176.93 L113.057 1182.81 L108.172 1182.81 L108.172 1176.93 Z" fill="#000000" fill-rule="nonzero" fill-opacity="1" /><path clip-path="url(#clip510)" d="M123.288 1148.25 L141.644 1148.25 L141.644 1152.19 L127.57 1152.19 L127.57 1160.66 Q128.589 1160.31 129.607 1160.15 Q130.626 1159.97 131.644 1159.97 Q137.431 1159.97 140.811 1163.14 Q144.191 1166.31 144.191 1171.73 Q144.191 1177.3 140.718 1180.41 Q137.246 1183.49 130.927 1183.49 Q128.751 1183.49 126.482 1183.11 Q124.237 1182.74 121.83 1182 L121.83 1177.3 Q123.913 1178.44 126.135 1178.99 Q128.357 1179.55 130.834 1179.55 Q134.839 1179.55 137.177 1177.44 Q139.515 1175.34 139.515 1171.73 Q139.515 1168.11 137.177 1166.01 Q134.839 1163.9 130.834 1163.9 Q128.959 1163.9 127.084 1164.32 Q125.232 1164.74 123.288 1165.61 L123.288 1148.25 Z" fill="#000000" fill-rule="nonzero" fill-opacity="1" /><path clip-path="url(#clip510)" d="M77.0614 909.61 L95.4178 909.61 L95.4178 913.545 L81.3438 913.545 L81.3438 922.017 Q82.3623 921.67 83.3808 921.508 Q84.3993 921.323 85.4178 921.323 Q91.2049 921.323 94.5845 924.494 Q97.9641 927.666 97.9641 933.082 Q97.9641 938.661 94.4919 941.763 Q91.0197 944.841 84.7003 944.841 Q82.5243 944.841 80.2558 944.471 Q78.0105 944.101 75.6031 943.36 L75.6031 938.661 Q77.6864 939.795 79.9086 940.351 Q82.1308 940.906 84.6077 940.906 Q88.6123 940.906 90.9502 938.8 Q93.2882 936.693 93.2882 933.082 Q93.2882 929.471 90.9502 927.365 Q88.6123 925.258 84.6077 925.258 Q82.7327 925.258 80.8577 925.675 Q79.0058 926.091 77.0614 926.971 L77.0614 909.61 Z" fill="#000000" fill-rule="nonzero" fill-opacity="1" /><path clip-path="url(#clip510)" d="M107.177 938.29 L112.061 938.29 L112.061 944.17 L107.177 944.17 L107.177 938.29 Z" fill="#000000" fill-rule="nonzero" fill-opacity="1" /><path clip-path="url(#clip510)" d="M132.246 912.689 Q128.635 912.689 126.807 916.254 Q125.001 919.795 125.001 926.925 Q125.001 934.031 126.807 937.596 Q128.635 941.138 132.246 941.138 Q135.881 941.138 137.686 937.596 Q139.515 934.031 139.515 926.925 Q139.515 919.795 137.686 916.254 Q135.881 912.689 132.246 912.689 M132.246 908.985 Q138.056 908.985 141.112 913.592 Q144.191 918.175 144.191 926.925 Q144.191 935.652 141.112 940.258 Q138.056 944.841 132.246 944.841 Q126.436 944.841 123.357 940.258 Q120.302 935.652 120.302 926.925 Q120.302 918.175 123.357 913.592 Q126.436 908.985 132.246 908.985 Z" fill="#000000" fill-rule="nonzero" fill-opacity="1" /><path clip-path="url(#clip510)" d="M76.8299 670.966 L99.052 670.966 L99.052 672.957 L86.5058 705.526 L81.6216 705.526 L93.4271 674.901 L76.8299 674.901 L76.8299 670.966 Z" fill="#000000" fill-rule="nonzero" fill-opacity="1" /><path clip-path="url(#clip510)" d="M108.172 699.647 L113.057 699.647 L113.057 705.526 L108.172 705.526 L108.172 699.647 Z" fill="#000000" fill-rule="nonzero" fill-opacity="1" /><path clip-path="url(#clip510)" d="M123.288 670.966 L141.644 670.966 L141.644 674.901 L127.57 674.901 L127.57 683.374 Q128.589 683.026 129.607 682.864 Q130.626 682.679 131.644 682.679 Q137.431 682.679 140.811 685.85 Q144.191 689.022 144.191 694.438 Q144.191 700.017 140.718 703.119 Q137.246 706.198 130.927 706.198 Q128.751 706.198 126.482 705.827 Q124.237 705.457 121.83 704.716 L121.83 700.017 Q123.913 701.151 126.135 701.707 Q128.357 702.262 130.834 702.262 Q134.839 702.262 137.177 700.156 Q139.515 698.05 139.515 694.438 Q139.515 690.827 137.177 688.721 Q134.839 686.614 130.834 686.614 Q128.959 686.614 127.084 687.031 Q125.232 687.448 123.288 688.327 L123.288 670.966 Z" fill="#000000" fill-rule="nonzero" fill-opacity="1" /><path clip-path="url(#clip510)" d="M47.6634 462.947 L55.3023 462.947 L55.3023 436.582 L46.9921 438.248 L46.9921 433.989 L55.256 432.323 L59.9319 432.323 L59.9319 462.947 L67.5707 462.947 L67.5707 466.883 L47.6634 466.883 L47.6634 462.947 Z" fill="#000000" fill-rule="nonzero" fill-opacity="1" /><path clip-path="url(#clip510)" d="M87.0151 435.401 Q83.404 435.401 81.5753 438.966 Q79.7697 442.508 79.7697 449.637 Q79.7697 456.744 81.5753 460.309 Q83.404 463.85 87.0151 463.85 Q90.6493 463.85 92.4548 460.309 Q94.2835 456.744 94.2835 449.637 Q94.2835 442.508 92.4548 438.966 Q90.6493 435.401 87.0151 435.401 M87.0151 431.698 Q92.8252 431.698 95.8808 436.304 Q98.9594 440.887 98.9594 449.637 Q98.9594 458.364 95.8808 462.971 Q92.8252 467.554 87.0151 467.554 Q81.2049 467.554 78.1262 462.971 Q75.0707 458.364 75.0707 449.637 Q75.0707 440.887 78.1262 436.304 Q81.2049 431.698 87.0151 431.698 Z" fill="#000000" fill-rule="nonzero" fill-opacity="1" /><path clip-path="url(#clip510)" d="M107.177 461.003 L112.061 461.003 L112.061 466.883 L107.177 466.883 L107.177 461.003 Z" fill="#000000" fill-rule="nonzero" fill-opacity="1" /><path clip-path="url(#clip510)" d="M132.246 435.401 Q128.635 435.401 126.807 438.966 Q125.001 442.508 125.001 449.637 Q125.001 456.744 126.807 460.309 Q128.635 463.85 132.246 463.85 Q135.881 463.85 137.686 460.309 Q139.515 456.744 139.515 449.637 Q139.515 442.508 137.686 438.966 Q135.881 435.401 132.246 435.401 M132.246 431.698 Q138.056 431.698 141.112 436.304 Q144.191 440.887 144.191 449.637 Q144.191 458.364 141.112 462.971 Q138.056 467.554 132.246 467.554 Q126.436 467.554 123.357 462.971 Q120.302 458.364 120.302 449.637 Q120.302 440.887 123.357 436.304 Q126.436 431.698 132.246 431.698 Z" fill="#000000" fill-rule="nonzero" fill-opacity="1" /><path clip-path="url(#clip510)" d="M48.6588 224.304 L56.2976 224.304 L56.2976 197.938 L47.9875 199.605 L47.9875 195.346 L56.2513 193.679 L60.9272 193.679 L60.9272 224.304 L68.5661 224.304 L68.5661 228.239 L48.6588 228.239 L48.6588 224.304 Z" fill="#000000" fill-rule="nonzero" fill-opacity="1" /><path clip-path="url(#clip510)" d="M82.0382 224.304 L98.3576 224.304 L98.3576 228.239 L76.4133 228.239 L76.4133 224.304 Q79.0753 221.549 83.6586 216.919 Q88.2651 212.267 89.4456 210.924 Q91.691 208.401 92.5706 206.665 Q93.4734 204.906 93.4734 203.216 Q93.4734 200.461 91.5289 198.725 Q89.6076 196.989 86.5058 196.989 Q84.3067 196.989 81.8531 197.753 Q79.4225 198.517 76.6447 200.068 L76.6447 195.346 Q79.4688 194.211 81.9225 193.633 Q84.3762 193.054 86.4132 193.054 Q91.7836 193.054 94.978 195.739 Q98.1724 198.424 98.1724 202.915 Q98.1724 205.045 97.3622 206.966 Q96.5752 208.864 94.4687 211.457 Q93.89 212.128 90.7882 215.345 Q87.6864 218.54 82.0382 224.304 Z" fill="#000000" fill-rule="nonzero" fill-opacity="1" /><path clip-path="url(#clip510)" d="M108.172 222.359 L113.057 222.359 L113.057 228.239 L108.172 228.239 L108.172 222.359 Z" fill="#000000" fill-rule="nonzero" fill-opacity="1" /><path clip-path="url(#clip510)" d="M123.288 193.679 L141.644 193.679 L141.644 197.614 L127.57 197.614 L127.57 206.086 Q128.589 205.739 129.607 205.577 Q130.626 205.392 131.644 205.392 Q137.431 205.392 140.811 208.563 Q144.191 211.734 144.191 217.151 Q144.191 222.73 140.718 225.831 Q137.246 228.91 130.927 228.91 Q128.751 228.91 126.482 228.54 Q124.237 228.169 121.83 227.429 L121.83 222.73 Q123.913 223.864 126.135 224.419 Q128.357 224.975 130.834 224.975 Q134.839 224.975 137.177 222.869 Q139.515 220.762 139.515 217.151 Q139.515 213.54 137.177 211.433 Q134.839 209.327 130.834 209.327 Q128.959 209.327 127.084 209.744 Q125.232 210.16 123.288 211.04 L123.288 193.679 Z" fill="#000000" fill-rule="nonzero" fill-opacity="1" /><polyline clip-path="url(#clip511)" style="stroke:#009af9; stroke-linecap:round; stroke-linejoin:round; stroke-width:8; stroke-opacity:1; fill:none" points="451.846,1404.18 421.208,1390.74 396.163,1379.26 375.565,1369.31 358.556,1360.6 344.475,1352.89 332.798,1346.01 323.103,1339.8 315.05,1334.15 308.357,1328.97 302.794,1324.17 298.17,1319.7 294.326,1315.49 291.132,1311.5 288.479,1307.7 286.274,1304.05 284.443,1300.52 282.925,1297.11 281.665,1293.78 280.62,1290.53 279.754,1287.33 279.039,1284.19 278.448,1281.1 277.96,1278.03 277.557,1275 277.228,1271.99 276.958,1269.01 276.738,1266.04 276.559,1263.08 276.414,1260.14 276.299,1257.21 276.208,1254.28 276.138,1251.37 276.083,1248.46 276.043,1245.55 276.013,1242.65 275.994,1239.76 275.984,1236.86 275.98,1233.97 275.982,1231.08 275.989,1228.2 275.999,1225.31 276.013,1222.43 276.029,1219.55 276.049,1216.67 276.07,1213.79 276.093,1210.92 276.117,1208.04 276.143,1205.16 276.169,1202.29 276.196,1199.42 276.224,1196.54 276.253,1193.67 276.282,1190.8 276.312,1187.93 276.342,1185.06 276.373,1182.19 276.404,1179.32 276.435,1176.45 276.466,1173.58 276.497,1170.72 276.529,1167.85 276.561,1164.98 276.593,1162.12 276.625,1159.25 276.657,1156.39 276.69,1153.53 276.723,1150.66 276.756,1147.8 276.789,1144.94 276.822,1142.08 276.855,1139.22 276.888,1136.36 276.921,1133.5 276.954,1130.64 276.987,1127.78 277.021,1124.92 277.054,1122.07 277.088,1119.21 277.122,1116.36 277.156,1113.5 277.191,1110.65 277.225,1107.79 277.259,1104.94 277.294,1102.09 277.329,1099.23 277.363,1096.38 277.397,1093.53 277.432,1090.68 277.466,1087.83 277.501,1084.98 277.536,1082.13 277.571,1079.29 277.606,1076.44 277.641,1073.59 277.677,1070.75 277.712,1067.9 277.748,1065.06 277.784,1062.21 277.821,1059.37 277.857,1056.53 277.894,1053.68 277.93,1050.84 277.967,1048 278.003,1045.16 278.039,1042.32 278.075,1039.48 278.112,1036.64 278.148,1033.81 278.184,1030.97 278.22,1028.13 278.257,1025.3 278.294,1022.46 278.331,1019.63 278.369,1016.79 278.407,1013.96 278.445,1011.13 278.483,1008.3 278.522,1005.46 278.56,1002.63 278.599,999.805 278.638,996.976 278.677,994.148 278.716,991.321 278.755,988.494 278.793,985.667 278.832,982.841 278.87,980.016 278.908,977.192 278.946,974.368 278.984,971.545 279.023,968.722 279.062,965.9 279.101,963.08 279.141,960.259 279.181,957.44 279.221,954.622 279.262,951.804 279.303,948.987 279.345,946.171 279.386,943.356 279.428,940.541 279.47,937.727 279.512,934.914 279.554,932.101 279.596,929.289 279.637,926.478 279.678,923.667 279.719,920.857 279.759,918.047 279.799,915.238 279.84,912.43 279.881,909.623 279.922,906.816 279.964,904.011 280.006,901.206 280.048,898.402 280.091,895.599 280.135,892.796 280.179,889.995 280.223,887.195 280.268,884.395 280.313,881.596 280.358,878.798 280.404,876.001 280.45,873.205 280.495,870.409 280.54,867.614 280.585,864.82 280.629,862.026 280.673,859.233 280.716,856.44 280.76,853.648 280.803,850.857 280.847,848.067 280.891,845.277 280.935,842.489 280.98,839.701 281.026,836.915 281.072,834.129 281.118,831.345 281.165,828.561 281.213,825.778 281.261,822.996 281.31,820.215 281.359,817.435 281.408,814.656 281.458,811.878 281.508,809.101 281.557,806.324 281.607,803.548 281.656,800.773 281.704,797.999 281.752,795.225 281.799,792.452 281.846,789.679 281.894,786.908 281.941,784.137 281.989,781.367 282.037,778.599 282.085,775.831 282.134,773.064 282.184,770.298 282.234,767.534 282.285,764.77 282.337,762.007 282.389,759.246 282.442,756.485 282.495,753.726 282.549,750.967 282.603,748.21 282.657,745.453 282.711,742.697 282.766,739.943 282.82,737.189 282.874,734.436 282.928,731.683 282.98,728.932 283.033,726.181 283.085,723.431 283.137,720.682 283.189,717.934 283.242,715.187 283.295,712.441 283.348,709.696 283.402,706.952 283.457,704.209 283.512,701.467 283.567,698.727 283.624,695.987 283.681,693.249 283.738,690.512 283.797,687.776 283.855,685.041 283.915,682.308 283.974,679.575 284.034,676.844 284.095,674.113 284.155,671.384 284.215,668.655 284.275,665.928 284.335,663.201 284.394,660.475 284.452,657.75 284.511,655.026 284.569,652.303 284.628,649.582 284.687,646.861 284.746,644.141 284.806,641.423 284.866,638.706 284.927,635.99 284.988,633.275 285.05,630.562 285.113,627.849 285.176,625.139 285.24,622.429 285.305,619.72 285.37,617.013 285.436,614.307 285.502,611.603 285.569,608.899 285.637,606.197 285.704,603.496 285.772,600.797 285.84,598.098 285.907,595.4 285.975,592.704 286.042,590.009 286.109,587.314 286.176,584.621 286.242,581.929 286.309,579.239 286.377,576.549 286.444,573.861 286.512,571.174 286.581,568.489 286.65,565.805 286.72,563.122 286.79,560.441 286.861,557.761 286.933,555.082 287.005,552.405 287.078,549.729 287.152,547.055 287.227,544.382 287.302,541.711 287.378,539.041 287.454,536.373 287.531,533.706 287.608,531.04 287.686,528.376 287.764,525.713 287.842,523.052 287.92,520.392 287.998,517.733 288.076,515.076 288.154,512.42 288.231,509.765 288.31,507.112 288.388,504.46 288.467,501.81 288.546,499.162 288.626,496.515 288.707,493.869 288.788,491.225 288.87,488.583 288.953,485.942 289.036,483.303 289.12,480.666 289.205,478.03 289.291,475.396 289.377,472.764 289.465,470.133 289.553,467.505 289.641,464.877 289.731,462.252 289.821,459.628 289.912,457.006 290.003,454.386 290.095,451.768 290.188,449.151 290.28,446.536 290.373,443.922 290.467,441.311 290.56,438.701 290.654,436.092 290.748,433.486 290.843,430.881 290.938,428.278 291.034,425.677 291.13,423.078 291.227,420.481 291.325,417.886 291.424,415.293 291.523,412.702 291.624,410.112 291.725,407.525 291.827,404.94 291.93,402.357 292.035,399.775 292.14,397.196 292.246,394.62 292.353,392.045 292.461,389.472 292.57,386.902 292.679,384.333 292.79,381.767 292.902,379.203 293.015,376.641 293.128,374.082 293.243,371.525 293.358,368.969 293.474,366.417 293.591,363.866 293.709,361.318 293.827,358.772 293.946,356.229 294.066,353.688 294.187,351.149 294.309,348.613 294.432,346.079 294.556,343.548 294.681,341.019 294.807,338.493 294.935,335.97 295.064,333.449 295.193,330.93 295.325,328.415 295.457,325.902 295.591,323.392 295.726,320.884 295.863,318.38 296.001,315.878 296.14,313.379 296.281,310.883 296.423,308.39 296.567,305.9 296.712,303.413 296.859,300.929 297.007,298.448 297.157,295.97 297.309,293.495 297.462,291.024 297.617,288.555 297.774,286.09 297.932,283.629 298.092,281.171 298.253,278.716 298.417,276.264 298.582,273.816 298.75,271.372 298.919,268.932 299.091,266.495 299.265,264.062 299.441,261.633 299.619,259.207 299.8,256.786 299.983,254.368 300.168,251.955 300.355,249.545 300.545,247.14 300.737,244.739 300.932,242.342 301.129,239.949 301.329,237.561 301.531,235.177 301.736,232.797 301.944,230.422 302.155,228.052 302.369,225.687 302.586,223.327 302.806,220.971 303.029,218.621 303.256,216.276 303.487,213.936 303.721,211.602 303.959,209.273 304.2,206.95 304.446,204.633 304.696,202.321 304.951,200.016 305.21,197.717 305.474,195.424 305.743,193.137 306.016,190.858 306.296,188.585 306.58,186.319 306.87,184.06 307.167,181.808 307.474,179.567 307.79,177.334 308.116,175.112 308.451,172.898 308.794,170.693 309.145,168.497 309.502,166.309 309.867,164.13 310.238,161.96 310.617,159.798 311.001,157.645 311.393,155.501 311.792,153.366 312.199,151.24 312.613,149.125 313.036,147.02 313.468,144.926 313.91,142.843 314.363,140.772 314.828,138.714 315.305,136.67 315.797,134.64 316.304,132.625 316.828,130.626 317.37,128.644 317.932,126.681 318.515,124.736 319.122,122.813 319.754,120.911 320.414,119.032 321.103,117.177 321.824,115.348 322.579,113.546 323.37,111.773 324.2,110.031 325.072,108.321 325.988,106.644 326.952,105.003 327.966,103.4 329.033,101.836 330.157,100.313 331.34,98.8339 332.6,97.4069 333.954,96.0423 335.398,94.7388 336.932,93.4978 338.563,92.3236 340.303,91.2231 342.17,90.2062 344.186,89.2855 346.38,88.4765 348.787,87.7976 351.445,87.2699 354.4,86.9172 357.703,86.7664 361.411,86.8471 365.584,87.1917 370.446,87.9067 376.129,89.0596 382.538,90.6161 389.835,92.6609 398.442,95.4005 409.044,99.1635 422.586,104.4 440.277,111.682 463.684,121.748 496.125,136.142 543.506,157.601 621.257,193.133 765.163,258.814 1087.09,404.633 1983.1,806.587 2998.29,1278.21 3045.38,1341.21 2950.94,1342.45 2852.58,1340.39 2757.31,1338.07 2665.39,1335.65 2576.71,1333.14 2491.15,1330.55 2408.59,1327.86 2328.92,1325.08 2251.99,1322.2 2177.73,1319.22 2106.01,1316.13 2036.71,1312.93 1969.77,1309.62 1905.05,1306.19 1842.51,1302.65 1782,1298.97 1723.46,1295.16 1666.82,1291.22 1611.96,1287.14 1558.84,1282.91 1507.36,1278.53 1457.45,1273.99 1409.04,1269.3 1362.06,1264.43 1316.44,1259.39 1272.12,1254.16 1229.03,1248.75 1187.12,1243.15 1146.33,1237.35 1106.6,1231.34 1067.88,1225.13 1030.12,1218.7 993.278,1212.05 957.317,1205.18 922.199,1198.09 887.892,1190.78 854.375,1183.25 821.629,1175.51 789.645,1167.57 758.422,1159.43 727.97,1151.12 698.306,1142.66 669.458,1134.06 641.465,1125.37 614.371,1116.61 588.224,1107.81 563.08,1099.03 538.996,1090.3 516.037,1081.67 494.266,1073.18 473.726,1064.88 454.458,1056.79 436.489,1048.96 419.83,1041.4 404.479,1034.15 390.418,1027.21 377.614,1020.58 366.021,1014.28 355.575,1008.29 346.187,1002.6 337.8,997.19 330.358,992.058 323.794,987.185 318.036,982.556 313.001,978.146 308.602,973.932 304.74,969.884 301.352,965.982 298.406,962.219 295.852,958.579 293.642,955.047 291.734,951.612 290.087,948.259 288.661,944.977 287.432,941.758 286.376,938.595 285.474,935.481 284.703,932.41 284.046,929.376 283.485,926.373 283.002,923.396 282.59,920.442 282.241,917.509 281.946,914.593 281.699,911.694 281.492,908.808 281.319,905.934 281.176,903.07 281.057,900.214 280.959,897.366 280.882,894.525 280.821,891.691 280.776,888.861 280.743,886.037 280.721,883.216 280.708,880.4 280.702,877.586 280.702,874.775 280.708,871.966 280.72,869.16 280.736,866.356 280.757,863.555 280.781,860.755 280.809,857.957 280.838,855.16 280.87,852.365 280.904,849.571 280.938,846.779 280.975,843.987 281.013,841.197 281.052,838.408 281.093,835.621 281.134,832.834 281.176,830.048 281.22,827.264 281.264,824.48 281.308,821.697 281.353,818.916 281.398,816.135 281.443,813.355 281.489,810.576 281.535,807.798 281.582,805.021 281.629,802.245 281.677,799.47 281.724,796.695 281.773,793.922 281.821,791.15 281.87,788.378 281.919,785.607 281.968,782.838 282.018,780.069 282.067,777.301 282.117,774.534 282.167,771.768 282.217,769.002 282.267,766.238 282.318,763.475 282.369,760.712 282.42,757.951 282.471,755.19 282.523,752.431 282.575,749.672 282.627,746.915 282.68,744.158 282.732,741.402 282.785,738.647 282.838,735.894 282.892,733.141 282.945,730.389 282.998,727.638 283.052,724.888 283.105,722.139 283.159,719.391 283.213,716.643 283.268,713.897 283.322,711.152 283.377,708.408 283.433,705.665 283.488,702.923 283.544,700.182 283.601,697.442 283.657,694.703 283.714,691.966 283.772,689.229 283.829,686.493 283.887,683.758 283.945,681.025 284.003,678.292 284.061,675.561 284.119,672.83 284.177,670.1 284.236,667.372 284.294,664.644 284.353,661.918 284.412,659.193 284.472,656.468 284.531,653.745 284.591,651.023 284.652,648.303 284.713,645.583 284.774,642.865 284.836,640.147 284.898,637.431 284.961,634.716 285.024,632.002 285.087,629.29 285.151,626.578 285.215,623.868 285.279,621.159 285.343,618.451 285.408,615.744 285.473,613.039 285.537,610.334 285.602,607.63 285.667,604.928 285.732,602.227 285.797,599.527 285.863,596.829 285.929,594.131 285.995,591.435 286.062,588.74 286.13,586.047 286.198,583.354 286.266,580.663 286.335,577.974 286.404,575.285 286.474,572.599 286.545,569.913 286.616,567.229 286.687,564.546 286.759,561.864 286.831,559.184 286.904,556.505 286.977,553.827 287.05,551.151 287.123,548.476 287.196,545.802 287.27,543.13 287.343,540.459 287.417,537.789 287.491,535.12 287.565,532.453 287.64,529.788 287.716,527.124 287.791,524.461 287.868,521.8 287.945,519.14 288.022,516.482 288.101,513.825 288.179,511.17 288.259,508.517 288.339,505.865 288.42,503.214 288.501,500.565 288.583,497.918 288.665,495.272 288.748,492.628 288.832,489.985 288.916,487.344 289.001,484.705 289.085,482.067 289.171,479.43 289.256,476.795 289.341,474.162 289.427,471.53 289.513,468.9 289.6,466.272 289.687,463.645 289.775,461.02 289.863,458.397 289.952,455.775 290.041,453.155 290.131,450.537 290.222,447.92 290.314,445.306 290.406,442.693 290.499,440.082 290.593,437.473 290.688,434.866 290.784,432.26 290.88,429.657 290.977,427.055 291.075,424.456 291.174,421.858 291.274,419.262 291.374,416.668 291.475,414.076 291.576,411.486 291.678,408.898 291.781,406.312 291.884,403.728 291.988,401.146 292.092,398.565 292.197,395.987 292.303,393.411 292.409,390.837 292.516,388.265 292.624,385.696 292.733,383.128 292.843,380.563 292.953,378 293.065,375.439 293.178,372.88 293.291,370.324 293.406,367.769 293.521,365.218 293.638,362.668 293.756,360.121 293.875,357.576 293.995,355.034 294.116,352.494 294.238,349.957 294.362,347.422 294.486,344.889 294.612,342.359 294.739,339.832 294.867,337.307 294.996,334.785 295.126,332.265 295.258,329.748 295.39,327.234 295.524,324.723 295.658,322.214 295.794,319.708 295.931,317.204 296.07,314.704 296.21,312.207 296.351,309.712 296.494,307.221 296.638,304.732 296.784,302.247 296.931,299.764 297.08,297.285 297.23,294.808 297.382,292.335 297.536,289.865 297.691,287.399 297.848,284.935 298.006,282.475 298.167,280.018 298.329,277.565 298.493,275.115 298.659,272.669 298.827,270.226 298.997,267.787 299.169,265.352 299.343,262.92 299.52,260.492 299.698,258.068 299.879,255.648 300.062,253.232 300.248,250.82 300.436,248.412 300.626,246.008 300.819,243.609 301.015,241.214 301.213,238.823 301.414,236.437 301.619,234.056 301.828,231.679 302.039,229.308 302.254,226.941 302.473,224.579 302.695,222.222 302.92,219.871 303.148,217.524 303.38,215.182 303.615,212.846 303.854,210.515 304.096,208.19 304.342,205.87 304.592,203.555 304.845,201.247 305.103,198.944 305.364,196.648 305.63,194.358 305.901,192.074 306.176,189.796 306.456,187.526 306.741,185.262 307.031,183.006 307.328,180.756 307.63,178.515 307.938,176.281 308.253,174.055 308.574,171.838 308.903,169.629 309.239,167.428 309.583,165.237 309.935,163.055 310.296,160.883 310.665,158.721 311.044,156.569 311.433,154.428 311.833,152.297 312.243,150.178 312.664,148.07 313.097,145.975 313.542,143.891 314,141.82 314.472,139.763 314.969,137.725 315.491,135.706 316.035,133.707 316.6,131.724 317.182,129.758 317.781,127.808 318.396,125.874 319.026,123.955 319.672,122.054 320.334,120.169 321.015,118.302 321.715,116.455 322.437,114.628 323.184,112.824 323.96,111.046 324.768,109.294 325.613,107.573 326.501,105.885 327.437,104.234 328.427,102.623 329.478,101.057 330.597,99.5385 331.792,98.0734 333.071,96.6662 334.444,95.322 335.92,94.0463 337.509,92.8448 339.221,91.7235 341.068,90.6888 343.061,89.7472 345.212,88.9057 347.539,88.1743 350.09,87.5788 352.897,87.1369 356.002,86.8714 359.464,86.8135 363.359,87.0024 367.778,87.4852 372.851,88.3269 378.86,89.6636 385.791,91.4976 393.806,93.9154 403.375,97.1453 415.269,101.557 430.564,107.662 450.643,116.114 478.472,128.279 516.707,145.431 574.779,171.898 677.504,218.883 882.636,312.268 1406.98,548.401 2613.56,1092.31 3068.97,1329.02 3002.23,1342.89 2903.54,1341.53 2806.55,1339.29 2712.89,1336.92 2622.54,1334.46 2535.37,1331.91 2451.25,1329.27 2370.09,1326.54 2291.76,1323.72 2216.11,1320.78 2143.08,1317.75 2072.53,1314.61 2004.38,1311.36 1938.52,1308 1874.85,1304.51 1813.28,1300.9 1753.74,1297.17 1696.1,1293.29 1640.34,1289.29 1586.32,1285.13 1533.99,1280.83 1483.28,1276.38 1434.09,1271.77 1386.37,1266.99 1340.05,1262.04 1295.07,1256.91 1251.35,1251.6 1208.83,1246.09 1167.45,1240.39 1127.16,1234.49 1087.93,1228.39 1049.68,1222.07 1012.39,1215.55 975.98,1208.8 940.421,1201.82 905.691,1194.63 871.761,1187.21 838.612,1179.58 806.229,1171.74 774.61,1163.7 743.758,1155.48 713.684,1147.1 684.408,1138.57 655.961,1129.92 628.383,1121.18 601.726,1112.4 576.048,1103.61 551.405,1094.84 527.865,1086.16 505.487,1077.6 484.317,1069.2 464.394,1061 445.747,1053.03 428.393,1045.33 412.342,1037.91 397.591,1030.79 384.13,1024 371.897,1017.53 360.836,1011.37 350.898,1005.52 342.023,999.97 334.142,994.71 327.174,989.719 321.031,984.974 315.614,980.448 310.841,976.119 306.661,971.971 303.017,967.99 299.854,964.158 297.115,960.459 294.746,956.878 292.692,953.396 290.908,950 289.366,946.681 288.039,943.43 286.901,940.241 285.928,937.104 285.095,934.013 284.38,930.96 283.765,927.94 283.239,924.948 282.79,921.982 282.411,919.039 282.091,916.115 281.822,913.208 281.596,910.316 281.406,907.436 281.246,904.567 281.114,901.706 281.006,898.855 280.919,896.01 280.851,893.173 280.799,890.341 280.76,887.514 280.733,884.692 280.714,881.873 280.703,879.057 280.7,876.244 280.703,873.435 280.712,870.627 280.727,867.823 280.746,865.02 280.769,862.219 280.795,859.42 280.823,856.623 280.853,853.827 280.885,851.032 280.92,848.239 280.955,845.447 280.993,842.656 281.031,839.867 281.071,837.079 281.113,834.291 281.155,831.505 281.198,828.72 281.241,825.936 281.285,823.153 281.329,820.371 281.374,817.589 281.419,814.809 281.465,812.029 281.511,809.251 281.557,806.473 281.604,803.697 281.652,800.921 281.7,798.146 281.748,795.373 281.796,792.6 281.845,789.828 281.894,787.057 281.943,784.286 281.992,781.517 282.041,778.749 282.091,775.981 282.14,773.214 282.19,770.449 282.241,767.684 282.291,764.92 282.342,762.157 282.393,759.395 282.444,756.634 282.496,753.874 282.548,751.115 282.6,748.357 282.653,745.6 282.705,742.844 282.758,740.088 282.811,737.334 282.864,734.581 282.917,731.828 282.97,729.076 283.023,726.326 283.076,723.576 283.13,720.828 283.184,718.08 283.239,715.333 283.293,712.588 283.348,709.843 283.404,707.1 283.459,704.357 283.515,701.616 283.572,698.875 283.628,696.136 283.685,693.398 283.743,690.66 283.8,687.924 283.857,685.189 283.915,682.455 283.973,679.721 284.03,676.989 284.088,674.258 284.146,671.528 284.204,668.799 284.263,666.071 284.321,663.344 284.38,660.618 284.44,657.893 284.499,655.169 284.56,652.447 284.62,649.726 284.681,647.006 284.743,644.287 284.805,641.569 284.867,638.852 284.929,636.137 284.992,633.422 285.055,630.709 285.119,627.997 285.183,625.286 285.246,622.576 285.31,619.868 285.374,617.16 285.438,614.453 285.502,611.748 285.567,609.044 285.631,606.341 285.696,603.639 285.761,600.939 285.827,598.24 285.893,595.542 285.959,592.845 286.026,590.149 286.094,587.455 286.162,584.762 286.231,582.071 286.3,579.381 286.369,576.692 286.439,574.004 286.51,571.318 286.581,568.633 286.652,565.949 286.723,563.267 286.795,560.586 286.867,557.906 286.94,555.228 287.012,552.551 287.084,549.875 287.157,547.2 287.23,544.527 287.303,541.855 287.376,539.185 287.45,536.515 287.524,533.848 287.599,531.182 287.674,528.517 287.75,525.853 287.827,523.191 287.904,520.531 287.981,517.872 288.06,515.215 288.139,512.559 288.218,509.905 288.298,507.252 288.379,504.601 288.46,501.951 288.542,499.303 288.625,496.656 288.707,494.011 288.791,491.368 288.874,488.726 288.958,486.086 289.042,483.447 289.126,480.809 289.211,478.173 289.295,475.539 289.38,472.906 289.466,470.275 289.552,467.646 289.639,465.018 289.726,462.392 289.814,459.768 289.903,457.146 289.993,454.525 290.083,451.906 290.174,449.289 290.265,446.673 290.358,444.059 290.451,441.448 290.545,438.838 290.64,436.23 290.735,433.623 290.831,431.019 290.929,428.416 291.026,425.816 291.125,423.217 291.224,420.62 291.324,418.025 291.424,415.432 291.525,412.841 291.626,410.252 291.728,407.665 291.83,405.079 291.933,402.496 292.036,399.915 292.141,397.335 292.246,394.758 292.351,392.183 292.458,389.61 292.566,387.039 292.674,384.471 292.784,381.904 292.894,379.34 293.005,376.778 293.117,374.218 293.231,371.66 293.345,369.105 293.461,366.552 293.577,364.001 293.695,361.453 293.813,358.907 293.933,356.364 294.054,353.822 294.176,351.284 294.299,348.747 294.423,346.214 294.548,343.682 294.674,341.154 294.801,338.628 294.93,336.104 295.059,333.583 295.19,331.065 295.321,328.549 295.453,326.036 295.587,323.526 295.722,321.018 295.859,318.514 295.997,316.012 296.136,313.513 296.276,311.017 296.418,308.524 296.562,306.034 296.707,303.546 296.853,301.062 297.001,298.581 297.15,296.103 297.301,293.628 297.454,291.157 297.608,288.688 297.764,286.223 297.922,283.761 298.082,281.303 298.243,278.847 298.406,276.396 298.571,273.948 298.739,271.503 298.908,269.062 299.079,266.625 299.252,264.191 299.427,261.761 299.605,259.335 299.784,256.913 299.966,254.495 300.151,252.081 300.337,249.671 300.527,247.265 300.718,244.863 300.913,242.466 301.11,240.073 301.31,237.685 301.513,235.301 301.719,232.922 301.928,230.547 302.14,228.178 302.355,225.812 302.573,223.452 302.794,221.097 303.018,218.747 303.246,216.402 303.477,214.062 303.712,211.728 303.951,209.399 304.193,207.075 304.439,204.758 304.69,202.446 304.944,200.14 305.203,197.841 305.467,195.547 305.735,193.261 306.008,190.98 306.287,188.707 306.571,186.44 306.86,184.181 307.155,181.929 307.456,179.684 307.764,177.448 308.077,175.219 308.398,172.998 308.726,170.785 309.061,168.581 309.403,166.386 "/>
<path clip-path="url(#clip510)" d="M2652.67 197.473 L3054.07 197.473 L3054.07 93.7926 L2652.67 93.7926  Z" fill="#ffffff" fill-rule="evenodd" fill-opacity="1"/>
<polyline clip-path="url(#clip510)" style="stroke:#000000; stroke-linecap:round; stroke-linejoin:round; stroke-width:4; stroke-opacity:1; fill:none" points="2652.67,197.473 3054.07,197.473 3054.07,93.7926 2652.67,93.7926 2652.67,197.473 "/>
<polyline clip-path="url(#clip510)" style="stroke:#009af9; stroke-linecap:round; stroke-linejoin:round; stroke-width:8; stroke-opacity:1; fill:none" points="2685.56,145.633 2882.93,145.633 "/>
<path clip-path="url(#clip510)" d="M2926.45 126.941 Q2923.35 132.265 2921.85 137.473 Q2920.34 142.681 2920.34 148.028 Q2920.34 153.376 2921.85 158.63 Q2923.37 163.862 2926.45 169.163 L2922.75 169.163 Q2919.28 163.723 2917.54 158.468 Q2915.83 153.214 2915.83 148.028 Q2915.83 142.866 2917.54 137.635 Q2919.25 132.404 2922.75 126.941 L2926.45 126.941 Z" fill="#000000" fill-rule="nonzero" fill-opacity="1" /><path clip-path="url(#clip510)" d="M2933.24 128.353 L2938.26 128.353 L2946.85 141.2 L2955.48 128.353 L2960.5 128.353 L2949.39 144.95 L2961.24 162.913 L2956.22 162.913 L2946.5 148.214 L2936.71 162.913 L2931.66 162.913 L2944 144.464 L2933.24 128.353 Z" fill="#000000" fill-rule="nonzero" fill-opacity="1" /><path clip-path="url(#clip510)" d="M2968.28 157.033 L2973.17 157.033 L2973.17 161.014 L2969.37 168.422 L2966.38 168.422 L2968.28 161.014 L2968.28 157.033 Z" fill="#000000" fill-rule="nonzero" fill-opacity="1" /><path clip-path="url(#clip510)" d="M2977.7 128.353 L2982.73 128.353 L2992.31 142.566 L3001.82 128.353 L3006.85 128.353 L2994.62 146.454 L2994.62 162.913 L2989.93 162.913 L2989.93 146.454 L2977.7 128.353 Z" fill="#000000" fill-rule="nonzero" fill-opacity="1" /><path clip-path="url(#clip510)" d="M3010.55 126.941 L3014.25 126.941 Q3017.73 132.404 3019.44 137.635 Q3021.18 142.866 3021.18 148.028 Q3021.18 153.214 3019.44 158.468 Q3017.73 163.723 3014.25 169.163 L3010.55 169.163 Q3013.63 163.862 3015.13 158.63 Q3016.66 153.376 3016.66 148.028 Q3016.66 142.681 3015.13 137.473 Q3013.63 132.265 3010.55 126.941 Z" fill="#000000" fill-rule="nonzero" fill-opacity="1" /></svg>
