<?xml version="1.0" encoding="utf-8"?>
<svg xmlns="http://www.w3.org/2000/svg" xmlns:xlink="http://www.w3.org/1999/xlink" width="800" height="400" viewBox="0 0 3200 1600">
<defs>
  <clipPath id="clip370">
    <rect x="0" y="0" width="3200" height="1600"/>
  </clipPath>
</defs>
<path clip-path="url(#clip370)" d="M0 1600 L3200 1600 L3200 0 L0 0  Z" fill="#ffffff" fill-rule="evenodd" fill-opacity="1"/>
<defs>
  <clipPath id="clip371">
    <rect x="640" y="0" width="2241" height="1600"/>
  </clipPath>
</defs>
<path clip-path="url(#clip370)" d="M164.112 1443.7 L3152.76 1443.7 L3152.76 47.2441 L164.112 47.2441  Z" fill="#ffffff" fill-rule="evenodd" fill-opacity="1"/>
<defs>
  <clipPath id="clip372">
    <rect x="164" y="47" width="2990" height="1397"/>
  </clipPath>
</defs>
<polyline clip-path="url(#clip372)" style="stroke:#000000; stroke-linecap:round; stroke-linejoin:round; stroke-width:2; stroke-opacity:0.1; fill:none" points="164.112,1443.7 164.112,47.2441 "/>
<polyline clip-path="url(#clip372)" style="stroke:#000000; stroke-linecap:round; stroke-linejoin:round; stroke-width:2; stroke-opacity:0.1; fill:none" points="761.841,1443.7 761.841,47.2441 "/>
<polyline clip-path="url(#clip372)" style="stroke:#000000; stroke-linecap:round; stroke-linejoin:round; stroke-width:2; stroke-opacity:0.1; fill:none" points="1359.57,1443.7 1359.57,47.2441 "/>
<polyline clip-path="url(#clip372)" style="stroke:#000000; stroke-linecap:round; stroke-linejoin:round; stroke-width:2; stroke-opacity:0.1; fill:none" points="1957.3,1443.7 1957.3,47.2441 "/>
<polyline clip-path="url(#clip372)" style="stroke:#000000; stroke-linecap:round; stroke-linejoin:round; stroke-width:2; stroke-opacity:0.1; fill:none" points="2555.03,1443.7 2555.03,47.2441 "/>
<polyline clip-path="url(#clip372)" style="stroke:#000000; stroke-linecap:round; stroke-linejoin:round; stroke-width:2; stroke-opacity:0.1; fill:none" points="3152.76,1443.7 3152.76,47.2441 "/>
<polyline clip-path="url(#clip372)" style="stroke:#000000; stroke-linecap:round; stroke-linejoin:round; stroke-width:2; stroke-opacity:0.1; fill:none" points="164.112,1443.7 164.112,47.2441 "/>
<polyline clip-path="url(#clip372)" style="stroke:#000000; stroke-linecap:round; stroke-linejoin:round; stroke-width:2; stroke-opacity:0.1; fill:none" points="761.841,1443.7 761.841,47.2441 "/>
<polyline clip-path="url(#clip372)" style="stroke:#000000; stroke-linecap:round; stroke-linejoin:round; stroke-width:2; stroke-opacity:0.1; fill:none" points="1359.57,1443.7 1359.57,47.2441 "/>
<polyline clip-path="url(#clip372)" style="stroke:#000000; stroke-linecap:round; stroke-linejoin:round; stroke-width:2; stroke-opacity:0.1; fill:none" points="1957.3,1443.7 1957.3,47.2441 "/>
<polyline clip-path="url(#clip372)" style="stroke:#000000; stroke-linecap:round; stroke-linejoin:round; stroke-width:2; stroke-opacity:0.1; fill:none" points="2555.03,1443.7 2555.03,47.2441 "/>
<polyline clip-path="url(#clip372)" style="stroke:#000000; stroke-linecap:round; stroke-linejoin:round; stroke-width:2; stroke-opacity:0.1; fill:none" points="3152.76,1443.7 3152.76,47.2441 "/>
<polyline clip-path="url(#clip370)" style="stroke:#000000; stroke-linecap:round; stroke-linejoin:round; stroke-width:4; stroke-opacity:1; fill:none" points="164.112,1443.7 3152.76,1443.7 "/>
<polyline clip-path="url(#clip370)" style="stroke:#000000; stroke-linecap:round; stroke-linejoin:round; stroke-width:4; stroke-opacity:1; fill:none" points="164.112,47.2441 3152.76,47.2441 "/>
<polyline clip-path="url(#clip370)" style="stroke:#000000; stroke-linecap:round; stroke-linejoin:round; stroke-width:4; stroke-opacity:1; fill:none" points="164.112,1443.7 164.112,1424.8 "/>
<polyline clip-path="url(#clip370)" style="stroke:#000000; stroke-linecap:round; stroke-linejoin:round; stroke-width:4; stroke-opacity:1; fill:none" points="761.841,1443.7 761.841,1424.8 "/>
<polyline clip-path="url(#clip370)" style="stroke:#000000; stroke-linecap:round; stroke-linejoin:round; stroke-width:4; stroke-opacity:1; fill:none" points="1359.57,1443.7 1359.57,1424.8 "/>
<polyline clip-path="url(#clip370)" style="stroke:#000000; stroke-linecap:round; stroke-linejoin:round; stroke-width:4; stroke-opacity:1; fill:none" points="1957.3,1443.7 1957.3,1424.8 "/>
<polyline clip-path="url(#clip370)" style="stroke:#000000; stroke-linecap:round; stroke-linejoin:round; stroke-width:4; stroke-opacity:1; fill:none" points="2555.03,1443.7 2555.03,1424.8 "/>
<polyline clip-path="url(#clip370)" style="stroke:#000000; stroke-linecap:round; stroke-linejoin:round; stroke-width:4; stroke-opacity:1; fill:none" points="3152.76,1443.7 3152.76,1424.8 "/>
<polyline clip-path="url(#clip370)" style="stroke:#000000; stroke-linecap:round; stroke-linejoin:round; stroke-width:4; stroke-opacity:1; fill:none" points="164.112,47.2441 164.112,66.1417 "/>
<polyline clip-path="url(#clip370)" style="stroke:#000000; stroke-linecap:round; stroke-linejoin:round; stroke-width:4; stroke-opacity:1; fill:none" points="761.841,47.2441 761.841,66.1417 "/>
<polyline clip-path="url(#clip370)" style="stroke:#000000; stroke-linecap:round; stroke-linejoin:round; stroke-width:4; stroke-opacity:1; fill:none" points="1359.57,47.2441 1359.57,66.1417 "/>
<polyline clip-path="url(#clip370)" style="stroke:#000000; stroke-linecap:round; stroke-linejoin:round; stroke-width:4; stroke-opacity:1; fill:none" points="1957.3,47.2441 1957.3,66.1417 "/>
<polyline clip-path="url(#clip370)" style="stroke:#000000; stroke-linecap:round; stroke-linejoin:round; stroke-width:4; stroke-opacity:1; fill:none" points="2555.03,47.2441 2555.03,66.1417 "/>
<polyline clip-path="url(#clip370)" style="stroke:#000000; stroke-linecap:round; stroke-linejoin:round; stroke-width:4; stroke-opacity:1; fill:none" points="3152.76,47.2441 3152.76,66.1417 "/>
<path clip-path="url(#clip370)" d="M164.112 1481.02 Q160.501 1481.02 158.672 1484.58 Q156.867 1488.12 156.867 1495.25 Q156.867 1502.36 158.672 1505.93 Q160.501 1509.47 164.112 1509.47 Q167.746 1509.47 169.552 1505.93 Q171.381 1502.36 171.381 1495.25 Q171.381 1488.12 169.552 1484.58 Q167.746 1481.02 164.112 1481.02 M164.112 1477.31 Q169.922 1477.31 172.978 1481.92 Q176.057 1486.5 176.057 1495.25 Q176.057 1503.98 172.978 1508.59 Q169.922 1513.17 164.112 1513.17 Q158.302 1513.17 155.223 1508.59 Q152.168 1503.98 152.168 1495.25 Q152.168 1486.5 155.223 1481.92 Q158.302 1477.31 164.112 1477.31 Z" fill="#000000" fill-rule="nonzero" fill-opacity="1" /><path clip-path="url(#clip370)" d="M752.223 1508.56 L759.862 1508.56 L759.862 1482.2 L751.552 1483.87 L751.552 1479.61 L759.815 1477.94 L764.491 1477.94 L764.491 1508.56 L772.13 1508.56 L772.13 1512.5 L752.223 1512.5 L752.223 1508.56 Z" fill="#000000" fill-rule="nonzero" fill-opacity="1" /><path clip-path="url(#clip370)" d="M1354.22 1508.56 L1370.54 1508.56 L1370.54 1512.5 L1348.6 1512.5 L1348.6 1508.56 Q1351.26 1505.81 1355.84 1501.18 Q1360.45 1496.53 1361.63 1495.19 Q1363.88 1492.66 1364.75 1490.93 Q1365.66 1489.17 1365.66 1487.48 Q1365.66 1484.72 1363.71 1482.99 Q1361.79 1481.25 1358.69 1481.25 Q1356.49 1481.25 1354.04 1482.01 Q1351.61 1482.78 1348.83 1484.33 L1348.83 1479.61 Q1351.65 1478.47 1354.11 1477.89 Q1356.56 1477.31 1358.6 1477.31 Q1363.97 1477.31 1367.16 1480 Q1370.36 1482.69 1370.36 1487.18 Q1370.36 1489.31 1369.55 1491.23 Q1368.76 1493.12 1366.65 1495.72 Q1366.07 1496.39 1362.97 1499.61 Q1359.87 1502.8 1354.22 1508.56 Z" fill="#000000" fill-rule="nonzero" fill-opacity="1" /><path clip-path="url(#clip370)" d="M1961.55 1493.87 Q1964.9 1494.58 1966.78 1496.85 Q1968.68 1499.12 1968.68 1502.45 Q1968.68 1507.57 1965.16 1510.37 Q1961.64 1513.17 1955.16 1513.17 Q1952.98 1513.17 1950.67 1512.73 Q1948.37 1512.31 1945.92 1511.46 L1945.92 1506.94 Q1947.87 1508.08 1950.18 1508.66 Q1952.5 1509.24 1955.02 1509.24 Q1959.42 1509.24 1961.71 1507.5 Q1964.02 1505.76 1964.02 1502.45 Q1964.02 1499.4 1961.87 1497.69 Q1959.74 1495.95 1955.92 1495.95 L1951.89 1495.95 L1951.89 1492.11 L1956.11 1492.11 Q1959.56 1492.11 1961.38 1490.74 Q1963.21 1489.35 1963.21 1486.76 Q1963.21 1484.1 1961.31 1482.69 Q1959.44 1481.25 1955.92 1481.25 Q1954 1481.25 1951.8 1481.67 Q1949.6 1482.08 1946.96 1482.96 L1946.96 1478.8 Q1949.62 1478.06 1951.94 1477.69 Q1954.28 1477.31 1956.34 1477.31 Q1961.66 1477.31 1964.76 1479.75 Q1967.87 1482.15 1967.87 1486.27 Q1967.87 1489.14 1966.22 1491.13 Q1964.58 1493.1 1961.55 1493.87 Z" fill="#000000" fill-rule="nonzero" fill-opacity="1" /><path clip-path="url(#clip370)" d="M2558.04 1482.01 L2546.23 1500.46 L2558.04 1500.46 L2558.04 1482.01 M2556.81 1477.94 L2562.69 1477.94 L2562.69 1500.46 L2567.62 1500.46 L2567.62 1504.35 L2562.69 1504.35 L2562.69 1512.5 L2558.04 1512.5 L2558.04 1504.35 L2542.43 1504.35 L2542.43 1499.84 L2556.81 1477.94 Z" fill="#000000" fill-rule="nonzero" fill-opacity="1" /><path clip-path="url(#clip370)" d="M3143.03 1477.94 L3161.39 1477.94 L3161.39 1481.88 L3147.32 1481.88 L3147.32 1490.35 Q3148.33 1490 3149.35 1489.84 Q3150.37 1489.65 3151.39 1489.65 Q3157.18 1489.65 3160.56 1492.82 Q3163.94 1496 3163.94 1501.41 Q3163.94 1506.99 3160.46 1510.09 Q3156.99 1513.17 3150.67 1513.17 Q3148.5 1513.17 3146.23 1512.8 Q3143.98 1512.43 3141.58 1511.69 L3141.58 1506.99 Q3143.66 1508.12 3145.88 1508.68 Q3148.1 1509.24 3150.58 1509.24 Q3154.58 1509.24 3156.92 1507.13 Q3159.26 1505.02 3159.26 1501.41 Q3159.26 1497.8 3156.92 1495.69 Q3154.58 1493.59 3150.58 1493.59 Q3148.71 1493.59 3146.83 1494 Q3144.98 1494.42 3143.03 1495.3 L3143.03 1477.94 Z" fill="#000000" fill-rule="nonzero" fill-opacity="1" /><path clip-path="url(#clip370)" d="M1657.5 1554.79 L1657.5 1564.92 L1669.56 1564.92 L1669.56 1569.47 L1657.5 1569.47 L1657.5 1588.82 Q1657.5 1593.18 1658.67 1594.42 Q1659.88 1595.66 1663.54 1595.66 L1669.56 1595.66 L1669.56 1600.56 L1663.54 1600.56 Q1656.76 1600.56 1654.18 1598.05 Q1651.61 1595.5 1651.61 1588.82 L1651.61 1569.47 L1647.31 1569.47 L1647.31 1564.92 L1651.61 1564.92 L1651.61 1554.79 L1657.5 1554.79 Z" fill="#000000" fill-rule="nonzero" fill-opacity="1" /><polyline clip-path="url(#clip372)" style="stroke:#000000; stroke-linecap:round; stroke-linejoin:round; stroke-width:2; stroke-opacity:0.1; fill:none" points="164.112,1404.18 3152.76,1404.18 "/>
<polyline clip-path="url(#clip372)" style="stroke:#000000; stroke-linecap:round; stroke-linejoin:round; stroke-width:2; stroke-opacity:0.1; fill:none" points="164.112,1032.49 3152.76,1032.49 "/>
<polyline clip-path="url(#clip372)" style="stroke:#000000; stroke-linecap:round; stroke-linejoin:round; stroke-width:2; stroke-opacity:0.1; fill:none" points="164.112,660.796 3152.76,660.796 "/>
<polyline clip-path="url(#clip372)" style="stroke:#000000; stroke-linecap:round; stroke-linejoin:round; stroke-width:2; stroke-opacity:0.1; fill:none" points="164.112,289.106 3152.76,289.106 "/>
<polyline clip-path="url(#clip372)" style="stroke:#000000; stroke-linecap:round; stroke-linejoin:round; stroke-width:2; stroke-opacity:0.1; fill:none" points="164.112,1404.18 3152.76,1404.18 "/>
<polyline clip-path="url(#clip372)" style="stroke:#000000; stroke-linecap:round; stroke-linejoin:round; stroke-width:2; stroke-opacity:0.1; fill:none" points="164.112,1032.49 3152.76,1032.49 "/>
<polyline clip-path="url(#clip372)" style="stroke:#000000; stroke-linecap:round; stroke-linejoin:round; stroke-width:2; stroke-opacity:0.1; fill:none" points="164.112,660.796 3152.76,660.796 "/>
<polyline clip-path="url(#clip372)" style="stroke:#000000; stroke-linecap:round; stroke-linejoin:round; stroke-width:2; stroke-opacity:0.1; fill:none" points="164.112,289.106 3152.76,289.106 "/>
<polyline clip-path="url(#clip370)" style="stroke:#000000; stroke-linecap:round; stroke-linejoin:round; stroke-width:4; stroke-opacity:1; fill:none" points="164.112,1443.7 164.112,47.2441 "/>
<polyline clip-path="url(#clip370)" style="stroke:#000000; stroke-linecap:round; stroke-linejoin:round; stroke-width:4; stroke-opacity:1; fill:none" points="3152.76,1443.7 3152.76,47.2441 "/>
<polyline clip-path="url(#clip370)" style="stroke:#000000; stroke-linecap:round; stroke-linejoin:round; stroke-width:4; stroke-opacity:1; fill:none" points="164.112,1404.18 183.01,1404.18 "/>
<polyline clip-path="url(#clip370)" style="stroke:#000000; stroke-linecap:round; stroke-linejoin:round; stroke-width:4; stroke-opacity:1; fill:none" points="164.112,1032.49 183.01,1032.49 "/>
<polyline clip-path="url(#clip370)" style="stroke:#000000; stroke-linecap:round; stroke-linejoin:round; stroke-width:4; stroke-opacity:1; fill:none" points="164.112,660.796 183.01,660.796 "/>
<polyline clip-path="url(#clip370)" style="stroke:#000000; stroke-linecap:round; stroke-linejoin:round; stroke-width:4; stroke-opacity:1; fill:none" points="164.112,289.106 183.01,289.106 "/>
<polyline clip-path="url(#clip370)" style="stroke:#000000; stroke-linecap:round; stroke-linejoin:round; stroke-width:4; stroke-opacity:1; fill:none" points="3152.76,1404.18 3133.86,1404.18 "/>
<polyline clip-path="url(#clip370)" style="stroke:#000000; stroke-linecap:round; stroke-linejoin:round; stroke-width:4; stroke-opacity:1; fill:none" points="3152.76,1032.49 3133.86,1032.49 "/>
<polyline clip-path="url(#clip370)" style="stroke:#000000; stroke-linecap:round; stroke-linejoin:round; stroke-width:4; stroke-opacity:1; fill:none" points="3152.76,660.796 3133.86,660.796 "/>
<polyline clip-path="url(#clip370)" style="stroke:#000000; stroke-linecap:round; stroke-linejoin:round; stroke-width:4; stroke-opacity:1; fill:none" points="3152.76,289.106 3133.86,289.106 "/>
<path clip-path="url(#clip370)" d="M58.9365 1389.98 Q55.3254 1389.98 53.4967 1393.54 Q51.6912 1397.08 51.6912 1404.21 Q51.6912 1411.32 53.4967 1414.88 Q55.3254 1418.43 58.9365 1418.43 Q62.5707 1418.43 64.3763 1414.88 Q66.205 1411.32 66.205 1404.21 Q66.205 1397.08 64.3763 1393.54 Q62.5707 1389.98 58.9365 1389.98 M58.9365 1386.27 Q64.7467 1386.27 67.8022 1390.88 Q70.8809 1395.46 70.8809 1404.21 Q70.8809 1412.94 67.8022 1417.55 Q64.7467 1422.13 58.9365 1422.13 Q53.1264 1422.13 50.0477 1417.55 Q46.9921 1412.94 46.9921 1404.21 Q46.9921 1395.46 50.0477 1390.88 Q53.1264 1386.27 58.9365 1386.27 Z" fill="#000000" fill-rule="nonzero" fill-opacity="1" /><path clip-path="url(#clip370)" d="M79.0984 1415.58 L83.9827 1415.58 L83.9827 1421.46 L79.0984 1421.46 L79.0984 1415.58 Z" fill="#000000" fill-rule="nonzero" fill-opacity="1" /><path clip-path="url(#clip370)" d="M104.168 1389.98 Q100.557 1389.98 98.728 1393.54 Q96.9224 1397.08 96.9224 1404.21 Q96.9224 1411.32 98.728 1414.88 Q100.557 1418.43 104.168 1418.43 Q107.802 1418.43 109.608 1414.88 Q111.436 1411.32 111.436 1404.21 Q111.436 1397.08 109.608 1393.54 Q107.802 1389.98 104.168 1389.98 M104.168 1386.27 Q109.978 1386.27 113.033 1390.88 Q116.112 1395.46 116.112 1404.21 Q116.112 1412.94 113.033 1417.55 Q109.978 1422.13 104.168 1422.13 Q98.3576 1422.13 95.2789 1417.55 Q92.2234 1412.94 92.2234 1404.21 Q92.2234 1395.46 95.2789 1390.88 Q98.3576 1386.27 104.168 1386.27 Z" fill="#000000" fill-rule="nonzero" fill-opacity="1" /><path clip-path="url(#clip370)" d="M59.9319 1018.29 Q56.3208 1018.29 54.4921 1021.85 Q52.6865 1025.39 52.6865 1032.52 Q52.6865 1039.63 54.4921 1043.19 Q56.3208 1046.73 59.9319 1046.73 Q63.5661 1046.73 65.3717 1043.19 Q67.2004 1039.63 67.2004 1032.52 Q67.2004 1025.39 65.3717 1021.85 Q63.5661 1018.29 59.9319 1018.29 M59.9319 1014.58 Q65.742 1014.58 68.7976 1019.19 Q71.8763 1023.77 71.8763 1032.52 Q71.8763 1041.25 68.7976 1045.85 Q65.742 1050.44 59.9319 1050.44 Q54.1217 1050.44 51.043 1045.85 Q47.9875 1041.25 47.9875 1032.52 Q47.9875 1023.77 51.043 1019.19 Q54.1217 1014.58 59.9319 1014.58 Z" fill="#000000" fill-rule="nonzero" fill-opacity="1" /><path clip-path="url(#clip370)" d="M80.0938 1043.89 L84.978 1043.89 L84.978 1049.77 L80.0938 1049.77 L80.0938 1043.89 Z" fill="#000000" fill-rule="nonzero" fill-opacity="1" /><path clip-path="url(#clip370)" d="M95.2095 1015.21 L113.566 1015.21 L113.566 1019.14 L99.4918 1019.14 L99.4918 1027.61 Q100.51 1027.27 101.529 1027.11 Q102.547 1026.92 103.566 1026.92 Q109.353 1026.92 112.733 1030.09 Q116.112 1033.26 116.112 1038.68 Q116.112 1044.26 112.64 1047.36 Q109.168 1050.44 102.848 1050.44 Q100.672 1050.44 98.4039 1050.07 Q96.1585 1049.7 93.7511 1048.96 L93.7511 1044.26 Q95.8345 1045.39 98.0567 1045.95 Q100.279 1046.5 102.756 1046.5 Q106.76 1046.5 109.098 1044.4 Q111.436 1042.29 111.436 1038.68 Q111.436 1035.07 109.098 1032.96 Q106.76 1030.86 102.756 1030.86 Q100.881 1030.86 99.0057 1031.27 Q97.1539 1031.69 95.2095 1032.57 L95.2095 1015.21 Z" fill="#000000" fill-rule="nonzero" fill-opacity="1" /><path clip-path="url(#clip370)" d="M49.7467 674.141 L57.3856 674.141 L57.3856 647.776 L49.0754 649.442 L49.0754 645.183 L57.3393 643.516 L62.0152 643.516 L62.0152 674.141 L69.654 674.141 L69.654 678.076 L49.7467 678.076 L49.7467 674.141 Z" fill="#000000" fill-rule="nonzero" fill-opacity="1" /><path clip-path="url(#clip370)" d="M79.0984 672.197 L83.9827 672.197 L83.9827 678.076 L79.0984 678.076 L79.0984 672.197 Z" fill="#000000" fill-rule="nonzero" fill-opacity="1" /><path clip-path="url(#clip370)" d="M104.168 646.595 Q100.557 646.595 98.728 650.16 Q96.9224 653.702 96.9224 660.831 Q96.9224 667.938 98.728 671.502 Q100.557 675.044 104.168 675.044 Q107.802 675.044 109.608 671.502 Q111.436 667.938 111.436 660.831 Q111.436 653.702 109.608 650.16 Q107.802 646.595 104.168 646.595 M104.168 642.892 Q109.978 642.892 113.033 647.498 Q116.112 652.081 116.112 660.831 Q116.112 669.558 113.033 674.164 Q109.978 678.748 104.168 678.748 Q98.3576 678.748 95.2789 674.164 Q92.2234 669.558 92.2234 660.831 Q92.2234 652.081 95.2789 647.498 Q98.3576 642.892 104.168 642.892 Z" fill="#000000" fill-rule="nonzero" fill-opacity="1" /><path clip-path="url(#clip370)" d="M50.7421 302.451 L58.381 302.451 L58.381 276.085 L50.0708 277.752 L50.0708 273.493 L58.3347 271.826 L63.0106 271.826 L63.0106 302.451 L70.6494 302.451 L70.6494 306.386 L50.7421 306.386 L50.7421 302.451 Z" fill="#000000" fill-rule="nonzero" fill-opacity="1" /><path clip-path="url(#clip370)" d="M80.0938 300.506 L84.978 300.506 L84.978 306.386 L80.0938 306.386 L80.0938 300.506 Z" fill="#000000" fill-rule="nonzero" fill-opacity="1" /><path clip-path="url(#clip370)" d="M95.2095 271.826 L113.566 271.826 L113.566 275.761 L99.4918 275.761 L99.4918 284.233 Q100.51 283.886 101.529 283.724 Q102.547 283.539 103.566 283.539 Q109.353 283.539 112.733 286.71 Q116.112 289.881 116.112 295.298 Q116.112 300.877 112.64 303.979 Q109.168 307.057 102.848 307.057 Q100.672 307.057 98.4039 306.687 Q96.1585 306.317 93.7511 305.576 L93.7511 300.877 Q95.8345 302.011 98.0567 302.567 Q100.279 303.122 102.756 303.122 Q106.76 303.122 109.098 301.016 Q111.436 298.909 111.436 295.298 Q111.436 291.687 109.098 289.581 Q106.76 287.474 102.756 287.474 Q100.881 287.474 99.0057 287.891 Q97.1539 288.307 95.2095 289.187 L95.2095 271.826 Z" fill="#000000" fill-rule="nonzero" fill-opacity="1" /><polyline clip-path="url(#clip372)" style="stroke:#009af9; stroke-linecap:round; stroke-linejoin:round; stroke-width:12; stroke-opacity:1; fill:none" points="164.112,1404.18 167.104,1404.17 170.095,1404.17 173.087,1404.13 176.079,1404.09 179.07,1404.02 182.062,1403.88 185.054,1403.75 188.045,1403.6 191.037,1403.31 194.028,1402.98 197.02,1402.66 200.012,1402.36 203.003,1401.84 205.995,1401.21 208.987,1400.54 211.978,1399.9 214.97,1399.35 217.962,1398.53 220.953,1397.52 223.945,1396.4 226.936,1395.23 229.928,1394.08 232.92,1393.01 235.911,1392.05 238.903,1390.6 241.895,1388.99 244.886,1387.24 247.878,1385.43 250.87,1383.58 253.861,1381.76 256.853,1380.01 259.844,1378.38 262.836,1376.62 265.828,1374.38 268.819,1371.98 271.811,1369.47 274.803,1366.86 277.794,1364.21 280.786,1361.55 283.778,1358.91 286.769,1356.34 289.761,1353.86 292.752,1351.53 295.744,1348.79 298.736,1345.71 301.727,1342.5 304.719,1339.19 307.711,1335.79 310.702,1332.33 313.694,1328.84 316.686,1325.34 319.677,1321.85 322.669,1318.4 325.66,1315.02 328.652,1311.72 331.644,1308.53 334.635,1305.16 337.627,1301.37 340.619,1297.49 343.61,1293.53 346.602,1289.52 349.594,1285.45 352.585,1281.35 355.577,1277.21 358.568,1273.06 361.56,1268.91 364.552,1264.76 367.543,1260.64 370.535,1256.54 373.527,1252.48 376.518,1248.48 379.51,1244.54 382.502,1240.61 385.493,1236.33 388.485,1232.04 391.476,1227.74 394.468,1223.42 397.46,1219.08 400.451,1214.74 403.443,1210.39 406.435,1206.03 409.426,1201.66 412.418,1197.29 415.41,1192.92 418.401,1188.55 421.393,1184.17 424.384,1179.8 427.376,1175.44 430.368,1171.07 433.359,1166.72 436.351,1162.37 439.343,1158.03 442.334,1153.71 445.326,1149.44 448.317,1145.22 451.309,1141.04 454.301,1136.92 457.292,1132.83 460.284,1128.78 463.276,1124.75 466.267,1120.75 469.259,1116.77 472.251,1112.81 475.242,1108.85 478.234,1104.9 481.225,1100.95 484.217,1097 487.209,1093.03 490.2,1089.05 493.192,1085.05 496.184,1081.02 499.175,1076.97 502.167,1072.88 505.159,1068.75 508.15,1064.58 511.142,1060.36 514.133,1056.36 517.125,1052.75 520.117,1049.24 523.108,1045.83 526.1,1042.51 529.092,1039.27 532.083,1036.09 535.075,1032.99 538.067,1029.94 541.058,1026.94 544.05,1023.98 547.041,1021.06 550.033,1018.16 553.025,1015.28 556.016,1012.42 559.008,1009.55 562,1006.69 564.991,1003.81 567.983,1000.91 570.975,997.988 573.966,995.029 576.958,992.029 579.949,988.979 582.941,985.871 585.933,982.699 588.924,979.454 591.916,976.129 594.908,972.717 597.899,969.343 600.891,966.948 603.883,964.673 606.874,962.512 609.866,960.455 612.857,958.498 615.849,956.63 618.841,954.847 621.832,953.139 624.824,951.499 627.816,949.921 630.807,948.397 633.799,946.919 636.791,945.479 639.782,944.072 642.774,942.688 645.765,941.321 648.757,939.964 651.749,938.608 654.74,937.247 657.732,935.873 660.724,934.478 663.715,933.056 666.707,931.598 669.699,930.098 672.69,928.549 675.682,926.941 678.673,925.269 681.665,923.525 684.657,921.701 687.648,919.79 690.64,917.785 693.632,915.678 696.623,914.078 699.615,913.257 702.607,912.536 705.598,911.911 708.59,911.375 711.581,910.923 714.573,910.549 717.565,910.249 720.556,910.016 723.548,909.845 726.54,909.731 729.531,909.668 732.523,909.65 735.514,909.673 738.506,909.73 741.498,909.816 744.489,909.926 747.481,910.055 750.473,910.196 753.464,910.344 756.456,910.494 759.448,910.641 762.439,910.778 765.431,910.9 768.422,911.003 771.414,911.079 774.406,911.125 777.397,911.134 780.389,911.101 783.381,911.02 786.372,910.887 789.364,910.694 792.356,910.438 795.347,910.113 798.339,909.712 801.33,909.231 804.322,908.664 807.314,908.649 810.305,909.228 813.297,909.87 816.289,910.574 819.28,911.336 822.272,912.152 825.264,913.02 828.255,913.936 831.247,914.898 834.238,915.902 837.23,916.945 840.222,918.024 843.213,919.136 846.205,920.278 849.197,921.446 852.188,922.638 855.18,923.85 858.172,925.08 861.163,926.323 864.155,927.577 867.146,928.839 870.138,930.106 873.13,931.375 876.121,932.641 879.113,933.903 882.105,935.158 885.096,936.401 888.088,937.63 891.08,938.842 894.071,940.034 897.063,941.202 900.054,942.343 903.046,943.455 906.038,944.534 909.029,945.577 912.021,946.581 915.013,947.542 918.004,948.459 920.996,949.326 923.988,950.142 926.979,950.903 929.971,952.199 932.962,953.711 935.954,955.251 938.946,956.815 941.937,958.404 944.929,960.016 947.921,961.65 950.912,963.305 953.904,964.979 956.896,966.672 959.887,968.382 962.879,970.108 965.87,971.849 968.862,973.603 971.854,975.37 974.845,977.148 977.837,978.937 980.829,980.734 983.82,982.539 986.812,984.351 989.804,986.169 992.795,987.99 995.787,989.815 998.778,991.642 1001.77,993.469 1004.76,995.296 1007.75,997.121 1010.74,998.944 1013.74,1000.76 1016.73,1002.58 1019.72,1004.38 1022.71,1006.18 1025.7,1007.98 1028.69,1009.76 1031.69,1011.53 1034.68,1013.29 1037.67,1015.03 1040.66,1016.76 1043.65,1018.48 1046.64,1020.17 1049.64,1021.85 1052.63,1023.51 1055.62,1025.15 1058.61,1026.77 1061.6,1028.47 1064.59,1030.36 1067.59,1032.24 1070.58,1034.12 1073.57,1036 1076.56,1037.88 1079.55,1039.76 1082.54,1041.64 1085.54,1043.52 1088.53,1045.4 1091.52,1047.28 1094.51,1049.16 1097.5,1051.03 1100.49,1052.91 1103.49,1054.79 1106.48,1056.67 1109.47,1058.55 1112.46,1060.43 1115.45,1062.31 1118.44,1064.19 1121.44,1066.07 1124.43,1067.95 1127.42,1069.83 1130.41,1071.71 1133.4,1073.59 1136.39,1075.47 1139.39,1077.35 1142.38,1079.23 1145.37,1081.12 1148.36,1083 1151.35,1084.89 1154.34,1086.77 1157.34,1088.66 1160.33,1090.55 1163.32,1092.44 1166.31,1094.33 1169.3,1096.22 1172.29,1098.11 1175.28,1100 1178.28,1101.9 1181.27,1103.79 1184.26,1105.69 1187.25,1107.59 1190.24,1109.49 1193.23,1111.39 1196.23,1113.29 1199.22,1115.2 1202.21,1117.11 1205.2,1118.93 1208.19,1120.73 1211.18,1122.52 1214.18,1124.3 1217.17,1126.06 1220.16,1127.81 1223.15,1129.55 1226.14,1131.28 1229.13,1132.99 1232.13,1134.7 1235.12,1136.39 1238.11,1138.08 1241.1,1139.75 1244.09,1141.42 1247.08,1143.08 1250.08,1144.74 1253.07,1146.38 1256.06,1148.03 1259.05,1149.66 1262.04,1151.3 1265.03,1152.92 1268.03,1154.55 1271.02,1156.17 1274.01,1157.79 1277,1159.41 1279.99,1161.03 1282.98,1162.65 1285.98,1164.27 1288.97,1165.89 1291.96,1167.52 1294.95,1169.14 1297.94,1170.77 1300.93,1172.4 1303.93,1174.04 1306.92,1175.68 1309.91,1177.32 1312.9,1178.97 1315.89,1180.63 1318.88,1182.3 1321.88,1183.97 1324.87,1185.65 1327.86,1187.35 1330.85,1189.05 1333.84,1190.76 1336.83,1192.48 1339.82,1194.21 1342.82,1195.96 1345.81,1197.72 1348.8,1199.49 1351.79,1201.26 1354.78,1202.76 1357.77,1204.24 1360.77,1205.71 1363.76,1207.16 1366.75,1208.58 1369.74,1210 1372.73,1211.39 1375.72,1212.77 1378.72,1214.14 1381.71,1215.49 1384.7,1216.83 1387.69,1218.16 1390.68,1219.48 1393.67,1220.78 1396.67,1222.08 1399.66,1223.37 1402.65,1224.64 1405.64,1225.91 1408.63,1227.18 1411.62,1228.43 1414.62,1229.69 1417.61,1230.93 1420.6,1232.17 1423.59,1233.41 1426.58,1234.65 1429.57,1235.88 1432.57,1237.12 1435.56,1238.35 1438.55,1239.58 1441.54,1240.82 1444.53,1242.05 1447.52,1243.29 1450.52,1244.53 1453.51,1245.78 1456.5,1247.03 1459.49,1248.28 1462.48,1249.55 1465.47,1250.81 1468.47,1252.09 1471.46,1253.38 1474.45,1254.67 1477.44,1255.97 1480.43,1257.29 1483.42,1258.61 1486.41,1259.95 1489.41,1261.3 1492.4,1262.67 1495.39,1264.04 1498.38,1265.44 1501.37,1266.85 1504.36,1268.27 1507.36,1269.71 1510.35,1270.83 1513.34,1271.92 1516.33,1273 1519.32,1274.06 1522.31,1275.1 1525.31,1276.13 1528.3,1277.15 1531.29,1278.15 1534.28,1279.14 1537.27,1280.11 1540.26,1281.07 1543.26,1282.02 1546.25,1282.96 1549.24,1283.9 1552.23,1284.82 1555.22,1285.73 1558.21,1286.63 1561.21,1287.53 1564.2,1288.42 1567.19,1289.3 1570.18,1290.18 1573.17,1291.05 1576.16,1291.92 1579.16,1292.78 1582.15,1293.65 1585.14,1294.51 1588.13,1295.36 1591.12,1296.22 1594.11,1297.07 1597.11,1297.93 1600.1,1298.78 1603.09,1299.64 1606.08,1300.5 1609.07,1301.36 1612.06,1302.23 1615.06,1303.1 1618.05,1303.97 1621.04,1304.85 1624.03,1305.73 1627.02,1306.63 1630.01,1307.52 1633.01,1308.43 1636,1309.34 1638.99,1310.27 1641.98,1311.2 1644.97,1312.14 1647.96,1313.1 1650.95,1314.06 1653.95,1315.04 1656.94,1316.03 1659.93,1317.03 1662.92,1318.05 1665.91,1319.08 1668.9,1320.13 1671.9,1320.9 1674.89,1321.64 1677.88,1322.37 1680.87,1323.09 1683.86,1323.79 1686.85,1324.48 1689.85,1325.16 1692.84,1325.83 1695.83,1326.49 1698.82,1327.14 1701.81,1327.78 1704.8,1328.41 1707.8,1329.03 1710.79,1329.64 1713.78,1330.25 1716.77,1330.85 1719.76,1331.44 1722.75,1332.03 1725.75,1332.61 1728.74,1333.19 1731.73,1333.76 1734.72,1334.32 1737.71,1334.89 1740.7,1335.45 1743.7,1336 1746.69,1336.56 1749.68,1337.11 1752.67,1337.66 1755.66,1338.21 1758.65,1338.76 1761.65,1339.31 1764.64,1339.86 1767.63,1340.41 1770.62,1340.96 1773.61,1341.52 1776.6,1342.07 1779.6,1342.63 1782.59,1343.19 1785.58,1343.76 1788.57,1344.33 1791.56,1344.9 1794.55,1345.48 1797.55,1346.07 1800.54,1346.66 1803.53,1347.26 1806.52,1347.86 1809.51,1348.47 1812.5,1349.09 1815.49,1349.72 1818.49,1350.36 1821.48,1351 1824.47,1351.66 1827.46,1352.32 1830.45,1353 1833.44,1353.68 1836.44,1354.38 1839.43,1354.91 1842.42,1355.37 1845.41,1355.83 1848.4,1356.28 1851.39,1356.72 1854.39,1357.15 1857.38,1357.58 1860.37,1358 1863.36,1358.41 1866.35,1358.81 1869.34,1359.21 1872.34,1359.6 1875.33,1359.99 1878.32,1360.37 1881.31,1360.74 1884.3,1361.11 1887.29,1361.47 1890.29,1361.83 1893.28,1362.19 1896.27,1362.54 1899.26,1362.89 1902.25,1363.23 1905.24,1363.58 1908.24,1363.92 1911.23,1364.25 1914.22,1364.59 1917.21,1364.92 1920.2,1365.25 1923.19,1365.59 1926.19,1365.92 1929.18,1366.24 1932.17,1366.57 1935.16,1366.9 1938.15,1367.23 1941.14,1367.56 1944.14,1367.9 1947.13,1368.23 1950.12,1368.56 1953.11,1368.9 1956.1,1369.24 1959.09,1369.58 1962.09,1369.92 1965.08,1370.27 1968.07,1370.62 1971.06,1370.97 1974.05,1371.33 1977.04,1371.69 1980.03,1372.06 1983.03,1372.43 1986.02,1372.81 1989.01,1373.19 1992,1373.58 1994.99,1373.97 1997.98,1374.37 2000.98,1374.78 2003.97,1375.2 2006.96,1375.62 2009.95,1376.05 2012.94,1376.46 2015.93,1376.74 2018.93,1377.01 2021.92,1377.28 2024.91,1377.54 2027.9,1377.8 2030.89,1378.05 2033.88,1378.29 2036.88,1378.54 2039.87,1378.77 2042.86,1379.01 2045.85,1379.24 2048.84,1379.46 2051.83,1379.68 2054.83,1379.9 2057.82,1380.12 2060.81,1380.33 2063.8,1380.54 2066.79,1380.74 2069.78,1380.95 2072.78,1381.15 2075.77,1381.35 2078.76,1381.54 2081.75,1381.74 2084.74,1381.93 2087.73,1382.12 2090.73,1382.31 2093.72,1382.5 2096.71,1382.69 2099.7,1382.87 2102.69,1383.06 2105.68,1383.24 2108.68,1383.43 2111.67,1383.61 2114.66,1383.8 2117.65,1383.98 2120.64,1384.17 2123.63,1384.35 2126.62,1384.54 2129.62,1384.73 2132.61,1384.91 2135.6,1385.1 2138.59,1385.29 2141.58,1385.49 2144.57,1385.68 2147.57,1385.88 2150.56,1386.08 2153.55,1386.28 2156.54,1386.48 2159.53,1386.68 2162.52,1386.89 2165.52,1387.1 2168.51,1387.32 2171.5,1387.54 2174.49,1387.76 2177.48,1387.98 2180.47,1388.21 2183.47,1388.45 2186.46,1388.68 2189.45,1388.92 2192.44,1389.17 2195.43,1389.42 2198.42,1389.62 2201.42,1389.77 2204.41,1389.92 2207.4,1390.07 2210.39,1390.21 2213.38,1390.35 2216.37,1390.49 2219.37,1390.62 2222.36,1390.75 2225.35,1390.88 2228.34,1391.01 2231.33,1391.13 2234.32,1391.25 2237.32,1391.37 2240.31,1391.49 2243.3,1391.61 2246.29,1391.72 2249.28,1391.83 2252.27,1391.94 2255.27,1392.05 2258.26,1392.16 2261.25,1392.26 2264.24,1392.37 2267.23,1392.47 2270.22,1392.58 2273.22,1392.68 2276.21,1392.78 2279.2,1392.88 2282.19,1392.98 2285.18,1393.07 2288.17,1393.17 2291.16,1393.27 2294.16,1393.37 2297.15,1393.46 2300.14,1393.56 2303.13,1393.66 2306.12,1393.76 2309.11,1393.85 2312.11,1393.95 2315.1,1394.05 2318.09,1394.15 2321.08,1394.24 2324.07,1394.34 2327.06,1394.44 2330.06,1394.54 2333.05,1394.65 2336.04,1394.75 2339.03,1394.85 2342.02,1394.96 2345.01,1395.06 2348.01,1395.17 2351,1395.28 2353.99,1395.39 2356.98,1395.5 2359.97,1395.62 2362.96,1395.74 2365.96,1395.85 2368.95,1395.97 2371.94,1396.1 2374.93,1396.22 2377.92,1396.35 2380.91,1396.48 2383.91,1396.61 2386.9,1396.74 2389.89,1396.88 2392.88,1396.96 2395.87,1397.04 2398.86,1397.12 2401.86,1397.19 2404.85,1397.26 2407.84,1397.34 2410.83,1397.41 2413.82,1397.47 2416.81,1397.54 2419.81,1397.61 2422.8,1397.67 2425.79,1397.73 2428.78,1397.79 2431.77,1397.86 2434.76,1397.92 2437.76,1397.97 2440.75,1398.03 2443.74,1398.09 2446.73,1398.14 2449.72,1398.2 2452.71,1398.25 2455.7,1398.31 2458.7,1398.36 2461.69,1398.41 2464.68,1398.46 2467.67,1398.51 2470.66,1398.56 2473.65,1398.61 2476.65,1398.66 2479.64,1398.71 2482.63,1398.76 2485.62,1398.81 2488.61,1398.86 2491.6,1398.9 2494.6,1398.95 2497.59,1399 2500.58,1399.05 2503.57,1399.09 2506.56,1399.14 2509.55,1399.19 2512.55,1399.24 2515.54,1399.29 2518.53,1399.34 2521.52,1399.38 2524.51,1399.43 2527.5,1399.48 2530.5,1399.53 2533.49,1399.58 2536.48,1399.64 2539.47,1399.69 2542.46,1399.74 2545.45,1399.79 2548.45,1399.85 2551.44,1399.9 2554.43,1399.96 2557.42,1400.01 2560.41,1400.07 2563.4,1400.13 2566.4,1400.19 2569.39,1400.25 2572.38,1400.31 2575.37,1400.37 2578.36,1400.44 2581.35,1400.5 2584.35,1400.57 2587.34,1400.64 2590.33,1400.71 2593.32,1400.76 2596.31,1400.8 2599.3,1400.84 2602.29,1400.87 2605.29,1400.91 2608.28,1400.94 2611.27,1400.98 2614.26,1401.01 2617.25,1401.04 2620.24,1401.08 2623.24,1401.11 2626.23,1401.14 2629.22,1401.17 2632.21,1401.2 2635.2,1401.23 2638.19,1401.25 2641.19,1401.28 2644.18,1401.31 2647.17,1401.34 2650.16,1401.36 2653.15,1401.39 2656.14,1401.41 2659.14,1401.44 2662.13,1401.47 2665.12,1401.49 2668.11,1401.51 2671.1,1401.54 2674.09,1401.56 2677.09,1401.58 2680.08,1401.61 2683.07,1401.63 2686.06,1401.65 2689.05,1401.68 2692.04,1401.7 2695.04,1401.72 2698.03,1401.74 2701.02,1401.77 2704.01,1401.79 2707,1401.81 2709.99,1401.83 2712.99,1401.85 2715.98,1401.88 2718.97,1401.9 2721.96,1401.92 2724.95,1401.94 2727.94,1401.97 2730.94,1401.99 2733.93,1402.01 2736.92,1402.04 2739.91,1402.06 2742.9,1402.08 2745.89,1402.11 2748.89,1402.13 2751.88,1402.16 2754.87,1402.18 2757.86,1402.21 2760.85,1402.23 2763.84,1402.26 2766.83,1402.28 2769.83,1402.31 2772.82,1402.34 2775.81,1402.37 2778.8,1402.39 2781.79,1402.42 2784.78,1402.45 2787.78,1402.48 2790.77,1402.51 2793.76,1402.55 2796.75,1402.58 2799.74,1402.61 2802.73,1402.64 2805.73,1402.66 2808.72,1402.68 2811.71,1402.7 2814.7,1402.72 2817.69,1402.73 2820.68,1402.75 2823.68,1402.76 2826.67,1402.78 2829.66,1402.79 2832.65,1402.81 2835.64,1402.82 2838.63,1402.83 2841.63,1402.85 2844.62,1402.86 2847.61,1402.87 2850.6,1402.89 2853.59,1402.9 2856.58,1402.91 2859.58,1402.92 2862.57,1402.94 2865.56,1402.95 2868.55,1402.96 2871.54,1402.97 2874.53,1402.98 2877.53,1402.99 2880.52,1403 2883.51,1403.01 2886.5,1403.02 2889.49,1403.03 2892.48,1403.04 2895.48,1403.05 2898.47,1403.07 2901.46,1403.08 2904.45,1403.08 2907.44,1403.09 2910.43,1403.1 2913.43,1403.11 2916.42,1403.12 2919.41,1403.13 2922.4,1403.14 2925.39,1403.15 2928.38,1403.16 2931.37,1403.17 2934.37,1403.18 2937.36,1403.19 2940.35,1403.2 2943.34,1403.21 2946.33,1403.22 2949.32,1403.23 2952.32,1403.24 2955.31,1403.25 2958.3,1403.26 2961.29,1403.27 2964.28,1403.28 2967.27,1403.29 2970.27,1403.3 2973.26,1403.32 2976.25,1403.33 2979.24,1403.34 2982.23,1403.35 2985.22,1403.36 2988.22,1403.37 2991.21,1403.39 2994.2,1403.4 2997.19,1403.41 3000.18,1403.42 3003.17,1403.44 3006.17,1403.45 3009.16,1403.46 3012.15,1403.48 3015.14,1403.49 3018.13,1403.51 3021.12,1403.52 3024.12,1403.54 3027.11,1403.54 3030.1,1403.55 3033.09,1403.56 3036.08,1403.56 3039.07,1403.57 3042.07,1403.58 3045.06,1403.58 3048.05,1403.59 3051.04,1403.6 3054.03,1403.6 3057.02,1403.61 3060.02,1403.62 3063.01,1403.62 3066,1403.63 3068.99,1403.63 3071.98,1403.64 3074.97,1403.64 3077.97,1403.65 3080.96,1403.65 3083.95,1403.66 3086.94,1403.67 3089.93,1403.67 3092.92,1403.68 3095.91,1403.68 3098.91,1403.69 3101.9,1403.69 3104.89,1403.7 3107.88,1403.7 3110.87,1403.71 3113.86,1403.71 3116.86,1403.72 3119.85,1403.72 3122.84,1403.73 3125.83,1403.74 3128.82,1403.74 3131.81,1403.75 3134.81,1403.75 3137.8,1403.76 3140.79,1403.77 3143.78,1403.77 3146.77,1403.78 3149.76,1403.79 3152.76,1403.79 "/>
<polyline clip-path="url(#clip372)" style="stroke:#e26f46; stroke-linecap:round; stroke-linejoin:round; stroke-width:12; stroke-opacity:1; fill:none" points="164.112,1404.18 167.104,1404.18 170.095,1404.18 173.087,1404.18 176.079,1404.18 179.07,1404.18 182.062,1404.18 185.054,1404.18 188.045,1404.18 191.037,1404.18 194.028,1404.18 197.02,1404.18 200.012,1404.18 203.003,1404.18 205.995,1404.18 208.987,1404.18 211.978,1404.18 214.97,1404.18 217.962,1404.18 220.953,1404.18 223.945,1404.18 226.936,1404.18 229.928,1404.18 232.92,1404.17 235.911,1404.17 238.903,1404.17 241.895,1404.17 244.886,1404.16 247.878,1404.16 250.87,1404.15 253.861,1404.15 256.853,1404.14 259.844,1404.12 262.836,1404.1 265.828,1404.08 268.819,1404.07 271.811,1404.05 274.803,1404.02 277.794,1403.97 280.786,1403.9 283.778,1403.83 286.769,1403.76 289.761,1403.7 292.752,1403.64 295.744,1403.56 298.736,1403.41 301.727,1403.22 304.719,1403.01 307.711,1402.79 310.702,1402.57 313.694,1402.37 316.686,1402.2 319.677,1402.01 322.669,1401.62 325.66,1401.14 328.652,1400.58 331.644,1399.98 334.635,1399.36 337.627,1398.74 340.619,1398.16 343.61,1397.62 346.602,1397.17 349.594,1396.54 352.585,1395.5 355.577,1394.28 358.568,1392.91 361.56,1391.44 364.552,1389.91 367.543,1388.36 370.535,1386.83 373.527,1385.36 376.518,1383.99 379.51,1382.76 382.502,1381.69 385.493,1379.54 388.485,1377.05 391.476,1374.27 394.468,1371.28 397.46,1368.13 400.451,1364.88 403.443,1361.58 406.435,1358.31 409.426,1355.12 412.418,1352.06 415.41,1349.21 418.401,1346.61 421.393,1343.75 424.384,1339.4 427.376,1334.63 430.368,1329.5 433.359,1324.07 436.351,1318.42 439.343,1312.63 442.334,1306.75 445.326,1300.86 448.317,1295.03 451.309,1289.33 454.301,1283.83 457.292,1278.59 460.284,1273.7 463.276,1268.7 466.267,1261.63 469.259,1254.12 472.251,1246.24 475.242,1238.04 478.234,1229.6 481.225,1220.98 484.217,1212.23 487.209,1203.42 490.2,1194.63 493.192,1185.9 496.184,1177.3 499.175,1168.9 502.167,1160.76 505.159,1152.94 508.15,1145.49 511.142,1135.78 514.133,1125.8 517.125,1115.56 520.117,1105.12 523.108,1094.5 526.1,1083.75 529.092,1072.89 532.083,1061.98 535.075,1051.03 538.067,1040.1 541.058,1029.21 544.05,1018.41 547.041,1007.73 550.033,997.205 553.025,986.874 556.016,976.773 559.008,965.646 562,954.431 564.991,943.227 567.983,932.031 570.975,920.84 573.966,909.651 576.958,898.463 579.949,887.271 582.941,876.073 585.933,864.867 588.924,853.649 591.916,842.416 594.908,831.167 597.899,819.897 600.891,808.604 603.883,797.286 606.874,785.994 609.866,775.369 612.857,765.069 615.849,755.053 618.841,745.28 621.832,735.71 624.824,726.302 627.816,717.015 630.807,707.81 633.799,698.644 636.791,689.478 639.782,680.272 642.774,670.984 645.765,661.573 648.757,652 651.749,642.224 654.74,632.203 657.732,621.898 660.724,612.992 663.715,605.446 666.707,598.402 669.699,591.797 672.69,585.567 675.682,579.648 678.673,573.978 681.665,568.492 684.657,563.127 687.648,557.819 690.64,552.506 693.632,547.123 696.623,541.607 699.615,535.895 702.607,529.923 705.598,523.627 708.59,516.945 711.581,509.811 714.573,504.412 717.565,501.069 720.556,498.282 723.548,495.986 726.54,494.113 729.531,492.599 732.523,491.376 735.514,490.379 738.506,489.542 741.498,488.799 744.489,488.083 747.481,487.329 750.473,486.47 753.464,485.441 756.456,484.174 759.448,482.605 762.439,480.667 765.431,478.293 768.422,475.419 771.414,475.42 774.406,476.638 777.397,478.306 780.389,480.375 783.381,482.792 786.372,485.505 789.364,488.461 792.356,491.61 795.347,494.899 798.339,498.276 801.33,501.69 804.322,505.088 807.314,508.418 810.305,511.629 813.297,514.669 816.289,517.485 819.28,520.026 822.272,522.239 825.264,524.074 828.255,526.117 831.247,530.706 834.238,535.592 837.23,540.745 840.222,546.136 843.213,551.735 846.205,557.51 849.197,563.433 852.188,569.472 855.18,575.599 858.172,581.782 861.163,587.992 864.155,594.198 867.146,600.37 870.138,606.479 873.13,612.494 876.121,618.385 879.113,624.122 882.105,629.674 885.096,635.012 888.088,640.106 891.08,646.315 894.071,653.136 897.063,660.053 900.054,667.055 903.046,674.134 906.038,681.279 909.029,688.483 912.021,695.735 915.013,703.026 918.004,710.347 920.996,717.688 923.988,725.04 926.979,732.394 929.971,739.739 932.962,747.068 935.954,754.37 938.946,761.636 941.937,768.857 944.929,776.023 947.921,783.125 950.912,790.154 953.904,797.283 956.896,804.62 959.887,811.907 962.879,819.148 965.87,826.349 968.862,833.515 971.854,840.651 974.845,847.763 977.837,854.854 980.829,861.932 983.82,869 986.812,876.065 989.804,883.131 992.795,890.203 995.787,897.287 998.778,904.387 1001.77,911.51 1004.76,918.66 1007.75,925.843 1010.74,933.063 1013.74,940.326 1016.73,947.638 1019.72,954.88 1022.71,961.566 1025.7,968.117 1028.69,974.546 1031.69,980.864 1034.68,987.085 1037.67,993.219 1040.66,999.281 1043.65,1005.28 1046.64,1011.23 1049.64,1017.15 1052.63,1023.04 1055.62,1028.92 1058.61,1034.8 1061.6,1040.69 1064.59,1046.61 1067.59,1052.56 1070.58,1058.57 1073.57,1064.63 1076.56,1070.77 1079.55,1077 1082.54,1083.33 1085.54,1089.76 1088.53,1096.2 1091.52,1101.55 1094.51,1106.75 1097.5,1111.8 1100.49,1116.72 1103.49,1121.53 1106.48,1126.23 1109.47,1130.84 1112.46,1135.37 1115.45,1139.85 1118.44,1144.27 1121.44,1148.66 1124.43,1153.02 1127.42,1157.38 1130.41,1161.74 1133.4,1166.12 1136.39,1170.53 1139.39,1174.98 1142.38,1179.5 1145.37,1184.08 1148.36,1188.75 1151.35,1193.52 1154.34,1198.41 1157.34,1203.41 1160.33,1208.43 1163.32,1212.26 1166.31,1215.96 1169.3,1219.53 1172.29,1222.99 1175.28,1226.34 1178.28,1229.6 1181.27,1232.77 1184.26,1235.88 1187.25,1238.92 1190.24,1241.92 1193.23,1244.88 1196.23,1247.82 1199.22,1250.74 1202.21,1253.66 1205.2,1256.59 1208.19,1259.54 1211.18,1262.52 1214.18,1265.54 1217.17,1268.62 1220.16,1271.76 1223.15,1274.98 1226.14,1278.29 1229.13,1281.7 1232.13,1285.22 1235.12,1288.65 1238.11,1291.14 1241.1,1293.53 1244.09,1295.82 1247.08,1298.03 1250.08,1300.16 1253.07,1302.22 1256.06,1304.21 1259.05,1306.16 1262.04,1308.05 1265.03,1309.91 1268.03,1311.74 1271.02,1313.54 1274.01,1315.34 1277,1317.12 1279.99,1318.91 1282.98,1320.71 1285.98,1322.53 1288.97,1324.38 1291.96,1326.25 1294.95,1328.18 1297.94,1330.15 1300.93,1332.18 1303.93,1334.28 1306.92,1336.45 1309.91,1338.71 1312.9,1340.79 1315.89,1342.26 1318.88,1343.67 1321.88,1345.02 1324.87,1346.31 1327.86,1347.55 1330.85,1348.74 1333.84,1349.89 1336.83,1351.01 1339.82,1352.09 1342.82,1353.15 1345.81,1354.19 1348.8,1355.21 1351.79,1356.22 1354.78,1357.23 1357.77,1358.23 1360.77,1359.24 1363.76,1360.26 1366.75,1361.3 1369.74,1362.35 1372.73,1363.43 1375.72,1364.53 1378.72,1365.68 1381.71,1366.86 1384.7,1368.08 1387.69,1369.36 1390.68,1370.69 1393.67,1371.8 1396.67,1372.6 1399.66,1373.36 1402.65,1374.09 1405.64,1374.79 1408.63,1375.45 1411.62,1376.09 1414.62,1376.7 1417.61,1377.29 1420.6,1377.86 1423.59,1378.42 1426.58,1378.97 1429.57,1379.5 1432.57,1380.03 1435.56,1380.55 1438.55,1381.07 1441.54,1381.59 1444.53,1382.12 1447.52,1382.65 1450.52,1383.2 1453.51,1383.75 1456.5,1384.32 1459.49,1384.92 1462.48,1385.53 1465.47,1386.16 1468.47,1386.83 1471.46,1387.52 1474.45,1388.25 1477.44,1388.77 1480.43,1389.17 1483.42,1389.55 1486.41,1389.91 1489.41,1390.26 1492.4,1390.58 1495.39,1390.9 1498.38,1391.2 1501.37,1391.49 1504.36,1391.77 1507.36,1392.04 1510.35,1392.31 1513.34,1392.56 1516.33,1392.82 1519.32,1393.07 1522.31,1393.32 1525.31,1393.57 1528.3,1393.82 1531.29,1394.08 1534.28,1394.34 1537.27,1394.6 1540.26,1394.88 1543.26,1395.16 1546.25,1395.45 1549.24,1395.76 1552.23,1396.07 1555.22,1396.41 1558.21,1396.76 1561.21,1397.12 1564.2,1397.33 1567.19,1397.52 1570.18,1397.69 1573.17,1397.86 1576.16,1398.02 1579.16,1398.17 1582.15,1398.32 1585.14,1398.45 1588.13,1398.59 1591.12,1398.71 1594.11,1398.83 1597.11,1398.95 1600.1,1399.07 1603.09,1399.18 1606.08,1399.3 1609.07,1399.41 1612.06,1399.52 1615.06,1399.63 1618.05,1399.74 1621.04,1399.86 1624.03,1399.98 1627.02,1400.1 1630.01,1400.22 1633.01,1400.35 1636,1400.49 1638.99,1400.63 1641.98,1400.78 1644.97,1400.93 1647.96,1401.1 1650.95,1401.25 1653.95,1401.34 1656.94,1401.42 1659.93,1401.49 1662.92,1401.57 1665.91,1401.63 1668.9,1401.7 1671.9,1401.76 1674.89,1401.82 1677.88,1401.87 1680.87,1401.93 1683.86,1401.98 1686.85,1402.03 1689.85,1402.08 1692.84,1402.12 1695.83,1402.17 1698.82,1402.22 1701.81,1402.26 1704.8,1402.31 1707.8,1402.36 1710.79,1402.4 1713.78,1402.45 1716.77,1402.5 1719.76,1402.55 1722.75,1402.61 1725.75,1402.66 1728.74,1402.72 1731.73,1402.78 1734.72,1402.85 1737.71,1402.91 1740.7,1402.98 1743.7,1403.04 1746.69,1403.08 1749.68,1403.11 1752.67,1403.14 1755.66,1403.17 1758.65,1403.19 1761.65,1403.22 1764.64,1403.24 1767.63,1403.27 1770.62,1403.29 1773.61,1403.31 1776.6,1403.33 1779.6,1403.35 1782.59,1403.37 1785.58,1403.39 1788.57,1403.41 1791.56,1403.42 1794.55,1403.44 1797.55,1403.46 1800.54,1403.48 1803.53,1403.49 1806.52,1403.51 1809.51,1403.53 1812.5,1403.55 1815.49,1403.57 1818.49,1403.59 1821.48,1403.62 1824.47,1403.64 1827.46,1403.66 1830.45,1403.69 1833.44,1403.72 1836.44,1403.74 1839.43,1403.77 1842.42,1403.78 1845.41,1403.79 1848.4,1403.8 1851.39,1403.81 1854.39,1403.82 1857.38,1403.83 1860.37,1403.84 1863.36,1403.85 1866.35,1403.86 1869.34,1403.86 1872.34,1403.87 1875.33,1403.88 1878.32,1403.89 1881.31,1403.89 1884.3,1403.9 1887.29,1403.91 1890.29,1403.91 1893.28,1403.92 1896.27,1403.92 1899.26,1403.93 1902.25,1403.94 1905.24,1403.94 1908.24,1403.95 1911.23,1403.96 1914.22,1403.97 1917.21,1403.97 1920.2,1403.98 1923.19,1403.99 1926.19,1404 1929.18,1404.01 1932.17,1404.02 1935.16,1404.03 1938.15,1404.04 1941.14,1404.04 1944.14,1404.05 1947.13,1404.05 1950.12,1404.05 1953.11,1404.06 1956.1,1404.06 1959.09,1404.06 1962.09,1404.07 1965.08,1404.07 1968.07,1404.07 1971.06,1404.07 1974.05,1404.08 1977.04,1404.08 1980.03,1404.08 1983.03,1404.08 1986.02,1404.09 1989.01,1404.09 1992,1404.09 1994.99,1404.09 1997.98,1404.09 2000.98,1404.1 2003.97,1404.1 2006.96,1404.1 2009.95,1404.1 2012.94,1404.1 2015.93,1404.11 2018.93,1404.11 2021.92,1404.11 2024.91,1404.11 2027.9,1404.12 2030.89,1404.12 2033.88,1404.12 2036.88,1404.13 2039.87,1404.13 2042.86,1404.13 2045.85,1404.14 2048.84,1404.14 2051.83,1404.14 2054.83,1404.14 2057.82,1404.14 2060.81,1404.14 2063.8,1404.14 2066.79,1404.14 2069.78,1404.14 2072.78,1404.15 2075.77,1404.15 2078.76,1404.15 2081.75,1404.15 2084.74,1404.15 2087.73,1404.15 2090.73,1404.15 2093.72,1404.15 2096.71,1404.15 2099.7,1404.15 2102.69,1404.15 2105.68,1404.15 2108.68,1404.15 2111.67,1404.15 2114.66,1404.15 2117.65,1404.15 2120.64,1404.16 2123.63,1404.16 2126.62,1404.16 2129.62,1404.16 2132.61,1404.16 2135.6,1404.16 2138.59,1404.16 2141.58,1404.16 2144.57,1404.16 2147.57,1404.16 2150.56,1404.16 2153.55,1404.16 2156.54,1404.16 2159.53,1404.17 2162.52,1404.17 2165.52,1404.17 2168.51,1404.17 2171.5,1404.17 2174.49,1404.17 2177.48,1404.17 2180.47,1404.17 2183.47,1404.17 2186.46,1404.17 2189.45,1404.17 2192.44,1404.17 2195.43,1404.17 2198.42,1404.17 2201.42,1404.17 2204.41,1404.17 2207.4,1404.17 2210.39,1404.17 2213.38,1404.17 2216.37,1404.17 2219.37,1404.17 2222.36,1404.17 2225.35,1404.17 2228.34,1404.17 2231.33,1404.17 2234.32,1404.17 2237.32,1404.17 2240.31,1404.17 2243.3,1404.17 2246.29,1404.17 2249.28,1404.17 2252.27,1404.17 2255.27,1404.17 2258.26,1404.17 2261.25,1404.17 2264.24,1404.17 2267.23,1404.17 2270.22,1404.17 2273.22,1404.17 2276.21,1404.17 2279.2,1404.17 2282.19,1404.17 2285.18,1404.17 2288.17,1404.17 2291.16,1404.17 2294.16,1404.18 2297.15,1404.18 2300.14,1404.18 2303.13,1404.18 2306.12,1404.18 2309.11,1404.18 2312.11,1404.18 2315.1,1404.18 2318.09,1404.18 2321.08,1404.18 2324.07,1404.18 2327.06,1404.18 2330.06,1404.18 2333.05,1404.18 2336.04,1404.18 2339.03,1404.18 2342.02,1404.18 2345.01,1404.18 2348.01,1404.18 2351,1404.18 2353.99,1404.18 2356.98,1404.18 2359.97,1404.18 2362.96,1404.18 2365.96,1404.18 2368.95,1404.18 2371.94,1404.18 2374.93,1404.18 2377.92,1404.18 2380.91,1404.18 2383.91,1404.18 2386.9,1404.18 2389.89,1404.18 2392.88,1404.18 2395.87,1404.18 2398.86,1404.18 2401.86,1404.18 2404.85,1404.18 2407.84,1404.18 2410.83,1404.18 2413.82,1404.18 2416.81,1404.18 2419.81,1404.18 2422.8,1404.18 2425.79,1404.18 2428.78,1404.18 2431.77,1404.18 2434.76,1404.18 2437.76,1404.18 2440.75,1404.18 2443.74,1404.18 2446.73,1404.18 2449.72,1404.18 2452.71,1404.18 2455.7,1404.18 2458.7,1404.18 2461.69,1404.18 2464.68,1404.18 2467.67,1404.18 2470.66,1404.18 2473.65,1404.18 2476.65,1404.18 2479.64,1404.18 2482.63,1404.18 2485.62,1404.18 2488.61,1404.18 2491.6,1404.18 2494.6,1404.18 2497.59,1404.18 2500.58,1404.18 2503.57,1404.18 2506.56,1404.18 2509.55,1404.18 2512.55,1404.18 2515.54,1404.18 2518.53,1404.18 2521.52,1404.18 2524.51,1404.18 2527.5,1404.18 2530.5,1404.18 2533.49,1404.18 2536.48,1404.18 2539.47,1404.18 2542.46,1404.18 2545.45,1404.18 2548.45,1404.18 2551.44,1404.18 2554.43,1404.18 2557.42,1404.18 2560.41,1404.18 2563.4,1404.18 2566.4,1404.18 2569.39,1404.18 2572.38,1404.18 2575.37,1404.18 2578.36,1404.18 2581.35,1404.18 2584.35,1404.18 2587.34,1404.18 2590.33,1404.18 2593.32,1404.18 2596.31,1404.18 2599.3,1404.18 2602.29,1404.18 2605.29,1404.18 2608.28,1404.18 2611.27,1404.18 2614.26,1404.18 2617.25,1404.18 2620.24,1404.18 2623.24,1404.18 2626.23,1404.18 2629.22,1404.18 2632.21,1404.18 2635.2,1404.18 2638.19,1404.18 2641.19,1404.18 2644.18,1404.18 2647.17,1404.18 2650.16,1404.18 2653.15,1404.18 2656.14,1404.18 2659.14,1404.18 2662.13,1404.18 2665.12,1404.18 2668.11,1404.18 2671.1,1404.18 2674.09,1404.18 2677.09,1404.18 2680.08,1404.18 2683.07,1404.18 2686.06,1404.18 2689.05,1404.18 2692.04,1404.18 2695.04,1404.18 2698.03,1404.18 2701.02,1404.18 2704.01,1404.18 2707,1404.18 2709.99,1404.18 2712.99,1404.18 2715.98,1404.18 2718.97,1404.18 2721.96,1404.18 2724.95,1404.18 2727.94,1404.18 2730.94,1404.18 2733.93,1404.18 2736.92,1404.18 2739.91,1404.18 2742.9,1404.18 2745.89,1404.18 2748.89,1404.18 2751.88,1404.18 2754.87,1404.18 2757.86,1404.18 2760.85,1404.18 2763.84,1404.18 2766.83,1404.18 2769.83,1404.18 2772.82,1404.18 2775.81,1404.18 2778.8,1404.18 2781.79,1404.18 2784.78,1404.18 2787.78,1404.18 2790.77,1404.18 2793.76,1404.18 2796.75,1404.18 2799.74,1404.18 2802.73,1404.18 2805.73,1404.18 2808.72,1404.18 2811.71,1404.18 2814.7,1404.18 2817.69,1404.18 2820.68,1404.18 2823.68,1404.18 2826.67,1404.18 2829.66,1404.18 2832.65,1404.18 2835.64,1404.18 2838.63,1404.18 2841.63,1404.18 2844.62,1404.18 2847.61,1404.18 2850.6,1404.18 2853.59,1404.18 2856.58,1404.18 2859.58,1404.18 2862.57,1404.18 2865.56,1404.18 2868.55,1404.18 2871.54,1404.18 2874.53,1404.18 2877.53,1404.18 2880.52,1404.18 2883.51,1404.18 2886.5,1404.18 2889.49,1404.18 2892.48,1404.18 2895.48,1404.18 2898.47,1404.18 2901.46,1404.18 2904.45,1404.18 2907.44,1404.18 2910.43,1404.18 2913.43,1404.18 2916.42,1404.18 2919.41,1404.18 2922.4,1404.18 2925.39,1404.18 2928.38,1404.18 2931.37,1404.18 2934.37,1404.18 2937.36,1404.18 2940.35,1404.18 2943.34,1404.18 2946.33,1404.18 2949.32,1404.18 2952.32,1404.18 2955.31,1404.18 2958.3,1404.18 2961.29,1404.18 2964.28,1404.18 2967.27,1404.18 2970.27,1404.18 2973.26,1404.18 2976.25,1404.18 2979.24,1404.18 2982.23,1404.18 2985.22,1404.18 2988.22,1404.18 2991.21,1404.18 2994.2,1404.18 2997.19,1404.18 3000.18,1404.18 3003.17,1404.18 3006.17,1404.18 3009.16,1404.18 3012.15,1404.18 3015.14,1404.18 3018.13,1404.18 3021.12,1404.18 3024.12,1404.18 3027.11,1404.18 3030.1,1404.18 3033.09,1404.18 3036.08,1404.18 3039.07,1404.18 3042.07,1404.18 3045.06,1404.18 3048.05,1404.18 3051.04,1404.18 3054.03,1404.18 3057.02,1404.18 3060.02,1404.18 3063.01,1404.18 3066,1404.18 3068.99,1404.18 3071.98,1404.18 3074.97,1404.18 3077.97,1404.18 3080.96,1404.18 3083.95,1404.18 3086.94,1404.18 3089.93,1404.18 3092.92,1404.18 3095.91,1404.18 3098.91,1404.18 3101.9,1404.18 3104.89,1404.18 3107.88,1404.18 3110.87,1404.18 3113.86,1404.18 3116.86,1404.18 3119.85,1404.18 3122.84,1404.18 3125.83,1404.18 3128.82,1404.18 3131.81,1404.18 3134.81,1404.18 3137.8,1404.18 3140.79,1404.18 3143.78,1404.18 3146.77,1404.18 3149.76,1404.18 3152.76,1404.18 "/>
<polyline clip-path="url(#clip372)" style="stroke:#3da44d; stroke-linecap:round; stroke-linejoin:round; stroke-width:12; stroke-opacity:1; fill:none" points="164.112,1404.18 167.104,1404.18 170.095,1404.18 173.087,1404.18 176.079,1404.18 179.07,1404.18 182.062,1404.18 185.054,1404.18 188.045,1404.18 191.037,1404.18 194.028,1404.18 197.02,1404.18 200.012,1404.18 203.003,1404.18 205.995,1404.18 208.987,1404.18 211.978,1404.18 214.97,1404.18 217.962,1404.18 220.953,1404.18 223.945,1404.18 226.936,1404.18 229.928,1404.18 232.92,1404.18 235.911,1404.18 238.903,1404.18 241.895,1404.18 244.886,1404.18 247.878,1404.18 250.87,1404.18 253.861,1404.18 256.853,1404.18 259.844,1404.18 262.836,1404.18 265.828,1404.18 268.819,1404.18 271.811,1404.18 274.803,1404.18 277.794,1404.18 280.786,1404.18 283.778,1404.18 286.769,1404.18 289.761,1404.18 292.752,1404.18 295.744,1404.18 298.736,1404.18 301.727,1404.18 304.719,1404.18 307.711,1404.17 310.702,1404.17 313.694,1404.17 316.686,1404.17 319.677,1404.17 322.669,1404.16 325.66,1404.16 328.652,1404.16 331.644,1404.15 334.635,1404.15 337.627,1404.14 340.619,1404.12 343.61,1404.1 346.602,1404.08 349.594,1404.07 352.585,1404.05 355.577,1404.04 358.568,1404 361.56,1403.95 364.552,1403.88 367.543,1403.8 370.535,1403.71 373.527,1403.64 376.518,1403.57 379.51,1403.52 382.502,1403.39 385.493,1403.19 388.485,1402.94 391.476,1402.67 394.468,1402.39 397.46,1402.11 400.451,1401.86 403.443,1401.65 406.435,1401.39 409.426,1400.86 412.418,1400.2 415.41,1399.44 418.401,1398.63 421.393,1397.81 424.384,1397.01 427.376,1396.28 430.368,1395.66 433.359,1394.88 436.351,1393.48 439.343,1391.8 442.334,1389.92 445.326,1387.92 448.317,1385.89 451.309,1383.89 454.301,1382.02 457.292,1380.34 460.284,1378.84 463.276,1375.91 466.267,1372.43 469.259,1368.55 472.251,1364.4 475.242,1360.11 478.234,1355.82 481.225,1351.65 484.217,1347.75 487.209,1344.24 490.2,1340.34 493.192,1334.36 496.184,1327.62 499.175,1320.33 502.167,1312.65 505.159,1304.78 508.15,1296.91 511.142,1289.22 514.133,1281.89 517.125,1275.13 520.117,1268.5 523.108,1258.61 526.1,1247.75 529.092,1236.14 532.083,1224 535.075,1211.55 538.067,1198.99 541.058,1186.54 544.05,1174.41 547.041,1162.82 550.033,1151.98 553.025,1139.74 556.016,1124.72 559.008,1108.86 562,1092.35 564.991,1075.37 567.983,1058.13 570.975,1040.8 573.966,1023.59 576.958,1006.68 579.949,990.269 582.941,974.539 585.933,957.97 588.924,938.916 591.916,919.342 594.908,899.356 597.899,879.064 600.891,858.573 603.883,837.99 606.874,817.422 609.866,796.976 612.857,776.758 615.849,756.876 618.841,737.435 621.832,716.729 624.824,695.869 627.816,675.081 630.807,654.344 633.799,633.639 636.791,612.945 639.782,592.24 642.774,571.505 645.765,550.718 648.757,529.86 651.749,508.91 654.74,487.846 657.732,468.035 660.724,449.226 663.715,431.116 666.707,413.553 669.699,396.388 672.69,379.47 675.682,362.65 678.673,345.776 681.665,328.7 684.657,311.269 687.648,293.335 690.64,274.747 693.632,257.243 696.623,243.574 699.615,231.199 702.607,219.88 705.598,209.381 708.59,199.464 711.581,189.893 714.573,180.429 717.565,170.836 720.556,160.877 723.548,150.314 726.54,138.91 729.531,126.429 732.523,115.964 735.514,110.597 738.506,106.683 741.498,103.967 744.489,102.193 747.481,101.108 750.473,100.457 753.464,99.9842 756.456,99.4355 759.448,98.556 762.439,97.0909 765.431,94.7854 768.422,91.3847 771.414,86.7664 774.406,89.5956 777.397,93.7555 780.389,99.0389 783.381,105.239 786.372,112.148 789.364,119.559 792.356,127.265 795.347,135.059 798.339,142.734 801.33,150.082 804.322,156.896 807.314,162.97 810.305,168.096 813.297,172.854 816.289,183.132 819.28,194.225 822.272,206.009 825.264,218.363 828.255,231.163 831.247,244.288 834.238,257.615 837.23,271.022 840.222,284.387 843.213,297.587 846.205,310.499 849.197,323.002 852.188,334.973 855.18,346.29 858.172,359.852 861.163,374.557 864.155,389.496 867.146,404.634 870.138,419.935 873.13,435.363 876.121,450.883 879.113,466.459 882.105,482.056 885.096,497.638 888.088,513.17 891.08,528.615 894.071,543.939 897.063,559.106 900.054,574.08 903.046,589.519 906.038,604.85 909.029,620.017 912.021,635.048 915.013,649.97 918.004,664.811 920.996,679.599 923.988,694.363 926.979,709.129 929.971,723.926 932.962,738.781 935.954,753.722 938.946,768.778 941.937,783.975 944.929,799.342 947.921,814.018 950.912,827.648 953.904,840.875 956.896,853.759 959.887,866.359 962.879,878.734 965.87,890.943 968.862,903.046 971.854,915.1 974.845,927.167 977.837,939.303 980.829,951.57 983.82,964.025 986.812,976.729 989.804,989.739 992.795,1003.12 995.787,1014.83 998.778,1025.32 1001.77,1035.37 1004.76,1045.03 1007.75,1054.38 1010.74,1063.48 1013.74,1072.38 1016.73,1081.16 1019.72,1089.88 1022.71,1098.6 1025.7,1107.38 1028.69,1116.29 1031.69,1125.39 1034.68,1134.75 1037.67,1144.42 1040.66,1154.48 1043.65,1163.87 1046.64,1171.26 1049.64,1178.25 1052.63,1184.89 1055.62,1191.23 1058.61,1197.33 1061.6,1203.24 1064.59,1209.01 1067.59,1214.69 1070.58,1220.34 1073.57,1226.01 1076.56,1231.76 1079.55,1237.62 1082.54,1243.67 1085.54,1249.94 1088.53,1256.5 1091.52,1263.39 1094.51,1269.27 1097.5,1273.85 1100.49,1278.13 1103.49,1282.17 1106.48,1286 1109.47,1289.66 1112.46,1293.18 1115.45,1296.59 1118.44,1299.94 1121.44,1303.27 1124.43,1306.6 1127.42,1309.98 1130.41,1313.44 1133.4,1317.01 1136.39,1320.75 1139.39,1324.67 1142.38,1328.82 1145.37,1332.87 1148.36,1335.53 1151.35,1338.01 1154.34,1340.32 1157.34,1342.49 1160.33,1344.53 1163.32,1346.48 1166.31,1348.36 1169.3,1350.18 1172.29,1351.97 1175.28,1353.75 1178.28,1355.54 1181.27,1357.37 1184.26,1359.26 1187.25,1361.23 1190.24,1363.3 1193.23,1365.49 1196.23,1367.84 1199.22,1369.92 1202.21,1371.29 1205.2,1372.56 1208.19,1373.73 1211.18,1374.83 1214.18,1375.85 1217.17,1376.83 1220.16,1377.76 1223.15,1378.66 1226.14,1379.53 1229.13,1380.41 1232.13,1381.29 1235.12,1382.18 1238.11,1383.11 1241.1,1384.08 1244.09,1385.1 1247.08,1386.19 1250.08,1387.36 1253.07,1388.6 1256.06,1389.27 1259.05,1389.89 1262.04,1390.46 1265.03,1390.98 1268.03,1391.47 1271.02,1391.93 1274.01,1392.37 1277,1392.78 1279.99,1393.18 1282.98,1393.58 1285.98,1393.97 1288.97,1394.37 1291.96,1394.78 1294.95,1395.21 1297.94,1395.66 1300.93,1396.13 1303.93,1396.65 1306.92,1397.2 1309.91,1397.74 1312.9,1398.03 1315.89,1398.3 1318.88,1398.55 1321.88,1398.77 1324.87,1398.98 1327.86,1399.18 1330.85,1399.36 1333.84,1399.53 1336.83,1399.7 1339.82,1399.87 1342.82,1400.03 1345.81,1400.19 1348.8,1400.36 1351.79,1400.54 1354.78,1400.73 1357.77,1400.92 1360.77,1401.14 1363.76,1401.37 1366.75,1401.62 1369.74,1401.77 1372.73,1401.88 1375.72,1401.98 1378.72,1402.08 1381.71,1402.16 1384.7,1402.24 1387.69,1402.32 1390.68,1402.38 1393.67,1402.45 1396.67,1402.51 1399.66,1402.58 1402.65,1402.64 1405.64,1402.7 1408.63,1402.77 1411.62,1402.84 1414.62,1402.91 1417.61,1402.99 1420.6,1403.07 1423.59,1403.17 1426.58,1403.27 1429.57,1403.32 1432.57,1403.36 1435.56,1403.4 1438.55,1403.43 1441.54,1403.46 1444.53,1403.49 1447.52,1403.52 1450.52,1403.55 1453.51,1403.57 1456.5,1403.59 1459.49,1403.61 1462.48,1403.64 1465.47,1403.66 1468.47,1403.68 1471.46,1403.7 1474.45,1403.73 1477.44,1403.76 1480.43,1403.79 1483.42,1403.82 1486.41,1403.86 1489.41,1403.89 1492.4,1403.9 1495.39,1403.91 1498.38,1403.93 1501.37,1403.94 1504.36,1403.95 1507.36,1403.96 1510.35,1403.97 1513.34,1403.97 1516.33,1403.98 1519.32,1403.99 1522.31,1404 1525.31,1404 1528.3,1404.01 1531.29,1404.02 1534.28,1404.03 1537.27,1404.03 1540.26,1404.04 1543.26,1404.05 1546.25,1404.06 1549.24,1404.07 1552.23,1404.09 1555.22,1404.09 1558.21,1404.1 1561.21,1404.1 1564.2,1404.1 1567.19,1404.11 1570.18,1404.11 1573.17,1404.11 1576.16,1404.12 1579.16,1404.12 1582.15,1404.12 1585.14,1404.12 1588.13,1404.12 1591.12,1404.13 1594.11,1404.13 1597.11,1404.13 1600.1,1404.13 1603.09,1404.13 1606.08,1404.14 1609.07,1404.14 1612.06,1404.14 1615.06,1404.15 1618.05,1404.15 1621.04,1404.15 1624.03,1404.15 1627.02,1404.16 1630.01,1404.16 1633.01,1404.16 1636,1404.16 1638.99,1404.16 1641.98,1404.16 1644.97,1404.16 1647.96,1404.16 1650.95,1404.16 1653.95,1404.16 1656.94,1404.16 1659.93,1404.16 1662.92,1404.16 1665.91,1404.17 1668.9,1404.17 1671.9,1404.17 1674.89,1404.17 1677.88,1404.17 1680.87,1404.17 1683.86,1404.17 1686.85,1404.17 1689.85,1404.17 1692.84,1404.17 1695.83,1404.17 1698.82,1404.17 1701.81,1404.17 1704.8,1404.17 1707.8,1404.17 1710.79,1404.17 1713.78,1404.17 1716.77,1404.17 1719.76,1404.17 1722.75,1404.17 1725.75,1404.17 1728.74,1404.17 1731.73,1404.17 1734.72,1404.17 1737.71,1404.17 1740.7,1404.17 1743.7,1404.17 1746.69,1404.17 1749.68,1404.18 1752.67,1404.18 1755.66,1404.18 1758.65,1404.18 1761.65,1404.18 1764.64,1404.18 1767.63,1404.18 1770.62,1404.18 1773.61,1404.18 1776.6,1404.18 1779.6,1404.18 1782.59,1404.18 1785.58,1404.18 1788.57,1404.18 1791.56,1404.18 1794.55,1404.18 1797.55,1404.18 1800.54,1404.18 1803.53,1404.18 1806.52,1404.18 1809.51,1404.18 1812.5,1404.18 1815.49,1404.18 1818.49,1404.18 1821.48,1404.18 1824.47,1404.18 1827.46,1404.18 1830.45,1404.18 1833.44,1404.18 1836.44,1404.18 1839.43,1404.18 1842.42,1404.18 1845.41,1404.18 1848.4,1404.18 1851.39,1404.18 1854.39,1404.18 1857.38,1404.18 1860.37,1404.18 1863.36,1404.18 1866.35,1404.18 1869.34,1404.18 1872.34,1404.18 1875.33,1404.18 1878.32,1404.18 1881.31,1404.18 1884.3,1404.18 1887.29,1404.18 1890.29,1404.18 1893.28,1404.18 1896.27,1404.18 1899.26,1404.18 1902.25,1404.18 1905.24,1404.18 1908.24,1404.18 1911.23,1404.18 1914.22,1404.18 1917.21,1404.18 1920.2,1404.18 1923.19,1404.18 1926.19,1404.18 1929.18,1404.18 1932.17,1404.18 1935.16,1404.18 1938.15,1404.18 1941.14,1404.18 1944.14,1404.18 1947.13,1404.18 1950.12,1404.18 1953.11,1404.18 1956.1,1404.18 1959.09,1404.18 1962.09,1404.18 1965.08,1404.18 1968.07,1404.18 1971.06,1404.18 1974.05,1404.18 1977.04,1404.18 1980.03,1404.18 1983.03,1404.18 1986.02,1404.18 1989.01,1404.18 1992,1404.18 1994.99,1404.18 1997.98,1404.18 2000.98,1404.18 2003.97,1404.18 2006.96,1404.18 2009.95,1404.18 2012.94,1404.18 2015.93,1404.18 2018.93,1404.18 2021.92,1404.18 2024.91,1404.18 2027.9,1404.18 2030.89,1404.18 2033.88,1404.18 2036.88,1404.18 2039.87,1404.18 2042.86,1404.18 2045.85,1404.18 2048.84,1404.18 2051.83,1404.18 2054.83,1404.18 2057.82,1404.18 2060.81,1404.18 2063.8,1404.18 2066.79,1404.18 2069.78,1404.18 2072.78,1404.18 2075.77,1404.18 2078.76,1404.18 2081.75,1404.18 2084.74,1404.18 2087.73,1404.18 2090.73,1404.18 2093.72,1404.18 2096.71,1404.18 2099.7,1404.18 2102.69,1404.18 2105.68,1404.18 2108.68,1404.18 2111.67,1404.18 2114.66,1404.18 2117.65,1404.18 2120.64,1404.18 2123.63,1404.18 2126.62,1404.18 2129.62,1404.18 2132.61,1404.18 2135.6,1404.18 2138.59,1404.18 2141.58,1404.18 2144.57,1404.18 2147.57,1404.18 2150.56,1404.18 2153.55,1404.18 2156.54,1404.18 2159.53,1404.18 2162.52,1404.18 2165.52,1404.18 2168.51,1404.18 2171.5,1404.18 2174.49,1404.18 2177.48,1404.18 2180.47,1404.18 2183.47,1404.18 2186.46,1404.18 2189.45,1404.18 2192.44,1404.18 2195.43,1404.18 2198.42,1404.18 2201.42,1404.18 2204.41,1404.18 2207.4,1404.18 2210.39,1404.18 2213.38,1404.18 2216.37,1404.18 2219.37,1404.18 2222.36,1404.18 2225.35,1404.18 2228.34,1404.18 2231.33,1404.18 2234.32,1404.18 2237.32,1404.18 2240.31,1404.18 2243.3,1404.18 2246.29,1404.18 2249.28,1404.18 2252.27,1404.18 2255.27,1404.18 2258.26,1404.18 2261.25,1404.18 2264.24,1404.18 2267.23,1404.18 2270.22,1404.18 2273.22,1404.18 2276.21,1404.18 2279.2,1404.18 2282.19,1404.18 2285.18,1404.18 2288.17,1404.18 2291.16,1404.18 2294.16,1404.18 2297.15,1404.18 2300.14,1404.18 2303.13,1404.18 2306.12,1404.18 2309.11,1404.18 2312.11,1404.18 2315.1,1404.18 2318.09,1404.18 2321.08,1404.18 2324.07,1404.18 2327.06,1404.18 2330.06,1404.18 2333.05,1404.18 2336.04,1404.18 2339.03,1404.18 2342.02,1404.18 2345.01,1404.18 2348.01,1404.18 2351,1404.18 2353.99,1404.18 2356.98,1404.18 2359.97,1404.18 2362.96,1404.18 2365.96,1404.18 2368.95,1404.18 2371.94,1404.18 2374.93,1404.18 2377.92,1404.18 2380.91,1404.18 2383.91,1404.18 2386.9,1404.18 2389.89,1404.18 2392.88,1404.18 2395.87,1404.18 2398.86,1404.18 2401.86,1404.18 2404.85,1404.18 2407.84,1404.18 2410.83,1404.18 2413.82,1404.18 2416.81,1404.18 2419.81,1404.18 2422.8,1404.18 2425.79,1404.18 2428.78,1404.18 2431.77,1404.18 2434.76,1404.18 2437.76,1404.18 2440.75,1404.18 2443.74,1404.18 2446.73,1404.18 2449.72,1404.18 2452.71,1404.18 2455.7,1404.18 2458.7,1404.18 2461.69,1404.18 2464.68,1404.18 2467.67,1404.18 2470.66,1404.18 2473.65,1404.18 2476.65,1404.18 2479.64,1404.18 2482.63,1404.17 2485.62,1404.17 2488.61,1404.17 2491.6,1404.17 2494.6,1404.17 2497.59,1404.17 2500.58,1404.17 2503.57,1404.17 2506.56,1404.17 2509.55,1404.17 2512.55,1404.17 2515.54,1404.17 2518.53,1404.17 2521.52,1404.17 2524.51,1404.17 2527.5,1404.17 2530.5,1404.17 2533.49,1404.17 2536.48,1404.17 2539.47,1404.17 2542.46,1404.17 2545.45,1404.17 2548.45,1404.17 2551.44,1404.17 2554.43,1404.17 2557.42,1404.17 2560.41,1404.17 2563.4,1404.17 2566.4,1404.17 2569.39,1404.17 2572.38,1404.17 2575.37,1404.17 2578.36,1404.17 2581.35,1404.17 2584.35,1404.17 2587.34,1404.17 2590.33,1404.17 2593.32,1404.17 2596.31,1404.17 2599.3,1404.17 2602.29,1404.17 2605.29,1404.17 2608.28,1404.17 2611.27,1404.18 2614.26,1404.18 2617.25,1404.18 2620.24,1404.18 2623.24,1404.18 2626.23,1404.18 2629.22,1404.18 2632.21,1404.18 2635.2,1404.18 2638.19,1404.18 2641.19,1404.18 2644.18,1404.18 2647.17,1404.18 2650.16,1404.18 2653.15,1404.18 2656.14,1404.18 2659.14,1404.18 2662.13,1404.18 2665.12,1404.18 2668.11,1404.18 2671.1,1404.18 2674.09,1404.18 2677.09,1404.18 2680.08,1404.18 2683.07,1404.18 2686.06,1404.18 2689.05,1404.18 2692.04,1404.18 2695.04,1404.18 2698.03,1404.18 2701.02,1404.18 2704.01,1404.18 2707,1404.18 2709.99,1404.18 2712.99,1404.18 2715.98,1404.18 2718.97,1404.18 2721.96,1404.18 2724.95,1404.18 2727.94,1404.18 2730.94,1404.18 2733.93,1404.18 2736.92,1404.18 2739.91,1404.18 2742.9,1404.18 2745.89,1404.18 2748.89,1404.18 2751.88,1404.18 2754.87,1404.18 2757.86,1404.18 2760.85,1404.18 2763.84,1404.18 2766.83,1404.18 2769.83,1404.18 2772.82,1404.18 2775.81,1404.18 2778.8,1404.18 2781.79,1404.18 2784.78,1404.18 2787.78,1404.18 2790.77,1404.18 2793.76,1404.18 2796.75,1404.18 2799.74,1404.18 2802.73,1404.18 2805.73,1404.18 2808.72,1404.18 2811.71,1404.18 2814.7,1404.18 2817.69,1404.18 2820.68,1404.18 2823.68,1404.18 2826.67,1404.18 2829.66,1404.18 2832.65,1404.18 2835.64,1404.18 2838.63,1404.18 2841.63,1404.18 2844.62,1404.18 2847.61,1404.18 2850.6,1404.18 2853.59,1404.18 2856.58,1404.18 2859.58,1404.18 2862.57,1404.18 2865.56,1404.18 2868.55,1404.18 2871.54,1404.18 2874.53,1404.18 2877.53,1404.18 2880.52,1404.18 2883.51,1404.18 2886.5,1404.18 2889.49,1404.18 2892.48,1404.18 2895.48,1404.18 2898.47,1404.18 2901.46,1404.18 2904.45,1404.18 2907.44,1404.18 2910.43,1404.18 2913.43,1404.18 2916.42,1404.18 2919.41,1404.18 2922.4,1404.18 2925.39,1404.18 2928.38,1404.18 2931.37,1404.18 2934.37,1404.18 2937.36,1404.18 2940.35,1404.18 2943.34,1404.18 2946.33,1404.18 2949.32,1404.18 2952.32,1404.18 2955.31,1404.18 2958.3,1404.18 2961.29,1404.18 2964.28,1404.18 2967.27,1404.18 2970.27,1404.18 2973.26,1404.18 2976.25,1404.18 2979.24,1404.18 2982.23,1404.18 2985.22,1404.18 2988.22,1404.18 2991.21,1404.18 2994.2,1404.18 2997.19,1404.18 3000.18,1404.18 3003.17,1404.18 3006.17,1404.18 3009.16,1404.18 3012.15,1404.18 3015.14,1404.18 3018.13,1404.18 3021.12,1404.18 3024.12,1404.18 3027.11,1404.18 3030.1,1404.18 3033.09,1404.18 3036.08,1404.18 3039.07,1404.18 3042.07,1404.18 3045.06,1404.18 3048.05,1404.18 3051.04,1404.18 3054.03,1404.18 3057.02,1404.18 3060.02,1404.18 3063.01,1404.18 3066,1404.18 3068.99,1404.18 3071.98,1404.18 3074.97,1404.18 3077.97,1404.18 3080.96,1404.18 3083.95,1404.18 3086.94,1404.18 3089.93,1404.18 3092.92,1404.18 3095.91,1404.18 3098.91,1404.18 3101.9,1404.18 3104.89,1404.18 3107.88,1404.18 3110.87,1404.18 3113.86,1404.18 3116.86,1404.18 3119.85,1404.18 3122.84,1404.18 3125.83,1404.18 3128.82,1404.18 3131.81,1404.18 3134.81,1404.18 3137.8,1404.18 3140.79,1404.18 3143.78,1404.18 3146.77,1404.18 3149.76,1404.18 3152.76,1404.18 "/>
<path clip-path="url(#clip370)" d="M2601.49 301.153 L3053.13 301.153 L3053.13 93.7926 L2601.49 93.7926  Z" fill="#ffffff" fill-rule="evenodd" fill-opacity="1"/>
<polyline clip-path="url(#clip370)" style="stroke:#000000; stroke-linecap:round; stroke-linejoin:round; stroke-width:4; stroke-opacity:1; fill:none" points="2601.49,301.153 3053.13,301.153 3053.13,93.7926 2601.49,93.7926 2601.49,301.153 "/>
<polyline clip-path="url(#clip370)" style="stroke:#009af9; stroke-linecap:round; stroke-linejoin:round; stroke-width:12; stroke-opacity:1; fill:none" points="2634.7,145.633 2833.94,145.633 "/>
<path clip-path="url(#clip370)" d="M2888.86 147.265 L2888.86 162.913 L2884.6 162.913 L2884.6 147.403 Q2884.6 143.723 2883.17 141.894 Q2881.73 140.066 2878.86 140.066 Q2875.41 140.066 2873.42 142.265 Q2871.43 144.464 2871.43 148.26 L2871.43 162.913 L2867.15 162.913 L2867.15 136.987 L2871.43 136.987 L2871.43 141.015 Q2872.96 138.677 2875.02 137.519 Q2877.1 136.362 2879.81 136.362 Q2884.28 136.362 2886.57 139.14 Q2888.86 141.894 2888.86 147.265 Z" fill="#000000" fill-rule="nonzero" fill-opacity="1" /><path clip-path="url(#clip370)" d="M2912.98 141.385 L2942.66 141.385 L2942.66 145.274 L2912.98 145.274 L2912.98 141.385 M2912.98 150.829 L2942.66 150.829 L2942.66 154.765 L2912.98 154.765 L2912.98 150.829 Z" fill="#000000" fill-rule="nonzero" fill-opacity="1" /><path clip-path="url(#clip370)" d="M2981.99 144.278 Q2985.34 144.996 2987.22 147.265 Q2989.12 149.533 2989.12 152.866 Q2989.12 157.982 2985.6 160.783 Q2982.08 163.584 2975.6 163.584 Q2973.42 163.584 2971.11 163.144 Q2968.82 162.727 2966.36 161.871 L2966.36 157.357 Q2968.31 158.491 2970.62 159.07 Q2972.94 159.649 2975.46 159.649 Q2979.86 159.649 2982.15 157.913 Q2984.46 156.177 2984.46 152.866 Q2984.46 149.811 2982.31 148.098 Q2980.18 146.362 2976.36 146.362 L2972.33 146.362 L2972.33 142.519 L2976.55 142.519 Q2980 142.519 2981.83 141.153 Q2983.65 139.765 2983.65 137.172 Q2983.65 134.51 2981.76 133.098 Q2979.88 131.663 2976.36 131.663 Q2974.44 131.663 2972.24 132.079 Q2970.04 132.496 2967.4 133.376 L2967.4 129.209 Q2970.07 128.468 2972.38 128.098 Q2974.72 127.728 2976.78 127.728 Q2982.1 127.728 2985.21 130.158 Q2988.31 132.566 2988.31 136.686 Q2988.31 139.556 2986.66 141.547 Q2985.02 143.515 2981.99 144.278 Z" fill="#000000" fill-rule="nonzero" fill-opacity="1" /><polyline clip-path="url(#clip370)" style="stroke:#e26f46; stroke-linecap:round; stroke-linejoin:round; stroke-width:12; stroke-opacity:1; fill:none" points="2634.7,197.473 2833.94,197.473 "/>
<path clip-path="url(#clip370)" d="M2888.86 199.105 L2888.86 214.753 L2884.6 214.753 L2884.6 199.243 Q2884.6 195.563 2883.17 193.734 Q2881.73 191.906 2878.86 191.906 Q2875.41 191.906 2873.42 194.105 Q2871.43 196.304 2871.43 200.1 L2871.43 214.753 L2867.15 214.753 L2867.15 188.827 L2871.43 188.827 L2871.43 192.855 Q2872.96 190.517 2875.02 189.359 Q2877.1 188.202 2879.81 188.202 Q2884.28 188.202 2886.57 190.98 Q2888.86 193.734 2888.86 199.105 Z" fill="#000000" fill-rule="nonzero" fill-opacity="1" /><path clip-path="url(#clip370)" d="M2912.98 193.225 L2942.66 193.225 L2942.66 197.114 L2912.98 197.114 L2912.98 193.225 M2912.98 202.669 L2942.66 202.669 L2942.66 206.605 L2912.98 206.605 L2912.98 202.669 Z" fill="#000000" fill-rule="nonzero" fill-opacity="1" /><path clip-path="url(#clip370)" d="M2968.63 210.817 L2976.27 210.817 L2976.27 184.452 L2967.96 186.119 L2967.96 181.859 L2976.22 180.193 L2980.9 180.193 L2980.9 210.817 L2988.54 210.817 L2988.54 214.753 L2968.63 214.753 L2968.63 210.817 Z" fill="#000000" fill-rule="nonzero" fill-opacity="1" /><path clip-path="url(#clip370)" d="M3007.98 183.271 Q3004.37 183.271 3002.54 186.836 Q3000.74 190.378 3000.74 197.507 Q3000.74 204.614 3002.54 208.179 Q3004.37 211.72 3007.98 211.72 Q3011.62 211.72 3013.42 208.179 Q3015.25 204.614 3015.25 197.507 Q3015.25 190.378 3013.42 186.836 Q3011.62 183.271 3007.98 183.271 M3007.98 179.568 Q3013.79 179.568 3016.85 184.174 Q3019.93 188.757 3019.93 197.507 Q3019.93 206.234 3016.85 210.841 Q3013.79 215.424 3007.98 215.424 Q3002.17 215.424 2999.09 210.841 Q2996.04 206.234 2996.04 197.507 Q2996.04 188.757 2999.09 184.174 Q3002.17 179.568 3007.98 179.568 Z" fill="#000000" fill-rule="nonzero" fill-opacity="1" /><polyline clip-path="url(#clip370)" style="stroke:#3da44d; stroke-linecap:round; stroke-linejoin:round; stroke-width:12; stroke-opacity:1; fill:none" points="2634.7,249.313 2833.94,249.313 "/>
<path clip-path="url(#clip370)" d="M2888.86 250.945 L2888.86 266.593 L2884.6 266.593 L2884.6 251.083 Q2884.6 247.403 2883.17 245.574 Q2881.73 243.746 2878.86 243.746 Q2875.41 243.746 2873.42 245.945 Q2871.43 248.144 2871.43 251.94 L2871.43 266.593 L2867.15 266.593 L2867.15 240.667 L2871.43 240.667 L2871.43 244.695 Q2872.96 242.357 2875.02 241.199 Q2877.1 240.042 2879.81 240.042 Q2884.28 240.042 2886.57 242.82 Q2888.86 245.574 2888.86 250.945 Z" fill="#000000" fill-rule="nonzero" fill-opacity="1" /><path clip-path="url(#clip370)" d="M2912.98 245.065 L2942.66 245.065 L2942.66 248.954 L2912.98 248.954 L2912.98 245.065 M2912.98 254.509 L2942.66 254.509 L2942.66 258.445 L2912.98 258.445 L2912.98 254.509 Z" fill="#000000" fill-rule="nonzero" fill-opacity="1" /><path clip-path="url(#clip370)" d="M2971.85 262.657 L2988.17 262.657 L2988.17 266.593 L2966.22 266.593 L2966.22 262.657 Q2968.89 259.903 2973.47 255.273 Q2978.08 250.62 2979.26 249.278 Q2981.5 246.755 2982.38 245.019 Q2983.28 243.259 2983.28 241.57 Q2983.28 238.815 2981.34 237.079 Q2979.42 235.343 2976.32 235.343 Q2974.12 235.343 2971.66 236.107 Q2969.23 236.871 2966.46 238.421 L2966.46 233.699 Q2969.28 232.565 2971.73 231.986 Q2974.19 231.408 2976.22 231.408 Q2981.59 231.408 2984.79 234.093 Q2987.98 236.778 2987.98 241.269 Q2987.98 243.398 2987.17 245.32 Q2986.39 247.218 2984.28 249.81 Q2983.7 250.482 2980.6 253.699 Q2977.5 256.894 2971.85 262.657 Z" fill="#000000" fill-rule="nonzero" fill-opacity="1" /><path clip-path="url(#clip370)" d="M3007.98 235.111 Q3004.37 235.111 3002.54 238.676 Q3000.74 242.218 3000.74 249.347 Q3000.74 256.454 3002.54 260.019 Q3004.37 263.56 3007.98 263.56 Q3011.62 263.56 3013.42 260.019 Q3015.25 256.454 3015.25 249.347 Q3015.25 242.218 3013.42 238.676 Q3011.62 235.111 3007.98 235.111 M3007.98 231.408 Q3013.79 231.408 3016.85 236.014 Q3019.93 240.597 3019.93 249.347 Q3019.93 258.074 3016.85 262.681 Q3013.79 267.264 3007.98 267.264 Q3002.17 267.264 2999.09 262.681 Q2996.04 258.074 2996.04 249.347 Q2996.04 240.597 2999.09 236.014 Q3002.17 231.408 3007.98 231.408 Z" fill="#000000" fill-rule="nonzero" fill-opacity="1" /></svg>
