<?xml version="1.0" encoding="utf-8"?>
<svg xmlns="http://www.w3.org/2000/svg" xmlns:xlink="http://www.w3.org/1999/xlink" width="600" height="400" viewBox="0 0 2400 1600">
<defs>
  <clipPath id="clip930">
    <rect x="0" y="0" width="2400" height="1600"/>
  </clipPath>
</defs>
<path clip-path="url(#clip930)" d="M0 1600 L2400 1600 L2400 0 L0 0  Z" fill="#ffffff" fill-rule="evenodd" fill-opacity="1"/>
<defs>
  <clipPath id="clip931">
    <rect x="159" y="47" width="2194" height="1330"/>
  </clipPath>
</defs>
<path clip-path="url(#clip930)" d="M159.421 1375.94 L2352.76 1375.94 L2352.76 47.2441 L159.421 47.2441  Z" fill="#ffffff" fill-rule="evenodd" fill-opacity="1"/>
<polyline clip-path="url(#clip931)" style="stroke:#000000; stroke-linecap:round; stroke-linejoin:round; stroke-width:2; stroke-opacity:0.1; fill:none" points="159.421,1375.94 159.421,47.2441 "/>
<polyline clip-path="url(#clip931)" style="stroke:#000000; stroke-linecap:round; stroke-linejoin:round; stroke-width:2; stroke-opacity:0.1; fill:none" points="616.366,1375.94 616.366,47.2441 "/>
<polyline clip-path="url(#clip931)" style="stroke:#000000; stroke-linecap:round; stroke-linejoin:round; stroke-width:2; stroke-opacity:0.1; fill:none" points="1073.31,1375.94 1073.31,47.2441 "/>
<polyline clip-path="url(#clip931)" style="stroke:#000000; stroke-linecap:round; stroke-linejoin:round; stroke-width:2; stroke-opacity:0.1; fill:none" points="1530.26,1375.94 1530.26,47.2441 "/>
<polyline clip-path="url(#clip931)" style="stroke:#000000; stroke-linecap:round; stroke-linejoin:round; stroke-width:2; stroke-opacity:0.1; fill:none" points="1987.2,1375.94 1987.2,47.2441 "/>
<polyline clip-path="url(#clip931)" style="stroke:#000000; stroke-linecap:round; stroke-linejoin:round; stroke-width:2; stroke-opacity:0.1; fill:none" points="159.421,1338.33 2352.76,1338.33 "/>
<polyline clip-path="url(#clip931)" style="stroke:#000000; stroke-linecap:round; stroke-linejoin:round; stroke-width:2; stroke-opacity:0.1; fill:none" points="159.421,1129.42 2352.76,1129.42 "/>
<polyline clip-path="url(#clip931)" style="stroke:#000000; stroke-linecap:round; stroke-linejoin:round; stroke-width:2; stroke-opacity:0.1; fill:none" points="159.421,920.504 2352.76,920.504 "/>
<polyline clip-path="url(#clip931)" style="stroke:#000000; stroke-linecap:round; stroke-linejoin:round; stroke-width:2; stroke-opacity:0.1; fill:none" points="159.421,711.59 2352.76,711.59 "/>
<polyline clip-path="url(#clip931)" style="stroke:#000000; stroke-linecap:round; stroke-linejoin:round; stroke-width:2; stroke-opacity:0.1; fill:none" points="159.421,502.676 2352.76,502.676 "/>
<polyline clip-path="url(#clip931)" style="stroke:#000000; stroke-linecap:round; stroke-linejoin:round; stroke-width:2; stroke-opacity:0.1; fill:none" points="159.421,293.762 2352.76,293.762 "/>
<polyline clip-path="url(#clip931)" style="stroke:#000000; stroke-linecap:round; stroke-linejoin:round; stroke-width:2; stroke-opacity:0.1; fill:none" points="159.421,84.8486 2352.76,84.8486 "/>
<polyline clip-path="url(#clip930)" style="stroke:#000000; stroke-linecap:round; stroke-linejoin:round; stroke-width:4; stroke-opacity:1; fill:none" points="159.421,1375.94 2352.76,1375.94 "/>
<polyline clip-path="url(#clip930)" style="stroke:#000000; stroke-linecap:round; stroke-linejoin:round; stroke-width:4; stroke-opacity:1; fill:none" points="159.421,1375.94 159.421,1357.04 "/>
<polyline clip-path="url(#clip930)" style="stroke:#000000; stroke-linecap:round; stroke-linejoin:round; stroke-width:4; stroke-opacity:1; fill:none" points="616.366,1375.94 616.366,1357.04 "/>
<polyline clip-path="url(#clip930)" style="stroke:#000000; stroke-linecap:round; stroke-linejoin:round; stroke-width:4; stroke-opacity:1; fill:none" points="1073.31,1375.94 1073.31,1357.04 "/>
<polyline clip-path="url(#clip930)" style="stroke:#000000; stroke-linecap:round; stroke-linejoin:round; stroke-width:4; stroke-opacity:1; fill:none" points="1530.26,1375.94 1530.26,1357.04 "/>
<polyline clip-path="url(#clip930)" style="stroke:#000000; stroke-linecap:round; stroke-linejoin:round; stroke-width:4; stroke-opacity:1; fill:none" points="1987.2,1375.94 1987.2,1357.04 "/>
<path clip-path="url(#clip930)" d="M159.421 1406.85 Q155.81 1406.85 153.981 1410.42 Q152.176 1413.96 152.176 1421.09 Q152.176 1428.2 153.981 1431.76 Q155.81 1435.3 159.421 1435.3 Q163.056 1435.3 164.861 1431.76 Q166.69 1428.2 166.69 1421.09 Q166.69 1413.96 164.861 1410.42 Q163.056 1406.85 159.421 1406.85 M159.421 1403.15 Q165.231 1403.15 168.287 1407.76 Q171.366 1412.34 171.366 1421.09 Q171.366 1429.82 168.287 1434.42 Q165.231 1439.01 159.421 1439.01 Q153.611 1439.01 150.532 1434.42 Q147.477 1429.82 147.477 1421.09 Q147.477 1412.34 150.532 1407.76 Q153.611 1403.15 159.421 1403.15 Z" fill="#000000" fill-rule="nonzero" fill-opacity="1" /><path clip-path="url(#clip930)" d="M606.644 1403.78 L625 1403.78 L625 1407.71 L610.926 1407.71 L610.926 1416.18 Q611.945 1415.84 612.963 1415.67 Q613.982 1415.49 615 1415.49 Q620.787 1415.49 624.167 1418.66 Q627.546 1421.83 627.546 1427.25 Q627.546 1432.83 624.074 1435.93 Q620.602 1439.01 614.283 1439.01 Q612.107 1439.01 609.838 1438.64 Q607.593 1438.27 605.185 1437.53 L605.185 1432.83 Q607.269 1433.96 609.491 1434.52 Q611.713 1435.07 614.19 1435.07 Q618.195 1435.07 620.533 1432.97 Q622.871 1430.86 622.871 1427.25 Q622.871 1423.64 620.533 1421.53 Q618.195 1419.42 614.19 1419.42 Q612.315 1419.42 610.44 1419.84 Q608.588 1420.26 606.644 1421.14 L606.644 1403.78 Z" fill="#000000" fill-rule="nonzero" fill-opacity="1" /><path clip-path="url(#clip930)" d="M1048 1434.4 L1055.64 1434.4 L1055.64 1408.03 L1047.33 1409.7 L1047.33 1405.44 L1055.59 1403.78 L1060.27 1403.78 L1060.27 1434.4 L1067.91 1434.4 L1067.91 1438.34 L1048 1438.34 L1048 1434.4 Z" fill="#000000" fill-rule="nonzero" fill-opacity="1" /><path clip-path="url(#clip930)" d="M1087.35 1406.85 Q1083.74 1406.85 1081.91 1410.42 Q1080.1 1413.96 1080.1 1421.09 Q1080.1 1428.2 1081.91 1431.76 Q1083.74 1435.3 1087.35 1435.3 Q1090.98 1435.3 1092.79 1431.76 Q1094.62 1428.2 1094.62 1421.09 Q1094.62 1413.96 1092.79 1410.42 Q1090.98 1406.85 1087.35 1406.85 M1087.35 1403.15 Q1093.16 1403.15 1096.22 1407.76 Q1099.29 1412.34 1099.29 1421.09 Q1099.29 1429.82 1096.22 1434.42 Q1093.16 1439.01 1087.35 1439.01 Q1081.54 1439.01 1078.46 1434.42 Q1075.41 1429.82 1075.41 1421.09 Q1075.41 1412.34 1078.46 1407.76 Q1081.54 1403.15 1087.35 1403.15 Z" fill="#000000" fill-rule="nonzero" fill-opacity="1" /><path clip-path="url(#clip930)" d="M1505.44 1434.4 L1513.08 1434.4 L1513.08 1408.03 L1504.77 1409.7 L1504.77 1405.44 L1513.03 1403.78 L1517.71 1403.78 L1517.71 1434.4 L1525.35 1434.4 L1525.35 1438.34 L1505.44 1438.34 L1505.44 1434.4 Z" fill="#000000" fill-rule="nonzero" fill-opacity="1" /><path clip-path="url(#clip930)" d="M1534.84 1403.78 L1553.2 1403.78 L1553.2 1407.71 L1539.12 1407.71 L1539.12 1416.18 Q1540.14 1415.84 1541.16 1415.67 Q1542.18 1415.49 1543.2 1415.49 Q1548.98 1415.49 1552.36 1418.66 Q1555.74 1421.83 1555.74 1427.25 Q1555.74 1432.83 1552.27 1435.93 Q1548.8 1439.01 1542.48 1439.01 Q1540.3 1439.01 1538.03 1438.64 Q1535.79 1438.27 1533.38 1437.53 L1533.38 1432.83 Q1535.46 1433.96 1537.69 1434.52 Q1539.91 1435.07 1542.38 1435.07 Q1546.39 1435.07 1548.73 1432.97 Q1551.07 1430.86 1551.07 1427.25 Q1551.07 1423.64 1548.73 1421.53 Q1546.39 1419.42 1542.38 1419.42 Q1540.51 1419.42 1538.64 1419.84 Q1536.78 1420.26 1534.84 1421.14 L1534.84 1403.78 Z" fill="#000000" fill-rule="nonzero" fill-opacity="1" /><path clip-path="url(#clip930)" d="M1965.97 1434.4 L1982.29 1434.4 L1982.29 1438.34 L1960.35 1438.34 L1960.35 1434.4 Q1963.01 1431.65 1967.59 1427.02 Q1972.2 1422.36 1973.38 1421.02 Q1975.63 1418.5 1976.51 1416.76 Q1977.41 1415 1977.41 1413.31 Q1977.41 1410.56 1975.46 1408.82 Q1973.54 1407.09 1970.44 1407.09 Q1968.24 1407.09 1965.79 1407.85 Q1963.36 1408.61 1960.58 1410.16 L1960.58 1405.44 Q1963.4 1404.31 1965.86 1403.73 Q1968.31 1403.15 1970.35 1403.15 Q1975.72 1403.15 1978.91 1405.84 Q1982.11 1408.52 1982.11 1413.01 Q1982.11 1415.14 1981.3 1417.06 Q1980.51 1418.96 1978.4 1421.55 Q1977.83 1422.22 1974.72 1425.44 Q1971.62 1428.64 1965.97 1434.4 Z" fill="#000000" fill-rule="nonzero" fill-opacity="1" /><path clip-path="url(#clip930)" d="M2002.11 1406.85 Q1998.5 1406.85 1996.67 1410.42 Q1994.86 1413.96 1994.86 1421.09 Q1994.86 1428.2 1996.67 1431.76 Q1998.5 1435.3 2002.11 1435.3 Q2005.74 1435.3 2007.55 1431.76 Q2009.38 1428.2 2009.38 1421.09 Q2009.38 1413.96 2007.55 1410.42 Q2005.74 1406.85 2002.11 1406.85 M2002.11 1403.15 Q2007.92 1403.15 2010.97 1407.76 Q2014.05 1412.34 2014.05 1421.09 Q2014.05 1429.82 2010.97 1434.42 Q2007.92 1439.01 2002.11 1439.01 Q1996.3 1439.01 1993.22 1434.42 Q1990.16 1429.82 1990.16 1421.09 Q1990.16 1412.34 1993.22 1407.76 Q1996.3 1403.15 2002.11 1403.15 Z" fill="#000000" fill-rule="nonzero" fill-opacity="1" /><path clip-path="url(#clip930)" d="M1255.15 1475.03 L1255.15 1485.15 L1267.21 1485.15 L1267.21 1489.7 L1255.15 1489.7 L1255.15 1509.06 Q1255.15 1513.42 1256.33 1514.66 Q1257.54 1515.9 1261.2 1515.9 L1267.21 1515.9 L1267.21 1520.8 L1261.2 1520.8 Q1254.42 1520.8 1251.84 1518.29 Q1249.26 1515.74 1249.26 1509.06 L1249.26 1489.7 L1244.96 1489.7 L1244.96 1485.15 L1249.26 1485.15 L1249.26 1475.03 L1255.15 1475.03 Z" fill="#000000" fill-rule="nonzero" fill-opacity="1" /><polyline clip-path="url(#clip930)" style="stroke:#000000; stroke-linecap:round; stroke-linejoin:round; stroke-width:4; stroke-opacity:1; fill:none" points="159.421,1375.94 159.421,47.2441 "/>
<polyline clip-path="url(#clip930)" style="stroke:#000000; stroke-linecap:round; stroke-linejoin:round; stroke-width:4; stroke-opacity:1; fill:none" points="159.421,1338.33 178.319,1338.33 "/>
<polyline clip-path="url(#clip930)" style="stroke:#000000; stroke-linecap:round; stroke-linejoin:round; stroke-width:4; stroke-opacity:1; fill:none" points="159.421,1129.42 178.319,1129.42 "/>
<polyline clip-path="url(#clip930)" style="stroke:#000000; stroke-linecap:round; stroke-linejoin:round; stroke-width:4; stroke-opacity:1; fill:none" points="159.421,920.504 178.319,920.504 "/>
<polyline clip-path="url(#clip930)" style="stroke:#000000; stroke-linecap:round; stroke-linejoin:round; stroke-width:4; stroke-opacity:1; fill:none" points="159.421,711.59 178.319,711.59 "/>
<polyline clip-path="url(#clip930)" style="stroke:#000000; stroke-linecap:round; stroke-linejoin:round; stroke-width:4; stroke-opacity:1; fill:none" points="159.421,502.676 178.319,502.676 "/>
<polyline clip-path="url(#clip930)" style="stroke:#000000; stroke-linecap:round; stroke-linejoin:round; stroke-width:4; stroke-opacity:1; fill:none" points="159.421,293.762 178.319,293.762 "/>
<polyline clip-path="url(#clip930)" style="stroke:#000000; stroke-linecap:round; stroke-linejoin:round; stroke-width:4; stroke-opacity:1; fill:none" points="159.421,84.8486 178.319,84.8486 "/>
<path clip-path="url(#clip930)" d="M111.477 1324.13 Q107.866 1324.13 106.037 1327.69 Q104.232 1331.24 104.232 1338.37 Q104.232 1345.47 106.037 1349.04 Q107.866 1352.58 111.477 1352.58 Q115.111 1352.58 116.917 1349.04 Q118.745 1345.47 118.745 1338.37 Q118.745 1331.24 116.917 1327.69 Q115.111 1324.13 111.477 1324.13 M111.477 1320.43 Q117.287 1320.43 120.343 1325.03 Q123.421 1329.62 123.421 1338.37 Q123.421 1347.09 120.343 1351.7 Q117.287 1356.28 111.477 1356.28 Q105.667 1356.28 102.588 1351.7 Q99.5325 1347.09 99.5325 1338.37 Q99.5325 1329.62 102.588 1325.03 Q105.667 1320.43 111.477 1320.43 Z" fill="#000000" fill-rule="nonzero" fill-opacity="1" /><path clip-path="url(#clip930)" d="M103.514 1142.76 L111.153 1142.76 L111.153 1116.4 L102.843 1118.06 L102.843 1113.8 L111.107 1112.14 L115.782 1112.14 L115.782 1142.76 L123.421 1142.76 L123.421 1146.7 L103.514 1146.7 L103.514 1142.76 Z" fill="#000000" fill-rule="nonzero" fill-opacity="1" /><path clip-path="url(#clip930)" d="M107.102 933.849 L123.421 933.849 L123.421 937.784 L101.477 937.784 L101.477 933.849 Q104.139 931.094 108.722 926.464 Q113.329 921.812 114.509 920.469 Q116.755 917.946 117.634 916.21 Q118.537 914.45 118.537 912.761 Q118.537 910.006 116.593 908.27 Q114.671 906.534 111.569 906.534 Q109.37 906.534 106.917 907.298 Q104.486 908.062 101.708 909.613 L101.708 904.89 Q104.532 903.756 106.986 903.177 Q109.44 902.599 111.477 902.599 Q116.847 902.599 120.042 905.284 Q123.236 907.969 123.236 912.46 Q123.236 914.589 122.426 916.511 Q121.639 918.409 119.532 921.001 Q118.954 921.673 115.852 924.89 Q112.75 928.085 107.102 933.849 Z" fill="#000000" fill-rule="nonzero" fill-opacity="1" /><path clip-path="url(#clip930)" d="M116.292 710.236 Q119.648 710.953 121.523 713.222 Q123.421 715.49 123.421 718.824 Q123.421 723.939 119.903 726.74 Q116.384 729.541 109.903 729.541 Q107.727 729.541 105.412 729.101 Q103.12 728.685 100.667 727.828 L100.667 723.314 Q102.611 724.449 104.926 725.027 Q107.241 725.606 109.764 725.606 Q114.162 725.606 116.454 723.87 Q118.769 722.134 118.769 718.824 Q118.769 715.768 116.616 714.055 Q114.486 712.319 110.667 712.319 L106.639 712.319 L106.639 708.477 L110.852 708.477 Q114.301 708.477 116.13 707.111 Q117.958 705.722 117.958 703.129 Q117.958 700.467 116.06 699.055 Q114.185 697.62 110.667 697.62 Q108.745 697.62 106.546 698.037 Q104.347 698.453 101.708 699.333 L101.708 695.166 Q104.37 694.426 106.685 694.055 Q109.023 693.685 111.083 693.685 Q116.407 693.685 119.509 696.115 Q122.611 698.523 122.611 702.643 Q122.611 705.514 120.968 707.504 Q119.324 709.472 116.292 710.236 Z" fill="#000000" fill-rule="nonzero" fill-opacity="1" /><path clip-path="url(#clip930)" d="M113.838 489.47 L102.032 507.919 L113.838 507.919 L113.838 489.47 M112.611 485.396 L118.491 485.396 L118.491 507.919 L123.421 507.919 L123.421 511.808 L118.491 511.808 L118.491 519.956 L113.838 519.956 L113.838 511.808 L98.2362 511.808 L98.2362 507.294 L112.611 485.396 Z" fill="#000000" fill-rule="nonzero" fill-opacity="1" /><path clip-path="url(#clip930)" d="M102.519 276.482 L120.875 276.482 L120.875 280.418 L106.801 280.418 L106.801 288.89 Q107.82 288.542 108.838 288.38 Q109.857 288.195 110.875 288.195 Q116.662 288.195 120.042 291.367 Q123.421 294.538 123.421 299.954 Q123.421 305.533 119.949 308.635 Q116.477 311.714 110.157 311.714 Q107.982 311.714 105.713 311.343 Q103.468 310.973 101.06 310.232 L101.06 305.533 Q103.144 306.667 105.366 307.223 Q107.588 307.778 110.065 307.778 Q114.069 307.778 116.407 305.672 Q118.745 303.566 118.745 299.954 Q118.745 296.343 116.407 294.237 Q114.069 292.13 110.065 292.13 Q108.19 292.13 106.315 292.547 Q104.463 292.964 102.519 293.843 L102.519 276.482 Z" fill="#000000" fill-rule="nonzero" fill-opacity="1" /><path clip-path="url(#clip930)" d="M111.894 82.9852 Q108.745 82.9852 106.894 85.1379 Q105.065 87.2907 105.065 91.0407 Q105.065 94.7675 106.894 96.9434 Q108.745 99.0962 111.894 99.0962 Q115.042 99.0962 116.87 96.9434 Q118.722 94.7675 118.722 91.0407 Q118.722 87.2907 116.87 85.1379 Q115.042 82.9852 111.894 82.9852 M121.176 68.3325 L121.176 72.5917 Q119.417 71.7584 117.611 71.3186 Q115.829 70.8787 114.069 70.8787 Q109.44 70.8787 106.986 74.0037 Q104.556 77.1287 104.208 83.4481 Q105.574 81.4342 107.634 80.3694 Q109.694 79.2815 112.171 79.2815 Q117.38 79.2815 120.389 82.4528 Q123.421 85.6009 123.421 91.0407 Q123.421 96.3647 120.273 99.5823 Q117.125 102.8 111.894 102.8 Q105.898 102.8 102.727 98.2166 Q99.5557 93.6101 99.5557 84.8833 Q99.5557 76.6889 103.445 71.8278 Q107.333 66.9436 113.884 66.9436 Q115.644 66.9436 117.426 67.2908 Q119.231 67.638 121.176 68.3325 Z" fill="#000000" fill-rule="nonzero" fill-opacity="1" /><polyline clip-path="url(#clip931)" style="stroke:#009af9; stroke-linecap:round; stroke-linejoin:round; stroke-width:8; stroke-opacity:1; fill:none" points="159.421,1338.33 160.904,1338.33 162.387,1338.33 163.87,1338.33 165.353,1338.33 166.836,1338.33 168.319,1338.33 169.802,1338.33 171.285,1338.33 172.768,1338.33 174.251,1338.33 175.734,1338.33 177.217,1338.33 178.7,1338.33 180.183,1338.33 181.666,1338.33 183.149,1338.33 184.632,1338.33 186.115,1338.33 187.598,1338.33 189.081,1338.33 190.564,1338.33 192.047,1338.33 193.53,1338.33 195.013,1338.33 196.496,1338.33 197.979,1338.33 199.462,1338.33 200.945,1338.33 202.428,1338.33 203.911,1338.33 205.394,1338.33 206.877,1129.42 208.36,1129.42 209.843,1338.33 211.326,1338.33 212.809,1338.33 214.292,1338.33 215.775,1338.33 217.258,1338.33 218.741,1338.33 220.224,1338.33 221.707,1338.33 223.19,1338.33 224.673,1338.33 226.156,1338.33 227.639,1338.33 229.122,1338.33 230.605,1338.33 232.088,1338.33 233.571,1338.33 235.053,1338.33 236.536,1338.33 238.019,1338.33 239.502,1338.33 240.985,1338.33 242.468,1338.33 243.951,1338.33 245.434,1338.33 246.917,1338.33 248.4,1338.33 249.883,1338.33 251.366,1338.33 252.849,1338.33 254.332,1338.33 255.815,1338.33 257.298,1338.33 258.781,1338.33 260.264,1338.33 261.747,1338.33 263.23,1338.33 264.713,1338.33 266.196,1338.33 267.679,1338.33 269.162,1338.33 270.645,1338.33 272.128,1338.33 273.611,1338.33 275.094,1338.33 276.577,1338.33 278.06,1338.33 279.543,1338.33 281.026,1338.33 282.509,1129.42 283.992,1129.42 285.475,1129.42 286.958,1129.42 288.441,1129.42 289.924,1129.42 291.407,1129.42 292.89,1129.42 294.373,1129.42 295.856,1129.42 297.339,1129.42 298.822,1129.42 300.305,1129.42 301.788,1129.42 303.271,1129.42 304.754,1129.42 306.237,1129.42 307.72,1129.42 309.203,1129.42 310.686,1129.42 312.169,1129.42 313.652,1129.42 315.135,1129.42 316.618,1129.42 318.101,1129.42 319.584,1129.42 321.067,1129.42 322.55,1129.42 324.033,1129.42 325.516,1129.42 326.999,1129.42 328.482,1129.42 329.965,1129.42 331.448,1129.42 332.931,1129.42 334.413,1129.42 335.896,1129.42 337.379,1129.42 338.862,1129.42 340.345,1129.42 341.828,1129.42 343.311,1129.42 344.794,1129.42 346.277,1129.42 347.76,1129.42 349.243,1129.42 350.726,1129.42 352.209,1129.42 353.692,1129.42 355.175,1129.42 356.658,1129.42 358.141,1129.42 359.624,1129.42 361.107,1129.42 362.59,1129.42 364.073,1129.42 365.556,1129.42 367.039,1129.42 368.522,1129.42 370.005,1129.42 371.488,1129.42 372.971,1129.42 374.454,1129.42 375.937,1129.42 377.42,1129.42 378.903,1129.42 380.386,1129.42 381.869,1129.42 383.352,1129.42 384.835,1129.42 386.318,1129.42 387.801,1129.42 389.284,1129.42 390.767,1129.42 392.25,1129.42 393.733,1129.42 395.216,1129.42 396.699,1129.42 398.182,1129.42 399.665,1129.42 401.148,1129.42 402.631,1129.42 404.114,1129.42 405.597,1129.42 407.08,1129.42 408.563,1129.42 410.046,1129.42 411.529,1129.42 413.012,1129.42 414.495,1129.42 415.978,1129.42 417.461,1129.42 418.944,1129.42 420.427,1129.42 421.91,1129.42 423.393,1129.42 424.876,1129.42 426.359,1129.42 427.842,1129.42 429.325,1129.42 430.808,1129.42 432.29,1129.42 433.773,1129.42 435.256,920.504 436.739,920.504 438.222,920.504 439.705,920.504 441.188,920.504 442.671,920.504 444.154,920.504 445.637,920.504 447.12,920.504 448.603,920.504 450.086,920.504 451.569,920.504 453.052,920.504 454.535,920.504 456.018,920.504 457.501,920.504 458.984,920.504 460.467,920.504 461.95,920.504 463.433,920.504 464.916,920.504 466.399,920.504 467.882,920.504 469.365,920.504 470.848,920.504 472.331,920.504 473.814,920.504 475.297,920.504 476.78,920.504 478.263,920.504 479.746,920.504 481.229,920.504 482.712,920.504 484.195,920.504 485.678,920.504 487.161,920.504 488.644,920.504 490.127,920.504 491.61,920.504 493.093,920.504 494.576,920.504 496.059,920.504 497.542,920.504 499.025,920.504 500.508,920.504 501.991,920.504 503.474,920.504 504.957,920.504 506.44,920.504 507.923,920.504 509.406,920.504 510.889,920.504 512.372,920.504 513.855,920.504 515.338,920.504 516.821,920.504 518.304,920.504 519.787,920.504 521.27,920.504 522.753,920.504 524.236,920.504 525.719,1129.42 527.202,1129.42 528.685,1129.42 530.167,1129.42 531.65,1129.42 533.133,1129.42 534.616,1129.42 536.099,1129.42 537.582,1129.42 539.065,1129.42 540.548,1129.42 542.031,1129.42 543.514,1338.33 544.997,1338.33 546.48,1338.33 547.963,1338.33 549.446,1338.33 550.929,1338.33 552.412,1338.33 553.895,1338.33 555.378,1338.33 556.861,1338.33 558.344,1338.33 559.827,1338.33 561.31,1338.33 562.793,1338.33 564.276,1338.33 565.759,1338.33 567.242,1338.33 568.725,1338.33 570.208,1338.33 571.691,1338.33 573.174,1338.33 574.657,1338.33 576.14,1338.33 577.623,1338.33 579.106,1338.33 580.589,1338.33 582.072,1129.42 583.555,1129.42 585.038,1129.42 586.521,1129.42 588.004,1129.42 589.487,1129.42 590.97,1129.42 592.453,1129.42 593.936,1129.42 595.419,1129.42 596.902,1129.42 598.385,1129.42 599.868,1129.42 601.351,1129.42 602.834,1129.42 604.317,1129.42 605.8,1129.42 607.283,1129.42 608.766,1129.42 610.249,1129.42 611.732,1129.42 613.215,1129.42 614.698,1129.42 616.181,1129.42 617.664,1129.42 619.147,1129.42 620.63,1129.42 622.113,1129.42 623.596,1129.42 625.079,1129.42 626.562,920.504 628.044,920.504 629.527,920.504 631.01,920.504 632.493,920.504 633.976,1129.42 635.459,1129.42 636.942,1129.42 638.425,1129.42 639.908,1129.42 641.391,1129.42 642.874,1129.42 644.357,1129.42 645.84,1129.42 647.323,1129.42 648.806,1129.42 650.289,1129.42 651.772,1129.42 653.255,1129.42 654.738,1129.42 656.221,1129.42 657.704,1129.42 659.187,1129.42 660.67,1129.42 662.153,1129.42 663.636,1129.42 665.119,1129.42 666.602,1129.42 668.085,1129.42 669.568,1129.42 671.051,1129.42 672.534,1129.42 674.017,1129.42 675.5,1129.42 676.983,1129.42 678.466,1129.42 679.949,1129.42 681.432,1129.42 682.915,1129.42 684.398,1129.42 685.881,1129.42 687.364,1129.42 688.847,1129.42 690.33,1129.42 691.813,1129.42 693.296,1129.42 694.779,1129.42 696.262,1129.42 697.745,1129.42 699.228,1129.42 700.711,1129.42 702.194,1129.42 703.677,1129.42 705.16,1129.42 706.643,1129.42 708.126,1129.42 709.609,1129.42 711.092,1129.42 712.575,1129.42 714.058,1129.42 715.541,1129.42 717.024,1129.42 718.507,1338.33 719.99,1338.33 721.473,1338.33 722.956,1338.33 724.439,1338.33 725.921,1338.33 727.404,1338.33 728.887,1338.33 730.37,1338.33 731.853,1338.33 733.336,1338.33 734.819,1338.33 736.302,1129.42 737.785,1129.42 739.268,1129.42 740.751,1129.42 742.234,1129.42 743.717,1129.42 745.2,1129.42 746.683,1129.42 748.166,1129.42 749.649,1129.42 751.132,1129.42 752.615,1129.42 754.098,1129.42 755.581,1129.42 757.064,1129.42 758.547,1129.42 760.03,1129.42 761.513,1129.42 762.996,1129.42 764.479,1129.42 765.962,1129.42 767.445,1338.33 768.928,1338.33 770.411,1338.33 771.894,1338.33 773.377,1338.33 774.86,1338.33 776.343,1338.33 777.826,1338.33 779.309,1338.33 780.792,1338.33 782.275,1338.33 783.758,1338.33 785.241,1338.33 786.724,1338.33 788.207,1338.33 789.69,1338.33 791.173,1338.33 792.656,1338.33 794.139,1338.33 795.622,1338.33 797.105,1338.33 798.588,1338.33 800.071,1338.33 801.554,1338.33 803.037,1338.33 804.52,1338.33 806.003,1338.33 807.486,1338.33 808.969,1338.33 810.452,1338.33 811.935,1338.33 813.418,1338.33 814.901,1338.33 816.384,1338.33 817.867,1338.33 819.35,1338.33 820.833,1338.33 822.316,1338.33 823.798,1338.33 825.281,1338.33 826.764,1338.33 828.247,1338.33 829.73,1338.33 831.213,1338.33 832.696,1338.33 834.179,1338.33 835.662,1338.33 837.145,1338.33 838.628,1338.33 840.111,1338.33 841.594,1129.42 843.077,920.504 844.56,920.504 846.043,920.504 847.526,920.504 849.009,920.504 850.492,920.504 851.975,920.504 853.458,920.504 854.941,1129.42 856.424,1129.42 857.907,1338.33 859.39,1338.33 860.873,1338.33 862.356,1338.33 863.839,1338.33 865.322,1338.33 866.805,1338.33 868.288,1338.33 869.771,1338.33 871.254,1338.33 872.737,1338.33 874.22,1338.33 875.703,1338.33 877.186,1338.33 878.669,1338.33 880.152,1338.33 881.635,1338.33 883.118,1338.33 884.601,1338.33 886.084,1338.33 887.567,1338.33 889.05,1338.33 890.533,1338.33 892.016,1338.33 893.499,1338.33 894.982,1338.33 896.465,1338.33 897.948,1338.33 899.431,1338.33 900.914,1338.33 902.397,1338.33 903.88,1338.33 905.363,1338.33 906.846,1338.33 908.329,1338.33 909.812,1338.33 911.295,1338.33 912.778,1338.33 914.261,1338.33 915.744,1338.33 917.227,1338.33 918.71,1338.33 920.193,1338.33 921.675,1338.33 923.158,1338.33 924.641,1338.33 926.124,1338.33 927.607,1338.33 929.09,1338.33 930.573,1338.33 932.056,1338.33 933.539,1338.33 935.022,1338.33 936.505,1338.33 937.988,1338.33 939.471,1338.33 940.954,1338.33 942.437,1338.33 943.92,1338.33 945.403,1338.33 946.886,1338.33 948.369,1338.33 949.852,1338.33 951.335,1338.33 952.818,1338.33 954.301,1338.33 955.784,1338.33 957.267,1338.33 958.75,1338.33 960.233,1338.33 961.716,1338.33 963.199,1338.33 964.682,1338.33 966.165,1338.33 967.648,1338.33 969.131,1338.33 970.614,1338.33 972.097,1338.33 973.58,1338.33 975.063,1338.33 976.546,1338.33 978.029,1338.33 979.512,1338.33 980.995,1338.33 982.478,1338.33 983.961,1338.33 985.444,1338.33 986.927,1338.33 988.41,1338.33 989.893,1338.33 991.376,1338.33 992.859,1338.33 994.342,1338.33 995.825,1338.33 997.308,1338.33 998.791,1129.42 1000.27,1129.42 1001.76,1129.42 1003.24,1129.42 1004.72,1129.42 1006.21,1129.42 1007.69,1129.42 1009.17,1129.42 1010.65,1129.42 1012.14,1129.42 1013.62,1129.42 1015.1,1129.42 1016.59,1129.42 1018.07,1129.42 1019.55,1129.42 1021.04,1129.42 1022.52,1129.42 1024,1129.42 1025.48,1129.42 1026.97,920.504 1028.45,920.504 1029.93,920.504 1031.42,920.504 1032.9,920.504 1034.38,920.504 1035.87,920.504 1037.35,920.504 1038.83,920.504 1040.31,920.504 1041.8,920.504 1043.28,920.504 1044.76,920.504 1046.25,920.504 1047.73,920.504 1049.21,920.504 1050.7,920.504 1052.18,920.504 1053.66,920.504 1055.14,920.504 1056.63,920.504 1058.11,920.504 1059.59,920.504 1061.08,920.504 1062.56,920.504 1064.04,920.504 1065.53,920.504 1067.01,920.504 1068.49,920.504 1069.97,920.504 1071.46,920.504 1072.94,920.504 1074.42,920.504 1075.91,920.504 1077.39,920.504 1078.87,920.504 1080.35,920.504 1081.84,920.504 1083.32,920.504 1084.8,920.504 1086.29,920.504 1087.77,920.504 1089.25,711.59 1090.74,711.59 1092.22,711.59 1093.7,711.59 1095.18,711.59 1096.67,711.59 1098.15,711.59 1099.63,711.59 1101.12,711.59 1102.6,711.59 1104.08,711.59 1105.57,711.59 1107.05,711.59 1108.53,711.59 1110.01,711.59 1111.5,711.59 1112.98,711.59 1114.46,711.59 1115.95,711.59 1117.43,711.59 1118.91,711.59 1120.4,711.59 1121.88,711.59 1123.36,711.59 1124.84,711.59 1126.33,711.59 1127.81,711.59 1129.29,711.59 1130.78,711.59 1132.26,711.59 1133.74,711.59 1135.23,920.504 1136.71,920.504 1138.19,920.504 1139.67,920.504 1141.16,920.504 1142.64,920.504 1144.12,920.504 1145.61,920.504 1147.09,920.504 1148.57,920.504 1150.06,920.504 1151.54,920.504 1153.02,1129.42 1154.5,1129.42 1155.99,1129.42 1157.47,1129.42 1158.95,1129.42 1160.44,1129.42 1161.92,1129.42 1163.4,1129.42 1164.89,1129.42 1166.37,1129.42 1167.85,1129.42 1169.33,1129.42 1170.82,1129.42 1172.3,1129.42 1173.78,1129.42 1175.27,1338.33 1176.75,1338.33 1178.23,1338.33 1179.71,1338.33 1181.2,1338.33 1182.68,1338.33 1184.16,1338.33 1185.65,1338.33 1187.13,1338.33 1188.61,1338.33 1190.1,1338.33 1191.58,1338.33 1193.06,1338.33 1194.54,1338.33 1196.03,1338.33 1197.51,1338.33 1198.99,1338.33 1200.48,1338.33 1201.96,1338.33 1203.44,1338.33 1204.93,1338.33 1206.41,1338.33 1207.89,1338.33 1209.37,1338.33 1210.86,1338.33 1212.34,1338.33 1213.82,1338.33 1215.31,1338.33 1216.79,1338.33 1218.27,1338.33 1219.76,1338.33 1221.24,1338.33 1222.72,1338.33 1224.2,1338.33 1225.69,1338.33 1227.17,1338.33 1228.65,1338.33 1230.14,1338.33 1231.62,1338.33 1233.1,1338.33 1234.59,1338.33 1236.07,1338.33 1237.55,1338.33 1239.03,1338.33 1240.52,1338.33 1242,1338.33 1243.48,1338.33 1244.97,1338.33 1246.45,1338.33 1247.93,1338.33 1249.42,1338.33 1250.9,1338.33 1252.38,1338.33 1253.86,1338.33 1255.35,1338.33 1256.83,1338.33 1258.31,1338.33 1259.8,1338.33 1261.28,1338.33 1262.76,1338.33 1264.25,1338.33 1265.73,1338.33 1267.21,1338.33 1268.69,1338.33 1270.18,1338.33 1271.66,1338.33 1273.14,1338.33 1274.63,1338.33 1276.11,1338.33 1277.59,1129.42 1279.07,1129.42 1280.56,1129.42 1282.04,1129.42 1283.52,1129.42 1285.01,1129.42 1286.49,1129.42 1287.97,1129.42 1289.46,1129.42 1290.94,1129.42 1292.42,1129.42 1293.9,1129.42 1295.39,1129.42 1296.87,1129.42 1298.35,1129.42 1299.84,1129.42 1301.32,1129.42 1302.8,1129.42 1304.29,1129.42 1305.77,1129.42 1307.25,1129.42 1308.73,1129.42 1310.22,1129.42 1311.7,1129.42 1313.18,1129.42 1314.67,1129.42 1316.15,1129.42 1317.63,1129.42 1319.12,1129.42 1320.6,1129.42 1322.08,1129.42 1323.56,1129.42 1325.05,1129.42 1326.53,1129.42 1328.01,1129.42 1329.5,1129.42 1330.98,1129.42 1332.46,1129.42 1333.95,1129.42 1335.43,1129.42 1336.91,1129.42 1338.39,1129.42 1339.88,1338.33 1341.36,1338.33 1342.84,1338.33 1344.33,1338.33 1345.81,1338.33 1347.29,1338.33 1348.78,1338.33 1350.26,1338.33 1351.74,1338.33 1353.22,1338.33 1354.71,1338.33 1356.19,1338.33 1357.67,1338.33 1359.16,1338.33 1360.64,1338.33 1362.12,1129.42 1363.6,1129.42 1365.09,1129.42 1366.57,1129.42 1368.05,1129.42 1369.54,1129.42 1371.02,1129.42 1372.5,1129.42 1373.99,1129.42 1375.47,1129.42 1376.95,1129.42 1378.43,1129.42 1379.92,1129.42 1381.4,1129.42 1382.88,1129.42 1384.37,1129.42 1385.85,1129.42 1387.33,1129.42 1388.82,1129.42 1390.3,1129.42 1391.78,1129.42 1393.26,1129.42 1394.75,1338.33 1396.23,1338.33 1397.71,1338.33 1399.2,1338.33 1400.68,1338.33 1402.16,1129.42 1403.65,1129.42 1405.13,1129.42 1406.61,1129.42 1408.09,1129.42 1409.58,1129.42 1411.06,1129.42 1412.54,1129.42 1414.03,1129.42 1415.51,1129.42 1416.99,1129.42 1418.48,1129.42 1419.96,1129.42 1421.44,1129.42 1422.92,1129.42 1424.41,1129.42 1425.89,1129.42 1427.37,1129.42 1428.86,1129.42 1430.34,1129.42 1431.82,1129.42 1433.31,1129.42 1434.79,1129.42 1436.27,1129.42 1437.75,1129.42 1439.24,1129.42 1440.72,1129.42 1442.2,1129.42 1443.69,1338.33 1445.17,1338.33 1446.65,1338.33 1448.14,1338.33 1449.62,1338.33 1451.1,1338.33 1452.58,1338.33 1454.07,1338.33 1455.55,1338.33 1457.03,1338.33 1458.52,1338.33 1460,1338.33 1461.48,1338.33 1462.96,1338.33 1464.45,1338.33 1465.93,1338.33 1467.41,1338.33 1468.9,1338.33 1470.38,1338.33 1471.86,1338.33 1473.35,1338.33 1474.83,1338.33 1476.31,1338.33 1477.79,1338.33 1479.28,1338.33 1480.76,1338.33 1482.24,1338.33 1483.73,1338.33 1485.21,1338.33 1486.69,1338.33 1488.18,1338.33 1489.66,1338.33 1491.14,1338.33 1492.62,1338.33 1494.11,1338.33 1495.59,1338.33 1497.07,1338.33 1498.56,1338.33 1500.04,1338.33 1501.52,1338.33 1503.01,1338.33 1504.49,1338.33 1505.97,1338.33 1507.45,1338.33 1508.94,1338.33 1510.42,1338.33 1511.9,1338.33 1513.39,1338.33 1514.87,1338.33 1516.35,1338.33 1517.84,1338.33 1519.32,1338.33 1520.8,1338.33 1522.28,1338.33 1523.77,1338.33 1525.25,1338.33 1526.73,1338.33 1528.22,1338.33 1529.7,1338.33 1531.18,1338.33 1532.67,1338.33 1534.15,1338.33 1535.63,1338.33 1537.11,1338.33 1538.6,1338.33 1540.08,1338.33 1541.56,1338.33 1543.05,1338.33 1544.53,1338.33 1546.01,1338.33 1547.5,1338.33 1548.98,1338.33 1550.46,1338.33 1551.94,1338.33 1553.43,1338.33 1554.91,1338.33 1556.39,1338.33 1557.88,1338.33 1559.36,1338.33 1560.84,1338.33 1562.32,1338.33 1563.81,1338.33 1565.29,1338.33 1566.77,1338.33 1568.26,1338.33 1569.74,1338.33 1571.22,1338.33 1572.71,1338.33 1574.19,1338.33 1575.67,1338.33 1577.15,1338.33 1578.64,1338.33 1580.12,1338.33 1581.6,1338.33 1583.09,1338.33 1584.57,1338.33 1586.05,1338.33 1587.54,1338.33 1589.02,1338.33 1590.5,1338.33 1591.98,1338.33 1593.47,1338.33 1594.95,1338.33 1596.43,1338.33 1597.92,1338.33 1599.4,1338.33 1600.88,1338.33 1602.37,1338.33 1603.85,1338.33 1605.33,1338.33 1606.81,1338.33 1608.3,1338.33 1609.78,1338.33 1611.26,1338.33 1612.75,1338.33 1614.23,1338.33 1615.71,1338.33 1617.2,1338.33 1618.68,1338.33 1620.16,1338.33 1621.64,1338.33 1623.13,1338.33 1624.61,1129.42 1626.09,1129.42 1627.58,1129.42 1629.06,920.504 1630.54,920.504 1632.03,920.504 1633.51,920.504 1634.99,920.504 1636.47,920.504 1637.96,920.504 1639.44,920.504 1640.92,920.504 1642.41,920.504 1643.89,920.504 1645.37,1129.42 1646.86,1129.42 1648.34,1129.42 1649.82,1129.42 1651.3,1129.42 1652.79,1129.42 1654.27,1129.42 1655.75,1129.42 1657.24,1129.42 1658.72,1129.42 1660.2,1129.42 1661.68,1129.42 1663.17,1129.42 1664.65,1129.42 1666.13,1129.42 1667.62,1129.42 1669.1,1129.42 1670.58,1129.42 1672.07,1129.42 1673.55,1129.42 1675.03,1129.42 1676.51,1129.42 1678,1129.42 1679.48,1129.42 1680.96,1129.42 1682.45,1129.42 1683.93,1129.42 1685.41,1129.42 1686.9,1129.42 1688.38,1129.42 1689.86,1129.42 1691.34,1129.42 1692.83,1129.42 1694.31,1129.42 1695.79,1129.42 1697.28,1129.42 1698.76,1129.42 1700.24,1129.42 1701.73,1129.42 1703.21,1129.42 1704.69,1129.42 1706.17,1129.42 1707.66,1129.42 1709.14,1129.42 1710.62,1129.42 1712.11,1129.42 1713.59,1129.42 1715.07,1129.42 1716.56,1129.42 1718.04,1129.42 1719.52,1129.42 1721,1129.42 1722.49,1129.42 1723.97,1129.42 1725.45,1129.42 1726.94,1129.42 1728.42,1129.42 1729.9,1129.42 1731.39,1129.42 1732.87,1129.42 1734.35,1129.42 1735.83,1129.42 1737.32,1129.42 1738.8,1129.42 1740.28,1129.42 1741.77,1129.42 1743.25,1129.42 1744.73,1129.42 1746.22,1129.42 1747.7,1129.42 1749.18,1129.42 1750.66,1129.42 1752.15,1129.42 1753.63,1129.42 1755.11,1129.42 1756.6,1129.42 1758.08,1129.42 1759.56,1129.42 1761.04,1129.42 1762.53,1129.42 1764.01,1129.42 1765.49,1338.33 1766.98,1338.33 1768.46,1338.33 1769.94,1338.33 1771.43,1338.33 1772.91,1338.33 1774.39,1338.33 1775.87,1338.33 1777.36,1338.33 1778.84,1338.33 1780.32,1338.33 1781.81,1338.33 1783.29,1338.33 1784.77,1338.33 1786.26,1338.33 1787.74,1338.33 1789.22,1338.33 1790.7,1338.33 1792.19,1338.33 1793.67,1338.33 1795.15,1338.33 1796.64,1338.33 1798.12,1338.33 1799.6,1338.33 1801.09,1338.33 1802.57,1338.33 1804.05,1338.33 1805.53,1338.33 1807.02,1338.33 1808.5,1338.33 1809.98,1338.33 1811.47,1338.33 1812.95,1338.33 1814.43,1338.33 1815.92,1338.33 1817.4,1338.33 1818.88,1338.33 1820.36,1338.33 1821.85,1338.33 1823.33,1338.33 1824.81,1338.33 1826.3,1338.33 1827.78,1338.33 1829.26,1338.33 1830.75,1129.42 1832.23,1129.42 1833.71,1129.42 1835.19,1129.42 1836.68,1129.42 1838.16,1129.42 1839.64,1129.42 1841.13,1129.42 1842.61,1129.42 1844.09,1129.42 1845.58,1129.42 1847.06,1129.42 1848.54,1129.42 1850.02,1129.42 1851.51,1129.42 1852.99,1129.42 1854.47,1129.42 1855.96,1129.42 1857.44,1129.42 1858.92,1129.42 1860.4,1129.42 1861.89,1129.42 1863.37,1129.42 1864.85,1129.42 1866.34,1129.42 1867.82,1129.42 1869.3,1129.42 1870.79,1129.42 1872.27,1129.42 1873.75,1129.42 1875.23,1129.42 1876.72,1129.42 1878.2,1338.33 1879.68,1338.33 1881.17,1338.33 1882.65,1338.33 1884.13,1338.33 1885.62,1338.33 1887.1,1338.33 1888.58,1338.33 1890.06,1338.33 1891.55,1338.33 1893.03,1338.33 1894.51,1338.33 1896,1338.33 1897.48,1338.33 1898.96,1338.33 1900.45,1338.33 1901.93,1338.33 1903.41,1338.33 1904.89,1338.33 1906.38,1338.33 1907.86,1338.33 1909.34,1129.42 1910.83,1129.42 1912.31,1129.42 1913.79,1129.42 1915.28,1129.42 1916.76,1129.42 1918.24,1129.42 1919.72,1129.42 1921.21,1129.42 1922.69,1129.42 1924.17,1129.42 1925.66,1129.42 1927.14,1129.42 1928.62,1129.42 1930.11,1129.42 1931.59,1129.42 1933.07,1129.42 1934.55,1129.42 1936.04,1129.42 1937.52,1129.42 1939,1129.42 1940.49,1129.42 1941.97,1129.42 1943.45,1129.42 1944.94,1129.42 1946.42,1129.42 1947.9,1129.42 1949.38,1129.42 1950.87,1129.42 1952.35,1129.42 1953.83,1129.42 1955.32,1129.42 1956.8,1129.42 1958.28,1129.42 1959.76,1129.42 1961.25,1129.42 1962.73,1129.42 1964.21,1129.42 1965.7,1129.42 1967.18,1129.42 1968.66,1129.42 1970.15,1129.42 1971.63,1129.42 1973.11,1129.42 1974.59,1129.42 1976.08,1129.42 1977.56,1129.42 1979.04,1129.42 1980.53,1129.42 1982.01,1129.42 1983.49,1129.42 1984.98,1129.42 1986.46,1129.42 1987.94,1129.42 1989.42,1129.42 1990.91,1129.42 1992.39,1129.42 1993.87,1129.42 1995.36,1129.42 1996.84,1129.42 1998.32,1129.42 1999.81,1129.42 2001.29,1129.42 2002.77,1129.42 2004.25,1129.42 2005.74,1129.42 2007.22,1129.42 2008.7,1129.42 2010.19,1129.42 2011.67,1129.42 2013.15,1129.42 2014.64,1129.42 2016.12,1129.42 2017.6,1129.42 2019.08,1129.42 2020.57,1129.42 2022.05,920.504 2023.53,920.504 2025.02,920.504 2026.5,920.504 2027.98,920.504 2029.47,920.504 2030.95,1129.42 2032.43,1129.42 2033.91,1129.42 2035.4,1129.42 2036.88,1129.42 2038.36,1129.42 2039.85,1129.42 2041.33,1129.42 2042.81,1129.42 2044.3,1129.42 2045.78,1129.42 2047.26,1129.42 2048.74,1129.42 2050.23,1129.42 2051.71,1129.42 2053.19,1129.42 2054.68,1129.42 2056.16,1129.42 2057.64,1129.42 2059.12,1129.42 2060.61,1129.42 2062.09,1129.42 2063.57,1129.42 2065.06,1129.42 2066.54,1129.42 2068.02,1129.42 2069.51,1129.42 2070.99,1129.42 2072.47,1129.42 2073.95,1129.42 2075.44,1129.42 2076.92,1129.42 2078.4,1129.42 2079.89,1129.42 2081.37,1129.42 2082.85,1129.42 2084.34,1129.42 2085.82,1129.42 2087.3,1129.42 2088.78,1129.42 2090.27,1129.42 2091.75,1129.42 2093.23,920.504 2094.72,711.59 2096.2,711.59 2097.68,711.59 2099.17,711.59 2100.65,711.59 2102.13,711.59 2103.61,711.59 2105.1,711.59 2106.58,711.59 2108.06,711.59 2109.55,711.59 2111.03,711.59 2112.51,711.59 2114,711.59 2115.48,711.59 2116.96,920.504 2118.44,920.504 2119.93,920.504 2121.41,920.504 2122.89,920.504 2124.38,920.504 2125.86,920.504 2127.34,920.504 2128.83,920.504 2130.31,920.504 2131.79,920.504 2133.27,920.504 2134.76,920.504 2136.24,920.504 2137.72,920.504 2139.21,920.504 2140.69,920.504 2142.17,920.504 2143.66,920.504 2145.14,920.504 2146.62,920.504 2148.1,920.504 2149.59,920.504 2151.07,920.504 2152.55,920.504 2154.04,920.504 2155.52,920.504 2157,920.504 2158.48,920.504 2159.97,920.504 2161.45,920.504 2162.93,920.504 2164.42,920.504 2165.9,920.504 2167.38,920.504 2168.87,920.504 2170.35,920.504 2171.83,920.504 2173.31,920.504 2174.8,920.504 2176.28,920.504 2177.76,502.676 2179.25,502.676 2180.73,711.59 2182.21,711.59 2183.7,711.59 2185.18,502.676 2186.66,502.676 2188.14,502.676 2189.63,502.676 2191.11,502.676 2192.59,502.676 2194.08,502.676 2195.56,502.676 2197.04,502.676 2198.53,711.59 2200.01,711.59 2201.49,711.59 2202.97,502.676 2204.46,502.676 2205.94,502.676 2207.42,502.676 2208.91,502.676 2210.39,502.676 2211.87,502.676 2213.36,502.676 2214.84,502.676 2216.32,502.676 2217.8,502.676 2219.29,502.676 2220.77,502.676 2222.25,502.676 2223.74,502.676 2225.22,502.676 2226.7,502.676 2228.19,502.676 2229.67,502.676 2231.15,502.676 2232.63,502.676 2234.12,502.676 2235.6,502.676 2237.08,502.676 2238.57,502.676 2240.05,502.676 2241.53,502.676 2243.02,502.676 2244.5,502.676 2245.98,502.676 2247.46,502.676 2248.95,502.676 2250.43,502.676 2251.91,502.676 2253.4,502.676 2254.88,502.676 2256.36,502.676 2257.84,502.676 2259.33,502.676 2260.81,502.676 2262.29,502.676 2263.78,502.676 2265.26,502.676 2266.74,502.676 2268.23,502.676 2269.71,502.676 2271.19,502.676 2272.67,502.676 2274.16,502.676 2275.64,502.676 2277.12,502.676 2278.61,502.676 2280.09,502.676 2281.57,502.676 2283.06,502.676 2284.54,502.676 2286.02,293.762 2287.5,293.762 2288.99,293.762 2290.47,293.762 2291.95,293.762 2293.44,293.762 2294.92,293.762 2296.4,293.762 2297.89,293.762 2299.37,293.762 2300.85,293.762 2302.33,293.762 2303.82,84.8486 2305.3,84.8486 2306.78,84.8486 2308.27,84.8486 2309.75,84.8486 2311.23,84.8486 2312.72,84.8486 2314.2,84.8486 2315.68,84.8486 2317.16,84.8486 2318.65,84.8486 2320.13,84.8486 2321.61,84.8486 2323.1,84.8486 2324.58,84.8486 2326.06,84.8486 2327.55,84.8486 2329.03,84.8486 2330.51,84.8486 2331.99,84.8486 2333.48,84.8486 2334.96,84.8486 2336.44,84.8486 2337.93,84.8486 2339.41,84.8486 2340.89,84.8486 2342.38,84.8486 2343.86,84.8486 2345.34,84.8486 2346.82,84.8486 2348.31,84.8486 2349.79,84.8486 2351.27,84.8486 2352.76,293.762 "/>
<path clip-path="url(#clip930)" d="M232.532 195.214 L474.181 195.214 L474.181 91.5338 L232.532 91.5338  Z" fill="#ffffff" fill-rule="evenodd" fill-opacity="1"/>
<polyline clip-path="url(#clip930)" style="stroke:#000000; stroke-linecap:round; stroke-linejoin:round; stroke-width:4; stroke-opacity:1; fill:none" points="232.532,195.214 474.181,195.214 474.181,91.5338 232.532,91.5338 232.532,195.214 "/>
<polyline clip-path="url(#clip930)" style="stroke:#009af9; stroke-linecap:round; stroke-linejoin:round; stroke-width:8; stroke-opacity:1; fill:none" points="256.903,143.374 403.125,143.374 "/>
<path clip-path="url(#clip930)" d="M432.171 129.936 L432.171 142.922 L438.051 142.922 Q441.315 142.922 443.097 141.233 Q444.88 139.543 444.88 136.418 Q444.88 133.316 443.097 131.626 Q441.315 129.936 438.051 129.936 L432.171 129.936 M427.496 126.094 L438.051 126.094 Q443.861 126.094 446.824 128.733 Q449.81 131.348 449.81 136.418 Q449.81 141.534 446.824 144.149 Q443.861 146.765 438.051 146.765 L432.171 146.765 L432.171 160.654 L427.496 160.654 L427.496 126.094 Z" fill="#000000" fill-rule="nonzero" fill-opacity="1" /></svg>
